<?xml version="1.0" encoding="UTF-8"?>
<svg xmlns="http://www.w3.org/2000/svg" version="1.1" viewBox="0 0 826.8 801.3">
  <defs>
    <style>
      .cls-1 {
        fill: #2c2c2c;
      }

      .cls-2, .cls-3 {
        fill: #fff;
      }

      .cls-4 {
        fill: #493930;
      }

      .cls-5 {
        fill: #be8839;
      }

      .cls-6 {
        fill: #dbded7;
      }

      .cls-7 {
        fill: #914f00;
      }

      .cls-3, .cls-8, .cls-9, .cls-10 {
        isolation: isolate;
      }

      .cls-11 {
        fill: #9a2442;
      }

      .cls-12, .cls-13 {
        fill: none;
      }

      .cls-14 {
        fill: #303030;
      }

      .cls-15 {
        fill: #f53200;
      }

      .cls-16 {
        fill: #47494a;
      }

      .cls-17 {
        fill: #655a50;
      }

      .cls-18 {
        fill: #00b589;
      }

      .cls-19 {
        fill: #e30613;
      }

      .cls-20 {
        fill: #474949;
      }

      .cls-21 {
        fill: #fcf7fd;
      }

      .cls-9, .cls-22 {
        fill: #ccc;
      }

      .cls-23 {
        fill: #ada390;
      }

      .cls-24 {
        fill: #686868;
      }

      .cls-25 {
        fill: #e3ad51;
      }

      .cls-10 {
        fill: gray;
      }

      .cls-26 {
        fill: #ddd;
      }

      .cls-27 {
        fill: #333;
      }

      .cls-28 {
        fill: #1a1a1a;
      }

      .cls-29 {
        fill: #c4b3a8;
      }

      .cls-30 {
        fill: #a3928b;
      }

      .cls-31 {
        fill: #36323e;
      }

      .cls-32 {
        fill: #eaeaea;
      }

      .cls-33 {
        fill: #1a1919;
      }

      .cls-34 {
        fill: #e3b37d;
      }

      .cls-35 {
        fill: #010103;
      }

      .cls-36 {
        fill: #f5b93e;
      }

      .cls-37 {
        fill: #e0dcd3;
      }

      .cls-13 {
        stroke: #493930;
        stroke-miterlimit: 10;
      }

      .cls-38 {
        fill: #bcb3ad;
      }
    </style>
  </defs>
  <!-- Generator: Adobe Illustrator 28.6.0, SVG Export Plug-In . SVG Version: 1.2.0 Build 709)  -->
  <g>
    <g id="Ebene_1">
      <g>
        <g>
          <path class="cls-33" d="M567.1,61.5H14.1c-3.8,0-6.9,3.1-6.9,6.9v682.3c0,3.8,3.1,6.9,6.9,6.9h16.7l32.4,32.4h346.6s32.4-32.4,32.4-32.4h124.9c3.8,0,6.9-3.1,6.9-6.9V68.4c0-3.8-3.1-6.9-6.9-6.9ZM34,227c-9.5,0-17.2-7.7-17.2-17.2s7.7-17.2,17.2-17.2,17.2,7.7,17.2,17.2-7.7,17.2-17.2,17.2ZM90.8,779.2c-9.5,0-17.2-7.7-17.2-17.2s7.7-17.2,17.2-17.2,17.2,7.7,17.2,17.2-7.7,17.2-17.2,17.2ZM388,779.2c-9.5,0-17.2-7.7-17.2-17.2s7.7-17.2,17.2-17.2,17.2,7.7,17.2,17.2-7.7,17.2-17.2,17.2ZM547.7,237.9c-9.5,0-17.2-7.7-17.2-17.2s7.7-17.2,17.2-17.2,17.2,7.7,17.2,17.2-7.7,17.2-17.2,17.2Z"/>
          <rect class="cls-14" x="60.2" y="29.9" width="96.5" height="136.2"/>
          <path class="cls-14" d="M68.8,166h79.4v8.3c0,3.9-3.2,7.1-7.1,7.1h-65.1c-3.9,0-7.1-3.2-7.1-7.1v-8.3h0Z"/>
          <path class="cls-26" d="M549.5,98.2h-20.3v-4.3c0-.7-.6-1.4-1.4-1.4h-19.5c-.7,0-1.4.6-1.4,1.4v4.3h-20.3c-.9,0-1.7.7-1.7,1.7v61.7c0,.9.7,1.7,1.7,1.7h62.9c.9,0,1.7-.7,1.7-1.7v-61.7c0-.9-.7-1.7-1.7-1.7Z"/>
          <circle class="cls-11" cx="518.1" cy="127.9" r="18.2"/>
          <g>
            <circle class="cls-26" cx="148.2" cy="269" r="33.4"/>
            <path class="cls-35" d="M130.2,245.7c-7.7,4.9-12.8,13.5-12.8,23.3s5.1,18.4,12.8,23.3v-46.6Z"/>
          </g>
          <g>
            <circle class="cls-26" cx="172.4" cy="362.9" r="33.4"/>
            <path class="cls-35" d="M165.5,334.3c-9,1.3-17.2,7.1-21.2,16.1s-2.8,18.9,2.3,26.5l18.9-42.6Z"/>
          </g>
          <rect class="cls-34" x="271.5" y="137.9" width="9.3" height="20.4"/>
          <rect class="cls-34" x="351" y="179.4" width="9.3" height="20.4"/>
          <rect class="cls-34" x="435.7" y="249.7" width="9.3" height="20.4" transform="translate(700.3 -180.5) rotate(90)"/>
          <rect class="cls-34" x="435.7" y="193.2" width="9.3" height="20.4" transform="translate(643.8 -236.9) rotate(90)"/>
          <rect class="cls-34" x="317.6" y="277.1" width="9.3" height="20.4"/>
          <rect class="cls-36" x="383.6" y="369.6" width="9.3" height="20.4"/>
          <rect class="cls-34" x="409.1" y="369.6" width="9.3" height="20.4"/>
          <rect class="cls-34" x="434.1" y="369.6" width="9.3" height="20.4"/>
          <rect class="cls-34" x="320.3" y="642.5" width="9.3" height="20.4" transform="translate(-327.7 977.6) rotate(-90)"/>
          <rect class="cls-36" x="374.7" y="659.8" width="9.3" height="20.4"/>
          <rect class="cls-20" x="294.3" y="179.4" width="29.9" height="13.9" rx="1.5" ry="1.5"/>
          <g>
            <path class="cls-37" d="M296.9,167.5h11.5v10.9h-11.5c-.7,0-1.2-.6-1.2-1.2v-8.4c0-.7.6-1.2,1.2-1.2Z" transform="translate(475 -129) rotate(90)"/>
            <path class="cls-37" d="M311.4,167.5h11.5v10.9h-11.5c-.7,0-1.2-.6-1.2-1.2v-8.4c0-.7.6-1.2,1.2-1.2Z" transform="translate(489.5 -143.5) rotate(90)"/>
          </g>
          <g>
            <rect class="cls-6" x="408.7" y="343.8" width="10.1" height="16.3"/>
            <rect class="cls-20" x="408.7" y="346.2" width="10.1" height="11.2"/>
          </g>
          <g>
            <rect class="cls-6" x="433.7" y="343.8" width="10.1" height="16.3"/>
            <rect class="cls-20" x="433.7" y="346.2" width="10.1" height="11.2"/>
          </g>
          <g>
            <rect class="cls-6" x="300.5" y="312.1" width="10.1" height="16.3" transform="translate(-14.7 625.9) rotate(-90)"/>
            <rect class="cls-20" x="300.4" y="314.7" width="10.1" height="11.2" transform="translate(-14.8 625.7) rotate(-90)"/>
          </g>
          <g>
            <rect class="cls-6" x="248.3" y="312.1" width="10.1" height="16.3" transform="translate(-66.9 573.6) rotate(-90)"/>
            <rect class="cls-20" x="248.1" y="314.7" width="10.1" height="11.2" transform="translate(-67.1 573.5) rotate(-90)"/>
          </g>
          <g>
            <rect class="cls-6" x="374.7" y="631" width="10.1" height="16.3"/>
            <rect class="cls-20" x="374.7" y="633.4" width="10.1" height="11.2"/>
          </g>
          <g>
            <rect class="cls-6" x="319.9" y="663.5" width="10.1" height="16.3" transform="translate(-346.7 996.6) rotate(-90)"/>
            <rect class="cls-20" x="319.7" y="666" width="10.1" height="11.2" transform="translate(-346.9 996.4) rotate(-90)"/>
          </g>
          <g>
            <rect class="cls-6" x="460.8" y="106.4" width="10.1" height="16.3"/>
            <rect class="cls-20" x="460.8" y="108.8" width="10.1" height="11.2"/>
          </g>
          <g>
            <rect class="cls-6" x="328.3" y="107.4" width="10.1" height="16.3"/>
            <rect class="cls-20" x="328.3" y="109.8" width="10.1" height="11.2"/>
          </g>
          <rect class="cls-30" x="426.5" y="214.8" width="11.6" height="31.2" rx="3.7" ry="3.7"/>
          <g>
            <rect class="cls-25" x="358.2" y="453.1" width="21.2" height="16.9" rx="2.9" ry="2.9" transform="translate(-218.4 396) rotate(-45)"/>
            <rect class="cls-29" x="359.1" y="453.8" width="19.5" height="15.6" rx="2.9" ry="2.9" transform="translate(-218.4 396) rotate(-45)"/>
          </g>
          <rect class="cls-38" x="362.9" y="430.3" width="11.6" height="10.4"/>
          <rect class="cls-38" x="381.4" y="430.3" width="11.6" height="10.4"/>
          <rect class="cls-38" x="362.9" y="480.5" width="11.6" height="10.4"/>
          <rect class="cls-38" x="381.4" y="480.5" width="11.6" height="10.4"/>
          <rect class="cls-15" x="316.8" y="692.4" width="19.8" height="10.4" rx="2.8" ry="2.8"/>
          <g>
            <path class="cls-2" d="M36.8,94.6v-4.3h2v6.8h-1.4c-2.7-2.3-4.6-2.5-8.4-2.7v-2.4c3.3.2,5.3.7,7.9,2.6Z"/>
            <path class="cls-2" d="M33.5,98.4v3.8h-1.7v-3.8h1.7Z"/>
            <path class="cls-2" d="M30.8,103.9v2.1h5.6v-1.8h1.5c.2,1,.5,1.7.9,2.4v1.7h-8v1.8h-1.9v-6.2h1.9Z"/>
            <path class="cls-2" d="M30.3,111.5c2.2,2.6,4,4.1,5.4,4.1s1.4-.5,1.4-1.3-.5-1.2-1-1.7l1.2-1.2c1,1,1.6,1.8,1.6,3.2s-1.2,3.2-3.1,3.2-3.6-1.6-5.1-3.2c0,.5.1,1.2.1,1.6v2h-2v-6.8h1.5Z"/>
            <path class="cls-2" d="M38.7,118.9v2.5l-4.5,1.1c-1.1.3-2.1.5-3.2.8h0c1.1.3,2.1.6,3.2.8l4.5,1.2v2.4l-9.9-3v-2.8l9.9-2.9Z"/>
            <path class="cls-2" d="M38.7,131.7v2.4h-9.9v-2.4h9.9Z"/>
            <path class="cls-2" d="M38.7,136.3v2.4l-4.7,2.4c-.7.3-1.5.7-2.2,1h0c1.1,0,2.5-.2,3.6-.2h3.3v2.2h-9.9v-2.4l4.7-2.4c.7-.3,1.5-.7,2.2-1h0c-1.1,0-2.5.2-3.6.2h-3.3v-2.2h9.9Z"/>
            <path class="cls-2" d="M38.7,146.5v3.5c0,2.2-.8,3.9-3.2,3.9s-3.4-1.8-3.4-3.9v-1.2h-3.3v-2.4h9.9ZM34,149.9c0,1.2.5,1.7,1.5,1.7s1.3-.6,1.3-1.8v-1h-2.9v1Z"/>
            <path class="cls-2" d="M33.5,155.5h5.2v2.4h-5.5c-1.9,0-2.5.6-2.5,1.6s.7,1.7,2.5,1.7h5.5v2.3h-5.2c-3.3,0-4.8-1.3-4.8-3.9s1.5-4,4.8-4Z"/>
            <path class="cls-2" d="M36.8,167.6v-2.7h2v7.7h-2v-2.7h-7.9v-2.4h7.9Z"/>
          </g>
          <g>
            <path class="cls-2" d="M565.8,107.5v3.6c0,2.1-.7,3.9-3.1,3.9s-2.4-.7-2.9-1.7l-3.9,2.2v-2.6l3.5-1.8v-1.2h-3.5v-2.4h9.9ZM561.3,111c0,1.1.5,1.7,1.4,1.7s1.2-.6,1.2-1.7v-1.1h-2.7v1.1Z"/>
            <path class="cls-2" d="M565.8,116.9v6.3h-2v-3.9h-1.9v3.3h-2v-3.3h-2.1v4h-2v-6.4h9.9Z"/>
            <path class="cls-2" d="M557.2,124.6l1.5,1.2c-.6.7-.9,1.7-.9,2.5s.3,1.3.9,1.3.8-.5,1.1-1.4l.5-1.3c.4-1,1.3-2,2.7-2s3,1.5,3,3.6-.4,2.4-1.2,3.2l-1.5-1.2c.5-.7.7-1.4.7-2s-.3-1.2-.8-1.2-.8.6-1.1,1.5l-.5,1.2c-.5,1.2-1.3,2-2.7,2s-3.1-1.4-3.1-3.8.5-2.7,1.4-3.7Z"/>
            <path class="cls-2" d="M565.8,133.7v6.3h-2v-3.9h-1.9v3.3h-2v-3.3h-2.1v4h-2v-6.4h9.9Z"/>
            <path class="cls-2" d="M563.8,144v-2.7h2v7.7h-2v-2.7h-7.9v-2.4h7.9Z"/>
          </g>
          <g>
            <path class="cls-2" d="M359.9,734.6v2.4h-9.9v-2.4h9.9Z"/>
            <path class="cls-2" d="M354.9,738.7c3.3,0,5.2,2.2,5.2,4.7s-.6,2.3-1.3,3l-1.4-1.2c.5-.5.7-1,.7-1.7,0-1.3-1.2-2.4-3.1-2.4s-3.1.9-3.1,2.3.3,1.4.8,1.9l-1.4,1.2c-1-.9-1.5-2-1.5-3.2,0-2.5,1.7-4.6,5.1-4.6Z"/>
            <path class="cls-2" d="M351.3,747l1.5,1.2c-.6.7-.9,1.7-.9,2.5s.3,1.3.9,1.3.8-.5,1.1-1.4l.5-1.3c.4-1,1.3-2,2.7-2s3,1.5,3,3.6-.4,2.4-1.2,3.2l-1.5-1.2c.5-.7.7-1.4.7-2s-.3-1.2-.8-1.2-.8.6-1.1,1.5l-.5,1.2c-.5,1.2-1.3,2-2.7,2s-3.1-1.4-3.1-3.8.5-2.7,1.4-3.7Z"/>
            <path class="cls-2" d="M359.9,756.1v3.5c0,2.2-.8,3.9-3.2,3.9s-3.4-1.8-3.4-3.9v-1.2h-3.3v-2.4h9.9ZM355.2,759.5c0,1.2.5,1.7,1.5,1.7s1.3-.6,1.3-1.8v-1h-2.9v1Z"/>
          </g>
          <path class="cls-2" d="M376,688.9c-1.2,1-1.9,2.4-1.9,4,0,2.9,2.3,5.2,5.2,5.2s5.2-2.3,5.2-5.2-.7-3.1-1.9-4c-.4-.3-.5-.9-.1-1.3.3-.4.9-.5,1.3-.1,1.6,1.3,2.6,3.3,2.6,5.5,0,3.9-3.2,7.1-7.1,7.1s-7.1-3.2-7.1-7.1,1-4.2,2.6-5.5c.4-.3,1-.3,1.3.1.3.4.3,1-.1,1.3h0ZM380.3,692.9c0,.5-.4.9-.9.9s-.9-.4-.9-.9v-6.6c0-.5.4-.9.9-.9s.9.4.9.9v6.6Z"/>
          <polyline class="cls-13" points="41.3 244.2 47.7 244.2 107.1 303.6 117.3 303.6"/>
          <polyline class="cls-13" points="41.2 251.9 47.7 251.9 104.8 309 104.8 434 158.6 487.8 208.7 487.8 220.3 476 257.3 476"/>
          <polyline class="cls-13" points="38.8 277.9 49.6 277.9 89.6 318 89.6 434.7 155.9 501 261.9 501"/>
          <polyline class="cls-13" points="28.9 359.1 65.9 396.1 65.9 456.8 38.7 484"/>
          <line class="cls-4" x1="79.3" y1="436.7" x2="151.3" y2="508.6"/>
          <polyline class="cls-13" points="131.8 500.6 91.3 541.1 30.4 541.1"/>
          <polyline class="cls-13" points="131.8 510.6 93.8 548.7 31.8 548.7"/>
          <polyline class="cls-13" points="260.9 509.2 230 509.2 158.2 581 81.8 581 60.3 602.5 36.8 602.5"/>
          <polyline class="cls-13" points="243.9 517.8 243.9 561.8 177.7 628.1 36.1 628.1"/>
          <polyline class="cls-13" points="258.5 536.8 258.5 571.2 174.4 655.2 36.8 655.2"/>
          <polyline class="cls-13" points="266.8 536.5 266.8 573.8 157.9 682.7 30.4 682.7"/>
          <polyline class="cls-13" points="275.3 537.4 275.3 580.7 147 708.9 36.1 708.9"/>
          <polyline class="cls-13" points="283.4 541.2 283.4 588.1 135 736.5 36.1 736.5"/>
          <line class="cls-4" x1="319.2" y1="621.8" x2="284.4" y2="587.1"/>
          <polyline class="cls-13" points="321.4 637.3 297.5 613.4 273 613.4"/>
          <polyline class="cls-13" points="334 644.7 334 588.9 291.6 546.5 291.6 528.1"/>
          <polyline class="cls-13" points="271.4 753.7 255.9 738.1 255.9 676.7 279.9 652.7"/>
          <polyline class="cls-13" points="299.7 536.1 299.7 546.4 350.5 597.2 388.2 597.2 488.2 697.2 488.2 724.8 499.3 736 542.1 736"/>
          <polyline class="cls-13" points="308.1 537.1 308.1 547.4 348.2 587.6 407.1 587.6 546.8 727.3"/>
          <polyline class="cls-13" points="317.6 536.7 356.4 575.4 418.6 575.4 551.9 708.7"/>
          <polyline class="cls-13" points="335.3 517.1 386.9 517.1 549.3 679.4"/>
          <polyline class="cls-13" points="336.6 509.2 393.7 509.2 551.4 667"/>
          <polyline class="cls-13" points="477.9 528 471.3 521.4 427.7 521.4"/>
          <polyline class="cls-13" points="336.6 467.8 347.1 467.8 355.5 476.2 365.7 476.2"/>
          <polyline class="cls-13" points="336.4 459.4 345.8 459.4 355.8 449.3 368.4 449.3"/>
          <polyline class="cls-13" points="316 437 331.6 421.4 397.9 421.4 545.1 568.6"/>
          <polyline class="cls-13" points="308 438.7 308 434.4 326.5 415.9 400.7 415.9 552.9 568.1"/>
          <polyline class="cls-13" points="299.7 438.7 299.7 430.7 318.9 411.5 404.3 411.5 552.7 559.9"/>
          <polyline class="cls-13" points="291.6 437.2 291.6 429.4 314.1 406.8 404.7 406.8 554.2 556.3"/>
          <polyline class="cls-13" points="283.4 436.7 283.4 425.4 307 401.7 405.8 401.7 558.1 554"/>
          <polyline class="cls-13" points="275 438.3 275 417.7 295.1 398.6 410.6 398.6 462.8 450.9 558.1 450.9"/>
          <polyline class="cls-13" points="266.8 436.5 266.8 414.4 289.3 393.6 412.2 393.6 441.9 423.3 556.7 423.3"/>
          <polyline class="cls-13" points="258.5 436.1 258.5 413.3 279.4 392.4 282.6 389.2"/>
          <polyline class="cls-13" points="217.1 453.2 217.1 425.7 281.9 360.8 306.5 360.8 313.1 367.4 360.4 367.4 386.4 341.5 412.2 341.5"/>
          <polyline class="cls-13" points="206.7 355.6 305.5 355.6 325.2 335.9 343.4 335.9"/>
          <polyline class="cls-13" points="279.2 288.6 279.2 298.8 270.7 307.4 254.2 307.4 242.2 295.4 242.2 286.6 242.2 262.8"/>
          <polyline class="cls-13" points="222.4 233.7 222.4 225.8 227.7 220.6 243.8 220.6"/>
          <polyline class="cls-13" points="188.6 212.5 232.5 212.5 252 193 252 172.3"/>
          <polyline class="cls-13" points="310.1 199.6 323.2 199.6 331.4 191.5 331.4 160.6 304.8 134 289.9 134 269.1 113.1"/>
          <polyline class="cls-13" points="278.5 109.8 291.6 122.9 302.6 122.9"/>
          <polyline class="cls-13" points="313.9 107.4 313.9 126.6 334 146.7 367.7 146.7 372.1 142.3 372.1 114.6"/>
          <path class="cls-13" d="M389.2,218.9v-46"/>
          <path class="cls-13" d="M404,173v20.9"/>
          <polyline class="cls-13" points="401.6 225.8 413.4 225.8 424.7 214.5"/>
          <polyline class="cls-13" points="401.5 238.9 413.8 238.9 425.3 250.4"/>
          <line class="cls-13" x1="402" y1="277.9" x2="424.4" y2="277.9"/>
          <line class="cls-13" x1="399.9" y1="291.3" x2="426.5" y2="291.3"/>
          <polyline class="cls-13" points="401.5 304 412.2 304 426.5 304"/>
          <line class="cls-13" x1="541.4" y1="173.8" x2="510.5" y2="204.7"/>
          <g>
            <rect class="cls-20" x="251.3" y="452.4" width="72.1" height="72.1" rx="5.9" ry="5.9"/>
            <circle class="cls-1" cx="313.1" cy="513.2" r="4.6"/>
            <g>
              <path class="cls-37" d="M235.3,456.8h16v5.6h-16c-.7,0-1.2-.6-1.2-1.2v-3.1c0-.7.6-1.2,1.2-1.2Z"/>
              <path class="cls-37" d="M235.3,465h16v5.6h-16c-.7,0-1.2-.6-1.2-1.2v-3.1c0-.7.6-1.2,1.2-1.2Z"/>
              <path class="cls-37" d="M235.3,473.3h16v5.6h-16c-.7,0-1.2-.6-1.2-1.2v-3.1c0-.7.6-1.2,1.2-1.2Z"/>
              <path class="cls-37" d="M235.3,481.5h16v5.6h-16c-.7,0-1.2-.6-1.2-1.2v-3.1c0-.7.6-1.2,1.2-1.2Z"/>
              <path class="cls-37" d="M235.3,489.8h16v5.6h-16c-.7,0-1.2-.6-1.2-1.2v-3.1c0-.7.6-1.2,1.2-1.2Z"/>
              <path class="cls-37" d="M235.3,498h16v5.6h-16c-.7,0-1.2-.6-1.2-1.2v-3.1c0-.7.6-1.2,1.2-1.2Z"/>
              <path class="cls-37" d="M235.3,506.3h16v5.6h-16c-.7,0-1.2-.6-1.2-1.2v-3.1c0-.7.6-1.2,1.2-1.2Z"/>
              <path class="cls-37" d="M235.3,514.6h16v5.6h-16c-.7,0-1.2-.6-1.2-1.2v-3.1c0-.7.6-1.2,1.2-1.2Z"/>
            </g>
            <g>
              <path class="cls-37" d="M308.8,441h16v5.6h-16c-.7,0-1.2-.6-1.2-1.2v-3.1c0-.7.6-1.2,1.2-1.2Z" transform="translate(760 127.6) rotate(90)"/>
              <path class="cls-37" d="M300.6,441h16v5.6h-16c-.7,0-1.2-.6-1.2-1.2v-3.1c0-.7.6-1.2,1.2-1.2Z" transform="translate(751.8 135.8) rotate(90)"/>
              <path class="cls-37" d="M292.3,441h16v5.6h-16c-.7,0-1.2-.6-1.2-1.2v-3.1c0-.7.6-1.2,1.2-1.2Z" transform="translate(743.5 144.1) rotate(90)"/>
              <path class="cls-37" d="M284.1,441h16v5.6h-16c-.7,0-1.2-.6-1.2-1.2v-3.1c0-.7.6-1.2,1.2-1.2Z" transform="translate(735.3 152.3) rotate(90)"/>
              <path class="cls-37" d="M275.8,441h16v5.6h-16c-.7,0-1.2-.6-1.2-1.2v-3.1c0-.7.6-1.2,1.2-1.2Z" transform="translate(727 160.6) rotate(90)"/>
              <path class="cls-37" d="M267.6,441h16v5.6h-16c-.7,0-1.2-.6-1.2-1.2v-3.1c0-.7.6-1.2,1.2-1.2Z" transform="translate(718.8 168.8) rotate(90)"/>
              <path class="cls-37" d="M259.3,441h16v5.6h-16c-.7,0-1.2-.6-1.2-1.2v-3.1c0-.7.6-1.2,1.2-1.2Z" transform="translate(710.5 177.1) rotate(90)"/>
              <path class="cls-37" d="M251.1,441h16v5.6h-16c-.7,0-1.2-.6-1.2-1.2v-3.1c0-.7.6-1.2,1.2-1.2Z" transform="translate(702.3 185.3) rotate(90)"/>
            </g>
            <g>
              <path class="cls-37" d="M251.1,530.3h16v5.6h-16c-.7,0-1.2-.6-1.2-1.2v-3.1c0-.7.6-1.2,1.2-1.2Z" transform="translate(-274.7 791.6) rotate(-90)"/>
              <path class="cls-37" d="M259.3,530.3h16v5.6h-16c-.7,0-1.2-.6-1.2-1.2v-3.1c0-.7.6-1.2,1.2-1.2Z" transform="translate(-266.4 799.8) rotate(-90)"/>
              <path class="cls-37" d="M267.6,530.3h16v5.6h-16c-.7,0-1.2-.6-1.2-1.2v-3.1c0-.7.6-1.2,1.2-1.2Z" transform="translate(-258.2 808.1) rotate(-90)"/>
              <path class="cls-37" d="M275.8,530.3h16v5.6h-16c-.7,0-1.2-.6-1.2-1.2v-3.1c0-.7.6-1.2,1.2-1.2Z" transform="translate(-249.9 816.3) rotate(-90)"/>
              <path class="cls-37" d="M284.1,530.3h16v5.6h-16c-.7,0-1.2-.6-1.2-1.2v-3.1c0-.7.6-1.2,1.2-1.2Z" transform="translate(-241.7 824.6) rotate(-90)"/>
              <path class="cls-37" d="M292.3,530.3h16v5.6h-16c-.7,0-1.2-.6-1.2-1.2v-3.1c0-.7.6-1.2,1.2-1.2Z" transform="translate(-233.4 832.8) rotate(-90)"/>
              <path class="cls-37" d="M300.6,530.3h16v5.6h-16c-.7,0-1.2-.6-1.2-1.2v-3.1c0-.7.6-1.2,1.2-1.2Z" transform="translate(-225.2 841.1) rotate(-90)"/>
              <path class="cls-37" d="M308.8,530.3h16v5.6h-16c-.7,0-1.2-.6-1.2-1.2v-3.1c0-.7.6-1.2,1.2-1.2Z" transform="translate(-216.9 849.3) rotate(-90)"/>
            </g>
            <g>
              <path class="cls-37" d="M324.6,514.3h16v5.6h-16c-.7,0-1.2-.6-1.2-1.2v-3.1c0-.7.6-1.2,1.2-1.2Z" transform="translate(664 1034.1) rotate(180)"/>
              <path class="cls-37" d="M324.6,506h16v5.6h-16c-.7,0-1.2-.6-1.2-1.2v-3.1c0-.7.6-1.2,1.2-1.2Z" transform="translate(664 1017.6) rotate(180)"/>
              <path class="cls-37" d="M324.6,497.8h16v5.6h-16c-.7,0-1.2-.6-1.2-1.2v-3.1c0-.7.6-1.2,1.2-1.2Z" transform="translate(664 1001.1) rotate(180)"/>
              <path class="cls-37" d="M324.6,489.5h16v5.6h-16c-.7,0-1.2-.6-1.2-1.2v-3.1c0-.7.6-1.2,1.2-1.2Z" transform="translate(664 984.6) rotate(180)"/>
              <path class="cls-37" d="M324.6,481.3h16v5.6h-16c-.7,0-1.2-.6-1.2-1.2v-3.1c0-.7.6-1.2,1.2-1.2Z" transform="translate(664 968.1) rotate(180)"/>
              <path class="cls-37" d="M324.6,473h16v5.6h-16c-.7,0-1.2-.6-1.2-1.2v-3.1c0-.7.6-1.2,1.2-1.2Z" transform="translate(664 951.6) rotate(180)"/>
              <path class="cls-37" d="M324.6,464.8h16v5.6h-16c-.7,0-1.2-.6-1.2-1.2v-3.1c0-.7.6-1.2,1.2-1.2Z" transform="translate(664 935.1) rotate(180)"/>
              <path class="cls-37" d="M324.6,456.5h16v5.6h-16c-.7,0-1.2-.6-1.2-1.2v-3.1c0-.7.6-1.2,1.2-1.2Z" transform="translate(664 918.6) rotate(180)"/>
            </g>
          </g>
          <path class="cls-2" d="M241.6,607.3v6.8c0,1.3,0,2.4-.1,3.3,0,.8-.2,1.5-.3,2.3-.2.6-.4,1.2-.8,1.8-.4.7-.9,1.3-1.5,1.9-.6.7-1.4,1.2-2.4,1.5-1,.3-2.2.5-3.6.5h-5.7v-7h3.5c.4,0,.9,0,1.3-.2.3-.1.6-.3.8-.6.2-.3.4-.7.5-1.1.1-.5.2-1.1.2-1.7v-7.5h8.1ZM227.9,629.5h90.2v2.9h-90.2v-2.9ZM241.6,595.9v7h-8.1v-7h8.1ZM260.8,595.4c1.1,0,2.1,0,3.2.3,1,.2,2,.4,2.9.8.9.4,1.8.8,2.6,1.3.8.5,1.6,1.2,2.3,1.9.7.7,1.3,1.5,1.8,2.3.5.8,1,1.7,1.3,2.6.4,1,.6,1.9.8,2.9.2,1.1.3,2.1.3,3.2,0,1.1,0,2.1-.3,3.2-.2,1-.4,1.9-.8,2.9-.3.9-.8,1.8-1.3,2.6-.5.8-1.1,1.6-1.8,2.3-.7.7-1.4,1.3-2.2,1.9-.8.5-1.6,1-2.5,1.3-.9.4-1.9.6-2.8.8-1,.2-2.1.3-3.1.3-1.1,0-2.2,0-3.2-.3-1-.2-2-.4-2.9-.8-.9-.3-1.8-.8-2.6-1.3-1.7-1.1-3.1-2.5-4.2-4.1-.5-.8-1-1.7-1.3-2.6-.4-.9-.6-1.9-.8-2.9-.4-2.1-.4-4.3,0-6.4.2-1,.4-2,.8-2.9.4-.9.8-1.8,1.3-2.6.5-.8,1.2-1.6,1.9-2.3.7-.7,1.4-1.4,2.3-1.9.8-.5,1.7-1,2.6-1.4.9-.4,1.9-.6,2.8-.8,1-.2,2.1-.3,3.1-.3h0ZM260.8,602.2c-1,0-1.9.2-2.8.6-.8.4-1.6,1-2.1,1.7-.6.8-1,1.7-1.3,2.7-.3,1-.4,2.2-.4,3.6,0,1.2.1,2.4.4,3.6.3,1,.7,1.9,1.4,2.7.6.7,1.3,1.3,2.1,1.7.9.4,1.8.6,2.8.6,1,0,1.9-.2,2.8-.6.8-.4,1.6-1,2.1-1.7.6-.8,1-1.7,1.3-2.7.3-1,.4-2.2.4-3.6,0-1.2-.1-2.4-.4-3.5-.3-1-.7-1.9-1.3-2.7-.6-.7-1.3-1.3-2.1-1.7-.8-.4-1.8-.6-2.8-.6h0ZM279.3,595.9h8.1v7.3c0,1.5.3,2.6.9,3.4s1.5,1.1,2.7,1.1c1.2,0,2.1-.4,2.8-1.2.6-.8.9-2,.9-3.6v-7.1h8v5.1c0,1.3,0,2.4-.1,3.4,0,.9-.2,1.8-.5,2.6-.3.8-.6,1.6-1.1,2.3-.6.9-1.2,1.8-1.9,2.6-.4.5-.9.9-1.4,1.2-.6.4-1.2.6-1.8.9-.7.2-1.5.4-2.2.5-.9.1-1.8.2-2.7.2-.9,0-1.7,0-2.6-.2-.7,0-1.5-.3-2.2-.5-.6-.2-1.2-.5-1.8-.8-.5-.3-1-.7-1.4-1.1-.7-.8-1.4-1.6-2-2.5-.5-.7-.8-1.4-1.1-2.2-.2-.8-.4-1.7-.5-2.5-.1-1.1-.2-2.1-.2-3.2v-5.8ZM297.6,618.3v7h-13.5v-7h13.5ZM301.4,589.5h53.9v2.7h-53.9v-2.7ZM304.9,608.8h17.3v6.9h-17.3v-6.9ZM333.4,595.9v7h-8.1v-7h8.1ZM333.4,607.3v18.1h-8.1v-18.1h8.1ZM356.6,595.9v7h-18.9v-7h18.9ZM339,607.3h8v7.3c0,.6,0,1.3.2,1.9.1.5.3.9.5,1.1.2.2.6.4,1,.5.6.1,1.2.2,1.7.2h5.2v7h-7.5c-.7,0-1.5,0-2.2-.2-.6,0-1.3-.2-1.9-.5-.6-.2-1.1-.4-1.6-.8-.5-.3-.9-.7-1.3-1.1-.4-.4-.7-.9-.9-1.4-.3-.6-.5-1.2-.7-1.8-.2-.7-.3-1.4-.4-2.2,0-.9-.1-1.7-.1-2.6v-7.7Z"/>
          <rect class="cls-34" x="205.4" y="444.5" width="9.3" height="20.4" transform="translate(-244.7 664.8) rotate(-90)"/>
          <rect class="cls-34" x="338.8" y="334.2" width="9.3" height="20.4"/>
          <g>
            <rect class="cls-20" x="261.5" y="242.6" width="47.9" height="37.3" rx="2.5" ry="2.5"/>
            <circle class="cls-1" cx="265.5" cy="272.3" r="2.5"/>
            <g>
              <path class="cls-37" d="M261.4,283.3h11.5v5.8h-11.5c-.7,0-1.2-.6-1.2-1.2v-3.3c0-.7.6-1.2,1.2-1.2Z" transform="translate(-19.6 552.8) rotate(-90)"/>
              <path class="cls-37" d="M274,283.3h11.5v5.8h-11.5c-.7,0-1.2-.6-1.2-1.2v-3.3c0-.7.6-1.2,1.2-1.2Z" transform="translate(-7 565.4) rotate(-90)"/>
              <path class="cls-37" d="M286.6,283.3h11.5v5.8h-11.5c-.7,0-1.2-.6-1.2-1.2v-3.3c0-.7.6-1.2,1.2-1.2Z" transform="translate(5.6 578) rotate(-90)"/>
              <path class="cls-37" d="M299.3,283.3h11.5v5.8h-11.5c-.7,0-1.2-.6-1.2-1.2v-3.3c0-.7.6-1.2,1.2-1.2Z" transform="translate(18.2 590.6) rotate(-90)"/>
            </g>
            <g>
              <path class="cls-37" d="M299.3,233.3h11.5v5.8h-11.5c-.7,0-1.2-.6-1.2-1.2v-3.3c0-.7.6-1.2,1.2-1.2Z" transform="translate(540.6 -68.2) rotate(90)"/>
              <path class="cls-37" d="M286.6,233.3h11.5v5.8h-11.5c-.7,0-1.2-.6-1.2-1.2v-3.3c0-.7.6-1.2,1.2-1.2Z" transform="translate(528 -55.6) rotate(90)"/>
              <path class="cls-37" d="M274,233.3h11.5v5.8h-11.5c-.7,0-1.2-.6-1.2-1.2v-3.3c0-.7.6-1.2,1.2-1.2Z" transform="translate(515.4 -43) rotate(90)"/>
              <path class="cls-37" d="M261.4,233.3h11.5v5.8h-11.5c-.7,0-1.2-.6-1.2-1.2v-3.3c0-.7.6-1.2,1.2-1.2Z" transform="translate(502.7 -30.4) rotate(90)"/>
            </g>
          </g>
          <g>
            <g>
              <path class="cls-37" d="M218,259.2h11.5v9.1h-11.5c-.7,0-1.2-.6-1.2-1.2v-6.6c0-.7.6-1.2,1.2-1.2Z" transform="translate(-40.6 486.9) rotate(-90)"/>
              <path class="cls-37" d="M236.6,259.2h11.5v9.1h-11.5c-.7,0-1.2-.6-1.2-1.2v-6.6c0-.7.6-1.2,1.2-1.2Z" transform="translate(-22 505.5) rotate(-90)"/>
            </g>
            <g>
              <path class="cls-37" d="M217.3,232.6h11.5v5.8h-11.5c-.7,0-1.2-.6-1.2-1.2v-3.3c0-.7.6-1.2,1.2-1.2Z" transform="translate(458 13) rotate(90)"/>
              <path class="cls-37" d="M227.3,232.6h11.5v5.8h-11.5c-.7,0-1.2-.6-1.2-1.2v-3.3c0-.7.6-1.2,1.2-1.2Z" transform="translate(467.9 3) rotate(90)"/>
              <path class="cls-37" d="M237.3,232.6h11.5v5.8h-11.5c-.7,0-1.2-.6-1.2-1.2v-3.3c0-.7.6-1.2,1.2-1.2Z" transform="translate(477.9 -7) rotate(90)"/>
            </g>
            <rect class="cls-20" x="218" y="241.9" width="28.9" height="15.5" rx=".7" ry=".7"/>
          </g>
          <rect class="cls-34" x="228.9" y="276.4" width="9.3" height="20.4" transform="translate(-53 520.2) rotate(-90)"/>
          <g>
            <rect class="cls-20" x="354" y="220.6" width="32.6" height="101.6"/>
            <g>
              <path class="cls-37" d="M338.1,223h16v5.6h-16c-.7,0-1.2-.6-1.2-1.2v-3.1c0-.7.6-1.2,1.2-1.2Z"/>
              <path class="cls-37" d="M338.1,236.1h16v5.6h-16c-.7,0-1.2-.6-1.2-1.2v-3.1c0-.7.6-1.2,1.2-1.2Z"/>
              <path class="cls-37" d="M338.1,249.1h16v5.6h-16c-.7,0-1.2-.6-1.2-1.2v-3.1c0-.7.6-1.2,1.2-1.2Z"/>
              <path class="cls-37" d="M338.1,262.1h16v5.6h-16c-.7,0-1.2-.6-1.2-1.2v-3.1c0-.7.6-1.2,1.2-1.2Z"/>
              <path class="cls-37" d="M338.1,275.2h16v5.6h-16c-.7,0-1.2-.6-1.2-1.2v-3.1c0-.7.6-1.2,1.2-1.2Z"/>
              <path class="cls-37" d="M338.1,288.2h16v5.6h-16c-.7,0-1.2-.6-1.2-1.2v-3.1c0-.7.6-1.2,1.2-1.2Z"/>
              <path class="cls-37" d="M338.1,301.2h16v5.6h-16c-.7,0-1.2-.6-1.2-1.2v-3.1c0-.7.6-1.2,1.2-1.2Z"/>
              <path class="cls-37" d="M338.1,314.2h16v5.6h-16c-.7,0-1.2-.6-1.2-1.2v-3.1c0-.7.6-1.2,1.2-1.2Z"/>
            </g>
            <g>
              <path class="cls-37" d="M387.9,314.2h16v5.6h-16c-.7,0-1.2-.6-1.2-1.2v-3.1c0-.7.6-1.2,1.2-1.2Z" transform="translate(790.5 634) rotate(180)"/>
              <path class="cls-37" d="M387.9,301.2h16v5.6h-16c-.7,0-1.2-.6-1.2-1.2v-3.1c0-.7.6-1.2,1.2-1.2Z" transform="translate(790.5 608) rotate(180)"/>
              <path class="cls-37" d="M387.9,288.2h16v5.6h-16c-.7,0-1.2-.6-1.2-1.2v-3.1c0-.7.6-1.2,1.2-1.2Z" transform="translate(790.5 581.9) rotate(180)"/>
              <path class="cls-37" d="M387.9,275.2h16v5.6h-16c-.7,0-1.2-.6-1.2-1.2v-3.1c0-.7.6-1.2,1.2-1.2Z" transform="translate(790.5 555.9) rotate(180)"/>
              <path class="cls-37" d="M387.9,262.1h16v5.6h-16c-.7,0-1.2-.6-1.2-1.2v-3.1c0-.7.6-1.2,1.2-1.2Z" transform="translate(790.5 529.8) rotate(180)"/>
              <path class="cls-37" d="M387.9,249.1h16v5.6h-16c-.7,0-1.2-.6-1.2-1.2v-3.1c0-.7.6-1.2,1.2-1.2Z" transform="translate(790.5 503.8) rotate(180)"/>
              <path class="cls-37" d="M387.9,236.1h16v5.6h-16c-.7,0-1.2-.6-1.2-1.2v-3.1c0-.7.6-1.2,1.2-1.2Z" transform="translate(790.5 477.7) rotate(180)"/>
              <path class="cls-37" d="M387.9,223h16v5.6h-16c-.7,0-1.2-.6-1.2-1.2v-3.1c0-.7.6-1.2,1.2-1.2Z" transform="translate(790.5 451.7) rotate(180)"/>
            </g>
            <circle class="cls-1" cx="379" cy="312.8" r="4.7"/>
          </g>
          <rect class="cls-34" x="429" y="265" width="9.3" height="20.4" transform="translate(708.8 -158.5) rotate(90)"/>
          <g>
            <rect class="cls-6" x="428.6" y="283.3" width="10.1" height="16.3" transform="translate(725.1 -142.2) rotate(90)"/>
            <rect class="cls-20" x="428.7" y="285.8" width="10.1" height="11.2" transform="translate(725.3 -142.4) rotate(90)"/>
          </g>
          <g>
            <rect class="cls-6" x="428.6" y="300" width="10.1" height="16.3" transform="translate(741.8 -125.5) rotate(90)"/>
            <rect class="cls-20" x="428.7" y="302.5" width="10.1" height="11.2" transform="translate(742 -125.7) rotate(90)"/>
          </g>
          <g>
            <rect class="cls-6" x="384.1" y="158.8" width="10.1" height="16.3"/>
            <rect class="cls-20" x="384.1" y="161.2" width="10.1" height="11.2"/>
          </g>
          <g>
            <rect class="cls-6" x="398.9" y="158.6" width="10.1" height="16.3"/>
            <rect class="cls-20" x="398.9" y="161" width="10.1" height="11.2"/>
          </g>
          <path class="cls-37" d="M303.3,194.2h11.5v10.9h-11.5c-.7,0-1.2-.6-1.2-1.2v-8.4c0-.7.6-1.2,1.2-1.2Z" transform="translate(108.9 508.1) rotate(-90)"/>
          <g>
            <rect class="cls-5" x="267.9" y="81" width="48.9" height="33.3"/>
            <rect class="cls-17" x="279.6" y="81" width="25.4" height="33.3"/>
          </g>
          <g>
            <path class="cls-26" d="M358.3,48.6h0s83.2,0,83.2,0h0c2.6,1.3,4.2,4,4.2,6.9v66.5c0,.9-.8,1.7-1.7,1.7h-88.1c-.9,0-1.7-.8-1.7-1.7V55.5c0-2.9,1.6-5.5,4.2-6.9Z"/>
            <g>
              <path class="cls-24" d="M429.2,118.2h0c0-1.3-1-2.3-2.3-2.3h-9.4c-.8,0-1.4-.6-1.4-1.4v-2c0-.8.6-1.4,1.4-1.4h9.4c1.3,0,2.3-1,2.3-2.3h0c0-1.3-1-2.3-2.3-2.3h-13.3c-1.3,0-2.3,1-2.3,2.3v9.5c0,1.3,1,2.3,2.3,2.3h13.3c1.3,0,2.3-1,2.3-2.3Z"/>
              <path class="cls-24" d="M370.5,108.7h0c0,1.3,1,2.3,2.3,2.3h9.4c.8,0,1.4.6,1.4,1.4v2c0,.8-.6,1.4-1.4,1.4h-9.4c-1.3,0-2.3,1-2.3,2.3h0c0,1.3,1,2.3,2.3,2.3h13.3c1.3,0,2.3-1,2.3-2.3v-9.5c0-1.3-1-2.3-2.3-2.3h-13.3c-1.3,0-2.3,1-2.3,2.3Z"/>
            </g>
          </g>
          <g>
            <rect class="cls-20" x="195.2" y="125.5" width="66" height="35.1" rx="1.2" ry="1.2"/>
            <g>
              <path class="cls-37" d="M196.7,166.4h16v5.6h-16c-.7,0-1.2-.6-1.2-1.2v-3.1c0-.7.6-1.2,1.2-1.2Z" transform="translate(34.9 373.2) rotate(-90)"/>
              <path class="cls-37" d="M220.8,166.4h16v5.6h-16c-.7,0-1.2-.6-1.2-1.2v-3.1c0-.7.6-1.2,1.2-1.2Z" transform="translate(59 397.3) rotate(-90)"/>
              <path class="cls-37" d="M244.9,166.4h16v5.6h-16c-.7,0-1.2-.6-1.2-1.2v-3.1c0-.7.6-1.2,1.2-1.2Z" transform="translate(83.1 421.4) rotate(-90)"/>
            </g>
            <path class="cls-37" d="M215.2,96.5h24.2v32.5h-24.2c-.7,0-1.2-.6-1.2-1.2v-30c0-.7.6-1.2,1.2-1.2Z" transform="translate(339.4 -113.9) rotate(90)"/>
          </g>
          <rect class="cls-20" x="149.9" y="199.6" width="46" height="25.7"/>
          <g>
            <rect class="cls-26" x="22.3" y="240.6" width="19" height="19"/>
            <circle class="cls-23" cx="31.8" cy="250.1" r="7"/>
            <rect class="cls-26" x="22.3" y="267.8" width="19" height="19"/>
            <circle class="cls-23" cx="31.8" cy="277.3" r="7"/>
            <rect class="cls-26" x="22.3" y="295" width="19" height="19"/>
            <circle class="cls-23" cx="31.8" cy="304.5" r="7"/>
            <rect class="cls-26" x="22.3" y="322.2" width="19" height="19"/>
            <circle class="cls-23" cx="31.8" cy="331.7" r="7"/>
          </g>
          <g>
            <rect class="cls-16" x="16" y="347.3" width="31.7" height="228.6"/>
            <rect x="22.5" y="349.8" width="18.6" height="18.6"/>
            <rect x="22.5" y="378.8" width="18.6" height="18.6"/>
            <rect x="22.5" y="407.7" width="18.6" height="18.6"/>
            <rect x="22.5" y="436.7" width="18.6" height="18.6"/>
            <rect x="22.5" y="465.6" width="18.6" height="18.6"/>
            <rect x="22.5" y="494.6" width="18.6" height="18.6"/>
            <rect x="22.5" y="523.6" width="18.6" height="18.6"/>
            <rect x="22.5" y="552.5" width="18.6" height="18.6"/>
          </g>
          <g>
            <rect class="cls-16" x="16" y="581.2" width="31.7" height="169.7"/>
            <g>
              <rect x="22.5" y="584.4" width="18.6" height="18.6"/>
              <rect x="22.5" y="613.3" width="18.6" height="18.6"/>
              <rect x="22.5" y="642.3" width="18.6" height="18.6"/>
              <rect x="22.5" y="671.2" width="18.6" height="18.6"/>
              <rect x="22.5" y="700.2" width="18.6" height="18.6"/>
              <rect x="22.5" y="729.2" width="18.6" height="18.6"/>
            </g>
          </g>
          <g>
            <path class="cls-2" d="M54.9,383.5h2.4v9.9h-2.4v-9.9Z"/>
            <path class="cls-2" d="M59.1,388.4c0-3.2,1.8-5.1,4.5-5.1s4.5,1.9,4.5,5.1-1.8,5.2-4.5,5.2-4.5-1.9-4.5-5.2ZM65.7,388.4c0-1.9-.8-3.1-2.1-3.1s-2.1,1.1-2.1,3.1.8,3.1,2.1,3.1,2.1-1.2,2.1-3.1Z"/>
            <path class="cls-2" d="M70,383.5h3.6c2.1,0,3.9.7,3.9,3.1s-.7,2.4-1.7,2.9l2.2,3.9h-2.6l-1.8-3.5h-1.2v3.5h-2.4v-9.9ZM73.4,388.1c1.1,0,1.7-.5,1.7-1.4s-.6-1.2-1.7-1.2h-1.1v2.7h1.1Z"/>
            <path class="cls-2" d="M79.4,383.5h6.3v2h-3.9v1.9h3.3v2h-3.3v2.1h4v2h-6.4v-9.9Z"/>
            <path class="cls-2" d="M87.7,383.5h6.3v2h-3.9v2.2h3.4v2h-3.4v3.8h-2.4v-9.9Z"/>
          </g>
          <g>
            <path class="cls-2" d="M56.1,412.5h3.6c2.1,0,3.9.7,3.9,3.1s-.7,2.4-1.7,2.9l2.2,3.9h-2.6l-1.8-3.5h-1.2v3.5h-2.4v-9.9ZM59.5,417c1.1,0,1.7-.5,1.7-1.4s-.6-1.2-1.7-1.2h-1.1v2.7h1.1Z"/>
            <path class="cls-2" d="M65.5,412.5h6.3v2h-3.9v1.9h3.3v2h-3.3v2.1h4v2h-6.4v-9.9Z"/>
            <path class="cls-2" d="M73.2,421.1l1.2-1.5c.7.6,1.7.9,2.5.9s1.3-.3,1.3-.9-.5-.8-1.4-1.1l-1.3-.5c-1-.4-2-1.3-2-2.7s1.5-3,3.6-3,2.4.4,3.2,1.2l-1.2,1.5c-.7-.5-1.4-.7-2-.7s-1.2.3-1.2.8.6.8,1.5,1.1l1.2.5c1.2.5,2,1.3,2,2.7s-1.4,3.1-3.8,3.1-2.7-.5-3.7-1.4Z"/>
            <path class="cls-2" d="M82.3,412.5h6.3v2h-3.9v1.9h3.3v2h-3.3v2.1h4v2h-6.4v-9.9Z"/>
            <path class="cls-2" d="M92.6,414.4h-2.7v-2h7.7v2h-2.7v7.9h-2.4v-7.9Z"/>
          </g>
          <g>
            <path class="cls-2" d="M56.4,450.1l1.1-1.5c.6.6,1.3,1,2.1,1s1.5-.4,1.5-1.1-.5-1.4-2.5-1.4v-1.7c1.7,0,2.2-.5,2.2-1.3s-.4-1.1-1.1-1.1-1.2.3-1.8.8l-1.2-1.4c.9-.8,1.9-1.2,3.1-1.2,2,0,3.4,1,3.4,2.7s-.5,1.7-1.6,2.2h0c1.1.4,1.9,1.2,1.9,2.4,0,1.9-1.7,2.9-3.6,2.9s-2.7-.5-3.4-1.4Z"/>
            <path class="cls-2" d="M65.1,450c0-.8.6-1.5,1.4-1.5s1.4.6,1.4,1.5-.6,1.5-1.4,1.5-1.4-.6-1.4-1.5Z"/>
            <path class="cls-2" d="M69.2,450.1l1.1-1.5c.6.6,1.3,1,2.1,1s1.5-.4,1.5-1.1-.5-1.4-2.5-1.4v-1.7c1.7,0,2.2-.5,2.2-1.3s-.4-1.1-1.1-1.1-1.2.3-1.8.8l-1.2-1.4c.9-.8,1.9-1.2,3.1-1.2,2,0,3.4,1,3.4,2.7s-.5,1.7-1.6,2.2h0c1.1.4,1.9,1.2,1.9,2.4,0,1.9-1.7,2.9-3.6,2.9s-2.7-.5-3.4-1.4Z"/>
            <path class="cls-2" d="M76.8,441.4h2.5l1.1,4.5c.3,1.1.5,2.1.8,3.2h0c.3-1.1.5-2.1.8-3.2l1.2-4.5h2.4l-3,9.9h-2.8l-2.9-9.9Z"/>
          </g>
          <g>
            <path class="cls-2" d="M57.6,479.1l1.1-1.5c.6.5,1.2.9,2,.9s1.6-.5,1.6-1.5-.6-1.5-1.5-1.5-.8.1-1.4.5l-1-.7.3-4.9h5.5v2h-3.5v1.7c.2-.1.5-.2.9-.2,1.7,0,3.1,1,3.1,3.1s-1.7,3.5-3.6,3.5-2.7-.6-3.4-1.4Z"/>
            <path class="cls-2" d="M65.2,470.4h2.5l1.1,4.5c.3,1.1.5,2.1.8,3.2h0c.3-1.1.5-2.1.8-3.2l1.2-4.5h2.4l-3,9.9h-2.8l-2.9-9.9Z"/>
          </g>
          <g>
            <path class="cls-2" d="M59.1,504.3c0-3.3,2.2-5.2,4.9-5.2s2.5.6,3.2,1.3l-1.2,1.4c-.5-.4-1-.7-1.8-.7-1.5,0-2.5,1.2-2.5,3.1s.9,3.1,2.7,3.1.7,0,.9-.3v-1.6h-1.6v-1.9h3.7v4.6c-.7.7-1.9,1.2-3.3,1.2-2.7,0-4.9-1.7-4.9-5.1Z"/>
            <path class="cls-2" d="M69.3,499.3h2.4l2.4,4.7c.3.7.7,1.5,1,2.2h0c-.1-1.1-.3-2.5-.3-3.6v-3.3h2.2v9.9h-2.4l-2.4-4.7c-.3-.7-.7-1.5-1-2.2h0c.1,1.1.3,2.5.3,3.6v3.3h-2.2v-9.9Z"/>
            <path class="cls-2" d="M79.4,499.3h2.8c3,0,5,1.5,5,4.9s-2,5-4.9,5h-3v-9.9ZM82.1,507.3c1.6,0,2.7-.7,2.7-3.1s-1.1-3-2.7-3h-.3v6.1h.3Z"/>
          </g>
          <g>
            <path class="cls-2" d="M60.3,533.3c0-3.3,2.2-5.2,4.9-5.2s2.5.6,3.2,1.3l-1.2,1.4c-.5-.4-1-.7-1.8-.7-1.5,0-2.5,1.2-2.5,3.1s.9,3.1,2.7,3.1.7,0,.9-.3v-1.6h-1.6v-1.9h3.7v4.6c-.7.7-1.9,1.2-3.3,1.2-2.7,0-4.9-1.7-4.9-5.1Z"/>
            <path class="cls-2" d="M70.5,528.3h2.4l2.4,4.7c.3.7.7,1.5,1,2.2h0c-.1-1.1-.3-2.5-.3-3.6v-3.3h2.2v9.9h-2.4l-2.4-4.7c-.3-.7-.7-1.5-1-2.2h0c.1,1.1.3,2.5.3,3.6v3.3h-2.2v-9.9Z"/>
            <path class="cls-2" d="M80.6,528.3h2.8c3,0,5,1.5,5,4.9s-2,5-4.9,5h-3v-9.9ZM83.3,536.3c1.6,0,2.7-.7,2.7-3.1s-1.1-3-2.7-3h-.3v6.1h.3Z"/>
          </g>
          <g>
            <path class="cls-2" d="M60.7,557.3h2.5l1.1,4.5c.3,1.1.5,2.1.8,3.2h0c.3-1.1.5-2.1.8-3.2l1.2-4.5h2.4l-3,9.9h-2.8l-2.9-9.9Z"/>
            <path class="cls-2" d="M70.4,557.3h2.4v9.9h-2.4v-9.9Z"/>
            <path class="cls-2" d="M75.1,557.3h2.4l2.4,4.7c.3.7.7,1.5,1,2.2h0c-.1-1.1-.3-2.5-.3-3.6v-3.3h2.2v9.9h-2.4l-2.4-4.7c-.3-.7-.7-1.5-1-2.2h0c.1,1.1.3,2.5.3,3.6v3.3h-2.2v-9.9Z"/>
          </g>
          <g>
            <path class="cls-2" d="M64.9,589.1h2.8l3.1,9.9h-2.5l-.6-2.3h-2.9l-.6,2.3h-2.4l3.1-9.9ZM65.3,594.9h2l-.2-.8c-.3-1-.5-2.1-.8-3.2h0c-.2,1-.5,2.2-.8,3.2l-.2.8Z"/>
            <path class="cls-2" d="M71.3,594c0-3.4,1.4-5.1,3.5-5.1s3.5,1.7,3.5,5.1-1.4,5.2-3.5,5.2-3.5-1.8-3.5-5.2ZM76,594c0-2.7-.6-3.3-1.3-3.3s-1.3.6-1.3,3.3.6,3.4,1.3,3.4,1.3-.7,1.3-3.4Z"/>
          </g>
          <g>
            <path class="cls-2" d="M66.1,618.1h2.8l3.1,9.9h-2.5l-.6-2.3h-2.9l-.6,2.3h-2.4l3.1-9.9ZM66.5,623.9h2l-.2-.8c-.3-1-.5-2.1-.8-3.2h0c-.2,1-.5,2.2-.8,3.2l-.2.8Z"/>
            <path class="cls-2" d="M72.9,626.1h2.1v-5.6h-1.8v-1.5c1-.2,1.7-.5,2.4-.9h1.7v8h1.8v1.9h-6.2v-1.9Z"/>
          </g>
          <g>
            <path class="cls-2" d="M67.3,647h2.8l3.1,9.9h-2.5l-.6-2.3h-2.9l-.6,2.3h-2.4l3.1-9.9ZM67.6,652.8h2l-.2-.8c-.3-1-.5-2.1-.8-3.2h0c-.2,1-.5,2.2-.8,3.2l-.2.8Z"/>
            <path class="cls-2" d="M73.6,655.5c2.6-2.2,4.1-4,4.1-5.4s-.5-1.4-1.3-1.4-1.2.5-1.7,1l-1.2-1.2c1-1,1.8-1.6,3.2-1.6s3.2,1.2,3.2,3.1-1.6,3.6-3.2,5.1c.5,0,1.2-.1,1.6-.1h2v2h-6.8v-1.5Z"/>
          </g>
          <g>
            <path class="cls-2" d="M68.4,676h2.8l3.1,9.9h-2.5l-.6-2.3h-2.9l-.6,2.3h-2.4l3.1-9.9ZM68.8,681.8h2l-.2-.8c-.3-1-.5-2.1-.8-3.2h0c-.2,1-.5,2.2-.8,3.2l-.2.8Z"/>
            <path class="cls-2" d="M74.5,684.7l1.1-1.5c.6.6,1.3,1,2.1,1s1.5-.4,1.5-1.1-.5-1.4-2.5-1.4v-1.7c1.7,0,2.2-.5,2.2-1.3s-.4-1.1-1.1-1.1-1.2.3-1.8.8l-1.2-1.4c.9-.8,1.9-1.2,3.1-1.2,2,0,3.4,1,3.4,2.7s-.5,1.7-1.6,2.2h0c1.1.4,1.9,1.2,1.9,2.4,0,1.9-1.7,2.9-3.6,2.9s-2.7-.5-3.4-1.4Z"/>
          </g>
          <g>
            <path class="cls-2" d="M69.6,704.9h2.8l3.1,9.9h-2.5l-.6-2.3h-2.9l-.6,2.3h-2.4l3.1-9.9ZM70,710.7h2l-.2-.8c-.3-1-.5-2.1-.8-3.2h0c-.2,1-.5,2.2-.8,3.2l-.2.8Z"/>
            <path class="cls-2" d="M79.8,712.4h-4.1v-1.6l3.4-5.8h2.9v5.6h1.1v1.8h-1.1v2.5h-2.2v-2.5ZM79.8,710.6v-1.5c0-.6,0-1.6,0-2.2h0c-.2.6-.5,1.1-.8,1.7l-1.1,2h1.9Z"/>
            <path class="cls-2" d="M86.6,704h1.5l-2.9,13.2h-1.5l2.9-13.2Z"/>
            <path class="cls-2" d="M89.1,713.6l1.2-1.5c.7.6,1.7.9,2.5.9s1.3-.3,1.3-.9-.5-.8-1.4-1.1l-1.3-.5c-1-.4-2-1.3-2-2.7s1.5-3,3.6-3,2.4.4,3.2,1.2l-1.2,1.5c-.7-.5-1.4-.7-2-.7s-1.2.3-1.2.8.6.8,1.5,1.1l1.2.5c1.2.5,2,1.3,2,2.7s-1.4,3.1-3.8,3.1-2.7-.5-3.7-1.4Z"/>
            <path class="cls-2" d="M98.2,704.9h2.8c3,0,5,1.5,5,4.9s-2,5-4.9,5h-3v-9.9ZM100.9,712.9c1.6,0,2.7-.7,2.7-3.1s-1.1-3-2.7-3h-.3v6.1h.3Z"/>
            <path class="cls-2" d="M109.5,704.9h2.8l3.1,9.9h-2.5l-.6-2.3h-2.9l-.6,2.3h-2.4l3.1-9.9ZM109.9,710.7h2l-.2-.8c-.3-1-.5-2.1-.8-3.2h0c-.2,1-.5,2.2-.8,3.2l-.2.8Z"/>
          </g>
          <g>
            <path class="cls-2" d="M70.8,731h2.8l3.1,9.9h-2.5l-.6-2.3h-2.9l-.6,2.3h-2.4l3.1-9.9ZM71.1,736.8h2l-.2-.8c-.3-1-.5-2.1-.8-3.2h0c-.2,1-.5,2.2-.8,3.2l-.2.8Z"/>
            <path class="cls-2" d="M76.9,739.7l1.1-1.5c.6.5,1.2.9,2,.9s1.6-.5,1.6-1.5-.6-1.5-1.5-1.5-.8.1-1.4.5l-1-.7.3-4.9h5.5v2h-3.5v1.7c.2-.1.5-.2.9-.2,1.7,0,3.1,1,3.1,3.1s-1.7,3.5-3.6,3.5-2.7-.6-3.4-1.4Z"/>
            <path class="cls-2" d="M87.8,730.1h1.5l-2.9,13.2h-1.5l2.9-13.2Z"/>
            <path class="cls-2" d="M90.3,739.6l1.2-1.5c.7.6,1.7.9,2.5.9s1.3-.3,1.3-.9-.5-.8-1.4-1.1l-1.3-.5c-1-.4-2-1.3-2-2.7s1.5-3,3.6-3,2.4.4,3.2,1.2l-1.2,1.5c-.7-.5-1.4-.7-2-.7s-1.2.3-1.2.8.6.8,1.5,1.1l1.2.5c1.2.5,2,1.3,2,2.7s-1.4,3.1-3.8,3.1-2.7-.5-3.7-1.4Z"/>
            <path class="cls-2" d="M98.9,736c0-3.3,2.2-5.2,4.7-5.2s2.3.6,3,1.3l-1.2,1.4c-.5-.5-1-.7-1.7-.7-1.3,0-2.4,1.2-2.4,3.1s.9,3.1,2.3,3.1,1.4-.3,1.9-.8l1.2,1.4c-.9,1-2,1.5-3.2,1.5-2.5,0-4.6-1.7-4.6-5.1Z"/>
            <path class="cls-2" d="M108.2,731h2.4v7.9h3.8v2h-6.2v-9.9Z"/>
          </g>
          <g>
            <path class="cls-2" d="M120.5,439.8v3.5c0,2.2-.8,3.9-3.2,3.9s-3.4-1.8-3.4-3.9v-1.2h-3.3v-2.4h9.9ZM115.8,443.2c0,1.2.5,1.7,1.5,1.7s1.3-.6,1.3-1.8v-1h-2.9v1Z"/>
            <path class="cls-2" d="M115.6,448.4c3.2,0,5.1,1.8,5.1,4.5s-1.9,4.5-5.1,4.5-5.2-1.8-5.2-4.5,1.9-4.5,5.2-4.5ZM115.6,455c1.9,0,3.1-.8,3.1-2.1s-1.1-2.1-3.1-2.1-3.1.8-3.1,2.1,1.2,2.1,3.1,2.1Z"/>
            <path class="cls-2" d="M120.5,458.4v2.4l-4.5.6c-1,.1-2.1.3-3.2.4h0c1.1.2,2.1.4,3.2.6l4.5,1v2l-4.5,1c-1,.2-2.1.4-3.2.6h0c1.1.2,2.1.3,3.2.4l4.5.7v2.2l-9.9-1.7v-3l4.3-.9c.8-.2,1.5-.3,2.3-.4h0c-.8-.2-1.6-.3-2.3-.4l-4.3-.9v-2.9l9.9-1.8Z"/>
            <path class="cls-2" d="M120.5,471.7v6.3h-2v-3.9h-1.9v3.3h-2v-3.3h-2.1v4h-2v-6.4h9.9Z"/>
            <path class="cls-2" d="M120.5,480v3.6c0,2.1-.7,3.9-3.1,3.9s-2.4-.7-2.9-1.7l-3.9,2.2v-2.6l3.5-1.8v-1.2h-3.5v-2.4h9.9ZM116,483.5c0,1.1.5,1.7,1.4,1.7s1.2-.6,1.2-1.7v-1.1h-2.7v1.1Z"/>
          </g>
          <g>
            <path class="cls-2" d="M120.5,631.8v2.8l-9.9,3.1v-2.5l2.3-.6v-2.9l-2.3-.6v-2.4l9.9,3.1ZM114.8,632.2v2l.9-.2c1-.3,2.1-.5,3.2-.8h0c-1-.3-2.2-.6-3.2-.8l-.9-.2Z"/>
            <path class="cls-2" d="M120.5,638.7v2.4l-4.7,2.4c-.7.3-1.5.7-2.2,1h0c1.1,0,2.5-.2,3.6-.2h3.3v2.2h-9.9v-2.4l4.7-2.4c.7-.3,1.5-.7,2.2-1h0c-1.1,0-2.5.2-3.6.2h-3.3v-2.2h9.9Z"/>
            <path class="cls-2" d="M120.5,650.7v2.8l-9.9,3.1v-2.5l2.3-.6v-2.9l-2.3-.6v-2.4l9.9,3.1ZM114.8,651v2l.9-.2c1-.3,2.1-.5,3.2-.8h0c-1-.3-2.2-.6-3.2-.8l-.9-.2Z"/>
            <path class="cls-2" d="M120.5,657.6v2.4h-7.9v3.8h-2v-6.2h9.9Z"/>
            <path class="cls-2" d="M115.6,664.5c3.2,0,5.1,1.8,5.1,4.5s-1.9,4.5-5.1,4.5-5.2-1.8-5.2-4.5,1.9-4.5,5.2-4.5ZM115.6,671.1c1.9,0,3.1-.8,3.1-2.1s-1.1-2.1-3.1-2.1-3.1.8-3.1,2.1,1.2,2.1,3.1,2.1Z"/>
            <path class="cls-2" d="M115.5,674.9c3.3,0,5.2,2.2,5.2,4.9s-.6,2.5-1.3,3.2l-1.4-1.2c.4-.5.7-1,.7-1.8,0-1.5-1.2-2.5-3.1-2.5s-3.1.9-3.1,2.7,0,.7.3.9h1.6v-1.6h1.9v3.7h-4.6c-.7-.7-1.2-1.9-1.2-3.3,0-2.7,1.7-4.9,5.1-4.9Z"/>
            <path class="cls-2" d="M120.5,688.2v2.4h-9.9v-2.4h9.9Z"/>
            <path class="cls-2" d="M120.5,692.8v2.4l-4.7,2.4c-.7.3-1.5.7-2.2,1h0c1.1,0,2.5-.2,3.6-.2h3.3v2.2h-9.9v-2.4l4.7-2.4c.7-.3,1.5-.7,2.2-1h0c-1.1,0-2.5.2-3.6.2h-3.3v-2.2h9.9Z"/>
          </g>
          <rect class="cls-32" x="124.6" y="589.5" width="4.3" height="151.7" rx="2.2" ry="2.2"/>
          <rect class="cls-32" x="124.6" y="374.4" width="4.3" height="178.1" rx="2.2" ry="2.2"/>
          <g>
            <g>
              <polygon class="cls-31" points="284.5 731.8 281.1 731.8 281.1 731.8 277.6 731.8 269.6 739.8 269.6 771.2 277.6 779.2 281.1 779.2 281.1 779.2 284.5 779.2 292.6 771.2 292.6 739.8 284.5 731.8"/>
              <g>
                <rect class="cls-21" x="278.1" y="740.8" width="5.9" height="5.9"/>
                <rect class="cls-21" x="278.1" y="764.2" width="5.9" height="5.9"/>
              </g>
            </g>
            <g>
              <polygon class="cls-31" points="307.5 731.8 304.1 731.8 304 731.8 300.6 731.8 292.6 739.8 292.6 771.2 300.6 779.2 304 779.2 304.1 779.2 307.5 779.2 315.6 771.2 315.6 739.8 307.5 731.8"/>
              <g>
                <rect class="cls-21" x="301.1" y="740.8" width="5.9" height="5.9"/>
                <rect class="cls-21" x="301.1" y="764.2" width="5.9" height="5.9"/>
              </g>
            </g>
            <g>
              <polygon class="cls-31" points="330.5 731.8 327.1 731.8 327 731.8 323.6 731.8 315.6 739.8 315.6 771.2 323.6 779.2 327 779.2 327.1 779.2 330.5 779.2 338.5 771.2 338.5 739.8 330.5 731.8"/>
              <g>
                <rect class="cls-21" x="324.1" y="740.8" width="5.9" height="5.9"/>
                <rect class="cls-21" x="324.1" y="764.2" width="5.9" height="5.9"/>
              </g>
            </g>
          </g>
          <path class="cls-32" d="M263.9,720.9c-1.2,0-2.2,1-2.2,2.2v55.5c0,1.2,1,2.2,2.2,2.2h0c1.2,0,2.2-1,2.2-2.2v-51.2c0-1.2,1-2.2,2.2-2.2h71.8c1.2,0,2.2,1,2.2,2.2v51.2c0,1.2,1,2.2,2.2,2.2h0c1.2,0,2.2-1,2.2-2.2v-55.5c0-1.2-1-2.2-2.2-2.2h-80.4Z"/>
          <rect class="cls-32" x="448.6" y="365.3" width="4.3" height="374.6" rx="2.2" ry="2.2"/>
          <g>
            <path class="cls-2" d="M468.9,499.7v2.8c0,3-1.5,5-4.9,5s-5-2-5-4.9v-3h9.9ZM460.9,502.4c0,1.6.7,2.7,3.1,2.7s3-1.1,3-2.7v-.3h-6.1v.3Z"/>
            <path class="cls-2" d="M468.9,509.4v2.4h-9.9v-2.4h9.9Z"/>
            <path class="cls-2" d="M463.9,513.6c3.3,0,5.2,2.2,5.2,4.9s-.6,2.5-1.3,3.2l-1.4-1.2c.4-.5.7-1,.7-1.8,0-1.5-1.2-2.5-3.1-2.5s-3.1.9-3.1,2.7,0,.7.3.9h1.6v-1.6h1.9v3.7h-4.6c-.7-.7-1.2-1.9-1.2-3.3,0-2.7,1.7-4.9,5.1-4.9Z"/>
            <path class="cls-2" d="M468.9,523.7v2.4h-9.9v-2.4h9.9Z"/>
            <path class="cls-2" d="M466.9,530.3v-2.7h2v7.7h-2v-2.7h-7.9v-2.4h7.9Z"/>
            <path class="cls-2" d="M468.9,538.1v2.8l-9.9,3.1v-2.5l2.3-.6v-2.9l-2.3-.6v-2.4l9.9,3.1ZM463.1,538.4v2l.8-.2c1-.3,2.1-.5,3.2-.8h0c-1-.3-2.2-.6-3.2-.8l-.8-.2Z"/>
            <path class="cls-2" d="M468.9,545v2.4h-7.9v3.8h-2v-6.2h9.9Z"/>
            <path class="cls-2" d="M463.2,555.9c2.7,0,4.9.7,6.9,2l-.6,1.5c-2-1.1-4.2-1.6-6.3-1.6s-4.4.5-6.3,1.6l-.6-1.5c2.1-1.3,4.3-2,6.9-2Z"/>
            <path class="cls-2" d="M468.9,561.3v3.5c0,2.2-.8,3.9-3.2,3.9s-3.4-1.8-3.4-3.9v-1.2h-3.3v-2.4h9.9ZM464.1,564.7c0,1.2.5,1.7,1.5,1.7s1.3-.6,1.3-1.8v-1h-2.9v1Z"/>
            <path class="cls-2" d="M468.9,569.4v2.4l-4.5.6c-1,.1-2.1.3-3.2.4h0c1.1.2,2.1.4,3.2.6l4.5,1v2l-4.5,1c-1,.2-2.1.4-3.2.6h0c1.1.2,2.1.3,3.2.4l4.5.7v2.2l-9.9-1.7v-3l4.3-.9c.8-.2,1.5-.3,2.3-.4h0c-.8-.2-1.6-.3-2.3-.4l-4.3-.9v-2.9l9.9-1.8Z"/>
            <path class="cls-2" d="M468.9,582.8v2.6l-4.3,1.6c-.6.2-1.2.3-1.8.5h0c.6.2,1.2.4,1.8.6l4.3,1.5v2.6h-9.9v-2.1h3.4c1,0,2.7.2,3.6.3h0c0,0-2.6-.9-2.6-.9l-3.6-1.3v-1.3l3.6-1.3,2.6-.8h0c-1,0-2.7.3-3.6.3h-3.4v-2.1h9.9Z"/>
            <path class="cls-2" d="M463.7,596c0-.4-.3-.8-.9-1.1l.9-1.2c1.2.8,1.6,1.6,1.6,2.3,0,1.3-1.1,1.8-1.1,2.6s.3.8.9,1.1l-.9,1.2c-1.2-.8-1.6-1.6-1.6-2.3,0-1.3,1.1-1.8,1.1-2.6Z"/>
            <path class="cls-2" d="M456.9,602.1c2,1.1,4.2,1.6,6.3,1.6s4.4-.5,6.3-1.6l.6,1.5c-2.1,1.3-4.3,2-6.9,2s-4.9-.7-6.9-2l.6-1.5Z"/>
          </g>
          <g>
            <rect class="cls-16" x="537.7" y="526.7" width="31.7" height="228.6"/>
            <rect x="544.2" y="529.2" width="18.6" height="18.6"/>
            <rect x="544.2" y="558.2" width="18.6" height="18.6"/>
            <rect x="544.2" y="587.1" width="18.6" height="18.6"/>
            <rect x="544.2" y="616.1" width="18.6" height="18.6"/>
            <rect x="544.2" y="645" width="18.6" height="18.6"/>
            <rect x="544.2" y="674" width="18.6" height="18.6"/>
            <rect x="544.2" y="702.9" width="18.6" height="18.6"/>
            <rect x="544.2" y="731.9" width="18.6" height="18.6"/>
          </g>
          <g>
            <rect class="cls-16" x="537.7" y="238.9" width="31.7" height="285.8"/>
            <rect x="544.2" y="300.2" width="18.6" height="18.6"/>
            <rect x="544.2" y="329.2" width="18.6" height="18.6"/>
            <rect x="544.2" y="358.1" width="18.6" height="18.6"/>
            <rect x="544.2" y="387.1" width="18.6" height="18.6"/>
            <rect x="544.2" y="416.1" width="18.6" height="18.6"/>
            <rect x="544.2" y="445" width="18.6" height="18.6"/>
            <rect x="544.2" y="474" width="18.6" height="18.6"/>
            <rect x="544.2" y="502.9" width="18.6" height="18.6"/>
            <rect x="544.2" y="271.3" width="18.6" height="18.6"/>
            <rect x="544.2" y="242.6" width="18.6" height="18.6"/>
          </g>
          <g>
            <g>
              <path class="cls-2" d="M490,247.3h2.8l3.1,9.9h-2.5l-.6-2.3h-2.9l-.6,2.3h-2.4l3.1-9.9ZM490.4,253.1h2l-.2-.9c-.3-1-.5-2.1-.8-3.2h0c-.2,1-.5,2.2-.8,3.2l-.2.9Z"/>
              <path class="cls-2" d="M496.1,256l1.1-1.5c.6.5,1.2.9,2,.9s1.6-.5,1.6-1.5-.6-1.5-1.5-1.5-.8.1-1.4.5l-1-.7.3-4.9h5.5v2h-3.5v1.7c.2-.1.5-.2.9-.2,1.7,0,3.1,1,3.1,3.1s-1.7,3.5-3.6,3.5-2.7-.6-3.4-1.4Z"/>
              <path class="cls-2" d="M507,246.4h1.5l-2.9,13.2h-1.5l2.9-13.2Z"/>
              <path class="cls-2" d="M509.5,255.9l1.2-1.5c.7.6,1.7.9,2.5.9s1.3-.3,1.3-.9-.5-.8-1.4-1.1l-1.3-.5c-1-.4-2-1.3-2-2.7s1.5-3,3.6-3,2.4.4,3.2,1.2l-1.2,1.5c-.7-.5-1.4-.7-2-.7s-1.2.3-1.2.8.6.8,1.5,1.1l1.2.5c1.2.5,2,1.3,2,2.7s-1.4,3.1-3.8,3.1-2.7-.5-3.7-1.4Z"/>
              <path class="cls-2" d="M518.1,252.3c0-3.3,2.2-5.2,4.7-5.2s2.3.6,3,1.3l-1.2,1.4c-.5-.5-1-.7-1.7-.7-1.3,0-2.4,1.2-2.4,3.1s.9,3.1,2.3,3.1,1.4-.3,1.9-.8l1.2,1.4c-.9,1-2,1.5-3.2,1.5-2.5,0-4.6-1.7-4.6-5.1Z"/>
              <path class="cls-2" d="M527.4,247.3h2.4v7.9h3.8v2h-6.2v-9.9Z"/>
            </g>
            <g>
              <path class="cls-2" d="M488,276h2.8l3.1,9.9h-2.5l-.6-2.3h-2.9l-.6,2.3h-2.4l3.1-9.9ZM488.3,281.8h2l-.2-.9c-.3-1-.5-2.1-.8-3.2h0c-.2,1-.5,2.2-.8,3.2l-.2.9Z"/>
              <path class="cls-2" d="M498.2,283.4h-4.1v-1.6l3.4-5.8h2.9v5.6h1.1v1.8h-1.1v2.5h-2.2v-2.5ZM498.2,281.6v-1.5c0-.6,0-1.6,0-2.2h0c-.2.6-.5,1.1-.8,1.7l-1.1,2h1.9Z"/>
              <path class="cls-2" d="M505,275.1h1.5l-2.9,13.2h-1.5l2.9-13.2Z"/>
              <path class="cls-2" d="M507.5,284.6l1.2-1.5c.7.6,1.7.9,2.5.9s1.3-.3,1.3-.9-.5-.8-1.4-1.1l-1.3-.5c-1-.4-2-1.3-2-2.7s1.5-3,3.6-3,2.4.4,3.2,1.2l-1.2,1.5c-.7-.5-1.4-.7-2-.7s-1.2.3-1.2.8.6.8,1.5,1.1l1.2.5c1.2.5,2,1.3,2,2.7s-1.4,3.1-3.8,3.1-2.7-.5-3.7-1.4Z"/>
              <path class="cls-2" d="M516.6,276h2.8c3,0,5,1.5,5,4.9s-2,5-4.9,5h-3v-9.9ZM519.3,284c1.6,0,2.7-.7,2.7-3.1s-1.1-3-2.7-3h-.3v6.1h.3Z"/>
              <path class="cls-2" d="M527.9,276h2.8l3.1,9.9h-2.5l-.6-2.3h-2.9l-.6,2.3h-2.4l3.1-9.9ZM528.3,281.8h2l-.2-.9c-.3-1-.5-2.1-.8-3.2h0c-.2,1-.5,2.2-.8,3.2l-.2.9Z"/>
            </g>
            <g>
              <path class="cls-2" d="M501.6,305h2.8l3.1,9.9h-2.5l-.6-2.3h-2.9l-.6,2.3h-2.4l3.1-9.9ZM502,310.8h2l-.2-.9c-.3-1-.5-2.1-.8-3.2h0c-.2,1-.5,2.2-.8,3.2l-.2.9Z"/>
              <path class="cls-2" d="M508.5,305h3.6c2.1,0,3.9.7,3.9,3.1s-.7,2.4-1.7,2.9l2.2,3.9h-2.6l-1.8-3.5h-1.2v3.5h-2.4v-9.9ZM512,309.5c1.1,0,1.7-.5,1.7-1.4s-.6-1.2-1.7-1.2h-1.1v2.7h1.1Z"/>
              <path class="cls-2" d="M517.9,305h6.3v2h-3.9v1.9h3.3v2h-3.3v2.1h4v2h-6.4v-9.9Z"/>
              <path class="cls-2" d="M526.3,305h6.3v2h-3.9v2.2h3.4v2h-3.4v3.8h-2.4v-9.9Z"/>
            </g>
            <g>
              <path class="cls-2" d="M503.8,338.9c0-3.3,2.2-5.2,4.9-5.2s2.5.6,3.2,1.3l-1.2,1.4c-.5-.4-1-.7-1.8-.7-1.5,0-2.5,1.2-2.5,3.1s.9,3.1,2.7,3.1.7,0,.9-.3v-1.6h-1.6v-1.9h3.7v4.6c-.7.7-1.9,1.2-3.3,1.2-2.7,0-4.9-1.7-4.9-5.1Z"/>
              <path class="cls-2" d="M513.9,333.9h2.4l2.4,4.7c.3.7.7,1.5,1,2.2h0c-.1-1.1-.3-2.5-.3-3.6v-3.3h2.2v9.9h-2.4l-2.4-4.7c-.3-.7-.7-1.5-1-2.2h0c.1,1.1.3,2.5.3,3.6v3.3h-2.2v-9.9Z"/>
              <path class="cls-2" d="M524.1,333.9h2.8c3,0,5,1.5,5,4.9s-2,5-4.9,5h-3v-9.9ZM526.8,341.9c1.6,0,2.7-.7,2.7-3.1s-1.1-3-2.7-3h-.3v6.1h.3Z"/>
            </g>
            <g>
              <path class="cls-2" d="M477.2,370.9h2.1v-5.6h-1.8v-1.5c1-.2,1.7-.5,2.4-.9h1.7v8h1.8v1.9h-6.2v-1.9Z"/>
              <path class="cls-2" d="M484.5,371.6l1.1-1.5c.6.6,1.3,1,2.1,1s1.5-.4,1.5-1.1-.5-1.4-2.5-1.4v-1.7c1.7,0,2.2-.5,2.2-1.3s-.4-1.1-1.1-1.1-1.2.3-1.8.8l-1.2-1.4c.9-.8,1.9-1.2,3.1-1.2,2,0,3.4,1,3.4,2.7s-.5,1.7-1.6,2.2h0c1.1.4,1.9,1.2,1.9,2.4,0,1.9-1.7,2.9-3.6,2.9s-2.7-.5-3.4-1.4Z"/>
              <path class="cls-2" d="M495.4,362h1.5l-2.9,13.2h-1.5l2.9-13.2Z"/>
              <path class="cls-2" d="M497.9,371.5l1.2-1.5c.7.6,1.7.9,2.5.9s1.3-.3,1.3-.9-.5-.8-1.4-1.1l-1.3-.5c-1-.4-2-1.3-2-2.7s1.5-3,3.6-3,2.4.4,3.2,1.2l-1.2,1.5c-.7-.5-1.4-.7-2-.7s-1.2.3-1.2.8.6.8,1.5,1.1l1.2.5c1.2.5,2,1.3,2,2.7s-1.4,3.1-3.8,3.1-2.7-.5-3.7-1.4Z"/>
              <path class="cls-2" d="M506.6,367.9c0-3.3,2.2-5.2,4.7-5.2s2.3.6,3,1.3l-1.2,1.4c-.5-.5-1-.7-1.7-.7-1.3,0-2.4,1.2-2.4,3.1s.9,3.1,2.3,3.1,1.4-.3,1.9-.8l1.2,1.4c-.9,1-2,1.5-3.2,1.5-2.5,0-4.6-1.7-4.6-5.1Z"/>
              <path class="cls-2" d="M515.9,362.9h2.4v7.9h3.8v2h-6.2v-9.9Z"/>
              <path class="cls-2" d="M523.8,362.9h2.4v3.9h0l2.8-3.9h2.6l-3,4,3.5,5.9h-2.6l-2.3-4.1-1.1,1.5v2.6h-2.4v-9.9Z"/>
            </g>
            <g>
              <path class="cls-2" d="M476.1,399.8h2.1v-5.6h-1.8v-1.5c1-.2,1.7-.5,2.4-.9h1.7v8h1.8v1.9h-6.2v-1.9Z"/>
              <path class="cls-2" d="M483.7,400.3c2.6-2.2,4.1-4,4.1-5.4s-.5-1.4-1.3-1.4-1.2.5-1.7,1l-1.2-1.2c1-1,1.8-1.6,3.2-1.6s3.2,1.2,3.2,3.1-1.6,3.6-3.2,5.1c.5,0,1.2-.1,1.6-.1h2v2h-6.8v-1.5Z"/>
              <path class="cls-2" d="M494.3,390.9h1.5l-2.9,13.2h-1.5l2.9-13.2Z"/>
              <path class="cls-2" d="M497.5,391.8h2.6l1.6,4.3c.2.6.3,1.2.5,1.8h0c.2-.6.3-1.2.5-1.8l1.5-4.3h2.6v9.9h-2.1v-3.4c0-1,.2-2.7.3-3.6h0l-.8,2.6-1.3,3.6h-1.3l-1.3-3.6-.8-2.6h0c.1,1,.3,2.7.3,3.6v3.4h-2.1v-9.9Z"/>
              <path class="cls-2" d="M509.1,391.8h2.4v9.9h-2.4v-9.9Z"/>
              <path class="cls-2" d="M513.1,400.5l1.2-1.5c.7.6,1.7.9,2.5.9s1.3-.3,1.3-.9-.5-.8-1.4-1.1l-1.3-.5c-1-.4-2-1.3-2-2.7s1.5-3,3.6-3,2.4.4,3.2,1.2l-1.2,1.5c-.7-.5-1.4-.7-2-.7s-1.2.3-1.2.8.6.8,1.5,1.1l1.2.5c1.2.5,2,1.3,2,2.7s-1.4,3.1-3.8,3.1-2.7-.5-3.7-1.4Z"/>
              <path class="cls-2" d="M521.8,396.7c0-3.2,1.8-5.1,4.5-5.1s4.5,1.9,4.5,5.1-1.8,5.2-4.5,5.2-4.5-1.9-4.5-5.2ZM528.4,396.7c0-1.9-.8-3.1-2.1-3.1s-2.1,1.1-2.1,3.1.8,3.1,2.1,3.1,2.1-1.2,2.1-3.1Z"/>
            </g>
            <g>
              <path class="cls-2" d="M469.1,425.9c-.4,0-.8.3-1.1.9l-1.2-.9c.8-1.2,1.6-1.6,2.3-1.6,1.3,0,1.8,1.1,2.6,1.1s.8-.3,1.1-.9l1.2.9c-.8,1.2-1.6,1.6-2.3,1.6-1.3,0-1.8-1.1-2.6-1.1Z"/>
              <path class="cls-2" d="M475.5,428.8h2.1v-5.6h-1.8v-1.5c1-.2,1.7-.5,2.4-.9h1.7v8h1.8v1.9h-6.2v-1.9Z"/>
              <path class="cls-2" d="M483.6,428.8h2.1v-5.6h-1.8v-1.5c1-.2,1.7-.5,2.4-.9h1.7v8h1.8v1.9h-6.2v-1.9Z"/>
              <path class="cls-2" d="M493.8,419.9h1.5l-2.9,13.2h-1.5l2.9-13.2Z"/>
              <path class="cls-2" d="M496.9,420.8h2.6l1.6,4.3c.2.6.3,1.2.5,1.8h0c.2-.6.3-1.2.5-1.8l1.5-4.3h2.6v9.9h-2.1v-3.4c0-1,.2-2.7.3-3.6h0l-.8,2.6-1.3,3.6h-1.3l-1.3-3.6-.8-2.6h0c.1,1,.3,2.7.3,3.6v3.4h-2.1v-9.9Z"/>
              <path class="cls-2" d="M508.1,425.7c0-3.2,1.8-5.1,4.5-5.1s4.5,1.9,4.5,5.1-1.8,5.2-4.5,5.2-4.5-1.9-4.5-5.2ZM514.7,425.7c0-1.9-.8-3.1-2.1-3.1s-2.1,1.1-2.1,3.1.8,3.1,2.1,3.1,2.1-1.2,2.1-3.1Z"/>
              <path class="cls-2" d="M518.3,429.4l1.2-1.5c.7.6,1.7.9,2.5.9s1.3-.3,1.3-.9-.5-.8-1.4-1.1l-1.3-.5c-1-.4-2-1.3-2-2.7s1.5-3,3.6-3,2.4.4,3.2,1.2l-1.2,1.5c-.7-.5-1.4-.7-2-.7s-1.2.3-1.2.8.6.8,1.5,1.1l1.2.5c1.2.5,2,1.3,2,2.7s-1.4,3.1-3.8,3.1-2.7-.5-3.7-1.4Z"/>
              <path class="cls-2" d="M527.4,420.8h2.4v9.9h-2.4v-9.9Z"/>
            </g>
            <g>
              <path class="cls-2" d="M508.9,454.9c-.4,0-.8.3-1.1.9l-1.2-.9c.8-1.2,1.6-1.6,2.3-1.6,1.3,0,1.8,1.1,2.6,1.1s.8-.3,1.1-.9l1.2.9c-.8,1.2-1.6,1.6-2.3,1.6-1.3,0-1.8-1.1-2.6-1.1Z"/>
              <path class="cls-2" d="M515.3,457.7h2.1v-5.6h-1.8v-1.5c1-.2,1.7-.5,2.4-.9h1.7v8h1.8v1.9h-6.2v-1.9Z"/>
              <path class="cls-2" d="M522.9,454.7c0-3.4,1.4-5.1,3.5-5.1s3.5,1.7,3.5,5.1-1.4,5.2-3.5,5.2-3.5-1.8-3.5-5.2ZM527.6,454.7c0-2.7-.6-3.3-1.3-3.3s-1.3.6-1.3,3.3.6,3.4,1.3,3.4,1.3-.7,1.3-3.4Z"/>
            </g>
            <g>
              <path class="cls-2" d="M516.4,483.8c-.4,0-.8.3-1.1.9l-1.2-.9c.8-1.2,1.6-1.6,2.3-1.6,1.3,0,1.8,1.1,2.6,1.1s.8-.3,1.1-.9l1.2.9c-.8,1.2-1.6,1.6-2.3,1.6-1.3,0-1.8-1.1-2.6-1.1Z"/>
              <path class="cls-2" d="M522.4,487.6l1.2-1.4c.3.4.9.7,1.5.7,1,0,1.8-.7,1.9-2.9-.5.6-1.3,1-1.9,1-1.6,0-2.9-1-2.9-3.1s1.5-3.3,3.2-3.3,3.7,1.4,3.7,5-1.9,5.2-3.9,5.2-2.3-.5-2.9-1.2ZM525.6,483.3c.5,0,1-.3,1.4-.9-.2-1.7-.8-2.1-1.4-2.1s-1.2.5-1.2,1.6.5,1.5,1.2,1.5Z"/>
            </g>
            <path class="cls-2" d="M521.9,515.1c0-1.2.7-2,1.6-2.5h0c-.8-.6-1.3-1.4-1.3-2.4,0-1.7,1.3-2.7,3.1-2.7s3,1,3,2.6-.6,1.7-1.3,2.2h0c.9.6,1.7,1.4,1.7,2.7s-1.4,2.7-3.4,2.7-3.4-1.1-3.4-2.6ZM526.5,515c0-.9-.8-1.2-2-1.8-.4.4-.7,1-.7,1.6s.7,1.3,1.4,1.3,1.2-.3,1.2-1.1ZM526.4,510.3c0-.7-.4-1.2-1.1-1.2s-1,.3-1,1,.6,1.2,1.6,1.6c.4-.5.5-1,.5-1.5Z"/>
            <path class="cls-2" d="M525.6,535.9h-4.3v-2h6.8v1.4c-2.3,2.7-2.5,4.6-2.7,8.4h-2.4c.2-3.3.7-5.3,2.6-7.9Z"/>
            <g>
              <path class="cls-2" d="M514.8,568c-.4,0-.8.3-1.1.9l-1.2-.9c.8-1.2,1.6-1.6,2.3-1.6,1.3,0,1.8,1.1,2.6,1.1s.8-.3,1.1-.9l1.2.9c-.8,1.2-1.6,1.6-2.3,1.6-1.3,0-1.8-1.1-2.6-1.1Z"/>
              <path class="cls-2" d="M520.7,567.9c0-3.6,1.9-5.2,3.9-5.2s2.2.5,2.9,1.2l-1.2,1.4c-.3-.4-.9-.7-1.5-.7-1,0-1.8.7-1.9,2.9.5-.6,1.3-1,1.9-1,1.6,0,2.9,1,2.9,3.1s-1.5,3.3-3.2,3.3-3.7-1.4-3.7-5ZM522.9,569.1c.2,1.6.8,2.1,1.4,2.1s1.2-.5,1.2-1.6-.5-1.5-1.2-1.5-1,.3-1.4.9Z"/>
            </g>
            <g>
              <path class="cls-2" d="M514.2,597c-.4,0-.8.3-1.1.9l-1.2-.9c.8-1.2,1.6-1.6,2.3-1.6,1.3,0,1.8,1.1,2.6,1.1s.8-.3,1.1-.9l1.2.9c-.8,1.2-1.6,1.6-2.3,1.6-1.3,0-1.8-1.1-2.6-1.1Z"/>
              <path class="cls-2" d="M519.9,600.5l1.1-1.5c.6.5,1.2.9,2,.9s1.6-.5,1.6-1.5-.6-1.5-1.5-1.5-.8.1-1.4.5l-1-.7.3-4.9h5.5v2h-3.5v1.7c.2-.1.5-.2.9-.2,1.7,0,3.1,1,3.1,3.1s-1.7,3.5-3.6,3.5-2.7-.6-3.4-1.4Z"/>
            </g>
            <path class="cls-2" d="M523.5,628.2h-4.1v-1.6l3.4-5.8h2.9v5.6h1.1v1.8h-1.1v2.5h-2.2v-2.5ZM523.5,626.4v-1.5c0-.6,0-1.6,0-2.2h0c-.2.6-.5,1.1-.8,1.7l-1.1,2h1.9Z"/>
            <g>
              <path class="cls-2" d="M513.1,654.9c-.4,0-.8.3-1.1.9l-1.2-.9c.8-1.2,1.6-1.6,2.3-1.6,1.3,0,1.8,1.1,2.6,1.1s.8-.3,1.1-.9l1.2.9c-.8,1.2-1.6,1.6-2.3,1.6-1.3,0-1.8-1.1-2.6-1.1Z"/>
              <path class="cls-2" d="M518.8,658.5l1.1-1.5c.6.6,1.3,1,2.1,1s1.5-.4,1.5-1.1-.5-1.4-2.5-1.4v-1.7c1.7,0,2.2-.5,2.2-1.3s-.4-1.1-1.1-1.1-1.2.3-1.8.8l-1.2-1.4c.9-.8,1.9-1.2,3.1-1.2,2,0,3.4,1,3.4,2.7s-.5,1.7-1.6,2.2h0c1.1.4,1.9,1.2,1.9,2.4,0,1.9-1.7,2.9-3.6,2.9s-2.7-.5-3.4-1.4Z"/>
            </g>
            <path class="cls-2" d="M518.5,687.1c2.6-2.2,4.1-4,4.1-5.4s-.5-1.4-1.3-1.4-1.2.5-1.7,1l-1.2-1.2c1-1,1.8-1.6,3.2-1.6s3.2,1.2,3.2,3.1-1.6,3.6-3.2,5.1c.5,0,1.2-.1,1.6-.1h2v2h-6.8v-1.5Z"/>
            <g>
              <path class="cls-2" d="M490.3,710.5h-2.7v-2h7.7v2h-2.7v7.9h-2.4v-7.9Z"/>
              <path class="cls-2" d="M498.3,713.3l-2.6-4.8h2.6l.8,1.8c.2.5.4,1,.7,1.6h0c.2-.6.4-1.1.6-1.6l.7-1.8h2.5l-2.6,4.9,2.7,5h-2.6l-.9-1.9c-.2-.5-.5-1-.7-1.6h0c-.2.6-.5,1.1-.7,1.6l-.9,1.9h-2.5l2.7-5.1Z"/>
              <path class="cls-2" d="M517.1,713.4l-4.7,4.7c-.4.4-1,.4-1.3,0s-.4-1,0-1.3l3.1-3.1h-9.1c-.5,0-.9-.4-.9-.9s.4-.9.9-.9h9.1l-3.1-3.1c-.4-.4-.4-1,0-1.3.4-.4,1-.4,1.3,0l4.7,4.7c.4.4.4,1,0,1.3h0Z"/>
              <path class="cls-2" d="M518.4,716.5h2.1v-5.6h-1.8v-1.5c1-.2,1.7-.5,2.4-.9h1.7v8h1.8v1.9h-6.2v-1.9Z"/>
            </g>
            <g>
              <path class="cls-2" d="M486.7,737.5h3.6c2.1,0,3.9.7,3.9,3.1s-.7,2.4-1.7,2.9l2.2,3.9h-2.6l-1.8-3.5h-1.2v3.5h-2.4v-9.9ZM490.2,742c1.1,0,1.7-.5,1.7-1.4s-.6-1.2-1.7-1.2h-1.1v2.7h1.1Z"/>
              <path class="cls-2" d="M497.7,742.3l-2.6-4.8h2.6l.8,1.8c.2.5.4,1,.7,1.6h0c.2-.6.4-1.1.6-1.6l.7-1.8h2.5l-2.6,4.9,2.7,5h-2.6l-.9-1.9c-.2-.5-.5-1-.7-1.6h0c-.2.6-.5,1.1-.7,1.6l-.9,1.9h-2.5l2.7-5.1Z"/>
              <path class="cls-2" d="M503.8,741l4.7-4.7c.4-.4,1-.4,1.3,0s.4,1,0,1.3l-3.1,3.1h9.1c.5,0,.9.4.9.9s-.4.9-.9.9h-9.1l3.1,3.1c.4.4.4,1,0,1.3-.4.4-1,.4-1.3,0l-4.7-4.7c-.4-.4-.4-1,0-1.3h0Z"/>
              <path class="cls-2" d="M517.4,742.4c0-3.4,1.4-5.1,3.5-5.1s3.5,1.7,3.5,5.1-1.4,5.2-3.5,5.2-3.5-1.8-3.5-5.2ZM522.2,742.4c0-2.7-.6-3.3-1.3-3.3s-1.3.6-1.3,3.3.6,3.4,1.3,3.4,1.3-.7,1.3-3.4Z"/>
            </g>
          </g>
          <g>
            <rect class="cls-6" x="383.2" y="343.8" width="10.1" height="16.3"/>
            <rect class="cls-20" x="383.2" y="346.2" width="10.1" height="11.2"/>
          </g>
        </g>
        <polygon id="rect846" class="cls-12" points="768.7 411.1 768.7 400 734.3 386.3 734.3 375.1 700.7 366.2 700.7 355.2 768.7 411.1"/>
        <g id="layer1-0">
          <rect id="rect815-3" x="633" y="43.6" width="193.6" height="255.2"/>
          <rect id="rect821-7" class="cls-2" x="678.8" y="257.2" width="100.7" height="34"/>
          <path id="rect825-7" class="cls-28" d="M685.4,259.2h20.2c3.5,0,6.4,2.8,6.4,6.3v17.4c0,3.5-2.9,6.3-6.4,6.3h-20.2c-3.5,0-6.4-2.8-6.4-6.3v-17.4c0-3.5,2.9-6.3,6.4-6.3Z"/>
          <rect id="rect831-3" class="cls-2" x="660.2" y="186.2" width="137.8" height="34"/>
          <rect id="rect833-3" class="cls-2" x="660.2" y="150.7" width="137.8" height="34"/>
          <rect id="rect837-4" class="cls-2" x="660.2" y="115.2" width="137.8" height="34"/>
          <path id="rect872-5" class="cls-28" d="M752.7,259.2h20.2c3.5,0,6.4,2.8,6.4,6.3v17.4c0,3.5-2.9,6.3-6.4,6.3h-20.2c-3.5,0-6.4-2.8-6.4-6.3v-17.4c0-3.5,2.9-6.3,6.4-6.3Z"/>
          <path id="rect874-0" class="cls-28" d="M718.3,259.2h21.8c3.1,0,5.6,2.5,5.6,5.5v18.9c0,3-2.5,5.5-5.6,5.5h-21.8c-3.1,0-5.6-2.5-5.6-5.5v-18.9c0-3,2.5-5.5,5.6-5.5Z"/>
          <rect id="rect892-1" class="cls-8" x="662.1" y="187.3" width="134.9" height="31.4"/>
          <path id="rect836-9" class="cls-22" d="M678.1,187.3h8.2c8.8,0,16,7.1,16,15.7h0c0,8.6-7.2,15.7-16,15.7h-8.2c-8.8,0-16-7.1-16-15.7h0c0-8.6,7.2-15.7,16-15.7h0Z"/>
          <rect id="rect850-5" class="cls-22" x="705" y="187.3" width="40.3" height="31.4"/>
          <rect id="rect848-3" class="cls-22" x="751.6" y="188.4" width="44.4" height="29"/>
          <rect id="rect892-7-7" class="cls-8" x="661.7" y="151.9" width="134.9" height="31.4"/>
          <rect id="rect892-72-4" class="cls-8" x="661.7" y="116.7" width="134.9" height="31.4"/>
          <path id="rect836-7-2" class="cls-22" d="M678,152h8.2c8.8,0,16,7.1,16,15.7h0c0,8.6-7.2,15.7-16,15.7h-8.2c-8.8,0-16-7.1-16-15.7h0c0-8.6,7.2-15.7,16-15.7h0Z"/>
          <path id="rect836-6-5" class="cls-22" d="M720.9,152h8.2c8.8,0,16,7.1,16,15.7h0c0,8.6-7.2,15.7-16,15.7h-8.2c-8.8,0-16-7.1-16-15.7h0c0-8.6,7.2-15.7,16-15.7h0Z"/>
          <path id="rect939-0" class="cls-22" d="M720.9,116.4h8.2c8.8,0,16,7.1,16,15.7h0c0,8.6-7.2,15.7-16,15.7h-8.2c-8.8,0-16-7.1-16-15.7h0c0-8.6,7.2-15.7,16-15.7h0Z"/>
          <path id="rect941-5" class="cls-22" d="M677.5,116.4h8.2c8.8,0,16,7.1,16,15.7h0c0,8.6-7.2,15.7-16,15.7h-8.2c-8.8,0-16-7.1-16-15.7h0c0-8.6,7.2-15.7,16-15.7h0Z"/>
          <rect id="rect943-8" class="cls-22" x="751.6" y="153.3" width="44.4" height="29"/>
          <rect id="rect945-7" class="cls-22" x="751.6" y="117.7" width="44.4" height="29"/>
          <rect id="rect947-6" class="cls-10" x="693.6" y="275.4" width="3.7" height="62.4"/>
          <rect id="rect949-3" class="cls-10" x="727.5" y="275.4" width="3.7" height="62.4"/>
          <rect id="rect951-4" class="cls-10" x="760.9" y="275.4" width="3.7" height="62.4"/>
          <ellipse id="path1456-4" class="cls-9" cx="660.1" cy="97.6" rx="17.7" ry="17"/>
          <ellipse id="ellipse1458-5" class="cls-9" cx="797.7" cy="97.6" rx="17.7" ry="17"/>
          <ellipse id="path1460-0" class="cls-3" cx="660.1" cy="97.5" rx="15.9" ry="15.3"/>
          <ellipse id="ellipse1464-0" class="cls-3" cx="797.7" cy="97.5" rx="15.9" ry="15.3"/>
          <ellipse id="circle1502-8" class="cls-3" cx="681.8" cy="167.8" rx="15" ry="14.7"/>
          <ellipse id="circle1504-4" class="cls-3" cx="682" cy="203" rx="15" ry="14.7"/>
          <ellipse id="circle1508-0" class="cls-3" cx="724.8" cy="167.5" rx="15" ry="14.7"/>
          <ellipse id="circle1510-2" class="cls-3" cx="724.8" cy="203" rx="15" ry="14.7"/>
          <ellipse id="circle1514-2" class="cls-3" cx="774.1" cy="203" rx="15" ry="14.7"/>
          <ellipse id="circle1516-1" class="cls-3" cx="774.1" cy="167.8" rx="15" ry="14.7"/>
          <rect id="rect74-6" class="cls-10" x="723.2" y="129.8" width="3.7" height="9.4"/>
          <polygon id="rect82-5" class="cls-10" points="729.8 167.3 778.6 127.3 781 130.1 732.2 170.1 729.8 167.3"/>
          <polygon id="rect84-9" class="cls-10" points="678.1 129.2 680.5 126.4 729.3 166.4 726.9 169.2 678.1 129.2"/>
          <path id="rect1512-8" class="cls-27" d="M676,138.9v26.2h0c0,17.9,10.3,34.5,26.9,43.5,16.7,9,37,9,53.7,0,16.5-9,26.8-25.6,26.8-43.5h0v-26.2h-107.5,0Z"/>
          <path id="path31-5" class="cls-2" d="M688.1,63.7c1.2,0,1.3,0,1.6-.2.2,0,.3-.2.4-.4,0-.2,0-.4.2-2.7v-2.5h5.2v3.1c0,3.5,0,3.8-.4,4.7-.4,1.2-1.4,2-2.7,2.1-.8,0-1.6.2-2.3,0h-3.1v-4.2h1.3-.2ZM712.4,70.8c21.8,0,27.2,0,26.3,0h0c-.2,0,0,0,.2,0h.5-.5c-.2,0-.4,0-.3,0s0,0,0,.6,0,.6.2.6,0,0,0,0h-51.9v-1.9h25.7v.6h-.2ZM692.7,51.3h2.6v4.1h-5.2v-4.1h2.6ZM697.9,58.8c.2-1.1.5-2.2,1-3.1,0-.2.2-.4.4-.7,0,0,.2-.3.3-.4.3-.5.6-.9,1-1.3h0c.3-.5.7-.8,1.1-1.1.6-.4,1.2-.7,1.9-1,1-.4,2-.6,3.1-.5.6,0,1.2,0,1.8.2.4,0,.8.3,1,.3h.4c.2,0,.4.2.6.3,1.5,1,2.7,2.4,3.6,4,1,2,1.1,4.3.4,6.4-.2.7-.6,1.4-.9,2-.4.7-.9,1.3-1.5,1.8-1,1.1-2.3,1.8-3.7,2.1-1.1.2-2.2.3-3.2.2-1.3-.2-2.5-.7-3.5-1.5-.4-.3-.8-.6-1.1-1,0,0-.2-.3-.4-.4-1.1-1.2-1.8-2.6-2.2-4.2,0-.8-.2-1.7-.2-2.5h0v.3h.1ZM702.9,61c.3,1,.8,1.9,1.5,2.5.8.8,2,1,3.1.7,1.4-.6,2.4-1.8,2.7-3.1.2-1,.2-1.9,0-2.8-.3-1.1-.9-2-1.8-2.6-.3-.2-.6-.4-1-.4-.8-.2-1.6,0-2.4.2-.7.5-1.3,1.1-1.7,1.9-.6,1.2-.8,2.5-.4,3.8h0v-.2ZM717.4,51.3h5.1v2.3c0,2.2,0,2.3.2,2.6.4,1,1.5,1.5,2.6,1.2.5-.2.9-.5,1.2-1l.2-.4v-4.7h5.2v2.6c0,1.1,0,2.2-.2,3.2-.3,1-.7,1.9-1.3,2.6,0,0-.2.2-.3.4-.4.4-.8.8-1.2,1.1-.5.3-1,.6-1.5.8,0,0-.5,0-.8.2-.6.2-1.2.2-1.8.2s-1.3,0-2-.2-1.4-.5-2-.9c-.8-.5-1.5-1.2-2-2-.7-1-1.1-2.1-1.2-3.2v-4.9h-.2ZM724.6,63.7h4.2v4.2h-8.4v-4.2h4.2ZM731.8,48v-.3c0-.2.1-.3.3-.3h31.4v1.8h-31.7v-1.2h0ZM738.9,58.2h5.4v4.2h-10.7v-4.2h5.4-.1ZM748.5,51.3h2.6v4.1h-5.2v-4.1h2.6ZM748.5,57.5h2.6v10.7h-5.2v-10.7h2.6ZM758.8,51.3h5.4v4.1h-10.8v-4.1h5.4,0ZM754.3,57.8h5v2.5c0,3.4,0,3.2,2.5,3.2h1.7v4.3h-.6c-1.6.2-3.1.2-4.7,0-1.1,0-2.1-.6-2.9-1.4-.6-.8-1-1.7-1-2.6v-6.1h0ZM767.2,49.3c0-.4.3-.8.7-1.1,1-1,2.6-1.1,3.7-.3.4.2.7.6.9,1s.2.7.2,1.1,0,.8-.2,1.2c-.5.9-1.3,1.5-2.3,1.6-.9,0-1.7-.2-2.3-.9-.7-.7-.9-1.7-.7-2.5h0ZM767.7,51c.4.7,1,1.1,1.7,1.3.8.2,1.6,0,2.2-.6.2-.2.4-.4.5-.7.2-.3.3-.7.2-1.1,0-.4,0-.7-.2-1.1,0-.3-.4-.6-.7-.8-.2-.2-.5-.3-.8-.4-1.2-.4-2.5.2-3.1,1.4-.2.6,0,1.3,0,1.9h.2,0ZM769.6,48.3h1.1c.5.3.6.9.3,1.3,0,0-.2.2-.4.3h-.2l.2.3c.2.2.3.4.5.6,0,0,.2.3.3.4,0,0,0,.2-.2.2h-.3l-.4-.7c-.4-.7-.6-.8-1-.8h-.3v1.5h-.4v-3.1h1-.2,0ZM769.7,49.7h.8c.4-.3.2-.8-.4-.9h-1v1h.6Z"/>
          <g id="text91" class="cls-8">
            <g class="cls-8">
              <g class="cls-8">
                <path class="cls-2" d="M823.1,170.7h.2v.2c.2.2,0,.2,0,.3v1.6s0,.2-.2.2l-8,5.8h8.2v2h-15.8v-2h7.3l-7.1-5.6-.2-.2c-.2-.2,0,0,0-.2v-1.8h.5s.3.2.4.3l6.4,5.2,7.6-5.6c.2,0,.4-.2.4-.3h.3,0Z"/>
              </g>
              <g class="cls-8">
                <path class="cls-2" d="M817.2,163.1h6.1c0,0,0,0,0,.2v1.8h-6.1l-9,4.4c-.2,0-.3,0-.4.2h-.2v-2.1h.2l4.6-2.2c.4-.2.9-.4,1.4-.6s1-.4,1.4-.6h0c-.5-.2-.9-.4-1.4-.6-.5-.2-.9-.4-1.4-.6l-4.6-2.2h-.2v-2.1h.2c0,0,.3,0,.4.2l9,4.4v-.2h0Z"/>
              </g>
              <g class="cls-8">
                <path class="cls-2" d="M817.2,152.7h.7s.2.2.2.3v5.1s0,.3-.2.3h-1.4c-.2,0-.2-.2-.2-.3v-5.3h.9Z"/>
                <path class="cls-2" d="M815.4,140c1.2,0,2.4,0,3.4.3s1.9.5,2.6,1c.7.4,1.3,1,1.7,1.8.4.7.6,1.6.6,2.6s-.2,1.9-.5,2.5c-.4.7-.9,1.2-1.6,1.7s-1.6.7-2.6.9-2.2.3-3.5.3-2.3,0-3.4-.3-1.9-.5-2.6-1c-.7-.4-1.3-1-1.7-1.8-.4-.7-.6-1.6-.6-2.6s.2-1.9.5-2.5c.4-.7.9-1.2,1.6-1.7s1.6-.7,2.6-.9,2.2-.3,3.5-.3h0ZM815.6,142.2h-2.2c-.7,0-1.2,0-1.7.3s-.9.3-1.3.4c-.4.2-.6.4-.9.6-.2.2-.4.5-.5.8s-.2.7-.2,1.1c0,.7.2,1.3.5,1.7s.8.8,1.4,1c.6.3,1.3.4,2,.5s1.6,0,2.5,0,2.2,0,3.1-.2c.8,0,1.5-.3,2-.6s.9-.6,1.2-1c.2-.4.4-.9.4-1.5s0-.9-.2-1.2c0-.4-.4-.7-.6-.9-.3-.3-.6-.5-1-.6-.4-.2-.8-.3-1.3-.4-.5,0-1-.2-1.5-.2h-1.7v.2Z"/>
                <path class="cls-2" d="M815.4,127.5c1.2,0,2.4,0,3.4.3s1.9.5,2.6,1c.7.4,1.3,1,1.7,1.8.4.7.6,1.6.6,2.6s-.2,1.9-.5,2.5c-.4.7-.9,1.2-1.6,1.7s-1.6.7-2.6.9-2.2.3-3.5.3-2.3,0-3.4-.3-1.9-.5-2.6-1c-.7-.4-1.3-1-1.7-1.8-.4-.7-.6-1.6-.6-2.6s.2-1.9.5-2.5c.4-.7.9-1.2,1.6-1.7s1.6-.7,2.6-.9,2.2-.3,3.5-.3h0ZM815.6,129.6h-2.2c-.7,0-1.2,0-1.7.3s-.9.3-1.3.4c-.4.2-.6.4-.9.6-.2.2-.4.5-.5.8,0,.3-.2.7-.2,1.1,0,.7.2,1.3.5,1.7s.8.8,1.4,1c.6.3,1.3.4,2,.5s1.6,0,2.5,0,2.2,0,3.1-.2c.8,0,1.5-.3,2-.6s.9-.6,1.2-1c.2-.4.4-.9.4-1.5s0-.9-.2-1.2c0-.4-.4-.7-.6-.9-.3-.3-.6-.5-1-.6-.4-.2-.8-.3-1.3-.4-.5,0-1-.2-1.5-.2h-1.7v.2Z"/>
                <path class="cls-2" d="M822.6,115.3h.7v8.6h0c0,.2-.2,0-.3.2h-1.3v-3.4h-12.2l1.8,3v.6h-1.6c-.2,0,0,0,0-.2l-2.4-3.6h0v-1.8h14.2v-3h.9v-.2l.2-.2Z"/>
              </g>
            </g>
          </g>
          <g id="text95" class="cls-8">
            <g class="cls-8">
              <path class="cls-2" d="M803.3,277.9c0,.9-.2,1.7-.5,2.4-.3.7-.8,1.3-1.4,1.8s-1.3.8-2,1.1c-.8.2-1.6.4-2.5.4s-1.2,0-1.8-.2-1-.2-1.4-.4c-.4-.2-.8-.3-1.1-.5s-.5-.3-.6-.4-.2-.3-.2-.4v-1.7h.2s.3,0,.6.2c.2.2.6.3,1,.5s.9.4,1.4.5c.5.2,1.2.3,1.9.3s1,0,1.5-.2c.5,0,.8-.4,1.2-.6s.6-.6.7-1c.2-.4.3-.8.3-1.3s0-1-.4-1.4c-.2-.4-.6-.7-1-1s-.8-.5-1.4-.8c-.5-.2-1-.5-1.6-.7-.5-.2-1.1-.5-1.6-.8s-1-.7-1.4-1.1-.7-.9-1-1.4c-.2-.5-.4-1.2-.4-2s0-1.5.4-2.1c.3-.6.7-1.1,1.2-1.5s1.1-.7,1.8-1c.7-.2,1.5-.3,2.3-.3h1.3c.4,0,.8.2,1.2.3.4,0,.7.3,1,.4.3.2.5.3.6.4s.2.2.2.2v2h-.2s-.3,0-.5-.2-.5-.3-.8-.5-.7-.3-1.2-.5-1-.2-1.5-.2-1,0-1.4.2c-.4,0-.7.3-1,.6-.3.2-.4.5-.6.8,0,.3-.2.7-.2,1,0,.5,0,1,.4,1.3.2.4.6.7,1,1s.9.6,1.4.8c.5.2,1,.5,1.6.7s1.1.5,1.6.8,1,.6,1.4,1,.7.9,1,1.4.4,1.2.4,1.9h0v.2Z"/>
            </g>
          </g>
          <g id="text99" class="cls-8">
            <g class="cls-8">
              <path class="cls-2" d="M667.9,274c0,.3,0,.6-.3.7s-.6.2-1,.2h-16.2c-.5,0-.8,0-1-.2-.2,0-.3-.4-.3-.7s0-.5.3-.7.6-.2,1-.2h17.2l.3.3c0,0,0,.2,0,.4h0v.2Z"/>
            </g>
          </g>
        </g>
        <rect id="rect826" class="cls-19" x="722.9" y="304.5" width="11.3" height="137.1"/>
        <rect id="rect840" class="cls-7" x="689.3" y="303.9" width="11.3" height="227.9"/>
        <rect id="rect849" class="cls-18" x="757.4" y="304.2" width="11.3" height="322.9"/>
        <ellipse id="path277" class="cls-18" cx="763.1" cy="301.6" rx="9.4" ry="9.2"/>
        <ellipse id="circle279" class="cls-19" cx="728.6" cy="301.6" rx="9.4" ry="9.2"/>
        <ellipse id="circle281" class="cls-7" cx="695" cy="301.6" rx="9.4" ry="9.2"/>
        <rect class="cls-12" x="6.4" y="54.2" width="538" height="720.9"/>
        <rect class="cls-19" x="25" y="438.1" width="709.2" height="11.4"/>
        <rect class="cls-7" x="25" y="530" width="675.6" height="11.4"/>
        <rect class="cls-7" x="25" y="503" width="11.4" height="38.4"/>
        <rect class="cls-19" x="25" y="438.1" width="11.4" height="37.6"/>
        <circle id="circle281-2" class="cls-7" cx="30.3" cy="504.8" r="11.6" transform="translate(-5.1 .3) rotate(-.6)"/>
        <circle id="circle281-3" class="cls-19" cx="30.3" cy="474.5" r="11.6" transform="translate(-7.2 .5) rotate(-.9)"/>
        <circle id="circle281-4" class="cls-18" cx="554" cy="623.4" r="11.6" transform="translate(-196.4 259.5) rotate(-22.5)"/>
        <rect class="cls-18" x="551.9" y="618.7" width="216.8" height="11.4"/>
      </g>
    </g>
  </g>
</svg>