<?xml version="1.0" encoding="utf-8"?>
<!-- Generator: Adobe Illustrator 27.8.0, SVG Export Plug-In . SVG Version: 6.00 Build 0)  -->
<svg version="1.1"
	 id="Ebene_1" xmlns:svg="http://www.w3.org/2000/svg" xmlns:rdf="http://www.w3.org/1999/02/22-rdf-syntax-ns#" xmlns:sodipodi="http://sodipodi.sourceforge.net/DTD/sodipodi-0.dtd" xmlns:dc="http://purl.org/dc/elements/1.1/" xmlns:inkscape="http://www.inkscape.org/namespaces/inkscape" xmlns:cc="http://creativecommons.org/ns#" inkscape:export-xdpi="93" inkscape:export-ydpi="93" inkscape:version="0.92.4 (5da689c313, 2019-01-14)"
	 xmlns="http://www.w3.org/2000/svg" xmlns:xlink="http://www.w3.org/1999/xlink" x="0px" y="0px" viewBox="0 0 466 803.4"
	 style="enable-background:new 0 0 466 803.4;" xml:space="preserve">
<style type="text/css">
	.st0{fill:#02814B;}
	.st1{fill:#D4C547;}
	.st2{fill:#525035;}
	.st3{fill:#FEE86F;}
	.st4{fill:#FFE17B;}
	.st5{fill:#DDDDDD;}
	.st6{fill:#7F7F7F;}
	.st7{fill:#474544;}
	.st8{fill:#E2EADE;}
	.st9{fill:#C29148;}
	.st10{fill:#8DDDDE;}
	.st11{fill:#C1C1C1;}
	.st12{fill:#C2BFAB;}
	.st13{fill:none;stroke:#95AC6E;stroke-miterlimit:10;}
	.st14{fill:#E8D28A;}
	.st15{fill:#CECECE;}
	.st16{fill:#FFFFFF;}
	.st17{fill:#36323E;}
	.st18{fill:#868C97;}
	.st19{fill:#FCFCFA;}
	.st20{fill:#141316;}
	.st21{fill:#B9A68F;}
	.st22{fill:#E0B45B;}
	.st23{fill:#ABA28E;}
	.st24{fill:none;stroke:#FFFFFF;stroke-miterlimit:10;}
	.st25{fill:#010101;}
	.st26{fill:#1B1B1B;}
	.st27{opacity:0.99;fill:#010101;enable-background:new    ;}
	.st28{fill:#CDCCCC;}
	.st29{opacity:0.99;fill:#808181;enable-background:new    ;}
	.st30{opacity:0.99;fill:#CDCCCC;enable-background:new    ;}
	.st31{opacity:0.99;fill:#FFFFFF;enable-background:new    ;}
	.st32{fill:#343434;}
	.st33{enable-background:new    ;}
	.st34{fill:#915114;}
	.st35{fill:#E20E18;}
	.st36{fill:#22AE87;}
	.st37{fill:#25AF88;}
</style>
<g>
	<path class="st0" d="M243.3,221.4v-11.9H0.2v11.9c2.3,0.9,3.9,3.1,3.9,5.7s-1.6,4.8-3.9,5.7v18.1c2.3,0.9,3.9,3.1,3.9,5.7
		s-1.6,4.8-3.9,5.7v18.1c2.3,0.9,3.9,3.1,3.9,5.7s-1.6,4.8-3.9,5.7v18.1c2.3,0.9,3.9,3.1,3.9,5.7s-1.6,4.8-3.9,5.7v18.1
		c2.3,0.9,3.9,3.1,3.9,5.7s-1.6,4.8-3.9,5.7v18.1c2.3,0.9,3.9,3.1,3.9,5.7s-1.6,4.8-3.9,5.7v18.1c2.3,0.9,3.9,3.1,3.9,5.7
		s-1.6,4.8-3.9,5.7v18.1c2.3,0.9,3.9,3.1,3.9,5.7s-1.6,4.8-3.9,5.7v18.1c2.3,0.9,3.9,3.1,3.9,5.7s-1.6,4.8-3.9,5.7v18.1
		c2.3,0.9,3.9,3.1,3.9,5.7s-1.6,4.8-3.9,5.7v18.1c2.3,0.9,3.9,3.1,3.9,5.7s-1.6,4.8-3.9,5.7v18.1c2.3,0.9,3.9,3.1,3.9,5.7
		s-1.6,4.8-3.9,5.7v18.1c2.3,0.9,3.9,3.1,3.9,5.7s-1.6,4.8-3.9,5.7v18.1c2.3,0.9,3.9,3.1,3.9,5.7s-1.6,4.8-3.9,5.7v18.1
		c2.3,0.9,3.9,3.1,3.9,5.7s-1.6,4.8-3.9,5.7v18.1c2.3,0.9,3.9,3.1,3.9,5.7s-1.6,4.8-3.9,5.7v18.1c2.3,0.9,3.9,3.1,3.9,5.7
		s-1.6,4.8-3.9,5.7v18.1c2.3,0.9,3.9,3.1,3.9,5.7s-1.6,4.8-3.9,5.7v18c2.3,0.9,3.9,3.1,3.9,5.7s-1.6,4.8-3.9,5.7v18.1
		c2.3,0.9,3.9,3.1,3.9,5.7s-1.6,4.8-3.9,5.7v11.9h78.5h7.5h11.3h18.5h11.3H146h11.3h4h82v-11.9c-2.2-0.9-3.8-3.1-3.8-5.7
		s1.6-4.8,3.8-5.7v-18.1c-2.2-0.9-3.8-3.1-3.8-5.7s1.6-4.8,3.8-5.7v-18.1c-2.2-0.9-3.8-3.1-3.8-5.7s1.6-4.8,3.8-5.7V703
		c-2.2-0.9-3.8-3.1-3.8-5.7s1.6-4.8,3.8-5.7v-18.1c-2.2-0.9-3.8-3.1-3.8-5.7s1.6-4.8,3.8-5.7v-18.1c-2.2-0.9-3.8-3.1-3.8-5.7
		s1.6-4.8,3.8-5.7v-18.1c-2.2-0.9-3.8-3.1-3.8-5.7s1.6-4.8,3.8-5.7v-18.1c-2.2-0.9-3.8-3.1-3.8-5.7s1.6-4.8,3.8-5.7V556
		c-2.2-0.9-3.8-3.1-3.8-5.7s1.6-4.8,3.8-5.7v-18.1c-2.2-0.9-3.8-3.1-3.8-5.7s1.6-4.8,3.8-5.7v-18.1c-2.2-0.9-3.8-3.1-3.8-5.7
		s1.6-4.8,3.8-5.7v-18.1c-2.2-0.9-3.8-3.1-3.8-5.7s1.6-4.8,3.8-5.7v-18.1c-2.2-0.9-3.8-3.1-3.8-5.7s1.6-4.8,3.8-5.7V409
		c-2.2-0.9-3.8-3.1-3.8-5.7s1.6-4.8,3.8-5.7v-18.1c-2.2-0.9-3.8-3.1-3.8-5.7s1.6-4.8,3.8-5.7v-18.1c-2.2-0.9-3.8-3.1-3.8-5.7
		s1.6-4.8,3.8-5.7v-18.1c-2.2-0.9-3.8-3.1-3.8-5.7s1.6-4.8,3.8-5.7v-18.1c-2.2-0.9-3.8-3.1-3.8-5.7s1.6-4.8,3.8-5.7v-18.1
		c-2.2-0.9-3.8-3.1-3.8-5.7s1.6-4.8,3.8-5.7v-18.1c-2.2-0.9-3.8-3.1-3.8-5.7S241.1,222.3,243.3,221.4z M15.8,791.6
		c-3.4,0-6.1-2.7-6.1-6.1s2.7-6.1,6.1-6.1s6.1,2.7,6.1,6.1S19.2,791.6,15.8,791.6z M15.8,762.2c-3.4,0-6.1-2.7-6.1-6.1
		s2.7-6.1,6.1-6.1s6.1,2.7,6.1,6.1S19.2,762.2,15.8,762.2z M15.8,732.8c-3.4,0-6.1-2.7-6.1-6.1s2.7-6.1,6.1-6.1s6.1,2.7,6.1,6.1
		S19.2,732.8,15.8,732.8z M15.8,703.4c-3.4,0-6.1-2.7-6.1-6.1s2.7-6.1,6.1-6.1s6.1,2.7,6.1,6.1S19.2,703.4,15.8,703.4z M15.8,674
		c-3.4,0-6.1-2.7-6.1-6.1s2.7-6.1,6.1-6.1s6.1,2.7,6.1,6.1S19.2,674,15.8,674z M15.8,644.7c-3.4,0-6.1-2.7-6.1-6.1s2.7-6.1,6.1-6.1
		s6.1,2.7,6.1,6.1S19.2,644.7,15.8,644.7z M15.8,615.3c-3.4,0-6.1-2.7-6.1-6.1s2.7-6.1,6.1-6.1s6.1,2.7,6.1,6.1
		S19.2,615.3,15.8,615.3z M15.8,585.9c-3.4,0-6.1-2.7-6.1-6.1s2.7-6.1,6.1-6.1s6.1,2.7,6.1,6.1S19.2,585.9,15.8,585.9z M15.8,556.5
		c-3.4,0-6.1-2.7-6.1-6.1s2.7-6.1,6.1-6.1s6.1,2.7,6.1,6.1S19.2,556.5,15.8,556.5z M15.8,527.1c-3.4,0-6.1-2.7-6.1-6.1
		s2.7-6.1,6.1-6.1s6.1,2.7,6.1,6.1S19.2,527.1,15.8,527.1z M15.8,497.7c-3.4,0-6.1-2.7-6.1-6.1s2.7-6.1,6.1-6.1s6.1,2.7,6.1,6.1
		S19.2,497.7,15.8,497.7z M15.8,468.3c-3.4,0-6.1-2.7-6.1-6.1s2.7-6.1,6.1-6.1s6.1,2.7,6.1,6.1S19.2,468.3,15.8,468.3z M15.8,438.9
		c-3.4,0-6.1-2.7-6.1-6.1s2.7-6.1,6.1-6.1s6.1,2.7,6.1,6.1S19.2,438.9,15.8,438.9z M15.8,409.5c-3.4,0-6.1-2.7-6.1-6.1
		s2.7-6.1,6.1-6.1s6.1,2.7,6.1,6.1S19.2,409.5,15.8,409.5z M15.8,380.1c-3.4,0-6.1-2.7-6.1-6.1s2.7-6.1,6.1-6.1s6.1,2.7,6.1,6.1
		S19.2,380.1,15.8,380.1z M15.8,350.7c-3.4,0-6.1-2.7-6.1-6.1s2.7-6.1,6.1-6.1s6.1,2.7,6.1,6.1S19.2,350.7,15.8,350.7z M15.8,321.3
		c-3.4,0-6.1-2.7-6.1-6.1s2.7-6.1,6.1-6.1c3.4,0,6.1,2.7,6.1,6.1S19.2,321.3,15.8,321.3z M15.8,291.9c-3.4,0-6.1-2.7-6.1-6.1
		s2.7-6.1,6.1-6.1s6.1,2.7,6.1,6.1S19.2,291.9,15.8,291.9z M15.8,262.5c-3.4,0-6.1-2.7-6.1-6.1s2.7-6.1,6.1-6.1s6.1,2.7,6.1,6.1
		S19.2,262.5,15.8,262.5z M15.8,233.1c-3.4,0-6.1-2.7-6.1-6.1s2.7-6.1,6.1-6.1s6.1,2.7,6.1,6.1S19.2,233.1,15.8,233.1z M53.7,791.6
		c-6.7,0-12.1-5.4-12.1-12.1s5.4-12.1,12.1-12.1c6.7,0,12.1,5.4,12.1,12.1S60.4,791.6,53.7,791.6z M53.7,244.4
		c-6.7,0-12.1-5.4-12.1-12.1c0-6.7,5.4-12.1,12.1-12.1c6.7,0,12.1,5.4,12.1,12.1C65.8,239,60.4,244.4,53.7,244.4z M127.6,577.7
		c-3.1,0-5.7-2.6-5.7-5.7s2.6-5.7,5.7-5.7c3.1,0,5.7,2.6,5.7,5.7S130.7,577.7,127.6,577.7z M157,577.7c-3.1,0-5.7-2.6-5.7-5.7
		s2.6-5.7,5.7-5.7c3.1,0,5.7,2.6,5.7,5.7S160.2,577.7,157,577.7z M186.2,220.2c6.7,0,12.1,5.4,12.1,12.1c0,6.7-5.4,12.1-12.1,12.1
		s-12.1-5.4-12.1-12.1C174.1,225.6,179.6,220.2,186.2,220.2z M192.5,572c0,3.1-2.6,5.7-5.7,5.7c-3.1,0-5.7-2.6-5.7-5.7
		s2.6-5.7,5.7-5.7C190,566.3,192.5,568.8,192.5,572z M188.2,791.6c-6.7,0-12.1-5.4-12.1-12.1s5.4-12.1,12.1-12.1s12.1,5.4,12.1,12.1
		S194.9,791.6,188.2,791.6z M227.8,791.6c-3.4,0-6.1-2.7-6.1-6.1s2.7-6.1,6.1-6.1s6.1,2.7,6.1,6.1S231.2,791.6,227.8,791.6z
		 M227.8,762.2c-3.4,0-6.1-2.7-6.1-6.1s2.7-6.1,6.1-6.1s6.1,2.7,6.1,6.1S231.2,762.2,227.8,762.2z M227.8,732.8
		c-3.4,0-6.1-2.7-6.1-6.1s2.7-6.1,6.1-6.1s6.1,2.7,6.1,6.1S231.2,732.8,227.8,732.8z M227.8,703.4c-3.4,0-6.1-2.7-6.1-6.1
		s2.7-6.1,6.1-6.1s6.1,2.7,6.1,6.1S231.2,703.4,227.8,703.4z M227.8,674c-3.4,0-6.1-2.7-6.1-6.1s2.7-6.1,6.1-6.1s6.1,2.7,6.1,6.1
		S231.2,674,227.8,674z M227.8,644.7c-3.4,0-6.1-2.7-6.1-6.1s2.7-6.1,6.1-6.1s6.1,2.7,6.1,6.1S231.2,644.7,227.8,644.7z
		 M227.8,615.3c-3.4,0-6.1-2.7-6.1-6.1s2.7-6.1,6.1-6.1s6.1,2.7,6.1,6.1S231.2,615.3,227.8,615.3z M227.8,585.9
		c-3.4,0-6.1-2.7-6.1-6.1s2.7-6.1,6.1-6.1s6.1,2.7,6.1,6.1S231.2,585.9,227.8,585.9z M227.8,556.5c-3.4,0-6.1-2.7-6.1-6.1
		s2.7-6.1,6.1-6.1s6.1,2.7,6.1,6.1S231.2,556.5,227.8,556.5z M227.8,527.1c-3.4,0-6.1-2.7-6.1-6.1s2.7-6.1,6.1-6.1s6.1,2.7,6.1,6.1
		S231.2,527.1,227.8,527.1z M227.8,497.7c-3.4,0-6.1-2.7-6.1-6.1s2.7-6.1,6.1-6.1s6.1,2.7,6.1,6.1S231.2,497.7,227.8,497.7z
		 M227.8,468.3c-3.4,0-6.1-2.7-6.1-6.1s2.7-6.1,6.1-6.1s6.1,2.7,6.1,6.1S231.2,468.3,227.8,468.3z M227.8,438.9
		c-3.4,0-6.1-2.7-6.1-6.1s2.7-6.1,6.1-6.1s6.1,2.7,6.1,6.1S231.2,438.9,227.8,438.9z M227.8,409.5c-3.4,0-6.1-2.7-6.1-6.1
		s2.7-6.1,6.1-6.1s6.1,2.7,6.1,6.1S231.2,409.5,227.8,409.5z M227.8,380.1c-3.4,0-6.1-2.7-6.1-6.1s2.7-6.1,6.1-6.1s6.1,2.7,6.1,6.1
		S231.2,380.1,227.8,380.1z M227.8,350.7c-3.4,0-6.1-2.7-6.1-6.1s2.7-6.1,6.1-6.1s6.1,2.7,6.1,6.1S231.2,350.7,227.8,350.7z
		 M227.8,321.3c-3.4,0-6.1-2.7-6.1-6.1s2.7-6.1,6.1-6.1s6.1,2.7,6.1,6.1S231.2,321.3,227.8,321.3z M227.8,291.9
		c-3.4,0-6.1-2.7-6.1-6.1s2.7-6.1,6.1-6.1s6.1,2.7,6.1,6.1S231.2,291.9,227.8,291.9z M227.8,262.5c-3.4,0-6.1-2.7-6.1-6.1
		s2.7-6.1,6.1-6.1s6.1,2.7,6.1,6.1S231.2,262.5,227.8,262.5z M227.8,233.1c-3.4,0-6.1-2.7-6.1-6.1s2.7-6.1,6.1-6.1s6.1,2.7,6.1,6.1
		S231.2,233.1,227.8,233.1z"/>
	<path class="st1" d="M53.7,211.8c-11.3,0-20.5,9.2-20.5,20.5c0,11.3,9.2,20.5,20.5,20.5s20.5-9.2,20.5-20.5
		C74.3,221,65.1,211.8,53.7,211.8z M53.7,244.5c-6.7,0-12.1-5.4-12.1-12.1c0-6.7,5.4-12.1,12.1-12.1c6.7,0,12.1,5.4,12.1,12.1
		C65.8,239,60.4,244.5,53.7,244.5z"/>
	<path class="st1" d="M186.3,211.8c-11.3,0-20.5,9.2-20.5,20.5c0,11.3,9.2,20.5,20.5,20.5c11.3,0,20.5-9.2,20.5-20.5
		C206.8,221,197.6,211.8,186.3,211.8z M186.3,244.5c-6.7,0-12.1-5.4-12.1-12.1c0-6.7,5.4-12.1,12.1-12.1c6.7,0,12.1,5.4,12.1,12.1
		C198.4,239,193,244.5,186.3,244.5z"/>
	<path class="st1" d="M53.7,758.9c-11.3,0-20.5,9.2-20.5,20.5S42.4,800,53.7,800s20.5-9.2,20.5-20.5S65.1,758.9,53.7,758.9z
		 M53.7,791.6c-6.7,0-12.1-5.4-12.1-12.1s5.4-12.1,12.1-12.1c6.7,0,12.1,5.4,12.1,12.1S60.4,791.6,53.7,791.6z"/>
	<path class="st1" d="M188.3,758.9c-11.3,0-20.5,9.2-20.5,20.5s9.2,20.5,20.5,20.5c11.3,0,20.5-9.2,20.5-20.5
		S199.6,758.9,188.3,758.9z M188.3,791.6c-6.7,0-12.1-5.4-12.1-12.1s5.4-12.1,12.1-12.1c6.7,0,12.1,5.4,12.1,12.1
		S195,791.6,188.3,791.6z"/>
	<circle class="st2" cx="55" cy="297" r="10.6"/>
	<circle class="st3" cx="55" cy="297" r="5.5"/>
	<path class="st4" d="M17.5,276.8H0.3v3.4c2.3,0.9,3.9,3.1,3.9,5.7s-1.6,4.8-3.9,5.7v3.4h17.2c5,0,9-4,9-9v0
		C26.5,280.9,22.4,276.8,17.5,276.8z M15.9,291.9c-3.4,0-6.1-2.7-6.1-6.1s2.7-6.1,6.1-6.1s6.1,2.7,6.1,6.1S19.2,291.9,15.9,291.9z"
		/>
	<path class="st4" d="M17.5,423.8H0.3v3.4c2.3,0.9,3.9,3.1,3.9,5.7s-1.6,4.8-3.9,5.7v3.4h17.2c5,0,9-4,9-9S22.4,423.8,17.5,423.8z
		 M15.9,438.9c-3.4,0-6.1-2.7-6.1-6.1s2.7-6.1,6.1-6.1s6.1,2.7,6.1,6.1S19.2,438.9,15.9,438.9z"/>
	<path class="st4" d="M17.5,570.8H0.3v3.4c2.3,0.9,3.9,3.1,3.9,5.7s-1.6,4.8-3.9,5.7v3.4h17.2c5,0,9-4,9-9S22.4,570.8,17.5,570.8z
		 M15.9,585.9c-3.4,0-6.1-2.7-6.1-6.1s2.7-6.1,6.1-6.1s6.1,2.7,6.1,6.1S19.2,585.9,15.9,585.9z"/>
	<path class="st4" d="M17.5,600.2H0.3v3.4c2.3,0.9,3.9,3.1,3.9,5.7s-1.6,4.8-3.9,5.7v3.4h17.2c5,0,9-4,9-9S22.4,600.2,17.5,600.2z
		 M15.9,615.3c-3.4,0-6.1-2.7-6.1-6.1s2.7-6.1,6.1-6.1s6.1,2.7,6.1,6.1S19.2,615.3,15.9,615.3z"/>
	<path class="st4" d="M17.5,629.6H0.3v3.4c2.3,0.9,3.9,3.1,3.9,5.7s-1.6,4.8-3.9,5.7v3.4h17.2c5,0,9-4,9-9S22.4,629.6,17.5,629.6z
		 M15.9,644.7c-3.4,0-6.1-2.7-6.1-6.1s2.7-6.1,6.1-6.1s6.1,2.7,6.1,6.1S19.2,644.7,15.9,644.7z"/>
	<path class="st4" d="M17.5,659H0.3v3.4c2.3,0.9,3.9,3.1,3.9,5.7s-1.6,4.8-3.9,5.7v3.4h17.2c5,0,9-4,9-9S22.4,659,17.5,659z
		 M15.9,674.1c-3.4,0-6.1-2.7-6.1-6.1s2.7-6.1,6.1-6.1s6.1,2.7,6.1,6.1S19.2,674.1,15.9,674.1z"/>
	<path class="st4" d="M17.5,717.8H0.3v3.4c2.3,0.9,3.9,3.1,3.9,5.7s-1.6,4.8-3.9,5.7v3.4h17.2c5,0,9-4,9-9v0
		C26.5,721.8,22.4,717.8,17.5,717.8z M15.9,732.9c-3.4,0-6.1-2.7-6.1-6.1s2.7-6.1,6.1-6.1s6.1,2.7,6.1,6.1S19.2,732.9,15.9,732.9z"
		/>
	<path class="st4" d="M17.5,747.2H0.3v3.4c2.3,0.9,3.9,3.1,3.9,5.7s-1.6,4.8-3.9,5.7v3.4h17.2c5,0,9-4,9-9v0
		C26.5,751.2,22.4,747.2,17.5,747.2z M15.9,762.3c-3.4,0-6.1-2.7-6.1-6.1s2.7-6.1,6.1-6.1s6.1,2.7,6.1,6.1S19.2,762.3,15.9,762.3z"
		/>
	<path class="st4" d="M17.5,776.5H0.3v3.4c2.3,0.9,3.9,3.1,3.9,5.7s-1.6,4.8-3.9,5.7v3.4h17.2c5,0,9-4,9-9S22.4,776.5,17.5,776.5z
		 M15.9,791.7c-3.4,0-6.1-2.7-6.1-6.1s2.7-6.1,6.1-6.1s6.1,2.7,6.1,6.1S19.2,791.7,15.9,791.7z"/>
	<path class="st4" d="M239.5,227.1c0-2.6,1.6-4.8,3.9-5.7V218h-17.2c-5,0-9,4-9,9s4,9,9,9h17.2v-3.4
		C241.2,231.8,239.5,229.6,239.5,227.1z M227.8,233.1c-3.4,0-6.1-2.7-6.1-6.1s2.7-6.1,6.1-6.1s6.1,2.7,6.1,6.1
		S231.2,233.1,227.8,233.1z"/>
	<path class="st4" d="M239.5,256.4c0-2.6,1.6-4.8,3.9-5.7v-3.4h-17.2c-5,0-9,4-9,9v0c0,5,4,9,9,9h17.2v-3.4
		C241.2,261.2,239.5,259,239.5,256.4z M227.8,262.5c-3.4,0-6.1-2.7-6.1-6.1c0-3.4,2.7-6.1,6.1-6.1s6.1,2.7,6.1,6.1
		C233.9,259.8,231.2,262.5,227.8,262.5z"/>
	<path class="st4" d="M239.5,285.8c0-2.6,1.6-4.8,3.9-5.7v-3.4h-17.2c-5,0-9,4-9,9v0c0,5,4,9,9,9h17.2v-3.4
		C241.2,290.6,239.5,288.4,239.5,285.8z M227.8,291.9c-3.4,0-6.1-2.7-6.1-6.1s2.7-6.1,6.1-6.1s6.1,2.7,6.1,6.1
		S231.2,291.9,227.8,291.9z"/>
	<path class="st4" d="M239.5,315.2c0-2.6,1.6-4.8,3.9-5.7v-3.4h-17.2c-5,0-9,4-9,9s4,9,9,9h17.2v-3.4
		C241.2,320,239.5,317.8,239.5,315.2z M227.8,321.3c-3.4,0-6.1-2.7-6.1-6.1s2.7-6.1,6.1-6.1s6.1,2.7,6.1,6.1
		S231.2,321.3,227.8,321.3z"/>
	<path class="st4" d="M239.5,344.6c0-2.6,1.6-4.8,3.9-5.7v-3.4h-17.2c-5,0-9,4-9,9s4,9,9,9h17.2v-3.4
		C241.2,349.4,239.5,347.2,239.5,344.6z M227.8,350.7c-3.4,0-6.1-2.7-6.1-6.1s2.7-6.1,6.1-6.1s6.1,2.7,6.1,6.1
		S231.2,350.7,227.8,350.7z"/>
	<path class="st4" d="M239.5,374c0-2.6,1.6-4.8,3.9-5.7V365h-17.2c-5,0-9,4-9,9s4,9,9,9h17.2v-3.4
		C241.2,378.8,239.5,376.6,239.5,374z M227.8,380.1c-3.4,0-6.1-2.7-6.1-6.1s2.7-6.1,6.1-6.1s6.1,2.7,6.1,6.1
		S231.2,380.1,227.8,380.1z"/>
	<path class="st4" d="M239.5,432.8c0-2.6,1.6-4.8,3.9-5.7v-3.4h-17.2c-5,0-9,4-9,9s4,9,9,9h17.2v-3.4
		C241.2,437.6,239.5,435.4,239.5,432.8z M227.8,438.9c-3.4,0-6.1-2.7-6.1-6.1s2.7-6.1,6.1-6.1s6.1,2.7,6.1,6.1
		S231.2,438.9,227.8,438.9z"/>
	<path class="st4" d="M239.5,491.6c0-2.6,1.6-4.8,3.9-5.7v-3.4h-17.2c-5,0-9,4-9,9v0c0,5,4,9,9,9h17.2v-3.4
		C241.2,496.4,239.5,494.2,239.5,491.6z M227.8,497.7c-3.4,0-6.1-2.7-6.1-6.1s2.7-6.1,6.1-6.1s6.1,2.7,6.1,6.1
		S231.2,497.7,227.8,497.7z"/>
	<path class="st4" d="M239.5,521c0-2.6,1.6-4.8,3.9-5.7V512h-17.2c-5,0-9,4-9,9v0c0,5,4,9,9,9h17.2v-3.4
		C241.2,525.8,239.5,523.6,239.5,521z M227.8,527.1c-3.4,0-6.1-2.7-6.1-6.1s2.7-6.1,6.1-6.1s6.1,2.7,6.1,6.1
		S231.2,527.1,227.8,527.1z"/>
	<path class="st4" d="M239.5,550.4c0-2.6,1.6-4.8,3.9-5.7v-3.4h-17.2c-5,0-9,4-9,9s4,9,9,9h17.2v-3.4
		C241.2,555.2,239.5,553,239.5,550.4z M227.8,556.5c-3.4,0-6.1-2.7-6.1-6.1s2.7-6.1,6.1-6.1s6.1,2.7,6.1,6.1
		S231.2,556.5,227.8,556.5z"/>
	<path class="st4" d="M239.5,579.8c0-2.6,1.6-4.8,3.9-5.7v-3.4h-17.2c-5,0-9,4-9,9s4,9,9,9h17.2v-3.4
		C241.2,584.6,239.5,582.4,239.5,579.8z M227.8,585.9c-3.4,0-6.1-2.7-6.1-6.1s2.7-6.1,6.1-6.1s6.1,2.7,6.1,6.1
		S231.2,585.9,227.8,585.9z"/>
	<path class="st4" d="M239.5,609.2c0-2.6,1.6-4.8,3.9-5.7v-3.4h-17.2c-5,0-9,4-9,9s4,9,9,9h17.2v-3.4
		C241.2,614,239.5,611.8,239.5,609.2z M227.8,615.3c-3.4,0-6.1-2.7-6.1-6.1s2.7-6.1,6.1-6.1s6.1,2.7,6.1,6.1
		S231.2,615.3,227.8,615.3z"/>
	<path class="st4" d="M239.5,638.6c0-2.6,1.6-4.8,3.9-5.7v-3.4h-17.2c-5,0-9,4-9,9s4,9,9,9h17.2v-3.4
		C241.2,643.4,239.5,641.2,239.5,638.6z M227.8,644.7c-3.4,0-6.1-2.7-6.1-6.1s2.7-6.1,6.1-6.1s6.1,2.7,6.1,6.1
		S231.2,644.7,227.8,644.7z"/>
	<path class="st4" d="M239.5,668c0-2.6,1.6-4.8,3.9-5.7V659h-17.2c-5,0-9,4-9,9s4,9,9,9h17.2v-3.4
		C241.2,672.8,239.5,670.6,239.5,668z M227.8,674.1c-3.4,0-6.1-2.7-6.1-6.1s2.7-6.1,6.1-6.1s6.1,2.7,6.1,6.1
		S231.2,674.1,227.8,674.1z"/>
	<path class="st4" d="M239.5,726.8c0-2.6,1.6-4.8,3.9-5.7v-3.4h-17.2c-5,0-9,4-9,9v0c0,5,4,9,9,9h17.2v-3.4
		C241.2,731.6,239.5,729.4,239.5,726.8z M227.8,732.9c-3.4,0-6.1-2.7-6.1-6.1s2.7-6.1,6.1-6.1s6.1,2.7,6.1,6.1
		S231.2,732.9,227.8,732.9z"/>
	<path class="st4" d="M239.5,756.2c0-2.6,1.6-4.8,3.9-5.7v-3.4h-17.2c-5,0-9,4-9,9v0c0,5,4,9,9,9h17.2v-3.4
		C241.2,761,239.5,758.8,239.5,756.2z M227.8,762.3c-3.4,0-6.1-2.7-6.1-6.1s2.7-6.1,6.1-6.1s6.1,2.7,6.1,6.1
		S231.2,762.3,227.8,762.3z"/>
	<path class="st5" d="M163.1,199l4.4-4.4l-2.3-2.3l-6.6,6.6h-1.5v-4.7c0-1.2-1-2.2-2.2-2.2H85.4c-1.2,0-2.2,1-2.2,2.2v4.7h-1.5
		l-6.6-6.6l-2.3,2.3l4.4,4.4c-0.6,0.2-1,0.8-1,1.4v56.3c0,0.9,0.7,1.6,1.6,1.6h84.6c0.9,0,1.6-0.7,1.6-1.6v-56.3
		C164,199.7,163.6,199.2,163.1,199z"/>
	<g>
		<path class="st6" d="M100.3,221.2c0-3.2-2.6-5.8-5.8-5.8s-5.8,2.6-5.8,5.8c0,1.4,0.5,2.7,1.3,3.7h-0.2v7.7c0,1.2,1,2.1,2.1,2.1H97
			c1.2,0,2.1-1,2.1-2.1V225H99C99.8,223.9,100.3,222.6,100.3,221.2z"/>
		<path class="st6" d="M155.5,221.2c0-3.2-2.6-5.8-5.8-5.8s-5.8,2.6-5.8,5.8c0,1.4,0.5,2.7,1.3,3.7H145v7.7c0,1.2,1,2.1,2.1,2.1h5.1
			c1.2,0,2.1-1,2.1-2.1V225h-0.2C155,223.9,155.5,222.6,155.5,221.2z"/>
	</g>
	<path class="st7" d="M200.9,351.4h-21c-1.2,0-2.2-1-2.2-2.2v-26.7c0-1.2,1-2.2,2.2-2.2h21c1.2,0,2.2,1,2.2,2.2v26.7
		C203,350.4,202.1,351.4,200.9,351.4z"/>
	<g>
		<rect x="132" y="287.6" class="st8" width="21.7" height="14.4"/>
		<path class="st9" d="M149.3,302c-2-1.8-3.2-4.4-3.2-7.2s1.2-5.4,3.2-7.2h-12.8c2,1.8,3.2,4.4,3.2,7.2s-1.2,5.4-3.2,7.2H149.3z"/>
	</g>
	<g>
		<rect x="132.3" y="372.9" class="st8" width="21.7" height="14.4"/>
		<path class="st9" d="M149.6,387.3c-2-1.8-3.2-4.4-3.2-7.2s1.2-5.4,3.2-7.2h-12.8c2,1.8,3.2,4.4,3.2,7.2s-1.2,5.4-3.2,7.2H149.6z"
			/>
	</g>
	<g>
		<rect x="132.3" y="392.1" class="st8" width="21.7" height="14.4"/>
		<path class="st9" d="M149.6,406.5c-2-1.8-3.2-4.4-3.2-7.2s1.2-5.4,3.2-7.2h-12.8c2,1.8,3.2,4.4,3.2,7.2s-1.2,5.4-3.2,7.2H149.6z"
			/>
	</g>
	<g>
		
			<rect x="63.8" y="440.4" transform="matrix(6.123234e-17 -1 1 6.123234e-17 -379.2083 512.2444)" class="st8" width="5.4" height="10.6"/>
		
			<rect x="63.8" y="442.7" transform="matrix(6.123234e-17 -1 1 6.123234e-17 -379.2083 512.2444)" class="st9" width="5.4" height="6"/>
	</g>
	<g>
		<rect x="177.1" y="423" class="st8" width="5.4" height="10.6"/>
		<rect x="177.1" y="425.3" class="st9" width="5.4" height="6"/>
	</g>
	<rect x="179.5" y="273" class="st7" width="18.9" height="29.3"/>
	<g>
		<rect x="171.6" y="374.2" class="st8" width="20.6" height="9.6"/>
		<rect x="176.2" y="374.2" class="st10" width="11.5" height="9.6"/>
	</g>
	<rect x="120.2" y="542.3" class="st9" width="4.2" height="6.9"/>
	<rect x="126.9" y="542.3" class="st9" width="4.2" height="6.9"/>
	
		<rect x="66.6" y="452.3" transform="matrix(6.123234e-17 -1 1 6.123234e-17 -387.0049 524.4874)" class="st9" width="4.2" height="6.9"/>
	
		<rect x="89.5" y="385.2" transform="matrix(6.123234e-17 -1 1 6.123234e-17 -296.9402 480.2643)" class="st9" width="4.2" height="6.9"/>
	
		<rect x="66.3" y="495.9" transform="matrix(6.123234e-17 -1 1 6.123234e-17 -430.959 567.7289)" class="st9" width="4.2" height="6.9"/>
	<rect x="195" y="501.1" class="st7" width="4.2" height="6.9"/>
	
		<rect x="189.2" y="439.9" transform="matrix(6.123234e-17 -1 1 6.123234e-17 -251.9887 634.6403)" class="st7" width="4.2" height="6.9"/>
	
		<rect x="87.2" y="284.2" transform="matrix(6.123234e-17 -1 1 6.123234e-17 -198.3071 376.9694)" class="st7" width="4.2" height="6.9"/>
	
		<rect x="82.3" y="296.4" transform="matrix(6.123234e-17 -1 1 6.123234e-17 -215.4223 384.329)" class="st7" width="4.2" height="6.9"/>
	
		<rect x="192.8" y="388.9" transform="matrix(6.123234e-17 -1 1 6.123234e-17 -197.379 587.2931)" class="st7" width="4.2" height="6.9"/>
	<path class="st11" d="M186.3,706H57.5c-2.1,0-3.9-1.7-3.9-3.9V594c0-2.1,1.7-3.9,3.9-3.9h128.8c2.1,0,3.9,1.7,3.9,3.9v108.1
		C190.2,704.3,188.5,706,186.3,706z"/>
	<rect x="101.5" y="752.3" class="st12" width="10.5" height="5.9"/>
	<rect x="130.3" y="752.4" class="st12" width="10.5" height="5.9"/>
	<rect x="101.5" y="790.1" class="st12" width="10.5" height="5.9"/>
	<rect x="130.3" y="790.2" class="st12" width="10.5" height="5.9"/>
	<polyline class="st13" points="17.5,234.8 17.5,239.2 35.4,257.2 35.4,305.8 51,321.4 51,456.1 55.9,461.1 91.2,461.1 	"/>
	<polyline class="st13" points="22.9,261.7 31,269.8 31,307.6 46.7,323.3 46.7,458.6 52.6,464.6 91,464.6 	"/>
	<polyline class="st13" points="23.2,320.1 43,339.9 43,461.1 53.4,471.5 95,471.5 	"/>
	<polyline class="st13" points="23.2,349.6 39.8,366.1 39.8,463 51.9,475.1 95.1,475.1 	"/>
	<polyline class="st13" points="23.2,379.7 35.6,392 35.6,468 49.5,482 93.4,482 	"/>
	<polyline class="st13" points="22.9,407.8 31.6,416.6 31.6,470.7 46.4,485.5 96.1,485.5 	"/>
	<polyline class="st13" points="22.9,466.5 45.3,488.9 102.7,488.9 	"/>
	<line class="st13" x1="23.7" y1="492.4" x2="98.8" y2="492.4"/>
	<path class="st13" d="M23.2,518.8c0.1-0.6,17.3-17.3,17.3-17.3H53l4.9,4.9h45.7"/>
	<polyline class="st13" points="20.4,544.7 25.7,539.3 25.7,531.5 30.9,526.4 30.9,518 43.9,504.9 52.6,504.9 57.3,509.6 
		95.3,509.6 	"/>
	<path class="st13" d="M30.7,534.8l3.4-3.4c0,0-0.7-8.9,0-9.6c0.7-0.7,6-6,6-6l6.3-6.3h6.1l3.7,3.7h35.1"/>
	<polyline class="st13" points="29.1,590.8 29.1,543.1 38.7,533.6 93.4,533.6 95,531.9 95,522.3 	"/>
	<polyline class="st13" points="17.5,689 17.5,685.4 32.9,669.9 32.9,589.6 35.7,586.9 35.7,545.1 42,538.8 94.2,538.8 98.4,534.6 
		98.4,527.3 	"/>
	<path class="st13" d="M35.7,572.6"/>
	<path class="st13" d="M35.7,587.8"/>
	<polyline class="st13" points="23.6,749.6 30.4,742.8 30.4,678.3 37.5,672.3 	"/>
	<polyline class="st13" points="35.6,682.6 42.6,675.6 42.6,585.9 39.9,583.2 39.9,546.4 44.6,541.7 94.9,541.7 101.9,534.7 
		101.9,518.1 	"/>
	<polyline class="st13" points="108.9,524.8 108.9,533.6 95.9,546.6 91.5,546.6 	"/>
	<polyline class="st13" points="93.9,555.2 112.4,536.7 112.4,521.3 	"/>
	<polyline class="st13" points="115.9,526.7 115.9,538.3 102.2,552 102.2,572 95.9,578.3 65,578.3 55.5,568.8 	"/>
	<polyline class="st13" points="133.9,565.6 138.7,560.9 138.7,547.6 135.5,544.4 135.5,534.4 132.4,531.2 132.4,520.3 	"/>
	<polyline class="st13" points="137.3,524.4 137.3,532.2 139.3,534.2 139.3,540.6 152.7,554.1 164.9,554.1 179.1,568.3 	"/>
	<polyline class="st13" points="145.3,522.2 145.3,532.6 151.3,538.6 172.3,538.6 200.5,566.9 200.5,679.4 206.7,685.6 206.7,736.5 
		212.3,742.1 212.3,762.3 223.3,773.3 223.3,778.6 	"/>
	<polyline class="st13" points="150.7,522.7 150.7,530 154.7,534 173.6,534 205.2,565.5 205.2,677 211.4,683.2 211.4,735.8 
		215.6,740 215.6,748.8 	"/>
	<polyline class="st13" points="157.5,517.5 165.3,517.5 211.1,563.3 211.1,674.9 227.2,691.1 	"/>
	<polyline class="st13" points="157.5,513.1 166.9,513.1 192.1,538.3 	"/>
	<polyline class="st13" points="158.6,507.9 166.6,507.9 190.1,531.4 195.5,531.4 206.3,542.2 206.3,549.2 	"/>
	<polyline class="st13" points="158.2,503.5 167.3,503.5 190.4,526.6 200.9,526.6 	"/>
	<polyline class="st13" points="158.2,499.3 169.1,499.3 174.1,504.3 	"/>
	<polyline class="st13" points="158.2,494.4 175.4,494.4 202.8,521.7 206.3,521.7 215.9,531.4 215.9,543.7 	"/>
	<line class="st13" x1="158.6" y1="488.9" x2="167.7" y2="488.9"/>
	<polyline class="st13" points="156.4,483.5 171.8,483.5 179.2,490.9 	"/>
	<polyline class="st13" points="187.9,503.5 192.4,499 192.4,479.7 203.4,479.7 	"/>
	<polyline class="st13" points="158.6,475.1 209.5,475.1 218.5,484.1 	"/>
	<polyline class="st13" points="158.2,470.7 213.8,470.7 220.3,464.2 	"/>
	<polyline class="st13" points="157.5,466.5 198.8,466.5 207.1,458.2 207.1,417.9 219.6,405.5 	"/>
	<polyline class="st13" points="158.6,462.2 179.1,462.2 202.4,439 202.4,416.1 	"/>
	<polyline class="st13" points="159.7,457.5 167.2,457.5 171.8,452.9 	"/>
	<path class="st13" d="M147.8,452.2c-0.2-0.3,9.2-9.2,9.2-9.2h15.6v-33.5l2.8-2.8V399"/>
	<path class="st13" d="M147,450c0-0.2,0-6.5,0-6.5l10.3-10.3"/>
	<polyline class="st13" points="140.1,450.9 140.1,440.1 147.4,432.8 	"/>
	<line class="st13" x1="136.6" y1="447.9" x2="136.6" y2="430.3"/>
	<path class="st13" d="M133.1,449.6c0-0.6,0-15.2,0-15.2l-4.2-4.2"/>
	<path class="st13" d="M122.6,449.3c0-0.6,0-20.7,0-20.7"/>
	<path class="st13" d="M119.2,450.9c0-0.3,0-11.1,0-11.1l-7.6-7.6"/>
	<polyline class="st13" points="115.6,450.5 115.6,444.1 101.8,430.2 101.8,423.8 105,420.6 108.9,420.6 111.5,418 111.5,407.5 
		106.1,402.1 100,402.1 	"/>
	<polyline class="st13" points="99.8,407.8 105.4,407.8 108.5,410.9 108.5,416.1 105.7,418.8 101.1,418.8 97.7,422.3 97.7,431.3 
		108.7,442.3 108.7,449.1 	"/>
	<polyline class="st13" points="91.3,412.3 91.3,429.1 105.2,443 105.2,452.5 	"/>
	<polyline class="st13" points="76.5,411.5 76.5,418.7 85.9,428.1 85.9,431.9 99,445 99,454.1 	"/>
	<path class="st13" d="M94.8,448.2c0-0.1,0-5,0-5l-11.7-11.7v-1.1l-4.5-4.5h-6.4l-1.7-1.7h-6.9l-6.7-6.7v-14.4l1.6-1.6h8.8"/>
	<polyline class="st13" points="69.1,395.4 60.4,395.4 55.4,400.4 55.4,418.3 63.4,426.2 69.5,426.2 75.9,432.6 78.4,432.6 
		92.5,446.7 	"/>
	<line class="st13" x1="73.8" y1="368.8" x2="56" y2="386.5"/>
	<polyline class="st13" points="137.6,429.4 137.6,423.2 134.7,420.3 134.7,417.2 130.2,412.8 125.2,412.8 121.1,408.7 121.1,389.8 
		109.7,378.3 109.7,296.1 124,281.8 124,272.7 127.7,269 	"/>
	<path class="st13" d="M135.3,322c0-0.6,0-9,0-9l-3.1-3.1h-9.8l-4.5-4.5v-4.3"/>
	<polyline class="st13" points="129.3,354.4 129.3,359.7 126.1,362.9 120.2,362.9 118.6,364.5 	"/>
	<polyline class="st13" points="62.9,267.5 62.9,276.9 79.1,293.1 83.6,293.1 88.5,298 88.5,306.2 83.9,310.7 83.9,324.3 	"/>
	<rect x="45.6" y="260.3" class="st14" width="18.9" height="9.6"/>
	<g>
		<rect x="102.7" y="258.2" class="st15" width="4.3" height="11.5"/>
		<rect x="110.4" y="258.2" class="st15" width="4.3" height="11.5"/>
		<rect x="118.1" y="258.2" class="st15" width="4.3" height="11.5"/>
		<rect x="125.7" y="258.2" class="st15" width="4.3" height="11.5"/>
		<rect x="133.4" y="258.2" class="st15" width="4.3" height="11.5"/>
	</g>
	<g>
		<path class="st16" d="M106.8,279v-5.5h2.5v5.8c0,2,0.6,2.7,1.7,2.7c1.2,0,1.8-0.7,1.8-2.7v-5.8h2.4v5.5c0,3.5-1.4,5.1-4.2,5.1
			S106.8,282.5,106.8,279z"/>
		<path class="st16" d="M116.7,282.6l1.3-1.6c0.7,0.6,1.7,1,2.6,1c0.9,0,1.4-0.4,1.4-0.9c0-0.6-0.6-0.8-1.5-1.2l-1.3-0.6
			c-1.1-0.4-2.1-1.3-2.1-2.8c0-1.7,1.6-3.2,3.8-3.2c1.2,0,2.5,0.5,3.4,1.3l-1.3,1.6c-0.7-0.5-1.4-0.8-2.1-0.8
			c-0.8,0-1.3,0.3-1.3,0.8c0,0.6,0.7,0.8,1.6,1.2l1.3,0.5c1.3,0.5,2.1,1.4,2.1,2.8c0,1.7-1.5,3.3-4,3.3
			C119.1,284.1,117.8,283.6,116.7,282.6z"/>
		<path class="st16" d="M126.3,273.5h3.6c2.2,0,3.9,0.6,3.9,2.6c0,0.9-0.5,1.9-1.4,2.2v0.1c1.1,0.3,1.9,1.1,1.9,2.4
			c0,2.1-1.8,3.1-4.1,3.1h-3.9V273.5z M129.8,277.7c1.1,0,1.5-0.5,1.5-1.2c0-0.8-0.5-1.1-1.5-1.1h-1.1v2.2H129.8z M130,282
			c1.2,0,1.8-0.4,1.8-1.3s-0.6-1.2-1.8-1.2h-1.2v2.5H130z"/>
	</g>
	<path class="st17" d="M170.2,354.9h-45.7c-0.5,0-1-0.4-1-1v-33.5c0-0.5,0.4-1,1-1h45.7c0.5,0,1,0.4,1,1v33.5
		C171.1,354.5,170.7,354.9,170.2,354.9z"/>
	<g>
		<rect x="128.6" y="315.3" class="st15" width="1.4" height="4.1"/>
		<rect x="134.6" y="315.3" class="st15" width="1.4" height="4.1"/>
		<rect x="140.6" y="315.3" class="st15" width="1.4" height="4.1"/>
		<rect x="146.6" y="315.3" class="st15" width="1.4" height="4.1"/>
		<rect x="152.6" y="315.3" class="st15" width="1.4" height="4.1"/>
		<rect x="158.6" y="315.3" class="st15" width="1.4" height="4.1"/>
		<rect x="164.6" y="315.3" class="st15" width="1.4" height="4.1"/>
	</g>
	<g>
		<rect x="128.6" y="354.9" class="st15" width="1.4" height="4.1"/>
		<rect x="134.6" y="354.9" class="st15" width="1.4" height="4.1"/>
		<rect x="140.6" y="354.9" class="st15" width="1.4" height="4.1"/>
		<rect x="146.6" y="354.9" class="st15" width="1.4" height="4.1"/>
		<rect x="152.6" y="354.9" class="st15" width="1.4" height="4.1"/>
		<rect x="158.6" y="354.9" class="st15" width="1.4" height="4.1"/>
		<rect x="164.6" y="354.9" class="st15" width="1.4" height="4.1"/>
	</g>
	<g>
		<rect x="61.4" y="323.3" class="st18" width="39.3" height="48.9"/>
		<path class="st19" d="M81,366L81,366c-7.6,0-13.7-6.1-13.7-13.7v-9.1c0-7.6,6.1-13.7,13.7-13.7h0c7.6,0,13.7,6.1,13.7,13.7v9.1
			C94.7,359.9,88.6,366,81,366z"/>
		<path class="st19" d="M61.4,333.5L61.4,333.5l0-10.3h10.3v0C71.6,328.9,67.1,333.5,61.4,333.5z"/>
		<path class="st19" d="M71.6,372.2H61.4V362h0C67.1,362,71.6,366.5,71.6,372.2L71.6,372.2z"/>
		<path class="st19" d="M100.7,333.5L100.7,333.5c-5.7,0-10.3-4.6-10.3-10.3v0h10.3V333.5z"/>
		<path class="st19" d="M100.7,372.2H90.4l0,0c0-5.7,4.6-10.3,10.3-10.3h0V372.2z"/>
	</g>
	<g>
		<rect x="64.9" y="392.8" class="st17" width="34.6" height="22.9"/>
		<g>
			<rect x="60.7" y="393.9" class="st15" width="4.2" height="3.4"/>
			<rect x="60.7" y="399.7" class="st15" width="4.2" height="3.4"/>
			<rect x="60.7" y="405.4" class="st15" width="4.2" height="3.4"/>
			<rect x="60.7" y="411.1" class="st15" width="4.2" height="3.4"/>
		</g>
		<g>
			<rect x="99.5" y="393.9" class="st15" width="4.2" height="3.4"/>
			<rect x="99.5" y="399.7" class="st15" width="4.2" height="3.4"/>
			<rect x="99.5" y="405.4" class="st15" width="4.2" height="3.4"/>
			<rect x="99.5" y="411.1" class="st15" width="4.2" height="3.4"/>
		</g>
	</g>
	<rect x="135.5" y="424.3" class="st7" width="4.2" height="6.9"/>
	<g>
		<path class="st20" d="M160.4,528H81.4c-0.7,0-1.3-0.6-1.3-1.3v-79.1c0-0.7,0.6-1.3,1.3-1.3h79.1c0.7,0,1.3,0.6,1.3,1.3v79.1
			C161.7,527.5,161.1,528,160.4,528z"/>
		<g>
			<rect x="86.2" y="444.4" class="st15" width="3.1" height="1.9"/>
			<rect x="89.7" y="444.4" class="st15" width="3.1" height="1.9"/>
			<rect x="93.2" y="444.4" class="st15" width="3.1" height="1.9"/>
			<rect x="96.7" y="444.4" class="st15" width="3.1" height="1.9"/>
			<rect x="100.2" y="444.4" class="st15" width="3.1" height="1.9"/>
			<rect x="103.6" y="444.4" class="st15" width="3.1" height="1.9"/>
			<rect x="107.1" y="444.4" class="st15" width="3.1" height="1.9"/>
			<rect x="114.1" y="444.4" class="st15" width="3.1" height="1.9"/>
			<rect x="121.1" y="444.4" class="st15" width="3.1" height="1.9"/>
			<rect x="128" y="444.4" class="st15" width="3.1" height="1.9"/>
			<rect x="138.5" y="444.4" class="st15" width="3.1" height="1.9"/>
			<rect x="142" y="444.4" class="st15" width="3.1" height="1.9"/>
			<rect x="149" y="444.4" class="st15" width="3.1" height="1.9"/>
			<rect x="110.6" y="444.4" class="st15" width="3.1" height="1.9"/>
			<rect x="117.6" y="444.4" class="st15" width="3.1" height="1.9"/>
			<rect x="124.6" y="444.4" class="st15" width="3.1" height="1.9"/>
			<rect x="131.5" y="444.4" class="st15" width="3.1" height="1.9"/>
			<rect x="135" y="444.4" class="st15" width="3.1" height="1.9"/>
			<rect x="145.5" y="444.4" class="st15" width="3.1" height="1.9"/>
			<rect x="152.4" y="444.4" class="st15" width="3.1" height="1.9"/>
		</g>
		<g>
			<rect x="86.4" y="528" class="st15" width="3.1" height="1.9"/>
			<rect x="89.9" y="528" class="st15" width="3.1" height="1.9"/>
			<rect x="93.4" y="528" class="st15" width="3.1" height="1.9"/>
			<rect x="96.9" y="528" class="st15" width="3.1" height="1.9"/>
			<rect x="100.4" y="528" class="st15" width="3.1" height="1.9"/>
			<rect x="103.8" y="528" class="st15" width="3.1" height="1.9"/>
			<rect x="107.3" y="528" class="st15" width="3.1" height="1.9"/>
			<rect x="114.3" y="528" class="st15" width="3.1" height="1.9"/>
			<rect x="121.3" y="528" class="st15" width="3.1" height="1.9"/>
			<rect x="128.2" y="528" class="st15" width="3.1" height="1.9"/>
			<rect x="138.7" y="528" class="st15" width="3.1" height="1.9"/>
			<rect x="142.2" y="528" class="st15" width="3.1" height="1.9"/>
			<rect x="149.1" y="528" class="st15" width="3.1" height="1.9"/>
			<rect x="110.8" y="528" class="st15" width="3.1" height="1.9"/>
			<rect x="117.8" y="528" class="st15" width="3.1" height="1.9"/>
			<rect x="124.7" y="528" class="st15" width="3.1" height="1.9"/>
			<rect x="131.7" y="528" class="st15" width="3.1" height="1.9"/>
			<rect x="135.2" y="528" class="st15" width="3.1" height="1.9"/>
			<rect x="145.7" y="528" class="st15" width="3.1" height="1.9"/>
			<rect x="152.6" y="528" class="st15" width="3.1" height="1.9"/>
		</g>
		<g>
			
				<rect x="77.5" y="519.3" transform="matrix(6.123234e-17 -1 1 6.123234e-17 -441.2197 599.4)" class="st15" width="3.1" height="1.9"/>
			
				<rect x="77.5" y="515.9" transform="matrix(6.123234e-17 -1 1 6.123234e-17 -437.7346 595.9149)" class="st15" width="3.1" height="1.9"/>
			
				<rect x="77.5" y="512.4" transform="matrix(6.123234e-17 -1 1 6.123234e-17 -434.2496 592.4299)" class="st15" width="3.1" height="1.9"/>
			
				<rect x="77.5" y="508.9" transform="matrix(6.123234e-17 -1 1 6.123234e-17 -430.7645 588.9448)" class="st15" width="3.1" height="1.9"/>
			
				<rect x="77.5" y="505.4" transform="matrix(6.123234e-17 -1 1 6.123234e-17 -427.2795 585.4598)" class="st15" width="3.1" height="1.9"/>
			
				<rect x="77.5" y="501.9" transform="matrix(6.123234e-17 -1 1 6.123234e-17 -423.7944 581.9747)" class="st15" width="3.1" height="1.9"/>
			
				<rect x="77.5" y="498.4" transform="matrix(6.123234e-17 -1 1 6.123234e-17 -420.3094 578.4897)" class="st15" width="3.1" height="1.9"/>
			
				<rect x="77.5" y="491.5" transform="matrix(6.123234e-17 -1 1 6.123234e-17 -413.3393 571.5196)" class="st15" width="3.1" height="1.9"/>
			
				<rect x="77.5" y="484.5" transform="matrix(6.123234e-17 -1 1 6.123234e-17 -406.3692 564.5495)" class="st15" width="3.1" height="1.9"/>
			
				<rect x="77.5" y="477.5" transform="matrix(6.123234e-17 -1 1 6.123234e-17 -399.3991 557.5794)" class="st15" width="3.1" height="1.9"/>
			
				<rect x="77.5" y="467.1" transform="matrix(6.123234e-17 -1 1 6.123234e-17 -388.944 547.1243)" class="st15" width="3.1" height="1.9"/>
			
				<rect x="77.5" y="463.6" transform="matrix(6.123234e-17 -1 1 6.123234e-17 -385.459 543.6392)" class="st15" width="3.1" height="1.9"/>
			
				<rect x="77.5" y="456.6" transform="matrix(6.123234e-17 -1 1 6.123234e-17 -378.4889 536.6692)" class="st15" width="3.1" height="1.9"/>
			
				<rect x="77.5" y="495" transform="matrix(6.123234e-17 -1 1 6.123234e-17 -416.8244 575.0046)" class="st15" width="3.1" height="1.9"/>
			
				<rect x="77.5" y="488" transform="matrix(6.123234e-17 -1 1 6.123234e-17 -409.8543 568.0345)" class="st15" width="3.1" height="1.9"/>
			
				<rect x="77.5" y="481" transform="matrix(6.123234e-17 -1 1 6.123234e-17 -402.8842 561.0645)" class="st15" width="3.1" height="1.9"/>
			
				<rect x="77.5" y="474" transform="matrix(6.123234e-17 -1 1 6.123234e-17 -395.9141 554.0944)" class="st15" width="3.1" height="1.9"/>
			
				<rect x="77.5" y="470.6" transform="matrix(6.123234e-17 -1 1 6.123234e-17 -392.429 550.6093)" class="st15" width="3.1" height="1.9"/>
			
				<rect x="77.5" y="460.1" transform="matrix(6.123234e-17 -1 1 6.123234e-17 -381.9739 540.1542)" class="st15" width="3.1" height="1.9"/>
			
				<rect x="77.5" y="453.1" transform="matrix(6.123234e-17 -1 1 6.123234e-17 -375.0038 533.1841)" class="st15" width="3.1" height="1.9"/>
		</g>
		<g>
			
				<rect x="161.1" y="519.3" transform="matrix(6.123234e-17 -1 1 6.123234e-17 -357.6297 682.9899)" class="st15" width="3.1" height="1.9"/>
			
				<rect x="161.1" y="515.9" transform="matrix(6.123234e-17 -1 1 6.123234e-17 -354.1447 679.5048)" class="st15" width="3.1" height="1.9"/>
			
				<rect x="161.1" y="512.4" transform="matrix(6.123234e-17 -1 1 6.123234e-17 -350.6596 676.0198)" class="st15" width="3.1" height="1.9"/>
			
				<rect x="161.1" y="508.9" transform="matrix(6.123234e-17 -1 1 6.123234e-17 -347.1746 672.5347)" class="st15" width="3.1" height="1.9"/>
			
				<rect x="161.1" y="505.4" transform="matrix(6.123234e-17 -1 1 6.123234e-17 -343.6896 669.0497)" class="st15" width="3.1" height="1.9"/>
			
				<rect x="161.1" y="501.9" transform="matrix(6.123234e-17 -1 1 6.123234e-17 -340.2045 665.5646)" class="st15" width="3.1" height="1.9"/>
			
				<rect x="161.1" y="498.4" transform="matrix(6.123234e-17 -1 1 6.123234e-17 -336.7195 662.0796)" class="st15" width="3.1" height="1.9"/>
			
				<rect x="161.1" y="491.5" transform="matrix(6.123234e-17 -1 1 6.123234e-17 -329.7494 655.1095)" class="st15" width="3.1" height="1.9"/>
			
				<rect x="161.1" y="484.5" transform="matrix(6.123234e-17 -1 1 6.123234e-17 -322.7793 648.1395)" class="st15" width="3.1" height="1.9"/>
			
				<rect x="161.1" y="477.5" transform="matrix(6.123234e-17 -1 1 6.123234e-17 -315.8092 641.1694)" class="st15" width="3.1" height="1.9"/>
			
				<rect x="161.1" y="467.1" transform="matrix(6.123234e-17 -1 1 6.123234e-17 -305.3541 630.7142)" class="st15" width="3.1" height="1.9"/>
			
				<rect x="161.1" y="463.6" transform="matrix(6.123234e-17 -1 1 6.123234e-17 -301.869 627.2292)" class="st15" width="3.1" height="1.9"/>
			
				<rect x="161.1" y="456.6" transform="matrix(6.123234e-17 -1 1 6.123234e-17 -294.899 620.2591)" class="st15" width="3.1" height="1.9"/>
			
				<rect x="161.1" y="495" transform="matrix(6.123234e-17 -1 1 6.123234e-17 -333.2344 658.5945)" class="st15" width="3.1" height="1.9"/>
			
				<rect x="161.1" y="488" transform="matrix(6.123234e-17 -1 1 6.123234e-17 -326.2643 651.6245)" class="st15" width="3.1" height="1.9"/>
			
				<rect x="161.1" y="481" transform="matrix(6.123234e-17 -1 1 6.123234e-17 -319.2943 644.6544)" class="st15" width="3.1" height="1.9"/>
			
				<rect x="161.1" y="474" transform="matrix(6.123234e-17 -1 1 6.123234e-17 -312.3242 637.6843)" class="st15" width="3.1" height="1.9"/>
			
				<rect x="161.1" y="470.6" transform="matrix(6.123234e-17 -1 1 6.123234e-17 -308.8391 634.1993)" class="st15" width="3.1" height="1.9"/>
			
				<rect x="161.1" y="460.1" transform="matrix(6.123234e-17 -1 1 6.123234e-17 -298.384 623.7441)" class="st15" width="3.1" height="1.9"/>
			
				<rect x="161.1" y="453.1" transform="matrix(6.123234e-17 -1 1 6.123234e-17 -291.4139 616.774)" class="st15" width="3.1" height="1.9"/>
		</g>
		<circle class="st21" cx="90.2" cy="457.5" r="2.8"/>
	</g>
	<rect x="187.1" y="412.2" class="st17" width="18.2" height="8.6"/>
	<rect x="189.1" y="420.8" class="st15" width="2.9" height="8.7"/>
	<rect x="200.9" y="420.8" class="st15" width="2.9" height="8.7"/>
	<rect x="194.8" y="403.5" class="st15" width="2.9" height="8.7"/>
	
		<rect x="170.5" y="450.2" transform="matrix(6.123234e-17 -1 1 6.123234e-17 -281.0769 626.2715)" class="st9" width="4.2" height="6.9"/>
	<rect x="189.5" y="481.4" class="st7" width="4.2" height="6.9"/>
	
		<rect x="172.3" y="500.6" transform="matrix(0.7071 -0.7071 0.7071 0.7071 -305.2866 270.9758)" class="st9" width="4.2" height="6.9"/>
	<g>
		<path class="st4" d="M157,562.7c-5.1,0-9.2,4.1-9.2,9.2s4.1,9.2,9.2,9.2s9.2-4.1,9.2-9.2S162.1,562.7,157,562.7z M157,577.7
			c-3.1,0-5.7-2.6-5.7-5.7s2.6-5.7,5.7-5.7c3.1,0,5.7,2.6,5.7,5.7S160.2,577.7,157,577.7z"/>
		<path class="st4" d="M118.7,563.1v17.7h17.7v-17.7H118.7z M127.6,577.7c-3.1,0-5.7-2.6-5.7-5.7s2.6-5.7,5.7-5.7
			c3.1,0,5.7,2.6,5.7,5.7S130.7,577.7,127.6,577.7z"/>
		<path class="st4" d="M186.8,562.7c-5.1,0-9.2,4.1-9.2,9.2s4.1,9.2,9.2,9.2s9.2-4.1,9.2-9.2S191.9,562.7,186.8,562.7z M186.8,577.7
			c-3.1,0-5.7-2.6-5.7-5.7s2.6-5.7,5.7-5.7c3.1,0,5.7,2.6,5.7,5.7S190,577.7,186.8,577.7z"/>
	</g>
	<path class="st4" d="M17.5,541.4H0.3v3.4c2.3,0.9,3.9,3.1,3.9,5.7s-1.6,4.8-3.9,5.7v3.4h17.2c5,0,9-4,9-9S22.4,541.4,17.5,541.4z
		 M15.9,556.5c-3.4,0-6.1-2.7-6.1-6.1s2.7-6.1,6.1-6.1s6.1,2.7,6.1,6.1S19.2,556.5,15.9,556.5z"/>
	<path class="st4" d="M17.5,512H0.3v3.4c2.3,0.9,3.9,3.1,3.9,5.7s-1.6,4.8-3.9,5.7v3.4h17.2c5,0,9-4,9-9v0
		C26.5,516,22.4,512,17.5,512z M15.9,527.1c-3.4,0-6.1-2.7-6.1-6.1s2.7-6.1,6.1-6.1s6.1,2.7,6.1,6.1S19.2,527.1,15.9,527.1z"/>
	<path class="st4" d="M17.5,482.6H0.3v3.4c2.3,0.9,3.9,3.1,3.9,5.7s-1.6,4.8-3.9,5.7v3.4h17.2c5,0,9-4,9-9v0
		C26.5,486.6,22.4,482.6,17.5,482.6z M15.9,497.7c-3.4,0-6.1-2.7-6.1-6.1s2.7-6.1,6.1-6.1s6.1,2.7,6.1,6.1S19.2,497.7,15.9,497.7z"
		/>
	<path class="st4" d="M17.5,453.2H0.3v3.4c2.3,0.9,3.9,3.1,3.9,5.7s-1.6,4.8-3.9,5.7v3.4h17.2c5,0,9-4,9-9S22.4,453.2,17.5,453.2z
		 M15.9,468.3c-3.4,0-6.1-2.7-6.1-6.1s2.7-6.1,6.1-6.1s6.1,2.7,6.1,6.1S19.2,468.3,15.9,468.3z"/>
	<path class="st4" d="M17.5,394.4H0.3v3.4c2.3,0.9,3.9,3.1,3.9,5.7s-1.6,4.8-3.9,5.7v3.4h17.2c5,0,9-4,9-9S22.4,394.4,17.5,394.4z
		 M15.9,409.5c-3.4,0-6.1-2.7-6.1-6.1s2.7-6.1,6.1-6.1s6.1,2.7,6.1,6.1S19.2,409.5,15.9,409.5z"/>
	<path class="st4" d="M17.5,365H0.3v3.4c2.3,0.9,3.9,3.1,3.9,5.7s-1.6,4.8-3.9,5.7v3.4h17.2c5,0,9-4,9-9S22.4,365,17.5,365z
		 M15.9,380.1c-3.4,0-6.1-2.7-6.1-6.1s2.7-6.1,6.1-6.1s6.1,2.7,6.1,6.1S19.2,380.1,15.9,380.1z"/>
	<path class="st4" d="M17.5,335.6H0.3v3.4c2.3,0.9,3.9,3.1,3.9,5.7s-1.6,4.8-3.9,5.7v3.4h17.2c5,0,9-4,9-9S22.4,335.6,17.5,335.6z
		 M15.9,350.7c-3.4,0-6.1-2.7-6.1-6.1s2.7-6.1,6.1-6.1s6.1,2.7,6.1,6.1S19.2,350.7,15.9,350.7z"/>
	<path class="st4" d="M17.5,306.2H0.3v3.4c2.3,0.9,3.9,3.1,3.9,5.7s-1.6,4.8-3.9,5.7v3.4h17.2c5,0,9-4,9-9S22.4,306.2,17.5,306.2z
		 M15.9,321.3c-3.4,0-6.1-2.7-6.1-6.1s2.7-6.1,6.1-6.1s6.1,2.7,6.1,6.1S19.2,321.3,15.9,321.3z"/>
	<path class="st4" d="M17.5,247.4H0.3v3.4c2.3,0.9,3.9,3.1,3.9,5.7c0,2.6-1.6,4.8-3.9,5.7v3.4h17.2c5,0,9-4,9-9v0
		C26.5,251.5,22.4,247.4,17.5,247.4z M15.9,262.5c-3.4,0-6.1-2.7-6.1-6.1c0-3.4,2.7-6.1,6.1-6.1s6.1,2.7,6.1,6.1
		C21.9,259.8,19.2,262.5,15.9,262.5z"/>
	<path class="st4" d="M17.5,218H0.3v3.4c2.3,0.9,3.9,3.1,3.9,5.7s-1.6,4.8-3.9,5.7v3.4h17.2c5,0,9-4,9-9S22.4,218,17.5,218z
		 M15.9,233.1c-3.4,0-6.1-2.7-6.1-6.1s2.7-6.1,6.1-6.1s6.1,2.7,6.1,6.1S19.2,233.1,15.9,233.1z"/>
	<path class="st4" d="M17.5,688.4H0.3v3.4c2.3,0.9,3.9,3.1,3.9,5.7s-1.6,4.8-3.9,5.7v3.4h17.2c5,0,9-4,9-9S22.4,688.4,17.5,688.4z
		 M15.9,703.5c-3.4,0-6.1-2.7-6.1-6.1s2.7-6.1,6.1-6.1s6.1,2.7,6.1,6.1S19.2,703.5,15.9,703.5z"/>
	<path class="st4" d="M239.5,785.6c0-2.6,1.6-4.8,3.9-5.7v-3.4h-17.2c-5,0-9,4-9,9s4,9,9,9h17.2v-3.4
		C241.2,790.4,239.5,788.2,239.5,785.6z M227.8,791.7c-3.4,0-6.1-2.7-6.1-6.1s2.7-6.1,6.1-6.1s6.1,2.7,6.1,6.1
		S231.2,791.7,227.8,791.7z"/>
	<path class="st4" d="M239.5,697.4c0-2.6,1.6-4.8,3.9-5.7v-3.4h-17.2c-5,0-9,4-9,9s4,9,9,9h17.2v-3.4
		C241.2,702.2,239.5,700,239.5,697.4z M227.8,703.5c-3.4,0-6.1-2.7-6.1-6.1s2.7-6.1,6.1-6.1s6.1,2.7,6.1,6.1
		S231.2,703.5,227.8,703.5z"/>
	<path class="st4" d="M239.5,462.2c0-2.6,1.6-4.8,3.9-5.7v-3.4h-17.2c-5,0-9,4-9,9s4,9,9,9h17.2v-3.4
		C241.2,467,239.5,464.8,239.5,462.2z M227.8,468.3c-3.4,0-6.1-2.7-6.1-6.1s2.7-6.1,6.1-6.1s6.1,2.7,6.1,6.1
		S231.2,468.3,227.8,468.3z"/>
	
		<rect x="90" y="556.3" transform="matrix(6.123234e-17 -1 1 6.123234e-17 -464.8605 651.4437)" class="st12" width="6.7" height="3.7"/>
	<g>
		<path class="st22" d="M82.2,575.6H50.4c-1.2,0-2.2-1-2.2-2.2v-23.7c0-1.2,1-2.2,2.2-2.2h31.8c1.2,0,2.2,1,2.2,2.2v23.7
			C84.4,574.6,83.4,575.6,82.2,575.6z"/>
		<path class="st23" d="M79.9,573.2H52.6c-0.8,0-1.4-0.6-1.4-1.4v-20.4c0-0.8,0.6-1.4,1.4-1.4h27.3c0.8,0,1.4,0.6,1.4,1.4v20.4
			C81.3,572.5,80.7,573.2,79.9,573.2z"/>
	</g>
	
		<rect x="90" y="576.2" transform="matrix(6.123234e-17 -1 1 6.123234e-17 -484.7949 671.378)" class="st12" width="6.7" height="3.7"/>
	<rect x="100.1" y="560.5" class="st7" width="4.2" height="6.9"/>
	<g>
		<path class="st16" d="M42.3,380.6v-3.6c0-2.2,0.6-3.9,2.6-3.9c0.9,0,1.9,0.5,2.2,1.4h0.1c0.3-1.1,1.1-1.9,2.4-1.9
			c2.1,0,3.1,1.8,3.1,4.1v3.9H42.3z M46.4,377c0-1.1-0.5-1.5-1.2-1.5c-0.8,0-1.1,0.5-1.1,1.5v1.1h2.2V377z M50.8,376.8
			c0-1.2-0.4-1.8-1.3-1.8s-1.2,0.6-1.2,1.8v1.2h2.5V376.8z"/>
		<path class="st16" d="M47.4,371.3c-3.4,0-5.4-1.9-5.4-4.8s2-4.8,5.4-4.8c3.4,0,5.4,1.9,5.4,4.8S50.8,371.3,47.4,371.3z
			 M47.4,364.3c-2,0-3.2,0.8-3.2,2.2c0,1.4,1.2,2.2,3.2,2.2c2,0,3.3-0.9,3.3-2.2C50.7,365.2,49.4,364.3,47.4,364.3z"/>
		<path class="st16" d="M47.4,360.3c-3.4,0-5.4-1.9-5.4-4.8s2-4.8,5.4-4.8c3.4,0,5.4,1.9,5.4,4.8S50.8,360.3,47.4,360.3z
			 M47.4,353.4c-2,0-3.2,0.8-3.2,2.2c0,1.4,1.2,2.2,3.2,2.2c2,0,3.3-0.9,3.3-2.2C50.7,354.2,49.4,353.4,47.4,353.4z"/>
		<path class="st16" d="M44.3,347.3v2.8h-2.1V342h2.1v2.8h8.3v2.5H44.3z"/>
		<path class="st16" d="M51.4,341.4l-1.6-1.3c0.6-0.7,1-1.7,1-2.6c0-0.9-0.4-1.4-0.9-1.4c-0.6,0-0.8,0.6-1.2,1.5l-0.6,1.3
			c-0.4,1.1-1.3,2.1-2.8,2.1c-1.7,0-3.2-1.6-3.2-3.8c0-1.2,0.5-2.5,1.3-3.4l1.6,1.3c-0.5,0.7-0.8,1.4-0.8,2.1c0,0.8,0.3,1.3,0.8,1.3
			c0.6,0,0.8-0.7,1.2-1.6l0.5-1.3c0.5-1.3,1.4-2.1,2.8-2.1c1.7,0,3.3,1.5,3.3,4C52.9,339,52.4,340.3,51.4,341.4z"/>
		<path class="st16" d="M42.3,331.9v-6.6h2.1v4.1h2v-3.5h2.1v3.5h2.2v-4.3h2.1v6.8H42.3z"/>
		<path class="st16" d="M42.3,323.1v-2.5h8.3v-4h2.1v6.5H42.3z"/>
	</g>
	<g>
		<path class="st16" d="M141.4,537.8h3c3.2,0,5.3,1.6,5.3,5.2c0,3.6-2.1,5.2-5.1,5.2h-3.1V537.8z M144.3,546.2
			c1.7,0,2.9-0.8,2.9-3.2c0-2.5-1.2-3.2-2.9-3.2h-0.4v6.4H144.3z"/>
		<path class="st16" d="M151.6,537.8h6.6v2.1h-4.1v2h3.5v2.1h-3.5v2.2h4.3v2.1h-6.8V537.8z"/>
		<path class="st16" d="M160.4,537.8h3.6c2.2,0,3.9,0.6,3.9,2.6c0,0.9-0.5,1.9-1.4,2.2v0.1c1.1,0.3,1.9,1.1,1.9,2.4
			c0,2.1-1.8,3.1-4.1,3.1h-3.9V537.8z M164,541.9c1.1,0,1.5-0.5,1.5-1.2c0-0.8-0.5-1.1-1.5-1.1h-1.1v2.2H164z M164.2,546.3
			c1.2,0,1.8-0.4,1.8-1.3c0-0.9-0.6-1.2-1.8-1.2h-1.2v2.5H164.2z"/>
		<path class="st16" d="M170.1,543.3v-5.5h2.5v5.8c0,2,0.6,2.7,1.7,2.7c1.2,0,1.8-0.7,1.8-2.7v-5.8h2.4v5.5c0,3.5-1.4,5.1-4.2,5.1
			S170.1,546.8,170.1,543.3z"/>
		<path class="st16" d="M180.3,543c0-3.5,2.3-5.5,5.1-5.5c1.5,0,2.6,0.6,3.3,1.4l-1.3,1.5c-0.5-0.5-1.1-0.7-1.9-0.7
			c-1.5,0-2.7,1.2-2.7,3.2c0,2.1,0.9,3.3,2.9,3.3c0.4,0,0.8-0.1,1-0.3v-1.7h-1.7v-2h3.9v4.9c-0.7,0.7-2,1.3-3.5,1.3
			C182.6,548.4,180.3,546.6,180.3,543z"/>
	</g>
	<rect x="114.2" y="559.1" class="st24" width="86.4" height="25.6"/>
	<g>
		<path class="st16" d="M40.1,273.5h2.5v8.3h4v2.1h-6.5V273.5z"/>
		<path class="st16" d="M48.4,273.5H55v2.1h-4.1v2h3.5v2.1h-3.5v2.2h4.3v2.1h-6.8V273.5z"/>
		<path class="st16" d="M57.2,273.5h3c3.2,0,5.3,1.6,5.3,5.2c0,3.6-2.1,5.2-5.1,5.2h-3.1V273.5z M60.1,281.9c1.7,0,2.9-0.8,2.9-3.2
			c0-2.5-1.2-3.2-2.9-3.2h-0.4v6.4H60.1z"/>
	</g>
	<g>
		<rect x="143.7" y="423" class="st8" width="5.4" height="10.6"/>
		<rect x="143.7" y="425.3" class="st9" width="5.4" height="6"/>
	</g>
	<g>
		<rect x="154.3" y="423" class="st8" width="5.4" height="10.6"/>
		<rect x="154.3" y="425.3" class="st9" width="5.4" height="6"/>
	</g>
	<rect x="127.1" y="424.3" class="st7" width="4.2" height="6.9"/>
	
		<rect x="68.6" y="429.4" transform="matrix(6.123234e-17 -1 1 6.123234e-17 -362.0853 503.5569)" class="st7" width="4.2" height="6.9"/>
	<rect x="120.5" y="424.3" class="st9" width="4.2" height="6.9"/>
	<rect x="110.4" y="424.3" class="st9" width="4.2" height="6.9"/>
	<path class="st4" d="M239.5,403.4c0-2.6,1.6-4.8,3.9-5.7v-3.4h-17.2c-5,0-9,4-9,9s4,9,9,9h17.2v-3.4
		C241.2,408.2,239.5,406,239.5,403.4z M227.8,409.5c-3.4,0-6.1-2.7-6.1-6.1s2.7-6.1,6.1-6.1s6.1,2.7,6.1,6.1
		S231.2,409.5,227.8,409.5z"/>
	<g>
		
			<rect x="169.4" y="395.5" transform="matrix(-1.836970e-16 1 -1 -1.836970e-16 573.673 222.9099)" class="st8" width="11.9" height="5.6"/>
		
			<rect x="172.1" y="395.5" transform="matrix(-1.836970e-16 1 -1 -1.836970e-16 573.673 222.9099)" class="st10" width="6.6" height="5.6"/>
	</g>
</g>
<sodipodi:namedview  bordercolor="#666666" borderopacity="1" gridtolerance="10" guidetolerance="10" id="namedview73" inkscape:current-layer="Ebene_1" inkscape:cx="294.37379" inkscape:cy="368.98422" inkscape:pageopacity="0" inkscape:pageshadow="2" inkscape:window-height="1017" inkscape:window-maximized="1" inkscape:window-width="1920" inkscape:window-x="-8" inkscape:window-y="-8" inkscape:zoom="1.1750578" objecttolerance="10" pagecolor="#ffffff" showgrid="false">
	</sodipodi:namedview>
<g id="layer1">
	<rect id="rect815" x="283.7" class="st25" width="177.9" height="239.1"/>
	<rect id="rect821" x="325.8" y="200.2" class="st16" width="92.6" height="31.9"/>
	<path id="rect825" class="st26" d="M331.8,202h18.6c3.2,0,5.9,2.6,5.9,5.9v16.3c0,3.2-2.6,5.9-5.9,5.9h-18.6
		c-3.2,0-5.9-2.6-5.9-5.9v-16.3C326,204.6,328.6,202,331.8,202z"/>
	<rect id="rect831" x="308.7" y="133.7" class="st16" width="126.7" height="31.9"/>
	<rect id="rect833" x="308.7" y="100.4" class="st16" width="126.7" height="31.9"/>
	<rect id="rect837" x="308.7" y="67.1" class="st16" width="126.7" height="31.9"/>
	<path id="rect872" class="st26" d="M393.7,202h18.6c3.2,0,5.9,2.6,5.9,5.9v16.3c0,3.2-2.6,5.9-5.9,5.9h-18.6
		c-3.2,0-5.9-2.6-5.9-5.9v-16.3C387.8,204.6,390.4,202,393.7,202z"/>
	<path id="rect874" class="st26" d="M362,202h20.1c2.8,0,5.1,2.3,5.1,5.1v17.8c0,2.8-2.3,5.1-5.1,5.1H362c-2.8,0-5.1-2.3-5.1-5.1
		v-17.8C356.9,204.3,359.2,202,362,202z"/>
	<rect id="rect892" x="310.5" y="134.6" class="st27" width="124" height="29.4"/>
	<path id="rect836" class="st28" d="M325.2,134.6h7.6c8.1,0,14.7,6.6,14.7,14.7l0,0l0,0c0,8.1-6.6,14.7-14.7,14.7l0,0h-7.6
		c-8.1,0-14.7-6.6-14.7-14.7l0,0l0,0C310.5,141.2,317,134.6,325.2,134.6z"/>
	<rect id="rect850" x="349.9" y="134.6" class="st28" width="37" height="29.4"/>
	<rect id="rect848" x="392.7" y="135.7" class="st28" width="40.8" height="27.2"/>
	<rect id="rect892-7" x="310.1" y="101.5" class="st27" width="124" height="29.4"/>
	<rect id="rect892-72" x="310" y="68.5" class="st27" width="124" height="29.4"/>
	<path id="rect836-7" class="st28" d="M325,101.6h7.6c8.1,0,14.7,6.6,14.7,14.7l0,0l0,0c0,8.1-6.6,14.7-14.7,14.7c0,0,0,0,0,0H325
		c-8.1,0-14.7-6.6-14.7-14.7l0,0l0,0C310.3,108.2,316.9,101.6,325,101.6z"/>
	<path id="rect836-6" class="st28" d="M364.4,101.6h7.6c8.1,0,14.7,6.6,14.7,14.7l0,0l0,0c0,8.1-6.6,14.7-14.7,14.7l0,0h-7.6
		c-8.1,0-14.7-6.6-14.7-14.7l0,0l0,0C349.7,108.2,356.3,101.6,364.4,101.6L364.4,101.6z"/>
	<path id="rect939" class="st28" d="M364.4,68.2h7.6c8.1,0,14.7,6.6,14.7,14.7c0,0,0,0,0,0l0,0c0,8.1-6.6,14.7-14.7,14.7l0,0h-7.6
		c-8.1,0-14.7-6.6-14.7-14.7c0,0,0,0,0,0l0,0C349.7,74.8,356.3,68.2,364.4,68.2L364.4,68.2z"/>
	<path id="rect941" class="st28" d="M324.5,68.2h7.6c8.1,0,14.7,6.6,14.7,14.7c0,0,0,0,0,0l0,0c0,8.1-6.6,14.7-14.7,14.7l0,0h-7.6
		c-8.1,0-14.7-6.6-14.7-14.7l0,0C309.8,74.8,316.4,68.2,324.5,68.2z"/>
	<rect id="rect943" x="392.7" y="102.9" class="st28" width="40.8" height="27.2"/>
	<rect id="rect945" x="392.7" y="69.5" class="st28" width="40.8" height="27.2"/>
	<rect id="rect947" x="339.4" y="217.2" class="st29" width="3.4" height="58.4"/>
	<rect id="rect949" x="370.5" y="217.2" class="st29" width="3.4" height="58.4"/>
	<rect id="rect951" x="401.2" y="217.2" class="st29" width="3.4" height="58.4"/>
	<ellipse id="path1456" class="st30" cx="308.6" cy="50.7" rx="16.2" ry="15.9"/>
	<ellipse id="ellipse1458" class="st30" cx="435" cy="50.7" rx="16.2" ry="15.9"/>
	<ellipse id="path1460" class="st31" cx="308.6" cy="50.6" rx="14.6" ry="14.3"/>
	<ellipse id="ellipse1464" class="st31" cx="435" cy="50.6" rx="14.6" ry="14.3"/>
	<circle id="circle1502" class="st31" cx="328.5" cy="116.3" r="13.8"/>
	<circle id="circle1504" class="st31" cx="328.7" cy="149.4" r="13.8"/>
	<circle id="circle1508" class="st31" cx="368" cy="116.1" r="13.8"/>
	<circle id="circle1510" class="st31" cx="368" cy="149.4" r="13.8"/>
	<circle id="circle1514" class="st31" cx="413.4" cy="149.4" r="13.8"/>
	<circle id="circle1516" class="st31" cx="413.4" cy="116.3" r="13.8"/>
	<rect id="rect74" x="366.6" y="80.8" class="st29" width="3.4" height="8.9"/>
	
		<rect id="rect82" x="366.7" y="96.4" transform="matrix(0.7667 -0.642 0.642 0.7667 29.3909 277.0268)" class="st29" width="58.4" height="3.4"/>
	
		<rect id="rect84" x="347.3" y="68.9" transform="matrix(0.642 -0.7667 0.7667 0.642 49.7413 302.6698)" class="st29" width="3.4" height="58.4"/>
	<path id="rect1512" class="st32" d="M323.2,89.3v24.5h0c0.2,17.1,9.7,32.7,24.7,40.8c15.4,8.5,34,8.5,49.4,0
		c15-8.1,24.5-23.7,24.7-40.8h0V89.3H323.2z"/>
	<path id="path31" class="st16" d="M334.3,18.8c1.1,0,1.2,0,1.4-0.2c0.1-0.1,0.3-0.2,0.4-0.3c0.1-0.2,0.1-0.3,0.1-2.6l0-2.4l2.4,0
		l2.4,0v3c0,3.3,0,3.6-0.4,4.4c-0.4,1.1-1.3,1.8-2.5,2c-0.7,0.1-1.4,0.1-2.1,0.1c-0.9,0-2,0-2.3-0.1l-0.6-0.1l0-1.9l0-1.9
		L334.3,18.8L334.3,18.8z M356.7,25.5c20.1,0,25,0,24.2,0.1l-0.1,0l0.1,0.1c0.1,0,0.1,0.1-0.1,0.1c-0.1,0-0.1,0,0.2,0.1l0.4,0
		l-0.4,0c-0.2,0-0.4,0-0.3,0c0.1,0,0.1,0.1,0.1,0.6c0,0.5,0,0.5,0.2,0.6c0.1,0,0.1,0-0.1,0c-0.1,0-0.3,0-0.3,0.1c0,0-8,0.1-23.7,0.1
		h-23.7v-1.7L356.7,25.5z M338.6,7.2h2.4v3.9h-4.7V7.2H338.6z M343.4,14.3c0.1-1,0.5-2,0.9-2.9c0.1-0.2,0.2-0.4,0.3-0.6
		c0.1-0.1,0.2-0.2,0.3-0.4c0.3-0.4,0.6-0.8,0.9-1.2c0,0,0.1-0.1,0.1-0.1c0.3-0.4,0.7-0.7,1.1-1c0.5-0.4,1.1-0.7,1.8-0.9
		c0.9-0.4,1.9-0.5,2.8-0.4c0.6,0,1.1,0.1,1.7,0.2c0.4,0.1,0.8,0.2,0.9,0.3c0.1,0.1,0.2,0.1,0.4,0.1c0.2,0.1,0.4,0.2,0.6,0.3
		c1.4,0.9,2.5,2.2,3.3,3.7c0.9,1.9,1,4,0.3,6c-0.2,0.6-0.5,1.2-0.9,1.8c-0.4,0.6-0.8,1.2-1.4,1.6c-0.9,1-2.1,1.7-3.4,2
		c-1,0.2-2,0.3-3,0.2c-1.2-0.2-2.3-0.7-3.2-1.4c-0.4-0.3-0.7-0.6-1-0.9c-0.1-0.1-0.2-0.3-0.3-0.4c-1-1.1-1.7-2.5-2-4
		C343.4,15.9,343.3,15.1,343.4,14.3L343.4,14.3z M347.9,16.3c0.2,0.9,0.7,1.7,1.4,2.3c0.8,0.7,1.8,0.9,2.8,0.6
		c1.2-0.5,2.2-1.6,2.5-2.9c0.2-0.9,0.2-1.8,0-2.7c-0.3-1-0.8-1.8-1.7-2.5c-0.3-0.2-0.6-0.3-0.9-0.4c-0.7-0.2-1.5-0.1-2.2,0.2
		c-0.7,0.4-1.2,1-1.5,1.7C347.7,13.9,347.6,15.1,347.9,16.3L347.9,16.3z M361.2,7.2c0,0,1.1,0,2.4,0l2.3,0l0,2.1c0,2,0,2.1,0.1,2.5
		c0.4,0.9,1.4,1.4,2.4,1.1c0.5-0.1,0.8-0.5,1.1-0.9l0.2-0.4l0-2.2l0-2.2h4.7l0,2.5c0.1,1,0,2-0.2,3c-0.2,0.9-0.7,1.7-1.2,2.4
		c-0.1,0.1-0.2,0.2-0.2,0.4c-0.3,0.4-0.7,0.7-1.1,1c-0.4,0.3-0.9,0.6-1.4,0.7c-0.1,0-0.4,0.1-0.7,0.2c-0.5,0.2-1.1,0.2-1.7,0.2
		c-0.6,0.1-1.2,0-1.8-0.2c-0.7-0.1-1.3-0.4-1.9-0.8c-0.7-0.5-1.3-1.1-1.8-1.8c-0.6-0.9-1-1.9-1.1-3C361.1,10.3,361.1,8.8,361.2,7.2
		L361.2,7.2z M367.8,18.9h3.9v4h-7.7v-4H367.8z M374.4,4.2c0,0,0.1-0.1,0.1-0.2c0-0.2,0-0.2,0.3-0.3c0.2,0,6.7,0,14.6,0l14.3,0
		l0,0.9l0,0.9h-14.5c-8,0-14.6,0-14.6,0c-0.1,0-0.1-0.1-0.1-0.6C374.4,4.4,374.4,4.2,374.4,4.2L374.4,4.2z M381,13.7h4.9v3.9H376
		v-3.9H381z M389.8,7.2h2.4v3.9h-4.7V7.2H389.8z M389.8,13.1h2.4v10h-4.7v-10L389.8,13.1z M399.3,7.2h5v3.9h-9.9V7.2H399.3z
		 M395.1,13.4c0,0,1.1,0,2.3,0l2.3,0l0,2.3c0,3.2-0.1,3,2.3,3.1l1.5,0v4l-0.6,0.1c-1.4,0.1-2.9,0.1-4.3,0c-1-0.1-1.9-0.5-2.6-1.2
		c-0.6-0.7-0.9-1.6-1-2.5C395,18.4,395,13.4,395.1,13.4L395.1,13.4z M407,5.3c0.1-0.4,0.3-0.8,0.6-1.1c0.9-0.9,2.4-1,3.4-0.3
		c0.4,0.2,0.7,0.6,0.8,1c0.2,0.3,0.2,0.7,0.2,1c0,0.4,0,0.7-0.2,1.1c-0.4,0.8-1.2,1.4-2.2,1.4c-0.8,0.1-1.6-0.2-2.1-0.8
		C407,7.1,406.8,6.2,407,5.3L407,5.3z M407.5,7c0.3,0.6,0.9,1,1.6,1.2c0.7,0.2,1.5,0,2-0.5c0.2-0.2,0.4-0.4,0.5-0.6
		c0.2-0.3,0.2-0.6,0.2-1c0-0.3,0-0.7-0.2-1c-0.1-0.3-0.3-0.5-0.6-0.7c-0.2-0.2-0.5-0.3-0.7-0.4c-1.1-0.3-2.3,0.2-2.8,1.3
		C407.2,5.8,407.3,6.4,407.5,7z M409.2,4.5c0.3,0,0.7,0,1,0.1c0.4,0.3,0.5,0.8,0.3,1.2c-0.1,0.1-0.2,0.2-0.3,0.2L410,6.1l0.2,0.2
		c0.2,0.2,0.3,0.4,0.4,0.6c0.1,0.1,0.2,0.3,0.3,0.4c0.1,0.1,0,0.2-0.2,0.2l-0.3,0L410,6.9c-0.4-0.6-0.5-0.7-1-0.7h-0.3v1.3l-0.2,0
		l-0.2,0l0-1.5l0-1.5L409.2,4.5z M409.3,5.8c0.5,0,0.6,0,0.7-0.1c0.4-0.3,0.2-0.7-0.4-0.8c-0.3,0-0.6,0-0.9,0c0,0.1,0,0.3,0,0.4v0.4
		L409.3,5.8z"/>
	<g id="text91">
		<g class="st33">
			<path class="st16" d="M458.4,119.1c0.1,0,0.1,0,0.2,0c0,0,0.1,0.1,0.1,0.2c0,0.1,0.1,0.2,0.1,0.3c0,0.1,0,0.3,0,0.5
				c0,0.3,0,0.5,0,0.6c0,0.2-0.1,0.3-0.1,0.4s-0.1,0.2-0.2,0.2l-7.4,5.4h7.4c0.1,0,0.1,0,0.2,0c0,0,0.1,0.1,0.1,0.2s0,0.2,0.1,0.3
				c0,0.1,0,0.3,0,0.5c0,0.2,0,0.3,0,0.5c0,0.1,0,0.2-0.1,0.3c0,0.1-0.1,0.1-0.1,0.2c0,0-0.1,0-0.2,0h-14.1c-0.1,0-0.1,0-0.2,0
				c0,0-0.1-0.1-0.1-0.2c0-0.1,0-0.2-0.1-0.3c0-0.1,0-0.3,0-0.5c0-0.2,0-0.3,0-0.5c0-0.1,0-0.2,0.1-0.3s0.1-0.1,0.1-0.2
				c0,0,0.1,0,0.2,0h6.5l-6.5-5.2c-0.1,0-0.1-0.1-0.2-0.2c0-0.1-0.1-0.1-0.1-0.2c0-0.1,0-0.2-0.1-0.3c0-0.1,0-0.3,0-0.5s0-0.4,0-0.5
				c0-0.1,0-0.2,0.1-0.3c0-0.1,0.1-0.1,0.1-0.1c0,0,0.1,0,0.1,0c0.1,0,0.2,0,0.3,0.1s0.2,0.1,0.4,0.3l5.8,4.9l7-5.3
				c0.2-0.1,0.3-0.2,0.4-0.2C458.3,119.1,458.3,119.1,458.4,119.1z"/>
		</g>
		<g class="st33">
			<path class="st16" d="M453,111.9h5.4c0.1,0,0.1,0,0.2,0c0,0,0.1,0.1,0.1,0.2s0,0.2,0.1,0.3c0,0.1,0,0.3,0,0.5c0,0.2,0,0.3,0,0.5
				c0,0.1,0,0.2-0.1,0.3s-0.1,0.1-0.1,0.2c0,0-0.1,0-0.2,0H453l-8.3,4.2c-0.2,0.1-0.3,0.1-0.4,0.2s-0.2,0-0.2-0.1
				c-0.1-0.1-0.1-0.2-0.1-0.3c0-0.1,0-0.3,0-0.6c0-0.2,0-0.4,0-0.6c0-0.1,0-0.3,0.1-0.3c0-0.1,0.1-0.1,0.1-0.2c0,0,0.1-0.1,0.2-0.1
				l4.2-2c0.4-0.2,0.8-0.4,1.3-0.6c0.4-0.2,0.9-0.4,1.3-0.6v0c-0.4-0.2-0.9-0.4-1.3-0.5c-0.4-0.2-0.9-0.4-1.3-0.6l-4.3-2
				c-0.1,0-0.1-0.1-0.2-0.1c-0.1,0-0.1-0.1-0.1-0.2c0-0.1,0-0.2-0.1-0.3c0-0.1,0-0.3,0-0.5c0-0.3,0-0.5,0-0.6c0-0.2,0.1-0.3,0.1-0.3
				c0.1-0.1,0.1-0.1,0.2-0.1c0.1,0,0.2,0.1,0.4,0.2L453,111.9z"/>
		</g>
		<g class="st33">
			<path class="st16" d="M453,102.2c0.3,0,0.5,0,0.6,0.1c0.1,0.1,0.2,0.2,0.2,0.3v4.8c0,0.1-0.1,0.2-0.2,0.3
				c-0.1,0.1-0.3,0.1-0.6,0.1s-0.5,0-0.6-0.1c-0.1-0.1-0.2-0.2-0.2-0.3v-4.8c0-0.1,0-0.1,0-0.2s0.1-0.1,0.1-0.1s0.1-0.1,0.2-0.1
				C452.7,102.2,452.8,102.2,453,102.2z"/>
			<path class="st16" d="M451.3,90.4c1.1,0,2.2,0.1,3.1,0.3c0.9,0.2,1.7,0.5,2.4,0.9c0.7,0.4,1.2,1,1.6,1.6c0.4,0.7,0.6,1.5,0.6,2.5
				c0,0.9-0.2,1.7-0.5,2.3c-0.3,0.6-0.8,1.1-1.5,1.5c-0.6,0.4-1.4,0.7-2.4,0.8c-0.9,0.2-2,0.2-3.2,0.2c-1.1,0-2.2-0.1-3.1-0.3
				c-0.9-0.2-1.7-0.5-2.4-0.9c-0.7-0.4-1.2-0.9-1.6-1.6c-0.4-0.7-0.6-1.5-0.6-2.5c0-0.9,0.2-1.7,0.5-2.3c0.3-0.6,0.8-1.1,1.5-1.5
				c0.6-0.4,1.4-0.7,2.4-0.8S450.1,90.4,451.3,90.4z M451.4,92.4c-0.7,0-1.4,0-2,0.1c-0.6,0.1-1.1,0.1-1.5,0.2
				c-0.4,0.1-0.8,0.2-1.2,0.4s-0.6,0.4-0.8,0.6s-0.4,0.5-0.5,0.8s-0.1,0.6-0.1,1c0,0.6,0.2,1.2,0.5,1.6c0.3,0.4,0.7,0.7,1.3,1
				c0.5,0.2,1.2,0.4,1.9,0.5s1.5,0.1,2.3,0.1c1.1,0,2-0.1,2.8-0.2s1.4-0.3,1.9-0.5s0.8-0.6,1.1-0.9c0.2-0.4,0.3-0.8,0.3-1.4
				c0-0.4-0.1-0.8-0.2-1.1c-0.1-0.3-0.3-0.6-0.6-0.8c-0.3-0.2-0.6-0.4-0.9-0.6c-0.4-0.2-0.8-0.3-1.2-0.4c-0.4-0.1-0.9-0.2-1.4-0.2
				C452.5,92.4,452,92.4,451.4,92.4z"/>
			<path class="st16" d="M451.3,78.6c1.1,0,2.2,0.1,3.1,0.3c0.9,0.2,1.7,0.5,2.4,0.9c0.7,0.4,1.2,1,1.6,1.6c0.4,0.7,0.6,1.5,0.6,2.5
				c0,0.9-0.2,1.7-0.5,2.3c-0.3,0.6-0.8,1.1-1.5,1.5c-0.6,0.4-1.4,0.7-2.4,0.8c-0.9,0.2-2,0.2-3.2,0.2c-1.1,0-2.2-0.1-3.1-0.3
				c-0.9-0.2-1.7-0.5-2.4-0.9c-0.7-0.4-1.2-0.9-1.6-1.6c-0.4-0.7-0.6-1.5-0.6-2.5c0-0.9,0.2-1.7,0.5-2.3c0.3-0.6,0.8-1.1,1.5-1.5
				c0.6-0.4,1.4-0.7,2.4-0.8S450.1,78.6,451.3,78.6z M451.4,80.6c-0.7,0-1.4,0-2,0.1c-0.6,0.1-1.1,0.1-1.5,0.2
				c-0.4,0.1-0.8,0.2-1.2,0.4s-0.6,0.4-0.8,0.6s-0.4,0.5-0.5,0.8s-0.1,0.6-0.1,1c0,0.6,0.2,1.2,0.5,1.6c0.3,0.4,0.7,0.7,1.3,1
				c0.5,0.2,1.2,0.4,1.9,0.5s1.5,0.1,2.3,0.1c1.1,0,2-0.1,2.8-0.2s1.4-0.3,1.9-0.5s0.8-0.6,1.1-0.9c0.2-0.4,0.3-0.8,0.3-1.4
				c0-0.4-0.1-0.8-0.2-1.1c-0.1-0.3-0.3-0.6-0.6-0.8c-0.3-0.2-0.6-0.4-0.9-0.6c-0.4-0.2-0.8-0.3-1.2-0.4c-0.4-0.1-0.9-0.2-1.4-0.2
				C452.5,80.6,452,80.6,451.4,80.6z"/>
			<path class="st16" d="M457.9,67.2c0.1,0,0.3,0,0.4,0c0.1,0,0.2,0.1,0.2,0.1c0.1,0,0.1,0.1,0.1,0.1c0,0,0,0.1,0,0.2v7.7
				c0,0.1,0,0.1,0,0.1c0,0-0.1,0.1-0.1,0.1c-0.1,0-0.1,0.1-0.2,0.1c-0.1,0-0.2,0-0.4,0c-0.1,0-0.3,0-0.4,0c-0.1,0-0.2-0.1-0.2-0.1
				s-0.1-0.1-0.1-0.1s-0.1-0.1-0.1-0.2v-3.1h-11.2l1.7,2.8c0.1,0.1,0.1,0.3,0.1,0.3c0,0.1,0,0.2-0.1,0.2c0,0.1-0.1,0.1-0.2,0.1
				c-0.1,0-0.3,0-0.4,0c-0.1,0-0.2,0-0.3,0s-0.2,0-0.2-0.1c-0.1,0-0.1-0.1-0.2-0.1c0,0-0.1-0.1-0.1-0.2l-2.2-3.4c0,0,0-0.1-0.1-0.1
				c0,0,0-0.1,0-0.2c0-0.1,0-0.1,0-0.2c0-0.1,0-0.2,0-0.3c0-0.2,0-0.3,0-0.5c0-0.1,0-0.2,0.1-0.3c0-0.1,0.1-0.1,0.1-0.1
				c0,0,0.1,0,0.1,0h12.9v-2.7c0-0.1,0-0.1,0.1-0.2s0.1-0.1,0.1-0.1s0.1-0.1,0.2-0.1S457.8,67.2,457.9,67.2z"/>
		</g>
	</g>
	<g id="text95">
		<g class="st33">
			<path class="st16" d="M440.1,219.5c0,0.8-0.1,1.5-0.4,2.2s-0.7,1.2-1.2,1.6s-1.2,0.8-1.9,1c-0.7,0.2-1.5,0.3-2.3,0.3
				c-0.6,0-1.1,0-1.6-0.1c-0.5-0.1-0.9-0.2-1.3-0.4c-0.4-0.1-0.7-0.3-1-0.4c-0.3-0.2-0.4-0.3-0.5-0.4c-0.1-0.1-0.2-0.2-0.2-0.4
				c0-0.2-0.1-0.4-0.1-0.7c0-0.2,0-0.4,0-0.5s0-0.2,0.1-0.3s0.1-0.1,0.1-0.2c0.1,0,0.1,0,0.2,0c0.1,0,0.3,0.1,0.5,0.2
				c0.2,0.2,0.5,0.3,0.9,0.5c0.4,0.2,0.8,0.3,1.3,0.5s1.1,0.2,1.7,0.2c0.5,0,1-0.1,1.4-0.2c0.4-0.1,0.8-0.3,1.1-0.6
				c0.3-0.2,0.5-0.5,0.7-0.9c0.2-0.4,0.2-0.8,0.2-1.2c0-0.5-0.1-0.9-0.3-1.3c-0.2-0.3-0.5-0.7-0.9-0.9c-0.4-0.3-0.8-0.5-1.2-0.7
				c-0.5-0.2-0.9-0.4-1.4-0.7c-0.5-0.2-1-0.5-1.4-0.8c-0.5-0.3-0.9-0.6-1.2-1c-0.4-0.4-0.7-0.8-0.9-1.3c-0.2-0.5-0.3-1.1-0.3-1.8
				c0-0.7,0.1-1.4,0.4-1.9s0.6-1,1.1-1.4c0.5-0.4,1-0.7,1.7-0.9c0.6-0.2,1.3-0.3,2.1-0.3c0.4,0,0.8,0,1.2,0.1
				c0.4,0.1,0.8,0.2,1.1,0.3c0.3,0.1,0.6,0.2,0.9,0.4s0.4,0.2,0.5,0.3c0.1,0.1,0.1,0.2,0.2,0.2c0,0,0,0.1,0.1,0.2c0,0.1,0,0.2,0,0.3
				c0,0.1,0,0.2,0,0.4c0,0.2,0,0.3,0,0.4c0,0.1,0,0.2-0.1,0.3c0,0.1-0.1,0.1-0.1,0.2s-0.1,0.1-0.2,0.1c-0.1,0-0.3-0.1-0.5-0.2
				s-0.5-0.3-0.8-0.4c-0.3-0.2-0.7-0.3-1.1-0.4c-0.4-0.1-0.9-0.2-1.4-0.2c-0.5,0-0.9,0.1-1.3,0.2c-0.4,0.1-0.6,0.3-0.9,0.5
				c-0.2,0.2-0.4,0.5-0.5,0.8c-0.1,0.3-0.2,0.6-0.2,0.9c0,0.5,0.1,0.9,0.3,1.2c0.2,0.3,0.5,0.7,0.9,0.9s0.8,0.5,1.3,0.7
				c0.5,0.2,1,0.4,1.4,0.7c0.5,0.2,1,0.5,1.4,0.7c0.5,0.3,0.9,0.6,1.3,1s0.7,0.8,0.9,1.3C440,218.3,440.1,218.9,440.1,219.5z"/>
		</g>
	</g>
	<g id="text99">
		<g class="st33">
			<path class="st16" d="M315.8,215.9c0,0.3-0.1,0.5-0.3,0.6c-0.2,0.1-0.5,0.2-0.9,0.2h-14.9c-0.4,0-0.7-0.1-1-0.2
				c-0.2-0.1-0.3-0.3-0.3-0.6s0.1-0.5,0.3-0.6c0.2-0.1,0.5-0.2,1-0.2h14.9c0.2,0,0.4,0,0.5,0s0.3,0.1,0.4,0.1
				c0.1,0.1,0.2,0.1,0.2,0.2C315.8,215.7,315.8,215.8,315.8,215.9z"/>
		</g>
	</g>
</g>
<circle id="circle281" class="st34" cx="232.1" cy="285.9" r="11.6"/>
<circle id="circle281-2" class="st35" cx="232.1" cy="344.6" r="11.6"/>
<circle id="circle281-3" class="st36" cx="11.6" cy="609.4" r="11.6"/>
<circle id="circle281-4" class="st34" cx="341.1" cy="243.6" r="11.6"/>
<circle id="circle281-5" class="st35" cx="372" cy="243.6" r="11.6"/>
<circle id="circle281-6" class="st36" cx="403" cy="243.6" r="11.6"/>
<rect id="rect62" x="232.1" y="281.4" class="st34" width="113.6" height="9.1"/>
<rect id="rect64" x="232.1" y="340.1" class="st35" width="144.7" height="9.1"/>
<rect id="rect853" x="11.6" y="604.8" class="st37" width="395.9" height="9.1"/>
<rect id="rect67" x="336.6" y="243.6" class="st34" width="9.1" height="46.9"/>
<rect id="rect69" x="367.6" y="243.6" class="st35" width="9.1" height="105.6"/>
<rect id="rect853-2" x="398.4" y="243.6" class="st37" width="9.1" height="370.3"/>
</svg>
