<?xml version="1.0" encoding="utf-8"?>
<!-- Generator: Adobe Illustrator 27.8.0, SVG Export Plug-In . SVG Version: 6.00 Build 0)  -->
<svg version="1.1"
	 id="Ebene_1" xmlns:svg="http://www.w3.org/2000/svg" xmlns:rdf="http://www.w3.org/1999/02/22-rdf-syntax-ns#" xmlns:sodipodi="http://sodipodi.sourceforge.net/DTD/sodipodi-0.dtd" xmlns:dc="http://purl.org/dc/elements/1.1/" xmlns:inkscape="http://www.inkscape.org/namespaces/inkscape" xmlns:cc="http://creativecommons.org/ns#" inkscape:version="0.92.4 (5da689c313, 2019-01-14)"
	 xmlns="http://www.w3.org/2000/svg" xmlns:xlink="http://www.w3.org/1999/xlink" x="0px" y="0px" viewBox="0 0 460.8 821.9"
	 style="enable-background:new 0 0 460.8 821.9;" xml:space="preserve">
<style type="text/css">
	.st0{fill:#02814B;}
	.st1{fill:#D4C547;}
	.st2{fill:#525035;}
	.st3{fill:#FEE86F;}
	.st4{fill:#FFE17B;}
	.st5{fill:#DDDDDD;}
	.st6{fill:#7F7F7F;}
	.st7{fill:#474544;}
	.st8{fill:#E2EADE;}
	.st9{fill:#C29148;}
	.st10{fill:#8DDDDE;}
	.st11{fill:#C1C1C1;}
	.st12{fill:#C2BFAB;}
	.st13{fill:none;stroke:#95AC6E;stroke-miterlimit:10;}
	.st14{fill:#E8D28A;}
	.st15{fill:#CECECE;}
	.st16{fill:#FFFFFF;}
	.st17{fill:#36323E;}
	.st18{fill:#868C97;}
	.st19{fill:#FCFCFA;}
	.st20{fill:#141316;}
	.st21{fill:#B9A68F;}
	.st22{fill:#E0B45B;}
	.st23{fill:#ABA28E;}
	.st24{fill:none;stroke:#FFFFFF;stroke-miterlimit:10;}
	.st25{fill:#915114;}
	.st26{fill:#E20E18;}
	.st27{fill:#22AE87;}
	.st28{fill:#25AF88;}
	.st29{fill:#010101;}
	.st30{fill:#1B1B1B;}
	.st31{opacity:0.99;fill:#808181;enable-background:new    ;}
	.st32{opacity:0.99;fill:#CDCCCC;enable-background:new    ;}
	.st33{opacity:0.99;fill:#FFFFFF;enable-background:new    ;}
	.st34{fill:#343434;}
	.st35{opacity:0.99;fill:#C87137;enable-background:new    ;}
	.st36{enable-background:new    ;}
</style>
<g>
	<path class="st0" d="M243.3,239.9v-11.9H0.2v11.9c2.3,0.9,3.9,3.1,3.9,5.7s-1.6,4.8-3.9,5.7v18.1c2.3,0.9,3.9,3.1,3.9,5.7
		s-1.6,4.8-3.9,5.7v18.1c2.3,0.9,3.9,3.1,3.9,5.7s-1.6,4.8-3.9,5.7V328c2.3,0.9,3.9,3.1,3.9,5.7s-1.6,4.8-3.9,5.7v18.1
		c2.3,0.9,3.9,3.1,3.9,5.7s-1.6,4.8-3.9,5.7v18.1c2.3,0.9,3.9,3.1,3.9,5.7s-1.6,4.8-3.9,5.7v18.1c2.3,0.9,3.9,3.1,3.9,5.7
		s-1.6,4.8-3.9,5.7v18.1c2.3,0.9,3.9,3.1,3.9,5.7s-1.6,4.8-3.9,5.7V475c2.3,0.9,3.9,3.1,3.9,5.7s-1.6,4.8-3.9,5.7v18.1
		c2.3,0.9,3.9,3.1,3.9,5.7c0,2.6-1.6,4.8-3.9,5.7v18.1c2.3,0.9,3.9,3.1,3.9,5.7s-1.6,4.8-3.9,5.7v18.1c2.3,0.9,3.9,3.1,3.9,5.7
		s-1.6,4.8-3.9,5.7v18.1c2.3,0.9,3.9,3.1,3.9,5.7s-1.6,4.8-3.9,5.7V622c2.3,0.9,3.9,3.1,3.9,5.7s-1.6,4.8-3.9,5.7v18.1
		c2.3,0.9,3.9,3.1,3.9,5.7s-1.6,4.8-3.9,5.7v18.1c2.3,0.9,3.9,3.1,3.9,5.7s-1.6,4.8-3.9,5.7v18.1c2.3,0.9,3.9,3.1,3.9,5.7
		s-1.6,4.8-3.9,5.7v18.1c2.3,0.9,3.9,3.1,3.9,5.7s-1.6,4.8-3.9,5.7v18c2.3,0.9,3.9,3.1,3.9,5.7s-1.6,4.8-3.9,5.7v18.1
		c2.3,0.9,3.9,3.1,3.9,5.7s-1.6,4.8-3.9,5.7v11.9h78.5h7.5h11.3h18.5h11.3H146h11.3h4h82v-11.9c-2.2-0.9-3.8-3.1-3.8-5.7
		s1.6-4.8,3.8-5.7v-18.1c-2.2-0.9-3.8-3.1-3.8-5.7s1.6-4.8,3.8-5.7v-18.1c-2.2-0.9-3.8-3.1-3.8-5.7s1.6-4.8,3.8-5.7v-18.1
		c-2.2-0.9-3.8-3.1-3.8-5.7s1.6-4.8,3.8-5.7v-18.1c-2.2-0.9-3.8-3.1-3.8-5.7s1.6-4.8,3.8-5.7v-18.1c-2.2-0.9-3.8-3.1-3.8-5.7
		s1.6-4.8,3.8-5.7v-18.1c-2.2-0.9-3.8-3.1-3.8-5.7s1.6-4.8,3.8-5.7v-18.1c-2.2-0.9-3.8-3.1-3.8-5.7s1.6-4.8,3.8-5.7v-18.1
		c-2.2-0.9-3.8-3.1-3.8-5.7s1.6-4.8,3.8-5.7v-18.1c-2.2-0.9-3.8-3.1-3.8-5.7s1.6-4.8,3.8-5.7v-18.1c-2.2-0.9-3.8-3.1-3.8-5.7
		c0-2.6,1.6-4.8,3.8-5.7v-18.1c-2.2-0.9-3.8-3.1-3.8-5.7s1.6-4.8,3.8-5.7v-18.1c-2.2-0.9-3.8-3.1-3.8-5.7s1.6-4.8,3.8-5.7v-18.1
		c-2.2-0.9-3.8-3.1-3.8-5.7s1.6-4.8,3.8-5.7v-18.1c-2.2-0.9-3.8-3.1-3.8-5.7s1.6-4.8,3.8-5.7v-18.1c-2.2-0.9-3.8-3.1-3.8-5.7
		s1.6-4.8,3.8-5.7v-18.1c-2.2-0.9-3.8-3.1-3.8-5.7s1.6-4.8,3.8-5.7V310c-2.2-0.9-3.8-3.1-3.8-5.7s1.6-4.8,3.8-5.7v-18.1
		c-2.2-0.9-3.8-3.1-3.8-5.7s1.6-4.8,3.8-5.7v-18.1c-2.2-0.9-3.8-3.1-3.8-5.7S241.1,240.8,243.3,239.9z M15.8,810.1
		c-3.4,0-6.1-2.7-6.1-6.1s2.7-6.1,6.1-6.1s6.1,2.7,6.1,6.1S19.2,810.1,15.8,810.1z M15.8,780.7c-3.4,0-6.1-2.7-6.1-6.1
		s2.7-6.1,6.1-6.1s6.1,2.7,6.1,6.1S19.2,780.7,15.8,780.7z M15.8,751.3c-3.4,0-6.1-2.7-6.1-6.1s2.7-6.1,6.1-6.1s6.1,2.7,6.1,6.1
		S19.2,751.3,15.8,751.3z M15.8,721.9c-3.4,0-6.1-2.7-6.1-6.1s2.7-6.1,6.1-6.1s6.1,2.7,6.1,6.1S19.2,721.9,15.8,721.9z M15.8,692.5
		c-3.4,0-6.1-2.7-6.1-6.1s2.7-6.1,6.1-6.1s6.1,2.7,6.1,6.1S19.2,692.5,15.8,692.5z M15.8,663.1c-3.4,0-6.1-2.7-6.1-6.1
		s2.7-6.1,6.1-6.1s6.1,2.7,6.1,6.1S19.2,663.1,15.8,663.1z M15.8,633.8c-3.4,0-6.1-2.7-6.1-6.1s2.7-6.1,6.1-6.1s6.1,2.7,6.1,6.1
		S19.2,633.8,15.8,633.8z M15.8,604.4c-3.4,0-6.1-2.7-6.1-6.1s2.7-6.1,6.1-6.1s6.1,2.7,6.1,6.1S19.2,604.4,15.8,604.4z M15.8,575
		c-3.4,0-6.1-2.7-6.1-6.1s2.7-6.1,6.1-6.1s6.1,2.7,6.1,6.1S19.2,575,15.8,575z M15.8,545.6c-3.4,0-6.1-2.7-6.1-6.1s2.7-6.1,6.1-6.1
		s6.1,2.7,6.1,6.1S19.2,545.6,15.8,545.6z M15.8,516.2c-3.4,0-6.1-2.7-6.1-6.1c0-3.4,2.7-6.1,6.1-6.1s6.1,2.7,6.1,6.1
		C21.9,513.4,19.2,516.2,15.8,516.2z M15.8,486.8c-3.4,0-6.1-2.7-6.1-6.1s2.7-6.1,6.1-6.1s6.1,2.7,6.1,6.1S19.2,486.8,15.8,486.8z
		 M15.8,457.4c-3.4,0-6.1-2.7-6.1-6.1s2.7-6.1,6.1-6.1s6.1,2.7,6.1,6.1S19.2,457.4,15.8,457.4z M15.8,428c-3.4,0-6.1-2.7-6.1-6.1
		s2.7-6.1,6.1-6.1s6.1,2.7,6.1,6.1S19.2,428,15.8,428z M15.8,398.6c-3.4,0-6.1-2.7-6.1-6.1s2.7-6.1,6.1-6.1s6.1,2.7,6.1,6.1
		S19.2,398.6,15.8,398.6z M15.8,369.2c-3.4,0-6.1-2.7-6.1-6.1s2.7-6.1,6.1-6.1s6.1,2.7,6.1,6.1S19.2,369.2,15.8,369.2z M15.8,339.8
		c-3.4,0-6.1-2.7-6.1-6.1s2.7-6.1,6.1-6.1c3.4,0,6.1,2.7,6.1,6.1S19.2,339.8,15.8,339.8z M15.8,310.4c-3.4,0-6.1-2.7-6.1-6.1
		s2.7-6.1,6.1-6.1s6.1,2.7,6.1,6.1S19.2,310.4,15.8,310.4z M15.8,281c-3.4,0-6.1-2.7-6.1-6.1s2.7-6.1,6.1-6.1s6.1,2.7,6.1,6.1
		S19.2,281,15.8,281z M15.8,251.6c-3.4,0-6.1-2.7-6.1-6.1s2.7-6.1,6.1-6.1s6.1,2.7,6.1,6.1S19.2,251.6,15.8,251.6z M53.7,810.1
		c-6.7,0-12.1-5.4-12.1-12.1s5.4-12.1,12.1-12.1c6.7,0,12.1,5.4,12.1,12.1S60.4,810.1,53.7,810.1z M53.7,262.9
		c-6.7,0-12.1-5.4-12.1-12.1c0-6.7,5.4-12.1,12.1-12.1c6.7,0,12.1,5.4,12.1,12.1C65.8,257.5,60.4,262.9,53.7,262.9z M127.6,596.2
		c-3.1,0-5.7-2.6-5.7-5.7s2.6-5.7,5.7-5.7c3.1,0,5.7,2.6,5.7,5.7S130.7,596.2,127.6,596.2z M157,596.2c-3.1,0-5.7-2.6-5.7-5.7
		s2.6-5.7,5.7-5.7c3.1,0,5.7,2.6,5.7,5.7S160.2,596.2,157,596.2z M186.2,238.7c6.7,0,12.1,5.4,12.1,12.1c0,6.7-5.4,12.1-12.1,12.1
		s-12.1-5.4-12.1-12.1C174.1,244.1,179.6,238.7,186.2,238.7z M192.5,590.5c0,3.1-2.6,5.7-5.7,5.7c-3.1,0-5.7-2.6-5.7-5.7
		s2.6-5.7,5.7-5.7C190,584.8,192.5,587.3,192.5,590.5z M188.2,810.1c-6.7,0-12.1-5.4-12.1-12.1s5.4-12.1,12.1-12.1
		s12.1,5.4,12.1,12.1S194.9,810.1,188.2,810.1z M227.8,810.1c-3.4,0-6.1-2.7-6.1-6.1s2.7-6.1,6.1-6.1s6.1,2.7,6.1,6.1
		S231.2,810.1,227.8,810.1z M227.8,780.7c-3.4,0-6.1-2.7-6.1-6.1s2.7-6.1,6.1-6.1s6.1,2.7,6.1,6.1S231.2,780.7,227.8,780.7z
		 M227.8,751.3c-3.4,0-6.1-2.7-6.1-6.1s2.7-6.1,6.1-6.1s6.1,2.7,6.1,6.1S231.2,751.3,227.8,751.3z M227.8,721.9
		c-3.4,0-6.1-2.7-6.1-6.1s2.7-6.1,6.1-6.1s6.1,2.7,6.1,6.1S231.2,721.9,227.8,721.9z M227.8,692.5c-3.4,0-6.1-2.7-6.1-6.1
		s2.7-6.1,6.1-6.1s6.1,2.7,6.1,6.1S231.2,692.5,227.8,692.5z M227.8,663.1c-3.4,0-6.1-2.7-6.1-6.1s2.7-6.1,6.1-6.1s6.1,2.7,6.1,6.1
		S231.2,663.1,227.8,663.1z M227.8,633.8c-3.4,0-6.1-2.7-6.1-6.1s2.7-6.1,6.1-6.1s6.1,2.7,6.1,6.1S231.2,633.8,227.8,633.8z
		 M227.8,604.4c-3.4,0-6.1-2.7-6.1-6.1s2.7-6.1,6.1-6.1s6.1,2.7,6.1,6.1S231.2,604.4,227.8,604.4z M227.8,575
		c-3.4,0-6.1-2.7-6.1-6.1s2.7-6.1,6.1-6.1s6.1,2.7,6.1,6.1S231.2,575,227.8,575z M227.8,545.6c-3.4,0-6.1-2.7-6.1-6.1
		s2.7-6.1,6.1-6.1s6.1,2.7,6.1,6.1S231.2,545.6,227.8,545.6z M227.8,516.2c-3.4,0-6.1-2.7-6.1-6.1c0-3.4,2.7-6.1,6.1-6.1
		s6.1,2.7,6.1,6.1C233.9,513.4,231.2,516.2,227.8,516.2z M227.8,486.8c-3.4,0-6.1-2.7-6.1-6.1s2.7-6.1,6.1-6.1s6.1,2.7,6.1,6.1
		S231.2,486.8,227.8,486.8z M227.8,457.4c-3.4,0-6.1-2.7-6.1-6.1s2.7-6.1,6.1-6.1s6.1,2.7,6.1,6.1S231.2,457.4,227.8,457.4z
		 M227.8,428c-3.4,0-6.1-2.7-6.1-6.1s2.7-6.1,6.1-6.1s6.1,2.7,6.1,6.1S231.2,428,227.8,428z M227.8,398.6c-3.4,0-6.1-2.7-6.1-6.1
		s2.7-6.1,6.1-6.1s6.1,2.7,6.1,6.1S231.2,398.6,227.8,398.6z M227.8,369.2c-3.4,0-6.1-2.7-6.1-6.1s2.7-6.1,6.1-6.1s6.1,2.7,6.1,6.1
		S231.2,369.2,227.8,369.2z M227.8,339.8c-3.4,0-6.1-2.7-6.1-6.1s2.7-6.1,6.1-6.1s6.1,2.7,6.1,6.1S231.2,339.8,227.8,339.8z
		 M227.8,310.4c-3.4,0-6.1-2.7-6.1-6.1s2.7-6.1,6.1-6.1s6.1,2.7,6.1,6.1S231.2,310.4,227.8,310.4z M227.8,281
		c-3.4,0-6.1-2.7-6.1-6.1s2.7-6.1,6.1-6.1s6.1,2.7,6.1,6.1S231.2,281,227.8,281z M227.8,251.6c-3.4,0-6.1-2.7-6.1-6.1
		s2.7-6.1,6.1-6.1s6.1,2.7,6.1,6.1S231.2,251.6,227.8,251.6z"/>
	<path class="st1" d="M53.7,230.3c-11.3,0-20.5,9.2-20.5,20.5c0,11.3,9.2,20.5,20.5,20.5s20.5-9.2,20.5-20.5
		C74.3,239.5,65.1,230.3,53.7,230.3z M53.7,263c-6.7,0-12.1-5.4-12.1-12.1c0-6.7,5.4-12.1,12.1-12.1c6.7,0,12.1,5.4,12.1,12.1
		C65.8,257.5,60.4,263,53.7,263z"/>
	<path class="st1" d="M186.3,230.3c-11.3,0-20.5,9.2-20.5,20.5c0,11.3,9.2,20.5,20.5,20.5c11.3,0,20.5-9.2,20.5-20.5
		C206.8,239.5,197.6,230.3,186.3,230.3z M186.3,263c-6.7,0-12.1-5.4-12.1-12.1c0-6.7,5.4-12.1,12.1-12.1c6.7,0,12.1,5.4,12.1,12.1
		C198.4,257.5,193,263,186.3,263z"/>
	<path class="st1" d="M53.7,777.4c-11.3,0-20.5,9.2-20.5,20.5s9.2,20.5,20.5,20.5s20.5-9.2,20.5-20.5S65.1,777.4,53.7,777.4z
		 M53.7,810.1c-6.7,0-12.1-5.4-12.1-12.1s5.4-12.1,12.1-12.1c6.7,0,12.1,5.4,12.1,12.1S60.4,810.1,53.7,810.1z"/>
	<path class="st1" d="M188.3,777.4c-11.3,0-20.5,9.2-20.5,20.5s9.2,20.5,20.5,20.5c11.3,0,20.5-9.2,20.5-20.5
		S199.6,777.4,188.3,777.4z M188.3,810.1c-6.7,0-12.1-5.4-12.1-12.1s5.4-12.1,12.1-12.1c6.7,0,12.1,5.4,12.1,12.1
		S195,810.1,188.3,810.1z"/>
	<circle class="st2" cx="55" cy="315.5" r="10.6"/>
	<circle class="st3" cx="55" cy="315.5" r="5.5"/>
	<path class="st4" d="M17.5,295.3H0.3v3.4c2.3,0.9,3.9,3.1,3.9,5.7s-1.6,4.8-3.9,5.7v3.4h17.2c5,0,9-4,9-9v0
		C26.5,299.4,22.4,295.3,17.5,295.3z M15.9,310.4c-3.4,0-6.1-2.7-6.1-6.1s2.7-6.1,6.1-6.1s6.1,2.7,6.1,6.1S19.2,310.4,15.9,310.4z"
		/>
	<path class="st4" d="M17.5,442.3H0.3v3.4c2.3,0.9,3.9,3.1,3.9,5.7s-1.6,4.8-3.9,5.7v3.4h17.2c5,0,9-4,9-9S22.4,442.3,17.5,442.3z
		 M15.9,457.4c-3.4,0-6.1-2.7-6.1-6.1s2.7-6.1,6.1-6.1s6.1,2.7,6.1,6.1S19.2,457.4,15.9,457.4z"/>
	<path class="st4" d="M17.5,589.3H0.3v3.4c2.3,0.9,3.9,3.1,3.9,5.7s-1.6,4.8-3.9,5.7v3.4h17.2c5,0,9-4,9-9S22.4,589.3,17.5,589.3z
		 M15.9,604.4c-3.4,0-6.1-2.7-6.1-6.1s2.7-6.1,6.1-6.1s6.1,2.7,6.1,6.1S19.2,604.4,15.9,604.4z"/>
	<path class="st4" d="M17.5,618.7H0.3v3.4c2.3,0.9,3.9,3.1,3.9,5.7s-1.6,4.8-3.9,5.7v3.4h17.2c5,0,9-4,9-9S22.4,618.7,17.5,618.7z
		 M15.9,633.8c-3.4,0-6.1-2.7-6.1-6.1s2.7-6.1,6.1-6.1s6.1,2.7,6.1,6.1S19.2,633.8,15.9,633.8z"/>
	<path class="st4" d="M17.5,648.1H0.3v3.4c2.3,0.9,3.9,3.1,3.9,5.7s-1.6,4.8-3.9,5.7v3.4h17.2c5,0,9-4,9-9S22.4,648.1,17.5,648.1z
		 M15.9,663.2c-3.4,0-6.1-2.7-6.1-6.1s2.7-6.1,6.1-6.1s6.1,2.7,6.1,6.1S19.2,663.2,15.9,663.2z"/>
	<path class="st4" d="M17.5,677.5H0.3v3.4c2.3,0.9,3.9,3.1,3.9,5.7s-1.6,4.8-3.9,5.7v3.4h17.2c5,0,9-4,9-9S22.4,677.5,17.5,677.5z
		 M15.9,692.6c-3.4,0-6.1-2.7-6.1-6.1s2.7-6.1,6.1-6.1s6.1,2.7,6.1,6.1S19.2,692.6,15.9,692.6z"/>
	<path class="st4" d="M17.5,736.3H0.3v3.4c2.3,0.9,3.9,3.1,3.9,5.7s-1.6,4.8-3.9,5.7v3.4h17.2c5,0,9-4,9-9v0
		C26.5,740.3,22.4,736.3,17.5,736.3z M15.9,751.4c-3.4,0-6.1-2.7-6.1-6.1s2.7-6.1,6.1-6.1s6.1,2.7,6.1,6.1S19.2,751.4,15.9,751.4z"
		/>
	<path class="st4" d="M17.5,765.7H0.3v3.4c2.3,0.9,3.9,3.1,3.9,5.7s-1.6,4.8-3.9,5.7v3.4h17.2c5,0,9-4,9-9v0
		C26.5,769.7,22.4,765.7,17.5,765.7z M15.9,780.8c-3.4,0-6.1-2.7-6.1-6.1s2.7-6.1,6.1-6.1s6.1,2.7,6.1,6.1S19.2,780.8,15.9,780.8z"
		/>
	<path class="st4" d="M17.5,795H0.3v3.4c2.3,0.9,3.9,3.1,3.9,5.7s-1.6,4.8-3.9,5.7v3.4h17.2c5,0,9-4,9-9S22.4,795,17.5,795z
		 M15.9,810.2c-3.4,0-6.1-2.7-6.1-6.1s2.7-6.1,6.1-6.1s6.1,2.7,6.1,6.1S19.2,810.2,15.9,810.2z"/>
	<path class="st4" d="M239.5,245.6c0-2.6,1.6-4.8,3.9-5.7v-3.4h-17.2c-5,0-9,4-9,9s4,9,9,9h17.2v-3.4
		C241.2,250.3,239.5,248.1,239.5,245.6z M227.8,251.6c-3.4,0-6.1-2.7-6.1-6.1s2.7-6.1,6.1-6.1s6.1,2.7,6.1,6.1
		S231.2,251.6,227.8,251.6z"/>
	<path class="st4" d="M239.5,274.9c0-2.6,1.6-4.8,3.9-5.7v-3.4h-17.2c-5,0-9,4-9,9v0c0,5,4,9,9,9h17.2v-3.4
		C241.2,279.7,239.5,277.5,239.5,274.9z M227.8,281c-3.4,0-6.1-2.7-6.1-6.1s2.7-6.1,6.1-6.1s6.1,2.7,6.1,6.1S231.2,281,227.8,281z"
		/>
	<path class="st4" d="M239.5,304.3c0-2.6,1.6-4.8,3.9-5.7v-3.4h-17.2c-5,0-9,4-9,9v0c0,5,4,9,9,9h17.2V310
		C241.2,309.1,239.5,306.9,239.5,304.3z M227.8,310.4c-3.4,0-6.1-2.7-6.1-6.1s2.7-6.1,6.1-6.1s6.1,2.7,6.1,6.1
		S231.2,310.4,227.8,310.4z"/>
	<path class="st4" d="M239.5,333.7c0-2.6,1.6-4.8,3.9-5.7v-3.4h-17.2c-5,0-9,4-9,9s4,9,9,9h17.2v-3.4
		C241.2,338.5,239.5,336.3,239.5,333.7z M227.8,339.8c-3.4,0-6.1-2.7-6.1-6.1s2.7-6.1,6.1-6.1s6.1,2.7,6.1,6.1
		S231.2,339.8,227.8,339.8z"/>
	<path class="st4" d="M239.5,363.1c0-2.6,1.6-4.8,3.9-5.7v-3.4h-17.2c-5,0-9,4-9,9s4,9,9,9h17.2v-3.4
		C241.2,367.9,239.5,365.7,239.5,363.1z M227.8,369.2c-3.4,0-6.1-2.7-6.1-6.1s2.7-6.1,6.1-6.1s6.1,2.7,6.1,6.1
		S231.2,369.2,227.8,369.2z"/>
	<path class="st4" d="M239.5,392.5c0-2.6,1.6-4.8,3.9-5.7v-3.4h-17.2c-5,0-9,4-9,9s4,9,9,9h17.2v-3.4
		C241.2,397.3,239.5,395.1,239.5,392.5z M227.8,398.6c-3.4,0-6.1-2.7-6.1-6.1s2.7-6.1,6.1-6.1s6.1,2.7,6.1,6.1
		S231.2,398.6,227.8,398.6z"/>
	<path class="st4" d="M239.5,451.3c0-2.6,1.6-4.8,3.9-5.7v-3.4h-17.2c-5,0-9,4-9,9s4,9,9,9h17.2V457
		C241.2,456.1,239.5,453.9,239.5,451.3z M227.8,457.4c-3.4,0-6.1-2.7-6.1-6.1s2.7-6.1,6.1-6.1s6.1,2.7,6.1,6.1
		S231.2,457.4,227.8,457.4z"/>
	<path class="st4" d="M239.5,510.1c0-2.6,1.6-4.8,3.9-5.7v-3.4h-17.2c-5,0-9,4-9,9v0c0,5,4,9,9,9h17.2v-3.4
		C241.2,514.9,239.5,512.7,239.5,510.1z M227.8,516.2c-3.4,0-6.1-2.7-6.1-6.1s2.7-6.1,6.1-6.1s6.1,2.7,6.1,6.1
		S231.2,516.2,227.8,516.2z"/>
	<path class="st4" d="M239.5,539.5c0-2.6,1.6-4.8,3.9-5.7v-3.4h-17.2c-5,0-9,4-9,9v0c0,5,4,9,9,9h17.2v-3.4
		C241.2,544.3,239.5,542.1,239.5,539.5z M227.8,545.6c-3.4,0-6.1-2.7-6.1-6.1s2.7-6.1,6.1-6.1s6.1,2.7,6.1,6.1
		S231.2,545.6,227.8,545.6z"/>
	<path class="st4" d="M239.5,568.9c0-2.6,1.6-4.8,3.9-5.7v-3.4h-17.2c-5,0-9,4-9,9s4,9,9,9h17.2v-3.4
		C241.2,573.7,239.5,571.5,239.5,568.9z M227.8,575c-3.4,0-6.1-2.7-6.1-6.1s2.7-6.1,6.1-6.1s6.1,2.7,6.1,6.1S231.2,575,227.8,575z"
		/>
	<path class="st4" d="M239.5,598.3c0-2.6,1.6-4.8,3.9-5.7v-3.4h-17.2c-5,0-9,4-9,9s4,9,9,9h17.2V604
		C241.2,603.1,239.5,600.9,239.5,598.3z M227.8,604.4c-3.4,0-6.1-2.7-6.1-6.1s2.7-6.1,6.1-6.1s6.1,2.7,6.1,6.1
		S231.2,604.4,227.8,604.4z"/>
	<path class="st4" d="M239.5,627.7c0-2.6,1.6-4.8,3.9-5.7v-3.4h-17.2c-5,0-9,4-9,9s4,9,9,9h17.2v-3.4
		C241.2,632.5,239.5,630.3,239.5,627.7z M227.8,633.8c-3.4,0-6.1-2.7-6.1-6.1s2.7-6.1,6.1-6.1s6.1,2.7,6.1,6.1
		S231.2,633.8,227.8,633.8z"/>
	<path class="st4" d="M239.5,657.1c0-2.6,1.6-4.8,3.9-5.7v-3.4h-17.2c-5,0-9,4-9,9s4,9,9,9h17.2v-3.4
		C241.2,661.9,239.5,659.7,239.5,657.1z M227.8,663.2c-3.4,0-6.1-2.7-6.1-6.1s2.7-6.1,6.1-6.1s6.1,2.7,6.1,6.1
		S231.2,663.2,227.8,663.2z"/>
	<path class="st4" d="M239.5,686.5c0-2.6,1.6-4.8,3.9-5.7v-3.4h-17.2c-5,0-9,4-9,9s4,9,9,9h17.2v-3.4
		C241.2,691.3,239.5,689.1,239.5,686.5z M227.8,692.6c-3.4,0-6.1-2.7-6.1-6.1s2.7-6.1,6.1-6.1s6.1,2.7,6.1,6.1
		S231.2,692.6,227.8,692.6z"/>
	<path class="st4" d="M239.5,745.3c0-2.6,1.6-4.8,3.9-5.7v-3.4h-17.2c-5,0-9,4-9,9v0c0,5,4,9,9,9h17.2v-3.4
		C241.2,750.1,239.5,747.9,239.5,745.3z M227.8,751.4c-3.4,0-6.1-2.7-6.1-6.1s2.7-6.1,6.1-6.1s6.1,2.7,6.1,6.1
		S231.2,751.4,227.8,751.4z"/>
	<path class="st4" d="M239.5,774.7c0-2.6,1.6-4.8,3.9-5.7v-3.4h-17.2c-5,0-9,4-9,9v0c0,5,4,9,9,9h17.2v-3.4
		C241.2,779.5,239.5,777.3,239.5,774.7z M227.8,780.8c-3.4,0-6.1-2.7-6.1-6.1s2.7-6.1,6.1-6.1s6.1,2.7,6.1,6.1
		S231.2,780.8,227.8,780.8z"/>
	<path class="st5" d="M163.1,217.5l4.4-4.4l-2.3-2.3l-6.6,6.6h-1.5v-4.7c0-1.2-1-2.2-2.2-2.2H85.4c-1.2,0-2.2,1-2.2,2.2v4.7h-1.5
		l-6.6-6.6l-2.3,2.3l4.4,4.4c-0.6,0.2-1,0.8-1,1.4v56.3c0,0.9,0.7,1.6,1.6,1.6h84.6c0.9,0,1.6-0.7,1.6-1.6v-56.3
		C164,218.2,163.6,217.7,163.1,217.5z"/>
	<g>
		<path class="st6" d="M100.3,239.7c0-3.2-2.6-5.8-5.8-5.8s-5.8,2.6-5.8,5.8c0,1.4,0.5,2.7,1.3,3.7h-0.2v7.7c0,1.2,1,2.1,2.1,2.1H97
			c1.2,0,2.1-1,2.1-2.1v-7.7H99C99.8,242.4,100.3,241.1,100.3,239.7z"/>
		<path class="st6" d="M155.5,239.7c0-3.2-2.6-5.8-5.8-5.8s-5.8,2.6-5.8,5.8c0,1.4,0.5,2.7,1.3,3.7H145v7.7c0,1.2,1,2.1,2.1,2.1h5.1
			c1.2,0,2.1-1,2.1-2.1v-7.7h-0.2C155,242.4,155.5,241.1,155.5,239.7z"/>
	</g>
	<path class="st7" d="M200.9,369.9h-21c-1.2,0-2.2-1-2.2-2.2V341c0-1.2,1-2.2,2.2-2.2h21c1.2,0,2.2,1,2.2,2.2v26.7
		C203,368.9,202.1,369.9,200.9,369.9z"/>
	<g>
		<rect x="132" y="306.1" class="st8" width="21.7" height="14.4"/>
		<path class="st9" d="M149.3,320.5c-2-1.8-3.2-4.4-3.2-7.2s1.2-5.4,3.2-7.2h-12.8c2,1.8,3.2,4.4,3.2,7.2s-1.2,5.4-3.2,7.2H149.3z"
			/>
	</g>
	<g>
		<rect x="132.3" y="391.4" class="st8" width="21.7" height="14.4"/>
		<path class="st9" d="M149.6,405.8c-2-1.8-3.2-4.4-3.2-7.2s1.2-5.4,3.2-7.2h-12.8c2,1.8,3.2,4.4,3.2,7.2s-1.2,5.4-3.2,7.2H149.6z"
			/>
	</g>
	<g>
		<rect x="132.3" y="410.6" class="st8" width="21.7" height="14.4"/>
		<path class="st9" d="M149.6,425c-2-1.8-3.2-4.4-3.2-7.2s1.2-5.4,3.2-7.2h-12.8c2,1.8,3.2,4.4,3.2,7.2s-1.2,5.4-3.2,7.2H149.6z"/>
	</g>
	<g>
		
			<rect x="63.8" y="458.9" transform="matrix(6.123234e-17 -1 1 6.123234e-17 -397.708 530.7441)" class="st8" width="5.4" height="10.6"/>
		
			<rect x="63.8" y="461.2" transform="matrix(6.123234e-17 -1 1 6.123234e-17 -397.708 530.7441)" class="st9" width="5.4" height="6"/>
	</g>
	<g>
		<rect x="177.1" y="441.5" class="st8" width="5.4" height="10.6"/>
		<rect x="177.1" y="443.8" class="st9" width="5.4" height="6"/>
	</g>
	<rect x="179.5" y="291.5" class="st7" width="18.9" height="29.3"/>
	<g>
		<rect x="171.6" y="392.7" class="st8" width="20.6" height="9.6"/>
		<rect x="176.2" y="392.7" class="st10" width="11.5" height="9.6"/>
	</g>
	<rect x="120.2" y="560.8" class="st9" width="4.2" height="6.9"/>
	<rect x="126.9" y="560.8" class="st9" width="4.2" height="6.9"/>
	
		<rect x="66.6" y="470.8" transform="matrix(6.123234e-17 -1 1 6.123234e-17 -405.5046 542.9871)" class="st9" width="4.2" height="6.9"/>
	
		<rect x="89.5" y="403.7" transform="matrix(6.123234e-17 -1 1 6.123234e-17 -315.4399 498.764)" class="st9" width="4.2" height="6.9"/>
	
		<rect x="66.3" y="514.4" transform="matrix(6.123234e-17 -1 1 6.123234e-17 -449.4586 586.2286)" class="st9" width="4.2" height="6.9"/>
	<rect x="195" y="519.6" class="st7" width="4.2" height="6.9"/>
	
		<rect x="189.2" y="458.4" transform="matrix(6.123234e-17 -1 1 6.123234e-17 -270.4884 653.14)" class="st7" width="4.2" height="6.9"/>
	
		<rect x="87.2" y="302.7" transform="matrix(6.123234e-17 -1 1 6.123234e-17 -216.8068 395.4691)" class="st7" width="4.2" height="6.9"/>
	
		<rect x="82.3" y="314.9" transform="matrix(6.123234e-17 -1 1 6.123234e-17 -233.922 402.8287)" class="st7" width="4.2" height="6.9"/>
	
		<rect x="192.8" y="407.4" transform="matrix(6.123234e-17 -1 1 6.123234e-17 -215.8787 605.7928)" class="st7" width="4.2" height="6.9"/>
	<path class="st11" d="M186.3,724.5H57.5c-2.1,0-3.9-1.7-3.9-3.9V612.5c0-2.1,1.7-3.9,3.9-3.9h128.8c2.1,0,3.9,1.7,3.9,3.9v108.1
		C190.2,722.8,188.5,724.5,186.3,724.5z"/>
	<rect x="101.5" y="770.8" class="st12" width="10.5" height="5.9"/>
	<rect x="130.3" y="770.9" class="st12" width="10.5" height="5.9"/>
	<rect x="101.5" y="808.6" class="st12" width="10.5" height="5.9"/>
	<rect x="130.3" y="808.7" class="st12" width="10.5" height="5.9"/>
	<polyline class="st13" points="17.5,253.3 17.5,257.7 35.4,275.7 35.4,324.3 51,339.9 51,474.6 55.9,479.6 91.2,479.6 	"/>
	<polyline class="st13" points="22.9,280.2 31,288.3 31,326.1 46.7,341.8 46.7,477.1 52.6,483.1 91,483.1 	"/>
	<polyline class="st13" points="23.2,338.6 43,358.4 43,479.6 53.4,490 95,490 	"/>
	<polyline class="st13" points="23.2,368.1 39.8,384.6 39.8,481.5 51.9,493.6 95.1,493.6 	"/>
	<polyline class="st13" points="23.2,398.2 35.6,410.5 35.6,486.5 49.5,500.5 93.4,500.5 	"/>
	<polyline class="st13" points="22.9,426.3 31.6,435.1 31.6,489.2 46.4,504 96.1,504 	"/>
	<polyline class="st13" points="22.9,485 45.3,507.4 102.7,507.4 	"/>
	<line class="st13" x1="23.7" y1="510.9" x2="98.8" y2="510.9"/>
	<path class="st13" d="M23.2,537.3c0.1-0.6,17.3-17.3,17.3-17.3H53l4.9,4.9h45.7"/>
	<polyline class="st13" points="20.4,563.2 25.7,557.8 25.7,550 30.9,544.9 30.9,536.5 43.9,523.4 52.6,523.4 57.3,528.1 
		95.3,528.1 	"/>
	<path class="st13" d="M30.7,553.3l3.4-3.4c0,0-0.7-8.9,0-9.6c0.7-0.7,6-6,6-6l6.3-6.3h6.1l3.7,3.7h35.1"/>
	<polyline class="st13" points="29.1,609.3 29.1,561.6 38.7,552.1 93.4,552.1 95,550.4 95,540.8 	"/>
	<polyline class="st13" points="17.5,707.5 17.5,703.9 32.9,688.4 32.9,608.1 35.7,605.4 35.7,563.6 42,557.3 94.2,557.3 
		98.4,553.1 98.4,545.8 	"/>
	<path class="st13" d="M35.7,591.1"/>
	<path class="st13" d="M35.7,606.3"/>
	<polyline class="st13" points="23.6,768.1 30.4,761.3 30.4,696.8 37.5,690.8 	"/>
	<polyline class="st13" points="35.6,701.1 42.6,694.1 42.6,604.4 39.9,601.7 39.9,564.9 44.6,560.2 94.9,560.2 101.9,553.2 
		101.9,536.6 	"/>
	<polyline class="st13" points="108.9,543.3 108.9,552.1 95.9,565.1 91.5,565.1 	"/>
	<polyline class="st13" points="93.9,573.7 112.4,555.2 112.4,539.8 	"/>
	<polyline class="st13" points="115.9,545.2 115.9,556.8 102.2,570.5 102.2,590.5 95.9,596.8 65,596.8 55.5,587.3 	"/>
	<polyline class="st13" points="133.9,584.1 138.7,579.4 138.7,566.1 135.5,562.9 135.5,552.9 132.4,549.7 132.4,538.8 	"/>
	<polyline class="st13" points="137.3,542.9 137.3,550.7 139.3,552.7 139.3,559.1 152.7,572.6 164.9,572.6 179.1,586.8 	"/>
	<polyline class="st13" points="145.3,540.7 145.3,551.1 151.3,557.1 172.3,557.1 200.5,585.4 200.5,697.9 206.7,704.1 206.7,755 
		212.3,760.6 212.3,780.8 223.3,791.8 223.3,797.1 	"/>
	<polyline class="st13" points="150.7,541.2 150.7,548.5 154.7,552.5 173.6,552.5 205.2,584 205.2,695.5 211.4,701.7 211.4,754.3 
		215.6,758.5 215.6,767.3 	"/>
	<polyline class="st13" points="157.5,536 165.3,536 211.1,581.8 211.1,693.4 227.2,709.6 	"/>
	<polyline class="st13" points="157.5,531.6 166.9,531.6 192.1,556.8 	"/>
	<polyline class="st13" points="158.6,526.4 166.6,526.4 190.1,549.9 195.5,549.9 206.3,560.7 206.3,567.7 	"/>
	<polyline class="st13" points="158.2,522 167.3,522 190.4,545.1 200.9,545.1 	"/>
	<polyline class="st13" points="158.2,517.8 169.1,517.8 174.1,522.8 	"/>
	<polyline class="st13" points="158.2,512.9 175.4,512.9 202.8,540.2 206.3,540.2 215.9,549.9 215.9,562.2 	"/>
	<line class="st13" x1="158.6" y1="507.4" x2="167.7" y2="507.4"/>
	<polyline class="st13" points="156.4,502 171.8,502 179.2,509.4 	"/>
	<polyline class="st13" points="187.9,522 192.4,517.5 192.4,498.2 203.4,498.2 	"/>
	<polyline class="st13" points="158.6,493.6 209.5,493.6 218.5,502.6 	"/>
	<polyline class="st13" points="158.2,489.2 213.8,489.2 220.3,482.7 	"/>
	<polyline class="st13" points="157.5,485 198.8,485 207.1,476.7 207.1,436.4 219.6,424 	"/>
	<polyline class="st13" points="158.6,480.7 179.1,480.7 202.4,457.5 202.4,434.6 	"/>
	<polyline class="st13" points="159.7,476 167.2,476 171.8,471.4 	"/>
	<path class="st13" d="M147.8,470.7c-0.2-0.3,9.2-9.2,9.2-9.2h15.6V428l2.8-2.8v-7.7"/>
	<path class="st13" d="M147,468.5c0-0.2,0-6.5,0-6.5l10.3-10.3"/>
	<polyline class="st13" points="140.1,469.4 140.1,458.6 147.4,451.3 	"/>
	<line class="st13" x1="136.6" y1="466.4" x2="136.6" y2="448.8"/>
	<path class="st13" d="M133.1,468.1c0-0.6,0-15.2,0-15.2l-4.2-4.2"/>
	<path class="st13" d="M122.6,467.8c0-0.6,0-20.7,0-20.7"/>
	<path class="st13" d="M119.2,469.4c0-0.3,0-11.1,0-11.1l-7.6-7.6"/>
	<polyline class="st13" points="115.6,469 115.6,462.6 101.8,448.7 101.8,442.3 105,439.1 108.9,439.1 111.5,436.5 111.5,426 
		106.1,420.6 100,420.6 	"/>
	<polyline class="st13" points="99.8,426.3 105.4,426.3 108.5,429.4 108.5,434.6 105.7,437.3 101.1,437.3 97.7,440.8 97.7,449.8 
		108.7,460.8 108.7,467.6 	"/>
	<polyline class="st13" points="91.3,430.8 91.3,447.6 105.2,461.5 105.2,471 	"/>
	<polyline class="st13" points="76.5,430 76.5,437.2 85.9,446.6 85.9,450.4 99,463.5 99,472.6 	"/>
	<path class="st13" d="M94.8,466.7c0-0.1,0-5,0-5l-11.7-11.7v-1.1l-4.5-4.5h-6.4l-1.7-1.7h-6.9l-6.7-6.7v-14.4l1.6-1.6h8.8"/>
	<polyline class="st13" points="69.1,413.9 60.4,413.9 55.4,418.9 55.4,436.8 63.4,444.7 69.5,444.7 75.9,451.1 78.4,451.1 
		92.5,465.2 	"/>
	<line class="st13" x1="73.8" y1="387.3" x2="56" y2="405"/>
	<polyline class="st13" points="137.6,447.9 137.6,441.7 134.7,438.8 134.7,435.7 130.2,431.3 125.2,431.3 121.1,427.2 121.1,408.3 
		109.7,396.8 109.7,314.6 124,300.3 124,291.2 127.7,287.5 	"/>
	<path class="st13" d="M135.3,340.5c0-0.6,0-9,0-9l-3.1-3.1h-9.8l-4.5-4.5v-4.3"/>
	<polyline class="st13" points="129.3,372.9 129.3,378.2 126.1,381.4 120.2,381.4 118.6,383 	"/>
	<polyline class="st13" points="62.9,286 62.9,295.4 79.1,311.6 83.6,311.6 88.5,316.5 88.5,324.7 83.9,329.2 83.9,342.8 	"/>
	<rect x="45.6" y="278.8" class="st14" width="18.9" height="9.6"/>
	<g>
		<rect x="102.7" y="276.7" class="st15" width="4.3" height="11.5"/>
		<rect x="110.4" y="276.7" class="st15" width="4.3" height="11.5"/>
		<rect x="118.1" y="276.7" class="st15" width="4.3" height="11.5"/>
		<rect x="125.7" y="276.7" class="st15" width="4.3" height="11.5"/>
		<rect x="133.4" y="276.7" class="st15" width="4.3" height="11.5"/>
	</g>
	<g>
		<path class="st16" d="M106.8,297.5V292h2.5v5.8c0,2,0.6,2.7,1.7,2.7c1.2,0,1.8-0.7,1.8-2.7V292h2.4v5.5c0,3.5-1.4,5.1-4.2,5.1
			S106.8,301,106.8,297.5z"/>
		<path class="st16" d="M116.7,301.1l1.3-1.6c0.7,0.6,1.7,1,2.6,1c0.9,0,1.4-0.4,1.4-0.9c0-0.6-0.6-0.8-1.5-1.2l-1.3-0.6
			c-1.1-0.4-2.1-1.3-2.1-2.8c0-1.7,1.6-3.2,3.8-3.2c1.2,0,2.5,0.5,3.4,1.3l-1.3,1.6c-0.7-0.5-1.4-0.8-2.1-0.8
			c-0.8,0-1.3,0.3-1.3,0.8c0,0.6,0.7,0.8,1.6,1.2l1.3,0.5c1.3,0.5,2.1,1.4,2.1,2.8c0,1.7-1.5,3.3-4,3.3
			C119.1,302.6,117.8,302.1,116.7,301.1z"/>
		<path class="st16" d="M126.3,292h3.6c2.2,0,3.9,0.6,3.9,2.6c0,0.9-0.5,1.9-1.4,2.2v0.1c1.1,0.3,1.9,1.1,1.9,2.4
			c0,2.1-1.8,3.1-4.1,3.1h-3.9V292z M129.8,296.2c1.1,0,1.5-0.5,1.5-1.2c0-0.8-0.5-1.1-1.5-1.1h-1.1v2.2H129.8z M130,300.5
			c1.2,0,1.8-0.4,1.8-1.3s-0.6-1.2-1.8-1.2h-1.2v2.5H130z"/>
	</g>
	<path class="st17" d="M170.2,373.4h-45.7c-0.5,0-1-0.4-1-1v-33.5c0-0.5,0.4-1,1-1h45.7c0.5,0,1,0.4,1,1v33.5
		C171.1,373,170.7,373.4,170.2,373.4z"/>
	<g>
		<rect x="128.6" y="333.8" class="st15" width="1.4" height="4.1"/>
		<rect x="134.6" y="333.8" class="st15" width="1.4" height="4.1"/>
		<rect x="140.6" y="333.8" class="st15" width="1.4" height="4.1"/>
		<rect x="146.6" y="333.8" class="st15" width="1.4" height="4.1"/>
		<rect x="152.6" y="333.8" class="st15" width="1.4" height="4.1"/>
		<rect x="158.6" y="333.8" class="st15" width="1.4" height="4.1"/>
		<rect x="164.6" y="333.8" class="st15" width="1.4" height="4.1"/>
	</g>
	<g>
		<rect x="128.6" y="373.4" class="st15" width="1.4" height="4.1"/>
		<rect x="134.6" y="373.4" class="st15" width="1.4" height="4.1"/>
		<rect x="140.6" y="373.4" class="st15" width="1.4" height="4.1"/>
		<rect x="146.6" y="373.4" class="st15" width="1.4" height="4.1"/>
		<rect x="152.6" y="373.4" class="st15" width="1.4" height="4.1"/>
		<rect x="158.6" y="373.4" class="st15" width="1.4" height="4.1"/>
		<rect x="164.6" y="373.4" class="st15" width="1.4" height="4.1"/>
	</g>
	<g>
		<rect x="61.4" y="341.8" class="st18" width="39.3" height="48.9"/>
		<path class="st19" d="M81,384.5L81,384.5c-7.6,0-13.7-6.1-13.7-13.7v-9.1c0-7.6,6.1-13.7,13.7-13.7h0c7.6,0,13.7,6.1,13.7,13.7
			v9.1C94.7,378.4,88.6,384.5,81,384.5z"/>
		<path class="st19" d="M61.4,352L61.4,352l0-10.3h10.3v0C71.6,347.4,67.1,352,61.4,352z"/>
		<path class="st19" d="M71.6,390.7H61.4v-10.3h0C67.1,380.5,71.6,385,71.6,390.7L71.6,390.7z"/>
		<path class="st19" d="M100.7,352L100.7,352c-5.7,0-10.3-4.6-10.3-10.3v0h10.3V352z"/>
		<path class="st19" d="M100.7,390.7H90.4l0,0c0-5.7,4.6-10.3,10.3-10.3h0V390.7z"/>
	</g>
	<g>
		<rect x="64.9" y="411.3" class="st17" width="34.6" height="22.9"/>
		<g>
			<rect x="60.7" y="412.4" class="st15" width="4.2" height="3.4"/>
			<rect x="60.7" y="418.2" class="st15" width="4.2" height="3.4"/>
			<rect x="60.7" y="423.9" class="st15" width="4.2" height="3.4"/>
			<rect x="60.7" y="429.6" class="st15" width="4.2" height="3.4"/>
		</g>
		<g>
			<rect x="99.5" y="412.4" class="st15" width="4.2" height="3.4"/>
			<rect x="99.5" y="418.2" class="st15" width="4.2" height="3.4"/>
			<rect x="99.5" y="423.9" class="st15" width="4.2" height="3.4"/>
			<rect x="99.5" y="429.6" class="st15" width="4.2" height="3.4"/>
		</g>
	</g>
	<rect x="135.5" y="442.8" class="st7" width="4.2" height="6.9"/>
	<g>
		<path class="st20" d="M160.4,546.5H81.4c-0.7,0-1.3-0.6-1.3-1.3v-79.1c0-0.7,0.6-1.3,1.3-1.3h79.1c0.7,0,1.3,0.6,1.3,1.3v79.1
			C161.7,546,161.1,546.5,160.4,546.5z"/>
		<g>
			<rect x="86.2" y="462.9" class="st15" width="3.1" height="1.9"/>
			<rect x="89.7" y="462.9" class="st15" width="3.1" height="1.9"/>
			<rect x="93.2" y="462.9" class="st15" width="3.1" height="1.9"/>
			<rect x="96.7" y="462.9" class="st15" width="3.1" height="1.9"/>
			<rect x="100.2" y="462.9" class="st15" width="3.1" height="1.9"/>
			<rect x="103.6" y="462.9" class="st15" width="3.1" height="1.9"/>
			<rect x="107.1" y="462.9" class="st15" width="3.1" height="1.9"/>
			<rect x="114.1" y="462.9" class="st15" width="3.1" height="1.9"/>
			<rect x="121.1" y="462.9" class="st15" width="3.1" height="1.9"/>
			<rect x="128" y="462.9" class="st15" width="3.1" height="1.9"/>
			<rect x="138.5" y="462.9" class="st15" width="3.1" height="1.9"/>
			<rect x="142" y="462.9" class="st15" width="3.1" height="1.9"/>
			<rect x="149" y="462.9" class="st15" width="3.1" height="1.9"/>
			<rect x="110.6" y="462.9" class="st15" width="3.1" height="1.9"/>
			<rect x="117.6" y="462.9" class="st15" width="3.1" height="1.9"/>
			<rect x="124.6" y="462.9" class="st15" width="3.1" height="1.9"/>
			<rect x="131.5" y="462.9" class="st15" width="3.1" height="1.9"/>
			<rect x="135" y="462.9" class="st15" width="3.1" height="1.9"/>
			<rect x="145.5" y="462.9" class="st15" width="3.1" height="1.9"/>
			<rect x="152.4" y="462.9" class="st15" width="3.1" height="1.9"/>
		</g>
		<g>
			<rect x="86.4" y="546.5" class="st15" width="3.1" height="1.9"/>
			<rect x="89.9" y="546.5" class="st15" width="3.1" height="1.9"/>
			<rect x="93.4" y="546.5" class="st15" width="3.1" height="1.9"/>
			<rect x="96.9" y="546.5" class="st15" width="3.1" height="1.9"/>
			<rect x="100.4" y="546.5" class="st15" width="3.1" height="1.9"/>
			<rect x="103.8" y="546.5" class="st15" width="3.1" height="1.9"/>
			<rect x="107.3" y="546.5" class="st15" width="3.1" height="1.9"/>
			<rect x="114.3" y="546.5" class="st15" width="3.1" height="1.9"/>
			<rect x="121.3" y="546.5" class="st15" width="3.1" height="1.9"/>
			<rect x="128.2" y="546.5" class="st15" width="3.1" height="1.9"/>
			<rect x="138.7" y="546.5" class="st15" width="3.1" height="1.9"/>
			<rect x="142.2" y="546.5" class="st15" width="3.1" height="1.9"/>
			<rect x="149.1" y="546.5" class="st15" width="3.1" height="1.9"/>
			<rect x="110.8" y="546.5" class="st15" width="3.1" height="1.9"/>
			<rect x="117.8" y="546.5" class="st15" width="3.1" height="1.9"/>
			<rect x="124.7" y="546.5" class="st15" width="3.1" height="1.9"/>
			<rect x="131.7" y="546.5" class="st15" width="3.1" height="1.9"/>
			<rect x="135.2" y="546.5" class="st15" width="3.1" height="1.9"/>
			<rect x="145.7" y="546.5" class="st15" width="3.1" height="1.9"/>
			<rect x="152.6" y="546.5" class="st15" width="3.1" height="1.9"/>
		</g>
		<g>
			
				<rect x="77.5" y="537.8" transform="matrix(6.123234e-17 -1 1 6.123234e-17 -459.7194 617.8997)" class="st15" width="3.1" height="1.9"/>
			
				<rect x="77.5" y="534.4" transform="matrix(6.123234e-17 -1 1 6.123234e-17 -456.2343 614.4146)" class="st15" width="3.1" height="1.9"/>
			
				<rect x="77.5" y="530.9" transform="matrix(6.123234e-17 -1 1 6.123234e-17 -452.7493 610.9296)" class="st15" width="3.1" height="1.9"/>
			
				<rect x="77.5" y="527.4" transform="matrix(6.123234e-17 -1 1 6.123234e-17 -449.2642 607.4445)" class="st15" width="3.1" height="1.9"/>
			
				<rect x="77.5" y="523.9" transform="matrix(6.123234e-17 -1 1 6.123234e-17 -445.7792 603.9595)" class="st15" width="3.1" height="1.9"/>
			
				<rect x="77.5" y="520.4" transform="matrix(6.123234e-17 -1 1 6.123234e-17 -442.2941 600.4744)" class="st15" width="3.1" height="1.9"/>
			
				<rect x="77.5" y="516.9" transform="matrix(6.123234e-17 -1 1 6.123234e-17 -438.8091 596.9894)" class="st15" width="3.1" height="1.9"/>
			
				<rect x="77.5" y="510" transform="matrix(6.123234e-17 -1 1 6.123234e-17 -431.839 590.0193)" class="st15" width="3.1" height="1.9"/>
			
				<rect x="77.5" y="503" transform="matrix(6.123234e-17 -1 1 6.123234e-17 -424.8689 583.0492)" class="st15" width="3.1" height="1.9"/>
			
				<rect x="77.5" y="496" transform="matrix(6.123234e-17 -1 1 6.123234e-17 -417.8988 576.0791)" class="st15" width="3.1" height="1.9"/>
			
				<rect x="77.5" y="485.6" transform="matrix(6.123234e-17 -1 1 6.123234e-17 -407.4437 565.624)" class="st15" width="3.1" height="1.9"/>
			
				<rect x="77.5" y="482.1" transform="matrix(6.123234e-17 -1 1 6.123234e-17 -403.9586 562.1389)" class="st15" width="3.1" height="1.9"/>
			
				<rect x="77.5" y="475.1" transform="matrix(6.123234e-17 -1 1 6.123234e-17 -396.9886 555.1689)" class="st15" width="3.1" height="1.9"/>
			
				<rect x="77.5" y="513.5" transform="matrix(6.123234e-17 -1 1 6.123234e-17 -435.3241 593.5043)" class="st15" width="3.1" height="1.9"/>
			
				<rect x="77.5" y="506.5" transform="matrix(6.123234e-17 -1 1 6.123234e-17 -428.354 586.5342)" class="st15" width="3.1" height="1.9"/>
			
				<rect x="77.5" y="499.5" transform="matrix(6.123234e-17 -1 1 6.123234e-17 -421.3839 579.5641)" class="st15" width="3.1" height="1.9"/>
			
				<rect x="77.5" y="492.5" transform="matrix(6.123234e-17 -1 1 6.123234e-17 -414.4138 572.5941)" class="st15" width="3.1" height="1.9"/>
			
				<rect x="77.5" y="489.1" transform="matrix(6.123234e-17 -1 1 6.123234e-17 -410.9287 569.109)" class="st15" width="3.1" height="1.9"/>
			
				<rect x="77.5" y="478.6" transform="matrix(6.123234e-17 -1 1 6.123234e-17 -400.4736 558.6539)" class="st15" width="3.1" height="1.9"/>
			
				<rect x="77.5" y="471.6" transform="matrix(6.123234e-17 -1 1 6.123234e-17 -393.5035 551.6838)" class="st15" width="3.1" height="1.9"/>
		</g>
		<g>
			
				<rect x="161.1" y="537.8" transform="matrix(6.123234e-17 -1 1 6.123234e-17 -376.1294 701.4896)" class="st15" width="3.1" height="1.9"/>
			
				<rect x="161.1" y="534.4" transform="matrix(6.123234e-17 -1 1 6.123234e-17 -372.6444 698.0045)" class="st15" width="3.1" height="1.9"/>
			
				<rect x="161.1" y="530.9" transform="matrix(6.123234e-17 -1 1 6.123234e-17 -369.1593 694.5195)" class="st15" width="3.1" height="1.9"/>
			
				<rect x="161.1" y="527.4" transform="matrix(6.123234e-17 -1 1 6.123234e-17 -365.6743 691.0344)" class="st15" width="3.1" height="1.9"/>
			
				<rect x="161.1" y="523.9" transform="matrix(6.123234e-17 -1 1 6.123234e-17 -362.1893 687.5494)" class="st15" width="3.1" height="1.9"/>
			
				<rect x="161.1" y="520.4" transform="matrix(6.123234e-17 -1 1 6.123234e-17 -358.7042 684.0643)" class="st15" width="3.1" height="1.9"/>
			
				<rect x="161.1" y="516.9" transform="matrix(6.123234e-17 -1 1 6.123234e-17 -355.2192 680.5793)" class="st15" width="3.1" height="1.9"/>
			
				<rect x="161.1" y="510" transform="matrix(6.123234e-17 -1 1 6.123234e-17 -348.2491 673.6092)" class="st15" width="3.1" height="1.9"/>
			
				<rect x="161.1" y="503" transform="matrix(6.123234e-17 -1 1 6.123234e-17 -341.279 666.6392)" class="st15" width="3.1" height="1.9"/>
			
				<rect x="161.1" y="496" transform="matrix(6.123234e-17 -1 1 6.123234e-17 -334.3089 659.6691)" class="st15" width="3.1" height="1.9"/>
			
				<rect x="161.1" y="485.6" transform="matrix(6.123234e-17 -1 1 6.123234e-17 -323.8538 649.2139)" class="st15" width="3.1" height="1.9"/>
			
				<rect x="161.1" y="482.1" transform="matrix(6.123234e-17 -1 1 6.123234e-17 -320.3687 645.7289)" class="st15" width="3.1" height="1.9"/>
			
				<rect x="161.1" y="475.1" transform="matrix(6.123234e-17 -1 1 6.123234e-17 -313.3987 638.7588)" class="st15" width="3.1" height="1.9"/>
			
				<rect x="161.1" y="513.5" transform="matrix(6.123234e-17 -1 1 6.123234e-17 -351.7341 677.0942)" class="st15" width="3.1" height="1.9"/>
			
				<rect x="161.1" y="506.5" transform="matrix(6.123234e-17 -1 1 6.123234e-17 -344.764 670.1242)" class="st15" width="3.1" height="1.9"/>
			
				<rect x="161.1" y="499.5" transform="matrix(6.123234e-17 -1 1 6.123234e-17 -337.7939 663.1541)" class="st15" width="3.1" height="1.9"/>
			
				<rect x="161.1" y="492.5" transform="matrix(6.123234e-17 -1 1 6.123234e-17 -330.8239 656.184)" class="st15" width="3.1" height="1.9"/>
			
				<rect x="161.1" y="489.1" transform="matrix(6.123234e-17 -1 1 6.123234e-17 -327.3388 652.699)" class="st15" width="3.1" height="1.9"/>
			
				<rect x="161.1" y="478.6" transform="matrix(6.123234e-17 -1 1 6.123234e-17 -316.8837 642.2438)" class="st15" width="3.1" height="1.9"/>
			
				<rect x="161.1" y="471.6" transform="matrix(6.123234e-17 -1 1 6.123234e-17 -309.9136 635.2737)" class="st15" width="3.1" height="1.9"/>
		</g>
		<circle class="st21" cx="90.2" cy="476" r="2.8"/>
	</g>
	<rect x="187.1" y="430.7" class="st17" width="18.2" height="8.6"/>
	<rect x="189.1" y="439.3" class="st15" width="2.9" height="8.7"/>
	<rect x="200.9" y="439.3" class="st15" width="2.9" height="8.7"/>
	<rect x="194.8" y="422" class="st15" width="2.9" height="8.7"/>
	
		<rect x="170.5" y="468.7" transform="matrix(6.123234e-17 -1 1 6.123234e-17 -299.5766 644.7712)" class="st9" width="4.2" height="6.9"/>
	<rect x="189.5" y="499.9" class="st7" width="4.2" height="6.9"/>
	
		<rect x="172.3" y="519.1" transform="matrix(0.7071 -0.7071 0.7071 0.7071 -318.3679 276.3943)" class="st9" width="4.2" height="6.9"/>
	<g>
		<path class="st4" d="M157,581.2c-5.1,0-9.2,4.1-9.2,9.2s4.1,9.2,9.2,9.2s9.2-4.1,9.2-9.2S162.1,581.2,157,581.2z M157,596.2
			c-3.1,0-5.7-2.6-5.7-5.7s2.6-5.7,5.7-5.7c3.1,0,5.7,2.6,5.7,5.7S160.2,596.2,157,596.2z"/>
		<path class="st4" d="M118.7,581.6v17.7h17.7v-17.7H118.7z M127.6,596.2c-3.1,0-5.7-2.6-5.7-5.7s2.6-5.7,5.7-5.7
			c3.1,0,5.7,2.6,5.7,5.7S130.7,596.2,127.6,596.2z"/>
		<path class="st4" d="M186.8,581.2c-5.1,0-9.2,4.1-9.2,9.2s4.1,9.2,9.2,9.2s9.2-4.1,9.2-9.2S191.9,581.2,186.8,581.2z M186.8,596.2
			c-3.1,0-5.7-2.6-5.7-5.7s2.6-5.7,5.7-5.7c3.1,0,5.7,2.6,5.7,5.7S190,596.2,186.8,596.2z"/>
	</g>
	<path class="st4" d="M17.5,559.9H0.3v3.4c2.3,0.9,3.9,3.1,3.9,5.7s-1.6,4.8-3.9,5.7v3.4h17.2c5,0,9-4,9-9S22.4,559.9,17.5,559.9z
		 M15.9,575c-3.4,0-6.1-2.7-6.1-6.1s2.7-6.1,6.1-6.1s6.1,2.7,6.1,6.1S19.2,575,15.9,575z"/>
	<path class="st4" d="M17.5,530.5H0.3v3.4c2.3,0.9,3.9,3.1,3.9,5.7s-1.6,4.8-3.9,5.7v3.4h17.2c5,0,9-4,9-9v0
		C26.5,534.5,22.4,530.5,17.5,530.5z M15.9,545.6c-3.4,0-6.1-2.7-6.1-6.1s2.7-6.1,6.1-6.1s6.1,2.7,6.1,6.1S19.2,545.6,15.9,545.6z"
		/>
	<path class="st4" d="M17.5,501.1H0.3v3.4c2.3,0.9,3.9,3.1,3.9,5.7s-1.6,4.8-3.9,5.7v3.4h17.2c5,0,9-4,9-9v0
		C26.5,505.1,22.4,501.1,17.5,501.1z M15.9,516.2c-3.4,0-6.1-2.7-6.1-6.1s2.7-6.1,6.1-6.1s6.1,2.7,6.1,6.1S19.2,516.2,15.9,516.2z"
		/>
	<path class="st4" d="M17.5,471.7H0.3v3.4c2.3,0.9,3.9,3.1,3.9,5.7s-1.6,4.8-3.9,5.7v3.4h17.2c5,0,9-4,9-9S22.4,471.7,17.5,471.7z
		 M15.9,486.8c-3.4,0-6.1-2.7-6.1-6.1s2.7-6.1,6.1-6.1s6.1,2.7,6.1,6.1S19.2,486.8,15.9,486.8z"/>
	<path class="st4" d="M17.5,412.9H0.3v3.4c2.3,0.9,3.9,3.1,3.9,5.7s-1.6,4.8-3.9,5.7v3.4h17.2c5,0,9-4,9-9S22.4,412.9,17.5,412.9z
		 M15.9,428c-3.4,0-6.1-2.7-6.1-6.1s2.7-6.1,6.1-6.1s6.1,2.7,6.1,6.1S19.2,428,15.9,428z"/>
	<path class="st4" d="M17.5,383.5H0.3v3.4c2.3,0.9,3.9,3.1,3.9,5.7s-1.6,4.8-3.9,5.7v3.4h17.2c5,0,9-4,9-9S22.4,383.5,17.5,383.5z
		 M15.9,398.6c-3.4,0-6.1-2.7-6.1-6.1s2.7-6.1,6.1-6.1s6.1,2.7,6.1,6.1S19.2,398.6,15.9,398.6z"/>
	<path class="st4" d="M17.5,354.1H0.3v3.4c2.3,0.9,3.9,3.1,3.9,5.7s-1.6,4.8-3.9,5.7v3.4h17.2c5,0,9-4,9-9S22.4,354.1,17.5,354.1z
		 M15.9,369.2c-3.4,0-6.1-2.7-6.1-6.1s2.7-6.1,6.1-6.1s6.1,2.7,6.1,6.1S19.2,369.2,15.9,369.2z"/>
	<path class="st4" d="M17.5,324.7H0.3v3.4c2.3,0.9,3.9,3.1,3.9,5.7s-1.6,4.8-3.9,5.7v3.4h17.2c5,0,9-4,9-9S22.4,324.7,17.5,324.7z
		 M15.9,339.8c-3.4,0-6.1-2.7-6.1-6.1s2.7-6.1,6.1-6.1s6.1,2.7,6.1,6.1S19.2,339.8,15.9,339.8z"/>
	<path class="st4" d="M17.5,265.9H0.3v3.4c2.3,0.9,3.9,3.1,3.9,5.7s-1.6,4.8-3.9,5.7v3.4h17.2c5,0,9-4,9-9v0
		C26.5,270,22.4,265.9,17.5,265.9z M15.9,281c-3.4,0-6.1-2.7-6.1-6.1s2.7-6.1,6.1-6.1s6.1,2.7,6.1,6.1S19.2,281,15.9,281z"/>
	<path class="st4" d="M17.5,236.5H0.3v3.4c2.3,0.9,3.9,3.1,3.9,5.7s-1.6,4.8-3.9,5.7v3.4h17.2c5,0,9-4,9-9S22.4,236.5,17.5,236.5z
		 M15.9,251.6c-3.4,0-6.1-2.7-6.1-6.1s2.7-6.1,6.1-6.1s6.1,2.7,6.1,6.1S19.2,251.6,15.9,251.6z"/>
	<path class="st4" d="M17.5,706.9H0.3v3.4c2.3,0.9,3.9,3.1,3.9,5.7s-1.6,4.8-3.9,5.7v3.4h17.2c5,0,9-4,9-9S22.4,706.9,17.5,706.9z
		 M15.9,722c-3.4,0-6.1-2.7-6.1-6.1s2.7-6.1,6.1-6.1s6.1,2.7,6.1,6.1S19.2,722,15.9,722z"/>
	<path class="st4" d="M239.5,804.1c0-2.6,1.6-4.8,3.9-5.7V795h-17.2c-5,0-9,4-9,9s4,9,9,9h17.2v-3.4
		C241.2,808.9,239.5,806.7,239.5,804.1z M227.8,810.2c-3.4,0-6.1-2.7-6.1-6.1s2.7-6.1,6.1-6.1s6.1,2.7,6.1,6.1
		S231.2,810.2,227.8,810.2z"/>
	<path class="st4" d="M239.5,715.9c0-2.6,1.6-4.8,3.9-5.7v-3.4h-17.2c-5,0-9,4-9,9s4,9,9,9h17.2v-3.4
		C241.2,720.7,239.5,718.5,239.5,715.9z M227.8,722c-3.4,0-6.1-2.7-6.1-6.1s2.7-6.1,6.1-6.1s6.1,2.7,6.1,6.1S231.2,722,227.8,722z"
		/>
	<path class="st4" d="M239.5,480.7c0-2.6,1.6-4.8,3.9-5.7v-3.4h-17.2c-5,0-9,4-9,9s4,9,9,9h17.2v-3.4
		C241.2,485.5,239.5,483.3,239.5,480.7z M227.8,486.8c-3.4,0-6.1-2.7-6.1-6.1s2.7-6.1,6.1-6.1s6.1,2.7,6.1,6.1
		S231.2,486.8,227.8,486.8z"/>
	
		<rect x="90" y="574.8" transform="matrix(6.123234e-17 -1 1 6.123234e-17 -483.3602 669.9434)" class="st12" width="6.7" height="3.7"/>
	<g>
		<path class="st22" d="M82.2,594.1H50.4c-1.2,0-2.2-1-2.2-2.2v-23.7c0-1.2,1-2.2,2.2-2.2h31.8c1.2,0,2.2,1,2.2,2.2v23.7
			C84.4,593.1,83.4,594.1,82.2,594.1z"/>
		<path class="st23" d="M79.9,591.7H52.6c-0.8,0-1.4-0.6-1.4-1.4v-20.4c0-0.8,0.6-1.4,1.4-1.4h27.3c0.8,0,1.4,0.6,1.4,1.4v20.4
			C81.3,591,80.7,591.7,79.9,591.7z"/>
	</g>
	
		<rect x="90" y="594.7" transform="matrix(6.123234e-17 -1 1 6.123234e-17 -503.2946 689.8777)" class="st12" width="6.7" height="3.7"/>
	<rect x="100.1" y="579" class="st7" width="4.2" height="6.9"/>
	<g>
		<path class="st16" d="M42.3,399.1v-3.6c0-2.2,0.6-3.9,2.6-3.9c0.9,0,1.9,0.5,2.2,1.4h0.1c0.3-1.1,1.1-1.9,2.4-1.9
			c2.1,0,3.1,1.8,3.1,4.1v3.9H42.3z M46.4,395.5c0-1.1-0.5-1.5-1.2-1.5c-0.8,0-1.1,0.5-1.1,1.5v1.1h2.2V395.5z M50.8,395.3
			c0-1.2-0.4-1.8-1.3-1.8s-1.2,0.6-1.2,1.8v1.2h2.5V395.3z"/>
		<path class="st16" d="M47.4,389.8c-3.4,0-5.4-1.9-5.4-4.8s2-4.8,5.4-4.8c3.4,0,5.4,1.9,5.4,4.8S50.8,389.8,47.4,389.8z
			 M47.4,382.8c-2,0-3.2,0.8-3.2,2.2c0,1.4,1.2,2.2,3.2,2.2c2,0,3.3-0.9,3.3-2.2C50.7,383.7,49.4,382.8,47.4,382.8z"/>
		<path class="st16" d="M47.4,378.8c-3.4,0-5.4-1.9-5.4-4.8s2-4.8,5.4-4.8c3.4,0,5.4,1.9,5.4,4.8S50.8,378.8,47.4,378.8z
			 M47.4,371.9c-2,0-3.2,0.8-3.2,2.2c0,1.4,1.2,2.2,3.2,2.2c2,0,3.3-0.9,3.3-2.2C50.7,372.7,49.4,371.9,47.4,371.9z"/>
		<path class="st16" d="M44.3,365.8v2.8h-2.1v-8.1h2.1v2.8h8.3v2.5H44.3z"/>
		<path class="st16" d="M51.3,359.9l-1.6-1.3c0.6-0.7,1-1.7,1-2.6c0-0.9-0.4-1.4-0.9-1.4c-0.6,0-0.8,0.6-1.2,1.5l-0.6,1.3
			c-0.4,1.1-1.3,2.1-2.8,2.1c-1.7,0-3.2-1.6-3.2-3.8c0-1.2,0.5-2.5,1.3-3.4l1.6,1.3c-0.5,0.7-0.8,1.4-0.8,2.1c0,0.8,0.3,1.3,0.8,1.3
			c0.6,0,0.8-0.7,1.2-1.6l0.5-1.3c0.5-1.3,1.4-2.1,2.8-2.1c1.7,0,3.3,1.5,3.3,4C52.9,357.5,52.4,358.8,51.3,359.9z"/>
		<path class="st16" d="M42.3,350.3v-6.6h2.1v4.1h2v-3.5h2.1v3.5h2.2v-4.3h2.1v6.8H42.3z"/>
		<path class="st16" d="M42.3,341.5v-2.5h8.3v-4h2.1v6.5H42.3z"/>
	</g>
	<g>
		<path class="st16" d="M141.4,556.3h3c3.2,0,5.3,1.6,5.3,5.2c0,3.6-2.1,5.2-5.1,5.2h-3.1V556.3z M144.3,564.7
			c1.7,0,2.9-0.8,2.9-3.2c0-2.5-1.2-3.2-2.9-3.2h-0.4v6.4H144.3z"/>
		<path class="st16" d="M151.6,556.3h6.6v2.1h-4.1v2h3.5v2.1h-3.5v2.2h4.3v2.1h-6.8V556.3z"/>
		<path class="st16" d="M160.4,556.3h3.6c2.2,0,3.9,0.6,3.9,2.6c0,0.9-0.5,1.9-1.4,2.2v0.1c1.1,0.3,1.9,1.1,1.9,2.4
			c0,2.1-1.8,3.1-4.1,3.1h-3.9V556.3z M164,560.4c1.1,0,1.5-0.5,1.5-1.2c0-0.8-0.5-1.1-1.5-1.1h-1.1v2.2H164z M164.2,564.8
			c1.2,0,1.8-0.4,1.8-1.3s-0.6-1.2-1.8-1.2h-1.2v2.5H164.2z"/>
		<path class="st16" d="M170.1,561.8v-5.5h2.5v5.8c0,2,0.6,2.7,1.7,2.7c1.2,0,1.8-0.7,1.8-2.7v-5.8h2.4v5.5c0,3.5-1.4,5.1-4.2,5.1
			S170.1,565.3,170.1,561.8z"/>
		<path class="st16" d="M180.3,561.5c0-3.5,2.3-5.5,5.1-5.5c1.5,0,2.6,0.6,3.3,1.4l-1.3,1.5c-0.5-0.5-1.1-0.7-1.9-0.7
			c-1.5,0-2.7,1.2-2.7,3.2c0,2.1,0.9,3.3,2.9,3.3c0.4,0,0.8-0.1,1-0.3v-1.7h-1.7v-2h3.9v4.9c-0.7,0.7-2,1.3-3.5,1.3
			C182.6,566.9,180.3,565.1,180.3,561.5z"/>
	</g>
	<rect x="114.2" y="577.6" class="st24" width="86.4" height="25.6"/>
	<g>
		<path class="st16" d="M40.1,292h2.5v8.3h4v2.1h-6.5V292z"/>
		<path class="st16" d="M48.4,292H55v2.1h-4.1v2h3.5v2.1h-3.5v2.2h4.3v2.1h-6.8V292z"/>
		<path class="st16" d="M57.2,292h3c3.2,0,5.3,1.6,5.3,5.2c0,3.6-2.1,5.2-5.1,5.2h-3.1V292z M60.1,300.4c1.7,0,2.9-0.8,2.9-3.2
			c0-2.5-1.2-3.2-2.9-3.2h-0.4v6.4H60.1z"/>
	</g>
	<g>
		<rect x="143.7" y="441.5" class="st8" width="5.4" height="10.6"/>
		<rect x="143.7" y="443.8" class="st9" width="5.4" height="6"/>
	</g>
	<g>
		<rect x="154.3" y="441.5" class="st8" width="5.4" height="10.6"/>
		<rect x="154.3" y="443.8" class="st9" width="5.4" height="6"/>
	</g>
	<rect x="127.1" y="442.8" class="st7" width="4.2" height="6.9"/>
	
		<rect x="68.6" y="447.9" transform="matrix(6.123234e-17 -1 1 6.123234e-17 -380.585 522.0566)" class="st7" width="4.2" height="6.9"/>
	<rect x="120.5" y="442.8" class="st9" width="4.2" height="6.9"/>
	<rect x="110.4" y="442.8" class="st9" width="4.2" height="6.9"/>
	<path class="st4" d="M239.5,421.9c0-2.6,1.6-4.8,3.9-5.7v-3.4h-17.2c-5,0-9,4-9,9s4,9,9,9h17.2v-3.4
		C241.2,426.7,239.5,424.5,239.5,421.9z M227.8,428c-3.4,0-6.1-2.7-6.1-6.1s2.7-6.1,6.1-6.1s6.1,2.7,6.1,6.1S231.2,428,227.8,428z"
		/>
	<g>
		
			<rect x="169.4" y="414" transform="matrix(-1.836970e-16 1 -1 -1.836970e-16 592.1727 241.4096)" class="st8" width="11.9" height="5.6"/>
		
			<rect x="172.1" y="414" transform="matrix(-1.836970e-16 1 -1 -1.836970e-16 592.1727 241.4096)" class="st10" width="6.6" height="5.6"/>
	</g>
</g>
<sodipodi:namedview  bordercolor="#666666" borderopacity="1" gridtolerance="10" guidetolerance="10" id="namedview79" inkscape:current-layer="Ebene_1" inkscape:cx="230.38707" inkscape:cy="410.93222" inkscape:pageopacity="0" inkscape:pageshadow="2" inkscape:window-height="1017" inkscape:window-maximized="1" inkscape:window-width="1920" inkscape:window-x="-8" inkscape:window-y="-8" inkscape:zoom="0.28715198" objecttolerance="10" pagecolor="#ffffff" showgrid="false">
	</sodipodi:namedview>
<circle id="circle281" class="st25" cx="232.1" cy="304.4" r="11.6"/>
<circle id="circle281-2" class="st26" cx="232.1" cy="363.1" r="11.6"/>
<circle id="circle281-3" class="st27" cx="232.1" cy="510.2" r="11.6"/>
<rect id="rect7" x="232.1" y="299.9" class="st25" width="174.8" height="9.1"/>
<rect id="rect9" x="232.1" y="358.6" class="st26" width="144" height="9.1"/>
<rect id="rect853" x="232.1" y="505.7" class="st28" width="113.2" height="9.1"/>
<g id="layer1">
	<rect id="rect815" x="283.6" y="17.4" class="st29" width="177.2" height="238.1"/>
	<rect id="rect821" x="325.5" y="216.7" class="st16" width="92.2" height="31.7"/>
	<path id="rect825" class="st30" d="M331.5,218.5H350c3.2,0,5.8,2.6,5.8,5.8v16.2c0,3.2-2.6,5.8-5.8,5.8h-18.5
		c-3.2,0-5.8-2.6-5.8-5.8v-16.2C325.7,221.2,328.3,218.5,331.5,218.5z"/>
	<path id="rect872" class="st30" d="M393.1,218.5h18.5c3.2,0,5.8,2.6,5.8,5.8v16.2c0,3.2-2.6,5.8-5.8,5.8h-18.5
		c-3.2,0-5.8-2.6-5.8-5.8v-16.2C387.3,221.2,389.9,218.5,393.1,218.5z"/>
	<path id="rect874" class="st30" d="M361.6,218.5h20c2.8,0,5.1,2.3,5.1,5.1v17.7c0,2.8-2.3,5.1-5.1,5.1h-20c-2.8,0-5.1-2.3-5.1-5.1
		v-17.7C356.5,220.8,358.8,218.5,361.6,218.5z"/>
	<rect id="rect947" x="339.1" y="233.7" class="st31" width="3.3" height="58.2"/>
	<rect id="rect949" x="370" y="233.7" class="st31" width="3.3" height="58.2"/>
	<rect id="rect951" x="400.6" y="233.7" class="st31" width="3.3" height="58.2"/>
	<circle id="path1456" class="st32" cx="308.4" cy="104.5" r="16.1"/>
	<circle id="ellipse1458" class="st32" cx="434.2" cy="104.5" r="16.1"/>
	<circle id="path1460" class="st33" cx="308.4" cy="104.5" r="14.6"/>
	<circle id="ellipse1464" class="st33" cx="434.2" cy="104.5" r="14.6"/>
	<rect id="rect87" x="308.5" y="183.4" class="st29" width="126.1" height="31.7"/>
	<circle id="path91" class="st32" cx="325.3" cy="204.4" r="11.8"/>
	<circle id="circle93" class="st32" cx="417.3" cy="204.4" r="11.8"/>
	<path id="rect95" class="st32" d="M334.7,156h7.9c4.3,0,7.9,3.5,7.9,7.9v19.7c0,4.3-3.5,7.9-7.9,7.9h-7.9c-4.3,0-7.9-3.5-7.9-7.9
		v-19.7C326.9,159.5,330.4,156,334.7,156z"/>
	<path id="rect97" class="st32" d="M401.6,156h7.9c4.3,0,7.9,3.5,7.9,7.9v19.7c0,4.3-3.5,7.9-7.9,7.9h-7.9c-4.3,0-7.9-3.5-7.9-7.9
		v-19.7C393.7,159.5,397.2,156,401.6,156z"/>
	<circle id="circle99" class="st32" cx="348.5" cy="142.6" r="11.8"/>
	<circle id="circle101" class="st32" cx="395.7" cy="142.6" r="11.8"/>
	<circle id="ellipse103" class="st33" cx="322.2" cy="141.9" r="14.6"/>
	<circle id="ellipse105" class="st33" cx="422" cy="141.9" r="14.6"/>
	<path id="rect111" class="st32" d="M334.7,91.5h7.9c4.3,0,7.9,3.5,7.9,7.9V119c0,4.3-3.5,7.9-7.9,7.9h-7.9c-4.3,0-7.9-3.5-7.9-7.9
		V99.4C326.9,95,330.4,91.5,334.7,91.5z"/>
	<path id="rect113" class="st32" d="M401.6,91.5h7.9c4.3,0,7.9,3.5,7.9,7.9V119c0,4.3-3.5,7.9-7.9,7.9h-7.9c-4.3,0-7.9-3.5-7.9-7.9
		V99.4C393.7,95,397.2,91.5,401.6,91.5z"/>
	<circle id="circle115" class="st33" cx="338.7" cy="172.7" r="10.8"/>
	<circle id="circle117" class="st33" cx="405.5" cy="172.7" r="10.8"/>
	<circle id="circle119" class="st33" cx="325.3" cy="204.4" r="9.8"/>
	<circle id="circle121" class="st33" cx="417.3" cy="204.4" r="9.8"/>
	<circle id="circle123" class="st33" cx="338.7" cy="172.7" r="10.8"/>
	<circle id="circle125" class="st33" cx="338.7" cy="108.2" r="10.8"/>
	<circle id="circle127" class="st33" cx="405.5" cy="108.2" r="10.8"/>
	<circle id="circle129" class="st32" cx="323.7" cy="64" r="11.8"/>
	<circle id="circle131" class="st33" cx="323.7" cy="64" r="9.8"/>
	<circle id="circle133" class="st32" cx="420.5" cy="64" r="11.8"/>
	<circle id="circle135" class="st33" cx="420.5" cy="64" r="9.8"/>
	<rect id="rect139" x="342.6" y="5.4" class="st34" width="59" height="5.9"/>
	<rect id="rect141" x="344.6" y="0" class="st34" width="55.1" height="5.9"/>
	<polygon id="rect143" class="st34" points="338.7,10.9 342.7,8.5 347.4,13 343.4,15.4 	"/>
	<polygon id="rect145" class="st34" points="342.6,5.2 344.6,2.8 346.9,7.3 344.9,9.7 	"/>
	<polygon id="rect147" class="st34" points="401.6,5.2 399.6,2.8 397.2,7.3 399.2,9.7 	"/>
	<polygon id="rect149" class="st34" points="405.5,10.9 401.5,8.5 396.8,13 400.8,15.4 	"/>
	<rect id="rect151" x="394.1" y="144.2" class="st31" width="3.1" height="4.7"/>
	<polygon id="rect153" class="st35" points="348.5,145 372.1,144.1 372.1,145.7 348.5,146.6 	"/>
	<path id="path31-1" class="st16" d="M334,37c1.1,0,1.2,0,1.4-0.2c0.1-0.1,0.3-0.2,0.4-0.3c0.1-0.2,0.1-0.3,0.1-2.6l0-2.4l2.3,0
		l2.3,0v3c0,3.3,0,3.6-0.4,4.4c-0.4,1.1-1.3,1.8-2.4,2c-0.7,0.1-1.4,0.1-2.1,0.1c-0.9,0-1.9,0-2.3-0.1l-0.6-0.1l0-1.9l0-1.9L334,37
		L334,37z M356.2,43.6c20,0,24.9,0,24.1,0.1l-0.1,0l0.1,0.1c0.1,0,0.1,0.1-0.1,0.1c-0.1,0-0.1,0,0.2,0.1l0.4,0l-0.4,0
		c-0.2,0-0.4,0-0.3,0c0.1,0,0.1,0.1,0.1,0.6c0,0.5,0,0.5,0.2,0.6c0.1,0,0.1,0-0.1,0c-0.1,0-0.3,0-0.3,0.1c0,0-7.9,0.1-23.6,0.1
		h-23.6v-1.7L356.2,43.6z M338.2,25.4h2.4v3.8h-4.7v-3.8H338.2z M343,32.5c0.1-1,0.4-2,0.9-2.9c0.1-0.2,0.2-0.4,0.3-0.6
		c0.1-0.1,0.2-0.2,0.3-0.4c0.3-0.4,0.6-0.8,0.9-1.2c0,0,0.1-0.1,0.1-0.1c0.3-0.4,0.7-0.7,1.1-0.9c0.5-0.4,1.1-0.7,1.8-0.9
		c0.9-0.4,1.9-0.5,2.8-0.4c0.6,0,1.1,0.1,1.7,0.2c0.4,0.1,0.8,0.2,0.9,0.3c0.1,0.1,0.2,0.1,0.4,0.1c0.2,0.1,0.4,0.2,0.6,0.3
		c1.4,0.9,2.5,2.2,3.3,3.7c0.9,1.9,1,4,0.3,6c-0.2,0.6-0.5,1.2-0.9,1.8c-0.4,0.6-0.8,1.2-1.4,1.6c-0.9,1-2.1,1.7-3.4,2
		c-1,0.2-2,0.3-3,0.2c-1.2-0.2-2.2-0.7-3.2-1.4c-0.4-0.3-0.7-0.6-1-0.9c-0.1-0.1-0.2-0.2-0.3-0.4c-1-1.1-1.7-2.5-2-3.9
		C343,34,343,33.3,343,32.5L343,32.5z M347.5,34.5c0.2,0.9,0.7,1.7,1.4,2.3c0.8,0.7,1.8,0.9,2.8,0.6c1.2-0.5,2.2-1.6,2.5-2.9
		c0.2-0.9,0.2-1.8,0-2.6c-0.3-1-0.8-1.8-1.6-2.4c-0.3-0.2-0.6-0.3-0.9-0.4c-0.7-0.2-1.5-0.1-2.2,0.2c-0.6,0.4-1.2,1-1.5,1.7
		C347.4,32,347.2,33.3,347.5,34.5L347.5,34.5z M360.8,25.4c0,0,1.1,0,2.4,0l2.3,0l0,2.1c0,2,0,2.1,0.1,2.5c0.4,0.9,1.4,1.4,2.4,1.1
		c0.5-0.1,0.8-0.5,1.1-0.9l0.2-0.4l0-2.2l0-2.2h4.7l0,2.5c0.1,1,0,2-0.2,3c-0.2,0.9-0.7,1.7-1.2,2.4c-0.1,0.1-0.2,0.2-0.2,0.4
		c-0.3,0.4-0.7,0.7-1.1,1c-0.4,0.3-0.9,0.6-1.4,0.7c-0.1,0-0.4,0.1-0.7,0.2c-0.5,0.2-1.1,0.2-1.7,0.2c-0.6,0.1-1.2,0-1.8-0.2
		c-0.7-0.1-1.3-0.4-1.9-0.8c-0.7-0.5-1.3-1.1-1.8-1.8c-0.6-0.9-1-1.9-1.1-3C360.7,28.5,360.7,27,360.8,25.4L360.8,25.4z M367.4,37.1
		h3.9v4h-7.7v-4L367.4,37.1z M374,22.4c0,0,0.1-0.1,0.1-0.2c0-0.2,0-0.2,0.3-0.3c0.2,0,6.7,0,14.5,0l14.2,0l0,0.8l0,0.8h-14.5
		c-8,0-14.5,0-14.6,0c-0.1,0-0.1-0.1-0.1-0.6C373.9,22.6,373.9,22.4,374,22.4L374,22.4z M380.5,31.9h4.9v3.9h-9.8v-3.9H380.5z
		 M389.3,25.4h2.4v3.8h-4.7v-3.8L389.3,25.4z M389.3,31.3h2.4v9.9h-4.7v-9.9L389.3,31.3z M398.7,25.4h4.9v3.8h-9.9v-3.8L398.7,25.4z
		 M394.5,31.6c0,0,1.1,0,2.3,0l2.3,0l0,2.3c0,3.2-0.1,3,2.3,3.1l1.5,0v4l-0.6,0.1c-1.4,0.1-2.9,0.1-4.3,0c-1-0.1-1.9-0.5-2.6-1.2
		c-0.6-0.7-0.9-1.6-1-2.5C394.5,36.5,394.5,31.6,394.5,31.6L394.5,31.6z M406.4,23.5c0.1-0.4,0.3-0.8,0.6-1c0.9-0.9,2.4-1,3.4-0.3
		c0.4,0.2,0.7,0.6,0.8,1c0.2,0.3,0.2,0.7,0.2,1c0,0.4,0,0.7-0.2,1.1c-0.4,0.8-1.2,1.4-2.1,1.4c-0.8,0.1-1.6-0.2-2.1-0.8
		C406.4,25.3,406.2,24.4,406.4,23.5L406.4,23.5z M406.8,25.2c0.3,0.6,0.9,1,1.6,1.2c0.7,0.2,1.5,0,2-0.5c0.2-0.2,0.4-0.4,0.5-0.6
		c0.2-0.3,0.2-0.6,0.2-1c0-0.3,0-0.7-0.2-1c-0.1-0.3-0.3-0.5-0.6-0.7c-0.2-0.2-0.5-0.3-0.7-0.4c-1.1-0.3-2.3,0.2-2.8,1.3
		C406.6,24,406.6,24.6,406.8,25.2L406.8,25.2z M408.6,22.7c0.3,0,0.7,0,1,0.1c0.4,0.3,0.5,0.8,0.3,1.2c-0.1,0.1-0.2,0.2-0.3,0.2
		l-0.2,0.1l0.2,0.2c0.2,0.2,0.3,0.4,0.4,0.6c0.1,0.1,0.2,0.3,0.3,0.4c0.1,0.1,0,0.2-0.2,0.2l-0.3,0l-0.4-0.6c-0.4-0.6-0.5-0.7-1-0.7
		h-0.3v1.3l-0.2,0l-0.2,0l0-1.5l0-1.5L408.6,22.7z M408.7,24c0.5,0,0.6,0,0.7-0.1c0.4-0.3,0.2-0.7-0.4-0.8c-0.3,0-0.6,0-0.9,0
		c0,0.1,0,0.3,0,0.4V24L408.7,24z"/>
	<rect id="rect137" x="338.7" y="10.9" class="st34" width="66.9" height="133.7"/>
	<g id="text92">
		<g class="st36">
			<path class="st16" d="M303,182.6c0.1,0,0.1,0,0.2,0c0.1,0,0.1,0.1,0.1,0.2c0,0.1,0.1,0.2,0.1,0.3c0,0.1,0,0.3,0,0.5
				c0,0.3,0,0.5,0,0.7s-0.1,0.3-0.1,0.4c-0.1,0.1-0.1,0.2-0.2,0.2l-7.9,5.8h7.9c0.1,0,0.1,0,0.2,0c0.1,0,0.1,0.1,0.1,0.2
				c0,0.1,0.1,0.2,0.1,0.3c0,0.1,0,0.3,0,0.5c0,0.2,0,0.4,0,0.5c0,0.1,0,0.2-0.1,0.3c0,0.1-0.1,0.1-0.1,0.2c-0.1,0-0.1,0-0.2,0
				h-15.1c-0.1,0-0.1,0-0.2,0c0,0-0.1-0.1-0.1-0.2c0-0.1-0.1-0.2-0.1-0.3c0-0.1,0-0.3,0-0.5c0-0.2,0-0.4,0-0.5c0-0.1,0-0.2,0.1-0.3
				c0-0.1,0.1-0.1,0.1-0.2c0,0,0.1,0,0.2,0h7l-7-5.6c-0.1,0-0.1-0.1-0.2-0.2c0-0.1-0.1-0.1-0.1-0.2c0-0.1-0.1-0.2-0.1-0.3
				c0-0.1,0-0.3,0-0.5s0-0.4,0-0.5c0-0.1,0-0.2,0.1-0.3c0-0.1,0.1-0.1,0.1-0.2s0.1,0,0.2,0c0.1,0,0.2,0,0.3,0.1
				c0.1,0.1,0.3,0.2,0.4,0.3l6.3,5.2l7.5-5.6c0.2-0.1,0.4-0.2,0.4-0.2S303,182.6,303,182.6z"/>
		</g>
		<g class="st36">
			<path class="st16" d="M297.2,174.9h5.8c0.1,0,0.1,0,0.2,0s0.1,0.1,0.1,0.2c0,0.1,0.1,0.2,0.1,0.3c0,0.1,0,0.3,0,0.5
				c0,0.2,0,0.4,0,0.5c0,0.1,0,0.2-0.1,0.3s-0.1,0.1-0.1,0.2c0,0-0.1,0-0.2,0h-5.8l-8.9,4.5c-0.2,0.1-0.3,0.1-0.4,0.2
				c-0.1,0-0.2,0-0.2-0.1c-0.1-0.1-0.1-0.2-0.1-0.3c0-0.2,0-0.4,0-0.6c0-0.2,0-0.4,0-0.6c0-0.2,0-0.3,0.1-0.4c0-0.1,0.1-0.2,0.1-0.2
				c0.1,0,0.1-0.1,0.2-0.1l4.5-2.2c0.4-0.2,0.9-0.4,1.4-0.6c0.5-0.2,0.9-0.4,1.4-0.6v0c-0.5-0.2-0.9-0.4-1.4-0.6
				c-0.5-0.2-0.9-0.4-1.4-0.6l-4.6-2.2c-0.1,0-0.2-0.1-0.2-0.1c-0.1,0-0.1-0.1-0.1-0.2s-0.1-0.2-0.1-0.3c0-0.1,0-0.3,0-0.5
				c0-0.3,0-0.5,0-0.7c0-0.2,0.1-0.3,0.1-0.3c0.1-0.1,0.1-0.1,0.2-0.1c0.1,0,0.2,0.1,0.4,0.2L297.2,174.9z"/>
		</g>
		<g class="st36">
			<path class="st16" d="M297.2,164.5c0.3,0,0.5,0,0.7,0.1c0.1,0.1,0.2,0.2,0.2,0.3v5.1c0,0.1-0.1,0.3-0.2,0.3s-0.3,0.1-0.7,0.1
				c-0.3,0-0.5,0-0.6-0.1s-0.2-0.2-0.2-0.3v-5.1c0-0.1,0-0.1,0-0.2c0-0.1,0.1-0.1,0.1-0.1s0.2-0.1,0.3-0.1
				C296.9,164.5,297.1,164.5,297.2,164.5z"/>
			<path class="st16" d="M295.4,151.8c1.2,0,2.3,0.1,3.3,0.3c1,0.2,1.9,0.5,2.6,1c0.7,0.4,1.3,1,1.7,1.7c0.4,0.7,0.6,1.6,0.6,2.6
				c0,1-0.2,1.8-0.5,2.5c-0.4,0.7-0.9,1.2-1.6,1.6c-0.7,0.4-1.5,0.7-2.5,0.9c-1,0.2-2.2,0.3-3.5,0.3c-1.2,0-2.3-0.1-3.3-0.3
				c-1-0.2-1.9-0.5-2.6-1c-0.7-0.4-1.3-1-1.7-1.7s-0.6-1.6-0.6-2.6c0-1,0.2-1.8,0.5-2.5c0.4-0.7,0.9-1.2,1.6-1.6
				c0.7-0.4,1.5-0.7,2.5-0.9S294.1,151.8,295.4,151.8z M295.6,154c-0.8,0-1.5,0-2.1,0.1c-0.6,0.1-1.2,0.1-1.7,0.2
				c-0.5,0.1-0.9,0.3-1.2,0.4c-0.3,0.2-0.6,0.4-0.9,0.6c-0.2,0.2-0.4,0.5-0.5,0.8c-0.1,0.3-0.2,0.7-0.2,1.1c0,0.7,0.2,1.3,0.5,1.7
				c0.3,0.4,0.8,0.8,1.3,1c0.6,0.2,1.2,0.4,2,0.5c0.8,0.1,1.6,0.1,2.5,0.1c1.2,0,2.2-0.1,3-0.2s1.5-0.3,2-0.6c0.5-0.3,0.9-0.6,1.1-1
				c0.2-0.4,0.4-0.9,0.4-1.5c0-0.5-0.1-0.9-0.2-1.2s-0.4-0.6-0.6-0.9s-0.6-0.5-1-0.6c-0.4-0.2-0.8-0.3-1.3-0.4
				c-0.5-0.1-1-0.2-1.5-0.2C296.7,154,296.2,154,295.6,154z"/>
			<path class="st16" d="M295.4,139.2c1.2,0,2.3,0.1,3.3,0.3c1,0.2,1.9,0.5,2.6,1c0.7,0.4,1.3,1,1.7,1.7c0.4,0.7,0.6,1.6,0.6,2.6
				c0,1-0.2,1.8-0.5,2.5s-0.9,1.2-1.6,1.6c-0.7,0.4-1.5,0.7-2.5,0.9c-1,0.2-2.2,0.3-3.5,0.3c-1.2,0-2.3-0.1-3.3-0.3s-1.9-0.5-2.6-1
				c-0.7-0.4-1.3-1-1.7-1.7c-0.4-0.7-0.6-1.6-0.6-2.6c0-1,0.2-1.8,0.5-2.5c0.4-0.7,0.9-1.2,1.6-1.6c0.7-0.4,1.5-0.7,2.5-0.9
				S294.1,139.2,295.4,139.2z M295.6,141.3c-0.8,0-1.5,0-2.1,0.1c-0.6,0.1-1.2,0.1-1.7,0.2c-0.5,0.1-0.9,0.3-1.2,0.4
				c-0.3,0.2-0.6,0.4-0.9,0.6c-0.2,0.2-0.4,0.5-0.5,0.8c-0.1,0.3-0.2,0.7-0.2,1.1c0,0.7,0.2,1.3,0.5,1.7s0.8,0.8,1.3,1
				c0.6,0.2,1.2,0.4,2,0.5c0.8,0.1,1.6,0.1,2.5,0.1c1.2,0,2.2-0.1,3-0.2s1.5-0.3,2-0.6c0.5-0.3,0.9-0.6,1.1-1
				c0.2-0.4,0.4-0.9,0.4-1.5c0-0.5-0.1-0.9-0.2-1.2s-0.4-0.6-0.6-0.9s-0.6-0.5-1-0.6c-0.4-0.2-0.8-0.3-1.3-0.4
				c-0.5-0.1-1-0.2-1.5-0.2C296.7,141.4,296.2,141.3,295.6,141.3z"/>
			<path class="st16" d="M302.5,127.1c0.1,0,0.3,0,0.4,0c0.1,0,0.2,0,0.3,0.1c0.1,0,0.1,0.1,0.2,0.1c0,0.1,0.1,0.1,0.1,0.2v8.7
				c0,0.1,0,0.2,0,0.3c0,0.1-0.1,0.2-0.1,0.2c-0.1,0.1-0.2,0.1-0.3,0.1c-0.1,0-0.3,0-0.5,0c-0.2,0-0.3,0-0.4,0c-0.1,0-0.2,0-0.3-0.1
				c-0.1,0-0.2-0.1-0.3-0.2c-0.1-0.1-0.2-0.1-0.3-0.2l-3.2-3.2c-0.7-0.7-1.4-1.3-2-1.8c-0.6-0.4-1.1-0.8-1.6-1
				c-0.5-0.2-0.9-0.4-1.3-0.5c-0.4-0.1-0.8-0.1-1.1-0.1s-0.7,0.1-1,0.2c-0.3,0.1-0.6,0.3-0.8,0.5c-0.2,0.2-0.4,0.5-0.6,0.8
				c-0.1,0.3-0.2,0.7-0.2,1.2c0,0.5,0.1,1,0.2,1.4c0.1,0.4,0.3,0.8,0.5,1.1c0.2,0.3,0.3,0.6,0.5,0.8c0.1,0.2,0.2,0.4,0.2,0.5
				c0,0.1,0,0.1,0,0.2c0,0-0.1,0.1-0.2,0.1s-0.2,0.1-0.3,0.1s-0.3,0-0.4,0c-0.1,0-0.2,0-0.3,0c-0.1,0-0.2,0-0.2,0
				c-0.1,0-0.1,0-0.2-0.1c-0.1,0-0.1-0.1-0.2-0.2c-0.1-0.1-0.2-0.3-0.3-0.5c-0.1-0.2-0.3-0.5-0.4-0.9c-0.1-0.4-0.3-0.8-0.4-1.2
				s-0.1-0.9-0.1-1.4c0-0.8,0.1-1.4,0.3-2s0.5-1,0.9-1.4s0.8-0.7,1.3-0.8c0.5-0.2,1-0.3,1.6-0.3c0.5,0,1,0,1.5,0.1
				c0.5,0.1,1,0.3,1.6,0.6c0.6,0.3,1.2,0.7,1.9,1.2c0.7,0.5,1.5,1.3,2.5,2.2l2.6,2.5v-6.9c0-0.1,0-0.1,0.1-0.2
				c0-0.1,0.1-0.1,0.2-0.2c0.1,0,0.2-0.1,0.3-0.1C302.2,127.1,302.3,127.1,302.5,127.1z"/>
		</g>
	</g>
	<g id="text96">
		<g class="st36">
			<path class="st16" d="M318.3,236.2c0,0.7-0.1,1.4-0.4,2s-0.7,1.1-1.1,1.5c-0.5,0.4-1.1,0.7-1.7,0.9c-0.7,0.2-1.4,0.3-2.1,0.3
				c-0.5,0-1,0-1.5-0.1c-0.5-0.1-0.9-0.2-1.2-0.3s-0.7-0.3-0.9-0.4c-0.2-0.1-0.4-0.3-0.5-0.4c-0.1-0.1-0.2-0.2-0.2-0.4
				c0-0.2-0.1-0.4-0.1-0.6c0-0.2,0-0.3,0-0.4c0-0.1,0-0.2,0.1-0.3c0-0.1,0.1-0.1,0.1-0.2c0,0,0.1,0,0.2,0c0.1,0,0.3,0.1,0.5,0.2
				c0.2,0.1,0.5,0.3,0.8,0.5c0.3,0.2,0.7,0.3,1.2,0.5c0.5,0.1,1,0.2,1.6,0.2c0.5,0,0.9-0.1,1.2-0.2c0.4-0.1,0.7-0.3,1-0.5
				s0.5-0.5,0.6-0.8s0.2-0.7,0.2-1.1c0-0.4-0.1-0.8-0.3-1.1c-0.2-0.3-0.5-0.6-0.8-0.8c-0.3-0.2-0.7-0.5-1.1-0.7s-0.9-0.4-1.3-0.6
				c-0.4-0.2-0.9-0.4-1.3-0.7c-0.4-0.3-0.8-0.5-1.1-0.9c-0.3-0.3-0.6-0.7-0.8-1.2s-0.3-1-0.3-1.7c0-0.7,0.1-1.2,0.4-1.8
				c0.2-0.5,0.6-0.9,1-1.3c0.4-0.3,0.9-0.6,1.5-0.8c0.6-0.2,1.2-0.3,1.9-0.3c0.3,0,0.7,0,1.1,0.1s0.7,0.1,1,0.2
				c0.3,0.1,0.6,0.2,0.8,0.3s0.4,0.2,0.5,0.3s0.1,0.1,0.2,0.2c0,0,0,0.1,0.1,0.2c0,0.1,0,0.2,0,0.2s0,0.2,0,0.4c0,0.1,0,0.3,0,0.4
				c0,0.1,0,0.2-0.1,0.3c0,0.1-0.1,0.1-0.1,0.2c0,0-0.1,0.1-0.2,0.1c-0.1,0-0.2-0.1-0.4-0.2c-0.2-0.1-0.4-0.2-0.7-0.4
				c-0.3-0.1-0.6-0.3-1-0.4s-0.8-0.2-1.3-0.2c-0.4,0-0.8,0.1-1.1,0.2s-0.6,0.3-0.8,0.5c-0.2,0.2-0.4,0.4-0.5,0.7s-0.2,0.6-0.2,0.9
				c0,0.4,0.1,0.8,0.3,1.1c0.2,0.3,0.5,0.6,0.8,0.8s0.7,0.5,1.2,0.7s0.9,0.4,1.3,0.6c0.4,0.2,0.9,0.4,1.3,0.7s0.8,0.5,1.2,0.9
				c0.3,0.3,0.6,0.7,0.8,1.2C318.1,235.1,318.3,235.6,318.3,236.2z"/>
		</g>
	</g>
	<g id="text100">
		<g class="st36">
			<path class="st16" d="M436.8,232.9c0,0.3-0.1,0.5-0.3,0.7c-0.2,0.1-0.4,0.2-0.7,0.2h-12c-0.3,0-0.6-0.1-0.8-0.2s-0.3-0.3-0.3-0.7
				c0-0.3,0.1-0.5,0.3-0.6s0.4-0.2,0.8-0.2h12c0.2,0,0.3,0,0.4,0c0.1,0,0.2,0.1,0.3,0.1s0.2,0.2,0.2,0.3
				C436.8,232.7,436.8,232.8,436.8,232.9z"/>
		</g>
	</g>
</g>
<circle id="circle281-4" class="st27" cx="340.8" cy="260.1" r="11.6"/>
<circle id="circle281-5" class="st26" cx="371.6" cy="260.1" r="11.6"/>
<circle id="circle281-6" class="st25" cx="402.4" cy="260.1" r="11.6"/>
<rect id="rect73" x="336.2" y="260.1" class="st27" width="9.1" height="254.7"/>
<rect id="rect75" x="367" y="260.1" class="st26" width="9.1" height="107.7"/>
<rect id="rect853-2" x="397.8" y="260.1" class="st25" width="9.1" height="48.9"/>
</svg>
