<?xml version="1.0" encoding="UTF-8"?>
<svg xmlns="http://www.w3.org/2000/svg" version="1.1" xmlns:inkscape="http://www.inkscape.org/namespaces/inkscape" xmlns:sodipodi="http://sodipodi.sourceforge.net/DTD/sodipodi-0.dtd" xmlns:svg="http://www.w3.org/2000/svg" viewBox="0 0 937.6 801.3">
  <defs>
    <style>
      .cls-1 {
        fill: #2c2c2c;
      }

      .cls-2, .cls-3 {
        fill: #fff;
      }

      .cls-4 {
        fill: #493930;
      }

      .cls-5 {
        fill: #be8839;
      }

      .cls-6 {
        fill: #dbded7;
      }

      .cls-7 {
        fill: #914f00;
      }

      .cls-8 {
        fill: #9a2442;
      }

      .cls-9 {
        fill: #303030;
      }

      .cls-10 {
        fill: #f53200;
      }

      .cls-11 {
        fill: #47494a;
      }

      .cls-12 {
        fill: #655a50;
      }

      .cls-13 {
        fill: #00b589;
      }

      .cls-14 {
        fill: #e30613;
      }

      .cls-15 {
        fill: #474949;
      }

      .cls-16, .cls-17, .cls-18, .cls-3, .cls-19 {
        isolation: isolate;
      }

      .cls-20 {
        fill: #fcf7fd;
      }

      .cls-21 {
        fill: #ada390;
      }

      .cls-22 {
        fill: #686868;
      }

      .cls-23 {
        fill: #e3ad51;
      }

      .cls-24 {
        fill: #ddd;
      }

      .cls-25 {
        fill: #333;
      }

      .cls-26 {
        fill: #1a1a1a;
      }

      .cls-17 {
        fill: #c87137;
      }

      .cls-17, .cls-18, .cls-3, .cls-19 {
        opacity: 1;
      }

      .cls-27 {
        fill: #c4b3a8;
      }

      .cls-28 {
        fill: #a3928b;
      }

      .cls-29 {
        fill: #36323e;
      }

      .cls-18 {
        fill: gray;
      }

      .cls-30 {
        fill: #eaeaea;
      }

      .cls-31 {
        fill: #1a1919;
      }

      .cls-32 {
        fill: #e3b37d;
      }

      .cls-33 {
        fill: #010103;
      }

      .cls-19 {
        fill: #ccc;
      }

      .cls-34 {
        fill: #f5b93e;
      }

      .cls-35 {
        fill: #e0dcd3;
      }

      .cls-36 {
        fill: none;
        stroke: #493930;
        stroke-miterlimit: 10;
      }

      .cls-37 {
        fill: #bcb3ad;
      }
    </style>
  </defs>
  <!-- Generator: Adobe Illustrator 28.6.0, SVG Export Plug-In . SVG Version: 1.2.0 Build 709)  -->
  <g>
    <g id="svg8">
      <g>
        <path class="cls-31" d="M590.1,34H7.4c-4,0-7.3,3.2-7.3,7.3v719c0,4,3.2,7.3,7.3,7.3h17.6l34.2,34.2h365.2s34.1-34.2,34.1-34.2h131.6c4,0,7.3-3.2,7.3-7.3V41.2c0-4-3.2-7.3-7.3-7.3ZM28.4,208.4c-10,0-18.1-8.1-18.1-18.1s8.1-18.1,18.1-18.1,18.1,8.1,18.1,18.1-8.1,18.1-18.1,18.1ZM88.3,790.3c-10,0-18.1-8.1-18.1-18.1s8.1-18.1,18.1-18.1,18.1,8.1,18.1,18.1-8.1,18.1-18.1,18.1ZM401.4,790.3c-10,0-18.1-8.1-18.1-18.1s8.1-18.1,18.1-18.1,18.1,8.1,18.1,18.1-8.1,18.1-18.1,18.1ZM569.7,219.8c-10,0-18.1-8.1-18.1-18.1s8.1-18.1,18.1-18.1,18.1,8.1,18.1,18.1-8.1,18.1-18.1,18.1Z"/>
        <rect class="cls-9" x="56" y=".7" width="101.7" height="143.5"/>
        <path class="cls-9" d="M65,144.1h83.7v9.1c0,3.9-3.2,7.1-7.1,7.1h-69.4c-3.9,0-7.1-3.2-7.1-7.1v-9.1h0Z"/>
        <path class="cls-24" d="M571.6,72.7h-21.4v-4.6c0-.8-.6-1.4-1.4-1.4h-20.6c-.8,0-1.4.6-1.4,1.4v4.6h-21.4c-1,0-1.7.8-1.7,1.7v65.1c0,1,.8,1.7,1.7,1.7h66.3c1,0,1.7-.8,1.7-1.7v-65.1c0-1-.8-1.7-1.7-1.7Z"/>
        <circle class="cls-8" cx="538.4" cy="104" r="19.2"/>
        <g>
          <circle class="cls-24" cx="148.7" cy="252.7" r="35.2"/>
          <path class="cls-33" d="M129.8,228.1c-8.1,5.1-13.5,14.2-13.5,24.5s5.4,19.4,13.5,24.5v-49.1Z"/>
        </g>
        <g>
          <circle class="cls-24" cx="174.3" cy="351.6" r="35.2"/>
          <path class="cls-33" d="M166.9,321.5c-9.5,1.4-18.1,7.5-22.3,16.9s-2.9,19.9,2.4,27.9l19.9-44.9Z"/>
        </g>
        <rect class="cls-32" x="278.7" y="114.5" width="9.8" height="21.5"/>
        <rect class="cls-32" x="362.4" y="158.2" width="9.8" height="21.5"/>
        <rect class="cls-32" x="451.7" y="232.3" width="9.8" height="21.5" transform="translate(699.6 -213.6) rotate(90)"/>
        <rect class="cls-32" x="451.7" y="172.8" width="9.8" height="21.5" transform="translate(640.2 -273) rotate(90)"/>
        <rect class="cls-32" x="327.3" y="261.2" width="9.8" height="21.5"/>
        <rect class="cls-34" x="396.8" y="358.6" width="9.8" height="21.5"/>
        <rect class="cls-32" x="423.6" y="358.6" width="9.8" height="21.5"/>
        <rect class="cls-32" x="450" y="358.6" width="9.8" height="21.5"/>
        <rect class="cls-32" x="330" y="646.2" width="9.8" height="21.5" transform="translate(-321.9 991.9) rotate(-90)"/>
        <rect class="cls-34" x="387.4" y="664.4" width="9.8" height="21.5"/>
        <rect class="cls-15" x="302.7" y="158.2" width="31.5" height="14.6" rx="1.5" ry="1.5"/>
        <g>
          <path class="cls-35" d="M305.3,145.7h12.2v11.5h-12.2c-.7,0-1.2-.6-1.2-1.2v-9c0-.7.6-1.2,1.2-1.2Z" transform="translate(462.3 -159.4) rotate(90)"/>
          <path class="cls-35" d="M320.6,145.7h12.2v11.5h-12.2c-.7,0-1.2-.6-1.2-1.2v-9c0-.7.6-1.2,1.2-1.2Z" transform="translate(477.6 -174.6) rotate(90)"/>
        </g>
        <g>
          <rect class="cls-6" x="423.2" y="331.5" width="10.7" height="17.2"/>
          <rect class="cls-15" x="423.2" y="334" width="10.7" height="11.8"/>
        </g>
        <g>
          <rect class="cls-6" x="449.5" y="331.5" width="10.7" height="17.2"/>
          <rect class="cls-15" x="449.5" y="334" width="10.7" height="11.8"/>
        </g>
        <g>
          <rect class="cls-6" x="309.2" y="298.1" width="10.7" height="17.2" transform="translate(7.9 621.3) rotate(-90)"/>
          <rect class="cls-15" x="309.1" y="300.7" width="10.7" height="11.8" transform="translate(7.8 621.1) rotate(-90)"/>
        </g>
        <g>
          <rect class="cls-6" x="254.2" y="298.1" width="10.7" height="17.2" transform="translate(-47.1 566.2) rotate(-90)"/>
          <rect class="cls-15" x="254" y="300.7" width="10.7" height="11.8" transform="translate(-47.3 566) rotate(-90)"/>
        </g>
        <g>
          <rect class="cls-6" x="387.4" y="634.1" width="10.7" height="17.2"/>
          <rect class="cls-15" x="387.4" y="636.6" width="10.7" height="11.8"/>
        </g>
        <g>
          <rect class="cls-6" x="329.6" y="668.3" width="10.7" height="17.2" transform="translate(-341.9 1011.9) rotate(-90)"/>
          <rect class="cls-15" x="329.5" y="671" width="10.7" height="11.8" transform="translate(-342.1 1011.7) rotate(-90)"/>
        </g>
        <g>
          <rect class="cls-6" x="478.1" y="81.3" width="10.7" height="17.2"/>
          <rect class="cls-15" x="478.1" y="83.9" width="10.7" height="11.8"/>
        </g>
        <g>
          <rect class="cls-6" x="338.5" y="82.4" width="10.7" height="17.2"/>
          <rect class="cls-15" x="338.5" y="84.9" width="10.7" height="11.8"/>
        </g>
        <rect class="cls-28" x="442" y="195.5" width="12.2" height="32.8" rx="3.7" ry="3.7"/>
        <g>
          <rect class="cls-23" x="370" y="446.6" width="22.3" height="17.8" rx="2.9" ry="2.9" transform="translate(-210.5 403) rotate(-45)"/>
          <rect class="cls-27" x="370.9" y="447.3" width="20.5" height="16.4" rx="2.9" ry="2.9" transform="translate(-210.5 403) rotate(-45)"/>
        </g>
        <rect class="cls-37" x="374.9" y="422.6" width="12.2" height="11"/>
        <rect class="cls-37" x="394.5" y="422.6" width="12.2" height="11"/>
        <rect class="cls-37" x="374.9" y="475.5" width="12.2" height="11"/>
        <rect class="cls-37" x="394.5" y="475.5" width="12.2" height="11"/>
        <rect class="cls-10" x="326.4" y="698.8" width="20.8" height="11" rx="2.8" ry="2.8"/>
        <g>
          <path class="cls-2" d="M31.3,68.9v-4.5h2.1v7.1h-1.5c-2.9-2.4-4.8-2.7-8.9-2.8v-2.5c3.4.2,5.6.7,8.3,2.7Z"/>
          <path class="cls-2" d="M27.9,72.9v4h-1.7v-4h1.7Z"/>
          <path class="cls-2" d="M25,78.6v2.2h5.9v-1.9h1.5c.2,1.1.5,1.8.9,2.6v1.8h-8.4v1.9h-2v-6.6h2Z"/>
          <path class="cls-2" d="M24.5,86.7c2.3,2.7,4.2,4.4,5.6,4.4s1.5-.5,1.5-1.4-.5-1.3-1-1.8l1.3-1.3c1.1,1,1.7,1.9,1.7,3.4s-1.3,3.4-3.3,3.4-3.8-1.7-5.4-3.3c0,.5.1,1.2.1,1.7v2.1h-2.1v-7.2h1.5Z"/>
          <path class="cls-2" d="M33.4,94.4v2.6l-4.8,1.1c-1.1.3-2.2.5-3.3.8h0c1.1.4,2.2.6,3.3.9l4.8,1.2v2.5l-10.4-3.2v-3l10.4-3.1Z"/>
          <path class="cls-2" d="M33.4,108v2.5h-10.4v-2.5h10.4Z"/>
          <path class="cls-2" d="M33.4,112.8v2.6l-5,2.6c-.7.4-1.5.7-2.4,1h0c1.1,0,2.6-.3,3.8-.3h3.5v2.4h-10.4v-2.6l5-2.6c.7-.4,1.5-.7,2.4-1h0c-1.2,0-2.6.3-3.8.3h-3.5v-2.4h10.4Z"/>
          <path class="cls-2" d="M33.4,123.5v3.7c0,2.3-.8,4.2-3.4,4.2s-3.6-1.9-3.6-4.1v-1.2h-3.5v-2.5h10.4ZM28.4,127.1c0,1.2.6,1.8,1.6,1.8s1.4-.7,1.4-1.9v-1h-3v1.1Z"/>
          <path class="cls-2" d="M27.9,133.1h5.5v2.5h-5.8c-2,0-2.7.6-2.7,1.7s.7,1.8,2.7,1.8h5.8v2.4h-5.5c-3.5,0-5.1-1.4-5.1-4.2s1.6-4.2,5.1-4.2Z"/>
          <path class="cls-2" d="M31.3,145.8v-2.8h2.1v8.1h-2.1v-2.8h-8.3v-2.5h8.3Z"/>
        </g>
        <g>
          <path class="cls-2" d="M588.8,82.5v3.8c0,2.2-.8,4.1-3.3,4.1s-2.5-.7-3-1.8l-4.1,2.3v-2.8l3.7-1.9v-1.2h-3.7v-2.5h10.4ZM584,86.1c0,1.2.5,1.8,1.5,1.8s1.3-.6,1.3-1.8v-1.1h-2.8v1.1Z"/>
          <path class="cls-2" d="M588.8,92.4v6.6h-2.1v-4.1h-2v3.5h-2.1v-3.5h-2.2v4.3h-2.1v-6.8h10.4Z"/>
          <path class="cls-2" d="M579.7,100.5l1.6,1.3c-.6.7-1,1.7-1,2.6s.4,1.4.9,1.4.8-.6,1.2-1.5l.6-1.3c.4-1.1,1.3-2.1,2.8-2.1s3.2,1.6,3.2,3.8-.5,2.5-1.3,3.4l-1.6-1.3c.5-.7.8-1.4.8-2.1s-.3-1.3-.8-1.3-.8.7-1.2,1.6l-.5,1.3c-.5,1.3-1.4,2.1-2.8,2.1s-3.3-1.5-3.3-4,.5-2.8,1.5-3.9Z"/>
          <path class="cls-2" d="M588.8,110.1v6.6h-2.1v-4.1h-2v3.5h-2.1v-3.5h-2.2v4.3h-2.1v-6.8h10.4Z"/>
          <path class="cls-2" d="M586.7,120.9v-2.8h2.1v8.1h-2.1v-2.8h-8.3v-2.5h8.3Z"/>
        </g>
        <g>
          <path class="cls-2" d="M371.8,743.2v2.5h-10.4v-2.5h10.4Z"/>
          <path class="cls-2" d="M366.5,747.6c3.5,0,5.5,2.3,5.5,5s-.6,2.4-1.4,3.2l-1.5-1.3c.5-.5.7-1.1.7-1.8,0-1.4-1.2-2.5-3.2-2.5s-3.3,1-3.3,2.4.3,1.5.9,2l-1.5,1.3c-1-.9-1.5-2.1-1.5-3.4,0-2.7,1.8-4.9,5.3-4.9Z"/>
          <path class="cls-2" d="M362.7,756.3l1.6,1.3c-.6.7-1,1.7-1,2.6s.4,1.4.9,1.4.8-.6,1.2-1.5l.6-1.3c.4-1.1,1.3-2.1,2.8-2.1s3.2,1.6,3.2,3.8-.5,2.5-1.3,3.4l-1.6-1.3c.5-.7.8-1.4.8-2.1s-.3-1.3-.8-1.3-.8.7-1.2,1.6l-.5,1.3c-.5,1.3-1.4,2.1-2.8,2.1s-3.3-1.5-3.3-4,.5-2.8,1.5-3.9Z"/>
          <path class="cls-2" d="M371.8,765.9v3.7c0,2.3-.8,4.2-3.4,4.2s-3.6-1.9-3.6-4.1v-1.2h-3.5v-2.5h10.4ZM366.8,769.5c0,1.2.6,1.8,1.6,1.8s1.4-.7,1.4-1.9v-1h-3v1.1Z"/>
        </g>
        <path class="cls-2" d="M388.8,695.1c-1.2,1-2,2.5-2,4.2,0,3,2.5,5.5,5.5,5.5s5.5-2.5,5.5-5.5-.8-3.2-2-4.2c-.4-.4-.5-1-.1-1.4s1-.5,1.4-.1c1.6,1.4,2.7,3.5,2.7,5.8,0,4.1-3.4,7.5-7.5,7.5s-7.5-3.4-7.5-7.5,1.1-4.4,2.7-5.8c.4-.4,1.1-.3,1.4.1.4.4.3,1.1-.1,1.4h0ZM393.3,699.3c0,.6-.4,1-1,1s-1-.4-1-1v-7c0-.6.4-1,1-1s1,.4,1,1v7Z"/>
        <polyline class="cls-36" points="36.1 226.5 42.8 226.5 105.4 289.1 116.2 289.1"/>
        <polyline class="cls-36" points="35.9 234.6 42.8 234.6 103 294.7 103 426.5 159.7 483.2 212.5 483.2 224.7 470.8 263.7 470.8"/>
        <polyline class="cls-36" points="33.5 262.1 44.8 262.1 87 304.2 87 427.2 156.8 497.1 268.5 497.1"/>
        <polyline class="cls-36" points="23 347.6 62 386.6 62 450.5 33.3 479.2"/>
        <line class="cls-4" x1="76.2" y1="429.3" x2="152" y2="505.1"/>
        <polyline class="cls-36" points="131.5 496.6 88.7 539.4 24.6 539.4"/>
        <polyline class="cls-36" points="131.5 507.3 91.4 547.3 26.1 547.3"/>
        <polyline class="cls-36" points="267.5 505.8 234.9 505.8 159.3 581.4 78.8 581.4 56.1 604 31.3 604"/>
        <polyline class="cls-36" points="249.6 514.8 249.6 561.2 179.8 631 30.6 631"/>
        <polyline class="cls-36" points="264.9 534.8 264.9 571.1 176.4 659.5 31.3 659.5"/>
        <polyline class="cls-36" points="273.7 534.5 273.7 573.8 158.9 688.6 24.6 688.6"/>
        <polyline class="cls-36" points="282.7 535.5 282.7 581.1 147.5 716.2 30.6 716.2"/>
        <polyline class="cls-36" points="291.2 539.5 291.2 588.9 134.8 745.3 30.6 745.3"/>
        <line class="cls-4" x1="328.9" y1="624.4" x2="292.3" y2="587.8"/>
        <polyline class="cls-36" points="331.3 640.7 306.1 615.5 280.2 615.5"/>
        <polyline class="cls-36" points="344.5 648.5 344.5 589.8 299.9 545.1 299.9 525.7"/>
        <polyline class="cls-36" points="278.6 763.3 262.2 747 262.2 682.3 287.5 657"/>
        <polyline class="cls-36" points="308.3 534.1 308.3 544.9 361.9 598.5 401.6 598.5 507 703.8 507 732.9 518.7 744.7 563.8 744.7"/>
        <polyline class="cls-36" points="317.2 535.2 317.2 546 359.5 588.3 421.6 588.3 568.8 735.6"/>
        <polyline class="cls-36" points="327.3 534.7 368.1 575.5 433.6 575.5 574.1 715.9"/>
        <polyline class="cls-36" points="345.9 514.1 400.3 514.1 571.4 685.1"/>
        <polyline class="cls-36" points="347.2 505.8 407.4 505.8 573.6 672"/>
        <polyline class="cls-36" points="496.1 525.6 489.2 518.6 443.2 518.6"/>
        <polyline class="cls-36" points="347.2 462.1 358.3 462.1 367.2 471 377.9 471"/>
        <polyline class="cls-36" points="347 453.2 357 453.2 367.5 442.7 380.7 442.7"/>
        <polyline class="cls-36" points="325.5 429.7 342 413.3 411.9 413.3 566.9 568.3"/>
        <polyline class="cls-36" points="317.1 431.5 317.1 426.9 336.6 407.4 414.8 407.4 575.2 567.8"/>
        <polyline class="cls-36" points="308.4 431.4 308.4 423 328.6 402.8 418.6 402.8 575 559.1"/>
        <polyline class="cls-36" points="299.8 429.9 299.8 421.7 323.6 397.9 419 397.9 576.5 555.4"/>
        <polyline class="cls-36" points="291.2 429.4 291.2 417.4 316.1 392.5 420.2 392.5 580.6 552.9"/>
        <polyline class="cls-36" points="282.3 431 282.3 409.3 303.5 389.2 425.2 389.2 480.3 444.3 580.6 444.3"/>
        <polyline class="cls-36" points="273.7 429.2 273.7 405.9 297.4 384 426.9 384 458.2 415.3 579.2 415.3"/>
        <polyline class="cls-36" points="264.9 428.7 264.9 404.7 286.9 382.7 290.3 379.3"/>
        <polyline class="cls-36" points="221.3 446.8 221.3 417.7 289.7 349.4 315.5 349.4 322.5 356.4 372.3 356.4 399.7 329 426.9 329"/>
        <polyline class="cls-36" points="210.4 343.9 314.4 343.9 335.2 323.1 354.5 323.1"/>
        <polyline class="cls-36" points="286.8 273.3 286.8 284.1 277.8 293.1 260.4 293.1 247.7 280.4 247.7 271.2 247.7 246.1"/>
        <polyline class="cls-36" points="227 215.4 227 207.1 232.5 201.6 249.4 201.6"/>
        <polyline class="cls-36" points="191.3 193.1 237.5 193.1 258.1 172.5 258.1 150.7"/>
        <polyline class="cls-36" points="319.3 179.5 333.2 179.5 341.8 170.9 341.8 138.4 313.8 110.4 298.1 110.4 276.1 88.4"/>
        <polyline class="cls-36" points="286 84.9 299.8 98.7 311.4 98.7"/>
        <polyline class="cls-36" points="323.4 82.4 323.4 102.6 344.5 123.8 380 123.8 384.7 119.1 384.7 89.9"/>
        <path class="cls-36" d="M402.7,199.9v-48.4"/>
        <path class="cls-36" d="M418.2,151.5v22"/>
        <polyline class="cls-36" points="415.8 207.1 428.2 207.1 440.1 195.2"/>
        <polyline class="cls-36" points="415.6 220.9 428.5 220.9 440.7 233"/>
        <line class="cls-36" x1="416.2" y1="262.1" x2="439.7" y2="262.1"/>
        <line class="cls-36" x1="413.9" y1="276.1" x2="442" y2="276.1"/>
        <polyline class="cls-36" points="415.6 289.5 426.9 289.5 442 289.5"/>
        <line class="cls-36" x1="563" y1="152.4" x2="530.5" y2="184.9"/>
        <g>
          <rect class="cls-15" x="257.4" y="445.9" width="76" height="76" rx="5.9" ry="5.9"/>
          <circle class="cls-1" cx="322.4" cy="510" r="4.8"/>
          <g>
            <path class="cls-35" d="M240.5,450.5h16.9v5.9h-16.9c-.7,0-1.2-.6-1.2-1.2v-3.4c0-.7.6-1.2,1.2-1.2Z"/>
            <path class="cls-35" d="M240.5,459.2h16.9v5.9h-16.9c-.7,0-1.2-.6-1.2-1.2v-3.4c0-.7.6-1.2,1.2-1.2Z"/>
            <path class="cls-35" d="M240.5,467.9h16.9v5.9h-16.9c-.7,0-1.2-.6-1.2-1.2v-3.4c0-.7.6-1.2,1.2-1.2Z"/>
            <path class="cls-35" d="M240.5,476.6h16.9v5.9h-16.9c-.7,0-1.2-.6-1.2-1.2v-3.4c0-.7.6-1.2,1.2-1.2Z"/>
            <path class="cls-35" d="M240.5,485.3h16.9v5.9h-16.9c-.7,0-1.2-.6-1.2-1.2v-3.4c0-.7.6-1.2,1.2-1.2Z"/>
            <path class="cls-35" d="M240.5,494h16.9v5.9h-16.9c-.7,0-1.2-.6-1.2-1.2v-3.4c0-.7.6-1.2,1.2-1.2Z"/>
            <path class="cls-35" d="M240.5,502.7h16.9v5.9h-16.9c-.7,0-1.2-.6-1.2-1.2v-3.4c0-.7.6-1.2,1.2-1.2Z"/>
            <path class="cls-35" d="M240.5,511.4h16.9v5.9h-16.9c-.7,0-1.2-.6-1.2-1.2v-3.4c0-.7.6-1.2,1.2-1.2Z"/>
          </g>
          <g>
            <path class="cls-35" d="M317.9,433.9h16.9v5.9h-16.9c-.7,0-1.2-.6-1.2-1.2v-3.4c0-.7.6-1.2,1.2-1.2Z" transform="translate(762.6 111.1) rotate(90)"/>
            <path class="cls-35" d="M309.2,433.9h16.9v5.9h-16.9c-.7,0-1.2-.6-1.2-1.2v-3.4c0-.7.6-1.2,1.2-1.2Z" transform="translate(753.9 119.8) rotate(90)"/>
            <path class="cls-35" d="M300.6,433.9h16.9v5.9h-16.9c-.7,0-1.2-.6-1.2-1.2v-3.4c0-.7.6-1.2,1.2-1.2Z" transform="translate(745.2 128.5) rotate(90)"/>
            <path class="cls-35" d="M291.9,433.9h16.9v5.9h-16.9c-.7,0-1.2-.6-1.2-1.2v-3.4c0-.7.6-1.2,1.2-1.2Z" transform="translate(736.5 137.1) rotate(90)"/>
            <path class="cls-35" d="M283.2,433.9h16.9v5.9h-16.9c-.7,0-1.2-.6-1.2-1.2v-3.4c0-.7.6-1.2,1.2-1.2Z" transform="translate(727.8 145.8) rotate(90)"/>
            <path class="cls-35" d="M274.5,433.9h16.9v5.9h-16.9c-.7,0-1.2-.6-1.2-1.2v-3.4c0-.7.6-1.2,1.2-1.2Z" transform="translate(719.1 154.5) rotate(90)"/>
            <path class="cls-35" d="M265.8,433.9h16.9v5.9h-16.9c-.7,0-1.2-.6-1.2-1.2v-3.4c0-.7.6-1.2,1.2-1.2Z" transform="translate(710.4 163.2) rotate(90)"/>
            <path class="cls-35" d="M257.1,433.9h16.9v5.9h-16.9c-.7,0-1.2-.6-1.2-1.2v-3.4c0-.7.6-1.2,1.2-1.2Z" transform="translate(701.7 171.9) rotate(90)"/>
          </g>
          <g>
            <path class="cls-35" d="M257.1,528h16.9v5.9h-16.9c-.7,0-1.2-.6-1.2-1.2v-3.4c0-.7.6-1.2,1.2-1.2Z" transform="translate(-266 795.8) rotate(-90)"/>
            <path class="cls-35" d="M265.8,528h16.9v5.9h-16.9c-.7,0-1.2-.6-1.2-1.2v-3.4c0-.7.6-1.2,1.2-1.2Z" transform="translate(-257.3 804.5) rotate(-90)"/>
            <path class="cls-35" d="M274.5,528h16.9v5.9h-16.9c-.7,0-1.2-.6-1.2-1.2v-3.4c0-.7.6-1.2,1.2-1.2Z" transform="translate(-248.6 813.2) rotate(-90)"/>
            <path class="cls-35" d="M283.2,528h16.9v5.9h-16.9c-.7,0-1.2-.6-1.2-1.2v-3.4c0-.7.6-1.2,1.2-1.2Z" transform="translate(-239.9 821.9) rotate(-90)"/>
            <path class="cls-35" d="M291.9,528h16.9v5.9h-16.9c-.7,0-1.2-.6-1.2-1.2v-3.4c0-.7.6-1.2,1.2-1.2Z" transform="translate(-231.2 830.6) rotate(-90)"/>
            <path class="cls-35" d="M300.6,528h16.9v5.9h-16.9c-.7,0-1.2-.6-1.2-1.2v-3.4c0-.7.6-1.2,1.2-1.2Z" transform="translate(-222.6 839.3) rotate(-90)"/>
            <path class="cls-35" d="M309.2,528h16.9v5.9h-16.9c-.7,0-1.2-.6-1.2-1.2v-3.4c0-.7.6-1.2,1.2-1.2Z" transform="translate(-213.9 848) rotate(-90)"/>
            <path class="cls-35" d="M317.9,528h16.9v5.9h-16.9c-.7,0-1.2-.6-1.2-1.2v-3.4c0-.7.6-1.2,1.2-1.2Z" transform="translate(-205.2 856.7) rotate(-90)"/>
          </g>
          <g>
            <path class="cls-35" d="M334.6,511.1h16.9v5.9h-16.9c-.7,0-1.2-.6-1.2-1.2v-3.4c0-.7.6-1.2,1.2-1.2Z" transform="translate(684.8 1028.1) rotate(180)"/>
            <path class="cls-35" d="M334.6,502.4h16.9v5.9h-16.9c-.7,0-1.2-.6-1.2-1.2v-3.4c0-.7.6-1.2,1.2-1.2Z" transform="translate(684.8 1010.7) rotate(180)"/>
            <path class="cls-35" d="M334.6,493.7h16.9v5.9h-16.9c-.7,0-1.2-.6-1.2-1.2v-3.4c0-.7.6-1.2,1.2-1.2Z" transform="translate(684.8 993.3) rotate(180)"/>
            <path class="cls-35" d="M334.6,485h16.9v5.9h-16.9c-.7,0-1.2-.6-1.2-1.2v-3.4c0-.7.6-1.2,1.2-1.2Z" transform="translate(684.8 975.9) rotate(180)"/>
            <path class="cls-35" d="M334.6,476.3h16.9v5.9h-16.9c-.7,0-1.2-.6-1.2-1.2v-3.4c0-.7.6-1.2,1.2-1.2Z" transform="translate(684.8 958.5) rotate(180)"/>
            <path class="cls-35" d="M334.6,467.6h16.9v5.9h-16.9c-.7,0-1.2-.6-1.2-1.2v-3.4c0-.7.6-1.2,1.2-1.2Z" transform="translate(684.8 941.1) rotate(180)"/>
            <path class="cls-35" d="M334.6,458.9h16.9v5.9h-16.9c-.7,0-1.2-.6-1.2-1.2v-3.4c0-.7.6-1.2,1.2-1.2Z" transform="translate(684.8 923.7) rotate(180)"/>
            <path class="cls-35" d="M334.6,450.2h16.9v5.9h-16.9c-.7,0-1.2-.6-1.2-1.2v-3.4c0-.7.6-1.2,1.2-1.2Z" transform="translate(684.8 906.3) rotate(180)"/>
          </g>
        </g>
        <path class="cls-2" d="M247.1,609.1v7.2c0,1.3,0,2.5-.1,3.5,0,.8-.2,1.6-.4,2.4-.2.7-.5,1.3-.8,1.9-.5.7-1,1.4-1.6,2-.6.7-1.5,1.2-2.5,1.6-1.1.3-2.3.5-3.7.5h-6v-7.4h3.7c.5,0,.9,0,1.4-.2.3-.1.6-.3.9-.6.2-.3.4-.7.5-1.1.1-.6.2-1.2.2-1.7v-7.9h8.5ZM232.7,632.5h95v3.1h-95v-3.1ZM247.1,597.1v7.4h-8.5v-7.4h8.5ZM267.4,596.6c1.1,0,2.3,0,3.4.3,1,.2,2.1.5,3.1.9,1,.4,1.9.9,2.7,1.4.9.6,1.7,1.2,2.4,2,.7.7,1.4,1.6,1.9,2.4.6.9,1,1.8,1.4,2.7.4,1,.7,2,.8,3.1.2,1.1.3,2.3.3,3.4,0,1.1,0,2.2-.3,3.3-.2,1-.5,2-.8,3-.4.9-.8,1.9-1.4,2.7-.6.9-1.2,1.7-1.9,2.4-.7.7-1.5,1.4-2.4,2-.8.6-1.7,1-2.7,1.4-1,.4-2,.7-3,.9-1.1.2-2.2.3-3.3.3-1.1,0-2.3,0-3.4-.3-1-.2-2.1-.5-3.1-.8-1-.4-1.9-.8-2.7-1.4-1.7-1.1-3.2-2.6-4.4-4.4-.6-.9-1-1.8-1.4-2.7-.4-1-.7-2-.9-3-.4-2.2-.4-4.5,0-6.7.2-1,.5-2.1.9-3,.4-1,.8-1.9,1.4-2.7.6-.9,1.2-1.7,2-2.5.7-.8,1.5-1.4,2.4-2,.8-.6,1.7-1.1,2.7-1.4,1-.4,2-.7,3-.9,1.1-.2,2.2-.3,3.3-.3h0ZM267.4,603.7c-1,0-2,.2-3,.6-.9.4-1.6,1-2.2,1.8-.6.8-1.1,1.8-1.4,2.8-.3,1.1-.5,2.3-.5,3.7,0,1.3.1,2.5.5,3.8.3,1,.8,2,1.4,2.9.6.8,1.4,1.4,2.3,1.8.9.4,1.9.6,3,.6,1,0,2-.2,3-.6.9-.4,1.6-1,2.2-1.8.6-.9,1.1-1.8,1.4-2.8.3-1.1.5-2.4.5-3.8,0-1.2-.1-2.5-.5-3.7-.3-1-.8-2-1.4-2.8-.6-.8-1.4-1.4-2.3-1.8-.9-.4-1.9-.6-3-.6h0ZM286.9,597.1h8.5v7.7c0,1.6.3,2.8.9,3.6s1.6,1.2,2.8,1.2c1.3,0,2.3-.4,2.9-1.3s1-2.1,1-3.8v-7.4h8.4v5.4c0,1.3,0,2.5-.2,3.6,0,.9-.2,1.8-.5,2.7-.3.9-.6,1.7-1.1,2.5-.6,1-1.3,1.9-2,2.7-.4.5-.9.9-1.5,1.3-.6.4-1.2.7-1.9.9-.8.3-1.6.4-2.4.5-.9.1-1.9.2-2.8.2-.9,0-1.8,0-2.7-.2-.8-.1-1.5-.3-2.3-.5-.7-.2-1.3-.5-1.9-.9-.5-.3-1-.7-1.5-1.2-.8-.8-1.5-1.7-2.1-2.6-.5-.7-.9-1.5-1.2-2.4-.3-.9-.4-1.8-.5-2.7-.1-1.1-.2-2.3-.2-3.4v-6.1ZM306.2,620.7v7.4h-14.2v-7.4h14.2ZM310.2,590.4h56.8v2.9h-56.8v-2.9ZM313.8,610.6h18.3v7.3h-18.3v-7.3ZM343.8,597.1v7.4h-8.5v-7.4h8.5ZM343.8,609.1v19.1h-8.5v-19.1h8.5ZM368.3,597.1v7.4h-19.9v-7.4h19.9ZM349.8,609.1h8.4v7.7c0,.7,0,1.3.2,2,.1.5.3.9.5,1.2.2.2.6.4,1.1.6.6.1,1.2.2,1.8.2h5.5v7.4h-7.9c-.8,0-1.6,0-2.3-.2-.7,0-1.4-.3-2-.5-.6-.2-1.1-.5-1.7-.8-.5-.3-.9-.7-1.3-1.1-.4-.4-.7-.9-1-1.5-.3-.6-.5-1.2-.7-1.9-.2-.8-.3-1.5-.4-2.3,0-.9-.1-1.8-.1-2.7v-8.1Z"/>
        <rect class="cls-32" x="209" y="437.6" width="9.8" height="21.5" transform="translate(-234.4 662.3) rotate(-90)"/>
        <rect class="cls-32" x="349.5" y="321.4" width="9.8" height="21.5"/>
        <g>
          <rect class="cls-15" x="268.1" y="224.8" width="50.5" height="39.3" rx="2.5" ry="2.5"/>
          <circle class="cls-1" cx="272.4" cy="256.1" r="2.7"/>
          <g>
            <path class="cls-35" d="M268,267.7h12.2v6.1h-12.2c-.7,0-1.2-.6-1.2-1.2v-3.6c0-.7.6-1.2,1.2-1.2Z" transform="translate(2.7 544.2) rotate(-90)"/>
            <path class="cls-35" d="M281.3,267.7h12.2v6.1h-12.2c-.7,0-1.2-.6-1.2-1.2v-3.6c0-.7.6-1.2,1.2-1.2Z" transform="translate(16 557.5) rotate(-90)"/>
            <path class="cls-35" d="M294.5,267.7h12.2v6.1h-12.2c-.7,0-1.2-.6-1.2-1.2v-3.6c0-.7.6-1.2,1.2-1.2Z" transform="translate(29.3 570.8) rotate(-90)"/>
            <path class="cls-35" d="M307.8,267.7h12.2v6.1h-12.2c-.7,0-1.2-.6-1.2-1.2v-3.6c0-.7.6-1.2,1.2-1.2Z" transform="translate(42.6 584.1) rotate(-90)"/>
          </g>
          <g>
            <path class="cls-35" d="M307.8,215h12.2v6.1h-12.2c-.7,0-1.2-.6-1.2-1.2v-3.6c0-.7.6-1.2,1.2-1.2Z" transform="translate(531.4 -95.3) rotate(90)"/>
            <path class="cls-35" d="M294.5,215h12.2v6.1h-12.2c-.7,0-1.2-.6-1.2-1.2v-3.6c0-.7.6-1.2,1.2-1.2Z" transform="translate(518.1 -82) rotate(90)"/>
            <path class="cls-35" d="M281.3,215h12.2v6.1h-12.2c-.7,0-1.2-.6-1.2-1.2v-3.6c0-.7.6-1.2,1.2-1.2Z" transform="translate(504.8 -68.7) rotate(90)"/>
            <path class="cls-35" d="M268,215h12.2v6.1h-12.2c-.7,0-1.2-.6-1.2-1.2v-3.6c0-.7.6-1.2,1.2-1.2Z" transform="translate(491.5 -55.4) rotate(90)"/>
          </g>
        </g>
        <g>
          <g>
            <path class="cls-35" d="M222.2,242.3h12.2v9.6h-12.2c-.7,0-1.2-.6-1.2-1.2v-7.1c0-.7.6-1.2,1.2-1.2Z" transform="translate(-19.4 474.8) rotate(-90)"/>
            <path class="cls-35" d="M241.8,242.3h12.2v9.6h-12.2c-.7,0-1.2-.6-1.2-1.2v-7.1c0-.7.6-1.2,1.2-1.2Z" transform="translate(.2 494.4) rotate(-90)"/>
          </g>
          <g>
            <path class="cls-35" d="M221.5,214.3h12.2v6.1h-12.2c-.7,0-1.2-.6-1.2-1.2v-3.6c0-.7.6-1.2,1.2-1.2Z" transform="translate(444.3 -9.7) rotate(90)"/>
            <path class="cls-35" d="M232,214.3h12.2v6.1h-12.2c-.7,0-1.2-.6-1.2-1.2v-3.6c0-.7.6-1.2,1.2-1.2Z" transform="translate(454.8 -20.2) rotate(90)"/>
            <path class="cls-35" d="M242.5,214.3h12.2v6.1h-12.2c-.7,0-1.2-.6-1.2-1.2v-3.6c0-.7.6-1.2,1.2-1.2Z" transform="translate(465.3 -30.7) rotate(90)"/>
          </g>
          <rect class="cls-15" x="222.3" y="224" width="30.4" height="16.3" rx=".7" ry=".7"/>
        </g>
        <rect class="cls-32" x="233.8" y="260.4" width="9.8" height="21.5" transform="translate(-32.5 509.9) rotate(-90)"/>
        <g>
          <rect class="cls-15" x="365.6" y="201.7" width="34.4" height="107"/>
          <g>
            <path class="cls-35" d="M348.7,204.2h16.9v5.9h-16.9c-.7,0-1.2-.6-1.2-1.2v-3.4c0-.7.6-1.2,1.2-1.2Z"/>
            <path class="cls-35" d="M348.7,217.9h16.9v5.9h-16.9c-.7,0-1.2-.6-1.2-1.2v-3.4c0-.7.6-1.2,1.2-1.2Z"/>
            <path class="cls-35" d="M348.7,231.7h16.9v5.9h-16.9c-.7,0-1.2-.6-1.2-1.2v-3.4c0-.7.6-1.2,1.2-1.2Z"/>
            <path class="cls-35" d="M348.7,245.4h16.9v5.9h-16.9c-.7,0-1.2-.6-1.2-1.2v-3.4c0-.7.6-1.2,1.2-1.2Z"/>
            <path class="cls-35" d="M348.7,259.1h16.9v5.9h-16.9c-.7,0-1.2-.6-1.2-1.2v-3.4c0-.7.6-1.2,1.2-1.2Z"/>
            <path class="cls-35" d="M348.7,272.8h16.9v5.9h-16.9c-.7,0-1.2-.6-1.2-1.2v-3.4c0-.7.6-1.2,1.2-1.2Z"/>
            <path class="cls-35" d="M348.7,286.6h16.9v5.9h-16.9c-.7,0-1.2-.6-1.2-1.2v-3.4c0-.7.6-1.2,1.2-1.2Z"/>
            <path class="cls-35" d="M348.7,300.3h16.9v5.9h-16.9c-.7,0-1.2-.6-1.2-1.2v-3.4c0-.7.6-1.2,1.2-1.2Z"/>
          </g>
          <g>
            <path class="cls-35" d="M401.2,300.3h16.9v5.9h-16.9c-.7,0-1.2-.6-1.2-1.2v-3.4c0-.7.6-1.2,1.2-1.2Z" transform="translate(818.1 606.5) rotate(180)"/>
            <path class="cls-35" d="M401.2,286.6h16.9v5.9h-16.9c-.7,0-1.2-.6-1.2-1.2v-3.4c0-.7.6-1.2,1.2-1.2Z" transform="translate(818.1 579) rotate(180)"/>
            <path class="cls-35" d="M401.2,272.8h16.9v5.9h-16.9c-.7,0-1.2-.6-1.2-1.2v-3.4c0-.7.6-1.2,1.2-1.2Z" transform="translate(818.1 551.6) rotate(180)"/>
            <path class="cls-35" d="M401.2,259.1h16.9v5.9h-16.9c-.7,0-1.2-.6-1.2-1.2v-3.4c0-.7.6-1.2,1.2-1.2Z" transform="translate(818.1 524.1) rotate(180)"/>
            <path class="cls-35" d="M401.2,245.4h16.9v5.9h-16.9c-.7,0-1.2-.6-1.2-1.2v-3.4c0-.7.6-1.2,1.2-1.2Z" transform="translate(818.1 496.7) rotate(180)"/>
            <path class="cls-35" d="M401.2,231.7h16.9v5.9h-16.9c-.7,0-1.2-.6-1.2-1.2v-3.4c0-.7.6-1.2,1.2-1.2Z" transform="translate(818.1 469.2) rotate(180)"/>
            <path class="cls-35" d="M401.2,217.9h16.9v5.9h-16.9c-.7,0-1.2-.6-1.2-1.2v-3.4c0-.7.6-1.2,1.2-1.2Z" transform="translate(818.1 441.8) rotate(180)"/>
            <path class="cls-35" d="M401.2,204.2h16.9v5.9h-16.9c-.7,0-1.2-.6-1.2-1.2v-3.4c0-.7.6-1.2,1.2-1.2Z" transform="translate(818.1 414.3) rotate(180)"/>
          </g>
          <circle class="cls-1" cx="391.9" cy="298.8" r="4.9"/>
        </g>
        <rect class="cls-32" x="444.6" y="248.4" width="9.8" height="21.5" transform="translate(708.6 -190.4) rotate(90)"/>
        <g>
          <rect class="cls-6" x="444.2" y="267.7" width="10.7" height="17.2" transform="translate(725.8 -173.2) rotate(90)"/>
          <rect class="cls-15" x="444.3" y="270.4" width="10.7" height="11.8" transform="translate(726 -173.4) rotate(90)"/>
        </g>
        <g>
          <rect class="cls-6" x="444.2" y="285.3" width="10.7" height="17.2" transform="translate(743.4 -155.6) rotate(90)"/>
          <rect class="cls-15" x="444.3" y="288" width="10.7" height="11.8" transform="translate(743.6 -155.8) rotate(90)"/>
        </g>
        <g>
          <rect class="cls-6" x="397.3" y="136.5" width="10.7" height="17.2"/>
          <rect class="cls-15" x="397.3" y="139" width="10.7" height="11.8"/>
        </g>
        <g>
          <rect class="cls-6" x="412.9" y="136.3" width="10.7" height="17.2"/>
          <rect class="cls-15" x="412.9" y="138.9" width="10.7" height="11.8"/>
        </g>
        <path class="cls-35" d="M312.1,173.8h12.2v11.5h-12.2c-.7,0-1.2-.6-1.2-1.2v-9c0-.7.6-1.2,1.2-1.2Z" transform="translate(138.1 497.2) rotate(-90)"/>
        <g>
          <rect class="cls-5" x="274.8" y="54.6" width="51.5" height="35.1"/>
          <rect class="cls-12" x="287.2" y="54.6" width="26.7" height="35.1"/>
        </g>
        <g>
          <path class="cls-24" d="M370.1,20.4h0s87.6,0,87.6,0h0c2.7,1.4,4.4,4.2,4.4,7.3v70.1c0,1-.8,1.8-1.8,1.8h-92.8c-1,0-1.8-.8-1.8-1.8V27.7c0-3,1.7-5.8,4.4-7.3Z"/>
          <g>
            <path class="cls-22" d="M444.9,93.8h0c0-1.3-1.1-2.4-2.4-2.4h-9.9c-.8,0-1.5-.7-1.5-1.5v-2.1c0-.8.7-1.5,1.5-1.5h9.9c1.3,0,2.4-1.1,2.4-2.4h0c0-1.3-1.1-2.4-2.4-2.4h-14c-1.3,0-2.4,1.1-2.4,2.4v10c0,1.3,1.1,2.4,2.4,2.4h14c1.3,0,2.4-1.1,2.4-2.4Z"/>
            <path class="cls-22" d="M383,83.8h0c0,1.3,1.1,2.4,2.4,2.4h9.9c.8,0,1.5.7,1.5,1.5v2.1c0,.8-.7,1.5-1.5,1.5h-9.9c-1.3,0-2.4,1.1-2.4,2.4h0c0,1.3,1.1,2.4,2.4,2.4h14c1.3,0,2.4-1.1,2.4-2.4v-10c0-1.3-1.1-2.4-2.4-2.4h-14c-1.3,0-2.4,1.1-2.4,2.4Z"/>
          </g>
        </g>
        <g>
          <rect class="cls-15" x="198.2" y="101.4" width="69.5" height="37" rx="1.2" ry="1.2"/>
          <g>
            <path class="cls-35" d="M199.8,144.5h16.9v5.9h-16.9c-.7,0-1.2-.6-1.2-1.2v-3.4c0-.7.6-1.2,1.2-1.2Z" transform="translate(60.2 355) rotate(-90)"/>
            <path class="cls-35" d="M225.2,144.5h16.9v5.9h-16.9c-.7,0-1.2-.6-1.2-1.2v-3.4c0-.7.6-1.2,1.2-1.2Z" transform="translate(85.6 380.4) rotate(-90)"/>
            <path class="cls-35" d="M250.5,144.5h16.9v5.9h-16.9c-.7,0-1.2-.6-1.2-1.2v-3.4c0-.7.6-1.2,1.2-1.2Z" transform="translate(110.9 405.8) rotate(-90)"/>
          </g>
          <path class="cls-35" d="M219.2,70.9h25.6v34.3h-25.6c-.7,0-1.2-.6-1.2-1.2v-31.8c0-.7.6-1.2,1.2-1.2Z" transform="translate(319.4 -143.4) rotate(90)"/>
        </g>
        <rect class="cls-15" x="150.5" y="179.5" width="48.4" height="27.1"/>
        <g>
          <rect class="cls-24" x="16.1" y="222.7" width="20" height="20"/>
          <circle class="cls-21" cx="26.1" cy="232.7" r="7.4"/>
          <rect class="cls-24" x="16.1" y="251.4" width="20" height="20"/>
          <circle class="cls-21" cx="26.1" cy="261.4" r="7.4"/>
          <rect class="cls-24" x="16.1" y="280" width="20" height="20"/>
          <circle class="cls-21" cx="26.1" cy="290" r="7.4"/>
          <rect class="cls-24" x="16.1" y="308.7" width="20" height="20"/>
          <circle class="cls-21" cx="26.1" cy="318.7" r="7.4"/>
        </g>
        <g>
          <rect class="cls-11" x="9.4" y="335.1" width="33.4" height="240.9"/>
          <rect x="16.3" y="337.8" width="19.6" height="19.6"/>
          <rect x="16.3" y="368.3" width="19.6" height="19.6"/>
          <rect x="16.3" y="398.8" width="19.6" height="19.6"/>
          <rect x="16.3" y="429.3" width="19.6" height="19.6"/>
          <rect x="16.3" y="459.8" width="19.6" height="19.6"/>
          <rect x="16.3" y="490.3" width="19.6" height="19.6"/>
          <rect x="16.3" y="520.9" width="19.6" height="19.6"/>
          <rect x="16.3" y="551.4" width="19.6" height="19.6"/>
        </g>
        <g>
          <rect class="cls-11" x="9.4" y="581.7" width="33.4" height="178.8"/>
          <g>
            <rect x="16.3" y="584.9" width="19.6" height="19.6"/>
            <rect x="16.3" y="615.5" width="19.6" height="19.6"/>
            <rect x="16.3" y="646" width="19.6" height="19.6"/>
            <rect x="16.3" y="676.5" width="19.6" height="19.6"/>
            <rect x="16.3" y="707" width="19.6" height="19.6"/>
            <rect x="16.3" y="737.5" width="19.6" height="19.6"/>
          </g>
        </g>
        <g>
          <path class="cls-2" d="M50.4,373.3h2.5v10.4h-2.5v-10.4Z"/>
          <path class="cls-2" d="M54.9,378.5c0-3.4,1.9-5.4,4.8-5.4s4.8,2,4.8,5.4-1.9,5.4-4.8,5.4-4.8-2-4.8-5.4ZM61.8,378.5c0-2-.8-3.2-2.2-3.2s-2.2,1.2-2.2,3.2.9,3.3,2.2,3.3,2.2-1.3,2.2-3.3Z"/>
          <path class="cls-2" d="M66.3,373.3h3.8c2.2,0,4.1.8,4.1,3.3s-.7,2.5-1.8,3l2.3,4.1h-2.8l-1.9-3.7h-1.2v3.7h-2.5v-10.4ZM70,378.1c1.2,0,1.8-.5,1.8-1.5s-.6-1.3-1.8-1.3h-1.1v2.8h1.1Z"/>
          <path class="cls-2" d="M76.2,373.3h6.6v2.1h-4.1v2h3.5v2.1h-3.5v2.2h4.3v2.1h-6.8v-10.4Z"/>
          <path class="cls-2" d="M85,373.3h6.7v2.1h-4.2v2.3h3.6v2.1h-3.6v4h-2.5v-10.4Z"/>
        </g>
        <g>
          <path class="cls-2" d="M51.7,403.8h3.8c2.2,0,4.1.8,4.1,3.3s-.7,2.5-1.8,3l2.3,4.1h-2.8l-1.9-3.7h-1.2v3.7h-2.5v-10.4ZM55.3,408.6c1.2,0,1.8-.5,1.8-1.5s-.6-1.3-1.8-1.3h-1.1v2.8h1.1Z"/>
          <path class="cls-2" d="M61.6,403.8h6.6v2.1h-4.1v2h3.5v2.1h-3.5v2.2h4.3v2.1h-6.8v-10.4Z"/>
          <path class="cls-2" d="M69.7,412.9l1.3-1.6c.7.6,1.7,1,2.6,1s1.4-.4,1.4-.9-.6-.8-1.5-1.2l-1.3-.6c-1.1-.4-2.1-1.3-2.1-2.8s1.6-3.2,3.8-3.2,2.5.5,3.4,1.3l-1.3,1.6c-.7-.5-1.4-.8-2.1-.8s-1.3.3-1.3.8.7.8,1.6,1.2l1.3.5c1.3.5,2.1,1.4,2.1,2.8s-1.5,3.3-4,3.3-2.8-.5-3.9-1.5Z"/>
          <path class="cls-2" d="M79.3,403.8h6.6v2.1h-4.1v2h3.5v2.1h-3.5v2.2h4.3v2.1h-6.8v-10.4Z"/>
          <path class="cls-2" d="M90.1,405.9h-2.8v-2.1h8.1v2.1h-2.8v8.3h-2.5v-8.3Z"/>
        </g>
        <g>
          <path class="cls-2" d="M52,443.5l1.1-1.6c.6.6,1.4,1,2.2,1s1.6-.4,1.6-1.2-.5-1.4-2.7-1.4v-1.8c1.8,0,2.3-.5,2.3-1.4s-.4-1.1-1.2-1.1-1.2.3-1.9.9l-1.2-1.5c.9-.8,2-1.3,3.2-1.3,2.2,0,3.6,1,3.6,2.9s-.6,1.8-1.7,2.3h0c1.2.4,2,1.2,2,2.6,0,2-1.8,3-3.8,3s-2.8-.6-3.6-1.4Z"/>
          <path class="cls-2" d="M61.2,443.4c0-.9.6-1.5,1.5-1.5s1.5.7,1.5,1.5-.6,1.5-1.5,1.5-1.5-.7-1.5-1.5Z"/>
          <path class="cls-2" d="M65.5,443.5l1.1-1.6c.6.6,1.4,1,2.2,1s1.6-.4,1.6-1.2-.5-1.4-2.7-1.4v-1.8c1.8,0,2.3-.5,2.3-1.4s-.4-1.1-1.2-1.1-1.2.3-1.9.9l-1.2-1.5c.9-.8,2-1.3,3.2-1.3,2.2,0,3.6,1,3.6,2.9s-.6,1.8-1.7,2.3h0c1.2.4,2,1.2,2,2.6,0,2-1.8,3-3.8,3s-2.8-.6-3.6-1.4Z"/>
          <path class="cls-2" d="M73.5,434.3h2.6l1.1,4.8c.3,1.1.5,2.2.8,3.3h0c.3-1.1.5-2.2.8-3.3l1.2-4.8h2.5l-3.2,10.4h-3l-3.1-10.4Z"/>
        </g>
        <g>
          <path class="cls-2" d="M53.3,474l1.1-1.6c.6.6,1.3,1,2.1,1s1.6-.6,1.6-1.6-.6-1.6-1.5-1.6-.9.1-1.5.5l-1.1-.7.3-5.2h5.8v2.1h-3.7v1.8c.2-.1.5-.2.9-.2,1.8,0,3.2,1,3.2,3.3s-1.8,3.7-3.8,3.7-2.8-.6-3.6-1.4Z"/>
          <path class="cls-2" d="M61.3,464.8h2.6l1.1,4.8c.3,1.1.5,2.2.8,3.3h0c.3-1.1.5-2.2.8-3.3l1.2-4.8h2.5l-3.2,10.4h-3l-3.1-10.4Z"/>
        </g>
        <g>
          <path class="cls-2" d="M54.9,500.6c0-3.5,2.3-5.5,5.1-5.5s2.6.6,3.3,1.4l-1.3,1.5c-.5-.5-1.1-.7-1.9-.7-1.5,0-2.7,1.2-2.7,3.2s.9,3.3,2.9,3.3.8,0,1-.3v-1.7h-1.7v-2h3.9v4.9c-.7.7-2,1.3-3.5,1.3-2.9,0-5.2-1.8-5.2-5.3Z"/>
          <path class="cls-2" d="M65.6,495.3h2.6l2.6,5c.4.7.7,1.5,1,2.4h0c-.1-1.1-.3-2.6-.3-3.8v-3.5h2.4v10.4h-2.6l-2.6-5c-.4-.7-.7-1.5-1-2.4h0c.1,1.2.3,2.6.3,3.8v3.5h-2.4v-10.4Z"/>
          <path class="cls-2" d="M76.3,495.3h3c3.2,0,5.3,1.6,5.3,5.2s-2.1,5.2-5.1,5.2h-3.1v-10.4ZM79.1,503.8c1.7,0,2.9-.8,2.9-3.2s-1.2-3.2-2.9-3.2h-.4v6.4h.4Z"/>
        </g>
        <g>
          <path class="cls-2" d="M56.1,531.1c0-3.5,2.3-5.5,5.1-5.5s2.6.6,3.3,1.4l-1.3,1.5c-.5-.5-1.1-.7-1.9-.7-1.5,0-2.7,1.2-2.7,3.2s.9,3.3,2.9,3.3.8,0,1-.3v-1.7h-1.7v-2h3.9v4.9c-.7.7-2,1.3-3.5,1.3-2.9,0-5.2-1.8-5.2-5.3Z"/>
          <path class="cls-2" d="M66.8,525.9h2.6l2.6,5c.4.7.7,1.5,1,2.4h0c-.1-1.1-.3-2.6-.3-3.8v-3.5h2.4v10.4h-2.6l-2.6-5c-.4-.7-.7-1.5-1-2.4h0c.1,1.2.3,2.6.3,3.8v3.5h-2.4v-10.4Z"/>
          <path class="cls-2" d="M77.5,525.9h3c3.2,0,5.3,1.6,5.3,5.2s-2.1,5.2-5.1,5.2h-3.1v-10.4ZM80.4,534.3c1.7,0,2.9-.8,2.9-3.2s-1.2-3.2-2.9-3.2h-.4v6.4h.4Z"/>
        </g>
        <g>
          <path class="cls-2" d="M56.5,556.4h2.6l1.1,4.8c.3,1.1.5,2.2.8,3.3h0c.3-1.1.5-2.2.8-3.3l1.2-4.8h2.5l-3.2,10.4h-3l-3.1-10.4Z"/>
          <path class="cls-2" d="M66.8,556.4h2.5v10.4h-2.5v-10.4Z"/>
          <path class="cls-2" d="M71.7,556.4h2.6l2.6,5c.4.7.7,1.5,1,2.4h0c-.1-1.1-.3-2.6-.3-3.8v-3.5h2.4v10.4h-2.6l-2.6-5c-.4-.7-.7-1.5-1-2.4h0c.1,1.2.3,2.6.3,3.8v3.5h-2.4v-10.4Z"/>
        </g>
        <g>
          <path class="cls-2" d="M61,589.9h3l3.2,10.4h-2.6l-.6-2.4h-3.1l-.6,2.4h-2.5l3.2-10.4ZM61.4,596h2.1l-.2-.9c-.3-1-.5-2.3-.8-3.3h0c-.3,1.1-.5,2.3-.8,3.3l-.2.9Z"/>
          <path class="cls-2" d="M67.7,595.1c0-3.6,1.5-5.4,3.7-5.4s3.7,1.8,3.7,5.4-1.5,5.4-3.7,5.4-3.7-1.9-3.7-5.4ZM72.7,595.1c0-2.8-.6-3.5-1.3-3.5s-1.3.6-1.3,3.5.6,3.5,1.3,3.5,1.3-.7,1.3-3.5Z"/>
        </g>
        <g>
          <path class="cls-2" d="M62.2,620.5h3l3.2,10.4h-2.6l-.6-2.4h-3.1l-.6,2.4h-2.5l3.2-10.4ZM62.6,626.6h2.1l-.2-.9c-.3-1-.5-2.3-.8-3.3h0c-.3,1.1-.5,2.3-.8,3.3l-.2.9Z"/>
          <path class="cls-2" d="M69.4,628.9h2.2v-5.9h-1.9v-1.5c1.1-.2,1.8-.5,2.6-.9h1.8v8.4h1.9v2h-6.6v-2Z"/>
        </g>
        <g>
          <path class="cls-2" d="M63.4,651h3l3.2,10.4h-2.6l-.6-2.4h-3.1l-.6,2.4h-2.5l3.2-10.4ZM63.8,657.1h2.1l-.2-.9c-.3-1-.5-2.3-.8-3.3h0c-.3,1.1-.5,2.3-.8,3.3l-.2.9Z"/>
          <path class="cls-2" d="M70.1,659.8c2.7-2.3,4.4-4.2,4.4-5.6s-.5-1.5-1.4-1.5-1.3.5-1.8,1l-1.3-1.3c1-1.1,1.9-1.7,3.4-1.7s3.4,1.3,3.4,3.3-1.7,3.8-3.3,5.4c.5,0,1.2-.1,1.7-.1h2.1v2.1h-7.2v-1.5Z"/>
        </g>
        <g>
          <path class="cls-2" d="M64.7,681.5h3l3.2,10.4h-2.6l-.6-2.4h-3.1l-.6,2.4h-2.5l3.2-10.4ZM65.1,687.6h2.1l-.2-.9c-.3-1-.5-2.3-.8-3.3h0c-.3,1.1-.5,2.3-.8,3.3l-.2.9Z"/>
          <path class="cls-2" d="M71.1,690.6l1.1-1.6c.6.6,1.4,1,2.2,1s1.6-.4,1.6-1.2-.5-1.4-2.7-1.4v-1.8c1.8,0,2.3-.5,2.3-1.4s-.4-1.1-1.2-1.1-1.2.3-1.9.9l-1.2-1.5c.9-.8,2-1.3,3.2-1.3,2.2,0,3.6,1,3.6,2.9s-.6,1.8-1.7,2.3h0c1.2.4,2,1.2,2,2.6,0,2-1.8,3-3.8,3s-2.8-.6-3.6-1.4Z"/>
        </g>
        <g>
          <path class="cls-2" d="M65.9,712h3l3.2,10.4h-2.6l-.6-2.4h-3.1l-.6,2.4h-2.5l3.2-10.4ZM66.3,718.1h2.1l-.2-.9c-.3-1-.5-2.3-.8-3.3h0c-.3,1.1-.5,2.3-.8,3.3l-.2.9Z"/>
          <path class="cls-2" d="M76.7,719.8h-4.4v-1.7l3.6-6.1h3.1v5.9h1.2v1.9h-1.2v2.6h-2.3v-2.6ZM76.7,717.9v-1.5c0-.7,0-1.6,0-2.3h0c-.3.6-.5,1.2-.8,1.8l-1.2,2.1h2Z"/>
          <path class="cls-2" d="M83.8,711h1.6l-3.1,13.9h-1.6l3.1-13.9Z"/>
          <path class="cls-2" d="M86.5,721.1l1.3-1.6c.7.6,1.7,1,2.6,1s1.4-.4,1.4-.9-.6-.8-1.5-1.2l-1.3-.6c-1.1-.4-2.1-1.3-2.1-2.8s1.6-3.2,3.8-3.2,2.5.5,3.4,1.3l-1.3,1.6c-.7-.5-1.4-.8-2.1-.8s-1.3.3-1.3.8.7.8,1.6,1.2l1.3.5c1.3.5,2.1,1.4,2.1,2.8s-1.5,3.3-4,3.3-2.8-.5-3.9-1.5Z"/>
          <path class="cls-2" d="M96,712h3c3.2,0,5.3,1.6,5.3,5.2s-2.1,5.2-5.1,5.2h-3.1v-10.4ZM98.9,720.4c1.7,0,2.9-.8,2.9-3.2s-1.2-3.2-2.9-3.2h-.4v6.4h.4Z"/>
          <path class="cls-2" d="M108,712h3l3.2,10.4h-2.6l-.6-2.4h-3.1l-.6,2.4h-2.5l3.2-10.4ZM108.4,718.1h2.1l-.2-.9c-.3-1-.5-2.3-.8-3.3h0c-.3,1.1-.5,2.3-.8,3.3l-.2.9Z"/>
        </g>
        <g>
          <path class="cls-2" d="M67.1,739.4h3l3.2,10.4h-2.6l-.6-2.4h-3.1l-.6,2.4h-2.5l3.2-10.4ZM67.5,745.5h2.1l-.2-.9c-.3-1-.5-2.3-.8-3.3h0c-.3,1.1-.5,2.3-.8,3.3l-.2.9Z"/>
          <path class="cls-2" d="M73.6,748.6l1.1-1.6c.6.6,1.3,1,2.1,1s1.6-.6,1.6-1.6-.6-1.6-1.5-1.6-.9.1-1.5.5l-1.1-.7.3-5.2h5.8v2.1h-3.7v1.8c.2-.1.5-.2.9-.2,1.8,0,3.2,1,3.2,3.3s-1.8,3.7-3.8,3.7-2.8-.6-3.6-1.4Z"/>
          <path class="cls-2" d="M85.1,738.5h1.6l-3.1,13.9h-1.6l3.1-13.9Z"/>
          <path class="cls-2" d="M87.7,748.5l1.3-1.6c.7.6,1.7,1,2.6,1s1.4-.4,1.4-.9-.6-.8-1.5-1.2l-1.3-.6c-1.1-.4-2.1-1.3-2.1-2.8s1.6-3.2,3.8-3.2,2.5.5,3.4,1.3l-1.3,1.6c-.7-.5-1.4-.8-2.1-.8s-1.3.3-1.3.8.7.8,1.6,1.2l1.3.5c1.3.5,2.1,1.4,2.1,2.8s-1.5,3.3-4,3.3-2.8-.5-3.9-1.5Z"/>
          <path class="cls-2" d="M96.8,744.7c0-3.5,2.3-5.5,5-5.5s2.4.6,3.2,1.4l-1.3,1.5c-.5-.5-1.1-.7-1.8-.7-1.4,0-2.5,1.2-2.5,3.2s1,3.3,2.4,3.3,1.5-.3,2-.9l1.3,1.5c-.9,1-2.1,1.5-3.4,1.5-2.7,0-4.9-1.8-4.9-5.3Z"/>
          <path class="cls-2" d="M106.6,739.4h2.5v8.3h4v2.1h-6.5v-10.4Z"/>
        </g>
        <g>
          <path class="cls-2" d="M119.6,432.6v3.7c0,2.3-.8,4.2-3.4,4.2s-3.6-1.9-3.6-4.1v-1.2h-3.5v-2.5h10.4ZM114.6,436.1c0,1.2.6,1.8,1.6,1.8s1.4-.7,1.4-1.9v-1h-3v1.1Z"/>
          <path class="cls-2" d="M114.4,441.7c3.4,0,5.4,1.9,5.4,4.8s-2,4.8-5.4,4.8-5.4-1.9-5.4-4.8,2-4.8,5.4-4.8ZM114.4,448.7c2,0,3.2-.8,3.2-2.2s-1.2-2.2-3.2-2.2-3.3.9-3.3,2.2,1.3,2.2,3.3,2.2Z"/>
          <path class="cls-2" d="M119.6,452.2v2.5l-4.8.7c-1.1.1-2.2.3-3.3.4h0c1.1.3,2.2.5,3.3.7l4.8,1.1v2.1l-4.8,1.1c-1.1.2-2.2.4-3.3.6h0c1.2.2,2.3.3,3.3.4l4.8.7v2.4l-10.4-1.8v-3.2l4.6-.9c.8-.2,1.6-.3,2.5-.4h0c-.8-.2-1.6-.3-2.5-.5l-4.6-.9v-3.1l10.4-1.9Z"/>
          <path class="cls-2" d="M119.6,466.2v6.6h-2.1v-4.1h-2v3.5h-2.1v-3.5h-2.2v4.3h-2.1v-6.8h10.4Z"/>
          <path class="cls-2" d="M119.6,475v3.8c0,2.2-.8,4.1-3.3,4.1s-2.5-.7-3-1.8l-4.1,2.3v-2.8l3.7-1.9v-1.2h-3.7v-2.5h10.4ZM114.8,478.6c0,1.2.5,1.8,1.5,1.8s1.3-.6,1.3-1.8v-1.1h-2.8v1.1Z"/>
        </g>
        <g>
          <path class="cls-2" d="M119.6,634.9v3l-10.4,3.2v-2.6l2.4-.6v-3.1l-2.4-.6v-2.5l10.4,3.2ZM113.5,635.3v2.1l.9-.2c1-.3,2.3-.5,3.3-.8h0c-1.1-.3-2.3-.6-3.3-.9l-.9-.2Z"/>
          <path class="cls-2" d="M119.6,642.2v2.6l-5,2.6c-.7.4-1.5.7-2.4,1h0c1.1,0,2.6-.3,3.8-.3h3.5v2.4h-10.4v-2.6l5-2.6c.7-.4,1.5-.7,2.4-1h0c-1.2,0-2.6.3-3.8.3h-3.5v-2.4h10.4Z"/>
          <path class="cls-2" d="M119.6,654.8v3l-10.4,3.2v-2.6l2.4-.6v-3.1l-2.4-.6v-2.5l10.4,3.2ZM113.5,655.2v2.1l.9-.2c1-.3,2.3-.5,3.3-.8h0c-1.1-.3-2.3-.6-3.3-.9l-.9-.2Z"/>
          <path class="cls-2" d="M119.6,662.1v2.5h-8.3v4h-2.1v-6.5h10.4Z"/>
          <path class="cls-2" d="M114.4,669.4c3.4,0,5.4,1.9,5.4,4.8s-2,4.8-5.4,4.8-5.4-1.9-5.4-4.8,2-4.8,5.4-4.8ZM114.4,676.4c2,0,3.2-.8,3.2-2.2s-1.2-2.2-3.2-2.2-3.3.9-3.3,2.2,1.3,2.2,3.3,2.2Z"/>
          <path class="cls-2" d="M114.3,680.4c3.5,0,5.5,2.3,5.5,5.1s-.6,2.6-1.4,3.3l-1.5-1.3c.5-.5.7-1.1.7-1.9,0-1.5-1.2-2.7-3.2-2.7s-3.3.9-3.3,2.9,0,.8.3,1h1.7v-1.7h2v3.9h-4.9c-.7-.7-1.3-2-1.3-3.5,0-2.9,1.8-5.2,5.3-5.2Z"/>
          <path class="cls-2" d="M119.6,694.3v2.5h-10.4v-2.5h10.4Z"/>
          <path class="cls-2" d="M119.6,699.2v2.6l-5,2.6c-.7.4-1.5.7-2.4,1h0c1.1,0,2.6-.3,3.8-.3h3.5v2.4h-10.4v-2.6l5-2.6c.7-.4,1.5-.7,2.4-1h0c-1.2,0-2.6.3-3.8.3h-3.5v-2.4h10.4Z"/>
        </g>
        <rect class="cls-30" x="123.9" y="590.3" width="4.5" height="159.9" rx="2.3" ry="2.3"/>
        <rect class="cls-30" x="123.9" y="363.7" width="4.5" height="187.7" rx="2.3" ry="2.3"/>
        <g>
          <g>
            <polygon class="cls-29" points="292.4 740.2 288.8 740.2 288.7 740.2 285.1 740.2 276.6 748.7 276.6 781.8 285.1 790.2 288.7 790.2 288.8 790.2 292.4 790.2 300.9 781.8 300.9 748.7 292.4 740.2"/>
            <g>
              <rect class="cls-20" x="285.6" y="749.8" width="6.2" height="6.2"/>
              <rect class="cls-20" x="285.6" y="774.4" width="6.2" height="6.2"/>
            </g>
          </g>
          <g>
            <polygon class="cls-29" points="316.6 740.2 313 740.2 312.9 740.2 309.3 740.2 300.9 748.7 300.9 781.8 309.3 790.2 312.9 790.2 313 790.2 316.6 790.2 325.1 781.8 325.1 748.7 316.6 740.2"/>
            <g>
              <rect class="cls-20" x="309.9" y="749.8" width="6.2" height="6.2"/>
              <rect class="cls-20" x="309.9" y="774.4" width="6.2" height="6.2"/>
            </g>
          </g>
          <g>
            <polygon class="cls-29" points="340.8 740.2 337.2 740.2 337.2 740.2 333.5 740.2 325.1 748.7 325.1 781.8 333.5 790.2 337.2 790.2 337.2 790.2 340.8 790.2 349.3 781.8 349.3 748.7 340.8 740.2"/>
            <g>
              <rect class="cls-20" x="334.1" y="749.8" width="6.2" height="6.2"/>
              <rect class="cls-20" x="334.1" y="774.4" width="6.2" height="6.2"/>
            </g>
          </g>
        </g>
        <path class="cls-30" d="M270.6,728.8c-1.3,0-2.3,1-2.3,2.3v58.5c0,1.3,1,2.3,2.3,2.3h0c1.3,0,2.3-1,2.3-2.3v-53.9c0-1.3,1-2.3,2.3-2.3h75.6c1.3,0,2.3,1,2.3,2.3v53.9c0,1.3,1,2.3,2.3,2.3h0c1.3,0,2.3-1,2.3-2.3v-58.5c0-1.3-1-2.3-2.3-2.3h-84.7Z"/>
        <rect class="cls-30" x="465.2" y="354.1" width="4.5" height="394.7" rx="2.3" ry="2.3"/>
        <g>
          <path class="cls-2" d="M486.6,495.7v3c0,3.2-1.6,5.3-5.2,5.3s-5.2-2.1-5.2-5.1v-3.1h10.4ZM478.2,498.6c0,1.7.8,2.9,3.2,2.9s3.2-1.2,3.2-2.9v-.4h-6.4v.4Z"/>
          <path class="cls-2" d="M486.6,505.9v2.5h-10.4v-2.5h10.4Z"/>
          <path class="cls-2" d="M481.4,510.3c3.5,0,5.5,2.3,5.5,5.1s-.6,2.6-1.4,3.3l-1.5-1.3c.5-.5.7-1.1.7-1.9,0-1.5-1.2-2.7-3.2-2.7s-3.3.9-3.3,2.9,0,.8.3,1h1.7v-1.7h2v3.9h-4.9c-.7-.7-1.3-2-1.3-3.5,0-2.9,1.8-5.2,5.3-5.2Z"/>
          <path class="cls-2" d="M486.6,521v2.5h-10.4v-2.5h10.4Z"/>
          <path class="cls-2" d="M484.6,528v-2.8h2.1v8.1h-2.1v-2.8h-8.3v-2.5h8.3Z"/>
          <path class="cls-2" d="M486.6,536.2v3l-10.4,3.2v-2.6l2.4-.6v-3.1l-2.4-.6v-2.5l10.4,3.2ZM480.5,536.6v2.1l.9-.2c1-.3,2.3-.5,3.3-.8h0c-1.1-.3-2.3-.6-3.3-.9l-.9-.2Z"/>
          <path class="cls-2" d="M486.6,543.5v2.5h-8.3v4h-2.1v-6.5h10.4Z"/>
          <path class="cls-2" d="M480.7,555c2.8,0,5.1.8,7.3,2.1l-.6,1.6c-2.1-1.2-4.4-1.7-6.7-1.7s-4.6.5-6.7,1.7l-.6-1.6c2.2-1.3,4.5-2.1,7.3-2.1Z"/>
          <path class="cls-2" d="M486.6,560.6v3.7c0,2.3-.8,4.2-3.4,4.2s-3.6-1.9-3.6-4.1v-1.2h-3.5v-2.5h10.4ZM481.6,564.2c0,1.2.6,1.8,1.6,1.8s1.4-.7,1.4-1.9v-1h-3v1.1Z"/>
          <path class="cls-2" d="M486.6,569.2v2.5l-4.8.7c-1.1.1-2.2.3-3.3.4h0c1.1.3,2.2.5,3.3.7l4.8,1.1v2.1l-4.8,1.1c-1.1.2-2.2.4-3.3.6h0c1.2.2,2.3.3,3.3.4l4.8.7v2.4l-10.4-1.8v-3.2l4.6-.9c.8-.2,1.6-.3,2.5-.4h0c-.8-.2-1.6-.3-2.5-.5l-4.6-.9v-3.1l10.4-1.9Z"/>
          <path class="cls-2" d="M486.6,583.3v2.7l-4.5,1.6c-.6.2-1.2.4-1.9.6h0c.7.3,1.3.4,1.9.6l4.5,1.6v2.7h-10.4v-2.3h3.6c1,0,2.8.2,3.8.3h0c0,0-2.7-.9-2.7-.9l-3.8-1.4v-1.4l3.8-1.4,2.7-.8h0c-1,0-2.8.3-3.8.3h-3.6v-2.2h10.4Z"/>
          <path class="cls-2" d="M481.2,597.2c0-.4-.4-.8-.9-1.1l1-1.3c1.2.8,1.7,1.6,1.7,2.4,0,1.3-1.2,1.9-1.2,2.8s.4.8.9,1.1l-1,1.3c-1.2-.8-1.7-1.6-1.7-2.4,0-1.3,1.2-1.9,1.2-2.8Z"/>
          <path class="cls-2" d="M474,603.6c2.1,1.2,4.4,1.7,6.7,1.7s4.6-.5,6.7-1.7l.6,1.6c-2.2,1.3-4.5,2.1-7.3,2.1s-5.1-.8-7.3-2.1l.6-1.6Z"/>
        </g>
        <g>
          <rect class="cls-11" x="559.1" y="524.1" width="33.4" height="240.9"/>
          <rect x="566" y="526.8" width="19.6" height="19.6"/>
          <rect x="566" y="557.3" width="19.6" height="19.6"/>
          <rect x="566" y="587.8" width="19.6" height="19.6"/>
          <rect x="566" y="618.3" width="19.6" height="19.6"/>
          <rect x="566" y="648.9" width="19.6" height="19.6"/>
          <rect x="566" y="679.4" width="19.6" height="19.6"/>
          <rect x="566" y="709.9" width="19.6" height="19.6"/>
          <rect x="566" y="740.4" width="19.6" height="19.6"/>
        </g>
        <g>
          <rect class="cls-11" x="559.1" y="220.9" width="33.4" height="301.1"/>
          <rect x="566" y="285.5" width="19.6" height="19.6"/>
          <rect x="566" y="316.1" width="19.6" height="19.6"/>
          <rect x="566" y="346.6" width="19.6" height="19.6"/>
          <rect x="566" y="377.1" width="19.6" height="19.6"/>
          <rect x="566" y="407.6" width="19.6" height="19.6"/>
          <rect x="566" y="438.1" width="19.6" height="19.6"/>
          <rect x="566" y="468.6" width="19.6" height="19.6"/>
          <rect x="566" y="499.1" width="19.6" height="19.6"/>
          <rect x="566" y="255" width="19.6" height="19.6"/>
          <rect x="566" y="224.8" width="19.6" height="19.6"/>
        </g>
        <g>
          <g>
            <path class="cls-2" d="M508.9,229.8h3l3.2,10.4h-2.6l-.6-2.4h-3.1l-.6,2.4h-2.5l3.2-10.4ZM509.3,235.9h2.1l-.2-.9c-.3-1-.5-2.3-.8-3.3h0c-.3,1.1-.5,2.3-.8,3.3l-.2.9Z"/>
            <path class="cls-2" d="M515.3,238.9l1.1-1.6c.6.6,1.3,1,2.1,1s1.6-.6,1.6-1.6-.6-1.6-1.5-1.6-.9.1-1.5.5l-1.1-.7.3-5.2h5.8v2.1h-3.7v1.8c.2-.1.5-.2.9-.2,1.8,0,3.2,1,3.2,3.3s-1.8,3.7-3.8,3.7-2.8-.6-3.6-1.4Z"/>
            <path class="cls-2" d="M526.8,228.8h1.6l-3.1,13.9h-1.6l3.1-13.9Z"/>
            <path class="cls-2" d="M529.4,238.9l1.3-1.6c.7.6,1.7,1,2.6,1s1.4-.4,1.4-.9-.6-.8-1.5-1.2l-1.3-.6c-1.1-.4-2.1-1.3-2.1-2.8s1.6-3.2,3.8-3.2,2.5.5,3.4,1.3l-1.3,1.6c-.7-.5-1.4-.8-2.1-.8s-1.3.3-1.3.8.7.8,1.6,1.2l1.3.5c1.3.5,2.1,1.4,2.1,2.8s-1.5,3.3-4,3.3-2.8-.5-3.9-1.5Z"/>
            <path class="cls-2" d="M538.5,235.1c0-3.5,2.3-5.5,5-5.5s2.4.6,3.2,1.4l-1.3,1.5c-.5-.5-1.1-.7-1.8-.7-1.4,0-2.5,1.2-2.5,3.2s1,3.3,2.4,3.3,1.5-.3,2-.9l1.3,1.5c-.9,1-2.1,1.5-3.4,1.5-2.7,0-4.9-1.8-4.9-5.3Z"/>
            <path class="cls-2" d="M548.3,229.8h2.5v8.3h4v2.1h-6.5v-10.4Z"/>
          </g>
          <g>
            <path class="cls-2" d="M506.7,260h3l3.2,10.4h-2.6l-.6-2.4h-3.1l-.6,2.4h-2.5l3.2-10.4ZM507.1,266.1h2.1l-.2-.9c-.3-1-.5-2.3-.8-3.3h0c-.3,1.1-.5,2.3-.8,3.3l-.2.9Z"/>
            <path class="cls-2" d="M517.5,267.9h-4.4v-1.7l3.6-6.1h3.1v5.9h1.2v1.9h-1.2v2.6h-2.3v-2.6ZM517.5,266v-1.5c0-.7,0-1.6,0-2.3h0c-.3.6-.5,1.2-.8,1.8l-1.2,2.1h2Z"/>
            <path class="cls-2" d="M524.7,259.1h1.6l-3.1,13.9h-1.6l3.1-13.9Z"/>
            <path class="cls-2" d="M527.3,269.1l1.3-1.6c.7.6,1.7,1,2.6,1s1.4-.4,1.4-.9-.6-.8-1.5-1.2l-1.3-.6c-1.1-.4-2.1-1.3-2.1-2.8s1.6-3.2,3.8-3.2,2.5.5,3.4,1.3l-1.3,1.6c-.7-.5-1.4-.8-2.1-.8s-1.3.3-1.3.8.7.8,1.6,1.2l1.3.5c1.3.5,2.1,1.4,2.1,2.8s-1.5,3.3-4,3.3-2.8-.5-3.9-1.5Z"/>
            <path class="cls-2" d="M536.9,260h3c3.2,0,5.3,1.6,5.3,5.2s-2.1,5.2-5.1,5.2h-3.1v-10.4ZM539.7,268.4c1.7,0,2.9-.8,2.9-3.2s-1.2-3.2-2.9-3.2h-.4v6.4h.4Z"/>
            <path class="cls-2" d="M548.8,260h3l3.2,10.4h-2.6l-.6-2.4h-3.1l-.6,2.4h-2.5l3.2-10.4ZM549.2,266.1h2.1l-.2-.9c-.3-1-.5-2.3-.8-3.3h0c-.3,1.1-.5,2.3-.8,3.3l-.2.9Z"/>
          </g>
          <g>
            <path class="cls-2" d="M521.1,290.5h3l3.2,10.4h-2.6l-.6-2.4h-3.1l-.6,2.4h-2.5l3.2-10.4ZM521.5,296.6h2.1l-.2-.9c-.3-1-.5-2.3-.8-3.3h0c-.3,1.1-.5,2.3-.8,3.3l-.2.9Z"/>
            <path class="cls-2" d="M528.4,290.5h3.8c2.2,0,4.1.8,4.1,3.3s-.7,2.5-1.8,3l2.3,4.1h-2.8l-1.9-3.7h-1.2v3.7h-2.5v-10.4ZM532,295.3c1.2,0,1.8-.5,1.8-1.5s-.6-1.3-1.8-1.3h-1.1v2.8h1.1Z"/>
            <path class="cls-2" d="M538.3,290.5h6.6v2.1h-4.1v2h3.5v2.1h-3.5v2.2h4.3v2.1h-6.8v-10.4Z"/>
            <path class="cls-2" d="M547.1,290.5h6.7v2.1h-4.2v2.3h3.6v2.1h-3.6v4h-2.5v-10.4Z"/>
          </g>
          <g>
            <path class="cls-2" d="M523.4,326.3c0-3.5,2.3-5.5,5.1-5.5s2.6.6,3.3,1.4l-1.3,1.5c-.5-.5-1.1-.7-1.9-.7-1.5,0-2.7,1.2-2.7,3.2s.9,3.3,2.9,3.3.8,0,1-.3v-1.7h-1.7v-2h3.9v4.9c-.7.7-2,1.3-3.5,1.3-2.9,0-5.2-1.8-5.2-5.3Z"/>
            <path class="cls-2" d="M534.1,321h2.6l2.6,5c.4.7.7,1.5,1,2.4h0c-.1-1.1-.3-2.6-.3-3.8v-3.5h2.4v10.4h-2.6l-2.6-5c-.4-.7-.7-1.5-1-2.4h0c.1,1.2.3,2.6.3,3.8v3.5h-2.4v-10.4Z"/>
            <path class="cls-2" d="M544.8,321h3c3.2,0,5.3,1.6,5.3,5.2s-2.1,5.2-5.1,5.2h-3.1v-10.4ZM547.6,329.5c1.7,0,2.9-.8,2.9-3.2s-1.2-3.2-2.9-3.2h-.4v6.4h.4Z"/>
          </g>
          <g>
            <path class="cls-2" d="M495.4,360h2.2v-5.9h-1.9v-1.5c1.1-.2,1.8-.5,2.6-.9h1.8v8.4h1.9v2h-6.6v-2Z"/>
            <path class="cls-2" d="M503.1,360.7l1.1-1.6c.6.6,1.4,1,2.2,1s1.6-.4,1.6-1.2-.5-1.4-2.7-1.4v-1.8c1.8,0,2.3-.5,2.3-1.4s-.4-1.1-1.2-1.1-1.2.3-1.9.9l-1.2-1.5c.9-.8,2-1.3,3.2-1.3,2.2,0,3.6,1,3.6,2.9s-.6,1.8-1.7,2.3h0c1.2.4,2,1.2,2,2.6,0,2-1.8,3-3.8,3s-2.8-.6-3.6-1.4Z"/>
            <path class="cls-2" d="M514.6,350.6h1.6l-3.1,13.9h-1.6l3.1-13.9Z"/>
            <path class="cls-2" d="M517.2,360.7l1.3-1.6c.7.6,1.7,1,2.6,1s1.4-.4,1.4-.9-.6-.8-1.5-1.2l-1.3-.6c-1.1-.4-2.1-1.3-2.1-2.8s1.6-3.2,3.8-3.2,2.5.5,3.4,1.3l-1.3,1.6c-.7-.5-1.4-.8-2.1-.8s-1.3.3-1.3.8.7.8,1.6,1.2l1.3.5c1.3.5,2.1,1.4,2.1,2.8s-1.5,3.3-4,3.3-2.8-.5-3.9-1.5Z"/>
            <path class="cls-2" d="M526.3,356.8c0-3.5,2.3-5.5,5-5.5s2.4.6,3.2,1.4l-1.3,1.5c-.5-.5-1.1-.7-1.8-.7-1.4,0-2.5,1.2-2.5,3.2s1,3.3,2.4,3.3,1.5-.3,2-.9l1.3,1.5c-.9,1-2.1,1.5-3.4,1.5-2.7,0-4.9-1.8-4.9-5.3Z"/>
            <path class="cls-2" d="M536.1,351.6h2.5v8.3h4v2.1h-6.5v-10.4Z"/>
            <path class="cls-2" d="M544.5,351.6h2.5v4.1h0l3-4.1h2.7l-3.1,4.2,3.7,6.2h-2.7l-2.5-4.3-1.1,1.5v2.7h-2.5v-10.4Z"/>
          </g>
          <g>
            <path class="cls-2" d="M494.2,390.5h2.2v-5.9h-1.9v-1.5c1.1-.2,1.8-.5,2.6-.9h1.8v8.4h1.9v2h-6.6v-2Z"/>
            <path class="cls-2" d="M502.2,391c2.7-2.3,4.4-4.2,4.4-5.6s-.5-1.5-1.4-1.5-1.3.5-1.8,1l-1.3-1.3c1-1.1,1.9-1.7,3.4-1.7s3.4,1.3,3.4,3.3-1.7,3.8-3.3,5.4c.5,0,1.2-.1,1.7-.1h2.1v2.1h-7.2v-1.5Z"/>
            <path class="cls-2" d="M513.5,381.1h1.6l-3.1,13.9h-1.6l3.1-13.9Z"/>
            <path class="cls-2" d="M516.7,382.1h2.7l1.6,4.5c.2.6.4,1.2.6,1.9h0c.2-.7.4-1.3.6-1.9l1.6-4.5h2.7v10.4h-2.3v-3.6c0-1,.2-2.8.3-3.8h0l-.9,2.7-1.4,3.8h-1.4l-1.4-3.8-.8-2.7h0c.1,1,.3,2.8.3,3.8v3.6h-2.2v-10.4Z"/>
            <path class="cls-2" d="M529,382.1h2.5v10.4h-2.5v-10.4Z"/>
            <path class="cls-2" d="M533.2,391.2l1.3-1.6c.7.6,1.7,1,2.6,1s1.4-.4,1.4-.9-.6-.8-1.5-1.2l-1.3-.6c-1.1-.4-2.1-1.3-2.1-2.8s1.6-3.2,3.8-3.2,2.5.5,3.4,1.3l-1.3,1.6c-.7-.5-1.4-.8-2.1-.8s-1.3.3-1.3.8.7.8,1.6,1.2l1.3.5c1.3.5,2.1,1.4,2.1,2.8s-1.5,3.3-4,3.3-2.8-.5-3.9-1.5Z"/>
            <path class="cls-2" d="M542.3,387.2c0-3.4,1.9-5.4,4.8-5.4s4.8,2,4.8,5.4-1.9,5.4-4.8,5.4-4.8-2-4.8-5.4ZM549.3,387.2c0-2-.8-3.2-2.2-3.2s-2.2,1.2-2.2,3.2.9,3.3,2.2,3.3,2.2-1.3,2.2-3.3Z"/>
          </g>
          <g>
            <path class="cls-2" d="M486.9,418c-.4,0-.8.4-1.1.9l-1.3-1c.8-1.2,1.6-1.7,2.4-1.7,1.3,0,1.9,1.2,2.8,1.2s.8-.4,1.1-.9l1.3,1c-.8,1.2-1.6,1.7-2.4,1.7-1.3,0-1.9-1.2-2.8-1.2Z"/>
            <path class="cls-2" d="M493.6,421h2.2v-5.9h-1.9v-1.5c1.1-.2,1.8-.5,2.6-.9h1.8v8.4h1.9v2h-6.6v-2Z"/>
            <path class="cls-2" d="M502.2,421h2.2v-5.9h-1.9v-1.5c1.1-.2,1.8-.5,2.6-.9h1.8v8.4h1.9v2h-6.6v-2Z"/>
            <path class="cls-2" d="M512.9,411.6h1.6l-3.1,13.9h-1.6l3.1-13.9Z"/>
            <path class="cls-2" d="M516.2,412.6h2.7l1.6,4.5c.2.6.4,1.2.6,1.9h0c.2-.7.4-1.3.6-1.9l1.6-4.5h2.7v10.4h-2.3v-3.6c0-1,.2-2.8.3-3.8h0l-.9,2.7-1.4,3.8h-1.4l-1.4-3.8-.8-2.7h0c.1,1,.3,2.8.3,3.8v3.6h-2.2v-10.4Z"/>
            <path class="cls-2" d="M527.9,417.8c0-3.4,1.9-5.4,4.8-5.4s4.8,2,4.8,5.4-1.9,5.4-4.8,5.4-4.8-2-4.8-5.4ZM534.9,417.8c0-2-.8-3.2-2.2-3.2s-2.2,1.2-2.2,3.2.9,3.3,2.2,3.3,2.2-1.3,2.2-3.3Z"/>
            <path class="cls-2" d="M538.8,421.7l1.3-1.6c.7.6,1.7,1,2.6,1s1.4-.4,1.4-.9-.6-.8-1.5-1.2l-1.3-.6c-1.1-.4-2.1-1.3-2.1-2.8s1.6-3.2,3.8-3.2,2.5.5,3.4,1.3l-1.3,1.6c-.7-.5-1.4-.8-2.1-.8s-1.3.3-1.3.8.7.8,1.6,1.2l1.3.5c1.3.5,2.1,1.4,2.1,2.8s-1.5,3.3-4,3.3-2.8-.5-3.9-1.5Z"/>
            <path class="cls-2" d="M548.3,412.6h2.5v10.4h-2.5v-10.4Z"/>
          </g>
          <g>
            <path class="cls-2" d="M528.8,448.5c-.4,0-.8.4-1.1.9l-1.3-1c.8-1.2,1.6-1.7,2.4-1.7,1.3,0,1.9,1.2,2.8,1.2s.8-.4,1.1-.9l1.3,1c-.8,1.2-1.6,1.7-2.4,1.7-1.3,0-1.9-1.2-2.8-1.2Z"/>
            <path class="cls-2" d="M535.5,451.5h2.2v-5.9h-1.9v-1.5c1.1-.2,1.8-.5,2.6-.9h1.8v8.4h1.9v2h-6.6v-2Z"/>
            <path class="cls-2" d="M543.5,448.3c0-3.6,1.5-5.4,3.7-5.4s3.7,1.8,3.7,5.4-1.5,5.4-3.7,5.4-3.7-1.9-3.7-5.4ZM548.6,448.3c0-2.8-.6-3.5-1.3-3.5s-1.3.6-1.3,3.5.6,3.5,1.3,3.5,1.3-.7,1.3-3.5Z"/>
          </g>
          <g>
            <path class="cls-2" d="M536.7,479c-.4,0-.8.4-1.1.9l-1.3-1c.8-1.2,1.6-1.7,2.4-1.7,1.3,0,1.9,1.2,2.8,1.2s.8-.4,1.1-.9l1.3,1c-.8,1.2-1.6,1.7-2.4,1.7-1.3,0-1.9-1.2-2.8-1.2Z"/>
            <path class="cls-2" d="M543,483l1.3-1.5c.3.4,1,.7,1.6.7,1.1,0,1.9-.8,2-3-.5.7-1.4,1-2,1-1.7,0-3-1-3-3.3s1.6-3.5,3.4-3.5,3.9,1.5,3.9,5.3-2,5.5-4.1,5.5-2.4-.6-3.1-1.2ZM546.4,478.5c.5,0,1.1-.3,1.5-.9-.2-1.8-.8-2.3-1.5-2.3s-1.2.5-1.2,1.7.5,1.5,1.2,1.5Z"/>
          </g>
          <path class="cls-2" d="M542.5,511.9c0-1.3.7-2.1,1.7-2.6h0c-.8-.7-1.4-1.5-1.4-2.6,0-1.7,1.4-2.8,3.3-2.8s3.1,1.1,3.1,2.8-.6,1.8-1.3,2.3h0c1,.6,1.8,1.5,1.8,2.9s-1.5,2.8-3.6,2.8-3.6-1.1-3.6-2.8ZM547.4,511.8c0-.9-.8-1.3-2.1-1.9-.4.4-.7,1-.7,1.7s.7,1.4,1.5,1.4,1.3-.4,1.3-1.2ZM547.2,506.9c0-.8-.4-1.2-1.2-1.2s-1.1.4-1.1,1.1.6,1.3,1.7,1.7c.4-.5.6-1,.6-1.5Z"/>
          <path class="cls-2" d="M546.4,533.9h-4.5v-2.1h7.1v1.5c-2.4,2.9-2.7,4.8-2.8,8.9h-2.5c.2-3.4.7-5.6,2.7-8.3Z"/>
          <g>
            <path class="cls-2" d="M535,567.7c-.4,0-.8.4-1.1.9l-1.3-1c.8-1.2,1.6-1.7,2.4-1.7,1.3,0,1.9,1.2,2.8,1.2s.8-.4,1.1-.9l1.3,1c-.8,1.2-1.6,1.7-2.4,1.7-1.3,0-1.9-1.2-2.8-1.2Z"/>
            <path class="cls-2" d="M541.3,567.6c0-3.8,2-5.5,4.1-5.5s2.4.6,3,1.2l-1.3,1.5c-.4-.4-1-.7-1.6-.7-1.1,0-1.9.8-2,3,.5-.6,1.4-1,2-1,1.7,0,3,1,3,3.3s-1.6,3.5-3.4,3.5-3.9-1.5-3.9-5.3ZM543.6,568.8c.2,1.7.9,2.2,1.5,2.2s1.2-.5,1.2-1.7-.6-1.5-1.3-1.5-1.1.3-1.5,1Z"/>
          </g>
          <g>
            <path class="cls-2" d="M534.4,598.2c-.4,0-.8.4-1.1.9l-1.3-1c.8-1.2,1.6-1.7,2.4-1.7,1.3,0,1.9,1.2,2.8,1.2s.8-.4,1.1-.9l1.3,1c-.8,1.2-1.6,1.7-2.4,1.7-1.3,0-1.9-1.2-2.8-1.2Z"/>
            <path class="cls-2" d="M540.4,602l1.1-1.6c.6.6,1.3,1,2.1,1s1.6-.6,1.6-1.6-.6-1.6-1.5-1.6-.9.1-1.5.5l-1.1-.7.3-5.2h5.8v2.1h-3.7v1.8c.2-.1.5-.2.9-.2,1.8,0,3.2,1,3.2,3.3s-1.8,3.7-3.8,3.7-2.8-.6-3.6-1.4Z"/>
          </g>
          <path class="cls-2" d="M544.2,631.2h-4.4v-1.7l3.6-6.1h3.1v5.9h1.2v1.9h-1.2v2.6h-2.3v-2.6ZM544.2,629.3v-1.5c0-.7,0-1.6,0-2.3h0c-.3.6-.5,1.2-.8,1.8l-1.2,2.1h2Z"/>
          <g>
            <path class="cls-2" d="M533.3,659.3c-.4,0-.8.4-1.1.9l-1.3-1c.8-1.2,1.6-1.7,2.4-1.7,1.3,0,1.9,1.2,2.8,1.2s.8-.4,1.1-.9l1.3,1c-.8,1.2-1.6,1.7-2.4,1.7-1.3,0-1.9-1.2-2.8-1.2Z"/>
            <path class="cls-2" d="M539.3,663l1.1-1.6c.6.6,1.4,1,2.2,1s1.6-.4,1.6-1.2-.5-1.4-2.7-1.4v-1.8c1.8,0,2.3-.5,2.3-1.4s-.4-1.1-1.2-1.1-1.2.3-1.9.9l-1.2-1.5c.9-.8,2-1.3,3.2-1.3,2.2,0,3.6,1,3.6,2.9s-.6,1.8-1.7,2.3h0c1.2.4,2,1.2,2,2.6,0,2-1.8,3-3.8,3s-2.8-.6-3.6-1.4Z"/>
          </g>
          <path class="cls-2" d="M538.9,693.2c2.7-2.3,4.4-4.2,4.4-5.6s-.5-1.5-1.4-1.5-1.3.5-1.8,1l-1.3-1.3c1-1.1,1.9-1.7,3.4-1.7s3.4,1.3,3.4,3.3-1.7,3.8-3.3,5.4c.5,0,1.2-.1,1.7-.1h2.1v2.1h-7.2v-1.5Z"/>
          <g>
            <path class="cls-2" d="M509.2,717.9h-2.8v-2.1h8.1v2.1h-2.8v8.3h-2.5v-8.3Z"/>
            <path class="cls-2" d="M517.6,720.8l-2.7-5.1h2.8l.8,1.9c.2.5.5,1,.8,1.7h0c.2-.7.5-1.2.7-1.7l.8-1.9h2.6l-2.7,5.2,2.9,5.2h-2.8l-1-2c-.3-.5-.5-1.1-.8-1.7h0c-.2.6-.5,1.2-.7,1.7l-.9,2h-2.7l2.9-5.4Z"/>
            <path class="cls-2" d="M537.5,720.9l-5,5c-.4.4-1,.4-1.4,0s-.4-1,0-1.4l3.3-3.3h-9.6c-.6,0-1-.4-1-1s.4-1,1-1h9.6l-3.3-3.3c-.4-.4-.4-1,0-1.4s1-.4,1.4,0l5,5c.4.4.4,1,0,1.4h0Z"/>
            <path class="cls-2" d="M538.9,724.2h2.2v-5.9h-1.9v-1.5c1.1-.2,1.8-.5,2.6-.9h1.8v8.4h1.9v2h-6.6v-2Z"/>
          </g>
          <g>
            <path class="cls-2" d="M505.5,746.3h3.8c2.2,0,4.1.8,4.1,3.3s-.7,2.5-1.8,3l2.3,4.1h-2.8l-1.9-3.7h-1.2v3.7h-2.5v-10.4ZM509.1,751.1c1.2,0,1.8-.5,1.8-1.5s-.6-1.3-1.8-1.3h-1.1v2.8h1.1Z"/>
            <path class="cls-2" d="M517,751.3l-2.7-5.1h2.8l.8,1.9c.2.5.5,1,.8,1.7h0c.2-.7.5-1.2.7-1.7l.8-1.9h2.6l-2.7,5.2,2.9,5.2h-2.8l-1-2c-.3-.5-.5-1.1-.8-1.7h0c-.2.6-.5,1.2-.7,1.7l-.9,2h-2.7l2.9-5.4Z"/>
            <path class="cls-2" d="M523.5,750l5-5c.4-.4,1-.4,1.4,0s.4,1,0,1.4l-3.3,3.3h9.6c.6,0,1,.4,1,1s-.4,1-1,1h-9.6l3.3,3.3c.4.4.4,1,0,1.4s-1,.4-1.4,0l-5-5c-.4-.4-.4-1,0-1.4h0Z"/>
            <path class="cls-2" d="M537.8,751.5c0-3.6,1.5-5.4,3.7-5.4s3.7,1.8,3.7,5.4-1.5,5.4-3.7,5.4-3.7-1.9-3.7-5.4ZM542.8,751.5c0-2.8-.6-3.5-1.3-3.5s-1.3.6-1.3,3.5.6,3.5,1.3,3.5,1.3-.7,1.3-3.5Z"/>
          </g>
        </g>
        <g>
          <rect class="cls-6" x="396.4" y="331.5" width="10.7" height="17.2"/>
          <rect class="cls-15" x="396.4" y="334" width="10.7" height="11.8"/>
        </g>
      </g>
      <sodipodi:namedview id="namedview7" bordercolor="#eeeeee" borderopacity="1" inkscape:current-layer="svg8" inkscape:cx="387.3658" inkscape:cy="223.78611" inkscape:deskcolor="#505050" inkscape:pagecheckerboard="0" inkscape:pageopacity="0" inkscape:showpageshadow="0" inkscape:window-height="900" inkscape:window-maximized="0" inkscape:window-width="1440" inkscape:window-x="0" inkscape:window-y="0" inkscape:zoom="0.44015244" pagecolor="#505050"/>
      <g id="layer1-8">
        <rect id="rect815" x="659.7" y="17.9" width="182.3" height="244.9"/>
        <rect id="rect821" class="cls-2" x="702.8" y="223" width="94.8" height="32.6"/>
        <rect id="rect825" class="cls-26" x="703" y="224.8" width="31" height="28.7" rx="6" ry="6"/>
        <rect id="rect872" class="cls-26" x="766.4" y="224.8" width="31" height="28.7" rx="6" ry="6"/>
        <rect id="rect874" class="cls-26" x="734.7" y="224.8" width="31" height="28.7" rx="5.2" ry="5.2"/>
        <rect id="rect947" class="cls-18" x="716.8" y="240.4" width="3.4" height="59.8"/>
        <rect id="rect949" class="cls-18" x="748.6" y="240.4" width="3.4" height="59.8"/>
        <rect id="rect951" class="cls-18" x="780.1" y="240.4" width="3.4" height="59.8"/>
        <circle id="path1456" class="cls-19" cx="685.2" cy="107.5" r="16.6"/>
        <circle id="ellipse1458" class="cls-19" cx="814.7" cy="107.5" r="16.6"/>
        <circle id="path1460" class="cls-3" cx="685.2" cy="107.5" r="15"/>
        <circle id="ellipse1464" class="cls-3" cx="814.7" cy="107.5" r="15"/>
        <rect id="rect87-3" x="685.3" y="188.6" width="129.7" height="32.6"/>
        <circle id="path91-8" class="cls-19" cx="702.6" cy="210.2" r="12.1"/>
        <circle id="circle93-7" class="cls-19" cx="797.3" cy="210.2" r="12.1"/>
        <rect id="rect95-3" class="cls-19" x="704.2" y="160.5" width="24.3" height="36.4" rx="8.1" ry="8.1"/>
        <rect id="rect97-7" class="cls-19" x="773" y="160.5" width="24.3" height="36.4" rx="8.1" ry="8.1"/>
        <circle id="circle99-6" class="cls-19" cx="726.5" cy="146.7" r="12.1"/>
        <circle id="circle101-9" class="cls-19" cx="775" cy="146.7" r="12.1"/>
        <circle id="ellipse103-1" class="cls-3" cx="699.4" cy="145.9" r="15"/>
        <circle id="ellipse105-5" class="cls-3" cx="802.1" cy="145.9" r="15"/>
        <rect id="rect111-5" class="cls-19" x="704.2" y="94.1" width="24.3" height="36.4" rx="8.1" ry="8.1"/>
        <rect id="rect113-1" class="cls-19" x="773" y="94.1" width="24.3" height="36.4" rx="8.1" ry="8.1"/>
        <circle id="circle115-1" class="cls-3" cx="716.4" cy="177.7" r="11.1"/>
        <circle id="circle117-9" class="cls-3" cx="785.1" cy="177.7" r="11.1"/>
        <circle id="circle119-9" class="cls-3" cx="702.6" cy="210.2" r="10.1"/>
        <circle id="circle121-1" class="cls-3" cx="797.3" cy="210.2" r="10.1"/>
        <circle id="circle123-1" class="cls-3" cx="716.4" cy="177.7" r="11.1"/>
        <circle id="circle125-6" class="cls-3" cx="716.4" cy="111.3" r="11.1"/>
        <circle id="circle127-3" class="cls-3" cx="785.1" cy="111.3" r="11.1"/>
        <circle id="circle129-3" class="cls-19" cx="701" cy="65.8" r="12.1"/>
        <circle id="circle131-4" class="cls-3" cx="701" cy="65.8" r="10.1"/>
        <circle id="circle133-4" class="cls-19" cx="800.5" cy="65.8" r="12.1"/>
        <circle id="circle135-0" class="cls-3" cx="800.5" cy="65.8" r="10.1"/>
        <rect id="rect139-6" class="cls-25" x="720.4" y="5.6" width="60.7" height="6.1"/>
        <rect id="rect141-6" class="cls-25" x="722.4" width="56.6" height="6.1"/>
        <polygon id="rect143-9" class="cls-25" points="716.4 11.2 720.5 8.7 725.3 13.4 721.2 15.8 716.4 11.2"/>
        <polygon id="rect145-0" class="cls-25" points="720.4 5.4 722.5 2.9 724.9 7.5 722.8 10 720.4 5.4"/>
        <polygon id="rect147-4" class="cls-25" points="781.1 5.4 779 2.9 776.6 7.5 778.7 10 781.1 5.4"/>
        <polygon id="rect149-9" class="cls-25" points="785.1 11.2 781 8.7 776.1 13.4 780.3 15.8 785.1 11.2"/>
        <rect id="rect151-2" class="cls-18" x="773.4" y="148.3" width="3.2" height="4.9"/>
        <polygon id="rect153-1" class="cls-17" points="726.5 149.2 750.7 148.2 750.7 149.9 726.5 150.8 726.5 149.2"/>
        <path id="path31-1-4" class="cls-2" d="M711.5,38.1c1.1,0,1.3,0,1.5-.2.1,0,.3-.2.4-.4.1-.2.1-.3.2-2.7v-2.4s2.4,0,2.4,0h2.4v3.1c0,3.4,0,3.7-.4,4.6-.4,1.1-1.4,1.9-2.5,2-.7.1-1.5.1-2.2,0-1,0-2,0-2.3,0h-.6c0,0,0-2,0-2v-2s1.2,0,1.2,0h0ZM734.4,44.9c20.5,0,25.6,0,24.7.1h-.1s.1,0,.1,0c.1,0,0,0,0,0-.2,0,0,0,.2,0h.4s-.4,0-.4,0c-.2,0-.4,0-.3,0,0,0,.1.1.1.6s0,.5.2.6c.1,0,0,0,0,0-.2,0-.3,0-.3,0s-8.1,0-24.3,0h-24.3v-1.7h24.2ZM715.9,26.2h2.4v3.9h-4.9v-3.9h2.4ZM720.8,33.4c.1-1,.5-2,.9-3,.1-.2.2-.4.3-.6,0-.1.2-.3.3-.4.3-.4.6-.8,1-1.2,0,0,0,0,0-.1.3-.4.7-.7,1.1-1,.6-.4,1.2-.7,1.8-.9.9-.4,1.9-.5,2.9-.4.6,0,1.2,0,1.7.2.4.1.8.3,1,.3.1,0,.3.1.4.1.2,0,.4.2.6.3,1.4,1,2.6,2.3,3.4,3.8.9,1.9,1.1,4.1.4,6.2-.2.7-.5,1.3-.9,1.9-.4.6-.9,1.2-1.4,1.7-.9,1-2.1,1.7-3.5,2-1,.2-2,.3-3.1.2-1.2-.2-2.3-.7-3.3-1.4-.4-.3-.7-.6-1-.9-.1-.1-.2-.3-.3-.4-1-1.2-1.7-2.6-2.1-4.1-.1-.8-.2-1.6-.2-2.4h0ZM725.5,35.5c.2.9.7,1.7,1.4,2.4.8.7,1.9,1,2.9.6,1.3-.5,2.2-1.7,2.6-3,.2-.9.2-1.8,0-2.7-.3-1-.9-1.9-1.7-2.5-.3-.2-.6-.4-.9-.4-.8-.2-1.5,0-2.3.2-.7.4-1.2,1-1.6,1.7-.6,1.1-.7,2.4-.4,3.6h0ZM739.1,26.2s1.1,0,2.4,0h2.4s0,2.2,0,2.2c0,2,0,2.2.1,2.5.4.9,1.5,1.4,2.4,1.1.5-.1.9-.5,1.1-.9l.2-.4v-2.2s0-2.2,0-2.2h4.9v2.5c0,1,0,2.1-.2,3.1-.2.9-.7,1.8-1.3,2.5-.1.1-.2.2-.3.4-.3.4-.7.7-1.2,1-.4.3-.9.6-1.4.8-.1,0-.4.1-.7.2-.6.2-1.2.2-1.7.2-.6,0-1.2,0-1.8-.2-.7-.2-1.3-.4-1.9-.8-.7-.5-1.4-1.1-1.9-1.8-.7-.9-1.1-2-1.2-3.1,0-1.6,0-3.1,0-4.7h0ZM745.9,38.1h4v4.1h-7.9v-4.1h4ZM752.7,23s0-.1,0-.3c0-.2,0-.3.3-.3.2,0,6.9,0,14.9,0h14.6s0,.9,0,.9v.9h-14.9c-8.2,0-14.9,0-15,0,0,0-.1-.1-.1-.6s0-.5,0-.5h0ZM759.4,32.8h5.1v4h-10.1v-4h5.1ZM768.4,26.2h2.4v3.9h-4.9v-3.9h2.4ZM768.4,32.2h2.4v10.2h-4.9v-10.2h2.4ZM778.1,26.2h5.1v3.9h-10.2v-3.9h5.1ZM773.8,32.5s1.1,0,2.4,0h2.3s0,2.3,0,2.3c0,3.3-.1,3.1,2.4,3.1h1.6v4.1h-.6c-1.5.2-2.9.2-4.4,0-1,0-2-.5-2.7-1.3-.6-.7-.9-1.6-1-2.5,0-.7,0-5.8,0-5.8h0ZM786,24.2c.1-.4.3-.8.6-1.1.9-1,2.4-1.1,3.5-.3.4.2.7.6.9,1,.2.3.2.7.2,1.1,0,.4,0,.8-.2,1.1-.4.8-1.3,1.4-2.2,1.5-.8,0-1.6-.2-2.2-.8-.6-.6-.8-1.6-.6-2.4h0ZM786.5,25.9c.3.6.9,1.1,1.6,1.2.7.2,1.5,0,2.1-.6.2-.2.4-.4.5-.6.2-.3.2-.7.2-1,0-.3,0-.7-.2-1-.1-.3-.3-.5-.6-.7-.2-.2-.5-.3-.7-.4-1.2-.4-2.4.2-2.9,1.3-.2.6-.1,1.2,0,1.8h0ZM788.3,23.4c.4,0,.7,0,1.1,0,.4.3.6.8.3,1.3,0,.1-.2.2-.4.2h-.2c0,0,.2.3.2.3.2.2.3.4.4.6,0,.1.2.3.3.4.1,0,0,.2-.2.2h-.3s-.4-.6-.4-.6c-.4-.7-.5-.7-1-.7h-.3v1.4h-.2s-.2,0-.2,0v-1.5s0-1.5,0-1.5h.9ZM788.4,24.7c.5,0,.6,0,.8-.1.4-.3.2-.7-.4-.8-.3,0-.6,0-1,0,0,.2,0,.3,0,.5v.5h.6Z"/>
        <rect id="rect137-2" class="cls-25" x="716.4" y="11.2" width="68.8" height="137.5"/>
        <g id="text92" class="cls-16">
          <g id="text2" class="cls-16">
            <g class="cls-16">
              <path class="cls-2" d="M679.7,187.8c0,0,.1,0,.2,0,0,0,0,0,.1.2,0,0,0,.2,0,.3,0,.1,0,.3,0,.6s0,.5,0,.7c0,.2,0,.3-.1.4,0,0-.1.2-.2.2l-8.1,6h8.1c0,0,.1,0,.2,0,0,0,0,0,.1.2,0,0,0,.2,0,.3,0,.1,0,.3,0,.5s0,.4,0,.5c0,.1,0,.3,0,.3s0,.1-.1.2c0,0-.1,0-.2,0h-15.6c0,0-.1,0-.2,0,0,0,0,0-.1-.2s0-.2,0-.3c0-.1,0-.3,0-.5s0-.4,0-.5c0-.1,0-.2,0-.3,0,0,0-.1.1-.2,0,0,.1,0,.2,0h7.2l-7.2-5.7c0,0-.1-.1-.2-.2,0,0,0-.1-.1-.2s0-.2,0-.4c0-.1,0-.3,0-.5s0-.4,0-.5c0-.1,0-.2,0-.3s0-.1.1-.2c0,0,.1,0,.2,0,.1,0,.2,0,.3,0s.3.2.5.3l6.4,5.4,7.7-5.8c.2-.1.4-.2.4-.3,0,0,.1,0,.2,0Z"/>
            </g>
            <g class="cls-16">
              <path class="cls-2" d="M673.7,179.9h6c0,0,.1,0,.2,0,0,0,0,0,.1.2,0,0,0,.2,0,.3,0,.1,0,.3,0,.5s0,.4,0,.5c0,.1,0,.2,0,.3s0,.1-.1.2c0,0-.1,0-.2,0h-6l-9.2,4.6c-.2,0-.3.1-.5.2-.1,0-.2,0-.3,0,0,0,0-.2-.1-.3s0-.4,0-.7,0-.5,0-.6c0-.2,0-.3,0-.4,0,0,0-.2.1-.2s.1,0,.2-.1l4.7-2.2c.4-.2.9-.4,1.4-.6.5-.2,1-.4,1.5-.6h0c-.5-.2-1-.4-1.4-.6-.5-.2-.9-.4-1.4-.6l-4.7-2.3c0,0-.2,0-.2-.1,0,0-.1-.1-.1-.2s0-.2,0-.3c0-.1,0-.3,0-.5s0-.5,0-.7c0-.2,0-.3.1-.4,0,0,.1,0,.3,0,.1,0,.3,0,.4.2l9.2,4.6Z"/>
            </g>
            <g class="cls-16">
              <path class="cls-2" d="M673.7,169.2c.3,0,.6,0,.7.1.1,0,.2.2.2.3v5.2c0,.2,0,.3-.2.3s-.4.1-.7.1-.5,0-.7-.1c-.1,0-.2-.2-.2-.3v-5.2c0,0,0-.1,0-.2,0,0,0-.1.1-.1,0,0,.2,0,.3,0,.1,0,.2,0,.4,0Z"/>
              <path class="cls-2" d="M671.9,156.2c1.2,0,2.4,0,3.4.3,1,.2,1.9.5,2.7,1,.7.5,1.3,1.1,1.7,1.8s.6,1.6.6,2.7-.2,1.9-.5,2.6c-.4.7-.9,1.3-1.6,1.7-.7.4-1.6.7-2.6.9-1,.2-2.2.3-3.6.3s-2.4-.1-3.4-.3-1.9-.5-2.7-1-1.3-1-1.7-1.8c-.4-.7-.6-1.6-.6-2.7s.2-1.9.5-2.6c.4-.7.9-1.3,1.6-1.7.7-.4,1.6-.7,2.6-.9,1-.2,2.2-.3,3.6-.3ZM672.1,158.4c-.8,0-1.5,0-2.2,0-.6,0-1.2.1-1.7.3-.5.1-.9.3-1.3.4s-.6.4-.9.6c-.2.3-.4.5-.5.9-.1.3-.2.7-.2,1.1,0,.7.2,1.3.5,1.7.3.4.8.8,1.4,1,.6.3,1.3.4,2.1.5.8,0,1.6.1,2.5.1s2.2,0,3.1-.2,1.5-.3,2.1-.6c.5-.3.9-.6,1.2-1,.2-.4.4-.9.4-1.5s0-.9-.2-1.2-.4-.7-.6-.9-.6-.5-1-.6c-.4-.2-.8-.3-1.3-.4-.5-.1-1-.2-1.5-.2-.6,0-1.1,0-1.7,0Z"/>
              <path class="cls-2" d="M671.9,143.2c1.2,0,2.4,0,3.4.3,1,.2,1.9.5,2.7,1,.7.5,1.3,1.1,1.7,1.8s.6,1.6.6,2.7-.2,1.9-.5,2.6c-.4.7-.9,1.3-1.6,1.7-.7.4-1.6.7-2.6.9-1,.2-2.2.3-3.6.3s-2.4-.1-3.4-.3-1.9-.5-2.7-1-1.3-1-1.7-1.8c-.4-.7-.6-1.6-.6-2.7s.2-1.9.5-2.6c.4-.7.9-1.3,1.6-1.7.7-.4,1.6-.7,2.6-.9,1-.2,2.2-.3,3.6-.3ZM672.1,145.4c-.8,0-1.5,0-2.2,0-.6,0-1.2.1-1.7.3-.5.1-.9.3-1.3.4s-.6.4-.9.6c-.2.3-.4.5-.5.9-.1.3-.2.7-.2,1.1,0,.7.2,1.3.5,1.7.3.4.8.8,1.4,1,.6.3,1.3.4,2.1.5.8,0,1.6.1,2.5.1s2.2,0,3.1-.2,1.5-.3,2.1-.6c.5-.3.9-.6,1.2-1,.2-.4.4-.9.4-1.5s0-.9-.2-1.2-.4-.7-.6-.9-.6-.5-1-.6c-.4-.2-.8-.3-1.3-.4-.5-.1-1-.2-1.5-.2-.6,0-1.1,0-1.7,0Z"/>
              <path class="cls-2" d="M679.1,130.7c.2,0,.3,0,.4,0s.2,0,.3,0c0,0,.1,0,.2.2,0,0,0,.1,0,.2v9c0,.1,0,.2,0,.3,0,0,0,.2-.1.2,0,0-.2.1-.3.1-.1,0-.3,0-.5,0s-.3,0-.4,0c-.1,0-.2,0-.3,0,0,0-.2,0-.3-.2,0,0-.2-.1-.3-.3l-3.3-3.2c-.8-.7-1.5-1.4-2.1-1.8-.6-.5-1.2-.8-1.7-1-.5-.2-1-.4-1.4-.5-.4,0-.8-.1-1.2-.1s-.7,0-1,.2c-.3.1-.6.3-.8.5s-.4.5-.6.9-.2.7-.2,1.2,0,1,.2,1.4.3.8.5,1.1c.2.3.3.6.5.8.1.2.2.4.2.5s0,.1,0,.2c0,0,0,0-.2.1s-.2,0-.3,0c-.1,0-.3,0-.5,0s-.2,0-.3,0-.2,0-.2,0c0,0-.1,0-.2,0,0,0-.1-.1-.2-.2,0-.1-.2-.3-.4-.5-.2-.2-.3-.6-.4-.9-.1-.4-.3-.8-.4-1.2,0-.4-.2-.9-.2-1.4,0-.8.1-1.5.3-2.1s.5-1.1.9-1.5c.4-.4.8-.7,1.3-.9.5-.2,1.1-.3,1.6-.3s1,0,1.5.1c.5,0,1.1.3,1.7.6.6.3,1.3.7,2,1.3.7.6,1.6,1.3,2.5,2.2l2.7,2.6v-7.1c0,0,0-.1,0-.2,0,0,0-.1.2-.2s.2,0,.3-.1.2,0,.4,0Z"/>
            </g>
          </g>
        </g>
        <g id="text96" class="cls-16">
          <g class="cls-16">
            <path class="cls-2" d="M695.4,243c0,.8-.1,1.4-.4,2s-.7,1.1-1.2,1.5c-.5.4-1.1.7-1.8.9s-1.4.3-2.2.3-1,0-1.5-.1c-.5,0-.9-.2-1.2-.3s-.7-.3-.9-.4c-.2-.1-.4-.3-.5-.4,0-.1-.2-.2-.2-.4,0-.2,0-.4,0-.6s0-.3,0-.5c0-.1,0-.2,0-.3s0-.1.1-.2c0,0,.1,0,.2,0,.1,0,.3,0,.5.2.2.1.5.3.8.5.3.2.7.3,1.2.5s1,.2,1.6.2.9,0,1.3-.2c.4-.1.7-.3,1-.5.3-.2.5-.5.6-.8.2-.3.2-.7.2-1.1s-.1-.9-.3-1.2-.5-.6-.8-.9c-.3-.2-.7-.5-1.2-.7-.4-.2-.9-.4-1.3-.6-.5-.2-.9-.4-1.3-.7-.4-.3-.8-.6-1.2-.9-.3-.4-.6-.8-.8-1.2-.2-.5-.3-1-.3-1.7s.1-1.3.4-1.8c.2-.5.6-1,1-1.3.4-.4,1-.6,1.6-.8.6-.2,1.3-.3,2-.3s.7,0,1.1,0c.4,0,.7.1,1,.2.3.1.6.2.9.4s.4.2.5.3c0,0,.1.1.2.2s0,.1,0,.2,0,.2,0,.3c0,.1,0,.2,0,.4s0,.3,0,.4c0,.1,0,.2,0,.3,0,0,0,.1-.1.2,0,0,0,0-.2,0,0,0-.2,0-.4-.2-.2-.1-.4-.2-.7-.4-.3-.1-.6-.3-1-.4s-.8-.2-1.3-.2-.8,0-1.2.2c-.3.1-.6.3-.8.5-.2.2-.4.4-.5.7-.1.3-.2.6-.2.9,0,.5.1.8.3,1.2.2.3.5.6.8.9s.7.5,1.2.7c.4.2.9.4,1.4.6s.9.4,1.4.7c.4.3.8.6,1.2.9s.6.8.8,1.2.3,1,.3,1.7Z"/>
          </g>
        </g>
        <g id="text100" class="cls-16">
          <g class="cls-16">
            <path class="cls-2" d="M817.3,239.6c0,.3,0,.6-.3.7-.2.1-.4.2-.8.2h-12.3c-.4,0-.6,0-.8-.2-.2-.1-.3-.4-.3-.7s0-.5.3-.7c.2-.1.4-.2.8-.2h12.3c.2,0,.3,0,.4,0,.1,0,.2,0,.3.1,0,0,.2.2.2.3,0,.1,0,.2,0,.4Z"/>
          </g>
        </g>
      </g>
      <rect id="rect840" class="cls-7" x="775.7" y="272.8" width="11.3" height="263.6"/>
      <circle id="path289" class="cls-13" cx="718.7" cy="272.9" r="9.4"/>
      <circle id="circle291" class="cls-14" cx="749.8" cy="272.9" r="9.4"/>
      <circle id="circle293" class="cls-7" cx="781.4" cy="272.9" r="9.4"/>
      <rect id="rect826" class="cls-14" x="744.1" y="273.5" width="11.3" height="144.6"/>
      <rect id="rect849" class="cls-13" x="713" y="274.4" width="11.3" height="179.3"/>
      <rect id="rect4" class="cls-7" x="20.3" y="525" width="766.7" height="11.4"/>
      <rect id="rect5" class="cls-7" x="20.3" y="498" width="11.4" height="38.4"/>
      <circle id="circle281" class="cls-7" cx="26.1" cy="499.8" r="11.6" transform="translate(-474.1 517.8) rotate(-89.1)"/>
      <rect id="rect6" class="cls-14" x="20.3" y="406.7" width="735.1" height="11.4"/>
      <rect id="rect7" class="cls-14" x="20.3" y="406.7" width="11.4" height="63.6"/>
      <circle id="circle281-2" class="cls-14" cx="26.1" cy="469.1" r="11.6" transform="translate(-443.5 487.6) rotate(-89.1)"/>
      <circle id="circle281-4" class="cls-13" cx="576" cy="447.7" r="11.6"/>
      <rect id="rect849-3" class="cls-13" x="571.7" y="442.4" width="152.6" height="11.3"/>
    </g>
  </g>
</svg>