<?xml version="1.0" encoding="UTF-8"?>
<svg xmlns="http://www.w3.org/2000/svg" version="1.1" xmlns:inkscape="http://www.inkscape.org/namespaces/inkscape" xmlns:sodipodi="http://sodipodi.sourceforge.net/DTD/sodipodi-0.dtd" xmlns:svg="http://www.w3.org/2000/svg" viewBox="0 0 937.6 880.4">
  <defs>
    <style>
      .cls-1 {
        fill: #2c2c2c;
      }

      .cls-2, .cls-3 {
        fill: #fff;
      }

      .cls-4 {
        fill: #493930;
      }

      .cls-5 {
        fill: #be8839;
      }

      .cls-6 {
        fill: #dbded7;
      }

      .cls-7 {
        fill: #914f00;
      }

      .cls-8 {
        fill: #9a2442;
      }

      .cls-9 {
        fill: #303030;
      }

      .cls-10 {
        fill: #f53200;
      }

      .cls-11 {
        fill: #47494a;
      }

      .cls-12 {
        fill: #655a50;
      }

      .cls-13 {
        fill: #00b589;
      }

      .cls-14 {
        fill: #e30613;
      }

      .cls-15 {
        fill: #474949;
      }

      .cls-16, .cls-17, .cls-18, .cls-3, .cls-19, .cls-20 {
        isolation: isolate;
      }

      .cls-21 {
        fill: #fcf7fd;
      }

      .cls-22 {
        fill: #ada390;
      }

      .cls-23 {
        fill: #686868;
      }

      .cls-24 {
        fill: #e3ad51;
      }

      .cls-17, .cls-25 {
        fill: #1a1a1a;
      }

      .cls-17, .cls-18, .cls-3, .cls-19, .cls-20 {
        opacity: 1;
      }

      .cls-26 {
        fill: #ddd;
      }

      .cls-27, .cls-19 {
        fill: #ccc;
      }

      .cls-28 {
        fill: #c4b3a8;
      }

      .cls-29 {
        fill: #a3928b;
      }

      .cls-30 {
        fill: #36323e;
      }

      .cls-18 {
        fill: gray;
      }

      .cls-31 {
        fill: #eaeaea;
      }

      .cls-32 {
        fill: #1a1919;
      }

      .cls-33 {
        fill: #e3b37d;
      }

      .cls-34 {
        fill: #010103;
      }

      .cls-35 {
        fill: #f5b93e;
      }

      .cls-36 {
        fill: #e0dcd3;
      }

      .cls-37 {
        fill: none;
        stroke: #493930;
        stroke-miterlimit: 10;
      }

      .cls-38 {
        fill: #bcb3ad;
      }
    </style>
  </defs>
  <!-- Generator: Adobe Illustrator 28.6.0, SVG Export Plug-In . SVG Version: 1.2.0 Build 709)  -->
  <g>
    <g id="svg8">
      <g>
        <path class="cls-32" d="M590.7,111.7H8c-4,0-7.3,3.2-7.3,7.3v719c0,4,3.2,7.3,7.3,7.3h17.6l34.2,34.2h365.2s34.1-34.2,34.1-34.2h131.6c4,0,7.3-3.2,7.3-7.3V119c0-4-3.2-7.3-7.3-7.3ZM29,286.1c-10,0-18.1-8.1-18.1-18.1s8.1-18.1,18.1-18.1,18.1,8.1,18.1,18.1-8.1,18.1-18.1,18.1ZM88.9,868c-10,0-18.1-8.1-18.1-18.1s8.1-18.1,18.1-18.1,18.1,8.1,18.1,18.1-8.1,18.1-18.1,18.1ZM402,868c-10,0-18.1-8.1-18.1-18.1s8.1-18.1,18.1-18.1,18.1,8.1,18.1,18.1-8.1,18.1-18.1,18.1ZM570.3,297.5c-10,0-18.1-8.1-18.1-18.1s8.1-18.1,18.1-18.1,18.1,8.1,18.1,18.1-8.1,18.1-18.1,18.1Z"/>
        <rect class="cls-9" x="56.6" y="78.4" width="101.7" height="143.5"/>
        <path class="cls-9" d="M65.6,221.9h83.7v9.1c0,3.9-3.2,7.1-7.1,7.1h-69.4c-3.9,0-7.1-3.2-7.1-7.1v-9.1h0Z"/>
        <path class="cls-26" d="M572.1,150.4h-21.4v-4.6c0-.8-.6-1.4-1.4-1.4h-20.6c-.8,0-1.4.6-1.4,1.4v4.6h-21.4c-1,0-1.7.8-1.7,1.7v65.1c0,1,.8,1.7,1.7,1.7h66.3c1,0,1.7-.8,1.7-1.7v-65.1c0-1-.8-1.7-1.7-1.7Z"/>
        <circle class="cls-8" cx="539" cy="181.7" r="19.2"/>
        <g>
          <circle class="cls-26" cx="149.3" cy="330.4" r="35.2"/>
          <path class="cls-34" d="M130.3,305.8c-8.1,5.1-13.5,14.2-13.5,24.5s5.4,19.4,13.5,24.5v-49.1Z"/>
        </g>
        <g>
          <circle class="cls-26" cx="174.8" cy="429.3" r="35.2"/>
          <path class="cls-34" d="M167.5,399.2c-9.5,1.4-18.1,7.5-22.3,16.9s-2.9,19.9,2.4,27.9l19.9-44.9Z"/>
        </g>
        <rect class="cls-33" x="279.3" y="192.2" width="9.8" height="21.5"/>
        <rect class="cls-33" x="363" y="235.9" width="9.8" height="21.5"/>
        <rect class="cls-33" x="452.3" y="310" width="9.8" height="21.5" transform="translate(777.9 -136.4) rotate(90)"/>
        <rect class="cls-33" x="452.3" y="250.5" width="9.8" height="21.5" transform="translate(718.5 -195.9) rotate(90)"/>
        <rect class="cls-33" x="327.8" y="339" width="9.8" height="21.5"/>
        <rect class="cls-35" x="397.4" y="436.3" width="9.8" height="21.5"/>
        <rect class="cls-33" x="424.2" y="436.3" width="9.8" height="21.5"/>
        <rect class="cls-33" x="450.5" y="436.3" width="9.8" height="21.5"/>
        <rect class="cls-33" x="330.6" y="723.9" width="9.8" height="21.5" transform="translate(-399.1 1070.2) rotate(-90)"/>
        <rect class="cls-35" x="388" y="742.1" width="9.8" height="21.5"/>
        <rect class="cls-15" x="303.3" y="235.9" width="31.5" height="14.6" rx="1.5" ry="1.5"/>
        <g>
          <path class="cls-36" d="M305.9,223.4h12.2v11.5h-12.2c-.7,0-1.2-.6-1.2-1.2v-9c0-.7.6-1.2,1.2-1.2Z" transform="translate(540.6 -82.2) rotate(90)"/>
          <path class="cls-36" d="M321.2,223.4h12.2v11.5h-12.2c-.7,0-1.2-.6-1.2-1.2v-9c0-.7.6-1.2,1.2-1.2Z" transform="translate(555.9 -97.5) rotate(90)"/>
        </g>
        <g>
          <rect class="cls-6" x="423.8" y="409.2" width="10.7" height="17.2"/>
          <rect class="cls-15" x="423.8" y="411.8" width="10.7" height="11.8"/>
        </g>
        <g>
          <rect class="cls-6" x="450.1" y="409.2" width="10.7" height="17.2"/>
          <rect class="cls-15" x="450.1" y="411.8" width="10.7" height="11.8"/>
        </g>
        <g>
          <rect class="cls-6" x="309.8" y="375.8" width="10.7" height="17.2" transform="translate(-69.2 699.6) rotate(-90)"/>
          <rect class="cls-15" x="309.7" y="378.5" width="10.7" height="11.8" transform="translate(-69.4 699.4) rotate(-90)"/>
        </g>
        <g>
          <rect class="cls-6" x="254.8" y="375.8" width="10.7" height="17.2" transform="translate(-124.3 644.5) rotate(-90)"/>
          <rect class="cls-15" x="254.6" y="378.5" width="10.7" height="11.8" transform="translate(-124.4 644.3) rotate(-90)"/>
        </g>
        <g>
          <rect class="cls-6" x="388" y="711.8" width="10.7" height="17.2"/>
          <rect class="cls-15" x="388" y="714.4" width="10.7" height="11.8"/>
        </g>
        <g>
          <rect class="cls-6" x="330.2" y="746" width="10.7" height="17.2" transform="translate(-419.1 1090.2) rotate(-90)"/>
          <rect class="cls-15" x="330" y="748.7" width="10.7" height="11.8" transform="translate(-419.3 1090) rotate(-90)"/>
        </g>
        <g>
          <rect class="cls-6" x="478.7" y="159.1" width="10.7" height="17.2"/>
          <rect class="cls-15" x="478.7" y="161.6" width="10.7" height="11.8"/>
        </g>
        <g>
          <rect class="cls-6" x="339.1" y="160.1" width="10.7" height="17.2"/>
          <rect class="cls-15" x="339.1" y="162.6" width="10.7" height="11.8"/>
        </g>
        <rect class="cls-29" x="442.6" y="273.3" width="12.2" height="32.8" rx="3.7" ry="3.7"/>
        <g>
          <rect class="cls-24" x="370.6" y="524.4" width="22.3" height="17.8" rx="2.9" ry="2.9" transform="translate(-265.3 426.1) rotate(-45)"/>
          <rect class="cls-28" x="371.5" y="525.1" width="20.5" height="16.4" rx="2.9" ry="2.9" transform="translate(-265.3 426.1) rotate(-45)"/>
        </g>
        <rect class="cls-38" x="375.5" y="500.3" width="12.2" height="11"/>
        <rect class="cls-38" x="395.1" y="500.3" width="12.2" height="11"/>
        <rect class="cls-38" x="375.5" y="553.2" width="12.2" height="11"/>
        <rect class="cls-38" x="395.1" y="553.2" width="12.2" height="11"/>
        <rect class="cls-10" x="326.9" y="776.6" width="20.8" height="11" rx="2.8" ry="2.8"/>
        <g>
          <path class="cls-2" d="M31.9,146.6v-4.5h2.1v7.1h-1.5c-2.9-2.4-4.8-2.7-8.9-2.8v-2.5c3.4.2,5.6.7,8.3,2.7Z"/>
          <path class="cls-2" d="M28.5,150.6v4h-1.7v-4h1.7Z"/>
          <path class="cls-2" d="M25.6,156.4v2.2h5.9v-1.9h1.5c.2,1.1.5,1.8.9,2.6v1.8h-8.4v1.9h-2v-6.6h2Z"/>
          <path class="cls-2" d="M25.1,164.4c2.3,2.7,4.2,4.4,5.6,4.4s1.5-.5,1.5-1.4-.5-1.3-1-1.8l1.3-1.3c1.1,1,1.7,1.9,1.7,3.4s-1.3,3.4-3.3,3.4-3.8-1.7-5.4-3.3c0,.5.1,1.2.1,1.7v2.1h-2.1v-7.2h1.5Z"/>
          <path class="cls-2" d="M34,172.2v2.6l-4.8,1.1c-1.1.3-2.2.5-3.3.8h0c1.1.4,2.2.6,3.3.9l4.8,1.2v2.5l-10.4-3.2v-3l10.4-3.1Z"/>
          <path class="cls-2" d="M34,185.7v2.5h-10.4v-2.5h10.4Z"/>
          <path class="cls-2" d="M34,190.6v2.6l-5,2.6c-.7.4-1.5.7-2.4,1h0c1.1,0,2.6-.3,3.8-.3h3.5v2.4h-10.4v-2.6l5-2.6c.7-.4,1.5-.7,2.4-1h0c-1.2,0-2.6.3-3.8.3h-3.5v-2.4h10.4Z"/>
          <path class="cls-2" d="M34,201.2v3.7c0,2.3-.8,4.2-3.4,4.2s-3.6-1.9-3.6-4.1v-1.2h-3.5v-2.5h10.4ZM29,204.8c0,1.2.6,1.8,1.6,1.8s1.4-.7,1.4-1.9v-1h-3v1.1Z"/>
          <path class="cls-2" d="M28.5,210.8h5.5v2.5h-5.8c-2,0-2.7.6-2.7,1.7s.7,1.8,2.7,1.8h5.8v2.4h-5.5c-3.5,0-5.1-1.4-5.1-4.2s1.6-4.2,5.1-4.2Z"/>
          <path class="cls-2" d="M31.9,223.6v-2.8h2.1v8.1h-2.1v-2.8h-8.3v-2.5h8.3Z"/>
        </g>
        <g>
          <path class="cls-2" d="M589.3,160.2v3.8c0,2.2-.8,4.1-3.3,4.1s-2.5-.7-3-1.8l-4.1,2.3v-2.8l3.7-1.9v-1.2h-3.7v-2.5h10.4ZM584.6,163.8c0,1.2.5,1.8,1.5,1.8s1.3-.6,1.3-1.8v-1.1h-2.8v1.1Z"/>
          <path class="cls-2" d="M589.3,170.1v6.6h-2.1v-4.1h-2v3.5h-2.1v-3.5h-2.2v4.3h-2.1v-6.8h10.4Z"/>
          <path class="cls-2" d="M580.3,178.2l1.6,1.3c-.6.7-1,1.7-1,2.6s.4,1.4.9,1.4.8-.6,1.2-1.5l.6-1.3c.4-1.1,1.3-2.1,2.8-2.1s3.2,1.6,3.2,3.8-.5,2.5-1.3,3.4l-1.6-1.3c.5-.7.8-1.4.8-2.1s-.3-1.3-.8-1.3-.8.7-1.2,1.6l-.5,1.3c-.5,1.3-1.4,2.1-2.8,2.1s-3.3-1.5-3.3-4,.5-2.8,1.5-3.9Z"/>
          <path class="cls-2" d="M589.3,187.8v6.6h-2.1v-4.1h-2v3.5h-2.1v-3.5h-2.2v4.3h-2.1v-6.8h10.4Z"/>
          <path class="cls-2" d="M587.3,198.6v-2.8h2.1v8.1h-2.1v-2.8h-8.3v-2.5h8.3Z"/>
        </g>
        <g>
          <path class="cls-2" d="M372.4,820.9v2.5h-10.4v-2.5h10.4Z"/>
          <path class="cls-2" d="M367.1,825.3c3.5,0,5.5,2.3,5.5,5s-.6,2.4-1.4,3.2l-1.5-1.3c.5-.5.7-1.1.7-1.8,0-1.4-1.2-2.5-3.2-2.5s-3.3,1-3.3,2.4.3,1.5.9,2l-1.5,1.3c-1-.9-1.5-2.1-1.5-3.4,0-2.7,1.8-4.9,5.3-4.9Z"/>
          <path class="cls-2" d="M363.3,834l1.6,1.3c-.6.7-1,1.7-1,2.6s.4,1.4.9,1.4.8-.6,1.2-1.5l.6-1.3c.4-1.1,1.3-2.1,2.8-2.1s3.2,1.6,3.2,3.8-.5,2.5-1.3,3.4l-1.6-1.3c.5-.7.8-1.4.8-2.1s-.3-1.3-.8-1.3-.8.7-1.2,1.6l-.5,1.3c-.5,1.3-1.4,2.1-2.8,2.1s-3.3-1.5-3.3-4,.5-2.8,1.5-3.9Z"/>
          <path class="cls-2" d="M372.4,843.6v3.7c0,2.3-.8,4.2-3.4,4.2s-3.6-1.9-3.6-4.1v-1.2h-3.5v-2.5h10.4ZM367.4,847.2c0,1.2.6,1.8,1.6,1.8s1.4-.7,1.4-1.9v-1h-3v1.1Z"/>
        </g>
        <path class="cls-2" d="M389.4,772.8c-1.2,1-2,2.5-2,4.2,0,3,2.5,5.5,5.5,5.5s5.5-2.5,5.5-5.5-.8-3.2-2-4.2c-.4-.4-.5-1-.1-1.4s1-.5,1.4-.1c1.6,1.4,2.7,3.5,2.7,5.8,0,4.1-3.4,7.5-7.5,7.5s-7.5-3.4-7.5-7.5,1.1-4.4,2.7-5.8c.4-.4,1.1-.3,1.4.1.4.4.3,1.1-.1,1.4h0ZM393.9,777.1c0,.6-.4,1-1,1s-1-.4-1-1v-7c0-.6.4-1,1-1s1,.4,1,1v7Z"/>
        <polyline class="cls-37" points="36.7 304.2 43.4 304.2 106 366.9 116.8 366.9"/>
        <polyline class="cls-37" points="36.5 312.3 43.4 312.3 103.5 372.5 103.5 504.2 160.3 560.9 213 560.9 225.3 548.5 264.2 548.5"/>
        <polyline class="cls-37" points="34 339.8 45.4 339.8 87.6 382 87.6 505 157.4 574.8 269.1 574.8"/>
        <polyline class="cls-37" points="23.6 425.3 62.6 464.3 62.6 528.2 33.9 556.9"/>
        <line class="cls-4" x1="76.8" y1="507.1" x2="152.6" y2="582.9"/>
        <polyline class="cls-37" points="132.1 574.4 89.3 617.1 25.2 617.1"/>
        <polyline class="cls-37" points="132.1 585 92 625 26.7 625"/>
        <polyline class="cls-37" points="268.1 583.5 235.5 583.5 159.9 659.1 79.4 659.1 56.7 681.8 31.9 681.8"/>
        <polyline class="cls-37" points="250.2 592.6 250.2 638.9 180.3 708.7 31.2 708.7"/>
        <polyline class="cls-37" points="265.5 612.5 265.5 648.8 176.9 737.3 31.9 737.3"/>
        <polyline class="cls-37" points="274.3 612.3 274.3 651.5 159.5 766.3 25.2 766.3"/>
        <polyline class="cls-37" points="283.2 613.2 283.2 658.8 148.1 793.9 31.2 793.9"/>
        <polyline class="cls-37" points="291.8 617.2 291.8 666.6 135.4 823 31.2 823"/>
        <line class="cls-4" x1="329.5" y1="702.2" x2="292.8" y2="665.6"/>
        <polyline class="cls-37" points="331.8 718.5 306.6 693.3 280.8 693.3"/>
        <polyline class="cls-37" points="345.1 726.2 345.1 667.5 300.5 622.8 300.5 603.4"/>
        <polyline class="cls-37" points="279.2 841 262.8 824.7 262.8 760 288.1 734.7"/>
        <polyline class="cls-37" points="308.9 611.8 308.9 622.7 362.4 676.2 402.2 676.2 507.5 781.5 507.5 810.7 519.3 822.4 564.4 822.4"/>
        <polyline class="cls-37" points="317.8 612.9 317.8 623.8 360.1 666.1 422.1 666.1 569.4 813.3"/>
        <polyline class="cls-37" points="327.9 612.4 368.6 653.2 434.2 653.2 574.7 793.7"/>
        <polyline class="cls-37" points="346.5 591.8 400.9 591.8 571.9 762.8"/>
        <polyline class="cls-37" points="347.8 583.5 408 583.5 574.2 749.7"/>
        <polyline class="cls-37" points="496.7 603.3 489.8 596.4 443.8 596.4"/>
        <polyline class="cls-37" points="347.8 539.9 358.9 539.9 367.8 548.7 378.4 548.7"/>
        <polyline class="cls-37" points="347.6 530.9 357.5 530.9 368.1 520.4 381.3 520.4"/>
        <polyline class="cls-37" points="326.1 507.4 342.5 491 412.5 491 567.5 646"/>
        <polyline class="cls-37" points="317.7 509.2 317.7 504.6 337.2 485.1 415.4 485.1 575.8 645.5"/>
        <polyline class="cls-37" points="309 509.2 309 500.8 329.2 480.5 419.2 480.5 575.5 636.9"/>
        <polyline class="cls-37" points="300.4 507.6 300.4 499.4 324.2 475.6 419.5 475.6 577.1 633.1"/>
        <polyline class="cls-37" points="291.8 507.1 291.8 495.2 316.7 470.2 420.7 470.2 581.2 630.7"/>
        <polyline class="cls-37" points="282.9 508.8 282.9 487 304.1 466.9 425.8 466.9 480.8 522 581.2 522"/>
        <polyline class="cls-37" points="274.2 506.9 274.2 483.6 298 461.7 427.5 461.7 458.8 493 579.8 493"/>
        <polyline class="cls-37" points="265.5 506.4 265.5 482.4 287.5 460.4 290.9 457"/>
        <polyline class="cls-37" points="221.9 524.5 221.9 495.4 290.2 427.1 316.1 427.1 323.1 434.1 372.9 434.1 400.3 406.7 427.5 406.7"/>
        <polyline class="cls-37" points="211 421.6 315 421.6 335.8 400.8 355 400.8"/>
        <polyline class="cls-37" points="287.3 351.1 287.3 361.8 278.3 370.8 260.9 370.8 248.3 358.2 248.3 348.9 248.3 323.8"/>
        <polyline class="cls-37" points="227.5 293.1 227.5 284.9 233 279.4 250 279.4"/>
        <polyline class="cls-37" points="191.9 270.8 238.1 270.8 258.7 250.3 258.7 228.4"/>
        <polyline class="cls-37" points="319.9 257.3 333.7 257.3 342.3 248.7 342.3 216.1 314.3 188.1 298.6 188.1 276.7 166.1"/>
        <polyline class="cls-37" points="286.6 162.6 300.4 176.4 312 176.4"/>
        <polyline class="cls-37" points="323.9 160.1 323.9 180.4 345.1 201.5 380.6 201.5 385.3 196.8 385.3 167.7"/>
        <path class="cls-37" d="M403.2,277.6v-48.4"/>
        <path class="cls-37" d="M418.8,229.2v22"/>
        <polyline class="cls-37" points="416.3 284.9 428.7 284.9 440.7 272.9"/>
        <polyline class="cls-37" points="416.2 298.6 429.1 298.6 441.2 310.7"/>
        <line class="cls-37" x1="416.7" y1="339.8" x2="440.3" y2="339.8"/>
        <line class="cls-37" x1="414.5" y1="353.8" x2="442.6" y2="353.8"/>
        <polyline class="cls-37" points="416.2 367.2 427.5 367.2 442.6 367.2"/>
        <line class="cls-37" x1="563.6" y1="230.1" x2="531.1" y2="262.6"/>
        <g>
          <rect class="cls-15" x="257.9" y="523.6" width="76" height="76" rx="5.9" ry="5.9"/>
          <circle class="cls-1" cx="323" cy="587.7" r="4.8"/>
          <g>
            <path class="cls-36" d="M241,528.2h16.9v5.9h-16.9c-.7,0-1.2-.6-1.2-1.2v-3.4c0-.7.6-1.2,1.2-1.2Z"/>
            <path class="cls-36" d="M241,536.9h16.9v5.9h-16.9c-.7,0-1.2-.6-1.2-1.2v-3.4c0-.7.6-1.2,1.2-1.2Z"/>
            <path class="cls-36" d="M241,545.6h16.9v5.9h-16.9c-.7,0-1.2-.6-1.2-1.2v-3.4c0-.7.6-1.2,1.2-1.2Z"/>
            <path class="cls-36" d="M241,554.3h16.9v5.9h-16.9c-.7,0-1.2-.6-1.2-1.2v-3.4c0-.7.6-1.2,1.2-1.2Z"/>
            <path class="cls-36" d="M241,563h16.9v5.9h-16.9c-.7,0-1.2-.6-1.2-1.2v-3.4c0-.7.6-1.2,1.2-1.2Z"/>
            <path class="cls-36" d="M241,571.7h16.9v5.9h-16.9c-.7,0-1.2-.6-1.2-1.2v-3.4c0-.7.6-1.2,1.2-1.2Z"/>
            <path class="cls-36" d="M241,580.4h16.9v5.9h-16.9c-.7,0-1.2-.6-1.2-1.2v-3.4c0-.7.6-1.2,1.2-1.2Z"/>
            <path class="cls-36" d="M241,589.1h16.9v5.9h-16.9c-.7,0-1.2-.6-1.2-1.2v-3.4c0-.7.6-1.2,1.2-1.2Z"/>
          </g>
          <g>
            <path class="cls-36" d="M318.5,511.6h16.9v5.9h-16.9c-.7,0-1.2-.6-1.2-1.2v-3.4c0-.7.6-1.2,1.2-1.2Z" transform="translate(840.9 188.2) rotate(90)"/>
            <path class="cls-36" d="M309.8,511.6h16.9v5.9h-16.9c-.7,0-1.2-.6-1.2-1.2v-3.4c0-.7.6-1.2,1.2-1.2Z" transform="translate(832.2 196.9) rotate(90)"/>
            <path class="cls-36" d="M301.1,511.6h16.9v5.9h-16.9c-.7,0-1.2-.6-1.2-1.2v-3.4c0-.7.6-1.2,1.2-1.2Z" transform="translate(823.5 205.6) rotate(90)"/>
            <path class="cls-36" d="M292.4,511.6h16.9v5.9h-16.9c-.7,0-1.2-.6-1.2-1.2v-3.4c0-.7.6-1.2,1.2-1.2Z" transform="translate(814.8 214.3) rotate(90)"/>
            <path class="cls-36" d="M283.7,511.6h16.9v5.9h-16.9c-.7,0-1.2-.6-1.2-1.2v-3.4c0-.7.6-1.2,1.2-1.2Z" transform="translate(806.1 223) rotate(90)"/>
            <path class="cls-36" d="M275,511.6h16.9v5.9h-16.9c-.7,0-1.2-.6-1.2-1.2v-3.4c0-.7.6-1.2,1.2-1.2Z" transform="translate(797.4 231.7) rotate(90)"/>
            <path class="cls-36" d="M266.4,511.6h16.9v5.9h-16.9c-.7,0-1.2-.6-1.2-1.2v-3.4c0-.7.6-1.2,1.2-1.2Z" transform="translate(788.7 240.4) rotate(90)"/>
            <path class="cls-36" d="M257.7,511.6h16.9v5.9h-16.9c-.7,0-1.2-.6-1.2-1.2v-3.4c0-.7.6-1.2,1.2-1.2Z" transform="translate(780 249.1) rotate(90)"/>
          </g>
          <g>
            <path class="cls-36" d="M257.7,605.7h16.9v5.9h-16.9c-.7,0-1.2-.6-1.2-1.2v-3.4c0-.7.6-1.2,1.2-1.2Z" transform="translate(-343.2 874.1) rotate(-90)"/>
            <path class="cls-36" d="M266.4,605.7h16.9v5.9h-16.9c-.7,0-1.2-.6-1.2-1.2v-3.4c0-.7.6-1.2,1.2-1.2Z" transform="translate(-334.5 882.8) rotate(-90)"/>
            <path class="cls-36" d="M275,605.7h16.9v5.9h-16.9c-.7,0-1.2-.6-1.2-1.2v-3.4c0-.7.6-1.2,1.2-1.2Z" transform="translate(-325.8 891.5) rotate(-90)"/>
            <path class="cls-36" d="M283.7,605.7h16.9v5.9h-16.9c-.7,0-1.2-.6-1.2-1.2v-3.4c0-.7.6-1.2,1.2-1.2Z" transform="translate(-317.1 900.2) rotate(-90)"/>
            <path class="cls-36" d="M292.4,605.7h16.9v5.9h-16.9c-.7,0-1.2-.6-1.2-1.2v-3.4c0-.7.6-1.2,1.2-1.2Z" transform="translate(-308.4 908.9) rotate(-90)"/>
            <path class="cls-36" d="M301.1,605.7h16.9v5.9h-16.9c-.7,0-1.2-.6-1.2-1.2v-3.4c0-.7.6-1.2,1.2-1.2Z" transform="translate(-299.7 917.6) rotate(-90)"/>
            <path class="cls-36" d="M309.8,605.7h16.9v5.9h-16.9c-.7,0-1.2-.6-1.2-1.2v-3.4c0-.7.6-1.2,1.2-1.2Z" transform="translate(-291 926.3) rotate(-90)"/>
            <path class="cls-36" d="M318.5,605.7h16.9v5.9h-16.9c-.7,0-1.2-.6-1.2-1.2v-3.4c0-.7.6-1.2,1.2-1.2Z" transform="translate(-282.3 935) rotate(-90)"/>
          </g>
          <g>
            <path class="cls-36" d="M335.1,588.8h16.9v5.9h-16.9c-.7,0-1.2-.6-1.2-1.2v-3.4c0-.7.6-1.2,1.2-1.2Z" transform="translate(685.9 1183.5) rotate(180)"/>
            <path class="cls-36" d="M335.1,580.1h16.9v5.9h-16.9c-.7,0-1.2-.6-1.2-1.2v-3.4c0-.7.6-1.2,1.2-1.2Z" transform="translate(685.9 1166.1) rotate(180)"/>
            <path class="cls-36" d="M335.1,571.4h16.9v5.9h-16.9c-.7,0-1.2-.6-1.2-1.2v-3.4c0-.7.6-1.2,1.2-1.2Z" transform="translate(685.9 1148.7) rotate(180)"/>
            <path class="cls-36" d="M335.1,562.7h16.9v5.9h-16.9c-.7,0-1.2-.6-1.2-1.2v-3.4c0-.7.6-1.2,1.2-1.2Z" transform="translate(685.9 1131.4) rotate(180)"/>
            <path class="cls-36" d="M335.1,554h16.9v5.9h-16.9c-.7,0-1.2-.6-1.2-1.2v-3.4c0-.7.6-1.2,1.2-1.2Z" transform="translate(685.9 1114) rotate(180)"/>
            <path class="cls-36" d="M335.1,545.4h16.9v5.9h-16.9c-.7,0-1.2-.6-1.2-1.2v-3.4c0-.7.6-1.2,1.2-1.2Z" transform="translate(685.9 1096.6) rotate(180)"/>
            <path class="cls-36" d="M335.1,536.7h16.9v5.9h-16.9c-.7,0-1.2-.6-1.2-1.2v-3.4c0-.7.6-1.2,1.2-1.2Z" transform="translate(685.9 1079.2) rotate(180)"/>
            <path class="cls-36" d="M335.1,528h16.9v5.9h-16.9c-.7,0-1.2-.6-1.2-1.2v-3.4c0-.7.6-1.2,1.2-1.2Z" transform="translate(685.9 1061.8) rotate(180)"/>
          </g>
        </g>
        <path class="cls-2" d="M247.7,686.8v7.2c0,1.3,0,2.5-.1,3.5,0,.8-.2,1.6-.4,2.4-.2.7-.5,1.3-.8,1.9-.5.7-1,1.4-1.6,2-.6.7-1.5,1.2-2.5,1.6-1.1.3-2.3.5-3.7.5h-6v-7.4h3.7c.5,0,.9,0,1.4-.2.3-.1.6-.3.9-.6.2-.3.4-.7.5-1.1.1-.6.2-1.2.2-1.7v-7.9h8.5ZM233.3,710.2h95v3.1h-95v-3.1ZM247.7,674.9v7.4h-8.5v-7.4h8.5ZM268,674.3c1.1,0,2.3,0,3.4.3,1,.2,2.1.5,3.1.9,1,.4,1.9.9,2.7,1.4.9.6,1.7,1.2,2.4,2,.7.7,1.4,1.6,1.9,2.4.6.9,1,1.8,1.4,2.7.4,1,.7,2,.8,3.1.2,1.1.3,2.3.3,3.4,0,1.1,0,2.2-.3,3.3-.2,1-.5,2-.8,3-.4.9-.8,1.9-1.4,2.7-.6.9-1.2,1.7-1.9,2.4-.7.7-1.5,1.4-2.4,2-.8.6-1.7,1-2.7,1.4-1,.4-2,.7-3,.9-1.1.2-2.2.3-3.3.3-1.1,0-2.3,0-3.4-.3-1-.2-2.1-.5-3.1-.8-1-.4-1.9-.8-2.7-1.4-1.7-1.1-3.2-2.6-4.4-4.4-.6-.9-1-1.8-1.4-2.7-.4-1-.7-2-.9-3-.4-2.2-.4-4.5,0-6.7.2-1,.5-2.1.9-3,.4-1,.8-1.9,1.4-2.7.6-.9,1.2-1.7,2-2.5.7-.8,1.5-1.4,2.4-2,.8-.6,1.7-1.1,2.7-1.4,1-.4,2-.7,3-.9,1.1-.2,2.2-.3,3.3-.3h0ZM268,681.4c-1,0-2,.2-3,.6-.9.4-1.6,1-2.2,1.8-.6.8-1.1,1.8-1.4,2.8-.3,1.1-.5,2.3-.5,3.7,0,1.3.1,2.5.5,3.8.3,1,.8,2,1.4,2.9.6.8,1.4,1.4,2.3,1.8.9.4,1.9.6,3,.6,1,0,2-.2,3-.6.9-.4,1.6-1,2.2-1.8.6-.9,1.1-1.8,1.4-2.8.3-1.1.5-2.4.5-3.8,0-1.2-.1-2.5-.5-3.7-.3-1-.8-2-1.4-2.8-.6-.8-1.4-1.4-2.3-1.8-.9-.4-1.9-.6-3-.6h0ZM287.5,674.9h8.5v7.7c0,1.6.3,2.8.9,3.6s1.6,1.2,2.8,1.2c1.3,0,2.3-.4,2.9-1.3s1-2.1,1-3.8v-7.4h8.4v5.4c0,1.3,0,2.5-.2,3.6,0,.9-.2,1.8-.5,2.7-.3.9-.6,1.7-1.1,2.5-.6,1-1.3,1.9-2,2.7-.4.5-.9.9-1.5,1.3-.6.4-1.2.7-1.9.9-.8.3-1.6.4-2.4.5-.9.1-1.9.2-2.8.2-.9,0-1.8,0-2.7-.2-.8-.1-1.5-.3-2.3-.5-.7-.2-1.3-.5-1.9-.9-.5-.3-1-.7-1.5-1.2-.8-.8-1.5-1.7-2.1-2.6-.5-.7-.9-1.5-1.2-2.4-.3-.9-.4-1.8-.5-2.7-.1-1.1-.2-2.3-.2-3.4v-6.1ZM306.7,698.5v7.4h-14.2v-7.4h14.2ZM310.7,668.1h56.8v2.9h-56.8v-2.9ZM314.4,688.4h18.3v7.3h-18.3v-7.3ZM344.4,674.9v7.4h-8.5v-7.4h8.5ZM344.4,686.8v19.1h-8.5v-19.1h8.5ZM368.9,674.9v7.4h-19.9v-7.4h19.9ZM350.4,686.8h8.4v7.7c0,.7,0,1.3.2,2,.1.5.3.9.5,1.2.2.2.6.4,1.1.6.6.1,1.2.2,1.8.2h5.5v7.4h-7.9c-.8,0-1.6,0-2.3-.2-.7,0-1.4-.3-2-.5-.6-.2-1.1-.5-1.7-.8-.5-.3-.9-.7-1.3-1.1-.4-.4-.7-.9-1-1.5-.3-.6-.5-1.2-.7-1.9-.2-.8-.3-1.5-.4-2.3,0-.9-.1-1.8-.1-2.7v-8.1Z"/>
        <rect class="cls-33" x="209.6" y="515.3" width="9.8" height="21.5" transform="translate(-311.6 740.6) rotate(-90)"/>
        <rect class="cls-33" x="350.1" y="399.1" width="9.8" height="21.5"/>
        <g>
          <rect class="cls-15" x="268.7" y="302.5" width="50.5" height="39.3" rx="2.5" ry="2.5"/>
          <circle class="cls-1" cx="272.9" cy="333.8" r="2.7"/>
          <g>
            <path class="cls-36" d="M268.5,345.5h12.2v6.1h-12.2c-.7,0-1.2-.6-1.2-1.2v-3.6c0-.7.6-1.2,1.2-1.2Z" transform="translate(-74.5 622.5) rotate(-90)"/>
            <path class="cls-36" d="M281.8,345.5h12.2v6.1h-12.2c-.7,0-1.2-.6-1.2-1.2v-3.6c0-.7.6-1.2,1.2-1.2Z" transform="translate(-61.2 635.8) rotate(-90)"/>
            <path class="cls-36" d="M295.1,345.5h12.2v6.1h-12.2c-.7,0-1.2-.6-1.2-1.2v-3.6c0-.7.6-1.2,1.2-1.2Z" transform="translate(-47.9 649.1) rotate(-90)"/>
            <path class="cls-36" d="M308.4,345.5h12.2v6.1h-12.2c-.7,0-1.2-.6-1.2-1.2v-3.6c0-.7.6-1.2,1.2-1.2Z" transform="translate(-34.6 662.4) rotate(-90)"/>
          </g>
          <g>
            <path class="cls-36" d="M308.4,292.7h12.2v6.1h-12.2c-.7,0-1.2-.6-1.2-1.2v-3.6c0-.7.6-1.2,1.2-1.2Z" transform="translate(609.7 -18.1) rotate(90)"/>
            <path class="cls-36" d="M295.1,292.7h12.2v6.1h-12.2c-.7,0-1.2-.6-1.2-1.2v-3.6c0-.7.6-1.2,1.2-1.2Z" transform="translate(596.4 -4.8) rotate(90)"/>
            <path class="cls-36" d="M281.8,292.7h12.2v6.1h-12.2c-.7,0-1.2-.6-1.2-1.2v-3.6c0-.7.6-1.2,1.2-1.2Z" transform="translate(583.1 8.5) rotate(90)"/>
            <path class="cls-36" d="M268.5,292.7h12.2v6.1h-12.2c-.7,0-1.2-.6-1.2-1.2v-3.6c0-.7.6-1.2,1.2-1.2Z" transform="translate(569.8 21.7) rotate(90)"/>
          </g>
        </g>
        <g>
          <g>
            <path class="cls-36" d="M222.8,320h12.2v9.6h-12.2c-.7,0-1.2-.6-1.2-1.2v-7.1c0-.7.6-1.2,1.2-1.2Z" transform="translate(-96.6 553.1) rotate(-90)"/>
            <path class="cls-36" d="M242.4,320h12.2v9.6h-12.2c-.7,0-1.2-.6-1.2-1.2v-7.1c0-.7.6-1.2,1.2-1.2Z" transform="translate(-76.9 572.7) rotate(-90)"/>
          </g>
          <g>
            <path class="cls-36" d="M222.1,292h12.2v6.1h-12.2c-.7,0-1.2-.6-1.2-1.2v-3.6c0-.7.6-1.2,1.2-1.2Z" transform="translate(522.6 67.5) rotate(90)"/>
            <path class="cls-36" d="M232.6,292h12.2v6.1h-12.2c-.7,0-1.2-.6-1.2-1.2v-3.6c0-.7.6-1.2,1.2-1.2Z" transform="translate(533.1 56.9) rotate(90)"/>
            <path class="cls-36" d="M243.1,292h12.2v6.1h-12.2c-.7,0-1.2-.6-1.2-1.2v-3.6c0-.7.6-1.2,1.2-1.2Z" transform="translate(543.6 46.4) rotate(90)"/>
          </g>
          <rect class="cls-15" x="222.9" y="301.8" width="30.4" height="16.3" rx=".7" ry=".7"/>
        </g>
        <rect class="cls-33" x="234.3" y="338.2" width="9.8" height="21.5" transform="translate(-109.7 588.2) rotate(-90)"/>
        <g>
          <rect class="cls-15" x="366.2" y="279.4" width="34.4" height="107"/>
          <g>
            <path class="cls-36" d="M349.3,281.9h16.9v5.9h-16.9c-.7,0-1.2-.6-1.2-1.2v-3.4c0-.7.6-1.2,1.2-1.2Z"/>
            <path class="cls-36" d="M349.3,295.7h16.9v5.9h-16.9c-.7,0-1.2-.6-1.2-1.2v-3.4c0-.7.6-1.2,1.2-1.2Z"/>
            <path class="cls-36" d="M349.3,309.4h16.9v5.9h-16.9c-.7,0-1.2-.6-1.2-1.2v-3.4c0-.7.6-1.2,1.2-1.2Z"/>
            <path class="cls-36" d="M349.3,323.1h16.9v5.9h-16.9c-.7,0-1.2-.6-1.2-1.2v-3.4c0-.7.6-1.2,1.2-1.2Z"/>
            <path class="cls-36" d="M349.3,336.8h16.9v5.9h-16.9c-.7,0-1.2-.6-1.2-1.2v-3.4c0-.7.6-1.2,1.2-1.2Z"/>
            <path class="cls-36" d="M349.3,350.6h16.9v5.9h-16.9c-.7,0-1.2-.6-1.2-1.2v-3.4c0-.7.6-1.2,1.2-1.2Z"/>
            <path class="cls-36" d="M349.3,364.3h16.9v5.9h-16.9c-.7,0-1.2-.6-1.2-1.2v-3.4c0-.7.6-1.2,1.2-1.2Z"/>
            <path class="cls-36" d="M349.3,378h16.9v5.9h-16.9c-.7,0-1.2-.6-1.2-1.2v-3.4c0-.7.6-1.2,1.2-1.2Z"/>
          </g>
          <g>
            <path class="cls-36" d="M401.8,378h16.9v5.9h-16.9c-.7,0-1.2-.6-1.2-1.2v-3.4c0-.7.6-1.2,1.2-1.2Z" transform="translate(819.2 761.9) rotate(180)"/>
            <path class="cls-36" d="M401.8,364.3h16.9v5.9h-16.9c-.7,0-1.2-.6-1.2-1.2v-3.4c0-.7.6-1.2,1.2-1.2Z" transform="translate(819.2 734.5) rotate(180)"/>
            <path class="cls-36" d="M401.8,350.6h16.9v5.9h-16.9c-.7,0-1.2-.6-1.2-1.2v-3.4c0-.7.6-1.2,1.2-1.2Z" transform="translate(819.2 707) rotate(180)"/>
            <path class="cls-36" d="M401.8,336.8h16.9v5.9h-16.9c-.7,0-1.2-.6-1.2-1.2v-3.4c0-.7.6-1.2,1.2-1.2Z" transform="translate(819.2 679.6) rotate(180)"/>
            <path class="cls-36" d="M401.8,323.1h16.9v5.9h-16.9c-.7,0-1.2-.6-1.2-1.2v-3.4c0-.7.6-1.2,1.2-1.2Z" transform="translate(819.2 652.1) rotate(180)"/>
            <path class="cls-36" d="M401.8,309.4h16.9v5.9h-16.9c-.7,0-1.2-.6-1.2-1.2v-3.4c0-.7.6-1.2,1.2-1.2Z" transform="translate(819.2 624.7) rotate(180)"/>
            <path class="cls-36" d="M401.8,295.7h16.9v5.9h-16.9c-.7,0-1.2-.6-1.2-1.2v-3.4c0-.7.6-1.2,1.2-1.2Z" transform="translate(819.2 597.2) rotate(180)"/>
            <path class="cls-36" d="M401.8,281.9h16.9v5.9h-16.9c-.7,0-1.2-.6-1.2-1.2v-3.4c0-.7.6-1.2,1.2-1.2Z" transform="translate(819.2 569.8) rotate(180)"/>
          </g>
          <circle class="cls-1" cx="392.5" cy="376.5" r="4.9"/>
        </g>
        <rect class="cls-33" x="445.2" y="326.1" width="9.8" height="21.5" transform="translate(786.9 -113.3) rotate(90)"/>
        <g>
          <rect class="cls-6" x="444.8" y="345.4" width="10.7" height="17.2" transform="translate(804.1 -96.1) rotate(90)"/>
          <rect class="cls-15" x="444.9" y="348.1" width="10.7" height="11.8" transform="translate(804.3 -96.2) rotate(90)"/>
        </g>
        <g>
          <rect class="cls-6" x="444.8" y="363" width="10.7" height="17.2" transform="translate(821.7 -78.5) rotate(90)"/>
          <rect class="cls-15" x="444.9" y="365.7" width="10.7" height="11.8" transform="translate(821.9 -78.6) rotate(90)"/>
        </g>
        <g>
          <rect class="cls-6" x="397.9" y="214.2" width="10.7" height="17.2"/>
          <rect class="cls-15" x="397.9" y="216.7" width="10.7" height="11.8"/>
        </g>
        <g>
          <rect class="cls-6" x="413.5" y="214.1" width="10.7" height="17.2"/>
          <rect class="cls-15" x="413.5" y="216.6" width="10.7" height="11.8"/>
        </g>
        <path class="cls-36" d="M312.7,251.5h12.2v11.5h-12.2c-.7,0-1.2-.6-1.2-1.2v-9c0-.7.6-1.2,1.2-1.2Z" transform="translate(60.9 575.5) rotate(-90)"/>
        <g>
          <rect class="cls-5" x="275.4" y="132.3" width="51.5" height="35.1"/>
          <rect class="cls-12" x="287.8" y="132.3" width="26.7" height="35.1"/>
        </g>
        <g>
          <path class="cls-26" d="M370.7,98.2h0s87.6,0,87.6,0h0c2.7,1.4,4.4,4.2,4.4,7.3v70.1c0,1-.8,1.8-1.8,1.8h-92.8c-1,0-1.8-.8-1.8-1.8v-70.1c0-3,1.7-5.8,4.4-7.3Z"/>
          <g>
            <path class="cls-23" d="M445.4,171.5h0c0-1.3-1.1-2.4-2.4-2.4h-9.9c-.8,0-1.5-.7-1.5-1.5v-2.1c0-.8.7-1.5,1.5-1.5h9.9c1.3,0,2.4-1.1,2.4-2.4h0c0-1.3-1.1-2.4-2.4-2.4h-14c-1.3,0-2.4,1.1-2.4,2.4v10c0,1.3,1.1,2.4,2.4,2.4h14c1.3,0,2.4-1.1,2.4-2.4Z"/>
            <path class="cls-23" d="M383.6,161.5h0c0,1.3,1.1,2.4,2.4,2.4h9.9c.8,0,1.5.7,1.5,1.5v2.1c0,.8-.7,1.5-1.5,1.5h-9.9c-1.3,0-2.4,1.1-2.4,2.4h0c0,1.3,1.1,2.4,2.4,2.4h14c1.3,0,2.4-1.1,2.4-2.4v-10c0-1.3-1.1-2.4-2.4-2.4h-14c-1.3,0-2.4,1.1-2.4,2.4Z"/>
          </g>
        </g>
        <g>
          <rect class="cls-15" x="198.8" y="179.1" width="69.5" height="37" rx="1.2" ry="1.2"/>
          <g>
            <path class="cls-36" d="M200.4,222.2h16.9v5.9h-16.9c-.7,0-1.2-.6-1.2-1.2v-3.4c0-.7.6-1.2,1.2-1.2Z" transform="translate(-17 433.3) rotate(-90)"/>
            <path class="cls-36" d="M225.7,222.2h16.9v5.9h-16.9c-.7,0-1.2-.6-1.2-1.2v-3.4c0-.7.6-1.2,1.2-1.2Z" transform="translate(8.4 458.7) rotate(-90)"/>
            <path class="cls-36" d="M251.1,222.2h16.9v5.9h-16.9c-.7,0-1.2-.6-1.2-1.2v-3.4c0-.7.6-1.2,1.2-1.2Z" transform="translate(33.8 484.1) rotate(-90)"/>
          </g>
          <path class="cls-36" d="M219.8,148.6h25.6v34.3h-25.6c-.7,0-1.2-.6-1.2-1.2v-31.8c0-.7.6-1.2,1.2-1.2Z" transform="translate(397.7 -66.2) rotate(90)"/>
        </g>
        <rect class="cls-15" x="151" y="257.3" width="48.4" height="27.1"/>
        <g>
          <rect class="cls-26" x="16.7" y="300.4" width="20" height="20"/>
          <circle class="cls-22" cx="26.7" cy="310.5" r="7.4"/>
          <rect class="cls-26" x="16.7" y="329.1" width="20" height="20"/>
          <circle class="cls-22" cx="26.7" cy="339.1" r="7.4"/>
          <rect class="cls-26" x="16.7" y="357.8" width="20" height="20"/>
          <circle class="cls-22" cx="26.7" cy="367.8" r="7.4"/>
          <rect class="cls-26" x="16.7" y="386.4" width="20" height="20"/>
          <circle class="cls-22" cx="26.7" cy="396.4" r="7.4"/>
        </g>
        <g>
          <rect class="cls-11" x="10" y="412.8" width="33.4" height="240.9"/>
          <rect x="16.9" y="415.5" width="19.6" height="19.6"/>
          <rect x="16.9" y="446" width="19.6" height="19.6"/>
          <rect x="16.9" y="476.5" width="19.6" height="19.6"/>
          <rect x="16.9" y="507.1" width="19.6" height="19.6"/>
          <rect x="16.9" y="537.6" width="19.6" height="19.6"/>
          <rect x="16.9" y="568.1" width="19.6" height="19.6"/>
          <rect x="16.9" y="598.6" width="19.6" height="19.6"/>
          <rect x="16.9" y="629.1" width="19.6" height="19.6"/>
        </g>
        <g>
          <rect class="cls-11" x="10" y="659.4" width="33.4" height="178.8"/>
          <g>
            <rect x="16.9" y="662.7" width="19.6" height="19.6"/>
            <rect x="16.9" y="693.2" width="19.6" height="19.6"/>
            <rect x="16.9" y="723.7" width="19.6" height="19.6"/>
            <rect x="16.9" y="754.2" width="19.6" height="19.6"/>
            <rect x="16.9" y="784.7" width="19.6" height="19.6"/>
            <rect x="16.9" y="815.2" width="19.6" height="19.6"/>
          </g>
        </g>
        <g>
          <path class="cls-2" d="M51,451h2.5v10.4h-2.5v-10.4Z"/>
          <path class="cls-2" d="M55.4,456.2c0-3.4,1.9-5.4,4.8-5.4s4.8,2,4.8,5.4-1.9,5.4-4.8,5.4-4.8-2-4.8-5.4ZM62.4,456.2c0-2-.8-3.2-2.2-3.2s-2.2,1.2-2.2,3.2.9,3.3,2.2,3.3,2.2-1.3,2.2-3.3Z"/>
          <path class="cls-2" d="M66.9,451h3.8c2.2,0,4.1.8,4.1,3.3s-.7,2.5-1.8,3l2.3,4.1h-2.8l-1.9-3.7h-1.2v3.7h-2.5v-10.4ZM70.5,455.8c1.2,0,1.8-.5,1.8-1.5s-.6-1.3-1.8-1.3h-1.1v2.8h1.1Z"/>
          <path class="cls-2" d="M76.8,451h6.6v2.1h-4.1v2h3.5v2.1h-3.5v2.2h4.3v2.1h-6.8v-10.4Z"/>
          <path class="cls-2" d="M85.6,451h6.7v2.1h-4.2v2.3h3.6v2.1h-3.6v4h-2.5v-10.4Z"/>
        </g>
        <g>
          <path class="cls-2" d="M52.2,481.5h3.8c2.2,0,4.1.8,4.1,3.3s-.7,2.5-1.8,3l2.3,4.1h-2.8l-1.9-3.7h-1.2v3.7h-2.5v-10.4ZM55.9,486.3c1.2,0,1.8-.5,1.8-1.5s-.6-1.3-1.8-1.3h-1.1v2.8h1.1Z"/>
          <path class="cls-2" d="M62.1,481.5h6.6v2.1h-4.1v2h3.5v2.1h-3.5v2.2h4.3v2.1h-6.8v-10.4Z"/>
          <path class="cls-2" d="M70.3,490.6l1.3-1.6c.7.6,1.7,1,2.6,1s1.4-.4,1.4-.9-.6-.8-1.5-1.2l-1.3-.6c-1.1-.4-2.1-1.3-2.1-2.8s1.6-3.2,3.8-3.2,2.5.5,3.4,1.3l-1.3,1.6c-.7-.5-1.4-.8-2.1-.8s-1.3.3-1.3.8.7.8,1.6,1.2l1.3.5c1.3.5,2.1,1.4,2.1,2.8s-1.5,3.3-4,3.3-2.8-.5-3.9-1.5Z"/>
          <path class="cls-2" d="M79.9,481.5h6.6v2.1h-4.1v2h3.5v2.1h-3.5v2.2h4.3v2.1h-6.8v-10.4Z"/>
          <path class="cls-2" d="M90.7,483.6h-2.8v-2.1h8.1v2.1h-2.8v8.3h-2.5v-8.3Z"/>
        </g>
        <g>
          <path class="cls-2" d="M52.6,521.2l1.1-1.6c.6.6,1.4,1,2.2,1s1.6-.4,1.6-1.2-.5-1.4-2.7-1.4v-1.8c1.8,0,2.3-.5,2.3-1.4s-.4-1.1-1.2-1.1-1.2.3-1.9.9l-1.2-1.5c.9-.8,2-1.3,3.2-1.3,2.2,0,3.6,1,3.6,2.9s-.6,1.8-1.7,2.3h0c1.2.4,2,1.2,2,2.6,0,2-1.8,3-3.8,3s-2.8-.6-3.6-1.4Z"/>
          <path class="cls-2" d="M61.8,521.1c0-.9.6-1.5,1.5-1.5s1.5.7,1.5,1.5-.6,1.5-1.5,1.5-1.5-.7-1.5-1.5Z"/>
          <path class="cls-2" d="M66,521.2l1.1-1.6c.6.6,1.4,1,2.2,1s1.6-.4,1.6-1.2-.5-1.4-2.7-1.4v-1.8c1.8,0,2.3-.5,2.3-1.4s-.4-1.1-1.2-1.1-1.2.3-1.9.9l-1.2-1.5c.9-.8,2-1.3,3.2-1.3,2.2,0,3.6,1,3.6,2.9s-.6,1.8-1.7,2.3h0c1.2.4,2,1.2,2,2.6,0,2-1.8,3-3.8,3s-2.8-.6-3.6-1.4Z"/>
          <path class="cls-2" d="M74.1,512h2.6l1.1,4.8c.3,1.1.5,2.2.8,3.3h0c.3-1.1.5-2.2.8-3.3l1.2-4.8h2.5l-3.2,10.4h-3l-3.1-10.4Z"/>
        </g>
        <g>
          <path class="cls-2" d="M53.9,551.7l1.1-1.6c.6.6,1.3,1,2.1,1s1.6-.6,1.6-1.6-.6-1.6-1.5-1.6-.9.1-1.5.5l-1.1-.7.3-5.2h5.8v2.1h-3.7v1.8c.2-.1.5-.2.9-.2,1.8,0,3.2,1,3.2,3.3s-1.8,3.7-3.8,3.7-2.8-.6-3.6-1.4Z"/>
          <path class="cls-2" d="M61.9,542.6h2.6l1.1,4.8c.3,1.1.5,2.2.8,3.3h0c.3-1.1.5-2.2.8-3.3l1.2-4.8h2.5l-3.2,10.4h-3l-3.1-10.4Z"/>
        </g>
        <g>
          <path class="cls-2" d="M55.5,578.3c0-3.5,2.3-5.5,5.1-5.5s2.6.6,3.3,1.4l-1.3,1.5c-.5-.5-1.1-.7-1.9-.7-1.5,0-2.7,1.2-2.7,3.2s.9,3.3,2.9,3.3.8,0,1-.3v-1.7h-1.7v-2h3.9v4.9c-.7.7-2,1.3-3.5,1.3-2.9,0-5.2-1.8-5.2-5.3Z"/>
          <path class="cls-2" d="M66.2,573.1h2.6l2.6,5c.4.7.7,1.5,1,2.4h0c-.1-1.1-.3-2.6-.3-3.8v-3.5h2.4v10.4h-2.6l-2.6-5c-.4-.7-.7-1.5-1-2.4h0c.1,1.2.3,2.6.3,3.8v3.5h-2.4v-10.4Z"/>
          <path class="cls-2" d="M76.9,573.1h3c3.2,0,5.3,1.6,5.3,5.2s-2.1,5.2-5.1,5.2h-3.1v-10.4ZM79.7,581.5c1.7,0,2.9-.8,2.9-3.2s-1.2-3.2-2.9-3.2h-.4v6.4h.4Z"/>
        </g>
        <g>
          <path class="cls-2" d="M56.7,608.9c0-3.5,2.3-5.5,5.1-5.5s2.6.6,3.3,1.4l-1.3,1.5c-.5-.5-1.1-.7-1.9-.7-1.5,0-2.7,1.2-2.7,3.2s.9,3.3,2.9,3.3.8,0,1-.3v-1.7h-1.7v-2h3.9v4.9c-.7.7-2,1.3-3.5,1.3-2.9,0-5.2-1.8-5.2-5.3Z"/>
          <path class="cls-2" d="M67.4,603.6h2.6l2.6,5c.4.7.7,1.5,1,2.4h0c-.1-1.1-.3-2.6-.3-3.8v-3.5h2.4v10.4h-2.6l-2.6-5c-.4-.7-.7-1.5-1-2.4h0c.1,1.2.3,2.6.3,3.8v3.5h-2.4v-10.4Z"/>
          <path class="cls-2" d="M78.1,603.6h3c3.2,0,5.3,1.6,5.3,5.2s-2.1,5.2-5.1,5.2h-3.1v-10.4ZM80.9,612c1.7,0,2.9-.8,2.9-3.2s-1.2-3.2-2.9-3.2h-.4v6.4h.4Z"/>
        </g>
        <g>
          <path class="cls-2" d="M57.1,634.1h2.6l1.1,4.8c.3,1.1.5,2.2.8,3.3h0c.3-1.1.5-2.2.8-3.3l1.2-4.8h2.5l-3.2,10.4h-3l-3.1-10.4Z"/>
          <path class="cls-2" d="M67.4,634.1h2.5v10.4h-2.5v-10.4Z"/>
          <path class="cls-2" d="M72.3,634.1h2.6l2.6,5c.4.7.7,1.5,1,2.4h0c-.1-1.1-.3-2.6-.3-3.8v-3.5h2.4v10.4h-2.6l-2.6-5c-.4-.7-.7-1.5-1-2.4h0c.1,1.2.3,2.6.3,3.8v3.5h-2.4v-10.4Z"/>
        </g>
        <g>
          <path class="cls-2" d="M61.6,667.7h3l3.2,10.4h-2.6l-.6-2.4h-3.1l-.6,2.4h-2.5l3.2-10.4ZM61.9,673.8h2.1l-.2-.9c-.3-1-.5-2.3-.8-3.3h0c-.3,1.1-.5,2.3-.8,3.3l-.2.9Z"/>
          <path class="cls-2" d="M68.2,672.8c0-3.6,1.5-5.4,3.7-5.4s3.7,1.8,3.7,5.4-1.5,5.4-3.7,5.4-3.7-1.9-3.7-5.4ZM73.3,672.8c0-2.8-.6-3.5-1.3-3.5s-1.3.6-1.3,3.5.6,3.5,1.3,3.5,1.3-.7,1.3-3.5Z"/>
        </g>
        <g>
          <path class="cls-2" d="M62.8,698.2h3l3.2,10.4h-2.6l-.6-2.4h-3.1l-.6,2.4h-2.5l3.2-10.4ZM63.2,704.3h2.1l-.2-.9c-.3-1-.5-2.3-.8-3.3h0c-.3,1.1-.5,2.3-.8,3.3l-.2.9Z"/>
          <path class="cls-2" d="M70,706.6h2.2v-5.9h-1.9v-1.5c1.1-.2,1.8-.5,2.6-.9h1.8v8.4h1.9v2h-6.6v-2Z"/>
        </g>
        <g>
          <path class="cls-2" d="M64,728.7h3l3.2,10.4h-2.6l-.6-2.4h-3.1l-.6,2.4h-2.5l3.2-10.4ZM64.4,734.8h2.1l-.2-.9c-.3-1-.5-2.3-.8-3.3h0c-.3,1.1-.5,2.3-.8,3.3l-.2.9Z"/>
          <path class="cls-2" d="M70.7,737.6c2.7-2.3,4.4-4.2,4.4-5.6s-.5-1.5-1.4-1.5-1.3.5-1.8,1l-1.3-1.3c1-1.1,1.9-1.7,3.4-1.7s3.4,1.3,3.4,3.3-1.7,3.8-3.3,5.4c.5,0,1.2-.1,1.7-.1h2.1v2.1h-7.2v-1.5Z"/>
        </g>
        <g>
          <path class="cls-2" d="M65.3,759.2h3l3.2,10.4h-2.6l-.6-2.4h-3.1l-.6,2.4h-2.5l3.2-10.4ZM65.6,765.3h2.1l-.2-.9c-.3-1-.5-2.3-.8-3.3h0c-.3,1.1-.5,2.3-.8,3.3l-.2.9Z"/>
          <path class="cls-2" d="M71.7,768.4l1.1-1.6c.6.6,1.4,1,2.2,1s1.6-.4,1.6-1.2-.5-1.4-2.7-1.4v-1.8c1.8,0,2.3-.5,2.3-1.4s-.4-1.1-1.2-1.1-1.2.3-1.9.9l-1.2-1.5c.9-.8,2-1.3,3.2-1.3,2.2,0,3.6,1,3.6,2.9s-.6,1.8-1.7,2.3h0c1.2.4,2,1.2,2,2.6,0,2-1.8,3-3.8,3s-2.8-.6-3.6-1.4Z"/>
        </g>
        <g>
          <path class="cls-2" d="M66.5,789.7h3l3.2,10.4h-2.6l-.6-2.4h-3.1l-.6,2.4h-2.5l3.2-10.4ZM66.9,795.8h2.1l-.2-.9c-.3-1-.5-2.3-.8-3.3h0c-.3,1.1-.5,2.3-.8,3.3l-.2.9Z"/>
          <path class="cls-2" d="M77.3,797.5h-4.4v-1.7l3.6-6.1h3.1v5.9h1.2v1.9h-1.2v2.6h-2.3v-2.6ZM77.3,795.7v-1.5c0-.7,0-1.6,0-2.3h0c-.3.6-.5,1.2-.8,1.8l-1.2,2.1h2Z"/>
          <path class="cls-2" d="M84.4,788.8h1.6l-3.1,13.9h-1.6l3.1-13.9Z"/>
          <path class="cls-2" d="M87,798.8l1.3-1.6c.7.6,1.7,1,2.6,1s1.4-.4,1.4-.9-.6-.8-1.5-1.2l-1.3-.6c-1.1-.4-2.1-1.3-2.1-2.8s1.6-3.2,3.8-3.2,2.5.5,3.4,1.3l-1.3,1.6c-.7-.5-1.4-.8-2.1-.8s-1.3.3-1.3.8.7.8,1.6,1.2l1.3.5c1.3.5,2.1,1.4,2.1,2.8s-1.5,3.3-4,3.3-2.8-.5-3.9-1.5Z"/>
          <path class="cls-2" d="M96.6,789.7h3c3.2,0,5.3,1.6,5.3,5.2s-2.1,5.2-5.1,5.2h-3.1v-10.4ZM99.5,798.1c1.7,0,2.9-.8,2.9-3.2s-1.2-3.2-2.9-3.2h-.4v6.4h.4Z"/>
          <path class="cls-2" d="M108.6,789.7h3l3.2,10.4h-2.6l-.6-2.4h-3.1l-.6,2.4h-2.5l3.2-10.4ZM109,795.8h2.1l-.2-.9c-.3-1-.5-2.3-.8-3.3h0c-.3,1.1-.5,2.3-.8,3.3l-.2.9Z"/>
        </g>
        <g>
          <path class="cls-2" d="M67.7,817.2h3l3.2,10.4h-2.6l-.6-2.4h-3.1l-.6,2.4h-2.5l3.2-10.4ZM68.1,823.3h2.1l-.2-.9c-.3-1-.5-2.3-.8-3.3h0c-.3,1.1-.5,2.3-.8,3.3l-.2.9Z"/>
          <path class="cls-2" d="M74.2,826.3l1.1-1.6c.6.6,1.3,1,2.1,1s1.6-.6,1.6-1.6-.6-1.6-1.5-1.6-.9.1-1.5.5l-1.1-.7.3-5.2h5.8v2.1h-3.7v1.8c.2-.1.5-.2.9-.2,1.8,0,3.2,1,3.2,3.3s-1.8,3.7-3.8,3.7-2.8-.6-3.6-1.4Z"/>
          <path class="cls-2" d="M85.6,816.2h1.6l-3.1,13.9h-1.6l3.1-13.9Z"/>
          <path class="cls-2" d="M88.3,826.3l1.3-1.6c.7.6,1.7,1,2.6,1s1.4-.4,1.4-.9-.6-.8-1.5-1.2l-1.3-.6c-1.1-.4-2.1-1.3-2.1-2.8s1.6-3.2,3.8-3.2,2.5.5,3.4,1.3l-1.3,1.6c-.7-.5-1.4-.8-2.1-.8s-1.3.3-1.3.8.7.8,1.6,1.2l1.3.5c1.3.5,2.1,1.4,2.1,2.8s-1.5,3.3-4,3.3-2.8-.5-3.9-1.5Z"/>
          <path class="cls-2" d="M97.4,822.4c0-3.5,2.3-5.5,5-5.5s2.4.6,3.2,1.4l-1.3,1.5c-.5-.5-1.1-.7-1.8-.7-1.4,0-2.5,1.2-2.5,3.2s1,3.3,2.4,3.3,1.5-.3,2-.9l1.3,1.5c-.9,1-2.1,1.5-3.4,1.5-2.7,0-4.9-1.8-4.9-5.3Z"/>
          <path class="cls-2" d="M107.2,817.2h2.5v8.3h4v2.1h-6.5v-10.4Z"/>
        </g>
        <g>
          <path class="cls-2" d="M120.2,510.3v3.7c0,2.3-.8,4.2-3.4,4.2s-3.6-1.9-3.6-4.1v-1.2h-3.5v-2.5h10.4ZM115.2,513.9c0,1.2.6,1.8,1.6,1.8s1.4-.7,1.4-1.9v-1h-3v1.1Z"/>
          <path class="cls-2" d="M115,519.4c3.4,0,5.4,1.9,5.4,4.8s-2,4.8-5.4,4.8-5.4-1.9-5.4-4.8,2-4.8,5.4-4.8ZM115,526.4c2,0,3.2-.8,3.2-2.2s-1.2-2.2-3.2-2.2-3.3.9-3.3,2.2,1.3,2.2,3.3,2.2Z"/>
          <path class="cls-2" d="M120.2,529.9v2.5l-4.8.7c-1.1.1-2.2.3-3.3.4h0c1.1.3,2.2.5,3.3.7l4.8,1.1v2.1l-4.8,1.1c-1.1.2-2.2.4-3.3.6h0c1.2.2,2.3.3,3.3.4l4.8.7v2.4l-10.4-1.8v-3.2l4.6-.9c.8-.2,1.6-.3,2.5-.4h0c-.8-.2-1.6-.3-2.5-.5l-4.6-.9v-3.1l10.4-1.9Z"/>
          <path class="cls-2" d="M120.2,543.9v6.6h-2.1v-4.1h-2v3.5h-2.1v-3.5h-2.2v4.3h-2.1v-6.8h10.4Z"/>
          <path class="cls-2" d="M120.2,552.7v3.8c0,2.2-.8,4.1-3.3,4.1s-2.5-.7-3-1.8l-4.1,2.3v-2.8l3.7-1.9v-1.2h-3.7v-2.5h10.4ZM115.4,556.4c0,1.2.5,1.8,1.5,1.8s1.3-.6,1.3-1.8v-1.1h-2.8v1.1Z"/>
        </g>
        <g>
          <path class="cls-2" d="M120.2,712.7v3l-10.4,3.2v-2.6l2.4-.6v-3.1l-2.4-.6v-2.5l10.4,3.2ZM114.1,713v2.1l.9-.2c1-.3,2.3-.5,3.3-.8h0c-1.1-.3-2.3-.6-3.3-.9l-.9-.2Z"/>
          <path class="cls-2" d="M120.2,719.9v2.6l-5,2.6c-.7.4-1.5.7-2.4,1h0c1.1,0,2.6-.3,3.8-.3h3.5v2.4h-10.4v-2.6l5-2.6c.7-.4,1.5-.7,2.4-1h0c-1.2,0-2.6.3-3.8.3h-3.5v-2.4h10.4Z"/>
          <path class="cls-2" d="M120.2,732.5v3l-10.4,3.2v-2.6l2.4-.6v-3.1l-2.4-.6v-2.5l10.4,3.2ZM114.1,732.9v2.1l.9-.2c1-.3,2.3-.5,3.3-.8h0c-1.1-.3-2.3-.6-3.3-.9l-.9-.2Z"/>
          <path class="cls-2" d="M120.2,739.8v2.5h-8.3v4h-2.1v-6.5h10.4Z"/>
          <path class="cls-2" d="M115,747.1c3.4,0,5.4,1.9,5.4,4.8s-2,4.8-5.4,4.8-5.4-1.9-5.4-4.8,2-4.8,5.4-4.8ZM115,754.1c2,0,3.2-.8,3.2-2.2s-1.2-2.2-3.2-2.2-3.3.9-3.3,2.2,1.3,2.2,3.3,2.2Z"/>
          <path class="cls-2" d="M114.9,758.1c3.5,0,5.5,2.3,5.5,5.1s-.6,2.6-1.4,3.3l-1.5-1.3c.5-.5.7-1.1.7-1.9,0-1.5-1.2-2.7-3.2-2.7s-3.3.9-3.3,2.9,0,.8.3,1h1.7v-1.7h2v3.9h-4.9c-.7-.7-1.3-2-1.3-3.5,0-2.9,1.8-5.2,5.3-5.2Z"/>
          <path class="cls-2" d="M120.2,772v2.5h-10.4v-2.5h10.4Z"/>
          <path class="cls-2" d="M120.2,776.9v2.6l-5,2.6c-.7.4-1.5.7-2.4,1h0c1.1,0,2.6-.3,3.8-.3h3.5v2.4h-10.4v-2.6l5-2.6c.7-.4,1.5-.7,2.4-1h0c-1.2,0-2.6.3-3.8.3h-3.5v-2.4h10.4Z"/>
        </g>
        <rect class="cls-31" x="124.5" y="668" width="4.5" height="159.9" rx="2.3" ry="2.3"/>
        <rect class="cls-31" x="124.5" y="441.4" width="4.5" height="187.7" rx="2.3" ry="2.3"/>
        <g>
          <g>
            <polygon class="cls-30" points="293 818 289.4 818 289.3 818 285.7 818 277.2 826.4 277.2 859.5 285.7 868 289.3 868 289.4 868 293 868 301.4 859.5 301.4 826.4 293 818"/>
            <g>
              <rect class="cls-21" x="286.2" y="827.6" width="6.2" height="6.2"/>
              <rect class="cls-21" x="286.2" y="852.2" width="6.2" height="6.2"/>
            </g>
          </g>
          <g>
            <polygon class="cls-30" points="317.2 818 313.6 818 313.5 818 309.9 818 301.4 826.4 301.4 859.5 309.9 868 313.5 868 313.6 868 317.2 868 325.7 859.5 325.7 826.4 317.2 818"/>
            <g>
              <rect class="cls-21" x="310.4" y="827.6" width="6.2" height="6.2"/>
              <rect class="cls-21" x="310.4" y="852.2" width="6.2" height="6.2"/>
            </g>
          </g>
          <g>
            <polygon class="cls-30" points="341.4 818 337.8 818 337.7 818 334.1 818 325.7 826.4 325.7 859.5 334.1 868 337.7 868 337.8 868 341.4 868 349.9 859.5 349.9 826.4 341.4 818"/>
            <g>
              <rect class="cls-21" x="334.7" y="827.6" width="6.2" height="6.2"/>
              <rect class="cls-21" x="334.7" y="852.2" width="6.2" height="6.2"/>
            </g>
          </g>
        </g>
        <path class="cls-31" d="M271.2,806.5c-1.3,0-2.3,1-2.3,2.3v58.5c0,1.3,1,2.3,2.3,2.3h0c1.3,0,2.3-1,2.3-2.3v-53.9c0-1.3,1-2.3,2.3-2.3h75.6c1.3,0,2.3,1,2.3,2.3v53.9c0,1.3,1,2.3,2.3,2.3h0c1.3,0,2.3-1,2.3-2.3v-58.5c0-1.3-1-2.3-2.3-2.3h-84.7Z"/>
        <rect class="cls-31" x="465.8" y="431.8" width="4.5" height="394.7" rx="2.3" ry="2.3"/>
        <g>
          <path class="cls-2" d="M487.2,573.4v3c0,3.2-1.6,5.3-5.2,5.3s-5.2-2.1-5.2-5.1v-3.1h10.4ZM478.8,576.3c0,1.7.8,2.9,3.2,2.9s3.2-1.2,3.2-2.9v-.4h-6.4v.4Z"/>
          <path class="cls-2" d="M487.2,583.6v2.5h-10.4v-2.5h10.4Z"/>
          <path class="cls-2" d="M481.9,588.1c3.5,0,5.5,2.3,5.5,5.1s-.6,2.6-1.4,3.3l-1.5-1.3c.5-.5.7-1.1.7-1.9,0-1.5-1.2-2.7-3.2-2.7s-3.3.9-3.3,2.9,0,.8.3,1h1.7v-1.7h2v3.9h-4.9c-.7-.7-1.3-2-1.3-3.5,0-2.9,1.8-5.2,5.3-5.2Z"/>
          <path class="cls-2" d="M487.2,598.8v2.5h-10.4v-2.5h10.4Z"/>
          <path class="cls-2" d="M485.1,605.7v-2.8h2.1v8.1h-2.1v-2.8h-8.3v-2.5h8.3Z"/>
          <path class="cls-2" d="M487.2,613.9v3l-10.4,3.2v-2.6l2.4-.6v-3.1l-2.4-.6v-2.5l10.4,3.2ZM481.1,614.3v2.1l.9-.2c1-.3,2.3-.5,3.3-.8h0c-1.1-.3-2.3-.6-3.3-.9l-.9-.2Z"/>
          <path class="cls-2" d="M487.2,621.2v2.5h-8.3v4h-2.1v-6.5h10.4Z"/>
          <path class="cls-2" d="M481.2,632.7c2.8,0,5.1.8,7.3,2.1l-.6,1.6c-2.1-1.2-4.4-1.7-6.7-1.7s-4.6.5-6.7,1.7l-.6-1.6c2.2-1.3,4.5-2.1,7.3-2.1Z"/>
          <path class="cls-2" d="M487.2,638.3v3.7c0,2.3-.8,4.2-3.4,4.2s-3.6-1.9-3.6-4.1v-1.2h-3.5v-2.5h10.4ZM482.2,641.9c0,1.2.6,1.8,1.6,1.8s1.4-.7,1.4-1.9v-1h-3v1.1Z"/>
          <path class="cls-2" d="M487.2,646.9v2.5l-4.8.7c-1.1.1-2.2.3-3.3.4h0c1.1.3,2.2.5,3.3.7l4.8,1.1v2.1l-4.8,1.1c-1.1.2-2.2.4-3.3.6h0c1.2.2,2.3.3,3.3.4l4.8.7v2.4l-10.4-1.8v-3.2l4.6-.9c.8-.2,1.6-.3,2.5-.4h0c-.8-.2-1.6-.3-2.5-.5l-4.6-.9v-3.1l10.4-1.9Z"/>
          <path class="cls-2" d="M487.2,661v2.7l-4.5,1.6c-.6.2-1.2.4-1.9.6h0c.7.3,1.3.4,1.9.6l4.5,1.6v2.7h-10.4v-2.3h3.6c1,0,2.8.2,3.8.3h0c0,0-2.7-.9-2.7-.9l-3.8-1.4v-1.4l3.8-1.4,2.7-.8h0c-1,0-2.8.3-3.8.3h-3.6v-2.2h10.4Z"/>
          <path class="cls-2" d="M481.8,674.9c0-.4-.4-.8-.9-1.1l1-1.3c1.2.8,1.7,1.6,1.7,2.4,0,1.3-1.2,1.9-1.2,2.8s.4.8.9,1.1l-1,1.3c-1.2-.8-1.7-1.6-1.7-2.4,0-1.3,1.2-1.9,1.2-2.8Z"/>
          <path class="cls-2" d="M474.6,681.3c2.1,1.2,4.4,1.7,6.7,1.7s4.6-.5,6.7-1.7l.6,1.6c-2.2,1.3-4.5,2.1-7.3,2.1s-5.1-.8-7.3-2.1l.6-1.6Z"/>
        </g>
        <g>
          <rect class="cls-11" x="559.7" y="601.9" width="33.4" height="240.9"/>
          <rect x="566.6" y="604.5" width="19.6" height="19.6"/>
          <rect x="566.6" y="635" width="19.6" height="19.6"/>
          <rect x="566.6" y="665.6" width="19.6" height="19.6"/>
          <rect x="566.6" y="696.1" width="19.6" height="19.6"/>
          <rect x="566.6" y="726.6" width="19.6" height="19.6"/>
          <rect x="566.6" y="757.1" width="19.6" height="19.6"/>
          <rect x="566.6" y="787.6" width="19.6" height="19.6"/>
          <rect x="566.6" y="818.1" width="19.6" height="19.6"/>
        </g>
        <g>
          <rect class="cls-11" x="559.7" y="298.6" width="33.4" height="301.1"/>
          <rect x="566.6" y="363.3" width="19.6" height="19.6"/>
          <rect x="566.6" y="393.8" width="19.6" height="19.6"/>
          <rect x="566.6" y="424.3" width="19.6" height="19.6"/>
          <rect x="566.6" y="454.8" width="19.6" height="19.6"/>
          <rect x="566.6" y="485.3" width="19.6" height="19.6"/>
          <rect x="566.6" y="515.8" width="19.6" height="19.6"/>
          <rect x="566.6" y="546.3" width="19.6" height="19.6"/>
          <rect x="566.6" y="576.9" width="19.6" height="19.6"/>
          <rect x="566.6" y="332.8" width="19.6" height="19.6"/>
          <rect x="566.6" y="302.5" width="19.6" height="19.6"/>
        </g>
        <g>
          <g>
            <path class="cls-2" d="M509.5,307.5h3l3.2,10.4h-2.6l-.6-2.4h-3.1l-.6,2.4h-2.5l3.2-10.4ZM509.8,313.6h2.1l-.2-.9c-.3-1-.5-2.3-.8-3.3h0c-.3,1.1-.5,2.3-.8,3.3l-.2.9Z"/>
            <path class="cls-2" d="M515.9,316.7l1.1-1.6c.6.6,1.3,1,2.1,1s1.6-.6,1.6-1.6-.6-1.6-1.5-1.6-.9.1-1.5.5l-1.1-.7.3-5.2h5.8v2.1h-3.7v1.8c.2-.1.5-.2.9-.2,1.8,0,3.2,1,3.2,3.3s-1.8,3.7-3.8,3.7-2.8-.6-3.6-1.4Z"/>
            <path class="cls-2" d="M527.4,306.6h1.6l-3.1,13.9h-1.6l3.1-13.9Z"/>
            <path class="cls-2" d="M530,316.6l1.3-1.6c.7.6,1.7,1,2.6,1s1.4-.4,1.4-.9-.6-.8-1.5-1.2l-1.3-.6c-1.1-.4-2.1-1.3-2.1-2.8s1.6-3.2,3.8-3.2,2.5.5,3.4,1.3l-1.3,1.6c-.7-.5-1.4-.8-2.1-.8s-1.3.3-1.3.8.7.8,1.6,1.2l1.3.5c1.3.5,2.1,1.4,2.1,2.8s-1.5,3.3-4,3.3-2.8-.5-3.9-1.5Z"/>
            <path class="cls-2" d="M539.1,312.8c0-3.5,2.3-5.5,5-5.5s2.4.6,3.2,1.4l-1.3,1.5c-.5-.5-1.1-.7-1.8-.7-1.4,0-2.5,1.2-2.5,3.2s1,3.3,2.4,3.3,1.5-.3,2-.9l1.3,1.5c-.9,1-2.1,1.5-3.4,1.5-2.7,0-4.9-1.8-4.9-5.3Z"/>
            <path class="cls-2" d="M548.9,307.5h2.5v8.3h4v2.1h-6.5v-10.4Z"/>
          </g>
          <g>
            <path class="cls-2" d="M507.3,337.8h3l3.2,10.4h-2.6l-.6-2.4h-3.1l-.6,2.4h-2.5l3.2-10.4ZM507.7,343.8h2.1l-.2-.9c-.3-1-.5-2.3-.8-3.3h0c-.3,1.1-.5,2.3-.8,3.3l-.2.9Z"/>
            <path class="cls-2" d="M518.1,345.6h-4.4v-1.7l3.6-6.1h3.1v5.9h1.2v1.9h-1.2v2.6h-2.3v-2.6ZM518.1,343.7v-1.5c0-.7,0-1.6,0-2.3h0c-.3.6-.5,1.2-.8,1.8l-1.2,2.1h2Z"/>
            <path class="cls-2" d="M525.2,336.8h1.6l-3.1,13.9h-1.6l3.1-13.9Z"/>
            <path class="cls-2" d="M527.9,346.8l1.3-1.6c.7.6,1.7,1,2.6,1s1.4-.4,1.4-.9-.6-.8-1.5-1.2l-1.3-.6c-1.1-.4-2.1-1.3-2.1-2.8s1.6-3.2,3.8-3.2,2.5.5,3.4,1.3l-1.3,1.6c-.7-.5-1.4-.8-2.1-.8s-1.3.3-1.3.8.7.8,1.6,1.2l1.3.5c1.3.5,2.1,1.4,2.1,2.8s-1.5,3.3-4,3.3-2.8-.5-3.9-1.5Z"/>
            <path class="cls-2" d="M537.4,337.8h3c3.2,0,5.3,1.6,5.3,5.2s-2.1,5.2-5.1,5.2h-3.1v-10.4ZM540.3,346.2c1.7,0,2.9-.8,2.9-3.2s-1.2-3.2-2.9-3.2h-.4v6.4h.4Z"/>
            <path class="cls-2" d="M549.4,337.8h3l3.2,10.4h-2.6l-.6-2.4h-3.1l-.6,2.4h-2.5l3.2-10.4ZM549.8,343.8h2.1l-.2-.9c-.3-1-.5-2.3-.8-3.3h0c-.3,1.1-.5,2.3-.8,3.3l-.2.9Z"/>
          </g>
          <g>
            <path class="cls-2" d="M521.7,368.3h3l3.2,10.4h-2.6l-.6-2.4h-3.1l-.6,2.4h-2.5l3.2-10.4ZM522.1,374.4h2.1l-.2-.9c-.3-1-.5-2.3-.8-3.3h0c-.3,1.1-.5,2.3-.8,3.3l-.2.9Z"/>
            <path class="cls-2" d="M529,368.3h3.8c2.2,0,4.1.8,4.1,3.3s-.7,2.5-1.8,3l2.3,4.1h-2.8l-1.9-3.7h-1.2v3.7h-2.5v-10.4ZM532.6,373c1.2,0,1.8-.5,1.8-1.5s-.6-1.3-1.8-1.3h-1.1v2.8h1.1Z"/>
            <path class="cls-2" d="M538.9,368.3h6.6v2.1h-4.1v2h3.5v2.1h-3.5v2.2h4.3v2.1h-6.8v-10.4Z"/>
            <path class="cls-2" d="M547.7,368.3h6.7v2.1h-4.2v2.3h3.6v2.1h-3.6v4h-2.5v-10.4Z"/>
          </g>
          <g>
            <path class="cls-2" d="M524,404.1c0-3.5,2.3-5.5,5.1-5.5s2.6.6,3.3,1.4l-1.3,1.5c-.5-.5-1.1-.7-1.9-.7-1.5,0-2.7,1.2-2.7,3.2s.9,3.3,2.9,3.3.8,0,1-.3v-1.7h-1.7v-2h3.9v4.9c-.7.7-2,1.3-3.5,1.3-2.9,0-5.2-1.8-5.2-5.3Z"/>
            <path class="cls-2" d="M534.7,398.8h2.6l2.6,5c.4.7.7,1.5,1,2.4h0c-.1-1.1-.3-2.6-.3-3.8v-3.5h2.4v10.4h-2.6l-2.6-5c-.4-.7-.7-1.5-1-2.4h0c.1,1.2.3,2.6.3,3.8v3.5h-2.4v-10.4Z"/>
            <path class="cls-2" d="M545.4,398.8h3c3.2,0,5.3,1.6,5.3,5.2s-2.1,5.2-5.1,5.2h-3.1v-10.4ZM548.2,407.2c1.7,0,2.9-.8,2.9-3.2s-1.2-3.2-2.9-3.2h-.4v6.4h.4Z"/>
          </g>
          <g>
            <path class="cls-2" d="M495.9,437.7h2.2v-5.9h-1.9v-1.5c1.1-.2,1.8-.5,2.6-.9h1.8v8.4h1.9v2h-6.6v-2Z"/>
            <path class="cls-2" d="M503.7,438.5l1.1-1.6c.6.6,1.4,1,2.2,1s1.6-.4,1.6-1.2-.5-1.4-2.7-1.4v-1.8c1.8,0,2.3-.5,2.3-1.4s-.4-1.1-1.2-1.1-1.2.3-1.9.9l-1.2-1.5c.9-.8,2-1.3,3.2-1.3,2.2,0,3.6,1,3.6,2.9s-.6,1.8-1.7,2.3h0c1.2.4,2,1.2,2,2.6,0,2-1.8,3-3.8,3s-2.8-.6-3.6-1.4Z"/>
            <path class="cls-2" d="M515.2,428.3h1.6l-3.1,13.9h-1.6l3.1-13.9Z"/>
            <path class="cls-2" d="M517.8,438.4l1.3-1.6c.7.6,1.7,1,2.6,1s1.4-.4,1.4-.9-.6-.8-1.5-1.2l-1.3-.6c-1.1-.4-2.1-1.3-2.1-2.8s1.6-3.2,3.8-3.2,2.5.5,3.4,1.3l-1.3,1.6c-.7-.5-1.4-.8-2.1-.8s-1.3.3-1.3.8.7.8,1.6,1.2l1.3.5c1.3.5,2.1,1.4,2.1,2.8s-1.5,3.3-4,3.3-2.8-.5-3.9-1.5Z"/>
            <path class="cls-2" d="M526.9,434.6c0-3.5,2.3-5.5,5-5.5s2.4.6,3.2,1.4l-1.3,1.5c-.5-.5-1.1-.7-1.8-.7-1.4,0-2.5,1.2-2.5,3.2s1,3.3,2.4,3.3,1.5-.3,2-.9l1.3,1.5c-.9,1-2.1,1.5-3.4,1.5-2.7,0-4.9-1.8-4.9-5.3Z"/>
            <path class="cls-2" d="M536.7,429.3h2.5v8.3h4v2.1h-6.5v-10.4Z"/>
            <path class="cls-2" d="M545.1,429.3h2.5v4.1h0l3-4.1h2.7l-3.1,4.2,3.7,6.2h-2.7l-2.5-4.3-1.1,1.5v2.7h-2.5v-10.4Z"/>
          </g>
          <g>
            <path class="cls-2" d="M494.8,468.2h2.2v-5.9h-1.9v-1.5c1.1-.2,1.8-.5,2.6-.9h1.8v8.4h1.9v2h-6.6v-2Z"/>
            <path class="cls-2" d="M502.8,468.7c2.7-2.3,4.4-4.2,4.4-5.6s-.5-1.5-1.4-1.5-1.3.5-1.8,1l-1.3-1.3c1-1.1,1.9-1.7,3.4-1.7s3.4,1.3,3.4,3.3-1.7,3.8-3.3,5.4c.5,0,1.2-.1,1.7-.1h2.1v2.1h-7.2v-1.5Z"/>
            <path class="cls-2" d="M514,458.9h1.6l-3.1,13.9h-1.6l3.1-13.9Z"/>
            <path class="cls-2" d="M517.3,459.8h2.7l1.6,4.5c.2.6.4,1.2.6,1.9h0c.2-.7.4-1.3.6-1.9l1.6-4.5h2.7v10.4h-2.3v-3.6c0-1,.2-2.8.3-3.8h0l-.9,2.7-1.4,3.8h-1.4l-1.4-3.8-.8-2.7h0c.1,1,.3,2.8.3,3.8v3.6h-2.2v-10.4Z"/>
            <path class="cls-2" d="M529.6,459.8h2.5v10.4h-2.5v-10.4Z"/>
            <path class="cls-2" d="M533.8,468.9l1.3-1.6c.7.6,1.7,1,2.6,1s1.4-.4,1.4-.9-.6-.8-1.5-1.2l-1.3-.6c-1.1-.4-2.1-1.3-2.1-2.8s1.6-3.2,3.8-3.2,2.5.5,3.4,1.3l-1.3,1.6c-.7-.5-1.4-.8-2.1-.8s-1.3.3-1.3.8.7.8,1.6,1.2l1.3.5c1.3.5,2.1,1.4,2.1,2.8s-1.5,3.3-4,3.3-2.8-.5-3.9-1.5Z"/>
            <path class="cls-2" d="M542.9,465c0-3.4,1.9-5.4,4.8-5.4s4.8,2,4.8,5.4-1.9,5.4-4.8,5.4-4.8-2-4.8-5.4ZM549.9,465c0-2-.8-3.2-2.2-3.2s-2.2,1.2-2.2,3.2.9,3.3,2.2,3.3,2.2-1.3,2.2-3.3Z"/>
          </g>
          <g>
            <path class="cls-2" d="M487.5,495.7c-.4,0-.8.4-1.1.9l-1.3-1c.8-1.2,1.6-1.7,2.4-1.7,1.3,0,1.9,1.2,2.8,1.2s.8-.4,1.1-.9l1.3,1c-.8,1.2-1.6,1.7-2.4,1.7-1.3,0-1.9-1.2-2.8-1.2Z"/>
            <path class="cls-2" d="M494.2,498.7h2.2v-5.9h-1.9v-1.5c1.1-.2,1.8-.5,2.6-.9h1.8v8.4h1.9v2h-6.6v-2Z"/>
            <path class="cls-2" d="M502.7,498.7h2.2v-5.9h-1.9v-1.5c1.1-.2,1.8-.5,2.6-.9h1.8v8.4h1.9v2h-6.6v-2Z"/>
            <path class="cls-2" d="M513.5,489.4h1.6l-3.1,13.9h-1.6l3.1-13.9Z"/>
            <path class="cls-2" d="M516.7,490.3h2.7l1.6,4.5c.2.6.4,1.2.6,1.9h0c.2-.7.4-1.3.6-1.9l1.6-4.5h2.7v10.4h-2.3v-3.6c0-1,.2-2.8.3-3.8h0l-.9,2.7-1.4,3.8h-1.4l-1.4-3.8-.8-2.7h0c.1,1,.3,2.8.3,3.8v3.6h-2.2v-10.4Z"/>
            <path class="cls-2" d="M528.5,495.5c0-3.4,1.9-5.4,4.8-5.4s4.8,2,4.8,5.4-1.9,5.4-4.8,5.4-4.8-2-4.8-5.4ZM535.5,495.5c0-2-.8-3.2-2.2-3.2s-2.2,1.2-2.2,3.2.9,3.3,2.2,3.3,2.2-1.3,2.2-3.3Z"/>
            <path class="cls-2" d="M539.3,499.4l1.3-1.6c.7.6,1.7,1,2.6,1s1.4-.4,1.4-.9-.6-.8-1.5-1.2l-1.3-.6c-1.1-.4-2.1-1.3-2.1-2.8s1.6-3.2,3.8-3.2,2.5.5,3.4,1.3l-1.3,1.6c-.7-.5-1.4-.8-2.1-.8s-1.3.3-1.3.8.7.8,1.6,1.2l1.3.5c1.3.5,2.1,1.4,2.1,2.8s-1.5,3.3-4,3.3-2.8-.5-3.9-1.5Z"/>
            <path class="cls-2" d="M548.9,490.3h2.5v10.4h-2.5v-10.4Z"/>
          </g>
          <g>
            <path class="cls-2" d="M529.4,526.2c-.4,0-.8.4-1.1.9l-1.3-1c.8-1.2,1.6-1.7,2.4-1.7,1.3,0,1.9,1.2,2.8,1.2s.8-.4,1.1-.9l1.3,1c-.8,1.2-1.6,1.7-2.4,1.7-1.3,0-1.9-1.2-2.8-1.2Z"/>
            <path class="cls-2" d="M536.1,529.2h2.2v-5.9h-1.9v-1.5c1.1-.2,1.8-.5,2.6-.9h1.8v8.4h1.9v2h-6.6v-2Z"/>
            <path class="cls-2" d="M544.1,526c0-3.6,1.5-5.4,3.7-5.4s3.7,1.8,3.7,5.4-1.5,5.4-3.7,5.4-3.7-1.9-3.7-5.4ZM549.1,526c0-2.8-.6-3.5-1.3-3.5s-1.3.6-1.3,3.5.6,3.5,1.3,3.5,1.3-.7,1.3-3.5Z"/>
          </g>
          <g>
            <path class="cls-2" d="M537.3,556.7c-.4,0-.8.4-1.1.9l-1.3-1c.8-1.2,1.6-1.7,2.4-1.7,1.3,0,1.9,1.2,2.8,1.2s.8-.4,1.1-.9l1.3,1c-.8,1.2-1.6,1.7-2.4,1.7-1.3,0-1.9-1.2-2.8-1.2Z"/>
            <path class="cls-2" d="M543.6,560.7l1.3-1.5c.3.4,1,.7,1.6.7,1.1,0,1.9-.8,2-3-.5.7-1.4,1-2,1-1.7,0-3-1-3-3.3s1.6-3.5,3.4-3.5,3.9,1.5,3.9,5.3-2,5.5-4.1,5.5-2.4-.6-3.1-1.2ZM547,556.2c.5,0,1.1-.3,1.5-.9-.2-1.8-.8-2.3-1.5-2.3s-1.2.5-1.2,1.7.5,1.5,1.2,1.5Z"/>
          </g>
          <path class="cls-2" d="M543,589.7c0-1.3.7-2.1,1.7-2.6h0c-.8-.7-1.4-1.5-1.4-2.6,0-1.7,1.4-2.8,3.3-2.8s3.1,1.1,3.1,2.8-.6,1.8-1.3,2.3h0c1,.6,1.8,1.5,1.8,2.9s-1.5,2.8-3.6,2.8-3.6-1.1-3.6-2.8ZM547.9,589.5c0-.9-.8-1.3-2.1-1.9-.4.4-.7,1-.7,1.7s.7,1.4,1.5,1.4,1.3-.4,1.3-1.2ZM547.8,584.6c0-.8-.4-1.2-1.2-1.2s-1.1.4-1.1,1.1.6,1.3,1.7,1.7c.4-.5.6-1,.6-1.5Z"/>
          <path class="cls-2" d="M547,611.6h-4.5v-2.1h7.1v1.5c-2.4,2.9-2.7,4.8-2.8,8.9h-2.5c.2-3.4.7-5.6,2.7-8.3Z"/>
          <g>
            <path class="cls-2" d="M535.6,645.4c-.4,0-.8.4-1.1.9l-1.3-1c.8-1.2,1.6-1.7,2.4-1.7,1.3,0,1.9,1.2,2.8,1.2s.8-.4,1.1-.9l1.3,1c-.8,1.2-1.6,1.7-2.4,1.7-1.3,0-1.9-1.2-2.8-1.2Z"/>
            <path class="cls-2" d="M541.9,645.3c0-3.8,2-5.5,4.1-5.5s2.4.6,3,1.2l-1.3,1.5c-.4-.4-1-.7-1.6-.7-1.1,0-1.9.8-2,3,.5-.6,1.4-1,2-1,1.7,0,3,1,3,3.3s-1.6,3.5-3.4,3.5-3.9-1.5-3.9-5.3ZM544.2,646.5c.2,1.7.9,2.2,1.5,2.2s1.2-.5,1.2-1.7-.6-1.5-1.3-1.5-1.1.3-1.5,1Z"/>
          </g>
          <g>
            <path class="cls-2" d="M535,676c-.4,0-.8.4-1.1.9l-1.3-1c.8-1.2,1.6-1.7,2.4-1.7,1.3,0,1.9,1.2,2.8,1.2s.8-.4,1.1-.9l1.3,1c-.8,1.2-1.6,1.7-2.4,1.7-1.3,0-1.9-1.2-2.8-1.2Z"/>
            <path class="cls-2" d="M541,679.7l1.1-1.6c.6.6,1.3,1,2.1,1s1.6-.6,1.6-1.6-.6-1.6-1.5-1.6-.9.1-1.5.5l-1.1-.7.3-5.2h5.8v2.1h-3.7v1.8c.2-.1.5-.2.9-.2,1.8,0,3.2,1,3.2,3.3s-1.8,3.7-3.8,3.7-2.8-.6-3.6-1.4Z"/>
          </g>
          <path class="cls-2" d="M544.8,708.9h-4.4v-1.7l3.6-6.1h3.1v5.9h1.2v1.9h-1.2v2.6h-2.3v-2.6ZM544.8,707v-1.5c0-.7,0-1.6,0-2.3h0c-.3.6-.5,1.2-.8,1.8l-1.2,2.1h2Z"/>
          <g>
            <path class="cls-2" d="M533.8,737c-.4,0-.8.4-1.1.9l-1.3-1c.8-1.2,1.6-1.7,2.4-1.7,1.3,0,1.9,1.2,2.8,1.2s.8-.4,1.1-.9l1.3,1c-.8,1.2-1.6,1.7-2.4,1.7-1.3,0-1.9-1.2-2.8-1.2Z"/>
            <path class="cls-2" d="M539.8,740.7l1.1-1.6c.6.6,1.4,1,2.2,1s1.6-.4,1.6-1.2-.5-1.4-2.7-1.4v-1.8c1.8,0,2.3-.5,2.3-1.4s-.4-1.1-1.2-1.1-1.2.3-1.9.9l-1.2-1.5c.9-.8,2-1.3,3.2-1.3,2.2,0,3.6,1,3.6,2.9s-.6,1.8-1.7,2.3h0c1.2.4,2,1.2,2,2.6,0,2-1.8,3-3.8,3s-2.8-.6-3.6-1.4Z"/>
          </g>
          <path class="cls-2" d="M539.5,771c2.7-2.3,4.4-4.2,4.4-5.6s-.5-1.5-1.4-1.5-1.3.5-1.8,1l-1.3-1.3c1-1.1,1.9-1.7,3.4-1.7s3.4,1.3,3.4,3.3-1.7,3.8-3.3,5.4c.5,0,1.2-.1,1.7-.1h2.1v2.1h-7.2v-1.5Z"/>
          <g>
            <path class="cls-2" d="M509.8,795.6h-2.8v-2.1h8.1v2.1h-2.8v8.3h-2.5v-8.3Z"/>
            <path class="cls-2" d="M518.2,798.6l-2.7-5.1h2.8l.8,1.9c.2.5.5,1,.8,1.7h0c.2-.7.5-1.2.7-1.7l.8-1.9h2.6l-2.7,5.2,2.9,5.2h-2.8l-1-2c-.3-.5-.5-1.1-.8-1.7h0c-.2.6-.5,1.2-.7,1.7l-.9,2h-2.7l2.9-5.4Z"/>
            <path class="cls-2" d="M538,798.6l-5,5c-.4.4-1,.4-1.4,0s-.4-1,0-1.4l3.3-3.3h-9.6c-.6,0-1-.4-1-1s.4-1,1-1h9.6l-3.3-3.3c-.4-.4-.4-1,0-1.4s1-.4,1.4,0l5,5c.4.4.4,1,0,1.4h0Z"/>
            <path class="cls-2" d="M539.4,801.9h2.2v-5.9h-1.9v-1.5c1.1-.2,1.8-.5,2.6-.9h1.8v8.4h1.9v2h-6.6v-2Z"/>
          </g>
          <g>
            <path class="cls-2" d="M506,824h3.8c2.2,0,4.1.8,4.1,3.3s-.7,2.5-1.8,3l2.3,4.1h-2.8l-1.9-3.7h-1.2v3.7h-2.5v-10.4ZM509.7,828.8c1.2,0,1.8-.5,1.8-1.5s-.6-1.3-1.8-1.3h-1.1v2.8h1.1Z"/>
            <path class="cls-2" d="M517.6,829.1l-2.7-5.1h2.8l.8,1.9c.2.5.5,1,.8,1.7h0c.2-.7.5-1.2.7-1.7l.8-1.9h2.6l-2.7,5.2,2.9,5.2h-2.8l-1-2c-.3-.5-.5-1.1-.8-1.7h0c-.2.6-.5,1.2-.7,1.7l-.9,2h-2.7l2.9-5.4Z"/>
            <path class="cls-2" d="M524.1,827.7l5-5c.4-.4,1-.4,1.4,0s.4,1,0,1.4l-3.3,3.3h9.6c.6,0,1,.4,1,1s-.4,1-1,1h-9.6l3.3,3.3c.4.4.4,1,0,1.4s-1,.4-1.4,0l-5-5c-.4-.4-.4-1,0-1.4h0Z"/>
            <path class="cls-2" d="M538.3,829.2c0-3.6,1.5-5.4,3.7-5.4s3.7,1.8,3.7,5.4-1.5,5.4-3.7,5.4-3.7-1.9-3.7-5.4ZM543.4,829.2c0-2.8-.6-3.5-1.3-3.5s-1.3.6-1.3,3.5.6,3.5,1.3,3.5,1.3-.7,1.3-3.5Z"/>
          </g>
        </g>
        <g>
          <rect class="cls-6" x="396.9" y="409.2" width="10.7" height="17.2"/>
          <rect class="cls-15" x="396.9" y="411.8" width="10.7" height="11.8"/>
        </g>
      </g>
      <sodipodi:namedview id="namedview7" bordercolor="#eeeeee" borderopacity="1" inkscape:current-layer="svg8" inkscape:cx="470.84764" inkscape:cy="504.55042" inkscape:deskcolor="#505050" inkscape:pagecheckerboard="0" inkscape:pageopacity="0" inkscape:showpageshadow="0" inkscape:window-height="900" inkscape:window-maximized="0" inkscape:window-width="1440" inkscape:window-x="0" inkscape:window-y="0" inkscape:zoom="0.50440945" pagecolor="#505050"/>
      <rect id="rect1" class="cls-7" x="20.3" y="604.1" width="704.5" height="11.4"/>
      <rect id="rect2" class="cls-7" x="20.3" y="577.1" width="11.4" height="38.4"/>
      <circle id="circle281" class="cls-7" cx="26.1" cy="578.9" r="11.6" transform="translate(-8.8 .5) rotate(-.9)"/>
      <rect id="rect3" class="cls-14" x="20.3" y="485.7" width="735.1" height="11.4"/>
      <rect id="rect4" class="cls-14" x="20.3" y="485.7" width="11.4" height="63.6"/>
      <circle id="circle281-2" class="cls-14" cx="26.1" cy="548.2" r="11.6" transform="translate(-8.3 .5) rotate(-.9)"/>
      <circle id="circle281-4" class="cls-13" cx="576" cy="526.8" r="11.6"/>
      <rect id="rect849-2" class="cls-13" x="571.7" y="521.5" width="216.5" height="11.3"/>
      <rect id="rect815" x="660.2" y="93.7" width="182.3" height="245"/>
      <rect id="rect821" class="cls-2" x="703.3" y="298.8" width="94.9" height="32.7"/>
      <rect id="rect825" class="cls-25" x="703.5" y="300.7" width="31" height="28.7" rx="6" ry="6"/>
      <rect id="rect831" class="cls-2" x="685.8" y="230.7" width="129.8" height="32.7"/>
      <rect id="rect833" class="cls-2" x="685.8" y="196.6" width="129.8" height="32.7"/>
      <rect id="rect837" class="cls-2" x="685.8" y="162.5" width="129.8" height="32.7"/>
      <rect id="rect872" class="cls-25" x="766.9" y="300.7" width="31" height="28.7" rx="6" ry="6"/>
      <rect id="rect874" class="cls-25" x="735.2" y="300.7" width="31" height="28.7" rx="5.2" ry="5.2"/>
      <rect id="rect892" class="cls-20" x="687.6" y="231.7" width="127" height="30.1"/>
      <path id="rect836" class="cls-27" d="M702.7,231.7h7.8c8.3,0,15.1,6.7,15.1,15.1h0c0,8.3-6.7,15.1-15.1,15.1h-7.8c-8.3,0-15.1-6.7-15.1-15.1h0c0-8.3,6.7-15.1,15.1-15.1h0Z"/>
      <rect id="rect850" class="cls-27" x="728" y="231.7" width="37.9" height="30.1"/>
      <rect id="rect892-7" class="cls-20" x="687.2" y="197.7" width="127" height="30.1"/>
      <rect id="rect892-72" class="cls-20" x="687.2" y="163.9" width="127" height="30.1"/>
      <path id="rect836-7" class="cls-27" d="M702.3,198h7.7c8.3,0,15,6.7,15,15h0c0,8.3-6.7,15-15,15h-7.7c-8.3,0-15-6.7-15-15h0c0-8.3,6.7-15,15-15Z"/>
      <path id="rect836-6" class="cls-27" d="M742.7,198h7.7c8.3,0,15,6.7,15,15h0c0,8.3-6.7,15-15,15h-7.7c-8.3,0-15-6.7-15-15h0c0-8.3,6.7-15,15-15Z"/>
      <path id="rect939" class="cls-27" d="M742.9,163.6h7.8c8.3,0,15.1,6.7,15.1,15.1h0c0,8.3-6.7,15.1-15.1,15.1h-7.8c-8.3,0-15.1-6.7-15.1-15.1h0c0-8.3,6.7-15.1,15.1-15.1h0Z"/>
      <path id="rect941" class="cls-27" d="M702,163.6h7.8c8.3,0,15.1,6.7,15.1,15.1h0c0,8.3-6.7,15.1-15.1,15.1h-7.8c-8.3,0-15.1-6.7-15.1-15.1h0c0-8.3,6.7-15.1,15.1-15.1h0Z"/>
      <rect id="rect943" class="cls-27" x="771.9" y="198.7" width="41.8" height="28.3"/>
      <rect id="rect945" class="cls-27" x="771.9" y="164.7" width="41.8" height="28.3"/>
      <rect id="rect947" class="cls-18" x="717.3" y="316.3" width="3.4" height="59.9"/>
      <rect id="rect949" class="cls-18" x="749.1" y="316.3" width="3.4" height="59.9"/>
      <rect id="rect951" class="cls-18" x="780.6" y="316.3" width="3.4" height="59.9"/>
      <ellipse id="path1456" class="cls-19" cx="685.7" cy="144.8" rx="16.6" ry="16.3"/>
      <ellipse id="ellipse1458" class="cls-19" cx="815.5" cy="144.8" rx="16.6" ry="16.3"/>
      <ellipse id="path1460" class="cls-3" cx="685.7" cy="144.7" rx="15" ry="14.7"/>
      <ellipse id="ellipse1464" class="cls-3" cx="815.5" cy="144.7" rx="15" ry="14.7"/>
      <circle id="circle1504" class="cls-3" cx="706.3" cy="246.7" r="14.2"/>
      <circle id="circle1510" class="cls-3" cx="746.6" cy="246.7" r="14.2"/>
      <rect id="rect1512" class="cls-17" x="708.8" width="85" height="72.8"/>
      <circle id="circle77" class="cls-3" cx="706.1" cy="178.6" r="14.2"/>
      <circle id="circle79" class="cls-3" cx="746.6" cy="178.6" r="14.2"/>
      <circle id="circle81" class="cls-3" cx="792.7" cy="178.9" r="12.1"/>
      <path id="path31-1" class="cls-2" d="M712,112.9c1.1,0,1.3,0,1.5-.2.1,0,.3-.2.4-.4.1-.2.1-.3.2-2.7v-2.4s2.4,0,2.4,0h2.4v3.1c0,3.4,0,3.7-.4,4.6-.4,1.1-1.4,1.9-2.5,2-.7.1-1.5.1-2.2,0-1,0-2,0-2.3,0h-.6c0,0,0-2,0-2v-2s1.2,0,1.2,0h0ZM734.9,119.7c20.6,0,25.6,0,24.8.1h-.1s.1,0,.1,0c.1,0,0,0,0,0-.2,0,0,0,.2,0h.4s-.4,0-.4,0c-.2,0-.4,0-.3,0,0,0,.1.1.1.6s0,.5.2.6c.1,0,0,0,0,0-.2,0-.3,0-.3,0s-8.1,0-24.3,0h-24.3v-1.7h24.2ZM716.4,100.9h2.4v4h-4.9v-4h2.4ZM721.3,108.2c.1-1,.5-2,.9-3,.1-.2.2-.4.3-.6,0-.1.2-.3.3-.4.3-.4.6-.8,1-1.2,0,0,0,0,0-.1.3-.4.7-.7,1.1-1,.6-.4,1.2-.7,1.8-.9.9-.4,1.9-.5,2.9-.4.6,0,1.2,0,1.7.2.4.1.8.3,1,.3.1,0,.3.1.4.1.2,0,.4.2.6.3,1.4,1,2.6,2.3,3.4,3.8.9,1.9,1.1,4.1.4,6.2-.2.7-.5,1.3-.9,1.9-.4.6-.9,1.2-1.4,1.7-.9,1-2.1,1.7-3.5,2-1,.2-2,.3-3.1.2-1.2-.2-2.3-.7-3.3-1.4-.4-.3-.7-.6-1-.9-.1-.1-.2-.3-.3-.4-1-1.2-1.7-2.6-2.1-4.1-.1-.8-.2-1.6-.2-2.4h0ZM726,110.3c.2.9.7,1.7,1.4,2.4.8.7,1.9,1,2.9.6,1.3-.5,2.2-1.7,2.6-3,.2-.9.2-1.8,0-2.7-.3-1-.9-1.9-1.7-2.5-.3-.2-.6-.4-.9-.4-.8-.2-1.5,0-2.3.2-.7.4-1.2,1-1.6,1.7-.6,1.1-.7,2.4-.4,3.6h0ZM739.6,101s1.1,0,2.4,0h2.4s0,2.2,0,2.2c0,2.1,0,2.2.1,2.5.4.9,1.5,1.4,2.4,1.1.5-.1.9-.5,1.1-.9l.2-.4v-2.3s0-2.3,0-2.3h4.9v2.5c0,1,0,2.1-.2,3.1-.2.9-.7,1.8-1.3,2.5-.1.1-.2.2-.3.4-.3.4-.7.7-1.2,1-.4.3-.9.6-1.4.8-.1,0-.4.1-.7.2-.6.2-1.2.2-1.7.2-.6,0-1.2,0-1.8-.2-.7-.2-1.3-.4-1.9-.8-.7-.5-1.4-1.1-1.9-1.8-.7-.9-1.1-2-1.2-3.1,0-1.6,0-3.1,0-4.7h0ZM746.4,112.9h4v4.1h-7.9v-4.1h4ZM753.2,97.8s0-.1,0-.3c0-.2,0-.3.3-.3.2,0,6.9,0,14.9,0h14.6s0,.9,0,.9v.9h-14.9c-8.2,0-14.9,0-15,0,0,0-.1-.1-.1-.6s0-.5,0-.5h0ZM759.9,107.6h5.1v4h-10.1v-4h5.1ZM768.9,100.9h2.4v4h-4.9v-4h2.4ZM768.9,107h2.4v10.2h-4.9v-10.2h2.4ZM778.6,100.9h5.1v4h-10.2v-4h5.1ZM774.4,107.3s1.1,0,2.4,0h2.3s0,2.3,0,2.3c0,3.3-.1,3.1,2.4,3.1h1.6v4.1h-.6c-1.5.2-2.9.2-4.4,0-1,0-2-.5-2.7-1.3-.6-.7-.9-1.6-1-2.5,0-.7,0-5.8,0-5.8h0ZM786.5,99c.1-.4.3-.8.6-1.1.9-1,2.4-1.1,3.5-.3.4.2.7.6.9,1,.2.3.2.7.2,1.1,0,.4,0,.8-.2,1.1-.4.8-1.3,1.4-2.2,1.5-.8,0-1.6-.2-2.2-.8-.6-.6-.8-1.6-.6-2.4h0ZM787,100.7c.3.6.9,1.1,1.6,1.2.7.2,1.5,0,2.1-.6.2-.2.4-.4.5-.6.2-.3.2-.7.2-1,0-.3,0-.7-.2-1-.1-.3-.3-.5-.6-.7-.2-.2-.5-.3-.7-.4-1.2-.4-2.4.2-2.9,1.3-.2.6-.1,1.2,0,1.8ZM788.8,98.2c.4,0,.7,0,1.1,0,.4.3.6.8.3,1.3,0,.1-.2.2-.4.2h-.2c0,0,.2.3.2.3.2.2.3.4.4.6,0,.1.2.3.3.4.1,0,0,.2-.2.2h-.3s-.4-.6-.4-.6c-.4-.7-.5-.7-1-.7h-.3v1.4h-.2s-.2,0-.2,0v-1.5s0-1.5,0-1.5h.9ZM788.9,99.5c.5,0,.6,0,.8-.1.4-.3.2-.7-.4-.8-.3,0-.6,0-1,0,0,.2,0,.3,0,.5v.5h.6Z"/>
      <path id="rect78" class="cls-18" d="M733,72.8l-28.5,83.2h0v59.4c0,0,3.1,0,3.1,0v-59.4c0,0,28.6-83.2,28.6-83.2h-3.2Z"/>
      <path id="rect76" class="cls-18" d="M749.2,72.8l-4.2,83h0v59.5c-.1,0,3,0,3,0v-59.5h.1l4.2-83h-3.2Z"/>
      <path id="rect74" class="cls-18" d="M765.4,72.8l25.7,83.6h0v59.3s3.2,0,3.2,0v-59.3h0,0c0,0,0,0,0,0l-25.7-83.5h-3.2Z"/>
      <rect id="rect92" class="cls-27" x="771.9" y="232.7" width="41.8" height="28.3"/>
      <circle id="circle1514" class="cls-3" cx="792.7" cy="246.9" r="12.1"/>
      <g id="text86" class="cls-16">
        <g id="text5" class="cls-16">
          <g class="cls-16">
            <path class="cls-2" d="M839.3,224.5c0,0,.1,0,.2,0,0,0,0,0,.1.2,0,0,0,.2,0,.3,0,.1,0,.3,0,.6s0,.5,0,.7c0,.2,0,.3-.1.4,0,0-.1.2-.2.2l-8.1,6h8.1c0,0,.1,0,.2,0,0,0,0,0,.1.2,0,0,0,.2,0,.3,0,.1,0,.3,0,.5s0,.4,0,.5c0,.1,0,.3,0,.3,0,0,0,.1-.1.2,0,0-.1,0-.2,0h-15.6c0,0-.1,0-.2,0,0,0,0,0-.1-.2,0,0,0-.2,0-.3,0-.1,0-.3,0-.5s0-.4,0-.5c0-.1,0-.2,0-.3,0,0,0-.1.1-.2,0,0,.1,0,.2,0h7.2l-7.2-5.7c0,0-.1-.1-.2-.2,0,0,0-.1-.1-.2s0-.2,0-.4c0-.1,0-.3,0-.5s0-.4,0-.5,0-.2,0-.3c0,0,0-.1.1-.2,0,0,.1,0,.2,0,.1,0,.2,0,.3,0s.3.2.5.3l6.4,5.4,7.7-5.8c.2-.1.4-.2.4-.3,0,0,.1,0,.2,0Z"/>
          </g>
          <g class="cls-16">
            <path class="cls-2" d="M833.4,216.6h6c0,0,.1,0,.2,0,0,0,0,0,.1.2s0,.2,0,.3c0,.1,0,.3,0,.5s0,.4,0,.5c0,.1,0,.2,0,.3s0,.1-.1.2c0,0-.1,0-.2,0h-6l-9.2,4.6c-.2,0-.3.1-.5.2-.1,0-.2,0-.3,0,0,0,0-.2-.1-.3,0-.2,0-.4,0-.7s0-.5,0-.6,0-.3,0-.4c0,0,0-.2.1-.2s.1,0,.2-.1l4.7-2.2c.4-.2.9-.4,1.4-.6s1-.4,1.5-.6h0c-.5-.2-1-.4-1.4-.6-.5-.2-.9-.4-1.4-.6l-4.7-2.3c0,0-.2,0-.2-.1s-.1-.1-.1-.2c0,0,0-.2,0-.3,0-.1,0-.3,0-.5s0-.5,0-.7,0-.3.1-.4.1,0,.3,0c.1,0,.3,0,.4.2l9.2,4.6Z"/>
          </g>
          <g class="cls-16">
            <path class="cls-2" d="M833.3,205.8c.3,0,.6,0,.7.1.1,0,.2.2.2.3v5.2c0,.2,0,.3-.2.3-.1,0-.4.1-.7.1s-.5,0-.7-.1c-.1,0-.2-.2-.2-.3v-5.2c0,0,0-.1,0-.2,0,0,0-.1.1-.1s.2,0,.3,0c.1,0,.2,0,.4,0Z"/>
            <path class="cls-2" d="M831.5,192.8c1.2,0,2.4,0,3.4.3,1,.2,1.9.5,2.7,1,.7.5,1.3,1.1,1.7,1.8.4.7.6,1.6.6,2.7s-.2,1.9-.5,2.6c-.4.7-.9,1.3-1.6,1.7-.7.4-1.6.7-2.6.9-1,.2-2.2.3-3.6.3s-2.4-.1-3.4-.3c-1-.2-1.9-.5-2.7-1-.7-.5-1.3-1-1.7-1.8-.4-.7-.6-1.6-.6-2.7s.2-1.9.5-2.6c.4-.7.9-1.3,1.6-1.7.7-.4,1.6-.7,2.6-.9,1-.2,2.2-.3,3.6-.3ZM831.7,195c-.8,0-1.5,0-2.2,0-.6,0-1.2.1-1.7.3s-.9.3-1.3.4c-.4.2-.6.4-.9.6-.2.3-.4.5-.5.9-.1.3-.2.7-.2,1.1,0,.7.2,1.3.5,1.7.3.4.8.8,1.4,1,.6.3,1.3.4,2.1.5.8,0,1.6.1,2.5.1s2.2,0,3.1-.2c.8-.1,1.5-.3,2.1-.6s.9-.6,1.2-1c.2-.4.4-.9.4-1.5s0-.9-.2-1.2c-.2-.4-.4-.7-.6-.9-.3-.3-.6-.5-1-.6-.4-.2-.8-.3-1.3-.4-.5-.1-1-.2-1.5-.2s-1.1,0-1.7,0Z"/>
            <path class="cls-2" d="M831.5,179.8c1.2,0,2.4,0,3.4.3,1,.2,1.9.5,2.7,1,.7.5,1.3,1.1,1.7,1.8.4.7.6,1.6.6,2.7s-.2,1.9-.5,2.6c-.4.7-.9,1.3-1.6,1.7-.7.4-1.6.7-2.6.9-1,.2-2.2.3-3.6.3s-2.4-.1-3.4-.3c-1-.2-1.9-.5-2.7-1-.7-.5-1.3-1-1.7-1.8-.4-.7-.6-1.6-.6-2.7s.2-1.9.5-2.6c.4-.7.9-1.3,1.6-1.7.7-.4,1.6-.7,2.6-.9,1-.2,2.2-.3,3.6-.3ZM831.7,182c-.8,0-1.5,0-2.2,0-.6,0-1.2.1-1.7.3s-.9.3-1.3.4c-.4.2-.6.4-.9.6-.2.3-.4.5-.5.9-.1.3-.2.7-.2,1.1,0,.7.2,1.3.5,1.7.3.4.8.8,1.4,1,.6.3,1.3.4,2.1.5.8,0,1.6.1,2.5.1s2.2,0,3.1-.2c.8-.1,1.5-.3,2.1-.6s.9-.6,1.2-1c.2-.4.4-.9.4-1.5s0-.9-.2-1.2c-.2-.4-.4-.7-.6-.9-.3-.3-.6-.5-1-.6-.4-.2-.8-.3-1.3-.4-.5-.1-1-.2-1.5-.2s-1.1,0-1.7,0Z"/>
            <path class="cls-2" d="M835,167.4c.7,0,1.4.1,2,.4.6.3,1.1.6,1.5,1.1.4.5.8,1.1,1,1.8.2.7.3,1.5.3,2.4s0,1.1-.1,1.5-.2.9-.3,1.3c-.1.4-.2.7-.4.9-.1.2-.2.4-.3.5,0,0-.1.1-.2.1,0,0-.1,0-.2,0,0,0-.2,0-.3,0-.1,0-.3,0-.4,0-.3,0-.5,0-.6,0s-.2-.1-.2-.3,0-.2.2-.5c.1-.2.3-.5.4-.9.2-.4.3-.8.4-1.2.1-.5.2-1,.2-1.6s0-1.1-.2-1.5c-.1-.4-.3-.8-.6-1.1-.3-.3-.6-.5-.9-.7-.4-.1-.7-.2-1.2-.2s-.9,0-1.2.3c-.4.2-.7.5-1,.8s-.5.8-.6,1.3c-.1.5-.2,1.1-.2,1.8v1.6c0,0,0,.1,0,.2,0,0,0,.1-.1.2s-.2,0-.3.1c-.1,0-.3,0-.4,0s-.3,0-.4,0c-.1,0-.2,0-.3-.1,0,0-.1,0-.1-.2s0-.1,0-.2v-1.4c0-.6,0-1-.2-1.5-.1-.4-.3-.8-.6-1.1-.3-.3-.6-.5-1-.7s-.8-.2-1.2-.2-.7,0-1,.2c-.3.1-.6.3-.8.5-.2.2-.4.5-.5.8s-.2.7-.2,1.2,0,.9.2,1.3c.1.4.3.8.5,1.1.2.3.3.6.5.8s.2.4.2.4,0,.1,0,.2c0,0,0,0-.1.1,0,0-.2,0-.3,0-.1,0-.3,0-.4,0s-.2,0-.3,0c0,0-.2,0-.3,0,0,0-.1,0-.2,0,0,0-.1,0-.2-.2,0,0-.2-.2-.3-.5s-.3-.5-.4-.9-.3-.8-.4-1.2-.2-1-.2-1.5,0-1.4.3-2c.2-.6.5-1,.8-1.4.4-.4.8-.7,1.3-.9.5-.2,1-.3,1.6-.3s1,0,1.4.2c.4.1.8.3,1.2.6.3.3.6.6.9,1,.2.4.4.8.5,1.3h0c0-.6.2-1.1.4-1.5s.5-.9.8-1.2c.3-.3.7-.6,1.2-.8.4-.2.9-.3,1.4-.3Z"/>
          </g>
        </g>
      </g>
      <g id="text90" class="cls-16">
        <g class="cls-16">
          <path class="cls-2" d="M818,318.7c0,.8-.1,1.4-.4,2-.3.6-.7,1.1-1.2,1.5-.5.4-1.1.7-1.8.9-.7.2-1.4.3-2.2.3s-1,0-1.5-.1c-.5,0-.9-.2-1.2-.3-.4-.1-.7-.3-.9-.4-.2-.1-.4-.3-.5-.4s-.2-.2-.2-.4c0-.2,0-.4,0-.6s0-.3,0-.5c0-.1,0-.2,0-.3s0-.1.1-.2.1,0,.2,0c.1,0,.3,0,.5.2.2.1.5.3.8.5.3.2.7.3,1.2.5.5.1,1,.2,1.6.2s.9,0,1.3-.2c.4-.1.7-.3,1-.5.3-.2.5-.5.6-.8.2-.3.2-.7.2-1.1s-.1-.9-.3-1.2c-.2-.3-.5-.6-.8-.9-.3-.2-.7-.5-1.2-.7-.4-.2-.9-.4-1.3-.6-.5-.2-.9-.4-1.3-.7-.4-.3-.8-.6-1.2-.9-.3-.4-.6-.8-.8-1.2-.2-.5-.3-1-.3-1.7s.1-1.3.4-1.8.6-1,1-1.3c.4-.4,1-.6,1.6-.8s1.3-.3,2-.3.7,0,1.1,0,.7.1,1,.3c.3.1.6.2.9.4s.4.2.5.3.1.1.2.2c0,0,0,.1,0,.2,0,0,0,.2,0,.3s0,.2,0,.4,0,.3,0,.4c0,.1,0,.2,0,.3,0,0,0,.1-.1.2,0,0,0,0-.2,0,0,0-.2,0-.4-.2-.2-.1-.4-.2-.7-.4-.3-.1-.6-.3-1-.4-.4-.1-.8-.2-1.3-.2s-.8,0-1.2.2-.6.3-.8.5c-.2.2-.4.4-.5.7-.1.3-.2.6-.2.9,0,.5.1.8.3,1.2s.5.6.8.9c.3.3.7.5,1.2.7.4.2.9.4,1.4.6.5.2.9.4,1.4.7s.8.6,1.2.9c.3.3.6.8.8,1.2.2.5.3,1,.3,1.7Z"/>
        </g>
      </g>
      <g id="text94" class="cls-16">
        <g class="cls-16">
          <path class="cls-2" d="M693,315.2c0,.3,0,.5-.1.6,0,.1-.2.2-.4.2h-14.7c-.2,0-.3,0-.4-.2s-.1-.3-.1-.6,0-.5.1-.6c0-.1.2-.2.4-.2h14.7c.2,0,.3,0,.4.2,0,.1.1.3.1.6Z"/>
        </g>
      </g>
      <rect id="rect840" class="cls-7" x="714.6" y="351.9" width="11.3" height="263.6"/>
      <circle id="path289" class="cls-13" cx="782.7" cy="352" r="9.4"/>
      <circle id="circle291" class="cls-14" cx="750.9" cy="352" r="9.4"/>
      <circle id="circle293" class="cls-7" cx="720.3" cy="352" r="9.4"/>
      <rect id="rect826" class="cls-14" x="745.3" y="352.6" width="11.3" height="144.6"/>
      <rect id="rect849-3" class="cls-13" x="777" y="353.5" width="11.3" height="179.3"/>
    </g>
  </g>
</svg>