<?xml version="1.0" encoding="utf-8"?>
<!-- Generator: Adobe Illustrator 27.8.0, SVG Export Plug-In . SVG Version: 6.00 Build 0)  -->
<svg version="1.1"
	 id="Ebene_1" xmlns:svg="http://www.w3.org/2000/svg" xmlns:rdf="http://www.w3.org/1999/02/22-rdf-syntax-ns#" xmlns:sodipodi="http://sodipodi.sourceforge.net/DTD/sodipodi-0.dtd" xmlns:dc="http://purl.org/dc/elements/1.1/" xmlns:inkscape="http://www.inkscape.org/namespaces/inkscape" xmlns:cc="http://creativecommons.org/ns#" inkscape:version="0.92.4 (5da689c313, 2019-01-14)"
	 xmlns="http://www.w3.org/2000/svg" xmlns:xlink="http://www.w3.org/1999/xlink" x="0px" y="0px" viewBox="0 0 460.7 804.2"
	 style="enable-background:new 0 0 460.7 804.2;" xml:space="preserve">
<style type="text/css">
	.st0{fill:#02814B;}
	.st1{fill:#D4C547;}
	.st2{fill:#525035;}
	.st3{fill:#FEE86F;}
	.st4{fill:#FFE17B;}
	.st5{fill:#DDDDDD;}
	.st6{fill:#7F7F7F;}
	.st7{fill:#474544;}
	.st8{fill:#E2EADE;}
	.st9{fill:#C29148;}
	.st10{fill:#8DDDDE;}
	.st11{fill:#C1C1C1;}
	.st12{fill:#C2BFAB;}
	.st13{fill:none;stroke:#95AC6E;stroke-miterlimit:10;}
	.st14{fill:#E8D28A;}
	.st15{fill:#CECECE;}
	.st16{fill:#FFFFFF;}
	.st17{fill:#36323E;}
	.st18{fill:#868C97;}
	.st19{fill:#FCFCFA;}
	.st20{fill:#141316;}
	.st21{fill:#B9A68F;}
	.st22{fill:#E0B45B;}
	.st23{fill:#ABA28E;}
	.st24{fill:none;stroke:#FFFFFF;stroke-miterlimit:10;}
	.st25{fill:#915114;}
	.st26{fill:#E20E18;}
	.st27{fill:#22AE87;}
	.st28{fill:#25AF88;}
	.st29{fill:#010101;}
	.st30{fill:#1B1B1B;}
	.st31{opacity:0.99;fill:#808181;enable-background:new    ;}
	.st32{opacity:0.99;fill:#CDCCCC;enable-background:new    ;}
	.st33{opacity:0.99;fill:#FFFFFF;enable-background:new    ;}
	.st34{opacity:0.99;fill:#B4B4B4;enable-background:new    ;}
	.st35{opacity:0.99;fill:#010101;enable-background:new    ;}
	.st36{enable-background:new    ;}
	.st37{fill:#915315;}
</style>
<g>
	<path class="st0" d="M243.3,222.2v-11.9H0.2v11.9c2.3,0.9,3.9,3.1,3.9,5.7s-1.6,4.8-3.9,5.7v18.1c2.3,0.9,3.9,3.1,3.9,5.7
		c0,2.6-1.6,4.8-3.9,5.7V281c2.3,0.9,3.9,3.1,3.9,5.7s-1.6,4.8-3.9,5.7v18.1c2.3,0.9,3.9,3.1,3.9,5.7s-1.6,4.8-3.9,5.7v18.1
		c2.3,0.9,3.9,3.1,3.9,5.7s-1.6,4.8-3.9,5.7v18.1c2.3,0.9,3.9,3.1,3.9,5.7s-1.6,4.8-3.9,5.7v18.1c2.3,0.9,3.9,3.1,3.9,5.7
		s-1.6,4.8-3.9,5.7V428c2.3,0.9,3.9,3.1,3.9,5.7s-1.6,4.8-3.9,5.7v18.1c2.3,0.9,3.9,3.1,3.9,5.7s-1.6,4.8-3.9,5.7v18.1
		c2.3,0.9,3.9,3.1,3.9,5.7s-1.6,4.8-3.9,5.7v18.1c2.3,0.9,3.9,3.1,3.9,5.7s-1.6,4.8-3.9,5.7v18.1c2.3,0.9,3.9,3.1,3.9,5.7
		s-1.6,4.8-3.9,5.7V575c2.3,0.9,3.9,3.1,3.9,5.7s-1.6,4.8-3.9,5.7v18.1c2.3,0.9,3.9,3.1,3.9,5.7s-1.6,4.8-3.9,5.7v18.1
		c2.3,0.9,3.9,3.1,3.9,5.7s-1.6,4.8-3.9,5.7v18.1c2.3,0.9,3.9,3.1,3.9,5.7s-1.6,4.8-3.9,5.7v18.1c2.3,0.9,3.9,3.1,3.9,5.7
		s-1.6,4.8-3.9,5.7V722c2.3,0.9,3.9,3.1,3.9,5.7s-1.6,4.8-3.9,5.7v18c2.3,0.9,3.9,3.1,3.9,5.7s-1.6,4.8-3.9,5.7v18.1
		c2.3,0.9,3.9,3.1,3.9,5.7s-1.6,4.8-3.9,5.7V804h78.5h7.5h11.3h18.5h11.3H146h11.3h4h82v-11.9c-2.2-0.9-3.8-3.1-3.8-5.7
		s1.6-4.8,3.8-5.7v-18.1c-2.2-0.9-3.8-3.1-3.8-5.7s1.6-4.8,3.8-5.7v-18.1c-2.2-0.9-3.8-3.1-3.8-5.7s1.6-4.8,3.8-5.7v-18.1
		c-2.2-0.9-3.8-3.1-3.8-5.7s1.6-4.8,3.8-5.7v-18.1c-2.2-0.9-3.8-3.1-3.8-5.7s1.6-4.8,3.8-5.7v-18.1c-2.2-0.9-3.8-3.1-3.8-5.7
		s1.6-4.8,3.8-5.7v-18.1c-2.2-0.9-3.8-3.1-3.8-5.7s1.6-4.8,3.8-5.7v-18.1c-2.2-0.9-3.8-3.1-3.8-5.7s1.6-4.8,3.8-5.7v-18.1
		c-2.2-0.9-3.8-3.1-3.8-5.7s1.6-4.8,3.8-5.7v-18.1c-2.2-0.9-3.8-3.1-3.8-5.7s1.6-4.8,3.8-5.7v-18.1c-2.2-0.9-3.8-3.1-3.8-5.7
		s1.6-4.8,3.8-5.7v-18.1c-2.2-0.9-3.8-3.1-3.8-5.7s1.6-4.8,3.8-5.7v-18.1c-2.2-0.9-3.8-3.1-3.8-5.7s1.6-4.8,3.8-5.7v-18.1
		c-2.2-0.9-3.8-3.1-3.8-5.7s1.6-4.8,3.8-5.7v-18.1c-2.2-0.9-3.8-3.1-3.8-5.7s1.6-4.8,3.8-5.7v-18.1c-2.2-0.9-3.8-3.1-3.8-5.7
		s1.6-4.8,3.8-5.7v-18.1c-2.2-0.9-3.8-3.1-3.8-5.7s1.6-4.8,3.8-5.7v-18.1c-2.2-0.9-3.8-3.1-3.8-5.7s1.6-4.8,3.8-5.7v-18.1
		c-2.2-0.9-3.8-3.1-3.8-5.7c0-2.6,1.6-4.8,3.8-5.7v-18.1c-2.2-0.9-3.8-3.1-3.8-5.7S241.1,223.1,243.3,222.2z M15.8,792.5
		c-3.4,0-6.1-2.7-6.1-6.1s2.7-6.1,6.1-6.1s6.1,2.7,6.1,6.1S19.2,792.5,15.8,792.5z M15.8,763.1c-3.4,0-6.1-2.7-6.1-6.1
		s2.7-6.1,6.1-6.1s6.1,2.7,6.1,6.1S19.2,763.1,15.8,763.1z M15.8,733.7c-3.4,0-6.1-2.7-6.1-6.1s2.7-6.1,6.1-6.1s6.1,2.7,6.1,6.1
		S19.2,733.7,15.8,733.7z M15.8,704.3c-3.4,0-6.1-2.7-6.1-6.1s2.7-6.1,6.1-6.1s6.1,2.7,6.1,6.1S19.2,704.3,15.8,704.3z M15.8,674.9
		c-3.4,0-6.1-2.7-6.1-6.1s2.7-6.1,6.1-6.1s6.1,2.7,6.1,6.1S19.2,674.9,15.8,674.9z M15.8,645.5c-3.4,0-6.1-2.7-6.1-6.1
		s2.7-6.1,6.1-6.1s6.1,2.7,6.1,6.1S19.2,645.5,15.8,645.5z M15.8,616.1c-3.4,0-6.1-2.7-6.1-6.1s2.7-6.1,6.1-6.1s6.1,2.7,6.1,6.1
		S19.2,616.1,15.8,616.1z M15.8,586.7c-3.4,0-6.1-2.7-6.1-6.1s2.7-6.1,6.1-6.1s6.1,2.7,6.1,6.1S19.2,586.7,15.8,586.7z M15.8,557.3
		c-3.4,0-6.1-2.7-6.1-6.1s2.7-6.1,6.1-6.1s6.1,2.7,6.1,6.1S19.2,557.3,15.8,557.3z M15.8,527.9c-3.4,0-6.1-2.7-6.1-6.1
		s2.7-6.1,6.1-6.1s6.1,2.7,6.1,6.1S19.2,527.9,15.8,527.9z M15.8,498.5c-3.4,0-6.1-2.7-6.1-6.1s2.7-6.1,6.1-6.1s6.1,2.7,6.1,6.1
		S19.2,498.5,15.8,498.5z M15.8,469.1c-3.4,0-6.1-2.7-6.1-6.1s2.7-6.1,6.1-6.1s6.1,2.7,6.1,6.1S19.2,469.1,15.8,469.1z M15.8,439.8
		c-3.4,0-6.1-2.7-6.1-6.1s2.7-6.1,6.1-6.1s6.1,2.7,6.1,6.1S19.2,439.8,15.8,439.8z M15.8,410.4c-3.4,0-6.1-2.7-6.1-6.1
		s2.7-6.1,6.1-6.1s6.1,2.7,6.1,6.1S19.2,410.4,15.8,410.4z M15.8,381c-3.4,0-6.1-2.7-6.1-6.1s2.7-6.1,6.1-6.1s6.1,2.7,6.1,6.1
		S19.2,381,15.8,381z M15.8,351.6c-3.4,0-6.1-2.7-6.1-6.1s2.7-6.1,6.1-6.1s6.1,2.7,6.1,6.1S19.2,351.6,15.8,351.6z M15.8,322.2
		c-3.4,0-6.1-2.7-6.1-6.1s2.7-6.1,6.1-6.1c3.4,0,6.1,2.7,6.1,6.1S19.2,322.2,15.8,322.2z M15.8,292.8c-3.4,0-6.1-2.7-6.1-6.1
		s2.7-6.1,6.1-6.1s6.1,2.7,6.1,6.1S19.2,292.8,15.8,292.8z M15.8,263.4c-3.4,0-6.1-2.7-6.1-6.1c0-3.4,2.7-6.1,6.1-6.1
		s6.1,2.7,6.1,6.1C21.9,260.7,19.2,263.4,15.8,263.4z M15.8,234c-3.4,0-6.1-2.7-6.1-6.1s2.7-6.1,6.1-6.1s6.1,2.7,6.1,6.1
		S19.2,234,15.8,234z M53.7,792.4c-6.7,0-12.1-5.4-12.1-12.1s5.4-12.1,12.1-12.1c6.7,0,12.1,5.4,12.1,12.1S60.4,792.4,53.7,792.4z
		 M53.7,245.3c-6.7,0-12.1-5.4-12.1-12.1c0-6.7,5.4-12.1,12.1-12.1c6.7,0,12.1,5.4,12.1,12.1C65.8,239.9,60.4,245.3,53.7,245.3z
		 M127.6,578.5c-3.1,0-5.7-2.6-5.7-5.7s2.6-5.7,5.7-5.7c3.1,0,5.7,2.6,5.7,5.7S130.7,578.5,127.6,578.5z M157,578.5
		c-3.1,0-5.7-2.6-5.7-5.7s2.6-5.7,5.7-5.7c3.1,0,5.7,2.6,5.7,5.7S160.2,578.5,157,578.5z M186.2,221.1c6.7,0,12.1,5.4,12.1,12.1
		c0,6.7-5.4,12.1-12.1,12.1s-12.1-5.4-12.1-12.1C174.1,226.5,179.6,221.1,186.2,221.1z M192.5,572.8c0,3.1-2.6,5.7-5.7,5.7
		c-3.1,0-5.7-2.6-5.7-5.7s2.6-5.7,5.7-5.7C190,567.1,192.5,569.7,192.5,572.8z M188.2,792.4c-6.7,0-12.1-5.4-12.1-12.1
		s5.4-12.1,12.1-12.1s12.1,5.4,12.1,12.1S194.9,792.4,188.2,792.4z M227.8,792.5c-3.4,0-6.1-2.7-6.1-6.1s2.7-6.1,6.1-6.1
		s6.1,2.7,6.1,6.1S231.2,792.5,227.8,792.5z M227.8,763.1c-3.4,0-6.1-2.7-6.1-6.1s2.7-6.1,6.1-6.1s6.1,2.7,6.1,6.1
		S231.2,763.1,227.8,763.1z M227.8,733.7c-3.4,0-6.1-2.7-6.1-6.1s2.7-6.1,6.1-6.1s6.1,2.7,6.1,6.1S231.2,733.7,227.8,733.7z
		 M227.8,704.3c-3.4,0-6.1-2.7-6.1-6.1s2.7-6.1,6.1-6.1s6.1,2.7,6.1,6.1S231.2,704.3,227.8,704.3z M227.8,674.9
		c-3.4,0-6.1-2.7-6.1-6.1s2.7-6.1,6.1-6.1s6.1,2.7,6.1,6.1S231.2,674.9,227.8,674.9z M227.8,645.5c-3.4,0-6.1-2.7-6.1-6.1
		s2.7-6.1,6.1-6.1s6.1,2.7,6.1,6.1S231.2,645.5,227.8,645.5z M227.8,616.1c-3.4,0-6.1-2.7-6.1-6.1s2.7-6.1,6.1-6.1s6.1,2.7,6.1,6.1
		S231.2,616.1,227.8,616.1z M227.8,586.7c-3.4,0-6.1-2.7-6.1-6.1s2.7-6.1,6.1-6.1s6.1,2.7,6.1,6.1S231.2,586.7,227.8,586.7z
		 M227.8,557.3c-3.4,0-6.1-2.7-6.1-6.1s2.7-6.1,6.1-6.1s6.1,2.7,6.1,6.1S231.2,557.3,227.8,557.3z M227.8,527.9
		c-3.4,0-6.1-2.7-6.1-6.1s2.7-6.1,6.1-6.1s6.1,2.7,6.1,6.1S231.2,527.9,227.8,527.9z M227.8,498.5c-3.4,0-6.1-2.7-6.1-6.1
		s2.7-6.1,6.1-6.1s6.1,2.7,6.1,6.1S231.2,498.5,227.8,498.5z M227.8,469.1c-3.4,0-6.1-2.7-6.1-6.1s2.7-6.1,6.1-6.1s6.1,2.7,6.1,6.1
		S231.2,469.1,227.8,469.1z M227.8,439.8c-3.4,0-6.1-2.7-6.1-6.1s2.7-6.1,6.1-6.1s6.1,2.7,6.1,6.1S231.2,439.8,227.8,439.8z
		 M227.8,410.4c-3.4,0-6.1-2.7-6.1-6.1s2.7-6.1,6.1-6.1s6.1,2.7,6.1,6.1S231.2,410.4,227.8,410.4z M227.8,381
		c-3.4,0-6.1-2.7-6.1-6.1s2.7-6.1,6.1-6.1s6.1,2.7,6.1,6.1S231.2,381,227.8,381z M227.8,351.6c-3.4,0-6.1-2.7-6.1-6.1
		s2.7-6.1,6.1-6.1s6.1,2.7,6.1,6.1S231.2,351.6,227.8,351.6z M227.8,322.2c-3.4,0-6.1-2.7-6.1-6.1s2.7-6.1,6.1-6.1s6.1,2.7,6.1,6.1
		S231.2,322.2,227.8,322.2z M227.8,292.8c-3.4,0-6.1-2.7-6.1-6.1s2.7-6.1,6.1-6.1s6.1,2.7,6.1,6.1S231.2,292.8,227.8,292.8z
		 M227.8,263.4c-3.4,0-6.1-2.7-6.1-6.1c0-3.4,2.7-6.1,6.1-6.1s6.1,2.7,6.1,6.1C233.9,260.7,231.2,263.4,227.8,263.4z M227.8,234
		c-3.4,0-6.1-2.7-6.1-6.1s2.7-6.1,6.1-6.1s6.1,2.7,6.1,6.1S231.2,234,227.8,234z"/>
	<path class="st1" d="M53.7,212.7c-11.3,0-20.5,9.2-20.5,20.5c0,11.3,9.2,20.5,20.5,20.5s20.5-9.2,20.5-20.5
		C74.3,221.9,65.1,212.7,53.7,212.7z M53.7,245.3c-6.7,0-12.1-5.4-12.1-12.1c0-6.7,5.4-12.1,12.1-12.1c6.7,0,12.1,5.4,12.1,12.1
		C65.8,239.9,60.4,245.3,53.7,245.3z"/>
	<path class="st1" d="M186.3,212.7c-11.3,0-20.5,9.2-20.5,20.5c0,11.3,9.2,20.5,20.5,20.5c11.3,0,20.5-9.2,20.5-20.5
		C206.8,221.9,197.6,212.7,186.3,212.7z M186.3,245.3c-6.7,0-12.1-5.4-12.1-12.1c0-6.7,5.4-12.1,12.1-12.1c6.7,0,12.1,5.4,12.1,12.1
		C198.4,239.9,193,245.3,186.3,245.3z"/>
	<path class="st1" d="M53.7,759.8c-11.3,0-20.5,9.2-20.5,20.5s9.2,20.5,20.5,20.5s20.5-9.2,20.5-20.5S65.1,759.8,53.7,759.8z
		 M53.7,792.5c-6.7,0-12.1-5.4-12.1-12.1s5.4-12.1,12.1-12.1c6.7,0,12.1,5.4,12.1,12.1S60.4,792.5,53.7,792.5z"/>
	<path class="st1" d="M188.3,759.8c-11.3,0-20.5,9.2-20.5,20.5s9.2,20.5,20.5,20.5c11.3,0,20.5-9.2,20.5-20.5
		S199.6,759.8,188.3,759.8z M188.3,792.5c-6.7,0-12.1-5.4-12.1-12.1s5.4-12.1,12.1-12.1c6.7,0,12.1,5.4,12.1,12.1
		S195,792.5,188.3,792.5z"/>
	<circle class="st2" cx="55" cy="297.9" r="10.6"/>
	<circle class="st3" cx="55" cy="297.9" r="5.5"/>
	<path class="st4" d="M17.5,277.7H0.3v3.4c2.3,0.9,3.9,3.1,3.9,5.7s-1.6,4.8-3.9,5.7v3.4h17.2c5,0,9-4,9-9v0
		C26.5,281.7,22.4,277.7,17.5,277.7z M15.9,292.8c-3.4,0-6.1-2.7-6.1-6.1s2.7-6.1,6.1-6.1s6.1,2.7,6.1,6.1S19.2,292.8,15.9,292.8z"
		/>
	<path class="st4" d="M17.5,424.7H0.3v3.4c2.3,0.9,3.9,3.1,3.9,5.7s-1.6,4.8-3.9,5.7v3.4h17.2c5,0,9-4,9-9S22.4,424.7,17.5,424.7z
		 M15.9,439.8c-3.4,0-6.1-2.7-6.1-6.1s2.7-6.1,6.1-6.1s6.1,2.7,6.1,6.1S19.2,439.8,15.9,439.8z"/>
	<path class="st4" d="M17.5,571.6H0.3v3.4c2.3,0.9,3.9,3.1,3.9,5.7s-1.6,4.8-3.9,5.7v3.4h17.2c5,0,9-4,9-9S22.4,571.6,17.5,571.6z
		 M15.9,586.8c-3.4,0-6.1-2.7-6.1-6.1s2.7-6.1,6.1-6.1s6.1,2.7,6.1,6.1S19.2,586.8,15.9,586.8z"/>
	<path class="st4" d="M17.5,601H0.3v3.4c2.3,0.9,3.9,3.1,3.9,5.7s-1.6,4.8-3.9,5.7v3.4h17.2c5,0,9-4,9-9S22.4,601,17.5,601z
		 M15.9,616.2c-3.4,0-6.1-2.7-6.1-6.1s2.7-6.1,6.1-6.1s6.1,2.7,6.1,6.1S19.2,616.2,15.9,616.2z"/>
	<path class="st4" d="M17.5,630.4H0.3v3.4c2.3,0.9,3.9,3.1,3.9,5.7s-1.6,4.8-3.9,5.7v3.4h17.2c5,0,9-4,9-9S22.4,630.4,17.5,630.4z
		 M15.9,645.5c-3.4,0-6.1-2.7-6.1-6.1s2.7-6.1,6.1-6.1s6.1,2.7,6.1,6.1S19.2,645.5,15.9,645.5z"/>
	<path class="st4" d="M17.5,659.8H0.3v3.4c2.3,0.9,3.9,3.1,3.9,5.7s-1.6,4.8-3.9,5.7v3.4h17.2c5,0,9-4,9-9S22.4,659.8,17.5,659.8z
		 M15.9,674.9c-3.4,0-6.1-2.7-6.1-6.1s2.7-6.1,6.1-6.1s6.1,2.7,6.1,6.1S19.2,674.9,15.9,674.9z"/>
	<path class="st4" d="M17.5,718.6H0.3v3.4c2.3,0.9,3.9,3.1,3.9,5.7s-1.6,4.8-3.9,5.7v3.4h17.2c5,0,9-4,9-9v0
		C26.5,722.7,22.4,718.6,17.5,718.6z M15.9,733.7c-3.4,0-6.1-2.7-6.1-6.1s2.7-6.1,6.1-6.1s6.1,2.7,6.1,6.1S19.2,733.7,15.9,733.7z"
		/>
	<path class="st4" d="M17.5,748H0.3v3.4c2.3,0.9,3.9,3.1,3.9,5.7s-1.6,4.8-3.9,5.7v3.4h17.2c5,0,9-4,9-9v0
		C26.5,752.1,22.4,748,17.5,748z M15.9,763.1c-3.4,0-6.1-2.7-6.1-6.1s2.7-6.1,6.1-6.1s6.1,2.7,6.1,6.1S19.2,763.1,15.9,763.1z"/>
	<path class="st4" d="M17.5,777.4H0.3v3.4c2.3,0.9,3.9,3.1,3.9,5.7s-1.6,4.8-3.9,5.7v3.4h17.2c5,0,9-4,9-9S22.4,777.4,17.5,777.4z
		 M15.9,792.5c-3.4,0-6.1-2.7-6.1-6.1s2.7-6.1,6.1-6.1s6.1,2.7,6.1,6.1S19.2,792.5,15.9,792.5z"/>
	<path class="st4" d="M239.5,227.9c0-2.6,1.6-4.8,3.9-5.7v-3.4h-17.2c-5,0-9,4-9,9s4,9,9,9h17.2v-3.4
		C241.2,232.7,239.5,230.5,239.5,227.9z M227.8,234c-3.4,0-6.1-2.7-6.1-6.1s2.7-6.1,6.1-6.1s6.1,2.7,6.1,6.1S231.2,234,227.8,234z"
		/>
	<path class="st4" d="M239.5,257.3c0-2.6,1.6-4.8,3.9-5.7v-3.4h-17.2c-5,0-9,4-9,9v0c0,5,4,9,9,9h17.2V263
		C241.2,262.1,239.5,259.9,239.5,257.3z M227.8,263.4c-3.4,0-6.1-2.7-6.1-6.1s2.7-6.1,6.1-6.1s6.1,2.7,6.1,6.1
		S231.2,263.4,227.8,263.4z"/>
	<path class="st4" d="M239.5,286.7c0-2.6,1.6-4.8,3.9-5.7v-3.4h-17.2c-5,0-9,4-9,9v0c0,5,4,9,9,9h17.2v-3.4
		C241.2,291.5,239.5,289.3,239.5,286.7z M227.8,292.8c-3.4,0-6.1-2.7-6.1-6.1s2.7-6.1,6.1-6.1s6.1,2.7,6.1,6.1
		S231.2,292.8,227.8,292.8z"/>
	<path class="st4" d="M239.5,316.1c0-2.6,1.6-4.8,3.9-5.7v-3.4h-17.2c-5,0-9,4-9,9s4,9,9,9h17.2v-3.4
		C241.2,320.9,239.5,318.7,239.5,316.1z M227.8,322.2c-3.4,0-6.1-2.7-6.1-6.1s2.7-6.1,6.1-6.1s6.1,2.7,6.1,6.1
		S231.2,322.2,227.8,322.2z"/>
	<path class="st4" d="M239.5,345.5c0-2.6,1.6-4.8,3.9-5.7v-3.4h-17.2c-5,0-9,4-9,9s4,9,9,9h17.2v-3.4
		C241.2,350.3,239.5,348.1,239.5,345.5z M227.8,351.6c-3.4,0-6.1-2.7-6.1-6.1s2.7-6.1,6.1-6.1s6.1,2.7,6.1,6.1
		S231.2,351.6,227.8,351.6z"/>
	<path class="st4" d="M239.5,374.9c0-2.6,1.6-4.8,3.9-5.7v-3.4h-17.2c-5,0-9,4-9,9s4,9,9,9h17.2v-3.4
		C241.2,379.7,239.5,377.5,239.5,374.9z M227.8,381c-3.4,0-6.1-2.7-6.1-6.1s2.7-6.1,6.1-6.1s6.1,2.7,6.1,6.1S231.2,381,227.8,381z"
		/>
	<path class="st4" d="M239.5,433.7c0-2.6,1.6-4.8,3.9-5.7v-3.4h-17.2c-5,0-9,4-9,9s4,9,9,9h17.2v-3.4
		C241.2,438.5,239.5,436.3,239.5,433.7z M227.8,439.8c-3.4,0-6.1-2.7-6.1-6.1s2.7-6.1,6.1-6.1s6.1,2.7,6.1,6.1
		S231.2,439.8,227.8,439.8z"/>
	<path class="st4" d="M239.5,492.5c0-2.6,1.6-4.8,3.9-5.7v-3.4h-17.2c-5,0-9,4-9,9v0c0,5,4,9,9,9h17.2v-3.4
		C241.2,497.3,239.5,495.1,239.5,492.5z M227.8,498.6c-3.4,0-6.1-2.7-6.1-6.1s2.7-6.1,6.1-6.1s6.1,2.7,6.1,6.1
		S231.2,498.6,227.8,498.6z"/>
	<path class="st4" d="M239.5,521.9c0-2.6,1.6-4.8,3.9-5.7v-3.4h-17.2c-5,0-9,4-9,9v0c0,5,4,9,9,9h17.2v-3.4
		C241.2,526.7,239.5,524.5,239.5,521.9z M227.8,528c-3.4,0-6.1-2.7-6.1-6.1s2.7-6.1,6.1-6.1s6.1,2.7,6.1,6.1S231.2,528,227.8,528z"
		/>
	<path class="st4" d="M239.5,551.3c0-2.6,1.6-4.8,3.9-5.7v-3.4h-17.2c-5,0-9,4-9,9s4,9,9,9h17.2v-3.4
		C241.2,556.1,239.5,553.9,239.5,551.3z M227.8,557.4c-3.4,0-6.1-2.7-6.1-6.1s2.7-6.1,6.1-6.1s6.1,2.7,6.1,6.1
		S231.2,557.4,227.8,557.4z"/>
	<path class="st4" d="M239.5,580.7c0-2.6,1.6-4.8,3.9-5.7v-3.4h-17.2c-5,0-9,4-9,9s4,9,9,9h17.2v-3.4
		C241.2,585.5,239.5,583.3,239.5,580.7z M227.8,586.8c-3.4,0-6.1-2.7-6.1-6.1s2.7-6.1,6.1-6.1s6.1,2.7,6.1,6.1
		S231.2,586.8,227.8,586.8z"/>
	<path class="st4" d="M239.5,610.1c0-2.6,1.6-4.8,3.9-5.7V601h-17.2c-5,0-9,4-9,9s4,9,9,9h17.2v-3.4
		C241.2,614.9,239.5,612.6,239.5,610.1z M227.8,616.2c-3.4,0-6.1-2.7-6.1-6.1s2.7-6.1,6.1-6.1s6.1,2.7,6.1,6.1
		S231.2,616.2,227.8,616.2z"/>
	<path class="st4" d="M239.5,639.5c0-2.6,1.6-4.8,3.9-5.7v-3.4h-17.2c-5,0-9,4-9,9s4,9,9,9h17.2v-3.4
		C241.2,644.2,239.5,642,239.5,639.5z M227.8,645.5c-3.4,0-6.1-2.7-6.1-6.1s2.7-6.1,6.1-6.1s6.1,2.7,6.1,6.1
		S231.2,645.5,227.8,645.5z"/>
	<path class="st4" d="M239.5,668.9c0-2.6,1.6-4.8,3.9-5.7v-3.4h-17.2c-5,0-9,4-9,9s4,9,9,9h17.2v-3.4
		C241.2,673.6,239.5,671.4,239.5,668.9z M227.8,674.9c-3.4,0-6.1-2.7-6.1-6.1s2.7-6.1,6.1-6.1s6.1,2.7,6.1,6.1
		S231.2,674.9,227.8,674.9z"/>
	<path class="st4" d="M239.5,727.6c0-2.6,1.6-4.8,3.9-5.7v-3.4h-17.2c-5,0-9,4-9,9v0c0,5,4,9,9,9h17.2v-3.4
		C241.2,732.4,239.5,730.2,239.5,727.6z M227.8,733.7c-3.4,0-6.1-2.7-6.1-6.1s2.7-6.1,6.1-6.1s6.1,2.7,6.1,6.1
		S231.2,733.7,227.8,733.7z"/>
	<path class="st4" d="M239.5,757c0-2.6,1.6-4.8,3.9-5.7V748h-17.2c-5,0-9,4-9,9v0c0,5,4,9,9,9h17.2v-3.4
		C241.2,761.8,239.5,759.6,239.5,757z M227.8,763.1c-3.4,0-6.1-2.7-6.1-6.1s2.7-6.1,6.1-6.1s6.1,2.7,6.1,6.1
		S231.2,763.1,227.8,763.1z"/>
	<path class="st5" d="M163.1,199.8l4.4-4.4l-2.3-2.3l-6.6,6.6h-1.5v-4.7c0-1.2-1-2.2-2.2-2.2H85.4c-1.2,0-2.2,1-2.2,2.2v4.7h-1.5
		l-6.6-6.6l-2.3,2.3l4.4,4.4c-0.6,0.2-1,0.8-1,1.4v56.3c0,0.9,0.7,1.6,1.6,1.6h84.6c0.9,0,1.6-0.7,1.6-1.6v-56.3
		C164,200.6,163.6,200,163.1,199.8z"/>
	<g>
		<path class="st6" d="M100.3,222.1c0-3.2-2.6-5.8-5.8-5.8s-5.8,2.6-5.8,5.8c0,1.4,0.5,2.7,1.3,3.7h-0.2v7.7c0,1.2,1,2.1,2.1,2.1H97
			c1.2,0,2.1-1,2.1-2.1v-7.7H99C99.8,224.8,100.3,223.5,100.3,222.1z"/>
		<path class="st6" d="M155.5,222.1c0-3.2-2.6-5.8-5.8-5.8s-5.8,2.6-5.8,5.8c0,1.4,0.5,2.7,1.3,3.7H145v7.7c0,1.2,1,2.1,2.1,2.1h5.1
			c1.2,0,2.1-1,2.1-2.1v-7.7h-0.2C155,224.8,155.5,223.5,155.5,222.1z"/>
	</g>
	<path class="st7" d="M200.9,352.2h-21c-1.2,0-2.2-1-2.2-2.2v-26.7c0-1.2,1-2.2,2.2-2.2h21c1.2,0,2.2,1,2.2,2.2v26.7
		C203,351.3,202.1,352.2,200.9,352.2z"/>
	<g>
		<rect x="132" y="288.4" class="st8" width="21.7" height="14.4"/>
		<path class="st9" d="M149.3,302.9c-2-1.8-3.2-4.4-3.2-7.2s1.2-5.4,3.2-7.2h-12.8c2,1.8,3.2,4.4,3.2,7.2s-1.2,5.4-3.2,7.2H149.3z"
			/>
	</g>
	<g>
		<rect x="132.3" y="373.8" class="st8" width="21.7" height="14.4"/>
		<path class="st9" d="M149.6,388.2c-2-1.8-3.2-4.4-3.2-7.2s1.2-5.4,3.2-7.2h-12.8c2,1.8,3.2,4.4,3.2,7.2s-1.2,5.4-3.2,7.2H149.6z"
			/>
	</g>
	<g>
		<rect x="132.3" y="392.9" class="st8" width="21.7" height="14.4"/>
		<path class="st9" d="M149.6,407.4c-2-1.8-3.2-4.4-3.2-7.2s1.2-5.4,3.2-7.2h-12.8c2,1.8,3.2,4.4,3.2,7.2s-1.2,5.4-3.2,7.2H149.6z"
			/>
	</g>
	<g>
		
			<rect x="63.8" y="441.3" transform="matrix(6.123234e-17 -1 1 6.123234e-17 -380.079 513.1152)" class="st8" width="5.4" height="10.6"/>
		
			<rect x="63.8" y="443.6" transform="matrix(6.123234e-17 -1 1 6.123234e-17 -380.079 513.1152)" class="st9" width="5.4" height="6"/>
	</g>
	<g>
		<rect x="177.1" y="423.9" class="st8" width="5.4" height="10.6"/>
		<rect x="177.1" y="426.2" class="st9" width="5.4" height="6"/>
	</g>
	<rect x="179.5" y="273.9" class="st7" width="18.9" height="29.3"/>
	<g>
		<rect x="171.6" y="375.1" class="st8" width="20.6" height="9.6"/>
		<rect x="176.2" y="375.1" class="st10" width="11.5" height="9.6"/>
	</g>
	<rect x="120.2" y="543.2" class="st9" width="4.2" height="6.9"/>
	<rect x="126.9" y="543.2" class="st9" width="4.2" height="6.9"/>
	
		<rect x="66.6" y="453.2" transform="matrix(6.123234e-17 -1 1 6.123234e-17 -387.8757 525.3581)" class="st9" width="4.2" height="6.9"/>
	
		<rect x="89.5" y="386" transform="matrix(6.123234e-17 -1 1 6.123234e-17 -297.8109 481.1351)" class="st9" width="4.2" height="6.9"/>
	
		<rect x="66.3" y="496.8" transform="matrix(6.123234e-17 -1 1 6.123234e-17 -431.8297 568.5997)" class="st9" width="4.2" height="6.9"/>
	<rect x="195" y="502" class="st7" width="4.2" height="6.9"/>
	
		<rect x="189.2" y="440.8" transform="matrix(6.123234e-17 -1 1 6.123234e-17 -252.8595 635.511)" class="st7" width="4.2" height="6.9"/>
	
		<rect x="87.2" y="285.1" transform="matrix(6.123234e-17 -1 1 6.123234e-17 -199.1778 377.8401)" class="st7" width="4.2" height="6.9"/>
	
		<rect x="82.3" y="297.3" transform="matrix(6.123234e-17 -1 1 6.123234e-17 -216.293 385.1997)" class="st7" width="4.2" height="6.9"/>
	
		<rect x="192.8" y="389.8" transform="matrix(6.123234e-17 -1 1 6.123234e-17 -198.2498 588.1639)" class="st7" width="4.2" height="6.9"/>
	<path class="st11" d="M186.3,706.9H57.5c-2.1,0-3.9-1.7-3.9-3.9V594.9c0-2.1,1.7-3.9,3.9-3.9h128.8c2.1,0,3.9,1.7,3.9,3.9V703
		C190.2,705.2,188.5,706.9,186.3,706.9z"/>
	<rect x="101.5" y="753.2" class="st12" width="10.5" height="5.9"/>
	<rect x="130.3" y="753.3" class="st12" width="10.5" height="5.9"/>
	<rect x="101.5" y="790.9" class="st12" width="10.5" height="5.9"/>
	<rect x="130.3" y="791.1" class="st12" width="10.5" height="5.9"/>
	<polyline class="st13" points="17.5,235.7 17.5,240.1 35.4,258.1 35.4,306.7 51,322.2 51,457 55.9,462 91.2,462 	"/>
	<polyline class="st13" points="22.9,262.5 31,270.6 31,308.5 46.7,324.2 46.7,459.5 52.6,465.4 91,465.4 	"/>
	<polyline class="st13" points="23.2,321 43,340.8 43,461.9 53.4,472.4 95,472.4 	"/>
	<polyline class="st13" points="23.2,350.4 39.8,366.9 39.8,463.9 51.9,476 95.1,476 	"/>
	<polyline class="st13" points="23.2,380.6 35.6,392.9 35.6,468.9 49.5,482.8 93.4,482.8 	"/>
	<polyline class="st13" points="22.9,408.7 31.6,417.4 31.6,471.6 46.4,486.4 96.1,486.4 	"/>
	<polyline class="st13" points="22.9,467.4 45.3,489.8 102.7,489.8 	"/>
	<line class="st13" x1="23.7" y1="493.3" x2="98.8" y2="493.3"/>
	<path class="st13" d="M23.2,519.6c0.1-0.6,17.3-17.3,17.3-17.3H53l4.9,4.9h45.7"/>
	<polyline class="st13" points="20.4,545.5 25.7,540.2 25.7,532.4 30.9,527.3 30.9,518.9 43.9,505.8 52.6,505.8 57.3,510.5 
		95.3,510.5 	"/>
	<path class="st13" d="M30.7,535.7l3.4-3.4c0,0-0.7-8.9,0-9.6c0.7-0.7,6-6,6-6l6.3-6.3h6.1l3.7,3.7h35.1"/>
	<polyline class="st13" points="29.1,591.6 29.1,544 38.7,534.4 93.4,534.4 95,532.8 95,523.1 	"/>
	<polyline class="st13" points="17.5,689.9 17.5,686.3 32.9,670.8 32.9,590.5 35.7,587.8 35.7,546 42,539.7 94.2,539.7 98.4,535.4 
		98.4,528.1 	"/>
	<path class="st13" d="M35.7,573.5"/>
	<path class="st13" d="M35.7,588.7"/>
	<polyline class="st13" points="23.6,750.5 30.4,743.7 30.4,679.1 37.5,673.2 	"/>
	<polyline class="st13" points="35.6,683.5 42.6,676.5 42.6,586.8 39.9,584.1 39.9,547.2 44.6,542.6 94.9,542.6 101.9,535.6 
		101.9,519 	"/>
	<polyline class="st13" points="108.9,525.7 108.9,534.4 95.9,547.5 91.5,547.5 	"/>
	<polyline class="st13" points="93.9,556.1 112.4,537.6 112.4,522.2 	"/>
	<polyline class="st13" points="115.9,527.6 115.9,539.2 102.2,552.9 102.2,572.9 95.9,579.2 65,579.2 55.5,569.7 	"/>
	<polyline class="st13" points="133.9,566.5 138.7,561.7 138.7,548.4 135.5,545.3 135.5,535.3 132.4,532.1 132.4,521.2 	"/>
	<polyline class="st13" points="137.3,525.2 137.3,533.1 139.3,535.1 139.3,541.5 152.7,554.9 164.9,554.9 179.1,569.2 	"/>
	<polyline class="st13" points="145.3,523.1 145.3,533.5 151.3,539.5 172.3,539.5 200.5,567.7 200.5,680.3 206.7,686.5 206.7,737.4 
		212.3,742.9 212.3,763.1 223.3,774.2 223.3,779.5 	"/>
	<polyline class="st13" points="150.7,523.5 150.7,530.8 154.7,534.8 173.6,534.8 205.2,566.4 205.2,677.9 211.4,684.1 211.4,736.7 
		215.6,740.9 215.6,749.6 	"/>
	<polyline class="st13" points="157.5,518.3 165.3,518.3 211.1,564.2 211.1,675.8 227.2,691.9 	"/>
	<polyline class="st13" points="157.5,513.9 166.9,513.9 192.1,539.2 	"/>
	<polyline class="st13" points="158.6,508.8 166.6,508.8 190.1,532.3 195.5,532.3 206.3,543.1 206.3,550.1 	"/>
	<polyline class="st13" points="158.2,504.4 167.3,504.4 190.4,527.4 200.9,527.4 	"/>
	<polyline class="st13" points="158.2,500.2 169.1,500.2 174.1,505.2 	"/>
	<polyline class="st13" points="158.2,495.2 175.4,495.2 202.8,522.6 206.3,522.6 215.9,532.2 215.9,544.6 	"/>
	<line class="st13" x1="158.6" y1="489.8" x2="167.7" y2="489.8"/>
	<polyline class="st13" points="156.4,484.4 171.8,484.4 179.2,491.8 	"/>
	<polyline class="st13" points="187.9,504.4 192.4,499.8 192.4,480.5 203.4,480.5 	"/>
	<polyline class="st13" points="158.6,476 209.5,476 218.5,485 	"/>
	<polyline class="st13" points="158.2,471.6 213.8,471.6 220.3,465.1 	"/>
	<polyline class="st13" points="157.5,467.4 198.8,467.4 207.1,459.1 207.1,418.8 219.6,406.3 	"/>
	<polyline class="st13" points="158.6,463.1 179.1,463.1 202.4,439.9 202.4,417 	"/>
	<polyline class="st13" points="159.7,458.4 167.2,458.4 171.8,453.7 	"/>
	<path class="st13" d="M147.8,453.1c-0.2-0.3,9.2-9.2,9.2-9.2h15.6v-33.5l2.8-2.8v-7.7"/>
	<path class="st13" d="M147,450.8c0-0.2,0-6.5,0-6.5l10.3-10.3"/>
	<polyline class="st13" points="140.1,451.8 140.1,441 147.4,433.6 	"/>
	<line class="st13" x1="136.6" y1="448.8" x2="136.6" y2="431.2"/>
	<path class="st13" d="M133.1,450.5c0-0.6,0-15.2,0-15.2l-4.2-4.2"/>
	<path class="st13" d="M122.6,450.1c0-0.6,0-20.7,0-20.7"/>
	<path class="st13" d="M119.2,451.8c0-0.3,0-11.1,0-11.1l-7.6-7.6"/>
	<polyline class="st13" points="115.6,451.3 115.6,445 101.8,431.1 101.8,424.7 105,421.5 108.9,421.5 111.5,418.8 111.5,408.3 
		106.1,402.9 100,402.9 	"/>
	<polyline class="st13" points="99.8,408.7 105.4,408.7 108.5,411.8 108.5,417 105.7,419.7 101.1,419.7 97.7,423.2 97.7,432.2 
		108.7,443.2 108.7,449.9 	"/>
	<polyline class="st13" points="91.3,413.2 91.3,429.9 105.2,443.9 105.2,453.4 	"/>
	<polyline class="st13" points="76.5,412.4 76.5,419.6 85.9,429 85.9,432.8 99,445.9 99,455 	"/>
	<path class="st13" d="M94.8,449c0-0.1,0-5,0-5l-11.7-11.7v-1.1l-4.5-4.5h-6.4l-1.7-1.7h-6.9l-6.7-6.7v-14.4l1.6-1.6h8.8"/>
	<polyline class="st13" points="69.1,396.3 60.4,396.3 55.4,401.3 55.4,419.1 63.4,427.1 69.5,427.1 75.9,433.5 78.4,433.5 
		92.5,447.6 	"/>
	<line class="st13" x1="73.8" y1="369.6" x2="56" y2="387.4"/>
	<polyline class="st13" points="137.6,430.2 137.6,424.1 134.7,421.2 134.7,418.1 130.2,413.7 125.2,413.7 121.1,409.6 121.1,390.7 
		109.7,379.2 109.7,297 124,282.7 124,273.6 127.7,269.9 	"/>
	<path class="st13" d="M135.3,322.9c0-0.6,0-9,0-9l-3.1-3.1h-9.8l-4.5-4.5V302"/>
	<polyline class="st13" points="129.3,355.3 129.3,360.6 126.1,363.8 120.2,363.8 118.6,365.4 	"/>
	<polyline class="st13" points="62.9,268.4 62.9,277.8 79.1,294 83.6,294 88.5,298.9 88.5,307.1 83.9,311.6 83.9,325.1 	"/>
	<rect x="45.6" y="261.2" class="st14" width="18.9" height="9.6"/>
	<g>
		<rect x="102.7" y="259.1" class="st15" width="4.3" height="11.5"/>
		<rect x="110.4" y="259.1" class="st15" width="4.3" height="11.5"/>
		<rect x="118.1" y="259.1" class="st15" width="4.3" height="11.5"/>
		<rect x="125.7" y="259.1" class="st15" width="4.3" height="11.5"/>
		<rect x="133.4" y="259.1" class="st15" width="4.3" height="11.5"/>
	</g>
	<g>
		<path class="st16" d="M106.8,279.9v-5.5h2.5v5.8c0,2,0.6,2.7,1.7,2.7c1.2,0,1.8-0.7,1.8-2.7v-5.8h2.4v5.5c0,3.5-1.4,5.1-4.2,5.1
			S106.8,283.4,106.8,279.9z"/>
		<path class="st16" d="M116.7,283.5l1.3-1.6c0.7,0.6,1.7,1,2.6,1c0.9,0,1.4-0.4,1.4-0.9c0-0.6-0.6-0.8-1.5-1.2l-1.3-0.6
			c-1.1-0.4-2.1-1.3-2.1-2.8c0-1.7,1.6-3.2,3.8-3.2c1.2,0,2.5,0.5,3.4,1.3l-1.3,1.6c-0.7-0.5-1.4-0.8-2.1-0.8
			c-0.8,0-1.3,0.3-1.3,0.8c0,0.6,0.7,0.8,1.6,1.2l1.3,0.5c1.3,0.5,2.1,1.4,2.1,2.8c0,1.7-1.5,3.3-4,3.3
			C119.1,285,117.8,284.5,116.7,283.5z"/>
		<path class="st16" d="M126.3,274.4h3.6c2.2,0,3.9,0.6,3.9,2.6c0,0.9-0.5,1.9-1.4,2.2v0.1c1.1,0.3,1.9,1.1,1.9,2.4
			c0,2.1-1.8,3.1-4.1,3.1h-3.9V274.4z M129.8,278.5c1.1,0,1.5-0.5,1.5-1.2c0-0.8-0.5-1.1-1.5-1.1h-1.1v2.2H129.8z M130,282.9
			c1.2,0,1.8-0.4,1.8-1.3s-0.6-1.2-1.8-1.2h-1.2v2.5H130z"/>
	</g>
	<path class="st17" d="M170.2,355.8h-45.7c-0.5,0-1-0.4-1-1v-33.5c0-0.5,0.4-1,1-1h45.7c0.5,0,1,0.4,1,1v33.5
		C171.1,355.3,170.7,355.8,170.2,355.8z"/>
	<g>
		<rect x="128.6" y="316.2" class="st15" width="1.4" height="4.1"/>
		<rect x="134.6" y="316.2" class="st15" width="1.4" height="4.1"/>
		<rect x="140.6" y="316.2" class="st15" width="1.4" height="4.1"/>
		<rect x="146.6" y="316.2" class="st15" width="1.4" height="4.1"/>
		<rect x="152.6" y="316.2" class="st15" width="1.4" height="4.1"/>
		<rect x="158.6" y="316.2" class="st15" width="1.4" height="4.1"/>
		<rect x="164.6" y="316.2" class="st15" width="1.4" height="4.1"/>
	</g>
	<g>
		<rect x="128.6" y="355.8" class="st15" width="1.4" height="4.1"/>
		<rect x="134.6" y="355.8" class="st15" width="1.4" height="4.1"/>
		<rect x="140.6" y="355.8" class="st15" width="1.4" height="4.1"/>
		<rect x="146.6" y="355.8" class="st15" width="1.4" height="4.1"/>
		<rect x="152.6" y="355.8" class="st15" width="1.4" height="4.1"/>
		<rect x="158.6" y="355.8" class="st15" width="1.4" height="4.1"/>
		<rect x="164.6" y="355.8" class="st15" width="1.4" height="4.1"/>
	</g>
	<g>
		<rect x="61.4" y="324.1" class="st18" width="39.3" height="48.9"/>
		<path class="st19" d="M81,366.9L81,366.9c-7.6,0-13.7-6.1-13.7-13.7v-9.1c0-7.6,6.1-13.7,13.7-13.7h0c7.6,0,13.7,6.1,13.7,13.7
			v9.1C94.7,360.7,88.6,366.9,81,366.9z"/>
		<path class="st19" d="M61.4,334.4L61.4,334.4l0-10.3h10.3l0,0C71.6,329.8,67.1,334.4,61.4,334.4z"/>
		<path class="st19" d="M71.6,373.1H61.4v-10.3h0C67.1,362.8,71.6,367.4,71.6,373.1L71.6,373.1z"/>
		<path class="st19" d="M100.7,334.4L100.7,334.4c-5.7,0-10.3-4.6-10.3-10.3l0,0h10.3V334.4z"/>
		<path class="st19" d="M100.7,373.1H90.4v0c0-5.7,4.6-10.3,10.3-10.3h0V373.1z"/>
	</g>
	<g>
		<rect x="64.9" y="393.6" class="st17" width="34.6" height="22.9"/>
		<g>
			<rect x="60.7" y="394.8" class="st15" width="4.2" height="3.4"/>
			<rect x="60.7" y="400.5" class="st15" width="4.2" height="3.4"/>
			<rect x="60.7" y="406.3" class="st15" width="4.2" height="3.4"/>
			<rect x="60.7" y="412" class="st15" width="4.2" height="3.4"/>
		</g>
		<g>
			<rect x="99.5" y="394.8" class="st15" width="4.2" height="3.4"/>
			<rect x="99.5" y="400.5" class="st15" width="4.2" height="3.4"/>
			<rect x="99.5" y="406.3" class="st15" width="4.2" height="3.4"/>
			<rect x="99.5" y="412" class="st15" width="4.2" height="3.4"/>
		</g>
	</g>
	<rect x="135.5" y="425.1" class="st7" width="4.2" height="6.9"/>
	<g>
		<path class="st20" d="M160.4,528.9H81.4c-0.7,0-1.3-0.6-1.3-1.3v-79.1c0-0.7,0.6-1.3,1.3-1.3h79.1c0.7,0,1.3,0.6,1.3,1.3v79.1
			C161.7,528.3,161.1,528.9,160.4,528.9z"/>
		<g>
			<rect x="86.2" y="445.3" class="st15" width="3.1" height="1.9"/>
			<rect x="89.7" y="445.3" class="st15" width="3.1" height="1.9"/>
			<rect x="93.2" y="445.3" class="st15" width="3.1" height="1.9"/>
			<rect x="96.7" y="445.3" class="st15" width="3.1" height="1.9"/>
			<rect x="100.2" y="445.3" class="st15" width="3.1" height="1.9"/>
			<rect x="103.6" y="445.3" class="st15" width="3.1" height="1.9"/>
			<rect x="107.1" y="445.3" class="st15" width="3.1" height="1.9"/>
			<rect x="114.1" y="445.3" class="st15" width="3.1" height="1.9"/>
			<rect x="121.1" y="445.3" class="st15" width="3.1" height="1.9"/>
			<rect x="128" y="445.3" class="st15" width="3.1" height="1.9"/>
			<rect x="138.5" y="445.3" class="st15" width="3.1" height="1.9"/>
			<rect x="142" y="445.3" class="st15" width="3.1" height="1.9"/>
			<rect x="149" y="445.3" class="st15" width="3.1" height="1.9"/>
			<rect x="110.6" y="445.3" class="st15" width="3.1" height="1.9"/>
			<rect x="117.6" y="445.3" class="st15" width="3.1" height="1.9"/>
			<rect x="124.6" y="445.3" class="st15" width="3.1" height="1.9"/>
			<rect x="131.5" y="445.3" class="st15" width="3.1" height="1.9"/>
			<rect x="135" y="445.3" class="st15" width="3.1" height="1.9"/>
			<rect x="145.5" y="445.3" class="st15" width="3.1" height="1.9"/>
			<rect x="152.4" y="445.3" class="st15" width="3.1" height="1.9"/>
		</g>
		<g>
			<rect x="86.4" y="528.9" class="st15" width="3.1" height="1.9"/>
			<rect x="89.9" y="528.9" class="st15" width="3.1" height="1.9"/>
			<rect x="93.4" y="528.9" class="st15" width="3.1" height="1.9"/>
			<rect x="96.9" y="528.9" class="st15" width="3.1" height="1.9"/>
			<rect x="100.4" y="528.9" class="st15" width="3.1" height="1.9"/>
			<rect x="103.8" y="528.9" class="st15" width="3.1" height="1.9"/>
			<rect x="107.3" y="528.9" class="st15" width="3.1" height="1.9"/>
			<rect x="114.3" y="528.9" class="st15" width="3.1" height="1.9"/>
			<rect x="121.3" y="528.9" class="st15" width="3.1" height="1.9"/>
			<rect x="128.2" y="528.9" class="st15" width="3.1" height="1.9"/>
			<rect x="138.7" y="528.9" class="st15" width="3.1" height="1.9"/>
			<rect x="142.2" y="528.9" class="st15" width="3.1" height="1.9"/>
			<rect x="149.1" y="528.9" class="st15" width="3.1" height="1.9"/>
			<rect x="110.8" y="528.9" class="st15" width="3.1" height="1.9"/>
			<rect x="117.8" y="528.9" class="st15" width="3.1" height="1.9"/>
			<rect x="124.7" y="528.9" class="st15" width="3.1" height="1.9"/>
			<rect x="131.7" y="528.9" class="st15" width="3.1" height="1.9"/>
			<rect x="135.2" y="528.9" class="st15" width="3.1" height="1.9"/>
			<rect x="145.7" y="528.9" class="st15" width="3.1" height="1.9"/>
			<rect x="152.6" y="528.9" class="st15" width="3.1" height="1.9"/>
		</g>
		<g>
			
				<rect x="77.5" y="520.2" transform="matrix(6.123234e-17 -1 1 6.123234e-17 -442.0904 600.2707)" class="st15" width="3.1" height="1.9"/>
			
				<rect x="77.5" y="516.7" transform="matrix(6.123234e-17 -1 1 6.123234e-17 -438.6054 596.7856)" class="st15" width="3.1" height="1.9"/>
			
				<rect x="77.5" y="513.2" transform="matrix(6.123234e-17 -1 1 6.123234e-17 -435.1203 593.3006)" class="st15" width="3.1" height="1.9"/>
			
				<rect x="77.5" y="509.8" transform="matrix(6.123234e-17 -1 1 6.123234e-17 -431.6353 589.8156)" class="st15" width="3.1" height="1.9"/>
			
				<rect x="77.5" y="506.3" transform="matrix(6.123234e-17 -1 1 6.123234e-17 -428.1502 586.3305)" class="st15" width="3.1" height="1.9"/>
			
				<rect x="77.5" y="502.8" transform="matrix(6.123234e-17 -1 1 6.123234e-17 -424.6652 582.8455)" class="st15" width="3.1" height="1.9"/>
			
				<rect x="77.5" y="499.3" transform="matrix(6.123234e-17 -1 1 6.123234e-17 -421.1801 579.3604)" class="st15" width="3.1" height="1.9"/>
			
				<rect x="77.5" y="492.3" transform="matrix(6.123234e-17 -1 1 6.123234e-17 -414.2101 572.3903)" class="st15" width="3.1" height="1.9"/>
			
				<rect x="77.5" y="485.4" transform="matrix(6.123234e-17 -1 1 6.123234e-17 -407.24 565.4202)" class="st15" width="3.1" height="1.9"/>
			
				<rect x="77.5" y="478.4" transform="matrix(6.123234e-17 -1 1 6.123234e-17 -400.2699 558.4502)" class="st15" width="3.1" height="1.9"/>
			
				<rect x="77.5" y="467.9" transform="matrix(6.123234e-17 -1 1 6.123234e-17 -389.8148 547.9951)" class="st15" width="3.1" height="1.9"/>
			
				<rect x="77.5" y="464.5" transform="matrix(6.123234e-17 -1 1 6.123234e-17 -386.3297 544.51)" class="st15" width="3.1" height="1.9"/>
			
				<rect x="77.5" y="457.5" transform="matrix(6.123234e-17 -1 1 6.123234e-17 -379.3596 537.5399)" class="st15" width="3.1" height="1.9"/>
			
				<rect x="77.5" y="495.8" transform="matrix(6.123234e-17 -1 1 6.123234e-17 -417.6951 575.8754)" class="st15" width="3.1" height="1.9"/>
			
				<rect x="77.5" y="488.9" transform="matrix(6.123234e-17 -1 1 6.123234e-17 -410.725 568.9053)" class="st15" width="3.1" height="1.9"/>
			
				<rect x="77.5" y="481.9" transform="matrix(6.123234e-17 -1 1 6.123234e-17 -403.7549 561.9352)" class="st15" width="3.1" height="1.9"/>
			
				<rect x="77.5" y="474.9" transform="matrix(6.123234e-17 -1 1 6.123234e-17 -396.7849 554.9651)" class="st15" width="3.1" height="1.9"/>
			
				<rect x="77.5" y="471.4" transform="matrix(6.123234e-17 -1 1 6.123234e-17 -393.2998 551.4801)" class="st15" width="3.1" height="1.9"/>
			
				<rect x="77.5" y="461" transform="matrix(6.123234e-17 -1 1 6.123234e-17 -382.8447 541.025)" class="st15" width="3.1" height="1.9"/>
			
				<rect x="77.5" y="454" transform="matrix(6.123234e-17 -1 1 6.123234e-17 -375.8746 534.0549)" class="st15" width="3.1" height="1.9"/>
		</g>
		<g>
			
				<rect x="161.1" y="520.2" transform="matrix(6.123234e-17 -1 1 6.123234e-17 -358.5005 683.8606)" class="st15" width="3.1" height="1.9"/>
			
				<rect x="161.1" y="516.7" transform="matrix(6.123234e-17 -1 1 6.123234e-17 -355.0154 680.3755)" class="st15" width="3.1" height="1.9"/>
			
				<rect x="161.1" y="513.2" transform="matrix(6.123234e-17 -1 1 6.123234e-17 -351.5304 676.8905)" class="st15" width="3.1" height="1.9"/>
			
				<rect x="161.1" y="509.8" transform="matrix(6.123234e-17 -1 1 6.123234e-17 -348.0453 673.4055)" class="st15" width="3.1" height="1.9"/>
			
				<rect x="161.1" y="506.3" transform="matrix(6.123234e-17 -1 1 6.123234e-17 -344.5603 669.9205)" class="st15" width="3.1" height="1.9"/>
			
				<rect x="161.1" y="502.8" transform="matrix(6.123234e-17 -1 1 6.123234e-17 -341.0753 666.4354)" class="st15" width="3.1" height="1.9"/>
			
				<rect x="161.1" y="499.3" transform="matrix(6.123234e-17 -1 1 6.123234e-17 -337.5902 662.9504)" class="st15" width="3.1" height="1.9"/>
			
				<rect x="161.1" y="492.3" transform="matrix(6.123234e-17 -1 1 6.123234e-17 -330.6201 655.9803)" class="st15" width="3.1" height="1.9"/>
			
				<rect x="161.1" y="485.4" transform="matrix(6.123234e-17 -1 1 6.123234e-17 -323.6501 649.0102)" class="st15" width="3.1" height="1.9"/>
			
				<rect x="161.1" y="478.4" transform="matrix(6.123234e-17 -1 1 6.123234e-17 -316.68 642.0401)" class="st15" width="3.1" height="1.9"/>
			
				<rect x="161.1" y="467.9" transform="matrix(6.123234e-17 -1 1 6.123234e-17 -306.2248 631.585)" class="st15" width="3.1" height="1.9"/>
			
				<rect x="161.1" y="464.5" transform="matrix(6.123234e-17 -1 1 6.123234e-17 -302.7398 628.0999)" class="st15" width="3.1" height="1.9"/>
			
				<rect x="161.1" y="457.5" transform="matrix(6.123234e-17 -1 1 6.123234e-17 -295.7697 621.1298)" class="st15" width="3.1" height="1.9"/>
			
				<rect x="161.1" y="495.8" transform="matrix(6.123234e-17 -1 1 6.123234e-17 -334.1052 659.4653)" class="st15" width="3.1" height="1.9"/>
			
				<rect x="161.1" y="488.9" transform="matrix(6.123234e-17 -1 1 6.123234e-17 -327.1351 652.4952)" class="st15" width="3.1" height="1.9"/>
			
				<rect x="161.1" y="481.9" transform="matrix(6.123234e-17 -1 1 6.123234e-17 -320.165 645.5251)" class="st15" width="3.1" height="1.9"/>
			
				<rect x="161.1" y="474.9" transform="matrix(6.123234e-17 -1 1 6.123234e-17 -313.1949 638.5551)" class="st15" width="3.1" height="1.9"/>
			
				<rect x="161.1" y="471.4" transform="matrix(6.123234e-17 -1 1 6.123234e-17 -309.7099 635.07)" class="st15" width="3.1" height="1.9"/>
			
				<rect x="161.1" y="461" transform="matrix(6.123234e-17 -1 1 6.123234e-17 -299.2547 624.6149)" class="st15" width="3.1" height="1.9"/>
			
				<rect x="161.1" y="454" transform="matrix(6.123234e-17 -1 1 6.123234e-17 -292.2846 617.6448)" class="st15" width="3.1" height="1.9"/>
		</g>
		<circle class="st21" cx="90.2" cy="458.4" r="2.8"/>
	</g>
	<rect x="187.1" y="413.1" class="st17" width="18.2" height="8.6"/>
	<rect x="189.1" y="421.7" class="st15" width="2.9" height="8.7"/>
	<rect x="200.9" y="421.7" class="st15" width="2.9" height="8.7"/>
	<rect x="194.8" y="404.4" class="st15" width="2.9" height="8.7"/>
	
		<rect x="170.5" y="451.1" transform="matrix(6.123234e-17 -1 1 6.123234e-17 -281.9476 627.1423)" class="st9" width="4.2" height="6.9"/>
	<rect x="189.5" y="482.2" class="st7" width="4.2" height="6.9"/>
	
		<rect x="172.3" y="501.4" transform="matrix(0.7071 -0.7071 0.7071 0.7071 -305.9023 271.2309)" class="st9" width="4.2" height="6.9"/>
	<g>
		<path class="st4" d="M157,563.6c-5.1,0-9.2,4.1-9.2,9.2s4.1,9.2,9.2,9.2s9.2-4.1,9.2-9.2S162.1,563.6,157,563.6z M157,578.5
			c-3.1,0-5.7-2.6-5.7-5.7s2.6-5.7,5.7-5.7c3.1,0,5.7,2.6,5.7,5.7S160.2,578.5,157,578.5z"/>
		<path class="st4" d="M118.7,564v17.7h17.7V564H118.7z M127.6,578.5c-3.1,0-5.7-2.6-5.7-5.7s2.6-5.7,5.7-5.7c3.1,0,5.7,2.6,5.7,5.7
			S130.7,578.5,127.6,578.5z"/>
		<path class="st4" d="M186.8,563.6c-5.1,0-9.2,4.1-9.2,9.2s4.1,9.2,9.2,9.2s9.2-4.1,9.2-9.2S191.9,563.6,186.8,563.6z M186.8,578.5
			c-3.1,0-5.7-2.6-5.7-5.7s2.6-5.7,5.7-5.7c3.1,0,5.7,2.6,5.7,5.7S190,578.5,186.8,578.5z"/>
	</g>
	<path class="st4" d="M17.5,542.3H0.3v3.4c2.3,0.9,3.9,3.1,3.9,5.7s-1.6,4.8-3.9,5.7v3.4h17.2c5,0,9-4,9-9S22.4,542.3,17.5,542.3z
		 M15.9,557.4c-3.4,0-6.1-2.7-6.1-6.1s2.7-6.1,6.1-6.1s6.1,2.7,6.1,6.1S19.2,557.4,15.9,557.4z"/>
	<path class="st4" d="M17.5,512.9H0.3v3.4c2.3,0.9,3.9,3.1,3.9,5.7s-1.6,4.8-3.9,5.7v3.4h17.2c5,0,9-4,9-9v0
		C26.5,516.9,22.4,512.9,17.5,512.9z M15.9,528c-3.4,0-6.1-2.7-6.1-6.1s2.7-6.1,6.1-6.1s6.1,2.7,6.1,6.1S19.2,528,15.9,528z"/>
	<path class="st4" d="M17.5,483.5H0.3v3.4c2.3,0.9,3.9,3.1,3.9,5.7s-1.6,4.8-3.9,5.7v3.4h17.2c5,0,9-4,9-9v0
		C26.5,487.5,22.4,483.5,17.5,483.5z M15.9,498.6c-3.4,0-6.1-2.7-6.1-6.1s2.7-6.1,6.1-6.1s6.1,2.7,6.1,6.1S19.2,498.6,15.9,498.6z"
		/>
	<path class="st4" d="M17.5,454.1H0.3v3.4c2.3,0.9,3.9,3.1,3.9,5.7s-1.6,4.8-3.9,5.7v3.4h17.2c5,0,9-4,9-9S22.4,454.1,17.5,454.1z
		 M15.9,469.2c-3.4,0-6.1-2.7-6.1-6.1s2.7-6.1,6.1-6.1s6.1,2.7,6.1,6.1S19.2,469.2,15.9,469.2z"/>
	<path class="st4" d="M17.5,395.3H0.3v3.4c2.3,0.9,3.9,3.1,3.9,5.7s-1.6,4.8-3.9,5.7v3.4h17.2c5,0,9-4,9-9S22.4,395.3,17.5,395.3z
		 M15.9,410.4c-3.4,0-6.1-2.7-6.1-6.1s2.7-6.1,6.1-6.1s6.1,2.7,6.1,6.1S19.2,410.4,15.9,410.4z"/>
	<path class="st4" d="M17.5,365.9H0.3v3.4c2.3,0.9,3.9,3.1,3.9,5.7s-1.6,4.8-3.9,5.7v3.4h17.2c5,0,9-4,9-9S22.4,365.9,17.5,365.9z
		 M15.9,381c-3.4,0-6.1-2.7-6.1-6.1s2.7-6.1,6.1-6.1s6.1,2.7,6.1,6.1S19.2,381,15.9,381z"/>
	<path class="st4" d="M17.5,336.5H0.3v3.4c2.3,0.9,3.9,3.1,3.9,5.7s-1.6,4.8-3.9,5.7v3.4h17.2c5,0,9-4,9-9S22.4,336.5,17.5,336.5z
		 M15.9,351.6c-3.4,0-6.1-2.7-6.1-6.1s2.7-6.1,6.1-6.1s6.1,2.7,6.1,6.1S19.2,351.6,15.9,351.6z"/>
	<path class="st4" d="M17.5,307.1H0.3v3.4c2.3,0.9,3.9,3.1,3.9,5.7s-1.6,4.8-3.9,5.7v3.4h17.2c5,0,9-4,9-9S22.4,307.1,17.5,307.1z
		 M15.9,322.2c-3.4,0-6.1-2.7-6.1-6.1s2.7-6.1,6.1-6.1s6.1,2.7,6.1,6.1S19.2,322.2,15.9,322.2z"/>
	<path class="st4" d="M17.5,248.3H0.3v3.4c2.3,0.9,3.9,3.1,3.9,5.7s-1.6,4.8-3.9,5.7v3.4h17.2c5,0,9-4,9-9v0
		C26.5,252.3,22.4,248.3,17.5,248.3z M15.9,263.4c-3.4,0-6.1-2.7-6.1-6.1s2.7-6.1,6.1-6.1s6.1,2.7,6.1,6.1S19.2,263.4,15.9,263.4z"
		/>
	<path class="st4" d="M17.5,218.9H0.3v3.4c2.3,0.9,3.9,3.1,3.9,5.7s-1.6,4.8-3.9,5.7v3.4h17.2c5,0,9-4,9-9S22.4,218.9,17.5,218.9z
		 M15.9,234c-3.4,0-6.1-2.7-6.1-6.1s2.7-6.1,6.1-6.1s6.1,2.7,6.1,6.1S19.2,234,15.9,234z"/>
	<path class="st4" d="M17.5,689.2H0.3v3.4c2.3,0.9,3.9,3.1,3.9,5.7s-1.6,4.8-3.9,5.7v3.4h17.2c5,0,9-4,9-9S22.4,689.2,17.5,689.2z
		 M15.9,704.3c-3.4,0-6.1-2.7-6.1-6.1s2.7-6.1,6.1-6.1s6.1,2.7,6.1,6.1S19.2,704.3,15.9,704.3z"/>
	<path class="st4" d="M239.5,786.4c0-2.6,1.6-4.8,3.9-5.7v-3.4h-17.2c-5,0-9,4-9,9s4,9,9,9h17.2v-3.4
		C241.2,791.2,239.5,789,239.5,786.4z M227.8,792.5c-3.4,0-6.1-2.7-6.1-6.1s2.7-6.1,6.1-6.1s6.1,2.7,6.1,6.1
		S231.2,792.5,227.8,792.5z"/>
	<path class="st4" d="M239.5,698.3c0-2.6,1.6-4.8,3.9-5.7v-3.4h-17.2c-5,0-9,4-9,9s4,9,9,9h17.2v-3.4
		C241.2,703,239.5,700.8,239.5,698.3z M227.8,704.3c-3.4,0-6.1-2.7-6.1-6.1s2.7-6.1,6.1-6.1s6.1,2.7,6.1,6.1
		S231.2,704.3,227.8,704.3z"/>
	<path class="st4" d="M239.5,463.1c0-2.6,1.6-4.8,3.9-5.7v-3.4h-17.2c-5,0-9,4-9,9s4,9,9,9h17.2v-3.4
		C241.2,467.9,239.5,465.7,239.5,463.1z M227.8,469.2c-3.4,0-6.1-2.7-6.1-6.1s2.7-6.1,6.1-6.1s6.1,2.7,6.1,6.1
		S231.2,469.2,227.8,469.2z"/>
	
		<rect x="90" y="557.2" transform="matrix(6.123234e-17 -1 1 6.123234e-17 -465.7312 652.3144)" class="st12" width="6.7" height="3.7"/>
	<g>
		<path class="st22" d="M82.2,576.5H50.4c-1.2,0-2.2-1-2.2-2.2v-23.7c0-1.2,1-2.2,2.2-2.2h31.8c1.2,0,2.2,1,2.2,2.2v23.7
			C84.4,575.5,83.4,576.5,82.2,576.5z"/>
		<path class="st23" d="M79.9,574H52.6c-0.8,0-1.4-0.6-1.4-1.4v-20.4c0-0.8,0.6-1.4,1.4-1.4h27.3c0.8,0,1.4,0.6,1.4,1.4v20.4
			C81.3,573.4,80.7,574,79.9,574z"/>
	</g>
	
		<rect x="90" y="577.1" transform="matrix(6.123234e-17 -1 1 6.123234e-17 -485.6656 672.2488)" class="st12" width="6.7" height="3.7"/>
	<rect x="100.1" y="561.3" class="st7" width="4.2" height="6.9"/>
	<g>
		<path class="st16" d="M42.3,381.4v-3.6c0-2.2,0.6-3.9,2.6-3.9c0.9,0,1.9,0.5,2.2,1.4h0.1c0.3-1.1,1.1-1.9,2.4-1.9
			c2.1,0,3.1,1.8,3.1,4.1v3.9H42.3z M46.4,377.9c0-1.1-0.5-1.5-1.2-1.5c-0.8,0-1.1,0.5-1.1,1.5v1.1h2.2V377.9z M50.8,377.7
			c0-1.2-0.4-1.8-1.3-1.8s-1.2,0.6-1.2,1.8v1.2h2.5V377.7z"/>
		<path class="st16" d="M47.4,372.2c-3.4,0-5.4-1.9-5.4-4.8s2-4.8,5.4-4.8c3.4,0,5.4,1.9,5.4,4.8S50.8,372.2,47.4,372.2z
			 M47.4,365.2c-2,0-3.2,0.8-3.2,2.2c0,1.4,1.2,2.2,3.2,2.2c2,0,3.3-0.9,3.3-2.2C50.7,366.1,49.4,365.2,47.4,365.2z"/>
		<path class="st16" d="M47.4,361.2c-3.4,0-5.4-1.9-5.4-4.8s2-4.8,5.4-4.8c3.4,0,5.4,1.9,5.4,4.8S50.8,361.2,47.4,361.2z
			 M47.4,354.2c-2,0-3.2,0.8-3.2,2.2c0,1.4,1.2,2.2,3.2,2.2c2,0,3.3-0.9,3.3-2.2C50.7,355.1,49.4,354.2,47.4,354.2z"/>
		<path class="st16" d="M44.3,348.2v2.8h-2.1v-8.1h2.1v2.8h8.3v2.5H44.3z"/>
		<path class="st16" d="M51.3,342.3l-1.6-1.3c0.6-0.7,1-1.7,1-2.6c0-0.9-0.4-1.4-0.9-1.4c-0.6,0-0.8,0.6-1.2,1.5l-0.6,1.3
			c-0.4,1.1-1.3,2.1-2.8,2.1c-1.7,0-3.2-1.6-3.2-3.8c0-1.2,0.5-2.5,1.3-3.4L45,336c-0.5,0.7-0.8,1.4-0.8,2.1c0,0.8,0.3,1.3,0.8,1.3
			c0.6,0,0.8-0.7,1.2-1.6l0.5-1.3c0.5-1.3,1.4-2.1,2.8-2.1c1.7,0,3.3,1.5,3.3,4C52.9,339.8,52.4,341.2,51.3,342.3z"/>
		<path class="st16" d="M42.3,332.7v-6.6h2.1v4.1h2v-3.5h2.1v3.5h2.2V326h2.1v6.8H42.3z"/>
		<path class="st16" d="M42.3,323.9v-2.5h8.3v-4h2.1v6.5H42.3z"/>
	</g>
	<g>
		<path class="st16" d="M141.4,538.6h3c3.2,0,5.3,1.6,5.3,5.2c0,3.6-2.1,5.2-5.1,5.2h-3.1V538.6z M144.3,547.1
			c1.7,0,2.9-0.8,2.9-3.2c0-2.5-1.2-3.2-2.9-3.2h-0.4v6.4H144.3z"/>
		<path class="st16" d="M151.6,538.6h6.6v2.1h-4.1v2h3.5v2.1h-3.5v2.2h4.3v2.1h-6.8V538.6z"/>
		<path class="st16" d="M160.4,538.6h3.6c2.2,0,3.9,0.6,3.9,2.6c0,0.9-0.5,1.9-1.4,2.2v0.1c1.1,0.3,1.9,1.1,1.9,2.4
			c0,2.1-1.8,3.1-4.1,3.1h-3.9V538.6z M164,542.8c1.1,0,1.5-0.5,1.5-1.2c0-0.8-0.5-1.1-1.5-1.1h-1.1v2.2H164z M164.2,547.1
			c1.2,0,1.8-0.4,1.8-1.3c0-0.9-0.6-1.2-1.8-1.2h-1.2v2.5H164.2z"/>
		<path class="st16" d="M170.1,544.2v-5.5h2.5v5.8c0,2,0.6,2.7,1.7,2.7c1.2,0,1.8-0.7,1.8-2.7v-5.8h2.4v5.5c0,3.5-1.4,5.1-4.2,5.1
			S170.1,547.7,170.1,544.2z"/>
		<path class="st16" d="M180.3,543.9c0-3.5,2.3-5.5,5.1-5.5c1.5,0,2.6,0.6,3.3,1.4l-1.3,1.5c-0.5-0.5-1.1-0.7-1.9-0.7
			c-1.5,0-2.7,1.2-2.7,3.2c0,2.1,0.9,3.3,2.9,3.3c0.4,0,0.8-0.1,1-0.3v-1.7h-1.7v-2h3.9v4.9c-0.7,0.7-2,1.3-3.5,1.3
			C182.6,549.2,180.3,547.4,180.3,543.9z"/>
	</g>
	<rect x="114.2" y="560" class="st24" width="86.4" height="25.6"/>
	<g>
		<path class="st16" d="M40.1,274.4h2.5v8.3h4v2.1h-6.5V274.4z"/>
		<path class="st16" d="M48.4,274.4H55v2.1h-4.1v2h3.5v2.1h-3.5v2.2h4.3v2.1h-6.8V274.4z"/>
		<path class="st16" d="M57.2,274.4h3c3.2,0,5.3,1.6,5.3,5.2c0,3.6-2.1,5.2-5.1,5.2h-3.1V274.4z M60.1,282.8c1.7,0,2.9-0.8,2.9-3.2
			c0-2.5-1.2-3.2-2.9-3.2h-0.4v6.4H60.1z"/>
	</g>
	<g>
		<rect x="143.7" y="423.9" class="st8" width="5.4" height="10.6"/>
		<rect x="143.7" y="426.2" class="st9" width="5.4" height="6"/>
	</g>
	<g>
		<rect x="154.3" y="423.9" class="st8" width="5.4" height="10.6"/>
		<rect x="154.3" y="426.2" class="st9" width="5.4" height="6"/>
	</g>
	<rect x="127.1" y="425.1" class="st7" width="4.2" height="6.9"/>
	
		<rect x="68.6" y="430.3" transform="matrix(6.123234e-17 -1 1 6.123234e-17 -362.956 504.4277)" class="st7" width="4.2" height="6.9"/>
	<rect x="120.5" y="425.1" class="st9" width="4.2" height="6.9"/>
	<rect x="110.4" y="425.1" class="st9" width="4.2" height="6.9"/>
	<path class="st4" d="M239.5,404.3c0-2.6,1.6-4.8,3.9-5.7v-3.4h-17.2c-5,0-9,4-9,9s4,9,9,9h17.2V410
		C241.2,409.1,239.5,406.9,239.5,404.3z M227.8,410.4c-3.4,0-6.1-2.7-6.1-6.1s2.7-6.1,6.1-6.1s6.1,2.7,6.1,6.1
		S231.2,410.4,227.8,410.4z"/>
	<g>
		
			<rect x="169.4" y="396.4" transform="matrix(-1.836970e-16 1 -1 -1.836970e-16 574.5437 223.7807)" class="st8" width="11.9" height="5.6"/>
		
			<rect x="172.1" y="396.4" transform="matrix(-1.836970e-16 1 -1 -1.836970e-16 574.5437 223.7807)" class="st10" width="6.6" height="5.6"/>
	</g>
</g>
<sodipodi:namedview  bordercolor="#666666" borderopacity="1" gridtolerance="10" guidetolerance="10" id="namedview71" inkscape:current-layer="Ebene_1" inkscape:cx="230.33545" inkscape:cy="402.11774" inkscape:pageopacity="0" inkscape:pageshadow="2" inkscape:window-height="1017" inkscape:window-maximized="1" inkscape:window-width="1920" inkscape:window-x="-8" inkscape:window-y="-8" inkscape:zoom="0.29344639" objecttolerance="10" pagecolor="#ffffff" showgrid="false">
	</sodipodi:namedview>
<circle id="circle281" class="st25" cx="232.1" cy="286.8" r="11.6"/>
<circle id="circle281-2" class="st26" cx="232.1" cy="345.5" r="11.6"/>
<circle id="circle281-3" class="st27" cx="232.1" cy="492.6" r="11.6"/>
<rect id="rect7" x="232.1" y="282.2" class="st25" width="174.8" height="9.1"/>
<rect id="rect9" x="232.1" y="341" class="st26" width="144" height="9.1"/>
<rect id="rect853" x="232.1" y="488" class="st28" width="113.2" height="9.1"/>
<g id="layer1">
	<rect id="rect815" x="283.7" y="0" class="st29" width="177" height="237.9"/>
	<rect id="rect821" x="325.5" y="199.2" class="st16" width="92.1" height="31.7"/>
	<path id="rect825" class="st30" d="M331.6,201H350c3.2,0,5.8,2.6,5.8,5.8V223c0,3.2-2.6,5.8-5.8,5.8h-18.5c-3.2,0-5.8-2.6-5.8-5.8
		v-16.2C325.7,203.6,328.3,201,331.6,201z"/>
	<path id="rect872" class="st30" d="M393.1,201h18.5c3.2,0,5.8,2.6,5.8,5.8V223c0,3.2-2.6,5.8-5.8,5.8h-18.5c-3.2,0-5.8-2.6-5.8-5.8
		v-16.2C387.2,203.6,389.9,201,393.1,201z"/>
	<path id="rect874" class="st30" d="M361.6,201h20c2.8,0,5.1,2.3,5.1,5.1v17.7c0,2.8-2.3,5.1-5.1,5.1h-20c-2.8,0-5.1-2.3-5.1-5.1
		V206C356.5,203.2,358.8,201,361.6,201z"/>
	<rect id="rect947" x="339.1" y="216.1" class="st31" width="3.3" height="58.1"/>
	<rect id="rect949" x="370" y="216.1" class="st31" width="3.3" height="58.1"/>
	<rect id="rect951" x="400.6" y="216.1" class="st31" width="3.3" height="58.1"/>
	<circle id="path1456" class="st32" cx="308.4" cy="87" r="16.1"/>
	<circle id="ellipse1458" class="st32" cx="434.1" cy="87" r="16.1"/>
	<circle id="path1460" class="st33" cx="308.4" cy="87" r="14.5"/>
	<circle id="ellipse1464" class="st33" cx="434.1" cy="87" r="14.5"/>
	<rect id="rect87" x="308.5" y="165.8" class="st29" width="126" height="31.7"/>
	<circle id="path91" class="st32" cx="325.3" cy="186.8" r="11.8"/>
	<circle id="circle93" class="st32" cx="417.3" cy="186.8" r="11.8"/>
	<path id="rect95" class="st32" d="M334.7,138.5h7.9c4.3,0,7.9,3.5,7.9,7.9V166c0,4.3-3.5,7.9-7.9,7.9h-7.9c-4.3,0-7.9-3.5-7.9-7.9
		v-19.6C326.9,142,330.4,138.5,334.7,138.5z"/>
	<path id="rect97" class="st32" d="M401.5,138.5h7.9c4.3,0,7.9,3.5,7.9,7.9V166c0,4.3-3.5,7.9-7.9,7.9h-7.9c-4.3,0-7.9-3.5-7.9-7.9
		v-19.6C393.7,142,397.2,138.5,401.5,138.5z"/>
	<circle id="circle99" class="st32" cx="348.5" cy="125.1" r="11.8"/>
	<circle id="circle101" class="st32" cx="395.6" cy="125.1" r="11.8"/>
	<circle id="ellipse103" class="st33" cx="322.2" cy="124.3" r="14.5"/>
	<circle id="ellipse105" class="st33" cx="422" cy="124.3" r="14.5"/>
	<path id="rect111" class="st32" d="M334.7,74.1h7.9c4.3,0,7.9,3.5,7.9,7.9v19.6c0,4.3-3.5,7.9-7.9,7.9h-7.9c-4.3,0-7.9-3.5-7.9-7.9
		V81.9C326.9,77.6,330.4,74.1,334.7,74.1z"/>
	<path id="rect113" class="st32" d="M401.5,74.1h7.9c4.3,0,7.9,3.5,7.9,7.9v19.6c0,4.3-3.5,7.9-7.9,7.9h-7.9c-4.3,0-7.9-3.5-7.9-7.9
		V81.9C393.7,77.6,397.2,74.1,401.5,74.1z"/>
	<circle id="circle119" class="st33" cx="325.3" cy="186.8" r="9.8"/>
	<circle id="circle121" class="st33" cx="417.3" cy="186.8" r="9.8"/>
	<circle id="circle129" class="st32" cx="323.7" cy="46.5" r="11.8"/>
	<circle id="circle131" class="st33" cx="323.7" cy="46.5" r="9.8"/>
	<circle id="circle133" class="st32" cx="420.4" cy="46.5" r="11.8"/>
	<circle id="circle135" class="st33" cx="420.4" cy="46.5" r="9.8"/>
	<path id="path31-1" class="st16" d="M334,19.6c1.1,0,1.2,0,1.4-0.2c0.1-0.1,0.3-0.2,0.4-0.3c0.1-0.2,0.1-0.3,0.1-2.6l0-2.4l2.3,0
		l2.3,0v3c0,3.3,0,3.6-0.4,4.4c-0.4,1.1-1.3,1.8-2.4,2c-0.7,0.1-1.4,0.1-2.1,0.1c-0.9,0-1.9,0-2.3-0.1l-0.6-0.1l0-1.9l0-1.9
		L334,19.6L334,19.6z M356.2,26.2c20,0,24.9,0,24,0.1l-0.1,0l0.1,0.1c0.1,0,0.1,0.1-0.1,0.1c-0.1,0-0.1,0,0.2,0.1l0.4,0l-0.4,0
		c-0.2,0-0.4,0-0.3,0c0.1,0,0.1,0.1,0.1,0.6c0,0.5,0,0.5,0.2,0.6c0.1,0,0.1,0-0.1,0c-0.1,0-0.3,0-0.3,0.1c0,0-7.9,0.1-23.6,0.1
		h-23.6v-1.7L356.2,26.2z M338.3,8h2.4v3.8h-4.7V8L338.3,8z M343,15.1c0.1-1,0.4-2,0.9-2.9c0.1-0.2,0.2-0.4,0.3-0.6
		c0.1-0.1,0.2-0.2,0.3-0.4c0.3-0.4,0.6-0.8,0.9-1.2c0,0,0.1-0.1,0.1-0.1c0.3-0.4,0.7-0.7,1-0.9c0.5-0.4,1.1-0.7,1.8-0.9
		c0.9-0.4,1.9-0.5,2.8-0.4c0.6,0,1.1,0.1,1.7,0.2c0.4,0.1,0.8,0.2,0.9,0.3c0.1,0.1,0.2,0.1,0.4,0.1c0.2,0.1,0.4,0.2,0.6,0.3
		c1.4,0.9,2.5,2.2,3.3,3.7c0.9,1.9,1,4,0.3,6c-0.2,0.6-0.5,1.2-0.9,1.8c-0.4,0.6-0.8,1.2-1.4,1.6c-0.9,1-2.1,1.7-3.4,2
		c-1,0.2-2,0.3-3,0.2c-1.2-0.2-2.2-0.7-3.2-1.4c-0.4-0.3-0.7-0.6-1-0.9c-0.1-0.1-0.2-0.2-0.3-0.4c-1-1.1-1.7-2.5-2-3.9
		C343,16.6,343,15.9,343,15.1L343,15.1z M347.5,17.1c0.2,0.9,0.7,1.7,1.4,2.3c0.8,0.7,1.8,0.9,2.8,0.6c1.2-0.5,2.2-1.6,2.5-2.9
		c0.2-0.9,0.2-1.8,0-2.6c-0.3-1-0.8-1.8-1.6-2.4c-0.3-0.2-0.6-0.3-0.9-0.4c-0.7-0.2-1.5-0.1-2.2,0.2c-0.6,0.4-1.2,1-1.5,1.7
		C347.4,14.6,347.2,15.9,347.5,17.1L347.5,17.1z M360.8,8c0,0,1.1,0,2.4,0l2.3,0l0,2.1c0,2,0,2.1,0.1,2.5c0.4,0.9,1.4,1.4,2.4,1.1
		c0.5-0.1,0.8-0.5,1.1-0.9l0.2-0.4l0-2.2l0-2.2h4.7l0,2.5c0.1,1,0,2-0.2,3c-0.2,0.9-0.7,1.7-1.2,2.4c-0.1,0.1-0.2,0.2-0.2,0.4
		c-0.3,0.4-0.7,0.7-1.1,1c-0.4,0.3-0.9,0.6-1.4,0.7c-0.1,0-0.4,0.1-0.7,0.2c-0.5,0.2-1.1,0.2-1.7,0.2c-0.6,0.1-1.2,0-1.8-0.2
		c-0.7-0.1-1.3-0.4-1.9-0.8c-0.7-0.5-1.3-1.1-1.8-1.8c-0.6-0.9-1-1.9-1.1-3C360.6,11.1,360.7,9.6,360.8,8L360.8,8z M367.3,19.7h3.9
		v4h-7.7v-4H367.3z M373.9,5c0,0,0.1-0.1,0.1-0.2c0-0.2,0-0.2,0.3-0.3c0.2,0,6.7,0,14.5,0l14.2,0l0,0.8l0,0.8h-14.5
		c-7.9,0-14.5,0-14.6,0c-0.1,0-0.1-0.1-0.1-0.6C373.9,5.2,373.9,5,373.9,5L373.9,5z M380.4,14.5h4.9v3.9h-9.8v-3.9L380.4,14.5z
		 M389.2,8h2.4v3.8h-4.7V8L389.2,8z M389.2,13.9h2.4v9.9h-4.7v-9.9L389.2,13.9z M398.6,8h4.9v3.8h-9.9V8L398.6,8z M394.5,14.2
		c0,0,1.1,0,2.3,0l2.3,0l0,2.3c0,3.2-0.1,3,2.3,3.1l1.5,0v4l-0.6,0.1c-1.4,0.1-2.9,0.1-4.3,0c-1-0.1-1.9-0.5-2.6-1.2
		c-0.6-0.7-0.9-1.6-1-2.5C394.4,19.1,394.4,14.2,394.5,14.2L394.5,14.2z M406.3,6.1c0.1-0.4,0.3-0.8,0.6-1c0.9-0.9,2.4-1,3.4-0.3
		c0.4,0.2,0.7,0.6,0.8,1c0.2,0.3,0.2,0.7,0.2,1c0,0.4,0,0.7-0.2,1.1c-0.4,0.8-1.2,1.4-2.1,1.4c-0.8,0.1-1.6-0.2-2.1-0.8
		C406.3,7.9,406.1,7,406.3,6.1L406.3,6.1z M406.8,7.8c0.3,0.6,0.9,1,1.6,1.2c0.7,0.2,1.5,0,2-0.5c0.2-0.2,0.4-0.4,0.5-0.6
		c0.2-0.3,0.2-0.6,0.2-1c0-0.3,0-0.7-0.2-1c-0.1-0.3-0.3-0.5-0.6-0.7c-0.2-0.2-0.5-0.3-0.7-0.4c-1.1-0.3-2.3,0.2-2.8,1.3
		C406.6,6.6,406.6,7.2,406.8,7.8L406.8,7.8z M408.5,5.3c0.3,0,0.7,0,1,0.1c0.4,0.3,0.5,0.8,0.3,1.2c-0.1,0.1-0.2,0.2-0.3,0.2
		l-0.2,0.1l0.2,0.2c0.2,0.2,0.3,0.4,0.4,0.6c0.1,0.1,0.2,0.3,0.3,0.4c0.1,0.1,0,0.2-0.2,0.2l-0.3,0l-0.4-0.6c-0.4-0.6-0.5-0.7-1-0.7
		h-0.3v1.3l-0.2,0l-0.2,0l0-1.5l0-1.5L408.5,5.3z M408.6,6.6c0.5,0,0.6,0,0.7-0.1c0.4-0.3,0.2-0.7-0.4-0.8c-0.3,0-0.6,0-0.9,0
		c0,0.1,0,0.3,0,0.4v0.4L408.6,6.6z"/>
	<rect id="rect84" x="326.9" y="78.6" class="st34" width="90.4" height="90.4"/>
	<circle id="path86" class="st35" cx="408.4" cy="87.4" r="4.9"/>
	<circle id="circle88" class="st35" cx="335.7" cy="87.4" r="4.9"/>
	<circle id="circle90" class="st35" cx="408.4" cy="160.1" r="4.9"/>
	<circle id="circle92" class="st35" cx="335.7" cy="160.1" r="4.9"/>
	<circle id="path94" class="st35" cx="372.1" cy="123.8" r="29.5"/>
	<g id="text84">
		<g class="st36">
			<path class="st16" d="M302,164.4c0.1,0,0.1,0,0.2,0s0.1,0.1,0.1,0.2c0,0.1,0.1,0.2,0.1,0.3c0,0.1,0,0.3,0,0.5c0,0.3,0,0.5,0,0.7
				s-0.1,0.3-0.1,0.4c-0.1,0.1-0.1,0.2-0.2,0.2l-7.9,5.8h7.9c0.1,0,0.1,0,0.2,0s0.1,0.1,0.1,0.2c0,0.1,0.1,0.2,0.1,0.3
				c0,0.1,0,0.3,0,0.5c0,0.2,0,0.4,0,0.5c0,0.1,0,0.2-0.1,0.3c0,0.1-0.1,0.1-0.1,0.2c-0.1,0-0.1,0-0.2,0h-15.1c-0.1,0-0.1,0-0.2,0
				c0,0-0.1-0.1-0.1-0.2c0-0.1-0.1-0.2-0.1-0.3s0-0.3,0-0.5c0-0.2,0-0.4,0-0.5c0-0.1,0-0.2,0.1-0.3c0-0.1,0.1-0.1,0.1-0.2
				s0.1,0,0.2,0h7l-7-5.6c-0.1,0-0.1-0.1-0.2-0.2c0-0.1-0.1-0.1-0.1-0.2c0-0.1,0-0.2-0.1-0.3c0-0.1,0-0.3,0-0.5c0-0.2,0-0.4,0-0.5
				s0-0.2,0.1-0.3s0.1-0.1,0.1-0.2c0,0,0.1,0,0.2,0c0.1,0,0.2,0,0.3,0.1c0.1,0.1,0.3,0.2,0.4,0.3l6.2,5.2l7.5-5.6
				c0.2-0.1,0.4-0.2,0.4-0.2S302,164.4,302,164.4z"/>
		</g>
		<g class="st36">
			<path class="st16" d="M296.3,156.7h5.8c0.1,0,0.1,0,0.2,0c0,0,0.1,0.1,0.1,0.2c0,0.1,0.1,0.2,0.1,0.3c0,0.1,0,0.3,0,0.5
				c0,0.2,0,0.4,0,0.5c0,0.1,0,0.2-0.1,0.3c0,0.1-0.1,0.1-0.1,0.2c0,0-0.1,0-0.2,0h-5.8l-8.9,4.5c-0.2,0.1-0.3,0.1-0.4,0.2
				c-0.1,0-0.2,0-0.2-0.1c-0.1-0.1-0.1-0.2-0.1-0.3c0-0.2,0-0.4,0-0.6c0-0.2,0-0.4,0-0.6s0-0.3,0.1-0.4c0-0.1,0.1-0.2,0.1-0.2
				c0.1,0,0.1-0.1,0.2-0.1l4.5-2.2c0.4-0.2,0.9-0.4,1.4-0.6s0.9-0.4,1.4-0.6v0c-0.5-0.2-0.9-0.4-1.4-0.6c-0.5-0.2-0.9-0.4-1.4-0.6
				l-4.6-2.2c-0.1,0-0.1-0.1-0.2-0.1c-0.1,0-0.1-0.1-0.1-0.2c0-0.1,0-0.2-0.1-0.3s0-0.3,0-0.5c0-0.3,0-0.5,0-0.7
				c0-0.2,0.1-0.3,0.1-0.3c0.1-0.1,0.1-0.1,0.2-0.1c0.1,0,0.2,0.1,0.4,0.2L296.3,156.7z"/>
		</g>
		<g class="st36">
			<path class="st16" d="M296.2,146.2c0.3,0,0.5,0,0.7,0.1c0.1,0.1,0.2,0.2,0.2,0.3v5.1c0,0.1-0.1,0.3-0.2,0.3
				c-0.1,0.1-0.3,0.1-0.7,0.1s-0.5,0-0.6-0.1s-0.2-0.2-0.2-0.3v-5.1c0-0.1,0-0.1,0-0.2s0.1-0.1,0.1-0.1c0.1,0,0.2-0.1,0.3-0.1
				C295.9,146.2,296.1,146.2,296.2,146.2z"/>
			<path class="st16" d="M294.5,133.6c1.2,0,2.3,0.1,3.3,0.3c1,0.2,1.9,0.5,2.6,1c0.7,0.4,1.3,1,1.7,1.7c0.4,0.7,0.6,1.6,0.6,2.6
				c0,1-0.2,1.8-0.5,2.5c-0.4,0.7-0.9,1.2-1.6,1.6c-0.7,0.4-1.5,0.7-2.5,0.9c-1,0.2-2.2,0.3-3.5,0.3c-1.2,0-2.3-0.1-3.3-0.3
				s-1.9-0.5-2.6-1c-0.7-0.4-1.3-1-1.7-1.7c-0.4-0.7-0.6-1.6-0.6-2.6c0-1,0.2-1.8,0.5-2.5c0.4-0.7,0.9-1.2,1.6-1.6s1.5-0.7,2.5-0.9
				C292,133.7,293.2,133.6,294.5,133.6z M294.6,135.8c-0.8,0-1.5,0-2.1,0.1c-0.6,0.1-1.2,0.1-1.7,0.2c-0.5,0.1-0.9,0.3-1.2,0.4
				c-0.3,0.2-0.6,0.4-0.9,0.6c-0.2,0.2-0.4,0.5-0.5,0.8s-0.2,0.7-0.2,1.1c0,0.7,0.2,1.3,0.5,1.7c0.3,0.4,0.8,0.8,1.3,1
				c0.6,0.2,1.2,0.4,2,0.5s1.6,0.1,2.5,0.1c1.2,0,2.2-0.1,3-0.2c0.8-0.1,1.5-0.3,2-0.6s0.9-0.6,1.1-1c0.2-0.4,0.4-0.9,0.4-1.5
				c0-0.5-0.1-0.9-0.2-1.2c-0.1-0.3-0.4-0.6-0.6-0.9c-0.3-0.2-0.6-0.5-1-0.6c-0.4-0.2-0.8-0.3-1.3-0.4s-1-0.2-1.5-0.2
				C295.8,135.8,295.2,135.8,294.6,135.8z"/>
			<path class="st16" d="M294.5,121c1.2,0,2.3,0.1,3.3,0.3c1,0.2,1.9,0.5,2.6,1c0.7,0.4,1.3,1,1.7,1.7c0.4,0.7,0.6,1.6,0.6,2.6
				c0,1-0.2,1.8-0.5,2.5c-0.4,0.7-0.9,1.2-1.6,1.6c-0.7,0.4-1.5,0.7-2.5,0.9s-2.2,0.3-3.5,0.3c-1.2,0-2.3-0.1-3.3-0.3
				c-1-0.2-1.9-0.5-2.6-1s-1.3-1-1.7-1.7c-0.4-0.7-0.6-1.6-0.6-2.6c0-1,0.2-1.8,0.5-2.5c0.4-0.7,0.9-1.2,1.6-1.6s1.5-0.7,2.5-0.9
				C292,121.1,293.2,121,294.5,121z M294.6,123.1c-0.8,0-1.5,0-2.1,0.1c-0.6,0.1-1.2,0.1-1.7,0.2c-0.5,0.1-0.9,0.3-1.2,0.4
				c-0.3,0.2-0.6,0.4-0.9,0.6c-0.2,0.2-0.4,0.5-0.5,0.8s-0.2,0.7-0.2,1.1c0,0.7,0.2,1.3,0.5,1.7c0.3,0.4,0.8,0.8,1.3,1
				c0.6,0.2,1.2,0.4,2,0.5s1.6,0.1,2.5,0.1c1.2,0,2.2-0.1,3-0.2c0.8-0.1,1.5-0.3,2-0.6c0.5-0.3,0.9-0.6,1.1-1
				c0.2-0.4,0.4-0.9,0.4-1.5c0-0.5-0.1-0.9-0.2-1.2c-0.1-0.3-0.4-0.6-0.6-0.9c-0.3-0.2-0.6-0.5-1-0.6c-0.4-0.2-0.8-0.3-1.3-0.4
				s-1-0.2-1.5-0.2C295.8,123.1,295.2,123.1,294.6,123.1z"/>
			<path class="st16" d="M297.9,108.2c0.3,0,0.5,0,0.6,0.1c0.2,0.1,0.2,0.2,0.2,0.3v1.8h3.3c0.1,0,0.1,0,0.2,0.1
				c0,0,0.1,0.1,0.1,0.2c0,0.1,0.1,0.2,0.1,0.3c0,0.1,0,0.3,0,0.5c0,0.2,0,0.4,0,0.5c0,0.1,0,0.2-0.1,0.3s-0.1,0.1-0.1,0.2
				c0,0-0.1,0-0.2,0h-3.3v6.4c0,0.1,0,0.2,0,0.2s-0.1,0.1-0.1,0.2c-0.1,0.1-0.2,0.1-0.3,0.1c-0.1,0-0.3,0-0.5,0c-0.2,0-0.3,0-0.4,0
				c-0.1,0-0.2,0-0.3,0c-0.1,0-0.2-0.1-0.3-0.1c-0.1,0-0.2-0.1-0.3-0.1l-9.6-5.6c-0.1,0-0.1-0.1-0.2-0.2c0-0.1-0.1-0.2-0.1-0.3
				s-0.1-0.3-0.1-0.5c0-0.2,0-0.4,0-0.6c0-0.3,0-0.5,0-0.7s0-0.4,0.1-0.5c0-0.1,0.1-0.2,0.1-0.3s0.1-0.1,0.2-0.1H297v-1.8
				c0-0.1,0.1-0.2,0.2-0.3C297.4,108.2,297.6,108.2,297.9,108.2z M288.4,112.5L288.4,112.5l8.6,5.1v-5.1H288.4z"/>
		</g>
	</g>
	<g id="text88">
		<g class="st36">
			<path class="st16" d="M318.9,218.3c0,0.7-0.1,1.4-0.4,2c-0.3,0.6-0.7,1.1-1.1,1.5c-0.5,0.4-1.1,0.7-1.7,0.9
				c-0.7,0.2-1.4,0.3-2.1,0.3c-0.5,0-1,0-1.5-0.1c-0.5-0.1-0.9-0.2-1.2-0.3c-0.4-0.1-0.6-0.3-0.9-0.4c-0.2-0.1-0.4-0.3-0.5-0.4
				c-0.1-0.1-0.2-0.2-0.2-0.4s-0.1-0.4-0.1-0.6c0-0.2,0-0.3,0-0.4c0-0.1,0-0.2,0.1-0.3s0.1-0.1,0.1-0.2s0.1,0,0.2,0
				c0.1,0,0.3,0.1,0.5,0.2c0.2,0.1,0.5,0.3,0.8,0.5c0.3,0.2,0.7,0.3,1.2,0.5c0.5,0.1,1,0.2,1.6,0.2c0.5,0,0.9-0.1,1.2-0.2
				c0.4-0.1,0.7-0.3,1-0.5c0.3-0.2,0.5-0.5,0.6-0.8c0.1-0.3,0.2-0.7,0.2-1.1c0-0.4-0.1-0.8-0.3-1.1c-0.2-0.3-0.5-0.6-0.8-0.8
				c-0.3-0.2-0.7-0.5-1.1-0.7c-0.4-0.2-0.9-0.4-1.3-0.6c-0.4-0.2-0.9-0.4-1.3-0.7c-0.4-0.3-0.8-0.5-1.1-0.9
				c-0.3-0.3-0.6-0.7-0.8-1.2c-0.2-0.5-0.3-1-0.3-1.7c0-0.7,0.1-1.2,0.4-1.8c0.2-0.5,0.6-0.9,1-1.3c0.4-0.3,0.9-0.6,1.5-0.8
				s1.2-0.3,1.9-0.3c0.3,0,0.7,0,1.1,0.1c0.4,0.1,0.7,0.1,1,0.2c0.3,0.1,0.6,0.2,0.8,0.3c0.2,0.1,0.4,0.2,0.5,0.3
				c0.1,0.1,0.1,0.1,0.2,0.2c0,0,0,0.1,0.1,0.2s0,0.2,0,0.2c0,0.1,0,0.2,0,0.4c0,0.1,0,0.3,0,0.4c0,0.1,0,0.2-0.1,0.3
				s-0.1,0.1-0.1,0.2s-0.1,0.1-0.2,0.1c-0.1,0-0.2-0.1-0.4-0.2c-0.2-0.1-0.4-0.2-0.7-0.4c-0.3-0.1-0.6-0.3-1-0.4
				c-0.4-0.1-0.8-0.2-1.3-0.2c-0.4,0-0.8,0.1-1.1,0.2s-0.6,0.3-0.8,0.5c-0.2,0.2-0.4,0.4-0.5,0.7s-0.2,0.6-0.2,0.9
				c0,0.4,0.1,0.8,0.3,1.1c0.2,0.3,0.5,0.6,0.8,0.8c0.3,0.2,0.7,0.5,1.2,0.7s0.9,0.4,1.3,0.6c0.4,0.2,0.9,0.4,1.3,0.7
				c0.4,0.2,0.8,0.5,1.2,0.9c0.3,0.3,0.6,0.7,0.8,1.2S318.9,217.7,318.9,218.3z"/>
		</g>
	</g>
	<g id="text96">
		<g class="st36">
			<path class="st16" d="M440.3,215.2c0,0.3-0.1,0.5-0.3,0.7c-0.2,0.1-0.5,0.2-0.9,0.2h-14c-0.4,0-0.7-0.1-0.9-0.2
				c-0.2-0.1-0.3-0.3-0.3-0.7s0.1-0.5,0.3-0.6c0.2-0.1,0.5-0.2,0.9-0.2h14c0.2,0,0.3,0,0.5,0s0.3,0.1,0.4,0.1
				c0.1,0.1,0.2,0.2,0.2,0.3S440.3,215.1,440.3,215.2z"/>
		</g>
	</g>
</g>
<circle id="circle281-4" class="st28" cx="340.8" cy="242.4" r="11.6"/>
<circle id="circle281-5" class="st26" cx="371.6" cy="242.4" r="11.6"/>
<circle id="circle281-6" class="st37" cx="402.4" cy="242.4" r="11.6"/>
<rect id="rect65" x="336.2" y="242.4" class="st28" width="9.1" height="254.7"/>
<rect id="rect67" x="367" y="242.4" class="st26" width="9.1" height="107.7"/>
<rect id="rect853-2" x="397.8" y="242.4" class="st37" width="9.1" height="48.9"/>
</svg>
