<?xml version="1.0" encoding="UTF-8"?>
<svg xmlns="http://www.w3.org/2000/svg" version="1.1" xmlns:inkscape="http://www.inkscape.org/namespaces/inkscape" xmlns:sodipodi="http://sodipodi.sourceforge.net/DTD/sodipodi-0.dtd" xmlns:svg="http://www.w3.org/2000/svg" viewBox="0 0 937.9 801.3">
  <defs>
    <style>
      .cls-1 {
        fill: #2c2c2c;
      }

      .cls-2, .cls-3 {
        fill: #fff;
      }

      .cls-4 {
        fill: #493930;
      }

      .cls-5 {
        fill: #be8839;
      }

      .cls-6 {
        fill: #dbded7;
      }

      .cls-7 {
        fill: #914f00;
      }

      .cls-8 {
        fill: #9a2442;
      }

      .cls-9 {
        fill: #303030;
      }

      .cls-10 {
        fill: #f53200;
      }

      .cls-11 {
        fill: #47494a;
      }

      .cls-12 {
        fill: #655a50;
      }

      .cls-13 {
        fill: #00b589;
      }

      .cls-14 {
        fill: #e30613;
      }

      .cls-15 {
        fill: #474949;
      }

      .cls-16, .cls-17, .cls-18, .cls-3, .cls-19, .cls-20 {
        isolation: isolate;
      }

      .cls-21 {
        fill: #fcf7fd;
      }

      .cls-22 {
        fill: #ada390;
      }

      .cls-23 {
        fill: #686868;
      }

      .cls-24 {
        fill: #e3ad51;
      }

      .cls-17 {
        fill: #b3b3b3;
      }

      .cls-17, .cls-18, .cls-3, .cls-19, .cls-20 {
        opacity: 1;
      }

      .cls-25 {
        fill: #ddd;
      }

      .cls-26 {
        fill: #1a1a1a;
      }

      .cls-27 {
        fill: #c4b3a8;
      }

      .cls-28 {
        fill: #a3928b;
      }

      .cls-29 {
        fill: #36323e;
      }

      .cls-18 {
        fill: gray;
      }

      .cls-30 {
        fill: #eaeaea;
      }

      .cls-31 {
        fill: #1a1919;
      }

      .cls-32 {
        fill: #e3b37d;
      }

      .cls-33 {
        fill: #010103;
      }

      .cls-19 {
        fill: #ccc;
      }

      .cls-34 {
        fill: #f5b93e;
      }

      .cls-35 {
        fill: #e0dcd3;
      }

      .cls-36 {
        fill: none;
        stroke: #493930;
        stroke-miterlimit: 10;
      }

      .cls-37 {
        fill: #bcb3ad;
      }
    </style>
  </defs>
  <!-- Generator: Adobe Illustrator 28.6.0, SVG Export Plug-In . SVG Version: 1.2.0 Build 709)  -->
  <g>
    <g id="svg8">
      <g>
        <path class="cls-31" d="M590,34.7H7.3C3.3,34.7,0,38,0,42v719c0,4,3.2,7.3,7.3,7.3h17.6l34.2,34.2h365.2s34.1-34.2,34.1-34.2h131.6c4,0,7.3-3.2,7.3-7.3V42c0-4-3.2-7.3-7.3-7.3ZM28.2,209.2c-10,0-18.1-8.1-18.1-18.1s8.1-18.1,18.1-18.1,18.1,8.1,18.1,18.1-8.1,18.1-18.1,18.1ZM88.1,791c-10,0-18.1-8.1-18.1-18.1s8.1-18.1,18.1-18.1,18.1,8.1,18.1,18.1-8.1,18.1-18.1,18.1ZM401.3,791c-10,0-18.1-8.1-18.1-18.1s8.1-18.1,18.1-18.1,18.1,8.1,18.1,18.1-8.1,18.1-18.1,18.1ZM569.5,220.6c-10,0-18.1-8.1-18.1-18.1s8.1-18.1,18.1-18.1,18.1,8.1,18.1,18.1-8.1,18.1-18.1,18.1Z"/>
        <rect class="cls-9" x="55.9" y="1.4" width="101.7" height="143.5"/>
        <path class="cls-9" d="M64.9,144.9h83.7v9.1c0,3.9-3.2,7.1-7.1,7.1h-69.4c-3.9,0-7.1-3.2-7.1-7.1v-9.1h0Z"/>
        <path class="cls-25" d="M571.4,73.4h-21.4v-4.6c0-.8-.6-1.4-1.4-1.4h-20.6c-.8,0-1.4.6-1.4,1.4v4.6h-21.4c-1,0-1.7.8-1.7,1.7v65.1c0,1,.8,1.7,1.7,1.7h66.3c1,0,1.7-.8,1.7-1.7v-65.1c0-1-.8-1.7-1.7-1.7Z"/>
        <circle class="cls-8" cx="538.3" cy="104.7" r="19.2"/>
        <g>
          <circle class="cls-25" cx="148.6" cy="253.4" r="35.2"/>
          <path class="cls-33" d="M129.6,228.9c-8.1,5.1-13.5,14.2-13.5,24.5s5.4,19.4,13.5,24.5v-49.1Z"/>
        </g>
        <g>
          <circle class="cls-25" cx="174.1" cy="352.4" r="35.2"/>
          <path class="cls-33" d="M166.8,322.2c-9.5,1.4-18.1,7.5-22.3,16.9s-2.9,19.9,2.4,27.9l19.9-44.9Z"/>
        </g>
        <rect class="cls-32" x="278.6" y="115.2" width="9.8" height="21.5"/>
        <rect class="cls-32" x="362.3" y="158.9" width="9.8" height="21.5"/>
        <rect class="cls-32" x="451.5" y="233" width="9.8" height="21.5" transform="translate(700.2 -212.7) rotate(90)"/>
        <rect class="cls-32" x="451.5" y="173.6" width="9.8" height="21.5" transform="translate(640.8 -272.1) rotate(90)"/>
        <rect class="cls-32" x="327.1" y="262" width="9.8" height="21.5"/>
        <rect class="cls-34" x="396.6" y="359.3" width="9.8" height="21.5"/>
        <rect class="cls-32" x="423.5" y="359.3" width="9.8" height="21.5"/>
        <rect class="cls-32" x="449.8" y="359.3" width="9.8" height="21.5"/>
        <rect class="cls-32" x="329.9" y="646.9" width="9.8" height="21.5" transform="translate(-322.8 992.5) rotate(-90)"/>
        <rect class="cls-34" x="387.3" y="665.2" width="9.8" height="21.5"/>
        <rect class="cls-15" x="302.6" y="158.9" width="31.5" height="14.6" rx="1.5" ry="1.5"/>
        <g>
          <path class="cls-35" d="M305.2,146.5h12.2v11.5h-12.2c-.7,0-1.2-.6-1.2-1.2v-9c0-.7.6-1.2,1.2-1.2Z" transform="translate(462.9 -158.5) rotate(90)"/>
          <path class="cls-35" d="M320.5,146.5h12.2v11.5h-12.2c-.7,0-1.2-.6-1.2-1.2v-9c0-.7.6-1.2,1.2-1.2Z" transform="translate(478.2 -173.7) rotate(90)"/>
        </g>
        <g>
          <rect class="cls-6" x="423.1" y="332.3" width="10.7" height="17.2"/>
          <rect class="cls-15" x="423.1" y="334.8" width="10.7" height="11.8"/>
        </g>
        <g>
          <rect class="cls-6" x="449.4" y="332.3" width="10.7" height="17.2"/>
          <rect class="cls-15" x="449.4" y="334.8" width="10.7" height="11.8"/>
        </g>
        <g>
          <rect class="cls-6" x="309.1" y="298.8" width="10.7" height="17.2" transform="translate(7 621.9) rotate(-90)"/>
          <rect class="cls-15" x="308.9" y="301.5" width="10.7" height="11.8" transform="translate(6.9 621.7) rotate(-90)"/>
        </g>
        <g>
          <rect class="cls-6" x="254" y="298.8" width="10.7" height="17.2" transform="translate(-48 566.8) rotate(-90)"/>
          <rect class="cls-15" x="253.9" y="301.5" width="10.7" height="11.8" transform="translate(-48.2 566.6) rotate(-90)"/>
        </g>
        <g>
          <rect class="cls-6" x="387.3" y="634.9" width="10.7" height="17.2"/>
          <rect class="cls-15" x="387.3" y="637.4" width="10.7" height="11.8"/>
        </g>
        <g>
          <rect class="cls-6" x="329.5" y="669" width="10.7" height="17.2" transform="translate(-342.8 1012.5) rotate(-90)"/>
          <rect class="cls-15" x="329.3" y="671.7" width="10.7" height="11.8" transform="translate(-343 1012.3) rotate(-90)"/>
        </g>
        <g>
          <rect class="cls-6" x="477.9" y="82.1" width="10.7" height="17.2"/>
          <rect class="cls-15" x="477.9" y="84.6" width="10.7" height="11.8"/>
        </g>
        <g>
          <rect class="cls-6" x="338.3" y="83.1" width="10.7" height="17.2"/>
          <rect class="cls-15" x="338.3" y="85.6" width="10.7" height="11.8"/>
        </g>
        <rect class="cls-28" x="441.8" y="196.3" width="12.2" height="32.8" rx="3.7" ry="3.7"/>
        <g>
          <rect class="cls-24" x="369.9" y="447.4" width="22.3" height="17.8" rx="2.9" ry="2.9" transform="translate(-211.1 403.1) rotate(-45)"/>
          <rect class="cls-27" x="370.8" y="448.1" width="20.5" height="16.4" rx="2.9" ry="2.9" transform="translate(-211.1 403.1) rotate(-45)"/>
        </g>
        <rect class="cls-37" x="374.8" y="423.3" width="12.2" height="11"/>
        <rect class="cls-37" x="394.4" y="423.3" width="12.2" height="11"/>
        <rect class="cls-37" x="374.8" y="476.2" width="12.2" height="11"/>
        <rect class="cls-37" x="394.4" y="476.2" width="12.2" height="11"/>
        <rect class="cls-10" x="326.2" y="699.6" width="20.8" height="11" rx="2.8" ry="2.8"/>
        <g>
          <path class="cls-2" d="M31.2,69.6v-4.5h2.1v7.1h-1.5c-2.9-2.4-4.8-2.7-8.9-2.8v-2.5c3.4.2,5.6.7,8.3,2.7Z"/>
          <path class="cls-2" d="M27.8,73.7v4h-1.7v-4h1.7Z"/>
          <path class="cls-2" d="M24.8,79.4v2.2h5.9v-1.9h1.5c.2,1.1.5,1.8.9,2.6v1.8h-8.4v1.9h-2v-6.6h2Z"/>
          <path class="cls-2" d="M24.4,87.4c2.3,2.7,4.2,4.4,5.6,4.4s1.5-.5,1.5-1.4-.5-1.3-1-1.8l1.3-1.3c1.1,1,1.7,1.9,1.7,3.4s-1.3,3.4-3.3,3.4-3.8-1.7-5.4-3.3c0,.5.1,1.2.1,1.7v2.1h-2.1v-7.2h1.5Z"/>
          <path class="cls-2" d="M33.3,95.2v2.6l-4.8,1.1c-1.1.3-2.2.5-3.3.8h0c1.1.4,2.2.6,3.3.9l4.8,1.2v2.5l-10.4-3.2v-3l10.4-3.1Z"/>
          <path class="cls-2" d="M33.3,108.7v2.5h-10.4v-2.5h10.4Z"/>
          <path class="cls-2" d="M33.3,113.6v2.6l-5,2.6c-.7.4-1.5.7-2.4,1h0c1.1,0,2.6-.3,3.8-.3h3.5v2.4h-10.4v-2.6l5-2.6c.7-.4,1.5-.7,2.4-1h0c-1.2,0-2.6.3-3.8.3h-3.5v-2.4h10.4Z"/>
          <path class="cls-2" d="M33.3,124.3v3.7c0,2.3-.8,4.2-3.4,4.2s-3.6-1.9-3.6-4.1v-1.2h-3.5v-2.5h10.4ZM28.3,127.9c0,1.2.6,1.8,1.6,1.8s1.4-.7,1.4-1.9v-1h-3v1.1Z"/>
          <path class="cls-2" d="M27.7,133.8h5.5v2.5h-5.8c-2,0-2.7.6-2.7,1.7s.7,1.8,2.7,1.8h5.8v2.4h-5.5c-3.5,0-5.1-1.4-5.1-4.2s1.6-4.2,5.1-4.2Z"/>
          <path class="cls-2" d="M31.2,146.6v-2.8h2.1v8.1h-2.1v-2.8h-8.3v-2.5h8.3Z"/>
        </g>
        <g>
          <path class="cls-2" d="M588.6,83.2v3.8c0,2.2-.8,4.1-3.3,4.1s-2.5-.7-3-1.8l-4.1,2.3v-2.8l3.7-1.9v-1.2h-3.7v-2.5h10.4ZM583.8,86.9c0,1.2.5,1.8,1.5,1.8s1.3-.6,1.3-1.8v-1.1h-2.8v1.1Z"/>
          <path class="cls-2" d="M588.6,93.1v6.6h-2.1v-4.1h-2v3.5h-2.1v-3.5h-2.2v4.3h-2.1v-6.8h10.4Z"/>
          <path class="cls-2" d="M579.5,101.3l1.6,1.3c-.6.7-1,1.7-1,2.6s.4,1.4.9,1.4.8-.6,1.2-1.5l.6-1.3c.4-1.1,1.3-2.1,2.8-2.1s3.2,1.6,3.2,3.8-.5,2.5-1.3,3.4l-1.6-1.3c.5-.7.8-1.4.8-2.1s-.3-1.3-.8-1.3-.8.7-1.2,1.6l-.5,1.3c-.5,1.3-1.4,2.1-2.8,2.1s-3.3-1.5-3.3-4,.5-2.8,1.5-3.9Z"/>
          <path class="cls-2" d="M588.6,110.8v6.6h-2.1v-4.1h-2v3.5h-2.1v-3.5h-2.2v4.3h-2.1v-6.8h10.4Z"/>
          <path class="cls-2" d="M586.5,121.7v-2.8h2.1v8.1h-2.1v-2.8h-8.3v-2.5h8.3Z"/>
        </g>
        <g>
          <path class="cls-2" d="M371.7,743.9v2.5h-10.4v-2.5h10.4Z"/>
          <path class="cls-2" d="M366.4,748.4c3.5,0,5.5,2.3,5.5,5s-.6,2.4-1.4,3.2l-1.5-1.3c.5-.5.7-1.1.7-1.8,0-1.4-1.2-2.5-3.2-2.5s-3.3,1-3.3,2.4.3,1.5.9,2l-1.5,1.3c-1-.9-1.5-2.1-1.5-3.4,0-2.7,1.8-4.9,5.3-4.9Z"/>
          <path class="cls-2" d="M362.6,757l1.6,1.3c-.6.7-1,1.7-1,2.6s.4,1.4.9,1.4.8-.6,1.2-1.5l.6-1.3c.4-1.1,1.3-2.1,2.8-2.1s3.2,1.6,3.2,3.8-.5,2.5-1.3,3.4l-1.6-1.3c.5-.7.8-1.4.8-2.1s-.3-1.3-.8-1.3-.8.7-1.2,1.6l-.5,1.3c-.5,1.3-1.4,2.1-2.8,2.1s-3.3-1.5-3.3-4,.5-2.8,1.5-3.9Z"/>
          <path class="cls-2" d="M371.7,766.6v3.7c0,2.3-.8,4.2-3.4,4.2s-3.6-1.9-3.6-4.1v-1.2h-3.5v-2.5h10.4ZM366.7,770.2c0,1.2.6,1.8,1.6,1.8s1.4-.7,1.4-1.9v-1h-3v1.1Z"/>
        </g>
        <path class="cls-2" d="M388.7,695.8c-1.2,1-2,2.5-2,4.2,0,3,2.5,5.5,5.5,5.5s5.5-2.5,5.5-5.5-.8-3.2-2-4.2c-.4-.4-.5-1-.1-1.4s1-.5,1.4-.1c1.6,1.4,2.7,3.5,2.7,5.8,0,4.1-3.4,7.5-7.5,7.5s-7.5-3.4-7.5-7.5,1.1-4.4,2.7-5.8c.4-.4,1.1-.3,1.4.1.4.4.3,1.1-.1,1.4h0ZM393.2,700.1c0,.6-.4,1-1,1s-1-.4-1-1v-7c0-.6.4-1,1-1s1,.4,1,1v7Z"/>
        <polyline class="cls-36" points="36 227.3 42.7 227.3 105.3 289.9 116.1 289.9"/>
        <polyline class="cls-36" points="35.8 235.4 42.7 235.4 102.8 295.5 102.8 427.2 159.6 483.9 212.3 483.9 224.5 471.5 263.5 471.5"/>
        <polyline class="cls-36" points="33.3 262.8 44.7 262.8 86.8 305 86.8 428 156.7 497.8 268.4 497.8"/>
        <polyline class="cls-36" points="22.9 348.4 61.9 387.3 61.9 451.3 33.2 480"/>
        <line class="cls-4" x1="76" y1="430.1" x2="151.9" y2="505.9"/>
        <polyline class="cls-36" points="131.3 497.4 88.6 540.1 24.5 540.1"/>
        <polyline class="cls-36" points="131.3 508 91.3 548.1 26 548.1"/>
        <polyline class="cls-36" points="267.3 506.5 234.8 506.5 159.2 582.1 78.7 582.1 56 604.8 31.2 604.8"/>
        <polyline class="cls-36" points="249.4 515.6 249.4 561.9 179.6 631.8 30.5 631.8"/>
        <polyline class="cls-36" points="264.8 535.5 264.8 571.8 176.2 660.3 31.2 660.3"/>
        <polyline class="cls-36" points="273.6 535.3 273.6 574.5 158.8 689.3 24.5 689.3"/>
        <polyline class="cls-36" points="282.5 536.2 282.5 581.8 147.4 717 30.5 717"/>
        <polyline class="cls-36" points="291 540.2 291 589.7 134.7 746 30.5 746"/>
        <line class="cls-4" x1="328.7" y1="625.2" x2="292.1" y2="588.6"/>
        <polyline class="cls-36" points="331.1 641.5 305.9 616.3 280.1 616.3"/>
        <polyline class="cls-36" points="344.4 649.2 344.4 590.5 299.7 545.8 299.7 526.4"/>
        <polyline class="cls-36" points="278.4 764.1 262.1 747.7 262.1 683 287.4 657.7"/>
        <polyline class="cls-36" points="308.2 534.8 308.2 545.7 361.7 599.2 401.5 599.2 506.8 704.6 506.8 733.7 518.6 745.4 563.7 745.4"/>
        <polyline class="cls-36" points="317 535.9 317 546.8 359.4 589.1 421.4 589.1 568.6 736.3"/>
        <polyline class="cls-36" points="327.1 535.5 367.9 576.2 433.5 576.2 573.9 716.7"/>
        <polyline class="cls-36" points="345.7 514.8 400.2 514.8 571.2 685.9"/>
        <polyline class="cls-36" points="347.1 506.5 407.2 506.5 573.5 672.8"/>
        <polyline class="cls-36" points="496 526.3 489.1 519.4 443 519.4"/>
        <polyline class="cls-36" points="347.1 462.9 358.2 462.9 367 471.7 377.7 471.7"/>
        <polyline class="cls-36" points="346.8 454 356.8 454 367.4 443.4 380.6 443.4"/>
        <polyline class="cls-36" points="325.4 430.4 341.8 414 411.7 414 566.8 569.1"/>
        <polyline class="cls-36" points="316.9 432.2 316.9 427.7 336.4 408.2 414.7 408.2 575 568.5"/>
        <polyline class="cls-36" points="308.2 432.2 308.2 423.8 328.5 403.5 418.4 403.5 574.8 559.9"/>
        <polyline class="cls-36" points="299.6 430.6 299.6 422.4 323.4 398.6 418.8 398.6 576.3 556.1"/>
        <polyline class="cls-36" points="291 430.1 291 418.2 316 393.3 420 393.3 580.5 553.7"/>
        <polyline class="cls-36" points="282.2 431.8 282.2 410 303.4 390 425 390 480.1 445 580.5 445"/>
        <polyline class="cls-36" points="273.5 429.9 273.5 406.6 297.2 384.7 426.8 384.7 458.1 416 579 416"/>
        <polyline class="cls-36" points="264.8 429.4 264.8 405.4 286.8 383.4 290.2 380.1"/>
        <polyline class="cls-36" points="221.2 447.5 221.2 418.4 289.5 350.1 315.4 350.1 322.4 357.1 372.2 357.1 399.6 329.7 426.7 329.7"/>
        <polyline class="cls-36" points="210.2 344.7 314.3 344.7 335.1 323.9 354.3 323.9"/>
        <polyline class="cls-36" points="286.6 274.1 286.6 284.8 277.6 293.8 260.2 293.8 247.6 281.2 247.6 271.9 247.6 246.9"/>
        <polyline class="cls-36" points="226.8 216.2 226.8 207.9 232.3 202.4 249.3 202.4"/>
        <polyline class="cls-36" points="191.1 193.8 237.4 193.8 257.9 173.3 257.9 151.4"/>
        <polyline class="cls-36" points="319.1 180.3 333 180.3 341.6 171.7 341.6 139.1 313.6 111.1 297.9 111.1 276 89.1"/>
        <polyline class="cls-36" points="285.9 85.6 299.7 99.5 311.2 99.5"/>
        <polyline class="cls-36" points="323.2 83.1 323.2 103.4 344.4 124.5 379.9 124.5 384.6 119.9 384.6 90.7"/>
        <path class="cls-36" d="M402.5,200.6v-48.4"/>
        <path class="cls-36" d="M418.1,152.2v22"/>
        <polyline class="cls-36" points="415.6 207.9 428 207.9 440 196"/>
        <polyline class="cls-36" points="415.5 221.6 428.4 221.6 440.5 233.7"/>
        <line class="cls-36" x1="416" y1="262.8" x2="439.6" y2="262.8"/>
        <line class="cls-36" x1="413.8" y1="276.9" x2="441.8" y2="276.9"/>
        <polyline class="cls-36" points="415.5 290.3 426.7 290.3 441.8 290.3"/>
        <line class="cls-36" x1="562.9" y1="153.1" x2="530.4" y2="185.6"/>
        <g>
          <rect class="cls-15" x="257.2" y="446.6" width="76" height="76" rx="5.9" ry="5.9"/>
          <circle class="cls-1" cx="322.3" cy="510.7" r="4.8"/>
          <g>
            <path class="cls-35" d="M240.3,451.3h16.9v5.9h-16.9c-.7,0-1.2-.6-1.2-1.2v-3.4c0-.7.6-1.2,1.2-1.2Z"/>
            <path class="cls-35" d="M240.3,460h16.9v5.9h-16.9c-.7,0-1.2-.6-1.2-1.2v-3.4c0-.7.6-1.2,1.2-1.2Z"/>
            <path class="cls-35" d="M240.3,468.7h16.9v5.9h-16.9c-.7,0-1.2-.6-1.2-1.2v-3.4c0-.7.6-1.2,1.2-1.2Z"/>
            <path class="cls-35" d="M240.3,477.3h16.9v5.9h-16.9c-.7,0-1.2-.6-1.2-1.2v-3.4c0-.7.6-1.2,1.2-1.2Z"/>
            <path class="cls-35" d="M240.3,486h16.9v5.9h-16.9c-.7,0-1.2-.6-1.2-1.2v-3.4c0-.7.6-1.2,1.2-1.2Z"/>
            <path class="cls-35" d="M240.3,494.7h16.9v5.9h-16.9c-.7,0-1.2-.6-1.2-1.2v-3.4c0-.7.6-1.2,1.2-1.2Z"/>
            <path class="cls-35" d="M240.3,503.4h16.9v5.9h-16.9c-.7,0-1.2-.6-1.2-1.2v-3.4c0-.7.6-1.2,1.2-1.2Z"/>
            <path class="cls-35" d="M240.3,512.1h16.9v5.9h-16.9c-.7,0-1.2-.6-1.2-1.2v-3.4c0-.7.6-1.2,1.2-1.2Z"/>
          </g>
          <g>
            <path class="cls-35" d="M317.8,434.6h16.9v5.9h-16.9c-.7,0-1.2-.6-1.2-1.2v-3.4c0-.7.6-1.2,1.2-1.2Z" transform="translate(763.2 112) rotate(90)"/>
            <path class="cls-35" d="M309.1,434.6h16.9v5.9h-16.9c-.7,0-1.2-.6-1.2-1.2v-3.4c0-.7.6-1.2,1.2-1.2Z" transform="translate(754.5 120.7) rotate(90)"/>
            <path class="cls-35" d="M300.4,434.6h16.9v5.9h-16.9c-.7,0-1.2-.6-1.2-1.2v-3.4c0-.7.6-1.2,1.2-1.2Z" transform="translate(745.8 129.3) rotate(90)"/>
            <path class="cls-35" d="M291.7,434.6h16.9v5.9h-16.9c-.7,0-1.2-.6-1.2-1.2v-3.4c0-.7.6-1.2,1.2-1.2Z" transform="translate(737.1 138) rotate(90)"/>
            <path class="cls-35" d="M283,434.6h16.9v5.9h-16.9c-.7,0-1.2-.6-1.2-1.2v-3.4c0-.7.6-1.2,1.2-1.2Z" transform="translate(728.4 146.7) rotate(90)"/>
            <path class="cls-35" d="M274.3,434.6h16.9v5.9h-16.9c-.7,0-1.2-.6-1.2-1.2v-3.4c0-.7.6-1.2,1.2-1.2Z" transform="translate(719.7 155.4) rotate(90)"/>
            <path class="cls-35" d="M265.6,434.6h16.9v5.9h-16.9c-.7,0-1.2-.6-1.2-1.2v-3.4c0-.7.6-1.2,1.2-1.2Z" transform="translate(711 164.1) rotate(90)"/>
            <path class="cls-35" d="M256.9,434.6h16.9v5.9h-16.9c-.7,0-1.2-.6-1.2-1.2v-3.4c0-.7.6-1.2,1.2-1.2Z" transform="translate(702.3 172.8) rotate(90)"/>
          </g>
          <g>
            <path class="cls-35" d="M256.9,528.7h16.9v5.9h-16.9c-.7,0-1.2-.6-1.2-1.2v-3.4c0-.7.6-1.2,1.2-1.2Z" transform="translate(-266.9 796.4) rotate(-90)"/>
            <path class="cls-35" d="M265.6,528.7h16.9v5.9h-16.9c-.7,0-1.2-.6-1.2-1.2v-3.4c0-.7.6-1.2,1.2-1.2Z" transform="translate(-258.2 805.1) rotate(-90)"/>
            <path class="cls-35" d="M274.3,528.7h16.9v5.9h-16.9c-.7,0-1.2-.6-1.2-1.2v-3.4c0-.7.6-1.2,1.2-1.2Z" transform="translate(-249.5 813.8) rotate(-90)"/>
            <path class="cls-35" d="M283,528.7h16.9v5.9h-16.9c-.7,0-1.2-.6-1.2-1.2v-3.4c0-.7.6-1.2,1.2-1.2Z" transform="translate(-240.8 822.5) rotate(-90)"/>
            <path class="cls-35" d="M291.7,528.7h16.9v5.9h-16.9c-.7,0-1.2-.6-1.2-1.2v-3.4c0-.7.6-1.2,1.2-1.2Z" transform="translate(-232.1 831.2) rotate(-90)"/>
            <path class="cls-35" d="M300.4,528.7h16.9v5.9h-16.9c-.7,0-1.2-.6-1.2-1.2v-3.4c0-.7.6-1.2,1.2-1.2Z" transform="translate(-223.4 839.9) rotate(-90)"/>
            <path class="cls-35" d="M309.1,528.7h16.9v5.9h-16.9c-.7,0-1.2-.6-1.2-1.2v-3.4c0-.7.6-1.2,1.2-1.2Z" transform="translate(-214.8 848.6) rotate(-90)"/>
            <path class="cls-35" d="M317.8,528.7h16.9v5.9h-16.9c-.7,0-1.2-.6-1.2-1.2v-3.4c0-.7.6-1.2,1.2-1.2Z" transform="translate(-206.1 857.3) rotate(-90)"/>
          </g>
          <g>
            <path class="cls-35" d="M334.4,511.8h16.9v5.9h-16.9c-.7,0-1.2-.6-1.2-1.2v-3.4c0-.7.6-1.2,1.2-1.2Z" transform="translate(684.5 1029.6) rotate(180)"/>
            <path class="cls-35" d="M334.4,503.2h16.9v5.9h-16.9c-.7,0-1.2-.6-1.2-1.2v-3.4c0-.7.6-1.2,1.2-1.2Z" transform="translate(684.5 1012.2) rotate(180)"/>
            <path class="cls-35" d="M334.4,494.5h16.9v5.9h-16.9c-.7,0-1.2-.6-1.2-1.2v-3.4c0-.7.6-1.2,1.2-1.2Z" transform="translate(684.5 994.8) rotate(180)"/>
            <path class="cls-35" d="M334.4,485.8h16.9v5.9h-16.9c-.7,0-1.2-.6-1.2-1.2v-3.4c0-.7.6-1.2,1.2-1.2Z" transform="translate(684.5 977.4) rotate(180)"/>
            <path class="cls-35" d="M334.4,477.1h16.9v5.9h-16.9c-.7,0-1.2-.6-1.2-1.2v-3.4c0-.7.6-1.2,1.2-1.2Z" transform="translate(684.5 960) rotate(180)"/>
            <path class="cls-35" d="M334.4,468.4h16.9v5.9h-16.9c-.7,0-1.2-.6-1.2-1.2v-3.4c0-.7.6-1.2,1.2-1.2Z" transform="translate(684.5 942.6) rotate(180)"/>
            <path class="cls-35" d="M334.4,459.7h16.9v5.9h-16.9c-.7,0-1.2-.6-1.2-1.2v-3.4c0-.7.6-1.2,1.2-1.2Z" transform="translate(684.5 925.2) rotate(180)"/>
            <path class="cls-35" d="M334.4,451h16.9v5.9h-16.9c-.7,0-1.2-.6-1.2-1.2v-3.4c0-.7.6-1.2,1.2-1.2Z" transform="translate(684.5 907.8) rotate(180)"/>
          </g>
        </g>
        <path class="cls-2" d="M247,609.8v7.2c0,1.3,0,2.5-.1,3.5,0,.8-.2,1.6-.4,2.4-.2.7-.5,1.3-.8,1.9-.5.7-1,1.4-1.6,2-.6.7-1.5,1.2-2.5,1.6-1.1.3-2.3.5-3.7.5h-6v-7.4h3.7c.5,0,.9,0,1.4-.2.3-.1.6-.3.9-.6.2-.3.4-.7.5-1.1.1-.6.2-1.2.2-1.7v-7.9h8.5ZM232.6,633.2h95v3.1h-95v-3.1ZM247,597.9v7.4h-8.5v-7.4h8.5ZM267.3,597.3c1.1,0,2.3,0,3.4.3,1,.2,2.1.5,3.1.9,1,.4,1.9.9,2.7,1.4.9.6,1.7,1.2,2.4,2,.7.7,1.4,1.6,1.9,2.4.6.9,1,1.8,1.4,2.7.4,1,.7,2,.8,3.1.2,1.1.3,2.3.3,3.4,0,1.1,0,2.2-.3,3.3-.2,1-.5,2-.8,3-.4.9-.8,1.9-1.4,2.7-.6.9-1.2,1.7-1.9,2.4-.7.7-1.5,1.4-2.4,2-.8.6-1.7,1-2.7,1.4-1,.4-2,.7-3,.9-1.1.2-2.2.3-3.3.3-1.1,0-2.3,0-3.4-.3-1-.2-2.1-.5-3.1-.8-1-.4-1.9-.8-2.7-1.4-1.7-1.1-3.2-2.6-4.4-4.4-.6-.9-1-1.8-1.4-2.7-.4-1-.7-2-.9-3-.4-2.2-.4-4.5,0-6.7.2-1,.5-2.1.9-3,.4-1,.8-1.9,1.4-2.7.6-.9,1.2-1.7,2-2.5.7-.8,1.5-1.4,2.4-2,.8-.6,1.7-1.1,2.7-1.4,1-.4,2-.7,3-.9,1.1-.2,2.2-.3,3.3-.3h0ZM267.3,604.4c-1,0-2,.2-3,.6-.9.4-1.6,1-2.2,1.8-.6.8-1.1,1.8-1.4,2.8-.3,1.1-.5,2.3-.5,3.7,0,1.3.1,2.5.5,3.8.3,1,.8,2,1.4,2.9.6.8,1.4,1.4,2.3,1.8.9.4,1.9.6,3,.6,1,0,2-.2,3-.6.9-.4,1.6-1,2.2-1.8.6-.9,1.1-1.8,1.4-2.8.3-1.1.5-2.4.5-3.8,0-1.2-.1-2.5-.5-3.7-.3-1-.8-2-1.4-2.8-.6-.8-1.4-1.4-2.3-1.8-.9-.4-1.9-.6-3-.6h0ZM286.7,597.9h8.5v7.7c0,1.6.3,2.8.9,3.6s1.6,1.2,2.8,1.2c1.3,0,2.3-.4,2.9-1.3s1-2.1,1-3.8v-7.4h8.4v5.4c0,1.3,0,2.5-.2,3.6,0,.9-.2,1.8-.5,2.7-.3.9-.6,1.7-1.1,2.5-.6,1-1.3,1.9-2,2.7-.4.5-.9.9-1.5,1.3-.6.4-1.2.7-1.9.9-.8.3-1.6.4-2.4.5-.9.1-1.9.2-2.8.2-.9,0-1.8,0-2.7-.2-.8-.1-1.5-.3-2.3-.5-.7-.2-1.3-.5-1.9-.9-.5-.3-1-.7-1.5-1.2-.8-.8-1.5-1.7-2.1-2.6-.5-.7-.9-1.5-1.2-2.4-.3-.9-.4-1.8-.5-2.7-.1-1.1-.2-2.3-.2-3.4v-6.1ZM306,621.5v7.4h-14.2v-7.4h14.2ZM310,591.1h56.8v2.9h-56.8v-2.9ZM313.7,611.4h18.3v7.3h-18.3v-7.3ZM343.7,597.9v7.4h-8.5v-7.4h8.5ZM343.7,609.8v19.1h-8.5v-19.1h8.5ZM368.2,597.9v7.4h-19.9v-7.4h19.9ZM349.7,609.8h8.4v7.7c0,.7,0,1.3.2,2,.1.5.3.9.5,1.2.2.2.6.4,1.1.6.6.1,1.2.2,1.8.2h5.5v7.4h-7.9c-.8,0-1.6,0-2.3-.2-.7,0-1.4-.3-2-.5-.6-.2-1.1-.5-1.7-.8-.5-.3-.9-.7-1.3-1.1-.4-.4-.7-.9-1-1.5-.3-.6-.5-1.2-.7-1.9-.2-.8-.3-1.5-.4-2.3,0-.9-.1-1.8-.1-2.7v-8.1Z"/>
        <rect class="cls-32" x="208.9" y="438.4" width="9.8" height="21.5" transform="translate(-235.3 662.9) rotate(-90)"/>
        <rect class="cls-32" x="349.4" y="322.1" width="9.8" height="21.5"/>
        <g>
          <rect class="cls-15" x="268" y="225.5" width="50.5" height="39.3" rx="2.5" ry="2.5"/>
          <circle class="cls-1" cx="272.2" cy="256.8" r="2.7"/>
          <g>
            <path class="cls-35" d="M267.8,268.5h12.2v6.1h-12.2c-.7,0-1.2-.6-1.2-1.2v-3.6c0-.7.6-1.2,1.2-1.2Z" transform="translate(1.8 544.8) rotate(-90)"/>
            <path class="cls-35" d="M281.1,268.5h12.2v6.1h-12.2c-.7,0-1.2-.6-1.2-1.2v-3.6c0-.7.6-1.2,1.2-1.2Z" transform="translate(15.1 558.1) rotate(-90)"/>
            <path class="cls-35" d="M294.4,268.5h12.2v6.1h-12.2c-.7,0-1.2-.6-1.2-1.2v-3.6c0-.7.6-1.2,1.2-1.2Z" transform="translate(28.4 571.4) rotate(-90)"/>
            <path class="cls-35" d="M307.7,268.5h12.2v6.1h-12.2c-.7,0-1.2-.6-1.2-1.2v-3.6c0-.7.6-1.2,1.2-1.2Z" transform="translate(41.7 584.7) rotate(-90)"/>
          </g>
          <g>
            <path class="cls-35" d="M307.7,215.8h12.2v6.1h-12.2c-.7,0-1.2-.6-1.2-1.2v-3.6c0-.7.6-1.2,1.2-1.2Z" transform="translate(532 -94.4) rotate(90)"/>
            <path class="cls-35" d="M294.4,215.8h12.2v6.1h-12.2c-.7,0-1.2-.6-1.2-1.2v-3.6c0-.7.6-1.2,1.2-1.2Z" transform="translate(518.7 -81.1) rotate(90)"/>
            <path class="cls-35" d="M281.1,215.8h12.2v6.1h-12.2c-.7,0-1.2-.6-1.2-1.2v-3.6c0-.7.6-1.2,1.2-1.2Z" transform="translate(505.4 -67.8) rotate(90)"/>
            <path class="cls-35" d="M267.8,215.8h12.2v6.1h-12.2c-.7,0-1.2-.6-1.2-1.2v-3.6c0-.7.6-1.2,1.2-1.2Z" transform="translate(492.1 -54.5) rotate(90)"/>
          </g>
        </g>
        <g>
          <g>
            <path class="cls-35" d="M222.1,243h12.2v9.6h-12.2c-.7,0-1.2-.6-1.2-1.2v-7.1c0-.7.6-1.2,1.2-1.2Z" transform="translate(-20.3 475.4) rotate(-90)"/>
            <path class="cls-35" d="M241.7,243h12.2v9.6h-12.2c-.7,0-1.2-.6-1.2-1.2v-7.1c0-.7.6-1.2,1.2-1.2Z" transform="translate(-.7 495) rotate(-90)"/>
          </g>
          <g>
            <path class="cls-35" d="M221.4,215h12.2v6.1h-12.2c-.7,0-1.2-.6-1.2-1.2v-3.6c0-.7.6-1.2,1.2-1.2Z" transform="translate(444.9 -8.8) rotate(90)"/>
            <path class="cls-35" d="M231.9,215h12.2v6.1h-12.2c-.7,0-1.2-.6-1.2-1.2v-3.6c0-.7.6-1.2,1.2-1.2Z" transform="translate(455.4 -19.3) rotate(90)"/>
            <path class="cls-35" d="M242.4,215h12.2v6.1h-12.2c-.7,0-1.2-.6-1.2-1.2v-3.6c0-.7.6-1.2,1.2-1.2Z" transform="translate(465.9 -29.8) rotate(90)"/>
          </g>
          <rect class="cls-15" x="222.2" y="224.8" width="30.4" height="16.3" rx=".7" ry=".7"/>
        </g>
        <rect class="cls-32" x="233.6" y="261.2" width="9.8" height="21.5" transform="translate(-33.4 510.5) rotate(-90)"/>
        <g>
          <rect class="cls-15" x="365.5" y="202.4" width="34.4" height="107"/>
          <g>
            <path class="cls-35" d="M348.6,205h16.9v5.9h-16.9c-.7,0-1.2-.6-1.2-1.2v-3.4c0-.7.6-1.2,1.2-1.2Z"/>
            <path class="cls-35" d="M348.6,218.7h16.9v5.9h-16.9c-.7,0-1.2-.6-1.2-1.2v-3.4c0-.7.6-1.2,1.2-1.2Z"/>
            <path class="cls-35" d="M348.6,232.4h16.9v5.9h-16.9c-.7,0-1.2-.6-1.2-1.2v-3.4c0-.7.6-1.2,1.2-1.2Z"/>
            <path class="cls-35" d="M348.6,246.1h16.9v5.9h-16.9c-.7,0-1.2-.6-1.2-1.2v-3.4c0-.7.6-1.2,1.2-1.2Z"/>
            <path class="cls-35" d="M348.6,259.9h16.9v5.9h-16.9c-.7,0-1.2-.6-1.2-1.2v-3.4c0-.7.6-1.2,1.2-1.2Z"/>
            <path class="cls-35" d="M348.6,273.6h16.9v5.9h-16.9c-.7,0-1.2-.6-1.2-1.2v-3.4c0-.7.6-1.2,1.2-1.2Z"/>
            <path class="cls-35" d="M348.6,287.3h16.9v5.9h-16.9c-.7,0-1.2-.6-1.2-1.2v-3.4c0-.7.6-1.2,1.2-1.2Z"/>
            <path class="cls-35" d="M348.6,301h16.9v5.9h-16.9c-.7,0-1.2-.6-1.2-1.2v-3.4c0-.7.6-1.2,1.2-1.2Z"/>
          </g>
          <g>
            <path class="cls-35" d="M401.1,301h16.9v5.9h-16.9c-.7,0-1.2-.6-1.2-1.2v-3.4c0-.7.6-1.2,1.2-1.2Z" transform="translate(817.8 608) rotate(180)"/>
            <path class="cls-35" d="M401.1,287.3h16.9v5.9h-16.9c-.7,0-1.2-.6-1.2-1.2v-3.4c0-.7.6-1.2,1.2-1.2Z" transform="translate(817.8 580.5) rotate(180)"/>
            <path class="cls-35" d="M401.1,273.6h16.9v5.9h-16.9c-.7,0-1.2-.6-1.2-1.2v-3.4c0-.7.6-1.2,1.2-1.2Z" transform="translate(817.8 553.1) rotate(180)"/>
            <path class="cls-35" d="M401.1,259.9h16.9v5.9h-16.9c-.7,0-1.2-.6-1.2-1.2v-3.4c0-.7.6-1.2,1.2-1.2Z" transform="translate(817.8 525.6) rotate(180)"/>
            <path class="cls-35" d="M401.1,246.1h16.9v5.9h-16.9c-.7,0-1.2-.6-1.2-1.2v-3.4c0-.7.6-1.2,1.2-1.2Z" transform="translate(817.8 498.2) rotate(180)"/>
            <path class="cls-35" d="M401.1,232.4h16.9v5.9h-16.9c-.7,0-1.2-.6-1.2-1.2v-3.4c0-.7.6-1.2,1.2-1.2Z" transform="translate(817.8 470.7) rotate(180)"/>
            <path class="cls-35" d="M401.1,218.7h16.9v5.9h-16.9c-.7,0-1.2-.6-1.2-1.2v-3.4c0-.7.6-1.2,1.2-1.2Z" transform="translate(817.8 443.3) rotate(180)"/>
            <path class="cls-35" d="M401.1,205h16.9v5.9h-16.9c-.7,0-1.2-.6-1.2-1.2v-3.4c0-.7.6-1.2,1.2-1.2Z" transform="translate(817.8 415.8) rotate(180)"/>
          </g>
          <circle class="cls-1" cx="391.8" cy="299.6" r="4.9"/>
        </g>
        <rect class="cls-32" x="444.5" y="249.1" width="9.8" height="21.5" transform="translate(709.2 -189.5) rotate(90)"/>
        <g>
          <rect class="cls-6" x="444" y="268.4" width="10.7" height="17.2" transform="translate(726.4 -172.3) rotate(90)"/>
          <rect class="cls-15" x="444.2" y="271.1" width="10.7" height="11.8" transform="translate(726.6 -172.5) rotate(90)"/>
        </g>
        <g>
          <rect class="cls-6" x="444" y="286" width="10.7" height="17.2" transform="translate(744 -154.7) rotate(90)"/>
          <rect class="cls-15" x="444.2" y="288.7" width="10.7" height="11.8" transform="translate(744.2 -154.9) rotate(90)"/>
        </g>
        <g>
          <rect class="cls-6" x="397.2" y="137.2" width="10.7" height="17.2"/>
          <rect class="cls-15" x="397.2" y="139.8" width="10.7" height="11.8"/>
        </g>
        <g>
          <rect class="cls-6" x="412.7" y="137.1" width="10.7" height="17.2"/>
          <rect class="cls-15" x="412.7" y="139.6" width="10.7" height="11.8"/>
        </g>
        <path class="cls-35" d="M312,174.6h12.2v11.5h-12.2c-.7,0-1.2-.6-1.2-1.2v-9c0-.7.6-1.2,1.2-1.2Z" transform="translate(137.2 497.8) rotate(-90)"/>
        <g>
          <rect class="cls-5" x="274.7" y="55.3" width="51.5" height="35.1"/>
          <rect class="cls-12" x="287" y="55.3" width="26.7" height="35.1"/>
        </g>
        <g>
          <path class="cls-25" d="M370,21.2h0s87.6,0,87.6,0h0c2.7,1.4,4.4,4.2,4.4,7.3v70.1c0,1-.8,1.8-1.8,1.8h-92.8c-1,0-1.8-.8-1.8-1.8V28.5c0-3,1.7-5.8,4.4-7.3Z"/>
          <g>
            <path class="cls-23" d="M444.7,94.5h0c0-1.3-1.1-2.4-2.4-2.4h-9.9c-.8,0-1.5-.7-1.5-1.5v-2.1c0-.8.7-1.5,1.5-1.5h9.9c1.3,0,2.4-1.1,2.4-2.4h0c0-1.3-1.1-2.4-2.4-2.4h-14c-1.3,0-2.4,1.1-2.4,2.4v10c0,1.3,1.1,2.4,2.4,2.4h14c1.3,0,2.4-1.1,2.4-2.4Z"/>
            <path class="cls-23" d="M382.9,84.5h0c0,1.3,1.1,2.4,2.4,2.4h9.9c.8,0,1.5.7,1.5,1.5v2.1c0,.8-.7,1.5-1.5,1.5h-9.9c-1.3,0-2.4,1.1-2.4,2.4h0c0,1.3,1.1,2.4,2.4,2.4h14c1.3,0,2.4-1.1,2.4-2.4v-10c0-1.3-1.1-2.4-2.4-2.4h-14c-1.3,0-2.4,1.1-2.4,2.4Z"/>
          </g>
        </g>
        <g>
          <rect class="cls-15" x="198.1" y="102.1" width="69.5" height="37" rx="1.2" ry="1.2"/>
          <g>
            <path class="cls-35" d="M199.6,145.2h16.9v5.9h-16.9c-.7,0-1.2-.6-1.2-1.2v-3.4c0-.7.6-1.2,1.2-1.2Z" transform="translate(59.3 355.6) rotate(-90)"/>
            <path class="cls-35" d="M225,145.2h16.9v5.9h-16.9c-.7,0-1.2-.6-1.2-1.2v-3.4c0-.7.6-1.2,1.2-1.2Z" transform="translate(84.7 381) rotate(-90)"/>
            <path class="cls-35" d="M250.4,145.2h16.9v5.9h-16.9c-.7,0-1.2-.6-1.2-1.2v-3.4c0-.7.6-1.2,1.2-1.2Z" transform="translate(110 406.4) rotate(-90)"/>
          </g>
          <path class="cls-35" d="M219.1,71.6h25.6v34.3h-25.6c-.7,0-1.2-.6-1.2-1.2v-31.8c0-.7.6-1.2,1.2-1.2Z" transform="translate(320 -142.5) rotate(90)"/>
        </g>
        <rect class="cls-15" x="150.3" y="180.3" width="48.4" height="27.1"/>
        <g>
          <rect class="cls-25" x="16" y="223.5" width="20" height="20"/>
          <circle class="cls-22" cx="26" cy="233.5" r="7.4"/>
          <rect class="cls-25" x="16" y="252.1" width="20" height="20"/>
          <circle class="cls-22" cx="26" cy="262.1" r="7.4"/>
          <rect class="cls-25" x="16" y="280.8" width="20" height="20"/>
          <circle class="cls-22" cx="26" cy="290.8" r="7.4"/>
          <rect class="cls-25" x="16" y="309.4" width="20" height="20"/>
          <circle class="cls-22" cx="26" cy="319.5" r="7.4"/>
        </g>
        <g>
          <rect class="cls-11" x="9.3" y="335.9" width="33.4" height="240.9"/>
          <rect x="16.1" y="338.5" width="19.6" height="19.6"/>
          <rect x="16.1" y="369.1" width="19.6" height="19.6"/>
          <rect x="16.1" y="399.6" width="19.6" height="19.6"/>
          <rect x="16.1" y="430.1" width="19.6" height="19.6"/>
          <rect x="16.1" y="460.6" width="19.6" height="19.6"/>
          <rect x="16.1" y="491.1" width="19.6" height="19.6"/>
          <rect x="16.1" y="521.6" width="19.6" height="19.6"/>
          <rect x="16.1" y="552.1" width="19.6" height="19.6"/>
        </g>
        <g>
          <rect class="cls-11" x="9.3" y="582.4" width="33.4" height="178.8"/>
          <g>
            <rect x="16.1" y="585.7" width="19.6" height="19.6"/>
            <rect x="16.1" y="616.2" width="19.6" height="19.6"/>
            <rect x="16.1" y="646.7" width="19.6" height="19.6"/>
            <rect x="16.1" y="677.2" width="19.6" height="19.6"/>
            <rect x="16.1" y="707.7" width="19.6" height="19.6"/>
            <rect x="16.1" y="738.3" width="19.6" height="19.6"/>
          </g>
        </g>
        <g>
          <path class="cls-2" d="M50.3,374h2.5v10.4h-2.5v-10.4Z"/>
          <path class="cls-2" d="M54.7,379.2c0-3.4,1.9-5.4,4.8-5.4s4.8,2,4.8,5.4-1.9,5.4-4.8,5.4-4.8-2-4.8-5.4ZM61.7,379.2c0-2-.8-3.2-2.2-3.2s-2.2,1.2-2.2,3.2.9,3.3,2.2,3.3,2.2-1.3,2.2-3.3Z"/>
          <path class="cls-2" d="M66.2,374h3.8c2.2,0,4.1.8,4.1,3.3s-.7,2.5-1.8,3l2.3,4.1h-2.8l-1.9-3.7h-1.2v3.7h-2.5v-10.4ZM69.8,378.8c1.2,0,1.8-.5,1.8-1.5s-.6-1.3-1.8-1.3h-1.1v2.8h1.1Z"/>
          <path class="cls-2" d="M76.1,374h6.6v2.1h-4.1v2h3.5v2.1h-3.5v2.2h4.3v2.1h-6.8v-10.4Z"/>
          <path class="cls-2" d="M84.9,374h6.7v2.1h-4.2v2.3h3.6v2.1h-3.6v4h-2.5v-10.4Z"/>
        </g>
        <g>
          <path class="cls-2" d="M51.5,404.6h3.8c2.2,0,4.1.8,4.1,3.3s-.7,2.5-1.8,3l2.3,4.1h-2.8l-1.9-3.7h-1.2v3.7h-2.5v-10.4ZM55.2,409.3c1.2,0,1.8-.5,1.8-1.5s-.6-1.3-1.8-1.3h-1.1v2.8h1.1Z"/>
          <path class="cls-2" d="M61.4,404.6h6.6v2.1h-4.1v2h3.5v2.1h-3.5v2.2h4.3v2.1h-6.8v-10.4Z"/>
          <path class="cls-2" d="M69.6,413.6l1.3-1.6c.7.6,1.7,1,2.6,1s1.4-.4,1.4-.9-.6-.8-1.5-1.2l-1.3-.6c-1.1-.4-2.1-1.3-2.1-2.8s1.6-3.2,3.8-3.2,2.5.5,3.4,1.3l-1.3,1.6c-.7-.5-1.4-.8-2.1-.8s-1.3.3-1.3.8.7.8,1.6,1.2l1.3.5c1.3.5,2.1,1.4,2.1,2.8s-1.5,3.3-4,3.3-2.8-.5-3.9-1.5Z"/>
          <path class="cls-2" d="M79.1,404.6h6.6v2.1h-4.1v2h3.5v2.1h-3.5v2.2h4.3v2.1h-6.8v-10.4Z"/>
          <path class="cls-2" d="M90,406.6h-2.8v-2.1h8.1v2.1h-2.8v8.3h-2.5v-8.3Z"/>
        </g>
        <g>
          <path class="cls-2" d="M51.9,444.2l1.1-1.6c.6.6,1.4,1,2.2,1s1.6-.4,1.6-1.2-.5-1.4-2.7-1.4v-1.8c1.8,0,2.3-.5,2.3-1.4s-.4-1.1-1.2-1.1-1.2.3-1.9.9l-1.2-1.5c.9-.8,2-1.3,3.2-1.3,2.2,0,3.6,1,3.6,2.9s-.6,1.8-1.7,2.3h0c1.2.4,2,1.2,2,2.6,0,2-1.8,3-3.8,3s-2.8-.6-3.6-1.4Z"/>
          <path class="cls-2" d="M61,444.1c0-.9.6-1.5,1.5-1.5s1.5.7,1.5,1.5-.6,1.5-1.5,1.5-1.5-.7-1.5-1.5Z"/>
          <path class="cls-2" d="M65.3,444.2l1.1-1.6c.6.6,1.4,1,2.2,1s1.6-.4,1.6-1.2-.5-1.4-2.7-1.4v-1.8c1.8,0,2.3-.5,2.3-1.4s-.4-1.1-1.2-1.1-1.2.3-1.9.9l-1.2-1.5c.9-.8,2-1.3,3.2-1.3,2.2,0,3.6,1,3.6,2.9s-.6,1.8-1.7,2.3h0c1.2.4,2,1.2,2,2.6,0,2-1.8,3-3.8,3s-2.8-.6-3.6-1.4Z"/>
          <path class="cls-2" d="M73.4,435.1h2.6l1.1,4.8c.3,1.1.5,2.2.8,3.3h0c.3-1.1.5-2.2.8-3.3l1.2-4.8h2.5l-3.2,10.4h-3l-3.1-10.4Z"/>
        </g>
        <g>
          <path class="cls-2" d="M53.1,474.8l1.1-1.6c.6.6,1.3,1,2.1,1s1.6-.6,1.6-1.6-.6-1.6-1.5-1.6-.9.1-1.5.5l-1.1-.7.3-5.2h5.8v2.1h-3.7v1.8c.2-.1.5-.2.9-.2,1.8,0,3.2,1,3.2,3.3s-1.8,3.7-3.8,3.7-2.8-.6-3.6-1.4Z"/>
          <path class="cls-2" d="M61.2,465.6h2.6l1.1,4.8c.3,1.1.5,2.2.8,3.3h0c.3-1.1.5-2.2.8-3.3l1.2-4.8h2.5l-3.2,10.4h-3l-3.1-10.4Z"/>
        </g>
        <g>
          <path class="cls-2" d="M54.7,501.4c0-3.5,2.3-5.5,5.1-5.5s2.6.6,3.3,1.4l-1.3,1.5c-.5-.5-1.1-.7-1.9-.7-1.5,0-2.7,1.2-2.7,3.2s.9,3.3,2.9,3.3.8,0,1-.3v-1.7h-1.7v-2h3.9v4.9c-.7.7-2,1.3-3.5,1.3-2.9,0-5.2-1.8-5.2-5.3Z"/>
          <path class="cls-2" d="M65.5,496.1h2.6l2.6,5c.4.7.7,1.5,1,2.4h0c-.1-1.1-.3-2.6-.3-3.8v-3.5h2.4v10.4h-2.6l-2.6-5c-.4-.7-.7-1.5-1-2.4h0c.1,1.2.3,2.6.3,3.8v3.5h-2.4v-10.4Z"/>
          <path class="cls-2" d="M76.1,496.1h3c3.2,0,5.3,1.6,5.3,5.2s-2.1,5.2-5.1,5.2h-3.1v-10.4ZM79,504.5c1.7,0,2.9-.8,2.9-3.2s-1.2-3.2-2.9-3.2h-.4v6.4h.4Z"/>
        </g>
        <g>
          <path class="cls-2" d="M56,531.9c0-3.5,2.3-5.5,5.1-5.5s2.6.6,3.3,1.4l-1.3,1.5c-.5-.5-1.1-.7-1.9-.7-1.5,0-2.7,1.2-2.7,3.2s.9,3.3,2.9,3.3.8,0,1-.3v-1.7h-1.7v-2h3.9v4.9c-.7.7-2,1.3-3.5,1.3-2.9,0-5.2-1.8-5.2-5.3Z"/>
          <path class="cls-2" d="M66.7,526.6h2.6l2.6,5c.4.7.7,1.5,1,2.4h0c-.1-1.1-.3-2.6-.3-3.8v-3.5h2.4v10.4h-2.6l-2.6-5c-.4-.7-.7-1.5-1-2.4h0c.1,1.2.3,2.6.3,3.8v3.5h-2.4v-10.4Z"/>
          <path class="cls-2" d="M77.4,526.6h3c3.2,0,5.3,1.6,5.3,5.2s-2.1,5.2-5.1,5.2h-3.1v-10.4ZM80.2,535c1.7,0,2.9-.8,2.9-3.2s-1.2-3.2-2.9-3.2h-.4v6.4h.4Z"/>
        </g>
        <g>
          <path class="cls-2" d="M56.4,557.1h2.6l1.1,4.8c.3,1.1.5,2.2.8,3.3h0c.3-1.1.5-2.2.8-3.3l1.2-4.8h2.5l-3.2,10.4h-3l-3.1-10.4Z"/>
          <path class="cls-2" d="M66.7,557.1h2.5v10.4h-2.5v-10.4Z"/>
          <path class="cls-2" d="M71.6,557.1h2.6l2.6,5c.4.7.7,1.5,1,2.4h0c-.1-1.1-.3-2.6-.3-3.8v-3.5h2.4v10.4h-2.6l-2.6-5c-.4-.7-.7-1.5-1-2.4h0c.1,1.2.3,2.6.3,3.8v3.5h-2.4v-10.4Z"/>
        </g>
        <g>
          <path class="cls-2" d="M60.8,590.7h3l3.2,10.4h-2.6l-.6-2.4h-3.1l-.6,2.4h-2.5l3.2-10.4ZM61.2,596.8h2.1l-.2-.9c-.3-1-.5-2.3-.8-3.3h0c-.3,1.1-.5,2.3-.8,3.3l-.2.9Z"/>
          <path class="cls-2" d="M67.5,595.9c0-3.6,1.5-5.4,3.7-5.4s3.7,1.8,3.7,5.4-1.5,5.4-3.7,5.4-3.7-1.9-3.7-5.4ZM72.5,595.9c0-2.8-.6-3.5-1.3-3.5s-1.3.6-1.3,3.5.6,3.5,1.3,3.5,1.3-.7,1.3-3.5Z"/>
        </g>
        <g>
          <path class="cls-2" d="M62.1,621.2h3l3.2,10.4h-2.6l-.6-2.4h-3.1l-.6,2.4h-2.5l3.2-10.4ZM62.5,627.3h2.1l-.2-.9c-.3-1-.5-2.3-.8-3.3h0c-.3,1.1-.5,2.3-.8,3.3l-.2.9Z"/>
          <path class="cls-2" d="M69.3,629.6h2.2v-5.9h-1.9v-1.5c1.1-.2,1.8-.5,2.6-.9h1.8v8.4h1.9v2h-6.6v-2Z"/>
        </g>
        <g>
          <path class="cls-2" d="M63.3,651.7h3l3.2,10.4h-2.6l-.6-2.4h-3.1l-.6,2.4h-2.5l3.2-10.4ZM63.7,657.8h2.1l-.2-.9c-.3-1-.5-2.3-.8-3.3h0c-.3,1.1-.5,2.3-.8,3.3l-.2.9Z"/>
          <path class="cls-2" d="M70,660.6c2.7-2.3,4.4-4.2,4.4-5.6s-.5-1.5-1.4-1.5-1.3.5-1.8,1l-1.3-1.3c1-1.1,1.9-1.7,3.4-1.7s3.4,1.3,3.4,3.3-1.7,3.8-3.3,5.4c.5,0,1.2-.1,1.7-.1h2.1v2.1h-7.2v-1.5Z"/>
        </g>
        <g>
          <path class="cls-2" d="M64.5,682.2h3l3.2,10.4h-2.6l-.6-2.4h-3.1l-.6,2.4h-2.5l3.2-10.4ZM64.9,688.3h2.1l-.2-.9c-.3-1-.5-2.3-.8-3.3h0c-.3,1.1-.5,2.3-.8,3.3l-.2.9Z"/>
          <path class="cls-2" d="M71,691.4l1.1-1.6c.6.6,1.4,1,2.2,1s1.6-.4,1.6-1.2-.5-1.4-2.7-1.4v-1.8c1.8,0,2.3-.5,2.3-1.4s-.4-1.1-1.2-1.1-1.2.3-1.9.9l-1.2-1.5c.9-.8,2-1.3,3.2-1.3,2.2,0,3.6,1,3.6,2.9s-.6,1.8-1.7,2.3h0c1.2.4,2,1.2,2,2.6,0,2-1.8,3-3.8,3s-2.8-.6-3.6-1.4Z"/>
        </g>
        <g>
          <path class="cls-2" d="M65.8,712.7h3l3.2,10.4h-2.6l-.6-2.4h-3.1l-.6,2.4h-2.5l3.2-10.4ZM66.2,718.8h2.1l-.2-.9c-.3-1-.5-2.3-.8-3.3h0c-.3,1.1-.5,2.3-.8,3.3l-.2.9Z"/>
          <path class="cls-2" d="M76.6,720.6h-4.4v-1.7l3.6-6.1h3.1v5.9h1.2v1.9h-1.2v2.6h-2.3v-2.6ZM76.6,718.7v-1.5c0-.7,0-1.6,0-2.3h0c-.3.6-.5,1.2-.8,1.8l-1.2,2.1h2Z"/>
          <path class="cls-2" d="M83.7,711.8h1.6l-3.1,13.9h-1.6l3.1-13.9Z"/>
          <path class="cls-2" d="M86.3,721.8l1.3-1.6c.7.6,1.7,1,2.6,1s1.4-.4,1.4-.9-.6-.8-1.5-1.2l-1.3-.6c-1.1-.4-2.1-1.3-2.1-2.8s1.6-3.2,3.8-3.2,2.5.5,3.4,1.3l-1.3,1.6c-.7-.5-1.4-.8-2.1-.8s-1.3.3-1.3.8.7.8,1.6,1.2l1.3.5c1.3.5,2.1,1.4,2.1,2.8s-1.5,3.3-4,3.3-2.8-.5-3.9-1.5Z"/>
          <path class="cls-2" d="M95.9,712.7h3c3.2,0,5.3,1.6,5.3,5.2s-2.1,5.2-5.1,5.2h-3.1v-10.4ZM98.7,721.2c1.7,0,2.9-.8,2.9-3.2s-1.2-3.2-2.9-3.2h-.4v6.4h.4Z"/>
          <path class="cls-2" d="M107.8,712.7h3l3.2,10.4h-2.6l-.6-2.4h-3.1l-.6,2.4h-2.5l3.2-10.4ZM108.2,718.8h2.1l-.2-.9c-.3-1-.5-2.3-.8-3.3h0c-.3,1.1-.5,2.3-.8,3.3l-.2.9Z"/>
        </g>
        <g>
          <path class="cls-2" d="M67,740.2h3l3.2,10.4h-2.6l-.6-2.4h-3.1l-.6,2.4h-2.5l3.2-10.4ZM67.4,746.3h2.1l-.2-.9c-.3-1-.5-2.3-.8-3.3h0c-.3,1.1-.5,2.3-.8,3.3l-.2.9Z"/>
          <path class="cls-2" d="M73.4,749.4l1.1-1.6c.6.6,1.3,1,2.1,1s1.6-.6,1.6-1.6-.6-1.6-1.5-1.6-.9.1-1.5.5l-1.1-.7.3-5.2h5.8v2.1h-3.7v1.8c.2-.1.5-.2.9-.2,1.8,0,3.2,1,3.2,3.3s-1.8,3.7-3.8,3.7-2.8-.6-3.6-1.4Z"/>
          <path class="cls-2" d="M84.9,739.2h1.6l-3.1,13.9h-1.6l3.1-13.9Z"/>
          <path class="cls-2" d="M87.5,749.3l1.3-1.6c.7.6,1.7,1,2.6,1s1.4-.4,1.4-.9-.6-.8-1.5-1.2l-1.3-.6c-1.1-.4-2.1-1.3-2.1-2.8s1.6-3.2,3.8-3.2,2.5.5,3.4,1.3l-1.3,1.6c-.7-.5-1.4-.8-2.1-.8s-1.3.3-1.3.8.7.8,1.6,1.2l1.3.5c1.3.5,2.1,1.4,2.1,2.8s-1.5,3.3-4,3.3-2.8-.5-3.9-1.5Z"/>
          <path class="cls-2" d="M96.6,745.5c0-3.5,2.3-5.5,5-5.5s2.4.6,3.2,1.4l-1.3,1.5c-.5-.5-1.1-.7-1.8-.7-1.4,0-2.5,1.2-2.5,3.2s1,3.3,2.4,3.3,1.5-.3,2-.9l1.3,1.5c-.9,1-2.1,1.5-3.4,1.5-2.7,0-4.9-1.8-4.9-5.3Z"/>
          <path class="cls-2" d="M106.5,740.2h2.5v8.3h4v2.1h-6.5v-10.4Z"/>
        </g>
        <g>
          <path class="cls-2" d="M119.4,433.3v3.7c0,2.3-.8,4.2-3.4,4.2s-3.6-1.9-3.6-4.1v-1.2h-3.5v-2.5h10.4ZM114.5,436.9c0,1.2.6,1.8,1.6,1.8s1.4-.7,1.4-1.9v-1h-3v1.1Z"/>
          <path class="cls-2" d="M114.3,442.4c3.4,0,5.4,1.9,5.4,4.8s-2,4.8-5.4,4.8-5.4-1.9-5.4-4.8,2-4.8,5.4-4.8ZM114.3,449.4c2,0,3.2-.8,3.2-2.2s-1.2-2.2-3.2-2.2-3.3.9-3.3,2.2,1.3,2.2,3.3,2.2Z"/>
          <path class="cls-2" d="M119.4,452.9v2.5l-4.8.7c-1.1.1-2.2.3-3.3.4h0c1.1.3,2.2.5,3.3.7l4.8,1.1v2.1l-4.8,1.1c-1.1.2-2.2.4-3.3.6h0c1.2.2,2.3.3,3.3.4l4.8.7v2.4l-10.4-1.8v-3.2l4.6-.9c.8-.2,1.6-.3,2.5-.4h0c-.8-.2-1.6-.3-2.5-.5l-4.6-.9v-3.1l10.4-1.9Z"/>
          <path class="cls-2" d="M119.4,467v6.6h-2.1v-4.1h-2v3.5h-2.1v-3.5h-2.2v4.3h-2.1v-6.8h10.4Z"/>
          <path class="cls-2" d="M119.4,475.8v3.8c0,2.2-.8,4.1-3.3,4.1s-2.5-.7-3-1.8l-4.1,2.3v-2.8l3.7-1.9v-1.2h-3.7v-2.5h10.4ZM114.7,479.4c0,1.2.5,1.8,1.5,1.8s1.3-.6,1.3-1.8v-1.1h-2.8v1.1Z"/>
        </g>
        <g>
          <path class="cls-2" d="M119.4,635.7v3l-10.4,3.2v-2.6l2.4-.6v-3.1l-2.4-.6v-2.5l10.4,3.2ZM113.3,636.1v2.1l.9-.2c1-.3,2.3-.5,3.3-.8h0c-1.1-.3-2.3-.6-3.3-.9l-.9-.2Z"/>
          <path class="cls-2" d="M119.4,643v2.6l-5,2.6c-.7.4-1.5.7-2.4,1h0c1.1,0,2.6-.3,3.8-.3h3.5v2.4h-10.4v-2.6l5-2.6c.7-.4,1.5-.7,2.4-1h0c-1.2,0-2.6.3-3.8.3h-3.5v-2.4h10.4Z"/>
          <path class="cls-2" d="M119.4,655.6v3l-10.4,3.2v-2.6l2.4-.6v-3.1l-2.4-.6v-2.5l10.4,3.2ZM113.3,655.9v2.1l.9-.2c1-.3,2.3-.5,3.3-.8h0c-1.1-.3-2.3-.6-3.3-.9l-.9-.2Z"/>
          <path class="cls-2" d="M119.4,662.9v2.5h-8.3v4h-2.1v-6.5h10.4Z"/>
          <path class="cls-2" d="M114.3,670.1c3.4,0,5.4,1.9,5.4,4.8s-2,4.8-5.4,4.8-5.4-1.9-5.4-4.8,2-4.8,5.4-4.8ZM114.3,677.1c2,0,3.2-.8,3.2-2.2s-1.2-2.2-3.2-2.2-3.3.9-3.3,2.2,1.3,2.2,3.3,2.2Z"/>
          <path class="cls-2" d="M114.2,681.1c3.5,0,5.5,2.3,5.5,5.1s-.6,2.6-1.4,3.3l-1.5-1.3c.5-.5.7-1.1.7-1.9,0-1.5-1.2-2.7-3.2-2.7s-3.3.9-3.3,2.9,0,.8.3,1h1.7v-1.7h2v3.9h-4.9c-.7-.7-1.3-2-1.3-3.5,0-2.9,1.8-5.2,5.3-5.2Z"/>
          <path class="cls-2" d="M119.4,695v2.5h-10.4v-2.5h10.4Z"/>
          <path class="cls-2" d="M119.4,699.9v2.6l-5,2.6c-.7.4-1.5.7-2.4,1h0c1.1,0,2.6-.3,3.8-.3h3.5v2.4h-10.4v-2.6l5-2.6c.7-.4,1.5-.7,2.4-1h0c-1.2,0-2.6.3-3.8.3h-3.5v-2.4h10.4Z"/>
        </g>
        <rect class="cls-30" x="123.7" y="591" width="4.5" height="159.9" rx="2.3" ry="2.3"/>
        <rect class="cls-30" x="123.7" y="364.4" width="4.5" height="187.7" rx="2.3" ry="2.3"/>
        <g>
          <g>
            <polygon class="cls-29" points="292.3 741 288.6 741 288.6 741 285 741 276.5 749.5 276.5 782.5 285 791 288.6 791 288.6 791 292.3 791 300.7 782.5 300.7 749.5 292.3 741"/>
            <g>
              <rect class="cls-21" x="285.5" y="750.6" width="6.2" height="6.2"/>
              <rect class="cls-21" x="285.5" y="775.2" width="6.2" height="6.2"/>
            </g>
          </g>
          <g>
            <polygon class="cls-29" points="316.5 741 312.8 741 312.8 741 309.2 741 300.7 749.5 300.7 782.5 309.2 791 312.8 791 312.8 791 316.5 791 324.9 782.5 324.9 749.5 316.5 741"/>
            <g>
              <rect class="cls-21" x="309.7" y="750.6" width="6.2" height="6.2"/>
              <rect class="cls-21" x="309.7" y="775.2" width="6.2" height="6.2"/>
            </g>
          </g>
          <g>
            <polygon class="cls-29" points="340.7 741 337.1 741 337 741 333.4 741 324.9 749.5 324.9 782.5 333.4 791 337 791 337.1 791 340.7 791 349.1 782.5 349.1 749.5 340.7 741"/>
            <g>
              <rect class="cls-21" x="333.9" y="750.6" width="6.2" height="6.2"/>
              <rect class="cls-21" x="333.9" y="775.2" width="6.2" height="6.2"/>
            </g>
          </g>
        </g>
        <path class="cls-30" d="M270.5,729.5c-1.3,0-2.3,1-2.3,2.3v58.5c0,1.3,1,2.3,2.3,2.3h0c1.3,0,2.3-1,2.3-2.3v-53.9c0-1.3,1-2.3,2.3-2.3h75.6c1.3,0,2.3,1,2.3,2.3v53.9c0,1.3,1,2.3,2.3,2.3h0c1.3,0,2.3-1,2.3-2.3v-58.5c0-1.3-1-2.3-2.3-2.3h-84.7Z"/>
        <rect class="cls-30" x="465.1" y="354.9" width="4.5" height="394.7" rx="2.3" ry="2.3"/>
        <g>
          <path class="cls-2" d="M486.5,496.5v3c0,3.2-1.6,5.3-5.2,5.3s-5.2-2.1-5.2-5.1v-3.1h10.4ZM478.1,499.3c0,1.7.8,2.9,3.2,2.9s3.2-1.2,3.2-2.9v-.4h-6.4v.4Z"/>
          <path class="cls-2" d="M486.5,506.7v2.5h-10.4v-2.5h10.4Z"/>
          <path class="cls-2" d="M481.2,511.1c3.5,0,5.5,2.3,5.5,5.1s-.6,2.6-1.4,3.3l-1.5-1.3c.5-.5.7-1.1.7-1.9,0-1.5-1.2-2.7-3.2-2.7s-3.3.9-3.3,2.9,0,.8.3,1h1.7v-1.7h2v3.9h-4.9c-.7-.7-1.3-2-1.3-3.5,0-2.9,1.8-5.2,5.3-5.2Z"/>
          <path class="cls-2" d="M486.5,521.8v2.5h-10.4v-2.5h10.4Z"/>
          <path class="cls-2" d="M484.4,528.7v-2.8h2.1v8.1h-2.1v-2.8h-8.3v-2.5h8.3Z"/>
          <path class="cls-2" d="M486.5,536.9v3l-10.4,3.2v-2.6l2.4-.6v-3.1l-2.4-.6v-2.5l10.4,3.2ZM480.4,537.3v2.1l.9-.2c1-.3,2.3-.5,3.3-.8h0c-1.1-.3-2.3-.6-3.3-.9l-.9-.2Z"/>
          <path class="cls-2" d="M486.5,544.2v2.5h-8.3v4h-2.1v-6.5h10.4Z"/>
          <path class="cls-2" d="M480.5,555.7c2.8,0,5.1.8,7.3,2.1l-.6,1.6c-2.1-1.2-4.4-1.7-6.7-1.7s-4.6.5-6.7,1.7l-.6-1.6c2.2-1.3,4.5-2.1,7.3-2.1Z"/>
          <path class="cls-2" d="M486.5,561.3v3.7c0,2.3-.8,4.2-3.4,4.2s-3.6-1.9-3.6-4.1v-1.2h-3.5v-2.5h10.4ZM481.5,564.9c0,1.2.6,1.8,1.6,1.8s1.4-.7,1.4-1.9v-1h-3v1.1Z"/>
          <path class="cls-2" d="M486.5,570v2.5l-4.8.7c-1.1.1-2.2.3-3.3.4h0c1.1.3,2.2.5,3.3.7l4.8,1.1v2.1l-4.8,1.1c-1.1.2-2.2.4-3.3.6h0c1.2.2,2.3.3,3.3.4l4.8.7v2.4l-10.4-1.8v-3.2l4.6-.9c.8-.2,1.6-.3,2.5-.4h0c-.8-.2-1.6-.3-2.5-.5l-4.6-.9v-3.1l10.4-1.9Z"/>
          <path class="cls-2" d="M486.5,584v2.7l-4.5,1.6c-.6.2-1.2.4-1.9.6h0c.7.3,1.3.4,1.9.6l4.5,1.6v2.7h-10.4v-2.3h3.6c1,0,2.8.2,3.8.3h0c0,0-2.7-.9-2.7-.9l-3.8-1.4v-1.4l3.8-1.4,2.7-.8h0c-1,0-2.8.3-3.8.3h-3.6v-2.2h10.4Z"/>
          <path class="cls-2" d="M481.1,597.9c0-.4-.4-.8-.9-1.1l1-1.3c1.2.8,1.7,1.6,1.7,2.4,0,1.3-1.2,1.9-1.2,2.8s.4.8.9,1.1l-1,1.3c-1.2-.8-1.7-1.6-1.7-2.4,0-1.3,1.2-1.9,1.2-2.8Z"/>
          <path class="cls-2" d="M473.8,604.4c2.1,1.2,4.4,1.7,6.7,1.7s4.6-.5,6.7-1.7l.6,1.6c-2.2,1.3-4.5,2.1-7.3,2.1s-5.1-.8-7.3-2.1l.6-1.6Z"/>
        </g>
        <g>
          <rect class="cls-11" x="559" y="524.9" width="33.4" height="240.9"/>
          <rect x="565.9" y="527.6" width="19.6" height="19.6"/>
          <rect x="565.9" y="558.1" width="19.6" height="19.6"/>
          <rect x="565.9" y="588.6" width="19.6" height="19.6"/>
          <rect x="565.9" y="619.1" width="19.6" height="19.6"/>
          <rect x="565.9" y="649.6" width="19.6" height="19.6"/>
          <rect x="565.9" y="680.1" width="19.6" height="19.6"/>
          <rect x="565.9" y="710.6" width="19.6" height="19.6"/>
          <rect x="565.9" y="741.1" width="19.6" height="19.6"/>
        </g>
        <g>
          <rect class="cls-11" x="559" y="221.6" width="33.4" height="301.1"/>
          <rect x="565.9" y="286.3" width="19.6" height="19.6"/>
          <rect x="565.9" y="316.8" width="19.6" height="19.6"/>
          <rect x="565.9" y="347.3" width="19.6" height="19.6"/>
          <rect x="565.9" y="377.8" width="19.6" height="19.6"/>
          <rect x="565.9" y="408.3" width="19.6" height="19.6"/>
          <rect x="565.9" y="438.9" width="19.6" height="19.6"/>
          <rect x="565.9" y="469.4" width="19.6" height="19.6"/>
          <rect x="565.9" y="499.9" width="19.6" height="19.6"/>
          <rect x="565.9" y="255.8" width="19.6" height="19.6"/>
          <rect x="565.9" y="225.5" width="19.6" height="19.6"/>
        </g>
        <g>
          <g>
            <path class="cls-2" d="M508.7,230.5h3l3.2,10.4h-2.6l-.6-2.4h-3.1l-.6,2.4h-2.5l3.2-10.4ZM509.1,236.6h2.1l-.2-.9c-.3-1-.5-2.3-.8-3.3h0c-.3,1.1-.5,2.3-.8,3.3l-.2.9Z"/>
            <path class="cls-2" d="M515.2,239.7l1.1-1.6c.6.6,1.3,1,2.1,1s1.6-.6,1.6-1.6-.6-1.6-1.5-1.6-.9.1-1.5.5l-1.1-.7.3-5.2h5.8v2.1h-3.7v1.8c.2-.1.5-.2.9-.2,1.8,0,3.2,1,3.2,3.3s-1.8,3.7-3.8,3.7-2.8-.6-3.6-1.4Z"/>
            <path class="cls-2" d="M526.7,229.6h1.6l-3.1,13.9h-1.6l3.1-13.9Z"/>
            <path class="cls-2" d="M529.3,239.6l1.3-1.6c.7.6,1.7,1,2.6,1s1.4-.4,1.4-.9-.6-.8-1.5-1.2l-1.3-.6c-1.1-.4-2.1-1.3-2.1-2.8s1.6-3.2,3.8-3.2,2.5.5,3.4,1.3l-1.3,1.6c-.7-.5-1.4-.8-2.1-.8s-1.3.3-1.3.8.7.8,1.6,1.2l1.3.5c1.3.5,2.1,1.4,2.1,2.8s-1.5,3.3-4,3.3-2.8-.5-3.9-1.5Z"/>
            <path class="cls-2" d="M538.4,235.8c0-3.5,2.3-5.5,5-5.5s2.4.6,3.2,1.4l-1.3,1.5c-.5-.5-1.1-.7-1.8-.7-1.4,0-2.5,1.2-2.5,3.2s1,3.3,2.4,3.3,1.5-.3,2-.9l1.3,1.5c-.9,1-2.1,1.5-3.4,1.5-2.7,0-4.9-1.8-4.9-5.3Z"/>
            <path class="cls-2" d="M548.2,230.5h2.5v8.3h4v2.1h-6.5v-10.4Z"/>
          </g>
          <g>
            <path class="cls-2" d="M506.6,260.8h3l3.2,10.4h-2.6l-.6-2.4h-3.1l-.6,2.4h-2.5l3.2-10.4ZM507,266.9h2.1l-.2-.9c-.3-1-.5-2.3-.8-3.3h0c-.3,1.1-.5,2.3-.8,3.3l-.2.9Z"/>
            <path class="cls-2" d="M517.4,268.6h-4.4v-1.7l3.6-6.1h3.1v5.9h1.2v1.9h-1.2v2.6h-2.3v-2.6ZM517.4,266.7v-1.5c0-.7,0-1.6,0-2.3h0c-.3.6-.5,1.2-.8,1.8l-1.2,2.1h2Z"/>
            <path class="cls-2" d="M524.5,259.8h1.6l-3.1,13.9h-1.6l3.1-13.9Z"/>
            <path class="cls-2" d="M527.1,269.9l1.3-1.6c.7.6,1.7,1,2.6,1s1.4-.4,1.4-.9-.6-.8-1.5-1.2l-1.3-.6c-1.1-.4-2.1-1.3-2.1-2.8s1.6-3.2,3.8-3.2,2.5.5,3.4,1.3l-1.3,1.6c-.7-.5-1.4-.8-2.1-.8s-1.3.3-1.3.8.7.8,1.6,1.2l1.3.5c1.3.5,2.1,1.4,2.1,2.8s-1.5,3.3-4,3.3-2.8-.5-3.9-1.5Z"/>
            <path class="cls-2" d="M536.7,260.8h3c3.2,0,5.3,1.6,5.3,5.2s-2.1,5.2-5.1,5.2h-3.1v-10.4ZM539.6,269.2c1.7,0,2.9-.8,2.9-3.2s-1.2-3.2-2.9-3.2h-.4v6.4h.4Z"/>
            <path class="cls-2" d="M548.7,260.8h3l3.2,10.4h-2.6l-.6-2.4h-3.1l-.6,2.4h-2.5l3.2-10.4ZM549.1,266.9h2.1l-.2-.9c-.3-1-.5-2.3-.8-3.3h0c-.3,1.1-.5,2.3-.8,3.3l-.2.9Z"/>
          </g>
          <g>
            <path class="cls-2" d="M521,291.3h3l3.2,10.4h-2.6l-.6-2.4h-3.1l-.6,2.4h-2.5l3.2-10.4ZM521.4,297.4h2.1l-.2-.9c-.3-1-.5-2.3-.8-3.3h0c-.3,1.1-.5,2.3-.8,3.3l-.2.9Z"/>
            <path class="cls-2" d="M528.3,291.3h3.8c2.2,0,4.1.8,4.1,3.3s-.7,2.5-1.8,3l2.3,4.1h-2.8l-1.9-3.7h-1.2v3.7h-2.5v-10.4ZM531.9,296.1c1.2,0,1.8-.5,1.8-1.5s-.6-1.3-1.8-1.3h-1.1v2.8h1.1Z"/>
            <path class="cls-2" d="M538.2,291.3h6.6v2.1h-4.1v2h3.5v2.1h-3.5v2.2h4.3v2.1h-6.8v-10.4Z"/>
            <path class="cls-2" d="M547,291.3h6.7v2.1h-4.2v2.3h3.6v2.1h-3.6v4h-2.5v-10.4Z"/>
          </g>
          <g>
            <path class="cls-2" d="M523.2,327.1c0-3.5,2.3-5.5,5.1-5.5s2.6.6,3.3,1.4l-1.3,1.5c-.5-.5-1.1-.7-1.9-.7-1.5,0-2.7,1.2-2.7,3.2s.9,3.3,2.9,3.3.8,0,1-.3v-1.7h-1.7v-2h3.9v4.9c-.7.7-2,1.3-3.5,1.3-2.9,0-5.2-1.8-5.2-5.3Z"/>
            <path class="cls-2" d="M534,321.8h2.6l2.6,5c.4.7.7,1.5,1,2.4h0c-.1-1.1-.3-2.6-.3-3.8v-3.5h2.4v10.4h-2.6l-2.6-5c-.4-.7-.7-1.5-1-2.4h0c.1,1.2.3,2.6.3,3.8v3.5h-2.4v-10.4Z"/>
            <path class="cls-2" d="M544.6,321.8h3c3.2,0,5.3,1.6,5.3,5.2s-2.1,5.2-5.1,5.2h-3.1v-10.4ZM547.5,330.2c1.7,0,2.9-.8,2.9-3.2s-1.2-3.2-2.9-3.2h-.4v6.4h.4Z"/>
          </g>
          <g>
            <path class="cls-2" d="M495.2,360.7h2.2v-5.9h-1.9v-1.5c1.1-.2,1.8-.5,2.6-.9h1.8v8.4h1.9v2h-6.6v-2Z"/>
            <path class="cls-2" d="M503,361.5l1.1-1.6c.6.6,1.4,1,2.2,1s1.6-.4,1.6-1.2-.5-1.4-2.7-1.4v-1.8c1.8,0,2.3-.5,2.3-1.4s-.4-1.1-1.2-1.1-1.2.3-1.9.9l-1.2-1.5c.9-.8,2-1.3,3.2-1.3,2.2,0,3.6,1,3.6,2.9s-.6,1.8-1.7,2.3h0c1.2.4,2,1.2,2,2.6,0,2-1.8,3-3.8,3s-2.8-.6-3.6-1.4Z"/>
            <path class="cls-2" d="M514.5,351.4h1.6l-3.1,13.9h-1.6l3.1-13.9Z"/>
            <path class="cls-2" d="M517.1,361.4l1.3-1.6c.7.6,1.7,1,2.6,1s1.4-.4,1.4-.9-.6-.8-1.5-1.2l-1.3-.6c-1.1-.4-2.1-1.3-2.1-2.8s1.6-3.2,3.8-3.2,2.5.5,3.4,1.3l-1.3,1.6c-.7-.5-1.4-.8-2.1-.8s-1.3.3-1.3.8.7.8,1.6,1.2l1.3.5c1.3.5,2.1,1.4,2.1,2.8s-1.5,3.3-4,3.3-2.8-.5-3.9-1.5Z"/>
            <path class="cls-2" d="M526.2,357.6c0-3.5,2.3-5.5,5-5.5s2.4.6,3.2,1.4l-1.3,1.5c-.5-.5-1.1-.7-1.8-.7-1.4,0-2.5,1.2-2.5,3.2s1,3.3,2.4,3.3,1.5-.3,2-.9l1.3,1.5c-.9,1-2.1,1.5-3.4,1.5-2.7,0-4.9-1.8-4.9-5.3Z"/>
            <path class="cls-2" d="M536,352.3h2.5v8.3h4v2.1h-6.5v-10.4Z"/>
            <path class="cls-2" d="M544.3,352.3h2.5v4.1h0l3-4.1h2.7l-3.1,4.2,3.7,6.2h-2.7l-2.5-4.3-1.1,1.5v2.7h-2.5v-10.4Z"/>
          </g>
          <g>
            <path class="cls-2" d="M494.1,391.2h2.2v-5.9h-1.9v-1.5c1.1-.2,1.8-.5,2.6-.9h1.8v8.4h1.9v2h-6.6v-2Z"/>
            <path class="cls-2" d="M502.1,391.7c2.7-2.3,4.4-4.2,4.4-5.6s-.5-1.5-1.4-1.5-1.3.5-1.8,1l-1.3-1.3c1-1.1,1.9-1.7,3.4-1.7s3.4,1.3,3.4,3.3-1.7,3.8-3.3,5.4c.5,0,1.2-.1,1.7-.1h2.1v2.1h-7.2v-1.5Z"/>
            <path class="cls-2" d="M513.3,381.9h1.6l-3.1,13.9h-1.6l3.1-13.9Z"/>
            <path class="cls-2" d="M516.6,382.8h2.7l1.6,4.5c.2.6.4,1.2.6,1.9h0c.2-.7.4-1.3.6-1.9l1.6-4.5h2.7v10.4h-2.3v-3.6c0-1,.2-2.8.3-3.8h0l-.9,2.7-1.4,3.8h-1.4l-1.4-3.8-.8-2.7h0c.1,1,.3,2.8.3,3.8v3.6h-2.2v-10.4Z"/>
            <path class="cls-2" d="M528.9,382.8h2.5v10.4h-2.5v-10.4Z"/>
            <path class="cls-2" d="M533.1,391.9l1.3-1.6c.7.6,1.7,1,2.6,1s1.4-.4,1.4-.9-.6-.8-1.5-1.2l-1.3-.6c-1.1-.4-2.1-1.3-2.1-2.8s1.6-3.2,3.8-3.2,2.5.5,3.4,1.3l-1.3,1.6c-.7-.5-1.4-.8-2.1-.8s-1.3.3-1.3.8.7.8,1.6,1.2l1.3.5c1.3.5,2.1,1.4,2.1,2.8s-1.5,3.3-4,3.3-2.8-.5-3.9-1.5Z"/>
            <path class="cls-2" d="M542.2,388c0-3.4,1.9-5.4,4.8-5.4s4.8,2,4.8,5.4-1.9,5.4-4.8,5.4-4.8-2-4.8-5.4ZM549.2,388c0-2-.8-3.2-2.2-3.2s-2.2,1.2-2.2,3.2.9,3.3,2.2,3.3,2.2-1.3,2.2-3.3Z"/>
          </g>
          <g>
            <path class="cls-2" d="M486.8,418.7c-.4,0-.8.4-1.1.9l-1.3-1c.8-1.2,1.6-1.7,2.4-1.7,1.3,0,1.9,1.2,2.8,1.2s.8-.4,1.1-.9l1.3,1c-.8,1.2-1.6,1.7-2.4,1.7-1.3,0-1.9-1.2-2.8-1.2Z"/>
            <path class="cls-2" d="M493.5,421.8h2.2v-5.9h-1.9v-1.5c1.1-.2,1.8-.5,2.6-.9h1.8v8.4h1.9v2h-6.6v-2Z"/>
            <path class="cls-2" d="M502,421.8h2.2v-5.9h-1.9v-1.5c1.1-.2,1.8-.5,2.6-.9h1.8v8.4h1.9v2h-6.6v-2Z"/>
            <path class="cls-2" d="M512.7,412.4h1.6l-3.1,13.9h-1.6l3.1-13.9Z"/>
            <path class="cls-2" d="M516,413.3h2.7l1.6,4.5c.2.6.4,1.2.6,1.9h0c.2-.7.4-1.3.6-1.9l1.6-4.5h2.7v10.4h-2.3v-3.6c0-1,.2-2.8.3-3.8h0l-.9,2.7-1.4,3.8h-1.4l-1.4-3.8-.8-2.7h0c.1,1,.3,2.8.3,3.8v3.6h-2.2v-10.4Z"/>
            <path class="cls-2" d="M527.8,418.5c0-3.4,1.9-5.4,4.8-5.4s4.8,2,4.8,5.4-1.9,5.4-4.8,5.4-4.8-2-4.8-5.4ZM534.8,418.5c0-2-.8-3.2-2.2-3.2s-2.2,1.2-2.2,3.2.9,3.3,2.2,3.3,2.2-1.3,2.2-3.3Z"/>
            <path class="cls-2" d="M538.6,422.4l1.3-1.6c.7.6,1.7,1,2.6,1s1.4-.4,1.4-.9-.6-.8-1.5-1.2l-1.3-.6c-1.1-.4-2.1-1.3-2.1-2.8s1.6-3.2,3.8-3.2,2.5.5,3.4,1.3l-1.3,1.6c-.7-.5-1.4-.8-2.1-.8s-1.3.3-1.3.8.7.8,1.6,1.2l1.3.5c1.3.5,2.1,1.4,2.1,2.8s-1.5,3.3-4,3.3-2.8-.5-3.9-1.5Z"/>
            <path class="cls-2" d="M548.2,413.3h2.5v10.4h-2.5v-10.4Z"/>
          </g>
          <g>
            <path class="cls-2" d="M528.6,449.3c-.4,0-.8.4-1.1.9l-1.3-1c.8-1.2,1.6-1.7,2.4-1.7,1.3,0,1.9,1.2,2.8,1.2s.8-.4,1.1-.9l1.3,1c-.8,1.2-1.6,1.7-2.4,1.7-1.3,0-1.9-1.2-2.8-1.2Z"/>
            <path class="cls-2" d="M535.4,452.3h2.2v-5.9h-1.9v-1.5c1.1-.2,1.8-.5,2.6-.9h1.8v8.4h1.9v2h-6.6v-2Z"/>
            <path class="cls-2" d="M543.4,449c0-3.6,1.5-5.4,3.7-5.4s3.7,1.8,3.7,5.4-1.5,5.4-3.7,5.4-3.7-1.9-3.7-5.4ZM548.4,449c0-2.8-.6-3.5-1.3-3.5s-1.3.6-1.3,3.5.6,3.5,1.3,3.5,1.3-.7,1.3-3.5Z"/>
          </g>
          <g>
            <path class="cls-2" d="M536.6,479.8c-.4,0-.8.4-1.1.9l-1.3-1c.8-1.2,1.6-1.7,2.4-1.7,1.3,0,1.9,1.2,2.8,1.2s.8-.4,1.1-.9l1.3,1c-.8,1.2-1.6,1.7-2.4,1.7-1.3,0-1.9-1.2-2.8-1.2Z"/>
            <path class="cls-2" d="M542.9,483.7l1.3-1.5c.3.4,1,.7,1.6.7,1.1,0,1.9-.8,2-3-.5.7-1.4,1-2,1-1.7,0-3-1-3-3.3s1.6-3.5,3.4-3.5,3.9,1.5,3.9,5.3-2,5.5-4.1,5.5-2.4-.6-3.1-1.2ZM546.3,479.2c.5,0,1.1-.3,1.5-.9-.2-1.8-.8-2.3-1.5-2.3s-1.2.5-1.2,1.7.5,1.5,1.2,1.5Z"/>
          </g>
          <path class="cls-2" d="M542.3,512.7c0-1.3.7-2.1,1.7-2.6h0c-.8-.7-1.4-1.5-1.4-2.6,0-1.7,1.4-2.8,3.3-2.8s3.1,1.1,3.1,2.8-.6,1.8-1.3,2.3h0c1,.6,1.8,1.5,1.8,2.9s-1.5,2.8-3.6,2.8-3.6-1.1-3.6-2.8ZM547.2,512.6c0-.9-.8-1.3-2.1-1.9-.4.4-.7,1-.7,1.7s.7,1.4,1.5,1.4,1.3-.4,1.3-1.2ZM547.1,507.6c0-.8-.4-1.2-1.2-1.2s-1.1.4-1.1,1.1.6,1.3,1.7,1.7c.4-.5.6-1,.6-1.5Z"/>
          <path class="cls-2" d="M546.3,534.6h-4.5v-2.1h7.1v1.5c-2.4,2.9-2.7,4.8-2.8,8.9h-2.5c.2-3.4.7-5.6,2.7-8.3Z"/>
          <g>
            <path class="cls-2" d="M534.9,568.5c-.4,0-.8.4-1.1.9l-1.3-1c.8-1.2,1.6-1.7,2.4-1.7,1.3,0,1.9,1.2,2.8,1.2s.8-.4,1.1-.9l1.3,1c-.8,1.2-1.6,1.7-2.4,1.7-1.3,0-1.9-1.2-2.8-1.2Z"/>
            <path class="cls-2" d="M541.1,568.4c0-3.8,2-5.5,4.1-5.5s2.4.6,3,1.2l-1.3,1.5c-.4-.4-1-.7-1.6-.7-1.1,0-1.9.8-2,3,.5-.6,1.4-1,2-1,1.7,0,3,1,3,3.3s-1.6,3.5-3.4,3.5-3.9-1.5-3.9-5.3ZM543.5,569.6c.2,1.7.9,2.2,1.5,2.2s1.2-.5,1.2-1.7-.6-1.5-1.3-1.5-1.1.3-1.5,1Z"/>
          </g>
          <g>
            <path class="cls-2" d="M534.3,599c-.4,0-.8.4-1.1.9l-1.3-1c.8-1.2,1.6-1.7,2.4-1.7,1.3,0,1.9,1.2,2.8,1.2s.8-.4,1.1-.9l1.3,1c-.8,1.2-1.6,1.7-2.4,1.7-1.3,0-1.9-1.2-2.8-1.2Z"/>
            <path class="cls-2" d="M540.3,602.7l1.1-1.6c.6.6,1.3,1,2.1,1s1.6-.6,1.6-1.6-.6-1.6-1.5-1.6-.9.1-1.5.5l-1.1-.7.3-5.2h5.8v2.1h-3.7v1.8c.2-.1.5-.2.9-.2,1.8,0,3.2,1,3.2,3.3s-1.8,3.7-3.8,3.7-2.8-.6-3.6-1.4Z"/>
          </g>
          <path class="cls-2" d="M544,631.9h-4.4v-1.7l3.6-6.1h3.1v5.9h1.2v1.9h-1.2v2.6h-2.3v-2.6ZM544,630v-1.5c0-.7,0-1.6,0-2.3h0c-.3.6-.5,1.2-.8,1.8l-1.2,2.1h2Z"/>
          <g>
            <path class="cls-2" d="M533.1,660c-.4,0-.8.4-1.1.9l-1.3-1c.8-1.2,1.6-1.7,2.4-1.7,1.3,0,1.9,1.2,2.8,1.2s.8-.4,1.1-.9l1.3,1c-.8,1.2-1.6,1.7-2.4,1.7-1.3,0-1.9-1.2-2.8-1.2Z"/>
            <path class="cls-2" d="M539.1,663.8l1.1-1.6c.6.6,1.4,1,2.2,1s1.6-.4,1.6-1.2-.5-1.4-2.7-1.4v-1.8c1.8,0,2.3-.5,2.3-1.4s-.4-1.1-1.2-1.1-1.2.3-1.9.9l-1.2-1.5c.9-.8,2-1.3,3.2-1.3,2.2,0,3.6,1,3.6,2.9s-.6,1.8-1.7,2.3h0c1.2.4,2,1.2,2,2.6,0,2-1.8,3-3.8,3s-2.8-.6-3.6-1.4Z"/>
          </g>
          <path class="cls-2" d="M538.8,694c2.7-2.3,4.4-4.2,4.4-5.6s-.5-1.5-1.4-1.5-1.3.5-1.8,1l-1.3-1.3c1-1.1,1.9-1.7,3.4-1.7s3.4,1.3,3.4,3.3-1.7,3.8-3.3,5.4c.5,0,1.2-.1,1.7-.1h2.1v2.1h-7.2v-1.5Z"/>
          <g>
            <path class="cls-2" d="M509,718.6h-2.8v-2.1h8.1v2.1h-2.8v8.3h-2.5v-8.3Z"/>
            <path class="cls-2" d="M517.5,721.6l-2.7-5.1h2.8l.8,1.9c.2.5.5,1,.8,1.7h0c.2-.7.5-1.2.7-1.7l.8-1.9h2.6l-2.7,5.2,2.9,5.2h-2.8l-1-2c-.3-.5-.5-1.1-.8-1.7h0c-.2.6-.5,1.2-.7,1.7l-.9,2h-2.7l2.9-5.4Z"/>
            <path class="cls-2" d="M537.3,721.7l-5,5c-.4.4-1,.4-1.4,0s-.4-1,0-1.4l3.3-3.3h-9.6c-.6,0-1-.4-1-1s.4-1,1-1h9.6l-3.3-3.3c-.4-.4-.4-1,0-1.4s1-.4,1.4,0l5,5c.4.4.4,1,0,1.4h0Z"/>
            <path class="cls-2" d="M538.7,724.9h2.2v-5.9h-1.9v-1.5c1.1-.2,1.8-.5,2.6-.9h1.8v8.4h1.9v2h-6.6v-2Z"/>
          </g>
          <g>
            <path class="cls-2" d="M505.3,747h3.8c2.2,0,4.1.8,4.1,3.3s-.7,2.5-1.8,3l2.3,4.1h-2.8l-1.9-3.7h-1.2v3.7h-2.5v-10.4ZM508.9,751.8c1.2,0,1.8-.5,1.8-1.5s-.6-1.3-1.8-1.3h-1.1v2.8h1.1Z"/>
            <path class="cls-2" d="M516.9,752.1l-2.7-5.1h2.8l.8,1.9c.2.5.5,1,.8,1.7h0c.2-.7.5-1.2.7-1.7l.8-1.9h2.6l-2.7,5.2,2.9,5.2h-2.8l-1-2c-.3-.5-.5-1.1-.8-1.7h0c-.2.6-.5,1.2-.7,1.7l-.9,2h-2.7l2.9-5.4Z"/>
            <path class="cls-2" d="M523.3,750.7l5-5c.4-.4,1-.4,1.4,0s.4,1,0,1.4l-3.3,3.3h9.6c.6,0,1,.4,1,1s-.4,1-1,1h-9.6l3.3,3.3c.4.4.4,1,0,1.4s-1,.4-1.4,0l-5-5c-.4-.4-.4-1,0-1.4h0Z"/>
            <path class="cls-2" d="M537.6,752.2c0-3.6,1.5-5.4,3.7-5.4s3.7,1.8,3.7,5.4-1.5,5.4-3.7,5.4-3.7-1.9-3.7-5.4ZM542.6,752.2c0-2.8-.6-3.5-1.3-3.5s-1.3.6-1.3,3.5.6,3.5,1.3,3.5,1.3-.7,1.3-3.5Z"/>
          </g>
        </g>
        <g>
          <rect class="cls-6" x="396.2" y="332.3" width="10.7" height="17.2"/>
          <rect class="cls-15" x="396.2" y="334.8" width="10.7" height="11.8"/>
        </g>
      </g>
      <sodipodi:namedview id="namedview7" bordercolor="#eeeeee" borderopacity="1" inkscape:current-layer="svg8" inkscape:cx="488.29621" inkscape:cy="455.08905" inkscape:deskcolor="#505050" inkscape:pagecheckerboard="0" inkscape:pageopacity="0" inkscape:showpageshadow="0" inkscape:window-height="900" inkscape:window-maximized="0" inkscape:window-width="1440" inkscape:window-x="0" inkscape:window-y="0" inkscape:zoom="0.66250771" pagecolor="#505050"/>
      <g id="layer1-7">
        <rect id="rect815" x="661.1" y="13" width="181.7" height="244.2"/>
        <rect id="rect821" class="cls-2" x="704" y="217.5" width="94.6" height="32.5"/>
        <path id="rect825" class="cls-26" d="M710.2,219.4h19c3.3,0,6,2.7,6,6h0v16.6c0,3.3-2.7,6-6,6h-19c-3.3,0-6-2.7-6-6h0v-16.6c0-3.3,2.7-6,6-6h0Z"/>
        <path id="rect872" class="cls-26" d="M773.4,219.4h19c3.3,0,6,2.7,6,6h0v16.6c0,3.3-2.7,6-6,6h-19c-3.3,0-6-2.7-6-6h0v-16.6c0-3.3,2.7-6,6-6h0Z"/>
        <rect id="rect874" class="cls-26" x="735.8" y="219.4" width="30.9" height="28.6" rx="5.2" ry="5.2"/>
        <rect id="rect947" class="cls-18" x="718" y="234.9" width="3.4" height="59.7"/>
        <rect id="rect949" class="cls-18" x="749.7" y="234.9" width="3.4" height="59.7"/>
        <rect id="rect951" class="cls-18" x="781.1" y="234.9" width="3.4" height="59.7"/>
        <circle id="path1456" class="cls-19" cx="686.5" cy="102.4" r="16.5"/>
        <circle id="ellipse1458" class="cls-19" cx="815.6" cy="102.4" r="16.5"/>
        <circle id="path1460" class="cls-3" cx="686.5" cy="102.4" r="14.9"/>
        <circle id="ellipse1464" class="cls-3" cx="815.6" cy="102.4" r="14.9"/>
        <rect id="rect87-5" x="686.6" y="183.3" width="129.4" height="32.5"/>
        <circle id="path91-0" class="cls-19" cx="703.8" cy="204.8" r="12.1"/>
        <circle id="circle93-6" class="cls-19" cx="798.2" cy="204.8" r="12.1"/>
        <rect id="rect95-2" class="cls-19" x="705.4" y="155.2" width="24.2" height="36.3" rx="8.1" ry="8.1"/>
        <rect id="rect97-0" class="cls-19" x="774" y="155.2" width="24.2" height="36.3" rx="8.1" ry="8.1"/>
        <circle id="circle99-7" class="cls-19" cx="727.6" cy="141.5" r="12.1"/>
        <circle id="circle101-4" class="cls-19" cx="776" cy="141.5" r="12.1"/>
        <circle id="ellipse103-6" class="cls-3" cx="700.6" cy="140.7" r="14.9"/>
        <circle id="ellipse105-2" class="cls-3" cx="803.1" cy="140.7" r="14.9"/>
        <rect id="rect111-9" class="cls-19" x="705.4" y="89.1" width="24.2" height="36.3" rx="8.1" ry="8.1"/>
        <rect id="rect113-8" class="cls-19" x="774" y="89.1" width="24.2" height="36.3" rx="8.1" ry="8.1"/>
        <circle id="circle119-8" class="cls-3" cx="703.8" cy="204.8" r="10.1"/>
        <circle id="circle121-8" class="cls-3" cx="798.2" cy="204.8" r="10.1"/>
        <circle id="circle129-9" class="cls-19" cx="702.2" cy="60.8" r="12.1"/>
        <circle id="circle131-6" class="cls-3" cx="702.2" cy="60.8" r="10.1"/>
        <circle id="circle133-6" class="cls-19" cx="801.4" cy="60.8" r="12.1"/>
        <circle id="circle135-4" class="cls-3" cx="801.4" cy="60.8" r="10.1"/>
        <path id="path31-1-6" class="cls-2" d="M712.7,33.1c1.1,0,1.2,0,1.5-.2.1,0,.3-.2.4-.4.1-.2.1-.3.2-2.6v-2.4s2.4,0,2.4,0h2.4v3c0,3.3,0,3.7-.4,4.5-.4,1.1-1.4,1.9-2.5,2-.7.1-1.5.1-2.2,0-1,0-2,0-2.3,0h-.6c0,0,0-2,0-2v-2s1.2,0,1.2,0h0ZM735.6,39.9c20.5,0,25.5,0,24.7.1h-.1s.1,0,.1,0c.1,0,0,0,0,0-.2,0,0,0,.2,0h.4s-.4,0-.4,0c-.2,0-.4,0-.3,0,0,0,.1.1.1.6s0,.5.2.6c.1,0,0,0,0,0-.2,0-.3,0-.3,0s-8.1,0-24.2,0h-24.2v-1.7h24.1ZM717.1,21.3h2.4v3.9h-4.8v-3.9h2.4ZM722,28.5c.1-1,.5-2,.9-3,.1-.2.2-.4.3-.6,0-.1.2-.3.3-.4.3-.4.6-.8,1-1.2,0,0,0,0,0-.1.3-.4.7-.7,1.1-1,.6-.4,1.2-.7,1.8-.9.9-.4,1.9-.5,2.9-.4.6,0,1.1,0,1.7.2.4.1.8.3,1,.3.1,0,.3.1.4.1.2,0,.4.2.6.3,1.4,1,2.6,2.3,3.3,3.8.9,1.9,1.1,4.1.4,6.1-.2.6-.5,1.3-.9,1.9-.4.6-.9,1.2-1.4,1.7-.9,1-2.1,1.7-3.4,2-1,.2-2,.3-3,.2-1.2-.2-2.3-.7-3.3-1.4-.4-.3-.7-.6-1-.9-.1-.1-.2-.3-.3-.4-1-1.2-1.7-2.6-2.1-4.1-.1-.8-.2-1.6-.2-2.4h0ZM726.6,30.6c.2.9.7,1.7,1.4,2.4.8.7,1.9,1,2.9.6,1.3-.5,2.2-1.7,2.5-3,.2-.9.2-1.8,0-2.7-.3-1-.9-1.9-1.7-2.5-.3-.2-.6-.4-.9-.4-.8-.2-1.5,0-2.3.2-.7.4-1.2,1-1.5,1.7-.6,1.1-.7,2.4-.4,3.6h0ZM740.2,21.3s1.1,0,2.4,0h2.3s0,2.2,0,2.2c0,2,0,2.2.1,2.5.4.9,1.5,1.4,2.4,1.1.5-.1.9-.5,1.1-.9l.2-.4v-2.2s0-2.2,0-2.2h4.8v2.5c0,1,0,2-.2,3.1-.2.9-.7,1.8-1.3,2.5-.1.1-.2.2-.3.4-.3.4-.7.7-1.2,1-.4.3-.9.6-1.4.8-.1,0-.4.1-.7.2-.6.2-1.1.2-1.7.2-.6,0-1.2,0-1.8-.2-.7-.2-1.3-.4-1.9-.8-.7-.5-1.4-1.1-1.8-1.8-.7-.9-1.1-2-1.2-3.1,0-1.6,0-3.1,0-4.7h0ZM747,33.2h4v4.1h-7.9v-4.1h4ZM753.7,18.2s0-.1,0-.2c0-.2,0-.2.3-.3.2,0,6.9,0,14.9,0h14.6s0,.9,0,.9v.9h-14.9c-8.2,0-14.9,0-14.9,0,0,0-.1-.1-.1-.6s0-.5,0-.5h0ZM760.4,27.9h5v4h-10.1v-4h5ZM769.4,21.3h2.4v3.9h-4.8v-3.9h2.4ZM769.4,27.3h2.4v10.2h-4.8v-10.2h2.4ZM779.1,21.3h5.1v3.9h-10.1v-3.9h5.1ZM774.9,27.6s1.1,0,2.4,0h2.3s0,2.3,0,2.3c0,3.3-.1,3.1,2.4,3.1h1.6v4.1h-.6c-1.5.2-2.9.2-4.4,0-1,0-2-.5-2.7-1.3-.6-.7-.9-1.6-1-2.5,0-.7,0-5.8,0-5.8h0ZM787,19.3c.1-.4.3-.8.6-1.1.9-1,2.4-1.1,3.5-.3.4.2.7.6.9,1,.2.3.2.7.2,1.1,0,.4,0,.7-.2,1.1-.4.8-1.3,1.4-2.2,1.5-.8,0-1.6-.2-2.2-.8-.6-.6-.8-1.6-.6-2.4h0ZM787.5,21c.3.6.9,1.1,1.6,1.2.7.2,1.5,0,2-.6.2-.2.4-.4.5-.6.2-.3.2-.6.2-1,0-.3,0-.7-.2-1-.1-.3-.3-.5-.6-.7-.2-.2-.5-.3-.7-.4-1.1-.4-2.4.2-2.9,1.3-.2.6-.1,1.2,0,1.8h0ZM789.3,18.5c.4,0,.7,0,1.1,0,.4.3.6.8.3,1.2,0,.1-.2.2-.4.2h-.2c0,0,.2.3.2.3.2.2.3.4.4.6,0,.1.2.3.3.4.1,0,0,.2-.2.2h-.3s-.4-.6-.4-.6c-.4-.7-.5-.7-1-.7h-.3v1.4h-.2s-.2,0-.2,0v-1.5s0-1.5,0-1.5h.9ZM789.4,19.8c.5,0,.6,0,.8-.1.4-.3.2-.7-.4-.8-.3,0-.6,0-1,0,0,.2,0,.3,0,.5v.5h.6Z"/>
        <rect id="rect84-5" class="cls-17" x="705.4" y="93.7" width="92.8" height="92.8"/>
        <circle id="path86-1" class="cls-20" cx="789.1" cy="102.8" r="5"/>
        <circle id="circle88-0" class="cls-20" cx="714.5" cy="102.8" r="5"/>
        <circle id="circle90-3" class="cls-20" cx="789.1" cy="177.4" r="5"/>
        <circle id="circle92-5" class="cls-20" cx="714.5" cy="177.4" r="5"/>
        <circle id="path94-8" class="cls-20" cx="751.8" cy="140.1" r="30.3"/>
        <g id="text84" class="cls-16">
          <g id="text2" class="cls-16">
            <g class="cls-16">
              <path class="cls-2" d="M679.9,181.8c0,0,.1,0,.2,0,0,0,0,0,.1.2s0,.2,0,.3c0,.1,0,.3,0,.6s0,.5,0,.7c0,.2,0,.3-.1.4,0,0-.1.2-.2.2l-8.1,6h8.1c0,0,.1,0,.2,0,0,0,0,0,.1.2s0,.2,0,.3c0,.1,0,.3,0,.5s0,.4,0,.5c0,.1,0,.3,0,.3s0,.1-.1.2c0,0-.1,0-.2,0h-15.5c0,0-.1,0-.2,0,0,0,0,0-.1-.2s0-.2,0-.3c0-.1,0-.3,0-.5s0-.4,0-.5c0-.1,0-.2,0-.3s0-.1.1-.2c0,0,.1,0,.2,0h7.2l-7.2-5.7c0,0-.1-.1-.2-.2s0-.1-.1-.2c0,0,0-.2,0-.4s0-.3,0-.5,0-.4,0-.5c0-.1,0-.2,0-.3,0,0,0-.1.1-.2,0,0,.1,0,.2,0,.1,0,.2,0,.3,0s.3.2.5.3l6.4,5.4,7.7-5.8c.2-.1.4-.2.4-.3,0,0,.1,0,.2,0Z"/>
            </g>
            <g class="cls-16">
              <path class="cls-2" d="M674,173.9h6c0,0,.1,0,.2,0,0,0,0,0,.1.2,0,0,0,.2,0,.3,0,.1,0,.3,0,.5s0,.4,0,.5c0,.1,0,.2,0,.3s0,.1-.1.2c0,0-.1,0-.2,0h-6l-9.1,4.6c-.2,0-.3.1-.5.2-.1,0-.2,0-.2,0s0-.2-.1-.3,0-.4,0-.7,0-.5,0-.6c0-.2,0-.3,0-.4s0-.2.1-.2c0,0,.1,0,.2-.1l4.7-2.2c.4-.2.9-.4,1.4-.6s1-.4,1.5-.6h0c-.5-.2-.9-.4-1.4-.6-.5-.2-.9-.4-1.4-.6l-4.7-2.3c0,0-.2,0-.2-.1,0,0-.1-.1-.1-.2,0,0,0-.2,0-.3,0-.1,0-.3,0-.5s0-.5,0-.7c0-.2,0-.3.1-.4,0,0,.1,0,.2,0,.1,0,.3,0,.4.2l9.1,4.6Z"/>
            </g>
            <g class="cls-16">
              <path class="cls-2" d="M674,163.2c.3,0,.5,0,.7.1.1,0,.2.2.2.3v5.2c0,.2,0,.3-.2.3-.1,0-.4.1-.7.1s-.5,0-.7-.1-.2-.2-.2-.3v-5.2c0,0,0-.1,0-.2,0,0,0-.1.1-.1,0,0,.2,0,.3,0,.1,0,.2,0,.4,0Z"/>
              <path class="cls-2" d="M672.1,150.2c1.2,0,2.4,0,3.4.3,1,.2,1.9.5,2.6,1,.7.5,1.3,1,1.7,1.8.4.7.6,1.6.6,2.7s-.2,1.9-.5,2.6c-.4.7-.9,1.3-1.6,1.7-.7.4-1.6.7-2.6.9-1,.2-2.2.3-3.5.3s-2.4-.1-3.4-.3-1.9-.5-2.7-1c-.7-.5-1.3-1-1.7-1.8-.4-.7-.6-1.6-.6-2.7s.2-1.9.5-2.6c.4-.7.9-1.3,1.6-1.7.7-.4,1.6-.7,2.6-.9,1-.2,2.2-.3,3.5-.3ZM672.3,152.4c-.8,0-1.5,0-2.2,0-.6,0-1.2.1-1.7.3-.5.1-.9.3-1.3.4-.4.2-.6.4-.9.6-.2.2-.4.5-.5.9-.1.3-.2.7-.2,1.1,0,.7.2,1.3.5,1.7.3.4.8.8,1.4,1s1.3.4,2.1.5c.8,0,1.6.1,2.5.1s2.2,0,3.1-.2,1.5-.3,2.1-.6c.5-.3.9-.6,1.2-1s.4-.9.4-1.5,0-.9-.2-1.2-.4-.7-.6-.9-.6-.5-1-.6c-.4-.2-.8-.3-1.3-.4s-1-.2-1.5-.2c-.6,0-1.1,0-1.7,0Z"/>
              <path class="cls-2" d="M672.1,137.2c1.2,0,2.4,0,3.4.3,1,.2,1.9.5,2.6,1,.7.5,1.3,1,1.7,1.8.4.7.6,1.6.6,2.7s-.2,1.9-.5,2.6c-.4.7-.9,1.3-1.6,1.7-.7.4-1.6.7-2.6.9-1,.2-2.2.3-3.5.3s-2.4-.1-3.4-.3-1.9-.5-2.7-1c-.7-.5-1.3-1-1.7-1.8-.4-.7-.6-1.6-.6-2.7s.2-1.9.5-2.6c.4-.7.9-1.3,1.6-1.7.7-.4,1.6-.7,2.6-.9,1-.2,2.2-.3,3.5-.3ZM672.3,139.4c-.8,0-1.5,0-2.2,0-.6,0-1.2.1-1.7.3-.5.1-.9.3-1.3.4-.4.2-.6.4-.9.6-.2.2-.4.5-.5.9-.1.3-.2.7-.2,1.1,0,.7.2,1.3.5,1.7.3.4.8.8,1.4,1s1.3.4,2.1.5c.8,0,1.6.1,2.5.1s2.2,0,3.1-.2,1.5-.3,2.1-.6c.5-.3.9-.6,1.2-1s.4-.9.4-1.5,0-.9-.2-1.2-.4-.7-.6-.9-.6-.5-1-.6c-.4-.2-.8-.3-1.3-.4s-1-.2-1.5-.2c-.6,0-1.1,0-1.7,0Z"/>
              <path class="cls-2" d="M675.7,124.1c.3,0,.5,0,.7.1.2,0,.2.2.2.4v1.8h3.4c0,0,.1,0,.2,0,0,0,0,0,.1.2s0,.2,0,.3,0,.3,0,.5,0,.4,0,.5,0,.2,0,.3c0,0,0,.1-.1.2,0,0-.1,0-.2,0h-3.4v6.6c0,0,0,.2,0,.2,0,0,0,.1-.1.2,0,0-.2,0-.3.1-.1,0-.3,0-.5,0s-.3,0-.4,0-.2,0-.3,0c-.1,0-.2,0-.3,0,0,0-.2,0-.3-.1l-9.8-5.8c0,0-.1-.1-.2-.2,0,0,0-.2-.1-.3s0-.3,0-.5c0-.2,0-.4,0-.7s0-.5,0-.7c0-.2,0-.4,0-.5,0-.1,0-.2.1-.3,0,0,.1-.1.2-.1h10.3v-1.8c0-.1,0-.3.2-.3.1,0,.4-.1.7-.1ZM665.9,128.6h0s8.9,5.2,8.9,5.2v-5.2h-8.9Z"/>
            </g>
          </g>
        </g>
        <g id="text88" class="cls-16">
          <g class="cls-16">
            <path class="cls-2" d="M697.2,237.2c0,.8-.1,1.4-.4,2-.3.6-.7,1.1-1.2,1.5s-1.1.7-1.8.9-1.4.3-2.2.3-1,0-1.5-.1c-.5,0-.9-.2-1.2-.3-.4-.1-.7-.3-.9-.4-.2-.1-.4-.3-.5-.4,0-.1-.2-.2-.2-.4,0-.2,0-.4,0-.6s0-.3,0-.5c0-.1,0-.2,0-.3,0,0,0-.1.1-.2,0,0,.1,0,.2,0,.1,0,.3,0,.5.2s.5.3.8.5c.3.2.7.3,1.2.5.5.1,1,.2,1.6.2s.9,0,1.3-.2.7-.3,1-.5.5-.5.6-.8c.1-.3.2-.7.2-1.1s-.1-.9-.3-1.2c-.2-.3-.5-.6-.8-.9-.3-.2-.7-.5-1.2-.7s-.9-.4-1.3-.6c-.5-.2-.9-.4-1.3-.7-.4-.3-.8-.6-1.2-.9-.3-.4-.6-.8-.8-1.2-.2-.5-.3-1-.3-1.7s.1-1.3.4-1.8.6-1,1-1.3,1-.6,1.6-.8,1.3-.3,2-.3.7,0,1.1,0c.4,0,.7.1,1,.2.3.1.6.2.9.4.2.1.4.2.5.3s.1.1.2.2c0,0,0,.1,0,.2,0,0,0,.2,0,.3,0,0,0,.2,0,.4s0,.3,0,.4c0,.1,0,.2,0,.3,0,0,0,.1-.1.2s0,0-.2,0c0,0-.2,0-.4-.2-.2-.1-.4-.2-.7-.4-.3-.1-.6-.3-1-.4s-.8-.2-1.3-.2-.8,0-1.2.2c-.3.1-.6.3-.8.5s-.4.4-.5.7-.2.6-.2.9c0,.5.1.8.3,1.2.2.3.5.6.8.9.3.2.7.5,1.2.7.4.2.9.4,1.4.6s.9.4,1.4.7c.4.3.8.6,1.2.9.3.3.6.8.8,1.2.2.5.3,1,.3,1.7Z"/>
          </g>
        </g>
        <g id="text96" class="cls-16">
          <g class="cls-16">
            <path class="cls-2" d="M821.9,234c0,.3-.1.6-.3.7s-.5.2-.9.2h-14.4c-.4,0-.7,0-.9-.2-.2-.1-.3-.4-.3-.7s.1-.5.3-.7c.2-.1.5-.2.9-.2h14.4c.2,0,.3,0,.5,0,.1,0,.3,0,.4.1s.2.2.2.3,0,.2,0,.4Z"/>
          </g>
        </g>
      </g>
      <rect id="rect4" class="cls-7" x="20.3" y="525" width="767.5" height="11.4"/>
      <rect id="rect5" class="cls-7" x="20.3" y="498" width="11.4" height="38.4"/>
      <circle id="circle281" class="cls-7" cx="26.1" cy="499.8" r="11.6" transform="translate(-474.1 517.8) rotate(-89.1)"/>
      <rect id="rect6" class="cls-14" x="20.3" y="406.7" width="735.1" height="11.4"/>
      <rect id="rect7" class="cls-14" x="20.3" y="406.7" width="11.4" height="63.6"/>
      <circle id="circle281-2" class="cls-14" cx="26.1" cy="469.1" r="11.6" transform="translate(-443.5 487.6) rotate(-89.1)"/>
      <circle id="circle281-4" class="cls-13" cx="576" cy="447.7" r="11.6"/>
      <rect id="rect849-2" class="cls-13" x="571.7" y="442.4" width="152.6" height="11.3"/>
      <polyline id="rect840" class="cls-7" points="776.6 272.8 776.6 536.4 788 536.4 788 272.8"/>
      <circle id="path289" class="cls-13" cx="718.7" cy="272.9" r="9.4"/>
      <circle id="circle291" class="cls-14" cx="750.9" cy="272.9" r="9.4"/>
      <circle id="circle293" class="cls-7" cx="782.3" cy="272.9" r="9.4"/>
      <polyline id="rect826" class="cls-14" points="745.3 273.5 745.3 418.1 756.6 418.1 756.6 273.5"/>
      <polyline id="rect849-3" class="cls-13" points="713 274.4 713 453.7 724.4 453.7 724.4 274.4"/>
    </g>
  </g>
</svg>