<?xml version="1.0" encoding="UTF-8"?>
<svg xmlns="http://www.w3.org/2000/svg" xmlns:svg="http://www.w3.org/2000/svg" xmlns:sodipodi="http://sodipodi.sourceforge.net/DTD/sodipodi-0.dtd" xmlns:rdf="http://www.w3.org/1999/02/22-rdf-syntax-ns#" xmlns:inkscape="http://www.inkscape.org/namespaces/inkscape" xmlns:dc="http://purl.org/dc/elements/1.1/" xmlns:cc="http://creativecommons.org/ns#" version="1.1" viewBox="0 0 460.9 914">
  <defs>
    <style>
      .cls-1 {
        fill: #f2f2f2;
      }

      .cls-1, .cls-2, .cls-3, .cls-4, .cls-5, .cls-6, .cls-7, .cls-8 {
        isolation: isolate;
      }

      .cls-1, .cls-2, .cls-4, .cls-6, .cls-7, .cls-8 {
        opacity: 1;
      }

      .cls-9 {
        fill: #22ae87;
      }

      .cls-10, .cls-7 {
        fill: #010101;
      }

      .cls-11 {
        fill: #02814b;
      }

      .cls-12 {
        fill: #868c97;
      }

      .cls-13 {
        fill: #25af88;
      }

      .cls-14 {
        stroke: #fff;
      }

      .cls-14, .cls-15, .cls-16, .cls-17, .cls-18, .cls-19 {
        fill: none;
        stroke-miterlimit: 10;
      }

      .cls-20 {
        fill: #c2bfab;
      }

      .cls-21 {
        fill: #e8d28a;
      }

      .cls-22 {
        fill: #8dddde;
      }

      .cls-23 {
        fill: #cecece;
      }

      .cls-15 {
        stroke: #754c24;
      }

      .cls-24 {
        fill: #c1c1c1;
      }

      .cls-25 {
        fill: #b9a68f;
      }

      .cls-26 {
        fill: #915114;
      }

      .cls-27 {
        fill: #141316;
      }

      .cls-2 {
        fill: #cdcccc;
      }

      .cls-28 {
        fill: #e2eade;
      }

      .cls-29 {
        fill: #915215;
      }

      .cls-30 {
        fill: #474544;
      }

      .cls-31 {
        fill: #ddd;
      }

      .cls-16 {
        stroke: red;
      }

      .cls-4 {
        fill: #b4b4b4;
      }

      .cls-32 {
        fill: #fee86f;
      }

      .cls-33, .cls-8 {
        fill: #fff;
      }

      .cls-34 {
        fill: #c29148;
      }

      .cls-35 {
        fill: #e0b45b;
      }

      .cls-36 {
        fill: #d4c547;
      }

      .cls-17 {
        stroke: #000;
      }

      .cls-37 {
        fill: #29abe2;
      }

      .cls-18 {
        stroke: gray;
        stroke-width: 2px;
      }

      .cls-38 {
        fill: #fcfcfa;
      }

      .cls-5 {
        fill: #ccc;
      }

      .cls-39 {
        fill: #7f7f7f;
      }

      .cls-6 {
        fill: #808181;
      }

      .cls-40 {
        fill: #525035;
      }

      .cls-41 {
        fill: #ffe17b;
      }

      .cls-42 {
        fill: #aba28e;
      }

      .cls-19 {
        stroke: #95ac6e;
      }

      .cls-43 {
        fill: #1b1b1b;
      }

      .cls-44 {
        fill: #36323e;
      }
    </style>
  </defs>
  <!-- Generator: Adobe Illustrator 28.7.0, SVG Export Plug-In . SVG Version: 1.2.0 Build 136)  -->
  <g>
    <g id="Ebene_1">
      <g>
        <path class="cls-11" d="M243.3,332v-11.9H.2v11.9c2.3.9,3.9,3.1,3.9,5.7s-1.6,4.8-3.9,5.7v18.1c2.3.9,3.9,3.1,3.9,5.7s-1.6,4.8-3.9,5.7v18.1c2.3.9,3.9,3.1,3.9,5.7s-1.6,4.8-3.9,5.7v18.1c2.3.9,3.9,3.1,3.9,5.7s-1.6,4.8-3.9,5.7v18.1c2.3.9,3.9,3.1,3.9,5.7s-1.6,4.8-3.9,5.7v17.6c2.3.9,3.9,3.1,3.9,5.7s-1.6,4.8-3.9,5.7v18.1c2.3.9,3.9,3.1,3.9,5.7s-1.6,4.8-3.9,5.7v18.1c2.3.9,3.9,3.1,3.9,5.7s-1.6,4.8-3.9,5.7v18.1c2.3.9,3.9,3.1,3.9,5.7s-1.6,4.8-3.9,5.7v18.1c2.3.9,3.9,3.1,3.9,5.7s-1.6,4.8-3.9,5.7v17.6c2.3.9,3.9,3.1,3.9,5.7s-1.6,4.8-3.9,5.7v18.1c2.3.9,3.9,3.1,3.9,5.7s-1.6,4.8-3.9,5.7v18.1c2.3.9,3.9,3.1,3.9,5.7s-1.6,4.8-3.9,5.7v18.1c2.3.9,3.9,3.1,3.9,5.7s-1.6,4.8-3.9,5.7v18.1c2.3.9,3.9,3.1,3.9,5.7s-1.6,4.8-3.9,5.7v18.1c2.3.9,3.9,3.1,3.9,5.7s-1.6,4.8-3.9,5.7v18.1c2.3.9,3.9,3.1,3.9,5.7s-1.6,4.8-3.9,5.7v18.1c2.3.9,3.9,3.1,3.9,5.7s-1.6,4.8-3.9,5.7v18c2.3.9,3.9,3.1,3.9,5.7s-1.6,4.8-3.9,5.7v18.1c2.3.9,3.9,3.1,3.9,5.7s-1.6,4.8-3.9,5.7v11.9h243.1v-11.9c-2.2-.9-3.8-3.1-3.8-5.7s1.6-4.8,3.8-5.7v-18.1c-2.2-.9-3.8-3.1-3.8-5.7s1.6-4.8,3.8-5.7v-18.1c-2.2-.9-3.8-3.1-3.8-5.7s1.6-4.8,3.8-5.7v-18.1c-2.2-.9-3.8-3.1-3.8-5.7s1.6-4.8,3.8-5.7v-18.1c-2.2-.9-3.8-3.1-3.8-5.7s1.6-4.8,3.8-5.7v-18.1c-2.2-.9-3.8-3.1-3.8-5.7s1.6-4.8,3.8-5.7v-18.1c-2.2-.9-3.8-3.1-3.8-5.7s1.6-4.8,3.8-5.7v-18.1c-2.2-.9-3.8-3.1-3.8-5.7s1.6-4.8,3.8-5.7v-18.1c-2.2-.9-3.8-3.1-3.8-5.7s1.6-4.8,3.8-5.7v-18.1c-2.2-.9-3.8-3.1-3.8-5.7s1.6-4.8,3.8-5.7v-18.1c-2.2-.9-3.8-3.1-3.8-5.7s1.6-4.8,3.8-5.7v-18.1c-2.2-.9-3.8-3.1-3.8-5.7s1.6-4.8,3.8-5.7v-18.1c-2.2-.9-3.8-3.1-3.8-5.7s1.6-4.8,3.8-5.7v-18.1c-2.2-.9-3.8-3.1-3.8-5.7s1.6-4.8,3.8-5.7v-18.1c-2.2-.9-3.8-3.1-3.8-5.7s1.6-4.8,3.8-5.7v-18.1c-2.2-.9-3.8-3.1-3.8-5.7s1.6-4.8,3.8-5.7v-18.1c-2.2-.9-3.8-3.1-3.8-5.7s1.6-4.8,3.8-5.7v-18.1c-2.2-.9-3.8-3.1-3.8-5.7s1.6-4.8,3.8-5.7v-18.1c-2.2-.9-3.8-3.1-3.8-5.7s1.6-4.8,3.8-5.7v-18.1c-2.2-.9-3.8-3.1-3.8-5.7s1.6-3.7,3.8-4.6ZM15.8,902.3c-3.4,0-6.1-2.7-6.1-6.1s2.7-6.1,6.1-6.1,6.1,2.7,6.1,6.1-2.7,6.1-6.1,6.1ZM15.8,872.9c-3.4,0-6.1-2.7-6.1-6.1s2.7-6.1,6.1-6.1,6.1,2.7,6.1,6.1-2.7,6.1-6.1,6.1ZM15.8,843.5c-3.4,0-6.1-2.7-6.1-6.1s2.7-6.1,6.1-6.1,6.1,2.7,6.1,6.1-2.7,6.1-6.1,6.1ZM15.8,814.1c-3.4,0-6.1-2.7-6.1-6.1s2.7-6.1,6.1-6.1,6.1,2.7,6.1,6.1-2.7,6.1-6.1,6.1ZM15.8,784.7c-3.4,0-6.1-2.7-6.1-6.1s2.7-6.1,6.1-6.1,6.1,2.7,6.1,6.1-2.7,6.1-6.1,6.1ZM15.8,755.3c-3.4,0-6.1-2.7-6.1-6.1s2.7-6.1,6.1-6.1,6.1,2.7,6.1,6.1-2.7,6.1-6.1,6.1ZM15.8,725.9c-3.4,0-6.1-2.7-6.1-6.1s2.7-6.1,6.1-6.1,6.1,2.7,6.1,6.1-2.7,6.1-6.1,6.1ZM15.8,696.5c-3.4,0-6.1-2.7-6.1-6.1s2.7-6.1,6.1-6.1,6.1,2.7,6.1,6.1-2.7,6.1-6.1,6.1ZM15.8,667.1c-3.4,0-6.1-2.7-6.1-6.1s2.7-6.1,6.1-6.1,6.1,2.7,6.1,6.1-2.7,6.1-6.1,6.1ZM15.8,637.7c-3.4,0-6.1-2.7-6.1-6.1s2.7-6.1,6.1-6.1,6.1,2.7,6.1,6.1-2.7,6.1-6.1,6.1ZM15.8,608.3c-3.4,0-6.1-2.7-6.1-6.1s2.7-6.1,6.1-6.1,6.1,2.7,6.1,6.1-2.7,6.1-6.1,6.1ZM15.8,578.9c-3.4,0-6.1-2.7-6.1-6.1s2.7-6.1,6.1-6.1,6.1,2.7,6.1,6.1-2.7,6.1-6.1,6.1ZM15.8,549.5c-3.4,0-6.1-2.7-6.1-6.1s2.7-6.1,6.1-6.1,6.1,2.7,6.1,6.1-2.7,6.1-6.1,6.1ZM15.8,520.1c-3.4,0-6.1-2.7-6.1-6.1s2.7-6.1,6.1-6.1,6.1,2.7,6.1,6.1c0,3.4-2.7,6.1-6.1,6.1ZM15.8,490.7c-3.4,0-6.1-2.7-6.1-6.1s2.7-6.1,6.1-6.1,6.1,2.7,6.1,6.1-2.7,6.1-6.1,6.1ZM15.8,461.3c-3.4,0-6.1-2.7-6.1-6.1s2.7-6.1,6.1-6.1,6.1,2.7,6.1,6.1-2.7,6.1-6.1,6.1ZM15.8,431.9c-3.4,0-6.1-2.7-6.1-6.1s2.7-6.1,6.1-6.1,6.1,2.7,6.1,6.1-2.7,6.1-6.1,6.1ZM15.8,402.6c-3.4,0-6.1-2.7-6.1-6.1s2.7-6.1,6.1-6.1,6.1,2.7,6.1,6.1-2.7,6.1-6.1,6.1ZM15.8,373.2c-3.4,0-6.1-2.7-6.1-6.1s2.7-6.1,6.1-6.1,6.1,2.7,6.1,6.1-2.7,6.1-6.1,6.1ZM15.8,343.8c-3.4,0-6.1-2.7-6.1-6.1s2.7-6.1,6.1-6.1,6.1,2.7,6.1,6.1-2.7,6.1-6.1,6.1ZM53.7,902.2c-6.7,0-12.1-5.4-12.1-12.1s5.4-12.1,12.1-12.1,12.1,5.4,12.1,12.1-5.4,12.1-12.1,12.1ZM53.7,355.1c-6.7,0-12.1-5.4-12.1-12.1s5.4-12.1,12.1-12.1,12.1,5.4,12.1,12.1c0,6.7-5.4,12.1-12.1,12.1ZM127.6,688.3c-3.1,0-5.7-2.6-5.7-5.7s2.6-5.7,5.7-5.7,5.7,2.6,5.7,5.7-2.6,5.7-5.7,5.7ZM157,688.3c-3.1,0-5.7-2.6-5.7-5.7s2.6-5.7,5.7-5.7,5.7,2.6,5.7,5.7-2.5,5.7-5.7,5.7ZM186.2,330.8c6.7,0,12.1,5.4,12.1,12.1s-5.4,12.1-12.1,12.1-12.1-5.4-12.1-12.1c0-6.6,5.5-12.1,12.1-12.1ZM192.5,682.6c0,3.1-2.6,5.7-5.7,5.7s-5.7-2.6-5.7-5.7,2.6-5.7,5.7-5.7c3.2,0,5.7,2.6,5.7,5.7ZM188.2,902.2c-6.7,0-12.1-5.4-12.1-12.1s5.4-12.1,12.1-12.1,12.1,5.4,12.1,12.1-5.4,12.1-12.1,12.1ZM227.8,902.3c-3.4,0-6.1-2.7-6.1-6.1s2.7-6.1,6.1-6.1,6.1,2.7,6.1,6.1-2.7,6.1-6.1,6.1ZM227.8,872.9c-3.4,0-6.1-2.7-6.1-6.1s2.7-6.1,6.1-6.1,6.1,2.7,6.1,6.1-2.7,6.1-6.1,6.1ZM227.8,843.5c-3.4,0-6.1-2.7-6.1-6.1s2.7-6.1,6.1-6.1,6.1,2.7,6.1,6.1-2.7,6.1-6.1,6.1ZM227.8,814.1c-3.4,0-6.1-2.7-6.1-6.1s2.7-6.1,6.1-6.1,6.1,2.7,6.1,6.1-2.7,6.1-6.1,6.1ZM227.8,784.7c-3.4,0-6.1-2.7-6.1-6.1s2.7-6.1,6.1-6.1,6.1,2.7,6.1,6.1-2.7,6.1-6.1,6.1ZM227.8,755.3c-3.4,0-6.1-2.7-6.1-6.1s2.7-6.1,6.1-6.1,6.1,2.7,6.1,6.1-2.7,6.1-6.1,6.1ZM227.8,725.9c-3.4,0-6.1-2.7-6.1-6.1s2.7-6.1,6.1-6.1,6.1,2.7,6.1,6.1-2.7,6.1-6.1,6.1ZM227.8,696.5c-3.4,0-6.1-2.7-6.1-6.1s2.7-6.1,6.1-6.1,6.1,2.7,6.1,6.1-2.7,6.1-6.1,6.1ZM227.8,667.1c-3.4,0-6.1-2.7-6.1-6.1s2.7-6.1,6.1-6.1,6.1,2.7,6.1,6.1-2.7,6.1-6.1,6.1ZM227.8,637.7c-3.4,0-6.1-2.7-6.1-6.1s2.7-6.1,6.1-6.1,6.1,2.7,6.1,6.1-2.7,6.1-6.1,6.1ZM227.8,608.3c-3.4,0-6.1-2.7-6.1-6.1s2.7-6.1,6.1-6.1,6.1,2.7,6.1,6.1-2.7,6.1-6.1,6.1ZM227.8,578.9c-3.4,0-6.1-2.7-6.1-6.1s2.7-6.1,6.1-6.1,6.1,2.7,6.1,6.1-2.7,6.1-6.1,6.1ZM227.8,549.5c-3.4,0-6.1-2.7-6.1-6.1s2.7-6.1,6.1-6.1,6.1,2.7,6.1,6.1-2.7,6.1-6.1,6.1ZM227.8,520.1c-3.4,0-6.1-2.7-6.1-6.1s2.7-6.1,6.1-6.1,6.1,2.7,6.1,6.1c0,3.4-2.7,6.1-6.1,6.1ZM227.8,490.7c-3.4,0-6.1-2.7-6.1-6.1s2.7-6.1,6.1-6.1,6.1,2.7,6.1,6.1-2.7,6.1-6.1,6.1ZM227.8,461.3c-3.4,0-6.1-2.7-6.1-6.1s2.7-6.1,6.1-6.1,6.1,2.7,6.1,6.1-2.7,6.1-6.1,6.1ZM227.8,431.9c-3.4,0-6.1-2.7-6.1-6.1s2.7-6.1,6.1-6.1,6.1,2.7,6.1,6.1-2.7,6.1-6.1,6.1ZM227.8,402.6c-3.4,0-6.1-2.7-6.1-6.1s2.7-6.1,6.1-6.1,6.1,2.7,6.1,6.1-2.7,6.1-6.1,6.1ZM227.8,373.2c-3.4,0-6.1-2.7-6.1-6.1s2.7-6.1,6.1-6.1,6.1,2.7,6.1,6.1-2.7,6.1-6.1,6.1ZM227.8,343.8c-3.4,0-6.1-2.7-6.1-6.1s2.7-6.1,6.1-6.1,6.1,2.7,6.1,6.1-2.7,6.1-6.1,6.1Z"/>
        <path class="cls-36" d="M53.7,322.4c-11.3,0-20.5,9.2-20.5,20.5s9.2,20.5,20.5,20.5,20.5-9.2,20.5-20.5c.1-11.3-9.1-20.5-20.5-20.5ZM53.7,355.1c-6.7,0-12.1-5.4-12.1-12.1s5.4-12.1,12.1-12.1,12.1,5.4,12.1,12.1c0,6.7-5.4,12.1-12.1,12.1Z"/>
        <path class="cls-36" d="M186.3,322.4c-11.3,0-20.5,9.2-20.5,20.5s9.2,20.5,20.5,20.5,20.5-9.2,20.5-20.5-9.2-20.5-20.5-20.5ZM186.3,355.1c-6.7,0-12.1-5.4-12.1-12.1s5.4-12.1,12.1-12.1,12.1,5.4,12.1,12.1c0,6.7-5.4,12.1-12.1,12.1Z"/>
        <path class="cls-36" d="M53.7,869.6c-11.3,0-20.5,9.2-20.5,20.5s9.2,20.5,20.5,20.5,20.5-9.2,20.5-20.5-9.1-20.5-20.5-20.5ZM53.7,902.3c-6.7,0-12.1-5.4-12.1-12.1s5.4-12.2,12.1-12.2,12.1,5.4,12.1,12.1-5.4,12.2-12.1,12.2Z"/>
        <path class="cls-36" d="M188.3,869.6c-11.3,0-20.5,9.2-20.5,20.5s9.2,20.5,20.5,20.5,20.5-9.2,20.5-20.5-9.2-20.5-20.5-20.5ZM188.3,902.3c-6.7,0-12.1-5.4-12.1-12.1s5.4-12.1,12.1-12.1,12.1,5.4,12.1,12.1-5.4,12.1-12.1,12.1Z"/>
        <circle class="cls-40" cx="55" cy="407.7" r="10.6"/>
        <circle class="cls-32" cx="55" cy="407.7" r="5.5"/>
        <path class="cls-41" d="M17.5,387.5H.3v3.4c2.3.9,3.9,3.1,3.9,5.7s-1.6,4.8-3.9,5.7v3.4h17.2c5,0,9-4,9-9h0c0-5.2-4.1-9.2-9-9.2ZM15.9,402.6c-3.4,0-6.1-2.7-6.1-6.1s2.7-6.1,6.1-6.1,6.1,2.7,6.1,6.1-2.8,6.1-6.1,6.1Z"/>
        <path class="cls-41" d="M17.5,534.5H.3v3.4c2.3.9,3.9,3.1,3.9,5.7s-1.6,4.8-3.9,5.7v3.4h17.2c5,0,9-4,9-9s-4.1-9.2-9-9.2ZM15.9,549.6c-3.4,0-6.1-2.7-6.1-6.1s2.7-6.1,6.1-6.1,6.1,2.7,6.1,6.1-2.8,6.1-6.1,6.1Z"/>
        <path class="cls-41" d="M17.5,681.4H.3v3.4c2.3.9,3.9,3.1,3.9,5.7s-1.6,4.8-3.9,5.7v3.4h17.2c5,0,9-4,9-9s-4.1-9.2-9-9.2ZM15.9,696.5c-3.4,0-6.1-2.7-6.1-6.1s2.7-6.1,6.1-6.1,6.1,2.7,6.1,6.1-2.8,6.1-6.1,6.1Z"/>
        <path class="cls-41" d="M17.5,710.8H.3v3.4c2.3.9,3.9,3.1,3.9,5.7s-1.6,4.8-3.9,5.7v3.4h17.2c5,0,9-4,9-9s-4.1-9.2-9-9.2ZM15.9,725.9c-3.4,0-6.1-2.7-6.1-6.1s2.7-6.1,6.1-6.1,6.1,2.7,6.1,6.1-2.8,6.1-6.1,6.1Z"/>
        <path class="cls-41" d="M17.5,740.2H.3v3.4c2.3.9,3.9,3.1,3.9,5.7s-1.6,4.8-3.9,5.7v3.4h17.2c5,0,9-4,9-9s-4.1-9.2-9-9.2ZM15.9,755.3c-3.4,0-6.1-2.7-6.1-6.1s2.7-6.1,6.1-6.1,6.1,2.7,6.1,6.1-2.8,6.1-6.1,6.1Z"/>
        <path class="cls-41" d="M17.5,769.6H.3v3.4c2.3.9,3.9,3.1,3.9,5.7s-1.6,4.8-3.9,5.7v3.4h17.2c5,0,9-4,9-9s-4.1-9.2-9-9.2ZM15.9,784.7c-3.4,0-6.1-2.7-6.1-6.1s2.7-6.1,6.1-6.1,6.1,2.7,6.1,6.1-2.8,6.1-6.1,6.1Z"/>
        <path class="cls-41" d="M17.5,828.4H.3v3.4c2.3.9,3.9,3.1,3.9,5.7s-1.6,4.8-3.9,5.7v3.4h17.2c5,0,9-4,9-9h0c0-5.2-4.1-9.2-9-9.2ZM15.9,843.5c-3.4,0-6.1-2.7-6.1-6.1s2.7-6.1,6.1-6.1,6.1,2.7,6.1,6.1-2.8,6.1-6.1,6.1Z"/>
        <path class="cls-41" d="M17.5,857.8H.3v3.4c2.3.9,3.9,3.1,3.9,5.7s-1.6,4.8-3.9,5.7v3.4h17.2c5,0,9-4,9-9h0c0-5.2-4.1-9.2-9-9.2ZM15.9,872.9c-3.4,0-6.1-2.7-6.1-6.1s2.7-6.1,6.1-6.1,6.1,2.7,6.1,6.1-2.8,6.1-6.1,6.1Z"/>
        <path class="cls-41" d="M17.5,887.2H.3v3.4c2.3.9,3.9,3.1,3.9,5.7s-1.6,4.8-3.9,5.7v3.4h17.2c5,0,9-4,9-9s-4.1-9.2-9-9.2ZM15.9,902.3c-3.4,0-6.1-2.7-6.1-6.1s2.7-6.1,6.1-6.1,6.1,2.7,6.1,6.1-2.8,6.1-6.1,6.1Z"/>
        <path class="cls-41" d="M239.5,337.7c0-2.6,1.6-4.8,3.9-5.7v-3.4h-17.2c-5,0-9,4-9,9s4,9,9,9h17.2v-3.4c-2.2-.7-3.9-2.9-3.9-5.5ZM227.8,343.8c-3.4,0-6.1-2.7-6.1-6.1s2.7-6.1,6.1-6.1,6.1,2.7,6.1,6.1-2.7,6.1-6.1,6.1Z"/>
        <path class="cls-41" d="M239.5,367.1c0-2.6,1.6-4.8,3.9-5.7v-3.4h-17.2c-5,0-9,4-9,9h0c0,5,4,9,9,9h17.2v-3.4c-2.2-.7-3.9-2.9-3.9-5.5ZM227.8,373.2c-3.4,0-6.1-2.7-6.1-6.1s2.7-6.1,6.1-6.1,6.1,2.7,6.1,6.1-2.7,6.1-6.1,6.1Z"/>
        <path class="cls-41" d="M239.5,396.5c0-2.6,1.6-4.8,3.9-5.7v-3.4h-17.2c-5,0-9,4-9,9h0c0,5,4,9,9,9h17.2v-3.4c-2.2-.7-3.9-2.9-3.9-5.5ZM227.8,402.6c-3.4,0-6.1-2.7-6.1-6.1s2.7-6.1,6.1-6.1,6.1,2.7,6.1,6.1-2.7,6.1-6.1,6.1Z"/>
        <path class="cls-41" d="M239.5,425.9c0-2.6,1.6-4.8,3.9-5.7v-3.4h-17.2c-5,0-9,4-9,9s4,9,9,9h17.2v-3.4c-2.2-.7-3.9-2.9-3.9-5.5ZM227.8,432c-3.4,0-6.1-2.7-6.1-6.1s2.7-6.1,6.1-6.1,6.1,2.7,6.1,6.1-2.7,6.1-6.1,6.1Z"/>
        <path class="cls-41" d="M239.5,455.3c0-2.6,1.6-4.8,3.9-5.7v-3.4h-17.2c-5,0-9,4-9,9s4,9,9,9h17.2v-3.2c-2.2-.9-3.9-3.1-3.9-5.7ZM227.8,461.4c-3.4,0-6.1-2.7-6.1-6.1s2.7-6.1,6.1-6.1,6.1,2.7,6.1,6.1-2.7,6.1-6.1,6.1Z"/>
        <path class="cls-41" d="M239.5,484.7c0-2.6,1.6-4.8,3.9-5.7v-3.4h-17.2c-5,0-9,4-9,9s4,9,9,9h17.2v-3.4c-2.2-.7-3.9-2.9-3.9-5.5ZM227.8,490.8c-3.4,0-6.1-2.7-6.1-6.1s2.7-6.1,6.1-6.1,6.1,2.7,6.1,6.1-2.7,6.1-6.1,6.1Z"/>
        <path class="cls-41" d="M239.5,543.5c0-2.6,1.6-4.8,3.9-5.7v-3.4h-17.2c-5,0-9,4-9,9s4,9,9,9h17.2v-3.4c-2.2-.7-3.9-2.9-3.9-5.5ZM227.8,549.6c-3.4,0-6.1-2.7-6.1-6.1s2.7-6.1,6.1-6.1,6.1,2.7,6.1,6.1-2.7,6.1-6.1,6.1Z"/>
        <path class="cls-41" d="M239.5,602.3c0-2.6,1.6-4.8,3.9-5.7v-3.4h-17.2c-5,0-9,4-9,9h0c0,5,4,9,9,9h17.2v-3.4c-2.2-.8-3.9-3-3.9-5.5ZM227.8,608.3c-3.4,0-6.1-2.7-6.1-6.1s2.7-6.1,6.1-6.1,6.1,2.7,6.1,6.1-2.7,6.1-6.1,6.1Z"/>
        <path class="cls-41" d="M239.5,631.7c0-2.6,1.6-4.8,3.9-5.7v-3.4h-17.2c-5,0-9,4-9,9h0c0,5,4,9,9,9h17.2v-3.4c-2.2-.8-3.9-3-3.9-5.5ZM227.8,637.7c-3.4,0-6.1-2.7-6.1-6.1s2.7-6.1,6.1-6.1,6.1,2.7,6.1,6.1-2.7,6.1-6.1,6.1Z"/>
        <path class="cls-41" d="M239.5,661.1c0-2.6,1.6-4.8,3.9-5.7v-3.4h-17.2c-5,0-9,4-9,9s4,9,9,9h17.2v-3.4c-2.2-.8-3.9-3-3.9-5.5ZM227.8,667.1c-3.4,0-6.1-2.7-6.1-6.1s2.7-6.1,6.1-6.1,6.1,2.7,6.1,6.1-2.7,6.1-6.1,6.1Z"/>
        <path class="cls-41" d="M239.5,690.5c0-2.6,1.6-4.8,3.9-5.7v-3.4h-17.2c-5,0-9,4-9,9s4,9,9,9h17.2v-3.4c-2.2-.8-3.9-3-3.9-5.5ZM227.8,696.5c-3.4,0-6.1-2.7-6.1-6.1s2.7-6.1,6.1-6.1,6.1,2.7,6.1,6.1-2.7,6.1-6.1,6.1Z"/>
        <path class="cls-41" d="M239.5,719.8c0-2.6,1.6-4.8,3.9-5.7v-3.4h-17.2c-5,0-9,4-9,9s4,9,9,9h17.2v-3.4c-2.2-.7-3.9-2.9-3.9-5.5ZM227.8,725.9c-3.4,0-6.1-2.7-6.1-6.1s2.7-6.1,6.1-6.1,6.1,2.7,6.1,6.1-2.7,6.1-6.1,6.1Z"/>
        <path class="cls-41" d="M239.5,749.2c0-2.6,1.6-4.8,3.9-5.7v-3.4h-17.2c-5,0-9,4-9,9s4,9,9,9h17.2v-3.4c-2.2-.7-3.9-2.9-3.9-5.5ZM227.8,755.3c-3.4,0-6.1-2.7-6.1-6.1s2.7-6.1,6.1-6.1,6.1,2.7,6.1,6.1-2.7,6.1-6.1,6.1Z"/>
        <path class="cls-41" d="M239.5,778.6c0-2.6,1.6-4.8,3.9-5.7v-3.4h-17.2c-5,0-9,4-9,9s4,9,9,9h17.2v-3.4c-2.2-.7-3.9-2.9-3.9-5.5ZM227.8,784.7c-3.4,0-6.1-2.7-6.1-6.1s2.7-6.1,6.1-6.1,6.1,2.7,6.1,6.1-2.7,6.1-6.1,6.1Z"/>
        <path class="cls-41" d="M239.5,837.4c0-2.6,1.6-4.8,3.9-5.7v-3.4h-17.2c-5,0-9,4-9,9h0c0,5,4,9,9,9h17.2v-3.4c-2.2-.7-3.9-2.9-3.9-5.5ZM227.8,843.5c-3.4,0-6.1-2.7-6.1-6.1s2.7-6.1,6.1-6.1,6.1,2.7,6.1,6.1-2.7,6.1-6.1,6.1Z"/>
        <path class="cls-41" d="M239.5,866.8c0-2.6,1.6-4.8,3.9-5.7v-3.4h-17.2c-5,0-9,4-9,9h0c0,5,4,9,9,9h17.2v-3.4c-2.2-.7-3.9-2.9-3.9-5.5ZM227.8,872.9c-3.4,0-6.1-2.7-6.1-6.1s2.7-6.1,6.1-6.1,6.1,2.7,6.1,6.1-2.7,6.1-6.1,6.1Z"/>
        <path class="cls-31" d="M163.1,309.6l4.4-4.4-2.3-2.3-6.6,6.6h-1.5v-4.7c0-1.2-1-2.2-2.2-2.2h-69.5c-1.2,0-2.2,1-2.2,2.2v4.7h-1.5l-6.6-6.6-2.3,2.3,4.4,4.4c-.6.2-1,.8-1,1.4v56.3c0,.9.7,1.6,1.6,1.6h84.6c.9,0,1.6-.7,1.6-1.6v-56.3c0-.6-.4-1.2-.9-1.4Z"/>
        <g>
          <path class="cls-39" d="M100.3,331.9c0-3.2-2.6-5.8-5.8-5.8s-5.8,2.6-5.8,5.8.5,2.7,1.3,3.7h-.2v7.7c0,1.2,1,2.1,2.1,2.1h5.1c1.2,0,2.1-1,2.1-2.1v-7.7h0c.8-1,1.3-2.3,1.3-3.7Z"/>
          <path class="cls-39" d="M155.5,331.9c0-3.2-2.6-5.8-5.8-5.8s-5.8,2.6-5.8,5.8.5,2.7,1.3,3.7h-.2v7.7c0,1.2,1,2.1,2.1,2.1h5.1c1.2,0,2.1-1,2.1-2.1v-7.7h-.2c.9-1,1.4-2.3,1.4-3.7Z"/>
        </g>
        <path class="cls-30" d="M200.9,462h-21c-1.2,0-2.2-1-2.2-2.2v-26.7c0-1.2,1-2.2,2.2-2.2h21c1.2,0,2.2,1,2.2,2.2v26.7c0,1.3-1,2.2-2.2,2.2Z"/>
        <g>
          <rect class="cls-28" x="132" y="398.2" width="21.7" height="14.4"/>
          <path class="cls-34" d="M149.3,412.6c-2-1.8-3.2-4.4-3.2-7.2s1.2-5.4,3.2-7.2h-12.8c2,1.8,3.2,4.4,3.2,7.2s-1.2,5.4-3.2,7.2h12.8Z"/>
        </g>
        <g>
          <rect class="cls-28" x="132.3" y="483.5" width="21.7" height="14.4"/>
          <path class="cls-34" d="M149.6,498c-2-1.8-3.2-4.4-3.2-7.2s1.2-5.4,3.2-7.2h-12.8c2,1.8,3.2,4.4,3.2,7.2s-1.2,5.4-3.2,7.2h12.8Z"/>
        </g>
        <g>
          <rect class="cls-28" x="132.3" y="502.7" width="21.7" height="14.4"/>
          <path class="cls-34" d="M149.6,517.2c-2-1.8-3.2-4.4-3.2-7.2s1.2-5.4,3.2-7.2h-12.8c2,1.8,3.2,4.4,3.2,7.2s-1.2,5.4-3.2,7.2h12.8Z"/>
        </g>
        <g>
          <rect class="cls-28" x="61.2" y="553.7" width="10.6" height="5.4"/>
          <rect class="cls-34" x="63.5" y="553.7" width="6" height="5.4"/>
        </g>
        <g>
          <rect class="cls-28" x="177.1" y="533.7" width="5.4" height="10.6"/>
          <rect class="cls-34" x="177.1" y="536" width="5.4" height="6"/>
        </g>
        <rect class="cls-30" x="179.5" y="383.6" width="18.9" height="29.3"/>
        <g>
          <rect class="cls-28" x="171.6" y="484.9" width="20.6" height="9.6"/>
          <rect class="cls-22" x="176.2" y="484.9" width="11.5" height="9.6"/>
        </g>
        <rect class="cls-34" x="120.2" y="653" width="4.2" height="6.9"/>
        <rect class="cls-34" x="126.9" y="653" width="4.2" height="6.9"/>
        <rect class="cls-34" x="65.3" y="564.3" width="6.9" height="4.2"/>
        <rect class="cls-34" x="88.2" y="497.2" width="6.9" height="4.2"/>
        <rect class="cls-34" x="65" y="607.9" width="6.9" height="4.2"/>
        <rect class="cls-30" x="195" y="611.8" width="4.2" height="6.9"/>
        <rect class="cls-30" x="187.9" y="551.9" width="6.9" height="4.2"/>
        <rect class="cls-30" x="85.9" y="396.2" width="6.9" height="4.2"/>
        <rect class="cls-30" x="81" y="408.5" width="6.9" height="4.2"/>
        <rect class="cls-30" x="191.6" y="500.9" width="6.9" height="4.2"/>
        <path class="cls-24" d="M186.3,816.7H57.5c-2.1,0-3.9-1.7-3.9-3.9v-108.1c0-2.1,1.7-3.9,3.9-3.9h128.8c2.1,0,3.9,1.7,3.9,3.9v108.1c0,2.1-1.7,3.9-3.9,3.9Z"/>
        <rect class="cls-20" x="101.5" y="862.9" width="10.5" height="5.9"/>
        <rect class="cls-20" x="130.3" y="863.1" width="10.5" height="5.9"/>
        <rect class="cls-20" x="101.5" y="900.7" width="10.5" height="5.9"/>
        <rect class="cls-20" x="130.3" y="900.9" width="10.5" height="5.9"/>
        <polyline class="cls-19" points="17.5 345.5 17.5 349.9 35.4 367.8 35.4 416.4 51 432 51 566.8 55.9 571.7 91.2 571.7"/>
        <polyline class="cls-19" points="22.9 372.3 31 380.4 31 418.3 46.7 434 46.7 569.2 52.6 575.2 91 575.2"/>
        <polyline class="cls-19" points="23.2 430.8 43 450.5 43 571.7 53.4 582.1 95 582.1"/>
        <polyline class="cls-19" points="23.2 460.2 39.8 476.7 39.8 573.6 51.9 585.8 95.1 585.8"/>
        <polyline class="cls-19" points="23.2 490.3 35.6 502.7 35.6 578.7 49.5 592.6 93.4 592.6"/>
        <polyline class="cls-19" points="22.9 518.5 31.6 527.2 31.6 581.3 46.4 596.1 96.1 596.1"/>
        <polyline class="cls-19" points="22.9 577.1 45.3 599.6 102.7 599.6"/>
        <line class="cls-19" x1="23.7" y1="603.1" x2="98.8" y2="603.1"/>
        <path class="cls-19" d="M23.2,629.4c.1-.6,17.3-17.3,17.3-17.3h12.5l4.9,4.9h45.7"/>
        <polyline class="cls-19" points="20.4 655.3 25.7 650 25.7 642.2 30.9 637 30.9 628.6 43.9 615.6 52.6 615.6 57.3 620.2 95.3 620.2"/>
        <path class="cls-19" d="M30.7,645.5l3.4-3.4s-.7-8.9,0-9.6c.7-.7,6-6,6-6l6.3-6.3h6.1l3.7,3.7h35.1"/>
        <polyline class="cls-19" points="29.1 701.4 29.1 653.8 38.7 644.2 93.4 644.2 95 642.6 95 632.9"/>
        <polyline class="cls-19" points="17.5 799.7 17.5 796 32.9 780.6 32.9 700.3 35.7 697.6 35.7 655.7 42 649.4 94.2 649.4 98.4 645.2 98.4 637.9"/>
        <path class="cls-19" d="M35.7,683.2"/>
        <path class="cls-19" d="M35.7,698.5"/>
        <polyline class="cls-19" points="23.6 860.2 30.4 853.5 30.4 788.9 37.5 783"/>
        <polyline class="cls-19" points="35.6 793.3 42.6 786.2 42.6 696.5 39.9 693.8 39.9 657 44.6 652.3 94.9 652.3 101.9 645.3 101.9 628.7"/>
        <polyline class="cls-19" points="108.9 635.5 108.9 644.2 95.9 657.3 91.5 657.3"/>
        <polyline class="cls-19" points="93.9 665.9 112.4 647.3 112.4 632"/>
        <polyline class="cls-19" points="115.9 637.3 115.9 649 102.2 662.7 102.2 682.7 95.9 689 65 689 55.5 679.5"/>
        <polyline class="cls-19" points="133.9 676.3 138.7 671.5 138.7 658.2 135.5 655 135.5 645 132.4 641.9 132.4 631"/>
        <polyline class="cls-19" points="137.3 635 137.3 642.9 139.3 644.9 139.3 651.3 152.7 664.7 164.9 664.7 179.1 678.9"/>
        <polyline class="cls-19" points="145.3 632.9 145.3 643.2 151.3 649.2 172.3 649.2 200.5 677.5 200.5 790.1 206.7 796.3 206.7 847.1 212.3 852.7 212.3 872.9 223.3 884 223.3 889.3"/>
        <polyline class="cls-19" points="150.7 633.3 150.7 640.6 154.7 644.6 173.6 644.6 205.2 676.2 205.2 787.7 211.4 793.9 211.4 846.5 215.6 850.6 215.6 859.4"/>
        <polyline class="cls-19" points="157.5 628.1 165.3 628.1 211.1 674 211.1 785.6 227.2 801.7"/>
        <polyline class="cls-19" points="157.5 623.7 166.9 623.7 192.1 648.9"/>
        <polyline class="cls-19" points="158.6 618.6 166.6 618.6 190.1 642.1 195.5 642.1 206.3 652.9 206.3 659.8"/>
        <polyline class="cls-19" points="158.2 614.1 167.3 614.1 190.4 637.2 200.9 637.2"/>
        <polyline class="cls-19" points="158.2 610 169.1 610 174.1 615"/>
        <polyline class="cls-19" points="158.2 605 175.4 605 202.8 632.4 206.3 632.4 215.9 642 215.9 654.4"/>
        <line class="cls-19" x1="158.6" y1="599.6" x2="167.7" y2="599.6"/>
        <polyline class="cls-19" points="156.4 594.2 171.8 594.2 179.2 601.5"/>
        <polyline class="cls-19" points="187.9 614.1 192.4 609.6 192.4 590.3 203.4 590.3"/>
        <polyline class="cls-19" points="158.6 585.8 209.5 585.8 218.5 594.7"/>
        <polyline class="cls-19" points="158.2 581.3 213.8 581.3 220.3 574.9"/>
        <polyline class="cls-19" points="157.5 577.1 198.8 577.1 207.1 568.9 207.1 528.6 219.6 516.1"/>
        <polyline class="cls-19" points="158.6 572.9 179.1 572.9 202.4 549.6 202.4 526.8"/>
        <polyline class="cls-19" points="159.7 568.2 167.2 568.2 171.8 563.5"/>
        <path class="cls-19" d="M147.8,562.9c-.2-.3,9.2-9.2,9.2-9.2h15.6v-33.5l2.8-2.8v-7.7"/>
        <path class="cls-19" d="M147,560.6v-6.5l10.3-10.3"/>
        <polyline class="cls-19" points="140.1 561.6 140.1 550.8 147.4 543.4"/>
        <line class="cls-19" x1="136.6" y1="558.5" x2="136.6" y2="541"/>
        <path class="cls-19" d="M133.1,560.3v-15.2l-4.2-4.2"/>
        <path class="cls-19" d="M122.6,559.9v-20.7"/>
        <path class="cls-19" d="M119.2,561.6v-11.1l-7.6-7.6"/>
        <polyline class="cls-19" points="115.6 561.1 115.6 554.7 101.8 540.9 101.8 534.5 105 531.2 108.9 531.2 111.5 528.6 111.5 518.1 106.1 512.7 100 512.7"/>
        <polyline class="cls-19" points="99.8 518.5 105.4 518.5 108.5 521.6 108.5 526.8 105.7 529.5 101.1 529.5 97.7 532.9 97.7 542 108.7 553 108.7 559.7"/>
        <polyline class="cls-19" points="91.3 523 91.3 539.7 105.2 553.7 105.2 563.1"/>
        <polyline class="cls-19" points="76.5 522.2 76.5 529.4 85.9 538.7 85.9 542.6 99 555.7 99 564.7"/>
        <path class="cls-19" d="M94.8,558.8v-5l-11.7-11.7v-1.1l-4.5-4.5h-6.4l-1.7-1.7h-6.9l-6.7-6.7v-14.4l1.6-1.6h8.8"/>
        <polyline class="cls-19" points="69.1 506.1 60.4 506.1 55.4 511.1 55.4 528.9 63.4 536.9 69.5 536.9 75.9 543.3 78.4 543.3 92.5 557.3"/>
        <line class="cls-19" x1="73.8" y1="479.4" x2="56" y2="497.2"/>
        <polyline class="cls-19" points="137.6 540 137.6 533.9 134.7 530.9 134.7 527.9 130.2 523.5 125.2 523.5 121.1 519.4 121.1 500.4 109.7 489 109.7 406.8 124 392.5 124 383.4 127.7 379.7"/>
        <path class="cls-19" d="M135.3,432.7v-9l-3.1-3.1h-9.8l-4.5-4.5v-4.3"/>
        <polyline class="cls-19" points="129.3 465 129.3 470.4 126.1 473.6 120.2 473.6 118.6 475.1"/>
        <polyline class="cls-19" points="62.9 378.2 62.9 387.6 79.1 403.8 83.6 403.8 88.5 408.6 88.5 416.9 83.9 421.4 83.9 434.9"/>
        <rect class="cls-21" x="45.6" y="371" width="18.9" height="9.6"/>
        <g>
          <rect class="cls-23" x="102.7" y="368.9" width="4.3" height="11.5"/>
          <rect class="cls-23" x="110.4" y="368.9" width="4.3" height="11.5"/>
          <rect class="cls-23" x="118.1" y="368.9" width="4.3" height="11.5"/>
          <rect class="cls-23" x="125.7" y="368.9" width="4.3" height="11.5"/>
          <rect class="cls-23" x="133.4" y="368.9" width="4.3" height="11.5"/>
        </g>
        <g>
          <path class="cls-33" d="M106.8,389.7v-5.5h2.5v5.8c0,2,.6,2.7,1.7,2.7s1.8-.7,1.8-2.7v-5.8h2.4v5.5c0,3.5-1.4,5.1-4.2,5.1s-4.2-1.6-4.2-5.1Z"/>
          <path class="cls-33" d="M116.7,393.2l1.3-1.6c.7.6,1.7,1,2.6,1s1.4-.4,1.4-.9-.6-.8-1.5-1.2l-1.3-.6c-1.1-.4-2.1-1.3-2.1-2.8s1.6-3.2,3.8-3.2,2.5.5,3.4,1.3l-1.3,1.6c-.7-.5-1.4-.8-2.1-.8s-1.3.3-1.3.8.7.8,1.6,1.2l1.3.5c1.3.5,2.1,1.4,2.1,2.8s-1.5,3.3-4,3.3c-1.5.2-2.8-.3-3.9-1.4Z"/>
          <path class="cls-33" d="M126.3,384.2h3.6c2.2,0,3.9.6,3.9,2.6s-.5,1.9-1.4,2.2h0c1.1.4,1.9,1.2,1.9,2.5,0,2.1-1.8,3.1-4.1,3.1h-3.9s0-10.4,0-10.4ZM129.8,388.3c1.1,0,1.5-.5,1.5-1.2s-.5-1.1-1.5-1.1h-1.1v2.2h1.1ZM130,392.7c1.2,0,1.8-.4,1.8-1.3s-.6-1.2-1.8-1.2h-1.2v2.5h1.2Z"/>
        </g>
        <path class="cls-44" d="M170.2,465.6h-45.7c-.5,0-1-.4-1-1v-33.5c0-.5.4-1,1-1h45.7c.5,0,1,.4,1,1v33.5c0,.5-.5,1-1,1Z"/>
        <g>
          <rect class="cls-23" x="128.6" y="425.9" width="1.4" height="4.1"/>
          <rect class="cls-23" x="134.6" y="425.9" width="1.4" height="4.1"/>
          <rect class="cls-23" x="140.6" y="425.9" width="1.4" height="4.1"/>
          <rect class="cls-23" x="146.6" y="425.9" width="1.4" height="4.1"/>
          <rect class="cls-23" x="152.6" y="425.9" width="1.4" height="4.1"/>
          <rect class="cls-23" x="158.6" y="425.9" width="1.4" height="4.1"/>
          <rect class="cls-23" x="164.6" y="425.9" width="1.4" height="4.1"/>
        </g>
        <g>
          <rect class="cls-23" x="128.6" y="465.6" width="1.4" height="4.1"/>
          <rect class="cls-23" x="134.6" y="465.6" width="1.4" height="4.1"/>
          <rect class="cls-23" x="140.6" y="465.6" width="1.4" height="4.1"/>
          <rect class="cls-23" x="146.6" y="465.6" width="1.4" height="4.1"/>
          <rect class="cls-23" x="152.6" y="465.6" width="1.4" height="4.1"/>
          <rect class="cls-23" x="158.6" y="465.6" width="1.4" height="4.1"/>
          <rect class="cls-23" x="164.6" y="465.6" width="1.4" height="4.1"/>
        </g>
        <g>
          <rect class="cls-12" x="61.4" y="433.9" width="39.3" height="48.9"/>
          <path class="cls-38" d="M81,476.7h0c-7.6,0-13.7-6.1-13.7-13.7v-9.1c0-7.6,6.1-13.7,13.7-13.7h0c7.6,0,13.7,6.1,13.7,13.7v9.1c0,7.5-6.1,13.7-13.7,13.7Z"/>
          <path class="cls-38" d="M61.4,444.2h0v-10.3h10.3c-.1,5.7-4.6,10.3-10.3,10.3Z"/>
          <path class="cls-38" d="M71.6,482.9h-10.2v-10.3h0c5.7,0,10.2,4.6,10.2,10.3h0Z"/>
          <path class="cls-38" d="M100.7,444.2h0c-5.7,0-10.3-4.6-10.3-10.3h10.3v10.3Z"/>
          <path class="cls-38" d="M100.7,482.9h-10.3c0-5.7,4.6-10.3,10.3-10.3h0s0,10.3,0,10.3Z"/>
        </g>
        <g>
          <rect class="cls-44" x="64.9" y="503.4" width="34.6" height="22.9"/>
          <g>
            <rect class="cls-23" x="60.7" y="504.6" width="4.2" height="3.4"/>
            <rect class="cls-23" x="60.7" y="510.3" width="4.2" height="3.4"/>
            <rect class="cls-23" x="60.7" y="516" width="4.2" height="3.4"/>
            <rect class="cls-23" x="60.7" y="521.8" width="4.2" height="3.4"/>
          </g>
          <g>
            <rect class="cls-23" x="99.5" y="504.6" width="4.2" height="3.4"/>
            <rect class="cls-23" x="99.5" y="510.3" width="4.2" height="3.4"/>
            <rect class="cls-23" x="99.5" y="516" width="4.2" height="3.4"/>
            <rect class="cls-23" x="99.5" y="521.8" width="4.2" height="3.4"/>
          </g>
        </g>
        <rect class="cls-30" x="135.5" y="534.9" width="4.2" height="6.9"/>
        <g>
          <path class="cls-27" d="M160.4,638.7h-79c-.7,0-1.3-.6-1.3-1.3v-79.1c0-.7.6-1.3,1.3-1.3h79.1c.7,0,1.3.6,1.3,1.3v79.1c-.1.7-.7,1.3-1.4,1.3Z"/>
          <g>
            <rect class="cls-23" x="86.2" y="555.1" width="3.1" height="1.9"/>
            <rect class="cls-23" x="89.7" y="555.1" width="3.1" height="1.9"/>
            <rect class="cls-23" x="93.2" y="555.1" width="3.1" height="1.9"/>
            <rect class="cls-23" x="96.7" y="555.1" width="3.1" height="1.9"/>
            <rect class="cls-23" x="100.2" y="555.1" width="3.1" height="1.9"/>
            <rect class="cls-23" x="103.6" y="555.1" width="3.1" height="1.9"/>
            <rect class="cls-23" x="107.1" y="555.1" width="3.1" height="1.9"/>
            <rect class="cls-23" x="114.1" y="555.1" width="3.1" height="1.9"/>
            <rect class="cls-23" x="121.1" y="555.1" width="3.1" height="1.9"/>
            <rect class="cls-23" x="128" y="555.1" width="3.1" height="1.9"/>
            <rect class="cls-23" x="138.5" y="555.1" width="3.1" height="1.9"/>
            <rect class="cls-23" x="142" y="555.1" width="3.1" height="1.9"/>
            <rect class="cls-23" x="149" y="555.1" width="3.1" height="1.9"/>
            <rect class="cls-23" x="110.6" y="555.1" width="3.1" height="1.9"/>
            <rect class="cls-23" x="117.6" y="555.1" width="3.1" height="1.9"/>
            <rect class="cls-23" x="124.6" y="555.1" width="3.1" height="1.9"/>
            <rect class="cls-23" x="131.5" y="555.1" width="3.1" height="1.9"/>
            <rect class="cls-23" x="135" y="555.1" width="3.1" height="1.9"/>
            <rect class="cls-23" x="145.5" y="555.1" width="3.1" height="1.9"/>
            <rect class="cls-23" x="152.4" y="555.1" width="3.1" height="1.9"/>
          </g>
          <g>
            <rect class="cls-23" x="86.4" y="638.7" width="3.1" height="1.9"/>
            <rect class="cls-23" x="89.9" y="638.7" width="3.1" height="1.9"/>
            <rect class="cls-23" x="93.4" y="638.7" width="3.1" height="1.9"/>
            <rect class="cls-23" x="96.9" y="638.7" width="3.1" height="1.9"/>
            <rect class="cls-23" x="100.4" y="638.7" width="3.1" height="1.9"/>
            <rect class="cls-23" x="103.8" y="638.7" width="3.1" height="1.9"/>
            <rect class="cls-23" x="107.3" y="638.7" width="3.1" height="1.9"/>
            <rect class="cls-23" x="114.3" y="638.7" width="3.1" height="1.9"/>
            <rect class="cls-23" x="121.3" y="638.7" width="3.1" height="1.9"/>
            <rect class="cls-23" x="128.2" y="638.7" width="3.1" height="1.9"/>
            <rect class="cls-23" x="138.7" y="638.7" width="3.1" height="1.9"/>
            <rect class="cls-23" x="142.2" y="638.7" width="3.1" height="1.9"/>
            <rect class="cls-23" x="149.1" y="638.7" width="3.1" height="1.9"/>
            <rect class="cls-23" x="110.8" y="638.7" width="3.1" height="1.9"/>
            <rect class="cls-23" x="117.8" y="638.7" width="3.1" height="1.9"/>
            <rect class="cls-23" x="124.7" y="638.7" width="3.1" height="1.9"/>
            <rect class="cls-23" x="131.7" y="638.7" width="3.1" height="1.9"/>
            <rect class="cls-23" x="135.2" y="638.7" width="3.1" height="1.9"/>
            <rect class="cls-23" x="145.7" y="638.7" width="3.1" height="1.9"/>
            <rect class="cls-23" x="152.6" y="638.7" width="3.1" height="1.9"/>
          </g>
          <g>
            <rect class="cls-23" x="78.1" y="629.5" width="1.9" height="3.1"/>
            <rect class="cls-23" x="78.1" y="626" width="1.9" height="3.1"/>
            <rect class="cls-23" x="78.1" y="622.5" width="1.9" height="3.1"/>
            <rect class="cls-23" x="78.1" y="619" width="1.9" height="3.1"/>
            <rect class="cls-23" x="78.2" y="615.5" width="1.9" height="3.1"/>
            <rect class="cls-23" x="78.2" y="612" width="1.9" height="3.1"/>
            <rect class="cls-23" x="78.1" y="608.5" width="1.9" height="3.1"/>
            <rect class="cls-23" x="78.1" y="601.6" width="1.9" height="3.1"/>
            <rect class="cls-23" x="78.1" y="594.6" width="1.9" height="3.1"/>
            <rect class="cls-23" x="78.2" y="587.6" width="1.9" height="3.1"/>
            <rect class="cls-23" x="78.1" y="577.2" width="1.9" height="3.1"/>
            <rect class="cls-23" x="78.1" y="573.7" width="1.9" height="3.1"/>
            <rect class="cls-23" x="78.2" y="566.7" width="1.9" height="3.1"/>
            <rect class="cls-23" x="78.1" y="605.1" width="1.9" height="3.1"/>
            <rect class="cls-23" x="78.1" y="598.1" width="1.9" height="3.1"/>
            <rect class="cls-23" x="78.2" y="591.1" width="1.9" height="3.1"/>
            <rect class="cls-23" x="78.1" y="584.1" width="1.9" height="3.1"/>
            <rect class="cls-23" x="78.1" y="580.7" width="1.9" height="3.1"/>
            <rect class="cls-23" x="78.2" y="570.2" width="1.9" height="3.1"/>
            <rect class="cls-23" x="78.1" y="563.2" width="1.9" height="3.1"/>
          </g>
          <g>
            <rect class="cls-23" x="161.7" y="629.4" width="1.9" height="3.1"/>
            <rect class="cls-23" x="161.7" y="626" width="1.9" height="3.1"/>
            <rect class="cls-23" x="161.7" y="622.5" width="1.9" height="3.1"/>
            <rect class="cls-23" x="161.7" y="619" width="1.9" height="3.1"/>
            <rect class="cls-23" x="161.8" y="615.5" width="1.9" height="3.1"/>
            <rect class="cls-23" x="161.7" y="612" width="1.9" height="3.1"/>
            <rect class="cls-23" x="161.7" y="608.5" width="1.9" height="3.1"/>
            <rect class="cls-23" x="161.7" y="601.6" width="1.9" height="3.1"/>
            <rect class="cls-23" x="161.7" y="594.6" width="1.9" height="3.1"/>
            <rect class="cls-23" x="161.7" y="587.6" width="1.9" height="3.1"/>
            <rect class="cls-23" x="161.7" y="577.2" width="1.9" height="3.1"/>
            <rect class="cls-23" x="161.7" y="573.7" width="1.9" height="3.1"/>
            <rect class="cls-23" x="161.8" y="566.7" width="1.9" height="3.1"/>
            <rect class="cls-23" x="161.7" y="605" width="1.9" height="3.1"/>
            <rect class="cls-23" x="161.7" y="598.1" width="1.9" height="3.1"/>
            <rect class="cls-23" x="161.8" y="591.1" width="1.9" height="3.1"/>
            <rect class="cls-23" x="161.7" y="584.1" width="1.9" height="3.1"/>
            <rect class="cls-23" x="161.7" y="580.6" width="1.9" height="3.1"/>
            <rect class="cls-23" x="161.8" y="570.2" width="1.9" height="3.1"/>
            <rect class="cls-23" x="161.7" y="563.2" width="1.9" height="3.1"/>
          </g>
          <circle class="cls-25" cx="90.2" cy="568.2" r="2.8"/>
        </g>
        <rect class="cls-44" x="187.1" y="522.8" width="18.2" height="8.6"/>
        <rect class="cls-23" x="189.1" y="531.5" width="2.9" height="8.7"/>
        <rect class="cls-23" x="200.9" y="531.5" width="2.9" height="8.7"/>
        <rect class="cls-23" x="194.8" y="514.2" width="2.9" height="8.7"/>
        <rect class="cls-34" x="169.2" y="562.2" width="6.9" height="4.2"/>
        <rect class="cls-30" x="189.5" y="592" width="4.2" height="6.9"/>
        <rect class="cls-34" x="172.3" y="611.2" width="4.2" height="6.9" transform="translate(-383.6 303.4) rotate(-45)"/>
        <g>
          <path class="cls-41" d="M157,673.4c-5.1,0-9.2,4.1-9.2,9.2s4.1,9.2,9.2,9.2,9.2-4.1,9.2-9.2-4.1-9.2-9.2-9.2ZM157,688.3c-3.1,0-5.7-2.6-5.7-5.7s2.6-5.7,5.7-5.7,5.7,2.6,5.7,5.7-2.5,5.7-5.7,5.7Z"/>
          <path class="cls-41" d="M118.7,673.8v17.7h17.7v-17.7h-17.7ZM127.6,688.3c-3.1,0-5.7-2.6-5.7-5.7s2.6-5.7,5.7-5.7,5.7,2.6,5.7,5.7-2.6,5.7-5.7,5.7Z"/>
          <path class="cls-41" d="M186.8,673.4c-5.1,0-9.2,4.1-9.2,9.2s4.1,9.2,9.2,9.2,9.2-4.1,9.2-9.2-4.1-9.2-9.2-9.2ZM186.8,688.3c-3.1,0-5.7-2.6-5.7-5.7s2.6-5.7,5.7-5.7,5.7,2.6,5.7,5.7-2.5,5.7-5.7,5.7Z"/>
        </g>
        <path class="cls-41" d="M17.5,652H.3v3.4c2.3.9,3.9,3.1,3.9,5.7s-1.6,4.8-3.9,5.7v3.4h17.2c5,0,9-4,9-9s-4.1-9.2-9-9.2ZM15.9,667.1c-3.4,0-6.1-2.7-6.1-6.1s2.7-6.1,6.1-6.1,6.1,2.7,6.1,6.1-2.8,6.1-6.1,6.1Z"/>
        <path class="cls-41" d="M17.5,622.6H.3v3.4c2.3.9,3.9,3.1,3.9,5.7s-1.6,4.8-3.9,5.7v3.4h17.2c5,0,9-4,9-9h0c0-5.1-4.1-9.2-9-9.2ZM15.9,637.7c-3.4,0-6.1-2.7-6.1-6.1s2.7-6.1,6.1-6.1,6.1,2.7,6.1,6.1-2.8,6.1-6.1,6.1Z"/>
        <path class="cls-41" d="M17.5,593.2H.3v3.4c2.3.9,3.9,3.1,3.9,5.7s-1.6,4.8-3.9,5.7v3.4h17.2c5,0,9-4,9-9h0c0-5.1-4.1-9.2-9-9.2ZM15.9,608.3c-3.4,0-6.1-2.7-6.1-6.1s2.7-6.1,6.1-6.1,6.1,2.7,6.1,6.1-2.8,6.1-6.1,6.1Z"/>
        <path class="cls-41" d="M17.5,563.8H.3v3.4c2.3.9,3.9,3.1,3.9,5.7s-1.6,4.8-3.9,5.7v3.4h17.2c5,0,9-4,9-9s-4.1-9.2-9-9.2ZM15.9,579c-3.4,0-6.1-2.7-6.1-6.1s2.7-6.1,6.1-6.1,6.1,2.7,6.1,6.1-2.8,6.1-6.1,6.1Z"/>
        <path class="cls-41" d="M17.5,505.1H.3v3.4c2.3.9,3.9,3.1,3.9,5.7s-1.6,4.8-3.9,5.7v3.4h17.2c5,0,9-4,9-9s-4.1-9.2-9-9.2ZM15.9,520.2c-3.4,0-6.1-2.7-6.1-6.1s2.7-6.1,6.1-6.1,6.1,2.7,6.1,6.1-2.8,6.1-6.1,6.1Z"/>
        <path class="cls-41" d="M17.5,475.7H.3v3.4c2.3.9,3.9,3.1,3.9,5.7s-1.6,4.8-3.9,5.7v3.4h17.2c5,0,9-4,9-9s-4.1-9.2-9-9.2ZM15.9,490.8c-3.4,0-6.1-2.7-6.1-6.1s2.7-6.1,6.1-6.1,6.1,2.7,6.1,6.1-2.8,6.1-6.1,6.1Z"/>
        <path class="cls-41" d="M17.5,446.3H.3v3.4c2.3.9,3.9,3.1,3.9,5.7s-1.6,4.8-3.9,5.7v3.4h17.2c5,0,9-4,9-9s-4.1-9.2-9-9.2ZM15.9,461.4c-3.4,0-6.1-2.7-6.1-6.1s2.7-6.1,6.1-6.1,6.1,2.7,6.1,6.1-2.8,6.1-6.1,6.1Z"/>
        <path class="cls-41" d="M17.5,416.9H.3v3.4c2.3.9,3.9,3.1,3.9,5.7s-1.6,4.8-3.9,5.7v3.4h17.2c5,0,9-4,9-9s-4.1-9.2-9-9.2ZM15.9,432c-3.4,0-6.1-2.7-6.1-6.1s2.7-6.1,6.1-6.1,6.1,2.7,6.1,6.1-2.8,6.1-6.1,6.1Z"/>
        <path class="cls-41" d="M17.5,358.1H.3v3.4c2.3.9,3.9,3.1,3.9,5.7s-1.6,4.8-3.9,5.7v3.4h17.2c5,0,9-4,9-9h0c0-5.2-4.1-9.2-9-9.2ZM15.9,373.2c-3.4,0-6.1-2.7-6.1-6.1s2.7-6.1,6.1-6.1,6.1,2.7,6.1,6.1-2.8,6.1-6.1,6.1Z"/>
        <path class="cls-41" d="M17.5,328.7H.3v3.4c2.3.9,3.9,3.1,3.9,5.7s-1.6,4.8-3.9,5.7v3.4h17.2c5,0,9-4,9-9s-4.1-9.2-9-9.2ZM15.9,343.8c-3.4,0-6.1-2.7-6.1-6.1s2.7-6.1,6.1-6.1,6.1,2.7,6.1,6.1-2.8,6.1-6.1,6.1Z"/>
        <path class="cls-41" d="M17.5,799H.3v3.4c2.3.9,3.9,3.1,3.9,5.7s-1.6,4.8-3.9,5.7v3.4h17.2c5,0,9-4,9-9s-4.1-9.2-9-9.2ZM15.9,814.1c-3.4,0-6.1-2.7-6.1-6.1s2.7-6.1,6.1-6.1,6.1,2.7,6.1,6.1-2.8,6.1-6.1,6.1Z"/>
        <path class="cls-41" d="M239.5,896.2c0-2.6,1.6-4.8,3.9-5.7v-3.4h-17.2c-5,0-9,4-9,9s4,9,9,9h17.2v-3.4c-2.2-.7-3.9-2.9-3.9-5.5ZM227.8,902.3c-3.4,0-6.1-2.7-6.1-6.1s2.7-6.1,6.1-6.1,6.1,2.7,6.1,6.1-2.7,6.1-6.1,6.1Z"/>
        <path class="cls-41" d="M239.5,808c0-2.6,1.6-4.8,3.9-5.7v-3.3h-17.2c-5,0-9,4-9,9s4,9,9,9h17.2v-3.4c-2.2-.8-3.9-3-3.9-5.6ZM227.8,814.1c-3.4,0-6.1-2.7-6.1-6.1s2.7-6.1,6.1-6.1,6.1,2.7,6.1,6.1-2.7,6.1-6.1,6.1Z"/>
        <path class="cls-41" d="M239.5,572.9c0-2.6,1.6-4.8,3.9-5.7v-3.4h-17.2c-5,0-9,4-9,9s4,9,9,9h17.2v-3.4c-2.2-.7-3.9-2.9-3.9-5.5ZM227.8,579c-3.4,0-6.1-2.7-6.1-6.1s2.7-6.1,6.1-6.1,6.1,2.7,6.1,6.1-2.7,6.1-6.1,6.1Z"/>
        <rect class="cls-20" x="91.4" y="665.4" width="3.7" height="6.7"/>
        <g>
          <path class="cls-35" d="M82.2,686.3h-31.8c-1.2,0-2.2-1-2.2-2.2v-23.7c0-1.2,1-2.2,2.2-2.2h31.8c1.2,0,2.2,1,2.2,2.2v23.7c0,1.2-1,2.2-2.2,2.2Z"/>
          <path class="cls-42" d="M79.9,683.8h-27.3c-.8,0-1.4-.6-1.4-1.4v-20.4c0-.8.6-1.4,1.4-1.4h27.3c.8,0,1.4.6,1.4,1.4v20.4c0,.8-.6,1.4-1.4,1.4Z"/>
        </g>
        <rect class="cls-20" x="91.5" y="685.3" width="3.7" height="6.7"/>
        <rect class="cls-30" x="100.1" y="671.1" width="4.2" height="6.9"/>
        <g>
          <path class="cls-33" d="M42.3,491.2v-3.6c0-2.2.6-3.9,2.6-3.9s1.9.5,2.2,1.4h0c.3-1.1,1.1-1.9,2.4-1.9,2.1,0,3.1,1.8,3.1,4.1v3.9h-10.4ZM46.4,487.7c0-1.1-.5-1.5-1.2-1.5s-1.1.5-1.1,1.5v1.1h2.2v-1.1h0ZM50.8,487.5c0-1.2-.4-1.8-1.3-1.8s-1.2.6-1.2,1.8v1.2h2.5v-1.2Z"/>
          <path class="cls-33" d="M47.4,482c-3.4,0-5.4-1.9-5.4-4.8s2-4.8,5.4-4.8,5.4,1.9,5.4,4.8-2,4.8-5.4,4.8ZM47.4,475c-2,0-3.2.8-3.2,2.2s1.2,2.2,3.2,2.2,3.3-.9,3.3-2.2-1.3-2.2-3.3-2.2Z"/>
          <path class="cls-33" d="M47.4,471c-3.4,0-5.4-1.9-5.4-4.8s2-4.8,5.4-4.8,5.4,1.9,5.4,4.8-2,4.8-5.4,4.8ZM47.4,464c-2,0-3.2.8-3.2,2.2s1.2,2.2,3.2,2.2,3.3-.9,3.3-2.2-1.3-2.2-3.3-2.2Z"/>
          <path class="cls-33" d="M44.3,458v2.8h-2.1v-8.1h2.1v2.8h8.3v2.5h-8.3Z"/>
          <path class="cls-33" d="M51.3,452.1l-1.6-1.3c.6-.7,1-1.7,1-2.6s-.4-1.4-.9-1.4-.8.6-1.2,1.5l-.6,1.3c-.4,1.1-1.3,2.1-2.8,2.1s-3.2-1.6-3.2-3.8.5-2.5,1.3-3.4l1.6,1.3c-.5.7-.8,1.4-.8,2.1s.3,1.3.8,1.3.8-.7,1.2-1.6l.5-1.3c.5-1.3,1.4-2.1,2.8-2.1s3.3,1.5,3.3,4c.2,1.4-.3,2.8-1.4,3.9Z"/>
          <path class="cls-33" d="M42.3,442.5v-6.6h2.1v4.1h2v-3.5h2.1v3.5h2.2v-4.3h2.1v6.8h-10.5Z"/>
          <path class="cls-33" d="M42.3,433.7v-2.5h8.3v-4h2.1v6.5h-10.4Z"/>
        </g>
        <g>
          <path class="cls-33" d="M141.4,648.4h3c3.2,0,5.3,1.6,5.3,5.2s-2.1,5.2-5.1,5.2h-3.1v-10.4h0ZM144.3,656.8c1.7,0,2.9-.8,2.9-3.2s-1.2-3.2-2.9-3.2h-.4v6.4h.4Z"/>
          <path class="cls-33" d="M151.6,648.4h6.6v2.1h-4.1v2h3.5v2.1h-3.5v2.2h4.3v2.1h-6.8v-10.5Z"/>
          <path class="cls-33" d="M160.4,648.4h3.6c2.2,0,3.9.6,3.9,2.6s-.5,1.9-1.4,2.2h0c1.1.4,1.9,1.2,1.9,2.5,0,2.1-1.8,3.1-4.1,3.1h-3.9v-10.4ZM164,652.6c1.1,0,1.5-.5,1.5-1.2s-.5-1.1-1.5-1.1h-1.1v2.2h1.1ZM164.2,656.9c1.2,0,1.8-.4,1.8-1.3s-.6-1.2-1.8-1.2h-1.2v2.5h1.2Z"/>
          <path class="cls-33" d="M170.1,653.9v-5.5h2.5v5.8c0,2,.6,2.7,1.7,2.7s1.8-.7,1.8-2.7v-5.8h2.4v5.5c0,3.5-1.4,5.1-4.2,5.1s-4.2-1.5-4.2-5.1Z"/>
          <path class="cls-33" d="M180.3,653.7c0-3.5,2.3-5.5,5.1-5.5s2.6.6,3.3,1.4l-1.3,1.5c-.5-.5-1.1-.7-1.9-.7-1.5,0-2.7,1.2-2.7,3.2s.9,3.3,2.9,3.3.8,0,1-.3v-1.7h-1.7v-2h3.9v4.9c-.7.7-2,1.3-3.5,1.3-2.8-.1-5.1-1.9-5.1-5.4Z"/>
        </g>
        <rect class="cls-14" x="114.2" y="669.8" width="86.4" height="25.6"/>
        <g>
          <path class="cls-33" d="M40.1,384.2h2.5v8.3h4v2.1h-6.5v-10.4Z"/>
          <path class="cls-33" d="M48.4,384.2h6.6v2.1h-4.1v2h3.5v2.1h-3.5v2.2h4.3v2.1h-6.8v-10.5Z"/>
          <path class="cls-33" d="M57.2,384.2h3c3.2,0,5.3,1.6,5.3,5.2s-2.1,5.2-5.1,5.2h-3.1v-10.4h-.1ZM60.1,392.6c1.7,0,2.9-.8,2.9-3.2s-1.2-3.2-2.9-3.2h-.4v6.4h.4Z"/>
        </g>
        <g>
          <rect class="cls-28" x="143.7" y="533.7" width="5.4" height="10.6"/>
          <rect class="cls-34" x="143.7" y="536" width="5.4" height="6"/>
        </g>
        <g>
          <rect class="cls-28" x="154.3" y="533.7" width="5.4" height="10.6"/>
          <rect class="cls-34" x="154.3" y="536" width="5.4" height="6"/>
        </g>
        <rect class="cls-30" x="127.1" y="534.9" width="4.2" height="6.9"/>
        <rect class="cls-30" x="67.3" y="541.4" width="6.9" height="4.2"/>
        <rect class="cls-34" x="120.5" y="534.9" width="4.2" height="6.9"/>
        <rect class="cls-34" x="110.4" y="534.9" width="4.2" height="6.9"/>
        <path class="cls-41" d="M239.5,514.1c0-2.6,1.6-4.8,3.9-5.7v-3.4h-17.2c-5,0-9,4-9,9s4,9,9,9h17.2v-3.4c-2.2-.7-3.9-2.9-3.9-5.5ZM227.8,520.2c-3.4,0-6.1-2.7-6.1-6.1s2.7-6.1,6.1-6.1,6.1,2.7,6.1,6.1-2.7,6.1-6.1,6.1Z"/>
        <g>
          <rect class="cls-28" x="172.5" y="503" width="5.6" height="11.9"/>
          <rect class="cls-22" x="172.5" y="505.7" width="5.6" height="6.6"/>
        </g>
      </g>
      <sodipodi:namedview id="namedview72" bordercolor="#666666" borderopacity="1" gridtolerance="10" guidetolerance="10" inkscape:current-layer="Ebene_1" inkscape:cx="230.44151" inkscape:cy="457.00775" inkscape:pageopacity="0" inkscape:pageshadow="2" inkscape:window-height="1017" inkscape:window-maximized="1" inkscape:window-width="1920" inkscape:window-x="-8" inkscape:window-y="-8" inkscape:zoom="0.25820131" objecttolerance="10" pagecolor="#ffffff" showgrid="false"/>
      <circle id="circle281" class="cls-26" cx="232.1" cy="396.6" r="11.6"/>
      <circle id="circle281-2" class="cls-9" cx="232.1" cy="866.9" r="11.6"/>
      <rect id="rect6" class="cls-26" x="232.1" y="392" width="174.8" height="9.1"/>
      <rect id="rect853" class="cls-13" x="232.1" y="862.3" width="113.3" height="9.1"/>
      <g id="layer1">
        <rect id="rect815" class="cls-10" x="283.6" y="109.8" width="177.2" height="238.2"/>
        <rect id="rect821" class="cls-33" x="325.5" y="309.2" width="92.2" height="31.7"/>
        <path id="rect825" class="cls-43" d="M331.6,311h18.5c3.2,0,5.8,2.6,5.8,5.8v16.2c0,3.2-2.6,5.8-5.8,5.8h-18.5c-3.2,0-5.8-2.6-5.8-5.8v-16.2c0-3.2,2.6-5.8,5.8-5.8Z"/>
        <path id="rect872" class="cls-43" d="M393.2,311h18.5c3.2,0,5.8,2.6,5.8,5.8v16.2c0,3.2-2.6,5.8-5.8,5.8h-18.5c-3.2,0-5.8-2.6-5.8-5.8v-16.2c0-3.2,2.6-5.8,5.8-5.8Z"/>
        <path id="rect874" class="cls-43" d="M361.6,311h20c2.8,0,5.1,2.3,5.1,5.1v17.7c0,2.8-2.3,5.1-5.1,5.1h-20c-2.8,0-5.1-2.3-5.1-5.1v-17.7c.1-2.8,2.3-5.1,5.1-5.1Z"/>
        <rect id="rect947" class="cls-6" x="339.1" y="326.2" width="3.3" height="58.2"/>
        <rect id="rect949" class="cls-6" x="370.1" y="326.2" width="3.3" height="58.2"/>
        <rect id="rect951" class="cls-6" x="400.7" y="326.2" width="3.3" height="58.2"/>
        <circle id="path1456" class="cls-2" cx="308.4" cy="196.9" r="16.1"/>
        <circle id="ellipse1458" class="cls-2" cx="434.3" cy="196.9" r="16.1"/>
        <circle id="path1460" class="cls-8" cx="308.4" cy="196.9" r="14.6"/>
        <circle id="ellipse1464" class="cls-8" cx="434.3" cy="196.9" r="14.6"/>
        <rect id="rect87" class="cls-10" x="308.6" y="275.9" width="126.2" height="31.7"/>
        <circle id="path91" class="cls-2" cx="325.3" cy="296.9" r="11.8"/>
        <circle id="circle93" class="cls-2" cx="417.4" cy="296.9" r="11.8"/>
        <path id="rect95" class="cls-2" d="M334.8,248.5h7.9c4.3,0,7.9,3.5,7.9,7.9v19.6c0,4.3-3.5,7.9-7.9,7.9h-7.9c-4.3,0-7.9-3.5-7.9-7.9v-19.7c0-4.3,3.5-7.8,7.9-7.8Z"/>
        <path id="rect97" class="cls-2" d="M401.7,248.5h7.9c4.3,0,7.9,3.5,7.9,7.9v19.6c0,4.3-3.5,7.9-7.9,7.9h-7.9c-4.3,0-7.9-3.5-7.9-7.9v-19.7c0-4.3,3.5-7.8,7.9-7.8Z"/>
        <circle id="circle99" class="cls-2" cx="348.6" cy="235.1" r="11.8"/>
        <circle id="circle101" class="cls-2" cx="395.8" cy="235.1" r="11.8"/>
        <circle id="ellipse103" class="cls-8" cx="322.2" cy="234.3" r="14.6"/>
        <circle id="ellipse105" class="cls-8" cx="422.1" cy="234.3" r="14.6"/>
        <path id="rect111" class="cls-2" d="M334.8,184h7.9c4.3,0,7.9,3.5,7.9,7.9v19.7c0,4.3-3.5,7.9-7.9,7.9h-7.9c-4.3,0-7.9-3.5-7.9-7.9v-19.7c0-4.4,3.5-7.9,7.9-7.9Z"/>
        <path id="rect113" class="cls-2" d="M401.7,184h7.9c4.3,0,7.9,3.5,7.9,7.9v19.7c0,4.3-3.5,7.9-7.9,7.9h-7.9c-4.3,0-7.9-3.5-7.9-7.9v-19.7c0-4.4,3.5-7.9,7.9-7.9Z"/>
        <circle id="circle115" class="cls-8" cx="338.7" cy="265.2" r="10.8"/>
        <circle id="circle117" class="cls-8" cx="405.6" cy="265.2" r="10.8"/>
        <circle id="circle119" class="cls-8" cx="325.3" cy="296.9" r="9.8"/>
        <circle id="circle121" class="cls-8" cx="417.4" cy="296.9" r="9.8"/>
        <circle id="circle123" class="cls-8" cx="338.7" cy="265.2" r="10.8"/>
        <circle id="circle125" class="cls-8" cx="338.7" cy="200.7" r="10.8"/>
        <circle id="circle127" class="cls-8" cx="405.6" cy="200.7" r="10.8"/>
        <circle id="circle129" class="cls-2" cx="323.8" cy="156.4" r="11.8"/>
        <circle id="circle131" class="cls-8" cx="323.8" cy="156.4" r="9.8"/>
        <circle id="circle133" class="cls-2" cx="420.6" cy="156.4" r="11.8"/>
        <circle id="circle135" class="cls-8" cx="420.6" cy="156.4" r="9.8"/>
        <path id="path31-1" class="cls-33" d="M334,129.4c1.1,0,1.2,0,1.4-.2.1-.1.3-.2.4-.3.1-.2.1-.3.1-2.6v-2.4h4.6v3c0,3.3,0,3.6-.4,4.4-.4,1.1-1.3,1.8-2.4,2-.7.1-1.4.1-2.1.1s-1.9,0-2.3-.1h-.6v-3.9h1.3ZM356.3,136c20,0,24.9,0,24.1.1h-.1.1c.1.1.1.2-.1.2s-.1,0,.2.1h.4-.4c-.2,0-.4,0-.3,0s.1.1.1.6,0,.5.2.6q.1,0-.1,0c-.1,0-.3,0-.3.1,0,0-7.9.1-23.6.1h-23.6v-1.8h23.4ZM338.3,117.8h2.4v3.8h-4.7v-3.8h2.3ZM343.1,124.9c.1-1,.4-2,.9-2.9.1-.2.2-.4.3-.6.1,0,.2-.2.3-.4.3-.4.6-.8.9-1.2h.1c.3-.5.7-.8,1.1-1,.5-.4,1.1-.7,1.8-.9.9-.4,1.9-.5,2.8-.4.6,0,1.1,0,1.7.2.4,0,.8.2.9.3.1,0,.2,0,.4,0,.2,0,.4.2.6.3,1.4.9,2.5,2.2,3.3,3.7.9,1.9,1,4,.3,6-.2.6-.5,1.2-.9,1.8s-.8,1.2-1.4,1.6c-.9,1-2.1,1.7-3.4,2-1,.2-2,.3-3,.2-1.2-.2-2.3-.7-3.2-1.4-.4-.3-.7-.6-1-.9s-.2-.2-.3-.4c-1-1.1-1.7-2.5-2-4-.2-.5-.3-1.3-.2-2.1h0ZM347.6,126.9c.2.9.7,1.7,1.4,2.3.8.7,1.8.9,2.8.6,1.2-.5,2.2-1.6,2.5-2.9.2-.9.2-1.8,0-2.6-.3-1-.8-1.8-1.6-2.4-.3-.2-.6-.3-.9-.4-.7-.2-1.5,0-2.2.2-.7.4-1.2,1-1.5,1.7-.7,1.1-.8,2.3-.5,3.5h0ZM360.8,117.9h4.7v2.1c0,2,0,2.1.1,2.5.4.9,1.4,1.4,2.4,1.1.5,0,.8-.5,1.1-.9l.2-.4v-4.4h4.7v2.5c.1,1,0,2-.2,3-.2.9-.7,1.7-1.2,2.4-.1,0-.2.2-.2.4-.3.4-.7.7-1.1,1s-.9.6-1.4.7c-.1,0-.4,0-.7.2-.5.2-1.1.2-1.7.2-.6.1-1.2,0-1.8-.2-.7-.1-1.3-.4-1.9-.8-.7-.5-1.3-1.1-1.8-1.8-.6-.9-1-1.9-1.1-3-.2-1.6-.2-3.1,0-4.6h0ZM367.4,129.5h3.9v4h-7.7v-4h3.8ZM374,114.8s.1,0,.1-.2q0-.2.3-.3h28.7v1.8h-29.1c-.1,0-.1,0-.1-.6.1-.5.1-.7.1-.7h0ZM380.5,124.3h4.9v3.9h-9.8v-3.9h4.9ZM389.3,117.8h2.4v3.8h-4.7v-3.8h2.3ZM389.3,123.7h2.4v9.9h-4.7v-9.9h2.3ZM398.7,117.8h4.9v3.8h-9.9v-3.8h5ZM394.6,124h4.6v2.3c0,3.2-.1,3,2.3,3.1h1.5v4h-.6c-1.4.2-2.9.2-4.3.1-1-.1-1.9-.5-2.6-1.2-.6-.7-.9-1.6-1-2.5.1-.8,0-5.8.1-5.8h0ZM406.5,116c.1-.4.3-.8.6-1,.9-.9,2.4-1,3.4-.3.4.2.7.6.8,1,.2.3.2.7.2,1s0,.7-.2,1.1c-.4.8-1.2,1.4-2.1,1.4-.8,0-1.6-.2-2.1-.8-.6-.7-.9-1.6-.6-2.4h0ZM406.9,117.6c.3.6.9,1,1.6,1.2s1.5,0,2-.5c.2-.2.4-.4.5-.6.2-.3.2-.6.2-1s0-.7-.2-1c-.1-.3-.3-.5-.6-.7-.2-.2-.5-.3-.7-.4-1.1-.3-2.3.2-2.8,1.3-.2.5-.2,1.1,0,1.7ZM408.7,115.1c.3,0,.7,0,1,0,.4.3.5.8.3,1.2-.1,0-.2.2-.3.2h-.2c0,0,.2.3.2.3.2.2.3.4.4.6.1,0,.2.3.3.4.1,0,0,.2-.2.2h-.3l-.4-.6c-.4-.6-.5-.7-1-.7h-.3v1.3h-.4v-3h.9ZM408.8,116.4c.5,0,.6,0,.7,0,.4-.3.2-.7-.4-.8h-.9v.8h.6Z"/>
        <g id="text90">
          <g class="cls-3">
            <path class="cls-33" d="M302.4,274.4h.2c.1,0,.1.1.1.2s.1.2.1.3v1.2c0,.2-.1.3-.1.4-.1.1-.1.2-.2.2l-7.9,5.8h8.1c.1,0,.1.1.1.2s.1.2.1.3v1c0,.1,0,.2-.1.3,0,.1-.1.1-.1.2h-15.6s-.1-.1-.1-.2-.1-.2-.1-.3v-1c0-.1,0-.2.1-.3,0-.1.1-.1.1-.2h7.2l-7-5.6c-.1,0-.1-.1-.2-.2,0-.1-.1-.1-.1-.2s-.1-.2-.1-.3v-1c0-.1,0-.2.1-.3,0-.1.1-.1.1-.2s.1,0,.2,0,.2,0,.3.1c.1.1.3.2.4.3l6.3,5.2,7.5-5.6c.2-.1.4-.2.4-.2h.2Z"/>
          </g>
          <g class="cls-3">
            <path class="cls-33" d="M296.6,266.7h6s.1.1.1.2.1.2.1.3v1c0,.1,0,.2-.1.3,0,.1-.1.1-.1.2h-6l-8.9,4.5c-.2.1-.3.1-.4.2-.1,0-.2,0-.2-.1-.1-.1-.1-.2-.1-.3v-1.2c0-.2,0-.3.1-.4,0-.1.1-.2.1-.2.1,0,.1-.1.2-.1l4.5-2.2c.4-.2.9-.4,1.4-.6s.9-.4,1.4-.6h0c-.5-.2-.9-.4-1.4-.6s-.9-.4-1.4-.6l-4.6-2.2c-.1,0-.2-.1-.2-.1-.1,0-.1-.1-.1-.2s-.1-.2-.1-.3v-1.2c0-.2.1-.3.1-.3q.1-.1.2-.1c.1,0,.2.1.4.2l9,4.4Z"/>
          </g>
          <g class="cls-3">
            <path class="cls-33" d="M296.6,256.3c.3,0,.5,0,.7.1s.2.2.2.3v5.1c0,.1-.1.3-.2.3s-.3.1-.7.1-.5,0-.6-.1-.2-.2-.2-.3v-5.3c0-.1.1-.1.1-.1.1,0,.2-.1.3-.1s.3,0,.4,0Z"/>
            <path class="cls-33" d="M294.9,243.6c1.2,0,2.3.1,3.3.3s1.9.5,2.6,1c.7.4,1.3,1,1.7,1.7.4.7.6,1.6.6,2.6s-.2,1.8-.5,2.5c-.4.7-.9,1.2-1.6,1.6-.7.4-1.5.7-2.5.9s-2.2.3-3.5.3-2.3-.1-3.3-.3-1.9-.5-2.6-1-1.3-1-1.7-1.7c-.4-.7-.6-1.6-.6-2.6s.2-1.8.5-2.5.9-1.2,1.6-1.6,1.5-.7,2.5-.9c1-.2,2.2-.3,3.5-.3ZM295,245.8c-.8,0-1.5,0-2.1.1s-1.2.1-1.7.2c-.5.1-.9.3-1.2.4s-.6.4-.9.6-.4.5-.5.8-.2.7-.2,1.1c0,.7.2,1.3.5,1.7s.8.8,1.3,1,1.2.4,2,.5,1.6.1,2.5.1,2.2-.1,3-.2c.8-.1,1.5-.3,2-.6s.9-.6,1.1-1,.4-.9.4-1.5-.1-.9-.2-1.2-.4-.6-.6-.9-.6-.5-1-.6c-.4-.2-.8-.3-1.3-.4-.5-.1-1-.2-1.5-.2-.4,0-1,0-1.6,0Z"/>
            <path class="cls-33" d="M294.9,231c1.2,0,2.3.1,3.3.3s1.9.5,2.6,1c.7.4,1.3,1,1.7,1.7.4.7.6,1.6.6,2.6s-.2,1.8-.5,2.5c-.4.7-.9,1.2-1.6,1.6-.7.4-1.5.7-2.5.9s-2.2.3-3.5.3-2.3-.1-3.3-.3-1.9-.5-2.6-1c-.7-.4-1.3-1-1.7-1.7s-.6-1.6-.6-2.6.2-1.8.5-2.5.9-1.2,1.6-1.6,1.5-.7,2.5-.9,2.2-.3,3.5-.3ZM295,233.1c-.8,0-1.5,0-2.1.1s-1.2.1-1.7.2c-.5.1-.9.3-1.2.4s-.6.4-.9.6-.4.5-.5.8-.2.7-.2,1.1c0,.7.2,1.3.5,1.7s.8.8,1.3,1,1.2.4,2,.5,1.6.1,2.5.1,2.2-.1,3-.2,1.5-.3,2-.6.9-.6,1.1-1,.4-.9.4-1.5-.1-.9-.2-1.2-.4-.6-.6-.9-.6-.5-1-.6c-.4-.2-.8-.3-1.3-.4-.5-.1-1-.2-1.5-.2-.4,0-1,0-1.6,0Z"/>
            <path class="cls-33" d="M297.7,218.9c.8,0,1.6.1,2.3.4.7.3,1.2.7,1.7,1.2s.8,1.1,1,1.9c.2.7.4,1.5.4,2.4s0,1-.1,1.4-.2.8-.3,1.2c-.1.3-.2.6-.3.8s-.2.4-.2.4q-.1.1-.2.1t-.2.1c-.1.1-.2,0-.3,0h-.8c-.1,0-.2,0-.3-.1-.1,0-.1-.1-.2-.1v-.2c0-.1.1-.2.2-.4s.2-.4.3-.7c.1-.3.2-.6.3-1.1s.2-.9.2-1.5-.1-1-.2-1.5-.3-.8-.6-1.2c-.3-.3-.6-.6-1-.8s-.9-.3-1.5-.3-.9.1-1.3.2c-.4.2-.7.4-1,.7s-.4.7-.6,1.3c-.1.5-.2,1.1-.2,1.8s0,.9.1,1.3c0,.4.1.7.1,1s-.1.4-.2.5-.3.1-.6.1h-6.4c-.3,0-.5-.1-.6-.2s-.2-.3-.2-.5v-7q0-.1.1-.2c0-.1.1-.1.2-.2s.2-.1.3-.1h.4c.3,0,.5,0,.7.1s.2.2.2.3v5.6h4.4c0-.3-.1-.6-.1-.8v-1c0-.9.1-1.6.3-2.3.2-.7.5-1.2.9-1.6.4-.4.9-.8,1.4-1,.6.1,1.2,0,1.9,0Z"/>
          </g>
        </g>
        <g id="text94">
          <g class="cls-3">
            <path class="cls-33" d="M320.7,327.8c0,.7-.1,1.4-.4,2s-.7,1.1-1.1,1.5c-.5.4-1.1.7-1.7.9-.7.2-1.4.3-2.1.3s-1,0-1.5-.1-.9-.2-1.2-.3c-.4-.1-.7-.3-.9-.4-.2-.1-.4-.3-.5-.4s-.2-.2-.2-.4-.1-.4-.1-.6v-.4c0-.1,0-.2.1-.3s.1-.1.1-.2.1,0,.2,0,.3.1.5.2.5.3.8.5.7.3,1.2.5c.5.1,1,.2,1.6.2s.9-.1,1.3-.2.7-.3,1-.5.5-.5.6-.8.2-.7.2-1.1-.1-.8-.3-1.1c-.2-.3-.5-.6-.8-.8-.3-.2-.7-.5-1.1-.7s-.9-.4-1.3-.6-.9-.4-1.3-.7-.8-.5-1.1-.9-.6-.7-.8-1.2c-.2-.5-.3-1-.3-1.7s.1-1.2.4-1.8c.2-.5.6-.9,1-1.3.4-.3.9-.6,1.5-.8.6-.2,1.2-.3,1.9-.3s.7,0,1.1.1.7.1,1,.2.6.2.8.3c.2.1.4.2.5.3l.2.2c.1.1,0,.1.1.2v1c0,.1,0,.2-.1.3s-.1.1-.1.2c0,0-.1.1-.2.1s-.2-.1-.4-.2c-.2-.1-.4-.2-.7-.4s-.6-.3-1-.4-.8-.2-1.3-.2-.8.1-1.1.2c-.3.1-.6.3-.8.5-.2.2-.4.4-.5.7s-.2.6-.2.9.1.8.3,1.1.5.6.8.8c.3.2.7.5,1.2.7.4.2.9.4,1.3.6s.9.4,1.3.7c.4.2.8.5,1.2.9.3.3.6.7.8,1.2s.1.9.1,1.5Z"/>
          </g>
        </g>
        <g id="text98">
          <g class="cls-3">
            <path class="cls-33" d="M438.6,326.1c0,.3-.1.5-.3.7-.2.1-.5.2-.8.2h-13c-.4,0-.7-.1-.8-.2-.2-.1-.3-.3-.3-.7s.1-.5.3-.6c.2-.1.5-.2.8-.2h13.5c.2,0,.2.1.3.1.1.1.2.2.2.3s0,.2,0,.4Z"/>
          </g>
        </g>
        <rect id="rect887" class="cls-7" x="330.6" y="40.9" width="82.1" height="60.8"/>
        <path id="path889" class="cls-7" d="M330.6,41.1c0-14.7,7.8-28.2,20.5-35.6s28.3-7.3,41.1,0c12.7,7.3,20.5,20.9,20.5,35.6"/>
        <rect id="rect891" class="cls-7" x="327.6" y="97.1" width="88.2" height="11.8"/>
        <rect id="rect84" class="cls-6" x="346.6" y="107" width="3.3" height="129.8"/>
        <rect id="rect86" class="cls-6" x="393.9" y="107" width="3.3" height="129.8"/>
        <path id="rect3802" class="cls-1" d="M370.7,2.2c-6.5.2-13,2-18.6,5.2-11.8,6.8-19.2,19.3-19.5,33h0v58.4h-2.9v8.7h84v-8.7h-2.9v-58.4h0c-.3-13.6-7.7-26.1-19.5-33-6.3-3.6-13.4-5.4-20.6-5.2Z"/>
        <rect id="rect149" class="cls-4" x="387.7" y="75.8" width="43.4" height="2.3" transform="translate(331.3 486.2) rotate(-89.8)"/>
        <rect id="rect151" class="cls-4" x="312.3" y="75.7" width="43.4" height="2.3" transform="translate(256.2 410.6) rotate(-89.8)"/>
      </g>
      <circle id="circle281-3" class="cls-9" cx="340.8" cy="352.2" r="11.6"/>
      <circle id="circle281-4" class="cls-29" cx="402.4" cy="352.2" r="11.6"/>
      <rect id="rect68" class="cls-9" x="336.2" y="352.2" width="9.1" height="519.3"/>
      <rect id="rect853-2" class="cls-29" x="397.8" y="352.2" width="9.1" height="48.9"/>
      <g>
        <rect class="cls-5" x="342.1" y="285.7" width="20.3" height="20.3"/>
        <rect class="cls-5" x="380.8" y="285.7" width="20.3" height="20.3"/>
        <path class="cls-37" d="M388.8,288c-2.7,0-5.2.8-7,2.2h-19.8c-1.9-1.4-4.3-2.2-7-2.2-5.8,0-10.4,3.8-10.4,8.6s4.7,8.6,10.4,8.6,5.2-.8,7-2.2h19.8c1.9,1.4,4.3,2.2,7,2.2,5.8,0,10.4-3.8,10.4-8.6s-4.7-8.6-10.4-8.6Z"/>
        <line class="cls-15" x1="390" y1="288.1" x2="390" y2="305.1"/>
        <line class="cls-16" x1="353.8" y1="288.1" x2="353.8" y2="305.1"/>
        <line class="cls-16" x1="364.5" y1="290.2" x2="364.5" y2="303"/>
        <line class="cls-17" x1="368.1" y1="290.2" x2="368.1" y2="302.9"/>
        <line class="cls-17" x1="374.3" y1="290.2" x2="374.3" y2="302.9"/>
        <line class="cls-18" x1="344.5" y1="296.6" x2="342.3" y2="296.6"/>
        <line class="cls-18" x1="400.7" y1="296.6" x2="399.2" y2="296.6"/>
        <g id="text1102" class="cls-3">
          <g class="cls-3">
            <path class="cls-33" d="M360.1,301.7v.3s0,.2,0,.2c0,0,0,.1-.1.1h-6.8s-.1,0-.2-.1v-.2c-.1,0-.1-.6-.1-.6,0-.1,0-.2,0-.2,0,0,0-.1.1-.2,0,0,.1-.1.2-.2l2.3-2.4c.5-.6,1-1,1.3-1.5.3-.5.6-.9.7-1.2s.3-.7.3-1c0-.3,0-.6,0-.8s0-.5-.1-.7-.2-.5-.4-.6-.3-.3-.6-.4c-.2-.1-.5-.2-.9-.2s-.7,0-1,.2c-.3.1-.6.2-.8.3-.2.1-.4.2-.6.3-.2.1-.3.2-.3.2h-.1s0,0,0-.1v-1s0-.1,0-.1c0,0,0-.1.1-.2s.2-.2.3-.2c.2-.1.4-.2.7-.3s.6-.2.9-.3c.3,0,.6-.1,1-.1s1,0,1.5.2c.4.2.7.4,1,.6.3.3.5.6.6,1,.1.3.2.7.2,1.2s0,.7-.1,1.1c0,.3-.2.7-.4,1.2-.2.4-.5.9-.9,1.4s-.9,1.2-1.6,1.8l-1.8,1.9h5.3c0,.1,0,.2,0,.3v.3l.2.2h0Z"/>
            <path class="cls-33" d="M369.4,301.7v.3s0,.2,0,.2c0,0,0,.1-.1.1h-6.8s-.1,0-.2-.1v-.2c-.1,0-.1-.6-.1-.6,0-.1,0-.2,0-.2,0,0,0-.1.1-.2,0,0,.1-.1.2-.2l2.3-2.4c.5-.6,1-1,1.3-1.5.3-.5.6-.9.7-1.2s.3-.7.3-1c0-.3,0-.6,0-.8s0-.5-.1-.7-.2-.5-.4-.6-.3-.3-.6-.4c-.2-.1-.5-.2-.9-.2s-.7,0-1,.2c-.3.1-.6.2-.8.3-.2.1-.4.2-.6.3-.2.1-.3.2-.3.2h-.1s0,0,0-.1v-1s0-.1,0-.1c0,0,0-.1.1-.2s.2-.2.3-.2c.2-.1.4-.2.7-.3s.6-.2.9-.3c.3,0,.6-.1,1-.1s1,0,1.5.2c.4.2.7.4,1,.6.3.3.5.6.6,1,.1.3.2.7.2,1.2s0,.7-.1,1.1c0,.3-.2.7-.4,1.2-.2.4-.5.9-.9,1.4s-.9,1.2-1.6,1.8l-1.8,1.9h5.3c0,.1,0,.2,0,.3v.3l.2.2h0Z"/>
            <path class="cls-33" d="M379.1,296.5c0,.9,0,1.7-.2,2.4-.1.7-.4,1.4-.7,1.9-.3.5-.7.9-1.3,1.2s-1.2.5-2,.5-1.3-.1-1.8-.4-.9-.6-1.2-1.2-.5-1.2-.6-1.8c-.1-.7-.2-1.6-.2-2.5s0-1.7.2-2.4c.1-.7.4-1.4.7-1.9s.7-.9,1.3-1.2,1.2-.5,2-.5,1.4.1,1.8.4c.5.3.9.6,1.2,1.2s.5,1.2.6,1.8c.1.7.2,1.6.2,2.5ZM377.5,296.6c0-.6,0-1.1,0-1.6,0-.5-.1-.9-.2-1.2s-.2-.6-.3-.9c-.1-.2-.3-.5-.5-.6s-.4-.3-.6-.3-.5-.1-.8-.1c-.5,0-.9.1-1.3.3-.3.2-.6.6-.7,1s-.3.9-.3,1.5-.1,1.2-.1,1.8,0,1.6.1,2.2.2,1.1.4,1.5.5.7.7.9.7.3,1.1.3.6,0,.9-.2c.2-.1.5-.3.6-.5s.3-.5.5-.7.2-.6.3-.9.1-.7.2-1.1v-1.3h.1c0-.1,0-.1,0-.1Z"/>
            <path class="cls-33" d="M391,301.7v.3s0,.2,0,.2,0,.1-.1.1h-3.5c-.2,0-.3,0-.3-.1-.1-.1-.1-.2-.1-.5v-.6s0-.1,0-.2c0,0,0-.1.1-.2s.2-.2.4-.3.5-.3.7-.6.5-.6.7-.9.3-.7.4-1.2c0-.5.1-1,.1-1.5s0-.7,0-1.1c0-.3-.1-.7-.2-1s-.3-.6-.5-.9c-.2-.3-.4-.5-.6-.7-.3-.2-.6-.3-.9-.5s-.7-.2-1.2-.2-.9,0-1.2.2-.7.3-.9.5c-.3.2-.5.5-.7.7-.2.3-.3.6-.5.9-.1.3-.2.6-.3,1,0,.3,0,.7,0,1,0,.6,0,1.2.1,1.6s.2.9.4,1.2.4.6.7.9.5.5.7.6.3.3.4.3.1.1.1.2,0,.1,0,.2v.6c0,.2,0,.3-.1.5s-.2.1-.3.1h-3.6c0-.1,0-.2,0-.3v-.3c0-.2,0-.4,0-.5,0-.1.1-.2.2-.2h2.2c-.4-.2-.7-.5-1-.8-.3-.3-.6-.7-.8-1.1s-.4-.9-.5-1.3-.2-1-.2-1.6.1-1.6.3-2.3.6-1.3,1-1.8c.5-.5,1-.9,1.7-1.2s1.4-.4,2.3-.4,1.6.1,2.2.4,1.2.6,1.6,1.2.7,1.1,1,1.7c.2.7.3,1.4.3,2.2s0,1.2-.2,1.7-.3,1-.5,1.4-.5.8-.8,1.1c-.3.3-.6.6-1,.8h2.2c.1,0,.2,0,.2.2,0,.1,0,.3,0,.5h-.1,0Z"/>
          </g>
        </g>
      </g>
    </g>
  </g>
</svg>