<?xml version="1.0" encoding="UTF-8"?>
<svg xmlns="http://www.w3.org/2000/svg" version="1.1" viewBox="0 0 754.7 861.7">
  <defs>
    <style>
      .cls-1 {
        fill: #29abe2;
      }

      .cls-2 {
        fill: #b3b3b3;
      }

      .cls-2, .cls-3, .cls-4, .cls-5, .cls-6, .cls-7 {
        isolation: isolate;
      }

      .cls-8 {
        fill: #2c2c2c;
      }

      .cls-9 {
        stroke: gray;
      }

      .cls-9, .cls-10, .cls-11, .cls-12, .cls-13, .cls-14 {
        fill: none;
      }

      .cls-9, .cls-11, .cls-12, .cls-13 {
        stroke-width: 3px;
      }

      .cls-9, .cls-11, .cls-12, .cls-13, .cls-14 {
        stroke-miterlimit: 10;
      }

      .cls-15, .cls-3 {
        fill: #fff;
      }

      .cls-16 {
        fill: #be8839;
      }

      .cls-17 {
        fill: #dbded7;
      }

      .cls-18 {
        fill: #914f00;
      }

      .cls-19 {
        fill: #9a2442;
      }

      .cls-20 {
        fill: #303030;
      }

      .cls-21 {
        fill: #f53200;
      }

      .cls-11 {
        stroke: #754c24;
      }

      .cls-22 {
        fill: #47494a;
      }

      .cls-23 {
        fill: #655a50;
      }

      .cls-24 {
        fill: #00b589;
      }

      .cls-25 {
        fill: #474949;
      }

      .cls-26 {
        fill: #fcf7fd;
      }

      .cls-5 {
        fill: #ccc;
      }

      .cls-27 {
        fill: #ada390;
      }

      .cls-28 {
        fill: #686868;
      }

      .cls-29 {
        fill: #e3ad51;
      }

      .cls-6 {
        fill: gray;
      }

      .cls-30 {
        fill: #ddd;
      }

      .cls-31 {
        fill: #1a1a1a;
      }

      .cls-7 {
        fill: #f2f2f2;
      }

      .cls-32 {
        fill: #c4b3a8;
      }

      .cls-33 {
        fill: #a3928b;
      }

      .cls-34 {
        fill: #36323e;
      }

      .cls-12 {
        stroke: #000;
      }

      .cls-35 {
        fill: #eaeaea;
      }

      .cls-36 {
        fill: #1a1919;
      }

      .cls-37 {
        fill: #e3b37d;
      }

      .cls-38 {
        fill: #010103;
      }

      .cls-13 {
        stroke: red;
      }

      .cls-39 {
        fill: #f5b93e;
      }

      .cls-40 {
        fill: #e0dcd3;
      }

      .cls-14 {
        stroke: #493930;
      }

      .cls-41 {
        fill: #bcb3ad;
      }
    </style>
  </defs>
  <!-- Generator: Adobe Illustrator 28.6.0, SVG Export Plug-In . SVG Version: 1.2.0 Build 709)  -->
  <g>
    <g id="Ebene_1">
      <g>
        <path class="cls-1" d="M694.96,387.81c0,4.7,1.46,8.98,3.87,12.21v34.46c-2.4,3.23-3.87,7.51-3.87,12.21,0,10.05,6.69,18.19,14.94,18.19s14.94-8.15,14.94-18.19c0-4.7-1.46-8.98-3.87-12.21v-34.46c2.4-3.23,3.87-7.51,3.87-12.21,0-10.05-6.69-18.19-14.94-18.19s-14.94,8.15-14.94,18.19Z"/>
        <line class="cls-11" x1="695.13" y1="385.61" x2="724.84" y2="385.61"/>
        <line class="cls-13" x1="695.13" y1="448.8" x2="724.84" y2="448.8"/>
        <line class="cls-13" x1="698.83" y1="430.17" x2="721.06" y2="430.17"/>
        <line class="cls-12" x1="698.76" y1="423.86" x2="721" y2="423.86"/>
        <line class="cls-12" x1="698.76" y1="412.96" x2="721" y2="412.96"/>
        <line class="cls-9" x1="709.9" y1="464.89" x2="709.9" y2="537.13"/>
        <line class="cls-9" x1="709.9" y1="297.36" x2="709.9" y2="369.61"/>
      </g>
      <g id="svg8">
        <g>
          <path class="cls-36" d="M590.2,93.7H7.4c-4,0-7.3,3.2-7.3,7.3v719c0,4,3.2,7.3,7.3,7.3h17.6l34.2,34.2h365.2l34.1-34.2h131.6c4,0,7.3-3.2,7.3-7.3V101c0-4-3.2-7.3-7.3-7.3h.1ZM28.4,268.1c-10,0-18.1-8.1-18.1-18.1s8.1-18.1,18.1-18.1,18.1,8.1,18.1,18.1-8.1,18.1-18.1,18.1ZM88.3,850c-10,0-18.1-8.1-18.1-18.1s8.1-18.1,18.1-18.1,18.1,8.1,18.1,18.1-8.1,18.1-18.1,18.1ZM401.5,850c-10,0-18.1-8.1-18.1-18.1s8.1-18.1,18.1-18.1,18.1,8.1,18.1,18.1-8.1,18.1-18.1,18.1ZM569.7,279.5c-10,0-18.1-8.1-18.1-18.1s8.1-18.1,18.1-18.1,18.1,8.1,18.1,18.1-8.1,18.1-18.1,18.1Z"/>
          <rect class="cls-20" x="56.1" y="60.4" width="101.7" height="143.5"/>
          <path class="cls-20" d="M65.1,203.9h83.7v9.1c0,3.9-3.2,7.1-7.1,7.1h-69.4c-3.9,0-7.1-3.2-7.1-7.1v-9.1h-.1Z"/>
          <path class="cls-30" d="M571.6,132.4h-21.4v-4.6c0-.8-.6-1.4-1.4-1.4h-20.6c-.8,0-1.4.6-1.4,1.4v4.6h-21.4c-1,0-1.7.8-1.7,1.7v65.1c0,1,.8,1.7,1.7,1.7h66.3c1,0,1.7-.8,1.7-1.7v-65.1c0-1-.8-1.7-1.7-1.7h-.1Z"/>
          <circle class="cls-19" cx="538.5" cy="163.7" r="19.2"/>
          <g>
            <circle class="cls-30" cx="148.7" cy="312.4" r="35.2"/>
            <path class="cls-38" d="M129.8,287.8c-8.1,5.1-13.5,14.2-13.5,24.5s5.4,19.4,13.5,24.5v-49.1.1Z"/>
          </g>
          <g>
            <circle class="cls-30" cx="174.3" cy="411.3" r="35.2"/>
            <path class="cls-38" d="M166.9,381.2c-9.5,1.4-18.1,7.5-22.3,16.9s-2.9,19.9,2.4,27.9l19.9-44.9v.1Z"/>
          </g>
          <rect class="cls-37" x="278.7" y="174.2" width="9.8" height="21.5"/>
          <rect class="cls-37" x="362.5" y="217.9" width="9.8" height="21.5"/>
          <rect class="cls-37" x="445.9" y="297.8" width="21.5" height="9.8"/>
          <rect class="cls-37" x="445.9" y="238.3" width="21.5" height="9.8"/>
          <rect class="cls-37" x="327.3" y="320.9" width="9.8" height="21.5"/>
          <rect class="cls-39" x="396.8" y="418.3" width="9.8" height="21.5"/>
          <rect class="cls-37" x="423.7" y="418.3" width="9.8" height="21.5"/>
          <rect class="cls-37" x="450" y="418.3" width="9.8" height="21.5"/>
          <rect class="cls-37" x="324.3" y="711.7" width="21.5" height="9.8"/>
          <rect class="cls-39" x="387.4" y="724.1" width="9.8" height="21.5"/>
          <rect class="cls-25" x="302.8" y="217.9" width="31.5" height="14.6" rx="1.5" ry="1.5"/>
          <g>
            <path class="cls-40" d="M316.6,205.7v12.2h-11.5v-12.2c0-.7.6-1.2,1.2-1.2h9c.7,0,1.2.6,1.2,1.2h.1Z"/>
            <path class="cls-40" d="M331.9,205.6v12.2h-11.5v-12.2c0-.7.6-1.2,1.2-1.2h9c.7,0,1.2.6,1.2,1.2h.1Z"/>
          </g>
          <g>
            <rect class="cls-17" x="423.2" y="391.2" width="10.7" height="17.2"/>
            <rect class="cls-25" x="423.2" y="393.7" width="10.7" height="11.8"/>
          </g>
          <g>
            <rect class="cls-17" x="449.6" y="391.2" width="10.7" height="17.2"/>
            <rect class="cls-25" x="449.6" y="393.7" width="10.7" height="11.8"/>
          </g>
          <g>
            <rect class="cls-17" x="306.1" y="361" width="17.2" height="10.7"/>
            <rect class="cls-25" x="308.6" y="361" width="11.8" height="10.7"/>
          </g>
          <g>
            <rect class="cls-17" x="251" y="361" width="17.2" height="10.7"/>
            <rect class="cls-25" x="253.5" y="361" width="11.8" height="10.7"/>
          </g>
          <g>
            <rect class="cls-17" x="387.4" y="693.8" width="10.7" height="17.2"/>
            <rect class="cls-25" x="387.4" y="696.3" width="10.7" height="11.8"/>
          </g>
          <g>
            <rect class="cls-17" x="326.4" y="731.2" width="17.2" height="10.7"/>
            <rect class="cls-25" x="328.9" y="731.3" width="11.8" height="10.7"/>
          </g>
          <g>
            <rect class="cls-17" x="478.1" y="141" width="10.7" height="17.2"/>
            <rect class="cls-25" x="478.1" y="143.6" width="10.7" height="11.8"/>
          </g>
          <g>
            <rect class="cls-17" x="338.5" y="142.1" width="10.7" height="17.2"/>
            <rect class="cls-25" x="338.5" y="144.6" width="10.7" height="11.8"/>
          </g>
          <rect class="cls-33" x="442" y="255.2" width="12.2" height="32.8" rx="3.7" ry="3.7"/>
          <g>
            <rect class="cls-29" x="370.11" y="506.39" width="22.3" height="17.8" rx="2.9" ry="2.9" transform="translate(-252.7 420.51) rotate(-45)"/>
            <rect class="cls-32" x="370.94" y="507.16" width="20.5" height="16.4" rx="2.9" ry="2.9" transform="translate(-252.77 420.48) rotate(-45)"/>
          </g>
          <rect class="cls-41" x="374.9" y="482.3" width="12.2" height="11"/>
          <rect class="cls-41" x="394.5" y="482.3" width="12.2" height="11"/>
          <rect class="cls-41" x="374.9" y="535.2" width="12.2" height="11"/>
          <rect class="cls-41" x="394.5" y="535.2" width="12.2" height="11"/>
          <rect class="cls-21" x="326.4" y="758.5" width="20.8" height="11" rx="2.8" ry="2.8"/>
          <g>
            <path class="cls-15" d="M31.4,128.6v-4.5h2.1v7.1h-1.5c-2.9-2.4-4.8-2.7-8.9-2.8v-2.5c3.4.2,5.6.7,8.3,2.7Z"/>
            <path class="cls-15" d="M27.9,132.6v4h-1.7v-4h1.7Z"/>
            <path class="cls-15" d="M25,138.3v2.2h5.9v-1.9h1.5c.2,1.1.5,1.8.9,2.6v1.8h-8.4v1.9h-2v-6.6h2.1Z"/>
            <path class="cls-15" d="M24.6,146.4c2.3,2.7,4.2,4.4,5.6,4.4s1.5-.5,1.5-1.4-.5-1.3-1-1.8l1.3-1.3c1.1,1,1.7,1.9,1.7,3.4s-1.3,3.4-3.3,3.4-3.8-1.7-5.4-3.3c0,.5.1,1.2.1,1.7v2.1h-2.1v-7.2h1.6Z"/>
            <path class="cls-15" d="M33.4,154.2v2.6l-4.8,1.1c-1.1.3-2.2.5-3.3.8h0c1.1.4,2.2.6,3.3.9l4.8,1.2v2.5l-10.4-3.2v-3l10.4-3.1v.2Z"/>
            <path class="cls-15" d="M33.4,167.7v2.5h-10.4v-2.5h10.4Z"/>
            <path class="cls-15" d="M33.4,172.6v2.6l-5,2.6c-.7.4-1.5.7-2.4,1h0c1.1,0,2.6-.3,3.8-.3h3.5v2.4h-10.4v-2.6l5-2.6c.7-.4,1.5-.7,2.4-1h0c-1.2,0-2.6.3-3.8.3h-3.5v-2.4h10.4Z"/>
            <path class="cls-15" d="M33.4,183.2v3.7c0,2.3-.8,4.2-3.4,4.2s-3.6-1.9-3.6-4.1v-1.2h-3.5v-2.5h10.4l.1-.1ZM28.4,186.8c0,1.2.6,1.8,1.6,1.8s1.4-.7,1.4-1.9v-1h-3v1.1h0Z"/>
            <path class="cls-15" d="M27.9,192.8h5.5v2.5h-5.8c-2,0-2.7.6-2.7,1.7s.7,1.8,2.7,1.8h5.8v2.4h-5.5c-3.5,0-5.1-1.4-5.1-4.2s1.6-4.2,5.1-4.2Z"/>
            <path class="cls-15" d="M31.4,205.5v-2.8h2.1v8.1h-2.1v-2.8h-8.3v-2.5h8.3Z"/>
          </g>
          <g>
            <path class="cls-15" d="M588.8,142.2v3.8c0,2.2-.8,4.1-3.3,4.1s-2.5-.7-3-1.8l-4.1,2.3v-2.8l3.7-1.9v-1.2h-3.7v-2.5h10.4,0ZM584,145.8c0,1.2.5,1.8,1.5,1.8s1.3-.6,1.3-1.8v-1.1h-2.8v1.1Z"/>
            <path class="cls-15" d="M588.8,152.1v6.6h-2.1v-4.1h-2v3.5h-2.1v-3.5h-2.2v4.3h-2.1v-6.8h10.5Z"/>
            <path class="cls-15" d="M579.7,160.2l1.6,1.3c-.6.7-1,1.7-1,2.6s.4,1.4.9,1.4.8-.6,1.2-1.5l.6-1.3c.4-1.1,1.3-2.1,2.8-2.1s3.2,1.6,3.2,3.8-.5,2.5-1.3,3.4l-1.6-1.3c.5-.7.8-1.4.8-2.1s-.3-1.3-.8-1.3-.8.7-1.2,1.6l-.5,1.3c-.5,1.3-1.4,2.1-2.8,2.1s-3.3-1.5-3.3-4,.5-2.8,1.5-3.9h-.1Z"/>
            <path class="cls-15" d="M588.8,169.8v6.6h-2.1v-4.1h-2v3.5h-2.1v-3.5h-2.2v4.3h-2.1v-6.8h10.5Z"/>
            <path class="cls-15" d="M586.7,180.6v-2.8h2.1v8.1h-2.1v-2.8h-8.3v-2.5h8.3Z"/>
          </g>
          <g>
            <path class="cls-15" d="M371.9,802.9v2.5h-10.4v-2.5h10.4Z"/>
            <path class="cls-15" d="M366.6,807.3c3.5,0,5.5,2.3,5.5,5s-.6,2.4-1.4,3.2l-1.5-1.3c.5-.5.7-1.1.7-1.8,0-1.4-1.2-2.5-3.2-2.5s-3.3,1-3.3,2.4.3,1.5.9,2l-1.5,1.3c-1-.9-1.5-2.1-1.5-3.4,0-2.7,1.8-4.9,5.3-4.9Z"/>
            <path class="cls-15" d="M362.8,816l1.6,1.3c-.6.7-1,1.7-1,2.6s.4,1.4.9,1.4.8-.6,1.2-1.5l.6-1.3c.4-1.1,1.3-2.1,2.8-2.1s3.2,1.6,3.2,3.8-.5,2.5-1.3,3.4l-1.6-1.3c.5-.7.8-1.4.8-2.1s-.3-1.3-.8-1.3-.8.7-1.2,1.6l-.5,1.3c-.5,1.3-1.4,2.1-2.8,2.1s-3.3-1.5-3.3-4,.5-2.8,1.5-3.9h-.1Z"/>
            <path class="cls-15" d="M371.9,825.6v3.7c0,2.3-.8,4.2-3.4,4.2s-3.6-1.9-3.6-4.1v-1.2h-3.5v-2.5h10.4l.1-.1ZM366.9,829.2c0,1.2.6,1.8,1.6,1.8s1.4-.7,1.4-1.9v-1h-3v1.1h0Z"/>
          </g>
          <path class="cls-15" d="M388.8,754.8c-1.2,1-2,2.5-2,4.2,0,3,2.5,5.5,5.5,5.5s5.5-2.5,5.5-5.5-.8-3.2-2-4.2c-.4-.4-.5-1-.1-1.4s1-.5,1.4-.1c1.6,1.4,2.7,3.5,2.7,5.8,0,4.1-3.4,7.5-7.5,7.5s-7.5-3.4-7.5-7.5,1.1-4.4,2.7-5.8c.4-.4,1.1-.3,1.4.1s.3,1.1-.1,1.4h0ZM393.4,759c0,.6-.4,1-1,1s-1-.4-1-1v-7c0-.6.4-1,1-1s1,.4,1,1v7Z"/>
          <polyline class="cls-14" points="36.2 286.2 42.9 286.2 105.5 348.8 116.3 348.8"/>
          <polyline class="cls-14" points="36 294.3 42.9 294.3 103 354.5 103 486.2 159.7 542.9 212.5 542.9 224.7 530.5 263.7 530.5"/>
          <polyline class="cls-14" points="33.5 321.8 44.8 321.8 87 363.9 87 486.9 156.8 556.8 268.5 556.8"/>
          <polyline class="cls-14" points="23.1 407.3 62 446.3 62 510.2 33.3 538.9"/>
          <line class="cls-10" x1="76.2" y1="489" x2="152" y2="564.9"/>
          <polyline class="cls-14" points="131.5 556.4 88.8 599.1 24.6 599.1"/>
          <polyline class="cls-14" points="131.5 567 91.5 607 26.2 607"/>
          <polyline class="cls-14" points="267.5 565.5 234.9 565.5 159.3 641.1 78.8 641.1 56.2 663.8 31.4 663.8"/>
          <polyline class="cls-14" points="249.6 574.5 249.6 620.9 179.8 690.7 30.7 690.7"/>
          <polyline class="cls-14" points="264.9 594.5 264.9 630.8 176.4 719.3 31.4 719.3"/>
          <polyline class="cls-14" points="273.7 594.3 273.7 633.5 158.9 748.3 24.6 748.3"/>
          <polyline class="cls-14" points="282.7 595.2 282.7 640.8 147.5 775.9 30.7 775.9"/>
          <polyline class="cls-14" points="291.2 599.2 291.2 648.6 134.9 805 30.7 805"/>
          <line class="cls-10" x1="328.9" y1="684.1" x2="292.3" y2="647.5"/>
          <polyline class="cls-14" points="331.3 700.4 306.1 675.2 280.3 675.2"/>
          <polyline class="cls-14" points="344.6 708.2 344.6 649.5 299.9 604.8 299.9 585.4"/>
          <polyline class="cls-14" points="278.6 823 262.3 806.7 262.3 742 287.6 716.7"/>
          <polyline class="cls-14" points="308.4 593.8 308.4 604.6 361.9 658.2 401.7 658.2 507 763.5 507 792.6 518.8 804.4 563.9 804.4"/>
          <polyline class="cls-14" points="317.2 594.9 317.2 605.7 359.5 648 421.6 648 568.8 795.3"/>
          <polyline class="cls-14" points="327.3 594.4 368.1 635.2 433.7 635.2 574.1 775.6"/>
          <polyline class="cls-14" points="345.9 573.8 400.3 573.8 571.4 744.8"/>
          <polyline class="cls-14" points="347.2 565.5 407.4 565.5 573.7 731.7"/>
          <polyline class="cls-14" points="496.2 585.3 489.2 578.3 443.2 578.3"/>
          <polyline class="cls-14" points="347.2 521.9 358.4 521.9 367.2 530.7 377.9 530.7"/>
          <polyline class="cls-14" points="347 512.9 357 512.9 367.6 502.4 380.8 502.4"/>
          <polyline class="cls-14" points="325.6 489.4 342 473 411.9 473 567 628"/>
          <polyline class="cls-14" points="317.1 491.2 317.1 486.6 336.6 467.1 414.9 467.1 575.2 627.5"/>
          <polyline class="cls-14" points="308.4 491.1 308.4 482.7 328.7 462.5 418.6 462.5 575 618.9"/>
          <polyline class="cls-14" points="299.8 489.6 299.8 481.4 323.6 457.6 419 457.6 576.5 615.1"/>
          <polyline class="cls-14" points="291.2 489.1 291.2 477.1 316.1 452.2 420.2 452.2 580.6 612.6"/>
          <polyline class="cls-14" points="282.3 490.7 282.3 469 303.5 448.9 425.2 448.9 480.3 504 580.6 504"/>
          <polyline class="cls-14" points="273.7 488.9 273.7 465.6 297.4 443.7 426.9 443.7 458.3 475 579.2 475"/>
          <polyline class="cls-14" points="264.9 488.4 264.9 464.4 287 442.4 290.3 439"/>
          <polyline class="cls-14" points="221.4 506.5 221.4 477.4 289.7 409.1 315.6 409.1 322.5 416.1 372.4 416.1 399.8 388.7 426.9 388.7"/>
          <polyline class="cls-14" points="210.4 403.6 314.5 403.6 335.3 382.8 354.5 382.8"/>
          <polyline class="cls-14" points="286.8 333 286.8 343.8 277.8 352.8 260.4 352.8 247.8 340.1 247.8 330.9 247.8 305.8"/>
          <polyline class="cls-14" points="227 275.1 227 266.8 232.5 261.3 249.5 261.3"/>
          <polyline class="cls-14" points="191.3 252.8 237.6 252.8 258.1 232.2 258.1 210.4"/>
          <polyline class="cls-14" points="319.3 239.3 333.2 239.3 341.8 230.6 341.8 198.1 313.8 170.1 298.1 170.1 276.1 148.1"/>
          <polyline class="cls-14" points="286.1 144.6 299.9 158.4 311.4 158.4"/>
          <polyline class="cls-14" points="323.4 142.1 323.4 162.3 344.6 183.5 380.1 183.5 384.7 178.8 384.7 149.6"/>
          <path class="cls-14" d="M402.7,259.6v-48.4"/>
          <path class="cls-14" d="M418.3,211.2v22"/>
          <polyline class="cls-14" points="415.8 266.9 428.2 266.9 440.1 254.9"/>
          <polyline class="cls-14" points="415.7 280.6 428.6 280.6 440.7 292.7"/>
          <line class="cls-14" x1="416.2" y1="321.8" x2="439.8" y2="321.8"/>
          <line class="cls-14" x1="414" y1="335.8" x2="442" y2="335.8"/>
          <polyline class="cls-14" points="415.7 349.2 426.9 349.2 442 349.2"/>
          <line class="cls-14" x1="563" y1="212.1" x2="530.5" y2="244.6"/>
          <g>
            <rect class="cls-25" x="257.4" y="505.6" width="76" height="76" rx="5.9" ry="5.9"/>
            <circle class="cls-8" cx="322.5" cy="569.7" r="4.8"/>
            <g>
              <path class="cls-40" d="M240.5,510.2h16.9v5.9h-16.9c-.7,0-1.2-.6-1.2-1.2v-3.4c0-.7.6-1.2,1.2-1.2v-.1Z"/>
              <path class="cls-40" d="M240.5,518.9h16.9v5.9h-16.9c-.7,0-1.2-.6-1.2-1.2v-3.4c0-.7.6-1.2,1.2-1.2v-.1Z"/>
              <path class="cls-40" d="M240.5,527.6h16.9v5.9h-16.9c-.7,0-1.2-.6-1.2-1.2v-3.4c0-.7.6-1.2,1.2-1.2v-.1Z"/>
              <path class="cls-40" d="M240.5,536.3h16.9v5.9h-16.9c-.7,0-1.2-.6-1.2-1.2v-3.4c0-.7.6-1.2,1.2-1.2v-.1Z"/>
              <path class="cls-40" d="M240.5,545h16.9v5.9h-16.9c-.7,0-1.2-.6-1.2-1.2v-3.4c0-.7.6-1.2,1.2-1.2v-.1Z"/>
              <path class="cls-40" d="M240.5,553.7h16.9v5.9h-16.9c-.7,0-1.2-.6-1.2-1.2v-3.4c0-.7.6-1.2,1.2-1.2v-.1Z"/>
              <path class="cls-40" d="M240.5,562.4h16.9v5.9h-16.9c-.7,0-1.2-.6-1.2-1.2v-3.4c0-.7.6-1.2,1.2-1.2v-.1Z"/>
              <path class="cls-40" d="M240.5,571.1h16.9v5.9h-16.9c-.7,0-1.2-.6-1.2-1.2v-3.4c0-.7.6-1.2,1.2-1.2v-.1Z"/>
            </g>
            <g>
              <path class="cls-40" d="M328.7,488.7v16.9h-5.9v-16.9c0-.7.6-1.2,1.2-1.2h3.4c.7,0,1.2.6,1.2,1.2h.1Z"/>
              <path class="cls-40" d="M320,488.7v16.9h-5.9v-16.9c0-.7.6-1.2,1.2-1.2h3.4c.7,0,1.2.6,1.2,1.2h.1Z"/>
              <path class="cls-40" d="M311.4,488.7v16.9h-5.9v-16.9c0-.7.6-1.2,1.2-1.2h3.4c.7,0,1.2.6,1.2,1.2h.1Z"/>
              <path class="cls-40" d="M302.7,488.7v16.9h-5.9v-16.9c0-.7.6-1.2,1.2-1.2h3.4c.7,0,1.2.6,1.2,1.2h.1Z"/>
              <path class="cls-40" d="M294,488.7v16.9h-5.9v-16.9c0-.7.6-1.2,1.2-1.2h3.4c.7,0,1.2.6,1.2,1.2h.1Z"/>
              <path class="cls-40" d="M285.3,488.7v16.9h-5.9v-16.9c0-.7.6-1.2,1.2-1.2h3.4c.7,0,1.2.6,1.2,1.2h.1Z"/>
              <path class="cls-40" d="M276.6,488.7v16.9h-5.9v-16.9c0-.7.6-1.2,1.2-1.2h3.4c.7,0,1.2.6,1.2,1.2h.1Z"/>
              <path class="cls-40" d="M267.9,488.7v16.9h-5.9v-16.9c0-.7.6-1.2,1.2-1.2h3.4c.7,0,1.2.6,1.2,1.2h.1Z"/>
            </g>
            <g>
              <path class="cls-40" d="M262,598.5v-16.9h5.9v16.9c0,.7-.6,1.2-1.2,1.2h-3.4c-.7,0-1.2-.6-1.2-1.2h-.1Z"/>
              <path class="cls-40" d="M270.7,598.5v-16.9h5.9v16.9c0,.7-.6,1.2-1.2,1.2h-3.4c-.7,0-1.2-.6-1.2-1.2h-.1Z"/>
              <path class="cls-40" d="M279.4,598.5v-16.9h5.9v16.9c0,.7-.6,1.2-1.2,1.2h-3.4c-.7,0-1.2-.6-1.2-1.2h-.1Z"/>
              <path class="cls-40" d="M288.1,598.5v-16.9h5.9v16.9c0,.7-.6,1.2-1.2,1.2h-3.4c-.7,0-1.2-.6-1.2-1.2h-.1Z"/>
              <path class="cls-40" d="M296.8,598.5v-16.9h5.9v16.9c0,.7-.6,1.2-1.2,1.2h-3.4c-.7,0-1.2-.6-1.2-1.2h-.1Z"/>
              <path class="cls-40" d="M305.5,598.5v-16.9h5.9v16.9c0,.7-.6,1.2-1.2,1.2h-3.4c-.7,0-1.2-.6-1.2-1.2h-.1Z"/>
              <path class="cls-40" d="M314.2,598.4v-16.9h5.9v16.9c0,.7-.6,1.2-1.2,1.2h-3.4c-.7,0-1.2-.6-1.2-1.2h-.1Z"/>
              <path class="cls-40" d="M322.9,598.4v-16.9h5.9v16.9c0,.7-.6,1.2-1.2,1.2h-3.4c-.7,0-1.2-.6-1.2-1.2h-.1Z"/>
            </g>
            <g>
              <path class="cls-40" d="M350.2,576.7h-16.9v-5.9h16.9c.7,0,1.2.6,1.2,1.2v3.4c0,.7-.6,1.2-1.2,1.2v.1Z"/>
              <path class="cls-40" d="M350.2,568h-16.9v-5.9h16.9c.7,0,1.2.6,1.2,1.2v3.4c0,.7-.6,1.2-1.2,1.2v.1Z"/>
              <path class="cls-40" d="M350.2,559.3h-16.9v-5.9h16.9c.7,0,1.2.6,1.2,1.2v3.4c0,.7-.6,1.2-1.2,1.2v.1Z"/>
              <path class="cls-40" d="M350.2,550.6h-16.9v-5.9h16.9c.7,0,1.2.6,1.2,1.2v3.4c0,.7-.6,1.2-1.2,1.2v.1Z"/>
              <path class="cls-40" d="M350.2,541.9h-16.9v-5.9h16.9c.7,0,1.2.6,1.2,1.2v3.4c0,.7-.6,1.2-1.2,1.2v.1Z"/>
              <path class="cls-40" d="M350.2,533.2h-16.9v-5.9h16.9c.7,0,1.2.6,1.2,1.2v3.4c0,.7-.6,1.2-1.2,1.2v.1Z"/>
              <path class="cls-40" d="M350.2,524.6h-16.9v-5.9h16.9c.7,0,1.2.6,1.2,1.2v3.4c0,.7-.6,1.2-1.2,1.2v.1Z"/>
              <path class="cls-40" d="M350.2,515.9h-16.9v-5.9h16.9c.7,0,1.2.6,1.2,1.2v3.4c0,.7-.6,1.2-1.2,1.2v.1Z"/>
            </g>
          </g>
          <path class="cls-15" d="M247.2,668.8v7.2c0,1.3,0,2.5-.1,3.5,0,.8-.2,1.6-.4,2.4-.2.7-.5,1.3-.8,1.9-.5.7-1,1.4-1.6,2-.6.7-1.5,1.2-2.5,1.6-1.1.3-2.3.5-3.7.5h-6v-7.4h3.7c.5,0,.9,0,1.4-.2.3-.1.6-.3.9-.6.2-.3.4-.7.5-1.1.1-.6.2-1.2.2-1.7v-7.9h8.5l-.1-.2ZM232.8,692.2h95v3.1h-95v-3.1h0ZM247.2,656.8v7.4h-8.5v-7.4h8.5ZM267.5,656.3c1.1,0,2.3,0,3.4.3,1,.2,2.1.5,3.1.9s1.9.9,2.7,1.4c.9.6,1.7,1.2,2.4,2,.7.7,1.4,1.6,1.9,2.4.6.9,1,1.8,1.4,2.7.4,1,.7,2,.8,3.1.2,1.1.3,2.3.3,3.4s0,2.2-.3,3.3c-.2,1-.5,2-.8,3-.4.9-.8,1.9-1.4,2.7-.6.9-1.2,1.7-1.9,2.4-.7.7-1.5,1.4-2.4,2-.8.6-1.7,1-2.7,1.4s-2,.7-3,.9c-1.1.2-2.2.3-3.3.3s-2.3,0-3.4-.3c-1-.2-2.1-.5-3.1-.8-1-.4-1.9-.8-2.7-1.4-1.7-1.1-3.2-2.6-4.4-4.4-.6-.9-1-1.8-1.4-2.7-.4-1-.7-2-.9-3-.4-2.2-.4-4.5,0-6.7.2-1,.5-2.1.9-3,.4-1,.8-1.9,1.4-2.7.6-.9,1.2-1.7,2-2.5.7-.8,1.5-1.4,2.4-2,.8-.6,1.7-1.1,2.7-1.4,1-.4,2-.7,3-.9,1.1-.2,2.2-.3,3.3-.3h0v-.1ZM267.5,663.4c-1,0-2,.2-3,.6-.9.4-1.6,1-2.2,1.8s-1.1,1.8-1.4,2.8c-.3,1.1-.5,2.3-.5,3.7,0,1.3.1,2.5.5,3.8.3,1,.8,2,1.4,2.9.6.8,1.4,1.4,2.3,1.8.9.4,1.9.6,3,.6,1,0,2-.2,3-.6.9-.4,1.6-1,2.2-1.8.6-.9,1.1-1.8,1.4-2.8.3-1.1.5-2.4.5-3.8,0-1.2-.1-2.5-.5-3.7-.3-1-.8-2-1.4-2.8s-1.4-1.4-2.3-1.8c-.9-.4-1.9-.6-3-.6h0v-.1ZM286.9,656.8h8.5v7.7c0,1.6.3,2.8.9,3.6s1.6,1.2,2.8,1.2c1.3,0,2.3-.4,2.9-1.3s1-2.1,1-3.8v-7.4h8.4v5.4c0,1.3,0,2.5-.2,3.6,0,.9-.2,1.8-.5,2.7s-.6,1.7-1.1,2.5c-.6,1-1.3,1.9-2,2.7-.4.5-.9.9-1.5,1.3-.6.4-1.2.7-1.9.9-.8.3-1.6.4-2.4.5-.9.1-1.9.2-2.8.2s-1.8,0-2.7-.2c-.8-.1-1.5-.3-2.3-.5-.7-.2-1.3-.5-1.9-.9-.5-.3-1-.7-1.5-1.2-.8-.8-1.5-1.7-2.1-2.6-.5-.7-.9-1.5-1.2-2.4-.3-.9-.4-1.8-.5-2.7-.1-1.1-.2-2.3-.2-3.4v-6.1l.3.2ZM306.2,680.4v7.4h-14.2v-7.4h14.2ZM310.2,650.1h56.8v2.9h-56.8v-2.9ZM313.8,670.4h18.3v7.3h-18.3v-7.3ZM343.9,656.8v7.4h-8.5v-7.4h8.5ZM343.9,668.8v19.1h-8.5v-19.1h8.5ZM368.4,656.8v7.4h-19.9v-7.4h19.9ZM349.9,668.8h8.4v7.7c0,.7,0,1.3.2,2,.1.5.3.9.5,1.2.2.2.6.4,1.1.6.6.1,1.2.2,1.8.2h5.5v7.4h-7.9c-.8,0-1.6,0-2.3-.2-.7,0-1.4-.3-2-.5s-1.1-.5-1.7-.8c-.5-.3-.9-.7-1.3-1.1-.4-.4-.7-.9-1-1.5s-.5-1.2-.7-1.9c-.2-.8-.3-1.5-.4-2.3,0-.9-.1-1.8-.1-2.7v-8.1h-.1Z"/>
          <rect class="cls-37" x="203.2" y="503.2" width="21.5" height="9.8"/>
          <rect class="cls-37" x="349.6" y="381.1" width="9.8" height="21.5"/>
          <g>
            <rect class="cls-25" x="268.2" y="284.5" width="50.5" height="39.3" rx="2.5" ry="2.5"/>
            <circle class="cls-8" cx="272.4" cy="315.8" r="2.7"/>
            <g>
              <path class="cls-40" d="M270.4,336v-12.2h6.1v12.2c0,.7-.6,1.2-1.2,1.2h-3.6c-.7,0-1.2-.6-1.2-1.2h-.1Z"/>
              <path class="cls-40" d="M283.7,336v-12.2h6.1v12.2c0,.7-.6,1.2-1.2,1.2h-3.6c-.7,0-1.2-.6-1.2-1.2h-.1Z"/>
              <path class="cls-40" d="M297,336v-12.2h6.1v12.2c0,.7-.6,1.2-1.2,1.2h-3.6c-.7,0-1.2-.6-1.2-1.2h-.1Z"/>
              <path class="cls-40" d="M310.3,336v-12.2h6.1v12.2c0,.7-.6,1.2-1.2,1.2h-3.6c-.7,0-1.2-.6-1.2-1.2h-.1Z"/>
            </g>
            <g>
              <path class="cls-40" d="M316.4,272.3v12.2h-6.1v-12.2c0-.7.6-1.2,1.2-1.2h3.6c.7,0,1.2.6,1.2,1.2h.1Z"/>
              <path class="cls-40" d="M303.1,272.3v12.2h-6.1v-12.2c0-.7.6-1.2,1.2-1.2h3.6c.7,0,1.2.6,1.2,1.2h.1Z"/>
              <path class="cls-40" d="M289.8,272.3v12.2h-6.1v-12.2c0-.7.6-1.2,1.2-1.2h3.6c.7,0,1.2.6,1.2,1.2h.1Z"/>
              <path class="cls-40" d="M276.6,272.3v12.2h-6.1v-12.2c0-.7.6-1.2,1.2-1.2h3.6c.7,0,1.2.6,1.2,1.2h.1Z"/>
            </g>
          </g>
          <g>
            <g>
              <path class="cls-40" d="M222.9,312.3v-12.2h9.6v12.2c0,.7-.6,1.2-1.2,1.2h-7.1c-.7,0-1.2-.6-1.2-1.2h-.1Z"/>
              <path class="cls-40" d="M242.6,312.3v-12.2h9.6v12.2c0,.7-.6,1.2-1.2,1.2h-7.1c-.7,0-1.2-.6-1.2-1.2h-.1Z"/>
            </g>
            <g>
              <path class="cls-40" d="M230.1,271.6v12.2h-6.1v-12.2c0-.7.6-1.2,1.2-1.2h3.6c.7,0,1.2.6,1.2,1.2h.1Z"/>
              <path class="cls-40" d="M240.6,271.6v12.2h-6.1v-12.2c0-.7.6-1.2,1.2-1.2h3.6c.7,0,1.2.6,1.2,1.2h.1Z"/>
              <path class="cls-40" d="M251.1,271.6v12.2h-6.1v-12.2c0-.7.6-1.2,1.2-1.2h3.6c.7,0,1.2.6,1.2,1.2h.1Z"/>
            </g>
            <rect class="cls-25" x="222.3" y="283.8" width="30.4" height="16.3" rx=".7" ry=".7"/>
          </g>
          <rect class="cls-37" x="228" y="326" width="21.5" height="9.8"/>
          <g>
            <rect class="cls-25" x="365.6" y="261.4" width="34.4" height="107"/>
            <g>
              <path class="cls-40" d="M348.8,263.9h16.9v5.9h-16.9c-.7,0-1.2-.6-1.2-1.2v-3.4c0-.7.6-1.2,1.2-1.2v-.1Z"/>
              <path class="cls-40" d="M348.8,277.6h16.9v5.9h-16.9c-.7,0-1.2-.6-1.2-1.2v-3.4c0-.7.6-1.2,1.2-1.2v-.1Z"/>
              <path class="cls-40" d="M348.8,291.4h16.9v5.9h-16.9c-.7,0-1.2-.6-1.2-1.2v-3.4c0-.7.6-1.2,1.2-1.2v-.1Z"/>
              <path class="cls-40" d="M348.8,305.1h16.9v5.9h-16.9c-.7,0-1.2-.6-1.2-1.2v-3.4c0-.7.6-1.2,1.2-1.2v-.1Z"/>
              <path class="cls-40" d="M348.8,318.8h16.9v5.9h-16.9c-.7,0-1.2-.6-1.2-1.2v-3.4c0-.7.6-1.2,1.2-1.2v-.1Z"/>
              <path class="cls-40" d="M348.8,332.6h16.9v5.9h-16.9c-.7,0-1.2-.6-1.2-1.2v-3.4c0-.7.6-1.2,1.2-1.2v-.1Z"/>
              <path class="cls-40" d="M348.8,346.3h16.9v5.9h-16.9c-.7,0-1.2-.6-1.2-1.2v-3.4c0-.7.6-1.2,1.2-1.2v-.1Z"/>
              <path class="cls-40" d="M348.8,360h16.9v5.9h-16.9c-.7,0-1.2-.6-1.2-1.2v-3.4c0-.7.6-1.2,1.2-1.2v-.1Z"/>
            </g>
            <g>
              <path class="cls-40" d="M416.9,365.9h-16.9v-5.9h16.9c.7,0,1.2.6,1.2,1.2v3.4c0,.7-.6,1.2-1.2,1.2v.1Z"/>
              <path class="cls-40" d="M416.9,352.1h-16.9v-5.9h16.9c.7,0,1.2.6,1.2,1.2v3.4c0,.7-.6,1.2-1.2,1.2v.1Z"/>
              <path class="cls-40" d="M416.9,338.4h-16.9v-5.9h16.9c.7,0,1.2.6,1.2,1.2v3.4c0,.7-.6,1.2-1.2,1.2v.1Z"/>
              <path class="cls-40" d="M416.9,324.7h-16.9v-5.9h16.9c.7,0,1.2.6,1.2,1.2v3.4c0,.7-.6,1.2-1.2,1.2v.1Z"/>
              <path class="cls-40" d="M416.9,311h-16.9v-5.9h16.9c.7,0,1.2.6,1.2,1.2v3.4c0,.7-.6,1.2-1.2,1.2v.1Z"/>
              <path class="cls-40" d="M416.9,297.2h-16.9v-5.9h16.9c.7,0,1.2.6,1.2,1.2v3.4c0,.7-.6,1.2-1.2,1.2v.1Z"/>
              <path class="cls-40" d="M416.9,283.6h-16.9v-5.9h16.9c.7,0,1.2.6,1.2,1.2v3.4c0,.7-.6,1.2-1.2,1.2v.1Z"/>
              <path class="cls-40" d="M416.9,269.8h-16.9v-5.9h16.9c.7,0,1.2.6,1.2,1.2v3.4c0,.7-.6,1.2-1.2,1.2v.1Z"/>
            </g>
            <circle class="cls-8" cx="392" cy="358.5" r="4.9"/>
          </g>
          <rect class="cls-37" x="438.8" y="313.9" width="21.5" height="9.8"/>
          <g>
            <rect class="cls-17" x="441" y="330.6" width="17.2" height="10.7"/>
            <rect class="cls-25" x="443.8" y="330.7" width="11.8" height="10.7"/>
          </g>
          <g>
            <rect class="cls-17" x="441" y="348.2" width="17.2" height="10.7"/>
            <rect class="cls-25" x="443.8" y="348.3" width="11.8" height="10.7"/>
          </g>
          <g>
            <rect class="cls-17" x="397.4" y="196.2" width="10.7" height="17.2"/>
            <rect class="cls-25" x="397.4" y="198.7" width="10.7" height="11.8"/>
          </g>
          <g>
            <rect class="cls-17" x="412.9" y="196" width="10.7" height="17.2"/>
            <rect class="cls-25" x="412.9" y="198.6" width="10.7" height="11.8"/>
          </g>
          <path class="cls-40" d="M311.9,244.7v-12.2h11.5v12.2c0,.7-.6,1.2-1.2,1.2h-9c-.7,0-1.2-.6-1.2-1.2h-.1Z"/>
          <g>
            <rect class="cls-16" x="274.8" y="114.3" width="51.5" height="35.1"/>
            <rect class="cls-23" x="287.2" y="114.3" width="26.7" height="35.1"/>
          </g>
          <g>
            <path class="cls-30" d="M370.2,80.1h87.6c2.7,1.4,4.4,4.2,4.4,7.3v70.1c0,1-.8,1.8-1.8,1.8h-92.8c-1,0-1.8-.8-1.8-1.8v-70.1c0-3,1.7-5.8,4.4-7.3h0Z"/>
            <g>
              <path class="cls-28" d="M444.9,153.5h0c0-1.3-1.1-2.4-2.4-2.4h-9.9c-.8,0-1.5-.7-1.5-1.5v-2.1c0-.8.7-1.5,1.5-1.5h9.9c1.3,0,2.4-1.1,2.4-2.4h0c0-1.3-1.1-2.4-2.4-2.4h-14c-1.3,0-2.4,1.1-2.4,2.4v10c0,1.3,1.1,2.4,2.4,2.4h14c1.3,0,2.4-1.1,2.4-2.4v-.1Z"/>
              <path class="cls-28" d="M383,143.5h0c0,1.3,1.1,2.4,2.4,2.4h9.9c.8,0,1.5.7,1.5,1.5v2.1c0,.8-.7,1.5-1.5,1.5h-9.9c-1.3,0-2.4,1.1-2.4,2.4h0c0,1.3,1.1,2.4,2.4,2.4h14c1.3,0,2.4-1.1,2.4-2.4v-10c0-1.3-1.1-2.4-2.4-2.4h-14c-1.3,0-2.4,1.1-2.4,2.4v.1Z"/>
            </g>
          </g>
          <g>
            <rect class="cls-25" x="198.3" y="161.1" width="69.5" height="37" rx="1.2" ry="1.2"/>
            <g>
              <path class="cls-40" d="M204.7,215v-16.9h5.9v16.9c0,.7-.6,1.2-1.2,1.2h-3.4c-.7,0-1.2-.6-1.2-1.2h-.1Z"/>
              <path class="cls-40" d="M230.1,215v-16.9h5.9v16.9c0,.7-.6,1.2-1.2,1.2h-3.4c-.7,0-1.2-.6-1.2-1.2h-.1Z"/>
              <path class="cls-40" d="M255.5,214.9v-16.9h5.9v16.9c0,.7-.6,1.2-1.2,1.2h-3.4c-.7,0-1.2-.6-1.2-1.2h-.1Z"/>
            </g>
            <path class="cls-40" d="M248.5,135.6v25.6h-34.3v-25.6c0-.7.6-1.2,1.2-1.2h31.8c.7,0,1.2.6,1.2,1.2h.1Z"/>
          </g>
          <rect class="cls-25" x="150.5" y="239.3" width="48.4" height="27.1"/>
          <g>
            <rect class="cls-30" x="16.1" y="282.4" width="20" height="20"/>
            <circle class="cls-27" cx="26.2" cy="292.4" r="7.4"/>
            <rect class="cls-30" x="16.1" y="311.1" width="20" height="20"/>
            <circle class="cls-27" cx="26.2" cy="321.1" r="7.4"/>
            <rect class="cls-30" x="16.1" y="339.7" width="20" height="20"/>
            <circle class="cls-27" cx="26.2" cy="349.8" r="7.4"/>
            <rect class="cls-30" x="16.1" y="368.4" width="20" height="20"/>
            <circle class="cls-27" cx="26.2" cy="378.4" r="7.4"/>
          </g>
          <g>
            <rect class="cls-22" x="9.4" y="394.8" width="33.4" height="240.9"/>
            <rect x="16.3" y="397.5" width="19.6" height="19.6"/>
            <rect x="16.3" y="428" width="19.6" height="19.6"/>
            <rect x="16.3" y="458.5" width="19.6" height="19.6"/>
            <rect x="16.3" y="489" width="19.6" height="19.6"/>
            <rect x="16.3" y="519.5" width="19.6" height="19.6"/>
            <rect x="16.3" y="550.1" width="19.6" height="19.6"/>
            <rect x="16.3" y="580.6" width="19.6" height="19.6"/>
            <rect x="16.3" y="611.1" width="19.6" height="19.6"/>
          </g>
          <g>
            <rect class="cls-22" x="9.4" y="641.4" width="33.4" height="178.8"/>
            <g>
              <rect x="16.3" y="644.7" width="19.6" height="19.6"/>
              <rect x="16.3" y="675.2" width="19.6" height="19.6"/>
              <rect x="16.3" y="705.7" width="19.6" height="19.6"/>
              <rect x="16.3" y="736.2" width="19.6" height="19.6"/>
              <rect x="16.3" y="766.7" width="19.6" height="19.6"/>
              <rect x="16.3" y="797.2" width="19.6" height="19.6"/>
            </g>
          </g>
          <g>
            <path class="cls-15" d="M50.5,433h2.5v10.4h-2.5v-10.4Z"/>
            <path class="cls-15" d="M54.9,438.2c0-3.4,1.9-5.4,4.8-5.4s4.8,2,4.8,5.4-1.9,5.4-4.8,5.4-4.8-2-4.8-5.4ZM61.9,438.2c0-2-.8-3.2-2.2-3.2s-2.2,1.2-2.2,3.2.9,3.3,2.2,3.3,2.2-1.3,2.2-3.3Z"/>
            <path class="cls-15" d="M66.4,433h3.8c2.2,0,4.1.8,4.1,3.3s-.7,2.5-1.8,3l2.3,4.1h-2.8l-1.9-3.7h-1.2v3.7h-2.5v-10.4ZM70,437.8c1.2,0,1.8-.5,1.8-1.5s-.6-1.3-1.8-1.3h-1.1v2.8h1.1Z"/>
            <path class="cls-15" d="M76.2,433h6.6v2.1h-4.1v2h3.5v2.1h-3.5v2.2h4.3v2.1h-6.8v-10.5Z"/>
            <path class="cls-15" d="M85,433h6.7v2.1h-4.2v2.3h3.6v2.1h-3.6v4h-2.5v-10.5Z"/>
          </g>
          <g>
            <path class="cls-15" d="M51.7,463.5h3.8c2.2,0,4.1.8,4.1,3.3s-.7,2.5-1.8,3l2.3,4.1h-2.8l-1.9-3.7h-1.2v3.7h-2.5s0-10.4,0-10.4ZM55.3,468.3c1.2,0,1.8-.5,1.8-1.5s-.6-1.3-1.8-1.3h-1.1v2.8h1.1Z"/>
            <path class="cls-15" d="M61.6,463.5h6.6v2.1h-4.1v2h3.5v2.1h-3.5v2.2h4.3v2.1h-6.8v-10.5Z"/>
            <path class="cls-15" d="M69.7,472.6l1.3-1.6c.7.6,1.7,1,2.6,1s1.4-.4,1.4-.9-.6-.8-1.5-1.2l-1.3-.6c-1.1-.4-2.1-1.3-2.1-2.8s1.6-3.2,3.8-3.2,2.5.5,3.4,1.3l-1.3,1.6c-.7-.5-1.4-.8-2.1-.8s-1.3.3-1.3.8.7.8,1.6,1.2l1.3.5c1.3.5,2.1,1.4,2.1,2.8s-1.5,3.3-4,3.3-2.8-.5-3.9-1.5v.1Z"/>
            <path class="cls-15" d="M79.3,463.5h6.6v2.1h-4.1v2h3.5v2.1h-3.5v2.2h4.3v2.1h-6.8v-10.5Z"/>
            <path class="cls-15" d="M90.2,465.6h-2.8v-2.1h8.1v2.1h-2.8v8.3h-2.5s0-8.3,0-8.3Z"/>
          </g>
          <g>
            <path class="cls-15" d="M52.1,503.2l1.1-1.6c.6.6,1.4,1,2.2,1s1.6-.4,1.6-1.2-.5-1.4-2.7-1.4v-1.8c1.8,0,2.3-.5,2.3-1.4s-.4-1.1-1.2-1.1-1.2.3-1.9.9l-1.2-1.5c.9-.8,2-1.3,3.2-1.3,2.2,0,3.6,1,3.6,2.9s-.6,1.8-1.7,2.3h0c1.2.4,2,1.2,2,2.6,0,2-1.8,3-3.8,3s-2.8-.6-3.6-1.4h.1Z"/>
            <path class="cls-15" d="M61.2,503.1c0-.9.6-1.5,1.5-1.5s1.5.7,1.5,1.5-.6,1.5-1.5,1.5-1.5-.7-1.5-1.5Z"/>
            <path class="cls-15" d="M65.5,503.2l1.1-1.6c.6.6,1.4,1,2.2,1s1.6-.4,1.6-1.2-.5-1.4-2.7-1.4v-1.8c1.8,0,2.3-.5,2.3-1.4s-.4-1.1-1.2-1.1-1.2.3-1.9.9l-1.2-1.5c.9-.8,2-1.3,3.2-1.3,2.2,0,3.6,1,3.6,2.9s-.6,1.8-1.7,2.3h0c1.2.4,2,1.2,2,2.6,0,2-1.8,3-3.8,3s-2.8-.6-3.6-1.4h.1Z"/>
            <path class="cls-15" d="M73.5,494h2.6l1.1,4.8c.3,1.1.5,2.2.8,3.3h0c.3-1.1.5-2.2.8-3.3l1.2-4.8h2.5l-3.2,10.4h-3l-3.1-10.4h.3Z"/>
          </g>
          <g>
            <path class="cls-15" d="M53.3,533.7l1.1-1.6c.6.6,1.3,1,2.1,1s1.6-.6,1.6-1.6-.6-1.6-1.5-1.6-.9.1-1.5.5l-1.1-.7.3-5.2h5.8v2.1h-3.7v1.8c.2-.1.5-.2.9-.2,1.8,0,3.2,1,3.2,3.3s-1.8,3.7-3.8,3.7-2.8-.6-3.6-1.4l.2-.1Z"/>
            <path class="cls-15" d="M61.4,524.5h2.6l1.1,4.8c.3,1.1.5,2.2.8,3.3h0c.3-1.1.5-2.2.8-3.3l1.2-4.8h2.5l-3.2,10.4h-3l-3.1-10.4h.3Z"/>
          </g>
          <g>
            <path class="cls-15" d="M54.9,560.3c0-3.5,2.3-5.5,5.1-5.5s2.6.6,3.3,1.4l-1.3,1.5c-.5-.5-1.1-.7-1.9-.7-1.5,0-2.7,1.2-2.7,3.2s.9,3.3,2.9,3.3.8,0,1-.3v-1.7h-1.7v-2h3.9v4.9c-.7.7-2,1.3-3.5,1.3-2.9,0-5.2-1.8-5.2-5.3l.1-.1Z"/>
            <path class="cls-15" d="M65.6,555h2.6l2.6,5c.4.7.7,1.5,1,2.4h0c-.1-1.1-.3-2.6-.3-3.8v-3.5h2.4v10.4h-2.6l-2.6-5c-.4-.7-.7-1.5-1-2.4h0c.1,1.2.3,2.6.3,3.8v3.5h-2.4v-10.4Z"/>
            <path class="cls-15" d="M76.3,555h3c3.2,0,5.3,1.6,5.3,5.2s-2.1,5.2-5.1,5.2h-3.1v-10.4h-.1ZM79.2,563.5c1.7,0,2.9-.8,2.9-3.2s-1.2-3.2-2.9-3.2h-.4v6.4h.4Z"/>
          </g>
          <g>
            <path class="cls-15" d="M56.2,590.8c0-3.5,2.3-5.5,5.1-5.5s2.6.6,3.3,1.4l-1.3,1.5c-.5-.5-1.1-.7-1.9-.7-1.5,0-2.7,1.2-2.7,3.2s.9,3.3,2.9,3.3.8,0,1-.3v-1.7h-1.7v-2h3.9v4.9c-.7.7-2,1.3-3.5,1.3-2.9,0-5.2-1.8-5.2-5.3l.1-.1Z"/>
            <path class="cls-15" d="M66.9,585.6h2.6l2.6,5c.4.7.7,1.5,1,2.4h0c-.1-1.1-.3-2.6-.3-3.8v-3.5h2.4v10.4h-2.6l-2.6-5c-.4-.7-.7-1.5-1-2.4h0c.1,1.2.3,2.6.3,3.8v3.5h-2.4v-10.4Z"/>
            <path class="cls-15" d="M77.5,585.6h3c3.2,0,5.3,1.6,5.3,5.2s-2.1,5.2-5.1,5.2h-3.1v-10.4h-.1ZM80.4,594c1.7,0,2.9-.8,2.9-3.2s-1.2-3.2-2.9-3.2h-.4v6.4h.4Z"/>
          </g>
          <g>
            <path class="cls-15" d="M56.5,616.1h2.6l1.1,4.8c.3,1.1.5,2.2.8,3.3h0c.3-1.1.5-2.2.8-3.3l1.2-4.8h2.5l-3.2,10.4h-3l-3.1-10.4h.3Z"/>
            <path class="cls-15" d="M66.8,616.1h2.5v10.4h-2.5v-10.4Z"/>
            <path class="cls-15" d="M71.7,616.1h2.6l2.6,5c.4.7.7,1.5,1,2.4h0c-.1-1.1-.3-2.6-.3-3.8v-3.5h2.4v10.4h-2.6l-2.6-5c-.4-.7-.7-1.5-1-2.4h0c.1,1.2.3,2.6.3,3.8v3.5h-2.4v-10.4Z"/>
          </g>
          <g>
            <path class="cls-15" d="M61,649.6h3l3.2,10.4h-2.6l-.6-2.4h-3.1l-.6,2.4h-2.5s3.2-10.4,3.2-10.4ZM61.4,655.7h2.1l-.2-.9c-.3-1-.5-2.3-.8-3.3h0c-.3,1.1-.5,2.3-.8,3.3l-.2.9h-.1Z"/>
            <path class="cls-15" d="M67.7,654.8c0-3.6,1.5-5.4,3.7-5.4s3.7,1.8,3.7,5.4-1.5,5.4-3.7,5.4-3.7-1.9-3.7-5.4ZM72.7,654.8c0-2.8-.6-3.5-1.3-3.5s-1.3.6-1.3,3.5.6,3.5,1.3,3.5,1.3-.7,1.3-3.5Z"/>
          </g>
          <g>
            <path class="cls-15" d="M62.3,680.2h3l3.2,10.4h-2.6l-.6-2.4h-3.1l-.6,2.4h-2.5s3.2-10.4,3.2-10.4ZM62.6,686.3h2.1l-.2-.9c-.3-1-.5-2.3-.8-3.3h0c-.3,1.1-.5,2.3-.8,3.3l-.2.9h-.1Z"/>
            <path class="cls-15" d="M69.4,688.6h2.2v-5.9h-1.9v-1.5c1.1-.2,1.8-.5,2.6-.9h1.8v8.4h1.9v2h-6.6v-2.1Z"/>
          </g>
          <g>
            <path class="cls-15" d="M63.5,710.7h3l3.2,10.4h-2.6l-.6-2.4h-3.1l-.6,2.4h-2.5s3.2-10.4,3.2-10.4ZM63.9,716.8h2.1l-.2-.9c-.3-1-.5-2.3-.8-3.3h0c-.3,1.1-.5,2.3-.8,3.3l-.2.9h-.1Z"/>
            <path class="cls-15" d="M70.2,719.6c2.7-2.3,4.4-4.2,4.4-5.6s-.5-1.5-1.4-1.5-1.3.5-1.8,1l-1.3-1.3c1-1.1,1.9-1.7,3.4-1.7s3.4,1.3,3.4,3.3-1.7,3.8-3.3,5.4c.5,0,1.2-.1,1.7-.1h2.1v2.1h-7.2v-1.6Z"/>
          </g>
          <g>
            <path class="cls-15" d="M64.7,741.2h3l3.2,10.4h-2.6l-.6-2.4h-3.1l-.6,2.4h-2.5l3.2-10.4ZM65.1,747.3h2.1l-.2-.9c-.3-1-.5-2.3-.8-3.3h0c-.3,1.1-.5,2.3-.8,3.3l-.2.9h-.1Z"/>
            <path class="cls-15" d="M71.1,750.4l1.1-1.6c.6.6,1.4,1,2.2,1s1.6-.4,1.6-1.2-.5-1.4-2.7-1.4v-1.8c1.8,0,2.3-.5,2.3-1.4s-.4-1.1-1.2-1.1-1.2.3-1.9.9l-1.2-1.5c.9-.8,2-1.3,3.2-1.3,2.2,0,3.6,1,3.6,2.9s-.6,1.8-1.7,2.3h0c1.2.4,2,1.2,2,2.6,0,2-1.8,3-3.8,3s-2.8-.6-3.6-1.4h.1Z"/>
          </g>
          <g>
            <path class="cls-15" d="M66,771.7h3l3.2,10.4h-2.6l-.6-2.4h-3.1l-.6,2.4h-2.5l3.2-10.4ZM66.3,777.8h2.1l-.2-.9c-.3-1-.5-2.3-.8-3.3h0c-.3,1.1-.5,2.3-.8,3.3l-.2.9h-.1Z"/>
            <path class="cls-15" d="M76.7,779.5h-4.4v-1.7l3.6-6.1h3.1v5.9h1.2v1.9h-1.2v2.6h-2.3v-2.6h0ZM76.7,777.6v-3.8h0c-.3.6-.5,1.2-.8,1.8l-1.2,2.1h2v-.1Z"/>
            <path class="cls-15" d="M83.9,770.8h1.6l-3.1,13.9h-1.6l3.1-13.9Z"/>
            <path class="cls-15" d="M86.5,780.8l1.3-1.6c.7.6,1.7,1,2.6,1s1.4-.4,1.4-.9-.6-.8-1.5-1.2l-1.3-.6c-1.1-.4-2.1-1.3-2.1-2.8s1.6-3.2,3.8-3.2,2.5.5,3.4,1.3l-1.3,1.6c-.7-.5-1.4-.8-2.1-.8s-1.3.3-1.3.8.7.8,1.6,1.2l1.3.5c1.3.5,2.1,1.4,2.1,2.8s-1.5,3.3-4,3.3-2.8-.5-3.9-1.5v.1Z"/>
            <path class="cls-15" d="M96.1,771.7h3c3.2,0,5.3,1.6,5.3,5.2s-2.1,5.2-5.1,5.2h-3.1v-10.4h-.1ZM98.9,780.1c1.7,0,2.9-.8,2.9-3.2s-1.2-3.2-2.9-3.2h-.4v6.4h.4Z"/>
            <path class="cls-15" d="M108,771.7h3l3.2,10.4h-2.6l-.6-2.4h-3.1l-.6,2.4h-2.5l3.2-10.4ZM108.4,777.8h2.1l-.2-.9c-.3-1-.5-2.3-.8-3.3h0c-.3,1.1-.5,2.3-.8,3.3l-.2.9h-.1Z"/>
          </g>
          <g>
            <path class="cls-15" d="M67.2,799.1h3l3.2,10.4h-2.6l-.6-2.4h-3.1l-.6,2.4h-2.5l3.2-10.4ZM67.6,805.2h2.1l-.2-.9c-.3-1-.5-2.3-.8-3.3h0c-.3,1.1-.5,2.3-.8,3.3l-.2.9h-.1Z"/>
            <path class="cls-15" d="M73.6,808.3l1.1-1.6c.6.6,1.3,1,2.1,1s1.6-.6,1.6-1.6-.6-1.6-1.5-1.6-.9.1-1.5.5l-1.1-.7.3-5.2h5.8v2.1h-3.7v1.8c.2-.1.5-.2.9-.2,1.8,0,3.2,1,3.2,3.3s-1.8,3.7-3.8,3.7-2.8-.6-3.6-1.4l.2-.1Z"/>
            <path class="cls-15" d="M85.1,798.2h1.6l-3.1,13.9h-1.6l3.1-13.9Z"/>
            <path class="cls-15" d="M87.7,808.2l1.3-1.6c.7.6,1.7,1,2.6,1s1.4-.4,1.4-.9-.6-.8-1.5-1.2l-1.3-.6c-1.1-.4-2.1-1.3-2.1-2.8s1.6-3.2,3.8-3.2,2.5.5,3.4,1.3l-1.3,1.6c-.7-.5-1.4-.8-2.1-.8s-1.3.3-1.3.8.7.8,1.6,1.2l1.3.5c1.3.5,2.1,1.4,2.1,2.8s-1.5,3.3-4,3.3-2.8-.5-3.9-1.5v.1Z"/>
            <path class="cls-15" d="M96.8,804.4c0-3.5,2.3-5.5,5-5.5s2.4.6,3.2,1.4l-1.3,1.5c-.5-.5-1.1-.7-1.8-.7-1.4,0-2.5,1.2-2.5,3.2s1,3.3,2.4,3.3,1.5-.3,2-.9l1.3,1.5c-.9,1-2.1,1.5-3.4,1.5-2.7,0-4.9-1.8-4.9-5.3Z"/>
            <path class="cls-15" d="M106.6,799.1h2.5v8.3h4v2.1h-6.5v-10.4h0Z"/>
          </g>
          <g>
            <path class="cls-15" d="M119.6,492.3v3.7c0,2.3-.8,4.2-3.4,4.2s-3.6-1.9-3.6-4.1v-1.2h-3.5v-2.5h10.4l.1-.1ZM114.6,495.9c0,1.2.6,1.8,1.6,1.8s1.4-.7,1.4-1.9v-1h-3v1.1Z"/>
            <path class="cls-15" d="M114.5,501.4c3.4,0,5.4,1.9,5.4,4.8s-2,4.8-5.4,4.8-5.4-1.9-5.4-4.8,2-4.8,5.4-4.8ZM114.5,508.4c2,0,3.2-.8,3.2-2.2s-1.2-2.2-3.2-2.2-3.3.9-3.3,2.2,1.3,2.2,3.3,2.2Z"/>
            <path class="cls-15" d="M119.6,511.9v2.5l-4.8.7c-1.1.1-2.2.3-3.3.4h0c1.1.3,2.2.5,3.3.7l4.8,1.1v2.1l-4.8,1.1c-1.1.2-2.2.4-3.3.6h0c1.2.2,2.3.3,3.3.4l4.8.7v2.4l-10.4-1.8v-3.2l4.6-.9c.8-.2,1.6-.3,2.5-.4h0c-.8-.2-1.6-.3-2.5-.5l-4.6-.9v-3.1l10.4-1.9Z"/>
            <path class="cls-15" d="M119.6,525.9v6.6h-2.1v-4.1h-2v3.5h-2.1v-3.5h-2.2v4.3h-2.1v-6.8h10.5Z"/>
            <path class="cls-15" d="M119.6,534.7v3.8c0,2.2-.8,4.1-3.3,4.1s-2.5-.7-3-1.8l-4.1,2.3v-2.8l3.7-1.9v-1.2h-3.7v-2.5h10.4ZM114.8,538.4c0,1.2.5,1.8,1.5,1.8s1.3-.6,1.3-1.8v-1.1h-2.8v1.1Z"/>
          </g>
          <g>
            <path class="cls-15" d="M119.6,694.6v3l-10.4,3.2v-2.6l2.4-.6v-3.1l-2.4-.6v-2.5l10.4,3.2h0ZM113.5,695v2.1l.9-.2c1-.3,2.3-.5,3.3-.8h0c-1.1-.3-2.3-.6-3.3-.9l-.9-.2h0Z"/>
            <path class="cls-15" d="M119.6,701.9v2.6l-5,2.6c-.7.4-1.5.7-2.4,1h0c1.1,0,2.6-.3,3.8-.3h3.5v2.4h-10.4v-2.6l5-2.6c.7-.4,1.5-.7,2.4-1h0c-1.2,0-2.6.3-3.8.3h-3.5v-2.4h10.4Z"/>
            <path class="cls-15" d="M119.6,714.5v3l-10.4,3.2v-2.6l2.4-.6v-3.1l-2.4-.6v-2.5l10.4,3.2h0ZM113.5,714.9v2.1l.9-.2c1-.3,2.3-.5,3.3-.8h0c-1.1-.3-2.3-.6-3.3-.9l-.9-.2h0Z"/>
            <path class="cls-15" d="M119.6,721.8v2.5h-8.3v4h-2.1v-6.5h10.4Z"/>
            <path class="cls-15" d="M114.5,729.1c3.4,0,5.4,1.9,5.4,4.8s-2,4.8-5.4,4.8-5.4-1.9-5.4-4.8,2-4.8,5.4-4.8ZM114.5,736.1c2,0,3.2-.8,3.2-2.2s-1.2-2.2-3.2-2.2-3.3.9-3.3,2.2,1.3,2.2,3.3,2.2Z"/>
            <path class="cls-15" d="M114.3,740.1c3.5,0,5.5,2.3,5.5,5.1s-.6,2.6-1.4,3.3l-1.5-1.3c.5-.5.7-1.1.7-1.9,0-1.5-1.2-2.7-3.2-2.7s-3.3.9-3.3,2.9,0,.8.3,1h1.7v-1.7h2v3.9h-4.9c-.7-.7-1.3-2-1.3-3.5,0-2.9,1.8-5.2,5.3-5.2l.1.1Z"/>
            <path class="cls-15" d="M119.6,754v2.5h-10.4v-2.5h10.4Z"/>
            <path class="cls-15" d="M119.6,758.9v2.6l-5,2.6c-.7.4-1.5.7-2.4,1h0c1.1,0,2.6-.3,3.8-.3h3.5v2.4h-10.4v-2.6l5-2.6c.7-.4,1.5-.7,2.4-1h0c-1.2,0-2.6.3-3.8.3h-3.5v-2.4h10.4Z"/>
          </g>
          <path class="cls-35" d="M126.15,650h0c1.24,0,2.25,1.03,2.25,2.3v155.3c0,1.27-1.01,2.3-2.25,2.3h0c-1.24,0-2.25-1.03-2.25-2.3v-155.3c0-1.27,1.01-2.3,2.25-2.3Z"/>
          <path class="cls-35" d="M126.15,423.4h0c1.24,0,2.25,1.03,2.25,2.3v183.1c0,1.27-1.01,2.3-2.25,2.3h0c-1.24,0-2.25-1.03-2.25-2.3v-183.1c0-1.27,1.01-2.3,2.25-2.3Z"/>
          <g>
            <g>
              <polygon class="cls-34" points="292.4 800 288.8 800 288.8 800 285.1 800 276.7 808.4 276.7 841.5 285.1 849.9 288.8 849.9 288.8 849.9 292.4 849.9 300.9 841.5 300.9 808.4 292.4 800"/>
              <g>
                <rect class="cls-26" x="285.7" y="809.5" width="6.2" height="6.2"/>
                <rect class="cls-26" x="285.7" y="834.1" width="6.2" height="6.2"/>
              </g>
            </g>
            <g>
              <polygon class="cls-34" points="316.7 800 313 800 313 800 309.4 800 300.9 808.4 300.9 841.5 309.4 849.9 313 849.9 313 849.9 316.7 849.9 325.1 841.5 325.1 808.4 316.7 800"/>
              <g>
                <rect class="cls-26" x="309.9" y="809.5" width="6.2" height="6.2"/>
                <rect class="cls-26" x="309.9" y="834.1" width="6.2" height="6.2"/>
              </g>
            </g>
            <g>
              <polygon class="cls-34" points="340.9 800 337.2 800 337.2 800 333.6 800 325.1 808.4 325.1 841.5 333.6 849.9 337.2 849.9 337.2 849.9 340.9 849.9 349.3 841.5 349.3 808.4 340.9 800"/>
              <g>
                <rect class="cls-26" x="334.1" y="809.5" width="6.2" height="6.2"/>
                <rect class="cls-26" x="334.1" y="834.1" width="6.2" height="6.2"/>
              </g>
            </g>
          </g>
          <path class="cls-35" d="M270.7,788.5c-1.3,0-2.3,1-2.3,2.3v58.5c0,1.3,1,2.3,2.3,2.3h0c1.3,0,2.3-1,2.3-2.3v-53.9c0-1.3,1-2.3,2.3-2.3h75.6c1.3,0,2.3,1,2.3,2.3v53.9c0,1.3,1,2.3,2.3,2.3h0c1.3,0,2.3-1,2.3-2.3v-58.5c0-1.3-1-2.3-2.3-2.3h-84.8Z"/>
          <path class="cls-35" d="M467.55,413.8h0c1.24,0,2.25,1.03,2.25,2.3v390.1c0,1.27-1.01,2.3-2.25,2.3h0c-1.24,0-2.25-1.03-2.25-2.3v-390.1c0-1.27,1.01-2.3,2.25-2.3Z"/>
          <g>
            <path class="cls-15" d="M486.7,555.4v3c0,3.2-1.6,5.3-5.2,5.3s-5.2-2.1-5.2-5.1v-3.1h10.4v-.1ZM478.3,558.3c0,1.7.8,2.9,3.2,2.9s3.2-1.2,3.2-2.9v-.4h-6.4v.4h0Z"/>
            <path class="cls-15" d="M486.7,565.6v2.5h-10.4v-2.5h10.4Z"/>
            <path class="cls-15" d="M481.4,570c3.5,0,5.5,2.3,5.5,5.1s-.6,2.6-1.4,3.3l-1.5-1.3c.5-.5.7-1.1.7-1.9,0-1.5-1.2-2.7-3.2-2.7s-3.3.9-3.3,2.9,0,.8.3,1h1.7v-1.7h2v3.9h-4.9c-.7-.7-1.3-2-1.3-3.5,0-2.9,1.8-5.2,5.3-5.2l.1.1Z"/>
            <path class="cls-15" d="M486.7,580.8v2.5h-10.4v-2.5h10.4Z"/>
            <path class="cls-15" d="M484.6,587.7v-2.8h2.1v8.1h-2.1v-2.8h-8.3v-2.5h8.3Z"/>
            <path class="cls-15" d="M486.7,595.9v3l-10.4,3.2v-2.6l2.4-.6v-3.1l-2.4-.6v-2.5l10.4,3.2h0ZM480.6,596.3v2.1l.9-.2c1-.3,2.3-.5,3.3-.8h0c-1.1-.3-2.3-.6-3.3-.9l-.9-.2h0Z"/>
            <path class="cls-15" d="M486.7,603.2v2.5h-8.3v4h-2.1v-6.5h10.4Z"/>
            <path class="cls-15" d="M480.7,614.7c2.8,0,5.1.8,7.3,2.1l-.6,1.6c-2.1-1.2-4.4-1.7-6.7-1.7s-4.6.5-6.7,1.7l-.6-1.6c2.2-1.3,4.5-2.1,7.3-2.1h0Z"/>
            <path class="cls-15" d="M486.7,620.3v3.7c0,2.3-.8,4.2-3.4,4.2s-3.6-1.9-3.6-4.1v-1.2h-3.5v-2.5h10.4l.1-.1ZM481.7,623.9c0,1.2.6,1.8,1.6,1.8s1.4-.7,1.4-1.9v-1h-3v1.1h0Z"/>
            <path class="cls-15" d="M486.7,628.9v2.5l-4.8.7c-1.1.1-2.2.3-3.3.4h0c1.1.3,2.2.5,3.3.7l4.8,1.1v2.1l-4.8,1.1c-1.1.2-2.2.4-3.3.6h0c1.2.2,2.3.3,3.3.4l4.8.7v2.4l-10.4-1.8v-3.2l4.6-.9c.8-.2,1.6-.3,2.5-.4h0c-.8-.2-1.6-.3-2.5-.5l-4.6-.9v-3.1l10.4-1.9h0Z"/>
            <path class="cls-15" d="M486.7,643v2.7l-4.5,1.6c-.6.2-1.2.4-1.9.6h0c.7.3,1.3.4,1.9.6l4.5,1.6v2.7h-10.4v-2.3h3.6c1,0,2.8.2,3.8.3h0l-2.7-.9-3.8-1.4v-1.4l3.8-1.4,2.7-.8h0c-1,0-2.8.3-3.8.3h-3.6v-2.2h10.4Z"/>
            <path class="cls-15" d="M481.3,656.9c0-.4-.4-.8-.9-1.1l1-1.3c1.2.8,1.7,1.6,1.7,2.4,0,1.3-1.2,1.9-1.2,2.8s.4.8.9,1.1l-1,1.3c-1.2-.8-1.7-1.6-1.7-2.4,0-1.3,1.2-1.9,1.2-2.8Z"/>
            <path class="cls-15" d="M474,663.3c2.1,1.2,4.4,1.7,6.7,1.7s4.6-.5,6.7-1.7l.6,1.6c-2.2,1.3-4.5,2.1-7.3,2.1s-5.1-.8-7.3-2.1l.6-1.6h0Z"/>
          </g>
          <g>
            <rect class="cls-22" x="559.2" y="583.8" width="33.4" height="240.9"/>
            <rect x="566" y="586.5" width="19.6" height="19.6"/>
            <rect x="566" y="617" width="19.6" height="19.6"/>
            <rect x="566" y="647.5" width="19.6" height="19.6"/>
            <rect x="566" y="678" width="19.6" height="19.6"/>
            <rect x="566" y="708.6" width="19.6" height="19.6"/>
            <rect x="566" y="739.1" width="19.6" height="19.6"/>
            <rect x="566" y="769.6" width="19.6" height="19.6"/>
            <rect x="566" y="800.1" width="19.6" height="19.6"/>
          </g>
          <g>
            <rect class="cls-22" x="559.2" y="280.6" width="33.4" height="301.1"/>
            <rect x="566" y="345.3" width="19.6" height="19.6"/>
            <rect x="566" y="375.8" width="19.6" height="19.6"/>
            <rect x="566" y="406.3" width="19.6" height="19.6"/>
            <rect x="566" y="436.8" width="19.6" height="19.6"/>
            <rect x="566" y="467.3" width="19.6" height="19.6"/>
            <rect x="566" y="497.8" width="19.6" height="19.6"/>
            <rect x="566" y="528.3" width="19.6" height="19.6"/>
            <rect x="566" y="558.8" width="19.6" height="19.6"/>
            <rect x="566" y="314.7" width="19.6" height="19.6"/>
            <rect x="566" y="284.5" width="19.6" height="19.6"/>
          </g>
          <g>
            <g>
              <path class="cls-15" d="M508.9,289.5h3l3.2,10.4h-2.6l-.6-2.4h-3.1l-.6,2.4h-2.5l3.2-10.4ZM509.3,295.6h2.1l-.2-.9c-.3-1-.5-2.3-.8-3.3h0c-.3,1.1-.5,2.3-.8,3.3l-.2.9h-.1Z"/>
              <path class="cls-15" d="M515.4,298.7l1.1-1.6c.6.6,1.3,1,2.1,1s1.6-.6,1.6-1.6-.6-1.6-1.5-1.6-.9.1-1.5.5l-1.1-.7.3-5.2h5.8v2.1h-3.7v1.8c.2-.1.5-.2.9-.2,1.8,0,3.2,1,3.2,3.3s-1.8,3.7-3.8,3.7-2.8-.6-3.6-1.4l.2-.1Z"/>
              <path class="cls-15" d="M526.8,288.5h1.6l-3.1,13.9h-1.6l3.1-13.9Z"/>
              <path class="cls-15" d="M529.5,298.6l1.3-1.6c.7.6,1.7,1,2.6,1s1.4-.4,1.4-.9-.6-.8-1.5-1.2l-1.3-.6c-1.1-.4-2.1-1.3-2.1-2.8s1.6-3.2,3.8-3.2,2.5.5,3.4,1.3l-1.3,1.6c-.7-.5-1.4-.8-2.1-.8s-1.3.3-1.3.8.7.8,1.6,1.2l1.3.5c1.3.5,2.1,1.4,2.1,2.8s-1.5,3.3-4,3.3-2.8-.5-3.9-1.5v.1Z"/>
              <path class="cls-15" d="M538.6,294.8c0-3.5,2.3-5.5,5-5.5s2.4.6,3.2,1.4l-1.3,1.5c-.5-.5-1.1-.7-1.8-.7-1.4,0-2.5,1.2-2.5,3.2s1,3.3,2.4,3.3,1.5-.3,2-.9l1.3,1.5c-.9,1-2.1,1.5-3.4,1.5-2.7,0-4.9-1.8-4.9-5.3Z"/>
              <path class="cls-15" d="M548.4,289.5h2.5v8.3h4v2.1h-6.5v-10.4Z"/>
            </g>
            <g>
              <path class="cls-15" d="M506.8,319.7h3l3.2,10.4h-2.6l-.6-2.4h-3.1l-.6,2.4h-2.5l3.2-10.4ZM507.2,325.8h2.1l-.2-.9c-.3-1-.5-2.3-.8-3.3h0c-.3,1.1-.5,2.3-.8,3.3l-.2.9h-.1Z"/>
              <path class="cls-15" d="M517.6,327.6h-4.4v-1.7l3.6-6.1h3.1v5.9h1.2v1.9h-1.2v2.6h-2.3v-2.6h0ZM517.6,325.7v-3.8h0c-.3.6-.5,1.2-.8,1.8l-1.2,2.1h2v-.1Z"/>
              <path class="cls-15" d="M524.7,318.8h1.6l-3.1,13.9h-1.6l3.1-13.9Z"/>
              <path class="cls-15" d="M527.3,328.8l1.3-1.6c.7.6,1.7,1,2.6,1s1.4-.4,1.4-.9-.6-.8-1.5-1.2l-1.3-.6c-1.1-.4-2.1-1.3-2.1-2.8s1.6-3.2,3.8-3.2,2.5.5,3.4,1.3l-1.3,1.6c-.7-.5-1.4-.8-2.1-.8s-1.3.3-1.3.8.7.8,1.6,1.2l1.3.5c1.3.5,2.1,1.4,2.1,2.8s-1.5,3.3-4,3.3-2.8-.5-3.9-1.5v.1Z"/>
              <path class="cls-15" d="M536.9,319.7h3c3.2,0,5.3,1.6,5.3,5.2s-2.1,5.2-5.1,5.2h-3.1v-10.4h-.1ZM539.8,328.2c1.7,0,2.9-.8,2.9-3.2s-1.2-3.2-2.9-3.2h-.4v6.4h.4Z"/>
              <path class="cls-15" d="M548.9,319.7h3l3.2,10.4h-2.6l-.6-2.4h-3.1l-.6,2.4h-2.5l3.2-10.4h0ZM549.2,325.8h2.1l-.2-.9c-.3-1-.5-2.3-.8-3.3h0c-.3,1.1-.5,2.3-.8,3.3l-.2.9h-.1Z"/>
            </g>
            <g>
              <path class="cls-15" d="M521.1,350.2h3l3.2,10.4h-2.6l-.6-2.4h-3.1l-.6,2.4h-2.5l3.2-10.4h0ZM521.5,356.3h2.1l-.2-.9c-.3-1-.5-2.3-.8-3.3h0c-.3,1.1-.5,2.3-.8,3.3l-.2.9h-.1Z"/>
              <path class="cls-15" d="M528.4,350.2h3.8c2.2,0,4.1.8,4.1,3.3s-.7,2.5-1.8,3l2.3,4.1h-2.8l-1.9-3.7h-1.2v3.7h-2.5v-10.4h0ZM532.1,355c1.2,0,1.8-.5,1.8-1.5s-.6-1.3-1.8-1.3h-1.1v2.8h1.1Z"/>
              <path class="cls-15" d="M538.3,350.2h6.6v2.1h-4.1v2h3.5v2.1h-3.5v2.2h4.3v2.1h-6.8v-10.5Z"/>
              <path class="cls-15" d="M547.1,350.2h6.7v2.1h-4.2v2.3h3.6v2.1h-3.6v4h-2.5v-10.5Z"/>
            </g>
            <g>
              <path class="cls-15" d="M523.4,386c0-3.5,2.3-5.5,5.1-5.5s2.6.6,3.3,1.4l-1.3,1.5c-.5-.5-1.1-.7-1.9-.7-1.5,0-2.7,1.2-2.7,3.2s.9,3.3,2.9,3.3.8,0,1-.3v-1.7h-1.7v-2h3.9v4.9c-.7.7-2,1.3-3.5,1.3-2.9,0-5.2-1.8-5.2-5.3l.1-.1Z"/>
              <path class="cls-15" d="M534.1,380.8h2.6l2.6,5c.4.7.7,1.5,1,2.4h0c-.1-1.1-.3-2.6-.3-3.8v-3.5h2.4v10.4h-2.6l-2.6-5c-.4-.7-.7-1.5-1-2.4h0c.1,1.2.3,2.6.3,3.8v3.5h-2.4v-10.4Z"/>
              <path class="cls-15" d="M544.8,380.8h3c3.2,0,5.3,1.6,5.3,5.2s-2.1,5.2-5.1,5.2h-3.1v-10.4h-.1ZM547.7,389.2c1.7,0,2.9-.8,2.9-3.2s-1.2-3.2-2.9-3.2h-.4v6.4h.4Z"/>
            </g>
            <g>
              <path class="cls-15" d="M495.4,419.7h2.2v-5.9h-1.9v-1.5c1.1-.2,1.8-.5,2.6-.9h1.8v8.4h1.9v2h-6.6v-2.1Z"/>
              <path class="cls-15" d="M503.1,420.4l1.1-1.6c.6.6,1.4,1,2.2,1s1.6-.4,1.6-1.2-.5-1.4-2.7-1.4v-1.8c1.8,0,2.3-.5,2.3-1.4s-.4-1.1-1.2-1.1-1.2.3-1.9.9l-1.2-1.5c.9-.8,2-1.3,3.2-1.3,2.2,0,3.6,1,3.6,2.9s-.6,1.8-1.7,2.3h0c1.2.4,2,1.2,2,2.6,0,2-1.8,3-3.8,3s-2.8-.6-3.6-1.4h.1Z"/>
              <path class="cls-15" d="M514.6,410.3h1.6l-3.1,13.9h-1.6l3.1-13.9Z"/>
              <path class="cls-15" d="M517.3,420.4l1.3-1.6c.7.6,1.7,1,2.6,1s1.4-.4,1.4-.9-.6-.8-1.5-1.2l-1.3-.6c-1.1-.4-2.1-1.3-2.1-2.8s1.6-3.2,3.8-3.2,2.5.5,3.4,1.3l-1.3,1.6c-.7-.5-1.4-.8-2.1-.8s-1.3.3-1.3.8.7.8,1.6,1.2l1.3.5c1.3.5,2.1,1.4,2.1,2.8s-1.5,3.3-4,3.3-2.8-.5-3.9-1.5v.1Z"/>
              <path class="cls-15" d="M526.4,416.5c0-3.5,2.3-5.5,5-5.5s2.4.6,3.2,1.4l-1.3,1.5c-.5-.5-1.1-.7-1.8-.7-1.4,0-2.5,1.2-2.5,3.2s1,3.3,2.4,3.3,1.5-.3,2-.9l1.3,1.5c-.9,1-2.1,1.5-3.4,1.5-2.7,0-4.9-1.8-4.9-5.3Z"/>
              <path class="cls-15" d="M536.2,411.3h2.5v8.3h4v2.1h-6.5v-10.4Z"/>
              <path class="cls-15" d="M544.5,411.3h2.5v4.1h0l3-4.1h2.7l-3.1,4.2,3.7,6.2h-2.7l-2.5-4.3-1.1,1.5v2.7h-2.5v-10.4.1Z"/>
            </g>
            <g>
              <path class="cls-15" d="M494.3,450.2h2.2v-5.9h-1.9v-1.5c1.1-.2,1.8-.5,2.6-.9h1.8v8.4h1.9v2h-6.6v-2.1Z"/>
              <path class="cls-15" d="M502.3,450.7c2.7-2.3,4.4-4.2,4.4-5.6s-.5-1.5-1.4-1.5-1.3.5-1.8,1l-1.3-1.3c1-1.1,1.9-1.7,3.4-1.7s3.4,1.3,3.4,3.3-1.7,3.8-3.3,5.4c.5,0,1.2-.1,1.7-.1h2.1v2.1h-7.2v-1.6Z"/>
              <path class="cls-15" d="M513.5,440.8h1.6l-3.1,13.9h-1.6l3.1-13.9h0Z"/>
              <path class="cls-15" d="M516.8,441.8h2.7l1.6,4.5c.2.6.4,1.2.6,1.9h0c.2-.7.4-1.3.6-1.9l1.6-4.5h2.7v10.4h-2.3v-3.6c0-1,.2-2.8.3-3.8h0l-.9,2.7-1.4,3.8h-1.4l-1.4-3.8-.8-2.7h0c.1,1,.3,2.8.3,3.8v3.6h-2.2v-10.4h0Z"/>
              <path class="cls-15" d="M529,441.8h2.5v10.4h-2.5v-10.4Z"/>
              <path class="cls-15" d="M533.3,450.9l1.3-1.6c.7.6,1.7,1,2.6,1s1.4-.4,1.4-.9-.6-.8-1.5-1.2l-1.3-.6c-1.1-.4-2.1-1.3-2.1-2.8s1.6-3.2,3.8-3.2,2.5.5,3.4,1.3l-1.3,1.6c-.7-.5-1.4-.8-2.1-.8s-1.3.3-1.3.8.7.8,1.6,1.2l1.3.5c1.3.5,2.1,1.4,2.1,2.8s-1.5,3.3-4,3.3-2.8-.5-3.9-1.5v.1Z"/>
              <path class="cls-15" d="M542.4,446.9c0-3.4,1.9-5.4,4.8-5.4s4.8,2,4.8,5.4-1.9,5.4-4.8,5.4-4.8-2-4.8-5.4ZM549.4,446.9c0-2-.8-3.2-2.2-3.2s-2.2,1.2-2.2,3.2.9,3.3,2.2,3.3,2.2-1.3,2.2-3.3Z"/>
            </g>
            <g>
              <path class="cls-15" d="M486.9,477.7c-.4,0-.8.4-1.1.9l-1.3-1c.8-1.2,1.6-1.7,2.4-1.7,1.3,0,1.9,1.2,2.8,1.2s.8-.4,1.1-.9l1.3,1c-.8,1.2-1.6,1.7-2.4,1.7-1.3,0-1.9-1.2-2.8-1.2Z"/>
              <path class="cls-15" d="M493.7,480.7h2.2v-5.9h-1.9v-1.5c1.1-.2,1.8-.5,2.6-.9h1.8v8.4h1.9v2h-6.6v-2.1Z"/>
              <path class="cls-15" d="M502.2,480.7h2.2v-5.9h-1.9v-1.5c1.1-.2,1.8-.5,2.6-.9h1.8v8.4h1.9v2h-6.6v-2.1Z"/>
              <path class="cls-15" d="M512.9,471.3h1.6l-3.1,13.9h-1.6l3.1-13.9h0Z"/>
              <path class="cls-15" d="M516.2,472.3h2.7l1.6,4.5c.2.6.4,1.2.6,1.9h0c.2-.7.4-1.3.6-1.9l1.6-4.5h2.7v10.4h-2.3v-3.6c0-1,.2-2.8.3-3.8h0l-.9,2.7-1.4,3.8h-1.4l-1.4-3.8-.8-2.7h0c.1,1,.3,2.8.3,3.8v3.6h-2.2v-10.4h0Z"/>
              <path class="cls-15" d="M528,477.5c0-3.4,1.9-5.4,4.8-5.4s4.8,2,4.8,5.4-1.9,5.4-4.8,5.4-4.8-2-4.8-5.4ZM535,477.5c0-2-.8-3.2-2.2-3.2s-2.2,1.2-2.2,3.2.9,3.3,2.2,3.3,2.2-1.3,2.2-3.3Z"/>
              <path class="cls-15" d="M538.8,481.4l1.3-1.6c.7.6,1.7,1,2.6,1s1.4-.4,1.4-.9-.6-.8-1.5-1.2l-1.3-.6c-1.1-.4-2.1-1.3-2.1-2.8s1.6-3.2,3.8-3.2,2.5.5,3.4,1.3l-1.3,1.6c-.7-.5-1.4-.8-2.1-.8s-1.3.3-1.3.8.7.8,1.6,1.2l1.3.5c1.3.5,2.1,1.4,2.1,2.8s-1.5,3.3-4,3.3-2.8-.5-3.9-1.5v.1Z"/>
              <path class="cls-15" d="M548.4,472.3h2.5v10.4h-2.5v-10.4Z"/>
            </g>
            <g>
              <path class="cls-15" d="M528.8,508.2c-.4,0-.8.4-1.1.9l-1.3-1c.8-1.2,1.6-1.7,2.4-1.7,1.3,0,1.9,1.2,2.8,1.2s.8-.4,1.1-.9l1.3,1c-.8,1.2-1.6,1.7-2.4,1.7-1.3,0-1.9-1.2-2.8-1.2Z"/>
              <path class="cls-15" d="M535.6,511.2h2.2v-5.9h-1.9v-1.5c1.1-.2,1.8-.5,2.6-.9h1.8v8.4h1.9v2h-6.6v-2.1Z"/>
              <path class="cls-15" d="M543.6,508c0-3.6,1.5-5.4,3.7-5.4s3.7,1.8,3.7,5.4-1.5,5.4-3.7,5.4-3.7-1.9-3.7-5.4h0ZM548.6,508c0-2.8-.6-3.5-1.3-3.5s-1.3.6-1.3,3.5.6,3.5,1.3,3.5,1.3-.7,1.3-3.5Z"/>
            </g>
            <g>
              <path class="cls-15" d="M536.8,538.7c-.4,0-.8.4-1.1.9l-1.3-1c.8-1.2,1.6-1.7,2.4-1.7,1.3,0,1.9,1.2,2.8,1.2s.8-.4,1.1-.9l1.3,1c-.8,1.2-1.6,1.7-2.4,1.7-1.3,0-1.9-1.2-2.8-1.2Z"/>
              <path class="cls-15" d="M543.1,542.7l1.3-1.5c.3.4,1,.7,1.6.7,1.1,0,1.9-.8,2-3-.5.7-1.4,1-2,1-1.7,0-3-1-3-3.3s1.6-3.5,3.4-3.5,3.9,1.5,3.9,5.3-2,5.5-4.1,5.5-2.4-.6-3.1-1.2h0ZM546.5,538.2c.5,0,1.1-.3,1.5-.9-.2-1.8-.8-2.3-1.5-2.3s-1.2.5-1.2,1.7.5,1.5,1.2,1.5Z"/>
            </g>
            <path class="cls-15" d="M542.5,571.7c0-1.3.7-2.1,1.7-2.6h0c-.8-.7-1.4-1.5-1.4-2.6,0-1.7,1.4-2.8,3.3-2.8s3.1,1.1,3.1,2.8-.6,1.8-1.3,2.3h0c1,.6,1.8,1.5,1.8,2.9s-1.5,2.8-3.6,2.8-3.6-1.1-3.6-2.8h0ZM547.4,571.5c0-.9-.8-1.3-2.1-1.9-.4.4-.7,1-.7,1.7s.7,1.4,1.5,1.4,1.3-.4,1.3-1.2ZM547.3,566.6c0-.8-.4-1.2-1.2-1.2s-1.1.4-1.1,1.1.6,1.3,1.7,1.7c.4-.5.6-1,.6-1.5v-.1Z"/>
            <path class="cls-15" d="M546.5,593.6h-4.5v-2.1h7.1v1.5c-2.4,2.9-2.7,4.8-2.8,8.9h-2.5c.2-3.4.7-5.6,2.7-8.3h0Z"/>
            <g>
              <path class="cls-15" d="M535,627.4c-.4,0-.8.4-1.1.9l-1.3-1c.8-1.2,1.6-1.7,2.4-1.7,1.3,0,1.9,1.2,2.8,1.2s.8-.4,1.1-.9l1.3,1c-.8,1.2-1.6,1.7-2.4,1.7-1.3,0-1.9-1.2-2.8-1.2Z"/>
              <path class="cls-15" d="M541.3,627.3c0-3.8,2-5.5,4.1-5.5s2.4.6,3,1.2l-1.3,1.5c-.4-.4-1-.7-1.6-.7-1.1,0-1.9.8-2,3,.5-.6,1.4-1,2-1,1.7,0,3,1,3,3.3s-1.6,3.5-3.4,3.5-3.9-1.5-3.9-5.3h.1ZM543.6,628.5c.2,1.7.9,2.2,1.5,2.2s1.2-.5,1.2-1.7-.6-1.5-1.3-1.5-1.1.3-1.5,1h.1Z"/>
            </g>
            <g>
              <path class="cls-15" d="M534.5,657.9c-.4,0-.8.4-1.1.9l-1.3-1c.8-1.2,1.6-1.7,2.4-1.7,1.3,0,1.9,1.2,2.8,1.2s.8-.4,1.1-.9l1.3,1c-.8,1.2-1.6,1.7-2.4,1.7-1.3,0-1.9-1.2-2.8-1.2Z"/>
              <path class="cls-15" d="M540.5,661.7l1.1-1.6c.6.6,1.3,1,2.1,1s1.6-.6,1.6-1.6-.6-1.6-1.5-1.6-.9.1-1.5.5l-1.1-.7.3-5.2h5.8v2.1h-3.7v1.8c.2-.1.5-.2.9-.2,1.8,0,3.2,1,3.2,3.3s-1.8,3.7-3.8,3.7-2.8-.6-3.6-1.4l.2-.1Z"/>
            </g>
            <path class="cls-15" d="M544.2,690.9h-4.4v-1.7l3.6-6.1h3.1v5.9h1.2v1.9h-1.2v2.6h-2.3v-2.6h0ZM544.2,689v-3.8h0c-.3.6-.5,1.2-.8,1.8l-1.2,2.1h2v-.1Z"/>
            <g>
              <path class="cls-15" d="M533.3,719c-.4,0-.8.4-1.1.9l-1.3-1c.8-1.2,1.6-1.7,2.4-1.7,1.3,0,1.9,1.2,2.8,1.2s.8-.4,1.1-.9l1.3,1c-.8,1.2-1.6,1.7-2.4,1.7-1.3,0-1.9-1.2-2.8-1.2Z"/>
              <path class="cls-15" d="M539.3,722.7l1.1-1.6c.6.6,1.4,1,2.2,1s1.6-.4,1.6-1.2-.5-1.4-2.7-1.4v-1.8c1.8,0,2.3-.5,2.3-1.4s-.4-1.1-1.2-1.1-1.2.3-1.9.9l-1.2-1.5c.9-.8,2-1.3,3.2-1.3,2.2,0,3.6,1,3.6,2.9s-.6,1.8-1.7,2.3h0c1.2.4,2,1.2,2,2.6,0,2-1.8,3-3.8,3s-2.8-.6-3.6-1.4h.1Z"/>
            </g>
            <path class="cls-15" d="M539,752.9c2.7-2.3,4.4-4.2,4.4-5.6s-.5-1.5-1.4-1.5-1.3.5-1.8,1l-1.3-1.3c1-1.1,1.9-1.7,3.4-1.7s3.4,1.3,3.4,3.3-1.7,3.8-3.3,5.4c.5,0,1.2-.1,1.7-.1h2.1v2.1h-7.2v-1.6Z"/>
            <g>
              <path class="cls-15" d="M509.2,777.6h-2.8v-2.1h8.1v2.1h-2.8v8.3h-2.5v-8.3Z"/>
              <path class="cls-15" d="M517.7,780.5l-2.7-5.1h2.8l.8,1.9c.2.5.5,1,.8,1.7h0c.2-.7.5-1.2.7-1.7l.8-1.9h2.6l-2.7,5.2,2.9,5.2h-2.8l-1-2c-.3-.5-.5-1.1-.8-1.7h0c-.2.6-.5,1.2-.7,1.7l-.9,2h-2.7l2.9-5.4v.1Z"/>
              <path class="cls-15" d="M537.5,780.6l-5,5c-.4.4-1,.4-1.4,0s-.4-1,0-1.4l3.3-3.3h-9.6c-.6,0-1-.4-1-1s.4-1,1-1h9.6l-3.3-3.3c-.4-.4-.4-1,0-1.4s1-.4,1.4,0l5,5c.4.4.4,1,0,1.4h0Z"/>
              <path class="cls-15" d="M538.9,783.9h2.2v-5.9h-1.9v-1.5c1.1-.2,1.8-.5,2.6-.9h1.8v8.4h1.9v2h-6.6v-2.1Z"/>
            </g>
            <g>
              <path class="cls-15" d="M505.5,806h3.8c2.2,0,4.1.8,4.1,3.3s-.7,2.5-1.8,3l2.3,4.1h-2.8l-1.9-3.7h-1.2v3.7h-2.5v-10.4h0ZM509.1,810.8c1.2,0,1.8-.5,1.8-1.5s-.6-1.3-1.8-1.3h-1.1v2.8h1.1Z"/>
              <path class="cls-15" d="M517.1,811.1l-2.7-5.1h2.8l.8,1.9c.2.5.5,1,.8,1.7h0c.2-.7.5-1.2.7-1.7l.8-1.9h2.6l-2.7,5.2,2.9,5.2h-2.8l-1-2c-.3-.5-.5-1.1-.8-1.7h0c-.2.6-.5,1.2-.7,1.7l-.9,2h-2.7l2.9-5.4v.1Z"/>
              <path class="cls-15" d="M523.5,809.7l5-5c.4-.4,1-.4,1.4,0s.4,1,0,1.4l-3.3,3.3h9.6c.6,0,1,.4,1,1s-.4,1-1,1h-9.6l3.3,3.3c.4.4.4,1,0,1.4s-1,.4-1.4,0l-5-5c-.4-.4-.4-1,0-1.4h0Z"/>
              <path class="cls-15" d="M537.8,811.2c0-3.6,1.5-5.4,3.7-5.4s3.7,1.8,3.7,5.4-1.5,5.4-3.7,5.4-3.7-1.9-3.7-5.4ZM542.8,811.2c0-2.8-.6-3.5-1.3-3.5s-1.3.6-1.3,3.5.6,3.5,1.3,3.5,1.3-.7,1.3-3.5Z"/>
            </g>
          </g>
          <g>
            <rect class="cls-17" x="396.4" y="391.2" width="10.7" height="17.2"/>
            <rect class="cls-25" x="396.4" y="393.7" width="10.7" height="11.8"/>
          </g>
        </g>
        <g id="layer1-37">
          <rect id="rect815-4" x="615.7" y="86.1" width="139" height="186.8"/>
          <rect id="rect821-0" class="cls-15" x="648.6" y="242.5" width="72.3" height="24.9"/>
          <rect id="rect825-8" class="cls-31" x="648.8" y="243.9" width="23.7" height="21.9" rx="4.6" ry="4.6"/>
          <rect id="rect872-4" class="cls-31" x="697.1" y="243.9" width="23.7" height="21.9" rx="4.6" ry="4.6"/>
          <rect id="rect874-3" class="cls-31" x="672.9" y="243.9" width="23.7" height="21.9" rx="4" ry="4"/>
          <rect id="rect947-7" class="cls-6" x="659.2" y="255.8" width="2.6" height="45.6"/>
          <rect id="rect949-3" class="cls-6" x="683.5" y="255.8" width="2.6" height="45.6"/>
          <rect id="rect951-8" class="cls-6" x="707.6" y="255.8" width="2.6" height="45.6"/>
          <circle id="path1456-2" class="cls-5" cx="635.2" cy="154.4" r="12.6"/>
          <circle id="ellipse1458-6" class="cls-5" cx="733.9" cy="154.4" r="12.6"/>
          <circle id="path1460-9" class="cls-3" cx="635.2" cy="154.4" r="11.4"/>
          <circle id="ellipse1464-1" class="cls-3" cx="733.9" cy="154.4" r="11.4"/>
          <rect id="rect87-0" x="635.3" y="216.3" width="98.9" height="24.9"/>
          <circle id="path91-5" class="cls-5" cx="648.4" cy="232.8" r="9.3"/>
          <circle id="circle93-3" class="cls-5" cx="720.6" cy="232.8" r="9.3"/>
          <rect id="rect95-4" class="cls-5" x="649.7" y="194.9" width="18.5" height="27.8" rx="6.2" ry="6.2"/>
          <rect id="rect97-4" class="cls-5" x="702.1" y="194.9" width="18.5" height="27.8" rx="6.2" ry="6.2"/>
          <circle id="circle99-2" class="cls-5" cx="666.6" cy="184.4" r="9.3"/>
          <circle id="circle101-4" class="cls-5" cx="703.7" cy="184.4" r="9.3"/>
          <circle id="ellipse103-8" class="cls-3" cx="646" cy="183.8" r="11.4"/>
          <circle id="ellipse105-0" class="cls-3" cx="724.3" cy="183.8" r="11.4"/>
          <rect id="rect111-4" class="cls-5" x="649.7" y="144.3" width="18.5" height="27.8" rx="6.2" ry="6.2"/>
          <rect id="rect113-0" class="cls-5" x="702.1" y="144.3" width="18.5" height="27.8" rx="6.2" ry="6.2"/>
          <circle id="circle115-4" class="cls-3" cx="658.9" cy="208" r="8.5"/>
          <circle id="circle117-9" class="cls-3" cx="711.4" cy="208" r="8.5"/>
          <circle id="circle119-9" class="cls-3" cx="648.4" cy="232.8" r="7.7"/>
          <circle id="circle121-1" class="cls-3" cx="720.6" cy="232.8" r="7.7"/>
          <circle id="circle123-8" class="cls-3" cx="658.9" cy="208" r="8.5"/>
          <circle id="circle125-3" class="cls-3" cx="658.9" cy="157.4" r="8.5"/>
          <circle id="circle127-9" class="cls-3" cx="711.4" cy="157.4" r="8.5"/>
          <circle id="circle129-2" class="cls-5" cx="647.2" cy="122.7" r="9.3"/>
          <circle id="circle131-0" class="cls-3" cx="647.2" cy="122.7" r="7.7"/>
          <circle id="circle133-2" class="cls-5" cx="723.1" cy="122.7" r="9.3"/>
          <circle id="circle135-1" class="cls-3" cx="723.1" cy="122.7" r="7.7"/>
          <path id="path31-1" class="cls-15" d="M655.2,101.5c.9,0,1,0,1.1-.1.1,0,.2-.2.3-.3,0-.2.1-.3.1-2v-1.9h3.7v2.3c0,2.6,0,2.8-.3,3.5-.3.8-1,1.4-1.9,1.5-.6,0-1.1.1-1.7,0h-2.3v-3.1h.9l.1.1ZM672.7,106.7c15.7,0,19.5,0,18.9,0h-.1.1c-.1,0,0,0,.2,0h.3-.3c-.2,0-.3,0-.2,0v.4q0,.4.1.4h-37.2v-1.3h18.4l-.2.5ZM658.6,92.4h1.9v3h-3.7v-3h1.9-.1ZM662.3,98c.1-.8.4-1.6.7-2.3,0-.2.2-.3.3-.5,0,0,.1-.2.2-.3.2-.3.5-.6.7-.9h0c.2-.3.5-.5.8-.7.4-.3.9-.5,1.4-.7.7-.3,1.5-.4,2.2-.3.4,0,.9,0,1.3.2.3,0,.6.2.7.3,0,0,.2,0,.3.1.2,0,.3.1.5.2,1.1.7,2,1.7,2.6,2.9.7,1.5.8,3.2.3,4.7-.2.5-.4,1-.7,1.4-.3.5-.7.9-1.1,1.3-.7.8-1.6,1.3-2.6,1.5-.8.2-1.6.2-2.3.1-.9-.2-1.8-.5-2.5-1.1-.3-.2-.6-.4-.8-.7,0-.1-.2-.2-.3-.3-.8-.9-1.3-2-1.6-3.1-.1-.6-.1-1.2-.1-1.8h0ZM665.9,99.5c.2.7.6,1.3,1.1,1.8.6.5,1.4.7,2.2.5,1-.4,1.7-1.3,1.9-2.3.2-.7.1-1.4,0-2.1-.2-.8-.7-1.4-1.3-1.9-.2-.2-.4-.3-.7-.3-.6-.1-1.2,0-1.7.2-.5.3-.9.8-1.2,1.3-.4.9-.5,1.8-.3,2.8h0ZM676.3,92.4h3.7v1.7c0,1.6,0,1.7.1,1.9.3.7,1.1,1.1,1.9.8.4-.1.7-.4.8-.7l.2-.3v-3.4h3.7v1.9c0,.8,0,1.6-.1,2.3-.2.7-.5,1.3-1,1.9,0,0-.1.2-.2.3-.3.3-.6.6-.9.8-.3.3-.7.4-1.1.6,0,0-.3,0-.6.2-.4.1-.9.2-1.3.1-.5,0-.9,0-1.4-.1s-1-.3-1.5-.6c-.6-.4-1-.8-1.4-1.4-.5-.7-.8-1.5-.9-2.3v-3.6h0v-.1ZM681.4,101.5h3v3.1h-6.1v-3.1h3.1ZM686.6,90v-.2q0-.2.2-.2h22.6v1.4h-22.8v-.8h0v-.2ZM691.7,97.5h3.9v3.1h-7.7v-3.1h3.9-.1ZM698.6,92.4h1.9v3h-3.7v-3h1.9-.1ZM698.6,97h1.9v7.8h-3.7v-7.8h1.9-.1ZM706,92.4h3.9v3h-7.8v-3h3.9,0ZM702.8,97.2h3.6v1.8c0,2.5,0,2.4,1.8,2.4h1.2v3.2h-.4c-1.1.1-2.2.1-3.4,0-.8,0-1.5-.4-2.1-1-.5-.5-.7-1.2-.8-1.9v-4.4h0l.1-.1ZM712.1,90.9c0-.3.2-.6.5-.8.7-.7,1.9-.8,2.7-.2.3.2.5.4.7.7.1.3.2.5.1.8,0,.3,0,.6-.1.8-.3.6-1,1.1-1.7,1.1-.6,0-1.2-.2-1.7-.6-.5-.5-.6-1.2-.5-1.9h0v.1ZM712.4,92.2c.3.5.7.8,1.2.9.6.1,1.1,0,1.6-.4.2-.1.3-.3.4-.5.1-.2.2-.5.2-.8s0-.5-.2-.8c-.1-.2-.3-.4-.5-.5s-.4-.2-.6-.3c-.9-.3-1.8.2-2.2,1-.1.4-.1.9,0,1.4h.1ZM713.8,90.3h.8c.3.2.4.6.2,1,0,0-.2.1-.3.2h-.2l.2.2c.1.1.2.3.3.5,0,.1.1.2.2.3.1,0,0,.1-.2.1h-.2l-.3-.5c-.3-.5-.4-.6-.8-.6h-.2v1h-.4v-2.2h.9ZM713.9,91.3c.4,0,.5,0,.6-.1.3-.2.1-.6-.3-.6h-.7v.6h.4v.1Z"/>
          <g id="text90" class="cls-4">
            <g class="cls-4">
              <g class="cls-4">
                <path class="cls-15" d="M630.5,215.2h.1l.1.1v1.2c0,.1,0,.2-.1.3,0,0-.1.1-.2.2l-6.2,4.6h6.3v1.6h-12.1v-1.6h5.6l-5.5-4.4s-.1,0-.1-.1v-1.6h.3s.2.1.3.2l4.9,4.1,5.9-4.4c.2-.1.3-.2.3-.2h.4Z"/>
              </g>
              <g class="cls-4">
                <path class="cls-15" d="M625.9,209.1h4.7v1.6h-4.7l-7,3.5c-.1,0-.3.1-.3.1h-.2c-.1,0,0-.1,0-.3v-1.5l.2-.1,3.6-1.7c.3-.2.7-.3,1.1-.5.4-.2.7-.3,1.1-.5h0c-.4-.2-.7-.3-1.1-.5s-.7-.3-1.1-.5l-3.6-1.7h-.2l-.1-.1c-.1-.1,0-.1,0-.3v-1.2h.2s.2,0,.3.1l7,3.5.1.1Z"/>
              </g>
              <g class="cls-4">
                <path class="cls-15" d="M625.9,201h.5c.1,0,.1.1.1.2v4c0,.1,0,.2-.1.3h-1s-.1-.1-.1-.3v-4.1l.1-.1h.5Z"/>
                <path class="cls-15" d="M624.5,191.1c1,0,1.8,0,2.6.2s1.5.4,2,.7,1,.8,1.3,1.4c.3.6.5,1.3.5,2.1s-.1,1.4-.4,2c-.3.5-.7,1-1.2,1.3s-1.2.6-2,.7c-.8.1-1.7.2-2.7.2s-1.8,0-2.6-.2-1.5-.4-2-.7-1-.8-1.3-1.4-.5-1.2-.5-2.1.1-1.4.4-2c.3-.5.7-1,1.2-1.3s1.2-.6,2-.7c.8-.1,1.7-.2,2.7-.2ZM624.6,192.7h-1.7c-.5,0-.9.1-1.3.2-.4,0-.7.2-1,.3s-.5.3-.7.5-.3.4-.4.7c0,.2-.1.5-.1.8,0,.5.1,1,.4,1.3s.6.6,1.1.8c.4.2,1,.3,1.6.4s1.2.1,1.9.1,1.7,0,2.4-.1c.6,0,1.2-.2,1.6-.5.4-.2.7-.5.9-.8s.3-.7.3-1.2,0-.7-.2-.9c-.1-.3-.3-.5-.5-.7s-.5-.4-.8-.5-.6-.2-1-.3c-.4,0-.8-.1-1.2-.2s-.9,0-1.3,0v.1Z"/>
                <path class="cls-15" d="M624.5,181.1c1,0,1.8,0,2.6.2s1.5.4,2,.7,1,.8,1.3,1.4c.3.6.5,1.3.5,2.1s-.1,1.4-.4,2c-.3.5-.7,1-1.2,1.3s-1.2.6-2,.7c-.8.1-1.7.2-2.7.2s-1.8,0-2.6-.2-1.5-.4-2-.7-1-.8-1.3-1.4-.5-1.2-.5-2.1.1-1.4.4-2c.3-.5.7-1,1.2-1.3s1.2-.6,2-.7c.8-.1,1.7-.2,2.7-.2ZM624.6,182.8h-1.7c-.5,0-.9.1-1.3.2-.4,0-.7.2-1,.3s-.5.3-.7.5-.3.4-.4.7c0,.2-.1.5-.1.8,0,.5.1,1,.4,1.3s.6.6,1.1.8c.4.2,1,.3,1.6.4s1.2.1,1.9.1,1.7,0,2.4-.1c.6,0,1.2-.2,1.6-.5.4-.2.7-.5.9-.8s.3-.7.3-1.2,0-.7-.2-.9c-.1-.3-.3-.5-.5-.7s-.5-.4-.8-.5-.6-.2-1-.3c-.4,0-.8-.1-1.2-.2s-.9,0-1.3,0v.1Z"/>
                <path class="cls-15" d="M626.8,171.7c.7,0,1.3.1,1.8.3s1,.5,1.3.9c.4.4.6.9.8,1.5s.3,1.2.3,1.9v1.1c0,.3-.1.7-.2.9,0,.3-.2.5-.2.7s-.1.3-.2.3,0,0-.1.1h-1.2c-.1,0,0,0,0-.1s0-.2.1-.3c0-.1.2-.3.3-.5,0-.2.2-.5.3-.8,0-.3.1-.7.1-1.2s0-.8-.2-1.2c-.1-.4-.3-.7-.5-.9s-.5-.5-.8-.6-.7-.2-1.2-.2-.7,0-1,.2c-.3.1-.6.3-.8.6s-.4.6-.4,1-.1.9-.1,1.4v1.8q0,.3-.1.4c-.1.1-.2.1-.5.1h-5c-.2,0-.4,0-.5-.1-.1,0-.2-.2-.2-.4v-5.6l.1-.1h1c.1,0,.2.1.2.3v4.4h3.5v-1.5c0-.7,0-1.3.3-1.8.2-.5.4-.9.7-1.3s.7-.6,1.1-.8c.4-.2.9-.3,1.5-.3l-.2-.2Z"/>
              </g>
            </g>
          </g>
          <g id="text94" class="cls-4">
            <g class="cls-4">
              <path class="cls-15" d="M644.8,257.1c0,.6-.1,1.1-.3,1.5s-.5.8-.9,1.2c-.4.3-.8.6-1.3.7s-1.1.2-1.7.2-.8,0-1.2-.1c-.4,0-.7-.2-.9-.3-.3-.1-.5-.2-.7-.3-.2-.1-.3-.2-.4-.3,0,0-.1-.2-.2-.3v-1.1h.1s.2,0,.4.2.4.2.6.4c.3.1.6.2.9.4s.8.2,1.2.2.7,0,1-.1c.3,0,.6-.2.8-.4s.4-.4.5-.6c.1-.3.2-.5.2-.9s0-.7-.2-.9c-.2-.2-.4-.5-.6-.7-.3-.2-.6-.4-.9-.5-.3-.2-.7-.3-1-.5-.4-.2-.7-.3-1-.5s-.6-.4-.9-.7-.5-.6-.6-.9-.2-.8-.2-1.3,0-1,.3-1.4c.2-.4.4-.7.8-1s.7-.5,1.2-.6,1-.2,1.5-.2h.8c.3,0,.5.1.8.2.2,0,.5.2.7.3.2,0,.3.2.4.2,0,0,0,.1.1.1v1.2h-.1s-.2,0-.3-.1c-.2,0-.3-.2-.6-.3-.2-.1-.5-.2-.8-.3-.3,0-.6-.1-1-.1s-.6,0-.9.1c-.3,0-.5.2-.6.4-.2.2-.3.3-.4.5,0,.2-.1.4-.1.7s0,.6.2.9c.2.2.4.5.6.7.3.2.6.4.9.5.3.2.7.3,1,.5s.7.3,1,.5.6.4.9.7.5.6.6.9c.2.4.2.8.2,1.3l.1-.1Z"/>
            </g>
          </g>
          <g id="text98" class="cls-4">
            <g class="cls-4">
              <path class="cls-15" d="M737.2,255.7c0,.2,0,.4-.2.5-.1,0-.4.1-.6.1h-10.2c-.3,0-.5,0-.7-.1-.1,0-.2-.3-.2-.5s0-.4.2-.5.4-.1.7-.1h10.6c.1,0,.2,0,.3.1s.1.1.2.2v.3h-.1Z"/>
            </g>
          </g>
          <rect id="rect887" class="cls-4" x="652.6" y="32.1" width="64.4" height="47.7"/>
          <path id="path889" class="cls-4" d="M652.6,32.2c0-17.8,14.4-32.2,32.2-32.2s32.2,14.4,32.2,32.2"/>
          <rect id="rect891" class="cls-4" x="650.2" y="76.1" width="69.2" height="9.3"/>
          <rect id="rect84-6" class="cls-6" x="665.1" y="83.9" width="2.6" height="101.8"/>
          <rect id="rect86-2" class="cls-6" x="702.2" y="83.9" width="2.6" height="101.8"/>
          <path id="rect3802-6" class="cls-7" d="M684,1.7c-16.6.4-29.9,13.9-29.9,30.5h0v45.2h-2.3v6.8h65.9v-6.8h-2.3v-45.2h0c0-16.9-13.8-30.6-30.8-30.5h-.6Z"/>
          <rect id="rect149-9" class="cls-2" x="697.84" y="59.57" width="34.1" height="1.8" transform="translate(651.93 775.14) rotate(-89.8)"/>
          <rect id="rect151-1" class="cls-2" x="638.64" y="59.36" width="34.1" height="1.8" transform="translate(593.13 715.74) rotate(-89.8)"/>
        </g>
        <rect id="rect425" class="cls-18" x="703.7" y="281.3" width="11.3" height="75.27"/>
        <rect id="rect425-2" data-name="rect425" class="cls-18" x="703.75" y="470.98" width="11.3" height="124.44"/>
        <rect id="rect429" class="cls-24" x="655.2" y="282.2" width="11.3" height="442.5"/>
        <circle id="path270" class="cls-18" cx="709.4" cy="280.5" r="9.4"/>
        <circle id="circle272" class="cls-24" cx="661.2" cy="280.5" r="9.4"/>
        <rect class="cls-18" x="20.3" y="585.3" width="694.7" height="11.4"/>
        <rect class="cls-18" x="20.3" y="558.3" width="11.4" height="38.4"/>
        <circle id="circle281" class="cls-18" cx="26.39" cy="560.12" r="11.6" transform="translate(-8.79 .48) rotate(-.9)"/>
        <circle id="circle281-2" class="cls-24" cx="575.9" cy="718.7" r="11.6"/>
        <rect id="rect849" class="cls-24" x="571.6" y="713.4" width="94.9" height="11.4"/>
      </g>
      <g id="text1102" class="cls-4">
        <g class="cls-4">
          <path class="cls-15" d="M718.8,437.81h.5c.1,0,.3,0,.4.1,0,0,.2.1.2.2v11.9c0,.1,0,.2-.2.3,0,0-.2.1-.4.2h-1.1c-.2,0-.3,0-.4-.1-.1,0-.2-.1-.4-.2-.1,0-.2-.2-.4-.3l-4.2-4c-1-.9-1.8-1.7-2.6-2.2-.8-.6-1.5-1-2.1-1.3s-1.2-.5-1.7-.6c-.5,0-1-.1-1.4-.1s-.9,0-1.3.2c-.4.2-.8.4-1.1.7s-.5.6-.7,1.1c-.2.4-.3.9-.3,1.5s0,1.2.3,1.8c.2.5.4,1,.6,1.4.2.4.4.7.6,1,.2.3.3.5.3.6v.2s-.1.1-.2.1h-1.7s-.2,0-.2-.1c0,0-.2-.1-.3-.2s-.3-.3-.4-.6c-.2-.3-.4-.7-.6-1.2-.2-.5-.3-1-.5-1.5-.1-.6-.2-1.1-.2-1.8,0-1,.1-1.8.4-2.6.3-.7.7-1.3,1.1-1.8.5-.5,1-.8,1.7-1.1.6-.2,1.3-.4,2-.4s1.3,0,1.9.2c.6.1,1.3.4,2.1.7.7.4,1.6.9,2.5,1.6.9.7,2,1.6,3.1,2.8l3.3,3.2v-9l.2-.2s.2,0,.4-.1h.5l.3-.4Z"/>
          <path class="cls-15" d="M718.8,421.61h.5c.1,0,.3,0,.4.1,0,0,.2.1.2.2v11.9c0,.1,0,.2-.2.3,0,0-.2.1-.4.2h-1.1c-.2,0-.3,0-.4-.1-.1,0-.2-.1-.4-.2-.1,0-.2-.2-.4-.3l-4.2-4c-1-.9-1.8-1.7-2.6-2.2-.8-.6-1.5-1-2.1-1.3s-1.2-.5-1.7-.6c-.5,0-1-.1-1.4-.1s-.9,0-1.3.2c-.4.2-.8.4-1.1.7s-.5.6-.7,1.1c-.2.4-.3.9-.3,1.5s0,1.2.3,1.8c.2.5.4,1,.6,1.4.2.4.4.7.6,1,.2.3.3.5.3.6v.2s-.1.1-.2.1h-1.7s-.2,0-.2-.1c0,0-.2-.1-.3-.2s-.3-.3-.4-.6c-.2-.3-.4-.7-.6-1.2-.2-.5-.3-1-.5-1.5-.1-.6-.2-1.1-.2-1.8,0-1,.1-1.8.4-2.6.3-.7.7-1.3,1.1-1.8.5-.5,1-.8,1.7-1.1.6-.2,1.3-.4,2-.4s1.3,0,1.9.2c.6.1,1.3.4,2.1.7.7.4,1.6.9,2.5,1.6.9.7,2,1.6,3.1,2.8l3.3,3.2v-9l.2-.2s.2,0,.4-.1h.5l.3-.4Z"/>
          <path class="cls-15" d="M709.8,404.71c1.6,0,3,.1,4.2.4,1.3.2,2.4.7,3.3,1.2.9.6,1.6,1.3,2.1,2.2s.8,2,.8,3.4-.2,2.3-.7,3.2-1.1,1.6-2,2.1-2,.9-3.2,1.1c-1.3.2-2.8.3-4.4.3s-3-.1-4.2-.4c-1.3-.2-2.4-.7-3.3-1.2s-1.6-1.3-2.1-2.2-.8-2-.8-3.4.2-2.4.7-3.2c.5-.9,1.1-1.6,2-2.1s2-.9,3.2-1.1c1.3-.2,2.8-.3,4.4-.3ZM710,407.51c-1,0-1.9,0-2.7.1-.8,0-1.5.2-2.1.3s-1.1.3-1.6.5c-.4.2-.8.5-1.1.8s-.5.7-.6,1.1c-.1.4-.2.9-.2,1.4,0,.9.2,1.6.6,2.2.4.6,1,1,1.7,1.3s1.6.5,2.6.6,2,.2,3.2.2,2.8,0,3.9-.2c1.1-.2,1.9-.4,2.6-.7.7-.3,1.2-.8,1.5-1.3s.5-1.2.5-1.9,0-1.1-.3-1.5c-.2-.4-.5-.8-.8-1.1s-.8-.6-1.3-.8-1-.4-1.6-.5-1.2-.2-1.9-.3h-2.2l-.2-.2Z"/>
          <path class="cls-15" d="M718.8,383.91h.5c.1,0,.3,0,.4.1s.2.1.2.2v6.1c0,.3,0,.5-.2.6-.2.2-.4.2-.8.2h-1c-.1,0-.2,0-.3-.1-.1,0-.2-.1-.3-.2-.1-.1-.3-.3-.6-.7s-.6-.8-1.1-1.3-1-.9-1.6-1.2-1.3-.5-2.1-.7c-.8-.1-1.7-.2-2.6-.2s-1.3,0-1.9.1c-.6,0-1.2.2-1.8.4s-1.1.5-1.5.8c-.5.3-.9.7-1.2,1.1-.3.5-.6,1-.8,1.6s-.3,1.3-.3,2.1.1,1.5.3,2.1.5,1.2.8,1.6c.3.5.8.9,1.2,1.2.5.3,1,.6,1.5.8.6.2,1.1.4,1.7.5.6,0,1.2.1,1.8.1,1.1,0,2,0,2.8-.2s1.5-.4,2.1-.7,1.1-.7,1.6-1.2.8-.9,1.1-1.3c.3-.4.5-.6.6-.7.1-.1.2-.2.4-.2.1,0,.2,0,.3-.1h1c.4,0,.6,0,.8.2s.2.4.2.6v6.1l-.2.2s-.2,0-.4.1h-.5c-.4,0-.7,0-.9-.1-.2,0-.3-.2-.3-.4v-3.9c-.4.7-.8,1.3-1.4,1.8-.5.5-1.2,1-1.9,1.4s-1.5.7-2.3.9-1.8.3-2.8.3c-1.4,0-2.8-.2-4-.6-1.2-.4-2.3-1-3.1-1.8-.9-.8-1.6-1.7-2.1-2.9s-.7-2.5-.7-4,.2-2.7.7-3.8,1.1-2,2-2.8,1.9-1.3,3-1.7c1.2-.4,2.5-.6,3.9-.6s2,.1,2.9.3,1.7.5,2.4.9,1.4.8,1.9,1.4c.5.5,1,1.1,1.4,1.8v-3.9c0-.2,0-.3.3-.4.2,0,.5-.1.9-.1v.2Z"/>
        </g>
      </g>
    </g>
  </g>
</svg>