<?xml version="1.0" encoding="UTF-8"?>
<svg xmlns="http://www.w3.org/2000/svg" version="1.1" viewBox="0 0 834 801.3">
  <defs>
    <style>
      .cls-1 {
        fill: #2c2c2c;
      }

      .cls-2, .cls-3 {
        fill: #fff;
      }

      .cls-4 {
        fill: #493930;
      }

      .cls-5 {
        fill: #be8839;
      }

      .cls-6 {
        fill: #dbded7;
      }

      .cls-7 {
        fill: #914f00;
      }

      .cls-8 {
        fill: #9a2442;
      }

      .cls-9 {
        fill: #303030;
      }

      .cls-10 {
        fill: #f53200;
      }

      .cls-11 {
        fill: #47494a;
      }

      .cls-12 {
        fill: #655a50;
      }

      .cls-13 {
        fill: #00b589;
      }

      .cls-14 {
        fill: #474949;
      }

      .cls-15, .cls-16, .cls-17, .cls-3, .cls-18 {
        isolation: isolate;
      }

      .cls-19 {
        fill: #fcf7fd;
      }

      .cls-20 {
        fill: #ada390;
      }

      .cls-21 {
        fill: #686868;
      }

      .cls-22 {
        fill: #e3ad51;
      }

      .cls-23 {
        fill: #ddd;
      }

      .cls-24 {
        fill: #1a1a1a;
      }

      .cls-16 {
        fill: #333;
      }

      .cls-16, .cls-17, .cls-3, .cls-18 {
        opacity: 1;
      }

      .cls-25 {
        fill: #c4b3a8;
      }

      .cls-26 {
        fill: #a3928b;
      }

      .cls-27 {
        fill: #36323e;
      }

      .cls-17 {
        fill: gray;
      }

      .cls-28 {
        fill: #eaeaea;
      }

      .cls-29 {
        fill: #1a1919;
      }

      .cls-30 {
        fill: #e3b37d;
      }

      .cls-31 {
        fill: #010103;
      }

      .cls-18 {
        fill: #ccc;
      }

      .cls-32 {
        fill: #f5b93e;
      }

      .cls-33 {
        fill: #e0dcd3;
      }

      .cls-34 {
        fill: none;
        stroke: #493930;
        stroke-miterlimit: 10;
      }

      .cls-35 {
        fill: #bcb3ad;
      }
    </style>
  </defs>
  <!-- Generator: Adobe Illustrator 28.6.0, SVG Export Plug-In . SVG Version: 1.2.0 Build 709)  -->
  <g>
    <g id="svg8">
      <g>
        <path class="cls-29" d="M589.9,33.5H7.2c-4,0-7.3,3.2-7.3,7.3v719c0,4,3.2,7.3,7.3,7.3h17.6l34.2,34.2h365.2s34.1-34.2,34.1-34.2h131.6c4,0,7.3-3.2,7.3-7.3V40.8c0-4-3.2-7.3-7.3-7.3ZM28.2,207.9c-10,0-18.1-8.1-18.1-18.1s8.1-18.1,18.1-18.1,18.1,8.1,18.1,18.1-8.1,18.1-18.1,18.1ZM88.1,789.8c-10,0-18.1-8.1-18.1-18.1s8.1-18.1,18.1-18.1,18.1,8.1,18.1,18.1-8.1,18.1-18.1,18.1ZM401.2,789.8c-10,0-18.1-8.1-18.1-18.1s8.1-18.1,18.1-18.1,18.1,8.1,18.1,18.1-8.1,18.1-18.1,18.1ZM569.5,219.3c-10,0-18.1-8.1-18.1-18.1s8.1-18.1,18.1-18.1,18.1,8.1,18.1,18.1-8.1,18.1-18.1,18.1Z"/>
        <rect class="cls-9" x="55.8" y=".2" width="101.7" height="143.5"/>
        <path class="cls-9" d="M64.8,143.7h83.7v9.1c0,3.9-3.2,7.1-7.1,7.1h-69.4c-3.9,0-7.1-3.2-7.1-7.1v-9.1h0Z"/>
        <path class="cls-23" d="M571.4,72.2h-21.4v-4.6c0-.8-.6-1.4-1.4-1.4h-20.6c-.8,0-1.4.6-1.4,1.4v4.6h-21.4c-1,0-1.7.8-1.7,1.7v65.1c0,1,.8,1.7,1.7,1.7h66.3c1,0,1.7-.8,1.7-1.7v-65.1c0-1-.8-1.7-1.7-1.7Z"/>
        <circle class="cls-8" cx="538.2" cy="103.5" r="19.2"/>
        <g>
          <circle class="cls-23" cx="148.5" cy="252.2" r="35.2"/>
          <path class="cls-31" d="M129.5,227.6c-8.1,5.1-13.5,14.2-13.5,24.5s5.4,19.4,13.5,24.5v-49.1Z"/>
        </g>
        <g>
          <circle class="cls-23" cx="174" cy="351.1" r="35.2"/>
          <path class="cls-31" d="M166.7,321c-9.5,1.4-18.1,7.5-22.3,16.9s-2.9,19.9,2.4,27.9l19.9-44.9Z"/>
        </g>
        <rect class="cls-30" x="278.5" y="114" width="9.8" height="21.5"/>
        <rect class="cls-30" x="362.2" y="157.7" width="9.8" height="21.5"/>
        <rect class="cls-30" x="451.5" y="231.8" width="9.8" height="21.5" transform="translate(698.9 -213.8) rotate(90)"/>
        <rect class="cls-30" x="451.5" y="172.3" width="9.8" height="21.5" transform="translate(639.5 -273.3) rotate(90)"/>
        <rect class="cls-30" x="327" y="260.7" width="9.8" height="21.5"/>
        <rect class="cls-32" x="396.6" y="358.1" width="9.8" height="21.5"/>
        <rect class="cls-30" x="423.4" y="358.1" width="9.8" height="21.5"/>
        <rect class="cls-30" x="449.7" y="358.1" width="9.8" height="21.5"/>
        <rect class="cls-30" x="329.8" y="645.7" width="9.8" height="21.5" transform="translate(-321.7 991.2) rotate(-90)"/>
        <rect class="cls-32" x="387.2" y="663.9" width="9.8" height="21.5"/>
        <rect class="cls-14" x="302.5" y="157.7" width="31.5" height="14.6" rx="1.5" ry="1.5"/>
        <g>
          <path class="cls-33" d="M305.1,145.2h12.2v11.5h-12.2c-.7,0-1.2-.6-1.2-1.2v-9c0-.7.6-1.2,1.2-1.2Z" transform="translate(461.6 -159.6) rotate(90)"/>
          <path class="cls-33" d="M320.4,145.2h12.2v11.5h-12.2c-.7,0-1.2-.6-1.2-1.2v-9c0-.7.6-1.2,1.2-1.2Z" transform="translate(476.8 -174.9) rotate(90)"/>
        </g>
        <g>
          <rect class="cls-6" x="423" y="331" width="10.7" height="17.2"/>
          <rect class="cls-14" x="423" y="333.5" width="10.7" height="11.8"/>
        </g>
        <g>
          <rect class="cls-6" x="449.3" y="331" width="10.7" height="17.2"/>
          <rect class="cls-14" x="449.3" y="333.5" width="10.7" height="11.8"/>
        </g>
        <g>
          <rect class="cls-6" x="309" y="297.6" width="10.7" height="17.2" transform="translate(8.2 620.5) rotate(-90)"/>
          <rect class="cls-14" x="308.9" y="300.3" width="10.7" height="11.8" transform="translate(8 620.4) rotate(-90)"/>
        </g>
        <g>
          <rect class="cls-6" x="254" y="297.6" width="10.7" height="17.2" transform="translate(-46.9 565.5) rotate(-90)"/>
          <rect class="cls-14" x="253.8" y="300.3" width="10.7" height="11.8" transform="translate(-47 565.3) rotate(-90)"/>
        </g>
        <g>
          <rect class="cls-6" x="387.2" y="633.6" width="10.7" height="17.2"/>
          <rect class="cls-14" x="387.2" y="636.1" width="10.7" height="11.8"/>
        </g>
        <g>
          <rect class="cls-6" x="329.4" y="667.8" width="10.7" height="17.2" transform="translate(-341.7 1011.2) rotate(-90)"/>
          <rect class="cls-14" x="329.2" y="670.5" width="10.7" height="11.8" transform="translate(-341.8 1011) rotate(-90)"/>
        </g>
        <g>
          <rect class="cls-6" x="477.9" y="80.8" width="10.7" height="17.2"/>
          <rect class="cls-14" x="477.9" y="83.4" width="10.7" height="11.8"/>
        </g>
        <g>
          <rect class="cls-6" x="338.3" y="81.9" width="10.7" height="17.2"/>
          <rect class="cls-14" x="338.3" y="84.4" width="10.7" height="11.8"/>
        </g>
        <rect class="cls-26" x="441.8" y="195" width="12.2" height="32.8" rx="3.7" ry="3.7"/>
        <g>
          <rect class="cls-22" x="369.8" y="446.2" width="22.3" height="17.8" rx="2.9" ry="2.9" transform="translate(-210.2 402.7) rotate(-45)"/>
          <rect class="cls-25" x="370.7" y="446.9" width="20.5" height="16.4" rx="2.9" ry="2.9" transform="translate(-210.2 402.7) rotate(-45)"/>
        </g>
        <rect class="cls-35" x="374.7" y="422.1" width="12.2" height="11"/>
        <rect class="cls-35" x="394.3" y="422.1" width="12.2" height="11"/>
        <rect class="cls-35" x="374.7" y="475" width="12.2" height="11"/>
        <rect class="cls-35" x="394.3" y="475" width="12.2" height="11"/>
        <rect class="cls-10" x="326.1" y="698.3" width="20.8" height="11" rx="2.8" ry="2.8"/>
        <g>
          <path class="cls-2" d="M31.1,68.4v-4.5h2.1v7.1h-1.5c-2.9-2.4-4.8-2.7-8.9-2.8v-2.5c3.4.2,5.6.7,8.3,2.7Z"/>
          <path class="cls-2" d="M27.7,72.4v4h-1.7v-4h1.7Z"/>
          <path class="cls-2" d="M24.8,78.1v2.2h5.9v-1.9h1.5c.2,1.1.5,1.8.9,2.6v1.8h-8.4v1.9h-2v-6.6h2Z"/>
          <path class="cls-2" d="M24.3,86.2c2.3,2.7,4.2,4.4,5.6,4.4s1.5-.5,1.5-1.4-.5-1.3-1-1.8l1.3-1.3c1.1,1,1.7,1.9,1.7,3.4s-1.3,3.4-3.3,3.4-3.8-1.7-5.4-3.3c0,.5.1,1.2.1,1.7v2.1h-2.1v-7.2h1.5Z"/>
          <path class="cls-2" d="M33.2,94v2.6l-4.8,1.1c-1.1.3-2.2.5-3.3.8h0c1.1.4,2.2.6,3.3.9l4.8,1.2v2.5l-10.4-3.2v-3l10.4-3.1Z"/>
          <path class="cls-2" d="M33.2,107.5v2.5h-10.4v-2.5h10.4Z"/>
          <path class="cls-2" d="M33.2,112.4v2.6l-5,2.6c-.7.4-1.5.7-2.4,1h0c1.1,0,2.6-.3,3.8-.3h3.5v2.4h-10.4v-2.6l5-2.6c.7-.4,1.5-.7,2.4-1h0c-1.2,0-2.6.3-3.8.3h-3.5v-2.4h10.4Z"/>
          <path class="cls-2" d="M33.2,123v3.7c0,2.3-.8,4.2-3.4,4.2s-3.6-1.9-3.6-4.1v-1.2h-3.5v-2.5h10.4ZM28.2,126.6c0,1.2.6,1.8,1.6,1.8s1.4-.7,1.4-1.9v-1h-3v1.1Z"/>
          <path class="cls-2" d="M27.7,132.6h5.5v2.5h-5.8c-2,0-2.7.6-2.7,1.7s.7,1.8,2.7,1.8h5.8v2.4h-5.5c-3.5,0-5.1-1.4-5.1-4.2s1.6-4.2,5.1-4.2Z"/>
          <path class="cls-2" d="M31.1,145.3v-2.8h2.1v8.1h-2.1v-2.8h-8.3v-2.5h8.3Z"/>
        </g>
        <g>
          <path class="cls-2" d="M588.5,82v3.8c0,2.2-.8,4.1-3.3,4.1s-2.5-.7-3-1.8l-4.1,2.3v-2.8l3.7-1.9v-1.2h-3.7v-2.5h10.4ZM583.8,85.6c0,1.2.5,1.8,1.5,1.8s1.3-.6,1.3-1.8v-1.1h-2.8v1.1Z"/>
          <path class="cls-2" d="M588.5,91.9v6.6h-2.1v-4.1h-2v3.5h-2.1v-3.5h-2.2v4.3h-2.1v-6.8h10.4Z"/>
          <path class="cls-2" d="M579.5,100l1.6,1.3c-.6.7-1,1.7-1,2.6s.4,1.4.9,1.4.8-.6,1.2-1.5l.6-1.3c.4-1.1,1.3-2.1,2.8-2.1s3.2,1.6,3.2,3.8-.5,2.5-1.3,3.4l-1.6-1.3c.5-.7.8-1.4.8-2.1s-.3-1.3-.8-1.3-.8.7-1.2,1.6l-.5,1.3c-.5,1.3-1.4,2.1-2.8,2.1s-3.3-1.5-3.3-4,.5-2.8,1.5-3.9Z"/>
          <path class="cls-2" d="M588.5,109.6v6.6h-2.1v-4.1h-2v3.5h-2.1v-3.5h-2.2v4.3h-2.1v-6.8h10.4Z"/>
          <path class="cls-2" d="M586.5,120.4v-2.8h2.1v8.1h-2.1v-2.8h-8.3v-2.5h8.3Z"/>
        </g>
        <g>
          <path class="cls-2" d="M371.6,742.7v2.5h-10.4v-2.5h10.4Z"/>
          <path class="cls-2" d="M366.3,747.1c3.5,0,5.5,2.3,5.5,5s-.6,2.4-1.4,3.2l-1.5-1.3c.5-.5.7-1.1.7-1.8,0-1.4-1.2-2.5-3.2-2.5s-3.3,1-3.3,2.4.3,1.5.9,2l-1.5,1.3c-1-.9-1.5-2.1-1.5-3.4,0-2.7,1.8-4.9,5.3-4.9Z"/>
          <path class="cls-2" d="M362.5,755.8l1.6,1.3c-.6.7-1,1.7-1,2.6s.4,1.4.9,1.4.8-.6,1.2-1.5l.6-1.3c.4-1.1,1.3-2.1,2.8-2.1s3.2,1.6,3.2,3.8-.5,2.5-1.3,3.4l-1.6-1.3c.5-.7.8-1.4.8-2.1s-.3-1.3-.8-1.3-.8.7-1.2,1.6l-.5,1.3c-.5,1.3-1.4,2.1-2.8,2.1s-3.3-1.5-3.3-4,.5-2.8,1.5-3.9Z"/>
          <path class="cls-2" d="M371.6,765.4v3.7c0,2.3-.8,4.2-3.4,4.2s-3.6-1.9-3.6-4.1v-1.2h-3.5v-2.5h10.4ZM366.6,769c0,1.2.6,1.8,1.6,1.8s1.4-.7,1.4-1.9v-1h-3v1.1Z"/>
        </g>
        <path class="cls-2" d="M388.6,694.6c-1.2,1-2,2.5-2,4.2,0,3,2.5,5.5,5.5,5.5s5.5-2.5,5.5-5.5-.8-3.2-2-4.2c-.4-.4-.5-1-.1-1.4s1-.5,1.4-.1c1.6,1.4,2.7,3.5,2.7,5.8,0,4.1-3.4,7.5-7.5,7.5s-7.5-3.4-7.5-7.5,1.1-4.4,2.7-5.8c.4-.4,1.1-.3,1.4.1.4.4.3,1.1-.1,1.4h0ZM393.1,698.8c0,.6-.4,1-1,1s-1-.4-1-1v-7c0-.6.4-1,1-1s1,.4,1,1v7Z"/>
        <polyline class="cls-34" points="35.9 226 42.6 226 105.2 288.6 116 288.6"/>
        <polyline class="cls-34" points="35.7 234.1 42.6 234.1 102.7 294.3 102.7 426 159.5 482.7 212.2 482.7 224.5 470.3 263.4 470.3"/>
        <polyline class="cls-34" points="33.2 261.6 44.6 261.6 86.8 303.7 86.8 426.7 156.6 496.6 268.3 496.6"/>
        <polyline class="cls-34" points="22.8 347.1 61.8 386.1 61.8 450 33.1 478.7"/>
        <line class="cls-4" x1="76" y1="428.8" x2="151.8" y2="504.7"/>
        <polyline class="cls-34" points="131.3 496.2 88.5 538.9 24.4 538.9"/>
        <polyline class="cls-34" points="131.3 506.8 91.2 546.8 25.9 546.8"/>
        <polyline class="cls-34" points="267.3 505.3 234.7 505.3 159.1 580.9 78.6 580.9 55.9 603.6 31.1 603.6"/>
        <polyline class="cls-34" points="249.4 514.3 249.4 560.7 179.5 630.5 30.4 630.5"/>
        <polyline class="cls-34" points="264.7 534.3 264.7 570.6 176.2 659.1 31.1 659.1"/>
        <polyline class="cls-34" points="273.5 534.1 273.5 573.3 158.7 688.1 24.4 688.1"/>
        <polyline class="cls-34" points="282.4 535 282.4 580.6 147.3 715.7 30.4 715.7"/>
        <polyline class="cls-34" points="291 539 291 588.4 134.6 744.8 30.4 744.8"/>
        <line class="cls-4" x1="328.7" y1="623.9" x2="292" y2="587.3"/>
        <polyline class="cls-34" points="331 640.2 305.8 615 280 615"/>
        <polyline class="cls-34" points="344.3 648 344.3 589.3 299.7 544.6 299.7 525.2"/>
        <polyline class="cls-34" points="278.4 762.8 262 746.5 262 681.8 287.3 656.5"/>
        <polyline class="cls-34" points="308.1 533.6 308.1 544.4 361.6 598 401.4 598 506.7 703.3 506.7 732.4 518.5 744.2 563.6 744.2"/>
        <polyline class="cls-34" points="317 534.7 317 545.5 359.3 587.8 421.3 587.8 568.6 735.1"/>
        <polyline class="cls-34" points="327.1 534.2 367.8 575 433.4 575 573.9 715.4"/>
        <polyline class="cls-34" points="345.7 513.6 400.1 513.6 571.1 684.6"/>
        <polyline class="cls-34" points="347 505.3 407.2 505.3 573.4 671.5"/>
        <polyline class="cls-34" points="495.9 525.1 489 518.1 443 518.1"/>
        <polyline class="cls-34" points="347 461.7 358.1 461.7 367 470.5 377.6 470.5"/>
        <polyline class="cls-34" points="346.8 452.7 356.7 452.7 367.3 442.2 380.5 442.2"/>
        <polyline class="cls-34" points="325.3 429.2 341.7 412.8 411.7 412.8 566.7 567.8"/>
        <polyline class="cls-34" points="316.9 431 316.9 426.4 336.4 406.9 414.6 406.9 575 567.3"/>
        <polyline class="cls-34" points="308.2 430.9 308.2 422.5 328.4 402.3 418.4 402.3 574.8 558.7"/>
        <polyline class="cls-34" points="299.6 429.4 299.6 421.2 323.4 397.4 418.7 397.4 576.3 554.9"/>
        <polyline class="cls-34" points="291 428.9 291 416.9 315.9 392 420 392 580.4 552.4"/>
        <polyline class="cls-34" points="282.1 430.5 282.1 408.8 303.3 388.7 425 388.7 480 443.8 580.4 443.8"/>
        <polyline class="cls-34" points="273.5 428.7 273.5 405.4 297.2 383.5 426.7 383.5 458 414.8 579 414.8"/>
        <polyline class="cls-34" points="264.7 428.2 264.7 404.2 286.7 382.2 290.1 378.8"/>
        <polyline class="cls-34" points="221.1 446.3 221.1 417.2 289.4 348.9 315.3 348.9 322.3 355.9 372.1 355.9 399.5 328.5 426.7 328.5"/>
        <polyline class="cls-34" points="210.2 343.4 314.2 343.4 335 322.6 354.2 322.6"/>
        <polyline class="cls-34" points="286.5 272.8 286.5 283.6 277.5 292.6 260.2 292.6 247.5 279.9 247.5 270.7 247.5 245.6"/>
        <polyline class="cls-34" points="226.7 214.9 226.7 206.6 232.2 201.1 249.2 201.1"/>
        <polyline class="cls-34" points="191.1 192.6 237.3 192.6 257.9 172 257.9 150.2"/>
        <polyline class="cls-34" points="319.1 179.1 332.9 179.1 341.5 170.4 341.5 137.9 313.5 109.9 297.8 109.9 275.9 87.9"/>
        <polyline class="cls-34" points="285.8 84.4 299.6 98.2 311.2 98.2"/>
        <polyline class="cls-34" points="323.2 81.9 323.2 102.1 344.3 123.3 379.8 123.3 384.5 118.6 384.5 89.4"/>
        <path class="cls-34" d="M402.4,199.4v-48.4"/>
        <path class="cls-34" d="M418,151v22"/>
        <polyline class="cls-34" points="415.6 206.7 427.9 206.7 439.9 194.7"/>
        <polyline class="cls-34" points="415.4 220.4 428.3 220.4 440.4 232.5"/>
        <line class="cls-34" x1="415.9" y1="261.6" x2="439.5" y2="261.6"/>
        <line class="cls-34" x1="413.7" y1="275.6" x2="441.8" y2="275.6"/>
        <polyline class="cls-34" points="415.4 289 426.7 289 441.8 289"/>
        <line class="cls-34" x1="562.8" y1="151.9" x2="530.3" y2="184.4"/>
        <g>
          <rect class="cls-14" x="257.1" y="445.4" width="76" height="76" rx="5.9" ry="5.9"/>
          <circle class="cls-1" cx="322.2" cy="509.5" r="4.8"/>
          <g>
            <path class="cls-33" d="M240.2,450h16.9v5.9h-16.9c-.7,0-1.2-.6-1.2-1.2v-3.4c0-.7.6-1.2,1.2-1.2Z"/>
            <path class="cls-33" d="M240.2,458.7h16.9v5.9h-16.9c-.7,0-1.2-.6-1.2-1.2v-3.4c0-.7.6-1.2,1.2-1.2Z"/>
            <path class="cls-33" d="M240.2,467.4h16.9v5.9h-16.9c-.7,0-1.2-.6-1.2-1.2v-3.4c0-.7.6-1.2,1.2-1.2Z"/>
            <path class="cls-33" d="M240.2,476.1h16.9v5.9h-16.9c-.7,0-1.2-.6-1.2-1.2v-3.4c0-.7.6-1.2,1.2-1.2Z"/>
            <path class="cls-33" d="M240.2,484.8h16.9v5.9h-16.9c-.7,0-1.2-.6-1.2-1.2v-3.4c0-.7.6-1.2,1.2-1.2Z"/>
            <path class="cls-33" d="M240.2,493.5h16.9v5.9h-16.9c-.7,0-1.2-.6-1.2-1.2v-3.4c0-.7.6-1.2,1.2-1.2Z"/>
            <path class="cls-33" d="M240.2,502.2h16.9v5.9h-16.9c-.7,0-1.2-.6-1.2-1.2v-3.4c0-.7.6-1.2,1.2-1.2Z"/>
            <path class="cls-33" d="M240.2,510.9h16.9v5.9h-16.9c-.7,0-1.2-.6-1.2-1.2v-3.4c0-.7.6-1.2,1.2-1.2Z"/>
          </g>
          <g>
            <path class="cls-33" d="M317.7,433.4h16.9v5.9h-16.9c-.7,0-1.2-.6-1.2-1.2v-3.4c0-.7.6-1.2,1.2-1.2Z" transform="translate(761.9 110.8) rotate(90)"/>
            <path class="cls-33" d="M309,433.4h16.9v5.9h-16.9c-.7,0-1.2-.6-1.2-1.2v-3.4c0-.7.6-1.2,1.2-1.2Z" transform="translate(753.2 119.5) rotate(90)"/>
            <path class="cls-33" d="M300.3,433.4h16.9v5.9h-16.9c-.7,0-1.2-.6-1.2-1.2v-3.4c0-.7.6-1.2,1.2-1.2Z" transform="translate(744.5 128.2) rotate(90)"/>
            <path class="cls-33" d="M291.6,433.4h16.9v5.9h-16.9c-.7,0-1.2-.6-1.2-1.2v-3.4c0-.7.6-1.2,1.2-1.2Z" transform="translate(735.8 136.9) rotate(90)"/>
            <path class="cls-33" d="M282.9,433.4h16.9v5.9h-16.9c-.7,0-1.2-.6-1.2-1.2v-3.4c0-.7.6-1.2,1.2-1.2Z" transform="translate(727.1 145.6) rotate(90)"/>
            <path class="cls-33" d="M274.3,433.4h16.9v5.9h-16.9c-.7,0-1.2-.6-1.2-1.2v-3.4c0-.7.6-1.2,1.2-1.2Z" transform="translate(718.4 154.3) rotate(90)"/>
            <path class="cls-33" d="M265.6,433.4h16.9v5.9h-16.9c-.7,0-1.2-.6-1.2-1.2v-3.4c0-.7.6-1.2,1.2-1.2Z" transform="translate(709.7 163) rotate(90)"/>
            <path class="cls-33" d="M256.9,433.4h16.9v5.9h-16.9c-.7,0-1.2-.6-1.2-1.2v-3.4c0-.7.6-1.2,1.2-1.2Z" transform="translate(701 171.7) rotate(90)"/>
          </g>
          <g>
            <path class="cls-33" d="M256.9,527.5h16.9v5.9h-16.9c-.7,0-1.2-.6-1.2-1.2v-3.4c0-.7.6-1.2,1.2-1.2Z" transform="translate(-265.8 795.1) rotate(-90)"/>
            <path class="cls-33" d="M265.6,527.5h16.9v5.9h-16.9c-.7,0-1.2-.6-1.2-1.2v-3.4c0-.7.6-1.2,1.2-1.2Z" transform="translate(-257.1 803.8) rotate(-90)"/>
            <path class="cls-33" d="M274.3,527.5h16.9v5.9h-16.9c-.7,0-1.2-.6-1.2-1.2v-3.4c0-.7.6-1.2,1.2-1.2Z" transform="translate(-248.4 812.5) rotate(-90)"/>
            <path class="cls-33" d="M282.9,527.5h16.9v5.9h-16.9c-.7,0-1.2-.6-1.2-1.2v-3.4c0-.7.6-1.2,1.2-1.2Z" transform="translate(-239.7 821.2) rotate(-90)"/>
            <path class="cls-33" d="M291.6,527.5h16.9v5.9h-16.9c-.7,0-1.2-.6-1.2-1.2v-3.4c0-.7.6-1.2,1.2-1.2Z" transform="translate(-231 829.9) rotate(-90)"/>
            <path class="cls-33" d="M300.3,527.5h16.9v5.9h-16.9c-.7,0-1.2-.6-1.2-1.2v-3.4c0-.7.6-1.2,1.2-1.2Z" transform="translate(-222.3 838.6) rotate(-90)"/>
            <path class="cls-33" d="M309,527.5h16.9v5.9h-16.9c-.7,0-1.2-.6-1.2-1.2v-3.4c0-.7.6-1.2,1.2-1.2Z" transform="translate(-213.6 847.3) rotate(-90)"/>
            <path class="cls-33" d="M317.7,527.5h16.9v5.9h-16.9c-.7,0-1.2-.6-1.2-1.2v-3.4c0-.7.6-1.2,1.2-1.2Z" transform="translate(-204.9 856) rotate(-90)"/>
          </g>
          <g>
            <path class="cls-33" d="M334.3,510.6h16.9v5.9h-16.9c-.7,0-1.2-.6-1.2-1.2v-3.4c0-.7.6-1.2,1.2-1.2Z" transform="translate(684.3 1027.1) rotate(180)"/>
            <path class="cls-33" d="M334.3,501.9h16.9v5.9h-16.9c-.7,0-1.2-.6-1.2-1.2v-3.4c0-.7.6-1.2,1.2-1.2Z" transform="translate(684.3 1009.7) rotate(180)"/>
            <path class="cls-33" d="M334.3,493.2h16.9v5.9h-16.9c-.7,0-1.2-.6-1.2-1.2v-3.4c0-.7.6-1.2,1.2-1.2Z" transform="translate(684.3 992.3) rotate(180)"/>
            <path class="cls-33" d="M334.3,484.5h16.9v5.9h-16.9c-.7,0-1.2-.6-1.2-1.2v-3.4c0-.7.6-1.2,1.2-1.2Z" transform="translate(684.3 974.9) rotate(180)"/>
            <path class="cls-33" d="M334.3,475.8h16.9v5.9h-16.9c-.7,0-1.2-.6-1.2-1.2v-3.4c0-.7.6-1.2,1.2-1.2Z" transform="translate(684.3 957.5) rotate(180)"/>
            <path class="cls-33" d="M334.3,467.1h16.9v5.9h-16.9c-.7,0-1.2-.6-1.2-1.2v-3.4c0-.7.6-1.2,1.2-1.2Z" transform="translate(684.3 940.1) rotate(180)"/>
            <path class="cls-33" d="M334.3,458.4h16.9v5.9h-16.9c-.7,0-1.2-.6-1.2-1.2v-3.4c0-.7.6-1.2,1.2-1.2Z" transform="translate(684.3 922.8) rotate(180)"/>
            <path class="cls-33" d="M334.3,449.7h16.9v5.9h-16.9c-.7,0-1.2-.6-1.2-1.2v-3.4c0-.7.6-1.2,1.2-1.2Z" transform="translate(684.3 905.4) rotate(180)"/>
          </g>
        </g>
        <path class="cls-2" d="M246.9,608.6v7.2c0,1.3,0,2.5-.1,3.5,0,.8-.2,1.6-.4,2.4-.2.7-.5,1.3-.8,1.9-.5.7-1,1.4-1.6,2-.6.7-1.5,1.2-2.5,1.6-1.1.3-2.3.5-3.7.5h-6v-7.4h3.7c.5,0,.9,0,1.4-.2.3-.1.6-.3.9-.6.2-.3.4-.7.5-1.1.1-.6.2-1.2.2-1.7v-7.9h8.5ZM232.5,632h95v3.1h-95v-3.1ZM246.9,596.6v7.4h-8.5v-7.4h8.5ZM267.2,596.1c1.1,0,2.3,0,3.4.3,1,.2,2.1.5,3.1.9,1,.4,1.9.9,2.7,1.4.9.6,1.7,1.2,2.4,2,.7.7,1.4,1.6,1.9,2.4.6.9,1,1.8,1.4,2.7.4,1,.7,2,.8,3.1.2,1.1.3,2.3.3,3.4,0,1.1,0,2.2-.3,3.3-.2,1-.5,2-.8,3-.4.9-.8,1.9-1.4,2.7-.6.9-1.2,1.7-1.9,2.4-.7.7-1.5,1.4-2.4,2-.8.6-1.7,1-2.7,1.4-1,.4-2,.7-3,.9-1.1.2-2.2.3-3.3.3-1.1,0-2.3,0-3.4-.3-1-.2-2.1-.5-3.1-.8-1-.4-1.9-.8-2.7-1.4-1.7-1.1-3.2-2.6-4.4-4.4-.6-.9-1-1.8-1.4-2.7-.4-1-.7-2-.9-3-.4-2.2-.4-4.5,0-6.7.2-1,.5-2.1.9-3,.4-1,.8-1.9,1.4-2.7.6-.9,1.2-1.7,2-2.5.7-.8,1.5-1.4,2.4-2,.8-.6,1.7-1.1,2.7-1.4,1-.4,2-.7,3-.9,1.1-.2,2.2-.3,3.3-.3h0ZM267.2,603.2c-1,0-2,.2-3,.6-.9.4-1.6,1-2.2,1.8-.6.8-1.1,1.8-1.4,2.8-.3,1.1-.5,2.3-.5,3.7,0,1.3.1,2.5.5,3.8.3,1,.8,2,1.4,2.9.6.8,1.4,1.4,2.3,1.8.9.4,1.9.6,3,.6,1,0,2-.2,3-.6.9-.4,1.6-1,2.2-1.8.6-.9,1.1-1.8,1.4-2.8.3-1.1.5-2.4.5-3.8,0-1.2-.1-2.5-.5-3.7-.3-1-.8-2-1.4-2.8-.6-.8-1.4-1.4-2.3-1.8-.9-.4-1.9-.6-3-.6h0ZM286.7,596.6h8.5v7.7c0,1.6.3,2.8.9,3.6s1.6,1.2,2.8,1.2c1.3,0,2.3-.4,2.9-1.3s1-2.1,1-3.8v-7.4h8.4v5.4c0,1.3,0,2.5-.2,3.6,0,.9-.2,1.8-.5,2.7-.3.9-.6,1.7-1.1,2.5-.6,1-1.3,1.9-2,2.7-.4.5-.9.9-1.5,1.3-.6.4-1.2.7-1.9.9-.8.3-1.6.4-2.4.5-.9.1-1.9.2-2.8.2-.9,0-1.8,0-2.7-.2-.8-.1-1.5-.3-2.3-.5-.7-.2-1.3-.5-1.9-.9-.5-.3-1-.7-1.5-1.2-.8-.8-1.5-1.7-2.1-2.6-.5-.7-.9-1.5-1.2-2.4-.3-.9-.4-1.8-.5-2.7-.1-1.1-.2-2.3-.2-3.4v-6.1ZM305.9,620.2v7.4h-14.2v-7.4h14.2ZM309.9,589.9h56.8v2.9h-56.8v-2.9ZM313.6,610.2h18.3v7.3h-18.3v-7.3ZM343.6,596.6v7.4h-8.5v-7.4h8.5ZM343.6,608.6v19.1h-8.5v-19.1h8.5ZM368.1,596.6v7.4h-19.9v-7.4h19.9ZM349.6,608.6h8.4v7.7c0,.7,0,1.3.2,2,.1.5.3.9.5,1.2.2.2.6.4,1.1.6.6.1,1.2.2,1.8.2h5.5v7.4h-7.9c-.8,0-1.6,0-2.3-.2-.7,0-1.4-.3-2-.5-.6-.2-1.1-.5-1.7-.8-.5-.3-.9-.7-1.3-1.1-.4-.4-.7-.9-1-1.5-.3-.6-.5-1.2-.7-1.9-.2-.8-.3-1.5-.4-2.3,0-.9-.1-1.8-.1-2.7v-8.1Z"/>
        <rect class="cls-30" x="208.8" y="437.1" width="9.8" height="21.5" transform="translate(-234.2 661.6) rotate(-90)"/>
        <rect class="cls-30" x="349.3" y="320.9" width="9.8" height="21.5"/>
        <g>
          <rect class="cls-14" x="267.9" y="224.3" width="50.5" height="39.3" rx="2.5" ry="2.5"/>
          <circle class="cls-1" cx="272.1" cy="255.6" r="2.7"/>
          <g>
            <path class="cls-33" d="M267.7,267.2h12.2v6.1h-12.2c-.7,0-1.2-.6-1.2-1.2v-3.6c0-.7.6-1.2,1.2-1.2Z" transform="translate(3 543.5) rotate(-90)"/>
            <path class="cls-33" d="M281,267.2h12.2v6.1h-12.2c-.7,0-1.2-.6-1.2-1.2v-3.6c0-.7.6-1.2,1.2-1.2Z" transform="translate(16.2 556.8) rotate(-90)"/>
            <path class="cls-33" d="M294.3,267.2h12.2v6.1h-12.2c-.7,0-1.2-.6-1.2-1.2v-3.6c0-.7.6-1.2,1.2-1.2Z" transform="translate(29.5 570.1) rotate(-90)"/>
            <path class="cls-33" d="M307.6,267.2h12.2v6.1h-12.2c-.7,0-1.2-.6-1.2-1.2v-3.6c0-.7.6-1.2,1.2-1.2Z" transform="translate(42.8 583.4) rotate(-90)"/>
          </g>
          <g>
            <path class="cls-33" d="M307.6,214.5h12.2v6.1h-12.2c-.7,0-1.2-.6-1.2-1.2v-3.6c0-.7.6-1.2,1.2-1.2Z" transform="translate(530.7 -95.5) rotate(90)"/>
            <path class="cls-33" d="M294.3,214.5h12.2v6.1h-12.2c-.7,0-1.2-.6-1.2-1.2v-3.6c0-.7.6-1.2,1.2-1.2Z" transform="translate(517.4 -82.3) rotate(90)"/>
            <path class="cls-33" d="M281,214.5h12.2v6.1h-12.2c-.7,0-1.2-.6-1.2-1.2v-3.6c0-.7.6-1.2,1.2-1.2Z" transform="translate(504.1 -69) rotate(90)"/>
            <path class="cls-33" d="M267.7,214.5h12.2v6.1h-12.2c-.7,0-1.2-.6-1.2-1.2v-3.6c0-.7.6-1.2,1.2-1.2Z" transform="translate(490.8 -55.7) rotate(90)"/>
          </g>
        </g>
        <g>
          <g>
            <path class="cls-33" d="M222,241.8h12.2v9.6h-12.2c-.7,0-1.2-.6-1.2-1.2v-7.1c0-.7.6-1.2,1.2-1.2Z" transform="translate(-19.1 474.1) rotate(-90)"/>
            <path class="cls-33" d="M241.6,241.8h12.2v9.6h-12.2c-.7,0-1.2-.6-1.2-1.2v-7.1c0-.7.6-1.2,1.2-1.2Z" transform="translate(.5 493.7) rotate(-90)"/>
          </g>
          <g>
            <path class="cls-33" d="M221.3,213.8h12.2v6.1h-12.2c-.7,0-1.2-.6-1.2-1.2v-3.6c0-.7.6-1.2,1.2-1.2Z" transform="translate(443.6 -10) rotate(90)"/>
            <path class="cls-33" d="M231.8,213.8h12.2v6.1h-12.2c-.7,0-1.2-.6-1.2-1.2v-3.6c0-.7.6-1.2,1.2-1.2Z" transform="translate(454.1 -20.5) rotate(90)"/>
            <path class="cls-33" d="M242.3,213.8h12.2v6.1h-12.2c-.7,0-1.2-.6-1.2-1.2v-3.6c0-.7.6-1.2,1.2-1.2Z" transform="translate(464.6 -31) rotate(90)"/>
          </g>
          <rect class="cls-14" x="222.1" y="223.6" width="30.4" height="16.3" rx=".7" ry=".7"/>
        </g>
        <rect class="cls-30" x="233.5" y="260" width="9.8" height="21.5" transform="translate(-32.2 509.2) rotate(-90)"/>
        <g>
          <rect class="cls-14" x="365.4" y="201.2" width="34.4" height="107"/>
          <g>
            <path class="cls-33" d="M348.5,203.7h16.9v5.9h-16.9c-.7,0-1.2-.6-1.2-1.2v-3.4c0-.7.6-1.2,1.2-1.2Z"/>
            <path class="cls-33" d="M348.5,217.5h16.9v5.9h-16.9c-.7,0-1.2-.6-1.2-1.2v-3.4c0-.7.6-1.2,1.2-1.2Z"/>
            <path class="cls-33" d="M348.5,231.2h16.9v5.9h-16.9c-.7,0-1.2-.6-1.2-1.2v-3.4c0-.7.6-1.2,1.2-1.2Z"/>
            <path class="cls-33" d="M348.5,244.9h16.9v5.9h-16.9c-.7,0-1.2-.6-1.2-1.2v-3.4c0-.7.6-1.2,1.2-1.2Z"/>
            <path class="cls-33" d="M348.5,258.6h16.9v5.9h-16.9c-.7,0-1.2-.6-1.2-1.2v-3.4c0-.7.6-1.2,1.2-1.2Z"/>
            <path class="cls-33" d="M348.5,272.4h16.9v5.9h-16.9c-.7,0-1.2-.6-1.2-1.2v-3.4c0-.7.6-1.2,1.2-1.2Z"/>
            <path class="cls-33" d="M348.5,286.1h16.9v5.9h-16.9c-.7,0-1.2-.6-1.2-1.2v-3.4c0-.7.6-1.2,1.2-1.2Z"/>
            <path class="cls-33" d="M348.5,299.8h16.9v5.9h-16.9c-.7,0-1.2-.6-1.2-1.2v-3.4c0-.7.6-1.2,1.2-1.2Z"/>
          </g>
          <g>
            <path class="cls-33" d="M401,299.8h16.9v5.9h-16.9c-.7,0-1.2-.6-1.2-1.2v-3.4c0-.7.6-1.2,1.2-1.2Z" transform="translate(817.6 605.5) rotate(180)"/>
            <path class="cls-33" d="M401,286.1h16.9v5.9h-16.9c-.7,0-1.2-.6-1.2-1.2v-3.4c0-.7.6-1.2,1.2-1.2Z" transform="translate(817.6 578) rotate(180)"/>
            <path class="cls-33" d="M401,272.4h16.9v5.9h-16.9c-.7,0-1.2-.6-1.2-1.2v-3.4c0-.7.6-1.2,1.2-1.2Z" transform="translate(817.6 550.6) rotate(180)"/>
            <path class="cls-33" d="M401,258.6h16.9v5.9h-16.9c-.7,0-1.2-.6-1.2-1.2v-3.4c0-.7.6-1.2,1.2-1.2Z" transform="translate(817.6 523.1) rotate(180)"/>
            <path class="cls-33" d="M401,244.9h16.9v5.9h-16.9c-.7,0-1.2-.6-1.2-1.2v-3.4c0-.7.6-1.2,1.2-1.2Z" transform="translate(817.6 495.7) rotate(180)"/>
            <path class="cls-33" d="M401,231.2h16.9v5.9h-16.9c-.7,0-1.2-.6-1.2-1.2v-3.4c0-.7.6-1.2,1.2-1.2Z" transform="translate(817.6 468.2) rotate(180)"/>
            <path class="cls-33" d="M401,217.5h16.9v5.9h-16.9c-.7,0-1.2-.6-1.2-1.2v-3.4c0-.7.6-1.2,1.2-1.2Z" transform="translate(817.6 440.8) rotate(180)"/>
            <path class="cls-33" d="M401,203.7h16.9v5.9h-16.9c-.7,0-1.2-.6-1.2-1.2v-3.4c0-.7.6-1.2,1.2-1.2Z" transform="translate(817.6 413.3) rotate(180)"/>
          </g>
          <circle class="cls-1" cx="391.7" cy="298.3" r="4.9"/>
        </g>
        <rect class="cls-30" x="444.4" y="247.9" width="9.8" height="21.5" transform="translate(707.9 -190.7) rotate(90)"/>
        <g>
          <rect class="cls-6" x="444" y="267.2" width="10.7" height="17.2" transform="translate(725.1 -173.5) rotate(90)"/>
          <rect class="cls-14" x="444.1" y="269.9" width="10.7" height="11.8" transform="translate(725.3 -173.7) rotate(90)"/>
        </g>
        <g>
          <rect class="cls-6" x="444" y="284.8" width="10.7" height="17.2" transform="translate(742.7 -155.9) rotate(90)"/>
          <rect class="cls-14" x="444.1" y="287.5" width="10.7" height="11.8" transform="translate(742.9 -156.1) rotate(90)"/>
        </g>
        <g>
          <rect class="cls-6" x="397.1" y="136" width="10.7" height="17.2"/>
          <rect class="cls-14" x="397.1" y="138.5" width="10.7" height="11.8"/>
        </g>
        <g>
          <rect class="cls-6" x="412.7" y="135.8" width="10.7" height="17.2"/>
          <rect class="cls-14" x="412.7" y="138.4" width="10.7" height="11.8"/>
        </g>
        <path class="cls-33" d="M311.9,173.3h12.2v11.5h-12.2c-.7,0-1.2-.6-1.2-1.2v-9c0-.7.6-1.2,1.2-1.2Z" transform="translate(138.4 496.5) rotate(-90)"/>
        <g>
          <rect class="cls-5" x="274.6" y="54.1" width="51.5" height="35.1"/>
          <rect class="cls-12" x="287" y="54.1" width="26.7" height="35.1"/>
        </g>
        <g>
          <path class="cls-23" d="M369.9,19.9h0s87.6,0,87.6,0h0c2.7,1.4,4.4,4.2,4.4,7.3v70.1c0,1-.8,1.8-1.8,1.8h-92.8c-1,0-1.8-.8-1.8-1.8V27.2c0-3,1.7-5.8,4.4-7.3Z"/>
          <g>
            <path class="cls-21" d="M444.6,93.3h0c0-1.3-1.1-2.4-2.4-2.4h-9.9c-.8,0-1.5-.7-1.5-1.5v-2.1c0-.8.7-1.5,1.5-1.5h9.9c1.3,0,2.4-1.1,2.4-2.4h0c0-1.3-1.1-2.4-2.4-2.4h-14c-1.3,0-2.4,1.1-2.4,2.4v10c0,1.3,1.1,2.4,2.4,2.4h14c1.3,0,2.4-1.1,2.4-2.4Z"/>
            <path class="cls-21" d="M382.8,83.3h0c0,1.3,1.1,2.4,2.4,2.4h9.9c.8,0,1.5.7,1.5,1.5v2.1c0,.8-.7,1.5-1.5,1.5h-9.9c-1.3,0-2.4,1.1-2.4,2.4h0c0,1.3,1.1,2.4,2.4,2.4h14c1.3,0,2.4-1.1,2.4-2.4v-10c0-1.3-1.1-2.4-2.4-2.4h-14c-1.3,0-2.4,1.1-2.4,2.4Z"/>
          </g>
        </g>
        <g>
          <rect class="cls-14" x="198" y="100.9" width="69.5" height="37" rx="1.2" ry="1.2"/>
          <g>
            <path class="cls-33" d="M199.6,144h16.9v5.9h-16.9c-.7,0-1.2-.6-1.2-1.2v-3.4c0-.7.6-1.2,1.2-1.2Z" transform="translate(60.4 354.3) rotate(-90)"/>
            <path class="cls-33" d="M224.9,144h16.9v5.9h-16.9c-.7,0-1.2-.6-1.2-1.2v-3.4c0-.7.6-1.2,1.2-1.2Z" transform="translate(85.8 379.7) rotate(-90)"/>
            <path class="cls-33" d="M250.3,144h16.9v5.9h-16.9c-.7,0-1.2-.6-1.2-1.2v-3.4c0-.7.6-1.2,1.2-1.2Z" transform="translate(111.2 405.1) rotate(-90)"/>
          </g>
          <path class="cls-33" d="M219,70.4h25.6v34.3h-25.6c-.7,0-1.2-.6-1.2-1.2v-31.8c0-.7.6-1.2,1.2-1.2Z" transform="translate(318.7 -143.7) rotate(90)"/>
        </g>
        <rect class="cls-14" x="150.3" y="179.1" width="48.4" height="27.1"/>
        <g>
          <rect class="cls-23" x="15.9" y="222.2" width="20" height="20"/>
          <circle class="cls-20" cx="25.9" cy="232.2" r="7.4"/>
          <rect class="cls-23" x="15.9" y="250.9" width="20" height="20"/>
          <circle class="cls-20" cx="25.9" cy="260.9" r="7.4"/>
          <rect class="cls-23" x="15.9" y="279.5" width="20" height="20"/>
          <circle class="cls-20" cx="25.9" cy="289.6" r="7.4"/>
          <rect class="cls-23" x="15.9" y="308.2" width="20" height="20"/>
          <circle class="cls-20" cx="25.9" cy="318.2" r="7.4"/>
        </g>
        <g>
          <rect class="cls-11" x="9.2" y="334.6" width="33.4" height="240.9"/>
          <rect x="16.1" y="337.3" width="19.6" height="19.6"/>
          <rect x="16.1" y="367.8" width="19.6" height="19.6"/>
          <rect x="16.1" y="398.3" width="19.6" height="19.6"/>
          <rect x="16.1" y="428.8" width="19.6" height="19.6"/>
          <rect x="16.1" y="459.3" width="19.6" height="19.6"/>
          <rect x="16.1" y="489.9" width="19.6" height="19.6"/>
          <rect x="16.1" y="520.4" width="19.6" height="19.6"/>
          <rect x="16.1" y="550.9" width="19.6" height="19.6"/>
        </g>
        <g>
          <rect class="cls-11" x="9.2" y="581.2" width="33.4" height="178.8"/>
          <g>
            <rect x="16.1" y="584.5" width="19.6" height="19.6"/>
            <rect x="16.1" y="615" width="19.6" height="19.6"/>
            <rect x="16.1" y="645.5" width="19.6" height="19.6"/>
            <rect x="16.1" y="676" width="19.6" height="19.6"/>
            <rect x="16.1" y="706.5" width="19.6" height="19.6"/>
            <rect x="16.1" y="737" width="19.6" height="19.6"/>
          </g>
        </g>
        <g>
          <path class="cls-2" d="M50.2,372.8h2.5v10.4h-2.5v-10.4Z"/>
          <path class="cls-2" d="M54.6,378c0-3.4,1.9-5.4,4.8-5.4s4.8,2,4.8,5.4-1.9,5.4-4.8,5.4-4.8-2-4.8-5.4ZM61.6,378c0-2-.8-3.2-2.2-3.2s-2.2,1.2-2.2,3.2.9,3.3,2.2,3.3,2.2-1.3,2.2-3.3Z"/>
          <path class="cls-2" d="M66.1,372.8h3.8c2.2,0,4.1.8,4.1,3.3s-.7,2.5-1.8,3l2.3,4.1h-2.8l-1.9-3.7h-1.2v3.7h-2.5v-10.4ZM69.7,377.6c1.2,0,1.8-.5,1.8-1.5s-.6-1.3-1.8-1.3h-1.1v2.8h1.1Z"/>
          <path class="cls-2" d="M76,372.8h6.6v2.1h-4.1v2h3.5v2.1h-3.5v2.2h4.3v2.1h-6.8v-10.4Z"/>
          <path class="cls-2" d="M84.8,372.8h6.7v2.1h-4.2v2.3h3.6v2.1h-3.6v4h-2.5v-10.4Z"/>
        </g>
        <g>
          <path class="cls-2" d="M51.4,403.3h3.8c2.2,0,4.1.8,4.1,3.3s-.7,2.5-1.8,3l2.3,4.1h-2.8l-1.9-3.7h-1.2v3.7h-2.5v-10.4ZM55.1,408.1c1.2,0,1.8-.5,1.8-1.5s-.6-1.3-1.8-1.3h-1.1v2.8h1.1Z"/>
          <path class="cls-2" d="M61.3,403.3h6.6v2.1h-4.1v2h3.5v2.1h-3.5v2.2h4.3v2.1h-6.8v-10.4Z"/>
          <path class="cls-2" d="M69.5,412.4l1.3-1.6c.7.6,1.7,1,2.6,1s1.4-.4,1.4-.9-.6-.8-1.5-1.2l-1.3-.6c-1.1-.4-2.1-1.3-2.1-2.8s1.6-3.2,3.8-3.2,2.5.5,3.4,1.3l-1.3,1.6c-.7-.5-1.4-.8-2.1-.8s-1.3.3-1.3.8.7.8,1.6,1.2l1.3.5c1.3.5,2.1,1.4,2.1,2.8s-1.5,3.3-4,3.3-2.8-.5-3.9-1.5Z"/>
          <path class="cls-2" d="M79.1,403.3h6.6v2.1h-4.1v2h3.5v2.1h-3.5v2.2h4.3v2.1h-6.8v-10.4Z"/>
          <path class="cls-2" d="M89.9,405.4h-2.8v-2.1h8.1v2.1h-2.8v8.3h-2.5v-8.3Z"/>
        </g>
        <g>
          <path class="cls-2" d="M51.8,443l1.1-1.6c.6.6,1.4,1,2.2,1s1.6-.4,1.6-1.2-.5-1.4-2.7-1.4v-1.8c1.8,0,2.3-.5,2.3-1.4s-.4-1.1-1.2-1.1-1.2.3-1.9.9l-1.2-1.5c.9-.8,2-1.3,3.2-1.3,2.2,0,3.6,1,3.6,2.9s-.6,1.8-1.7,2.3h0c1.2.4,2,1.2,2,2.6,0,2-1.8,3-3.8,3s-2.8-.6-3.6-1.4Z"/>
          <path class="cls-2" d="M61,442.9c0-.9.6-1.5,1.5-1.5s1.5.7,1.5,1.5-.6,1.5-1.5,1.5-1.5-.7-1.5-1.5Z"/>
          <path class="cls-2" d="M65.2,443l1.1-1.6c.6.6,1.4,1,2.2,1s1.6-.4,1.6-1.2-.5-1.4-2.7-1.4v-1.8c1.8,0,2.3-.5,2.3-1.4s-.4-1.1-1.2-1.1-1.2.3-1.9.9l-1.2-1.5c.9-.8,2-1.3,3.2-1.3,2.2,0,3.6,1,3.6,2.9s-.6,1.8-1.7,2.3h0c1.2.4,2,1.2,2,2.6,0,2-1.8,3-3.8,3s-2.8-.6-3.6-1.4Z"/>
          <path class="cls-2" d="M73.3,433.8h2.6l1.1,4.8c.3,1.1.5,2.2.8,3.3h0c.3-1.1.5-2.2.8-3.3l1.2-4.8h2.5l-3.2,10.4h-3l-3.1-10.4Z"/>
        </g>
        <g>
          <path class="cls-2" d="M53.1,473.5l1.1-1.6c.6.6,1.3,1,2.1,1s1.6-.6,1.6-1.6-.6-1.6-1.5-1.6-.9.1-1.5.5l-1.1-.7.3-5.2h5.8v2.1h-3.7v1.8c.2-.1.5-.2.9-.2,1.8,0,3.2,1,3.2,3.3s-1.8,3.7-3.8,3.7-2.8-.6-3.6-1.4Z"/>
          <path class="cls-2" d="M61.1,464.3h2.6l1.1,4.8c.3,1.1.5,2.2.8,3.3h0c.3-1.1.5-2.2.8-3.3l1.2-4.8h2.5l-3.2,10.4h-3l-3.1-10.4Z"/>
        </g>
        <g>
          <path class="cls-2" d="M54.7,500.1c0-3.5,2.3-5.5,5.1-5.5s2.6.6,3.3,1.4l-1.3,1.5c-.5-.5-1.1-.7-1.9-.7-1.5,0-2.7,1.2-2.7,3.2s.9,3.3,2.9,3.3.8,0,1-.3v-1.7h-1.7v-2h3.9v4.9c-.7.7-2,1.3-3.5,1.3-2.9,0-5.2-1.8-5.2-5.3Z"/>
          <path class="cls-2" d="M65.4,494.9h2.6l2.6,5c.4.7.7,1.5,1,2.4h0c-.1-1.1-.3-2.6-.3-3.8v-3.5h2.4v10.4h-2.6l-2.6-5c-.4-.7-.7-1.5-1-2.4h0c.1,1.2.3,2.6.3,3.8v3.5h-2.4v-10.4Z"/>
          <path class="cls-2" d="M76.1,494.9h3c3.2,0,5.3,1.6,5.3,5.2s-2.1,5.2-5.1,5.2h-3.1v-10.4ZM78.9,503.3c1.7,0,2.9-.8,2.9-3.2s-1.2-3.2-2.9-3.2h-.4v6.4h.4Z"/>
        </g>
        <g>
          <path class="cls-2" d="M55.9,530.6c0-3.5,2.3-5.5,5.1-5.5s2.6.6,3.3,1.4l-1.3,1.5c-.5-.5-1.1-.7-1.9-.7-1.5,0-2.7,1.2-2.7,3.2s.9,3.3,2.9,3.3.8,0,1-.3v-1.7h-1.7v-2h3.9v4.9c-.7.7-2,1.3-3.5,1.3-2.9,0-5.2-1.8-5.2-5.3Z"/>
          <path class="cls-2" d="M66.6,525.4h2.6l2.6,5c.4.7.7,1.5,1,2.4h0c-.1-1.1-.3-2.6-.3-3.8v-3.5h2.4v10.4h-2.6l-2.6-5c-.4-.7-.7-1.5-1-2.4h0c.1,1.2.3,2.6.3,3.8v3.5h-2.4v-10.4Z"/>
          <path class="cls-2" d="M77.3,525.4h3c3.2,0,5.3,1.6,5.3,5.2s-2.1,5.2-5.1,5.2h-3.1v-10.4ZM80.1,533.8c1.7,0,2.9-.8,2.9-3.2s-1.2-3.2-2.9-3.2h-.4v6.4h.4Z"/>
        </g>
        <g>
          <path class="cls-2" d="M56.3,555.9h2.6l1.1,4.8c.3,1.1.5,2.2.8,3.3h0c.3-1.1.5-2.2.8-3.3l1.2-4.8h2.5l-3.2,10.4h-3l-3.1-10.4Z"/>
          <path class="cls-2" d="M66.6,555.9h2.5v10.4h-2.5v-10.4Z"/>
          <path class="cls-2" d="M71.5,555.9h2.6l2.6,5c.4.7.7,1.5,1,2.4h0c-.1-1.1-.3-2.6-.3-3.8v-3.5h2.4v10.4h-2.6l-2.6-5c-.4-.7-.7-1.5-1-2.4h0c.1,1.2.3,2.6.3,3.8v3.5h-2.4v-10.4Z"/>
        </g>
        <g>
          <path class="cls-2" d="M60.8,589.5h3l3.2,10.4h-2.6l-.6-2.4h-3.1l-.6,2.4h-2.5l3.2-10.4ZM61.1,595.5h2.1l-.2-.9c-.3-1-.5-2.3-.8-3.3h0c-.3,1.1-.5,2.3-.8,3.3l-.2.9Z"/>
          <path class="cls-2" d="M67.4,594.6c0-3.6,1.5-5.4,3.7-5.4s3.7,1.8,3.7,5.4-1.5,5.4-3.7,5.4-3.7-1.9-3.7-5.4ZM72.5,594.6c0-2.8-.6-3.5-1.3-3.5s-1.3.6-1.3,3.5.6,3.5,1.3,3.5,1.3-.7,1.3-3.5Z"/>
        </g>
        <g>
          <path class="cls-2" d="M62,620h3l3.2,10.4h-2.6l-.6-2.4h-3.1l-.6,2.4h-2.5l3.2-10.4ZM62.4,626.1h2.1l-.2-.9c-.3-1-.5-2.3-.8-3.3h0c-.3,1.1-.5,2.3-.8,3.3l-.2.9Z"/>
          <path class="cls-2" d="M69.2,628.4h2.2v-5.9h-1.9v-1.5c1.1-.2,1.8-.5,2.6-.9h1.8v8.4h1.9v2h-6.6v-2Z"/>
        </g>
        <g>
          <path class="cls-2" d="M63.2,650.5h3l3.2,10.4h-2.6l-.6-2.4h-3.1l-.6,2.4h-2.5l3.2-10.4ZM63.6,656.6h2.1l-.2-.9c-.3-1-.5-2.3-.8-3.3h0c-.3,1.1-.5,2.3-.8,3.3l-.2.9Z"/>
          <path class="cls-2" d="M69.9,659.4c2.7-2.3,4.4-4.2,4.4-5.6s-.5-1.5-1.4-1.5-1.3.5-1.8,1l-1.3-1.3c1-1.1,1.9-1.7,3.4-1.7s3.4,1.3,3.4,3.3-1.7,3.8-3.3,5.4c.5,0,1.2-.1,1.7-.1h2.1v2.1h-7.2v-1.5Z"/>
        </g>
        <g>
          <path class="cls-2" d="M64.5,681h3l3.2,10.4h-2.6l-.6-2.4h-3.1l-.6,2.4h-2.5l3.2-10.4ZM64.8,687.1h2.1l-.2-.9c-.3-1-.5-2.3-.8-3.3h0c-.3,1.1-.5,2.3-.8,3.3l-.2.9Z"/>
          <path class="cls-2" d="M70.9,690.2l1.1-1.6c.6.6,1.4,1,2.2,1s1.6-.4,1.6-1.2-.5-1.4-2.7-1.4v-1.8c1.8,0,2.3-.5,2.3-1.4s-.4-1.1-1.2-1.1-1.2.3-1.9.9l-1.2-1.5c.9-.8,2-1.3,3.2-1.3,2.2,0,3.6,1,3.6,2.9s-.6,1.8-1.7,2.3h0c1.2.4,2,1.2,2,2.6,0,2-1.8,3-3.8,3s-2.8-.6-3.6-1.4Z"/>
        </g>
        <g>
          <path class="cls-2" d="M65.7,711.5h3l3.2,10.4h-2.6l-.6-2.4h-3.1l-.6,2.4h-2.5l3.2-10.4ZM66.1,717.6h2.1l-.2-.9c-.3-1-.5-2.3-.8-3.3h0c-.3,1.1-.5,2.3-.8,3.3l-.2.9Z"/>
          <path class="cls-2" d="M76.5,719.3h-4.4v-1.7l3.6-6.1h3.1v5.9h1.2v1.9h-1.2v2.6h-2.3v-2.6ZM76.5,717.4v-1.5c0-.7,0-1.6,0-2.3h0c-.3.6-.5,1.2-.8,1.8l-1.2,2.1h2Z"/>
          <path class="cls-2" d="M83.6,710.6h1.6l-3.1,13.9h-1.6l3.1-13.9Z"/>
          <path class="cls-2" d="M86.2,720.6l1.3-1.6c.7.6,1.7,1,2.6,1s1.4-.4,1.4-.9-.6-.8-1.5-1.2l-1.3-.6c-1.1-.4-2.1-1.3-2.1-2.8s1.6-3.2,3.8-3.2,2.5.5,3.4,1.3l-1.3,1.6c-.7-.5-1.4-.8-2.1-.8s-1.3.3-1.3.8.7.8,1.6,1.2l1.3.5c1.3.5,2.1,1.4,2.1,2.8s-1.5,3.3-4,3.3-2.8-.5-3.9-1.5Z"/>
          <path class="cls-2" d="M95.8,711.5h3c3.2,0,5.3,1.6,5.3,5.2s-2.1,5.2-5.1,5.2h-3.1v-10.4ZM98.7,719.9c1.7,0,2.9-.8,2.9-3.2s-1.2-3.2-2.9-3.2h-.4v6.4h.4Z"/>
          <path class="cls-2" d="M107.8,711.5h3l3.2,10.4h-2.6l-.6-2.4h-3.1l-.6,2.4h-2.5l3.2-10.4ZM108.2,717.6h2.1l-.2-.9c-.3-1-.5-2.3-.8-3.3h0c-.3,1.1-.5,2.3-.8,3.3l-.2.9Z"/>
        </g>
        <g>
          <path class="cls-2" d="M66.9,738.9h3l3.2,10.4h-2.6l-.6-2.4h-3.1l-.6,2.4h-2.5l3.2-10.4ZM67.3,745h2.1l-.2-.9c-.3-1-.5-2.3-.8-3.3h0c-.3,1.1-.5,2.3-.8,3.3l-.2.9Z"/>
          <path class="cls-2" d="M73.4,748.1l1.1-1.6c.6.6,1.3,1,2.1,1s1.6-.6,1.6-1.6-.6-1.6-1.5-1.6-.9.1-1.5.5l-1.1-.7.3-5.2h5.8v2.1h-3.7v1.8c.2-.1.5-.2.9-.2,1.8,0,3.2,1,3.2,3.3s-1.8,3.7-3.8,3.7-2.8-.6-3.6-1.4Z"/>
          <path class="cls-2" d="M84.8,738h1.6l-3.1,13.9h-1.6l3.1-13.9Z"/>
          <path class="cls-2" d="M87.5,748l1.3-1.6c.7.6,1.7,1,2.6,1s1.4-.4,1.4-.9-.6-.8-1.5-1.2l-1.3-.6c-1.1-.4-2.1-1.3-2.1-2.8s1.6-3.2,3.8-3.2,2.5.5,3.4,1.3l-1.3,1.6c-.7-.5-1.4-.8-2.1-.8s-1.3.3-1.3.8.7.8,1.6,1.2l1.3.5c1.3.5,2.1,1.4,2.1,2.8s-1.5,3.3-4,3.3-2.8-.5-3.9-1.5Z"/>
          <path class="cls-2" d="M96.6,744.2c0-3.5,2.3-5.5,5-5.5s2.4.6,3.2,1.4l-1.3,1.5c-.5-.5-1.1-.7-1.8-.7-1.4,0-2.5,1.2-2.5,3.2s1,3.3,2.4,3.3,1.5-.3,2-.9l1.3,1.5c-.9,1-2.1,1.5-3.4,1.5-2.7,0-4.9-1.8-4.9-5.3Z"/>
          <path class="cls-2" d="M106.4,738.9h2.5v8.3h4v2.1h-6.5v-10.4Z"/>
        </g>
        <g>
          <path class="cls-2" d="M119.4,432.1v3.7c0,2.3-.8,4.2-3.4,4.2s-3.6-1.9-3.6-4.1v-1.2h-3.5v-2.5h10.4ZM114.4,435.7c0,1.2.6,1.8,1.6,1.8s1.4-.7,1.4-1.9v-1h-3v1.1Z"/>
          <path class="cls-2" d="M114.2,441.2c3.4,0,5.4,1.9,5.4,4.8s-2,4.8-5.4,4.8-5.4-1.9-5.4-4.8,2-4.8,5.4-4.8ZM114.2,448.2c2,0,3.2-.8,3.2-2.2s-1.2-2.2-3.2-2.2-3.3.9-3.3,2.2,1.3,2.2,3.3,2.2Z"/>
          <path class="cls-2" d="M119.4,451.7v2.5l-4.8.7c-1.1.1-2.2.3-3.3.4h0c1.1.3,2.2.5,3.3.7l4.8,1.1v2.1l-4.8,1.1c-1.1.2-2.2.4-3.3.6h0c1.2.2,2.3.3,3.3.4l4.8.7v2.4l-10.4-1.8v-3.2l4.6-.9c.8-.2,1.6-.3,2.5-.4h0c-.8-.2-1.6-.3-2.5-.5l-4.6-.9v-3.1l10.4-1.9Z"/>
          <path class="cls-2" d="M119.4,465.7v6.6h-2.1v-4.1h-2v3.5h-2.1v-3.5h-2.2v4.3h-2.1v-6.8h10.4Z"/>
          <path class="cls-2" d="M119.4,474.5v3.8c0,2.2-.8,4.1-3.3,4.1s-2.5-.7-3-1.8l-4.1,2.3v-2.8l3.7-1.9v-1.2h-3.7v-2.5h10.4ZM114.6,478.2c0,1.2.5,1.8,1.5,1.8s1.3-.6,1.3-1.8v-1.1h-2.8v1.1Z"/>
        </g>
        <g>
          <path class="cls-2" d="M119.4,634.4v3l-10.4,3.2v-2.6l2.4-.6v-3.1l-2.4-.6v-2.5l10.4,3.2ZM113.3,634.8v2.1l.9-.2c1-.3,2.3-.5,3.3-.8h0c-1.1-.3-2.3-.6-3.3-.9l-.9-.2Z"/>
          <path class="cls-2" d="M119.4,641.7v2.6l-5,2.6c-.7.4-1.5.7-2.4,1h0c1.1,0,2.6-.3,3.8-.3h3.5v2.4h-10.4v-2.6l5-2.6c.7-.4,1.5-.7,2.4-1h0c-1.2,0-2.6.3-3.8.3h-3.5v-2.4h10.4Z"/>
          <path class="cls-2" d="M119.4,654.3v3l-10.4,3.2v-2.6l2.4-.6v-3.1l-2.4-.6v-2.5l10.4,3.2ZM113.3,654.7v2.1l.9-.2c1-.3,2.3-.5,3.3-.8h0c-1.1-.3-2.3-.6-3.3-.9l-.9-.2Z"/>
          <path class="cls-2" d="M119.4,661.6v2.5h-8.3v4h-2.1v-6.5h10.4Z"/>
          <path class="cls-2" d="M114.2,668.9c3.4,0,5.4,1.9,5.4,4.8s-2,4.8-5.4,4.8-5.4-1.9-5.4-4.8,2-4.8,5.4-4.8ZM114.2,675.9c2,0,3.2-.8,3.2-2.2s-1.2-2.2-3.2-2.2-3.3.9-3.3,2.2,1.3,2.2,3.3,2.2Z"/>
          <path class="cls-2" d="M114.1,679.9c3.5,0,5.5,2.3,5.5,5.1s-.6,2.6-1.4,3.3l-1.5-1.3c.5-.5.7-1.1.7-1.9,0-1.5-1.2-2.7-3.2-2.7s-3.3.9-3.3,2.9,0,.8.3,1h1.7v-1.7h2v3.9h-4.9c-.7-.7-1.3-2-1.3-3.5,0-2.9,1.8-5.2,5.3-5.2Z"/>
          <path class="cls-2" d="M119.4,693.8v2.5h-10.4v-2.5h10.4Z"/>
          <path class="cls-2" d="M119.4,698.7v2.6l-5,2.6c-.7.4-1.5.7-2.4,1h0c1.1,0,2.6-.3,3.8-.3h3.5v2.4h-10.4v-2.6l5-2.6c.7-.4,1.5-.7,2.4-1h0c-1.2,0-2.6.3-3.8.3h-3.5v-2.4h10.4Z"/>
        </g>
        <rect class="cls-28" x="123.7" y="589.8" width="4.5" height="159.9" rx="2.3" ry="2.3"/>
        <rect class="cls-28" x="123.7" y="363.2" width="4.5" height="187.7" rx="2.3" ry="2.3"/>
        <g>
          <g>
            <polygon class="cls-27" points="292.2 739.8 288.6 739.8 288.5 739.8 284.9 739.8 276.4 748.2 276.4 781.3 284.9 789.7 288.5 789.7 288.6 789.7 292.2 789.7 300.6 781.3 300.6 748.2 292.2 739.8"/>
            <g>
              <rect class="cls-19" x="285.4" y="749.3" width="6.2" height="6.2"/>
              <rect class="cls-19" x="285.4" y="773.9" width="6.2" height="6.2"/>
            </g>
          </g>
          <g>
            <polygon class="cls-27" points="316.4 739.8 312.8 739.8 312.7 739.8 309.1 739.8 300.6 748.2 300.6 781.3 309.1 789.7 312.7 789.7 312.8 789.7 316.4 789.7 324.9 781.3 324.9 748.2 316.4 739.8"/>
            <g>
              <rect class="cls-19" x="309.6" y="749.3" width="6.2" height="6.2"/>
              <rect class="cls-19" x="309.6" y="773.9" width="6.2" height="6.2"/>
            </g>
          </g>
          <g>
            <polygon class="cls-27" points="340.6 739.8 337 739.8 336.9 739.8 333.3 739.8 324.9 748.2 324.9 781.3 333.3 789.7 336.9 789.7 337 789.7 340.6 789.7 349.1 781.3 349.1 748.2 340.6 739.8"/>
            <g>
              <rect class="cls-19" x="333.9" y="749.3" width="6.2" height="6.2"/>
              <rect class="cls-19" x="333.9" y="773.9" width="6.2" height="6.2"/>
            </g>
          </g>
        </g>
        <path class="cls-28" d="M270.4,728.3c-1.3,0-2.3,1-2.3,2.3v58.5c0,1.3,1,2.3,2.3,2.3h0c1.3,0,2.3-1,2.3-2.3v-53.9c0-1.3,1-2.3,2.3-2.3h75.6c1.3,0,2.3,1,2.3,2.3v53.9c0,1.3,1,2.3,2.3,2.3h0c1.3,0,2.3-1,2.3-2.3v-58.5c0-1.3-1-2.3-2.3-2.3h-84.7Z"/>
        <rect class="cls-28" x="465" y="353.6" width="4.5" height="394.7" rx="2.3" ry="2.3"/>
        <g>
          <path class="cls-2" d="M486.4,495.2v3c0,3.2-1.6,5.3-5.2,5.3s-5.2-2.1-5.2-5.1v-3.1h10.4ZM478,498.1c0,1.7.8,2.9,3.2,2.9s3.2-1.2,3.2-2.9v-.4h-6.4v.4Z"/>
          <path class="cls-2" d="M486.4,505.4v2.5h-10.4v-2.5h10.4Z"/>
          <path class="cls-2" d="M481.1,509.8c3.5,0,5.5,2.3,5.5,5.1s-.6,2.6-1.4,3.3l-1.5-1.3c.5-.5.7-1.1.7-1.9,0-1.5-1.2-2.7-3.2-2.7s-3.3.9-3.3,2.9,0,.8.3,1h1.7v-1.7h2v3.9h-4.9c-.7-.7-1.3-2-1.3-3.5,0-2.9,1.8-5.2,5.3-5.2Z"/>
          <path class="cls-2" d="M486.4,520.6v2.5h-10.4v-2.5h10.4Z"/>
          <path class="cls-2" d="M484.3,527.5v-2.8h2.1v8.1h-2.1v-2.8h-8.3v-2.5h8.3Z"/>
          <path class="cls-2" d="M486.4,535.7v3l-10.4,3.2v-2.6l2.4-.6v-3.1l-2.4-.6v-2.5l10.4,3.2ZM480.3,536.1v2.1l.9-.2c1-.3,2.3-.5,3.3-.8h0c-1.1-.3-2.3-.6-3.3-.9l-.9-.2Z"/>
          <path class="cls-2" d="M486.4,543v2.5h-8.3v4h-2.1v-6.5h10.4Z"/>
          <path class="cls-2" d="M480.4,554.5c2.8,0,5.1.8,7.3,2.1l-.6,1.6c-2.1-1.2-4.4-1.7-6.7-1.7s-4.6.5-6.7,1.7l-.6-1.6c2.2-1.3,4.5-2.1,7.3-2.1Z"/>
          <path class="cls-2" d="M486.4,560.1v3.7c0,2.3-.8,4.2-3.4,4.2s-3.6-1.9-3.6-4.1v-1.2h-3.5v-2.5h10.4ZM481.4,563.7c0,1.2.6,1.8,1.6,1.8s1.4-.7,1.4-1.9v-1h-3v1.1Z"/>
          <path class="cls-2" d="M486.4,568.7v2.5l-4.8.7c-1.1.1-2.2.3-3.3.4h0c1.1.3,2.2.5,3.3.7l4.8,1.1v2.1l-4.8,1.1c-1.1.2-2.2.4-3.3.6h0c1.2.2,2.3.3,3.3.4l4.8.7v2.4l-10.4-1.8v-3.2l4.6-.9c.8-.2,1.6-.3,2.5-.4h0c-.8-.2-1.6-.3-2.5-.5l-4.6-.9v-3.1l10.4-1.9Z"/>
          <path class="cls-2" d="M486.4,582.8v2.7l-4.5,1.6c-.6.2-1.2.4-1.9.6h0c.7.3,1.3.4,1.9.6l4.5,1.6v2.7h-10.4v-2.3h3.6c1,0,2.8.2,3.8.3h0c0,0-2.7-.9-2.7-.9l-3.8-1.4v-1.4l3.8-1.4,2.7-.8h0c-1,0-2.8.3-3.8.3h-3.6v-2.2h10.4Z"/>
          <path class="cls-2" d="M481,596.7c0-.4-.4-.8-.9-1.1l1-1.3c1.2.8,1.7,1.6,1.7,2.4,0,1.3-1.2,1.9-1.2,2.8s.4.8.9,1.1l-1,1.3c-1.2-.8-1.7-1.6-1.7-2.4,0-1.3,1.2-1.9,1.2-2.8Z"/>
          <path class="cls-2" d="M473.8,603.1c2.1,1.2,4.4,1.7,6.7,1.7s4.6-.5,6.7-1.7l.6,1.6c-2.2,1.3-4.5,2.1-7.3,2.1s-5.1-.8-7.3-2.1l.6-1.6Z"/>
        </g>
        <g>
          <rect class="cls-11" x="558.9" y="523.6" width="33.4" height="240.9"/>
          <rect x="565.8" y="526.3" width="19.6" height="19.6"/>
          <rect x="565.8" y="556.8" width="19.6" height="19.6"/>
          <rect x="565.8" y="587.3" width="19.6" height="19.6"/>
          <rect x="565.8" y="617.8" width="19.6" height="19.6"/>
          <rect x="565.8" y="648.4" width="19.6" height="19.6"/>
          <rect x="565.8" y="678.9" width="19.6" height="19.6"/>
          <rect x="565.8" y="709.4" width="19.6" height="19.6"/>
          <rect x="565.8" y="739.9" width="19.6" height="19.6"/>
        </g>
        <g>
          <rect class="cls-11" x="558.9" y="220.4" width="33.4" height="301.1"/>
          <rect x="565.8" y="285.1" width="19.6" height="19.6"/>
          <rect x="565.8" y="315.6" width="19.6" height="19.6"/>
          <rect x="565.8" y="346.1" width="19.6" height="19.6"/>
          <rect x="565.8" y="376.6" width="19.6" height="19.6"/>
          <rect x="565.8" y="407.1" width="19.6" height="19.6"/>
          <rect x="565.8" y="437.6" width="19.6" height="19.6"/>
          <rect x="565.8" y="468.1" width="19.6" height="19.6"/>
          <rect x="565.8" y="498.6" width="19.6" height="19.6"/>
          <rect x="565.8" y="254.5" width="19.6" height="19.6"/>
          <rect x="565.8" y="224.3" width="19.6" height="19.6"/>
        </g>
        <g>
          <g>
            <path class="cls-2" d="M508.7,229.3h3l3.2,10.4h-2.6l-.6-2.4h-3.1l-.6,2.4h-2.5l3.2-10.4ZM509.1,235.4h2.1l-.2-.9c-.3-1-.5-2.3-.8-3.3h0c-.3,1.1-.5,2.3-.8,3.3l-.2.9Z"/>
            <path class="cls-2" d="M515.1,238.5l1.1-1.6c.6.6,1.3,1,2.1,1s1.6-.6,1.6-1.6-.6-1.6-1.5-1.6-.9.1-1.5.5l-1.1-.7.3-5.2h5.8v2.1h-3.7v1.8c.2-.1.5-.2.9-.2,1.8,0,3.2,1,3.2,3.3s-1.8,3.7-3.8,3.7-2.8-.6-3.6-1.4Z"/>
            <path class="cls-2" d="M526.6,228.3h1.6l-3.1,13.9h-1.6l3.1-13.9Z"/>
            <path class="cls-2" d="M529.2,238.4l1.3-1.6c.7.6,1.7,1,2.6,1s1.4-.4,1.4-.9-.6-.8-1.5-1.2l-1.3-.6c-1.1-.4-2.1-1.3-2.1-2.8s1.6-3.2,3.8-3.2,2.5.5,3.4,1.3l-1.3,1.6c-.7-.5-1.4-.8-2.1-.8s-1.3.3-1.3.8.7.8,1.6,1.2l1.3.5c1.3.5,2.1,1.4,2.1,2.8s-1.5,3.3-4,3.3-2.8-.5-3.9-1.5Z"/>
            <path class="cls-2" d="M538.3,234.6c0-3.5,2.3-5.5,5-5.5s2.4.6,3.2,1.4l-1.3,1.5c-.5-.5-1.1-.7-1.8-.7-1.4,0-2.5,1.2-2.5,3.2s1,3.3,2.4,3.3,1.5-.3,2-.9l1.3,1.5c-.9,1-2.1,1.5-3.4,1.5-2.7,0-4.9-1.8-4.9-5.3Z"/>
            <path class="cls-2" d="M548.1,229.3h2.5v8.3h4v2.1h-6.5v-10.4Z"/>
          </g>
          <g>
            <path class="cls-2" d="M506.5,259.5h3l3.2,10.4h-2.6l-.6-2.4h-3.1l-.6,2.4h-2.5l3.2-10.4ZM506.9,265.6h2.1l-.2-.9c-.3-1-.5-2.3-.8-3.3h0c-.3,1.1-.5,2.3-.8,3.3l-.2.9Z"/>
            <path class="cls-2" d="M517.3,267.4h-4.4v-1.7l3.6-6.1h3.1v5.9h1.2v1.9h-1.2v2.6h-2.3v-2.6ZM517.3,265.5v-1.5c0-.7,0-1.6,0-2.3h0c-.3.6-.5,1.2-.8,1.8l-1.2,2.1h2Z"/>
            <path class="cls-2" d="M524.4,258.6h1.6l-3.1,13.9h-1.6l3.1-13.9Z"/>
            <path class="cls-2" d="M527.1,268.6l1.3-1.6c.7.6,1.7,1,2.6,1s1.4-.4,1.4-.9-.6-.8-1.5-1.2l-1.3-.6c-1.1-.4-2.1-1.3-2.1-2.8s1.6-3.2,3.8-3.2,2.5.5,3.4,1.3l-1.3,1.6c-.7-.5-1.4-.8-2.1-.8s-1.3.3-1.3.8.7.8,1.6,1.2l1.3.5c1.3.5,2.1,1.4,2.1,2.8s-1.5,3.3-4,3.3-2.8-.5-3.9-1.5Z"/>
            <path class="cls-2" d="M536.7,259.5h3c3.2,0,5.3,1.6,5.3,5.2s-2.1,5.2-5.1,5.2h-3.1v-10.4ZM539.5,268c1.7,0,2.9-.8,2.9-3.2s-1.2-3.2-2.9-3.2h-.4v6.4h.4Z"/>
            <path class="cls-2" d="M548.6,259.5h3l3.2,10.4h-2.6l-.6-2.4h-3.1l-.6,2.4h-2.5l3.2-10.4ZM549,265.6h2.1l-.2-.9c-.3-1-.5-2.3-.8-3.3h0c-.3,1.1-.5,2.3-.8,3.3l-.2.9Z"/>
          </g>
          <g>
            <path class="cls-2" d="M520.9,290h3l3.2,10.4h-2.6l-.6-2.4h-3.1l-.6,2.4h-2.5l3.2-10.4ZM521.3,296.1h2.1l-.2-.9c-.3-1-.5-2.3-.8-3.3h0c-.3,1.1-.5,2.3-.8,3.3l-.2.9Z"/>
            <path class="cls-2" d="M528.2,290h3.8c2.2,0,4.1.8,4.1,3.3s-.7,2.5-1.8,3l2.3,4.1h-2.8l-1.9-3.7h-1.2v3.7h-2.5v-10.4ZM531.8,294.8c1.2,0,1.8-.5,1.8-1.5s-.6-1.3-1.8-1.3h-1.1v2.8h1.1Z"/>
            <path class="cls-2" d="M538.1,290h6.6v2.1h-4.1v2h3.5v2.1h-3.5v2.2h4.3v2.1h-6.8v-10.4Z"/>
            <path class="cls-2" d="M546.9,290h6.7v2.1h-4.2v2.3h3.6v2.1h-3.6v4h-2.5v-10.4Z"/>
          </g>
          <g>
            <path class="cls-2" d="M523.2,325.8c0-3.5,2.3-5.5,5.1-5.5s2.6.6,3.3,1.4l-1.3,1.5c-.5-.5-1.1-.7-1.9-.7-1.5,0-2.7,1.2-2.7,3.2s.9,3.3,2.9,3.3.8,0,1-.3v-1.7h-1.7v-2h3.9v4.9c-.7.7-2,1.3-3.5,1.3-2.9,0-5.2-1.8-5.2-5.3Z"/>
            <path class="cls-2" d="M533.9,320.6h2.6l2.6,5c.4.7.7,1.5,1,2.4h0c-.1-1.1-.3-2.6-.3-3.8v-3.5h2.4v10.4h-2.6l-2.6-5c-.4-.7-.7-1.5-1-2.4h0c.1,1.2.3,2.6.3,3.8v3.5h-2.4v-10.4Z"/>
            <path class="cls-2" d="M544.6,320.6h3c3.2,0,5.3,1.6,5.3,5.2s-2.1,5.2-5.1,5.2h-3.1v-10.4ZM547.4,329c1.7,0,2.9-.8,2.9-3.2s-1.2-3.2-2.9-3.2h-.4v6.4h.4Z"/>
          </g>
          <g>
            <path class="cls-2" d="M495.1,359.5h2.2v-5.9h-1.9v-1.5c1.1-.2,1.8-.5,2.6-.9h1.8v8.4h1.9v2h-6.6v-2Z"/>
            <path class="cls-2" d="M502.9,360.2l1.1-1.6c.6.6,1.4,1,2.2,1s1.6-.4,1.6-1.2-.5-1.4-2.7-1.4v-1.8c1.8,0,2.3-.5,2.3-1.4s-.4-1.1-1.2-1.1-1.2.3-1.9.9l-1.2-1.5c.9-.8,2-1.3,3.2-1.3,2.2,0,3.6,1,3.6,2.9s-.6,1.8-1.7,2.3h0c1.2.4,2,1.2,2,2.6,0,2-1.8,3-3.8,3s-2.8-.6-3.6-1.4Z"/>
            <path class="cls-2" d="M514.4,350.1h1.6l-3.1,13.9h-1.6l3.1-13.9Z"/>
            <path class="cls-2" d="M517,360.2l1.3-1.6c.7.6,1.7,1,2.6,1s1.4-.4,1.4-.9-.6-.8-1.5-1.2l-1.3-.6c-1.1-.4-2.1-1.3-2.1-2.8s1.6-3.2,3.8-3.2,2.5.5,3.4,1.3l-1.3,1.6c-.7-.5-1.4-.8-2.1-.8s-1.3.3-1.3.8.7.8,1.6,1.2l1.3.5c1.3.5,2.1,1.4,2.1,2.8s-1.5,3.3-4,3.3-2.8-.5-3.9-1.5Z"/>
            <path class="cls-2" d="M526.1,356.4c0-3.5,2.3-5.5,5-5.5s2.4.6,3.2,1.4l-1.3,1.5c-.5-.5-1.1-.7-1.8-.7-1.4,0-2.5,1.2-2.5,3.2s1,3.3,2.4,3.3,1.5-.3,2-.9l1.3,1.5c-.9,1-2.1,1.5-3.4,1.5-2.7,0-4.9-1.8-4.9-5.3Z"/>
            <path class="cls-2" d="M535.9,351.1h2.5v8.3h4v2.1h-6.5v-10.4Z"/>
            <path class="cls-2" d="M544.3,351.1h2.5v4.1h0l3-4.1h2.7l-3.1,4.2,3.7,6.2h-2.7l-2.5-4.3-1.1,1.5v2.7h-2.5v-10.4Z"/>
          </g>
          <g>
            <path class="cls-2" d="M494,390h2.2v-5.9h-1.9v-1.5c1.1-.2,1.8-.5,2.6-.9h1.8v8.4h1.9v2h-6.6v-2Z"/>
            <path class="cls-2" d="M502,390.5c2.7-2.3,4.4-4.2,4.4-5.6s-.5-1.5-1.4-1.5-1.3.5-1.8,1l-1.3-1.3c1-1.1,1.9-1.7,3.4-1.7s3.4,1.3,3.4,3.3-1.7,3.8-3.3,5.4c.5,0,1.2-.1,1.7-.1h2.1v2.1h-7.2v-1.5Z"/>
            <path class="cls-2" d="M513.2,380.6h1.6l-3.1,13.9h-1.6l3.1-13.9Z"/>
            <path class="cls-2" d="M516.5,381.6h2.7l1.6,4.5c.2.6.4,1.2.6,1.9h0c.2-.7.4-1.3.6-1.9l1.6-4.5h2.7v10.4h-2.3v-3.6c0-1,.2-2.8.3-3.8h0l-.9,2.7-1.4,3.8h-1.4l-1.4-3.8-.8-2.7h0c.1,1,.3,2.8.3,3.8v3.6h-2.2v-10.4Z"/>
            <path class="cls-2" d="M528.8,381.6h2.5v10.4h-2.5v-10.4Z"/>
            <path class="cls-2" d="M533,390.7l1.3-1.6c.7.6,1.7,1,2.6,1s1.4-.4,1.4-.9-.6-.8-1.5-1.2l-1.3-.6c-1.1-.4-2.1-1.3-2.1-2.8s1.6-3.2,3.8-3.2,2.5.5,3.4,1.3l-1.3,1.6c-.7-.5-1.4-.8-2.1-.8s-1.3.3-1.3.8.7.8,1.6,1.2l1.3.5c1.3.5,2.1,1.4,2.1,2.8s-1.5,3.3-4,3.3-2.8-.5-3.9-1.5Z"/>
            <path class="cls-2" d="M542.1,386.8c0-3.4,1.9-5.4,4.8-5.4s4.8,2,4.8,5.4-1.9,5.4-4.8,5.4-4.8-2-4.8-5.4ZM549.1,386.8c0-2-.8-3.2-2.2-3.2s-2.2,1.2-2.2,3.2.9,3.3,2.2,3.3,2.2-1.3,2.2-3.3Z"/>
          </g>
          <g>
            <path class="cls-2" d="M486.7,417.5c-.4,0-.8.4-1.1.9l-1.3-1c.8-1.2,1.6-1.7,2.4-1.7,1.3,0,1.9,1.2,2.8,1.2s.8-.4,1.1-.9l1.3,1c-.8,1.2-1.6,1.7-2.4,1.7-1.3,0-1.9-1.2-2.8-1.2Z"/>
            <path class="cls-2" d="M493.4,420.5h2.2v-5.9h-1.9v-1.5c1.1-.2,1.8-.5,2.6-.9h1.8v8.4h1.9v2h-6.6v-2Z"/>
            <path class="cls-2" d="M501.9,420.5h2.2v-5.9h-1.9v-1.5c1.1-.2,1.8-.5,2.6-.9h1.8v8.4h1.9v2h-6.6v-2Z"/>
            <path class="cls-2" d="M512.7,411.1h1.6l-3.1,13.9h-1.6l3.1-13.9Z"/>
            <path class="cls-2" d="M515.9,412.1h2.7l1.6,4.5c.2.6.4,1.2.6,1.9h0c.2-.7.4-1.3.6-1.9l1.6-4.5h2.7v10.4h-2.3v-3.6c0-1,.2-2.8.3-3.8h0l-.9,2.7-1.4,3.8h-1.4l-1.4-3.8-.8-2.7h0c.1,1,.3,2.8.3,3.8v3.6h-2.2v-10.4Z"/>
            <path class="cls-2" d="M527.7,417.3c0-3.4,1.9-5.4,4.8-5.4s4.8,2,4.8,5.4-1.9,5.4-4.8,5.4-4.8-2-4.8-5.4ZM534.7,417.3c0-2-.8-3.2-2.2-3.2s-2.2,1.2-2.2,3.2.9,3.3,2.2,3.3,2.2-1.3,2.2-3.3Z"/>
            <path class="cls-2" d="M538.5,421.2l1.3-1.6c.7.6,1.7,1,2.6,1s1.4-.4,1.4-.9-.6-.8-1.5-1.2l-1.3-.6c-1.1-.4-2.1-1.3-2.1-2.8s1.6-3.2,3.8-3.2,2.5.5,3.4,1.3l-1.3,1.6c-.7-.5-1.4-.8-2.1-.8s-1.3.3-1.3.8.7.8,1.6,1.2l1.3.5c1.3.5,2.1,1.4,2.1,2.8s-1.5,3.3-4,3.3-2.8-.5-3.9-1.5Z"/>
            <path class="cls-2" d="M548.1,412.1h2.5v10.4h-2.5v-10.4Z"/>
          </g>
          <g>
            <path class="cls-2" d="M528.6,448c-.4,0-.8.4-1.1.9l-1.3-1c.8-1.2,1.6-1.7,2.4-1.7,1.3,0,1.9,1.2,2.8,1.2s.8-.4,1.1-.9l1.3,1c-.8,1.2-1.6,1.7-2.4,1.7-1.3,0-1.9-1.2-2.8-1.2Z"/>
            <path class="cls-2" d="M535.3,451h2.2v-5.9h-1.9v-1.5c1.1-.2,1.8-.5,2.6-.9h1.8v8.4h1.9v2h-6.6v-2Z"/>
            <path class="cls-2" d="M543.3,447.8c0-3.6,1.5-5.4,3.7-5.4s3.7,1.8,3.7,5.4-1.5,5.4-3.7,5.4-3.7-1.9-3.7-5.4ZM548.3,447.8c0-2.8-.6-3.5-1.3-3.5s-1.3.6-1.3,3.5.6,3.5,1.3,3.5,1.3-.7,1.3-3.5Z"/>
          </g>
          <g>
            <path class="cls-2" d="M536.5,478.5c-.4,0-.8.4-1.1.9l-1.3-1c.8-1.2,1.6-1.7,2.4-1.7,1.3,0,1.9,1.2,2.8,1.2s.8-.4,1.1-.9l1.3,1c-.8,1.2-1.6,1.7-2.4,1.7-1.3,0-1.9-1.2-2.8-1.2Z"/>
            <path class="cls-2" d="M542.8,482.5l1.3-1.5c.3.4,1,.7,1.6.7,1.1,0,1.9-.8,2-3-.5.7-1.4,1-2,1-1.7,0-3-1-3-3.3s1.6-3.5,3.4-3.5,3.9,1.5,3.9,5.3-2,5.5-4.1,5.5-2.4-.6-3.1-1.2ZM546.2,478c.5,0,1.1-.3,1.5-.9-.2-1.8-.8-2.3-1.5-2.3s-1.2.5-1.2,1.7.5,1.5,1.2,1.5Z"/>
          </g>
          <path class="cls-2" d="M542.2,511.5c0-1.3.7-2.1,1.7-2.6h0c-.8-.7-1.4-1.5-1.4-2.6,0-1.7,1.4-2.8,3.3-2.8s3.1,1.1,3.1,2.8-.6,1.8-1.3,2.3h0c1,.6,1.8,1.5,1.8,2.9s-1.5,2.8-3.6,2.8-3.6-1.1-3.6-2.8ZM547.1,511.3c0-.9-.8-1.3-2.1-1.9-.4.4-.7,1-.7,1.7s.7,1.4,1.5,1.4,1.3-.4,1.3-1.2ZM547,506.4c0-.8-.4-1.2-1.2-1.2s-1.1.4-1.1,1.1.6,1.3,1.7,1.7c.4-.5.6-1,.6-1.5Z"/>
          <path class="cls-2" d="M546.2,533.4h-4.5v-2.1h7.1v1.5c-2.4,2.9-2.7,4.8-2.8,8.9h-2.5c.2-3.4.7-5.6,2.7-8.3Z"/>
          <g>
            <path class="cls-2" d="M534.8,567.2c-.4,0-.8.4-1.1.9l-1.3-1c.8-1.2,1.6-1.7,2.4-1.7,1.3,0,1.9,1.2,2.8,1.2s.8-.4,1.1-.9l1.3,1c-.8,1.2-1.6,1.7-2.4,1.7-1.3,0-1.9-1.2-2.8-1.2Z"/>
            <path class="cls-2" d="M541.1,567.1c0-3.8,2-5.5,4.1-5.5s2.4.6,3,1.2l-1.3,1.5c-.4-.4-1-.7-1.6-.7-1.1,0-1.9.8-2,3,.5-.6,1.4-1,2-1,1.7,0,3,1,3,3.3s-1.6,3.5-3.4,3.5-3.9-1.5-3.9-5.3ZM543.4,568.3c.2,1.7.9,2.2,1.5,2.2s1.2-.5,1.2-1.7-.6-1.5-1.3-1.5-1.1.3-1.5,1Z"/>
          </g>
          <g>
            <path class="cls-2" d="M534.2,597.7c-.4,0-.8.4-1.1.9l-1.3-1c.8-1.2,1.6-1.7,2.4-1.7,1.3,0,1.9,1.2,2.8,1.2s.8-.4,1.1-.9l1.3,1c-.8,1.2-1.6,1.7-2.4,1.7-1.3,0-1.9-1.2-2.8-1.2Z"/>
            <path class="cls-2" d="M540.2,601.5l1.1-1.6c.6.6,1.3,1,2.1,1s1.6-.6,1.6-1.6-.6-1.6-1.5-1.6-.9.1-1.5.5l-1.1-.7.3-5.2h5.8v2.1h-3.7v1.8c.2-.1.5-.2.9-.2,1.8,0,3.2,1,3.2,3.3s-1.8,3.7-3.8,3.7-2.8-.6-3.6-1.4Z"/>
          </g>
          <path class="cls-2" d="M544,630.7h-4.4v-1.7l3.6-6.1h3.1v5.9h1.2v1.9h-1.2v2.6h-2.3v-2.6ZM544,628.8v-1.5c0-.7,0-1.6,0-2.3h0c-.3.6-.5,1.2-.8,1.8l-1.2,2.1h2Z"/>
          <g>
            <path class="cls-2" d="M533,658.8c-.4,0-.8.4-1.1.9l-1.3-1c.8-1.2,1.6-1.7,2.4-1.7,1.3,0,1.9,1.2,2.8,1.2s.8-.4,1.1-.9l1.3,1c-.8,1.2-1.6,1.7-2.4,1.7-1.3,0-1.9-1.2-2.8-1.2Z"/>
            <path class="cls-2" d="M539,662.5l1.1-1.6c.6.6,1.4,1,2.2,1s1.6-.4,1.6-1.2-.5-1.4-2.7-1.4v-1.8c1.8,0,2.3-.5,2.3-1.4s-.4-1.1-1.2-1.1-1.2.3-1.9.9l-1.2-1.5c.9-.8,2-1.3,3.2-1.3,2.2,0,3.6,1,3.6,2.9s-.6,1.8-1.7,2.3h0c1.2.4,2,1.2,2,2.6,0,2-1.8,3-3.8,3s-2.8-.6-3.6-1.4Z"/>
          </g>
          <path class="cls-2" d="M538.7,692.7c2.7-2.3,4.4-4.2,4.4-5.6s-.5-1.5-1.4-1.5-1.3.5-1.8,1l-1.3-1.3c1-1.1,1.9-1.7,3.4-1.7s3.4,1.3,3.4,3.3-1.7,3.8-3.3,5.4c.5,0,1.2-.1,1.7-.1h2.1v2.1h-7.2v-1.5Z"/>
          <g>
            <path class="cls-2" d="M509,717.4h-2.8v-2.1h8.1v2.1h-2.8v8.3h-2.5v-8.3Z"/>
            <path class="cls-2" d="M517.4,720.3l-2.7-5.1h2.8l.8,1.9c.2.5.5,1,.8,1.7h0c.2-.7.5-1.2.7-1.7l.8-1.9h2.6l-2.7,5.2,2.9,5.2h-2.8l-1-2c-.3-.5-.5-1.1-.8-1.7h0c-.2.6-.5,1.2-.7,1.7l-.9,2h-2.7l2.9-5.4Z"/>
            <path class="cls-2" d="M537.3,720.4l-5,5c-.4.4-1,.4-1.4,0s-.4-1,0-1.4l3.3-3.3h-9.6c-.6,0-1-.4-1-1s.4-1,1-1h9.6l-3.3-3.3c-.4-.4-.4-1,0-1.4s1-.4,1.4,0l5,5c.4.4.4,1,0,1.4h0Z"/>
            <path class="cls-2" d="M538.6,723.7h2.2v-5.9h-1.9v-1.5c1.1-.2,1.8-.5,2.6-.9h1.8v8.4h1.9v2h-6.6v-2Z"/>
          </g>
          <g>
            <path class="cls-2" d="M505.2,745.8h3.8c2.2,0,4.1.8,4.1,3.3s-.7,2.5-1.8,3l2.3,4.1h-2.8l-1.9-3.7h-1.2v3.7h-2.5v-10.4ZM508.9,750.6c1.2,0,1.8-.5,1.8-1.5s-.6-1.3-1.8-1.3h-1.1v2.8h1.1Z"/>
            <path class="cls-2" d="M516.8,750.9l-2.7-5.1h2.8l.8,1.9c.2.5.5,1,.8,1.7h0c.2-.7.5-1.2.7-1.7l.8-1.9h2.6l-2.7,5.2,2.9,5.2h-2.8l-1-2c-.3-.5-.5-1.1-.8-1.7h0c-.2.6-.5,1.2-.7,1.7l-.9,2h-2.7l2.9-5.4Z"/>
            <path class="cls-2" d="M523.3,749.5l5-5c.4-.4,1-.4,1.4,0s.4,1,0,1.4l-3.3,3.3h9.6c.6,0,1,.4,1,1s-.4,1-1,1h-9.6l3.3,3.3c.4.4.4,1,0,1.4s-1,.4-1.4,0l-5-5c-.4-.4-.4-1,0-1.4h0Z"/>
            <path class="cls-2" d="M537.5,751c0-3.6,1.5-5.4,3.7-5.4s3.7,1.8,3.7,5.4-1.5,5.4-3.7,5.4-3.7-1.9-3.7-5.4ZM542.6,751c0-2.8-.6-3.5-1.3-3.5s-1.3.6-1.3,3.5.6,3.5,1.3,3.5,1.3-.7,1.3-3.5Z"/>
          </g>
        </g>
        <g>
          <rect class="cls-6" x="396.1" y="331" width="10.7" height="17.2"/>
          <rect class="cls-14" x="396.1" y="333.5" width="10.7" height="11.8"/>
        </g>
      </g>
      <g id="layer1-0">
        <rect id="rect815-0" x="638.5" y="17.2" width="195.5" height="260.4"/>
        <rect id="rect821-8" class="cls-2" x="684.7" y="234.8" width="101.7" height="35"/>
        <rect id="rect825-0" class="cls-24" x="684.9" y="236.8" width="33.3" height="30.8" rx="6.4" ry="6.4"/>
        <rect id="rect872-2" class="cls-24" x="752.9" y="236.8" width="33.3" height="30.8" rx="6.4" ry="6.4"/>
        <rect id="rect874-5" class="cls-24" x="718.9" y="236.8" width="33.3" height="30.8" rx="5.6" ry="5.6"/>
        <rect id="rect947-9" class="cls-17" x="699.7" y="253.5" width="3.7" height="64.2"/>
        <rect id="rect949-8" class="cls-17" x="733.9" y="253.5" width="3.7" height="64.2"/>
        <rect id="rect951-7" class="cls-17" x="767.7" y="253.5" width="3.7" height="64.2"/>
        <rect id="rect87" x="666" y="198" width="139.2" height="35"/>
        <path id="path31-1" class="cls-2" d="M694.1,36.7c1.2,0,1.3,0,1.6-.2.2-.1.3-.2.4-.4.1-.2.1-.4.2-2.8v-2.6s2.6,0,2.6,0h2.6v3.3c0,3.6,0,3.9-.4,4.9-.4,1.2-1.5,2-2.7,2.2-.8.1-1.6.2-2.4.1-1,0-2.1,0-2.5,0h-.6c0,0,0-2.2,0-2.2v-2.1s1.3,0,1.3,0h0ZM718.7,44c22,0,27.5,0,26.5.1h-.1s.1,0,.1,0c.1,0,.1,0-.1,0-.2,0,0,0,.2,0h.5s-.5,0-.5,0c-.3,0-.4,0-.3,0,.1,0,.1.1.1.6s0,.6.2.6c.1,0,.1,0-.1,0-.2,0-.3,0-.3,0s-8.7,0-26.1,0h-26.1v-1.9h25.9ZM698.8,23.9h2.6v4.2h-5.2v-4.2h2.6ZM704,31.7c.2-1.1.5-2.2,1-3.2.1-.2.2-.4.4-.7.1-.1.2-.3.3-.4.3-.5.6-.9,1-1.3,0,0,0,0,0-.1.3-.4.7-.8,1.2-1,.6-.4,1.2-.7,1.9-1,1-.4,2.1-.6,3.1-.5.6,0,1.2,0,1.8.2.4.1.9.3,1,.4.1,0,.3.1.4.1.2,0,.4.2.6.3,1.5,1,2.8,2.4,3.6,4.1,1,2.1,1.2,4.4.4,6.6-.2.7-.6,1.4-.9,2-.4.7-.9,1.3-1.5,1.8-1,1.1-2.3,1.8-3.7,2.2-1.1.2-2.2.3-3.3.2-1.3-.2-2.5-.7-3.5-1.5-.4-.3-.8-.6-1.1-1-.1-.1-.2-.3-.4-.4-1.1-1.3-1.9-2.7-2.3-4.4-.1-.8-.2-1.7-.2-2.5h0ZM709,33.9c.3,1,.8,1.9,1.5,2.6.8.8,2,1,3.1.7,1.4-.6,2.4-1.8,2.7-3.2.2-1,.2-2,0-2.9-.3-1.1-.9-2-1.8-2.7-.3-.2-.6-.4-1-.4-.8-.2-1.7,0-2.4.2-.7.5-1.3,1.1-1.7,1.9-.6,1.2-.8,2.6-.4,3.9h0ZM723.7,23.9s1.2,0,2.6,0h2.5s0,2.3,0,2.3c0,2.2,0,2.3.2,2.7.4,1,1.6,1.5,2.6,1.2.5-.2.9-.5,1.2-1l.2-.5v-2.4s0-2.4,0-2.4h5.2v2.7c0,1.1,0,2.2-.2,3.3-.3,1-.7,1.9-1.4,2.7-.1.1-.2.2-.3.4-.4.4-.8.8-1.2,1.1-.5.4-1,.6-1.5.8-.1,0-.5.1-.8.2-.6.2-1.2.2-1.9.2-.7,0-1.3,0-2-.2-.7-.2-1.4-.5-2.1-.9-.8-.5-1.5-1.2-2-2-.7-1-1.1-2.1-1.3-3.3-.1-1.7,0-3.4,0-5h0ZM730.9,36.7h4.3v4.4h-8.5v-4.4h4.3ZM738.2,20.5s0-.1,0-.3c0-.3,0-.3.3-.3.2,0,7.4,0,16,0h15.7s0,.9,0,.9v.9h-16c-8.8,0-16,0-16.1,0,0,0-.1-.2-.1-.6s0-.6,0-.6h0ZM745.4,31h5.4v4.3h-10.8v-4.3h5.4ZM755.1,23.9h2.6v4.2h-5.2v-4.2h2.6ZM755.1,30.3h2.6v11h-5.2v-11h2.6ZM765.5,23.9h5.5v4.2h-10.9v-4.2h5.5ZM760.9,30.7s1.2,0,2.6,0h2.5s0,2.5,0,2.5c0,3.5-.1,3.3,2.5,3.4h1.7v4.4h-.6c-1.6.2-3.2.2-4.7,0-1.1,0-2.1-.6-2.9-1.4-.6-.8-1-1.7-1.1-2.7,0-.8,0-6.2,0-6.2h0ZM774,21.8c.1-.4.4-.8.7-1.2,1-1,2.6-1.1,3.8-.3.4.2.7.6.9,1.1.2.4.2.8.2,1.1,0,.4,0,.8-.2,1.2-.5.9-1.4,1.5-2.4,1.6-.9,0-1.7-.3-2.3-.9-.7-.7-.9-1.7-.7-2.6h0ZM774.5,23.6c.4.7,1,1.1,1.7,1.3.8.2,1.6,0,2.2-.6.2-.2.4-.4.5-.7.2-.3.3-.7.2-1.1,0-.4,0-.8-.2-1.1-.1-.3-.4-.6-.7-.8-.2-.2-.5-.3-.8-.4-1.2-.4-2.6.2-3.1,1.4-.2.6-.1,1.3,0,1.9ZM776.4,20.9c.4,0,.8,0,1.1,0,.5.3.6.9.3,1.3-.1.1-.2.2-.4.3h-.2c0,0,.2.3.2.3.2.2.3.4.5.6,0,.2.2.3.3.4.2,0,0,.2-.2.2h-.3s-.4-.7-.4-.7c-.5-.7-.6-.8-1.1-.8h-.3v1.5h-.2s-.2,0-.2,0v-1.6s0-1.6,0-1.6h1ZM776.5,22.3c.5,0,.7,0,.8-.1.4-.3.2-.8-.4-.9-.3,0-.7,0-1,0,0,.2,0,.3,0,.5v.5h.6Z"/>
        <circle id="path84-9" class="cls-18" cx="666.7" cy="52.3" r="19.5"/>
        <circle id="circle86-9" class="cls-18" cx="805.6" cy="52.3" r="19.5"/>
        <circle id="path88-0" class="cls-3" cx="666.7" cy="52.3" r="17.4"/>
        <circle id="circle90" class="cls-3" cx="805.6" cy="52.3" r="17.4"/>
        <circle id="path92-3" class="cls-16" cx="736.1" cy="146.5" r="75.9"/>
        <circle id="path94" class="cls-18" cx="736.1" cy="146.5" r="21.7"/>
        <g id="text72" class="cls-15">
          <g class="cls-15">
            <g class="cls-15">
              <path class="cls-2" d="M658.3,164.8c0,0,.1,0,.2,0,0,0,.1,0,.1.2,0,0,0,.2,0,.4,0,.2,0,.4,0,.6s0,.6,0,.8c0,.2,0,.3-.1.4,0,0-.2.2-.2.2l-8.7,6.4h8.7c0,0,.1,0,.2,0,0,0,.1,0,.1.2,0,0,0,.2,0,.4,0,.1,0,.3,0,.6s0,.4,0,.6c0,.2,0,.3,0,.4,0,0,0,.2-.1.2s-.1,0-.2,0h-16.7c0,0-.1,0-.2,0,0,0,0,0-.1-.2,0,0,0-.2,0-.4,0-.2,0-.3,0-.6s0-.4,0-.6c0-.1,0-.3,0-.4,0,0,0-.2.1-.2,0,0,.1,0,.2,0h7.7l-7.7-6.2c0,0-.1-.1-.2-.2s0-.2-.1-.3,0-.2,0-.4c0-.1,0-.3,0-.6s0-.4,0-.6c0-.1,0-.3,0-.3,0,0,0-.1.1-.2,0,0,.1,0,.2,0,.1,0,.2,0,.4,0,.1,0,.3.2.5.3l6.9,5.8,8.3-6.2c.2-.2.4-.2.5-.3,0,0,.2,0,.2,0Z"/>
            </g>
            <g class="cls-15">
              <path class="cls-2" d="M651.9,156.3h6.4c0,0,.1,0,.2,0s0,0,.1.2c0,0,0,.2,0,.4,0,.2,0,.3,0,.5s0,.4,0,.6c0,.1,0,.3,0,.4,0,0,0,.2-.1.2s-.1,0-.2,0h-6.4l-9.8,4.9c-.2,0-.4.2-.5.2-.1,0-.2,0-.3,0,0,0-.1-.2-.1-.4,0-.2,0-.4,0-.7s0-.5,0-.7c0-.2,0-.3,0-.4,0,0,0-.2.1-.2s.1,0,.2-.1l5-2.4c.5-.2,1-.4,1.5-.7.5-.2,1-.5,1.6-.7h0c-.5-.2-1-.4-1.5-.7-.5-.2-1-.4-1.5-.7l-5-2.4c0,0-.2,0-.2-.1,0,0-.1-.1-.1-.2,0,0,0-.2,0-.4,0-.2,0-.3,0-.6s0-.6,0-.8c0-.2,0-.3.1-.4s.2,0,.3,0c.1,0,.3,0,.5.2l9.8,4.9Z"/>
            </g>
            <g class="cls-15">
              <path class="cls-2" d="M651.9,144.8c.3,0,.6,0,.7.1s.2.2.2.3v5.6c0,.2,0,.3-.2.4-.1,0-.4.1-.7.1s-.6,0-.7-.1c-.1,0-.2-.2-.2-.4v-5.6c0,0,0-.1,0-.2,0,0,0-.1.2-.1,0,0,.2,0,.3,0s.3,0,.4,0Z"/>
              <path class="cls-2" d="M649.9,130.8c1.3,0,2.6.1,3.7.3,1.1.2,2.1.6,2.8,1s1.4,1.1,1.8,1.9c.4.8.7,1.8.7,2.9s-.2,2-.6,2.8c-.4.7-1,1.4-1.7,1.8s-1.7.8-2.8,1c-1.1.2-2.4.3-3.8.3s-2.5-.1-3.7-.3c-1.1-.2-2.1-.6-2.9-1s-1.4-1.1-1.8-1.9c-.4-.8-.7-1.8-.7-2.9s.2-2,.6-2.8c.4-.7,1-1.4,1.7-1.8.8-.5,1.7-.8,2.8-1,1.1-.2,2.4-.3,3.8-.3ZM650.1,133.2c-.9,0-1.7,0-2.3,0-.7,0-1.3.2-1.8.3s-1,.3-1.4.5c-.4.2-.7.4-.9.7-.2.3-.4.6-.5.9-.1.3-.2.7-.2,1.2,0,.8.2,1.4.5,1.9.4.5.9.9,1.5,1.1.6.3,1.4.5,2.2.6.8,0,1.7.1,2.7.1s2.4,0,3.3-.2c.9-.1,1.7-.3,2.2-.6.6-.3,1-.7,1.3-1.1.3-.5.4-1,.4-1.6s0-.9-.2-1.3-.4-.7-.7-1c-.3-.3-.7-.5-1.1-.7-.4-.2-.9-.3-1.4-.4-.5-.1-1.1-.2-1.7-.2-.6,0-1.2,0-1.9,0Z"/>
              <path class="cls-2" d="M649.9,116.9c1.3,0,2.6.1,3.7.3,1.1.2,2.1.6,2.8,1s1.4,1.1,1.8,1.9c.4.8.7,1.8.7,2.9s-.2,2-.6,2.8c-.4.7-1,1.4-1.7,1.8s-1.7.8-2.8,1c-1.1.2-2.4.3-3.8.3s-2.5-.1-3.7-.3c-1.1-.2-2.1-.6-2.9-1s-1.4-1.1-1.8-1.9c-.4-.8-.7-1.8-.7-2.9s.2-2,.6-2.8c.4-.7,1-1.4,1.7-1.8.8-.5,1.7-.8,2.8-1,1.1-.2,2.4-.3,3.8-.3ZM650.1,119.2c-.9,0-1.7,0-2.3,0-.7,0-1.3.2-1.8.3s-1,.3-1.4.5c-.4.2-.7.4-.9.7-.2.3-.4.6-.5.9-.1.3-.2.7-.2,1.2,0,.8.2,1.4.5,1.9.4.5.9.9,1.5,1.1.6.3,1.4.5,2.2.6.8,0,1.7.1,2.7.1s2.4,0,3.3-.2c.9-.1,1.7-.3,2.2-.6.6-.3,1-.7,1.3-1.1.3-.5.4-1,.4-1.6s0-.9-.2-1.3-.4-.7-.7-1c-.3-.3-.7-.5-1.1-.7-.4-.2-.9-.3-1.4-.4-.5-.1-1.1-.2-1.7-.2-.6,0-1.2,0-1.9,0Z"/>
              <path class="cls-2" d="M653.1,103c.8,0,1.5.1,2.2.4.7.2,1.3.6,1.9,1.1.5.5,1,1.1,1.3,1.8s.5,1.6.5,2.6,0,1.4-.3,1.9c-.2.6-.4,1-.8,1.5s-.7.8-1.2,1c-.5.3-1,.5-1.7.7s-1.3.3-2,.4c-.7,0-1.5.1-2.4.1s-1.5,0-2.3-.1c-.8,0-1.5-.2-2.2-.4-.7-.2-1.4-.5-2-.8-.6-.4-1.2-.8-1.6-1.3s-.8-1.2-1.1-1.9c-.3-.7-.4-1.6-.4-2.6s0-.7,0-1c0-.3,0-.7.2-.9,0-.3.1-.5.2-.7,0-.2.1-.3.2-.4,0,0,.1-.1.2-.1s.1,0,.2,0c0,0,.1,0,.2,0,0,0,.2,0,.3,0s.3,0,.4,0c.1,0,.2,0,.3,0,0,0,.1,0,.2.1s0,.1,0,.2,0,.2,0,.4c0,.2-.1.4-.2.6s-.1.5-.2.9c0,.3,0,.7,0,1.2,0,.8.2,1.6.5,2.2s.8,1.1,1.4,1.5c.6.4,1.2.7,2,.8.8.2,1.5.3,2.4.3-.1-.2-.3-.5-.4-.8-.1-.3-.3-.6-.4-1-.1-.3-.2-.7-.3-1.1,0-.4-.1-.8-.1-1.2,0-.9.1-1.7.4-2.4.3-.6.6-1.2,1.1-1.6.5-.4,1-.7,1.6-.9.6-.2,1.3-.3,2-.3ZM653.3,105.4c-.5,0-1,0-1.4.2-.4.1-.8.3-1.1.5s-.5.6-.7,1c-.2.4-.2.9-.2,1.5s0,.7,0,1c0,.3.1.7.2,1,.1.3.2.6.4.9.1.3.3.5.5.8,1.2,0,2.1,0,2.9-.2.8-.1,1.4-.4,1.9-.6s.8-.6,1-1.1c.2-.4.3-.9.3-1.5s-.1-1.1-.3-1.5c-.2-.4-.5-.8-.9-1-.4-.3-.8-.5-1.2-.6-.5-.1-.9-.2-1.4-.2Z"/>
            </g>
          </g>
        </g>
        <g id="text76" class="cls-15">
          <g class="cls-15">
            <path class="cls-2" d="M679.1,255.2c0,.8-.1,1.5-.5,2.2-.3.6-.7,1.2-1.3,1.6-.5.4-1.2.8-1.9,1-.7.2-1.5.3-2.3.3s-1.1,0-1.6-.1c-.5,0-.9-.2-1.3-.4-.4-.1-.7-.3-1-.4-.3-.2-.4-.3-.6-.4-.1-.1-.2-.2-.2-.4,0-.2,0-.4,0-.7s0-.4,0-.5,0-.2,0-.3c0,0,0-.1.1-.2,0,0,.1,0,.2,0,.1,0,.3,0,.5.2.2.2.5.3.9.5.4.2.8.3,1.3.5.5.2,1.1.2,1.8.2s1,0,1.4-.2c.4-.1.8-.3,1.1-.6.3-.2.5-.5.7-.9.2-.4.2-.8.2-1.2s-.1-.9-.3-1.3c-.2-.3-.5-.7-.9-.9-.4-.3-.8-.5-1.3-.7s-1-.4-1.4-.7-1-.5-1.4-.8c-.5-.3-.9-.6-1.3-1s-.7-.8-.9-1.3c-.2-.5-.3-1.1-.3-1.8s.1-1.4.4-1.9c.3-.6.6-1,1.1-1.4s1-.7,1.7-.9c.7-.2,1.4-.3,2.1-.3s.8,0,1.2.1c.4,0,.8.2,1.1.3.3.1.7.2.9.4.3.1.4.3.5.3,0,0,.1.2.2.2,0,0,0,.1,0,.2,0,0,0,.2,0,.3,0,.1,0,.2,0,.4s0,.3,0,.4,0,.2,0,.3c0,0,0,.1-.1.2,0,0-.1,0-.2,0,0,0-.3,0-.5-.2-.2-.1-.5-.3-.8-.4-.3-.2-.7-.3-1.1-.4s-.9-.2-1.4-.2-.9,0-1.3.2c-.4.1-.7.3-.9.5-.2.2-.4.5-.5.8-.1.3-.2.6-.2.9,0,.5.1.9.3,1.3.2.4.5.7.9.9.4.3.8.5,1.3.7.5.2,1,.5,1.5.7.5.2,1,.5,1.5.8.5.3.9.6,1.3,1,.4.4.7.8.9,1.3s.3,1.1.3,1.8Z"/>
          </g>
        </g>
        <g id="text80" class="cls-15">
          <g class="cls-15">
            <path class="cls-2" d="M810.4,253.3c0,.4-.1.6-.3.7-.2.1-.5.2-.9.2h-14.7c-.4,0-.7,0-1-.2-.2-.1-.3-.4-.3-.7s.1-.6.3-.7c.2-.1.5-.2,1-.2h14.7c.2,0,.4,0,.5,0,.2,0,.3,0,.4.2.1,0,.2.2.2.3s0,.3,0,.4Z"/>
          </g>
        </g>
      </g>
      <rect id="rect840" class="cls-7" x="762.9" y="290" width="11.3" height="246.4"/>
      <rect id="rect849" class="cls-13" x="696" y="289.3" width="11.3" height="224.6"/>
      <circle id="path255" class="cls-13" cx="701.6" cy="288.5" r="12.5"/>
      <circle id="circle257" class="cls-7" cx="768.6" cy="288.5" r="12.5"/>
      <rect class="cls-7" x="20.3" y="525" width="753.9" height="11.3"/>
      <rect class="cls-7" x="20.3" y="498" width="11.4" height="38.4"/>
      <circle id="circle281" class="cls-7" cx="26.1" cy="499.8" r="11.6" transform="translate(-474.1 517.8) rotate(-89.1)"/>
      <rect id="rect842" class="cls-13" x="575.6" y="502.5" width="131.7" height="11.3"/>
      <circle id="circle281-2" class="cls-13" cx="575.6" cy="508.2" r="11.6"/>
    </g>
  </g>
</svg>