<?xml version="1.0" encoding="UTF-8"?>
<svg xmlns="http://www.w3.org/2000/svg" xmlns:svg="http://www.w3.org/2000/svg" xmlns:sodipodi="http://sodipodi.sourceforge.net/DTD/sodipodi-0.dtd" xmlns:rdf="http://www.w3.org/1999/02/22-rdf-syntax-ns#" xmlns:inkscape="http://www.inkscape.org/namespaces/inkscape" xmlns:dc="http://purl.org/dc/elements/1.1/" xmlns:cc="http://creativecommons.org/ns#" version="1.1" viewBox="0 0 683.6 775.2">
  <defs>
    <style>
      .cls-1 {
        fill: #1eaae2;
      }

      .cls-2 {
        fill: #e41b20;
      }

      .cls-3, .cls-4 {
        fill: #010101;
      }

      .cls-5 {
        fill: #030304;
      }

      .cls-6 {
        fill: #02814b;
      }

      .cls-7 {
        fill: #754d24;
      }

      .cls-8 {
        fill: gray;
      }

      .cls-9 {
        fill: #868c97;
      }

      .cls-10 {
        stroke: #fff;
      }

      .cls-10, .cls-11, .cls-12, .cls-13, .cls-14, .cls-15 {
        fill: none;
        stroke-miterlimit: 10;
      }

      .cls-16 {
        fill: #c2bfab;
      }

      .cls-17 {
        fill: #e8d28a;
      }

      .cls-18 {
        fill: #8dddde;
      }

      .cls-19 {
        fill: #cecece;
      }

      .cls-11 {
        stroke: #754c24;
      }

      .cls-20 {
        fill: #c1c1c1;
      }

      .cls-21 {
        fill: #59bfc3;
      }

      .cls-22 {
        fill: #b9a68f;
      }

      .cls-23 {
        fill: #915114;
      }

      .cls-24 {
        fill: #141316;
      }

      .cls-25 {
        fill: #cdcccc;
      }

      .cls-25, .cls-26, .cls-27, .cls-28, .cls-4, .cls-29 {
        isolation: isolate;
      }

      .cls-25, .cls-26, .cls-28, .cls-4, .cls-29 {
        opacity: 1;
      }

      .cls-30 {
        fill: #e2eade;
      }

      .cls-26 {
        fill: #d8edf4;
      }

      .cls-31 {
        fill: #915215;
      }

      .cls-32 {
        fill: #474544;
      }

      .cls-33 {
        fill: #ddd;
      }

      .cls-12 {
        stroke: red;
      }

      .cls-34 {
        fill: #e20e18;
      }

      .cls-35 {
        fill: #fee86f;
      }

      .cls-36, .cls-29 {
        fill: #fff;
      }

      .cls-37 {
        fill: #0d8136;
      }

      .cls-38 {
        fill: #c29148;
      }

      .cls-39 {
        fill: #e0b45b;
      }

      .cls-40 {
        fill: #d4c547;
      }

      .cls-13 {
        stroke: #000;
      }

      .cls-41 {
        fill: #29abe2;
      }

      .cls-14 {
        stroke: gray;
        stroke-width: 2px;
      }

      .cls-42 {
        fill: #fcfcfa;
      }

      .cls-43 {
        fill: #7f7f7f;
      }

      .cls-28 {
        fill: #808181;
      }

      .cls-44 {
        fill: #525035;
      }

      .cls-45 {
        fill: #ffe17b;
      }

      .cls-46 {
        fill: #aba28e;
      }

      .cls-15 {
        stroke: #95ac6e;
      }

      .cls-47 {
        fill: #1b1b1b;
      }

      .cls-48 {
        fill: #36323e;
      }

      .cls-49 {
        fill: #fdfdfd;
      }
    </style>
  </defs>
  <!-- Generator: Adobe Illustrator 28.7.0, SVG Export Plug-In . SVG Version: 1.2.0 Build 136)  -->
  <g>
    <g id="Ebene_1">
      <g>
        <line class="cls-14" x1="457.3" y1="434.2" x2="440.3" y2="434.2"/>
        <path class="cls-41" d="M421.1,417.9c-5.2,0-10,1.5-13.4,4.2h-37.9c-3.6-2.7-8.2-4.2-13.4-4.2-11.1,0-19.9,7.3-19.9,16.5s9,16.5,19.9,16.5,10-1.5,13.4-4.2h37.9c3.6,2.7,8.2,4.2,13.4,4.2,11.1,0,19.9-7.3,19.9-16.5s-9-16.5-19.9-16.5Z"/>
        <line class="cls-11" x1="423.6" y1="418.1" x2="423.6" y2="450.7"/>
        <line class="cls-12" x1="354.1" y1="418.1" x2="354.1" y2="450.7"/>
        <line class="cls-12" x1="374.6" y1="422.2" x2="374.6" y2="446.6"/>
        <line class="cls-13" x1="381.5" y1="422.2" x2="381.5" y2="446.5"/>
        <line class="cls-13" x1="393.6" y1="422.2" x2="393.6" y2="446.5"/>
        <line class="cls-14" x1="336.5" y1="434.2" x2="319.5" y2="434.2"/>
      </g>
      <g>
        <line class="cls-14" x1="457.3" y1="496.5" x2="440.3" y2="496.5"/>
        <path class="cls-41" d="M421.1,480.2c-5.2,0-10,1.5-13.4,4.2h-37.9c-3.6-2.7-8.2-4.2-13.4-4.2-11.1,0-19.9,7.3-19.9,16.5s9,16.5,19.9,16.5,10-1.5,13.4-4.2h37.9c3.6,2.7,8.2,4.2,13.4,4.2,11.1,0,19.9-7.3,19.9-16.5s-9-16.5-19.9-16.5Z"/>
        <line class="cls-11" x1="423.6" y1="480.4" x2="423.6" y2="513"/>
        <line class="cls-12" x1="354.1" y1="480.4" x2="354.1" y2="513"/>
        <line class="cls-12" x1="374.6" y1="484.5" x2="374.6" y2="508.9"/>
        <line class="cls-13" x1="381.5" y1="484.5" x2="381.5" y2="508.8"/>
        <line class="cls-13" x1="393.6" y1="484.5" x2="393.6" y2="508.8"/>
        <line class="cls-14" x1="336.5" y1="496.5" x2="319.5" y2="496.5"/>
      </g>
      <g>
        <line class="cls-14" x1="456.9" y1="375.2" x2="439.9" y2="375.2"/>
        <path class="cls-41" d="M420.7,358.9c-5.2,0-10,1.5-13.4,4.2h-37.9c-3.6-2.7-8.2-4.2-13.4-4.2-11.1,0-19.9,7.3-19.9,16.5s9,16.5,19.9,16.5,10-1.5,13.4-4.2h37.9c3.6,2.7,8.2,4.2,13.4,4.2,11.1,0,19.9-7.3,19.9-16.5s-9-16.5-19.9-16.5Z"/>
        <line class="cls-11" x1="423.2" y1="359.1" x2="423.2" y2="391.6"/>
        <line class="cls-12" x1="353.7" y1="359.1" x2="353.7" y2="391.6"/>
        <line class="cls-12" x1="374.2" y1="363.1" x2="374.2" y2="387.6"/>
        <line class="cls-13" x1="381.1" y1="363.1" x2="381.1" y2="387.4"/>
        <line class="cls-13" x1="393.2" y1="363.1" x2="393.2" y2="387.4"/>
        <line class="cls-14" x1="336.1" y1="375.2" x2="319.1" y2="375.2"/>
      </g>
      <g>
        <path class="cls-6" d="M243.3,193.2v-11.9H.2v11.9c2.3.9,3.9,3.1,3.9,5.7s-1.6,4.8-3.9,5.7v18.1c2.3.9,3.9,3.1,3.9,5.7s-1.6,4.8-3.9,5.7v17.9c2.3.9,3.9,3.1,3.9,5.7s-1.6,4.8-3.9,5.7v18.1c2.3.9,3.9,3.1,3.9,5.7s-1.6,4.8-3.9,5.7v18.1c2.3.9,3.9,3.1,3.9,5.7s-1.6,4.8-3.9,5.7v18.1c2.3.9,3.9,3.1,3.9,5.7s-1.6,4.8-3.9,5.7v18.1c2.3.9,3.9,3.1,3.9,5.7s-1.6,4.8-3.9,5.7v17.6c2.3.9,3.9,3.1,3.9,5.7s-1.6,4.8-3.9,5.7v18.1c2.3.9,3.9,3.1,3.9,5.7s-1.6,4.8-3.9,5.7v18.1c2.3.9,3.9,3.1,3.9,5.7s-1.6,4.8-3.9,5.7v18.1c2.3.9,3.9,3.1,3.9,5.7s-1.6,4.8-3.9,5.7v18.1c2.3.9,3.9,3.1,3.9,5.7s-1.6,4.8-3.9,5.7v17.6c2.3.9,3.9,3.1,3.9,5.7s-1.6,4.8-3.9,5.7v18.1c2.3.9,3.9,3.1,3.9,5.7s-1.6,4.8-3.9,5.7v18.1c2.3.9,3.9,3.1,3.9,5.7s-1.6,4.8-3.9,5.7v18.1c2.3.9,3.9,3.1,3.9,5.7s-1.6,4.8-3.9,5.7v18.1c2.3.9,3.9,3.1,3.9,5.7s-1.6,4.8-3.9,5.7v17.6c2.3.9,3.9,3.1,3.9,5.7s-1.6,4.8-3.9,5.7v18c2.3.9,3.9,3.1,3.9,5.7s-1.6,4.8-3.9,5.7v18.1c2.3.9,3.9,3.1,3.9,5.7s-1.6,4.8-3.9,5.7v11.7h243.1v-11.9c-2.2-.9-3.8-3.1-3.8-5.7s1.6-4.8,3.8-5.7v-18.1c-2.2-.9-3.8-3.1-3.8-5.7s1.6-4.8,3.8-5.7v-18.1c-2.2-.9-3.8-3.1-3.8-5.7s1.6-4.8,3.8-5.7v-18.1c-2.2-.9-3.8-3.1-3.8-5.7s1.6-4.8,3.8-5.7v-18.1c-2.2-.9-3.8-3.1-3.8-5.7s1.6-4.8,3.8-5.7v-18.1c-2.2-.9-3.8-3.1-3.8-5.7s1.6-4.8,3.8-5.7v-18.1c-2.2-.9-3.8-3.1-3.8-5.7s1.6-4.8,3.8-5.7v-18.1c-2.2-.9-3.8-3.1-3.8-5.7s1.6-4.8,3.8-5.7v-18.1c-2.2-.9-3.8-3.1-3.8-5.7s1.6-4.8,3.8-5.7v-18.1c-2.2-.9-3.8-3.1-3.8-5.7s1.6-4.8,3.8-5.7v-18.1c-2.2-.9-3.8-3.1-3.8-5.7s1.6-4.8,3.8-5.7v-18.1c-2.2-.9-3.8-3.1-3.8-5.7s1.6-4.8,3.8-5.7v-18.1c-2.2-.9-3.8-3.1-3.8-5.7s1.6-4.8,3.8-5.7v-18.1c-2.2-.9-3.8-3.1-3.8-5.7s1.6-4.8,3.8-5.7v-18.1c-2.2-.9-3.8-3.1-3.8-5.7s1.6-4.8,3.8-5.7v-18.1c-2.2-.9-3.8-3.1-3.8-5.7s1.6-4.8,3.8-5.7v-18.1c-2.2-.9-3.8-3.1-3.8-5.7s1.6-4.8,3.8-5.7v-18.1c-2.2-.9-3.8-3.1-3.8-5.7s1.6-4.8,3.8-5.7v-18.1c-2.2-.9-3.8-3.1-3.8-5.7s1.6-4.8,3.8-5.7v-18.1c-2.2-.9-3.8-3.1-3.8-5.7s1.6-2.8,3.8-3.7ZM15.8,763.5c-3.4,0-6.1-2.7-6.1-6.1s2.7-6.1,6.1-6.1,6.1,2.7,6.1,6.1-2.7,6.1-6.1,6.1ZM15.8,734.1c-3.4,0-6.1-2.7-6.1-6.1s2.7-6.1,6.1-6.1,6.1,2.7,6.1,6.1-2.7,6.1-6.1,6.1ZM15.8,704.7c-3.4,0-6.1-2.7-6.1-6.1s2.7-6.1,6.1-6.1,6.1,2.7,6.1,6.1-2.7,6.1-6.1,6.1ZM15.8,675.3c-3.4,0-6.1-2.7-6.1-6.1s2.7-6.1,6.1-6.1,6.1,2.7,6.1,6.1-2.7,6.1-6.1,6.1ZM15.8,645.9c-3.4,0-6.1-2.7-6.1-6.1s2.7-6.1,6.1-6.1,6.1,2.7,6.1,6.1-2.7,6.1-6.1,6.1ZM15.8,616.5c-3.4,0-6.1-2.7-6.1-6.1s2.7-6.1,6.1-6.1,6.1,2.7,6.1,6.1-2.7,6.1-6.1,6.1ZM15.8,587.1c-3.4,0-6.1-2.7-6.1-6.1s2.7-6.1,6.1-6.1,6.1,2.7,6.1,6.1-2.7,6.1-6.1,6.1ZM15.8,557.7c-3.4,0-6.1-2.7-6.1-6.1s2.7-6.1,6.1-6.1,6.1,2.7,6.1,6.1-2.7,6.1-6.1,6.1ZM15.8,528.3c-3.4,0-6.1-2.7-6.1-6.1s2.7-6.1,6.1-6.1,6.1,2.7,6.1,6.1-2.7,6.1-6.1,6.1ZM15.8,498.9c-3.4,0-6.1-2.7-6.1-6.1s2.7-6.1,6.1-6.1,6.1,2.7,6.1,6.1-2.7,6.1-6.1,6.1ZM15.8,469.5c-3.4,0-6.1-2.7-6.1-6.1s2.7-6.1,6.1-6.1,6.1,2.7,6.1,6.1-2.7,6.1-6.1,6.1ZM15.8,440.2c-3.4,0-6.1-2.7-6.1-6.1s2.7-6.1,6.1-6.1,6.1,2.7,6.1,6.1-2.7,6.1-6.1,6.1ZM15.8,410.8c-3.4,0-6.1-2.7-6.1-6.1s2.7-6.1,6.1-6.1,6.1,2.7,6.1,6.1-2.7,6.1-6.1,6.1ZM15.8,381.4c-3.4,0-6.1-2.7-6.1-6.1s2.7-6.1,6.1-6.1,6.1,2.7,6.1,6.1-2.7,6.1-6.1,6.1ZM15.8,352c-3.4,0-6.1-2.7-6.1-6.1s2.7-6.1,6.1-6.1,6.1,2.7,6.1,6.1-2.7,6.1-6.1,6.1ZM15.8,322.6c-3.4,0-6.1-2.7-6.1-6.1s2.7-6.1,6.1-6.1,6.1,2.7,6.1,6.1-2.7,6.1-6.1,6.1ZM15.8,293.2c-3.4,0-6.1-2.7-6.1-6.1s2.7-6.1,6.1-6.1,6.1,2.7,6.1,6.1-2.7,6.1-6.1,6.1ZM15.8,263.8c-3.4,0-6.1-2.7-6.1-6.1s2.7-6.1,6.1-6.1,6.1,2.7,6.1,6.1c0,3.4-2.7,6.1-6.1,6.1ZM15.8,234.4c-3.4,0-6.1-2.7-6.1-6.1s2.7-6.1,6.1-6.1,6.1,2.7,6.1,6.1-2.7,6.1-6.1,6.1ZM15.8,205c-3.4,0-6.1-2.7-6.1-6.1s2.7-6.1,6.1-6.1,6.1,2.7,6.1,6.1-2.7,6.1-6.1,6.1ZM53.7,763.4c-6.7,0-12.1-5.4-12.1-12.1s5.4-12.1,12.1-12.1,12.1,5.4,12.1,12.1-5.4,12.1-12.1,12.1ZM53.7,216.3c-6.7,0-12.1-5.4-12.1-12.1s5.4-12.1,12.1-12.1,12.1,5.4,12.1,12.1c0,6.7-5.4,12.1-12.1,12.1ZM127.6,549.5c-3.1,0-5.7-2.6-5.7-5.7s2.6-5.7,5.7-5.7,5.7,2.6,5.7,5.7-2.6,5.7-5.7,5.7ZM157,549.5c-3.1,0-5.7-2.6-5.7-5.7s2.6-5.7,5.7-5.7,5.7,2.6,5.7,5.7-2.5,5.7-5.7,5.7ZM186.2,192.1c6.7,0,12.1,5.4,12.1,12.1s-5.4,12.1-12.1,12.1-12.1-5.4-12.1-12.1c0-6.7,5.5-12.1,12.1-12.1ZM192.5,543.8c0,3.1-2.6,5.7-5.7,5.7s-5.7-2.6-5.7-5.7,2.6-5.7,5.7-5.7,5.7,2.6,5.7,5.7ZM188.2,763.4c-6.7,0-12.1-5.4-12.1-12.1s5.4-12.1,12.1-12.1,12.1,5.4,12.1,12.1-5.4,12.1-12.1,12.1ZM227.8,763.5c-3.4,0-6.1-2.7-6.1-6.1s2.7-6.1,6.1-6.1,6.1,2.7,6.1,6.1-2.7,6.1-6.1,6.1ZM227.8,734.1c-3.4,0-6.1-2.7-6.1-6.1s2.7-6.1,6.1-6.1,6.1,2.7,6.1,6.1-2.7,6.1-6.1,6.1ZM227.8,704.7c-3.4,0-6.1-2.7-6.1-6.1s2.7-6.1,6.1-6.1,6.1,2.7,6.1,6.1-2.7,6.1-6.1,6.1ZM227.8,675.3c-3.4,0-6.1-2.7-6.1-6.1s2.7-6.1,6.1-6.1,6.1,2.7,6.1,6.1-2.7,6.1-6.1,6.1ZM227.8,645.9c-3.4,0-6.1-2.7-6.1-6.1s2.7-6.1,6.1-6.1,6.1,2.7,6.1,6.1-2.7,6.1-6.1,6.1ZM227.8,616.5c-3.4,0-6.1-2.7-6.1-6.1s2.7-6.1,6.1-6.1,6.1,2.7,6.1,6.1-2.7,6.1-6.1,6.1ZM227.8,587.1c-3.4,0-6.1-2.7-6.1-6.1s2.7-6.1,6.1-6.1,6.1,2.7,6.1,6.1-2.7,6.1-6.1,6.1ZM227.8,557.7c-3.4,0-6.1-2.7-6.1-6.1s2.7-6.1,6.1-6.1,6.1,2.7,6.1,6.1-2.7,6.1-6.1,6.1ZM227.8,528.3c-3.4,0-6.1-2.7-6.1-6.1s2.7-6.1,6.1-6.1,6.1,2.7,6.1,6.1-2.7,6.1-6.1,6.1ZM227.8,498.9c-3.4,0-6.1-2.7-6.1-6.1s2.7-6.1,6.1-6.1,6.1,2.7,6.1,6.1-2.7,6.1-6.1,6.1ZM227.8,469.5c-3.4,0-6.1-2.7-6.1-6.1s2.7-6.1,6.1-6.1,6.1,2.7,6.1,6.1-2.7,6.1-6.1,6.1ZM227.8,440.2c-3.4,0-6.1-2.7-6.1-6.1s2.7-6.1,6.1-6.1,6.1,2.7,6.1,6.1-2.7,6.1-6.1,6.1ZM227.8,410.8c-3.4,0-6.1-2.7-6.1-6.1s2.7-6.1,6.1-6.1,6.1,2.7,6.1,6.1-2.7,6.1-6.1,6.1ZM227.8,381.4c-3.4,0-6.1-2.7-6.1-6.1s2.7-6.1,6.1-6.1,6.1,2.7,6.1,6.1-2.7,6.1-6.1,6.1ZM227.8,352c-3.4,0-6.1-2.7-6.1-6.1s2.7-6.1,6.1-6.1,6.1,2.7,6.1,6.1-2.7,6.1-6.1,6.1ZM227.8,322.6c-3.4,0-6.1-2.7-6.1-6.1s2.7-6.1,6.1-6.1,6.1,2.7,6.1,6.1-2.7,6.1-6.1,6.1ZM227.8,293.2c-3.4,0-6.1-2.7-6.1-6.1s2.7-6.1,6.1-6.1,6.1,2.7,6.1,6.1-2.7,6.1-6.1,6.1ZM227.8,263.8c-3.4,0-6.1-2.7-6.1-6.1s2.7-6.1,6.1-6.1,6.1,2.7,6.1,6.1c0,3.4-2.7,6.1-6.1,6.1ZM227.8,234.4c-3.4,0-6.1-2.7-6.1-6.1s2.7-6.1,6.1-6.1,6.1,2.7,6.1,6.1-2.7,6.1-6.1,6.1ZM227.8,205c-3.4,0-6.1-2.7-6.1-6.1s2.7-6.1,6.1-6.1,6.1,2.7,6.1,6.1-2.7,6.1-6.1,6.1Z"/>
        <path class="cls-40" d="M53.7,183.7c-11.3,0-20.5,9.2-20.5,20.5s9.2,20.5,20.5,20.5,20.5-9.2,20.5-20.5c.1-11.3-9.1-20.5-20.5-20.5ZM53.7,216.3c-6.7,0-12.1-5.4-12.1-12.1s5.4-12.1,12.1-12.1,12.1,5.4,12.1,12.1c0,6.7-5.4,12.1-12.1,12.1Z"/>
        <path class="cls-40" d="M186.3,183.7c-11.3,0-20.5,9.2-20.5,20.5s9.2,20.5,20.5,20.5,20.5-9.2,20.5-20.5-9.2-20.5-20.5-20.5ZM186.3,216.3c-6.7,0-12.1-5.4-12.1-12.1s5.4-12.1,12.1-12.1,12.1,5.4,12.1,12.1c0,6.7-5.4,12.1-12.1,12.1Z"/>
        <path class="cls-40" d="M53.7,730.8c-11.3,0-20.5,9.2-20.5,20.5s9.2,20.5,20.5,20.5,20.5-9.2,20.5-20.5-9.1-20.5-20.5-20.5ZM53.7,763.5c-6.7,0-12.1-5.4-12.1-12.1s5.4-12.1,12.1-12.1,12.1,5.4,12.1,12.1-5.4,12.1-12.1,12.1Z"/>
        <path class="cls-40" d="M188.3,730.8c-11.3,0-20.5,9.2-20.5,20.5s9.2,20.5,20.5,20.5,20.5-9.2,20.5-20.5-9.2-20.5-20.5-20.5ZM188.3,763.5c-6.7,0-12.1-5.4-12.1-12.1s5.4-12.1,12.1-12.1,12.1,5.4,12.1,12.1-5.4,12.1-12.1,12.1Z"/>
        <circle class="cls-44" cx="55" cy="268.9" r="10.6"/>
        <circle class="cls-35" cx="55" cy="268.9" r="5.5"/>
        <path class="cls-45" d="M17.5,248.7H.3v3.4c2.3.9,3.9,3.1,3.9,5.7s-1.6,4.8-3.9,5.7v3.4h17.2c5,0,9-4,9-9h0c0-5.2-4.1-9.2-9-9.2ZM15.9,263.8c-3.4,0-6.1-2.7-6.1-6.1s2.7-6.1,6.1-6.1,6.1,2.7,6.1,6.1-2.8,6.1-6.1,6.1Z"/>
        <path class="cls-45" d="M17.5,395.7H.3v3.4c2.3.9,3.9,3.1,3.9,5.7s-1.6,4.8-3.9,5.7v3.4h17.2c5,0,9-4,9-9s-4.1-9.2-9-9.2ZM15.9,410.8c-3.4,0-6.1-2.7-6.1-6.1s2.7-6.1,6.1-6.1,6.1,2.7,6.1,6.1-2.8,6.1-6.1,6.1Z"/>
        <path class="cls-45" d="M17.5,542.7H.3v3.4c2.3.9,3.9,3.1,3.9,5.7s-1.6,4.8-3.9,5.7v3.4h17.2c5,0,9-4,9-9s-4.1-9.2-9-9.2ZM15.9,557.8c-3.4,0-6.1-2.7-6.1-6.1s2.7-6.1,6.1-6.1,6.1,2.7,6.1,6.1-2.8,6.1-6.1,6.1Z"/>
        <path class="cls-45" d="M17.5,572H.3v3.4c2.3.9,3.9,3.1,3.9,5.7s-1.6,4.8-3.9,5.7v3.4h17.2c5,0,9-4,9-9s-4.1-9.2-9-9.2ZM15.9,587.2c-3.4,0-6.1-2.7-6.1-6.1s2.7-6.1,6.1-6.1,6.1,2.7,6.1,6.1-2.8,6.1-6.1,6.1Z"/>
        <path class="cls-45" d="M17.5,601.4H.3v3.4c2.3.9,3.9,3.1,3.9,5.7s-1.6,4.8-3.9,5.7v3.4h17.2c5,0,9-4,9-9s-4.1-9.2-9-9.2ZM15.9,616.6c-3.4,0-6.1-2.7-6.1-6.1s2.7-6.1,6.1-6.1,6.1,2.7,6.1,6.1-2.8,6.1-6.1,6.1Z"/>
        <path class="cls-45" d="M17.5,630.8H.3v3.4c2.3.9,3.9,3.1,3.9,5.7s-1.6,4.8-3.9,5.7v3.4h17.2c5,0,9-4,9-9s-4.1-9.2-9-9.2ZM15.9,645.9c-3.4,0-6.1-2.7-6.1-6.1s2.7-6.1,6.1-6.1,6.1,2.7,6.1,6.1-2.8,6.1-6.1,6.1Z"/>
        <path class="cls-45" d="M17.5,689.6H.3v3.4c2.3.9,3.9,3.1,3.9,5.7s-1.6,4.8-3.9,5.7v3.4h17.2c5,0,9-4,9-9h0c0-5.1-4.1-9.2-9-9.2ZM15.9,704.7c-3.4,0-6.1-2.7-6.1-6.1s2.7-6.1,6.1-6.1,6.1,2.7,6.1,6.1-2.8,6.1-6.1,6.1Z"/>
        <path class="cls-45" d="M17.5,719H.3v3.4c2.3.9,3.9,3.1,3.9,5.7s-1.6,4.8-3.9,5.7v3.4h17.2c5,0,9-4,9-9h0c0-5.1-4.1-9.2-9-9.2ZM15.9,734.1c-3.4,0-6.1-2.7-6.1-6.1s2.7-6.1,6.1-6.1,6.1,2.7,6.1,6.1-2.8,6.1-6.1,6.1Z"/>
        <path class="cls-45" d="M17.5,748.4H.3v3.4c2.3.9,3.9,3.1,3.9,5.7s-1.6,4.8-3.9,5.7v3.4h17.2c5,0,9-4,9-9s-4.1-9.2-9-9.2ZM15.9,763.5c-3.4,0-6.1-2.7-6.1-6.1s2.7-6.1,6.1-6.1,6.1,2.7,6.1,6.1-2.8,6.1-6.1,6.1Z"/>
        <path class="cls-45" d="M239.5,198.9c0-2.6,1.6-4.8,3.9-5.7v-3.4h-17.2c-5,0-9,4-9,9s4,9,9,9h17.2v-3.4c-2.2-.7-3.9-2.9-3.9-5.5ZM227.8,205c-3.4,0-6.1-2.7-6.1-6.1s2.7-6.1,6.1-6.1,6.1,2.7,6.1,6.1-2.7,6.1-6.1,6.1Z"/>
        <path class="cls-45" d="M239.5,228.3c0-2.6,1.6-4.8,3.9-5.7v-3.4h-17.2c-5,0-9,4-9,9h0c0,5,4,9,9,9h17.2v-3.2c-2.2-.9-3.9-3.1-3.9-5.7ZM227.8,234.4c-3.4,0-6.1-2.7-6.1-6.1s2.7-6.1,6.1-6.1,6.1,2.7,6.1,6.1-2.7,6.1-6.1,6.1Z"/>
        <path class="cls-45" d="M239.5,257.7c0-2.6,1.6-4.8,3.9-5.7v-3.4h-17.2c-5,0-9,4-9,9h0c0,5,4,9,9,9h17.2v-3.4c-2.2-.7-3.9-2.9-3.9-5.5ZM227.8,263.8c-3.4,0-6.1-2.7-6.1-6.1s2.7-6.1,6.1-6.1,6.1,2.7,6.1,6.1-2.7,6.1-6.1,6.1Z"/>
        <path class="cls-45" d="M239.5,287.1c0-2.6,1.6-4.8,3.9-5.7v-3.4h-17.2c-5,0-9,4-9,9s4,9,9,9h17.2v-3.4c-2.2-.7-3.9-2.9-3.9-5.5ZM227.8,293.2c-3.4,0-6.1-2.7-6.1-6.1s2.7-6.1,6.1-6.1,6.1,2.7,6.1,6.1-2.7,6.1-6.1,6.1Z"/>
        <path class="cls-45" d="M239.5,316.5c0-2.6,1.6-4.8,3.9-5.7v-3.4h-17.2c-5,0-9,4-9,9s4,9,9,9h17.2v-3.4c-2.2-.7-3.9-2.9-3.9-5.5ZM227.8,322.6c-3.4,0-6.1-2.7-6.1-6.1s2.7-6.1,6.1-6.1,6.1,2.7,6.1,6.1-2.7,6.1-6.1,6.1Z"/>
        <path class="cls-45" d="M239.5,345.9c0-2.6,1.6-4.8,3.9-5.7v-3.4h-17.2c-5,0-9,4-9,9s4,9,9,9h17.2v-3.4c-2.2-.7-3.9-2.9-3.9-5.5ZM227.8,352c-3.4,0-6.1-2.7-6.1-6.1s2.7-6.1,6.1-6.1,6.1,2.7,6.1,6.1-2.7,6.1-6.1,6.1Z"/>
        <path class="cls-45" d="M239.5,404.7c0-2.6,1.6-4.8,3.9-5.7v-3.4h-17.2c-5,0-9,4-9,9s4,9,9,9h17.2v-3.4c-2.2-.7-3.9-2.9-3.9-5.5ZM227.8,410.8c-3.4,0-6.1-2.7-6.1-6.1s2.7-6.1,6.1-6.1,6.1,2.7,6.1,6.1-2.7,6.1-6.1,6.1Z"/>
        <path class="cls-45" d="M239.5,463.5c0-2.6,1.6-4.8,3.9-5.7v-3.4h-17.2c-5,0-9,4-9,9h0c0,5,4,9,9,9h17.2v-3.4c-2.2-.7-3.9-2.9-3.9-5.5ZM227.8,469.6c-3.4,0-6.1-2.7-6.1-6.1s2.7-6.1,6.1-6.1,6.1,2.7,6.1,6.1-2.7,6.1-6.1,6.1Z"/>
        <path class="cls-45" d="M239.5,492.9c0-2.6,1.6-4.8,3.9-5.7v-3.4h-17.2c-5,0-9,4-9,9h0c0,5,4,9,9,9h17.2v-3.4c-2.2-.7-3.9-2.9-3.9-5.5ZM227.8,499c-3.4,0-6.1-2.7-6.1-6.1s2.7-6.1,6.1-6.1,6.1,2.7,6.1,6.1-2.7,6.1-6.1,6.1Z"/>
        <path class="cls-45" d="M239.5,522.3c0-2.6,1.6-4.8,3.9-5.7v-3.4h-17.2c-5,0-9,4-9,9s4,9,9,9h17.2v-3.4c-2.2-.7-3.9-2.9-3.9-5.5ZM227.8,528.4c-3.4,0-6.1-2.7-6.1-6.1s2.7-6.1,6.1-6.1,6.1,2.7,6.1,6.1-2.7,6.1-6.1,6.1Z"/>
        <path class="cls-45" d="M239.5,551.7c0-2.6,1.6-4.8,3.9-5.7v-3.4h-17.2c-5,0-9,4-9,9s4,9,9,9h17.2v-3.4c-2.2-.7-3.9-2.9-3.9-5.5ZM227.8,557.8c-3.4,0-6.1-2.7-6.1-6.1s2.7-6.1,6.1-6.1,6.1,2.7,6.1,6.1-2.7,6.1-6.1,6.1Z"/>
        <path class="cls-45" d="M239.5,581.1c0-2.6,1.6-4.8,3.9-5.7v-3.4h-17.2c-5,0-9,4-9,9s4,9,9,9h17.2v-3.4c-2.2-.7-3.9-2.9-3.9-5.5ZM227.8,587.2c-3.4,0-6.1-2.7-6.1-6.1s2.7-6.1,6.1-6.1,6.1,2.7,6.1,6.1-2.7,6.1-6.1,6.1Z"/>
        <path class="cls-45" d="M239.5,610.5c0-2.6,1.6-4.8,3.9-5.7v-3.4h-17.2c-5,0-9,4-9,9s4,9,9,9h17.2v-3.4c-2.2-.7-3.9-3-3.9-5.5ZM227.8,616.6c-3.4,0-6.1-2.7-6.1-6.1s2.7-6.1,6.1-6.1,6.1,2.7,6.1,6.1-2.7,6.1-6.1,6.1Z"/>
        <path class="cls-45" d="M239.5,639.9c0-2.6,1.6-4.8,3.9-5.7v-3.4h-17.2c-5,0-9,4-9,9s4,9,9,9h17.2v-3.4c-2.2-.8-3.9-3-3.9-5.5ZM227.8,645.9c-3.4,0-6.1-2.7-6.1-6.1s2.7-6.1,6.1-6.1,6.1,2.7,6.1,6.1-2.7,6.1-6.1,6.1Z"/>
        <path class="cls-45" d="M239.5,698.7c0-2.6,1.6-4.8,3.9-5.7v-3.4h-17.2c-5,0-9,4-9,9h0c0,5,4,9,9,9h17.2v-3.4c-2.2-.8-3.9-3-3.9-5.5ZM227.8,704.7c-3.4,0-6.1-2.7-6.1-6.1s2.7-6.1,6.1-6.1,6.1,2.7,6.1,6.1-2.7,6.1-6.1,6.1Z"/>
        <path class="cls-45" d="M239.5,728c0-2.6,1.6-4.8,3.9-5.7v-3.3h-17.2c-5,0-9,4-9,9h0c0,5,4,9,9,9h17.2v-3.4c-2.2-.8-3.9-3-3.9-5.6ZM227.8,734.1c-3.4,0-6.1-2.7-6.1-6.1s2.7-6.1,6.1-6.1,6.1,2.7,6.1,6.1-2.7,6.1-6.1,6.1Z"/>
        <path class="cls-33" d="M163.1,170.8l4.4-4.4-2.3-2.3-6.6,6.6h-1.5v-4.7c0-1.2-1-2.2-2.2-2.2h-69.5c-1.2,0-2.2,1-2.2,2.2v4.7h-1.5l-6.6-6.6-2.3,2.3,4.4,4.4c-.6.2-1,.8-1,1.4v56.3c0,.9.7,1.6,1.6,1.6h84.6c.9,0,1.6-.7,1.6-1.6v-56.3c0-.6-.4-1.1-.9-1.4Z"/>
        <g>
          <path class="cls-43" d="M100.3,193.1c0-3.2-2.6-5.8-5.8-5.8s-5.8,2.6-5.8,5.8.5,2.7,1.3,3.7h-.2v7.7c0,1.2,1,2.1,2.1,2.1h5.1c1.2,0,2.1-1,2.1-2.1v-7.7h0c.8-1,1.3-2.3,1.3-3.7Z"/>
          <path class="cls-43" d="M155.5,193.1c0-3.2-2.6-5.8-5.8-5.8s-5.8,2.6-5.8,5.8.5,2.7,1.3,3.7h-.2v7.7c0,1.2,1,2.1,2.1,2.1h5.1c1.2,0,2.1-1,2.1-2.1v-7.7h-.2c.9-1,1.4-2.3,1.4-3.7Z"/>
        </g>
        <path class="cls-32" d="M200.9,323.2h-21c-1.2,0-2.2-1-2.2-2.2v-26.7c0-1.2,1-2.2,2.2-2.2h21c1.2,0,2.2,1,2.2,2.2v26.7c0,1.3-1,2.2-2.2,2.2Z"/>
        <g>
          <rect class="cls-30" x="132" y="259.4" width="21.7" height="14.4"/>
          <path class="cls-38" d="M149.3,273.9c-2-1.8-3.2-4.4-3.2-7.2s1.2-5.4,3.2-7.2h-12.8c2,1.8,3.2,4.4,3.2,7.2s-1.2,5.4-3.2,7.2h12.8Z"/>
        </g>
        <g>
          <rect class="cls-30" x="132.3" y="344.8" width="21.7" height="14.4"/>
          <path class="cls-38" d="M149.6,359.2c-2-1.8-3.2-4.4-3.2-7.2s1.2-5.4,3.2-7.2h-12.8c2,1.8,3.2,4.4,3.2,7.2s-1.2,5.4-3.2,7.2h12.8Z"/>
        </g>
        <g>
          <rect class="cls-30" x="132.3" y="363.9" width="21.7" height="14.4"/>
          <path class="cls-38" d="M149.6,378.4c-2-1.8-3.2-4.4-3.2-7.2s1.2-5.4,3.2-7.2h-12.8c2,1.8,3.2,4.4,3.2,7.2s-1.2,5.4-3.2,7.2h12.8Z"/>
        </g>
        <g>
          <rect class="cls-30" x="61.2" y="414.9" width="10.6" height="5.4"/>
          <rect class="cls-38" x="63.5" y="414.9" width="6" height="5.4"/>
        </g>
        <g>
          <rect class="cls-30" x="177.1" y="394.9" width="5.4" height="10.6"/>
          <rect class="cls-38" x="177.1" y="397.2" width="5.4" height="6"/>
        </g>
        <rect class="cls-32" x="179.5" y="244.9" width="18.9" height="29.3"/>
        <g>
          <rect class="cls-30" x="171.6" y="346.1" width="20.6" height="9.6"/>
          <rect class="cls-18" x="176.2" y="346.1" width="11.5" height="9.6"/>
        </g>
        <rect class="cls-38" x="120.2" y="514.2" width="4.2" height="6.9"/>
        <rect class="cls-38" x="126.9" y="514.2" width="4.2" height="6.9"/>
        <rect class="cls-38" x="65.3" y="425.6" width="6.9" height="4.2"/>
        <rect class="cls-38" x="88.2" y="358.4" width="6.9" height="4.2"/>
        <rect class="cls-38" x="65" y="469.1" width="6.9" height="4.2"/>
        <rect class="cls-32" x="195" y="473" width="4.2" height="6.9"/>
        <rect class="cls-32" x="187.9" y="413.1" width="6.9" height="4.2"/>
        <rect class="cls-32" x="85.9" y="257.4" width="6.9" height="4.2"/>
        <rect class="cls-32" x="81" y="269.7" width="6.9" height="4.2"/>
        <rect class="cls-32" x="191.5" y="362.2" width="6.9" height="4.2"/>
        <path class="cls-20" d="M186.3,677.9H57.5c-2.1,0-3.9-1.7-3.9-3.9v-108.1c0-2.1,1.7-3.9,3.9-3.9h128.8c2.1,0,3.9,1.7,3.9,3.9v108.1c0,2.2-1.7,3.9-3.9,3.9Z"/>
        <rect class="cls-16" x="101.5" y="724.2" width="10.5" height="5.9"/>
        <rect class="cls-16" x="130.3" y="724.3" width="10.5" height="5.9"/>
        <rect class="cls-16" x="101.5" y="761.9" width="10.5" height="5.9"/>
        <rect class="cls-16" x="130.3" y="762.1" width="10.5" height="5.9"/>
        <polyline class="cls-15" points="17.5 206.7 17.5 211.1 35.4 229.1 35.4 277.7 51 293.2 51 428 55.9 433 91.2 433"/>
        <polyline class="cls-15" points="22.9 233.5 31 241.6 31 279.5 46.7 295.2 46.7 430.5 52.6 436.4 91 436.4"/>
        <polyline class="cls-15" points="23.2 292 43 311.8 43 432.9 53.4 443.4 95 443.4"/>
        <polyline class="cls-15" points="23.2 321.4 39.8 337.9 39.8 434.9 51.9 447 95.1 447"/>
        <polyline class="cls-15" points="23.2 351.6 35.6 363.9 35.6 439.9 49.5 453.8 93.4 453.8"/>
        <polyline class="cls-15" points="22.9 379.7 31.6 388.4 31.6 442.6 46.4 457.4 96.1 457.4"/>
        <polyline class="cls-15" points="22.9 438.4 45.3 460.8 102.7 460.8"/>
        <line class="cls-15" x1="23.7" y1="464.3" x2="98.8" y2="464.3"/>
        <path class="cls-15" d="M23.2,490.6c.1-.6,17.3-17.3,17.3-17.3h12.5l4.9,4.9h45.7"/>
        <polyline class="cls-15" points="20.4 516.5 25.7 511.2 25.7 503.4 30.9 498.3 30.9 489.9 43.9 476.8 52.6 476.8 57.3 481.5 95.3 481.5"/>
        <path class="cls-15" d="M30.7,506.7l3.4-3.4s-.7-8.9,0-9.6,6-6,6-6l6.3-6.3h6.1l3.7,3.7h35.1"/>
        <polyline class="cls-15" points="29.1 562.6 29.1 515 38.7 505.4 93.4 505.4 95 503.8 95 494.2"/>
        <polyline class="cls-15" points="17.5 660.9 17.5 657.3 32.9 641.8 32.9 561.5 35.7 558.8 35.7 517 42 510.7 94.2 510.7 98.4 506.5 98.4 499.1"/>
        <path class="cls-15" d="M35.7,544.5"/>
        <path class="cls-15" d="M35.7,559.7"/>
        <polyline class="cls-15" points="23.6 721.5 30.4 714.7 30.4 650.1 37.5 644.2"/>
        <polyline class="cls-15" points="35.6 654.5 42.6 647.5 42.6 557.8 39.9 555.1 39.9 518.2 44.6 513.6 94.9 513.6 101.9 506.6 101.9 490"/>
        <polyline class="cls-15" points="108.9 496.7 108.9 505.4 95.9 518.5 91.5 518.5"/>
        <polyline class="cls-15" points="93.9 527.1 112.4 508.6 112.4 493.2"/>
        <polyline class="cls-15" points="115.9 498.6 115.9 510.2 102.2 523.9 102.2 543.9 95.9 550.2 65 550.2 55.5 540.7"/>
        <polyline class="cls-15" points="133.9 537.5 138.7 532.7 138.7 519.4 135.5 516.3 135.5 506.3 132.4 503.1 132.4 492.2"/>
        <polyline class="cls-15" points="137.3 496.3 137.3 504.1 139.3 506.1 139.3 512.5 152.7 525.9 164.9 525.9 179.1 540.2"/>
        <polyline class="cls-15" points="145.3 494.1 145.3 504.5 151.3 510.5 172.3 510.5 200.5 538.7 200.5 651.3 206.7 657.5 206.7 708.4 212.3 713.9 212.3 734.1 223.3 745.2 223.3 750.5"/>
        <polyline class="cls-15" points="150.7 494.5 150.7 501.8 154.7 505.8 173.6 505.8 205.2 537.4 205.2 648.9 211.4 655.1 211.4 707.7 215.6 711.9 215.6 720.6"/>
        <polyline class="cls-15" points="157.5 489.3 165.3 489.3 211.1 535.2 211.1 646.8 227.2 662.9"/>
        <polyline class="cls-15" points="157.5 484.9 166.9 484.9 192.1 510.2"/>
        <polyline class="cls-15" points="158.6 479.8 166.6 479.8 190.1 503.3 195.5 503.3 206.3 514.1 206.3 521.1"/>
        <polyline class="cls-15" points="158.2 475.4 167.3 475.4 190.4 498.4 200.9 498.4"/>
        <polyline class="cls-15" points="158.2 471.2 169.1 471.2 174.1 476.2"/>
        <polyline class="cls-15" points="158.2 466.2 175.4 466.2 202.8 493.6 206.3 493.6 215.9 503.2 215.9 515.6"/>
        <line class="cls-15" x1="158.6" y1="460.8" x2="167.7" y2="460.8"/>
        <polyline class="cls-15" points="156.4 455.4 171.8 455.4 179.2 462.8"/>
        <polyline class="cls-15" points="187.9 475.4 192.4 470.8 192.4 451.5 203.4 451.5"/>
        <polyline class="cls-15" points="158.6 447 209.5 447 218.5 456"/>
        <polyline class="cls-15" points="158.2 442.6 213.8 442.6 220.3 436.1"/>
        <polyline class="cls-15" points="157.5 438.4 198.8 438.4 207.1 430.1 207.1 389.8 219.6 377.3"/>
        <polyline class="cls-15" points="158.6 434.1 179.1 434.1 202.4 410.9 202.4 388"/>
        <polyline class="cls-15" points="159.7 429.4 167.2 429.4 171.8 424.7"/>
        <path class="cls-15" d="M147.8,424.1c-.2-.3,9.2-9.2,9.2-9.2h15.6v-33.5l2.8-2.8v-7.7"/>
        <path class="cls-15" d="M147,421.9v-6.5l10.3-10.3"/>
        <polyline class="cls-15" points="140.1 422.8 140.1 412 147.4 404.6"/>
        <line class="cls-15" x1="136.6" y1="419.8" x2="136.6" y2="402.2"/>
        <path class="cls-15" d="M133.1,421.5v-15.2l-4.2-4.2"/>
        <path class="cls-15" d="M122.6,421.1v-20.7"/>
        <path class="cls-15" d="M119.2,422.8v-11.1l-7.6-7.6"/>
        <polyline class="cls-15" points="115.6 422.3 115.6 416 101.8 402.1 101.8 395.7 105 392.5 108.9 392.5 111.5 389.8 111.5 379.3 106.1 373.9 100 373.9"/>
        <polyline class="cls-15" points="99.8 379.7 105.4 379.7 108.5 382.8 108.5 388 105.7 390.7 101.1 390.7 97.7 394.2 97.7 403.2 108.7 414.2 108.7 420.9"/>
        <polyline class="cls-15" points="91.3 384.2 91.3 400.9 105.2 414.9 105.2 424.4"/>
        <polyline class="cls-15" points="76.5 383.4 76.5 390.6 85.9 400 85.9 403.8 99 416.9 99 426"/>
        <path class="cls-15" d="M94.8,420v-5l-11.7-11.7v-1.1l-4.5-4.5h-6.4l-1.7-1.7h-6.9l-6.7-6.7v-14.4l1.6-1.6h8.8"/>
        <polyline class="cls-15" points="69.1 367.3 60.4 367.3 55.4 372.3 55.4 390.2 63.4 398.1 69.5 398.1 75.9 404.5 78.4 404.5 92.5 418.6"/>
        <line class="cls-15" x1="73.8" y1="340.6" x2="56" y2="358.4"/>
        <polyline class="cls-15" points="137.6 401.2 137.6 395.1 134.7 392.2 134.7 389.1 130.2 384.7 125.2 384.7 121.1 380.6 121.1 361.7 109.7 350.2 109.7 268 124 253.7 124 244.6 127.7 240.9"/>
        <path class="cls-15" d="M135.3,293.9v-9l-3.1-3.1h-9.8l-4.5-4.5v-4.3"/>
        <polyline class="cls-15" points="129.3 326.3 129.3 331.6 126.1 334.8 120.2 334.8 118.6 336.4"/>
        <polyline class="cls-15" points="62.9 239.4 62.9 248.8 79.1 265 83.6 265 88.5 269.9 88.5 278.1 83.9 282.6 83.9 296.1"/>
        <rect class="cls-17" x="45.6" y="232.2" width="18.9" height="9.6"/>
        <g>
          <rect class="cls-19" x="102.7" y="230.1" width="4.3" height="11.5"/>
          <rect class="cls-19" x="110.4" y="230.1" width="4.3" height="11.5"/>
          <rect class="cls-19" x="118.1" y="230.1" width="4.3" height="11.5"/>
          <rect class="cls-19" x="125.7" y="230.1" width="4.3" height="11.5"/>
          <rect class="cls-19" x="133.4" y="230.1" width="4.3" height="11.5"/>
        </g>
        <g>
          <path class="cls-36" d="M106.8,250.9v-5.5h2.5v5.8c0,2,.6,2.7,1.7,2.7s1.8-.7,1.8-2.7v-5.8h2.4v5.5c0,3.5-1.4,5.1-4.2,5.1s-4.2-1.6-4.2-5.1Z"/>
          <path class="cls-36" d="M116.7,254.5l1.3-1.6c.7.6,1.7,1,2.6,1s1.4-.4,1.4-.9-.6-.8-1.5-1.2l-1.3-.6c-1.1-.4-2.1-1.3-2.1-2.8s1.6-3.2,3.8-3.2,2.5.5,3.4,1.3l-1.3,1.6c-.7-.5-1.4-.8-2.1-.8s-1.3.3-1.3.8.7.8,1.6,1.2l1.3.5c1.3.5,2.1,1.4,2.1,2.8s-1.5,3.3-4,3.3c-1.5,0-2.8-.4-3.9-1.4Z"/>
          <path class="cls-36" d="M126.3,245.4h3.6c2.2,0,3.9.6,3.9,2.6s-.5,1.9-1.4,2.2h0c1.1.4,1.9,1.2,1.9,2.5,0,2.1-1.8,3.1-4.1,3.1h-3.9s0-10.4,0-10.4ZM129.8,249.5c1.1,0,1.5-.5,1.5-1.2s-.5-1.1-1.5-1.1h-1.1v2.2h1.1ZM130,253.9c1.2,0,1.8-.4,1.8-1.3s-.6-1.2-1.8-1.2h-1.2v2.5h1.2Z"/>
        </g>
        <path class="cls-48" d="M170.2,326.8h-45.7c-.5,0-1-.4-1-1v-33.5c0-.5.4-1,1-1h45.7c.5,0,1,.4,1,1v33.5c0,.6-.5,1-1,1Z"/>
        <g>
          <rect class="cls-19" x="128.6" y="287.2" width="1.4" height="4.1"/>
          <rect class="cls-19" x="134.6" y="287.2" width="1.4" height="4.1"/>
          <rect class="cls-19" x="140.6" y="287.2" width="1.4" height="4.1"/>
          <rect class="cls-19" x="146.6" y="287.2" width="1.4" height="4.1"/>
          <rect class="cls-19" x="152.6" y="287.2" width="1.4" height="4.1"/>
          <rect class="cls-19" x="158.6" y="287.2" width="1.4" height="4.1"/>
          <rect class="cls-19" x="164.6" y="287.2" width="1.4" height="4.1"/>
        </g>
        <g>
          <rect class="cls-19" x="128.6" y="326.8" width="1.4" height="4.1"/>
          <rect class="cls-19" x="134.6" y="326.8" width="1.4" height="4.1"/>
          <rect class="cls-19" x="140.6" y="326.8" width="1.4" height="4.1"/>
          <rect class="cls-19" x="146.6" y="326.8" width="1.4" height="4.1"/>
          <rect class="cls-19" x="152.6" y="326.8" width="1.4" height="4.1"/>
          <rect class="cls-19" x="158.6" y="326.8" width="1.4" height="4.1"/>
          <rect class="cls-19" x="164.6" y="326.8" width="1.4" height="4.1"/>
        </g>
        <g>
          <rect class="cls-9" x="61.4" y="295.1" width="39.3" height="48.9"/>
          <path class="cls-42" d="M81,337.9h0c-7.6,0-13.7-6.1-13.7-13.7v-9.1c0-7.6,6.1-13.7,13.7-13.7h0c7.6,0,13.7,6.1,13.7,13.7v9.1c0,7.5-6.1,13.7-13.7,13.7Z"/>
          <path class="cls-42" d="M61.4,305.4h0v-10.3h10.3c-.1,5.7-4.6,10.3-10.3,10.3Z"/>
          <path class="cls-42" d="M71.6,344.1h-10.2v-10.3h0c5.7,0,10.2,4.6,10.2,10.3h0Z"/>
          <path class="cls-42" d="M100.7,305.4h0c-5.7,0-10.3-4.6-10.3-10.3h10.3v10.3Z"/>
          <path class="cls-42" d="M100.7,344.1h-10.3c0-5.7,4.6-10.3,10.3-10.3h0s0,10.3,0,10.3Z"/>
        </g>
        <g>
          <rect class="cls-48" x="64.9" y="364.6" width="34.6" height="22.9"/>
          <g>
            <rect class="cls-19" x="60.7" y="365.8" width="4.2" height="3.4"/>
            <rect class="cls-19" x="60.7" y="371.5" width="4.2" height="3.4"/>
            <rect class="cls-19" x="60.7" y="377.3" width="4.2" height="3.4"/>
            <rect class="cls-19" x="60.7" y="383" width="4.2" height="3.4"/>
          </g>
          <g>
            <rect class="cls-19" x="99.5" y="365.8" width="4.2" height="3.4"/>
            <rect class="cls-19" x="99.5" y="371.5" width="4.2" height="3.4"/>
            <rect class="cls-19" x="99.5" y="377.3" width="4.2" height="3.4"/>
            <rect class="cls-19" x="99.5" y="383" width="4.2" height="3.4"/>
          </g>
        </g>
        <rect class="cls-32" x="135.5" y="396.2" width="4.2" height="6.9"/>
        <g>
          <path class="cls-24" d="M160.4,499.9h-79c-.7,0-1.3-.6-1.3-1.3v-79.1c0-.7.6-1.3,1.3-1.3h79.1c.7,0,1.3.6,1.3,1.3v79.1c-.1.7-.7,1.3-1.4,1.3Z"/>
          <g>
            <rect class="cls-19" x="86.2" y="416.3" width="3.1" height="1.9"/>
            <rect class="cls-19" x="89.7" y="416.3" width="3.1" height="1.9"/>
            <rect class="cls-19" x="93.2" y="416.3" width="3.1" height="1.9"/>
            <rect class="cls-19" x="96.7" y="416.3" width="3.1" height="1.9"/>
            <rect class="cls-19" x="100.2" y="416.3" width="3.1" height="1.9"/>
            <rect class="cls-19" x="103.6" y="416.3" width="3.1" height="1.9"/>
            <rect class="cls-19" x="107.1" y="416.3" width="3.1" height="1.9"/>
            <rect class="cls-19" x="114.1" y="416.3" width="3.1" height="1.9"/>
            <rect class="cls-19" x="121.1" y="416.3" width="3.1" height="1.9"/>
            <rect class="cls-19" x="128" y="416.3" width="3.1" height="1.9"/>
            <rect class="cls-19" x="138.5" y="416.3" width="3.1" height="1.9"/>
            <rect class="cls-19" x="142" y="416.3" width="3.1" height="1.9"/>
            <rect class="cls-19" x="149" y="416.3" width="3.1" height="1.9"/>
            <rect class="cls-19" x="110.6" y="416.3" width="3.1" height="1.9"/>
            <rect class="cls-19" x="117.6" y="416.3" width="3.1" height="1.9"/>
            <rect class="cls-19" x="124.6" y="416.3" width="3.1" height="1.9"/>
            <rect class="cls-19" x="131.5" y="416.3" width="3.1" height="1.9"/>
            <rect class="cls-19" x="135" y="416.3" width="3.1" height="1.9"/>
            <rect class="cls-19" x="145.5" y="416.3" width="3.1" height="1.9"/>
            <rect class="cls-19" x="152.4" y="416.3" width="3.1" height="1.9"/>
          </g>
          <g>
            <rect class="cls-19" x="86.4" y="499.9" width="3.1" height="1.9"/>
            <rect class="cls-19" x="89.9" y="499.9" width="3.1" height="1.9"/>
            <rect class="cls-19" x="93.4" y="499.9" width="3.1" height="1.9"/>
            <rect class="cls-19" x="96.9" y="499.9" width="3.1" height="1.9"/>
            <rect class="cls-19" x="100.4" y="499.9" width="3.1" height="1.9"/>
            <rect class="cls-19" x="103.8" y="499.9" width="3.1" height="1.9"/>
            <rect class="cls-19" x="107.3" y="499.9" width="3.1" height="1.9"/>
            <rect class="cls-19" x="114.3" y="499.9" width="3.1" height="1.9"/>
            <rect class="cls-19" x="121.3" y="499.9" width="3.1" height="1.9"/>
            <rect class="cls-19" x="128.2" y="499.9" width="3.1" height="1.9"/>
            <rect class="cls-19" x="138.7" y="499.9" width="3.1" height="1.9"/>
            <rect class="cls-19" x="142.2" y="499.9" width="3.1" height="1.9"/>
            <rect class="cls-19" x="149.1" y="499.9" width="3.1" height="1.9"/>
            <rect class="cls-19" x="110.8" y="499.9" width="3.1" height="1.9"/>
            <rect class="cls-19" x="117.8" y="499.9" width="3.1" height="1.9"/>
            <rect class="cls-19" x="124.7" y="499.9" width="3.1" height="1.9"/>
            <rect class="cls-19" x="131.7" y="499.9" width="3.1" height="1.9"/>
            <rect class="cls-19" x="135.2" y="499.9" width="3.1" height="1.9"/>
            <rect class="cls-19" x="145.7" y="499.9" width="3.1" height="1.9"/>
            <rect class="cls-19" x="152.6" y="499.9" width="3.1" height="1.9"/>
          </g>
          <g>
            <rect class="cls-19" x="78.1" y="490.7" width="1.9" height="3.1"/>
            <rect class="cls-19" x="78.1" y="487.2" width="1.9" height="3.1"/>
            <rect class="cls-19" x="78.2" y="483.7" width="1.9" height="3.1"/>
            <rect class="cls-19" x="78.2" y="480.2" width="1.9" height="3.1"/>
            <rect class="cls-19" x="78.1" y="476.7" width="1.9" height="3.1"/>
            <rect class="cls-19" x="78.1" y="473.2" width="1.9" height="3.1"/>
            <rect class="cls-19" x="78.1" y="469.8" width="1.9" height="3.1"/>
            <rect class="cls-19" x="78.1" y="462.8" width="1.9" height="3.1"/>
            <rect class="cls-19" x="78.2" y="455.8" width="1.9" height="3.1"/>
            <rect class="cls-19" x="78.1" y="448.9" width="1.9" height="3.1"/>
            <rect class="cls-19" x="78.1" y="438.4" width="1.9" height="3.1"/>
            <rect class="cls-19" x="78.2" y="434.9" width="1.9" height="3.1"/>
            <rect class="cls-19" x="78.1" y="427.9" width="1.9" height="3.1"/>
            <rect class="cls-19" x="78.1" y="466.3" width="1.9" height="3.1"/>
            <rect class="cls-19" x="78.2" y="459.3" width="1.9" height="3.1"/>
            <rect class="cls-19" x="78.1" y="452.3" width="1.9" height="3.1"/>
            <rect class="cls-19" x="78.1" y="445.4" width="1.9" height="3.1"/>
            <rect class="cls-19" x="78.1" y="441.9" width="1.9" height="3.1"/>
            <rect class="cls-19" x="78.2" y="431.4" width="1.9" height="3.1"/>
            <rect class="cls-19" x="78.1" y="424.5" width="1.9" height="3.1"/>
          </g>
          <g>
            <rect class="cls-19" x="161.7" y="490.7" width="1.9" height="3.1"/>
            <rect class="cls-19" x="161.7" y="487.2" width="1.9" height="3.1"/>
            <rect class="cls-19" x="161.8" y="483.7" width="1.9" height="3.1"/>
            <rect class="cls-19" x="161.8" y="480.2" width="1.9" height="3.1"/>
            <rect class="cls-19" x="161.7" y="476.7" width="1.9" height="3.1"/>
            <rect class="cls-19" x="161.7" y="473.2" width="1.9" height="3.1"/>
            <rect class="cls-19" x="161.7" y="469.8" width="1.9" height="3.1"/>
            <rect class="cls-19" x="161.7" y="462.8" width="1.9" height="3.1"/>
            <rect class="cls-19" x="161.7" y="455.8" width="1.9" height="3.1"/>
            <rect class="cls-19" x="161.7" y="448.8" width="1.9" height="3.1"/>
            <rect class="cls-19" x="161.7" y="438.4" width="1.9" height="3.1"/>
            <rect class="cls-19" x="161.8" y="434.9" width="1.9" height="3.1"/>
            <rect class="cls-19" x="161.7" y="427.9" width="1.9" height="3.1"/>
            <rect class="cls-19" x="161.7" y="466.3" width="1.9" height="3.1"/>
            <rect class="cls-19" x="161.8" y="459.3" width="1.9" height="3.1"/>
            <rect class="cls-19" x="161.7" y="452.3" width="1.9" height="3.1"/>
            <rect class="cls-19" x="161.7" y="445.4" width="1.9" height="3.1"/>
            <rect class="cls-19" x="161.7" y="441.9" width="1.9" height="3.1"/>
            <rect class="cls-19" x="161.7" y="431.4" width="1.9" height="3.1"/>
            <rect class="cls-19" x="161.7" y="424.4" width="1.9" height="3.1"/>
          </g>
          <circle class="cls-22" cx="90.2" cy="429.4" r="2.8"/>
        </g>
        <rect class="cls-48" x="187.1" y="384.1" width="18.2" height="8.6"/>
        <rect class="cls-19" x="189.1" y="392.7" width="2.9" height="8.7"/>
        <rect class="cls-19" x="200.9" y="392.7" width="2.9" height="8.7"/>
        <rect class="cls-19" x="194.8" y="375.4" width="2.9" height="8.7"/>
        <rect class="cls-38" x="169.1" y="423.4" width="6.9" height="4.2"/>
        <rect class="cls-32" x="189.5" y="453.2" width="4.2" height="6.9"/>
        <rect class="cls-38" x="172.3" y="472.4" width="4.2" height="6.9" transform="translate(-285.4 262.7) rotate(-45)"/>
        <g>
          <path class="cls-45" d="M157,534.6c-5.1,0-9.2,4.1-9.2,9.2s4.1,9.2,9.2,9.2,9.2-4.1,9.2-9.2-4.1-9.2-9.2-9.2ZM157,549.5c-3.1,0-5.7-2.6-5.7-5.7s2.6-5.7,5.7-5.7,5.7,2.6,5.7,5.7-2.5,5.7-5.7,5.7Z"/>
          <path class="cls-45" d="M118.7,535v17.7h17.7v-17.7h-17.7ZM127.6,549.5c-3.1,0-5.7-2.6-5.7-5.7s2.6-5.7,5.7-5.7,5.7,2.6,5.7,5.7-2.6,5.7-5.7,5.7Z"/>
          <path class="cls-45" d="M186.8,534.6c-5.1,0-9.2,4.1-9.2,9.2s4.1,9.2,9.2,9.2,9.2-4.1,9.2-9.2-4.1-9.2-9.2-9.2ZM186.8,549.5c-3.1,0-5.7-2.6-5.7-5.7s2.6-5.7,5.7-5.7,5.7,2.6,5.7,5.7-2.5,5.7-5.7,5.7Z"/>
        </g>
        <path class="cls-45" d="M17.5,513.3H.3v3.4c2.3.9,3.9,3.1,3.9,5.7s-1.6,4.8-3.9,5.7v3.4h17.2c5,0,9-4,9-9s-4.1-9.2-9-9.2ZM15.9,528.4c-3.4,0-6.1-2.7-6.1-6.1s2.7-6.1,6.1-6.1,6.1,2.7,6.1,6.1-2.8,6.1-6.1,6.1Z"/>
        <path class="cls-45" d="M17.5,483.9H.3v3.4c2.3.9,3.9,3.1,3.9,5.7s-1.6,4.8-3.9,5.7v3.4h17.2c5,0,9-4,9-9h0c0-5.2-4.1-9.2-9-9.2ZM15.9,499c-3.4,0-6.1-2.7-6.1-6.1s2.7-6.1,6.1-6.1,6.1,2.7,6.1,6.1-2.8,6.1-6.1,6.1Z"/>
        <path class="cls-45" d="M17.5,454.5H.3v3.4c2.3.9,3.9,3.1,3.9,5.7s-1.6,4.8-3.9,5.7v3.4h17.2c5,0,9-4,9-9h0c0-5.2-4.1-9.2-9-9.2ZM15.9,469.6c-3.4,0-6.1-2.7-6.1-6.1s2.7-6.1,6.1-6.1,6.1,2.7,6.1,6.1-2.8,6.1-6.1,6.1Z"/>
        <path class="cls-45" d="M17.5,425.1H.3v3.4c2.3.9,3.9,3.1,3.9,5.7s-1.6,4.8-3.9,5.7v3.4h17.2c5,0,9-4,9-9s-4.1-9.2-9-9.2ZM15.9,440.2c-3.4,0-6.1-2.7-6.1-6.1s2.7-6.1,6.1-6.1,6.1,2.7,6.1,6.1-2.8,6.1-6.1,6.1Z"/>
        <path class="cls-45" d="M17.5,366.3H.3v3.4c2.3.9,3.9,3.1,3.9,5.7s-1.6,4.8-3.9,5.7v3.4h17.2c5,0,9-4,9-9s-4.1-9.2-9-9.2ZM15.9,381.4c-3.4,0-6.1-2.7-6.1-6.1s2.7-6.1,6.1-6.1,6.1,2.7,6.1,6.1-2.8,6.1-6.1,6.1Z"/>
        <path class="cls-45" d="M17.5,336.9H.3v3.4c2.3.9,3.9,3.1,3.9,5.7s-1.6,4.8-3.9,5.7v3.4h17.2c5,0,9-4,9-9s-4.1-9.2-9-9.2ZM15.9,352c-3.4,0-6.1-2.7-6.1-6.1s2.7-6.1,6.1-6.1,6.1,2.7,6.1,6.1-2.8,6.1-6.1,6.1Z"/>
        <path class="cls-45" d="M17.5,307.5H.3v3.4c2.3.9,3.9,3.1,3.9,5.7s-1.6,4.8-3.9,5.7v3.4h17.2c5,0,9-4,9-9s-4.1-9.2-9-9.2ZM15.9,322.6c-3.4,0-6.1-2.7-6.1-6.1s2.7-6.1,6.1-6.1,6.1,2.7,6.1,6.1-2.8,6.1-6.1,6.1Z"/>
        <path class="cls-45" d="M17.5,278.1H.3v3.4c2.3.9,3.9,3.1,3.9,5.7s-1.6,4.8-3.9,5.7v3.4h17.2c5,0,9-4,9-9s-4.1-9.2-9-9.2ZM15.9,293.2c-3.4,0-6.1-2.7-6.1-6.1s2.7-6.1,6.1-6.1,6.1,2.7,6.1,6.1-2.8,6.1-6.1,6.1Z"/>
        <path class="cls-45" d="M17.5,219.3H.3v3.4c2.3.9,3.9,3.1,3.9,5.7s-1.6,4.8-3.9,5.7v3.4h17.2c5,0,9-4,9-9h0c0-5.2-4.1-9.2-9-9.2ZM15.9,234.4c-3.4,0-6.1-2.7-6.1-6.1s2.7-6.1,6.1-6.1,6.1,2.7,6.1,6.1-2.8,6.1-6.1,6.1Z"/>
        <path class="cls-45" d="M17.5,189.9H.3v3.4c2.3.9,3.9,3.1,3.9,5.7s-1.6,4.8-3.9,5.7v3.4h17.2c5,0,9-4,9-9s-4.1-9.2-9-9.2ZM15.9,205c-3.4,0-6.1-2.7-6.1-6.1s2.7-6.1,6.1-6.1,6.1,2.7,6.1,6.1-2.8,6.1-6.1,6.1Z"/>
        <path class="cls-45" d="M17.5,660.2H.3v3.4c2.3.9,3.9,3.1,3.9,5.7s-1.6,4.8-3.9,5.7v3.4h17.2c5,0,9-4,9-9s-4.1-9.2-9-9.2ZM15.9,675.3c-3.4,0-6.1-2.7-6.1-6.1s2.7-6.1,6.1-6.1,6.1,2.7,6.1,6.1-2.8,6.1-6.1,6.1Z"/>
        <path class="cls-45" d="M239.5,757.4c0-2.6,1.6-4.8,3.9-5.7v-3.4h-17.2c-5,0-9,4-9,9s4,9,9,9h17.2v-3.4c-2.2-.7-3.9-2.9-3.9-5.5ZM227.8,763.5c-3.4,0-6.1-2.7-6.1-6.1s2.7-6.1,6.1-6.1,6.1,2.7,6.1,6.1-2.7,6.1-6.1,6.1Z"/>
        <path class="cls-45" d="M239.5,669.3c0-2.6,1.6-4.8,3.9-5.7v-3.4h-17.2c-5,0-9,4-9,9s4,9,9,9h17.2v-3.4c-2.2-.8-3.9-3-3.9-5.5ZM227.8,675.3c-3.4,0-6.1-2.7-6.1-6.1s2.7-6.1,6.1-6.1,6.1,2.7,6.1,6.1-2.7,6.1-6.1,6.1Z"/>
        <path class="cls-45" d="M239.5,434.1c0-2.6,1.6-4.8,3.9-5.7v-3.4h-17.2c-5,0-9,4-9,9s4,9,9,9h17.2v-3.4c-2.2-.7-3.9-2.9-3.9-5.5ZM227.8,440.2c-3.4,0-6.1-2.7-6.1-6.1s2.7-6.1,6.1-6.1,6.1,2.7,6.1,6.1-2.7,6.1-6.1,6.1Z"/>
        <rect class="cls-16" x="91.5" y="526.6" width="3.7" height="6.7"/>
        <g>
          <path class="cls-39" d="M82.2,547.5h-31.8c-1.2,0-2.2-1-2.2-2.2v-23.7c0-1.2,1-2.2,2.2-2.2h31.8c1.2,0,2.2,1,2.2,2.2v23.7c0,1.2-1,2.2-2.2,2.2Z"/>
          <path class="cls-46" d="M79.9,545h-27.3c-.8,0-1.4-.6-1.4-1.4v-20.4c0-.8.6-1.4,1.4-1.4h27.3c.8,0,1.4.6,1.4,1.4v20.4c0,.8-.6,1.4-1.4,1.4Z"/>
        </g>
        <rect class="cls-16" x="91.4" y="546.6" width="3.7" height="6.7"/>
        <rect class="cls-32" x="100.1" y="532.3" width="4.2" height="6.9"/>
        <g>
          <path class="cls-36" d="M42.3,352.4v-3.6c0-2.2.6-3.9,2.6-3.9s1.9.5,2.2,1.4h0c.3-1.1,1.1-1.9,2.4-1.9,2.1,0,3.1,1.8,3.1,4.1v3.9h-10.4ZM46.4,348.9c0-1.1-.5-1.5-1.2-1.5s-1.1.5-1.1,1.5v1.1h2.2v-1.1h0ZM50.8,348.7c0-1.2-.4-1.8-1.3-1.8s-1.2.6-1.2,1.8v1.2h2.5v-1.2Z"/>
          <path class="cls-36" d="M47.4,343.2c-3.4,0-5.4-1.9-5.4-4.8s2-4.8,5.4-4.8,5.4,1.9,5.4,4.8-2,4.8-5.4,4.8ZM47.4,336.2c-2,0-3.2.8-3.2,2.2s1.2,2.2,3.2,2.2,3.3-.9,3.3-2.2-1.3-2.2-3.3-2.2Z"/>
          <path class="cls-36" d="M47.4,332.2c-3.4,0-5.4-1.9-5.4-4.8s2-4.8,5.4-4.8,5.4,1.9,5.4,4.8-2,4.8-5.4,4.8ZM47.4,325.2c-2,0-3.2.8-3.2,2.2s1.2,2.2,3.2,2.2,3.3-.9,3.3-2.2-1.3-2.2-3.3-2.2Z"/>
          <path class="cls-36" d="M44.3,319.2v2.8h-2.1v-8.1h2.1v2.8h8.3v2.5h-8.3Z"/>
          <path class="cls-36" d="M51.3,313.3l-1.6-1.3c.6-.7,1-1.7,1-2.6s-.4-1.4-.9-1.4-.8.6-1.2,1.5l-.6,1.3c-.4,1.1-1.3,2.1-2.8,2.1s-3.2-1.6-3.2-3.8.5-2.5,1.3-3.4l1.7,1.3c-.5.7-.8,1.4-.8,2.1s.3,1.3.8,1.3.8-.7,1.2-1.6l.5-1.3c.5-1.3,1.4-2.1,2.8-2.1s3.3,1.5,3.3,4c.1,1.4-.4,2.8-1.5,3.9Z"/>
          <path class="cls-36" d="M42.3,303.7v-6.6h2.1v4.1h2v-3.5h2.1v3.5h2.2v-4.2h2.1v6.8h-10.5Z"/>
          <path class="cls-36" d="M42.3,294.9v-2.5h8.3v-4h2.1v6.5h-10.4Z"/>
        </g>
        <g>
          <path class="cls-36" d="M141.4,509.6h3c3.2,0,5.3,1.6,5.3,5.2s-2.1,5.2-5.1,5.2h-3.1v-10.4h0ZM144.3,518.1c1.7,0,2.9-.8,2.9-3.2s-1.2-3.2-2.9-3.2h-.4v6.4h.4Z"/>
          <path class="cls-36" d="M151.6,509.6h6.6v2.1h-4.1v2h3.5v2.1h-3.5v2.2h4.3v2.1h-6.8v-10.5Z"/>
          <path class="cls-36" d="M160.4,509.6h3.6c2.2,0,3.9.6,3.9,2.6s-.5,1.9-1.4,2.2h0c1.1.4,1.9,1.2,1.9,2.5,0,2.1-1.8,3.1-4.1,3.1h-3.9v-10.4ZM164,513.8c1.1,0,1.5-.5,1.5-1.2s-.5-1.1-1.5-1.1h-1.1v2.2h1.1ZM164.2,518.1c1.2,0,1.8-.4,1.8-1.3s-.6-1.2-1.8-1.2h-1.2v2.5h1.2Z"/>
          <path class="cls-36" d="M170.1,515.2v-5.5h2.5v5.8c0,2,.6,2.7,1.7,2.7s1.8-.7,1.8-2.7v-5.8h2.4v5.5c0,3.5-1.4,5.1-4.2,5.1s-4.2-1.6-4.2-5.1Z"/>
          <path class="cls-36" d="M180.3,514.9c0-3.5,2.3-5.5,5.1-5.5s2.6.6,3.3,1.4l-1.3,1.5c-.5-.5-1.1-.7-1.9-.7-1.5,0-2.7,1.2-2.7,3.2s.9,3.3,2.9,3.3.8,0,1-.3v-1.7h-1.7v-2h3.9v4.9c-.7.7-2,1.3-3.5,1.3-2.8-.1-5.1-1.9-5.1-5.4Z"/>
        </g>
        <rect class="cls-10" x="114.2" y="531" width="86.4" height="25.6"/>
        <g>
          <path class="cls-36" d="M40.1,245.4h2.5v8.3h4v2.1h-6.5v-10.4Z"/>
          <path class="cls-36" d="M48.4,245.4h6.6v2.1h-4.1v2h3.5v2.1h-3.5v2.2h4.3v2.1h-6.8v-10.5Z"/>
          <path class="cls-36" d="M57.2,245.4h3c3.2,0,5.3,1.6,5.3,5.2s-2.1,5.2-5.1,5.2h-3.1v-10.4h-.1ZM60.1,253.8c1.7,0,2.9-.8,2.9-3.2s-1.2-3.2-2.9-3.2h-.4v6.4h.4Z"/>
        </g>
        <g>
          <rect class="cls-30" x="143.7" y="394.9" width="5.4" height="10.6"/>
          <rect class="cls-38" x="143.7" y="397.2" width="5.4" height="6"/>
        </g>
        <g>
          <rect class="cls-30" x="154.3" y="394.9" width="5.4" height="10.6"/>
          <rect class="cls-38" x="154.3" y="397.2" width="5.4" height="6"/>
        </g>
        <rect class="cls-32" x="127.1" y="396.2" width="4.2" height="6.9"/>
        <rect class="cls-32" x="67.3" y="402.6" width="6.9" height="4.2"/>
        <rect class="cls-38" x="120.5" y="396.2" width="4.2" height="6.9"/>
        <rect class="cls-38" x="110.4" y="396.2" width="4.2" height="6.9"/>
        <path class="cls-45" d="M239.5,375.3c0-2.6,1.6-4.8,3.9-5.7v-3.4h-17.2c-5,0-9,4-9,9s4,9,9,9h17.2v-3.2c-2.2-.9-3.9-3.1-3.9-5.7ZM227.8,381.4c-3.4,0-6.1-2.7-6.1-6.1s2.7-6.1,6.1-6.1,6.1,2.7,6.1,6.1-2.7,6.1-6.1,6.1Z"/>
        <g>
          <rect class="cls-30" x="172.5" y="364.2" width="5.6" height="11.9"/>
          <rect class="cls-18" x="172.5" y="366.9" width="5.6" height="6.6"/>
        </g>
      </g>
      <sodipodi:namedview id="namedview124" bordercolor="#666666" borderopacity="1" gridtolerance="10" guidetolerance="10" inkscape:current-layer="Ebene_1" inkscape:cx="255.3013" inkscape:cy="457.52284" inkscape:pageopacity="0" inkscape:pageshadow="2" inkscape:window-height="1017" inkscape:window-maximized="1" inkscape:window-width="1920" inkscape:window-x="-8" inkscape:window-y="-8" inkscape:zoom="0.86103565" objecttolerance="10" pagecolor="#ffffff" showgrid="false"/>
      <circle id="circle281" class="cls-23" cx="232.1" cy="257.8" r="11.6"/>
      <circle id="circle281-2" class="cls-37" cx="232.1" cy="375.3" r="11.6"/>
      <circle id="circle281-3" class="cls-34" cx="232.1" cy="434.1" r="11.6"/>
      <circle id="circle281-4" class="cls-21" cx="232.1" cy="463.4" r="11.6"/>
      <rect id="rect11" class="cls-23" x="232.1" y="253.3" width="451.5" height="9.1"/>
      <g id="layer1">
        <rect id="rect815" class="cls-3" x="249.6" y=".1" width="306.2" height="178.9"/>
        <rect id="rect821" class="cls-36" x="521.5" y="26.9" width="31.8" height="125.3"/>
        <path id="rect825" class="cls-47" d="M529.2,121h16.4c3.3,0,5.9,2.6,5.9,5.9h0v18.7c0,3.3-2.6,5.9-5.9,5.9h-16.4c-3.3,0-5.9-2.6-5.9-5.9h0v-18.7c0-3.2,2.6-5.9,5.9-5.9h0Z"/>
        <path id="rect872" class="cls-47" d="M529.2,58.7h16.4c3.3,0,5.9,2.6,5.9,5.9h0v18.7c0,3.3-2.6,5.9-5.9,5.9h-16.4c-3.3,0-5.9-2.6-5.9-5.9h0v-18.7c0-3.2,2.6-5.9,5.9-5.9h0Z"/>
        <path id="rect874" class="cls-47" d="M528.4,89.9h17.9c2.8,0,5.1,2.3,5.1,5.1v20.2c0,2.8-2.3,5.1-5.1,5.1h-17.9c-2.8,0-5.1-2.3-5.1-5.1v-20.2c0-2.8,2.3-5.1,5.1-5.1Z"/>
        <rect id="rect947" class="cls-28" x="538.6" y="134.8" width="59.7" height="3.2"/>
        <rect id="rect949" class="cls-28" x="538.6" y="103.5" width="59.7" height="3.2"/>
        <rect id="rect951" class="cls-28" x="538.6" y="72.5" width="59.7" height="3.2"/>
        <rect id="rect87" class="cls-3" x="415.3" y="26.1" width="32.1" height="127.6"/>
        <path id="path31-1" class="cls-36" d="M267.5,128.1c0-1.1,0-1.2-.2-1.4-.1,0-.2-.3-.4-.4-.2,0-.3,0-2.6,0h-2.4v-4.8h3c3.3,0,3.6,0,4.5.4,1.1.4,1.8,1.3,2,2.5.1.7.1,1.4.1,2.2s0,2-.1,2.3v.6h-4.1l.2-1.3h0ZM274.2,105.5c0-20.2,0-25.2.1-24.3h0c0,0,.1,0,.1,0,0,0,.1,0,.1,0s0,0,.1-.2v-.4.4c0,.2,0,.4,0,.3s.1,0,.6,0,.5,0,.6-.2q0,0,0,0c0,.2,0,.3.1.3,0,0,.1,8,.1,23.9v23.9h-1.8v-23.8ZM255.8,123.7v-2.4h3.8v4.8h-3.8v-2.4ZM263,118.9c-1,0-2-.5-2.9-.9-.2,0-.4-.2-.6-.3-.1,0-.2-.2-.4-.3-.4-.3-.8-.6-1.2-.9h-.1c-.4-.4-.7-.8-1-1.2-.4-.5-.7-1.1-.9-1.8-.4-.9-.5-1.9-.4-2.9,0-.6.1-1.1.2-1.7.1-.4.2-.8.3-1,.1,0,.1-.2.1-.4.1-.2.2-.4.3-.6,1-1.4,2.2-2.5,3.7-3.3,1.9-.9,4.1-1.1,6-.3.6.2,1.3.5,1.8.9.6.4,1.2.9,1.7,1.4,1,.9,1.7,2.1,2,3.4.2,1,.3,2,.2,3-.2,1.2-.7,2.3-1.4,3.2-.3.4-.6.7-.9,1-.1,0-.3.2-.4.3-1.1,1-2.5,1.7-4,2.1-.6.3-1.4.3-2.1.3h0ZM265,114.3c.9-.2,1.7-.7,2.3-1.4.7-.8.9-1.8.6-2.8-.5-1.3-1.6-2.2-3-2.5-.9-.2-1.8-.2-2.7,0-1,.3-1.9.8-2.5,1.7-.2.3-.4.6-.4.9-.2.7-.1,1.5.2,2.2.4.7,1,1.2,1.7,1.5,1.3.6,2.6.7,3.8.4h0ZM255.8,100.9v-4.7h2.1c2,0,2.2,0,2.5,0,.9-.4,1.4-1.4,1.1-2.4-.1-.5-.5-.9-.9-1.1l-.4-.2h-4.4v-4.8h2.5c1,0,2,0,3,.2.9.2,1.7.7,2.5,1.2.1,0,.2.2.4.3.4.3.7.7,1,1.1s.6.9.7,1.4c0,0,.1.4.2.7.2.6.2,1.1.2,1.7.1.6,0,1.2-.2,1.8-.1.7-.4,1.3-.8,1.9-.5.7-1.1,1.3-1.8,1.8-.9.6-1.9,1-3,1.2-1.6.2-3.2.1-4.7,0h0ZM267.6,94.3v-3.9h4v7.8h-4v-3.9ZM252.7,87.6s-.1,0-.2,0q-.2,0-.3-.3v-29.1h1.8v29.3c0,0-.1,0-.6,0-.5.2-.7.1-.7.1h0ZM262.3,81v-5h4v10h-4v-5ZM255.8,72.1v-2.4h3.8v4.8h-3.8v-2.4ZM261.7,72.1v-2.4h10v4.8h-10v-2.4ZM255.8,62.6v-5h3.8v10h-3.8v-5ZM262,66.8v-4.6h2.3c3.2,0,3.1,0,3.1-2.3v-1.5h4v.6c.2,1.4.2,2.9.1,4.3-.1,1-.5,2-1.3,2.6-.7.6-1.6.9-2.5,1-.7,0-5.7,0-5.7,0h0ZM253.9,54.8c-.4,0-.8-.3-1.1-.6-.9-.9-1.1-2.4-.3-3.5.2-.4.6-.7,1-.8.3-.2.7-.2,1.1-.2s.7,0,1.1.2c.8.4,1.4,1.2,1.5,2.2.1.8-.2,1.6-.8,2.1-.8.6-1.7.8-2.5.6h0ZM255.5,54.3c.6-.3,1-.9,1.2-1.6.2-.7,0-1.5-.5-2-.2-.2-.4-.4-.6-.5-.3-.2-.6-.2-1-.2s-.7,0-1,.2c-.3,0-.5.3-.7.6-.2.2-.3.5-.4.7-.3,1.1.2,2.3,1.3,2.8.5.3,1.1.3,1.7,0ZM253,52.6c0-.4,0-.7.1-1,.3-.4.8-.5,1.2-.3.1,0,.2.2.2.4v.2c.1,0,.3-.2.3-.2.2-.2.4-.3.6-.4.1,0,.3-.2.4-.3.1,0,.2,0,.2.2v.3l-.6.4c-.6.4-.7.5-.7,1v.3h1.4v.4h-3v-1ZM254.3,52.5c0-.5,0-.6-.1-.7-.3-.4-.7-.2-.8.4v.9h.9v-.6Z"/>
        <circle id="path84" class="cls-25" cx="281.9" cy="153.1" r="17.9"/>
        <circle id="circle86" class="cls-25" cx="281.8" cy="25.8" r="17.9"/>
        <circle id="path88" class="cls-29" cx="281.9" cy="153.1" r="15.9"/>
        <circle id="circle90" class="cls-29" cx="281.8" cy="25.8" r="15.9"/>
        <path id="rect64" class="cls-47" d="M529.2,27.8h16.4c3.3,0,5.9,2.6,5.9,5.9v18.7c0,3.3-2.6,5.9-5.9,5.9h-16.4c-3.3,0-5.9-2.6-5.9-5.9h0v-18.7c0-3.3,2.6-5.9,5.9-5.9Z"/>
        <rect id="rect66" class="cls-28" x="538.6" y="41.6" width="59.7" height="3.2"/>
        <path id="rect178" class="cls-25" d="M456.4,105.8h19.9c2.2,0,4,3,4,6.8h0c0,3.7-1.8,6.8-4,6.8h-19.9c-2.2,0-4-3-4-6.8h0c0-3.8,1.8-6.8,4-6.8Z"/>
        <path id="rect180" class="cls-25" d="M456.4,82.9h19.9c2.2,0,4,3,4,6.8h0c0,3.7-1.8,6.8-4,6.8h-19.9c-2.2,0-4-3-4-6.8h0c0-3.7,1.8-6.8,4-6.8Z"/>
        <path id="rect182" class="cls-25" d="M456.4,60.1h19.9c2.2,0,4,3,4,6.8h0c0,3.7-1.8,6.8-4,6.8h-19.9c-2.2,0-4-3-4-6.8h0c0-3.8,1.8-6.8,4-6.8Z"/>
        <path id="rect184" class="cls-25" d="M329.1,60.1h19.9c2.2,0,4,3,4,6.8h0c0,3.7-1.8,6.8-4,6.8h-19.9c-2.2,0-4-3-4-6.8h0c.1-3.8,1.8-6.8,4-6.8Z"/>
        <path id="rect186" class="cls-25" d="M329.1,82.9h19.9c2.2,0,4,3,4,6.8h0c0,3.7-1.8,6.8-4,6.8h-19.9c-2.2,0-4-3-4-6.8h0c.1-3.7,1.8-6.8,4-6.8Z"/>
        <path id="rect188" class="cls-25" d="M329.1,105.8h19.9c2.2,0,4,3,4,6.8h0c0,3.7-1.8,6.8-4,6.8h-19.9c-2.2,0-4-3-4-6.8h0c.1-3.8,1.8-6.8,4-6.8Z"/>
        <rect id="rect68" class="cls-29" x="349" y="35.8" width="107.4" height="107.4"/>
        <rect id="rect70" class="cls-4" x="350.6" y="37.8" width="103.8" height="103.8"/>
        <rect id="rect72" class="cls-29" x="350.8" y="38.2" width="103" height="103"/>
        <circle id="path74" class="cls-26" cx="402.1" cy="89.9" r="45.3"/>
        <rect id="rect82" class="cls-29" x="360.8" y="68.5" width="28.3" height="2.4"/>
        <rect id="rect84" class="cls-29" x="387.5" y="45.4" width="2.4" height="25.5"/>
        <rect id="rect86" class="cls-29" x="387.4" y="63.2" width="24.5" height="2.4"/>
        <rect id="rect88" class="cls-29" x="411.9" y="63.2" width="2.4" height="13.5"/>
        <rect id="rect90" class="cls-29" x="411.9" y="74.2" width="19.8" height="2.4"/>
        <rect id="rect92" class="cls-29" x="430.1" y="54" width="2.4" height="22.6"/>
        <rect id="rect94" class="cls-29" x="430.1" y="73" width="15.4" height="3.6"/>
        <rect id="rect96" class="cls-29" x="358.5" y="108" width="30.6" height="2.4"/>
        <rect id="rect98" class="cls-29" x="387.5" y="107.9" width="2.4" height="26.2"/>
        <rect id="rect100" class="cls-29" x="387.4" y="113.4" width="24.5" height="2.4"/>
        <rect id="rect102" class="cls-29" x="411.9" y="103.1" width="2.4" height="12.7"/>
        <rect id="rect104" class="cls-29" x="411.9" y="102.3" width="19.8" height="2.4"/>
        <rect id="rect106" class="cls-29" x="430.1" y="103.1" width="2.4" height="23.1"/>
        <rect id="rect108" class="cls-29" x="430.3" y="102.1" width="15.4" height="3.6"/>
        <rect id="rect110" class="cls-29" x="368" y="70.2" width="2.4" height="20.2"/>
        <rect id="rect112" class="cls-29" x="368" y="90.4" width="2.4" height="18.9"/>
        <path id="path114" class="cls-29" d="M360,107.1c.1.2.2.4.3.6.1,0,.2.3.2.5s.1.3.1.4c.1,0,.1.2.2.3.1,0,.1.2.2.3.1,0,.1.3.2.4s.1.2.2.3c0,0,.1.2.1.3s.1.2.2.4c0,0,.1.3.2.4s.1.2.1.2l-1,.6h0c0,0-.1-.2-.1-.2-.1,0-.1-.3-.2-.4s-.1-.2-.2-.4c0,0-.1-.2-.1-.3s-.1-.2-.2-.3c-.1,0-.1-.3-.2-.4s-.1-.2-.2-.3c-.1,0-.1-.2-.2-.3-.1,0-.1-.3-.1-.4,0-.2-.1-.3-.2-.4-.1-.2-.2-.4-.3-.6l1-.7h0Z"/>
        <path id="path116" class="cls-29" d="M386.2,132.4c.2.1.3.3.5.4.2.1.3.2.5.2s.3.1.5.1.3,0,.5.1.4.1.5.2h.1s.1,0,.1.1c.3.3-.6.8-1,.6s-.3-.1-.4-.2c-.1-.1-.3-.1-.4-.2-.1-.1-.3-.2-.4-.2-.1-.1-.2-.1-.3-.2-.3-.4.8-.6.9-.7q.1,0,.2.1c.1.1.2.1.3.2.1,0,.2.1.3.2.1.1.2.1.3.2.1.1.2.1.4.1.1.1.3.1.4.2h.3s.1.1,0,.1l-1,.5h0s.2.1.1.1h-.1c-.1,0-.2,0-.3-.1h0c-.1,0-.2-.1-.3-.1s-.3-.1-.4-.1-.2-.1-.3-.2c-.1-.1-.2-.1-.3-.2-.1-.1-.2-.1-.3-.2h-.1c.7-.5.8-.7.9-.6.1.1.2.1.3.2.1.1.2.2.4.2.1.1.3.1.4.2.1.1.3.2.4.2.4,0,.1,0-.8.6h-.2c-.2-.1-.4-.2-.5-.2-.1-.1-.3-.1-.4-.1-.2,0-.3-.1-.5-.1-.2-.1-.4-.1-.5-.2-.2-.1-.4-.3-.5-.4l.7-.8h0Z"/>
        <path id="path118" class="cls-29" d="M433.4,124c-.2,0-.3.3-.5.4-.1,0-.2.2-.3.2-.4.3-.8.5-1.2.7-.3.2.6-.3.9-.5-.3.2-.7.4-1,.6h-.1s-.1,0,0,0c.3-.2.6-.4.9-.5h-.1c-.4.4-.8.6-1.2.8-.3.2.6-.3.9-.5h-.1c-.4.3-.8.5-1.3.8,2.4-1.4-.1,0-.1,0h-.2c-.1,0-.2.2-.3.2l.9-.7h0c.1,0,.2,0,.3,0,1.1-.6-2.9,1.7.3-.2-1.7,1-1,.6-.6.3.6-.4,2.1-1.2.2,0-.1,0,.1,0,.1,0h.1c.4-.4,2.4-1.4.3-.2.3-.2.7-.4,1-.6s-.6.4-.9.5h.1c.1,0,.1,0,.2,0,.1,0,.2-.2.3-.2.2-.2-.1,0,.1,0s.2-.2.3-.3l1-.4h0Z"/>
        <path id="path120" class="cls-29" d="M430.6,125.6c-1.6,1-.8.4-.4.2.4-.3.8-.5,1.2-.8q.1,0,.1,0c.1,0,.1,0,.2,0h.1c-1,.6-1.2.7-.9.5.3-.2.7-.4,1-.6s-.6.4-.9.5h0c.4-.3.8-.5,1.2-.6.4-.2.8-.4-.8.5-.1,0,.1,0,.1,0,0,0,.1,0,.1,0h-.5c-.1,0-.2,0-.3.2.3-.2.6-.4.9-.5h0c-.3.2-.7.4-1,.6s.6-.4.9-.5c0,0-.1,0-.1,0-.1,0-.1.2-.2.3q-.1,0-.1.2c0-.5-1.3.8-.8.4.1,0,.2-.2.3-.2.1,0,.2,0,.3-.2,2-1.1.7-.4.1,0h0c.3-.2.7-.4,1-.6s-1.2.7-.9.5l.2-.2c.1,0,.2-.2.2-.3q.1,0,.2,0l1-.4h0c-.1,0-.1,0-.2,0-.1,0-.2.2-.2.3l-.2.2c-.3.3-.1,0-1,.6-.3.2.6-.4.9-.5h0c-.3.2-.7.4-1,.6s.6-.4.9-.5c-.1,0-.2,0-.3.2-.1,0-.2,0-.3.2h-.1c-.3.4-.9,1-1.1.6,0,0,0-.2.1-.3.1,0,.1-.2.2-.3.5-.4-1.3.8,1.1-.7.3-.2-.6.4-.9.5h0l1-.6c.1,0,.2,0,.3,0h.4c.1,0,.3,0,.2.2,0,0-.1,0-.1,0-.4.3-.8.5-1.2.7-.4.2-.9.5.8-.5h0c-.3.2-.7.4-1,.6s.6-.4.9-.5c-.5.1-.9.3-1.4.5-.2.2-.7.5.8-.4.1,0-.3.2-.2.2-.1,0-.2,0-.3.2-.4.3-.8.5-1.2.8l.9-.8h0Z"/>
        <path id="path122" class="cls-29" d="M448.5,95.4c0,.2,0,.5.1.7,0,.2,0,.3.1.5v.9c0,0-.1.3-.1.4,0,.2-.1.3-.2.4s-.1.3-.1.4c-.1,0-.1.3-.2.4s-.2.3-.2.4c-.1.2-.1.3-.2.5,0,0-.1.2-.1.3s-.1.2-.2.3c0,0-.1.2-.2.3-.1,0-.1.2-.2.3-.1,0-.1.2-.1.3-.1,0-.1.2-.1.4s-.1.2-.1.4-.1.2-.1.4v.5c0,.2-.1.4-.2.5,0,0-.1.3-.1.4s0,.3-.1.4-.1.3-.2.4c0,0-.1.3-.2.4s-.1.2-.1.4v.4c0,0-.1.2-.1.4-.1,0-.1.2-.1.4,0,.4-1.3,1-1.1.5.1,0,.1-.2.2-.3.1,0,.1-.2.2-.3,0,0,.1-.2.1-.4s0-.3.1-.4c0,0,.1-.3.1-.4s.1-.3.1-.4c0-.2.1-.3.1-.5v-.8c0,0,0-.3.1-.4v-.2c1-.5.9-.8,1-.4v.5c0,0,0,.3-.1.4s-.1.2-.1.4,0,.3-.1.4c0,0-.1.3-.1.4-.1,0-.1.3-.2.4s-.2.2-.2.3c-.1,0-.1.2-.2.3-.1,0-.1.2-.2.3-.1,0-.1.2-.2.3v.2l-1,.5h0v-.3c.1,0,.1-.2.2-.4.1,0,.1-.2.2-.3.1,0,.1-.2.2-.3.1,0,.2-.2.2-.3.1,0,.1-.2.2-.4.1,0,.1-.3.1-.4s.1-.3.1-.4.1-.3.1-.4c.1,0,.1-.2.1-.4v-.4c-.1-.4,0,0,1-.6h0v.2c0,0-.1.2-.1.4v.9c0,.2-.1.3-.1.5s-.1.3-.1.4,0,.3-.1.4-.1.2-.1.4,0,.3-.1.4c0,0,0,.2-.1.3-.1,0-.2.2-.2.3-.3.3-.1,0-1.1.5h0s.1,0,.1,0h0c0-.2.1-.3.1-.4s.1-.2.1-.4.1-.3.1-.4,0-.3.1-.4.1-.2.2-.4c.1,0,.1-.3.2-.4,0,0,.1-.2.1-.3v-.4c.1-.2.1-.3.2-.5v-.5c0,0,0-.3.1-.4,0,0,.1-.2.1-.4s.1-.3.1-.4,0,0,.1-.2h.1v-.2c.1,0,.1-.2.2-.3,0,0,.1-.2.2-.3.1,0,.1-.2.2-.3.1,0,.1-.2.1-.3.1-.2.1-.3.2-.5,0-.2.1-.3.2-.4s.1-.2.2-.4c.1,0,.1-.3.1-.4.1,0,.1-.3.2-.4,0,0,.1-.3.1-.4v-1.4c0-.2-.1-.5-.1-.7l.8-.4h0Z"/>
        <path id="path124" class="cls-29" d="M444.7,71.4c.1.2.2.4.3.6.1.2.1.3.2.5,0,0,.1.3.1.4s.1.2.1.4c.1,0,.1.2.2.4.1,0,.1.2.2.4.1,0,.1.3.1.5s.1.3.1.4.1.3.1.4.1.2.1.4c.1,0,.1.2.2.3.1,0,.1.3.1.4s.1.2.1.3c.1,0,.1.2.1.4s0,0,.1.2l-1,.6h0c-.1,0-.1-.2-.1-.2,0,0,0-.2-.1-.3-.1,0-.1-.2-.1-.4s-.1-.3-.1-.4-.1-.2-.1-.3c-.1,0-.1-.2-.1-.4s-.1-.3-.1-.4,0-.3-.1-.4c0-.2-.1-.3-.1-.4s-.1-.3-.2-.4-.1-.2-.2-.4c-.1,0-.1-.2-.1-.4s-.1-.3-.1-.4c-.1-.2-.1-.3-.2-.5s-.2-.4-.3-.6l.9-.7h0Z"/>
        <path id="path130" class="cls-29" d="M430.8,52.5c.2,0,.3.3.5.5.1,0,.2.2.3.4.1,0,.1.2.1.4.1,0,.1.3.2.4.1,0,.2.3.3.4.1,0,.2.2.3.4.3.3.1,0-1,.6h0c0,0-.1,0-.1-.2-.1,0-.2-.3-.3-.4-.1,0-.2-.2-.3-.3-.1,0-.3-.2-.4-.2-.7-.2-.6,0,.5-.7.1,0,.2,0,.3.2.1,0,.3.2.4.2.1,0,.3.2.4.2.1,0,.2.2.3.3.1.4,0,0-1,.6,0,0-.2-.2-.3-.2-.1,0-.2-.2-.3-.3-.1,0-.2-.2-.3-.3-.1,0-.1-.2-.2-.2l1-.6h0c0,0,.1.2.2.2.1,0,.2.2.3.3.1,0,.2.2.3.3.1,0,.1,0,.2,0h.1c-.9.6-1.2.3-.9.6,0,0-.2-.2-.2-.2-.1,0-.2-.2-.4-.2-.1,0-.3,0-.4-.2-.1,0-.2,0-.3-.2,1-.7.6-.7,1.3-.5.1,0,.3.2.4.3s.2.2.3.3c.1,0,.2.3.3.4.3.5.1.3-.8.8h0c-.1,0-.2-.3-.3-.4-.1,0-.2-.3-.3-.4-.1,0-.1-.3-.2-.4-.1,0-.1-.2-.1-.3-.1,0-.2-.3-.3-.4-.1-.2-.3-.3-.5-.4l.9-.9h0Z"/>
        <path id="path132" class="cls-29" d="M358.8,71.4c0-.2.1-.4.2-.6,0,0,.1-.3.2-.4,0,0,.1-.3.1-.4,0-.2.1-.3.1-.5s0-.3.1-.4c0,0,.1-.2.2-.3.5-.4,1-.6,1.6-.8.2,0,.4,0,.5,0s.3.2.3.4.1.3,0,.4c0,0-.1.2-.1.3s-.1.2-.1.3c-.1,0-.1.2-.1.3s-.1.3-.1.4c-.1,0-.1.2-.2.3,0,0-.1.2-.2.3-.1,0-.1.2-.2.3-.1,0-.1.2-.2.3l-1,.5h0c.1,0,.1-.2.2-.3.1,0,.1-.2.2-.3,0,0,.1-.2.2-.3.1,0,.1-.2.2-.3.1,0,.1-.2.1-.3s0-.2.1-.3c.1,0,.1-.2.1-.3s.1-.2.1-.3c.1,0,.1-.2,0-.3-.1,0-.2-.2-.3-.3-.1,0-.3,0-.5,0q-.1,0-.2,0s-.2,0-.1,0c1.5-.9,1-.6.7-.4h-.1c0,0-.1.2-.1.2-.1,0-.1.3-.1.4,0,.2-.1.3-.1.4v.4c0,0-.1.3-.2.4,0,.2-.1.4-.2.6l-1.1.4h0Z"/>
        <path id="path136" class="cls-29" d="M384.4,46.8h1.1c.3,0,.6,0,.8,0,.2,0,.3,0,.5,0s.3,0,.4-.2c-.3.2-1.2.7-.9.5.3-.2.7-.4,1-.6h.1c-.3.2-1.2.7-.9.5.9-.5.6-.5,1.1-.6.4-.3-1.3.7-.8.5.3-.3.7-.5,1.1-.6.1,0,.3,0,.4,0h.4c.1,0,.3,0,.4,0,.6,0,.4,0-.7.6-.1,0-.3,0-.4,0h-.1c.3-.2.6-.3.9-.5h-.1c-.1.2-.2.2-.3.3-.4.2-.7.5-1.1.7h-.2c-.1,0-.1,0,0-.2,1-.6.6-.5,1.1-.6.1,0,.2,0,.3,0s.2,0,.2,0h.1c.1,0,.2,0,.4-.2h.1c.2,0,0,0,.1,0h.1c-.9.5-1.2.7-.9.5h.1c0,0,1-.5,1-.5h-.1c-.4.4-.8.6-1.3.8-.1,0-.2,0-.4,0s-.2,0-.4,0c-.1,0-.2,0-.3,0-.4.2,0,0,.9-.5h-.1q0,0,.1,0h.1c-1.7,1-1.1.7-.8.5.1,0,.2,0,.3-.2.1,0,.1,0,.2,0,.3-.2.7-.4,1.1-.6.1,0,.3,0,.4,0-.8.6-.6.6-1.1.7-.1,0-.3,0-.4,0h-.4c-.1,0-.3,0-.4,0,0,0-.2,0-.1,0,1.9-1.1.3-.2-.2,0s2.2-1.2.9-.5c-.3.2-.7.4-1,.6-.8.4,3.2-1.9-.1,0-.1,0-.2,0-.4.2-.2,0-.3,0-.5,0-.3,0-.5,0-.8,0h-1.1l.6-.7h0Z"/>
        <g id="text113">
          <g class="cls-27">
            <path class="cls-36" d="M336.8,177.5v.2h-.1c-.1.1-.2.1-.3.2h-1.1c-.2,0-.3-.1-.3-.1q-.1-.1-.2-.2l-4.9-6.7v6.7h0c0,.1-.1.2-.1.2-.1,0-.2,0-.3.1h-.8c-.1,0-.2,0-.3-.1-.1,0-.1-.1-.1-.1h0v-13h0c0-.1.1-.2.1-.2.1,0,.2,0,.3-.1h.8c.1,0,.2,0,.3.1.1,0,.1.1.1.1h0v6.1l4.7-6c0-.1.1-.1.1-.2.1,0,.1-.1.2-.1s.2,0,.3-.1h.8c.1,0,.2,0,.3.1.1,0,.1.1.1.1h0c0,.2,0,.3-.1.4s-.1.2-.3.4l-4.4,5.3,4.8,6.4c.1.2.2.3.2.4.2,0,.2,0,.2,0Z"/>
          </g>
          <g class="cls-27">
            <path class="cls-36" d="M343.3,172.6v4.9h0c0,.1-.1.2-.1.2-.1,0-.2,0-.3.1h-.8c-.1,0-.2,0-.3-.1-.1,0-.1-.1-.1-.1h0v-5l-3.8-7.6c-.1-.2-.1-.3-.1-.4s0-.2.1-.2.1-.1.3-.1h1c.1,0,.2,0,.3.1.1,0,.1.1.2.1s.1.1.1.2l1.9,3.9c.2.4.3.8.5,1.2s.3.8.5,1.2h0c.2-.4.3-.8.5-1.2s.3-.8.5-1.2l1.9-3.9q0-.1.1-.2s.1-.1.2-.1.2,0,.3-.1h1c.1,0,.2.1.3.1s.1.1.1.2-.1.2-.1.4l-4.2,7.6Z"/>
          </g>
          <g class="cls-27">
            <path class="cls-36" d="M352.2,172.6c0,.3,0,.5-.1.6s-.2.2-.3.2h-4.3c-.1,0-.2-.1-.3-.2-.1-.1-.1-.3-.1-.6s0-.4.1-.5.2-.2.3-.2h4.5c.1,0,.1.1.1.1,0,0,.1.1.1.2,0,0,0,.3,0,.4Z"/>
            <path class="cls-36" d="M362.9,171.1c0,1-.1,2-.2,2.8-.2.8-.4,1.6-.8,2.2-.4.6-.9,1.1-1.5,1.4s-1.4.5-2.2.5-1.6-.2-2.1-.5c-.6-.3-1-.7-1.4-1.3s-.6-1.3-.8-2.2c-.1-.9-.2-1.8-.2-2.9s.1-2,.2-2.8c.2-.9.4-1.6.8-2.2.4-.6.9-1.1,1.5-1.4.6-.3,1.4-.5,2.2-.5s1.6.2,2.1.5c.6.3,1,.7,1.4,1.3s.6,1.3.8,2.2.2,1.8.2,2.9ZM361.1,171.2c0-.7,0-1.3-.1-1.8,0-.5-.1-1-.2-1.4s-.2-.8-.4-1.1c-.1-.3-.3-.5-.5-.7s-.4-.3-.7-.4-.6-.1-.9-.1c-.6,0-1.1.1-1.4.4s-.7.7-.9,1.1c-.2.5-.4,1.1-.4,1.7s-.1,1.3-.1,2.1.1,1.9.2,2.6c.1.7.3,1.3.5,1.7s.5.8.9,1c.3.2.8.3,1.3.3s.7-.1,1-.2.5-.3.8-.5c.2-.2.4-.5.5-.8s.2-.7.3-1.1c.1-.4.1-.8.2-1.3,0-.5,0-1,0-1.5Z"/>
            <path class="cls-36" d="M373.7,171.1c0,1-.1,2-.2,2.8-.2.8-.4,1.6-.8,2.2-.4.6-.9,1.1-1.5,1.4s-1.4.5-2.2.5-1.6-.2-2.1-.5c-.6-.3-1-.7-1.4-1.3s-.6-1.3-.8-2.2c-.1-.9-.2-1.8-.2-2.9s.1-2,.2-2.8c.2-.9.4-1.6.8-2.2.4-.6.9-1.1,1.5-1.4.6-.3,1.4-.5,2.2-.5s1.6.2,2.1.5c.6.3,1,.7,1.4,1.3s.6,1.3.8,2.2.2,1.8.2,2.9ZM371.9,171.2c0-.7,0-1.3-.1-1.8,0-.5-.1-1-.2-1.4s-.2-.8-.4-1.1c-.1-.3-.3-.5-.5-.7s-.4-.3-.7-.4-.6-.1-.9-.1c-.6,0-1.1.1-1.4.4-.4.3-.7.7-.9,1.1-.2.5-.4,1.1-.4,1.7s-.1,1.3-.1,2.1.1,1.9.2,2.6c.1.7.3,1.3.5,1.7s.5.8.9,1c.3.2.8.3,1.3.3s.7-.1,1-.2.5-.3.8-.5c.2-.2.4-.5.5-.8s.2-.7.3-1.1c.1-.4.1-.8.2-1.3-.2-.5,0-1,0-1.5Z"/>
            <path class="cls-36" d="M384.1,170.6c0,.6,0,1.2-.1,1.8s-.2,1.2-.4,1.7c-.2.5-.4,1.1-.7,1.5s-.6.9-1.1,1.3c-.4.4-.9.6-1.5.8s-1.3.3-2,.3-.6,0-.9-.1c-.3,0-.5-.1-.8-.1s-.4-.1-.6-.2c-.2-.1-.3-.1-.3-.2q-.1-.1-.2-.3v-1h.1c0-.1.1-.1.1-.1.1,0,.2,0,.3.1.1.1.3.1.5.2.2.1.5.1.7.2s.6.1,1,.1c.7,0,1.2-.1,1.7-.4.5-.3.9-.6,1.2-1,.3-.4.5-.9.7-1.5s.2-1.2.2-1.8c-.4.2-.8.4-1.3.6s-1.1.2-1.8.2-1.4-.1-1.9-.3-.9-.5-1.2-.8-.5-.8-.7-1.3-.2-1-.2-1.6.1-1.2.3-1.7c.2-.5.4-1,.8-1.4s.8-.7,1.4-1c.6-.2,1.2-.4,2-.4s1.1.1,1.5.2c.4.1.8.3,1.1.6.3.3.6.6.8,1,.2.4.4.8.5,1.3s.2,1,.3,1.5.5,1.2.5,1.8ZM382.3,170.4c0-.9-.1-1.6-.2-2.2s-.3-1.1-.5-1.5-.5-.6-.8-.8-.7-.2-1.2-.2-.8.1-1.2.2c-.3.2-.6.4-.8.7-.2.3-.4.6-.5.9-.1.3-.1.7-.1,1.1s0,.8.1,1.1.2.6.4.9c.2.2.4.4.8.5.3.1.7.2,1.2.2s1-.1,1.5-.2c.5-.3.9-.5,1.3-.7Z"/>
          </g>
        </g>
        <g id="text117">
          <g class="cls-27">
            <path class="cls-36" d="M382.6,154.4c0,.6-.1,1.2-.3,1.7s-.5.9-.9,1.3c-.4.4-.9.6-1.5.8s-1.2.3-2,.3-.9,0-1.3-.1-.7-.2-1-.3-.6-.2-.8-.3c-.2-.1-.3-.2-.4-.2s-.1-.1-.1-.1c0,0-.1-.1-.1-.2v-.7c0-.2,0-.4.1-.5,0-.1.1-.1.2-.1s.2.1.4.2.4.2.7.4c.3.1.6.2,1,.4.4.1.8.2,1.3.2s.9-.1,1.2-.2.7-.3.9-.5c.2-.2.4-.5.5-.8s.2-.6.2-1-.1-.7-.2-1c-.2-.3-.4-.6-.7-.8-.3-.2-.7-.4-1.1-.5s-.9-.2-1.5-.2h-1.4c-.1,0-.1-.1-.1-.1,0-.1-.1-.1-.1-.2v-.7c0-.1.1-.2.1-.2,0-.1.1-.1.1-.1h1.4c.5,0,.9-.1,1.2-.2.4-.1.7-.3.9-.5.3-.2.4-.5.6-.8.1-.3.2-.7.2-1s0-.5-.1-.8-.2-.5-.4-.7-.4-.3-.7-.4c-.3-.1-.6-.2-1-.2s-.8.1-1.1.2c-.3.1-.6.3-.9.4-.3.1-.5.3-.7.4-.2.1-.3.2-.4.2h-.2c0-.1,0-.2-.1-.3v-.9q0,0,.1-.2s.1-.1.1-.2c.1-.1.2-.2.4-.3s.4-.2.7-.4c.3-.1.6-.2,1-.3s.8-.1,1.2-.1c.6,0,1.2.1,1.6.2.5.2.9.4,1.2.7.3.3.5.6.7,1s.2.9.2,1.3-.1.8-.2,1.2-.3.7-.5,1-.5.5-.8.7-.7.3-1.1.4h0c.5,0,.9.2,1.3.3.4.2.7.4,1,.7s.5.6.6,1c.6.3.6.7.6,1.1Z"/>
            <path class="cls-36" d="M394.5,161.3c0,.2,0,.4-.1.5s-.1.2-.3.2h-10c-.1,0-.2-.1-.3-.2s-.1-.3-.1-.5,0-.4.1-.5.2-.2.3-.2h10c.1,0,.2.1.3.2.1,0,.1.3.1.5Z"/>
            <path class="cls-36" d="M405.2,156.3v.5q0,.1-.1.2s-.1.1-.1.2c-.1.1-.2.2-.4.3-.2.1-.5.3-.8.4-.3.1-.7.2-1.1.3s-.9.1-1.4.1c-.9,0-1.7-.1-2.4-.4s-1.3-.7-1.8-1.3-.9-1.3-1.1-2.1c-.3-.8-.4-1.8-.4-2.9s.1-2.1.4-3,.7-1.6,1.2-2.2c.5-.6,1.1-1.1,1.9-1.4.7-.3,1.5-.5,2.4-.5s.8,0,1.1.1c.4.1.7.2,1,.3s.6.2.8.4c.2.1.4.3.5.4s.2.2.2.2c0,0,0,.1.1.2v.9c0,.1,0,.2-.1.2,0,.1-.1.1-.1.1h-.1c-.1,0-.2-.1-.4-.2s-.4-.3-.7-.4c-.3-.2-.6-.3-1-.4s-.9-.2-1.4-.2-1.1.1-1.6.4c-.5.2-.9.6-1.3,1.1-.3.5-.6,1-.8,1.7s-.3,1.4-.3,2.3.1,1.6.3,2.3c.2.7.4,1.2.8,1.6.3.4.8.8,1.3,1s1.1.3,1.7.3,1-.1,1.4-.2c.4-.1.7-.3,1-.4.3-.2.5-.3.7-.4.2-.1.3-.2.4-.2h.2v.3c0,0,0,.3,0,.4Z"/>
            <path class="cls-36" d="M409.1,158h0c0,.1-.1.2-.1.2,0,0-.1,0-.3.1h-.8c-.1,0-.2,0-.3-.1-.1,0-.1-.1-.1-.1h0v-13.9h0c0-.1.1-.2.1-.2.1,0,.2,0,.3-.1h.8c.1,0,.2,0,.3.1s.1.1.1.1h0v13.9Z"/>
            <path class="cls-36" d="M421,153.2c0,.8-.1,1.5-.3,2.1-.2.6-.5,1.2-.9,1.7s-.9.8-1.5,1.1-1.3.4-2.1.4-1.4-.1-2-.3-1-.6-1.4-1-.7-1-.8-1.6c-.2-.6-.3-1.3-.3-2.1s.1-1.5.3-2.1c.2-.6.5-1.2.9-1.7s.9-.8,1.5-1.1,1.3-.4,2.1-.4,1.4.1,2,.3,1,.6,1.4,1,.7,1,.9,1.6c0,.6.2,1.3.2,2.1ZM419.2,153.3c0-.5,0-1-.1-1.4s-.2-.8-.5-1.2c-.2-.3-.5-.6-.9-.8s-.8-.3-1.4-.3-.9.1-1.3.3-.7.4-.9.8c-.2.3-.4.7-.5,1.2s-.2.9-.2,1.5,0,1,.1,1.4.2.8.5,1.2c.2.3.5.6.9.8s.8.3,1.4.3.9-.1,1.3-.3.7-.4.9-.8c.2-.3.4-.7.5-1.2s.2-.9.2-1.5Z"/>
            <path class="cls-36" d="M428.9,149.3v.6q0,.1-.1.1h-.3c-.1,0-.2-.1-.3-.1s-.2-.1-.3-.1h-.4c-.2,0-.3,0-.5.1s-.3.2-.5.3c-.2.2-.4.4-.6.6-.2.3-.4.6-.7,1v6.1h0c0,.1-.1.2-.1.2,0,0-.1,0-.3.1h-.8c-.1,0-.2,0-.3-.1-.1,0-.1-.1-.1-.1h0v-9.4h0c0-.1.1-.2.1-.2,0,0,.1-.1.2-.1h.8c.1,0,.2,0,.2.1.1,0,.1.1.1.1h0v1.5c.3-.4.5-.7.7-.9s.4-.4.6-.6l.6-.3c.2-.1.4-.1.6-.1h.3c.1,0,.2,0,.4.1.1,0,.2.1.3.1s.2.1.2.1h.1v.4c0,.2,0,.3,0,.5Z"/>
          </g>
        </g>
        <g id="text122">
          <g class="cls-27">
            <path class="cls-36" d="M510.9,83.6c0,0,0,.2-.1.2,0,0-.1,0-.2.2s-.3,0-.5,0h-1.5c-.2,0-.3,0-.4,0-.1,0-.2,0-.3-.2-.1,0-.1-.2-.2-.3l-2-5.2c-.2-.6-.5-1.1-.7-1.6-.3-.5-.6-.9-.9-1.3s-.8-.6-1.2-.8c-.5-.2-1-.3-1.7-.3h-1.9v9.3c0,0,0,.2-.1.2s-.1,0-.2.2c-.1,0-.3,0-.4,0h-1.4c-.2,0-.3,0-.4,0s-.2,0-.2-.2-.1,0-.1-.2v-20.3c0-.4.1-.7.3-.9.2-.2.5-.3.7-.3h6.1c.4,0,.7,0,1,0,.8,0,1.6.4,2.2.7s1.2.7,1.6,1.2.8,1,1,1.7c.2.6.3,1.3.3,2.1s-.1,1.4-.3,2-.5,1.1-.9,1.5-.8.8-1.3,1.2c-.5.3-1.1.6-1.7.8.4.2.7.4,1,.6s.6.5.8.9c.3.3.5.7.7,1.2.2.4.5.9.7,1.5l2,4.8c.2.4.3.7.3.9-.2,0,0,.2,0,.3ZM506.5,68.2c0-.9-.2-1.6-.6-2.2s-1-1-1.9-1.3c-.3,0-.6,0-1-.2-.4,0-.8,0-1.4,0h-2.5v7.4h2.8c.8,0,1.4,0,2-.3.6-.2,1-.4,1.4-.8.4-.3.6-.7.8-1.2.3-.3.4-.8.4-1.3Z"/>
          </g>
        </g>
        <g id="text126">
          <g class="cls-27">
            <path class="cls-36" d="M512.4,98.1v.6c0,.2,0,.3,0,.4s0,.2-.2.2,0,0-.2,0-.4,0-.7-.3-.7-.5-1.3-.7c-.5-.3-1.2-.5-1.9-.7-.7-.2-1.6-.3-2.6-.3s-2.3.2-3.2.7-1.8,1-2.4,1.8-1.2,1.7-1.5,2.8c-.4,1.1-.5,2.2-.5,3.5s.2,2.6.6,3.7.9,2,1.6,2.7,1.5,1.3,2.5,1.7c1,.4,2,.6,3.1.6s1.4,0,2.1-.2c.7-.2,1.3-.4,1.9-.7v-6.4h-5.1c-.2,0-.3,0-.4-.3-.1-.2-.1-.5-.1-.9v-.6c0-.2.1-.3.1-.4.1,0,.1-.2.2-.2s.2,0,.3,0h7c.1,0,.2,0,.4,0,0,0,.2,0,.3.2s.2.2.2.4,0,.3,0,.5v8.3c0,.3,0,.5-.2.8,0,.2-.3.4-.6.6-.3.2-.8.3-1.3.5s-1.1.4-1.6.5-1.1.2-1.7.3-1.1,0-1.7,0c-1.7,0-3.2-.3-4.5-.8s-2.5-1.3-3.4-2.2-1.6-2.1-2.1-3.5-.7-2.9-.7-4.5.3-3.3.8-4.7c.5-1.4,1.3-2.6,2.2-3.6,1-1,2.1-1.8,3.4-2.3s2.8-.8,4.4-.8,1.6,0,2.4.2c.7,0,1.4.3,2,.5s1,.4,1.4.6.7.4.8.6.2.3.3.5,0,.3,0,.7Z"/>
          </g>
        </g>
        <g id="text130">
          <g class="cls-27">
            <path class="cls-36" d="M509.8,141.3c0,.7-.1,1.3-.3,1.9-.2.6-.4,1.1-.7,1.6-.3.5-.7.9-1.1,1.2s-.9.6-1.5.9c-.6.2-1.2.4-1.8.5s-1.4.2-2.2.2h-5.7c-.3,0-.5-.1-.7-.3s-.3-.5-.3-.9v-19.5c0-.4.1-.7.3-.9.2-.2.5-.3.7-.3h5c1.3,0,2.4,0,3.2.4.8.2,1.5.6,2.1,1.1s1,1.1,1.3,1.7c.3.7.4,1.5.4,2.3s-.1,1-.2,1.5-.3.9-.6,1.3c-.2.4-.5.8-.9,1.1s-.8.6-1.3.8c.6.1,1.2.3,1.7.6s1,.7,1.4,1.1c.4.5.7,1,.9,1.6.2.6.3,1.3.3,2.1ZM505.5,131.5c0-.5-.1-1-.2-1.4s-.4-.8-.7-1.1c-.3-.3-.7-.5-1.2-.7s-1.2-.2-2-.2h-3v7.1h3.3c.8,0,1.4-.1,1.8-.3.5-.2.8-.5,1.1-.8.3-.3.5-.7.7-1.2s.2-1,.2-1.4ZM506.8,141.4c0-.7-.1-1.2-.3-1.7-.2-.5-.5-.9-.9-1.3-.4-.3-.9-.6-1.5-.8s-1.4-.3-2.3-.3h-3.5v7.7h4.2c.7,0,1.2-.1,1.7-.2.5-.2.9-.4,1.3-.7s.7-.7.9-1.2c.3-.3.4-.9.4-1.5Z"/>
          </g>
        </g>
        <g id="text134">
          <g class="cls-27">
            <path class="cls-36" d="M514.7,44c0,.4,0,.7-.4.9s-.7.3-1.2.3h-19.8c-.6,0-1,0-1.3-.3s-.4-.5-.4-.9.1-.7.4-.9.7-.3,1.3-.3h19.7c.3,0,.5,0,.7,0,.2,0,.4,0,.5.2,0,0,.3.2.3.4,0,0,.2.3.2.5Z"/>
          </g>
        </g>
      </g>
      <circle id="circle281-5" class="cls-31" cx="564.8" cy="43.2" r="11.6"/>
      <circle id="circle281-6" class="cls-34" cx="564.8" cy="74" r="11.6"/>
      <circle id="circle281-7" class="cls-37" cx="564.8" cy="105.1" r="11.6"/>
      <circle id="circle281-8" class="cls-21" cx="564.8" cy="136.3" r="11.6"/>
      <g id="image406">
        <g>
          <path class="cls-49" d="M277.5,437.5v-.6s0,0,0,0h10.5s0,0,0,0v1.3s0,0,0,0h-10.5s0,0,0,0v-.6h3.2s0,0,0,0c0,0,0,0,0,.1,0,0,0,.1.1.2,0,0,.1.1.2.2,0,0,.2,0,.3,0,0,0,0,0,0,0,0,0,0,0,0,0h.1c0,0,.2,0,.3,0,0,0,.2,0,.3-.1,0,0,0,0,0,0h.2s0,0,0,0h1.3s0,0,0,0c.1,0,.3.1.4.2,0,0,.1,0,.2,0h0s0,0,0,0c0,0,0,0,0,0,0,0,.2,0,.2,0,0,0,.1,0,.2-.1,0,0,.1-.1.2-.2,0,0,0-.1,0-.2h0s0,0,0,0h3.1s0,0,0,0,0,0,0,0h-3.1s0,0,0,0c0,0,0-.1,0-.2,0,0,0,0,0-.1,0,0,0,0-.1-.1,0,0-.1,0-.2,0,0,0-.1,0-.2,0h0s0,0,0,0c0,0,0,0-.2,0,0,0-.2,0-.3,0,0,0-.1,0-.2,0,0,0,0,0,0,0h-1.5s0,0,0,0c0,0-.1,0-.2-.1,0,0-.1,0-.2,0,0,0-.1,0-.2,0s0,0,0,0h0c0,0-.1,0-.2,0,0,0-.2,0-.3.2s0,0-.1.2c0,0,0,.1,0,.2,0,0,0,0,0,0s0,0,0,0h-3.1s0,0,0,0Z"/>
          <path class="cls-8" d="M277.5,437.5h3.2s0,0,0,0h0s0,0,0,0h-3.2Z"/>
          <path class="cls-1" d="M283,437h.5s0,0,0,0c0,0,.2-.1.3-.1,0,0,0,0,.2,0,0,0,.1,0,.2,0h0s0,0,0,0h0s0,0,0,0h0v1.3s0,0,0,0c0,0,0,0,0,0,0,0-.2,0-.3,0,0,0-.2,0-.3-.1,0,0,0,0,0,0h-.5s0,0,0,0v-.9s0,0,0,0Z"/>
          <path class="cls-1" d="M282.2,438h-.1s0,0,0,0c0,0-.1,0-.2.1,0,0-.1,0-.2,0,0,0,0,0-.1,0h0s0,0,0,0h0v-1.3s0,0,0,0h0s0,0,0,0c0,0,0,0,0,0,0,0,0,0,.1,0,0,0,.1,0,.2,0,.1,0,.2,0,.3.1,0,0,0,0,0,0,0,0,0,0,0,0h.1s0,0,0,0v.9s0,0,0,0Z"/>
          <path class="cls-1" d="M280.7,437.5h0c0-.2,0-.3.1-.4,0,0,.2-.2.3-.2,0,0,.2,0,.3,0t0,0h0v1.3s0,0,0,0c-.1,0-.3,0-.4-.1-.1,0-.2-.2-.2-.3,0,0,0-.1,0-.2,0,0,0,0,0,0Z"/>
          <path class="cls-1" d="M284.8,437.5s0,0,0,0c0,0,0,.2-.1.3,0,0-.1.1-.2.2,0,0-.2,0-.3,0t0,0h0v-1.3s0,0,0,0c0,0,0,0,0,0,0,0,.1,0,.2,0,0,0,.1,0,.2.1,0,0,0,.1.1.2,0,0,0,.1,0,.2,0,0,0,0,0,0,0,0,0,0,0,0Z"/>
          <path class="cls-1" d="M282.5,437s0,0,0,0h.4s0,0,0,0h0v.9s0,0,0,0h-.4s0,0,0,0v-.9s0,0,0,0Z"/>
          <path class="cls-1" d="M282.4,438h-.2s0,0,0,0h0v-.9s0,0,0,0h.2s0,0,0,0h0v.9s0,0,0,0Z"/>
          <path class="cls-8" d="M284.8,437.5h0s0,0,0,0h3.1s0,0,0,0h0s0,0,0,0h-3.1s0,0,0,0Z"/>
          <path class="cls-7" d="M284.2,436.8h0v1.3h0s0,0,0,0h0v-1.3s0,0,0,0h0s0,0,0,0Z"/>
          <path class="cls-2" d="M281.3,438.1h0v-1.3h0s0,0,0,0h0s0,0,0,0h0v1.3h0s0,0,0,0c0,0,0,0,0,0Z"/>
          <path class="cls-5" d="M282.9,438h0v-1h0s0,0,0,0h0s0,0,0,0h0v1h0s0,0,0,0c0,0,0,0,0,0Z"/>
          <path class="cls-5" d="M282.4,438h0v-1h0s0,0,0,0h0v1h0s0,0,0,0c0,0,0,0,0,0Z"/>
          <path class="cls-2" d="M282.2,437v1h0s0,0,0,0h0s0,0,0,0h0v-1h0Z"/>
        </g>
      </g>
      <g id="image426">
        <g>
          <path class="cls-49" d="M277.5,376.2v-.6s0,0,0,0h10.5s0,0,0,0v1.3s0,0,0,0h-10.5s0,0,0,0v-.6h3.2s0,0,0,0c0,0,0,0,0,.1,0,0,0,.1.1.2,0,0,.1.1.2.2,0,0,.2,0,.3,0,0,0,0,0,0,0,0,0,0,0,0,0h.1c0,0,.2,0,.3,0,0,0,.2,0,.3-.1,0,0,0,0,0,0h.2s0,0,0,0h1.3s0,0,0,0c.1,0,.3.1.4.2,0,0,.1,0,.2,0h0s0,0,0,0c0,0,0,0,0,0,0,0,.2,0,.2,0,0,0,.1,0,.2-.1,0,0,.1-.1.2-.2,0,0,0-.1,0-.2h0s0,0,0,0h3.1s0,0,0,0,0,0,0,0h-3.1s0,0,0,0c0,0,0-.1,0-.2,0,0,0,0,0-.1,0,0,0,0-.1-.1,0,0-.1,0-.2,0,0,0-.1,0-.2,0h0s0,0,0,0c0,0,0,0-.2,0,0,0-.2,0-.3,0,0,0-.1,0-.2,0,0,0,0,0,0,0h-1.5s0,0,0,0c0,0-.1,0-.2-.1,0,0-.1,0-.2,0,0,0-.1,0-.2,0s0,0,0,0h0c0,0-.1,0-.2,0,0,0-.2,0-.3.2s0,0-.1.2c0,0,0,.1,0,.2,0,0,0,0,0,0s0,0,0,0h-3.1s0,0,0,0Z"/>
          <path class="cls-8" d="M277.5,376.2h3.2s0,0,0,0h0s0,0,0,0h-3.2Z"/>
          <path class="cls-1" d="M283,375.8h.5s0,0,0,0c0,0,.2-.1.3-.1,0,0,0,0,.2,0,0,0,.1,0,.2,0h0s0,0,0,0h0s0,0,0,0h0v1.3s0,0,0,0c0,0,0,0,0,0,0,0-.2,0-.3,0,0,0-.2,0-.3-.1,0,0,0,0,0,0h-.5s0,0,0,0v-.9s0,0,0,0Z"/>
          <path class="cls-1" d="M282.2,376.7h-.1s0,0,0,0c0,0-.1,0-.2.1,0,0-.1,0-.2,0,0,0,0,0-.1,0h0s0,0,0,0h0v-1.3s0,0,0,0h0s0,0,0,0c0,0,0,0,0,0,0,0,0,0,.1,0,0,0,.1,0,.2,0,.1,0,.2,0,.3.1,0,0,0,0,0,0,0,0,0,0,0,0h.1s0,0,0,0v.9s0,0,0,0Z"/>
          <path class="cls-1" d="M280.7,376.3h0c0-.2,0-.3.1-.4,0,0,.2-.2.3-.2,0,0,.2,0,.3,0t0,0h0v1.3s0,0,0,0c-.1,0-.3,0-.4-.1-.1,0-.2-.2-.2-.3,0,0,0-.1,0-.2,0,0,0,0,0,0Z"/>
          <path class="cls-1" d="M284.8,376.3s0,0,0,0c0,0,0,.2-.1.3,0,0-.1.1-.2.2,0,0-.2,0-.3,0t0,0h0v-1.3s0,0,0,0c0,0,0,0,0,0,0,0,.1,0,.2,0,0,0,.1,0,.2.1,0,0,0,.1.1.2,0,0,0,.1,0,.2,0,0,0,0,0,0,0,0,0,0,0,0Z"/>
          <path class="cls-1" d="M282.5,375.8s0,0,0,0h.4s0,0,0,0h0v.9s0,0,0,0h-.4s0,0,0,0v-.9s0,0,0,0Z"/>
          <path class="cls-1" d="M282.4,376.7h-.2s0,0,0,0h0v-.9s0,0,0,0h.2s0,0,0,0h0v.9s0,0,0,0Z"/>
          <path class="cls-8" d="M284.8,376.3h0s0,0,0,0h3.1s0,0,0,0h0s0,0,0,0h-3.1s0,0,0,0Z"/>
          <path class="cls-7" d="M284.2,375.6h0v1.3h0s0,0,0,0h0v-1.3s0,0,0,0h0s0,0,0,0Z"/>
          <path class="cls-2" d="M281.3,376.9h0v-1.3h0s0,0,0,0h0s0,0,0,0h0v1.3h0s0,0,0,0c0,0,0,0,0,0Z"/>
          <path class="cls-5" d="M282.9,376.7h0v-1h0s0,0,0,0h0s0,0,0,0h0v1h0s0,0,0,0h0Z"/>
          <path class="cls-5" d="M282.4,376.7h0v-1h0s0,0,0,0h0v1h0s0,0,0,0c0,0,0,0,0,0Z"/>
          <path class="cls-2" d="M282.2,375.8v1h0s0,0,0,0h0s0,0,0,0h0v-1h0Z"/>
        </g>
      </g>
      <rect id="rect337" class="cls-37" x="454.1" y="370.8" width="174.7" height="9.1"/>
      <rect id="rect339" class="cls-21" x="454.1" y="492.8" width="147.4" height="9.1"/>
      <rect id="rect341" class="cls-34" x="454.1" y="429.5" width="202.1" height="9.1"/>
      <rect id="rect326" class="cls-37" x="232.1" y="370.8" width="90.2" height="9.1"/>
      <rect id="rect328" class="cls-21" x="273.8" y="492.8" width="48.5" height="9.1"/>
      <rect id="rect330" class="cls-34" x="232.1" y="429.5" width="90.2" height="9.1"/>
      <g id="text1138">
        <g class="cls-27">
          <path class="cls-36" d="M367.5,385v.5c0,.1-.1.2-.1.3l-.2.2c-.1,0-.1.1-.2.1h-10.6q-.1,0-.2-.1c-.1,0-.1-.1-.2-.2s-.1-.2-.1-.3v-1c0-.1.1-.2.1-.3s.1-.2.2-.2.1-.1.2-.1h4.2v-15.4l-3.9,2.3c-.2.1-.4.2-.5.2s-.2,0-.3-.1c-.1-.1-.1-.2-.1-.3v-1.1q0-.2.1-.3c0-.1.1-.2.1-.2l.2-.2,4.7-3s.1-.1.2-.1.1,0,.2-.1h1.4c.2,0,.3,0,.4.1.1,0,.2.1.2.1v18h3.7c.1,0,.2,0,.2.1.1,0,.1.1.2.2,0,.1.1.2.1.3,0,.2,0,.4,0,.6Z"/>
          <path class="cls-36" d="M384.4,375.9c0,1.6-.1,3-.4,4.2-.2,1.3-.7,2.4-1.2,3.3-.6.9-1.3,1.6-2.2,2.1-.9.5-2,.8-3.4.8s-2.3-.2-3.2-.7c-.9-.5-1.6-1.1-2.1-2s-.9-2-1.1-3.2c-.2-1.3-.3-2.8-.3-4.4s.1-3,.4-4.2c.2-1.3.7-2.4,1.2-3.3s1.3-1.6,2.2-2.1c.9-.5,2-.8,3.4-.8s2.4.2,3.2.7c.9.5,1.6,1.1,2.1,2s.9,2,1.1,3.2c.2,1.2.3,2.7.3,4.4ZM381.6,376c0-1,0-1.9-.1-2.7-.1-.8-.2-1.5-.3-2.1-.1-.6-.3-1.1-.5-1.6-.2-.4-.5-.8-.8-1.1-.3-.3-.7-.5-1.1-.6s-.9-.2-1.4-.2c-.9,0-1.6.2-2.2.6s-1,1-1.3,1.7-.5,1.6-.6,2.6-.2,2-.2,3.2.1,2.8.2,3.9c.2,1.1.4,1.9.7,2.6.3.7.8,1.2,1.3,1.5s1.2.5,1.9.5,1.1-.1,1.5-.3c.4-.2.8-.5,1.1-.8.3-.3.6-.8.8-1.3.2-.5.4-1,.5-1.6s.2-1.2.3-1.9c.2-.9.2-1.6.2-2.4Z"/>
          <path class="cls-36" d="M400.6,375.9c0,1.6-.1,3-.4,4.2-.2,1.3-.7,2.4-1.2,3.3-.6.9-1.3,1.6-2.2,2.1-.9.5-2,.8-3.4.8s-2.3-.2-3.2-.7c-.9-.5-1.6-1.1-2.1-2s-.9-2-1.1-3.2c-.2-1.3-.3-2.8-.3-4.4s.1-3,.4-4.2c.2-1.3.7-2.4,1.2-3.3s1.3-1.6,2.2-2.1c.9-.5,2-.8,3.4-.8s2.4.2,3.2.7c.9.5,1.6,1.1,2.1,2s.9,2,1.1,3.2c.2,1.2.3,2.7.3,4.4ZM397.9,376c0-1,0-1.9-.1-2.7-.1-.8-.2-1.5-.3-2.1-.1-.6-.3-1.1-.5-1.6-.2-.4-.5-.8-.8-1.1-.3-.3-.7-.5-1.1-.6s-.9-.2-1.4-.2c-.9,0-1.6.2-2.2.6s-1,1-1.3,1.7-.5,1.6-.6,2.6-.2,2-.2,3.2.1,2.8.2,3.9c.2,1.1.4,1.9.7,2.6.3.7.8,1.2,1.3,1.5s1.2.5,1.9.5,1.1-.1,1.5-.3c.4-.2.8-.5,1.1-.8.3-.3.6-.8.8-1.3.2-.5.4-1,.5-1.6s.2-1.2.3-1.9c.1-.9.2-1.6.2-2.4Z"/>
          <path class="cls-36" d="M421.4,384.9v.5c0,.1-.1.3-.1.4s-.1.2-.2.2-.1.1-.2.1h-5.9c-.3,0-.5-.1-.6-.2-.2-.2-.2-.4-.2-.8v-1c0-.1.1-.2.1-.3.1-.1.1-.2.2-.3.1-.1.3-.3.7-.6.4-.3.8-.6,1.3-1.1s.9-1,1.2-1.6c.3-.6.5-1.3.7-2.1.1-.8.2-1.7.2-2.6s0-1.3-.1-1.9-.2-1.2-.4-1.8c-.2-.6-.5-1.1-.8-1.5-.3-.5-.7-.9-1.1-1.2-.5-.3-1-.6-1.6-.8-.6-.2-1.3-.3-2.1-.3s-1.5.1-2.1.3-1.2.5-1.6.8c-.5.3-.9.8-1.2,1.2-.3.5-.6,1-.8,1.5-.2.6-.4,1.1-.5,1.7s-.1,1.2-.1,1.8c0,1.1.1,2,.2,2.8s.4,1.5.7,2.1c.3.6.7,1.1,1.2,1.6s.9.8,1.3,1.1c.4.3.6.5.7.6s.2.2.2.4c.1.1.1.2.1.3v1c0,.4-.1.6-.2.8-.2.2-.4.2-.6.2h-5.9c-.1,0-.2,0-.2-.1-.1,0-.1-.1-.2-.2,0-.1-.1-.2-.1-.4v-.5c0-.4,0-.7.1-.9.1-.2.2-.3.4-.3h3.9c-.7-.4-1.3-.8-1.8-1.4-.5-.5-1-1.2-1.4-1.9-.4-.7-.7-1.5-.9-2.3-.2-.8-.3-1.8-.3-2.8s.2-2.8.6-4,1-2.3,1.8-3.1c.8-.9,1.7-1.6,2.9-2.1,1.2-.5,2.5-.7,4-.7s2.7.2,3.8.7c1.1.5,2,1.1,2.8,2s1.3,1.9,1.7,3c.4,1.2.6,2.5.6,3.9s-.1,2-.3,2.9-.5,1.7-.9,2.4c-.4.7-.8,1.4-1.4,1.9-.5.5-1.1,1-1.8,1.4h3.9c.2,0,.3.1.4.3-.1.2-.1.5-.1.9Z"/>
        </g>
      </g>
      <g id="text1142">
        <g class="cls-27">
          <path class="cls-36" d="M369.8,505.5v.5c0,.1-.1.2-.1.3l-.2.2c-.1,0-.1.1-.2.1h-10.6q-.1,0-.2-.1c-.1,0-.1-.1-.2-.2s-.1-.2-.1-.3v-1c0-.1.1-.2.1-.3s.1-.2.2-.2.1-.1.2-.1h4.2v-15.4l-3.9,2.3c-.2.1-.4.2-.5.2s-.2,0-.3-.1c-.1-.1-.1-.2-.1-.3v-1.1q0-.2.1-.3c.1,0,.1-.2.1-.2l.2-.2,4.7-3s.1-.1.2-.1.1,0,.2-.1.2,0,.3,0h1.1c.2,0,.3,0,.4.1s.2.1.2.1v18h3.7c.1,0,.2,0,.2.1.1,0,.1.1.2.2,0,.1.1.2.1.3,0,.3,0,.4,0,.6Z"/>
          <path class="cls-36" d="M386.7,496.4c0,1.6-.1,3-.4,4.2-.2,1.3-.7,2.4-1.2,3.3-.6.9-1.3,1.6-2.2,2.1-.9.5-2,.8-3.4.8s-2.3-.2-3.2-.7c-.9-.5-1.6-1.1-2.1-2s-.9-2-1.1-3.2c-.2-1.3-.3-2.8-.3-4.4s.1-3,.4-4.2.7-2.4,1.2-3.3,1.3-1.6,2.2-2.1c.9-.5,2-.8,3.4-.8s2.4.2,3.2.7c.9.5,1.6,1.1,2.1,2s.9,2,1.1,3.2c0,1.3.3,2.8.3,4.4ZM383.9,496.6c0-1,0-1.9-.1-2.7-.1-.8-.2-1.5-.3-2.1s-.3-1.1-.5-1.6c-.2-.4-.5-.8-.8-1.1s-.7-.5-1.1-.6-.9-.2-1.4-.2c-.9,0-1.6.2-2.2.6s-1,1-1.3,1.7-.5,1.6-.6,2.6-.2,2-.2,3.2.1,2.8.2,3.9c.2,1.1.4,1.9.7,2.6.3.7.8,1.2,1.3,1.5s1.2.5,1.9.5,1.1-.1,1.5-.3c.4-.2.8-.5,1.1-.8.3-.3.6-.8.8-1.3.2-.5.4-1,.5-1.6s.2-1.2.3-1.9c.2-.9.2-1.6.2-2.4Z"/>
          <path class="cls-36" d="M402.9,496.4c0,1.6-.1,3-.4,4.2-.2,1.3-.7,2.4-1.2,3.3-.6.9-1.3,1.6-2.2,2.1-.9.5-2,.8-3.4.8s-2.3-.2-3.2-.7c-.9-.5-1.6-1.1-2.1-2s-.9-2-1.1-3.2c-.2-1.3-.3-2.8-.3-4.4s.1-3,.4-4.2.7-2.4,1.2-3.3,1.3-1.6,2.2-2.1c.9-.5,2-.8,3.4-.8s2.4.2,3.2.7c.9.5,1.6,1.1,2.1,2s.9,2,1.1,3.2c.2,1.3.3,2.8.3,4.4ZM400.1,496.6c0-1,0-1.9-.1-2.7-.1-.8-.2-1.5-.3-2.1s-.3-1.1-.5-1.6c-.2-.4-.5-.8-.8-1.1s-.7-.5-1.1-.6-.9-.2-1.4-.2c-.9,0-1.6.2-2.2.6s-1,1-1.3,1.7-.5,1.6-.6,2.6-.2,2-.2,3.2.1,2.8.2,3.9c.2,1.1.4,1.9.7,2.6.3.7.8,1.2,1.3,1.5s1.2.5,1.9.5,1.1-.1,1.5-.3c.4-.2.8-.5,1.1-.8.3-.3.6-.8.8-1.3.2-.5.4-1,.5-1.6s.2-1.2.3-1.9c.2-.9.2-1.6.2-2.4Z"/>
          <path class="cls-36" d="M423.7,505.5v.5c0,.1-.1.3-.1.4s-.1.2-.2.2-.1.1-.2.1h-5.9c-.3,0-.5-.1-.6-.2-.2-.2-.2-.4-.2-.8v-1.1c0-.1.1-.2.1-.3.1-.1.1-.2.2-.3.1-.1.3-.3.7-.6.4-.3.8-.6,1.3-1.1s.9-1,1.2-1.6c.3-.6.5-1.3.7-2.1.1-.8.2-1.7.2-2.6s0-1.3-.1-1.9-.2-1.2-.4-1.8c-.2-.6-.5-1.1-.8-1.5s-.7-.9-1.1-1.2-1-.6-1.6-.8c-.6-.2-1.3-.3-2.1-.3s-1.5.1-2.1.3-1.2.5-1.6.8c-.5.3-.9.8-1.2,1.2-.3.5-.6,1-.8,1.5-.2.6-.4,1.1-.5,1.7s-.1,1.2-.1,1.8c0,1.1.1,2,.2,2.8s.4,1.5.7,2.1c.3.6.7,1.1,1.2,1.6s.9.8,1.3,1.1c.4.3.6.5.7.6s.2.2.2.4c.1.1.1.2.1.3v1c0,.4-.1.6-.2.8-.2.2-.4.2-.6.2h-6.1c-.1,0-.2,0-.2-.1-.1,0-.1-.1-.2-.2,0-.1-.1-.2-.1-.4v-.5c0-.4,0-.7.1-.9.1-.2.2-.3.4-.3h3.9c-.7-.4-1.3-.8-1.8-1.4-.5-.5-1-1.2-1.4-1.9-.4-.7-.7-1.5-.9-2.3-.2-.8-.3-1.8-.3-2.8s.2-2.8.6-4,1-2.3,1.8-3.1,1.7-1.6,2.9-2.1c1.2-.5,2.5-.7,4-.7s2.7.2,3.8.7c1.1.5,2,1.1,2.8,2s1.3,1.9,1.7,3c.4,1.2.6,2.5.6,3.9s-.1,2-.3,2.9-.5,1.7-.9,2.4c-.4.7-.8,1.4-1.4,1.9-.5.5-1.1,1-1.8,1.4h3.9c.2,0,.3.1.4.3.1.3.1.6.1,1Z"/>
        </g>
      </g>
      <g id="text1146">
        <g class="cls-27">
          <path class="cls-36" d="M372.5,443.3v.5c0,.1-.1.2-.1.3l-.2.2c-.1,0-.1.1-.2.1h-10.6q-.1,0-.2-.1c-.1,0-.1-.1-.2-.2s-.1-.2-.1-.3v-1c0-.1.1-.2.1-.3s.1-.2.2-.2.1-.1.2-.1h4.2v-15.4l-3.9,2.3c-.2.1-.4.2-.5.2s-.2,0-.3-.1-.1-.2-.1-.3v-1.1q0-.2.1-.3c.1,0,.1-.2.1-.2l.2-.2,4.7-3s.1-.1.2-.1.1,0,.2-.1.2,0,.3,0h1.1c.1,0,.3,0,.4.1s.2.1.2.1v18h3.7c.1,0,.2,0,.2.1.1,0,.1.1.2.2,0,.1.1.2.1.3,0,.3,0,.4,0,.6Z"/>
          <path class="cls-36" d="M389.2,439.2c0,.9-.2,1.7-.5,2.3-.3.7-.8,1.3-1.4,1.7-.6.5-1.3.8-2.2,1.1-.9.2-1.9.4-3,.4s-2-.1-2.8-.3c-.8-.2-1.5-.5-2.1-1-.6-.4-1-1-1.3-1.6s-.5-1.3-.5-2.1.1-1.2.3-1.8c.2-.5.5-1,.9-1.5.4-.4.9-.9,1.4-1.3.6-.4,1.2-.8,1.9-1.1-.6-.3-1.2-.7-1.7-1-.5-.4-.9-.8-1.2-1.2-.3-.4-.6-.9-.8-1.4s-.3-1-.3-1.6.1-1.4.4-2,.6-1.2,1.2-1.6,1.2-.8,2-1.1,1.7-.4,2.8-.4,1.9.1,2.6.4c.7.2,1.4.6,1.8,1s.8.9,1.1,1.5c.2.6.3,1.2.3,1.8s-.1,1-.3,1.5-.4,1-.8,1.4c-.3.4-.7.8-1.2,1.2s-1,.7-1.7,1.1c.7.4,1.4.7,2,1.1s1.1.8,1.5,1.2c.4.4.7.9.9,1.4.6.7.7,1.3.7,1.9ZM386.5,439.5c0-.5-.1-.9-.3-1.3-.2-.4-.4-.8-.8-1.1-.4-.3-.8-.7-1.3-1s-1.2-.6-1.9-1c-.7.3-1.2.6-1.7,1-.5.3-.9.7-1.2,1-.3.3-.6.7-.7,1.1-.2.4-.2.8-.2,1.3,0,1,.3,1.8,1,2.3.7.6,1.7.8,3.1.8s2.3-.3,3-.8c.6-.6,1-1.4,1-2.3ZM385.8,428.8c0-.4-.1-.8-.2-1.2-.2-.4-.4-.7-.7-.9-.3-.2-.7-.4-1.1-.6-.4-.1-.9-.2-1.5-.2-1.1,0-2,.3-2.6.8s-.9,1.2-.9,2.1.1.8.2,1.1.4.7.7,1,.7.6,1.1.9,1,.6,1.6.9c1.1-.5,1.9-1.1,2.4-1.8s1-1.3,1-2.1Z"/>
          <path class="cls-36" d="M405.6,434.2c0,1.6-.1,3-.4,4.2-.2,1.3-.7,2.4-1.2,3.3-.6.9-1.3,1.6-2.2,2.1-.9.5-2,.8-3.4.8s-2.3-.2-3.2-.7c-.9-.5-1.6-1.1-2.1-2s-.9-2-1.1-3.2c-.2-1.3-.3-2.8-.3-4.4s.1-3,.4-4.2.7-2.4,1.2-3.3,1.3-1.6,2.2-2.1c.9-.5,2-.8,3.4-.8s2.4.2,3.2.7c.9.5,1.6,1.1,2.1,2s.9,2,1.1,3.2c.2,1.3.3,2.7.3,4.4ZM402.9,434.4c0-1,0-1.9-.1-2.7-.1-.8-.2-1.5-.3-2.1s-.3-1.1-.5-1.6c-.2-.4-.5-.8-.8-1.1s-.7-.5-1.1-.6-.9-.2-1.4-.2c-.9,0-1.6.2-2.2.6s-1,1-1.3,1.7-.5,1.6-.6,2.6-.2,2-.2,3.2.1,2.8.2,3.9c.2,1.1.4,1.9.7,2.6.3.7.8,1.2,1.3,1.5s1.2.5,1.9.5,1.1-.1,1.5-.3c.4-.2.8-.5,1.1-.8.3-.3.6-.8.8-1.3.2-.5.4-1,.5-1.6s.2-1.2.3-1.9c.1-.9.2-1.7.2-2.4Z"/>
          <path class="cls-36" d="M426.4,443.2v.5c0,.1-.1.3-.1.4s-.1.2-.2.2-.1.1-.2.1h-5.9c-.3,0-.5-.1-.6-.2-.2-.2-.2-.4-.2-.8v-1c0-.1.1-.2.1-.3.1-.1.1-.2.2-.3.1-.1.3-.3.7-.6.4-.3.8-.6,1.3-1.1s.9-1,1.2-1.6c.3-.6.5-1.3.7-2.1.1-.8.2-1.7.2-2.6s0-1.3-.1-1.9-.2-1.2-.4-1.8c-.2-.6-.5-1.1-.8-1.5s-.7-.9-1.1-1.2-1-.6-1.6-.8c-.6-.2-1.3-.3-2.1-.3s-1.5.1-2.1.3-1.2.5-1.6.8c-.5.3-.9.8-1.2,1.2-.3.5-.6,1-.8,1.5-.2.6-.4,1.1-.5,1.7s-.1,1.2-.1,1.8c0,1.1.1,2,.2,2.8s.4,1.5.7,2.1c.3.6.7,1.1,1.2,1.6s.9.8,1.3,1.1c.4.3.6.5.7.6s.2.2.2.4c.1.1.1.2.1.3v1c0,.4-.1.6-.2.8-.2.2-.4.2-.6.2h-5.9c-.1,0-.2,0-.2-.1-.1,0-.1-.1-.2-.2,0-.1-.1-.2-.1-.4v-.5c0-.4,0-.7.1-.9.1-.2.2-.3.4-.3h3.9c-.7-.4-1.3-.8-1.8-1.4-.5-.5-1-1.2-1.4-1.9-.4-.7-.7-1.5-.9-2.3-.2-.8-.3-1.8-.3-2.8s.2-2.8.6-4,1-2.3,1.8-3.1,1.7-1.6,2.9-2.1c1.2-.5,2.5-.7,4-.7s2.7.2,3.8.7c1.1.5,2,1.1,2.8,2s1.3,1.9,1.7,3c.4,1.2.6,2.5.6,3.9s-.1,2-.3,2.9-.5,1.7-.9,2.4c-.4.7-.8,1.4-1.4,1.9-.5.5-1.1,1-1.8,1.4h3.9c.2,0,.3.1.4.3-.1.2-.1.5-.1.9Z"/>
        </g>
      </g>
      <rect id="rect853" class="cls-31" x="564.8" y="38.6" width="118.8" height="9.1"/>
      <rect id="rect853-2" class="cls-34" x="564.8" y="69.4" width="91.4" height="9.1"/>
      <rect id="rect853-3" class="cls-37" x="564.8" y="100.5" width="64.1" height="9.1"/>
      <rect id="rect853-4" class="cls-21" x="564.8" y="131.8" width="36.7" height="9.1"/>
      <rect id="rect853-5" class="cls-21" x="592.4" y="131.8" width="9.1" height="369.3"/>
      <rect id="rect853-6" class="cls-37" x="619.8" y="100.5" width="9.1" height="279.4"/>
      <rect id="rect853-7" class="cls-34" x="647.1" y="69.4" width="9.1" height="369.2"/>
      <rect id="rect853-8" class="cls-31" x="674.5" y="38.6" width="9.1" height="223.8"/>
      <circle id="circle281-9" class="cls-37" cx="454.1" cy="375.3" r="11.6"/>
      <circle id="circle281-10" class="cls-34" cx="454.1" cy="434.1" r="11.6"/>
      <circle id="circle281-11" class="cls-21" cx="454.1" cy="497.4" r="11.6"/>
      <circle id="circle281-12" class="cls-37" cx="322.3" cy="375.3" r="11.6"/>
      <circle id="circle281-13" class="cls-34" cx="322.3" cy="434.1" r="11.6"/>
      <circle id="circle281-14" class="cls-21" cx="322.3" cy="497.4" r="11.6"/>
      <rect id="rect328-2" data-name="rect328" class="cls-21" x="233.9" y="459.8" width="48.5" height="9.1"/>
      <rect id="rect328-3" data-name="rect328" class="cls-21" x="273.6" y="459.8" width="9.1" height="41.3"/>
    </g>
  </g>
</svg>