<?xml version="1.0" encoding="UTF-8"?>
<svg xmlns="http://www.w3.org/2000/svg" version="1.1" viewBox="0 0 1009 850.1">
  <defs>
    <style>
      .cls-1 {
        fill: #29abe2;
      }

      .cls-2 {
        fill: #2c2c2c;
      }

      .cls-3 {
        fill: #49c9c9;
      }

      .cls-4 {
        stroke: gray;
      }

      .cls-4, .cls-5, .cls-6, .cls-7 {
        stroke-width: 3px;
      }

      .cls-4, .cls-5, .cls-6, .cls-7, .cls-8 {
        fill: none;
        stroke-miterlimit: 10;
      }

      .cls-9, .cls-10 {
        fill: #fff;
      }

      .cls-11 {
        fill: #493930;
      }

      .cls-12 {
        fill: #be8839;
      }

      .cls-13 {
        fill: #dbded7;
      }

      .cls-14 {
        fill: #914f00;
      }

      .cls-15 {
        fill: #9a2442;
      }

      .cls-16 {
        fill: #303030;
      }

      .cls-17 {
        fill: #f53200;
      }

      .cls-5 {
        stroke: #754c24;
      }

      .cls-18 {
        fill: #47494a;
      }

      .cls-19 {
        fill: #655a50;
      }

      .cls-20 {
        fill: #e30613;
      }

      .cls-21 {
        fill: #474949;
      }

      .cls-22, .cls-23, .cls-24, .cls-10, .cls-25, .cls-26 {
        isolation: isolate;
      }

      .cls-27 {
        fill: #fcf7fd;
      }

      .cls-23 {
        fill: #d7eef4;
      }

      .cls-23, .cls-24, .cls-10, .cls-25, .cls-26 {
        opacity: 1;
      }

      .cls-28 {
        fill: #ada390;
      }

      .cls-29 {
        fill: #686868;
      }

      .cls-30 {
        fill: #e3ad51;
      }

      .cls-31 {
        fill: #ddd;
      }

      .cls-32 {
        fill: #1a1a1a;
      }

      .cls-33 {
        fill: #c4b3a8;
      }

      .cls-34 {
        fill: #a3928b;
      }

      .cls-35 {
        fill: #36323e;
      }

      .cls-6 {
        stroke: #000;
      }

      .cls-36 {
        fill: green;
      }

      .cls-24 {
        fill: gray;
      }

      .cls-37 {
        fill: #eaeaea;
      }

      .cls-38 {
        fill: #1a1919;
      }

      .cls-39 {
        fill: #e3b37d;
      }

      .cls-40 {
        fill: #010103;
      }

      .cls-7 {
        stroke: red;
      }

      .cls-25 {
        fill: #ccc;
      }

      .cls-41 {
        fill: #f5b93e;
      }

      .cls-42 {
        fill: #e0dcd3;
      }

      .cls-8 {
        stroke: #493930;
      }

      .cls-43 {
        fill: #bcb3ad;
      }
    </style>
  </defs>
  <!-- Generator: Adobe Illustrator 28.6.0, SVG Export Plug-In . SVG Version: 1.2.0 Build 709)  -->
  <g>
    <g id="svg8">
      <g>
        <path class="cls-1" d="M775.3,389.3c-4.7,0-9,1.5-12.2,3.9h-34.5c-3.2-2.4-7.5-3.9-12.2-3.9-10,0-18.2,6.7-18.2,14.9s8.1,14.9,18.2,14.9,9-1.5,12.2-3.9h34.5c3.2,2.4,7.5,3.9,12.2,3.9,10,0,18.2-6.7,18.2-14.9s-8.1-14.9-18.2-14.9Z"/>
        <line class="cls-5" x1="777.5" y1="389.5" x2="777.5" y2="419.2"/>
        <line class="cls-7" x1="714.3" y1="389.5" x2="714.3" y2="419.2"/>
        <line class="cls-7" x1="733" y1="393.2" x2="733" y2="415.4"/>
        <line class="cls-6" x1="739.3" y1="393.1" x2="739.3" y2="415.3"/>
        <line class="cls-6" x1="750.2" y1="393.1" x2="750.2" y2="415.3"/>
        <line class="cls-4" x1="698.3" y1="404.2" x2="626" y2="404.2"/>
        <line class="cls-4" x1="865.8" y1="404.2" x2="793.5" y2="404.2"/>
      </g>
      <g>
        <path class="cls-1" d="M775.5,449.7c-4.7,0-9,1.5-12.2,3.9h-34.5c-3.2-2.4-7.5-3.9-12.2-3.9-10,0-18.2,6.7-18.2,14.9s8.1,14.9,18.2,14.9,9-1.5,12.2-3.9h34.5c3.2,2.4,7.5,3.9,12.2,3.9,10,0,18.2-6.7,18.2-14.9s-8.1-14.9-18.2-14.9Z"/>
        <line class="cls-5" x1="777.7" y1="449.9" x2="777.7" y2="479.6"/>
        <line class="cls-7" x1="714.5" y1="449.9" x2="714.5" y2="479.6"/>
        <line class="cls-7" x1="733.2" y1="453.6" x2="733.2" y2="475.8"/>
        <line class="cls-6" x1="739.5" y1="453.5" x2="739.5" y2="475.8"/>
        <line class="cls-6" x1="750.4" y1="453.5" x2="750.4" y2="475.8"/>
        <line class="cls-4" x1="698.5" y1="464.7" x2="626.2" y2="464.7"/>
        <line class="cls-4" x1="866" y1="464.7" x2="793.7" y2="464.7"/>
      </g>
      <g>
        <path class="cls-1" d="M775.8,512.2c-4.7,0-9,1.5-12.2,3.9h-34.5c-3.2-2.4-7.5-3.9-12.2-3.9-10,0-18.2,6.7-18.2,14.9s8.1,14.9,18.2,14.9,9-1.5,12.2-3.9h34.5c3.2,2.4,7.5,3.9,12.2,3.9,10,0,18.2-6.7,18.2-14.9s-8.1-14.9-18.2-14.9Z"/>
        <line class="cls-5" x1="778" y1="512.4" x2="778" y2="542.1"/>
        <line class="cls-7" x1="714.8" y1="512.4" x2="714.8" y2="542.1"/>
        <line class="cls-7" x1="733.4" y1="516.1" x2="733.4" y2="538.3"/>
        <line class="cls-6" x1="739.7" y1="516" x2="739.7" y2="538.3"/>
        <line class="cls-6" x1="750.6" y1="516" x2="750.6" y2="538.3"/>
        <line class="cls-4" x1="698.7" y1="527.2" x2="626.5" y2="527.2"/>
        <line class="cls-4" x1="866.2" y1="527.2" x2="794" y2="527.2"/>
      </g>
      <g>
        <path class="cls-38" d="M590.5,82.3H7.8c-4,0-7.3,3.2-7.3,7.3v719c0,4,3.2,7.3,7.3,7.3h17.6l34.2,34.2h365.2s34.1-34.2,34.1-34.2h131.6c4,0,7.3-3.2,7.3-7.3V89.6c0-4-3.2-7.3-7.3-7.3ZM28.7,256.8c-10,0-18.1-8.1-18.1-18.1s8.1-18.1,18.1-18.1,18.1,8.1,18.1,18.1-8.1,18.1-18.1,18.1ZM88.6,838.6c-10,0-18.1-8.1-18.1-18.1s8.1-18.1,18.1-18.1,18.1,8.1,18.1,18.1-8.1,18.1-18.1,18.1ZM401.8,838.6c-10,0-18.1-8.1-18.1-18.1s8.1-18.1,18.1-18.1,18.1,8.1,18.1,18.1-8.1,18.1-18.1,18.1ZM570,268.2c-10,0-18.1-8.1-18.1-18.1s8.1-18.1,18.1-18.1,18.1,8.1,18.1,18.1-8.1,18.1-18.1,18.1Z"/>
        <rect class="cls-16" x="56.4" y="49" width="101.7" height="143.5"/>
        <path class="cls-16" d="M65.4,192.5h83.7v9.1c0,3.9-3.2,7.1-7.1,7.1h-69.4c-3.9,0-7.1-3.2-7.1-7.1v-9.1h0Z"/>
        <path class="cls-31" d="M571.9,121h-21.4v-4.6c0-.8-.6-1.4-1.4-1.4h-20.6c-.8,0-1.4.6-1.4,1.4v4.6h-21.4c-1,0-1.7.8-1.7,1.7v65.1c0,1,.8,1.7,1.7,1.7h66.3c1,0,1.7-.8,1.7-1.7v-65.1c0-1-.8-1.7-1.7-1.7Z"/>
        <circle class="cls-15" cx="538.8" cy="152.3" r="19.2"/>
        <g>
          <circle class="cls-31" cx="149.1" cy="301" r="35.2"/>
          <path class="cls-40" d="M130.1,276.5c-8.1,5.1-13.5,14.2-13.5,24.5s5.4,19.4,13.5,24.5v-49.1Z"/>
        </g>
        <g>
          <circle class="cls-31" cx="174.6" cy="399.9" r="35.2"/>
          <path class="cls-40" d="M167.3,369.8c-9.5,1.4-18.1,7.5-22.3,16.9s-2.9,19.9,2.4,27.9l19.9-44.9Z"/>
        </g>
        <rect class="cls-39" x="279" y="162.8" width="9.8" height="21.5"/>
        <rect class="cls-39" x="362.8" y="206.5" width="9.8" height="21.5"/>
        <rect class="cls-39" x="452" y="280.6" width="9.8" height="21.5" transform="translate(748.3 -165.6) rotate(90)"/>
        <rect class="cls-39" x="452" y="221.1" width="9.8" height="21.5" transform="translate(688.8 -225.1) rotate(90)"/>
        <rect class="cls-39" x="327.6" y="309.6" width="9.8" height="21.5"/>
        <rect class="cls-41" x="397.1" y="406.9" width="9.8" height="21.5"/>
        <rect class="cls-39" x="424" y="406.9" width="9.8" height="21.5"/>
        <rect class="cls-39" x="450.3" y="406.9" width="9.8" height="21.5"/>
        <rect class="cls-39" x="330.4" y="694.5" width="9.8" height="21.5" transform="translate(-369.9 1040.5) rotate(-90)"/>
        <rect class="cls-41" x="387.8" y="712.7" width="9.8" height="21.5"/>
        <rect class="cls-21" x="303.1" y="206.5" width="31.5" height="14.6" rx="1.5" ry="1.5"/>
        <g>
          <path class="cls-42" d="M305.7,194.1h12.2v11.5h-12.2c-.7,0-1.2-.6-1.2-1.2v-9c0-.7.6-1.2,1.2-1.2Z" transform="translate(511 -111.4) rotate(90)"/>
          <path class="cls-42" d="M320.9,194.1h12.2v11.5h-12.2c-.7,0-1.2-.6-1.2-1.2v-9c0-.7.6-1.2,1.2-1.2Z" transform="translate(526.2 -126.6) rotate(90)"/>
        </g>
        <g>
          <rect class="cls-13" x="423.6" y="379.8" width="10.7" height="17.2"/>
          <rect class="cls-21" x="423.6" y="382.4" width="10.7" height="11.8"/>
        </g>
        <g>
          <rect class="cls-13" x="449.9" y="379.8" width="10.7" height="17.2"/>
          <rect class="cls-21" x="449.9" y="382.4" width="10.7" height="11.8"/>
        </g>
        <g>
          <rect class="cls-13" x="309.6" y="346.4" width="10.7" height="17.2" transform="translate(-40.1 669.9) rotate(-90)"/>
          <rect class="cls-21" x="309.4" y="349.1" width="10.7" height="11.8" transform="translate(-40.2 669.8) rotate(-90)"/>
        </g>
        <g>
          <rect class="cls-13" x="254.5" y="346.4" width="10.7" height="17.2" transform="translate(-95.1 614.9) rotate(-90)"/>
          <rect class="cls-21" x="254.4" y="349.1" width="10.7" height="11.8" transform="translate(-95.3 614.7) rotate(-90)"/>
        </g>
        <g>
          <rect class="cls-13" x="387.8" y="682.4" width="10.7" height="17.2"/>
          <rect class="cls-21" x="387.8" y="685" width="10.7" height="11.8"/>
        </g>
        <g>
          <rect class="cls-13" x="330" y="716.6" width="10.7" height="17.2" transform="translate(-389.9 1060.6) rotate(-90)"/>
          <rect class="cls-21" x="329.8" y="719.3" width="10.7" height="11.8" transform="translate(-390.1 1060.4) rotate(-90)"/>
        </g>
        <g>
          <rect class="cls-13" x="478.4" y="129.7" width="10.7" height="17.2"/>
          <rect class="cls-21" x="478.4" y="132.2" width="10.7" height="11.8"/>
        </g>
        <g>
          <rect class="cls-13" x="338.8" y="130.7" width="10.7" height="17.2"/>
          <rect class="cls-21" x="338.8" y="133.2" width="10.7" height="11.8"/>
        </g>
        <rect class="cls-34" x="442.3" y="243.9" width="12.2" height="32.8" rx="3.7" ry="3.7"/>
        <g>
          <rect class="cls-30" x="370.4" y="495" width="22.3" height="17.8" rx="2.9" ry="2.9" transform="translate(-244.6 417.4) rotate(-45)"/>
          <rect class="cls-33" x="371.3" y="495.7" width="20.5" height="16.4" rx="2.9" ry="2.9" transform="translate(-244.6 417.4) rotate(-45)"/>
        </g>
        <rect class="cls-43" x="375.3" y="470.9" width="12.2" height="11"/>
        <rect class="cls-43" x="394.8" y="470.9" width="12.2" height="11"/>
        <rect class="cls-43" x="375.3" y="523.8" width="12.2" height="11"/>
        <rect class="cls-43" x="394.8" y="523.8" width="12.2" height="11"/>
        <rect class="cls-17" x="326.7" y="747.2" width="20.8" height="11" rx="2.8" ry="2.8"/>
        <g>
          <path class="cls-9" d="M31.7,117.2v-4.5h2.1v7.1h-1.5c-2.9-2.4-4.8-2.7-8.9-2.8v-2.5c3.4.2,5.6.7,8.3,2.7Z"/>
          <path class="cls-9" d="M28.3,121.2v4h-1.7v-4h1.7Z"/>
          <path class="cls-9" d="M25.3,127v2.2h5.9v-1.9h1.5c.2,1.1.5,1.8.9,2.6v1.8h-8.4v1.9h-2v-6.6h2Z"/>
          <path class="cls-9" d="M24.9,135c2.3,2.7,4.2,4.4,5.6,4.4s1.5-.5,1.5-1.4-.5-1.3-1-1.8l1.3-1.3c1.1,1,1.7,1.9,1.7,3.4s-1.3,3.4-3.3,3.4-3.8-1.7-5.4-3.3c0,.5.1,1.2.1,1.7v2.1h-2.1v-7.2h1.5Z"/>
          <path class="cls-9" d="M33.7,142.8v2.6l-4.8,1.1c-1.1.3-2.2.5-3.3.8h0c1.1.4,2.2.6,3.3.9l4.8,1.2v2.5l-10.4-3.2v-3l10.4-3.1Z"/>
          <path class="cls-9" d="M33.7,156.3v2.5h-10.4v-2.5h10.4Z"/>
          <path class="cls-9" d="M33.7,161.2v2.6l-5,2.6c-.7.4-1.5.7-2.4,1h0c1.1,0,2.6-.3,3.8-.3h3.5v2.4h-10.4v-2.6l5-2.6c.7-.4,1.5-.7,2.4-1h0c-1.2,0-2.6.3-3.8.3h-3.5v-2.4h10.4Z"/>
          <path class="cls-9" d="M33.7,171.9v3.7c0,2.3-.8,4.2-3.4,4.2s-3.6-1.9-3.6-4.1v-1.2h-3.5v-2.5h10.4ZM28.8,175.4c0,1.2.6,1.8,1.6,1.8s1.4-.7,1.4-1.9v-1h-3v1.1Z"/>
          <path class="cls-9" d="M28.2,181.4h5.5v2.5h-5.8c-2,0-2.7.6-2.7,1.7s.7,1.8,2.7,1.8h5.8v2.4h-5.5c-3.5,0-5.1-1.4-5.1-4.2s1.6-4.2,5.1-4.2Z"/>
          <path class="cls-9" d="M31.7,194.2v-2.8h2.1v8.1h-2.1v-2.8h-8.3v-2.5h8.3Z"/>
        </g>
        <g>
          <path class="cls-9" d="M589.1,130.8v3.8c0,2.2-.8,4.1-3.3,4.1s-2.5-.7-3-1.8l-4.1,2.3v-2.8l3.7-1.9v-1.2h-3.7v-2.5h10.4ZM584.3,134.4c0,1.2.5,1.8,1.5,1.8s1.3-.6,1.3-1.8v-1.1h-2.8v1.1Z"/>
          <path class="cls-9" d="M589.1,140.7v6.6h-2.1v-4.1h-2v3.5h-2.1v-3.5h-2.2v4.3h-2.1v-6.8h10.4Z"/>
          <path class="cls-9" d="M580,148.8l1.6,1.3c-.6.7-1,1.7-1,2.6s.4,1.4.9,1.4.8-.6,1.2-1.5l.6-1.3c.4-1.1,1.3-2.1,2.8-2.1s3.2,1.6,3.2,3.8-.5,2.5-1.3,3.4l-1.6-1.3c.5-.7.8-1.4.8-2.1s-.3-1.3-.8-1.3-.8.7-1.2,1.6l-.5,1.3c-.5,1.3-1.4,2.1-2.8,2.1s-3.3-1.5-3.3-4,.5-2.8,1.5-3.9Z"/>
          <path class="cls-9" d="M589.1,158.4v6.6h-2.1v-4.1h-2v3.5h-2.1v-3.5h-2.2v4.3h-2.1v-6.8h10.4Z"/>
          <path class="cls-9" d="M587,169.3v-2.8h2.1v8.1h-2.1v-2.8h-8.3v-2.5h8.3Z"/>
        </g>
        <g>
          <path class="cls-9" d="M372.2,791.5v2.5h-10.4v-2.5h10.4Z"/>
          <path class="cls-9" d="M366.9,795.9c3.5,0,5.5,2.3,5.5,5s-.6,2.4-1.4,3.2l-1.5-1.3c.5-.5.7-1.1.7-1.8,0-1.4-1.2-2.5-3.2-2.5s-3.3,1-3.3,2.4.3,1.5.9,2l-1.5,1.3c-1-.9-1.5-2.1-1.5-3.4,0-2.7,1.8-4.9,5.3-4.9Z"/>
          <path class="cls-9" d="M363.1,804.6l1.6,1.3c-.6.7-1,1.7-1,2.6s.4,1.4.9,1.4.8-.6,1.2-1.5l.6-1.3c.4-1.1,1.3-2.1,2.8-2.1s3.2,1.6,3.2,3.8-.5,2.5-1.3,3.4l-1.6-1.3c.5-.7.8-1.4.8-2.1s-.3-1.3-.8-1.3-.8.7-1.2,1.6l-.5,1.3c-.5,1.3-1.4,2.1-2.8,2.1s-3.3-1.5-3.3-4,.5-2.8,1.5-3.9Z"/>
          <path class="cls-9" d="M372.2,814.2v3.7c0,2.3-.8,4.2-3.4,4.2s-3.6-1.9-3.6-4.1v-1.2h-3.5v-2.5h10.4ZM367.2,817.8c0,1.2.6,1.8,1.6,1.8s1.4-.7,1.4-1.9v-1h-3v1.1Z"/>
        </g>
        <path class="cls-9" d="M389.2,743.4c-1.2,1-2,2.5-2,4.2,0,3,2.5,5.5,5.5,5.5s5.5-2.5,5.5-5.5-.8-3.2-2-4.2c-.4-.4-.5-1-.1-1.4s1-.5,1.4-.1c1.6,1.4,2.7,3.5,2.7,5.8,0,4.1-3.4,7.5-7.5,7.5s-7.5-3.4-7.5-7.5,1.1-4.4,2.7-5.8c.4-.4,1.1-.3,1.4.1.4.4.3,1.1-.1,1.4h0ZM393.7,747.7c0,.6-.4,1-1,1s-1-.4-1-1v-7c0-.6.4-1,1-1s1,.4,1,1v7Z"/>
        <polyline class="cls-8" points="36.5 274.8 43.2 274.8 105.8 337.5 116.6 337.5"/>
        <polyline class="cls-8" points="36.3 282.9 43.2 282.9 103.3 343.1 103.3 474.8 160.1 531.5 212.8 531.5 225 519.1 264 519.1"/>
        <polyline class="cls-8" points="33.8 310.4 45.2 310.4 87.3 352.6 87.3 475.6 157.2 545.4 268.8 545.4"/>
        <polyline class="cls-8" points="23.4 395.9 62.4 434.9 62.4 498.9 33.7 527.6"/>
        <line class="cls-11" x1="76.5" y1="477.7" x2="152.3" y2="553.5"/>
        <polyline class="cls-8" points="131.8 545 89.1 587.7 25 587.7"/>
        <polyline class="cls-8" points="131.8 555.6 91.8 595.7 26.5 595.7"/>
        <polyline class="cls-8" points="267.8 554.1 235.3 554.1 159.7 629.7 79.1 629.7 56.5 652.4 31.7 652.4"/>
        <polyline class="cls-8" points="249.9 563.2 249.9 609.5 180.1 679.3 31 679.3"/>
        <polyline class="cls-8" points="265.3 583.1 265.3 619.4 176.7 707.9 31.7 707.9"/>
        <polyline class="cls-8" points="274 582.9 274 622.1 159.2 736.9 25 736.9"/>
        <polyline class="cls-8" points="283 583.8 283 629.4 147.9 764.5 31 764.5"/>
        <polyline class="cls-8" points="291.5 587.8 291.5 637.2 135.2 793.6 31 793.6"/>
        <line class="cls-11" x1="329.2" y1="672.8" x2="292.6" y2="636.2"/>
        <polyline class="cls-8" points="331.6 689.1 306.4 663.9 280.6 663.9"/>
        <polyline class="cls-8" points="344.9 696.8 344.9 638.1 300.2 593.4 300.2 574"/>
        <polyline class="cls-8" points="278.9 811.7 262.6 795.3 262.6 730.6 287.9 705.3"/>
        <polyline class="cls-8" points="308.7 582.4 308.7 593.3 362.2 646.8 402 646.8 507.3 752.1 507.3 781.3 519.1 793 564.2 793"/>
        <polyline class="cls-8" points="317.5 583.5 317.5 594.4 359.9 636.7 421.9 636.7 569.1 783.9"/>
        <polyline class="cls-8" points="327.6 583 368.4 623.8 434 623.8 574.4 764.3"/>
        <polyline class="cls-8" points="346.2 562.4 400.6 562.4 571.7 733.5"/>
        <polyline class="cls-8" points="347.5 554.1 407.7 554.1 574 720.3"/>
        <polyline class="cls-8" points="496.5 573.9 489.6 567 443.5 567"/>
        <polyline class="cls-8" points="347.5 510.5 358.7 510.5 367.5 519.3 378.2 519.3"/>
        <polyline class="cls-8" points="347.3 501.6 357.3 501.6 367.9 491 381.1 491"/>
        <polyline class="cls-8" points="325.9 478 342.3 461.6 412.2 461.6 567.3 616.7"/>
        <polyline class="cls-8" points="317.4 479.8 317.4 475.3 336.9 455.7 415.2 455.7 575.5 616.1"/>
        <polyline class="cls-8" points="308.7 479.8 308.7 471.4 329 451.1 418.9 451.1 575.3 607.5"/>
        <polyline class="cls-8" points="300.1 478.2 300.1 470 323.9 446.2 419.3 446.2 576.8 603.7"/>
        <polyline class="cls-8" points="291.5 477.7 291.5 465.8 316.5 440.8 420.5 440.8 580.9 601.3"/>
        <polyline class="cls-8" points="282.6 479.4 282.6 457.6 303.9 437.5 425.5 437.5 480.6 492.6 580.9 492.6"/>
        <polyline class="cls-8" points="274 477.5 274 454.2 297.7 432.3 427.3 432.3 458.6 463.6 579.5 463.6"/>
        <polyline class="cls-8" points="265.3 477 265.3 453 287.3 431 290.7 427.6"/>
        <polyline class="cls-8" points="221.7 495.1 221.7 466 290 397.7 315.9 397.7 322.9 404.7 372.7 404.7 400.1 377.3 427.2 377.3"/>
        <polyline class="cls-8" points="210.7 392.2 314.8 392.2 335.6 371.4 354.8 371.4"/>
        <polyline class="cls-8" points="287.1 321.7 287.1 332.4 278.1 341.4 260.7 341.4 248.1 328.8 248.1 319.5 248.1 294.4"/>
        <polyline class="cls-8" points="227.3 263.7 227.3 255.5 232.8 250 249.8 250"/>
        <polyline class="cls-8" points="191.6 241.4 237.9 241.4 258.4 220.9 258.4 199"/>
        <polyline class="cls-8" points="319.6 227.9 333.5 227.9 342.1 219.3 342.1 186.7 314.1 158.7 298.4 158.7 276.4 136.7"/>
        <polyline class="cls-8" points="286.4 133.2 300.2 147.1 311.7 147.1"/>
        <polyline class="cls-8" points="323.7 130.7 323.7 151 344.9 172.1 380.4 172.1 385.1 167.5 385.1 138.3"/>
        <path class="cls-8" d="M403,248.2v-48.4"/>
        <path class="cls-8" d="M418.6,199.8v22"/>
        <polyline class="cls-8" points="416.1 255.5 428.5 255.5 440.5 243.5"/>
        <polyline class="cls-8" points="416 269.2 428.9 269.2 441 281.3"/>
        <line class="cls-8" x1="416.5" y1="310.4" x2="440.1" y2="310.4"/>
        <line class="cls-8" x1="414.3" y1="324.5" x2="442.3" y2="324.5"/>
        <polyline class="cls-8" points="416 337.8 427.2 337.8 442.3 337.8"/>
        <line class="cls-8" x1="563.4" y1="200.7" x2="530.9" y2="233.2"/>
        <g>
          <rect class="cls-21" x="257.7" y="494.2" width="76" height="76" rx="5.9" ry="5.9"/>
          <circle class="cls-2" cx="322.8" cy="558.3" r="4.8"/>
          <g>
            <path class="cls-42" d="M240.8,498.9h16.9v5.9h-16.9c-.7,0-1.2-.6-1.2-1.2v-3.4c0-.7.6-1.2,1.2-1.2Z"/>
            <path class="cls-42" d="M240.8,507.5h16.9v5.9h-16.9c-.7,0-1.2-.6-1.2-1.2v-3.4c0-.7.6-1.2,1.2-1.2Z"/>
            <path class="cls-42" d="M240.8,516.2h16.9v5.9h-16.9c-.7,0-1.2-.6-1.2-1.2v-3.4c0-.7.6-1.2,1.2-1.2Z"/>
            <path class="cls-42" d="M240.8,524.9h16.9v5.9h-16.9c-.7,0-1.2-.6-1.2-1.2v-3.4c0-.7.6-1.2,1.2-1.2Z"/>
            <path class="cls-42" d="M240.8,533.6h16.9v5.9h-16.9c-.7,0-1.2-.6-1.2-1.2v-3.4c0-.7.6-1.2,1.2-1.2Z"/>
            <path class="cls-42" d="M240.8,542.3h16.9v5.9h-16.9c-.7,0-1.2-.6-1.2-1.2v-3.4c0-.7.6-1.2,1.2-1.2Z"/>
            <path class="cls-42" d="M240.8,551h16.9v5.9h-16.9c-.7,0-1.2-.6-1.2-1.2v-3.4c0-.7.6-1.2,1.2-1.2Z"/>
            <path class="cls-42" d="M240.8,559.7h16.9v5.9h-16.9c-.7,0-1.2-.6-1.2-1.2v-3.4c0-.7.6-1.2,1.2-1.2Z"/>
          </g>
          <g>
            <path class="cls-42" d="M318.3,482.2h16.9v5.9h-16.9c-.7,0-1.2-.6-1.2-1.2v-3.4c0-.7.6-1.2,1.2-1.2Z" transform="translate(811.3 159.1) rotate(90)"/>
            <path class="cls-42" d="M309.6,482.2h16.9v5.9h-16.9c-.7,0-1.2-.6-1.2-1.2v-3.4c0-.7.6-1.2,1.2-1.2Z" transform="translate(802.6 167.7) rotate(90)"/>
            <path class="cls-42" d="M300.9,482.2h16.9v5.9h-16.9c-.7,0-1.2-.6-1.2-1.2v-3.4c0-.7.6-1.2,1.2-1.2Z" transform="translate(793.9 176.4) rotate(90)"/>
            <path class="cls-42" d="M292.2,482.2h16.9v5.9h-16.9c-.7,0-1.2-.6-1.2-1.2v-3.4c0-.7.6-1.2,1.2-1.2Z" transform="translate(785.2 185.1) rotate(90)"/>
            <path class="cls-42" d="M283.5,482.2h16.9v5.9h-16.9c-.7,0-1.2-.6-1.2-1.2v-3.4c0-.7.6-1.2,1.2-1.2Z" transform="translate(776.5 193.8) rotate(90)"/>
            <path class="cls-42" d="M274.8,482.2h16.9v5.9h-16.9c-.7,0-1.2-.6-1.2-1.2v-3.4c0-.7.6-1.2,1.2-1.2Z" transform="translate(767.8 202.5) rotate(90)"/>
            <path class="cls-42" d="M266.1,482.2h16.9v5.9h-16.9c-.7,0-1.2-.6-1.2-1.2v-3.4c0-.7.6-1.2,1.2-1.2Z" transform="translate(759.1 211.2) rotate(90)"/>
            <path class="cls-42" d="M257.4,482.2h16.9v5.9h-16.9c-.7,0-1.2-.6-1.2-1.2v-3.4c0-.7.6-1.2,1.2-1.2Z" transform="translate(750.4 219.9) rotate(90)"/>
          </g>
          <g>
            <path class="cls-42" d="M257.4,576.3h16.9v5.9h-16.9c-.7,0-1.2-.6-1.2-1.2v-3.4c0-.7.6-1.2,1.2-1.2Z" transform="translate(-314 844.5) rotate(-90)"/>
            <path class="cls-42" d="M266.1,576.3h16.9v5.9h-16.9c-.7,0-1.2-.6-1.2-1.2v-3.4c0-.7.6-1.2,1.2-1.2Z" transform="translate(-305.3 853.2) rotate(-90)"/>
            <path class="cls-42" d="M274.8,576.3h16.9v5.9h-16.9c-.7,0-1.2-.6-1.2-1.2v-3.4c0-.7.6-1.2,1.2-1.2Z" transform="translate(-296.6 861.9) rotate(-90)"/>
            <path class="cls-42" d="M283.5,576.3h16.9v5.9h-16.9c-.7,0-1.2-.6-1.2-1.2v-3.4c0-.7.6-1.2,1.2-1.2Z" transform="translate(-287.9 870.6) rotate(-90)"/>
            <path class="cls-42" d="M292.2,576.3h16.9v5.9h-16.9c-.7,0-1.2-.6-1.2-1.2v-3.4c0-.7.6-1.2,1.2-1.2Z" transform="translate(-279.2 879.3) rotate(-90)"/>
            <path class="cls-42" d="M300.9,576.3h16.9v5.9h-16.9c-.7,0-1.2-.6-1.2-1.2v-3.4c0-.7.6-1.2,1.2-1.2Z" transform="translate(-270.5 888) rotate(-90)"/>
            <path class="cls-42" d="M309.6,576.3h16.9v5.9h-16.9c-.7,0-1.2-.6-1.2-1.2v-3.4c0-.7.6-1.2,1.2-1.2Z" transform="translate(-261.8 896.7) rotate(-90)"/>
            <path class="cls-42" d="M318.3,576.3h16.9v5.9h-16.9c-.7,0-1.2-.6-1.2-1.2v-3.4c0-.7.6-1.2,1.2-1.2Z" transform="translate(-253.2 905.4) rotate(-90)"/>
          </g>
          <g>
            <path class="cls-42" d="M334.9,559.4h16.9v5.9h-16.9c-.7,0-1.2-.6-1.2-1.2v-3.4c0-.7.6-1.2,1.2-1.2Z" transform="translate(685.5 1124.7) rotate(180)"/>
            <path class="cls-42" d="M334.9,550.7h16.9v5.9h-16.9c-.7,0-1.2-.6-1.2-1.2v-3.4c0-.7.6-1.2,1.2-1.2Z" transform="translate(685.5 1107.3) rotate(180)"/>
            <path class="cls-42" d="M334.9,542h16.9v5.9h-16.9c-.7,0-1.2-.6-1.2-1.2v-3.4c0-.7.6-1.2,1.2-1.2Z" transform="translate(685.5 1090) rotate(180)"/>
            <path class="cls-42" d="M334.9,533.4h16.9v5.9h-16.9c-.7,0-1.2-.6-1.2-1.2v-3.4c0-.7.6-1.2,1.2-1.2Z" transform="translate(685.5 1072.6) rotate(180)"/>
            <path class="cls-42" d="M334.9,524.7h16.9v5.9h-16.9c-.7,0-1.2-.6-1.2-1.2v-3.4c0-.7.6-1.2,1.2-1.2Z" transform="translate(685.5 1055.2) rotate(180)"/>
            <path class="cls-42" d="M334.9,516h16.9v5.9h-16.9c-.7,0-1.2-.6-1.2-1.2v-3.4c0-.7.6-1.2,1.2-1.2Z" transform="translate(685.5 1037.8) rotate(180)"/>
            <path class="cls-42" d="M334.9,507.3h16.9v5.9h-16.9c-.7,0-1.2-.6-1.2-1.2v-3.4c0-.7.6-1.2,1.2-1.2Z" transform="translate(685.5 1020.4) rotate(180)"/>
            <path class="cls-42" d="M334.9,498.6h16.9v5.9h-16.9c-.7,0-1.2-.6-1.2-1.2v-3.4c0-.7.6-1.2,1.2-1.2Z" transform="translate(685.5 1003) rotate(180)"/>
          </g>
        </g>
        <path class="cls-9" d="M247.5,657.4v7.2c0,1.3,0,2.5-.1,3.5,0,.8-.2,1.6-.4,2.4-.2.7-.5,1.3-.8,1.9-.5.7-1,1.4-1.6,2-.6.7-1.5,1.2-2.5,1.6-1.1.3-2.3.5-3.7.5h-6v-7.4h3.7c.5,0,.9,0,1.4-.2.3-.1.6-.3.9-.6.2-.3.4-.7.5-1.1.1-.6.2-1.2.2-1.7v-7.9h8.5ZM233.1,680.8h95v3.1h-95v-3.1ZM247.5,645.5v7.4h-8.5v-7.4h8.5ZM267.8,644.9c1.1,0,2.3,0,3.4.3,1,.2,2.1.5,3.1.9,1,.4,1.9.9,2.7,1.4.9.6,1.7,1.2,2.4,2,.7.7,1.4,1.6,1.9,2.4.6.9,1,1.8,1.4,2.7.4,1,.7,2,.8,3.1.2,1.1.3,2.3.3,3.4,0,1.1,0,2.2-.3,3.3-.2,1-.5,2-.8,3-.4.9-.8,1.9-1.4,2.7-.6.9-1.2,1.7-1.9,2.4-.7.7-1.5,1.4-2.4,2-.8.6-1.7,1-2.7,1.4-1,.4-2,.7-3,.9-1.1.2-2.2.3-3.3.3-1.1,0-2.3,0-3.4-.3-1-.2-2.1-.5-3.1-.8-1-.4-1.9-.8-2.7-1.4-1.7-1.1-3.2-2.6-4.4-4.4-.6-.9-1-1.8-1.4-2.7-.4-1-.7-2-.9-3-.4-2.2-.4-4.5,0-6.7.2-1,.5-2.1.9-3,.4-1,.8-1.9,1.4-2.7.6-.9,1.2-1.7,2-2.5.7-.8,1.5-1.4,2.4-2,.8-.6,1.7-1.1,2.7-1.4,1-.4,2-.7,3-.9,1.1-.2,2.2-.3,3.3-.3h0ZM267.8,652c-1,0-2,.2-3,.6-.9.4-1.6,1-2.2,1.8-.6.8-1.1,1.8-1.4,2.8-.3,1.1-.5,2.3-.5,3.7,0,1.3.1,2.5.5,3.8.3,1,.8,2,1.4,2.9.6.8,1.4,1.4,2.3,1.8.9.4,1.9.6,3,.6,1,0,2-.2,3-.6.9-.4,1.6-1,2.2-1.8.6-.9,1.1-1.8,1.4-2.8.3-1.1.5-2.4.5-3.8,0-1.2-.1-2.5-.5-3.7-.3-1-.8-2-1.4-2.8-.6-.8-1.4-1.4-2.3-1.8-.9-.4-1.9-.6-3-.6h0ZM287.2,645.5h8.5v7.7c0,1.6.3,2.8.9,3.6s1.6,1.2,2.8,1.2c1.3,0,2.3-.4,2.9-1.3s1-2.1,1-3.8v-7.4h8.4v5.4c0,1.3,0,2.5-.2,3.6,0,.9-.2,1.8-.5,2.7-.3.9-.6,1.7-1.1,2.5-.6,1-1.3,1.9-2,2.7-.4.5-.9.9-1.5,1.3-.6.4-1.2.7-1.9.9-.8.3-1.6.4-2.4.5-.9.1-1.9.2-2.8.2-.9,0-1.8,0-2.7-.2-.8-.1-1.5-.3-2.3-.5-.7-.2-1.3-.5-1.9-.9-.5-.3-1-.7-1.5-1.2-.8-.8-1.5-1.7-2.1-2.6-.5-.7-.9-1.5-1.2-2.4-.3-.9-.4-1.8-.5-2.7-.1-1.1-.2-2.3-.2-3.4v-6.1ZM306.5,669.1v7.4h-14.2v-7.4h14.2ZM310.5,638.7h56.8v2.9h-56.8v-2.9ZM314.2,659h18.3v7.3h-18.3v-7.3ZM344.2,645.5v7.4h-8.5v-7.4h8.5ZM344.2,657.4v19.1h-8.5v-19.1h8.5ZM368.7,645.5v7.4h-19.9v-7.4h19.9ZM350.2,657.4h8.4v7.7c0,.7,0,1.3.2,2,.1.5.3.9.5,1.2.2.2.6.4,1.1.6.6.1,1.2.2,1.8.2h5.5v7.4h-7.9c-.8,0-1.6,0-2.3-.2-.7,0-1.4-.3-2-.5-.6-.2-1.1-.5-1.7-.8-.5-.3-.9-.7-1.3-1.1-.4-.4-.7-.9-1-1.5-.3-.6-.5-1.2-.7-1.9-.2-.8-.3-1.5-.4-2.3,0-.9-.1-1.8-.1-2.7v-8.1Z"/>
        <rect class="cls-39" x="209.4" y="485.9" width="9.8" height="21.5" transform="translate(-282.4 711) rotate(-90)"/>
        <rect class="cls-39" x="349.9" y="369.7" width="9.8" height="21.5"/>
        <g>
          <rect class="cls-21" x="268.5" y="273.1" width="50.5" height="39.3" rx="2.5" ry="2.5"/>
          <circle class="cls-2" cx="272.7" cy="304.4" r="2.7"/>
          <g>
            <path class="cls-42" d="M268.3,316.1h12.2v6.1h-12.2c-.7,0-1.2-.6-1.2-1.2v-3.6c0-.7.6-1.2,1.2-1.2Z" transform="translate(-45.3 592.9) rotate(-90)"/>
            <path class="cls-42" d="M281.6,316.1h12.2v6.1h-12.2c-.7,0-1.2-.6-1.2-1.2v-3.6c0-.7.6-1.2,1.2-1.2Z" transform="translate(-32 606.2) rotate(-90)"/>
            <path class="cls-42" d="M294.9,316.1h12.2v6.1h-12.2c-.7,0-1.2-.6-1.2-1.2v-3.6c0-.7.6-1.2,1.2-1.2Z" transform="translate(-18.7 619.5) rotate(-90)"/>
            <path class="cls-42" d="M308.2,316.1h12.2v6.1h-12.2c-.7,0-1.2-.6-1.2-1.2v-3.6c0-.7.6-1.2,1.2-1.2Z" transform="translate(-5.4 632.8) rotate(-90)"/>
          </g>
          <g>
            <path class="cls-42" d="M308.2,263.3h12.2v6.1h-12.2c-.7,0-1.2-.6-1.2-1.2v-3.6c0-.7.6-1.2,1.2-1.2Z" transform="translate(580.1 -47.3) rotate(90)"/>
            <path class="cls-42" d="M294.9,263.3h12.2v6.1h-12.2c-.7,0-1.2-.6-1.2-1.2v-3.6c0-.7.6-1.2,1.2-1.2Z" transform="translate(566.8 -34) rotate(90)"/>
            <path class="cls-42" d="M281.6,263.3h12.2v6.1h-12.2c-.7,0-1.2-.6-1.2-1.2v-3.6c0-.7.6-1.2,1.2-1.2Z" transform="translate(553.5 -20.7) rotate(90)"/>
            <path class="cls-42" d="M268.3,263.3h12.2v6.1h-12.2c-.7,0-1.2-.6-1.2-1.2v-3.6c0-.7.6-1.2,1.2-1.2Z" transform="translate(540.2 -7.4) rotate(90)"/>
          </g>
        </g>
        <g>
          <g>
            <path class="cls-42" d="M222.5,290.6h12.2v9.6h-12.2c-.7,0-1.2-.6-1.2-1.2v-7.1c0-.7.6-1.2,1.2-1.2Z" transform="translate(-67.4 523.5) rotate(-90)"/>
            <path class="cls-42" d="M242.2,290.6h12.2v9.6h-12.2c-.7,0-1.2-.6-1.2-1.2v-7.1c0-.7.6-1.2,1.2-1.2Z" transform="translate(-47.7 543.1) rotate(-90)"/>
          </g>
          <g>
            <path class="cls-42" d="M221.9,262.6h12.2v6.1h-12.2c-.7,0-1.2-.6-1.2-1.2v-3.6c0-.7.6-1.2,1.2-1.2Z" transform="translate(493 38.3) rotate(90)"/>
            <path class="cls-42" d="M232.4,262.6h12.2v6.1h-12.2c-.7,0-1.2-.6-1.2-1.2v-3.6c0-.7.6-1.2,1.2-1.2Z" transform="translate(503.5 27.8) rotate(90)"/>
            <path class="cls-42" d="M242.9,262.6h12.2v6.1h-12.2c-.7,0-1.2-.6-1.2-1.2v-3.6c0-.7.6-1.2,1.2-1.2Z" transform="translate(514 17.3) rotate(90)"/>
          </g>
          <rect class="cls-21" x="222.6" y="272.4" width="30.4" height="16.3" rx=".7" ry=".7"/>
        </g>
        <rect class="cls-39" x="234.1" y="308.8" width="9.8" height="21.5" transform="translate(-80.5 558.6) rotate(-90)"/>
        <g>
          <rect class="cls-21" x="366" y="250" width="34.4" height="107"/>
          <g>
            <path class="cls-42" d="M349.1,252.6h16.9v5.9h-16.9c-.7,0-1.2-.6-1.2-1.2v-3.4c0-.7.6-1.2,1.2-1.2Z"/>
            <path class="cls-42" d="M349.1,266.3h16.9v5.9h-16.9c-.7,0-1.2-.6-1.2-1.2v-3.4c0-.7.6-1.2,1.2-1.2Z"/>
            <path class="cls-42" d="M349.1,280h16.9v5.9h-16.9c-.7,0-1.2-.6-1.2-1.2v-3.4c0-.7.6-1.2,1.2-1.2Z"/>
            <path class="cls-42" d="M349.1,293.7h16.9v5.9h-16.9c-.7,0-1.2-.6-1.2-1.2v-3.4c0-.7.6-1.2,1.2-1.2Z"/>
            <path class="cls-42" d="M349.1,307.5h16.9v5.9h-16.9c-.7,0-1.2-.6-1.2-1.2v-3.4c0-.7.6-1.2,1.2-1.2Z"/>
            <path class="cls-42" d="M349.1,321.2h16.9v5.9h-16.9c-.7,0-1.2-.6-1.2-1.2v-3.4c0-.7.6-1.2,1.2-1.2Z"/>
            <path class="cls-42" d="M349.1,334.9h16.9v5.9h-16.9c-.7,0-1.2-.6-1.2-1.2v-3.4c0-.7.6-1.2,1.2-1.2Z"/>
            <path class="cls-42" d="M349.1,348.6h16.9v5.9h-16.9c-.7,0-1.2-.6-1.2-1.2v-3.4c0-.7.6-1.2,1.2-1.2Z"/>
          </g>
          <g>
            <path class="cls-42" d="M401.6,348.6h16.9v5.9h-16.9c-.7,0-1.2-.6-1.2-1.2v-3.4c0-.7.6-1.2,1.2-1.2Z" transform="translate(818.8 703.1) rotate(180)"/>
            <path class="cls-42" d="M401.6,334.9h16.9v5.9h-16.9c-.7,0-1.2-.6-1.2-1.2v-3.4c0-.7.6-1.2,1.2-1.2Z" transform="translate(818.8 675.7) rotate(180)"/>
            <path class="cls-42" d="M401.6,321.2h16.9v5.9h-16.9c-.7,0-1.2-.6-1.2-1.2v-3.4c0-.7.6-1.2,1.2-1.2Z" transform="translate(818.8 648.2) rotate(180)"/>
            <path class="cls-42" d="M401.6,307.5h16.9v5.9h-16.9c-.7,0-1.2-.6-1.2-1.2v-3.4c0-.7.6-1.2,1.2-1.2Z" transform="translate(818.8 620.8) rotate(180)"/>
            <path class="cls-42" d="M401.6,293.7h16.9v5.9h-16.9c-.7,0-1.2-.6-1.2-1.2v-3.4c0-.7.6-1.2,1.2-1.2Z" transform="translate(818.8 593.3) rotate(180)"/>
            <path class="cls-42" d="M401.6,280h16.9v5.9h-16.9c-.7,0-1.2-.6-1.2-1.2v-3.4c0-.7.6-1.2,1.2-1.2Z" transform="translate(818.8 565.9) rotate(180)"/>
            <path class="cls-42" d="M401.6,266.3h16.9v5.9h-16.9c-.7,0-1.2-.6-1.2-1.2v-3.4c0-.7.6-1.2,1.2-1.2Z" transform="translate(818.8 538.4) rotate(180)"/>
            <path class="cls-42" d="M401.6,252.6h16.9v5.9h-16.9c-.7,0-1.2-.6-1.2-1.2v-3.4c0-.7.6-1.2,1.2-1.2Z" transform="translate(818.8 511) rotate(180)"/>
          </g>
          <circle class="cls-2" cx="392.3" cy="347.1" r="4.9"/>
        </g>
        <rect class="cls-39" x="445" y="296.7" width="9.8" height="21.5" transform="translate(757.3 -142.4) rotate(90)"/>
        <g>
          <rect class="cls-13" x="444.5" y="316" width="10.7" height="17.2" transform="translate(774.5 -125.2) rotate(90)"/>
          <rect class="cls-21" x="444.7" y="318.7" width="10.7" height="11.8" transform="translate(774.7 -125.4) rotate(90)"/>
        </g>
        <g>
          <rect class="cls-13" x="444.5" y="333.6" width="10.7" height="17.2" transform="translate(792.1 -107.6) rotate(90)"/>
          <rect class="cls-21" x="444.7" y="336.3" width="10.7" height="11.8" transform="translate(792.3 -107.8) rotate(90)"/>
        </g>
        <g>
          <rect class="cls-13" x="397.7" y="184.8" width="10.7" height="17.2"/>
          <rect class="cls-21" x="397.7" y="187.3" width="10.7" height="11.8"/>
        </g>
        <g>
          <rect class="cls-13" x="413.2" y="184.7" width="10.7" height="17.2"/>
          <rect class="cls-21" x="413.2" y="187.2" width="10.7" height="11.8"/>
        </g>
        <path class="cls-42" d="M312.5,222.1h12.2v11.5h-12.2c-.7,0-1.2-.6-1.2-1.2v-9c0-.7.6-1.2,1.2-1.2Z" transform="translate(90.1 545.9) rotate(-90)"/>
        <g>
          <rect class="cls-12" x="275.2" y="102.9" width="51.5" height="35.1"/>
          <rect class="cls-19" x="287.5" y="102.9" width="26.7" height="35.1"/>
        </g>
        <g>
          <path class="cls-31" d="M370.5,68.8h0s87.6,0,87.6,0h0c2.7,1.4,4.4,4.2,4.4,7.3v70.1c0,1-.8,1.8-1.8,1.8h-92.8c-1,0-1.8-.8-1.8-1.8v-70.1c0-3,1.7-5.8,4.4-7.3Z"/>
          <g>
            <path class="cls-29" d="M445.2,142.1h0c0-1.3-1.1-2.4-2.4-2.4h-9.9c-.8,0-1.5-.7-1.5-1.5v-2.1c0-.8.7-1.5,1.5-1.5h9.9c1.3,0,2.4-1.1,2.4-2.4h0c0-1.3-1.1-2.4-2.4-2.4h-14c-1.3,0-2.4,1.1-2.4,2.4v10c0,1.3,1.1,2.4,2.4,2.4h14c1.3,0,2.4-1.1,2.4-2.4Z"/>
            <path class="cls-29" d="M383.3,132.1h0c0,1.3,1.1,2.4,2.4,2.4h9.9c.8,0,1.5.7,1.5,1.5v2.1c0,.8-.7,1.5-1.5,1.5h-9.9c-1.3,0-2.4,1.1-2.4,2.4h0c0,1.3,1.1,2.4,2.4,2.4h14c1.3,0,2.4-1.1,2.4-2.4v-10c0-1.3-1.1-2.4-2.4-2.4h-14c-1.3,0-2.4,1.1-2.4,2.4Z"/>
          </g>
        </g>
        <g>
          <rect class="cls-21" x="198.6" y="149.7" width="69.5" height="37" rx="1.2" ry="1.2"/>
          <g>
            <path class="cls-42" d="M200.1,192.8h16.9v5.9h-16.9c-.7,0-1.2-.6-1.2-1.2v-3.4c0-.7.6-1.2,1.2-1.2Z" transform="translate(12.2 403.7) rotate(-90)"/>
            <path class="cls-42" d="M225.5,192.8h16.9v5.9h-16.9c-.7,0-1.2-.6-1.2-1.2v-3.4c0-.7.6-1.2,1.2-1.2Z" transform="translate(37.6 429.1) rotate(-90)"/>
            <path class="cls-42" d="M250.9,192.8h16.9v5.9h-16.9c-.7,0-1.2-.6-1.2-1.2v-3.4c0-.7.6-1.2,1.2-1.2Z" transform="translate(62.9 454.5) rotate(-90)"/>
          </g>
          <path class="cls-42" d="M219.6,119.2h25.6v34.3h-25.6c-.7,0-1.2-.6-1.2-1.2v-31.8c0-.7.6-1.2,1.2-1.2Z" transform="translate(368.1 -95.4) rotate(90)"/>
        </g>
        <rect class="cls-21" x="150.8" y="227.9" width="48.4" height="27.1"/>
        <g>
          <rect class="cls-31" x="16.4" y="271" width="20" height="20"/>
          <circle class="cls-28" cx="26.5" cy="281.1" r="7.4"/>
          <rect class="cls-31" x="16.4" y="299.7" width="20" height="20"/>
          <circle class="cls-28" cx="26.5" cy="309.7" r="7.4"/>
          <rect class="cls-31" x="16.4" y="328.4" width="20" height="20"/>
          <circle class="cls-28" cx="26.5" cy="338.4" r="7.4"/>
          <rect class="cls-31" x="16.4" y="357" width="20" height="20"/>
          <circle class="cls-28" cx="26.5" cy="367" r="7.4"/>
        </g>
        <g>
          <rect class="cls-18" x="9.8" y="383.4" width="33.4" height="240.9"/>
          <rect x="16.6" y="386.1" width="19.6" height="19.6"/>
          <rect x="16.6" y="416.6" width="19.6" height="19.6"/>
          <rect x="16.6" y="447.1" width="19.6" height="19.6"/>
          <rect x="16.6" y="477.7" width="19.6" height="19.6"/>
          <rect x="16.6" y="508.2" width="19.6" height="19.6"/>
          <rect x="16.6" y="538.7" width="19.6" height="19.6"/>
          <rect x="16.6" y="569.2" width="19.6" height="19.6"/>
          <rect x="16.6" y="599.7" width="19.6" height="19.6"/>
        </g>
        <g>
          <rect class="cls-18" x="9.8" y="630" width="33.4" height="178.8"/>
          <g>
            <rect x="16.6" y="633.3" width="19.6" height="19.6"/>
            <rect x="16.6" y="663.8" width="19.6" height="19.6"/>
            <rect x="16.6" y="694.3" width="19.6" height="19.6"/>
            <rect x="16.6" y="724.8" width="19.6" height="19.6"/>
            <rect x="16.6" y="755.3" width="19.6" height="19.6"/>
            <rect x="16.6" y="785.8" width="19.6" height="19.6"/>
          </g>
        </g>
        <g>
          <path class="cls-9" d="M50.8,421.6h2.5v10.4h-2.5v-10.4Z"/>
          <path class="cls-9" d="M55.2,426.8c0-3.4,1.9-5.4,4.8-5.4s4.8,2,4.8,5.4-1.9,5.4-4.8,5.4-4.8-2-4.8-5.4ZM62.2,426.8c0-2-.8-3.2-2.2-3.2s-2.2,1.2-2.2,3.2.9,3.3,2.2,3.3,2.2-1.3,2.2-3.3Z"/>
          <path class="cls-9" d="M66.7,421.6h3.8c2.2,0,4.1.8,4.1,3.3s-.7,2.5-1.8,3l2.3,4.1h-2.8l-1.9-3.7h-1.2v3.7h-2.5v-10.4ZM70.3,426.4c1.2,0,1.8-.5,1.8-1.5s-.6-1.3-1.8-1.3h-1.1v2.8h1.1Z"/>
          <path class="cls-9" d="M76.6,421.6h6.6v2.1h-4.1v2h3.5v2.1h-3.5v2.2h4.3v2.1h-6.8v-10.4Z"/>
          <path class="cls-9" d="M85.4,421.6h6.7v2.1h-4.2v2.3h3.6v2.1h-3.6v4h-2.5v-10.4Z"/>
        </g>
        <g>
          <path class="cls-9" d="M52,452.1h3.8c2.2,0,4.1.8,4.1,3.3s-.7,2.5-1.8,3l2.3,4.1h-2.8l-1.9-3.7h-1.2v3.7h-2.5v-10.4ZM55.7,456.9c1.2,0,1.8-.5,1.8-1.5s-.6-1.3-1.8-1.3h-1.1v2.8h1.1Z"/>
          <path class="cls-9" d="M61.9,452.1h6.6v2.1h-4.1v2h3.5v2.1h-3.5v2.2h4.3v2.1h-6.8v-10.4Z"/>
          <path class="cls-9" d="M70,461.2l1.3-1.6c.7.6,1.7,1,2.6,1s1.4-.4,1.4-.9-.6-.8-1.5-1.2l-1.3-.6c-1.1-.4-2.1-1.3-2.1-2.8s1.6-3.2,3.8-3.2,2.5.5,3.4,1.3l-1.3,1.6c-.7-.5-1.4-.8-2.1-.8s-1.3.3-1.3.8.7.8,1.6,1.2l1.3.5c1.3.5,2.1,1.4,2.1,2.8s-1.5,3.3-4,3.3-2.8-.5-3.9-1.5Z"/>
          <path class="cls-9" d="M79.6,452.1h6.6v2.1h-4.1v2h3.5v2.1h-3.5v2.2h4.3v2.1h-6.8v-10.4Z"/>
          <path class="cls-9" d="M90.5,454.2h-2.8v-2.1h8.1v2.1h-2.8v8.3h-2.5v-8.3Z"/>
        </g>
        <g>
          <path class="cls-9" d="M52.4,491.8l1.1-1.6c.6.6,1.4,1,2.2,1s1.6-.4,1.6-1.2-.5-1.4-2.7-1.4v-1.8c1.8,0,2.3-.5,2.3-1.4s-.4-1.1-1.2-1.1-1.2.3-1.9.9l-1.2-1.5c.9-.8,2-1.3,3.2-1.3,2.2,0,3.6,1,3.6,2.9s-.6,1.8-1.7,2.3h0c1.2.4,2,1.2,2,2.6,0,2-1.8,3-3.8,3s-2.8-.6-3.6-1.4Z"/>
          <path class="cls-9" d="M61.5,491.7c0-.9.6-1.5,1.5-1.5s1.5.7,1.5,1.5-.6,1.5-1.5,1.5-1.5-.7-1.5-1.5Z"/>
          <path class="cls-9" d="M65.8,491.8l1.1-1.6c.6.6,1.4,1,2.2,1s1.6-.4,1.6-1.2-.5-1.4-2.7-1.4v-1.8c1.8,0,2.3-.5,2.3-1.4s-.4-1.1-1.2-1.1-1.2.3-1.9.9l-1.2-1.5c.9-.8,2-1.3,3.2-1.3,2.2,0,3.6,1,3.6,2.9s-.6,1.8-1.7,2.3h0c1.2.4,2,1.2,2,2.6,0,2-1.8,3-3.8,3s-2.8-.6-3.6-1.4Z"/>
          <path class="cls-9" d="M73.9,482.7h2.6l1.1,4.8c.3,1.1.5,2.2.8,3.3h0c.3-1.1.5-2.2.8-3.3l1.2-4.8h2.5l-3.2,10.4h-3l-3.1-10.4Z"/>
        </g>
        <g>
          <path class="cls-9" d="M53.6,522.3l1.1-1.6c.6.6,1.3,1,2.1,1s1.6-.6,1.6-1.6-.6-1.6-1.5-1.6-.9.1-1.5.5l-1.1-.7.3-5.2h5.8v2.1h-3.7v1.8c.2-.1.5-.2.9-.2,1.8,0,3.2,1,3.2,3.3s-1.8,3.7-3.8,3.7-2.8-.6-3.6-1.4Z"/>
          <path class="cls-9" d="M61.7,513.2h2.6l1.1,4.8c.3,1.1.5,2.2.8,3.3h0c.3-1.1.5-2.2.8-3.3l1.2-4.8h2.5l-3.2,10.4h-3l-3.1-10.4Z"/>
        </g>
        <g>
          <path class="cls-9" d="M55.2,549c0-3.5,2.3-5.5,5.1-5.5s2.6.6,3.3,1.4l-1.3,1.5c-.5-.5-1.1-.7-1.9-.7-1.5,0-2.7,1.2-2.7,3.2s.9,3.3,2.9,3.3.8,0,1-.3v-1.7h-1.7v-2h3.9v4.9c-.7.7-2,1.3-3.5,1.3-2.9,0-5.2-1.8-5.2-5.3Z"/>
          <path class="cls-9" d="M66,543.7h2.6l2.6,5c.4.7.7,1.5,1,2.4h0c-.1-1.1-.3-2.6-.3-3.8v-3.5h2.4v10.4h-2.6l-2.6-5c-.4-.7-.7-1.5-1-2.4h0c.1,1.2.3,2.6.3,3.8v3.5h-2.4v-10.4Z"/>
          <path class="cls-9" d="M76.6,543.7h3c3.2,0,5.3,1.6,5.3,5.2s-2.1,5.2-5.1,5.2h-3.1v-10.4ZM79.5,552.1c1.7,0,2.9-.8,2.9-3.2s-1.2-3.2-2.9-3.2h-.4v6.4h.4Z"/>
        </g>
        <g>
          <path class="cls-9" d="M56.5,579.5c0-3.5,2.3-5.5,5.1-5.5s2.6.6,3.3,1.4l-1.3,1.5c-.5-.5-1.1-.7-1.9-.7-1.5,0-2.7,1.2-2.7,3.2s.9,3.3,2.9,3.3.8,0,1-.3v-1.7h-1.7v-2h3.9v4.9c-.7.7-2,1.3-3.5,1.3-2.9,0-5.2-1.8-5.2-5.3Z"/>
          <path class="cls-9" d="M67.2,574.2h2.6l2.6,5c.4.7.7,1.5,1,2.4h0c-.1-1.1-.3-2.6-.3-3.8v-3.5h2.4v10.4h-2.6l-2.6-5c-.4-.7-.7-1.5-1-2.4h0c.1,1.2.3,2.6.3,3.8v3.5h-2.4v-10.4Z"/>
          <path class="cls-9" d="M77.9,574.2h3c3.2,0,5.3,1.6,5.3,5.2s-2.1,5.2-5.1,5.2h-3.1v-10.4ZM80.7,582.6c1.7,0,2.9-.8,2.9-3.2s-1.2-3.2-2.9-3.2h-.4v6.4h.4Z"/>
        </g>
        <g>
          <path class="cls-9" d="M56.9,604.7h2.6l1.1,4.8c.3,1.1.5,2.2.8,3.3h0c.3-1.1.5-2.2.8-3.3l1.2-4.8h2.5l-3.2,10.4h-3l-3.1-10.4Z"/>
          <path class="cls-9" d="M67.2,604.7h2.5v10.4h-2.5v-10.4Z"/>
          <path class="cls-9" d="M72.1,604.7h2.6l2.6,5c.4.7.7,1.5,1,2.4h0c-.1-1.1-.3-2.6-.3-3.8v-3.5h2.4v10.4h-2.6l-2.6-5c-.4-.7-.7-1.5-1-2.4h0c.1,1.2.3,2.6.3,3.8v3.5h-2.4v-10.4Z"/>
        </g>
        <g>
          <path class="cls-9" d="M61.3,638.3h3l3.2,10.4h-2.6l-.6-2.4h-3.1l-.6,2.4h-2.5l3.2-10.4ZM61.7,644.4h2.1l-.2-.9c-.3-1-.5-2.3-.8-3.3h0c-.3,1.1-.5,2.3-.8,3.3l-.2.9Z"/>
          <path class="cls-9" d="M68,643.4c0-3.6,1.5-5.4,3.7-5.4s3.7,1.8,3.7,5.4-1.5,5.4-3.7,5.4-3.7-1.9-3.7-5.4ZM73,643.4c0-2.8-.6-3.5-1.3-3.5s-1.3.6-1.3,3.5.6,3.5,1.3,3.5,1.3-.7,1.3-3.5Z"/>
        </g>
        <g>
          <path class="cls-9" d="M62.6,668.8h3l3.2,10.4h-2.6l-.6-2.4h-3.1l-.6,2.4h-2.5l3.2-10.4ZM62.9,674.9h2.1l-.2-.9c-.3-1-.5-2.3-.8-3.3h0c-.3,1.1-.5,2.3-.8,3.3l-.2.9Z"/>
          <path class="cls-9" d="M69.7,677.2h2.2v-5.9h-1.9v-1.5c1.1-.2,1.8-.5,2.6-.9h1.8v8.4h1.9v2h-6.6v-2Z"/>
        </g>
        <g>
          <path class="cls-9" d="M63.8,699.3h3l3.2,10.4h-2.6l-.6-2.4h-3.1l-.6,2.4h-2.5l3.2-10.4ZM64.2,705.4h2.1l-.2-.9c-.3-1-.5-2.3-.8-3.3h0c-.3,1.1-.5,2.3-.8,3.3l-.2.9Z"/>
          <path class="cls-9" d="M70.5,708.2c2.7-2.3,4.4-4.2,4.4-5.6s-.5-1.5-1.4-1.5-1.3.5-1.8,1l-1.3-1.3c1-1.1,1.9-1.7,3.4-1.7s3.4,1.3,3.4,3.3-1.7,3.8-3.3,5.4c.5,0,1.2-.1,1.7-.1h2.1v2.1h-7.2v-1.5Z"/>
        </g>
        <g>
          <path class="cls-9" d="M65,729.8h3l3.2,10.4h-2.6l-.6-2.4h-3.1l-.6,2.4h-2.5l3.2-10.4ZM65.4,735.9h2.1l-.2-.9c-.3-1-.5-2.3-.8-3.3h0c-.3,1.1-.5,2.3-.8,3.3l-.2.9Z"/>
          <path class="cls-9" d="M71.5,739l1.1-1.6c.6.6,1.4,1,2.2,1s1.6-.4,1.6-1.2-.5-1.4-2.7-1.4v-1.8c1.8,0,2.3-.5,2.3-1.4s-.4-1.1-1.2-1.1-1.2.3-1.9.9l-1.2-1.5c.9-.8,2-1.3,3.2-1.3,2.2,0,3.6,1,3.6,2.9s-.6,1.8-1.7,2.3h0c1.2.4,2,1.2,2,2.6,0,2-1.8,3-3.8,3s-2.8-.6-3.6-1.4Z"/>
        </g>
        <g>
          <path class="cls-9" d="M66.3,760.3h3l3.2,10.4h-2.6l-.6-2.4h-3.1l-.6,2.4h-2.5l3.2-10.4ZM66.6,766.4h2.1l-.2-.9c-.3-1-.5-2.3-.8-3.3h0c-.3,1.1-.5,2.3-.8,3.3l-.2.9Z"/>
          <path class="cls-9" d="M77,768.2h-4.4v-1.7l3.6-6.1h3.1v5.9h1.2v1.9h-1.2v2.6h-2.3v-2.6ZM77,766.3v-1.5c0-.7,0-1.6,0-2.3h0c-.3.6-.5,1.2-.8,1.8l-1.2,2.1h2Z"/>
          <path class="cls-9" d="M84.2,759.4h1.6l-3.1,13.9h-1.6l3.1-13.9Z"/>
          <path class="cls-9" d="M86.8,769.4l1.3-1.6c.7.6,1.7,1,2.6,1s1.4-.4,1.4-.9-.6-.8-1.5-1.2l-1.3-.6c-1.1-.4-2.1-1.3-2.1-2.8s1.6-3.2,3.8-3.2,2.5.5,3.4,1.3l-1.3,1.6c-.7-.5-1.4-.8-2.1-.8s-1.3.3-1.3.8.7.8,1.6,1.2l1.3.5c1.3.5,2.1,1.4,2.1,2.8s-1.5,3.3-4,3.3-2.8-.5-3.9-1.5Z"/>
          <path class="cls-9" d="M96.4,760.3h3c3.2,0,5.3,1.6,5.3,5.2s-2.1,5.2-5.1,5.2h-3.1v-10.4ZM99.2,768.7c1.7,0,2.9-.8,2.9-3.2s-1.2-3.2-2.9-3.2h-.4v6.4h.4Z"/>
          <path class="cls-9" d="M108.3,760.3h3l3.2,10.4h-2.6l-.6-2.4h-3.1l-.6,2.4h-2.5l3.2-10.4ZM108.7,766.4h2.1l-.2-.9c-.3-1-.5-2.3-.8-3.3h0c-.3,1.1-.5,2.3-.8,3.3l-.2.9Z"/>
        </g>
        <g>
          <path class="cls-9" d="M67.5,787.8h3l3.2,10.4h-2.6l-.6-2.4h-3.1l-.6,2.4h-2.5l3.2-10.4ZM67.9,793.9h2.1l-.2-.9c-.3-1-.5-2.3-.8-3.3h0c-.3,1.1-.5,2.3-.8,3.3l-.2.9Z"/>
          <path class="cls-9" d="M73.9,796.9l1.1-1.6c.6.6,1.3,1,2.1,1s1.6-.6,1.6-1.6-.6-1.6-1.5-1.6-.9.1-1.5.5l-1.1-.7.3-5.2h5.8v2.1h-3.7v1.8c.2-.1.5-.2.9-.2,1.8,0,3.2,1,3.2,3.3s-1.8,3.7-3.8,3.7-2.8-.6-3.6-1.4Z"/>
          <path class="cls-9" d="M85.4,786.8h1.6l-3.1,13.9h-1.6l3.1-13.9Z"/>
          <path class="cls-9" d="M88,796.9l1.3-1.6c.7.6,1.7,1,2.6,1s1.4-.4,1.4-.9-.6-.8-1.5-1.2l-1.3-.6c-1.1-.4-2.1-1.3-2.1-2.8s1.6-3.2,3.8-3.2,2.5.5,3.4,1.3l-1.3,1.6c-.7-.5-1.4-.8-2.1-.8s-1.3.3-1.3.8.7.8,1.6,1.2l1.3.5c1.3.5,2.1,1.4,2.1,2.8s-1.5,3.3-4,3.3-2.8-.5-3.9-1.5Z"/>
          <path class="cls-9" d="M97.1,793.1c0-3.5,2.3-5.5,5-5.5s2.4.6,3.2,1.4l-1.3,1.5c-.5-.5-1.1-.7-1.8-.7-1.4,0-2.5,1.2-2.5,3.2s1,3.3,2.4,3.3,1.5-.3,2-.9l1.3,1.5c-.9,1-2.1,1.5-3.4,1.5-2.7,0-4.9-1.8-4.9-5.3Z"/>
          <path class="cls-9" d="M106.9,787.8h2.5v8.3h4v2.1h-6.5v-10.4Z"/>
        </g>
        <g>
          <path class="cls-9" d="M119.9,480.9v3.7c0,2.3-.8,4.2-3.4,4.2s-3.6-1.9-3.6-4.1v-1.2h-3.5v-2.5h10.4ZM114.9,484.5c0,1.2.6,1.8,1.6,1.8s1.4-.7,1.4-1.9v-1h-3v1.1Z"/>
          <path class="cls-9" d="M114.8,490c3.4,0,5.4,1.9,5.4,4.8s-2,4.8-5.4,4.8-5.4-1.9-5.4-4.8,2-4.8,5.4-4.8ZM114.8,497c2,0,3.2-.8,3.2-2.2s-1.2-2.2-3.2-2.2-3.3.9-3.3,2.2,1.3,2.2,3.3,2.2Z"/>
          <path class="cls-9" d="M119.9,500.5v2.5l-4.8.7c-1.1.1-2.2.3-3.3.4h0c1.1.3,2.2.5,3.3.7l4.8,1.1v2.1l-4.8,1.1c-1.1.2-2.2.4-3.3.6h0c1.2.2,2.3.3,3.3.4l4.8.7v2.4l-10.4-1.8v-3.2l4.6-.9c.8-.2,1.6-.3,2.5-.4h0c-.8-.2-1.6-.3-2.5-.5l-4.6-.9v-3.1l10.4-1.9Z"/>
          <path class="cls-9" d="M119.9,514.5v6.6h-2.1v-4.1h-2v3.5h-2.1v-3.5h-2.2v4.3h-2.1v-6.8h10.4Z"/>
          <path class="cls-9" d="M119.9,523.3v3.8c0,2.2-.8,4.1-3.3,4.1s-2.5-.7-3-1.8l-4.1,2.3v-2.8l3.7-1.9v-1.2h-3.7v-2.5h10.4ZM115.2,527c0,1.2.5,1.8,1.5,1.8s1.3-.6,1.3-1.8v-1.1h-2.8v1.1Z"/>
        </g>
        <g>
          <path class="cls-9" d="M119.9,683.3v3l-10.4,3.2v-2.6l2.4-.6v-3.1l-2.4-.6v-2.5l10.4,3.2ZM113.8,683.6v2.1l.9-.2c1-.3,2.3-.5,3.3-.8h0c-1.1-.3-2.3-.6-3.3-.9l-.9-.2Z"/>
          <path class="cls-9" d="M119.9,690.6v2.6l-5,2.6c-.7.4-1.5.7-2.4,1h0c1.1,0,2.6-.3,3.8-.3h3.5v2.4h-10.4v-2.6l5-2.6c.7-.4,1.5-.7,2.4-1h0c-1.2,0-2.6.3-3.8.3h-3.5v-2.4h10.4Z"/>
          <path class="cls-9" d="M119.9,703.1v3l-10.4,3.2v-2.6l2.4-.6v-3.1l-2.4-.6v-2.5l10.4,3.2ZM113.8,703.5v2.1l.9-.2c1-.3,2.3-.5,3.3-.8h0c-1.1-.3-2.3-.6-3.3-.9l-.9-.2Z"/>
          <path class="cls-9" d="M119.9,710.4v2.5h-8.3v4h-2.1v-6.5h10.4Z"/>
          <path class="cls-9" d="M114.8,717.7c3.4,0,5.4,1.9,5.4,4.8s-2,4.8-5.4,4.8-5.4-1.9-5.4-4.8,2-4.8,5.4-4.8ZM114.8,724.7c2,0,3.2-.8,3.2-2.2s-1.2-2.2-3.2-2.2-3.3.9-3.3,2.2,1.3,2.2,3.3,2.2Z"/>
          <path class="cls-9" d="M114.7,728.7c3.5,0,5.5,2.3,5.5,5.1s-.6,2.6-1.4,3.3l-1.5-1.3c.5-.5.7-1.1.7-1.9,0-1.5-1.2-2.7-3.2-2.7s-3.3.9-3.3,2.9,0,.8.3,1h1.7v-1.7h2v3.9h-4.9c-.7-.7-1.3-2-1.3-3.5,0-2.9,1.8-5.2,5.3-5.2Z"/>
          <path class="cls-9" d="M119.9,742.6v2.5h-10.4v-2.5h10.4Z"/>
          <path class="cls-9" d="M119.9,747.5v2.6l-5,2.6c-.7.4-1.5.7-2.4,1h0c1.1,0,2.6-.3,3.8-.3h3.5v2.4h-10.4v-2.6l5-2.6c.7-.4,1.5-.7,2.4-1h0c-1.2,0-2.6.3-3.8.3h-3.5v-2.4h10.4Z"/>
        </g>
        <rect class="cls-37" x="124.2" y="638.6" width="4.5" height="159.9" rx="2.3" ry="2.3"/>
        <rect class="cls-37" x="124.2" y="412" width="4.5" height="187.7" rx="2.3" ry="2.3"/>
        <g>
          <g>
            <polygon class="cls-35" points="292.8 788.6 289.1 788.6 289.1 788.6 285.5 788.6 277 797 277 830.1 285.5 838.6 289.1 838.6 289.1 838.6 292.8 838.6 301.2 830.1 301.2 797 292.8 788.6"/>
            <g>
              <rect class="cls-27" x="286" y="798.2" width="6.2" height="6.2"/>
              <rect class="cls-27" x="286" y="822.8" width="6.2" height="6.2"/>
            </g>
          </g>
          <g>
            <polygon class="cls-35" points="317 788.6 313.3 788.6 313.3 788.6 309.7 788.6 301.2 797 301.2 830.1 309.7 838.6 313.3 838.6 313.3 838.6 317 838.6 325.4 830.1 325.4 797 317 788.6"/>
            <g>
              <rect class="cls-27" x="310.2" y="798.2" width="6.2" height="6.2"/>
              <rect class="cls-27" x="310.2" y="822.8" width="6.2" height="6.2"/>
            </g>
          </g>
          <g>
            <polygon class="cls-35" points="341.2 788.6 337.6 788.6 337.5 788.6 333.9 788.6 325.4 797 325.4 830.1 333.9 838.6 337.5 838.6 337.6 838.6 341.2 838.6 349.6 830.1 349.6 797 341.2 788.6"/>
            <g>
              <rect class="cls-27" x="334.4" y="798.2" width="6.2" height="6.2"/>
              <rect class="cls-27" x="334.4" y="822.8" width="6.2" height="6.2"/>
            </g>
          </g>
        </g>
        <path class="cls-37" d="M271,777.1c-1.3,0-2.3,1-2.3,2.3v58.5c0,1.3,1,2.3,2.3,2.3h0c1.3,0,2.3-1,2.3-2.3v-53.9c0-1.3,1-2.3,2.3-2.3h75.6c1.3,0,2.3,1,2.3,2.3v53.9c0,1.3,1,2.3,2.3,2.3h0c1.3,0,2.3-1,2.3-2.3v-58.5c0-1.3-1-2.3-2.3-2.3h-84.7Z"/>
        <rect class="cls-37" x="465.6" y="402.4" width="4.5" height="394.7" rx="2.3" ry="2.3"/>
        <g>
          <path class="cls-9" d="M487,544.1v3c0,3.2-1.6,5.3-5.2,5.3s-5.2-2.1-5.2-5.1v-3.1h10.4ZM478.6,546.9c0,1.7.8,2.9,3.2,2.9s3.2-1.2,3.2-2.9v-.4h-6.4v.4Z"/>
          <path class="cls-9" d="M487,554.2v2.5h-10.4v-2.5h10.4Z"/>
          <path class="cls-9" d="M481.7,558.7c3.5,0,5.5,2.3,5.5,5.1s-.6,2.6-1.4,3.3l-1.5-1.3c.5-.5.7-1.1.7-1.9,0-1.5-1.2-2.7-3.2-2.7s-3.3.9-3.3,2.9,0,.8.3,1h1.7v-1.7h2v3.9h-4.9c-.7-.7-1.3-2-1.3-3.5,0-2.9,1.8-5.2,5.3-5.2Z"/>
          <path class="cls-9" d="M487,569.4v2.5h-10.4v-2.5h10.4Z"/>
          <path class="cls-9" d="M484.9,576.3v-2.8h2.1v8.1h-2.1v-2.8h-8.3v-2.5h8.3Z"/>
          <path class="cls-9" d="M487,584.5v3l-10.4,3.2v-2.6l2.4-.6v-3.1l-2.4-.6v-2.5l10.4,3.2ZM480.9,584.9v2.1l.9-.2c1-.3,2.3-.5,3.3-.8h0c-1.1-.3-2.3-.6-3.3-.9l-.9-.2Z"/>
          <path class="cls-9" d="M487,591.8v2.5h-8.3v4h-2.1v-6.5h10.4Z"/>
          <path class="cls-9" d="M481,603.3c2.8,0,5.1.8,7.3,2.1l-.6,1.6c-2.1-1.2-4.4-1.7-6.7-1.7s-4.6.5-6.7,1.7l-.6-1.6c2.2-1.3,4.5-2.1,7.3-2.1Z"/>
          <path class="cls-9" d="M487,608.9v3.7c0,2.3-.8,4.2-3.4,4.2s-3.6-1.9-3.6-4.1v-1.2h-3.5v-2.5h10.4ZM482,612.5c0,1.2.6,1.8,1.6,1.8s1.4-.7,1.4-1.9v-1h-3v1.1Z"/>
          <path class="cls-9" d="M487,617.5v2.5l-4.8.7c-1.1.1-2.2.3-3.3.4h0c1.1.3,2.2.5,3.3.7l4.8,1.1v2.1l-4.8,1.1c-1.1.2-2.2.4-3.3.6h0c1.2.2,2.3.3,3.3.4l4.8.7v2.4l-10.4-1.8v-3.2l4.6-.9c.8-.2,1.6-.3,2.5-.4h0c-.8-.2-1.6-.3-2.5-.5l-4.6-.9v-3.1l10.4-1.9Z"/>
          <path class="cls-9" d="M487,631.6v2.7l-4.5,1.6c-.6.2-1.2.4-1.9.6h0c.7.3,1.3.4,1.9.6l4.5,1.6v2.7h-10.4v-2.3h3.6c1,0,2.8.2,3.8.3h0c0,0-2.7-.9-2.7-.9l-3.8-1.4v-1.4l3.8-1.4,2.7-.8h0c-1,0-2.8.3-3.8.3h-3.6v-2.2h10.4Z"/>
          <path class="cls-9" d="M481.6,645.5c0-.4-.4-.8-.9-1.1l1-1.3c1.2.8,1.7,1.6,1.7,2.4,0,1.3-1.2,1.9-1.2,2.8s.4.8.9,1.1l-1,1.3c-1.2-.8-1.7-1.6-1.7-2.4,0-1.3,1.2-1.9,1.2-2.8Z"/>
          <path class="cls-9" d="M474.3,651.9c2.1,1.2,4.4,1.7,6.7,1.7s4.6-.5,6.7-1.7l.6,1.6c-2.2,1.3-4.5,2.1-7.3,2.1s-5.1-.8-7.3-2.1l.6-1.6Z"/>
        </g>
        <g>
          <rect class="cls-18" x="559.5" y="572.5" width="33.4" height="240.9"/>
          <rect x="566.4" y="575.1" width="19.6" height="19.6"/>
          <rect x="566.4" y="605.7" width="19.6" height="19.6"/>
          <rect x="566.4" y="636.2" width="19.6" height="19.6"/>
          <rect x="566.4" y="666.7" width="19.6" height="19.6"/>
          <rect x="566.4" y="697.2" width="19.6" height="19.6"/>
          <rect x="566.4" y="727.7" width="19.6" height="19.6"/>
          <rect x="566.4" y="758.2" width="19.6" height="19.6"/>
          <rect x="566.4" y="788.7" width="19.6" height="19.6"/>
        </g>
        <g>
          <rect class="cls-18" x="559.5" y="269.2" width="33.4" height="301.1"/>
          <rect x="566.4" y="333.9" width="19.6" height="19.6"/>
          <rect x="566.4" y="364.4" width="19.6" height="19.6"/>
          <rect x="566.4" y="394.9" width="19.6" height="19.6"/>
          <rect x="566.4" y="425.4" width="19.6" height="19.6"/>
          <rect x="566.4" y="455.9" width="19.6" height="19.6"/>
          <rect x="566.4" y="486.4" width="19.6" height="19.6"/>
          <rect x="566.4" y="517" width="19.6" height="19.6"/>
          <rect x="566.4" y="547.5" width="19.6" height="19.6"/>
          <rect x="566.4" y="303.4" width="19.6" height="19.6"/>
          <rect x="566.4" y="273.1" width="19.6" height="19.6"/>
        </g>
        <g>
          <g>
            <path class="cls-9" d="M509.2,278.1h3l3.2,10.4h-2.6l-.6-2.4h-3.1l-.6,2.4h-2.5l3.2-10.4ZM509.6,284.2h2.1l-.2-.9c-.3-1-.5-2.3-.8-3.3h0c-.3,1.1-.5,2.3-.8,3.3l-.2.9Z"/>
            <path class="cls-9" d="M515.7,287.3l1.1-1.6c.6.6,1.3,1,2.1,1s1.6-.6,1.6-1.6-.6-1.6-1.5-1.6-.9.1-1.5.5l-1.1-.7.3-5.2h5.8v2.1h-3.7v1.8c.2-.1.5-.2.9-.2,1.8,0,3.2,1,3.2,3.3s-1.8,3.7-3.8,3.7-2.8-.6-3.6-1.4Z"/>
            <path class="cls-9" d="M527.2,277.2h1.6l-3.1,13.9h-1.6l3.1-13.9Z"/>
            <path class="cls-9" d="M529.8,287.2l1.3-1.6c.7.6,1.7,1,2.6,1s1.4-.4,1.4-.9-.6-.8-1.5-1.2l-1.3-.6c-1.1-.4-2.1-1.3-2.1-2.8s1.6-3.2,3.8-3.2,2.5.5,3.4,1.3l-1.3,1.6c-.7-.5-1.4-.8-2.1-.8s-1.3.3-1.3.8.7.8,1.6,1.2l1.3.5c1.3.5,2.1,1.4,2.1,2.8s-1.5,3.3-4,3.3-2.8-.5-3.9-1.5Z"/>
            <path class="cls-9" d="M538.9,283.4c0-3.5,2.3-5.5,5-5.5s2.4.6,3.2,1.4l-1.3,1.5c-.5-.5-1.1-.7-1.8-.7-1.4,0-2.5,1.2-2.5,3.2s1,3.3,2.4,3.3,1.5-.3,2-.9l1.3,1.5c-.9,1-2.1,1.5-3.4,1.5-2.7,0-4.9-1.8-4.9-5.3Z"/>
            <path class="cls-9" d="M548.7,278.1h2.5v8.3h4v2.1h-6.5v-10.4Z"/>
          </g>
          <g>
            <path class="cls-9" d="M507.1,308.4h3l3.2,10.4h-2.6l-.6-2.4h-3.1l-.6,2.4h-2.5l3.2-10.4ZM507.5,314.5h2.1l-.2-.9c-.3-1-.5-2.3-.8-3.3h0c-.3,1.1-.5,2.3-.8,3.3l-.2.9Z"/>
            <path class="cls-9" d="M517.9,316.2h-4.4v-1.7l3.6-6.1h3.1v5.9h1.2v1.9h-1.2v2.6h-2.3v-2.6ZM517.9,314.3v-1.5c0-.7,0-1.6,0-2.3h0c-.3.6-.5,1.2-.8,1.8l-1.2,2.1h2Z"/>
            <path class="cls-9" d="M525,307.4h1.6l-3.1,13.9h-1.6l3.1-13.9Z"/>
            <path class="cls-9" d="M527.6,317.5l1.3-1.6c.7.6,1.7,1,2.6,1s1.4-.4,1.4-.9-.6-.8-1.5-1.2l-1.3-.6c-1.1-.4-2.1-1.3-2.1-2.8s1.6-3.2,3.8-3.2,2.5.5,3.4,1.3l-1.3,1.6c-.7-.5-1.4-.8-2.1-.8s-1.3.3-1.3.8.7.8,1.6,1.2l1.3.5c1.3.5,2.1,1.4,2.1,2.8s-1.5,3.3-4,3.3-2.8-.5-3.9-1.5Z"/>
            <path class="cls-9" d="M537.2,308.4h3c3.2,0,5.3,1.6,5.3,5.2s-2.1,5.2-5.1,5.2h-3.1v-10.4ZM540.1,316.8c1.7,0,2.9-.8,2.9-3.2s-1.2-3.2-2.9-3.2h-.4v6.4h.4Z"/>
            <path class="cls-9" d="M549.2,308.4h3l3.2,10.4h-2.6l-.6-2.4h-3.1l-.6,2.4h-2.5l3.2-10.4ZM549.6,314.5h2.1l-.2-.9c-.3-1-.5-2.3-.8-3.3h0c-.3,1.1-.5,2.3-.8,3.3l-.2.9Z"/>
          </g>
          <g>
            <path class="cls-9" d="M521.5,338.9h3l3.2,10.4h-2.6l-.6-2.4h-3.1l-.6,2.4h-2.5l3.2-10.4ZM521.8,345h2.1l-.2-.9c-.3-1-.5-2.3-.8-3.3h0c-.3,1.1-.5,2.3-.8,3.3l-.2.9Z"/>
            <path class="cls-9" d="M528.8,338.9h3.8c2.2,0,4.1.8,4.1,3.3s-.7,2.5-1.8,3l2.3,4.1h-2.8l-1.9-3.7h-1.2v3.7h-2.5v-10.4ZM532.4,343.7c1.2,0,1.8-.5,1.8-1.5s-.6-1.3-1.8-1.3h-1.1v2.8h1.1Z"/>
            <path class="cls-9" d="M538.6,338.9h6.6v2.1h-4.1v2h3.5v2.1h-3.5v2.2h4.3v2.1h-6.8v-10.4Z"/>
            <path class="cls-9" d="M547.4,338.9h6.7v2.1h-4.2v2.3h3.6v2.1h-3.6v4h-2.5v-10.4Z"/>
          </g>
          <g>
            <path class="cls-9" d="M523.7,374.7c0-3.5,2.3-5.5,5.1-5.5s2.6.6,3.3,1.4l-1.3,1.5c-.5-.5-1.1-.7-1.9-.7-1.5,0-2.7,1.2-2.7,3.2s.9,3.3,2.9,3.3.8,0,1-.3v-1.7h-1.7v-2h3.9v4.9c-.7.7-2,1.3-3.5,1.3-2.9,0-5.2-1.8-5.2-5.3Z"/>
            <path class="cls-9" d="M534.5,369.4h2.6l2.6,5c.4.7.7,1.5,1,2.4h0c-.1-1.1-.3-2.6-.3-3.8v-3.5h2.4v10.4h-2.6l-2.6-5c-.4-.7-.7-1.5-1-2.4h0c.1,1.2.3,2.6.3,3.8v3.5h-2.4v-10.4Z"/>
            <path class="cls-9" d="M545.1,369.4h3c3.2,0,5.3,1.6,5.3,5.2s-2.1,5.2-5.1,5.2h-3.1v-10.4ZM548,377.8c1.7,0,2.9-.8,2.9-3.2s-1.2-3.2-2.9-3.2h-.4v6.4h.4Z"/>
          </g>
          <g>
            <path class="cls-9" d="M495.7,408.3h2.2v-5.9h-1.9v-1.5c1.1-.2,1.8-.5,2.6-.9h1.8v8.4h1.9v2h-6.6v-2Z"/>
            <path class="cls-9" d="M503.5,409.1l1.1-1.6c.6.6,1.4,1,2.2,1s1.6-.4,1.6-1.2-.5-1.4-2.7-1.4v-1.8c1.8,0,2.3-.5,2.3-1.4s-.4-1.1-1.2-1.1-1.2.3-1.9.9l-1.2-1.5c.9-.8,2-1.3,3.2-1.3,2.2,0,3.6,1,3.6,2.9s-.6,1.8-1.7,2.3h0c1.2.4,2,1.2,2,2.6,0,2-1.8,3-3.8,3s-2.8-.6-3.6-1.4Z"/>
            <path class="cls-9" d="M514.9,399h1.6l-3.1,13.9h-1.6l3.1-13.9Z"/>
            <path class="cls-9" d="M517.6,409l1.3-1.6c.7.6,1.7,1,2.6,1s1.4-.4,1.4-.9-.6-.8-1.5-1.2l-1.3-.6c-1.1-.4-2.1-1.3-2.1-2.8s1.6-3.2,3.8-3.2,2.5.5,3.4,1.3l-1.3,1.6c-.7-.5-1.4-.8-2.1-.8s-1.3.3-1.3.8.7.8,1.6,1.2l1.3.5c1.3.5,2.1,1.4,2.1,2.8s-1.5,3.3-4,3.3-2.8-.5-3.9-1.5Z"/>
            <path class="cls-9" d="M526.7,405.2c0-3.5,2.3-5.5,5-5.5s2.4.6,3.2,1.4l-1.3,1.5c-.5-.5-1.1-.7-1.8-.7-1.4,0-2.5,1.2-2.5,3.2s1,3.3,2.4,3.3,1.5-.3,2-.9l1.3,1.5c-.9,1-2.1,1.5-3.4,1.5-2.7,0-4.9-1.8-4.9-5.3Z"/>
            <path class="cls-9" d="M536.5,399.9h2.5v8.3h4v2.1h-6.5v-10.4Z"/>
            <path class="cls-9" d="M544.8,399.9h2.5v4.1h0l3-4.1h2.7l-3.1,4.2,3.7,6.2h-2.7l-2.5-4.3-1.1,1.5v2.7h-2.5v-10.4Z"/>
          </g>
          <g>
            <path class="cls-9" d="M494.6,438.8h2.2v-5.9h-1.9v-1.5c1.1-.2,1.8-.5,2.6-.9h1.8v8.4h1.9v2h-6.6v-2Z"/>
            <path class="cls-9" d="M502.6,439.3c2.7-2.3,4.4-4.2,4.4-5.6s-.5-1.5-1.4-1.5-1.3.5-1.8,1l-1.3-1.3c1-1.1,1.9-1.7,3.4-1.7s3.4,1.3,3.4,3.3-1.7,3.8-3.3,5.4c.5,0,1.2-.1,1.7-.1h2.1v2.1h-7.2v-1.5Z"/>
            <path class="cls-9" d="M513.8,429.5h1.6l-3.1,13.9h-1.6l3.1-13.9Z"/>
            <path class="cls-9" d="M517.1,430.4h2.7l1.6,4.5c.2.6.4,1.2.6,1.9h0c.2-.7.4-1.3.6-1.9l1.6-4.5h2.7v10.4h-2.3v-3.6c0-1,.2-2.8.3-3.8h0l-.9,2.7-1.4,3.8h-1.4l-1.4-3.8-.8-2.7h0c.1,1,.3,2.8.3,3.8v3.6h-2.2v-10.4Z"/>
            <path class="cls-9" d="M529.3,430.4h2.5v10.4h-2.5v-10.4Z"/>
            <path class="cls-9" d="M533.6,439.5l1.3-1.6c.7.6,1.7,1,2.6,1s1.4-.4,1.4-.9-.6-.8-1.5-1.2l-1.3-.6c-1.1-.4-2.1-1.3-2.1-2.8s1.6-3.2,3.8-3.2,2.5.5,3.4,1.3l-1.3,1.6c-.7-.5-1.4-.8-2.1-.8s-1.3.3-1.3.8.7.8,1.6,1.2l1.3.5c1.3.5,2.1,1.4,2.1,2.8s-1.5,3.3-4,3.3-2.8-.5-3.9-1.5Z"/>
            <path class="cls-9" d="M542.7,435.6c0-3.4,1.9-5.4,4.8-5.4s4.8,2,4.8,5.4-1.9,5.4-4.8,5.4-4.8-2-4.8-5.4ZM549.7,435.6c0-2-.8-3.2-2.2-3.2s-2.2,1.2-2.2,3.2.9,3.3,2.2,3.3,2.2-1.3,2.2-3.3Z"/>
          </g>
          <g>
            <path class="cls-9" d="M487.3,466.3c-.4,0-.8.4-1.1.9l-1.3-1c.8-1.2,1.6-1.7,2.4-1.7,1.3,0,1.9,1.2,2.8,1.2s.8-.4,1.1-.9l1.3,1c-.8,1.2-1.6,1.7-2.4,1.7-1.3,0-1.9-1.2-2.8-1.2Z"/>
            <path class="cls-9" d="M494,469.3h2.2v-5.9h-1.9v-1.5c1.1-.2,1.8-.5,2.6-.9h1.8v8.4h1.9v2h-6.6v-2Z"/>
            <path class="cls-9" d="M502.5,469.3h2.2v-5.9h-1.9v-1.5c1.1-.2,1.8-.5,2.6-.9h1.8v8.4h1.9v2h-6.6v-2Z"/>
            <path class="cls-9" d="M513.2,460h1.6l-3.1,13.9h-1.6l3.1-13.9Z"/>
            <path class="cls-9" d="M516.5,460.9h2.7l1.6,4.5c.2.6.4,1.2.6,1.9h0c.2-.7.4-1.3.6-1.9l1.6-4.5h2.7v10.4h-2.3v-3.6c0-1,.2-2.8.3-3.8h0l-.9,2.7-1.4,3.8h-1.4l-1.4-3.8-.8-2.7h0c.1,1,.3,2.8.3,3.8v3.6h-2.2v-10.4Z"/>
            <path class="cls-9" d="M528.3,466.1c0-3.4,1.9-5.4,4.8-5.4s4.8,2,4.8,5.4-1.9,5.4-4.8,5.4-4.8-2-4.8-5.4ZM535.3,466.1c0-2-.8-3.2-2.2-3.2s-2.2,1.2-2.2,3.2.9,3.3,2.2,3.3,2.2-1.3,2.2-3.3Z"/>
            <path class="cls-9" d="M539.1,470l1.3-1.6c.7.6,1.7,1,2.6,1s1.4-.4,1.4-.9-.6-.8-1.5-1.2l-1.3-.6c-1.1-.4-2.1-1.3-2.1-2.8s1.6-3.2,3.8-3.2,2.5.5,3.4,1.3l-1.3,1.6c-.7-.5-1.4-.8-2.1-.8s-1.3.3-1.3.8.7.8,1.6,1.2l1.3.5c1.3.5,2.1,1.4,2.1,2.8s-1.5,3.3-4,3.3-2.8-.5-3.9-1.5Z"/>
            <path class="cls-9" d="M548.7,460.9h2.5v10.4h-2.5v-10.4Z"/>
          </g>
          <g>
            <path class="cls-9" d="M529.1,496.8c-.4,0-.8.4-1.1.9l-1.3-1c.8-1.2,1.6-1.7,2.4-1.7,1.3,0,1.9,1.2,2.8,1.2s.8-.4,1.1-.9l1.3,1c-.8,1.2-1.6,1.7-2.4,1.7-1.3,0-1.9-1.2-2.8-1.2Z"/>
            <path class="cls-9" d="M535.9,499.8h2.2v-5.9h-1.9v-1.5c1.1-.2,1.8-.5,2.6-.9h1.8v8.4h1.9v2h-6.6v-2Z"/>
            <path class="cls-9" d="M543.9,496.6c0-3.6,1.5-5.4,3.7-5.4s3.7,1.8,3.7,5.4-1.5,5.4-3.7,5.4-3.7-1.9-3.7-5.4ZM548.9,496.6c0-2.8-.6-3.5-1.3-3.5s-1.3.6-1.3,3.5.6,3.5,1.3,3.5,1.3-.7,1.3-3.5Z"/>
          </g>
          <g>
            <path class="cls-9" d="M537.1,527.4c-.4,0-.8.4-1.1.9l-1.3-1c.8-1.2,1.6-1.7,2.4-1.7,1.3,0,1.9,1.2,2.8,1.2s.8-.4,1.1-.9l1.3,1c-.8,1.2-1.6,1.7-2.4,1.7-1.3,0-1.9-1.2-2.8-1.2Z"/>
            <path class="cls-9" d="M543.4,531.3l1.3-1.5c.3.4,1,.7,1.6.7,1.1,0,1.9-.8,2-3-.5.7-1.4,1-2,1-1.7,0-3-1-3-3.3s1.6-3.5,3.4-3.5,3.9,1.5,3.9,5.3-2,5.5-4.1,5.5-2.4-.6-3.1-1.2ZM546.8,526.8c.5,0,1.1-.3,1.5-.9-.2-1.8-.8-2.3-1.5-2.3s-1.2.5-1.2,1.7.5,1.5,1.2,1.5Z"/>
          </g>
          <path class="cls-9" d="M542.8,560.3c0-1.3.7-2.1,1.7-2.6h0c-.8-.7-1.4-1.5-1.4-2.6,0-1.7,1.4-2.8,3.3-2.8s3.1,1.1,3.1,2.8-.6,1.8-1.3,2.3h0c1,.6,1.8,1.5,1.8,2.9s-1.5,2.8-3.6,2.8-3.6-1.1-3.6-2.8ZM547.7,560.2c0-.9-.8-1.3-2.1-1.9-.4.4-.7,1-.7,1.7s.7,1.4,1.5,1.4,1.3-.4,1.3-1.2ZM547.6,555.2c0-.8-.4-1.2-1.2-1.2s-1.1.4-1.1,1.1.6,1.3,1.7,1.7c.4-.5.6-1,.6-1.5Z"/>
          <path class="cls-9" d="M546.8,582.2h-4.5v-2.1h7.1v1.5c-2.4,2.9-2.7,4.8-2.8,8.9h-2.5c.2-3.4.7-5.6,2.7-8.3Z"/>
          <g>
            <path class="cls-9" d="M535.3,616.1c-.4,0-.8.4-1.1.9l-1.3-1c.8-1.2,1.6-1.7,2.4-1.7,1.3,0,1.9,1.2,2.8,1.2s.8-.4,1.1-.9l1.3,1c-.8,1.2-1.6,1.7-2.4,1.7-1.3,0-1.9-1.2-2.8-1.2Z"/>
            <path class="cls-9" d="M541.6,615.9c0-3.8,2-5.5,4.1-5.5s2.4.6,3,1.2l-1.3,1.5c-.4-.4-1-.7-1.6-.7-1.1,0-1.9.8-2,3,.5-.6,1.4-1,2-1,1.7,0,3,1,3,3.3s-1.6,3.5-3.4,3.5-3.9-1.5-3.9-5.3ZM544,617.2c.2,1.7.9,2.2,1.5,2.2s1.2-.5,1.2-1.7-.6-1.5-1.3-1.5-1.1.3-1.5,1Z"/>
          </g>
          <g>
            <path class="cls-9" d="M534.8,646.6c-.4,0-.8.4-1.1.9l-1.3-1c.8-1.2,1.6-1.7,2.4-1.7,1.3,0,1.9,1.2,2.8,1.2s.8-.4,1.1-.9l1.3,1c-.8,1.2-1.6,1.7-2.4,1.7-1.3,0-1.9-1.2-2.8-1.2Z"/>
            <path class="cls-9" d="M540.8,650.3l1.1-1.6c.6.6,1.3,1,2.1,1s1.6-.6,1.6-1.6-.6-1.6-1.5-1.6-.9.1-1.5.5l-1.1-.7.3-5.2h5.8v2.1h-3.7v1.8c.2-.1.5-.2.9-.2,1.8,0,3.2,1,3.2,3.3s-1.8,3.7-3.8,3.7-2.8-.6-3.6-1.4Z"/>
          </g>
          <path class="cls-9" d="M544.5,679.5h-4.4v-1.7l3.6-6.1h3.1v5.9h1.2v1.9h-1.2v2.6h-2.3v-2.6ZM544.5,677.6v-1.5c0-.7,0-1.6,0-2.3h0c-.3.6-.5,1.2-.8,1.8l-1.2,2.1h2Z"/>
          <g>
            <path class="cls-9" d="M533.6,707.6c-.4,0-.8.4-1.1.9l-1.3-1c.8-1.2,1.6-1.7,2.4-1.7,1.3,0,1.9,1.2,2.8,1.2s.8-.4,1.1-.9l1.3,1c-.8,1.2-1.6,1.7-2.4,1.7-1.3,0-1.9-1.2-2.8-1.2Z"/>
            <path class="cls-9" d="M539.6,711.4l1.1-1.6c.6.6,1.4,1,2.2,1s1.6-.4,1.6-1.2-.5-1.4-2.7-1.4v-1.8c1.8,0,2.3-.5,2.3-1.4s-.4-1.1-1.2-1.1-1.2.3-1.9.9l-1.2-1.5c.9-.8,2-1.3,3.2-1.3,2.2,0,3.6,1,3.6,2.9s-.6,1.8-1.7,2.3h0c1.2.4,2,1.2,2,2.6,0,2-1.8,3-3.8,3s-2.8-.6-3.6-1.4Z"/>
          </g>
          <path class="cls-9" d="M539.3,741.6c2.7-2.3,4.4-4.2,4.4-5.6s-.5-1.5-1.4-1.5-1.3.5-1.8,1l-1.3-1.3c1-1.1,1.9-1.7,3.4-1.7s3.4,1.3,3.4,3.3-1.7,3.8-3.3,5.4c.5,0,1.2-.1,1.7-.1h2.1v2.1h-7.2v-1.5Z"/>
          <g>
            <path class="cls-9" d="M509.5,766.2h-2.8v-2.1h8.1v2.1h-2.8v8.3h-2.5v-8.3Z"/>
            <path class="cls-9" d="M518,769.2l-2.7-5.1h2.8l.8,1.9c.2.5.5,1,.8,1.7h0c.2-.7.5-1.2.7-1.7l.8-1.9h2.6l-2.7,5.2,2.9,5.2h-2.8l-1-2c-.3-.5-.5-1.1-.8-1.7h0c-.2.6-.5,1.2-.7,1.7l-.9,2h-2.7l2.9-5.4Z"/>
            <path class="cls-9" d="M537.8,769.2l-5,5c-.4.4-1,.4-1.4,0s-.4-1,0-1.4l3.3-3.3h-9.6c-.6,0-1-.4-1-1s.4-1,1-1h9.6l-3.3-3.3c-.4-.4-.4-1,0-1.4s1-.4,1.4,0l5,5c.4.4.4,1,0,1.4h0Z"/>
            <path class="cls-9" d="M539.2,772.5h2.2v-5.9h-1.9v-1.5c1.1-.2,1.8-.5,2.6-.9h1.8v8.4h1.9v2h-6.6v-2Z"/>
          </g>
          <g>
            <path class="cls-9" d="M505.8,794.6h3.8c2.2,0,4.1.8,4.1,3.3s-.7,2.5-1.8,3l2.3,4.1h-2.8l-1.9-3.7h-1.2v3.7h-2.5v-10.4ZM509.4,799.4c1.2,0,1.8-.5,1.8-1.5s-.6-1.3-1.8-1.3h-1.1v2.8h1.1Z"/>
            <path class="cls-9" d="M517.4,799.7l-2.7-5.1h2.8l.8,1.9c.2.5.5,1,.8,1.7h0c.2-.7.5-1.2.7-1.7l.8-1.9h2.6l-2.7,5.2,2.9,5.2h-2.8l-1-2c-.3-.5-.5-1.1-.8-1.7h0c-.2.6-.5,1.2-.7,1.7l-.9,2h-2.7l2.9-5.4Z"/>
            <path class="cls-9" d="M523.8,798.3l5-5c.4-.4,1-.4,1.4,0s.4,1,0,1.4l-3.3,3.3h9.6c.6,0,1,.4,1,1s-.4,1-1,1h-9.6l3.3,3.3c.4.4.4,1,0,1.4s-1,.4-1.4,0l-5-5c-.4-.4-.4-1,0-1.4h0Z"/>
            <path class="cls-9" d="M538.1,799.8c0-3.6,1.5-5.4,3.7-5.4s3.7,1.8,3.7,5.4-1.5,5.4-3.7,5.4-3.7-1.9-3.7-5.4ZM543.1,799.8c0-2.8-.6-3.5-1.3-3.5s-1.3.6-1.3,3.5.6,3.5,1.3,3.5,1.3-.7,1.3-3.5Z"/>
          </g>
        </g>
        <g>
          <rect class="cls-13" x="396.7" y="379.8" width="10.7" height="17.2"/>
          <rect class="cls-21" x="396.7" y="382.4" width="10.7" height="11.8"/>
        </g>
      </g>
      <g id="layer1-45">
        <rect id="rect815" x="821.1" y="0" width="187.9" height="321.6"/>
        <rect id="rect821" class="cls-9" x="849.2" y="285.6" width="131.6" height="33.4"/>
        <path id="rect825" class="cls-32" d="M856.1,287.5h19.6c3.4,0,6.2,2.8,6.2,6.2v17.2c0,3.4-2.8,6.2-6.2,6.2h-19.6c-3.4,0-6.2-2.8-6.2-6.2v-17.2c0-3.4,2.8-6.2,6.2-6.2Z"/>
        <path id="rect872" class="cls-32" d="M921.5,287.5h19.6c3.4,0,6.2,2.8,6.2,6.2v17.2c0,3.4-2.8,6.2-6.2,6.2h-19.6c-3.4,0-6.2-2.8-6.2-6.2v-17.2c0-3.4,2.8-6.2,6.2-6.2Z"/>
        <path id="rect874" class="cls-32" d="M888,287.5h21.2c3,0,5.4,2.4,5.4,5.4h0v18.8c0,3-2.4,5.4-5.4,5.4h-21.2c-3,0-5.4-2.4-5.4-5.4h0v-18.8c0-3,2.4-5.4,5.4-5.4Z"/>
        <rect id="rect947" class="cls-24" x="864.1" y="303.7" width="3.3" height="62.7"/>
        <rect id="rect949" class="cls-24" x="897" y="303.7" width="3.3" height="62.7"/>
        <rect id="rect951" class="cls-24" x="929.5" y="303.6" width="3.3" height="62.7"/>
        <rect id="rect87-3" x="847.6" y="174.1" width="134" height="33.7"/>
        <path id="path31-1-9" class="cls-9" d="M874.5,18.8c1.2,0,1.3,0,1.5-.2.1,0,.3-.2.4-.4.1-.2.1-.4.2-2.7v-2.5s2.5,0,2.5,0h2.5s0,3.2,0,3.2c0,3.5,0,3.8-.4,4.7-.4,1.1-1.4,1.9-2.6,2.1-.8.1-1.5.1-2.3.1-1,0-2.1,0-2.4,0h-.6c0,0,0-2.1,0-2.1v-2s1.3,0,1.3,0h0ZM898.2,25.9c21.2,0,26.4,0,25.6.1h-.1s.1,0,.1,0c.1,0,0,0-.1,0-.2,0,0,0,.2,0h.4s-.4,0-.4,0c-.2,0-.4,0-.3,0,.1,0,.1.1.1.6q0,.6.2.6c.1,0,.1,0-.1,0-.2,0-.3,0-.3,0s-8.4,0-25.1,0h-25.1s0-.9,0-.9v-.9s24.9,0,24.9,0ZM879.1,6.5h2.5s0,2,0,2v2s-2.5,0-2.5,0h-2.5s0-2,0-2v-2s2.5,0,2.5,0ZM884.1,14.1c.2-1.1.5-2.1,1-3.1.1-.2.2-.4.3-.6.1-.1.2-.3.3-.4.3-.4.6-.9,1-1.2,0,0,0,0,0-.1.3-.4.7-.7,1.1-1,.6-.4,1.2-.7,1.9-.9,1-.4,2-.5,3-.5.6,0,1.2,0,1.8.2.4.1.8.3,1,.3.1,0,.3.1.4.1.2,0,.4.2.6.3,1.5,1,2.7,2.4,3.5,3.9,1,2,1.1,4.3.4,6.4-.2.7-.5,1.3-.9,1.9-.4.7-.9,1.3-1.5,1.7-1,1-2.2,1.8-3.6,2.1-1,.2-2.1.3-3.2.2-1.2-.2-2.4-.7-3.4-1.4-.4-.3-.8-.6-1.1-.9-.1-.1-.2-.3-.3-.4-1.1-1.2-1.8-2.6-2.2-4.2-.1-.8-.2-1.6-.2-2.4h0ZM888.9,16.2c.2.9.8,1.8,1.5,2.5.8.7,1.9,1,3,.7,1.3-.6,2.3-1.7,2.6-3.1.2-.9.2-1.9,0-2.8-.3-1-.9-2-1.8-2.6-.3-.2-.6-.4-.9-.4-.8-.2-1.6,0-2.3.2-.7.4-1.2,1.1-1.6,1.8-.6,1.2-.7,2.5-.4,3.8h0ZM903,6.6s1.2,0,2.5,0h2.4s0,2.3,0,2.3c0,2.1,0,2.3.2,2.6.4,1,1.5,1.5,2.5,1.1.5-.1.9-.5,1.1-1l.2-.4v-2.3s0-2.3,0-2.3h2.5s2.5,0,2.5,0v2.6c0,1.1,0,2.1-.2,3.2-.2.9-.7,1.8-1.3,2.6-.1.1-.2.2-.3.4-.3.4-.8.8-1.2,1.1-.5.3-1,.6-1.5.8-.1,0-.5.1-.8.2-.6.2-1.2.2-1.8.2-.6,0-1.3,0-1.9-.2-.7-.2-1.4-.4-2-.8-.8-.5-1.4-1.1-1.9-1.9-.7-.9-1.1-2-1.2-3.2-.1-1.6,0-3.2,0-4.9h0ZM910,18.9h4.1s0,2.1,0,2.1v2.1s-4.1,0-4.1,0h-4.1s0-2.1,0-2.1v-2.1s4.1,0,4.1,0ZM917,3.3s0-.1,0-.3c0-.3,0-.3.3-.3.2,0,7.1,0,15.4,0h15.1s0,.9,0,.9v.9s-15.4,0-15.4,0c-8.5,0-15.4,0-15.5,0,0,0-.1-.2-.1-.6,0-.3,0-.6,0-.6h0ZM923.9,13.4h5.2s0,2.1,0,2.1v2.1s-5.2,0-5.2,0h-5.2s0-2.1,0-2.1v-2.1s5.2,0,5.2,0ZM933.3,6.5h2.5s0,2,0,2v2s-2.5,0-2.5,0h-2.5s0-2,0-2v-2s2.5,0,2.5,0ZM933.3,12.7h2.5s0,5.3,0,5.3v5.3s-2.5,0-2.5,0h-2.5s0-5.3,0-5.3v-5.3s2.5,0,2.5,0ZM943.2,6.5h5.3s0,2,0,2v2s-5.2,0-5.2,0h-5.3s0-2,0-2v-2s5.2,0,5.2,0ZM938.9,13s1.1,0,2.5,0h2.4s0,2.4,0,2.4c0,3.4-.1,3.2,2.4,3.2h1.6s0,2.1,0,2.1v2.1s-.6,0-.6,0c-1.5.1-3,.1-4.5,0-1.1,0-2-.5-2.8-1.3-.6-.7-1-1.7-1-2.6,0-.7,0-6,0-6h0ZM951.4,4.5c.1-.4.3-.8.7-1.1,1-1,2.5-1.1,3.6-.3.4.2.7.6.9,1,.2.3.2.7.2,1.1,0,.4,0,.8-.2,1.1-.4.9-1.3,1.4-2.3,1.5-.8,0-1.7-.2-2.2-.9-.6-.7-.9-1.6-.6-2.5h0ZM951.9,6.2c.4.6,1,1.1,1.7,1.2.8.2,1.6,0,2.1-.6.2-.2.4-.4.5-.7.2-.3.3-.7.2-1,0-.4,0-.7-.2-1-.1-.3-.4-.6-.6-.7-.2-.2-.5-.3-.7-.4-1.2-.4-2.5.2-3,1.3-.2.6-.1,1.3,0,1.8h0ZM953.8,3.6c.4,0,.7,0,1.1,0,.4.3.6.9.3,1.3-.1.1-.2.2-.4.3h-.2c0,0,.2.3.2.3.2.2.3.4.4.6,0,.1.2.3.3.4.1,0,0,.2-.2.2h-.3s-.4-.6-.4-.6c-.4-.7-.5-.8-1-.8h-.3s0,.7,0,.7v.7s-.2,0-.2,0h-.2s0-1.6,0-1.6v-1.6s.9,0,.9,0ZM953.9,5c.5,0,.6,0,.8-.1.4-.3.2-.8-.4-.8-.3,0-.7,0-1,0,0,.2,0,.3,0,.5v.5s.6,0,.6,0Z"/>
        <circle id="path84" class="cls-25" cx="848.2" cy="34" r="18.8"/>
        <circle id="circle86" class="cls-25" cx="981.9" cy="33.9" r="18.8"/>
        <circle id="path88" class="cls-10" cx="848.2" cy="34" r="16.7"/>
        <circle id="circle90-8" class="cls-10" cx="981.9" cy="33.9" r="16.7"/>
        <path id="rect64-5" class="cls-32" d="M954,287.5h19.6c3.4,0,6.2,2.8,6.2,6.2v17.2c0,3.4-2.8,6.2-6.2,6.2h-19.6c-3.4,0-6.2-2.8-6.2-6.2v-17.2c0-3.4,2.8-6.2,6.2-6.2h0Z"/>
        <rect id="rect66-6" class="cls-24" x="962" y="303.6" width="3.3" height="62.7"/>
        <path id="rect178-0" class="cls-25" d="M897.9,217.3v20.9c0,2.3-3.2,4.2-7.1,4.2h0c-3.9,0-7.1-1.9-7.1-4.2v-20.9c0-2.3,3.2-4.2,7.1-4.2h0c3.9,0,7.1,1.9,7.1,4.2Z"/>
        <path id="rect180-9" class="cls-25" d="M921.9,217.3v20.9c0,2.3-3.2,4.2-7.1,4.2h0c-3.9,0-7.1-1.9-7.1-4.2v-20.9c0-2.3,3.2-4.2,7.1-4.2h0c3.9,0,7.1,1.9,7.1,4.2Z"/>
        <path id="rect182-4" class="cls-25" d="M945.9,217.3v20.9c0,2.3-3.2,4.2-7.1,4.2h0c-3.9,0-7.1-1.9-7.1-4.2v-20.9c0-2.3,3.2-4.2,7.1-4.2h0c3.9,0,7.1,1.9,7.1,4.2Z"/>
        <path id="rect184-6" class="cls-25" d="M945.9,83.6v20.9c0,2.3-3.2,4.2-7.1,4.2h0c-3.9,0-7.1-1.9-7.1-4.2v-20.9c0-2.3,3.2-4.2,7.1-4.2h0c3.9,0,7.1,1.9,7.1,4.2Z"/>
        <path id="rect186-8" class="cls-25" d="M921.9,83.6v20.9c0,2.3-3.2,4.2-7.1,4.2h0c-3.9,0-7.1-1.9-7.1-4.2v-20.9c0-2.3,3.2-4.2,7.1-4.2h0c3.9,0,7.1,1.9,7.1,4.2Z"/>
        <path id="rect188-1" class="cls-25" d="M897.9,83.6v20.9c0,2.3-3.2,4.2-7.1,4.2h0c-3.9,0-7.1-1.9-7.1-4.2v-20.9c0-2.3,3.2-4.2,7.1-4.2h0c3.9,0,7.1,1.9,7.1,4.2Z"/>
        <rect id="rect68-0" class="cls-10" x="858.6" y="104.5" width="112.8" height="112.8"/>
        <rect id="rect70-8" class="cls-26" x="860.3" y="106.1" width="109.1" height="109.1"/>
        <rect id="rect72-7" class="cls-10" x="860.7" y="106.4" width="108.2" height="108.2"/>
        <circle id="path74-5" class="cls-23" cx="914.6" cy="160.3" r="47.6"/>
        <rect id="rect82-6" class="cls-10" x="934.5" y="116.8" width="2.5" height="29.7"/>
        <rect id="rect84-2" class="cls-10" x="934.5" y="144.9" width="26.8" height="2.5"/>
        <rect id="rect86-6" class="cls-10" x="940.2" y="144.8" width="2.5" height="25.7"/>
        <rect id="rect88-1" class="cls-10" x="928.5" y="170.5" width="14.1" height="2.5"/>
        <rect id="rect90-5" class="cls-10" x="928.5" y="170.5" width="2.5" height="20.8"/>
        <rect id="rect92-9" class="cls-10" x="928.5" y="189.6" width="23.8" height="2.5"/>
        <rect id="rect94-0" class="cls-10" x="928.5" y="189.6" width="3.8" height="16.2"/>
        <rect id="rect96" class="cls-10" x="893.1" y="114.4" width="2.5" height="32.1"/>
        <rect id="rect98-2" class="cls-10" x="868.2" y="144.9" width="27.5" height="2.5"/>
        <rect id="rect100-3" class="cls-10" x="887.4" y="144.8" width="2.5" height="25.7"/>
        <rect id="rect102-6" class="cls-10" x="887.4" y="170.5" width="13.3" height="2.5"/>
        <rect id="rect104-9" class="cls-10" x="899.1" y="170.5" width="2.5" height="20.8"/>
        <rect id="rect106-7" class="cls-10" x="876.5" y="189.6" width="24.2" height="2.5"/>
        <rect id="rect108-3" class="cls-10" x="897.9" y="189.8" width="3.8" height="16.2"/>
        <rect id="rect110-4" class="cls-10" x="914.1" y="124.4" width="21.2" height="2.5"/>
        <rect id="rect112-5" class="cls-10" x="894.2" y="124.4" width="19.9" height="2.5"/>
        <path id="path114-8" class="cls-10" d="M896.6,116c-.2.1-.4.2-.6.3-.2,0-.3.2-.5.2-.1,0-.3,0-.4.1,0,0-.2.1-.3.2-.1,0-.2.1-.3.2-.1,0-.3.1-.4.2-.1,0-.2.1-.4.2-.1,0-.2.1-.3.2-.1,0-.3,0-.4.2-.1,0-.3.1-.4.2,0,0-.2.1-.3.2l-.6-1h0c0,0,.2,0,.2-.2.1,0,.3-.2.4-.2.1,0,.2-.1.4-.2.1,0,.2-.1.3-.2.1,0,.2-.1.4-.2.1,0,.3-.1.4-.2.1,0,.2-.1.3-.2.1,0,.2-.1.3-.2.1,0,.3-.1.4-.1.2,0,.3-.1.5-.2.2-.1.4-.2.6-.3l.6,1h0Z"/>
        <path id="path116-5" class="cls-10" d="M869.9,143.5c-.1.2-.3.4-.4.6-.1.2-.2.4-.2.6,0,.2,0,.4,0,.5,0,.2,0,.3-.1.5,0,.2-.1.4-.2.6,0,0,0,0,0,0,0,0,0,0,0,.1-.3.4-.8-.7-.7-1.1,0-.2.2-.3.2-.5,0-.1.1-.3.2-.4,0-.1.2-.3.3-.4,0-.1.1-.2.2-.3.4-.3.7.9.7,1,0,0,0,.1,0,.2,0,.1-.1.2-.2.3,0,.1-.1.2-.2.3,0,.1-.1.2-.2.3,0,.1-.1.3-.1.4,0,.1,0,.3-.2.4,0,0,0,0,0,0,0,0,0,.2,0,.2,0,0,0,0,0,0,0,0,0,0,0,0,0,0-.1,0-.2,0l-.5-1.1h0s0,0,0,0c0,0,0,.2,0,0,0,0,0,0,0-.1,0,0,0-.2,0-.3,0,0,0,0,0,0,0-.1,0-.2.1-.3,0-.1,0-.3.1-.4,0-.1.1-.2.2-.3,0-.1.1-.2.2-.3,0-.1.1-.2.2-.3,0,0,0,0,0-.1,0,0,0,0,0,0,.5.8.7.9.6.9,0,.1-.1.2-.2.3,0,.1-.2.3-.2.4,0,.1-.1.3-.2.4,0,.1-.2.3-.2.4,0,.4,0,0-.6-.9,0,0,0,0,0,0,0,0,0,0,0,0,0,0,0,0,0,0,0-.2.2-.4.2-.6,0-.2,0-.3,0-.5,0-.2,0-.4.1-.5,0-.2.1-.4.3-.6.1-.2.3-.4.4-.6l.6,1h0Z"/>
        <path id="path118-7" class="cls-10" d="M878.7,193.1c-.1-.2-.3-.3-.4-.5,0-.1-.2-.2-.2-.3-.3-.4-.5-.8-.8-1.3-.2-.3.4.6.5,1-.2-.4-.4-.7-.6-1.1,0,0,0,0,0,0,0,0,0,0,0,0,.2.3.4.6.6,1,0,0,0,0,0,0-.3-.4-.5-.9-.8-1.3-.2-.3.4.6.5.9,0,0,0,0,0,0-.3-.4-.6-.9-.8-1.3,1.4,2.5,0,0,0,0,0,0,0,0,0,0,0,0,0-.1,0-.2,0,0,0-.2,0-.3l.7.9h0c0,0,0,.2.1.3.6,1.2-1.8-3.1.2.3-1-1.8-.6-1-.4-.7.4.7,1.3,2.2.1.2,0,0,0,0,0,.1,0,0,0,0,0,0,.4.4,1.4,2.5.2.3.2.4.4.7.6,1.1.2.3-.4-.6-.6-.9,0,0,0,0,0,0,0,0,0,.1.1.2,0,.1.2.2.2.3.2.2,0,0,.1.1.1.1.2.2.3.3l.4,1.1h0Z"/>
        <path id="path120-8" class="cls-10" d="M877.1,190.1c-1.1-1.7-.5-.8-.2-.4.3.4.6.8.8,1.3,0,0,0,.1,0,.2,0,0,0,.1,0,.2,0,0,0,0,0,0-.6-1-.8-1.3-.5-.9.2.4.4.7.6,1.1.2.3-.4-.6-.6-1,0,0,0,0,0,0,.3.4.5.8.7,1.2.2.4.5.8-.5-.8,0-.1,0,.1.1.2,0,0,0,0,0,0,0,0,0,0,0,0,0-.1,0-.3,0-.4,0-.1,0-.2-.2-.3.2.3.4.6.6,1,0,0,0,0,0,0-.2-.4-.4-.7-.6-1.1-.2-.3.4.6.6,1,0,0,0,0,0,0,0,0-.2-.1-.3-.2,0,0-.2-.1-.2-.2.5,0-.8-1.4-.4-.9,0,0,.2.2.2.3,0,0,.1.2.2.3,1.2,2.1.5.8,0,0,0,0,0,0,0,0,.2.4.4.7.6,1.1.2.3-.7-1.2-.5-.9,0,0,.2.2.2.2,0,0,.2.2.3.2,0,0,0,.1.2.2l.4,1.1h0c0,0,0-.1-.1-.2,0-.1-.2-.2-.3-.2,0,0-.2-.2-.2-.2-.4-.3-.1,0-.7-1.1-.2-.3.4.6.6,1,0,0,0,0,0,0-.2-.4-.4-.7-.6-1.1-.2-.3.4.6.6,1,0,0-.1-.2-.2-.3,0,0-.1-.2-.2-.3-.1,0,0,0,0,0-.3-.3-1-.9-.5-1.2.1,0,.2,0,.3.1,0,0,.2.1.3.2.4.5-.8-1.3.7,1.1.2.3-.4-.6-.6-1,0,0,0,0,0,0l.6,1c0,.1.1.2.1.4,0,.1,0,.3,0,.4,0,.1,0,.3-.2.2,0,0,0,0,0,0-.3-.4-.5-.8-.7-1.3-.2-.4-.5-.9.5.8,0,0,0,0,0,0-.2-.4-.4-.7-.6-1.1-.2-.3.4.6.6,1-.3-.4-.5-.9-.8-1.4-.2-.4-.5-.9.5.8,0,.1-.2-.4-.2-.2,0,0-.1-.2-.2-.3-.3-.4-.6-.8-.8-1.3l.7.9h0Z"/>
        <path id="path122-7" class="cls-10" d="M908.8,208.9c-.2,0-.5,0-.7,0-.2,0-.4,0-.5,0-.2,0-.4,0-.5,0-.2,0-.3,0-.5,0-.1,0-.3,0-.4-.1-.2,0-.3-.1-.5-.2-.1,0-.3-.1-.4-.2-.1,0-.3-.1-.4-.2-.1,0-.3-.2-.4-.2-.2,0-.3-.1-.5-.2-.1,0-.2,0-.4-.1-.1,0-.2-.1-.3-.2-.1,0-.2-.1-.3-.2-.1,0-.2-.1-.3-.2-.1,0-.2-.1-.3-.1-.1,0-.3-.1-.4-.1-.1,0-.3,0-.4-.1-.1,0-.3,0-.4,0-.2,0-.4,0-.6,0-.2,0-.4,0-.6-.2-.1,0-.3,0-.4,0-.1,0-.3,0-.4,0-.1,0-.3-.1-.4-.2-.1,0-.3-.1-.4-.2-.1,0-.2-.1-.4-.1-.1,0-.3,0-.4,0-.1,0-.3,0-.4-.1-.1,0-.3,0-.4-.1-.4,0-1-1.3-.6-1.1.1,0,.2.1.3.2,0,0,.2.1.3.2.1,0,.3,0,.4,0,.1,0,.3,0,.4.1.1,0,.3,0,.4,0,.1,0,.3,0,.4.1.2,0,.3,0,.5,0,.2,0,.3,0,.5,0,.1,0,.3,0,.4,0,.1,0,.3,0,.4,0,0,0,.2,0,.2,0,.6,1.1.9.9.4,1.1-.2,0-.3,0-.5,0-.1,0-.3,0-.4,0-.1,0-.2-.1-.4-.1-.2,0-.3,0-.5,0-.2,0-.3,0-.5-.1-.1,0-.3-.1-.4-.2-.1,0-.2-.2-.3-.2-.1,0-.2-.1-.3-.2-.1,0-.2-.1-.4-.2-.1,0-.2-.1-.4-.2,0,0-.1,0-.2,0l-.6-1h0c0,0,.2,0,.3,0,.1,0,.3.1.4.2.1,0,.2.1.4.2.1,0,.2.1.3.2.1,0,.2.2.3.2.1,0,.2.1.4.2.1,0,.3,0,.4.1.2,0,.3,0,.5,0,.1,0,.3,0,.4.1.1,0,.3.1.4,0,.2,0,.3,0,.5,0,.4,0,0,0,.6,1,0,0,0,0,0,0,0,0-.1,0-.2,0-.1,0-.3,0-.4,0-.1,0-.3,0-.4,0-.2,0-.3,0-.5,0-.2,0-.3,0-.5,0-.2,0-.3,0-.4,0-.1,0-.3,0-.4,0-.1,0-.3-.1-.4-.1-.1,0-.3,0-.4,0-.1,0-.3,0-.4-.1-.1,0-.2-.2-.3-.2-.3-.3,0,0-.6-1.1,0,0,0,0,0,0,0,0,0,0,0,0,0,0,0,0,0,0,.1,0,.2,0,.4.1.1,0,.2,0,.4.1.1,0,.3,0,.4,0,.1,0,.3,0,.4,0,.1,0,.3.1.4.2.1,0,.3.1.4.2.1,0,.2,0,.4.1.2,0,.3,0,.5,0,.2,0,.4.1.5.2.2,0,.4,0,.6,0,.1,0,.3,0,.4,0,.1,0,.2,0,.4.1.1,0,.3,0,.4.1,0,0,.1,0,.2,0,.2,0,0,0,.1,0,0,0,0,0,0,0,.1,0,.2.1.3.2.1,0,.2.1.3.2.1,0,.2.1.3.2.1,0,.2.1.4.1.2,0,.3.1.5.2.2,0,.3.1.4.2.1,0,.3.2.4.2.1,0,.3,0,.4.2.1,0,.3.1.5.2.1,0,.3,0,.4.1.1,0,.3,0,.4,0,.2,0,.4,0,.5,0,.2,0,.4,0,.5,0,.2,0,.5,0,.7-.1l.5,1h0Z"/>
        <path id="path124-5" class="cls-10" d="M934,205c-.2,0-.4.2-.7.3-.2,0-.3.1-.5.2-.1,0-.3.1-.4.2-.1,0-.3,0-.4.1-.1,0-.3.1-.4.2-.1,0-.3.1-.4.2-.2,0-.3.1-.5.1-.1,0-.3,0-.4,0-.1,0-.3,0-.4,0-.1,0-.3,0-.4.1-.1,0-.2.1-.3.2-.1,0-.3.1-.5.1-.1,0-.2,0-.4.1-.1,0-.2.1-.4.1,0,0-.1,0-.2,0l-.6-1h0c0,0,.2,0,.2-.1.1,0,.2,0,.3-.1.1,0,.2-.1.4-.1.2,0,.3,0,.4-.1.1,0,.2-.1.3-.2.1,0,.3-.1.4-.1.1,0,.3,0,.4,0,.1,0,.3,0,.4,0,.2,0,.3,0,.5-.1.1,0,.3-.1.4-.2.1,0,.3-.1.4-.2.1,0,.3-.1.4-.1.1,0,.3,0,.4-.1.2,0,.3-.1.5-.2.2,0,.4-.2.7-.3l.6,1Z"/>
        <path id="path130-3" class="cls-10" d="M953.8,190.4c-.2.2-.3.3-.5.5-.1.1-.3.2-.4.3-.1,0-.3.1-.4.2-.1,0-.3.1-.4.2-.1,0-.3.2-.4.3-.1.1-.3.2-.4.3-.3.3,0,0-.6-1,0,0,0,0,0,0,0,0,.1,0,.2,0,.1,0,.3-.2.4-.3.1,0,.2-.2.3-.3,0-.1.2-.3.2-.4.2-.8,0-.6.8.6,0,0-.1.2-.2.3,0,.1-.2.3-.2.4,0,.1-.2.3-.3.4,0,.1-.2.2-.3.3-.5.1-.1,0-.6-1.1,0,0,.2-.2.2-.3,0-.1.2-.2.3-.3.1,0,.2-.2.3-.3,0,0,.2-.1.2-.2l.6,1h0c0,0-.2.1-.2.2,0,0-.2.2-.3.3-.1,0-.2.2-.3.3,0,0,0,.1-.1.2,0,0,0,0,0,0-.6-.9-.3-1.2-.6-.9,0,0,.2-.2.2-.2,0-.1.2-.3.2-.4,0-.2.2-.3.2-.4,0-.1.1-.2.2-.3.7,1,.8.7.5,1.4,0,.2-.2.3-.3.4-.1.1-.2.2-.3.3-.1.1-.3.2-.4.3-.5.3-.3,0-.8-.9h0c.1-.1.3-.2.4-.4.1-.1.3-.2.4-.3.1,0,.3-.1.4-.2.1,0,.2,0,.4-.1.1,0,.3-.2.4-.3.2-.1.3-.3.5-.5l.6,1h0Z"/>
        <path id="path132-5" class="cls-10" d="M934.1,114.7c.2,0,.4.1.7.2.1,0,.3,0,.4.2.1,0,.3,0,.5,0,.2,0,.3,0,.5.1.1,0,.3,0,.4,0,.1,0,.2.1.3.2.4.5.7,1,.8,1.6,0,.2,0,.4,0,.5,0,.1-.2.3-.4.3-.1,0-.3,0-.4,0-.1,0-.2,0-.3-.1-.1,0-.2,0-.4-.1,0,0-.2-.1-.3-.1-.1,0-.3,0-.4-.1-.1,0-.2-.1-.3-.2-.1,0-.2-.1-.3-.2,0,0-.2-.1-.3-.2,0,0-.2-.1-.3-.2l-.5-1.1h0c0,0,.2.1.3.2,0,0,.2.1.3.2.1,0,.2.1.3.2.1,0,.2.1.3.2.1,0,.2.1.4.1.1,0,.2,0,.3.1.1,0,.2,0,.3.1.1,0,.2,0,.3.1.1,0,.2,0,.4,0,.1,0,.3-.2.3-.3,0-.2,0-.3,0-.5,0-.1,0-.1,0-.2,0,0,0-.2,0-.1,1,1.5.6,1.1.4.7,0,0,0,0,0-.1,0,0,0,0,0,0,0,0,0,0-.1,0-.1,0-.3,0-.4,0-.2,0-.3,0-.5-.1-.2,0-.3,0-.5,0-.1,0-.3-.1-.4-.2-.2,0-.4-.1-.7-.2l-.5-1.1h0Z"/>
        <path id="path136-8" class="cls-10" d="M959.8,141.6c0,.4,0,.8,0,1.1,0,.3,0,.6.1.9,0,.2,0,.4.1.5,0,.1.1.3.2.4-.2-.3-.7-1.3-.5-1,.2.3.4.7.6,1.1,0,0,0,0,0,0-.2-.3-.7-1.3-.5-1,.6.9.5.7.6,1.1.3.4-.7-1.3-.5-.9.3.4.5.8.6,1.2,0,.1,0,.3,0,.5,0,.1,0,.2,0,.3,0,0,0,0,0,.1,0,.1,0,.3,0,.4.2.6.1.4-.6-.7,0-.1,0-.3-.1-.4h0c.2.3.4.6.5.9,0,0,0,0,0,0,0,0,0,0-.1-.1,0-.1-.1-.2-.2-.3-.2-.4-.5-.8-.7-1.2,0,0,0-.1,0-.2,0,0,.1-.1.2,0,.6,1,.5.7.6,1.1,0,.1,0,.2.1.4,0,0,0,.2,0,.3,0,0,0,0,0,.1,0,.1,0,.3.2.4,0,0,0,0,0,0,0,.2,0,0,0,.1,0,0,0,0,0,0-.6-1-.8-1.2-.5-.9,0,0,0,0,.1.1l.4,1.1h0s0,0-.1-.1c-.3-.4-.6-.9-.8-1.4,0-.1-.1-.2-.1-.4,0-.1,0-.3,0-.4,0-.1,0-.2-.1-.4-.2-.4,0,0,.5.9,0,0,0,0,0,0,0,0,0,0,0,0,0,0,0,0,.1,0,0,0,0,0,0,0,0,0,0,0,0,0-1-1.7-.7-1.1-.5-.8,0,.1.1.2.2.3,0,0,0,.1.1.2.2.4.5.7.7,1.1,0,.1,0,.3,0,.5-.7-.8-.6-.6-.8-1.2,0-.1,0-.3,0-.4,0-.2,0-.3,0-.5,0-.2,0-.3-.1-.4,0,0,0-.2,0-.1,1.2,2,.2.4-.1-.2-.3-.5,1.2,2.3.5.9-.2-.4-.4-.7-.6-1.1-.5-.8,1.9,3.4,0-.2,0-.1-.1-.3-.2-.4,0-.2-.1-.4-.1-.5,0-.3,0-.6,0-.9,0-.4,0-.8,0-1.2l.7.9h0Z"/>
        <g id="text113" class="cls-22">
          <g class="cls-22">
            <g class="cls-22">
              <path class="cls-9" d="M822.5,91.6c0,0-.1,0-.2,0,0,0,0,0-.1-.1,0,0,0-.2,0-.3,0-.1,0-.3,0-.5s0-.5,0-.6c0-.2,0-.3.1-.4,0,0,.1-.1.2-.2l7-5.2h-7c0,0,0,0-.1,0,0,0,0,0-.1-.2s0-.2,0-.3c0-.1,0-.3,0-.5s0-.3,0-.4c0-.1,0-.2,0-.3s0-.1.1-.2c0,0,0,0,.1,0h13.5c0,0,.1,0,.2,0,0,0,0,0,.1.2s0,.2,0,.3c0,.1,0,.3,0,.4s0,.3,0,.5c0,.1,0,.2,0,.3s0,.1-.1.2c0,0,0,0-.2,0h-6.3l6.3,5c0,0,.1,0,.2.2,0,0,0,.1.1.2,0,0,0,.2,0,.3s0,.3,0,.5,0,.3,0,.5c0,.1,0,.2,0,.3,0,0,0,.1-.1.1,0,0,0,0-.1,0,0,0-.2,0-.3,0,0,0-.2-.1-.4-.3l-5.6-4.7-6.7,5c-.2.1-.3.2-.4.2s-.1,0-.2,0Z"/>
            </g>
            <g class="cls-22">
              <path class="cls-9" d="M827.7,98.5h-5.2c0,0-.1,0-.2,0,0,0,0,0-.1-.2,0,0,0-.2,0-.3,0-.1,0-.3,0-.4s0-.3,0-.4c0-.1,0-.2,0-.3s0-.1.1-.2c0,0,0,0,.2,0h5.2l7.9-4c.2,0,.3-.1.4-.1,0,0,.2,0,.2,0,0,0,0,.2,0,.3,0,.1,0,.3,0,.6s0,.4,0,.5,0,.2,0,.3c0,0,0,.1-.1.2,0,0-.1,0-.2.1l-4.1,1.9c-.4.2-.8.4-1.2.5-.4.2-.8.4-1.3.6h0c.4.2.8.4,1.2.5s.8.4,1.2.5l4.1,2c0,0,.1,0,.2,0s0,0,.1.2c0,0,0,.2,0,.3,0,.1,0,.3,0,.5s0,.5,0,.6c0,.1,0,.3-.1.3s-.1,0-.2,0c0,0-.2,0-.4-.1l-7.9-4Z"/>
            </g>
            <g class="cls-22">
              <path class="cls-9" d="M827.7,107.8c-.3,0-.5,0-.6,0-.1,0-.2-.2-.2-.3v-4.6c0-.1,0-.2.2-.3.1,0,.3,0,.6,0s.5,0,.6,0c.1,0,.2.2.2.3v4.6c0,0,0,.1,0,.2,0,0,0,0-.1.1,0,0-.1,0-.2,0,0,0-.2,0-.3,0Z"/>
              <path class="cls-9" d="M829.3,119.1c-1.1,0-2.1,0-3-.3s-1.7-.5-2.3-.8c-.6-.4-1.1-.9-1.5-1.6-.4-.6-.5-1.4-.5-2.4s.2-1.6.5-2.2c.3-.6.8-1.1,1.4-1.5.6-.4,1.4-.6,2.3-.8s1.9-.2,3.1-.2,2.1,0,3,.3,1.7.5,2.3.8c.6.4,1.1.9,1.5,1.5.4.6.5,1.4.5,2.4s-.2,1.6-.5,2.2c-.3.6-.8,1.1-1.4,1.5s-1.4.6-2.3.8c-.9.2-1.9.2-3.1.2ZM829.2,117.2c.7,0,1.3,0,1.9,0,.6,0,1.1-.1,1.5-.2.4,0,.8-.2,1.1-.4s.6-.3.8-.6c.2-.2.3-.5.4-.7s.1-.6.1-.9c0-.6-.1-1.1-.4-1.5-.3-.4-.7-.7-1.2-.9-.5-.2-1.1-.4-1.8-.5-.7,0-1.4-.1-2.2-.1s-1.9,0-2.7.2c-.7.1-1.3.3-1.8.5-.5.2-.8.5-1,.9-.2.4-.3.8-.3,1.3s0,.8.2,1.1.3.6.6.8c.2.2.5.4.9.5.3.1.7.3,1.1.3.4,0,.9.1,1.3.2.5,0,1,0,1.5,0Z"/>
              <path class="cls-9" d="M829.3,130.4c-1.1,0-2.1,0-3-.3s-1.7-.5-2.3-.8c-.6-.4-1.1-.9-1.5-1.6-.4-.6-.5-1.4-.5-2.4s.2-1.6.5-2.2c.3-.6.8-1.1,1.4-1.5.6-.4,1.4-.6,2.3-.8s1.9-.2,3.1-.2,2.1,0,3,.3,1.7.5,2.3.8c.6.4,1.1.9,1.5,1.5.4.6.5,1.4.5,2.4s-.2,1.6-.5,2.2c-.3.6-.8,1.1-1.4,1.5s-1.4.6-2.3.8c-.9.2-1.9.2-3.1.2ZM829.2,128.5c.7,0,1.3,0,1.9,0,.6,0,1.1-.1,1.5-.2.4,0,.8-.2,1.1-.4s.6-.3.8-.6c.2-.2.3-.5.4-.7s.1-.6.1-.9c0-.6-.1-1.1-.4-1.5-.3-.4-.7-.7-1.2-.9-.5-.2-1.1-.4-1.8-.5-.7,0-1.4-.1-2.2-.1s-1.9,0-2.7.2c-.7.1-1.3.3-1.8.5-.5.2-.8.5-1,.9-.2.4-.3.8-.3,1.3s0,.8.2,1.1.3.6.6.8c.2.2.5.4.9.5.3.1.7.3,1.1.3.4,0,.9.1,1.3.2.5,0,1,0,1.5,0Z"/>
              <path class="cls-9" d="M829.8,141.3c-.6,0-1.2,0-1.9-.1-.6,0-1.2-.2-1.8-.4s-1.1-.4-1.6-.7c-.5-.3-.9-.7-1.3-1.1-.4-.4-.7-1-.9-1.6-.2-.6-.3-1.3-.3-2.1s0-.6,0-.9c0-.3,0-.6.1-.8,0-.2.1-.4.2-.6,0-.2.1-.3.2-.3,0,0,.2-.1.3-.2.1,0,.3,0,.5,0s.3,0,.4,0c0,0,.2,0,.2,0,0,0,0,0,.1,0,0,0,0,0,0,.1s0,.2,0,.3c0,.1-.1.3-.2.5,0,.2-.1.5-.2.8,0,.3,0,.6,0,1,0,.7.1,1.3.4,1.8s.6.9,1.1,1.2,1,.6,1.6.7,1.2.2,1.9.3c-.2-.4-.4-.8-.6-1.4-.2-.5-.3-1.2-.3-1.9s.1-1.4.3-2c.2-.5.5-1,.9-1.3.4-.3.8-.6,1.3-.7.5-.1,1.1-.2,1.7-.2s1.2,0,1.8.3,1.1.5,1.5.8c.4.4.8.9,1,1.5s.4,1.3.4,2.1,0,1.1-.2,1.6c-.1.5-.4.8-.6,1.2s-.6.6-1,.8c-.4.2-.8.4-1.3.6s-1,.2-1.6.3c-.6,0-1.2,0-1.8,0ZM830,139.4c.9,0,1.7,0,2.3-.2.6-.1,1.1-.3,1.5-.5.4-.2.7-.5.8-.9.2-.3.3-.8.3-1.2s0-.9-.3-1.2-.4-.6-.7-.8c-.3-.2-.6-.4-1-.5-.4-.1-.7-.2-1.1-.2s-.8,0-1.2.1c-.4,0-.7.2-.9.4s-.4.5-.6.8c-.1.3-.2.7-.2,1.2s0,1.1.2,1.6c.2.5.4.9.6,1.3Z"/>
            </g>
          </g>
        </g>
        <g id="text117" class="cls-22">
          <g class="cls-22">
            <path class="cls-9" d="M846.8,139.8c-.6,0-1.2-.1-1.7-.3-.5-.2-1-.5-1.3-1s-.7-.9-.9-1.6c-.2-.6-.3-1.3-.3-2.1s0-.9.1-1.3c0-.4.2-.8.3-1.1s.2-.6.3-.8c.1-.2.2-.3.2-.4,0,0,.1,0,.2-.1,0,0,.1,0,.2,0,0,0,.2,0,.3,0,.1,0,.2,0,.4,0,.3,0,.4,0,.5,0,.1,0,.2.1.2.2s0,.2-.2.4-.2.5-.4.8c-.1.3-.3.7-.4,1.1-.1.4-.2.9-.2,1.4s0,.9.2,1.3c.1.4.3.7.5.9.2.3.5.4.8.6.3.1.6.2,1,.2s.8,0,1.1-.2.6-.4.8-.7c.2-.3.4-.7.5-1.1s.2-1,.2-1.5v-1.4c0,0,0-.1,0-.2,0,0,0-.1.1-.1,0,0,.1,0,.2-.1s.2,0,.4,0,.3,0,.3,0c0,0,.2,0,.2,0,0,0,0,0,.1.1,0,0,0,.1,0,.2v1.2c0,.5,0,.9.2,1.3.1.4.3.7.5,1s.5.5.8.6.7.2,1.1.2.6,0,.8-.1c.3,0,.5-.2.7-.4.2-.2.3-.4.5-.7.1-.3.2-.6.2-1s0-.8-.2-1.2-.3-.7-.4-.9-.3-.5-.4-.7c-.1-.2-.2-.3-.2-.4s0,0,0-.1c0,0,0,0,.1,0s.1,0,.2,0c0,0,.2,0,.4,0s.2,0,.3,0c0,0,.2,0,.2,0,0,0,.1,0,.2,0,0,0,.1,0,.2.1,0,0,.2.2.3.4s.3.5.4.8c.1.3.2.7.3,1.1s.1.8.1,1.3,0,1.2-.3,1.7c-.2.5-.4.9-.7,1.2-.3.3-.7.6-1.1.7-.4.2-.9.2-1.4.2s-.9,0-1.2-.2-.7-.3-1-.5-.5-.5-.8-.8-.4-.7-.4-1.1h0c0,.5-.2.9-.4,1.3-.2.4-.4.7-.7,1-.3.3-.6.5-1,.7-.4.2-.8.2-1.2.2Z"/>
            <path class="cls-9" d="M839.5,152.3c-.3,0-.4,0-.6,0-.1,0-.2-.1-.2-.3v-10.5c0-.1,0-.2.2-.3.1,0,.3,0,.5,0s.4,0,.6,0c.1,0,.2.2.2.3v10.5c0,.1,0,.2-.2.3-.1,0-.3,0-.5,0Z"/>
            <path class="cls-9" d="M844.8,163.5c-.1,0-.2,0-.3,0,0,0-.2,0-.2,0,0,0-.1,0-.2,0,0,0-.1,0-.2-.2,0,0-.2-.2-.3-.5-.1-.2-.3-.5-.4-.9-.1-.3-.3-.7-.4-1.2s-.1-.9-.1-1.5c0-.9.2-1.7.5-2.5s.8-1.4,1.4-1.9c.6-.5,1.3-.9,2.2-1.2.9-.3,1.9-.4,3-.4s2.2.2,3.1.5c.9.3,1.7.7,2.3,1.3.6.5,1.1,1.2,1.5,2,.3.8.5,1.6.5,2.5s0,.8-.1,1.2-.2.7-.3,1.1c-.1.3-.3.6-.4.9-.2.3-.3.4-.4.5,0,0-.2.2-.2.2,0,0-.1,0-.2,0,0,0-.2,0-.2,0,0,0-.2,0-.3,0s-.3,0-.4,0-.2,0-.3,0-.1,0-.2-.1,0,0,0-.1c0-.1,0-.2.2-.4.1-.2.3-.4.5-.7.2-.3.3-.6.5-1.1.1-.4.2-.9.2-1.5s-.1-1.2-.4-1.7c-.3-.5-.6-1-1.1-1.3s-1.1-.6-1.8-.8c-.7-.2-1.5-.3-2.4-.3s-1.7,0-2.4.3c-.7.2-1.3.5-1.7.8s-.8.8-1,1.3c-.2.5-.4,1.1-.4,1.8s0,1.1.2,1.5c.1.4.3.8.5,1.1.2.3.3.5.5.7.1.2.2.3.2.4s0,0,0,.1c0,0,0,0-.1,0s-.1,0-.3,0c-.1,0-.2,0-.4,0Z"/>
            <path class="cls-9" d="M843.1,167.6c0,0-.1,0-.1,0,0,0,0,0-.1-.1,0,0,0-.2,0-.3,0-.1,0-.3,0-.4s0-.3,0-.4c0-.1,0-.2,0-.3,0,0,0-.1.1-.1s0,0,.1,0h14.5c0,0,.1,0,.2,0s0,0,.1.1c0,0,0,.2,0,.3,0,.1,0,.3,0,.4s0,.3,0,.4,0,.2,0,.3c0,0,0,.1-.1.1,0,0,0,0-.2,0h-14.5Z"/>
            <path class="cls-9" d="M848.1,180c-.8,0-1.5-.1-2.2-.3s-1.3-.5-1.7-.9c-.5-.4-.9-.9-1.1-1.6-.3-.6-.4-1.4-.4-2.2s.1-1.5.4-2.1c.2-.6.6-1.1,1-1.5.5-.4,1-.7,1.7-.9.7-.2,1.4-.3,2.2-.3s1.5.1,2.2.3c.7.2,1.3.5,1.7.9.5.4.9.9,1.1,1.6.3.6.4,1.4.4,2.2s-.1,1.5-.4,2.1c-.2.6-.6,1.1-1,1.5-.5.4-1,.7-1.7.9-.7.2-1.4.3-2.2.3ZM847.9,178.2c.5,0,1,0,1.5-.1.5,0,.9-.3,1.2-.5s.6-.5.8-.9c.2-.4.3-.9.3-1.5s0-1-.3-1.4c-.2-.4-.5-.7-.8-1s-.8-.4-1.2-.6c-.5-.1-1-.2-1.5-.2s-1,0-1.5.1c-.5,0-.9.3-1.2.5-.4.2-.6.5-.8.9s-.3.9-.3,1.5,0,1,.3,1.4c.2.4.5.7.8,1,.3.2.7.4,1.2.5s1,.2,1.6.2Z"/>
            <path class="cls-9" d="M852.2,188.4c-.2,0-.3,0-.4,0-.1,0-.2,0-.3,0s-.1,0-.1,0c0,0,0,0,0-.1s0-.1,0-.2c0,0,0-.2,0-.3,0-.1,0-.2,0-.4,0-.1,0-.3,0-.4s0-.4-.1-.5-.2-.4-.4-.5c-.2-.2-.4-.4-.7-.6-.3-.2-.6-.4-1-.7h-6.4c0,0-.1,0-.1,0,0,0,0,0-.1-.1,0,0,0-.2,0-.3,0-.1,0-.3,0-.4s0-.3,0-.4c0-.1,0-.2,0-.3,0,0,0-.1.1-.1s0,0,.1,0h9.8c0,0,.1,0,.1,0s0,0,.1.1c0,0,0,.1,0,.3,0,.1,0,.2,0,.4s0,.3,0,.4c0,.1,0,.2,0,.2,0,0,0,.1-.1.1s0,0-.1,0h-1.4c.4.3.7.5,1,.8.2.2.4.5.6.7s.2.4.3.6c0,.2,0,.4,0,.6s0,.2,0,.3,0,.2,0,.4c0,.1,0,.2,0,.4,0,.1,0,.2-.1.2s0,0-.1,0c0,0,0,0-.1,0,0,0-.1,0-.2,0,0,0-.2,0-.4,0Z"/>
          </g>
        </g>
        <g id="text122" class="cls-22">
          <g class="cls-22">
            <path class="cls-9" d="M921.2,274.5c0,0-.2,0-.2,0,0,0-.1-.1-.2-.2,0-.1,0-.3-.1-.5,0-.2,0-.5,0-.9s0-.6,0-.8c0-.2,0-.4.1-.5,0-.1.1-.2.2-.3s.2-.1.4-.2l5.4-2.1c.6-.2,1.2-.5,1.7-.8s1-.6,1.3-1c.4-.4.7-.8.9-1.3.2-.5.3-1.1.3-1.8v-2h-9.8c0,0-.2,0-.2,0,0,0-.1-.1-.2-.2,0-.1,0-.3-.1-.5,0-.2,0-.4,0-.7s0-.5,0-.7c0-.2,0-.4.1-.5,0-.1,0-.2.2-.2,0,0,.2,0,.2,0h21.3c.5,0,.8.1,1,.4.2.2.3.5.3.8v4.9c0,.6,0,1.1,0,1.4s0,.7,0,1c-.2.9-.4,1.7-.7,2.4-.3.7-.8,1.3-1.3,1.7s-1.1.8-1.8,1c-.7.2-1.4.3-2.2.3s-1.5-.1-2.1-.3c-.6-.2-1.2-.5-1.6-.9-.5-.4-.9-.9-1.2-1.4-.3-.5-.6-1.2-.9-1.8-.2.4-.4.7-.6,1-.3.3-.6.6-.9.9s-.8.5-1.2.8c-.5.2-1,.5-1.6.7l-5.1,2.1c-.4.2-.7.3-.9.3s-.3,0-.4,0ZM937.4,269.9c.9,0,1.7-.2,2.3-.6.6-.4,1.1-1.1,1.3-2,0-.3.1-.6.2-1,0-.4,0-.9,0-1.5v-2.6h-7.8v3c0,.8,0,1.5.3,2.1.2.6.5,1.1.8,1.5s.8.7,1.2.9c.5.2,1,.3,1.5.3Z"/>
          </g>
        </g>
        <g id="text126" class="cls-22">
          <g class="cls-22">
            <path class="cls-9" d="M906,276.1c-.2,0-.4,0-.6,0-.2,0-.3,0-.4-.1-.1,0-.2-.1-.2-.2,0,0,0-.1,0-.2,0-.1.1-.4.3-.7.2-.3.5-.8.7-1.3.3-.6.5-1.2.7-2s.3-1.7.3-2.8-.2-2.4-.7-3.4c-.5-1-1.1-1.9-1.9-2.6-.8-.7-1.8-1.2-2.9-1.6-1.1-.4-2.3-.6-3.7-.6s-2.8.2-3.9.6c-1.1.4-2.1,1-2.9,1.7-.8.7-1.4,1.6-1.8,2.6-.4,1-.6,2.1-.6,3.3s0,1.4.3,2.2.4,1.4.8,2h6.7v-5.3c0-.2.1-.4.3-.5.2-.1.5-.2.9-.2s.4,0,.6,0c.2,0,.3,0,.4.1s.2.1.2.2c0,0,0,.2,0,.3v7.3c0,.1,0,.3,0,.4,0,.1-.1.2-.2.4,0,.1-.2.2-.4.2-.2,0-.4,0-.6,0h-8.8c-.3,0-.6,0-.8-.2-.2-.1-.4-.3-.6-.7-.2-.3-.4-.8-.6-1.3-.2-.5-.4-1.1-.5-1.7-.1-.6-.2-1.2-.3-1.8,0-.6-.1-1.2-.1-1.8,0-1.8.3-3.4.8-4.8.6-1.4,1.3-2.6,2.4-3.5,1-1,2.2-1.7,3.7-2.2,1.4-.5,3-.8,4.8-.8s3.5.3,5,.8c1.5.6,2.7,1.3,3.8,2.3s1.9,2.2,2.4,3.6c.6,1.4.9,3,.9,4.7s0,1.7-.2,2.5c-.2.8-.3,1.5-.5,2.1-.2.6-.4,1.1-.7,1.5-.2.4-.4.7-.6.8-.2.2-.3.3-.5.3-.2,0-.5,0-.9,0Z"/>
          </g>
        </g>
        <g id="text130" class="cls-22">
          <g class="cls-22">
            <path class="cls-9" d="M860.6,273.4c-.7,0-1.4,0-2-.3s-1.2-.4-1.6-.8c-.5-.3-.9-.7-1.3-1.2-.4-.5-.7-1-.9-1.6-.2-.6-.4-1.2-.6-1.9-.1-.7-.2-1.4-.2-2.3v-6c0-.3,0-.5.3-.8.2-.2.5-.4,1-.4h20.5c.5,0,.8.1,1,.4.2.2.3.5.3.8v5.2c0,1.4-.1,2.5-.4,3.4-.3.9-.6,1.6-1.1,2.2-.5.6-1.1,1-1.8,1.3-.7.3-1.5.4-2.5.4s-1.1,0-1.6-.2c-.5-.1-1-.3-1.4-.6-.4-.3-.8-.6-1.1-1-.3-.4-.6-.8-.8-1.3-.1.6-.3,1.2-.6,1.8-.3.5-.7,1-1.2,1.4-.5.4-1.1.7-1.7,1-.7.2-1.4.4-2.2.4ZM860.4,270.2c.7,0,1.3-.1,1.8-.3s1-.5,1.3-1,.6-.9.8-1.6c.2-.6.3-1.4.3-2.4v-3.7h-8.1v4.4c0,.7,0,1.3.2,1.8s.4,1,.7,1.4c.3.4.7.7,1.2.9.5.2,1,.3,1.7.3ZM870.9,268.8c.6,0,1.1,0,1.5-.2s.8-.4,1.1-.7c.3-.3.6-.8.7-1.3s.2-1.2.2-2.1v-3.2h-7.4v3.5c0,.8.1,1.4.3,1.9.2.5.5.9.8,1.2.3.3.8.6,1.2.7.5.1,1,.2,1.4.2Z"/>
          </g>
        </g>
        <g id="text134" class="cls-22">
          <g class="cls-22">
            <path class="cls-9" d="M962.8,278.5c-.5,0-.8-.1-1-.4-.2-.3-.3-.7-.3-1.3v-20.8c0-.6,0-1,.3-1.3.2-.3.5-.4,1-.4s.8.1.9.4c.2.3.3.7.3,1.3v20.8c0,.3,0,.5,0,.7,0,.2-.1.4-.2.5-.1.1-.2.3-.4.3-.2,0-.3.1-.6.1Z"/>
          </g>
        </g>
      </g>
      <rect id="rect457" class="cls-36" x="893" y="337.6" width="11.3" height="132.8"/>
      <rect id="rect459" class="cls-3" x="860.1" y="337.6" width="11.3" height="72.1"/>
      <rect id="rect849" class="cls-20" x="925.5" y="337.6" width="11.3" height="194.9"/>
      <rect id="rect840" class="cls-14" x="958.1" y="338.3" width="11.3" height="246.8"/>
      <circle id="path322" class="cls-20" cx="931.3" cy="337" r="9.4"/>
      <circle id="circle324" class="cls-36" cx="898.6" cy="337.6" r="9.4"/>
      <circle id="circle326" class="cls-3" cx="865.9" cy="337" r="9.4"/>
      <circle id="circle328" class="cls-14" cx="963.8" cy="337" r="9.4"/>
      <rect class="cls-14" x="20.3" y="573.8" width="949.1" height="11.3"/>
      <rect class="cls-14" x="20.3" y="546.8" width="11.4" height="38.4"/>
      <circle id="circle281" class="cls-14" cx="26.1" cy="548.6" r="11.6" transform="translate(-8.3 .5) rotate(-.9)"/>
      <rect id="rect337" class="cls-3" x="801.2" y="398.3" width="70.2" height="11.3"/>
      <rect id="rect339" class="cls-36" x="801.2" y="459.1" width="103.1" height="11.3"/>
      <rect id="rect341" class="cls-20" x="801.2" y="521.2" width="135.6" height="11.3"/>
      <rect id="rect326" class="cls-3" x="576.9" y="398.3" width="112.1" height="11.3"/>
      <rect id="rect328" class="cls-36" x="576.9" y="459.1" width="112.1" height="11.3"/>
      <rect id="rect330" class="cls-20" x="576.9" y="521.2" width="112.1" height="11.3"/>
      <g id="text1138" class="cls-22">
        <g class="cls-22">
          <path class="cls-9" d="M729.5,413.6c0,.2,0,.4,0,.5,0,.1,0,.2-.1.3,0,0-.1.1-.2.2,0,0-.1,0-.2,0h-10.6c0,0-.1,0-.2,0,0,0-.1,0-.2-.2,0,0-.1-.2-.1-.3,0-.1,0-.3,0-.5s0-.3,0-.5c0-.1,0-.2.1-.3,0,0,.1-.2.2-.2,0,0,.1,0,.2,0h4.2v-15.4l-3.9,2.3c-.2.1-.4.2-.5.2-.1,0-.2,0-.3,0,0,0-.1-.2-.1-.3,0-.2,0-.4,0-.6s0-.3,0-.5,0-.2,0-.3c0,0,0-.2.1-.2,0,0,.1-.1.2-.2l4.7-3s0,0,.2,0c0,0,.1,0,.2,0,0,0,.2,0,.3,0,.1,0,.3,0,.5,0s.5,0,.6,0c.2,0,.3,0,.4,0,0,0,.2,0,.2.1,0,0,0,.1,0,.2v17.8h3.7c0,0,.2,0,.2,0,0,0,.1.1.2.2,0,0,0,.2.1.3,0,.1,0,.3,0,.5Z"/>
          <path class="cls-9" d="M746.3,404.5c0,1.6-.1,3-.4,4.2-.2,1.3-.7,2.4-1.2,3.3-.6.9-1.3,1.6-2.2,2.1-.9.5-2,.8-3.4.8s-2.3-.2-3.2-.7c-.9-.5-1.6-1.1-2.1-2-.5-.9-.9-2-1.1-3.2-.2-1.3-.3-2.8-.3-4.4s.1-3,.4-4.2c.2-1.3.7-2.4,1.2-3.3s1.3-1.6,2.2-2.1c.9-.5,2-.8,3.4-.8s2.4.2,3.2.7c.9.5,1.6,1.1,2.1,2,.5.9.9,2,1.1,3.2.2,1.3.3,2.8.3,4.4ZM743.6,404.7c0-1,0-1.9-.1-2.7,0-.8-.2-1.5-.3-2.1-.1-.6-.3-1.1-.5-1.6-.2-.4-.5-.8-.8-1.1-.3-.3-.7-.5-1.1-.6-.4-.1-.9-.2-1.4-.2-.9,0-1.6.2-2.2.6-.6.4-1,1-1.3,1.7-.3.7-.5,1.6-.6,2.6-.1,1-.2,2-.2,3.2s0,2.8.2,3.9c.2,1.1.4,1.9.7,2.6.3.7.8,1.2,1.3,1.5.5.3,1.2.5,1.9.5s1.1,0,1.5-.3c.4-.2.8-.5,1.1-.8.3-.3.6-.8.8-1.3.2-.5.4-1,.5-1.6s.2-1.2.3-1.9c0-.7,0-1.4,0-2.2Z"/>
          <path class="cls-9" d="M762.6,404.5c0,1.6-.1,3-.4,4.2-.2,1.3-.7,2.4-1.2,3.3-.6.9-1.3,1.6-2.2,2.1-.9.5-2,.8-3.4.8s-2.3-.2-3.2-.7c-.9-.5-1.6-1.1-2.1-2-.5-.9-.9-2-1.1-3.2-.2-1.3-.3-2.8-.3-4.4s.1-3,.4-4.2c.2-1.3.7-2.4,1.2-3.3s1.3-1.6,2.2-2.1c.9-.5,2-.8,3.4-.8s2.4.2,3.2.7c.9.5,1.6,1.1,2.1,2,.5.9.9,2,1.1,3.2.2,1.3.3,2.8.3,4.4ZM759.8,404.7c0-1,0-1.9-.1-2.7,0-.8-.2-1.5-.3-2.1-.1-.6-.3-1.1-.5-1.6-.2-.4-.5-.8-.8-1.1-.3-.3-.7-.5-1.1-.6-.4-.1-.9-.2-1.4-.2-.9,0-1.6.2-2.2.6-.6.4-1,1-1.3,1.7-.3.7-.5,1.6-.6,2.6-.1,1-.2,2-.2,3.2s0,2.8.2,3.9c.2,1.1.4,1.9.7,2.6.3.7.8,1.2,1.3,1.5.5.3,1.2.5,1.9.5s1.1,0,1.5-.3c.4-.2.8-.5,1.1-.8.3-.3.6-.8.8-1.3.2-.5.4-1,.5-1.6s.2-1.2.3-1.9c0-.7,0-1.4,0-2.2Z"/>
          <path class="cls-9" d="M783.4,413.5c0,.2,0,.4,0,.5,0,.1,0,.3-.1.4s-.1.2-.2.2c0,0-.1,0-.2,0h-5.9c-.3,0-.5,0-.6-.2-.2-.2-.2-.4-.2-.8v-.6c0-.1,0-.3,0-.4,0-.1,0-.2.1-.3,0-.1.1-.2.2-.3.1-.1.3-.3.7-.6.4-.3.8-.6,1.3-1.1s.9-1,1.2-1.6c.3-.6.5-1.3.7-2.1.1-.8.2-1.7.2-2.6s0-1.3-.1-1.9c0-.6-.2-1.2-.4-1.8-.2-.6-.5-1.1-.8-1.5-.3-.5-.7-.9-1.1-1.2-.5-.3-1-.6-1.6-.8-.6-.2-1.3-.3-2.1-.3s-1.5.1-2.1.3-1.2.5-1.6.8c-.5.3-.9.8-1.2,1.2-.3.5-.6,1-.8,1.5-.2.6-.4,1.1-.5,1.7,0,.6-.1,1.2-.1,1.8,0,1.1,0,2,.2,2.8s.4,1.5.7,2.1c.3.6.7,1.1,1.2,1.6.5.5.9.8,1.3,1.1.4.3.6.5.7.6.1.1.2.2.2.4,0,.1,0,.2.1.3,0,.1,0,.2,0,.4v.6c0,.4,0,.6-.2.8s-.4.2-.6.2h-5.9c0,0-.2,0-.2,0,0,0-.1-.1-.2-.2,0,0,0-.2-.1-.4,0-.1,0-.3,0-.5,0-.4,0-.7.1-.9,0-.2.2-.3.4-.3h3.9c-.7-.4-1.3-.8-1.8-1.4-.5-.5-1-1.2-1.4-1.9-.4-.7-.7-1.5-.9-2.3-.2-.8-.3-1.8-.3-2.8,0-1.4.2-2.8.6-4,.4-1.2,1-2.3,1.8-3.1.8-.9,1.7-1.6,2.9-2.1,1.2-.5,2.5-.7,4-.7s2.7.2,3.8.7c1.1.5,2,1.1,2.8,2s1.3,1.9,1.7,3c.4,1.2.6,2.5.6,3.9s-.1,2-.3,2.9-.5,1.7-.9,2.4c-.4.7-.8,1.4-1.4,1.9-.5.5-1.1,1-1.8,1.4h3.9c.2,0,.3,0,.4.3,0,.2.1.5.1.9Z"/>
        </g>
      </g>
      <g id="text1142" class="cls-22">
        <g class="cls-22">
          <path class="cls-9" d="M726.8,473.8c0,.2,0,.4,0,.5,0,.1,0,.2-.1.3,0,0-.1.1-.2.2,0,0-.1,0-.2,0h-10.6c0,0-.1,0-.2,0,0,0-.1,0-.2-.2,0,0-.1-.2-.1-.3,0-.1,0-.3,0-.5s0-.3,0-.5c0-.1,0-.2.1-.3,0,0,.1-.2.2-.2,0,0,.1,0,.2,0h4.2v-15.4l-3.9,2.3c-.2.1-.4.2-.5.2-.1,0-.2,0-.3,0,0,0-.1-.2-.1-.3,0-.2,0-.4,0-.6s0-.3,0-.5,0-.2,0-.3c0,0,0-.2.1-.2,0,0,.1-.1.2-.2l4.7-3s0,0,.2,0c0,0,.1,0,.2,0,0,0,.2,0,.3,0,.1,0,.3,0,.5,0s.5,0,.6,0c.2,0,.3,0,.4,0,0,0,.2,0,.2.1,0,0,0,.1,0,.2v17.8h3.7c0,0,.2,0,.2,0,0,0,.1.1.2.2,0,0,0,.2.1.3,0,.1,0,.3,0,.5Z"/>
          <path class="cls-9" d="M743,473.8c0,.2,0,.4,0,.5,0,.1,0,.2-.1.3,0,0-.1.1-.2.2,0,0-.1,0-.2,0h-10.6c0,0-.1,0-.2,0,0,0-.1,0-.2-.2,0,0-.1-.2-.1-.3,0-.1,0-.3,0-.5s0-.3,0-.5c0-.1,0-.2.1-.3,0,0,.1-.2.2-.2,0,0,.1,0,.2,0h4.2v-15.4l-3.9,2.3c-.2.1-.4.2-.5.2-.1,0-.2,0-.3,0,0,0-.1-.2-.1-.3,0-.2,0-.4,0-.6s0-.3,0-.5,0-.2,0-.3c0,0,0-.2.1-.2,0,0,.1-.1.2-.2l4.7-3s0,0,.2,0c0,0,.1,0,.2,0,0,0,.2,0,.3,0,.1,0,.3,0,.5,0s.5,0,.6,0c.2,0,.3,0,.4,0,0,0,.2,0,.2.1,0,0,0,.1,0,.2v17.8h3.7c0,0,.2,0,.2,0,0,0,.1.1.2.2,0,0,0,.2.1.3,0,.1,0,.3,0,.5Z"/>
          <path class="cls-9" d="M759.8,464.7c0,1.6-.1,3-.4,4.2-.2,1.3-.7,2.4-1.2,3.3-.6.9-1.3,1.6-2.2,2.1-.9.5-2,.8-3.4.8s-2.3-.2-3.2-.7c-.9-.5-1.6-1.1-2.1-2-.5-.9-.9-2-1.1-3.2-.2-1.3-.3-2.8-.3-4.4s.1-3,.4-4.2c.2-1.3.7-2.4,1.2-3.3s1.3-1.6,2.2-2.1c.9-.5,2-.8,3.4-.8s2.4.2,3.2.7c.9.5,1.6,1.1,2.1,2,.5.9.9,2,1.1,3.2.2,1.3.3,2.8.3,4.4ZM757.1,464.9c0-1,0-1.9-.1-2.7,0-.8-.2-1.5-.3-2.1-.1-.6-.3-1.1-.5-1.6-.2-.4-.5-.8-.8-1.1-.3-.3-.7-.5-1.1-.6-.4-.1-.9-.2-1.4-.2-.9,0-1.6.2-2.2.6-.6.4-1,1-1.3,1.7-.3.7-.5,1.6-.6,2.6-.1,1-.2,2-.2,3.2s0,2.8.2,3.9c.2,1.1.4,1.9.7,2.6.3.7.8,1.2,1.3,1.5.5.3,1.2.5,1.9.5s1.1,0,1.5-.3c.4-.2.8-.5,1.1-.8.3-.3.6-.8.8-1.3.2-.5.4-1,.5-1.6s.2-1.2.3-1.9c0-.7,0-1.4,0-2.2Z"/>
          <path class="cls-9" d="M780.7,473.8c0,.2,0,.4,0,.5,0,.1,0,.3-.1.4s-.1.2-.2.2c0,0-.1,0-.2,0h-5.9c-.3,0-.5,0-.6-.2-.2-.2-.2-.4-.2-.8v-.6c0-.1,0-.3,0-.4,0-.1,0-.2.1-.3,0-.1.1-.2.2-.3.1-.1.3-.3.7-.6.4-.3.8-.6,1.3-1.1s.9-1,1.2-1.6c.3-.6.5-1.3.7-2.1.1-.8.2-1.7.2-2.6s0-1.3-.1-1.9c0-.6-.2-1.2-.4-1.8-.2-.6-.5-1.1-.8-1.5-.3-.5-.7-.9-1.1-1.2-.5-.3-1-.6-1.6-.8-.6-.2-1.3-.3-2.1-.3s-1.5.1-2.1.3-1.2.5-1.6.8c-.5.3-.9.8-1.2,1.2-.3.5-.6,1-.8,1.5-.2.6-.4,1.1-.5,1.7,0,.6-.1,1.2-.1,1.8,0,1.1,0,2,.2,2.8s.4,1.5.7,2.1c.3.6.7,1.1,1.2,1.6.5.5.9.8,1.3,1.1.4.3.6.5.7.6.1.1.2.2.2.4,0,.1,0,.2.1.3,0,.1,0,.2,0,.4v.6c0,.4,0,.6-.2.8s-.4.2-.6.2h-5.9c0,0-.2,0-.2,0,0,0-.1-.1-.2-.2,0,0,0-.2-.1-.4,0-.1,0-.3,0-.5,0-.4,0-.7.1-.9,0-.2.2-.3.4-.3h3.9c-.7-.4-1.3-.8-1.8-1.4-.5-.5-1-1.2-1.4-1.9-.4-.7-.7-1.5-.9-2.3-.2-.8-.3-1.8-.3-2.8,0-1.4.2-2.8.6-4,.4-1.2,1-2.3,1.8-3.1.8-.9,1.7-1.6,2.9-2.1,1.2-.5,2.5-.7,4-.7s2.7.2,3.8.7c1.1.5,2,1.1,2.8,2s1.3,1.9,1.7,3c.4,1.2.6,2.5.6,3.9s-.1,2-.3,2.9-.5,1.7-.9,2.4c-.4.7-.8,1.4-1.4,1.9-.5.5-1.1,1-1.8,1.4h3.9c.2,0,.3,0,.4.3,0,.2.1.5.1.9Z"/>
        </g>
      </g>
      <g id="text1146" class="cls-22">
        <g class="cls-22">
          <path class="cls-9" d="M729.5,536.1c0,.2,0,.4,0,.5,0,.1,0,.2-.1.3,0,0-.1.1-.2.2,0,0-.1,0-.2,0h-10.6c0,0-.1,0-.2,0,0,0-.1,0-.2-.2,0,0-.1-.2-.1-.3,0-.1,0-.3,0-.5s0-.3,0-.5c0-.1,0-.2.1-.3,0,0,.1-.2.2-.2s.1,0,.2,0h4.2v-15.4l-3.9,2.3c-.2.1-.4.2-.5.2-.1,0-.2,0-.3,0,0,0-.1-.2-.1-.3s0-.4,0-.6,0-.3,0-.5,0-.2,0-.3c0,0,0-.2.1-.2s.1-.1.2-.2l4.7-3s0,0,.2,0c0,0,.1,0,.2,0,0,0,.2,0,.3,0,.1,0,.3,0,.5,0s.5,0,.6,0c.2,0,.3,0,.4,0,0,0,.2,0,.2.1,0,0,0,.1,0,.2v17.8h3.7c0,0,.2,0,.2,0s.1.1.2.2c0,0,0,.2.1.3,0,.1,0,.3,0,.5Z"/>
          <path class="cls-9" d="M746.1,532c0,.9-.2,1.7-.5,2.3-.3.7-.8,1.3-1.4,1.7s-1.3.8-2.2,1.1-1.9.4-3,.4-2-.1-2.8-.3-1.5-.5-2.1-1c-.6-.4-1-1-1.3-1.6s-.5-1.3-.5-2.1.1-1.2.3-1.8.5-1,.9-1.5c.4-.4.9-.9,1.4-1.3s1.2-.8,1.9-1.1c-.6-.3-1.2-.7-1.7-1s-.9-.8-1.2-1.2-.6-.9-.8-1.4c-.2-.5-.3-1-.3-1.6s.1-1.4.4-2c.3-.6.6-1.2,1.2-1.6.5-.5,1.2-.8,2-1.1s1.7-.4,2.8-.4,1.9.1,2.6.4c.7.2,1.4.6,1.8,1s.8.9,1.1,1.5c.2.6.3,1.2.3,1.8s0,1-.3,1.5c-.2.5-.4,1-.8,1.4s-.7.8-1.2,1.2c-.5.4-1,.7-1.7,1.1.7.4,1.4.7,2,1.1.6.4,1.1.8,1.5,1.2.4.4.7.9.9,1.4.2.5.3,1,.3,1.6ZM743.4,532.3c0-.5,0-.9-.3-1.3s-.4-.8-.8-1.1c-.4-.3-.8-.7-1.3-1-.5-.3-1.2-.6-1.9-1-.7.3-1.2.6-1.7,1-.5.3-.9.7-1.2,1s-.6.7-.7,1.1c-.2.4-.2.8-.2,1.3,0,1,.3,1.8,1,2.3.7.6,1.7.8,3.1.8s2.3-.3,3-.8c.7-.6,1-1.3,1-2.3ZM742.8,521.6c0-.4,0-.8-.2-1.2-.2-.4-.4-.7-.7-.9s-.7-.4-1.1-.6c-.4-.1-.9-.2-1.5-.2-1.1,0-2,.3-2.6.8-.6.5-.9,1.2-.9,2.1s0,.8.2,1.1c.1.3.4.7.7,1s.7.6,1.1.9,1,.6,1.6.9c1.1-.5,1.9-1.1,2.4-1.8s.8-1.4.8-2.2Z"/>
          <path class="cls-9" d="M762.6,527c0,1.6-.1,3-.4,4.2s-.7,2.4-1.2,3.3-1.3,1.6-2.2,2.1-2,.8-3.4.8-2.3-.2-3.2-.7-1.6-1.1-2.1-2c-.5-.9-.9-2-1.1-3.2-.2-1.3-.3-2.8-.3-4.4s.1-3,.4-4.2c.2-1.3.7-2.4,1.2-3.3s1.3-1.6,2.2-2.1c.9-.5,2-.8,3.4-.8s2.4.2,3.2.7,1.6,1.1,2.1,2c.5.9.9,2,1.1,3.2.2,1.3.3,2.8.3,4.4ZM759.8,527.2c0-1,0-1.9-.1-2.7,0-.8-.2-1.5-.3-2.1-.1-.6-.3-1.1-.5-1.6-.2-.4-.5-.8-.8-1.1-.3-.3-.7-.5-1.1-.6-.4-.1-.9-.2-1.4-.2-.9,0-1.6.2-2.2.6-.6.4-1,1-1.3,1.7-.3.7-.5,1.6-.6,2.6-.1,1-.2,2-.2,3.2s0,2.8.2,3.9c.2,1.1.4,1.9.7,2.6.3.7.8,1.2,1.3,1.5.5.3,1.2.5,1.9.5s1.1,0,1.5-.3.8-.5,1.1-.8c.3-.3.6-.8.8-1.3.2-.5.4-1,.5-1.6s.2-1.2.3-1.9c0-.7,0-1.4,0-2.2Z"/>
          <path class="cls-9" d="M783.4,536.1c0,.2,0,.4,0,.5s0,.3-.1.4-.1.2-.2.2c0,0-.1,0-.2,0h-5.9c-.3,0-.5,0-.6-.2-.2-.2-.2-.4-.2-.8v-.6c0-.1,0-.3,0-.4,0-.1,0-.2.1-.3,0-.1.1-.2.2-.3.1-.1.3-.3.7-.6.4-.3.8-.6,1.3-1.1s.9-1,1.2-1.6.5-1.3.7-2.1c.1-.8.2-1.7.2-2.6s0-1.3-.1-1.9c0-.6-.2-1.2-.4-1.8-.2-.6-.5-1.1-.8-1.5-.3-.5-.7-.9-1.1-1.2-.5-.3-1-.6-1.6-.8s-1.3-.3-2.1-.3-1.5.1-2.1.3-1.2.5-1.6.8c-.5.3-.9.8-1.2,1.2-.3.5-.6,1-.8,1.5-.2.6-.4,1.1-.5,1.7,0,.6-.1,1.2-.1,1.8,0,1.1,0,2,.2,2.8s.4,1.5.7,2.1c.3.6.7,1.1,1.2,1.6.5.5.9.8,1.3,1.1.4.3.6.5.7.6.1.1.2.2.2.4,0,.1,0,.2.1.3,0,.1,0,.2,0,.4v.6c0,.4,0,.6-.2.8-.2.2-.4.2-.6.2h-5.9c0,0-.2,0-.2,0,0,0-.1-.1-.2-.2s0-.2-.1-.4,0-.3,0-.5c0-.4,0-.7.1-.9,0-.2.2-.3.4-.3h3.9c-.7-.4-1.3-.8-1.8-1.4-.5-.5-1-1.2-1.4-1.9-.4-.7-.7-1.5-.9-2.3-.2-.8-.3-1.8-.3-2.8,0-1.4.2-2.8.6-4,.4-1.2,1-2.3,1.8-3.1.8-.9,1.7-1.6,2.9-2.1,1.2-.5,2.5-.7,4-.7s2.7.2,3.8.7c1.1.5,2,1.1,2.8,2s1.3,1.9,1.7,3,.6,2.5.6,3.9-.1,2-.3,2.9-.5,1.7-.9,2.4c-.4.7-.8,1.4-1.4,1.9-.5.5-1.1,1-1.8,1.4h3.9c.2,0,.3,0,.4.3,0,.2.1.5.1.9Z"/>
        </g>
      </g>
      <rect id="rect330-2" class="cls-20" x="569.8" y="493.9" width="11.3" height="38.6"/>
      <rect id="rect330-3" class="cls-3" x="569.8" y="398.3" width="11.3" height="38.6"/>
      <circle id="circle281-2" class="cls-3" cx="575.8" cy="435.1" r="11.6"/>
      <circle id="circle281-3" class="cls-36" cx="575.8" cy="465.4" r="11.6"/>
      <circle id="circle281-4" class="cls-20" cx="575.8" cy="495.8" r="11.6"/>
    </g>
  </g>
</svg>