<?xml version="1.0" encoding="utf-8"?>
<!-- Generator: Adobe Illustrator 27.8.0, SVG Export Plug-In . SVG Version: 6.00 Build 0)  -->
<svg version="1.1"
	 id="Ebene_1" xmlns:svg="http://www.w3.org/2000/svg" xmlns:rdf="http://www.w3.org/1999/02/22-rdf-syntax-ns#" xmlns:sodipodi="http://sodipodi.sourceforge.net/DTD/sodipodi-0.dtd" xmlns:dc="http://purl.org/dc/elements/1.1/" xmlns:inkscape="http://www.inkscape.org/namespaces/inkscape" xmlns:cc="http://creativecommons.org/ns#" inkscape:version="0.92.4 (5da689c313, 2019-01-14)"
	 xmlns="http://www.w3.org/2000/svg" xmlns:xlink="http://www.w3.org/1999/xlink" x="0px" y="0px" viewBox="0 0 461.7 807.6"
	 style="enable-background:new 0 0 461.7 807.6;" xml:space="preserve">
<style type="text/css">
	.st0{fill:#02814B;}
	.st1{fill:#D4C547;}
	.st2{fill:#525035;}
	.st3{fill:#FEE86F;}
	.st4{fill:#FFE17B;}
	.st5{fill:#DDDDDD;}
	.st6{fill:#7F7F7F;}
	.st7{fill:#474544;}
	.st8{fill:#E2EADE;}
	.st9{fill:#C29148;}
	.st10{fill:#8DDDDE;}
	.st11{fill:#C1C1C1;}
	.st12{fill:#C2BFAB;}
	.st13{fill:none;stroke:#95AC6E;stroke-miterlimit:10;}
	.st14{fill:#E8D28A;}
	.st15{fill:#CECECE;}
	.st16{fill:#FFFFFF;}
	.st17{fill:#36323E;}
	.st18{fill:#868C97;}
	.st19{fill:#FCFCFA;}
	.st20{fill:#141316;}
	.st21{fill:#B9A68F;}
	.st22{fill:#E0B45B;}
	.st23{fill:#ABA28E;}
	.st24{fill:none;stroke:#FFFFFF;stroke-miterlimit:10;}
	.st25{fill:#010101;}
	.st26{fill:#1B1B1B;}
	.st27{opacity:0.99;fill:#808181;enable-background:new    ;}
	.st28{opacity:0.99;fill:#CDCCCC;enable-background:new    ;}
	.st29{opacity:0.99;fill:#FFFFFF;enable-background:new    ;}
	.st30{opacity:0.99;fill:#1B1B1B;enable-background:new    ;}
	.st31{opacity:0.99;fill:#010101;enable-background:new    ;}
	.st32{enable-background:new    ;}
	.st33{fill:#915114;}
	.st34{fill:#E20E18;}
	.st35{fill:#22AE87;}
	.st36{fill:#25AF88;}
</style>
<g>
	<path class="st0" d="M243.3,225.6v-11.9H0.2v11.9c2.3,0.9,3.9,3.1,3.9,5.7s-1.6,4.8-3.9,5.7V255c2.3,0.9,3.9,3.1,3.9,5.7
		s-1.6,4.8-3.9,5.7v18.1c2.3,0.9,3.9,3.1,3.9,5.7s-1.6,4.8-3.9,5.7v18.1c2.3,0.9,3.9,3.1,3.9,5.7s-1.6,4.8-3.9,5.7v18.1
		c2.3,0.9,3.9,3.1,3.9,5.7s-1.6,4.8-3.9,5.7v18.1c2.3,0.9,3.9,3.1,3.9,5.7s-1.6,4.8-3.9,5.7V402c2.3,0.9,3.9,3.1,3.9,5.7
		s-1.6,4.8-3.9,5.7v18.1c2.3,0.9,3.9,3.1,3.9,5.7s-1.6,4.8-3.9,5.7v18.1c2.3,0.9,3.9,3.1,3.9,5.7s-1.6,4.8-3.9,5.7v18.1
		c2.3,0.9,3.9,3.1,3.9,5.7s-1.6,4.8-3.9,5.7v18.1c2.3,0.9,3.9,3.1,3.9,5.7s-1.6,4.8-3.9,5.7V549c2.3,0.9,3.9,3.1,3.9,5.7
		s-1.6,4.8-3.9,5.7v18.1c2.3,0.9,3.9,3.1,3.9,5.7s-1.6,4.8-3.9,5.7v18.1c2.3,0.9,3.9,3.1,3.9,5.7s-1.6,4.8-3.9,5.7v18.1
		c2.3,0.9,3.9,3.1,3.9,5.7s-1.6,4.8-3.9,5.7v18.1c2.3,0.9,3.9,3.1,3.9,5.7s-1.6,4.8-3.9,5.7v18.1c2.3,0.9,3.9,3.1,3.9,5.7
		s-1.6,4.8-3.9,5.7v18.1c2.3,0.9,3.9,3.1,3.9,5.7s-1.6,4.8-3.9,5.7v18c2.3,0.9,3.9,3.1,3.9,5.7s-1.6,4.8-3.9,5.7v18.1
		c2.3,0.9,3.9,3.1,3.9,5.7s-1.6,4.8-3.9,5.7v11.9h78.5h7.5h11.3h18.5h11.3H146h11.3h4h82v-11.9c-2.2-0.9-3.8-3.1-3.8-5.7
		s1.6-4.8,3.8-5.7v-18.1c-2.2-0.9-3.8-3.1-3.8-5.7s1.6-4.8,3.8-5.7v-18.1c-2.2-0.9-3.8-3.1-3.8-5.7s1.6-4.8,3.8-5.7v-18.1
		c-2.2-0.9-3.8-3.1-3.8-5.7s1.6-4.8,3.8-5.7v-18.1c-2.2-0.9-3.8-3.1-3.8-5.7s1.6-4.8,3.8-5.7v-18.1c-2.2-0.9-3.8-3.1-3.8-5.7
		s1.6-4.8,3.8-5.7v-18.1c-2.2-0.9-3.8-3.1-3.8-5.7s1.6-4.8,3.8-5.7v-18.1c-2.2-0.9-3.8-3.1-3.8-5.7s1.6-4.8,3.8-5.7v-18.1
		c-2.2-0.9-3.8-3.1-3.8-5.7s1.6-4.8,3.8-5.7v-18.1c-2.2-0.9-3.8-3.1-3.8-5.7s1.6-4.8,3.8-5.7v-18.1c-2.2-0.9-3.8-3.1-3.8-5.7
		s1.6-4.8,3.8-5.7v-18.1c-2.2-0.9-3.8-3.1-3.8-5.7s1.6-4.8,3.8-5.7v-18.1c-2.2-0.9-3.8-3.1-3.8-5.7s1.6-4.8,3.8-5.7v-18.1
		c-2.2-0.9-3.8-3.1-3.8-5.7s1.6-4.8,3.8-5.7v-18.1c-2.2-0.9-3.8-3.1-3.8-5.7s1.6-4.8,3.8-5.7v-18.1c-2.2-0.9-3.8-3.1-3.8-5.7
		s1.6-4.8,3.8-5.7v-18.1c-2.2-0.9-3.8-3.1-3.8-5.7s1.6-4.8,3.8-5.7v-18.1c-2.2-0.9-3.8-3.1-3.8-5.7s1.6-4.8,3.8-5.7v-18.1
		c-2.2-0.9-3.8-3.1-3.8-5.7s1.6-4.8,3.8-5.7v-18.1c-2.2-0.9-3.8-3.1-3.8-5.7S241.1,226.5,243.3,225.6z M15.8,795.9
		c-3.4,0-6.1-2.7-6.1-6.1s2.7-6.1,6.1-6.1s6.1,2.7,6.1,6.1S19.2,795.9,15.8,795.9z M15.8,766.5c-3.4,0-6.1-2.7-6.1-6.1
		s2.7-6.1,6.1-6.1s6.1,2.7,6.1,6.1S19.2,766.5,15.8,766.5z M15.8,737.1c-3.4,0-6.1-2.7-6.1-6.1s2.7-6.1,6.1-6.1s6.1,2.7,6.1,6.1
		S19.2,737.1,15.8,737.1z M15.8,707.7c-3.4,0-6.1-2.7-6.1-6.1s2.7-6.1,6.1-6.1s6.1,2.7,6.1,6.1S19.2,707.7,15.8,707.7z M15.8,678.3
		c-3.4,0-6.1-2.7-6.1-6.1s2.7-6.1,6.1-6.1s6.1,2.7,6.1,6.1S19.2,678.3,15.8,678.3z M15.8,648.9c-3.4,0-6.1-2.7-6.1-6.1
		s2.7-6.1,6.1-6.1s6.1,2.7,6.1,6.1S19.2,648.9,15.8,648.9z M15.8,619.5c-3.4,0-6.1-2.7-6.1-6.1s2.7-6.1,6.1-6.1s6.1,2.7,6.1,6.1
		S19.2,619.5,15.8,619.5z M15.8,590.1c-3.4,0-6.1-2.7-6.1-6.1s2.7-6.1,6.1-6.1s6.1,2.7,6.1,6.1S19.2,590.1,15.8,590.1z M15.8,560.7
		c-3.4,0-6.1-2.7-6.1-6.1s2.7-6.1,6.1-6.1s6.1,2.7,6.1,6.1S19.2,560.7,15.8,560.7z M15.8,531.3c-3.4,0-6.1-2.7-6.1-6.1
		s2.7-6.1,6.1-6.1s6.1,2.7,6.1,6.1S19.2,531.3,15.8,531.3z M15.8,501.9c-3.4,0-6.1-2.7-6.1-6.1s2.7-6.1,6.1-6.1s6.1,2.7,6.1,6.1
		S19.2,501.9,15.8,501.9z M15.8,472.5c-3.4,0-6.1-2.7-6.1-6.1s2.7-6.1,6.1-6.1s6.1,2.7,6.1,6.1S19.2,472.5,15.8,472.5z M15.8,443.1
		c-3.4,0-6.1-2.7-6.1-6.1s2.7-6.1,6.1-6.1s6.1,2.7,6.1,6.1S19.2,443.1,15.8,443.1z M15.8,413.7c-3.4,0-6.1-2.7-6.1-6.1
		s2.7-6.1,6.1-6.1s6.1,2.7,6.1,6.1S19.2,413.7,15.8,413.7z M15.8,384.4c-3.4,0-6.1-2.7-6.1-6.1s2.7-6.1,6.1-6.1s6.1,2.7,6.1,6.1
		S19.2,384.4,15.8,384.4z M15.8,355c-3.4,0-6.1-2.7-6.1-6.1s2.7-6.1,6.1-6.1s6.1,2.7,6.1,6.1S19.2,355,15.8,355z M15.8,325.6
		c-3.4,0-6.1-2.7-6.1-6.1s2.7-6.1,6.1-6.1c3.4,0,6.1,2.7,6.1,6.1S19.2,325.6,15.8,325.6z M15.8,296.2c-3.4,0-6.1-2.7-6.1-6.1
		s2.7-6.1,6.1-6.1s6.1,2.7,6.1,6.1S19.2,296.2,15.8,296.2z M15.8,266.8c-3.4,0-6.1-2.7-6.1-6.1s2.7-6.1,6.1-6.1s6.1,2.7,6.1,6.1
		S19.2,266.8,15.8,266.8z M15.8,237.4c-3.4,0-6.1-2.7-6.1-6.1s2.7-6.1,6.1-6.1s6.1,2.7,6.1,6.1S19.2,237.4,15.8,237.4z M53.7,795.8
		c-6.7,0-12.1-5.4-12.1-12.1s5.4-12.1,12.1-12.1c6.7,0,12.1,5.4,12.1,12.1S60.4,795.8,53.7,795.8z M53.7,248.7
		c-6.7,0-12.1-5.4-12.1-12.1c0-6.7,5.4-12.1,12.1-12.1c6.7,0,12.1,5.4,12.1,12.1C65.8,243.3,60.4,248.7,53.7,248.7z M127.6,581.9
		c-3.1,0-5.7-2.6-5.7-5.7s2.6-5.7,5.7-5.7c3.1,0,5.7,2.6,5.7,5.7S130.7,581.9,127.6,581.9z M157,581.9c-3.1,0-5.7-2.6-5.7-5.7
		s2.6-5.7,5.7-5.7c3.1,0,5.7,2.6,5.7,5.7S160.2,581.9,157,581.9z M186.2,224.5c6.7,0,12.1,5.4,12.1,12.1c0,6.7-5.4,12.1-12.1,12.1
		s-12.1-5.4-12.1-12.1C174.1,229.9,179.6,224.5,186.2,224.5z M192.5,576.2c0,3.1-2.6,5.7-5.7,5.7c-3.1,0-5.7-2.6-5.7-5.7
		s2.6-5.7,5.7-5.7C190,570.5,192.5,573.1,192.5,576.2z M188.2,795.8c-6.7,0-12.1-5.4-12.1-12.1s5.4-12.1,12.1-12.1
		s12.1,5.4,12.1,12.1S194.9,795.8,188.2,795.8z M227.8,795.9c-3.4,0-6.1-2.7-6.1-6.1s2.7-6.1,6.1-6.1s6.1,2.7,6.1,6.1
		S231.2,795.9,227.8,795.9z M227.8,766.5c-3.4,0-6.1-2.7-6.1-6.1s2.7-6.1,6.1-6.1s6.1,2.7,6.1,6.1S231.2,766.5,227.8,766.5z
		 M227.8,737.1c-3.4,0-6.1-2.7-6.1-6.1s2.7-6.1,6.1-6.1s6.1,2.7,6.1,6.1S231.2,737.1,227.8,737.1z M227.8,707.7
		c-3.4,0-6.1-2.7-6.1-6.1s2.7-6.1,6.1-6.1s6.1,2.7,6.1,6.1S231.2,707.7,227.8,707.7z M227.8,678.3c-3.4,0-6.1-2.7-6.1-6.1
		s2.7-6.1,6.1-6.1s6.1,2.7,6.1,6.1S231.2,678.3,227.8,678.3z M227.8,648.9c-3.4,0-6.1-2.7-6.1-6.1s2.7-6.1,6.1-6.1s6.1,2.7,6.1,6.1
		S231.2,648.9,227.8,648.9z M227.8,619.5c-3.4,0-6.1-2.7-6.1-6.1s2.7-6.1,6.1-6.1s6.1,2.7,6.1,6.1S231.2,619.5,227.8,619.5z
		 M227.8,590.1c-3.4,0-6.1-2.7-6.1-6.1s2.7-6.1,6.1-6.1s6.1,2.7,6.1,6.1S231.2,590.1,227.8,590.1z M227.8,560.7
		c-3.4,0-6.1-2.7-6.1-6.1s2.7-6.1,6.1-6.1s6.1,2.7,6.1,6.1S231.2,560.7,227.8,560.7z M227.8,531.3c-3.4,0-6.1-2.7-6.1-6.1
		s2.7-6.1,6.1-6.1s6.1,2.7,6.1,6.1S231.2,531.3,227.8,531.3z M227.8,501.9c-3.4,0-6.1-2.7-6.1-6.1s2.7-6.1,6.1-6.1s6.1,2.7,6.1,6.1
		S231.2,501.9,227.8,501.9z M227.8,472.5c-3.4,0-6.1-2.7-6.1-6.1s2.7-6.1,6.1-6.1s6.1,2.7,6.1,6.1S231.2,472.5,227.8,472.5z
		 M227.8,443.1c-3.4,0-6.1-2.7-6.1-6.1s2.7-6.1,6.1-6.1s6.1,2.7,6.1,6.1S231.2,443.1,227.8,443.1z M227.8,413.7
		c-3.4,0-6.1-2.7-6.1-6.1s2.7-6.1,6.1-6.1s6.1,2.7,6.1,6.1S231.2,413.7,227.8,413.7z M227.8,384.4c-3.4,0-6.1-2.7-6.1-6.1
		s2.7-6.1,6.1-6.1s6.1,2.7,6.1,6.1S231.2,384.4,227.8,384.4z M227.8,355c-3.4,0-6.1-2.7-6.1-6.1s2.7-6.1,6.1-6.1s6.1,2.7,6.1,6.1
		S231.2,355,227.8,355z M227.8,325.6c-3.4,0-6.1-2.7-6.1-6.1s2.7-6.1,6.1-6.1s6.1,2.7,6.1,6.1S231.2,325.6,227.8,325.6z
		 M227.8,296.2c-3.4,0-6.1-2.7-6.1-6.1s2.7-6.1,6.1-6.1s6.1,2.7,6.1,6.1S231.2,296.2,227.8,296.2z M227.8,266.8
		c-3.4,0-6.1-2.7-6.1-6.1s2.7-6.1,6.1-6.1s6.1,2.7,6.1,6.1S231.2,266.8,227.8,266.8z M227.8,237.4c-3.4,0-6.1-2.7-6.1-6.1
		s2.7-6.1,6.1-6.1s6.1,2.7,6.1,6.1S231.2,237.4,227.8,237.4z"/>
	<path class="st1" d="M53.7,216.1c-11.3,0-20.5,9.2-20.5,20.5c0,11.3,9.2,20.5,20.5,20.5s20.5-9.2,20.5-20.5
		C74.3,225.3,65.1,216.1,53.7,216.1z M53.7,248.7c-6.7,0-12.1-5.4-12.1-12.1c0-6.7,5.4-12.1,12.1-12.1c6.7,0,12.1,5.4,12.1,12.1
		C65.8,243.3,60.4,248.7,53.7,248.7z"/>
	<path class="st1" d="M186.3,216.1c-11.3,0-20.5,9.2-20.5,20.5c0,11.3,9.2,20.5,20.5,20.5c11.3,0,20.5-9.2,20.5-20.5
		C206.8,225.3,197.6,216.1,186.3,216.1z M186.3,248.7c-6.7,0-12.1-5.4-12.1-12.1c0-6.7,5.4-12.1,12.1-12.1c6.7,0,12.1,5.4,12.1,12.1
		C198.4,243.3,193,248.7,186.3,248.7z"/>
	<path class="st1" d="M53.7,763.2c-11.3,0-20.5,9.2-20.5,20.5s9.2,20.5,20.5,20.5s20.5-9.2,20.5-20.5S65.1,763.2,53.7,763.2z
		 M53.7,795.9c-6.7,0-12.1-5.4-12.1-12.1s5.4-12.1,12.1-12.1c6.7,0,12.1,5.4,12.1,12.1S60.4,795.9,53.7,795.9z"/>
	<path class="st1" d="M188.3,763.2c-11.3,0-20.5,9.2-20.5,20.5s9.2,20.5,20.5,20.5c11.3,0,20.5-9.2,20.5-20.5
		S199.6,763.2,188.3,763.2z M188.3,795.9c-6.7,0-12.1-5.4-12.1-12.1s5.4-12.1,12.1-12.1c6.7,0,12.1,5.4,12.1,12.1
		S195,795.9,188.3,795.9z"/>
	<circle class="st2" cx="55" cy="301.3" r="10.6"/>
	<circle class="st3" cx="55" cy="301.3" r="5.5"/>
	<path class="st4" d="M17.5,281.1H0.3v3.4c2.3,0.9,3.9,3.1,3.9,5.7s-1.6,4.8-3.9,5.7v3.4h17.2c5,0,9-4,9-9v0
		C26.5,285.1,22.4,281.1,17.5,281.1z M15.9,296.2c-3.4,0-6.1-2.7-6.1-6.1s2.7-6.1,6.1-6.1s6.1,2.7,6.1,6.1S19.2,296.2,15.9,296.2z"
		/>
	<path class="st4" d="M17.5,428.1H0.3v3.4c2.3,0.9,3.9,3.1,3.9,5.7s-1.6,4.8-3.9,5.7v3.4h17.2c5,0,9-4,9-9S22.4,428.1,17.5,428.1z
		 M15.9,443.2c-3.4,0-6.1-2.7-6.1-6.1s2.7-6.1,6.1-6.1s6.1,2.7,6.1,6.1S19.2,443.2,15.9,443.2z"/>
	<path class="st4" d="M17.5,575H0.3v3.4c2.3,0.9,3.9,3.1,3.9,5.7s-1.6,4.8-3.9,5.7v3.4h17.2c5,0,9-4,9-9S22.4,575,17.5,575z
		 M15.9,590.1c-3.4,0-6.1-2.7-6.1-6.1s2.7-6.1,6.1-6.1s6.1,2.7,6.1,6.1S19.2,590.1,15.9,590.1z"/>
	<path class="st4" d="M17.5,604.4H0.3v3.4c2.3,0.9,3.9,3.1,3.9,5.7s-1.6,4.8-3.9,5.7v3.4h17.2c5,0,9-4,9-9S22.4,604.4,17.5,604.4z
		 M15.9,619.5c-3.4,0-6.1-2.7-6.1-6.1s2.7-6.1,6.1-6.1s6.1,2.7,6.1,6.1S19.2,619.5,15.9,619.5z"/>
	<path class="st4" d="M17.5,633.8H0.3v3.4c2.3,0.9,3.9,3.1,3.9,5.7s-1.6,4.8-3.9,5.7v3.4h17.2c5,0,9-4,9-9S22.4,633.8,17.5,633.8z
		 M15.9,648.9c-3.4,0-6.1-2.7-6.1-6.1s2.7-6.1,6.1-6.1s6.1,2.7,6.1,6.1S19.2,648.9,15.9,648.9z"/>
	<path class="st4" d="M17.5,663.2H0.3v3.4c2.3,0.9,3.9,3.1,3.9,5.7s-1.6,4.8-3.9,5.7v3.4h17.2c5,0,9-4,9-9S22.4,663.2,17.5,663.2z
		 M15.9,678.3c-3.4,0-6.1-2.7-6.1-6.1s2.7-6.1,6.1-6.1s6.1,2.7,6.1,6.1S19.2,678.3,15.9,678.3z"/>
	<path class="st4" d="M17.5,722H0.3v3.4c2.3,0.9,3.9,3.1,3.9,5.7s-1.6,4.8-3.9,5.7v3.4h17.2c5,0,9-4,9-9v0
		C26.5,726.1,22.4,722,17.5,722z M15.9,737.1c-3.4,0-6.1-2.7-6.1-6.1s2.7-6.1,6.1-6.1s6.1,2.7,6.1,6.1S19.2,737.1,15.9,737.1z"/>
	<path class="st4" d="M17.5,751.4H0.3v3.4c2.3,0.9,3.9,3.1,3.9,5.7s-1.6,4.8-3.9,5.7v3.4h17.2c5,0,9-4,9-9v0
		C26.5,755.5,22.4,751.4,17.5,751.4z M15.9,766.5c-3.4,0-6.1-2.7-6.1-6.1s2.7-6.1,6.1-6.1s6.1,2.7,6.1,6.1S19.2,766.5,15.9,766.5z"
		/>
	<path class="st4" d="M17.5,780.8H0.3v3.4c2.3,0.9,3.9,3.1,3.9,5.7s-1.6,4.8-3.9,5.7v3.4h17.2c5,0,9-4,9-9S22.4,780.8,17.5,780.8z
		 M15.9,795.9c-3.4,0-6.1-2.7-6.1-6.1s2.7-6.1,6.1-6.1s6.1,2.7,6.1,6.1S19.2,795.9,15.9,795.9z"/>
	<path class="st4" d="M239.5,231.3c0-2.6,1.6-4.8,3.9-5.7v-3.4h-17.2c-5,0-9,4-9,9s4,9,9,9h17.2V237
		C241.2,236.1,239.5,233.9,239.5,231.3z M227.8,237.4c-3.4,0-6.1-2.7-6.1-6.1s2.7-6.1,6.1-6.1s6.1,2.7,6.1,6.1
		S231.2,237.4,227.8,237.4z"/>
	<path class="st4" d="M239.5,260.7c0-2.6,1.6-4.8,3.9-5.7v-3.4h-17.2c-5,0-9,4-9,9v0c0,5,4,9,9,9h17.2v-3.4
		C241.2,265.5,239.5,263.3,239.5,260.7z M227.8,266.8c-3.4,0-6.1-2.7-6.1-6.1s2.7-6.1,6.1-6.1s6.1,2.7,6.1,6.1
		S231.2,266.8,227.8,266.8z"/>
	<path class="st4" d="M239.5,290.1c0-2.6,1.6-4.8,3.9-5.7v-3.4h-17.2c-5,0-9,4-9,9v0c0,5,4,9,9,9h17.2v-3.4
		C241.2,294.9,239.5,292.7,239.5,290.1z M227.8,296.2c-3.4,0-6.1-2.7-6.1-6.1s2.7-6.1,6.1-6.1s6.1,2.7,6.1,6.1
		S231.2,296.2,227.8,296.2z"/>
	<path class="st4" d="M239.5,319.5c0-2.6,1.6-4.8,3.9-5.7v-3.4h-17.2c-5,0-9,4-9,9s4,9,9,9h17.2v-3.4
		C241.2,324.3,239.5,322.1,239.5,319.5z M227.8,325.6c-3.4,0-6.1-2.7-6.1-6.1s2.7-6.1,6.1-6.1s6.1,2.7,6.1,6.1
		S231.2,325.6,227.8,325.6z"/>
	<path class="st4" d="M239.5,348.9c0-2.6,1.6-4.8,3.9-5.7v-3.4h-17.2c-5,0-9,4-9,9s4,9,9,9h17.2v-3.4
		C241.2,353.7,239.5,351.5,239.5,348.9z M227.8,355c-3.4,0-6.1-2.7-6.1-6.1s2.7-6.1,6.1-6.1s6.1,2.7,6.1,6.1S231.2,355,227.8,355z"
		/>
	<path class="st4" d="M239.5,378.3c0-2.6,1.6-4.8,3.9-5.7v-3.4h-17.2c-5,0-9,4-9,9s4,9,9,9h17.2V384
		C241.2,383.1,239.5,380.9,239.5,378.3z M227.8,384.4c-3.4,0-6.1-2.7-6.1-6.1s2.7-6.1,6.1-6.1s6.1,2.7,6.1,6.1
		S231.2,384.4,227.8,384.4z"/>
	<path class="st4" d="M239.5,437.1c0-2.6,1.6-4.8,3.9-5.7v-3.4h-17.2c-5,0-9,4-9,9s4,9,9,9h17.2v-3.4
		C241.2,441.9,239.5,439.7,239.5,437.1z M227.8,443.2c-3.4,0-6.1-2.7-6.1-6.1s2.7-6.1,6.1-6.1s6.1,2.7,6.1,6.1
		S231.2,443.2,227.8,443.2z"/>
	<path class="st4" d="M239.5,495.9c0-2.6,1.6-4.8,3.9-5.7v-3.4h-17.2c-5,0-9,4-9,9v0c0,5,4,9,9,9h17.2v-3.4
		C241.2,500.7,239.5,498.5,239.5,495.9z M227.8,502c-3.4,0-6.1-2.7-6.1-6.1s2.7-6.1,6.1-6.1s6.1,2.7,6.1,6.1S231.2,502,227.8,502z"
		/>
	<path class="st4" d="M239.5,525.3c0-2.6,1.6-4.8,3.9-5.7v-3.4h-17.2c-5,0-9,4-9,9v0c0,5,4,9,9,9h17.2v-3.4
		C241.2,530.1,239.5,527.9,239.5,525.3z M227.8,531.4c-3.4,0-6.1-2.7-6.1-6.1s2.7-6.1,6.1-6.1s6.1,2.7,6.1,6.1
		S231.2,531.4,227.8,531.4z"/>
	<path class="st4" d="M239.5,554.7c0-2.6,1.6-4.8,3.9-5.7v-3.4h-17.2c-5,0-9,4-9,9s4,9,9,9h17.2v-3.4
		C241.2,559.5,239.5,557.3,239.5,554.7z M227.8,560.8c-3.4,0-6.1-2.7-6.1-6.1s2.7-6.1,6.1-6.1s6.1,2.7,6.1,6.1
		S231.2,560.8,227.8,560.8z"/>
	<path class="st4" d="M239.5,584.1c0-2.6,1.6-4.8,3.9-5.7V575h-17.2c-5,0-9,4-9,9s4,9,9,9h17.2v-3.4
		C241.2,588.8,239.5,586.6,239.5,584.1z M227.8,590.1c-3.4,0-6.1-2.7-6.1-6.1s2.7-6.1,6.1-6.1s6.1,2.7,6.1,6.1
		S231.2,590.1,227.8,590.1z"/>
	<path class="st4" d="M239.5,613.5c0-2.6,1.6-4.8,3.9-5.7v-3.4h-17.2c-5,0-9,4-9,9s4,9,9,9h17.2v-3.4
		C241.2,618.2,239.5,616,239.5,613.5z M227.8,619.5c-3.4,0-6.1-2.7-6.1-6.1s2.7-6.1,6.1-6.1s6.1,2.7,6.1,6.1
		S231.2,619.5,227.8,619.5z"/>
	<path class="st4" d="M239.5,642.9c0-2.6,1.6-4.8,3.9-5.7v-3.4h-17.2c-5,0-9,4-9,9s4,9,9,9h17.2v-3.4
		C241.2,647.6,239.5,645.4,239.5,642.9z M227.8,648.9c-3.4,0-6.1-2.7-6.1-6.1s2.7-6.1,6.1-6.1s6.1,2.7,6.1,6.1
		S231.2,648.9,227.8,648.9z"/>
	<path class="st4" d="M239.5,672.3c0-2.6,1.6-4.8,3.9-5.7v-3.4h-17.2c-5,0-9,4-9,9s4,9,9,9h17.2v-3.4
		C241.2,677,239.5,674.8,239.5,672.3z M227.8,678.3c-3.4,0-6.1-2.7-6.1-6.1s2.7-6.1,6.1-6.1s6.1,2.7,6.1,6.1
		S231.2,678.3,227.8,678.3z"/>
	<path class="st4" d="M239.5,731c0-2.6,1.6-4.8,3.9-5.7V722h-17.2c-5,0-9,4-9,9v0c0,5,4,9,9,9h17.2v-3.4
		C241.2,735.8,239.5,733.6,239.5,731z M227.8,737.1c-3.4,0-6.1-2.7-6.1-6.1s2.7-6.1,6.1-6.1s6.1,2.7,6.1,6.1
		S231.2,737.1,227.8,737.1z"/>
	<path class="st4" d="M239.5,760.4c0-2.6,1.6-4.8,3.9-5.7v-3.4h-17.2c-5,0-9,4-9,9v0c0,5,4,9,9,9h17.2v-3.4
		C241.2,765.2,239.5,763,239.5,760.4z M227.8,766.5c-3.4,0-6.1-2.7-6.1-6.1s2.7-6.1,6.1-6.1s6.1,2.7,6.1,6.1
		S231.2,766.5,227.8,766.5z"/>
	<path class="st5" d="M163.1,203.2l4.4-4.4l-2.3-2.3l-6.6,6.6h-1.5v-4.7c0-1.2-1-2.2-2.2-2.2H85.4c-1.2,0-2.2,1-2.2,2.2v4.7h-1.5
		l-6.6-6.6l-2.3,2.3l4.4,4.4c-0.6,0.2-1,0.8-1,1.4v56.3c0,0.9,0.7,1.6,1.6,1.6h84.6c0.9,0,1.6-0.7,1.6-1.6v-56.3
		C164,204,163.6,203.4,163.1,203.2z"/>
	<g>
		<path class="st6" d="M100.3,225.5c0-3.2-2.6-5.8-5.8-5.8s-5.8,2.6-5.8,5.8c0,1.4,0.5,2.7,1.3,3.7h-0.2v7.7c0,1.2,1,2.1,2.1,2.1H97
			c1.2,0,2.1-1,2.1-2.1v-7.7H99C99.8,228.2,100.3,226.9,100.3,225.5z"/>
		<path class="st6" d="M155.5,225.5c0-3.2-2.6-5.8-5.8-5.8s-5.8,2.6-5.8,5.8c0,1.4,0.5,2.7,1.3,3.7H145v7.7c0,1.2,1,2.1,2.1,2.1h5.1
			c1.2,0,2.1-1,2.1-2.1v-7.7h-0.2C155,228.2,155.5,226.9,155.5,225.5z"/>
	</g>
	<path class="st7" d="M200.9,355.6h-21c-1.2,0-2.2-1-2.2-2.2v-26.7c0-1.2,1-2.2,2.2-2.2h21c1.2,0,2.2,1,2.2,2.2v26.7
		C203,354.7,202.1,355.6,200.9,355.6z"/>
	<g>
		<rect x="132" y="291.8" class="st8" width="21.7" height="14.4"/>
		<path class="st9" d="M149.3,306.3c-2-1.8-3.2-4.4-3.2-7.2s1.2-5.4,3.2-7.2h-12.8c2,1.8,3.2,4.4,3.2,7.2s-1.2,5.4-3.2,7.2H149.3z"
			/>
	</g>
	<g>
		<rect x="132.3" y="377.2" class="st8" width="21.7" height="14.4"/>
		<path class="st9" d="M149.6,391.6c-2-1.8-3.2-4.4-3.2-7.2s1.2-5.4,3.2-7.2h-12.8c2,1.8,3.2,4.4,3.2,7.2s-1.2,5.4-3.2,7.2H149.6z"
			/>
	</g>
	<g>
		<rect x="132.3" y="396.3" class="st8" width="21.7" height="14.4"/>
		<path class="st9" d="M149.6,410.8c-2-1.8-3.2-4.4-3.2-7.2s1.2-5.4,3.2-7.2h-12.8c2,1.8,3.2,4.4,3.2,7.2s-1.2,5.4-3.2,7.2H149.6z"
			/>
	</g>
	<g>
		
			<rect x="63.8" y="444.7" transform="matrix(6.123234e-17 -1 1 6.123234e-17 -383.472 516.5081)" class="st8" width="5.4" height="10.6"/>
		
			<rect x="63.8" y="447" transform="matrix(6.123234e-17 -1 1 6.123234e-17 -383.472 516.5081)" class="st9" width="5.4" height="6"/>
	</g>
	<g>
		<rect x="177.1" y="427.3" class="st8" width="5.4" height="10.6"/>
		<rect x="177.1" y="429.6" class="st9" width="5.4" height="6"/>
	</g>
	<rect x="179.5" y="277.2" class="st7" width="18.9" height="29.3"/>
	<g>
		<rect x="171.6" y="378.5" class="st8" width="20.6" height="9.6"/>
		<rect x="176.2" y="378.5" class="st10" width="11.5" height="9.6"/>
	</g>
	<rect x="120.2" y="546.6" class="st9" width="4.2" height="6.9"/>
	<rect x="126.9" y="546.6" class="st9" width="4.2" height="6.9"/>
	
		<rect x="66.6" y="456.6" transform="matrix(6.123234e-17 -1 1 6.123234e-17 -391.2686 528.751)" class="st9" width="4.2" height="6.9"/>
	
		<rect x="89.5" y="389.4" transform="matrix(6.123234e-17 -1 1 6.123234e-17 -301.2039 484.528)" class="st9" width="4.2" height="6.9"/>
	
		<rect x="66.3" y="500.2" transform="matrix(6.123234e-17 -1 1 6.123234e-17 -435.2227 571.9926)" class="st9" width="4.2" height="6.9"/>
	<rect x="195" y="505.4" class="st7" width="4.2" height="6.9"/>
	
		<rect x="189.2" y="444.1" transform="matrix(6.123234e-17 -1 1 6.123234e-17 -256.2524 638.9039)" class="st7" width="4.2" height="6.9"/>
	
		<rect x="87.2" y="288.5" transform="matrix(6.123234e-17 -1 1 6.123234e-17 -202.5708 381.2331)" class="st7" width="4.2" height="6.9"/>
	
		<rect x="82.3" y="300.7" transform="matrix(6.123234e-17 -1 1 6.123234e-17 -219.686 388.5927)" class="st7" width="4.2" height="6.9"/>
	
		<rect x="192.8" y="393.2" transform="matrix(6.123234e-17 -1 1 6.123234e-17 -201.6427 591.5568)" class="st7" width="4.2" height="6.9"/>
	<path class="st11" d="M186.3,710.3H57.5c-2.1,0-3.9-1.7-3.9-3.9V598.3c0-2.1,1.7-3.9,3.9-3.9h128.8c2.1,0,3.9,1.7,3.9,3.9v108.1
		C190.2,708.5,188.5,710.3,186.3,710.3z"/>
	<rect x="101.5" y="756.6" class="st12" width="10.5" height="5.9"/>
	<rect x="130.3" y="756.7" class="st12" width="10.5" height="5.9"/>
	<rect x="101.5" y="794.3" class="st12" width="10.5" height="5.9"/>
	<rect x="130.3" y="794.5" class="st12" width="10.5" height="5.9"/>
	<polyline class="st13" points="17.5,239.1 17.5,243.5 35.4,261.4 35.4,310.1 51,325.6 51,460.4 55.9,465.3 91.2,465.3 	"/>
	<polyline class="st13" points="22.9,265.9 31,274 31,311.9 46.7,327.6 46.7,462.9 52.6,468.8 91,468.8 	"/>
	<polyline class="st13" points="23.2,324.4 43,344.2 43,465.3 53.4,475.8 95,475.8 	"/>
	<polyline class="st13" points="23.2,353.8 39.8,370.3 39.8,467.3 51.9,479.4 95.1,479.4 	"/>
	<polyline class="st13" points="23.2,384 35.6,396.3 35.6,472.3 49.5,486.2 93.4,486.2 	"/>
	<polyline class="st13" points="22.9,412.1 31.6,420.8 31.6,474.9 46.4,489.7 96.1,489.7 	"/>
	<polyline class="st13" points="22.9,470.7 45.3,493.2 102.7,493.2 	"/>
	<line class="st13" x1="23.7" y1="496.7" x2="98.8" y2="496.7"/>
	<path class="st13" d="M23.2,523c0.1-0.6,17.3-17.3,17.3-17.3H53l4.9,4.9h45.7"/>
	<polyline class="st13" points="20.4,548.9 25.7,543.6 25.7,535.8 30.9,530.7 30.9,522.3 43.9,509.2 52.6,509.2 57.3,513.9 
		95.3,513.9 	"/>
	<path class="st13" d="M30.7,539.1l3.4-3.4c0,0-0.7-8.9,0-9.6c0.7-0.7,6-6,6-6l6.3-6.3h6.1l3.7,3.7h35.1"/>
	<polyline class="st13" points="29.1,595 29.1,547.4 38.7,537.8 93.4,537.8 95,536.2 95,526.5 	"/>
	<polyline class="st13" points="17.5,693.3 17.5,689.7 32.9,674.2 32.9,593.9 35.7,591.2 35.7,549.4 42,543.1 94.2,543.1 
		98.4,538.8 98.4,531.5 	"/>
	<path class="st13" d="M35.7,576.8"/>
	<path class="st13" d="M35.7,592.1"/>
	<polyline class="st13" points="23.6,753.9 30.4,747.1 30.4,682.5 37.5,676.6 	"/>
	<polyline class="st13" points="35.6,686.9 42.6,679.8 42.6,590.1 39.9,587.5 39.9,550.6 44.6,546 94.9,546 101.9,538.9 
		101.9,522.4 	"/>
	<polyline class="st13" points="108.9,529.1 108.9,537.8 95.9,550.9 91.5,550.9 	"/>
	<polyline class="st13" points="93.9,559.5 112.4,541 112.4,525.6 	"/>
	<polyline class="st13" points="115.9,530.9 115.9,542.6 102.2,556.3 102.2,576.3 95.9,582.6 65,582.6 55.5,573.1 	"/>
	<polyline class="st13" points="133.9,569.9 138.7,565.1 138.7,551.8 135.5,548.7 135.5,538.7 132.4,535.5 132.4,524.6 	"/>
	<polyline class="st13" points="137.3,528.6 137.3,536.5 139.3,538.5 139.3,544.9 152.7,558.3 164.9,558.3 179.1,572.6 	"/>
	<polyline class="st13" points="145.3,526.5 145.3,536.8 151.3,542.8 172.3,542.8 200.5,571.1 200.5,683.7 206.7,689.9 206.7,740.8 
		212.3,746.3 212.3,766.5 223.3,777.6 223.3,782.9 	"/>
	<polyline class="st13" points="150.7,526.9 150.7,534.2 154.7,538.2 173.6,538.2 205.2,569.8 205.2,681.3 211.4,687.5 211.4,740.1 
		215.6,744.2 215.6,753 	"/>
	<polyline class="st13" points="157.5,521.7 165.3,521.7 211.1,567.6 211.1,679.2 227.2,695.3 	"/>
	<polyline class="st13" points="157.5,517.3 166.9,517.3 192.1,542.6 	"/>
	<polyline class="st13" points="158.6,512.2 166.6,512.2 190.1,535.7 195.5,535.7 206.3,546.5 206.3,553.4 	"/>
	<polyline class="st13" points="158.2,507.8 167.3,507.8 190.4,530.8 200.9,530.8 	"/>
	<polyline class="st13" points="158.2,503.6 169.1,503.6 174.1,508.6 	"/>
	<polyline class="st13" points="158.2,498.6 175.4,498.6 202.8,526 206.3,526 215.9,535.6 215.9,548 	"/>
	<line class="st13" x1="158.6" y1="493.2" x2="167.7" y2="493.2"/>
	<polyline class="st13" points="156.4,487.8 171.8,487.8 179.2,495.2 	"/>
	<polyline class="st13" points="187.9,507.8 192.4,503.2 192.4,483.9 203.4,483.9 	"/>
	<polyline class="st13" points="158.6,479.4 209.5,479.4 218.5,488.4 	"/>
	<polyline class="st13" points="158.2,474.9 213.8,474.9 220.3,468.5 	"/>
	<polyline class="st13" points="157.5,470.7 198.8,470.7 207.1,462.5 207.1,422.2 219.6,409.7 	"/>
	<polyline class="st13" points="158.6,466.5 179.1,466.5 202.4,443.2 202.4,420.4 	"/>
	<polyline class="st13" points="159.7,461.8 167.2,461.8 171.8,457.1 	"/>
	<path class="st13" d="M147.8,456.5c-0.2-0.3,9.2-9.2,9.2-9.2h15.6v-33.5l2.8-2.8v-7.7"/>
	<path class="st13" d="M147,454.2c0-0.2,0-6.5,0-6.5l10.3-10.3"/>
	<polyline class="st13" points="140.1,455.2 140.1,444.4 147.4,437 	"/>
	<line class="st13" x1="136.6" y1="452.2" x2="136.6" y2="434.6"/>
	<path class="st13" d="M133.1,453.9c0-0.6,0-15.2,0-15.2l-4.2-4.2"/>
	<path class="st13" d="M122.6,453.5c0-0.6,0-20.7,0-20.7"/>
	<path class="st13" d="M119.2,455.2c0-0.3,0-11.1,0-11.1l-7.6-7.6"/>
	<polyline class="st13" points="115.6,454.7 115.6,448.3 101.8,434.5 101.8,428.1 105,424.9 108.9,424.9 111.5,422.2 111.5,411.7 
		106.1,406.3 100,406.3 	"/>
	<polyline class="st13" points="99.8,412.1 105.4,412.1 108.5,415.2 108.5,420.4 105.7,423.1 101.1,423.1 97.7,426.5 97.7,435.6 
		108.7,446.6 108.7,453.3 	"/>
	<polyline class="st13" points="91.3,416.6 91.3,433.3 105.2,447.3 105.2,456.8 	"/>
	<polyline class="st13" points="76.5,415.8 76.5,423 85.9,432.4 85.9,436.2 99,449.3 99,458.4 	"/>
	<path class="st13" d="M94.8,452.4c0-0.1,0-5,0-5l-11.7-11.7v-1.1l-4.5-4.5h-6.4l-1.7-1.7h-6.9l-6.7-6.7v-14.4l1.6-1.6h8.8"/>
	<polyline class="st13" points="69.1,399.7 60.4,399.7 55.4,404.7 55.4,422.5 63.4,430.5 69.5,430.5 75.9,436.9 78.4,436.9 
		92.5,451 	"/>
	<line class="st13" x1="73.8" y1="373" x2="56" y2="390.8"/>
	<polyline class="st13" points="137.6,433.6 137.6,427.5 134.7,424.5 134.7,421.5 130.2,417.1 125.2,417.1 121.1,413 121.1,394.1 
		109.7,382.6 109.7,300.4 124,286.1 124,277 127.7,273.3 	"/>
	<path class="st13" d="M135.3,326.3c0-0.6,0-9,0-9l-3.1-3.1h-9.8l-4.5-4.5v-4.3"/>
	<polyline class="st13" points="129.3,358.7 129.3,364 126.1,367.2 120.2,367.2 118.6,368.7 	"/>
	<polyline class="st13" points="62.9,271.8 62.9,281.2 79.1,297.4 83.6,297.4 88.5,302.3 88.5,310.5 83.9,315 83.9,328.5 	"/>
	<rect x="45.6" y="264.6" class="st14" width="18.9" height="9.6"/>
	<g>
		<rect x="102.7" y="262.5" class="st15" width="4.3" height="11.5"/>
		<rect x="110.4" y="262.5" class="st15" width="4.3" height="11.5"/>
		<rect x="118.1" y="262.5" class="st15" width="4.3" height="11.5"/>
		<rect x="125.7" y="262.5" class="st15" width="4.3" height="11.5"/>
		<rect x="133.4" y="262.5" class="st15" width="4.3" height="11.5"/>
	</g>
	<g>
		<path class="st16" d="M106.8,283.3v-5.5h2.5v5.8c0,2,0.6,2.7,1.7,2.7c1.2,0,1.8-0.7,1.8-2.7v-5.8h2.4v5.5c0,3.5-1.4,5.1-4.2,5.1
			S106.8,286.8,106.8,283.3z"/>
		<path class="st16" d="M116.7,286.9l1.3-1.6c0.7,0.6,1.7,1,2.6,1c0.9,0,1.4-0.4,1.4-0.9c0-0.6-0.6-0.8-1.5-1.2l-1.3-0.6
			c-1.1-0.4-2.1-1.3-2.1-2.8c0-1.7,1.6-3.2,3.8-3.2c1.2,0,2.5,0.5,3.4,1.3l-1.3,1.6c-0.7-0.5-1.4-0.8-2.1-0.8
			c-0.8,0-1.3,0.3-1.3,0.8c0,0.6,0.7,0.8,1.6,1.2l1.3,0.5c1.3,0.5,2.1,1.4,2.1,2.8c0,1.7-1.5,3.3-4,3.3
			C119.1,288.4,117.8,287.9,116.7,286.9z"/>
		<path class="st16" d="M126.3,277.8h3.6c2.2,0,3.9,0.6,3.9,2.6c0,0.9-0.5,1.9-1.4,2.2v0.1c1.1,0.3,1.9,1.1,1.9,2.4
			c0,2.1-1.8,3.1-4.1,3.1h-3.9V277.8z M129.8,281.9c1.1,0,1.5-0.5,1.5-1.2c0-0.8-0.5-1.1-1.5-1.1h-1.1v2.2H129.8z M130,286.3
			c1.2,0,1.8-0.4,1.8-1.3s-0.6-1.2-1.8-1.2h-1.2v2.5H130z"/>
	</g>
	<path class="st17" d="M170.2,359.2h-45.7c-0.5,0-1-0.4-1-1v-33.5c0-0.5,0.4-1,1-1h45.7c0.5,0,1,0.4,1,1v33.5
		C171.1,358.7,170.7,359.2,170.2,359.2z"/>
	<g>
		<rect x="128.6" y="319.5" class="st15" width="1.4" height="4.1"/>
		<rect x="134.6" y="319.5" class="st15" width="1.4" height="4.1"/>
		<rect x="140.6" y="319.5" class="st15" width="1.4" height="4.1"/>
		<rect x="146.6" y="319.5" class="st15" width="1.4" height="4.1"/>
		<rect x="152.6" y="319.5" class="st15" width="1.4" height="4.1"/>
		<rect x="158.6" y="319.5" class="st15" width="1.4" height="4.1"/>
		<rect x="164.6" y="319.5" class="st15" width="1.4" height="4.1"/>
	</g>
	<g>
		<rect x="128.6" y="359.2" class="st15" width="1.4" height="4.1"/>
		<rect x="134.6" y="359.2" class="st15" width="1.4" height="4.1"/>
		<rect x="140.6" y="359.2" class="st15" width="1.4" height="4.1"/>
		<rect x="146.6" y="359.2" class="st15" width="1.4" height="4.1"/>
		<rect x="152.6" y="359.2" class="st15" width="1.4" height="4.1"/>
		<rect x="158.6" y="359.2" class="st15" width="1.4" height="4.1"/>
		<rect x="164.6" y="359.2" class="st15" width="1.4" height="4.1"/>
	</g>
	<g>
		<rect x="61.4" y="327.5" class="st18" width="39.3" height="48.9"/>
		<path class="st19" d="M81,370.3L81,370.3c-7.6,0-13.7-6.1-13.7-13.7v-9.1c0-7.6,6.1-13.7,13.7-13.7h0c7.6,0,13.7,6.1,13.7,13.7
			v9.1C94.7,364.1,88.6,370.3,81,370.3z"/>
		<path class="st19" d="M61.4,337.8L61.4,337.8l0-10.3h10.3l0,0C71.6,333.2,67.1,337.8,61.4,337.8z"/>
		<path class="st19" d="M71.6,376.5H61.4v-10.3h0C67.1,366.2,71.6,370.8,71.6,376.5L71.6,376.5z"/>
		<path class="st19" d="M100.7,337.8L100.7,337.8c-5.7,0-10.3-4.6-10.3-10.3l0,0h10.3V337.8z"/>
		<path class="st19" d="M100.7,376.5H90.4v0c0-5.7,4.6-10.3,10.3-10.3h0V376.5z"/>
	</g>
	<g>
		<rect x="64.9" y="397" class="st17" width="34.6" height="22.9"/>
		<g>
			<rect x="60.7" y="398.2" class="st15" width="4.2" height="3.4"/>
			<rect x="60.7" y="403.9" class="st15" width="4.2" height="3.4"/>
			<rect x="60.7" y="409.7" class="st15" width="4.2" height="3.4"/>
			<rect x="60.7" y="415.4" class="st15" width="4.2" height="3.4"/>
		</g>
		<g>
			<rect x="99.5" y="398.2" class="st15" width="4.2" height="3.4"/>
			<rect x="99.5" y="403.9" class="st15" width="4.2" height="3.4"/>
			<rect x="99.5" y="409.7" class="st15" width="4.2" height="3.4"/>
			<rect x="99.5" y="415.4" class="st15" width="4.2" height="3.4"/>
		</g>
	</g>
	<rect x="135.5" y="428.5" class="st7" width="4.2" height="6.9"/>
	<g>
		<path class="st20" d="M160.4,532.3H81.4c-0.7,0-1.3-0.6-1.3-1.3v-79.1c0-0.7,0.6-1.3,1.3-1.3h79.1c0.7,0,1.3,0.6,1.3,1.3V531
			C161.7,531.7,161.1,532.3,160.4,532.3z"/>
		<g>
			<rect x="86.2" y="448.7" class="st15" width="3.1" height="1.9"/>
			<rect x="89.7" y="448.7" class="st15" width="3.1" height="1.9"/>
			<rect x="93.2" y="448.7" class="st15" width="3.1" height="1.9"/>
			<rect x="96.7" y="448.7" class="st15" width="3.1" height="1.9"/>
			<rect x="100.2" y="448.7" class="st15" width="3.1" height="1.9"/>
			<rect x="103.6" y="448.7" class="st15" width="3.1" height="1.9"/>
			<rect x="107.1" y="448.7" class="st15" width="3.1" height="1.9"/>
			<rect x="114.1" y="448.7" class="st15" width="3.1" height="1.9"/>
			<rect x="121.1" y="448.7" class="st15" width="3.1" height="1.9"/>
			<rect x="128" y="448.7" class="st15" width="3.1" height="1.9"/>
			<rect x="138.5" y="448.7" class="st15" width="3.1" height="1.9"/>
			<rect x="142" y="448.7" class="st15" width="3.1" height="1.9"/>
			<rect x="149" y="448.7" class="st15" width="3.1" height="1.9"/>
			<rect x="110.6" y="448.7" class="st15" width="3.1" height="1.9"/>
			<rect x="117.6" y="448.7" class="st15" width="3.1" height="1.9"/>
			<rect x="124.6" y="448.7" class="st15" width="3.1" height="1.9"/>
			<rect x="131.5" y="448.7" class="st15" width="3.1" height="1.9"/>
			<rect x="135" y="448.7" class="st15" width="3.1" height="1.9"/>
			<rect x="145.5" y="448.7" class="st15" width="3.1" height="1.9"/>
			<rect x="152.4" y="448.7" class="st15" width="3.1" height="1.9"/>
		</g>
		<g>
			<rect x="86.4" y="532.3" class="st15" width="3.1" height="1.9"/>
			<rect x="89.9" y="532.3" class="st15" width="3.1" height="1.9"/>
			<rect x="93.4" y="532.3" class="st15" width="3.1" height="1.9"/>
			<rect x="96.9" y="532.3" class="st15" width="3.1" height="1.9"/>
			<rect x="100.4" y="532.3" class="st15" width="3.1" height="1.9"/>
			<rect x="103.8" y="532.3" class="st15" width="3.1" height="1.9"/>
			<rect x="107.3" y="532.3" class="st15" width="3.1" height="1.9"/>
			<rect x="114.3" y="532.3" class="st15" width="3.1" height="1.9"/>
			<rect x="121.3" y="532.3" class="st15" width="3.1" height="1.9"/>
			<rect x="128.2" y="532.3" class="st15" width="3.1" height="1.9"/>
			<rect x="138.7" y="532.3" class="st15" width="3.1" height="1.9"/>
			<rect x="142.2" y="532.3" class="st15" width="3.1" height="1.9"/>
			<rect x="149.1" y="532.3" class="st15" width="3.1" height="1.9"/>
			<rect x="110.8" y="532.3" class="st15" width="3.1" height="1.9"/>
			<rect x="117.8" y="532.3" class="st15" width="3.1" height="1.9"/>
			<rect x="124.7" y="532.3" class="st15" width="3.1" height="1.9"/>
			<rect x="131.7" y="532.3" class="st15" width="3.1" height="1.9"/>
			<rect x="135.2" y="532.3" class="st15" width="3.1" height="1.9"/>
			<rect x="145.7" y="532.3" class="st15" width="3.1" height="1.9"/>
			<rect x="152.6" y="532.3" class="st15" width="3.1" height="1.9"/>
		</g>
		<g>
			
				<rect x="77.5" y="523.6" transform="matrix(6.123234e-17 -1 1 6.123234e-17 -445.4833 603.6636)" class="st15" width="3.1" height="1.9"/>
			
				<rect x="77.5" y="520.1" transform="matrix(6.123234e-17 -1 1 6.123234e-17 -441.9983 600.1786)" class="st15" width="3.1" height="1.9"/>
			
				<rect x="77.5" y="516.6" transform="matrix(6.123234e-17 -1 1 6.123234e-17 -438.5133 596.6935)" class="st15" width="3.1" height="1.9"/>
			
				<rect x="77.5" y="513.2" transform="matrix(6.123234e-17 -1 1 6.123234e-17 -435.0282 593.2085)" class="st15" width="3.1" height="1.9"/>
			
				<rect x="77.5" y="509.7" transform="matrix(6.123234e-17 -1 1 6.123234e-17 -431.5432 589.7234)" class="st15" width="3.1" height="1.9"/>
			
				<rect x="77.5" y="506.2" transform="matrix(6.123234e-17 -1 1 6.123234e-17 -428.0581 586.2384)" class="st15" width="3.1" height="1.9"/>
			
				<rect x="77.5" y="502.7" transform="matrix(6.123234e-17 -1 1 6.123234e-17 -424.5731 582.7534)" class="st15" width="3.1" height="1.9"/>
			
				<rect x="77.5" y="495.7" transform="matrix(6.123234e-17 -1 1 6.123234e-17 -417.603 575.7833)" class="st15" width="3.1" height="1.9"/>
			
				<rect x="77.5" y="488.8" transform="matrix(6.123234e-17 -1 1 6.123234e-17 -410.6329 568.8132)" class="st15" width="3.1" height="1.9"/>
			
				<rect x="77.5" y="481.8" transform="matrix(6.123234e-17 -1 1 6.123234e-17 -403.6628 561.8431)" class="st15" width="3.1" height="1.9"/>
			
				<rect x="77.5" y="471.3" transform="matrix(6.123234e-17 -1 1 6.123234e-17 -393.2077 551.388)" class="st15" width="3.1" height="1.9"/>
			
				<rect x="77.5" y="467.9" transform="matrix(6.123234e-17 -1 1 6.123234e-17 -389.7227 547.903)" class="st15" width="3.1" height="1.9"/>
			
				<rect x="77.5" y="460.9" transform="matrix(6.123234e-17 -1 1 6.123234e-17 -382.7526 540.9329)" class="st15" width="3.1" height="1.9"/>
			
				<rect x="77.5" y="499.2" transform="matrix(6.123234e-17 -1 1 6.123234e-17 -421.088 579.2683)" class="st15" width="3.1" height="1.9"/>
			
				<rect x="77.5" y="492.2" transform="matrix(6.123234e-17 -1 1 6.123234e-17 -414.118 572.2982)" class="st15" width="3.1" height="1.9"/>
			
				<rect x="77.5" y="485.3" transform="matrix(6.123234e-17 -1 1 6.123234e-17 -407.1479 565.3281)" class="st15" width="3.1" height="1.9"/>
			
				<rect x="77.5" y="478.3" transform="matrix(6.123234e-17 -1 1 6.123234e-17 -400.1778 558.3581)" class="st15" width="3.1" height="1.9"/>
			
				<rect x="77.5" y="474.8" transform="matrix(6.123234e-17 -1 1 6.123234e-17 -396.6927 554.873)" class="st15" width="3.1" height="1.9"/>
			
				<rect x="77.5" y="464.4" transform="matrix(6.123234e-17 -1 1 6.123234e-17 -386.2376 544.4179)" class="st15" width="3.1" height="1.9"/>
			
				<rect x="77.5" y="457.4" transform="matrix(6.123234e-17 -1 1 6.123234e-17 -379.2675 537.4478)" class="st15" width="3.1" height="1.9"/>
		</g>
		<g>
			
				<rect x="161.1" y="523.6" transform="matrix(6.123234e-17 -1 1 6.123234e-17 -361.8934 687.2535)" class="st15" width="3.1" height="1.9"/>
			
				<rect x="161.1" y="520.1" transform="matrix(6.123234e-17 -1 1 6.123234e-17 -358.4084 683.7685)" class="st15" width="3.1" height="1.9"/>
			
				<rect x="161.1" y="516.6" transform="matrix(6.123234e-17 -1 1 6.123234e-17 -354.9233 680.2834)" class="st15" width="3.1" height="1.9"/>
			
				<rect x="161.1" y="513.2" transform="matrix(6.123234e-17 -1 1 6.123234e-17 -351.4383 676.7985)" class="st15" width="3.1" height="1.9"/>
			
				<rect x="161.1" y="509.7" transform="matrix(6.123234e-17 -1 1 6.123234e-17 -347.9532 673.3134)" class="st15" width="3.1" height="1.9"/>
			
				<rect x="161.1" y="506.2" transform="matrix(6.123234e-17 -1 1 6.123234e-17 -344.4682 669.8284)" class="st15" width="3.1" height="1.9"/>
			
				<rect x="161.1" y="502.7" transform="matrix(6.123234e-17 -1 1 6.123234e-17 -340.9832 666.3433)" class="st15" width="3.1" height="1.9"/>
			
				<rect x="161.1" y="495.7" transform="matrix(6.123234e-17 -1 1 6.123234e-17 -334.0131 659.3732)" class="st15" width="3.1" height="1.9"/>
			
				<rect x="161.1" y="488.8" transform="matrix(6.123234e-17 -1 1 6.123234e-17 -327.043 652.4031)" class="st15" width="3.1" height="1.9"/>
			
				<rect x="161.1" y="481.8" transform="matrix(6.123234e-17 -1 1 6.123234e-17 -320.0729 645.433)" class="st15" width="3.1" height="1.9"/>
			
				<rect x="161.1" y="471.3" transform="matrix(6.123234e-17 -1 1 6.123234e-17 -309.6178 634.9779)" class="st15" width="3.1" height="1.9"/>
			
				<rect x="161.1" y="467.9" transform="matrix(6.123234e-17 -1 1 6.123234e-17 -306.1327 631.4929)" class="st15" width="3.1" height="1.9"/>
			
				<rect x="161.1" y="460.9" transform="matrix(6.123234e-17 -1 1 6.123234e-17 -299.1626 624.5228)" class="st15" width="3.1" height="1.9"/>
			
				<rect x="161.1" y="499.2" transform="matrix(6.123234e-17 -1 1 6.123234e-17 -337.4981 662.8583)" class="st15" width="3.1" height="1.9"/>
			
				<rect x="161.1" y="492.2" transform="matrix(6.123234e-17 -1 1 6.123234e-17 -330.528 655.8882)" class="st15" width="3.1" height="1.9"/>
			
				<rect x="161.1" y="485.3" transform="matrix(6.123234e-17 -1 1 6.123234e-17 -323.558 648.9181)" class="st15" width="3.1" height="1.9"/>
			
				<rect x="161.1" y="478.3" transform="matrix(6.123234e-17 -1 1 6.123234e-17 -316.5879 641.948)" class="st15" width="3.1" height="1.9"/>
			
				<rect x="161.1" y="474.8" transform="matrix(6.123234e-17 -1 1 6.123234e-17 -313.1028 638.463)" class="st15" width="3.1" height="1.9"/>
			
				<rect x="161.1" y="464.4" transform="matrix(6.123234e-17 -1 1 6.123234e-17 -302.6477 628.0078)" class="st15" width="3.1" height="1.9"/>
			
				<rect x="161.1" y="457.4" transform="matrix(6.123234e-17 -1 1 6.123234e-17 -295.6776 621.0377)" class="st15" width="3.1" height="1.9"/>
		</g>
		<circle class="st21" cx="90.2" cy="461.8" r="2.8"/>
	</g>
	<rect x="187.1" y="416.5" class="st17" width="18.2" height="8.6"/>
	<rect x="189.1" y="425.1" class="st15" width="2.9" height="8.7"/>
	<rect x="200.9" y="425.1" class="st15" width="2.9" height="8.7"/>
	<rect x="194.8" y="407.8" class="st15" width="2.9" height="8.7"/>
	
		<rect x="170.5" y="454.5" transform="matrix(6.123234e-17 -1 1 6.123234e-17 -285.3405 630.5352)" class="st9" width="4.2" height="6.9"/>
	<rect x="189.5" y="485.6" class="st7" width="4.2" height="6.9"/>
	
		<rect x="172.3" y="504.8" transform="matrix(0.7071 -0.7071 0.7071 0.7071 -308.3015 272.2246)" class="st9" width="4.2" height="6.9"/>
	<g>
		<path class="st4" d="M157,567c-5.1,0-9.2,4.1-9.2,9.2s4.1,9.2,9.2,9.2s9.2-4.1,9.2-9.2S162.1,567,157,567z M157,581.9
			c-3.1,0-5.7-2.6-5.7-5.7s2.6-5.7,5.7-5.7c3.1,0,5.7,2.6,5.7,5.7S160.2,581.9,157,581.9z"/>
		<path class="st4" d="M118.7,567.4v17.7h17.7v-17.7H118.7z M127.6,581.9c-3.1,0-5.7-2.6-5.7-5.7s2.6-5.7,5.7-5.7
			c3.1,0,5.7,2.6,5.7,5.7S130.7,581.9,127.6,581.9z"/>
		<path class="st4" d="M186.8,567c-5.1,0-9.2,4.1-9.2,9.2s4.1,9.2,9.2,9.2s9.2-4.1,9.2-9.2S191.9,567,186.8,567z M186.8,581.9
			c-3.1,0-5.7-2.6-5.7-5.7s2.6-5.7,5.7-5.7c3.1,0,5.7,2.6,5.7,5.7S190,581.9,186.8,581.9z"/>
	</g>
	<path class="st4" d="M17.5,545.6H0.3v3.4c2.3,0.9,3.9,3.1,3.9,5.7s-1.6,4.8-3.9,5.7v3.4h17.2c5,0,9-4,9-9S22.4,545.6,17.5,545.6z
		 M15.9,560.8c-3.4,0-6.1-2.7-6.1-6.1s2.7-6.1,6.1-6.1s6.1,2.7,6.1,6.1S19.2,560.8,15.9,560.8z"/>
	<path class="st4" d="M17.5,516.3H0.3v3.4c2.3,0.9,3.9,3.1,3.9,5.7s-1.6,4.8-3.9,5.7v3.4h17.2c5,0,9-4,9-9v0
		C26.5,520.3,22.4,516.3,17.5,516.3z M15.9,531.4c-3.4,0-6.1-2.7-6.1-6.1s2.7-6.1,6.1-6.1s6.1,2.7,6.1,6.1S19.2,531.4,15.9,531.4z"
		/>
	<path class="st4" d="M17.5,486.9H0.3v3.4c2.3,0.9,3.9,3.1,3.9,5.7s-1.6,4.8-3.9,5.7v3.4h17.2c5,0,9-4,9-9v0
		C26.5,490.9,22.4,486.9,17.5,486.9z M15.9,502c-3.4,0-6.1-2.7-6.1-6.1s2.7-6.1,6.1-6.1s6.1,2.7,6.1,6.1S19.2,502,15.9,502z"/>
	<path class="st4" d="M17.5,457.5H0.3v3.4c2.3,0.9,3.9,3.1,3.9,5.7s-1.6,4.8-3.9,5.7v3.4h17.2c5,0,9-4,9-9S22.4,457.5,17.5,457.5z
		 M15.9,472.6c-3.4,0-6.1-2.7-6.1-6.1s2.7-6.1,6.1-6.1s6.1,2.7,6.1,6.1S19.2,472.6,15.9,472.6z"/>
	<path class="st4" d="M17.5,398.7H0.3v3.4c2.3,0.9,3.9,3.1,3.9,5.7s-1.6,4.8-3.9,5.7v3.4h17.2c5,0,9-4,9-9S22.4,398.7,17.5,398.7z
		 M15.9,413.8c-3.4,0-6.1-2.7-6.1-6.1s2.7-6.1,6.1-6.1s6.1,2.7,6.1,6.1S19.2,413.8,15.9,413.8z"/>
	<path class="st4" d="M17.5,369.3H0.3v3.4c2.3,0.9,3.9,3.1,3.9,5.7s-1.6,4.8-3.9,5.7v3.4h17.2c5,0,9-4,9-9S22.4,369.3,17.5,369.3z
		 M15.9,384.4c-3.4,0-6.1-2.7-6.1-6.1s2.7-6.1,6.1-6.1s6.1,2.7,6.1,6.1S19.2,384.4,15.9,384.4z"/>
	<path class="st4" d="M17.5,339.9H0.3v3.4c2.3,0.9,3.9,3.1,3.9,5.7s-1.6,4.8-3.9,5.7v3.4h17.2c5,0,9-4,9-9S22.4,339.9,17.5,339.9z
		 M15.9,355c-3.4,0-6.1-2.7-6.1-6.1s2.7-6.1,6.1-6.1s6.1,2.7,6.1,6.1S19.2,355,15.9,355z"/>
	<path class="st4" d="M17.5,310.5H0.3v3.4c2.3,0.9,3.9,3.1,3.9,5.7s-1.6,4.8-3.9,5.7v3.4h17.2c5,0,9-4,9-9S22.4,310.5,17.5,310.5z
		 M15.9,325.6c-3.4,0-6.1-2.7-6.1-6.1s2.7-6.1,6.1-6.1s6.1,2.7,6.1,6.1S19.2,325.6,15.9,325.6z"/>
	<path class="st4" d="M17.5,251.7H0.3v3.4c2.3,0.9,3.9,3.1,3.9,5.7s-1.6,4.8-3.9,5.7v3.4h17.2c5,0,9-4,9-9v0
		C26.5,255.7,22.4,251.7,17.5,251.7z M15.9,266.8c-3.4,0-6.1-2.7-6.1-6.1s2.7-6.1,6.1-6.1s6.1,2.7,6.1,6.1S19.2,266.8,15.9,266.8z"
		/>
	<path class="st4" d="M17.5,222.3H0.3v3.4c2.3,0.9,3.9,3.1,3.9,5.7s-1.6,4.8-3.9,5.7v3.4h17.2c5,0,9-4,9-9S22.4,222.3,17.5,222.3z
		 M15.9,237.4c-3.4,0-6.1-2.7-6.1-6.1s2.7-6.1,6.1-6.1s6.1,2.7,6.1,6.1S19.2,237.4,15.9,237.4z"/>
	<path class="st4" d="M17.5,692.6H0.3v3.4c2.3,0.9,3.9,3.1,3.9,5.7s-1.6,4.8-3.9,5.7v3.4h17.2c5,0,9-4,9-9S22.4,692.6,17.5,692.6z
		 M15.9,707.7c-3.4,0-6.1-2.7-6.1-6.1s2.7-6.1,6.1-6.1s6.1,2.7,6.1,6.1S19.2,707.7,15.9,707.7z"/>
	<path class="st4" d="M239.5,789.8c0-2.6,1.6-4.8,3.9-5.7v-3.4h-17.2c-5,0-9,4-9,9s4,9,9,9h17.2v-3.4
		C241.2,794.6,239.5,792.4,239.5,789.8z M227.8,795.9c-3.4,0-6.1-2.7-6.1-6.1s2.7-6.1,6.1-6.1s6.1,2.7,6.1,6.1
		S231.2,795.9,227.8,795.9z"/>
	<path class="st4" d="M239.5,701.6c0-2.6,1.6-4.8,3.9-5.7v-3.4h-17.2c-5,0-9,4-9,9s4,9,9,9h17.2v-3.4
		C241.2,706.4,239.5,704.2,239.5,701.6z M227.8,707.7c-3.4,0-6.1-2.7-6.1-6.1s2.7-6.1,6.1-6.1s6.1,2.7,6.1,6.1
		S231.2,707.7,227.8,707.7z"/>
	<path class="st4" d="M239.5,466.5c0-2.6,1.6-4.8,3.9-5.7v-3.4h-17.2c-5,0-9,4-9,9s4,9,9,9h17.2v-3.4
		C241.2,471.3,239.5,469.1,239.5,466.5z M227.8,472.6c-3.4,0-6.1-2.7-6.1-6.1s2.7-6.1,6.1-6.1s6.1,2.7,6.1,6.1
		S231.2,472.6,227.8,472.6z"/>
	
		<rect x="90" y="560.5" transform="matrix(6.123234e-17 -1 1 6.123234e-17 -469.1242 655.7073)" class="st12" width="6.7" height="3.7"/>
	<g>
		<path class="st22" d="M82.2,579.9H50.4c-1.2,0-2.2-1-2.2-2.2V554c0-1.2,1-2.2,2.2-2.2h31.8c1.2,0,2.2,1,2.2,2.2v23.7
			C84.4,578.9,83.4,579.9,82.2,579.9z"/>
		<path class="st23" d="M79.9,577.4H52.6c-0.8,0-1.4-0.6-1.4-1.4v-20.4c0-0.8,0.6-1.4,1.4-1.4h27.3c0.8,0,1.4,0.6,1.4,1.4V576
			C81.3,576.8,80.7,577.4,79.9,577.4z"/>
	</g>
	
		<rect x="90" y="580.5" transform="matrix(6.123234e-17 -1 1 6.123234e-17 -489.0585 675.6417)" class="st12" width="6.7" height="3.7"/>
	<rect x="100.1" y="564.7" class="st7" width="4.2" height="6.9"/>
	<g>
		<path class="st16" d="M42.3,384.8v-3.6c0-2.2,0.6-3.9,2.6-3.9c0.9,0,1.9,0.5,2.2,1.4h0.1c0.3-1.1,1.1-1.9,2.4-1.9
			c2.1,0,3.1,1.8,3.1,4.1v3.9H42.3z M46.4,381.3c0-1.1-0.5-1.5-1.2-1.5c-0.8,0-1.1,0.5-1.1,1.5v1.1h2.2V381.3z M50.8,381.1
			c0-1.2-0.4-1.8-1.3-1.8s-1.2,0.6-1.2,1.8v1.2h2.5V381.1z"/>
		<path class="st16" d="M47.4,375.6c-3.4,0-5.4-1.9-5.4-4.8s2-4.8,5.4-4.8c3.4,0,5.4,1.9,5.4,4.8S50.8,375.6,47.4,375.6z
			 M47.4,368.6c-2,0-3.2,0.8-3.2,2.2c0,1.4,1.2,2.2,3.2,2.2c2,0,3.3-0.9,3.3-2.2C50.7,369.5,49.4,368.6,47.4,368.6z"/>
		<path class="st16" d="M47.4,364.6c-3.4,0-5.4-1.9-5.4-4.8s2-4.8,5.4-4.8c3.4,0,5.4,1.9,5.4,4.8S50.8,364.6,47.4,364.6z
			 M47.4,357.6c-2,0-3.2,0.8-3.2,2.2c0,1.4,1.2,2.2,3.2,2.2c2,0,3.3-0.9,3.3-2.2C50.7,358.5,49.4,357.6,47.4,357.6z"/>
		<path class="st16" d="M44.3,351.6v2.8h-2.1v-8.1h2.1v2.8h8.3v2.5H44.3z"/>
		<path class="st16" d="M51.3,345.7l-1.6-1.3c0.6-0.7,1-1.7,1-2.6c0-0.9-0.4-1.4-0.9-1.4c-0.6,0-0.8,0.6-1.2,1.5l-0.6,1.3
			c-0.4,1.1-1.3,2.1-2.8,2.1c-1.7,0-3.2-1.6-3.2-3.8c0-1.2,0.5-2.5,1.3-3.4l1.6,1.3c-0.5,0.7-0.8,1.4-0.8,2.1c0,0.8,0.3,1.3,0.8,1.3
			c0.6,0,0.8-0.7,1.2-1.6l0.5-1.3c0.5-1.3,1.4-2.1,2.8-2.1c1.7,0,3.3,1.5,3.3,4C52.9,343.2,52.4,344.6,51.3,345.7z"/>
		<path class="st16" d="M42.3,336.1v-6.6h2.1v4.1h2v-3.5h2.1v3.5h2.2v-4.3h2.1v6.8H42.3z"/>
		<path class="st16" d="M42.3,327.3v-2.5h8.3v-4h2.1v6.5H42.3z"/>
	</g>
	<g>
		<path class="st16" d="M141.4,542h3c3.2,0,5.3,1.6,5.3,5.2c0,3.6-2.1,5.2-5.1,5.2h-3.1V542z M144.3,550.4c1.7,0,2.9-0.8,2.9-3.2
			c0-2.5-1.2-3.2-2.9-3.2h-0.4v6.4H144.3z"/>
		<path class="st16" d="M151.6,542h6.6v2.1h-4.1v2h3.5v2.1h-3.5v2.2h4.3v2.1h-6.8V542z"/>
		<path class="st16" d="M160.4,542h3.6c2.2,0,3.9,0.6,3.9,2.6c0,0.9-0.5,1.9-1.4,2.2v0.1c1.1,0.3,1.9,1.1,1.9,2.4
			c0,2.1-1.8,3.1-4.1,3.1h-3.9V542z M164,546.2c1.1,0,1.5-0.5,1.5-1.2c0-0.8-0.5-1.1-1.5-1.1h-1.1v2.2H164z M164.2,550.5
			c1.2,0,1.8-0.4,1.8-1.3c0-0.9-0.6-1.2-1.8-1.2h-1.2v2.5H164.2z"/>
		<path class="st16" d="M170.1,547.5V542h2.5v5.8c0,2,0.6,2.7,1.7,2.7c1.2,0,1.8-0.7,1.8-2.7V542h2.4v5.5c0,3.5-1.4,5.1-4.2,5.1
			S170.1,551.1,170.1,547.5z"/>
		<path class="st16" d="M180.3,547.3c0-3.5,2.3-5.5,5.1-5.5c1.5,0,2.6,0.6,3.3,1.4l-1.3,1.5c-0.5-0.5-1.1-0.7-1.9-0.7
			c-1.5,0-2.7,1.2-2.7,3.2c0,2.1,0.9,3.3,2.9,3.3c0.4,0,0.8-0.1,1-0.3v-1.7h-1.7v-2h3.9v4.9c-0.7,0.7-2,1.3-3.5,1.3
			C182.6,552.6,180.3,550.8,180.3,547.3z"/>
	</g>
	<rect x="114.2" y="563.4" class="st24" width="86.4" height="25.6"/>
	<g>
		<path class="st16" d="M40.1,277.8h2.5v8.3h4v2.1h-6.5V277.8z"/>
		<path class="st16" d="M48.4,277.8H55v2.1h-4.1v2h3.5v2.1h-3.5v2.2h4.3v2.1h-6.8V277.8z"/>
		<path class="st16" d="M57.2,277.8h3c3.2,0,5.3,1.6,5.3,5.2c0,3.6-2.1,5.2-5.1,5.2h-3.1V277.8z M60.1,286.2c1.7,0,2.9-0.8,2.9-3.2
			c0-2.5-1.2-3.2-2.9-3.2h-0.4v6.4H60.1z"/>
	</g>
	<g>
		<rect x="143.7" y="427.3" class="st8" width="5.4" height="10.6"/>
		<rect x="143.7" y="429.6" class="st9" width="5.4" height="6"/>
	</g>
	<g>
		<rect x="154.3" y="427.3" class="st8" width="5.4" height="10.6"/>
		<rect x="154.3" y="429.6" class="st9" width="5.4" height="6"/>
	</g>
	<rect x="127.1" y="428.5" class="st7" width="4.2" height="6.9"/>
	
		<rect x="68.6" y="433.7" transform="matrix(6.123234e-17 -1 1 6.123234e-17 -366.3489 507.8206)" class="st7" width="4.2" height="6.9"/>
	<rect x="120.5" y="428.5" class="st9" width="4.2" height="6.9"/>
	<rect x="110.4" y="428.5" class="st9" width="4.2" height="6.9"/>
	<path class="st4" d="M239.5,407.7c0-2.6,1.6-4.8,3.9-5.7v-3.4h-17.2c-5,0-9,4-9,9s4,9,9,9h17.2v-3.4
		C241.2,412.5,239.5,410.3,239.5,407.7z M227.8,413.8c-3.4,0-6.1-2.7-6.1-6.1s2.7-6.1,6.1-6.1s6.1,2.7,6.1,6.1
		S231.2,413.8,227.8,413.8z"/>
	<g>
		
			<rect x="169.4" y="399.8" transform="matrix(-1.836970e-16 1 -1 -1.836970e-16 577.9366 227.1736)" class="st8" width="11.9" height="5.6"/>
		
			<rect x="172.1" y="399.8" transform="matrix(-1.836970e-16 1 -1 -1.836970e-16 577.9366 227.1736)" class="st10" width="6.6" height="5.6"/>
	</g>
</g>
<sodipodi:namedview  bordercolor="#666666" borderopacity="1" gridtolerance="10" guidetolerance="10" id="namedview66" inkscape:current-layer="Ebene_1" inkscape:cx="230.83754" inkscape:cy="403.81421" inkscape:pageopacity="0" inkscape:pageshadow="2" inkscape:window-height="1017" inkscape:window-maximized="1" inkscape:window-width="1920" inkscape:window-x="-8" inkscape:window-y="-8" inkscape:zoom="0.29221359" objecttolerance="10" pagecolor="#ffffff" showgrid="false">
	</sodipodi:namedview>
<g id="layer1">
	<rect id="rect815" x="282.7" y="0" class="st25" width="179" height="238.4"/>
	<rect id="rect821" x="325" y="199.3" class="st16" width="93.1" height="32.1"/>
	<path id="rect825" class="st26" d="M331.1,201.1h18.7c3.3,0,5.9,2.6,5.9,5.9v16.4c0,3.3-2.6,5.9-5.9,5.9h-18.7
		c-3.3,0-5.9-2.6-5.9-5.9V207C325.2,203.7,327.8,201.1,331.1,201.1z"/>
	<path id="rect872" class="st26" d="M393.3,201.1H412c3.3,0,5.9,2.6,5.9,5.9v16.4c0,3.3-2.6,5.9-5.9,5.9h-18.7
		c-3.3,0-5.9-2.6-5.9-5.9V207C387.4,203.7,390.1,201.1,393.3,201.1z"/>
	<path id="rect874" class="st26" d="M361.4,201.1h20.2c2.8,0,5.1,2.3,5.1,5.1v17.9c0,2.8-2.3,5.1-5.1,5.1h-20.2
		c-2.8,0-5.1-2.3-5.1-5.1v-17.9C356.3,203.4,358.6,201.1,361.4,201.1z"/>
	<rect id="rect947" x="338.7" y="216.4" class="st27" width="3.4" height="58.8"/>
	<rect id="rect949" x="370" y="216.4" class="st27" width="3.4" height="58.8"/>
	<rect id="rect951" x="400.9" y="216.4" class="st27" width="3.4" height="58.8"/>
	<path id="path31-1" class="st16" d="M333.5,17.8c1.1,0,1.2,0,1.4-0.2c0.1-0.1,0.3-0.2,0.4-0.3c0.1-0.2,0.1-0.3,0.1-2.6l0-2.4l2.4,0
		l2.4,0v3c0,3.3,0,3.6-0.4,4.5c-0.4,1.1-1.3,1.8-2.5,2c-0.7,0.1-1.4,0.1-2.2,0.1c-0.9,0-2,0-2.3-0.1l-0.6-0.1l0-1.9l0-1.9
		L333.5,17.8L333.5,17.8z M356.1,24.5c20.2,0,25.1,0,24.3,0.1l-0.1,0l0.1,0.1c0.1,0,0.1,0.1-0.1,0.1c-0.1,0-0.1,0,0.2,0.1l0.4,0
		l-0.4,0c-0.2,0-0.4,0-0.3,0c0.1,0,0.1,0.1,0.1,0.6c0,0.5,0,0.5,0.2,0.6c0.1,0,0.1,0-0.1,0c-0.2,0-0.3,0-0.3,0.1c0,0-8,0.1-23.9,0.1
		h-23.9v-1.7L356.1,24.5z M337.9,6.1h2.4V10h-4.8V6.1L337.9,6.1z M342.7,13.3c0.1-1,0.5-2,0.9-2.9c0.1-0.2,0.2-0.4,0.3-0.6
		c0.1-0.1,0.2-0.2,0.3-0.4c0.3-0.4,0.6-0.8,0.9-1.2c0,0,0.1-0.1,0.1-0.1c0.3-0.4,0.7-0.7,1.1-1c0.5-0.4,1.1-0.7,1.8-0.9
		c0.9-0.4,1.9-0.5,2.9-0.4c0.6,0,1.1,0.1,1.7,0.2c0.4,0.1,0.8,0.2,1,0.3c0.1,0.1,0.2,0.1,0.4,0.1c0.2,0.1,0.4,0.2,0.6,0.3
		c1.4,1,2.5,2.2,3.3,3.7c0.9,1.9,1.1,4.1,0.3,6c-0.2,0.6-0.5,1.3-0.9,1.8c-0.4,0.6-0.9,1.2-1.4,1.7c-0.9,1-2.1,1.7-3.4,2
		c-1,0.2-2,0.3-3,0.2c-1.2-0.2-2.3-0.7-3.2-1.4c-0.4-0.3-0.7-0.6-1-0.9c-0.1-0.1-0.2-0.3-0.3-0.4c-1-1.1-1.7-2.5-2.1-4
		C342.7,14.9,342.6,14.1,342.7,13.3L342.7,13.3z M347.2,15.3c0.2,0.9,0.7,1.7,1.4,2.3c0.8,0.7,1.8,0.9,2.8,0.6
		c1.3-0.5,2.2-1.6,2.5-3c0.2-0.9,0.2-1.8,0-2.7c-0.3-1-0.8-1.9-1.7-2.5c-0.3-0.2-0.6-0.4-0.9-0.4c-0.7-0.2-1.5-0.1-2.2,0.2
		c-0.7,0.4-1.2,1-1.5,1.7C347.1,12.8,346.9,14.1,347.2,15.3L347.2,15.3z M360.6,6.2c0,0,1.1,0,2.4,0l2.3,0l0,2.1c0,2,0,2.2,0.1,2.5
		c0.4,0.9,1.4,1.4,2.4,1.1c0.5-0.1,0.9-0.5,1.1-0.9l0.2-0.4l0-2.2l0-2.2h4.8l0,2.5c0.1,1,0,2-0.2,3c-0.2,0.9-0.7,1.7-1.2,2.5
		c-0.1,0.1-0.2,0.2-0.3,0.4c-0.3,0.4-0.7,0.7-1.1,1c-0.4,0.3-0.9,0.6-1.4,0.7c-0.1,0-0.4,0.1-0.7,0.2c-0.6,0.2-1.1,0.2-1.7,0.2
		c-0.6,0.1-1.2,0-1.8-0.2c-0.7-0.1-1.3-0.4-1.9-0.8c-0.7-0.5-1.3-1.1-1.8-1.8c-0.6-0.9-1-1.9-1.2-3C360.5,9.3,360.5,7.7,360.6,6.2
		L360.6,6.2z M367.3,17.9h3.9v4h-7.8v-4L367.3,17.9z M374,3.1c0,0,0.1-0.1,0.1-0.2c0-0.2,0-0.2,0.3-0.3c0.2,0,6.8,0,14.7,0l14.4,0
		l0,0.9l0,0.9h-14.6c-8,0-14.7,0-14.7,0c-0.1,0-0.1-0.1-0.1-0.6C373.9,3.3,373.9,3.1,374,3.1L374,3.1z M380.5,12.7h5v3.9h-9.9v-3.9
		L380.5,12.7z M389.4,6.1h2.4V10H387V6.1L389.4,6.1z M389.4,12.1h2.4v10H387v-10L389.4,12.1z M398.9,6.1h5V10h-10V6.1L398.9,6.1z
		 M394.8,12.4c0,0,1.1,0,2.3,0l2.3,0l0,2.3c0,3.2-0.1,3.1,2.3,3.1l1.5,0v4l-0.6,0.1c-1.4,0.1-2.9,0.1-4.3,0c-1-0.1-1.9-0.5-2.6-1.3
		c-0.6-0.7-0.9-1.6-1-2.5C394.7,17.4,394.7,12.4,394.8,12.4L394.8,12.4z M406.7,4.2c0.1-0.4,0.3-0.8,0.6-1.1
		c0.9-0.9,2.4-1.1,3.4-0.3c0.4,0.2,0.7,0.6,0.8,1c0.2,0.3,0.2,0.7,0.2,1c0,0.4,0,0.7-0.2,1.1c-0.4,0.8-1.2,1.4-2.2,1.5
		c-0.8,0.1-1.6-0.2-2.1-0.8C406.7,6,406.5,5.1,406.7,4.2L406.7,4.2z M407.2,5.9c0.3,0.6,0.9,1,1.6,1.2c0.7,0.2,1.5,0,2-0.5
		c0.2-0.2,0.4-0.4,0.5-0.6c0.2-0.3,0.2-0.6,0.2-1c0-0.3,0-0.7-0.2-1c-0.1-0.3-0.3-0.5-0.6-0.7c-0.2-0.2-0.5-0.3-0.7-0.4
		c-1.1-0.3-2.3,0.2-2.8,1.3C406.9,4.7,407,5.3,407.2,5.9L407.2,5.9z M408.9,3.4c0.4,0,0.7,0,1,0.1c0.4,0.3,0.5,0.8,0.3,1.2
		c-0.1,0.1-0.2,0.2-0.4,0.2L409.7,5l0.2,0.2c0.2,0.2,0.3,0.4,0.4,0.6c0.1,0.1,0.2,0.3,0.3,0.4c0.1,0.1,0,0.2-0.2,0.2l-0.3,0
		l-0.4-0.6c-0.4-0.6-0.5-0.7-1-0.7h-0.3v1.3l-0.2,0l-0.2,0l0-1.5l0-1.5L408.9,3.4z M409.1,4.7c0.5,0,0.6,0,0.7-0.1
		c0.4-0.3,0.2-0.7-0.4-0.8c-0.3,0-0.6,0-0.9,0c0,0.1,0,0.3,0,0.5v0.4L409.1,4.7z"/>
	<circle id="path84" class="st28" cx="308.5" cy="32.2" r="17.9"/>
	<circle id="circle86" class="st28" cx="435.6" cy="32.2" r="17.9"/>
	<circle id="path88" class="st29" cx="308.5" cy="32.2" r="15.9"/>
	<circle id="circle90" class="st29" cx="435.6" cy="32.2" r="15.9"/>
	<path id="path73" class="st28" d="M320.4,74.8c0,6.6-5.4,11.9-12,11.8c-6.6,0-11.9-5.4-11.8-12c0-6.6,5.4-11.9,12-11.8
		C315.1,62.9,320.4,68.2,320.4,74.8"/>
	<path id="path75" class="st28" d="M320.4,102.6c0,6.6-5.4,11.9-12,11.8s-11.9-5.4-11.8-12s5.4-11.9,12-11.8
		C315.1,90.7,320.4,96,320.4,102.6"/>
	<path id="path77" class="st28" d="M346.2,74.8c0,6.6-5.4,11.9-12,11.8c-6.6,0-11.9-5.4-11.8-12c0-6.6,5.4-11.9,12-11.8
		C341,62.9,346.2,68.2,346.2,74.8"/>
	<path id="path79" class="st28" d="M346.2,102.6c0,6.6-5.4,11.9-12,11.8s-11.9-5.4-11.8-12s5.4-11.9,12-11.8
		C341,90.7,346.2,96,346.2,102.6"/>
	<path id="path81" class="st28" d="M422.1,74.8c0,6.6-5.4,11.9-12,11.8c-6.6,0-11.9-5.4-11.8-12c0-6.6,5.4-11.9,12-11.8
		C416.9,62.9,422.1,68.2,422.1,74.8"/>
	<path id="path83" class="st28" d="M422.1,102.6c0,6.6-5.4,11.9-12,11.8s-11.9-5.4-11.8-12s5.4-11.9,12-11.8
		C416.9,90.7,422.1,96,422.1,102.6"/>
	<path id="path85" class="st28" d="M448,74.8c0,6.6-5.4,11.9-12,11.8c-6.6,0-11.9-5.4-11.8-12c0-6.6,5.4-11.9,12-11.8
		C442.7,62.9,448,68.2,448,74.8"/>
	<path id="path87" class="st28" d="M448,102.6c0,6.6-5.4,11.9-12,11.8s-11.9-5.4-11.8-12s5.4-11.9,12-11.8
		C442.7,90.7,448,96,448,102.6"/>
	<path id="path89" class="st29" d="M318.5,74.6c0,5.5-4.5,9.9-10,9.9c-5.5,0-9.9-4.5-9.9-10s4.5-9.9,10-9.9
		C314.1,64.6,318.5,69.1,318.5,74.6"/>
	<path id="path91" class="st29" d="M318.5,102.4c0,5.5-4.5,9.9-10,9.9c-5.5,0-9.9-4.5-9.9-10c0-5.5,4.5-9.9,10-9.9
		C314.1,92.4,318.5,96.9,318.5,102.4"/>
	<path id="path93" class="st29" d="M446.1,102.4c0,5.5-4.5,9.9-10,9.9s-9.9-4.5-9.9-10c0-5.5,4.5-9.9,10-9.9
		C441.6,92.4,446.1,96.9,446.1,102.4"/>
	<path id="path95" class="st29" d="M446.1,74.6c0,5.5-4.5,9.9-10,9.9c-5.5,0-9.9-4.5-9.9-10s4.5-9.9,10-9.9
		C441.6,64.6,446.1,69,446.1,74.6"/>
	<rect id="rect97" x="326.4" y="62.8" class="st30" width="91.4" height="51.7"/>
	<rect id="rect99" x="327.4" y="63.8" class="st31" width="25.8" height="49.7"/>
	<rect id="rect101" x="390.9" y="63.8" class="st31" width="25.8" height="49.7"/>
	<rect id="rect103" x="328" y="65.2" class="st30" width="23.8" height="47.7"/>
	<rect id="rect105" x="392.3" y="65.2" class="st30" width="23.8" height="47.7"/>
	<rect id="rect107" x="362.1" y="78.7" class="st31" width="19.9" height="19.9"/>
	<g id="text3788">
		<g class="st32">
			<path class="st16" d="M301.2,183.4c0.1,0,0.1,0,0.2,0c0.1,0,0.1,0.1,0.1,0.2c0,0.1,0.1,0.2,0.1,0.3c0,0.1,0,0.3,0,0.5
				c0,0.3,0,0.5,0,0.7c0,0.2-0.1,0.3-0.1,0.4s-0.1,0.2-0.2,0.2l-8,5.9h8c0.1,0,0.1,0,0.2,0c0.1,0,0.1,0.1,0.1,0.2
				c0,0.1,0.1,0.2,0.1,0.3c0,0.1,0,0.3,0,0.5c0,0.2,0,0.4,0,0.5c0,0.1,0,0.3-0.1,0.3c0,0.1-0.1,0.1-0.1,0.2c-0.1,0-0.1,0-0.2,0
				h-15.3c-0.1,0-0.1,0-0.2,0c0,0-0.1-0.1-0.1-0.2c0-0.1-0.1-0.2-0.1-0.3c0-0.1,0-0.3,0-0.5c0-0.2,0-0.4,0-0.5c0-0.1,0-0.2,0.1-0.3
				c0-0.1,0.1-0.1,0.1-0.2c0,0,0.1,0,0.2,0h7.1l-7.1-5.6c-0.1,0-0.1-0.1-0.2-0.2c0-0.1-0.1-0.1-0.1-0.2c0-0.1-0.1-0.2-0.1-0.3
				c0-0.1,0-0.3,0-0.5c0-0.2,0-0.4,0-0.5c0-0.1,0-0.2,0.1-0.3c0-0.1,0.1-0.1,0.1-0.2c0,0,0.1,0,0.2,0c0.1,0,0.2,0,0.3,0.1
				c0.1,0.1,0.3,0.2,0.4,0.3l6.3,5.3l7.6-5.7c0.2-0.1,0.4-0.2,0.4-0.3C301.1,183.4,301.1,183.4,301.2,183.4z"/>
		</g>
		<g class="st32">
			<path class="st16" d="M295.3,175.6h5.9c0.1,0,0.1,0,0.2,0c0,0,0.1,0.1,0.1,0.2c0,0.1,0.1,0.2,0.1,0.3c0,0.1,0,0.3,0,0.5
				c0,0.2,0,0.4,0,0.5s0,0.2-0.1,0.3c0,0.1-0.1,0.1-0.1,0.2c0,0-0.1,0-0.2,0h-5.9l-9,4.5c-0.2,0.1-0.3,0.1-0.4,0.2s-0.2,0-0.2-0.1
				s-0.1-0.2-0.1-0.3s0-0.4,0-0.6c0-0.2,0-0.4,0-0.6s0-0.3,0.1-0.4c0-0.1,0.1-0.2,0.1-0.2c0.1,0,0.1-0.1,0.2-0.1l4.6-2.2
				c0.4-0.2,0.9-0.4,1.4-0.6c0.5-0.2,1-0.4,1.4-0.6v0c-0.5-0.2-0.9-0.4-1.4-0.6s-0.9-0.4-1.4-0.6l-4.6-2.2c-0.1,0-0.2-0.1-0.2-0.1
				c-0.1,0-0.1-0.1-0.1-0.2c0-0.1-0.1-0.2-0.1-0.3s0-0.3,0-0.5c0-0.3,0-0.5,0-0.7c0-0.2,0.1-0.3,0.1-0.4c0.1-0.1,0.1-0.1,0.2-0.1
				c0.1,0,0.2,0.1,0.4,0.2L295.3,175.6z"/>
		</g>
		<g class="st32">
			<path class="st16" d="M295.3,165.1c0.3,0,0.5,0,0.7,0.1c0.1,0.1,0.2,0.2,0.2,0.3v5.1c0,0.1-0.1,0.3-0.2,0.3
				c-0.1,0.1-0.3,0.1-0.7,0.1c-0.3,0-0.5,0-0.7-0.1c-0.1-0.1-0.2-0.2-0.2-0.3v-5.1c0-0.1,0-0.1,0-0.2c0-0.1,0.1-0.1,0.1-0.1
				c0.1,0,0.2-0.1,0.3-0.1S295.1,165.1,295.3,165.1z"/>
			<path class="st16" d="M293.5,152.3c1.2,0,2.3,0.1,3.4,0.3c1,0.2,1.9,0.5,2.6,1c0.7,0.4,1.3,1,1.7,1.8s0.6,1.6,0.6,2.7
				c0,1-0.2,1.8-0.5,2.5c-0.4,0.7-0.9,1.2-1.6,1.7s-1.5,0.7-2.6,0.9s-2.2,0.3-3.5,0.3c-1.2,0-2.3-0.1-3.3-0.3c-1-0.2-1.9-0.5-2.6-1
				c-0.7-0.4-1.3-1-1.7-1.7c-0.4-0.7-0.6-1.6-0.6-2.7c0-1,0.2-1.9,0.5-2.5c0.4-0.7,0.9-1.2,1.6-1.7c0.7-0.4,1.5-0.7,2.6-0.9
				S292.2,152.3,293.5,152.3z M293.7,154.5c-0.8,0-1.5,0-2.1,0.1c-0.6,0.1-1.2,0.1-1.7,0.3s-0.9,0.3-1.3,0.4
				c-0.3,0.2-0.6,0.4-0.9,0.6c-0.2,0.2-0.4,0.5-0.5,0.8c-0.1,0.3-0.2,0.7-0.2,1.1c0,0.7,0.2,1.3,0.5,1.7c0.3,0.4,0.8,0.8,1.4,1
				c0.6,0.3,1.2,0.4,2,0.5c0.8,0.1,1.6,0.1,2.5,0.1c1.2,0,2.2-0.1,3-0.2c0.8-0.1,1.5-0.3,2-0.6c0.5-0.3,0.9-0.6,1.1-1
				c0.2-0.4,0.4-0.9,0.4-1.5c0-0.5-0.1-0.9-0.2-1.2c-0.1-0.3-0.4-0.6-0.6-0.9s-0.6-0.5-1-0.6c-0.4-0.2-0.8-0.3-1.3-0.4
				s-1-0.2-1.5-0.2S294.2,154.5,293.7,154.5z"/>
			<path class="st16" d="M300.7,140c0.2,0,0.3,0,0.4,0s0.2,0.1,0.3,0.1s0.1,0.1,0.1,0.1c0,0.1,0,0.1,0,0.2v8.3c0,0.1,0,0.1,0,0.2
				c0,0-0.1,0.1-0.1,0.1c-0.1,0-0.2,0.1-0.3,0.1c-0.1,0-0.2,0-0.4,0c-0.1,0-0.3,0-0.4,0c-0.1,0-0.2-0.1-0.3-0.1
				c-0.1,0-0.1-0.1-0.2-0.1c0-0.1-0.1-0.1-0.1-0.2v-3.3h-12.1l1.8,3.1c0.1,0.2,0.1,0.3,0.1,0.4s0,0.2-0.1,0.2
				c-0.1,0.1-0.1,0.1-0.3,0.1s-0.3,0-0.5,0c-0.1,0-0.3,0-0.4,0c-0.1,0-0.2,0-0.2-0.1c-0.1,0-0.1-0.1-0.2-0.1c0,0-0.1-0.1-0.1-0.2
				l-2.4-3.7c0,0,0-0.1-0.1-0.1c0,0,0-0.1,0-0.2c0-0.1,0-0.2,0-0.3c0-0.1,0-0.2,0-0.4c0-0.2,0-0.4,0-0.5c0-0.1,0-0.2,0.1-0.3
				c0-0.1,0.1-0.1,0.1-0.1c0,0,0.1,0,0.1,0h14v-2.9c0-0.1,0-0.1,0.1-0.2c0-0.1,0.1-0.1,0.2-0.1c0.1,0,0.2-0.1,0.3-0.1
				S300.5,140,300.7,140z"/>
			<path class="st16" d="M293.5,126.7c1.2,0,2.3,0.1,3.4,0.3c1,0.2,1.9,0.5,2.6,1c0.7,0.4,1.3,1,1.7,1.8s0.6,1.6,0.6,2.7
				c0,1-0.2,1.8-0.5,2.5c-0.4,0.7-0.9,1.2-1.6,1.7s-1.5,0.7-2.6,0.9c-1,0.2-2.2,0.3-3.5,0.3c-1.2,0-2.3-0.1-3.3-0.3s-1.9-0.5-2.6-1
				c-0.7-0.4-1.3-1-1.7-1.8s-0.6-1.6-0.6-2.7c0-1,0.2-1.9,0.5-2.5c0.4-0.7,0.9-1.2,1.6-1.7c0.7-0.4,1.5-0.7,2.6-0.9
				S292.2,126.7,293.5,126.7z M293.7,128.9c-0.8,0-1.5,0-2.1,0.1c-0.6,0.1-1.2,0.1-1.7,0.3s-0.9,0.3-1.3,0.4
				c-0.3,0.2-0.6,0.4-0.9,0.6c-0.2,0.2-0.4,0.5-0.5,0.8c-0.1,0.3-0.2,0.7-0.2,1.1c0,0.7,0.2,1.3,0.5,1.7c0.3,0.4,0.8,0.8,1.4,1
				c0.6,0.2,1.2,0.4,2,0.5c0.8,0.1,1.6,0.1,2.5,0.1c1.2,0,2.2-0.1,3-0.2c0.8-0.1,1.5-0.3,2-0.6c0.5-0.3,0.9-0.6,1.1-1
				c0.2-0.4,0.4-0.9,0.4-1.5c0-0.5-0.1-0.9-0.2-1.2c-0.1-0.3-0.4-0.6-0.6-0.9s-0.6-0.5-1-0.6c-0.4-0.2-0.8-0.3-1.3-0.4
				s-1-0.2-1.5-0.2S294.2,128.9,293.7,128.9z"/>
		</g>
	</g>
	<g id="text3792">
		<g class="st32">
			<path class="st16" d="M437,217.9c0,0.7-0.1,1.4-0.4,2s-0.7,1.1-1.1,1.5c-0.5,0.4-1.1,0.7-1.7,0.9s-1.4,0.3-2.1,0.3
				c-0.5,0-1,0-1.5-0.1c-0.5-0.1-0.9-0.2-1.2-0.3c-0.4-0.1-0.7-0.3-0.9-0.4s-0.4-0.3-0.5-0.4c-0.1-0.1-0.2-0.2-0.2-0.4
				c0-0.2-0.1-0.4-0.1-0.6c0-0.2,0-0.3,0-0.5s0-0.2,0.1-0.3c0-0.1,0.1-0.1,0.1-0.2c0,0,0.1,0,0.2,0c0.1,0,0.3,0.1,0.5,0.2
				c0.2,0.1,0.5,0.3,0.8,0.5s0.7,0.3,1.2,0.5c0.5,0.1,1,0.2,1.6,0.2c0.5,0,0.9-0.1,1.3-0.2s0.7-0.3,1-0.5c0.3-0.2,0.5-0.5,0.6-0.8
				c0.1-0.3,0.2-0.7,0.2-1.1c0-0.5-0.1-0.8-0.3-1.2s-0.5-0.6-0.8-0.8s-0.7-0.5-1.2-0.7c-0.4-0.2-0.9-0.4-1.3-0.6
				c-0.5-0.2-0.9-0.4-1.3-0.7c-0.4-0.3-0.8-0.6-1.1-0.9c-0.3-0.3-0.6-0.8-0.8-1.2c-0.2-0.5-0.3-1-0.3-1.7c0-0.7,0.1-1.3,0.4-1.8
				c0.2-0.5,0.6-1,1-1.3s0.9-0.6,1.5-0.8c0.6-0.2,1.2-0.3,1.9-0.3c0.4,0,0.7,0,1.1,0.1c0.4,0.1,0.7,0.1,1,0.2
				c0.3,0.1,0.6,0.2,0.8,0.3s0.4,0.2,0.5,0.3c0.1,0.1,0.1,0.1,0.2,0.2c0,0,0,0.1,0.1,0.2s0,0.2,0,0.3c0,0.1,0,0.2,0,0.4
				c0,0.1,0,0.3,0,0.4c0,0.1,0,0.2-0.1,0.3c0,0.1-0.1,0.1-0.1,0.2c0,0-0.1,0.1-0.2,0.1c-0.1,0-0.2-0.1-0.4-0.2
				c-0.2-0.1-0.4-0.2-0.7-0.4s-0.6-0.3-1-0.4c-0.4-0.1-0.8-0.2-1.3-0.2c-0.4,0-0.8,0.1-1.2,0.2c-0.3,0.1-0.6,0.3-0.8,0.5
				s-0.4,0.4-0.5,0.7s-0.2,0.6-0.2,0.9c0,0.4,0.1,0.8,0.3,1.1c0.2,0.3,0.5,0.6,0.8,0.9c0.3,0.2,0.7,0.5,1.2,0.7
				c0.4,0.2,0.9,0.4,1.3,0.6c0.5,0.2,0.9,0.4,1.3,0.7s0.8,0.5,1.2,0.9c0.3,0.3,0.6,0.7,0.8,1.2C436.9,216.8,437,217.3,437,217.9z"/>
		</g>
	</g>
	<g id="text3796">
		<g class="st32">
			<path class="st16" d="M319,215.4c0,0.3-0.1,0.5-0.3,0.7c-0.2,0.1-0.5,0.2-0.8,0.2h-13.2c-0.4,0-0.7-0.1-0.9-0.2
				c-0.2-0.1-0.3-0.3-0.3-0.7c0-0.3,0.1-0.5,0.3-0.7c0.2-0.1,0.5-0.2,0.9-0.2h13.2c0.2,0,0.3,0,0.5,0c0.1,0,0.3,0.1,0.3,0.1
				c0.1,0.1,0.2,0.2,0.2,0.3S319,215.2,319,215.4z"/>
		</g>
	</g>
</g>
<circle id="circle281" class="st33" cx="232.1" cy="290.2" r="11.6"/>
<circle id="circle281-2" class="st34" cx="232.1" cy="348.9" r="11.6"/>
<circle id="circle281-3" class="st35" cx="232.1" cy="701.7" r="11.6"/>
<rect id="rect52" x="232.1" y="285.6" class="st33" width="112.9" height="9.1"/>
<rect id="rect54" x="232.1" y="344.4" class="st34" width="144.2" height="9.1"/>
<rect id="rect853" x="232.1" y="697.2" class="st36" width="175.1" height="9.1"/>
<circle id="circle281-4" class="st33" cx="340.4" cy="242.9" r="11.6"/>
<circle id="circle281-5" class="st34" cx="371.6" cy="242.9" r="11.6"/>
<circle id="circle281-6" class="st35" cx="402.6" cy="242.9" r="11.6"/>
<rect id="rect60" x="335.8" y="242.9" class="st33" width="9.1" height="51.9"/>
<rect id="rect62" x="367.1" y="242.9" class="st34" width="9.1" height="110.6"/>
<rect id="rect853-2" x="398.1" y="242.9" class="st36" width="9.1" height="463.4"/>
</svg>
