<?xml version="1.0" encoding="UTF-8"?>
<svg xmlns="http://www.w3.org/2000/svg" version="1.1" xmlns:inkscape="http://www.inkscape.org/namespaces/inkscape" xmlns:sodipodi="http://sodipodi.sourceforge.net/DTD/sodipodi-0.dtd" xmlns:svg="http://www.w3.org/2000/svg" viewBox="0 0 937.6 801.3">
  <defs>
    <style>
      .cls-1 {
        fill: #2c2c2c;
      }

      .cls-2, .cls-3 {
        fill: #fff;
      }

      .cls-4 {
        fill: #493930;
      }

      .cls-5 {
        fill: #be8839;
      }

      .cls-6 {
        fill: #dbded7;
      }

      .cls-7 {
        fill: #914f00;
      }

      .cls-8 {
        fill: #9a2442;
      }

      .cls-9 {
        fill: #303030;
      }

      .cls-10 {
        fill: #f53200;
      }

      .cls-11 {
        fill: #47494a;
      }

      .cls-12 {
        fill: #655a50;
      }

      .cls-13 {
        fill: #00b589;
      }

      .cls-14 {
        fill: #e30613;
      }

      .cls-15 {
        fill: #474949;
      }

      .cls-16, .cls-17, .cls-18, .cls-3, .cls-19, .cls-20 {
        isolation: isolate;
      }

      .cls-21 {
        fill: #fcf7fd;
      }

      .cls-22 {
        fill: #ada390;
      }

      .cls-23 {
        fill: #686868;
      }

      .cls-24 {
        fill: #e3ad51;
      }

      .cls-17, .cls-25 {
        fill: #1a1a1a;
      }

      .cls-17, .cls-18, .cls-3, .cls-19, .cls-20 {
        opacity: 1;
      }

      .cls-26 {
        fill: #ddd;
      }

      .cls-27 {
        fill: #c4b3a8;
      }

      .cls-28 {
        fill: #a3928b;
      }

      .cls-29 {
        fill: #36323e;
      }

      .cls-18 {
        fill: gray;
      }

      .cls-30 {
        fill: #eaeaea;
      }

      .cls-31 {
        fill: #1a1919;
      }

      .cls-32 {
        fill: #e3b37d;
      }

      .cls-33 {
        fill: #010103;
      }

      .cls-19 {
        fill: #ccc;
      }

      .cls-34 {
        fill: #f5b93e;
      }

      .cls-35 {
        fill: #e0dcd3;
      }

      .cls-36 {
        fill: none;
        stroke: #493930;
        stroke-miterlimit: 10;
      }

      .cls-37 {
        fill: #bcb3ad;
      }
    </style>
  </defs>
  <!-- Generator: Adobe Illustrator 28.6.0, SVG Export Plug-In . SVG Version: 1.2.0 Build 709)  -->
  <g>
    <g id="svg8">
      <g>
        <path class="cls-31" d="M590.1,32.5H7.4c-4,0-7.3,3.2-7.3,7.3v719c0,4,3.2,7.3,7.3,7.3h17.6l34.2,34.2h365.2s34.1-34.2,34.1-34.2h131.6c4,0,7.3-3.2,7.3-7.3V39.8c0-4-3.2-7.3-7.3-7.3ZM28.4,206.9c-10,0-18.1-8.1-18.1-18.1s8.1-18.1,18.1-18.1,18.1,8.1,18.1,18.1-8.1,18.1-18.1,18.1ZM88.3,788.8c-10,0-18.1-8.1-18.1-18.1s8.1-18.1,18.1-18.1,18.1,8.1,18.1,18.1-8.1,18.1-18.1,18.1ZM401.4,788.8c-10,0-18.1-8.1-18.1-18.1s8.1-18.1,18.1-18.1,18.1,8.1,18.1,18.1-8.1,18.1-18.1,18.1ZM569.7,218.3c-10,0-18.1-8.1-18.1-18.1s8.1-18.1,18.1-18.1,18.1,8.1,18.1,18.1-8.1,18.1-18.1,18.1Z"/>
        <rect class="cls-9" x="56" y="-.8" width="101.7" height="143.5"/>
        <path class="cls-9" d="M65,142.7h83.7v9.1c0,3.9-3.2,7.1-7.1,7.1h-69.4c-3.9,0-7.1-3.2-7.1-7.1v-9.1h0Z"/>
        <path class="cls-26" d="M571.6,71.2h-21.4v-4.6c0-.8-.6-1.4-1.4-1.4h-20.6c-.8,0-1.4.6-1.4,1.4v4.6h-21.4c-1,0-1.7.8-1.7,1.7v65.1c0,1,.8,1.7,1.7,1.7h66.3c1,0,1.7-.8,1.7-1.7v-65.1c0-1-.8-1.7-1.7-1.7Z"/>
        <circle class="cls-8" cx="538.4" cy="102.5" r="19.2"/>
        <g>
          <circle class="cls-26" cx="148.7" cy="251.2" r="35.2"/>
          <path class="cls-33" d="M129.8,226.6c-8.1,5.1-13.5,14.2-13.5,24.5s5.4,19.4,13.5,24.5v-49.1Z"/>
        </g>
        <g>
          <circle class="cls-26" cx="174.3" cy="350.1" r="35.2"/>
          <path class="cls-33" d="M166.9,320c-9.5,1.4-18.1,7.5-22.3,16.9s-2.9,19.9,2.4,27.9l19.9-44.9Z"/>
        </g>
        <rect class="cls-32" x="278.7" y="113" width="9.8" height="21.5"/>
        <rect class="cls-32" x="362.4" y="156.7" width="9.8" height="21.5"/>
        <rect class="cls-32" x="451.7" y="230.8" width="9.8" height="21.5" transform="translate(698.2 -215.1) rotate(90)"/>
        <rect class="cls-32" x="451.7" y="171.3" width="9.8" height="21.5" transform="translate(638.7 -274.5) rotate(90)"/>
        <rect class="cls-32" x="327.3" y="259.7" width="9.8" height="21.5"/>
        <rect class="cls-34" x="396.8" y="357.1" width="9.8" height="21.5"/>
        <rect class="cls-32" x="423.6" y="357.1" width="9.8" height="21.5"/>
        <rect class="cls-32" x="450" y="357.1" width="9.8" height="21.5"/>
        <rect class="cls-32" x="330" y="644.7" width="9.8" height="21.5" transform="translate(-320.4 990.4) rotate(-90)"/>
        <rect class="cls-34" x="387.4" y="662.9" width="9.8" height="21.5"/>
        <rect class="cls-15" x="302.7" y="156.7" width="31.5" height="14.6" rx="1.5" ry="1.5"/>
        <g>
          <path class="cls-35" d="M305.3,144.2h12.2v11.5h-12.2c-.7,0-1.2-.6-1.2-1.2v-9c0-.7.6-1.2,1.2-1.2Z" transform="translate(460.8 -160.8) rotate(90)"/>
          <path class="cls-35" d="M320.6,144.2h12.2v11.5h-12.2c-.7,0-1.2-.6-1.2-1.2v-9c0-.7.6-1.2,1.2-1.2Z" transform="translate(476.1 -176.1) rotate(90)"/>
        </g>
        <g>
          <rect class="cls-6" x="423.2" y="330" width="10.7" height="17.2"/>
          <rect class="cls-15" x="423.2" y="332.5" width="10.7" height="11.8"/>
        </g>
        <g>
          <rect class="cls-6" x="449.5" y="330" width="10.7" height="17.2"/>
          <rect class="cls-15" x="449.5" y="332.5" width="10.7" height="11.8"/>
        </g>
        <g>
          <rect class="cls-6" x="309.2" y="296.6" width="10.7" height="17.2" transform="translate(9.4 619.8) rotate(-90)"/>
          <rect class="cls-15" x="309.1" y="299.3" width="10.7" height="11.8" transform="translate(9.2 619.6) rotate(-90)"/>
        </g>
        <g>
          <rect class="cls-6" x="254.2" y="296.6" width="10.7" height="17.2" transform="translate(-45.6 564.7) rotate(-90)"/>
          <rect class="cls-15" x="254" y="299.3" width="10.7" height="11.8" transform="translate(-45.8 564.5) rotate(-90)"/>
        </g>
        <g>
          <rect class="cls-6" x="387.4" y="632.6" width="10.7" height="17.2"/>
          <rect class="cls-15" x="387.4" y="635.1" width="10.7" height="11.8"/>
        </g>
        <g>
          <rect class="cls-6" x="329.6" y="666.8" width="10.7" height="17.2" transform="translate(-340.5 1010.4) rotate(-90)"/>
          <rect class="cls-15" x="329.5" y="669.5" width="10.7" height="11.8" transform="translate(-340.6 1010.2) rotate(-90)"/>
        </g>
        <g>
          <rect class="cls-6" x="478.1" y="79.8" width="10.7" height="17.2"/>
          <rect class="cls-15" x="478.1" y="82.4" width="10.7" height="11.8"/>
        </g>
        <g>
          <rect class="cls-6" x="338.5" y="80.9" width="10.7" height="17.2"/>
          <rect class="cls-15" x="338.5" y="83.4" width="10.7" height="11.8"/>
        </g>
        <rect class="cls-28" x="442" y="194" width="12.2" height="32.8" rx="3.7" ry="3.7"/>
        <g>
          <rect class="cls-24" x="370" y="445.2" width="22.3" height="17.8" rx="2.9" ry="2.9" transform="translate(-209.4 402.5) rotate(-45)"/>
          <rect class="cls-27" x="370.9" y="445.9" width="20.5" height="16.4" rx="2.9" ry="2.9" transform="translate(-209.4 402.5) rotate(-45)"/>
        </g>
        <rect class="cls-37" x="374.9" y="421.1" width="12.2" height="11"/>
        <rect class="cls-37" x="394.5" y="421.1" width="12.2" height="11"/>
        <rect class="cls-37" x="374.9" y="474" width="12.2" height="11"/>
        <rect class="cls-37" x="394.5" y="474" width="12.2" height="11"/>
        <rect class="cls-10" x="326.4" y="697.3" width="20.8" height="11" rx="2.8" ry="2.8"/>
        <g>
          <path class="cls-2" d="M31.3,67.4v-4.5h2.1v7.1h-1.5c-2.9-2.4-4.8-2.7-8.9-2.8v-2.5c3.4.2,5.6.7,8.3,2.7Z"/>
          <path class="cls-2" d="M27.9,71.4v4h-1.7v-4h1.7Z"/>
          <path class="cls-2" d="M25,77.1v2.2h5.9v-1.9h1.5c.2,1.1.5,1.8.9,2.6v1.8h-8.4v1.9h-2v-6.6h2Z"/>
          <path class="cls-2" d="M24.5,85.2c2.3,2.7,4.2,4.4,5.6,4.4s1.5-.5,1.5-1.4-.5-1.3-1-1.8l1.3-1.3c1.1,1,1.7,1.9,1.7,3.4s-1.3,3.4-3.3,3.4-3.8-1.7-5.4-3.3c0,.5.1,1.2.1,1.7v2.1h-2.1v-7.2h1.5Z"/>
          <path class="cls-2" d="M33.4,93v2.6l-4.8,1.1c-1.1.3-2.2.5-3.3.8h0c1.1.4,2.2.6,3.3.9l4.8,1.2v2.5l-10.4-3.2v-3l10.4-3.1Z"/>
          <path class="cls-2" d="M33.4,106.5v2.5h-10.4v-2.5h10.4Z"/>
          <path class="cls-2" d="M33.4,111.4v2.6l-5,2.6c-.7.4-1.5.7-2.4,1h0c1.1,0,2.6-.3,3.8-.3h3.5v2.4h-10.4v-2.6l5-2.6c.7-.4,1.5-.7,2.4-1h0c-1.2,0-2.6.3-3.8.3h-3.5v-2.4h10.4Z"/>
          <path class="cls-2" d="M33.4,122v3.7c0,2.3-.8,4.2-3.4,4.2s-3.6-1.9-3.6-4.1v-1.2h-3.5v-2.5h10.4ZM28.4,125.6c0,1.2.6,1.8,1.6,1.8s1.4-.7,1.4-1.9v-1h-3v1.1Z"/>
          <path class="cls-2" d="M27.9,131.6h5.5v2.5h-5.8c-2,0-2.7.6-2.7,1.7s.7,1.8,2.7,1.8h5.8v2.4h-5.5c-3.5,0-5.1-1.4-5.1-4.2s1.6-4.2,5.1-4.2Z"/>
          <path class="cls-2" d="M31.3,144.3v-2.8h2.1v8.1h-2.1v-2.8h-8.3v-2.5h8.3Z"/>
        </g>
        <g>
          <path class="cls-2" d="M588.8,81v3.8c0,2.2-.8,4.1-3.3,4.1s-2.5-.7-3-1.8l-4.1,2.3v-2.8l3.7-1.9v-1.2h-3.7v-2.5h10.4ZM584,84.6c0,1.2.5,1.8,1.5,1.8s1.3-.6,1.3-1.8v-1.1h-2.8v1.1Z"/>
          <path class="cls-2" d="M588.8,90.9v6.6h-2.1v-4.1h-2v3.5h-2.1v-3.5h-2.2v4.3h-2.1v-6.8h10.4Z"/>
          <path class="cls-2" d="M579.7,99l1.6,1.3c-.6.7-1,1.7-1,2.6s.4,1.4.9,1.4.8-.6,1.2-1.5l.6-1.3c.4-1.1,1.3-2.1,2.8-2.1s3.2,1.6,3.2,3.8-.5,2.5-1.3,3.4l-1.6-1.3c.5-.7.8-1.4.8-2.1s-.3-1.3-.8-1.3-.8.7-1.2,1.6l-.5,1.3c-.5,1.3-1.4,2.1-2.8,2.1s-3.3-1.5-3.3-4,.5-2.8,1.5-3.9Z"/>
          <path class="cls-2" d="M588.8,108.6v6.6h-2.1v-4.1h-2v3.5h-2.1v-3.5h-2.2v4.3h-2.1v-6.8h10.4Z"/>
          <path class="cls-2" d="M586.7,119.4v-2.8h2.1v8.1h-2.1v-2.8h-8.3v-2.5h8.3Z"/>
        </g>
        <g>
          <path class="cls-2" d="M371.8,741.7v2.5h-10.4v-2.5h10.4Z"/>
          <path class="cls-2" d="M366.5,746.1c3.5,0,5.5,2.3,5.5,5s-.6,2.4-1.4,3.2l-1.5-1.3c.5-.5.7-1.1.7-1.8,0-1.4-1.2-2.5-3.2-2.5s-3.3,1-3.3,2.4.3,1.5.9,2l-1.5,1.3c-1-.9-1.5-2.1-1.5-3.4,0-2.7,1.8-4.9,5.3-4.9Z"/>
          <path class="cls-2" d="M362.7,754.8l1.6,1.3c-.6.7-1,1.7-1,2.6s.4,1.4.9,1.4.8-.6,1.2-1.5l.6-1.3c.4-1.1,1.3-2.1,2.8-2.1s3.2,1.6,3.2,3.8-.5,2.5-1.3,3.4l-1.6-1.3c.5-.7.8-1.4.8-2.1s-.3-1.3-.8-1.3-.8.7-1.2,1.6l-.5,1.3c-.5,1.3-1.4,2.1-2.8,2.1s-3.3-1.5-3.3-4,.5-2.8,1.5-3.9Z"/>
          <path class="cls-2" d="M371.8,764.4v3.7c0,2.3-.8,4.2-3.4,4.2s-3.6-1.9-3.6-4.1v-1.2h-3.5v-2.5h10.4ZM366.8,768c0,1.2.6,1.8,1.6,1.8s1.4-.7,1.4-1.9v-1h-3v1.1Z"/>
        </g>
        <path class="cls-2" d="M388.8,693.6c-1.2,1-2,2.5-2,4.2,0,3,2.5,5.5,5.5,5.5s5.5-2.5,5.5-5.5-.8-3.2-2-4.2c-.4-.4-.5-1-.1-1.4s1-.5,1.4-.1c1.6,1.4,2.7,3.5,2.7,5.8,0,4.1-3.4,7.5-7.5,7.5s-7.5-3.4-7.5-7.5,1.1-4.4,2.7-5.8c.4-.4,1.1-.3,1.4.1.4.4.3,1.1-.1,1.4h0ZM393.3,697.8c0,.6-.4,1-1,1s-1-.4-1-1v-7c0-.6.4-1,1-1s1,.4,1,1v7Z"/>
        <polyline class="cls-36" points="36.1 225 42.8 225 105.4 287.6 116.2 287.6"/>
        <polyline class="cls-36" points="35.9 233.1 42.8 233.1 103 293.3 103 425 159.7 481.7 212.5 481.7 224.7 469.3 263.7 469.3"/>
        <polyline class="cls-36" points="33.5 260.6 44.8 260.6 87 302.7 87 425.7 156.8 495.6 268.5 495.6"/>
        <polyline class="cls-36" points="23 346.1 62 385.1 62 449 33.3 477.7"/>
        <line class="cls-4" x1="76.2" y1="427.8" x2="152" y2="503.7"/>
        <polyline class="cls-36" points="131.5 495.2 88.7 537.9 24.6 537.9"/>
        <polyline class="cls-36" points="131.5 505.8 91.4 545.8 26.1 545.8"/>
        <polyline class="cls-36" points="267.5 504.3 234.9 504.3 159.3 579.9 78.8 579.9 56.1 602.6 31.3 602.6"/>
        <polyline class="cls-36" points="249.6 513.3 249.6 559.7 179.8 629.5 30.6 629.5"/>
        <polyline class="cls-36" points="264.9 533.3 264.9 569.6 176.4 658.1 31.3 658.1"/>
        <polyline class="cls-36" points="273.7 533.1 273.7 572.3 158.9 687.1 24.6 687.1"/>
        <polyline class="cls-36" points="282.7 534 282.7 579.6 147.5 714.7 30.6 714.7"/>
        <polyline class="cls-36" points="291.2 538 291.2 587.4 134.8 743.8 30.6 743.8"/>
        <line class="cls-4" x1="328.9" y1="622.9" x2="292.3" y2="586.3"/>
        <polyline class="cls-36" points="331.3 639.2 306.1 614 280.2 614"/>
        <polyline class="cls-36" points="344.5 647 344.5 588.3 299.9 543.6 299.9 524.2"/>
        <polyline class="cls-36" points="278.6 761.8 262.2 745.5 262.2 680.8 287.5 655.5"/>
        <polyline class="cls-36" points="308.3 532.6 308.3 543.4 361.9 597 401.6 597 507 702.3 507 731.4 518.7 743.2 563.8 743.2"/>
        <polyline class="cls-36" points="317.2 533.7 317.2 544.5 359.5 586.8 421.6 586.8 568.8 734.1"/>
        <polyline class="cls-36" points="327.3 533.2 368.1 574 433.6 574 574.1 714.4"/>
        <polyline class="cls-36" points="345.9 512.6 400.3 512.6 571.4 683.6"/>
        <polyline class="cls-36" points="347.2 504.3 407.4 504.3 573.6 670.5"/>
        <polyline class="cls-36" points="496.1 524.1 489.2 517.1 443.2 517.1"/>
        <polyline class="cls-36" points="347.2 460.7 358.3 460.7 367.2 469.5 377.9 469.5"/>
        <polyline class="cls-36" points="347 451.7 357 451.7 367.5 441.2 380.7 441.2"/>
        <polyline class="cls-36" points="325.5 428.2 342 411.8 411.9 411.8 566.9 566.8"/>
        <polyline class="cls-36" points="317.1 430 317.1 425.4 336.6 405.9 414.8 405.9 575.2 566.3"/>
        <polyline class="cls-36" points="308.4 429.9 308.4 421.5 328.6 401.3 418.6 401.3 575 557.7"/>
        <polyline class="cls-36" points="299.8 428.4 299.8 420.2 323.6 396.4 419 396.4 576.5 553.9"/>
        <polyline class="cls-36" points="291.2 427.9 291.2 415.9 316.1 391 420.2 391 580.6 551.4"/>
        <polyline class="cls-36" points="282.3 429.5 282.3 407.8 303.5 387.7 425.2 387.7 480.3 442.8 580.6 442.8"/>
        <polyline class="cls-36" points="273.7 427.7 273.7 404.4 297.4 382.5 426.9 382.5 458.2 413.8 579.2 413.8"/>
        <polyline class="cls-36" points="264.9 427.2 264.9 403.2 286.9 381.2 290.3 377.8"/>
        <polyline class="cls-36" points="221.3 445.3 221.3 416.2 289.7 347.9 315.5 347.9 322.5 354.9 372.3 354.9 399.7 327.5 426.9 327.5"/>
        <polyline class="cls-36" points="210.4 342.4 314.4 342.4 335.2 321.6 354.5 321.6"/>
        <polyline class="cls-36" points="286.8 271.8 286.8 282.6 277.8 291.6 260.4 291.6 247.7 278.9 247.7 269.7 247.7 244.6"/>
        <polyline class="cls-36" points="227 213.9 227 205.6 232.5 200.1 249.4 200.1"/>
        <polyline class="cls-36" points="191.3 191.6 237.5 191.6 258.1 171 258.1 149.2"/>
        <polyline class="cls-36" points="319.3 178.1 333.2 178.1 341.8 169.4 341.8 136.9 313.8 108.9 298.1 108.9 276.1 86.9"/>
        <polyline class="cls-36" points="286 83.4 299.8 97.2 311.4 97.2"/>
        <polyline class="cls-36" points="323.4 80.9 323.4 101.1 344.5 122.3 380 122.3 384.7 117.6 384.7 88.4"/>
        <path class="cls-36" d="M402.7,198.4v-48.4"/>
        <path class="cls-36" d="M418.2,150v22"/>
        <polyline class="cls-36" points="415.8 205.7 428.2 205.7 440.1 193.7"/>
        <polyline class="cls-36" points="415.6 219.4 428.5 219.4 440.7 231.5"/>
        <line class="cls-36" x1="416.2" y1="260.6" x2="439.7" y2="260.6"/>
        <line class="cls-36" x1="413.9" y1="274.6" x2="442" y2="274.6"/>
        <polyline class="cls-36" points="415.6 288 426.9 288 442 288"/>
        <line class="cls-36" x1="563" y1="150.9" x2="530.5" y2="183.4"/>
        <g>
          <rect class="cls-15" x="257.4" y="444.4" width="76" height="76" rx="5.9" ry="5.9"/>
          <circle class="cls-1" cx="322.4" cy="508.5" r="4.8"/>
          <g>
            <path class="cls-35" d="M240.5,449h16.9v5.9h-16.9c-.7,0-1.2-.6-1.2-1.2v-3.4c0-.7.6-1.2,1.2-1.2Z"/>
            <path class="cls-35" d="M240.5,457.7h16.9v5.9h-16.9c-.7,0-1.2-.6-1.2-1.2v-3.4c0-.7.6-1.2,1.2-1.2Z"/>
            <path class="cls-35" d="M240.5,466.4h16.9v5.9h-16.9c-.7,0-1.2-.6-1.2-1.2v-3.4c0-.7.6-1.2,1.2-1.2Z"/>
            <path class="cls-35" d="M240.5,475.1h16.9v5.9h-16.9c-.7,0-1.2-.6-1.2-1.2v-3.4c0-.7.6-1.2,1.2-1.2Z"/>
            <path class="cls-35" d="M240.5,483.8h16.9v5.9h-16.9c-.7,0-1.2-.6-1.2-1.2v-3.4c0-.7.6-1.2,1.2-1.2Z"/>
            <path class="cls-35" d="M240.5,492.5h16.9v5.9h-16.9c-.7,0-1.2-.6-1.2-1.2v-3.4c0-.7.6-1.2,1.2-1.2Z"/>
            <path class="cls-35" d="M240.5,501.2h16.9v5.9h-16.9c-.7,0-1.2-.6-1.2-1.2v-3.4c0-.7.6-1.2,1.2-1.2Z"/>
            <path class="cls-35" d="M240.5,509.9h16.9v5.9h-16.9c-.7,0-1.2-.6-1.2-1.2v-3.4c0-.7.6-1.2,1.2-1.2Z"/>
          </g>
          <g>
            <path class="cls-35" d="M317.9,432.4h16.9v5.9h-16.9c-.7,0-1.2-.6-1.2-1.2v-3.4c0-.7.6-1.2,1.2-1.2Z" transform="translate(761.1 109.6) rotate(90)"/>
            <path class="cls-35" d="M309.2,432.4h16.9v5.9h-16.9c-.7,0-1.2-.6-1.2-1.2v-3.4c0-.7.6-1.2,1.2-1.2Z" transform="translate(752.4 118.3) rotate(90)"/>
            <path class="cls-35" d="M300.6,432.4h16.9v5.9h-16.9c-.7,0-1.2-.6-1.2-1.2v-3.4c0-.7.6-1.2,1.2-1.2Z" transform="translate(743.7 127) rotate(90)"/>
            <path class="cls-35" d="M291.9,432.4h16.9v5.9h-16.9c-.7,0-1.2-.6-1.2-1.2v-3.4c0-.7.6-1.2,1.2-1.2Z" transform="translate(735 135.7) rotate(90)"/>
            <path class="cls-35" d="M283.2,432.4h16.9v5.9h-16.9c-.7,0-1.2-.6-1.2-1.2v-3.4c0-.7.6-1.2,1.2-1.2Z" transform="translate(726.3 144.4) rotate(90)"/>
            <path class="cls-35" d="M274.5,432.4h16.9v5.9h-16.9c-.7,0-1.2-.6-1.2-1.2v-3.4c0-.7.6-1.2,1.2-1.2Z" transform="translate(717.6 153) rotate(90)"/>
            <path class="cls-35" d="M265.8,432.4h16.9v5.9h-16.9c-.7,0-1.2-.6-1.2-1.2v-3.4c0-.7.6-1.2,1.2-1.2Z" transform="translate(708.9 161.7) rotate(90)"/>
            <path class="cls-35" d="M257.1,432.4h16.9v5.9h-16.9c-.7,0-1.2-.6-1.2-1.2v-3.4c0-.7.6-1.2,1.2-1.2Z" transform="translate(700.3 170.4) rotate(90)"/>
          </g>
          <g>
            <path class="cls-35" d="M257.1,526.5h16.9v5.9h-16.9c-.7,0-1.2-.6-1.2-1.2v-3.4c0-.7.6-1.2,1.2-1.2Z" transform="translate(-264.5 794.4) rotate(-90)"/>
            <path class="cls-35" d="M265.8,526.5h16.9v5.9h-16.9c-.7,0-1.2-.6-1.2-1.2v-3.4c0-.7.6-1.2,1.2-1.2Z" transform="translate(-255.8 803) rotate(-90)"/>
            <path class="cls-35" d="M274.5,526.5h16.9v5.9h-16.9c-.7,0-1.2-.6-1.2-1.2v-3.4c0-.7.6-1.2,1.2-1.2Z" transform="translate(-247.1 811.7) rotate(-90)"/>
            <path class="cls-35" d="M283.2,526.5h16.9v5.9h-16.9c-.7,0-1.2-.6-1.2-1.2v-3.4c0-.7.6-1.2,1.2-1.2Z" transform="translate(-238.5 820.4) rotate(-90)"/>
            <path class="cls-35" d="M291.9,526.5h16.9v5.9h-16.9c-.7,0-1.2-.6-1.2-1.2v-3.4c0-.7.6-1.2,1.2-1.2Z" transform="translate(-229.8 829.1) rotate(-90)"/>
            <path class="cls-35" d="M300.6,526.5h16.9v5.9h-16.9c-.7,0-1.2-.6-1.2-1.2v-3.4c0-.7.6-1.2,1.2-1.2Z" transform="translate(-221.1 837.8) rotate(-90)"/>
            <path class="cls-35" d="M309.2,526.5h16.9v5.9h-16.9c-.7,0-1.2-.6-1.2-1.2v-3.4c0-.7.6-1.2,1.2-1.2Z" transform="translate(-212.4 846.5) rotate(-90)"/>
            <path class="cls-35" d="M317.9,526.5h16.9v5.9h-16.9c-.7,0-1.2-.6-1.2-1.2v-3.4c0-.7.6-1.2,1.2-1.2Z" transform="translate(-203.7 855.2) rotate(-90)"/>
          </g>
          <g>
            <path class="cls-35" d="M334.6,509.6h16.9v5.9h-16.9c-.7,0-1.2-.6-1.2-1.2v-3.4c0-.7.6-1.2,1.2-1.2Z" transform="translate(684.8 1025.1) rotate(180)"/>
            <path class="cls-35" d="M334.6,500.9h16.9v5.9h-16.9c-.7,0-1.2-.6-1.2-1.2v-3.4c0-.7.6-1.2,1.2-1.2Z" transform="translate(684.8 1007.7) rotate(180)"/>
            <path class="cls-35" d="M334.6,492.2h16.9v5.9h-16.9c-.7,0-1.2-.6-1.2-1.2v-3.4c0-.7.6-1.2,1.2-1.2Z" transform="translate(684.8 990.3) rotate(180)"/>
            <path class="cls-35" d="M334.6,483.5h16.9v5.9h-16.9c-.7,0-1.2-.6-1.2-1.2v-3.4c0-.7.6-1.2,1.2-1.2Z" transform="translate(684.8 972.9) rotate(180)"/>
            <path class="cls-35" d="M334.6,474.8h16.9v5.9h-16.9c-.7,0-1.2-.6-1.2-1.2v-3.4c0-.7.6-1.2,1.2-1.2Z" transform="translate(684.8 955.5) rotate(180)"/>
            <path class="cls-35" d="M334.6,466.1h16.9v5.9h-16.9c-.7,0-1.2-.6-1.2-1.2v-3.4c0-.7.6-1.2,1.2-1.2Z" transform="translate(684.8 938.1) rotate(180)"/>
            <path class="cls-35" d="M334.6,457.4h16.9v5.9h-16.9c-.7,0-1.2-.6-1.2-1.2v-3.4c0-.7.6-1.2,1.2-1.2Z" transform="translate(684.8 920.8) rotate(180)"/>
            <path class="cls-35" d="M334.6,448.7h16.9v5.9h-16.9c-.7,0-1.2-.6-1.2-1.2v-3.4c0-.7.6-1.2,1.2-1.2Z" transform="translate(684.8 903.4) rotate(180)"/>
          </g>
        </g>
        <path class="cls-2" d="M247.1,607.6v7.2c0,1.3,0,2.5-.1,3.5,0,.8-.2,1.6-.4,2.4-.2.7-.5,1.3-.8,1.9-.5.7-1,1.4-1.6,2-.6.7-1.5,1.2-2.5,1.6-1.1.3-2.3.5-3.7.5h-6v-7.4h3.7c.5,0,.9,0,1.4-.2.3-.1.6-.3.9-.6.2-.3.4-.7.5-1.1.1-.6.2-1.2.2-1.7v-7.9h8.5ZM232.7,631h95v3.1h-95v-3.1ZM247.1,595.6v7.4h-8.5v-7.4h8.5ZM267.4,595.1c1.1,0,2.3,0,3.4.3,1,.2,2.1.5,3.1.9,1,.4,1.9.9,2.7,1.4.9.6,1.7,1.2,2.4,2,.7.7,1.4,1.6,1.9,2.4.6.9,1,1.8,1.4,2.7.4,1,.7,2,.8,3.1.2,1.1.3,2.3.3,3.4,0,1.1,0,2.2-.3,3.3-.2,1-.5,2-.8,3-.4.9-.8,1.9-1.4,2.7-.6.9-1.2,1.7-1.9,2.4-.7.7-1.5,1.4-2.4,2-.8.6-1.7,1-2.7,1.4-1,.4-2,.7-3,.9-1.1.2-2.2.3-3.3.3-1.1,0-2.3,0-3.4-.3-1-.2-2.1-.5-3.1-.8-1-.4-1.9-.8-2.7-1.4-1.7-1.1-3.2-2.6-4.4-4.4-.6-.9-1-1.8-1.4-2.7-.4-1-.7-2-.9-3-.4-2.2-.4-4.5,0-6.7.2-1,.5-2.1.9-3,.4-1,.8-1.9,1.4-2.7.6-.9,1.2-1.7,2-2.5.7-.8,1.5-1.4,2.4-2,.8-.6,1.7-1.1,2.7-1.4,1-.4,2-.7,3-.9,1.1-.2,2.2-.3,3.3-.3h0ZM267.4,602.2c-1,0-2,.2-3,.6-.9.4-1.6,1-2.2,1.8-.6.8-1.1,1.8-1.4,2.8-.3,1.1-.5,2.3-.5,3.7,0,1.3.1,2.5.5,3.8.3,1,.8,2,1.4,2.9.6.8,1.4,1.4,2.3,1.8.9.4,1.9.6,3,.6,1,0,2-.2,3-.6.9-.4,1.6-1,2.2-1.8.6-.9,1.1-1.8,1.4-2.8.3-1.1.5-2.4.5-3.8,0-1.2-.1-2.5-.5-3.7-.3-1-.8-2-1.4-2.8-.6-.8-1.4-1.4-2.3-1.8-.9-.4-1.9-.6-3-.6h0ZM286.9,595.6h8.5v7.7c0,1.6.3,2.8.9,3.6s1.6,1.2,2.8,1.2c1.3,0,2.3-.4,2.9-1.3s1-2.1,1-3.8v-7.4h8.4v5.4c0,1.3,0,2.5-.2,3.6,0,.9-.2,1.8-.5,2.7-.3.9-.6,1.7-1.1,2.5-.6,1-1.3,1.9-2,2.7-.4.5-.9.9-1.5,1.3-.6.4-1.2.7-1.9.9-.8.3-1.6.4-2.4.5-.9.1-1.9.2-2.8.2-.9,0-1.8,0-2.7-.2-.8-.1-1.5-.3-2.3-.5-.7-.2-1.3-.5-1.9-.9-.5-.3-1-.7-1.5-1.2-.8-.8-1.5-1.7-2.1-2.6-.5-.7-.9-1.5-1.2-2.4-.3-.9-.4-1.8-.5-2.7-.1-1.1-.2-2.3-.2-3.4v-6.1ZM306.2,619.2v7.4h-14.2v-7.4h14.2ZM310.2,588.9h56.8v2.9h-56.8v-2.9ZM313.8,609.2h18.3v7.3h-18.3v-7.3ZM343.8,595.6v7.4h-8.5v-7.4h8.5ZM343.8,607.6v19.1h-8.5v-19.1h8.5ZM368.3,595.6v7.4h-19.9v-7.4h19.9ZM349.8,607.6h8.4v7.7c0,.7,0,1.3.2,2,.1.5.3.9.5,1.2.2.2.6.4,1.1.6.6.1,1.2.2,1.8.2h5.5v7.4h-7.9c-.8,0-1.6,0-2.3-.2-.7,0-1.4-.3-2-.5-.6-.2-1.1-.5-1.7-.8-.5-.3-.9-.7-1.3-1.1-.4-.4-.7-.9-1-1.5-.3-.6-.5-1.2-.7-1.9-.2-.8-.3-1.5-.4-2.3,0-.9-.1-1.8-.1-2.7v-8.1Z"/>
        <rect class="cls-32" x="209" y="436.1" width="9.8" height="21.5" transform="translate(-232.9 660.8) rotate(-90)"/>
        <rect class="cls-32" x="349.5" y="319.9" width="9.8" height="21.5"/>
        <g>
          <rect class="cls-15" x="268.1" y="223.3" width="50.5" height="39.3" rx="2.5" ry="2.5"/>
          <circle class="cls-1" cx="272.4" cy="254.6" r="2.7"/>
          <g>
            <path class="cls-35" d="M268,266.2h12.2v6.1h-12.2c-.7,0-1.2-.6-1.2-1.2v-3.6c0-.7.6-1.2,1.2-1.2Z" transform="translate(4.2 542.7) rotate(-90)"/>
            <path class="cls-35" d="M281.3,266.2h12.2v6.1h-12.2c-.7,0-1.2-.6-1.2-1.2v-3.6c0-.7.6-1.2,1.2-1.2Z" transform="translate(17.5 556) rotate(-90)"/>
            <path class="cls-35" d="M294.5,266.2h12.2v6.1h-12.2c-.7,0-1.2-.6-1.2-1.2v-3.6c0-.7.6-1.2,1.2-1.2Z" transform="translate(30.8 569.3) rotate(-90)"/>
            <path class="cls-35" d="M307.8,266.2h12.2v6.1h-12.2c-.7,0-1.2-.6-1.2-1.2v-3.6c0-.7.6-1.2,1.2-1.2Z" transform="translate(44 582.6) rotate(-90)"/>
          </g>
          <g>
            <path class="cls-35" d="M307.8,213.5h12.2v6.1h-12.2c-.7,0-1.2-.6-1.2-1.2v-3.6c0-.7.6-1.2,1.2-1.2Z" transform="translate(529.9 -96.8) rotate(90)"/>
            <path class="cls-35" d="M294.5,213.5h12.2v6.1h-12.2c-.7,0-1.2-.6-1.2-1.2v-3.6c0-.7.6-1.2,1.2-1.2Z" transform="translate(516.6 -83.5) rotate(90)"/>
            <path class="cls-35" d="M281.3,213.5h12.2v6.1h-12.2c-.7,0-1.2-.6-1.2-1.2v-3.6c0-.7.6-1.2,1.2-1.2Z" transform="translate(503.3 -70.2) rotate(90)"/>
            <path class="cls-35" d="M268,213.5h12.2v6.1h-12.2c-.7,0-1.2-.6-1.2-1.2v-3.6c0-.7.6-1.2,1.2-1.2Z" transform="translate(490 -56.9) rotate(90)"/>
          </g>
        </g>
        <g>
          <g>
            <path class="cls-35" d="M222.2,240.8h12.2v9.6h-12.2c-.7,0-1.2-.6-1.2-1.2v-7.1c0-.7.6-1.2,1.2-1.2Z" transform="translate(-17.9 473.3) rotate(-90)"/>
            <path class="cls-35" d="M241.8,240.8h12.2v9.6h-12.2c-.7,0-1.2-.6-1.2-1.2v-7.1c0-.7.6-1.2,1.2-1.2Z" transform="translate(1.7 493) rotate(-90)"/>
          </g>
          <g>
            <path class="cls-35" d="M221.5,212.8h12.2v6.1h-12.2c-.7,0-1.2-.6-1.2-1.2v-3.6c0-.7.6-1.2,1.2-1.2Z" transform="translate(442.8 -11.2) rotate(90)"/>
            <path class="cls-35" d="M232,212.8h12.2v6.1h-12.2c-.7,0-1.2-.6-1.2-1.2v-3.6c0-.7.6-1.2,1.2-1.2Z" transform="translate(453.3 -21.7) rotate(90)"/>
            <path class="cls-35" d="M242.5,212.8h12.2v6.1h-12.2c-.7,0-1.2-.6-1.2-1.2v-3.6c0-.7.6-1.2,1.2-1.2Z" transform="translate(463.8 -32.2) rotate(90)"/>
          </g>
          <rect class="cls-15" x="222.3" y="222.6" width="30.4" height="16.3" rx=".7" ry=".7"/>
        </g>
        <rect class="cls-32" x="233.8" y="259" width="9.8" height="21.5" transform="translate(-31 508.4) rotate(-90)"/>
        <g>
          <rect class="cls-15" x="365.6" y="200.2" width="34.4" height="107"/>
          <g>
            <path class="cls-35" d="M348.7,202.7h16.9v5.9h-16.9c-.7,0-1.2-.6-1.2-1.2v-3.4c0-.7.6-1.2,1.2-1.2Z"/>
            <path class="cls-35" d="M348.7,216.5h16.9v5.9h-16.9c-.7,0-1.2-.6-1.2-1.2v-3.4c0-.7.6-1.2,1.2-1.2Z"/>
            <path class="cls-35" d="M348.7,230.2h16.9v5.9h-16.9c-.7,0-1.2-.6-1.2-1.2v-3.4c0-.7.6-1.2,1.2-1.2Z"/>
            <path class="cls-35" d="M348.7,243.9h16.9v5.9h-16.9c-.7,0-1.2-.6-1.2-1.2v-3.4c0-.7.6-1.2,1.2-1.2Z"/>
            <path class="cls-35" d="M348.7,257.6h16.9v5.9h-16.9c-.7,0-1.2-.6-1.2-1.2v-3.4c0-.7.6-1.2,1.2-1.2Z"/>
            <path class="cls-35" d="M348.7,271.4h16.9v5.9h-16.9c-.7,0-1.2-.6-1.2-1.2v-3.4c0-.7.6-1.2,1.2-1.2Z"/>
            <path class="cls-35" d="M348.7,285.1h16.9v5.9h-16.9c-.7,0-1.2-.6-1.2-1.2v-3.4c0-.7.6-1.2,1.2-1.2Z"/>
            <path class="cls-35" d="M348.7,298.8h16.9v5.9h-16.9c-.7,0-1.2-.6-1.2-1.2v-3.4c0-.7.6-1.2,1.2-1.2Z"/>
          </g>
          <g>
            <path class="cls-35" d="M401.2,298.8h16.9v5.9h-16.9c-.7,0-1.2-.6-1.2-1.2v-3.4c0-.7.6-1.2,1.2-1.2Z" transform="translate(818.1 603.5) rotate(180)"/>
            <path class="cls-35" d="M401.2,285.1h16.9v5.9h-16.9c-.7,0-1.2-.6-1.2-1.2v-3.4c0-.7.6-1.2,1.2-1.2Z" transform="translate(818.1 576) rotate(180)"/>
            <path class="cls-35" d="M401.2,271.4h16.9v5.9h-16.9c-.7,0-1.2-.6-1.2-1.2v-3.4c0-.7.6-1.2,1.2-1.2Z" transform="translate(818.1 548.6) rotate(180)"/>
            <path class="cls-35" d="M401.2,257.6h16.9v5.9h-16.9c-.7,0-1.2-.6-1.2-1.2v-3.4c0-.7.6-1.2,1.2-1.2Z" transform="translate(818.1 521.1) rotate(180)"/>
            <path class="cls-35" d="M401.2,243.9h16.9v5.9h-16.9c-.7,0-1.2-.6-1.2-1.2v-3.4c0-.7.6-1.2,1.2-1.2Z" transform="translate(818.1 493.7) rotate(180)"/>
            <path class="cls-35" d="M401.2,230.2h16.9v5.9h-16.9c-.7,0-1.2-.6-1.2-1.2v-3.4c0-.7.6-1.2,1.2-1.2Z" transform="translate(818.1 466.2) rotate(180)"/>
            <path class="cls-35" d="M401.2,216.5h16.9v5.9h-16.9c-.7,0-1.2-.6-1.2-1.2v-3.4c0-.7.6-1.2,1.2-1.2Z" transform="translate(818.1 438.8) rotate(180)"/>
            <path class="cls-35" d="M401.2,202.7h16.9v5.9h-16.9c-.7,0-1.2-.6-1.2-1.2v-3.4c0-.7.6-1.2,1.2-1.2Z" transform="translate(818.1 411.3) rotate(180)"/>
          </g>
          <circle class="cls-1" cx="391.9" cy="297.3" r="4.9"/>
        </g>
        <rect class="cls-32" x="444.6" y="246.9" width="9.8" height="21.5" transform="translate(707.2 -191.9) rotate(90)"/>
        <g>
          <rect class="cls-6" x="444.2" y="266.2" width="10.7" height="17.2" transform="translate(724.3 -174.7) rotate(90)"/>
          <rect class="cls-15" x="444.3" y="268.9" width="10.7" height="11.8" transform="translate(724.5 -174.9) rotate(90)"/>
        </g>
        <g>
          <rect class="cls-6" x="444.2" y="283.8" width="10.7" height="17.2" transform="translate(741.9 -157.1) rotate(90)"/>
          <rect class="cls-15" x="444.3" y="286.5" width="10.7" height="11.8" transform="translate(742.1 -157.3) rotate(90)"/>
        </g>
        <g>
          <rect class="cls-6" x="397.3" y="135" width="10.7" height="17.2"/>
          <rect class="cls-15" x="397.3" y="137.5" width="10.7" height="11.8"/>
        </g>
        <g>
          <rect class="cls-6" x="412.9" y="134.8" width="10.7" height="17.2"/>
          <rect class="cls-15" x="412.9" y="137.4" width="10.7" height="11.8"/>
        </g>
        <path class="cls-35" d="M312.1,172.3h12.2v11.5h-12.2c-.7,0-1.2-.6-1.2-1.2v-9c0-.7.6-1.2,1.2-1.2Z" transform="translate(139.6 495.7) rotate(-90)"/>
        <g>
          <rect class="cls-5" x="274.8" y="53.1" width="51.5" height="35.1"/>
          <rect class="cls-12" x="287.2" y="53.1" width="26.7" height="35.1"/>
        </g>
        <g>
          <path class="cls-26" d="M370.1,18.9h0s87.6,0,87.6,0h0c2.7,1.4,4.4,4.2,4.4,7.3v70.1c0,1-.8,1.8-1.8,1.8h-92.8c-1,0-1.8-.8-1.8-1.8V26.2c0-3,1.7-5.8,4.4-7.3Z"/>
          <g>
            <path class="cls-23" d="M444.9,92.3h0c0-1.3-1.1-2.4-2.4-2.4h-9.9c-.8,0-1.5-.7-1.5-1.5v-2.1c0-.8.7-1.5,1.5-1.5h9.9c1.3,0,2.4-1.1,2.4-2.4h0c0-1.3-1.1-2.4-2.4-2.4h-14c-1.3,0-2.4,1.1-2.4,2.4v10c0,1.3,1.1,2.4,2.4,2.4h14c1.3,0,2.4-1.1,2.4-2.4Z"/>
            <path class="cls-23" d="M383,82.3h0c0,1.3,1.1,2.4,2.4,2.4h9.9c.8,0,1.5.7,1.5,1.5v2.1c0,.8-.7,1.5-1.5,1.5h-9.9c-1.3,0-2.4,1.1-2.4,2.4h0c0,1.3,1.1,2.4,2.4,2.4h14c1.3,0,2.4-1.1,2.4-2.4v-10c0-1.3-1.1-2.4-2.4-2.4h-14c-1.3,0-2.4,1.1-2.4,2.4Z"/>
          </g>
        </g>
        <g>
          <rect class="cls-15" x="198.2" y="99.9" width="69.5" height="37" rx="1.2" ry="1.2"/>
          <g>
            <path class="cls-35" d="M199.8,143h16.9v5.9h-16.9c-.7,0-1.2-.6-1.2-1.2v-3.4c0-.7.6-1.2,1.2-1.2Z" transform="translate(61.7 353.5) rotate(-90)"/>
            <path class="cls-35" d="M225.2,143h16.9v5.9h-16.9c-.7,0-1.2-.6-1.2-1.2v-3.4c0-.7.6-1.2,1.2-1.2Z" transform="translate(87 378.9) rotate(-90)"/>
            <path class="cls-35" d="M250.5,143h16.9v5.9h-16.9c-.7,0-1.2-.6-1.2-1.2v-3.4c0-.7.6-1.2,1.2-1.2Z" transform="translate(112.4 404.3) rotate(-90)"/>
          </g>
          <path class="cls-35" d="M219.2,69.4h25.6v34.3h-25.6c-.7,0-1.2-.6-1.2-1.2v-31.8c0-.7.6-1.2,1.2-1.2Z" transform="translate(317.9 -144.9) rotate(90)"/>
        </g>
        <rect class="cls-15" x="150.5" y="178.1" width="48.4" height="27.1"/>
        <g>
          <rect class="cls-26" x="16.1" y="221.2" width="20" height="20"/>
          <circle class="cls-22" cx="26.1" cy="231.2" r="7.4"/>
          <rect class="cls-26" x="16.1" y="249.9" width="20" height="20"/>
          <circle class="cls-22" cx="26.1" cy="259.9" r="7.4"/>
          <rect class="cls-26" x="16.1" y="278.5" width="20" height="20"/>
          <circle class="cls-22" cx="26.1" cy="288.6" r="7.4"/>
          <rect class="cls-26" x="16.1" y="307.2" width="20" height="20"/>
          <circle class="cls-22" cx="26.1" cy="317.2" r="7.4"/>
        </g>
        <g>
          <rect class="cls-11" x="9.4" y="333.6" width="33.4" height="240.9"/>
          <rect x="16.3" y="336.3" width="19.6" height="19.6"/>
          <rect x="16.3" y="366.8" width="19.6" height="19.6"/>
          <rect x="16.3" y="397.3" width="19.6" height="19.6"/>
          <rect x="16.3" y="427.8" width="19.6" height="19.6"/>
          <rect x="16.3" y="458.3" width="19.6" height="19.6"/>
          <rect x="16.3" y="488.9" width="19.6" height="19.6"/>
          <rect x="16.3" y="519.4" width="19.6" height="19.6"/>
          <rect x="16.3" y="549.9" width="19.6" height="19.6"/>
        </g>
        <g>
          <rect class="cls-11" x="9.4" y="580.2" width="33.4" height="178.8"/>
          <g>
            <rect x="16.3" y="583.5" width="19.6" height="19.6"/>
            <rect x="16.3" y="614" width="19.6" height="19.6"/>
            <rect x="16.3" y="644.5" width="19.6" height="19.6"/>
            <rect x="16.3" y="675" width="19.6" height="19.6"/>
            <rect x="16.3" y="705.5" width="19.6" height="19.6"/>
            <rect x="16.3" y="736" width="19.6" height="19.6"/>
          </g>
        </g>
        <g>
          <path class="cls-2" d="M50.4,371.8h2.5v10.4h-2.5v-10.4Z"/>
          <path class="cls-2" d="M54.9,377c0-3.4,1.9-5.4,4.8-5.4s4.8,2,4.8,5.4-1.9,5.4-4.8,5.4-4.8-2-4.8-5.4ZM61.8,377c0-2-.8-3.2-2.2-3.2s-2.2,1.2-2.2,3.2.9,3.3,2.2,3.3,2.2-1.3,2.2-3.3Z"/>
          <path class="cls-2" d="M66.3,371.8h3.8c2.2,0,4.1.8,4.1,3.3s-.7,2.5-1.8,3l2.3,4.1h-2.8l-1.9-3.7h-1.2v3.7h-2.5v-10.4ZM70,376.6c1.2,0,1.8-.5,1.8-1.5s-.6-1.3-1.8-1.3h-1.1v2.8h1.1Z"/>
          <path class="cls-2" d="M76.2,371.8h6.6v2.1h-4.1v2h3.5v2.1h-3.5v2.2h4.3v2.1h-6.8v-10.4Z"/>
          <path class="cls-2" d="M85,371.8h6.7v2.1h-4.2v2.3h3.6v2.1h-3.6v4h-2.5v-10.4Z"/>
        </g>
        <g>
          <path class="cls-2" d="M51.7,402.3h3.8c2.2,0,4.1.8,4.1,3.3s-.7,2.5-1.8,3l2.3,4.1h-2.8l-1.9-3.7h-1.2v3.7h-2.5v-10.4ZM55.3,407.1c1.2,0,1.8-.5,1.8-1.5s-.6-1.3-1.8-1.3h-1.1v2.8h1.1Z"/>
          <path class="cls-2" d="M61.6,402.3h6.6v2.1h-4.1v2h3.5v2.1h-3.5v2.2h4.3v2.1h-6.8v-10.4Z"/>
          <path class="cls-2" d="M69.7,411.4l1.3-1.6c.7.6,1.7,1,2.6,1s1.4-.4,1.4-.9-.6-.8-1.5-1.2l-1.3-.6c-1.1-.4-2.1-1.3-2.1-2.8s1.6-3.2,3.8-3.2,2.5.5,3.4,1.3l-1.3,1.6c-.7-.5-1.4-.8-2.1-.8s-1.3.3-1.3.8.7.8,1.6,1.2l1.3.5c1.3.5,2.1,1.4,2.1,2.8s-1.5,3.3-4,3.3-2.8-.5-3.9-1.5Z"/>
          <path class="cls-2" d="M79.3,402.3h6.6v2.1h-4.1v2h3.5v2.1h-3.5v2.2h4.3v2.1h-6.8v-10.4Z"/>
          <path class="cls-2" d="M90.1,404.4h-2.8v-2.1h8.1v2.1h-2.8v8.3h-2.5v-8.3Z"/>
        </g>
        <g>
          <path class="cls-2" d="M52,442l1.1-1.6c.6.6,1.4,1,2.2,1s1.6-.4,1.6-1.2-.5-1.4-2.7-1.4v-1.8c1.8,0,2.3-.5,2.3-1.4s-.4-1.1-1.2-1.1-1.2.3-1.9.9l-1.2-1.5c.9-.8,2-1.3,3.2-1.3,2.2,0,3.6,1,3.6,2.9s-.6,1.8-1.7,2.3h0c1.2.4,2,1.2,2,2.6,0,2-1.8,3-3.8,3s-2.8-.6-3.6-1.4Z"/>
          <path class="cls-2" d="M61.2,441.9c0-.9.6-1.5,1.5-1.5s1.5.7,1.5,1.5-.6,1.5-1.5,1.5-1.5-.7-1.5-1.5Z"/>
          <path class="cls-2" d="M65.5,442l1.1-1.6c.6.6,1.4,1,2.2,1s1.6-.4,1.6-1.2-.5-1.4-2.7-1.4v-1.8c1.8,0,2.3-.5,2.3-1.4s-.4-1.1-1.2-1.1-1.2.3-1.9.9l-1.2-1.5c.9-.8,2-1.3,3.2-1.3,2.2,0,3.6,1,3.6,2.9s-.6,1.8-1.7,2.3h0c1.2.4,2,1.2,2,2.6,0,2-1.8,3-3.8,3s-2.8-.6-3.6-1.4Z"/>
          <path class="cls-2" d="M73.5,432.8h2.6l1.1,4.8c.3,1.1.5,2.2.8,3.3h0c.3-1.1.5-2.2.8-3.3l1.2-4.8h2.5l-3.2,10.4h-3l-3.1-10.4Z"/>
        </g>
        <g>
          <path class="cls-2" d="M53.3,472.5l1.1-1.6c.6.6,1.3,1,2.1,1s1.6-.6,1.6-1.6-.6-1.6-1.5-1.6-.9.1-1.5.5l-1.1-.7.3-5.2h5.8v2.1h-3.7v1.8c.2-.1.5-.2.9-.2,1.8,0,3.2,1,3.2,3.3s-1.8,3.7-3.8,3.7-2.8-.6-3.6-1.4Z"/>
          <path class="cls-2" d="M61.3,463.3h2.6l1.1,4.8c.3,1.1.5,2.2.8,3.3h0c.3-1.1.5-2.2.8-3.3l1.2-4.8h2.5l-3.2,10.4h-3l-3.1-10.4Z"/>
        </g>
        <g>
          <path class="cls-2" d="M54.9,499.1c0-3.5,2.3-5.5,5.1-5.5s2.6.6,3.3,1.4l-1.3,1.5c-.5-.5-1.1-.7-1.9-.7-1.5,0-2.7,1.2-2.7,3.2s.9,3.3,2.9,3.3.8,0,1-.3v-1.7h-1.7v-2h3.9v4.9c-.7.7-2,1.3-3.5,1.3-2.9,0-5.2-1.8-5.2-5.3Z"/>
          <path class="cls-2" d="M65.6,493.9h2.6l2.6,5c.4.7.7,1.5,1,2.4h0c-.1-1.1-.3-2.6-.3-3.8v-3.5h2.4v10.4h-2.6l-2.6-5c-.4-.7-.7-1.5-1-2.4h0c.1,1.2.3,2.6.3,3.8v3.5h-2.4v-10.4Z"/>
          <path class="cls-2" d="M76.3,493.9h3c3.2,0,5.3,1.6,5.3,5.2s-2.1,5.2-5.1,5.2h-3.1v-10.4ZM79.1,502.3c1.7,0,2.9-.8,2.9-3.2s-1.2-3.2-2.9-3.2h-.4v6.4h.4Z"/>
        </g>
        <g>
          <path class="cls-2" d="M56.1,529.6c0-3.5,2.3-5.5,5.1-5.5s2.6.6,3.3,1.4l-1.3,1.5c-.5-.5-1.1-.7-1.9-.7-1.5,0-2.7,1.2-2.7,3.2s.9,3.3,2.9,3.3.8,0,1-.3v-1.7h-1.7v-2h3.9v4.9c-.7.7-2,1.3-3.5,1.3-2.9,0-5.2-1.8-5.2-5.3Z"/>
          <path class="cls-2" d="M66.8,524.4h2.6l2.6,5c.4.7.7,1.5,1,2.4h0c-.1-1.1-.3-2.6-.3-3.8v-3.5h2.4v10.4h-2.6l-2.6-5c-.4-.7-.7-1.5-1-2.4h0c.1,1.2.3,2.6.3,3.8v3.5h-2.4v-10.4Z"/>
          <path class="cls-2" d="M77.5,524.4h3c3.2,0,5.3,1.6,5.3,5.2s-2.1,5.2-5.1,5.2h-3.1v-10.4ZM80.4,532.8c1.7,0,2.9-.8,2.9-3.2s-1.2-3.2-2.9-3.2h-.4v6.4h.4Z"/>
        </g>
        <g>
          <path class="cls-2" d="M56.5,554.9h2.6l1.1,4.8c.3,1.1.5,2.2.8,3.3h0c.3-1.1.5-2.2.8-3.3l1.2-4.8h2.5l-3.2,10.4h-3l-3.1-10.4Z"/>
          <path class="cls-2" d="M66.8,554.9h2.5v10.4h-2.5v-10.4Z"/>
          <path class="cls-2" d="M71.7,554.9h2.6l2.6,5c.4.7.7,1.5,1,2.4h0c-.1-1.1-.3-2.6-.3-3.8v-3.5h2.4v10.4h-2.6l-2.6-5c-.4-.7-.7-1.5-1-2.4h0c.1,1.2.3,2.6.3,3.8v3.5h-2.4v-10.4Z"/>
        </g>
        <g>
          <path class="cls-2" d="M61,588.5h3l3.2,10.4h-2.6l-.6-2.4h-3.1l-.6,2.4h-2.5l3.2-10.4ZM61.4,594.5h2.1l-.2-.9c-.3-1-.5-2.3-.8-3.3h0c-.3,1.1-.5,2.3-.8,3.3l-.2.9Z"/>
          <path class="cls-2" d="M67.7,593.6c0-3.6,1.5-5.4,3.7-5.4s3.7,1.8,3.7,5.4-1.5,5.4-3.7,5.4-3.7-1.9-3.7-5.4ZM72.7,593.6c0-2.8-.6-3.5-1.3-3.5s-1.3.6-1.3,3.5.6,3.5,1.3,3.5,1.3-.7,1.3-3.5Z"/>
        </g>
        <g>
          <path class="cls-2" d="M62.2,619h3l3.2,10.4h-2.6l-.6-2.4h-3.1l-.6,2.4h-2.5l3.2-10.4ZM62.6,625.1h2.1l-.2-.9c-.3-1-.5-2.3-.8-3.3h0c-.3,1.1-.5,2.3-.8,3.3l-.2.9Z"/>
          <path class="cls-2" d="M69.4,627.4h2.2v-5.9h-1.9v-1.5c1.1-.2,1.8-.5,2.6-.9h1.8v8.4h1.9v2h-6.6v-2Z"/>
        </g>
        <g>
          <path class="cls-2" d="M63.4,649.5h3l3.2,10.4h-2.6l-.6-2.4h-3.1l-.6,2.4h-2.5l3.2-10.4ZM63.8,655.6h2.1l-.2-.9c-.3-1-.5-2.3-.8-3.3h0c-.3,1.1-.5,2.3-.8,3.3l-.2.9Z"/>
          <path class="cls-2" d="M70.1,658.4c2.7-2.3,4.4-4.2,4.4-5.7s-.5-1.5-1.4-1.5-1.3.5-1.8,1l-1.3-1.3c1-1.1,1.9-1.7,3.4-1.7s3.4,1.3,3.4,3.3-1.7,3.8-3.3,5.4c.5,0,1.2-.1,1.7-.1h2.1v2.1h-7.2v-1.5Z"/>
        </g>
        <g>
          <path class="cls-2" d="M64.7,680h3l3.2,10.4h-2.6l-.6-2.4h-3.1l-.6,2.4h-2.5l3.2-10.4ZM65.1,686.1h2.1l-.2-.9c-.3-1-.5-2.3-.8-3.3h0c-.3,1.1-.5,2.3-.8,3.3l-.2.9Z"/>
          <path class="cls-2" d="M71.1,689.2l1.1-1.6c.6.6,1.4,1,2.2,1s1.6-.4,1.6-1.2-.5-1.4-2.7-1.4v-1.8c1.8,0,2.3-.5,2.3-1.4s-.4-1.1-1.2-1.1-1.2.3-1.9.9l-1.2-1.5c.9-.8,2-1.3,3.2-1.3,2.2,0,3.6,1,3.6,2.9s-.6,1.8-1.7,2.3h0c1.2.4,2,1.2,2,2.6,0,2-1.8,3-3.8,3s-2.8-.6-3.6-1.4Z"/>
        </g>
        <g>
          <path class="cls-2" d="M65.9,710.5h3l3.2,10.4h-2.6l-.6-2.4h-3.1l-.6,2.4h-2.5l3.2-10.4ZM66.3,716.6h2.1l-.2-.9c-.3-1-.5-2.3-.8-3.3h0c-.3,1.1-.5,2.3-.8,3.3l-.2.9Z"/>
          <path class="cls-2" d="M76.7,718.3h-4.4v-1.7l3.6-6.1h3.1v5.9h1.2v1.9h-1.2v2.6h-2.3v-2.6ZM76.7,716.4v-1.5c0-.7,0-1.6,0-2.3h0c-.3.6-.5,1.2-.8,1.8l-1.2,2.1h2Z"/>
          <path class="cls-2" d="M83.8,709.6h1.6l-3.1,13.9h-1.6l3.1-13.9Z"/>
          <path class="cls-2" d="M86.5,719.6l1.3-1.6c.7.6,1.7,1,2.6,1s1.4-.4,1.4-.9-.6-.8-1.5-1.2l-1.3-.6c-1.1-.4-2.1-1.3-2.1-2.8s1.6-3.2,3.8-3.2,2.5.5,3.4,1.3l-1.3,1.6c-.7-.5-1.4-.8-2.1-.8s-1.3.3-1.3.8.7.8,1.6,1.2l1.3.5c1.3.5,2.1,1.4,2.1,2.8s-1.5,3.3-4,3.3-2.8-.5-3.9-1.5Z"/>
          <path class="cls-2" d="M96,710.5h3c3.2,0,5.3,1.6,5.3,5.2s-2.1,5.2-5.1,5.2h-3.1v-10.4ZM98.9,718.9c1.7,0,2.9-.8,2.9-3.2s-1.2-3.2-2.9-3.2h-.4v6.4h.4Z"/>
          <path class="cls-2" d="M108,710.5h3l3.2,10.4h-2.6l-.6-2.4h-3.1l-.6,2.4h-2.5l3.2-10.4ZM108.4,716.6h2.1l-.2-.9c-.3-1-.5-2.3-.8-3.3h0c-.3,1.1-.5,2.3-.8,3.3l-.2.9Z"/>
        </g>
        <g>
          <path class="cls-2" d="M67.1,737.9h3l3.2,10.4h-2.6l-.6-2.4h-3.1l-.6,2.4h-2.5l3.2-10.4ZM67.5,744h2.1l-.2-.9c-.3-1-.5-2.3-.8-3.3h0c-.3,1.1-.5,2.3-.8,3.3l-.2.9Z"/>
          <path class="cls-2" d="M73.6,747.1l1.1-1.6c.6.6,1.3,1,2.1,1s1.6-.6,1.6-1.6-.6-1.6-1.5-1.6-.9.1-1.5.5l-1.1-.7.3-5.2h5.8v2.1h-3.7v1.8c.2-.1.5-.2.9-.2,1.8,0,3.2,1,3.2,3.3s-1.8,3.7-3.8,3.7-2.8-.6-3.6-1.4Z"/>
          <path class="cls-2" d="M85.1,737h1.6l-3.1,13.9h-1.6l3.1-13.9Z"/>
          <path class="cls-2" d="M87.7,747l1.3-1.6c.7.6,1.7,1,2.6,1s1.4-.4,1.4-.9-.6-.8-1.5-1.2l-1.3-.6c-1.1-.4-2.1-1.3-2.1-2.8s1.6-3.2,3.8-3.2,2.5.5,3.4,1.3l-1.3,1.6c-.7-.5-1.4-.8-2.1-.8s-1.3.3-1.3.8.7.8,1.6,1.2l1.3.5c1.3.5,2.1,1.4,2.1,2.8s-1.5,3.3-4,3.3-2.8-.5-3.9-1.5Z"/>
          <path class="cls-2" d="M96.8,743.2c0-3.5,2.3-5.5,5-5.5s2.4.6,3.2,1.4l-1.3,1.5c-.5-.5-1.1-.7-1.8-.7-1.4,0-2.5,1.2-2.5,3.2s1,3.3,2.4,3.3,1.5-.3,2-.9l1.3,1.5c-.9,1-2.1,1.5-3.4,1.5-2.7,0-4.9-1.8-4.9-5.3Z"/>
          <path class="cls-2" d="M106.6,737.9h2.5v8.3h4v2.1h-6.5v-10.4Z"/>
        </g>
        <g>
          <path class="cls-2" d="M119.6,431.1v3.7c0,2.3-.8,4.2-3.4,4.2s-3.6-1.9-3.6-4.1v-1.2h-3.5v-2.5h10.4ZM114.6,434.7c0,1.2.6,1.8,1.6,1.8s1.4-.7,1.4-1.9v-1h-3v1.1Z"/>
          <path class="cls-2" d="M114.4,440.2c3.4,0,5.4,1.9,5.4,4.8s-2,4.8-5.4,4.8-5.4-1.9-5.4-4.8,2-4.8,5.4-4.8ZM114.4,447.2c2,0,3.2-.8,3.2-2.2s-1.2-2.2-3.2-2.2-3.3.9-3.3,2.2,1.3,2.2,3.3,2.2Z"/>
          <path class="cls-2" d="M119.6,450.7v2.5l-4.8.7c-1.1.1-2.2.3-3.3.4h0c1.1.3,2.2.5,3.3.7l4.8,1.1v2.1l-4.8,1.1c-1.1.2-2.2.4-3.3.6h0c1.2.2,2.3.3,3.3.4l4.8.7v2.4l-10.4-1.8v-3.2l4.6-.9c.8-.2,1.6-.3,2.5-.4h0c-.8-.2-1.6-.3-2.5-.5l-4.6-.9v-3.1l10.4-1.9Z"/>
          <path class="cls-2" d="M119.6,464.7v6.6h-2.1v-4.1h-2v3.5h-2.1v-3.5h-2.2v4.3h-2.1v-6.8h10.4Z"/>
          <path class="cls-2" d="M119.6,473.5v3.8c0,2.2-.8,4.1-3.3,4.1s-2.5-.7-3-1.8l-4.1,2.3v-2.8l3.7-1.9v-1.2h-3.7v-2.5h10.4ZM114.8,477.2c0,1.2.5,1.8,1.5,1.8s1.3-.6,1.3-1.8v-1.1h-2.8v1.1Z"/>
        </g>
        <g>
          <path class="cls-2" d="M119.6,633.4v3l-10.4,3.2v-2.6l2.4-.6v-3.1l-2.4-.6v-2.5l10.4,3.2ZM113.5,633.8v2.1l.9-.2c1-.3,2.3-.5,3.3-.8h0c-1.1-.3-2.3-.6-3.3-.9l-.9-.2Z"/>
          <path class="cls-2" d="M119.6,640.7v2.6l-5,2.6c-.7.4-1.5.7-2.4,1h0c1.1,0,2.6-.3,3.8-.3h3.5v2.4h-10.4v-2.6l5-2.6c.7-.4,1.5-.7,2.4-1h0c-1.2,0-2.6.3-3.8.3h-3.5v-2.4h10.4Z"/>
          <path class="cls-2" d="M119.6,653.3v3l-10.4,3.2v-2.6l2.4-.6v-3.1l-2.4-.6v-2.5l10.4,3.2ZM113.5,653.7v2.1l.9-.2c1-.3,2.3-.5,3.3-.8h0c-1.1-.3-2.3-.6-3.3-.9l-.9-.2Z"/>
          <path class="cls-2" d="M119.6,660.6v2.5h-8.3v4h-2.1v-6.5h10.4Z"/>
          <path class="cls-2" d="M114.4,667.9c3.4,0,5.4,1.9,5.4,4.8s-2,4.8-5.4,4.8-5.4-1.9-5.4-4.8,2-4.8,5.4-4.8ZM114.4,674.9c2,0,3.2-.8,3.2-2.2s-1.2-2.2-3.2-2.2-3.3.9-3.3,2.2,1.3,2.2,3.3,2.2Z"/>
          <path class="cls-2" d="M114.3,678.9c3.5,0,5.5,2.3,5.5,5.1s-.6,2.6-1.4,3.3l-1.5-1.3c.5-.5.7-1.1.7-1.9,0-1.5-1.2-2.7-3.2-2.7s-3.3.9-3.3,2.9,0,.8.3,1h1.7v-1.7h2v3.9h-4.9c-.7-.7-1.3-2-1.3-3.5,0-2.9,1.8-5.2,5.3-5.2Z"/>
          <path class="cls-2" d="M119.6,692.8v2.5h-10.4v-2.5h10.4Z"/>
          <path class="cls-2" d="M119.6,697.7v2.6l-5,2.6c-.7.4-1.5.7-2.4,1h0c1.1,0,2.6-.3,3.8-.3h3.5v2.4h-10.4v-2.6l5-2.6c.7-.4,1.5-.7,2.4-1h0c-1.2,0-2.6.3-3.8.3h-3.5v-2.4h10.4Z"/>
        </g>
        <rect class="cls-30" x="123.9" y="588.8" width="4.5" height="159.9" rx="2.3" ry="2.3"/>
        <rect class="cls-30" x="123.9" y="362.2" width="4.5" height="187.7" rx="2.3" ry="2.3"/>
        <g>
          <g>
            <polygon class="cls-29" points="292.4 738.8 288.8 738.8 288.7 738.8 285.1 738.8 276.6 747.2 276.6 780.3 285.1 788.7 288.7 788.7 288.8 788.7 292.4 788.7 300.9 780.3 300.9 747.2 292.4 738.8"/>
            <g>
              <rect class="cls-21" x="285.6" y="748.3" width="6.2" height="6.2"/>
              <rect class="cls-21" x="285.6" y="772.9" width="6.2" height="6.2"/>
            </g>
          </g>
          <g>
            <polygon class="cls-29" points="316.6 738.8 313 738.8 312.9 738.8 309.3 738.8 300.9 747.2 300.9 780.3 309.3 788.7 312.9 788.7 313 788.7 316.6 788.7 325.1 780.3 325.1 747.2 316.6 738.8"/>
            <g>
              <rect class="cls-21" x="309.9" y="748.3" width="6.2" height="6.2"/>
              <rect class="cls-21" x="309.9" y="772.9" width="6.2" height="6.2"/>
            </g>
          </g>
          <g>
            <polygon class="cls-29" points="340.8 738.8 337.2 738.8 337.2 738.8 333.5 738.8 325.1 747.2 325.1 780.3 333.5 788.7 337.2 788.7 337.2 788.7 340.8 788.7 349.3 780.3 349.3 747.2 340.8 738.8"/>
            <g>
              <rect class="cls-21" x="334.1" y="748.3" width="6.2" height="6.2"/>
              <rect class="cls-21" x="334.1" y="772.9" width="6.2" height="6.2"/>
            </g>
          </g>
        </g>
        <path class="cls-30" d="M270.6,727.3c-1.3,0-2.3,1-2.3,2.3v58.5c0,1.3,1,2.3,2.3,2.3h0c1.3,0,2.3-1,2.3-2.3v-53.9c0-1.3,1-2.3,2.3-2.3h75.6c1.3,0,2.3,1,2.3,2.3v53.9c0,1.3,1,2.3,2.3,2.3h0c1.3,0,2.3-1,2.3-2.3v-58.5c0-1.3-1-2.3-2.3-2.3h-84.7Z"/>
        <rect class="cls-30" x="465.2" y="352.6" width="4.5" height="394.7" rx="2.3" ry="2.3"/>
        <g>
          <path class="cls-2" d="M486.6,494.2v3c0,3.2-1.6,5.3-5.2,5.3s-5.2-2.1-5.2-5.1v-3.1h10.4ZM478.2,497.1c0,1.7.8,2.9,3.2,2.9s3.2-1.2,3.2-2.9v-.4h-6.4v.4Z"/>
          <path class="cls-2" d="M486.6,504.4v2.5h-10.4v-2.5h10.4Z"/>
          <path class="cls-2" d="M481.4,508.8c3.5,0,5.5,2.3,5.5,5.1s-.6,2.6-1.4,3.3l-1.5-1.3c.5-.5.7-1.1.7-1.9,0-1.5-1.2-2.7-3.2-2.7s-3.3.9-3.3,2.9,0,.8.3,1h1.7v-1.7h2v3.9h-4.9c-.7-.7-1.3-2-1.3-3.5,0-2.9,1.8-5.2,5.3-5.2Z"/>
          <path class="cls-2" d="M486.6,519.6v2.5h-10.4v-2.5h10.4Z"/>
          <path class="cls-2" d="M484.6,526.5v-2.8h2.1v8.1h-2.1v-2.8h-8.3v-2.5h8.3Z"/>
          <path class="cls-2" d="M486.6,534.7v3l-10.4,3.2v-2.6l2.4-.6v-3.1l-2.4-.6v-2.5l10.4,3.2ZM480.5,535.1v2.1l.9-.2c1-.3,2.3-.5,3.3-.8h0c-1.1-.3-2.3-.6-3.3-.9l-.9-.2Z"/>
          <path class="cls-2" d="M486.6,542v2.5h-8.3v4h-2.1v-6.5h10.4Z"/>
          <path class="cls-2" d="M480.7,553.5c2.8,0,5.1.8,7.3,2.1l-.6,1.6c-2.1-1.2-4.4-1.7-6.7-1.7s-4.6.5-6.7,1.7l-.6-1.6c2.2-1.3,4.5-2.1,7.3-2.1Z"/>
          <path class="cls-2" d="M486.6,559.1v3.7c0,2.3-.8,4.2-3.4,4.2s-3.6-1.9-3.6-4.1v-1.2h-3.5v-2.5h10.4ZM481.6,562.7c0,1.2.6,1.8,1.6,1.8s1.4-.7,1.4-1.9v-1h-3v1.1Z"/>
          <path class="cls-2" d="M486.6,567.7v2.5l-4.8.7c-1.1.1-2.2.3-3.3.4h0c1.1.3,2.2.5,3.3.7l4.8,1.1v2.1l-4.8,1.1c-1.1.2-2.2.4-3.3.6h0c1.2.2,2.3.3,3.3.4l4.8.7v2.4l-10.4-1.8v-3.2l4.6-.9c.8-.2,1.6-.3,2.5-.4h0c-.8-.2-1.6-.3-2.5-.5l-4.6-.9v-3.1l10.4-1.9Z"/>
          <path class="cls-2" d="M486.6,581.8v2.7l-4.5,1.6c-.6.2-1.2.4-1.9.6h0c.7.3,1.3.4,1.9.6l4.5,1.6v2.7h-10.4v-2.3h3.6c1,0,2.8.2,3.8.3h0c0,0-2.7-.9-2.7-.9l-3.8-1.4v-1.4l3.8-1.4,2.7-.8h0c-1,0-2.8.3-3.8.3h-3.6v-2.2h10.4Z"/>
          <path class="cls-2" d="M481.2,595.7c0-.4-.4-.8-.9-1.1l1-1.3c1.2.8,1.7,1.6,1.7,2.4,0,1.3-1.2,1.9-1.2,2.8s.4.8.9,1.1l-1,1.3c-1.2-.8-1.7-1.6-1.7-2.4,0-1.3,1.2-1.9,1.2-2.8Z"/>
          <path class="cls-2" d="M474,602.1c2.1,1.2,4.4,1.7,6.7,1.7s4.6-.5,6.7-1.7l.6,1.6c-2.2,1.3-4.5,2.1-7.3,2.1s-5.1-.8-7.3-2.1l.6-1.6Z"/>
        </g>
        <g>
          <rect class="cls-11" x="559.1" y="522.6" width="33.4" height="240.9"/>
          <rect x="566" y="525.3" width="19.6" height="19.6"/>
          <rect x="566" y="555.8" width="19.6" height="19.6"/>
          <rect x="566" y="586.3" width="19.6" height="19.6"/>
          <rect x="566" y="616.8" width="19.6" height="19.6"/>
          <rect x="566" y="647.4" width="19.6" height="19.6"/>
          <rect x="566" y="677.9" width="19.6" height="19.6"/>
          <rect x="566" y="708.4" width="19.6" height="19.6"/>
          <rect x="566" y="738.9" width="19.6" height="19.6"/>
        </g>
        <g>
          <rect class="cls-11" x="559.1" y="219.4" width="33.4" height="301.1"/>
          <rect x="566" y="284.1" width="19.6" height="19.6"/>
          <rect x="566" y="314.6" width="19.6" height="19.6"/>
          <rect x="566" y="345.1" width="19.6" height="19.6"/>
          <rect x="566" y="375.6" width="19.6" height="19.6"/>
          <rect x="566" y="406.1" width="19.6" height="19.6"/>
          <rect x="566" y="436.6" width="19.6" height="19.6"/>
          <rect x="566" y="467.1" width="19.6" height="19.6"/>
          <rect x="566" y="497.6" width="19.6" height="19.6"/>
          <rect x="566" y="253.5" width="19.6" height="19.6"/>
          <rect x="566" y="223.3" width="19.6" height="19.6"/>
        </g>
        <g>
          <g>
            <path class="cls-2" d="M508.9,228.3h3l3.2,10.4h-2.6l-.6-2.4h-3.1l-.6,2.4h-2.5l3.2-10.4ZM509.3,234.4h2.1l-.2-.9c-.3-1-.5-2.3-.8-3.3h0c-.3,1.1-.5,2.3-.8,3.3l-.2.9Z"/>
            <path class="cls-2" d="M515.3,237.5l1.1-1.6c.6.6,1.3,1,2.1,1s1.6-.6,1.6-1.6-.6-1.6-1.5-1.6-.9.1-1.5.5l-1.1-.7.3-5.2h5.8v2.1h-3.7v1.8c.2-.1.5-.2.9-.2,1.8,0,3.2,1,3.2,3.3s-1.8,3.7-3.8,3.7-2.8-.6-3.6-1.4Z"/>
            <path class="cls-2" d="M526.8,227.3h1.6l-3.1,13.9h-1.6l3.1-13.9Z"/>
            <path class="cls-2" d="M529.4,237.4l1.3-1.6c.7.6,1.7,1,2.6,1s1.4-.4,1.4-.9-.6-.8-1.5-1.2l-1.3-.6c-1.1-.4-2.1-1.3-2.1-2.8s1.6-3.2,3.8-3.2,2.5.5,3.4,1.3l-1.3,1.6c-.7-.5-1.4-.8-2.1-.8s-1.3.3-1.3.8.7.8,1.6,1.2l1.3.5c1.3.5,2.1,1.4,2.1,2.8s-1.5,3.3-4,3.3-2.8-.5-3.9-1.5Z"/>
            <path class="cls-2" d="M538.5,233.6c0-3.5,2.3-5.5,5-5.5s2.4.6,3.2,1.4l-1.3,1.5c-.5-.5-1.1-.7-1.8-.7-1.4,0-2.5,1.2-2.5,3.2s1,3.3,2.4,3.3,1.5-.3,2-.9l1.3,1.5c-.9,1-2.1,1.5-3.4,1.5-2.7,0-4.9-1.8-4.9-5.3Z"/>
            <path class="cls-2" d="M548.3,228.3h2.5v8.3h4v2.1h-6.5v-10.4Z"/>
          </g>
          <g>
            <path class="cls-2" d="M506.7,258.5h3l3.2,10.4h-2.6l-.6-2.4h-3.1l-.6,2.4h-2.5l3.2-10.4ZM507.1,264.6h2.1l-.2-.9c-.3-1-.5-2.3-.8-3.3h0c-.3,1.1-.5,2.3-.8,3.3l-.2.9Z"/>
            <path class="cls-2" d="M517.5,266.4h-4.4v-1.7l3.6-6.1h3.1v5.9h1.2v1.9h-1.2v2.6h-2.3v-2.6ZM517.5,264.5v-1.5c0-.7,0-1.6,0-2.3h0c-.3.6-.5,1.2-.8,1.8l-1.2,2.1h2Z"/>
            <path class="cls-2" d="M524.7,257.6h1.6l-3.1,13.9h-1.6l3.1-13.9Z"/>
            <path class="cls-2" d="M527.3,267.6l1.3-1.6c.7.6,1.7,1,2.6,1s1.4-.4,1.4-.9-.6-.8-1.5-1.2l-1.3-.6c-1.1-.4-2.1-1.3-2.1-2.8s1.6-3.2,3.8-3.2,2.5.5,3.4,1.3l-1.3,1.6c-.7-.5-1.4-.8-2.1-.8s-1.3.3-1.3.8.7.8,1.6,1.2l1.3.5c1.3.5,2.1,1.4,2.1,2.8s-1.5,3.3-4,3.3-2.8-.5-3.9-1.5Z"/>
            <path class="cls-2" d="M536.9,258.5h3c3.2,0,5.3,1.6,5.3,5.2s-2.1,5.2-5.1,5.2h-3.1v-10.4ZM539.7,267c1.7,0,2.9-.8,2.9-3.2s-1.2-3.2-2.9-3.2h-.4v6.4h.4Z"/>
            <path class="cls-2" d="M548.8,258.5h3l3.2,10.4h-2.6l-.6-2.4h-3.1l-.6,2.4h-2.5l3.2-10.4ZM549.2,264.6h2.1l-.2-.9c-.3-1-.5-2.3-.8-3.3h0c-.3,1.1-.5,2.3-.8,3.3l-.2.9Z"/>
          </g>
          <g>
            <path class="cls-2" d="M521.1,289h3l3.2,10.4h-2.6l-.6-2.4h-3.1l-.6,2.4h-2.5l3.2-10.4ZM521.5,295.1h2.1l-.2-.9c-.3-1-.5-2.3-.8-3.3h0c-.3,1.1-.5,2.3-.8,3.3l-.2.9Z"/>
            <path class="cls-2" d="M528.4,289h3.8c2.2,0,4.1.8,4.1,3.3s-.7,2.5-1.8,3l2.3,4.1h-2.8l-1.9-3.7h-1.2v3.7h-2.5v-10.4ZM532,293.8c1.2,0,1.8-.5,1.8-1.5s-.6-1.3-1.8-1.3h-1.1v2.8h1.1Z"/>
            <path class="cls-2" d="M538.3,289h6.6v2.1h-4.1v2h3.5v2.1h-3.5v2.2h4.3v2.1h-6.8v-10.4Z"/>
            <path class="cls-2" d="M547.1,289h6.7v2.1h-4.2v2.3h3.6v2.1h-3.6v4h-2.5v-10.4Z"/>
          </g>
          <g>
            <path class="cls-2" d="M523.4,324.8c0-3.5,2.3-5.5,5.1-5.5s2.6.6,3.3,1.4l-1.3,1.5c-.5-.5-1.1-.7-1.9-.7-1.5,0-2.7,1.2-2.7,3.2s.9,3.3,2.9,3.3.8,0,1-.3v-1.7h-1.7v-2h3.9v4.9c-.7.7-2,1.3-3.5,1.3-2.9,0-5.2-1.8-5.2-5.3Z"/>
            <path class="cls-2" d="M534.1,319.6h2.6l2.6,5c.4.7.7,1.5,1,2.4h0c-.1-1.1-.3-2.6-.3-3.8v-3.5h2.4v10.4h-2.6l-2.6-5c-.4-.7-.7-1.5-1-2.4h0c.1,1.2.3,2.6.3,3.8v3.5h-2.4v-10.4Z"/>
            <path class="cls-2" d="M544.8,319.6h3c3.2,0,5.3,1.6,5.3,5.2s-2.1,5.2-5.1,5.2h-3.1v-10.4ZM547.6,328c1.7,0,2.9-.8,2.9-3.2s-1.2-3.2-2.9-3.2h-.4v6.4h.4Z"/>
          </g>
          <g>
            <path class="cls-2" d="M495.4,358.5h2.2v-5.9h-1.9v-1.5c1.1-.2,1.8-.5,2.6-.9h1.8v8.4h1.9v2h-6.6v-2Z"/>
            <path class="cls-2" d="M503.1,359.2l1.1-1.6c.6.6,1.4,1,2.2,1s1.6-.4,1.6-1.2-.5-1.4-2.7-1.4v-1.8c1.8,0,2.3-.5,2.3-1.4s-.4-1.1-1.2-1.1-1.2.3-1.9.9l-1.2-1.5c.9-.8,2-1.3,3.2-1.3,2.2,0,3.6,1,3.6,2.9s-.6,1.8-1.7,2.3h0c1.2.4,2,1.2,2,2.6,0,2-1.8,3-3.8,3s-2.8-.6-3.6-1.4Z"/>
            <path class="cls-2" d="M514.6,349.1h1.6l-3.1,13.9h-1.6l3.1-13.9Z"/>
            <path class="cls-2" d="M517.2,359.2l1.3-1.6c.7.6,1.7,1,2.6,1s1.4-.4,1.4-.9-.6-.8-1.5-1.2l-1.3-.6c-1.1-.4-2.1-1.3-2.1-2.8s1.6-3.2,3.8-3.2,2.5.5,3.4,1.3l-1.3,1.6c-.7-.5-1.4-.8-2.1-.8s-1.3.3-1.3.8.7.8,1.6,1.2l1.3.5c1.3.5,2.1,1.4,2.1,2.8s-1.5,3.3-4,3.3-2.8-.5-3.9-1.5Z"/>
            <path class="cls-2" d="M526.3,355.4c0-3.5,2.3-5.5,5-5.5s2.4.6,3.2,1.4l-1.3,1.5c-.5-.5-1.1-.7-1.8-.7-1.4,0-2.5,1.2-2.5,3.2s1,3.3,2.4,3.3,1.5-.3,2-.9l1.3,1.5c-.9,1-2.1,1.5-3.4,1.5-2.7,0-4.9-1.8-4.9-5.3Z"/>
            <path class="cls-2" d="M536.1,350.1h2.5v8.3h4v2.1h-6.5v-10.4Z"/>
            <path class="cls-2" d="M544.5,350.1h2.5v4.1h0l3-4.1h2.7l-3.1,4.2,3.7,6.2h-2.7l-2.5-4.3-1.1,1.5v2.7h-2.5v-10.4Z"/>
          </g>
          <g>
            <path class="cls-2" d="M494.2,389h2.2v-5.9h-1.9v-1.5c1.1-.2,1.8-.5,2.6-.9h1.8v8.4h1.9v2h-6.6v-2Z"/>
            <path class="cls-2" d="M502.2,389.5c2.7-2.3,4.4-4.2,4.4-5.6s-.5-1.5-1.4-1.5-1.3.5-1.8,1l-1.3-1.3c1-1.1,1.9-1.7,3.4-1.7s3.4,1.3,3.4,3.3-1.7,3.8-3.3,5.4c.5,0,1.2-.1,1.7-.1h2.1v2.1h-7.2v-1.5Z"/>
            <path class="cls-2" d="M513.5,379.6h1.6l-3.1,13.9h-1.6l3.1-13.9Z"/>
            <path class="cls-2" d="M516.7,380.6h2.7l1.6,4.5c.2.6.4,1.2.6,1.9h0c.2-.7.4-1.3.6-1.9l1.6-4.5h2.7v10.4h-2.3v-3.6c0-1,.2-2.8.3-3.8h0l-.9,2.7-1.4,3.8h-1.4l-1.4-3.8-.8-2.7h0c.1,1,.3,2.8.3,3.8v3.6h-2.2v-10.4Z"/>
            <path class="cls-2" d="M529,380.6h2.5v10.4h-2.5v-10.4Z"/>
            <path class="cls-2" d="M533.2,389.7l1.3-1.6c.7.6,1.7,1,2.6,1s1.4-.4,1.4-.9-.6-.8-1.5-1.2l-1.3-.6c-1.1-.4-2.1-1.3-2.1-2.8s1.6-3.2,3.8-3.2,2.5.5,3.4,1.3l-1.3,1.6c-.7-.5-1.4-.8-2.1-.8s-1.3.3-1.3.8.7.8,1.6,1.2l1.3.5c1.3.5,2.1,1.4,2.1,2.8s-1.5,3.3-4,3.3-2.8-.5-3.9-1.5Z"/>
            <path class="cls-2" d="M542.3,385.8c0-3.4,1.9-5.4,4.8-5.4s4.8,2,4.8,5.4-1.9,5.4-4.8,5.4-4.8-2-4.8-5.4ZM549.3,385.8c0-2-.8-3.2-2.2-3.2s-2.2,1.2-2.2,3.2.9,3.3,2.2,3.3,2.2-1.3,2.2-3.3Z"/>
          </g>
          <g>
            <path class="cls-2" d="M486.9,416.5c-.4,0-.8.4-1.1.9l-1.3-1c.8-1.2,1.6-1.7,2.4-1.7,1.3,0,1.9,1.2,2.8,1.2s.8-.4,1.1-.9l1.3,1c-.8,1.2-1.6,1.7-2.4,1.7-1.3,0-1.9-1.2-2.8-1.2Z"/>
            <path class="cls-2" d="M493.6,419.5h2.2v-5.9h-1.9v-1.5c1.1-.2,1.8-.5,2.6-.9h1.8v8.4h1.9v2h-6.6v-2Z"/>
            <path class="cls-2" d="M502.2,419.5h2.2v-5.9h-1.9v-1.5c1.1-.2,1.8-.5,2.6-.9h1.8v8.4h1.9v2h-6.6v-2Z"/>
            <path class="cls-2" d="M512.9,410.1h1.6l-3.1,13.9h-1.6l3.1-13.9Z"/>
            <path class="cls-2" d="M516.2,411.1h2.7l1.6,4.5c.2.6.4,1.2.6,1.9h0c.2-.7.4-1.3.6-1.9l1.6-4.5h2.7v10.4h-2.3v-3.6c0-1,.2-2.8.3-3.8h0l-.9,2.7-1.4,3.8h-1.4l-1.4-3.8-.8-2.7h0c.1,1,.3,2.8.3,3.8v3.6h-2.2v-10.4Z"/>
            <path class="cls-2" d="M527.9,416.3c0-3.4,1.9-5.4,4.8-5.4s4.8,2,4.8,5.4-1.9,5.4-4.8,5.4-4.8-2-4.8-5.4ZM534.9,416.3c0-2-.8-3.2-2.2-3.2s-2.2,1.2-2.2,3.2.9,3.3,2.2,3.3,2.2-1.3,2.2-3.3Z"/>
            <path class="cls-2" d="M538.8,420.2l1.3-1.6c.7.6,1.7,1,2.6,1s1.4-.4,1.4-.9-.6-.8-1.5-1.2l-1.3-.6c-1.1-.4-2.1-1.3-2.1-2.8s1.6-3.2,3.8-3.2,2.5.5,3.4,1.3l-1.3,1.6c-.7-.5-1.4-.8-2.1-.8s-1.3.3-1.3.8.7.8,1.6,1.2l1.3.5c1.3.5,2.1,1.4,2.1,2.8s-1.5,3.3-4,3.3-2.8-.5-3.9-1.5Z"/>
            <path class="cls-2" d="M548.3,411.1h2.5v10.4h-2.5v-10.4Z"/>
          </g>
          <g>
            <path class="cls-2" d="M528.8,447c-.4,0-.8.4-1.1.9l-1.3-1c.8-1.2,1.6-1.7,2.4-1.7,1.3,0,1.9,1.2,2.8,1.2s.8-.4,1.1-.9l1.3,1c-.8,1.2-1.6,1.7-2.4,1.7-1.3,0-1.9-1.2-2.8-1.2Z"/>
            <path class="cls-2" d="M535.5,450h2.2v-5.9h-1.9v-1.5c1.1-.2,1.8-.5,2.6-.9h1.8v8.4h1.9v2h-6.6v-2Z"/>
            <path class="cls-2" d="M543.5,446.8c0-3.6,1.5-5.4,3.7-5.4s3.7,1.8,3.7,5.4-1.5,5.4-3.7,5.4-3.7-1.9-3.7-5.4ZM548.6,446.8c0-2.8-.6-3.5-1.3-3.5s-1.3.6-1.3,3.5.6,3.5,1.3,3.5,1.3-.7,1.3-3.5Z"/>
          </g>
          <g>
            <path class="cls-2" d="M536.7,477.5c-.4,0-.8.4-1.1.9l-1.3-1c.8-1.2,1.6-1.7,2.4-1.7,1.3,0,1.9,1.2,2.8,1.2s.8-.4,1.1-.9l1.3,1c-.8,1.2-1.6,1.7-2.4,1.7-1.3,0-1.9-1.2-2.8-1.2Z"/>
            <path class="cls-2" d="M543,481.5l1.3-1.5c.3.4,1,.7,1.6.7,1.1,0,1.9-.8,2-3-.5.7-1.4,1-2,1-1.7,0-3-1-3-3.3s1.6-3.5,3.4-3.5,3.9,1.5,3.9,5.3-2,5.5-4.1,5.5-2.4-.6-3.1-1.2ZM546.4,477c.5,0,1.1-.3,1.5-.9-.2-1.8-.8-2.3-1.5-2.3s-1.2.5-1.2,1.7.5,1.5,1.2,1.5Z"/>
          </g>
          <path class="cls-2" d="M542.5,510.5c0-1.3.7-2.1,1.7-2.6h0c-.8-.7-1.4-1.5-1.4-2.6,0-1.7,1.4-2.8,3.3-2.8s3.1,1.1,3.1,2.8-.6,1.8-1.3,2.3h0c1,.6,1.8,1.5,1.8,2.9s-1.5,2.8-3.6,2.8-3.6-1.1-3.6-2.8ZM547.4,510.3c0-.9-.8-1.3-2.1-1.9-.4.4-.7,1-.7,1.7s.7,1.4,1.5,1.4,1.3-.4,1.3-1.2ZM547.2,505.4c0-.8-.4-1.2-1.2-1.2s-1.1.4-1.1,1.1.6,1.3,1.7,1.7c.4-.5.6-1,.6-1.5Z"/>
          <path class="cls-2" d="M546.4,532.4h-4.5v-2.1h7.1v1.5c-2.4,2.9-2.7,4.8-2.8,8.9h-2.5c.2-3.4.7-5.6,2.7-8.3Z"/>
          <g>
            <path class="cls-2" d="M535,566.2c-.4,0-.8.4-1.1.9l-1.3-1c.8-1.2,1.6-1.7,2.4-1.7,1.3,0,1.9,1.2,2.8,1.2s.8-.4,1.1-.9l1.3,1c-.8,1.2-1.6,1.7-2.4,1.7-1.3,0-1.9-1.2-2.8-1.2Z"/>
            <path class="cls-2" d="M541.3,566.1c0-3.8,2-5.5,4.1-5.5s2.4.6,3,1.2l-1.3,1.5c-.4-.4-1-.7-1.6-.7-1.1,0-1.9.8-2,3,.5-.6,1.4-1,2-1,1.7,0,3,1,3,3.3s-1.6,3.5-3.4,3.5-3.9-1.5-3.9-5.3ZM543.6,567.3c.2,1.7.9,2.2,1.5,2.2s1.2-.5,1.2-1.7-.6-1.5-1.3-1.5-1.1.3-1.5,1Z"/>
          </g>
          <g>
            <path class="cls-2" d="M534.4,596.7c-.4,0-.8.4-1.1.9l-1.3-1c.8-1.2,1.6-1.7,2.4-1.7,1.3,0,1.9,1.2,2.8,1.2s.8-.4,1.1-.9l1.3,1c-.8,1.2-1.6,1.7-2.4,1.7-1.3,0-1.9-1.2-2.8-1.2Z"/>
            <path class="cls-2" d="M540.4,600.5l1.1-1.6c.6.6,1.3,1,2.1,1s1.6-.6,1.6-1.6-.6-1.6-1.5-1.6-.9.1-1.5.5l-1.1-.7.3-5.2h5.8v2.1h-3.7v1.8c.2-.1.5-.2.9-.2,1.8,0,3.2,1,3.2,3.3s-1.8,3.7-3.8,3.7-2.8-.6-3.6-1.4Z"/>
          </g>
          <path class="cls-2" d="M544.2,629.7h-4.4v-1.7l3.6-6.1h3.1v5.9h1.2v1.9h-1.2v2.6h-2.3v-2.6ZM544.2,627.8v-1.5c0-.7,0-1.6,0-2.3h0c-.3.6-.5,1.2-.8,1.8l-1.2,2.1h2Z"/>
          <g>
            <path class="cls-2" d="M533.3,657.8c-.4,0-.8.4-1.1.9l-1.3-1c.8-1.2,1.6-1.7,2.4-1.7,1.3,0,1.9,1.2,2.8,1.2s.8-.4,1.1-.9l1.3,1c-.8,1.2-1.6,1.7-2.4,1.7-1.3,0-1.9-1.2-2.8-1.2Z"/>
            <path class="cls-2" d="M539.3,661.5l1.1-1.6c.6.6,1.4,1,2.2,1s1.6-.4,1.6-1.2-.5-1.4-2.7-1.4v-1.8c1.8,0,2.3-.5,2.3-1.4s-.4-1.1-1.2-1.1-1.2.3-1.9.9l-1.2-1.5c.9-.8,2-1.3,3.2-1.3,2.2,0,3.6,1,3.6,2.9s-.6,1.8-1.7,2.3h0c1.2.4,2,1.2,2,2.6,0,2-1.8,3-3.8,3s-2.8-.6-3.6-1.4Z"/>
          </g>
          <path class="cls-2" d="M538.9,691.7c2.7-2.3,4.4-4.2,4.4-5.6s-.5-1.5-1.4-1.5-1.3.5-1.8,1l-1.3-1.3c1-1.1,1.9-1.7,3.4-1.7s3.4,1.3,3.4,3.3-1.7,3.8-3.3,5.4c.5,0,1.2-.1,1.7-.1h2.1v2.1h-7.2v-1.5Z"/>
          <g>
            <path class="cls-2" d="M509.2,716.4h-2.8v-2.1h8.1v2.1h-2.8v8.3h-2.5v-8.3Z"/>
            <path class="cls-2" d="M517.6,719.3l-2.7-5.1h2.8l.8,1.9c.2.5.5,1,.8,1.7h0c.2-.7.5-1.2.7-1.7l.8-1.9h2.6l-2.7,5.2,2.9,5.2h-2.8l-1-2c-.3-.5-.5-1.1-.8-1.7h0c-.2.6-.5,1.2-.7,1.7l-.9,2h-2.7l2.9-5.4Z"/>
            <path class="cls-2" d="M537.5,719.4l-5,5c-.4.4-1,.4-1.4,0s-.4-1,0-1.4l3.3-3.3h-9.6c-.6,0-1-.4-1-1s.4-1,1-1h9.6l-3.3-3.3c-.4-.4-.4-1,0-1.4s1-.4,1.4,0l5,5c.4.4.4,1,0,1.4h0Z"/>
            <path class="cls-2" d="M538.9,722.7h2.2v-5.9h-1.9v-1.5c1.1-.2,1.8-.5,2.6-.9h1.8v8.4h1.9v2h-6.6v-2Z"/>
          </g>
          <g>
            <path class="cls-2" d="M505.5,744.8h3.8c2.2,0,4.1.8,4.1,3.3s-.7,2.5-1.8,3l2.3,4.1h-2.8l-1.9-3.7h-1.2v3.7h-2.5v-10.4ZM509.1,749.6c1.2,0,1.8-.5,1.8-1.5s-.6-1.3-1.8-1.3h-1.1v2.8h1.1Z"/>
            <path class="cls-2" d="M517,749.9l-2.7-5.1h2.8l.8,1.9c.2.5.5,1,.8,1.7h0c.2-.7.5-1.2.7-1.7l.8-1.9h2.6l-2.7,5.2,2.9,5.2h-2.8l-1-2c-.3-.5-.5-1.1-.8-1.7h0c-.2.6-.5,1.2-.7,1.7l-.9,2h-2.7l2.9-5.4Z"/>
            <path class="cls-2" d="M523.5,748.5l5-5c.4-.4,1-.4,1.4,0s.4,1,0,1.4l-3.3,3.3h9.6c.6,0,1,.4,1,1s-.4,1-1,1h-9.6l3.3,3.3c.4.4.4,1,0,1.4s-1,.4-1.4,0l-5-5c-.4-.4-.4-1,0-1.4h0Z"/>
            <path class="cls-2" d="M537.8,750c0-3.6,1.5-5.4,3.7-5.4s3.7,1.8,3.7,5.4-1.5,5.4-3.7,5.4-3.7-1.9-3.7-5.4ZM542.8,750c0-2.8-.6-3.5-1.3-3.5s-1.3.6-1.3,3.5.6,3.5,1.3,3.5,1.3-.7,1.3-3.5Z"/>
          </g>
        </g>
        <g>
          <rect class="cls-6" x="396.4" y="330" width="10.7" height="17.2"/>
          <rect class="cls-15" x="396.4" y="332.5" width="10.7" height="11.8"/>
        </g>
      </g>
      <sodipodi:namedview id="namedview7" bordercolor="#eeeeee" borderopacity="1" inkscape:current-layer="svg8" inkscape:cx="378.84507" inkscape:cy="263.33158" inkscape:deskcolor="#505050" inkscape:pagecheckerboard="0" inkscape:pageopacity="0" inkscape:showpageshadow="0" inkscape:window-height="900" inkscape:window-maximized="0" inkscape:window-width="1440" inkscape:window-x="0" inkscape:window-y="0" inkscape:zoom="0.51076289" pagecolor="#505050"/>
      <g id="layer1-78">
        <rect id="rect815-1" x="653.5" y="15.7" width="192.5" height="256.4"/>
        <rect id="rect821-5" class="cls-2" x="699" y="230" width="100.2" height="34.5"/>
        <path id="rect825-0" class="cls-25" d="M705.6,232h20.1c3.5,0,6.3,2.8,6.3,6.3v17.6c0,3.5-2.8,6.3-6.3,6.3h-20.1c-3.5,0-6.3-2.8-6.3-6.3v-17.6c0-3.5,2.8-6.3,6.3-6.3Z"/>
        <path id="rect872-3" class="cls-25" d="M772.5,232h20.1c3.5,0,6.3,2.8,6.3,6.3v17.6c0,3.5-2.8,6.3-6.3,6.3h-20.1c-3.5,0-6.3-2.8-6.3-6.3v-17.6c0-3.5,2.8-6.3,6.3-6.3Z"/>
        <rect id="rect874-6" class="cls-25" x="732.7" y="232" width="32.8" height="30.3" rx="5.5" ry="5.5"/>
        <rect id="rect947-6" class="cls-18" x="713.8" y="248.5" width="3.6" height="63.2"/>
        <rect id="rect949-4" class="cls-18" x="747.4" y="248.5" width="3.6" height="63.2"/>
        <rect id="rect951-3" class="cls-18" x="780.7" y="248.5" width="3.6" height="63.2"/>
        <path id="path31-1-75" class="cls-2" d="M708.2,34.9c1.2,0,1.3,0,1.5-.2.2,0,.3-.2.4-.4.1-.2.1-.4.2-2.8v-2.6s2.6,0,2.6,0h2.5v3.2c0,3.5,0,3.9-.4,4.8-.4,1.2-1.4,2-2.7,2.1-.8.1-1.5.2-2.3.1-1,0-2.1,0-2.5,0h-.6c0,0,0-2.2,0-2.2v-2.1s1.3,0,1.3,0h0ZM732.4,42.1c21.7,0,27,0,26.1.1h-.1s.1,0,.1,0c.1,0,0,0-.1,0-.2,0,0,0,.2,0h.5s-.5,0-.5,0c-.2,0-.4,0-.3,0,.1,0,.1.1.1.6s0,.6.2.6c.1,0,.1,0-.1,0-.2,0-.3,0-.3,0s-8.6,0-25.7,0h-25.7v-1.8h25.5ZM712.9,22.3h2.6v4.2h-5.1v-4.2h2.6ZM718,30c.2-1.1.5-2.2,1-3.1.1-.2.2-.4.4-.6.1-.1.2-.3.3-.4.3-.5.6-.9,1-1.3,0,0,0,0,0-.1.3-.4.7-.7,1.1-1,.6-.4,1.2-.7,1.9-.9,1-.4,2-.6,3.1-.5.6,0,1.2,0,1.8.2.4.1.8.3,1,.3.1,0,.3.1.4.1.2,0,.4.2.6.3,1.5,1,2.7,2.4,3.5,4,1,2,1.1,4.4.4,6.5-.2.7-.6,1.3-.9,2-.4.7-.9,1.3-1.5,1.8-1,1.1-2.2,1.8-3.6,2.1-1.1.2-2.2.3-3.2.2-1.3-.2-2.4-.7-3.5-1.5-.4-.3-.8-.6-1.1-1-.1-.1-.2-.3-.4-.4-1.1-1.2-1.8-2.7-2.2-4.3-.1-.8-.2-1.7-.2-2.5h0ZM723,32.2c.2,1,.8,1.8,1.5,2.5.8.7,2,1,3.1.7,1.3-.6,2.3-1.8,2.7-3.2.2-.9.2-1.9,0-2.9-.3-1.1-.9-2-1.8-2.7-.3-.2-.6-.4-1-.4-.8-.2-1.6,0-2.4.2-.7.5-1.3,1.1-1.6,1.8-.6,1.2-.8,2.6-.4,3.9ZM737.4,22.4s1.2,0,2.6,0h2.5s0,2.3,0,2.3c0,2.2,0,2.3.2,2.7.4,1,1.5,1.5,2.6,1.2.5-.2.9-.5,1.1-1l.2-.4v-2.4s0-2.4,0-2.4h5.1v2.7c0,1.1,0,2.2-.2,3.2-.3,1-.7,1.9-1.3,2.6-.1.1-.2.2-.3.4-.4.4-.8.8-1.2,1.1-.5.3-1,.6-1.5.8-.1,0-.5.1-.8.2-.6.2-1.2.2-1.8.2-.7,0-1.3,0-1.9-.2-.7-.2-1.4-.5-2-.9-.8-.5-1.4-1.2-2-1.9-.7-1-1.1-2.1-1.2-3.3-.1-1.7,0-3.3,0-5h0ZM744.5,35h4.2v4.3h-8.4v-4.3h4.2ZM751.7,19.1s0-.1,0-.3c0-.3,0-.3.3-.3.2,0,7.3,0,15.8,0h15.5s0,.9,0,.9v.9h-15.7c-8.6,0-15.8,0-15.8,0,0,0-.1-.2-.1-.6s0-.6,0-.6h0ZM758.7,29.4h5.3v4.2h-10.7v-4.2h5.3ZM768.3,22.3h2.6v4.2h-5.1v-4.2h2.6ZM768.3,28.7h2.6v10.8h-5.1v-10.8h2.6ZM778.5,22.3h5.4v4.2h-10.7v-4.2h5.4ZM774.1,29s1.2,0,2.5,0h2.5s0,2.5,0,2.5c0,3.5-.1,3.3,2.5,3.3h1.6v4.4h-.6c-1.5.2-3.1.2-4.6,0-1.1,0-2.1-.6-2.8-1.3-.6-.8-1-1.7-1-2.7,0-.8,0-6.1,0-6.2h0ZM786.9,20.3c.1-.4.3-.8.7-1.1,1-1,2.6-1.1,3.7-.3.4.2.7.6.9,1,.2.3.2.7.2,1.1,0,.4,0,.8-.2,1.1-.5.9-1.3,1.5-2.3,1.6-.9,0-1.7-.2-2.3-.9-.7-.7-.9-1.7-.6-2.6ZM787.4,22.1c.4.6,1,1.1,1.7,1.3.8.2,1.6,0,2.2-.6.2-.2.4-.4.5-.7.2-.3.3-.7.2-1.1,0-.4,0-.7-.2-1.1-.1-.3-.4-.6-.7-.8-.2-.2-.5-.3-.8-.4-1.2-.4-2.5.2-3,1.4-.2.6-.1,1.3,0,1.9h0ZM789.3,19.4c.4,0,.8,0,1.1,0,.4.3.6.9.3,1.3-.1.1-.2.2-.4.3h-.2c0,0,.2.3.2.3.2.2.3.4.5.6,0,.1.2.3.3.4.1,0,0,.2-.2.2h-.3s-.4-.7-.4-.7c-.4-.7-.6-.8-1-.8h-.3v1.4h-.2s-.2,0-.2,0v-1.6s0-1.6,0-1.6h.9ZM789.4,20.8c.5,0,.6,0,.8-.1.4-.3.2-.8-.4-.8-.3,0-.7,0-1,0,0,.2,0,.3,0,.5v.5h.6Z"/>
        <circle id="path84-3" class="cls-19" cx="681.3" cy="50.4" r="19.2"/>
        <circle id="circle86-2" class="cls-19" cx="818" cy="50.4" r="19.2"/>
        <circle id="path88-7" class="cls-3" cx="681.3" cy="50.4" r="17.1"/>
        <circle id="circle90" class="cls-3" cx="818" cy="50.4" r="17.1"/>
        <path id="path73-7" class="cls-19" d="M694.1,96.2c0,7.1-5.8,12.8-12.9,12.7-7.1,0-12.8-5.8-12.7-12.9s5.8-12.8,12.9-12.7c7,0,12.7,5.8,12.7,12.8"/>
        <path id="path75-0" class="cls-19" d="M694.1,126.1c0,7.1-5.8,12.8-12.9,12.7-7.1,0-12.8-5.8-12.7-12.9,0-7.1,5.8-12.8,12.9-12.7,7,0,12.7,5.8,12.7,12.8"/>
        <path id="path77-4" class="cls-19" d="M721.9,96.2c0,7.1-5.8,12.8-12.9,12.7-7.1,0-12.8-5.8-12.7-12.9s5.8-12.8,12.9-12.7c7,0,12.7,5.8,12.7,12.8"/>
        <path id="path79-9" class="cls-19" d="M721.9,126.1c0,7.1-5.8,12.8-12.9,12.7-7.1,0-12.8-5.8-12.7-12.9,0-7.1,5.8-12.8,12.9-12.7,7,0,12.7,5.8,12.7,12.8"/>
        <path id="path81-5" class="cls-19" d="M803.5,96.2c0,7.1-5.8,12.8-12.9,12.7-7.1,0-12.8-5.8-12.7-12.9s5.8-12.8,12.9-12.7c7,0,12.7,5.8,12.7,12.8"/>
        <path id="path83-9" class="cls-19" d="M803.5,126.1c0,7.1-5.8,12.8-12.9,12.7-7.1,0-12.8-5.8-12.7-12.9,0-7.1,5.8-12.8,12.9-12.7,7,0,12.7,5.8,12.7,12.8"/>
        <path id="path85-9" class="cls-19" d="M831.3,96.2c0,7.1-5.8,12.8-12.9,12.7-7.1,0-12.8-5.8-12.7-12.9s5.8-12.8,12.9-12.7c7,0,12.7,5.8,12.7,12.8"/>
        <path id="path87-6" class="cls-19" d="M831.3,126.1c0,7.1-5.8,12.8-12.9,12.7s-12.8-5.8-12.7-12.9c0-7.1,5.8-12.8,12.9-12.7,7,0,12.7,5.8,12.7,12.8"/>
        <path id="path89-6" class="cls-3" d="M692.1,96c0,5.9-4.9,10.6-10.8,10.6s-10.6-4.9-10.6-10.8c0-5.9,4.9-10.6,10.8-10.6,5.9,0,10.6,4.8,10.6,10.7"/>
        <path id="path91-9" class="cls-3" d="M692.1,125.9c0,5.9-4.9,10.6-10.8,10.6-5.9,0-10.6-4.9-10.6-10.8,0-5.9,4.9-10.6,10.8-10.6,5.9,0,10.6,4.8,10.6,10.7"/>
        <path id="path93-5" class="cls-3" d="M829.2,125.9c0,5.9-4.9,10.6-10.8,10.6s-10.6-4.9-10.6-10.8c0-5.9,4.9-10.6,10.8-10.6,5.9,0,10.6,4.8,10.6,10.7"/>
        <path id="path95-0" class="cls-3" d="M829.2,95.9c0,5.9-4.9,10.6-10.8,10.6-5.9,0-10.6-4.9-10.6-10.8s4.9-10.6,10.8-10.6c5.9,0,10.6,4.8,10.6,10.7"/>
        <rect id="rect97-8" class="cls-17" x="700.5" y="83.3" width="98.3" height="55.6"/>
        <rect id="rect99-2" class="cls-20" x="701.6" y="84.3" width="27.8" height="53.4"/>
        <rect id="rect101-4" class="cls-20" x="769.9" y="84.3" width="27.8" height="53.4"/>
        <rect id="rect103-4" class="cls-17" x="702.2" y="85.8" width="25.6" height="51.3"/>
        <rect id="rect105-7" class="cls-17" x="771.4" y="85.8" width="25.6" height="51.3"/>
        <rect id="rect107-4" class="cls-20" x="739" y="100.4" width="21.4" height="21.4"/>
        <g id="text3788" class="cls-16">
          <g id="text2" class="cls-16">
            <g class="cls-16">
              <path class="cls-2" d="M673.4,212.9c0,0,.1,0,.2,0,0,0,.1,0,.1.2,0,0,0,.2,0,.4,0,.2,0,.3,0,.6s0,.6,0,.8,0,.3-.1.4c0,0-.1.2-.2.2l-8.6,6.3h8.6c0,0,.1,0,.2,0,0,0,.1,0,.1.2s0,.2,0,.4c0,.1,0,.3,0,.5s0,.4,0,.5c0,.1,0,.3,0,.4,0,0,0,.2-.1.2,0,0-.1,0-.2,0h-16.5c0,0-.1,0-.2,0,0,0,0,0-.1-.2,0,0,0-.2,0-.4,0-.2,0-.3,0-.5s0-.4,0-.5c0-.1,0-.3,0-.4,0,0,0-.2.1-.2s.1,0,.2,0h7.6l-7.6-6.1c0,0-.1-.1-.2-.2,0,0,0-.2-.1-.3,0-.1,0-.2,0-.4,0-.1,0-.3,0-.6s0-.4,0-.6c0-.1,0-.3,0-.3s0-.1.1-.2c0,0,.1,0,.2,0,.1,0,.2,0,.3,0,.1,0,.3.2.5.3l6.8,5.7,8.1-6.1c.2-.2.4-.2.5-.3,0,0,.2,0,.2,0Z"/>
            </g>
            <g class="cls-16">
              <path class="cls-2" d="M667.1,204.6h6.3c0,0,.1,0,.2,0s0,0,.1.2,0,.2,0,.4c0,.1,0,.3,0,.5s0,.4,0,.5c0,.1,0,.3,0,.4s0,.2-.1.2c0,0-.1,0-.2,0h-6.3l-9.7,4.8c-.2,0-.4.2-.5.2-.1,0-.2,0-.3,0,0,0-.1-.2-.1-.4s0-.4,0-.7,0-.5,0-.6c0-.2,0-.3,0-.4,0,0,0-.2.1-.2,0,0,.1,0,.2-.1l4.9-2.4c.5-.2,1-.4,1.5-.7.5-.2,1-.4,1.6-.7h0c-.5-.2-1-.4-1.5-.7s-1-.4-1.5-.7l-5-2.4c0,0-.2,0-.2-.1,0,0-.1-.1-.1-.2,0,0,0-.2,0-.4,0-.2,0-.3,0-.6s0-.6,0-.7,0-.3.1-.4c0,0,.2,0,.3,0,.1,0,.3,0,.5.2l9.7,4.8Z"/>
            </g>
            <g class="cls-16">
              <path class="cls-2" d="M667.1,193.2c.3,0,.6,0,.7.1.1,0,.2.2.2.3v5.5c0,.2,0,.3-.2.4-.1,0-.4.1-.7.1s-.6,0-.7-.1c-.1,0-.2-.2-.2-.4v-5.5c0,0,0-.1,0-.2,0,0,0-.1.2-.1,0,0,.2,0,.3,0,.1,0,.3,0,.4,0Z"/>
              <path class="cls-2" d="M665.2,179.5c1.3,0,2.5.1,3.6.3,1.1.2,2,.6,2.8,1,.8.5,1.4,1.1,1.8,1.9.4.8.6,1.7.6,2.9s-.2,2-.6,2.7c-.4.7-1,1.3-1.7,1.8-.7.5-1.7.8-2.8,1s-2.3.3-3.8.3-2.5-.1-3.6-.3-2-.6-2.8-1c-.8-.5-1.4-1.1-1.8-1.9-.4-.8-.6-1.7-.6-2.9s.2-2,.6-2.7c.4-.7.9-1.3,1.7-1.8.7-.5,1.7-.8,2.8-1,1.1-.2,2.3-.3,3.8-.3ZM665.3,181.8c-.9,0-1.6,0-2.3,0-.7,0-1.3.2-1.8.3s-1,.3-1.3.5c-.4.2-.7.4-.9.7-.2.3-.4.6-.5.9-.1.3-.2.7-.2,1.1,0,.8.2,1.4.5,1.8.4.5.8.8,1.5,1.1s1.3.5,2.2.5,1.7.1,2.7.1,2.4,0,3.3-.2c.9-.1,1.6-.3,2.2-.6.6-.3,1-.7,1.2-1.1.3-.4.4-1,.4-1.6s0-.9-.2-1.3c-.2-.4-.4-.7-.7-1-.3-.3-.7-.5-1.1-.7s-.9-.3-1.4-.4c-.5-.1-1-.2-1.6-.2s-1.2,0-1.8,0Z"/>
              <path class="cls-2" d="M672.9,166.3c.2,0,.3,0,.4,0,.1,0,.2,0,.3.1,0,0,.1,0,.2.2,0,0,0,.1,0,.2v9c0,0,0,.1,0,.2,0,0,0,.1-.2.2,0,0-.2,0-.3.1-.1,0-.3,0-.4,0s-.3,0-.4,0c-.1,0-.2,0-.3,0,0,0-.1,0-.2-.1,0,0,0-.1,0-.2v-3.6h-13l2,3.3c0,.2.1.3.2.4,0,.1,0,.2,0,.2,0,0-.2.1-.3.1-.1,0-.3,0-.5,0s-.3,0-.4,0c-.1,0-.2,0-.3,0,0,0-.1,0-.2-.1,0,0-.1-.1-.2-.2l-2.5-3.9s0,0,0-.1c0,0,0-.1,0-.2s0-.2,0-.3c0-.1,0-.2,0-.4s0-.4,0-.5c0-.1,0-.3,0-.3s0-.1.1-.2c0,0,0,0,.2,0h15.1v-3.1c0,0,0-.1,0-.2,0,0,0-.1.2-.2,0,0,.2,0,.3,0,.1,0,.3,0,.4,0Z"/>
              <path class="cls-2" d="M665.2,152c1.3,0,2.5.1,3.6.3,1.1.2,2,.6,2.8,1,.8.5,1.4,1.1,1.8,1.9.4.8.6,1.7.6,2.9s-.2,2-.6,2.7c-.4.7-1,1.3-1.7,1.8-.7.5-1.7.8-2.8,1s-2.3.3-3.8.3-2.5-.1-3.6-.3-2-.6-2.8-1c-.8-.5-1.4-1.1-1.8-1.9-.4-.8-.6-1.7-.6-2.9s.2-2,.6-2.7c.4-.7.9-1.3,1.7-1.8.7-.5,1.7-.8,2.8-1,1.1-.2,2.3-.3,3.8-.3ZM665.3,154.3c-.9,0-1.6,0-2.3,0-.7,0-1.3.2-1.8.3s-1,.3-1.3.5c-.4.2-.7.4-.9.7-.2.3-.4.6-.5.9-.1.3-.2.7-.2,1.1,0,.8.2,1.4.5,1.8.4.5.8.8,1.5,1.1s1.3.5,2.2.5,1.7.1,2.7.1,2.4,0,3.3-.2c.9-.1,1.6-.3,2.2-.6.6-.3,1-.7,1.2-1.1.3-.4.4-1,.4-1.6s0-.9-.2-1.3c-.2-.4-.4-.7-.7-1-.3-.3-.7-.5-1.1-.7s-.9-.3-1.4-.4c-.5-.1-1-.2-1.6-.2s-1.2,0-1.8,0Z"/>
            </g>
          </g>
        </g>
        <g id="text3792" class="cls-16">
          <g class="cls-16">
            <path class="cls-2" d="M819.4,250.1c0,.8-.1,1.5-.4,2.1-.3.6-.7,1.2-1.2,1.6-.5.4-1.1.8-1.9,1-.7.2-1.5.3-2.3.3s-1.1,0-1.6-.1c-.5,0-.9-.2-1.3-.4-.4-.1-.7-.3-1-.4-.3-.1-.4-.3-.5-.4s-.2-.2-.2-.4c0-.2,0-.4,0-.7s0-.4,0-.5c0-.1,0-.2,0-.3,0,0,0-.1.1-.2s.1,0,.2,0c.1,0,.3,0,.5.2.2.2.5.3.9.5s.8.3,1.3.5c.5.2,1.1.2,1.7.2s.9,0,1.4-.2c.4-.1.8-.3,1.1-.6.3-.2.5-.5.7-.9.2-.4.2-.8.2-1.2s-.1-.9-.3-1.2c-.2-.3-.5-.6-.9-.9-.4-.3-.8-.5-1.2-.7-.5-.2-.9-.4-1.4-.7-.5-.2-1-.5-1.4-.7-.5-.3-.9-.6-1.2-1-.4-.4-.7-.8-.9-1.3-.2-.5-.3-1.1-.3-1.8s.1-1.4.4-1.9c.3-.6.6-1,1.1-1.4.5-.4,1-.7,1.7-.9.6-.2,1.3-.3,2.1-.3s.8,0,1.1,0,.7.2,1.1.3.6.2.9.4c.3.1.4.2.5.3s.1.2.2.2c0,0,0,.1,0,.2s0,.2,0,.3c0,.1,0,.2,0,.4s0,.3,0,.4c0,.1,0,.2,0,.3,0,0,0,.1-.1.2s-.1,0-.2,0c0,0-.2,0-.5-.2-.2-.1-.5-.3-.8-.4-.3-.2-.7-.3-1.1-.4-.4-.1-.9-.2-1.4-.2s-.9,0-1.2.2c-.4.1-.6.3-.9.5-.2.2-.4.5-.5.8-.1.3-.2.6-.2.9,0,.5.1.9.3,1.2.2.3.5.6.9.9.4.3.8.5,1.3.7.5.2.9.4,1.4.7.5.2,1,.5,1.4.7s.9.6,1.3,1c.4.4.7.8.9,1.3.2.5.3,1.1.3,1.8Z"/>
          </g>
        </g>
        <g id="text3796" class="cls-16">
          <g class="cls-16">
            <path class="cls-2" d="M692.6,247.3c0,.3-.1.6-.3.7s-.5.2-.9.2h-14.2c-.4,0-.7,0-.9-.2-.2-.1-.3-.4-.3-.7s.1-.6.3-.7c.2-.1.5-.2.9-.2h14.2c.2,0,.3,0,.5,0,.1,0,.3,0,.4.2.1,0,.2.2.2.3,0,.1,0,.3,0,.4Z"/>
          </g>
        </g>
      </g>
      <rect id="rect840" class="cls-7" x="776.9" y="272.8" width="11.3" height="263.6"/>
      <rect id="rect826" class="cls-14" x="743.4" y="272.8" width="11.3" height="144.6"/>
      <rect id="rect849" class="cls-13" x="710" y="272.8" width="11.3" height="179.3"/>
      <rect id="rect4" class="cls-7" x="20.3" y="525" width="766.9" height="11.4"/>
      <rect id="rect5" class="cls-7" x="20.3" y="498" width="11.4" height="38.4"/>
      <circle id="circle281" class="cls-7" cx="26.1" cy="499.8" r="11.6" transform="translate(-474.1 517.8) rotate(-89.1)"/>
      <rect id="rect6" class="cls-14" x="20.3" y="406.7" width="734.4" height="11.4"/>
      <rect id="rect7" class="cls-14" x="20.3" y="406.7" width="11.4" height="63.6"/>
      <circle id="circle281-2" class="cls-14" cx="26.1" cy="469.1" r="11.6" transform="translate(-443.5 487.6) rotate(-89.1)"/>
      <circle id="circle281-4" class="cls-13" cx="576" cy="447.7" r="11.6"/>
      <circle id="circle281-5" class="cls-13" cx="715.6" cy="276.1" r="11.6"/>
      <rect id="rect849-3" class="cls-13" x="571.7" y="442.4" width="149.6" height="11.3"/>
      <circle id="circle281-7" class="cls-7" cx="782.5" cy="276.1" r="11.6"/>
      <circle id="circle281-9" class="cls-14" cx="749.1" cy="276.1" r="11.6"/>
    </g>
  </g>
</svg>