<?xml version="1.0" encoding="UTF-8"?>
<svg xmlns="http://www.w3.org/2000/svg" version="1.1" viewBox="0 0 818.8 1106.6">
  <defs>
    <style>
      .cls-1 {
        fill: #29abe2;
      }

      .cls-2 {
        fill: #2c2c2c;
      }

      .cls-3 {
        stroke: gray;
      }

      .cls-3, .cls-4, .cls-5, .cls-6 {
        stroke-width: 3px;
      }

      .cls-3, .cls-4, .cls-5, .cls-6, .cls-7 {
        fill: none;
        stroke-miterlimit: 10;
      }

      .cls-8, .cls-9 {
        fill: #fff;
      }

      .cls-10 {
        fill: #493930;
      }

      .cls-11 {
        fill: #be8839;
      }

      .cls-12 {
        fill: #dbded7;
      }

      .cls-13 {
        fill: #914f00;
      }

      .cls-14 {
        fill: #9a2442;
      }

      .cls-15 {
        fill: #303030;
      }

      .cls-16 {
        fill: #f53200;
      }

      .cls-4 {
        stroke: #754c24;
      }

      .cls-17 {
        fill: #47494a;
      }

      .cls-18 {
        fill: #655a50;
      }

      .cls-19 {
        fill: #e30613;
      }

      .cls-20 {
        fill: #474949;
      }

      .cls-21, .cls-22, .cls-23, .cls-9, .cls-24, .cls-25 {
        isolation: isolate;
      }

      .cls-26 {
        fill: #fcf7fd;
      }

      .cls-27 {
        fill: #ada390;
      }

      .cls-28 {
        fill: #686868;
      }

      .cls-29 {
        fill: #e3ad51;
      }

      .cls-30 {
        fill: #ddd;
      }

      .cls-31 {
        fill: #1a1a1a;
      }

      .cls-22 {
        fill: #f2f2f2;
      }

      .cls-22, .cls-23, .cls-9, .cls-24, .cls-25 {
        opacity: 1;
      }

      .cls-32, .cls-24 {
        fill: #ccc;
      }

      .cls-33 {
        fill: #c4b3a8;
      }

      .cls-34 {
        fill: #a3928b;
      }

      .cls-35 {
        fill: #36323e;
      }

      .cls-5 {
        stroke: #000;
      }

      .cls-36 {
        fill: green;
      }

      .cls-23 {
        fill: gray;
      }

      .cls-37 {
        fill: #eaeaea;
      }

      .cls-38 {
        fill: #1a1919;
      }

      .cls-39 {
        fill: #e3b37d;
      }

      .cls-40 {
        fill: #010103;
      }

      .cls-6 {
        stroke: red;
      }

      .cls-41 {
        fill: #f5b93e;
      }

      .cls-42 {
        fill: #e0dcd3;
      }

      .cls-7 {
        stroke: #493930;
      }

      .cls-43 {
        fill: #bcb3ad;
      }
    </style>
  </defs>
  <!-- Generator: Adobe Illustrator 28.6.0, SVG Export Plug-In . SVG Version: 1.2.0 Build 709)  -->
  <g>
    <g id="svg8">
      <g>
        <path class="cls-1" d="M702,591c0,4.7,1.5,9,3.9,12.2v34.5c-2.4,3.2-3.9,7.5-3.9,12.2,0,10,6.7,18.2,14.9,18.2s14.9-8.1,14.9-18.2-1.5-9-3.9-12.2v-34.5c2.4-3.2,3.9-7.5,3.9-12.2,0-10-6.7-18.2-14.9-18.2s-14.9,8.1-14.9,18.2Z"/>
        <line class="cls-4" x1="702.2" y1="588.8" x2="731.9" y2="588.8"/>
        <line class="cls-6" x1="702.2" y1="652" x2="731.9" y2="652"/>
        <line class="cls-6" x1="705.9" y1="633.4" x2="728.1" y2="633.4"/>
        <line class="cls-5" x1="705.8" y1="627.1" x2="728.1" y2="627.1"/>
        <line class="cls-5" x1="705.8" y1="616.2" x2="728.1" y2="616.2"/>
        <line class="cls-3" x1="717" y1="668.1" x2="717" y2="740.3"/>
        <line class="cls-3" x1="717" y1="500.6" x2="717" y2="572.8"/>
      </g>
      <g>
        <path class="cls-1" d="M735.7,591c0,4.7,1.5,9,3.9,12.2v34.5c-2.4,3.2-3.9,7.5-3.9,12.2,0,10,6.7,18.2,14.9,18.2s14.9-8.1,14.9-18.2-1.5-9-3.9-12.2v-34.5c2.4-3.2,3.9-7.5,3.9-12.2,0-10-6.7-18.2-14.9-18.2s-14.9,8.1-14.9,18.2Z"/>
        <line class="cls-4" x1="735.9" y1="588.8" x2="765.6" y2="588.8"/>
        <line class="cls-6" x1="735.9" y1="652" x2="765.6" y2="652"/>
        <line class="cls-6" x1="739.6" y1="633.4" x2="761.8" y2="633.4"/>
        <line class="cls-5" x1="739.5" y1="627.1" x2="761.7" y2="627.1"/>
        <line class="cls-5" x1="739.5" y1="616.2" x2="761.7" y2="616.2"/>
        <line class="cls-3" x1="750.6" y1="668.1" x2="750.6" y2="740.3"/>
        <line class="cls-3" x1="750.6" y1="500.6" x2="750.6" y2="572.8"/>
      </g>
      <g>
        <path class="cls-38" d="M590.3,338.1H7.5c-4,0-7.3,3.2-7.3,7.3v719c0,4,3.2,7.3,7.3,7.3h17.6l34.2,34.2h365.2s34.1-34.2,34.1-34.2h131.6c4,0,7.3-3.2,7.3-7.3V345.3c0-4-3.2-7.3-7.3-7.3ZM28.5,512.5c-10,0-18.1-8.1-18.1-18.1s8.1-18.1,18.1-18.1,18.1,8.1,18.1,18.1-8.1,18.1-18.1,18.1ZM88.4,1094.3c-10,0-18.1-8.1-18.1-18.1s8.1-18.1,18.1-18.1,18.1,8.1,18.1,18.1-8.1,18.1-18.1,18.1ZM401.6,1094.3c-10,0-18.1-8.1-18.1-18.1s8.1-18.1,18.1-18.1,18.1,8.1,18.1,18.1-8.1,18.1-18.1,18.1ZM569.8,523.9c-10,0-18.1-8.1-18.1-18.1s8.1-18.1,18.1-18.1,18.1,8.1,18.1,18.1-8.1,18.1-18.1,18.1Z"/>
        <rect class="cls-15" x="56.2" y="304.8" width="101.7" height="143.5"/>
        <path class="cls-15" d="M65.2,448.2h83.7v9.1c0,3.9-3.2,7.1-7.1,7.1h-69.4c-3.9,0-7.1-3.2-7.1-7.1v-9.1h0Z"/>
        <path class="cls-30" d="M571.7,376.8h-21.4v-4.6c0-.8-.6-1.4-1.4-1.4h-20.6c-.8,0-1.4.6-1.4,1.4v4.6h-21.4c-1,0-1.7.8-1.7,1.7v65.1c0,1,.8,1.7,1.7,1.7h66.3c1,0,1.7-.8,1.7-1.7v-65.1c0-1-.8-1.7-1.7-1.7Z"/>
        <circle class="cls-14" cx="538.6" cy="408" r="19.2"/>
        <g>
          <circle class="cls-30" cx="148.8" cy="556.8" r="35.2"/>
          <path class="cls-40" d="M129.9,532.2c-8.1,5.1-13.5,14.2-13.5,24.5s5.4,19.4,13.5,24.5v-49.1Z"/>
        </g>
        <g>
          <circle class="cls-30" cx="174.4" cy="655.7" r="35.2"/>
          <path class="cls-40" d="M167,625.6c-9.5,1.4-18.1,7.5-22.3,16.9s-2.9,19.9,2.4,27.9l19.9-44.9Z"/>
        </g>
        <rect class="cls-39" x="278.8" y="418.6" width="9.8" height="21.5"/>
        <rect class="cls-39" x="362.6" y="462.3" width="9.8" height="21.5"/>
        <rect class="cls-39" x="451.8" y="536.4" width="9.8" height="21.5" transform="translate(1003.9 90.4) rotate(90)"/>
        <rect class="cls-39" x="451.8" y="476.9" width="9.8" height="21.5" transform="translate(944.4 30.9) rotate(90)"/>
        <rect class="cls-39" x="327.4" y="565.3" width="9.8" height="21.5"/>
        <rect class="cls-41" x="396.9" y="662.7" width="9.8" height="21.5"/>
        <rect class="cls-39" x="423.8" y="662.7" width="9.8" height="21.5"/>
        <rect class="cls-39" x="450.1" y="662.7" width="9.8" height="21.5"/>
        <rect class="cls-39" x="330.2" y="950.3" width="9.8" height="21.5" transform="translate(-625.9 1296.1) rotate(-90)"/>
        <rect class="cls-41" x="387.5" y="968.5" width="9.8" height="21.5"/>
        <rect class="cls-20" x="302.9" y="462.3" width="31.5" height="14.6" rx="1.5" ry="1.5"/>
        <g>
          <path class="cls-42" d="M305.5,449.8h12.2v11.5h-12.2c-.7,0-1.2-.6-1.2-1.2v-9c0-.7.6-1.2,1.2-1.2Z" transform="translate(766.5 144.6) rotate(90)"/>
          <path class="cls-42" d="M320.7,449.8h12.2v11.5h-12.2c-.7,0-1.2-.6-1.2-1.2v-9c0-.7.6-1.2,1.2-1.2Z" transform="translate(781.8 129.3) rotate(90)"/>
        </g>
        <g>
          <rect class="cls-12" x="423.3" y="635.6" width="10.7" height="17.2"/>
          <rect class="cls-20" x="423.3" y="638.1" width="10.7" height="11.8"/>
        </g>
        <g>
          <rect class="cls-12" x="449.7" y="635.6" width="10.7" height="17.2"/>
          <rect class="cls-20" x="449.7" y="638.1" width="10.7" height="11.8"/>
        </g>
        <g>
          <rect class="cls-12" x="309.4" y="602.2" width="10.7" height="17.2" transform="translate(-296 925.5) rotate(-90)"/>
          <rect class="cls-20" x="309.2" y="604.8" width="10.7" height="11.8" transform="translate(-296.2 925.3) rotate(-90)"/>
        </g>
        <g>
          <rect class="cls-12" x="254.3" y="602.2" width="10.7" height="17.2" transform="translate(-351.1 870.4) rotate(-90)"/>
          <rect class="cls-20" x="254.2" y="604.8" width="10.7" height="11.8" transform="translate(-351.3 870.3) rotate(-90)"/>
        </g>
        <g>
          <rect class="cls-12" x="387.5" y="938.2" width="10.7" height="17.2"/>
          <rect class="cls-20" x="387.5" y="940.7" width="10.7" height="11.8"/>
        </g>
        <g>
          <rect class="cls-12" x="329.8" y="972.4" width="10.7" height="17.2" transform="translate(-645.9 1316.1) rotate(-90)"/>
          <rect class="cls-20" x="329.6" y="975.1" width="10.7" height="11.8" transform="translate(-646.1 1315.9) rotate(-90)"/>
        </g>
        <g>
          <rect class="cls-12" x="478.2" y="385.4" width="10.7" height="17.2"/>
          <rect class="cls-20" x="478.2" y="388" width="10.7" height="11.8"/>
        </g>
        <g>
          <rect class="cls-12" x="338.6" y="386.5" width="10.7" height="17.2"/>
          <rect class="cls-20" x="338.6" y="389" width="10.7" height="11.8"/>
        </g>
        <rect class="cls-34" x="442.1" y="499.6" width="12.2" height="32.8" rx="3.7" ry="3.7"/>
        <g>
          <rect class="cls-29" x="370.2" y="750.7" width="22.3" height="17.8" rx="2.9" ry="2.9" transform="translate(-425.5 492.1) rotate(-45)"/>
          <rect class="cls-33" x="371" y="751.4" width="20.5" height="16.4" rx="2.9" ry="2.9" transform="translate(-425.5 492.1) rotate(-45)"/>
        </g>
        <rect class="cls-43" x="375" y="726.7" width="12.2" height="11"/>
        <rect class="cls-43" x="394.6" y="726.7" width="12.2" height="11"/>
        <rect class="cls-43" x="375" y="779.6" width="12.2" height="11"/>
        <rect class="cls-43" x="394.6" y="779.6" width="12.2" height="11"/>
        <rect class="cls-16" x="326.5" y="1002.9" width="20.8" height="11" rx="2.8" ry="2.8"/>
        <g>
          <path class="cls-8" d="M31.5,373v-4.5h2.1v7.1h-1.5c-2.9-2.4-4.8-2.7-8.9-2.8v-2.5c3.4.2,5.6.7,8.3,2.7Z"/>
          <path class="cls-8" d="M28,377v4h-1.7v-4h1.7Z"/>
          <path class="cls-8" d="M25.1,382.7v2.2h5.9v-1.9h1.5c.2,1.1.5,1.8.9,2.6v1.8h-8.4v1.9h-2v-6.6h2Z"/>
          <path class="cls-8" d="M24.7,390.8c2.3,2.7,4.2,4.4,5.6,4.4s1.5-.5,1.5-1.4-.5-1.3-1-1.8l1.3-1.3c1.1,1,1.7,1.9,1.7,3.4s-1.3,3.4-3.3,3.4-3.8-1.7-5.4-3.3c0,.5.1,1.2.1,1.7v2.1h-2.1v-7.2h1.5Z"/>
          <path class="cls-8" d="M33.5,398.5v2.6l-4.8,1.1c-1.1.3-2.2.5-3.3.8h0c1.1.4,2.2.6,3.3.9l4.8,1.2v2.5l-10.4-3.2v-3l10.4-3.1Z"/>
          <path class="cls-8" d="M33.5,412v2.5h-10.4v-2.5h10.4Z"/>
          <path class="cls-8" d="M33.5,416.9v2.6l-5,2.6c-.7.4-1.5.7-2.4,1h0c1.1,0,2.6-.3,3.8-.3h3.5v2.4h-10.4v-2.6l5-2.6c.7-.4,1.5-.7,2.4-1h0c-1.2,0-2.6.3-3.8.3h-3.5v-2.4h10.4Z"/>
          <path class="cls-8" d="M33.5,427.6v3.7c0,2.3-.8,4.2-3.4,4.2s-3.6-1.9-3.6-4.1v-1.2h-3.5v-2.5h10.4ZM28.5,431.2c0,1.2.6,1.8,1.6,1.8s1.4-.7,1.4-1.9v-1h-3v1.1Z"/>
          <path class="cls-8" d="M28,437.2h5.5v2.5h-5.8c-2,0-2.7.6-2.7,1.7s.7,1.8,2.7,1.8h5.8v2.4h-5.5c-3.5,0-5.1-1.4-5.1-4.2s1.6-4.2,5.1-4.2Z"/>
          <path class="cls-8" d="M31.5,449.9v-2.8h2.1v8.1h-2.1v-2.8h-8.3v-2.5h8.3Z"/>
        </g>
        <g>
          <path class="cls-8" d="M588.9,386.6v3.8c0,2.2-.8,4.1-3.3,4.1s-2.5-.7-3-1.8l-4.1,2.3v-2.8l3.7-1.9v-1.2h-3.7v-2.5h10.4ZM584.1,390.2c0,1.2.5,1.8,1.5,1.8s1.3-.6,1.3-1.8v-1.1h-2.8v1.1Z"/>
          <path class="cls-8" d="M588.9,396.5v6.6h-2.1v-4.1h-2v3.5h-2.1v-3.5h-2.2v4.3h-2.1v-6.8h10.4Z"/>
          <path class="cls-8" d="M579.8,404.6l1.6,1.3c-.6.7-1,1.7-1,2.6s.4,1.4.9,1.4.8-.6,1.2-1.5l.6-1.3c.4-1.1,1.3-2.1,2.8-2.1s3.2,1.6,3.2,3.8-.5,2.5-1.3,3.4l-1.6-1.3c.5-.7.8-1.4.8-2.1s-.3-1.3-.8-1.3-.8.7-1.2,1.6l-.5,1.3c-.5,1.3-1.4,2.1-2.8,2.1s-3.3-1.5-3.3-4,.5-2.8,1.5-3.9Z"/>
          <path class="cls-8" d="M588.9,414.2v6.6h-2.1v-4.1h-2v3.5h-2.1v-3.5h-2.2v4.3h-2.1v-6.8h10.4Z"/>
          <path class="cls-8" d="M586.8,425v-2.8h2.1v8.1h-2.1v-2.8h-8.3v-2.5h8.3Z"/>
        </g>
        <g>
          <path class="cls-8" d="M372,1047.3v2.5h-10.4v-2.5h10.4Z"/>
          <path class="cls-8" d="M366.7,1051.7c3.5,0,5.5,2.3,5.5,5s-.6,2.4-1.4,3.2l-1.5-1.3c.5-.5.7-1.1.7-1.8,0-1.4-1.2-2.5-3.2-2.5s-3.3,1-3.3,2.4.3,1.5.9,2l-1.5,1.3c-1-.9-1.5-2.1-1.5-3.4,0-2.7,1.8-4.9,5.3-4.9Z"/>
          <path class="cls-8" d="M362.9,1060.4l1.6,1.3c-.6.7-1,1.7-1,2.6s.4,1.4.9,1.4.8-.6,1.2-1.5l.6-1.3c.4-1.1,1.3-2.1,2.8-2.1s3.2,1.6,3.2,3.8-.5,2.5-1.3,3.4l-1.6-1.3c.5-.7.8-1.4.8-2.1s-.3-1.3-.8-1.3-.8.7-1.2,1.6l-.5,1.3c-.5,1.3-1.4,2.1-2.8,2.1s-3.3-1.5-3.3-4,.5-2.8,1.5-3.9Z"/>
          <path class="cls-8" d="M372,1070v3.7c0,2.3-.8,4.2-3.4,4.2s-3.6-1.9-3.6-4.1v-1.2h-3.5v-2.5h10.4ZM367,1073.6c0,1.2.6,1.8,1.6,1.8s1.4-.7,1.4-1.9v-1h-3v1.1Z"/>
        </g>
        <path class="cls-8" d="M388.9,999.2c-1.2,1-2,2.5-2,4.2,0,3,2.5,5.5,5.5,5.5s5.5-2.5,5.5-5.5-.8-3.2-2-4.2c-.4-.4-.5-1-.1-1.4s1-.5,1.4-.1c1.6,1.4,2.7,3.5,2.7,5.8,0,4.1-3.4,7.5-7.5,7.5s-7.5-3.4-7.5-7.5,1.1-4.4,2.7-5.8c.4-.4,1.1-.3,1.4.1.4.4.3,1.1-.1,1.4h0ZM393.5,1003.4c0,.6-.4,1-1,1s-1-.4-1-1v-7c0-.6.4-1,1-1s1,.4,1,1v7Z"/>
        <polyline class="cls-7" points="36.3 530.6 43 530.6 105.6 593.2 116.4 593.2"/>
        <polyline class="cls-7" points="36.1 538.7 43 538.7 103.1 598.8 103.1 730.5 159.8 787.3 212.6 787.3 224.8 774.9 263.8 774.9"/>
        <polyline class="cls-7" points="33.6 566.2 44.9 566.2 87.1 608.3 87.1 731.3 156.9 801.2 268.6 801.2"/>
        <polyline class="cls-7" points="23.2 651.7 62.1 690.7 62.1 754.6 33.4 783.3"/>
        <line class="cls-10" x1="76.3" y1="733.4" x2="152.1" y2="809.2"/>
        <polyline class="cls-7" points="131.6 800.7 88.9 843.5 24.7 843.5"/>
        <polyline class="cls-7" points="131.6 811.4 91.6 851.4 26.3 851.4"/>
        <polyline class="cls-7" points="267.6 809.9 235 809.9 159.4 885.5 78.9 885.5 56.3 908.1 31.5 908.1"/>
        <polyline class="cls-7" points="249.7 818.9 249.7 865.3 179.9 935.1 30.8 935.1"/>
        <polyline class="cls-7" points="265 838.9 265 875.2 176.5 963.6 31.5 963.6"/>
        <polyline class="cls-7" points="273.8 838.6 273.8 877.9 159 992.7 24.7 992.7"/>
        <polyline class="cls-7" points="282.8 839.6 282.8 885.2 147.6 1020.3 30.8 1020.3"/>
        <polyline class="cls-7" points="291.3 843.6 291.3 893 135 1049.4 30.8 1049.4"/>
        <line class="cls-10" x1="329" y1="928.5" x2="292.4" y2="891.9"/>
        <polyline class="cls-7" points="331.4 944.8 306.2 919.6 280.4 919.6"/>
        <polyline class="cls-7" points="344.7 952.6 344.7 893.8 300 849.2 300 829.8"/>
        <polyline class="cls-7" points="278.7 1067.4 262.4 1051.1 262.4 986.3 287.7 961.1"/>
        <polyline class="cls-7" points="308.5 838.2 308.5 849 362 902.5 401.8 902.5 507.1 1007.9 507.1 1037 518.9 1048.8 564 1048.8"/>
        <polyline class="cls-7" points="317.3 839.3 317.3 850.1 359.6 892.4 421.7 892.4 568.9 1039.7"/>
        <polyline class="cls-7" points="327.4 838.8 368.2 879.6 433.8 879.6 574.2 1020"/>
        <polyline class="cls-7" points="346 818.2 400.4 818.2 571.5 989.2"/>
        <polyline class="cls-7" points="347.3 809.9 407.5 809.9 573.8 976.1"/>
        <polyline class="cls-7" points="496.3 829.7 489.3 822.7 443.3 822.7"/>
        <polyline class="cls-7" points="347.3 766.2 358.5 766.2 367.3 775.1 378 775.1"/>
        <polyline class="cls-7" points="347.1 757.3 357.1 757.3 367.7 746.7 380.9 746.7"/>
        <polyline class="cls-7" points="325.7 733.8 342.1 717.4 412 717.4 567.1 872.4"/>
        <polyline class="cls-7" points="317.2 735.6 317.2 731 336.7 711.5 415 711.5 575.3 871.9"/>
        <polyline class="cls-7" points="308.5 735.5 308.5 727.1 328.8 706.9 418.7 706.9 575.1 863.2"/>
        <polyline class="cls-7" points="299.9 734 299.9 725.7 323.7 702 419.1 702 576.6 859.5"/>
        <polyline class="cls-7" points="291.3 733.5 291.3 721.5 316.2 696.6 420.3 696.6 580.7 857"/>
        <polyline class="cls-7" points="282.4 735.1 282.4 713.4 303.6 693.3 425.3 693.3 480.4 748.4 580.7 748.4"/>
        <polyline class="cls-7" points="273.8 733.3 273.8 710 297.5 688.1 427 688.1 458.3 719.4 579.3 719.4"/>
        <polyline class="cls-7" points="265 732.8 265 708.8 287.1 686.8 290.4 683.4"/>
        <polyline class="cls-7" points="221.5 750.9 221.5 721.8 289.8 653.5 315.7 653.5 322.6 660.5 372.5 660.5 399.9 633.1 427 633.1"/>
        <polyline class="cls-7" points="210.5 648 314.6 648 335.4 627.2 354.6 627.2"/>
        <polyline class="cls-7" points="286.9 577.4 286.9 588.2 277.9 597.2 260.5 597.2 247.9 584.5 247.9 575.3 247.9 550.2"/>
        <polyline class="cls-7" points="227.1 519.5 227.1 511.2 232.6 505.7 249.6 505.7"/>
        <polyline class="cls-7" points="191.4 497.2 237.7 497.2 258.2 476.6 258.2 454.8"/>
        <polyline class="cls-7" points="319.4 483.6 333.3 483.6 341.9 475 341.9 442.5 313.9 414.5 298.2 414.5 276.2 392.5"/>
        <polyline class="cls-7" points="286.2 389 300 402.8 311.5 402.8"/>
        <polyline class="cls-7" points="323.5 386.5 323.5 406.7 344.7 427.9 380.2 427.9 384.8 423.2 384.8 394"/>
        <path class="cls-7" d="M402.8,504v-48.4"/>
        <path class="cls-7" d="M418.4,455.6v22"/>
        <polyline class="cls-7" points="415.9 511.2 428.3 511.2 440.2 499.3"/>
        <polyline class="cls-7" points="415.8 525 428.7 525 440.8 537.1"/>
        <line class="cls-7" x1="416.3" y1="566.2" x2="439.9" y2="566.2"/>
        <line class="cls-7" x1="414.1" y1="580.2" x2="442.1" y2="580.2"/>
        <polyline class="cls-7" points="415.8 593.6 427 593.6 442.1 593.6"/>
        <line class="cls-7" x1="563.1" y1="456.4" x2="530.6" y2="489"/>
        <g>
          <rect class="cls-20" x="257.5" y="750" width="76" height="76" rx="5.9" ry="5.9"/>
          <circle class="cls-2" cx="322.6" cy="814.1" r="4.8"/>
          <g>
            <path class="cls-42" d="M240.6,754.6h16.9v5.9h-16.9c-.7,0-1.2-.6-1.2-1.2v-3.4c0-.7.6-1.2,1.2-1.2Z"/>
            <path class="cls-42" d="M240.6,763.3h16.9v5.9h-16.9c-.7,0-1.2-.6-1.2-1.2v-3.4c0-.7.6-1.2,1.2-1.2Z"/>
            <path class="cls-42" d="M240.6,772h16.9v5.9h-16.9c-.7,0-1.2-.6-1.2-1.2v-3.4c0-.7.6-1.2,1.2-1.2Z"/>
            <path class="cls-42" d="M240.6,780.7h16.9v5.9h-16.9c-.7,0-1.2-.6-1.2-1.2v-3.4c0-.7.6-1.2,1.2-1.2Z"/>
            <path class="cls-42" d="M240.6,789.4h16.9v5.9h-16.9c-.7,0-1.2-.6-1.2-1.2v-3.4c0-.7.6-1.2,1.2-1.2Z"/>
            <path class="cls-42" d="M240.6,798.1h16.9v5.9h-16.9c-.7,0-1.2-.6-1.2-1.2v-3.4c0-.7.6-1.2,1.2-1.2Z"/>
            <path class="cls-42" d="M240.6,806.8h16.9v5.9h-16.9c-.7,0-1.2-.6-1.2-1.2v-3.4c0-.7.6-1.2,1.2-1.2Z"/>
            <path class="cls-42" d="M240.6,815.5h16.9v5.9h-16.9c-.7,0-1.2-.6-1.2-1.2v-3.4c0-.7.6-1.2,1.2-1.2Z"/>
          </g>
          <g>
            <path class="cls-42" d="M318.1,738h16.9v5.9h-16.9c-.7,0-1.2-.6-1.2-1.2v-3.4c0-.7.6-1.2,1.2-1.2Z" transform="translate(1066.8 415) rotate(90)"/>
            <path class="cls-42" d="M309.4,738h16.9v5.9h-16.9c-.7,0-1.2-.6-1.2-1.2v-3.4c0-.7.6-1.2,1.2-1.2Z" transform="translate(1058.1 423.7) rotate(90)"/>
            <path class="cls-42" d="M300.7,738h16.9v5.9h-16.9c-.7,0-1.2-.6-1.2-1.2v-3.4c0-.7.6-1.2,1.2-1.2Z" transform="translate(1049.4 432.4) rotate(90)"/>
            <path class="cls-42" d="M292,738h16.9v5.9h-16.9c-.7,0-1.2-.6-1.2-1.2v-3.4c0-.7.6-1.2,1.2-1.2Z" transform="translate(1040.7 441.1) rotate(90)"/>
            <path class="cls-42" d="M283.3,738h16.9v5.9h-16.9c-.7,0-1.2-.6-1.2-1.2v-3.4c0-.7.6-1.2,1.2-1.2Z" transform="translate(1032.1 449.8) rotate(90)"/>
            <path class="cls-42" d="M274.6,738h16.9v5.9h-16.9c-.7,0-1.2-.6-1.2-1.2v-3.4c0-.7.6-1.2,1.2-1.2Z" transform="translate(1023.4 458.5) rotate(90)"/>
            <path class="cls-42" d="M265.9,738h16.9v5.9h-16.9c-.7,0-1.2-.6-1.2-1.2v-3.4c0-.7.6-1.2,1.2-1.2Z" transform="translate(1014.7 467.2) rotate(90)"/>
            <path class="cls-42" d="M257.2,738h16.9v5.9h-16.9c-.7,0-1.2-.6-1.2-1.2v-3.4c0-.7.6-1.2,1.2-1.2Z" transform="translate(1006 475.9) rotate(90)"/>
          </g>
          <g>
            <path class="cls-42" d="M257.2,832.1h16.9v5.9h-16.9c-.7,0-1.2-.6-1.2-1.2v-3.4c0-.7.6-1.2,1.2-1.2Z" transform="translate(-570 1100.1) rotate(-90)"/>
            <path class="cls-42" d="M265.9,832.1h16.9v5.9h-16.9c-.7,0-1.2-.6-1.2-1.2v-3.4c0-.7.6-1.2,1.2-1.2Z" transform="translate(-561.3 1108.8) rotate(-90)"/>
            <path class="cls-42" d="M274.6,832.1h16.9v5.9h-16.9c-.7,0-1.2-.6-1.2-1.2v-3.4c0-.7.6-1.2,1.2-1.2Z" transform="translate(-552.6 1117.5) rotate(-90)"/>
            <path class="cls-42" d="M283.3,832.1h16.9v5.9h-16.9c-.7,0-1.2-.6-1.2-1.2v-3.4c0-.7.6-1.2,1.2-1.2Z" transform="translate(-543.9 1126.2) rotate(-90)"/>
            <path class="cls-42" d="M292,832.1h16.9v5.9h-16.9c-.7,0-1.2-.6-1.2-1.2v-3.4c0-.7.6-1.2,1.2-1.2Z" transform="translate(-535.2 1134.8) rotate(-90)"/>
            <path class="cls-42" d="M300.7,832.1h16.9v5.9h-16.9c-.7,0-1.2-.6-1.2-1.2v-3.4c0-.7.6-1.2,1.2-1.2Z" transform="translate(-526.5 1143.5) rotate(-90)"/>
            <path class="cls-42" d="M309.4,832.1h16.9v5.9h-16.9c-.7,0-1.2-.6-1.2-1.2v-3.4c0-.7.6-1.2,1.2-1.2Z" transform="translate(-517.8 1152.2) rotate(-90)"/>
            <path class="cls-42" d="M318.1,832.1h16.9v5.9h-16.9c-.7,0-1.2-.6-1.2-1.2v-3.4c0-.7.6-1.2,1.2-1.2Z" transform="translate(-509.1 1160.9) rotate(-90)"/>
          </g>
          <g>
            <path class="cls-42" d="M334.7,815.2h16.9v5.9h-16.9c-.7,0-1.2-.6-1.2-1.2v-3.4c0-.7.6-1.2,1.2-1.2Z" transform="translate(685 1636.3) rotate(180)"/>
            <path class="cls-42" d="M334.7,806.5h16.9v5.9h-16.9c-.7,0-1.2-.6-1.2-1.2v-3.4c0-.7.6-1.2,1.2-1.2Z" transform="translate(685 1618.9) rotate(180)"/>
            <path class="cls-42" d="M334.7,797.8h16.9v5.9h-16.9c-.7,0-1.2-.6-1.2-1.2v-3.4c0-.7.6-1.2,1.2-1.2Z" transform="translate(685 1601.5) rotate(180)"/>
            <path class="cls-42" d="M334.7,789.1h16.9v5.9h-16.9c-.7,0-1.2-.6-1.2-1.2v-3.4c0-.7.6-1.2,1.2-1.2Z" transform="translate(685 1584.1) rotate(180)"/>
            <path class="cls-42" d="M334.7,780.4h16.9v5.9h-16.9c-.7,0-1.2-.6-1.2-1.2v-3.4c0-.7.6-1.2,1.2-1.2Z" transform="translate(685 1566.7) rotate(180)"/>
            <path class="cls-42" d="M334.7,771.7h16.9v5.9h-16.9c-.7,0-1.2-.6-1.2-1.2v-3.4c0-.7.6-1.2,1.2-1.2Z" transform="translate(685 1549.3) rotate(180)"/>
            <path class="cls-42" d="M334.7,763h16.9v5.9h-16.9c-.7,0-1.2-.6-1.2-1.2v-3.4c0-.7.6-1.2,1.2-1.2Z" transform="translate(685 1531.9) rotate(180)"/>
            <path class="cls-42" d="M334.7,754.3h16.9v5.9h-16.9c-.7,0-1.2-.6-1.2-1.2v-3.4c0-.7.6-1.2,1.2-1.2Z" transform="translate(685 1514.5) rotate(180)"/>
          </g>
        </g>
        <path class="cls-8" d="M247.3,913.2v7.2c0,1.3,0,2.5-.1,3.5,0,.8-.2,1.6-.4,2.4-.2.7-.5,1.3-.8,1.9-.5.7-1,1.4-1.6,2-.6.7-1.5,1.2-2.5,1.6-1.1.3-2.3.5-3.7.5h-6v-7.4h3.7c.5,0,.9,0,1.4-.2.3-.1.6-.3.9-.6.2-.3.4-.7.5-1.1.1-.6.2-1.2.2-1.7v-7.9h8.5ZM232.9,936.6h95v3.1h-95v-3.1ZM247.3,901.2v7.4h-8.5v-7.4h8.5ZM267.6,900.7c1.1,0,2.3,0,3.4.3,1,.2,2.1.5,3.1.9,1,.4,1.9.9,2.7,1.4.9.6,1.7,1.2,2.4,2,.7.7,1.4,1.6,1.9,2.4.6.9,1,1.8,1.4,2.7.4,1,.7,2,.8,3.1.2,1.1.3,2.3.3,3.4,0,1.1,0,2.2-.3,3.3-.2,1-.5,2-.8,3-.4.9-.8,1.9-1.4,2.7-.6.9-1.2,1.7-1.9,2.4-.7.7-1.5,1.4-2.4,2-.8.6-1.7,1-2.7,1.4-1,.4-2,.7-3,.9-1.1.2-2.2.3-3.3.3-1.1,0-2.3,0-3.4-.3-1-.2-2.1-.5-3.1-.8-1-.4-1.9-.8-2.7-1.4-1.7-1.1-3.2-2.6-4.4-4.4-.6-.9-1-1.8-1.4-2.7-.4-1-.7-2-.9-3-.4-2.2-.4-4.5,0-6.7.2-1,.5-2.1.9-3,.4-1,.8-1.9,1.4-2.7.6-.9,1.2-1.7,2-2.5.7-.8,1.5-1.4,2.4-2,.8-.6,1.7-1.1,2.7-1.4,1-.4,2-.7,3-.9,1.1-.2,2.2-.3,3.3-.3h0ZM267.6,907.8c-1,0-2,.2-3,.6-.9.4-1.6,1-2.2,1.8-.6.8-1.1,1.8-1.4,2.8-.3,1.1-.5,2.3-.5,3.7,0,1.3.1,2.5.5,3.8.3,1,.8,2,1.4,2.9.6.8,1.4,1.4,2.3,1.8.9.4,1.9.6,3,.6,1,0,2-.2,3-.6.9-.4,1.6-1,2.2-1.8.6-.9,1.1-1.8,1.4-2.8.3-1.1.5-2.4.5-3.8,0-1.2-.1-2.5-.5-3.7-.3-1-.8-2-1.4-2.8-.6-.8-1.4-1.4-2.3-1.8-.9-.4-1.9-.6-3-.6h0ZM287,901.2h8.5v7.7c0,1.6.3,2.8.9,3.6s1.6,1.2,2.8,1.2c1.3,0,2.3-.4,2.9-1.3s1-2.1,1-3.8v-7.4h8.4v5.4c0,1.3,0,2.5-.2,3.6,0,.9-.2,1.8-.5,2.7-.3.9-.6,1.7-1.1,2.5-.6,1-1.3,1.9-2,2.7-.4.5-.9.9-1.5,1.3-.6.4-1.2.7-1.9.9-.8.3-1.6.4-2.4.5-.9.1-1.9.2-2.8.2-.9,0-1.8,0-2.7-.2-.8-.1-1.5-.3-2.3-.5-.7-.2-1.3-.5-1.9-.9-.5-.3-1-.7-1.5-1.2-.8-.8-1.5-1.7-2.1-2.6-.5-.7-.9-1.5-1.2-2.4-.3-.9-.4-1.8-.5-2.7-.1-1.1-.2-2.3-.2-3.4v-6.1ZM306.3,924.8v7.4h-14.2v-7.4h14.2ZM310.3,894.5h56.8v2.9h-56.8v-2.9ZM313.9,914.7h18.3v7.3h-18.3v-7.3ZM344,901.2v7.4h-8.5v-7.4h8.5ZM344,913.2v19.1h-8.5v-19.1h8.5ZM368.5,901.2v7.4h-19.9v-7.4h19.9ZM350,913.2h8.4v7.7c0,.7,0,1.3.2,2,.1.5.3.9.5,1.2.2.2.6.4,1.1.6.6.1,1.2.2,1.8.2h5.5v7.4h-7.9c-.8,0-1.6,0-2.3-.2-.7,0-1.4-.3-2-.5-.6-.2-1.1-.5-1.7-.8-.5-.3-.9-.7-1.3-1.1-.4-.4-.7-.9-1-1.5-.3-.6-.5-1.2-.7-1.9-.2-.8-.3-1.5-.4-2.3,0-.9-.1-1.8-.1-2.7v-8.1Z"/>
        <rect class="cls-39" x="209.1" y="741.7" width="9.8" height="21.5" transform="translate(-538.4 966.5) rotate(-90)"/>
        <rect class="cls-39" x="349.7" y="625.5" width="9.8" height="21.5"/>
        <g>
          <rect class="cls-20" x="268.3" y="528.9" width="50.5" height="39.3" rx="2.5" ry="2.5"/>
          <circle class="cls-2" cx="272.5" cy="560.2" r="2.7"/>
          <g>
            <path class="cls-42" d="M268.1,571.8h12.2v6.1h-12.2c-.7,0-1.2-.6-1.2-1.2v-3.6c0-.7.6-1.2,1.2-1.2Z" transform="translate(-301.3 848.5) rotate(-90)"/>
            <path class="cls-42" d="M281.4,571.8h12.2v6.1h-12.2c-.7,0-1.2-.6-1.2-1.2v-3.6c0-.7.6-1.2,1.2-1.2Z" transform="translate(-288 861.8) rotate(-90)"/>
            <path class="cls-42" d="M294.7,571.8h12.2v6.1h-12.2c-.7,0-1.2-.6-1.2-1.2v-3.6c0-.7.6-1.2,1.2-1.2Z" transform="translate(-274.7 875) rotate(-90)"/>
            <path class="cls-42" d="M308,571.8h12.2v6.1h-12.2c-.7,0-1.2-.6-1.2-1.2v-3.6c0-.7.6-1.2,1.2-1.2Z" transform="translate(-261.4 888.3) rotate(-90)"/>
          </g>
          <g>
            <path class="cls-42" d="M308,519.1h12.2v6.1h-12.2c-.7,0-1.2-.6-1.2-1.2v-3.6c0-.7.6-1.2,1.2-1.2Z" transform="translate(835.6 208.7) rotate(90)"/>
            <path class="cls-42" d="M294.7,519.1h12.2v6.1h-12.2c-.7,0-1.2-.6-1.2-1.2v-3.6c0-.7.6-1.2,1.2-1.2Z" transform="translate(822.3 222) rotate(90)"/>
            <path class="cls-42" d="M281.4,519.1h12.2v6.1h-12.2c-.7,0-1.2-.6-1.2-1.2v-3.6c0-.7.6-1.2,1.2-1.2Z" transform="translate(809 235.3) rotate(90)"/>
            <path class="cls-42" d="M268.1,519.1h12.2v6.1h-12.2c-.7,0-1.2-.6-1.2-1.2v-3.6c0-.7.6-1.2,1.2-1.2Z" transform="translate(795.7 248.6) rotate(90)"/>
          </g>
        </g>
        <g>
          <g>
            <path class="cls-42" d="M222.3,546.4h12.2v9.6h-12.2c-.7,0-1.2-.6-1.2-1.2v-7.1c0-.7.6-1.2,1.2-1.2Z" transform="translate(-323.4 779) rotate(-90)"/>
            <path class="cls-42" d="M242,546.4h12.2v9.6h-12.2c-.7,0-1.2-.6-1.2-1.2v-7.1c0-.7.6-1.2,1.2-1.2Z" transform="translate(-303.7 798.7) rotate(-90)"/>
          </g>
          <g>
            <path class="cls-42" d="M221.7,518.4h12.2v6.1h-12.2c-.7,0-1.2-.6-1.2-1.2v-3.6c0-.7.6-1.2,1.2-1.2Z" transform="translate(748.6 294.3) rotate(90)"/>
            <path class="cls-42" d="M232.2,518.4h12.2v6.1h-12.2c-.7,0-1.2-.6-1.2-1.2v-3.6c0-.7.6-1.2,1.2-1.2Z" transform="translate(759.1 283.8) rotate(90)"/>
            <path class="cls-42" d="M242.7,518.4h12.2v6.1h-12.2c-.7,0-1.2-.6-1.2-1.2v-3.6c0-.7.6-1.2,1.2-1.2Z" transform="translate(769.6 273.3) rotate(90)"/>
          </g>
          <rect class="cls-20" x="222.4" y="528.1" width="30.4" height="16.3" rx=".7" ry=".7"/>
        </g>
        <rect class="cls-39" x="233.9" y="564.5" width="9.8" height="21.5" transform="translate(-336.5 814.1) rotate(-90)"/>
        <g>
          <rect class="cls-20" x="365.7" y="505.8" width="34.4" height="107"/>
          <g>
            <path class="cls-42" d="M348.9,508.3h16.9v5.9h-16.9c-.7,0-1.2-.6-1.2-1.2v-3.4c0-.7.6-1.2,1.2-1.2Z"/>
            <path class="cls-42" d="M348.9,522h16.9v5.9h-16.9c-.7,0-1.2-.6-1.2-1.2v-3.4c0-.7.6-1.2,1.2-1.2Z"/>
            <path class="cls-42" d="M348.9,535.8h16.9v5.9h-16.9c-.7,0-1.2-.6-1.2-1.2v-3.4c0-.7.6-1.2,1.2-1.2Z"/>
            <path class="cls-42" d="M348.9,549.5h16.9v5.9h-16.9c-.7,0-1.2-.6-1.2-1.2v-3.4c0-.7.6-1.2,1.2-1.2Z"/>
            <path class="cls-42" d="M348.9,563.2h16.9v5.9h-16.9c-.7,0-1.2-.6-1.2-1.2v-3.4c0-.7.6-1.2,1.2-1.2Z"/>
            <path class="cls-42" d="M348.9,576.9h16.9v5.9h-16.9c-.7,0-1.2-.6-1.2-1.2v-3.4c0-.7.6-1.2,1.2-1.2Z"/>
            <path class="cls-42" d="M348.9,590.7h16.9v5.9h-16.9c-.7,0-1.2-.6-1.2-1.2v-3.4c0-.7.6-1.2,1.2-1.2Z"/>
            <path class="cls-42" d="M348.9,604.4h16.9v5.9h-16.9c-.7,0-1.2-.6-1.2-1.2v-3.4c0-.7.6-1.2,1.2-1.2Z"/>
          </g>
          <g>
            <path class="cls-42" d="M401.3,604.4h16.9v5.9h-16.9c-.7,0-1.2-.6-1.2-1.2v-3.4c0-.7.6-1.2,1.2-1.2Z" transform="translate(818.3 1214.7) rotate(180)"/>
            <path class="cls-42" d="M401.3,590.7h16.9v5.9h-16.9c-.7,0-1.2-.6-1.2-1.2v-3.4c0-.7.6-1.2,1.2-1.2Z" transform="translate(818.3 1187.2) rotate(180)"/>
            <path class="cls-42" d="M401.3,576.9h16.9v5.9h-16.9c-.7,0-1.2-.6-1.2-1.2v-3.4c0-.7.6-1.2,1.2-1.2Z" transform="translate(818.3 1159.8) rotate(180)"/>
            <path class="cls-42" d="M401.3,563.2h16.9v5.9h-16.9c-.7,0-1.2-.6-1.2-1.2v-3.4c0-.7.6-1.2,1.2-1.2Z" transform="translate(818.3 1132.3) rotate(180)"/>
            <path class="cls-42" d="M401.3,549.5h16.9v5.9h-16.9c-.7,0-1.2-.6-1.2-1.2v-3.4c0-.7.6-1.2,1.2-1.2Z" transform="translate(818.3 1104.9) rotate(180)"/>
            <path class="cls-42" d="M401.3,535.8h16.9v5.9h-16.9c-.7,0-1.2-.6-1.2-1.2v-3.4c0-.7.6-1.2,1.2-1.2Z" transform="translate(818.3 1077.4) rotate(180)"/>
            <path class="cls-42" d="M401.3,522h16.9v5.9h-16.9c-.7,0-1.2-.6-1.2-1.2v-3.4c0-.7.6-1.2,1.2-1.2Z" transform="translate(818.3 1049.9) rotate(180)"/>
            <path class="cls-42" d="M401.3,508.3h16.9v5.9h-16.9c-.7,0-1.2-.6-1.2-1.2v-3.4c0-.7.6-1.2,1.2-1.2Z" transform="translate(818.3 1022.5) rotate(180)"/>
          </g>
          <circle class="cls-2" cx="392.1" cy="602.9" r="4.9"/>
        </g>
        <rect class="cls-39" x="444.7" y="552.5" width="9.8" height="21.5" transform="translate(1012.9 113.6) rotate(90)"/>
        <g>
          <rect class="cls-12" x="444.3" y="571.8" width="10.7" height="17.2" transform="translate(1030.1 130.7) rotate(90)"/>
          <rect class="cls-20" x="444.5" y="574.5" width="10.7" height="11.8" transform="translate(1030.2 130.6) rotate(90)"/>
        </g>
        <g>
          <rect class="cls-12" x="444.3" y="589.4" width="10.7" height="17.2" transform="translate(1047.6 148.3) rotate(90)"/>
          <rect class="cls-20" x="444.5" y="592.1" width="10.7" height="11.8" transform="translate(1047.8 148.2) rotate(90)"/>
        </g>
        <g>
          <rect class="cls-12" x="397.5" y="440.6" width="10.7" height="17.2"/>
          <rect class="cls-20" x="397.5" y="443.1" width="10.7" height="11.8"/>
        </g>
        <g>
          <rect class="cls-12" x="413" y="440.4" width="10.7" height="17.2"/>
          <rect class="cls-20" x="413" y="442.9" width="10.7" height="11.8"/>
        </g>
        <path class="cls-42" d="M312.3,477.9h12.2v11.5h-12.2c-.7,0-1.2-.6-1.2-1.2v-9c0-.7.6-1.2,1.2-1.2Z" transform="translate(-165.9 801.4) rotate(-90)"/>
        <g>
          <rect class="cls-11" x="274.9" y="358.7" width="51.5" height="35.1"/>
          <rect class="cls-18" x="287.3" y="358.7" width="26.7" height="35.1"/>
        </g>
        <g>
          <path class="cls-30" d="M370.3,324.5h0s87.6,0,87.6,0h0c2.7,1.4,4.4,4.2,4.4,7.3v70.1c0,1-.8,1.8-1.8,1.8h-92.8c-1,0-1.8-.8-1.8-1.8v-70.1c0-3,1.7-5.8,4.4-7.3Z"/>
          <g>
            <path class="cls-28" d="M445,397.9h0c0-1.3-1.1-2.4-2.4-2.4h-9.9c-.8,0-1.5-.7-1.5-1.5v-2.1c0-.8.7-1.5,1.5-1.5h9.9c1.3,0,2.4-1.1,2.4-2.4h0c0-1.3-1.1-2.4-2.4-2.4h-14c-1.3,0-2.4,1.1-2.4,2.4v10c0,1.3,1.1,2.4,2.4,2.4h14c1.3,0,2.4-1.1,2.4-2.4Z"/>
            <path class="cls-28" d="M383.1,387.9h0c0,1.3,1.1,2.4,2.4,2.4h9.9c.8,0,1.5.7,1.5,1.5v2.1c0,.8-.7,1.5-1.5,1.5h-9.9c-1.3,0-2.4,1.1-2.4,2.4h0c0,1.3,1.1,2.4,2.4,2.4h14c1.3,0,2.4-1.1,2.4-2.4v-10c0-1.3-1.1-2.4-2.4-2.4h-14c-1.3,0-2.4,1.1-2.4,2.4Z"/>
          </g>
        </g>
        <g>
          <rect class="cls-20" x="198.4" y="405.5" width="69.5" height="37" rx="1.2" ry="1.2"/>
          <g>
            <path class="cls-42" d="M199.9,448.6h16.9v5.9h-16.9c-.7,0-1.2-.6-1.2-1.2v-3.4c0-.7.6-1.2,1.2-1.2Z" transform="translate(-243.8 659.3) rotate(-90)"/>
            <path class="cls-42" d="M225.3,448.6h16.9v5.9h-16.9c-.7,0-1.2-.6-1.2-1.2v-3.4c0-.7.6-1.2,1.2-1.2Z" transform="translate(-218.4 684.6) rotate(-90)"/>
            <path class="cls-42" d="M250.7,448.6h16.9v5.9h-16.9c-.7,0-1.2-.6-1.2-1.2v-3.4c0-.7.6-1.2,1.2-1.2Z" transform="translate(-193 710) rotate(-90)"/>
          </g>
          <path class="cls-42" d="M219.4,375h25.6v34.3h-25.6c-.7,0-1.2-.6-1.2-1.2v-31.8c0-.7.6-1.2,1.2-1.2Z" transform="translate(623.6 160.6) rotate(90)"/>
        </g>
        <rect class="cls-20" x="150.6" y="483.6" width="48.4" height="27.1"/>
        <g>
          <rect class="cls-30" x="16.2" y="526.8" width="20" height="20"/>
          <circle class="cls-27" cx="26.3" cy="536.8" r="7.4"/>
          <rect class="cls-30" x="16.2" y="555.5" width="20" height="20"/>
          <circle class="cls-27" cx="26.3" cy="565.5" r="7.4"/>
          <rect class="cls-30" x="16.2" y="584.1" width="20" height="20"/>
          <circle class="cls-27" cx="26.3" cy="594.1" r="7.4"/>
          <rect class="cls-30" x="16.2" y="612.8" width="20" height="20"/>
          <circle class="cls-27" cx="26.3" cy="622.8" r="7.4"/>
        </g>
        <g>
          <rect class="cls-17" x="9.5" y="639.2" width="33.4" height="240.9"/>
          <rect x="16.4" y="641.9" width="19.6" height="19.6"/>
          <rect x="16.4" y="672.4" width="19.6" height="19.6"/>
          <rect x="16.4" y="702.9" width="19.6" height="19.6"/>
          <rect x="16.4" y="733.4" width="19.6" height="19.6"/>
          <rect x="16.4" y="763.9" width="19.6" height="19.6"/>
          <rect x="16.4" y="794.4" width="19.6" height="19.6"/>
          <rect x="16.4" y="825" width="19.6" height="19.6"/>
          <rect x="16.4" y="855.5" width="19.6" height="19.6"/>
        </g>
        <g>
          <rect class="cls-17" x="9.5" y="885.8" width="33.4" height="178.8"/>
          <g>
            <rect x="16.4" y="889" width="19.6" height="19.6"/>
            <rect x="16.4" y="919.6" width="19.6" height="19.6"/>
            <rect x="16.4" y="950.1" width="19.6" height="19.6"/>
            <rect x="16.4" y="980.6" width="19.6" height="19.6"/>
            <rect x="16.4" y="1011.1" width="19.6" height="19.6"/>
            <rect x="16.4" y="1041.6" width="19.6" height="19.6"/>
          </g>
        </g>
        <g>
          <path class="cls-8" d="M50.6,677.4h2.5v10.4h-2.5v-10.4Z"/>
          <path class="cls-8" d="M55,682.6c0-3.4,1.9-5.4,4.8-5.4s4.8,2,4.8,5.4-1.9,5.4-4.8,5.4-4.8-2-4.8-5.4ZM62,682.6c0-2-.8-3.2-2.2-3.2s-2.2,1.2-2.2,3.2.9,3.3,2.2,3.3,2.2-1.3,2.2-3.3Z"/>
          <path class="cls-8" d="M66.5,677.4h3.8c2.2,0,4.1.8,4.1,3.3s-.7,2.5-1.8,3l2.3,4.1h-2.8l-1.9-3.7h-1.2v3.7h-2.5v-10.4ZM70.1,682.2c1.2,0,1.8-.5,1.8-1.5s-.6-1.3-1.8-1.3h-1.1v2.8h1.1Z"/>
          <path class="cls-8" d="M76.3,677.4h6.6v2.1h-4.1v2h3.5v2.1h-3.5v2.2h4.3v2.1h-6.8v-10.4Z"/>
          <path class="cls-8" d="M85.1,677.4h6.7v2.1h-4.2v2.3h3.6v2.1h-3.6v4h-2.5v-10.4Z"/>
        </g>
        <g>
          <path class="cls-8" d="M51.8,707.9h3.8c2.2,0,4.1.8,4.1,3.3s-.7,2.5-1.8,3l2.3,4.1h-2.8l-1.9-3.7h-1.2v3.7h-2.5v-10.4ZM55.4,712.7c1.2,0,1.8-.5,1.8-1.5s-.6-1.3-1.8-1.3h-1.1v2.8h1.1Z"/>
          <path class="cls-8" d="M61.7,707.9h6.6v2.1h-4.1v2h3.5v2.1h-3.5v2.2h4.3v2.1h-6.8v-10.4Z"/>
          <path class="cls-8" d="M69.8,717l1.3-1.6c.7.6,1.7,1,2.6,1s1.4-.4,1.4-.9-.6-.8-1.5-1.2l-1.3-.6c-1.1-.4-2.1-1.3-2.1-2.8s1.6-3.2,3.8-3.2,2.5.5,3.4,1.3l-1.3,1.6c-.7-.5-1.4-.8-2.1-.8s-1.3.3-1.3.8.7.8,1.6,1.2l1.3.5c1.3.5,2.1,1.4,2.1,2.8s-1.5,3.3-4,3.3-2.8-.5-3.9-1.5Z"/>
          <path class="cls-8" d="M79.4,707.9h6.6v2.1h-4.1v2h3.5v2.1h-3.5v2.2h4.3v2.1h-6.8v-10.4Z"/>
          <path class="cls-8" d="M90.3,710h-2.8v-2.1h8.1v2.1h-2.8v8.3h-2.5v-8.3Z"/>
        </g>
        <g>
          <path class="cls-8" d="M52.2,747.6l1.1-1.6c.6.6,1.4,1,2.2,1s1.6-.4,1.6-1.2-.5-1.4-2.7-1.4v-1.8c1.8,0,2.3-.5,2.3-1.4s-.4-1.1-1.2-1.1-1.2.3-1.9.9l-1.2-1.5c.9-.8,2-1.3,3.2-1.3,2.2,0,3.6,1,3.6,2.9s-.6,1.8-1.7,2.3h0c1.2.4,2,1.2,2,2.6,0,2-1.8,3-3.8,3s-2.8-.6-3.6-1.4Z"/>
          <path class="cls-8" d="M61.3,747.5c0-.9.6-1.5,1.5-1.5s1.5.7,1.5,1.5-.6,1.5-1.5,1.5-1.5-.7-1.5-1.5Z"/>
          <path class="cls-8" d="M65.6,747.6l1.1-1.6c.6.6,1.4,1,2.2,1s1.6-.4,1.6-1.2-.5-1.4-2.7-1.4v-1.8c1.8,0,2.3-.5,2.3-1.4s-.4-1.1-1.2-1.1-1.2.3-1.9.9l-1.2-1.5c.9-.8,2-1.3,3.2-1.3,2.2,0,3.6,1,3.6,2.9s-.6,1.8-1.7,2.3h0c1.2.4,2,1.2,2,2.6,0,2-1.8,3-3.8,3s-2.8-.6-3.6-1.4Z"/>
          <path class="cls-8" d="M73.6,738.4h2.6l1.1,4.8c.3,1.1.5,2.2.8,3.3h0c.3-1.1.5-2.2.8-3.3l1.2-4.8h2.5l-3.2,10.4h-3l-3.1-10.4Z"/>
        </g>
        <g>
          <path class="cls-8" d="M53.4,778.1l1.1-1.6c.6.6,1.3,1,2.1,1s1.6-.6,1.6-1.6-.6-1.6-1.5-1.6-.9.1-1.5.5l-1.1-.7.3-5.2h5.8v2.1h-3.7v1.8c.2-.1.5-.2.9-.2,1.8,0,3.2,1,3.2,3.3s-1.8,3.7-3.8,3.7-2.8-.6-3.6-1.4Z"/>
          <path class="cls-8" d="M61.5,768.9h2.6l1.1,4.8c.3,1.1.5,2.2.8,3.3h0c.3-1.1.5-2.2.8-3.3l1.2-4.8h2.5l-3.2,10.4h-3l-3.1-10.4Z"/>
        </g>
        <g>
          <path class="cls-8" d="M55,804.7c0-3.5,2.3-5.5,5.1-5.5s2.6.6,3.3,1.4l-1.3,1.5c-.5-.5-1.1-.7-1.9-.7-1.5,0-2.7,1.2-2.7,3.2s.9,3.3,2.9,3.3.8,0,1-.3v-1.7h-1.7v-2h3.9v4.9c-.7.7-2,1.3-3.5,1.3-2.9,0-5.2-1.8-5.2-5.3Z"/>
          <path class="cls-8" d="M65.7,799.4h2.6l2.6,5c.4.7.7,1.5,1,2.4h0c-.1-1.1-.3-2.6-.3-3.8v-3.5h2.4v10.4h-2.6l-2.6-5c-.4-.7-.7-1.5-1-2.4h0c.1,1.2.3,2.6.3,3.8v3.5h-2.4v-10.4Z"/>
          <path class="cls-8" d="M76.4,799.4h3c3.2,0,5.3,1.6,5.3,5.2s-2.1,5.2-5.1,5.2h-3.1v-10.4ZM79.3,807.9c1.7,0,2.9-.8,2.9-3.2s-1.2-3.2-2.9-3.2h-.4v6.4h.4Z"/>
        </g>
        <g>
          <path class="cls-8" d="M56.3,835.2c0-3.5,2.3-5.5,5.1-5.5s2.6.6,3.3,1.4l-1.3,1.5c-.5-.5-1.1-.7-1.9-.7-1.5,0-2.7,1.2-2.7,3.2s.9,3.3,2.9,3.3.8,0,1-.3v-1.7h-1.7v-2h3.9v4.9c-.7.7-2,1.3-3.5,1.3-2.9,0-5.2-1.8-5.2-5.3Z"/>
          <path class="cls-8" d="M67,830h2.6l2.6,5c.4.7.7,1.5,1,2.4h0c-.1-1.1-.3-2.6-.3-3.8v-3.5h2.4v10.4h-2.6l-2.6-5c-.4-.7-.7-1.5-1-2.4h0c.1,1.2.3,2.6.3,3.8v3.5h-2.4v-10.4Z"/>
          <path class="cls-8" d="M77.6,830h3c3.2,0,5.3,1.6,5.3,5.2s-2.1,5.2-5.1,5.2h-3.1v-10.4ZM80.5,838.4c1.7,0,2.9-.8,2.9-3.2s-1.2-3.2-2.9-3.2h-.4v6.4h.4Z"/>
        </g>
        <g>
          <path class="cls-8" d="M56.6,860.5h2.6l1.1,4.8c.3,1.1.5,2.2.8,3.3h0c.3-1.1.5-2.2.8-3.3l1.2-4.8h2.5l-3.2,10.4h-3l-3.1-10.4Z"/>
          <path class="cls-8" d="M66.9,860.5h2.5v10.4h-2.5v-10.4Z"/>
          <path class="cls-8" d="M71.8,860.5h2.6l2.6,5c.4.7.7,1.5,1,2.4h0c-.1-1.1-.3-2.6-.3-3.8v-3.5h2.4v10.4h-2.6l-2.6-5c-.4-.7-.7-1.5-1-2.4h0c.1,1.2.3,2.6.3,3.8v3.5h-2.4v-10.4Z"/>
        </g>
        <g>
          <path class="cls-8" d="M61.1,894h3l3.2,10.4h-2.6l-.6-2.4h-3.1l-.6,2.4h-2.5l3.2-10.4ZM61.5,900.1h2.1l-.2-.9c-.3-1-.5-2.3-.8-3.3h0c-.3,1.1-.5,2.3-.8,3.3l-.2.9Z"/>
          <path class="cls-8" d="M67.8,899.2c0-3.6,1.5-5.4,3.7-5.4s3.7,1.8,3.7,5.4-1.5,5.4-3.7,5.4-3.7-1.9-3.7-5.4ZM72.8,899.2c0-2.8-.6-3.5-1.3-3.5s-1.3.6-1.3,3.5.6,3.5,1.3,3.5,1.3-.7,1.3-3.5Z"/>
        </g>
        <g>
          <path class="cls-8" d="M62.4,924.5h3l3.2,10.4h-2.6l-.6-2.4h-3.1l-.6,2.4h-2.5l3.2-10.4ZM62.7,930.6h2.1l-.2-.9c-.3-1-.5-2.3-.8-3.3h0c-.3,1.1-.5,2.3-.8,3.3l-.2.9Z"/>
          <path class="cls-8" d="M69.5,933h2.2v-5.9h-1.9v-1.5c1.1-.2,1.8-.5,2.6-.9h1.8v8.4h1.9v2h-6.6v-2Z"/>
        </g>
        <g>
          <path class="cls-8" d="M63.6,955.1h3l3.2,10.4h-2.6l-.6-2.4h-3.1l-.6,2.4h-2.5l3.2-10.4ZM64,961.2h2.1l-.2-.9c-.3-1-.5-2.3-.8-3.3h0c-.3,1.1-.5,2.3-.8,3.3l-.2.9Z"/>
          <path class="cls-8" d="M70.3,963.9c2.7-2.3,4.4-4.2,4.4-5.6s-.5-1.5-1.4-1.5-1.3.5-1.8,1l-1.3-1.3c1-1.1,1.9-1.7,3.4-1.7s3.4,1.3,3.4,3.3-1.7,3.8-3.3,5.4c.5,0,1.2-.1,1.7-.1h2.1v2.1h-7.2v-1.5Z"/>
        </g>
        <g>
          <path class="cls-8" d="M64.8,985.6h3l3.2,10.4h-2.6l-.6-2.4h-3.1l-.6,2.4h-2.5l3.2-10.4ZM65.2,991.7h2.1l-.2-.9c-.3-1-.5-2.3-.8-3.3h0c-.3,1.1-.5,2.3-.8,3.3l-.2.9Z"/>
          <path class="cls-8" d="M71.2,994.7l1.1-1.6c.6.6,1.4,1,2.2,1s1.6-.4,1.6-1.2-.5-1.4-2.7-1.4v-1.8c1.8,0,2.3-.5,2.3-1.4s-.4-1.1-1.2-1.1-1.2.3-1.9.9l-1.2-1.5c.9-.8,2-1.3,3.2-1.3,2.2,0,3.6,1,3.6,2.9s-.6,1.8-1.7,2.3h0c1.2.4,2,1.2,2,2.6,0,2-1.8,3-3.8,3s-2.8-.6-3.6-1.4Z"/>
        </g>
        <g>
          <path class="cls-8" d="M66.1,1016.1h3l3.2,10.4h-2.6l-.6-2.4h-3.1l-.6,2.4h-2.5l3.2-10.4ZM66.4,1022.2h2.1l-.2-.9c-.3-1-.5-2.3-.8-3.3h0c-.3,1.1-.5,2.3-.8,3.3l-.2.9Z"/>
          <path class="cls-8" d="M76.8,1023.9h-4.4v-1.7l3.6-6.1h3.1v5.9h1.2v1.9h-1.2v2.6h-2.3v-2.6ZM76.8,1022v-1.5c0-.7,0-1.6,0-2.3h0c-.3.6-.5,1.2-.8,1.8l-1.2,2.1h2Z"/>
          <path class="cls-8" d="M84,1015.1h1.6l-3.1,13.9h-1.6l3.1-13.9Z"/>
          <path class="cls-8" d="M86.6,1025.2l1.3-1.6c.7.6,1.7,1,2.6,1s1.4-.4,1.4-.9-.6-.8-1.5-1.2l-1.3-.6c-1.1-.4-2.1-1.3-2.1-2.8s1.6-3.2,3.8-3.2,2.5.5,3.4,1.3l-1.3,1.6c-.7-.5-1.4-.8-2.1-.8s-1.3.3-1.3.8.7.8,1.6,1.2l1.3.5c1.3.5,2.1,1.4,2.1,2.8s-1.5,3.3-4,3.3-2.8-.5-3.9-1.5Z"/>
          <path class="cls-8" d="M96.2,1016.1h3c3.2,0,5.3,1.6,5.3,5.2s-2.1,5.2-5.1,5.2h-3.1v-10.4ZM99,1024.5c1.7,0,2.9-.8,2.9-3.2s-1.2-3.2-2.9-3.2h-.4v6.4h.4Z"/>
          <path class="cls-8" d="M108.1,1016.1h3l3.2,10.4h-2.6l-.6-2.4h-3.1l-.6,2.4h-2.5l3.2-10.4ZM108.5,1022.2h2.1l-.2-.9c-.3-1-.5-2.3-.8-3.3h0c-.3,1.1-.5,2.3-.8,3.3l-.2.9Z"/>
        </g>
        <g>
          <path class="cls-8" d="M67.3,1043.5h3l3.2,10.4h-2.6l-.6-2.4h-3.1l-.6,2.4h-2.5l3.2-10.4ZM67.7,1049.6h2.1l-.2-.9c-.3-1-.5-2.3-.8-3.3h0c-.3,1.1-.5,2.3-.8,3.3l-.2.9Z"/>
          <path class="cls-8" d="M73.7,1052.7l1.1-1.6c.6.6,1.3,1,2.1,1s1.6-.6,1.6-1.6-.6-1.6-1.5-1.6-.9.1-1.5.5l-1.1-.7.3-5.2h5.8v2.1h-3.7v1.8c.2-.1.5-.2.9-.2,1.8,0,3.2,1,3.2,3.3s-1.8,3.7-3.8,3.7-2.8-.6-3.6-1.4Z"/>
          <path class="cls-8" d="M85.2,1042.6h1.6l-3.1,13.9h-1.6l3.1-13.9Z"/>
          <path class="cls-8" d="M87.8,1052.6l1.3-1.6c.7.6,1.7,1,2.6,1s1.4-.4,1.4-.9-.6-.8-1.5-1.2l-1.3-.6c-1.1-.4-2.1-1.3-2.1-2.8s1.6-3.2,3.8-3.2,2.5.5,3.4,1.3l-1.3,1.6c-.7-.5-1.4-.8-2.1-.8s-1.3.3-1.3.8.7.8,1.6,1.2l1.3.5c1.3.5,2.1,1.4,2.1,2.8s-1.5,3.3-4,3.3-2.8-.5-3.9-1.5Z"/>
          <path class="cls-8" d="M96.9,1048.8c0-3.5,2.3-5.5,5-5.5s2.4.6,3.2,1.4l-1.3,1.5c-.5-.5-1.1-.7-1.8-.7-1.4,0-2.5,1.2-2.5,3.2s1,3.3,2.4,3.3,1.5-.3,2-.9l1.3,1.5c-.9,1-2.1,1.5-3.4,1.5-2.7,0-4.9-1.8-4.9-5.3Z"/>
          <path class="cls-8" d="M106.7,1043.5h2.5v8.3h4v2.1h-6.5v-10.4Z"/>
        </g>
        <g>
          <path class="cls-8" d="M119.7,736.7v3.7c0,2.3-.8,4.2-3.4,4.2s-3.6-1.9-3.6-4.1v-1.2h-3.5v-2.5h10.4ZM114.7,740.2c0,1.2.6,1.8,1.6,1.8s1.4-.7,1.4-1.9v-1h-3v1.1Z"/>
          <path class="cls-8" d="M114.6,745.8c3.4,0,5.4,1.9,5.4,4.8s-2,4.8-5.4,4.8-5.4-1.9-5.4-4.8,2-4.8,5.4-4.8ZM114.6,752.8c2,0,3.2-.8,3.2-2.2s-1.2-2.2-3.2-2.2-3.3.9-3.3,2.2,1.3,2.2,3.3,2.2Z"/>
          <path class="cls-8" d="M119.7,756.3v2.5l-4.8.7c-1.1.1-2.2.3-3.3.4h0c1.1.3,2.2.5,3.3.7l4.8,1.1v2.1l-4.8,1.1c-1.1.2-2.2.4-3.3.6h0c1.2.2,2.3.3,3.3.4l4.8.7v2.4l-10.4-1.8v-3.2l4.6-.9c.8-.2,1.6-.3,2.5-.4h0c-.8-.2-1.6-.3-2.5-.5l-4.6-.9v-3.1l10.4-1.9Z"/>
          <path class="cls-8" d="M119.7,770.3v6.6h-2.1v-4.1h-2v3.5h-2.1v-3.5h-2.2v4.3h-2.1v-6.8h10.4Z"/>
          <path class="cls-8" d="M119.7,779.1v3.8c0,2.2-.8,4.1-3.3,4.1s-2.5-.7-3-1.8l-4.1,2.3v-2.8l3.7-1.9v-1.2h-3.7v-2.5h10.4ZM114.9,782.7c0,1.2.5,1.8,1.5,1.8s1.3-.6,1.3-1.8v-1.1h-2.8v1.1Z"/>
        </g>
        <g>
          <path class="cls-8" d="M119.7,939v3l-10.4,3.2v-2.6l2.4-.6v-3.1l-2.4-.6v-2.5l10.4,3.2ZM113.6,939.4v2.1l.9-.2c1-.3,2.3-.5,3.3-.8h0c-1.1-.3-2.3-.6-3.3-.9l-.9-.2Z"/>
          <path class="cls-8" d="M119.7,946.3v2.6l-5,2.6c-.7.4-1.5.7-2.4,1h0c1.1,0,2.6-.3,3.8-.3h3.5v2.4h-10.4v-2.6l5-2.6c.7-.4,1.5-.7,2.4-1h0c-1.2,0-2.6.3-3.8.3h-3.5v-2.4h10.4Z"/>
          <path class="cls-8" d="M119.7,958.9v3l-10.4,3.2v-2.6l2.4-.6v-3.1l-2.4-.6v-2.5l10.4,3.2ZM113.6,959.3v2.1l.9-.2c1-.3,2.3-.5,3.3-.8h0c-1.1-.3-2.3-.6-3.3-.9l-.9-.2Z"/>
          <path class="cls-8" d="M119.7,966.2v2.5h-8.3v4h-2.1v-6.5h10.4Z"/>
          <path class="cls-8" d="M114.6,973.5c3.4,0,5.4,1.9,5.4,4.8s-2,4.8-5.4,4.8-5.4-1.9-5.4-4.8,2-4.8,5.4-4.8ZM114.6,980.5c2,0,3.2-.8,3.2-2.2s-1.2-2.2-3.2-2.2-3.3.9-3.3,2.2,1.3,2.2,3.3,2.2Z"/>
          <path class="cls-8" d="M114.4,984.5c3.5,0,5.5,2.3,5.5,5.1s-.6,2.6-1.4,3.3l-1.5-1.3c.5-.5.7-1.1.7-1.9,0-1.5-1.2-2.7-3.2-2.7s-3.3.9-3.3,2.9,0,.8.3,1h1.7v-1.7h2v3.9h-4.9c-.7-.7-1.3-2-1.3-3.5,0-2.9,1.8-5.2,5.3-5.2Z"/>
          <path class="cls-8" d="M119.7,998.4v2.5h-10.4v-2.5h10.4Z"/>
          <path class="cls-8" d="M119.7,1003.3v2.6l-5,2.6c-.7.4-1.5.7-2.4,1h0c1.1,0,2.6-.3,3.8-.3h3.5v2.4h-10.4v-2.6l5-2.6c.7-.4,1.5-.7,2.4-1h0c-1.2,0-2.6.3-3.8.3h-3.5v-2.4h10.4Z"/>
        </g>
        <rect class="cls-37" x="124" y="894.4" width="4.5" height="159.9" rx="2.3" ry="2.3"/>
        <rect class="cls-37" x="124" y="667.8" width="4.5" height="187.7" rx="2.3" ry="2.3"/>
        <g>
          <g>
            <polygon class="cls-35" points="292.5 1044.3 288.9 1044.3 288.9 1044.3 285.2 1044.3 276.8 1052.8 276.8 1085.9 285.2 1094.3 288.9 1094.3 288.9 1094.3 292.5 1094.3 301 1085.9 301 1052.8 292.5 1044.3"/>
            <g>
              <rect class="cls-26" x="285.8" y="1053.9" width="6.2" height="6.2"/>
              <rect class="cls-26" x="285.8" y="1078.5" width="6.2" height="6.2"/>
            </g>
          </g>
          <g>
            <polygon class="cls-35" points="316.8 1044.3 313.1 1044.3 313.1 1044.3 309.5 1044.3 301 1052.8 301 1085.9 309.5 1094.3 313.1 1094.3 313.1 1094.3 316.8 1094.3 325.2 1085.9 325.2 1052.8 316.8 1044.3"/>
            <g>
              <rect class="cls-26" x="310" y="1053.9" width="6.2" height="6.2"/>
              <rect class="cls-26" x="310" y="1078.5" width="6.2" height="6.2"/>
            </g>
          </g>
          <g>
            <polygon class="cls-35" points="341 1044.3 337.3 1044.3 337.3 1044.3 333.7 1044.3 325.2 1052.8 325.2 1085.9 333.7 1094.3 337.3 1094.3 337.3 1094.3 341 1094.3 349.4 1085.9 349.4 1052.8 341 1044.3"/>
            <g>
              <rect class="cls-26" x="334.2" y="1053.9" width="6.2" height="6.2"/>
              <rect class="cls-26" x="334.2" y="1078.5" width="6.2" height="6.2"/>
            </g>
          </g>
        </g>
        <path class="cls-37" d="M270.8,1032.9c-1.3,0-2.3,1-2.3,2.3v58.5c0,1.3,1,2.3,2.3,2.3h0c1.3,0,2.3-1,2.3-2.3v-53.9c0-1.3,1-2.3,2.3-2.3h75.6c1.3,0,2.3,1,2.3,2.3v53.9c0,1.3,1,2.3,2.3,2.3h0c1.3,0,2.3-1,2.3-2.3v-58.5c0-1.3-1-2.3-2.3-2.3h-84.7Z"/>
        <rect class="cls-37" x="465.4" y="658.2" width="4.5" height="394.7" rx="2.3" ry="2.3"/>
        <g>
          <path class="cls-8" d="M486.8,799.8v3c0,3.2-1.6,5.3-5.2,5.3s-5.2-2.1-5.2-5.1v-3.1h10.4ZM478.4,802.7c0,1.7.8,2.9,3.2,2.9s3.2-1.2,3.2-2.9v-.4h-6.4v.4Z"/>
          <path class="cls-8" d="M486.8,810v2.5h-10.4v-2.5h10.4Z"/>
          <path class="cls-8" d="M481.5,814.4c3.5,0,5.5,2.3,5.5,5.1s-.6,2.6-1.4,3.3l-1.5-1.3c.5-.5.7-1.1.7-1.9,0-1.5-1.2-2.7-3.2-2.7s-3.3.9-3.3,2.9,0,.8.3,1h1.7v-1.7h2v3.9h-4.9c-.7-.7-1.3-2-1.3-3.5,0-2.9,1.8-5.2,5.3-5.2Z"/>
          <path class="cls-8" d="M486.8,825.1v2.5h-10.4v-2.5h10.4Z"/>
          <path class="cls-8" d="M484.7,832.1v-2.8h2.1v8.1h-2.1v-2.8h-8.3v-2.5h8.3Z"/>
          <path class="cls-8" d="M486.8,840.3v3l-10.4,3.2v-2.6l2.4-.6v-3.1l-2.4-.6v-2.5l10.4,3.2ZM480.7,840.7v2.1l.9-.2c1-.3,2.3-.5,3.3-.8h0c-1.1-.3-2.3-.6-3.3-.9l-.9-.2Z"/>
          <path class="cls-8" d="M486.8,847.6v2.5h-8.3v4h-2.1v-6.5h10.4Z"/>
          <path class="cls-8" d="M480.8,859c2.8,0,5.1.8,7.3,2.1l-.6,1.6c-2.1-1.2-4.4-1.7-6.7-1.7s-4.6.5-6.7,1.7l-.6-1.6c2.2-1.3,4.5-2.1,7.3-2.1Z"/>
          <path class="cls-8" d="M486.8,864.7v3.7c0,2.3-.8,4.2-3.4,4.2s-3.6-1.9-3.6-4.1v-1.2h-3.5v-2.5h10.4ZM481.8,868.3c0,1.2.6,1.8,1.6,1.8s1.4-.7,1.4-1.9v-1h-3v1.1Z"/>
          <path class="cls-8" d="M486.8,873.3v2.5l-4.8.7c-1.1.1-2.2.3-3.3.4h0c1.1.3,2.2.5,3.3.7l4.8,1.1v2.1l-4.8,1.1c-1.1.2-2.2.4-3.3.6h0c1.2.2,2.3.3,3.3.4l4.8.7v2.4l-10.4-1.8v-3.2l4.6-.9c.8-.2,1.6-.3,2.5-.4h0c-.8-.2-1.6-.3-2.5-.5l-4.6-.9v-3.1l10.4-1.9Z"/>
          <path class="cls-8" d="M486.8,887.4v2.7l-4.5,1.6c-.6.2-1.2.4-1.9.6h0c.7.3,1.3.4,1.9.6l4.5,1.6v2.7h-10.4v-2.3h3.6c1,0,2.8.2,3.8.3h0c0,0-2.7-.9-2.7-.9l-3.8-1.4v-1.4l3.8-1.4,2.7-.8h0c-1,0-2.8.3-3.8.3h-3.6v-2.2h10.4Z"/>
          <path class="cls-8" d="M481.4,901.3c0-.4-.4-.8-.9-1.1l1-1.3c1.2.8,1.7,1.6,1.7,2.4,0,1.3-1.2,1.9-1.2,2.8s.4.8.9,1.1l-1,1.3c-1.2-.8-1.7-1.6-1.7-2.4,0-1.3,1.2-1.9,1.2-2.8Z"/>
          <path class="cls-8" d="M474.1,907.7c2.1,1.2,4.4,1.7,6.7,1.7s4.6-.5,6.7-1.7l.6,1.6c-2.2,1.3-4.5,2.1-7.3,2.1s-5.1-.8-7.3-2.1l.6-1.6Z"/>
        </g>
        <g>
          <rect class="cls-17" x="559.3" y="828.2" width="33.4" height="240.9"/>
          <rect x="566.1" y="830.9" width="19.6" height="19.6"/>
          <rect x="566.1" y="861.4" width="19.6" height="19.6"/>
          <rect x="566.1" y="891.9" width="19.6" height="19.6"/>
          <rect x="566.1" y="922.4" width="19.6" height="19.6"/>
          <rect x="566.1" y="952.9" width="19.6" height="19.6"/>
          <rect x="566.1" y="983.5" width="19.6" height="19.6"/>
          <rect x="566.1" y="1014" width="19.6" height="19.6"/>
          <rect x="566.1" y="1044.5" width="19.6" height="19.6"/>
        </g>
        <g>
          <rect class="cls-17" x="559.3" y="525" width="33.4" height="301.1"/>
          <rect x="566.1" y="589.6" width="19.6" height="19.6"/>
          <rect x="566.1" y="620.2" width="19.6" height="19.6"/>
          <rect x="566.1" y="650.7" width="19.6" height="19.6"/>
          <rect x="566.1" y="681.2" width="19.6" height="19.6"/>
          <rect x="566.1" y="711.7" width="19.6" height="19.6"/>
          <rect x="566.1" y="742.2" width="19.6" height="19.6"/>
          <rect x="566.1" y="772.7" width="19.6" height="19.6"/>
          <rect x="566.1" y="803.2" width="19.6" height="19.6"/>
          <rect x="566.1" y="559.1" width="19.6" height="19.6"/>
          <rect x="566.1" y="528.9" width="19.6" height="19.6"/>
        </g>
        <g>
          <g>
            <path class="cls-8" d="M509,533.9h3l3.2,10.4h-2.6l-.6-2.4h-3.1l-.6,2.4h-2.5l3.2-10.4ZM509.4,540h2.1l-.2-.9c-.3-1-.5-2.3-.8-3.3h0c-.3,1.1-.5,2.3-.8,3.3l-.2.9Z"/>
            <path class="cls-8" d="M515.5,543l1.1-1.6c.6.6,1.3,1,2.1,1s1.6-.6,1.6-1.6-.6-1.6-1.5-1.6-.9.1-1.5.5l-1.1-.7.3-5.2h5.8v2.1h-3.7v1.8c.2-.1.5-.2.9-.2,1.8,0,3.2,1,3.2,3.3s-1.8,3.7-3.8,3.7-2.8-.6-3.6-1.4Z"/>
            <path class="cls-8" d="M526.9,532.9h1.6l-3.1,13.9h-1.6l3.1-13.9Z"/>
            <path class="cls-8" d="M529.6,543l1.3-1.6c.7.6,1.7,1,2.6,1s1.4-.4,1.4-.9-.6-.8-1.5-1.2l-1.3-.6c-1.1-.4-2.1-1.3-2.1-2.8s1.6-3.2,3.8-3.2,2.5.5,3.4,1.3l-1.3,1.6c-.7-.5-1.4-.8-2.1-.8s-1.3.3-1.3.8.7.8,1.6,1.2l1.3.5c1.3.5,2.1,1.4,2.1,2.8s-1.5,3.3-4,3.3-2.8-.5-3.9-1.5Z"/>
            <path class="cls-8" d="M538.7,539.2c0-3.5,2.3-5.5,5-5.5s2.4.6,3.2,1.4l-1.3,1.5c-.5-.5-1.1-.7-1.8-.7-1.4,0-2.5,1.2-2.5,3.2s1,3.3,2.4,3.3,1.5-.3,2-.9l1.3,1.5c-.9,1-2.1,1.5-3.4,1.5-2.7,0-4.9-1.8-4.9-5.3Z"/>
            <path class="cls-8" d="M548.5,533.9h2.5v8.3h4v2.1h-6.5v-10.4Z"/>
          </g>
          <g>
            <path class="cls-8" d="M506.9,564.1h3l3.2,10.4h-2.6l-.6-2.4h-3.1l-.6,2.4h-2.5l3.2-10.4ZM507.3,570.2h2.1l-.2-.9c-.3-1-.5-2.3-.8-3.3h0c-.3,1.1-.5,2.3-.8,3.3l-.2.9Z"/>
            <path class="cls-8" d="M517.7,571.9h-4.4v-1.7l3.6-6.1h3.1v5.9h1.2v1.9h-1.2v2.6h-2.3v-2.6ZM517.7,570.1v-1.5c0-.7,0-1.6,0-2.3h0c-.3.6-.5,1.2-.8,1.8l-1.2,2.1h2Z"/>
            <path class="cls-8" d="M524.8,563.2h1.6l-3.1,13.9h-1.6l3.1-13.9Z"/>
            <path class="cls-8" d="M527.4,573.2l1.3-1.6c.7.6,1.7,1,2.6,1s1.4-.4,1.4-.9-.6-.8-1.5-1.2l-1.3-.6c-1.1-.4-2.1-1.3-2.1-2.8s1.6-3.2,3.8-3.2,2.5.5,3.4,1.3l-1.3,1.6c-.7-.5-1.4-.8-2.1-.8s-1.3.3-1.3.8.7.8,1.6,1.2l1.3.5c1.3.5,2.1,1.4,2.1,2.8s-1.5,3.3-4,3.3-2.8-.5-3.9-1.5Z"/>
            <path class="cls-8" d="M537,564.1h3c3.2,0,5.3,1.6,5.3,5.2s-2.1,5.2-5.1,5.2h-3.1v-10.4ZM539.9,572.5c1.7,0,2.9-.8,2.9-3.2s-1.2-3.2-2.9-3.2h-.4v6.4h.4Z"/>
            <path class="cls-8" d="M549,564.1h3l3.2,10.4h-2.6l-.6-2.4h-3.1l-.6,2.4h-2.5l3.2-10.4ZM549.3,570.2h2.1l-.2-.9c-.3-1-.5-2.3-.8-3.3h0c-.3,1.1-.5,2.3-.8,3.3l-.2.9Z"/>
          </g>
          <g>
            <path class="cls-8" d="M521.2,594.6h3l3.2,10.4h-2.6l-.6-2.4h-3.1l-.6,2.4h-2.5l3.2-10.4ZM521.6,600.7h2.1l-.2-.9c-.3-1-.5-2.3-.8-3.3h0c-.3,1.1-.5,2.3-.8,3.3l-.2.9Z"/>
            <path class="cls-8" d="M528.5,594.6h3.8c2.2,0,4.1.8,4.1,3.3s-.7,2.5-1.8,3l2.3,4.1h-2.8l-1.9-3.7h-1.2v3.7h-2.5v-10.4ZM532.2,599.4c1.2,0,1.8-.5,1.8-1.5s-.6-1.3-1.8-1.3h-1.1v2.8h1.1Z"/>
            <path class="cls-8" d="M538.4,594.6h6.6v2.1h-4.1v2h3.5v2.1h-3.5v2.2h4.3v2.1h-6.8v-10.4Z"/>
            <path class="cls-8" d="M547.2,594.6h6.7v2.1h-4.2v2.3h3.6v2.1h-3.6v4h-2.5v-10.4Z"/>
          </g>
          <g>
            <path class="cls-8" d="M523.5,630.4c0-3.5,2.3-5.5,5.1-5.5s2.6.6,3.3,1.4l-1.3,1.5c-.5-.5-1.1-.7-1.9-.7-1.5,0-2.7,1.2-2.7,3.2s.9,3.3,2.9,3.3.8,0,1-.3v-1.7h-1.7v-2h3.9v4.9c-.7.7-2,1.3-3.5,1.3-2.9,0-5.2-1.8-5.2-5.3Z"/>
            <path class="cls-8" d="M534.2,625.1h2.6l2.6,5c.4.7.7,1.5,1,2.4h0c-.1-1.1-.3-2.6-.3-3.8v-3.5h2.4v10.4h-2.6l-2.6-5c-.4-.7-.7-1.5-1-2.4h0c.1,1.2.3,2.6.3,3.8v3.5h-2.4v-10.4Z"/>
            <path class="cls-8" d="M544.9,625.1h3c3.2,0,5.3,1.6,5.3,5.2s-2.1,5.2-5.1,5.2h-3.1v-10.4ZM547.8,633.6c1.7,0,2.9-.8,2.9-3.2s-1.2-3.2-2.9-3.2h-.4v6.4h.4Z"/>
          </g>
          <g>
            <path class="cls-8" d="M495.5,664.1h2.2v-5.9h-1.9v-1.5c1.1-.2,1.8-.5,2.6-.9h1.8v8.4h1.9v2h-6.6v-2Z"/>
            <path class="cls-8" d="M503.2,664.8l1.1-1.6c.6.6,1.4,1,2.2,1s1.6-.4,1.6-1.2-.5-1.4-2.7-1.4v-1.8c1.8,0,2.3-.5,2.3-1.4s-.4-1.1-1.2-1.1-1.2.3-1.9.9l-1.2-1.5c.9-.8,2-1.3,3.2-1.3,2.2,0,3.6,1,3.6,2.9s-.6,1.8-1.7,2.3h0c1.2.4,2,1.2,2,2.6,0,2-1.8,3-3.8,3s-2.8-.6-3.6-1.4Z"/>
            <path class="cls-8" d="M514.7,654.7h1.6l-3.1,13.9h-1.6l3.1-13.9Z"/>
            <path class="cls-8" d="M517.4,664.7l1.3-1.6c.7.6,1.7,1,2.6,1s1.4-.4,1.4-.9-.6-.8-1.5-1.2l-1.3-.6c-1.1-.4-2.1-1.3-2.1-2.8s1.6-3.2,3.8-3.2,2.5.5,3.4,1.3l-1.3,1.6c-.7-.5-1.4-.8-2.1-.8s-1.3.3-1.3.8.7.8,1.6,1.2l1.3.5c1.3.5,2.1,1.4,2.1,2.8s-1.5,3.3-4,3.3-2.8-.5-3.9-1.5Z"/>
            <path class="cls-8" d="M526.5,660.9c0-3.5,2.3-5.5,5-5.5s2.4.6,3.2,1.4l-1.3,1.5c-.5-.5-1.1-.7-1.8-.7-1.4,0-2.5,1.2-2.5,3.2s1,3.3,2.4,3.3,1.5-.3,2-.9l1.3,1.5c-.9,1-2.1,1.5-3.4,1.5-2.7,0-4.9-1.8-4.9-5.3Z"/>
            <path class="cls-8" d="M536.3,655.7h2.5v8.3h4v2.1h-6.5v-10.4Z"/>
            <path class="cls-8" d="M544.6,655.7h2.5v4.1h0l3-4.1h2.7l-3.1,4.2,3.7,6.2h-2.7l-2.5-4.3-1.1,1.5v2.7h-2.5v-10.4Z"/>
          </g>
          <g>
            <path class="cls-8" d="M494.4,694.6h2.2v-5.9h-1.9v-1.5c1.1-.2,1.8-.5,2.6-.9h1.8v8.4h1.9v2h-6.6v-2Z"/>
            <path class="cls-8" d="M502.4,695.1c2.7-2.3,4.4-4.2,4.4-5.6s-.5-1.5-1.4-1.5-1.3.5-1.8,1l-1.3-1.3c1-1.1,1.9-1.7,3.4-1.7s3.4,1.3,3.4,3.3-1.7,3.8-3.3,5.4c.5,0,1.2-.1,1.7-.1h2.1v2.1h-7.2v-1.5Z"/>
            <path class="cls-8" d="M513.6,685.2h1.6l-3.1,13.9h-1.6l3.1-13.9Z"/>
            <path class="cls-8" d="M516.9,686.2h2.7l1.6,4.5c.2.6.4,1.2.6,1.9h0c.2-.7.4-1.3.6-1.9l1.6-4.5h2.7v10.4h-2.3v-3.6c0-1,.2-2.8.3-3.8h0l-.9,2.7-1.4,3.8h-1.4l-1.4-3.8-.8-2.7h0c.1,1,.3,2.8.3,3.8v3.6h-2.2v-10.4Z"/>
            <path class="cls-8" d="M529.1,686.2h2.5v10.4h-2.5v-10.4Z"/>
            <path class="cls-8" d="M533.4,695.3l1.3-1.6c.7.6,1.7,1,2.6,1s1.4-.4,1.4-.9-.6-.8-1.5-1.2l-1.3-.6c-1.1-.4-2.1-1.3-2.1-2.8s1.6-3.2,3.8-3.2,2.5.5,3.4,1.3l-1.3,1.6c-.7-.5-1.4-.8-2.1-.8s-1.3.3-1.3.8.7.8,1.6,1.2l1.3.5c1.3.5,2.1,1.4,2.1,2.8s-1.5,3.3-4,3.3-2.8-.5-3.9-1.5Z"/>
            <path class="cls-8" d="M542.5,691.3c0-3.4,1.9-5.4,4.8-5.4s4.8,2,4.8,5.4-1.9,5.4-4.8,5.4-4.8-2-4.8-5.4ZM549.5,691.3c0-2-.8-3.2-2.2-3.2s-2.2,1.2-2.2,3.2.9,3.3,2.2,3.3,2.2-1.3,2.2-3.3Z"/>
          </g>
          <g>
            <path class="cls-8" d="M487,722.1c-.4,0-.8.4-1.1.9l-1.3-1c.8-1.2,1.6-1.7,2.4-1.7,1.3,0,1.9,1.2,2.8,1.2s.8-.4,1.1-.9l1.3,1c-.8,1.2-1.6,1.7-2.4,1.7-1.3,0-1.9-1.2-2.8-1.2Z"/>
            <path class="cls-8" d="M493.8,725.1h2.2v-5.9h-1.9v-1.5c1.1-.2,1.8-.5,2.6-.9h1.8v8.4h1.9v2h-6.6v-2Z"/>
            <path class="cls-8" d="M502.3,725.1h2.2v-5.9h-1.9v-1.5c1.1-.2,1.8-.5,2.6-.9h1.8v8.4h1.9v2h-6.6v-2Z"/>
            <path class="cls-8" d="M513,715.7h1.6l-3.1,13.9h-1.6l3.1-13.9Z"/>
            <path class="cls-8" d="M516.3,716.7h2.7l1.6,4.5c.2.6.4,1.2.6,1.9h0c.2-.7.4-1.3.6-1.9l1.6-4.5h2.7v10.4h-2.3v-3.6c0-1,.2-2.8.3-3.8h0l-.9,2.7-1.4,3.8h-1.4l-1.4-3.8-.8-2.7h0c.1,1,.3,2.8.3,3.8v3.6h-2.2v-10.4Z"/>
            <path class="cls-8" d="M528.1,721.9c0-3.4,1.9-5.4,4.8-5.4s4.8,2,4.8,5.4-1.9,5.4-4.8,5.4-4.8-2-4.8-5.4ZM535.1,721.9c0-2-.8-3.2-2.2-3.2s-2.2,1.2-2.2,3.2.9,3.3,2.2,3.3,2.2-1.3,2.2-3.3Z"/>
            <path class="cls-8" d="M538.9,725.8l1.3-1.6c.7.6,1.7,1,2.6,1s1.4-.4,1.4-.9-.6-.8-1.5-1.2l-1.3-.6c-1.1-.4-2.1-1.3-2.1-2.8s1.6-3.2,3.8-3.2,2.5.5,3.4,1.3l-1.3,1.6c-.7-.5-1.4-.8-2.1-.8s-1.3.3-1.3.8.7.8,1.6,1.2l1.3.5c1.3.5,2.1,1.4,2.1,2.8s-1.5,3.3-4,3.3-2.8-.5-3.9-1.5Z"/>
            <path class="cls-8" d="M548.5,716.7h2.5v10.4h-2.5v-10.4Z"/>
          </g>
          <g>
            <path class="cls-8" d="M528.9,752.6c-.4,0-.8.4-1.1.9l-1.3-1c.8-1.2,1.6-1.7,2.4-1.7,1.3,0,1.9,1.2,2.8,1.2s.8-.4,1.1-.9l1.3,1c-.8,1.2-1.6,1.7-2.4,1.7-1.3,0-1.9-1.2-2.8-1.2Z"/>
            <path class="cls-8" d="M535.7,755.6h2.2v-5.9h-1.9v-1.5c1.1-.2,1.8-.5,2.6-.9h1.8v8.4h1.9v2h-6.6v-2Z"/>
            <path class="cls-8" d="M543.7,752.4c0-3.6,1.5-5.4,3.7-5.4s3.7,1.8,3.7,5.4-1.5,5.4-3.7,5.4-3.7-1.9-3.7-5.4ZM548.7,752.4c0-2.8-.6-3.5-1.3-3.5s-1.3.6-1.3,3.5.6,3.5,1.3,3.5,1.3-.7,1.3-3.5Z"/>
          </g>
          <g>
            <path class="cls-8" d="M536.9,783.1c-.4,0-.8.4-1.1.9l-1.3-1c.8-1.2,1.6-1.7,2.4-1.7,1.3,0,1.9,1.2,2.8,1.2s.8-.4,1.1-.9l1.3,1c-.8,1.2-1.6,1.7-2.4,1.7-1.3,0-1.9-1.2-2.8-1.2Z"/>
            <path class="cls-8" d="M543.2,787.1l1.3-1.5c.3.4,1,.7,1.6.7,1.1,0,1.9-.8,2-3-.5.7-1.4,1-2,1-1.7,0-3-1-3-3.3s1.6-3.5,3.4-3.5,3.9,1.5,3.9,5.3-2,5.5-4.1,5.5-2.4-.6-3.1-1.2ZM546.6,782.6c.5,0,1.1-.3,1.5-.9-.2-1.8-.8-2.3-1.5-2.3s-1.2.5-1.2,1.7.5,1.5,1.2,1.5Z"/>
          </g>
          <path class="cls-8" d="M542.6,816c0-1.3.7-2.1,1.7-2.6h0c-.8-.7-1.4-1.5-1.4-2.6,0-1.7,1.4-2.8,3.3-2.8s3.1,1.1,3.1,2.8-.6,1.8-1.3,2.3h0c1,.6,1.8,1.5,1.8,2.9s-1.5,2.8-3.6,2.8-3.6-1.1-3.6-2.8ZM547.5,815.9c0-.9-.8-1.3-2.1-1.9-.4.4-.7,1-.7,1.7s.7,1.4,1.5,1.4,1.3-.4,1.3-1.2ZM547.4,811c0-.8-.4-1.2-1.2-1.2s-1.1.4-1.1,1.1.6,1.3,1.7,1.7c.4-.5.6-1,.6-1.5Z"/>
          <path class="cls-8" d="M546.6,838h-4.5v-2.1h7.1v1.5c-2.4,2.9-2.7,4.8-2.8,8.9h-2.5c.2-3.4.7-5.6,2.7-8.3Z"/>
          <g>
            <path class="cls-8" d="M535.1,871.8c-.4,0-.8.4-1.1.9l-1.3-1c.8-1.2,1.6-1.7,2.4-1.7,1.3,0,1.9,1.2,2.8,1.2s.8-.4,1.1-.9l1.3,1c-.8,1.2-1.6,1.7-2.4,1.7-1.3,0-1.9-1.2-2.8-1.2Z"/>
            <path class="cls-8" d="M541.4,871.7c0-3.8,2-5.5,4.1-5.5s2.4.6,3,1.2l-1.3,1.5c-.4-.4-1-.7-1.6-.7-1.1,0-1.9.8-2,3,.5-.6,1.4-1,2-1,1.7,0,3,1,3,3.3s-1.6,3.5-3.4,3.5-3.9-1.5-3.9-5.3ZM543.7,872.9c.2,1.7.9,2.2,1.5,2.2s1.2-.5,1.2-1.7-.6-1.5-1.3-1.5-1.1.3-1.5,1Z"/>
          </g>
          <g>
            <path class="cls-8" d="M534.6,902.3c-.4,0-.8.4-1.1.9l-1.3-1c.8-1.2,1.6-1.7,2.4-1.7,1.3,0,1.9,1.2,2.8,1.2s.8-.4,1.1-.9l1.3,1c-.8,1.2-1.6,1.7-2.4,1.7-1.3,0-1.9-1.2-2.8-1.2Z"/>
            <path class="cls-8" d="M540.6,906.1l1.1-1.6c.6.6,1.3,1,2.1,1s1.6-.6,1.6-1.6-.6-1.6-1.5-1.6-.9.1-1.5.5l-1.1-.7.3-5.2h5.8v2.1h-3.7v1.8c.2-.1.5-.2.9-.2,1.8,0,3.2,1,3.2,3.3s-1.8,3.7-3.8,3.7-2.8-.6-3.6-1.4Z"/>
          </g>
          <path class="cls-8" d="M544.3,935.3h-4.4v-1.7l3.6-6.1h3.1v5.9h1.2v1.9h-1.2v2.6h-2.3v-2.6ZM544.3,933.4v-1.5c0-.7,0-1.6,0-2.3h0c-.3.6-.5,1.2-.8,1.8l-1.2,2.1h2Z"/>
          <g>
            <path class="cls-8" d="M533.4,963.4c-.4,0-.8.4-1.1.9l-1.3-1c.8-1.2,1.6-1.7,2.4-1.7,1.3,0,1.9,1.2,2.8,1.2s.8-.4,1.1-.9l1.3,1c-.8,1.2-1.6,1.7-2.4,1.7-1.3,0-1.9-1.2-2.8-1.2Z"/>
            <path class="cls-8" d="M539.4,967.1l1.1-1.6c.6.6,1.4,1,2.2,1s1.6-.4,1.6-1.2-.5-1.4-2.7-1.4v-1.8c1.8,0,2.3-.5,2.3-1.4s-.4-1.1-1.2-1.1-1.2.3-1.9.9l-1.2-1.5c.9-.8,2-1.3,3.2-1.3,2.2,0,3.6,1,3.6,2.9s-.6,1.8-1.7,2.3h0c1.2.4,2,1.2,2,2.6,0,2-1.8,3-3.8,3s-2.8-.6-3.6-1.4Z"/>
          </g>
          <path class="cls-8" d="M539.1,997.3c2.7-2.3,4.4-4.2,4.4-5.6s-.5-1.5-1.4-1.5-1.3.5-1.8,1l-1.3-1.3c1-1.1,1.9-1.7,3.4-1.7s3.4,1.3,3.4,3.3-1.7,3.8-3.3,5.4c.5,0,1.2-.1,1.7-.1h2.1v2.1h-7.2v-1.5Z"/>
          <g>
            <path class="cls-8" d="M509.3,1022h-2.8v-2.1h8.1v2.1h-2.8v8.3h-2.5v-8.3Z"/>
            <path class="cls-8" d="M517.8,1024.9l-2.7-5.1h2.8l.8,1.9c.2.5.5,1,.8,1.7h0c.2-.7.5-1.2.7-1.7l.8-1.9h2.6l-2.7,5.2,2.9,5.2h-2.8l-1-2c-.3-.5-.5-1.1-.8-1.7h0c-.2.6-.5,1.2-.7,1.7l-.9,2h-2.7l2.9-5.4Z"/>
            <path class="cls-8" d="M537.6,1025l-5,5c-.4.4-1,.4-1.4,0s-.4-1,0-1.4l3.3-3.3h-9.6c-.6,0-1-.4-1-1s.4-1,1-1h9.6l-3.3-3.3c-.4-.4-.4-1,0-1.4s1-.4,1.4,0l5,5c.4.4.4,1,0,1.4h0Z"/>
            <path class="cls-8" d="M539,1028.3h2.2v-5.9h-1.9v-1.5c1.1-.2,1.8-.5,2.6-.9h1.8v8.4h1.9v2h-6.6v-2Z"/>
          </g>
          <g>
            <path class="cls-8" d="M505.6,1050.4h3.8c2.2,0,4.1.8,4.1,3.3s-.7,2.5-1.8,3l2.3,4.1h-2.8l-1.9-3.7h-1.2v3.7h-2.5v-10.4ZM509.2,1055.2c1.2,0,1.8-.5,1.8-1.5s-.6-1.3-1.8-1.3h-1.1v2.8h1.1Z"/>
            <path class="cls-8" d="M517.2,1055.4l-2.7-5.1h2.8l.8,1.9c.2.5.5,1,.8,1.7h0c.2-.7.5-1.2.7-1.7l.8-1.9h2.6l-2.7,5.2,2.9,5.2h-2.8l-1-2c-.3-.5-.5-1.1-.8-1.7h0c-.2.6-.5,1.2-.7,1.7l-.9,2h-2.7l2.9-5.4Z"/>
            <path class="cls-8" d="M523.6,1054.1l5-5c.4-.4,1-.4,1.4,0s.4,1,0,1.4l-3.3,3.3h9.6c.6,0,1,.4,1,1s-.4,1-1,1h-9.6l3.3,3.3c.4.4.4,1,0,1.4s-1,.4-1.4,0l-5-5c-.4-.4-.4-1,0-1.4h0Z"/>
            <path class="cls-8" d="M537.9,1055.6c0-3.6,1.5-5.4,3.7-5.4s3.7,1.8,3.7,5.4-1.5,5.4-3.7,5.4-3.7-1.9-3.7-5.4ZM542.9,1055.6c0-2.8-.6-3.5-1.3-3.5s-1.3.6-1.3,3.5.6,3.5,1.3,3.5,1.3-.7,1.3-3.5Z"/>
          </g>
        </g>
        <g>
          <rect class="cls-12" x="396.5" y="635.6" width="10.7" height="17.2"/>
          <rect class="cls-20" x="396.5" y="638.1" width="10.7" height="11.8"/>
        </g>
      </g>
      <rect id="rect827" class="cls-19" x="711.4" y="674.6" width="11.3" height="83.6"/>
      <rect id="rect829" class="cls-36" x="744.6" y="674.6" width="11.3" height="113.9"/>
      <g id="text1098" class="cls-21">
        <g class="cls-21">
          <path class="cls-8" d="M726,643.5c.2,0,.4,0,.5,0,.1,0,.3,0,.4.1,0,0,.2.1.2.2s0,.2,0,.3v11.2c0,.1,0,.3,0,.4,0,.1,0,.2-.2.3,0,0-.2.1-.4.2-.2,0-.3,0-.6,0s-.4,0-.5,0c-.2,0-.3,0-.4-.1-.1,0-.2-.1-.4-.2-.1,0-.2-.2-.4-.3l-4.2-4c-1-.9-1.8-1.7-2.6-2.2-.8-.6-1.5-1-2.1-1.3s-1.2-.5-1.7-.6c-.5,0-1-.1-1.4-.1s-.9,0-1.3.2c-.4.2-.8.4-1.1.7-.3.3-.5.6-.7,1.1-.2.4-.3.9-.3,1.5s0,1.2.3,1.8c.2.5.4,1,.6,1.4.2.4.4.7.6,1,.2.3.3.5.3.6s0,.1,0,.2c0,0-.1.1-.2.1,0,0-.2,0-.4,0s-.3,0-.6,0-.3,0-.4,0c-.1,0-.2,0-.3,0,0,0-.2,0-.2-.1,0,0-.2-.1-.3-.2s-.3-.3-.4-.6c-.2-.3-.4-.7-.6-1.2-.2-.5-.3-1-.5-1.5-.1-.6-.2-1.1-.2-1.8,0-1,.1-1.8.4-2.6.3-.7.7-1.3,1.1-1.8.5-.5,1-.8,1.7-1.1.6-.2,1.3-.4,2-.4s1.3,0,1.9.2c.6.1,1.3.4,2.1.7.7.4,1.6.9,2.5,1.6.9.7,2,1.6,3.1,2.8l3.3,3.2v-8.8c0,0,0-.2,0-.2s.1-.1.2-.2c0,0,.2,0,.4-.1.1,0,.3,0,.5,0Z"/>
          <path class="cls-8" d="M726,627.3c.2,0,.4,0,.5,0,.1,0,.3,0,.4.1,0,0,.2.1.2.2s0,.2,0,.3v11.2c0,.1,0,.3,0,.4,0,.1,0,.2-.2.3,0,0-.2.1-.4.2-.2,0-.3,0-.6,0s-.4,0-.5,0c-.2,0-.3,0-.4-.1-.1,0-.2-.1-.4-.2-.1,0-.2-.2-.4-.3l-4.2-4c-1-.9-1.8-1.7-2.6-2.2-.8-.6-1.5-1-2.1-1.3s-1.2-.5-1.7-.6c-.5,0-1-.1-1.4-.1s-.9,0-1.3.2c-.4.2-.8.4-1.1.7-.3.3-.5.6-.7,1.1-.2.4-.3.9-.3,1.5s0,1.2.3,1.8c.2.5.4,1,.6,1.4.2.4.4.7.6,1,.2.3.3.5.3.6s0,.1,0,.2c0,0-.1.1-.2.1,0,0-.2,0-.4,0s-.3,0-.6,0-.3,0-.4,0c-.1,0-.2,0-.3,0,0,0-.2,0-.2-.1,0,0-.2-.1-.3-.2s-.3-.3-.4-.6c-.2-.3-.4-.7-.6-1.2-.2-.5-.3-1-.5-1.5-.1-.6-.2-1.1-.2-1.8,0-1,.1-1.8.4-2.6.3-.7.7-1.3,1.1-1.8.5-.5,1-.8,1.7-1.1.6-.2,1.3-.4,2-.4s1.3,0,1.9.2c.6.1,1.3.4,2.1.7.7.4,1.6.9,2.5,1.6.9.7,2,1.6,3.1,2.8l3.3,3.2v-8.8c0,0,0-.2,0-.2s.1-.1.2-.2c0,0,.2,0,.4-.1.1,0,.3,0,.5,0Z"/>
          <path class="cls-8" d="M717,610.4c1.6,0,3,.1,4.2.4,1.3.2,2.4.7,3.3,1.2.9.6,1.6,1.3,2.1,2.2.5.9.8,2,.8,3.4s-.2,2.3-.7,3.2c-.5.9-1.1,1.6-2,2.1-.9.5-2,.9-3.2,1.1-1.3.2-2.8.3-4.4.3s-3-.1-4.2-.4c-1.3-.2-2.4-.7-3.3-1.2s-1.6-1.3-2.1-2.2c-.5-.9-.8-2-.8-3.4s.2-2.4.7-3.2c.5-.9,1.1-1.6,2-2.1.9-.5,2-.9,3.2-1.1,1.3-.2,2.8-.3,4.4-.3ZM717.2,613.1c-1,0-1.9,0-2.7.1-.8,0-1.5.2-2.1.3-.6.1-1.1.3-1.6.5-.4.2-.8.5-1.1.8-.3.3-.5.7-.6,1.1-.1.4-.2.9-.2,1.4,0,.9.2,1.6.6,2.2.4.6,1,1,1.7,1.3.7.3,1.6.5,2.6.6,1,.1,2,.2,3.2.2s2.8,0,3.9-.2c1.1-.2,1.9-.4,2.6-.7.7-.3,1.2-.8,1.5-1.3.3-.5.5-1.2.5-1.9s0-1.1-.3-1.5c-.2-.4-.5-.8-.8-1.1-.3-.3-.8-.6-1.3-.8-.5-.2-1-.4-1.6-.5s-1.2-.2-1.9-.3c-.7,0-1.4,0-2.2,0Z"/>
          <path class="cls-8" d="M726.1,589.6c.2,0,.4,0,.5,0,.1,0,.3,0,.4.1s.2.1.2.2c0,0,0,.1,0,.2v5.9c0,.3,0,.5-.2.6-.2.2-.4.2-.8.2h-.6c-.1,0-.3,0-.4,0-.1,0-.2,0-.3-.1-.1,0-.2-.1-.3-.2-.1-.1-.3-.3-.6-.7-.3-.4-.6-.8-1.1-1.3s-1-.9-1.6-1.2c-.6-.3-1.3-.5-2.1-.7-.8-.1-1.7-.2-2.6-.2s-1.3,0-1.9.1c-.6,0-1.2.2-1.8.4-.6.2-1.1.5-1.5.8-.5.3-.9.7-1.2,1.1-.3.5-.6,1-.8,1.6-.2.6-.3,1.3-.3,2.1s.1,1.5.3,2.1.5,1.2.8,1.6c.3.5.8.9,1.2,1.2.5.3,1,.6,1.5.8.6.2,1.1.4,1.7.5.6,0,1.2.1,1.8.1,1.1,0,2,0,2.8-.2s1.5-.4,2.1-.7c.6-.3,1.1-.7,1.6-1.2.5-.5.8-.9,1.1-1.3.3-.4.5-.6.6-.7.1-.1.2-.2.4-.2.1,0,.2,0,.3-.1.1,0,.2,0,.4,0h.6c.4,0,.6,0,.8.2s.2.4.2.6v5.9c0,0,0,.2,0,.2,0,0-.1.1-.2.2,0,0-.2,0-.4.1-.1,0-.3,0-.5,0-.4,0-.7,0-.9-.1-.2,0-.3-.2-.3-.4v-3.9c-.4.7-.8,1.3-1.4,1.8-.5.5-1.2,1-1.9,1.4-.7.4-1.5.7-2.3.9-.8.2-1.8.3-2.8.3-1.4,0-2.8-.2-4-.6-1.2-.4-2.3-1-3.1-1.8-.9-.8-1.6-1.7-2.1-2.9-.5-1.2-.7-2.5-.7-4s.2-2.7.7-3.8c.5-1.1,1.1-2,2-2.8s1.9-1.3,3-1.7c1.2-.4,2.5-.6,3.9-.6s2,.1,2.9.3,1.7.5,2.4.9c.7.4,1.4.8,1.9,1.4.5.5,1,1.1,1.4,1.8v-3.9c0-.2,0-.3.3-.4.2,0,.5-.1.9-.1Z"/>
        </g>
      </g>
      <g id="text1102" class="cls-21">
        <g class="cls-21">
          <path class="cls-8" d="M759.4,643.7c.2,0,.4,0,.5,0,.1,0,.3,0,.4.1,0,0,.2.1.2.2s0,.2,0,.3v11.2c0,.1,0,.3,0,.4,0,.1,0,.2-.2.3,0,0-.2.1-.4.2-.2,0-.3,0-.6,0s-.4,0-.5,0c-.2,0-.3,0-.4-.1-.1,0-.2-.1-.4-.2-.1,0-.2-.2-.4-.3l-4.2-4c-1-.9-1.8-1.7-2.6-2.2-.8-.6-1.5-1-2.1-1.3s-1.2-.5-1.7-.6c-.5,0-1-.1-1.4-.1s-.9,0-1.3.2c-.4.2-.8.4-1.1.7-.3.3-.5.6-.7,1.1-.2.4-.3.9-.3,1.5s0,1.2.3,1.8c.2.5.4,1,.6,1.4.2.4.4.7.6,1,.2.3.3.5.3.6s0,.1,0,.2c0,0-.1.1-.2.1,0,0-.2,0-.4,0s-.3,0-.6,0-.3,0-.4,0c-.1,0-.2,0-.3,0,0,0-.2,0-.2-.1,0,0-.2-.1-.3-.2s-.3-.3-.4-.6c-.2-.3-.4-.7-.6-1.2-.2-.5-.3-1-.5-1.5-.1-.6-.2-1.1-.2-1.8,0-1,.1-1.8.4-2.6.3-.7.7-1.3,1.1-1.8.5-.5,1-.8,1.7-1.1.6-.2,1.3-.4,2-.4s1.3,0,1.9.2c.6.1,1.3.4,2.1.7.7.4,1.6.9,2.5,1.6.9.7,2,1.6,3.1,2.8l3.3,3.2v-8.8c0,0,0-.2,0-.2s.1-.1.2-.2c0,0,.2,0,.4-.1.1,0,.3,0,.5,0Z"/>
          <path class="cls-8" d="M759.4,627.5c.2,0,.4,0,.5,0,.1,0,.3,0,.4.1,0,0,.2.1.2.2s0,.2,0,.3v11.2c0,.1,0,.3,0,.4,0,.1,0,.2-.2.3,0,0-.2.1-.4.2-.2,0-.3,0-.6,0s-.4,0-.5,0c-.2,0-.3,0-.4-.1-.1,0-.2-.1-.4-.2-.1,0-.2-.2-.4-.3l-4.2-4c-1-.9-1.8-1.7-2.6-2.2-.8-.6-1.5-1-2.1-1.3s-1.2-.5-1.7-.6c-.5,0-1-.1-1.4-.1s-.9,0-1.3.2c-.4.2-.8.4-1.1.7-.3.3-.5.6-.7,1.1-.2.4-.3.9-.3,1.5s0,1.2.3,1.8c.2.5.4,1,.6,1.4.2.4.4.7.6,1,.2.3.3.5.3.6s0,.1,0,.2c0,0-.1.1-.2.1,0,0-.2,0-.4,0s-.3,0-.6,0-.3,0-.4,0c-.1,0-.2,0-.3,0,0,0-.2,0-.2-.1,0,0-.2-.1-.3-.2s-.3-.3-.4-.6c-.2-.3-.4-.7-.6-1.2-.2-.5-.3-1-.5-1.5-.1-.6-.2-1.1-.2-1.8,0-1,.1-1.8.4-2.6.3-.7.7-1.3,1.1-1.8.5-.5,1-.8,1.7-1.1.6-.2,1.3-.4,2-.4s1.3,0,1.9.2c.6.1,1.3.4,2.1.7.7.4,1.6.9,2.5,1.6.9.7,2,1.6,3.1,2.8l3.3,3.2v-8.8c0,0,0-.2,0-.2s.1-.1.2-.2c0,0,.2,0,.4-.1.1,0,.3,0,.5,0Z"/>
          <path class="cls-8" d="M750.4,610.6c1.6,0,3,.1,4.2.4,1.3.2,2.4.7,3.3,1.2.9.6,1.6,1.3,2.1,2.2.5.9.8,2,.8,3.4s-.2,2.3-.7,3.2c-.5.9-1.1,1.6-2,2.1-.9.5-2,.9-3.2,1.1-1.3.2-2.8.3-4.4.3s-3-.1-4.2-.4c-1.3-.2-2.4-.7-3.3-1.2s-1.6-1.3-2.1-2.2c-.5-.9-.8-2-.8-3.4s.2-2.4.7-3.2c.5-.9,1.1-1.6,2-2.1.9-.5,2-.9,3.2-1.1,1.3-.2,2.8-.3,4.4-.3ZM750.6,613.4c-1,0-1.9,0-2.7.1-.8,0-1.5.2-2.1.3-.6.1-1.1.3-1.6.5-.4.2-.8.5-1.1.8-.3.3-.5.7-.6,1.1-.1.4-.2.9-.2,1.4,0,.9.2,1.6.6,2.2.4.6,1,1,1.7,1.3.7.3,1.6.5,2.6.6,1,.1,2,.2,3.2.2s2.8,0,3.9-.2c1.1-.2,1.9-.4,2.6-.7.7-.3,1.2-.8,1.5-1.3.3-.5.5-1.2.5-1.9s0-1.1-.3-1.5c-.2-.4-.5-.8-.8-1.1-.3-.3-.8-.6-1.3-.8-.5-.2-1-.4-1.6-.5s-1.2-.2-1.9-.3c-.7,0-1.4,0-2.2,0Z"/>
          <path class="cls-8" d="M759.4,589.8c.2,0,.4,0,.5,0,.1,0,.3,0,.4.1s.2.1.2.2c0,0,0,.1,0,.2v5.9c0,.3,0,.5-.2.6-.2.2-.4.2-.8.2h-.6c-.1,0-.3,0-.4,0-.1,0-.2,0-.3-.1-.1,0-.2-.1-.3-.2-.1-.1-.3-.3-.6-.7-.3-.4-.6-.8-1.1-1.3s-1-.9-1.6-1.2c-.6-.3-1.3-.5-2.1-.7-.8-.1-1.7-.2-2.6-.2s-1.3,0-1.9.1c-.6,0-1.2.2-1.8.4-.6.2-1.1.5-1.5.8-.5.3-.9.7-1.2,1.1-.3.5-.6,1-.8,1.6-.2.6-.3,1.3-.3,2.1s.1,1.5.3,2.1.5,1.2.8,1.6c.3.5.8.9,1.2,1.2.5.3,1,.6,1.5.8.6.2,1.1.4,1.7.5.6,0,1.2.1,1.8.1,1.1,0,2,0,2.8-.2s1.5-.4,2.1-.7c.6-.3,1.1-.7,1.6-1.2.5-.5.8-.9,1.1-1.3.3-.4.5-.6.6-.7.1-.1.2-.2.4-.2.1,0,.2,0,.3-.1.1,0,.2,0,.4,0h.6c.4,0,.6,0,.8.2s.2.4.2.6v5.9c0,0,0,.2,0,.2,0,0-.1.1-.2.2,0,0-.2,0-.4.1-.1,0-.3,0-.5,0-.4,0-.7,0-.9-.1-.2,0-.3-.2-.3-.4v-3.9c-.4.7-.8,1.3-1.4,1.8-.5.5-1.2,1-1.9,1.4-.7.4-1.5.7-2.3.9-.8.2-1.8.3-2.8.3-1.4,0-2.8-.2-4-.6-1.2-.4-2.3-1-3.1-1.8-.9-.8-1.6-1.7-2.1-2.9-.5-1.2-.7-2.5-.7-4s.2-2.7.7-3.8c.5-1.1,1.1-2,2-2.8s1.9-1.3,3-1.7c1.2-.4,2.5-.6,3.9-.6s2,.1,2.9.3,1.7.5,2.4.9c.7.4,1.4.8,1.9,1.4.5.5,1,1.1,1.4,1.8v-3.9c0-.2,0-.3.3-.4.2,0,.5-.1.9-.1Z"/>
        </g>
      </g>
      <g id="layer1-3">
        <rect id="rect815" x="621.9" y="204.3" width="191.5" height="257.3"/>
        <rect id="rect821" class="cls-8" x="667.2" y="419.7" width="99.6" height="34.3"/>
        <rect id="rect825" class="cls-31" x="667.4" y="421.7" width="32.6" height="30.1" rx="6.3" ry="6.3"/>
        <rect id="rect831-5" class="cls-8" x="648.9" y="348.1" width="136.3" height="34.3"/>
        <rect id="rect833-2" class="cls-8" x="648.9" y="312.3" width="136.3" height="34.3"/>
        <rect id="rect837-8" class="cls-8" x="648.9" y="276.5" width="136.3" height="34.3"/>
        <rect id="rect872" class="cls-31" x="734" y="421.7" width="32.6" height="30.1" rx="6.3" ry="6.3"/>
        <rect id="rect874" class="cls-31" x="700.7" y="421.7" width="32.6" height="30.1" rx="5.5" ry="5.5"/>
        <rect id="rect892-8" class="cls-25" x="650.7" y="349.2" width="133.4" height="31.7"/>
        <path id="rect836-66" class="cls-32" d="M666.6,349.2h8.1c8.7,0,15.8,7.1,15.8,15.8h0c0,8.7-7.1,15.8-15.8,15.8h-8.1c-8.7,0-15.8-7.1-15.8-15.8h0c0-8.7,7.1-15.8,15.8-15.8Z"/>
        <rect id="rect850-4" class="cls-32" x="693.2" y="349.2" width="39.8" height="31.7"/>
        <rect id="rect892-7-0" class="cls-25" x="650.3" y="313.6" width="133.4" height="31.7"/>
        <rect id="rect892-72-9" class="cls-25" x="650.3" y="278" width="133.4" height="31.7"/>
        <path id="rect836-7-4" class="cls-32" d="M666.1,313.8h8.1c8.7,0,15.7,7,15.7,15.7h0c0,8.7-7,15.7-15.7,15.7h-8.1c-8.7,0-15.7-7-15.7-15.7h0c0-8.7,7-15.7,15.7-15.7Z"/>
        <path id="rect836-6-2" class="cls-32" d="M708.6,313.8h8.1c8.7,0,15.7,7,15.7,15.7h0c0,8.7-7,15.7-15.7,15.7h-8.1c-8.7,0-15.7-7-15.7-15.7h0c0-8.7,7-15.7,15.7-15.7h0Z"/>
        <path id="rect939-8" class="cls-32" d="M708.8,277.7h8.1c8.7,0,15.8,7.1,15.8,15.8h0c0,8.7-7.1,15.8-15.8,15.8h-8.1c-8.7,0-15.8-7.1-15.8-15.8h0c0-8.7,7.1-15.8,15.8-15.8Z"/>
        <path id="rect941-0" class="cls-32" d="M665.9,277.7h8.1c8.7,0,15.8,7.1,15.8,15.8h0c0,8.7-7.1,15.8-15.8,15.8h-8.1c-8.7,0-15.8-7.1-15.8-15.8h0c0-8.7,7.1-15.8,15.8-15.8h0Z"/>
        <rect id="rect943-3" class="cls-32" x="739.3" y="314.5" width="43.9" height="29.7"/>
        <rect id="rect945-1" class="cls-32" x="739.3" y="278.9" width="43.9" height="29.7"/>
        <rect id="rect947" class="cls-23" x="681.9" y="438.1" width="3.6" height="62.9"/>
        <rect id="rect949" class="cls-23" x="715.4" y="438.1" width="3.6" height="62.9"/>
        <rect id="rect951" class="cls-23" x="748.4" y="438.1" width="3.6" height="62.9"/>
        <ellipse id="path1456-9" class="cls-24" cx="648.8" cy="258" rx="17.5" ry="17.1"/>
        <ellipse id="ellipse1458-6" class="cls-24" cx="785.1" cy="258" rx="17.5" ry="17.1"/>
        <ellipse id="path1460-3" class="cls-9" cx="648.8" cy="257.9" rx="15.7" ry="15.4"/>
        <ellipse id="ellipse1464-6" class="cls-9" cx="785" cy="257.9" rx="15.7" ry="15.4"/>
        <circle id="circle1504-7" class="cls-9" cx="670.4" cy="365" r="14.9"/>
        <circle id="circle1510-0" class="cls-9" cx="712.7" cy="365" r="14.9"/>
        <circle id="circle77-2" class="cls-9" cx="670.2" cy="293.5" r="14.9"/>
        <circle id="circle79-3" class="cls-9" cx="712.7" cy="293.5" r="14.9"/>
        <circle id="circle81-6" class="cls-9" cx="761.1" cy="293.8" r="12.7"/>
        <path id="path31-1-3" class="cls-8" d="M676.4,224.4c1.2,0,1.3,0,1.5-.2.1,0,.3-.2.4-.4.1-.2.1-.4.2-2.8v-2.6s2.5,0,2.5,0h2.5v3.2c0,3.5,0,3.9-.4,4.8-.4,1.2-1.4,2-2.6,2.1-.8.1-1.5.1-2.3.1-1,0-2.1,0-2.4,0h-.6c0,0,0-2.1,0-2.1v-2.1s1.3,0,1.3,0h0ZM700.5,231.6c21.6,0,26.9,0,26,.1h-.1s.1,0,.1,0c.1,0,0,0-.1,0-.2,0,0,0,.2,0h.4s-.4,0-.4,0c-.2,0-.4,0-.3,0,.1,0,.1.1.1.6s0,.6.2.6c.1,0,.1,0-.1,0-.2,0-.3,0-.3,0s-8.6,0-25.5,0h-25.5v-1.8h25.4ZM681,211.9h2.5v4.1h-5.1v-4.1h2.5ZM686.1,219.6c.2-1.1.5-2.1,1-3.1.1-.2.2-.4.4-.6.1-.1.2-.3.3-.4.3-.4.6-.9,1-1.2,0,0,0,0,0-.1.3-.4.7-.7,1.1-1,.6-.4,1.2-.7,1.9-.9,1-.4,2-.5,3.1-.5.6,0,1.2,0,1.8.2.4.1.8.3,1,.3.1,0,.3.1.4.1.2,0,.4.2.6.3,1.5,1,2.7,2.4,3.5,4,1,2,1.1,4.3.4,6.5-.2.7-.5,1.3-.9,2-.4.7-.9,1.3-1.5,1.8-1,1-2.2,1.8-3.6,2.1-1.1.2-2.1.3-3.2.2-1.2-.2-2.4-.7-3.5-1.5-.4-.3-.8-.6-1.1-1-.1-.1-.2-.3-.4-.4-1.1-1.2-1.8-2.7-2.2-4.3-.1-.8-.2-1.7-.2-2.5h0ZM691,221.7c.2,1,.8,1.8,1.5,2.5.8.7,2,1,3,.7,1.3-.6,2.3-1.7,2.7-3.2.2-.9.2-1.9,0-2.9-.3-1.1-.9-2-1.8-2.6-.3-.2-.6-.4-1-.4-.8-.2-1.6,0-2.4.2-.7.4-1.3,1.1-1.6,1.8-.6,1.2-.8,2.5-.4,3.8h0ZM705.3,211.9s1.2,0,2.6,0h2.5s0,2.3,0,2.3c0,2.2,0,2.3.2,2.7.4,1,1.5,1.5,2.6,1.2.5-.2.9-.5,1.1-1l.2-.4v-2.4s0-2.4,0-2.4h5.1v2.7c0,1.1,0,2.2-.2,3.2-.3,1-.7,1.9-1.3,2.6-.1.1-.2.2-.3.4-.4.4-.8.8-1.2,1.1-.5.3-1,.6-1.5.8-.1,0-.5.1-.8.2-.6.2-1.2.2-1.8.2-.6,0-1.3,0-1.9-.2-.7-.2-1.4-.5-2-.9-.8-.5-1.4-1.2-1.9-1.9-.7-.9-1.1-2.1-1.2-3.2-.1-1.6,0-3.3,0-4.9h0ZM712.5,224.5h4.2v4.3h-8.3v-4.3h4.2ZM719.6,208.6s0-.1,0-.3c0-.3,0-.3.3-.3.2,0,7.2,0,15.7,0h15.4s0,.9,0,.9v.9h-15.7c-8.6,0-15.7,0-15.7,0,0,0-.1-.2-.1-.6s0-.6,0-.6h0ZM726.6,218.9h5.3v4.2h-10.6v-4.2h5.3ZM736.1,211.9h2.5v4.1h-5.1v-4.1h2.5ZM736.1,218.2h2.5v10.7h-5.1v-10.7h2.5ZM746.3,211.9h5.3v4.1h-10.7v-4.1h5.3ZM741.8,218.5s1.2,0,2.5,0h2.4s0,2.5,0,2.5c0,3.5-.1,3.3,2.5,3.3h1.6v4.3h-.6c-1.5.2-3.1.2-4.6,0-1.1,0-2.1-.6-2.8-1.3-.6-.8-1-1.7-1-2.7,0-.7,0-6.1,0-6.1h0ZM754.6,209.9c.1-.4.3-.8.7-1.1,1-1,2.6-1.1,3.7-.3.4.2.7.6.9,1,.2.3.2.7.2,1.1,0,.4,0,.8-.2,1.1-.5.9-1.3,1.5-2.3,1.6-.9,0-1.7-.2-2.3-.9-.6-.7-.9-1.7-.6-2.6h0ZM755.1,211.6c.4.6,1,1.1,1.7,1.3.8.2,1.6,0,2.2-.6.2-.2.4-.4.5-.7.2-.3.3-.7.2-1,0-.4,0-.7-.2-1.1-.1-.3-.4-.6-.7-.8-.2-.2-.5-.3-.8-.4-1.2-.4-2.5.2-3,1.4-.2.6-.1,1.3,0,1.9h0ZM757,209c.4,0,.7,0,1.1,0,.4.3.6.9.3,1.3-.1.1-.2.2-.4.3h-.2c0,0,.2.3.2.3.2.2.3.4.5.6,0,.1.2.3.3.4.1,0,0,.2-.2.2h-.3s-.4-.7-.4-.7c-.4-.7-.5-.8-1-.8h-.3v1.4h-.2s-.2,0-.2,0v-1.6s0-1.6,0-1.6h.9ZM757.1,210.3c.5,0,.6,0,.8-.1.4-.3.2-.8-.4-.8-.3,0-.7,0-1,0,0,.2,0,.3,0,.5v.5h.6Z"/>
        <rect id="rect92-2" class="cls-32" x="739.2" y="350.3" width="43.9" height="29.7"/>
        <circle id="circle1514-4" class="cls-9" cx="761.1" cy="365.2" r="12.7"/>
        <g id="text88" class="cls-21">
          <g class="cls-21">
            <g class="cls-21">
              <path class="cls-8" d="M810,334c0,0,.1,0,.2,0,0,0,.1,0,.1.2s0,.2,0,.4c0,.1,0,.3,0,.6s0,.6,0,.8c0,.2,0,.3-.1.4s-.1.2-.2.2l-8.5,6.3h8.5c0,0,.1,0,.2,0,0,0,.1,0,.1.2,0,0,0,.2,0,.3,0,.1,0,.3,0,.5s0,.4,0,.5c0,.1,0,.3,0,.4,0,0,0,.1-.1.2,0,0-.1,0-.2,0h-16.4c0,0-.1,0-.2,0,0,0,0,0-.1-.2,0,0,0-.2,0-.4,0-.1,0-.3,0-.5s0-.4,0-.5c0-.1,0-.3,0-.3,0,0,0-.1.1-.2,0,0,.1,0,.2,0h7.6l-7.6-6c0,0-.1-.1-.2-.2,0,0,0-.2-.1-.3,0-.1,0-.2,0-.4,0-.1,0-.3,0-.6s0-.4,0-.6c0-.1,0-.3,0-.3s0-.1.1-.2.1,0,.2,0c.1,0,.2,0,.3,0s.3.2.5.3l6.8,5.7,8.1-6.1c.2-.1.4-.2.5-.3,0,0,.2,0,.2,0Z"/>
            </g>
            <g class="cls-21">
              <path class="cls-8" d="M803.8,325.7h6.3c0,0,.1,0,.2,0s0,0,.1.2c0,0,0,.2,0,.4,0,.1,0,.3,0,.5s0,.4,0,.5c0,.1,0,.3,0,.4,0,0,0,.2-.1.2s-.1,0-.2,0h-6.3l-9.6,4.8c-.2,0-.4.2-.5.2s-.2,0-.3,0-.1-.2-.1-.4,0-.4,0-.7,0-.5,0-.6,0-.3,0-.4c0,0,0-.2.1-.2,0,0,.1,0,.2-.1l4.9-2.4c.5-.2,1-.4,1.5-.7.5-.2,1-.4,1.5-.7h0c-.5-.2-1-.4-1.5-.6-.5-.2-1-.4-1.5-.6l-4.9-2.4c0,0-.2,0-.2-.1s-.1-.1-.1-.2c0,0,0-.2,0-.3s0-.3,0-.6,0-.6,0-.7c0-.2,0-.3.1-.4s.1,0,.3,0,.3,0,.5.2l9.6,4.8Z"/>
            </g>
            <g class="cls-21">
              <path class="cls-8" d="M803.8,314.4c.3,0,.6,0,.7.1s.2.2.2.3v5.5c0,.2,0,.3-.2.4-.1,0-.4.1-.7.1s-.6,0-.7-.1-.2-.2-.2-.4v-5.5c0,0,0-.1,0-.2,0,0,0-.1.2-.1,0,0,.2,0,.3,0s.3,0,.4,0Z"/>
              <path class="cls-8" d="M801.8,300.8c1.3,0,2.5.1,3.6.3,1.1.2,2,.5,2.8,1,.8.5,1.4,1.1,1.8,1.9.4.8.6,1.7.6,2.9s-.2,2-.6,2.7c-.4.7-.9,1.3-1.7,1.8-.7.4-1.7.8-2.7,1s-2.3.3-3.7.3-2.5-.1-3.6-.3-2-.6-2.8-1c-.8-.5-1.4-1.1-1.8-1.9-.4-.8-.6-1.7-.6-2.8s.2-2,.6-2.7.9-1.3,1.7-1.8c.7-.4,1.7-.8,2.7-1s2.3-.3,3.7-.3ZM802,303.1c-.9,0-1.6,0-2.3,0-.7,0-1.3.2-1.8.3s-1,.3-1.3.5c-.4.2-.7.4-.9.7-.2.3-.4.6-.5.9-.1.3-.2.7-.2,1.1,0,.7.2,1.4.5,1.8.4.5.8.8,1.5,1.1.6.3,1.3.5,2.2.5.8,0,1.7.1,2.7.1s2.4,0,3.2-.2c.9-.1,1.6-.3,2.2-.6.6-.3,1-.6,1.2-1.1.3-.4.4-1,.4-1.6s0-.9-.2-1.3c-.2-.4-.4-.7-.7-1-.3-.3-.6-.5-1.1-.7-.4-.2-.9-.3-1.4-.4-.5-.1-1-.2-1.6-.2s-1.2,0-1.8,0Z"/>
              <path class="cls-8" d="M809.5,287.6c.2,0,.3,0,.4,0s.2,0,.3.1.1,0,.2.2c0,0,0,.1,0,.2v8.9c0,0,0,.1,0,.2,0,0,0,.1-.2.2s-.2,0-.3.1-.3,0-.4,0-.3,0-.4,0-.2,0-.3,0c0,0-.1,0-.2-.1,0,0,0-.1,0-.2v-3.6h-13l2,3.3c0,.2.1.3.2.4s0,.2,0,.2c0,0-.2.1-.3.1s-.3,0-.5,0-.3,0-.4,0-.2,0-.3,0-.1,0-.2-.1-.1-.1-.2-.2l-2.5-3.9s0,0,0-.1c0,0,0-.1,0-.2s0-.2,0-.3c0-.1,0-.2,0-.4s0-.4,0-.5,0-.3,0-.3c0,0,0-.1.1-.2,0,0,0,0,.2,0h15v-3.1c0,0,0-.1,0-.2,0,0,0-.1.2-.2,0,0,.2,0,.3,0,.1,0,.3,0,.4,0Z"/>
              <path class="cls-8" d="M809.5,273.9c.2,0,.3,0,.4,0s.2,0,.3.1.1,0,.2.2c0,0,0,.1,0,.2v8.9c0,0,0,.1,0,.2,0,0,0,.1-.2.2s-.2,0-.3.1-.3,0-.4,0-.3,0-.4,0-.2,0-.3,0c0,0-.1,0-.2-.1,0,0,0-.1,0-.2v-3.6h-13l2,3.3c0,.2.1.3.2.4s0,.2,0,.2c0,0-.2.1-.3.1s-.3,0-.5,0-.3,0-.4,0-.2,0-.3,0-.1,0-.2-.1-.1-.1-.2-.2l-2.5-3.9s0,0,0-.1c0,0,0-.1,0-.2s0-.2,0-.3c0-.1,0-.2,0-.4s0-.4,0-.5,0-.3,0-.3c0,0,0-.1.1-.2,0,0,0,0,.2,0h15v-3.1c0,0,0-.1,0-.2,0,0,0-.1.2-.2,0,0,.2,0,.3,0,.1,0,.3,0,.4,0Z"/>
            </g>
          </g>
        </g>
        <g id="text92" class="cls-21">
          <g class="cls-21">
            <path class="cls-8" d="M788,440.3c0,.8-.1,1.5-.4,2.1s-.7,1.2-1.2,1.6c-.5.4-1.1.8-1.8,1s-1.5.3-2.3.3-1.1,0-1.6-.1-.9-.2-1.3-.4-.7-.3-1-.4-.4-.3-.5-.4c-.1-.1-.2-.2-.2-.4,0-.2,0-.4,0-.7s0-.4,0-.5c0-.1,0-.2,0-.3s0-.1.1-.2c0,0,.1,0,.2,0,.1,0,.3,0,.5.2.2.1.5.3.9.5s.8.3,1.3.5c.5.2,1.1.2,1.7.2s.9,0,1.4-.2.8-.3,1.1-.6c.3-.2.5-.5.7-.9.2-.4.2-.8.2-1.2s-.1-.9-.3-1.2-.5-.6-.9-.9c-.4-.3-.8-.5-1.2-.7s-.9-.4-1.4-.7c-.5-.2-1-.5-1.4-.7-.5-.3-.9-.6-1.2-1-.4-.4-.7-.8-.9-1.3-.2-.5-.3-1.1-.3-1.8s.1-1.3.4-1.9c.3-.6.6-1,1.1-1.4.5-.4,1-.7,1.6-.9.6-.2,1.3-.3,2.1-.3s.8,0,1.1,0c.4,0,.7.2,1.1.3.3.1.6.2.9.4.3.1.4.2.5.3,0,0,.1.1.2.2,0,0,0,.1,0,.2,0,0,0,.2,0,.3s0,.2,0,.4,0,.3,0,.4c0,.1,0,.2,0,.3,0,0,0,.1-.1.2,0,0-.1,0-.2,0,0,0-.2,0-.5-.2-.2-.1-.5-.3-.8-.4-.3-.2-.7-.3-1.1-.4-.4-.1-.9-.2-1.4-.2s-.9,0-1.2.2c-.4.1-.6.3-.9.5s-.4.5-.5.8-.2.6-.2.9c0,.5.1.9.3,1.2s.5.6.9.9.8.5,1.2.7c.5.2.9.4,1.4.7.5.2,1,.5,1.4.7.5.3.9.6,1.2.9s.7.8.9,1.3c.2.5.3,1.1.3,1.8Z"/>
          </g>
        </g>
        <g id="text96" class="cls-21">
          <g class="cls-21">
            <path class="cls-8" d="M659.3,436.8c0,.3-.1.6-.3.7-.2.1-.5.2-.9.2h-14.7c-.4,0-.7,0-1-.2-.2-.1-.3-.4-.3-.7s.1-.6.3-.7c.2-.1.5-.2,1-.2h14.7c.2,0,.4,0,.5,0s.3,0,.4.2.2.2.2.3c0,.1,0,.3,0,.4Z"/>
          </g>
        </g>
        <rect id="rect884" x="650.5" y="144.8" width="133.9" height="19.9"/>
        <rect id="rect886" x="655.2" y="59.4" width="124.7" height="98"/>
        <path id="path888" d="M779.8,62.1c-.1-34.4-28.1-62.2-62.5-62.1-34.3.1-62,27.9-62.1,62.1h124.6Z"/>
        <path id="path3796-8" class="cls-23" d="M759.4,160.7h3.4v170.4h-3.4v-170.4Z"/>
        <path id="path3794-4" class="cls-23" d="M711,160.7h3.4v170.4h-3.4v-170.4Z"/>
        <path id="rect74-7" class="cls-23" d="M668.5,160.7h3.4v170.4h-3.4v-170.4Z"/>
        <path id="rect3800-2" class="cls-22" d="M716.2,6.7c-31.1.7-55.9,26.1-56,57.1h0v84.6h-4.3v12.7h123.2v-12.7h-4.2V63.8h0c-.1-31.7-25.9-57.3-57.6-57.1-.4,0-.8,0-1.1,0Z"/>
      </g>
      <rect id="rect2383" class="cls-19" x="711.4" y="476" width="11.3" height="92.3"/>
      <rect id="rect2385" class="cls-36" x="744.6" y="476" width="11.3" height="92.3"/>
      <rect id="rect840" class="cls-13" x="678" y="476" width="11.3" height="251.9"/>
      <circle id="path1090" class="cls-36" cx="750.2" cy="476" r="9.4"/>
      <circle id="circle1092" class="cls-19" cx="717.2" cy="476" r="9.4"/>
      <circle id="circle1094" class="cls-13" cx="683.7" cy="476" r="9.4"/>
      <rect id="rect842" class="cls-36" x="573.6" y="777.1" width="182.3" height="11.3"/>
      <rect id="rect462" class="cls-19" x="573.6" y="746.8" width="149.2" height="11.3"/>
      <rect class="cls-13" x="20.2" y="716.4" width="668.6" height="11.4"/>
      <rect class="cls-13" x="20.2" y="716.4" width="11.4" height="90.3"/>
      <circle id="circle281" class="cls-13" cx="25.9" cy="804.9" r="11.6"/>
      <circle id="circle281-2" class="cls-19" cx="575.8" cy="752.5" r="11.6"/>
      <circle id="circle281-3" class="cls-36" cx="575.8" cy="783.2" r="11.6"/>
    </g>
  </g>
</svg>