<?xml version="1.0" encoding="UTF-8"?>
<svg xmlns="http://www.w3.org/2000/svg" xmlns:svg="http://www.w3.org/2000/svg" xmlns:sodipodi="http://sodipodi.sourceforge.net/DTD/sodipodi-0.dtd" xmlns:rdf="http://www.w3.org/1999/02/22-rdf-syntax-ns#" xmlns:inkscape="http://www.inkscape.org/namespaces/inkscape" xmlns:dc="http://purl.org/dc/elements/1.1/" xmlns:cc="http://creativecommons.org/ns#" version="1.1" viewBox="0 0 461 1065">
  <defs>
    <style>
      .cls-1, .cls-2 {
        fill: #010101;
      }

      .cls-3 {
        fill: #808181;
      }

      .cls-3, .cls-4, .cls-5, .cls-2, .cls-6, .cls-7 {
        isolation: isolate;
      }

      .cls-4 {
        fill: #f2f2f2;
      }

      .cls-8 {
        fill: #02814b;
      }

      .cls-9 {
        fill: #868c97;
      }

      .cls-10 {
        stroke: #fff;
      }

      .cls-10, .cls-11, .cls-12, .cls-13, .cls-14, .cls-15 {
        fill: none;
        stroke-miterlimit: 10;
      }

      .cls-16 {
        fill: #c2bfab;
      }

      .cls-17 {
        fill: #e8d28a;
      }

      .cls-18 {
        fill: #8dddde;
      }

      .cls-19 {
        fill: #cecece;
      }

      .cls-11 {
        stroke: #754c24;
      }

      .cls-20 {
        fill: #c1c1c1;
      }

      .cls-21 {
        fill: #b9a68f;
      }

      .cls-22 {
        fill: #915114;
      }

      .cls-23 {
        fill: #141316;
      }

      .cls-24 {
        fill: #e2eade;
      }

      .cls-25 {
        fill: #474544;
      }

      .cls-26 {
        fill: #ddd;
      }

      .cls-6, .cls-27 {
        fill: #cdcccc;
      }

      .cls-12 {
        stroke: red;
      }

      .cls-28 {
        fill: #e20e18;
      }

      .cls-29 {
        fill: #fee86f;
      }

      .cls-30, .cls-7 {
        fill: #fff;
      }

      .cls-31 {
        fill: #0d8136;
      }

      .cls-32 {
        fill: #c29148;
      }

      .cls-33 {
        fill: #e0b45b;
      }

      .cls-34 {
        fill: #d4c547;
      }

      .cls-13 {
        stroke: #000;
      }

      .cls-35 {
        fill: #29abe2;
      }

      .cls-14 {
        stroke: gray;
        stroke-width: 2px;
      }

      .cls-36 {
        fill: #fcfcfa;
      }

      .cls-37 {
        fill: #7f7f7f;
      }

      .cls-38 {
        fill: #525035;
      }

      .cls-39 {
        fill: #ffe17b;
      }

      .cls-40 {
        fill: #aba28e;
      }

      .cls-15 {
        stroke: #95ac6e;
      }

      .cls-41 {
        fill: #1b1b1b;
      }

      .cls-42 {
        fill: #36323e;
      }
    </style>
  </defs>
  <!-- Generator: Adobe Illustrator 28.7.0, SVG Export Plug-In . SVG Version: 1.2.0 Build 136)  -->
  <g>
    <g id="Layer_1">
      <g>
        <line class="cls-14" x1="402.7" y1="480.7" x2="402.7" y2="496.7"/>
        <path class="cls-35" d="M387.4,514.7c0,4.9,1.4,9.4,3.9,12.6v35.6c-2.5,3.4-3.9,7.7-3.9,12.6,0,10.4,6.8,18.7,15.5,18.7s15.5-8.4,15.5-18.7-1.4-9.4-3.9-12.6v-35.6c2.5-3.4,3.9-7.7,3.9-12.6,0-10.4-6.8-18.7-15.5-18.7s-15.5,8.4-15.5,18.7Z"/>
        <line class="cls-11" x1="387.6" y1="512.3" x2="418.1" y2="512.3"/>
        <line class="cls-12" x1="387.6" y1="577.5" x2="418.1" y2="577.5"/>
        <line class="cls-12" x1="391.3" y1="558.3" x2="414.3" y2="558.3"/>
        <line class="cls-13" x1="391.3" y1="551.8" x2="414.1" y2="551.8"/>
        <line class="cls-13" x1="391.3" y1="540.5" x2="414.1" y2="540.5"/>
        <line class="cls-14" x1="402.7" y1="594.1" x2="402.7" y2="610"/>
      </g>
      <g>
        <line class="cls-14" x1="371.1" y1="481" x2="371.1" y2="497"/>
        <path class="cls-35" d="M355.8,515c0,4.9,1.4,9.4,3.9,12.6v35.6c-2.5,3.4-3.9,7.7-3.9,12.6,0,10.4,6.8,18.7,15.5,18.7s15.5-8.4,15.5-18.7-1.4-9.4-3.9-12.6v-35.6c2.5-3.4,3.9-7.7,3.9-12.6,0-10.4-6.8-18.7-15.5-18.7s-15.5,8.4-15.5,18.7Z"/>
        <line class="cls-11" x1="356" y1="512.6" x2="386.5" y2="512.6"/>
        <line class="cls-12" x1="356" y1="577.9" x2="386.5" y2="577.9"/>
        <line class="cls-12" x1="359.7" y1="558.6" x2="382.7" y2="558.6"/>
        <line class="cls-13" x1="359.7" y1="552.1" x2="382.5" y2="552.1"/>
        <line class="cls-13" x1="359.7" y1="540.8" x2="382.5" y2="540.8"/>
        <line class="cls-14" x1="371.1" y1="594.4" x2="371.1" y2="610.3"/>
      </g>
      <g>
        <path class="cls-8" d="M243.3,483v-11.9H.2v11.9c2.3.9,3.9,3.1,3.9,5.7s-1.6,4.8-3.9,5.7v18.1c2.3.9,3.9,3.1,3.9,5.7s-1.6,4.8-3.9,5.7v18.1c2.3.9,3.9,3.1,3.9,5.7s-1.6,4.8-3.9,5.7v18.1c2.3.9,3.9,3.1,3.9,5.7s-1.6,4.8-3.9,5.7v18.1c2.3.9,3.9,3.1,3.9,5.7s-1.6,4.8-3.9,5.7v17.6c2.3.9,3.9,3.1,3.9,5.7s-1.6,4.8-3.9,5.7v18.1c2.3.9,3.9,3.1,3.9,5.7s-1.6,4.8-3.9,5.7v18.1c2.3.9,3.9,3.1,3.9,5.7s-1.6,4.8-3.9,5.7v18.1c2.3.9,3.9,3.1,3.9,5.7s-1.6,4.8-3.9,5.7v18.1c2.3.9,3.9,3.1,3.9,5.7s-1.6,4.8-3.9,5.7v18.1c2.3.9,3.9,3.1,3.9,5.7s-1.6,4.8-3.9,5.7v18.1c2.3.9,3.9,3.1,3.9,5.7s-1.6,4.8-3.9,5.7v18.1c2.3.9,3.9,3.1,3.9,5.7s-1.6,4.8-3.9,5.7v18.1c2.3.9,3.9,3.1,3.9,5.7s-1.6,4.8-3.9,5.7v18.1c2.3.9,3.9,3.1,3.9,5.7s-1.6,4.8-3.9,5.7v18.1c2.3.9,3.9,3.1,3.9,5.7s-1.6,4.8-3.9,5.7v18.1c2.3.9,3.9,3.1,3.9,5.7s-1.6,4.8-3.9,5.7v18.1c2.3.9,3.9,3.1,3.9,5.7s-1.6,4.8-3.9,5.7v18c2.3.9,3.9,3.1,3.9,5.7s-1.6,4.8-3.9,5.7v18.1c2.3.9,3.9,3.1,3.9,5.7s-1.6,4.8-3.9,5.7v11.9h243.1v-11.9c-2.2-.9-3.8-3.1-3.8-5.7s1.6-4.8,3.8-5.7v-18.1c-2.2-.9-3.8-3.1-3.8-5.7s1.6-4.8,3.8-5.7v-19.4c-2.2-.9-3.8-3.1-3.8-5.7s1.6-4.8,3.8-5.7v-18.1c-2.2-.9-3.8-3.1-3.8-5.7s1.6-4.8,3.8-5.7v-18.1c-2.2-.9-3.8-3.1-3.8-5.7s1.6-4.8,3.8-5.7v-18.1c-2.2-.9-3.8-3.1-3.8-5.7s1.6-4.8,3.8-5.7v-18.1c-2.2-.9-3.8-3.1-3.8-5.7s1.6-4.8,3.8-5.7v-18.1c-2.2-.9-3.8-3.1-3.8-5.7s1.6-4.8,3.8-5.7v-18.1c-2.2-.9-3.8-3.1-3.8-5.7s1.6-4.8,3.8-5.7v-18.1c-2.2-.9-3.8-3.1-3.8-5.7s1.6-4.8,3.8-5.7v-18.1c-2.2-.9-3.8-3.1-3.8-5.7s1.6-4.8,3.8-5.7v-18.1c-2.2-.9-3.8-3.1-3.8-5.7s1.6-4.8,3.8-5.7v-18.1c-2.2-.9-3.8-3.1-3.8-5.7s1.6-4.8,3.8-5.7v-18.1c-2.2-.9-3.8-3.1-3.8-5.7s1.6-4.8,3.8-5.7v-18.1c-2.2-.9-3.8-3.1-3.8-5.7s1.6-4.8,3.8-5.7v-18.1c-2.2-.9-3.8-3.1-3.8-5.7s1.6-4.8,3.8-5.7v-18.1c-2.2-.9-3.8-3.1-3.8-5.7s1.6-4.8,3.8-5.7v-18.1c-2.2-.9-3.8-3.1-3.8-5.7s1.6-4.8,3.8-5.7v-18.1c-2.2-.9-3.8-3.1-3.8-5.7s1.6-4.8,3.8-5.7v-18.1c-2.2-.9-3.8-3.1-3.8-5.7s1.6-2.9,3.8-3.8h0ZM15.8,1053.3c-3.4,0-6.1-2.7-6.1-6.1s2.7-6.1,6.1-6.1,6.1,2.7,6.1,6.1-2.7,6.1-6.1,6.1ZM15.8,1023.8c-3.4,0-6.1-2.7-6.1-6.1s2.7-6.1,6.1-6.1,6.1,2.7,6.1,6.1-2.7,6.1-6.1,6.1ZM15.8,994.5c-3.4,0-6.1-2.7-6.1-6.1s2.7-6.1,6.1-6.1,6.1,2.7,6.1,6.1-2.7,6.1-6.1,6.1ZM15.8,965.1c-3.4,0-6.1-2.7-6.1-6.1s2.7-6.1,6.1-6.1,6.1,2.7,6.1,6.1-2.7,6.1-6.1,6.1ZM15.8,935.7c-3.4,0-6.1-2.7-6.1-6.1s2.7-6.1,6.1-6.1,6.1,2.7,6.1,6.1-2.7,6.1-6.1,6.1ZM15.8,906.3c-3.4,0-6.1-2.7-6.1-6.1s2.7-6.1,6.1-6.1,6.1,2.7,6.1,6.1-2.7,6.1-6.1,6.1ZM15.8,876.9c-3.4,0-6.1-2.7-6.1-6.1s2.7-6.1,6.1-6.1,6.1,2.7,6.1,6.1-2.7,6.1-6.1,6.1ZM15.8,847.5c-3.4,0-6.1-2.7-6.1-6.1s2.7-6.1,6.1-6.1,6.1,2.7,6.1,6.1-2.7,6.1-6.1,6.1ZM15.8,818.1c-3.4,0-6.1-2.7-6.1-6.1s2.7-6.1,6.1-6.1,6.1,2.7,6.1,6.1-2.7,6.1-6.1,6.1ZM15.8,788.7c-3.4,0-6.1-2.7-6.1-6.1s2.7-6.1,6.1-6.1,6.1,2.7,6.1,6.1-2.7,6.1-6.1,6.1ZM15.8,759.3c-3.4,0-6.1-2.7-6.1-6.1s2.7-6.1,6.1-6.1,6.1,2.7,6.1,6.1-2.7,6.1-6.1,6.1ZM15.8,729.9c-3.4,0-6.1-2.7-6.1-6.1s2.7-6.1,6.1-6.1,6.1,2.7,6.1,6.1-2.7,6.1-6.1,6.1ZM15.8,700.5c-3.4,0-6.1-2.7-6.1-6.1s2.7-6.1,6.1-6.1,6.1,2.7,6.1,6.1-2.7,6.1-6.1,6.1ZM15.8,671.1c-3.4,0-6.1-2.7-6.1-6.1s2.7-6.1,6.1-6.1,6.1,2.7,6.1,6.1-2.7,6.1-6.1,6.1ZM15.8,641.7c-3.4,0-6.1-2.7-6.1-6.1s2.7-6.1,6.1-6.1,6.1,2.7,6.1,6.1-2.7,6.1-6.1,6.1ZM15.8,612.3c-3.4,0-6.1-2.7-6.1-6.1s2.7-6.1,6.1-6.1,6.1,2.7,6.1,6.1-2.7,6.1-6.1,6.1ZM15.8,582.9c-3.4,0-6.1-2.7-6.1-6.1s2.7-6.1,6.1-6.1,6.1,2.7,6.1,6.1-2.7,6.1-6.1,6.1ZM15.8,553.5c-3.4,0-6.1-2.7-6.1-6.1s2.7-6.1,6.1-6.1,6.1,2.7,6.1,6.1-2.7,6.1-6.1,6.1ZM15.8,524.1c-3.4,0-6.1-2.7-6.1-6.1s2.7-6.1,6.1-6.1,6.1,2.7,6.1,6.1-2.7,6.1-6.1,6.1ZM15.8,494.7c-3.4,0-6.1-2.7-6.1-6.1s2.7-6.1,6.1-6.1,6.1,2.7,6.1,6.1-2.7,6.1-6.1,6.1ZM53.7,1053.2c-6.7,0-12.1-5.4-12.1-12.1s5.4-12.1,12.1-12.1,12.1,5.4,12.1,12.1-5.4,12.1-12.1,12.1ZM53.7,506.1c-6.7,0-12.1-5.4-12.1-12.1s5.4-12.1,12.1-12.1,12.1,5.4,12.1,12.1-5.4,12.1-12.1,12.1ZM127.6,839.3c-3.1,0-5.7-2.6-5.7-5.7s2.6-5.7,5.7-5.7,5.7,2.6,5.7,5.7-2.6,5.7-5.7,5.7ZM157,839.3c-3.1,0-5.7-2.6-5.7-5.7s2.6-5.7,5.7-5.7,5.7,2.6,5.7,5.7-2.5,5.7-5.7,5.7ZM186.2,481.8c6.7,0,12.1,5.4,12.1,12.1s-5.4,12.1-12.1,12.1-12.1-5.4-12.1-12.1,5.5-12.1,12.1-12.1ZM192.5,833.6c0,3.1-2.6,5.7-5.7,5.7s-5.7-2.6-5.7-5.7,2.6-5.7,5.7-5.7,5.7,2.5,5.7,5.7ZM188.2,1053.2c-6.7,0-12.1-5.4-12.1-12.1s5.4-12.1,12.1-12.1,12.1,5.4,12.1,12.1-5.4,12.1-12.1,12.1ZM227.8,1053.3c-3.4,0-6.1-2.7-6.1-6.1s2.7-6.1,6.1-6.1,6.1,2.7,6.1,6.1-2.7,6.1-6.1,6.1ZM227.8,1023.9c-3.4,0-6.1-2.7-6.1-6.1s2.7-6.1,6.1-6.1,6.1,2.7,6.1,6.1-2.7,6.1-6.1,6.1ZM227.8,994.5c-3.4,0-6.1-2.7-6.1-6.1s2.7-6.1,6.1-6.1,6.1,2.7,6.1,6.1-2.7,6.1-6.1,6.1ZM227.8,965.1c-3.4,0-6.1-2.7-6.1-6.1s2.7-6.1,6.1-6.1,6.1,2.7,6.1,6.1-2.7,6.1-6.1,6.1ZM227.8,935.7c-3.4,0-6.1-2.7-6.1-6.1s2.7-6.1,6.1-6.1,6.1,2.7,6.1,6.1-2.7,6.1-6.1,6.1ZM227.8,906.3c-3.4,0-6.1-2.7-6.1-6.1s2.7-6.1,6.1-6.1,6.1,2.7,6.1,6.1-2.7,6.1-6.1,6.1ZM227.8,876.9c-3.4,0-6.1-2.7-6.1-6.1s2.7-6.1,6.1-6.1,6.1,2.7,6.1,6.1-2.7,6.1-6.1,6.1ZM227.8,847.5c-3.4,0-6.1-2.7-6.1-6.1s2.7-6.1,6.1-6.1,6.1,2.7,6.1,6.1-2.7,6.1-6.1,6.1ZM227.8,818.1c-3.4,0-6.1-2.7-6.1-6.1s2.7-6.1,6.1-6.1,6.1,2.7,6.1,6.1-2.7,6.1-6.1,6.1ZM227.8,788.7c-3.4,0-6.1-2.7-6.1-6.1s2.7-6.1,6.1-6.1,6.1,2.7,6.1,6.1-2.7,6.1-6.1,6.1ZM227.8,759.3c-3.4,0-6.1-2.7-6.1-6.1s2.7-6.1,6.1-6.1,6.1,2.7,6.1,6.1-2.7,6.1-6.1,6.1ZM227.8,729.9c-3.4,0-6.1-2.7-6.1-6.1s2.7-6.1,6.1-6.1,6.1,2.7,6.1,6.1-2.7,6.1-6.1,6.1ZM227.8,700.5c-3.4,0-6.1-2.7-6.1-6.1s2.7-6.1,6.1-6.1,6.1,2.7,6.1,6.1-2.7,6.1-6.1,6.1ZM227.8,671.1c-3.4,0-6.1-2.7-6.1-6.1s2.7-6.1,6.1-6.1,6.1,2.7,6.1,6.1-2.7,6.1-6.1,6.1ZM227.8,641.7c-3.4,0-6.1-2.7-6.1-6.1s2.7-6.1,6.1-6.1,6.1,2.7,6.1,6.1-2.7,6.1-6.1,6.1ZM227.8,612.3c-3.4,0-6.1-2.7-6.1-6.1s2.7-6.1,6.1-6.1,6.1,2.7,6.1,6.1-2.7,6.1-6.1,6.1ZM227.8,582.9c-3.4,0-6.1-2.7-6.1-6.1s2.7-6.1,6.1-6.1,6.1,2.7,6.1,6.1-2.7,6.1-6.1,6.1ZM227.8,553.5c-3.4,0-6.1-2.7-6.1-6.1s2.7-6.1,6.1-6.1,6.1,2.7,6.1,6.1-2.7,6.1-6.1,6.1ZM227.8,524.1c-3.4,0-6.1-2.7-6.1-6.1s2.7-6.1,6.1-6.1,6.1,2.7,6.1,6.1-2.7,6.1-6.1,6.1ZM227.8,494.7c-3.4,0-6.1-2.7-6.1-6.1s2.7-6.1,6.1-6.1,6.1,2.7,6.1,6.1-2.7,6.1-6.1,6.1Z"/>
        <path class="cls-34" d="M53.7,473.4c-11.3,0-20.5,9.2-20.5,20.5s9.2,20.5,20.5,20.5,20.5-9.2,20.5-20.5c0-11.3-9.1-20.5-20.5-20.5h0ZM53.7,506.1c-6.7,0-12.1-5.4-12.1-12.1s5.4-12.1,12.1-12.1,12.1,5.4,12.1,12.1-5.4,12.1-12.1,12.1Z"/>
        <path class="cls-34" d="M186.3,473.4c-11.3,0-20.5,9.2-20.5,20.5s9.2,20.5,20.5,20.5,20.5-9.2,20.5-20.5-9.2-20.5-20.5-20.5h0ZM186.3,506.1c-6.7,0-12.1-5.4-12.1-12.1s5.4-12.1,12.1-12.1,12.1,5.4,12.1,12.1-5.4,12.1-12.1,12.1Z"/>
        <path class="cls-34" d="M53.7,1020.6c-11.3,0-20.5,9.2-20.5,20.5s9.2,20.5,20.5,20.5,20.5-9.2,20.5-20.5-9.1-20.5-20.5-20.5ZM53.7,1053.2c-6.7,0-12.1-5.4-12.1-12.1s5.4-12.1,12.1-12.1,12.1,5.4,12.1,12.1-5.4,12.1-12.1,12.1Z"/>
        <path class="cls-34" d="M188.3,1020.6c-11.3,0-20.5,9.2-20.5,20.5s9.2,20.5,20.5,20.5,20.5-9.2,20.5-20.5-9.2-20.5-20.5-20.5ZM188.3,1053.2c-6.7,0-12.1-5.4-12.1-12.1s5.4-12.1,12.1-12.1,12.1,5.4,12.1,12.1-5.4,12.1-12.1,12.1Z"/>
        <circle class="cls-38" cx="55" cy="558.7" r="10.6"/>
        <circle class="cls-29" cx="55" cy="558.7" r="5.5"/>
        <path class="cls-39" d="M17.5,538.5H.3v3.4c2.3.9,3.9,3.1,3.9,5.7s-1.6,4.8-3.9,5.7v3.4h17.2c5,0,9-4,9-9h0c0-5.2-4.1-9.2-9-9.2h0ZM15.9,553.6c-3.4,0-6.1-2.7-6.1-6.1s2.7-6.1,6.1-6.1,6.1,2.7,6.1,6.1-2.8,6.1-6.1,6.1Z"/>
        <path class="cls-39" d="M17.5,685.4H.3v3.4c2.3.9,3.9,3.1,3.9,5.7s-1.6,4.8-3.9,5.7v3.4h17.2c5,0,9-4,9-9s-4.1-9.2-9-9.2h0ZM15.9,700.5c-3.4,0-6.1-2.7-6.1-6.1s2.7-6.1,6.1-6.1,6.1,2.7,6.1,6.1-2.8,6.1-6.1,6.1Z"/>
        <path class="cls-39" d="M17.5,832.4H.3v3.4c2.3.9,3.9,3.1,3.9,5.7s-1.6,4.8-3.9,5.7v3.4h17.2c5,0,9-4,9-9s-4.1-9.2-9-9.2h0ZM15.9,847.5c-3.4,0-6.1-2.7-6.1-6.1s2.7-6.1,6.1-6.1,6.1,2.7,6.1,6.1-2.8,6.1-6.1,6.1Z"/>
        <path class="cls-39" d="M17.5,861.8H.3v3.4c2.3.9,3.9,3.1,3.9,5.7s-1.6,4.8-3.9,5.7v3.4h17.2c5,0,9-4,9-9s-4.1-9.2-9-9.2h0ZM15.9,876.9c-3.4,0-6.1-2.7-6.1-6.1s2.7-6.1,6.1-6.1,6.1,2.7,6.1,6.1-2.8,6.1-6.1,6.1Z"/>
        <path class="cls-39" d="M17.5,891.2H.3v3.4c2.3.9,3.9,3.1,3.9,5.7s-1.6,4.8-3.9,5.7v3.4h17.2c5,0,9-4,9-9s-4.1-9.2-9-9.2h0ZM15.9,906.3c-3.4,0-6.1-2.7-6.1-6.1s2.7-6.1,6.1-6.1,6.1,2.7,6.1,6.1-2.8,6.1-6.1,6.1Z"/>
        <path class="cls-39" d="M17.5,920.6H.3v3.4c2.3.9,3.9,3.1,3.9,5.7s-1.6,4.8-3.9,5.7v3.4h17.2c5,0,9-4,9-9s-4.1-9.2-9-9.2h0ZM15.9,935.7c-3.4,0-6.1-2.7-6.1-6.1s2.7-6.1,6.1-6.1,6.1,2.7,6.1,6.1-2.8,6.1-6.1,6.1Z"/>
        <path class="cls-39" d="M17.5,979.4H.3v3.4c2.3.9,3.9,3.1,3.9,5.7s-1.6,4.8-3.9,5.7v3.4h17.2c5,0,9-4,9-9h0c0-5.2-4.1-9.2-9-9.2h0ZM15.9,994.5c-3.4,0-6.1-2.7-6.1-6.1s2.7-6.1,6.1-6.1,6.1,2.7,6.1,6.1-2.8,6.1-6.1,6.1Z"/>
        <path class="cls-39" d="M17.5,1008.8H.3v3.4c2.3.9,3.9,3.1,3.9,5.7s-1.6,4.8-3.9,5.7v3.4h17.2c5,0,9-4,9-9h0c0-5.2-4.1-9.2-9-9.2ZM15.9,1023.9c-3.4,0-6.1-2.7-6.1-6.1s2.7-6.1,6.1-6.1,6.1,2.7,6.1,6.1-2.8,6.1-6.1,6.1Z"/>
        <path class="cls-39" d="M17.5,1038.2H.3v3.4c2.3.9,3.9,3.1,3.9,5.7s-1.6,4.8-3.9,5.7v3.4h17.2c5,0,9-4,9-9s-4.1-9.2-9-9.2ZM15.9,1053.3c-3.4,0-6.1-2.7-6.1-6.1s2.7-6.1,6.1-6.1,6.1,2.7,6.1,6.1c-.1,3.4-2.8,6.1-6.1,6.1Z"/>
        <path class="cls-39" d="M239.5,488.7c0-2.6,1.6-4.8,3.9-5.7v-3.4h-17.2c-5,0-9,4-9,9s4,9,9,9h17.2v-3.4c-2.2-.7-3.9-2.9-3.9-5.5ZM227.8,494.8c-3.4,0-6.1-2.7-6.1-6.1s2.7-6.1,6.1-6.1,6.1,2.7,6.1,6.1-2.7,6.1-6.1,6.1Z"/>
        <path class="cls-39" d="M239.5,518.1c0-2.6,1.6-4.8,3.9-5.7v-3.4h-17.2c-5,0-9,4-9,9h0c0,5,4,9,9,9h17.2v-3.4c-2.2-.7-3.9-2.9-3.9-5.5ZM227.8,524.2c-3.4,0-6.1-2.7-6.1-6.1s2.7-6.1,6.1-6.1,6.1,2.7,6.1,6.1-2.7,6.1-6.1,6.1Z"/>
        <path class="cls-39" d="M239.5,547.5c0-2.6,1.6-4.8,3.9-5.7v-3.4h-17.2c-5,0-9,4-9,9h0c0,5,4,9,9,9h17.2v-3.4c-2.2-.7-3.9-2.9-3.9-5.5h0ZM227.8,553.6c-3.4,0-6.1-2.7-6.1-6.1s2.7-6.1,6.1-6.1,6.1,2.7,6.1,6.1-2.7,6.1-6.1,6.1Z"/>
        <path class="cls-39" d="M239.5,576.9c0-2.6,1.6-4.8,3.9-5.7v-3.4h-17.2c-5,0-9,4-9,9s4,9,9,9h17.2v-3.4c-2.2-.7-3.9-2.9-3.9-5.5h0ZM227.8,583c-3.4,0-6.1-2.7-6.1-6.1s2.7-6.1,6.1-6.1,6.1,2.7,6.1,6.1-2.7,6.1-6.1,6.1Z"/>
        <path class="cls-39" d="M239.5,606.3c0-2.6,1.6-4.8,3.9-5.7v-3.4h-17.2c-5,0-9,4-9,9s4,9,9,9h17.2v-3.4c-2.2-.7-3.9-2.9-3.9-5.5h0ZM227.8,612.4c-3.4,0-6.1-2.7-6.1-6.1s2.7-6.1,6.1-6.1,6.1,2.7,6.1,6.1-2.7,6.1-6.1,6.1Z"/>
        <path class="cls-39" d="M239.5,635.7c0-2.6,1.6-4.8,3.9-5.7v-3.4h-17.2c-5,0-9,4-9,9s4,9,9,9h17.2v-3.4c-2.2-.7-3.9-3-3.9-5.5h0ZM227.8,641.8c-3.4,0-6.1-2.7-6.1-6.1s2.7-6.1,6.1-6.1,6.1,2.7,6.1,6.1-2.7,6.1-6.1,6.1Z"/>
        <path class="cls-39" d="M239.5,694.5c0-2.6,1.6-4.8,3.9-5.7v-3.4h-17.2c-5,0-9,4-9,9s4,9,9,9h17.2v-3.4c-2.2-.8-3.9-3-3.9-5.5h0ZM227.8,700.5c-3.4,0-6.1-2.7-6.1-6.1s2.7-6.1,6.1-6.1,6.1,2.7,6.1,6.1-2.7,6.1-6.1,6.1Z"/>
        <path class="cls-39" d="M239.5,753.2c0-2.6,1.6-4.8,3.9-5.7v-3.4h-17.2c-5,0-9,4-9,9h0c0,5,4,9,9,9h17.2v-3.4c-2.2-.7-3.9-2.9-3.9-5.5h0ZM227.8,759.3c-3.4,0-6.1-2.7-6.1-6.1s2.7-6.1,6.1-6.1,6.1,2.7,6.1,6.1-2.7,6.1-6.1,6.1Z"/>
        <path class="cls-39" d="M239.5,782.6c0-2.6,1.6-4.8,3.9-5.7v-3.4h-17.2c-5,0-9,4-9,9h0c0,5,4,9,9,9h17.2v-3.4c-2.2-.7-3.9-2.9-3.9-5.5h0ZM227.8,788.7c-3.4,0-6.1-2.7-6.1-6.1s2.7-6.1,6.1-6.1,6.1,2.7,6.1,6.1-2.7,6.1-6.1,6.1Z"/>
        <path class="cls-39" d="M239.5,812c0-2.6,1.6-4.8,3.9-5.7v-3.3h-17.2c-5,0-9,4-9,9s4,9,9,9h17.2v-3.4c-2.2-.8-3.9-3-3.9-5.6ZM227.8,818.1c-3.4,0-6.1-2.7-6.1-6.1s2.7-6.1,6.1-6.1,6.1,2.7,6.1,6.1-2.7,6.1-6.1,6.1Z"/>
        <path class="cls-39" d="M239.5,841.4c0-2.6,1.6-4.8,3.9-5.7v-3.4h-17.2c-5,0-9,4-9,9s4,9,9,9h17.2v-3.4c-2.2-.7-3.9-2.9-3.9-5.5h0ZM227.8,847.5c-3.4,0-6.1-2.7-6.1-6.1s2.7-6.1,6.1-6.1,6.1,2.7,6.1,6.1-2.7,6.1-6.1,6.1Z"/>
        <path class="cls-39" d="M239.5,870.8c0-2.6,1.6-4.8,3.9-5.7v-3.4h-17.2c-5,0-9,4-9,9s4,9,9,9h17.2v-3.4c-2.2-.7-3.9-2.9-3.9-5.5h0ZM227.8,876.9c-3.4,0-6.1-2.7-6.1-6.1s2.7-6.1,6.1-6.1,6.1,2.7,6.1,6.1-2.7,6.1-6.1,6.1Z"/>
        <path class="cls-39" d="M239.5,900.2c0-2.6,1.6-4.8,3.9-5.7v-3.4h-17.2c-5,0-9,4-9,9s4,9,9,9h17.2v-3.4c-2.2-.7-3.9-2.9-3.9-5.5h0ZM227.8,906.3c-3.4,0-6.1-2.7-6.1-6.1s2.7-6.1,6.1-6.1,6.1,2.7,6.1,6.1-2.7,6.1-6.1,6.1Z"/>
        <path class="cls-39" d="M239.5,929.6c0-2.6,1.6-4.8,3.9-5.7v-3.4h-17.2c-5,0-9,4-9,9s4,9,9,9h17.2v-3.4c-2.2-.7-3.9-2.9-3.9-5.5h0ZM227.8,935.7c-3.4,0-6.1-2.7-6.1-6.1s2.7-6.1,6.1-6.1,6.1,2.7,6.1,6.1-2.7,6.1-6.1,6.1Z"/>
        <path class="cls-39" d="M239.5,988.4c0-2.6,1.6-4.8,3.9-5.7v-3.4h-17.2c-5,0-9,4-9,9h0c0,5,4,9,9,9h17.2v-3.4c-2.2-.7-3.9-2.9-3.9-5.5h0ZM227.8,994.5c-3.4,0-6.1-2.7-6.1-6.1s2.7-6.1,6.1-6.1,6.1,2.7,6.1,6.1-2.7,6.1-6.1,6.1Z"/>
        <path class="cls-39" d="M239.5,1017.8c0-2.6,1.6-4.8,3.9-5.7v-3.4h-17.2c-5,0-9,4-9,9h0c0,5,4,9,9,9h17.2v-3.4c-2.2-.7-3.9-2.9-3.9-5.5h0ZM227.8,1023.9c-3.4,0-6.1-2.7-6.1-6.1s2.7-6.1,6.1-6.1,6.1,2.7,6.1,6.1-2.7,6.1-6.1,6.1Z"/>
        <path class="cls-26" d="M163.1,460.6l4.4-4.4-2.3-2.3-6.6,6.6h-1.5v-4.7c0-1.2-1-2.2-2.2-2.2h-69.5c-1.2,0-2.2,1-2.2,2.2v4.7h-1.5l-6.6-6.6-2.3,2.3,4.4,4.4c-.6.2-1,.8-1,1.4v56.3c0,.9.7,1.6,1.6,1.6h84.6c.9,0,1.6-.7,1.6-1.6v-56.3c0-.6-.4-1.2-.9-1.4Z"/>
        <g>
          <path class="cls-37" d="M100.3,482.9c0-3.2-2.6-5.8-5.8-5.8s-5.8,2.6-5.8,5.8.5,2.7,1.3,3.7h-.2v7.7c0,1.2,1,2.1,2.1,2.1h5.1c1.2,0,2.1-1,2.1-2.1v-7.7h0c.8-1,1.3-2.3,1.3-3.7h0Z"/>
          <path class="cls-37" d="M155.5,482.9c0-3.2-2.6-5.8-5.8-5.8s-5.8,2.6-5.8,5.8.5,2.7,1.3,3.7h-.2v7.7c0,1.2,1,2.1,2.1,2.1h5.1c1.2,0,2.1-1,2.1-2.1v-7.7h-.2c.9-1,1.4-2.3,1.4-3.7h0Z"/>
        </g>
        <path class="cls-25" d="M200.9,613h-21c-1.2,0-2.2-1-2.2-2.2v-26.7c0-1.2,1-2.2,2.2-2.2h21c1.2,0,2.2,1,2.2,2.2v26.7c0,1.2-1,2.2-2.2,2.2Z"/>
        <g>
          <rect class="cls-24" x="132" y="549.2" width="21.7" height="14.4"/>
          <path class="cls-32" d="M149.3,563.6c-2-1.8-3.2-4.4-3.2-7.2s1.2-5.4,3.2-7.2h-12.8c2,1.8,3.2,4.4,3.2,7.2s-1.2,5.4-3.2,7.2h12.8Z"/>
        </g>
        <g>
          <rect class="cls-24" x="132.3" y="634.5" width="21.7" height="14.4"/>
          <path class="cls-32" d="M149.6,649c-2-1.8-3.2-4.4-3.2-7.2s1.2-5.4,3.2-7.2h-12.8c2,1.8,3.2,4.4,3.2,7.2s-1.2,5.4-3.2,7.2h12.8Z"/>
        </g>
        <g>
          <rect class="cls-24" x="132.3" y="653.7" width="21.7" height="14.4"/>
          <path class="cls-32" d="M149.6,668.1c-2-1.8-3.2-4.4-3.2-7.2s1.2-5.4,3.2-7.2h-12.8c2,1.8,3.2,4.4,3.2,7.2s-1.2,5.4-3.2,7.2h12.8Z"/>
        </g>
        <g>
          <rect class="cls-24" x="61.3" y="704.7" width="10.6" height="5.4"/>
          <rect class="cls-32" x="63.6" y="704.7" width="6" height="5.4"/>
        </g>
        <g>
          <rect class="cls-24" x="177.1" y="684.6" width="5.4" height="10.6"/>
          <rect class="cls-32" x="177.1" y="686.9" width="5.4" height="6"/>
        </g>
        <rect class="cls-25" x="179.5" y="534.6" width="18.9" height="29.3"/>
        <g>
          <rect class="cls-24" x="171.6" y="635.9" width="20.6" height="9.6"/>
          <rect class="cls-18" x="176.2" y="635.9" width="11.5" height="9.6"/>
        </g>
        <rect class="cls-32" x="120.2" y="804" width="4.2" height="6.9"/>
        <rect class="cls-32" x="126.9" y="804" width="4.2" height="6.9"/>
        <rect class="cls-32" x="65.3" y="715.3" width="6.9" height="4.2"/>
        <rect class="cls-32" x="88.2" y="648.2" width="6.9" height="4.2"/>
        <rect class="cls-32" x="64.9" y="758.9" width="6.9" height="4.2"/>
        <rect class="cls-25" x="195" y="762.8" width="4.2" height="6.9"/>
        <rect class="cls-25" x="187.9" y="702.9" width="6.9" height="4.2"/>
        <rect class="cls-25" x="85.9" y="547.2" width="6.9" height="4.2"/>
        <rect class="cls-25" x="81" y="559.5" width="6.9" height="4.2"/>
        <rect class="cls-25" x="191.5" y="651.9" width="6.9" height="4.2"/>
        <path class="cls-20" d="M186.3,967.7H57.5c-2.1,0-3.9-1.7-3.9-3.9v-108.1c0-2.1,1.7-3.9,3.9-3.9h128.8c2.1,0,3.9,1.7,3.9,3.9v108.1c0,2.1-1.7,3.9-3.9,3.9Z"/>
        <rect class="cls-16" x="101.5" y="1013.9" width="10.5" height="5.9"/>
        <rect class="cls-16" x="130.3" y="1014.1" width="10.5" height="5.9"/>
        <rect class="cls-16" x="101.5" y="1051.7" width="10.5" height="5.9"/>
        <rect class="cls-16" x="130.3" y="1051.8" width="10.5" height="5.9"/>
        <polyline class="cls-15" points="17.5 496.4 17.5 500.9 35.4 518.8 35.4 567.4 51 583 51 717.8 55.9 722.7 91.2 722.7"/>
        <polyline class="cls-15" points="22.9 523.3 31 531.4 31 569.3 46.7 585 46.7 720.2 52.6 726.2 91 726.2"/>
        <polyline class="cls-15" points="23.2 581.8 43 601.5 43 722.7 53.4 733.1 95 733.1"/>
        <polyline class="cls-15" points="23.2 611.2 39.8 627.7 39.8 724.6 51.9 736.8 95.1 736.8"/>
        <polyline class="cls-15" points="23.2 641.3 35.6 653.6 35.6 729.7 49.5 743.6 93.4 743.6"/>
        <polyline class="cls-15" points="22.9 669.5 31.6 678.2 31.6 732.3 46.4 747.1 96.1 747.1"/>
        <polyline class="cls-15" points="22.9 728.1 45.3 750.6 102.7 750.6"/>
        <line class="cls-15" x1="23.7" y1="754.1" x2="98.8" y2="754.1"/>
        <path class="cls-15" d="M23.2,780.4c.1-.6,17.3-17.3,17.3-17.3h12.5l4.9,4.9h45.7"/>
        <polyline class="cls-15" points="20.4 806.3 25.7 801 25.7 793.2 30.9 788 30.9 779.6 43.9 766.5 52.6 766.5 57.3 771.2 95.3 771.2"/>
        <path class="cls-15" d="M30.7,796.5l3.4-3.4s-.7-8.9,0-9.6c.7-.7,6-6,6-6l6.3-6.3h6.1l3.7,3.7h35.1"/>
        <polyline class="cls-15" points="29.1 852.4 29.1 804.7 38.7 795.2 93.4 795.2 95 793.6 95 783.9"/>
        <polyline class="cls-15" points="17.5 950.6 17.5 947 32.9 931.6 32.9 851.3 35.7 848.5 35.7 806.7 42 800.4 94.2 800.4 98.4 796.2 98.4 788.9"/>
        <path class="cls-15" d="M35.7,834.2"/>
        <path class="cls-15" d="M35.7,849.5"/>
        <polyline class="cls-15" points="23.6 1011.2 30.4 1004.4 30.4 939.9 37.5 934"/>
        <polyline class="cls-15" points="35.6 944.2 42.6 937.2 42.6 847.5 39.9 844.8 39.9 808 44.6 803.3 94.9 803.3 101.9 796.3 101.9 779.7"/>
        <polyline class="cls-15" points="108.9 786.5 108.9 795.2 95.9 808.2 91.5 808.2"/>
        <polyline class="cls-15" points="93.9 816.8 112.4 798.3 112.4 782.9"/>
        <polyline class="cls-15" points="115.9 788.3 115.9 799.9 102.2 813.6 102.2 833.7 95.9 840 65 840 55.5 830.5"/>
        <polyline class="cls-15" points="133.9 827.3 138.7 822.5 138.7 809.2 135.5 806 135.5 796 132.4 792.9 132.4 781.9"/>
        <polyline class="cls-15" points="137.3 786 137.3 793.9 139.3 795.9 139.3 802.2 152.7 815.7 164.9 815.7 179.1 829.9"/>
        <polyline class="cls-15" points="145.3 783.8 145.3 794.2 151.3 800.2 172.3 800.2 200.5 828.5 200.5 941.1 206.7 947.3 206.7 998.1 212.3 1003.7 212.3 1023.9 223.3 1034.9 223.3 1040.3"/>
        <polyline class="cls-15" points="150.7 784.3 150.7 791.6 154.7 795.6 173.6 795.6 205.2 827.2 205.2 938.6 211.4 944.8 211.4 997.4 215.6 1001.6 215.6 1010.4"/>
        <polyline class="cls-15" points="157.5 779.1 165.3 779.1 211.1 824.9 211.1 936.6 227.2 952.7"/>
        <polyline class="cls-15" points="157.5 774.7 166.9 774.7 192.1 799.9"/>
        <polyline class="cls-15" points="158.6 769.6 166.6 769.6 190.1 793.1 195.5 793.1 206.3 803.9 206.3 810.8"/>
        <polyline class="cls-15" points="158.2 765.1 167.3 765.1 190.4 788.2 200.9 788.2"/>
        <polyline class="cls-15" points="158.2 761 169.1 761 174.1 766"/>
        <polyline class="cls-15" points="158.2 756 175.4 756 202.8 783.3 206.3 783.3 215.9 793 215.9 805.4"/>
        <line class="cls-15" x1="158.6" y1="750.6" x2="167.7" y2="750.6"/>
        <polyline class="cls-15" points="156.4 745.2 171.8 745.2 179.2 752.5"/>
        <polyline class="cls-15" points="187.9 765.1 192.4 760.6 192.4 741.3 203.4 741.3"/>
        <polyline class="cls-15" points="158.6 736.8 209.5 736.8 218.5 745.7"/>
        <polyline class="cls-15" points="158.2 732.3 213.8 732.3 220.3 725.8"/>
        <polyline class="cls-15" points="157.5 728.1 198.8 728.1 207.1 719.9 207.1 679.6 219.6 667.1"/>
        <polyline class="cls-15" points="158.6 723.9 179.1 723.9 202.4 700.6 202.4 677.8"/>
        <polyline class="cls-15" points="159.7 719.1 167.2 719.1 171.8 714.5"/>
        <path class="cls-15" d="M147.8,713.8c-.2-.3,9.2-9.2,9.2-9.2h15.6v-33.5l2.8-2.8v-7.7"/>
        <path class="cls-15" d="M147,711.6v-6.5l10.3-10.3"/>
        <polyline class="cls-15" points="140.1 712.5 140.1 701.8 147.4 694.4"/>
        <line class="cls-15" x1="136.6" y1="709.5" x2="136.6" y2="691.9"/>
        <path class="cls-15" d="M133.1,711.3v-15.2l-4.2-4.2"/>
        <path class="cls-15" d="M122.6,710.9v-20.7"/>
        <path class="cls-15" d="M119.2,712.6v-11.1l-7.6-7.6"/>
        <polyline class="cls-15" points="115.6 712.1 115.6 705.7 101.8 691.9 101.8 685.4 105 682.2 108.9 682.2 111.5 679.6 111.5 669.1 106.1 663.7 100 663.7"/>
        <polyline class="cls-15" points="99.8 669.5 105.4 669.5 108.5 672.5 108.5 677.8 105.7 680.5 101.1 680.5 97.7 683.9 97.7 692.9 108.7 704 108.7 710.7"/>
        <polyline class="cls-15" points="91.3 674 91.3 690.7 105.2 704.7 105.2 714.1"/>
        <polyline class="cls-15" points="76.5 673.2 76.5 680.3 85.9 689.7 85.9 693.6 99 706.6 99 715.7"/>
        <path class="cls-15" d="M94.8,709.8v-5l-11.7-11.7v-1.1l-4.5-4.5h-6.4l-1.7-1.7h-6.9l-6.7-6.7v-14.4l1.6-1.6h8.8"/>
        <polyline class="cls-15" points="69.1 657 60.4 657 55.4 662 55.4 679.9 63.4 687.9 69.5 687.9 75.9 694.3 78.4 694.3 92.5 708.3"/>
        <line class="cls-15" x1="73.8" y1="630.4" x2="56" y2="648.1"/>
        <polyline class="cls-15" points="137.6 691 137.6 684.9 134.7 681.9 134.7 678.9 130.2 674.4 125.2 674.4 121.1 670.4 121.1 651.4 109.7 640 109.7 557.8 124 543.5 124 534.4 127.7 530.7"/>
        <path class="cls-15" d="M135.3,583.6v-9l-3.1-3.1h-9.8l-4.5-4.5v-4.3"/>
        <polyline class="cls-15" points="129.3 616 129.3 621.4 126.1 624.6 120.2 624.6 118.6 626.1"/>
        <polyline class="cls-15" points="62.9 529.1 62.9 538.5 79.1 554.8 83.6 554.8 88.5 559.6 88.5 567.9 83.9 572.4 83.9 585.9"/>
        <rect class="cls-17" x="45.6" y="522" width="18.9" height="9.6"/>
        <g>
          <rect class="cls-19" x="102.7" y="519.9" width="4.3" height="11.5"/>
          <rect class="cls-19" x="110.4" y="519.9" width="4.3" height="11.5"/>
          <rect class="cls-19" x="118.1" y="519.9" width="4.3" height="11.5"/>
          <rect class="cls-19" x="125.7" y="519.9" width="4.3" height="11.5"/>
          <rect class="cls-19" x="133.4" y="519.9" width="4.3" height="11.5"/>
        </g>
        <g>
          <path class="cls-30" d="M106.8,540.7v-5.5h2.5v5.8c0,2,.6,2.7,1.7,2.7s1.8-.7,1.8-2.7v-5.8h2.4v5.5c0,3.5-1.4,5.1-4.2,5.1s-4.2-1.6-4.2-5.1Z"/>
          <path class="cls-30" d="M116.7,544.2l1.3-1.6c.7.6,1.7,1,2.6,1s1.4-.4,1.4-.9-.6-.8-1.5-1.2l-1.3-.6c-1.1-.4-2.1-1.3-2.1-2.8s1.6-3.2,3.8-3.2,2.5.5,3.4,1.3l-1.3,1.6c-.7-.5-1.4-.8-2.1-.8s-1.3.3-1.3.8.7.8,1.6,1.2l1.3.5c1.3.5,2.1,1.4,2.1,2.8s-1.5,3.3-4,3.3c-1.5.2-2.8-.3-3.9-1.4h0Z"/>
          <path class="cls-30" d="M126.3,535.1h3.6c2.2,0,3.9.6,3.9,2.6s-.5,1.9-1.4,2.2h0c1.1.4,1.9,1.2,1.9,2.5,0,2.1-1.8,3.1-4.1,3.1h-3.9v-10.4h0ZM129.8,539.3c1.1,0,1.5-.5,1.5-1.2s-.5-1.1-1.5-1.1h-1.1v2.2h1.1ZM130,543.7c1.2,0,1.8-.4,1.8-1.3s-.6-1.2-1.8-1.2h-1.2v2.5h1.2Z"/>
        </g>
        <path class="cls-42" d="M170.2,616.5h-45.7c-.5,0-1-.4-1-1v-33.5c0-.5.4-1,1-1h45.7c.5,0,1,.4,1,1v33.5c0,.6-.5,1-1,1Z"/>
        <g>
          <rect class="cls-19" x="128.6" y="576.9" width="1.4" height="4.1"/>
          <rect class="cls-19" x="134.6" y="576.9" width="1.4" height="4.1"/>
          <rect class="cls-19" x="140.6" y="576.9" width="1.4" height="4.1"/>
          <rect class="cls-19" x="146.6" y="576.9" width="1.4" height="4.1"/>
          <rect class="cls-19" x="152.6" y="576.9" width="1.4" height="4.1"/>
          <rect class="cls-19" x="158.6" y="576.9" width="1.4" height="4.1"/>
          <rect class="cls-19" x="164.6" y="576.9" width="1.4" height="4.1"/>
        </g>
        <g>
          <rect class="cls-19" x="128.6" y="616.5" width="1.4" height="4.1"/>
          <rect class="cls-19" x="134.6" y="616.5" width="1.4" height="4.1"/>
          <rect class="cls-19" x="140.6" y="616.5" width="1.4" height="4.1"/>
          <rect class="cls-19" x="146.6" y="616.5" width="1.4" height="4.1"/>
          <rect class="cls-19" x="152.6" y="616.5" width="1.4" height="4.1"/>
          <rect class="cls-19" x="158.6" y="616.5" width="1.4" height="4.1"/>
          <rect class="cls-19" x="164.6" y="616.5" width="1.4" height="4.1"/>
        </g>
        <g>
          <rect class="cls-9" x="61.4" y="584.9" width="39.3" height="48.9"/>
          <path class="cls-36" d="M81,627.6h0c-7.6,0-13.7-6.1-13.7-13.7v-9.1c0-7.6,6.1-13.7,13.7-13.7h0c7.6,0,13.7,6.1,13.7,13.7v9.1c0,7.6-6.1,13.7-13.7,13.7Z"/>
          <path class="cls-36" d="M61.4,595.2h0v-10.3h10.3c0,5.7-4.6,10.3-10.3,10.3Z"/>
          <path class="cls-36" d="M71.6,633.9h-10.2v-10.3h0c5.7,0,10.2,4.6,10.2,10.3h0Z"/>
          <path class="cls-36" d="M100.7,595.2h0c-5.7,0-10.3-4.6-10.3-10.3h10.3v10.3Z"/>
          <path class="cls-36" d="M100.7,633.9h-10.3c0-5.7,4.6-10.3,10.3-10.3h0v10.3Z"/>
        </g>
        <g>
          <rect class="cls-42" x="64.9" y="654.4" width="34.6" height="22.9"/>
          <g>
            <rect class="cls-19" x="60.7" y="655.6" width="4.2" height="3.4"/>
            <rect class="cls-19" x="60.7" y="661.3" width="4.2" height="3.4"/>
            <rect class="cls-19" x="60.7" y="667" width="4.2" height="3.4"/>
            <rect class="cls-19" x="60.7" y="672.8" width="4.2" height="3.4"/>
          </g>
          <g>
            <rect class="cls-19" x="99.5" y="655.6" width="4.2" height="3.4"/>
            <rect class="cls-19" x="99.5" y="661.3" width="4.2" height="3.4"/>
            <rect class="cls-19" x="99.5" y="667" width="4.2" height="3.4"/>
            <rect class="cls-19" x="99.5" y="672.8" width="4.2" height="3.4"/>
          </g>
        </g>
        <rect class="cls-25" x="135.5" y="685.9" width="4.2" height="6.9"/>
        <g>
          <path class="cls-23" d="M160.4,789.7h-79c-.7,0-1.3-.6-1.3-1.3v-79.1c0-.7.6-1.3,1.3-1.3h79.1c.7,0,1.3.6,1.3,1.3v79.1c-.1.7-.7,1.3-1.4,1.3h0Z"/>
          <g>
            <rect class="cls-19" x="86.2" y="706.1" width="3.1" height="1.9"/>
            <rect class="cls-19" x="89.7" y="706.1" width="3.1" height="1.9"/>
            <rect class="cls-19" x="93.2" y="706.1" width="3.1" height="1.9"/>
            <rect class="cls-19" x="96.7" y="706.1" width="3.1" height="1.9"/>
            <rect class="cls-19" x="100.2" y="706.1" width="3.1" height="1.9"/>
            <rect class="cls-19" x="103.6" y="706.1" width="3.1" height="1.9"/>
            <rect class="cls-19" x="107.1" y="706.1" width="3.1" height="1.9"/>
            <rect class="cls-19" x="114.1" y="706.1" width="3.1" height="1.9"/>
            <rect class="cls-19" x="121.1" y="706.1" width="3.1" height="1.9"/>
            <rect class="cls-19" x="128" y="706.1" width="3.1" height="1.9"/>
            <rect class="cls-19" x="138.5" y="706.1" width="3.1" height="1.9"/>
            <rect class="cls-19" x="142" y="706.1" width="3.1" height="1.9"/>
            <rect class="cls-19" x="149" y="706.1" width="3.1" height="1.9"/>
            <rect class="cls-19" x="110.6" y="706.1" width="3.1" height="1.9"/>
            <rect class="cls-19" x="117.6" y="706.1" width="3.1" height="1.9"/>
            <rect class="cls-19" x="124.6" y="706.1" width="3.1" height="1.9"/>
            <rect class="cls-19" x="131.5" y="706.1" width="3.1" height="1.9"/>
            <rect class="cls-19" x="135" y="706.1" width="3.1" height="1.9"/>
            <rect class="cls-19" x="145.5" y="706.1" width="3.1" height="1.9"/>
            <rect class="cls-19" x="152.4" y="706.1" width="3.1" height="1.9"/>
          </g>
          <g>
            <rect class="cls-19" x="86.4" y="789.7" width="3.1" height="1.9"/>
            <rect class="cls-19" x="89.9" y="789.7" width="3.1" height="1.9"/>
            <rect class="cls-19" x="93.4" y="789.7" width="3.1" height="1.9"/>
            <rect class="cls-19" x="96.9" y="789.7" width="3.1" height="1.9"/>
            <rect class="cls-19" x="100.4" y="789.7" width="3.1" height="1.9"/>
            <rect class="cls-19" x="103.8" y="789.7" width="3.1" height="1.9"/>
            <rect class="cls-19" x="107.3" y="789.7" width="3.1" height="1.9"/>
            <rect class="cls-19" x="114.3" y="789.7" width="3.1" height="1.9"/>
            <rect class="cls-19" x="121.3" y="789.7" width="3.1" height="1.9"/>
            <rect class="cls-19" x="128.2" y="789.7" width="3.1" height="1.9"/>
            <rect class="cls-19" x="138.7" y="789.7" width="3.1" height="1.9"/>
            <rect class="cls-19" x="142.2" y="789.7" width="3.1" height="1.9"/>
            <rect class="cls-19" x="149.1" y="789.7" width="3.1" height="1.9"/>
            <rect class="cls-19" x="110.8" y="789.7" width="3.1" height="1.9"/>
            <rect class="cls-19" x="117.8" y="789.7" width="3.1" height="1.9"/>
            <rect class="cls-19" x="124.7" y="789.7" width="3.1" height="1.9"/>
            <rect class="cls-19" x="131.7" y="789.7" width="3.1" height="1.9"/>
            <rect class="cls-19" x="135.2" y="789.7" width="3.1" height="1.9"/>
            <rect class="cls-19" x="145.7" y="789.7" width="3.1" height="1.9"/>
            <rect class="cls-19" x="152.6" y="789.7" width="3.1" height="1.9"/>
          </g>
          <g>
            <rect class="cls-19" x="78.1" y="780.4" width="1.9" height="3.1"/>
            <rect class="cls-19" x="78.1" y="777" width="1.9" height="3.1"/>
            <rect class="cls-19" x="78.1" y="773.5" width="1.9" height="3.1"/>
            <rect class="cls-19" x="78.1" y="770" width="1.9" height="3.1"/>
            <rect class="cls-19" x="78.1" y="766.5" width="1.9" height="3.1"/>
            <rect class="cls-19" x="78.2" y="763" width="1.9" height="3.1"/>
            <rect class="cls-19" x="78.2" y="759.5" width="1.9" height="3.1"/>
            <rect class="cls-19" x="78.1" y="752.6" width="1.9" height="3.1"/>
            <rect class="cls-19" x="78.1" y="745.6" width="1.9" height="3.1"/>
            <rect class="cls-19" x="78.2" y="738.6" width="1.9" height="3.1"/>
            <rect class="cls-19" x="78.1" y="728.2" width="1.9" height="3.1"/>
            <rect class="cls-19" x="78.1" y="724.7" width="1.9" height="3.1"/>
            <rect class="cls-19" x="78.2" y="717.7" width="1.9" height="3.1"/>
            <rect class="cls-19" x="78.1" y="756" width="1.9" height="3.1"/>
            <rect class="cls-19" x="78.1" y="749.1" width="1.9" height="3.1"/>
            <rect class="cls-19" x="78.1" y="742.1" width="1.9" height="3.1"/>
            <rect class="cls-19" x="78.2" y="735.1" width="1.9" height="3.1"/>
            <rect class="cls-19" x="78.1" y="731.6" width="1.9" height="3.1"/>
            <rect class="cls-19" x="78.1" y="721.2" width="1.9" height="3.1"/>
            <rect class="cls-19" x="78.2" y="714.2" width="1.9" height="3.1"/>
          </g>
          <g>
            <rect class="cls-19" x="161.7" y="780.4" width="1.9" height="3.1"/>
            <rect class="cls-19" x="161.7" y="776.9" width="1.9" height="3.1"/>
            <rect class="cls-19" x="161.7" y="773.5" width="1.9" height="3.1"/>
            <rect class="cls-19" x="161.7" y="770" width="1.9" height="3.1"/>
            <rect class="cls-19" x="161.7" y="766.5" width="1.9" height="3.1"/>
            <rect class="cls-19" x="161.8" y="763" width="1.9" height="3.1"/>
            <rect class="cls-19" x="161.7" y="759.5" width="1.9" height="3.1"/>
            <rect class="cls-19" x="161.7" y="752.5" width="1.9" height="3.1"/>
            <rect class="cls-19" x="161.7" y="745.6" width="1.9" height="3.1"/>
            <rect class="cls-19" x="161.8" y="738.6" width="1.9" height="3.1"/>
            <rect class="cls-19" x="161.7" y="728.1" width="1.9" height="3.1"/>
            <rect class="cls-19" x="161.7" y="724.7" width="1.9" height="3.1"/>
            <rect class="cls-19" x="161.8" y="717.7" width="1.9" height="3.1"/>
            <rect class="cls-19" x="161.7" y="756" width="1.9" height="3.1"/>
            <rect class="cls-19" x="161.7" y="749.1" width="1.9" height="3.1"/>
            <rect class="cls-19" x="161.7" y="742.1" width="1.9" height="3.1"/>
            <rect class="cls-19" x="161.7" y="735.1" width="1.9" height="3.1"/>
            <rect class="cls-19" x="161.7" y="731.6" width="1.9" height="3.1"/>
            <rect class="cls-19" x="161.7" y="721.2" width="1.9" height="3.1"/>
            <rect class="cls-19" x="161.8" y="714.2" width="1.9" height="3.1"/>
          </g>
          <circle class="cls-21" cx="90.2" cy="719.1" r="2.8"/>
        </g>
        <rect class="cls-42" x="187.1" y="673.8" width="18.2" height="8.6"/>
        <rect class="cls-19" x="189.1" y="682.4" width="2.9" height="8.7"/>
        <rect class="cls-19" x="200.9" y="682.4" width="2.9" height="8.7"/>
        <rect class="cls-19" x="194.8" y="665.2" width="2.9" height="8.7"/>
        <rect class="cls-32" x="169.2" y="713.2" width="6.9" height="4.2"/>
        <rect class="cls-25" x="189.5" y="743" width="4.2" height="6.9"/>
        <rect class="cls-32" x="172.3" y="762.2" width="4.2" height="6.9" transform="translate(-490.3 347.6) rotate(-45)"/>
        <g>
          <path class="cls-39" d="M157,824.4c-5.1,0-9.2,4.1-9.2,9.2s4.1,9.2,9.2,9.2,9.2-4.1,9.2-9.2-4.1-9.2-9.2-9.2ZM157,839.3c-3.1,0-5.7-2.6-5.7-5.7s2.6-5.7,5.7-5.7,5.7,2.6,5.7,5.7-2.5,5.7-5.7,5.7Z"/>
          <path class="cls-39" d="M118.7,824.7v17.7h17.7v-17.7h-17.7ZM127.6,839.3c-3.1,0-5.7-2.6-5.7-5.7s2.6-5.7,5.7-5.7,5.7,2.6,5.7,5.7-2.6,5.7-5.7,5.7Z"/>
          <path class="cls-39" d="M186.8,824.4c-5.1,0-9.2,4.1-9.2,9.2s4.1,9.2,9.2,9.2,9.2-4.1,9.2-9.2-4.1-9.2-9.2-9.2ZM186.8,839.3c-3.1,0-5.7-2.6-5.7-5.7s2.6-5.7,5.7-5.7,5.7,2.6,5.7,5.7-2.5,5.7-5.7,5.7Z"/>
        </g>
        <path class="cls-39" d="M17.5,803H.3v3.4c2.3.9,3.9,3.1,3.9,5.7s-1.6,4.8-3.9,5.7v3.4h17.2c5,0,9-4,9-9s-4.1-9.2-9-9.2h0ZM15.9,818.1c-3.4,0-6.1-2.7-6.1-6.1s2.7-6.1,6.1-6.1,6.1,2.7,6.1,6.1-2.8,6.1-6.1,6.1Z"/>
        <path class="cls-39" d="M17.5,773.6H.3v3.4c2.3.9,3.9,3.1,3.9,5.7s-1.6,4.8-3.9,5.7v3.4h17.2c5,0,9-4,9-9h0c0-5.1-4.1-9.2-9-9.2h0ZM15.9,788.7c-3.4,0-6.1-2.7-6.1-6.1s2.7-6.1,6.1-6.1,6.1,2.7,6.1,6.1-2.8,6.1-6.1,6.1Z"/>
        <path class="cls-39" d="M17.5,744.2H.3v3.4c2.3.9,3.9,3.1,3.9,5.7s-1.6,4.8-3.9,5.7v3.4h17.2c5,0,9-4,9-9h0c0-5.1-4.1-9.2-9-9.2h0ZM15.9,759.3c-3.4,0-6.1-2.7-6.1-6.1s2.7-6.1,6.1-6.1,6.1,2.7,6.1,6.1-2.8,6.1-6.1,6.1Z"/>
        <path class="cls-39" d="M17.5,714.8H.3v3.4c2.3.9,3.9,3.1,3.9,5.7s-1.6,4.8-3.9,5.7v3.4h17.2c5,0,9-4,9-9s-4.1-9.2-9-9.2h0ZM15.9,729.9c-3.4,0-6.1-2.7-6.1-6.1s2.7-6.1,6.1-6.1,6.1,2.7,6.1,6.1-2.8,6.1-6.1,6.1Z"/>
        <path class="cls-39" d="M17.5,656H.3v3.4c2.3.9,3.9,3.1,3.9,5.7s-1.6,4.8-3.9,5.7v3.4h17.2c5,0,9-4,9-9s-4.1-9.2-9-9.2h0ZM15.9,671.1c-3.4,0-6.1-2.7-6.1-6.1s2.7-6.1,6.1-6.1,6.1,2.7,6.1,6.1-2.8,6.1-6.1,6.1Z"/>
        <path class="cls-39" d="M17.5,626.6H.3v3.4c2.3.9,3.9,3.1,3.9,5.7s-1.6,4.8-3.9,5.7v3.4h17.2c5,0,9-4,9-9s-4.1-9.2-9-9.2h0ZM15.9,641.8c-3.4,0-6.1-2.7-6.1-6.1s2.7-6.1,6.1-6.1,6.1,2.7,6.1,6.1-2.8,6.1-6.1,6.1Z"/>
        <path class="cls-39" d="M17.5,597.2H.3v3.4c2.3.9,3.9,3.1,3.9,5.7s-1.6,4.8-3.9,5.7v3.4h17.2c5,0,9-4,9-9s-4.1-9.2-9-9.2h0ZM15.9,612.4c-3.4,0-6.1-2.7-6.1-6.1s2.7-6.1,6.1-6.1,6.1,2.7,6.1,6.1-2.8,6.1-6.1,6.1Z"/>
        <path class="cls-39" d="M17.5,567.9H.3v3.4c2.3.9,3.9,3.1,3.9,5.7s-1.6,4.8-3.9,5.7v3.4h17.2c5,0,9-4,9-9s-4.1-9.2-9-9.2h0ZM15.9,583c-3.4,0-6.1-2.7-6.1-6.1s2.7-6.1,6.1-6.1,6.1,2.7,6.1,6.1-2.8,6.1-6.1,6.1Z"/>
        <path class="cls-39" d="M17.5,509.1H.3v3.4c2.3.9,3.9,3.1,3.9,5.7s-1.6,4.8-3.9,5.7v3.4h17.2c5,0,9-4,9-9h0c0-5.2-4.1-9.2-9-9.2h0ZM15.9,524.2c-3.4,0-6.1-2.7-6.1-6.1s2.7-6.1,6.1-6.1,6.1,2.7,6.1,6.1-2.8,6.1-6.1,6.1Z"/>
        <path class="cls-39" d="M17.5,479.7H.3v3.4c2.3.9,3.9,3.1,3.9,5.7s-1.6,4.8-3.9,5.7v3.4h17.2c5,0,9-4,9-9s-4.1-9.2-9-9.2ZM15.9,494.8c-3.4,0-6.1-2.7-6.1-6.1s2.7-6.1,6.1-6.1,6.1,2.7,6.1,6.1-2.8,6.1-6.1,6.1Z"/>
        <path class="cls-39" d="M17.5,950H.3v3.4c2.3.9,3.9,3.1,3.9,5.7s-1.6,4.8-3.9,5.7v3.4h17.2c5,0,9-4,9-9s-4.1-9.2-9-9.2h0ZM15.9,965.1c-3.4,0-6.1-2.7-6.1-6.1s2.7-6.1,6.1-6.1,6.1,2.7,6.1,6.1-2.8,6.1-6.1,6.1Z"/>
        <path class="cls-39" d="M239.5,1047.2c0-2.6,1.6-4.8,3.9-5.7v-3.4h-17.2c-5,0-9,4-9,9s4,9,9,9h17.2v-3.4c-2.2-.7-3.9-2.9-3.9-5.5ZM227.8,1053.3c-3.4,0-6.1-2.7-6.1-6.1s2.7-6.1,6.1-6.1,6.1,2.7,6.1,6.1-2.7,6.1-6.1,6.1Z"/>
        <path class="cls-39" d="M239.5,959c0-2.6,1.6-4.8,3.9-5.7v-3.3h-17.2c-5,0-9,4-9,9s4,9,9,9h17.2v-3.4c-2.2-.8-3.9-3-3.9-5.6ZM227.8,965.1c-3.4,0-6.1-2.7-6.1-6.1s2.7-6.1,6.1-6.1,6.1,2.7,6.1,6.1-2.7,6.1-6.1,6.1Z"/>
        <path class="cls-39" d="M239.5,723.9c0-2.6,1.6-4.8,3.9-5.7v-3.4h-17.2c-5,0-9,4-9,9s4,9,9,9h17.2v-3.4c-2.2-.8-3.9-3-3.9-5.5h0ZM227.8,729.9c-3.4,0-6.1-2.7-6.1-6.1s2.7-6.1,6.1-6.1,6.1,2.7,6.1,6.1-2.7,6.1-6.1,6.1Z"/>
        <rect class="cls-16" x="91.4" y="816.4" width="3.7" height="6.7"/>
        <g>
          <path class="cls-33" d="M82.2,837.3h-31.8c-1.2,0-2.2-1-2.2-2.2v-23.7c0-1.2,1-2.2,2.2-2.2h31.8c1.2,0,2.2,1,2.2,2.2v23.7c0,1.2-1,2.2-2.2,2.2Z"/>
          <path class="cls-40" d="M79.9,834.8h-27.3c-.8,0-1.4-.6-1.4-1.4v-20.4c0-.8.6-1.4,1.4-1.4h27.3c.8,0,1.4.6,1.4,1.4v20.4c0,.8-.6,1.4-1.4,1.4Z"/>
        </g>
        <rect class="cls-16" x="91.5" y="836.3" width="3.7" height="6.7"/>
        <rect class="cls-25" x="100.1" y="822.1" width="4.2" height="6.9"/>
        <g>
          <path class="cls-30" d="M42.3,642.2v-3.6c0-2.2.6-3.9,2.6-3.9s1.9.5,2.2,1.4h0c.3-1.1,1.1-1.9,2.4-1.9,2.1,0,3.1,1.8,3.1,4.1v3.9h-10.4.1ZM46.4,638.7c0-1.1-.5-1.5-1.2-1.5s-1.1.5-1.1,1.5v1.1h2.2v-1.1h0ZM50.8,638.5c0-1.2-.4-1.8-1.3-1.8s-1.2.6-1.2,1.8v1.2h2.5v-1.2Z"/>
          <path class="cls-30" d="M47.4,633c-3.4,0-5.4-1.9-5.4-4.8s2-4.8,5.4-4.8,5.4,1.9,5.4,4.8-2,4.8-5.4,4.8ZM47.4,626c-2,0-3.2.8-3.2,2.2s1.2,2.2,3.2,2.2,3.3-.9,3.3-2.2-1.3-2.2-3.3-2.2Z"/>
          <path class="cls-30" d="M47.4,622c-3.4,0-5.4-1.9-5.4-4.8s2-4.8,5.4-4.8,5.4,1.9,5.4,4.8-2,4.8-5.4,4.8ZM47.4,615c-2,0-3.2.8-3.2,2.2s1.2,2.2,3.2,2.2,3.3-.9,3.3-2.2-1.3-2.2-3.3-2.2Z"/>
          <path class="cls-30" d="M44.3,608.9v2.8h-2.1v-8.1h2.1v2.8h8.3v2.5h-8.3Z"/>
          <path class="cls-30" d="M51.3,603.1l-1.6-1.3c.6-.7,1-1.7,1-2.6s-.4-1.4-.9-1.4-.8.6-1.2,1.5l-.6,1.3c-.4,1.1-1.3,2.1-2.8,2.1s-3.2-1.6-3.2-3.8.5-2.5,1.3-3.4l1.6,1.3c-.5.7-.8,1.4-.8,2.1s.3,1.3.8,1.3.8-.7,1.2-1.6l.5-1.3c.5-1.3,1.4-2.1,2.8-2.1s3.3,1.5,3.3,4c.2,1.4-.3,2.8-1.4,3.9Z"/>
          <path class="cls-30" d="M42.3,593.5v-6.6h2.1v4.1h2v-3.5h2.1v3.5h2.2v-4.3h2.1v6.8s-10.5,0-10.5,0Z"/>
          <path class="cls-30" d="M42.3,584.7v-2.5h8.3v-4h2.1v6.5s-10.4,0-10.4,0Z"/>
        </g>
        <g>
          <path class="cls-30" d="M141.4,799.4h3c3.2,0,5.3,1.6,5.3,5.2s-2.1,5.2-5.1,5.2h-3.1v-10.4h0ZM144.3,807.8c1.7,0,2.9-.8,2.9-3.2s-1.2-3.2-2.9-3.2h-.4v6.4h.4Z"/>
          <path class="cls-30" d="M151.6,799.4h6.6v2.1h-4.1v2h3.5v2.1h-3.5v2.2h4.3v2.1h-6.8v-10.5h0Z"/>
          <path class="cls-30" d="M160.4,799.4h3.6c2.2,0,3.9.6,3.9,2.6s-.5,1.9-1.4,2.2h0c1.1.4,1.9,1.2,1.9,2.5,0,2.1-1.8,3.1-4.1,3.1h-3.9v-10.4h0ZM164,803.5c1.1,0,1.5-.5,1.5-1.2s-.5-1.1-1.5-1.1h-1.1v2.2h1.1ZM164.2,807.9c1.2,0,1.8-.4,1.8-1.3s-.6-1.2-1.8-1.2h-1.2v2.5h1.2Z"/>
          <path class="cls-30" d="M170.1,804.9v-5.5h2.5v5.8c0,2,.6,2.7,1.7,2.7s1.8-.7,1.8-2.7v-5.8h2.4v5.5c0,3.5-1.4,5.1-4.2,5.1s-4.2-1.6-4.2-5.1Z"/>
          <path class="cls-30" d="M180.3,804.7c0-3.5,2.3-5.5,5.1-5.5s2.6.6,3.3,1.4l-1.3,1.5c-.5-.5-1.1-.7-1.9-.7-1.5,0-2.7,1.2-2.7,3.2s.9,3.3,2.9,3.3.8,0,1-.3v-1.7h-1.7v-2h3.9v4.9c-.7.7-2,1.3-3.5,1.3-2.8,0-5.1-1.9-5.1-5.4Z"/>
        </g>
        <rect class="cls-10" x="114.2" y="820.8" width="86.4" height="25.6"/>
        <g>
          <path class="cls-30" d="M40.1,535.1h2.5v8.3h4v2.1h-6.5v-10.4h0Z"/>
          <path class="cls-30" d="M48.4,535.1h6.6v2.1h-4.1v2h3.5v2.1h-3.5v2.2h4.3v2.1h-6.8v-10.5h0Z"/>
          <path class="cls-30" d="M57.2,535.1h3c3.2,0,5.3,1.6,5.3,5.2s-2.1,5.2-5.1,5.2h-3.1v-10.4h-.1ZM60.1,543.6c1.7,0,2.9-.8,2.9-3.2s-1.2-3.2-2.9-3.2h-.4v6.4h.4Z"/>
        </g>
        <g>
          <rect class="cls-24" x="143.7" y="684.6" width="5.4" height="10.6"/>
          <rect class="cls-32" x="143.7" y="686.9" width="5.4" height="6"/>
        </g>
        <g>
          <rect class="cls-24" x="154.3" y="684.6" width="5.4" height="10.6"/>
          <rect class="cls-32" x="154.3" y="686.9" width="5.4" height="6"/>
        </g>
        <rect class="cls-25" x="127.1" y="685.9" width="4.2" height="6.9"/>
        <rect class="cls-25" x="67.3" y="692.4" width="6.9" height="4.2"/>
        <rect class="cls-32" x="120.5" y="685.9" width="4.2" height="6.9"/>
        <rect class="cls-32" x="110.4" y="685.9" width="4.2" height="6.9"/>
        <path class="cls-39" d="M239.5,665.1c0-2.6,1.6-4.8,3.9-5.7v-3.4h-17.2c-5,0-9,4-9,9s4,9,9,9h17.2v-3.4c-2.2-.8-3.9-3-3.9-5.5h0ZM227.8,671.1c-3.4,0-6.1-2.7-6.1-6.1s2.7-6.1,6.1-6.1,6.1,2.7,6.1,6.1-2.7,6.1-6.1,6.1Z"/>
        <g>
          <rect class="cls-24" x="172.6" y="653.9" width="5.6" height="11.9"/>
          <rect class="cls-18" x="172.6" y="656.6" width="5.6" height="6.6"/>
        </g>
      </g>
      <sodipodi:namedview id="namedview94" bordercolor="#666666" borderopacity="1" gridtolerance="10" guidetolerance="10" inkscape:current-layer="Ebene_1" inkscape:cx="-29.537769" inkscape:cy="623.51679" inkscape:pageopacity="0" inkscape:pageshadow="2" inkscape:window-height="1017" inkscape:window-maximized="1" inkscape:window-width="1920" inkscape:window-x="1912" inkscape:window-y="-8" inkscape:zoom="0.94327682" objecttolerance="10" pagecolor="#ffffff" showgrid="false"/>
      <g id="text926">
        <g class="cls-5">
          <path class="cls-30" d="M380.9,563.2h.8c0,0,.1,0,.2.2,0,0,.1,0,.1.2v10.8c-.1,0-.2,0-.3.2h-1.6c0,0-.2,0-.2-.2s-.1,0-.1-.2v-4.2h-15.4l2.3,3.9c.1.2.2.4.2.5s0,.2-.1.3-.2,0-.3,0h-1.6c0,0-.1,0-.2-.2l-3-4.7s-.1,0-.1-.2,0,0-.1-.2,0-.2,0-.3v-1.1c0-.2,0-.3.1-.4s.1-.2.1-.2h18v-3.7s0-.2.1-.2c0,0,.1,0,.2-.2h.9Z"/>
          <path class="cls-30" d="M380.8,547.1h.9c.1,0,.2,0,.2.2s.1.2.1.3v11.2s0,.3-.1.4c0,0-.1.2-.2.3s-.2,0-.4.2h-1.5c-.1,0-.2,0-.4-.2-.1,0-.2-.2-.4-.3l-4.2-4c-1-.9-1.8-1.7-2.6-2.2-.8-.6-1.5-1-2.1-1.3s-1.2-.5-1.7-.6-1,0-1.4,0-.9,0-1.3.2-.8.4-1.1.7-.5.6-.7,1.1-.3.9-.3,1.5.1,1.2.3,1.8.4,1,.6,1.4.4.7.6,1,.3.5.3.6,0,0-.1.2h-2.1c-.1,0-.2,0-.3-.2s-.3-.3-.4-.6c-.2-.3-.4-.7-.6-1.2s-.3-1-.5-1.5c-.1-.6-.2-1.1-.2-1.8,0-1,.1-1.8.4-2.6s.7-1.3,1.1-1.8,1-.8,1.7-1.1c.6-.2,1.3-.4,2-.4s1.3,0,1.9.2c.6,0,1.3.4,2.1.7.7.4,1.6.9,2.5,1.6.9.7,2,1.6,3.1,2.8l3.3,3.2v-8.8s0-.2.1-.2.1,0,.2-.2h.4c.5-.5.7-.5.8-.5h0Z"/>
          <path class="cls-30" d="M371.8,530.2c1.6,0,3,0,4.2.4,1.3.2,2.4.7,3.3,1.2.9.6,1.6,1.3,2.1,2.2s.8,2,.8,3.4-.2,2.3-.7,3.2-1.1,1.6-2,2.1-2,.9-3.2,1.1c-1.3.2-2.8.3-4.4.3s-3,0-4.2-.4-2.4-.7-3.3-1.2-1.6-1.3-2.1-2.2-.8-2-.8-3.4.2-2.4.7-3.2c.5-.9,1.1-1.6,2-2.1s2-.9,3.2-1.1c1.3-.2,2.8-.3,4.4-.3ZM372,532.9h-2.7c-.8,0-1.5.2-2.1.3s-1.1.3-1.6.5c-.4.2-.8.5-1.1.8s-.5.7-.6,1.1c-.1.4-.2.9-.2,1.4,0,.9.2,1.6.6,2.2.4.6,1,1,1.7,1.3s1.6.5,2.6.6,2,.2,3.2.2,2.8,0,3.9-.2,1.9-.4,2.6-.7,1.2-.8,1.5-1.3.5-1.2.5-1.9-.1-1.1-.3-1.5c-.2-.4-.5-.8-.8-1.1s-.8-.6-1.3-.8-1-.4-1.6-.5-1.2-.2-1.9-.3c-.9-.2-1.6-.2-2.4-.2h0Z"/>
          <path class="cls-30" d="M380.9,509.3h.5c.1,0,.3.1.4.1s.2.1.2.2.1.1.1.2v5.9c0,.3-.1.5-.2.6-.2.2-.4.2-.8.2h-1.3c-.1,0-.2,0-.3-.2-.1,0-.3-.3-.6-.7-.3-.4-.6-.8-1.1-1.3s-1-.9-1.6-1.2-1.3-.5-2.1-.7c-.8,0-1.7-.2-2.6-.2s-1.3,0-1.9,0-1.2.2-1.8.4c-.6.2-1.1.5-1.5.8s-.9.7-1.2,1.1-.6,1-.8,1.6c-.2.6-.3,1.3-.3,2.1s.1,1.5.3,2.1.5,1.2.8,1.6c.3.5.8.9,1.2,1.2.5.3,1,.6,1.5.8.6.2,1.1.4,1.7.5s1.2,0,1.8,0c1.1,0,2,0,2.8-.2s1.5-.4,2.1-.7,1.1-.7,1.6-1.2.8-.9,1.1-1.3c.3-.4.5-.6.6-.7.1,0,.2-.2.4-.2h1.3c.4,0,.6,0,.8.2.2.2.2.4.2.6v5.9s0,.2-.1.2c0,0-.1,0-.2.2h-1.8c-.2,0-.3-.2-.3-.4v-3.9c-.4.7-.8,1.3-1.4,1.8-.5.5-1.2,1-1.9,1.4-.7.4-1.5.7-2.3.9s-1.8.3-2.8.3-2.8-.2-4-.6c-1.2-.4-2.3-1-3.1-1.8s-1.6-1.7-2.1-2.9-.7-2.5-.7-4,.2-2.7.7-3.8,1.1-2,2-2.8,1.9-1.3,3-1.7c1.2-.4,2.5-.6,3.9-.6s2,.1,2.9.3,1.7.5,2.4.9c.7.4,1.4.8,1.9,1.4.5.5,1,1.1,1.4,1.8v-3.9c0-.2.1-.3.3-.4.2.2.5.1.9.1h0Z"/>
        </g>
      </g>
      <g id="text930">
        <g class="cls-5">
          <path class="cls-30" d="M411.4,563.2h.8c0,0,.1,0,.2.2,0,0,.1,0,.1.2v10.8c-.1,0-.2,0-.3.2h-1.6c0,0-.2,0-.2-.2s-.1,0-.1-.2v-4.2h-15.3l2.3,3.9c.1.2.2.4.2.5s0,.2-.1.3-.2,0-.3,0h-1.6c0,0-.1,0-.2-.2l-3-4.7s-.1,0-.1-.2,0,0-.1-.2,0-.2,0-.3v-1.1c0-.2,0-.3.1-.4s.1-.2.1-.2h18v-3.7s0-.2.1-.2c0,0,.1,0,.2-.2h.8Z"/>
          <path class="cls-30" d="M411.3,547.1h.9c.1,0,.2,0,.2.2s.1.2.1.3v11.2s0,.3-.1.4c0,0-.1.2-.2.3s-.2,0-.4.2h-1.5c-.1,0-.2,0-.4-.2-.1,0-.2-.2-.4-.3l-4.2-4c-1-.9-1.8-1.7-2.6-2.2-.8-.6-1.5-1-2.1-1.3s-1.2-.5-1.7-.6-1,0-1.4,0-.9,0-1.3.2-.8.4-1.1.7-.5.6-.7,1.1-.3.9-.3,1.5.1,1.2.3,1.8.4,1,.6,1.4.4.7.6,1,.3.5.3.6,0,0-.1.2h-2.1c-.1,0-.2,0-.3-.2s-.3-.3-.4-.6c-.2-.3-.4-.7-.6-1.2s-.3-1-.5-1.5c-.1-.6-.2-1.1-.2-1.8,0-1,.1-1.8.4-2.6s.7-1.3,1.1-1.8,1-.8,1.7-1.1c.6-.2,1.3-.4,2-.4s1.3,0,1.9.2c.6,0,1.3.4,2.1.7.7.4,1.6.9,2.5,1.6.9.7,2,1.6,3.1,2.8l3.3,3.2v-8.8s0-.2.1-.2.1,0,.2-.2h.4c.5-.5.6-.5.8-.5h0Z"/>
          <path class="cls-30" d="M402.3,530.2c1.6,0,3,0,4.2.4,1.3.2,2.4.7,3.3,1.2.9.6,1.6,1.3,2.1,2.2s.8,2,.8,3.4-.2,2.3-.7,3.2-1.1,1.6-2,2.1-2,.9-3.2,1.1c-1.3.2-2.8.3-4.4.3s-3,0-4.2-.4-2.4-.7-3.3-1.2-1.6-1.3-2.1-2.2-.8-2-.8-3.4.2-2.4.7-3.2c.5-.9,1.1-1.6,2-2.1s2-.9,3.2-1.1c1.3-.2,2.8-.3,4.4-.3ZM402.5,532.9h-2.7c-.8,0-1.5.2-2.1.3s-1.1.3-1.6.5c-.4.2-.8.5-1.1.8s-.5.7-.6,1.1c-.1.4-.2.9-.2,1.4,0,.9.2,1.6.6,2.2.4.6,1,1,1.7,1.3s1.6.5,2.6.6,2,.2,3.2.2,2.8,0,3.9-.2,1.9-.4,2.6-.7,1.2-.8,1.5-1.3.5-1.2.5-1.9-.1-1.1-.3-1.5c-.2-.4-.5-.8-.8-1.1s-.8-.6-1.3-.8-1-.4-1.6-.5-1.2-.2-1.9-.3c-.9-.2-1.6-.2-2.4-.2h0Z"/>
          <path class="cls-30" d="M411.4,509.3h.5c.1,0,.3.1.4.1s.2.1.2.2.1.1.1.2v5.9c0,.3-.1.5-.2.6-.2.2-.4.2-.8.2h-1.3c-.1,0-.2,0-.3-.2-.1,0-.3-.3-.6-.7-.3-.4-.6-.8-1.1-1.3s-1-.9-1.6-1.2-1.3-.5-2.1-.7c-.8,0-1.7-.2-2.6-.2s-1.3,0-1.9,0-1.2.2-1.8.4c-.6.2-1.1.5-1.5.8s-.9.7-1.2,1.1-.6,1-.8,1.6c-.2.6-.3,1.3-.3,2.1s.1,1.5.3,2.1.5,1.2.8,1.6c.3.5.8.9,1.2,1.2.5.3,1,.6,1.5.8.6.2,1.1.4,1.7.5s1.2,0,1.8,0c1.1,0,2,0,2.8-.2s1.5-.4,2.1-.7,1.1-.7,1.6-1.2.8-.9,1.1-1.3c.3-.4.5-.6.6-.7.1,0,.2-.2.4-.2h1.3c.4,0,.6,0,.8.2.2.2.2.4.2.6v5.9s0,.2-.1.2c0,0-.1,0-.2.2h-1.8c-.2,0-.3-.2-.3-.4v-3.9c-.4.7-.8,1.3-1.4,1.8-.5.5-1.2,1-1.9,1.4-.7.4-1.5.7-2.3.9s-1.8.3-2.8.3-2.8-.2-4-.6c-1.2-.4-2.3-1-3.1-1.8s-1.6-1.7-2.1-2.9-.7-2.5-.7-4,.2-2.7.7-3.8,1.1-2,2-2.8,1.9-1.3,3-1.7c1.2-.4,2.5-.6,3.9-.6s2,.1,2.9.3,1.7.5,2.4.9c.7.4,1.4.8,1.9,1.4.5.5,1,1.1,1.4,1.8v-3.9c0-.2.1-.3.3-.4.2.2.5.1.9.1h0Z"/>
        </g>
      </g>
      <g id="layer1-0">
        <rect id="rect815" class="cls-1" x="283.7" y="189.5" width="177.1" height="238"/>
        <rect id="rect821" class="cls-30" x="325.6" y="388.8" width="92.2" height="31.7"/>
        <path id="rect825" class="cls-41" d="M331.6,390.6h18.5c3.2,0,5.8,2.6,5.8,5.8v16.2c0,3.2-2.6,5.8-5.8,5.8h-18.5c-3.2,0-5.8-2.6-5.8-5.8v-16.2c0-3.2,2.6-5.8,5.8-5.8Z"/>
        <rect id="rect831-9" class="cls-30" x="308.6" y="322.6" width="126.1" height="31.7"/>
        <rect id="rect833-1" class="cls-30" x="308.6" y="289.5" width="126.1" height="31.7"/>
        <rect id="rect837-8" class="cls-30" x="308.6" y="256.3" width="126.1" height="31.7"/>
        <path id="rect872" class="cls-41" d="M393.2,390.6h18.5c3.2,0,5.8,2.6,5.8,5.8v16.2c0,3.2-2.6,5.8-5.8,5.8h-18.5c-3.2,0-5.8-2.6-5.8-5.8v-16.2c-.1-3.2,2.5-5.8,5.8-5.8Z"/>
        <path id="rect874" class="cls-41" d="M361.6,390.6h20c2.8,0,5.1,2.3,5.1,5.1v17.7c0,2.8-2.3,5.1-5.1,5.1h-20c-2.8,0-5.1-2.3-5.1-5.1v-17.7c0-2.8,2.3-5.1,5.1-5.1Z"/>
        <rect id="rect892-2" class="cls-2" x="310.3" y="323.5" width="123.4" height="29.3"/>
        <path id="rect836-0" class="cls-27" d="M324.9,323.5h7.5c8.1,0,14.6,6.6,14.6,14.6h0c0,8.1-6.6,14.6-14.6,14.6h-7.5c-8.1,0-14.6-6.6-14.6-14.6h0c0-8,6.6-14.6,14.6-14.6h0Z" inkscape:connector-curvature="0"/>
        <rect id="rect850-4" class="cls-27" x="349.6" y="323.5" width="36.8" height="29.3"/>
        <rect id="rect892-7-7" class="cls-2" x="309.9" y="290.6" width="123.4" height="29.3"/>
        <rect id="rect892-72-8" class="cls-2" x="309.9" y="257.7" width="123.4" height="29.3"/>
        <path id="rect836-7-2" class="cls-27" d="M324.6,290.8h7.5c8,0,14.5,6.5,14.5,14.5h0c0,8-6.5,14.5-14.5,14.5h-7.5c-8,0-14.5-6.5-14.5-14.5h0c-.1-8,6.4-14.5,14.5-14.5Z" inkscape:connector-curvature="0"/>
        <path id="rect836-6-5" class="cls-27" d="M363.9,290.8h7.5c8,0,14.5,6.5,14.5,14.5h0c0,8-6.5,14.5-14.5,14.5h-7.5c-8,0-14.5-6.5-14.5-14.5h0c-.1-8,6.4-14.5,14.5-14.5h0Z" inkscape:connector-curvature="0"/>
        <path id="rect939-8" class="cls-27" d="M364,257.4h7.5c8.1,0,14.6,6.6,14.6,14.6h0c0,8.1-6.6,14.6-14.6,14.6h-7.5c-8.1,0-14.6-6.6-14.6-14.6h0c0-8,6.6-14.6,14.6-14.6h0Z" inkscape:connector-curvature="0"/>
        <path id="rect941-0" class="cls-27" d="M324.3,257.4h7.5c8.1,0,14.6,6.6,14.6,14.6h0c0,8.1-6.6,14.6-14.6,14.6h-7.5c-8.1,0-14.6-6.6-14.6-14.6h0c0-8,6.6-14.6,14.6-14.6h0Z" inkscape:connector-curvature="0"/>
        <rect id="rect943-7" class="cls-27" x="392.2" y="291.5" width="40.6" height="27.5"/>
        <rect id="rect945-3" class="cls-27" x="392.2" y="258.5" width="40.6" height="27.5"/>
        <rect id="rect947" class="cls-3" x="339.1" y="405.8" width="3.3" height="58.2"/>
        <rect id="rect949" class="cls-3" x="370.1" y="405.8" width="3.3" height="58.2"/>
        <rect id="rect951" class="cls-3" x="400.7" y="405.8" width="3.3" height="58.2"/>
        <ellipse id="path1456-7" class="cls-6" cx="308.5" cy="239.2" rx="16.2" ry="15.8"/>
        <ellipse id="ellipse1458-1" class="cls-6" cx="434.6" cy="239.2" rx="16.2" ry="15.8"/>
        <ellipse id="path1460-6" class="cls-7" cx="308.5" cy="239.1" rx="14.6" ry="14.3"/>
        <ellipse id="ellipse1464-6" class="cls-7" cx="434.5" cy="239.1" rx="14.6" ry="14.3"/>
        <circle id="circle1504-6" class="cls-7" cx="328.5" cy="338.2" r="13.8"/>
        <circle id="circle1510-4" class="cls-7" cx="367.6" cy="338.2" r="13.8"/>
        <circle id="circle77-6" class="cls-7" cx="328.3" cy="272" r="13.8"/>
        <circle id="circle79-6" class="cls-7" cx="367.6" cy="272" r="13.8"/>
        <circle id="circle81-5" class="cls-7" cx="412.4" cy="272.3" r="11.8"/>
        <path id="path31-1" class="cls-30" d="M334,208.1c1.1,0,1.2,0,1.4-.2.1-.1.3-.2.4-.3.1-.2.1-.3.1-2.6v-2.4h4.6v3c0,3.3,0,3.6-.4,4.4-.4,1.1-1.3,1.8-2.4,2-.7.1-1.4.1-2.1.1s-1.9,0-2.3-.1h-.6v-3.9h1.3ZM356.3,214.7c20,0,24.9,0,24,.1h-.1.1c.1.1.1.2-.1.2s-.1,0,.2.1h.4-.4c-.2,0-.4,0-.3,0s.1.1.1.6,0,.5.2.6c0,0,0,0-.1,0-.1,0-.3,0-.3.1,0,0-7.9.1-23.6.1h-23.6v-1.7h23.5,0ZM338.3,196.5h2.4v3.8h-4.7v-3.8h2.3ZM343.1,203.6c.1-1,.4-2,.9-2.9.1-.2.2-.4.3-.6.1-.1.2-.2.3-.4.3-.4.6-.8.9-1.2h.1c.3-.5.7-.8,1.1-1,.5-.4,1.1-.7,1.8-.9.9-.4,1.9-.5,2.8-.4.6,0,1.1.1,1.7.2.4.1.8.2.9.3s.2.1.4.1l.6.3c1.4.9,2.5,2.2,3.3,3.7.9,1.9,1,4,.3,6-.2.6-.5,1.2-.9,1.8s-.8,1.2-1.4,1.6c-.9,1-2.1,1.7-3.4,2-1,.2-2,.3-3,.2-1.2-.2-2.2-.7-3.2-1.4-.4-.3-.7-.6-1-.9s-.2-.2-.3-.4c-1-1.1-1.7-2.5-2-3.9-.2-.6-.3-1.4-.2-2.2h0ZM347.6,205.6c.2.9.7,1.7,1.4,2.3.8.7,1.8.9,2.8.6,1.2-.5,2.2-1.6,2.5-2.9.2-.9.2-1.8,0-2.6-.3-1-.8-1.8-1.6-2.4-.3-.2-.6-.3-.9-.4-.7-.2-1.5-.1-2.2.2-.6.4-1.2,1-1.5,1.7-.7,1.1-.8,2.3-.5,3.5h0ZM360.8,196.6h4.7v2.1c0,2,0,2.1.1,2.5.4.9,1.4,1.4,2.4,1.1.5-.1.8-.5,1.1-.9l.2-.4v-4.4h4.7v2.5c.1,1,0,2-.2,3-.2.9-.7,1.7-1.2,2.4-.1.1-.2.2-.2.4-.3.4-.7.7-1.1,1s-.9.6-1.4.7c-.1,0-.4.1-.7.2-.5.2-1.1.2-1.7.2-.6.1-1.2,0-1.8-.2-.7-.1-1.3-.4-1.9-.8-.7-.5-1.3-1.1-1.8-1.8-.6-.9-1-1.9-1.1-3-.2-1.6-.2-3.1,0-4.6h-.1ZM367.4,208.2h3.9v4h-7.7v-4h3.8ZM374,193.5s.1-.1.1-.2,0-.2.3-.3h28.7v1.6h-29.1c-.1,0-.1-.1-.1-.6s.1-.5.1-.5h0ZM380.5,203h4.9v3.9h-9.8v-3.9h4.9ZM389.3,196.5h2.4v3.8h-4.7v-3.8h2.3ZM389.3,202.4h2.4v9.9h-4.7v-9.9h2.3ZM398.7,196.5h4.9v3.8h-9.9v-3.8h5ZM394.6,202.7h4.6v2.3c0,3.2-.1,3,2.3,3.1h1.5v4h-.6c-1.4.2-2.9.2-4.3.1-1-.1-1.9-.5-2.6-1.2-.6-.7-.9-1.6-1-2.5,0-.8,0-5.8.1-5.8h0ZM406.4,194.7c.1-.4.3-.8.6-1,.9-.9,2.4-1,3.4-.3.4.2.7.6.8,1,.2.3.2.7.2,1s0,.7-.2,1.1c-.4.8-1.2,1.4-2.1,1.4-.8.1-1.6-.2-2.1-.8-.6-.7-.8-1.6-.6-2.4h0ZM406.9,196.3c.3.6.9,1,1.6,1.2s1.5,0,2-.5c.2-.2.4-.4.5-.6.2-.3.2-.6.2-1s0-.7-.2-1c-.1-.3-.3-.5-.6-.7-.2-.2-.5-.3-.7-.4-1.1-.3-2.3.2-2.8,1.3-.2.5-.2,1.1,0,1.7h0ZM408.6,193.8c.3,0,.7,0,1,.1.4.3.5.8.3,1.2-.1.1-.2.2-.3.2h-.2c0,.1.2.3.2.3.2.2.3.4.4.6.1.1.2.3.3.4.1.1,0,.2-.2.2h-.3l-.4-.6c-.4-.6-.5-.7-1-.7h-.3v1.3h-.4v-3h.9ZM408.7,195.1c.5,0,.6,0,.7-.1.4-.3.2-.7-.4-.8h-.9v.8h.6,0Z" inkscape:connector-curvature="0"/>
        <rect id="rect92-1" class="cls-27" x="392.2" y="324.6" width="40.6" height="27.5"/>
        <circle id="circle1514-9" class="cls-7" cx="412.4" cy="338.3" r="11.8"/>
        <g id="text88">
          <g class="cls-5">
            <path class="cls-30" d="M457.7,309.5h.2c.1,0,.1.1.1.2s.1.2.1.3v1.2c0,.2-.1.3-.1.4s-.1.2-.2.2l-7.9,5.8h8.1c.1,0,.1.1.1.2s.1.2.1.3v1c0,.1,0,.2-.1.3,0,.1-.1.1-.1.2s-.1,0-.2,0h-15.3c-.1,0-.1-.1-.1-.2s-.1-.2-.1-.3v-1c0-.1,0-.2.1-.3s.1-.1.1-.2h7.2l-7-5.6c-.1,0-.1-.1-.2-.2s-.1-.1-.1-.2-.1-.2-.1-.3v-1c0-.1,0-.2.1-.3,0-.1.1-.1.1-.2s.1,0,.2,0,.2,0,.3.1c.1.1.3.2.4.3l6.3,5.2,7.5-5.6c.2-.1.4-.2.4-.2h.1Z"/>
          </g>
          <g class="cls-5">
            <path class="cls-30" d="M451.9,301.8h6s.1.1.1.2.1.2.1.3v1c0,.1,0,.2-.1.3,0,.1-.1.1-.1.2h-6l-8.9,4.5c-.2.1-.3.1-.4.2-.1,0-.2,0-.2-.1s-.1-.2-.1-.3v-1.2c0-.2,0-.3.1-.4,0-.1.1-.2.1-.2.1,0,.1-.1.2-.1l4.5-2.2c.4-.2.9-.4,1.4-.6s.9-.4,1.4-.6h0c-.5-.2-.9-.4-1.4-.6s-.9-.4-1.4-.6l-4.6-2.2c-.1,0-.2-.1-.2-.1-.1,0-.1-.1-.1-.2s-.1-.2-.1-.3v-1.2c0-.2.1-.3.1-.3,0,0,.1-.1.2-.1.1,0,.2.1.4.2l9,4.4h0Z"/>
          </g>
          <g class="cls-5">
            <path class="cls-30" d="M451.9,291.4c.3,0,.5,0,.7.1.1.1.2.2.2.3v5.1c0,.1-.1.3-.2.3-.1.1-.3.1-.7.1s-.5,0-.6-.1-.2-.2-.2-.3v-5.3c0-.1.1-.1.1-.1.1,0,.2-.1.3-.1h.4Z"/>
            <path class="cls-30" d="M450.1,278.8c1.2,0,2.3.1,3.3.3,1,.2,1.9.5,2.6,1,.7.4,1.3,1,1.7,1.7.4.7.6,1.6.6,2.6s-.2,1.8-.5,2.5c-.4.7-.9,1.2-1.6,1.6s-1.5.7-2.5.9-2.2.3-3.5.3-2.3-.1-3.3-.3c-1-.2-1.9-.5-2.6-1-.7-.4-1.3-1-1.7-1.7-.4-.7-.6-1.6-.6-2.6s.2-1.8.5-2.5.9-1.2,1.6-1.6,1.5-.7,2.5-.9,2.2-.3,3.5-.3ZM450.3,280.9c-.8,0-1.5,0-2.1.1s-1.2.1-1.7.2-.9.3-1.2.4-.6.4-.9.6c-.2.2-.4.5-.5.8s-.2.7-.2,1.1c0,.7.2,1.3.5,1.7.3.4.8.8,1.3,1,.6.2,1.2.4,2,.5s1.6.1,2.5.1,2.2-.1,3-.2,1.5-.3,2-.6.9-.6,1.1-1,.4-.9.4-1.5-.1-.9-.2-1.2-.4-.6-.6-.9c-.3-.2-.6-.5-1-.6-.4-.2-.8-.3-1.3-.4s-1-.2-1.5-.2c-.5.1-1.1.1-1.6.1h0Z"/>
            <path class="cls-30" d="M457.2,266.6h.4c.1,0,.2.1.3.1s.1.1.1.1v8.6c0,.1-.1.1-.1.1,0,0-.2.1-.3.1h-.8c-.1,0-.2-.1-.3-.1s-.1-.1-.2-.1c0-.1-.1-.1-.1-.2v-3.3h-12l1.8,3c.1.2.1.3.1.4s0,.2-.1.2c0,0-.2.1-.3.1h-.9c-.1,0-.2,0-.2-.1-.1,0-.1-.1-.2-.1s-.1-.1-.1-.2l-2.3-3.6s0-.1-.1-.1,0-.1,0-.2v-1.2c0-.1,0-.2.1-.3,0-.1.1-.1.1-.1h14v-2.9c0,0,0-.1.1-.2,0-.1.1-.1.2-.1s.2-.1.3-.1.4.2.5.2h0Z"/>
            <path class="cls-30" d="M457.2,253.9h.4c.1,0,.2.1.3.1s.1.1.1.1v8.6c0,.1-.1.1-.1.1,0,0-.2.1-.3.1h-.8c-.1,0-.2-.1-.3-.1s-.1-.1-.2-.1c0-.1-.1-.1-.1-.2v-3.3h-12l1.8,3c.1.2.1.3.1.4s0,.2-.1.2c0,0-.2.1-.3.1h-.9c-.1,0-.2,0-.2-.1-.1,0-.1-.1-.2-.1s-.1-.1-.1-.2l-2.3-3.6s0-.1-.1-.1,0-.1,0-.2v-1.2c0-.1,0-.2.1-.3,0-.1.1-.1.1-.1h14v-2.9c0,0,0-.1.1-.2,0-.1.1-.1.2-.1s.2-.1.3-.1.4.2.5.2h0Z"/>
          </g>
        </g>
        <g id="text92">
          <g class="cls-5">
            <path class="cls-30" d="M437.3,407.8c0,.7-.1,1.4-.4,2s-.7,1.1-1.1,1.5c-.5.4-1.1.7-1.7.9-.7.2-1.4.3-2.1.3s-1,0-1.5-.1-.9-.2-1.2-.3-.7-.3-.9-.4c-.2-.1-.4-.3-.5-.4s-.2-.2-.2-.4-.1-.4-.1-.6v-.4c0-.1,0-.2.1-.3,0-.1.1-.1.1-.2s.1,0,.2,0,.3.1.5.2.5.3.8.5.7.3,1.2.5c.5.1,1,.2,1.6.2s.9-.1,1.2-.2c.4-.1.7-.3,1-.5s.5-.5.6-.8.2-.7.2-1.1-.1-.8-.3-1.1c-.2-.3-.5-.6-.8-.8-.3-.2-.7-.5-1.1-.7s-.9-.4-1.3-.6-.9-.4-1.3-.7c-.4-.3-.8-.5-1.1-.9-.3-.3-.6-.7-.8-1.2-.2-.5-.3-1-.3-1.7s.1-1.2.4-1.8c.2-.5.6-.9,1-1.3.4-.3.9-.6,1.5-.8.6-.2,1.2-.3,1.9-.3s.7,0,1.1.1.7.1,1,.2.6.2.8.3.4.2.5.3.1.1.2.2c0,0,0,.1.1.2v1c0,.1,0,.2-.1.3,0,.1-.1.1-.1.2,0,0-.1.1-.2.1s-.2-.1-.4-.2c-.2-.1-.4-.2-.7-.4-.3-.1-.6-.3-1-.4s-.8-.2-1.3-.2-.8.1-1.1.2c-.3.1-.6.3-.8.5-.2.2-.4.4-.5.7-.1.3-.2.6-.2.9s.1.8.3,1.1c.2.3.5.6.8.8.3.2.7.5,1.2.7s.9.4,1.3.6.9.4,1.3.7c.4.2.8.5,1.2.9.3.3.6.7.8,1.2.1.4.2.9.2,1.5h0Z"/>
          </g>
        </g>
        <g id="text96">
          <g class="cls-5">
            <path class="cls-30" d="M318.3,404.6c0,.3-.1.5-.3.7-.2.1-.5.2-.8.2h-13.6c-.4,0-.7-.1-.9-.2s-.3-.3-.3-.7.1-.5.3-.6.5-.2.9-.2h14.1c.1,0,.3.1.4.1s.2.2.2.3c-.1.2,0,.3,0,.4h0Z"/>
          </g>
        </g>
        <rect id="rect884" class="cls-1" x="310.1" y="134.4" width="123.9" height="18.4"/>
        <rect id="rect886" class="cls-1" x="314.4" y="55.5" width="115.3" height="90.7"/>
        <path id="path888" class="cls-1" d="M429.7,57.9c0-20.5-11-39.5-28.8-49.8-17.8-10.3-39.8-10.3-57.7,0-17.8,10.2-28.8,29.2-28.8,49.8h115.3Z" inkscape:connector-curvature="0"/>
        <path id="path3796-4" class="cls-3" d="M410.9,149.2h3.1v157.7h-3.1v-157.7Z" inkscape:connector-curvature="0"/>
        <path id="path3794-5" class="cls-3" d="M366,149.2h3.1v157.7h-3.1v-157.7Z" inkscape:connector-curvature="0"/>
        <path id="rect74-0" class="cls-3" d="M326.7,149.2h3.1v157.7h-3.1v-157.7Z" inkscape:connector-curvature="0"/>
        <path id="rect3800-4" class="cls-4" d="M370.9,6.7c-8.9.2-17.6,2.7-25.3,7.1-16.4,9.4-26.5,26.9-26.5,45.8h0v78.2h-3.9v11.8h114v-11.8h-3.9V59.6h0c-.1-18.9-10.2-36.3-26.5-45.8-8.6-4.9-18.2-7.3-27.9-7.1h0Z" inkscape:connector-curvature="0"/>
      </g>
      <circle id="circle281" class="cls-22" cx="232.1" cy="547.6" r="11.6"/>
      <circle id="circle281-2" class="cls-28" cx="232.1" cy="724" r="11.6"/>
      <circle id="circle281-3" class="cls-31" cx="232.1" cy="665" r="11.6"/>
      <rect id="rect73" class="cls-22" x="232.1" y="543" width="113.2" height="9.1"/>
      <rect id="rect75" class="cls-28" x="232.1" y="719.4" width="144.1" height="9.1"/>
      <rect id="rect853" class="cls-31" x="232.1" y="660.5" width="174.8" height="9.1"/>
      <circle id="circle281-4" class="cls-22" cx="340.8" cy="432.1" r="11.6"/>
      <circle id="circle281-5" class="cls-28" cx="371.6" cy="432.1" r="11.6"/>
      <circle id="circle281-6" class="cls-31" cx="402.4" cy="432.1" r="11.6"/>
      <rect id="rect81" class="cls-22" x="336.3" y="432.1" width="9.1" height="118.5"/>
      <rect id="rect83" class="cls-28" x="367.1" y="432.1" width="9.1" height="44.7"/>
      <rect id="rect853-2" class="cls-31" x="397.8" y="432.1" width="9.1" height="44.7"/>
      <circle id="circle281-7" class="cls-28" cx="371.6" cy="608.2" r="11.6"/>
      <circle id="circle281-8" class="cls-31" cx="402.4" cy="608.2" r="11.6"/>
      <circle id="circle281-9" class="cls-28" cx="371.6" cy="476.8" r="11.6"/>
      <circle id="circle281-10" class="cls-31" cx="402.4" cy="476.8" r="11.6"/>
      <rect id="rect90" class="cls-28" x="367.1" y="608.2" width="9.1" height="118.2"/>
      <rect id="rect853-3" class="cls-31" x="397.8" y="608.2" width="9.1" height="60.5"/>
    </g>
  </g>
</svg>