<?xml version="1.0" encoding="UTF-8"?>
<svg xmlns="http://www.w3.org/2000/svg" version="1.1" viewBox="0 0 833.2 801.3">
  <defs>
    <style>
      .cls-1 {
        fill: #2c2c2c;
      }

      .cls-2, .cls-3 {
        fill: #fff;
      }

      .cls-4 {
        fill: #493930;
      }

      .cls-5 {
        fill: #be8839;
      }

      .cls-6 {
        fill: #dbded7;
      }

      .cls-7 {
        fill: #914f00;
      }

      .cls-8 {
        fill: #9a2442;
      }

      .cls-9 {
        fill: #303030;
      }

      .cls-10 {
        fill: #f53200;
      }

      .cls-11 {
        fill: #47494a;
      }

      .cls-12 {
        fill: #655a50;
      }

      .cls-13 {
        fill: #00b589;
      }

      .cls-14 {
        fill: #474949;
      }

      .cls-15, .cls-16, .cls-17, .cls-3, .cls-18 {
        isolation: isolate;
      }

      .cls-19 {
        fill: #fcf7fd;
      }

      .cls-20 {
        fill: #ada390;
      }

      .cls-21 {
        fill: #686868;
      }

      .cls-22 {
        fill: #e3ad51;
      }

      .cls-23 {
        fill: #ddd;
      }

      .cls-24 {
        fill: #1a1a1a;
      }

      .cls-16 {
        fill: #333;
      }

      .cls-16, .cls-17, .cls-3, .cls-18 {
        opacity: 1;
      }

      .cls-25 {
        fill: #c4b3a8;
      }

      .cls-26 {
        fill: #a3928b;
      }

      .cls-27 {
        fill: #36323e;
      }

      .cls-17 {
        fill: gray;
      }

      .cls-28 {
        fill: #eaeaea;
      }

      .cls-29 {
        fill: #1a1919;
      }

      .cls-30 {
        fill: #e3b37d;
      }

      .cls-31 {
        fill: #010103;
      }

      .cls-18 {
        fill: #ccc;
      }

      .cls-32 {
        fill: #f5b93e;
      }

      .cls-33 {
        fill: #e0dcd3;
      }

      .cls-34 {
        fill: none;
        stroke: #493930;
        stroke-miterlimit: 10;
      }

      .cls-35 {
        fill: #bcb3ad;
      }
    </style>
  </defs>
  <!-- Generator: Adobe Illustrator 28.6.0, SVG Export Plug-In . SVG Version: 1.2.0 Build 709)  -->
  <g>
    <g id="svg8">
      <g>
        <path class="cls-29" d="M590,33.7H7.3c-4,0-7.3,3.2-7.3,7.3v719c0,4,3.2,7.3,7.3,7.3h17.6l34.2,34.2h365.2s34.1-34.2,34.1-34.2h131.6c4,0,7.3-3.2,7.3-7.3V40.9c0-4-3.2-7.3-7.3-7.3ZM28.2,208.1c-10,0-18.1-8.1-18.1-18.1s8.1-18.1,18.1-18.1,18.1,8.1,18.1,18.1-8.1,18.1-18.1,18.1ZM88.1,790c-10,0-18.1-8.1-18.1-18.1s8.1-18.1,18.1-18.1,18.1,8.1,18.1,18.1-8.1,18.1-18.1,18.1ZM401.3,790c-10,0-18.1-8.1-18.1-18.1s8.1-18.1,18.1-18.1,18.1,8.1,18.1,18.1-8.1,18.1-18.1,18.1ZM569.5,219.5c-10,0-18.1-8.1-18.1-18.1s8.1-18.1,18.1-18.1,18.1,8.1,18.1,18.1-8.1,18.1-18.1,18.1Z"/>
        <rect class="cls-9" x="55.9" y=".4" width="101.7" height="143.5"/>
        <path class="cls-9" d="M64.9,143.9h83.7v9.1c0,3.9-3.2,7.1-7.1,7.1h-69.4c-3.9,0-7.1-3.2-7.1-7.1v-9.1h0Z"/>
        <path class="cls-23" d="M571.4,72.4h-21.4v-4.6c0-.8-.6-1.4-1.4-1.4h-20.6c-.8,0-1.4.6-1.4,1.4v4.6h-21.4c-1,0-1.7.8-1.7,1.7v65.1c0,1,.8,1.7,1.7,1.7h66.3c1,0,1.7-.8,1.7-1.7v-65.1c0-1-.8-1.7-1.7-1.7Z"/>
        <circle class="cls-8" cx="538.3" cy="103.7" r="19.2"/>
        <g>
          <circle class="cls-23" cx="148.6" cy="252.4" r="35.2"/>
          <path class="cls-31" d="M129.6,227.8c-8.1,5.1-13.5,14.2-13.5,24.5s5.4,19.4,13.5,24.5v-49.1Z"/>
        </g>
        <g>
          <circle class="cls-23" cx="174.1" cy="351.3" r="35.2"/>
          <path class="cls-31" d="M166.8,321.2c-9.5,1.4-18.1,7.5-22.3,16.9s-2.9,19.9,2.4,27.9l19.9-44.9Z"/>
        </g>
        <rect class="cls-30" x="278.5" y="114.2" width="9.8" height="21.5"/>
        <rect class="cls-30" x="362.3" y="157.9" width="9.8" height="21.5"/>
        <rect class="cls-30" x="451.5" y="232" width="9.8" height="21.5" transform="translate(699.2 -213.7) rotate(90)"/>
        <rect class="cls-30" x="451.5" y="172.5" width="9.8" height="21.5" transform="translate(639.7 -273.2) rotate(90)"/>
        <rect class="cls-30" x="327.1" y="260.9" width="9.8" height="21.5"/>
        <rect class="cls-32" x="396.6" y="358.3" width="9.8" height="21.5"/>
        <rect class="cls-30" x="423.5" y="358.3" width="9.8" height="21.5"/>
        <rect class="cls-30" x="449.8" y="358.3" width="9.8" height="21.5"/>
        <rect class="cls-30" x="329.9" y="645.9" width="9.8" height="21.5" transform="translate(-321.8 991.4) rotate(-90)"/>
        <rect class="cls-32" x="387.3" y="664.1" width="9.8" height="21.5"/>
        <rect class="cls-14" x="302.6" y="157.9" width="31.5" height="14.6" rx="1.5" ry="1.5"/>
        <g>
          <path class="cls-33" d="M305.2,145.4h12.2v11.5h-12.2c-.7,0-1.2-.6-1.2-1.2v-9c0-.7.6-1.2,1.2-1.2Z" transform="translate(461.8 -159.5) rotate(90)"/>
          <path class="cls-33" d="M320.4,145.4h12.2v11.5h-12.2c-.7,0-1.2-.6-1.2-1.2v-9c0-.7.6-1.2,1.2-1.2Z" transform="translate(477.1 -174.8) rotate(90)"/>
        </g>
        <g>
          <rect class="cls-6" x="423.1" y="331.2" width="10.7" height="17.2"/>
          <rect class="cls-14" x="423.1" y="333.7" width="10.7" height="11.8"/>
        </g>
        <g>
          <rect class="cls-6" x="449.4" y="331.2" width="10.7" height="17.2"/>
          <rect class="cls-14" x="449.4" y="333.7" width="10.7" height="11.8"/>
        </g>
        <g>
          <rect class="cls-6" x="309.1" y="297.8" width="10.7" height="17.2" transform="translate(8.1 620.8) rotate(-90)"/>
          <rect class="cls-14" x="308.9" y="300.4" width="10.7" height="11.8" transform="translate(7.9 620.6) rotate(-90)"/>
        </g>
        <g>
          <rect class="cls-6" x="254" y="297.8" width="10.7" height="17.2" transform="translate(-47 565.8) rotate(-90)"/>
          <rect class="cls-14" x="253.9" y="300.4" width="10.7" height="11.8" transform="translate(-47.2 565.6) rotate(-90)"/>
        </g>
        <g>
          <rect class="cls-6" x="387.3" y="633.8" width="10.7" height="17.2"/>
          <rect class="cls-14" x="387.3" y="636.3" width="10.7" height="11.8"/>
        </g>
        <g>
          <rect class="cls-6" x="329.5" y="668" width="10.7" height="17.2" transform="translate(-341.8 1011.4) rotate(-90)"/>
          <rect class="cls-14" x="329.3" y="670.7" width="10.7" height="11.8" transform="translate(-342 1011.3) rotate(-90)"/>
        </g>
        <g>
          <rect class="cls-6" x="477.9" y="81" width="10.7" height="17.2"/>
          <rect class="cls-14" x="477.9" y="83.6" width="10.7" height="11.8"/>
        </g>
        <g>
          <rect class="cls-6" x="338.3" y="82.1" width="10.7" height="17.2"/>
          <rect class="cls-14" x="338.3" y="84.6" width="10.7" height="11.8"/>
        </g>
        <rect class="cls-26" x="441.8" y="195.2" width="12.2" height="32.8" rx="3.7" ry="3.7"/>
        <g>
          <rect class="cls-22" x="369.9" y="446.3" width="22.3" height="17.8" rx="2.9" ry="2.9" transform="translate(-210.3 402.8) rotate(-45)"/>
          <rect class="cls-25" x="370.8" y="447.1" width="20.5" height="16.4" rx="2.9" ry="2.9" transform="translate(-210.3 402.8) rotate(-45)"/>
        </g>
        <rect class="cls-35" x="374.8" y="422.3" width="12.2" height="11"/>
        <rect class="cls-35" x="394.3" y="422.3" width="12.2" height="11"/>
        <rect class="cls-35" x="374.8" y="475.2" width="12.2" height="11"/>
        <rect class="cls-35" x="394.3" y="475.2" width="12.2" height="11"/>
        <rect class="cls-10" x="326.2" y="698.5" width="20.8" height="11" rx="2.8" ry="2.8"/>
        <g>
          <path class="cls-2" d="M31.2,68.6v-4.5h2.1v7.1h-1.5c-2.9-2.4-4.8-2.7-8.9-2.8v-2.5c3.4.2,5.6.7,8.3,2.7Z"/>
          <path class="cls-2" d="M27.8,72.6v4h-1.7v-4h1.7Z"/>
          <path class="cls-2" d="M24.8,78.3v2.2h5.9v-1.9h1.5c.2,1.1.5,1.8.9,2.6v1.8h-8.4v1.9h-2v-6.6h2Z"/>
          <path class="cls-2" d="M24.4,86.4c2.3,2.7,4.2,4.4,5.6,4.4s1.5-.5,1.5-1.4-.5-1.3-1-1.8l1.3-1.3c1.1,1,1.7,1.9,1.7,3.4s-1.3,3.4-3.3,3.4-3.8-1.7-5.4-3.3c0,.5.1,1.2.1,1.7v2.1h-2.1v-7.2h1.5Z"/>
          <path class="cls-2" d="M33.3,94.2v2.6l-4.8,1.1c-1.1.3-2.2.5-3.3.8h0c1.1.4,2.2.6,3.3.9l4.8,1.2v2.5l-10.4-3.2v-3l10.4-3.1Z"/>
          <path class="cls-2" d="M33.3,107.7v2.5h-10.4v-2.5h10.4Z"/>
          <path class="cls-2" d="M33.3,112.6v2.6l-5,2.6c-.7.4-1.5.7-2.4,1h0c1.1,0,2.6-.3,3.8-.3h3.5v2.4h-10.4v-2.6l5-2.6c.7-.4,1.5-.7,2.4-1h0c-1.2,0-2.6.3-3.8.3h-3.5v-2.4h10.4Z"/>
          <path class="cls-2" d="M33.3,123.2v3.7c0,2.3-.8,4.2-3.4,4.2s-3.6-1.9-3.6-4.1v-1.2h-3.5v-2.5h10.4ZM28.3,126.8c0,1.2.6,1.8,1.6,1.8s1.4-.7,1.4-1.9v-1h-3v1.1Z"/>
          <path class="cls-2" d="M27.7,132.8h5.5v2.5h-5.8c-2,0-2.7.6-2.7,1.7s.7,1.8,2.7,1.8h5.8v2.4h-5.5c-3.5,0-5.1-1.4-5.1-4.2s1.6-4.2,5.1-4.2Z"/>
          <path class="cls-2" d="M31.2,145.5v-2.8h2.1v8.1h-2.1v-2.8h-8.3v-2.5h8.3Z"/>
        </g>
        <g>
          <path class="cls-2" d="M588.6,82.2v3.8c0,2.2-.8,4.1-3.3,4.1s-2.5-.7-3-1.8l-4.1,2.3v-2.8l3.7-1.9v-1.2h-3.7v-2.5h10.4ZM583.8,85.8c0,1.2.5,1.8,1.5,1.8s1.3-.6,1.3-1.8v-1.1h-2.8v1.1Z"/>
          <path class="cls-2" d="M588.6,92.1v6.6h-2.1v-4.1h-2v3.5h-2.1v-3.5h-2.2v4.3h-2.1v-6.8h10.4Z"/>
          <path class="cls-2" d="M579.5,100.2l1.6,1.3c-.6.7-1,1.7-1,2.6s.4,1.4.9,1.4.8-.6,1.2-1.5l.6-1.3c.4-1.1,1.3-2.1,2.8-2.1s3.2,1.6,3.2,3.8-.5,2.5-1.3,3.4l-1.6-1.3c.5-.7.8-1.4.8-2.1s-.3-1.3-.8-1.3-.8.7-1.2,1.6l-.5,1.3c-.5,1.3-1.4,2.1-2.8,2.1s-3.3-1.5-3.3-4,.5-2.8,1.5-3.9Z"/>
          <path class="cls-2" d="M588.6,109.8v6.6h-2.1v-4.1h-2v3.5h-2.1v-3.5h-2.2v4.3h-2.1v-6.8h10.4Z"/>
          <path class="cls-2" d="M586.5,120.6v-2.8h2.1v8.1h-2.1v-2.8h-8.3v-2.5h8.3Z"/>
        </g>
        <g>
          <path class="cls-2" d="M371.7,742.9v2.5h-10.4v-2.5h10.4Z"/>
          <path class="cls-2" d="M366.4,747.3c3.5,0,5.5,2.3,5.5,5s-.6,2.4-1.4,3.2l-1.5-1.3c.5-.5.7-1.1.7-1.8,0-1.4-1.2-2.5-3.2-2.5s-3.3,1-3.3,2.4.3,1.5.9,2l-1.5,1.3c-1-.9-1.5-2.1-1.5-3.4,0-2.7,1.8-4.9,5.3-4.9Z"/>
          <path class="cls-2" d="M362.6,756l1.6,1.3c-.6.7-1,1.7-1,2.6s.4,1.4.9,1.4.8-.6,1.2-1.5l.6-1.3c.4-1.1,1.3-2.1,2.8-2.1s3.2,1.6,3.2,3.8-.5,2.5-1.3,3.4l-1.6-1.3c.5-.7.8-1.4.8-2.1s-.3-1.3-.8-1.3-.8.7-1.2,1.6l-.5,1.3c-.5,1.3-1.4,2.1-2.8,2.1s-3.3-1.5-3.3-4,.5-2.8,1.5-3.9Z"/>
          <path class="cls-2" d="M371.7,765.6v3.7c0,2.3-.8,4.2-3.4,4.2s-3.6-1.9-3.6-4.1v-1.2h-3.5v-2.5h10.4ZM366.7,769.2c0,1.2.6,1.8,1.6,1.8s1.4-.7,1.4-1.9v-1h-3v1.1Z"/>
        </g>
        <path class="cls-2" d="M388.7,694.8c-1.2,1-2,2.5-2,4.2,0,3,2.5,5.5,5.5,5.5s5.5-2.5,5.5-5.5-.8-3.2-2-4.2c-.4-.4-.5-1-.1-1.4s1-.5,1.4-.1c1.6,1.4,2.7,3.5,2.7,5.8,0,4.1-3.4,7.5-7.5,7.5s-7.5-3.4-7.5-7.5,1.1-4.4,2.7-5.8c.4-.4,1.1-.3,1.4.1.4.4.3,1.1-.1,1.4h0ZM393.2,699c0,.6-.4,1-1,1s-1-.4-1-1v-7c0-.6.4-1,1-1s1,.4,1,1v7Z"/>
        <polyline class="cls-34" points="36 226.2 42.7 226.2 105.3 288.8 116.1 288.8"/>
        <polyline class="cls-34" points="35.8 234.3 42.7 234.3 102.8 294.5 102.8 426.2 159.6 482.9 212.3 482.9 224.5 470.5 263.5 470.5"/>
        <polyline class="cls-34" points="33.3 261.8 44.7 261.8 86.8 303.9 86.8 426.9 156.7 496.8 268.4 496.8"/>
        <polyline class="cls-34" points="22.9 347.3 61.9 386.3 61.9 450.2 33.2 478.9"/>
        <line class="cls-4" x1="76" y1="429" x2="151.8" y2="504.9"/>
        <polyline class="cls-34" points="131.3 496.3 88.6 539.1 24.5 539.1"/>
        <polyline class="cls-34" points="131.3 507 91.3 547 26 547"/>
        <polyline class="cls-34" points="267.3 505.5 234.8 505.5 159.2 581.1 78.6 581.1 56 603.8 31.2 603.8"/>
        <polyline class="cls-34" points="249.4 514.5 249.4 560.9 179.6 630.7 30.5 630.7"/>
        <polyline class="cls-34" points="264.8 534.5 264.8 570.8 176.2 659.3 31.2 659.3"/>
        <polyline class="cls-34" points="273.5 534.3 273.5 573.5 158.8 688.3 24.5 688.3"/>
        <polyline class="cls-34" points="282.5 535.2 282.5 580.8 147.4 715.9 30.5 715.9"/>
        <polyline class="cls-34" points="291 539.2 291 588.6 134.7 745 30.5 745"/>
        <line class="cls-4" x1="328.7" y1="624.1" x2="292.1" y2="587.5"/>
        <polyline class="cls-34" points="331.1 640.4 305.9 615.2 280.1 615.2"/>
        <polyline class="cls-34" points="344.4 648.2 344.4 589.5 299.7 544.8 299.7 525.4"/>
        <polyline class="cls-34" points="278.4 763 262.1 746.7 262.1 682 287.4 656.7"/>
        <polyline class="cls-34" points="308.2 533.8 308.2 544.6 361.7 598.2 401.5 598.2 506.8 703.5 506.8 732.6 518.6 744.4 563.7 744.4"/>
        <polyline class="cls-34" points="317 534.9 317 545.7 359.4 588 421.4 588 568.6 735.3"/>
        <polyline class="cls-34" points="327.1 534.4 367.9 575.2 433.5 575.2 573.9 715.6"/>
        <polyline class="cls-34" points="345.7 513.8 400.2 513.8 571.2 684.8"/>
        <polyline class="cls-34" points="347.1 505.5 407.2 505.5 573.5 671.7"/>
        <polyline class="cls-34" points="496 525.3 489.1 518.3 443 518.3"/>
        <polyline class="cls-34" points="347.1 461.9 358.2 461.9 367 470.7 377.7 470.7"/>
        <polyline class="cls-34" points="346.8 452.9 356.8 452.9 367.4 442.4 380.6 442.4"/>
        <polyline class="cls-34" points="325.4 429.4 341.8 413 411.7 413 566.8 568"/>
        <polyline class="cls-34" points="316.9 431.2 316.9 426.6 336.4 407.1 414.7 407.1 575 567.5"/>
        <polyline class="cls-34" points="308.2 431.1 308.2 422.7 328.5 402.5 418.4 402.5 574.8 558.9"/>
        <polyline class="cls-34" points="299.6 429.6 299.6 421.4 323.4 397.6 418.8 397.6 576.3 555.1"/>
        <polyline class="cls-34" points="291 429.1 291 417.1 316 392.2 420 392.2 580.4 552.6"/>
        <polyline class="cls-34" points="282.1 430.7 282.1 409 303.4 388.9 425 388.9 480.1 444 580.4 444"/>
        <polyline class="cls-34" points="273.5 428.9 273.5 405.6 297.2 383.7 426.8 383.7 458.1 415 579 415"/>
        <polyline class="cls-34" points="264.8 428.4 264.8 404.4 286.8 382.4 290.2 379"/>
        <polyline class="cls-34" points="221.2 446.5 221.2 417.4 289.5 349.1 315.4 349.1 322.4 356.1 372.2 356.1 399.6 328.7 426.7 328.7"/>
        <polyline class="cls-34" points="210.2 343.6 314.3 343.6 335.1 322.8 354.3 322.8"/>
        <polyline class="cls-34" points="286.6 273 286.6 283.8 277.6 292.8 260.2 292.8 247.6 280.1 247.6 270.9 247.6 245.8"/>
        <polyline class="cls-34" points="226.8 215.1 226.8 206.8 232.3 201.3 249.3 201.3"/>
        <polyline class="cls-34" points="191.1 192.8 237.4 192.8 257.9 172.2 257.9 150.4"/>
        <polyline class="cls-34" points="319.1 179.3 333 179.3 341.6 170.6 341.6 138.1 313.6 110.1 297.9 110.1 275.9 88.1"/>
        <polyline class="cls-34" points="285.9 84.6 299.7 98.4 311.2 98.4"/>
        <polyline class="cls-34" points="323.2 82.1 323.2 102.3 344.4 123.5 379.9 123.5 384.6 118.8 384.6 89.6"/>
        <path class="cls-34" d="M402.5,199.6v-48.4"/>
        <path class="cls-34" d="M418.1,151.2v22"/>
        <polyline class="cls-34" points="415.6 206.9 428 206.9 440 194.9"/>
        <polyline class="cls-34" points="415.5 220.6 428.4 220.6 440.5 232.7"/>
        <line class="cls-34" x1="416" y1="261.8" x2="439.6" y2="261.8"/>
        <line class="cls-34" x1="413.8" y1="275.8" x2="441.8" y2="275.8"/>
        <polyline class="cls-34" points="415.5 289.2 426.7 289.2 441.8 289.2"/>
        <line class="cls-34" x1="562.9" y1="152.1" x2="530.4" y2="184.6"/>
        <g>
          <rect class="cls-14" x="257.2" y="445.6" width="76" height="76" rx="5.9" ry="5.9"/>
          <circle class="cls-1" cx="322.3" cy="509.7" r="4.8"/>
          <g>
            <path class="cls-33" d="M240.3,450.2h16.9v5.9h-16.9c-.7,0-1.2-.6-1.2-1.2v-3.4c0-.7.6-1.2,1.2-1.2Z"/>
            <path class="cls-33" d="M240.3,458.9h16.9v5.9h-16.9c-.7,0-1.2-.6-1.2-1.2v-3.4c0-.7.6-1.2,1.2-1.2Z"/>
            <path class="cls-33" d="M240.3,467.6h16.9v5.9h-16.9c-.7,0-1.2-.6-1.2-1.2v-3.4c0-.7.6-1.2,1.2-1.2Z"/>
            <path class="cls-33" d="M240.3,476.3h16.9v5.9h-16.9c-.7,0-1.2-.6-1.2-1.2v-3.4c0-.7.6-1.2,1.2-1.2Z"/>
            <path class="cls-33" d="M240.3,485h16.9v5.9h-16.9c-.7,0-1.2-.6-1.2-1.2v-3.4c0-.7.6-1.2,1.2-1.2Z"/>
            <path class="cls-33" d="M240.3,493.7h16.9v5.9h-16.9c-.7,0-1.2-.6-1.2-1.2v-3.4c0-.7.6-1.2,1.2-1.2Z"/>
            <path class="cls-33" d="M240.3,502.4h16.9v5.9h-16.9c-.7,0-1.2-.6-1.2-1.2v-3.4c0-.7.6-1.2,1.2-1.2Z"/>
            <path class="cls-33" d="M240.3,511.1h16.9v5.9h-16.9c-.7,0-1.2-.6-1.2-1.2v-3.4c0-.7.6-1.2,1.2-1.2Z"/>
          </g>
          <g>
            <path class="cls-33" d="M317.8,433.6h16.9v5.9h-16.9c-.7,0-1.2-.6-1.2-1.2v-3.4c0-.7.6-1.2,1.2-1.2Z" transform="translate(762.2 110.9) rotate(90)"/>
            <path class="cls-33" d="M309.1,433.6h16.9v5.9h-16.9c-.7,0-1.2-.6-1.2-1.2v-3.4c0-.7.6-1.2,1.2-1.2Z" transform="translate(753.5 119.6) rotate(90)"/>
            <path class="cls-33" d="M300.4,433.6h16.9v5.9h-16.9c-.7,0-1.2-.6-1.2-1.2v-3.4c0-.7.6-1.2,1.2-1.2Z" transform="translate(744.8 128.3) rotate(90)"/>
            <path class="cls-33" d="M291.7,433.6h16.9v5.9h-16.9c-.7,0-1.2-.6-1.2-1.2v-3.4c0-.7.6-1.2,1.2-1.2Z" transform="translate(736.1 137) rotate(90)"/>
            <path class="cls-33" d="M283,433.6h16.9v5.9h-16.9c-.7,0-1.2-.6-1.2-1.2v-3.4c0-.7.6-1.2,1.2-1.2Z" transform="translate(727.4 145.7) rotate(90)"/>
            <path class="cls-33" d="M274.3,433.6h16.9v5.9h-16.9c-.7,0-1.2-.6-1.2-1.2v-3.4c0-.7.6-1.2,1.2-1.2Z" transform="translate(718.7 154.4) rotate(90)"/>
            <path class="cls-33" d="M265.6,433.6h16.9v5.9h-16.9c-.7,0-1.2-.6-1.2-1.2v-3.4c0-.7.6-1.2,1.2-1.2Z" transform="translate(710 163.1) rotate(90)"/>
            <path class="cls-33" d="M256.9,433.6h16.9v5.9h-16.9c-.7,0-1.2-.6-1.2-1.2v-3.4c0-.7.6-1.2,1.2-1.2Z" transform="translate(701.3 171.8) rotate(90)"/>
          </g>
          <g>
            <path class="cls-33" d="M256.9,527.7h16.9v5.9h-16.9c-.7,0-1.2-.6-1.2-1.2v-3.4c0-.7.6-1.2,1.2-1.2Z" transform="translate(-265.9 795.4) rotate(-90)"/>
            <path class="cls-33" d="M265.6,527.7h16.9v5.9h-16.9c-.7,0-1.2-.6-1.2-1.2v-3.4c0-.7.6-1.2,1.2-1.2Z" transform="translate(-257.2 804.1) rotate(-90)"/>
            <path class="cls-33" d="M274.3,527.7h16.9v5.9h-16.9c-.7,0-1.2-.6-1.2-1.2v-3.4c0-.7.6-1.2,1.2-1.2Z" transform="translate(-248.5 812.8) rotate(-90)"/>
            <path class="cls-33" d="M283,527.7h16.9v5.9h-16.9c-.7,0-1.2-.6-1.2-1.2v-3.4c0-.7.6-1.2,1.2-1.2Z" transform="translate(-239.8 821.5) rotate(-90)"/>
            <path class="cls-33" d="M291.7,527.7h16.9v5.9h-16.9c-.7,0-1.2-.6-1.2-1.2v-3.4c0-.7.6-1.2,1.2-1.2Z" transform="translate(-231.1 830.2) rotate(-90)"/>
            <path class="cls-33" d="M300.4,527.7h16.9v5.9h-16.9c-.7,0-1.2-.6-1.2-1.2v-3.4c0-.7.6-1.2,1.2-1.2Z" transform="translate(-222.4 838.9) rotate(-90)"/>
            <path class="cls-33" d="M309.1,527.7h16.9v5.9h-16.9c-.7,0-1.2-.6-1.2-1.2v-3.4c0-.7.6-1.2,1.2-1.2Z" transform="translate(-213.7 847.6) rotate(-90)"/>
            <path class="cls-33" d="M317.8,527.7h16.9v5.9h-16.9c-.7,0-1.2-.6-1.2-1.2v-3.4c0-.7.6-1.2,1.2-1.2Z" transform="translate(-205 856.3) rotate(-90)"/>
          </g>
          <g>
            <path class="cls-33" d="M334.4,510.8h16.9v5.9h-16.9c-.7,0-1.2-.6-1.2-1.2v-3.4c0-.7.6-1.2,1.2-1.2Z" transform="translate(684.5 1027.5) rotate(180)"/>
            <path class="cls-33" d="M334.4,502.1h16.9v5.9h-16.9c-.7,0-1.2-.6-1.2-1.2v-3.4c0-.7.6-1.2,1.2-1.2Z" transform="translate(684.5 1010.1) rotate(180)"/>
            <path class="cls-33" d="M334.4,493.4h16.9v5.9h-16.9c-.7,0-1.2-.6-1.2-1.2v-3.4c0-.7.6-1.2,1.2-1.2Z" transform="translate(684.5 992.7) rotate(180)"/>
            <path class="cls-33" d="M334.4,484.7h16.9v5.9h-16.9c-.7,0-1.2-.6-1.2-1.2v-3.4c0-.7.6-1.2,1.2-1.2Z" transform="translate(684.5 975.3) rotate(180)"/>
            <path class="cls-33" d="M334.4,476h16.9v5.9h-16.9c-.7,0-1.2-.6-1.2-1.2v-3.4c0-.7.6-1.2,1.2-1.2Z" transform="translate(684.5 957.9) rotate(180)"/>
            <path class="cls-33" d="M334.4,467.3h16.9v5.9h-16.9c-.7,0-1.2-.6-1.2-1.2v-3.4c0-.7.6-1.2,1.2-1.2Z" transform="translate(684.5 940.5) rotate(180)"/>
            <path class="cls-33" d="M334.4,458.6h16.9v5.9h-16.9c-.7,0-1.2-.6-1.2-1.2v-3.4c0-.7.6-1.2,1.2-1.2Z" transform="translate(684.5 923.1) rotate(180)"/>
            <path class="cls-33" d="M334.4,449.9h16.9v5.9h-16.9c-.7,0-1.2-.6-1.2-1.2v-3.4c0-.7.6-1.2,1.2-1.2Z" transform="translate(684.5 905.8) rotate(180)"/>
          </g>
        </g>
        <path class="cls-2" d="M247,608.8v7.2c0,1.3,0,2.5-.1,3.5,0,.8-.2,1.6-.4,2.4-.2.7-.5,1.3-.8,1.9-.5.7-1,1.4-1.6,2-.6.7-1.5,1.2-2.5,1.6-1.1.3-2.3.5-3.7.5h-6v-7.4h3.7c.5,0,.9,0,1.4-.2.3-.1.6-.3.9-.6.2-.3.4-.7.5-1.1.1-.6.2-1.2.2-1.7v-7.9h8.5ZM232.6,632.2h95v3.1h-95v-3.1ZM247,596.8v7.4h-8.5v-7.4h8.5ZM267.3,596.3c1.1,0,2.3,0,3.4.3,1,.2,2.1.5,3.1.9,1,.4,1.9.9,2.7,1.4.9.6,1.7,1.2,2.4,2,.7.7,1.4,1.6,1.9,2.4.6.9,1,1.8,1.4,2.7.4,1,.7,2,.8,3.1.2,1.1.3,2.3.3,3.4,0,1.1,0,2.2-.3,3.3-.2,1-.5,2-.8,3-.4.9-.8,1.9-1.4,2.7-.6.9-1.2,1.7-1.9,2.4-.7.7-1.5,1.4-2.4,2-.8.6-1.7,1-2.7,1.4-1,.4-2,.7-3,.9-1.1.2-2.2.3-3.3.3-1.1,0-2.3,0-3.4-.3-1-.2-2.1-.5-3.1-.8-1-.4-1.9-.8-2.7-1.4-1.7-1.1-3.2-2.6-4.4-4.4-.6-.9-1-1.8-1.4-2.7-.4-1-.7-2-.9-3-.4-2.2-.4-4.5,0-6.7.2-1,.5-2.1.9-3,.4-1,.8-1.9,1.4-2.7.6-.9,1.2-1.7,2-2.5.7-.8,1.5-1.4,2.4-2,.8-.6,1.7-1.1,2.7-1.4,1-.4,2-.7,3-.9,1.1-.2,2.2-.3,3.3-.3h0ZM267.3,603.4c-1,0-2,.2-3,.6-.9.4-1.6,1-2.2,1.8-.6.8-1.1,1.8-1.4,2.8-.3,1.1-.5,2.3-.5,3.7,0,1.3.1,2.5.5,3.8.3,1,.8,2,1.4,2.9.6.8,1.4,1.4,2.3,1.8.9.4,1.9.6,3,.6,1,0,2-.2,3-.6.9-.4,1.6-1,2.2-1.8.6-.9,1.1-1.8,1.4-2.8.3-1.1.5-2.4.5-3.8,0-1.2-.1-2.5-.5-3.7-.3-1-.8-2-1.4-2.8-.6-.8-1.4-1.4-2.3-1.8-.9-.4-1.9-.6-3-.6h0ZM286.7,596.8h8.5v7.7c0,1.6.3,2.8.9,3.6s1.6,1.2,2.8,1.2c1.3,0,2.3-.4,2.9-1.3s1-2.1,1-3.8v-7.4h8.4v5.4c0,1.3,0,2.5-.2,3.6,0,.9-.2,1.8-.5,2.7-.3.9-.6,1.7-1.1,2.5-.6,1-1.3,1.9-2,2.7-.4.5-.9.9-1.5,1.3-.6.4-1.2.7-1.9.9-.8.3-1.6.4-2.4.5-.9.1-1.9.2-2.8.2-.9,0-1.8,0-2.7-.2-.8-.1-1.5-.3-2.3-.5-.7-.2-1.3-.5-1.9-.9-.5-.3-1-.7-1.5-1.2-.8-.8-1.5-1.7-2.1-2.6-.5-.7-.9-1.5-1.2-2.4-.3-.9-.4-1.8-.5-2.7-.1-1.1-.2-2.3-.2-3.4v-6.1ZM306,620.4v7.4h-14.2v-7.4h14.2ZM310,590.1h56.8v2.9h-56.8v-2.9ZM313.7,610.3h18.3v7.3h-18.3v-7.3ZM343.7,596.8v7.4h-8.5v-7.4h8.5ZM343.7,608.8v19.1h-8.5v-19.1h8.5ZM368.2,596.8v7.4h-19.9v-7.4h19.9ZM349.7,608.8h8.4v7.7c0,.7,0,1.3.2,2,.1.5.3.9.5,1.2.2.2.6.4,1.1.6.6.1,1.2.2,1.8.2h5.5v7.4h-7.9c-.8,0-1.6,0-2.3-.2-.7,0-1.4-.3-2-.5-.6-.2-1.1-.5-1.7-.8-.5-.3-.9-.7-1.3-1.1-.4-.4-.7-.9-1-1.5-.3-.6-.5-1.2-.7-1.9-.2-.8-.3-1.5-.4-2.3,0-.9-.1-1.8-.1-2.7v-8.1Z"/>
        <rect class="cls-30" x="208.9" y="437.3" width="9.8" height="21.5" transform="translate(-234.3 661.8) rotate(-90)"/>
        <rect class="cls-30" x="349.4" y="321.1" width="9.8" height="21.5"/>
        <g>
          <rect class="cls-14" x="268" y="224.5" width="50.5" height="39.3" rx="2.5" ry="2.5"/>
          <circle class="cls-1" cx="272.2" cy="255.8" r="2.7"/>
          <g>
            <path class="cls-33" d="M267.8,267.4h12.2v6.1h-12.2c-.7,0-1.2-.6-1.2-1.2v-3.6c0-.7.6-1.2,1.2-1.2Z" transform="translate(2.8 543.8) rotate(-90)"/>
            <path class="cls-33" d="M281.1,267.4h12.2v6.1h-12.2c-.7,0-1.2-.6-1.2-1.2v-3.6c0-.7.6-1.2,1.2-1.2Z" transform="translate(16.1 557.1) rotate(-90)"/>
            <path class="cls-33" d="M294.4,267.4h12.2v6.1h-12.2c-.7,0-1.2-.6-1.2-1.2v-3.6c0-.7.6-1.2,1.2-1.2Z" transform="translate(29.4 570.4) rotate(-90)"/>
            <path class="cls-33" d="M307.7,267.4h12.2v6.1h-12.2c-.7,0-1.2-.6-1.2-1.2v-3.6c0-.7.6-1.2,1.2-1.2Z" transform="translate(42.7 583.7) rotate(-90)"/>
          </g>
          <g>
            <path class="cls-33" d="M307.7,214.7h12.2v6.1h-12.2c-.7,0-1.2-.6-1.2-1.2v-3.6c0-.7.6-1.2,1.2-1.2Z" transform="translate(530.9 -95.4) rotate(90)"/>
            <path class="cls-33" d="M294.4,214.7h12.2v6.1h-12.2c-.7,0-1.2-.6-1.2-1.2v-3.6c0-.7.6-1.2,1.2-1.2Z" transform="translate(517.6 -82.1) rotate(90)"/>
            <path class="cls-33" d="M281.1,214.7h12.2v6.1h-12.2c-.7,0-1.2-.6-1.2-1.2v-3.6c0-.7.6-1.2,1.2-1.2Z" transform="translate(504.4 -68.8) rotate(90)"/>
            <path class="cls-33" d="M267.8,214.7h12.2v6.1h-12.2c-.7,0-1.2-.6-1.2-1.2v-3.6c0-.7.6-1.2,1.2-1.2Z" transform="translate(491.1 -55.6) rotate(90)"/>
          </g>
        </g>
        <g>
          <g>
            <path class="cls-33" d="M222,242h12.2v9.6h-12.2c-.7,0-1.2-.6-1.2-1.2v-7.1c0-.7.6-1.2,1.2-1.2Z" transform="translate(-19.3 474.3) rotate(-90)"/>
            <path class="cls-33" d="M241.7,242h12.2v9.6h-12.2c-.7,0-1.2-.6-1.2-1.2v-7.1c0-.7.6-1.2,1.2-1.2Z" transform="translate(.4 494) rotate(-90)"/>
          </g>
          <g>
            <path class="cls-33" d="M221.4,214h12.2v6.1h-12.2c-.7,0-1.2-.6-1.2-1.2v-3.6c0-.7.6-1.2,1.2-1.2Z" transform="translate(443.9 -9.8) rotate(90)"/>
            <path class="cls-33" d="M231.9,214h12.2v6.1h-12.2c-.7,0-1.2-.6-1.2-1.2v-3.6c0-.7.6-1.2,1.2-1.2Z" transform="translate(454.4 -20.3) rotate(90)"/>
            <path class="cls-33" d="M242.4,214h12.2v6.1h-12.2c-.7,0-1.2-.6-1.2-1.2v-3.6c0-.7.6-1.2,1.2-1.2Z" transform="translate(464.9 -30.9) rotate(90)"/>
          </g>
          <rect class="cls-14" x="222.2" y="223.8" width="30.4" height="16.3" rx=".7" ry=".7"/>
        </g>
        <rect class="cls-30" x="233.6" y="260.2" width="9.8" height="21.5" transform="translate(-32.4 509.4) rotate(-90)"/>
        <g>
          <rect class="cls-14" x="365.5" y="201.4" width="34.4" height="107"/>
          <g>
            <path class="cls-33" d="M348.6,203.9h16.9v5.9h-16.9c-.7,0-1.2-.6-1.2-1.2v-3.4c0-.7.6-1.2,1.2-1.2Z"/>
            <path class="cls-33" d="M348.6,217.6h16.9v5.9h-16.9c-.7,0-1.2-.6-1.2-1.2v-3.4c0-.7.6-1.2,1.2-1.2Z"/>
            <path class="cls-33" d="M348.6,231.4h16.9v5.9h-16.9c-.7,0-1.2-.6-1.2-1.2v-3.4c0-.7.6-1.2,1.2-1.2Z"/>
            <path class="cls-33" d="M348.6,245.1h16.9v5.9h-16.9c-.7,0-1.2-.6-1.2-1.2v-3.4c0-.7.6-1.2,1.2-1.2Z"/>
            <path class="cls-33" d="M348.6,258.8h16.9v5.9h-16.9c-.7,0-1.2-.6-1.2-1.2v-3.4c0-.7.6-1.2,1.2-1.2Z"/>
            <path class="cls-33" d="M348.6,272.6h16.9v5.9h-16.9c-.7,0-1.2-.6-1.2-1.2v-3.4c0-.7.6-1.2,1.2-1.2Z"/>
            <path class="cls-33" d="M348.6,286.3h16.9v5.9h-16.9c-.7,0-1.2-.6-1.2-1.2v-3.4c0-.7.6-1.2,1.2-1.2Z"/>
            <path class="cls-33" d="M348.6,300h16.9v5.9h-16.9c-.7,0-1.2-.6-1.2-1.2v-3.4c0-.7.6-1.2,1.2-1.2Z"/>
          </g>
          <g>
            <path class="cls-33" d="M401.1,300h16.9v5.9h-16.9c-.7,0-1.2-.6-1.2-1.2v-3.4c0-.7.6-1.2,1.2-1.2Z" transform="translate(817.8 605.9) rotate(180)"/>
            <path class="cls-33" d="M401.1,286.3h16.9v5.9h-16.9c-.7,0-1.2-.6-1.2-1.2v-3.4c0-.7.6-1.2,1.2-1.2Z" transform="translate(817.8 578.4) rotate(180)"/>
            <path class="cls-33" d="M401.1,272.6h16.9v5.9h-16.9c-.7,0-1.2-.6-1.2-1.2v-3.4c0-.7.6-1.2,1.2-1.2Z" transform="translate(817.8 551) rotate(180)"/>
            <path class="cls-33" d="M401.1,258.8h16.9v5.9h-16.9c-.7,0-1.2-.6-1.2-1.2v-3.4c0-.7.6-1.2,1.2-1.2Z" transform="translate(817.8 523.5) rotate(180)"/>
            <path class="cls-33" d="M401.1,245.1h16.9v5.9h-16.9c-.7,0-1.2-.6-1.2-1.2v-3.4c0-.7.6-1.2,1.2-1.2Z" transform="translate(817.8 496.1) rotate(180)"/>
            <path class="cls-33" d="M401.1,231.4h16.9v5.9h-16.9c-.7,0-1.2-.6-1.2-1.2v-3.4c0-.7.6-1.2,1.2-1.2Z" transform="translate(817.8 468.6) rotate(180)"/>
            <path class="cls-33" d="M401.1,217.6h16.9v5.9h-16.9c-.7,0-1.2-.6-1.2-1.2v-3.4c0-.7.6-1.2,1.2-1.2Z" transform="translate(817.8 441.2) rotate(180)"/>
            <path class="cls-33" d="M401.1,203.9h16.9v5.9h-16.9c-.7,0-1.2-.6-1.2-1.2v-3.4c0-.7.6-1.2,1.2-1.2Z" transform="translate(817.8 413.7) rotate(180)"/>
          </g>
          <circle class="cls-1" cx="391.8" cy="298.5" r="4.9"/>
        </g>
        <rect class="cls-30" x="444.5" y="248.1" width="9.8" height="21.5" transform="translate(708.2 -190.5) rotate(90)"/>
        <g>
          <rect class="cls-6" x="444" y="267.4" width="10.7" height="17.2" transform="translate(725.4 -173.4) rotate(90)"/>
          <rect class="cls-14" x="444.2" y="270.1" width="10.7" height="11.8" transform="translate(725.5 -173.5) rotate(90)"/>
        </g>
        <g>
          <rect class="cls-6" x="444" y="285" width="10.7" height="17.2" transform="translate(743 -155.8) rotate(90)"/>
          <rect class="cls-14" x="444.2" y="287.7" width="10.7" height="11.8" transform="translate(743.1 -155.9) rotate(90)"/>
        </g>
        <g>
          <rect class="cls-6" x="397.2" y="136.2" width="10.7" height="17.2"/>
          <rect class="cls-14" x="397.2" y="138.7" width="10.7" height="11.8"/>
        </g>
        <g>
          <rect class="cls-6" x="412.7" y="136" width="10.7" height="17.2"/>
          <rect class="cls-14" x="412.7" y="138.6" width="10.7" height="11.8"/>
        </g>
        <path class="cls-33" d="M312,173.5h12.2v11.5h-12.2c-.7,0-1.2-.6-1.2-1.2v-9c0-.7.6-1.2,1.2-1.2Z" transform="translate(138.2 496.7) rotate(-90)"/>
        <g>
          <rect class="cls-5" x="274.7" y="54.3" width="51.5" height="35.1"/>
          <rect class="cls-12" x="287" y="54.3" width="26.7" height="35.1"/>
        </g>
        <g>
          <path class="cls-23" d="M370,20.1h0s87.6,0,87.6,0h0c2.7,1.4,4.4,4.2,4.4,7.3v70.1c0,1-.8,1.8-1.8,1.8h-92.8c-1,0-1.8-.8-1.8-1.8V27.4c0-3,1.7-5.8,4.4-7.3Z"/>
          <g>
            <path class="cls-21" d="M444.7,93.5h0c0-1.3-1.1-2.4-2.4-2.4h-9.9c-.8,0-1.5-.7-1.5-1.5v-2.1c0-.8.7-1.5,1.5-1.5h9.9c1.3,0,2.4-1.1,2.4-2.4h0c0-1.3-1.1-2.4-2.4-2.4h-14c-1.3,0-2.4,1.1-2.4,2.4v10c0,1.3,1.1,2.4,2.4,2.4h14c1.3,0,2.4-1.1,2.4-2.4Z"/>
            <path class="cls-21" d="M382.9,83.5h0c0,1.3,1.1,2.4,2.4,2.4h9.9c.8,0,1.5.7,1.5,1.5v2.1c0,.8-.7,1.5-1.5,1.5h-9.9c-1.3,0-2.4,1.1-2.4,2.4h0c0,1.3,1.1,2.4,2.4,2.4h14c1.3,0,2.4-1.1,2.4-2.4v-10c0-1.3-1.1-2.4-2.4-2.4h-14c-1.3,0-2.4,1.1-2.4,2.4Z"/>
          </g>
        </g>
        <g>
          <rect class="cls-14" x="198.1" y="101.1" width="69.5" height="37" rx="1.2" ry="1.2"/>
          <g>
            <path class="cls-33" d="M199.6,144.2h16.9v5.9h-16.9c-.7,0-1.2-.6-1.2-1.2v-3.4c0-.7.6-1.2,1.2-1.2Z" transform="translate(60.3 354.6) rotate(-90)"/>
            <path class="cls-33" d="M225,144.2h16.9v5.9h-16.9c-.7,0-1.2-.6-1.2-1.2v-3.4c0-.7.6-1.2,1.2-1.2Z" transform="translate(85.7 380) rotate(-90)"/>
            <path class="cls-33" d="M250.4,144.2h16.9v5.9h-16.9c-.7,0-1.2-.6-1.2-1.2v-3.4c0-.7.6-1.2,1.2-1.2Z" transform="translate(111.1 405.4) rotate(-90)"/>
          </g>
          <path class="cls-33" d="M219.1,70.6h25.6v34.3h-25.6c-.7,0-1.2-.6-1.2-1.2v-31.8c0-.7.6-1.2,1.2-1.2Z" transform="translate(318.9 -143.5) rotate(90)"/>
        </g>
        <rect class="cls-14" x="150.3" y="179.3" width="48.4" height="27.1"/>
        <g>
          <rect class="cls-23" x="15.9" y="222.4" width="20" height="20"/>
          <circle class="cls-20" cx="26" cy="232.4" r="7.4"/>
          <rect class="cls-23" x="15.9" y="251.1" width="20" height="20"/>
          <circle class="cls-20" cx="26" cy="261.1" r="7.4"/>
          <rect class="cls-23" x="15.9" y="279.7" width="20" height="20"/>
          <circle class="cls-20" cx="26" cy="289.8" r="7.4"/>
          <rect class="cls-23" x="15.9" y="308.4" width="20" height="20"/>
          <circle class="cls-20" cx="26" cy="318.4" r="7.4"/>
        </g>
        <g>
          <rect class="cls-11" x="9.3" y="334.8" width="33.4" height="240.9"/>
          <rect x="16.1" y="337.5" width="19.6" height="19.6"/>
          <rect x="16.1" y="368" width="19.6" height="19.6"/>
          <rect x="16.1" y="398.5" width="19.6" height="19.6"/>
          <rect x="16.1" y="429" width="19.6" height="19.6"/>
          <rect x="16.1" y="459.5" width="19.6" height="19.6"/>
          <rect x="16.1" y="490.1" width="19.6" height="19.6"/>
          <rect x="16.1" y="520.6" width="19.6" height="19.6"/>
          <rect x="16.1" y="551.1" width="19.6" height="19.6"/>
        </g>
        <g>
          <rect class="cls-11" x="9.3" y="581.4" width="33.4" height="178.8"/>
          <g>
            <rect x="16.1" y="584.7" width="19.6" height="19.6"/>
            <rect x="16.1" y="615.2" width="19.6" height="19.6"/>
            <rect x="16.1" y="645.7" width="19.6" height="19.6"/>
            <rect x="16.1" y="676.2" width="19.6" height="19.6"/>
            <rect x="16.1" y="706.7" width="19.6" height="19.6"/>
            <rect x="16.1" y="737.2" width="19.6" height="19.6"/>
          </g>
        </g>
        <g>
          <path class="cls-2" d="M50.3,373h2.5v10.4h-2.5v-10.4Z"/>
          <path class="cls-2" d="M54.7,378.2c0-3.4,1.9-5.4,4.8-5.4s4.8,2,4.8,5.4-1.9,5.4-4.8,5.4-4.8-2-4.8-5.4ZM61.7,378.2c0-2-.8-3.2-2.2-3.2s-2.2,1.2-2.2,3.2.9,3.3,2.2,3.3,2.2-1.3,2.2-3.3Z"/>
          <path class="cls-2" d="M66.2,373h3.8c2.2,0,4.1.8,4.1,3.3s-.7,2.5-1.8,3l2.3,4.1h-2.8l-1.9-3.7h-1.2v3.7h-2.5v-10.4ZM69.8,377.8c1.2,0,1.8-.5,1.8-1.5s-.6-1.3-1.8-1.3h-1.1v2.8h1.1Z"/>
          <path class="cls-2" d="M76.1,373h6.6v2.1h-4.1v2h3.5v2.1h-3.5v2.2h4.3v2.1h-6.8v-10.4Z"/>
          <path class="cls-2" d="M84.9,373h6.7v2.1h-4.2v2.3h3.6v2.1h-3.6v4h-2.5v-10.4Z"/>
        </g>
        <g>
          <path class="cls-2" d="M51.5,403.5h3.8c2.2,0,4.1.8,4.1,3.3s-.7,2.5-1.8,3l2.3,4.1h-2.8l-1.9-3.7h-1.2v3.7h-2.5v-10.4ZM55.2,408.3c1.2,0,1.8-.5,1.8-1.5s-.6-1.3-1.8-1.3h-1.1v2.8h1.1Z"/>
          <path class="cls-2" d="M61.4,403.5h6.6v2.1h-4.1v2h3.5v2.1h-3.5v2.2h4.3v2.1h-6.8v-10.4Z"/>
          <path class="cls-2" d="M69.5,412.6l1.3-1.6c.7.6,1.7,1,2.6,1s1.4-.4,1.4-.9-.6-.8-1.5-1.2l-1.3-.6c-1.1-.4-2.1-1.3-2.1-2.8s1.6-3.2,3.8-3.2,2.5.5,3.4,1.3l-1.3,1.6c-.7-.5-1.4-.8-2.1-.8s-1.3.3-1.3.8.7.8,1.6,1.2l1.3.5c1.3.5,2.1,1.4,2.1,2.8s-1.5,3.3-4,3.3-2.8-.5-3.9-1.5Z"/>
          <path class="cls-2" d="M79.1,403.5h6.6v2.1h-4.1v2h3.5v2.1h-3.5v2.2h4.3v2.1h-6.8v-10.4Z"/>
          <path class="cls-2" d="M90,405.6h-2.8v-2.1h8.1v2.1h-2.8v8.3h-2.5v-8.3Z"/>
        </g>
        <g>
          <path class="cls-2" d="M51.9,443.2l1.1-1.6c.6.6,1.4,1,2.2,1s1.6-.4,1.6-1.2-.5-1.4-2.7-1.4v-1.8c1.8,0,2.3-.5,2.3-1.4s-.4-1.1-1.2-1.1-1.2.3-1.9.9l-1.2-1.5c.9-.8,2-1.3,3.2-1.3,2.2,0,3.6,1,3.6,2.9s-.6,1.8-1.7,2.3h0c1.2.4,2,1.2,2,2.6,0,2-1.8,3-3.8,3s-2.8-.6-3.6-1.4Z"/>
          <path class="cls-2" d="M61,443.1c0-.9.6-1.5,1.5-1.5s1.5.7,1.5,1.5-.6,1.5-1.5,1.5-1.5-.7-1.5-1.5Z"/>
          <path class="cls-2" d="M65.3,443.2l1.1-1.6c.6.6,1.4,1,2.2,1s1.6-.4,1.6-1.2-.5-1.4-2.7-1.4v-1.8c1.8,0,2.3-.5,2.3-1.4s-.4-1.1-1.2-1.1-1.2.3-1.9.9l-1.2-1.5c.9-.8,2-1.3,3.2-1.3,2.2,0,3.6,1,3.6,2.9s-.6,1.8-1.7,2.3h0c1.2.4,2,1.2,2,2.6,0,2-1.8,3-3.8,3s-2.8-.6-3.6-1.4Z"/>
          <path class="cls-2" d="M73.4,434h2.6l1.1,4.8c.3,1.1.5,2.2.8,3.3h0c.3-1.1.5-2.2.8-3.3l1.2-4.8h2.5l-3.2,10.4h-3l-3.1-10.4Z"/>
        </g>
        <g>
          <path class="cls-2" d="M53.1,473.7l1.1-1.6c.6.6,1.3,1,2.1,1s1.6-.6,1.6-1.6-.6-1.6-1.5-1.6-.9.1-1.5.5l-1.1-.7.3-5.2h5.8v2.1h-3.7v1.8c.2-.1.5-.2.9-.2,1.8,0,3.2,1,3.2,3.3s-1.8,3.7-3.8,3.7-2.8-.6-3.6-1.4Z"/>
          <path class="cls-2" d="M61.2,464.5h2.6l1.1,4.8c.3,1.1.5,2.2.8,3.3h0c.3-1.1.5-2.2.8-3.3l1.2-4.8h2.5l-3.2,10.4h-3l-3.1-10.4Z"/>
        </g>
        <g>
          <path class="cls-2" d="M54.7,500.3c0-3.5,2.3-5.5,5.1-5.5s2.6.6,3.3,1.4l-1.3,1.5c-.5-.5-1.1-.7-1.9-.7-1.5,0-2.7,1.2-2.7,3.2s.9,3.3,2.9,3.3.8,0,1-.3v-1.7h-1.7v-2h3.9v4.9c-.7.7-2,1.3-3.5,1.3-2.9,0-5.2-1.8-5.2-5.3Z"/>
          <path class="cls-2" d="M65.5,495h2.6l2.6,5c.4.7.7,1.5,1,2.4h0c-.1-1.1-.3-2.6-.3-3.8v-3.5h2.4v10.4h-2.6l-2.6-5c-.4-.7-.7-1.5-1-2.4h0c.1,1.2.3,2.6.3,3.8v3.5h-2.4v-10.4Z"/>
          <path class="cls-2" d="M76.1,495h3c3.2,0,5.3,1.6,5.3,5.2s-2.1,5.2-5.1,5.2h-3.1v-10.4ZM79,503.5c1.7,0,2.9-.8,2.9-3.2s-1.2-3.2-2.9-3.2h-.4v6.4h.4Z"/>
        </g>
        <g>
          <path class="cls-2" d="M56,530.8c0-3.5,2.3-5.5,5.1-5.5s2.6.6,3.3,1.4l-1.3,1.5c-.5-.5-1.1-.7-1.9-.7-1.5,0-2.7,1.2-2.7,3.2s.9,3.3,2.9,3.3.8,0,1-.3v-1.7h-1.7v-2h3.9v4.9c-.7.7-2,1.3-3.5,1.3-2.9,0-5.2-1.8-5.2-5.3Z"/>
          <path class="cls-2" d="M66.7,525.6h2.6l2.6,5c.4.7.7,1.5,1,2.4h0c-.1-1.1-.3-2.6-.3-3.8v-3.5h2.4v10.4h-2.6l-2.6-5c-.4-.7-.7-1.5-1-2.4h0c.1,1.2.3,2.6.3,3.8v3.5h-2.4v-10.4Z"/>
          <path class="cls-2" d="M77.4,525.6h3c3.2,0,5.3,1.6,5.3,5.2s-2.1,5.2-5.1,5.2h-3.1v-10.4ZM80.2,534c1.7,0,2.9-.8,2.9-3.2s-1.2-3.2-2.9-3.2h-.4v6.4h.4Z"/>
        </g>
        <g>
          <path class="cls-2" d="M56.4,556.1h2.6l1.1,4.8c.3,1.1.5,2.2.8,3.3h0c.3-1.1.5-2.2.8-3.3l1.2-4.8h2.5l-3.2,10.4h-3l-3.1-10.4Z"/>
          <path class="cls-2" d="M66.7,556.1h2.5v10.4h-2.5v-10.4Z"/>
          <path class="cls-2" d="M71.6,556.1h2.6l2.6,5c.4.7.7,1.5,1,2.4h0c-.1-1.1-.3-2.6-.3-3.8v-3.5h2.4v10.4h-2.6l-2.6-5c-.4-.7-.7-1.5-1-2.4h0c.1,1.2.3,2.6.3,3.8v3.5h-2.4v-10.4Z"/>
        </g>
        <g>
          <path class="cls-2" d="M60.8,589.6h3l3.2,10.4h-2.6l-.6-2.4h-3.1l-.6,2.4h-2.5l3.2-10.4ZM61.2,595.7h2.1l-.2-.9c-.3-1-.5-2.3-.8-3.3h0c-.3,1.1-.5,2.3-.8,3.3l-.2.9Z"/>
          <path class="cls-2" d="M67.5,594.8c0-3.6,1.5-5.4,3.7-5.4s3.7,1.8,3.7,5.4-1.5,5.4-3.7,5.4-3.7-1.9-3.7-5.4ZM72.5,594.8c0-2.8-.6-3.5-1.3-3.5s-1.3.6-1.3,3.5.6,3.5,1.3,3.5,1.3-.7,1.3-3.5Z"/>
        </g>
        <g>
          <path class="cls-2" d="M62.1,620.2h3l3.2,10.4h-2.6l-.6-2.4h-3.1l-.6,2.4h-2.5l3.2-10.4ZM62.5,626.3h2.1l-.2-.9c-.3-1-.5-2.3-.8-3.3h0c-.3,1.1-.5,2.3-.8,3.3l-.2.9Z"/>
          <path class="cls-2" d="M69.2,628.6h2.2v-5.9h-1.9v-1.5c1.1-.2,1.8-.5,2.6-.9h1.8v8.4h1.9v2h-6.6v-2Z"/>
        </g>
        <g>
          <path class="cls-2" d="M63.3,650.7h3l3.2,10.4h-2.6l-.6-2.4h-3.1l-.6,2.4h-2.5l3.2-10.4ZM63.7,656.8h2.1l-.2-.9c-.3-1-.5-2.3-.8-3.3h0c-.3,1.1-.5,2.3-.8,3.3l-.2.9Z"/>
          <path class="cls-2" d="M70,659.6c2.7-2.3,4.4-4.2,4.4-5.6s-.5-1.5-1.4-1.5-1.3.5-1.8,1l-1.3-1.3c1-1.1,1.9-1.7,3.4-1.7s3.4,1.3,3.4,3.3-1.7,3.8-3.3,5.4c.5,0,1.2-.1,1.7-.1h2.1v2.1h-7.2v-1.5Z"/>
        </g>
        <g>
          <path class="cls-2" d="M64.5,681.2h3l3.2,10.4h-2.6l-.6-2.4h-3.1l-.6,2.4h-2.5l3.2-10.4ZM64.9,687.3h2.1l-.2-.9c-.3-1-.5-2.3-.8-3.3h0c-.3,1.1-.5,2.3-.8,3.3l-.2.9Z"/>
          <path class="cls-2" d="M71,690.4l1.1-1.6c.6.6,1.4,1,2.2,1s1.6-.4,1.6-1.2-.5-1.4-2.7-1.4v-1.8c1.8,0,2.3-.5,2.3-1.4s-.4-1.1-1.2-1.1-1.2.3-1.9.9l-1.2-1.5c.9-.8,2-1.3,3.2-1.3,2.2,0,3.6,1,3.6,2.9s-.6,1.8-1.7,2.3h0c1.2.4,2,1.2,2,2.6,0,2-1.8,3-3.8,3s-2.8-.6-3.6-1.4Z"/>
        </g>
        <g>
          <path class="cls-2" d="M65.8,711.7h3l3.2,10.4h-2.6l-.6-2.4h-3.1l-.6,2.4h-2.5l3.2-10.4ZM66.1,717.8h2.1l-.2-.9c-.3-1-.5-2.3-.8-3.3h0c-.3,1.1-.5,2.3-.8,3.3l-.2.9Z"/>
          <path class="cls-2" d="M76.5,719.5h-4.4v-1.7l3.6-6.1h3.1v5.9h1.2v1.9h-1.2v2.6h-2.3v-2.6ZM76.5,717.6v-1.5c0-.7,0-1.6,0-2.3h0c-.3.6-.5,1.2-.8,1.8l-1.2,2.1h2Z"/>
          <path class="cls-2" d="M83.7,710.7h1.6l-3.1,13.9h-1.6l3.1-13.9Z"/>
          <path class="cls-2" d="M86.3,720.8l1.3-1.6c.7.6,1.7,1,2.6,1s1.4-.4,1.4-.9-.6-.8-1.5-1.2l-1.3-.6c-1.1-.4-2.1-1.3-2.1-2.8s1.6-3.2,3.8-3.2,2.5.5,3.4,1.3l-1.3,1.6c-.7-.5-1.4-.8-2.1-.8s-1.3.3-1.3.8.7.8,1.6,1.2l1.3.5c1.3.5,2.1,1.4,2.1,2.8s-1.5,3.3-4,3.3-2.8-.5-3.9-1.5Z"/>
          <path class="cls-2" d="M95.9,711.7h3c3.2,0,5.3,1.6,5.3,5.2s-2.1,5.2-5.1,5.2h-3.1v-10.4ZM98.7,720.1c1.7,0,2.9-.8,2.9-3.2s-1.2-3.2-2.9-3.2h-.4v6.4h.4Z"/>
          <path class="cls-2" d="M107.8,711.7h3l3.2,10.4h-2.6l-.6-2.4h-3.1l-.6,2.4h-2.5l3.2-10.4ZM108.2,717.8h2.1l-.2-.9c-.3-1-.5-2.3-.8-3.3h0c-.3,1.1-.5,2.3-.8,3.3l-.2.9Z"/>
        </g>
        <g>
          <path class="cls-2" d="M67,739.1h3l3.2,10.4h-2.6l-.6-2.4h-3.1l-.6,2.4h-2.5l3.2-10.4ZM67.4,745.2h2.1l-.2-.9c-.3-1-.5-2.3-.8-3.3h0c-.3,1.1-.5,2.3-.8,3.3l-.2.9Z"/>
          <path class="cls-2" d="M73.4,748.3l1.1-1.6c.6.6,1.3,1,2.1,1s1.6-.6,1.6-1.6-.6-1.6-1.5-1.6-.9.1-1.5.5l-1.1-.7.3-5.2h5.8v2.1h-3.7v1.8c.2-.1.5-.2.9-.2,1.8,0,3.2,1,3.2,3.3s-1.8,3.7-3.8,3.7-2.8-.6-3.6-1.4Z"/>
          <path class="cls-2" d="M84.9,738.2h1.6l-3.1,13.9h-1.6l3.1-13.9Z"/>
          <path class="cls-2" d="M87.5,748.2l1.3-1.6c.7.6,1.7,1,2.6,1s1.4-.4,1.4-.9-.6-.8-1.5-1.2l-1.3-.6c-1.1-.4-2.1-1.3-2.1-2.8s1.6-3.2,3.8-3.2,2.5.5,3.4,1.3l-1.3,1.6c-.7-.5-1.4-.8-2.1-.8s-1.3.3-1.3.8.7.8,1.6,1.2l1.3.5c1.3.5,2.1,1.4,2.1,2.8s-1.5,3.3-4,3.3-2.8-.5-3.9-1.5Z"/>
          <path class="cls-2" d="M96.6,744.4c0-3.5,2.3-5.5,5-5.5s2.4.6,3.2,1.4l-1.3,1.5c-.5-.5-1.1-.7-1.8-.7-1.4,0-2.5,1.2-2.5,3.2s1,3.3,2.4,3.3,1.5-.3,2-.9l1.3,1.5c-.9,1-2.1,1.5-3.4,1.5-2.7,0-4.9-1.8-4.9-5.3Z"/>
          <path class="cls-2" d="M106.5,739.1h2.5v8.3h4v2.1h-6.5v-10.4Z"/>
        </g>
        <g>
          <path class="cls-2" d="M119.4,432.3v3.7c0,2.3-.8,4.2-3.4,4.2s-3.6-1.9-3.6-4.1v-1.2h-3.5v-2.5h10.4ZM114.5,435.9c0,1.2.6,1.8,1.6,1.8s1.4-.7,1.4-1.9v-1h-3v1.1Z"/>
          <path class="cls-2" d="M114.3,441.4c3.4,0,5.4,1.9,5.4,4.8s-2,4.8-5.4,4.8-5.4-1.9-5.4-4.8,2-4.8,5.4-4.8ZM114.3,448.4c2,0,3.2-.8,3.2-2.2s-1.2-2.2-3.2-2.2-3.3.9-3.3,2.2,1.3,2.2,3.3,2.2Z"/>
          <path class="cls-2" d="M119.4,451.9v2.5l-4.8.7c-1.1.1-2.2.3-3.3.4h0c1.1.3,2.2.5,3.3.7l4.8,1.1v2.1l-4.8,1.1c-1.1.2-2.2.4-3.3.6h0c1.2.2,2.3.3,3.3.4l4.8.7v2.4l-10.4-1.8v-3.2l4.6-.9c.8-.2,1.6-.3,2.5-.4h0c-.8-.2-1.6-.3-2.5-.5l-4.6-.9v-3.1l10.4-1.9Z"/>
          <path class="cls-2" d="M119.4,465.9v6.6h-2.1v-4.1h-2v3.5h-2.1v-3.5h-2.2v4.3h-2.1v-6.8h10.4Z"/>
          <path class="cls-2" d="M119.4,474.7v3.8c0,2.2-.8,4.1-3.3,4.1s-2.5-.7-3-1.8l-4.1,2.3v-2.8l3.7-1.9v-1.2h-3.7v-2.5h10.4ZM114.7,478.3c0,1.2.5,1.8,1.5,1.8s1.3-.6,1.3-1.8v-1.1h-2.8v1.1Z"/>
        </g>
        <g>
          <path class="cls-2" d="M119.4,634.6v3l-10.4,3.2v-2.6l2.4-.6v-3.1l-2.4-.6v-2.5l10.4,3.2ZM113.3,635v2.1l.9-.2c1-.3,2.3-.5,3.3-.8h0c-1.1-.3-2.3-.6-3.3-.9l-.9-.2Z"/>
          <path class="cls-2" d="M119.4,641.9v2.6l-5,2.6c-.7.4-1.5.7-2.4,1h0c1.1,0,2.6-.3,3.8-.3h3.5v2.4h-10.4v-2.6l5-2.6c.7-.4,1.5-.7,2.4-1h0c-1.2,0-2.6.3-3.8.3h-3.5v-2.4h10.4Z"/>
          <path class="cls-2" d="M119.4,654.5v3l-10.4,3.2v-2.6l2.4-.6v-3.1l-2.4-.6v-2.5l10.4,3.2ZM113.3,654.9v2.1l.9-.2c1-.3,2.3-.5,3.3-.8h0c-1.1-.3-2.3-.6-3.3-.9l-.9-.2Z"/>
          <path class="cls-2" d="M119.4,661.8v2.5h-8.3v4h-2.1v-6.5h10.4Z"/>
          <path class="cls-2" d="M114.3,669.1c3.4,0,5.4,1.9,5.4,4.8s-2,4.8-5.4,4.8-5.4-1.9-5.4-4.8,2-4.8,5.4-4.8ZM114.3,676.1c2,0,3.2-.8,3.2-2.2s-1.2-2.2-3.2-2.2-3.3.9-3.3,2.2,1.3,2.2,3.3,2.2Z"/>
          <path class="cls-2" d="M114.2,680.1c3.5,0,5.5,2.3,5.5,5.1s-.6,2.6-1.4,3.3l-1.5-1.3c.5-.5.7-1.1.7-1.9,0-1.5-1.2-2.7-3.2-2.7s-3.3.9-3.3,2.9,0,.8.3,1h1.7v-1.7h2v3.9h-4.9c-.7-.7-1.3-2-1.3-3.5,0-2.9,1.8-5.2,5.3-5.2Z"/>
          <path class="cls-2" d="M119.4,694v2.5h-10.4v-2.5h10.4Z"/>
          <path class="cls-2" d="M119.4,698.9v2.6l-5,2.6c-.7.4-1.5.7-2.4,1h0c1.1,0,2.6-.3,3.8-.3h3.5v2.4h-10.4v-2.6l5-2.6c.7-.4,1.5-.7,2.4-1h0c-1.2,0-2.6.3-3.8.3h-3.5v-2.4h10.4Z"/>
        </g>
        <rect class="cls-28" x="123.7" y="590" width="4.5" height="159.9" rx="2.3" ry="2.3"/>
        <rect class="cls-28" x="123.7" y="363.4" width="4.5" height="187.7" rx="2.3" ry="2.3"/>
        <g>
          <g>
            <polygon class="cls-27" points="292.3 739.9 288.6 739.9 288.6 739.9 285 739.9 276.5 748.4 276.5 781.5 285 789.9 288.6 789.9 288.6 789.9 292.3 789.9 300.7 781.5 300.7 748.4 292.3 739.9"/>
            <g>
              <rect class="cls-19" x="285.5" y="749.5" width="6.2" height="6.2"/>
              <rect class="cls-19" x="285.5" y="774.1" width="6.2" height="6.2"/>
            </g>
          </g>
          <g>
            <polygon class="cls-27" points="316.5 739.9 312.8 739.9 312.8 739.9 309.2 739.9 300.7 748.4 300.7 781.5 309.2 789.9 312.8 789.9 312.8 789.9 316.5 789.9 324.9 781.5 324.9 748.4 316.5 739.9"/>
            <g>
              <rect class="cls-19" x="309.7" y="749.5" width="6.2" height="6.2"/>
              <rect class="cls-19" x="309.7" y="774.1" width="6.2" height="6.2"/>
            </g>
          </g>
          <g>
            <polygon class="cls-27" points="340.7 739.9 337.1 739.9 337 739.9 333.4 739.9 324.9 748.4 324.9 781.5 333.4 789.9 337 789.9 337.1 789.9 340.7 789.9 349.1 781.5 349.1 748.4 340.7 739.9"/>
            <g>
              <rect class="cls-19" x="333.9" y="749.5" width="6.2" height="6.2"/>
              <rect class="cls-19" x="333.9" y="774.1" width="6.2" height="6.2"/>
            </g>
          </g>
        </g>
        <path class="cls-28" d="M270.5,728.5c-1.3,0-2.3,1-2.3,2.3v58.5c0,1.3,1,2.3,2.3,2.3h0c1.3,0,2.3-1,2.3-2.3v-53.9c0-1.3,1-2.3,2.3-2.3h75.6c1.3,0,2.3,1,2.3,2.3v53.9c0,1.3,1,2.3,2.3,2.3h0c1.3,0,2.3-1,2.3-2.3v-58.5c0-1.3-1-2.3-2.3-2.3h-84.7Z"/>
        <rect class="cls-28" x="465.1" y="353.8" width="4.5" height="394.7" rx="2.3" ry="2.3"/>
        <g>
          <path class="cls-2" d="M486.5,495.4v3c0,3.2-1.6,5.3-5.2,5.3s-5.2-2.1-5.2-5.1v-3.1h10.4ZM478.1,498.3c0,1.7.8,2.9,3.2,2.9s3.2-1.2,3.2-2.9v-.4h-6.4v.4Z"/>
          <path class="cls-2" d="M486.5,505.6v2.5h-10.4v-2.5h10.4Z"/>
          <path class="cls-2" d="M481.2,510c3.5,0,5.5,2.3,5.5,5.1s-.6,2.6-1.4,3.3l-1.5-1.3c.5-.5.7-1.1.7-1.9,0-1.5-1.2-2.7-3.2-2.7s-3.3.9-3.3,2.9,0,.8.3,1h1.7v-1.7h2v3.9h-4.9c-.7-.7-1.3-2-1.3-3.5,0-2.9,1.8-5.2,5.3-5.2Z"/>
          <path class="cls-2" d="M486.5,520.8v2.5h-10.4v-2.5h10.4Z"/>
          <path class="cls-2" d="M484.4,527.7v-2.8h2.1v8.1h-2.1v-2.8h-8.3v-2.5h8.3Z"/>
          <path class="cls-2" d="M486.5,535.9v3l-10.4,3.2v-2.6l2.4-.6v-3.1l-2.4-.6v-2.5l10.4,3.2ZM480.4,536.3v2.1l.9-.2c1-.3,2.3-.5,3.3-.8h0c-1.1-.3-2.3-.6-3.3-.9l-.9-.2Z"/>
          <path class="cls-2" d="M486.5,543.2v2.5h-8.3v4h-2.1v-6.5h10.4Z"/>
          <path class="cls-2" d="M480.5,554.7c2.8,0,5.1.8,7.3,2.1l-.6,1.6c-2.1-1.2-4.4-1.7-6.7-1.7s-4.6.5-6.7,1.7l-.6-1.6c2.2-1.3,4.5-2.1,7.3-2.1Z"/>
          <path class="cls-2" d="M486.5,560.3v3.7c0,2.3-.8,4.2-3.4,4.2s-3.6-1.9-3.6-4.1v-1.2h-3.5v-2.5h10.4ZM481.5,563.9c0,1.2.6,1.8,1.6,1.8s1.4-.7,1.4-1.9v-1h-3v1.1Z"/>
          <path class="cls-2" d="M486.5,568.9v2.5l-4.8.7c-1.1.1-2.2.3-3.3.4h0c1.1.3,2.2.5,3.3.7l4.8,1.1v2.1l-4.8,1.1c-1.1.2-2.2.4-3.3.6h0c1.2.2,2.3.3,3.3.4l4.8.7v2.4l-10.4-1.8v-3.2l4.6-.9c.8-.2,1.6-.3,2.5-.4h0c-.8-.2-1.6-.3-2.5-.5l-4.6-.9v-3.1l10.4-1.9Z"/>
          <path class="cls-2" d="M486.5,583v2.7l-4.5,1.6c-.6.2-1.2.4-1.9.6h0c.7.3,1.3.4,1.9.6l4.5,1.6v2.7h-10.4v-2.3h3.6c1,0,2.8.2,3.8.3h0c0,0-2.7-.9-2.7-.9l-3.8-1.4v-1.4l3.8-1.4,2.7-.8h0c-1,0-2.8.3-3.8.3h-3.6v-2.2h10.4Z"/>
          <path class="cls-2" d="M481.1,596.9c0-.4-.4-.8-.9-1.1l1-1.3c1.2.8,1.7,1.6,1.7,2.4,0,1.3-1.2,1.9-1.2,2.8s.4.8.9,1.1l-1,1.3c-1.2-.8-1.7-1.6-1.7-2.4,0-1.3,1.2-1.9,1.2-2.8Z"/>
          <path class="cls-2" d="M473.8,603.3c2.1,1.2,4.4,1.7,6.7,1.7s4.6-.5,6.7-1.7l.6,1.6c-2.2,1.3-4.5,2.1-7.3,2.1s-5.1-.8-7.3-2.1l.6-1.6Z"/>
        </g>
        <g>
          <rect class="cls-11" x="559" y="523.8" width="33.4" height="240.9"/>
          <rect x="565.9" y="526.5" width="19.6" height="19.6"/>
          <rect x="565.9" y="557" width="19.6" height="19.6"/>
          <rect x="565.9" y="587.5" width="19.6" height="19.6"/>
          <rect x="565.9" y="618" width="19.6" height="19.6"/>
          <rect x="565.9" y="648.6" width="19.6" height="19.6"/>
          <rect x="565.9" y="679.1" width="19.6" height="19.6"/>
          <rect x="565.9" y="709.6" width="19.6" height="19.6"/>
          <rect x="565.9" y="740.1" width="19.6" height="19.6"/>
        </g>
        <g>
          <rect class="cls-11" x="559" y="220.6" width="33.4" height="301.1"/>
          <rect x="565.9" y="285.2" width="19.6" height="19.6"/>
          <rect x="565.9" y="315.8" width="19.6" height="19.6"/>
          <rect x="565.9" y="346.3" width="19.6" height="19.6"/>
          <rect x="565.9" y="376.8" width="19.6" height="19.6"/>
          <rect x="565.9" y="407.3" width="19.6" height="19.6"/>
          <rect x="565.9" y="437.8" width="19.6" height="19.6"/>
          <rect x="565.9" y="468.3" width="19.6" height="19.6"/>
          <rect x="565.9" y="498.8" width="19.6" height="19.6"/>
          <rect x="565.9" y="254.7" width="19.6" height="19.6"/>
          <rect x="565.9" y="224.5" width="19.6" height="19.6"/>
        </g>
        <g>
          <g>
            <path class="cls-2" d="M508.7,229.5h3l3.2,10.4h-2.6l-.6-2.4h-3.1l-.6,2.4h-2.5l3.2-10.4ZM509.1,235.6h2.1l-.2-.9c-.3-1-.5-2.3-.8-3.3h0c-.3,1.1-.5,2.3-.8,3.3l-.2.9Z"/>
            <path class="cls-2" d="M515.2,238.7l1.1-1.6c.6.6,1.3,1,2.1,1s1.6-.6,1.6-1.6-.6-1.6-1.5-1.6-.9.1-1.5.5l-1.1-.7.3-5.2h5.8v2.1h-3.7v1.8c.2-.1.5-.2.9-.2,1.8,0,3.2,1,3.2,3.3s-1.8,3.7-3.8,3.7-2.8-.6-3.6-1.4Z"/>
            <path class="cls-2" d="M526.7,228.5h1.6l-3.1,13.9h-1.6l3.1-13.9Z"/>
            <path class="cls-2" d="M529.3,238.6l1.3-1.6c.7.6,1.7,1,2.6,1s1.4-.4,1.4-.9-.6-.8-1.5-1.2l-1.3-.6c-1.1-.4-2.1-1.3-2.1-2.8s1.6-3.2,3.8-3.2,2.5.5,3.4,1.3l-1.3,1.6c-.7-.5-1.4-.8-2.1-.8s-1.3.3-1.3.8.7.8,1.6,1.2l1.3.5c1.3.5,2.1,1.4,2.1,2.8s-1.5,3.3-4,3.3-2.8-.5-3.9-1.5Z"/>
            <path class="cls-2" d="M538.4,234.8c0-3.5,2.3-5.5,5-5.5s2.4.6,3.2,1.4l-1.3,1.5c-.5-.5-1.1-.7-1.8-.7-1.4,0-2.5,1.2-2.5,3.2s1,3.3,2.4,3.3,1.5-.3,2-.9l1.3,1.5c-.9,1-2.1,1.5-3.4,1.5-2.7,0-4.9-1.8-4.9-5.3Z"/>
            <path class="cls-2" d="M548.2,229.5h2.5v8.3h4v2.1h-6.5v-10.4Z"/>
          </g>
          <g>
            <path class="cls-2" d="M506.6,259.7h3l3.2,10.4h-2.6l-.6-2.4h-3.1l-.6,2.4h-2.5l3.2-10.4ZM507,265.8h2.1l-.2-.9c-.3-1-.5-2.3-.8-3.3h0c-.3,1.1-.5,2.3-.8,3.3l-.2.9Z"/>
            <path class="cls-2" d="M517.4,267.6h-4.4v-1.7l3.6-6.1h3.1v5.9h1.2v1.9h-1.2v2.6h-2.3v-2.6ZM517.4,265.7v-1.5c0-.7,0-1.6,0-2.3h0c-.3.6-.5,1.2-.8,1.8l-1.2,2.1h2Z"/>
            <path class="cls-2" d="M524.5,258.8h1.6l-3.1,13.9h-1.6l3.1-13.9Z"/>
            <path class="cls-2" d="M527.1,268.8l1.3-1.6c.7.6,1.7,1,2.6,1s1.4-.4,1.4-.9-.6-.8-1.5-1.2l-1.3-.6c-1.1-.4-2.1-1.3-2.1-2.8s1.6-3.2,3.8-3.2,2.5.5,3.4,1.3l-1.3,1.6c-.7-.5-1.4-.8-2.1-.8s-1.3.3-1.3.8.7.8,1.6,1.2l1.3.5c1.3.5,2.1,1.4,2.1,2.8s-1.5,3.3-4,3.3-2.8-.5-3.9-1.5Z"/>
            <path class="cls-2" d="M536.7,259.7h3c3.2,0,5.3,1.6,5.3,5.2s-2.1,5.2-5.1,5.2h-3.1v-10.4ZM539.6,268.1c1.7,0,2.9-.8,2.9-3.2s-1.2-3.2-2.9-3.2h-.4v6.4h.4Z"/>
            <path class="cls-2" d="M548.7,259.7h3l3.2,10.4h-2.6l-.6-2.4h-3.1l-.6,2.4h-2.5l3.2-10.4ZM549.1,265.8h2.1l-.2-.9c-.3-1-.5-2.3-.8-3.3h0c-.3,1.1-.5,2.3-.8,3.3l-.2.9Z"/>
          </g>
          <g>
            <path class="cls-2" d="M521,290.2h3l3.2,10.4h-2.6l-.6-2.4h-3.1l-.6,2.4h-2.5l3.2-10.4ZM521.3,296.3h2.1l-.2-.9c-.3-1-.5-2.3-.8-3.3h0c-.3,1.1-.5,2.3-.8,3.3l-.2.9Z"/>
            <path class="cls-2" d="M528.3,290.2h3.8c2.2,0,4.1.8,4.1,3.3s-.7,2.5-1.8,3l2.3,4.1h-2.8l-1.9-3.7h-1.2v3.7h-2.5v-10.4ZM531.9,295c1.2,0,1.8-.5,1.8-1.5s-.6-1.3-1.8-1.3h-1.1v2.8h1.1Z"/>
            <path class="cls-2" d="M538.1,290.2h6.6v2.1h-4.1v2h3.5v2.1h-3.5v2.2h4.3v2.1h-6.8v-10.4Z"/>
            <path class="cls-2" d="M546.9,290.2h6.7v2.1h-4.2v2.3h3.6v2.1h-3.6v4h-2.5v-10.4Z"/>
          </g>
          <g>
            <path class="cls-2" d="M523.2,326c0-3.5,2.3-5.5,5.1-5.5s2.6.6,3.3,1.4l-1.3,1.5c-.5-.5-1.1-.7-1.9-.7-1.5,0-2.7,1.2-2.7,3.2s.9,3.3,2.9,3.3.8,0,1-.3v-1.7h-1.7v-2h3.9v4.9c-.7.7-2,1.3-3.5,1.3-2.9,0-5.2-1.8-5.2-5.3Z"/>
            <path class="cls-2" d="M534,320.8h2.6l2.6,5c.4.7.7,1.5,1,2.4h0c-.1-1.1-.3-2.6-.3-3.8v-3.5h2.4v10.4h-2.6l-2.6-5c-.4-.7-.7-1.5-1-2.4h0c.1,1.2.3,2.6.3,3.8v3.5h-2.4v-10.4Z"/>
            <path class="cls-2" d="M544.6,320.8h3c3.2,0,5.3,1.6,5.3,5.2s-2.1,5.2-5.1,5.2h-3.1v-10.4ZM547.5,329.2c1.7,0,2.9-.8,2.9-3.2s-1.2-3.2-2.9-3.2h-.4v6.4h.4Z"/>
          </g>
          <g>
            <path class="cls-2" d="M495.2,359.7h2.2v-5.9h-1.9v-1.5c1.1-.2,1.8-.5,2.6-.9h1.8v8.4h1.9v2h-6.6v-2Z"/>
            <path class="cls-2" d="M503,360.4l1.1-1.6c.6.6,1.4,1,2.2,1s1.6-.4,1.6-1.2-.5-1.4-2.7-1.4v-1.8c1.8,0,2.3-.5,2.3-1.4s-.4-1.1-1.2-1.1-1.2.3-1.9.9l-1.2-1.5c.9-.8,2-1.3,3.2-1.3,2.2,0,3.6,1,3.6,2.9s-.6,1.8-1.7,2.3h0c1.2.4,2,1.2,2,2.6,0,2-1.8,3-3.8,3s-2.8-.6-3.6-1.4Z"/>
            <path class="cls-2" d="M514.5,350.3h1.6l-3.1,13.9h-1.6l3.1-13.9Z"/>
            <path class="cls-2" d="M517.1,360.4l1.3-1.6c.7.6,1.7,1,2.6,1s1.4-.4,1.4-.9-.6-.8-1.5-1.2l-1.3-.6c-1.1-.4-2.1-1.3-2.1-2.8s1.6-3.2,3.8-3.2,2.5.5,3.4,1.3l-1.3,1.6c-.7-.5-1.4-.8-2.1-.8s-1.3.3-1.3.8.7.8,1.6,1.2l1.3.5c1.3.5,2.1,1.4,2.1,2.8s-1.5,3.3-4,3.3-2.8-.5-3.9-1.5Z"/>
            <path class="cls-2" d="M526.2,356.5c0-3.5,2.3-5.5,5-5.5s2.4.6,3.2,1.4l-1.3,1.5c-.5-.5-1.1-.7-1.8-.7-1.4,0-2.5,1.2-2.5,3.2s1,3.3,2.4,3.3,1.5-.3,2-.9l1.3,1.5c-.9,1-2.1,1.5-3.4,1.5-2.7,0-4.9-1.8-4.9-5.3Z"/>
            <path class="cls-2" d="M536,351.3h2.5v8.3h4v2.1h-6.5v-10.4Z"/>
            <path class="cls-2" d="M544.3,351.3h2.5v4.1h0l3-4.1h2.7l-3.1,4.2,3.7,6.2h-2.7l-2.5-4.3-1.1,1.5v2.7h-2.5v-10.4Z"/>
          </g>
          <g>
            <path class="cls-2" d="M494.1,390.2h2.2v-5.9h-1.9v-1.5c1.1-.2,1.8-.5,2.6-.9h1.8v8.4h1.9v2h-6.6v-2Z"/>
            <path class="cls-2" d="M502.1,390.7c2.7-2.3,4.4-4.2,4.4-5.6s-.5-1.5-1.4-1.5-1.3.5-1.8,1l-1.3-1.3c1-1.1,1.9-1.7,3.4-1.7s3.4,1.3,3.4,3.3-1.7,3.8-3.3,5.4c.5,0,1.2-.1,1.7-.1h2.1v2.1h-7.2v-1.5Z"/>
            <path class="cls-2" d="M513.3,380.8h1.6l-3.1,13.9h-1.6l3.1-13.9Z"/>
            <path class="cls-2" d="M516.6,381.8h2.7l1.6,4.5c.2.6.4,1.2.6,1.9h0c.2-.7.4-1.3.6-1.9l1.6-4.5h2.7v10.4h-2.3v-3.6c0-1,.2-2.8.3-3.8h0l-.9,2.7-1.4,3.8h-1.4l-1.4-3.8-.8-2.7h0c.1,1,.3,2.8.3,3.8v3.6h-2.2v-10.4Z"/>
            <path class="cls-2" d="M528.8,381.8h2.5v10.4h-2.5v-10.4Z"/>
            <path class="cls-2" d="M533.1,390.9l1.3-1.6c.7.6,1.7,1,2.6,1s1.4-.4,1.4-.9-.6-.8-1.5-1.2l-1.3-.6c-1.1-.4-2.1-1.3-2.1-2.8s1.6-3.2,3.8-3.2,2.5.5,3.4,1.3l-1.3,1.6c-.7-.5-1.4-.8-2.1-.8s-1.3.3-1.3.8.7.8,1.6,1.2l1.3.5c1.3.5,2.1,1.4,2.1,2.8s-1.5,3.3-4,3.3-2.8-.5-3.9-1.5Z"/>
            <path class="cls-2" d="M542.2,386.9c0-3.4,1.9-5.4,4.8-5.4s4.8,2,4.8,5.4-1.9,5.4-4.8,5.4-4.8-2-4.8-5.4ZM549.2,386.9c0-2-.8-3.2-2.2-3.2s-2.2,1.2-2.2,3.2.9,3.3,2.2,3.3,2.2-1.3,2.2-3.3Z"/>
          </g>
          <g>
            <path class="cls-2" d="M486.8,417.7c-.4,0-.8.4-1.1.9l-1.3-1c.8-1.2,1.6-1.7,2.4-1.7,1.3,0,1.9,1.2,2.8,1.2s.8-.4,1.1-.9l1.3,1c-.8,1.2-1.6,1.7-2.4,1.7-1.3,0-1.9-1.2-2.8-1.2Z"/>
            <path class="cls-2" d="M493.5,420.7h2.2v-5.9h-1.9v-1.5c1.1-.2,1.8-.5,2.6-.9h1.8v8.4h1.9v2h-6.6v-2Z"/>
            <path class="cls-2" d="M502,420.7h2.2v-5.9h-1.9v-1.5c1.1-.2,1.8-.5,2.6-.9h1.8v8.4h1.9v2h-6.6v-2Z"/>
            <path class="cls-2" d="M512.7,411.3h1.6l-3.1,13.9h-1.6l3.1-13.9Z"/>
            <path class="cls-2" d="M516,412.3h2.7l1.6,4.5c.2.6.4,1.2.6,1.9h0c.2-.7.4-1.3.6-1.9l1.6-4.5h2.7v10.4h-2.3v-3.6c0-1,.2-2.8.3-3.8h0l-.9,2.7-1.4,3.8h-1.4l-1.4-3.8-.8-2.7h0c.1,1,.3,2.8.3,3.8v3.6h-2.2v-10.4Z"/>
            <path class="cls-2" d="M527.8,417.5c0-3.4,1.9-5.4,4.8-5.4s4.8,2,4.8,5.4-1.9,5.4-4.8,5.4-4.8-2-4.8-5.4ZM534.8,417.5c0-2-.8-3.2-2.2-3.2s-2.2,1.2-2.2,3.2.9,3.3,2.2,3.3,2.2-1.3,2.2-3.3Z"/>
            <path class="cls-2" d="M538.6,421.4l1.3-1.6c.7.6,1.7,1,2.6,1s1.4-.4,1.4-.9-.6-.8-1.5-1.2l-1.3-.6c-1.1-.4-2.1-1.3-2.1-2.8s1.6-3.2,3.8-3.2,2.5.5,3.4,1.3l-1.3,1.6c-.7-.5-1.4-.8-2.1-.8s-1.3.3-1.3.8.7.8,1.6,1.2l1.3.5c1.3.5,2.1,1.4,2.1,2.8s-1.5,3.3-4,3.3-2.8-.5-3.9-1.5Z"/>
            <path class="cls-2" d="M548.2,412.3h2.5v10.4h-2.5v-10.4Z"/>
          </g>
          <g>
            <path class="cls-2" d="M528.6,448.2c-.4,0-.8.4-1.1.9l-1.3-1c.8-1.2,1.6-1.7,2.4-1.7,1.3,0,1.9,1.2,2.8,1.2s.8-.4,1.1-.9l1.3,1c-.8,1.2-1.6,1.7-2.4,1.7-1.3,0-1.9-1.2-2.8-1.2Z"/>
            <path class="cls-2" d="M535.4,451.2h2.2v-5.9h-1.9v-1.5c1.1-.2,1.8-.5,2.6-.9h1.8v8.4h1.9v2h-6.6v-2Z"/>
            <path class="cls-2" d="M543.4,448c0-3.6,1.5-5.4,3.7-5.4s3.7,1.8,3.7,5.4-1.5,5.4-3.7,5.4-3.7-1.9-3.7-5.4ZM548.4,448c0-2.8-.6-3.5-1.3-3.5s-1.3.6-1.3,3.5.6,3.5,1.3,3.5,1.3-.7,1.3-3.5Z"/>
          </g>
          <g>
            <path class="cls-2" d="M536.6,478.7c-.4,0-.8.4-1.1.9l-1.3-1c.8-1.2,1.6-1.7,2.4-1.7,1.3,0,1.9,1.2,2.8,1.2s.8-.4,1.1-.9l1.3,1c-.8,1.2-1.6,1.7-2.4,1.7-1.3,0-1.9-1.2-2.8-1.2Z"/>
            <path class="cls-2" d="M542.9,482.7l1.3-1.5c.3.4,1,.7,1.6.7,1.1,0,1.9-.8,2-3-.5.7-1.4,1-2,1-1.7,0-3-1-3-3.3s1.6-3.5,3.4-3.5,3.9,1.5,3.9,5.3-2,5.5-4.1,5.5-2.4-.6-3.1-1.2ZM546.3,478.2c.5,0,1.1-.3,1.5-.9-.2-1.8-.8-2.3-1.5-2.3s-1.2.5-1.2,1.7.5,1.5,1.2,1.5Z"/>
          </g>
          <path class="cls-2" d="M542.3,511.7c0-1.3.7-2.1,1.7-2.6h0c-.8-.7-1.4-1.5-1.4-2.6,0-1.7,1.4-2.8,3.3-2.8s3.1,1.1,3.1,2.8-.6,1.8-1.3,2.3h0c1,.6,1.8,1.5,1.8,2.9s-1.5,2.8-3.6,2.8-3.6-1.1-3.6-2.8ZM547.2,511.5c0-.9-.8-1.3-2.1-1.9-.4.4-.7,1-.7,1.7s.7,1.4,1.5,1.4,1.3-.4,1.3-1.2ZM547.1,506.6c0-.8-.4-1.2-1.2-1.2s-1.1.4-1.1,1.1.6,1.3,1.7,1.7c.4-.5.6-1,.6-1.5Z"/>
          <path class="cls-2" d="M546.3,533.6h-4.5v-2.1h7.1v1.5c-2.4,2.9-2.7,4.8-2.8,8.9h-2.5c.2-3.4.7-5.6,2.7-8.3Z"/>
          <g>
            <path class="cls-2" d="M534.8,567.4c-.4,0-.8.4-1.1.9l-1.3-1c.8-1.2,1.6-1.7,2.4-1.7,1.3,0,1.9,1.2,2.8,1.2s.8-.4,1.1-.9l1.3,1c-.8,1.2-1.6,1.7-2.4,1.7-1.3,0-1.9-1.2-2.8-1.2Z"/>
            <path class="cls-2" d="M541.1,567.3c0-3.8,2-5.5,4.1-5.5s2.4.6,3,1.2l-1.3,1.5c-.4-.4-1-.7-1.6-.7-1.1,0-1.9.8-2,3,.5-.6,1.4-1,2-1,1.7,0,3,1,3,3.3s-1.6,3.5-3.4,3.5-3.9-1.5-3.9-5.3ZM543.5,568.5c.2,1.7.9,2.2,1.5,2.2s1.2-.5,1.2-1.7-.6-1.5-1.3-1.5-1.1.3-1.5,1Z"/>
          </g>
          <g>
            <path class="cls-2" d="M534.3,597.9c-.4,0-.8.4-1.1.9l-1.3-1c.8-1.2,1.6-1.7,2.4-1.7,1.3,0,1.9,1.2,2.8,1.2s.8-.4,1.1-.9l1.3,1c-.8,1.2-1.6,1.7-2.4,1.7-1.3,0-1.9-1.2-2.8-1.2Z"/>
            <path class="cls-2" d="M540.3,601.7l1.1-1.6c.6.6,1.3,1,2.1,1s1.6-.6,1.6-1.6-.6-1.6-1.5-1.6-.9.1-1.5.5l-1.1-.7.3-5.2h5.8v2.1h-3.7v1.8c.2-.1.5-.2.9-.2,1.8,0,3.2,1,3.2,3.3s-1.8,3.7-3.8,3.7-2.8-.6-3.6-1.4Z"/>
          </g>
          <path class="cls-2" d="M544,630.9h-4.4v-1.7l3.6-6.1h3.1v5.9h1.2v1.9h-1.2v2.6h-2.3v-2.6ZM544,629v-1.5c0-.7,0-1.6,0-2.3h0c-.3.6-.5,1.2-.8,1.8l-1.2,2.1h2Z"/>
          <g>
            <path class="cls-2" d="M533.1,659c-.4,0-.8.4-1.1.9l-1.3-1c.8-1.2,1.6-1.7,2.4-1.7,1.3,0,1.9,1.2,2.8,1.2s.8-.4,1.1-.9l1.3,1c-.8,1.2-1.6,1.7-2.4,1.7-1.3,0-1.9-1.2-2.8-1.2Z"/>
            <path class="cls-2" d="M539.1,662.7l1.1-1.6c.6.6,1.4,1,2.2,1s1.6-.4,1.6-1.2-.5-1.4-2.7-1.4v-1.8c1.8,0,2.3-.5,2.3-1.4s-.4-1.1-1.2-1.1-1.2.3-1.9.9l-1.2-1.5c.9-.8,2-1.3,3.2-1.3,2.2,0,3.6,1,3.6,2.9s-.6,1.8-1.7,2.3h0c1.2.4,2,1.2,2,2.6,0,2-1.8,3-3.8,3s-2.8-.6-3.6-1.4Z"/>
          </g>
          <path class="cls-2" d="M538.8,692.9c2.7-2.3,4.4-4.2,4.4-5.6s-.5-1.5-1.4-1.5-1.3.5-1.8,1l-1.3-1.3c1-1.1,1.9-1.7,3.4-1.7s3.4,1.3,3.4,3.3-1.7,3.8-3.3,5.4c.5,0,1.2-.1,1.7-.1h2.1v2.1h-7.2v-1.5Z"/>
          <g>
            <path class="cls-2" d="M509,717.6h-2.8v-2.1h8.1v2.1h-2.8v8.3h-2.5v-8.3Z"/>
            <path class="cls-2" d="M517.5,720.5l-2.7-5.1h2.8l.8,1.9c.2.5.5,1,.8,1.7h0c.2-.7.5-1.2.7-1.7l.8-1.9h2.6l-2.7,5.2,2.9,5.2h-2.8l-1-2c-.3-.5-.5-1.1-.8-1.7h0c-.2.6-.5,1.2-.7,1.7l-.9,2h-2.7l2.9-5.4Z"/>
            <path class="cls-2" d="M537.3,720.6l-5,5c-.4.4-1,.4-1.4,0s-.4-1,0-1.4l3.3-3.3h-9.6c-.6,0-1-.4-1-1s.4-1,1-1h9.6l-3.3-3.3c-.4-.4-.4-1,0-1.4s1-.4,1.4,0l5,5c.4.4.4,1,0,1.4h0Z"/>
            <path class="cls-2" d="M538.7,723.9h2.2v-5.9h-1.9v-1.5c1.1-.2,1.8-.5,2.6-.9h1.8v8.4h1.9v2h-6.6v-2Z"/>
          </g>
          <g>
            <path class="cls-2" d="M505.3,746h3.8c2.2,0,4.1.8,4.1,3.3s-.7,2.5-1.8,3l2.3,4.1h-2.8l-1.9-3.7h-1.2v3.7h-2.5v-10.4ZM508.9,750.8c1.2,0,1.8-.5,1.8-1.5s-.6-1.3-1.8-1.3h-1.1v2.8h1.1Z"/>
            <path class="cls-2" d="M516.9,751l-2.7-5.1h2.8l.8,1.9c.2.5.5,1,.8,1.7h0c.2-.7.5-1.2.7-1.7l.8-1.9h2.6l-2.7,5.2,2.9,5.2h-2.8l-1-2c-.3-.5-.5-1.1-.8-1.7h0c-.2.6-.5,1.2-.7,1.7l-.9,2h-2.7l2.9-5.4Z"/>
            <path class="cls-2" d="M523.3,749.7l5-5c.4-.4,1-.4,1.4,0s.4,1,0,1.4l-3.3,3.3h9.6c.6,0,1,.4,1,1s-.4,1-1,1h-9.6l3.3,3.3c.4.4.4,1,0,1.4s-1,.4-1.4,0l-5-5c-.4-.4-.4-1,0-1.4h0Z"/>
            <path class="cls-2" d="M537.6,751.2c0-3.6,1.5-5.4,3.7-5.4s3.7,1.8,3.7,5.4-1.5,5.4-3.7,5.4-3.7-1.9-3.7-5.4ZM542.6,751.2c0-2.8-.6-3.5-1.3-3.5s-1.3.6-1.3,3.5.6,3.5,1.3,3.5,1.3-.7,1.3-3.5Z"/>
          </g>
        </g>
        <g>
          <rect class="cls-6" x="396.2" y="331.2" width="10.7" height="17.2"/>
          <rect class="cls-14" x="396.2" y="333.7" width="10.7" height="11.8"/>
        </g>
      </g>
      <g id="layer1-8">
        <rect id="rect815-5" x="639.3" y="45.5" width="193.9" height="258.3"/>
        <rect id="rect821-0" class="cls-2" x="685.2" y="261.4" width="100.9" height="34.7"/>
        <path id="rect825-6" class="cls-24" d="M691.8,263.4h20.2c3.5,0,6.4,2.9,6.4,6.4v17.7c0,3.5-2.9,6.4-6.4,6.4h-20.2c-3.5,0-6.4-2.9-6.4-6.4v-17.7c0-3.5,2.9-6.4,6.4-6.4h0Z"/>
        <path id="rect872-7" class="cls-24" d="M759.2,263.4h20.2c3.5,0,6.4,2.9,6.4,6.4v17.7c0,3.5-2.9,6.4-6.4,6.4h-20.2c-3.5,0-6.4-2.9-6.4-6.4v-17.7c0-3.5,2.9-6.4,6.4-6.4h0Z"/>
        <rect id="rect874-8" class="cls-24" x="719.1" y="263.4" width="33" height="30.5" rx="5.6" ry="5.6"/>
        <rect id="rect947-4" class="cls-17" x="700" y="280" width="3.7" height="63.7"/>
        <rect id="rect949-6" class="cls-17" x="733.9" y="280" width="3.7" height="63.7"/>
        <rect id="rect951-5" class="cls-17" x="767.4" y="280" width="3.7" height="63.7"/>
        <rect id="rect87-2" x="666.6" y="224.9" width="138.1" height="34.7"/>
        <path id="path31-1-38" class="cls-2" d="M694.4,64.9c1.2,0,1.3,0,1.6-.2.2,0,.3-.2.4-.4.1-.2.1-.4.2-2.8v-2.6s2.6,0,2.6,0h2.6v3.3c0,3.6,0,3.9-.4,4.8-.4,1.2-1.4,2-2.7,2.1-.8.1-1.6.2-2.3.1-1,0-2.1,0-2.5,0h-.6c0,0,0-2.2,0-2.2v-2.1s1.3,0,1.3,0h0ZM718.8,72.1c21.9,0,27.2,0,26.3.1h-.1s.1,0,.1,0c.1,0,0,0-.1,0-.2,0,0,0,.2,0h.5s-.5,0-.5,0c-.2,0-.4,0-.3,0,.1,0,.1.1.1.6s0,.6.2.6c.1,0,.1,0-.1,0-.2,0-.3,0-.3,0s-8.7,0-25.9,0h-25.9v-1.9h25.7ZM699.1,52.2h2.6v4.2h-5.2v-4.2h2.6ZM704.3,60c.2-1.1.5-2.2,1-3.2.1-.2.2-.4.4-.7.1-.1.2-.3.3-.4.3-.5.6-.9,1-1.3,0,0,0,0,0-.1.3-.4.7-.7,1.2-1,.6-.4,1.2-.7,1.9-1,1-.4,2-.6,3.1-.5.6,0,1.2,0,1.8.2.4.1.8.3,1,.3.1,0,.3.1.4.1.2,0,.4.2.6.3,1.5,1,2.7,2.4,3.6,4.1,1,2,1.1,4.4.4,6.5-.2.7-.6,1.4-.9,2-.4.7-.9,1.3-1.5,1.8-1,1.1-2.3,1.8-3.7,2.1-1.1.2-2.2.3-3.3.2-1.3-.2-2.5-.7-3.5-1.5-.4-.3-.8-.6-1.1-1-.1-.1-.2-.3-.4-.4-1.1-1.2-1.8-2.7-2.2-4.3-.1-.8-.2-1.7-.2-2.5h0ZM709.3,62.1c.3,1,.8,1.9,1.5,2.5.8.8,2,1,3.1.7,1.4-.6,2.4-1.8,2.7-3.2.2-1,.2-1.9,0-2.9-.3-1.1-.9-2-1.8-2.7-.3-.2-.6-.4-1-.4-.8-.2-1.6,0-2.4.2-.7.5-1.3,1.1-1.7,1.9-.6,1.2-.8,2.6-.4,3.9h0ZM723.8,52.2s1.2,0,2.6,0h2.5s0,2.3,0,2.3c0,2.2,0,2.3.2,2.7.4,1,1.6,1.5,2.6,1.2.5-.2.9-.5,1.2-1l.2-.4v-2.4s0-2.4,0-2.4h5.2v2.7c0,1.1,0,2.2-.2,3.3-.3,1-.7,1.9-1.3,2.7-.1.1-.2.2-.3.4-.4.4-.8.8-1.2,1.1-.5.4-1,.6-1.5.8-.1,0-.5.1-.8.2-.6.2-1.2.2-1.8.2-.7,0-1.3,0-2-.2-.7-.2-1.4-.5-2-.9-.8-.5-1.5-1.2-2-2-.7-1-1.1-2.1-1.2-3.3-.1-1.7,0-3.3,0-5h0ZM731,64.9h4.2v4.3h-8.4v-4.3h4.2ZM738.2,48.9s0-.1,0-.3c0-.3,0-.3.3-.3.2,0,7.3,0,15.9,0h15.6s0,.9,0,.9v.9h-15.9c-8.7,0-15.9,0-15.9,0,0,0-.1-.2-.1-.6s0-.6,0-.6h0ZM745.3,59.3h5.4v4.3h-10.7v-4.3h5.4ZM755,52.2h2.6v4.2h-5.2v-4.2h2.6ZM755,58.6h2.6v10.9h-5.2v-10.9h2.6ZM765.2,52.2h5.4v4.2h-10.8v-4.2h5.4ZM760.7,58.9s1.2,0,2.5,0h2.5s0,2.5,0,2.5c0,3.5-.1,3.3,2.5,3.3h1.7v4.4h-.6c-1.6.2-3.1.2-4.7,0-1.1,0-2.1-.6-2.9-1.4-.6-.8-1-1.7-1.1-2.7,0-.8,0-6.1,0-6.2h0ZM773.7,50.1c.1-.4.3-.8.7-1.1,1-1,2.6-1.1,3.7-.3.4.2.7.6.9,1,.2.4.2.7.2,1.1,0,.4,0,.8-.2,1.2-.5.9-1.3,1.5-2.4,1.6-.9,0-1.7-.2-2.3-.9-.7-.7-.9-1.7-.7-2.6h0ZM774.2,51.9c.4.7,1,1.1,1.7,1.3.8.2,1.6,0,2.2-.6.2-.2.4-.4.5-.7.2-.3.3-.7.2-1.1,0-.4,0-.7-.2-1.1-.1-.3-.4-.6-.7-.8-.2-.2-.5-.3-.8-.4-1.2-.4-2.5.2-3.1,1.4-.2.6-.1,1.3,0,1.9h0ZM776.1,49.2c.4,0,.8,0,1.1,0,.5.3.6.9.3,1.3-.1.1-.2.2-.4.3h-.2c0,0,.2.3.2.3.2.2.3.4.5.6,0,.1.2.3.3.4.1,0,0,.2-.2.2h-.3s-.4-.7-.4-.7c-.4-.7-.6-.8-1.1-.8h-.3v1.5h-.2s-.2,0-.2,0v-1.6s0-1.6,0-1.6h1ZM776.2,50.6c.5,0,.6,0,.8-.1.4-.3.2-.8-.4-.9-.3,0-.7,0-1,0,0,.2,0,.3,0,.5v.5h.6Z"/>
        <circle id="path84-7" class="cls-18" cx="667.3" cy="80.4" r="19.4"/>
        <circle id="circle86-3" class="cls-18" cx="805" cy="80.4" r="19.4"/>
        <circle id="path88-4" class="cls-3" cx="667.3" cy="80.4" r="17.2"/>
        <circle id="circle90-8" class="cls-3" cx="805" cy="80.4" r="17.2"/>
        <g id="text72" class="cls-15">
          <g class="cls-15">
            <g class="cls-15">
              <path class="cls-2" d="M658.5,191.7c0,0,.1,0,.2,0,0,0,.1,0,.1.2,0,0,0,.2,0,.4,0,.2,0,.3,0,.6s0,.6,0,.8,0,.3-.1.4c0,0-.2.2-.2.2l-8.6,6.4h8.6c0,0,.1,0,.2,0,0,0,.1,0,.1.2s0,.2,0,.4c0,.1,0,.3,0,.6s0,.4,0,.5c0,.2,0,.3,0,.4,0,0,0,.2-.1.2,0,0-.1,0-.2,0h-16.6c0,0-.1,0-.2,0,0,0,0,0-.1-.2,0,0,0-.2,0-.4,0-.2,0-.3,0-.5s0-.4,0-.6c0-.1,0-.3,0-.4s0-.2.1-.2c0,0,.1,0,.2,0h7.7l-7.7-6.1c0,0-.1-.1-.2-.2s0-.2-.1-.3c0-.1,0-.2,0-.4,0-.1,0-.3,0-.6s0-.4,0-.6,0-.3,0-.3c0,0,0-.1.1-.2,0,0,.1,0,.2,0,.1,0,.2,0,.3,0s.3.2.5.3l6.8,5.7,8.2-6.2c.2-.2.4-.2.5-.3,0,0,.2,0,.2,0Z"/>
            </g>
            <g class="cls-15">
              <path class="cls-2" d="M652.1,183.2h6.4c0,0,.1,0,.2,0,0,0,0,0,.1.2s0,.2,0,.4c0,.2,0,.3,0,.5s0,.4,0,.6c0,.1,0,.3,0,.4,0,0,0,.2-.1.2,0,0-.1,0-.2,0h-6.4l-9.7,4.9c-.2,0-.4.2-.5.2-.1,0-.2,0-.3,0s-.1-.2-.1-.4,0-.4,0-.7,0-.5,0-.6c0-.2,0-.3,0-.4,0,0,0-.2.1-.2s.1,0,.2-.1l5-2.4c.5-.2,1-.4,1.5-.7.5-.2,1-.4,1.6-.7h0c-.5-.2-1-.4-1.5-.7-.5-.2-1-.4-1.5-.7l-5-2.4c0,0-.2,0-.2-.1,0,0-.1-.1-.1-.2s0-.2,0-.4c0-.2,0-.3,0-.6s0-.6,0-.8c0-.2,0-.3.1-.4,0,0,.2,0,.3,0,.1,0,.3,0,.5.2l9.7,4.9Z"/>
            </g>
            <g class="cls-15">
              <path class="cls-2" d="M652.1,171.8c.3,0,.6,0,.7.1s.2.2.2.3v5.6c0,.2,0,.3-.2.4-.1,0-.4.1-.7.1s-.6,0-.7-.1c-.1,0-.2-.2-.2-.4v-5.6c0,0,0-.1,0-.2,0,0,0-.1.2-.1s.2,0,.3,0c.1,0,.3,0,.4,0Z"/>
              <path class="cls-2" d="M650.2,158c1.3,0,2.5.1,3.6.3,1.1.2,2,.6,2.8,1,.8.5,1.4,1.1,1.8,1.9.4.8.6,1.7.6,2.9s-.2,2-.6,2.7c-.4.7-1,1.3-1.7,1.8-.8.5-1.7.8-2.8,1-1.1.2-2.4.3-3.8.3s-2.5-.1-3.6-.3c-1.1-.2-2-.6-2.8-1s-1.4-1.1-1.8-1.9c-.4-.8-.6-1.7-.6-2.9s.2-2,.6-2.8c.4-.7,1-1.3,1.7-1.8s1.7-.8,2.8-1c1.1-.2,2.4-.3,3.8-.3ZM650.3,160.3c-.9,0-1.6,0-2.3,0-.7,0-1.3.2-1.8.3-.5.1-1,.3-1.4.5-.4.2-.7.4-.9.7-.2.3-.4.6-.5.9-.1.3-.2.7-.2,1.2,0,.8.2,1.4.5,1.8.4.5.8.8,1.5,1.1s1.4.5,2.2.6c.8,0,1.7.1,2.7.1s2.4,0,3.3-.2c.9-.1,1.6-.3,2.2-.6s1-.7,1.2-1.1c.3-.4.4-1,.4-1.6s0-.9-.2-1.3c-.2-.4-.4-.7-.7-1-.3-.3-.7-.5-1.1-.7-.4-.2-.9-.3-1.4-.4-.5-.1-1.1-.2-1.6-.2s-1.2,0-1.8,0Z"/>
              <path class="cls-2" d="M657.9,144.7c.2,0,.3,0,.4,0,.1,0,.2,0,.3.1,0,0,.1,0,.2.2,0,0,0,.1,0,.2v9c0,0,0,.1,0,.2,0,0,0,.1-.2.2s-.2,0-.3.1-.3,0-.4,0-.3,0-.4,0-.2,0-.3-.1c0,0-.1,0-.2-.1,0,0,0-.1,0-.2v-3.6h-13.1l2,3.3c0,.2.1.3.2.4,0,.1,0,.2,0,.2,0,0-.2.1-.3.1-.1,0-.3,0-.5,0s-.3,0-.4,0c-.1,0-.2,0-.3,0,0,0-.1,0-.2-.1,0,0-.1-.1-.2-.2l-2.5-4s0,0,0-.1c0,0,0-.1,0-.2,0,0,0-.2,0-.3,0-.1,0-.2,0-.4s0-.4,0-.5c0-.1,0-.3,0-.3s0-.1.1-.2.1,0,.2,0h15.2v-3.1c0,0,0-.1,0-.2,0,0,0-.1.2-.2,0,0,.2,0,.3,0,.1,0,.3,0,.4,0Z"/>
              <path class="cls-2" d="M657.8,130.9c.2,0,.3,0,.4,0,.1,0,.2,0,.3,0,0,0,.1,0,.2.2,0,0,0,.1,0,.2v9.5c0,.1,0,.2,0,.3,0,0,0,.2-.2.2,0,0-.2.1-.3.1-.1,0-.3,0-.5,0s-.3,0-.5,0c-.1,0-.3,0-.4,0-.1,0-.2-.1-.3-.2s-.2-.2-.3-.3l-3.5-3.5c-.8-.8-1.6-1.4-2.2-1.9s-1.2-.9-1.8-1.1c-.5-.3-1-.4-1.5-.5-.4,0-.8-.1-1.2-.1s-.7,0-1.1.2c-.3.1-.6.3-.9.6-.3.2-.5.5-.6.9-.2.4-.2.8-.2,1.3s0,1.1.2,1.5c.2.4.3.8.5,1.2.2.3.3.6.5.8.2.2.2.4.2.5s0,.1,0,.2c0,0,0,0-.2.1,0,0-.2,0-.3,0-.1,0-.3,0-.5,0s-.2,0-.3,0c0,0-.2,0-.3,0,0,0-.1,0-.2,0,0,0-.1-.1-.2-.2,0-.1-.2-.3-.4-.6-.2-.3-.3-.6-.5-1-.2-.4-.3-.8-.4-1.3-.1-.5-.2-1-.2-1.5,0-.8.1-1.6.4-2.2.2-.6.6-1.1,1-1.6s.9-.7,1.4-.9c.5-.2,1.1-.3,1.7-.3s1.1,0,1.6.1c.5,0,1.1.3,1.8.6.6.3,1.3.8,2.1,1.4s1.7,1.4,2.7,2.4l2.9,2.7v-7.5c0,0,0-.1,0-.2,0,0,.1-.1.2-.2s.2,0,.3-.1c.1,0,.3,0,.4,0Z"/>
            </g>
          </g>
        </g>
        <g id="text76" class="cls-15">
          <g class="cls-15">
            <path class="cls-2" d="M686.7,116.1c0,.2,0,.3,0,.4,0,.1,0,.2-.1.3,0,0,0,.1-.2.2,0,0-.1,0-.2,0h-4.4v4.9c0,0,0,.1,0,.2,0,0,0,0-.2.1,0,0-.2,0-.3,0-.1,0-.3,0-.5,0s-.3,0-.5,0c-.1,0-.2,0-.3,0,0,0-.1,0-.2-.1,0,0,0-.1,0-.2v-4.9h-4.4c0,0-.1,0-.2,0,0,0-.1,0-.2-.2,0,0,0-.2-.1-.3,0-.1,0-.3,0-.4s0-.3,0-.4c0-.1,0-.2.1-.3,0,0,0-.1.2-.2s.1,0,.2,0h4.4v-4.9c0,0,0-.1,0-.2,0,0,0-.1.2-.1,0,0,.2,0,.3,0,.1,0,.3,0,.5,0s.3,0,.5,0c.1,0,.2,0,.3,0,0,0,.1,0,.2.1,0,0,0,.1,0,.2v4.9h4.4c0,0,.1,0,.2,0s.1,0,.2.2,0,.2.1.3c0,.1,0,.3,0,.4Z"/>
          </g>
        </g>
        <g id="text82" class="cls-15">
          <g class="cls-15">
            <path class="cls-2" d="M792.6,117c0,.3,0,.6-.2.7-.1.1-.3.2-.5.2h-8.4c-.2,0-.4,0-.5-.2-.1-.1-.2-.4-.2-.7s0-.6.2-.7c.1-.1.3-.2.5-.2h8.4c.1,0,.2,0,.3,0,0,0,.2,0,.2.2,0,0,.1.2.1.3,0,.1,0,.3,0,.4Z"/>
          </g>
        </g>
        <circle id="path92-8" class="cls-16" cx="736.2" cy="173.8" r="75.3"/>
        <circle id="path94-7" class="cls-18" cx="736.2" cy="173.8" r="21.5"/>
        <g id="text88" class="cls-15">
          <g class="cls-15">
            <path class="cls-2" d="M808.5,278.6c0,.3,0,.6-.3.7s-.5.2-.8.2h-13.2c-.4,0-.7,0-.9-.2-.2-.1-.3-.4-.3-.7s0-.6.3-.7c.2-.1.5-.2.9-.2h13.2c.2,0,.3,0,.5,0,.1,0,.3,0,.3.2,0,0,.2.2.2.3,0,.1,0,.3,0,.4Z"/>
          </g>
        </g>
        <g id="text96" class="cls-15">
          <g class="cls-15">
            <path class="cls-2" d="M675.6,281.3c0,.8-.1,1.5-.4,2.2-.3.6-.7,1.2-1.2,1.6s-1.2.8-1.9,1c-.7.2-1.5.3-2.3.3s-1.1,0-1.6-.1c-.5,0-.9-.2-1.3-.4-.4-.1-.7-.3-1-.4s-.4-.3-.5-.4c-.1-.1-.2-.2-.2-.4,0-.2,0-.4,0-.7s0-.4,0-.5c0-.1,0-.2,0-.3,0,0,0-.1.1-.2s.1,0,.2,0c.1,0,.3,0,.5.2.2.2.5.3.9.5.4.2.8.3,1.3.5.5.2,1.1.2,1.7.2s1,0,1.4-.2c.4-.1.8-.3,1.1-.6.3-.2.5-.5.7-.9.2-.4.2-.8.2-1.2s-.1-.9-.3-1.3c-.2-.3-.5-.7-.9-.9-.4-.3-.8-.5-1.2-.7-.5-.2-.9-.4-1.4-.7s-1-.5-1.4-.8-.9-.6-1.2-1c-.4-.4-.7-.8-.9-1.3s-.3-1.1-.3-1.8.1-1.4.4-1.9c.3-.6.6-1,1.1-1.4.5-.4,1-.7,1.7-.9.6-.2,1.3-.3,2.1-.3s.8,0,1.2,0c.4,0,.8.2,1.1.3.3.1.6.2.9.4.3.1.4.2.5.3,0,0,.1.2.2.2,0,0,0,.1,0,.2,0,0,0,.2,0,.3,0,.1,0,.2,0,.4s0,.3,0,.4c0,.1,0,.2,0,.3,0,0,0,.1-.1.2s-.1,0-.2,0c0,0-.3,0-.5-.2-.2-.1-.5-.3-.8-.4-.3-.2-.7-.3-1.1-.4-.4-.1-.9-.2-1.4-.2s-.9,0-1.3.2c-.4.1-.6.3-.9.5-.2.2-.4.5-.5.8-.1.3-.2.6-.2.9,0,.5.1.9.3,1.2.2.3.5.7.9.9.4.3.8.5,1.3.7.5.2,1,.4,1.4.7.5.2,1,.5,1.4.7.5.3.9.6,1.3,1s.7.8.9,1.3c.2.5.3,1.1.3,1.8Z"/>
          </g>
        </g>
      </g>
      <rect id="rect840" class="cls-13" x="696.2" y="321.2" width="11.3" height="40.6"/>
      <rect id="rect829" class="cls-7" x="763.6" y="321.2" width="11.3" height="215.2"/>
      <circle id="path1063" class="cls-13" cx="701.9" cy="321.2" r="9.4"/>
      <circle id="circle1065" class="cls-7" cx="769.3" cy="321.2" r="9.4"/>
      <rect class="cls-7" x="20.3" y="525" width="754.6" height="11.4"/>
      <rect class="cls-7" x="20.3" y="498" width="11.4" height="38.4"/>
      <circle id="circle281" class="cls-7" cx="26.1" cy="499.8" r="11.6" transform="translate(-474.1 517.8) rotate(-89.1)"/>
      <rect id="rect849" class="cls-13" x="574.2" y="350.5" width="133.3" height="11.3"/>
      <circle id="circle281-2" class="cls-13" cx="576.1" cy="355.6" r="11.6"/>
    </g>
  </g>
</svg>