<?xml version="1.0" encoding="utf-8"?>
<!-- Generator: Adobe Illustrator 27.8.0, SVG Export Plug-In . SVG Version: 6.00 Build 0)  -->
<svg version="1.1"
	 id="Ebene_1" xmlns:svg="http://www.w3.org/2000/svg" xmlns:rdf="http://www.w3.org/1999/02/22-rdf-syntax-ns#" xmlns:sodipodi="http://sodipodi.sourceforge.net/DTD/sodipodi-0.dtd" xmlns:dc="http://purl.org/dc/elements/1.1/" xmlns:inkscape="http://www.inkscape.org/namespaces/inkscape" xmlns:cc="http://creativecommons.org/ns#" inkscape:version="0.92.4 (5da689c313, 2019-01-14)"
	 xmlns="http://www.w3.org/2000/svg" xmlns:xlink="http://www.w3.org/1999/xlink" x="0px" y="0px" viewBox="0 0 461.6 811.8"
	 style="enable-background:new 0 0 461.6 811.8;" xml:space="preserve">
<style type="text/css">
	.st0{fill:#02814B;}
	.st1{fill:#D4C547;}
	.st2{fill:#525035;}
	.st3{fill:#FEE86F;}
	.st4{fill:#FFE17B;}
	.st5{fill:#DDDDDD;}
	.st6{fill:#7F7F7F;}
	.st7{fill:#474544;}
	.st8{fill:#E2EADE;}
	.st9{fill:#C29148;}
	.st10{fill:#8DDDDE;}
	.st11{fill:#C1C1C1;}
	.st12{fill:#C2BFAB;}
	.st13{fill:none;stroke:#95AC6E;stroke-miterlimit:10;}
	.st14{fill:#E8D28A;}
	.st15{fill:#CECECE;}
	.st16{fill:#FFFFFF;}
	.st17{fill:#36323E;}
	.st18{fill:#868C97;}
	.st19{fill:#FCFCFA;}
	.st20{fill:#141316;}
	.st21{fill:#B9A68F;}
	.st22{fill:#E0B45B;}
	.st23{fill:#ABA28E;}
	.st24{fill:none;stroke:#FFFFFF;stroke-miterlimit:10;}
	.st25{fill:#915114;}
	.st26{fill:#010101;}
	.st27{fill:#1B1B1B;}
	.st28{opacity:0.99;fill:#808181;enable-background:new    ;}
	.st29{opacity:0.99;fill:#CDCCCC;enable-background:new    ;}
	.st30{opacity:0.99;fill:#FFFFFF;enable-background:new    ;}
	.st31{enable-background:new    ;}
	.st32{opacity:0.99;fill:#343434;enable-background:new    ;}
	.st33{fill:#25AF88;}
	.st34{fill:#22AE87;}
</style>
<g>
	<path class="st0" d="M243.3,229.8v-11.9H0.2v11.9c2.3,0.9,3.9,3.1,3.9,5.7s-1.6,4.8-3.9,5.7v18.1c2.3,0.9,3.9,3.1,3.9,5.7
		s-1.6,4.8-3.9,5.7v18.1c2.3,0.9,3.9,3.1,3.9,5.7s-1.6,4.8-3.9,5.7v18.1c2.3,0.9,3.9,3.1,3.9,5.7s-1.6,4.8-3.9,5.7v18.1
		c2.3,0.9,3.9,3.1,3.9,5.7s-1.6,4.8-3.9,5.7v18.1c2.3,0.9,3.9,3.1,3.9,5.7s-1.6,4.8-3.9,5.7v18.1c2.3,0.9,3.9,3.1,3.9,5.7
		s-1.6,4.8-3.9,5.7v18.1c2.3,0.9,3.9,3.1,3.9,5.7s-1.6,4.8-3.9,5.7v18.1c2.3,0.9,3.9,3.1,3.9,5.7s-1.6,4.8-3.9,5.7v18.1
		c2.3,0.9,3.9,3.1,3.9,5.7s-1.6,4.8-3.9,5.7v18.1c2.3,0.9,3.9,3.1,3.9,5.7s-1.6,4.8-3.9,5.7v18.1c2.3,0.9,3.9,3.1,3.9,5.7
		s-1.6,4.8-3.9,5.7v18.1c2.3,0.9,3.9,3.1,3.9,5.7s-1.6,4.8-3.9,5.7v18.1c2.3,0.9,3.9,3.1,3.9,5.7s-1.6,4.8-3.9,5.7v18.1
		c2.3,0.9,3.9,3.1,3.9,5.7s-1.6,4.8-3.9,5.7v18.1c2.3,0.9,3.9,3.1,3.9,5.7s-1.6,4.8-3.9,5.7v18.1c2.3,0.9,3.9,3.1,3.9,5.7
		s-1.6,4.8-3.9,5.7v18.1c2.3,0.9,3.9,3.1,3.9,5.7s-1.6,4.8-3.9,5.7v18c2.3,0.9,3.9,3.1,3.9,5.7s-1.6,4.8-3.9,5.7v18.1
		c2.3,0.9,3.9,3.1,3.9,5.7s-1.6,4.8-3.9,5.7v11.9h78.5h7.5h11.3h18.5h11.3H146h11.3h4h82v-11.9c-2.2-0.9-3.8-3.1-3.8-5.7
		s1.6-4.8,3.8-5.7v-18.1c-2.2-0.9-3.8-3.1-3.8-5.7s1.6-4.8,3.8-5.7v-18.1c-2.2-0.9-3.8-3.1-3.8-5.7s1.6-4.8,3.8-5.7v-18.1
		c-2.2-0.9-3.8-3.1-3.8-5.7s1.6-4.8,3.8-5.7V682c-2.2-0.9-3.8-3.1-3.8-5.7s1.6-4.8,3.8-5.7v-18.1c-2.2-0.9-3.8-3.1-3.8-5.7
		s1.6-4.8,3.8-5.7v-18.1c-2.2-0.9-3.8-3.1-3.8-5.7s1.6-4.8,3.8-5.7v-18.1c-2.2-0.9-3.8-3.1-3.8-5.7s1.6-4.8,3.8-5.7v-18.1
		c-2.2-0.9-3.8-3.1-3.8-5.7s1.6-4.8,3.8-5.7V535c-2.2-0.9-3.8-3.1-3.8-5.7s1.6-4.8,3.8-5.7v-18.1c-2.2-0.9-3.8-3.1-3.8-5.7
		s1.6-4.8,3.8-5.7v-18.1c-2.2-0.9-3.8-3.1-3.8-5.7s1.6-4.8,3.8-5.7v-18.1c-2.2-0.9-3.8-3.1-3.8-5.7s1.6-4.8,3.8-5.7v-18.1
		c-2.2-0.9-3.8-3.1-3.8-5.7s1.6-4.8,3.8-5.7V388c-2.2-0.9-3.8-3.1-3.8-5.7s1.6-4.8,3.8-5.7v-18.1c-2.2-0.9-3.8-3.1-3.8-5.7
		s1.6-4.8,3.8-5.7v-18.1c-2.2-0.9-3.8-3.1-3.8-5.7s1.6-4.8,3.8-5.7v-18.1c-2.2-0.9-3.8-3.1-3.8-5.7s1.6-4.8,3.8-5.7v-18.1
		c-2.2-0.9-3.8-3.1-3.8-5.7s1.6-4.8,3.8-5.7v-18.1c-2.2-0.9-3.8-3.1-3.8-5.7S241.1,230.7,243.3,229.8z M15.8,800
		c-3.4,0-6.1-2.7-6.1-6.1s2.7-6.1,6.1-6.1s6.1,2.7,6.1,6.1S19.2,800,15.8,800z M15.8,770.6c-3.4,0-6.1-2.7-6.1-6.1s2.7-6.1,6.1-6.1
		s6.1,2.7,6.1,6.1S19.2,770.6,15.8,770.6z M15.8,741.2c-3.4,0-6.1-2.7-6.1-6.1s2.7-6.1,6.1-6.1s6.1,2.7,6.1,6.1
		S19.2,741.2,15.8,741.2z M15.8,711.8c-3.4,0-6.1-2.7-6.1-6.1s2.7-6.1,6.1-6.1s6.1,2.7,6.1,6.1S19.2,711.8,15.8,711.8z M15.8,682.4
		c-3.4,0-6.1-2.7-6.1-6.1s2.7-6.1,6.1-6.1s6.1,2.7,6.1,6.1S19.2,682.4,15.8,682.4z M15.8,653c-3.4,0-6.1-2.7-6.1-6.1
		s2.7-6.1,6.1-6.1s6.1,2.7,6.1,6.1S19.2,653,15.8,653z M15.8,623.6c-3.4,0-6.1-2.7-6.1-6.1s2.7-6.1,6.1-6.1s6.1,2.7,6.1,6.1
		S19.2,623.6,15.8,623.6z M15.8,594.2c-3.4,0-6.1-2.7-6.1-6.1s2.7-6.1,6.1-6.1s6.1,2.7,6.1,6.1S19.2,594.2,15.8,594.2z M15.8,564.8
		c-3.4,0-6.1-2.7-6.1-6.1s2.7-6.1,6.1-6.1s6.1,2.7,6.1,6.1S19.2,564.8,15.8,564.8z M15.8,535.5c-3.4,0-6.1-2.7-6.1-6.1
		s2.7-6.1,6.1-6.1s6.1,2.7,6.1,6.1S19.2,535.5,15.8,535.5z M15.8,506.1c-3.4,0-6.1-2.7-6.1-6.1s2.7-6.1,6.1-6.1s6.1,2.7,6.1,6.1
		S19.2,506.1,15.8,506.1z M15.8,476.7c-3.4,0-6.1-2.7-6.1-6.1s2.7-6.1,6.1-6.1s6.1,2.7,6.1,6.1S19.2,476.7,15.8,476.7z M15.8,447.3
		c-3.4,0-6.1-2.7-6.1-6.1s2.7-6.1,6.1-6.1s6.1,2.7,6.1,6.1S19.2,447.3,15.8,447.3z M15.8,417.9c-3.4,0-6.1-2.7-6.1-6.1
		s2.7-6.1,6.1-6.1s6.1,2.7,6.1,6.1S19.2,417.9,15.8,417.9z M15.8,388.5c-3.4,0-6.1-2.7-6.1-6.1s2.7-6.1,6.1-6.1s6.1,2.7,6.1,6.1
		S19.2,388.5,15.8,388.5z M15.8,359.1c-3.4,0-6.1-2.7-6.1-6.1s2.7-6.1,6.1-6.1s6.1,2.7,6.1,6.1S19.2,359.1,15.8,359.1z M15.8,329.7
		c-3.4,0-6.1-2.7-6.1-6.1s2.7-6.1,6.1-6.1c3.4,0,6.1,2.7,6.1,6.1S19.2,329.7,15.8,329.7z M15.8,300.3c-3.4,0-6.1-2.7-6.1-6.1
		s2.7-6.1,6.1-6.1s6.1,2.7,6.1,6.1S19.2,300.3,15.8,300.3z M15.8,270.9c-3.4,0-6.1-2.7-6.1-6.1s2.7-6.1,6.1-6.1s6.1,2.7,6.1,6.1
		S19.2,270.9,15.8,270.9z M15.8,241.5c-3.4,0-6.1-2.7-6.1-6.1s2.7-6.1,6.1-6.1s6.1,2.7,6.1,6.1S19.2,241.5,15.8,241.5z M53.7,800
		c-6.7,0-12.1-5.4-12.1-12.1s5.4-12.1,12.1-12.1c6.7,0,12.1,5.4,12.1,12.1S60.4,800,53.7,800z M53.7,252.8
		c-6.7,0-12.1-5.4-12.1-12.1c0-6.7,5.4-12.1,12.1-12.1c6.7,0,12.1,5.4,12.1,12.1C65.8,247.4,60.4,252.8,53.7,252.8z M127.6,586
		c-3.1,0-5.7-2.6-5.7-5.7s2.6-5.7,5.7-5.7c3.1,0,5.7,2.6,5.7,5.7S130.7,586,127.6,586z M157,586c-3.1,0-5.7-2.6-5.7-5.7
		s2.6-5.7,5.7-5.7c3.1,0,5.7,2.6,5.7,5.7S160.2,586,157,586z M186.2,228.6c6.7,0,12.1,5.4,12.1,12.1c0,6.7-5.4,12.1-12.1,12.1
		s-12.1-5.4-12.1-12.1C174.1,234,179.6,228.6,186.2,228.6z M192.5,580.3c0,3.1-2.6,5.7-5.7,5.7c-3.1,0-5.7-2.6-5.7-5.7
		s2.6-5.7,5.7-5.7C190,574.6,192.5,577.2,192.5,580.3z M188.2,800c-6.7,0-12.1-5.4-12.1-12.1s5.4-12.1,12.1-12.1s12.1,5.4,12.1,12.1
		S194.9,800,188.2,800z M227.8,800c-3.4,0-6.1-2.7-6.1-6.1s2.7-6.1,6.1-6.1s6.1,2.7,6.1,6.1S231.2,800,227.8,800z M227.8,770.6
		c-3.4,0-6.1-2.7-6.1-6.1s2.7-6.1,6.1-6.1s6.1,2.7,6.1,6.1S231.2,770.6,227.8,770.6z M227.8,741.2c-3.4,0-6.1-2.7-6.1-6.1
		s2.7-6.1,6.1-6.1s6.1,2.7,6.1,6.1S231.2,741.2,227.8,741.2z M227.8,711.8c-3.4,0-6.1-2.7-6.1-6.1s2.7-6.1,6.1-6.1s6.1,2.7,6.1,6.1
		S231.2,711.8,227.8,711.8z M227.8,682.4c-3.4,0-6.1-2.7-6.1-6.1s2.7-6.1,6.1-6.1s6.1,2.7,6.1,6.1S231.2,682.4,227.8,682.4z
		 M227.8,653c-3.4,0-6.1-2.7-6.1-6.1s2.7-6.1,6.1-6.1s6.1,2.7,6.1,6.1S231.2,653,227.8,653z M227.8,623.6c-3.4,0-6.1-2.7-6.1-6.1
		s2.7-6.1,6.1-6.1s6.1,2.7,6.1,6.1S231.2,623.6,227.8,623.6z M227.8,594.2c-3.4,0-6.1-2.7-6.1-6.1s2.7-6.1,6.1-6.1s6.1,2.7,6.1,6.1
		S231.2,594.2,227.8,594.2z M227.8,564.8c-3.4,0-6.1-2.7-6.1-6.1s2.7-6.1,6.1-6.1s6.1,2.7,6.1,6.1S231.2,564.8,227.8,564.8z
		 M227.8,535.5c-3.4,0-6.1-2.7-6.1-6.1s2.7-6.1,6.1-6.1s6.1,2.7,6.1,6.1S231.2,535.5,227.8,535.5z M227.8,506.1
		c-3.4,0-6.1-2.7-6.1-6.1s2.7-6.1,6.1-6.1s6.1,2.7,6.1,6.1S231.2,506.1,227.8,506.1z M227.8,476.7c-3.4,0-6.1-2.7-6.1-6.1
		s2.7-6.1,6.1-6.1s6.1,2.7,6.1,6.1S231.2,476.7,227.8,476.7z M227.8,447.3c-3.4,0-6.1-2.7-6.1-6.1s2.7-6.1,6.1-6.1s6.1,2.7,6.1,6.1
		S231.2,447.3,227.8,447.3z M227.8,417.9c-3.4,0-6.1-2.7-6.1-6.1s2.7-6.1,6.1-6.1s6.1,2.7,6.1,6.1S231.2,417.9,227.8,417.9z
		 M227.8,388.5c-3.4,0-6.1-2.7-6.1-6.1s2.7-6.1,6.1-6.1s6.1,2.7,6.1,6.1S231.2,388.5,227.8,388.5z M227.8,359.1
		c-3.4,0-6.1-2.7-6.1-6.1s2.7-6.1,6.1-6.1s6.1,2.7,6.1,6.1S231.2,359.1,227.8,359.1z M227.8,329.7c-3.4,0-6.1-2.7-6.1-6.1
		s2.7-6.1,6.1-6.1s6.1,2.7,6.1,6.1S231.2,329.7,227.8,329.7z M227.8,300.3c-3.4,0-6.1-2.7-6.1-6.1s2.7-6.1,6.1-6.1s6.1,2.7,6.1,6.1
		S231.2,300.3,227.8,300.3z M227.8,270.9c-3.4,0-6.1-2.7-6.1-6.1s2.7-6.1,6.1-6.1s6.1,2.7,6.1,6.1S231.2,270.9,227.8,270.9z
		 M227.8,241.5c-3.4,0-6.1-2.7-6.1-6.1s2.7-6.1,6.1-6.1s6.1,2.7,6.1,6.1S231.2,241.5,227.8,241.5z"/>
	<path class="st1" d="M53.7,220.2c-11.3,0-20.5,9.2-20.5,20.5c0,11.3,9.2,20.5,20.5,20.5s20.5-9.2,20.5-20.5
		C74.3,229.4,65.1,220.2,53.7,220.2z M53.7,252.8c-6.7,0-12.1-5.4-12.1-12.1c0-6.7,5.4-12.1,12.1-12.1c6.7,0,12.1,5.4,12.1,12.1
		C65.8,247.4,60.4,252.8,53.7,252.8z"/>
	<path class="st1" d="M186.3,220.2c-11.3,0-20.5,9.2-20.5,20.5c0,11.3,9.2,20.5,20.5,20.5c11.3,0,20.5-9.2,20.5-20.5
		C206.8,229.4,197.6,220.2,186.3,220.2z M186.3,252.8c-6.7,0-12.1-5.4-12.1-12.1c0-6.7,5.4-12.1,12.1-12.1c6.7,0,12.1,5.4,12.1,12.1
		C198.4,247.4,193,252.8,186.3,252.8z"/>
	<path class="st1" d="M53.7,767.3c-11.3,0-20.5,9.2-20.5,20.5s9.2,20.5,20.5,20.5s20.5-9.2,20.5-20.5S65.1,767.3,53.7,767.3z
		 M53.7,800c-6.7,0-12.1-5.4-12.1-12.1s5.4-12.1,12.1-12.1c6.7,0,12.1,5.4,12.1,12.1S60.4,800,53.7,800z"/>
	<path class="st1" d="M188.3,767.3c-11.3,0-20.5,9.2-20.5,20.5s9.2,20.5,20.5,20.5c11.3,0,20.5-9.2,20.5-20.5
		S199.6,767.3,188.3,767.3z M188.3,800c-6.7,0-12.1-5.4-12.1-12.1s5.4-12.1,12.1-12.1c6.7,0,12.1,5.4,12.1,12.1S195,800,188.3,800z"
		/>
	<circle class="st2" cx="55" cy="305.4" r="10.6"/>
	<circle class="st3" cx="55" cy="305.4" r="5.5"/>
	<path class="st4" d="M17.5,285.2H0.3v3.4c2.3,0.9,3.9,3.1,3.9,5.7s-1.6,4.8-3.9,5.7v3.4h17.2c5,0,9-4,9-9v0
		C26.5,289.2,22.4,285.2,17.5,285.2z M15.9,300.3c-3.4,0-6.1-2.7-6.1-6.1s2.7-6.1,6.1-6.1s6.1,2.7,6.1,6.1S19.2,300.3,15.9,300.3z"
		/>
	<path class="st4" d="M17.5,432.2H0.3v3.4c2.3,0.9,3.9,3.1,3.9,5.7s-1.6,4.8-3.9,5.7v3.4h17.2c5,0,9-4,9-9S22.4,432.2,17.5,432.2z
		 M15.9,447.3c-3.4,0-6.1-2.7-6.1-6.1s2.7-6.1,6.1-6.1s6.1,2.7,6.1,6.1S19.2,447.3,15.9,447.3z"/>
	<path class="st4" d="M17.5,579.2H0.3v3.4c2.3,0.9,3.9,3.1,3.9,5.7s-1.6,4.8-3.9,5.7v3.4h17.2c5,0,9-4,9-9S22.4,579.2,17.5,579.2z
		 M15.9,594.3c-3.4,0-6.1-2.7-6.1-6.1s2.7-6.1,6.1-6.1s6.1,2.7,6.1,6.1S19.2,594.3,15.9,594.3z"/>
	<path class="st4" d="M17.5,608.6H0.3v3.4c2.3,0.9,3.9,3.1,3.9,5.7s-1.6,4.8-3.9,5.7v3.4h17.2c5,0,9-4,9-9S22.4,608.6,17.5,608.6z
		 M15.9,623.7c-3.4,0-6.1-2.7-6.1-6.1s2.7-6.1,6.1-6.1s6.1,2.7,6.1,6.1S19.2,623.7,15.9,623.7z"/>
	<path class="st4" d="M17.5,638H0.3v3.4c2.3,0.9,3.9,3.1,3.9,5.7s-1.6,4.8-3.9,5.7v3.4h17.2c5,0,9-4,9-9S22.4,638,17.5,638z
		 M15.9,653.1c-3.4,0-6.1-2.7-6.1-6.1s2.7-6.1,6.1-6.1s6.1,2.7,6.1,6.1S19.2,653.1,15.9,653.1z"/>
	<path class="st4" d="M17.5,667.4H0.3v3.4c2.3,0.9,3.9,3.1,3.9,5.7s-1.6,4.8-3.9,5.7v3.4h17.2c5,0,9-4,9-9S22.4,667.4,17.5,667.4z
		 M15.9,682.5c-3.4,0-6.1-2.7-6.1-6.1s2.7-6.1,6.1-6.1s6.1,2.7,6.1,6.1S19.2,682.5,15.9,682.5z"/>
	<path class="st4" d="M17.5,726.1H0.3v3.4c2.3,0.9,3.9,3.1,3.9,5.7s-1.6,4.8-3.9,5.7v3.4h17.2c5,0,9-4,9-9v0
		C26.5,730.2,22.4,726.1,17.5,726.1z M15.9,741.3c-3.4,0-6.1-2.7-6.1-6.1s2.7-6.1,6.1-6.1s6.1,2.7,6.1,6.1S19.2,741.3,15.9,741.3z"
		/>
	<path class="st4" d="M17.5,755.5H0.3v3.4c2.3,0.9,3.9,3.1,3.9,5.7s-1.6,4.8-3.9,5.7v3.4h17.2c5,0,9-4,9-9v0
		C26.5,759.6,22.4,755.5,17.5,755.5z M15.9,770.6c-3.4,0-6.1-2.7-6.1-6.1s2.7-6.1,6.1-6.1s6.1,2.7,6.1,6.1S19.2,770.6,15.9,770.6z"
		/>
	<path class="st4" d="M17.5,784.9H0.3v3.4c2.3,0.9,3.9,3.1,3.9,5.7s-1.6,4.8-3.9,5.7v3.4h17.2c5,0,9-4,9-9S22.4,784.9,17.5,784.9z
		 M15.9,800c-3.4,0-6.1-2.7-6.1-6.1s2.7-6.1,6.1-6.1s6.1,2.7,6.1,6.1S19.2,800,15.9,800z"/>
	<path class="st4" d="M239.5,235.4c0-2.6,1.6-4.8,3.9-5.7v-3.4h-17.2c-5,0-9,4-9,9s4,9,9,9h17.2v-3.4
		C241.2,240.2,239.5,238,239.5,235.4z M227.8,241.5c-3.4,0-6.1-2.7-6.1-6.1s2.7-6.1,6.1-6.1s6.1,2.7,6.1,6.1
		S231.2,241.5,227.8,241.5z"/>
	<path class="st4" d="M239.5,264.8c0-2.6,1.6-4.8,3.9-5.7v-3.4h-17.2c-5,0-9,4-9,9v0c0,5,4,9,9,9h17.2v-3.4
		C241.2,269.6,239.5,267.4,239.5,264.8z M227.8,270.9c-3.4,0-6.1-2.7-6.1-6.1s2.7-6.1,6.1-6.1s6.1,2.7,6.1,6.1
		S231.2,270.9,227.8,270.9z"/>
	<path class="st4" d="M239.5,294.2c0-2.6,1.6-4.8,3.9-5.7v-3.4h-17.2c-5,0-9,4-9,9v0c0,5,4,9,9,9h17.2v-3.4
		C241.2,299,239.5,296.8,239.5,294.2z M227.8,300.3c-3.4,0-6.1-2.7-6.1-6.1s2.7-6.1,6.1-6.1s6.1,2.7,6.1,6.1
		S231.2,300.3,227.8,300.3z"/>
	<path class="st4" d="M239.5,323.6c0-2.6,1.6-4.8,3.9-5.7v-3.4h-17.2c-5,0-9,4-9,9s4,9,9,9h17.2v-3.4
		C241.2,328.4,239.5,326.2,239.5,323.6z M227.8,329.7c-3.4,0-6.1-2.7-6.1-6.1s2.7-6.1,6.1-6.1s6.1,2.7,6.1,6.1
		S231.2,329.7,227.8,329.7z"/>
	<path class="st4" d="M239.5,353c0-2.6,1.6-4.8,3.9-5.7V344h-17.2c-5,0-9,4-9,9s4,9,9,9h17.2v-3.4
		C241.2,357.8,239.5,355.6,239.5,353z M227.8,359.1c-3.4,0-6.1-2.7-6.1-6.1s2.7-6.1,6.1-6.1s6.1,2.7,6.1,6.1
		S231.2,359.1,227.8,359.1z"/>
	<path class="st4" d="M239.5,382.4c0-2.6,1.6-4.8,3.9-5.7v-3.4h-17.2c-5,0-9,4-9,9s4,9,9,9h17.2v-3.4
		C241.2,387.2,239.5,385,239.5,382.4z M227.8,388.5c-3.4,0-6.1-2.7-6.1-6.1s2.7-6.1,6.1-6.1s6.1,2.7,6.1,6.1
		S231.2,388.5,227.8,388.5z"/>
	<path class="st4" d="M239.5,441.2c0-2.6,1.6-4.8,3.9-5.7v-3.4h-17.2c-5,0-9,4-9,9s4,9,9,9h17.2v-3.4
		C241.2,446,239.5,443.8,239.5,441.2z M227.8,447.3c-3.4,0-6.1-2.7-6.1-6.1s2.7-6.1,6.1-6.1s6.1,2.7,6.1,6.1
		S231.2,447.3,227.8,447.3z"/>
	<path class="st4" d="M239.5,500c0-2.6,1.6-4.8,3.9-5.7V491h-17.2c-5,0-9,4-9,9v0c0,5,4,9,9,9h17.2v-3.4
		C241.2,504.8,239.5,502.6,239.5,500z M227.8,506.1c-3.4,0-6.1-2.7-6.1-6.1s2.7-6.1,6.1-6.1s6.1,2.7,6.1,6.1
		S231.2,506.1,227.8,506.1z"/>
	<path class="st4" d="M239.5,529.4c0-2.6,1.6-4.8,3.9-5.7v-3.4h-17.2c-5,0-9,4-9,9v0c0,5,4,9,9,9h17.2v-3.4
		C241.2,534.2,239.5,532,239.5,529.4z M227.8,535.5c-3.4,0-6.1-2.7-6.1-6.1s2.7-6.1,6.1-6.1s6.1,2.7,6.1,6.1
		S231.2,535.5,227.8,535.5z"/>
	<path class="st4" d="M239.5,558.8c0-2.6,1.6-4.8,3.9-5.7v-3.4h-17.2c-5,0-9,4-9,9s4,9,9,9h17.2v-3.4
		C241.2,563.6,239.5,561.4,239.5,558.8z M227.8,564.9c-3.4,0-6.1-2.7-6.1-6.1s2.7-6.1,6.1-6.1s6.1,2.7,6.1,6.1
		S231.2,564.9,227.8,564.9z"/>
	<path class="st4" d="M239.5,588.2c0-2.6,1.6-4.8,3.9-5.7v-3.4h-17.2c-5,0-9,4-9,9s4,9,9,9h17.2v-3.4
		C241.2,593,239.5,590.8,239.5,588.2z M227.8,594.3c-3.4,0-6.1-2.7-6.1-6.1s2.7-6.1,6.1-6.1s6.1,2.7,6.1,6.1
		S231.2,594.3,227.8,594.3z"/>
	<path class="st4" d="M239.5,617.6c0-2.6,1.6-4.8,3.9-5.7v-3.4h-17.2c-5,0-9,4-9,9s4,9,9,9h17.2v-3.4
		C241.2,622.4,239.5,620.2,239.5,617.6z M227.8,623.7c-3.4,0-6.1-2.7-6.1-6.1s2.7-6.1,6.1-6.1s6.1,2.7,6.1,6.1
		S231.2,623.7,227.8,623.7z"/>
	<path class="st4" d="M239.5,647c0-2.6,1.6-4.8,3.9-5.7V638h-17.2c-5,0-9,4-9,9s4,9,9,9h17.2v-3.4
		C241.2,651.8,239.5,649.6,239.5,647z M227.8,653.1c-3.4,0-6.1-2.7-6.1-6.1s2.7-6.1,6.1-6.1s6.1,2.7,6.1,6.1
		S231.2,653.1,227.8,653.1z"/>
	<path class="st4" d="M239.5,676.4c0-2.6,1.6-4.8,3.9-5.7v-3.4h-17.2c-5,0-9,4-9,9s4,9,9,9h17.2V682
		C241.2,681.2,239.5,679,239.5,676.4z M227.8,682.5c-3.4,0-6.1-2.7-6.1-6.1s2.7-6.1,6.1-6.1s6.1,2.7,6.1,6.1
		S231.2,682.5,227.8,682.5z"/>
	<path class="st4" d="M239.5,735.2c0-2.6,1.6-4.8,3.9-5.7v-3.4h-17.2c-5,0-9,4-9,9v0c0,5,4,9,9,9h17.2v-3.4
		C241.2,740,239.5,737.7,239.5,735.2z M227.8,741.3c-3.4,0-6.1-2.7-6.1-6.1s2.7-6.1,6.1-6.1s6.1,2.7,6.1,6.1
		S231.2,741.3,227.8,741.3z"/>
	<path class="st4" d="M239.5,764.6c0-2.6,1.6-4.8,3.9-5.7v-3.4h-17.2c-5,0-9,4-9,9v0c0,5,4,9,9,9h17.2v-3.4
		C241.2,769.3,239.5,767.1,239.5,764.6z M227.8,770.6c-3.4,0-6.1-2.7-6.1-6.1s2.7-6.1,6.1-6.1s6.1,2.7,6.1,6.1
		S231.2,770.6,227.8,770.6z"/>
	<path class="st5" d="M163.1,207.3l4.4-4.4l-2.3-2.3l-6.6,6.6h-1.5v-4.7c0-1.2-1-2.2-2.2-2.2H85.4c-1.2,0-2.2,1-2.2,2.2v4.7h-1.5
		l-6.6-6.6l-2.3,2.3l4.4,4.4c-0.6,0.2-1,0.8-1,1.4v56.3c0,0.9,0.7,1.6,1.6,1.6h84.6c0.9,0,1.6-0.7,1.6-1.6v-56.3
		C164,208.1,163.6,207.6,163.1,207.3z"/>
	<g>
		<path class="st6" d="M100.3,229.6c0-3.2-2.6-5.8-5.8-5.8s-5.8,2.6-5.8,5.8c0,1.4,0.5,2.7,1.3,3.7h-0.2v7.7c0,1.2,1,2.1,2.1,2.1H97
			c1.2,0,2.1-1,2.1-2.1v-7.7H99C99.8,232.3,100.3,231,100.3,229.6z"/>
		<path class="st6" d="M155.5,229.6c0-3.2-2.6-5.8-5.8-5.8s-5.8,2.6-5.8,5.8c0,1.4,0.5,2.7,1.3,3.7H145v7.7c0,1.2,1,2.1,2.1,2.1h5.1
			c1.2,0,2.1-1,2.1-2.1v-7.7h-0.2C155,232.3,155.5,231,155.5,229.6z"/>
	</g>
	<path class="st7" d="M200.9,359.8h-21c-1.2,0-2.2-1-2.2-2.2v-26.7c0-1.2,1-2.2,2.2-2.2h21c1.2,0,2.2,1,2.2,2.2v26.7
		C203,358.8,202.1,359.8,200.9,359.8z"/>
	<g>
		<rect x="132" y="295.9" class="st8" width="21.7" height="14.4"/>
		<path class="st9" d="M149.3,310.4c-2-1.8-3.2-4.4-3.2-7.2s1.2-5.4,3.2-7.2h-12.8c2,1.8,3.2,4.4,3.2,7.2s-1.2,5.4-3.2,7.2H149.3z"
			/>
	</g>
	<g>
		<rect x="132.3" y="381.3" class="st8" width="21.7" height="14.4"/>
		<path class="st9" d="M149.6,395.7c-2-1.8-3.2-4.4-3.2-7.2s1.2-5.4,3.2-7.2h-12.8c2,1.8,3.2,4.4,3.2,7.2s-1.2,5.4-3.2,7.2H149.6z"
			/>
	</g>
	<g>
		<rect x="132.3" y="400.4" class="st8" width="21.7" height="14.4"/>
		<path class="st9" d="M149.6,414.9c-2-1.8-3.2-4.4-3.2-7.2s1.2-5.4,3.2-7.2h-12.8c2,1.8,3.2,4.4,3.2,7.2s-1.2,5.4-3.2,7.2H149.6z"
			/>
	</g>
	<g>
		
			<rect x="63.8" y="448.8" transform="matrix(6.123234e-17 -1 1 6.123234e-17 -387.5948 520.6309)" class="st8" width="5.4" height="10.6"/>
		
			<rect x="63.8" y="451.1" transform="matrix(6.123234e-17 -1 1 6.123234e-17 -387.5948 520.6309)" class="st9" width="5.4" height="6"/>
	</g>
	<g>
		<rect x="177.1" y="431.4" class="st8" width="5.4" height="10.6"/>
		<rect x="177.1" y="433.7" class="st9" width="5.4" height="6"/>
	</g>
	<rect x="179.5" y="281.4" class="st7" width="18.9" height="29.3"/>
	<g>
		<rect x="171.6" y="382.6" class="st8" width="20.6" height="9.6"/>
		<rect x="176.2" y="382.6" class="st10" width="11.5" height="9.6"/>
	</g>
	<rect x="120.2" y="550.7" class="st9" width="4.2" height="6.9"/>
	<rect x="126.9" y="550.7" class="st9" width="4.2" height="6.9"/>
	
		<rect x="66.6" y="460.7" transform="matrix(6.123234e-17 -1 1 6.123234e-17 -395.3914 532.8738)" class="st9" width="4.2" height="6.9"/>
	
		<rect x="89.5" y="393.6" transform="matrix(6.123234e-17 -1 1 6.123234e-17 -305.3267 488.6508)" class="st9" width="4.2" height="6.9"/>
	
		<rect x="66.3" y="504.3" transform="matrix(6.123234e-17 -1 1 6.123234e-17 -439.3455 576.1154)" class="st9" width="4.2" height="6.9"/>
	<rect x="195" y="509.5" class="st7" width="4.2" height="6.9"/>
	
		<rect x="189.2" y="448.3" transform="matrix(6.123234e-17 -1 1 6.123234e-17 -260.3752 643.0267)" class="st7" width="4.2" height="6.9"/>
	
		<rect x="87.2" y="292.6" transform="matrix(6.123234e-17 -1 1 6.123234e-17 -206.6936 385.3559)" class="st7" width="4.2" height="6.9"/>
	
		<rect x="82.3" y="304.8" transform="matrix(6.123234e-17 -1 1 6.123234e-17 -223.8088 392.7155)" class="st7" width="4.2" height="6.9"/>
	
		<rect x="192.8" y="397.3" transform="matrix(6.123234e-17 -1 1 6.123234e-17 -205.7655 595.6796)" class="st7" width="4.2" height="6.9"/>
	<path class="st11" d="M186.3,714.4H57.5c-2.1,0-3.9-1.7-3.9-3.9V602.4c0-2.1,1.7-3.9,3.9-3.9h128.8c2.1,0,3.9,1.7,3.9,3.9v108.1
		C190.2,712.7,188.5,714.4,186.3,714.4z"/>
	<rect x="101.5" y="760.7" class="st12" width="10.5" height="5.9"/>
	<rect x="130.3" y="760.8" class="st12" width="10.5" height="5.9"/>
	<rect x="101.5" y="798.4" class="st12" width="10.5" height="5.9"/>
	<rect x="130.3" y="798.6" class="st12" width="10.5" height="5.9"/>
	<polyline class="st13" points="17.5,243.2 17.5,247.6 35.4,265.6 35.4,314.2 51,329.8 51,464.5 55.9,469.5 91.2,469.5 	"/>
	<polyline class="st13" points="22.9,270.1 31,278.1 31,316 46.7,331.7 46.7,467 52.6,472.9 91,472.9 	"/>
	<polyline class="st13" points="23.2,328.5 43,348.3 43,469.5 53.4,479.9 95,479.9 	"/>
	<polyline class="st13" points="23.2,357.9 39.8,374.5 39.8,471.4 51.9,483.5 95.1,483.5 	"/>
	<polyline class="st13" points="23.2,388.1 35.6,400.4 35.6,476.4 49.5,490.4 93.4,490.4 	"/>
	<polyline class="st13" points="22.9,416.2 31.6,424.9 31.6,479.1 46.4,493.9 96.1,493.9 	"/>
	<polyline class="st13" points="22.9,474.9 45.3,497.3 102.7,497.3 	"/>
	<line class="st13" x1="23.7" y1="500.8" x2="98.8" y2="500.8"/>
	<path class="st13" d="M23.2,527.1c0.1-0.6,17.3-17.3,17.3-17.3H53l4.9,4.9h45.7"/>
	<polyline class="st13" points="20.4,553.1 25.7,547.7 25.7,539.9 30.9,534.8 30.9,526.4 43.9,513.3 52.6,513.3 57.3,518 95.3,518 	
		"/>
	<path class="st13" d="M30.7,543.2l3.4-3.4c0,0-0.7-8.9,0-9.6c0.7-0.7,6-6,6-6l6.3-6.3h6.1l3.7,3.7h35.1"/>
	<polyline class="st13" points="29.1,599.2 29.1,551.5 38.7,542 93.4,542 95,540.3 95,530.7 	"/>
	<polyline class="st13" points="17.5,697.4 17.5,693.8 32.9,678.3 32.9,598 35.7,595.3 35.7,553.5 42,547.2 94.2,547.2 98.4,543 
		98.4,535.6 	"/>
	<path class="st13" d="M35.7,581"/>
	<path class="st13" d="M35.7,596.2"/>
	<polyline class="st13" points="23.6,758 30.4,751.2 30.4,686.6 37.5,680.7 	"/>
	<polyline class="st13" points="35.6,691 42.6,684 42.6,594.3 39.9,591.6 39.9,554.7 44.6,550.1 94.9,550.1 101.9,543.1 
		101.9,526.5 	"/>
	<polyline class="st13" points="108.9,533.2 108.9,542 95.9,555 91.5,555 	"/>
	<polyline class="st13" points="93.9,563.6 112.4,545.1 112.4,529.7 	"/>
	<polyline class="st13" points="115.9,535.1 115.9,546.7 102.2,560.4 102.2,580.4 95.9,586.7 65,586.7 55.5,577.2 	"/>
	<polyline class="st13" points="133.9,574 138.7,569.2 138.7,555.9 135.5,552.8 135.5,542.8 132.4,539.6 132.4,528.7 	"/>
	<polyline class="st13" points="137.3,532.8 137.3,540.6 139.3,542.6 139.3,549 152.7,562.4 164.9,562.4 179.1,576.7 	"/>
	<polyline class="st13" points="145.3,530.6 145.3,541 151.3,547 172.3,547 200.5,575.2 200.5,687.8 206.7,694 206.7,744.9 
		212.3,750.4 212.3,770.6 223.3,781.7 223.3,787 	"/>
	<polyline class="st13" points="150.7,531 150.7,538.3 154.7,542.4 173.6,542.4 205.2,573.9 205.2,685.4 211.4,691.6 211.4,744.2 
		215.6,748.4 215.6,757.1 	"/>
	<polyline class="st13" points="157.5,525.9 165.3,525.9 211.1,571.7 211.1,683.3 227.2,699.5 	"/>
	<polyline class="st13" points="157.5,521.5 166.9,521.5 192.1,546.7 	"/>
	<polyline class="st13" points="158.6,516.3 166.6,516.3 190.1,539.8 195.5,539.8 206.3,550.6 206.3,557.6 	"/>
	<polyline class="st13" points="158.2,511.9 167.3,511.9 190.4,534.9 200.9,534.9 	"/>
	<polyline class="st13" points="158.2,507.7 169.1,507.7 174.1,512.7 	"/>
	<polyline class="st13" points="158.2,502.7 175.4,502.7 202.8,530.1 206.3,530.1 215.9,539.8 215.9,552.1 	"/>
	<line class="st13" x1="158.6" y1="497.3" x2="167.7" y2="497.3"/>
	<polyline class="st13" points="156.4,491.9 171.8,491.9 179.2,499.3 	"/>
	<polyline class="st13" points="187.9,511.9 192.4,507.3 192.4,488 203.4,488 	"/>
	<polyline class="st13" points="158.6,483.5 209.5,483.5 218.5,492.5 	"/>
	<polyline class="st13" points="158.2,479.1 213.8,479.1 220.3,472.6 	"/>
	<polyline class="st13" points="157.5,474.9 198.8,474.9 207.1,466.6 207.1,426.3 219.6,413.8 	"/>
	<polyline class="st13" points="158.6,470.6 179.1,470.6 202.4,447.4 202.4,424.5 	"/>
	<polyline class="st13" points="159.7,465.9 167.2,465.9 171.8,461.3 	"/>
	<path class="st13" d="M147.8,460.6c-0.2-0.3,9.2-9.2,9.2-9.2h15.6v-33.5l2.8-2.8v-7.7"/>
	<path class="st13" d="M147,458.4c0-0.2,0-6.5,0-6.5l10.3-10.3"/>
	<polyline class="st13" points="140.1,459.3 140.1,448.5 147.4,441.2 	"/>
	<line class="st13" x1="136.6" y1="456.3" x2="136.6" y2="438.7"/>
	<path class="st13" d="M133.1,458c0-0.6,0-15.2,0-15.2l-4.2-4.2"/>
	<path class="st13" d="M122.6,457.7c0-0.6,0-20.7,0-20.7"/>
	<path class="st13" d="M119.2,459.3c0-0.3,0-11.1,0-11.1l-7.6-7.6"/>
	<polyline class="st13" points="115.6,458.9 115.6,452.5 101.8,438.6 101.8,432.2 105,429 108.9,429 111.5,426.3 111.5,415.8 
		106.1,410.4 100,410.4 	"/>
	<polyline class="st13" points="99.8,416.2 105.4,416.2 108.5,419.3 108.5,424.5 105.7,427.2 101.1,427.2 97.7,430.7 97.7,439.7 
		108.7,450.7 108.7,457.5 	"/>
	<polyline class="st13" points="91.3,420.7 91.3,437.5 105.2,451.4 105.2,460.9 	"/>
	<polyline class="st13" points="76.5,419.9 76.5,427.1 85.9,436.5 85.9,440.3 99,453.4 99,462.5 	"/>
	<path class="st13" d="M94.8,456.5c0-0.1,0-5,0-5l-11.7-11.7v-1.1l-4.5-4.5h-6.4l-1.7-1.7h-6.9l-6.7-6.7v-14.4l1.6-1.6h8.8"/>
	<polyline class="st13" points="69.1,403.8 60.4,403.8 55.4,408.8 55.4,426.7 63.4,434.6 69.5,434.6 75.9,441 78.4,441 92.5,455.1 	
		"/>
	<line class="st13" x1="73.8" y1="377.1" x2="56" y2="394.9"/>
	<polyline class="st13" points="137.6,437.8 137.6,431.6 134.7,428.7 134.7,425.6 130.2,421.2 125.2,421.2 121.1,417.1 121.1,398.2 
		109.7,386.7 109.7,304.5 124,290.2 124,281.1 127.7,277.4 	"/>
	<path class="st13" d="M135.3,330.4c0-0.6,0-9,0-9l-3.1-3.1h-9.8l-4.5-4.5v-4.3"/>
	<polyline class="st13" points="129.3,362.8 129.3,368.1 126.1,371.3 120.2,371.3 118.6,372.9 	"/>
	<polyline class="st13" points="62.9,275.9 62.9,285.3 79.1,301.5 83.6,301.5 88.5,306.4 88.5,314.6 83.9,319.1 83.9,332.7 	"/>
	<rect x="45.6" y="268.7" class="st14" width="18.9" height="9.6"/>
	<g>
		<rect x="102.7" y="266.6" class="st15" width="4.3" height="11.5"/>
		<rect x="110.4" y="266.6" class="st15" width="4.3" height="11.5"/>
		<rect x="118.1" y="266.6" class="st15" width="4.3" height="11.5"/>
		<rect x="125.7" y="266.6" class="st15" width="4.3" height="11.5"/>
		<rect x="133.4" y="266.6" class="st15" width="4.3" height="11.5"/>
	</g>
	<g>
		<path class="st16" d="M106.8,287.4v-5.5h2.5v5.8c0,2,0.6,2.7,1.7,2.7c1.2,0,1.8-0.7,1.8-2.7v-5.8h2.4v5.5c0,3.5-1.4,5.1-4.2,5.1
			S106.8,290.9,106.8,287.4z"/>
		<path class="st16" d="M116.7,291l1.3-1.6c0.7,0.6,1.7,1,2.6,1c0.9,0,1.4-0.4,1.4-0.9c0-0.6-0.6-0.8-1.5-1.2l-1.3-0.6
			c-1.1-0.4-2.1-1.3-2.1-2.8c0-1.7,1.6-3.2,3.8-3.2c1.2,0,2.5,0.5,3.4,1.3l-1.3,1.6c-0.7-0.5-1.4-0.8-2.1-0.8
			c-0.8,0-1.3,0.3-1.3,0.8c0,0.6,0.7,0.8,1.6,1.2l1.3,0.5c1.3,0.5,2.1,1.4,2.1,2.8c0,1.7-1.5,3.3-4,3.3
			C119.1,292.5,117.8,292,116.7,291z"/>
		<path class="st16" d="M126.3,281.9h3.6c2.2,0,3.9,0.6,3.9,2.6c0,0.9-0.5,1.9-1.4,2.2v0.1c1.1,0.3,1.9,1.1,1.9,2.4
			c0,2.1-1.8,3.1-4.1,3.1h-3.9V281.9z M129.8,286c1.1,0,1.5-0.5,1.5-1.2c0-0.8-0.5-1.1-1.5-1.1h-1.1v2.2H129.8z M130,290.4
			c1.2,0,1.8-0.4,1.8-1.3s-0.6-1.2-1.8-1.2h-1.2v2.5H130z"/>
	</g>
	<path class="st17" d="M170.2,363.3h-45.7c-0.5,0-1-0.4-1-1v-33.5c0-0.5,0.4-1,1-1h45.7c0.5,0,1,0.4,1,1v33.5
		C171.1,362.9,170.7,363.3,170.2,363.3z"/>
	<g>
		<rect x="128.6" y="323.7" class="st15" width="1.4" height="4.1"/>
		<rect x="134.6" y="323.7" class="st15" width="1.4" height="4.1"/>
		<rect x="140.6" y="323.7" class="st15" width="1.4" height="4.1"/>
		<rect x="146.6" y="323.7" class="st15" width="1.4" height="4.1"/>
		<rect x="152.6" y="323.7" class="st15" width="1.4" height="4.1"/>
		<rect x="158.6" y="323.7" class="st15" width="1.4" height="4.1"/>
		<rect x="164.6" y="323.7" class="st15" width="1.4" height="4.1"/>
	</g>
	<g>
		<rect x="128.6" y="363.3" class="st15" width="1.4" height="4.1"/>
		<rect x="134.6" y="363.3" class="st15" width="1.4" height="4.1"/>
		<rect x="140.6" y="363.3" class="st15" width="1.4" height="4.1"/>
		<rect x="146.6" y="363.3" class="st15" width="1.4" height="4.1"/>
		<rect x="152.6" y="363.3" class="st15" width="1.4" height="4.1"/>
		<rect x="158.6" y="363.3" class="st15" width="1.4" height="4.1"/>
		<rect x="164.6" y="363.3" class="st15" width="1.4" height="4.1"/>
	</g>
	<g>
		<rect x="61.4" y="331.7" class="st18" width="39.3" height="48.9"/>
		<path class="st19" d="M81,374.4L81,374.4c-7.6,0-13.7-6.1-13.7-13.7v-9.1c0-7.6,6.1-13.7,13.7-13.7h0c7.6,0,13.7,6.1,13.7,13.7
			v9.1C94.7,368.2,88.6,374.4,81,374.4z"/>
		<path class="st19" d="M61.4,341.9L61.4,341.9l0-10.3h10.3l0,0C71.6,337.3,67.1,341.9,61.4,341.9z"/>
		<path class="st19" d="M71.6,380.6H61.4v-10.3h0C67.1,370.3,71.6,374.9,71.6,380.6L71.6,380.6z"/>
		<path class="st19" d="M100.7,341.9L100.7,341.9c-5.7,0-10.3-4.6-10.3-10.3l0,0h10.3V341.9z"/>
		<path class="st19" d="M100.7,380.6H90.4v0c0-5.7,4.6-10.3,10.3-10.3h0V380.6z"/>
	</g>
	<g>
		<rect x="64.9" y="401.2" class="st17" width="34.6" height="22.9"/>
		<g>
			<rect x="60.7" y="402.3" class="st15" width="4.2" height="3.4"/>
			<rect x="60.7" y="408" class="st15" width="4.2" height="3.4"/>
			<rect x="60.7" y="413.8" class="st15" width="4.2" height="3.4"/>
			<rect x="60.7" y="419.5" class="st15" width="4.2" height="3.4"/>
		</g>
		<g>
			<rect x="99.5" y="402.3" class="st15" width="4.2" height="3.4"/>
			<rect x="99.5" y="408" class="st15" width="4.2" height="3.4"/>
			<rect x="99.5" y="413.8" class="st15" width="4.2" height="3.4"/>
			<rect x="99.5" y="419.5" class="st15" width="4.2" height="3.4"/>
		</g>
	</g>
	<rect x="135.5" y="432.7" class="st7" width="4.2" height="6.9"/>
	<g>
		<path class="st20" d="M160.4,536.4H81.4c-0.7,0-1.3-0.6-1.3-1.3v-79.1c0-0.7,0.6-1.3,1.3-1.3h79.1c0.7,0,1.3,0.6,1.3,1.3v79.1
			C161.7,535.8,161.1,536.4,160.4,536.4z"/>
		<g>
			<rect x="86.2" y="452.8" class="st15" width="3.1" height="1.9"/>
			<rect x="89.7" y="452.8" class="st15" width="3.1" height="1.9"/>
			<rect x="93.2" y="452.8" class="st15" width="3.1" height="1.9"/>
			<rect x="96.7" y="452.8" class="st15" width="3.1" height="1.9"/>
			<rect x="100.2" y="452.8" class="st15" width="3.1" height="1.9"/>
			<rect x="103.6" y="452.8" class="st15" width="3.1" height="1.9"/>
			<rect x="107.1" y="452.8" class="st15" width="3.1" height="1.9"/>
			<rect x="114.1" y="452.8" class="st15" width="3.1" height="1.9"/>
			<rect x="121.1" y="452.8" class="st15" width="3.1" height="1.9"/>
			<rect x="128" y="452.8" class="st15" width="3.1" height="1.9"/>
			<rect x="138.5" y="452.8" class="st15" width="3.1" height="1.9"/>
			<rect x="142" y="452.8" class="st15" width="3.1" height="1.9"/>
			<rect x="149" y="452.8" class="st15" width="3.1" height="1.9"/>
			<rect x="110.6" y="452.8" class="st15" width="3.1" height="1.9"/>
			<rect x="117.6" y="452.8" class="st15" width="3.1" height="1.9"/>
			<rect x="124.6" y="452.8" class="st15" width="3.1" height="1.9"/>
			<rect x="131.5" y="452.8" class="st15" width="3.1" height="1.9"/>
			<rect x="135" y="452.8" class="st15" width="3.1" height="1.9"/>
			<rect x="145.5" y="452.8" class="st15" width="3.1" height="1.9"/>
			<rect x="152.4" y="452.8" class="st15" width="3.1" height="1.9"/>
		</g>
		<g>
			<rect x="86.4" y="536.4" class="st15" width="3.1" height="1.9"/>
			<rect x="89.9" y="536.4" class="st15" width="3.1" height="1.9"/>
			<rect x="93.4" y="536.4" class="st15" width="3.1" height="1.9"/>
			<rect x="96.9" y="536.4" class="st15" width="3.1" height="1.9"/>
			<rect x="100.4" y="536.4" class="st15" width="3.1" height="1.9"/>
			<rect x="103.8" y="536.4" class="st15" width="3.1" height="1.9"/>
			<rect x="107.3" y="536.4" class="st15" width="3.1" height="1.9"/>
			<rect x="114.3" y="536.4" class="st15" width="3.1" height="1.9"/>
			<rect x="121.3" y="536.4" class="st15" width="3.1" height="1.9"/>
			<rect x="128.2" y="536.4" class="st15" width="3.1" height="1.9"/>
			<rect x="138.7" y="536.4" class="st15" width="3.1" height="1.9"/>
			<rect x="142.2" y="536.4" class="st15" width="3.1" height="1.9"/>
			<rect x="149.1" y="536.4" class="st15" width="3.1" height="1.9"/>
			<rect x="110.8" y="536.4" class="st15" width="3.1" height="1.9"/>
			<rect x="117.8" y="536.4" class="st15" width="3.1" height="1.9"/>
			<rect x="124.7" y="536.4" class="st15" width="3.1" height="1.9"/>
			<rect x="131.7" y="536.4" class="st15" width="3.1" height="1.9"/>
			<rect x="135.2" y="536.4" class="st15" width="3.1" height="1.9"/>
			<rect x="145.7" y="536.4" class="st15" width="3.1" height="1.9"/>
			<rect x="152.6" y="536.4" class="st15" width="3.1" height="1.9"/>
		</g>
		<g>
			
				<rect x="77.5" y="527.7" transform="matrix(6.123234e-17 -1 1 6.123234e-17 -449.6061 607.7864)" class="st15" width="3.1" height="1.9"/>
			
				<rect x="77.5" y="524.3" transform="matrix(6.123234e-17 -1 1 6.123234e-17 -446.1211 604.3014)" class="st15" width="3.1" height="1.9"/>
			
				<rect x="77.5" y="520.8" transform="matrix(6.123234e-17 -1 1 6.123234e-17 -442.6361 600.8163)" class="st15" width="3.1" height="1.9"/>
			
				<rect x="77.5" y="517.3" transform="matrix(6.123234e-17 -1 1 6.123234e-17 -439.151 597.3313)" class="st15" width="3.1" height="1.9"/>
			
				<rect x="77.5" y="513.8" transform="matrix(6.123234e-17 -1 1 6.123234e-17 -435.666 593.8463)" class="st15" width="3.1" height="1.9"/>
			
				<rect x="77.5" y="510.3" transform="matrix(6.123234e-17 -1 1 6.123234e-17 -432.1809 590.3612)" class="st15" width="3.1" height="1.9"/>
			
				<rect x="77.5" y="506.8" transform="matrix(6.123234e-17 -1 1 6.123234e-17 -428.6959 586.8762)" class="st15" width="3.1" height="1.9"/>
			
				<rect x="77.5" y="499.9" transform="matrix(6.123234e-17 -1 1 6.123234e-17 -421.7258 579.9061)" class="st15" width="3.1" height="1.9"/>
			
				<rect x="77.5" y="492.9" transform="matrix(6.123234e-17 -1 1 6.123234e-17 -414.7557 572.936)" class="st15" width="3.1" height="1.9"/>
			
				<rect x="77.5" y="485.9" transform="matrix(6.123234e-17 -1 1 6.123234e-17 -407.7856 565.9659)" class="st15" width="3.1" height="1.9"/>
			
				<rect x="77.5" y="475.5" transform="matrix(6.123234e-17 -1 1 6.123234e-17 -397.3305 555.5108)" class="st15" width="3.1" height="1.9"/>
			
				<rect x="77.5" y="472" transform="matrix(6.123234e-17 -1 1 6.123234e-17 -393.8455 552.0258)" class="st15" width="3.1" height="1.9"/>
			
				<rect x="77.5" y="465" transform="matrix(6.123234e-17 -1 1 6.123234e-17 -386.8754 545.0557)" class="st15" width="3.1" height="1.9"/>
			
				<rect x="77.5" y="503.3" transform="matrix(6.123234e-17 -1 1 6.123234e-17 -425.2108 583.3911)" class="st15" width="3.1" height="1.9"/>
			
				<rect x="77.5" y="496.4" transform="matrix(6.123234e-17 -1 1 6.123234e-17 -418.2408 576.421)" class="st15" width="3.1" height="1.9"/>
			
				<rect x="77.5" y="489.4" transform="matrix(6.123234e-17 -1 1 6.123234e-17 -411.2707 569.4509)" class="st15" width="3.1" height="1.9"/>
			
				<rect x="77.5" y="482.4" transform="matrix(6.123234e-17 -1 1 6.123234e-17 -404.3006 562.4809)" class="st15" width="3.1" height="1.9"/>
			
				<rect x="77.5" y="478.9" transform="matrix(6.123234e-17 -1 1 6.123234e-17 -400.8156 558.9958)" class="st15" width="3.1" height="1.9"/>
			
				<rect x="77.5" y="468.5" transform="matrix(6.123234e-17 -1 1 6.123234e-17 -390.3604 548.5407)" class="st15" width="3.1" height="1.9"/>
			
				<rect x="77.5" y="461.5" transform="matrix(6.123234e-17 -1 1 6.123234e-17 -383.3903 541.5706)" class="st15" width="3.1" height="1.9"/>
		</g>
		<g>
			
				<rect x="161.1" y="527.7" transform="matrix(6.123234e-17 -1 1 6.123234e-17 -366.0162 691.3763)" class="st15" width="3.1" height="1.9"/>
			
				<rect x="161.1" y="524.3" transform="matrix(6.123234e-17 -1 1 6.123234e-17 -362.5312 687.8913)" class="st15" width="3.1" height="1.9"/>
			
				<rect x="161.1" y="520.8" transform="matrix(6.123234e-17 -1 1 6.123234e-17 -359.0461 684.4062)" class="st15" width="3.1" height="1.9"/>
			
				<rect x="161.1" y="517.3" transform="matrix(6.123234e-17 -1 1 6.123234e-17 -355.5611 680.9213)" class="st15" width="3.1" height="1.9"/>
			
				<rect x="161.1" y="513.8" transform="matrix(6.123234e-17 -1 1 6.123234e-17 -352.076 677.4362)" class="st15" width="3.1" height="1.9"/>
			
				<rect x="161.1" y="510.3" transform="matrix(6.123234e-17 -1 1 6.123234e-17 -348.591 673.9512)" class="st15" width="3.1" height="1.9"/>
			
				<rect x="161.1" y="506.8" transform="matrix(6.123234e-17 -1 1 6.123234e-17 -345.106 670.4661)" class="st15" width="3.1" height="1.9"/>
			
				<rect x="161.1" y="499.9" transform="matrix(6.123234e-17 -1 1 6.123234e-17 -338.1359 663.496)" class="st15" width="3.1" height="1.9"/>
			
				<rect x="161.1" y="492.9" transform="matrix(6.123234e-17 -1 1 6.123234e-17 -331.1658 656.5259)" class="st15" width="3.1" height="1.9"/>
			
				<rect x="161.1" y="485.9" transform="matrix(6.123234e-17 -1 1 6.123234e-17 -324.1957 649.5558)" class="st15" width="3.1" height="1.9"/>
			
				<rect x="161.1" y="475.5" transform="matrix(6.123234e-17 -1 1 6.123234e-17 -313.7406 639.1007)" class="st15" width="3.1" height="1.9"/>
			
				<rect x="161.1" y="472" transform="matrix(6.123234e-17 -1 1 6.123234e-17 -310.2555 635.6157)" class="st15" width="3.1" height="1.9"/>
			
				<rect x="161.1" y="465" transform="matrix(6.123234e-17 -1 1 6.123234e-17 -303.2854 628.6456)" class="st15" width="3.1" height="1.9"/>
			
				<rect x="161.1" y="503.3" transform="matrix(6.123234e-17 -1 1 6.123234e-17 -341.6209 666.9811)" class="st15" width="3.1" height="1.9"/>
			
				<rect x="161.1" y="496.4" transform="matrix(6.123234e-17 -1 1 6.123234e-17 -334.6508 660.011)" class="st15" width="3.1" height="1.9"/>
			
				<rect x="161.1" y="489.4" transform="matrix(6.123234e-17 -1 1 6.123234e-17 -327.6808 653.0409)" class="st15" width="3.1" height="1.9"/>
			
				<rect x="161.1" y="482.4" transform="matrix(6.123234e-17 -1 1 6.123234e-17 -320.7107 646.0708)" class="st15" width="3.1" height="1.9"/>
			
				<rect x="161.1" y="478.9" transform="matrix(6.123234e-17 -1 1 6.123234e-17 -317.2256 642.5858)" class="st15" width="3.1" height="1.9"/>
			
				<rect x="161.1" y="468.5" transform="matrix(6.123234e-17 -1 1 6.123234e-17 -306.7705 632.1306)" class="st15" width="3.1" height="1.9"/>
			
				<rect x="161.1" y="461.5" transform="matrix(6.123234e-17 -1 1 6.123234e-17 -299.8004 625.1605)" class="st15" width="3.1" height="1.9"/>
		</g>
		<circle class="st21" cx="90.2" cy="465.9" r="2.8"/>
	</g>
	<rect x="187.1" y="420.6" class="st17" width="18.2" height="8.6"/>
	<rect x="189.1" y="429.2" class="st15" width="2.9" height="8.7"/>
	<rect x="200.9" y="429.2" class="st15" width="2.9" height="8.7"/>
	<rect x="194.8" y="411.9" class="st15" width="2.9" height="8.7"/>
	
		<rect x="170.5" y="458.6" transform="matrix(6.123234e-17 -1 1 6.123234e-17 -289.4633 634.658)" class="st9" width="4.2" height="6.9"/>
	<rect x="189.5" y="489.7" class="st7" width="4.2" height="6.9"/>
	
		<rect x="172.3" y="509" transform="matrix(0.7071 -0.7071 0.7071 0.7071 -311.2167 273.4322)" class="st9" width="4.2" height="6.9"/>
	<g>
		<path class="st4" d="M157,571.1c-5.1,0-9.2,4.1-9.2,9.2s4.1,9.2,9.2,9.2s9.2-4.1,9.2-9.2S162.1,571.1,157,571.1z M157,586
			c-3.1,0-5.7-2.6-5.7-5.7s2.6-5.7,5.7-5.7c3.1,0,5.7,2.6,5.7,5.7S160.2,586,157,586z"/>
		<path class="st4" d="M118.7,571.5v17.7h17.7v-17.7H118.7z M127.6,586c-3.1,0-5.7-2.6-5.7-5.7s2.6-5.7,5.7-5.7
			c3.1,0,5.7,2.6,5.7,5.7S130.7,586,127.6,586z"/>
		<path class="st4" d="M186.8,571.1c-5.1,0-9.2,4.1-9.2,9.2s4.1,9.2,9.2,9.2s9.2-4.1,9.2-9.2S191.9,571.1,186.8,571.1z M186.8,586
			c-3.1,0-5.7-2.6-5.7-5.7s2.6-5.7,5.7-5.7c3.1,0,5.7,2.6,5.7,5.7S190,586,186.8,586z"/>
	</g>
	<path class="st4" d="M17.5,549.8H0.3v3.4c2.3,0.9,3.9,3.1,3.9,5.7s-1.6,4.8-3.9,5.7v3.4h17.2c5,0,9-4,9-9S22.4,549.8,17.5,549.8z
		 M15.9,564.9c-3.4,0-6.1-2.7-6.1-6.1s2.7-6.1,6.1-6.1s6.1,2.7,6.1,6.1S19.2,564.9,15.9,564.9z"/>
	<path class="st4" d="M17.5,520.4H0.3v3.4c2.3,0.9,3.9,3.1,3.9,5.7s-1.6,4.8-3.9,5.7v3.4h17.2c5,0,9-4,9-9v0
		C26.5,524.4,22.4,520.4,17.5,520.4z M15.9,535.5c-3.4,0-6.1-2.7-6.1-6.1s2.7-6.1,6.1-6.1s6.1,2.7,6.1,6.1S19.2,535.5,15.9,535.5z"
		/>
	<path class="st4" d="M17.5,491H0.3v3.4c2.3,0.9,3.9,3.1,3.9,5.7s-1.6,4.8-3.9,5.7v3.4h17.2c5,0,9-4,9-9v0
		C26.5,495,22.4,491,17.5,491z M15.9,506.1c-3.4,0-6.1-2.7-6.1-6.1s2.7-6.1,6.1-6.1s6.1,2.7,6.1,6.1S19.2,506.1,15.9,506.1z"/>
	<path class="st4" d="M17.5,461.6H0.3v3.4c2.3,0.9,3.9,3.1,3.9,5.7s-1.6,4.8-3.9,5.7v3.4h17.2c5,0,9-4,9-9S22.4,461.6,17.5,461.6z
		 M15.9,476.7c-3.4,0-6.1-2.7-6.1-6.1s2.7-6.1,6.1-6.1s6.1,2.7,6.1,6.1S19.2,476.7,15.9,476.7z"/>
	<path class="st4" d="M17.5,402.8H0.3v3.4c2.3,0.9,3.9,3.1,3.9,5.7s-1.6,4.8-3.9,5.7v3.4h17.2c5,0,9-4,9-9S22.4,402.8,17.5,402.8z
		 M15.9,417.9c-3.4,0-6.1-2.7-6.1-6.1s2.7-6.1,6.1-6.1s6.1,2.7,6.1,6.1S19.2,417.9,15.9,417.9z"/>
	<path class="st4" d="M17.5,373.4H0.3v3.4c2.3,0.9,3.9,3.1,3.9,5.7s-1.6,4.8-3.9,5.7v3.4h17.2c5,0,9-4,9-9S22.4,373.4,17.5,373.4z
		 M15.9,388.5c-3.4,0-6.1-2.7-6.1-6.1s2.7-6.1,6.1-6.1s6.1,2.7,6.1,6.1S19.2,388.5,15.9,388.5z"/>
	<path class="st4" d="M17.5,344H0.3v3.4c2.3,0.9,3.9,3.1,3.9,5.7s-1.6,4.8-3.9,5.7v3.4h17.2c5,0,9-4,9-9S22.4,344,17.5,344z
		 M15.9,359.1c-3.4,0-6.1-2.7-6.1-6.1s2.7-6.1,6.1-6.1s6.1,2.7,6.1,6.1S19.2,359.1,15.9,359.1z"/>
	<path class="st4" d="M17.5,314.6H0.3v3.4c2.3,0.9,3.9,3.1,3.9,5.7s-1.6,4.8-3.9,5.7v3.4h17.2c5,0,9-4,9-9S22.4,314.6,17.5,314.6z
		 M15.9,329.7c-3.4,0-6.1-2.7-6.1-6.1s2.7-6.1,6.1-6.1s6.1,2.7,6.1,6.1S19.2,329.7,15.9,329.7z"/>
	<path class="st4" d="M17.5,255.8H0.3v3.4c2.3,0.9,3.9,3.1,3.9,5.7s-1.6,4.8-3.9,5.7v3.4h17.2c5,0,9-4,9-9v0
		C26.5,259.9,22.4,255.8,17.5,255.8z M15.9,270.9c-3.4,0-6.1-2.7-6.1-6.1s2.7-6.1,6.1-6.1s6.1,2.7,6.1,6.1S19.2,270.9,15.9,270.9z"
		/>
	<path class="st4" d="M17.5,226.4H0.3v3.4c2.3,0.9,3.9,3.1,3.9,5.7s-1.6,4.8-3.9,5.7v3.4h17.2c5,0,9-4,9-9S22.4,226.4,17.5,226.4z
		 M15.9,241.5c-3.4,0-6.1-2.7-6.1-6.1s2.7-6.1,6.1-6.1s6.1,2.7,6.1,6.1S19.2,241.5,15.9,241.5z"/>
	<path class="st4" d="M17.5,696.7H0.3v3.4c2.3,0.9,3.9,3.1,3.9,5.7s-1.6,4.8-3.9,5.7v3.4h17.2c5,0,9-4,9-9S22.4,696.7,17.5,696.7z
		 M15.9,711.9c-3.4,0-6.1-2.7-6.1-6.1s2.7-6.1,6.1-6.1s6.1,2.7,6.1,6.1S19.2,711.9,15.9,711.9z"/>
	<path class="st4" d="M239.5,794c0-2.6,1.6-4.8,3.9-5.7v-3.4h-17.2c-5,0-9,4-9,9s4,9,9,9h17.2v-3.4
		C241.2,798.7,239.5,796.5,239.5,794z M227.8,800c-3.4,0-6.1-2.7-6.1-6.1s2.7-6.1,6.1-6.1s6.1,2.7,6.1,6.1S231.2,800,227.8,800z"/>
	<path class="st4" d="M239.5,705.8c0-2.6,1.6-4.8,3.9-5.7v-3.4h-17.2c-5,0-9,4-9,9s4,9,9,9h17.2v-3.4
		C241.2,710.6,239.5,708.4,239.5,705.8z M227.8,711.9c-3.4,0-6.1-2.7-6.1-6.1s2.7-6.1,6.1-6.1s6.1,2.7,6.1,6.1
		S231.2,711.9,227.8,711.9z"/>
	<path class="st4" d="M239.5,470.6c0-2.6,1.6-4.8,3.9-5.7v-3.4h-17.2c-5,0-9,4-9,9s4,9,9,9h17.2v-3.4
		C241.2,475.4,239.5,473.2,239.5,470.6z M227.8,476.7c-3.4,0-6.1-2.7-6.1-6.1s2.7-6.1,6.1-6.1s6.1,2.7,6.1,6.1
		S231.2,476.7,227.8,476.7z"/>
	
		<rect x="90" y="564.7" transform="matrix(6.123234e-17 -1 1 6.123234e-17 -473.247 659.8301)" class="st12" width="6.7" height="3.7"/>
	<g>
		<path class="st22" d="M82.2,584H50.4c-1.2,0-2.2-1-2.2-2.2v-23.7c0-1.2,1-2.2,2.2-2.2h31.8c1.2,0,2.2,1,2.2,2.2v23.7
			C84.4,583,83.4,584,82.2,584z"/>
		<path class="st23" d="M79.9,581.5H52.6c-0.8,0-1.4-0.6-1.4-1.4v-20.4c0-0.8,0.6-1.4,1.4-1.4h27.3c0.8,0,1.4,0.6,1.4,1.4v20.4
			C81.3,580.9,80.7,581.5,79.9,581.5z"/>
	</g>
	
		<rect x="90" y="584.6" transform="matrix(6.123234e-17 -1 1 6.123234e-17 -493.1813 679.7645)" class="st12" width="6.7" height="3.7"/>
	<rect x="100.1" y="568.9" class="st7" width="4.2" height="6.9"/>
	<g>
		<path class="st16" d="M42.3,389v-3.6c0-2.2,0.6-3.9,2.6-3.9c0.9,0,1.9,0.5,2.2,1.4h0.1c0.3-1.1,1.1-1.9,2.4-1.9
			c2.1,0,3.1,1.8,3.1,4.1v3.9H42.3z M46.4,385.4c0-1.1-0.5-1.5-1.2-1.5c-0.8,0-1.1,0.5-1.1,1.5v1.1h2.2V385.4z M50.8,385.2
			c0-1.2-0.4-1.8-1.3-1.8s-1.2,0.6-1.2,1.8v1.2h2.5V385.2z"/>
		<path class="st16" d="M47.4,379.7c-3.4,0-5.4-1.9-5.4-4.8s2-4.8,5.4-4.8c3.4,0,5.4,1.9,5.4,4.8S50.8,379.7,47.4,379.7z
			 M47.4,372.7c-2,0-3.2,0.8-3.2,2.2c0,1.4,1.2,2.2,3.2,2.2c2,0,3.3-0.9,3.3-2.2C50.7,373.6,49.4,372.7,47.4,372.7z"/>
		<path class="st16" d="M47.4,368.7c-3.4,0-5.4-1.9-5.4-4.8s2-4.8,5.4-4.8c3.4,0,5.4,1.9,5.4,4.8S50.8,368.7,47.4,368.7z
			 M47.4,361.7c-2,0-3.2,0.8-3.2,2.2c0,1.4,1.2,2.2,3.2,2.2c2,0,3.3-0.9,3.3-2.2C50.7,362.6,49.4,361.7,47.4,361.7z"/>
		<path class="st16" d="M44.3,355.7v2.8h-2.1v-8.1h2.1v2.8h8.3v2.5H44.3z"/>
		<path class="st16" d="M51.3,349.8l-1.6-1.3c0.6-0.7,1-1.7,1-2.6c0-0.9-0.4-1.4-0.9-1.4c-0.6,0-0.8,0.6-1.2,1.5l-0.6,1.3
			c-0.4,1.1-1.3,2.1-2.8,2.1c-1.7,0-3.2-1.6-3.2-3.8c0-1.2,0.5-2.5,1.3-3.4l1.6,1.3c-0.5,0.7-0.8,1.4-0.8,2.1c0,0.8,0.3,1.3,0.8,1.3
			c0.6,0,0.8-0.7,1.2-1.6l0.5-1.3c0.5-1.3,1.4-2.1,2.8-2.1c1.7,0,3.3,1.5,3.3,4C52.9,347.3,52.4,348.7,51.3,349.8z"/>
		<path class="st16" d="M42.3,340.2v-6.6h2.1v4.1h2v-3.5h2.1v3.5h2.2v-4.3h2.1v6.8H42.3z"/>
		<path class="st16" d="M42.3,331.4v-2.5h8.3v-4h2.1v6.5H42.3z"/>
	</g>
	<g>
		<path class="st16" d="M141.4,546.1h3c3.2,0,5.3,1.6,5.3,5.2c0,3.6-2.1,5.2-5.1,5.2h-3.1V546.1z M144.3,554.6
			c1.7,0,2.9-0.8,2.9-3.2c0-2.5-1.2-3.2-2.9-3.2h-0.4v6.4H144.3z"/>
		<path class="st16" d="M151.6,546.1h6.6v2.1h-4.1v2h3.5v2.1h-3.5v2.2h4.3v2.1h-6.8V546.1z"/>
		<path class="st16" d="M160.4,546.1h3.6c2.2,0,3.9,0.6,3.9,2.6c0,0.9-0.5,1.9-1.4,2.2v0.1c1.1,0.3,1.9,1.1,1.9,2.4
			c0,2.1-1.8,3.1-4.1,3.1h-3.9V546.1z M164,550.3c1.1,0,1.5-0.5,1.5-1.2c0-0.8-0.5-1.1-1.5-1.1h-1.1v2.2H164z M164.2,554.7
			c1.2,0,1.8-0.4,1.8-1.3c0-0.9-0.6-1.2-1.8-1.2h-1.2v2.5H164.2z"/>
		<path class="st16" d="M170.1,551.7v-5.5h2.5v5.8c0,2,0.6,2.7,1.7,2.7c1.2,0,1.8-0.7,1.8-2.7v-5.8h2.4v5.5c0,3.5-1.4,5.1-4.2,5.1
			S170.1,555.2,170.1,551.7z"/>
		<path class="st16" d="M180.3,551.4c0-3.5,2.3-5.5,5.1-5.5c1.5,0,2.6,0.6,3.3,1.4l-1.3,1.5c-0.5-0.5-1.1-0.7-1.9-0.7
			c-1.5,0-2.7,1.2-2.7,3.2c0,2.1,0.9,3.3,2.9,3.3c0.4,0,0.8-0.1,1-0.3v-1.7h-1.7v-2h3.9v4.9c-0.7,0.7-2,1.3-3.5,1.3
			C182.6,556.8,180.3,555,180.3,551.4z"/>
	</g>
	<rect x="114.2" y="567.5" class="st24" width="86.4" height="25.6"/>
	<g>
		<path class="st16" d="M40.1,281.9h2.5v8.3h4v2.1h-6.5V281.9z"/>
		<path class="st16" d="M48.4,281.9H55v2.1h-4.1v2h3.5v2.1h-3.5v2.2h4.3v2.1h-6.8V281.9z"/>
		<path class="st16" d="M57.2,281.9h3c3.2,0,5.3,1.6,5.3,5.2c0,3.6-2.1,5.2-5.1,5.2h-3.1V281.9z M60.1,290.3c1.7,0,2.9-0.8,2.9-3.2
			c0-2.5-1.2-3.2-2.9-3.2h-0.4v6.4H60.1z"/>
	</g>
	<g>
		<rect x="143.7" y="431.4" class="st8" width="5.4" height="10.6"/>
		<rect x="143.7" y="433.7" class="st9" width="5.4" height="6"/>
	</g>
	<g>
		<rect x="154.3" y="431.4" class="st8" width="5.4" height="10.6"/>
		<rect x="154.3" y="433.7" class="st9" width="5.4" height="6"/>
	</g>
	<rect x="127.1" y="432.7" class="st7" width="4.2" height="6.9"/>
	
		<rect x="68.6" y="437.8" transform="matrix(6.123234e-17 -1 1 6.123234e-17 -370.4717 511.9434)" class="st7" width="4.2" height="6.9"/>
	<rect x="120.5" y="432.7" class="st9" width="4.2" height="6.9"/>
	<rect x="110.4" y="432.7" class="st9" width="4.2" height="6.9"/>
	<path class="st4" d="M239.5,411.8c0-2.6,1.6-4.8,3.9-5.7v-3.4h-17.2c-5,0-9,4-9,9s4,9,9,9h17.2v-3.4
		C241.2,416.6,239.5,414.4,239.5,411.8z M227.8,417.9c-3.4,0-6.1-2.7-6.1-6.1s2.7-6.1,6.1-6.1s6.1,2.7,6.1,6.1
		S231.2,417.9,227.8,417.9z"/>
	<g>
		
			<rect x="169.4" y="403.9" transform="matrix(-1.836970e-16 1 -1 -1.836970e-16 582.0594 231.2964)" class="st8" width="11.9" height="5.6"/>
		
			<rect x="172.1" y="403.9" transform="matrix(-1.836970e-16 1 -1 -1.836970e-16 582.0594 231.2964)" class="st10" width="6.6" height="5.6"/>
	</g>
</g>
<sodipodi:namedview  bordercolor="#666666" borderopacity="1" gridtolerance="10" guidetolerance="10" id="namedview51" inkscape:current-layer="Ebene_1" inkscape:cx="230.78983" inkscape:cy="405.87561" inkscape:pageopacity="0" inkscape:pageshadow="2" inkscape:window-height="937" inkscape:window-maximized="0" inkscape:window-width="1731" inkscape:window-x="7" inkscape:window-y="27" inkscape:zoom="0.29072947" objecttolerance="10" pagecolor="#ffffff" showgrid="false">
	</sodipodi:namedview>
<circle id="circle281" class="st25" cx="232.1" cy="294.3" r="11.6"/>
<rect id="rect5" x="232.1" y="289.8" class="st25" width="175.1" height="9.1"/>
<g id="layer1">
	<rect id="rect815" x="283" y="0" class="st26" width="178.6" height="237.8"/>
	<rect id="rect821" x="325.2" y="198.8" class="st16" width="92.9" height="32"/>
	<path id="rect825" class="st27" d="M331.3,200.6h18.6c3.2,0,5.9,2.6,5.9,5.9l0,0v16.3c0,3.2-2.6,5.9-5.9,5.9h-18.6
		c-3.2,0-5.9-2.6-5.9-5.9v-16.3C325.4,203.2,328.1,200.6,331.3,200.6L331.3,200.6z"/>
	<path id="rect872" class="st27" d="M393.4,200.6H412c3.2,0,5.9,2.6,5.9,5.9v0v16.3c0,3.2-2.6,5.9-5.9,5.9h-18.6
		c-3.2,0-5.9-2.6-5.9-5.9l0,0v-16.3C387.5,203.2,390.1,200.6,393.4,200.6L393.4,200.6z"/>
	<path id="rect874" class="st27" d="M361.6,200.6h20.1c2.8,0,5.1,2.3,5.1,5.1v17.9c0,2.8-2.3,5.1-5.1,5.1h-20.1
		c-2.8,0-5.1-2.3-5.1-5.1v-17.9C356.5,202.9,358.8,200.6,361.6,200.6z"/>
	<rect id="rect947" x="338.9" y="215.9" class="st28" width="3.4" height="58.6"/>
	<rect id="rect949" x="370.1" y="215.9" class="st28" width="3.4" height="58.6"/>
	<rect id="rect951" x="401" y="215.9" class="st28" width="3.4" height="58.6"/>
	<rect id="rect87" x="308.1" y="165.1" class="st26" width="127.1" height="32"/>
	<path id="path31-1" class="st16" d="M333.8,17.8c1.1,0,1.2,0,1.4-0.2c0.1-0.1,0.3-0.2,0.4-0.3c0.1-0.2,0.1-0.3,0.1-2.6l0-2.4l2.4,0
		l2.4,0v3c0,3.3,0,3.6-0.4,4.5c-0.4,1.1-1.3,1.8-2.5,2c-0.7,0.1-1.4,0.1-2.2,0.1c-0.9,0-2,0-2.3-0.1l-0.6-0.1l0-1.9l0-1.9
		L333.8,17.8L333.8,17.8z M356.2,24.5c20.1,0,25.1,0,24.2,0.1l-0.1,0l0.1,0.1c0.1,0,0.1,0.1-0.1,0.1c-0.1,0-0.1,0,0.2,0.1l0.4,0
		l-0.4,0c-0.2,0-0.4,0-0.3,0c0.1,0,0.1,0.1,0.1,0.6c0,0.5,0,0.5,0.2,0.6c0.1,0,0.1,0-0.1,0c-0.2,0-0.3,0-0.3,0.1c0,0-8,0.1-23.8,0.1
		h-23.8v-1.7L356.2,24.5z M338.1,6.1h2.4V10h-4.8V6.1L338.1,6.1z M342.9,13.3c0.1-1,0.5-2,0.9-2.9c0.1-0.2,0.2-0.4,0.3-0.6
		c0.1-0.1,0.2-0.2,0.3-0.4c0.3-0.4,0.6-0.8,0.9-1.2c0,0,0.1-0.1,0.1-0.1c0.3-0.4,0.7-0.7,1.1-1c0.5-0.4,1.1-0.7,1.8-0.9
		c0.9-0.4,1.9-0.5,2.9-0.4c0.6,0,1.1,0.1,1.7,0.2c0.4,0.1,0.8,0.2,1,0.3c0.1,0.1,0.2,0.1,0.4,0.1c0.2,0.1,0.4,0.2,0.6,0.3
		c1.4,0.9,2.5,2.2,3.3,3.7c0.9,1.9,1.1,4.1,0.3,6c-0.2,0.6-0.5,1.2-0.9,1.8c-0.4,0.6-0.9,1.2-1.4,1.7c-0.9,1-2.1,1.7-3.4,2
		c-1,0.2-2,0.3-3,0.2c-1.2-0.2-2.3-0.7-3.2-1.4c-0.4-0.3-0.7-0.6-1-0.9c-0.1-0.1-0.2-0.3-0.3-0.4c-1-1.1-1.7-2.5-2.1-4
		C342.9,14.8,342.8,14,342.9,13.3L342.9,13.3z M347.4,15.3c0.2,0.9,0.7,1.7,1.4,2.3c0.8,0.7,1.8,0.9,2.8,0.6c1.3-0.5,2.2-1.6,2.5-3
		c0.2-0.9,0.2-1.8,0-2.7c-0.3-1-0.8-1.9-1.7-2.5c-0.3-0.2-0.6-0.4-0.9-0.4c-0.7-0.2-1.5-0.1-2.2,0.2c-0.7,0.4-1.2,1-1.5,1.7
		C347.3,12.8,347.1,14.1,347.4,15.3L347.4,15.3z M360.8,6.2c0,0,1.1,0,2.4,0l2.3,0l0,2.1c0,2,0,2.1,0.1,2.5c0.4,0.9,1.4,1.4,2.4,1.1
		c0.5-0.1,0.9-0.5,1.1-0.9l0.2-0.4l0-2.2l0-2.2h4.8l0,2.5c0.1,1,0,2-0.2,3c-0.2,0.9-0.7,1.7-1.2,2.5c-0.1,0.1-0.2,0.2-0.2,0.4
		c-0.3,0.4-0.7,0.7-1.1,1c-0.4,0.3-0.9,0.6-1.4,0.7c-0.1,0-0.4,0.1-0.7,0.2c-0.6,0.2-1.1,0.2-1.7,0.2c-0.6,0.1-1.2,0-1.8-0.2
		c-0.7-0.1-1.3-0.4-1.9-0.8c-0.7-0.5-1.3-1.1-1.8-1.8c-0.6-0.9-1-1.9-1.2-3C360.7,9.2,360.7,7.7,360.8,6.2L360.8,6.2z M367.4,17.9
		h3.9v4h-7.8v-4L367.4,17.9z M374.1,3.1c0,0,0.1-0.1,0.1-0.2c0-0.2,0-0.2,0.3-0.3c0.2,0,6.8,0,14.6,0l14.3,0l0,0.9l0,0.9h-14.6
		c-8,0-14.6,0-14.7,0C374,4.2,374,4,374,3.6C374,3.3,374,3.1,374.1,3.1L374.1,3.1z M380.6,12.7h4.9v3.9h-9.9v-3.9L380.6,12.7z
		 M389.5,6.1h2.4V10h-4.8V6.1L389.5,6.1z M389.5,12h2.4v10h-4.8V12L389.5,12z M399,6.1h5V10h-10V6.1L399,6.1z M394.8,12.3
		c0,0,1.1,0,2.3,0l2.3,0l0,2.3c0,3.2-0.1,3,2.3,3.1l1.5,0v4l-0.6,0.1c-1.4,0.1-2.9,0.1-4.3,0c-1-0.1-1.9-0.5-2.6-1.3
		c-0.6-0.7-0.9-1.6-1-2.5C394.8,17.3,394.7,12.4,394.8,12.3L394.8,12.3z M406.8,4.2c0.1-0.4,0.3-0.8,0.6-1.1c0.9-0.9,2.4-1,3.4-0.3
		c0.4,0.2,0.7,0.6,0.8,1c0.2,0.3,0.2,0.7,0.2,1c0,0.4,0,0.7-0.2,1.1c-0.4,0.8-1.2,1.4-2.2,1.5c-0.8,0.1-1.6-0.2-2.1-0.8
		C406.8,6,406.5,5.1,406.8,4.2L406.8,4.2z M407.2,5.9c0.3,0.6,0.9,1,1.6,1.2c0.7,0.2,1.5,0,2-0.5c0.2-0.2,0.4-0.4,0.5-0.6
		c0.2-0.3,0.2-0.6,0.2-1c0-0.3,0-0.7-0.2-1c-0.1-0.3-0.3-0.5-0.6-0.7c-0.2-0.2-0.5-0.3-0.7-0.4c-1.1-0.3-2.3,0.2-2.8,1.3
		C407,4.7,407,5.3,407.2,5.9L407.2,5.9z M409,3.4c0.3,0,0.7,0,1,0.1c0.4,0.3,0.5,0.8,0.3,1.2c-0.1,0.1-0.2,0.2-0.4,0.2L409.7,5
		l0.2,0.2c0.2,0.2,0.3,0.4,0.4,0.6c0.1,0.1,0.2,0.3,0.3,0.4c0.1,0.1,0,0.2-0.2,0.2l-0.3,0l-0.4-0.6c-0.4-0.6-0.5-0.7-1-0.7h-0.3v1.3
		l-0.2,0l-0.2,0l0-1.5l0-1.5L409,3.4z M409.1,4.7c0.5,0,0.6,0,0.7-0.1c0.4-0.3,0.2-0.7-0.4-0.8c-0.3,0-0.6,0-0.9,0
		c0,0.1,0,0.3,0,0.4v0.4L409.1,4.7z"/>
	<circle id="path84" class="st29" cx="308.8" cy="32.1" r="17.8"/>
	<circle id="circle86" class="st29" cx="435.6" cy="32.1" r="17.8"/>
	<circle id="path88" class="st30" cx="308.8" cy="32.1" r="15.9"/>
	<circle id="circle90" class="st30" cx="435.6" cy="32.1" r="15.9"/>
	<g id="text72">
		<g class="st31">
			<path class="st16" d="M300.6,134.6c0.1,0,0.1,0,0.2,0c0.1,0,0.1,0.1,0.1,0.2c0,0.1,0.1,0.2,0.1,0.3c0,0.1,0,0.3,0,0.5
				c0,0.3,0,0.5,0,0.7s-0.1,0.3-0.1,0.4c-0.1,0.1-0.1,0.2-0.2,0.2l-8,5.9h8c0.1,0,0.1,0,0.2,0c0.1,0,0.1,0.1,0.1,0.2
				c0,0.1,0.1,0.2,0.1,0.3s0,0.3,0,0.5c0,0.2,0,0.4,0,0.5s0,0.2-0.1,0.3c0,0.1-0.1,0.1-0.1,0.2c-0.1,0-0.1,0-0.2,0h-15.3
				c-0.1,0-0.1,0-0.2,0c0,0-0.1-0.1-0.1-0.2c0-0.1-0.1-0.2-0.1-0.3s0-0.3,0-0.5c0-0.2,0-0.4,0-0.5s0-0.2,0.1-0.3
				c0-0.1,0.1-0.1,0.1-0.2c0,0,0.1,0,0.2,0h7.1l-7.1-5.6c-0.1,0-0.1-0.1-0.2-0.2s-0.1-0.1-0.1-0.2c0-0.1-0.1-0.2-0.1-0.3
				c0-0.1,0-0.3,0-0.5c0-0.2,0-0.4,0-0.5c0-0.1,0-0.2,0.1-0.3c0-0.1,0.1-0.1,0.1-0.2c0,0,0.1,0,0.2,0c0.1,0,0.2,0,0.3,0.1
				s0.3,0.2,0.4,0.3l6.3,5.3l7.5-5.7c0.2-0.1,0.4-0.2,0.4-0.3C300.5,134.6,300.6,134.6,300.6,134.6z"/>
		</g>
		<g class="st31">
			<path class="st16" d="M294.8,126.8h5.9c0.1,0,0.1,0,0.2,0s0.1,0.1,0.1,0.2c0,0.1,0.1,0.2,0.1,0.3c0,0.1,0,0.3,0,0.5
				c0,0.2,0,0.4,0,0.5c0,0.1,0,0.2-0.1,0.3c0,0.1-0.1,0.1-0.1,0.2c0,0-0.1,0-0.2,0h-5.9l-9,4.5c-0.2,0.1-0.3,0.1-0.4,0.2
				s-0.2,0-0.2-0.1c-0.1-0.1-0.1-0.2-0.1-0.3c0-0.2,0-0.4,0-0.6c0-0.2,0-0.4,0-0.6c0-0.2,0-0.3,0.1-0.4c0-0.1,0.1-0.2,0.1-0.2
				c0.1,0,0.1-0.1,0.2-0.1l4.6-2.2c0.4-0.2,0.9-0.4,1.4-0.6c0.5-0.2,1-0.4,1.4-0.6v0c-0.5-0.2-0.9-0.4-1.4-0.6
				c-0.5-0.2-0.9-0.4-1.4-0.6l-4.6-2.2c-0.1,0-0.2-0.1-0.2-0.1c-0.1,0-0.1-0.1-0.1-0.2c0-0.1-0.1-0.2-0.1-0.3c0-0.1,0-0.3,0-0.5
				c0-0.3,0-0.5,0-0.7s0.1-0.3,0.1-0.4c0.1-0.1,0.1-0.1,0.2-0.1s0.2,0.1,0.4,0.2L294.8,126.8z"/>
		</g>
		<g class="st31">
			<path class="st16" d="M294.8,116.3c0.3,0,0.5,0,0.7,0.1s0.2,0.2,0.2,0.3v5.1c0,0.1-0.1,0.3-0.2,0.3s-0.3,0.1-0.7,0.1
				s-0.5,0-0.7-0.1s-0.2-0.2-0.2-0.3v-5.1c0-0.1,0-0.1,0-0.2c0-0.1,0.1-0.1,0.1-0.1c0.1,0,0.2-0.1,0.3-0.1
				C294.5,116.3,294.6,116.3,294.8,116.3z"/>
			<path class="st16" d="M293,103.6c1.2,0,2.3,0.1,3.3,0.3s1.9,0.5,2.6,1c0.7,0.4,1.3,1,1.7,1.8c0.4,0.7,0.6,1.6,0.6,2.7
				c0,1-0.2,1.8-0.5,2.5s-0.9,1.2-1.6,1.7c-0.7,0.4-1.5,0.7-2.6,0.9c-1,0.2-2.2,0.3-3.5,0.3c-1.2,0-2.3-0.1-3.3-0.3
				c-1-0.2-1.9-0.5-2.6-1c-0.7-0.4-1.3-1-1.7-1.7s-0.6-1.6-0.6-2.7c0-1,0.2-1.9,0.5-2.5s0.9-1.2,1.6-1.7c0.7-0.4,1.5-0.7,2.6-0.9
				C290.5,103.6,291.7,103.6,293,103.6z M293.1,105.7c-0.8,0-1.5,0-2.1,0.1c-0.6,0.1-1.2,0.1-1.7,0.3c-0.5,0.1-0.9,0.3-1.2,0.4
				s-0.6,0.4-0.9,0.6s-0.4,0.5-0.5,0.8c-0.1,0.3-0.2,0.7-0.2,1.1c0,0.7,0.2,1.3,0.5,1.7c0.3,0.4,0.8,0.8,1.4,1s1.2,0.4,2,0.5
				c0.8,0.1,1.6,0.1,2.5,0.1c1.2,0,2.2-0.1,3-0.2c0.8-0.1,1.5-0.3,2-0.6c0.5-0.3,0.9-0.6,1.1-1c0.2-0.4,0.4-0.9,0.4-1.5
				c0-0.5-0.1-0.9-0.2-1.2c-0.1-0.3-0.4-0.6-0.6-0.9s-0.6-0.5-1-0.6c-0.4-0.2-0.8-0.3-1.3-0.4c-0.5-0.1-1-0.2-1.5-0.2
				S293.7,105.7,293.1,105.7z"/>
			<path class="st16" d="M300.1,91.3c0.2,0,0.3,0,0.4,0s0.2,0.1,0.3,0.1c0.1,0,0.1,0.1,0.1,0.1c0,0.1,0,0.1,0,0.2v8.3
				c0,0.1,0,0.1,0,0.2c0,0-0.1,0.1-0.1,0.1c-0.1,0-0.2,0.1-0.3,0.1c-0.1,0-0.2,0-0.4,0c-0.1,0-0.3,0-0.4,0c-0.1,0-0.2-0.1-0.3-0.1
				c-0.1,0-0.1-0.1-0.2-0.1c0-0.1-0.1-0.1-0.1-0.2v-3.3h-12.1l1.8,3.1c0.1,0.2,0.1,0.3,0.1,0.4c0,0.1,0,0.2-0.1,0.2
				c-0.1,0.1-0.1,0.1-0.3,0.1c-0.1,0-0.3,0-0.5,0c-0.1,0-0.3,0-0.4,0c-0.1,0-0.2,0-0.2-0.1c-0.1,0-0.1-0.1-0.2-0.1
				c0,0-0.1-0.1-0.1-0.2l-2.3-3.7c0,0,0-0.1-0.1-0.1c0,0,0-0.1,0-0.2c0-0.1,0-0.2,0-0.3c0-0.1,0-0.2,0-0.4c0-0.2,0-0.4,0-0.5
				c0-0.1,0-0.2,0.1-0.3c0-0.1,0.1-0.1,0.1-0.1s0.1,0,0.1,0h14v-2.9c0-0.1,0-0.1,0.1-0.2c0-0.1,0.1-0.1,0.2-0.1
				c0.1,0,0.2-0.1,0.3-0.1C299.9,91.3,300,91.3,300.1,91.3z"/>
			<path class="st16" d="M300.1,78.6c0.1,0,0.3,0,0.4,0c0.1,0,0.2,0,0.3,0.1c0.1,0,0.1,0.1,0.2,0.1c0,0.1,0.1,0.1,0.1,0.2v8.8
				c0,0.1,0,0.2,0,0.3s-0.1,0.2-0.1,0.2s-0.2,0.1-0.3,0.1c-0.1,0-0.3,0-0.5,0c-0.2,0-0.3,0-0.4,0c-0.1,0-0.2,0-0.3-0.1
				c-0.1,0-0.2-0.1-0.3-0.2c-0.1-0.1-0.2-0.1-0.3-0.2l-3.3-3.2c-0.8-0.7-1.4-1.3-2-1.8c-0.6-0.4-1.1-0.8-1.6-1
				c-0.5-0.2-0.9-0.4-1.3-0.5s-0.8-0.1-1.1-0.1s-0.7,0.1-1,0.2s-0.6,0.3-0.8,0.5c-0.2,0.2-0.4,0.5-0.6,0.8c-0.1,0.3-0.2,0.7-0.2,1.2
				c0,0.5,0.1,1,0.2,1.4c0.1,0.4,0.3,0.8,0.5,1.1c0.2,0.3,0.3,0.6,0.5,0.8s0.2,0.4,0.2,0.5c0,0.1,0,0.1,0,0.2c0,0-0.1,0.1-0.2,0.1
				c-0.1,0-0.2,0.1-0.3,0.1c-0.1,0-0.3,0-0.4,0c-0.1,0-0.2,0-0.3,0c-0.1,0-0.2,0-0.2,0c-0.1,0-0.1,0-0.2-0.1c-0.1,0-0.1-0.1-0.2-0.2
				c-0.1-0.1-0.2-0.3-0.3-0.5c-0.1-0.2-0.3-0.5-0.4-0.9c-0.1-0.4-0.3-0.8-0.4-1.2c-0.1-0.4-0.1-0.9-0.1-1.4c0-0.8,0.1-1.4,0.3-2
				c0.2-0.6,0.5-1.1,0.9-1.4c0.4-0.4,0.8-0.7,1.3-0.9c0.5-0.2,1-0.3,1.6-0.3c0.5,0,1,0,1.5,0.1c0.5,0.1,1,0.3,1.6,0.6s1.2,0.7,2,1.3
				s1.5,1.3,2.5,2.2l2.6,2.5V79c0-0.1,0-0.1,0.1-0.2c0-0.1,0.1-0.1,0.2-0.2c0.1,0,0.2-0.1,0.3-0.1S299.9,78.6,300.1,78.6z"/>
		</g>
	</g>
	<g id="text76">
		<g class="st31">
			<path class="st16" d="M326.7,64.9c0,0.2,0,0.3,0,0.4c0,0.1-0.1,0.2-0.1,0.3c0,0.1-0.1,0.1-0.1,0.2c-0.1,0-0.1,0-0.2,0h-4v4.5
				c0,0.1,0,0.1,0,0.2c0,0-0.1,0.1-0.2,0.1c-0.1,0-0.2,0.1-0.3,0.1c-0.1,0-0.3,0-0.4,0c-0.2,0-0.3,0-0.4,0c-0.1,0-0.2,0-0.3-0.1
				c-0.1,0-0.1-0.1-0.2-0.1c0,0,0-0.1,0-0.2v-4.5h-4c-0.1,0-0.1,0-0.2,0c-0.1,0-0.1-0.1-0.1-0.2c0-0.1-0.1-0.2-0.1-0.3
				c0-0.1,0-0.2,0-0.4c0-0.1,0-0.3,0-0.4c0-0.1,0.1-0.2,0.1-0.3c0-0.1,0.1-0.1,0.1-0.2c0.1,0,0.1,0,0.2,0h4v-4.5c0-0.1,0-0.1,0-0.2
				c0-0.1,0.1-0.1,0.2-0.1c0.1,0,0.2-0.1,0.3-0.1c0.1,0,0.3,0,0.4,0c0.2,0,0.3,0,0.4,0c0.1,0,0.2,0,0.3,0.1c0.1,0,0.1,0.1,0.2,0.1
				c0,0.1,0,0.1,0,0.2v4.5h4c0.1,0,0.1,0,0.2,0c0.1,0,0.1,0.1,0.1,0.2c0,0.1,0.1,0.2,0.1,0.3S326.7,64.8,326.7,64.9z"/>
		</g>
	</g>
	<g id="text82">
		<g class="st31">
			<path class="st16" d="M424.2,65.8c0,0.3-0.1,0.5-0.2,0.7s-0.3,0.2-0.5,0.2h-7.7c-0.2,0-0.4-0.1-0.5-0.2s-0.2-0.3-0.2-0.7
				s0.1-0.5,0.2-0.7s0.3-0.2,0.5-0.2h7.7c0.1,0,0.2,0,0.3,0c0.1,0,0.1,0.1,0.2,0.1c0.1,0.1,0.1,0.2,0.1,0.3
				C424.2,65.5,424.2,65.6,424.2,65.8z"/>
		</g>
	</g>
	<circle id="path92" class="st32" cx="372.2" cy="118.1" r="69.4"/>
	<circle id="path94" class="st29" cx="372.2" cy="118.1" r="19.8"/>
	<g id="text88">
		<g class="st31">
			<path class="st16" d="M438.8,214.7c0,0.3-0.1,0.5-0.3,0.7c-0.2,0.1-0.4,0.2-0.8,0.2h-12.2c-0.3,0-0.6-0.1-0.8-0.2
				c-0.2-0.1-0.3-0.3-0.3-0.7s0.1-0.5,0.3-0.7c0.2-0.1,0.4-0.2,0.8-0.2h12.2c0.2,0,0.3,0,0.4,0c0.1,0,0.2,0.1,0.3,0.1
				c0.1,0.1,0.2,0.2,0.2,0.3C438.7,214.4,438.8,214.5,438.8,214.7z"/>
		</g>
	</g>
	<g id="text96">
		<g class="st31">
			<path class="st16" d="M316.4,217.1c0,0.7-0.1,1.4-0.4,2c-0.3,0.6-0.7,1.1-1.1,1.5c-0.5,0.4-1.1,0.7-1.7,0.9
				c-0.7,0.2-1.4,0.3-2.1,0.3c-0.5,0-1,0-1.5-0.1c-0.5-0.1-0.9-0.2-1.2-0.3s-0.7-0.3-0.9-0.4c-0.2-0.1-0.4-0.3-0.5-0.4
				c-0.1-0.1-0.2-0.2-0.2-0.4c0-0.2-0.1-0.4-0.1-0.6c0-0.2,0-0.3,0-0.4c0-0.1,0-0.2,0.1-0.3c0-0.1,0.1-0.1,0.1-0.2c0,0,0.1,0,0.2,0
				c0.1,0,0.3,0.1,0.5,0.2c0.2,0.1,0.5,0.3,0.8,0.5c0.3,0.2,0.7,0.3,1.2,0.5s1,0.2,1.6,0.2c0.5,0,0.9-0.1,1.3-0.2
				c0.4-0.1,0.7-0.3,1-0.5c0.3-0.2,0.5-0.5,0.6-0.8c0.1-0.3,0.2-0.7,0.2-1.1c0-0.5-0.1-0.8-0.3-1.2c-0.2-0.3-0.5-0.6-0.8-0.8
				c-0.3-0.2-0.7-0.5-1.1-0.7c-0.4-0.2-0.9-0.4-1.3-0.6s-0.9-0.4-1.3-0.7c-0.4-0.3-0.8-0.6-1.1-0.9c-0.3-0.3-0.6-0.7-0.8-1.2
				s-0.3-1-0.3-1.7c0-0.7,0.1-1.3,0.4-1.8c0.2-0.5,0.6-1,1-1.3c0.4-0.4,0.9-0.6,1.5-0.8c0.6-0.2,1.2-0.3,1.9-0.3
				c0.4,0,0.7,0,1.1,0.1c0.4,0.1,0.7,0.1,1,0.2s0.6,0.2,0.8,0.3s0.4,0.2,0.5,0.3c0.1,0.1,0.1,0.1,0.2,0.2c0,0,0,0.1,0.1,0.2
				c0,0.1,0,0.2,0,0.3c0,0.1,0,0.2,0,0.4c0,0.1,0,0.3,0,0.4s0,0.2-0.1,0.3c0,0.1-0.1,0.1-0.1,0.2c0,0-0.1,0.1-0.2,0.1
				c-0.1,0-0.2-0.1-0.4-0.2s-0.4-0.2-0.7-0.4c-0.3-0.1-0.6-0.3-1-0.4c-0.4-0.1-0.8-0.2-1.3-0.2c-0.4,0-0.8,0.1-1.2,0.2
				c-0.3,0.1-0.6,0.3-0.8,0.5c-0.2,0.2-0.4,0.4-0.5,0.7s-0.2,0.6-0.2,0.9c0,0.4,0.1,0.8,0.3,1.1c0.2,0.3,0.5,0.6,0.8,0.8
				s0.7,0.5,1.2,0.7c0.4,0.2,0.9,0.4,1.3,0.6c0.5,0.2,0.9,0.4,1.3,0.7s0.8,0.5,1.2,0.9c0.3,0.3,0.6,0.7,0.8,1.2
				S316.4,216.5,316.4,217.1z"/>
		</g>
	</g>
</g>
<circle id="circle281-2" class="st25" cx="402.7" cy="242.6" r="11.6"/>
<circle id="circle281-3" class="st33" cx="340.6" cy="242.6" r="11.6"/>
<rect id="rect45" x="398.1" y="242.6" class="st25" width="9.1" height="56.3"/>
<circle id="circle281-4" class="st34" cx="232.1" cy="705.8" r="11.6"/>
<rect id="rect853" x="232.1" y="701.2" class="st33" width="113.1" height="9.1"/>
<rect id="rect853-2" x="336.1" y="242.6" class="st33" width="9.1" height="467.7"/>
</svg>
