<?xml version="1.0" encoding="UTF-8"?>
<svg xmlns="http://www.w3.org/2000/svg" xmlns:svg="http://www.w3.org/2000/svg" xmlns:sodipodi="http://sodipodi.sourceforge.net/DTD/sodipodi-0.dtd" xmlns:rdf="http://www.w3.org/1999/02/22-rdf-syntax-ns#" xmlns:inkscape="http://www.inkscape.org/namespaces/inkscape" xmlns:dc="http://purl.org/dc/elements/1.1/" xmlns:cc="http://creativecommons.org/ns#" version="1.1" viewBox="0 0 610.8 930.2">
  <defs>
    <style>
      .cls-1 {
        fill: #02814b;
      }

      .cls-2, .cls-3, .cls-4, .cls-5, .cls-6 {
        isolation: isolate;
      }

      .cls-2, .cls-4, .cls-5, .cls-6 {
        opacity: 1;
      }

      .cls-7 {
        fill: #868c97;
      }

      .cls-8 {
        stroke: #fff;
      }

      .cls-8, .cls-9 {
        fill: none;
        stroke-miterlimit: 10;
      }

      .cls-10 {
        fill: #c2bfab;
      }

      .cls-11 {
        fill: #e8d28a;
      }

      .cls-12 {
        fill: #8dddde;
      }

      .cls-13 {
        fill: #cecece;
      }

      .cls-14 {
        fill: #c1c1c1;
      }

      .cls-15 {
        fill: #b9a68f;
      }

      .cls-16 {
        fill: #141316;
      }

      .cls-17 {
        fill: #e2eade;
      }

      .cls-18 {
        fill: #e10a17;
      }

      .cls-4 {
        fill: #cccbcb;
      }

      .cls-19 {
        fill: #905014;
      }

      .cls-20 {
        fill: #474544;
      }

      .cls-21 {
        fill: #ddd;
      }

      .cls-22 {
        fill: #22ad86;
      }

      .cls-23 {
        fill: #fee86f;
      }

      .cls-24 {
        fill: #914f00;
      }

      .cls-25, .cls-6 {
        fill: #fff;
      }

      .cls-26 {
        fill: green;
      }

      .cls-27 {
        fill: #c29148;
      }

      .cls-28 {
        fill: #e30613;
      }

      .cls-29 {
        fill: #e0b45b;
      }

      .cls-30 {
        fill: #d4c547;
      }

      .cls-31 {
        fill: #54bdc2;
      }

      .cls-32 {
        fill: #00b589;
      }

      .cls-33 {
        fill: #fcfcfa;
      }

      .cls-5 {
        fill: gray;
      }

      .cls-34 {
        fill: #7f7f7f;
      }

      .cls-35 {
        fill: #525035;
      }

      .cls-36 {
        fill: #ffe17b;
      }

      .cls-37 {
        fill: #aba28e;
      }

      .cls-38 {
        fill: #1a1a1a;
      }

      .cls-9 {
        stroke: #95ac6e;
      }

      .cls-39 {
        fill: #36323e;
      }
    </style>
  </defs>
  <!-- Generator: Adobe Illustrator 28.7.0, SVG Export Plug-In . SVG Version: 1.2.0 Build 136)  -->
  <g>
    <g id="svg4098">
      <g>
        <path class="cls-1" d="M243.3,348.2v-11.9H.2v11.9c2.3.9,3.9,3.1,3.9,5.7s-1.6,4.8-3.9,5.7v18.1c2.3.9,3.9,3.1,3.9,5.7s-1.6,4.8-3.9,5.7v17.9c2.3.9,3.9,3.1,3.9,5.7s-1.6,4.8-3.9,5.7v18.1c2.3.9,3.9,3.1,3.9,5.7s-1.6,4.8-3.9,5.7v18.1c2.3.9,3.9,3.1,3.9,5.7s-1.6,4.8-3.9,5.7v18.1c2.3.9,3.9,3.1,3.9,5.7s-1.6,4.8-3.9,5.7v18.1c2.3.9,3.9,3.1,3.9,5.7s-1.6,4.8-3.9,5.7v17.6c2.3.9,3.9,3.1,3.9,5.7s-1.6,4.8-3.9,5.7v18.1c2.3.9,3.9,3.1,3.9,5.7s-1.6,4.8-3.9,5.7v18.1c2.3.9,3.9,3.1,3.9,5.7s-1.6,4.8-3.9,5.7v18.1c2.3.9,3.9,3.1,3.9,5.7s-1.6,4.8-3.9,5.7v18.1c2.3.9,3.9,3.1,3.9,5.7s-1.6,4.8-3.9,5.7v18.1c2.3.9,3.9,3.1,3.9,5.7s-1.6,4.8-3.9,5.7v18.1c2.3.9,3.9,3.1,3.9,5.7s-1.6,4.8-3.9,5.7v18.1c2.3.9,3.9,3.1,3.9,5.7s-1.6,4.8-3.9,5.7v18.1c2.3.9,3.9,3.1,3.9,5.7s-1.6,4.8-3.9,5.7v18.1c2.3.9,3.9,3.1,3.9,5.7s-1.6,4.8-3.9,5.7v18.1c2.3.9,3.9,3.1,3.9,5.7s-1.6,4.8-3.9,5.7v18c2.3.9,3.9,3.1,3.9,5.7s-1.6,4.8-3.9,5.7v18.1c2.3.9,3.9,3.1,3.9,5.7s-1.6,4.8-3.9,5.7v10.7h243.1v-12c-2.2-.9-3.8-3.1-3.8-5.7s1.6-4.8,3.8-5.7v-18.1c-2.2-.9-3.8-3.1-3.8-5.7s1.6-4.8,3.8-5.7v-18.1c-2.2-.9-3.8-3.1-3.8-5.7s1.6-4.8,3.8-5.7v-18.1c-2.2-.9-3.8-3.1-3.8-5.7s1.6-4.8,3.8-5.7v-18.1c-2.2-.9-3.8-3.1-3.8-5.7s1.6-4.8,3.8-5.7v-18.1c-2.2-.9-3.8-3.1-3.8-5.7s1.6-4.8,3.8-5.7v-18.1c-2.2-.9-3.8-3.1-3.8-5.7s1.6-4.8,3.8-5.7v-18.1c-2.2-.9-3.8-3.1-3.8-5.7s1.6-4.8,3.8-5.7v-18.1c-2.2-.9-3.8-3.1-3.8-5.7s1.6-4.8,3.8-5.7v-18.1c-2.2-.9-3.8-3.1-3.8-5.7s1.6-4.8,3.8-5.7v-18.1c-2.2-.9-3.8-3.1-3.8-5.7s1.6-4.8,3.8-5.7v-18.1c-2.2-.9-3.8-3.1-3.8-5.7s1.6-4.8,3.8-5.7v-18.1c-2.2-.9-3.8-3.1-3.8-5.7s1.6-4.8,3.8-5.7v-18.1c-2.2-.9-3.8-3.1-3.8-5.7s1.6-4.8,3.8-5.7v-18.1c-2.2-.9-3.8-3.1-3.8-5.7s1.6-4.8,3.8-5.7v-18.1c-2.2-.9-3.8-3.1-3.8-5.7s1.6-4.8,3.8-5.7v-18.1c-2.2-.9-3.8-3.1-3.8-5.7s1.6-4.8,3.8-5.7v-18.1c-2.2-.9-3.8-3.1-3.8-5.7s1.6-4.8,3.8-5.7v-18.1c-2.2-.9-3.8-3.1-3.8-5.7s1.6-4.8,3.8-5.7v-18.1c-2.2-.9-3.8-3.1-3.8-5.7s1.6-2.7,3.8-3.6ZM15.8,918.5c-3.4,0-6.1-2.7-6.1-6.1s2.7-6.1,6.1-6.1,6.1,2.7,6.1,6.1-2.7,6.1-6.1,6.1ZM15.8,889c-3.4,0-6.1-2.7-6.1-6.1s2.7-6.1,6.1-6.1,6.1,2.7,6.1,6.1-2.7,6.1-6.1,6.1ZM15.8,859.7c-3.4,0-6.1-2.7-6.1-6.1s2.7-6.1,6.1-6.1,6.1,2.7,6.1,6.1-2.7,6.1-6.1,6.1ZM15.8,830.3c-3.4,0-6.1-2.7-6.1-6.1s2.7-6.1,6.1-6.1,6.1,2.7,6.1,6.1-2.7,6.1-6.1,6.1ZM15.8,800.9c-3.4,0-6.1-2.7-6.1-6.1s2.7-6.1,6.1-6.1,6.1,2.7,6.1,6.1-2.7,6.1-6.1,6.1ZM15.8,771.5c-3.4,0-6.1-2.7-6.1-6.1s2.7-6.1,6.1-6.1,6.1,2.7,6.1,6.1-2.7,6.1-6.1,6.1ZM15.8,742.1c-3.4,0-6.1-2.7-6.1-6.1s2.7-6.1,6.1-6.1,6.1,2.7,6.1,6.1-2.7,6.1-6.1,6.1ZM15.8,712.7c-3.4,0-6.1-2.7-6.1-6.1s2.7-6.1,6.1-6.1,6.1,2.7,6.1,6.1-2.7,6.1-6.1,6.1ZM15.8,683.3c-3.4,0-6.1-2.7-6.1-6.1s2.7-6.1,6.1-6.1,6.1,2.7,6.1,6.1-2.7,6.1-6.1,6.1ZM15.8,653.9c-3.4,0-6.1-2.7-6.1-6.1s2.7-6.1,6.1-6.1,6.1,2.7,6.1,6.1-2.7,6.1-6.1,6.1ZM15.8,624.5c-3.4,0-6.1-2.7-6.1-6.1s2.7-6.1,6.1-6.1,6.1,2.7,6.1,6.1-2.7,6.1-6.1,6.1ZM15.8,595.1c-3.4,0-6.1-2.7-6.1-6.1s2.7-6.1,6.1-6.1,6.1,2.7,6.1,6.1-2.7,6.1-6.1,6.1ZM15.8,565.7c-3.4,0-6.1-2.7-6.1-6.1s2.7-6.1,6.1-6.1,6.1,2.7,6.1,6.1-2.7,6.1-6.1,6.1ZM15.8,536.3c-3.4,0-6.1-2.7-6.1-6.1s2.7-6.1,6.1-6.1,6.1,2.7,6.1,6.1-2.7,6.1-6.1,6.1ZM15.8,506.9c-3.4,0-6.1-2.7-6.1-6.1s2.7-6.1,6.1-6.1,6.1,2.7,6.1,6.1-2.7,6.1-6.1,6.1ZM15.8,477.5c-3.4,0-6.1-2.7-6.1-6.1s2.7-6.1,6.1-6.1,6.1,2.7,6.1,6.1-2.7,6.1-6.1,6.1ZM15.8,448.1c-3.4,0-6.1-2.7-6.1-6.1s2.7-6.1,6.1-6.1,6.1,2.7,6.1,6.1-2.7,6.1-6.1,6.1ZM15.8,418.7c-3.4,0-6.1-2.7-6.1-6.1s2.7-6.1,6.1-6.1,6.1,2.7,6.1,6.1-2.7,6.1-6.1,6.1ZM15.8,389.3c-3.4,0-6.1-2.7-6.1-6.1s2.7-6.1,6.1-6.1,6.1,2.7,6.1,6.1-2.7,6.1-6.1,6.1ZM15.8,359.9c-3.4,0-6.1-2.7-6.1-6.1s2.7-6.1,6.1-6.1,6.1,2.7,6.1,6.1-2.7,6.1-6.1,6.1ZM53.7,918.4c-6.7,0-12.1-5.4-12.1-12.1s5.4-12.1,12.1-12.1,12.1,5.4,12.1,12.1-5.4,12.1-12.1,12.1ZM53.7,371.3c-6.7,0-12.1-5.4-12.1-12.1s5.4-12.1,12.1-12.1,12.1,5.4,12.1,12.1c0,6.6-5.4,12.1-12.1,12.1ZM127.6,704.5c-3.1,0-5.7-2.6-5.7-5.7s2.6-5.7,5.7-5.7,5.7,2.6,5.7,5.7-2.6,5.7-5.7,5.7ZM157,704.5c-3.1,0-5.7-2.6-5.7-5.7s2.6-5.7,5.7-5.7,5.7,2.6,5.7,5.7-2.5,5.7-5.7,5.7ZM186.2,347c6.7,0,12.1,5.4,12.1,12.1s-5.4,12.1-12.1,12.1-12.1-5.4-12.1-12.1c0-6.6,5.5-12.1,12.1-12.1ZM192.5,698.8c0,3.1-2.6,5.7-5.7,5.7s-5.7-2.6-5.7-5.7,2.6-5.7,5.7-5.7,5.7,2.6,5.7,5.7ZM188.2,918.4c-6.7,0-12.1-5.4-12.1-12.1s5.4-12.1,12.1-12.1,12.1,5.4,12.1,12.1-5.4,12.1-12.1,12.1ZM227.8,918.5c-3.4,0-6.1-2.7-6.1-6.1s2.7-6.1,6.1-6.1,6.1,2.7,6.1,6.1-2.7,6.1-6.1,6.1ZM227.8,889.1c-3.4,0-6.1-2.7-6.1-6.1s2.7-6.1,6.1-6.1,6.1,2.7,6.1,6.1-2.7,6.1-6.1,6.1ZM227.8,859.7c-3.4,0-6.1-2.7-6.1-6.1s2.7-6.1,6.1-6.1,6.1,2.7,6.1,6.1-2.7,6.1-6.1,6.1ZM227.8,830.3c-3.4,0-6.1-2.7-6.1-6.1s2.7-6.1,6.1-6.1,6.1,2.7,6.1,6.1-2.7,6.1-6.1,6.1ZM227.8,800.9c-3.4,0-6.1-2.7-6.1-6.1s2.7-6.1,6.1-6.1,6.1,2.7,6.1,6.1-2.7,6.1-6.1,6.1ZM227.8,771.5c-3.4,0-6.1-2.7-6.1-6.1s2.7-6.1,6.1-6.1,6.1,2.7,6.1,6.1-2.7,6.1-6.1,6.1ZM227.8,742.1c-3.4,0-6.1-2.7-6.1-6.1s2.7-6.1,6.1-6.1,6.1,2.7,6.1,6.1-2.7,6.1-6.1,6.1ZM227.8,712.7c-3.4,0-6.1-2.7-6.1-6.1s2.7-6.1,6.1-6.1,6.1,2.7,6.1,6.1-2.7,6.1-6.1,6.1ZM227.8,683.3c-3.4,0-6.1-2.7-6.1-6.1s2.7-6.1,6.1-6.1,6.1,2.7,6.1,6.1-2.7,6.1-6.1,6.1ZM227.8,653.9c-3.4,0-6.1-2.7-6.1-6.1s2.7-6.1,6.1-6.1,6.1,2.7,6.1,6.1-2.7,6.1-6.1,6.1ZM227.8,624.5c-3.4,0-6.1-2.7-6.1-6.1s2.7-6.1,6.1-6.1,6.1,2.7,6.1,6.1-2.7,6.1-6.1,6.1ZM227.8,595.1c-3.4,0-6.1-2.7-6.1-6.1s2.7-6.1,6.1-6.1,6.1,2.7,6.1,6.1-2.7,6.1-6.1,6.1ZM227.8,565.7c-3.4,0-6.1-2.7-6.1-6.1s2.7-6.1,6.1-6.1,6.1,2.7,6.1,6.1-2.7,6.1-6.1,6.1ZM227.8,536.3c-3.4,0-6.1-2.7-6.1-6.1s2.7-6.1,6.1-6.1,6.1,2.7,6.1,6.1-2.7,6.1-6.1,6.1ZM227.8,506.9c-3.4,0-6.1-2.7-6.1-6.1s2.7-6.1,6.1-6.1,6.1,2.7,6.1,6.1-2.7,6.1-6.1,6.1ZM227.8,477.5c-3.4,0-6.1-2.7-6.1-6.1s2.7-6.1,6.1-6.1,6.1,2.7,6.1,6.1-2.7,6.1-6.1,6.1ZM227.8,448.1c-3.4,0-6.1-2.7-6.1-6.1s2.7-6.1,6.1-6.1,6.1,2.7,6.1,6.1-2.7,6.1-6.1,6.1ZM227.8,418.7c-3.4,0-6.1-2.7-6.1-6.1s2.7-6.1,6.1-6.1,6.1,2.7,6.1,6.1-2.7,6.1-6.1,6.1ZM227.8,389.3c-3.4,0-6.1-2.7-6.1-6.1s2.7-6.1,6.1-6.1,6.1,2.7,6.1,6.1-2.7,6.1-6.1,6.1ZM227.8,359.9c-3.4,0-6.1-2.7-6.1-6.1s2.7-6.1,6.1-6.1,6.1,2.7,6.1,6.1-2.7,6.1-6.1,6.1Z"/>
        <path class="cls-30" d="M53.7,338.6c-11.3,0-20.5,9.2-20.5,20.5s9.2,20.5,20.5,20.5,20.5-9.2,20.5-20.5c.1-11.3-9.1-20.5-20.5-20.5ZM53.7,371.3c-6.7,0-12.1-5.4-12.1-12.1s5.4-12.1,12.1-12.1,12.1,5.4,12.1,12.1c0,6.7-5.4,12.1-12.1,12.1Z"/>
        <path class="cls-30" d="M186.3,338.6c-11.3,0-20.5,9.2-20.5,20.5s9.2,20.5,20.5,20.5,20.5-9.2,20.5-20.5-9.2-20.5-20.5-20.5ZM186.3,371.3c-6.7,0-12.1-5.4-12.1-12.1s5.4-12.1,12.1-12.1,12.1,5.4,12.1,12.1c0,6.7-5.4,12.1-12.1,12.1Z"/>
        <path class="cls-30" d="M53.7,885.8c-11.3,0-20.5,9.2-20.5,20.5s9.2,20.5,20.5,20.5,20.5-9.2,20.5-20.5-9.1-20.5-20.5-20.5ZM53.7,918.4c-6.7,0-12.1-5.4-12.1-12.1s5.4-12.1,12.1-12.1,12.1,5.4,12.1,12.1-5.4,12.1-12.1,12.1Z"/>
        <path class="cls-30" d="M188.3,885.8c-11.3,0-20.5,9.2-20.5,20.5s9.2,20.5,20.5,20.5,20.5-9.2,20.5-20.5-9.2-20.5-20.5-20.5ZM188.3,918.4c-6.7,0-12.1-5.4-12.1-12.1s5.4-12.1,12.1-12.1,12.1,5.4,12.1,12.1-5.4,12.1-12.1,12.1Z"/>
        <circle class="cls-35" cx="55" cy="423.9" r="10.6"/>
        <circle class="cls-23" cx="55" cy="423.9" r="5.5"/>
        <path class="cls-36" d="M17.5,403.7H.3v3.4c2.3.9,3.9,3.1,3.9,5.7s-1.6,4.8-3.9,5.7v3.4h17.2c5,0,9-4,9-9h0c0-5.2-4.1-9.2-9-9.2ZM15.9,418.8c-3.4,0-6.1-2.7-6.1-6.1s2.7-6.1,6.1-6.1,6.1,2.7,6.1,6.1-2.8,6.1-6.1,6.1Z"/>
        <path class="cls-36" d="M17.5,550.6H.3v3.4c2.3.9,3.9,3.1,3.9,5.7s-1.6,4.8-3.9,5.7v3.4h17.2c5,0,9-4,9-9s-4.1-9.2-9-9.2ZM15.9,565.7c-3.4,0-6.1-2.7-6.1-6.1s2.7-6.1,6.1-6.1,6.1,2.7,6.1,6.1-2.8,6.1-6.1,6.1Z"/>
        <path class="cls-36" d="M17.5,697.6H.3v3.4c2.3.9,3.9,3.1,3.9,5.7s-1.6,4.8-3.9,5.7v3.4h17.2c5,0,9-4,9-9s-4.1-9.2-9-9.2ZM15.9,712.7c-3.4,0-6.1-2.7-6.1-6.1s2.7-6.1,6.1-6.1,6.1,2.7,6.1,6.1-2.8,6.1-6.1,6.1Z"/>
        <path class="cls-36" d="M17.5,727H.3v3.4c2.3.9,3.9,3.1,3.9,5.7s-1.6,4.8-3.9,5.7v3.4h17.2c5,0,9-4,9-9s-4.1-9.2-9-9.2ZM15.9,742.1c-3.4,0-6.1-2.7-6.1-6.1s2.7-6.1,6.1-6.1,6.1,2.7,6.1,6.1-2.8,6.1-6.1,6.1Z"/>
        <path class="cls-36" d="M17.5,756.4H.3v3.4c2.3.9,3.9,3.1,3.9,5.7s-1.6,4.8-3.9,5.7v3.4h17.2c5,0,9-4,9-9s-4.1-9.2-9-9.2ZM15.9,771.5c-3.4,0-6.1-2.7-6.1-6.1s2.7-6.1,6.1-6.1,6.1,2.7,6.1,6.1-2.8,6.1-6.1,6.1Z"/>
        <path class="cls-36" d="M17.5,785.8H.3v3.4c2.3.9,3.9,3.1,3.9,5.7s-1.6,4.8-3.9,5.7v3.4h17.2c5,0,9-4,9-9s-4.1-9.2-9-9.2ZM15.9,800.9c-3.4,0-6.1-2.7-6.1-6.1s2.7-6.1,6.1-6.1,6.1,2.7,6.1,6.1-2.8,6.1-6.1,6.1Z"/>
        <path class="cls-36" d="M17.5,844.6H.3v3.4c2.3.9,3.9,3.1,3.9,5.7s-1.6,4.8-3.9,5.7v3.4h17.2c5,0,9-4,9-9h0c0-5.2-4.1-9.2-9-9.2ZM15.9,859.7c-3.4,0-6.1-2.7-6.1-6.1s2.7-6.1,6.1-6.1,6.1,2.7,6.1,6.1-2.8,6.1-6.1,6.1Z"/>
        <path class="cls-36" d="M17.5,874H.3v3.4c2.3.9,3.9,3.1,3.9,5.7s-1.6,4.8-3.9,5.7v3.4h17.2c5,0,9-4,9-9h0c0-5.2-4.1-9.2-9-9.2ZM15.9,889.1c-3.4,0-6.1-2.7-6.1-6.1s2.7-6.1,6.1-6.1,6.1,2.7,6.1,6.1-2.8,6.1-6.1,6.1Z"/>
        <path class="cls-36" d="M17.5,903.4H.3v3.4c2.3.9,3.9,3.1,3.9,5.7s-1.6,4.8-3.9,5.7v3.4h17.2c5,0,9-4,9-9s-4.1-9.2-9-9.2ZM15.9,918.5c-3.4,0-6.1-2.7-6.1-6.1s2.7-6.1,6.1-6.1,6.1,2.7,6.1,6.1-2.8,6.1-6.1,6.1Z"/>
        <path class="cls-36" d="M239.5,353.9c0-2.6,1.6-4.8,3.9-5.7v-3.4h-17.2c-5,0-9,4-9,9s4,9,9,9h17.2v-3.4c-2.2-.7-3.9-2.9-3.9-5.5ZM227.8,360c-3.4,0-6.1-2.7-6.1-6.1s2.7-6.1,6.1-6.1,6.1,2.7,6.1,6.1-2.7,6.1-6.1,6.1Z"/>
        <path class="cls-36" d="M239.5,383.3c0-2.6,1.6-4.8,3.9-5.7v-3.4h-17.2c-5,0-9,4-9,9h0c0,5,4,9,9,9h17.2v-3.2c-2.2-.9-3.9-3.1-3.9-5.7ZM227.8,389.4c-3.4,0-6.1-2.7-6.1-6.1s2.7-6.1,6.1-6.1,6.1,2.7,6.1,6.1-2.7,6.1-6.1,6.1Z"/>
        <path class="cls-36" d="M239.5,412.7c0-2.6,1.6-4.8,3.9-5.7v-3.4h-17.2c-5,0-9,4-9,9h0c0,5,4,9,9,9h17.2v-3.4c-2.2-.7-3.9-2.9-3.9-5.5ZM227.8,418.8c-3.4,0-6.1-2.7-6.1-6.1s2.7-6.1,6.1-6.1,6.1,2.7,6.1,6.1-2.7,6.1-6.1,6.1Z"/>
        <path class="cls-36" d="M239.5,442.1c0-2.6,1.6-4.8,3.9-5.7v-3.4h-17.2c-5,0-9,4-9,9s4,9,9,9h17.2v-3.4c-2.2-.7-3.9-2.9-3.9-5.5ZM227.8,448.2c-3.4,0-6.1-2.7-6.1-6.1s2.7-6.1,6.1-6.1,6.1,2.7,6.1,6.1-2.7,6.1-6.1,6.1Z"/>
        <path class="cls-36" d="M239.5,471.5c0-2.6,1.6-4.8,3.9-5.7v-3.4h-17.2c-5,0-9,4-9,9s4,9,9,9h17.2v-3.4c-2.2-.7-3.9-2.9-3.9-5.5ZM227.8,477.6c-3.4,0-6.1-2.7-6.1-6.1s2.7-6.1,6.1-6.1,6.1,2.7,6.1,6.1-2.7,6.1-6.1,6.1Z"/>
        <path class="cls-36" d="M239.5,500.9c0-2.6,1.6-4.8,3.9-5.7v-3.4h-17.2c-5,0-9,4-9,9s4,9,9,9h17.2v-3.4c-2.2-.7-3.9-2.9-3.9-5.5ZM227.8,507c-3.4,0-6.1-2.7-6.1-6.1s2.7-6.1,6.1-6.1,6.1,2.7,6.1,6.1-2.7,6.1-6.1,6.1Z"/>
        <path class="cls-36" d="M239.5,559.7c0-2.6,1.6-4.8,3.9-5.7v-3.4h-17.2c-5,0-9,4-9,9s4,9,9,9h17.2v-3.4c-2.2-.8-3.9-3-3.9-5.5ZM227.8,565.7c-3.4,0-6.1-2.7-6.1-6.1s2.7-6.1,6.1-6.1,6.1,2.7,6.1,6.1-2.7,6.1-6.1,6.1Z"/>
        <path class="cls-36" d="M239.5,618.4c0-2.6,1.6-4.8,3.9-5.7v-3.4h-17.2c-5,0-9,4-9,9h0c0,5,4,9,9,9h17.2v-3.4c-2.2-.7-3.9-2.9-3.9-5.5ZM227.8,624.5c-3.4,0-6.1-2.7-6.1-6.1s2.7-6.1,6.1-6.1,6.1,2.7,6.1,6.1-2.7,6.1-6.1,6.1Z"/>
        <path class="cls-36" d="M239.5,647.8c0-2.6,1.6-4.8,3.9-5.7v-3.4h-17.2c-5,0-9,4-9,9h0c0,5,4,9,9,9h17.2v-3.4c-2.2-.7-3.9-2.9-3.9-5.5ZM227.8,653.9c-3.4,0-6.1-2.7-6.1-6.1s2.7-6.1,6.1-6.1,6.1,2.7,6.1,6.1-2.7,6.1-6.1,6.1Z"/>
        <path class="cls-36" d="M239.5,677.2c0-2.6,1.6-4.8,3.9-5.7v-3.4h-17.2c-5,0-9,4-9,9s4,9,9,9h17.2v-3.4c-2.2-.7-3.9-2.9-3.9-5.5ZM227.8,683.3c-3.4,0-6.1-2.7-6.1-6.1s2.7-6.1,6.1-6.1,6.1,2.7,6.1,6.1-2.7,6.1-6.1,6.1Z"/>
        <path class="cls-36" d="M239.5,706.6c0-2.6,1.6-4.8,3.9-5.7v-3.4h-17.2c-5,0-9,4-9,9s4,9,9,9h17.2v-3.4c-2.2-.7-3.9-2.9-3.9-5.5ZM227.8,712.7c-3.4,0-6.1-2.7-6.1-6.1s2.7-6.1,6.1-6.1,6.1,2.7,6.1,6.1-2.7,6.1-6.1,6.1Z"/>
        <path class="cls-36" d="M239.5,736c0-2.6,1.6-4.8,3.9-5.7v-3.3h-17.2c-5,0-9,4-9,9s4,9,9,9h17.2v-3.4c-2.2-.8-3.9-3-3.9-5.6ZM227.8,742.1c-3.4,0-6.1-2.7-6.1-6.1s2.7-6.1,6.1-6.1,6.1,2.7,6.1,6.1-2.7,6.1-6.1,6.1Z"/>
        <path class="cls-36" d="M239.5,765.4c0-2.6,1.6-4.8,3.9-5.7v-3.4h-17.2c-5,0-9,4-9,9s4,9,9,9h17.2v-3.4c-2.2-.7-3.9-2.9-3.9-5.5ZM227.8,771.5c-3.4,0-6.1-2.7-6.1-6.1s2.7-6.1,6.1-6.1,6.1,2.7,6.1,6.1-2.7,6.1-6.1,6.1Z"/>
        <path class="cls-36" d="M239.5,794.8c0-2.6,1.6-4.8,3.9-5.7v-3.4h-17.2c-5,0-9,4-9,9s4,9,9,9h17.2v-3.4c-2.2-.7-3.9-2.9-3.9-5.5ZM227.8,800.9c-3.4,0-6.1-2.7-6.1-6.1s2.7-6.1,6.1-6.1,6.1,2.7,6.1,6.1-2.7,6.1-6.1,6.1Z"/>
        <path class="cls-36" d="M239.5,853.6c0-2.6,1.6-4.8,3.9-5.7v-3.4h-17.2c-5,0-9,4-9,9h0c0,5,4,9,9,9h17.2v-3.4c-2.2-.7-3.9-2.9-3.9-5.5ZM227.8,859.7c-3.4,0-6.1-2.7-6.1-6.1s2.7-6.1,6.1-6.1,6.1,2.7,6.1,6.1-2.7,6.1-6.1,6.1Z"/>
        <path class="cls-36" d="M239.5,883c0-2.6,1.6-4.8,3.9-5.7v-3.3h-17.2c-5,0-9,4-9,9h0c0,5,4,9,9,9h17.2v-3.4c-2.2-.8-3.9-3-3.9-5.6ZM227.8,889.1c-3.4,0-6.1-2.7-6.1-6.1s2.7-6.1,6.1-6.1,6.1,2.7,6.1,6.1-2.7,6.1-6.1,6.1Z"/>
        <path class="cls-21" d="M163.1,325.8l4.4-4.4-2.3-2.3-6.6,6.6h-1.5v-4.7c0-1.2-1-2.2-2.2-2.2h-69.5c-1.2,0-2.2,1-2.2,2.2v4.7h-1.5l-6.6-6.6-2.3,2.3,4.4,4.4c-.6.2-1,.8-1,1.4v56.3c0,.9.7,1.6,1.6,1.6h84.6c.9,0,1.6-.7,1.6-1.6v-56.3c0-.6-.4-1.2-.9-1.4Z"/>
        <g>
          <path class="cls-34" d="M100.3,348.1c0-3.2-2.6-5.8-5.8-5.8s-5.8,2.6-5.8,5.8.5,2.7,1.3,3.7h-.2v7.7c0,1.2,1,2.1,2.1,2.1h5.1c1.2,0,2.1-1,2.1-2.1v-7.7h0c.8-1,1.3-2.3,1.3-3.7Z"/>
          <path class="cls-34" d="M155.5,348.1c0-3.2-2.6-5.8-5.8-5.8s-5.8,2.6-5.8,5.8.5,2.7,1.3,3.7h-.2v7.7c0,1.2,1,2.1,2.1,2.1h5.1c1.2,0,2.1-1,2.1-2.1v-7.7h-.2c.9-1,1.4-2.3,1.4-3.7Z"/>
        </g>
        <path class="cls-20" d="M200.9,478.2h-21c-1.2,0-2.2-1-2.2-2.2v-26.7c0-1.2,1-2.2,2.2-2.2h21c1.2,0,2.2,1,2.2,2.2v26.7c0,1.2-1,2.2-2.2,2.2Z"/>
        <g>
          <rect class="cls-17" x="132" y="414.4" width="21.7" height="14.4"/>
          <path class="cls-27" d="M149.3,428.8c-2-1.8-3.2-4.4-3.2-7.2s1.2-5.4,3.2-7.2h-12.8c2,1.8,3.2,4.4,3.2,7.2s-1.2,5.4-3.2,7.2h12.8Z"/>
        </g>
        <g>
          <rect class="cls-17" x="132.3" y="499.7" width="21.7" height="14.4"/>
          <path class="cls-27" d="M149.6,514.2c-2-1.8-3.2-4.4-3.2-7.2s1.2-5.4,3.2-7.2h-12.8c2,1.8,3.2,4.4,3.2,7.2s-1.2,5.4-3.2,7.2h12.8Z"/>
        </g>
        <g>
          <rect class="cls-17" x="132.3" y="518.9" width="21.7" height="14.4"/>
          <path class="cls-27" d="M149.6,533.3c-2-1.8-3.2-4.4-3.2-7.2s1.2-5.4,3.2-7.2h-12.8c2,1.8,3.2,4.4,3.2,7.2s-1.2,5.4-3.2,7.2h12.8Z"/>
        </g>
        <g>
          <rect class="cls-17" x="61.3" y="569.9" width="10.6" height="5.4"/>
          <rect class="cls-27" x="63.6" y="569.9" width="6" height="5.4"/>
        </g>
        <g>
          <rect class="cls-17" x="177.1" y="549.8" width="5.4" height="10.6"/>
          <rect class="cls-27" x="177.1" y="552.1" width="5.4" height="6"/>
        </g>
        <rect class="cls-20" x="179.5" y="399.8" width="18.9" height="29.3"/>
        <g>
          <rect class="cls-17" x="171.6" y="501.1" width="20.6" height="9.6"/>
          <rect class="cls-12" x="176.2" y="501.1" width="11.5" height="9.6"/>
        </g>
        <rect class="cls-27" x="120.2" y="669.2" width="4.2" height="6.9"/>
        <rect class="cls-27" x="126.9" y="669.2" width="4.2" height="6.9"/>
        <rect class="cls-27" x="65.4" y="580.5" width="6.9" height="4.2"/>
        <rect class="cls-27" x="88.2" y="513.4" width="6.9" height="4.2"/>
        <rect class="cls-27" x="64.9" y="624.1" width="6.9" height="4.2"/>
        <rect class="cls-20" x="195" y="628" width="4.2" height="6.9"/>
        <rect class="cls-20" x="187.9" y="568.1" width="6.9" height="4.2"/>
        <rect class="cls-20" x="85.9" y="412.4" width="6.9" height="4.2"/>
        <rect class="cls-20" x="81" y="424.7" width="6.9" height="4.2"/>
        <rect class="cls-20" x="191.5" y="517.1" width="6.9" height="4.2"/>
        <path class="cls-14" d="M186.3,832.9H57.5c-2.1,0-3.9-1.7-3.9-3.9v-108.1c0-2.1,1.7-3.9,3.9-3.9h128.8c2.1,0,3.9,1.7,3.9,3.9v108.1c0,2.1-1.7,3.9-3.9,3.9Z"/>
        <rect class="cls-10" x="101.5" y="879.1" width="10.5" height="5.9"/>
        <rect class="cls-10" x="130.3" y="879.3" width="10.5" height="5.9"/>
        <rect class="cls-10" x="101.5" y="916.9" width="10.5" height="5.9"/>
        <rect class="cls-10" x="130.3" y="917" width="10.5" height="5.9"/>
        <polyline class="cls-9" points="17.5 361.6 17.5 366.1 35.4 384 35.4 432.6 51 448.2 51 583 55.9 587.9 91.2 587.9"/>
        <polyline class="cls-9" points="22.9 388.5 31 396.6 31 434.5 46.7 450.2 46.7 585.4 52.6 591.4 91 591.4"/>
        <polyline class="cls-9" points="23.2 447 43 466.7 43 587.9 53.4 598.3 95 598.3"/>
        <polyline class="cls-9" points="23.2 476.4 39.8 492.9 39.8 589.8 51.9 602 95.1 602"/>
        <polyline class="cls-9" points="23.2 506.5 35.6 518.8 35.6 594.9 49.5 608.8 93.4 608.8"/>
        <polyline class="cls-9" points="22.9 534.7 31.6 543.4 31.6 597.5 46.4 612.3 96.1 612.3"/>
        <polyline class="cls-9" points="22.9 593.3 45.3 615.8 102.7 615.8"/>
        <line class="cls-9" x1="23.7" y1="619.3" x2="98.8" y2="619.3"/>
        <path class="cls-9" d="M23.2,645.6c.1-.6,17.3-17.3,17.3-17.3h12.5l4.9,4.9h45.7"/>
        <polyline class="cls-9" points="20.4 671.5 25.7 666.2 25.7 658.4 30.9 653.2 30.9 644.8 43.9 631.8 52.6 631.8 57.3 636.4 95.3 636.4"/>
        <path class="cls-9" d="M30.7,661.7l3.4-3.4s-.7-8.9,0-9.6c.7-.7,6-6,6-6l6.3-6.3h6.1l3.7,3.7h35.1"/>
        <polyline class="cls-9" points="29.1 717.6 29.1 669.9 38.7 660.4 93.4 660.4 95 658.8 95 649.1"/>
        <polyline class="cls-9" points="17.5 815.8 17.5 812.2 32.9 796.8 32.9 716.5 35.7 713.7 35.7 671.9 42 665.6 94.2 665.6 98.4 661.4 98.4 654.1"/>
        <path class="cls-9" d="M35.7,699.4"/>
        <path class="cls-9" d="M35.7,714.7"/>
        <polyline class="cls-9" points="23.6 876.4 30.4 869.6 30.4 805.1 37.5 799.2"/>
        <polyline class="cls-9" points="35.6 809.4 42.6 802.4 42.6 712.7 39.9 710 39.9 673.2 44.6 668.5 94.9 668.5 101.9 661.5 101.9 644.9"/>
        <polyline class="cls-9" points="108.9 651.7 108.9 660.4 95.9 673.4 91.5 673.4"/>
        <polyline class="cls-9" points="93.9 682 112.4 663.5 112.4 648.1"/>
        <polyline class="cls-9" points="115.9 653.5 115.9 665.1 102.2 678.8 102.2 698.9 95.9 705.2 65 705.2 55.5 695.7"/>
        <polyline class="cls-9" points="133.9 692.5 138.7 687.7 138.7 674.4 135.5 671.2 135.5 661.2 132.4 658.1 132.4 647.1"/>
        <polyline class="cls-9" points="137.3 651.2 137.3 659.1 139.3 661.1 139.3 667.4 152.7 680.9 164.9 680.9 179.1 695.1"/>
        <polyline class="cls-9" points="145.3 649 145.3 659.4 151.3 665.4 172.3 665.4 200.5 693.7 200.5 806.3 206.7 812.5 206.7 863.3 212.3 868.9 212.3 889.1 223.3 900.1 223.3 905.5"/>
        <polyline class="cls-9" points="150.7 649.5 150.7 656.8 154.7 660.8 173.6 660.8 205.2 692.4 205.2 803.8 211.4 810 211.4 862.6 215.6 866.8 215.6 875.6"/>
        <polyline class="cls-9" points="157.5 644.3 165.3 644.3 211.1 690.1 211.1 801.8 227.2 817.9"/>
        <polyline class="cls-9" points="157.5 639.9 166.9 639.9 192.1 665.1"/>
        <polyline class="cls-9" points="158.6 634.8 166.6 634.8 190.1 658.3 195.5 658.3 206.3 669.1 206.3 676"/>
        <polyline class="cls-9" points="158.2 630.3 167.3 630.3 190.4 653.4 200.9 653.4"/>
        <polyline class="cls-9" points="158.2 626.2 169.1 626.2 174.1 631.2"/>
        <polyline class="cls-9" points="158.2 621.2 175.4 621.2 202.8 648.5 206.3 648.5 215.9 658.2 215.9 670.6"/>
        <line class="cls-9" x1="158.6" y1="615.8" x2="167.7" y2="615.8"/>
        <polyline class="cls-9" points="156.4 610.4 171.8 610.4 179.2 617.7"/>
        <polyline class="cls-9" points="187.9 630.3 192.4 625.8 192.4 606.5 203.4 606.5"/>
        <polyline class="cls-9" points="158.6 602 209.5 602 218.5 610.9"/>
        <polyline class="cls-9" points="158.2 597.5 213.8 597.5 220.3 591"/>
        <polyline class="cls-9" points="157.5 593.3 198.8 593.3 207.1 585.1 207.1 544.8 219.6 532.3"/>
        <polyline class="cls-9" points="158.6 589.1 179.1 589.1 202.4 565.8 202.4 543"/>
        <polyline class="cls-9" points="159.7 584.3 167.2 584.3 171.8 579.7"/>
        <path class="cls-9" d="M147.8,579c-.2-.3,9.2-9.2,9.2-9.2h15.6v-33.5l2.8-2.8v-7.7"/>
        <path class="cls-9" d="M147,576.8v-6.5l10.3-10.3"/>
        <polyline class="cls-9" points="140.1 577.7 140.1 567 147.4 559.6"/>
        <line class="cls-9" x1="136.6" y1="574.7" x2="136.6" y2="557.1"/>
        <path class="cls-9" d="M133.1,576.5v-15.2l-4.2-4.2"/>
        <path class="cls-9" d="M122.6,576.1v-20.7"/>
        <path class="cls-9" d="M119.2,577.8v-11.1l-7.6-7.6"/>
        <polyline class="cls-9" points="115.6 577.3 115.6 570.9 101.8 557.1 101.8 550.6 105 547.4 108.9 547.4 111.5 544.8 111.5 534.3 106.1 528.9 100 528.9"/>
        <polyline class="cls-9" points="99.8 534.7 105.4 534.7 108.5 537.7 108.5 543 105.7 545.7 101.1 545.7 97.7 549.1 97.7 558.1 108.7 569.2 108.7 575.9"/>
        <polyline class="cls-9" points="91.3 539.2 91.3 555.9 105.2 569.9 105.2 579.3"/>
        <polyline class="cls-9" points="76.5 538.4 76.5 545.5 85.9 554.9 85.9 558.8 99 571.8 99 580.9"/>
        <path class="cls-9" d="M94.8,575v-5l-11.7-11.7v-1.1l-4.5-4.5h-6.4l-1.7-1.7h-6.9l-6.7-6.7v-14.4l1.6-1.6h8.8"/>
        <polyline class="cls-9" points="69.1 522.2 60.4 522.2 55.4 527.2 55.4 545.1 63.4 553.1 69.5 553.1 75.9 559.5 78.4 559.5 92.5 573.5"/>
        <line class="cls-9" x1="73.8" y1="495.6" x2="56" y2="513.3"/>
        <polyline class="cls-9" points="137.6 556.2 137.6 550.1 134.7 547.1 134.7 544.1 130.2 539.6 125.2 539.6 121.1 535.6 121.1 516.6 109.7 505.2 109.7 423 124 408.7 124 399.6 127.7 395.9"/>
        <path class="cls-9" d="M135.3,448.9v-9l-3.1-3.1h-9.8l-4.5-4.5v-4.3"/>
        <polyline class="cls-9" points="129.3 481.2 129.3 486.6 126.1 489.8 120.2 489.8 118.6 491.3"/>
        <polyline class="cls-9" points="62.9 394.3 62.9 403.7 79.1 420 83.6 420 88.5 424.8 88.5 433.1 83.9 437.6 83.9 451.1"/>
        <rect class="cls-11" x="45.6" y="387.2" width="18.9" height="9.6"/>
        <g>
          <rect class="cls-13" x="102.7" y="385.1" width="4.3" height="11.5"/>
          <rect class="cls-13" x="110.4" y="385.1" width="4.3" height="11.5"/>
          <rect class="cls-13" x="118.1" y="385.1" width="4.3" height="11.5"/>
          <rect class="cls-13" x="125.7" y="385.1" width="4.3" height="11.5"/>
          <rect class="cls-13" x="133.4" y="385.1" width="4.3" height="11.5"/>
        </g>
        <g>
          <path class="cls-25" d="M106.8,405.9v-5.5h2.5v5.8c0,2,.6,2.7,1.7,2.7s1.8-.7,1.8-2.7v-5.8h2.4v5.5c0,3.5-1.4,5.1-4.2,5.1s-4.2-1.6-4.2-5.1Z"/>
          <path class="cls-25" d="M116.7,409.4l1.3-1.6c.7.6,1.7,1,2.6,1s1.4-.4,1.4-.9-.6-.8-1.5-1.2l-1.3-.6c-1.1-.4-2.1-1.3-2.1-2.8s1.6-3.2,3.8-3.2,2.5.5,3.4,1.3l-1.3,1.6c-.7-.5-1.4-.8-2.1-.8s-1.3.3-1.3.8.7.8,1.6,1.2l1.3.5c1.3.5,2.1,1.4,2.1,2.8s-1.5,3.3-4,3.3c-1.5.2-2.8-.3-3.9-1.4Z"/>
          <path class="cls-25" d="M126.3,400.3h3.6c2.2,0,3.9.6,3.9,2.6s-.5,1.9-1.4,2.2h0c1.1.4,1.9,1.2,1.9,2.5,0,2.1-1.8,3.1-4.1,3.1h-3.9s0-10.4,0-10.4ZM129.8,404.5c1.1,0,1.5-.5,1.5-1.2s-.5-1.1-1.5-1.1h-1.1v2.2h1.1ZM130,408.9c1.2,0,1.8-.4,1.8-1.3s-.6-1.2-1.8-1.2h-1.2v2.5h1.2Z"/>
        </g>
        <path class="cls-39" d="M170.2,481.7h-45.7c-.5,0-1-.4-1-1v-33.5c0-.5.4-1,1-1h45.7c.5,0,1,.4,1,1v33.5c0,.6-.5,1-1,1Z"/>
        <g>
          <rect class="cls-13" x="128.6" y="442.1" width="1.4" height="4.1"/>
          <rect class="cls-13" x="134.6" y="442.1" width="1.4" height="4.1"/>
          <rect class="cls-13" x="140.6" y="442.1" width="1.4" height="4.1"/>
          <rect class="cls-13" x="146.6" y="442.1" width="1.4" height="4.1"/>
          <rect class="cls-13" x="152.6" y="442.1" width="1.4" height="4.1"/>
          <rect class="cls-13" x="158.6" y="442.1" width="1.4" height="4.1"/>
          <rect class="cls-13" x="164.6" y="442.1" width="1.4" height="4.1"/>
        </g>
        <g>
          <rect class="cls-13" x="128.6" y="481.7" width="1.4" height="4.1"/>
          <rect class="cls-13" x="134.6" y="481.7" width="1.4" height="4.1"/>
          <rect class="cls-13" x="140.6" y="481.7" width="1.4" height="4.1"/>
          <rect class="cls-13" x="146.6" y="481.7" width="1.4" height="4.1"/>
          <rect class="cls-13" x="152.6" y="481.7" width="1.4" height="4.1"/>
          <rect class="cls-13" x="158.6" y="481.7" width="1.4" height="4.1"/>
          <rect class="cls-13" x="164.6" y="481.7" width="1.4" height="4.1"/>
        </g>
        <g>
          <rect class="cls-7" x="61.4" y="450.1" width="39.3" height="48.9"/>
          <path class="cls-33" d="M81,492.8h0c-7.6,0-13.7-6.1-13.7-13.7v-9.1c0-7.6,6.1-13.7,13.7-13.7h0c7.6,0,13.7,6.1,13.7,13.7v9.1c0,7.6-6.1,13.7-13.7,13.7Z"/>
          <path class="cls-33" d="M61.4,460.4h0v-10.3h10.3c-.1,5.7-4.6,10.3-10.3,10.3Z"/>
          <path class="cls-33" d="M71.6,499.1h-10.2v-10.3h0c5.7,0,10.2,4.6,10.2,10.3h0Z"/>
          <path class="cls-33" d="M100.7,460.4h0c-5.7,0-10.3-4.6-10.3-10.3h10.3v10.3Z"/>
          <path class="cls-33" d="M100.7,499.1h-10.3c0-5.7,4.6-10.3,10.3-10.3h0s0,10.3,0,10.3Z"/>
        </g>
        <g>
          <rect class="cls-39" x="64.9" y="519.6" width="34.6" height="22.9"/>
          <g>
            <rect class="cls-13" x="60.7" y="520.8" width="4.2" height="3.4"/>
            <rect class="cls-13" x="60.7" y="526.5" width="4.2" height="3.4"/>
            <rect class="cls-13" x="60.7" y="532.2" width="4.2" height="3.4"/>
            <rect class="cls-13" x="60.7" y="538" width="4.2" height="3.4"/>
          </g>
          <g>
            <rect class="cls-13" x="99.5" y="520.8" width="4.2" height="3.4"/>
            <rect class="cls-13" x="99.5" y="526.5" width="4.2" height="3.4"/>
            <rect class="cls-13" x="99.5" y="532.2" width="4.2" height="3.4"/>
            <rect class="cls-13" x="99.5" y="538" width="4.2" height="3.4"/>
          </g>
        </g>
        <rect class="cls-20" x="135.5" y="551.1" width="4.2" height="6.9"/>
        <g>
          <path class="cls-16" d="M160.4,654.9h-79c-.7,0-1.3-.6-1.3-1.3v-79.1c0-.7.6-1.3,1.3-1.3h79.1c.7,0,1.3.6,1.3,1.3v79.1c-.1.7-.7,1.3-1.4,1.3Z"/>
          <g>
            <rect class="cls-13" x="86.2" y="571.3" width="3.1" height="1.9"/>
            <rect class="cls-13" x="89.7" y="571.3" width="3.1" height="1.9"/>
            <rect class="cls-13" x="93.2" y="571.3" width="3.1" height="1.9"/>
            <rect class="cls-13" x="96.7" y="571.3" width="3.1" height="1.9"/>
            <rect class="cls-13" x="100.2" y="571.3" width="3.1" height="1.9"/>
            <rect class="cls-13" x="103.6" y="571.3" width="3.1" height="1.9"/>
            <rect class="cls-13" x="107.1" y="571.3" width="3.1" height="1.9"/>
            <rect class="cls-13" x="114.1" y="571.3" width="3.1" height="1.9"/>
            <rect class="cls-13" x="121.1" y="571.3" width="3.1" height="1.9"/>
            <rect class="cls-13" x="128" y="571.3" width="3.1" height="1.9"/>
            <rect class="cls-13" x="138.5" y="571.3" width="3.1" height="1.9"/>
            <rect class="cls-13" x="142" y="571.3" width="3.1" height="1.9"/>
            <rect class="cls-13" x="149" y="571.3" width="3.1" height="1.9"/>
            <rect class="cls-13" x="110.6" y="571.3" width="3.1" height="1.9"/>
            <rect class="cls-13" x="117.6" y="571.3" width="3.1" height="1.9"/>
            <rect class="cls-13" x="124.6" y="571.3" width="3.1" height="1.9"/>
            <rect class="cls-13" x="131.5" y="571.3" width="3.1" height="1.9"/>
            <rect class="cls-13" x="135" y="571.3" width="3.1" height="1.9"/>
            <rect class="cls-13" x="145.5" y="571.3" width="3.1" height="1.9"/>
            <rect class="cls-13" x="152.4" y="571.3" width="3.1" height="1.9"/>
          </g>
          <g>
            <rect class="cls-13" x="86.4" y="654.9" width="3.1" height="1.9"/>
            <rect class="cls-13" x="89.9" y="654.9" width="3.1" height="1.9"/>
            <rect class="cls-13" x="93.4" y="654.9" width="3.1" height="1.9"/>
            <rect class="cls-13" x="96.9" y="654.9" width="3.1" height="1.9"/>
            <rect class="cls-13" x="100.4" y="654.9" width="3.1" height="1.9"/>
            <rect class="cls-13" x="103.8" y="654.9" width="3.1" height="1.9"/>
            <rect class="cls-13" x="107.3" y="654.9" width="3.1" height="1.9"/>
            <rect class="cls-13" x="114.3" y="654.9" width="3.1" height="1.9"/>
            <rect class="cls-13" x="121.3" y="654.9" width="3.1" height="1.9"/>
            <rect class="cls-13" x="128.2" y="654.9" width="3.1" height="1.9"/>
            <rect class="cls-13" x="138.7" y="654.9" width="3.1" height="1.9"/>
            <rect class="cls-13" x="142.2" y="654.9" width="3.1" height="1.9"/>
            <rect class="cls-13" x="149.1" y="654.9" width="3.1" height="1.9"/>
            <rect class="cls-13" x="110.8" y="654.9" width="3.1" height="1.9"/>
            <rect class="cls-13" x="117.8" y="654.9" width="3.1" height="1.9"/>
            <rect class="cls-13" x="124.7" y="654.9" width="3.1" height="1.9"/>
            <rect class="cls-13" x="131.7" y="654.9" width="3.1" height="1.9"/>
            <rect class="cls-13" x="135.2" y="654.9" width="3.1" height="1.9"/>
            <rect class="cls-13" x="145.7" y="654.9" width="3.1" height="1.9"/>
            <rect class="cls-13" x="152.6" y="654.9" width="3.1" height="1.9"/>
          </g>
          <g>
            <rect class="cls-13" x="78.1" y="645.6" width="1.9" height="3.1"/>
            <rect class="cls-13" x="78.1" y="642.2" width="1.9" height="3.1"/>
            <rect class="cls-13" x="78.1" y="638.7" width="1.9" height="3.1"/>
            <rect class="cls-13" x="78.1" y="635.2" width="1.9" height="3.1"/>
            <rect class="cls-13" x="78.1" y="631.7" width="1.9" height="3.1"/>
            <rect class="cls-13" x="78.2" y="628.2" width="1.9" height="3.1"/>
            <rect class="cls-13" x="78.2" y="624.7" width="1.9" height="3.1"/>
            <rect class="cls-13" x="78.1" y="617.8" width="1.9" height="3.1"/>
            <rect class="cls-13" x="78.1" y="610.8" width="1.9" height="3.1"/>
            <rect class="cls-13" x="78.2" y="603.8" width="1.9" height="3.1"/>
            <rect class="cls-13" x="78.1" y="593.4" width="1.9" height="3.1"/>
            <rect class="cls-13" x="78.1" y="589.9" width="1.9" height="3.1"/>
            <rect class="cls-13" x="78.2" y="582.9" width="1.9" height="3.1"/>
            <rect class="cls-13" x="78.1" y="621.2" width="1.9" height="3.1"/>
            <rect class="cls-13" x="78.1" y="614.3" width="1.9" height="3.1"/>
            <rect class="cls-13" x="78.2" y="607.3" width="1.9" height="3.1"/>
            <rect class="cls-13" x="78.1" y="600.3" width="1.9" height="3.1"/>
            <rect class="cls-13" x="78.1" y="596.8" width="1.9" height="3.1"/>
            <rect class="cls-13" x="78.1" y="586.4" width="1.9" height="3.1"/>
            <rect class="cls-13" x="78.2" y="579.4" width="1.9" height="3.1"/>
          </g>
          <g>
            <rect class="cls-13" x="161.7" y="645.6" width="1.9" height="3.1"/>
            <rect class="cls-13" x="161.7" y="642.1" width="1.9" height="3.1"/>
            <rect class="cls-13" x="161.7" y="638.7" width="1.9" height="3.1"/>
            <rect class="cls-13" x="161.7" y="635.2" width="1.9" height="3.1"/>
            <rect class="cls-13" x="161.7" y="631.7" width="1.9" height="3.1"/>
            <rect class="cls-13" x="161.8" y="628.2" width="1.9" height="3.1"/>
            <rect class="cls-13" x="161.7" y="624.7" width="1.9" height="3.1"/>
            <rect class="cls-13" x="161.7" y="617.7" width="1.9" height="3.1"/>
            <rect class="cls-13" x="161.7" y="610.8" width="1.9" height="3.1"/>
            <rect class="cls-13" x="161.8" y="603.8" width="1.9" height="3.1"/>
            <rect class="cls-13" x="161.7" y="593.4" width="1.9" height="3.1"/>
            <rect class="cls-13" x="161.7" y="589.9" width="1.9" height="3.1"/>
            <rect class="cls-13" x="161.8" y="582.9" width="1.9" height="3.1"/>
            <rect class="cls-13" x="161.7" y="621.2" width="1.9" height="3.1"/>
            <rect class="cls-13" x="161.7" y="614.3" width="1.9" height="3.1"/>
            <rect class="cls-13" x="161.8" y="607.3" width="1.9" height="3.1"/>
            <rect class="cls-13" x="161.7" y="600.3" width="1.9" height="3.1"/>
            <rect class="cls-13" x="161.7" y="596.8" width="1.9" height="3.1"/>
            <rect class="cls-13" x="161.7" y="586.4" width="1.9" height="3.1"/>
            <rect class="cls-13" x="161.7" y="579.4" width="1.9" height="3.1"/>
          </g>
          <circle class="cls-15" cx="90.2" cy="584.3" r="2.8"/>
        </g>
        <rect class="cls-39" x="187.1" y="539" width="18.2" height="8.6"/>
        <rect class="cls-13" x="189.1" y="547.6" width="2.9" height="8.7"/>
        <rect class="cls-13" x="200.9" y="547.6" width="2.9" height="8.7"/>
        <rect class="cls-13" x="194.8" y="530.4" width="2.9" height="8.7"/>
        <rect class="cls-27" x="169.2" y="578.4" width="6.9" height="4.2"/>
        <rect class="cls-20" x="189.5" y="608.2" width="4.2" height="6.9"/>
        <rect class="cls-27" x="172.3" y="627.4" width="4.2" height="6.9" transform="translate(-395 308.1) rotate(-45)"/>
        <g>
          <path class="cls-36" d="M157,689.6c-5.1,0-9.2,4.1-9.2,9.2s4.1,9.2,9.2,9.2,9.2-4.1,9.2-9.2-4.1-9.2-9.2-9.2ZM157,704.5c-3.1,0-5.7-2.6-5.7-5.7s2.6-5.7,5.7-5.7,5.7,2.6,5.7,5.7-2.5,5.7-5.7,5.7Z"/>
          <path class="cls-36" d="M118.7,689.9v17.7h17.7v-17.7h-17.7ZM127.6,704.5c-3.1,0-5.7-2.6-5.7-5.7s2.6-5.7,5.7-5.7,5.7,2.6,5.7,5.7-2.6,5.7-5.7,5.7Z"/>
          <path class="cls-36" d="M186.8,689.6c-5.1,0-9.2,4.1-9.2,9.2s4.1,9.2,9.2,9.2,9.2-4.1,9.2-9.2-4.1-9.2-9.2-9.2ZM186.8,704.5c-3.1,0-5.7-2.6-5.7-5.7s2.6-5.7,5.7-5.7,5.7,2.6,5.7,5.7-2.5,5.7-5.7,5.7Z"/>
        </g>
        <path class="cls-36" d="M17.5,668.2H.3v3.4c2.3.9,3.9,3.1,3.9,5.7s-1.6,4.8-3.9,5.7v3.4h17.2c5,0,9-4,9-9s-4.1-9.2-9-9.2ZM15.9,683.3c-3.4,0-6.1-2.7-6.1-6.1s2.7-6.1,6.1-6.1,6.1,2.7,6.1,6.1-2.8,6.1-6.1,6.1Z"/>
        <path class="cls-36" d="M17.5,638.8H.3v3.4c2.3.9,3.9,3.1,3.9,5.7s-1.6,4.8-3.9,5.7v3.4h17.2c5,0,9-4,9-9h0c0-5.1-4.1-9.2-9-9.2ZM15.9,653.9c-3.4,0-6.1-2.7-6.1-6.1s2.7-6.1,6.1-6.1,6.1,2.7,6.1,6.1-2.8,6.1-6.1,6.1Z"/>
        <path class="cls-36" d="M17.5,609.4H.3v3.4c2.3.9,3.9,3.1,3.9,5.7s-1.6,4.8-3.9,5.7v3.4h17.2c5,0,9-4,9-9h0c0-5.1-4.1-9.2-9-9.2ZM15.9,624.5c-3.4,0-6.1-2.7-6.1-6.1s2.7-6.1,6.1-6.1,6.1,2.7,6.1,6.1-2.8,6.1-6.1,6.1Z"/>
        <path class="cls-36" d="M17.5,580H.3v3.4c2.3.9,3.9,3.1,3.9,5.7s-1.6,4.8-3.9,5.7v3.4h17.2c5,0,9-4,9-9s-4.1-9.2-9-9.2ZM15.9,595.1c-3.4,0-6.1-2.7-6.1-6.1s2.7-6.1,6.1-6.1,6.1,2.7,6.1,6.1-2.8,6.1-6.1,6.1Z"/>
        <path class="cls-36" d="M17.5,521.2H.3v3.4c2.3.9,3.9,3.1,3.9,5.7s-1.6,4.8-3.9,5.7v3.4h17.2c5,0,9-4,9-9s-4.1-9.2-9-9.2ZM15.9,536.3c-3.4,0-6.1-2.7-6.1-6.1s2.7-6.1,6.1-6.1,6.1,2.7,6.1,6.1-2.8,6.1-6.1,6.1Z"/>
        <path class="cls-36" d="M17.5,491.8H.3v3.4c2.3.9,3.9,3.1,3.9,5.7s-1.6,4.8-3.9,5.7v3.4h17.2c5,0,9-4,9-9s-4.1-9.2-9-9.2ZM15.9,507c-3.4,0-6.1-2.7-6.1-6.1s2.7-6.1,6.1-6.1,6.1,2.7,6.1,6.1-2.8,6.1-6.1,6.1Z"/>
        <path class="cls-36" d="M17.5,462.4H.3v3.4c2.3.9,3.9,3.1,3.9,5.7s-1.6,4.8-3.9,5.7v3.4h17.2c5,0,9-4,9-9s-4.1-9.2-9-9.2ZM15.9,477.6c-3.4,0-6.1-2.7-6.1-6.1s2.7-6.1,6.1-6.1,6.1,2.7,6.1,6.1-2.8,6.1-6.1,6.1Z"/>
        <path class="cls-36" d="M17.5,433.1H.3v3.4c2.3.9,3.9,3.1,3.9,5.7s-1.6,4.8-3.9,5.7v3.4h17.2c5,0,9-4,9-9s-4.1-9.2-9-9.2ZM15.9,448.2c-3.4,0-6.1-2.7-6.1-6.1s2.7-6.1,6.1-6.1,6.1,2.7,6.1,6.1-2.8,6.1-6.1,6.1Z"/>
        <path class="cls-36" d="M17.5,374.3H.3v3.4c2.3.9,3.9,3.1,3.9,5.7s-1.6,4.8-3.9,5.7v3.4h17.2c5,0,9-4,9-9h0c0-5.2-4.1-9.2-9-9.2ZM15.9,389.4c-3.4,0-6.1-2.7-6.1-6.1s2.7-6.1,6.1-6.1,6.1,2.7,6.1,6.1-2.8,6.1-6.1,6.1Z"/>
        <path class="cls-36" d="M17.5,344.9H.3v3.4c2.3.9,3.9,3.1,3.9,5.7s-1.6,4.8-3.9,5.7v3.4h17.2c5,0,9-4,9-9s-4.1-9.2-9-9.2ZM15.9,360c-3.4,0-6.1-2.7-6.1-6.1s2.7-6.1,6.1-6.1,6.1,2.7,6.1,6.1-2.8,6.1-6.1,6.1Z"/>
        <path class="cls-36" d="M17.5,815.2H.3v3.4c2.3.9,3.9,3.1,3.9,5.7s-1.6,4.8-3.9,5.7v3.4h17.2c5,0,9-4,9-9s-4.1-9.2-9-9.2ZM15.9,830.3c-3.4,0-6.1-2.7-6.1-6.1s2.7-6.1,6.1-6.1,6.1,2.7,6.1,6.1-2.8,6.1-6.1,6.1Z"/>
        <path class="cls-36" d="M239.5,912.4c0-2.6,1.6-4.8,3.9-5.7v-3.4h-17.2c-5,0-9,4-9,9s4,9,9,9h17.2v-3.4c-2.2-.7-3.9-2.9-3.9-5.5ZM227.8,918.5c-3.4,0-6.1-2.7-6.1-6.1s2.7-6.1,6.1-6.1,6.1,2.7,6.1,6.1-2.7,6.1-6.1,6.1Z"/>
        <path class="cls-36" d="M239.5,824.2c0-2.6,1.6-4.8,3.9-5.7v-3.4h-17.2c-5,0-9,4-9,9s4,9,9,9h17.2v-3.4c-2.2-.7-3.9-2.9-3.9-5.5ZM227.8,830.3c-3.4,0-6.1-2.7-6.1-6.1s2.7-6.1,6.1-6.1,6.1,2.7,6.1,6.1-2.7,6.1-6.1,6.1Z"/>
        <path class="cls-36" d="M239.5,589.1c0-2.6,1.6-4.8,3.9-5.7v-3.4h-17.2c-5,0-9,4-9,9s4,9,9,9h17.2v-3.4c-2.2-.8-3.9-3-3.9-5.5ZM227.8,595.1c-3.4,0-6.1-2.7-6.1-6.1s2.7-6.1,6.1-6.1,6.1,2.7,6.1,6.1-2.7,6.1-6.1,6.1Z"/>
        <rect class="cls-10" x="91.4" y="681.6" width="3.7" height="6.7"/>
        <g>
          <path class="cls-29" d="M82.2,702.5h-31.8c-1.2,0-2.2-1-2.2-2.2v-23.7c0-1.2,1-2.2,2.2-2.2h31.8c1.2,0,2.2,1,2.2,2.2v23.7c0,1.2-1,2.2-2.2,2.2Z"/>
          <path class="cls-37" d="M79.9,700h-27.3c-.8,0-1.4-.6-1.4-1.4v-20.4c0-.8.6-1.4,1.4-1.4h27.3c.8,0,1.4.6,1.4,1.4v20.4c0,.8-.6,1.4-1.4,1.4Z"/>
        </g>
        <rect class="cls-10" x="91.5" y="701.5" width="3.7" height="6.7"/>
        <rect class="cls-20" x="100.1" y="687.3" width="4.2" height="6.9"/>
        <g>
          <path class="cls-25" d="M42.3,507.4v-3.6c0-2.2.6-3.9,2.6-3.9s1.9.5,2.2,1.4h0c.3-1.1,1.1-1.9,2.4-1.9,2.1,0,3.1,1.8,3.1,4.1v3.9h-10.4ZM46.4,503.9c0-1.1-.5-1.5-1.2-1.5s-1.1.5-1.1,1.5v1.1h2.2v-1.1h0ZM50.8,503.7c0-1.2-.4-1.8-1.3-1.8s-1.2.6-1.2,1.8v1.2h2.5v-1.2Z"/>
          <path class="cls-25" d="M47.4,498.2c-3.4,0-5.4-1.9-5.4-4.8s2-4.8,5.4-4.8,5.4,1.9,5.4,4.8-2,4.8-5.4,4.8ZM47.4,491.2c-2,0-3.2.8-3.2,2.2s1.2,2.2,3.2,2.2,3.3-.9,3.3-2.2-1.3-2.2-3.3-2.2Z"/>
          <path class="cls-25" d="M47.4,487.2c-3.4,0-5.4-1.9-5.4-4.8s2-4.8,5.4-4.8,5.4,1.9,5.4,4.8-2,4.8-5.4,4.8ZM47.4,480.2c-2,0-3.2.8-3.2,2.2s1.2,2.2,3.2,2.2,3.3-.9,3.3-2.2-1.3-2.2-3.3-2.2Z"/>
          <path class="cls-25" d="M44.3,474.1v2.8h-2.1v-8.1h2.1v2.8h8.3v2.5h-8.3Z"/>
          <path class="cls-25" d="M51.3,468.3l-1.6-1.3c.6-.7,1-1.7,1-2.6s-.4-1.4-.9-1.4-.8.6-1.2,1.5l-.6,1.3c-.4,1.1-1.3,2.1-2.8,2.1s-3.2-1.6-3.2-3.8.5-2.5,1.3-3.4l1.7,1.3c-.5.7-.8,1.4-.8,2.1s.3,1.3.8,1.3.8-.7,1.2-1.6l.5-1.3c.5-1.3,1.4-2.1,2.8-2.1s3.3,1.5,3.3,4c.1,1.4-.4,2.8-1.5,3.9Z"/>
          <path class="cls-25" d="M42.3,458.7v-6.6h2.1v4.1h2v-3.5h2.1v3.5h2.2v-4.3h2.1v6.8h-10.5Z"/>
          <path class="cls-25" d="M42.3,449.9v-2.5h8.3v-4h2.1v6.5h-10.4Z"/>
        </g>
        <g>
          <path class="cls-25" d="M141.4,664.6h3c3.2,0,5.3,1.6,5.3,5.2s-2.1,5.2-5.1,5.2h-3.1v-10.4h0ZM144.3,673c1.7,0,2.9-.8,2.9-3.2s-1.2-3.2-2.9-3.2h-.4v6.4h.4Z"/>
          <path class="cls-25" d="M151.6,664.6h6.6v2.1h-4.1v2h3.5v2.1h-3.5v2.2h4.3v2.1h-6.8v-10.5Z"/>
          <path class="cls-25" d="M160.4,664.6h3.6c2.2,0,3.9.6,3.9,2.6s-.5,1.9-1.4,2.2h0c1.1.4,1.9,1.2,1.9,2.5,0,2.1-1.8,3.1-4.1,3.1h-3.9v-10.4ZM164,668.7c1.1,0,1.5-.5,1.5-1.2s-.5-1.1-1.5-1.1h-1.1v2.2h1.1ZM164.2,673.1c1.2,0,1.8-.4,1.8-1.3s-.6-1.2-1.8-1.2h-1.2v2.5h1.2Z"/>
          <path class="cls-25" d="M170.1,670.1v-5.5h2.5v5.8c0,2,.6,2.7,1.7,2.7s1.8-.7,1.8-2.7v-5.8h2.4v5.5c0,3.5-1.4,5.1-4.2,5.1s-4.2-1.6-4.2-5.1Z"/>
          <path class="cls-25" d="M180.3,669.9c0-3.5,2.3-5.5,5.1-5.5s2.6.6,3.3,1.4l-1.3,1.5c-.5-.5-1.1-.7-1.9-.7-1.5,0-2.7,1.2-2.7,3.2s.9,3.3,2.9,3.3.8,0,1-.3v-1.7h-1.7v-2h3.9v4.9c-.7.7-2,1.3-3.5,1.3-2.8-.1-5.1-1.9-5.1-5.4Z"/>
        </g>
        <rect class="cls-8" x="114.2" y="686" width="86.4" height="25.6"/>
        <g>
          <path class="cls-25" d="M40.1,400.3h2.5v8.3h4v2.1h-6.5v-10.4Z"/>
          <path class="cls-25" d="M48.4,400.3h6.6v2.1h-4.1v2h3.5v2.1h-3.5v2.2h4.3v2.1h-6.8v-10.5Z"/>
          <path class="cls-25" d="M57.2,400.3h3c3.2,0,5.3,1.6,5.3,5.2s-2.1,5.2-5.1,5.2h-3.1v-10.4h-.1ZM60.1,408.8c1.7,0,2.9-.8,2.9-3.2s-1.2-3.2-2.9-3.2h-.4v6.4h.4Z"/>
        </g>
        <g>
          <rect class="cls-17" x="143.7" y="549.8" width="5.4" height="10.6"/>
          <rect class="cls-27" x="143.7" y="552.1" width="5.4" height="6"/>
        </g>
        <g>
          <rect class="cls-17" x="154.3" y="549.8" width="5.4" height="10.6"/>
          <rect class="cls-27" x="154.3" y="552.1" width="5.4" height="6"/>
        </g>
        <rect class="cls-20" x="127.1" y="551.1" width="4.2" height="6.9"/>
        <rect class="cls-20" x="67.3" y="557.6" width="6.9" height="4.2"/>
        <rect class="cls-27" x="120.5" y="551.1" width="4.2" height="6.9"/>
        <rect class="cls-27" x="110.4" y="551.1" width="4.2" height="6.9"/>
        <path class="cls-36" d="M239.5,530.3c0-2.6,1.6-4.8,3.9-5.7v-3.4h-17.2c-5,0-9,4-9,9s4,9,9,9h17.2v-3.4c-2.2-.8-3.9-3-3.9-5.5ZM227.8,536.3c-3.4,0-6.1-2.7-6.1-6.1s2.7-6.1,6.1-6.1,6.1,2.7,6.1,6.1-2.7,6.1-6.1,6.1Z"/>
        <g>
          <rect class="cls-17" x="172.6" y="519.1" width="5.6" height="11.9"/>
          <rect class="cls-12" x="172.6" y="521.8" width="5.6" height="6.6"/>
        </g>
      </g>
      <sodipodi:namedview id="namedview175" bordercolor="#666666" borderopacity="1" gridtolerance="10" guidetolerance="10" inkscape:current-layer="svg4098" inkscape:cx="305.38232" inkscape:cy="465.1008" inkscape:pageopacity="0" inkscape:pageshadow="2" inkscape:window-height="898" inkscape:window-maximized="0" inkscape:window-width="1771" inkscape:window-x="146" inkscape:window-y="33" inkscape:zoom="0.25370844" objecttolerance="10" pagecolor="#ffffff" showgrid="false"/>
      <rect id="rect1707" class="cls-28" x="231.8" y="466" width="144.9" height="11.3"/>
      <rect id="rect1715-4" class="cls-24" x="185.9" y="407.1" width="11.3" height="104.3"/>
      <circle id="circle281" class="cls-24" cx="231.8" cy="412.7" r="11.9"/>
      <circle id="circle281-2" class="cls-28" cx="231.5" cy="471.7" r="11.6"/>
      <circle id="circle281-3" class="cls-31" cx="11.9" cy="383.3" r="11.9"/>
      <circle id="circle281-4" class="cls-26" cx="11.9" cy="353.8" r="11.9"/>
      <rect id="rect1727" class="cls-24" x="185.9" y="407.1" width="45.9" height="11.3"/>
      <rect id="rect1727-4" class="cls-32" x="232.8" y="613.7" width="112.9" height="11.3"/>
      <rect id="rect1727-7" class="cls-24" x="185.9" y="500.1" width="221.4" height="11.3"/>
      <g id="layer1">
        <rect id="rect815" x="283" y="54" width="177" height="237.9"/>
        <rect id="rect821" class="cls-25" x="324.8" y="253.2" width="92.1" height="31.7"/>
        <path id="rect825" class="cls-38" d="M330.9,255h18.5c3.2,0,5.8,2.6,5.8,5.8v16.2c0,3.2-2.6,5.8-5.8,5.8h-18.5c-3.2,0-5.8-2.6-5.8-5.8h0v-16.2c-.1-3.2,2.5-5.8,5.8-5.8h0Z"/>
        <path id="rect872" class="cls-38" d="M392.4,255h18.5c3.2,0,5.8,2.6,5.8,5.8v16.2c0,3.2-2.6,5.8-5.8,5.8h-18.5c-3.2,0-5.8-2.6-5.8-5.8v-16.2c-.1-3.2,2.6-5.8,5.8-5.8Z"/>
        <path id="rect874" class="cls-38" d="M360.9,255h20c2.8,0,5.1,2.3,5.1,5.1v17.7c0,2.8-2.3,5.1-5.1,5.1h-20c-2.8,0-5.1-2.3-5.1-5.1v-17.7c0-2.8,2.3-5.1,5.1-5.1Z"/>
        <rect id="rect947" class="cls-5" x="338.4" y="270.2" width="3.3" height="58.1"/>
        <rect id="rect949" class="cls-5" x="369.3" y="270.2" width="3.3" height="58.1"/>
        <rect id="rect951" class="cls-5" x="399.9" y="270.2" width="3.3" height="58.1"/>
        <circle id="path1456" class="cls-4" cx="307.7" cy="141.1" r="16.1"/>
        <circle id="ellipse1458" class="cls-4" cx="433.5" cy="141.1" r="16.1"/>
        <circle id="path1460" class="cls-6" cx="307.7" cy="141.1" r="14.5"/>
        <circle id="ellipse1464" class="cls-6" cx="433.5" cy="141.1" r="14.5"/>
        <rect id="rect87" x="307.8" y="219.9" width="126" height="31.7"/>
        <circle id="path91" class="cls-4" cx="324.6" cy="240.9" r="11.8"/>
        <circle id="circle93" class="cls-4" cx="416.6" cy="240.9" r="11.8"/>
        <path id="rect95" class="cls-4" d="M334,192.5h7.9c4.3,0,7.9,3.5,7.9,7.9v19.6c0,4.3-3.5,7.9-7.9,7.9h-7.9c-4.3,0-7.9-3.5-7.9-7.9v-19.6c.1-4.4,3.6-7.9,7.9-7.9Z"/>
        <path id="rect97" class="cls-4" d="M400.8,192.5h7.9c4.3,0,7.9,3.5,7.9,7.9v19.6c0,4.3-3.5,7.9-7.9,7.9h-7.9c-4.3,0-7.9-3.5-7.9-7.9v-19.6c.1-4.4,3.6-7.9,7.9-7.9Z"/>
        <circle id="circle99" class="cls-4" cx="347.8" cy="179.2" r="11.8"/>
        <circle id="circle101" class="cls-4" cx="394.9" cy="179.2" r="11.8"/>
        <circle id="ellipse103" class="cls-6" cx="321.5" cy="178.4" r="14.5"/>
        <circle id="ellipse105" class="cls-6" cx="421.3" cy="178.4" r="14.5"/>
        <path id="rect111" class="cls-4" d="M334,128.1h7.9c4.3,0,7.9,3.5,7.9,7.9v19.6c0,4.3-3.5,7.9-7.9,7.9h-7.9c-4.3,0-7.9-3.5-7.9-7.9v-19.6c.1-4.4,3.6-7.9,7.9-7.9Z"/>
        <path id="rect113" class="cls-4" d="M400.8,128.1h7.9c4.3,0,7.9,3.5,7.9,7.9v19.6c0,4.3-3.5,7.9-7.9,7.9h-7.9c-4.3,0-7.9-3.5-7.9-7.9v-19.6c.1-4.4,3.6-7.9,7.9-7.9Z"/>
        <circle id="circle115" class="cls-6" cx="338" cy="209.2" r="10.8"/>
        <circle id="circle117" class="cls-6" cx="404.8" cy="209.2" r="10.8"/>
        <circle id="circle119" class="cls-6" cx="324.6" cy="240.9" r="9.8"/>
        <circle id="circle121" class="cls-6" cx="416.6" cy="240.9" r="9.8"/>
        <circle id="circle123" class="cls-6" cx="338" cy="209.2" r="10.8"/>
        <circle id="circle129" class="cls-4" cx="323" cy="100.6" r="11.8"/>
        <circle id="circle131" class="cls-6" cx="323" cy="100.6" r="9.8"/>
        <circle id="circle133" class="cls-4" cx="419.7" cy="100.6" r="11.8"/>
        <circle id="circle135" class="cls-6" cx="419.7" cy="100.6" r="9.8"/>
        <path id="path31-1" class="cls-25" d="M333.3,73.6c1.1,0,1.2,0,1.4-.2.1,0,.3-.2.4-.3.1-.2.1-.3.1-2.6v-2.4h4.6v3c0,3.3,0,3.6-.4,4.4-.4,1.1-1.3,1.8-2.4,2-.7,0-1.4,0-2.1,0s-1.9,0-2.3,0h-.6v-3.9h1.3ZM355.5,80.2c20,0,24.9,0,24,0h-.1.1c.1,0,.1.2-.1.2s-.1,0,.2,0h.4-.4c-.2,0-.4,0-.3,0s.1,0,.1.6,0,.5.2.6q.1,0-.1,0c-.1,0-.3,0-.3,0,0,0-7.9,0-23.6,0h-23.6v-1.7h23.5ZM337.6,62.1h2.4v3.8h-4.7v-3.8s2.3,0,2.3,0ZM342.3,69.1c.1-1,.4-2,.9-2.9.1-.2.2-.4.3-.6.1,0,.2-.2.3-.4.3-.4.6-.8.9-1.2h.1c.3-.5.7-.8,1-1,.5-.4,1.1-.7,1.8-.9.9-.4,1.9-.5,2.8-.4.6,0,1.1,0,1.7.2.4,0,.8.2.9.3s.2,0,.4,0c.2,0,.4.2.6.3,1.4.9,2.5,2.2,3.3,3.7.9,1.9,1,4,.3,6-.2.6-.5,1.2-.9,1.8-.4.6-.8,1.2-1.4,1.6-.9,1-2.1,1.7-3.4,2-1,.2-2,.3-3,.2-1.2-.2-2.2-.7-3.2-1.4-.4-.3-.7-.6-1-.9-.1,0-.2-.2-.3-.4-1-1.1-1.7-2.5-2-3.9,0-.6,0-1.4,0-2.2h0ZM346.8,71.1c.2.9.7,1.7,1.4,2.3.8.7,1.8.9,2.8.6,1.2-.5,2.2-1.6,2.5-2.9.2-.9.2-1.8,0-2.6-.3-1-.8-1.8-1.6-2.4-.3-.2-.6-.3-.9-.4-.7-.2-1.5,0-2.2.2-.6.4-1.2,1-1.5,1.7-.6,1.1-.8,2.3-.5,3.5h0ZM360.1,62.1h4.7v2.1c0,2,0,2.1.1,2.5.4.9,1.4,1.4,2.4,1.1.5,0,.8-.5,1.1-.9l.2-.4v-4.4h4.7v2.5c.1,1,0,2-.2,3-.2.9-.7,1.7-1.2,2.4-.1,0-.2.2-.2.4-.3.4-.7.7-1.1,1s-.9.6-1.4.7c-.1,0-.4,0-.7.2-.5.2-1.1.2-1.7.2-.6,0-1.2,0-1.8-.2-.7,0-1.3-.4-1.9-.8-.7-.5-1.3-1.1-1.8-1.8-.6-.9-1-1.9-1.1-3-.2-1.6-.2-3.1,0-4.6h0ZM366.6,73.7h3.9v4h-7.7v-4h3.8ZM373.2,59s.1,0,.1-.2q0-.2.3-.3h28.7v1.6h-29.1c-.1,0-.1,0-.1-.6.1-.2.1-.5.1-.5h0ZM379.7,68.5h4.9v3.9h-9.8v-3.9h4.9ZM388.5,62.1h2.4v3.8h-4.7v-3.8s2.3,0,2.3,0ZM388.5,67.9h2.4v9.9h-4.7v-9.9h2.3ZM397.9,62.1h4.9v3.8h-9.8v-3.8s4.9,0,4.9,0ZM393.8,68.2h4.6v2.3c0,3.2-.1,3,2.3,3.1h1.5v4h-.6c-1.4.2-2.9.2-4.3,0-1,0-1.9-.5-2.6-1.2-.6-.7-.9-1.6-1-2.5,0-.8,0-5.8.1-5.8h0ZM405.6,60.2c.1-.4.3-.8.6-1,.9-.9,2.4-1,3.4-.3.4.2.7.6.8,1,.2.3.2.7.2,1s0,.7-.2,1.1c-.4.8-1.2,1.4-2.1,1.4-.8,0-1.6-.2-2.1-.8-.6-.7-.8-1.6-.6-2.4h0ZM406.1,61.8c.3.6.9,1,1.6,1.2s1.5,0,2-.5c.2-.2.4-.4.5-.6.2-.3.2-.6.2-1s0-.7-.2-1c-.1-.3-.3-.5-.6-.7-.2-.2-.5-.3-.7-.4-1.1-.3-2.3.2-2.8,1.3-.2.5-.2,1.2,0,1.7h0ZM407.8,59.4c.3,0,.7,0,1,0,.4.3.5.8.3,1.2-.1,0-.2.2-.3.2h-.2c0,0,.2.3.2.3.2.2.3.4.4.6.1,0,.2.3.3.4.1,0,0,.2-.2.2h-.3l-.4-.6c-.4-.6-.5-.7-1-.7h-.3v1.3h-.4v-3h.9ZM408,60.6c.5,0,.6,0,.7,0,.4-.3.2-.7-.4-.8h-.9v.8h.6Z"/>
        <circle id="circle84" class="cls-6" cx="394.9" cy="179.2" r="9.8"/>
        <circle id="circle86" class="cls-6" cx="347.8" cy="179.2" r="9.8"/>
        <polygon id="rect88" class="cls-5" points="349.4 88 352.7 88 339.7 146.2 336.4 146.2 349.4 88"/>
        <polygon id="rect90" class="cls-5" points="389.8 88 393.2 88 406.5 146.2 403.2 146.2 389.8 88"/>
        <polygon id="rect96" class="cls-5" points="351.3 39.2 354.7 39.2 352.7 88.3 349.4 88.3 351.3 39.2"/>
        <polygon id="rect98" class="cls-5" points="387.2 39.2 390.6 39.2 393.2 88.4 389.8 88.4 387.2 39.2"/>
        <path id="path100" class="cls-2" d="M371,0c-10.4,0-19,8.1-19.6,18.5h-.1v23.6h11.8v-4.4c2.5,1.1,5.2,1.6,7.9,1.7,2.7,0,5.3-.6,7.8-1.6v4.4h11.8v-21.4c0-.4.1-.8.1-1.2,0-10.8-8.9-19.6-19.7-19.6h0Z"/>
        <g id="text88">
          <g class="cls-3">
            <path class="cls-25" d="M300.2,218.2h.2c.1,0,.1.1.1.2s.1.2.1.3v1.2c0,.2-.1.3-.1.4-.1.1-.1.2-.2.2l-7.9,5.8h8.1c.1,0,.1.1.1.2s.1.2.1.3v1c0,.1,0,.2-.1.3,0,.1-.1.1-.1.2h-15.5s-.1-.1-.1-.2-.1-.2-.1-.3v-1c0-.1,0-.2.1-.3,0-.1.1-.1.1-.2h7.2l-7-5.6c-.1,0-.1-.1-.2-.2s-.1-.1-.1-.2-.1-.2-.1-.3v-1c0-.1,0-.2.1-.3,0-.1.1-.1.1-.2h.2c.1,0,.2,0,.3.1.1.1.3.2.4.3l6.2,5.2,7.5-5.6.4-.2s.1,0,.2,0Z"/>
          </g>
          <g class="cls-3">
            <path class="cls-25" d="M294.4,210.5h6s.1.1.1.2.1.2.1.3v1c0,.1,0,.2-.1.3s-.1.1-.1.2h-6l-8.9,4.5c-.2.1-.3.1-.4.2-.1,0-.2,0-.2-.1-.1-.1-.1-.2-.1-.3v-1.2c0-.2,0-.3.1-.4s.1-.2.1-.2c.1,0,.1-.1.2-.1l4.5-2.2c.4-.2.9-.4,1.4-.6.5-.2.9-.4,1.4-.6h0c-.5-.2-.9-.4-1.4-.6-.5-.2-.9-.4-1.4-.6l-4.6-2.2c-.1,0-.2-.1-.2-.1-.1,0-.1-.1-.1-.2s-.1-.2-.1-.3v-1.2c0-.2.1-.3.1-.3q.1-.1.2-.1c.1,0,.2.1.4.2l9,4.4Z"/>
          </g>
          <g class="cls-3">
            <path class="cls-25" d="M294.4,200.1c.3,0,.5,0,.7.1.1.1.2.2.2.3v5.1c0,.1-.1.3-.2.3-.1.1-.3.1-.7.1s-.5,0-.6-.1-.2-.2-.2-.3v-5.3c0-.1.1-.1.1-.1.1,0,.2-.1.3-.1h.4Z"/>
            <path class="cls-25" d="M292.6,187.5c1.2,0,2.3.1,3.3.3s1.9.5,2.6,1,1.3,1,1.7,1.7c.4.7.6,1.6.6,2.6s-.2,1.8-.5,2.5c-.4.7-.9,1.2-1.6,1.6-.7.4-1.5.7-2.5.9s-2.2.3-3.5.3-2.3-.1-3.3-.3-1.9-.5-2.6-1c-.7-.4-1.3-1-1.7-1.7-.4-.7-.6-1.6-.6-2.6s.2-1.8.5-2.5c.4-.7.9-1.2,1.6-1.6.7-.4,1.5-.7,2.5-.9,1.1-.2,2.2-.3,3.5-.3ZM292.8,189.6c-.8,0-1.5,0-2.1.1s-1.2.1-1.7.2c-.5.1-.9.3-1.2.4s-.6.4-.9.6c-.2.2-.4.5-.5.8s-.2.7-.2,1.1c0,.7.2,1.3.5,1.7s.8.8,1.3,1c.6.2,1.2.4,2,.5s1.6.1,2.5.1,2.2-.1,3-.2c.8-.1,1.5-.3,2-.6s.9-.6,1.1-1,.4-.9.4-1.5-.1-.9-.2-1.2-.4-.6-.6-.9c-.3-.2-.6-.5-1-.6-.4-.2-.8-.3-1.3-.4s-1-.2-1.5-.2c-.5.2-1.1,0-1.6,0Z"/>
            <path class="cls-25" d="M299.7,175.3h.4c.1,0,.2.1.3.1s.1.1.1.1v8.6h-.1c-.1.1-.2.2-.3.2h-.8c-.1,0-.2-.1-.3-.1s-.1-.1-.2-.1c0-.1-.1-.1-.1-.2v-3.3h-12l1.8,3c.1.2.1.3.1.4s0,.2-.1.2-.1.1-.3.1h-.9c-.1,0-.2,0-.2-.1-.1,0-.1-.1-.2-.1,0,0-.1-.1-.1-.2l-2.3-3.6s0-.1-.1-.1v-1.4c0-.1,0-.2.1-.3h.1c0-.1.1-.1.1-.1h13.9v-2.9q0-.1.1-.2c0-.1.1-.1.2-.1s.2-.1.3-.1.4.2.5.2Z"/>
            <path class="cls-25" d="M296,162.9c.7,0,1.4.1,2,.4.6.3,1.1.6,1.5,1.1s.7,1.1,1,1.7.3,1.5.3,2.3,0,1-.1,1.5-.2.9-.3,1.2c-.1.4-.2.7-.4.9s-.2.4-.3.4q-.1.1-.2.1c-.1,0-.1.1-.2.1s-.2,0-.3.1h-.4c-.3,0-.5,0-.6-.1s-.2-.1-.2-.3.1-.2.2-.4.3-.5.4-.8.3-.8.4-1.2c.1-.5.2-1,.2-1.5s-.1-1-.2-1.4-.3-.8-.6-1-.6-.5-.9-.6-.7-.2-1.1-.2-.8.1-1.2.3c-.4.2-.7.4-.9.8-.3.3-.5.8-.6,1.3s-.2,1.1-.2,1.7v1.7c0,.1-.1.1-.1.2-.1,0-.2.1-.3.1h-.8c-.1,0-.2-.1-.2-.1-.1,0-.1-.1-.1-.2v-1.6c0-.5-.1-1-.2-1.4s-.3-.8-.6-1.1c-.3-.3-.6-.5-.9-.7s-.8-.2-1.2-.2-.6.1-.9.2-.6.3-.8.5c-.2.2-.4.5-.5.8s-.2.7-.2,1.1.1.9.2,1.3.3.7.5,1.1c.2.3.3.6.5.8s.2.3.2.4v.2h-.1c0,.1-.1.1-.3.2h-.9c-.1,0-.1-.1-.2-.1s-.1-.1-.2-.2-.2-.2-.3-.5c-.1-.2-.3-.5-.4-.9-.1-.3-.3-.7-.4-1.2s-.1-.9-.1-1.5.1-1.4.3-1.9c.2-.6.5-1,.8-1.4s.7-.6,1.2-.8,1-.3,1.6-.3,1,.1,1.4.2c.4.1.8.3,1.1.6.3.3.6.6.8.9.2.4.4.8.5,1.3h0c.1-.5.2-1,.4-1.5.2-.5.5-.8.8-1.2.3-.3.7-.6,1.1-.8.1-.4.5-.4,1-.4Z"/>
          </g>
        </g>
        <g id="text92">
          <g class="cls-3">
            <path class="cls-25" d="M316.5,271.4c0,.7-.1,1.4-.4,2s-.6,1.1-1.1,1.5-1.1.7-1.7.9c-.7.2-1.4.3-2.1.3s-1,0-1.5-.1-.9-.2-1.2-.3-.7-.3-.9-.4c-.2-.1-.4-.3-.5-.4s-.2-.2-.2-.4-.1-.4-.1-.6v-.4c0-.1,0-.2.1-.3,0-.1.1-.1.1-.2h.2c.1,0,.3.1.5.2s.5.3.8.5.7.3,1.2.5c.5.1,1,.2,1.6.2s.9-.1,1.2-.2c.4-.1.7-.3,1-.5s.5-.5.6-.8.2-.7.2-1.1-.1-.8-.3-1.1-.5-.6-.8-.8c-.3-.2-.7-.5-1.1-.7s-.9-.4-1.3-.6-.9-.4-1.3-.7-.8-.5-1.1-.9c-.3-.3-.6-.7-.8-1.2s-.3-1-.3-1.7.1-1.2.4-1.8c.2-.5.6-.9,1-1.3.4-.3.9-.6,1.5-.8.6-.2,1.2-.3,1.9-.3s.7,0,1.1.1.7.1,1,.2.6.2.8.3c.2.1.4.2.5.3s.1.1.2.2c0,0,0,.1.1.2v1c0,.1,0,.2-.1.3s-.1.1-.1.2c0,0-.1.1-.2.1s-.2-.1-.4-.2c-.2-.1-.4-.2-.7-.4-.3-.1-.6-.3-1-.4s-.8-.2-1.3-.2-.8.1-1.1.2c-.3.1-.6.3-.8.5-.2.2-.4.4-.5.7-.1.3-.2.6-.2.9s.1.8.3,1.1c.2.3.5.6.8.8.3.2.7.5,1.2.7.4.2.9.4,1.3.6s.9.4,1.3.7c.4.2.8.5,1.2.9s.6.7.8,1.2.2.9.2,1.5Z"/>
          </g>
        </g>
        <g id="text96">
          <g class="cls-3">
            <path class="cls-25" d="M439.3,269.7c0,.3-.1.5-.3.7-.2.1-.5.2-.8.2h-13c-.4,0-.7-.1-.8-.2-.2-.1-.3-.3-.3-.7s.1-.5.3-.6c.2-.1.5-.2.8-.2h13.4c.1,0,.2.1.3.1.1.1.2.2.2.3s.2.2.2.4Z"/>
          </g>
        </g>
      </g>
      <circle id="circle281-5" class="cls-19" cx="401.6" cy="296.5" r="11.6"/>
      <circle id="circle281-6" class="cls-18" cx="371" cy="296.5" r="11.6"/>
      <circle id="circle281-7" class="cls-22" cx="340.1" cy="296.5" r="11.6"/>
      <rect id="rect1727-9" class="cls-28" x="365.3" y="296.5" width="11.3" height="180.9"/>
      <rect id="rect1727-10" class="cls-32" x="334.4" y="296.5" width="11.3" height="328.5"/>
      <rect id="rect1727-11" class="cls-24" x="395.9" y="296.5" width="11.3" height="214.9"/>
      <circle id="circle281-7-2" data-name="circle281-7" class="cls-22" cx="231.8" cy="618.9" r="11.6"/>
    </g>
  </g>
</svg>