<?xml version="1.0" encoding="UTF-8"?>
<svg xmlns="http://www.w3.org/2000/svg" version="1.1" viewBox="0 0 910.08 895.6">
  <defs>
    <style>
      .cls-1 {
        fill: #2c2c2c;
      }

      .cls-2, .cls-3 {
        fill: #fff;
      }

      .cls-4 {
        fill: #493930;
      }

      .cls-5 {
        fill: #be8839;
      }

      .cls-6 {
        fill: #dbded7;
      }

      .cls-7 {
        fill: #914f00;
      }

      .cls-8 {
        fill: #9a2442;
      }

      .cls-9 {
        fill: #303030;
      }

      .cls-10 {
        fill: #f53200;
      }

      .cls-11 {
        fill: #47494a;
      }

      .cls-12 {
        fill: #655a50;
      }

      .cls-13 {
        fill: #e30613;
      }

      .cls-14 {
        fill: #474949;
      }

      .cls-15, .cls-16, .cls-3, .cls-17, .cls-18 {
        isolation: isolate;
      }

      .cls-19 {
        fill: #fcf7fd;
      }

      .cls-20 {
        fill: purple;
      }

      .cls-21 {
        fill: #ada390;
      }

      .cls-22 {
        fill: #686868;
      }

      .cls-23 {
        fill: #e3ad51;
      }

      .cls-24 {
        fill: #ddd;
      }

      .cls-25 {
        fill: #1a1a1a;
      }

      .cls-26 {
        fill: #c4b3a8;
      }

      .cls-27 {
        fill: #a3928b;
      }

      .cls-28 {
        fill: #36323e;
      }

      .cls-16 {
        fill: gray;
      }

      .cls-16, .cls-3, .cls-17, .cls-18 {
        opacity: .99;
      }

      .cls-29 {
        fill: #eaeaea;
      }

      .cls-30 {
        fill: #1a1919;
      }

      .cls-31 {
        fill: #e3b37d;
      }

      .cls-32 {
        fill: #010103;
      }

      .cls-17 {
        fill: #ccc;
      }

      .cls-33 {
        fill: #f5b93e;
      }

      .cls-34 {
        fill: #e0dcd3;
      }

      .cls-35 {
        fill: none;
        stroke: #493930;
        stroke-miterlimit: 10;
      }

      .cls-36 {
        fill: #bcb3ad;
      }
    </style>
  </defs>
  <!-- Generator: Adobe Illustrator 28.6.0, SVG Export Plug-In . SVG Version: 1.2.0 Build 709)  -->
  <g>
    <g id="svg8">
      <g>
        <path class="cls-30" d="M590.05,128.14H7.32c-4.01,0-7.25,3.25-7.25,7.25v718.96c0,4.01,3.25,7.25,7.25,7.25h17.61l34.19,34.19h365.18v-.04l34.15-34.15h131.61c4.01,0,7.25-3.25,7.25-7.25V135.4c0-4.01-3.25-7.25-7.25-7.25ZM28.3,302.58c-10.01,0-18.13-8.12-18.13-18.13s8.12-18.13,18.13-18.13,18.13,8.12,18.13,18.13-8.12,18.13-18.13,18.13ZM88.21,884.4c-10.01,0-18.13-8.12-18.13-18.13s8.12-18.13,18.13-18.13,18.13,8.12,18.13,18.13-8.12,18.13-18.13,18.13ZM401.34,884.4c-10.01,0-18.13-8.12-18.13-18.13s8.12-18.13,18.13-18.13,18.13,8.12,18.13,18.13-8.12,18.13-18.13,18.13ZM569.59,313.97c-10.01,0-18.13-8.12-18.13-18.13s8.12-18.13,18.13-18.13,18.13,8.12,18.13,18.13-8.12,18.13-18.13,18.13Z"/>
        <rect class="cls-9" x="55.95" y="94.82" width="101.7" height="143.48"/>
        <path class="cls-9" d="M64.97,238.3h83.65v9.09c0,3.94-3.2,7.14-7.14,7.14h-69.37c-3.94,0-7.14-3.2-7.14-7.14v-9.09h0Z"/>
        <path class="cls-24" d="M571.49,166.82h-21.41v-4.55c0-.79-.64-1.42-1.42-1.42h-20.59c-.79,0-1.42.64-1.42,1.42v4.55h-21.41c-.97,0-1.75.78-1.75,1.75v65.05c0,.97.78,1.75,1.75,1.75h66.26c.97,0,1.75-.78,1.75-1.75v-65.05c0-.97-.78-1.75-1.75-1.75Z"/>
        <circle class="cls-8" cx="538.36" cy="198.1" r="19.17"/>
        <g>
          <circle class="cls-24" cx="148.62" cy="346.82" r="35.24"/>
          <path class="cls-32" d="M129.67,322.27c-8.13,5.15-13.53,14.21-13.53,24.55s5.4,19.4,13.53,24.55v-49.09Z"/>
        </g>
        <g>
          <circle class="cls-24" cx="174.18" cy="445.75" r="35.24"/>
          <path class="cls-32" d="M166.83,415.63c-9.52,1.4-18.14,7.49-22.34,16.94s-2.94,19.92,2.4,27.93l19.94-44.86Z"/>
        </g>
        <rect class="cls-31" x="278.61" y="208.63" width="9.84" height="21.5"/>
        <rect class="cls-31" x="362.33" y="252.35" width="9.84" height="21.5"/>
        <rect class="cls-31" x="451.6" y="326.45" width="9.84" height="21.5" transform="translate(793.71 -119.33) rotate(90)"/>
        <rect class="cls-31" x="451.6" y="266.96" width="9.84" height="21.5" transform="translate(734.23 -178.81) rotate(90)"/>
        <rect class="cls-31" x="327.18" y="355.38" width="9.84" height="21.5"/>
        <rect class="cls-33" x="396.69" y="452.75" width="9.84" height="21.5"/>
        <rect class="cls-31" x="423.54" y="452.75" width="9.84" height="21.5"/>
        <rect class="cls-31" x="449.87" y="452.75" width="9.84" height="21.5"/>
        <rect class="cls-31" x="329.96" y="740.31" width="9.84" height="21.5" transform="translate(-416.17 1085.93) rotate(-90)"/>
        <rect class="cls-33" x="387.33" y="758.56" width="9.84" height="21.5"/>
        <rect class="cls-14" x="302.64" y="252.35" width="31.47" height="14.62" rx="1.51" ry="1.51"/>
        <g>
          <path class="cls-34" d="M305.24,239.87h12.23v11.48h-12.23c-.68,0-1.24-.56-1.24-1.24v-9c0-.68.56-1.24,1.24-1.24Z" transform="translate(556.34 -65.12) rotate(90)"/>
          <path class="cls-34" d="M320.52,239.87h12.23v11.48h-12.23c-.68,0-1.24-.56-1.24-1.24v-9c0-.68.56-1.24,1.24-1.24Z" transform="translate(571.62 -80.4) rotate(90)"/>
        </g>
        <g>
          <rect class="cls-6" x="423.12" y="425.66" width="10.68" height="17.22"/>
          <rect class="cls-14" x="423.12" y="428.18" width="10.68" height="11.85"/>
        </g>
        <g>
          <rect class="cls-6" x="449.45" y="425.66" width="10.68" height="17.22"/>
          <rect class="cls-14" x="449.45" y="428.18" width="10.68" height="11.85"/>
        </g>
        <g>
          <rect class="cls-6" x="309.16" y="392.21" width="10.68" height="17.22" transform="translate(-86.31 715.33) rotate(-90)"/>
          <rect class="cls-14" x="309" y="394.9" width="10.68" height="11.85" transform="translate(-86.47 715.16) rotate(-90)"/>
        </g>
        <g>
          <rect class="cls-6" x="254.11" y="392.21" width="10.68" height="17.22" transform="translate(-141.37 660.27) rotate(-90)"/>
          <rect class="cls-14" x="253.95" y="394.9" width="10.68" height="11.85" transform="translate(-141.53 660.11) rotate(-90)"/>
        </g>
        <g>
          <rect class="cls-6" x="387.33" y="728.26" width="10.68" height="17.22"/>
          <rect class="cls-14" x="387.33" y="730.79" width="10.68" height="11.85"/>
        </g>
        <g>
          <rect class="cls-6" x="329.54" y="762.45" width="10.68" height="17.22" transform="translate(-436.18 1105.94) rotate(-90)"/>
          <rect class="cls-14" x="329.38" y="765.14" width="10.68" height="11.85" transform="translate(-436.34 1105.78) rotate(-90)"/>
        </g>
        <g>
          <rect class="cls-6" x="478.01" y="175.48" width="10.68" height="17.22"/>
          <rect class="cls-14" x="478.01" y="178.01" width="10.68" height="11.85"/>
        </g>
        <g>
          <rect class="cls-6" x="338.41" y="176.52" width="10.68" height="17.22"/>
          <rect class="cls-14" x="338.41" y="179.04" width="10.68" height="11.85"/>
        </g>
        <rect class="cls-27" x="441.91" y="289.69" width="12.17" height="32.83" rx="3.69" ry="3.69"/>
        <g>
          <rect class="cls-23" x="369.95" y="540.8" width="22.3" height="17.83" rx="2.85" ry="2.85" transform="translate(-277.08 430.48) rotate(-45)"/>
          <rect class="cls-26" x="370.83" y="541.5" width="20.54" height="16.42" rx="2.85" ry="2.85" transform="translate(-277.08 430.48) rotate(-45)"/>
        </g>
        <rect class="cls-36" x="374.83" y="516.73" width="12.17" height="10.97"/>
        <rect class="cls-36" x="394.42" y="516.73" width="12.17" height="10.97"/>
        <rect class="cls-36" x="374.83" y="569.62" width="12.17" height="10.97"/>
        <rect class="cls-36" x="394.42" y="569.62" width="12.17" height="10.97"/>
        <rect class="cls-10" x="326.27" y="792.98" width="20.85" height="11.01" rx="2.85" ry="2.85"/>
        <g>
          <path class="cls-2" d="M31.24,163.05v-4.5h2.08v7.14h-1.52c-2.87-2.4-4.83-2.66-8.9-2.85v-2.48c3.44.19,5.63.72,8.34,2.69Z"/>
          <path class="cls-2" d="M27.83,167.06v3.95h-1.74v-3.95h1.74Z"/>
          <path class="cls-2" d="M24.9,172.79v2.21h5.94v-1.9h1.54c.21,1.1.5,1.84.94,2.56v1.82h-8.42v1.89h-2v-6.58h2Z"/>
          <path class="cls-2" d="M24.44,180.81c2.27,2.71,4.18,4.35,5.65,4.35.98,0,1.49-.53,1.49-1.38,0-.7-.5-1.26-1.01-1.76l1.28-1.28c1.07,1.02,1.67,1.94,1.67,3.38,0,2.02-1.3,3.41-3.28,3.41-1.86,0-3.76-1.66-5.36-3.33.05.51.11,1.23.11,1.7v2.13h-2.08v-7.22h1.54Z"/>
          <path class="cls-2" d="M33.32,188.6v2.62l-4.75,1.14c-1.14.29-2.19.51-3.33.82v.06c1.14.3,2.19.53,3.33.82l4.75,1.25v2.53l-10.42-3.19v-2.99l10.42-3.06Z"/>
          <path class="cls-2" d="M33.32,202.1v2.5h-10.42v-2.5h10.42Z"/>
          <path class="cls-2" d="M33.32,207v2.58l-4.99,2.56c-.7.37-1.54.7-2.35,1.02v.06c1.12-.13,2.61-.32,3.84-.32h3.5v2.35h-10.42v-2.56l4.99-2.58c.7-.35,1.54-.69,2.35-1.01v-.06c-1.15.13-2.59.32-3.84.32h-3.51v-2.37h10.42Z"/>
          <path class="cls-2" d="M33.32,217.67v3.67c0,2.29-.82,4.16-3.38,4.16s-3.59-1.9-3.59-4.1v-1.23h-3.46v-2.5h10.42ZM28.32,221.26c0,1.23.58,1.81,1.62,1.81s1.41-.66,1.41-1.87v-1.02h-3.03v1.09Z"/>
          <path class="cls-2" d="M27.8,227.22h5.52v2.48h-5.79c-1.99,0-2.67.59-2.67,1.73s.69,1.78,2.67,1.78h5.79v2.39h-5.52c-3.52,0-5.09-1.39-5.09-4.16s1.57-4.21,5.09-4.21Z"/>
          <path class="cls-2" d="M31.24,239.98v-2.83h2.08v8.15h-2.08v-2.83h-8.34v-2.48h8.34Z"/>
        </g>
        <g>
          <path class="cls-2" d="M588.69,176.62v3.83c0,2.21-.77,4.07-3.28,4.07-1.52,0-2.5-.72-3.01-1.79l-4.13,2.32v-2.79l3.67-1.92v-1.22h-3.67v-2.5h10.42ZM583.9,180.26c0,1.18.51,1.82,1.5,1.82s1.31-.64,1.31-1.82v-1.14h-2.82v1.14Z"/>
          <path class="cls-2" d="M588.69,186.51v6.59h-2.08v-4.1h-1.95v3.51h-2.08v-3.51h-2.22v4.26h-2.08v-6.75h10.42Z"/>
          <path class="cls-2" d="M579.59,194.65l1.62,1.31c-.64.74-.99,1.74-.99,2.62,0,.94.35,1.38.91,1.38.61,0,.8-.56,1.17-1.47l.58-1.33c.43-1.1,1.34-2.11,2.85-2.11,1.75,0,3.15,1.57,3.15,3.78,0,1.25-.46,2.48-1.3,3.38l-1.62-1.3c.5-.7.77-1.42.77-2.08,0-.77-.3-1.26-.85-1.26-.61,0-.82.66-1.18,1.58l-.53,1.3c-.51,1.3-1.38,2.06-2.83,2.06-1.75,0-3.27-1.46-3.27-3.97,0-1.41.48-2.8,1.52-3.89Z"/>
          <path class="cls-2" d="M588.69,204.24v6.59h-2.08v-4.1h-1.95v3.51h-2.08v-3.51h-2.22v4.26h-2.08v-6.75h10.42Z"/>
          <path class="cls-2" d="M586.61,215.07v-2.83h2.08v8.15h-2.08v-2.83h-8.34v-2.48h8.34Z"/>
        </g>
        <g>
          <path class="cls-2" d="M371.73,837.34v2.5h-10.42v-2.5h10.42Z"/>
          <path class="cls-2" d="M366.45,841.76c3.47,0,5.47,2.34,5.47,4.96,0,1.36-.61,2.45-1.36,3.17l-1.5-1.31c.48-.51.72-1.06.72-1.79,0-1.38-1.22-2.48-3.23-2.48s-3.28.98-3.28,2.43c0,.85.34,1.5.86,2l-1.47,1.3c-1.04-.91-1.54-2.07-1.54-3.38,0-2.66,1.81-4.9,5.33-4.9Z"/>
          <path class="cls-2" d="M362.64,850.44l1.62,1.31c-.64.74-.99,1.75-.99,2.62,0,.94.35,1.38.91,1.38.61,0,.8-.56,1.17-1.47l.58-1.33c.43-1.1,1.34-2.11,2.85-2.11,1.75,0,3.15,1.57,3.15,3.78,0,1.25-.46,2.48-1.3,3.38l-1.62-1.3c.5-.7.77-1.42.77-2.08,0-.77-.3-1.26-.85-1.26-.61,0-.82.66-1.18,1.58l-.53,1.3c-.51,1.3-1.38,2.07-2.83,2.07-1.75,0-3.27-1.46-3.27-3.97,0-1.41.48-2.8,1.52-3.89Z"/>
          <path class="cls-2" d="M371.73,860.03v3.67c0,2.29-.82,4.16-3.38,4.16s-3.59-1.9-3.59-4.1v-1.23h-3.46v-2.5h10.42ZM366.74,863.61c0,1.23.58,1.81,1.62,1.81s1.41-.66,1.41-1.87v-1.02h-3.03v1.09Z"/>
        </g>
        <path class="cls-2" d="M388.73,789.25c-1.21,1.01-1.98,2.53-1.98,4.23,0,3.04,2.46,5.5,5.5,5.5s5.5-2.46,5.5-5.5c0-1.7-.77-3.22-1.98-4.23-.42-.35-.48-.99-.13-1.41s.98-.48,1.41-.13c1.65,1.38,2.71,3.45,2.71,5.77,0,4.14-3.36,7.5-7.5,7.5s-7.5-3.36-7.5-7.5c0-2.32,1.05-4.39,2.7-5.77.42-.35,1.06-.3,1.41.13.35.42.3,1.06-.13,1.41h0ZM393.25,793.48c0,.55-.45,1-1,1s-1-.45-1-1v-7c0-.55.45-1,1-1s1,.45,1,1v7Z"/>
        <polyline class="cls-35" points="36.05 320.66 42.74 320.66 105.36 383.28 116.14 383.28"/>
        <polyline class="cls-35" points="35.85 328.75 42.74 328.75 102.88 388.9 102.88 520.6 159.62 577.34 212.38 577.34 224.6 564.95 263.58 564.95"/>
        <polyline class="cls-35" points="33.38 356.21 44.72 356.21 86.9 398.38 86.9 521.39 156.73 591.22 268.42 591.22"/>
        <polyline class="cls-35" points="22.97 441.76 61.93 480.72 61.93 544.67 33.22 573.38"/>
        <line class="cls-4" x1="76.09" y1="523.48" x2="151.92" y2="599.3"/>
        <polyline class="cls-35" points="131.4 590.8 88.65 633.54 24.52 633.54"/>
        <polyline class="cls-35" points="131.4 601.41 91.34 641.47 26.03 641.47"/>
        <polyline class="cls-35" points="267.4 599.93 234.82 599.93 159.23 675.53 78.72 675.53 56.04 698.2 31.25 698.2"/>
        <polyline class="cls-35" points="249.5 608.98 249.5 655.34 179.69 725.16 30.56 725.16"/>
        <polyline class="cls-35" points="264.83 628.93 264.83 665.24 176.29 753.7 31.25 753.7"/>
        <polyline class="cls-35" points="273.62 628.7 273.62 667.94 158.82 782.74 24.52 782.74"/>
        <polyline class="cls-35" points="282.57 629.63 282.57 675.21 147.43 810.36 30.56 810.36"/>
        <polyline class="cls-35" points="291.11 633.62 291.11 683.06 134.75 839.41 30.56 839.41"/>
        <line class="cls-4" x1="328.79" y1="718.59" x2="292.19" y2="681.98"/>
        <polyline class="cls-35" points="331.17 734.88 305.97 709.68 280.16 709.68"/>
        <polyline class="cls-35" points="344.46 742.64 344.46 683.9 299.8 639.24 299.8 619.84"/>
        <polyline class="cls-35" points="278.51 857.47 262.17 841.13 262.17 776.4 287.46 751.11"/>
        <polyline class="cls-35" points="308.27 628.21 308.27 639.08 361.79 692.6 401.53 692.6 506.88 797.95 506.88 827.08 518.65 838.85 563.74 838.85"/>
        <polyline class="cls-35" points="317.11 629.31 317.11 640.18 359.42 682.49 421.47 682.49 568.69 829.71"/>
        <polyline class="cls-35" points="327.2 628.86 367.99 669.65 433.56 669.65 574 810.09"/>
        <polyline class="cls-35" points="345.81 608.21 400.22 608.21 571.28 779.27"/>
        <polyline class="cls-35" points="347.12 599.93 407.31 599.93 573.55 766.17"/>
        <polyline class="cls-35" points="496.06 619.71 489.12 612.78 443.11 612.78"/>
        <polyline class="cls-35" points="347.12 556.3 358.26 556.3 367.1 565.13 377.79 565.13"/>
        <polyline class="cls-35" points="346.91 547.37 356.88 547.37 367.45 536.8 380.66 536.8"/>
        <polyline class="cls-35" points="325.45 523.84 341.89 507.41 411.8 507.41 566.87 662.47"/>
        <polyline class="cls-35" points="317 525.62 317 521.07 336.51 501.56 414.74 501.56 575.1 661.93"/>
        <polyline class="cls-35" points="308.29 525.59 308.29 517.19 328.56 496.92 418.51 496.92 574.89 653.3"/>
        <polyline class="cls-35" points="299.71 524.03 299.71 515.8 323.51 492.01 418.88 492.01 576.4 649.53"/>
        <polyline class="cls-35" points="291.1 523.53 291.1 511.58 316.02 486.66 420.09 486.66 580.52 647.09"/>
        <polyline class="cls-35" points="282.21 525.18 282.21 503.45 303.42 483.36 425.1 483.36 480.18 538.45 580.52 538.45"/>
        <polyline class="cls-35" points="273.59 523.33 273.59 500.02 297.3 478.11 426.82 478.11 458.13 509.41 579.11 509.41"/>
        <polyline class="cls-35" points="264.83 522.85 264.83 498.85 286.85 476.83 290.22 473.46"/>
        <polyline class="cls-35" points="221.26 540.92 221.26 511.85 289.57 443.54 315.46 443.54 322.42 450.51 372.26 450.51 399.63 423.14 426.8 423.14"/>
        <polyline class="cls-35" points="210.31 438.06 314.34 438.06 335.15 417.25 354.37 417.25"/>
        <polyline class="cls-35" points="286.68 367.48 286.68 378.23 277.68 387.22 260.29 387.22 247.64 374.58 247.64 365.35 247.64 340.26"/>
        <polyline class="cls-35" points="226.88 309.57 226.88 301.28 232.38 295.78 249.35 295.78"/>
        <polyline class="cls-35" points="191.2 287.25 237.43 287.25 258 266.68 258 244.85"/>
        <polyline class="cls-35" points="319.21 273.7 333.07 273.7 341.68 265.09 341.68 232.52 313.67 204.51 297.97 204.51 276.01 182.55"/>
        <polyline class="cls-35" points="285.93 179.04 299.75 192.87 311.31 192.87"/>
        <polyline class="cls-35" points="323.29 176.52 323.29 196.78 344.46 217.95 379.95 217.95 384.62 213.27 384.62 184.09"/>
        <path class="cls-35" d="M402.58,294.04v-48.43"/>
        <path class="cls-35" d="M418.15,245.61v22.01"/>
        <polyline class="cls-35" points="415.69 301.3 428.08 301.3 440.03 289.36"/>
        <polyline class="cls-35" points="415.56 315.03 428.46 315.03 440.59 327.15"/>
        <line class="cls-35" x1="416.08" y1="356.21" x2="439.64" y2="356.21"/>
        <line class="cls-35" x1="413.85" y1="370.27" x2="441.91" y2="370.27"/>
        <polyline class="cls-35" points="415.56 383.66 426.8 383.66 441.91 383.66"/>
        <line class="cls-35" x1="562.92" y1="246.5" x2="530.42" y2="279.01"/>
        <g>
          <rect class="cls-14" x="257.27" y="540.05" width="75.97" height="75.97" rx="5.87" ry="5.87"/>
          <circle class="cls-1" cx="322.36" cy="604.14" r="4.83"/>
          <g>
            <path class="cls-34" d="M240.38,544.67h16.89v5.87h-16.89c-.68,0-1.24-.56-1.24-1.24v-3.39c0-.68.56-1.24,1.24-1.24Z"/>
            <path class="cls-34" d="M240.38,553.36h16.89v5.87h-16.89c-.68,0-1.24-.56-1.24-1.24v-3.39c0-.68.56-1.24,1.24-1.24Z"/>
            <path class="cls-34" d="M240.38,562.06h16.89v5.87h-16.89c-.68,0-1.24-.56-1.24-1.24v-3.39c0-.68.56-1.24,1.24-1.24Z"/>
            <path class="cls-34" d="M240.38,570.75h16.89v5.87h-16.89c-.68,0-1.24-.56-1.24-1.24v-3.39c0-.68.56-1.24,1.24-1.24Z"/>
            <path class="cls-34" d="M240.38,579.45h16.89v5.87h-16.89c-.68,0-1.24-.56-1.24-1.24v-3.39c0-.68.56-1.24,1.24-1.24Z"/>
            <path class="cls-34" d="M240.38,588.14h16.89v5.87h-16.89c-.68,0-1.24-.56-1.24-1.24v-3.39c0-.68.56-1.24,1.24-1.24Z"/>
            <path class="cls-34" d="M240.38,596.83h16.89v5.87h-16.89c-.68,0-1.24-.56-1.24-1.24v-3.39c0-.68.56-1.24,1.24-1.24Z"/>
            <path class="cls-34" d="M240.38,605.53h16.89v5.87h-16.89c-.68,0-1.24-.56-1.24-1.24v-3.39c0-.68.56-1.24,1.24-1.24Z"/>
          </g>
          <g>
            <path class="cls-34" d="M317.86,528.05h16.89v5.87h-16.89c-.68,0-1.24-.56-1.24-1.24v-3.39c0-.68.56-1.24,1.24-1.24Z" transform="translate(856.67 205.3) rotate(90)"/>
            <path class="cls-34" d="M309.17,528.05h16.89v5.87h-16.89c-.68,0-1.24-.56-1.24-1.24v-3.39c0-.68.56-1.24,1.24-1.24Z" transform="translate(847.97 213.99) rotate(90)"/>
            <path class="cls-34" d="M300.47,528.05h16.89v5.87h-16.89c-.68,0-1.24-.56-1.24-1.24v-3.39c0-.68.56-1.24,1.24-1.24Z" transform="translate(839.28 222.69) rotate(90)"/>
            <path class="cls-34" d="M291.78,528.05h16.89v5.87h-16.89c-.68,0-1.24-.56-1.24-1.24v-3.39c0-.68.56-1.24,1.24-1.24Z" transform="translate(830.59 231.38) rotate(90)"/>
            <path class="cls-34" d="M283.08,528.05h16.89v5.87h-16.89c-.68,0-1.24-.56-1.24-1.24v-3.39c0-.68.56-1.24,1.24-1.24Z" transform="translate(821.89 240.08) rotate(90)"/>
            <path class="cls-34" d="M274.39,528.05h16.89v5.87h-16.89c-.68,0-1.24-.56-1.24-1.24v-3.39c0-.68.56-1.24,1.24-1.24Z" transform="translate(813.2 248.77) rotate(90)"/>
            <path class="cls-34" d="M265.7,528.05h16.89v5.87h-16.89c-.68,0-1.24-.56-1.24-1.24v-3.39c0-.68.56-1.24,1.24-1.24Z" transform="translate(804.5 257.46) rotate(90)"/>
            <path class="cls-34" d="M257,528.05h16.89v5.87h-16.89c-.68,0-1.24-.56-1.24-1.24v-3.39c0-.68.56-1.24,1.24-1.24Z" transform="translate(795.81 266.16) rotate(90)"/>
          </g>
          <g>
            <path class="cls-34" d="M257,622.15h16.89v5.87h-16.89c-.68,0-1.24-.56-1.24-1.24v-3.39c0-.68.56-1.24,1.24-1.24Z" transform="translate(-360.26 889.91) rotate(-90)"/>
            <path class="cls-34" d="M265.7,622.15h16.89v5.87h-16.89c-.68,0-1.24-.56-1.24-1.24v-3.39c0-.68.56-1.24,1.24-1.24Z" transform="translate(-351.56 898.6) rotate(-90)"/>
            <path class="cls-34" d="M274.39,622.15h16.89v5.87h-16.89c-.68,0-1.24-.56-1.24-1.24v-3.39c0-.68.56-1.24,1.24-1.24Z" transform="translate(-342.87 907.3) rotate(-90)"/>
            <path class="cls-34" d="M283.08,622.15h16.89v5.87h-16.89c-.68,0-1.24-.56-1.24-1.24v-3.39c0-.68.56-1.24,1.24-1.24Z" transform="translate(-334.18 915.99) rotate(-90)"/>
            <path class="cls-34" d="M291.78,622.15h16.89v5.87h-16.89c-.68,0-1.24-.56-1.24-1.24v-3.39c0-.68.56-1.24,1.24-1.24Z" transform="translate(-325.48 924.69) rotate(-90)"/>
            <path class="cls-34" d="M300.47,622.15h16.89v5.87h-16.89c-.68,0-1.24-.56-1.24-1.24v-3.39c0-.68.56-1.24,1.24-1.24Z" transform="translate(-316.79 933.38) rotate(-90)"/>
            <path class="cls-34" d="M309.17,622.15h16.89v5.87h-16.89c-.68,0-1.24-.56-1.24-1.24v-3.39c0-.68.56-1.24,1.24-1.24Z" transform="translate(-308.09 942.07) rotate(-90)"/>
            <path class="cls-34" d="M317.86,622.15h16.89v5.87h-16.89c-.68,0-1.24-.56-1.24-1.24v-3.39c0-.68.56-1.24,1.24-1.24Z" transform="translate(-299.4 950.77) rotate(-90)"/>
          </g>
          <g>
            <path class="cls-34" d="M334.48,605.25h16.89v5.87h-16.89c-.68,0-1.24-.56-1.24-1.24v-3.39c0-.68.56-1.24,1.24-1.24Z" transform="translate(684.61 1216.37) rotate(180)"/>
            <path class="cls-34" d="M334.48,596.55h16.89v5.87h-16.89c-.68,0-1.24-.56-1.24-1.24v-3.39c0-.68.56-1.24,1.24-1.24Z" transform="translate(684.61 1198.98) rotate(180)"/>
            <path class="cls-34" d="M334.48,587.86h16.89v5.87h-16.89c-.68,0-1.24-.56-1.24-1.24v-3.39c0-.68.56-1.24,1.24-1.24Z" transform="translate(684.61 1181.59) rotate(180)"/>
            <path class="cls-34" d="M334.48,579.17h16.89v5.87h-16.89c-.68,0-1.24-.56-1.24-1.24v-3.39c0-.68.56-1.24,1.24-1.24Z" transform="translate(684.61 1164.2) rotate(180)"/>
            <path class="cls-34" d="M334.48,570.47h16.89v5.87h-16.89c-.68,0-1.24-.56-1.24-1.24v-3.39c0-.68.56-1.24,1.24-1.24Z" transform="translate(684.61 1146.82) rotate(180)"/>
            <path class="cls-34" d="M334.48,561.78h16.89v5.87h-16.89c-.68,0-1.24-.56-1.24-1.24v-3.39c0-.68.56-1.24,1.24-1.24Z" transform="translate(684.61 1129.43) rotate(180)"/>
            <path class="cls-34" d="M334.48,553.09h16.89v5.87h-16.89c-.68,0-1.24-.56-1.24-1.24v-3.39c0-.68.56-1.24,1.24-1.24Z" transform="translate(684.61 1112.04) rotate(180)"/>
            <path class="cls-34" d="M334.48,544.39h16.89v5.87h-16.89c-.68,0-1.24-.56-1.24-1.24v-3.39c0-.68.56-1.24,1.24-1.24Z" transform="translate(684.61 1094.65) rotate(180)"/>
          </g>
        </g>
        <path class="cls-2" d="M247.04,703.24v7.2c0,1.33-.04,2.48-.11,3.46-.05.81-.17,1.61-.36,2.39-.18.67-.45,1.31-.82,1.89-.46.73-.98,1.41-1.58,2.03-.64.69-1.49,1.21-2.55,1.56-1.06.35-2.31.52-3.74.52h-6.02v-7.42h3.71c.47.01.94-.06,1.39-.21.34-.12.65-.33.88-.61.25-.34.42-.73.5-1.15.12-.57.18-1.16.17-1.75v-7.92h8.53ZM232.64,726.62h95.05v3.1h-95.05v-3.1ZM247.04,691.28v7.42h-8.53v-7.42h8.53ZM267.35,690.73c1.13,0,2.26.09,3.38.28,1.05.18,2.07.46,3.06.85.96.38,1.87.85,2.73,1.42.86.57,1.66,1.23,2.38,1.97.72.75,1.37,1.56,1.94,2.44.56.86,1.02,1.79,1.39,2.75.38,1,.65,2.04.83,3.09.19,1.12.28,2.26.28,3.4,0,1.12-.09,2.24-.28,3.34-.18,1.03-.46,2.04-.83,3.02-.37.95-.83,1.86-1.38,2.72-.55.87-1.2,1.67-1.93,2.4-.72.74-1.51,1.4-2.36,1.97-.83.56-1.73,1.03-2.66,1.41-.96.38-1.95.67-2.97.85-1.09.2-2.19.29-3.29.29-1.14,0-2.27-.09-3.39-.29-1.05-.18-2.08-.47-3.07-.84-.96-.37-1.88-.83-2.74-1.4-1.75-1.14-3.24-2.62-4.4-4.36-.57-.85-1.05-1.76-1.42-2.72-.38-.98-.67-1.99-.85-3.03-.39-2.22-.39-4.49,0-6.71.19-1.04.47-2.06.85-3.05.37-.96.84-1.88,1.41-2.74.57-.88,1.24-1.7,1.97-2.45.72-.75,1.52-1.43,2.39-2.02.85-.57,1.75-1.06,2.69-1.44.96-.39,1.97-.68,2.99-.86,1.08-.2,2.18-.29,3.28-.29h0ZM267.35,697.85c-1.02-.02-2.03.18-2.96.59-.87.4-1.64,1-2.23,1.76-.64.84-1.1,1.8-1.37,2.83-.31,1.09-.47,2.34-.47,3.75-.02,1.27.14,2.54.47,3.77.28,1.05.77,2.03,1.44,2.88.6.77,1.38,1.39,2.26,1.81.93.42,1.95.63,2.97.61,1.02.02,2.03-.18,2.96-.59.88-.4,1.64-1.02,2.23-1.79.63-.85,1.1-1.82,1.37-2.85.31-1.1.47-2.37.47-3.8.02-1.25-.14-2.49-.47-3.69-.28-1.03-.77-2-1.42-2.85-.59-.79-1.37-1.42-2.26-1.83-.87-.39-1.87-.59-2.99-.59h0ZM286.81,691.28h8.53v7.72c0,1.58.31,2.77.94,3.57s1.57,1.2,2.83,1.2c1.29,0,2.26-.42,2.91-1.26s.97-2.11.97-3.79v-7.43h8.42v5.39c0,1.34-.05,2.55-.16,3.61-.08.93-.24,1.85-.49,2.75-.27.87-.64,1.69-1.12,2.46-.6.97-1.27,1.89-2.03,2.75-.43.49-.93.92-1.48,1.28-.59.38-1.23.68-1.9.9-.77.25-1.56.43-2.36.54-.93.13-1.86.19-2.8.19-.9,0-1.8-.06-2.69-.18-.78-.1-1.54-.28-2.29-.52-.66-.21-1.29-.5-1.88-.87-.54-.33-1.03-.74-1.46-1.21-.77-.82-1.46-1.7-2.08-2.64-.48-.73-.87-1.52-1.15-2.35-.26-.87-.43-1.75-.53-2.65-.13-1.12-.18-2.25-.18-3.38v-6.08ZM306.09,714.88v7.42h-14.18v-7.42h14.18ZM310.07,684.52h56.83v2.88h-56.83v-2.88ZM313.73,704.8h18.28v7.31h-18.28v-7.31ZM343.75,691.28v7.42h-8.53v-7.42h8.53ZM343.75,703.24v19.05h-8.53v-19.05h8.53ZM368.23,691.28v7.42h-19.94v-7.42h19.94ZM349.73,703.24h8.42v7.71c-.01.67.05,1.35.18,2.01.12.52.29.91.53,1.16.24.24.6.42,1.08.55.6.15,1.22.21,1.83.2h5.46v7.42h-7.92c-.78,0-1.57-.05-2.34-.17-.68-.1-1.36-.26-2.01-.49-.58-.2-1.13-.47-1.65-.8-.49-.31-.93-.69-1.32-1.12-.39-.44-.72-.93-.99-1.46-.3-.6-.54-1.23-.71-1.88-.2-.75-.34-1.52-.42-2.29-.1-.9-.15-1.81-.14-2.71v-8.13Z"/>
        <rect class="cls-31" x="208.92" y="531.76" width="9.84" height="21.5" transform="translate(-328.67 756.36) rotate(-90)"/>
        <rect class="cls-31" x="349.45" y="415.53" width="9.84" height="21.5"/>
        <g>
          <rect class="cls-14" x="268.06" y="318.93" width="50.5" height="39.26" rx="2.5" ry="2.5"/>
          <circle class="cls-1" cx="272.27" cy="350.23" r="2.65"/>
          <g>
            <path class="cls-34" d="M267.88,361.88h12.23v6.09h-12.23c-.68,0-1.24-.56-1.24-1.24v-3.6c0-.68.56-1.24,1.24-1.24Z" transform="translate(-91.55 638.3) rotate(-90)"/>
            <path class="cls-34" d="M281.17,361.88h12.23v6.09h-12.23c-.68,0-1.24-.56-1.24-1.24v-3.6c0-.68.56-1.24,1.24-1.24Z" transform="translate(-78.26 651.59) rotate(-90)"/>
            <path class="cls-34" d="M294.46,361.88h12.23v6.09h-12.23c-.68,0-1.24-.56-1.24-1.24v-3.6c0-.68.56-1.24,1.24-1.24Z" transform="translate(-64.97 664.89) rotate(-90)"/>
            <path class="cls-34" d="M307.75,361.88h12.23v6.09h-12.23c-.68,0-1.24-.56-1.24-1.24v-3.6c0-.68.56-1.24,1.24-1.24Z" transform="translate(-51.68 678.18) rotate(-90)"/>
          </g>
          <g>
            <path class="cls-34" d="M307.75,309.16h12.23v6.09h-12.23c-.68,0-1.24-.56-1.24-1.24v-3.6c0-.68.56-1.24,1.24-1.24Z" transform="translate(625.45 -1.05) rotate(90)"/>
            <path class="cls-34" d="M294.46,309.16h12.23v6.09h-12.23c-.68,0-1.24-.56-1.24-1.24v-3.6c0-.68.56-1.24,1.24-1.24Z" transform="translate(612.16 12.24) rotate(90)"/>
            <path class="cls-34" d="M281.17,309.16h12.23v6.09h-12.23c-.68,0-1.24-.56-1.24-1.24v-3.6c0-.68.56-1.24,1.24-1.24Z" transform="translate(598.87 25.53) rotate(90)"/>
            <path class="cls-34" d="M267.88,309.16h12.23v6.09h-12.23c-.68,0-1.24-.56-1.24-1.24v-3.6c0-.68.56-1.24,1.24-1.24Z" transform="translate(585.58 38.82) rotate(90)"/>
          </g>
        </g>
        <g>
          <g>
            <path class="cls-34" d="M222.12,336.45h12.23v9.6h-12.23c-.68,0-1.24-.56-1.24-1.24v-7.12c0-.68.56-1.24,1.24-1.24Z" transform="translate(-113.64 568.86) rotate(-90)"/>
            <path class="cls-34" d="M241.77,336.45h12.23v9.6h-12.23c-.68,0-1.24-.56-1.24-1.24v-7.12c0-.68.56-1.24,1.24-1.24Z" transform="translate(-93.99 588.51) rotate(-90)"/>
          </g>
          <g>
            <path class="cls-34" d="M221.44,308.42h12.23v6.09h-12.23c-.68,0-1.24-.56-1.24-1.24v-3.6c0-.68.56-1.24,1.24-1.24Z" transform="translate(538.4 84.54) rotate(90)"/>
            <path class="cls-34" d="M231.94,308.42h12.23v6.09h-12.23c-.68,0-1.24-.56-1.24-1.24v-3.6c0-.68.56-1.24,1.24-1.24Z" transform="translate(548.9 74.03) rotate(90)"/>
            <path class="cls-34" d="M242.45,308.42h12.23v6.09h-12.23c-.68,0-1.24-.56-1.24-1.24v-3.6c0-.68.56-1.24,1.24-1.24Z" transform="translate(559.41 63.53) rotate(90)"/>
          </g>
          <rect class="cls-14" x="222.22" y="318.2" width="30.43" height="16.32" rx=".73" ry=".73"/>
        </g>
        <rect class="cls-31" x="233.68" y="354.6" width="9.84" height="21.5" transform="translate(-126.75 603.95) rotate(-90)"/>
        <g>
          <rect class="cls-14" x="365.53" y="295.84" width="34.36" height="107.01"/>
          <g>
            <path class="cls-34" d="M348.64,298.37h16.89v5.87h-16.89c-.68,0-1.24-.56-1.24-1.24v-3.39c0-.68.56-1.24,1.24-1.24Z"/>
            <path class="cls-34" d="M348.64,312.09h16.89v5.87h-16.89c-.68,0-1.24-.56-1.24-1.24v-3.39c0-.68.56-1.24,1.24-1.24Z"/>
            <path class="cls-34" d="M348.64,325.82h16.89v5.87h-16.89c-.68,0-1.24-.56-1.24-1.24v-3.39c0-.68.56-1.24,1.24-1.24Z"/>
            <path class="cls-34" d="M348.64,339.55h16.89v5.87h-16.89c-.68,0-1.24-.56-1.24-1.24v-3.39c0-.68.56-1.24,1.24-1.24Z"/>
            <path class="cls-34" d="M348.64,353.27h16.89v5.87h-16.89c-.68,0-1.24-.56-1.24-1.24v-3.39c0-.68.56-1.24,1.24-1.24Z"/>
            <path class="cls-34" d="M348.64,367h16.89v5.87h-16.89c-.68,0-1.24-.56-1.24-1.24v-3.39c0-.68.56-1.24,1.24-1.24Z"/>
            <path class="cls-34" d="M348.64,380.73h16.89v5.87h-16.89c-.68,0-1.24-.56-1.24-1.24v-3.39c0-.68.56-1.24,1.24-1.24Z"/>
            <path class="cls-34" d="M348.64,394.45h16.89v5.87h-16.89c-.68,0-1.24-.56-1.24-1.24v-3.39c0-.68.56-1.24,1.24-1.24Z"/>
          </g>
          <g>
            <path class="cls-34" d="M401.13,394.45h16.89v5.87h-16.89c-.68,0-1.24-.56-1.24-1.24v-3.39c0-.68.56-1.24,1.24-1.24Z" transform="translate(817.91 794.78) rotate(180)"/>
            <path class="cls-34" d="M401.13,380.73h16.89v5.87h-16.89c-.68,0-1.24-.56-1.24-1.24v-3.39c0-.68.56-1.24,1.24-1.24Z" transform="translate(817.91 767.32) rotate(180)"/>
            <path class="cls-34" d="M401.13,367h16.89v5.87h-16.89c-.68,0-1.24-.56-1.24-1.24v-3.39c0-.68.56-1.24,1.24-1.24Z" transform="translate(817.91 739.87) rotate(180)"/>
            <path class="cls-34" d="M401.13,353.27h16.89v5.87h-16.89c-.68,0-1.24-.56-1.24-1.24v-3.39c0-.68.56-1.24,1.24-1.24Z" transform="translate(817.91 712.42) rotate(180)"/>
            <path class="cls-34" d="M401.13,339.55h16.89v5.87h-16.89c-.68,0-1.24-.56-1.24-1.24v-3.39c0-.68.56-1.24,1.24-1.24Z" transform="translate(817.91 684.96) rotate(180)"/>
            <path class="cls-34" d="M401.13,325.82h16.89v5.87h-16.89c-.68,0-1.24-.56-1.24-1.24v-3.39c0-.68.56-1.24,1.24-1.24Z" transform="translate(817.91 657.51) rotate(180)"/>
            <path class="cls-34" d="M401.13,312.09h16.89v5.87h-16.89c-.68,0-1.24-.56-1.24-1.24v-3.39c0-.68.56-1.24,1.24-1.24Z" transform="translate(817.91 630.06) rotate(180)"/>
            <path class="cls-34" d="M401.13,298.37h16.89v5.87h-16.89c-.68,0-1.24-.56-1.24-1.24v-3.39c0-.68.56-1.24,1.24-1.24Z" transform="translate(817.91 602.6) rotate(180)"/>
          </g>
          <circle class="cls-1" cx="391.86" cy="392.96" r="4.92"/>
        </g>
        <rect class="cls-31" x="444.52" y="342.52" width="9.84" height="21.5" transform="translate(802.71 -96.17) rotate(90)"/>
        <g>
          <rect class="cls-6" x="444.1" y="361.84" width="10.68" height="17.22" transform="translate(819.89 -78.99) rotate(90)"/>
          <rect class="cls-14" x="444.26" y="364.52" width="10.68" height="11.85" transform="translate(820.05 -79.16) rotate(90)"/>
        </g>
        <g>
          <rect class="cls-6" x="444.1" y="379.43" width="10.68" height="17.22" transform="translate(837.48 -61.4) rotate(90)"/>
          <rect class="cls-14" x="444.26" y="382.12" width="10.68" height="11.85" transform="translate(837.65 -61.56) rotate(90)"/>
        </g>
        <g>
          <rect class="cls-6" x="397.23" y="230.64" width="10.68" height="17.22"/>
          <rect class="cls-14" x="397.23" y="233.16" width="10.68" height="11.85"/>
        </g>
        <g>
          <rect class="cls-6" x="412.81" y="230.48" width="10.68" height="17.22"/>
          <rect class="cls-14" x="412.81" y="233" width="10.68" height="11.85"/>
        </g>
        <path class="cls-34" d="M312.06,267.96h12.23v11.48h-12.23c-.68,0-1.24-.56-1.24-1.24v-9c0-.68.56-1.24,1.24-1.24Z" transform="translate(43.85 591.25) rotate(-90)"/>
        <g>
          <rect class="cls-5" x="274.73" y="148.73" width="51.47" height="35.09"/>
          <rect class="cls-12" x="287.1" y="148.73" width="26.74" height="35.09"/>
        </g>
        <g>
          <path class="cls-24" d="M370.04,114.59h0s87.63,0,87.63,0h0c2.69,1.42,4.38,4.22,4.38,7.26v70.1c0,.99-.8,1.79-1.79,1.79h-92.81c-.99,0-1.79-.8-1.79-1.79v-70.1c0-3.05,1.69-5.84,4.38-7.26Z"/>
          <g>
            <path class="cls-22" d="M444.79,187.91h0c0-1.35-1.09-2.44-2.44-2.44h-9.91c-.84,0-1.52-.68-1.52-1.52v-2.07c0-.84.68-1.52,1.52-1.52h9.91c1.35,0,2.44-1.09,2.44-2.44h0c0-1.35-1.09-2.44-2.44-2.44h-13.99c-1.35,0-2.44,1.09-2.44,2.44v9.99c0,1.35,1.09,2.44,2.44,2.44h13.99c1.35,0,2.44-1.09,2.44-2.44Z"/>
            <path class="cls-22" d="M382.92,177.92h0c0,1.35,1.09,2.44,2.44,2.44h9.91c.84,0,1.52.68,1.52,1.52v2.07c0,.84-.68,1.52-1.52,1.52h-9.91c-1.35,0-2.44,1.09-2.44,2.44h0c0,1.35,1.09,2.44,2.44,2.44h13.99c1.35,0,2.44-1.09,2.44-2.44v-9.99c0-1.35-1.09-2.44-2.44-2.44h-13.99c-1.35,0-2.44,1.09-2.44,2.44Z"/>
          </g>
        </g>
        <g>
          <rect class="cls-14" x="198.13" y="195.55" width="69.54" height="36.97" rx="1.2" ry="1.2"/>
          <g>
            <path class="cls-34" d="M199.7,238.65h16.89v5.87h-16.89c-.68,0-1.24-.56-1.24-1.24v-3.39c0-.68.56-1.24,1.24-1.24Z" transform="translate(-34.06 449.1) rotate(-90)"/>
            <path class="cls-34" d="M225.08,238.65h16.89v5.87h-16.89c-.68,0-1.24-.56-1.24-1.24v-3.39c0-.68.56-1.24,1.24-1.24Z" transform="translate(-8.68 474.48) rotate(-90)"/>
            <path class="cls-34" d="M250.46,238.65h16.89v5.87h-16.89c-.68,0-1.24-.56-1.24-1.24v-3.39c0-.68.56-1.24,1.24-1.24Z" transform="translate(16.7 499.87) rotate(-90)"/>
          </g>
          <path class="cls-34" d="M219.14,165.01h25.56v34.27h-25.56c-.68,0-1.24-.56-1.24-1.24v-31.79c0-.68.56-1.24,1.24-1.24Z" transform="translate(413.45 -49.16) rotate(90)"/>
        </g>
        <rect class="cls-14" x="150.39" y="273.7" width="48.43" height="27.11"/>
        <g>
          <rect class="cls-24" x="16.02" y="316.86" width="20.03" height="20.03"/>
          <circle class="cls-21" cx="26.03" cy="326.88" r="7.42"/>
          <rect class="cls-24" x="16.02" y="345.52" width="20.03" height="20.03"/>
          <circle class="cls-21" cx="26.03" cy="355.54" r="7.42"/>
          <rect class="cls-24" x="16.02" y="374.19" width="20.03" height="20.03"/>
          <circle class="cls-21" cx="26.03" cy="384.2" r="7.42"/>
          <rect class="cls-24" x="16.02" y="402.85" width="20.03" height="20.03"/>
          <circle class="cls-21" cx="26.03" cy="412.86" r="7.42"/>
        </g>
        <g>
          <rect class="cls-11" x="9.33" y="429.27" width="33.41" height="240.86"/>
          <rect x="16.21" y="431.94" width="19.64" height="19.64"/>
          <rect x="16.21" y="462.45" width="19.64" height="19.64"/>
          <rect x="16.21" y="492.97" width="19.64" height="19.64"/>
          <rect x="16.21" y="523.48" width="19.64" height="19.64"/>
          <rect x="16.21" y="553.99" width="19.64" height="19.64"/>
          <rect x="16.21" y="584.5" width="19.64" height="19.64"/>
          <rect x="16.21" y="615.01" width="19.64" height="19.64"/>
          <rect x="16.21" y="645.52" width="19.64" height="19.64"/>
        </g>
        <g>
          <rect class="cls-11" x="9.33" y="675.8" width="33.41" height="178.79"/>
          <g>
            <rect x="16.21" y="679.1" width="19.64" height="19.64"/>
            <rect x="16.21" y="709.61" width="19.64" height="19.64"/>
            <rect x="16.21" y="740.12" width="19.64" height="19.64"/>
            <rect x="16.21" y="770.64" width="19.64" height="19.64"/>
            <rect x="16.21" y="801.15" width="19.64" height="19.64"/>
            <rect x="16.21" y="831.66" width="19.64" height="19.64"/>
          </g>
        </g>
        <g>
          <path class="cls-2" d="M50.35,467.45h2.5v10.42h-2.5v-10.42Z"/>
          <path class="cls-2" d="M54.77,472.62c0-3.43,1.94-5.36,4.77-5.36s4.77,1.95,4.77,5.36-1.94,5.44-4.77,5.44-4.77-2.03-4.77-5.44ZM61.76,472.62c0-2.03-.85-3.22-2.23-3.22s-2.23,1.18-2.23,3.22.86,3.3,2.23,3.3,2.23-1.28,2.23-3.3Z"/>
          <path class="cls-2" d="M66.24,467.45h3.83c2.21,0,4.07.77,4.07,3.28,0,1.52-.72,2.5-1.79,3.01l2.32,4.13h-2.79l-1.92-3.67h-1.22v3.67h-2.5v-10.42ZM69.87,472.23c1.18,0,1.82-.51,1.82-1.5s-.64-1.31-1.82-1.31h-1.14v2.82h1.14Z"/>
          <path class="cls-2" d="M76.13,467.45h6.59v2.08h-4.1v1.95h3.51v2.08h-3.51v2.22h4.26v2.08h-6.75v-10.42Z"/>
          <path class="cls-2" d="M84.93,467.45h6.66v2.08h-4.16v2.27h3.55v2.08h-3.55v3.99h-2.5v-10.42Z"/>
        </g>
        <g>
          <path class="cls-2" d="M51.59,497.96h3.83c2.21,0,4.07.77,4.07,3.28,0,1.52-.72,2.5-1.79,3.01l2.32,4.13h-2.79l-1.92-3.67h-1.22v3.67h-2.5v-10.42ZM55.22,502.74c1.18,0,1.82-.51,1.82-1.5s-.64-1.31-1.82-1.31h-1.14v2.82h1.14Z"/>
          <path class="cls-2" d="M61.47,497.96h6.59v2.08h-4.1v1.95h3.51v2.08h-3.51v2.22h4.26v2.08h-6.75v-10.42Z"/>
          <path class="cls-2" d="M69.62,507.05l1.31-1.62c.74.64,1.74.99,2.62.99.94,0,1.38-.35,1.38-.91,0-.61-.56-.8-1.47-1.17l-1.33-.58c-1.1-.43-2.11-1.34-2.11-2.85,0-1.75,1.57-3.15,3.78-3.15,1.25,0,2.48.46,3.38,1.3l-1.3,1.62c-.7-.5-1.42-.77-2.08-.77-.77,0-1.26.3-1.26.85,0,.61.66.82,1.58,1.18l1.3.53c1.3.51,2.06,1.38,2.06,2.83,0,1.75-1.46,3.27-3.97,3.27-1.41,0-2.8-.48-3.89-1.52Z"/>
          <path class="cls-2" d="M79.2,497.96h6.59v2.08h-4.1v1.95h3.51v2.08h-3.51v2.22h4.26v2.08h-6.75v-10.42Z"/>
          <path class="cls-2" d="M90.03,500.04h-2.83v-2.08h8.15v2.08h-2.83v8.34h-2.48v-8.34Z"/>
        </g>
        <g>
          <path class="cls-2" d="M51.95,537.64l1.14-1.57c.62.59,1.38,1.01,2.18,1.01.98,0,1.6-.42,1.6-1.2,0-.9-.48-1.42-2.66-1.42v-1.76c1.78,0,2.34-.53,2.34-1.36,0-.72-.43-1.12-1.2-1.12-.7,0-1.23.32-1.86.86l-1.25-1.5c.94-.8,1.98-1.3,3.22-1.3,2.16,0,3.57,1.02,3.57,2.87,0,1.06-.58,1.84-1.68,2.32v.06c1.17.34,2,1.18,2,2.51,0,1.95-1.76,3.04-3.83,3.04-1.65,0-2.82-.58-3.57-1.44Z"/>
          <path class="cls-2" d="M61.11,537.54c0-.86.62-1.54,1.47-1.54s1.49.67,1.49,1.54-.64,1.54-1.49,1.54-1.47-.67-1.47-1.54Z"/>
          <path class="cls-2" d="M65.38,537.64l1.14-1.57c.62.59,1.38,1.01,2.18,1.01.98,0,1.6-.42,1.6-1.2,0-.9-.48-1.42-2.66-1.42v-1.76c1.78,0,2.34-.53,2.34-1.36,0-.72-.43-1.12-1.2-1.12-.7,0-1.23.32-1.86.86l-1.25-1.5c.94-.8,1.98-1.3,3.22-1.3,2.16,0,3.57,1.02,3.57,2.87,0,1.06-.58,1.84-1.68,2.32v.06c1.17.34,2,1.18,2,2.51,0,1.95-1.76,3.04-3.83,3.04-1.65,0-2.82-.58-3.57-1.44Z"/>
          <path class="cls-2" d="M73.43,528.47h2.62l1.14,4.75c.29,1.14.51,2.19.82,3.33h.06c.3-1.14.53-2.19.82-3.33l1.25-4.75h2.53l-3.19,10.42h-2.99l-3.06-10.42Z"/>
        </g>
        <g>
          <path class="cls-2" d="M53.2,568.15l1.12-1.55c.61.56,1.31.99,2.15.99,1.01,0,1.65-.56,1.65-1.63s-.64-1.62-1.54-1.62c-.58,0-.86.11-1.47.5l-1.09-.71.27-5.15h5.84v2.08h-3.71l-.14,1.76c.37-.14.69-.21,1.07-.21,1.76,0,3.25,1.02,3.25,3.28s-1.76,3.7-3.76,3.7c-1.67,0-2.82-.62-3.63-1.44Z"/>
          <path class="cls-2" d="M61.23,558.98h2.62l1.14,4.75c.29,1.14.51,2.19.82,3.33h.06c.3-1.14.53-2.19.82-3.33l1.25-4.75h2.53l-3.19,10.42h-2.99l-3.06-10.42Z"/>
        </g>
        <g>
          <path class="cls-2" d="M54.8,594.78c0-3.47,2.34-5.47,5.12-5.47,1.52,0,2.61.61,3.33,1.36l-1.31,1.5c-.51-.46-1.06-.72-1.94-.72-1.54,0-2.66,1.22-2.66,3.23s.94,3.28,2.88,3.28c.37,0,.77-.1.99-.27v-1.68h-1.66v-2.03h3.87v4.87c-.72.7-2,1.26-3.47,1.26-2.88,0-5.15-1.81-5.15-5.33Z"/>
          <path class="cls-2" d="M65.52,589.49h2.58l2.56,4.99c.37.7.7,1.54,1.02,2.35h.06c-.13-1.12-.32-2.61-.32-3.84v-3.5h2.35v10.42h-2.56l-2.58-4.99c-.35-.7-.69-1.54-1.01-2.35h-.06c.13,1.15.32,2.59.32,3.84v3.51h-2.37v-10.42Z"/>
          <path class="cls-2" d="M76.2,589.49h2.99c3.19,0,5.28,1.55,5.28,5.17s-2.1,5.25-5.14,5.25h-3.14v-10.42ZM79.04,597.91c1.68,0,2.88-.78,2.88-3.25s-1.2-3.17-2.88-3.17h-.35v6.42h.35Z"/>
        </g>
        <g>
          <path class="cls-2" d="M56.04,625.29c0-3.47,2.34-5.47,5.12-5.47,1.52,0,2.61.61,3.33,1.36l-1.31,1.5c-.51-.46-1.06-.72-1.94-.72-1.54,0-2.66,1.22-2.66,3.23s.94,3.28,2.88,3.28c.37,0,.77-.1.99-.27v-1.68h-1.66v-2.03h3.87v4.87c-.72.7-2,1.26-3.47,1.26-2.88,0-5.15-1.81-5.15-5.33Z"/>
          <path class="cls-2" d="M66.76,620h2.58l2.56,4.99c.37.7.7,1.54,1.02,2.35h.06c-.13-1.12-.32-2.61-.32-3.84v-3.5h2.35v10.42h-2.56l-2.58-4.99c-.35-.7-.69-1.54-1.01-2.35h-.06c.13,1.15.32,2.59.32,3.84v3.51h-2.37v-10.42Z"/>
          <path class="cls-2" d="M77.43,620h2.99c3.19,0,5.28,1.55,5.28,5.17s-2.1,5.25-5.14,5.25h-3.14v-10.42ZM80.28,628.42c1.68,0,2.88-.78,2.88-3.25s-1.2-3.17-2.88-3.17h-.35v6.42h.35Z"/>
        </g>
        <g>
          <path class="cls-2" d="M56.42,650.52h2.62l1.14,4.75c.29,1.14.51,2.19.82,3.33h.06c.3-1.14.53-2.19.82-3.33l1.25-4.75h2.53l-3.19,10.42h-2.99l-3.06-10.42Z"/>
          <path class="cls-2" d="M66.72,650.52h2.5v10.42h-2.5v-10.42Z"/>
          <path class="cls-2" d="M71.62,650.52h2.58l2.56,4.99c.37.7.7,1.54,1.02,2.35h.06c-.13-1.12-.32-2.61-.32-3.84v-3.5h2.35v10.42h-2.56l-2.58-4.99c-.35-.7-.69-1.54-1.01-2.35h-.06c.13,1.15.32,2.59.32,3.84v3.51h-2.37v-10.42Z"/>
        </g>
        <g>
          <path class="cls-2" d="M60.9,684.09h2.98l3.25,10.42h-2.62l-.61-2.4h-3.09l-.61,2.4h-2.54l3.25-10.42ZM61.29,690.19h2.13l-.22-.9c-.27-1.02-.54-2.26-.82-3.35h-.06c-.26,1.09-.53,2.32-.8,3.35l-.22.9Z"/>
          <path class="cls-2" d="M67.57,689.26c0-3.59,1.49-5.36,3.68-5.36s3.68,1.79,3.68,5.36-1.49,5.44-3.68,5.44-3.68-1.87-3.68-5.44ZM72.6,689.26c0-2.85-.61-3.46-1.34-3.46s-1.34.61-1.34,3.46.59,3.54,1.34,3.54,1.34-.69,1.34-3.54Z"/>
        </g>
        <g>
          <path class="cls-2" d="M62.13,714.6h2.98l3.25,10.42h-2.62l-.61-2.4h-3.09l-.61,2.4h-2.54l3.25-10.42ZM62.52,720.7h2.13l-.22-.9c-.27-1.02-.54-2.26-.82-3.35h-.06c-.26,1.09-.53,2.32-.8,3.35l-.22.9Z"/>
          <path class="cls-2" d="M69.32,723.02h2.21v-5.94h-1.9v-1.54c1.1-.21,1.84-.5,2.56-.94h1.82v8.42h1.89v2h-6.58v-2Z"/>
        </g>
        <g>
          <path class="cls-2" d="M63.37,745.12h2.98l3.25,10.42h-2.62l-.61-2.4h-3.09l-.61,2.4h-2.54l3.25-10.42ZM63.75,751.21h2.13l-.22-.9c-.27-1.02-.54-2.26-.82-3.35h-.06c-.26,1.09-.53,2.32-.8,3.35l-.22.9Z"/>
          <path class="cls-2" d="M70.05,754c2.71-2.27,4.35-4.18,4.35-5.65,0-.98-.53-1.49-1.38-1.49-.7,0-1.26.5-1.76,1.01l-1.28-1.28c1.02-1.07,1.94-1.67,3.38-1.67,2.02,0,3.41,1.3,3.41,3.28,0,1.86-1.66,3.76-3.33,5.36.51-.05,1.23-.11,1.7-.11h2.13v2.08h-7.22v-1.54Z"/>
        </g>
        <g>
          <path class="cls-2" d="M64.6,775.63h2.98l3.25,10.42h-2.62l-.61-2.4h-3.09l-.61,2.4h-2.54l3.25-10.42ZM64.98,781.73h2.13l-.22-.9c-.27-1.02-.54-2.26-.82-3.35h-.06c-.26,1.09-.53,2.32-.8,3.35l-.22.9Z"/>
          <path class="cls-2" d="M71.03,784.8l1.14-1.57c.62.59,1.38,1.01,2.18,1.01.98,0,1.6-.42,1.6-1.2,0-.9-.48-1.42-2.66-1.42v-1.76c1.78,0,2.34-.53,2.34-1.36,0-.72-.43-1.12-1.2-1.12-.7,0-1.23.32-1.86.86l-1.25-1.5c.94-.8,1.98-1.3,3.22-1.3,2.16,0,3.57,1.02,3.57,2.87,0,1.06-.58,1.84-1.68,2.32v.06c1.17.34,2,1.18,2,2.51,0,1.95-1.76,3.04-3.83,3.04-1.65,0-2.82-.58-3.57-1.44Z"/>
        </g>
        <g>
          <path class="cls-2" d="M65.83,806.14h2.98l3.25,10.42h-2.62l-.61-2.4h-3.09l-.61,2.4h-2.54l3.25-10.42ZM66.22,812.24h2.13l-.22-.9c-.27-1.02-.54-2.26-.82-3.35h-.06c-.26,1.09-.53,2.32-.8,3.35l-.22.9Z"/>
          <path class="cls-2" d="M76.62,813.97h-4.37v-1.73l3.62-6.1h3.06v5.94h1.15v1.89h-1.15v2.59h-2.3v-2.59ZM76.62,812.08v-1.54c0-.67.05-1.65.08-2.32h-.06c-.26.59-.54,1.18-.83,1.78l-1.2,2.08h2.02Z"/>
          <path class="cls-2" d="M83.75,805.2h1.6l-3.09,13.92h-1.62l3.11-13.92Z"/>
          <path class="cls-2" d="M86.37,815.23l1.31-1.62c.74.64,1.74.99,2.62.99.94,0,1.38-.35,1.38-.91,0-.61-.56-.8-1.47-1.17l-1.33-.58c-1.1-.43-2.11-1.34-2.11-2.85,0-1.75,1.57-3.15,3.78-3.15,1.25,0,2.48.46,3.38,1.3l-1.3,1.62c-.7-.5-1.42-.77-2.08-.77-.77,0-1.26.3-1.26.85,0,.61.66.82,1.58,1.18l1.3.53c1.3.51,2.06,1.38,2.06,2.83,0,1.75-1.46,3.27-3.97,3.27-1.41,0-2.8-.48-3.89-1.52Z"/>
          <path class="cls-2" d="M95.96,806.14h2.99c3.19,0,5.28,1.55,5.28,5.17s-2.1,5.25-5.14,5.25h-3.14v-10.42ZM98.81,814.56c1.68,0,2.88-.78,2.88-3.25s-1.2-3.17-2.88-3.17h-.35v6.42h.35Z"/>
          <path class="cls-2" d="M107.91,806.14h2.98l3.25,10.42h-2.62l-.61-2.4h-3.09l-.61,2.4h-2.54l3.25-10.42ZM108.29,812.24h2.13l-.22-.9c-.27-1.02-.54-2.26-.82-3.35h-.06c-.26,1.09-.53,2.32-.8,3.35l-.22.9Z"/>
        </g>
        <g>
          <path class="cls-2" d="M67.06,833.59h2.98l3.25,10.42h-2.62l-.61-2.4h-3.09l-.61,2.4h-2.54l3.25-10.42ZM67.45,839.69h2.13l-.22-.9c-.27-1.02-.54-2.26-.82-3.35h-.06c-.26,1.09-.53,2.32-.8,3.35l-.22.9Z"/>
          <path class="cls-2" d="M73.51,842.76l1.12-1.55c.61.56,1.31.99,2.15.99,1.01,0,1.65-.56,1.65-1.63s-.64-1.62-1.54-1.62c-.58,0-.86.11-1.47.5l-1.09-.71.27-5.15h5.84v2.08h-3.71l-.14,1.76c.37-.14.69-.21,1.07-.21,1.76,0,3.25,1.02,3.25,3.28s-1.76,3.7-3.76,3.7c-1.67,0-2.82-.62-3.63-1.44Z"/>
          <path class="cls-2" d="M84.98,832.64h1.6l-3.09,13.92h-1.62l3.11-13.92Z"/>
          <path class="cls-2" d="M87.61,842.68l1.31-1.62c.74.64,1.74.99,2.62.99.94,0,1.38-.35,1.38-.91,0-.61-.56-.8-1.47-1.17l-1.33-.58c-1.1-.43-2.11-1.34-2.11-2.85,0-1.75,1.57-3.15,3.78-3.15,1.25,0,2.48.46,3.38,1.3l-1.3,1.62c-.7-.5-1.42-.77-2.08-.77-.77,0-1.26.3-1.26.85,0,.61.66.82,1.58,1.18l1.3.53c1.3.51,2.06,1.38,2.06,2.83,0,1.75-1.46,3.27-3.97,3.27-1.41,0-2.8-.48-3.89-1.52Z"/>
          <path class="cls-2" d="M96.71,838.87c0-3.47,2.34-5.47,4.96-5.47,1.36,0,2.45.61,3.17,1.36l-1.31,1.5c-.51-.48-1.06-.72-1.79-.72-1.38,0-2.48,1.22-2.48,3.23s.98,3.28,2.43,3.28c.85,0,1.5-.34,2-.86l1.3,1.47c-.91,1.04-2.06,1.54-3.38,1.54-2.66,0-4.9-1.81-4.9-5.33Z"/>
          <path class="cls-2" d="M106.52,833.59h2.5v8.34h4.05v2.08h-6.55v-10.42Z"/>
        </g>
        <g>
          <path class="cls-2" d="M119.51,526.71v3.67c0,2.29-.82,4.16-3.38,4.16s-3.59-1.91-3.59-4.1v-1.23h-3.46v-2.5h10.42ZM114.52,530.3c0,1.23.58,1.81,1.62,1.81s1.41-.66,1.41-1.87v-1.02h-3.03v1.09Z"/>
          <path class="cls-2" d="M114.34,535.83c3.43,0,5.36,1.94,5.36,4.77s-1.95,4.77-5.36,4.77-5.44-1.94-5.44-4.77,2.03-4.77,5.44-4.77ZM114.34,542.83c2.03,0,3.22-.85,3.22-2.23s-1.18-2.22-3.22-2.22-3.3.86-3.3,2.22,1.28,2.23,3.3,2.23Z"/>
          <path class="cls-2" d="M119.51,546.31v2.53l-4.77.66c-1.1.14-2.19.27-3.33.38v.06c1.14.19,2.24.4,3.33.61l4.77,1.09v2.15l-4.77,1.06c-1.06.21-2.18.42-3.33.61v.06c1.15.11,2.26.26,3.33.38l4.77.7v2.37l-10.42-1.84v-3.15l4.56-.94c.82-.18,1.63-.29,2.46-.38v-.06c-.83-.11-1.65-.22-2.46-.4l-4.56-.9v-3.11l10.42-1.87Z"/>
          <path class="cls-2" d="M119.51,560.36v6.59h-2.08v-4.1h-1.95v3.51h-2.08v-3.51h-2.22v4.26h-2.08v-6.75h10.42Z"/>
          <path class="cls-2" d="M119.51,569.16v3.83c0,2.21-.77,4.07-3.28,4.07-1.52,0-2.5-.72-3.01-1.79l-4.13,2.32v-2.79l3.67-1.92v-1.22h-3.67v-2.5h10.42ZM114.73,572.79c0,1.18.51,1.83,1.5,1.83s1.31-.64,1.31-1.83v-1.14h-2.82v1.14Z"/>
        </g>
        <g>
          <path class="cls-2" d="M119.51,729.08v2.98l-10.42,3.25v-2.62l2.4-.61v-3.09l-2.4-.61v-2.54l10.42,3.25ZM113.41,729.46v2.13l.9-.22c1.02-.27,2.26-.54,3.35-.82v-.06c-1.09-.26-2.32-.53-3.35-.8l-.9-.22Z"/>
          <path class="cls-2" d="M119.51,736.37v2.58l-4.99,2.56c-.7.37-1.54.7-2.35,1.02v.06c1.12-.13,2.61-.32,3.84-.32h3.5v2.35h-10.42v-2.56l4.99-2.58c.7-.35,1.54-.69,2.35-1.01v-.06c-1.15.13-2.59.32-3.84.32h-3.51v-2.37h10.42Z"/>
          <path class="cls-2" d="M119.51,748.96v2.98l-10.42,3.25v-2.62l2.4-.61v-3.09l-2.4-.61v-2.54l10.42,3.25ZM113.41,749.35v2.13l.9-.22c1.02-.27,2.26-.54,3.35-.82v-.06c-1.09-.26-2.32-.53-3.35-.8l-.9-.22Z"/>
          <path class="cls-2" d="M119.51,756.26v2.5h-8.34v4.05h-2.08v-6.55h10.42Z"/>
          <path class="cls-2" d="M114.34,763.54c3.43,0,5.36,1.94,5.36,4.77s-1.95,4.77-5.36,4.77-5.44-1.94-5.44-4.77,2.03-4.77,5.44-4.77ZM114.34,770.53c2.03,0,3.22-.85,3.22-2.23s-1.18-2.22-3.22-2.22-3.3.86-3.3,2.22,1.28,2.23,3.3,2.23Z"/>
          <path class="cls-2" d="M114.23,774.53c3.47,0,5.47,2.34,5.47,5.12,0,1.52-.61,2.61-1.36,3.33l-1.5-1.31c.46-.51.72-1.06.72-1.94,0-1.54-1.22-2.66-3.23-2.66s-3.28.94-3.28,2.88c0,.37.1.77.27.99h1.68v-1.66h2.03v3.87h-4.87c-.7-.72-1.26-2-1.26-3.47,0-2.88,1.81-5.15,5.33-5.15Z"/>
          <path class="cls-2" d="M119.51,788.45v2.5h-10.42v-2.5h10.42Z"/>
          <path class="cls-2" d="M119.51,793.35v2.58l-4.99,2.56c-.7.37-1.54.71-2.35,1.02v.06c1.12-.13,2.61-.32,3.84-.32h3.5v2.35h-10.42v-2.56l4.99-2.58c.7-.35,1.54-.69,2.35-1.01v-.06c-1.15.13-2.59.32-3.84.32h-3.51v-2.37h10.42Z"/>
        </g>
        <rect class="cls-29" x="123.8" y="684.45" width="4.53" height="159.87" rx="2.27" ry="2.27"/>
        <rect class="cls-29" x="123.8" y="457.84" width="4.53" height="187.68" rx="2.27" ry="2.27"/>
        <g>
          <g>
            <polygon class="cls-28" points="292.32 834.4 288.69 834.4 288.65 834.4 285.02 834.4 276.56 842.86 276.56 875.92 285.02 884.38 288.65 884.38 288.69 884.38 292.32 884.38 300.78 875.92 300.78 842.86 292.32 834.4"/>
            <g>
              <rect class="cls-19" x="285.56" y="843.98" width="6.22" height="6.22"/>
              <rect class="cls-19" x="285.56" y="868.58" width="6.22" height="6.22"/>
            </g>
          </g>
          <g>
            <polygon class="cls-28" points="316.54 834.4 312.91 834.4 312.87 834.4 309.24 834.4 300.78 842.86 300.78 875.92 309.24 884.38 312.87 884.38 312.91 884.38 316.54 884.38 325 875.92 325 842.86 316.54 834.4"/>
            <g>
              <rect class="cls-19" x="309.78" y="843.98" width="6.22" height="6.22"/>
              <rect class="cls-19" x="309.78" y="868.58" width="6.22" height="6.22"/>
            </g>
          </g>
          <g>
            <polygon class="cls-28" points="340.75 834.4 337.13 834.4 337.08 834.4 333.46 834.4 325 842.86 325 875.92 333.46 884.38 337.08 884.38 337.13 884.38 340.75 884.38 349.21 875.92 349.21 842.86 340.75 834.4"/>
            <g>
              <rect class="cls-19" x="334" y="843.98" width="6.22" height="6.22"/>
              <rect class="cls-19" x="334" y="868.58" width="6.22" height="6.22"/>
            </g>
          </g>
        </g>
        <path class="cls-29" d="M270.54,822.92c-1.25,0-2.27,1.01-2.27,2.27v58.46c0,1.25,1.01,2.27,2.27,2.27h0c1.25,0,2.27-1.01,2.27-2.27v-53.93c0-1.25,1.01-2.27,2.27-2.27h75.63c1.25,0,2.27,1.01,2.27,2.27v53.93c0,1.25,1.01,2.27,2.27,2.27h0c1.25,0,2.27-1.01,2.27-2.27v-58.46c0-1.25-1.01-2.27-2.27-2.27h-84.69Z"/>
        <rect class="cls-29" x="465.13" y="448.26" width="4.53" height="394.72" rx="2.27" ry="2.27"/>
        <g>
          <path class="cls-2" d="M486.55,589.87v2.99c0,3.19-1.55,5.28-5.17,5.28s-5.25-2.1-5.25-5.14v-3.14h10.42ZM478.13,592.72c0,1.68.78,2.88,3.25,2.88s3.17-1.2,3.17-2.88v-.35h-6.42v.35Z"/>
          <path class="cls-2" d="M486.55,600.07v2.5h-10.42v-2.5h10.42Z"/>
          <path class="cls-2" d="M481.27,604.48c3.47,0,5.47,2.34,5.47,5.12,0,1.52-.61,2.61-1.36,3.33l-1.5-1.31c.46-.51.72-1.06.72-1.94,0-1.54-1.22-2.66-3.23-2.66s-3.28.94-3.28,2.88c0,.37.1.77.27.99h1.68v-1.67h2.03v3.87h-4.87c-.7-.72-1.26-2-1.26-3.47,0-2.88,1.81-5.15,5.33-5.15Z"/>
          <path class="cls-2" d="M486.55,615.2v2.5h-10.42v-2.5h10.42Z"/>
          <path class="cls-2" d="M484.47,622.13v-2.83h2.08v8.15h-2.08v-2.83h-8.34v-2.48h8.34Z"/>
          <path class="cls-2" d="M486.55,630.32v2.98l-10.42,3.25v-2.62l2.4-.61v-3.09l-2.4-.61v-2.54l10.42,3.25ZM480.45,630.71v2.13l.9-.22c1.02-.27,2.26-.54,3.35-.82v-.06c-1.09-.26-2.32-.53-3.35-.8l-.9-.22Z"/>
          <path class="cls-2" d="M486.55,637.62v2.5h-8.34v4.05h-2.08v-6.55h10.42Z"/>
          <path class="cls-2" d="M480.58,649.1c2.82,0,5.12.77,7.31,2.11l-.64,1.55c-2.06-1.17-4.42-1.68-6.67-1.68s-4.61.51-6.67,1.68l-.64-1.55c2.19-1.34,4.5-2.11,7.32-2.11Z"/>
          <path class="cls-2" d="M486.55,654.75v3.67c0,2.29-.82,4.16-3.38,4.16s-3.59-1.91-3.59-4.1v-1.23h-3.46v-2.5h10.42ZM481.56,658.34c0,1.23.58,1.81,1.62,1.81s1.41-.66,1.41-1.87v-1.02h-3.03v1.09Z"/>
          <path class="cls-2" d="M486.55,663.36v2.53l-4.77.66c-1.1.14-2.19.27-3.33.38v.06c1.14.19,2.24.4,3.33.61l4.77,1.09v2.15l-4.77,1.06c-1.06.21-2.18.42-3.33.61v.06c1.15.11,2.26.26,3.33.38l4.77.7v2.37l-10.42-1.84v-3.15l4.56-.94c.82-.18,1.63-.29,2.46-.38v-.06c-.83-.11-1.65-.22-2.46-.4l-4.56-.9v-3.11l10.42-1.87Z"/>
          <path class="cls-2" d="M486.55,677.41v2.72l-4.53,1.65c-.61.19-1.23.37-1.89.56v.06c.66.19,1.28.35,1.89.56l4.53,1.58v2.72h-10.42v-2.26h3.62c1.02,0,2.8.21,3.83.34v-.06l-2.72-.86-3.84-1.41v-1.41l3.84-1.39,2.72-.83v-.06c-1.02.13-2.8.34-3.83.34h-3.62v-2.24h10.42Z"/>
          <path class="cls-2" d="M481.14,691.33c0-.42-.35-.82-.91-1.14l.98-1.28c1.23.82,1.68,1.65,1.68,2.45,0,1.33-1.2,1.87-1.2,2.75,0,.43.35.8.91,1.14l-.98,1.28c-1.23-.82-1.68-1.65-1.68-2.45,0-1.33,1.2-1.87,1.2-2.75Z"/>
          <path class="cls-2" d="M473.91,697.76c2.06,1.17,4.42,1.68,6.67,1.68s4.61-.51,6.67-1.68l.64,1.57c-2.19,1.33-4.5,2.11-7.31,2.11s-5.12-.78-7.32-2.11l.64-1.57Z"/>
        </g>
        <g>
          <rect class="cls-11" x="559.04" y="618.28" width="33.41" height="240.86"/>
          <rect x="565.92" y="620.96" width="19.64" height="19.64"/>
          <rect x="565.92" y="651.47" width="19.64" height="19.64"/>
          <rect x="565.92" y="681.98" width="19.64" height="19.64"/>
          <rect x="565.92" y="712.49" width="19.64" height="19.64"/>
          <rect x="565.92" y="743" width="19.64" height="19.64"/>
          <rect x="565.92" y="773.52" width="19.64" height="19.64"/>
          <rect x="565.92" y="804.03" width="19.64" height="19.64"/>
          <rect x="565.92" y="834.54" width="19.64" height="19.64"/>
        </g>
        <g>
          <rect class="cls-11" x="559.04" y="315.03" width="33.41" height="301.1"/>
          <rect x="565.92" y="379.7" width="19.64" height="19.64"/>
          <rect x="565.92" y="410.21" width="19.64" height="19.64"/>
          <rect x="565.92" y="440.72" width="19.64" height="19.64"/>
          <rect x="565.92" y="471.23" width="19.64" height="19.64"/>
          <rect x="565.92" y="501.74" width="19.64" height="19.64"/>
          <rect x="565.92" y="532.25" width="19.64" height="19.64"/>
          <rect x="565.92" y="562.77" width="19.64" height="19.64"/>
          <rect x="565.92" y="593.28" width="19.64" height="19.64"/>
          <rect x="565.92" y="349.18" width="19.64" height="19.64"/>
          <rect x="565.92" y="318.93" width="19.64" height="19.64"/>
        </g>
        <g>
          <g>
            <path class="cls-2" d="M508.81,323.93h2.98l3.25,10.42h-2.62l-.61-2.4h-3.09l-.61,2.4h-2.54l3.25-10.42ZM509.19,330.03h2.13l-.22-.9c-.27-1.02-.54-2.26-.82-3.35h-.06c-.26,1.09-.53,2.32-.8,3.35l-.22.9Z"/>
            <path class="cls-2" d="M515.25,333.1l1.12-1.55c.61.56,1.31.99,2.14.99,1.01,0,1.65-.56,1.65-1.63s-.64-1.62-1.54-1.62c-.58,0-.86.11-1.47.5l-1.09-.71.27-5.15h5.84v2.08h-3.71l-.14,1.76c.37-.14.69-.21,1.07-.21,1.76,0,3.25,1.02,3.25,3.28s-1.76,3.7-3.76,3.7c-1.67,0-2.82-.62-3.63-1.44Z"/>
            <path class="cls-2" d="M526.73,322.98h1.6l-3.09,13.92h-1.62l3.11-13.92Z"/>
            <path class="cls-2" d="M529.35,333.02l1.31-1.62c.74.64,1.75.99,2.62.99.94,0,1.38-.35,1.38-.91,0-.61-.56-.8-1.47-1.17l-1.33-.58c-1.1-.43-2.11-1.34-2.11-2.85,0-1.75,1.57-3.15,3.78-3.15,1.25,0,2.48.46,3.38,1.3l-1.3,1.62c-.7-.5-1.42-.77-2.08-.77-.77,0-1.26.3-1.26.85,0,.61.66.82,1.58,1.18l1.3.53c1.3.51,2.07,1.38,2.07,2.83,0,1.75-1.46,3.27-3.97,3.27-1.41,0-2.8-.48-3.89-1.52Z"/>
            <path class="cls-2" d="M538.45,329.21c0-3.47,2.34-5.47,4.96-5.47,1.36,0,2.45.61,3.17,1.36l-1.31,1.5c-.51-.48-1.06-.72-1.79-.72-1.38,0-2.48,1.22-2.48,3.23s.98,3.28,2.43,3.28c.85,0,1.5-.34,2-.86l1.3,1.47c-.91,1.04-2.06,1.54-3.38,1.54-2.66,0-4.9-1.81-4.9-5.33Z"/>
            <path class="cls-2" d="M548.26,323.93h2.5v8.34h4.05v2.08h-6.55v-10.42Z"/>
          </g>
          <g>
            <path class="cls-2" d="M506.66,354.18h2.98l3.25,10.42h-2.62l-.61-2.4h-3.09l-.61,2.4h-2.54l3.25-10.42ZM507.05,360.27h2.13l-.22-.9c-.27-1.02-.54-2.26-.82-3.35h-.06c-.26,1.09-.53,2.32-.8,3.35l-.22.9Z"/>
            <path class="cls-2" d="M517.45,362h-4.37v-1.73l3.62-6.1h3.06v5.94h1.15v1.89h-1.15v2.59h-2.3v-2.59ZM517.45,360.11v-1.54c0-.67.05-1.65.08-2.32h-.06c-.26.59-.54,1.18-.83,1.78l-1.2,2.08h2.02Z"/>
            <path class="cls-2" d="M524.58,353.23h1.6l-3.09,13.92h-1.62l3.11-13.92Z"/>
            <path class="cls-2" d="M527.21,363.27l1.31-1.62c.74.64,1.75.99,2.62.99.94,0,1.38-.35,1.38-.91,0-.61-.56-.8-1.47-1.17l-1.33-.58c-1.1-.43-2.11-1.34-2.11-2.85,0-1.75,1.57-3.15,3.78-3.15,1.25,0,2.48.46,3.38,1.3l-1.3,1.62c-.7-.5-1.42-.77-2.08-.77-.77,0-1.26.3-1.26.85,0,.61.66.82,1.58,1.18l1.3.53c1.3.51,2.07,1.38,2.07,2.83,0,1.75-1.46,3.27-3.97,3.27-1.41,0-2.8-.48-3.89-1.52Z"/>
            <path class="cls-2" d="M536.79,354.18h2.99c3.19,0,5.28,1.55,5.28,5.17s-2.1,5.25-5.14,5.25h-3.14v-10.42ZM539.64,362.59c1.68,0,2.88-.78,2.88-3.25s-1.2-3.17-2.88-3.17h-.35v6.42h.35Z"/>
            <path class="cls-2" d="M548.74,354.18h2.98l3.25,10.42h-2.62l-.61-2.4h-3.09l-.61,2.4h-2.54l3.25-10.42ZM549.13,360.27h2.13l-.22-.9c-.27-1.02-.54-2.26-.82-3.35h-.06c-.26,1.09-.53,2.32-.8,3.35l-.22.9Z"/>
          </g>
          <g>
            <path class="cls-2" d="M521.03,384.69h2.98l3.25,10.42h-2.62l-.61-2.4h-3.09l-.61,2.4h-2.54l3.25-10.42ZM521.41,390.79h2.13l-.22-.9c-.27-1.02-.54-2.26-.82-3.35h-.06c-.26,1.09-.53,2.32-.8,3.35l-.22.9Z"/>
            <path class="cls-2" d="M528.33,384.69h3.83c2.21,0,4.07.77,4.07,3.28,0,1.52-.72,2.5-1.79,3.01l2.32,4.13h-2.79l-1.92-3.67h-1.22v3.67h-2.5v-10.42ZM531.96,389.47c1.18,0,1.82-.51,1.82-1.5s-.64-1.31-1.82-1.31h-1.14v2.82h1.14Z"/>
            <path class="cls-2" d="M538.21,384.69h6.59v2.08h-4.1v1.95h3.51v2.08h-3.51v2.22h4.26v2.08h-6.75v-10.42Z"/>
            <path class="cls-2" d="M547.01,384.69h6.66v2.08h-4.16v2.27h3.55v2.08h-3.55v3.99h-2.5v-10.42Z"/>
          </g>
          <g>
            <path class="cls-2" d="M523.3,420.48c0-3.47,2.34-5.47,5.12-5.47,1.52,0,2.61.61,3.33,1.36l-1.31,1.5c-.51-.46-1.06-.72-1.94-.72-1.54,0-2.66,1.22-2.66,3.23s.94,3.28,2.88,3.28c.37,0,.77-.1.99-.27v-1.68h-1.66v-2.03h3.87v4.87c-.72.7-2,1.26-3.47,1.26-2.88,0-5.15-1.81-5.15-5.33Z"/>
            <path class="cls-2" d="M534.02,415.2h2.58l2.56,4.99c.37.7.7,1.54,1.02,2.35h.06c-.13-1.12-.32-2.61-.32-3.84v-3.5h2.35v10.42h-2.56l-2.58-4.99c-.35-.7-.69-1.54-1.01-2.35h-.06c.13,1.15.32,2.59.32,3.84v3.51h-2.37v-10.42Z"/>
            <path class="cls-2" d="M544.69,415.2h2.99c3.18,0,5.28,1.55,5.28,5.17s-2.1,5.25-5.14,5.25h-3.14v-10.42ZM547.54,423.62c1.68,0,2.88-.78,2.88-3.25s-1.2-3.17-2.88-3.17h-.35v6.42h.35Z"/>
          </g>
          <g>
            <path class="cls-2" d="M495.27,454.13h2.21v-5.94h-1.91v-1.54c1.1-.21,1.84-.5,2.56-.94h1.82v8.42h1.89v2h-6.58v-2Z"/>
            <path class="cls-2" d="M503.03,454.88l1.14-1.57c.62.59,1.38,1.01,2.18,1.01.98,0,1.6-.42,1.6-1.2,0-.9-.48-1.42-2.66-1.42v-1.76c1.78,0,2.34-.53,2.34-1.36,0-.72-.43-1.12-1.2-1.12-.7,0-1.23.32-1.86.86l-1.25-1.5c.95-.8,1.99-1.3,3.22-1.3,2.16,0,3.57,1.02,3.57,2.86,0,1.06-.58,1.84-1.68,2.32v.06c1.17.34,2,1.18,2,2.51,0,1.95-1.76,3.04-3.83,3.04-1.65,0-2.82-.58-3.57-1.44Z"/>
            <path class="cls-2" d="M514.52,444.77h1.6l-3.09,13.92h-1.62l3.11-13.92Z"/>
            <path class="cls-2" d="M517.14,454.8l1.31-1.62c.74.64,1.74.99,2.62.99.94,0,1.38-.35,1.38-.91,0-.61-.56-.8-1.47-1.17l-1.33-.58c-1.1-.43-2.11-1.34-2.11-2.85,0-1.74,1.57-3.15,3.78-3.15,1.25,0,2.48.46,3.38,1.3l-1.3,1.62c-.7-.5-1.42-.77-2.08-.77-.77,0-1.26.3-1.26.85,0,.61.66.82,1.58,1.18l1.3.53c1.3.51,2.06,1.38,2.06,2.83,0,1.75-1.46,3.27-3.97,3.27-1.41,0-2.8-.48-3.89-1.52Z"/>
            <path class="cls-2" d="M526.24,450.99c0-3.47,2.34-5.47,4.96-5.47,1.36,0,2.45.61,3.17,1.36l-1.31,1.5c-.51-.48-1.06-.72-1.79-.72-1.38,0-2.48,1.22-2.48,3.23s.98,3.28,2.43,3.28c.85,0,1.5-.34,2-.86l1.3,1.47c-.91,1.04-2.07,1.54-3.38,1.54-2.66,0-4.9-1.81-4.9-5.33Z"/>
            <path class="cls-2" d="M536.05,445.71h2.5v8.34h4.05v2.08h-6.55v-10.42Z"/>
            <path class="cls-2" d="M544.4,445.71h2.5v4.13h.05l2.96-4.13h2.72l-3.14,4.18,3.73,6.24h-2.72l-2.46-4.27-1.14,1.54v2.74h-2.5v-10.42Z"/>
          </g>
          <g>
            <path class="cls-2" d="M494.13,484.64h2.21v-5.94h-1.9v-1.54c1.1-.21,1.84-.5,2.56-.94h1.83v8.42h1.89v2h-6.58v-2Z"/>
            <path class="cls-2" d="M502.15,485.11c2.71-2.27,4.35-4.18,4.35-5.65,0-.98-.53-1.49-1.38-1.49-.7,0-1.26.5-1.76,1.01l-1.28-1.28c1.02-1.07,1.94-1.67,3.38-1.67,2.02,0,3.41,1.3,3.41,3.28,0,1.86-1.66,3.76-3.33,5.36.51-.05,1.23-.11,1.7-.11h2.13v2.08h-7.22v-1.54Z"/>
            <path class="cls-2" d="M513.38,475.28h1.6l-3.09,13.92h-1.62l3.11-13.92Z"/>
            <path class="cls-2" d="M516.66,476.22h2.72l1.65,4.53c.19.61.37,1.23.56,1.89h.06c.19-.66.35-1.28.56-1.89l1.58-4.53h2.72v10.42h-2.26v-3.62c0-1.02.21-2.8.34-3.83h-.06l-.86,2.72-1.41,3.84h-1.41l-1.39-3.84-.83-2.72h-.06c.13,1.02.34,2.8.34,3.83v3.62h-2.24v-10.42Z"/>
            <path class="cls-2" d="M528.92,476.22h2.5v10.42h-2.5v-10.42Z"/>
            <path class="cls-2" d="M533.16,485.32l1.31-1.62c.74.64,1.74.99,2.62.99.94,0,1.38-.35,1.38-.91,0-.61-.56-.8-1.47-1.17l-1.33-.58c-1.1-.43-2.11-1.34-2.11-2.85,0-1.75,1.57-3.15,3.78-3.15,1.25,0,2.48.46,3.38,1.3l-1.3,1.62c-.7-.5-1.42-.77-2.08-.77-.77,0-1.26.3-1.26.85,0,.61.66.82,1.58,1.18l1.3.53c1.3.51,2.06,1.38,2.06,2.83,0,1.75-1.46,3.27-3.97,3.27-1.41,0-2.8-.48-3.89-1.52Z"/>
            <path class="cls-2" d="M542.26,481.39c0-3.43,1.94-5.36,4.77-5.36s4.77,1.95,4.77,5.36-1.94,5.44-4.77,5.44-4.77-2.03-4.77-5.44ZM549.25,481.39c0-2.03-.85-3.22-2.22-3.22s-2.23,1.18-2.23,3.22.87,3.3,2.23,3.3,2.22-1.28,2.22-3.3Z"/>
          </g>
          <g>
            <path class="cls-2" d="M486.82,512.15c-.42,0-.82.35-1.14.91l-1.28-.98c.82-1.23,1.65-1.68,2.45-1.68,1.33,0,1.87,1.2,2.75,1.2.43,0,.8-.35,1.14-.91l1.28.98c-.82,1.23-1.65,1.68-2.45,1.68-1.33,0-1.87-1.2-2.75-1.2Z"/>
            <path class="cls-2" d="M493.56,515.15h2.21v-5.94h-1.9v-1.54c1.1-.21,1.84-.5,2.56-.94h1.83v8.42h1.89v2h-6.58v-2Z"/>
            <path class="cls-2" d="M502.07,515.15h2.21v-5.94h-1.9v-1.54c1.1-.21,1.84-.5,2.56-.94h1.83v8.42h1.89v2h-6.58v-2Z"/>
            <path class="cls-2" d="M512.8,505.79h1.6l-3.09,13.92h-1.62l3.11-13.92Z"/>
            <path class="cls-2" d="M516.08,506.74h2.72l1.65,4.53c.19.61.37,1.23.56,1.89h.06c.19-.66.35-1.28.56-1.89l1.58-4.53h2.72v10.42h-2.26v-3.62c0-1.02.21-2.8.34-3.83h-.06l-.86,2.72-1.41,3.84h-1.41l-1.39-3.84-.83-2.72h-.06c.13,1.02.34,2.8.34,3.83v3.62h-2.24v-10.42Z"/>
            <path class="cls-2" d="M527.86,511.91c0-3.43,1.94-5.36,4.77-5.36s4.77,1.95,4.77,5.36-1.94,5.44-4.77,5.44-4.77-2.03-4.77-5.44ZM534.85,511.91c0-2.03-.85-3.22-2.22-3.22s-2.23,1.18-2.23,3.22.87,3.3,2.23,3.3,2.22-1.28,2.22-3.3Z"/>
            <path class="cls-2" d="M538.67,515.83l1.31-1.62c.74.64,1.75.99,2.62.99.94,0,1.38-.35,1.38-.91,0-.61-.56-.8-1.47-1.17l-1.33-.58c-1.1-.43-2.11-1.34-2.11-2.85,0-1.75,1.57-3.15,3.78-3.15,1.25,0,2.48.46,3.38,1.3l-1.3,1.62c-.7-.5-1.42-.77-2.08-.77-.77,0-1.26.3-1.26.85,0,.61.66.82,1.58,1.18l1.3.53c1.3.51,2.07,1.38,2.07,2.83,0,1.75-1.46,3.27-3.97,3.27-1.41,0-2.8-.48-3.89-1.52Z"/>
            <path class="cls-2" d="M548.26,506.74h2.5v10.42h-2.5v-10.42Z"/>
          </g>
          <g>
            <path class="cls-2" d="M528.71,542.66c-.42,0-.82.35-1.14.91l-1.28-.98c.82-1.23,1.65-1.68,2.45-1.68,1.33,0,1.87,1.2,2.75,1.2.43,0,.8-.35,1.14-.91l1.28.98c-.82,1.23-1.65,1.68-2.45,1.68-1.33,0-1.87-1.2-2.75-1.2Z"/>
            <path class="cls-2" d="M535.44,545.67h2.21v-5.94h-1.9v-1.54c1.1-.21,1.84-.5,2.56-.94h1.83v8.42h1.89v2h-6.58v-2Z"/>
            <path class="cls-2" d="M543.44,542.42c0-3.59,1.49-5.36,3.68-5.36s3.68,1.79,3.68,5.36-1.49,5.44-3.68,5.44-3.68-1.87-3.68-5.44ZM548.47,542.42c0-2.85-.61-3.46-1.34-3.46s-1.34.61-1.34,3.46.59,3.54,1.34,3.54,1.34-.69,1.34-3.54Z"/>
          </g>
          <g>
            <path class="cls-2" d="M536.64,573.17c-.42,0-.82.35-1.14.91l-1.28-.98c.82-1.23,1.65-1.68,2.45-1.68,1.33,0,1.87,1.2,2.75,1.2.43,0,.8-.35,1.14-.91l1.28.98c-.82,1.23-1.65,1.68-2.45,1.68-1.33,0-1.87-1.2-2.75-1.2Z"/>
            <path class="cls-2" d="M542.96,577.12l1.31-1.47c.34.38.98.72,1.57.72,1.06,0,1.92-.77,2.02-3.04-.51.67-1.39,1.04-2,1.04-1.73,0-3.04-1.02-3.04-3.28s1.57-3.52,3.42-3.52c1.97,0,3.89,1.5,3.89,5.28s-1.98,5.52-4.11,5.52c-1.39,0-2.4-.58-3.06-1.25ZM546.34,572.62c.53,0,1.1-.27,1.47-.94-.19-1.76-.85-2.26-1.5-2.26s-1.22.48-1.22,1.67.54,1.54,1.25,1.54Z"/>
          </g>
          <path class="cls-2" d="M542.39,606.1c0-1.3.74-2.11,1.71-2.62v-.06c-.82-.61-1.36-1.41-1.36-2.51,0-1.75,1.38-2.82,3.3-2.82s3.12,1.09,3.12,2.79c0,.99-.61,1.83-1.33,2.3v.06c.99.53,1.76,1.39,1.76,2.82,0,1.62-1.46,2.83-3.63,2.83-2.05,0-3.57-1.14-3.57-2.79ZM547.28,605.97c0-.93-.8-1.31-2.06-1.86-.42.4-.7,1.04-.7,1.7,0,.86.69,1.36,1.49,1.36.72,0,1.28-.37,1.28-1.2ZM547.14,601.04c0-.75-.43-1.25-1.17-1.25-.58,0-1.06.35-1.06,1.1,0,.83.64,1.28,1.67,1.68.38-.48.56-1.01.56-1.54Z"/>
          <path class="cls-2" d="M546.34,628.03h-4.5v-2.08h7.14v1.52c-2.4,2.87-2.66,4.83-2.85,8.9h-2.48c.19-3.44.72-5.63,2.69-8.34Z"/>
          <g>
            <path class="cls-2" d="M534.92,661.87c-.42,0-.82.35-1.14.91l-1.28-.98c.82-1.23,1.65-1.68,2.45-1.68,1.33,0,1.87,1.2,2.75,1.2.43,0,.8-.35,1.14-.91l1.28.98c-.82,1.23-1.65,1.68-2.45,1.68-1.33,0-1.87-1.2-2.75-1.2Z"/>
            <path class="cls-2" d="M541.2,661.76c0-3.76,1.98-5.49,4.15-5.49,1.36,0,2.37.58,3.03,1.23l-1.3,1.49c-.35-.38-.98-.72-1.57-.72-1.09,0-1.94.77-2.03,3.03.53-.64,1.41-1.02,2-1.02,1.73,0,3.04,1.02,3.04,3.28s-1.55,3.52-3.42,3.52c-1.97,0-3.89-1.52-3.89-5.31ZM543.52,662.97c.21,1.73.86,2.24,1.52,2.24s1.22-.48,1.22-1.66-.56-1.54-1.26-1.54c-.53,0-1.09.27-1.47.96Z"/>
          </g>
          <g>
            <path class="cls-2" d="M534.34,692.38c-.42,0-.82.35-1.14.91l-1.28-.98c.82-1.23,1.65-1.68,2.45-1.68,1.33,0,1.87,1.2,2.75,1.2.43,0,.8-.35,1.14-.91l1.28.98c-.82,1.23-1.65,1.68-2.45,1.68-1.33,0-1.87-1.2-2.75-1.2Z"/>
            <path class="cls-2" d="M540.34,696.14l1.12-1.55c.61.56,1.31.99,2.14.99,1.01,0,1.65-.56,1.65-1.63s-.64-1.62-1.54-1.62c-.58,0-.86.11-1.47.5l-1.09-.71.27-5.15h5.84v2.08h-3.71l-.14,1.76c.37-.14.69-.21,1.07-.21,1.76,0,3.25,1.02,3.25,3.28s-1.76,3.7-3.76,3.7c-1.67,0-2.82-.62-3.63-1.44Z"/>
          </g>
          <path class="cls-2" d="M544.1,725.31h-4.37v-1.73l3.62-6.1h3.06v5.94h1.15v1.89h-1.15v2.59h-2.3v-2.59ZM544.1,723.42v-1.54c0-.67.05-1.65.08-2.32h-.06c-.26.59-.54,1.18-.83,1.78l-1.2,2.08h2.02Z"/>
          <g>
            <path class="cls-2" d="M533.19,753.41c-.42,0-.82.35-1.14.91l-1.28-.98c.82-1.23,1.65-1.68,2.45-1.68,1.33,0,1.87,1.2,2.75,1.2.43,0,.8-.35,1.14-.91l1.28.98c-.82,1.23-1.65,1.68-2.45,1.68-1.33,0-1.87-1.2-2.75-1.2Z"/>
            <path class="cls-2" d="M539.17,757.17l1.14-1.57c.62.59,1.38,1.01,2.18,1.01.98,0,1.6-.42,1.6-1.2,0-.9-.48-1.42-2.66-1.42v-1.76c1.78,0,2.34-.53,2.34-1.36,0-.72-.43-1.12-1.2-1.12-.7,0-1.23.32-1.86.86l-1.25-1.5c.94-.8,1.98-1.3,3.22-1.3,2.16,0,3.57,1.02,3.57,2.87,0,1.06-.58,1.84-1.68,2.32v.06c1.17.34,2,1.18,2,2.51,0,1.95-1.76,3.04-3.83,3.04-1.65,0-2.82-.58-3.57-1.44Z"/>
          </g>
          <path class="cls-2" d="M538.85,787.39c2.71-2.27,4.35-4.18,4.35-5.65,0-.98-.53-1.49-1.38-1.49-.7,0-1.26.5-1.76,1.01l-1.28-1.28c1.02-1.07,1.94-1.67,3.38-1.67,2.02,0,3.41,1.3,3.41,3.28,0,1.86-1.66,3.76-3.33,5.36.51-.05,1.23-.11,1.7-.11h2.13v2.08h-7.22v-1.54Z"/>
          <g>
            <path class="cls-2" d="M509.11,812.01h-2.83v-2.08h8.15v2.08h-2.83v8.34h-2.48v-8.34Z"/>
            <path class="cls-2" d="M517.54,814.99l-2.71-5.06h2.77l.85,1.89c.24.48.46,1.02.75,1.68h.06c.24-.66.46-1.2.66-1.68l.77-1.89h2.64l-2.69,5.17,2.87,5.25h-2.77l-.98-2.05c-.26-.53-.5-1.07-.75-1.71h-.06c-.24.64-.48,1.18-.7,1.71l-.91,2.05h-2.66l2.86-5.36Z"/>
            <path class="cls-2" d="M537.39,815.06l-5,5c-.39.39-1.02.39-1.42,0s-.39-1.02,0-1.42l3.29-3.29h-9.58c-.55,0-1-.45-1-1s.45-1,1-1h9.59l-3.3-3.29c-.39-.39-.39-1.02,0-1.42s1.03-.39,1.42,0l5,5c.39.39.39,1.02,0,1.42h0Z"/>
            <path class="cls-2" d="M538.77,818.35h2.21v-5.94h-1.9v-1.54c1.1-.21,1.84-.5,2.56-.94h1.83v8.42h1.89v2h-6.58v-2Z"/>
          </g>
          <g>
            <path class="cls-2" d="M505.38,840.44h3.83c2.21,0,4.07.77,4.07,3.28,0,1.52-.72,2.5-1.79,3.01l2.32,4.13h-2.79l-1.92-3.67h-1.22v3.67h-2.5v-10.42ZM509.01,845.22c1.18,0,1.83-.51,1.83-1.5s-.64-1.31-1.83-1.31h-1.14v2.82h1.14Z"/>
            <path class="cls-2" d="M516.96,845.5l-2.71-5.06h2.77l.85,1.89c.24.48.46,1.02.75,1.68h.06c.24-.66.46-1.2.66-1.68l.77-1.89h2.64l-2.69,5.17,2.87,5.25h-2.77l-.98-2.05c-.26-.53-.5-1.07-.75-1.71h-.06c-.24.64-.48,1.18-.7,1.71l-.91,2.05h-2.66l2.86-5.36Z"/>
            <path class="cls-2" d="M523.39,844.15l5-5c.39-.39,1.02-.39,1.42,0s.39,1.02,0,1.42l-3.29,3.29h9.58c.55,0,1,.45,1,1s-.45,1-1,1h-9.59l3.3,3.29c.39.39.39,1.02,0,1.42s-1.03.39-1.42,0l-5-5c-.39-.39-.39-1.02,0-1.42h0Z"/>
            <path class="cls-2" d="M537.68,845.61c0-3.59,1.49-5.36,3.68-5.36s3.68,1.79,3.68,5.36-1.49,5.44-3.68,5.44-3.68-1.87-3.68-5.44ZM542.71,845.61c0-2.85-.61-3.46-1.34-3.46s-1.34.61-1.34,3.46.59,3.54,1.34,3.54,1.34-.69,1.34-3.54Z"/>
          </g>
        </g>
        <g>
          <rect class="cls-6" x="396.27" y="425.66" width="10.68" height="17.22"/>
          <rect class="cls-14" x="396.27" y="428.18" width="10.68" height="11.85"/>
        </g>
      </g>
      <g id="layer1-4">
        <rect id="rect815" x="717.22" y="58.75" width="192.43" height="258.61"/>
        <rect id="rect821" class="cls-2" x="762.72" y="275.26" width="100.12" height="34.46"/>
        <path id="rect825" class="cls-25" d="M769.29,277.21h20.07c3.5,0,6.34,2.84,6.34,6.34h0v17.61c0,3.5-2.84,6.34-6.34,6.34h-20.07c-3.5,0-6.34-2.84-6.34-6.34h0v-17.61c0-3.5,2.84-6.34,6.34-6.34h0Z"/>
        <path id="rect872" class="cls-25" d="M836.17,277.21h20.07c3.5,0,6.34,2.84,6.34,6.34h0v17.61c0,3.5-2.84,6.34-6.34,6.34h-20.07c-3.5,0-6.34-2.84-6.34-6.34h0v-17.61c0-3.5,2.84-6.34,6.34-6.34h0Z"/>
        <rect id="rect874" class="cls-25" x="796.39" y="277.21" width="32.75" height="30.28" rx="5.52" ry="5.52"/>
        <rect id="rect947" class="cls-16" x="777.47" y="293.69" width="3.63" height="63.18"/>
        <rect id="rect949" class="cls-16" x="811.1" y="293.69" width="3.63" height="63.18"/>
        <rect id="rect951" class="cls-16" x="844.35" y="293.69" width="3.63" height="63.18"/>
        <circle id="path1456-8" class="cls-17" cx="744.13" cy="153.35" r="17.51"/>
        <circle id="ellipse1458-0" class="cls-17" cx="880.82" cy="153.35" r="17.51"/>
        <circle id="path1460-5" class="cls-3" cx="744.13" cy="153.35" r="15.8"/>
        <circle id="ellipse1464-5" class="cls-3" cx="880.82" cy="153.35" r="15.8"/>
        <rect id="rect87" x="744.27" y="239.02" width="136.99" height="34.46"/>
        <circle id="path91-6" class="cls-17" cx="762.5" cy="261.84" r="12.81"/>
        <circle id="circle93-9" class="cls-17" cx="862.45" cy="261.84" r="12.81"/>
        <rect id="rect95-9" class="cls-17" x="764.21" y="209.31" width="25.63" height="38.44" rx="8.54" ry="8.54"/>
        <rect id="rect97-3" class="cls-17" x="836.82" y="209.31" width="25.63" height="38.44" rx="8.54" ry="8.54"/>
        <circle id="circle99-2" class="cls-17" cx="787.7" cy="194.78" r="12.81"/>
        <circle id="circle101-3" class="cls-17" cx="838.96" cy="194.78" r="12.81"/>
        <circle id="ellipse103-1" class="cls-3" cx="759.11" cy="193.93" r="15.8"/>
        <circle id="ellipse105-8" class="cls-3" cx="867.58" cy="193.93" r="15.8"/>
        <rect id="rect111-4" class="cls-17" x="764.21" y="139.25" width="25.63" height="38.44" rx="8.54" ry="8.54"/>
        <rect id="rect113-0" class="cls-17" x="836.82" y="139.25" width="25.63" height="38.44" rx="8.54" ry="8.54"/>
        <circle id="circle115-5" class="cls-3" cx="777.02" cy="227.46" r="11.75"/>
        <circle id="circle117-4" class="cls-3" cx="849.64" cy="227.46" r="11.75"/>
        <circle id="circle119-7" class="cls-3" cx="762.5" cy="261.84" r="10.68"/>
        <circle id="circle121-9" class="cls-3" cx="862.45" cy="261.84" r="10.68"/>
        <circle id="circle123-7" class="cls-3" cx="777.02" cy="227.46" r="11.75"/>
        <circle id="circle129-0" class="cls-17" cx="760.79" cy="109.35" r="12.81"/>
        <circle id="circle131-2" class="cls-3" cx="760.79" cy="109.35" r="10.68"/>
        <circle id="circle133-5" class="cls-17" cx="865.87" cy="109.35" r="12.81"/>
        <circle id="circle135-0" class="cls-3" cx="865.87" cy="109.35" r="10.68"/>
        <path id="path31-1" class="cls-2" d="M771.91,80.03c1.19-.02,1.32-.04,1.54-.17.15-.1.28-.23.38-.38.13-.21.14-.37.16-2.81l.02-2.58h2.54s2.54.03,2.54.03v3.21c0,3.54-.03,3.88-.4,4.81-.4,1.16-1.43,1.98-2.65,2.12-.77.12-1.55.15-2.32.1-1.01,0-2.12-.04-2.46-.07l-.62-.06-.02-2.09-.02-2.09,1.3-.02h0ZM796.12,87.23c21.69,0,27.03.03,26.13.13h-.14s.14.07.14.07c.12.05.1.06-.1.08-.16.01-.09.03.21.06l.45.04-.45.02c-.25.01-.4.03-.33.05.1.03.12.12.12.6q0,.57.19.6c.13.02.1.03-.1.04-.16,0-.29.04-.29.08,0,.05-8.6.07-25.66.07h-25.66v-1.85h25.5ZM776.57,67.46h2.56v4.17h-5.13v-4.17h2.56ZM781.74,75.16c.16-1.09.49-2.16.98-3.14.11-.22.23-.44.36-.65.1-.13.2-.27.29-.41.29-.45.63-.87,1.02-1.25.05-.02.08-.07.09-.12.33-.4.71-.74,1.14-1.03.58-.41,1.23-.73,1.91-.95.98-.39,2.03-.55,3.08-.46.61-.02,1.22.07,1.8.24.38.11.84.27,1.03.35.13.06.27.11.41.14.22.09.43.2.63.32,1.5,1.02,2.72,2.41,3.55,4.03,1,2.03,1.14,4.37.37,6.5-.24.69-.55,1.35-.93,1.97-.4.68-.92,1.28-1.52,1.78-.98,1.06-2.25,1.79-3.65,2.12-1.06.23-2.15.29-3.23.17-1.25-.23-2.44-.74-3.49-1.47-.4-.28-.77-.6-1.1-.96-.11-.14-.22-.27-.35-.39-1.07-1.23-1.83-2.7-2.22-4.29-.15-.82-.2-1.66-.16-2.5h0ZM786.64,77.32c.25.97.77,1.84,1.5,2.52.83.75,1.99,1.01,3.05.68,1.35-.58,2.35-1.75,2.69-3.18.22-.95.2-1.93-.04-2.87-.28-1.06-.91-2-1.79-2.66-.28-.23-.61-.38-.97-.43-.8-.17-1.63-.09-2.38.24-.71.45-1.27,1.09-1.64,1.84-.6,1.19-.75,2.56-.43,3.85ZM801.04,67.49s1.2-.02,2.57-.01l2.49.02v2.29c.01,2.16.02,2.31.16,2.69.42,1,1.54,1.51,2.57,1.16.5-.15.92-.51,1.14-.98l.23-.44.02-2.38.02-2.38h5.13l-.03,2.68c.08,1.08.02,2.17-.18,3.23-.25.97-.71,1.87-1.34,2.64-.11.11-.2.24-.27.39-.36.42-.77.79-1.22,1.09-.46.35-.97.62-1.52.8-.11.02-.46.13-.79.23-.59.18-1.22.24-1.84.18-.65.06-1.31-.01-1.94-.19-.73-.16-1.42-.45-2.03-.87-.78-.51-1.44-1.17-1.96-1.94-.7-.95-1.12-2.08-1.24-3.25-.1-1.65-.1-3.31.02-4.96h0ZM808.19,80.11h4.19v4.31h-8.38v-4.31h4.19ZM815.36,64.18s.07-.12.07-.26c0-.26,0-.26.32-.31.18-.02,7.27-.04,15.77-.04h15.45s-.02.92-.02.92l-.02.92h-15.71c-8.64,0-15.76-.02-15.82-.04-.09-.03-.11-.16-.11-.62,0-.34.03-.57.07-.57h0ZM822.42,74.51h5.33v4.24h-10.67v-4.24h5.33ZM831.98,67.46h2.56v4.17h-5.13v-4.17h2.56ZM831.98,73.82h2.56v10.8h-5.13v-10.8h2.56ZM842.19,67.46h5.37v4.17h-10.73v-4.17h5.37ZM837.72,74.14s1.17-.04,2.52-.03h2.46s.02,2.48.02,2.48c.03,3.47-.11,3.28,2.5,3.32l1.64.02v4.35l-.61.08c-1.55.11-3.1.1-4.65-.03-1.08-.08-2.09-.56-2.84-1.35-.62-.76-.99-1.7-1.04-2.68-.09-.75-.1-6.1-.01-6.15h0ZM850.57,65.43c.12-.43.35-.82.67-1.14.99-1.01,2.57-1.13,3.71-.29.4.24.72.6.9,1.03.17.35.24.74.19,1.13.05.39-.02.79-.2,1.15-.46.88-1.34,1.47-2.33,1.56-.86.08-1.71-.25-2.29-.88-.65-.68-.9-1.66-.65-2.57h0ZM851.08,67.19c.36.65.98,1.11,1.71,1.28.77.18,1.59-.04,2.17-.58.23-.18.41-.41.52-.67.18-.32.26-.69.23-1.05.04-.37-.04-.74-.24-1.06-.14-.31-.37-.58-.66-.76-.24-.16-.49-.3-.76-.41-1.22-.37-2.52.22-3.04,1.38-.17.62-.14,1.28.09,1.88h0ZM852.98,64.52c.38-.01.75.01,1.13.07.45.28.59.87.31,1.32-.1.12-.23.2-.38.26l-.24.08.24.26c.17.2.32.41.45.64.08.15.17.29.28.42.15.09.04.17-.23.16h-.29s-.42-.66-.42-.66c-.44-.7-.55-.78-1.04-.78h-.31v1.44l-.21-.02-.21-.02-.02-1.59-.02-1.59h.95ZM853.09,65.89c.52,0,.64-.02.8-.14.38-.3.16-.77-.38-.85-.34-.03-.67-.02-1.01.03-.02.16-.02.32-.02.48v.48h.61Z"/>
        <circle id="circle84-5" class="cls-3" cx="838.96" cy="194.78" r="10.68"/>
        <circle id="circle86" class="cls-3" cx="787.7" cy="194.78" r="10.68"/>
        <polygon id="rect88-7" class="cls-16" points="789.44 95.72 793.07 95.72 778.95 158.9 775.31 158.9 789.44 95.72"/>
        <polygon id="rect90-2" class="cls-16" points="833.41 95.72 837.04 95.72 851.56 158.9 847.92 158.9 833.41 95.72"/>
        <polygon id="rect96" class="cls-16" points="791.54 42.63 795.18 42.63 793.04 96.02 789.41 96.02 791.54 42.63"/>
        <polygon id="rect98-4" class="cls-16" points="830.56 42.65 834.2 42.65 837.04 96.05 833.41 96.05 830.56 42.65"/>
        <path id="path100-7" class="cls-18" d="M812.9,0c-11.3.01-20.63,8.82-21.29,20.1h-.06v25.63h12.81v-4.81c5.42,2.39,11.6,2.39,17.02.01v4.8h12.81v-23.08c.03-.43.06-.86.06-1.29C834.26,9.56,824.7,0,812.9,0Z"/>
        <g id="text88" class="cls-15">
          <g class="cls-15">
            <g class="cls-15">
              <path class="cls-2" d="M735.95,237.25c.07,0,.13.02.19.05s.1.09.14.18c.04.09.06.21.09.36.02.15.03.34.03.58,0,.31-.01.56-.04.75s-.08.34-.15.44c-.07.1-.15.18-.24.24l-8.57,6.3h8.57c.06,0,.12.02.18.05.06.04.1.1.13.19.03.09.06.21.08.35.02.15.03.33.03.55s-.01.39-.03.54c-.02.15-.05.27-.08.36-.03.09-.08.15-.13.19-.06.04-.12.05-.18.05h-16.45c-.07,0-.13-.02-.19-.05-.05-.04-.09-.1-.12-.19-.03-.09-.06-.21-.08-.36-.02-.15-.03-.33-.03-.54s.01-.4.03-.55c.02-.15.05-.26.08-.35.03-.09.07-.15.12-.19.05-.04.12-.05.19-.05h7.62l-7.62-6.07c-.08-.05-.15-.11-.2-.19s-.09-.16-.13-.26-.05-.23-.07-.37c-.02-.15-.03-.33-.03-.56s.01-.41.03-.56c.02-.14.05-.25.09-.34.04-.08.08-.14.13-.17.05-.03.11-.05.17-.05.12,0,.23.03.34.09.11.06.27.17.48.32l6.79,5.68,8.13-6.12c.23-.15.39-.24.47-.27s.15-.05.21-.05Z"/>
            </g>
            <g class="cls-15">
              <path class="cls-2" d="M729.66,228.88h6.32c.07,0,.13.02.19.05.05.04.1.1.13.18.03.09.06.21.08.36.02.15.03.33.03.54s-.01.4-.03.55c-.02.15-.05.26-.08.36-.03.09-.07.16-.13.19-.05.04-.11.05-.19.05h-6.32l-9.67,4.85c-.2.1-.36.16-.48.18-.12.02-.2,0-.27-.07-.06-.07-.1-.19-.12-.36-.02-.17-.03-.4-.03-.7,0-.26,0-.48.03-.64.02-.16.04-.29.07-.39s.08-.17.13-.22c.06-.05.13-.09.22-.14l4.93-2.37c.47-.22.96-.44,1.47-.66.51-.22,1.03-.44,1.55-.67v-.03c-.5-.2-1-.41-1.5-.63-.5-.21-.99-.43-1.48-.65l-4.95-2.38c-.09-.03-.16-.06-.23-.11-.06-.05-.11-.11-.14-.2s-.05-.2-.07-.35c-.02-.15-.03-.34-.03-.57,0-.32.01-.57.03-.75.02-.18.06-.31.13-.38s.15-.09.26-.07c.12.02.27.08.46.18l9.67,4.85Z"/>
            </g>
            <g class="cls-15">
              <path class="cls-2" d="M729.63,217.56c.34,0,.58.04.71.12.13.08.2.19.2.34v5.54c0,.16-.07.28-.21.36-.14.08-.37.12-.71.12s-.57-.04-.7-.12c-.13-.08-.2-.2-.2-.36v-5.54c0-.07.01-.13.04-.19.03-.06.08-.11.15-.15.07-.04.17-.07.28-.09.12-.02.26-.03.42-.03Z"/>
              <path class="cls-2" d="M727.71,203.84c1.32,0,2.52.1,3.6.31,1.09.21,2.02.55,2.8,1.03.78.48,1.39,1.11,1.81,1.89.43.78.64,1.73.64,2.87,0,1.08-.19,1.98-.58,2.72-.38.74-.95,1.33-1.7,1.78-.75.45-1.66.77-2.75.96s-2.34.28-3.75.28c-1.31,0-2.5-.11-3.6-.32s-2.03-.56-2.81-1.03c-.78-.48-1.39-1.1-1.81-1.88-.43-.78-.64-1.73-.64-2.86s.19-2,.58-2.73.95-1.33,1.7-1.78c.75-.45,1.66-.77,2.75-.96s2.34-.28,3.75-.28ZM727.87,206.17c-.86,0-1.62.03-2.3.09-.68.06-1.28.15-1.8.27-.52.12-.97.27-1.34.46-.38.19-.68.42-.93.68-.24.26-.42.57-.53.91s-.17.72-.17,1.15c0,.75.18,1.36.53,1.83.35.47.84.84,1.46,1.11.62.27,1.34.45,2.17.55s1.72.15,2.67.15c1.28,0,2.37-.07,3.26-.2.9-.13,1.63-.34,2.19-.63.57-.29.98-.65,1.23-1.1s.38-.99.38-1.62c0-.49-.08-.93-.24-1.3-.16-.38-.39-.7-.68-.97-.3-.27-.65-.49-1.07-.67-.42-.18-.87-.32-1.38-.42-.5-.11-1.05-.18-1.64-.22-.59-.04-1.2-.06-1.83-.06Z"/>
              <path class="cls-2" d="M735.42,190.62c.17,0,.31.01.42.04.11.03.21.06.28.11.07.04.12.1.15.15.03.06.05.12.05.18v8.95c0,.06-.02.12-.05.17-.03.05-.08.1-.15.15-.07.05-.16.09-.28.11-.12.03-.26.04-.42.04-.16,0-.3-.01-.41-.04-.11-.03-.21-.06-.28-.1s-.13-.09-.17-.15c-.04-.06-.06-.12-.06-.19v-3.58h-13.03l1.97,3.31c.09.17.14.3.16.4s0,.18-.06.25c-.06.06-.15.1-.29.13-.13.02-.3.03-.5.03-.15,0-.28,0-.38-.02-.11-.01-.19-.03-.27-.06-.07-.03-.13-.06-.19-.11-.05-.05-.11-.11-.16-.19l-2.53-3.95s-.05-.08-.07-.13c-.02-.05-.04-.12-.05-.2-.02-.08-.03-.17-.03-.28,0-.11,0-.24,0-.4,0-.21,0-.39.03-.53.02-.14.04-.25.07-.33.03-.08.07-.13.12-.16.05-.03.1-.04.15-.04h15.06v-3.1c0-.07.02-.14.06-.2.04-.06.1-.11.17-.15.08-.04.17-.07.28-.09.12-.02.25-.03.41-.03Z"/>
              <path class="cls-2" d="M731.42,177.04c.79,0,1.49.14,2.13.41.63.27,1.17.67,1.62,1.18.45.51.8,1.14,1.04,1.89.24.75.36,1.6.36,2.54,0,.57-.05,1.11-.14,1.61-.09.5-.2.94-.33,1.33-.13.39-.26.71-.4.97-.14.26-.24.42-.3.48-.06.07-.12.12-.19.15-.06.04-.14.07-.22.09-.09.03-.2.05-.32.06-.13.01-.29.02-.47.02-.32,0-.54-.03-.66-.09-.12-.06-.19-.15-.19-.27,0-.08.07-.24.21-.48.14-.24.29-.55.46-.92s.32-.81.46-1.32c.14-.5.21-1.06.21-1.68s-.08-1.12-.23-1.58c-.15-.45-.36-.83-.64-1.14-.27-.31-.6-.54-.97-.69-.38-.15-.78-.23-1.23-.23-.49,0-.92.1-1.31.29-.39.2-.72.48-1.01.86-.28.38-.5.84-.65,1.4s-.22,1.18-.22,1.88v1.68c0,.07-.02.14-.05.21-.03.07-.08.13-.15.18-.07.05-.16.09-.28.12-.11.03-.26.05-.45.05-.17,0-.31-.01-.42-.04-.11-.03-.2-.06-.26-.11-.07-.05-.12-.1-.15-.17-.03-.06-.05-.13-.05-.21v-1.5c0-.58-.08-1.11-.22-1.57-.15-.46-.37-.86-.65-1.18s-.62-.57-1.01-.74c-.39-.17-.83-.26-1.32-.26-.35,0-.69.06-1.01.17-.32.12-.6.29-.84.52-.24.23-.43.52-.56.88s-.21.77-.21,1.24c0,.51.08.98.23,1.41s.32.81.5,1.15c.18.34.34.61.5.83.16.22.23.38.23.46,0,.06-.01.12-.03.17-.02.05-.07.09-.13.12-.07.03-.16.05-.28.07s-.28.02-.47.02c-.13,0-.25,0-.35-.01-.1,0-.19-.03-.26-.05s-.14-.06-.21-.09c-.06-.04-.13-.09-.22-.18s-.21-.25-.36-.51-.32-.57-.47-.95c-.15-.38-.29-.81-.39-1.3-.11-.49-.16-1.02-.16-1.58,0-.79.1-1.49.3-2.09.2-.6.49-1.1.86-1.5.37-.4.81-.7,1.33-.9s1.09-.3,1.72-.3c.54,0,1.04.07,1.5.21s.87.35,1.23.62c.36.27.66.61.91,1.01s.43.86.52,1.38h.03c.06-.59.21-1.13.44-1.62.23-.49.53-.91.88-1.26.35-.35.77-.63,1.24-.83.47-.2.98-.3,1.52-.3Z"/>
            </g>
          </g>
        </g>
        <g id="text92" class="cls-15">
          <g class="cls-15">
            <path class="cls-2" d="M753.68,295.07c0,.8-.15,1.52-.44,2.15s-.71,1.16-1.23,1.6c-.53.44-1.14.77-1.85.99-.71.22-1.48.33-2.3.33-.57,0-1.11-.05-1.6-.15-.49-.1-.93-.22-1.31-.36-.38-.14-.71-.29-.97-.44s-.44-.28-.54-.38c-.1-.11-.18-.24-.23-.4s-.07-.38-.07-.66c0-.19,0-.36.03-.48.02-.13.04-.23.08-.31.04-.08.08-.13.13-.17.05-.03.12-.05.19-.05.12,0,.3.08.52.22.22.15.51.31.87.49s.78.34,1.28.5c.5.15,1.08.23,1.73.23.5,0,.95-.07,1.36-.2.41-.13.76-.32,1.06-.56.29-.24.52-.54.68-.89.16-.35.24-.75.24-1.21,0-.49-.11-.9-.33-1.25-.22-.34-.51-.65-.87-.91-.36-.26-.78-.5-1.24-.72-.46-.22-.94-.44-1.42-.66-.49-.22-.96-.47-1.42-.75-.46-.27-.87-.6-1.23-.97-.36-.37-.66-.81-.88-1.3-.23-.5-.34-1.1-.34-1.79s.13-1.35.39-1.91c.26-.56.62-1.03,1.09-1.41.46-.38,1.02-.67,1.66-.87.64-.2,1.33-.3,2.07-.3.38,0,.76.03,1.15.1.38.07.75.15,1.09.26s.64.23.91.37c.27.14.44.25.52.33s.14.15.17.2c.03.05.05.11.07.19s.03.17.04.27c0,.11.01.24.01.41s0,.3-.02.42c-.01.12-.03.23-.06.31s-.06.15-.11.19c-.05.04-.1.06-.17.06-.1,0-.25-.06-.46-.19-.21-.12-.46-.26-.76-.42-.3-.15-.66-.3-1.07-.42-.41-.13-.87-.19-1.38-.19-.48,0-.89.06-1.24.19-.35.13-.64.3-.88.51-.23.21-.4.46-.52.75-.12.29-.17.6-.17.93,0,.48.11.89.33,1.23.22.34.51.65.88.91.37.26.78.51,1.25.73.47.22.94.44,1.43.67.49.23.96.47,1.43.74s.89.59,1.25.95c.37.37.66.8.89,1.3.22.5.34,1.09.34,1.77Z"/>
          </g>
        </g>
        <g id="text96" class="cls-15">
          <g class="cls-15">
            <path class="cls-2" d="M887.15,293.19c0,.34-.1.58-.3.72s-.5.2-.88.2h-14.09c-.4,0-.71-.07-.91-.21-.2-.14-.3-.37-.3-.71s.1-.57.3-.7c.2-.13.51-.2.91-.2h14.09c.18,0,.34.01.49.04.15.03.27.08.37.15.1.08.18.17.24.28.06.12.08.26.08.42Z"/>
          </g>
        </g>
      </g>
      <rect id="rect1675" class="cls-13" x="807.09" y="332.96" width="11.34" height="71.15"/>
      <rect id="rect840" class="cls-20" x="773.65" y="333.03" width="11.34" height="48.54"/>
      <rect id="rect829" class="cls-7" x="840.53" y="332.96" width="11.34" height="93.83"/>
      <circle id="path1085" class="cls-13" cx="812.92" cy="332.26" r="9.35"/>
      <circle id="circle1087" class="cls-20" cx="779.32" cy="332.26" r="9.35"/>
      <circle id="circle1089" class="cls-7" cx="846.17" cy="332.26" r="9.35"/>
      <circle id="circle281-2" class="cls-20" cx="25.88" cy="717.49" r="11.58" transform="translate(-691.88 734.17) rotate(-89.27)"/>
      <circle id="circle281-3" class="cls-13" cx="25.88" cy="563.34" r="11.58" transform="translate(-537.75 582) rotate(-89.27)"/>
      <rect id="rect426" class="cls-13" x="20.21" y="526.71" width="107.42" height="11.34"/>
      <rect id="rect426-2" class="cls-13" x="20.21" y="526.71" width="11.34" height="36.63"/>
      <rect id="rect288" class="cls-13" x="116.3" y="392.77" width="11.34" height="145.28"/>
      <rect id="rect290" class="cls-7" x="93.62" y="415.45" width="11.34" height="245.65"/>
      <rect class="cls-7" x="20.17" y="649.67" width="84.79" height="11.43"/>
      <rect class="cls-7" x="20.17" y="622.69" width="11.43" height="38.41"/>
      <circle id="circle281-4" class="cls-7" cx="25.88" cy="624.49" r="11.58" transform="translate(-598.89 642.37) rotate(-89.27)"/>
      <rect id="rect842" class="cls-20" x="639.62" y="370.23" width="145.37" height="11.34"/>
      <rect id="rect286" class="cls-20" x="639.62" y="370.23" width="11.34" height="353.25"/>
      <rect id="rect1259" class="cls-20" x="26.03" y="712.14" width="613.58" height="11.34"/>
      <rect id="rect838" class="cls-7" x="93.62" y="415.45" width="758.15" height="11.34"/>
      <rect id="rect418" class="cls-13" x="116.3" y="392.77" width="701.1" height="11.34"/>
    </g>
  </g>
</svg>