<?xml version="1.0" encoding="utf-8"?>
<!-- Generator: Adobe Illustrator 27.8.0, SVG Export Plug-In . SVG Version: 6.00 Build 0)  -->
<svg version="1.1"
	 id="Ebene_1" xmlns:svg="http://www.w3.org/2000/svg" xmlns:rdf="http://www.w3.org/1999/02/22-rdf-syntax-ns#" xmlns:sodipodi="http://sodipodi.sourceforge.net/DTD/sodipodi-0.dtd" xmlns:dc="http://purl.org/dc/elements/1.1/" xmlns:inkscape="http://www.inkscape.org/namespaces/inkscape" xmlns:cc="http://creativecommons.org/ns#" inkscape:version="0.92.4 (5da689c313, 2019-01-14)"
	 xmlns="http://www.w3.org/2000/svg" xmlns:xlink="http://www.w3.org/1999/xlink" x="0px" y="0px" viewBox="0 0 462.3 833.6"
	 style="enable-background:new 0 0 462.3 833.6;" xml:space="preserve">
<style type="text/css">
	.st0{fill:#02814B;}
	.st1{fill:#D4C547;}
	.st2{fill:#525035;}
	.st3{fill:#FEE86F;}
	.st4{fill:#FFE17B;}
	.st5{fill:#DDDDDD;}
	.st6{fill:#7F7F7F;}
	.st7{fill:#474544;}
	.st8{fill:#E2EADE;}
	.st9{fill:#C29148;}
	.st10{fill:#8DDDDE;}
	.st11{fill:#C1C1C1;}
	.st12{fill:#C2BFAB;}
	.st13{fill:none;stroke:#95AC6E;stroke-miterlimit:10;}
	.st14{fill:#E8D28A;}
	.st15{fill:#CECECE;}
	.st16{fill:#FFFFFF;}
	.st17{fill:#36323E;}
	.st18{fill:#868C97;}
	.st19{fill:#FCFCFA;}
	.st20{fill:#141316;}
	.st21{fill:#B9A68F;}
	.st22{fill:#E0B45B;}
	.st23{fill:#ABA28E;}
	.st24{fill:none;stroke:#FFFFFF;stroke-miterlimit:10;}
	.st25{fill:#915114;}
	.st26{fill:#E20E18;}
	.st27{fill:#22AE87;}
	.st28{fill:#25AF88;}
	.st29{fill:#010101;}
	.st30{fill:#1B1B1B;}
	.st31{opacity:0.99;fill:#808181;enable-background:new    ;}
	.st32{opacity:0.99;fill:#CDCCCC;enable-background:new    ;}
	.st33{opacity:0.99;fill:#FFFFFF;enable-background:new    ;}
	.st34{opacity:0.99;fill:#010101;enable-background:new    ;}
	.st35{opacity:0.99;fill:#0088AB;enable-background:new    ;}
	.st36{opacity:0.99;fill:#4E4D4D;enable-background:new    ;}
	.st37{enable-background:new    ;}
</style>
<g>
	<path class="st0" d="M243.3,251.6v-11.9H0.2v11.9c2.3,0.9,3.9,3.1,3.9,5.7c0,2.6-1.6,4.8-3.9,5.7V281c2.3,0.9,3.9,3.1,3.9,5.7
		s-1.6,4.8-3.9,5.7v18.1c2.3,0.9,3.9,3.1,3.9,5.7s-1.6,4.8-3.9,5.7v18.1c2.3,0.9,3.9,3.1,3.9,5.7s-1.6,4.8-3.9,5.7v18.1
		c2.3,0.9,3.9,3.1,3.9,5.7s-1.6,4.8-3.9,5.7v18.1c2.3,0.9,3.9,3.1,3.9,5.7s-1.6,4.8-3.9,5.7V428c2.3,0.9,3.9,3.1,3.9,5.7
		s-1.6,4.8-3.9,5.7v18.1c2.3,0.9,3.9,3.1,3.9,5.7s-1.6,4.8-3.9,5.7v18.1c2.3,0.9,3.9,3.1,3.9,5.7s-1.6,4.8-3.9,5.7v18.1
		c2.3,0.9,3.9,3.1,3.9,5.7s-1.6,4.8-3.9,5.7v18.1c2.3,0.9,3.9,3.1,3.9,5.7s-1.6,4.8-3.9,5.7V575c2.3,0.9,3.9,3.1,3.9,5.7
		s-1.6,4.8-3.9,5.7v18.1c2.3,0.9,3.9,3.1,3.9,5.7s-1.6,4.8-3.9,5.7v18.1c2.3,0.9,3.9,3.1,3.9,5.7s-1.6,4.8-3.9,5.7v18.1
		c2.3,0.9,3.9,3.1,3.9,5.7s-1.6,4.8-3.9,5.7v18.1c2.3,0.9,3.9,3.1,3.9,5.7s-1.6,4.8-3.9,5.7v18.1c2.3,0.9,3.9,3.1,3.9,5.7
		s-1.6,4.8-3.9,5.7v18.1c2.3,0.9,3.9,3.1,3.9,5.7s-1.6,4.8-3.9,5.7v18c2.3,0.9,3.9,3.1,3.9,5.7s-1.6,4.8-3.9,5.7v18.1
		c2.3,0.9,3.9,3.1,3.9,5.7s-1.6,4.8-3.9,5.7v11.9h78.5h7.5h11.3h18.5h11.3H146h11.3h4h82v-11.9c-2.2-0.9-3.8-3.1-3.8-5.7
		s1.6-4.8,3.8-5.7v-18.1c-2.2-0.9-3.8-3.1-3.8-5.7s1.6-4.8,3.8-5.7v-18.1c-2.2-0.9-3.8-3.1-3.8-5.7s1.6-4.8,3.8-5.7v-18.1
		c-2.2-0.9-3.8-3.1-3.8-5.7s1.6-4.8,3.8-5.7v-18.1c-2.2-0.9-3.8-3.1-3.8-5.7s1.6-4.8,3.8-5.7v-18.1c-2.2-0.9-3.8-3.1-3.8-5.7
		s1.6-4.8,3.8-5.7v-18.1c-2.2-0.9-3.8-3.1-3.8-5.7s1.6-4.8,3.8-5.7v-18.1c-2.2-0.9-3.8-3.1-3.8-5.7s1.6-4.8,3.8-5.7v-18.1
		c-2.2-0.9-3.8-3.1-3.8-5.7s1.6-4.8,3.8-5.7v-18.1c-2.2-0.9-3.8-3.1-3.8-5.7s1.6-4.8,3.8-5.7v-18.1c-2.2-0.9-3.8-3.1-3.8-5.7
		s1.6-4.8,3.8-5.7v-18.1c-2.2-0.9-3.8-3.1-3.8-5.7s1.6-4.8,3.8-5.7v-18.1c-2.2-0.9-3.8-3.1-3.8-5.7s1.6-4.8,3.8-5.7v-18.1
		c-2.2-0.9-3.8-3.1-3.8-5.7s1.6-4.8,3.8-5.7v-18.1c-2.2-0.9-3.8-3.1-3.8-5.7s1.6-4.8,3.8-5.7v-18.1c-2.2-0.9-3.8-3.1-3.8-5.7
		s1.6-4.8,3.8-5.7v-18.1c-2.2-0.9-3.8-3.1-3.8-5.7s1.6-4.8,3.8-5.7v-18.1c-2.2-0.9-3.8-3.1-3.8-5.7s1.6-4.8,3.8-5.7v-18.1
		c-2.2-0.9-3.8-3.1-3.8-5.7s1.6-4.8,3.8-5.7v-18.1c-2.2-0.9-3.8-3.1-3.8-5.7C239.5,254.7,241.1,252.5,243.3,251.6z M15.8,821.9
		c-3.4,0-6.1-2.7-6.1-6.1s2.7-6.1,6.1-6.1s6.1,2.7,6.1,6.1S19.2,821.9,15.8,821.9z M15.8,792.5c-3.4,0-6.1-2.7-6.1-6.1
		s2.7-6.1,6.1-6.1s6.1,2.7,6.1,6.1S19.2,792.5,15.8,792.5z M15.8,763.1c-3.4,0-6.1-2.7-6.1-6.1s2.7-6.1,6.1-6.1s6.1,2.7,6.1,6.1
		S19.2,763.1,15.8,763.1z M15.8,733.7c-3.4,0-6.1-2.7-6.1-6.1s2.7-6.1,6.1-6.1s6.1,2.7,6.1,6.1S19.2,733.7,15.8,733.7z M15.8,704.3
		c-3.4,0-6.1-2.7-6.1-6.1s2.7-6.1,6.1-6.1s6.1,2.7,6.1,6.1S19.2,704.3,15.8,704.3z M15.8,674.9c-3.4,0-6.1-2.7-6.1-6.1
		s2.7-6.1,6.1-6.1s6.1,2.7,6.1,6.1S19.2,674.9,15.8,674.9z M15.8,645.5c-3.4,0-6.1-2.7-6.1-6.1s2.7-6.1,6.1-6.1s6.1,2.7,6.1,6.1
		S19.2,645.5,15.8,645.5z M15.8,616.1c-3.4,0-6.1-2.7-6.1-6.1s2.7-6.1,6.1-6.1s6.1,2.7,6.1,6.1S19.2,616.1,15.8,616.1z M15.8,586.7
		c-3.4,0-6.1-2.7-6.1-6.1s2.7-6.1,6.1-6.1s6.1,2.7,6.1,6.1S19.2,586.7,15.8,586.7z M15.8,557.3c-3.4,0-6.1-2.7-6.1-6.1
		s2.7-6.1,6.1-6.1s6.1,2.7,6.1,6.1S19.2,557.3,15.8,557.3z M15.8,527.9c-3.4,0-6.1-2.7-6.1-6.1s2.7-6.1,6.1-6.1s6.1,2.7,6.1,6.1
		S19.2,527.9,15.8,527.9z M15.8,498.5c-3.4,0-6.1-2.7-6.1-6.1s2.7-6.1,6.1-6.1s6.1,2.7,6.1,6.1S19.2,498.5,15.8,498.5z M15.8,469.1
		c-3.4,0-6.1-2.7-6.1-6.1s2.7-6.1,6.1-6.1s6.1,2.7,6.1,6.1S19.2,469.1,15.8,469.1z M15.8,439.7c-3.4,0-6.1-2.7-6.1-6.1
		s2.7-6.1,6.1-6.1s6.1,2.7,6.1,6.1S19.2,439.7,15.8,439.7z M15.8,410.3c-3.4,0-6.1-2.7-6.1-6.1s2.7-6.1,6.1-6.1s6.1,2.7,6.1,6.1
		S19.2,410.3,15.8,410.3z M15.8,380.9c-3.4,0-6.1-2.7-6.1-6.1s2.7-6.1,6.1-6.1s6.1,2.7,6.1,6.1S19.2,380.9,15.8,380.9z M15.8,351.6
		c-3.4,0-6.1-2.7-6.1-6.1s2.7-6.1,6.1-6.1c3.4,0,6.1,2.7,6.1,6.1S19.2,351.6,15.8,351.6z M15.8,322.2c-3.4,0-6.1-2.7-6.1-6.1
		s2.7-6.1,6.1-6.1s6.1,2.7,6.1,6.1S19.2,322.2,15.8,322.2z M15.8,292.8c-3.4,0-6.1-2.7-6.1-6.1s2.7-6.1,6.1-6.1s6.1,2.7,6.1,6.1
		S19.2,292.8,15.8,292.8z M15.8,263.4c-3.4,0-6.1-2.7-6.1-6.1c0-3.4,2.7-6.1,6.1-6.1s6.1,2.7,6.1,6.1
		C21.9,260.6,19.2,263.4,15.8,263.4z M53.7,821.8c-6.7,0-12.1-5.4-12.1-12.1s5.4-12.1,12.1-12.1c6.7,0,12.1,5.4,12.1,12.1
		S60.4,821.8,53.7,821.8z M53.7,274.7c-6.7,0-12.1-5.4-12.1-12.1c0-6.7,5.4-12.1,12.1-12.1c6.7,0,12.1,5.4,12.1,12.1
		C65.8,269.3,60.4,274.7,53.7,274.7z M127.6,607.9c-3.1,0-5.7-2.6-5.7-5.7s2.6-5.7,5.7-5.7c3.1,0,5.7,2.6,5.7,5.7
		S130.7,607.9,127.6,607.9z M157,607.9c-3.1,0-5.7-2.6-5.7-5.7s2.6-5.7,5.7-5.7c3.1,0,5.7,2.6,5.7,5.7S160.2,607.9,157,607.9z
		 M186.2,250.4c6.7,0,12.1,5.4,12.1,12.1c0,6.7-5.4,12.1-12.1,12.1s-12.1-5.4-12.1-12.1C174.1,255.9,179.6,250.4,186.2,250.4z
		 M192.5,602.2c0,3.1-2.6,5.7-5.7,5.7c-3.1,0-5.7-2.6-5.7-5.7s2.6-5.7,5.7-5.7C190,596.5,192.5,599.1,192.5,602.2z M188.2,821.8
		c-6.7,0-12.1-5.4-12.1-12.1s5.4-12.1,12.1-12.1s12.1,5.4,12.1,12.1S194.9,821.8,188.2,821.8z M227.8,821.9c-3.4,0-6.1-2.7-6.1-6.1
		s2.7-6.1,6.1-6.1s6.1,2.7,6.1,6.1S231.2,821.9,227.8,821.9z M227.8,792.5c-3.4,0-6.1-2.7-6.1-6.1s2.7-6.1,6.1-6.1s6.1,2.7,6.1,6.1
		S231.2,792.5,227.8,792.5z M227.8,763.1c-3.4,0-6.1-2.7-6.1-6.1s2.7-6.1,6.1-6.1s6.1,2.7,6.1,6.1S231.2,763.1,227.8,763.1z
		 M227.8,733.7c-3.4,0-6.1-2.7-6.1-6.1s2.7-6.1,6.1-6.1s6.1,2.7,6.1,6.1S231.2,733.7,227.8,733.7z M227.8,704.3
		c-3.4,0-6.1-2.7-6.1-6.1s2.7-6.1,6.1-6.1s6.1,2.7,6.1,6.1S231.2,704.3,227.8,704.3z M227.8,674.9c-3.4,0-6.1-2.7-6.1-6.1
		s2.7-6.1,6.1-6.1s6.1,2.7,6.1,6.1S231.2,674.9,227.8,674.9z M227.8,645.5c-3.4,0-6.1-2.7-6.1-6.1s2.7-6.1,6.1-6.1s6.1,2.7,6.1,6.1
		S231.2,645.5,227.8,645.5z M227.8,616.1c-3.4,0-6.1-2.7-6.1-6.1s2.7-6.1,6.1-6.1s6.1,2.7,6.1,6.1S231.2,616.1,227.8,616.1z
		 M227.8,586.7c-3.4,0-6.1-2.7-6.1-6.1s2.7-6.1,6.1-6.1s6.1,2.7,6.1,6.1S231.2,586.7,227.8,586.7z M227.8,557.3
		c-3.4,0-6.1-2.7-6.1-6.1s2.7-6.1,6.1-6.1s6.1,2.7,6.1,6.1S231.2,557.3,227.8,557.3z M227.8,527.9c-3.4,0-6.1-2.7-6.1-6.1
		s2.7-6.1,6.1-6.1s6.1,2.7,6.1,6.1S231.2,527.9,227.8,527.9z M227.8,498.5c-3.4,0-6.1-2.7-6.1-6.1s2.7-6.1,6.1-6.1s6.1,2.7,6.1,6.1
		S231.2,498.5,227.8,498.5z M227.8,469.1c-3.4,0-6.1-2.7-6.1-6.1s2.7-6.1,6.1-6.1s6.1,2.7,6.1,6.1S231.2,469.1,227.8,469.1z
		 M227.8,439.7c-3.4,0-6.1-2.7-6.1-6.1s2.7-6.1,6.1-6.1s6.1,2.7,6.1,6.1S231.2,439.7,227.8,439.7z M227.8,410.3
		c-3.4,0-6.1-2.7-6.1-6.1s2.7-6.1,6.1-6.1s6.1,2.7,6.1,6.1S231.2,410.3,227.8,410.3z M227.8,380.9c-3.4,0-6.1-2.7-6.1-6.1
		s2.7-6.1,6.1-6.1s6.1,2.7,6.1,6.1S231.2,380.9,227.8,380.9z M227.8,351.6c-3.4,0-6.1-2.7-6.1-6.1s2.7-6.1,6.1-6.1s6.1,2.7,6.1,6.1
		S231.2,351.6,227.8,351.6z M227.8,322.2c-3.4,0-6.1-2.7-6.1-6.1s2.7-6.1,6.1-6.1s6.1,2.7,6.1,6.1S231.2,322.2,227.8,322.2z
		 M227.8,292.8c-3.4,0-6.1-2.7-6.1-6.1s2.7-6.1,6.1-6.1s6.1,2.7,6.1,6.1S231.2,292.8,227.8,292.8z M227.8,263.4
		c-3.4,0-6.1-2.7-6.1-6.1c0-3.4,2.7-6.1,6.1-6.1s6.1,2.7,6.1,6.1C233.9,260.6,231.2,263.4,227.8,263.4z"/>
	<path class="st1" d="M53.7,242c-11.3,0-20.5,9.2-20.5,20.5c0,11.3,9.2,20.5,20.5,20.5s20.5-9.2,20.5-20.5
		C74.3,251.2,65.1,242,53.7,242z M53.7,274.7c-6.7,0-12.1-5.4-12.1-12.1c0-6.7,5.4-12.1,12.1-12.1c6.7,0,12.1,5.4,12.1,12.1
		C65.8,269.3,60.4,274.7,53.7,274.7z"/>
	<path class="st1" d="M186.3,242c-11.3,0-20.5,9.2-20.5,20.5c0,11.3,9.2,20.5,20.5,20.5c11.3,0,20.5-9.2,20.5-20.5
		C206.8,251.2,197.6,242,186.3,242z M186.3,274.7c-6.7,0-12.1-5.4-12.1-12.1c0-6.7,5.4-12.1,12.1-12.1c6.7,0,12.1,5.4,12.1,12.1
		C198.4,269.3,193,274.7,186.3,274.7z"/>
	<path class="st1" d="M53.7,789.2c-11.3,0-20.5,9.2-20.5,20.5s9.2,20.5,20.5,20.5s20.5-9.2,20.5-20.5S65.1,789.2,53.7,789.2z
		 M53.7,821.9c-6.7,0-12.1-5.4-12.1-12.1s5.4-12.1,12.1-12.1c6.7,0,12.1,5.4,12.1,12.1S60.4,821.9,53.7,821.9z"/>
	<path class="st1" d="M188.3,789.2c-11.3,0-20.5,9.2-20.5,20.5s9.2,20.5,20.5,20.5c11.3,0,20.5-9.2,20.5-20.5
		S199.6,789.2,188.3,789.2z M188.3,821.9c-6.7,0-12.1-5.4-12.1-12.1s5.4-12.1,12.1-12.1c6.7,0,12.1,5.4,12.1,12.1
		S195,821.9,188.3,821.9z"/>
	<circle class="st2" cx="55" cy="327.3" r="10.6"/>
	<circle class="st3" cx="55" cy="327.3" r="5.5"/>
	<path class="st4" d="M17.5,307.1H0.3v3.4c2.3,0.9,3.9,3.1,3.9,5.7s-1.6,4.8-3.9,5.7v3.4h17.2c5,0,9-4,9-9v0
		C26.5,311.1,22.4,307.1,17.5,307.1z M15.9,322.2c-3.4,0-6.1-2.7-6.1-6.1s2.7-6.1,6.1-6.1s6.1,2.7,6.1,6.1S19.2,322.2,15.9,322.2z"
		/>
	<path class="st4" d="M17.5,454.1H0.3v3.4c2.3,0.9,3.9,3.1,3.9,5.7s-1.6,4.8-3.9,5.7v3.4h17.2c5,0,9-4,9-9S22.4,454.1,17.5,454.1z
		 M15.9,469.2c-3.4,0-6.1-2.7-6.1-6.1s2.7-6.1,6.1-6.1s6.1,2.7,6.1,6.1S19.2,469.2,15.9,469.2z"/>
	<path class="st4" d="M17.5,601H0.3v3.4c2.3,0.9,3.9,3.1,3.9,5.7s-1.6,4.8-3.9,5.7v3.4h17.2c5,0,9-4,9-9S22.4,601,17.5,601z
		 M15.9,616.1c-3.4,0-6.1-2.7-6.1-6.1s2.7-6.1,6.1-6.1s6.1,2.7,6.1,6.1S19.2,616.1,15.9,616.1z"/>
	<path class="st4" d="M17.5,630.4H0.3v3.4c2.3,0.9,3.9,3.1,3.9,5.7s-1.6,4.8-3.9,5.7v3.4h17.2c5,0,9-4,9-9S22.4,630.4,17.5,630.4z
		 M15.9,645.5c-3.4,0-6.1-2.7-6.1-6.1s2.7-6.1,6.1-6.1s6.1,2.7,6.1,6.1S19.2,645.5,15.9,645.5z"/>
	<path class="st4" d="M17.5,659.8H0.3v3.4c2.3,0.9,3.9,3.1,3.9,5.7s-1.6,4.8-3.9,5.7v3.4h17.2c5,0,9-4,9-9S22.4,659.8,17.5,659.8z
		 M15.9,674.9c-3.4,0-6.1-2.7-6.1-6.1s2.7-6.1,6.1-6.1s6.1,2.7,6.1,6.1S19.2,674.9,15.9,674.9z"/>
	<path class="st4" d="M17.5,689.2H0.3v3.4c2.3,0.9,3.9,3.1,3.9,5.7s-1.6,4.8-3.9,5.7v3.4h17.2c5,0,9-4,9-9S22.4,689.2,17.5,689.2z
		 M15.9,704.3c-3.4,0-6.1-2.7-6.1-6.1s2.7-6.1,6.1-6.1s6.1,2.7,6.1,6.1S19.2,704.3,15.9,704.3z"/>
	<path class="st4" d="M17.5,748H0.3v3.4c2.3,0.9,3.9,3.1,3.9,5.7s-1.6,4.8-3.9,5.7v3.4h17.2c5,0,9-4,9-9v0
		C26.5,752,22.4,748,17.5,748z M15.9,763.1c-3.4,0-6.1-2.7-6.1-6.1s2.7-6.1,6.1-6.1s6.1,2.7,6.1,6.1S19.2,763.1,15.9,763.1z"/>
	<path class="st4" d="M17.5,777.4H0.3v3.4c2.3,0.9,3.9,3.1,3.9,5.7s-1.6,4.8-3.9,5.7v3.4h17.2c5,0,9-4,9-9v0
		C26.5,781.4,22.4,777.4,17.5,777.4z M15.9,792.5c-3.4,0-6.1-2.7-6.1-6.1s2.7-6.1,6.1-6.1s6.1,2.7,6.1,6.1S19.2,792.5,15.9,792.5z"
		/>
	<path class="st4" d="M17.5,806.8H0.3v3.4c2.3,0.9,3.9,3.1,3.9,5.7s-1.6,4.8-3.9,5.7v3.4h17.2c5,0,9-4,9-9S22.4,806.8,17.5,806.8z
		 M15.9,821.9c-3.4,0-6.1-2.7-6.1-6.1s2.7-6.1,6.1-6.1s6.1,2.7,6.1,6.1S19.2,821.9,15.9,821.9z"/>
	<path class="st4" d="M239.5,257.3c0-2.6,1.6-4.8,3.9-5.7v-3.4h-17.2c-5,0-9,4-9,9s4,9,9,9h17.2V263
		C241.2,262.1,239.5,259.9,239.5,257.3z M227.8,263.4c-3.4,0-6.1-2.7-6.1-6.1s2.7-6.1,6.1-6.1s6.1,2.7,6.1,6.1
		S231.2,263.4,227.8,263.4z"/>
	<path class="st4" d="M239.5,286.7c0-2.6,1.6-4.8,3.9-5.7v-3.4h-17.2c-5,0-9,4-9,9v0c0,5,4,9,9,9h17.2v-3.4
		C241.2,291.5,239.5,289.3,239.5,286.7z M227.8,292.8c-3.4,0-6.1-2.7-6.1-6.1s2.7-6.1,6.1-6.1s6.1,2.7,6.1,6.1
		S231.2,292.8,227.8,292.8z"/>
	<path class="st4" d="M239.5,316.1c0-2.6,1.6-4.8,3.9-5.7v-3.4h-17.2c-5,0-9,4-9,9v0c0,5,4,9,9,9h17.2v-3.4
		C241.2,320.9,239.5,318.7,239.5,316.1z M227.8,322.2c-3.4,0-6.1-2.7-6.1-6.1s2.7-6.1,6.1-6.1s6.1,2.7,6.1,6.1
		S231.2,322.2,227.8,322.2z"/>
	<path class="st4" d="M239.5,345.5c0-2.6,1.6-4.8,3.9-5.7v-3.4h-17.2c-5,0-9,4-9,9s4,9,9,9h17.2v-3.4
		C241.2,350.3,239.5,348.1,239.5,345.5z M227.8,351.6c-3.4,0-6.1-2.7-6.1-6.1s2.7-6.1,6.1-6.1s6.1,2.7,6.1,6.1
		S231.2,351.6,227.8,351.6z"/>
	<path class="st4" d="M239.5,374.9c0-2.6,1.6-4.8,3.9-5.7v-3.4h-17.2c-5,0-9,4-9,9s4,9,9,9h17.2v-3.4
		C241.2,379.7,239.5,377.5,239.5,374.9z M227.8,381c-3.4,0-6.1-2.7-6.1-6.1s2.7-6.1,6.1-6.1s6.1,2.7,6.1,6.1S231.2,381,227.8,381z"
		/>
	<path class="st4" d="M239.5,404.3c0-2.6,1.6-4.8,3.9-5.7v-3.4h-17.2c-5,0-9,4-9,9s4,9,9,9h17.2V410
		C241.2,409.1,239.5,406.9,239.5,404.3z M227.8,410.4c-3.4,0-6.1-2.7-6.1-6.1s2.7-6.1,6.1-6.1s6.1,2.7,6.1,6.1
		S231.2,410.4,227.8,410.4z"/>
	<path class="st4" d="M239.5,463.1c0-2.6,1.6-4.8,3.9-5.7v-3.4h-17.2c-5,0-9,4-9,9s4,9,9,9h17.2v-3.4
		C241.2,467.9,239.5,465.7,239.5,463.1z M227.8,469.2c-3.4,0-6.1-2.7-6.1-6.1s2.7-6.1,6.1-6.1s6.1,2.7,6.1,6.1
		S231.2,469.2,227.8,469.2z"/>
	<path class="st4" d="M239.5,521.9c0-2.6,1.6-4.8,3.9-5.7v-3.4h-17.2c-5,0-9,4-9,9v0c0,5,4,9,9,9h17.2v-3.4
		C241.2,526.7,239.5,524.4,239.5,521.9z M227.8,528c-3.4,0-6.1-2.7-6.1-6.1s2.7-6.1,6.1-6.1s6.1,2.7,6.1,6.1S231.2,528,227.8,528z"
		/>
	<path class="st4" d="M239.5,551.3c0-2.6,1.6-4.8,3.9-5.7v-3.4h-17.2c-5,0-9,4-9,9v0c0,5,4,9,9,9h17.2v-3.4
		C241.2,556,239.5,553.8,239.5,551.3z M227.8,557.3c-3.4,0-6.1-2.7-6.1-6.1s2.7-6.1,6.1-6.1s6.1,2.7,6.1,6.1
		S231.2,557.3,227.8,557.3z"/>
	<path class="st4" d="M239.5,580.7c0-2.6,1.6-4.8,3.9-5.7v-3.4h-17.2c-5,0-9,4-9,9s4,9,9,9h17.2v-3.4
		C241.2,585.4,239.5,583.2,239.5,580.7z M227.8,586.7c-3.4,0-6.1-2.7-6.1-6.1s2.7-6.1,6.1-6.1s6.1,2.7,6.1,6.1
		S231.2,586.7,227.8,586.7z"/>
	<path class="st4" d="M239.5,610.1c0-2.6,1.6-4.8,3.9-5.7V601h-17.2c-5,0-9,4-9,9s4,9,9,9h17.2v-3.4
		C241.2,614.8,239.5,612.6,239.5,610.1z M227.8,616.1c-3.4,0-6.1-2.7-6.1-6.1s2.7-6.1,6.1-6.1s6.1,2.7,6.1,6.1
		S231.2,616.1,227.8,616.1z"/>
	<path class="st4" d="M239.5,639.4c0-2.6,1.6-4.8,3.9-5.7v-3.4h-17.2c-5,0-9,4-9,9s4,9,9,9h17.2v-3.4
		C241.2,644.2,239.5,642,239.5,639.4z M227.8,645.5c-3.4,0-6.1-2.7-6.1-6.1s2.7-6.1,6.1-6.1s6.1,2.7,6.1,6.1
		S231.2,645.5,227.8,645.5z"/>
	<path class="st4" d="M239.5,668.8c0-2.6,1.6-4.8,3.9-5.7v-3.4h-17.2c-5,0-9,4-9,9s4,9,9,9h17.2v-3.4
		C241.2,673.6,239.5,671.4,239.5,668.8z M227.8,674.9c-3.4,0-6.1-2.7-6.1-6.1s2.7-6.1,6.1-6.1s6.1,2.7,6.1,6.1
		S231.2,674.9,227.8,674.9z"/>
	<path class="st4" d="M239.5,698.2c0-2.6,1.6-4.8,3.9-5.7v-3.4h-17.2c-5,0-9,4-9,9s4,9,9,9h17.2v-3.4
		C241.2,703,239.5,700.8,239.5,698.2z M227.8,704.3c-3.4,0-6.1-2.7-6.1-6.1s2.7-6.1,6.1-6.1s6.1,2.7,6.1,6.1
		S231.2,704.3,227.8,704.3z"/>
	<path class="st4" d="M239.5,757c0-2.6,1.6-4.8,3.9-5.7V748h-17.2c-5,0-9,4-9,9v0c0,5,4,9,9,9h17.2v-3.4
		C241.2,761.8,239.5,759.6,239.5,757z M227.8,763.1c-3.4,0-6.1-2.7-6.1-6.1s2.7-6.1,6.1-6.1s6.1,2.7,6.1,6.1
		S231.2,763.1,227.8,763.1z"/>
	<path class="st4" d="M239.5,786.4c0-2.6,1.6-4.8,3.9-5.7v-3.4h-17.2c-5,0-9,4-9,9v0c0,5,4,9,9,9h17.2v-3.4
		C241.2,791.2,239.5,789,239.5,786.4z M227.8,792.5c-3.4,0-6.1-2.7-6.1-6.1s2.7-6.1,6.1-6.1s6.1,2.7,6.1,6.1
		S231.2,792.5,227.8,792.5z"/>
	<path class="st5" d="M163.1,229.2l4.4-4.4l-2.3-2.3l-6.6,6.6h-1.5v-4.7c0-1.2-1-2.2-2.2-2.2H85.4c-1.2,0-2.2,1-2.2,2.2v4.7h-1.5
		l-6.6-6.6l-2.3,2.3l4.4,4.4c-0.6,0.2-1,0.8-1,1.4v56.3c0,0.9,0.7,1.6,1.6,1.6h84.6c0.9,0,1.6-0.7,1.6-1.6v-56.3
		C164,230,163.6,229.4,163.1,229.2z"/>
	<g>
		<path class="st6" d="M100.3,251.5c0-3.2-2.6-5.8-5.8-5.8s-5.8,2.6-5.8,5.8c0,1.4,0.5,2.7,1.3,3.7h-0.2v7.7c0,1.2,1,2.1,2.1,2.1H97
			c1.2,0,2.1-1,2.1-2.1v-7.7H99C99.8,254.2,100.3,252.9,100.3,251.5z"/>
		<path class="st6" d="M155.5,251.5c0-3.2-2.6-5.8-5.8-5.8s-5.8,2.6-5.8,5.8c0,1.4,0.5,2.7,1.3,3.7H145v7.7c0,1.2,1,2.1,2.1,2.1h5.1
			c1.2,0,2.1-1,2.1-2.1v-7.7h-0.2C155,254.2,155.5,252.9,155.5,251.5z"/>
	</g>
	<path class="st7" d="M200.9,381.6h-21c-1.2,0-2.2-1-2.2-2.2v-26.7c0-1.2,1-2.2,2.2-2.2h21c1.2,0,2.2,1,2.2,2.2v26.7
		C203,380.7,202.1,381.6,200.9,381.6z"/>
	<g>
		<rect x="132" y="317.8" class="st8" width="21.7" height="14.4"/>
		<path class="st9" d="M149.3,332.2c-2-1.8-3.2-4.4-3.2-7.2s1.2-5.4,3.2-7.2h-12.8c2,1.8,3.2,4.4,3.2,7.2s-1.2,5.4-3.2,7.2H149.3z"
			/>
	</g>
	<g>
		<rect x="132.3" y="403.1" class="st8" width="21.7" height="14.4"/>
		<path class="st9" d="M149.6,417.6c-2-1.8-3.2-4.4-3.2-7.2s1.2-5.4,3.2-7.2h-12.8c2,1.8,3.2,4.4,3.2,7.2s-1.2,5.4-3.2,7.2H149.6z"
			/>
	</g>
	<g>
		<rect x="132.3" y="422.3" class="st8" width="21.7" height="14.4"/>
		<path class="st9" d="M149.6,436.8c-2-1.8-3.2-4.4-3.2-7.2s1.2-5.4,3.2-7.2h-12.8c2,1.8,3.2,4.4,3.2,7.2s-1.2,5.4-3.2,7.2H149.6z"
			/>
	</g>
	<g>
		
			<rect x="63.8" y="470.7" transform="matrix(6.123234e-17 -1 1 6.123234e-17 -409.4612 542.4973)" class="st8" width="5.4" height="10.6"/>
		
			<rect x="63.8" y="473" transform="matrix(6.123234e-17 -1 1 6.123234e-17 -409.4612 542.4973)" class="st9" width="5.4" height="6"/>
	</g>
	<g>
		<rect x="177.1" y="453.3" class="st8" width="5.4" height="10.6"/>
		<rect x="177.1" y="455.6" class="st9" width="5.4" height="6"/>
	</g>
	<rect x="179.5" y="303.2" class="st7" width="18.9" height="29.3"/>
	<g>
		<rect x="171.6" y="404.5" class="st8" width="20.6" height="9.6"/>
		<rect x="176.2" y="404.5" class="st10" width="11.5" height="9.6"/>
	</g>
	<rect x="120.2" y="572.6" class="st9" width="4.2" height="6.9"/>
	<rect x="126.9" y="572.6" class="st9" width="4.2" height="6.9"/>
	
		<rect x="66.6" y="482.6" transform="matrix(6.123234e-17 -1 1 6.123234e-17 -417.2578 554.7402)" class="st9" width="4.2" height="6.9"/>
	
		<rect x="89.5" y="415.4" transform="matrix(6.123234e-17 -1 1 6.123234e-17 -327.1931 510.5172)" class="st9" width="4.2" height="6.9"/>
	
		<rect x="66.3" y="526.2" transform="matrix(6.123234e-17 -1 1 6.123234e-17 -461.2119 597.9818)" class="st9" width="4.2" height="6.9"/>
	<rect x="195" y="531.4" class="st7" width="4.2" height="6.9"/>
	
		<rect x="189.2" y="470.1" transform="matrix(6.123234e-17 -1 1 6.123234e-17 -282.2416 664.8931)" class="st7" width="4.2" height="6.9"/>
	
		<rect x="87.2" y="314.5" transform="matrix(6.123234e-17 -1 1 6.123234e-17 -228.56 407.2223)" class="st7" width="4.2" height="6.9"/>
	
		<rect x="82.3" y="326.7" transform="matrix(6.123234e-17 -1 1 6.123234e-17 -245.6752 414.5818)" class="st7" width="4.2" height="6.9"/>
	
		<rect x="192.8" y="419.2" transform="matrix(6.123234e-17 -1 1 6.123234e-17 -227.6319 617.546)" class="st7" width="4.2" height="6.9"/>
	<path class="st11" d="M186.3,736.3H57.5c-2.1,0-3.9-1.7-3.9-3.9V624.3c0-2.1,1.7-3.9,3.9-3.9h128.8c2.1,0,3.9,1.7,3.9,3.9v108.1
		C190.2,734.5,188.5,736.3,186.3,736.3z"/>
	<rect x="101.5" y="782.5" class="st12" width="10.5" height="5.9"/>
	<rect x="130.3" y="782.7" class="st12" width="10.5" height="5.9"/>
	<rect x="101.5" y="820.3" class="st12" width="10.5" height="5.9"/>
	<rect x="130.3" y="820.5" class="st12" width="10.5" height="5.9"/>
	<polyline class="st13" points="17.5,265.1 17.5,269.5 35.4,287.4 35.4,336 51,351.6 51,486.4 55.9,491.3 91.2,491.3 	"/>
	<polyline class="st13" points="22.9,291.9 31,300 31,337.9 46.7,353.6 46.7,488.8 52.6,494.8 91,494.8 	"/>
	<polyline class="st13" points="23.2,350.4 43,370.1 43,491.3 53.4,501.7 95,501.7 	"/>
	<polyline class="st13" points="23.2,379.8 39.8,396.3 39.8,493.2 51.9,505.4 95.1,505.4 	"/>
	<polyline class="st13" points="23.2,409.9 35.6,422.3 35.6,498.3 49.5,512.2 93.4,512.2 	"/>
	<polyline class="st13" points="22.9,438.1 31.6,446.8 31.6,500.9 46.4,515.7 96.1,515.7 	"/>
	<polyline class="st13" points="22.9,496.7 45.3,519.2 102.7,519.2 	"/>
	<line class="st13" x1="23.7" y1="522.7" x2="98.8" y2="522.7"/>
	<path class="st13" d="M23.2,549c0.1-0.6,17.3-17.3,17.3-17.3H53l4.9,4.9h45.7"/>
	<polyline class="st13" points="20.4,574.9 25.7,569.6 25.7,561.8 30.9,556.6 30.9,548.2 43.9,535.2 52.6,535.2 57.3,539.8 
		95.3,539.8 	"/>
	<path class="st13" d="M30.7,565.1l3.4-3.4c0,0-0.7-8.9,0-9.6c0.7-0.7,6-6,6-6l6.3-6.3h6.1l3.7,3.7h35.1"/>
	<polyline class="st13" points="29.1,621 29.1,573.4 38.7,563.8 93.4,563.8 95,562.2 95,552.5 	"/>
	<polyline class="st13" points="17.5,719.3 17.5,715.6 32.9,700.2 32.9,619.9 35.7,617.2 35.7,575.4 42,569 94.2,569 98.4,564.8 
		98.4,557.5 	"/>
	<path class="st13" d="M35.7,602.8"/>
	<path class="st13" d="M35.7,618.1"/>
	<polyline class="st13" points="23.6,779.8 30.4,773.1 30.4,708.5 37.5,702.6 	"/>
	<polyline class="st13" points="35.6,712.9 42.6,705.8 42.6,616.1 39.9,613.4 39.9,576.6 44.6,571.9 94.9,571.9 101.9,564.9 
		101.9,548.3 	"/>
	<polyline class="st13" points="108.9,555.1 108.9,563.8 95.9,576.9 91.5,576.9 	"/>
	<polyline class="st13" points="93.9,585.5 112.4,567 112.4,551.6 	"/>
	<polyline class="st13" points="115.9,556.9 115.9,568.6 102.2,582.3 102.2,602.3 95.9,608.6 65,608.6 55.5,599.1 	"/>
	<polyline class="st13" points="133.9,595.9 138.7,591.1 138.7,577.8 135.5,574.6 135.5,564.6 132.4,561.5 132.4,550.6 	"/>
	<polyline class="st13" points="137.3,554.6 137.3,562.5 139.3,564.5 139.3,570.9 152.7,584.3 164.9,584.3 179.1,598.5 	"/>
	<polyline class="st13" points="145.3,552.5 145.3,562.8 151.3,568.8 172.3,568.8 200.5,597.1 200.5,709.7 206.7,715.9 206.7,766.7 
		212.3,772.3 212.3,792.5 223.3,803.6 223.3,808.9 	"/>
	<polyline class="st13" points="150.7,552.9 150.7,560.2 154.7,564.2 173.6,564.2 205.2,595.8 205.2,707.3 211.4,713.5 211.4,766.1 
		215.6,770.2 215.6,779 	"/>
	<polyline class="st13" points="157.5,547.7 165.3,547.7 211.1,593.6 211.1,705.2 227.2,721.3 	"/>
	<polyline class="st13" points="157.5,543.3 166.9,543.3 192.1,568.5 	"/>
	<polyline class="st13" points="158.6,538.2 166.6,538.2 190.1,561.7 195.5,561.7 206.3,572.5 206.3,579.4 	"/>
	<polyline class="st13" points="158.2,533.7 167.3,533.7 190.4,556.8 200.9,556.8 	"/>
	<polyline class="st13" points="158.2,529.6 169.1,529.6 174.1,534.6 	"/>
	<polyline class="st13" points="158.2,524.6 175.4,524.6 202.8,552 206.3,552 215.9,561.6 215.9,574 	"/>
	<line class="st13" x1="158.6" y1="519.2" x2="167.7" y2="519.2"/>
	<polyline class="st13" points="156.4,513.8 171.8,513.8 179.2,521.1 	"/>
	<polyline class="st13" points="187.9,533.7 192.4,529.2 192.4,509.9 203.4,509.9 	"/>
	<polyline class="st13" points="158.6,505.4 209.5,505.4 218.5,514.4 	"/>
	<polyline class="st13" points="158.2,500.9 213.8,500.9 220.3,494.5 	"/>
	<polyline class="st13" points="157.5,496.7 198.8,496.7 207.1,488.5 207.1,448.2 219.6,435.7 	"/>
	<polyline class="st13" points="158.6,492.5 179.1,492.5 202.4,469.2 202.4,446.4 	"/>
	<polyline class="st13" points="159.7,487.8 167.2,487.8 171.8,483.1 	"/>
	<path class="st13" d="M147.8,482.5c-0.2-0.3,9.2-9.2,9.2-9.2h15.6v-33.5l2.8-2.8v-7.7"/>
	<path class="st13" d="M147,480.2c0-0.2,0-6.5,0-6.5l10.3-10.3"/>
	<polyline class="st13" points="140.1,481.2 140.1,470.4 147.4,463 	"/>
	<line class="st13" x1="136.6" y1="478.1" x2="136.6" y2="460.6"/>
	<path class="st13" d="M133.1,479.9c0-0.6,0-15.2,0-15.2l-4.2-4.2"/>
	<path class="st13" d="M122.6,479.5c0-0.6,0-20.7,0-20.7"/>
	<path class="st13" d="M119.2,481.2c0-0.3,0-11.1,0-11.1l-7.6-7.6"/>
	<polyline class="st13" points="115.6,480.7 115.6,474.3 101.8,460.5 101.8,454.1 105,450.8 108.9,450.8 111.5,448.2 111.5,437.7 
		106.1,432.3 100,432.3 	"/>
	<polyline class="st13" points="99.8,438.1 105.4,438.1 108.5,441.2 108.5,446.4 105.7,449.1 101.1,449.1 97.7,452.5 97.7,461.6 
		108.7,472.6 108.7,479.3 	"/>
	<polyline class="st13" points="91.3,442.6 91.3,459.3 105.2,473.3 105.2,482.8 	"/>
	<polyline class="st13" points="76.5,441.8 76.5,449 85.9,458.4 85.9,462.2 99,475.3 99,484.3 	"/>
	<path class="st13" d="M94.8,478.4c0-0.1,0-5,0-5l-11.7-11.7v-1.1l-4.5-4.5h-6.4l-1.7-1.7h-6.9l-6.7-6.7v-14.4l1.6-1.6h8.8"/>
	<polyline class="st13" points="69.1,425.7 60.4,425.7 55.4,430.7 55.4,448.5 63.4,456.5 69.5,456.5 75.9,462.9 78.4,462.9 
		92.5,476.9 	"/>
	<line class="st13" x1="73.8" y1="399" x2="56" y2="416.8"/>
	<polyline class="st13" points="137.6,459.6 137.6,453.5 134.7,450.5 134.7,447.5 130.2,443.1 125.2,443.1 121.1,439 121.1,420 
		109.7,408.6 109.7,326.4 124,312.1 124,303 127.7,299.3 	"/>
	<path class="st13" d="M135.3,352.3c0-0.6,0-9,0-9l-3.1-3.1h-9.8l-4.5-4.5v-4.3"/>
	<polyline class="st13" points="129.3,384.6 129.3,390 126.1,393.2 120.2,393.2 118.6,394.7 	"/>
	<polyline class="st13" points="62.9,297.8 62.9,307.2 79.1,323.4 83.6,323.4 88.5,328.2 88.5,336.5 83.9,341 83.9,354.5 	"/>
	<rect x="45.6" y="290.6" class="st14" width="18.9" height="9.6"/>
	<g>
		<rect x="102.7" y="288.5" class="st15" width="4.3" height="11.5"/>
		<rect x="110.4" y="288.5" class="st15" width="4.3" height="11.5"/>
		<rect x="118.1" y="288.5" class="st15" width="4.3" height="11.5"/>
		<rect x="125.7" y="288.5" class="st15" width="4.3" height="11.5"/>
		<rect x="133.4" y="288.5" class="st15" width="4.3" height="11.5"/>
	</g>
	<g>
		<path class="st16" d="M106.8,309.3v-5.5h2.5v5.8c0,2,0.6,2.7,1.7,2.7c1.2,0,1.8-0.7,1.8-2.7v-5.8h2.4v5.5c0,3.5-1.4,5.1-4.2,5.1
			S106.8,312.8,106.8,309.3z"/>
		<path class="st16" d="M116.7,312.9l1.3-1.6c0.7,0.6,1.7,1,2.6,1c0.9,0,1.4-0.4,1.4-0.9c0-0.6-0.6-0.8-1.5-1.2l-1.3-0.6
			c-1.1-0.4-2.1-1.3-2.1-2.8c0-1.7,1.6-3.2,3.8-3.2c1.2,0,2.5,0.5,3.4,1.3l-1.3,1.6c-0.7-0.5-1.4-0.8-2.1-0.8
			c-0.8,0-1.3,0.3-1.3,0.8c0,0.6,0.7,0.8,1.6,1.2l1.3,0.5c1.3,0.5,2.1,1.4,2.1,2.8c0,1.7-1.5,3.3-4,3.3
			C119.1,314.4,117.8,313.9,116.7,312.9z"/>
		<path class="st16" d="M126.3,303.8h3.6c2.2,0,3.9,0.6,3.9,2.6c0,0.9-0.5,1.9-1.4,2.2v0.1c1.1,0.3,1.9,1.1,1.9,2.4
			c0,2.1-1.8,3.1-4.1,3.1h-3.9V303.8z M129.8,307.9c1.1,0,1.5-0.5,1.5-1.2c0-0.8-0.5-1.1-1.5-1.1h-1.1v2.2H129.8z M130,312.3
			c1.2,0,1.8-0.4,1.8-1.3s-0.6-1.2-1.8-1.2h-1.2v2.5H130z"/>
	</g>
	<path class="st17" d="M170.2,385.2h-45.7c-0.5,0-1-0.4-1-1v-33.5c0-0.5,0.4-1,1-1h45.7c0.5,0,1,0.4,1,1v33.5
		C171.1,384.7,170.7,385.2,170.2,385.2z"/>
	<g>
		<rect x="128.6" y="345.5" class="st15" width="1.4" height="4.1"/>
		<rect x="134.6" y="345.5" class="st15" width="1.4" height="4.1"/>
		<rect x="140.6" y="345.5" class="st15" width="1.4" height="4.1"/>
		<rect x="146.6" y="345.5" class="st15" width="1.4" height="4.1"/>
		<rect x="152.6" y="345.5" class="st15" width="1.4" height="4.1"/>
		<rect x="158.6" y="345.5" class="st15" width="1.4" height="4.1"/>
		<rect x="164.6" y="345.5" class="st15" width="1.4" height="4.1"/>
	</g>
	<g>
		<rect x="128.6" y="385.2" class="st15" width="1.4" height="4.1"/>
		<rect x="134.6" y="385.2" class="st15" width="1.4" height="4.1"/>
		<rect x="140.6" y="385.2" class="st15" width="1.4" height="4.1"/>
		<rect x="146.6" y="385.2" class="st15" width="1.4" height="4.1"/>
		<rect x="152.6" y="385.2" class="st15" width="1.4" height="4.1"/>
		<rect x="158.6" y="385.2" class="st15" width="1.4" height="4.1"/>
		<rect x="164.6" y="385.2" class="st15" width="1.4" height="4.1"/>
	</g>
	<g>
		<rect x="61.4" y="353.5" class="st18" width="39.3" height="48.9"/>
		<path class="st19" d="M81,396.3L81,396.3c-7.6,0-13.7-6.1-13.7-13.7v-9.1c0-7.6,6.1-13.7,13.7-13.7h0c7.6,0,13.7,6.1,13.7,13.7
			v9.1C94.7,390.1,88.6,396.3,81,396.3z"/>
		<path class="st19" d="M61.4,363.8L61.4,363.8l0-10.3h10.3l0,0C71.6,359.2,67.1,363.8,61.4,363.8z"/>
		<path class="st19" d="M71.6,402.5H61.4v-10.3h0C67.1,392.2,71.6,396.8,71.6,402.5L71.6,402.5z"/>
		<path class="st19" d="M100.7,363.8L100.7,363.8c-5.7,0-10.3-4.6-10.3-10.3l0,0h10.3V363.8z"/>
		<path class="st19" d="M100.7,402.5H90.4v0c0-5.7,4.6-10.3,10.3-10.3h0V402.5z"/>
	</g>
	<g>
		<rect x="64.9" y="423" class="st17" width="34.6" height="22.9"/>
		<g>
			<rect x="60.7" y="424.2" class="st15" width="4.2" height="3.4"/>
			<rect x="60.7" y="429.9" class="st15" width="4.2" height="3.4"/>
			<rect x="60.7" y="435.7" class="st15" width="4.2" height="3.4"/>
			<rect x="60.7" y="441.4" class="st15" width="4.2" height="3.4"/>
		</g>
		<g>
			<rect x="99.5" y="424.2" class="st15" width="4.2" height="3.4"/>
			<rect x="99.5" y="429.9" class="st15" width="4.2" height="3.4"/>
			<rect x="99.5" y="435.7" class="st15" width="4.2" height="3.4"/>
			<rect x="99.5" y="441.4" class="st15" width="4.2" height="3.4"/>
		</g>
	</g>
	<rect x="135.5" y="454.5" class="st7" width="4.2" height="6.9"/>
	<g>
		<path class="st20" d="M160.4,558.3H81.4c-0.7,0-1.3-0.6-1.3-1.3v-79.1c0-0.7,0.6-1.3,1.3-1.3h79.1c0.7,0,1.3,0.6,1.3,1.3V557
			C161.7,557.7,161.1,558.3,160.4,558.3z"/>
		<g>
			<rect x="86.2" y="474.7" class="st15" width="3.1" height="1.9"/>
			<rect x="89.7" y="474.7" class="st15" width="3.1" height="1.9"/>
			<rect x="93.2" y="474.7" class="st15" width="3.1" height="1.9"/>
			<rect x="96.7" y="474.7" class="st15" width="3.1" height="1.9"/>
			<rect x="100.2" y="474.7" class="st15" width="3.1" height="1.9"/>
			<rect x="103.6" y="474.7" class="st15" width="3.1" height="1.9"/>
			<rect x="107.1" y="474.7" class="st15" width="3.1" height="1.9"/>
			<rect x="114.1" y="474.7" class="st15" width="3.1" height="1.9"/>
			<rect x="121.1" y="474.7" class="st15" width="3.1" height="1.9"/>
			<rect x="128" y="474.7" class="st15" width="3.1" height="1.9"/>
			<rect x="138.5" y="474.7" class="st15" width="3.1" height="1.9"/>
			<rect x="142" y="474.7" class="st15" width="3.1" height="1.9"/>
			<rect x="149" y="474.7" class="st15" width="3.1" height="1.9"/>
			<rect x="110.6" y="474.7" class="st15" width="3.1" height="1.9"/>
			<rect x="117.6" y="474.7" class="st15" width="3.1" height="1.9"/>
			<rect x="124.6" y="474.7" class="st15" width="3.1" height="1.9"/>
			<rect x="131.5" y="474.7" class="st15" width="3.1" height="1.9"/>
			<rect x="135" y="474.7" class="st15" width="3.1" height="1.9"/>
			<rect x="145.5" y="474.7" class="st15" width="3.1" height="1.9"/>
			<rect x="152.4" y="474.7" class="st15" width="3.1" height="1.9"/>
		</g>
		<g>
			<rect x="86.4" y="558.3" class="st15" width="3.1" height="1.9"/>
			<rect x="89.9" y="558.3" class="st15" width="3.1" height="1.9"/>
			<rect x="93.4" y="558.3" class="st15" width="3.1" height="1.9"/>
			<rect x="96.9" y="558.3" class="st15" width="3.1" height="1.9"/>
			<rect x="100.4" y="558.3" class="st15" width="3.1" height="1.9"/>
			<rect x="103.8" y="558.3" class="st15" width="3.1" height="1.9"/>
			<rect x="107.3" y="558.3" class="st15" width="3.1" height="1.9"/>
			<rect x="114.3" y="558.3" class="st15" width="3.1" height="1.9"/>
			<rect x="121.3" y="558.3" class="st15" width="3.1" height="1.9"/>
			<rect x="128.2" y="558.3" class="st15" width="3.1" height="1.9"/>
			<rect x="138.7" y="558.3" class="st15" width="3.1" height="1.9"/>
			<rect x="142.2" y="558.3" class="st15" width="3.1" height="1.9"/>
			<rect x="149.1" y="558.3" class="st15" width="3.1" height="1.9"/>
			<rect x="110.8" y="558.3" class="st15" width="3.1" height="1.9"/>
			<rect x="117.8" y="558.3" class="st15" width="3.1" height="1.9"/>
			<rect x="124.7" y="558.3" class="st15" width="3.1" height="1.9"/>
			<rect x="131.7" y="558.3" class="st15" width="3.1" height="1.9"/>
			<rect x="135.2" y="558.3" class="st15" width="3.1" height="1.9"/>
			<rect x="145.7" y="558.3" class="st15" width="3.1" height="1.9"/>
			<rect x="152.6" y="558.3" class="st15" width="3.1" height="1.9"/>
		</g>
		<g>
			
				<rect x="77.5" y="549.6" transform="matrix(6.123234e-17 -1 1 6.123234e-17 -471.4725 629.6528)" class="st15" width="3.1" height="1.9"/>
			
				<rect x="77.5" y="546.1" transform="matrix(6.123234e-17 -1 1 6.123234e-17 -467.9875 626.1678)" class="st15" width="3.1" height="1.9"/>
			
				<rect x="77.5" y="542.6" transform="matrix(6.123234e-17 -1 1 6.123234e-17 -464.5025 622.6827)" class="st15" width="3.1" height="1.9"/>
			
				<rect x="77.5" y="539.1" transform="matrix(6.123234e-17 -1 1 6.123234e-17 -461.0174 619.1977)" class="st15" width="3.1" height="1.9"/>
			
				<rect x="77.5" y="535.7" transform="matrix(6.123234e-17 -1 1 6.123234e-17 -457.5324 615.7126)" class="st15" width="3.1" height="1.9"/>
			
				<rect x="77.5" y="532.2" transform="matrix(6.123234e-17 -1 1 6.123234e-17 -454.0473 612.2276)" class="st15" width="3.1" height="1.9"/>
			
				<rect x="77.5" y="528.7" transform="matrix(6.123234e-17 -1 1 6.123234e-17 -450.5623 608.7426)" class="st15" width="3.1" height="1.9"/>
			
				<rect x="77.5" y="521.7" transform="matrix(6.123234e-17 -1 1 6.123234e-17 -443.5922 601.7725)" class="st15" width="3.1" height="1.9"/>
			
				<rect x="77.5" y="514.8" transform="matrix(6.123234e-17 -1 1 6.123234e-17 -436.6221 594.8024)" class="st15" width="3.1" height="1.9"/>
			
				<rect x="77.5" y="507.8" transform="matrix(6.123234e-17 -1 1 6.123234e-17 -429.652 587.8323)" class="st15" width="3.1" height="1.9"/>
			
				<rect x="77.5" y="497.3" transform="matrix(6.123234e-17 -1 1 6.123234e-17 -419.1969 577.3772)" class="st15" width="3.1" height="1.9"/>
			
				<rect x="77.5" y="493.8" transform="matrix(6.123234e-17 -1 1 6.123234e-17 -415.7119 573.8922)" class="st15" width="3.1" height="1.9"/>
			
				<rect x="77.5" y="486.9" transform="matrix(6.123234e-17 -1 1 6.123234e-17 -408.7418 566.9221)" class="st15" width="3.1" height="1.9"/>
			
				<rect x="77.5" y="525.2" transform="matrix(6.123234e-17 -1 1 6.123234e-17 -447.0772 605.2575)" class="st15" width="3.1" height="1.9"/>
			
				<rect x="77.5" y="518.2" transform="matrix(6.123234e-17 -1 1 6.123234e-17 -440.1071 598.2874)" class="st15" width="3.1" height="1.9"/>
			
				<rect x="77.5" y="511.3" transform="matrix(6.123234e-17 -1 1 6.123234e-17 -433.1371 591.3173)" class="st15" width="3.1" height="1.9"/>
			
				<rect x="77.5" y="504.3" transform="matrix(6.123234e-17 -1 1 6.123234e-17 -426.167 584.3473)" class="st15" width="3.1" height="1.9"/>
			
				<rect x="77.5" y="500.8" transform="matrix(6.123234e-17 -1 1 6.123234e-17 -422.6819 580.8622)" class="st15" width="3.1" height="1.9"/>
			
				<rect x="77.5" y="490.4" transform="matrix(6.123234e-17 -1 1 6.123234e-17 -412.2268 570.4071)" class="st15" width="3.1" height="1.9"/>
			
				<rect x="77.5" y="483.4" transform="matrix(6.123234e-17 -1 1 6.123234e-17 -405.2567 563.437)" class="st15" width="3.1" height="1.9"/>
		</g>
		<g>
			
				<rect x="161.1" y="549.6" transform="matrix(6.123234e-17 -1 1 6.123234e-17 -387.8826 713.2427)" class="st15" width="3.1" height="1.9"/>
			
				<rect x="161.1" y="546.1" transform="matrix(6.123234e-17 -1 1 6.123234e-17 -384.3976 709.7577)" class="st15" width="3.1" height="1.9"/>
			
				<rect x="161.1" y="542.6" transform="matrix(6.123234e-17 -1 1 6.123234e-17 -380.9125 706.2726)" class="st15" width="3.1" height="1.9"/>
			
				<rect x="161.1" y="539.1" transform="matrix(6.123234e-17 -1 1 6.123234e-17 -377.4275 702.7877)" class="st15" width="3.1" height="1.9"/>
			
				<rect x="161.1" y="535.7" transform="matrix(6.123234e-17 -1 1 6.123234e-17 -373.9424 699.3026)" class="st15" width="3.1" height="1.9"/>
			
				<rect x="161.1" y="532.2" transform="matrix(6.123234e-17 -1 1 6.123234e-17 -370.4574 695.8176)" class="st15" width="3.1" height="1.9"/>
			
				<rect x="161.1" y="528.7" transform="matrix(6.123234e-17 -1 1 6.123234e-17 -366.9724 692.3325)" class="st15" width="3.1" height="1.9"/>
			
				<rect x="161.1" y="521.7" transform="matrix(6.123234e-17 -1 1 6.123234e-17 -360.0023 685.3624)" class="st15" width="3.1" height="1.9"/>
			
				<rect x="161.1" y="514.8" transform="matrix(6.123234e-17 -1 1 6.123234e-17 -353.0322 678.3923)" class="st15" width="3.1" height="1.9"/>
			
				<rect x="161.1" y="507.8" transform="matrix(6.123234e-17 -1 1 6.123234e-17 -346.0621 671.4222)" class="st15" width="3.1" height="1.9"/>
			
				<rect x="161.1" y="497.3" transform="matrix(6.123234e-17 -1 1 6.123234e-17 -335.607 660.9671)" class="st15" width="3.1" height="1.9"/>
			
				<rect x="161.1" y="493.8" transform="matrix(6.123234e-17 -1 1 6.123234e-17 -332.1219 657.4821)" class="st15" width="3.1" height="1.9"/>
			
				<rect x="161.1" y="486.9" transform="matrix(6.123234e-17 -1 1 6.123234e-17 -325.1518 650.512)" class="st15" width="3.1" height="1.9"/>
			
				<rect x="161.1" y="525.2" transform="matrix(6.123234e-17 -1 1 6.123234e-17 -363.4873 688.8475)" class="st15" width="3.1" height="1.9"/>
			
				<rect x="161.1" y="518.2" transform="matrix(6.123234e-17 -1 1 6.123234e-17 -356.5172 681.8774)" class="st15" width="3.1" height="1.9"/>
			
				<rect x="161.1" y="511.3" transform="matrix(6.123234e-17 -1 1 6.123234e-17 -349.5471 674.9073)" class="st15" width="3.1" height="1.9"/>
			
				<rect x="161.1" y="504.3" transform="matrix(6.123234e-17 -1 1 6.123234e-17 -342.5771 667.9372)" class="st15" width="3.1" height="1.9"/>
			
				<rect x="161.1" y="500.8" transform="matrix(6.123234e-17 -1 1 6.123234e-17 -339.092 664.4521)" class="st15" width="3.1" height="1.9"/>
			
				<rect x="161.1" y="490.4" transform="matrix(6.123234e-17 -1 1 6.123234e-17 -328.6369 653.997)" class="st15" width="3.1" height="1.9"/>
			
				<rect x="161.1" y="483.4" transform="matrix(6.123234e-17 -1 1 6.123234e-17 -321.6668 647.0269)" class="st15" width="3.1" height="1.9"/>
		</g>
		<circle class="st21" cx="90.2" cy="487.8" r="2.8"/>
	</g>
	<rect x="187.1" y="442.4" class="st17" width="18.2" height="8.6"/>
	<rect x="189.1" y="451.1" class="st15" width="2.9" height="8.7"/>
	<rect x="200.9" y="451.1" class="st15" width="2.9" height="8.7"/>
	<rect x="194.8" y="433.8" class="st15" width="2.9" height="8.7"/>
	
		<rect x="170.5" y="480.5" transform="matrix(6.123234e-17 -1 1 6.123234e-17 -311.3297 656.5244)" class="st9" width="4.2" height="6.9"/>
	<rect x="189.5" y="511.6" class="st7" width="4.2" height="6.9"/>
	
		<rect x="172.3" y="530.8" transform="matrix(0.7071 -0.7071 0.7071 0.7071 -326.6786 279.8367)" class="st9" width="4.2" height="6.9"/>
	<g>
		<path class="st4" d="M157,593c-5.1,0-9.2,4.1-9.2,9.2s4.1,9.2,9.2,9.2s9.2-4.1,9.2-9.2S162.1,593,157,593z M157,607.9
			c-3.1,0-5.7-2.6-5.7-5.7s2.6-5.7,5.7-5.7c3.1,0,5.7,2.6,5.7,5.7S160.2,607.9,157,607.9z"/>
		<path class="st4" d="M118.7,593.4v17.7h17.7v-17.7H118.7z M127.6,607.9c-3.1,0-5.7-2.6-5.7-5.7s2.6-5.7,5.7-5.7
			c3.1,0,5.7,2.6,5.7,5.7S130.7,607.9,127.6,607.9z"/>
		<path class="st4" d="M186.8,593c-5.1,0-9.2,4.1-9.2,9.2s4.1,9.2,9.2,9.2s9.2-4.1,9.2-9.2S191.9,593,186.8,593z M186.8,607.9
			c-3.1,0-5.7-2.6-5.7-5.7s2.6-5.7,5.7-5.7c3.1,0,5.7,2.6,5.7,5.7S190,607.9,186.8,607.9z"/>
	</g>
	<path class="st4" d="M17.5,571.6H0.3v3.4c2.3,0.9,3.9,3.1,3.9,5.7s-1.6,4.8-3.9,5.7v3.4h17.2c5,0,9-4,9-9S22.4,571.6,17.5,571.6z
		 M15.9,586.7c-3.4,0-6.1-2.7-6.1-6.1s2.7-6.1,6.1-6.1s6.1,2.7,6.1,6.1S19.2,586.7,15.9,586.7z"/>
	<path class="st4" d="M17.5,542.2H0.3v3.4c2.3,0.9,3.9,3.1,3.9,5.7s-1.6,4.8-3.9,5.7v3.4h17.2c5,0,9-4,9-9v0
		C26.5,546.3,22.4,542.2,17.5,542.2z M15.9,557.3c-3.4,0-6.1-2.7-6.1-6.1s2.7-6.1,6.1-6.1s6.1,2.7,6.1,6.1S19.2,557.3,15.9,557.3z"
		/>
	<path class="st4" d="M17.5,512.8H0.3v3.4c2.3,0.9,3.9,3.1,3.9,5.7s-1.6,4.8-3.9,5.7v3.4h17.2c5,0,9-4,9-9v0
		C26.5,516.9,22.4,512.8,17.5,512.8z M15.9,528c-3.4,0-6.1-2.7-6.1-6.1s2.7-6.1,6.1-6.1s6.1,2.7,6.1,6.1S19.2,528,15.9,528z"/>
	<path class="st4" d="M17.5,483.4H0.3v3.4c2.3,0.9,3.9,3.1,3.9,5.7s-1.6,4.8-3.9,5.7v3.4h17.2c5,0,9-4,9-9S22.4,483.4,17.5,483.4z
		 M15.9,498.6c-3.4,0-6.1-2.7-6.1-6.1s2.7-6.1,6.1-6.1s6.1,2.7,6.1,6.1S19.2,498.6,15.9,498.6z"/>
	<path class="st4" d="M17.5,424.7H0.3v3.4c2.3,0.9,3.9,3.1,3.9,5.7s-1.6,4.8-3.9,5.7v3.4h17.2c5,0,9-4,9-9S22.4,424.7,17.5,424.7z
		 M15.9,439.8c-3.4,0-6.1-2.7-6.1-6.1s2.7-6.1,6.1-6.1s6.1,2.7,6.1,6.1S19.2,439.8,15.9,439.8z"/>
	<path class="st4" d="M17.5,395.3H0.3v3.4c2.3,0.9,3.9,3.1,3.9,5.7s-1.6,4.8-3.9,5.7v3.4h17.2c5,0,9-4,9-9S22.4,395.3,17.5,395.3z
		 M15.9,410.4c-3.4,0-6.1-2.7-6.1-6.1s2.7-6.1,6.1-6.1s6.1,2.7,6.1,6.1S19.2,410.4,15.9,410.4z"/>
	<path class="st4" d="M17.5,365.9H0.3v3.4c2.3,0.9,3.9,3.1,3.9,5.7s-1.6,4.8-3.9,5.7v3.4h17.2c5,0,9-4,9-9S22.4,365.9,17.5,365.9z
		 M15.9,381c-3.4,0-6.1-2.7-6.1-6.1s2.7-6.1,6.1-6.1s6.1,2.7,6.1,6.1S19.2,381,15.9,381z"/>
	<path class="st4" d="M17.5,336.5H0.3v3.4c2.3,0.9,3.9,3.1,3.9,5.7s-1.6,4.8-3.9,5.7v3.4h17.2c5,0,9-4,9-9S22.4,336.5,17.5,336.5z
		 M15.9,351.6c-3.4,0-6.1-2.7-6.1-6.1s2.7-6.1,6.1-6.1s6.1,2.7,6.1,6.1S19.2,351.6,15.9,351.6z"/>
	<path class="st4" d="M17.5,277.7H0.3v3.4c2.3,0.9,3.9,3.1,3.9,5.7s-1.6,4.8-3.9,5.7v3.4h17.2c5,0,9-4,9-9v0
		C26.5,281.7,22.4,277.7,17.5,277.7z M15.9,292.8c-3.4,0-6.1-2.7-6.1-6.1s2.7-6.1,6.1-6.1s6.1,2.7,6.1,6.1S19.2,292.8,15.9,292.8z"
		/>
	<path class="st4" d="M17.5,248.3H0.3v3.4c2.3,0.9,3.9,3.1,3.9,5.7s-1.6,4.8-3.9,5.7v3.4h17.2c5,0,9-4,9-9S22.4,248.3,17.5,248.3z
		 M15.9,263.4c-3.4,0-6.1-2.7-6.1-6.1s2.7-6.1,6.1-6.1s6.1,2.7,6.1,6.1S19.2,263.4,15.9,263.4z"/>
	<path class="st4" d="M17.5,718.6H0.3v3.4c2.3,0.9,3.9,3.1,3.9,5.7s-1.6,4.8-3.9,5.7v3.4h17.2c5,0,9-4,9-9S22.4,718.6,17.5,718.6z
		 M15.9,733.7c-3.4,0-6.1-2.7-6.1-6.1s2.7-6.1,6.1-6.1s6.1,2.7,6.1,6.1S19.2,733.7,15.9,733.7z"/>
	<path class="st4" d="M239.5,815.8c0-2.6,1.6-4.8,3.9-5.7v-3.4h-17.2c-5,0-9,4-9,9s4,9,9,9h17.2v-3.4
		C241.2,820.6,239.5,818.4,239.5,815.8z M227.8,821.9c-3.4,0-6.1-2.7-6.1-6.1s2.7-6.1,6.1-6.1s6.1,2.7,6.1,6.1
		S231.2,821.9,227.8,821.9z"/>
	<path class="st4" d="M239.5,727.6c0-2.6,1.6-4.8,3.9-5.7v-3.4h-17.2c-5,0-9,4-9,9s4,9,9,9h17.2v-3.4
		C241.2,732.4,239.5,730.2,239.5,727.6z M227.8,733.7c-3.4,0-6.1-2.7-6.1-6.1s2.7-6.1,6.1-6.1s6.1,2.7,6.1,6.1
		S231.2,733.7,227.8,733.7z"/>
	<path class="st4" d="M239.5,492.5c0-2.6,1.6-4.8,3.9-5.7v-3.4h-17.2c-5,0-9,4-9,9s4,9,9,9h17.2v-3.4
		C241.2,497.3,239.5,495.1,239.5,492.5z M227.8,498.6c-3.4,0-6.1-2.7-6.1-6.1s2.7-6.1,6.1-6.1s6.1,2.7,6.1,6.1
		S231.2,498.6,227.8,498.6z"/>
	
		<rect x="90" y="586.5" transform="matrix(6.123234e-17 -1 1 6.123234e-17 -495.1134 681.6965)" class="st12" width="6.7" height="3.7"/>
	<g>
		<path class="st22" d="M82.2,605.9H50.4c-1.2,0-2.2-1-2.2-2.2V580c0-1.2,1-2.2,2.2-2.2h31.8c1.2,0,2.2,1,2.2,2.2v23.7
			C84.4,604.9,83.4,605.9,82.2,605.9z"/>
		<path class="st23" d="M79.9,603.4H52.6c-0.8,0-1.4-0.6-1.4-1.4v-20.4c0-0.8,0.6-1.4,1.4-1.4h27.3c0.8,0,1.4,0.6,1.4,1.4V602
			C81.3,602.8,80.7,603.4,79.9,603.4z"/>
	</g>
	
		<rect x="90" y="606.5" transform="matrix(6.123234e-17 -1 1 6.123234e-17 -515.0477 701.6309)" class="st12" width="6.7" height="3.7"/>
	<rect x="100.1" y="590.7" class="st7" width="4.2" height="6.9"/>
	<g>
		<path class="st16" d="M42.3,410.8v-3.6c0-2.2,0.6-3.9,2.6-3.9c0.9,0,1.9,0.5,2.2,1.4h0.1c0.3-1.1,1.1-1.9,2.4-1.9
			c2.1,0,3.1,1.8,3.1,4.1v3.9H42.3z M46.4,407.3c0-1.1-0.5-1.5-1.2-1.5c-0.8,0-1.1,0.5-1.1,1.5v1.1h2.2V407.3z M50.8,407.1
			c0-1.2-0.4-1.8-1.3-1.8s-1.2,0.6-1.2,1.8v1.2h2.5V407.1z"/>
		<path class="st16" d="M47.4,401.6c-3.4,0-5.4-1.9-5.4-4.8s2-4.8,5.4-4.8c3.4,0,5.4,1.9,5.4,4.8S50.8,401.6,47.4,401.6z
			 M47.4,394.6c-2,0-3.2,0.8-3.2,2.2c0,1.4,1.2,2.2,3.2,2.2c2,0,3.3-0.9,3.3-2.2C50.7,395.4,49.4,394.6,47.4,394.6z"/>
		<path class="st16" d="M47.4,390.6c-3.4,0-5.4-1.9-5.4-4.8s2-4.8,5.4-4.8c3.4,0,5.4,1.9,5.4,4.8S50.8,390.6,47.4,390.6z
			 M47.4,383.6c-2,0-3.2,0.8-3.2,2.2c0,1.4,1.2,2.2,3.2,2.2c2,0,3.3-0.9,3.3-2.2C50.7,384.5,49.4,383.6,47.4,383.6z"/>
		<path class="st16" d="M44.3,377.6v2.8h-2.1v-8.1h2.1v2.8h8.3v2.5H44.3z"/>
		<path class="st16" d="M51.3,371.7l-1.6-1.3c0.6-0.7,1-1.7,1-2.6c0-0.9-0.4-1.4-0.9-1.4c-0.6,0-0.8,0.6-1.2,1.5l-0.6,1.3
			c-0.4,1.1-1.3,2.1-2.8,2.1c-1.7,0-3.2-1.6-3.2-3.8c0-1.2,0.5-2.5,1.3-3.4l1.6,1.3c-0.5,0.7-0.8,1.4-0.8,2.1c0,0.8,0.3,1.3,0.8,1.3
			c0.6,0,0.8-0.7,1.2-1.6l0.5-1.3c0.5-1.3,1.4-2.1,2.8-2.1c1.7,0,3.3,1.5,3.3,4C52.9,369.2,52.4,370.6,51.3,371.7z"/>
		<path class="st16" d="M42.3,362.1v-6.6h2.1v4.1h2v-3.5h2.1v3.5h2.2v-4.3h2.1v6.8H42.3z"/>
		<path class="st16" d="M42.3,353.3v-2.5h8.3v-4h2.1v6.5H42.3z"/>
	</g>
	<g>
		<path class="st16" d="M141.4,568h3c3.2,0,5.3,1.6,5.3,5.2c0,3.6-2.1,5.2-5.1,5.2h-3.1V568z M144.3,576.4c1.7,0,2.9-0.8,2.9-3.2
			c0-2.5-1.2-3.2-2.9-3.2h-0.4v6.4H144.3z"/>
		<path class="st16" d="M151.6,568h6.6v2.1h-4.1v2h3.5v2.1h-3.5v2.2h4.3v2.1h-6.8V568z"/>
		<path class="st16" d="M160.4,568h3.6c2.2,0,3.9,0.6,3.9,2.6c0,0.9-0.5,1.9-1.4,2.2v0.1c1.1,0.3,1.9,1.1,1.9,2.4
			c0,2.1-1.8,3.1-4.1,3.1h-3.9V568z M164,572.2c1.1,0,1.5-0.5,1.5-1.2c0-0.8-0.5-1.1-1.5-1.1h-1.1v2.2H164z M164.2,576.5
			c1.2,0,1.8-0.4,1.8-1.3c0-0.9-0.6-1.2-1.8-1.2h-1.2v2.5H164.2z"/>
		<path class="st16" d="M170.1,573.5V568h2.5v5.8c0,2,0.6,2.7,1.7,2.7c1.2,0,1.8-0.7,1.8-2.7V568h2.4v5.5c0,3.5-1.4,5.1-4.2,5.1
			S170.1,577.1,170.1,573.5z"/>
		<path class="st16" d="M180.3,573.3c0-3.5,2.3-5.5,5.1-5.5c1.5,0,2.6,0.6,3.3,1.4l-1.3,1.5c-0.5-0.5-1.1-0.7-1.9-0.7
			c-1.5,0-2.7,1.2-2.7,3.2c0,2.1,0.9,3.3,2.9,3.3c0.4,0,0.8-0.1,1-0.3v-1.7h-1.7v-2h3.9v4.9c-0.7,0.7-2,1.3-3.5,1.3
			C182.6,578.6,180.3,576.8,180.3,573.3z"/>
	</g>
	<rect x="114.2" y="589.4" class="st24" width="86.4" height="25.6"/>
	<g>
		<path class="st16" d="M40.1,303.8h2.5v8.3h4v2.1h-6.5V303.8z"/>
		<path class="st16" d="M48.4,303.8H55v2.1h-4.1v2h3.5v2.1h-3.5v2.2h4.3v2.1h-6.8V303.8z"/>
		<path class="st16" d="M57.2,303.8h3c3.2,0,5.3,1.6,5.3,5.2c0,3.6-2.1,5.2-5.1,5.2h-3.1V303.8z M60.1,312.2c1.7,0,2.9-0.8,2.9-3.2
			c0-2.5-1.2-3.2-2.9-3.2h-0.4v6.4H60.1z"/>
	</g>
	<g>
		<rect x="143.7" y="453.3" class="st8" width="5.4" height="10.6"/>
		<rect x="143.7" y="455.6" class="st9" width="5.4" height="6"/>
	</g>
	<g>
		<rect x="154.3" y="453.3" class="st8" width="5.4" height="10.6"/>
		<rect x="154.3" y="455.6" class="st9" width="5.4" height="6"/>
	</g>
	<rect x="127.1" y="454.5" class="st7" width="4.2" height="6.9"/>
	
		<rect x="68.6" y="459.6" transform="matrix(6.123234e-17 -1 1 6.123234e-17 -392.3381 533.8098)" class="st7" width="4.2" height="6.9"/>
	<rect x="120.5" y="454.5" class="st9" width="4.2" height="6.9"/>
	<rect x="110.4" y="454.5" class="st9" width="4.2" height="6.9"/>
	<path class="st4" d="M239.5,433.7c0-2.6,1.6-4.8,3.9-5.7v-3.4h-17.2c-5,0-9,4-9,9s4,9,9,9h17.2v-3.4
		C241.2,438.5,239.5,436.3,239.5,433.7z M227.8,439.8c-3.4,0-6.1-2.7-6.1-6.1s2.7-6.1,6.1-6.1s6.1,2.7,6.1,6.1
		S231.2,439.8,227.8,439.8z"/>
	<g>
		
			<rect x="169.4" y="425.8" transform="matrix(-1.836970e-16 1 -1 -1.836970e-16 603.9258 253.1628)" class="st8" width="11.9" height="5.6"/>
		
			<rect x="172.1" y="425.8" transform="matrix(-1.836970e-16 1 -1 -1.836970e-16 603.9258 253.1628)" class="st10" width="6.6" height="5.6"/>
	</g>
</g>
<sodipodi:namedview  bordercolor="#666666" borderopacity="1" gridtolerance="10" guidetolerance="10" id="namedview107" inkscape:current-layer="Ebene_1" inkscape:cx="231.14355" inkscape:cy="416.80881" inkscape:pageopacity="0" inkscape:pageshadow="2" inkscape:window-height="1017" inkscape:window-maximized="1" inkscape:window-width="1920" inkscape:window-x="-8" inkscape:window-y="-8" inkscape:zoom="0.28310342" objecttolerance="10" pagecolor="#ffffff" showgrid="false">
	</sodipodi:namedview>
<circle id="circle281" class="st25" cx="232.1" cy="316.2" r="11.6"/>
<circle id="circle281-2" class="st26" cx="232.1" cy="374.9" r="11.6"/>
<circle id="circle281-3" class="st27" cx="11.6" cy="786.5" r="11.6"/>
<rect id="rect7" x="232.1" y="311.6" class="st25" width="174.8" height="9.1"/>
<rect id="rect9" x="232.1" y="370.3" class="st26" width="144" height="9.1"/>
<rect id="rect853" x="11.6" y="782" class="st28" width="333.5" height="9.1"/>
<g id="layer1">
	<rect id="rect815" x="282.8" y="29" class="st29" width="178.7" height="238"/>
	<rect id="rect821" x="325.1" y="227.8" class="st16" width="93" height="32"/>
	<path id="rect825" class="st30" d="M331.2,229.7h18.6c3.3,0,5.9,2.6,5.9,5.9v16.3c0,3.3-2.6,5.9-5.9,5.9h-18.6
		c-3.3,0-5.9-2.6-5.9-5.9v-16.3C325.3,232.3,327.9,229.7,331.2,229.7z"/>
	<path id="rect872" class="st30" d="M393.3,229.7h18.6c3.3,0,5.9,2.6,5.9,5.9v16.3c0,3.3-2.6,5.9-5.9,5.9h-18.6
		c-3.3,0-5.9-2.6-5.9-5.9v-16.3C387.4,232.3,390,229.7,393.3,229.7z"/>
	<path id="rect874" class="st30" d="M361.5,229.7h20.2c2.8,0,5.1,2.3,5.1,5.1v17.9c0,2.8-2.3,5.1-5.1,5.1h-20.2
		c-2.8,0-5.1-2.3-5.1-5.1v-17.9C356.3,231.9,358.6,229.7,361.5,229.7z"/>
	<rect id="rect947" x="338.8" y="245" class="st31" width="3.4" height="58.7"/>
	<rect id="rect949" x="370" y="245" class="st31" width="3.4" height="58.7"/>
	<rect id="rect951" x="400.9" y="245" class="st31" width="3.4" height="58.7"/>
	<rect id="rect87" x="308" y="193.6" class="st16" width="124.9" height="31.7"/>
	<path id="path31-1" class="st16" d="M333.6,46.8c1.1,0,1.2,0,1.4-0.2c0.1-0.1,0.3-0.2,0.4-0.3c0.1-0.2,0.1-0.3,0.1-2.6l0-2.4l2.4,0
		l2.4,0v3c0,3.3,0,3.6-0.4,4.5c-0.4,1.1-1.3,1.8-2.5,2c-0.7,0.1-1.4,0.1-2.2,0.1c-0.9,0-2,0-2.3-0.1l-0.6-0.1l0-1.9l0-1.9
		L333.6,46.8L333.6,46.8z M356.1,53.4c20.1,0,25.1,0,24.3,0.1l-0.1,0l0.1,0.1c0.1,0,0.1,0.1-0.1,0.1c-0.1,0-0.1,0,0.2,0.1l0.4,0
		l-0.4,0c-0.2,0-0.4,0-0.3,0c0.1,0,0.1,0.1,0.1,0.6c0,0.5,0,0.5,0.2,0.6c0.1,0,0.1,0-0.1,0c-0.2,0-0.3,0-0.3,0.1c0,0-8,0.1-23.8,0.1
		h-23.8v-1.7L356.1,53.4z M338,35.1h2.4V39h-4.8v-3.9H338z M342.8,42.2c0.1-1,0.5-2,0.9-2.9c0.1-0.2,0.2-0.4,0.3-0.6
		c0.1-0.1,0.2-0.2,0.3-0.4c0.3-0.4,0.6-0.8,0.9-1.2c0,0,0.1-0.1,0.1-0.1c0.3-0.4,0.7-0.7,1.1-1c0.5-0.4,1.1-0.7,1.8-0.9
		c0.9-0.4,1.9-0.5,2.9-0.4c0.6,0,1.1,0.1,1.7,0.2c0.4,0.1,0.8,0.2,1,0.3c0.1,0.1,0.2,0.1,0.4,0.1c0.2,0.1,0.4,0.2,0.6,0.3
		c1.4,0.9,2.5,2.2,3.3,3.7c0.9,1.9,1.1,4.1,0.3,6c-0.2,0.6-0.5,1.3-0.9,1.8c-0.4,0.6-0.9,1.2-1.4,1.7c-0.9,1-2.1,1.7-3.4,2
		c-1,0.2-2,0.3-3,0.2c-1.2-0.2-2.3-0.7-3.2-1.4c-0.4-0.3-0.7-0.6-1-0.9c-0.1-0.1-0.2-0.3-0.3-0.4c-1-1.1-1.7-2.5-2.1-4
		C342.8,43.8,342.7,43,342.8,42.2L342.8,42.2z M347.3,44.2c0.2,0.9,0.7,1.7,1.4,2.3c0.8,0.7,1.8,0.9,2.8,0.6c1.3-0.5,2.2-1.6,2.5-3
		c0.2-0.9,0.2-1.8,0-2.7c-0.3-1-0.8-1.9-1.7-2.5c-0.3-0.2-0.6-0.4-0.9-0.4c-0.7-0.2-1.5-0.1-2.2,0.2c-0.7,0.4-1.2,1-1.5,1.7
		C347.1,41.8,347,43,347.3,44.2L347.3,44.2z M360.7,35.1c0,0,1.1,0,2.4,0l2.3,0l0,2.1c0,2,0,2.1,0.1,2.5c0.4,0.9,1.4,1.4,2.4,1.1
		c0.5-0.1,0.9-0.5,1.1-0.9l0.2-0.4l0-2.2l0-2.2h4.8l0,2.5c0.1,1,0,2-0.2,3c-0.2,0.9-0.7,1.7-1.2,2.5c-0.1,0.1-0.2,0.2-0.2,0.4
		c-0.3,0.4-0.7,0.7-1.1,1c-0.4,0.3-0.9,0.6-1.4,0.7c-0.1,0-0.4,0.1-0.7,0.2c-0.6,0.2-1.1,0.2-1.7,0.2c-0.6,0.1-1.2,0-1.8-0.2
		c-0.7-0.1-1.3-0.4-1.9-0.8c-0.7-0.5-1.3-1.1-1.8-1.8c-0.6-0.9-1-1.9-1.2-3C360.6,38.2,360.6,36.7,360.7,35.1L360.7,35.1z
		 M367.3,46.8h3.9v4h-7.8v-4H367.3z M374,32c0,0,0.1-0.1,0.1-0.2c0-0.2,0-0.2,0.3-0.3c0.2,0,6.8,0,14.6,0l14.3,0l0,0.9l0,0.9h-14.6
		c-8,0-14.6,0-14.7,0c-0.1,0-0.1-0.1-0.1-0.6C373.9,32.3,373.9,32,374,32L374,32z M380.5,41.6h5v3.9h-9.9v-3.9L380.5,41.6z
		 M389.4,35.1h2.4V39H387v-3.9L389.4,35.1z M389.4,41h2.4v10H387V41L389.4,41z M398.9,35.1h5V39h-10v-3.9L398.9,35.1z M394.7,41.3
		c0,0,1.1,0,2.3,0l2.3,0l0,2.3c0,3.2-0.1,3,2.3,3.1l1.5,0v4l-0.6,0.1c-1.4,0.1-2.9,0.1-4.3,0c-1-0.1-1.9-0.5-2.6-1.3
		c-0.6-0.7-0.9-1.6-1-2.5C394.7,46.3,394.6,41.3,394.7,41.3L394.7,41.3z M406.7,33.2c0.1-0.4,0.3-0.8,0.6-1.1c0.9-0.9,2.4-1,3.4-0.3
		c0.4,0.2,0.7,0.6,0.8,1c0.2,0.3,0.2,0.7,0.2,1c0,0.4,0,0.7-0.2,1.1c-0.4,0.8-1.2,1.4-2.2,1.5c-0.8,0.1-1.6-0.2-2.1-0.8
		C406.7,35,406.4,34,406.7,33.2L406.7,33.2z M407.1,34.8c0.3,0.6,0.9,1,1.6,1.2c0.7,0.2,1.5,0,2-0.5c0.2-0.2,0.4-0.4,0.5-0.6
		c0.2-0.3,0.2-0.6,0.2-1c0-0.3,0-0.7-0.2-1c-0.1-0.3-0.3-0.5-0.6-0.7c-0.2-0.2-0.5-0.3-0.7-0.4c-1.1-0.3-2.3,0.2-2.8,1.3
		C406.9,33.7,406.9,34.3,407.1,34.8L407.1,34.8z M408.9,32.4c0.3,0,0.7,0,1,0.1c0.4,0.3,0.5,0.8,0.3,1.2c-0.1,0.1-0.2,0.2-0.4,0.2
		l-0.2,0.1l0.2,0.2c0.2,0.2,0.3,0.4,0.4,0.6c0.1,0.1,0.2,0.3,0.3,0.4c0.1,0.1,0,0.2-0.2,0.2l-0.3,0l-0.4-0.6c-0.4-0.6-0.5-0.7-1-0.7
		h-0.3v1.3l-0.2,0l-0.2,0l0-1.5l0-1.5L408.9,32.4z M409,33.6c0.5,0,0.6,0,0.7-0.1c0.4-0.3,0.2-0.7-0.4-0.8c-0.3,0-0.6,0-0.9,0
		c0,0.1,0,0.3,0,0.4v0.4L409,33.6z"/>
	<circle id="path84" class="st32" cx="308.6" cy="61.1" r="17.8"/>
	<circle id="circle86" class="st32" cx="435.5" cy="61.1" r="17.8"/>
	<circle id="path88" class="st33" cx="308.6" cy="61.1" r="15.9"/>
	<circle id="circle90" class="st33" cx="435.5" cy="61.1" r="15.9"/>
	<rect id="rect176" x="309" y="194.6" class="st34" width="123" height="29.7"/>
	<rect id="rect162" x="401.4" y="195.7" class="st32" width="30.1" height="27.8"/>
	<circle id="path164" class="st32" cx="323.8" cy="209.6" r="14.9"/>
	<circle id="circle166" class="st32" cx="354.7" cy="209.6" r="14.9"/>
	<circle id="circle168" class="st32" cx="385.5" cy="209.6" r="14.9"/>
	<path id="path146" class="st31" d="M415.2,169.4l3.1,0l0,39.6l-3.1,0L415.2,169.4z"/>
	<path id="path144" class="st31" d="M384,169.4l3.1,0l0,39.6l-3.1,0L384,169.4z"/>
	<path id="path142" class="st31" d="M353.1,169.4l3.1,0l0,39.6l-3.1,0L353.1,169.4z"/>
	<path id="path138" class="st31" d="M322.2,169.4l3.1,0l0,39.6l-3.1,0L322.2,169.4z"/>
	<rect id="rect174" x="304.9" y="0" class="st35" width="130.9" height="193.5"/>
	<rect id="rect201" x="304.9" y="162.5" class="st36" width="19.8" height="19.8"/>
	<rect id="rect249" x="415.7" y="162.5" class="st36" width="19.8" height="19.8"/>
	<rect id="rect251" x="332.2" y="162.5" class="st36" width="19.8" height="19.8"/>
	<rect id="rect255" x="388.8" y="162.5" class="st36" width="19.8" height="19.8"/>
	<rect id="rect257" x="360.7" y="162.5" class="st36" width="19.8" height="19.8"/>
	<rect id="rect263" x="332.2" y="129.1" class="st34" width="19.8" height="19.8"/>
	<rect id="rect265" x="388.8" y="129.1" class="st34" width="19.8" height="19.8"/>
	<rect id="rect267" x="360.7" y="129.1" class="st34" width="19.8" height="19.8"/>
	<rect id="rect269" x="304.9" y="97" class="st36" width="19.8" height="19.8"/>
	<rect id="rect271" x="416.1" y="97" class="st36" width="19.8" height="19.8"/>
	<rect id="rect273" x="332.2" y="97" class="st34" width="19.8" height="19.8"/>
	<rect id="rect275" x="388.8" y="97" class="st34" width="19.8" height="19.8"/>
	<rect id="rect277" x="360.7" y="97" class="st34" width="19.8" height="19.8"/>
	<rect id="rect279" x="304.9" y="64.7" class="st36" width="19.8" height="19.8"/>
	<rect id="rect281" x="415.9" y="64.7" class="st36" width="19.8" height="19.8"/>
	<rect id="rect283" x="332.2" y="64.7" class="st34" width="19.8" height="19.8"/>
	<rect id="rect285" x="388.8" y="64.7" class="st34" width="19.8" height="19.8"/>
	<rect id="rect287" x="360.7" y="64.7" class="st34" width="19.8" height="19.8"/>
	<rect id="rect293" x="332.2" y="32.3" class="st34" width="19.8" height="19.8"/>
	<rect id="rect295" x="388.8" y="32.3" class="st34" width="19.8" height="19.8"/>
	<rect id="rect297" x="360.7" y="32.3" class="st34" width="19.8" height="19.8"/>
	<rect id="rect303" x="332.2" y="0.4" class="st36" width="19.8" height="19.8"/>
	<rect id="rect305" x="388.8" y="0.4" class="st36" width="19.8" height="19.8"/>
	<rect id="rect307" x="360.7" y="0.4" class="st36" width="19.8" height="19.8"/>
	<rect id="rect309" x="427.9" y="0.2" class="st35" width="7.9" height="193.5"/>
	<rect id="rect311" x="304.9" y="0.2" class="st35" width="7.9" height="193.5"/>
	<rect id="rect313" x="304.9" y="0.2" class="st35" width="131" height="7.9"/>
	<rect id="rect315" x="315.4" y="11.2" class="st31" width="109.9" height="167.4"/>
	<rect id="rect346" x="324.8" y="6.7" class="st35" width="7.3" height="175.6"/>
	<rect id="rect348" x="352" y="2.1" class="st35" width="8.7" height="180.2"/>
	<rect id="rect350" x="380.5" y="0.4" class="st35" width="8.3" height="181.9"/>
	<rect id="rect352" x="408.6" y="0.4" class="st35" width="7" height="181.9"/>
	<rect id="rect356" x="304.9" y="84.5" class="st35" width="130.9" height="12.5"/>
	<rect id="rect360" x="310.3" y="20.3" class="st35" width="124.2" height="12.1"/>
	<rect id="rect362" x="304.9" y="116.8" class="st35" width="131.1" height="12.3"/>
	<rect id="rect364" x="305.8" y="148.9" class="st35" width="129.5" height="13.5"/>
	<rect id="rect366" x="304.9" y="52.2" class="st35" width="130.9" height="12.5"/>
	<rect id="rect368" x="308.6" y="123.6" class="st35" width="19.2" height="30"/>
	<rect id="rect370" x="415.7" y="124.5" class="st35" width="14.4" height="31.8"/>
	<rect id="rect372" x="413.6" y="8.1" class="st35" width="22.3" height="47.7"/>
	<rect id="rect374" x="304.9" y="8.1" class="st35" width="27.6" height="47"/>
	<g id="text118">
		<g class="st37">
			<path class="st16" d="M441.9,91.2c-0.1,0-0.1,0-0.2,0c-0.1,0-0.1-0.1-0.1-0.2c0-0.1-0.1-0.2-0.1-0.3s0-0.3,0-0.5
				c0-0.3,0-0.5,0-0.7s0.1-0.3,0.1-0.4c0.1-0.1,0.1-0.2,0.2-0.2l8-5.9h-8c-0.1,0-0.1,0-0.2,0c-0.1,0-0.1-0.1-0.1-0.2
				c0-0.1-0.1-0.2-0.1-0.3s0-0.3,0-0.5c0-0.2,0-0.4,0-0.5c0-0.1,0-0.2,0.1-0.3c0-0.1,0.1-0.1,0.1-0.2c0.1,0,0.1,0,0.2,0h15.3
				c0.1,0,0.1,0,0.2,0c0,0,0.1,0.1,0.1,0.2c0,0.1,0.1,0.2,0.1,0.3c0,0.1,0,0.3,0,0.5c0,0.2,0,0.4,0,0.5s0,0.2-0.1,0.3
				c0,0.1-0.1,0.1-0.1,0.2s-0.1,0-0.2,0h-7.1l7.1,5.6c0.1,0,0.1,0.1,0.2,0.2c0,0.1,0.1,0.1,0.1,0.2c0,0.1,0.1,0.2,0.1,0.3
				s0,0.3,0,0.5c0,0.2,0,0.4,0,0.5c0,0.1,0,0.2-0.1,0.3s-0.1,0.1-0.1,0.2c0,0-0.1,0-0.2,0c-0.1,0-0.2,0-0.3-0.1
				c-0.1-0.1-0.3-0.2-0.4-0.3l-6.3-5.3l-7.6,5.7c-0.2,0.1-0.4,0.2-0.4,0.3C442,91.2,441.9,91.2,441.9,91.2z"/>
		</g>
		<g class="st37">
			<path class="st16" d="M447.7,98.9h-5.9c-0.1,0-0.1,0-0.2,0s-0.1-0.1-0.1-0.2c0-0.1-0.1-0.2-0.1-0.3s0-0.3,0-0.5
				c0-0.2,0-0.4,0-0.5c0-0.1,0-0.2,0.1-0.3c0-0.1,0.1-0.1,0.1-0.2s0.1,0,0.2,0h5.9l9-4.5c0.2-0.1,0.3-0.1,0.4-0.2
				c0.1,0,0.2,0,0.2,0.1c0.1,0.1,0.1,0.2,0.1,0.3c0,0.2,0,0.4,0,0.6c0,0.2,0,0.4,0,0.6s0,0.3-0.1,0.4c0,0.1-0.1,0.2-0.1,0.2
				c-0.1,0-0.1,0.1-0.2,0.1l-4.6,2.2c-0.4,0.2-0.9,0.4-1.4,0.6c-0.5,0.2-1,0.4-1.4,0.6v0c0.5,0.2,0.9,0.4,1.4,0.6
				c0.5,0.2,0.9,0.4,1.4,0.6l4.6,2.2c0.1,0,0.2,0.1,0.2,0.1c0.1,0,0.1,0.1,0.1,0.2c0,0.1,0.1,0.2,0.1,0.3c0,0.1,0,0.3,0,0.5
				c0,0.3,0,0.5,0,0.7c0,0.2-0.1,0.3-0.1,0.4s-0.1,0.1-0.2,0.1c-0.1,0-0.3-0.1-0.4-0.2L447.7,98.9z"/>
		</g>
		<g class="st37">
			<path class="st16" d="M447.7,109.5c-0.3,0-0.5,0-0.7-0.1c-0.1-0.1-0.2-0.2-0.2-0.3v-5.1c0-0.1,0.1-0.3,0.2-0.3
				c0.1-0.1,0.3-0.1,0.7-0.1s0.5,0,0.7,0.1c0.1,0.1,0.2,0.2,0.2,0.3v5.1c0,0.1,0,0.1,0,0.2s-0.1,0.1-0.1,0.1s-0.2,0.1-0.3,0.1
				S447.9,109.5,447.7,109.5z"/>
			<path class="st16" d="M449.5,122.2c-1.2,0-2.3-0.1-3.3-0.3c-1-0.2-1.9-0.5-2.6-1s-1.3-1-1.7-1.8c-0.4-0.7-0.6-1.6-0.6-2.7
				c0-1,0.2-1.8,0.5-2.5c0.4-0.7,0.9-1.2,1.6-1.7c0.7-0.4,1.5-0.7,2.6-0.9c1-0.2,2.2-0.3,3.5-0.3c1.2,0,2.3,0.1,3.3,0.3
				c1,0.2,1.9,0.5,2.6,1c0.7,0.4,1.3,1,1.7,1.7c0.4,0.7,0.6,1.6,0.6,2.7c0,1-0.2,1.9-0.5,2.5c-0.4,0.7-0.9,1.2-1.6,1.7
				c-0.7,0.4-1.5,0.7-2.6,0.9S450.8,122.2,449.5,122.2z M449.4,120c0.8,0,1.5,0,2.1-0.1s1.2-0.1,1.7-0.3c0.5-0.1,0.9-0.3,1.2-0.4
				c0.3-0.2,0.6-0.4,0.9-0.6c0.2-0.2,0.4-0.5,0.5-0.8s0.2-0.7,0.2-1.1c0-0.7-0.2-1.3-0.5-1.7c-0.3-0.4-0.8-0.8-1.4-1
				c-0.6-0.2-1.2-0.4-2-0.5c-0.8-0.1-1.6-0.1-2.5-0.1c-1.2,0-2.2,0.1-3,0.2c-0.8,0.1-1.5,0.3-2,0.6c-0.5,0.3-0.9,0.6-1.1,1
				c-0.2,0.4-0.4,0.9-0.4,1.5c0,0.5,0.1,0.9,0.2,1.2c0.1,0.3,0.4,0.6,0.6,0.9c0.3,0.2,0.6,0.5,1,0.6s0.8,0.3,1.3,0.4
				c0.5,0.1,1,0.2,1.5,0.2S448.8,120,449.4,120z"/>
			<path class="st16" d="M442.4,134.5c-0.2,0-0.3,0-0.4,0c-0.1,0-0.2-0.1-0.3-0.1s-0.1-0.1-0.1-0.1c0-0.1,0-0.1,0-0.2v-8.3
				c0-0.1,0-0.1,0-0.2c0,0,0.1-0.1,0.1-0.1s0.2-0.1,0.3-0.1s0.2,0,0.4,0c0.1,0,0.3,0,0.4,0c0.1,0,0.2,0.1,0.3,0.1
				c0.1,0,0.1,0.1,0.2,0.1c0,0.1,0.1,0.1,0.1,0.2v3.3h12.1l-1.8-3.1c-0.1-0.2-0.1-0.3-0.1-0.4c0-0.1,0-0.2,0.1-0.2s0.1-0.1,0.3-0.1
				c0.1,0,0.3,0,0.5,0c0.1,0,0.3,0,0.4,0c0.1,0,0.2,0,0.2,0.1c0.1,0,0.1,0.1,0.2,0.1c0,0,0.1,0.1,0.1,0.2l2.3,3.7c0,0,0,0.1,0.1,0.1
				c0,0,0,0.1,0,0.2c0,0.1,0,0.2,0,0.3s0,0.2,0,0.4c0,0.2,0,0.4,0,0.5c0,0.1,0,0.2-0.1,0.3c0,0.1-0.1,0.1-0.1,0.1c0,0-0.1,0-0.1,0
				h-14v2.9c0,0.1,0,0.1-0.1,0.2c0,0.1-0.1,0.1-0.2,0.1c-0.1,0-0.2,0.1-0.3,0.1C442.6,134.5,442.5,134.5,442.4,134.5z"/>
			<path class="st16" d="M446.6,147.1c-0.9,0-1.6-0.1-2.3-0.4s-1.2-0.7-1.7-1.2c-0.5-0.5-0.8-1.2-1-1.9s-0.4-1.5-0.4-2.4
				c0-0.5,0-1,0.1-1.4c0.1-0.4,0.2-0.8,0.3-1.2c0.1-0.3,0.2-0.6,0.3-0.8c0.1-0.2,0.2-0.4,0.2-0.4s0.1-0.1,0.2-0.1c0,0,0.1,0,0.2-0.1
				c0.1,0,0.2,0,0.3,0c0.1,0,0.2,0,0.4,0c0.1,0,0.3,0,0.4,0c0.1,0,0.2,0,0.3,0.1c0.1,0,0.1,0.1,0.2,0.1c0,0,0,0.1,0,0.2
				c0,0.1-0.1,0.2-0.2,0.4c-0.1,0.2-0.2,0.4-0.3,0.7c-0.1,0.3-0.2,0.7-0.3,1.1c-0.1,0.4-0.2,0.9-0.2,1.5c0,0.5,0.1,1.1,0.2,1.5
				c0.1,0.5,0.3,0.9,0.6,1.2c0.3,0.3,0.6,0.6,1.1,0.8c0.4,0.2,0.9,0.3,1.5,0.3c0.5,0,1-0.1,1.3-0.2c0.4-0.2,0.7-0.4,1-0.7
				c0.3-0.3,0.5-0.8,0.6-1.3c0.1-0.5,0.2-1.1,0.2-1.8c0-0.5,0-0.9-0.1-1.3c0-0.4-0.1-0.7-0.1-1c0-0.2,0.1-0.4,0.2-0.5
				s0.3-0.1,0.6-0.1h6.5c0.3,0,0.5,0.1,0.6,0.2c0.1,0.1,0.2,0.3,0.2,0.5v7c0,0.1,0,0.1-0.1,0.2s-0.1,0.1-0.2,0.2s-0.2,0.1-0.3,0.1
				c-0.1,0-0.2,0-0.4,0c-0.3,0-0.5,0-0.7-0.1c-0.2-0.1-0.2-0.2-0.2-0.3V140h-4.5c0,0.3,0.1,0.6,0.1,0.8c0,0.3,0,0.6,0,1
				c0,0.9-0.1,1.6-0.3,2.3c-0.2,0.7-0.5,1.2-0.9,1.6c-0.4,0.4-0.9,0.8-1.4,1C448,147,447.3,147.1,446.6,147.1z"/>
		</g>
	</g>
	<g id="text122">
		<g class="st37">
			<path class="st16" d="M449.9,171.1c-1.4,0-2.6-0.2-3.6-0.5c-1-0.4-1.9-0.9-2.6-1.5c-0.7-0.7-1.2-1.5-1.5-2.5
				c-0.3-1-0.5-2.2-0.5-3.5v-3.4c0-0.2,0.1-0.4,0.2-0.5s0.4-0.3,0.7-0.3h14.2c0.3,0,0.5,0.1,0.7,0.3s0.2,0.3,0.2,0.5v3.6
				c0,1.4-0.2,2.5-0.5,3.5c-0.4,1-0.9,1.7-1.5,2.4c-0.7,0.6-1.5,1.1-2.4,1.5S451.1,171.1,449.9,171.1z M449.8,168.9
				c0.9,0,1.7-0.1,2.4-0.3c0.7-0.2,1.4-0.5,1.9-1s1-1,1.3-1.7c0.3-0.7,0.5-1.6,0.5-2.7V161h-12.4v2.2c0,1,0.1,1.9,0.4,2.6
				c0.3,0.7,0.6,1.3,1.2,1.7s1.2,0.8,2,1.1S448.8,168.9,449.8,168.9z"/>
			<path class="st16" d="M442.1,185.8c-0.1,0-0.1,0-0.2,0c0,0-0.1-0.1-0.1-0.2c0-0.1-0.1-0.2-0.1-0.3c0-0.1,0-0.3,0-0.5
				c0-0.2,0-0.4,0-0.5s0-0.2,0.1-0.3c0-0.1,0.1-0.1,0.1-0.2c0,0,0.1,0,0.2,0h7.1v-7.2h-7.1c-0.1,0-0.1,0-0.2,0c0,0-0.1-0.1-0.1-0.2
				c0-0.1-0.1-0.2-0.1-0.3c0-0.1,0-0.3,0-0.5c0-0.2,0-0.4,0-0.5c0-0.1,0-0.3,0.1-0.3c0-0.1,0.1-0.1,0.1-0.2c0,0,0.1,0,0.2,0h15.3
				c0.1,0,0.1,0,0.2,0c0,0,0.1,0.1,0.1,0.2c0,0.1,0.1,0.2,0.1,0.3c0,0.1,0,0.3,0,0.5c0,0.2,0,0.4,0,0.5c0,0.1,0,0.2-0.1,0.3
				c0,0.1-0.1,0.1-0.1,0.2c0,0-0.1,0-0.2,0H451v7.2h6.4c0.1,0,0.1,0,0.2,0c0,0,0.1,0.1,0.1,0.2c0,0.1,0.1,0.2,0.1,0.3s0,0.3,0,0.5
				c0,0.2,0,0.4,0,0.5c0,0.1,0,0.2-0.1,0.3c0,0.1-0.1,0.1-0.1,0.2c0,0-0.1,0-0.2,0H442.1z"/>
		</g>
		<g class="st37">
			<path class="st16" d="M456.7,200c-0.2,0-0.3,0-0.4,0c-0.1,0-0.2,0-0.3-0.1c-0.1,0-0.1-0.1-0.2-0.1c0-0.1,0-0.1,0-0.2v-4.5h-13.8
				c-0.1,0-0.1,0-0.2,0c0,0-0.1-0.1-0.1-0.2c0-0.1-0.1-0.2-0.1-0.3c0-0.1,0-0.3,0-0.5c0-0.2,0-0.4,0-0.5c0-0.1,0-0.3,0.1-0.3
				c0-0.1,0.1-0.1,0.1-0.2s0.1,0,0.2,0h13.8v-4.5c0-0.1,0-0.1,0-0.2c0-0.1,0.1-0.1,0.2-0.1c0.1,0,0.2-0.1,0.3-0.1c0.1,0,0.2,0,0.4,0
				s0.3,0,0.4,0c0.1,0,0.2,0,0.3,0.1c0.1,0,0.1,0.1,0.2,0.1c0,0.1,0,0.1,0,0.2v11.1c0,0.1,0,0.1,0,0.2c0,0.1-0.1,0.1-0.2,0.1
				c-0.1,0-0.2,0.1-0.3,0.1C457,200,456.9,200,456.7,200z"/>
		</g>
		<g class="st37">
			<path class="st16" d="M447.9,205.1c-0.3,0-0.5,0-0.7-0.1c-0.1-0.1-0.2-0.2-0.2-0.3v-5.1c0-0.1,0.1-0.3,0.2-0.3
				c0.1-0.1,0.3-0.1,0.7-0.1s0.5,0,0.7,0.1c0.1,0.1,0.2,0.2,0.2,0.3v5.1c0,0.1,0,0.1,0,0.2s-0.1,0.1-0.1,0.1s-0.2,0.1-0.3,0.1
				S448.1,205.1,447.9,205.1z"/>
			<path class="st16" d="M442.6,217.4c-0.2,0-0.3,0-0.4,0c-0.1,0-0.2-0.1-0.3-0.1s-0.1-0.1-0.1-0.1c0-0.1,0-0.1,0-0.2v-8.3
				c0-0.1,0-0.1,0-0.2c0,0,0.1-0.1,0.1-0.1c0.1,0,0.2-0.1,0.3-0.1c0.1,0,0.2,0,0.4,0c0.1,0,0.3,0,0.4,0c0.1,0,0.2,0.1,0.3,0.1
				c0.1,0,0.1,0.1,0.2,0.1c0,0.1,0.1,0.1,0.1,0.2v3.3h12.1l-1.8-3.1c-0.1-0.2-0.1-0.3-0.1-0.4c0-0.1,0-0.2,0.1-0.2
				c0.1-0.1,0.1-0.1,0.3-0.1s0.3,0,0.5,0c0.1,0,0.3,0,0.4,0c0.1,0,0.2,0,0.2,0.1c0.1,0,0.1,0.1,0.2,0.1c0,0,0.1,0.1,0.1,0.2l2.3,3.7
				c0,0,0,0.1,0.1,0.1c0,0,0,0.1,0,0.2c0,0.1,0,0.2,0,0.3c0,0.1,0,0.2,0,0.4c0,0.2,0,0.4,0,0.5c0,0.1,0,0.2-0.1,0.3
				c0,0.1-0.1,0.1-0.1,0.1c0,0-0.1,0-0.1,0h-14v2.9c0,0.1,0,0.1-0.1,0.2s-0.1,0.1-0.2,0.1c-0.1,0-0.2,0.1-0.3,0.1
				C442.8,217.4,442.7,217.4,442.6,217.4z"/>
			<path class="st16" d="M442.6,230.1c-0.2,0-0.3,0-0.4,0c-0.1,0-0.2-0.1-0.3-0.1s-0.1-0.1-0.1-0.1c0-0.1,0-0.1,0-0.2v-8.3
				c0-0.1,0-0.1,0-0.2c0,0,0.1-0.1,0.1-0.1s0.2-0.1,0.3-0.1s0.2,0,0.4,0c0.1,0,0.3,0,0.4,0c0.1,0,0.2,0.1,0.3,0.1
				c0.1,0,0.1,0.1,0.2,0.1c0,0.1,0.1,0.1,0.1,0.2v3.3h12.1l-1.8-3.1c-0.1-0.2-0.1-0.3-0.1-0.4c0-0.1,0-0.2,0.1-0.2s0.1-0.1,0.3-0.1
				c0.1,0,0.3,0,0.5,0c0.1,0,0.3,0,0.4,0c0.1,0,0.2,0,0.2,0.1c0.1,0,0.1,0.1,0.2,0.1c0,0,0.1,0.1,0.1,0.2l2.3,3.7c0,0,0,0.1,0.1,0.1
				c0,0,0,0.1,0,0.2c0,0.1,0,0.2,0,0.3s0,0.2,0,0.4c0,0.2,0,0.4,0,0.5c0,0.1,0,0.2-0.1,0.3c0,0.1-0.1,0.1-0.1,0.1c0,0-0.1,0-0.1,0
				h-14v2.9c0,0.1,0,0.1-0.1,0.2c0,0.1-0.1,0.1-0.2,0.1c-0.1,0-0.2,0.1-0.3,0.1C442.8,230.1,442.7,230.1,442.6,230.1z"/>
		</g>
	</g>
	<g id="text126">
		<g class="st37">
			<path class="st16" d="M317.3,247.5c0,0.7-0.1,1.4-0.4,2c-0.3,0.6-0.7,1.1-1.1,1.5c-0.5,0.4-1.1,0.7-1.7,0.9
				c-0.7,0.2-1.4,0.3-2.1,0.3c-0.5,0-1,0-1.5-0.1c-0.5-0.1-0.9-0.2-1.2-0.3s-0.7-0.3-0.9-0.4c-0.2-0.1-0.4-0.3-0.5-0.4
				c-0.1-0.1-0.2-0.2-0.2-0.4s-0.1-0.4-0.1-0.6c0-0.2,0-0.3,0-0.4s0-0.2,0.1-0.3c0-0.1,0.1-0.1,0.1-0.2c0,0,0.1,0,0.2,0
				c0.1,0,0.3,0.1,0.5,0.2c0.2,0.1,0.5,0.3,0.8,0.5s0.7,0.3,1.2,0.5s1,0.2,1.6,0.2c0.5,0,0.9-0.1,1.3-0.2c0.4-0.1,0.7-0.3,1-0.5
				c0.3-0.2,0.5-0.5,0.6-0.8s0.2-0.7,0.2-1.1c0-0.5-0.1-0.8-0.3-1.2c-0.2-0.3-0.5-0.6-0.8-0.8s-0.7-0.5-1.2-0.7
				c-0.4-0.2-0.9-0.4-1.3-0.6c-0.5-0.2-0.9-0.4-1.3-0.7c-0.4-0.3-0.8-0.6-1.1-0.9c-0.3-0.3-0.6-0.7-0.8-1.2c-0.2-0.5-0.3-1-0.3-1.7
				c0-0.7,0.1-1.3,0.4-1.8c0.2-0.5,0.6-1,1-1.3c0.4-0.4,0.9-0.6,1.5-0.8c0.6-0.2,1.2-0.3,1.9-0.3c0.4,0,0.7,0,1.1,0.1s0.7,0.1,1,0.2
				c0.3,0.1,0.6,0.2,0.8,0.3s0.4,0.2,0.5,0.3c0.1,0.1,0.1,0.1,0.2,0.2c0,0,0,0.1,0.1,0.2s0,0.2,0,0.3c0,0.1,0,0.2,0,0.4
				c0,0.1,0,0.3,0,0.4c0,0.1,0,0.2-0.1,0.3c0,0.1-0.1,0.1-0.1,0.2c0,0-0.1,0.1-0.2,0.1c-0.1,0-0.2-0.1-0.4-0.2
				c-0.2-0.1-0.4-0.2-0.7-0.4c-0.3-0.1-0.6-0.3-1-0.4c-0.4-0.1-0.8-0.2-1.3-0.2c-0.4,0-0.8,0.1-1.2,0.2c-0.3,0.1-0.6,0.3-0.8,0.5
				s-0.4,0.4-0.5,0.7s-0.2,0.6-0.2,0.9c0,0.4,0.1,0.8,0.3,1.1s0.5,0.6,0.8,0.8c0.3,0.2,0.7,0.5,1.2,0.7s0.9,0.4,1.3,0.6
				c0.5,0.2,0.9,0.4,1.3,0.7s0.8,0.5,1.2,0.9c0.3,0.3,0.6,0.7,0.8,1.2S317.3,246.9,317.3,247.5z"/>
		</g>
	</g>
	<g id="text130">
		<g class="st37">
			<path class="st16" d="M440.9,243.8c0,0.3-0.1,0.5-0.3,0.7c-0.2,0.1-0.5,0.2-0.8,0.2h-13.6c-0.4,0-0.7-0.1-0.9-0.2
				c-0.2-0.1-0.3-0.3-0.3-0.7s0.1-0.5,0.3-0.7c0.2-0.1,0.5-0.2,0.9-0.2h13.6c0.2,0,0.3,0,0.5,0c0.1,0,0.3,0.1,0.4,0.1
				c0.1,0.1,0.2,0.2,0.2,0.3C440.9,243.6,440.9,243.7,440.9,243.8z"/>
		</g>
	</g>
</g>
<circle id="circle281-4" class="st25" cx="402.6" cy="271.4" r="11.6"/>
<circle id="circle281-5" class="st26" cx="371.6" cy="271.8" r="11.6"/>
<circle id="circle281-6" class="st27" cx="340.5" cy="271.4" r="11.6"/>
<rect id="rect101" x="397.8" y="271.8" class="st25" width="9.1" height="48.9"/>
<rect id="rect103" x="367" y="271.8" class="st26" width="9.1" height="107.7"/>
<rect id="rect853-2" x="335.9" y="271.8" class="st28" width="9.1" height="519.3"/>
</svg>
