<?xml version="1.0" encoding="UTF-8"?>
<svg xmlns="http://www.w3.org/2000/svg" version="1.1" xmlns:cc="http://creativecommons.org/ns#" xmlns:dc="http://purl.org/dc/elements/1.1/" xmlns:inkscape="http://www.inkscape.org/namespaces/inkscape" xmlns:rdf="http://www.w3.org/1999/02/22-rdf-syntax-ns#" xmlns:sodipodi="http://sodipodi.sourceforge.net/DTD/sodipodi-0.dtd" xmlns:svg="http://www.w3.org/2000/svg" viewBox="0 0 860.3 994.6">
  <defs>
    <style>
      .cls-1 {
        fill: #29abe2;
      }

      .cls-2 {
        fill: #2c2c2c;
      }

      .cls-3 {
        fill: #49c9c9;
      }

      .cls-4 {
        stroke: gray;
      }

      .cls-4, .cls-5, .cls-6, .cls-7 {
        stroke-width: 3px;
      }

      .cls-4, .cls-5, .cls-6, .cls-7, .cls-8 {
        fill: none;
        stroke-miterlimit: 10;
      }

      .cls-9, .cls-10 {
        fill: #fff;
      }

      .cls-11 {
        fill: #493930;
      }

      .cls-12 {
        fill: #be8839;
      }

      .cls-13 {
        fill: #dbded7;
      }

      .cls-14 {
        fill: #914f00;
      }

      .cls-15 {
        fill: #9a2442;
      }

      .cls-16 {
        fill: #303030;
      }

      .cls-17 {
        fill: #f53200;
      }

      .cls-5 {
        stroke: #754c24;
      }

      .cls-18 {
        fill: #47494a;
      }

      .cls-19 {
        fill: #655a50;
      }

      .cls-20 {
        fill: #e30613;
      }

      .cls-21 {
        fill: #474949;
      }

      .cls-22, .cls-23, .cls-24, .cls-25, .cls-10, .cls-26, .cls-27 {
        isolation: isolate;
      }

      .cls-28 {
        fill: #fcf7fd;
      }

      .cls-29 {
        fill: #ada390;
      }

      .cls-30 {
        fill: #686868;
      }

      .cls-31 {
        fill: #e3ad51;
      }

      .cls-23 {
        fill: #b3b3b3;
      }

      .cls-23, .cls-24, .cls-25, .cls-10, .cls-26, .cls-27 {
        opacity: 1;
      }

      .cls-32 {
        fill: #ddd;
      }

      .cls-33 {
        fill: #1a1a1a;
      }

      .cls-24 {
        fill: #f2f2f2;
      }

      .cls-34 {
        fill: #c4b3a8;
      }

      .cls-35 {
        fill: #a3928b;
      }

      .cls-36 {
        fill: #36323e;
      }

      .cls-6 {
        stroke: #000;
      }

      .cls-37 {
        fill: green;
      }

      .cls-25 {
        fill: gray;
      }

      .cls-38 {
        fill: #eaeaea;
      }

      .cls-39 {
        fill: #1a1919;
      }

      .cls-40 {
        fill: #e3b37d;
      }

      .cls-41 {
        fill: #010103;
      }

      .cls-7 {
        stroke: red;
      }

      .cls-26 {
        fill: #ccc;
      }

      .cls-42 {
        fill: #f5b93e;
      }

      .cls-43 {
        fill: #e0dcd3;
      }

      .cls-8 {
        stroke: #493930;
      }

      .cls-44 {
        fill: #bcb3ad;
      }
    </style>
  </defs>
  <!-- Generator: Adobe Illustrator 28.6.0, SVG Export Plug-In . SVG Version: 1.2.0 Build 709)  -->
  <g>
    <g id="svg8" inkscape:export-xdpi="93" inkscape:export-ydpi="93">
      <g>
        <path class="cls-39" d="M589.9,228.3H7.2c-4,0-7.3,3.2-7.3,7.3v719c0,4,3.2,7.3,7.3,7.3h17.6l34.2,34.2h365.2s34.1-34.2,34.1-34.2h131.6c4,0,7.3-3.2,7.3-7.3V235.6c0-4-3.2-7.3-7.3-7.3ZM28.1,402.7c-10,0-18.1-8.1-18.1-18.1s8.1-18.1,18.1-18.1,18.1,8.1,18.1,18.1-8.1,18.1-18.1,18.1ZM88.1,984.6c-10,0-18.1-8.1-18.1-18.1s8.1-18.1,18.1-18.1,18.1,8.1,18.1,18.1-8.1,18.1-18.1,18.1ZM401.2,984.6c-10,0-18.1-8.1-18.1-18.1s8.1-18.1,18.1-18.1,18.1,8.1,18.1,18.1-8.1,18.1-18.1,18.1ZM569.4,414.1c-10,0-18.1-8.1-18.1-18.1s8.1-18.1,18.1-18.1,18.1,8.1,18.1,18.1-8.1,18.1-18.1,18.1Z"/>
        <rect class="cls-16" x="55.8" y="195" width="101.7" height="143.5"/>
        <path class="cls-16" d="M64.8,338.5h83.7v9.1c0,3.9-3.2,7.1-7.1,7.1h-69.4c-3.9,0-7.1-3.2-7.1-7.1v-9.1h0Z"/>
        <path class="cls-32" d="M571.3,267h-21.4v-4.6c0-.8-.6-1.4-1.4-1.4h-20.6c-.8,0-1.4.6-1.4,1.4v4.6h-21.4c-1,0-1.7.8-1.7,1.7v65.1c0,1,.8,1.7,1.7,1.7h66.3c1,0,1.7-.8,1.7-1.7v-65.1c0-1-.8-1.7-1.7-1.7Z"/>
        <circle class="cls-15" cx="538.2" cy="298.3" r="19.2"/>
        <g>
          <circle class="cls-32" cx="148.5" cy="447" r="35.2"/>
          <path class="cls-41" d="M129.5,422.4c-8.1,5.1-13.5,14.2-13.5,24.5s5.4,19.4,13.5,24.5v-49.1Z"/>
        </g>
        <g>
          <circle class="cls-32" cx="174" cy="545.9" r="35.2"/>
          <path class="cls-41" d="M166.7,515.8c-9.5,1.4-18.1,7.5-22.3,16.9s-2.9,19.9,2.4,27.9l19.9-44.9Z"/>
        </g>
        <rect class="cls-40" x="278.5" y="308.8" width="9.8" height="21.5"/>
        <rect class="cls-40" x="362.2" y="352.5" width="9.8" height="21.5"/>
        <rect class="cls-40" x="451.4" y="426.6" width="9.8" height="21.5" transform="translate(893.7 -19) rotate(90)"/>
        <rect class="cls-40" x="451.4" y="367.1" width="9.8" height="21.5" transform="translate(834.2 -78.5) rotate(90)"/>
        <rect class="cls-40" x="327" y="455.5" width="9.8" height="21.5"/>
        <rect class="cls-42" x="396.5" y="552.9" width="9.8" height="21.5"/>
        <rect class="cls-40" x="423.4" y="552.9" width="9.8" height="21.5"/>
        <rect class="cls-40" x="449.7" y="552.9" width="9.8" height="21.5"/>
        <rect class="cls-40" x="329.8" y="840.5" width="9.8" height="21.5" transform="translate(-516.5 1185.9) rotate(-90)"/>
        <rect class="cls-42" x="387.2" y="858.7" width="9.8" height="21.5"/>
        <rect class="cls-21" x="302.5" y="352.5" width="31.5" height="14.6" rx="1.5" ry="1.5"/>
        <g>
          <path class="cls-43" d="M305.1,340h12.2v11.5h-12.2c-.7,0-1.2-.6-1.2-1.2v-9c0-.7.6-1.2,1.2-1.2Z" transform="translate(656.3 35.2) rotate(90)"/>
          <path class="cls-43" d="M320.4,340h12.2v11.5h-12.2c-.7,0-1.2-.6-1.2-1.2v-9c0-.7.6-1.2,1.2-1.2Z" transform="translate(671.6 19.9) rotate(90)"/>
        </g>
        <g>
          <rect class="cls-13" x="423" y="525.8" width="10.7" height="17.2"/>
          <rect class="cls-21" x="423" y="528.3" width="10.7" height="11.8"/>
        </g>
        <g>
          <rect class="cls-13" x="449.3" y="525.8" width="10.7" height="17.2"/>
          <rect class="cls-21" x="449.3" y="528.3" width="10.7" height="11.8"/>
        </g>
        <g>
          <rect class="cls-13" x="309" y="492.4" width="10.7" height="17.2" transform="translate(-186.6 815.3) rotate(-90)"/>
          <rect class="cls-21" x="308.8" y="495.1" width="10.7" height="11.8" transform="translate(-186.8 815.2) rotate(-90)"/>
        </g>
        <g>
          <rect class="cls-13" x="253.9" y="492.4" width="10.7" height="17.2" transform="translate(-241.7 760.3) rotate(-90)"/>
          <rect class="cls-21" x="253.8" y="495.1" width="10.7" height="11.8" transform="translate(-241.9 760.1) rotate(-90)"/>
        </g>
        <g>
          <rect class="cls-13" x="387.2" y="828.4" width="10.7" height="17.2"/>
          <rect class="cls-21" x="387.2" y="830.9" width="10.7" height="11.8"/>
        </g>
        <g>
          <rect class="cls-13" x="329.4" y="862.6" width="10.7" height="17.2" transform="translate(-536.5 1205.9) rotate(-90)"/>
          <rect class="cls-21" x="329.2" y="865.3" width="10.7" height="11.8" transform="translate(-536.7 1205.8) rotate(-90)"/>
        </g>
        <g>
          <rect class="cls-13" x="477.8" y="275.6" width="10.7" height="17.2"/>
          <rect class="cls-21" x="477.8" y="278.2" width="10.7" height="11.8"/>
        </g>
        <g>
          <rect class="cls-13" x="338.3" y="276.7" width="10.7" height="17.2"/>
          <rect class="cls-21" x="338.3" y="279.2" width="10.7" height="11.8"/>
        </g>
        <rect class="cls-35" x="441.8" y="389.9" width="12.2" height="32.8" rx="3.7" ry="3.7"/>
        <g>
          <rect class="cls-31" x="369.8" y="641" width="22.3" height="17.8" rx="2.9" ry="2.9" transform="translate(-348 459.7) rotate(-45)"/>
          <rect class="cls-34" x="370.7" y="641.7" width="20.5" height="16.4" rx="2.9" ry="2.9" transform="translate(-348 459.7) rotate(-45)"/>
        </g>
        <rect class="cls-44" x="374.7" y="616.9" width="12.2" height="11"/>
        <rect class="cls-44" x="394.3" y="616.9" width="12.2" height="11"/>
        <rect class="cls-44" x="374.7" y="669.8" width="12.2" height="11"/>
        <rect class="cls-44" x="394.3" y="669.8" width="12.2" height="11"/>
        <rect class="cls-17" x="326.1" y="893.1" width="20.8" height="11" rx="2.8" ry="2.8"/>
        <g>
          <path class="cls-9" d="M31.1,263.2v-4.5h2.1v7.1h-1.5c-2.9-2.4-4.8-2.7-8.9-2.8v-2.5c3.4.2,5.6.7,8.3,2.7Z"/>
          <path class="cls-9" d="M27.7,267.2v4h-1.7v-4h1.7Z"/>
          <path class="cls-9" d="M24.7,273v2.2h5.9v-1.9h1.5c.2,1.1.5,1.8.9,2.6v1.8h-8.4v1.9h-2v-6.6h2Z"/>
          <path class="cls-9" d="M24.3,281c2.3,2.7,4.2,4.4,5.6,4.4s1.5-.5,1.5-1.4-.5-1.3-1-1.8l1.3-1.3c1.1,1,1.7,1.9,1.7,3.4s-1.3,3.4-3.3,3.4-3.8-1.7-5.4-3.3c0,.5.1,1.2.1,1.7v2.1h-2.1v-7.2h1.5Z"/>
          <path class="cls-9" d="M33.2,288.8v2.6l-4.8,1.1c-1.1.3-2.2.5-3.3.8h0c1.1.4,2.2.6,3.3.9l4.8,1.2v2.5l-10.4-3.2v-3l10.4-3.1Z"/>
          <path class="cls-9" d="M33.2,302.3v2.5h-10.4v-2.5h10.4Z"/>
          <path class="cls-9" d="M33.2,307.2v2.6l-5,2.6c-.7.4-1.5.7-2.4,1h0c1.1,0,2.6-.3,3.8-.3h3.5v2.4h-10.4v-2.6l5-2.6c.7-.4,1.5-.7,2.4-1h0c-1.2,0-2.6.3-3.8.3h-3.5v-2.4h10.4Z"/>
          <path class="cls-9" d="M33.2,317.8v3.7c0,2.3-.8,4.2-3.4,4.2s-3.6-1.9-3.6-4.1v-1.2h-3.5v-2.5h10.4ZM28.2,321.4c0,1.2.6,1.8,1.6,1.8s1.4-.7,1.4-1.9v-1h-3v1.1Z"/>
          <path class="cls-9" d="M27.6,327.4h5.5v2.5h-5.8c-2,0-2.7.6-2.7,1.7s.7,1.8,2.7,1.8h5.8v2.4h-5.5c-3.5,0-5.1-1.4-5.1-4.2s1.6-4.2,5.1-4.2Z"/>
          <path class="cls-9" d="M31.1,340.1v-2.8h2.1v8.1h-2.1v-2.8h-8.3v-2.5h8.3Z"/>
        </g>
        <g>
          <path class="cls-9" d="M588.5,276.8v3.8c0,2.2-.8,4.1-3.3,4.1s-2.5-.7-3-1.8l-4.1,2.3v-2.8l3.7-1.9v-1.2h-3.7v-2.5h10.4ZM583.7,280.4c0,1.2.5,1.8,1.5,1.8s1.3-.6,1.3-1.8v-1.1h-2.8v1.1Z"/>
          <path class="cls-9" d="M588.5,286.7v6.6h-2.1v-4.1h-2v3.5h-2.1v-3.5h-2.2v4.3h-2.1v-6.8h10.4Z"/>
          <path class="cls-9" d="M579.4,294.8l1.6,1.3c-.6.7-1,1.7-1,2.6s.4,1.4.9,1.4.8-.6,1.2-1.5l.6-1.3c.4-1.1,1.3-2.1,2.8-2.1s3.2,1.6,3.2,3.8-.5,2.5-1.3,3.4l-1.6-1.3c.5-.7.8-1.4.8-2.1s-.3-1.3-.8-1.3-.8.7-1.2,1.6l-.5,1.3c-.5,1.3-1.4,2.1-2.8,2.1s-3.3-1.5-3.3-4,.5-2.8,1.5-3.9Z"/>
          <path class="cls-9" d="M588.5,304.4v6.6h-2.1v-4.1h-2v3.5h-2.1v-3.5h-2.2v4.3h-2.1v-6.8h10.4Z"/>
          <path class="cls-9" d="M586.4,315.2v-2.8h2.1v8.1h-2.1v-2.8h-8.3v-2.5h8.3Z"/>
        </g>
        <g>
          <path class="cls-9" d="M371.6,937.5v2.5h-10.4v-2.5h10.4Z"/>
          <path class="cls-9" d="M366.3,941.9c3.5,0,5.5,2.3,5.5,5s-.6,2.4-1.4,3.2l-1.5-1.3c.5-.5.7-1.1.7-1.8,0-1.4-1.2-2.5-3.2-2.5s-3.3,1-3.3,2.4.3,1.5.9,2l-1.5,1.3c-1-.9-1.5-2.1-1.5-3.4,0-2.7,1.8-4.9,5.3-4.9Z"/>
          <path class="cls-9" d="M362.5,950.6l1.6,1.3c-.6.7-1,1.7-1,2.6s.4,1.4.9,1.4.8-.6,1.2-1.5l.6-1.3c.4-1.1,1.3-2.1,2.8-2.1s3.2,1.6,3.2,3.8-.5,2.5-1.3,3.4l-1.6-1.3c.5-.7.8-1.4.8-2.1s-.3-1.3-.8-1.3-.8.7-1.2,1.6l-.5,1.3c-.5,1.3-1.4,2.1-2.8,2.1s-3.3-1.5-3.3-4,.5-2.8,1.5-3.9Z"/>
          <path class="cls-9" d="M371.6,960.2v3.7c0,2.3-.8,4.2-3.4,4.2s-3.6-1.9-3.6-4.1v-1.2h-3.5v-2.5h10.4ZM366.6,963.8c0,1.2.6,1.8,1.6,1.8s1.4-.7,1.4-1.9v-1h-3v1.1Z"/>
        </g>
        <path class="cls-9" d="M388.6,889.4c-1.2,1-2,2.5-2,4.2,0,3,2.5,5.5,5.5,5.5s5.5-2.5,5.5-5.5-.8-3.2-2-4.2c-.4-.4-.5-1-.1-1.4s1-.5,1.4-.1c1.6,1.4,2.7,3.5,2.7,5.8,0,4.1-3.4,7.5-7.5,7.5s-7.5-3.4-7.5-7.5,1.1-4.4,2.7-5.8c.4-.4,1.1-.3,1.4.1.4.4.3,1.1-.1,1.4h0ZM393.1,893.6c0,.6-.4,1-1,1s-1-.4-1-1v-7c0-.6.4-1,1-1s1,.4,1,1v7Z"/>
        <polyline class="cls-8" points="35.9 420.8 42.6 420.8 105.2 483.4 116 483.4"/>
        <polyline class="cls-8" points="35.7 428.9 42.6 428.9 102.7 489.1 102.7 620.8 159.5 677.5 212.2 677.5 224.4 665.1 263.4 665.1"/>
        <polyline class="cls-8" points="33.2 456.4 44.6 456.4 86.7 498.5 86.7 621.5 156.6 691.4 268.3 691.4"/>
        <polyline class="cls-8" points="22.8 541.9 61.8 580.9 61.8 644.8 33.1 673.5"/>
        <line class="cls-11" x1="75.9" y1="623.6" x2="151.8" y2="699.5"/>
        <polyline class="cls-8" points="131.2 691 88.5 733.7 24.4 733.7"/>
        <polyline class="cls-8" points="131.2 701.6 91.2 741.6 25.9 741.6"/>
        <polyline class="cls-8" points="267.2 700.1 234.7 700.1 159.1 775.7 78.6 775.7 55.9 798.4 31.1 798.4"/>
        <polyline class="cls-8" points="249.3 709.1 249.3 755.5 179.5 825.3 30.4 825.3"/>
        <polyline class="cls-8" points="264.7 729.1 264.7 765.4 176.1 853.9 31.1 853.9"/>
        <polyline class="cls-8" points="273.5 728.9 273.5 768.1 158.7 882.9 24.4 882.9"/>
        <polyline class="cls-8" points="282.4 729.8 282.4 775.4 147.3 910.5 30.4 910.5"/>
        <polyline class="cls-8" points="291 733.8 291 783.2 134.6 939.6 30.4 939.6"/>
        <line class="cls-11" x1="328.6" y1="818.7" x2="292" y2="782.1"/>
        <polyline class="cls-8" points="331 835 305.8 809.8 280 809.8"/>
        <polyline class="cls-8" points="344.3 842.8 344.3 784.1 299.6 739.4 299.6 720"/>
        <polyline class="cls-8" points="278.3 957.6 262 941.3 262 876.6 287.3 851.3"/>
        <polyline class="cls-8" points="308.1 728.4 308.1 739.2 361.6 792.8 401.4 792.8 506.7 898.1 506.7 927.2 518.5 939 563.6 939"/>
        <polyline class="cls-8" points="317 729.5 317 740.3 359.3 782.7 421.3 782.7 568.5 929.9"/>
        <polyline class="cls-8" points="327 729 367.8 769.8 433.4 769.8 573.8 910.3"/>
        <polyline class="cls-8" points="345.6 708.4 400.1 708.4 571.1 879.4"/>
        <polyline class="cls-8" points="347 700.1 407.2 700.1 573.4 866.3"/>
        <polyline class="cls-8" points="495.9 719.9 489 712.9 443 712.9"/>
        <polyline class="cls-8" points="347 656.5 358.1 656.5 366.9 665.3 377.6 665.3"/>
        <polyline class="cls-8" points="346.8 647.5 356.7 647.5 367.3 637 380.5 637"/>
        <polyline class="cls-8" points="325.3 624 341.7 607.6 411.6 607.6 566.7 762.6"/>
        <polyline class="cls-8" points="316.8 625.8 316.8 621.2 336.3 601.7 414.6 601.7 574.9 762.1"/>
        <polyline class="cls-8" points="308.1 625.7 308.1 617.3 328.4 597.1 418.4 597.1 574.7 753.5"/>
        <polyline class="cls-8" points="299.6 624.2 299.6 616 323.3 592.2 418.7 592.2 576.2 749.7"/>
        <polyline class="cls-8" points="290.9 623.7 290.9 611.7 315.9 586.8 419.9 586.8 580.4 747.2"/>
        <polyline class="cls-8" points="282.1 625.3 282.1 603.6 303.3 583.5 424.9 583.5 480 638.6 580.4 638.6"/>
        <polyline class="cls-8" points="273.4 623.5 273.4 600.2 297.1 578.3 426.7 578.3 458 609.6 579 609.6"/>
        <polyline class="cls-8" points="264.7 623 264.7 599 286.7 577 290.1 573.6"/>
        <polyline class="cls-8" points="221.1 641.1 221.1 612 289.4 543.7 315.3 543.7 322.3 550.7 372.1 550.7 399.5 523.3 426.6 523.3"/>
        <polyline class="cls-8" points="210.1 538.2 314.2 538.2 335 517.4 354.2 517.4"/>
        <polyline class="cls-8" points="286.5 467.6 286.5 478.4 277.5 487.4 260.1 487.4 247.5 474.7 247.5 465.5 247.5 440.4"/>
        <polyline class="cls-8" points="226.7 409.7 226.7 401.4 232.2 395.9 249.2 395.9"/>
        <polyline class="cls-8" points="191 387.4 237.3 387.4 257.8 366.8 257.8 345"/>
        <polyline class="cls-8" points="319.1 373.9 332.9 373.9 341.5 365.2 341.5 332.7 313.5 304.7 297.8 304.7 275.9 282.7"/>
        <polyline class="cls-8" points="285.8 279.2 299.6 293 311.2 293"/>
        <polyline class="cls-8" points="323.1 276.7 323.1 296.9 344.3 318.1 379.8 318.1 384.5 313.4 384.5 284.3"/>
        <path class="cls-8" d="M402.4,394.2v-48.4"/>
        <path class="cls-8" d="M418,345.8v22"/>
        <polyline class="cls-8" points="415.5 401.5 427.9 401.5 439.9 389.5"/>
        <polyline class="cls-8" points="415.4 415.2 428.3 415.2 440.4 427.3"/>
        <line class="cls-8" x1="415.9" y1="456.4" x2="439.5" y2="456.4"/>
        <line class="cls-8" x1="413.7" y1="470.4" x2="441.8" y2="470.4"/>
        <polyline class="cls-8" points="415.4 483.8 426.6 483.8 441.8 483.8"/>
        <line class="cls-8" x1="562.8" y1="346.7" x2="530.3" y2="379.2"/>
        <g>
          <rect class="cls-21" x="257.1" y="640.2" width="76" height="76" rx="5.9" ry="5.9"/>
          <circle class="cls-2" cx="322.2" cy="704.3" r="4.8"/>
          <g>
            <path class="cls-43" d="M240.2,644.8h16.9v5.9h-16.9c-.7,0-1.2-.6-1.2-1.2v-3.4c0-.7.6-1.2,1.2-1.2Z"/>
            <path class="cls-43" d="M240.2,653.5h16.9v5.9h-16.9c-.7,0-1.2-.6-1.2-1.2v-3.4c0-.7.6-1.2,1.2-1.2Z"/>
            <path class="cls-43" d="M240.2,662.2h16.9v5.9h-16.9c-.7,0-1.2-.6-1.2-1.2v-3.4c0-.7.6-1.2,1.2-1.2Z"/>
            <path class="cls-43" d="M240.2,670.9h16.9v5.9h-16.9c-.7,0-1.2-.6-1.2-1.2v-3.4c0-.7.6-1.2,1.2-1.2Z"/>
            <path class="cls-43" d="M240.2,679.6h16.9v5.9h-16.9c-.7,0-1.2-.6-1.2-1.2v-3.4c0-.7.6-1.2,1.2-1.2Z"/>
            <path class="cls-43" d="M240.2,688.3h16.9v5.9h-16.9c-.7,0-1.2-.6-1.2-1.2v-3.4c0-.7.6-1.2,1.2-1.2Z"/>
            <path class="cls-43" d="M240.2,697h16.9v5.9h-16.9c-.7,0-1.2-.6-1.2-1.2v-3.4c0-.7.6-1.2,1.2-1.2Z"/>
            <path class="cls-43" d="M240.2,705.7h16.9v5.9h-16.9c-.7,0-1.2-.6-1.2-1.2v-3.4c0-.7.6-1.2,1.2-1.2Z"/>
          </g>
          <g>
            <path class="cls-43" d="M317.7,628.2h16.9v5.9h-16.9c-.7,0-1.2-.6-1.2-1.2v-3.4c0-.7.6-1.2,1.2-1.2Z" transform="translate(956.7 305.6) rotate(90)"/>
            <path class="cls-43" d="M309,628.2h16.9v5.9h-16.9c-.7,0-1.2-.6-1.2-1.2v-3.4c0-.7.6-1.2,1.2-1.2Z" transform="translate(948 314.3) rotate(90)"/>
            <path class="cls-43" d="M300.3,628.2h16.9v5.9h-16.9c-.7,0-1.2-.6-1.2-1.2v-3.4c0-.7.6-1.2,1.2-1.2Z" transform="translate(939.3 323) rotate(90)"/>
            <path class="cls-43" d="M291.6,628.2h16.9v5.9h-16.9c-.7,0-1.2-.6-1.2-1.2v-3.4c0-.7.6-1.2,1.2-1.2Z" transform="translate(930.6 331.7) rotate(90)"/>
            <path class="cls-43" d="M282.9,628.2h16.9v5.9h-16.9c-.7,0-1.2-.6-1.2-1.2v-3.4c0-.7.6-1.2,1.2-1.2Z" transform="translate(921.9 340.4) rotate(90)"/>
            <path class="cls-43" d="M274.2,628.2h16.9v5.9h-16.9c-.7,0-1.2-.6-1.2-1.2v-3.4c0-.7.6-1.2,1.2-1.2Z" transform="translate(913.2 349.1) rotate(90)"/>
            <path class="cls-43" d="M265.5,628.2h16.9v5.9h-16.9c-.7,0-1.2-.6-1.2-1.2v-3.4c0-.7.6-1.2,1.2-1.2Z" transform="translate(904.5 357.8) rotate(90)"/>
            <path class="cls-43" d="M256.8,628.2h16.9v5.9h-16.9c-.7,0-1.2-.6-1.2-1.2v-3.4c0-.7.6-1.2,1.2-1.2Z" transform="translate(895.8 366.5) rotate(90)"/>
          </g>
          <g>
            <path class="cls-43" d="M256.8,722.3h16.9v5.9h-16.9c-.7,0-1.2-.6-1.2-1.2v-3.4c0-.7.6-1.2,1.2-1.2Z" transform="translate(-460.6 989.9) rotate(-90)"/>
            <path class="cls-43" d="M265.5,722.3h16.9v5.9h-16.9c-.7,0-1.2-.6-1.2-1.2v-3.4c0-.7.6-1.2,1.2-1.2Z" transform="translate(-451.9 998.6) rotate(-90)"/>
            <path class="cls-43" d="M274.2,722.3h16.9v5.9h-16.9c-.7,0-1.2-.6-1.2-1.2v-3.4c0-.7.6-1.2,1.2-1.2Z" transform="translate(-443.2 1007.3) rotate(-90)"/>
            <path class="cls-43" d="M282.9,722.3h16.9v5.9h-16.9c-.7,0-1.2-.6-1.2-1.2v-3.4c0-.7.6-1.2,1.2-1.2Z" transform="translate(-434.5 1016) rotate(-90)"/>
            <path class="cls-43" d="M291.6,722.3h16.9v5.9h-16.9c-.7,0-1.2-.6-1.2-1.2v-3.4c0-.7.6-1.2,1.2-1.2Z" transform="translate(-425.8 1024.7) rotate(-90)"/>
            <path class="cls-43" d="M300.3,722.3h16.9v5.9h-16.9c-.7,0-1.2-.6-1.2-1.2v-3.4c0-.7.6-1.2,1.2-1.2Z" transform="translate(-417.1 1033.4) rotate(-90)"/>
            <path class="cls-43" d="M309,722.3h16.9v5.9h-16.9c-.7,0-1.2-.6-1.2-1.2v-3.4c0-.7.6-1.2,1.2-1.2Z" transform="translate(-408.4 1042.1) rotate(-90)"/>
            <path class="cls-43" d="M317.7,722.3h16.9v5.9h-16.9c-.7,0-1.2-.6-1.2-1.2v-3.4c0-.7.6-1.2,1.2-1.2Z" transform="translate(-399.7 1050.8) rotate(-90)"/>
          </g>
          <g>
            <path class="cls-43" d="M334.3,705.4h16.9v5.9h-16.9c-.7,0-1.2-.6-1.2-1.2v-3.4c0-.7.6-1.2,1.2-1.2Z" transform="translate(684.3 1416.7) rotate(180)"/>
            <path class="cls-43" d="M334.3,696.7h16.9v5.9h-16.9c-.7,0-1.2-.6-1.2-1.2v-3.4c0-.7.6-1.2,1.2-1.2Z" transform="translate(684.3 1399.3) rotate(180)"/>
            <path class="cls-43" d="M334.3,688h16.9v5.9h-16.9c-.7,0-1.2-.6-1.2-1.2v-3.4c0-.7.6-1.2,1.2-1.2Z" transform="translate(684.3 1381.9) rotate(180)"/>
            <path class="cls-43" d="M334.3,679.3h16.9v5.9h-16.9c-.7,0-1.2-.6-1.2-1.2v-3.4c0-.7.6-1.2,1.2-1.2Z" transform="translate(684.3 1364.5) rotate(180)"/>
            <path class="cls-43" d="M334.3,670.6h16.9v5.9h-16.9c-.7,0-1.2-.6-1.2-1.2v-3.4c0-.7.6-1.2,1.2-1.2Z" transform="translate(684.3 1347.1) rotate(180)"/>
            <path class="cls-43" d="M334.3,661.9h16.9v5.9h-16.9c-.7,0-1.2-.6-1.2-1.2v-3.4c0-.7.6-1.2,1.2-1.2Z" transform="translate(684.3 1329.8) rotate(180)"/>
            <path class="cls-43" d="M334.3,653.2h16.9v5.9h-16.9c-.7,0-1.2-.6-1.2-1.2v-3.4c0-.7.6-1.2,1.2-1.2Z" transform="translate(684.3 1312.4) rotate(180)"/>
            <path class="cls-43" d="M334.3,644.6h16.9v5.9h-16.9c-.7,0-1.2-.6-1.2-1.2v-3.4c0-.7.6-1.2,1.2-1.2Z" transform="translate(684.3 1295) rotate(180)"/>
          </g>
        </g>
        <path class="cls-9" d="M246.9,803.4v7.2c0,1.3,0,2.5-.1,3.5,0,.8-.2,1.6-.4,2.4-.2.7-.5,1.3-.8,1.9-.5.7-1,1.4-1.6,2-.6.7-1.5,1.2-2.5,1.6-1.1.3-2.3.5-3.7.5h-6v-7.4h3.7c.5,0,.9,0,1.4-.2.3-.1.6-.3.9-.6.2-.3.4-.7.5-1.1.1-.6.2-1.2.2-1.7v-7.9h8.5ZM232.5,826.8h95v3.1h-95v-3.1ZM246.9,791.4v7.4h-8.5v-7.4h8.5ZM267.2,790.9c1.1,0,2.3,0,3.4.3,1,.2,2.1.5,3.1.9,1,.4,1.9.9,2.7,1.4.9.6,1.7,1.2,2.4,2,.7.7,1.4,1.6,1.9,2.4.6.9,1,1.8,1.4,2.7.4,1,.7,2,.8,3.1.2,1.1.3,2.3.3,3.4,0,1.1,0,2.2-.3,3.3-.2,1-.5,2-.8,3-.4.9-.8,1.9-1.4,2.7-.6.9-1.2,1.7-1.9,2.4-.7.7-1.5,1.4-2.4,2-.8.6-1.7,1-2.7,1.4-1,.4-2,.7-3,.9-1.1.2-2.2.3-3.3.3-1.1,0-2.3,0-3.4-.3-1-.2-2.1-.5-3.1-.8-1-.4-1.9-.8-2.7-1.4-1.7-1.1-3.2-2.6-4.4-4.4-.6-.9-1-1.8-1.4-2.7-.4-1-.7-2-.9-3-.4-2.2-.4-4.5,0-6.7.2-1,.5-2.1.9-3,.4-1,.8-1.9,1.4-2.7.6-.9,1.2-1.7,2-2.5.7-.8,1.5-1.4,2.4-2,.8-.6,1.7-1.1,2.7-1.4,1-.4,2-.7,3-.9,1.1-.2,2.2-.3,3.3-.3h0ZM267.2,798c-1,0-2,.2-3,.6-.9.4-1.6,1-2.2,1.8-.6.8-1.1,1.8-1.4,2.8-.3,1.1-.5,2.3-.5,3.7,0,1.3.1,2.5.5,3.8.3,1,.8,2,1.4,2.9.6.8,1.4,1.4,2.3,1.8.9.4,1.9.6,3,.6,1,0,2-.2,3-.6.9-.4,1.6-1,2.2-1.8.6-.9,1.1-1.8,1.4-2.8.3-1.1.5-2.4.5-3.8,0-1.2-.1-2.5-.5-3.7-.3-1-.8-2-1.4-2.8-.6-.8-1.4-1.4-2.3-1.8-.9-.4-1.9-.6-3-.6h0ZM286.7,791.4h8.5v7.7c0,1.6.3,2.8.9,3.6s1.6,1.2,2.8,1.2c1.3,0,2.3-.4,2.9-1.3s1-2.1,1-3.8v-7.4h8.4v5.4c0,1.3,0,2.5-.2,3.6,0,.9-.2,1.8-.5,2.7-.3.9-.6,1.7-1.1,2.5-.6,1-1.3,1.9-2,2.7-.4.5-.9.9-1.5,1.3-.6.4-1.2.7-1.9.9-.8.3-1.6.4-2.4.5-.9.1-1.9.2-2.8.2-.9,0-1.8,0-2.7-.2-.8-.1-1.5-.3-2.3-.5-.7-.2-1.3-.5-1.9-.9-.5-.3-1-.7-1.5-1.2-.8-.8-1.5-1.7-2.1-2.6-.5-.7-.9-1.5-1.2-2.4-.3-.9-.4-1.8-.5-2.7-.1-1.1-.2-2.3-.2-3.4v-6.1ZM305.9,815v7.4h-14.2v-7.4h14.2ZM309.9,784.7h56.8v2.9h-56.8v-2.9ZM313.6,805h18.3v7.3h-18.3v-7.3ZM343.6,791.4v7.4h-8.5v-7.4h8.5ZM343.6,803.4v19.1h-8.5v-19.1h8.5ZM368.1,791.4v7.4h-19.9v-7.4h19.9ZM349.6,803.4h8.4v7.7c0,.7,0,1.3.2,2,.1.5.3.9.5,1.2.2.2.6.4,1.1.6.6.1,1.2.2,1.8.2h5.5v7.4h-7.9c-.8,0-1.6,0-2.3-.2-.7,0-1.4-.3-2-.5-.6-.2-1.1-.5-1.7-.8-.5-.3-.9-.7-1.3-1.1-.4-.4-.7-.9-1-1.5-.3-.6-.5-1.2-.7-1.9-.2-.8-.3-1.5-.4-2.3,0-.9-.1-1.8-.1-2.7v-8.1Z"/>
        <rect class="cls-40" x="208.8" y="631.9" width="9.8" height="21.5" transform="translate(-429 856.4) rotate(-90)"/>
        <rect class="cls-40" x="349.3" y="515.7" width="9.8" height="21.5"/>
        <g>
          <rect class="cls-21" x="267.9" y="419.1" width="50.5" height="39.3" rx="2.5" ry="2.5"/>
          <circle class="cls-2" cx="272.1" cy="450.4" r="2.7"/>
          <g>
            <path class="cls-43" d="M267.7,462h12.2v6.1h-12.2c-.7,0-1.2-.6-1.2-1.2v-3.6c0-.7.6-1.2,1.2-1.2Z" transform="translate(-191.9 738.3) rotate(-90)"/>
            <path class="cls-43" d="M281,462h12.2v6.1h-12.2c-.7,0-1.2-.6-1.2-1.2v-3.6c0-.7.6-1.2,1.2-1.2Z" transform="translate(-178.6 751.6) rotate(-90)"/>
            <path class="cls-43" d="M294.3,462h12.2v6.1h-12.2c-.7,0-1.2-.6-1.2-1.2v-3.6c0-.7.6-1.2,1.2-1.2Z" transform="translate(-165.3 764.9) rotate(-90)"/>
            <path class="cls-43" d="M307.6,462h12.2v6.1h-12.2c-.7,0-1.2-.6-1.2-1.2v-3.6c0-.7.6-1.2,1.2-1.2Z" transform="translate(-152 778.2) rotate(-90)"/>
          </g>
          <g>
            <path class="cls-43" d="M307.6,409.3h12.2v6.1h-12.2c-.7,0-1.2-.6-1.2-1.2v-3.6c0-.7.6-1.2,1.2-1.2Z" transform="translate(725.5 99.3) rotate(90)"/>
            <path class="cls-43" d="M294.3,409.3h12.2v6.1h-12.2c-.7,0-1.2-.6-1.2-1.2v-3.6c0-.7.6-1.2,1.2-1.2Z" transform="translate(712.2 112.6) rotate(90)"/>
            <path class="cls-43" d="M281,409.3h12.2v6.1h-12.2c-.7,0-1.2-.6-1.2-1.2v-3.6c0-.7.6-1.2,1.2-1.2Z" transform="translate(698.9 125.9) rotate(90)"/>
            <path class="cls-43" d="M267.7,409.3h12.2v6.1h-12.2c-.7,0-1.2-.6-1.2-1.2v-3.6c0-.7.6-1.2,1.2-1.2Z" transform="translate(685.6 139.1) rotate(90)"/>
          </g>
        </g>
        <g>
          <g>
            <path class="cls-43" d="M222,436.6h12.2v9.6h-12.2c-.7,0-1.2-.6-1.2-1.2v-7.1c0-.7.6-1.2,1.2-1.2Z" transform="translate(-214 668.9) rotate(-90)"/>
            <path class="cls-43" d="M241.6,436.6h12.2v9.6h-12.2c-.7,0-1.2-.6-1.2-1.2v-7.1c0-.7.6-1.2,1.2-1.2Z" transform="translate(-194.3 688.5) rotate(-90)"/>
          </g>
          <g>
            <path class="cls-43" d="M221.3,408.6h12.2v6.1h-12.2c-.7,0-1.2-.6-1.2-1.2v-3.6c0-.7.6-1.2,1.2-1.2Z" transform="translate(638.4 184.9) rotate(90)"/>
            <path class="cls-43" d="M231.8,408.6h12.2v6.1h-12.2c-.7,0-1.2-.6-1.2-1.2v-3.6c0-.7.6-1.2,1.2-1.2Z" transform="translate(648.9 174.4) rotate(90)"/>
            <path class="cls-43" d="M242.3,408.6h12.2v6.1h-12.2c-.7,0-1.2-.6-1.2-1.2v-3.6c0-.7.6-1.2,1.2-1.2Z" transform="translate(659.4 163.8) rotate(90)"/>
          </g>
          <rect class="cls-21" x="222.1" y="418.4" width="30.4" height="16.3" rx=".7" ry=".7"/>
        </g>
        <rect class="cls-40" x="233.5" y="454.8" width="9.8" height="21.5" transform="translate(-227.1 704) rotate(-90)"/>
        <g>
          <rect class="cls-21" x="365.4" y="396" width="34.4" height="107"/>
          <g>
            <path class="cls-43" d="M348.5,398.5h16.9v5.9h-16.9c-.7,0-1.2-.6-1.2-1.2v-3.4c0-.7.6-1.2,1.2-1.2Z"/>
            <path class="cls-43" d="M348.5,412.3h16.9v5.9h-16.9c-.7,0-1.2-.6-1.2-1.2v-3.4c0-.7.6-1.2,1.2-1.2Z"/>
            <path class="cls-43" d="M348.5,426h16.9v5.9h-16.9c-.7,0-1.2-.6-1.2-1.2v-3.4c0-.7.6-1.2,1.2-1.2Z"/>
            <path class="cls-43" d="M348.5,439.7h16.9v5.9h-16.9c-.7,0-1.2-.6-1.2-1.2v-3.4c0-.7.6-1.2,1.2-1.2Z"/>
            <path class="cls-43" d="M348.5,453.4h16.9v5.9h-16.9c-.7,0-1.2-.6-1.2-1.2v-3.4c0-.7.6-1.2,1.2-1.2Z"/>
            <path class="cls-43" d="M348.5,467.2h16.9v5.9h-16.9c-.7,0-1.2-.6-1.2-1.2v-3.4c0-.7.6-1.2,1.2-1.2Z"/>
            <path class="cls-43" d="M348.5,480.9h16.9v5.9h-16.9c-.7,0-1.2-.6-1.2-1.2v-3.4c0-.7.6-1.2,1.2-1.2Z"/>
            <path class="cls-43" d="M348.5,494.6h16.9v5.9h-16.9c-.7,0-1.2-.6-1.2-1.2v-3.4c0-.7.6-1.2,1.2-1.2Z"/>
          </g>
          <g>
            <path class="cls-43" d="M401,494.6h16.9v5.9h-16.9c-.7,0-1.2-.6-1.2-1.2v-3.4c0-.7.6-1.2,1.2-1.2Z" transform="translate(817.6 995.1) rotate(180)"/>
            <path class="cls-43" d="M401,480.9h16.9v5.9h-16.9c-.7,0-1.2-.6-1.2-1.2v-3.4c0-.7.6-1.2,1.2-1.2Z" transform="translate(817.6 967.6) rotate(180)"/>
            <path class="cls-43" d="M401,467.2h16.9v5.9h-16.9c-.7,0-1.2-.6-1.2-1.2v-3.4c0-.7.6-1.2,1.2-1.2Z" transform="translate(817.6 940.2) rotate(180)"/>
            <path class="cls-43" d="M401,453.4h16.9v5.9h-16.9c-.7,0-1.2-.6-1.2-1.2v-3.4c0-.7.6-1.2,1.2-1.2Z" transform="translate(817.6 912.7) rotate(180)"/>
            <path class="cls-43" d="M401,439.7h16.9v5.9h-16.9c-.7,0-1.2-.6-1.2-1.2v-3.4c0-.7.6-1.2,1.2-1.2Z" transform="translate(817.6 885.3) rotate(180)"/>
            <path class="cls-43" d="M401,426h16.9v5.9h-16.9c-.7,0-1.2-.6-1.2-1.2v-3.4c0-.7.6-1.2,1.2-1.2Z" transform="translate(817.6 857.8) rotate(180)"/>
            <path class="cls-43" d="M401,412.3h16.9v5.9h-16.9c-.7,0-1.2-.6-1.2-1.2v-3.4c0-.7.6-1.2,1.2-1.2Z" transform="translate(817.6 830.4) rotate(180)"/>
            <path class="cls-43" d="M401,398.5h16.9v5.9h-16.9c-.7,0-1.2-.6-1.2-1.2v-3.4c0-.7.6-1.2,1.2-1.2Z" transform="translate(817.6 802.9) rotate(180)"/>
          </g>
          <circle class="cls-2" cx="391.7" cy="493.1" r="4.9"/>
        </g>
        <rect class="cls-40" x="444.4" y="442.7" width="9.8" height="21.5" transform="translate(902.7 4.1) rotate(90)"/>
        <g>
          <rect class="cls-13" x="443.9" y="462" width="10.7" height="17.2" transform="translate(919.9 21.3) rotate(90)"/>
          <rect class="cls-21" x="444.1" y="464.7" width="10.7" height="11.8" transform="translate(920.1 21.2) rotate(90)"/>
        </g>
        <g>
          <rect class="cls-13" x="443.9" y="479.6" width="10.7" height="17.2" transform="translate(937.5 38.9) rotate(90)"/>
          <rect class="cls-21" x="444.1" y="482.3" width="10.7" height="11.8" transform="translate(937.6 38.8) rotate(90)"/>
        </g>
        <g>
          <rect class="cls-13" x="397.1" y="330.8" width="10.7" height="17.2"/>
          <rect class="cls-21" x="397.1" y="333.3" width="10.7" height="11.8"/>
        </g>
        <g>
          <rect class="cls-13" x="412.6" y="330.6" width="10.7" height="17.2"/>
          <rect class="cls-21" x="412.6" y="333.2" width="10.7" height="11.8"/>
        </g>
        <path class="cls-43" d="M311.9,368.1h12.2v11.5h-12.2c-.7,0-1.2-.6-1.2-1.2v-9c0-.7.6-1.2,1.2-1.2Z" transform="translate(-56.5 691.3) rotate(-90)"/>
        <g>
          <rect class="cls-12" x="274.6" y="248.9" width="51.5" height="35.1"/>
          <rect class="cls-19" x="286.9" y="248.9" width="26.7" height="35.1"/>
        </g>
        <g>
          <path class="cls-32" d="M369.9,214.8h0s87.6,0,87.6,0h0c2.7,1.4,4.4,4.2,4.4,7.3v70.1c0,1-.8,1.8-1.8,1.8h-92.8c-1,0-1.8-.8-1.8-1.8v-70.1c0-3,1.7-5.8,4.4-7.3Z"/>
          <g>
            <path class="cls-30" d="M444.6,288.1h0c0-1.3-1.1-2.4-2.4-2.4h-9.9c-.8,0-1.5-.7-1.5-1.5v-2.1c0-.8.7-1.5,1.5-1.5h9.9c1.3,0,2.4-1.1,2.4-2.4h0c0-1.3-1.1-2.4-2.4-2.4h-14c-1.3,0-2.4,1.1-2.4,2.4v10c0,1.3,1.1,2.4,2.4,2.4h14c1.3,0,2.4-1.1,2.4-2.4Z"/>
            <path class="cls-30" d="M382.8,278.1h0c0,1.3,1.1,2.4,2.4,2.4h9.9c.8,0,1.5.7,1.5,1.5v2.1c0,.8-.7,1.5-1.5,1.5h-9.9c-1.3,0-2.4,1.1-2.4,2.4h0c0,1.3,1.1,2.4,2.4,2.4h14c1.3,0,2.4-1.1,2.4-2.4v-10c0-1.3-1.1-2.4-2.4-2.4h-14c-1.3,0-2.4,1.1-2.4,2.4Z"/>
          </g>
        </g>
        <g>
          <rect class="cls-21" x="198" y="295.7" width="69.5" height="37" rx="1.2" ry="1.2"/>
          <g>
            <path class="cls-43" d="M199.5,338.8h16.9v5.9h-16.9c-.7,0-1.2-.6-1.2-1.2v-3.4c0-.7.6-1.2,1.2-1.2Z" transform="translate(-134.4 549.1) rotate(-90)"/>
            <path class="cls-43" d="M224.9,338.8h16.9v5.9h-16.9c-.7,0-1.2-.6-1.2-1.2v-3.4c0-.7.6-1.2,1.2-1.2Z" transform="translate(-109 574.5) rotate(-90)"/>
            <path class="cls-43" d="M250.3,338.8h16.9v5.9h-16.9c-.7,0-1.2-.6-1.2-1.2v-3.4c0-.7.6-1.2,1.2-1.2Z" transform="translate(-83.6 599.9) rotate(-90)"/>
          </g>
          <path class="cls-43" d="M219,265.2h25.6v34.3h-25.6c-.7,0-1.2-.6-1.2-1.2v-31.8c0-.7.6-1.2,1.2-1.2Z" transform="translate(513.5 51.2) rotate(90)"/>
        </g>
        <rect class="cls-21" x="150.2" y="373.9" width="48.4" height="27.1"/>
        <g>
          <rect class="cls-32" x="15.9" y="417" width="20" height="20"/>
          <circle class="cls-29" cx="25.9" cy="427" r="7.4"/>
          <rect class="cls-32" x="15.9" y="445.7" width="20" height="20"/>
          <circle class="cls-29" cx="25.9" cy="455.7" r="7.4"/>
          <rect class="cls-32" x="15.9" y="474.3" width="20" height="20"/>
          <circle class="cls-29" cx="25.9" cy="484.4" r="7.4"/>
          <rect class="cls-32" x="15.9" y="503" width="20" height="20"/>
          <circle class="cls-29" cx="25.9" cy="513" r="7.4"/>
        </g>
        <g>
          <rect class="cls-18" x="9.2" y="529.4" width="33.4" height="240.9"/>
          <rect x="16.1" y="532.1" width="19.6" height="19.6"/>
          <rect x="16.1" y="562.6" width="19.6" height="19.6"/>
          <rect x="16.1" y="593.1" width="19.6" height="19.6"/>
          <rect x="16.1" y="623.6" width="19.6" height="19.6"/>
          <rect x="16.1" y="654.2" width="19.6" height="19.6"/>
          <rect x="16.1" y="684.7" width="19.6" height="19.6"/>
          <rect x="16.1" y="715.2" width="19.6" height="19.6"/>
          <rect x="16.1" y="745.7" width="19.6" height="19.6"/>
        </g>
        <g>
          <rect class="cls-18" x="9.2" y="776" width="33.4" height="178.8"/>
          <g>
            <rect x="16.1" y="779.3" width="19.6" height="19.6"/>
            <rect x="16.1" y="809.8" width="19.6" height="19.6"/>
            <rect x="16.1" y="840.3" width="19.6" height="19.6"/>
            <rect x="16.1" y="870.8" width="19.6" height="19.6"/>
            <rect x="16.1" y="901.3" width="19.6" height="19.6"/>
            <rect x="16.1" y="931.8" width="19.6" height="19.6"/>
          </g>
        </g>
        <g>
          <path class="cls-9" d="M50.2,567.6h2.5v10.4h-2.5v-10.4Z"/>
          <path class="cls-9" d="M54.6,572.8c0-3.4,1.9-5.4,4.8-5.4s4.8,2,4.8,5.4-1.9,5.4-4.8,5.4-4.8-2-4.8-5.4ZM61.6,572.8c0-2-.8-3.2-2.2-3.2s-2.2,1.2-2.2,3.2.9,3.3,2.2,3.3,2.2-1.3,2.2-3.3Z"/>
          <path class="cls-9" d="M66.1,567.6h3.8c2.2,0,4.1.8,4.1,3.3s-.7,2.5-1.8,3l2.3,4.1h-2.8l-1.9-3.7h-1.2v3.7h-2.5v-10.4ZM69.7,572.4c1.2,0,1.8-.5,1.8-1.5s-.6-1.3-1.8-1.3h-1.1v2.8h1.1Z"/>
          <path class="cls-9" d="M76,567.6h6.6v2.1h-4.1v2h3.5v2.1h-3.5v2.2h4.3v2.1h-6.8v-10.4Z"/>
          <path class="cls-9" d="M84.8,567.6h6.7v2.1h-4.2v2.3h3.6v2.1h-3.6v4h-2.5v-10.4Z"/>
        </g>
        <g>
          <path class="cls-9" d="M51.4,598.1h3.8c2.2,0,4.1.8,4.1,3.3s-.7,2.5-1.8,3l2.3,4.1h-2.8l-1.9-3.7h-1.2v3.7h-2.5v-10.4ZM55.1,602.9c1.2,0,1.8-.5,1.8-1.5s-.6-1.3-1.8-1.3h-1.1v2.8h1.1Z"/>
          <path class="cls-9" d="M61.3,598.1h6.6v2.1h-4.1v2h3.5v2.1h-3.5v2.2h4.3v2.1h-6.8v-10.4Z"/>
          <path class="cls-9" d="M69.5,607.2l1.3-1.6c.7.6,1.7,1,2.6,1s1.4-.4,1.4-.9-.6-.8-1.5-1.2l-1.3-.6c-1.1-.4-2.1-1.3-2.1-2.8s1.6-3.2,3.8-3.2,2.5.5,3.4,1.3l-1.3,1.6c-.7-.5-1.4-.8-2.1-.8s-1.3.3-1.3.8.7.8,1.6,1.2l1.3.5c1.3.5,2.1,1.4,2.1,2.8s-1.5,3.3-4,3.3-2.8-.5-3.9-1.5Z"/>
          <path class="cls-9" d="M79,598.1h6.6v2.1h-4.1v2h3.5v2.1h-3.5v2.2h4.3v2.1h-6.8v-10.4Z"/>
          <path class="cls-9" d="M89.9,600.2h-2.8v-2.1h8.1v2.1h-2.8v8.3h-2.5v-8.3Z"/>
        </g>
        <g>
          <path class="cls-9" d="M51.8,637.8l1.1-1.6c.6.6,1.4,1,2.2,1s1.6-.4,1.6-1.2-.5-1.4-2.7-1.4v-1.8c1.8,0,2.3-.5,2.3-1.4s-.4-1.1-1.2-1.1-1.2.3-1.9.9l-1.2-1.5c.9-.8,2-1.3,3.2-1.3,2.2,0,3.6,1,3.6,2.9s-.6,1.8-1.7,2.3h0c1.2.4,2,1.2,2,2.6,0,2-1.8,3-3.8,3s-2.8-.6-3.6-1.4Z"/>
          <path class="cls-9" d="M60.9,637.7c0-.9.6-1.5,1.5-1.5s1.5.7,1.5,1.5-.6,1.5-1.5,1.5-1.5-.7-1.5-1.5Z"/>
          <path class="cls-9" d="M65.2,637.8l1.1-1.6c.6.6,1.4,1,2.2,1s1.6-.4,1.6-1.2-.5-1.4-2.7-1.4v-1.8c1.8,0,2.3-.5,2.3-1.4s-.4-1.1-1.2-1.1-1.2.3-1.9.9l-1.2-1.5c.9-.8,2-1.3,3.2-1.3,2.2,0,3.6,1,3.6,2.9s-.6,1.8-1.7,2.3h0c1.2.4,2,1.2,2,2.6,0,2-1.8,3-3.8,3s-2.8-.6-3.6-1.4Z"/>
          <path class="cls-9" d="M73.3,628.6h2.6l1.1,4.8c.3,1.1.5,2.2.8,3.3h0c.3-1.1.5-2.2.8-3.3l1.2-4.8h2.5l-3.2,10.4h-3l-3.1-10.4Z"/>
        </g>
        <g>
          <path class="cls-9" d="M53,668.3l1.1-1.6c.6.6,1.3,1,2.1,1s1.6-.6,1.6-1.6-.6-1.6-1.5-1.6-.9.1-1.5.5l-1.1-.7.3-5.2h5.8v2.1h-3.7v1.8c.2-.1.5-.2.9-.2,1.8,0,3.2,1,3.2,3.3s-1.8,3.7-3.8,3.7-2.8-.6-3.6-1.4Z"/>
          <path class="cls-9" d="M61.1,659.1h2.6l1.1,4.8c.3,1.1.5,2.2.8,3.3h0c.3-1.1.5-2.2.8-3.3l1.2-4.8h2.5l-3.2,10.4h-3l-3.1-10.4Z"/>
        </g>
        <g>
          <path class="cls-9" d="M54.6,694.9c0-3.5,2.3-5.5,5.1-5.5s2.6.6,3.3,1.4l-1.3,1.5c-.5-.5-1.1-.7-1.9-.7-1.5,0-2.7,1.2-2.7,3.2s.9,3.3,2.9,3.3.8,0,1-.3v-1.7h-1.7v-2h3.9v4.9c-.7.7-2,1.3-3.5,1.3-2.9,0-5.2-1.8-5.2-5.3Z"/>
          <path class="cls-9" d="M65.4,689.7h2.6l2.6,5c.4.7.7,1.5,1,2.4h0c-.1-1.1-.3-2.6-.3-3.8v-3.5h2.4v10.4h-2.6l-2.6-5c-.4-.7-.7-1.5-1-2.4h0c.1,1.2.3,2.6.3,3.8v3.5h-2.4v-10.4Z"/>
          <path class="cls-9" d="M76,689.7h3c3.2,0,5.3,1.6,5.3,5.2s-2.1,5.2-5.1,5.2h-3.1v-10.4ZM78.9,698.1c1.7,0,2.9-.8,2.9-3.2s-1.2-3.2-2.9-3.2h-.4v6.4h.4Z"/>
        </g>
        <g>
          <path class="cls-9" d="M55.9,725.4c0-3.5,2.3-5.5,5.1-5.5s2.6.6,3.3,1.4l-1.3,1.5c-.5-.5-1.1-.7-1.9-.7-1.5,0-2.7,1.2-2.7,3.2s.9,3.3,2.9,3.3.8,0,1-.3v-1.7h-1.7v-2h3.9v4.9c-.7.7-2,1.3-3.5,1.3-2.9,0-5.2-1.8-5.2-5.3Z"/>
          <path class="cls-9" d="M66.6,720.2h2.6l2.6,5c.4.7.7,1.5,1,2.4h0c-.1-1.1-.3-2.6-.3-3.8v-3.5h2.4v10.4h-2.6l-2.6-5c-.4-.7-.7-1.5-1-2.4h0c.1,1.2.3,2.6.3,3.8v3.5h-2.4v-10.4Z"/>
          <path class="cls-9" d="M77.3,720.2h3c3.2,0,5.3,1.6,5.3,5.2s-2.1,5.2-5.1,5.2h-3.1v-10.4ZM80.1,728.6c1.7,0,2.9-.8,2.9-3.2s-1.2-3.2-2.9-3.2h-.4v6.4h.4Z"/>
        </g>
        <g>
          <path class="cls-9" d="M56.3,750.7h2.6l1.1,4.8c.3,1.1.5,2.2.8,3.3h0c.3-1.1.5-2.2.8-3.3l1.2-4.8h2.5l-3.2,10.4h-3l-3.1-10.4Z"/>
          <path class="cls-9" d="M66.6,750.7h2.5v10.4h-2.5v-10.4Z"/>
          <path class="cls-9" d="M71.5,750.7h2.6l2.6,5c.4.7.7,1.5,1,2.4h0c-.1-1.1-.3-2.6-.3-3.8v-3.5h2.4v10.4h-2.6l-2.6-5c-.4-.7-.7-1.5-1-2.4h0c.1,1.2.3,2.6.3,3.8v3.5h-2.4v-10.4Z"/>
        </g>
        <g>
          <path class="cls-9" d="M60.7,784.3h3l3.2,10.4h-2.6l-.6-2.4h-3.1l-.6,2.4h-2.5l3.2-10.4ZM61.1,790.4h2.1l-.2-.9c-.3-1-.5-2.3-.8-3.3h0c-.3,1.1-.5,2.3-.8,3.3l-.2.9Z"/>
          <path class="cls-9" d="M67.4,789.4c0-3.6,1.5-5.4,3.7-5.4s3.7,1.8,3.7,5.4-1.5,5.4-3.7,5.4-3.7-1.9-3.7-5.4ZM72.4,789.4c0-2.8-.6-3.5-1.3-3.5s-1.3.6-1.3,3.5.6,3.5,1.3,3.5,1.3-.7,1.3-3.5Z"/>
        </g>
        <g>
          <path class="cls-9" d="M62,814.8h3l3.2,10.4h-2.6l-.6-2.4h-3.1l-.6,2.4h-2.5l3.2-10.4ZM62.4,820.9h2.1l-.2-.9c-.3-1-.5-2.3-.8-3.3h0c-.3,1.1-.5,2.3-.8,3.3l-.2.9Z"/>
          <path class="cls-9" d="M69.2,823.2h2.2v-5.9h-1.9v-1.5c1.1-.2,1.8-.5,2.6-.9h1.8v8.4h1.9v2h-6.6v-2Z"/>
        </g>
        <g>
          <path class="cls-9" d="M63.2,845.3h3l3.2,10.4h-2.6l-.6-2.4h-3.1l-.6,2.4h-2.5l3.2-10.4ZM63.6,851.4h2.1l-.2-.9c-.3-1-.5-2.3-.8-3.3h0c-.3,1.1-.5,2.3-.8,3.3l-.2.9Z"/>
          <path class="cls-9" d="M69.9,854.2c2.7-2.3,4.4-4.2,4.4-5.6s-.5-1.5-1.4-1.5-1.3.5-1.8,1l-1.3-1.3c1-1.1,1.9-1.7,3.4-1.7s3.4,1.3,3.4,3.3-1.7,3.8-3.3,5.4c.5,0,1.2-.1,1.7-.1h2.1v2.1h-7.2v-1.5Z"/>
        </g>
        <g>
          <path class="cls-9" d="M64.4,875.8h3l3.2,10.4h-2.6l-.6-2.4h-3.1l-.6,2.4h-2.5l3.2-10.4ZM64.8,881.9h2.1l-.2-.9c-.3-1-.5-2.3-.8-3.3h0c-.3,1.1-.5,2.3-.8,3.3l-.2.9Z"/>
          <path class="cls-9" d="M70.9,885l1.1-1.6c.6.6,1.4,1,2.2,1s1.6-.4,1.6-1.2-.5-1.4-2.7-1.4v-1.8c1.8,0,2.3-.5,2.3-1.4s-.4-1.1-1.2-1.1-1.2.3-1.9.9l-1.2-1.5c.9-.8,2-1.3,3.2-1.3,2.2,0,3.6,1,3.6,2.9s-.6,1.8-1.7,2.3h0c1.2.4,2,1.2,2,2.6,0,2-1.8,3-3.8,3s-2.8-.6-3.6-1.4Z"/>
        </g>
        <g>
          <path class="cls-9" d="M65.7,906.3h3l3.2,10.4h-2.6l-.6-2.4h-3.1l-.6,2.4h-2.5l3.2-10.4ZM66.1,912.4h2.1l-.2-.9c-.3-1-.5-2.3-.8-3.3h0c-.3,1.1-.5,2.3-.8,3.3l-.2.9Z"/>
          <path class="cls-9" d="M76.5,914.1h-4.4v-1.7l3.6-6.1h3.1v5.9h1.2v1.9h-1.2v2.6h-2.3v-2.6ZM76.5,912.2v-1.5c0-.7,0-1.6,0-2.3h0c-.3.6-.5,1.2-.8,1.8l-1.2,2.1h2Z"/>
          <path class="cls-9" d="M83.6,905.4h1.6l-3.1,13.9h-1.6l3.1-13.9Z"/>
          <path class="cls-9" d="M86.2,915.4l1.3-1.6c.7.6,1.7,1,2.6,1s1.4-.4,1.4-.9-.6-.8-1.5-1.2l-1.3-.6c-1.1-.4-2.1-1.3-2.1-2.8s1.6-3.2,3.8-3.2,2.5.5,3.4,1.3l-1.3,1.6c-.7-.5-1.4-.8-2.1-.8s-1.3.3-1.3.8.7.8,1.6,1.2l1.3.5c1.3.5,2.1,1.4,2.1,2.8s-1.5,3.3-4,3.3-2.8-.5-3.9-1.5Z"/>
          <path class="cls-9" d="M95.8,906.3h3c3.2,0,5.3,1.6,5.3,5.2s-2.1,5.2-5.1,5.2h-3.1v-10.4ZM98.6,914.7c1.7,0,2.9-.8,2.9-3.2s-1.2-3.2-2.9-3.2h-.4v6.4h.4Z"/>
          <path class="cls-9" d="M107.8,906.3h3l3.2,10.4h-2.6l-.6-2.4h-3.1l-.6,2.4h-2.5l3.2-10.4ZM108.1,912.4h2.1l-.2-.9c-.3-1-.5-2.3-.8-3.3h0c-.3,1.1-.5,2.3-.8,3.3l-.2.9Z"/>
        </g>
        <g>
          <path class="cls-9" d="M66.9,933.7h3l3.2,10.4h-2.6l-.6-2.4h-3.1l-.6,2.4h-2.5l3.2-10.4ZM67.3,939.8h2.1l-.2-.9c-.3-1-.5-2.3-.8-3.3h0c-.3,1.1-.5,2.3-.8,3.3l-.2.9Z"/>
          <path class="cls-9" d="M73.4,942.9l1.1-1.6c.6.6,1.3,1,2.1,1s1.6-.6,1.6-1.6-.6-1.6-1.5-1.6-.9.1-1.5.5l-1.1-.7.3-5.2h5.8v2.1h-3.7v1.8c.2-.1.5-.2.9-.2,1.8,0,3.2,1,3.2,3.3s-1.8,3.7-3.8,3.7-2.8-.6-3.6-1.4Z"/>
          <path class="cls-9" d="M84.8,932.8h1.6l-3.1,13.9h-1.6l3.1-13.9Z"/>
          <path class="cls-9" d="M87.4,942.8l1.3-1.6c.7.6,1.7,1,2.6,1s1.4-.4,1.4-.9-.6-.8-1.5-1.2l-1.3-.6c-1.1-.4-2.1-1.3-2.1-2.8s1.6-3.2,3.8-3.2,2.5.5,3.4,1.3l-1.3,1.6c-.7-.5-1.4-.8-2.1-.8s-1.3.3-1.3.8.7.8,1.6,1.2l1.3.5c1.3.5,2.1,1.4,2.1,2.8s-1.5,3.3-4,3.3-2.8-.5-3.9-1.5Z"/>
          <path class="cls-9" d="M96.6,939c0-3.5,2.3-5.5,5-5.5s2.4.6,3.2,1.4l-1.3,1.5c-.5-.5-1.1-.7-1.8-.7-1.4,0-2.5,1.2-2.5,3.2s1,3.3,2.4,3.3,1.5-.3,2-.9l1.3,1.5c-.9,1-2.1,1.5-3.4,1.5-2.7,0-4.9-1.8-4.9-5.3Z"/>
          <path class="cls-9" d="M106.4,933.7h2.5v8.3h4v2.1h-6.5v-10.4Z"/>
        </g>
        <g>
          <path class="cls-9" d="M119.4,626.9v3.7c0,2.3-.8,4.2-3.4,4.2s-3.6-1.9-3.6-4.1v-1.2h-3.5v-2.5h10.4ZM114.4,630.5c0,1.2.6,1.8,1.6,1.8s1.4-.7,1.4-1.9v-1h-3v1.1Z"/>
          <path class="cls-9" d="M114.2,636c3.4,0,5.4,1.9,5.4,4.8s-2,4.8-5.4,4.8-5.4-1.9-5.4-4.8,2-4.8,5.4-4.8ZM114.2,643c2,0,3.2-.8,3.2-2.2s-1.2-2.2-3.2-2.2-3.3.9-3.3,2.2,1.3,2.2,3.3,2.2Z"/>
          <path class="cls-9" d="M119.4,646.5v2.5l-4.8.7c-1.1.1-2.2.3-3.3.4h0c1.1.3,2.2.5,3.3.7l4.8,1.1v2.1l-4.8,1.1c-1.1.2-2.2.4-3.3.6h0c1.2.2,2.3.3,3.3.4l4.8.7v2.4l-10.4-1.8v-3.2l4.6-.9c.8-.2,1.6-.3,2.5-.4h0c-.8-.2-1.6-.3-2.5-.5l-4.6-.9v-3.1l10.4-1.9Z"/>
          <path class="cls-9" d="M119.4,660.5v6.6h-2.1v-4.1h-2v3.5h-2.1v-3.5h-2.2v4.3h-2.1v-6.8h10.4Z"/>
          <path class="cls-9" d="M119.4,669.3v3.8c0,2.2-.8,4.1-3.3,4.1s-2.5-.7-3-1.8l-4.1,2.3v-2.8l3.7-1.9v-1.2h-3.7v-2.5h10.4ZM114.6,673c0,1.2.5,1.8,1.5,1.8s1.3-.6,1.3-1.8v-1.1h-2.8v1.1Z"/>
        </g>
        <g>
          <path class="cls-9" d="M119.4,829.2v3l-10.4,3.2v-2.6l2.4-.6v-3.1l-2.4-.6v-2.5l10.4,3.2ZM113.3,829.6v2.1l.9-.2c1-.3,2.3-.5,3.3-.8h0c-1.1-.3-2.3-.6-3.3-.9l-.9-.2Z"/>
          <path class="cls-9" d="M119.4,836.5v2.6l-5,2.6c-.7.4-1.5.7-2.4,1h0c1.1,0,2.6-.3,3.8-.3h3.5v2.4h-10.4v-2.6l5-2.6c.7-.4,1.5-.7,2.4-1h0c-1.2,0-2.6.3-3.8.3h-3.5v-2.4h10.4Z"/>
          <path class="cls-9" d="M119.4,849.1v3l-10.4,3.2v-2.6l2.4-.6v-3.1l-2.4-.6v-2.5l10.4,3.2ZM113.3,849.5v2.1l.9-.2c1-.3,2.3-.5,3.3-.8h0c-1.1-.3-2.3-.6-3.3-.9l-.9-.2Z"/>
          <path class="cls-9" d="M119.4,856.4v2.5h-8.3v4h-2.1v-6.5h10.4Z"/>
          <path class="cls-9" d="M114.2,863.7c3.4,0,5.4,1.9,5.4,4.8s-2,4.8-5.4,4.8-5.4-1.9-5.4-4.8,2-4.8,5.4-4.8ZM114.2,870.7c2,0,3.2-.8,3.2-2.2s-1.2-2.2-3.2-2.2-3.3.9-3.3,2.2,1.3,2.2,3.3,2.2Z"/>
          <path class="cls-9" d="M114.1,874.7c3.5,0,5.5,2.3,5.5,5.1s-.6,2.6-1.4,3.3l-1.5-1.3c.5-.5.7-1.1.7-1.9,0-1.5-1.2-2.7-3.2-2.7s-3.3.9-3.3,2.9,0,.8.3,1h1.7v-1.7h2v3.9h-4.9c-.7-.7-1.3-2-1.3-3.5,0-2.9,1.8-5.2,5.3-5.2Z"/>
          <path class="cls-9" d="M119.4,888.6v2.5h-10.4v-2.5h10.4Z"/>
          <path class="cls-9" d="M119.4,893.5v2.6l-5,2.6c-.7.4-1.5.7-2.4,1h0c1.1,0,2.6-.3,3.8-.3h3.5v2.4h-10.4v-2.6l5-2.6c.7-.4,1.5-.7,2.4-1h0c-1.2,0-2.6.3-3.8.3h-3.5v-2.4h10.4Z"/>
        </g>
        <rect class="cls-38" x="123.6" y="784.6" width="4.5" height="159.9" rx="2.3" ry="2.3"/>
        <rect class="cls-38" x="123.6" y="558" width="4.5" height="187.7" rx="2.3" ry="2.3"/>
        <g>
          <g>
            <polygon class="cls-36" points="292.2 934.6 288.5 934.6 288.5 934.6 284.9 934.6 276.4 943 276.4 976.1 284.9 984.5 288.5 984.5 288.5 984.5 292.2 984.5 300.6 976.1 300.6 943 292.2 934.6"/>
            <g>
              <rect class="cls-28" x="285.4" y="944.1" width="6.2" height="6.2"/>
              <rect class="cls-28" x="285.4" y="968.7" width="6.2" height="6.2"/>
            </g>
          </g>
          <g>
            <polygon class="cls-36" points="316.4 934.6 312.8 934.6 312.7 934.6 309.1 934.6 300.6 943 300.6 976.1 309.1 984.5 312.7 984.5 312.8 984.5 316.4 984.5 324.8 976.1 324.8 943 316.4 934.6"/>
            <g>
              <rect class="cls-28" x="309.6" y="944.1" width="6.2" height="6.2"/>
              <rect class="cls-28" x="309.6" y="968.7" width="6.2" height="6.2"/>
            </g>
          </g>
          <g>
            <polygon class="cls-36" points="340.6 934.6 337 934.6 336.9 934.6 333.3 934.6 324.8 943 324.8 976.1 333.3 984.5 336.9 984.5 337 984.5 340.6 984.5 349.1 976.1 349.1 943 340.6 934.6"/>
            <g>
              <rect class="cls-28" x="333.8" y="944.1" width="6.2" height="6.2"/>
              <rect class="cls-28" x="333.8" y="968.7" width="6.2" height="6.2"/>
            </g>
          </g>
        </g>
        <path class="cls-38" d="M270.4,923.1c-1.3,0-2.3,1-2.3,2.3v58.5c0,1.3,1,2.3,2.3,2.3h0c1.3,0,2.3-1,2.3-2.3v-53.9c0-1.3,1-2.3,2.3-2.3h75.6c1.3,0,2.3,1,2.3,2.3v53.9c0,1.3,1,2.3,2.3,2.3h0c1.3,0,2.3-1,2.3-2.3v-58.5c0-1.3-1-2.3-2.3-2.3h-84.7Z"/>
        <rect class="cls-38" x="465" y="548.4" width="4.5" height="394.7" rx="2.3" ry="2.3"/>
        <g>
          <path class="cls-9" d="M486.4,690v3c0,3.2-1.6,5.3-5.2,5.3s-5.2-2.1-5.2-5.1v-3.1h10.4ZM478,692.9c0,1.7.8,2.9,3.2,2.9s3.2-1.2,3.2-2.9v-.4h-6.4v.4Z"/>
          <path class="cls-9" d="M486.4,700.2v2.5h-10.4v-2.5h10.4Z"/>
          <path class="cls-9" d="M481.1,704.6c3.5,0,5.5,2.3,5.5,5.1s-.6,2.6-1.4,3.3l-1.5-1.3c.5-.5.7-1.1.7-1.9,0-1.5-1.2-2.7-3.2-2.7s-3.3.9-3.3,2.9,0,.8.3,1h1.7v-1.7h2v3.9h-4.9c-.7-.7-1.3-2-1.3-3.5,0-2.9,1.8-5.2,5.3-5.2Z"/>
          <path class="cls-9" d="M486.4,715.4v2.5h-10.4v-2.5h10.4Z"/>
          <path class="cls-9" d="M484.3,722.3v-2.8h2.1v8.1h-2.1v-2.8h-8.3v-2.5h8.3Z"/>
          <path class="cls-9" d="M486.4,730.5v3l-10.4,3.2v-2.6l2.4-.6v-3.1l-2.4-.6v-2.5l10.4,3.2ZM480.3,730.9v2.1l.9-.2c1-.3,2.3-.5,3.3-.8h0c-1.1-.3-2.3-.6-3.3-.9l-.9-.2Z"/>
          <path class="cls-9" d="M486.4,737.8v2.5h-8.3v4h-2.1v-6.5h10.4Z"/>
          <path class="cls-9" d="M480.4,749.3c2.8,0,5.1.8,7.3,2.1l-.6,1.6c-2.1-1.2-4.4-1.7-6.7-1.7s-4.6.5-6.7,1.7l-.6-1.6c2.2-1.3,4.5-2.1,7.3-2.1Z"/>
          <path class="cls-9" d="M486.4,754.9v3.7c0,2.3-.8,4.2-3.4,4.2s-3.6-1.9-3.6-4.1v-1.2h-3.5v-2.5h10.4ZM481.4,758.5c0,1.2.6,1.8,1.6,1.8s1.4-.7,1.4-1.9v-1h-3v1.1Z"/>
          <path class="cls-9" d="M486.4,763.5v2.5l-4.8.7c-1.1.1-2.2.3-3.3.4h0c1.1.3,2.2.5,3.3.7l4.8,1.1v2.1l-4.8,1.1c-1.1.2-2.2.4-3.3.6h0c1.2.2,2.3.3,3.3.4l4.8.7v2.4l-10.4-1.8v-3.2l4.6-.9c.8-.2,1.6-.3,2.5-.4h0c-.8-.2-1.6-.3-2.5-.5l-4.6-.9v-3.1l10.4-1.9Z"/>
          <path class="cls-9" d="M486.4,777.6v2.7l-4.5,1.6c-.6.2-1.2.4-1.9.6h0c.7.3,1.3.4,1.9.6l4.5,1.6v2.7h-10.4v-2.3h3.6c1,0,2.8.2,3.8.3h0c0,0-2.7-.9-2.7-.9l-3.8-1.4v-1.4l3.8-1.4,2.7-.8h0c-1,0-2.8.3-3.8.3h-3.6v-2.2h10.4Z"/>
          <path class="cls-9" d="M481,791.5c0-.4-.4-.8-.9-1.1l1-1.3c1.2.8,1.7,1.6,1.7,2.4,0,1.3-1.2,1.9-1.2,2.8s.4.8.9,1.1l-1,1.3c-1.2-.8-1.7-1.6-1.7-2.4,0-1.3,1.2-1.9,1.2-2.8Z"/>
          <path class="cls-9" d="M473.8,797.9c2.1,1.2,4.4,1.7,6.7,1.7s4.6-.5,6.7-1.7l.6,1.6c-2.2,1.3-4.5,2.1-7.3,2.1s-5.1-.8-7.3-2.1l.6-1.6Z"/>
        </g>
        <g>
          <rect class="cls-18" x="558.9" y="718.4" width="33.4" height="240.9"/>
          <rect x="565.8" y="721.1" width="19.6" height="19.6"/>
          <rect x="565.8" y="751.6" width="19.6" height="19.6"/>
          <rect x="565.8" y="782.1" width="19.6" height="19.6"/>
          <rect x="565.8" y="812.7" width="19.6" height="19.6"/>
          <rect x="565.8" y="843.2" width="19.6" height="19.6"/>
          <rect x="565.8" y="873.7" width="19.6" height="19.6"/>
          <rect x="565.8" y="904.2" width="19.6" height="19.6"/>
          <rect x="565.8" y="934.7" width="19.6" height="19.6"/>
        </g>
        <g>
          <rect class="cls-18" x="558.9" y="415.2" width="33.4" height="301.1"/>
          <rect x="565.8" y="479.9" width="19.6" height="19.6"/>
          <rect x="565.8" y="510.4" width="19.6" height="19.6"/>
          <rect x="565.8" y="540.9" width="19.6" height="19.6"/>
          <rect x="565.8" y="571.4" width="19.6" height="19.6"/>
          <rect x="565.8" y="601.9" width="19.6" height="19.6"/>
          <rect x="565.8" y="632.4" width="19.6" height="19.6"/>
          <rect x="565.8" y="662.9" width="19.6" height="19.6"/>
          <rect x="565.8" y="693.4" width="19.6" height="19.6"/>
          <rect x="565.8" y="449.3" width="19.6" height="19.6"/>
          <rect x="565.8" y="419.1" width="19.6" height="19.6"/>
        </g>
        <g>
          <g>
            <path class="cls-9" d="M508.7,424.1h3l3.2,10.4h-2.6l-.6-2.4h-3.1l-.6,2.4h-2.5l3.2-10.4ZM509,430.2h2.1l-.2-.9c-.3-1-.5-2.3-.8-3.3h0c-.3,1.1-.5,2.3-.8,3.3l-.2.9Z"/>
            <path class="cls-9" d="M515.1,433.3l1.1-1.6c.6.6,1.3,1,2.1,1s1.6-.6,1.6-1.6-.6-1.6-1.5-1.6-.9.1-1.5.5l-1.1-.7.3-5.2h5.8v2.1h-3.7v1.8c.2-.1.5-.2.9-.2,1.8,0,3.2,1,3.2,3.3s-1.8,3.7-3.8,3.7-2.8-.6-3.6-1.4Z"/>
            <path class="cls-9" d="M526.6,423.1h1.6l-3.1,13.9h-1.6l3.1-13.9Z"/>
            <path class="cls-9" d="M529.2,433.2l1.3-1.6c.7.6,1.7,1,2.6,1s1.4-.4,1.4-.9-.6-.8-1.5-1.2l-1.3-.6c-1.1-.4-2.1-1.3-2.1-2.8s1.6-3.2,3.8-3.2,2.5.5,3.4,1.3l-1.3,1.6c-.7-.5-1.4-.8-2.1-.8s-1.3.3-1.3.8.7.8,1.6,1.2l1.3.5c1.3.5,2.1,1.4,2.1,2.8s-1.5,3.3-4,3.3-2.8-.5-3.9-1.5Z"/>
            <path class="cls-9" d="M538.3,429.4c0-3.5,2.3-5.5,5-5.5s2.4.6,3.2,1.4l-1.3,1.5c-.5-.5-1.1-.7-1.8-.7-1.4,0-2.5,1.2-2.5,3.2s1,3.3,2.4,3.3,1.5-.3,2-.9l1.3,1.5c-.9,1-2.1,1.5-3.4,1.5-2.7,0-4.9-1.8-4.9-5.3Z"/>
            <path class="cls-9" d="M548.1,424.1h2.5v8.3h4v2.1h-6.5v-10.4Z"/>
          </g>
          <g>
            <path class="cls-9" d="M506.5,454.3h3l3.2,10.4h-2.6l-.6-2.4h-3.1l-.6,2.4h-2.5l3.2-10.4ZM506.9,460.4h2.1l-.2-.9c-.3-1-.5-2.3-.8-3.3h0c-.3,1.1-.5,2.3-.8,3.3l-.2.9Z"/>
            <path class="cls-9" d="M517.3,462.2h-4.4v-1.7l3.6-6.1h3.1v5.9h1.2v1.9h-1.2v2.6h-2.3v-2.6ZM517.3,460.3v-1.5c0-.7,0-1.6,0-2.3h0c-.3.6-.5,1.2-.8,1.8l-1.2,2.1h2Z"/>
            <path class="cls-9" d="M524.4,453.4h1.6l-3.1,13.9h-1.6l3.1-13.9Z"/>
            <path class="cls-9" d="M527,463.4l1.3-1.6c.7.6,1.7,1,2.6,1s1.4-.4,1.4-.9-.6-.8-1.5-1.2l-1.3-.6c-1.1-.4-2.1-1.3-2.1-2.8s1.6-3.2,3.8-3.2,2.5.5,3.4,1.3l-1.3,1.6c-.7-.5-1.4-.8-2.1-.8s-1.3.3-1.3.8.7.8,1.6,1.2l1.3.5c1.3.5,2.1,1.4,2.1,2.8s-1.5,3.3-4,3.3-2.8-.5-3.9-1.5Z"/>
            <path class="cls-9" d="M536.6,454.3h3c3.2,0,5.3,1.6,5.3,5.2s-2.1,5.2-5.1,5.2h-3.1v-10.4ZM539.5,462.8c1.7,0,2.9-.8,2.9-3.2s-1.2-3.2-2.9-3.2h-.4v6.4h.4Z"/>
            <path class="cls-9" d="M548.6,454.3h3l3.2,10.4h-2.6l-.6-2.4h-3.1l-.6,2.4h-2.5l3.2-10.4ZM549,460.4h2.1l-.2-.9c-.3-1-.5-2.3-.8-3.3h0c-.3,1.1-.5,2.3-.8,3.3l-.2.9Z"/>
          </g>
          <g>
            <path class="cls-9" d="M520.9,484.8h3l3.2,10.4h-2.6l-.6-2.4h-3.1l-.6,2.4h-2.5l3.2-10.4ZM521.3,490.9h2.1l-.2-.9c-.3-1-.5-2.3-.8-3.3h0c-.3,1.1-.5,2.3-.8,3.3l-.2.9Z"/>
            <path class="cls-9" d="M528.2,484.8h3.8c2.2,0,4.1.8,4.1,3.3s-.7,2.5-1.8,3l2.3,4.1h-2.8l-1.9-3.7h-1.2v3.7h-2.5v-10.4ZM531.8,489.6c1.2,0,1.8-.5,1.8-1.5s-.6-1.3-1.8-1.3h-1.1v2.8h1.1Z"/>
            <path class="cls-9" d="M538.1,484.8h6.6v2.1h-4.1v2h3.5v2.1h-3.5v2.2h4.3v2.1h-6.8v-10.4Z"/>
            <path class="cls-9" d="M546.9,484.8h6.7v2.1h-4.2v2.3h3.6v2.1h-3.6v4h-2.5v-10.4Z"/>
          </g>
          <g>
            <path class="cls-9" d="M523.1,520.6c0-3.5,2.3-5.5,5.1-5.5s2.6.6,3.3,1.4l-1.3,1.5c-.5-.5-1.1-.7-1.9-.7-1.5,0-2.7,1.2-2.7,3.2s.9,3.3,2.9,3.3.8,0,1-.3v-1.7h-1.7v-2h3.9v4.9c-.7.7-2,1.3-3.5,1.3-2.9,0-5.2-1.8-5.2-5.3Z"/>
            <path class="cls-9" d="M533.9,515.4h2.6l2.6,5c.4.7.7,1.5,1,2.4h0c-.1-1.1-.3-2.6-.3-3.8v-3.5h2.4v10.4h-2.6l-2.6-5c-.4-.7-.7-1.5-1-2.4h0c.1,1.2.3,2.6.3,3.8v3.5h-2.4v-10.4Z"/>
            <path class="cls-9" d="M544.5,515.4h3c3.2,0,5.3,1.6,5.3,5.2s-2.1,5.2-5.1,5.2h-3.1v-10.4ZM547.4,523.8c1.7,0,2.9-.8,2.9-3.2s-1.2-3.2-2.9-3.2h-.4v6.4h.4Z"/>
          </g>
          <g>
            <path class="cls-9" d="M495.1,554.3h2.2v-5.9h-1.9v-1.5c1.1-.2,1.8-.5,2.6-.9h1.8v8.4h1.9v2h-6.6v-2Z"/>
            <path class="cls-9" d="M502.9,555l1.1-1.6c.6.6,1.4,1,2.2,1s1.6-.4,1.6-1.2-.5-1.4-2.7-1.4v-1.8c1.8,0,2.3-.5,2.3-1.4s-.4-1.1-1.2-1.1-1.2.3-1.9.9l-1.2-1.5c.9-.8,2-1.3,3.2-1.3,2.2,0,3.6,1,3.6,2.9s-.6,1.8-1.7,2.3h0c1.2.4,2,1.2,2,2.6,0,2-1.8,3-3.8,3s-2.8-.6-3.6-1.4Z"/>
            <path class="cls-9" d="M514.4,544.9h1.6l-3.1,13.9h-1.6l3.1-13.9Z"/>
            <path class="cls-9" d="M517,555l1.3-1.6c.7.6,1.7,1,2.6,1s1.4-.4,1.4-.9-.6-.8-1.5-1.2l-1.3-.6c-1.1-.4-2.1-1.3-2.1-2.8s1.6-3.2,3.8-3.2,2.5.5,3.4,1.3l-1.3,1.6c-.7-.5-1.4-.8-2.1-.8s-1.3.3-1.3.8.7.8,1.6,1.2l1.3.5c1.3.5,2.1,1.4,2.1,2.8s-1.5,3.3-4,3.3-2.8-.5-3.9-1.5Z"/>
            <path class="cls-9" d="M526.1,551.2c0-3.5,2.3-5.5,5-5.5s2.4.6,3.2,1.4l-1.3,1.5c-.5-.5-1.1-.7-1.8-.7-1.4,0-2.5,1.2-2.5,3.2s1,3.3,2.4,3.3,1.5-.3,2-.9l1.3,1.5c-.9,1-2.1,1.5-3.4,1.5-2.7,0-4.9-1.8-4.9-5.3Z"/>
            <path class="cls-9" d="M535.9,545.9h2.5v8.3h4v2.1h-6.5v-10.4Z"/>
            <path class="cls-9" d="M544.2,545.9h2.5v4.1h0l3-4.1h2.7l-3.1,4.2,3.7,6.2h-2.7l-2.5-4.3-1.1,1.5v2.7h-2.5v-10.4Z"/>
          </g>
          <g>
            <path class="cls-9" d="M494,584.8h2.2v-5.9h-1.9v-1.5c1.1-.2,1.8-.5,2.6-.9h1.8v8.4h1.9v2h-6.6v-2Z"/>
            <path class="cls-9" d="M502,585.3c2.7-2.3,4.4-4.2,4.4-5.6s-.5-1.5-1.4-1.5-1.3.5-1.8,1l-1.3-1.3c1-1.1,1.9-1.7,3.4-1.7s3.4,1.3,3.4,3.3-1.7,3.8-3.3,5.4c.5,0,1.2-.1,1.7-.1h2.1v2.1h-7.2v-1.5Z"/>
            <path class="cls-9" d="M513.2,575.4h1.6l-3.1,13.9h-1.6l3.1-13.9Z"/>
            <path class="cls-9" d="M516.5,576.4h2.7l1.6,4.5c.2.6.4,1.2.6,1.9h0c.2-.7.4-1.3.6-1.9l1.6-4.5h2.7v10.4h-2.3v-3.6c0-1,.2-2.8.3-3.8h0l-.9,2.7-1.4,3.8h-1.4l-1.4-3.8-.8-2.7h0c.1,1,.3,2.8.3,3.8v3.6h-2.2v-10.4Z"/>
            <path class="cls-9" d="M528.8,576.4h2.5v10.4h-2.5v-10.4Z"/>
            <path class="cls-9" d="M533,585.5l1.3-1.6c.7.6,1.7,1,2.6,1s1.4-.4,1.4-.9-.6-.8-1.5-1.2l-1.3-.6c-1.1-.4-2.1-1.3-2.1-2.8s1.6-3.2,3.8-3.2,2.5.5,3.4,1.3l-1.3,1.6c-.7-.5-1.4-.8-2.1-.8s-1.3.3-1.3.8.7.8,1.6,1.2l1.3.5c1.3.5,2.1,1.4,2.1,2.8s-1.5,3.3-4,3.3-2.8-.5-3.9-1.5Z"/>
            <path class="cls-9" d="M542.1,581.6c0-3.4,1.9-5.4,4.8-5.4s4.8,2,4.8,5.4-1.9,5.4-4.8,5.4-4.8-2-4.8-5.4ZM549.1,581.6c0-2-.8-3.2-2.2-3.2s-2.2,1.2-2.2,3.2.9,3.3,2.2,3.3,2.2-1.3,2.2-3.3Z"/>
          </g>
          <g>
            <path class="cls-9" d="M486.7,612.3c-.4,0-.8.4-1.1.9l-1.3-1c.8-1.2,1.6-1.7,2.4-1.7,1.3,0,1.9,1.2,2.8,1.2s.8-.4,1.1-.9l1.3,1c-.8,1.2-1.6,1.7-2.4,1.7-1.3,0-1.9-1.2-2.8-1.2Z"/>
            <path class="cls-9" d="M493.4,615.3h2.2v-5.9h-1.9v-1.5c1.1-.2,1.8-.5,2.6-.9h1.8v8.4h1.9v2h-6.6v-2Z"/>
            <path class="cls-9" d="M501.9,615.3h2.2v-5.9h-1.9v-1.5c1.1-.2,1.8-.5,2.6-.9h1.8v8.4h1.9v2h-6.6v-2Z"/>
            <path class="cls-9" d="M512.6,606h1.6l-3.1,13.9h-1.6l3.1-13.9Z"/>
            <path class="cls-9" d="M515.9,606.9h2.7l1.6,4.5c.2.6.4,1.2.6,1.9h0c.2-.7.4-1.3.6-1.9l1.6-4.5h2.7v10.4h-2.3v-3.6c0-1,.2-2.8.3-3.8h0l-.9,2.7-1.4,3.8h-1.4l-1.4-3.8-.8-2.7h0c.1,1,.3,2.8.3,3.8v3.6h-2.2v-10.4Z"/>
            <path class="cls-9" d="M527.7,612.1c0-3.4,1.9-5.4,4.8-5.4s4.8,2,4.8,5.4-1.9,5.4-4.8,5.4-4.8-2-4.8-5.4ZM534.7,612.1c0-2-.8-3.2-2.2-3.2s-2.2,1.2-2.2,3.2.9,3.3,2.2,3.3,2.2-1.3,2.2-3.3Z"/>
            <path class="cls-9" d="M538.5,616l1.3-1.6c.7.6,1.7,1,2.6,1s1.4-.4,1.4-.9-.6-.8-1.5-1.2l-1.3-.6c-1.1-.4-2.1-1.3-2.1-2.8s1.6-3.2,3.8-3.2,2.5.5,3.4,1.3l-1.3,1.6c-.7-.5-1.4-.8-2.1-.8s-1.3.3-1.3.8.7.8,1.6,1.2l1.3.5c1.3.5,2.1,1.4,2.1,2.8s-1.5,3.3-4,3.3-2.8-.5-3.9-1.5Z"/>
            <path class="cls-9" d="M548.1,606.9h2.5v10.4h-2.5v-10.4Z"/>
          </g>
          <g>
            <path class="cls-9" d="M528.6,642.8c-.4,0-.8.4-1.1.9l-1.3-1c.8-1.2,1.6-1.7,2.4-1.7,1.3,0,1.9,1.2,2.8,1.2s.8-.4,1.1-.9l1.3,1c-.8,1.2-1.6,1.7-2.4,1.7-1.3,0-1.9-1.2-2.8-1.2Z"/>
            <path class="cls-9" d="M535.3,645.8h2.2v-5.9h-1.9v-1.5c1.1-.2,1.8-.5,2.6-.9h1.8v8.4h1.9v2h-6.6v-2Z"/>
            <path class="cls-9" d="M543.3,642.6c0-3.6,1.5-5.4,3.7-5.4s3.7,1.8,3.7,5.4-1.5,5.4-3.7,5.4-3.7-1.9-3.7-5.4ZM548.3,642.6c0-2.8-.6-3.5-1.3-3.5s-1.3.6-1.3,3.5.6,3.5,1.3,3.5,1.3-.7,1.3-3.5Z"/>
          </g>
          <g>
            <path class="cls-9" d="M536.5,673.3c-.4,0-.8.4-1.1.9l-1.3-1c.8-1.2,1.6-1.7,2.4-1.7,1.3,0,1.9,1.2,2.8,1.2s.8-.4,1.1-.9l1.3,1c-.8,1.2-1.6,1.7-2.4,1.7-1.3,0-1.9-1.2-2.8-1.2Z"/>
            <path class="cls-9" d="M542.8,677.3l1.3-1.5c.3.4,1,.7,1.6.7,1.1,0,1.9-.8,2-3-.5.7-1.4,1-2,1-1.7,0-3-1-3-3.3s1.6-3.5,3.4-3.5,3.9,1.5,3.9,5.3-2,5.5-4.1,5.5-2.4-.6-3.1-1.2ZM546.2,672.8c.5,0,1.1-.3,1.5-.9-.2-1.8-.8-2.3-1.5-2.3s-1.2.5-1.2,1.7.5,1.5,1.2,1.5Z"/>
          </g>
          <path class="cls-9" d="M542.2,706.3c0-1.3.7-2.1,1.7-2.6h0c-.8-.7-1.4-1.5-1.4-2.6,0-1.7,1.4-2.8,3.3-2.8s3.1,1.1,3.1,2.8-.6,1.8-1.3,2.3h0c1,.6,1.8,1.5,1.8,2.9s-1.5,2.8-3.6,2.8-3.6-1.1-3.6-2.8ZM547.1,706.1c0-.9-.8-1.3-2.1-1.9-.4.4-.7,1-.7,1.7s.7,1.4,1.5,1.4,1.3-.4,1.3-1.2ZM547,701.2c0-.8-.4-1.2-1.2-1.2s-1.1.4-1.1,1.1.6,1.3,1.7,1.7c.4-.5.6-1,.6-1.5Z"/>
          <path class="cls-9" d="M546.2,728.2h-4.5v-2.1h7.1v1.5c-2.4,2.9-2.7,4.8-2.8,8.9h-2.5c.2-3.4.7-5.6,2.7-8.3Z"/>
          <g>
            <path class="cls-9" d="M534.8,762c-.4,0-.8.4-1.1.9l-1.3-1c.8-1.2,1.6-1.7,2.4-1.7,1.3,0,1.9,1.2,2.8,1.2s.8-.4,1.1-.9l1.3,1c-.8,1.2-1.6,1.7-2.4,1.7-1.3,0-1.9-1.2-2.8-1.2Z"/>
            <path class="cls-9" d="M541,761.9c0-3.8,2-5.5,4.1-5.5s2.4.6,3,1.2l-1.3,1.5c-.4-.4-1-.7-1.6-.7-1.1,0-1.9.8-2,3,.5-.6,1.4-1,2-1,1.7,0,3,1,3,3.3s-1.6,3.5-3.4,3.5-3.9-1.5-3.9-5.3ZM543.4,763.1c.2,1.7.9,2.2,1.5,2.2s1.2-.5,1.2-1.7-.6-1.5-1.3-1.5-1.1.3-1.5,1Z"/>
          </g>
          <g>
            <path class="cls-9" d="M534.2,792.5c-.4,0-.8.4-1.1.9l-1.3-1c.8-1.2,1.6-1.7,2.4-1.7,1.3,0,1.9,1.2,2.8,1.2s.8-.4,1.1-.9l1.3,1c-.8,1.2-1.6,1.7-2.4,1.7-1.3,0-1.9-1.2-2.8-1.2Z"/>
            <path class="cls-9" d="M540.2,796.3l1.1-1.6c.6.6,1.3,1,2.1,1s1.6-.6,1.6-1.6-.6-1.6-1.5-1.6-.9.1-1.5.5l-1.1-.7.3-5.2h5.8v2.1h-3.7v1.8c.2-.1.5-.2.9-.2,1.8,0,3.2,1,3.2,3.3s-1.8,3.7-3.8,3.7-2.8-.6-3.6-1.4Z"/>
          </g>
          <path class="cls-9" d="M543.9,825.5h-4.4v-1.7l3.6-6.1h3.1v5.9h1.2v1.9h-1.2v2.6h-2.3v-2.6ZM543.9,823.6v-1.5c0-.7,0-1.6,0-2.3h0c-.3.6-.5,1.2-.8,1.8l-1.2,2.1h2Z"/>
          <g>
            <path class="cls-9" d="M533,853.6c-.4,0-.8.4-1.1.9l-1.3-1c.8-1.2,1.6-1.7,2.4-1.7,1.3,0,1.9,1.2,2.8,1.2s.8-.4,1.1-.9l1.3,1c-.8,1.2-1.6,1.7-2.4,1.7-1.3,0-1.9-1.2-2.8-1.2Z"/>
            <path class="cls-9" d="M539,857.3l1.1-1.6c.6.6,1.4,1,2.2,1s1.6-.4,1.6-1.2-.5-1.4-2.7-1.4v-1.8c1.8,0,2.3-.5,2.3-1.4s-.4-1.1-1.2-1.1-1.2.3-1.9.9l-1.2-1.5c.9-.8,2-1.3,3.2-1.3,2.2,0,3.6,1,3.6,2.9s-.6,1.8-1.7,2.3h0c1.2.4,2,1.2,2,2.6,0,2-1.8,3-3.8,3s-2.8-.6-3.6-1.4Z"/>
          </g>
          <path class="cls-9" d="M538.7,887.6c2.7-2.3,4.4-4.2,4.4-5.6s-.5-1.5-1.4-1.5-1.3.5-1.8,1l-1.3-1.3c1-1.1,1.9-1.7,3.4-1.7s3.4,1.3,3.4,3.3-1.7,3.8-3.3,5.4c.5,0,1.2-.1,1.7-.1h2.1v2.1h-7.2v-1.5Z"/>
          <g>
            <path class="cls-9" d="M508.9,912.2h-2.8v-2.1h8.1v2.1h-2.8v8.3h-2.5v-8.3Z"/>
            <path class="cls-9" d="M517.4,915.1l-2.7-5.1h2.8l.8,1.9c.2.5.5,1,.8,1.7h0c.2-.7.5-1.2.7-1.7l.8-1.9h2.6l-2.7,5.2,2.9,5.2h-2.8l-1-2c-.3-.5-.5-1.1-.8-1.7h0c-.2.6-.5,1.2-.7,1.7l-.9,2h-2.7l2.9-5.4Z"/>
            <path class="cls-9" d="M537.2,915.2l-5,5c-.4.4-1,.4-1.4,0s-.4-1,0-1.4l3.3-3.3h-9.6c-.6,0-1-.4-1-1s.4-1,1-1h9.6l-3.3-3.3c-.4-.4-.4-1,0-1.4s1-.4,1.4,0l5,5c.4.4.4,1,0,1.4h0Z"/>
            <path class="cls-9" d="M538.6,918.5h2.2v-5.9h-1.9v-1.5c1.1-.2,1.8-.5,2.6-.9h1.8v8.4h1.9v2h-6.6v-2Z"/>
          </g>
          <g>
            <path class="cls-9" d="M505.2,940.6h3.8c2.2,0,4.1.8,4.1,3.3s-.7,2.5-1.8,3l2.3,4.1h-2.8l-1.9-3.7h-1.2v3.7h-2.5v-10.4ZM508.9,945.4c1.2,0,1.8-.5,1.8-1.5s-.6-1.3-1.8-1.3h-1.1v2.8h1.1Z"/>
            <path class="cls-9" d="M516.8,945.7l-2.7-5.1h2.8l.8,1.9c.2.5.5,1,.8,1.7h0c.2-.7.5-1.2.7-1.7l.8-1.9h2.6l-2.7,5.2,2.9,5.2h-2.8l-1-2c-.3-.5-.5-1.1-.8-1.7h0c-.2.6-.5,1.2-.7,1.7l-.9,2h-2.7l2.9-5.4Z"/>
            <path class="cls-9" d="M523.2,944.3l5-5c.4-.4,1-.4,1.4,0s.4,1,0,1.4l-3.3,3.3h9.6c.6,0,1,.4,1,1s-.4,1-1,1h-9.6l3.3,3.3c.4.4.4,1,0,1.4s-1,.4-1.4,0l-5-5c-.4-.4-.4-1,0-1.4h0Z"/>
            <path class="cls-9" d="M537.5,945.8c0-3.6,1.5-5.4,3.7-5.4s3.7,1.8,3.7,5.4-1.5,5.4-3.7,5.4-3.7-1.9-3.7-5.4ZM542.5,945.8c0-2.8-.6-3.5-1.3-3.5s-1.3.6-1.3,3.5.6,3.5,1.3,3.5,1.3-.7,1.3-3.5Z"/>
          </g>
        </g>
        <g>
          <rect class="cls-13" x="396.1" y="525.8" width="10.7" height="17.2"/>
          <rect class="cls-21" x="396.1" y="528.3" width="10.7" height="11.8"/>
        </g>
      </g>
      <rect id="rect462" class="cls-14" x="574.8" y="512.9" width="241.1" height="11.3"/>
      <g>
        <path class="cls-1" d="M686.8,443.5c0,4.6,1.5,8.8,3.9,11.9v33.7c-2.4,3.2-3.9,7.3-3.9,11.9,0,9.8,6.7,17.8,14.9,17.8s14.9-8,14.9-17.8-1.5-8.8-3.9-11.9v-33.7c2.4-3.2,3.9-7.3,3.9-11.9,0-9.8-6.7-17.8-14.9-17.8s-14.9,8-14.9,17.8Z"/>
        <line class="cls-5" x1="686.9" y1="441.3" x2="716.6" y2="441.3"/>
        <line class="cls-7" x1="686.9" y1="503.1" x2="716.6" y2="503.1"/>
        <line class="cls-7" x1="690.6" y1="484.9" x2="712.9" y2="484.9"/>
        <line class="cls-6" x1="690.6" y1="478.7" x2="712.8" y2="478.7"/>
        <line class="cls-6" x1="690.6" y1="468.1" x2="712.8" y2="468.1"/>
        <line class="cls-4" x1="701.7" y1="518.9" x2="701.7" y2="589.5"/>
        <line class="cls-4" x1="701.7" y1="355" x2="701.7" y2="425.7"/>
      </g>
      <g>
        <path class="cls-1" d="M723.3,443.5c0,4.6,1.5,8.8,3.9,11.9v33.7c-2.4,3.2-3.9,7.3-3.9,11.9,0,9.8,6.7,17.8,14.9,17.8s14.9-8,14.9-17.8-1.5-8.8-3.9-11.9v-33.7c2.4-3.2,3.9-7.3,3.9-11.9,0-9.8-6.7-17.8-14.9-17.8s-14.9,8-14.9,17.8Z"/>
        <line class="cls-5" x1="723.5" y1="441.3" x2="753.2" y2="441.3"/>
        <line class="cls-7" x1="723.5" y1="503.1" x2="753.2" y2="503.1"/>
        <line class="cls-7" x1="727.2" y1="484.9" x2="749.4" y2="484.9"/>
        <line class="cls-6" x1="727.1" y1="478.7" x2="749.4" y2="478.7"/>
        <line class="cls-6" x1="727.1" y1="468.1" x2="749.4" y2="468.1"/>
        <line class="cls-4" x1="738.3" y1="518.9" x2="738.3" y2="589.5"/>
        <line class="cls-4" x1="738.3" y1="355" x2="738.3" y2="425.7"/>
      </g>
      <path class="cls-1" d="M759.2,443.5c0,4.6,1.5,8.8,3.9,11.9v33.7c-2.4,3.2-3.9,7.3-3.9,11.9,0,9.8,6.7,17.8,14.9,17.8s14.9-8,14.9-17.8-1.5-8.8-3.9-11.9v-33.7c2.4-3.2,3.9-7.3,3.9-11.9,0-9.8-6.7-17.8-14.9-17.8s-14.9,8-14.9,17.8Z"/>
      <line class="cls-5" x1="759.4" y1="441.3" x2="789.1" y2="441.3"/>
      <line class="cls-7" x1="759.4" y1="503.1" x2="789.1" y2="503.1"/>
      <line class="cls-7" x1="763.1" y1="484.9" x2="785.4" y2="484.9"/>
      <line class="cls-6" x1="763.1" y1="478.7" x2="785.3" y2="478.7"/>
      <line class="cls-6" x1="763.1" y1="468.1" x2="785.3" y2="468.1"/>
      <line class="cls-4" x1="774.2" y1="518.9" x2="774.2" y2="579.6"/>
      <line class="cls-4" x1="774.2" y1="355" x2="774.2" y2="425.7"/>
      <sodipodi:namedview id="namedview90" bordercolor="#666666" borderopacity="1" gridtolerance="10" guidetolerance="10" inkscape:current-layer="svg8" inkscape:cx="572.54681" inkscape:cy="434.1734" inkscape:pageopacity="0" inkscape:pageshadow="2" inkscape:window-height="1017" inkscape:window-maximized="1" inkscape:window-width="1920" inkscape:window-x="-8" inkscape:window-y="-8" inkscape:zoom="1.8982998" objecttolerance="10" pagecolor="#ffffff" showgrid="false"/>
      <rect id="rect302" class="cls-20" x="696" y="529.7" width="11.3" height="117.1"/>
      <rect id="rect304" class="cls-37" x="732.3" y="529.3" width="11.3" height="86.3"/>
      <rect id="rect306" class="cls-3" x="768.5" y="529.3" width="11.3" height="56"/>
      <g id="layer1-7">
        <rect id="rect815-4" x="651.8" y="93.2" width="208.5" height="277.7"/>
        <path id="path31-1-8" class="cls-9" d="M711.1,113.9c1.3,0,1.4,0,1.7-.2.2-.1.3-.2.4-.4.1-.2.2-.4.2-3v-2.8s2.8,0,2.8,0h2.8v3.5c0,3.8,0,4.2-.4,5.2-.4,1.3-1.6,2.1-2.9,2.3-.8.1-1.7.2-2.5.1-1.1,0-2.3,0-2.7,0h-.7c0,0,0-2.3,0-2.3v-2.3s1.4,0,1.4,0h0ZM737.3,121.7c23.5,0,29.3,0,28.3.1h-.2s.2,0,.2,0c.1,0,.1,0-.1,0-.2,0,0,0,.2,0h.5s-.5,0-.5,0c-.3,0-.4,0-.4,0,.1,0,.1.1.1.7s0,.6.2.7c.1,0,.1,0-.1,0-.2,0-.3,0-.3,0s-9.3,0-27.8,0h-27.8v-2h27.6ZM716.1,100.3h2.8v4.5h-5.6v-4.5h2.8ZM721.7,108.7c.2-1.2.5-2.3,1.1-3.4.1-.2.2-.5.4-.7.1-.1.2-.3.3-.4.3-.5.7-.9,1.1-1.4,0,0,0,0,0-.1.4-.4.8-.8,1.2-1.1.6-.4,1.3-.8,2.1-1,1.1-.4,2.2-.6,3.3-.5.7,0,1.3,0,2,.3.4.1.9.3,1.1.4.1,0,.3.1.4.2.2,0,.5.2.7.4,1.6,1.1,2.9,2.6,3.8,4.4,1.1,2.2,1.2,4.7.4,7-.3.7-.6,1.5-1,2.1-.4.7-1,1.4-1.6,1.9-1.1,1.1-2.4,1.9-4,2.3-1.1.3-2.3.3-3.5.2-1.4-.3-2.6-.8-3.8-1.6-.4-.3-.8-.7-1.2-1-.1-.2-.2-.3-.4-.4-1.2-1.3-2-2.9-2.4-4.6-.2-.9-.2-1.8-.2-2.7h0ZM727.1,111c.3,1,.8,2,1.6,2.7.9.8,2.2,1.1,3.3.7,1.5-.6,2.5-1.9,2.9-3.4.2-1,.2-2.1,0-3.1-.3-1.2-1-2.2-1.9-2.9-.3-.2-.7-.4-1.1-.5-.9-.2-1.8,0-2.6.3-.8.5-1.4,1.2-1.8,2-.7,1.3-.8,2.8-.5,4.2ZM742.7,100.4s1.3,0,2.8,0h2.7s0,2.5,0,2.5c0,2.3,0,2.5.2,2.9.5,1.1,1.7,1.6,2.8,1.3.5-.2,1-.6,1.2-1.1l.2-.5v-2.6s0-2.6,0-2.6h5.6v2.9c0,2.7,0,2.9-.2,3.5-.3,1-.8,2-1.4,2.9-.1.1-.2.3-.3.4-.4.5-.8.9-1.3,1.2-.5.4-1.1.7-1.6.9-.1,0-.5.1-.9.2-.6.2-1.3.3-2,.2-.7,0-1.4,0-2.1-.2-.8-.2-1.5-.5-2.2-.9-.8-.5-1.6-1.3-2.1-2.1-.8-1-1.2-2.3-1.3-3.5-.1-1.8-.1-3.6,0-5.4h0ZM750.4,114h4.5v4.7h-9.1v-4.7h4.5ZM758.2,96.8s0-.1,0-.3c0-.3,0-.3.3-.3.2,0,7.9,0,17.1,0h16.7s0,1,0,1v1h-17c-9.4,0-17.1,0-17.1,0,0,0-.1-.2-.1-.7s0-.6,0-.6h0ZM765.8,108h5.8v4.6h-11.6v-4.6h5.8ZM776.2,100.3h2.8v4.5h-5.6v-4.5h2.8ZM776.2,107.2h2.8v11.7h-5.6v-11.7h2.8ZM787.2,100.3h5.8v4.5h-11.6v-4.5h5.8ZM782.4,107.6s1.3,0,2.7,0h2.7s0,2.7,0,2.7c0,3.8-.1,3.6,2.7,3.6h1.8v4.7h-.7c-1.7.2-3.4.2-5,0-1.2,0-2.3-.6-3.1-1.5-.7-.8-1.1-1.8-1.1-2.9,0-.8-.1-6.6,0-6.7h0ZM796.3,98.1c.1-.5.4-.9.7-1.2,1.1-1.1,2.8-1.2,4-.3.4.3.8.7,1,1.1.2.4.3.8.2,1.2,0,.4,0,.9-.2,1.2-.5,1-1.5,1.6-2.5,1.7-.9,0-1.8-.3-2.5-1-.7-.7-1-1.8-.7-2.8h0ZM796.9,100c.4.7,1.1,1.2,1.8,1.4.8.2,1.7,0,2.3-.6.2-.2.4-.4.6-.7.2-.3.3-.7.2-1.1,0-.4,0-.8-.3-1.1-.2-.3-.4-.6-.7-.8-.3-.2-.5-.3-.8-.4-1.3-.4-2.7.2-3.3,1.5-.2.7-.2,1.4,0,2h0ZM798.9,97.1c.4,0,.8,0,1.2,0,.5.3.6.9.3,1.4-.1.1-.3.2-.4.3h-.3c0,0,.3.4.3.4.2.2.3.4.5.7,0,.2.2.3.3.5.2,0,0,.2-.3.2h-.3s-.5-.7-.5-.7c-.5-.8-.6-.8-1.1-.8h-.3v1.6h-.2s-.2,0-.2,0v-1.7s0-1.7,0-1.7h1ZM799,98.6c.6,0,.7,0,.9-.2.4-.3.2-.8-.4-.9-.4,0-.7,0-1.1,0,0,.2,0,.3,0,.5v.5h.7Z"/>
        <circle id="path84-1" class="cls-26" cx="681.9" cy="130.7" r="20.8"/>
        <circle id="circle86-9" class="cls-26" cx="830" cy="130.7" r="20.8"/>
        <circle id="path88-8" class="cls-10" cx="681.9" cy="130.7" r="18.5"/>
        <circle id="circle90" class="cls-10" cx="830" cy="130.7" r="18.5"/>
        <rect id="rect821-0" class="cls-9" x="683.2" y="324.4" width="145.7" height="37" transform="translate(-2.6 5.9) rotate(-.4)"/>
        <rect id="rect825-5" class="cls-33" x="684" y="326.9" width="35.5" height="32.8" rx="6.9" ry="6.9" transform="translate(-2.7 5.5) rotate(-.5)"/>
        <rect id="rect872-5" class="cls-33" x="756.4" y="326.3" width="35.5" height="32.8" rx="6.9" ry="6.9" transform="translate(-2.7 6.1) rotate(-.5)"/>
        <rect id="rect874-8" class="cls-33" x="720.2" y="326.6" width="35.5" height="32.8" rx="6" ry="6" transform="translate(-2.7 5.8) rotate(-.5)"/>
        <rect id="rect947-6" class="cls-25" x="700" y="344.7" width="3.7" height="69.4" transform="translate(-3 5.6) rotate(-.5)"/>
        <rect id="rect949-3" class="cls-25" x="736.4" y="344.5" width="3.7" height="69.4" transform="translate(-3 5.9) rotate(-.5)"/>
        <rect id="rect951-5" class="cls-25" x="772.4" y="344.2" width="3.7" height="69.4" transform="translate(-3 6.2) rotate(-.5)"/>
        <rect id="rect64" class="cls-33" x="792.4" y="326.1" width="35.5" height="32.8" rx="6.9" ry="6.9" transform="translate(-2.7 6.4) rotate(-.5)"/>
        <rect id="rect66" class="cls-25" x="808.4" y="343.9" width="3.7" height="69.4" transform="translate(-3 6.4) rotate(-.5)"/>
        <circle id="path128-8" class="cls-26" cx="721.3" cy="214.9" r="18.5"/>
        <circle id="circle134-9" class="cls-26" cx="739.8" cy="261.2" r="18.5"/>
        <circle id="circle136-2" class="cls-26" cx="786" cy="214.9" r="18.5"/>
        <circle id="circle138-7" class="cls-26" cx="804.6" cy="261.2" r="18.5"/>
        <polygon id="rect140-3" class="cls-25" points="693.9 160 697.6 160 723.1 214.9 719.4 214.9 693.9 160"/>
        <polygon id="rect142-8" class="cls-25" points="738.1 173.7 741.8 173.8 741.6 261.2 737.9 261.2 738.1 173.7"/>
        <polygon id="rect144-7" class="cls-25" points="783.7 173.6 787.4 173.6 787.2 214.9 783.5 214.9 783.7 173.6"/>
        <g id="text91" class="cls-22">
          <g id="text37" class="cls-22">
            <g class="cls-22">
              <path class="cls-9" d="M672.4,295.8c0,0,.1,0,.2,0,0,0,.1,0,.2.2s0,.2,0,.4c0,.2,0,.4,0,.6s0,.6,0,.8c0,.2,0,.4-.2.5,0,.1-.2.2-.3.3l-9.3,6.8h9.3c0,0,.1,0,.2,0,0,0,.1.1.1.2,0,0,0,.2,0,.4,0,.2,0,.4,0,.6s0,.4,0,.6c0,.2,0,.3,0,.4,0,0,0,.2-.1.2,0,0-.1,0-.2,0h-17.8c0,0-.1,0-.2,0,0,0-.1-.1-.1-.2,0,0,0-.2,0-.4,0-.2,0-.4,0-.6s0-.4,0-.6c0-.2,0-.3,0-.4,0,0,0-.2.1-.2s.1,0,.2,0h8.2l-8.2-6.6c0,0-.2-.1-.2-.2,0,0-.1-.2-.1-.3,0-.1,0-.2,0-.4,0-.2,0-.4,0-.6s0-.4,0-.6c0-.2,0-.3,0-.4,0,0,0-.2.1-.2,0,0,.1,0,.2,0,.1,0,.2,0,.4,0,.1,0,.3.2.5.4l7.4,6.2,8.8-6.6c.2-.2.4-.3.5-.3,0,0,.2,0,.2,0Z"/>
            </g>
            <g class="cls-22">
              <path class="cls-9" d="M665.6,286.7h6.8c0,0,.1,0,.2,0,0,0,.1.1.1.2,0,0,0,.2,0,.4,0,.2,0,.4,0,.6s0,.4,0,.6c0,.2,0,.3,0,.4,0,.1,0,.2-.1.2,0,0-.1,0-.2,0h-6.8l-10.5,5.3c-.2.1-.4.2-.5.2s-.2,0-.3,0c0,0-.1-.2-.1-.4s0-.4,0-.8,0-.5,0-.7c0-.2,0-.3,0-.4,0-.1,0-.2.1-.2,0,0,.1-.1.2-.2l5.3-2.6c.5-.2,1-.5,1.6-.7s1.1-.5,1.7-.7h0c-.5-.2-1.1-.5-1.6-.7s-1.1-.5-1.6-.7l-5.4-2.6c0,0-.2,0-.2-.1,0,0-.1-.1-.2-.2,0,0,0-.2,0-.4s0-.4,0-.6,0-.6,0-.8c0-.2,0-.3.1-.4,0,0,.2-.1.3,0,.1,0,.3,0,.5.2l10.5,5.3Z"/>
            </g>
            <g class="cls-22">
              <path class="cls-9" d="M665.6,274.5c.4,0,.6,0,.8.1.1,0,.2.2.2.4v6c0,.2,0,.3-.2.4s-.4.1-.8.1-.6,0-.8-.1c-.1,0-.2-.2-.2-.4v-6c0,0,0-.1,0-.2,0,0,0-.1.2-.2s.2,0,.3-.1c.1,0,.3,0,.5,0Z"/>
              <path class="cls-9" d="M663.5,259.6c1.4,0,2.7.1,3.9.3s2.2.6,3,1.1,1.5,1.2,2,2c.5.8.7,1.9.7,3.1s-.2,2.1-.6,2.9-1,1.4-1.8,1.9c-.8.5-1.8.8-3,1-1.2.2-2.5.3-4.1.3s-2.7-.1-3.9-.3-2.2-.6-3-1.1-1.5-1.2-2-2c-.5-.8-.7-1.9-.7-3.1s.2-2.2.6-3c.4-.8,1-1.4,1.8-1.9.8-.5,1.8-.8,3-1,1.2-.2,2.5-.3,4.1-.3ZM663.7,262.1c-.9,0-1.8,0-2.5.1-.7,0-1.4.2-2,.3-.6.1-1,.3-1.5.5s-.7.5-1,.7c-.3.3-.5.6-.6,1-.1.4-.2.8-.2,1.2,0,.8.2,1.5.6,2,.4.5.9.9,1.6,1.2.7.3,1.5.5,2.4.6.9.1,1.9.2,2.9.2s2.6,0,3.5-.2c1-.1,1.8-.4,2.4-.7s1.1-.7,1.3-1.2c.3-.5.4-1.1.4-1.8s0-1-.3-1.4c-.2-.4-.4-.8-.7-1-.3-.3-.7-.5-1.2-.7-.5-.2-.9-.3-1.5-.5-.5-.1-1.1-.2-1.8-.2s-1.3,0-2,0Z"/>
              <path class="cls-9" d="M671.8,245.3c.2,0,.3,0,.5,0s.2,0,.3.1c0,0,.1.1.2.2,0,0,0,.1,0,.2v9.7c0,0,0,.1,0,.2,0,0,0,.1-.2.2,0,0-.2,0-.3.1s-.3,0-.5,0-.3,0-.4,0c-.1,0-.2,0-.3-.1,0,0-.1,0-.2-.2,0,0,0-.1,0-.2v-3.9h-14.1l2.1,3.6c0,.2.2.3.2.4,0,.1,0,.2,0,.3,0,0-.2.1-.3.1-.1,0-.3,0-.5,0s-.3,0-.4,0c-.1,0-.2,0-.3,0,0,0-.1,0-.2-.1,0,0-.1-.1-.2-.2l-2.7-4.3s0,0,0-.1c0,0,0-.1,0-.2,0,0,0-.2,0-.3s0-.3,0-.4,0-.4,0-.6c0-.2,0-.3,0-.4,0,0,0-.1.1-.2s.1,0,.2,0h16.3v-3.4c0,0,0-.1,0-.2,0,0,.1-.1.2-.2,0,0,.2,0,.3-.1.1,0,.3,0,.4,0Z"/>
              <path class="cls-9" d="M666.8,230c.8,0,1.6.1,2.4.4.8.2,1.4.6,2,1.1.6.5,1,1.2,1.4,2,.3.8.5,1.7.5,2.8s0,1.5-.3,2.1c-.2.6-.5,1.1-.8,1.5s-.8.8-1.3,1.1c-.5.3-1.1.5-1.8.7-.7.2-1.4.3-2.2.4s-1.6.1-2.5.1-1.6,0-2.4-.1c-.8,0-1.6-.2-2.4-.5-.8-.2-1.5-.5-2.1-.9-.7-.4-1.2-.9-1.7-1.4-.5-.6-.9-1.3-1.2-2s-.4-1.7-.4-2.8,0-.7,0-1.1c0-.4.1-.7.2-1,0-.3.2-.6.2-.8s.2-.3.2-.4c0,0,.1-.1.2-.2,0,0,.1,0,.2,0,0,0,.2,0,.2,0,0,0,.2,0,.3,0s.3,0,.4,0c.1,0,.2,0,.3,0,0,0,.1,0,.2.1,0,0,0,.1,0,.2s0,.2-.1.4c0,.2-.1.4-.2.7,0,.3-.2.6-.2.9,0,.4-.1.8-.1,1.3,0,.9.2,1.7.5,2.3.4.6.9,1.2,1.5,1.6.6.4,1.3.7,2.1.9.8.2,1.7.3,2.5.3-.1-.2-.3-.5-.4-.8s-.3-.7-.4-1c-.1-.4-.2-.8-.3-1.2,0-.4-.1-.9-.1-1.3,0-1,.1-1.9.4-2.5.3-.7.7-1.2,1.1-1.7.5-.4,1.1-.7,1.7-.9.7-.2,1.4-.3,2.1-.3ZM667,232.5c-.6,0-1.1,0-1.5.2-.5.1-.8.3-1.2.6s-.6.6-.7,1c-.2.4-.3,1-.3,1.6s0,.7,0,1.1c0,.4.1.7.3,1,.1.3.2.6.4.9s.3.6.5.8c1.2,0,2.3,0,3.1-.2s1.5-.4,2-.7c.5-.3.9-.7,1.1-1.1.2-.4.3-1,.3-1.6s-.1-1.1-.3-1.6c-.2-.4-.5-.8-.9-1.1-.4-.3-.8-.5-1.3-.7-.5-.1-1-.2-1.5-.2Z"/>
            </g>
          </g>
        </g>
        <g id="text95" class="cls-22">
          <g class="cls-22">
            <path class="cls-9" d="M808.5,192.5c0,.9-.1,1.6-.4,2.3-.3.7-.7,1.3-1.3,1.8-.6.5-1.2.9-2.1,1.1-.8.3-1.7.4-2.8.4s-1.2,0-1.7-.2c-.5-.1-1-.2-1.4-.4s-.8-.3-1-.4-.5-.3-.5-.3c0,0-.1-.1-.2-.2,0,0,0-.1-.1-.2,0,0,0-.2,0-.4s0-.3,0-.5c0-.3,0-.6.1-.7,0-.1.2-.2.3-.2s.3,0,.5.2.6.3,1,.5.9.3,1.4.5,1.2.2,1.8.2,1.2,0,1.7-.2c.5-.2.9-.4,1.2-.7.3-.3.6-.6.8-1.1s.2-.8.2-1.3-.1-1-.3-1.4c-.2-.4-.5-.8-.9-1.1-.4-.3-.9-.5-1.5-.7-.6-.2-1.3-.2-2-.2h-1.8c0,0-.2,0-.2,0,0,0-.1,0-.2-.2,0,0,0-.2-.1-.3s0-.3,0-.5,0-.3,0-.5c0-.1,0-.2.1-.3,0,0,.1-.1.2-.2,0,0,.1,0,.2,0h1.6c.6,0,1.2,0,1.7-.2.5-.2.9-.4,1.3-.7.3-.3.6-.7.8-1.1s.3-.9.3-1.4,0-.7-.2-1.1c-.1-.3-.3-.7-.6-.9-.2-.3-.6-.5-1-.6-.4-.1-.8-.2-1.3-.2s-1.1,0-1.5.3-.9.3-1.2.5-.7.4-.9.5c-.2.2-.4.3-.5.3s-.1,0-.2,0c0,0,0,0-.1-.1,0,0,0-.2,0-.3s0-.3,0-.5,0-.3,0-.4c0-.1,0-.2,0-.3,0,0,0-.2,0-.2,0,0,.1-.1.2-.2s.3-.2.6-.4c.3-.2.6-.3,1-.5.4-.2.9-.3,1.4-.4.5-.1,1.1-.2,1.7-.2s1.6.1,2.3.3c.7.2,1.2.5,1.6.9.4.4.8.9,1,1.4.2.6.3,1.2.3,1.9s0,1.1-.2,1.6c-.2.5-.4.9-.7,1.3-.3.4-.7.7-1.1,1-.4.3-.9.5-1.5.6h0c.6,0,1.2.3,1.8.5.5.3,1,.6,1.4,1,.4.4.7.8.9,1.3.2.5.3,1.1.3,1.6Z"/>
            <path class="cls-9" d="M825,202c0,.3,0,.6-.1.7,0,.2-.2.2-.4.2h-13.8c-.2,0-.3,0-.4-.2,0-.1-.1-.4-.1-.7s0-.6.1-.7c0-.2.2-.2.4-.2h13.8c.2,0,.3,0,.4.2,0,.2.1.4.1.7Z"/>
            <path class="cls-9" d="M839.8,195.1c0,.2,0,.3,0,.4,0,.1,0,.2,0,.3,0,0,0,.2,0,.2,0,0-.1.1-.2.2,0,0-.3.2-.6.4-.3.2-.7.4-1.1.6-.5.2-1,.3-1.6.5-.6.1-1.2.2-1.9.2-1.2,0-2.3-.2-3.3-.6s-1.8-1-2.5-1.8c-.7-.8-1.2-1.8-1.6-2.9s-.6-2.5-.6-4,.2-2.9.6-4.1c.4-1.2,1-2.2,1.7-3.1s1.6-1.5,2.6-1.9c1-.4,2.1-.7,3.3-.7s1.1,0,1.6.2,1,.2,1.4.4c.4.2.8.3,1.1.5.3.2.6.4.7.5.1.1.2.2.3.3,0,0,0,.1,0,.2,0,0,0,.2,0,.3,0,.1,0,.3,0,.4s0,.4,0,.5,0,.2,0,.3c0,0,0,.2-.1.2s-.1,0-.2,0c-.1,0-.3,0-.6-.3-.2-.2-.6-.4-.9-.6-.4-.2-.8-.4-1.4-.6-.5-.2-1.2-.3-2-.3s-1.6.2-2.3.5c-.7.3-1.3.8-1.7,1.5-.5.6-.9,1.4-1.1,2.3s-.4,2-.4,3.2.1,2.2.4,3.1c.3.9.6,1.7,1.1,2.3.5.6,1.1,1.1,1.8,1.4.7.3,1.5.5,2.4.5s1.4,0,1.9-.3c.6-.2,1-.4,1.4-.6s.7-.4,1-.6.4-.3.6-.3.1,0,.2,0c0,0,0,0,.1.2,0,0,0,.2,0,.3,0,.1,0,.3,0,.5Z"/>
            <path class="cls-9" d="M845.2,197.4c0,0,0,.1,0,.2s-.1,0-.2.1-.2,0-.4,0c-.2,0-.3,0-.6,0s-.4,0-.6,0c-.2,0-.3,0-.4,0s-.2,0-.2-.1,0-.1,0-.2v-19.2c0,0,0-.1,0-.2,0,0,0-.1.2-.1s.2,0,.4,0c.2,0,.3,0,.6,0s.4,0,.6,0c.2,0,.3,0,.4,0s.1,0,.2.1c0,0,0,.1,0,.2v19.2Z"/>
            <path class="cls-9" d="M857.1,185.3c0,.2,0,.4,0,.5,0,.1,0,.3,0,.3,0,0,0,.1-.1.2,0,0-.1,0-.2,0s-.2,0-.3,0c-.1,0-.2,0-.4-.1s-.3,0-.5-.1c-.2,0-.4,0-.6,0s-.5,0-.7.1-.5.3-.7.5c-.3.2-.5.5-.8.9-.3.4-.6.8-.9,1.3v8.5c0,0,0,.1,0,.2s-.1,0-.2.1-.2,0-.4,0c-.2,0-.3,0-.6,0s-.4,0-.6,0c-.2,0-.3,0-.4,0s-.2,0-.2-.1,0-.1,0-.2v-12.9c0,0,0-.1,0-.2,0,0,0-.1.2-.1s.2,0,.3,0c.1,0,.3,0,.5,0s.4,0,.5,0c.1,0,.2,0,.3,0,0,0,.1,0,.2.1,0,0,0,.1,0,.2v1.9c.4-.5.7-.9,1-1.3s.6-.6.9-.8.6-.3.8-.4c.3,0,.5-.1.8-.1s.3,0,.4,0c.2,0,.3,0,.5,0,.2,0,.3,0,.5.1s.2,0,.3.1c0,0,0,0,.1.1,0,0,0,0,0,.2,0,0,0,.2,0,.3s0,.3,0,.5Z"/>
          </g>
        </g>
        <g id="text100" class="cls-22">
          <g class="cls-22">
            <path class="cls-9" d="M707.1,320.8c0,0,0,.1,0,.2,0,0,0,.1-.2.1,0,0-.2,0-.4,0-.2,0-.4,0-.7,0s-.5,0-.6,0c-.2,0-.3,0-.4,0s-.2-.1-.2-.2c0,0,0-.2-.1-.3l-1.7-4.4c-.2-.5-.4-1-.6-1.4-.2-.4-.5-.8-.8-1.1-.3-.3-.6-.5-1-.7-.4-.2-.9-.3-1.4-.3h-1.7v7.9c0,0,0,.1,0,.2,0,0-.1.1-.2.1,0,0-.2,0-.4,0-.2,0-.4,0-.6,0s-.4,0-.6,0c-.2,0-.3,0-.4,0,0,0-.2,0-.2-.1,0,0,0-.1,0-.2v-17.2c0-.4,0-.6.3-.8.2-.1.4-.2.6-.2h3.9c.5,0,.9,0,1.2,0,.3,0,.6,0,.8,0,.7.1,1.4.3,1.9.6.5.3,1,.6,1.4,1s.7.9.8,1.4.3,1.1.3,1.8,0,1.2-.3,1.7c-.2.5-.4.9-.7,1.3-.3.4-.7.7-1.1,1-.4.3-.9.5-1.5.7.3.1.6.3.8.5.2.2.5.5.7.7s.4.6.6,1,.4.8.6,1.3l1.7,4.1c.1.3.2.6.3.7,0,.1,0,.2,0,.3ZM703.4,307.8c0-.7-.2-1.3-.5-1.8s-.9-.9-1.6-1.1c-.2,0-.5-.1-.8-.1-.3,0-.7,0-1.2,0h-2.1v6.3h2.4c.7,0,1.2,0,1.7-.2.5-.2.9-.4,1.2-.7s.5-.6.7-1c.1-.4.2-.8.2-1.2Z"/>
          </g>
        </g>
        <g id="text104" class="cls-22">
          <g class="cls-22">
            <path class="cls-9" d="M744.2,304.6c0,.2,0,.3,0,.5,0,.1,0,.3,0,.3,0,0,0,.2-.1.2s-.1,0-.2,0c-.1,0-.3,0-.6-.3s-.6-.4-1.1-.6c-.4-.2-1-.4-1.6-.6-.6-.2-1.4-.3-2.2-.3s-1.9.2-2.8.6c-.8.4-1.5.9-2.1,1.5s-1,1.4-1.3,2.4c-.3.9-.5,1.9-.5,3s.2,2.2.5,3.2c.3.9.8,1.7,1.4,2.3.6.6,1.3,1.1,2.1,1.4s1.7.5,2.7.5,1.2,0,1.7-.2c.6-.1,1.1-.3,1.6-.6v-5.4h-4.3c-.2,0-.3,0-.4-.2,0-.2-.1-.4-.1-.8s0-.3,0-.5,0-.2,0-.3c0,0,0-.1.2-.2,0,0,.1,0,.2,0h5.9c.1,0,.2,0,.3,0,.1,0,.2,0,.3.2,0,0,.2.2.2.3s0,.3,0,.5v7.1c0,.2,0,.5-.1.6s-.3.3-.5.5c-.3.1-.6.3-1.1.5-.4.2-.9.3-1.4.4-.5.1-.9.2-1.4.3-.5,0-1,0-1.4,0-1.4,0-2.7-.2-3.8-.7-1.1-.4-2.1-1.1-2.9-1.9-.8-.8-1.4-1.8-1.8-3-.4-1.1-.6-2.4-.6-3.8s.2-2.8.7-4c.4-1.2,1.1-2.2,1.9-3.1.8-.8,1.8-1.5,2.9-2,1.1-.5,2.4-.7,3.8-.7s1.4,0,2,.2c.6.1,1.2.3,1.7.4.5.2.9.3,1.2.5.3.2.6.4.7.5.1.1.2.3.3.4,0,.2,0,.4,0,.7Z"/>
          </g>
        </g>
        <g id="text108" class="cls-22">
          <g class="cls-22">
            <path class="cls-9" d="M778.8,315.8c0,.6,0,1.1-.2,1.6-.1.5-.4.9-.6,1.3s-.6.7-1,1-.8.5-1.3.7c-.5.2-1,.4-1.5.5s-1.2.2-1.9.2h-4.8c-.2,0-.4,0-.6-.2-.2-.1-.3-.4-.3-.8v-16.6c0-.4,0-.6.3-.8.2-.1.4-.2.6-.2h4.2c1.1,0,2,.1,2.7.3.7.2,1.3.5,1.8.9.5.4.8.9,1.1,1.5.2.6.4,1.2.4,2s0,.9-.2,1.3c-.1.4-.3.8-.5,1.1-.2.3-.5.6-.8.9-.3.3-.7.5-1.1.7.5,0,1,.3,1.4.5.4.3.8.6,1.2,1,.3.4.6.9.8,1.4.2.5.3,1.1.3,1.7ZM775.1,307.5c0-.4,0-.9-.2-1.2s-.3-.7-.6-.9c-.3-.3-.6-.4-1-.6-.4-.1-1-.2-1.7-.2h-2.5v6h2.8c.6,0,1.2,0,1.5-.3.4-.2.7-.4,1-.7s.4-.6.6-1c.1-.4.2-.8.2-1.2ZM776.2,316c0-.6,0-1-.3-1.5s-.4-.8-.8-1.1-.8-.5-1.3-.7c-.5-.1-1.2-.2-1.9-.2h-3v6.5h3.6c.6,0,1.1,0,1.5-.2.4-.1.8-.3,1.1-.6.3-.3.6-.6.8-1,.2-.4.3-.8.3-1.4Z"/>
          </g>
        </g>
        <g id="text112" class="cls-22">
          <g class="cls-22">
            <path class="cls-9" d="M820.2,313.2c0,.4-.1.6-.4.8s-.7.2-1.2.2h-19.3c-.6,0-1,0-1.2-.2-.3-.1-.4-.4-.4-.8s.1-.6.4-.8.7-.2,1.2-.2h19.3c.2,0,.5,0,.7,0s.4,0,.5.2c.1,0,.2.2.3.3,0,.1.1.3.1.5Z"/>
          </g>
        </g>
        <polygon id="rect147-9" class="cls-25" points="814.4 160.2 818.1 160.2 806.4 261.2 802.7 261.2 814.4 160.2"/>
        <rect id="rect881" class="cls-27" x="689.3" y="66.4" width="133.3" height="28.3"/>
        <path id="path883" class="cls-27" d="M689.3,66.7C689.3,29.8,719.1,0,755.9,0s66.7,29.8,66.7,66.6h0"/>
        <path id="rect3802-8" class="cls-24" d="M754.5,6c-33.8.8-60.9,28.4-61,62.2h0v91.6h-4.6v13.9h134.2v-13.9h-4.6v-91.6h0c-.1-34.5-28.2-62.4-62.7-62.2-.4,0-.8,0-1.2,0Z"/>
        <rect id="rect149-3" class="cls-23" x="781.7" y="123.6" width="69.4" height="3.7" transform="translate(688.6 941.5) rotate(-89.8)"/>
        <rect id="rect151-5" class="cls-23" x="661.1" y="123.4" width="69.4" height="3.7" transform="translate(568.6 820.7) rotate(-89.8)"/>
      </g>
      <rect id="rect320" class="cls-14" x="804.6" y="382" width="11.3" height="142.2"/>
      <polygon id="rect320-2" class="cls-3" points="779.9 382.1 779.5 418.8 768.6 418.7 769 382 779.9 382.1"/>
      <rect id="rect320-3" class="cls-37" x="732.6" y="382" width="11.3" height="36.7"/>
      <rect id="rect320-4" class="cls-20" x="696.1" y="382" width="11.3" height="36.7"/>
      <circle id="path1096" class="cls-20" cx="701.7" cy="382.5" r="9.4"/>
      <circle id="circle1098" class="cls-37" cx="738.3" cy="382" r="9.4"/>
      <circle id="circle1100" class="cls-14" cx="810.2" cy="382" r="9.4" transform="translate(303.3 1120.5) rotate(-80.8)"/>
      <circle id="circle1102" class="cls-3" cx="774.2" cy="382" r="9.4"/>
      <g id="text1749" class="cls-22">
        <g class="cls-22">
          <path class="cls-9" d="M710.7,490.6c.2,0,.4,0,.5,0,.1,0,.2,0,.3.1,0,0,.1.1.2.2,0,0,0,.1,0,.2v10.6c0,0,0,.1,0,.2,0,0,0,.1-.2.2,0,0-.2.1-.3.1-.1,0-.3,0-.5,0s-.3,0-.5,0c-.1,0-.2,0-.3-.1,0,0-.2-.1-.2-.2,0,0,0-.1,0-.2v-4.2h-15.4l2.3,3.9c.1.2.2.4.2.5,0,.1,0,.2,0,.3,0,0-.2.1-.3.1-.2,0-.4,0-.6,0s-.3,0-.5,0-.2,0-.3,0c0,0-.2,0-.2-.1,0,0-.1-.1-.2-.2l-3-4.7s0,0,0-.2c0,0,0-.1,0-.2,0,0,0-.2,0-.3,0-.1,0-.3,0-.5s0-.5,0-.6c0-.2,0-.3,0-.4,0,0,0-.2.1-.2,0,0,.1,0,.2,0h17.8v-3.7c0,0,0-.2,0-.2,0,0,.1-.1.2-.2,0,0,.2,0,.3-.1.1,0,.3,0,.5,0Z"/>
          <path class="cls-9" d="M706.5,473.9c.9,0,1.7.2,2.3.5.7.3,1.3.8,1.7,1.4.5.6.8,1.3,1.1,2.2.2.9.4,1.9.4,3s-.1,2-.3,2.8c-.2.8-.5,1.5-1,2.1-.4.6-1,1-1.6,1.3-.6.3-1.3.5-2.1.5s-1.2-.1-1.8-.3c-.5-.2-1-.5-1.5-.9-.4-.4-.9-.9-1.3-1.4-.4-.6-.8-1.2-1.1-1.9-.3.6-.7,1.2-1,1.7-.4.5-.8.9-1.2,1.2-.4.3-.9.6-1.4.8-.5.2-1,.3-1.6.3s-1.4-.1-2-.4c-.6-.3-1.2-.6-1.6-1.2-.5-.5-.8-1.2-1.1-2s-.4-1.7-.4-2.8.1-1.9.4-2.6c.2-.7.6-1.4,1-1.8s.9-.8,1.5-1.1c.6-.2,1.2-.3,1.8-.3s1,0,1.5.3c.5.2,1,.4,1.4.8.4.3.8.7,1.2,1.2.4.5.7,1,1.1,1.7.4-.7.7-1.4,1.1-2,.4-.6.8-1.1,1.2-1.5.4-.4.9-.7,1.4-.9.5-.2,1-.3,1.6-.3ZM696.2,477.3c-.4,0-.8,0-1.2.2-.4.2-.7.4-.9.7-.2.3-.4.7-.6,1.1-.1.4-.2.9-.2,1.5,0,1.1.3,2,.8,2.6.5.6,1.2.9,2.1.9s.8,0,1.1-.2c.3-.1.7-.4,1-.7s.6-.7.9-1.1.6-1,.9-1.6c-.5-1.1-1.1-1.9-1.8-2.4s-1.4-.8-2.2-.8ZM706.8,476.6c-.5,0-.9,0-1.3.3-.4.2-.8.4-1.1.8-.3.4-.7.8-1,1.3-.3.5-.6,1.2-1,1.9.3.7.6,1.2,1,1.7.3.5.7.9,1,1.2.3.3.7.6,1.1.7.4.2.8.2,1.3.2,1,0,1.8-.3,2.3-1,.6-.7.8-1.7.8-3.1s-.3-2.3-.8-3c-.6-.7-1.3-1-2.3-1Z"/>
          <path class="cls-9" d="M701.6,457.5c1.6,0,3,.1,4.2.4,1.3.2,2.4.7,3.3,1.2.9.6,1.6,1.3,2.1,2.2.5.9.8,2,.8,3.4s-.2,2.3-.7,3.2c-.5.9-1.1,1.6-2,2.1-.9.5-2,.9-3.2,1.1-1.3.2-2.8.3-4.4.3s-3-.1-4.2-.4c-1.3-.2-2.4-.7-3.3-1.2s-1.6-1.3-2.1-2.2c-.5-.9-.8-2-.8-3.4s.2-2.4.7-3.2c.5-.9,1.1-1.6,2-2.1.9-.5,2-.9,3.2-1.1,1.3-.2,2.8-.3,4.4-.3ZM701.8,460.2c-1,0-1.9,0-2.7.1-.8,0-1.5.2-2.1.3-.6.1-1.1.3-1.6.5-.4.2-.8.5-1.1.8-.3.3-.5.7-.6,1.1-.1.4-.2.9-.2,1.4,0,.9.2,1.6.6,2.2.4.6,1,1,1.7,1.3.7.3,1.6.5,2.6.6,1,.1,2,.2,3.2.2s2.8,0,3.9-.2c1.1-.2,1.9-.4,2.6-.7.7-.3,1.2-.8,1.5-1.3.3-.5.5-1.2.5-1.9s0-1.1-.3-1.5c-.2-.4-.5-.8-.8-1.1-.3-.3-.8-.6-1.3-.8-.5-.2-1-.4-1.6-.5s-1.2-.2-1.9-.3c-.7,0-1.4,0-2.2,0Z"/>
          <path class="cls-9" d="M710.6,436.7c.2,0,.4,0,.5,0,.1,0,.3,0,.4.1s.2.1.2.2c0,0,0,.1,0,.2v5.9c0,.3,0,.5-.2.6-.2.2-.4.2-.8.2h-.6c-.1,0-.3,0-.4,0-.1,0-.2,0-.3-.1-.1,0-.2-.1-.3-.2-.1-.1-.3-.3-.6-.7-.3-.4-.6-.8-1.1-1.3s-1-.9-1.6-1.2c-.6-.3-1.3-.5-2.1-.7-.8-.1-1.7-.2-2.6-.2s-1.3,0-1.9.1c-.6,0-1.2.2-1.8.4-.6.2-1.1.5-1.5.8-.5.3-.9.7-1.2,1.1-.3.5-.6,1-.8,1.6-.2.6-.3,1.3-.3,2.1s.1,1.5.3,2.1.5,1.2.8,1.6c.3.5.8.9,1.2,1.2.5.3,1,.6,1.5.8.6.2,1.1.4,1.7.5.6,0,1.2.1,1.8.1,1.1,0,2,0,2.8-.2s1.5-.4,2.1-.7c.6-.3,1.1-.7,1.6-1.2.5-.5.8-.9,1.1-1.3.3-.4.5-.6.6-.7.1-.1.2-.2.4-.2.1,0,.2,0,.3-.1.1,0,.2,0,.4,0h.6c.4,0,.6,0,.8.2.2.2.2.4.2.6v5.9c0,0,0,.2,0,.2,0,0-.1.1-.2.2,0,0-.2,0-.4.1-.1,0-.3,0-.5,0-.4,0-.7,0-.9-.1-.2,0-.3-.2-.3-.4v-3.9c-.4.7-.8,1.3-1.4,1.8-.5.5-1.2,1-1.9,1.4-.7.4-1.5.7-2.3.9-.8.2-1.8.3-2.8.3-1.4,0-2.8-.2-4-.6-1.2-.4-2.3-1-3.1-1.8-.9-.8-1.6-1.7-2.1-2.9-.5-1.2-.7-2.5-.7-4s.2-2.7.7-3.8c.5-1.1,1.1-2,2-2.8s1.9-1.3,3-1.7c1.2-.4,2.5-.6,3.9-.6s2,.1,2.9.3,1.7.5,2.4.9c.7.4,1.4.8,1.9,1.4.5.5,1,1.1,1.4,1.8v-3.9c0-.2,0-.3.3-.4.2,0,.5-.1.9-.1Z"/>
        </g>
      </g>
      <g id="text1757" class="cls-22">
        <g class="cls-22">
          <path class="cls-9" d="M747.2,490.9c.2,0,.4,0,.5,0,.1,0,.2,0,.3.1,0,0,.1.1.2.2,0,0,0,.1,0,.2v10.6c0,0,0,.1,0,.2,0,0,0,.1-.2.2,0,0-.2.1-.3.1-.1,0-.3,0-.5,0s-.3,0-.5,0c-.1,0-.2,0-.3-.1,0,0-.2-.1-.2-.2,0,0,0-.1,0-.2v-4.2h-15.4l2.3,3.9c.1.2.2.4.2.5,0,.1,0,.2,0,.3,0,0-.2.1-.3.1-.2,0-.4,0-.6,0s-.3,0-.5,0-.2,0-.3,0c0,0-.2,0-.2-.1,0,0-.1-.1-.2-.2l-3-4.7s0,0,0-.2c0,0,0-.1,0-.2,0,0,0-.2,0-.3,0-.1,0-.3,0-.5s0-.5,0-.6c0-.2,0-.3,0-.4,0,0,0-.2.1-.2,0,0,.1,0,.2,0h17.8v-3.7c0,0,0-.2,0-.2,0,0,.1-.1.2-.2,0,0,.2,0,.3-.1.1,0,.3,0,.5,0Z"/>
          <path class="cls-9" d="M738.1,474.1c1.6,0,3,.1,4.2.4,1.3.2,2.4.7,3.3,1.2.9.6,1.6,1.3,2.1,2.2.5.9.8,2,.8,3.4s-.2,2.3-.7,3.2c-.5.9-1.1,1.6-2,2.1-.9.5-2,.9-3.2,1.1-1.3.2-2.8.3-4.4.3s-3-.1-4.2-.4c-1.3-.2-2.4-.7-3.3-1.2s-1.6-1.3-2.1-2.2c-.5-.9-.8-2-.8-3.4s.2-2.4.7-3.2c.5-.9,1.1-1.6,2-2.1.9-.5,2-.9,3.2-1.1,1.3-.2,2.8-.3,4.4-.3ZM738.3,476.8c-1,0-1.9,0-2.7.1-.8,0-1.5.2-2.1.3-.6.1-1.1.3-1.6.5-.4.2-.8.5-1.1.8-.3.3-.5.7-.6,1.1-.1.4-.2.9-.2,1.4,0,.9.2,1.6.6,2.2.4.6,1,1,1.7,1.3.7.3,1.6.5,2.6.6,1,.1,2,.2,3.2.2s2.8,0,3.9-.2c1.1-.2,1.9-.4,2.6-.7.7-.3,1.2-.8,1.5-1.3.3-.5.5-1.2.5-1.9s0-1.1-.3-1.5c-.2-.4-.5-.8-.8-1.1-.3-.3-.8-.6-1.3-.8-.5-.2-1-.4-1.6-.5s-1.2-.2-1.9-.3c-.7,0-1.4,0-2.2,0Z"/>
          <path class="cls-9" d="M738.1,457.9c1.6,0,3,.1,4.2.4,1.3.2,2.4.7,3.3,1.2.9.6,1.6,1.3,2.1,2.2.5.9.8,2,.8,3.4s-.2,2.3-.7,3.2c-.5.9-1.1,1.6-2,2.1-.9.5-2,.9-3.2,1.1-1.3.2-2.8.3-4.4.3s-3-.1-4.2-.4c-1.3-.2-2.4-.7-3.3-1.2s-1.6-1.3-2.1-2.2c-.5-.9-.8-2-.8-3.4s.2-2.4.7-3.2c.5-.9,1.1-1.6,2-2.1.9-.5,2-.9,3.2-1.1,1.3-.2,2.8-.3,4.4-.3ZM738.3,460.6c-1,0-1.9,0-2.7.1-.8,0-1.5.2-2.1.3-.6.1-1.1.3-1.6.5-.4.2-.8.5-1.1.8-.3.3-.5.7-.6,1.1-.1.4-.2.9-.2,1.4,0,.9.2,1.6.6,2.2.4.6,1,1,1.7,1.3.7.3,1.6.5,2.6.6,1,.1,2,.2,3.2.2s2.8,0,3.9-.2c1.1-.2,1.9-.4,2.6-.7.7-.3,1.2-.8,1.5-1.3.3-.5.5-1.2.5-1.9s0-1.1-.3-1.5c-.2-.4-.5-.8-.8-1.1-.3-.3-.8-.6-1.3-.8-.5-.2-1-.4-1.6-.5s-1.2-.2-1.9-.3c-.7,0-1.4,0-2.2,0Z"/>
          <path class="cls-9" d="M747.1,437c.2,0,.4,0,.5,0,.1,0,.3,0,.4.1s.2.1.2.2c0,0,0,.1,0,.2v5.9c0,.3,0,.5-.2.6-.2.2-.4.2-.8.2h-.6c-.1,0-.3,0-.4,0-.1,0-.2,0-.3-.1-.1,0-.2-.1-.3-.2-.1-.1-.3-.3-.6-.7-.3-.4-.6-.8-1.1-1.3s-1-.9-1.6-1.2c-.6-.3-1.3-.5-2.1-.7-.8-.1-1.7-.2-2.6-.2s-1.3,0-1.9.1c-.6,0-1.2.2-1.8.4-.6.2-1.1.5-1.5.8-.5.3-.9.7-1.2,1.1-.3.5-.6,1-.8,1.6-.2.6-.3,1.3-.3,2.1s.1,1.5.3,2.1.5,1.2.8,1.6c.3.5.8.9,1.2,1.2.5.3,1,.6,1.5.8.6.2,1.1.4,1.7.5.6,0,1.2.1,1.8.1,1.1,0,2,0,2.8-.2s1.5-.4,2.1-.7c.6-.3,1.1-.7,1.6-1.2.5-.5.8-.9,1.1-1.3.3-.4.5-.6.6-.7.1-.1.2-.2.4-.2.1,0,.2,0,.3-.1.1,0,.2,0,.4,0h.6c.4,0,.6,0,.8.2.2.2.2.4.2.6v5.9c0,0,0,.2,0,.2,0,0-.1.1-.2.2,0,0-.2,0-.4.1-.1,0-.3,0-.5,0-.4,0-.7,0-.9-.1-.2,0-.3-.2-.3-.4v-3.9c-.4.7-.8,1.3-1.4,1.8-.5.5-1.2,1-1.9,1.4-.7.4-1.5.7-2.3.9-.8.2-1.8.3-2.8.3-1.4,0-2.8-.2-4-.6-1.2-.4-2.3-1-3.1-1.8-.9-.8-1.6-1.7-2.1-2.9-.5-1.2-.7-2.5-.7-4s.2-2.7.7-3.8c.5-1.1,1.1-2,2-2.8s1.9-1.3,3-1.7c1.2-.4,2.5-.6,3.9-.6s2,.1,2.9.3,1.7.5,2.4.9c.7.4,1.4.8,1.9,1.4.5.5,1,1.1,1.4,1.8v-3.9c0-.2,0-.3.3-.4.2,0,.5-.1.9-.1Z"/>
        </g>
      </g>
      <g id="text1761" class="cls-22">
        <g class="cls-22">
          <path class="cls-9" d="M783.2,490.9c.2,0,.4,0,.5,0,.1,0,.2,0,.3.1,0,0,.1.1.2.2,0,0,0,.1,0,.2v10.6c0,0,0,.1,0,.2,0,0,0,.1-.2.2,0,0-.2.1-.3.1-.1,0-.3,0-.5,0s-.3,0-.5,0c-.1,0-.2,0-.3-.1,0,0-.2-.1-.2-.2s0-.1,0-.2v-4.2h-15.4l2.3,3.9c.1.2.2.4.2.5,0,.1,0,.2,0,.3,0,0-.2.1-.3.1s-.4,0-.6,0-.3,0-.5,0-.2,0-.3,0c0,0-.2,0-.2-.1s-.1-.1-.2-.2l-3-4.7s0,0,0-.2c0,0,0-.1,0-.2,0,0,0-.2,0-.3,0-.1,0-.3,0-.5s0-.5,0-.6c0-.2,0-.3,0-.4,0,0,0-.2.1-.2,0,0,.1,0,.2,0h17.8v-3.7c0,0,0-.2,0-.2,0,0,.1-.1.2-.2,0,0,.2,0,.3-.1.1,0,.3,0,.5,0Z"/>
          <path class="cls-9" d="M774.1,474.1c1.6,0,3,.1,4.2.4,1.3.2,2.4.7,3.3,1.2.9.6,1.6,1.3,2.1,2.2.5.9.8,2,.8,3.4s-.2,2.3-.7,3.2c-.5.9-1.1,1.6-2,2.1-.9.5-2,.9-3.2,1.1-1.3.2-2.8.3-4.4.3s-3-.1-4.2-.4c-1.3-.2-2.4-.7-3.3-1.2s-1.6-1.3-2.1-2.2c-.5-.9-.8-2-.8-3.4s.2-2.4.7-3.2c.5-.9,1.1-1.6,2-2.1.9-.5,2-.9,3.2-1.1,1.3-.2,2.8-.3,4.4-.3ZM774.3,476.8c-1,0-1.9,0-2.7.1-.8,0-1.5.2-2.1.3-.6.1-1.1.3-1.6.5-.4.2-.8.5-1.1.8-.3.3-.5.7-.6,1.1-.1.4-.2.9-.2,1.4,0,.9.2,1.6.6,2.2.4.6,1,1,1.7,1.3.7.3,1.6.5,2.6.6,1,.1,2,.2,3.2.2s2.8,0,3.9-.2c1.1-.2,1.9-.4,2.6-.7.7-.3,1.2-.8,1.5-1.3.3-.5.5-1.2.5-1.9s0-1.1-.3-1.5c-.2-.4-.5-.8-.8-1.1-.3-.3-.8-.6-1.3-.8-.5-.2-1-.4-1.6-.5s-1.2-.2-1.9-.3c-.7,0-1.4,0-2.2,0Z"/>
          <path class="cls-9" d="M774.1,457.9c1.6,0,3,.1,4.2.4,1.3.2,2.4.7,3.3,1.2.9.6,1.6,1.3,2.1,2.2.5.9.8,2,.8,3.4s-.2,2.3-.7,3.2c-.5.9-1.1,1.6-2,2.1-.9.5-2,.9-3.2,1.1-1.3.2-2.8.3-4.4.3s-3-.1-4.2-.4c-1.3-.2-2.4-.7-3.3-1.2s-1.6-1.3-2.1-2.2c-.5-.9-.8-2-.8-3.4s.2-2.4.7-3.2c.5-.9,1.1-1.6,2-2.1.9-.5,2-.9,3.2-1.1,1.3-.2,2.8-.3,4.4-.3ZM774.3,460.6c-1,0-1.9,0-2.7.1-.8,0-1.5.2-2.1.3-.6.1-1.1.3-1.6.5-.4.2-.8.5-1.1.8-.3.3-.5.7-.6,1.1-.1.4-.2.9-.2,1.4,0,.9.2,1.6.6,2.2.4.6,1,1,1.7,1.3.7.3,1.6.5,2.6.6,1,.1,2,.2,3.2.2s2.8,0,3.9-.2c1.1-.2,1.9-.4,2.6-.7.7-.3,1.2-.8,1.5-1.3.3-.5.5-1.2.5-1.9s0-1.1-.3-1.5c-.2-.4-.5-.8-.8-1.1-.3-.3-.8-.6-1.3-.8-.5-.2-1-.4-1.6-.5s-1.2-.2-1.9-.3c-.7,0-1.4,0-2.2,0Z"/>
          <path class="cls-9" d="M783.1,437c.2,0,.4,0,.5,0,.1,0,.3,0,.4.1s.2.1.2.2c0,0,0,.1,0,.2v5.9c0,.3,0,.5-.2.6-.2.2-.4.2-.8.2h-.6c-.1,0-.3,0-.4,0-.1,0-.2,0-.3-.1-.1,0-.2-.1-.3-.2-.1-.1-.3-.3-.6-.7-.3-.4-.6-.8-1.1-1.3s-1-.9-1.6-1.2c-.6-.3-1.3-.5-2.1-.7-.8-.1-1.7-.2-2.6-.2s-1.3,0-1.9.1c-.6,0-1.2.2-1.8.4-.6.2-1.1.5-1.5.8-.5.3-.9.7-1.2,1.1-.3.5-.6,1-.8,1.6-.2.6-.3,1.3-.3,2.1s.1,1.5.3,2.1.5,1.2.8,1.6c.3.5.8.9,1.2,1.2.5.3,1,.6,1.5.8.6.2,1.1.4,1.7.5.6,0,1.2.1,1.8.1,1.1,0,2,0,2.8-.2s1.5-.4,2.1-.7c.6-.3,1.1-.7,1.6-1.2.5-.5.8-.9,1.1-1.3.3-.4.5-.6.6-.7.1-.1.2-.2.4-.2.1,0,.2,0,.3-.1.1,0,.2,0,.4,0h.6c.4,0,.6,0,.8.2.2.2.2.4.2.6v5.9c0,0,0,.2,0,.2,0,0-.1.1-.2.2,0,0-.2,0-.4.1-.1,0-.3,0-.5,0-.4,0-.7,0-.9-.1-.2,0-.3-.2-.3-.4v-3.9c-.4.7-.8,1.3-1.4,1.8-.5.5-1.2,1-1.9,1.4-.7.4-1.5.7-2.3.9-.8.2-1.8.3-2.8.3-1.4,0-2.8-.2-4-.6-1.2-.4-2.3-1-3.1-1.8-.9-.8-1.6-1.7-2.1-2.9-.5-1.2-.7-2.5-.7-4s.2-2.7.7-3.8c.5-1.1,1.1-2,2-2.8s1.9-1.3,3-1.7c1.2-.4,2.5-.6,3.9-.6s2,.1,2.9.3,1.7.5,2.4.9c.7.4,1.4.8,1.9,1.4.5.5,1,1.1,1.4,1.8v-3.9c0-.2,0-.3.3-.4.2,0,.5-.1.9-.1Z"/>
        </g>
      </g>
      <rect id="rect456" class="cls-20" x="574.8" y="635.4" width="132.6" height="11.3"/>
      <rect id="rect458" class="cls-37" x="574.8" y="604.2" width="168.8" height="11.3"/>
      <rect id="rect460" class="cls-3" x="574.8" y="573.9" width="205.1" height="11.3"/>
      <circle id="circle281" class="cls-14" cx="575.6" cy="518.6" r="11.6"/>
      <circle id="circle281-2" class="cls-3" cx="575.6" cy="579.6" r="11.6"/>
      <circle id="circle281-3" class="cls-37" cx="575.6" cy="610.1" r="11.6"/>
      <circle id="circle281-4" class="cls-20" cx="575.6" cy="641.1" r="11.6"/>
    </g>
  </g>
</svg>