<?xml version="1.0" encoding="UTF-8"?>
<svg xmlns="http://www.w3.org/2000/svg" xmlns:svg="http://www.w3.org/2000/svg" xmlns:sodipodi="http://sodipodi.sourceforge.net/DTD/sodipodi-0.dtd" xmlns:rdf="http://www.w3.org/1999/02/22-rdf-syntax-ns#" xmlns:inkscape="http://www.inkscape.org/namespaces/inkscape" xmlns:dc="http://purl.org/dc/elements/1.1/" xmlns:cc="http://creativecommons.org/ns#" version="1.1" viewBox="0 0 466.6 943.3">
  <defs>
    <style>
      .cls-1 {
        fill: #f2f2f2;
      }

      .cls-1, .cls-2, .cls-3, .cls-4, .cls-5, .cls-6, .cls-7 {
        isolation: isolate;
      }

      .cls-1, .cls-2, .cls-4, .cls-5, .cls-6, .cls-7 {
        opacity: 1;
      }

      .cls-8 {
        fill: #9dd6ef;
      }

      .cls-9 {
        fill: #b6e5f6;
      }

      .cls-10, .cls-6 {
        fill: #010101;
      }

      .cls-11 {
        fill: #4dbde9;
      }

      .cls-12 {
        fill: #030304;
      }

      .cls-13 {
        fill: #02814b;
      }

      .cls-14 {
        fill: #7ccaeb;
      }

      .cls-15 {
        fill: #754d24;
      }

      .cls-16 {
        fill: #9c7f62;
      }

      .cls-17 {
        fill: gray;
      }

      .cls-18 {
        fill: #88d4f1;
      }

      .cls-19 {
        fill: #868c97;
      }

      .cls-20 {
        stroke: #fff;
      }

      .cls-20, .cls-21, .cls-22, .cls-23, .cls-24, .cls-25 {
        fill: none;
        stroke-miterlimit: 10;
      }

      .cls-26 {
        fill: #c2bfab;
      }

      .cls-27 {
        fill: #e8d28a;
      }

      .cls-28 {
        fill: #8dddde;
      }

      .cls-29 {
        fill: #cecece;
      }

      .cls-21 {
        stroke: #754c24;
      }

      .cls-30 {
        fill: #a5a5a5;
      }

      .cls-31 {
        fill: #57bfe7;
      }

      .cls-32 {
        fill: #c1c1c1;
      }

      .cls-33 {
        fill: #59bfc3;
      }

      .cls-34 {
        fill: #b9a68f;
      }

      .cls-35 {
        fill: #84d1f0;
      }

      .cls-36 {
        fill: #915114;
      }

      .cls-37 {
        fill: #141316;
      }

      .cls-2 {
        fill: #cdcccc;
      }

      .cls-38 {
        fill: #b7e4f6;
      }

      .cls-39 {
        fill: #e2eade;
      }

      .cls-40 {
        fill: #7eceef;
      }

      .cls-41 {
        fill: #8dd4f1;
      }

      .cls-42 {
        fill: #915215;
      }

      .cls-43 {
        fill: #ea4b4e;
      }

      .cls-44 {
        fill: #474544;
      }

      .cls-45 {
        fill: #ddd;
      }

      .cls-46 {
        fill: #83ceec;
      }

      .cls-22 {
        stroke: red;
      }

      .cls-47 {
        fill: #e20e18;
      }

      .cls-4 {
        fill: #b4b4b4;
      }

      .cls-48 {
        fill: #fee86f;
      }

      .cls-49, .cls-7 {
        fill: #fff;
      }

      .cls-50 {
        fill: #66c8ed;
      }

      .cls-51 {
        fill: #0d8136;
      }

      .cls-52 {
        fill: #927251;
      }

      .cls-53 {
        fill: #8cd6f1;
      }

      .cls-54 {
        fill: #c29148;
      }

      .cls-55 {
        fill: #bce7f7;
      }

      .cls-56 {
        fill: #5dc3eb;
      }

      .cls-57 {
        fill: #83d1f0;
      }

      .cls-58 {
        fill: #e0b45b;
      }

      .cls-59 {
        fill: #d4c547;
      }

      .cls-23 {
        stroke: #000;
      }

      .cls-60 {
        fill: #ed5b5e;
      }

      .cls-61 {
        fill: #29abe2;
      }

      .cls-62 {
        fill: #fefefe;
      }

      .cls-63 {
        fill: #a1d9f0;
      }

      .cls-24 {
        stroke: gray;
        stroke-width: 2px;
      }

      .cls-64 {
        fill: #fcfcfa;
      }

      .cls-65 {
        fill: #7f7f7f;
      }

      .cls-5 {
        fill: #808181;
      }

      .cls-66 {
        fill: #cdedf9;
      }

      .cls-67 {
        fill: #525035;
      }

      .cls-68 {
        fill: #9cdaf3;
      }

      .cls-69 {
        fill: #e51b20;
      }

      .cls-70 {
        fill: #ffe17b;
      }

      .cls-71 {
        fill: #aba28e;
      }

      .cls-72 {
        fill: #5ec3eb;
      }

      .cls-73 {
        fill: #8ad2f0;
      }

      .cls-74 {
        fill: #9edaf3;
      }

      .cls-75 {
        fill: #ceecf9;
      }

      .cls-76 {
        fill: #1eabe3;
      }

      .cls-25 {
        stroke: #95ac6e;
      }

      .cls-77 {
        fill: #1b1b1b;
      }

      .cls-78 {
        fill: #36323e;
      }

      .cls-79 {
        fill: #7cceef;
      }

      .cls-80 {
        fill: #bde6f7;
      }
    </style>
  </defs>
  <!-- Generator: Adobe Illustrator 28.7.0, SVG Export Plug-In . SVG Version: 1.2.0 Build 136)  -->
  <g>
    <g id="Ebene_1">
      <g>
        <line class="cls-24" x1="394.4" y1="357.7" x2="394.4" y2="373.7"/>
        <path class="cls-61" d="M379.1,391.7c0,4.9,1.4,9.4,3.9,12.6v35.6c-2.5,3.4-3.9,7.7-3.9,12.6,0,10.4,6.8,18.7,15.5,18.7s15.5-8.4,15.5-18.7-1.4-9.4-3.9-12.6v-35.6c2.5-3.4,3.9-7.7,3.9-12.6,0-10.4-6.8-18.7-15.5-18.7s-15.5,8.4-15.5,18.7Z"/>
        <line class="cls-21" x1="379.3" y1="389.2" x2="409.8" y2="389.2"/>
        <line class="cls-22" x1="379.3" y1="454.6" x2="409.8" y2="454.6"/>
        <line class="cls-22" x1="383" y1="435.2" x2="406" y2="435.2"/>
        <line class="cls-23" x1="383" y1="428.8" x2="405.8" y2="428.8"/>
        <line class="cls-23" x1="383" y1="417.5" x2="405.8" y2="417.5"/>
        <line class="cls-24" x1="394.4" y1="471.1" x2="394.4" y2="487"/>
      </g>
      <g>
        <line class="cls-24" x1="362.5" y1="357.7" x2="362.5" y2="373.7"/>
        <path class="cls-61" d="M347.2,391.7c0,4.9,1.4,9.4,3.9,12.6v35.6c-2.5,3.4-3.9,7.7-3.9,12.6,0,10.4,6.8,18.7,15.5,18.7s15.5-8.4,15.5-18.7-1.4-9.4-3.9-12.6v-35.6c2.5-3.4,3.9-7.7,3.9-12.6,0-10.4-6.8-18.7-15.5-18.7s-15.5,8.4-15.5,18.7Z"/>
        <line class="cls-21" x1="347.4" y1="389.3" x2="377.9" y2="389.3"/>
        <line class="cls-22" x1="347.4" y1="454.6" x2="377.9" y2="454.6"/>
        <line class="cls-22" x1="351.1" y1="435.3" x2="374.1" y2="435.3"/>
        <line class="cls-23" x1="351.1" y1="428.8" x2="373.9" y2="428.8"/>
        <line class="cls-23" x1="351.1" y1="417.5" x2="373.9" y2="417.5"/>
        <line class="cls-24" x1="362.5" y1="471.1" x2="362.5" y2="487"/>
      </g>
      <g>
        <line class="cls-24" x1="331.1" y1="357.6" x2="331.1" y2="373.6"/>
        <path class="cls-61" d="M315.8,391.6c0,4.9,1.4,9.4,3.9,12.6v35.6c-2.5,3.4-3.9,7.7-3.9,12.6,0,10.4,6.8,18.7,15.5,18.7s15.5-8.4,15.5-18.7-1.4-9.4-3.9-12.6v-35.6c2.5-3.4,3.9-7.7,3.9-12.6,0-10.4-6.8-18.7-15.5-18.7s-15.5,8.4-15.5,18.7Z"/>
        <line class="cls-21" x1="316" y1="389.2" x2="346.5" y2="389.2"/>
        <line class="cls-22" x1="316" y1="454.5" x2="346.5" y2="454.5"/>
        <line class="cls-22" x1="319.7" y1="435.2" x2="342.7" y2="435.2"/>
        <line class="cls-23" x1="319.7" y1="428.7" x2="342.5" y2="428.7"/>
        <line class="cls-23" x1="319.7" y1="417.4" x2="342.5" y2="417.4"/>
        <line class="cls-24" x1="331.1" y1="471" x2="331.1" y2="486.9"/>
      </g>
      <g>
        <path class="cls-13" d="M243.3,361.3v-11.9H.2v11.9c2.3.9,3.9,3.1,3.9,5.7s-1.6,4.8-3.9,5.7v18.1c2.3.9,3.9,3.1,3.9,5.7s-1.6,4.8-3.9,5.7v18.1c2.3.9,3.9,3.1,3.9,5.7s-1.6,4.8-3.9,5.7v18.1c2.3.9,3.9,3.1,3.9,5.7s-1.6,4.8-3.9,5.7v18.1c2.3.9,3.9,3.1,3.9,5.7s-1.6,4.8-3.9,5.7v18.1c2.3.9,3.9,3.1,3.9,5.7s-1.6,4.8-3.9,5.7v18.1c2.3.9,3.9,3.1,3.9,5.7s-1.6,4.8-3.9,5.7v18.1c2.3.9,3.9,3.1,3.9,5.7s-1.6,4.8-3.9,5.7v18.1c2.3.9,3.9,3.1,3.9,5.7s-1.6,4.8-3.9,5.7v18.1c2.3.9,3.9,3.1,3.9,5.7s-1.6,4.8-3.9,5.7v18.1c2.3.9,3.9,3.1,3.9,5.7s-1.6,4.8-3.9,5.7v18.1c2.3.9,3.9,3.1,3.9,5.7s-1.6,4.8-3.9,5.7v18.1c2.3.9,3.9,3.1,3.9,5.7s-1.6,4.8-3.9,5.7v18.1c2.3.9,3.9,3.1,3.9,5.7s-1.6,4.8-3.9,5.7v18.1c2.3.9,3.9,3.1,3.9,5.7s-1.6,4.8-3.9,5.7v18.1c2.3.9,3.9,3.1,3.9,5.7s-1.6,4.8-3.9,5.7v18.1c2.3.9,3.9,3.1,3.9,5.7s-1.6,4.8-3.9,5.7v16.3c2.3.9,3.9,3.1,3.9,5.7s-1.6,4.8-3.9,5.7v18c2.3.9,3.9,3.1,3.9,5.7s-1.6,4.8-3.9,5.7v18.1c2.3.9,3.9,3.1,3.9,5.7s-1.6,4.8-3.9,5.7v11.9h243.1v-11.9c-2.2-.9-3.8-3.1-3.8-5.7s1.6-4.8,3.8-5.7v-18.1c-2.2-.9-3.8-3.1-3.8-5.7s1.6-4.8,3.8-5.7v-18.1c-2.2-.9-3.8-3.1-3.8-5.7s1.6-4.8,3.8-5.7v-17.9c-2.2-.9-3.8-3.1-3.8-5.7s1.6-4.8,3.8-5.7v-18.1c-2.2-.9-3.8-3.1-3.8-5.7s1.6-4.8,3.8-5.7v-18.1c-2.2-.9-3.8-3.1-3.8-5.7s1.6-4.8,3.8-5.7v-18.1c-2.2-.9-3.8-3.1-3.8-5.7s1.6-4.8,3.8-5.7v-18.1c-2.2-.9-3.8-3.1-3.8-5.7s1.6-4.8,3.8-5.7v-17.6c-2.2-.9-3.8-3.1-3.8-5.7s1.6-4.8,3.8-5.7v-18.1c-2.2-.9-3.8-3.1-3.8-5.7s1.6-4.8,3.8-5.7v-18.1c-2.2-.9-3.8-3.1-3.8-5.7s1.6-4.8,3.8-5.7v-18.1c-2.2-.9-3.8-3.1-3.8-5.7s1.6-4.8,3.8-5.7v-18.1c-2.2-.9-3.8-3.1-3.8-5.7s1.6-4.8,3.8-5.7v-17.6c-2.2-.9-3.8-3.1-3.8-5.7s1.6-4.8,3.8-5.7v-18.1c-2.2-.9-3.8-3.1-3.8-5.7s1.6-4.8,3.8-5.7v-18.1c-2.2-.9-3.8-3.1-3.8-5.7s1.6-4.8,3.8-5.7v-18.1c-2.2-.9-3.8-3.1-3.8-5.7s1.6-4.8,3.8-5.7v-18.1c-2.2-.9-3.8-3.1-3.8-5.7s1.6-4.8,3.8-5.7v-17.6c-2.2-.9-3.8-3.1-3.8-5.7s1.6-4.8,3.8-5.7v-18.1c-2.2-.9-3.8-3.1-3.8-5.7s1.6-4.6,3.8-5.5ZM15.8,931.6c-3.4,0-6.1-2.7-6.1-6.1s2.7-6.1,6.1-6.1,6.1,2.7,6.1,6.1-2.7,6.1-6.1,6.1ZM15.8,902.2c-3.4,0-6.1-2.7-6.1-6.1s2.7-6.1,6.1-6.1,6.1,2.7,6.1,6.1-2.7,6.1-6.1,6.1ZM15.8,872.8c-3.4,0-6.1-2.7-6.1-6.1s2.7-6.1,6.1-6.1,6.1,2.7,6.1,6.1-2.7,6.1-6.1,6.1ZM15.8,843.4c-3.4,0-6.1-2.7-6.1-6.1s2.7-6.1,6.1-6.1,6.1,2.7,6.1,6.1-2.7,6.1-6.1,6.1ZM15.8,814c-3.4,0-6.1-2.7-6.1-6.1s2.7-6.1,6.1-6.1,6.1,2.7,6.1,6.1-2.7,6.1-6.1,6.1ZM15.8,784.6c-3.4,0-6.1-2.7-6.1-6.1s2.7-6.1,6.1-6.1,6.1,2.7,6.1,6.1-2.7,6.1-6.1,6.1ZM15.8,755.2c-3.4,0-6.1-2.7-6.1-6.1s2.7-6.1,6.1-6.1,6.1,2.7,6.1,6.1-2.7,6.1-6.1,6.1ZM15.8,725.8c-3.4,0-6.1-2.7-6.1-6.1s2.7-6.1,6.1-6.1,6.1,2.7,6.1,6.1-2.7,6.1-6.1,6.1ZM15.8,696.4c-3.4,0-6.1-2.7-6.1-6.1s2.7-6.1,6.1-6.1,6.1,2.7,6.1,6.1-2.7,6.1-6.1,6.1ZM15.8,667c-3.4,0-6.1-2.7-6.1-6.1s2.7-6.1,6.1-6.1,6.1,2.7,6.1,6.1-2.7,6.1-6.1,6.1ZM15.8,637.6c-3.4,0-6.1-2.7-6.1-6.1s2.7-6.1,6.1-6.1,6.1,2.7,6.1,6.1-2.7,6.1-6.1,6.1ZM15.8,608.2c-3.4,0-6.1-2.7-6.1-6.1s2.7-6.1,6.1-6.1,6.1,2.7,6.1,6.1-2.7,6.1-6.1,6.1ZM15.8,578.8c-3.4,0-6.1-2.7-6.1-6.1s2.7-6.1,6.1-6.1,6.1,2.7,6.1,6.1-2.7,6.1-6.1,6.1ZM15.8,549.4c-3.4,0-6.1-2.7-6.1-6.1s2.7-6.1,6.1-6.1,6.1,2.7,6.1,6.1-2.7,6.1-6.1,6.1ZM15.8,520c-3.4,0-6.1-2.7-6.1-6.1s2.7-6.1,6.1-6.1,6.1,2.7,6.1,6.1c0,3.4-2.7,6.1-6.1,6.1ZM15.8,490.6c-3.4,0-6.1-2.7-6.1-6.1s2.7-6.1,6.1-6.1,6.1,2.7,6.1,6.1-2.7,6.1-6.1,6.1ZM15.8,461.2c-3.4,0-6.1-2.7-6.1-6.1s2.7-6.1,6.1-6.1,6.1,2.7,6.1,6.1-2.7,6.1-6.1,6.1ZM15.8,431.9c-3.4,0-6.1-2.7-6.1-6.1s2.7-6.1,6.1-6.1,6.1,2.7,6.1,6.1-2.7,6.1-6.1,6.1ZM15.8,402.5c-3.4,0-6.1-2.7-6.1-6.1s2.7-6.1,6.1-6.1,6.1,2.7,6.1,6.1-2.7,6.1-6.1,6.1ZM15.8,373.1c-3.4,0-6.1-2.7-6.1-6.1s2.7-6.1,6.1-6.1,6.1,2.7,6.1,6.1-2.7,6.1-6.1,6.1ZM53.7,931.5c-6.7,0-12.1-5.4-12.1-12.1s5.4-12.1,12.1-12.1,12.1,5.4,12.1,12.1-5.4,12.1-12.1,12.1ZM53.7,384.4c-6.7,0-12.1-5.4-12.1-12.1s5.4-12.1,12.1-12.1,12.1,5.4,12.1,12.1c0,6.7-5.4,12.1-12.1,12.1ZM127.6,717.6c-3.1,0-5.7-2.6-5.7-5.7s2.6-5.7,5.7-5.7,5.7,2.6,5.7,5.7-2.6,5.7-5.7,5.7ZM157,717.6c-3.1,0-5.7-2.6-5.7-5.7s2.6-5.7,5.7-5.7,5.7,2.6,5.7,5.7-2.5,5.7-5.7,5.7ZM186.2,360.1c6.7,0,12.1,5.4,12.1,12.1s-5.4,12.1-12.1,12.1-12.1-5.4-12.1-12.1c0-6.6,5.5-12.1,12.1-12.1ZM192.5,711.9c0,3.1-2.6,5.7-5.7,5.7s-5.7-2.6-5.7-5.7,2.6-5.7,5.7-5.7,5.7,2.6,5.7,5.7ZM188.2,931.5c-6.7,0-12.1-5.4-12.1-12.1s5.4-12.1,12.1-12.1,12.1,5.4,12.1,12.1-5.4,12.1-12.1,12.1ZM227.8,931.6c-3.4,0-6.1-2.7-6.1-6.1s2.7-6.1,6.1-6.1,6.1,2.7,6.1,6.1-2.7,6.1-6.1,6.1ZM227.8,902.2c-3.4,0-6.1-2.7-6.1-6.1s2.7-6.1,6.1-6.1,6.1,2.7,6.1,6.1-2.7,6.1-6.1,6.1ZM227.8,872.8c-3.4,0-6.1-2.7-6.1-6.1s2.7-6.1,6.1-6.1,6.1,2.7,6.1,6.1-2.7,6.1-6.1,6.1ZM227.8,843.4c-3.4,0-6.1-2.7-6.1-6.1s2.7-6.1,6.1-6.1,6.1,2.7,6.1,6.1-2.7,6.1-6.1,6.1ZM227.8,814c-3.4,0-6.1-2.7-6.1-6.1s2.7-6.1,6.1-6.1,6.1,2.7,6.1,6.1-2.7,6.1-6.1,6.1ZM227.8,784.6c-3.4,0-6.1-2.7-6.1-6.1s2.7-6.1,6.1-6.1,6.1,2.7,6.1,6.1-2.7,6.1-6.1,6.1ZM227.8,755.2c-3.4,0-6.1-2.7-6.1-6.1s2.7-6.1,6.1-6.1,6.1,2.7,6.1,6.1-2.7,6.1-6.1,6.1ZM227.8,725.8c-3.4,0-6.1-2.7-6.1-6.1s2.7-6.1,6.1-6.1,6.1,2.7,6.1,6.1-2.7,6.1-6.1,6.1ZM227.8,696.4c-3.4,0-6.1-2.7-6.1-6.1s2.7-6.1,6.1-6.1,6.1,2.7,6.1,6.1-2.7,6.1-6.1,6.1ZM227.8,667c-3.4,0-6.1-2.7-6.1-6.1s2.7-6.1,6.1-6.1,6.1,2.7,6.1,6.1-2.7,6.1-6.1,6.1ZM227.8,637.6c-3.4,0-6.1-2.7-6.1-6.1s2.7-6.1,6.1-6.1,6.1,2.7,6.1,6.1-2.7,6.1-6.1,6.1ZM227.8,608.2c-3.4,0-6.1-2.7-6.1-6.1s2.7-6.1,6.1-6.1,6.1,2.7,6.1,6.1-2.7,6.1-6.1,6.1ZM227.8,578.8c-3.4,0-6.1-2.7-6.1-6.1s2.7-6.1,6.1-6.1,6.1,2.7,6.1,6.1-2.7,6.1-6.1,6.1ZM227.8,549.4c-3.4,0-6.1-2.7-6.1-6.1s2.7-6.1,6.1-6.1,6.1,2.7,6.1,6.1-2.7,6.1-6.1,6.1ZM227.8,520c-3.4,0-6.1-2.7-6.1-6.1s2.7-6.1,6.1-6.1,6.1,2.7,6.1,6.1c0,3.4-2.7,6.1-6.1,6.1ZM227.8,490.6c-3.4,0-6.1-2.7-6.1-6.1s2.7-6.1,6.1-6.1,6.1,2.7,6.1,6.1-2.7,6.1-6.1,6.1ZM227.8,461.2c-3.4,0-6.1-2.7-6.1-6.1s2.7-6.1,6.1-6.1,6.1,2.7,6.1,6.1-2.7,6.1-6.1,6.1ZM227.8,431.9c-3.4,0-6.1-2.7-6.1-6.1s2.7-6.1,6.1-6.1,6.1,2.7,6.1,6.1-2.7,6.1-6.1,6.1ZM227.8,402.5c-3.4,0-6.1-2.7-6.1-6.1s2.7-6.1,6.1-6.1,6.1,2.7,6.1,6.1-2.7,6.1-6.1,6.1ZM227.8,373.1c-3.4,0-6.1-2.7-6.1-6.1s2.7-6.1,6.1-6.1,6.1,2.7,6.1,6.1-2.7,6.1-6.1,6.1Z"/>
        <path class="cls-59" d="M53.7,351.7c-11.3,0-20.5,9.2-20.5,20.5s9.2,20.5,20.5,20.5,20.5-9.2,20.5-20.5c.1-11.3-9.1-20.5-20.5-20.5ZM53.7,384.4c-6.7,0-12.1-5.4-12.1-12.1s5.4-12.1,12.1-12.1,12.1,5.4,12.1,12.1c0,6.7-5.4,12.1-12.1,12.1Z"/>
        <path class="cls-59" d="M186.3,351.7c-11.3,0-20.5,9.2-20.5,20.5s9.2,20.5,20.5,20.5,20.5-9.2,20.5-20.5-9.2-20.5-20.5-20.5ZM186.3,384.4c-6.7,0-12.1-5.4-12.1-12.1s5.4-12.1,12.1-12.1,12.1,5.4,12.1,12.1c0,6.7-5.4,12.1-12.1,12.1Z"/>
        <path class="cls-59" d="M53.7,898.9c-11.3,0-20.5,9.2-20.5,20.5s9.2,20.6,20.5,20.6,20.5-9.2,20.5-20.5-9.1-20.6-20.5-20.6ZM53.7,931.6c-6.7,0-12.1-5.4-12.1-12.1s5.4-12.1,12.1-12.1,12.1,5.4,12.1,12.1-5.4,12.1-12.1,12.1Z"/>
        <path class="cls-59" d="M188.3,898.9c-11.3,0-20.5,9.2-20.5,20.5s9.2,20.5,20.5,20.5,20.5-9.2,20.5-20.5-9.2-20.5-20.5-20.5ZM188.3,931.6c-6.7,0-12.1-5.4-12.1-12.1s5.4-12.1,12.1-12.1,12.1,5.4,12.1,12.1-5.4,12.1-12.1,12.1Z"/>
        <circle class="cls-67" cx="55" cy="437" r="10.6"/>
        <circle class="cls-48" cx="55" cy="437" r="5.5"/>
        <path class="cls-70" d="M17.5,416.8H.3v3.4c2.3.9,3.9,3.1,3.9,5.7s-1.6,4.8-3.9,5.7v3.4h17.2c5,0,9-4,9-9h0c0-5.2-4.1-9.2-9-9.2ZM15.9,431.9c-3.4,0-6.1-2.7-6.1-6.1s2.7-6.1,6.1-6.1,6.1,2.7,6.1,6.1-2.8,6.1-6.1,6.1Z"/>
        <path class="cls-70" d="M17.5,563.8H.3v3.4c2.3.9,3.9,3.1,3.9,5.7s-1.6,4.8-3.9,5.7v3.4h17.2c5,0,9-4,9-9s-4.1-9.2-9-9.2ZM15.9,578.9c-3.4,0-6.1-2.7-6.1-6.1s2.7-6.1,6.1-6.1,6.1,2.7,6.1,6.1-2.8,6.1-6.1,6.1Z"/>
        <path class="cls-70" d="M17.5,710.7H.3v3.4c2.3.9,3.9,3.1,3.9,5.7s-1.6,4.8-3.9,5.7v3.4h17.2c5,0,9-4,9-9s-4.1-9.2-9-9.2ZM15.9,725.8c-3.4,0-6.1-2.7-6.1-6.1s2.7-6.1,6.1-6.1,6.1,2.7,6.1,6.1-2.8,6.1-6.1,6.1Z"/>
        <path class="cls-70" d="M17.5,740.1H.3v3.4c2.3.9,3.9,3.1,3.9,5.7s-1.6,4.8-3.9,5.7v3.4h17.2c5,0,9-4,9-9s-4.1-9.2-9-9.2ZM15.9,755.2c-3.4,0-6.1-2.7-6.1-6.1s2.7-6.1,6.1-6.1,6.1,2.7,6.1,6.1-2.8,6.1-6.1,6.1Z"/>
        <path class="cls-70" d="M17.5,769.5H.3v3.4c2.3.9,3.9,3.1,3.9,5.7s-1.6,4.8-3.9,5.7v3.4h17.2c5,0,9-4,9-9s-4.1-9.2-9-9.2ZM15.9,784.6c-3.4,0-6.1-2.7-6.1-6.1s2.7-6.1,6.1-6.1,6.1,2.7,6.1,6.1-2.8,6.1-6.1,6.1Z"/>
        <path class="cls-70" d="M17.5,798.9H.3v3.4c2.3.9,3.9,3.1,3.9,5.7s-1.6,4.8-3.9,5.7v3.4h17.2c5,0,9-4,9-9s-4.1-9.2-9-9.2ZM15.9,814c-3.4,0-6.1-2.7-6.1-6.1s2.7-6.1,6.1-6.1,6.1,2.7,6.1,6.1-2.8,6.1-6.1,6.1Z"/>
        <path class="cls-70" d="M17.5,857.7H.3v3.4c2.3.9,3.9,3.1,3.9,5.7s-1.6,4.8-3.9,5.7v3.4h17.2c5,0,9-4,9-9h0c0-5.2-4.1-9.2-9-9.2ZM15.9,872.8c-3.4,0-6.1-2.7-6.1-6.1s2.7-6.1,6.1-6.1,6.1,2.7,6.1,6.1-2.8,6.1-6.1,6.1Z"/>
        <path class="cls-70" d="M17.5,887.1H.3v3.4c2.3.9,3.9,3.1,3.9,5.7s-1.6,4.8-3.9,5.7v3.4h17.2c5,0,9-4,9-9h0c0-5.2-4.1-9.2-9-9.2ZM15.9,902.2c-3.4,0-6.1-2.7-6.1-6.1s2.7-6.1,6.1-6.1,6.1,2.7,6.1,6.1-2.8,6.1-6.1,6.1Z"/>
        <path class="cls-70" d="M17.5,916.5H.3v3.4c2.3.9,3.9,3.1,3.9,5.7s-1.6,4.8-3.9,5.7v3.4h17.2c5,0,9-4,9-9s-4.1-9.2-9-9.2ZM15.9,931.6c-3.4,0-6.1-2.7-6.1-6.1s2.7-6.1,6.1-6.1,6.1,2.7,6.1,6.1-2.8,6.1-6.1,6.1Z"/>
        <path class="cls-70" d="M239.5,367c0-2.6,1.6-4.8,3.9-5.7v-3.3h-17.2c-5,0-9,4-9,9s4,9,9,9h17.2v-3.4c-2.2-.8-3.9-3-3.9-5.6ZM227.8,373.1c-3.4,0-6.1-2.7-6.1-6.1s2.7-6.1,6.1-6.1,6.1,2.7,6.1,6.1-2.7,6.1-6.1,6.1Z"/>
        <path class="cls-70" d="M239.5,396.4c0-2.6,1.6-4.8,3.9-5.7v-3.4h-17.2c-5,0-9,4-9,9h0c0,5,4,9,9,9h17.2v-3.4c-2.2-.7-3.9-2.9-3.9-5.5ZM227.8,402.5c-3.4,0-6.1-2.7-6.1-6.1s2.7-6.1,6.1-6.1,6.1,2.7,6.1,6.1-2.7,6.1-6.1,6.1Z"/>
        <path class="cls-70" d="M239.5,425.8c0-2.6,1.6-4.8,3.9-5.7v-3.4h-17.2c-5,0-9,4-9,9h0c0,5,4,9,9,9h17.2v-3.4c-2.2-.7-3.9-2.9-3.9-5.5ZM227.8,431.9c-3.4,0-6.1-2.7-6.1-6.1s2.7-6.1,6.1-6.1,6.1,2.7,6.1,6.1-2.7,6.1-6.1,6.1Z"/>
        <path class="cls-70" d="M239.5,455.2c0-2.6,1.6-4.8,3.9-5.7v-3.4h-17.2c-5,0-9,4-9,9s4,9,9,9h17.2v-3.4c-2.2-.7-3.9-2.9-3.9-5.5ZM227.8,461.3c-3.4,0-6.1-2.7-6.1-6.1s2.7-6.1,6.1-6.1,6.1,2.7,6.1,6.1-2.7,6.1-6.1,6.1Z"/>
        <path class="cls-70" d="M239.5,484.6c0-2.6,1.6-4.8,3.9-5.7v-3.4h-17.2c-5,0-9,4-9,9s4,9,9,9h17.2v-3.4c-2.2-.7-3.9-2.9-3.9-5.5ZM227.8,490.7c-3.4,0-6.1-2.7-6.1-6.1s2.7-6.1,6.1-6.1,6.1,2.7,6.1,6.1-2.7,6.1-6.1,6.1Z"/>
        <path class="cls-70" d="M239.5,514c0-2.6,1.6-4.8,3.9-5.7v-3.3h-17.2c-5,0-9,4-9,9s4,9,9,9h17.2v-3.4c-2.2-.8-3.9-3-3.9-5.6ZM227.8,520.1c-3.4,0-6.1-2.7-6.1-6.1s2.7-6.1,6.1-6.1,6.1,2.7,6.1,6.1-2.7,6.1-6.1,6.1Z"/>
        <path class="cls-70" d="M239.5,572.8c0-2.6,1.6-4.8,3.9-5.7v-3.4h-17.2c-5,0-9,4-9,9s4,9,9,9h17.2v-3.4c-2.2-.7-3.9-2.9-3.9-5.5ZM227.8,578.9c-3.4,0-6.1-2.7-6.1-6.1s2.7-6.1,6.1-6.1,6.1,2.7,6.1,6.1-2.7,6.1-6.1,6.1Z"/>
        <path class="cls-70" d="M239.5,631.6c0-2.6,1.6-4.8,3.9-5.7v-3.4h-17.2c-5,0-9,4-9,9h0c0,5,4,9,9,9h17.2v-3.4c-2.2-.8-3.9-3-3.9-5.5ZM227.8,637.6c-3.4,0-6.1-2.7-6.1-6.1s2.7-6.1,6.1-6.1,6.1,2.7,6.1,6.1-2.7,6.1-6.1,6.1Z"/>
        <path class="cls-70" d="M239.5,661c0-2.6,1.6-4.8,3.9-5.7v-3.4h-17.2c-5,0-9,4-9,9h0c0,5,4,9,9,9h17.2v-3.4c-2.2-.8-3.9-3-3.9-5.5ZM227.8,667c-3.4,0-6.1-2.7-6.1-6.1s2.7-6.1,6.1-6.1,6.1,2.7,6.1,6.1-2.7,6.1-6.1,6.1Z"/>
        <path class="cls-70" d="M239.5,690.4c0-2.6,1.6-4.8,3.9-5.7v-3.4h-17.2c-5,0-9,4-9,9s4,9,9,9h17.2v-3.3c-2.2-.9-3.9-3.1-3.9-5.6ZM227.8,696.4c-3.4,0-6.1-2.7-6.1-6.1s2.7-6.1,6.1-6.1,6.1,2.7,6.1,6.1-2.7,6.1-6.1,6.1Z"/>
        <path class="cls-70" d="M239.5,719.8c0-2.6,1.6-4.8,3.9-5.7v-3.4h-17.2c-5,0-9,4-9,9s4,9,9,9h17.2v-3.4c-2.2-.8-3.9-3-3.9-5.5ZM227.8,725.8c-3.4,0-6.1-2.7-6.1-6.1s2.7-6.1,6.1-6.1,6.1,2.7,6.1,6.1-2.7,6.1-6.1,6.1Z"/>
        <path class="cls-70" d="M239.5,749.1c0-2.6,1.6-4.8,3.9-5.7v-3.4h-17.2c-5,0-9,4-9,9s4,9,9,9h17.2v-3.4c-2.2-.7-3.9-2.9-3.9-5.5ZM227.8,755.2c-3.4,0-6.1-2.7-6.1-6.1s2.7-6.1,6.1-6.1,6.1,2.7,6.1,6.1-2.7,6.1-6.1,6.1Z"/>
        <path class="cls-70" d="M239.5,778.5c0-2.6,1.6-4.8,3.9-5.7v-3.4h-17.2c-5,0-9,4-9,9s4,9,9,9h17.2v-3.4c-2.2-.7-3.9-2.9-3.9-5.5ZM227.8,784.6c-3.4,0-6.1-2.7-6.1-6.1s2.7-6.1,6.1-6.1,6.1,2.7,6.1,6.1-2.7,6.1-6.1,6.1Z"/>
        <path class="cls-70" d="M239.5,807.9c0-2.6,1.6-4.8,3.9-5.7v-3.4h-17.2c-5,0-9,4-9,9s4,9,9,9h17.2v-3.4c-2.2-.7-3.9-2.9-3.9-5.5ZM227.8,814c-3.4,0-6.1-2.7-6.1-6.1s2.7-6.1,6.1-6.1,6.1,2.7,6.1,6.1-2.7,6.1-6.1,6.1Z"/>
        <path class="cls-70" d="M239.5,866.7c0-2.6,1.6-4.8,3.9-5.7v-3.4h-17.2c-5,0-9,4-9,9h0c0,5,4,9,9,9h17.2v-3.4c-2.2-.7-3.9-2.9-3.9-5.5ZM227.8,872.8c-3.4,0-6.1-2.7-6.1-6.1s2.7-6.1,6.1-6.1,6.1,2.7,6.1,6.1-2.7,6.1-6.1,6.1Z"/>
        <path class="cls-70" d="M239.5,896.1c0-2.6,1.6-4.8,3.9-5.7v-3.4h-17.2c-5,0-9,4-9,9h0c0,5,4,9,9,9h17.2v-3.4c-2.2-.7-3.9-2.9-3.9-5.5ZM227.8,902.2c-3.4,0-6.1-2.7-6.1-6.1s2.7-6.1,6.1-6.1,6.1,2.7,6.1,6.1-2.7,6.1-6.1,6.1Z"/>
        <path class="cls-45" d="M163.1,338.9l4.4-4.4-2.3-2.3-6.6,6.6h-1.5v-4.7c0-1.2-1-2.2-2.2-2.2h-69.5c-1.2,0-2.2,1-2.2,2.2v4.7h-1.5l-6.6-6.6-2.3,2.3,4.4,4.4c-.6.2-1,.8-1,1.4v56.3c0,.9.7,1.6,1.6,1.6h84.6c.9,0,1.6-.7,1.6-1.6v-56.3c0-.6-.4-1.2-.9-1.4Z"/>
        <g>
          <path class="cls-65" d="M100.3,361.2c0-3.2-2.6-5.8-5.8-5.8s-5.8,2.6-5.8,5.8.5,2.7,1.3,3.7h-.2v7.7c0,1.2,1,2.1,2.1,2.1h5.1c1.2,0,2.1-1,2.1-2.1v-7.7h0c.8-1,1.3-2.3,1.3-3.7Z"/>
          <path class="cls-65" d="M155.5,361.2c0-3.2-2.6-5.8-5.8-5.8s-5.8,2.6-5.8,5.8.5,2.7,1.3,3.7h-.2v7.7c0,1.2,1,2.1,2.1,2.1h5.1c1.2,0,2.1-1,2.1-2.1v-7.7h-.2c.9-1,1.4-2.3,1.4-3.7Z"/>
        </g>
        <path class="cls-44" d="M200.9,491.3h-21c-1.2,0-2.2-1-2.2-2.2v-26.7c0-1.2,1-2.2,2.2-2.2h21c1.2,0,2.2,1,2.2,2.2v26.7c0,1.3-1,2.2-2.2,2.2Z"/>
        <g>
          <rect class="cls-39" x="132" y="427.5" width="21.7" height="14.4"/>
          <path class="cls-54" d="M149.3,441.9c-2-1.8-3.2-4.4-3.2-7.2s1.2-5.4,3.2-7.2h-12.8c2,1.8,3.2,4.4,3.2,7.2s-1.2,5.4-3.2,7.2h12.8Z"/>
        </g>
        <g>
          <rect class="cls-39" x="132.3" y="512.8" width="21.7" height="14.4"/>
          <path class="cls-54" d="M149.6,527.3c-2-1.8-3.2-4.4-3.2-7.2s1.2-5.4,3.2-7.2h-12.8c2,1.8,3.2,4.4,3.2,7.2s-1.2,5.4-3.2,7.2h12.8Z"/>
        </g>
        <g>
          <rect class="cls-39" x="132.3" y="532" width="21.7" height="14.4"/>
          <path class="cls-54" d="M149.6,546.5c-2-1.8-3.2-4.4-3.2-7.2s1.2-5.4,3.2-7.2h-12.8c2,1.8,3.2,4.4,3.2,7.2s-1.2,5.4-3.2,7.2h12.8Z"/>
        </g>
        <g>
          <rect class="cls-39" x="61.2" y="583" width="10.6" height="5.4"/>
          <rect class="cls-54" x="63.5" y="583" width="6" height="5.4"/>
        </g>
        <g>
          <rect class="cls-39" x="177.1" y="563" width="5.4" height="10.6"/>
          <rect class="cls-54" x="177.1" y="565.3" width="5.4" height="6"/>
        </g>
        <rect class="cls-44" x="179.5" y="412.9" width="18.9" height="29.3"/>
        <g>
          <rect class="cls-39" x="171.6" y="514.2" width="20.6" height="9.6"/>
          <rect class="cls-28" x="176.2" y="514.2" width="11.5" height="9.6"/>
        </g>
        <rect class="cls-54" x="120.2" y="682.3" width="4.2" height="6.9"/>
        <rect class="cls-54" x="126.9" y="682.3" width="4.2" height="6.9"/>
        <rect class="cls-54" x="65.3" y="593.6" width="6.9" height="4.2"/>
        <rect class="cls-54" x="88.2" y="526.5" width="6.9" height="4.2"/>
        <rect class="cls-54" x="65" y="637.2" width="6.9" height="4.2"/>
        <rect class="cls-44" x="195" y="641.1" width="4.2" height="6.9"/>
        <rect class="cls-44" x="187.9" y="581.2" width="6.9" height="4.2"/>
        <rect class="cls-44" x="85.9" y="425.5" width="6.9" height="4.2"/>
        <rect class="cls-44" x="81" y="437.8" width="6.9" height="4.2"/>
        <rect class="cls-44" x="191.6" y="530.2" width="6.9" height="4.2"/>
        <path class="cls-32" d="M186.3,846H57.5c-2.1,0-3.9-1.7-3.9-3.9v-108.1c0-2.1,1.7-3.9,3.9-3.9h128.8c2.1,0,3.9,1.7,3.9,3.9v108.1c0,2.1-1.7,3.9-3.9,3.9Z"/>
        <rect class="cls-26" x="101.5" y="892.2" width="10.5" height="5.9"/>
        <rect class="cls-26" x="130.3" y="892.4" width="10.5" height="5.9"/>
        <rect class="cls-26" x="101.5" y="930" width="10.5" height="5.9"/>
        <rect class="cls-26" x="130.3" y="930.2" width="10.5" height="5.9"/>
        <polyline class="cls-25" points="17.5 374.8 17.5 379.2 35.4 397.1 35.4 445.7 51 461.3 51 596.1 55.9 601 91.2 601"/>
        <polyline class="cls-25" points="22.9 401.6 31 409.7 31 447.6 46.7 463.3 46.7 598.5 52.6 604.5 91 604.5"/>
        <polyline class="cls-25" points="23.2 460.1 43 479.8 43 601 53.4 611.4 95 611.4"/>
        <polyline class="cls-25" points="23.2 489.5 39.8 506 39.8 602.9 51.9 615.1 95.1 615.1"/>
        <polyline class="cls-25" points="23.2 519.6 35.6 532 35.6 608 49.5 621.9 93.4 621.9"/>
        <polyline class="cls-25" points="22.9 547.8 31.6 556.5 31.6 610.6 46.4 625.4 96.1 625.4"/>
        <polyline class="cls-25" points="22.9 606.4 45.3 628.9 102.7 628.9"/>
        <line class="cls-25" x1="23.7" y1="632.4" x2="98.8" y2="632.4"/>
        <path class="cls-25" d="M23.2,658.7c.1-.6,17.3-17.3,17.3-17.3h12.5l4.9,4.9h45.7"/>
        <polyline class="cls-25" points="20.4 684.6 25.7 679.3 25.7 671.5 30.9 666.3 30.9 657.9 43.9 644.9 52.6 644.9 57.3 649.5 95.3 649.5"/>
        <path class="cls-25" d="M30.7,674.8l3.4-3.4s-.7-8.9,0-9.6c.7-.7,6-6,6-6l6.3-6.3h6.1l3.7,3.7h35.1"/>
        <polyline class="cls-25" points="29.1 730.7 29.1 683.1 38.7 673.5 93.4 673.5 95 671.9 95 662.2"/>
        <polyline class="cls-25" points="17.5 829 17.5 825.3 32.9 809.9 32.9 729.6 35.7 726.9 35.7 685 42 678.7 94.2 678.7 98.4 674.5 98.4 667.2"/>
        <path class="cls-25" d="M35.7,712.5"/>
        <path class="cls-25" d="M35.7,727.8"/>
        <polyline class="cls-25" points="23.6 889.5 30.4 882.8 30.4 818.2 37.5 812.3"/>
        <polyline class="cls-25" points="35.6 822.6 42.6 815.5 42.6 725.8 39.9 723.1 39.9 686.3 44.6 681.6 94.9 681.6 101.9 674.6 101.9 658"/>
        <polyline class="cls-25" points="108.9 664.8 108.9 673.5 95.9 686.6 91.5 686.6"/>
        <polyline class="cls-25" points="93.9 695.2 112.4 676.6 112.4 661.3"/>
        <polyline class="cls-25" points="115.9 666.6 115.9 678.3 102.2 692 102.2 712 95.9 718.3 65 718.3 55.5 708.8"/>
        <polyline class="cls-25" points="133.9 705.6 138.7 700.8 138.7 687.5 135.5 684.3 135.5 674.3 132.4 671.2 132.4 660.3"/>
        <polyline class="cls-25" points="137.3 664.3 137.3 672.2 139.3 674.2 139.3 680.6 152.7 694 164.9 694 179.1 708.2"/>
        <polyline class="cls-25" points="145.3 662.2 145.3 672.5 151.3 678.5 172.3 678.5 200.5 706.8 200.5 819.4 206.7 825.6 206.7 876.4 212.3 882 212.3 902.2 223.3 913.3 223.3 918.6"/>
        <polyline class="cls-25" points="150.7 662.6 150.7 669.9 154.7 673.9 173.6 673.9 205.2 705.5 205.2 817 211.4 823.2 211.4 875.8 215.6 879.9 215.6 888.7"/>
        <polyline class="cls-25" points="157.5 657.4 165.3 657.4 211.1 703.3 211.1 814.9 227.2 831"/>
        <polyline class="cls-25" points="157.5 653 166.9 653 192.1 678.2"/>
        <polyline class="cls-25" points="158.6 647.9 166.6 647.9 190.1 671.4 195.5 671.4 206.3 682.2 206.3 689.1"/>
        <polyline class="cls-25" points="158.2 643.4 167.3 643.4 190.4 666.5 200.9 666.5"/>
        <polyline class="cls-25" points="158.2 639.3 169.1 639.3 174.1 644.3"/>
        <polyline class="cls-25" points="158.2 634.3 175.4 634.3 202.8 661.7 206.3 661.7 215.9 671.3 215.9 683.7"/>
        <line class="cls-25" x1="158.6" y1="628.9" x2="167.7" y2="628.9"/>
        <polyline class="cls-25" points="156.4 623.5 171.8 623.5 179.2 630.8"/>
        <polyline class="cls-25" points="187.9 643.4 192.4 638.9 192.4 619.6 203.4 619.6"/>
        <polyline class="cls-25" points="158.6 615.1 209.5 615.1 218.5 624"/>
        <polyline class="cls-25" points="158.2 610.6 213.8 610.6 220.3 604.2"/>
        <polyline class="cls-25" points="157.5 606.4 198.8 606.4 207.1 598.2 207.1 557.9 219.6 545.4"/>
        <polyline class="cls-25" points="158.6 602.2 179.1 602.2 202.4 578.9 202.4 556.1"/>
        <polyline class="cls-25" points="159.7 597.5 167.2 597.5 171.8 592.8"/>
        <path class="cls-25" d="M147.8,592.2c-.2-.3,9.2-9.2,9.2-9.2h15.6v-33.5l2.8-2.8v-7.7"/>
        <path class="cls-25" d="M147,589.9v-6.5l10.3-10.3"/>
        <polyline class="cls-25" points="140.1 590.9 140.1 580.1 147.4 572.7"/>
        <line class="cls-25" x1="136.6" y1="587.8" x2="136.6" y2="570.3"/>
        <path class="cls-25" d="M133.1,589.6v-15.2l-4.2-4.2"/>
        <path class="cls-25" d="M122.6,589.2v-20.7"/>
        <path class="cls-25" d="M119.2,590.9v-11.1l-7.6-7.6"/>
        <polyline class="cls-25" points="115.6 590.4 115.6 584 101.8 570.2 101.8 563.8 105 560.5 108.9 560.5 111.5 557.9 111.5 547.4 106.1 542 100 542"/>
        <polyline class="cls-25" points="99.8 547.8 105.4 547.8 108.5 550.9 108.5 556.1 105.7 558.8 101.1 558.8 97.7 562.2 97.7 571.3 108.7 582.3 108.7 589"/>
        <polyline class="cls-25" points="91.3 552.3 91.3 569 105.2 583 105.2 592.4"/>
        <polyline class="cls-25" points="76.5 551.5 76.5 558.7 85.9 568 85.9 571.9 99 585 99 594"/>
        <path class="cls-25" d="M94.8,588.1v-5l-11.7-11.7v-1.1l-4.5-4.5h-6.4l-1.7-1.7h-6.9l-6.7-6.7v-14.4l1.6-1.6h8.8"/>
        <polyline class="cls-25" points="69.1 535.4 60.4 535.4 55.4 540.4 55.4 558.2 63.4 566.2 69.5 566.2 75.9 572.6 78.4 572.6 92.5 586.6"/>
        <line class="cls-25" x1="73.8" y1="508.7" x2="56" y2="526.5"/>
        <polyline class="cls-25" points="137.6 569.3 137.6 563.2 134.7 560.2 134.7 557.2 130.2 552.8 125.2 552.8 121.1 548.7 121.1 529.7 109.7 518.3 109.7 436.1 124 421.8 124 412.7 127.7 409"/>
        <path class="cls-25" d="M135.3,462v-9l-3.1-3.1h-9.8l-4.5-4.5v-4.3"/>
        <polyline class="cls-25" points="129.3 494.3 129.3 499.7 126.1 502.9 120.2 502.9 118.6 504.4"/>
        <polyline class="cls-25" points="62.9 407.5 62.9 416.9 79.1 433.1 83.6 433.1 88.5 437.9 88.5 446.2 83.9 450.7 83.9 464.2"/>
        <rect class="cls-27" x="45.6" y="400.3" width="18.9" height="9.6"/>
        <g>
          <rect class="cls-29" x="102.7" y="398.2" width="4.3" height="11.5"/>
          <rect class="cls-29" x="110.4" y="398.2" width="4.3" height="11.5"/>
          <rect class="cls-29" x="118.1" y="398.2" width="4.3" height="11.5"/>
          <rect class="cls-29" x="125.7" y="398.2" width="4.3" height="11.5"/>
          <rect class="cls-29" x="133.4" y="398.2" width="4.3" height="11.5"/>
        </g>
        <g>
          <path class="cls-49" d="M106.8,419v-5.5h2.5v5.8c0,2,.6,2.7,1.7,2.7s1.8-.7,1.8-2.7v-5.8h2.4v5.5c0,3.5-1.4,5.1-4.2,5.1s-4.2-1.6-4.2-5.1Z"/>
          <path class="cls-49" d="M116.7,422.5l1.3-1.6c.7.6,1.7,1,2.6,1s1.4-.4,1.4-.9-.6-.8-1.5-1.2l-1.3-.6c-1.1-.4-2.1-1.3-2.1-2.8s1.6-3.2,3.8-3.2,2.5.5,3.4,1.3l-1.3,1.6c-.7-.5-1.4-.8-2.1-.8s-1.3.3-1.3.8.7.8,1.6,1.2l1.3.5c1.3.5,2.1,1.4,2.1,2.8s-1.5,3.3-4,3.3c-1.5.2-2.8-.3-3.9-1.4Z"/>
          <path class="cls-49" d="M126.3,413.5h3.6c2.2,0,3.9.6,3.9,2.6s-.5,1.9-1.4,2.2h0c1.1.4,1.9,1.2,1.9,2.5,0,2.1-1.8,3.1-4.1,3.1h-3.9s0-10.4,0-10.4ZM129.8,417.6c1.1,0,1.5-.5,1.5-1.2s-.5-1.1-1.5-1.1h-1.1v2.2h1.1ZM130,422c1.2,0,1.8-.4,1.8-1.3s-.6-1.2-1.8-1.2h-1.2v2.5h1.2Z"/>
        </g>
        <path class="cls-78" d="M170.2,494.9h-45.7c-.5,0-1-.4-1-1v-33.5c0-.5.4-1,1-1h45.7c.5,0,1,.4,1,1v33.5c0,.5-.5,1-1,1Z"/>
        <g>
          <rect class="cls-29" x="128.6" y="455.2" width="1.4" height="4.1"/>
          <rect class="cls-29" x="134.6" y="455.2" width="1.4" height="4.1"/>
          <rect class="cls-29" x="140.6" y="455.2" width="1.4" height="4.1"/>
          <rect class="cls-29" x="146.6" y="455.2" width="1.4" height="4.1"/>
          <rect class="cls-29" x="152.6" y="455.2" width="1.4" height="4.1"/>
          <rect class="cls-29" x="158.6" y="455.2" width="1.4" height="4.1"/>
          <rect class="cls-29" x="164.6" y="455.2" width="1.4" height="4.1"/>
        </g>
        <g>
          <rect class="cls-29" x="128.6" y="494.9" width="1.4" height="4.1"/>
          <rect class="cls-29" x="134.6" y="494.9" width="1.4" height="4.1"/>
          <rect class="cls-29" x="140.6" y="494.9" width="1.4" height="4.1"/>
          <rect class="cls-29" x="146.6" y="494.9" width="1.4" height="4.1"/>
          <rect class="cls-29" x="152.6" y="494.9" width="1.4" height="4.1"/>
          <rect class="cls-29" x="158.6" y="494.9" width="1.4" height="4.1"/>
          <rect class="cls-29" x="164.6" y="494.9" width="1.4" height="4.1"/>
        </g>
        <g>
          <rect class="cls-19" x="61.4" y="463.2" width="39.3" height="48.9"/>
          <path class="cls-64" d="M81,506h0c-7.6,0-13.7-6.1-13.7-13.7v-9.1c0-7.6,6.1-13.7,13.7-13.7h0c7.6,0,13.7,6.1,13.7,13.7v9.1c0,7.5-6.1,13.7-13.7,13.7Z"/>
          <path class="cls-64" d="M61.4,473.5h0v-10.3h10.3c-.1,5.7-4.6,10.3-10.3,10.3Z"/>
          <path class="cls-64" d="M71.6,512.2h-10.2v-10.3h0c5.7,0,10.2,4.6,10.2,10.3h0Z"/>
          <path class="cls-64" d="M100.7,473.5h0c-5.7,0-10.3-4.6-10.3-10.3h10.3v10.3Z"/>
          <path class="cls-64" d="M100.7,512.2h-10.3c0-5.7,4.6-10.3,10.3-10.3h0s0,10.3,0,10.3Z"/>
        </g>
        <g>
          <rect class="cls-78" x="64.9" y="532.7" width="34.6" height="22.9"/>
          <g>
            <rect class="cls-29" x="60.7" y="533.9" width="4.2" height="3.4"/>
            <rect class="cls-29" x="60.7" y="539.6" width="4.2" height="3.4"/>
            <rect class="cls-29" x="60.7" y="545.3" width="4.2" height="3.4"/>
            <rect class="cls-29" x="60.7" y="551.1" width="4.2" height="3.4"/>
          </g>
          <g>
            <rect class="cls-29" x="99.5" y="533.9" width="4.2" height="3.4"/>
            <rect class="cls-29" x="99.5" y="539.6" width="4.2" height="3.4"/>
            <rect class="cls-29" x="99.5" y="545.3" width="4.2" height="3.4"/>
            <rect class="cls-29" x="99.5" y="551.1" width="4.2" height="3.4"/>
          </g>
        </g>
        <rect class="cls-44" x="135.5" y="564.2" width="4.2" height="6.9"/>
        <g>
          <path class="cls-37" d="M160.4,668h-79c-.7,0-1.3-.6-1.3-1.3v-79.1c0-.7.6-1.3,1.3-1.3h79.1c.7,0,1.3.6,1.3,1.3v79.1c-.1.7-.7,1.3-1.4,1.3Z"/>
          <g>
            <rect class="cls-29" x="86.2" y="584.4" width="3.1" height="1.9"/>
            <rect class="cls-29" x="89.7" y="584.4" width="3.1" height="1.9"/>
            <rect class="cls-29" x="93.2" y="584.4" width="3.1" height="1.9"/>
            <rect class="cls-29" x="96.7" y="584.4" width="3.1" height="1.9"/>
            <rect class="cls-29" x="100.2" y="584.4" width="3.1" height="1.9"/>
            <rect class="cls-29" x="103.6" y="584.4" width="3.1" height="1.9"/>
            <rect class="cls-29" x="107.1" y="584.4" width="3.1" height="1.9"/>
            <rect class="cls-29" x="114.1" y="584.4" width="3.1" height="1.9"/>
            <rect class="cls-29" x="121.1" y="584.4" width="3.1" height="1.9"/>
            <rect class="cls-29" x="128" y="584.4" width="3.1" height="1.9"/>
            <rect class="cls-29" x="138.5" y="584.4" width="3.1" height="1.9"/>
            <rect class="cls-29" x="142" y="584.4" width="3.1" height="1.9"/>
            <rect class="cls-29" x="149" y="584.4" width="3.1" height="1.9"/>
            <rect class="cls-29" x="110.6" y="584.4" width="3.1" height="1.9"/>
            <rect class="cls-29" x="117.6" y="584.4" width="3.1" height="1.9"/>
            <rect class="cls-29" x="124.6" y="584.4" width="3.1" height="1.9"/>
            <rect class="cls-29" x="131.5" y="584.4" width="3.1" height="1.9"/>
            <rect class="cls-29" x="135" y="584.4" width="3.1" height="1.9"/>
            <rect class="cls-29" x="145.5" y="584.4" width="3.1" height="1.9"/>
            <rect class="cls-29" x="152.4" y="584.4" width="3.1" height="1.9"/>
          </g>
          <g>
            <rect class="cls-29" x="86.4" y="668" width="3.1" height="1.9"/>
            <rect class="cls-29" x="89.9" y="668" width="3.1" height="1.9"/>
            <rect class="cls-29" x="93.4" y="668" width="3.1" height="1.9"/>
            <rect class="cls-29" x="96.9" y="668" width="3.1" height="1.9"/>
            <rect class="cls-29" x="100.4" y="668" width="3.1" height="1.9"/>
            <rect class="cls-29" x="103.8" y="668" width="3.1" height="1.9"/>
            <rect class="cls-29" x="107.3" y="668" width="3.1" height="1.9"/>
            <rect class="cls-29" x="114.3" y="668" width="3.1" height="1.9"/>
            <rect class="cls-29" x="121.3" y="668" width="3.1" height="1.9"/>
            <rect class="cls-29" x="128.2" y="668" width="3.1" height="1.9"/>
            <rect class="cls-29" x="138.7" y="668" width="3.1" height="1.9"/>
            <rect class="cls-29" x="142.2" y="668" width="3.1" height="1.9"/>
            <rect class="cls-29" x="149.1" y="668" width="3.1" height="1.9"/>
            <rect class="cls-29" x="110.8" y="668" width="3.1" height="1.9"/>
            <rect class="cls-29" x="117.8" y="668" width="3.1" height="1.9"/>
            <rect class="cls-29" x="124.7" y="668" width="3.1" height="1.9"/>
            <rect class="cls-29" x="131.7" y="668" width="3.1" height="1.9"/>
            <rect class="cls-29" x="135.2" y="668" width="3.1" height="1.9"/>
            <rect class="cls-29" x="145.7" y="668" width="3.1" height="1.9"/>
            <rect class="cls-29" x="152.6" y="668" width="3.1" height="1.9"/>
          </g>
          <g>
            <rect class="cls-29" x="78.1" y="658.8" width="1.9" height="3.1"/>
            <rect class="cls-29" x="78.1" y="655.3" width="1.9" height="3.1"/>
            <rect class="cls-29" x="78.1" y="651.8" width="1.9" height="3.1"/>
            <rect class="cls-29" x="78.1" y="648.3" width="1.9" height="3.1"/>
            <rect class="cls-29" x="78.2" y="644.8" width="1.9" height="3.1"/>
            <rect class="cls-29" x="78.2" y="641.3" width="1.9" height="3.1"/>
            <rect class="cls-29" x="78.1" y="637.8" width="1.9" height="3.1"/>
            <rect class="cls-29" x="78.1" y="630.9" width="1.9" height="3.1"/>
            <rect class="cls-29" x="78.1" y="623.9" width="1.9" height="3.1"/>
            <rect class="cls-29" x="78.2" y="616.9" width="1.9" height="3.1"/>
            <rect class="cls-29" x="78.1" y="606.5" width="1.9" height="3.1"/>
            <rect class="cls-29" x="78.1" y="603" width="1.9" height="3.1"/>
            <rect class="cls-29" x="78.2" y="596" width="1.9" height="3.1"/>
            <rect class="cls-29" x="78.1" y="634.4" width="1.9" height="3.1"/>
            <rect class="cls-29" x="78.1" y="627.4" width="1.9" height="3.1"/>
            <rect class="cls-29" x="78.2" y="620.4" width="1.9" height="3.1"/>
            <rect class="cls-29" x="78.1" y="613.4" width="1.9" height="3.1"/>
            <rect class="cls-29" x="78.1" y="610" width="1.9" height="3.1"/>
            <rect class="cls-29" x="78.2" y="599.5" width="1.9" height="3.1"/>
            <rect class="cls-29" x="78.1" y="592.5" width="1.9" height="3.1"/>
          </g>
          <g>
            <rect class="cls-29" x="161.7" y="658.7" width="1.9" height="3.1"/>
            <rect class="cls-29" x="161.7" y="655.3" width="1.9" height="3.1"/>
            <rect class="cls-29" x="161.7" y="651.8" width="1.9" height="3.1"/>
            <rect class="cls-29" x="161.7" y="648.3" width="1.9" height="3.1"/>
            <rect class="cls-29" x="161.8" y="644.8" width="1.9" height="3.1"/>
            <rect class="cls-29" x="161.7" y="641.3" width="1.9" height="3.1"/>
            <rect class="cls-29" x="161.7" y="637.8" width="1.9" height="3.1"/>
            <rect class="cls-29" x="161.7" y="630.9" width="1.9" height="3.1"/>
            <rect class="cls-29" x="161.7" y="623.9" width="1.9" height="3.1"/>
            <rect class="cls-29" x="161.7" y="616.9" width="1.9" height="3.1"/>
            <rect class="cls-29" x="161.7" y="606.5" width="1.9" height="3.1"/>
            <rect class="cls-29" x="161.7" y="603" width="1.9" height="3.1"/>
            <rect class="cls-29" x="161.8" y="596" width="1.9" height="3.1"/>
            <rect class="cls-29" x="161.7" y="634.3" width="1.9" height="3.1"/>
            <rect class="cls-29" x="161.7" y="627.4" width="1.9" height="3.1"/>
            <rect class="cls-29" x="161.8" y="620.4" width="1.9" height="3.1"/>
            <rect class="cls-29" x="161.7" y="613.4" width="1.9" height="3.1"/>
            <rect class="cls-29" x="161.7" y="610" width="1.9" height="3.1"/>
            <rect class="cls-29" x="161.8" y="599.5" width="1.9" height="3.1"/>
            <rect class="cls-29" x="161.7" y="592.5" width="1.9" height="3.1"/>
          </g>
          <circle class="cls-34" cx="90.2" cy="597.5" r="2.8"/>
        </g>
        <rect class="cls-78" x="187.1" y="552.1" width="18.2" height="8.6"/>
        <rect class="cls-29" x="189.1" y="560.8" width="2.9" height="8.7"/>
        <rect class="cls-29" x="200.9" y="560.8" width="2.9" height="8.7"/>
        <rect class="cls-29" x="194.8" y="543.5" width="2.9" height="8.7"/>
        <rect class="cls-54" x="169.2" y="591.5" width="6.9" height="4.2"/>
        <rect class="cls-44" x="189.5" y="621.3" width="4.2" height="6.9"/>
        <rect class="cls-54" x="172.3" y="640.5" width="4.2" height="6.9" transform="translate(-404.3 311.9) rotate(-45)"/>
        <g>
          <path class="cls-70" d="M157,702.7c-5.1,0-9.2,4.1-9.2,9.2s4.1,9.2,9.2,9.2,9.2-4.1,9.2-9.2-4.1-9.2-9.2-9.2ZM157,717.6c-3.1,0-5.7-2.6-5.7-5.7s2.6-5.7,5.7-5.7,5.7,2.6,5.7,5.7-2.5,5.7-5.7,5.7Z"/>
          <path class="cls-70" d="M118.7,703.1v17.7h17.7v-17.7h-17.7ZM127.6,717.6c-3.1,0-5.7-2.6-5.7-5.7s2.6-5.7,5.7-5.7,5.7,2.6,5.7,5.7-2.6,5.7-5.7,5.7Z"/>
          <path class="cls-70" d="M186.8,702.7c-5.1,0-9.2,4.1-9.2,9.2s4.1,9.2,9.2,9.2,9.2-4.1,9.2-9.2-4.1-9.2-9.2-9.2ZM186.8,717.6c-3.1,0-5.7-2.6-5.7-5.7s2.6-5.7,5.7-5.7,5.7,2.6,5.7,5.7-2.5,5.7-5.7,5.7Z"/>
        </g>
        <path class="cls-70" d="M17.5,681.3H.3v3.4c2.3.9,3.9,3.1,3.9,5.7s-1.6,4.8-3.9,5.7v3.4h17.2c5,0,9-4,9-9s-4.1-9.2-9-9.2ZM15.9,696.4c-3.4,0-6.1-2.7-6.1-6.1s2.7-6.1,6.1-6.1,6.1,2.7,6.1,6.1-2.8,6.1-6.1,6.1Z"/>
        <path class="cls-70" d="M17.5,651.9H.3v3.4c2.3.9,3.9,3.1,3.9,5.7s-1.6,4.8-3.9,5.7v3.4h17.2c5,0,9-4,9-9h0c0-5.1-4.1-9.2-9-9.2ZM15.9,667c-3.4,0-6.1-2.7-6.1-6.1s2.7-6.1,6.1-6.1,6.1,2.7,6.1,6.1-2.8,6.1-6.1,6.1Z"/>
        <path class="cls-70" d="M17.5,622.5H.3v3.4c2.3.9,3.9,3.1,3.9,5.7s-1.6,4.8-3.9,5.7v3.4h17.2c5,0,9-4,9-9h0c0-5.1-4.1-9.2-9-9.2ZM15.9,637.6c-3.4,0-6.1-2.7-6.1-6.1s2.7-6.1,6.1-6.1,6.1,2.7,6.1,6.1-2.8,6.1-6.1,6.1Z"/>
        <path class="cls-70" d="M17.5,593.1H.3v3.4c2.3.9,3.9,3.1,3.9,5.7s-1.6,4.8-3.9,5.7v3.4h17.2c5,0,9-4,9-9s-4.1-9.2-9-9.2ZM15.9,608.3c-3.4,0-6.1-2.7-6.1-6.1s2.7-6.1,6.1-6.1,6.1,2.7,6.1,6.1-2.8,6.1-6.1,6.1Z"/>
        <path class="cls-70" d="M17.5,534.4H.3v3.4c2.3.9,3.9,3.1,3.9,5.7s-1.6,4.8-3.9,5.7v3.4h17.2c5,0,9-4,9-9s-4.1-9.2-9-9.2ZM15.9,549.5c-3.4,0-6.1-2.7-6.1-6.1s2.7-6.1,6.1-6.1,6.1,2.7,6.1,6.1-2.8,6.1-6.1,6.1Z"/>
        <path class="cls-70" d="M17.5,505H.3v3.4c2.3.9,3.9,3.1,3.9,5.7s-1.6,4.8-3.9,5.7v3.4h17.2c5,0,9-4,9-9s-4.1-9.2-9-9.2ZM15.9,520.1c-3.4,0-6.1-2.7-6.1-6.1s2.7-6.1,6.1-6.1,6.1,2.7,6.1,6.1-2.8,6.1-6.1,6.1Z"/>
        <path class="cls-70" d="M17.5,475.6H.3v3.4c2.3.9,3.9,3.1,3.9,5.7s-1.6,4.8-3.9,5.7v3.4h17.2c5,0,9-4,9-9s-4.1-9.2-9-9.2ZM15.9,490.7c-3.4,0-6.1-2.7-6.1-6.1s2.7-6.1,6.1-6.1,6.1,2.7,6.1,6.1-2.8,6.1-6.1,6.1Z"/>
        <path class="cls-70" d="M17.5,446.2H.3v3.4c2.3.9,3.9,3.1,3.9,5.7s-1.6,4.8-3.9,5.7v3.4h17.2c5,0,9-4,9-9s-4.1-9.2-9-9.2ZM15.9,461.3c-3.4,0-6.1-2.7-6.1-6.1s2.7-6.1,6.1-6.1,6.1,2.7,6.1,6.1-2.8,6.1-6.1,6.1Z"/>
        <path class="cls-70" d="M17.5,387.4H.3v3.4c2.3.9,3.9,3.1,3.9,5.7s-1.6,4.8-3.9,5.7v3.4h17.2c5,0,9-4,9-9h0c0-5.2-4.1-9.2-9-9.2ZM15.9,402.5c-3.4,0-6.1-2.7-6.1-6.1s2.7-6.1,6.1-6.1,6.1,2.7,6.1,6.1-2.8,6.1-6.1,6.1Z"/>
        <path class="cls-70" d="M17.5,358H.3v3.4c2.3.9,3.9,3.1,3.9,5.7s-1.6,4.8-3.9,5.7v3.4h17.2c5,0,9-4,9-9s-4.1-9.2-9-9.2ZM15.9,373.1c-3.4,0-6.1-2.7-6.1-6.1s2.7-6.1,6.1-6.1,6.1,2.7,6.1,6.1-2.8,6.1-6.1,6.1Z"/>
        <path class="cls-70" d="M17.5,828.3H.3v3.4c2.3.9,3.9,3.1,3.9,5.7s-1.6,4.8-3.9,5.7v3.4h17.2c5,0,9-4,9-9s-4.1-9.2-9-9.2ZM15.9,843.4c-3.4,0-6.1-2.7-6.1-6.1s2.7-6.1,6.1-6.1,6.1,2.7,6.1,6.1-2.8,6.1-6.1,6.1Z"/>
        <path class="cls-70" d="M239.5,925.5c0-2.6,1.6-4.8,3.9-5.7v-3.4h-17.2c-5,0-9,4-9,9s4,9,9,9h17.2v-3.4c-2.2-.7-3.9-2.9-3.9-5.5ZM227.8,931.6c-3.4,0-6.1-2.7-6.1-6.1s2.7-6.1,6.1-6.1,6.1,2.7,6.1,6.1-2.7,6.1-6.1,6.1Z"/>
        <path class="cls-70" d="M239.5,837.3c0-2.6,1.6-4.8,3.9-5.7v-3.4h-17.2c-5,0-9,4-9,9s4,9,9,9h17.2v-3.2c-2.2-.9-3.9-3.1-3.9-5.7ZM227.8,843.4c-3.4,0-6.1-2.7-6.1-6.1s2.7-6.1,6.1-6.1,6.1,2.7,6.1,6.1-2.7,6.1-6.1,6.1Z"/>
        <path class="cls-70" d="M239.5,602.2c0-2.6,1.6-4.8,3.9-5.7v-3.4h-17.2c-5,0-9,4-9,9s4,9,9,9h17.2v-3.4c-2.2-.7-3.9-2.9-3.9-5.5ZM227.8,608.3c-3.4,0-6.1-2.7-6.1-6.1s2.7-6.1,6.1-6.1,6.1,2.7,6.1,6.1-2.7,6.1-6.1,6.1Z"/>
        <rect class="cls-26" x="91.4" y="694.7" width="3.7" height="6.7"/>
        <g>
          <path class="cls-58" d="M82.2,715.6h-31.8c-1.2,0-2.2-1-2.2-2.2v-23.7c0-1.2,1-2.2,2.2-2.2h31.8c1.2,0,2.2,1,2.2,2.2v23.7c0,1.2-1,2.2-2.2,2.2Z"/>
          <path class="cls-71" d="M79.9,713.1h-27.3c-.8,0-1.4-.6-1.4-1.4v-20.4c0-.8.6-1.4,1.4-1.4h27.3c.8,0,1.4.6,1.4,1.4v20.4c0,.8-.6,1.4-1.4,1.4Z"/>
        </g>
        <rect class="cls-26" x="91.5" y="714.6" width="3.7" height="6.7"/>
        <rect class="cls-44" x="100.1" y="700.4" width="4.2" height="6.9"/>
        <g>
          <path class="cls-49" d="M42.3,520.5v-3.6c0-2.2.6-3.9,2.6-3.9s1.9.5,2.2,1.4h0c.3-1.1,1.1-1.9,2.4-1.9,2.1,0,3.1,1.8,3.1,4.1v3.9h-10.4ZM46.4,517c0-1.1-.5-1.5-1.2-1.5s-1.1.5-1.1,1.5v1.1h2.2v-1.1h0ZM50.8,516.8c0-1.2-.4-1.8-1.3-1.8s-1.2.6-1.2,1.8v1.2h2.5v-1.2Z"/>
          <path class="cls-49" d="M47.4,511.3c-3.4,0-5.4-1.9-5.4-4.8s2-4.8,5.4-4.8,5.4,1.9,5.4,4.8-2,4.8-5.4,4.8ZM47.4,504.3c-2,0-3.2.8-3.2,2.2s1.2,2.2,3.2,2.2,3.3-.9,3.3-2.2-1.3-2.2-3.3-2.2Z"/>
          <path class="cls-49" d="M47.4,500.3c-3.4,0-5.4-1.9-5.4-4.8s2-4.8,5.4-4.8,5.4,1.9,5.4,4.8-2,4.8-5.4,4.8ZM47.4,493.3c-2,0-3.2.8-3.2,2.2s1.2,2.2,3.2,2.2,3.3-.9,3.3-2.2-1.3-2.2-3.3-2.2Z"/>
          <path class="cls-49" d="M44.3,487.3v2.8h-2.1v-8.1h2.1v2.8h8.3v2.5h-8.3Z"/>
          <path class="cls-49" d="M51.3,481.4l-1.6-1.3c.6-.7,1-1.7,1-2.6s-.4-1.4-.9-1.4-.8.6-1.2,1.5l-.6,1.3c-.4,1.1-1.3,2.1-2.8,2.1s-3.2-1.6-3.2-3.8.5-2.5,1.3-3.4l1.6,1.3c-.5.7-.8,1.4-.8,2.1s.3,1.3.8,1.3.8-.7,1.2-1.6l.5-1.3c.5-1.3,1.4-2.1,2.8-2.1s3.3,1.5,3.3,4c.2,1.4-.3,2.8-1.4,3.9Z"/>
          <path class="cls-49" d="M42.3,471.8v-6.6h2.1v4.1h2v-3.5h2.1v3.5h2.2v-4.3h2.1v6.8h-10.5Z"/>
          <path class="cls-49" d="M42.3,463v-2.5h8.3v-4h2.1v6.5h-10.4Z"/>
        </g>
        <g>
          <path class="cls-49" d="M141.4,677.7h3c3.2,0,5.3,1.6,5.3,5.2s-2.1,5.2-5.1,5.2h-3.1v-10.4h0ZM144.3,686.1c1.7,0,2.9-.8,2.9-3.2s-1.2-3.2-2.9-3.2h-.4v6.4h.4Z"/>
          <path class="cls-49" d="M151.6,677.7h6.6v2.1h-4.1v2h3.5v2.1h-3.5v2.2h4.3v2.1h-6.8v-10.5Z"/>
          <path class="cls-49" d="M160.4,677.7h3.6c2.2,0,3.9.6,3.9,2.6s-.5,1.9-1.4,2.2h0c1.1.4,1.9,1.2,1.9,2.5,0,2.1-1.8,3.1-4.1,3.1h-3.9v-10.4ZM164,681.9c1.1,0,1.5-.5,1.5-1.2s-.5-1.1-1.5-1.1h-1.1v2.2h1.1ZM164.2,686.2c1.2,0,1.8-.4,1.8-1.3s-.6-1.2-1.8-1.2h-1.2v2.5h1.2Z"/>
          <path class="cls-49" d="M170.1,683.2v-5.5h2.5v5.8c0,2,.6,2.7,1.7,2.7s1.8-.7,1.8-2.7v-5.8h2.4v5.5c0,3.5-1.4,5.1-4.2,5.1s-4.2-1.5-4.2-5.1Z"/>
          <path class="cls-49" d="M180.3,683c0-3.5,2.3-5.5,5.1-5.5s2.6.6,3.3,1.4l-1.3,1.5c-.5-.5-1.1-.7-1.9-.7-1.5,0-2.7,1.2-2.7,3.2s.9,3.3,2.9,3.3.8,0,1-.3v-1.7h-1.7v-2h3.9v4.9c-.7.7-2,1.3-3.5,1.3-2.8-.1-5.1-1.9-5.1-5.4Z"/>
        </g>
        <rect class="cls-20" x="114.2" y="699.1" width="86.4" height="25.6"/>
        <g>
          <path class="cls-49" d="M40.1,413.5h2.5v8.3h4v2.1h-6.5v-10.4Z"/>
          <path class="cls-49" d="M48.4,413.5h6.6v2.1h-4.1v2h3.5v2.1h-3.5v2.2h4.3v2.1h-6.8v-10.5Z"/>
          <path class="cls-49" d="M57.2,413.5h3c3.2,0,5.3,1.6,5.3,5.2s-2.1,5.2-5.1,5.2h-3.1v-10.4h-.1ZM60.1,421.9c1.7,0,2.9-.8,2.9-3.2s-1.2-3.2-2.9-3.2h-.4v6.4h.4Z"/>
        </g>
        <g>
          <rect class="cls-39" x="143.7" y="563" width="5.4" height="10.6"/>
          <rect class="cls-54" x="143.7" y="565.3" width="5.4" height="6"/>
        </g>
        <g>
          <rect class="cls-39" x="154.3" y="563" width="5.4" height="10.6"/>
          <rect class="cls-54" x="154.3" y="565.3" width="5.4" height="6"/>
        </g>
        <rect class="cls-44" x="127.1" y="564.2" width="4.2" height="6.9"/>
        <rect class="cls-44" x="67.3" y="570.7" width="6.9" height="4.2"/>
        <rect class="cls-54" x="120.5" y="564.2" width="4.2" height="6.9"/>
        <rect class="cls-54" x="110.4" y="564.2" width="4.2" height="6.9"/>
        <path class="cls-70" d="M239.5,543.4c0-2.6,1.6-4.8,3.9-5.7v-3.4h-17.2c-5,0-9,4-9,9s4,9,9,9h17.2v-3.3c-2.2-.8-3.9-3-3.9-5.6ZM227.8,549.5c-3.4,0-6.1-2.7-6.1-6.1s2.7-6.1,6.1-6.1,6.1,2.7,6.1,6.1-2.7,6.1-6.1,6.1Z"/>
        <g>
          <rect class="cls-39" x="172.5" y="532.3" width="5.6" height="11.9"/>
          <rect class="cls-28" x="172.5" y="535" width="5.6" height="6.6"/>
        </g>
      </g>
      <sodipodi:namedview id="namedview97" bordercolor="#666666" borderopacity="1" gridtolerance="10" guidetolerance="10" inkscape:current-layer="Ebene_1" inkscape:cx="92.381765" inkscape:cy="481.68798" inkscape:pageopacity="0" inkscape:pageshadow="2" inkscape:window-height="1017" inkscape:window-maximized="1" inkscape:window-width="1920" inkscape:window-x="1912" inkscape:window-y="-8" inkscape:zoom="0.70761989" objecttolerance="10" pagecolor="#ffffff" showgrid="false"/>
      <circle id="circle281" class="cls-36" cx="232.1" cy="425.9" r="11.6"/>
      <circle id="circle281-2" class="cls-51" cx="232.1" cy="543.4" r="11.6"/>
      <circle id="circle281-3" class="cls-47" cx="232.1" cy="602.1" r="11.6"/>
      <circle id="circle281-4" class="cls-33" cx="232.1" cy="631.5" r="11.6"/>
      <rect id="rect11" class="cls-36" x="232.1" y="421.3" width="196.5" height="9.1"/>
      <g id="image406">
        <g>
          <path class="cls-62" d="M401.4,529.1v.7h-3.9s0,0,0,0h0c0,0,.2,0,.3,0,0,0,.1,0,.2-.1,0,0,.2-.2.2-.3,0,0,0,0,0-.1,0,0,0,0,0,0h3.1s0,0,0,0h0s0,0,0,0h-3.1s0,0,0,0c0,0,0-.1,0-.2,0,0,0,0,0,0,0,0,0,0,0,0s0,0,0,0c0,0,0,.1,0,.2h0s0,0,0,0h3.1s0,0,0,0Z"/>
          <path class="cls-62" d="M394.8,529.8h-3.9v-.6h3.2s0,0,0,0c0,.1,0,.2.1.3,0,0,0,0,0,0,0,0,0,0,.2.1,0,0,.1,0,.2,0,0,0,0,0,0,0,0,0,0,0,0,0h0s0,0,0,0h0s0,0,0,0Z"/>
          <path class="cls-62" d="M390.9,529.1v-.6h3.8s0,0,0,0c0,0-.1,0-.2,0,0,0,0,0,0,0,0,0-.1,0-.2.1,0,0-.1.1-.2.2,0,0,0,.1,0,.2,0,0,0,0,0,0,0,0,0,0,0,0,0,0,0,0,0,0h-3.1s0,0,0,0Z"/>
          <path class="cls-62" d="M401.4,529.1h-3.2s0,0,0,0h0c0,0,0,0,0,0,0,0,0,0,0,0,0,0,0,0,0,0,0,0,0,0,0,0,0,0,0,0,0,0,0,0,0,0,0,0,0,0,0,0,0,0,0,0,0,0,0,0s0,0,0,0c0,0,0,0,0,0s0,0,0,0c0,0,0-.1-.1-.2,0,0-.2-.1-.3-.2,0,0-.1,0-.2,0t0,0s0,0,0,0h0c1.3,0,2.6,0,3.8,0,0,.2,0,.4,0,.6Z"/>
          <path class="cls-49" d="M397.3,529.8h-2.5s0,0,0,0c.1,0,.2,0,.3,0,0,0,0,0,0,0,0,0,0,0,0,0h1.5s0,0,0,0c0,0,.1,0,.2.1,0,0,.1,0,.2,0,0,0,0,0,0,0,0,0,0,0,0,0,0,0,0,0,0,0Z"/>
          <path class="cls-49" d="M394.9,528.5h2.4s0,0,0,0c0,0-.2,0-.3,0,0,0,0,0-.1,0,0,0,0,0,0,0h-.2s0,0,0,0h-1.3s0,0,0,0c0,0-.1,0-.2-.1,0,0-.2,0-.2,0,0,0,0,0,0,0t0,0Z"/>
          <path class="cls-30" d="M390.9,529.1h3.2s0,0,0,0h-3.1s0,0,0,0,0,0,0,0h0s0,0,0,0Z"/>
          <path class="cls-35" d="M394.9,529.8h0s0,0,0,0h0s0,0,0,0Z"/>
          <path class="cls-57" d="M397.4,529.8h0s0,0,0,0c0,0,0,0,0,0h0Z"/>
          <path class="cls-52" d="M394.7,528.5s0,0,0,0h0,0Z"/>
          <path class="cls-43" d="M397.5,528.5s0,0,0,0t0,0h0s0,0,0,0Z"/>
          <path class="cls-11" d="M397.4,528.5h0s0,0,0,0h0s0,0,0,0t0,0Z"/>
          <path class="cls-11" d="M394.8,528.5h0s0,0,0,0h0s0,0,0,0t0,0Z"/>
          <path class="cls-9" d="M397.4,529.8s0,0,0,0c0,0,0,0,0,0h0s0,0,0,0Z"/>
          <path class="cls-38" d="M394.8,529.8s0,0,0,0c0,0,0,0,0,0h0s0,0,0,0Z"/>
          <path class="cls-9" d="M394.9,529.8s0,0,0,0c0,0,0,0,0,0h0s0,0,0,0Z"/>
          <path class="cls-38" d="M397.4,529.8s0,0,0,0c0,0,0,0,0,0h0s0,0,0,0Z"/>
          <path class="cls-46" d="M394.8,528.5s0,0,0,0c0,0,0,0,0,0h0s0,0,0,0Z"/>
          <path class="cls-79" d="M394.9,528.5s0,0,0,0h0s0,0,0,0Z"/>
          <path class="cls-40" d="M397.4,528.5s0,0,0,0c0,0,0,0,0,0h0s0,0,0,0Z"/>
          <path class="cls-14" d="M397.4,528.5s0,0,0,0h0s0,0,0,0Z"/>
          <path class="cls-55" d="M394.9,528.5s0,0,0,0h0s0,0,0,0Z"/>
          <path class="cls-80" d="M397.3,528.5s0,0,0,0c0,0,0,0,0,0h0Z"/>
          <path class="cls-76" d="M397.3,528.5h.1s0,0,0,0h0v1.3s0,0,0,0h0s0,0,0,0h-.1s0,0,0,0c0,0,0,0,0,0,0,0,0,0,0,0s0,0,0,0,0,0,0,0c0,0,0,0,0,0,0,0,0,0,0,0,0,0,0,0,0,0,0,0,0,0,0,0,0,0,0,0,0,0,0,0,0,0,0,0,0,0,0,0,0,0s0,0,0,0h-.1s0,0,0,0h0v-.9s0,0,0,0h.1s0,0,0,0c0,0,0,0,0,0,0,0,0,0,0,0,0,0,0,0,0,0,0,0,0,0,0,0,0,0,0,0,0,0,0,0,0,0,0,0,0,0,0,0,0,0,0,0,0,0,0,0,0,0,0,0,0,0,0,0,0,0,0,0s0,0,0,0,0,0,0,0c0,0,0,0,0,0Z"/>
          <path class="cls-76" d="M397.5,528.5s0,0,0,0c0,0,0,0,0,0s0,0,0,0c0,0,0,0,0,0,0,0,0,0,0,0,0,0,0,0,0,0,0,0,0,0,0,0,0,0,0,0,0,0,0,0,0,0,0,0,0,0,0,0,0,0,0,0,0,0,0,0s0,0,0,0h0s0,0,0,0c0,0,0,0,0,0s0,0,0,0c0,0,0,0,0,0h0s0,0,0,0c0,0,0,0,0,0,0,0,0,0,0,0,0,0,0,0,0,0,0,0,0,0,0,0s0,0,0,0h0s0,0,0,0c0,0,0,0,0,0,0,0,0,0,0,0,0,0,0,0,0,0,0,0,0,0,0,0,0,0,0,0,0,0,0,0,0,0,0,0,0,0,0,0,0,0,0,0,0,0,0,0s0,0,0,0c0,0,0,0,0,0,0,0,0,0,0,0s0,0,0,0h0s0,0,0,0c0,0,0,0,0,0,0,0,0,0,0,0s0,0,0,0,0,0,0,0,0,0,0,0c0,0,0,0,0,0,0,0,0,0-.1,0,0,0,0,0,0,0h0s0,0,0,0h0v-1.3s0,0,0,0Z"/>
          <path class="cls-17" d="M398.2,529.2h0s0,0,0,0h3.1s0,0,0,0h0s0,0,0,0h-3.1s0,0,0,0Z"/>
          <path class="cls-69" d="M397.5,528.5h0v1.3h0s0,0,0,0h0s0,0,0,0h0v-1.3h0s0,0,0,0c0,0,0,0,0,0Z"/>
          <path class="cls-50" d="M397.5,529.8h0,0s0,0,0,0h0Z"/>
          <path class="cls-76" d="M394.9,528.5h0s0,0,0,0c0,0,0,0,0,0,0,0,0,0,0,0,0,0,0,0,0,0,0,0,0,0,0,0,0,0,0,0,0,0,0,0,0,0,0,0,0,0,0,0,0,0,0,0,0,0,0,0,0,0,0,0,0,0,0,0,0,0,0,0t0,0h.5s0,0,0,0v.9s0,0,0,0h-.5s0,0,0,0c0,0,0,0,0,0s0,0,0,0,0,0,0,0c0,0,0,0,0,0,0,0,0,0,0,0,0,0,0,0,0,0,0,0,0,0,0,0,0,0,0,0,0,0,0,0,0,0,0,0h-.2s0,0,0,0h0s0,0,0,0h0v-1.3s0,0,0,0h0s0,0,0,0Z"/>
          <path class="cls-76" d="M394,529.1h0c0,0,0,0,0-.1,0,0,0,0,0,0,0,0,0,0,0,0,0,0,0,0,0,0,0,0,0,0,0,0,0,0,0,0,0,0s0,0,0,0c0,0,0,0,0,0h0s0,0,0,0c0,0,0,0,0,0s0,0,0,0,0,0,0,0c0,0,0,0,0,0,0,0,0,0,0,0s0,0,0,0c0,0,0,0,0,0,0,0,0,0,0,0,0,0,0,0,0,0h0s0,0,0,0h0v1.3s0,0,0,0c0,0,0,0,0,0,0,0,0,0,0,0,0,0,0,0,0,0,0,0,0,0,0,0,0,0,0,0,0,0,0,0,0,0,0,0,0,0,0,0,0,0,0,0,0,0,0,0,0,0,0,0,0,0,0,0,0,0,0,0,0,0,0,0,0,0,0,0,0,0,0,0h0s0,0,0,0c0,0,0,0,0,0s0,0,0,0c0,0,0,0,0,0s0,0,0,0c0,0,0,0,0,0,0,0,0,0,0,0,0,0,0,0,0,0h0c0,0,0,0,0,0Z"/>
          <path class="cls-17" d="M394,529.1h0s0,0,0,0h-3.2s0,0,0,0h3.2Z"/>
          <path class="cls-15" d="M394.7,529.8h0v-1.3h0s0,0,0,0h0v1.3h0s0,0,0,0h0s0,0,0,0Z"/>
          <path class="cls-76" d="M396,528.7h.4s0,0,0,0h0v.9s0,0,0,0h-.4s0,0,0,0h0v-.9s0,0,0,0Z"/>
          <path class="cls-76" d="M396.4,528.7h.2s0,0,0,0h0v.9h0s0,0,0,0h-.2s0,0,0,0h0v-.9s0,0,0,0Z"/>
          <path class="cls-69" d="M396.6,529.7h0v-1h0s0,0,0,0h0s0,0,0,0h0v1h0s0,0,0,0h0s0,0,0,0Z"/>
          <path class="cls-12" d="M396.4,528.7h0v1h0s0,0,0,0h0v-1h0s0,0,0,0h0s0,0,0,0Z"/>
          <path class="cls-12" d="M396,528.7h0v1h0s0,0,0,0h0v-1h0s0,0,0,0h0Z"/>
        </g>
      </g>
      <g id="image416">
        <g>
          <path class="cls-62" d="M370.9,530.5v.7h-3.9s0,0,0,0c0,0,0,0,0,0h0c0,0,.2,0,.2,0,0,0,0,0,.1,0,0,0,0,0,0,0,0,0,0,0,0-.1,0,0,0,0,0,0,0,0,0-.1,0-.2,0,0,0,0,0,0,0,0,0,0,0,0,0,0,0,0,0,0h3.1s0,0,0,0,0,0,0,0h-3.1s0,0,0,0c0,0,0-.1,0-.2,0,0,0,0,0,0,0,0,0,0,0,0s0,0,0,0c0,0,0,.1,0,.2h0s0,0,0,0h3.1s0,0,0,0Z"/>
          <path class="cls-62" d="M364.3,531.1h-3.9v-.6h3.2s0,0,0,0c0,0,0,.1,0,.2,0,0,0,.1.1.2,0,0,.1.1.2.2,0,0,.2,0,.3,0,0,0,0,0,0,0h0s0,0,0,0h0s0,0,0,0Z"/>
          <path class="cls-62" d="M360.4,530.5v-.6h3.8s0,0,0,0c0,0-.2,0-.3,0,0,0-.1,0-.2.1,0,0-.1.1-.1.2,0,0,0,.1,0,.2,0,0,0,0,0,0s0,0,0,0c0,0,0,0,0,0h-3.1s0,0,0,0Z"/>
          <path class="cls-62" d="M370.9,530.5h-3.2s0,0,0,0h0c0,0,0,0,0,0,0,0,0,0,0,0h0s0,0,0,0c0,0,0,0,0,0,0,0,0,0,0,0h0s0,0,0,0,0,0,0,0c0,0,0-.1-.1-.2,0,0-.1-.1-.2-.1,0,0-.2,0-.3,0t0,0s0,0,0,0h0c1.3,0,2.6,0,3.8,0,0,.2,0,.4,0,.6Z"/>
          <path class="cls-76" d="M364.3,531.1s0,0,0,0c0,0,0,0,0,0h0s0,0,0,0h0s0,0,0,0h0v-1.3h0s0,0,0,0h.1s0,0,.1,0c0,0,.1,0,.2,0,0,0,0,0,.1,0,0,0,0,0,0,0h.5s0,0,0,0h0v.9h0s0,0,0,0h-.5s0,0,0,0c0,0-.1,0-.2.1,0,0-.2,0-.2,0h-.1s0,0,0,0Z"/>
          <path class="cls-76" d="M367,531.1h0s0,0,0,0c0,0,0,0-.1,0,0,0-.2,0-.2,0,0,0,0,0-.1,0,0,0,0,0,0,0h-.1s0,0,0,0h0v-.9h0s0,0,0,0h0s0,0,0,0c0,0,.2,0,.3-.1,0,0,0,0,.1,0h.2v1.3s0,0,0,0h0s0,0,0,0c0,0,0,0,0,0,0,0,0,0,0,0Z"/>
          <path class="cls-49" d="M366.2,531h.1s0,0,0,0c0,0,0,0,0,0,0,0,0,0,0,0,0,0,0,0,0,0,0,0,0,0,0,0,0,0,0,0,0,0,0,0,0,0,0,0,0,0,0,0,0,0,0,0,0,0,0,0,0,0,0,0,0,0,0,0,0,0,0,0,0,0,0,0,0,0,0,0,0,0,0,0h0c-.8,0-1.6,0-2.5,0h0s0,0,0,0c0,0,0,0,0,0h0s0,0,0,0c0,0,0,0,0,0,0,0,0,0,0,0,0,0,0,0,0,0,0,0,0,0,0,0,0,0,0,0,0,0h0s0,0,0,0h1.3s0,0,0,0Z"/>
          <path class="cls-49" d="M366.8,529.8s0,0,0,0h0s0,0,0,0c0,0,0,0,0,0,0,0,0,0,0,0,0,0,0,0,0,0,0,0,0,0,0,0,0,0,0,0,0,0,0,0,0,0,0,0,0,0,0,0,0,0s0,0,0,0h-.1s0,0,0,0h-.7s0,0,0,0h-.5s0,0,0,0c0,0,0,0,0,0,0,0,0,0,0,0s0,0,0,0c0,0,0,0,0,0,0,0,0,0,0,0s0,0,0,0c0,0,0,0,0,0,0,0,0,0,0,0,0,0,0,0,0,0s0,0,0,0h0c.8,0,1.6,0,2.4,0,0,0,0,0,0,0Z"/>
          <path class="cls-30" d="M360.4,530.5h3.2s0,0,0,0h-3.1s0,0,0,0,0,0,0,0h0Z"/>
          <path class="cls-16" d="M364.2,529.8s0,0,0,0h0s0,0,0,0h0s0,0,0,0Z"/>
          <path class="cls-60" d="M367,529.8s0,0,0,0c0,0,0,0,0,0h0s0,0,0,0h0Z"/>
          <path class="cls-72" d="M366.9,529.8h0s0,0,0,0c0,0,0,0,0,0Z"/>
          <path class="cls-56" d="M364.4,529.8h0s0,0,0,0c0,0,0,0,0,0Z"/>
          <path class="cls-73" d="M364.3,531.1h0s0,0,0,0c0,0,0,0,0,0,0,0,0,0,0,0Z"/>
          <path class="cls-18" d="M364.4,531.1s0,0,0,0c0,0,0,0,0,0t0,0h0Z"/>
          <path class="cls-53" d="M367,531.1s0,0,0,0c0,0,0,0,0,0h0s0,0,0,0Z"/>
          <path class="cls-41" d="M366.8,531.1s0,0,0,0c0,0,0,0,0,0s0,0,0,0h0Z"/>
          <path class="cls-63" d="M364.3,529.8s0,0,0,0c0,0,0,0,0,0h0s0,0,0,0Z"/>
          <path class="cls-68" d="M364.4,529.8s0,0,0,0h0,0Z"/>
          <path class="cls-74" d="M366.9,529.8s0,0,0,0h0,0Z"/>
          <path class="cls-8" d="M366.9,529.8s0,0,0,0h0,0Z"/>
          <path class="cls-66" d="M364.4,529.8s0,0,0,0h0,0Z"/>
          <path class="cls-75" d="M366.9,529.8s0,0,0,0h0,0Z"/>
          <path class="cls-76" d="M367,529.8s0,0,0,0c0,0,0,0,0,0,0,0,0,0,0,0,0,0,0,0,0,0,0,0,0,0,0,0,0,0,0,0,0,0,0,0,0,0,0,0,0,0,0,0,0,0,0,0,0,0,0,0,0,0,0,0,0,0,0,0,0,0,0,0s0,0,0,0c0,0,0,0,0,0s0,0,0,0c0,0,0,0,0,0,0,0,0,0,0,0,0,0,0,0,0,0h0s0,0,0,0c0,0,0,0,0,0s0,0,0,0c0,0,0,0,0,0,0,0,0,0,0,0h0s0,0,0,0c0,0,0,0,0,0,0,0,0,0,0,0,0,0,0,0,0,0,0,0,0,0,0,0s0,0,0,0c0,0,0,0,0,0,0,0,0,0,0,0,0,0,0,0,0,0,0,0,0,0,0,0,0,0,0,0,0,0,0,0,0,0,0,0h0s0,0,0,0h0s0,0,0,0c0,0,0,0,0,0,0,0,0,0,0,0,0,0,0,0,0,0,0,0,0,0,0,0s0,0,0,0c0,0,0,0,0,0,0,0,0,0,0,0,0,0,0,0,0,0,0,0,0,0,0,0h0s0,0,0,0h0v-1.3s0,0,0,0Z"/>
          <path class="cls-17" d="M367.7,530.5h0c1,0,2.1,0,3.1,0h0s0,0,0,0h0s0,0,0,0h-3.1s0,0,0,0Z"/>
          <path class="cls-69" d="M367,529.8h0v1.3h0s0,0,0,0h0v-1.3h0s0,0,0,0c0,0,0,0,0,0Z"/>
          <path class="cls-31" d="M367,531.1h0,0s0,0,0,0h0,0s0,0,0,0t0,0Z"/>
          <path class="cls-76" d="M363.5,530.5h0c0,0,0,0,0-.1,0,0,0,0,0,0,0,0,0,0,0,0,0,0,0,0,0,0,0,0,0,0,0,0,0,0,0,0,0,0,0,0,0,0,0,0,0,0,0,0,0,0,0,0,0,0,0,0,0,0,0,0,0,0,0,0,0,0,0,0s0,0,0,0c0,0,0,0,0,0,0,0,0,0,0,0,0,0,0,0,0,0,0,0,0,0,0,0,0,0,0,0,0,0,0,0,0,0,0,0h0s0,0,0,0h0v1.3s0,0,0,0h0s0,0,0,0c0,0,0,0,0,0,0,0,0,0,0,0s0,0,0,0c0,0,0,0,0,0s0,0,0,0c0,0,0,0,0,0,0,0,0,0,0,0,0,0,0,0,0,0,0,0,0,0,0,0,0,0,0,0,0,0,0,0,0,0,0,0h0s0,0,0,0c0,0,0,0,0,0,0,0,0,0,0,0,0,0,0,0,0,0,0,0,0,0,0,0,0,0,0,0,0,0,0,0,0,0,0,0s0,0,0,0h0s0,0,0,0Z"/>
          <path class="cls-17" d="M363.5,530.5h0s0,0,0,0h-3.2s0,0,0,0h3.2Z"/>
          <path class="cls-15" d="M364.2,531.1h0v-1.3h0s0,0,0,0h0v1.3h0s0,0,0,0h0s0,0,0,0Z"/>
          <path class="cls-12" d="M365.4,530h0s0,0,0,0h0v.9s0,0,0,0h0v-1h0Z"/>
          <path class="cls-69" d="M366.1,530h0s0,0,0,0h0s0,0,0,0h0v1h0s0,0,0,0h0v-.9s0,0,0,0Z"/>
          <path class="cls-76" d="M365.5,531h0v-1h0s0,0,0,0h.4s0,0,0,0h0v.9s0,0,0,0h-.4s0,0,0,0Z"/>
          <path class="cls-76" d="M366.1,530h0v1h0s0,0,0,0h-.2s0,0,0,0h0v-.9h0s0,0,0,0c0,0,.1,0,.2,0Z"/>
          <path class="cls-12" d="M365.9,530h0v1h0s0,0,0,0h0s0,0,0,0h0v-1h0s0,0,0,0h0s0,0,0,0Z"/>
        </g>
      </g>
      <g id="image426">
        <g>
          <path class="cls-62" d="M339.7,531.8v.7h-3.9s0,0,0,0h0c0,0,.2,0,.3,0,0,0,.1,0,.2-.1,0,0,.2-.2.2-.3,0,0,0,0,0-.1,0,0,0,0,0,0h3.1s0,0,0,0h0s0,0,0,0h-3.1s0,0,0,0c0,0,0-.1,0-.2,0,0,0,0,0,0,0,0,0,0,0,0s0,0,0,0c0,0,0,.1,0,.2h0s0,0,0,0h3.1s0,0,0,0Z"/>
          <path class="cls-62" d="M333.1,532.5h-3.9v-.6h3.2s0,0,0,0c0,.1,0,.2.1.3,0,0,0,0,0,0,0,0,0,0,.2.1,0,0,.1,0,.2,0,0,0,0,0,0,0,0,0,0,0,0,0h0s0,0,0,0h0s0,0,0,0Z"/>
          <path class="cls-62" d="M329.2,531.8v-.6h3.8s0,0,0,0c0,0-.1,0-.2,0,0,0,0,0,0,0,0,0-.1,0-.2.1,0,0-.1.1-.2.2,0,0,0,.1,0,.2,0,0,0,0,0,0,0,0,0,0,0,0,0,0,0,0,0,0h-3.1s0,0,0,0Z"/>
          <path class="cls-62" d="M339.7,531.8h-3.2s0,0,0,0h0c0,0,0,0,0,0,0,0,0,0,0,0,0,0,0,0,0,0,0,0,0,0,0,0,0,0,0,0,0,0,0,0,0,0,0,0,0,0,0,0,0,0,0,0,0,0,0,0s0,0,0,0c0,0,0,0,0,0s0,0,0,0c0,0,0-.1-.1-.2,0,0-.2-.1-.3-.2,0,0-.1,0-.2,0t0,0s0,0,0,0h0c1.3,0,2.6,0,3.8,0,0,.2,0,.4,0,.6Z"/>
          <path class="cls-49" d="M335.7,532.5h-2.5s0,0,0,0c.1,0,.2,0,.3,0,0,0,0,0,0,0,0,0,0,0,0,0h1.5s0,0,0,0c0,0,.1,0,.2.1,0,0,.1,0,.2,0,0,0,0,0,0,0,0,0,0,0,0,0h0Z"/>
          <path class="cls-49" d="M333.3,531.2h2.4s0,0,0,0c0,0-.2,0-.3,0,0,0,0,0-.1,0,0,0,0,0,0,0h-.2s0,0,0,0h-1.3s0,0,0,0c0,0-.1,0-.2-.1,0,0-.2,0-.2,0,0,0,0,0,0,0h0Z"/>
          <path class="cls-30" d="M329.2,531.8h3.2s0,0,0,0h-3.1s0,0,0,0,0,0,0,0h0s0,0,0,0Z"/>
          <path class="cls-35" d="M333.2,532.5h0s0,0,0,0h0s0,0,0,0Z"/>
          <path class="cls-57" d="M335.8,532.5h0s0,0,0,0c0,0,0,0,0,0h0Z"/>
          <path class="cls-52" d="M333.1,531.2h0,0s0,0,0,0Z"/>
          <path class="cls-43" d="M335.9,531.2h0s0,0,0,0h0s0,0,0,0Z"/>
          <path class="cls-11" d="M335.7,531.2h0s0,0,0,0h0s0,0,0,0h0Z"/>
          <path class="cls-11" d="M333.2,531.2h0s0,0,0,0h0s0,0,0,0h0Z"/>
          <path class="cls-9" d="M335.8,532.5h0s0,0,0,0h0s0,0,0,0Z"/>
          <path class="cls-38" d="M333.1,532.5s0,0,0,0c0,0,0,0,0,0h0s0,0,0,0Z"/>
          <path class="cls-9" d="M333.2,532.5s0,0,0,0c0,0,0,0,0,0h0s0,0,0,0Z"/>
          <path class="cls-38" d="M335.7,532.5h0s0,0,0,0h0s0,0,0,0Z"/>
          <path class="cls-46" d="M333.2,531.2h0s0,0,0,0h0s0,0,0,0Z"/>
          <path class="cls-79" d="M333.2,531.2h0s0,0,0,0Z"/>
          <path class="cls-40" d="M335.7,531.2h0s0,0,0,0h0s0,0,0,0Z"/>
          <path class="cls-14" d="M335.8,531.2h0s0,0,0,0Z"/>
          <path class="cls-55" d="M333.2,531.2h0s0,0,0,0Z"/>
          <path class="cls-80" d="M335.7,531.2h0s0,0,0,0h0Z"/>
          <path class="cls-76" d="M335.7,531.2h.1s0,0,0,0h0v1.3s0,0,0,0h0s0,0,0,0h-.1s0,0,0,0c0,0,0,0,0,0,0,0,0,0,0,0s0,0,0,0,0,0,0,0c0,0,0,0,0,0,0,0,0,0,0,0,0,0,0,0,0,0,0,0,0,0,0,0,0,0,0,0,0,0,0,0,0,0,0,0,0,0,0,0,0,0s0,0,0,0h-.1s0,0,0,0h0v-.9s0,0,0,0h.1s0,0,0,0c0,0,0,0,0,0,0,0,0,0,0,0,0,0,0,0,0,0,0,0,0,0,0,0,0,0,0,0,0,0,0,0,0,0,0,0,0,0,0,0,0,0,0,0,0,0,0,0,0,0,0,0,0,0,0,0,0,0,0,0s0,0,0,0,0,0,0,0c0,0,0,0,0,0Z"/>
          <path class="cls-76" d="M335.9,531.2s0,0,0,0c0,0,0,0,0,0s0,0,0,0c0,0,0,0,0,0,0,0,0,0,0,0,0,0,0,0,0,0,0,0,0,0,0,0,0,0,0,0,0,0,0,0,0,0,0,0,0,0,0,0,0,0,0,0,0,0,0,0s0,0,0,0h0s0,0,0,0c0,0,0,0,0,0s0,0,0,0c0,0,0,0,0,0h0s0,0,0,0c0,0,0,0,0,0,0,0,0,0,0,0,0,0,0,0,0,0,0,0,0,0,0,0s0,0,0,0h0s0,0,0,0c0,0,0,0,0,0,0,0,0,0,0,0,0,0,0,0,0,0,0,0,0,0,0,0,0,0,0,0,0,0,0,0,0,0,0,0,0,0,0,0,0,0,0,0,0,0,0,0s0,0,0,0c0,0,0,0,0,0,0,0,0,0,0,0s0,0,0,0h0s0,0,0,0c0,0,0,0,0,0,0,0,0,0,0,0s0,0,0,0,0,0,0,0,0,0,0,0c0,0,0,0,0,0,0,0,0,0-.1,0,0,0,0,0,0,0h0s0,0,0,0h0v-1.3s0,0,0,0Z"/>
          <path class="cls-17" d="M336.6,531.8h0s0,0,0,0h3.1s0,0,0,0h0s0,0,0,0h-3.1s0,0,0,0Z"/>
          <path class="cls-69" d="M335.9,531.2h0v1.3h0s0,0,0,0h0s0,0,0,0h0v-1.3h0s0,0,0,0c0,0,0,0,0,0Z"/>
          <path class="cls-50" d="M335.9,532.5h0,0s0,0,0,0h0Z"/>
          <path class="cls-76" d="M333.2,531.2h0s0,0,0,0c0,0,0,0,0,0,0,0,0,0,0,0,0,0,0,0,0,0,0,0,0,0,0,0,0,0,0,0,0,0,0,0,0,0,0,0,0,0,0,0,0,0,0,0,0,0,0,0,0,0,0,0,0,0,0,0,0,0,0,0t0,0h.5s0,0,0,0v.9s0,0,0,0h-.5s0,0,0,0c0,0,0,0,0,0s0,0,0,0,0,0,0,0c0,0,0,0,0,0,0,0,0,0,0,0,0,0,0,0,0,0,0,0,0,0,0,0,0,0,0,0,0,0,0,0,0,0,0,0h-.2s0,0,0,0h0s0,0,0,0h0v-1.3s0,0,0,0h0s0,0,0,0Z"/>
          <path class="cls-76" d="M332.4,531.8s0,0,0,0h0c0,0,0,0,0-.1,0,0,0,0,0,0,0,0,0,0,0,0,0,0,0,0,0,0,0,0,0,0,0,0,0,0,0,0,0,0s0,0,0,0c0,0,0,0,0,0h0s0,0,0,0c0,0,0,0,0,0s0,0,0,0,0,0,0,0c0,0,0,0,0,0,0,0,0,0,0,0s0,0,0,0c0,0,0,0,0,0,0,0,0,0,0,0,0,0,0,0,0,0h0s0,0,0,0h0v1.3s0,0,0,0c0,0,0,0,0,0,0,0,0,0,0,0,0,0,0,0,0,0,0,0,0,0,0,0,0,0,0,0,0,0,0,0,0,0,0,0,0,0,0,0,0,0,0,0,0,0,0,0,0,0,0,0,0,0,0,0,0,0,0,0,0,0,0,0,0,0,0,0,0,0,0,0h0s0,0,0,0c0,0,0,0,0,0s0,0,0,0c0,0,0,0,0,0s0,0,0,0c0,0,0,0,0,0,0,0,0,0,0,0,0,0,0,0,0,0h0c0,0,0,0,0,0Z"/>
          <path class="cls-17" d="M332.4,531.8h0s0,0,0,0h-3.2s0,0,0,0h3.2Z"/>
          <path class="cls-15" d="M333.1,532.5h0v-1.3h0s0,0,0,0h0v1.3h0s0,0,0,0h0s0,0,0,0Z"/>
          <path class="cls-76" d="M334.3,531.3h.4s0,0,0,0h0v.9s0,0,0,0h-.4s0,0,0,0h0v-.9s0,0,0,0Z"/>
          <path class="cls-76" d="M334.8,531.3h.2s0,0,0,0h0v.9h0s0,0,0,0h-.2s0,0,0,0h0v-.9s0,0,0,0Z"/>
          <path class="cls-69" d="M335,532.3h0v-1h0s0,0,0,0h0s0,0,0,0h0v1h0s0,0,0,0h0s0,0,0,0Z"/>
          <path class="cls-12" d="M334.8,531.3h0v1h0s0,0,0,0h0v-1h0s0,0,0,0h0s0,0,0,0Z"/>
          <path class="cls-12" d="M334.3,531.3h0v1h0s0,0,0,0h0v-1h0s0,0,0,0h0Z"/>
        </g>
      </g>
      <rect id="rect326" class="cls-51" x="232.1" y="538.9" width="165.5" height="9.1"/>
      <rect id="rect328" class="cls-33" x="232.1" y="626.9" width="135.1" height="9.1"/>
      <rect id="rect330" class="cls-47" x="232.1" y="597.6" width="104" height="9.1"/>
      <g id="text1138">
        <g class="cls-3">
          <path class="cls-49" d="M341.1,439.6h.5c.1,0,.2.1.3.1l.2.2c0,.1.1.1.1.2v10.6q0,.1-.1.2c0,.1-.1.1-.2.2s-.2.1-.3.1h-1c-.1,0-.2-.1-.3-.1s-.2-.1-.2-.2-.1-.1-.1-.2v-4.2h-15.4l2.3,3.9c.1.2.2.4.2.5s0,.2-.1.3c-.1.1-.2.1-.3.1h-1.1q-.2,0-.3-.1c0-.1-.2-.1-.2-.1l-.2-.2-3-4.7s-.1-.1-.1-.2,0-.1-.1-.2,0-.2,0-.3v-1.1c0-.2,0-.3.1-.4s.1-.2.1-.2h18.1v-3.7c0-.1,0-.2.1-.2,0-.1.1-.1.2-.2.1,0,.2-.1.3-.1.2,0,.3,0,.5,0Z"/>
          <path class="cls-49" d="M337,423c.9,0,1.7.2,2.3.5.7.3,1.3.8,1.7,1.4.5.6.8,1.3,1.1,2.2.2.9.4,1.9.4,3s-.1,2-.3,2.8c-.2.8-.5,1.5-1,2.1-.4.6-1,1-1.6,1.3s-1.3.5-2.1.5-1.2-.1-1.8-.3c-.5-.2-1-.5-1.5-.9-.4-.4-.9-.9-1.3-1.4-.4-.6-.8-1.2-1.1-1.9-.3.6-.7,1.2-1,1.7-.4.5-.8.9-1.2,1.2-.4.3-.9.6-1.4.8s-1,.3-1.6.3-1.4-.1-2-.4-1.2-.6-1.6-1.2-.8-1.2-1.1-2-.4-1.7-.4-2.8.1-1.9.4-2.6c.2-.7.6-1.4,1-1.8s.9-.8,1.5-1.1c.6-.2,1.2-.3,1.8-.3s1,.1,1.5.3,1,.4,1.4.8c.4.3.8.7,1.2,1.2s.7,1,1.1,1.7c.4-.7.7-1.4,1.1-2s.8-1.1,1.2-1.5c.4-.4.9-.7,1.4-.9.7-.6,1.3-.7,1.9-.7ZM326.6,426.3c-.4,0-.8.1-1.2.2-.4.2-.7.4-.9.7-.2.3-.4.7-.6,1.1-.1.4-.2.9-.2,1.5,0,1.1.3,2,.8,2.6s1.2.9,2.1.9.8-.1,1.1-.2.7-.4,1-.7.6-.7.9-1.1.6-1,.9-1.6c-.5-1.1-1.1-1.9-1.8-2.4s-1.3-1-2.1-1ZM337.3,425.7c-.5,0-.9.1-1.3.3-.4.2-.8.4-1.1.8-.3.4-.7.8-1,1.3s-.6,1.2-1,1.9c.3.7.6,1.2,1,1.7.3.5.7.9,1,1.2.3.3.7.6,1.1.7.4.2.8.2,1.3.2,1,0,1.8-.3,2.3-1,.6-.7.8-1.7.8-3.1s-.3-2.3-.8-3c-.6-.7-1.4-1-2.3-1Z"/>
          <path class="cls-49" d="M332,406.5c1.6,0,3,.1,4.2.4,1.3.2,2.4.7,3.3,1.2.9.6,1.6,1.3,2.1,2.2.5.9.8,2,.8,3.4s-.2,2.3-.7,3.2c-.5.9-1.1,1.6-2,2.1s-2,.9-3.2,1.1c-1.3.2-2.8.3-4.4.3s-3-.1-4.2-.4-2.4-.7-3.3-1.2-1.6-1.3-2.1-2.2c-.5-.9-.8-2-.8-3.4s.2-2.4.7-3.2c.5-.9,1.1-1.6,2-2.1s2-.9,3.2-1.1c1.3,0,2.7-.3,4.4-.3ZM332.2,409.3c-1,0-1.9,0-2.7.1-.8.1-1.5.2-2.1.3s-1.1.3-1.6.5c-.4.2-.8.5-1.1.8s-.5.7-.6,1.1-.2.9-.2,1.4c0,.9.2,1.6.6,2.2s1,1,1.7,1.3,1.6.5,2.6.6,2,.2,3.2.2,2.8-.1,3.9-.2c1.1-.2,1.9-.4,2.6-.7.7-.3,1.2-.8,1.5-1.3s.5-1.2.5-1.9-.1-1.1-.3-1.5c-.2-.4-.5-.8-.8-1.1-.3-.3-.8-.6-1.3-.8-.5-.2-1-.4-1.6-.5s-1.2-.2-1.9-.3c-.9-.2-1.6-.2-2.4-.2Z"/>
          <path class="cls-49" d="M341,385.7h.5c.1,0,.3.1.4.1s.2.1.2.2.1.1.1.2v5.9c0,.3-.1.5-.2.6-.2.2-.4.2-.8.2h-1c-.1,0-.2-.1-.3-.1-.1-.1-.2-.1-.3-.2-.1-.1-.3-.3-.6-.7-.3-.4-.6-.8-1.1-1.3s-1-.9-1.6-1.2c-.6-.3-1.3-.5-2.1-.7-.8-.1-1.7-.2-2.6-.2s-1.3,0-1.9.1-1.2.2-1.8.4c-.6.2-1.1.5-1.5.8s-.9.7-1.2,1.1-.6,1-.8,1.6c-.2.6-.3,1.3-.3,2.1s.1,1.5.3,2.1.5,1.2.8,1.6c.3.5.8.9,1.2,1.2.5.3,1,.6,1.5.8.6.2,1.1.4,1.7.5s1.2.1,1.8.1c1.1,0,2-.1,2.8-.2s1.5-.4,2.1-.7c.6-.3,1.1-.7,1.6-1.2s.8-.9,1.1-1.3c.3-.4.5-.6.6-.7s.2-.2.4-.2c.1-.1.2-.1.3-.1h1c.4,0,.6.1.8.2.2.2.2.4.2.6v5.9c0,.1,0,.2-.1.2,0,.1-.1.1-.2.2-.1,0-.2.1-.4.1h-.5c-.4,0-.7,0-.9-.1-.2-.1-.3-.2-.3-.4v-3.9c-.4.7-.8,1.3-1.4,1.8-.5.5-1.2,1-1.9,1.4-.7.4-1.5.7-2.3.9-.8.2-1.8.3-2.8.3s-2.8-.2-4-.6-2.3-1-3.1-1.8-1.6-1.7-2.1-2.9c-.5-1.2-.7-2.5-.7-4s.2-2.7.7-3.8c.5-1.1,1.1-2,2-2.8s1.9-1.3,3-1.7c1.2-.4,2.5-.6,3.9-.6s2,.1,2.9.3,1.7.5,2.4.9c.7.4,1.4.8,1.9,1.4.5.5,1,1.1,1.4,1.8v-3.9c0-.2.1-.3.3-.4.2.2.5.1.9.1Z"/>
        </g>
      </g>
      <g id="text1142">
        <g class="cls-3">
          <path class="cls-49" d="M371.7,442.3h.5c.1,0,.2.1.3.1l.2.2c0,.1.1.1.1.2v10.6q0,.1-.1.2c0,.1-.1.1-.2.2s-.2.1-.3.1h-1c-.1,0-.2-.1-.3-.1s-.2-.1-.2-.2-.1-.1-.1-.2v-4.2h-15.4l2.3,3.9c.1.2.2.4.2.5s0,.2-.1.3c-.1.1-.2.1-.3.1h-1.1q-.2,0-.3-.1c0-.1-.2-.1-.2-.1l-.2-.2-3-4.7s-.1-.1-.1-.2,0-.1-.1-.2,0-.2,0-.3v-1.1c0-.2,0-.3.1-.4s.1-.2.1-.2h18v-3.7c0-.1,0-.2.1-.2,0-.1.1-.1.2-.2.1,0,.2-.1.3-.1.3,0,.5,0,.6,0Z"/>
          <path class="cls-49" d="M362.7,425.5c1.6,0,3,.1,4.2.4,1.3.2,2.4.7,3.3,1.2.9.6,1.6,1.3,2.1,2.2.5.9.8,2,.8,3.4s-.2,2.3-.7,3.2c-.5.9-1.1,1.6-2,2.1s-2,.9-3.2,1.1c-1.3.2-2.8.3-4.4.3s-3-.1-4.2-.4-2.4-.7-3.3-1.2-1.6-1.3-2.1-2.2c-.5-.9-.8-2-.8-3.4s.2-2.4.7-3.2c.5-.9,1.1-1.6,2-2.1s2-.9,3.2-1.1c1.2-.2,2.7-.3,4.4-.3ZM362.8,428.2c-1,0-1.9,0-2.7.1-.8.1-1.5.2-2.1.3s-1.1.3-1.6.5c-.4.2-.8.5-1.1.8s-.5.7-.6,1.1-.2.9-.2,1.4c0,.9.2,1.6.6,2.2s1,1,1.7,1.3,1.6.5,2.6.6,2,.2,3.2.2,2.8-.1,3.9-.2c1.1-.2,1.9-.4,2.6-.7.7-.3,1.2-.8,1.5-1.3s.5-1.2.5-1.9-.1-1.1-.3-1.5c-.2-.4-.5-.8-.8-1.1-.3-.3-.8-.6-1.3-.8-.5-.2-1-.4-1.6-.5s-1.2-.2-1.9-.3c-.9-.1-1.6-.2-2.4-.2Z"/>
          <path class="cls-49" d="M362.7,409.3c1.6,0,3,.1,4.2.4,1.3.2,2.4.7,3.3,1.2.9.6,1.6,1.3,2.1,2.2.5.9.8,2,.8,3.4s-.2,2.3-.7,3.2c-.5.9-1.1,1.6-2,2.1s-2,.9-3.2,1.1c-1.3.2-2.8.3-4.4.3s-3-.1-4.2-.4-2.4-.7-3.3-1.2-1.6-1.3-2.1-2.2c-.5-.9-.8-2-.8-3.4s.2-2.4.7-3.2c.5-.9,1.1-1.6,2-2.1s2-.9,3.2-1.1c1.2-.2,2.7-.3,4.4-.3ZM362.8,412c-1,0-1.9,0-2.7.1-.8.1-1.5.2-2.1.3s-1.1.3-1.6.5c-.4.2-.8.5-1.1.8s-.5.7-.6,1.1-.2.9-.2,1.4c0,.9.2,1.6.6,2.2s1,1,1.7,1.3,1.6.5,2.6.6,2,.2,3.2.2,2.8-.1,3.9-.2c1.1-.2,1.9-.4,2.6-.7.7-.3,1.2-.8,1.5-1.3s.5-1.2.5-1.9-.1-1.1-.3-1.5c-.2-.4-.5-.8-.8-1.1-.3-.3-.8-.6-1.3-.8-.5-.2-1-.4-1.6-.5s-1.2-.2-1.9-.3c-.9-.2-1.6-.2-2.4-.2Z"/>
          <path class="cls-49" d="M371.7,388.4h.5c.1,0,.3.1.4.1s.2.1.2.2.1.1.1.2v5.9c0,.3-.1.5-.2.6-.2.2-.4.2-.8.2h-1c-.1,0-.2-.1-.3-.1-.1-.1-.2-.1-.3-.2-.1-.1-.3-.3-.6-.7-.3-.4-.6-.8-1.1-1.3s-1-.9-1.6-1.2c-.6-.3-1.3-.5-2.1-.7-.8-.1-1.7-.2-2.6-.2s-1.3,0-1.9.1-1.2.2-1.8.4c-.6.2-1.1.5-1.5.8s-.9.7-1.2,1.1-.6,1-.8,1.6c-.2.6-.3,1.3-.3,2.1s.1,1.5.3,2.1.5,1.2.8,1.6c.3.5.8.9,1.2,1.2.5.3,1,.6,1.5.8.6.2,1.1.4,1.7.5s1.2.1,1.8.1c1.1,0,2-.1,2.8-.2s1.5-.4,2.1-.7c.6-.3,1.1-.7,1.6-1.2s.8-.9,1.1-1.3c.3-.4.5-.6.6-.7s.2-.2.4-.2c.1-.1.2-.1.3-.1h1c.4,0,.6.1.8.2.2.2.2.4.2.6v5.9c0,.1,0,.2-.1.2,0,.1-.1.1-.2.2-.1,0-.2.1-.4.1h-.5c-.4,0-.7,0-.9-.1-.2-.1-.3-.2-.3-.4v-3.9c-.4.7-.8,1.3-1.4,1.8-.5.5-1.2,1-1.9,1.4-.7.4-1.5.7-2.3.9-.8.2-1.8.3-2.8.3s-2.8-.2-4-.6-2.3-1-3.1-1.8-1.6-1.7-2.1-2.9c-.5-1.2-.7-2.5-.7-4s.2-2.7.7-3.8c.5-1.1,1.1-2,2-2.8s1.9-1.3,3-1.7c1.2-.4,2.5-.6,3.9-.6s2,.1,2.9.3,1.7.5,2.4.9c.7.4,1.4.8,1.9,1.4.5.5,1,1.1,1.4,1.8v-3.6c0-.2.1-.3.3-.4s.5-.2.9-.2Z"/>
        </g>
      </g>
      <g id="text1146">
        <g class="cls-3">
          <path class="cls-49" d="M403.4,439.6h.5c.1,0,.2.1.3.1l.2.2c0,.1.1.1.1.2v10.6q0,.1-.1.2c0,.1-.1.1-.2.2s-.2.1-.3.1h-1c-.1,0-.2-.1-.3-.1s-.2-.1-.2-.2-.1-.1-.1-.2v-4.2h-15.4l2.3,3.9c.1.2.2.4.2.5s0,.2-.1.3c-.1.1-.2.1-.3.1h-1.1q-.2,0-.3-.1c0-.1-.2-.1-.2-.1l-.2-.2-3-4.7s-.1-.1-.1-.2,0-.1-.1-.2,0-.2,0-.3v-1.1c0-.2,0-.3.1-.4s.1-.2.1-.2h18v-3.7c0-.1,0-.2.1-.2,0-.1.1-.1.2-.2.1,0,.2-.1.3-.1.2,0,.4,0,.6,0Z"/>
          <path class="cls-49" d="M394.3,422.8c1.6,0,3,.1,4.2.4,1.3.2,2.4.7,3.3,1.2.9.6,1.6,1.3,2.1,2.2.5.9.8,2,.8,3.4s-.2,2.3-.7,3.2c-.5.9-1.1,1.6-2,2.1s-2,.9-3.2,1.1c-1.3.2-2.8.3-4.4.3s-3-.1-4.2-.4-2.4-.7-3.3-1.2-1.6-1.3-2.1-2.2c-.5-.9-.8-2-.8-3.4s.2-2.4.7-3.2c.5-.9,1.1-1.6,2-2.1s2-.9,3.2-1.1c1.2-.2,2.7-.3,4.4-.3ZM394.5,425.5c-1,0-1.9,0-2.7.1-.8.1-1.5.2-2.1.3s-1.1.3-1.6.5c-.4.2-.8.5-1.1.8s-.5.7-.6,1.1-.2.9-.2,1.4c0,.9.2,1.6.6,2.2s1,1,1.7,1.3,1.6.5,2.6.6,2,.2,3.2.2,2.8-.1,3.9-.2c1.1-.2,1.9-.4,2.6-.7.7-.3,1.2-.8,1.5-1.3s.5-1.2.5-1.9-.1-1.1-.3-1.5c-.2-.4-.5-.8-.8-1.1-.3-.3-.8-.6-1.3-.8-.5-.2-1-.4-1.6-.5s-1.2-.2-1.9-.3c-1-.2-1.7-.2-2.4-.2Z"/>
          <path class="cls-49" d="M394.3,406.5c1.6,0,3,.1,4.2.4,1.3.2,2.4.7,3.3,1.2.9.6,1.6,1.3,2.1,2.2.5.9.8,2,.8,3.4s-.2,2.3-.7,3.2c-.5.9-1.1,1.6-2,2.1s-2,.9-3.2,1.1c-1.3.2-2.8.3-4.4.3s-3-.1-4.2-.4-2.4-.7-3.3-1.2-1.6-1.3-2.1-2.2c-.5-.9-.8-2-.8-3.4s.2-2.4.7-3.2c.5-.9,1.1-1.6,2-2.1s2-.9,3.2-1.1c1.2,0,2.7-.3,4.4-.3ZM394.5,409.3c-1,0-1.9,0-2.7.1-.8.1-1.5.2-2.1.3s-1.1.3-1.6.5c-.4.2-.8.5-1.1.8s-.5.7-.6,1.1-.2.9-.2,1.4c0,.9.2,1.6.6,2.2s1,1,1.7,1.3,1.6.5,2.6.6,2,.2,3.2.2,2.8-.1,3.9-.2c1.1-.2,1.9-.4,2.6-.7.7-.3,1.2-.8,1.5-1.3s.5-1.2.5-1.9-.1-1.1-.3-1.5c-.2-.4-.5-.8-.8-1.1-.3-.3-.8-.6-1.3-.8-.5-.2-1-.4-1.6-.5s-1.2-.2-1.9-.3c-1-.2-1.7-.2-2.4-.2Z"/>
          <path class="cls-49" d="M403.3,385.7h.5c.1,0,.3.1.4.1s.2.1.2.2.1.1.1.2v5.9c0,.3-.1.5-.2.6-.2.2-.4.2-.8.2h-1c-.1,0-.2-.1-.3-.1-.1-.1-.2-.1-.3-.2-.1-.1-.3-.3-.6-.7-.3-.4-.6-.8-1.1-1.3s-1-.9-1.6-1.2c-.6-.3-1.3-.5-2.1-.7-.8-.1-1.7-.2-2.6-.2s-1.3,0-1.9.1-1.2.2-1.8.4c-.6.2-1.1.5-1.5.8s-.9.7-1.2,1.1-.6,1-.8,1.6c-.2.6-.3,1.3-.3,2.1s.1,1.5.3,2.1.5,1.2.8,1.6c.3.5.8.9,1.2,1.2.5.3,1,.6,1.5.8.6.2,1.1.4,1.7.5s1.2.1,1.8.1c1.1,0,2-.1,2.8-.2s1.5-.4,2.1-.7c.6-.3,1.1-.7,1.6-1.2s.8-.9,1.1-1.3c.3-.4.5-.6.6-.7s.2-.2.4-.2c.1-.1.2-.1.3-.1h1c.4,0,.6.1.8.2.2.2.2.4.2.6v5.9c0,.1,0,.2-.1.2,0,.1-.1.1-.2.2-.1,0-.2.1-.4.1h-.5c-.4,0-.7,0-.9-.1-.2-.1-.3-.2-.3-.4v-3.9c-.4.7-.8,1.3-1.4,1.8-.5.5-1.2,1-1.9,1.4-.7.4-1.5.7-2.3.9-.8.2-1.8.3-2.8.3s-2.8-.2-4-.6-2.3-1-3.1-1.8-1.6-1.7-2.1-2.9c-.5-1.2-.7-2.5-.7-4s.2-2.7.7-3.8c.5-1.1,1.1-2,2-2.8s1.9-1.3,3-1.7c1.2-.4,2.5-.6,3.9-.6s2,.1,2.9.3,1.7.5,2.4.9c.7.4,1.4.8,1.9,1.4.5.5,1,1.1,1.4,1.8v-3.9c0-.2.1-.3.3-.4.2.2.5.1.9.1Z"/>
        </g>
      </g>
      <rect id="rect853" class="cls-47" x="326.9" y="491.1" width="9.1" height="115.6"/>
      <rect id="rect853-2" class="cls-33" x="358.1" y="491.1" width="9.1" height="144.9"/>
      <rect id="rect853-3" class="cls-51" x="388.6" y="491.1" width="9.1" height="56.9"/>
      <circle id="circle281-5" class="cls-47" cx="331.5" cy="491.1" r="11.6"/>
      <circle id="circle281-6" class="cls-51" cx="394.1" cy="491.1" r="11.6"/>
      <circle id="circle281-7" class="cls-33" cx="362.6" cy="491.1" r="11.6"/>
      <g id="layer1">
        <rect id="rect815" class="cls-10" x="289" y="79.4" width="177.6" height="236.6"/>
        <path id="path31-1" class="cls-49" d="M339.5,97.1c1.1,0,1.2,0,1.4-.2.1,0,.3-.2.4-.3.1-.2.1-.3.1-2.6v-2.4h4.6v3c0,3.3,0,3.6-.4,4.4-.4,1.1-1.3,1.8-2.4,2-.7,0-1.4,0-2.1,0s-2,0-2.3,0h-.6v-3.9h1.3ZM361.8,103.7c20,0,24.9,0,24.1,0h-.1.1c.1,0,.1.2-.1.2s-.1,0,.2,0h.4-.4c-.2,0-.4,0-.3,0s.1,0,.1.6,0,.5.2.6q.1,0-.1,0c-.1,0-.3,0-.3,0,0,0-7.9,0-23.7,0h-23.7v-1.7h23.6ZM343.8,85.5h2.4v3.8h-4.7v-3.8h2.3ZM348.6,92.6c.1-1,.5-2,.9-2.9.1-.2.2-.4.3-.6.1,0,.2-.2.3-.4.3-.4.6-.8.9-1.2h.1c.3-.5.7-.8,1.1-1,.5-.4,1.1-.7,1.8-.9.9-.4,1.9-.5,2.8-.4.6,0,1.1,0,1.7.2.4,0,.8.2.9.3.1,0,.2,0,.4,0,.2,0,.4.2.6.3,1.4.9,2.5,2.2,3.3,3.7.9,1.9,1,4,.3,6-.2.6-.5,1.2-.9,1.8-.4.6-.8,1.2-1.4,1.6-.9,1-2.1,1.7-3.4,2-1,.2-2,.3-3,.2-1.2-.2-2.3-.7-3.2-1.4-.4-.3-.7-.6-1-.9-.1,0-.2-.2-.3-.4-1-1.1-1.7-2.5-2-4-.2-.6-.3-1.3-.2-2.1h0ZM353.1,94.6c.2.9.7,1.7,1.4,2.3.8.7,1.8.9,2.8.6,1.2-.5,2.2-1.6,2.5-2.9.2-.9.2-1.8,0-2.6-.3-1-.8-1.8-1.6-2.5-.3-.2-.6-.3-.9-.4-.7-.2-1.5,0-2.2.2-.7.4-1.2,1-1.5,1.7-.7,1.1-.8,2.4-.5,3.6h0ZM366.4,85.5h4.7v2.1c0,2,0,2.1.1,2.5.4.9,1.4,1.4,2.4,1.1.5,0,.8-.5,1.1-.9l.2-.4v-4.4h4.7v2.5c.1,1,0,2-.2,3-.2.9-.7,1.7-1.2,2.4-.1,0-.2.2-.2.4-.3.4-.7.7-1.1,1s-.9.6-1.4.7c-.1,0-.4,0-.7.2-.5.2-1.1.2-1.7.2-.6,0-1.2,0-1.8-.2-.7,0-1.3-.4-1.9-.8-.7-.5-1.3-1.1-1.8-1.8-.6-.9-1-1.9-1.1-3-.2-1.5-.2-3.1,0-4.6h0ZM373,97.2h3.9v4h-7.7v-4h3.8ZM379.6,82.5s.1,0,.1-.2q0-.2.3-.3h28.9v1.8h-29.1c-.1,0-.1,0-.1-.6-.2-.5,0-.7,0-.7h0ZM386.1,92h4.9v3.9h-9.8v-3.9h4.9ZM394.9,85.5h2.4v3.8h-4.7v-3.8h2.3ZM394.9,91.4h2.4v10h-4.7v-10h2.3ZM404.4,85.5h5v3.8h-9.9v-3.8h4.9ZM400.2,91.6h4.6v2.3c0,3.2-.1,3,2.3,3.1h1.5v4h-.6c-1.4.2-2.9.2-4.3,0-1,0-1.9-.5-2.6-1.2-.6-.7-.9-1.6-1-2.5.1-.8.1-5.7.1-5.8h0ZM412.1,83.6c.1-.4.3-.8.6-1,.9-.9,2.4-1,3.4-.3.4.2.7.6.8,1,.2.3.2.7.2,1s0,.7-.2,1.1c-.4.8-1.2,1.4-2.2,1.4-.8,0-1.6-.2-2.1-.8-.5-.7-.7-1.6-.5-2.4h0ZM412.6,85.2c.3.6.9,1,1.6,1.2s1.5,0,2-.5c.2-.2.4-.4.5-.6.2-.3.2-.6.2-1s0-.7-.2-1c-.1-.3-.3-.5-.6-.7-.2-.2-.5-.3-.7-.4-1.1-.3-2.3.2-2.8,1.3-.3.6-.2,1.2,0,1.7ZM414.3,82.8c.3,0,.7,0,1,0,.4.3.5.8.3,1.2-.1,0-.2.2-.3.2h-.2c0,0,.2.3.2.3.2.2.3.4.4.6.1,0,.2.3.3.4.1,0,0,.2-.2.2h-.3l-.4-.6c-.4-.6-.5-.7-1-.7h-.3v1.3h-.4v-3h.9ZM414.4,84c.5,0,.6,0,.7,0,.4-.3.2-.7-.4-.8h-.9v.9h.6Z"/>
        <circle id="path84" class="cls-2" cx="314.6" cy="111.3" r="17.7"/>
        <circle id="circle86" class="cls-2" cx="440.8" cy="111.3" r="17.7"/>
        <circle id="path88" class="cls-7" cx="314.6" cy="111.3" r="15.8"/>
        <circle id="circle90" class="cls-7" cx="440.8" cy="111.3" r="15.8"/>
        <rect id="rect821" class="cls-49" x="315.8" y="276.4" width="124.2" height="31.5" transform="translate(-2.2 2.9) rotate(-.4)"/>
        <path id="rect825" class="cls-77" d="M322.1,278.6h18.5c3.2-.1,5.9,2.5,5.9,5.7v16.2c.1,3.2-2.5,5.9-5.7,5.9h-18.5c-3.2.1-5.9-2.5-5.9-5.7v-16.2c-.1-3.2,2.5-5.9,5.7-5.9h0Z"/>
        <path id="rect872" class="cls-77" d="M383.9,278.1h18.5c3.2-.1,5.9,2.5,5.9,5.7v16.2c.1,3.2-2.5,5.9-5.7,5.9h-18.5c-3.2.1-5.9-2.5-5.9-5.7v-16.2c-.2-3.2,2.4-5.9,5.7-5.9h0Z"/>
        <path id="rect874" class="cls-77" d="M352.2,278.4l20-.2c2.8,0,5.1,2.2,5.1,5.1v17.8c.1,2.8-2.1,5.1-5,5.1l-20,.2c-2.8,0-5.1-2.2-5.1-5.1v-17.8c0-2.8,2.2-5.1,5-5.1Z"/>
        <rect id="rect947" class="cls-5" x="330" y="293.7" width="3.1" height="59.1" transform="translate(-2.6 2.6) rotate(-.5)"/>
        <rect id="rect949" class="cls-5" x="361.1" y="293.5" width="3.1" height="59.1" transform="translate(-2.6 2.9) rotate(-.5)"/>
        <rect id="rect951" class="cls-5" x="391.8" y="293.2" width="3.1" height="59.1" transform="translate(-2.5 3.1) rotate(-.5)"/>
        <path id="rect64" class="cls-77" d="M414.5,277.9h18.5c3.2-.1,5.9,2.5,5.9,5.7v16.2c.1,3.2-2.5,5.9-5.7,5.9h-18.5c-3.2.1-5.9-2.5-5.9-5.7v-16.2c-.1-3.3,2.5-5.9,5.7-5.9h0Z"/>
        <rect id="rect66" class="cls-5" x="422.4" y="293" width="3.1" height="59.1" transform="translate(-2.5 3.4) rotate(-.5)"/>
        <circle id="path128" class="cls-2" cx="348.2" cy="183.1" r="15.8"/>
        <circle id="circle134" class="cls-2" cx="363.9" cy="222.5" r="15.8"/>
        <circle id="circle136" class="cls-2" cx="403.4" cy="183.1" r="15.8"/>
        <circle id="circle138" class="cls-2" cx="419.1" cy="222.5" r="15.8"/>
        <polygon id="rect140" class="cls-5" points="324.8 136.3 328 136.3 349.7 183.1 346.6 183.1 324.8 136.3"/>
        <polygon id="rect142" class="cls-5" points="362.5 148 365.6 148 365.5 222.5 362.4 222.5 362.5 148"/>
        <polygon id="rect144" class="cls-5" points="401.4 147.9 404.5 147.9 404.3 183.1 401.2 183.1 401.4 147.9"/>
        <g id="text91">
          <g class="cls-3">
            <path class="cls-49" d="M306.5,252h.2c.1,0,.1.1.1.2s.1.2.1.3v1.2c0,.2-.1.3-.1.4-.1.1-.1.2-.2.2l-7.9,5.8h8.1c.1,0,.1.1.1.2s.1.2.1.3v1c0,.1,0,.2-.1.3s-.1.1-.1.2h-15.6s-.1-.1-.1-.2-.1-.2-.1-.3v-1c0-.1,0-.2.1-.3s.1-.1.1-.2h7.2l-7-5.6c-.1,0-.1-.1-.2-.2,0-.1-.1-.1-.1-.2s-.1-.2-.1-.3v-1c0-.1,0-.2.1-.3,0-.1.1-.1.1-.2h.2c.1,0,.2,0,.3.1.1.1.3.2.4.3l6.3,5.2,7.5-5.6c.2-.1.4-.2.4-.3.1,0,.2,0,.2,0Z"/>
          </g>
          <g class="cls-3">
            <path class="cls-49" d="M300.7,244.3h6s.1.1.1.2.1.2.1.3v1c0,.1,0,.2-.1.3,0,.1-.1.1-.1.2h-6l-8.9,4.5c-.2.1-.3.1-.4.2-.1,0-.2,0-.2-.1s-.1-.2-.1-.3v-1.2c0-.2,0-.3.1-.4,0-.1.1-.2.1-.2.1,0,.1-.1.2-.1l4.5-2.2c.4-.2.9-.4,1.4-.6.5-.2.9-.4,1.4-.6h0c-.5-.2-.9-.4-1.4-.6-.5-.2-.9-.4-1.4-.6l-4.6-2.2c-.1,0-.2-.1-.2-.1-.1,0-.1-.1-.1-.2s-.1-.2-.1-.3v-1.2c0-.2.1-.3.1-.3q.1-.1.2-.1c.1,0,.2.1.4.2l9,4.4Z"/>
          </g>
          <g class="cls-3">
            <path class="cls-49" d="M300.7,233.9c.3,0,.5,0,.7.1s.2.2.2.3v5.1c0,.1-.1.3-.2.3s-.3.1-.7.1-.5,0-.6-.1-.2-.2-.2-.3v-5.3c0-.1.1-.1.1-.1.1,0,.2-.1.3-.1h.4Z"/>
            <path class="cls-49" d="M298.9,221.2c1.2,0,2.3.1,3.3.3s1.9.5,2.6,1c.7.4,1.3,1,1.7,1.7.4.7.6,1.6.6,2.7s-.2,1.8-.5,2.5-.9,1.2-1.6,1.6-1.5.7-2.5.9-2.2.3-3.5.3-2.3-.1-3.3-.3-1.9-.5-2.6-1c-.7-.4-1.3-1-1.7-1.7-.4-.7-.6-1.6-.6-2.6s.2-1.8.5-2.5.9-1.2,1.6-1.6c.7-.4,1.5-.7,2.5-.9,1.1-.3,2.2-.4,3.5-.4ZM299.1,223.3c-.8,0-1.5,0-2.1.1s-1.2.1-1.7.2c-.5.1-.9.3-1.2.4-.3.2-.6.4-.9.6-.2.2-.4.5-.5.8s-.2.7-.2,1.1c0,.7.2,1.3.5,1.7s.8.8,1.3,1c.6.2,1.2.4,2,.5s1.6.1,2.5.1,2.2-.1,3-.2c.8-.1,1.5-.3,2-.6s.9-.6,1.1-1,.4-.9.4-1.5-.1-.9-.2-1.2-.4-.6-.6-.9c-.3-.2-.6-.5-1-.6-.4-.2-.8-.3-1.3-.4s-1-.2-1.5-.2c-.5.2-1,0-1.6,0Z"/>
            <path class="cls-49" d="M306.1,209h.4c.1,0,.2.1.3.1s.1.1.1.1v8.7h-.1c-.1.1-.2.2-.3.2h-.8c-.1,0-.2-.1-.3-.1s-.1-.1-.2-.1c0-.1-.1-.1-.1-.2v-3.3h-12l1.8,3.1c.1.2.1.3.1.4s0,.2-.1.2q-.1.1-.3.1h-.9c-.1,0-.2,0-.2-.1-.1,0-.1-.1-.2-.1,0,0-.1-.1-.1-.2l-2.3-3.6s0-.1-.1-.1v-1.4c0-.1,0-.2.1-.3,0-.1.1-.1.1-.1h14v-2.9q0-.1.1-.2c0-.1.1-.1.2-.1s.2-.1.3-.1c.2,0,.3,0,.5,0Z"/>
            <path class="cls-49" d="M301.8,195.9c.7,0,1.4.1,2,.3s1.2.5,1.7,1c.5.4.9,1,1.2,1.7.3.7.4,1.5.4,2.4s-.1,1.2-.2,1.7c-.2.5-.4.9-.7,1.3s-.7.7-1.1.9-.9.4-1.5.6c-.6.2-1.2.3-1.8.3-.7.1-1.4.1-2.2.1s-1.4,0-2.1-.1-1.4-.2-2-.4-1.2-.4-1.8-.8-1.1-.7-1.5-1.2-.8-1.1-1-1.7c-.2-.7-.4-1.5-.4-2.4s0-.6.1-.9c0-.3.1-.6.1-.9.1-.3.1-.5.2-.7s.1-.3.2-.4c0-.1.1-.1.1-.1,0,0,.1-.1.2-.1h1.2c.1,0,.1.1.1.1v.2c0,.1,0,.2-.1.4s-.1.3-.2.6-.1.5-.2.8-.1.7-.1,1.1c0,.8.2,1.4.5,2s.7,1,1.2,1.3,1.1.6,1.8.8c.7.2,1.4.3,2.2.3-.1-.2-.2-.5-.4-.7-.1-.3-.2-.6-.3-.9-.1-.3-.2-.6-.2-1-.1-.3-.1-.7-.1-1.1,0-.9.1-1.6.3-2.2s.6-1.1,1-1.4c.4-.4.9-.6,1.5-.8.6,0,1.2-.1,1.9-.1ZM302,198.1c-.5,0-.9,0-1.3.1s-.7.3-1,.5-.5.5-.6.9-.2.8-.2,1.4,0,.6.1.9c.1.3.1.6.2.9s.2.6.3.8c.1.3.3.5.4.7,1.1,0,1.9-.1,2.6-.2.7-.1,1.3-.3,1.7-.6s.7-.6.9-1c.2-.4.3-.8.3-1.3s-.1-1-.3-1.4c-.2-.4-.5-.7-.8-1s-.7-.4-1.1-.6c-.4,0-.8,0-1.2,0Z"/>
          </g>
        </g>
        <g id="text95">
          <g class="cls-3">
            <path class="cls-49" d="M422.5,164c0,.7-.1,1.4-.4,2s-.6,1.1-1.1,1.5-1.1.7-1.7,1c-.7.2-1.5.3-2.3.3s-1,0-1.5-.1-.9-.2-1.2-.3c-.4-.1-.7-.2-.9-.4s-.4-.2-.4-.3q-.1-.1-.1-.2c0-.1-.1-.1-.1-.2s0-.2-.1-.3v-.4c0-.3,0-.5.1-.6s.1-.2.3-.2.2.1.4.2.5.3.9.4c.3.2.8.3,1.2.4.5.1,1,.2,1.5.2s1-.1,1.5-.2c.4-.1.8-.3,1.1-.6.3-.3.5-.6.6-.9.1-.3.2-.7.2-1.1s-.1-.9-.3-1.2c-.2-.4-.4-.7-.8-.9-.3-.3-.8-.5-1.3-.6s-1.1-.2-1.7-.2h-1.8c-.1,0-.1-.1-.2-.1s-.1-.2-.1-.3v-.8c0,0,.1-.2.1-.2,0-.1.1-.1.2-.1h1.6c.5,0,1-.1,1.4-.2s.8-.3,1.1-.6c.3-.3.5-.6.7-.9.2-.4.2-.8.2-1.2s-.1-.6-.2-.9c-.1-.3-.3-.6-.5-.8s-.5-.4-.8-.5-.7-.2-1.1-.2-.9.1-1.3.2c-.4.1-.7.3-1.1.5-.3.2-.6.3-.8.5-.2.1-.3.2-.4.2h-.3q0-.2-.1-.4v-.9s.1-.1.1-.2.1-.1.2-.2c.1-.1.2-.2.5-.3.2-.1.5-.3.9-.4.3-.1.7-.3,1.2-.4.5-.1.9-.1,1.5-.1s1.4.1,1.9.3c.6.2,1,.5,1.4.8s.6.8.8,1.2c.2.5.3,1,.3,1.6s-.1,1-.2,1.4-.3.8-.6,1.1c-.3.3-.6.6-.9.8-.4.2-.8.4-1.3.5h0c.5.1,1,.2,1.5.4s.8.5,1.2.8c.3.3.6.7.8,1.1,0,0,.2.5.2,1Z"/>
            <path class="cls-49" d="M436.5,172.1c0,.3,0,.5-.1.6s-.2.2-.3.2h-11.8c-.1,0-.2-.1-.3-.2-.1-.1-.1-.3-.1-.6s0-.5.1-.6.2-.2.3-.2h11.8c.1,0,.2.1.3.2.1.2.1.4.1.6Z"/>
            <path class="cls-49" d="M449.2,166.3v.6q0,.1-.1.2c0,.1-.1.1-.2.2-.1.1-.3.2-.5.4-.3.2-.6.3-1,.5s-.8.3-1.3.4c-.5.1-1,.2-1.6.2-1,0-2-.2-2.8-.5s-1.5-.8-2.1-1.5-1-1.5-1.3-2.5-.5-2.1-.5-3.4.2-2.5.5-3.5.8-1.9,1.4-2.6,1.3-1.3,2.2-1.6c.9-.4,1.8-.6,2.8-.6s.9,0,1.3.1.8.2,1.2.3c.4.1.7.3,1,.5s.5.3.6.4c.1.1.2.2.2.3s.1.1.1.2v1.1c0,.1,0,.2-.1.3,0,.1-.1.1-.1.2s-.1.1-.2.1-.3-.1-.5-.2c-.2-.2-.5-.3-.8-.5s-.7-.4-1.2-.5c-.5-.2-1-.2-1.7-.2s-1.3.1-1.9.4c-.6.3-1.1.7-1.5,1.2s-.7,1.2-1,2c-.2.8-.3,1.7-.3,2.7s.1,1.9.3,2.7.5,1.4.9,1.9.9.9,1.5,1.2,1.3.4,2,.4,1.2-.1,1.7-.2c.5-.2.9-.3,1.2-.5s.6-.4.8-.5c.2-.2.4-.2.5-.2h.2c0,.2,0,.3.1.4,0-.3.2,0,.2.1Z"/>
            <path class="cls-49" d="M453.7,168.2v.2s-.1.1-.2.1-.2.1-.3.1h-1c-.1,0-.2,0-.3-.1-.1,0-.1-.1-.2-.1s0-.1,0-.2v-16.5c0,0,.1-.1.2-.1s.2-.1.3-.1h1c.1,0,.2,0,.3.1s.1.1.2.1v16.5Z"/>
            <path class="cls-49" d="M463.9,157.9v.8c0,.1-.1.1-.1.2,0,0-.1.1-.2.1s-.1,0-.2-.1c-.1,0-.2-.1-.3-.1s-.2-.1-.4-.1h-.5c-.2,0-.4,0-.6.1s-.4.2-.6.4-.4.4-.7.7-.5.7-.8,1.1v7.4s-.1.1-.2.1-.2.1-.3.1h-1c-.1,0-.2,0-.3-.1-.1,0-.1-.1-.2-.1s0-.1,0-.2v-11.2c0,0,.1-.1.1-.1.1,0,.2-.1.3-.1h.9c.1,0,.2,0,.3.1.1,0,.1.1.1.1v1.8c.3-.4.6-.8.8-1.1.3-.3.5-.5.8-.7s.5-.3.7-.3.5-.1.7-.1h.4c.1,0,.3,0,.4.1.1,0,.3.1.4.1s.2.1.3.1h.1v.5c.1.2.1.3.1.5Z"/>
          </g>
        </g>
        <g id="text100">
          <g class="cls-3">
            <path class="cls-49" d="M336.1,273.3v.2c0,.1-.1.1-.2.1s-.2.1-.3.1h-1.1c-.1,0-.2,0-.3-.1-.1,0-.1-.1-.2-.2,0-.1-.1-.1-.1-.2l-1.5-3.7c-.2-.4-.3-.8-.5-1.2s-.4-.7-.7-.9c-.3-.3-.5-.5-.9-.6-.3-.1-.8-.2-1.2-.2h-1.4v6.7q0,.1-.1.2s-.1.1-.2.1-.2.1-.3.1h-1c-.1,0-.2,0-.3-.1-.1,0-.1-.1-.2-.1v-14.8c0-.3.1-.5.3-.7.2-.1.3-.2.5-.2h4.4c.3,0,.5,0,.7.1.6.1,1.2.3,1.6.5.5.2.9.5,1.2.9.3.4.6.8.7,1.2.2.5.2,1,.2,1.5s-.1,1-.2,1.4-.3.8-.6,1.1-.6.6-1,.8c-.4.2-.8.4-1.3.6.3.1.5.3.7.4l.6.6c.2.2.4.5.5.8.2.3.3.7.5,1.1l1.4,3.5c.1.3.2.5.2.6,0,.3,0,.4,0,.4ZM332.9,262.2c0-.6-.1-1.1-.4-1.6-.3-.4-.7-.7-1.4-.9-.2-.1-.4-.1-.7-.1h-2.8v5.3h2.1c.6,0,1-.1,1.4-.2s.7-.3,1-.6c.3-.2.5-.5.6-.8.2-.4.2-.7.2-1.1Z"/>
          </g>
        </g>
        <g id="text104">
          <g class="cls-3">
            <path class="cls-49" d="M367.7,259.5v.4c0,.1,0,.2-.1.3,0,.1-.1.1-.1.2h-.2c-.1,0-.3-.1-.5-.2-.2-.2-.5-.3-.9-.5s-.8-.4-1.4-.5c-.5-.2-1.2-.2-1.9-.2s-1.7.2-2.3.5c-.7.3-1.3.8-1.8,1.3-.5.6-.9,1.2-1.1,2-.3.8-.4,1.6-.4,2.5s.1,1.9.4,2.7.7,1.4,1.2,2,1.1.9,1.8,1.2,1.4.4,2.3.4,1-.1,1.5-.2,1-.3,1.4-.5v-4.6h-3.7c-.1,0-.2-.1-.3-.2s-.1-.4-.1-.6v-.4c0-.1,0-.2.1-.3,0-.1.1-.1.1-.2s.1,0,.2,0h5.3c0,0,.2.1.2.1.1.1.1.2.2.3s.1.2.1.4v6c0,.2,0,.4-.1.5-.1.2-.2.3-.5.4s-.5.2-.9.4-.8.3-1.2.4-.8.2-1.2.2-.8.1-1.2.1c-1.2,0-2.3-.2-3.3-.6s-1.8-.9-2.4-1.6c-.7-.7-1.2-1.5-1.5-2.5-.4-1-.5-2.1-.5-3.3s.2-2.4.6-3.4.9-1.9,1.6-2.6,1.5-1.3,2.5-1.7c1-.4,2-.6,3.2-.6s1.2.1,1.7.2,1,.2,1.4.4c.4.1.8.3,1,.5.3.2.5.3.6.4s.2.2.2.4c0,.1,0,.3,0,.5Z"/>
          </g>
        </g>
        <g id="text108">
          <g class="cls-3">
            <path class="cls-49" d="M397.2,269.1c0,.5-.1,1-.2,1.4s-.3.8-.5,1.1c-.2.3-.5.6-.8.9s-.7.5-1.1.6-.8.3-1.3.4-1,.1-1.6.1h-4.1c-.2,0-.4-.1-.5-.2s-.3-.3-.3-.7v-14.1c0-.3.1-.5.3-.7.2-.1.3-.2.5-.2h3.6c.9,0,1.7.1,2.3.3.6.2,1.1.4,1.5.8.4.3.7.8.9,1.3.2.5.3,1.1.3,1.7s0,.7-.1,1.1c-.1.3-.2.7-.4.9-.2.3-.4.5-.7.8-.3.2-.6.4-.9.6.4.1.8.2,1.2.4s.7.5,1,.8.5.7.7,1.2.2,1,.2,1.5ZM394.1,262c0-.4-.1-.7-.2-1s-.3-.6-.5-.8-.5-.4-.9-.5-.8-.2-1.5-.2h-2.2v5.1h2.4c.5,0,1-.1,1.3-.2s.6-.3.8-.6c.2-.2.4-.5.5-.8s.3-.6.3-1ZM395,269.2c0-.5-.1-.9-.2-1.2-.2-.4-.4-.7-.7-.9-.3-.2-.7-.4-1.1-.6s-1-.2-1.6-.2h-2.5v5.6h3c.5,0,.9-.1,1.3-.2s.7-.3.9-.5c.3-.2.5-.5.6-.8.2-.3.3-.7.3-1.2Z"/>
          </g>
        </g>
        <g id="text112">
          <g class="cls-3">
            <path class="cls-49" d="M432.5,266.9c0,.3-.1.5-.4.7s-.6.2-1,.2h-16.4c-.5,0-.8-.1-1.1-.2s-.4-.3-.4-.7.1-.5.4-.6.6-.2,1.1-.2h17c.2,0,.3.1.4.1l.3.3c.1.1.1.2.1.4Z"/>
          </g>
        </g>
        <polygon id="rect147" class="cls-5" points="427.5 136.5 430.7 136.5 420.7 222.5 417.5 222.5 427.5 136.5"/>
        <rect id="rect881" class="cls-6" x="320.9" y="56.6" width="113.6" height="24.1"/>
        <path id="path883" class="cls-6" d="M320.9,56.8c0-20.3,10.8-39,28.4-49.2s39.2-10.1,56.8,0,28.4,28.9,28.4,49.2"/>
        <path id="rect3802" class="cls-1" d="M376.5,5.1c-8.9.2-17.6,2.7-25.4,7.1-16.4,9.5-26.5,26.9-26.6,45.9h0v78h-3.9v11.8h114.3v-11.8h-3.9V58.1h0c-.1-18.9-10.2-36.4-26.6-45.9-8.5-4.9-18.2-7.4-27.9-7.1Z"/>
        <rect id="rect149" class="cls-4" x="399.6" y="105.4" width="59.1" height="3.1" transform="translate(321 535.8) rotate(-89.8)"/>
        <rect id="rect151" class="cls-4" x="297" y="105.2" width="59.1" height="3.1" transform="translate(218.9 433) rotate(-89.8)"/>
      </g>
      <circle id="circle281-8" class="cls-42" cx="423.9" cy="319.9" r="11.6"/>
      <circle id="circle281-9" class="cls-51" cx="393.2" cy="319.9" r="11.6"/>
      <circle id="circle281-10" class="cls-33" cx="362.4" cy="319.9" r="11.6"/>
      <circle id="circle281-11" class="cls-47" cx="331.5" cy="319.9" r="11.6"/>
      <rect id="rect853-4" class="cls-42" x="419.4" y="319.9" width="9.1" height="110.5"/>
      <rect id="rect853-5" class="cls-51" x="388.7" y="319.9" width="9.1" height="36.8"/>
      <rect id="rect853-6" class="cls-33" x="358.1" y="319.9" width="9.1" height="36.8"/>
      <rect id="rect853-7" class="cls-47" x="327" y="319.9" width="9.1" height="36.8"/>
      <circle id="circle281-12" class="cls-51" cx="394.1" cy="356.7" r="11.6"/>
      <circle id="circle281-13" class="cls-33" cx="362.6" cy="356.7" r="11.6"/>
      <circle id="circle281-14" class="cls-47" cx="331.5" cy="356.7" r="11.6"/>
    </g>
  </g>
</svg>