<?xml version="1.0" encoding="utf-8"?>
<!-- Generator: Adobe Illustrator 27.8.0, SVG Export Plug-In . SVG Version: 6.00 Build 0)  -->
<svg version="1.1"
	 id="Ebene_1" xmlns:svg="http://www.w3.org/2000/svg" xmlns:rdf="http://www.w3.org/1999/02/22-rdf-syntax-ns#" xmlns:sodipodi="http://sodipodi.sourceforge.net/DTD/sodipodi-0.dtd" xmlns:dc="http://purl.org/dc/elements/1.1/" xmlns:inkscape="http://www.inkscape.org/namespaces/inkscape" xmlns:cc="http://creativecommons.org/ns#" inkscape:version="0.92.4 (5da689c313, 2019-01-14)"
	 xmlns="http://www.w3.org/2000/svg" xmlns:xlink="http://www.w3.org/1999/xlink" x="0px" y="0px" viewBox="0 0 465.8 822.1"
	 style="enable-background:new 0 0 465.8 822.1;" xml:space="preserve">
<style type="text/css">
	.st0{fill:#02814B;}
	.st1{fill:#D4C547;}
	.st2{fill:#525035;}
	.st3{fill:#FEE86F;}
	.st4{fill:#FFE17B;}
	.st5{fill:#DDDDDD;}
	.st6{fill:#7F7F7F;}
	.st7{fill:#474544;}
	.st8{fill:#E2EADE;}
	.st9{fill:#C29148;}
	.st10{fill:#8DDDDE;}
	.st11{fill:#C1C1C1;}
	.st12{fill:#C2BFAB;}
	.st13{fill:none;stroke:#95AC6E;stroke-miterlimit:10;}
	.st14{fill:#E8D28A;}
	.st15{fill:#CECECE;}
	.st16{fill:#FFFFFF;}
	.st17{fill:#36323E;}
	.st18{fill:#868C97;}
	.st19{fill:#FCFCFA;}
	.st20{fill:#141316;}
	.st21{fill:#B9A68F;}
	.st22{fill:#E0B45B;}
	.st23{fill:#ABA28E;}
	.st24{fill:none;stroke:#FFFFFF;stroke-miterlimit:10;}
	.st25{fill:#915114;}
	.st26{fill:#E20E18;}
	.st27{fill:#22AE87;}
	.st28{fill:#25AF88;}
	.st29{fill:#010101;}
	.st30{fill:#1B1B1B;}
	.st31{opacity:0.99;fill:#010101;enable-background:new    ;}
	.st32{fill:#CDCCCC;}
	.st33{opacity:0.99;fill:#808181;enable-background:new    ;}
	.st34{opacity:0.99;fill:#CDCCCC;enable-background:new    ;}
	.st35{opacity:0.99;fill:#FFFFFF;enable-background:new    ;}
	.st36{fill:#343434;}
	.st37{enable-background:new    ;}
</style>
<g>
	<path class="st0" d="M243.3,240.1v-11.9H0.2v11.9c2.3,0.9,3.9,3.1,3.9,5.7s-1.6,4.8-3.9,5.7v18.1c2.3,0.9,3.9,3.1,3.9,5.7
		s-1.6,4.8-3.9,5.7v18.1c2.3,0.9,3.9,3.1,3.9,5.7s-1.6,4.8-3.9,5.7v18.1c2.3,0.9,3.9,3.1,3.9,5.7s-1.6,4.8-3.9,5.7v18.1
		c2.3,0.9,3.9,3.1,3.9,5.7s-1.6,4.8-3.9,5.7v18.1c2.3,0.9,3.9,3.1,3.9,5.7s-1.6,4.8-3.9,5.7v18.1c2.3,0.9,3.9,3.1,3.9,5.7
		s-1.6,4.8-3.9,5.7v18.1c2.3,0.9,3.9,3.1,3.9,5.7s-1.6,4.8-3.9,5.7v18.1c2.3,0.9,3.9,3.1,3.9,5.7s-1.6,4.8-3.9,5.7v18.1
		c2.3,0.9,3.9,3.1,3.9,5.7s-1.6,4.8-3.9,5.7v18.1c2.3,0.9,3.9,3.1,3.9,5.7s-1.6,4.8-3.9,5.7v18.1c2.3,0.9,3.9,3.1,3.9,5.7
		s-1.6,4.8-3.9,5.7v18.1c2.3,0.9,3.9,3.1,3.9,5.7s-1.6,4.8-3.9,5.7v18.1c2.3,0.9,3.9,3.1,3.9,5.7s-1.6,4.8-3.9,5.7v18.1
		c2.3,0.9,3.9,3.1,3.9,5.7s-1.6,4.8-3.9,5.7v18.1c2.3,0.9,3.9,3.1,3.9,5.7s-1.6,4.8-3.9,5.7v18.1c2.3,0.9,3.9,3.1,3.9,5.7
		s-1.6,4.8-3.9,5.7v18.1c2.3,0.9,3.9,3.1,3.9,5.7s-1.6,4.8-3.9,5.7v18c2.3,0.9,3.9,3.1,3.9,5.7s-1.6,4.8-3.9,5.7v18.1
		c2.3,0.9,3.9,3.1,3.9,5.7s-1.6,4.8-3.9,5.7v11.9h78.5h7.5h11.3h18.5h11.3H146h11.3h4h82V810c-2.2-0.9-3.8-3.1-3.8-5.7
		s1.6-4.8,3.8-5.7v-18.1c-2.2-0.9-3.8-3.1-3.8-5.7s1.6-4.8,3.8-5.7v-18.1c-2.2-0.9-3.8-3.1-3.8-5.7s1.6-4.8,3.8-5.7v-18.1
		c-2.2-0.9-3.8-3.1-3.8-5.7s1.6-4.8,3.8-5.7v-18.1c-2.2-0.9-3.8-3.1-3.8-5.7s1.6-4.8,3.8-5.7V663c-2.2-0.9-3.8-3.1-3.8-5.7
		s1.6-4.8,3.8-5.7v-18.1c-2.2-0.9-3.8-3.1-3.8-5.7s1.6-4.8,3.8-5.7v-18.1c-2.2-0.9-3.8-3.1-3.8-5.7s1.6-4.8,3.8-5.7v-18.1
		c-2.2-0.9-3.8-3.1-3.8-5.7s1.6-4.8,3.8-5.7v-18.1c-2.2-0.9-3.8-3.1-3.8-5.7s1.6-4.8,3.8-5.7V516c-2.2-0.9-3.8-3.1-3.8-5.7
		s1.6-4.8,3.8-5.7v-18.1c-2.2-0.9-3.8-3.1-3.8-5.7s1.6-4.8,3.8-5.7v-18.1c-2.2-0.9-3.8-3.1-3.8-5.7s1.6-4.8,3.8-5.7v-18.1
		c-2.2-0.9-3.8-3.1-3.8-5.7s1.6-4.8,3.8-5.7v-18.1c-2.2-0.9-3.8-3.1-3.8-5.7s1.6-4.8,3.8-5.7V369c-2.2-0.9-3.8-3.1-3.8-5.7
		s1.6-4.8,3.8-5.7v-18.1c-2.2-0.9-3.8-3.1-3.8-5.7s1.6-4.8,3.8-5.7v-18.1c-2.2-0.9-3.8-3.1-3.8-5.7s1.6-4.8,3.8-5.7v-18.1
		c-2.2-0.9-3.8-3.1-3.8-5.7s1.6-4.8,3.8-5.7v-18.1c-2.2-0.9-3.8-3.1-3.8-5.7S241.1,241,243.3,240.1z M15.8,810.4
		c-3.4,0-6.1-2.7-6.1-6.1s2.7-6.1,6.1-6.1s6.1,2.7,6.1,6.1S19.2,810.4,15.8,810.4z M15.8,781c-3.4,0-6.1-2.7-6.1-6.1
		s2.7-6.1,6.1-6.1s6.1,2.7,6.1,6.1S19.2,781,15.8,781z M15.8,751.6c-3.4,0-6.1-2.7-6.1-6.1s2.7-6.1,6.1-6.1s6.1,2.7,6.1,6.1
		S19.2,751.6,15.8,751.6z M15.8,722.2c-3.4,0-6.1-2.7-6.1-6.1s2.7-6.1,6.1-6.1s6.1,2.7,6.1,6.1S19.2,722.2,15.8,722.2z M15.8,692.8
		c-3.4,0-6.1-2.7-6.1-6.1s2.7-6.1,6.1-6.1s6.1,2.7,6.1,6.1S19.2,692.8,15.8,692.8z M15.8,663.4c-3.4,0-6.1-2.7-6.1-6.1
		s2.7-6.1,6.1-6.1s6.1,2.7,6.1,6.1S19.2,663.4,15.8,663.4z M15.8,634c-3.4,0-6.1-2.7-6.1-6.1s2.7-6.1,6.1-6.1s6.1,2.7,6.1,6.1
		S19.2,634,15.8,634z M15.8,604.6c-3.4,0-6.1-2.7-6.1-6.1s2.7-6.1,6.1-6.1s6.1,2.7,6.1,6.1S19.2,604.6,15.8,604.6z M15.8,575.2
		c-3.4,0-6.1-2.7-6.1-6.1s2.7-6.1,6.1-6.1s6.1,2.7,6.1,6.1S19.2,575.2,15.8,575.2z M15.8,545.8c-3.4,0-6.1-2.7-6.1-6.1
		s2.7-6.1,6.1-6.1s6.1,2.7,6.1,6.1S19.2,545.8,15.8,545.8z M15.8,516.4c-3.4,0-6.1-2.7-6.1-6.1s2.7-6.1,6.1-6.1s6.1,2.7,6.1,6.1
		S19.2,516.4,15.8,516.4z M15.8,487c-3.4,0-6.1-2.7-6.1-6.1s2.7-6.1,6.1-6.1s6.1,2.7,6.1,6.1S19.2,487,15.8,487z M15.8,457.6
		c-3.4,0-6.1-2.7-6.1-6.1s2.7-6.1,6.1-6.1s6.1,2.7,6.1,6.1S19.2,457.6,15.8,457.6z M15.8,428.3c-3.4,0-6.1-2.7-6.1-6.1
		s2.7-6.1,6.1-6.1s6.1,2.7,6.1,6.1S19.2,428.3,15.8,428.3z M15.8,398.9c-3.4,0-6.1-2.7-6.1-6.1s2.7-6.1,6.1-6.1s6.1,2.7,6.1,6.1
		S19.2,398.9,15.8,398.9z M15.8,369.5c-3.4,0-6.1-2.7-6.1-6.1s2.7-6.1,6.1-6.1s6.1,2.7,6.1,6.1S19.2,369.5,15.8,369.5z M15.8,340.1
		c-3.4,0-6.1-2.7-6.1-6.1s2.7-6.1,6.1-6.1c3.4,0,6.1,2.7,6.1,6.1S19.2,340.1,15.8,340.1z M15.8,310.7c-3.4,0-6.1-2.7-6.1-6.1
		s2.7-6.1,6.1-6.1s6.1,2.7,6.1,6.1S19.2,310.7,15.8,310.7z M15.8,281.3c-3.4,0-6.1-2.7-6.1-6.1s2.7-6.1,6.1-6.1s6.1,2.7,6.1,6.1
		S19.2,281.3,15.8,281.3z M15.8,251.9c-3.4,0-6.1-2.7-6.1-6.1s2.7-6.1,6.1-6.1s6.1,2.7,6.1,6.1S19.2,251.9,15.8,251.9z M53.7,810.3
		c-6.7,0-12.1-5.4-12.1-12.1s5.4-12.1,12.1-12.1c6.7,0,12.1,5.4,12.1,12.1S60.4,810.3,53.7,810.3z M53.7,263.2
		c-6.7,0-12.1-5.4-12.1-12.1c0-6.7,5.4-12.1,12.1-12.1c6.7,0,12.1,5.4,12.1,12.1C65.8,257.8,60.4,263.2,53.7,263.2z M127.6,596.4
		c-3.1,0-5.7-2.6-5.7-5.7s2.6-5.7,5.7-5.7c3.1,0,5.7,2.6,5.7,5.7S130.7,596.4,127.6,596.4z M157,596.4c-3.1,0-5.7-2.6-5.7-5.7
		s2.6-5.7,5.7-5.7c3.1,0,5.7,2.6,5.7,5.7S160.2,596.4,157,596.4z M186.2,239c6.7,0,12.1,5.4,12.1,12.1c0,6.7-5.4,12.1-12.1,12.1
		s-12.1-5.4-12.1-12.1C174.1,244.4,179.6,239,186.2,239z M192.5,590.7c0,3.1-2.6,5.7-5.7,5.7c-3.1,0-5.7-2.6-5.7-5.7
		s2.6-5.7,5.7-5.7C190,585,192.5,587.6,192.5,590.7z M188.2,810.3c-6.7,0-12.1-5.4-12.1-12.1s5.4-12.1,12.1-12.1s12.1,5.4,12.1,12.1
		S194.9,810.3,188.2,810.3z M227.8,810.4c-3.4,0-6.1-2.7-6.1-6.1s2.7-6.1,6.1-6.1s6.1,2.7,6.1,6.1S231.2,810.4,227.8,810.4z
		 M227.8,781c-3.4,0-6.1-2.7-6.1-6.1s2.7-6.1,6.1-6.1s6.1,2.7,6.1,6.1S231.2,781,227.8,781z M227.8,751.6c-3.4,0-6.1-2.7-6.1-6.1
		s2.7-6.1,6.1-6.1s6.1,2.7,6.1,6.1S231.2,751.6,227.8,751.6z M227.8,722.2c-3.4,0-6.1-2.7-6.1-6.1s2.7-6.1,6.1-6.1s6.1,2.7,6.1,6.1
		S231.2,722.2,227.8,722.2z M227.8,692.8c-3.4,0-6.1-2.7-6.1-6.1s2.7-6.1,6.1-6.1s6.1,2.7,6.1,6.1S231.2,692.8,227.8,692.8z
		 M227.8,663.4c-3.4,0-6.1-2.7-6.1-6.1s2.7-6.1,6.1-6.1s6.1,2.7,6.1,6.1S231.2,663.4,227.8,663.4z M227.8,634
		c-3.4,0-6.1-2.7-6.1-6.1s2.7-6.1,6.1-6.1s6.1,2.7,6.1,6.1S231.2,634,227.8,634z M227.8,604.6c-3.4,0-6.1-2.7-6.1-6.1
		s2.7-6.1,6.1-6.1s6.1,2.7,6.1,6.1S231.2,604.6,227.8,604.6z M227.8,575.2c-3.4,0-6.1-2.7-6.1-6.1s2.7-6.1,6.1-6.1s6.1,2.7,6.1,6.1
		S231.2,575.2,227.8,575.2z M227.8,545.8c-3.4,0-6.1-2.7-6.1-6.1s2.7-6.1,6.1-6.1s6.1,2.7,6.1,6.1S231.2,545.8,227.8,545.8z
		 M227.8,516.4c-3.4,0-6.1-2.7-6.1-6.1s2.7-6.1,6.1-6.1s6.1,2.7,6.1,6.1S231.2,516.4,227.8,516.4z M227.8,487
		c-3.4,0-6.1-2.7-6.1-6.1s2.7-6.1,6.1-6.1s6.1,2.7,6.1,6.1S231.2,487,227.8,487z M227.8,457.6c-3.4,0-6.1-2.7-6.1-6.1
		s2.7-6.1,6.1-6.1s6.1,2.7,6.1,6.1S231.2,457.6,227.8,457.6z M227.8,428.3c-3.4,0-6.1-2.7-6.1-6.1s2.7-6.1,6.1-6.1s6.1,2.7,6.1,6.1
		S231.2,428.3,227.8,428.3z M227.8,398.9c-3.4,0-6.1-2.7-6.1-6.1s2.7-6.1,6.1-6.1s6.1,2.7,6.1,6.1S231.2,398.9,227.8,398.9z
		 M227.8,369.5c-3.4,0-6.1-2.7-6.1-6.1s2.7-6.1,6.1-6.1s6.1,2.7,6.1,6.1S231.2,369.5,227.8,369.5z M227.8,340.1
		c-3.4,0-6.1-2.7-6.1-6.1s2.7-6.1,6.1-6.1s6.1,2.7,6.1,6.1S231.2,340.1,227.8,340.1z M227.8,310.7c-3.4,0-6.1-2.7-6.1-6.1
		s2.7-6.1,6.1-6.1s6.1,2.7,6.1,6.1S231.2,310.7,227.8,310.7z M227.8,281.3c-3.4,0-6.1-2.7-6.1-6.1s2.7-6.1,6.1-6.1s6.1,2.7,6.1,6.1
		S231.2,281.3,227.8,281.3z M227.8,251.9c-3.4,0-6.1-2.7-6.1-6.1s2.7-6.1,6.1-6.1s6.1,2.7,6.1,6.1S231.2,251.9,227.8,251.9z"/>
	<path class="st1" d="M53.7,230.6c-11.3,0-20.5,9.2-20.5,20.5c0,11.3,9.2,20.5,20.5,20.5s20.5-9.2,20.5-20.5
		C74.3,239.8,65.1,230.6,53.7,230.6z M53.7,263.2c-6.7,0-12.1-5.4-12.1-12.1c0-6.7,5.4-12.1,12.1-12.1c6.7,0,12.1,5.4,12.1,12.1
		C65.8,257.8,60.4,263.2,53.7,263.2z"/>
	<path class="st1" d="M186.3,230.6c-11.3,0-20.5,9.2-20.5,20.5c0,11.3,9.2,20.5,20.5,20.5c11.3,0,20.5-9.2,20.5-20.5
		C206.8,239.8,197.6,230.6,186.3,230.6z M186.3,263.2c-6.7,0-12.1-5.4-12.1-12.1c0-6.7,5.4-12.1,12.1-12.1c6.7,0,12.1,5.4,12.1,12.1
		C198.4,257.8,193,263.2,186.3,263.2z"/>
	<path class="st1" d="M53.7,777.7c-11.3,0-20.5,9.2-20.5,20.5s9.2,20.5,20.5,20.5s20.5-9.2,20.5-20.5S65.1,777.7,53.7,777.7z
		 M53.7,810.4c-6.7,0-12.1-5.4-12.1-12.1s5.4-12.1,12.1-12.1c6.7,0,12.1,5.4,12.1,12.1S60.4,810.4,53.7,810.4z"/>
	<path class="st1" d="M188.3,777.7c-11.3,0-20.5,9.2-20.5,20.5s9.2,20.5,20.5,20.5c11.3,0,20.5-9.2,20.5-20.5
		S199.6,777.7,188.3,777.7z M188.3,810.4c-6.7,0-12.1-5.4-12.1-12.1s5.4-12.1,12.1-12.1c6.7,0,12.1,5.4,12.1,12.1
		S195,810.4,188.3,810.4z"/>
	<circle class="st2" cx="55" cy="315.8" r="10.6"/>
	<circle class="st3" cx="55" cy="315.8" r="5.5"/>
	<path class="st4" d="M17.5,295.6H0.3v3.4c2.3,0.9,3.9,3.1,3.9,5.7s-1.6,4.8-3.9,5.7v3.4h17.2c5,0,9-4,9-9v0
		C26.5,299.6,22.4,295.6,17.5,295.6z M15.9,310.7c-3.4,0-6.1-2.7-6.1-6.1s2.7-6.1,6.1-6.1s6.1,2.7,6.1,6.1S19.2,310.7,15.9,310.7z"
		/>
	<path class="st4" d="M17.5,442.6H0.3v3.4c2.3,0.9,3.9,3.1,3.9,5.7s-1.6,4.8-3.9,5.7v3.4h17.2c5,0,9-4,9-9S22.4,442.6,17.5,442.6z
		 M15.9,457.7c-3.4,0-6.1-2.7-6.1-6.1s2.7-6.1,6.1-6.1s6.1,2.7,6.1,6.1S19.2,457.7,15.9,457.7z"/>
	<path class="st4" d="M17.5,589.5H0.3v3.4c2.3,0.9,3.9,3.1,3.9,5.7s-1.6,4.8-3.9,5.7v3.4h17.2c5,0,9-4,9-9S22.4,589.5,17.5,589.5z
		 M15.9,604.7c-3.4,0-6.1-2.7-6.1-6.1s2.7-6.1,6.1-6.1s6.1,2.7,6.1,6.1S19.2,604.7,15.9,604.7z"/>
	<path class="st4" d="M17.5,618.9H0.3v3.4c2.3,0.9,3.9,3.1,3.9,5.7s-1.6,4.8-3.9,5.7v3.4h17.2c5,0,9-4,9-9S22.4,618.9,17.5,618.9z
		 M15.9,634c-3.4,0-6.1-2.7-6.1-6.1s2.7-6.1,6.1-6.1s6.1,2.7,6.1,6.1S19.2,634,15.9,634z"/>
	<path class="st4" d="M17.5,648.3H0.3v3.4c2.3,0.9,3.9,3.1,3.9,5.7s-1.6,4.8-3.9,5.7v3.4h17.2c5,0,9-4,9-9S22.4,648.3,17.5,648.3z
		 M15.9,663.4c-3.4,0-6.1-2.7-6.1-6.1s2.7-6.1,6.1-6.1s6.1,2.7,6.1,6.1S19.2,663.4,15.9,663.4z"/>
	<path class="st4" d="M17.5,677.7H0.3v3.4c2.3,0.9,3.9,3.1,3.9,5.7s-1.6,4.8-3.9,5.7v3.4h17.2c5,0,9-4,9-9S22.4,677.7,17.5,677.7z
		 M15.9,692.8c-3.4,0-6.1-2.7-6.1-6.1s2.7-6.1,6.1-6.1s6.1,2.7,6.1,6.1S19.2,692.8,15.9,692.8z"/>
	<path class="st4" d="M17.5,736.5H0.3v3.4c2.3,0.9,3.9,3.1,3.9,5.7s-1.6,4.8-3.9,5.7v3.4h17.2c5,0,9-4,9-9v0
		C26.5,740.6,22.4,736.5,17.5,736.5z M15.9,751.6c-3.4,0-6.1-2.7-6.1-6.1s2.7-6.1,6.1-6.1s6.1,2.7,6.1,6.1S19.2,751.6,15.9,751.6z"
		/>
	<path class="st4" d="M17.5,765.9H0.3v3.4c2.3,0.9,3.9,3.1,3.9,5.7s-1.6,4.8-3.9,5.7v3.4h17.2c5,0,9-4,9-9v0
		C26.5,770,22.4,765.9,17.5,765.9z M15.9,781c-3.4,0-6.1-2.7-6.1-6.1s2.7-6.1,6.1-6.1s6.1,2.7,6.1,6.1S19.2,781,15.9,781z"/>
	<path class="st4" d="M17.5,795.3H0.3v3.4c2.3,0.9,3.9,3.1,3.9,5.7s-1.6,4.8-3.9,5.7v3.4h17.2c5,0,9-4,9-9S22.4,795.3,17.5,795.3z
		 M15.9,810.4c-3.4,0-6.1-2.7-6.1-6.1s2.7-6.1,6.1-6.1s6.1,2.7,6.1,6.1S19.2,810.4,15.9,810.4z"/>
	<path class="st4" d="M239.5,245.8c0-2.6,1.6-4.8,3.9-5.7v-3.4h-17.2c-5,0-9,4-9,9s4,9,9,9h17.2v-3.4
		C241.2,250.6,239.5,248.4,239.5,245.8z M227.8,251.9c-3.4,0-6.1-2.7-6.1-6.1s2.7-6.1,6.1-6.1s6.1,2.7,6.1,6.1
		S231.2,251.9,227.8,251.9z"/>
	<path class="st4" d="M239.5,275.2c0-2.6,1.6-4.8,3.9-5.7v-3.4h-17.2c-5,0-9,4-9,9v0c0,5,4,9,9,9h17.2v-3.4
		C241.2,280,239.5,277.8,239.5,275.2z M227.8,281.3c-3.4,0-6.1-2.7-6.1-6.1s2.7-6.1,6.1-6.1s6.1,2.7,6.1,6.1
		S231.2,281.3,227.8,281.3z"/>
	<path class="st4" d="M239.5,304.6c0-2.6,1.6-4.8,3.9-5.7v-3.4h-17.2c-5,0-9,4-9,9v0c0,5,4,9,9,9h17.2v-3.4
		C241.2,309.4,239.5,307.2,239.5,304.6z M227.8,310.7c-3.4,0-6.1-2.7-6.1-6.1s2.7-6.1,6.1-6.1s6.1,2.7,6.1,6.1
		S231.2,310.7,227.8,310.7z"/>
	<path class="st4" d="M239.5,334c0-2.6,1.6-4.8,3.9-5.7V325h-17.2c-5,0-9,4-9,9s4,9,9,9h17.2v-3.4
		C241.2,338.8,239.5,336.6,239.5,334z M227.8,340.1c-3.4,0-6.1-2.7-6.1-6.1s2.7-6.1,6.1-6.1s6.1,2.7,6.1,6.1
		S231.2,340.1,227.8,340.1z"/>
	<path class="st4" d="M239.5,363.4c0-2.6,1.6-4.8,3.9-5.7v-3.4h-17.2c-5,0-9,4-9,9s4,9,9,9h17.2v-3.4
		C241.2,368.2,239.5,366,239.5,363.4z M227.8,369.5c-3.4,0-6.1-2.7-6.1-6.1s2.7-6.1,6.1-6.1s6.1,2.7,6.1,6.1
		S231.2,369.5,227.8,369.5z"/>
	<path class="st4" d="M239.5,392.8c0-2.6,1.6-4.8,3.9-5.7v-3.4h-17.2c-5,0-9,4-9,9s4,9,9,9h17.2v-3.4
		C241.2,397.6,239.5,395.4,239.5,392.8z M227.8,398.9c-3.4,0-6.1-2.7-6.1-6.1s2.7-6.1,6.1-6.1s6.1,2.7,6.1,6.1
		S231.2,398.9,227.8,398.9z"/>
	<path class="st4" d="M239.5,451.6c0-2.6,1.6-4.8,3.9-5.7v-3.4h-17.2c-5,0-9,4-9,9s4,9,9,9h17.2v-3.4
		C241.2,456.4,239.5,454.2,239.5,451.6z M227.8,457.7c-3.4,0-6.1-2.7-6.1-6.1s2.7-6.1,6.1-6.1s6.1,2.7,6.1,6.1
		S231.2,457.7,227.8,457.7z"/>
	<path class="st4" d="M239.5,510.4c0-2.6,1.6-4.8,3.9-5.7v-3.4h-17.2c-5,0-9,4-9,9v0c0,5,4,9,9,9h17.2V516
		C241.2,515.2,239.5,513,239.5,510.4z M227.8,516.5c-3.4,0-6.1-2.7-6.1-6.1c0-3.4,2.7-6.1,6.1-6.1s6.1,2.7,6.1,6.1
		C233.9,513.7,231.2,516.5,227.8,516.5z"/>
	<path class="st4" d="M239.5,539.8c0-2.6,1.6-4.8,3.9-5.7v-3.4h-17.2c-5,0-9,4-9,9v0c0,5,4,9,9,9h17.2v-3.4
		C241.2,544.6,239.5,542.4,239.5,539.8z M227.8,545.9c-3.4,0-6.1-2.7-6.1-6.1s2.7-6.1,6.1-6.1s6.1,2.7,6.1,6.1
		S231.2,545.9,227.8,545.9z"/>
	<path class="st4" d="M239.5,569.2c0-2.6,1.6-4.8,3.9-5.7v-3.4h-17.2c-5,0-9,4-9,9s4,9,9,9h17.2v-3.4
		C241.2,574,239.5,571.8,239.5,569.2z M227.8,575.3c-3.4,0-6.1-2.7-6.1-6.1s2.7-6.1,6.1-6.1s6.1,2.7,6.1,6.1
		S231.2,575.3,227.8,575.3z"/>
	<path class="st4" d="M239.5,598.6c0-2.6,1.6-4.8,3.9-5.7v-3.4h-17.2c-5,0-9,4-9,9s4,9,9,9h17.2v-3.4
		C241.2,603.4,239.5,601.1,239.5,598.6z M227.8,604.7c-3.4,0-6.1-2.7-6.1-6.1s2.7-6.1,6.1-6.1s6.1,2.7,6.1,6.1
		S231.2,604.7,227.8,604.7z"/>
	<path class="st4" d="M239.5,628c0-2.6,1.6-4.8,3.9-5.7v-3.4h-17.2c-5,0-9,4-9,9s4,9,9,9h17.2v-3.4
		C241.2,632.7,239.5,630.5,239.5,628z M227.8,634c-3.4,0-6.1-2.7-6.1-6.1s2.7-6.1,6.1-6.1s6.1,2.7,6.1,6.1S231.2,634,227.8,634z"/>
	<path class="st4" d="M239.5,657.4c0-2.6,1.6-4.8,3.9-5.7v-3.4h-17.2c-5,0-9,4-9,9s4,9,9,9h17.2V663
		C241.2,662.1,239.5,659.9,239.5,657.4z M227.8,663.4c-3.4,0-6.1-2.7-6.1-6.1s2.7-6.1,6.1-6.1s6.1,2.7,6.1,6.1
		S231.2,663.4,227.8,663.4z"/>
	<path class="st4" d="M239.5,686.8c0-2.6,1.6-4.8,3.9-5.7v-3.4h-17.2c-5,0-9,4-9,9s4,9,9,9h17.2v-3.4
		C241.2,691.5,239.5,689.3,239.5,686.8z M227.8,692.8c-3.4,0-6.1-2.7-6.1-6.1s2.7-6.1,6.1-6.1s6.1,2.7,6.1,6.1
		S231.2,692.8,227.8,692.8z"/>
	<path class="st4" d="M239.5,745.5c0-2.6,1.6-4.8,3.9-5.7v-3.4h-17.2c-5,0-9,4-9,9v0c0,5,4,9,9,9h17.2v-3.4
		C241.2,750.3,239.5,748.1,239.5,745.5z M227.8,751.6c-3.4,0-6.1-2.7-6.1-6.1s2.7-6.1,6.1-6.1s6.1,2.7,6.1,6.1
		S231.2,751.6,227.8,751.6z"/>
	<path class="st4" d="M239.5,774.9c0-2.6,1.6-4.8,3.9-5.7v-3.4h-17.2c-5,0-9,4-9,9v0c0,5,4,9,9,9h17.2v-3.4
		C241.2,779.7,239.5,777.5,239.5,774.9z M227.8,781c-3.4,0-6.1-2.7-6.1-6.1s2.7-6.1,6.1-6.1s6.1,2.7,6.1,6.1S231.2,781,227.8,781z"
		/>
	<path class="st5" d="M163.1,217.7l4.4-4.4l-2.3-2.3l-6.6,6.6h-1.5v-4.7c0-1.2-1-2.2-2.2-2.2H85.4c-1.2,0-2.2,1-2.2,2.2v4.7h-1.5
		l-6.6-6.6l-2.3,2.3l4.4,4.4c-0.6,0.2-1,0.8-1,1.4v56.3c0,0.9,0.7,1.6,1.6,1.6h84.6c0.9,0,1.6-0.7,1.6-1.6v-56.3
		C164,218.5,163.6,217.9,163.1,217.7z"/>
	<g>
		<path class="st6" d="M100.3,240c0-3.2-2.6-5.8-5.8-5.8s-5.8,2.6-5.8,5.8c0,1.4,0.5,2.7,1.3,3.7h-0.2v7.7c0,1.2,1,2.1,2.1,2.1H97
			c1.2,0,2.1-1,2.1-2.1v-7.7H99C99.8,242.7,100.3,241.4,100.3,240z"/>
		<path class="st6" d="M155.5,240c0-3.2-2.6-5.8-5.8-5.8s-5.8,2.6-5.8,5.8c0,1.4,0.5,2.7,1.3,3.7H145v7.7c0,1.2,1,2.1,2.1,2.1h5.1
			c1.2,0,2.1-1,2.1-2.1v-7.7h-0.2C155,242.7,155.5,241.4,155.5,240z"/>
	</g>
	<path class="st7" d="M200.9,370.1h-21c-1.2,0-2.2-1-2.2-2.2v-26.7c0-1.2,1-2.2,2.2-2.2h21c1.2,0,2.2,1,2.2,2.2V368
		C203,369.2,202.1,370.1,200.9,370.1z"/>
	<g>
		<rect x="132" y="306.3" class="st8" width="21.7" height="14.4"/>
		<path class="st9" d="M149.3,320.8c-2-1.8-3.2-4.4-3.2-7.2s1.2-5.4,3.2-7.2h-12.8c2,1.8,3.2,4.4,3.2,7.2s-1.2,5.4-3.2,7.2H149.3z"
			/>
	</g>
	<g>
		<rect x="132.3" y="391.7" class="st8" width="21.7" height="14.4"/>
		<path class="st9" d="M149.6,406.1c-2-1.8-3.2-4.4-3.2-7.2s1.2-5.4,3.2-7.2h-12.8c2,1.8,3.2,4.4,3.2,7.2s-1.2,5.4-3.2,7.2H149.6z"
			/>
	</g>
	<g>
		<rect x="132.3" y="410.8" class="st8" width="21.7" height="14.4"/>
		<path class="st9" d="M149.6,425.3c-2-1.8-3.2-4.4-3.2-7.2s1.2-5.4,3.2-7.2h-12.8c2,1.8,3.2,4.4,3.2,7.2s-1.2,5.4-3.2,7.2H149.6z"
			/>
	</g>
	<g>
		
			<rect x="63.8" y="459.2" transform="matrix(6.123234e-17 -1 1 6.123234e-17 -397.9738 531.0099)" class="st8" width="5.4" height="10.6"/>
		
			<rect x="63.8" y="461.5" transform="matrix(6.123234e-17 -1 1 6.123234e-17 -397.9738 531.0099)" class="st9" width="5.4" height="6"/>
	</g>
	<g>
		<rect x="177.1" y="441.8" class="st8" width="5.4" height="10.6"/>
		<rect x="177.1" y="444.1" class="st9" width="5.4" height="6"/>
	</g>
	<rect x="179.5" y="291.7" class="st7" width="18.9" height="29.3"/>
	<g>
		<rect x="171.6" y="393" class="st8" width="20.6" height="9.6"/>
		<rect x="176.2" y="393" class="st10" width="11.5" height="9.6"/>
	</g>
	<rect x="120.2" y="561.1" class="st9" width="4.2" height="6.9"/>
	<rect x="126.9" y="561.1" class="st9" width="4.2" height="6.9"/>
	
		<rect x="66.6" y="471.1" transform="matrix(6.123234e-17 -1 1 6.123234e-17 -405.7704 543.2529)" class="st9" width="4.2" height="6.9"/>
	
		<rect x="89.5" y="403.9" transform="matrix(6.123234e-17 -1 1 6.123234e-17 -315.7057 499.0298)" class="st9" width="4.2" height="6.9"/>
	
		<rect x="66.3" y="514.7" transform="matrix(6.123234e-17 -1 1 6.123234e-17 -449.7245 586.4944)" class="st9" width="4.2" height="6.9"/>
	<rect x="195" y="519.9" class="st7" width="4.2" height="6.9"/>
	
		<rect x="189.2" y="458.6" transform="matrix(6.123234e-17 -1 1 6.123234e-17 -270.7542 653.4058)" class="st7" width="4.2" height="6.9"/>
	
		<rect x="87.2" y="303" transform="matrix(6.123234e-17 -1 1 6.123234e-17 -217.0726 395.7349)" class="st7" width="4.2" height="6.9"/>
	
		<rect x="82.3" y="315.2" transform="matrix(6.123234e-17 -1 1 6.123234e-17 -234.1878 403.0945)" class="st7" width="4.2" height="6.9"/>
	
		<rect x="192.8" y="407.7" transform="matrix(6.123234e-17 -1 1 6.123234e-17 -216.1445 606.0587)" class="st7" width="4.2" height="6.9"/>
	<path class="st11" d="M186.3,724.8H57.5c-2.1,0-3.9-1.7-3.9-3.9V612.8c0-2.1,1.7-3.9,3.9-3.9h128.8c2.1,0,3.9,1.7,3.9,3.9v108.1
		C190.2,723,188.5,724.8,186.3,724.8z"/>
	<rect x="101.5" y="771.1" class="st12" width="10.5" height="5.9"/>
	<rect x="130.3" y="771.2" class="st12" width="10.5" height="5.9"/>
	<rect x="101.5" y="808.8" class="st12" width="10.5" height="5.9"/>
	<rect x="130.3" y="809" class="st12" width="10.5" height="5.9"/>
	<polyline class="st13" points="17.5,253.6 17.5,258 35.4,275.9 35.4,324.6 51,340.1 51,474.9 55.9,479.8 91.2,479.8 	"/>
	<polyline class="st13" points="22.9,280.4 31,288.5 31,326.4 46.7,342.1 46.7,477.4 52.6,483.3 91,483.3 	"/>
	<polyline class="st13" points="23.2,338.9 43,358.7 43,479.8 53.4,490.3 95,490.3 	"/>
	<polyline class="st13" points="23.2,368.3 39.8,384.8 39.8,481.8 51.9,493.9 95.1,493.9 	"/>
	<polyline class="st13" points="23.2,398.5 35.6,410.8 35.6,486.8 49.5,500.7 93.4,500.7 	"/>
	<polyline class="st13" points="22.9,426.6 31.6,435.3 31.6,489.5 46.4,504.2 96.1,504.2 	"/>
	<polyline class="st13" points="22.9,485.2 45.3,507.7 102.7,507.7 	"/>
	<line class="st13" x1="23.7" y1="511.2" x2="98.8" y2="511.2"/>
	<path class="st13" d="M23.2,537.5c0.1-0.6,17.3-17.3,17.3-17.3H53l4.9,4.9h45.7"/>
	<polyline class="st13" points="20.4,563.4 25.7,558.1 25.7,550.3 30.9,545.2 30.9,536.8 43.9,523.7 52.6,523.7 57.3,528.4 
		95.3,528.4 	"/>
	<path class="st13" d="M30.7,553.6l3.4-3.4c0,0-0.7-8.9,0-9.6c0.7-0.7,6-6,6-6l6.3-6.3h6.1l3.7,3.7h35.1"/>
	<polyline class="st13" points="29.1,609.5 29.1,561.9 38.7,552.3 93.4,552.3 95,550.7 95,541 	"/>
	<polyline class="st13" points="17.5,707.8 17.5,704.2 32.9,688.7 32.9,608.4 35.7,605.7 35.7,563.9 42,557.6 94.2,557.6 
		98.4,553.3 98.4,546 	"/>
	<path class="st13" d="M35.7,591.3"/>
	<path class="st13" d="M35.7,606.6"/>
	<polyline class="st13" points="23.6,768.4 30.4,761.6 30.4,697 37.5,691.1 	"/>
	<polyline class="st13" points="35.6,701.4 42.6,694.3 42.6,604.7 39.9,602 39.9,565.1 44.6,560.5 94.9,560.5 101.9,553.5 
		101.9,536.9 	"/>
	<polyline class="st13" points="108.9,543.6 108.9,552.3 95.9,565.4 91.5,565.4 	"/>
	<polyline class="st13" points="93.9,574 112.4,555.5 112.4,540.1 	"/>
	<polyline class="st13" points="115.9,545.4 115.9,557.1 102.2,570.8 102.2,590.8 95.9,597.1 65,597.1 55.5,587.6 	"/>
	<polyline class="st13" points="133.9,584.4 138.7,579.6 138.7,566.3 135.5,563.2 135.5,553.2 132.4,550 132.4,539.1 	"/>
	<polyline class="st13" points="137.3,543.1 137.3,551 139.3,553 139.3,559.4 152.7,572.8 164.9,572.8 179.1,587.1 	"/>
	<polyline class="st13" points="145.3,541 145.3,551.3 151.3,557.4 172.3,557.4 200.5,585.6 200.5,698.2 206.7,704.4 206.7,755.3 
		212.3,760.8 212.3,781 223.3,792.1 223.3,797.4 	"/>
	<polyline class="st13" points="150.7,541.4 150.7,548.7 154.7,552.7 173.6,552.7 205.2,584.3 205.2,695.8 211.4,702 211.4,754.6 
		215.6,758.7 215.6,767.5 	"/>
	<polyline class="st13" points="157.5,536.2 165.3,536.2 211.1,582.1 211.1,693.7 227.2,709.8 	"/>
	<polyline class="st13" points="157.5,531.8 166.9,531.8 192.1,557.1 	"/>
	<polyline class="st13" points="158.6,526.7 166.6,526.7 190.1,550.2 195.5,550.2 206.3,561 206.3,567.9 	"/>
	<polyline class="st13" points="158.2,522.3 167.3,522.3 190.4,545.3 200.9,545.3 	"/>
	<polyline class="st13" points="158.2,518.1 169.1,518.1 174.1,523.1 	"/>
	<polyline class="st13" points="158.2,513.1 175.4,513.1 202.8,540.5 206.3,540.5 215.9,550.1 215.9,562.5 	"/>
	<line class="st13" x1="158.6" y1="507.7" x2="167.7" y2="507.7"/>
	<polyline class="st13" points="156.4,502.3 171.8,502.3 179.2,509.7 	"/>
	<polyline class="st13" points="187.9,522.3 192.4,517.7 192.4,498.4 203.4,498.4 	"/>
	<polyline class="st13" points="158.6,493.9 209.5,493.9 218.5,502.9 	"/>
	<polyline class="st13" points="158.2,489.5 213.8,489.5 220.3,483 	"/>
	<polyline class="st13" points="157.5,485.2 198.8,485.2 207.1,477 207.1,436.7 219.6,424.2 	"/>
	<polyline class="st13" points="158.6,481 179.1,481 202.4,457.7 202.4,434.9 	"/>
	<polyline class="st13" points="159.7,476.3 167.2,476.3 171.8,471.6 	"/>
	<path class="st13" d="M147.8,471c-0.2-0.3,9.2-9.2,9.2-9.2h15.6v-33.5l2.8-2.8v-7.7"/>
	<path class="st13" d="M147,468.7c0-0.2,0-6.5,0-6.5l10.3-10.3"/>
	<polyline class="st13" points="140.1,469.7 140.1,458.9 147.4,451.5 	"/>
	<line class="st13" x1="136.6" y1="466.7" x2="136.6" y2="449.1"/>
	<path class="st13" d="M133.1,468.4c0-0.6,0-15.2,0-15.2l-4.2-4.2"/>
	<path class="st13" d="M122.6,468c0-0.6,0-20.7,0-20.7"/>
	<path class="st13" d="M119.2,469.7c0-0.3,0-11.1,0-11.1l-7.6-7.6"/>
	<polyline class="st13" points="115.6,469.2 115.6,462.8 101.8,449 101.8,442.6 105,439.4 108.9,439.4 111.5,436.7 111.5,426.2 
		106.1,420.8 100,420.8 	"/>
	<polyline class="st13" points="99.8,426.6 105.4,426.6 108.5,429.7 108.5,434.9 105.7,437.6 101.1,437.6 97.7,441 97.7,450.1 
		108.7,461.1 108.7,467.8 	"/>
	<polyline class="st13" points="91.3,431.1 91.3,447.8 105.2,461.8 105.2,471.3 	"/>
	<polyline class="st13" points="76.5,430.3 76.5,437.5 85.9,446.9 85.9,450.7 99,463.8 99,472.9 	"/>
	<path class="st13" d="M94.8,466.9c0-0.1,0-5,0-5l-11.7-11.7v-1.1l-4.5-4.5h-6.4l-1.7-1.7h-6.9l-6.7-6.7v-14.4l1.6-1.6h8.8"/>
	<polyline class="st13" points="69.1,414.2 60.4,414.2 55.4,419.2 55.4,437 63.4,445 69.5,445 75.9,451.4 78.4,451.4 92.5,465.5 	
		"/>
	<line class="st13" x1="73.8" y1="387.5" x2="56" y2="405.3"/>
	<polyline class="st13" points="137.6,448.1 137.6,442 134.7,439 134.7,436 130.2,431.6 125.2,431.6 121.1,427.5 121.1,408.6 
		109.7,397.1 109.7,314.9 124,300.6 124,291.5 127.7,287.8 	"/>
	<path class="st13" d="M135.3,340.8c0-0.6,0-9,0-9l-3.1-3.1h-9.8l-4.5-4.5v-4.3"/>
	<polyline class="st13" points="129.3,373.2 129.3,378.5 126.1,381.7 120.2,381.7 118.6,383.3 	"/>
	<polyline class="st13" points="62.9,286.3 62.9,295.7 79.1,311.9 83.6,311.9 88.5,316.8 88.5,325 83.9,329.5 83.9,343 	"/>
	<rect x="45.6" y="279.1" class="st14" width="18.9" height="9.6"/>
	<g>
		<rect x="102.7" y="277" class="st15" width="4.3" height="11.5"/>
		<rect x="110.4" y="277" class="st15" width="4.3" height="11.5"/>
		<rect x="118.1" y="277" class="st15" width="4.3" height="11.5"/>
		<rect x="125.7" y="277" class="st15" width="4.3" height="11.5"/>
		<rect x="133.4" y="277" class="st15" width="4.3" height="11.5"/>
	</g>
	<g>
		<path class="st16" d="M106.8,297.8v-5.5h2.5v5.8c0,2,0.6,2.7,1.7,2.7c1.2,0,1.8-0.7,1.8-2.7v-5.8h2.4v5.5c0,3.5-1.4,5.1-4.2,5.1
			S106.8,301.3,106.8,297.8z"/>
		<path class="st16" d="M116.7,301.4l1.3-1.6c0.7,0.6,1.7,1,2.6,1c0.9,0,1.4-0.4,1.4-0.9c0-0.6-0.6-0.8-1.5-1.2l-1.3-0.6
			c-1.1-0.4-2.1-1.3-2.1-2.8c0-1.7,1.6-3.2,3.8-3.2c1.2,0,2.5,0.5,3.4,1.3l-1.3,1.6c-0.7-0.5-1.4-0.8-2.1-0.8
			c-0.8,0-1.3,0.3-1.3,0.8c0,0.6,0.7,0.8,1.6,1.2l1.3,0.5c1.3,0.5,2.1,1.4,2.1,2.8c0,1.7-1.5,3.3-4,3.3
			C119.1,302.9,117.8,302.4,116.7,301.4z"/>
		<path class="st16" d="M126.3,292.3h3.6c2.2,0,3.9,0.6,3.9,2.6c0,0.9-0.5,1.9-1.4,2.2v0.1c1.1,0.3,1.9,1.1,1.9,2.4
			c0,2.1-1.8,3.1-4.1,3.1h-3.9V292.3z M129.8,296.4c1.1,0,1.5-0.5,1.5-1.2c0-0.8-0.5-1.1-1.5-1.1h-1.1v2.2H129.8z M130,300.8
			c1.2,0,1.8-0.4,1.8-1.3s-0.6-1.2-1.8-1.2h-1.2v2.5H130z"/>
	</g>
	<path class="st17" d="M170.2,373.7h-45.7c-0.5,0-1-0.4-1-1v-33.5c0-0.5,0.4-1,1-1h45.7c0.5,0,1,0.4,1,1v33.5
		C171.1,373.2,170.7,373.7,170.2,373.7z"/>
	<g>
		<rect x="128.6" y="334.1" class="st15" width="1.4" height="4.1"/>
		<rect x="134.6" y="334.1" class="st15" width="1.4" height="4.1"/>
		<rect x="140.6" y="334.1" class="st15" width="1.4" height="4.1"/>
		<rect x="146.6" y="334.1" class="st15" width="1.4" height="4.1"/>
		<rect x="152.6" y="334.1" class="st15" width="1.4" height="4.1"/>
		<rect x="158.6" y="334.1" class="st15" width="1.4" height="4.1"/>
		<rect x="164.6" y="334.1" class="st15" width="1.4" height="4.1"/>
	</g>
	<g>
		<rect x="128.6" y="373.7" class="st15" width="1.4" height="4.1"/>
		<rect x="134.6" y="373.7" class="st15" width="1.4" height="4.1"/>
		<rect x="140.6" y="373.7" class="st15" width="1.4" height="4.1"/>
		<rect x="146.6" y="373.7" class="st15" width="1.4" height="4.1"/>
		<rect x="152.6" y="373.7" class="st15" width="1.4" height="4.1"/>
		<rect x="158.6" y="373.7" class="st15" width="1.4" height="4.1"/>
		<rect x="164.6" y="373.7" class="st15" width="1.4" height="4.1"/>
	</g>
	<g>
		<rect x="61.4" y="342" class="st18" width="39.3" height="48.9"/>
		<path class="st19" d="M81,384.8L81,384.8c-7.6,0-13.7-6.1-13.7-13.7V362c0-7.6,6.1-13.7,13.7-13.7h0c7.6,0,13.7,6.1,13.7,13.7v9.1
			C94.7,378.6,88.6,384.8,81,384.8z"/>
		<path class="st19" d="M61.4,352.3L61.4,352.3l0-10.3h10.3l0,0C71.6,347.7,67.1,352.3,61.4,352.3z"/>
		<path class="st19" d="M71.6,391H61.4v-10.3h0C67.1,380.7,71.6,385.3,71.6,391L71.6,391z"/>
		<path class="st19" d="M100.7,352.3L100.7,352.3c-5.7,0-10.3-4.6-10.3-10.3l0,0h10.3V352.3z"/>
		<path class="st19" d="M100.7,391H90.4v0c0-5.7,4.6-10.3,10.3-10.3h0V391z"/>
	</g>
	<g>
		<rect x="64.9" y="411.5" class="st17" width="34.6" height="22.9"/>
		<g>
			<rect x="60.7" y="412.7" class="st15" width="4.2" height="3.4"/>
			<rect x="60.7" y="418.4" class="st15" width="4.2" height="3.4"/>
			<rect x="60.7" y="424.2" class="st15" width="4.2" height="3.4"/>
			<rect x="60.7" y="429.9" class="st15" width="4.2" height="3.4"/>
		</g>
		<g>
			<rect x="99.5" y="412.7" class="st15" width="4.2" height="3.4"/>
			<rect x="99.5" y="418.4" class="st15" width="4.2" height="3.4"/>
			<rect x="99.5" y="424.2" class="st15" width="4.2" height="3.4"/>
			<rect x="99.5" y="429.9" class="st15" width="4.2" height="3.4"/>
		</g>
	</g>
	<rect x="135.5" y="443" class="st7" width="4.2" height="6.9"/>
	<g>
		<path class="st20" d="M160.4,546.8H81.4c-0.7,0-1.3-0.6-1.3-1.3v-79.1c0-0.7,0.6-1.3,1.3-1.3h79.1c0.7,0,1.3,0.6,1.3,1.3v79.1
			C161.7,546.2,161.1,546.8,160.4,546.8z"/>
		<g>
			<rect x="86.2" y="463.2" class="st15" width="3.1" height="1.9"/>
			<rect x="89.7" y="463.2" class="st15" width="3.1" height="1.9"/>
			<rect x="93.2" y="463.2" class="st15" width="3.1" height="1.9"/>
			<rect x="96.7" y="463.2" class="st15" width="3.1" height="1.9"/>
			<rect x="100.2" y="463.2" class="st15" width="3.1" height="1.9"/>
			<rect x="103.6" y="463.2" class="st15" width="3.1" height="1.9"/>
			<rect x="107.1" y="463.2" class="st15" width="3.1" height="1.9"/>
			<rect x="114.1" y="463.2" class="st15" width="3.1" height="1.9"/>
			<rect x="121.1" y="463.2" class="st15" width="3.1" height="1.9"/>
			<rect x="128" y="463.2" class="st15" width="3.1" height="1.9"/>
			<rect x="138.5" y="463.2" class="st15" width="3.1" height="1.9"/>
			<rect x="142" y="463.2" class="st15" width="3.1" height="1.9"/>
			<rect x="149" y="463.2" class="st15" width="3.1" height="1.9"/>
			<rect x="110.6" y="463.2" class="st15" width="3.1" height="1.9"/>
			<rect x="117.6" y="463.2" class="st15" width="3.1" height="1.9"/>
			<rect x="124.6" y="463.2" class="st15" width="3.1" height="1.9"/>
			<rect x="131.5" y="463.2" class="st15" width="3.1" height="1.9"/>
			<rect x="135" y="463.2" class="st15" width="3.1" height="1.9"/>
			<rect x="145.5" y="463.2" class="st15" width="3.1" height="1.9"/>
			<rect x="152.4" y="463.2" class="st15" width="3.1" height="1.9"/>
		</g>
		<g>
			<rect x="86.4" y="546.8" class="st15" width="3.1" height="1.9"/>
			<rect x="89.9" y="546.8" class="st15" width="3.1" height="1.9"/>
			<rect x="93.4" y="546.8" class="st15" width="3.1" height="1.9"/>
			<rect x="96.9" y="546.8" class="st15" width="3.1" height="1.9"/>
			<rect x="100.4" y="546.8" class="st15" width="3.1" height="1.9"/>
			<rect x="103.8" y="546.8" class="st15" width="3.1" height="1.9"/>
			<rect x="107.3" y="546.8" class="st15" width="3.1" height="1.9"/>
			<rect x="114.3" y="546.8" class="st15" width="3.1" height="1.9"/>
			<rect x="121.3" y="546.8" class="st15" width="3.1" height="1.9"/>
			<rect x="128.2" y="546.8" class="st15" width="3.1" height="1.9"/>
			<rect x="138.7" y="546.8" class="st15" width="3.1" height="1.9"/>
			<rect x="142.2" y="546.8" class="st15" width="3.1" height="1.9"/>
			<rect x="149.1" y="546.8" class="st15" width="3.1" height="1.9"/>
			<rect x="110.8" y="546.8" class="st15" width="3.1" height="1.9"/>
			<rect x="117.8" y="546.8" class="st15" width="3.1" height="1.9"/>
			<rect x="124.7" y="546.8" class="st15" width="3.1" height="1.9"/>
			<rect x="131.7" y="546.8" class="st15" width="3.1" height="1.9"/>
			<rect x="135.2" y="546.8" class="st15" width="3.1" height="1.9"/>
			<rect x="145.7" y="546.8" class="st15" width="3.1" height="1.9"/>
			<rect x="152.6" y="546.8" class="st15" width="3.1" height="1.9"/>
		</g>
		<g>
			
				<rect x="77.5" y="538.1" transform="matrix(6.123234e-17 -1 1 6.123234e-17 -459.9852 618.1655)" class="st15" width="3.1" height="1.9"/>
			
				<rect x="77.5" y="534.6" transform="matrix(6.123234e-17 -1 1 6.123234e-17 -456.5002 614.6804)" class="st15" width="3.1" height="1.9"/>
			
				<rect x="77.5" y="531.1" transform="matrix(6.123234e-17 -1 1 6.123234e-17 -453.0151 611.1954)" class="st15" width="3.1" height="1.9"/>
			
				<rect x="77.5" y="527.7" transform="matrix(6.123234e-17 -1 1 6.123234e-17 -449.5301 607.7103)" class="st15" width="3.1" height="1.9"/>
			
				<rect x="77.5" y="524.2" transform="matrix(6.123234e-17 -1 1 6.123234e-17 -446.045 604.2253)" class="st15" width="3.1" height="1.9"/>
			
				<rect x="77.5" y="520.7" transform="matrix(6.123234e-17 -1 1 6.123234e-17 -442.56 600.7402)" class="st15" width="3.1" height="1.9"/>
			
				<rect x="77.5" y="517.2" transform="matrix(6.123234e-17 -1 1 6.123234e-17 -439.0749 597.2552)" class="st15" width="3.1" height="1.9"/>
			
				<rect x="77.5" y="510.2" transform="matrix(6.123234e-17 -1 1 6.123234e-17 -432.1048 590.2851)" class="st15" width="3.1" height="1.9"/>
			
				<rect x="77.5" y="503.3" transform="matrix(6.123234e-17 -1 1 6.123234e-17 -425.1347 583.315)" class="st15" width="3.1" height="1.9"/>
			
				<rect x="77.5" y="496.3" transform="matrix(6.123234e-17 -1 1 6.123234e-17 -418.1647 576.345)" class="st15" width="3.1" height="1.9"/>
			
				<rect x="77.5" y="485.8" transform="matrix(6.123234e-17 -1 1 6.123234e-17 -407.7095 565.8898)" class="st15" width="3.1" height="1.9"/>
			
				<rect x="77.5" y="482.4" transform="matrix(6.123234e-17 -1 1 6.123234e-17 -404.2245 562.4048)" class="st15" width="3.1" height="1.9"/>
			
				<rect x="77.5" y="475.4" transform="matrix(6.123234e-17 -1 1 6.123234e-17 -397.2544 555.4347)" class="st15" width="3.1" height="1.9"/>
			
				<rect x="77.5" y="513.7" transform="matrix(6.123234e-17 -1 1 6.123234e-17 -435.5899 593.7701)" class="st15" width="3.1" height="1.9"/>
			
				<rect x="77.5" y="506.7" transform="matrix(6.123234e-17 -1 1 6.123234e-17 -428.6198 586.8)" class="st15" width="3.1" height="1.9"/>
			
				<rect x="77.5" y="499.8" transform="matrix(6.123234e-17 -1 1 6.123234e-17 -421.6497 579.83)" class="st15" width="3.1" height="1.9"/>
			
				<rect x="77.5" y="492.8" transform="matrix(6.123234e-17 -1 1 6.123234e-17 -414.6796 572.8599)" class="st15" width="3.1" height="1.9"/>
			
				<rect x="77.5" y="489.3" transform="matrix(6.123234e-17 -1 1 6.123234e-17 -411.1946 569.3749)" class="st15" width="3.1" height="1.9"/>
			
				<rect x="77.5" y="478.9" transform="matrix(6.123234e-17 -1 1 6.123234e-17 -400.7394 558.9197)" class="st15" width="3.1" height="1.9"/>
			
				<rect x="77.5" y="471.9" transform="matrix(6.123234e-17 -1 1 6.123234e-17 -393.7693 551.9496)" class="st15" width="3.1" height="1.9"/>
		</g>
		<g>
			
				<rect x="161.1" y="538.1" transform="matrix(6.123234e-17 -1 1 6.123234e-17 -376.3953 701.7554)" class="st15" width="3.1" height="1.9"/>
			
				<rect x="161.1" y="534.6" transform="matrix(6.123234e-17 -1 1 6.123234e-17 -372.9102 698.2703)" class="st15" width="3.1" height="1.9"/>
			
				<rect x="161.1" y="531.1" transform="matrix(6.123234e-17 -1 1 6.123234e-17 -369.4252 694.7853)" class="st15" width="3.1" height="1.9"/>
			
				<rect x="161.1" y="527.7" transform="matrix(6.123234e-17 -1 1 6.123234e-17 -365.9401 691.3003)" class="st15" width="3.1" height="1.9"/>
			
				<rect x="161.1" y="524.2" transform="matrix(6.123234e-17 -1 1 6.123234e-17 -362.4551 687.8152)" class="st15" width="3.1" height="1.9"/>
			
				<rect x="161.1" y="520.7" transform="matrix(6.123234e-17 -1 1 6.123234e-17 -358.97 684.3302)" class="st15" width="3.1" height="1.9"/>
			
				<rect x="161.1" y="517.2" transform="matrix(6.123234e-17 -1 1 6.123234e-17 -355.485 680.8452)" class="st15" width="3.1" height="1.9"/>
			
				<rect x="161.1" y="510.2" transform="matrix(6.123234e-17 -1 1 6.123234e-17 -348.5149 673.8751)" class="st15" width="3.1" height="1.9"/>
			
				<rect x="161.1" y="503.3" transform="matrix(6.123234e-17 -1 1 6.123234e-17 -341.5448 666.905)" class="st15" width="3.1" height="1.9"/>
			
				<rect x="161.1" y="496.3" transform="matrix(6.123234e-17 -1 1 6.123234e-17 -334.5747 659.9349)" class="st15" width="3.1" height="1.9"/>
			
				<rect x="161.1" y="485.8" transform="matrix(6.123234e-17 -1 1 6.123234e-17 -324.1196 649.4797)" class="st15" width="3.1" height="1.9"/>
			
				<rect x="161.1" y="482.4" transform="matrix(6.123234e-17 -1 1 6.123234e-17 -320.6346 645.9947)" class="st15" width="3.1" height="1.9"/>
			
				<rect x="161.1" y="475.4" transform="matrix(6.123234e-17 -1 1 6.123234e-17 -313.6645 639.0246)" class="st15" width="3.1" height="1.9"/>
			
				<rect x="161.1" y="513.7" transform="matrix(6.123234e-17 -1 1 6.123234e-17 -351.9999 677.3601)" class="st15" width="3.1" height="1.9"/>
			
				<rect x="161.1" y="506.7" transform="matrix(6.123234e-17 -1 1 6.123234e-17 -345.0298 670.39)" class="st15" width="3.1" height="1.9"/>
			
				<rect x="161.1" y="499.8" transform="matrix(6.123234e-17 -1 1 6.123234e-17 -338.0598 663.4199)" class="st15" width="3.1" height="1.9"/>
			
				<rect x="161.1" y="492.8" transform="matrix(6.123234e-17 -1 1 6.123234e-17 -331.0897 656.4498)" class="st15" width="3.1" height="1.9"/>
			
				<rect x="161.1" y="489.3" transform="matrix(6.123234e-17 -1 1 6.123234e-17 -327.6046 652.9648)" class="st15" width="3.1" height="1.9"/>
			
				<rect x="161.1" y="478.9" transform="matrix(6.123234e-17 -1 1 6.123234e-17 -317.1495 642.5096)" class="st15" width="3.1" height="1.9"/>
			
				<rect x="161.1" y="471.9" transform="matrix(6.123234e-17 -1 1 6.123234e-17 -310.1794 635.5396)" class="st15" width="3.1" height="1.9"/>
		</g>
		<circle class="st21" cx="90.2" cy="476.3" r="2.8"/>
	</g>
	<rect x="187.1" y="431" class="st17" width="18.2" height="8.6"/>
	<rect x="189.1" y="439.6" class="st15" width="2.9" height="8.7"/>
	<rect x="200.9" y="439.6" class="st15" width="2.9" height="8.7"/>
	<rect x="194.8" y="422.3" class="st15" width="2.9" height="8.7"/>
	
		<rect x="170.5" y="469" transform="matrix(6.123234e-17 -1 1 6.123234e-17 -299.8424 645.037)" class="st9" width="4.2" height="6.9"/>
	<rect x="189.5" y="500.1" class="st7" width="4.2" height="6.9"/>
	
		<rect x="172.3" y="519.3" transform="matrix(0.7071 -0.7071 0.7071 0.7071 -318.5558 276.4721)" class="st9" width="4.2" height="6.9"/>
	<g>
		<path class="st4" d="M157,581.5c-5.1,0-9.2,4.1-9.2,9.2s4.1,9.2,9.2,9.2s9.2-4.1,9.2-9.2S162.1,581.5,157,581.5z M157,596.4
			c-3.1,0-5.7-2.6-5.7-5.7s2.6-5.7,5.7-5.7c3.1,0,5.7,2.6,5.7,5.7S160.2,596.4,157,596.4z"/>
		<path class="st4" d="M118.7,581.9v17.7h17.7v-17.7H118.7z M127.6,596.4c-3.1,0-5.7-2.6-5.7-5.7s2.6-5.7,5.7-5.7
			c3.1,0,5.7,2.6,5.7,5.7S130.7,596.4,127.6,596.4z"/>
		<path class="st4" d="M186.8,581.5c-5.1,0-9.2,4.1-9.2,9.2s4.1,9.2,9.2,9.2s9.2-4.1,9.2-9.2S191.9,581.5,186.8,581.5z M186.8,596.4
			c-3.1,0-5.7-2.6-5.7-5.7s2.6-5.7,5.7-5.7c3.1,0,5.7,2.6,5.7,5.7S190,596.4,186.8,596.4z"/>
	</g>
	<path class="st4" d="M17.5,560.1H0.3v3.4c2.3,0.9,3.9,3.1,3.9,5.7s-1.6,4.8-3.9,5.7v3.4h17.2c5,0,9-4,9-9S22.4,560.1,17.5,560.1z
		 M15.9,575.3c-3.4,0-6.1-2.7-6.1-6.1s2.7-6.1,6.1-6.1s6.1,2.7,6.1,6.1S19.2,575.3,15.9,575.3z"/>
	<path class="st4" d="M17.5,530.8H0.3v3.4c2.3,0.9,3.9,3.1,3.9,5.7s-1.6,4.8-3.9,5.7v3.4h17.2c5,0,9-4,9-9v0
		C26.5,534.8,22.4,530.8,17.5,530.8z M15.9,545.9c-3.4,0-6.1-2.7-6.1-6.1s2.7-6.1,6.1-6.1s6.1,2.7,6.1,6.1S19.2,545.9,15.9,545.9z"
		/>
	<path class="st4" d="M17.5,501.4H0.3v3.4c2.3,0.9,3.9,3.1,3.9,5.7c0,2.6-1.6,4.8-3.9,5.7v3.4h17.2c5,0,9-4,9-9v0
		C26.5,505.4,22.4,501.4,17.5,501.4z M15.9,516.5c-3.4,0-6.1-2.7-6.1-6.1c0-3.4,2.7-6.1,6.1-6.1s6.1,2.7,6.1,6.1
		C21.9,513.7,19.2,516.5,15.9,516.5z"/>
	<path class="st4" d="M17.5,472H0.3v3.4c2.3,0.9,3.9,3.1,3.9,5.7s-1.6,4.8-3.9,5.7v3.4h17.2c5,0,9-4,9-9S22.4,472,17.5,472z
		 M15.9,487.1c-3.4,0-6.1-2.7-6.1-6.1s2.7-6.1,6.1-6.1s6.1,2.7,6.1,6.1S19.2,487.1,15.9,487.1z"/>
	<path class="st4" d="M17.5,413.2H0.3v3.4c2.3,0.9,3.9,3.1,3.9,5.7s-1.6,4.8-3.9,5.7v3.4h17.2c5,0,9-4,9-9S22.4,413.2,17.5,413.2z
		 M15.9,428.3c-3.4,0-6.1-2.7-6.1-6.1s2.7-6.1,6.1-6.1s6.1,2.7,6.1,6.1S19.2,428.3,15.9,428.3z"/>
	<path class="st4" d="M17.5,383.8H0.3v3.4c2.3,0.9,3.9,3.1,3.9,5.7s-1.6,4.8-3.9,5.7v3.4h17.2c5,0,9-4,9-9S22.4,383.8,17.5,383.8z
		 M15.9,398.9c-3.4,0-6.1-2.7-6.1-6.1s2.7-6.1,6.1-6.1s6.1,2.7,6.1,6.1S19.2,398.9,15.9,398.9z"/>
	<path class="st4" d="M17.5,354.4H0.3v3.4c2.3,0.9,3.9,3.1,3.9,5.7s-1.6,4.8-3.9,5.7v3.4h17.2c5,0,9-4,9-9S22.4,354.4,17.5,354.4z
		 M15.9,369.5c-3.4,0-6.1-2.7-6.1-6.1s2.7-6.1,6.1-6.1s6.1,2.7,6.1,6.1S19.2,369.5,15.9,369.5z"/>
	<path class="st4" d="M17.5,325H0.3v3.4c2.3,0.9,3.9,3.1,3.9,5.7s-1.6,4.8-3.9,5.7v3.4h17.2c5,0,9-4,9-9S22.4,325,17.5,325z
		 M15.9,340.1c-3.4,0-6.1-2.7-6.1-6.1s2.7-6.1,6.1-6.1s6.1,2.7,6.1,6.1S19.2,340.1,15.9,340.1z"/>
	<path class="st4" d="M17.5,266.2H0.3v3.4c2.3,0.9,3.9,3.1,3.9,5.7s-1.6,4.8-3.9,5.7v3.4h17.2c5,0,9-4,9-9v0
		C26.5,270.2,22.4,266.2,17.5,266.2z M15.9,281.3c-3.4,0-6.1-2.7-6.1-6.1s2.7-6.1,6.1-6.1s6.1,2.7,6.1,6.1S19.2,281.3,15.9,281.3z"
		/>
	<path class="st4" d="M17.5,236.8H0.3v3.4c2.3,0.9,3.9,3.1,3.9,5.7s-1.6,4.8-3.9,5.7v3.4h17.2c5,0,9-4,9-9S22.4,236.8,17.5,236.8z
		 M15.9,251.9c-3.4,0-6.1-2.7-6.1-6.1s2.7-6.1,6.1-6.1s6.1,2.7,6.1,6.1S19.2,251.9,15.9,251.9z"/>
	<path class="st4" d="M17.5,707.1H0.3v3.4c2.3,0.9,3.9,3.1,3.9,5.7s-1.6,4.8-3.9,5.7v3.4h17.2c5,0,9-4,9-9S22.4,707.1,17.5,707.1z
		 M15.9,722.2c-3.4,0-6.1-2.7-6.1-6.1s2.7-6.1,6.1-6.1s6.1,2.7,6.1,6.1S19.2,722.2,15.9,722.2z"/>
	<path class="st4" d="M239.5,804.3c0-2.6,1.6-4.8,3.9-5.7v-3.4h-17.2c-5,0-9,4-9,9s4,9,9,9h17.2V810
		C241.2,809.1,239.5,806.9,239.5,804.3z M227.8,810.4c-3.4,0-6.1-2.7-6.1-6.1s2.7-6.1,6.1-6.1s6.1,2.7,6.1,6.1
		S231.2,810.4,227.8,810.4z"/>
	<path class="st4" d="M239.5,716.1c0-2.6,1.6-4.8,3.9-5.7v-3.4h-17.2c-5,0-9,4-9,9s4,9,9,9h17.2v-3.4
		C241.2,720.9,239.5,718.7,239.5,716.1z M227.8,722.2c-3.4,0-6.1-2.7-6.1-6.1s2.7-6.1,6.1-6.1s6.1,2.7,6.1,6.1
		S231.2,722.2,227.8,722.2z"/>
	<path class="st4" d="M239.5,481c0-2.6,1.6-4.8,3.9-5.7V472h-17.2c-5,0-9,4-9,9s4,9,9,9h17.2v-3.4
		C241.2,485.8,239.5,483.6,239.5,481z M227.8,487.1c-3.4,0-6.1-2.7-6.1-6.1s2.7-6.1,6.1-6.1s6.1,2.7,6.1,6.1
		S231.2,487.1,227.8,487.1z"/>
	
		<rect x="90" y="575.1" transform="matrix(6.123234e-17 -1 1 6.123234e-17 -483.626 670.2092)" class="st12" width="6.7" height="3.7"/>
	<g>
		<path class="st22" d="M82.2,594.4H50.4c-1.2,0-2.2-1-2.2-2.2v-23.7c0-1.2,1-2.2,2.2-2.2h31.8c1.2,0,2.2,1,2.2,2.2v23.7
			C84.4,593.4,83.4,594.4,82.2,594.4z"/>
		<path class="st23" d="M79.9,591.9H52.6c-0.8,0-1.4-0.6-1.4-1.4v-20.4c0-0.8,0.6-1.4,1.4-1.4h27.3c0.8,0,1.4,0.6,1.4,1.4v20.4
			C81.3,591.3,80.7,591.9,79.9,591.9z"/>
	</g>
	
		<rect x="90" y="595" transform="matrix(6.123234e-17 -1 1 6.123234e-17 -503.5604 690.1436)" class="st12" width="6.7" height="3.7"/>
	<rect x="100.1" y="579.2" class="st7" width="4.2" height="6.9"/>
	<g>
		<path class="st16" d="M42.3,399.3v-3.6c0-2.2,0.6-3.9,2.6-3.9c0.9,0,1.9,0.5,2.2,1.4h0.1c0.3-1.1,1.1-1.9,2.4-1.9
			c2.1,0,3.1,1.8,3.1,4.1v3.9H42.3z M46.4,395.8c0-1.1-0.5-1.5-1.2-1.5c-0.8,0-1.1,0.5-1.1,1.5v1.1h2.2V395.8z M50.8,395.6
			c0-1.2-0.4-1.8-1.3-1.8s-1.2,0.6-1.2,1.8v1.2h2.5V395.6z"/>
		<path class="st16" d="M47.4,390.1c-3.4,0-5.4-1.9-5.4-4.8s2-4.8,5.4-4.8c3.4,0,5.4,1.9,5.4,4.8S50.8,390.1,47.4,390.1z
			 M47.4,383.1c-2,0-3.2,0.8-3.2,2.2c0,1.4,1.2,2.2,3.2,2.2c2,0,3.3-0.9,3.3-2.2C50.7,384,49.4,383.1,47.4,383.1z"/>
		<path class="st16" d="M47.4,379.1c-3.4,0-5.4-1.9-5.4-4.8s2-4.8,5.4-4.8c3.4,0,5.4,1.9,5.4,4.8S50.8,379.1,47.4,379.1z
			 M47.4,372.1c-2,0-3.2,0.8-3.2,2.2c0,1.4,1.2,2.2,3.2,2.2c2,0,3.3-0.9,3.3-2.2C50.7,373,49.4,372.1,47.4,372.1z"/>
		<path class="st16" d="M44.3,366.1v2.8h-2.1v-8.1h2.1v2.8h8.3v2.5H44.3z"/>
		<path class="st16" d="M51.3,360.2l-1.6-1.3c0.6-0.7,1-1.7,1-2.6c0-0.9-0.4-1.4-0.9-1.4c-0.6,0-0.8,0.6-1.2,1.5l-0.6,1.3
			c-0.4,1.1-1.3,2.1-2.8,2.1c-1.7,0-3.2-1.6-3.2-3.8c0-1.2,0.5-2.5,1.3-3.4l1.6,1.3c-0.5,0.7-0.8,1.4-0.8,2.1c0,0.8,0.3,1.3,0.8,1.3
			c0.6,0,0.8-0.7,1.2-1.6l0.5-1.3c0.5-1.3,1.4-2.1,2.8-2.1c1.7,0,3.3,1.5,3.3,4C52.9,357.7,52.4,359.1,51.3,360.2z"/>
		<path class="st16" d="M42.3,350.6V344h2.1v4.1h2v-3.5h2.1v3.5h2.2v-4.3h2.1v6.8H42.3z"/>
		<path class="st16" d="M42.3,341.8v-2.5h8.3v-4h2.1v6.5H42.3z"/>
	</g>
	<g>
		<path class="st16" d="M141.4,556.5h3c3.2,0,5.3,1.6,5.3,5.2c0,3.6-2.1,5.2-5.1,5.2h-3.1V556.5z M144.3,564.9
			c1.7,0,2.9-0.8,2.9-3.2c0-2.5-1.2-3.2-2.9-3.2h-0.4v6.4H144.3z"/>
		<path class="st16" d="M151.6,556.5h6.6v2.1h-4.1v2h3.5v2.1h-3.5v2.2h4.3v2.1h-6.8V556.5z"/>
		<path class="st16" d="M160.4,556.5h3.6c2.2,0,3.9,0.6,3.9,2.6c0,0.9-0.5,1.9-1.4,2.2v0.1c1.1,0.3,1.9,1.1,1.9,2.4
			c0,2.1-1.8,3.1-4.1,3.1h-3.9V556.5z M164,560.7c1.1,0,1.5-0.5,1.5-1.2c0-0.8-0.5-1.1-1.5-1.1h-1.1v2.2H164z M164.2,565
			c1.2,0,1.8-0.4,1.8-1.3c0-0.9-0.6-1.2-1.8-1.2h-1.2v2.5H164.2z"/>
		<path class="st16" d="M170.1,562v-5.5h2.5v5.8c0,2,0.6,2.7,1.7,2.7c1.2,0,1.8-0.7,1.8-2.7v-5.8h2.4v5.5c0,3.5-1.4,5.1-4.2,5.1
			S170.1,565.6,170.1,562z"/>
		<path class="st16" d="M180.3,561.8c0-3.5,2.3-5.5,5.1-5.5c1.5,0,2.6,0.6,3.3,1.4l-1.3,1.5c-0.5-0.5-1.1-0.7-1.9-0.7
			c-1.5,0-2.7,1.2-2.7,3.2c0,2.1,0.9,3.3,2.9,3.3c0.4,0,0.8-0.1,1-0.3V563h-1.7v-2h3.9v4.9c-0.7,0.7-2,1.3-3.5,1.3
			C182.6,567.1,180.3,565.3,180.3,561.8z"/>
	</g>
	<rect x="114.2" y="577.9" class="st24" width="86.4" height="25.6"/>
	<g>
		<path class="st16" d="M40.1,292.3h2.5v8.3h4v2.1h-6.5V292.3z"/>
		<path class="st16" d="M48.4,292.3H55v2.1h-4.1v2h3.5v2.1h-3.5v2.2h4.3v2.1h-6.8V292.3z"/>
		<path class="st16" d="M57.2,292.3h3c3.2,0,5.3,1.6,5.3,5.2c0,3.6-2.1,5.2-5.1,5.2h-3.1V292.3z M60.1,300.7c1.7,0,2.9-0.8,2.9-3.2
			c0-2.5-1.2-3.2-2.9-3.2h-0.4v6.4H60.1z"/>
	</g>
	<g>
		<rect x="143.7" y="441.8" class="st8" width="5.4" height="10.6"/>
		<rect x="143.7" y="444.1" class="st9" width="5.4" height="6"/>
	</g>
	<g>
		<rect x="154.3" y="441.8" class="st8" width="5.4" height="10.6"/>
		<rect x="154.3" y="444.1" class="st9" width="5.4" height="6"/>
	</g>
	<rect x="127.1" y="443" class="st7" width="4.2" height="6.9"/>
	
		<rect x="68.6" y="448.2" transform="matrix(6.123234e-17 -1 1 6.123234e-17 -380.8508 522.3224)" class="st7" width="4.2" height="6.9"/>
	<rect x="120.5" y="443" class="st9" width="4.2" height="6.9"/>
	<rect x="110.4" y="443" class="st9" width="4.2" height="6.9"/>
	<path class="st4" d="M239.5,422.2c0-2.6,1.6-4.8,3.9-5.7v-3.4h-17.2c-5,0-9,4-9,9s4,9,9,9h17.2v-3.4
		C241.2,427,239.5,424.8,239.5,422.2z M227.8,428.3c-3.4,0-6.1-2.7-6.1-6.1s2.7-6.1,6.1-6.1s6.1,2.7,6.1,6.1
		S231.2,428.3,227.8,428.3z"/>
	<g>
		
			<rect x="169.4" y="414.3" transform="matrix(-1.836970e-16 1 -1 -1.836970e-16 592.4385 241.6755)" class="st8" width="11.9" height="5.6"/>
		
			<rect x="172.1" y="414.3" transform="matrix(-1.836970e-16 1 -1 -1.836970e-16 592.4385 241.6755)" class="st10" width="6.6" height="5.6"/>
	</g>
</g>
<sodipodi:namedview  bordercolor="#666666" borderopacity="1" gridtolerance="10" guidetolerance="10" id="namedview73" inkscape:current-layer="Ebene_1" inkscape:cx="232.91016" inkscape:cy="411.06512" inkscape:pageopacity="0" inkscape:pageshadow="2" inkscape:window-height="1017" inkscape:window-maximized="1" inkscape:window-width="1920" inkscape:window-x="-8" inkscape:window-y="-8" inkscape:zoom="0.28705914" objecttolerance="10" pagecolor="#ffffff" showgrid="false">
	</sodipodi:namedview>
<circle id="circle281" class="st25" cx="232.1" cy="304.7" r="11.6"/>
<circle id="circle281-2" class="st26" cx="232.1" cy="363.4" r="11.6"/>
<circle id="circle281-3" class="st27" cx="232.1" cy="510.5" r="11.6"/>
<rect id="rect7" x="232.1" y="300.1" class="st25" width="113.2" height="9.1"/>
<rect id="rect9" x="232.1" y="358.9" class="st26" width="144" height="9.1"/>
<rect id="rect853" x="232.1" y="505.9" class="st28" width="174.8" height="9.1"/>
<g id="layer1">
	<rect id="rect815" x="283.7" y="17.8" class="st29" width="176.7" height="237.5"/>
	<rect id="rect821" x="325.5" y="216.6" class="st16" width="91.9" height="31.6"/>
	<path id="rect825" class="st30" d="M331.5,218.4h18.4c3.2,0,5.8,2.6,5.8,5.8v16.2c0,3.2-2.6,5.8-5.8,5.8h-18.4
		c-3.2,0-5.8-2.6-5.8-5.8v-16.2C325.7,221,328.3,218.4,331.5,218.4z"/>
	<rect id="rect831" x="308.5" y="150.5" class="st16" width="125.8" height="31.6"/>
	<rect id="rect833" x="308.5" y="117.5" class="st16" width="125.8" height="31.6"/>
	<rect id="rect837" x="308.5" y="84.4" class="st16" width="125.8" height="31.6"/>
	<path id="rect872" class="st30" d="M392.9,218.4h18.4c3.2,0,5.8,2.6,5.8,5.8v16.2c0,3.2-2.6,5.8-5.8,5.8h-18.4
		c-3.2,0-5.8-2.6-5.8-5.8v-16.2C387.1,221,389.7,218.4,392.9,218.4z"/>
	<path id="rect874" class="st30" d="M361.5,218.4h19.9c2.8,0,5.1,2.3,5.1,5.1v17.7c0,2.8-2.3,5.1-5.1,5.1h-19.9
		c-2.8,0-5.1-2.3-5.1-5.1v-17.7C356.4,220.6,358.7,218.4,361.5,218.4z"/>
	<rect id="rect892" x="310.3" y="151.5" class="st31" width="123.1" height="29.2"/>
	<path id="rect836" class="st32" d="M324.9,151.5h7.5c8.1,0,14.6,6.5,14.6,14.6l0,0c0,8.1-6.5,14.6-14.6,14.6h-7.5
		c-8.1,0-14.6-6.5-14.6-14.6l0,0C310.3,158,316.8,151.5,324.9,151.5z"/>
	<rect id="rect850" x="349.4" y="151.5" class="st32" width="36.7" height="29.2"/>
	<rect id="rect892-7" x="309.9" y="118.6" class="st31" width="123.1" height="29.2"/>
	<rect id="rect892-72" x="309.8" y="85.8" class="st31" width="123.1" height="29.2"/>
	<path id="rect836-7" class="st32" d="M324.5,118.8h7.5c8,0,14.5,6.5,14.5,14.5l0,0l0,0c0,8-6.5,14.5-14.5,14.5l0,0h-7.5
		c-8,0-14.5-6.5-14.5-14.5l0,0C310,125.3,316.5,118.8,324.5,118.8C324.5,118.8,324.5,118.8,324.5,118.8z"/>
	<path id="rect836-6" class="st32" d="M363.7,118.8h7.5c8,0,14.5,6.5,14.5,14.5v0l0,0c0,8-6.5,14.5-14.5,14.5l0,0h-7.5
		c-8,0-14.5-6.5-14.5-14.5l0,0C349.2,125.3,355.7,118.8,363.7,118.8z"/>
	<path id="rect939" class="st32" d="M363.9,85.5h7.5c8.1,0,14.6,6.5,14.6,14.6l0,0c0,8.1-6.5,14.6-14.6,14.6h-7.5
		c-8.1,0-14.6-6.5-14.6-14.6l0,0C349.3,92,355.8,85.5,363.9,85.5z"/>
	<path id="rect941" class="st32" d="M324.3,85.5h7.5c8.1,0,14.6,6.5,14.6,14.6l0,0c0,8.1-6.5,14.6-14.6,14.6h-7.5
		c-8.1,0-14.6-6.5-14.6-14.6l0,0C309.7,92,316.2,85.5,324.3,85.5z"/>
	<rect id="rect943" x="392" y="119.5" class="st32" width="40.5" height="27.5"/>
	<rect id="rect945" x="392" y="86.6" class="st32" width="40.5" height="27.5"/>
	<rect id="rect947" x="339" y="233.5" class="st33" width="3.3" height="58"/>
	<rect id="rect949" x="369.9" y="233.5" class="st33" width="3.3" height="58"/>
	<rect id="rect951" x="400.4" y="233.5" class="st33" width="3.3" height="58"/>
	<ellipse id="path1456" class="st34" cx="308.5" cy="67.3" rx="16.1" ry="15.8"/>
	<ellipse id="ellipse1458" class="st34" cx="434.2" cy="67.3" rx="16.1" ry="15.8"/>
	<ellipse id="path1460" class="st35" cx="308.5" cy="67.2" rx="14.5" ry="14.2"/>
	<ellipse id="ellipse1464" class="st35" cx="434.2" cy="67.2" rx="14.5" ry="14.2"/>
	<circle id="circle1504" class="st35" cx="328.4" cy="166.1" r="13.7"/>
	<circle id="circle1510" class="st35" cx="367.4" cy="166.1" r="13.7"/>
	<circle id="circle77" class="st35" cx="328.2" cy="100.1" r="13.7"/>
	<circle id="circle79" class="st35" cx="367.4" cy="100.1" r="13.7"/>
	<circle id="circle81" class="st35" cx="412.2" cy="100.3" r="11.8"/>
	<path id="path31-1" class="st16" d="M333.9,36.3c1.1,0,1.2,0,1.4-0.2c0.1-0.1,0.3-0.2,0.3-0.3c0.1-0.2,0.1-0.3,0.1-2.6l0-2.4l2.3,0
		l2.3,0v3c0,3.3,0,3.6-0.4,4.4c-0.4,1.1-1.3,1.8-2.4,1.9c-0.7,0.1-1.4,0.1-2.1,0.1c-0.9,0-1.9,0-2.3-0.1l-0.6-0.1l0-1.9l0-1.9
		L333.9,36.3L333.9,36.3z M356.1,42.9c19.9,0,24.8,0,24,0.1l-0.1,0l0.1,0.1c0.1,0,0.1,0.1-0.1,0.1c-0.1,0-0.1,0,0.2,0.1l0.4,0
		l-0.4,0c-0.2,0-0.4,0-0.3,0c0.1,0,0.1,0.1,0.1,0.6c0,0.5,0,0.5,0.2,0.6c0.1,0,0.1,0-0.1,0c-0.1,0-0.3,0-0.3,0.1
		c0,0-7.9,0.1-23.6,0.1h-23.6v-1.7L356.1,42.9z M338.2,24.8h2.4v3.8h-4.7v-3.8H338.2z M342.9,31.8c0.1-1,0.4-2,0.9-2.9
		c0.1-0.2,0.2-0.4,0.3-0.6c0.1-0.1,0.2-0.2,0.3-0.4c0.3-0.4,0.6-0.8,0.9-1.1c0,0,0.1-0.1,0.1-0.1c0.3-0.4,0.7-0.7,1-0.9
		c0.5-0.4,1.1-0.7,1.8-0.9c0.9-0.4,1.9-0.5,2.8-0.4c0.6,0,1.1,0.1,1.7,0.2c0.3,0.1,0.8,0.2,0.9,0.3c0.1,0.1,0.2,0.1,0.4,0.1
		c0.2,0.1,0.4,0.2,0.6,0.3c1.4,0.9,2.5,2.2,3.3,3.7c0.9,1.9,1,4,0.3,6c-0.2,0.6-0.5,1.2-0.9,1.8c-0.4,0.6-0.8,1.2-1.4,1.6
		c-0.9,1-2.1,1.6-3.3,1.9c-1,0.2-2,0.3-3,0.2c-1.2-0.2-2.2-0.7-3.2-1.4c-0.4-0.3-0.7-0.6-1-0.9c-0.1-0.1-0.2-0.2-0.3-0.4
		c-1-1.1-1.7-2.5-2-3.9C343,33.4,342.9,32.6,342.9,31.8z M347.4,33.8c0.2,0.9,0.7,1.7,1.4,2.3c0.8,0.7,1.8,0.9,2.8,0.6
		c1.2-0.5,2.2-1.6,2.5-2.9c0.2-0.9,0.2-1.8,0-2.6c-0.3-1-0.8-1.8-1.6-2.4c-0.3-0.2-0.6-0.3-0.9-0.4c-0.7-0.2-1.5-0.1-2.2,0.2
		c-0.6,0.4-1.2,1-1.5,1.7C347.3,31.4,347.1,32.6,347.4,33.8z M360.7,24.8c0,0,1.1,0,2.4,0l2.3,0l0,2.1c0,2,0,2.1,0.1,2.5
		c0.4,0.9,1.4,1.4,2.4,1.1c0.5-0.1,0.8-0.5,1-0.9l0.2-0.4l0-2.2l0-2.2h4.7l0,2.5c0.1,1,0,2-0.2,3c-0.2,0.9-0.6,1.7-1.2,2.4
		c-0.1,0.1-0.2,0.2-0.2,0.4c-0.3,0.4-0.7,0.7-1.1,1c-0.4,0.3-0.9,0.6-1.4,0.7c-0.1,0-0.4,0.1-0.7,0.2c-0.5,0.2-1.1,0.2-1.7,0.2
		c-0.6,0.1-1.2,0-1.8-0.2c-0.7-0.1-1.3-0.4-1.9-0.8c-0.7-0.5-1.3-1.1-1.8-1.8c-0.6-0.9-1-1.9-1.1-3
		C360.6,27.8,360.6,26.3,360.7,24.8L360.7,24.8z M367.2,36.4h3.8v4h-7.7v-4H367.2z M373.8,21.8c0,0,0.1-0.1,0.1-0.2
		c0-0.2,0-0.2,0.3-0.3c0.2,0,6.7,0,14.5,0l14.2,0l0,0.8l0,0.8h-14.4c-7.9,0-14.5,0-14.5,0c-0.1,0-0.1-0.1-0.1-0.6
		C373.7,22,373.8,21.8,373.8,21.8L373.8,21.8z M380.3,31.2h4.9v3.9h-9.8v-3.9L380.3,31.2z M389.1,24.8h2.4v3.8h-4.7v-3.8L389.1,24.8
		z M389.1,30.6h2.4v9.9h-4.7v-9.9L389.1,30.6z M398.5,24.8h4.9v3.8h-9.9v-3.8L398.5,24.8z M394.3,30.9c0,0,1.1,0,2.3,0l2.3,0l0,2.3
		c0,3.2-0.1,3,2.3,3l1.5,0v4l-0.6,0.1c-1.4,0.1-2.8,0.1-4.3,0c-1-0.1-1.9-0.5-2.6-1.2c-0.6-0.7-0.9-1.6-1-2.5
		C394.3,35.9,394.3,30.9,394.3,30.9L394.3,30.9z M406.1,22.9c0.1-0.4,0.3-0.8,0.6-1c0.9-0.9,2.4-1,3.4-0.3c0.4,0.2,0.7,0.6,0.8,1
		c0.2,0.3,0.2,0.7,0.2,1c0,0.4,0,0.7-0.2,1.1c-0.4,0.8-1.2,1.4-2.1,1.4c-0.8,0.1-1.6-0.2-2.1-0.8C406.1,24.6,405.9,23.7,406.1,22.9
		L406.1,22.9z M406.6,24.5c0.3,0.6,0.9,1,1.6,1.2c0.7,0.2,1.5,0,2-0.5c0.2-0.2,0.4-0.4,0.5-0.6c0.2-0.3,0.2-0.6,0.2-1
		c0-0.3,0-0.7-0.2-1c-0.1-0.3-0.3-0.5-0.6-0.7c-0.2-0.2-0.5-0.3-0.7-0.4c-1.1-0.3-2.3,0.2-2.8,1.3C406.4,23.4,406.4,24,406.6,24.5
		L406.6,24.5z M408.4,22.1c0.3,0,0.7,0,1,0.1c0.4,0.3,0.5,0.8,0.3,1.2c-0.1,0.1-0.2,0.2-0.3,0.2l-0.2,0.1l0.2,0.2
		c0.2,0.2,0.3,0.4,0.4,0.6c0.1,0.1,0.2,0.3,0.3,0.4c0.1,0.1,0,0.2-0.2,0.2l-0.3,0l-0.4-0.6c-0.4-0.6-0.5-0.7-1-0.7h-0.3V25l-0.2,0
		l-0.2,0l0-1.5l0-1.5L408.4,22.1z M408.5,23.3c0.5,0,0.6,0,0.7-0.1c0.3-0.3,0.2-0.7-0.4-0.8c-0.3,0-0.6,0-0.9,0c0,0.1,0,0.3,0,0.4
		v0.4L408.5,23.3z"/>
	<rect id="rect92" x="392" y="152.5" class="st32" width="40.5" height="27.5"/>
	<circle id="circle1514" class="st35" cx="412.2" cy="166.2" r="11.8"/>
	<circle id="circle82" class="st35" cx="328.2" cy="133.4" r="13.7"/>
	<rect id="rect105" x="411.8" y="127.4" class="st33" width="3.3" height="9.8"/>
	<rect id="rect107" x="365.9" y="127.4" class="st33" width="3.3" height="9.8"/>
	<rect id="rect103" x="359.2" y="0" class="st36" width="66.7" height="133.4"/>
	<g id="text90">
		<g class="st37">
			<path class="st16" d="M457.7,139.6c0.1,0,0.1,0,0.2,0s0.1,0.1,0.1,0.2s0.1,0.2,0.1,0.3c0,0.1,0,0.3,0,0.5c0,0.3,0,0.5,0,0.7
				s-0.1,0.3-0.1,0.4c-0.1,0.1-0.1,0.2-0.2,0.2l-7.9,5.8h7.9c0.1,0,0.1,0,0.2,0s0.1,0.1,0.1,0.2s0.1,0.2,0.1,0.3c0,0.1,0,0.3,0,0.5
				c0,0.2,0,0.4,0,0.5c0,0.1,0,0.2-0.1,0.3s-0.1,0.1-0.1,0.2c-0.1,0-0.1,0-0.2,0h-15.1c-0.1,0-0.1,0-0.2,0c0,0-0.1-0.1-0.1-0.2
				s-0.1-0.2-0.1-0.3c0-0.1,0-0.3,0-0.5c0-0.2,0-0.4,0-0.5s0-0.2,0.1-0.3s0.1-0.1,0.1-0.2s0.1,0,0.2,0h7l-7-5.6
				c-0.1,0-0.1-0.1-0.2-0.2c0-0.1-0.1-0.1-0.1-0.2s-0.1-0.2-0.1-0.3c0-0.1,0-0.3,0-0.5s0-0.4,0-0.5s0-0.2,0.1-0.3s0.1-0.1,0.1-0.2
				s0.1,0,0.2,0c0.1,0,0.2,0,0.3,0.1c0.1,0.1,0.3,0.2,0.4,0.3l6.2,5.2l7.5-5.6c0.2-0.1,0.4-0.2,0.4-0.2S457.6,139.6,457.7,139.6z"/>
		</g>
		<g class="st37">
			<path class="st16" d="M451.9,131.9h5.8c0.1,0,0.1,0,0.2,0c0,0,0.1,0.1,0.1,0.2s0.1,0.2,0.1,0.3c0,0.1,0,0.3,0,0.5
				c0,0.2,0,0.4,0,0.5c0,0.1,0,0.2-0.1,0.3c0,0.1-0.1,0.1-0.1,0.2c0,0-0.1,0-0.2,0h-5.8l-8.9,4.5c-0.2,0.1-0.3,0.1-0.4,0.2
				c-0.1,0-0.2,0-0.2-0.1s-0.1-0.2-0.1-0.3c0-0.2,0-0.4,0-0.6c0-0.2,0-0.4,0-0.6c0-0.1,0-0.3,0.1-0.4c0-0.1,0.1-0.2,0.1-0.2
				c0.1,0,0.1-0.1,0.2-0.1l4.5-2.2c0.4-0.2,0.9-0.4,1.3-0.6c0.5-0.2,0.9-0.4,1.4-0.6v0c-0.5-0.2-0.9-0.4-1.4-0.6
				c-0.5-0.2-0.9-0.4-1.4-0.6l-4.5-2.2c-0.1,0-0.2-0.1-0.2-0.1c-0.1,0-0.1-0.1-0.1-0.2s-0.1-0.2-0.1-0.3c0-0.1,0-0.3,0-0.5
				c0-0.3,0-0.5,0-0.7s0.1-0.3,0.1-0.3s0.1-0.1,0.2-0.1s0.2,0.1,0.4,0.2L451.9,131.9z"/>
		</g>
		<g class="st37">
			<path class="st16" d="M451.9,121.5c0.3,0,0.5,0,0.7,0.1c0.1,0.1,0.2,0.2,0.2,0.3v5.1c0,0.1-0.1,0.3-0.2,0.3
				c-0.1,0.1-0.3,0.1-0.7,0.1c-0.3,0-0.5,0-0.6-0.1c-0.1-0.1-0.2-0.2-0.2-0.3v-5.1c0-0.1,0-0.1,0-0.2s0.1-0.1,0.1-0.1
				s0.2-0.1,0.3-0.1C451.6,121.5,451.7,121.5,451.9,121.5z"/>
			<path class="st16" d="M450.1,108.9c1.2,0,2.3,0.1,3.3,0.3c1,0.2,1.9,0.5,2.6,0.9c0.7,0.4,1.3,1,1.7,1.7c0.4,0.7,0.6,1.6,0.6,2.6
				c0,1-0.2,1.8-0.5,2.5c-0.4,0.7-0.9,1.2-1.6,1.6c-0.7,0.4-1.5,0.7-2.5,0.9c-1,0.2-2.2,0.3-3.4,0.3c-1.2,0-2.3-0.1-3.3-0.3
				c-1-0.2-1.9-0.5-2.6-0.9c-0.7-0.4-1.3-1-1.7-1.7c-0.4-0.7-0.6-1.6-0.6-2.6c0-1,0.2-1.8,0.5-2.5c0.4-0.7,0.9-1.2,1.6-1.6
				c0.7-0.4,1.5-0.7,2.5-0.9C447.7,109,448.8,108.9,450.1,108.9z M450.3,111.1c-0.8,0-1.5,0-2.1,0.1s-1.2,0.1-1.7,0.2
				s-0.9,0.3-1.2,0.4s-0.6,0.4-0.9,0.6c-0.2,0.2-0.4,0.5-0.5,0.8c-0.1,0.3-0.2,0.7-0.2,1.1c0,0.7,0.2,1.2,0.5,1.7s0.8,0.8,1.3,1
				c0.6,0.2,1.2,0.4,2,0.5c0.8,0.1,1.6,0.1,2.5,0.1c1.2,0,2.2-0.1,3-0.2c0.8-0.1,1.5-0.3,2-0.6c0.5-0.3,0.9-0.6,1.1-1
				c0.2-0.4,0.4-0.9,0.4-1.5c0-0.5-0.1-0.9-0.2-1.2c-0.1-0.3-0.4-0.6-0.6-0.9c-0.3-0.2-0.6-0.5-1-0.6s-0.8-0.3-1.3-0.4
				c-0.5-0.1-1-0.2-1.5-0.2C451.4,111.1,450.9,111.1,450.3,111.1z"/>
			<path class="st16" d="M457.2,96.8c0.2,0,0.3,0,0.4,0s0.2,0.1,0.3,0.1c0.1,0,0.1,0.1,0.1,0.1c0,0.1,0,0.1,0,0.2v8.2
				c0,0.1,0,0.1,0,0.2c0,0-0.1,0.1-0.1,0.1c-0.1,0-0.1,0.1-0.3,0.1c-0.1,0-0.2,0-0.4,0c-0.1,0-0.3,0-0.4,0c-0.1,0-0.2-0.1-0.3-0.1
				c-0.1,0-0.1-0.1-0.2-0.1c0-0.1-0.1-0.1-0.1-0.2v-3.3h-12l1.8,3c0.1,0.2,0.1,0.3,0.1,0.4c0,0.1,0,0.2-0.1,0.2s-0.1,0.1-0.3,0.1
				c-0.1,0-0.3,0-0.5,0c-0.1,0-0.3,0-0.4,0c-0.1,0-0.2,0-0.2-0.1c-0.1,0-0.1-0.1-0.2-0.1c0,0-0.1-0.1-0.1-0.2l-2.3-3.6
				c0,0,0-0.1-0.1-0.1c0,0,0-0.1,0-0.2c0-0.1,0-0.2,0-0.3c0-0.1,0-0.2,0-0.4c0-0.2,0-0.4,0-0.5c0-0.1,0-0.2,0.1-0.3s0.1-0.1,0.1-0.1
				s0.1,0,0.1,0h13.8v-2.8c0-0.1,0-0.1,0.1-0.2c0-0.1,0.1-0.1,0.2-0.1c0.1,0,0.2-0.1,0.3-0.1S457.1,96.8,457.2,96.8z"/>
			<path class="st16" d="M443.2,84c0.1,0,0.3,0,0.4,0c0.1,0,0.2,0,0.3,0c0.1,0,0.2,0,0.3,0.1c0.1,0,0.2,0.1,0.3,0.1l13.1,5.7
				c0.1,0,0.2,0.1,0.2,0.2s0.1,0.1,0.1,0.2c0,0.1,0.1,0.2,0.1,0.4c0,0.1,0,0.3,0,0.5c0,0.3,0,0.5,0,0.6s-0.1,0.3-0.1,0.3
				c-0.1,0.1-0.1,0.1-0.2,0.1s-0.2,0-0.3-0.1l-13.4-6v7.6c0,0.2-0.1,0.3-0.2,0.3s-0.4,0.1-0.7,0.1c-0.2,0-0.3,0-0.4,0
				c-0.1,0-0.2-0.1-0.3-0.1c-0.1,0-0.1-0.1-0.2-0.1c0-0.1-0.1-0.1-0.1-0.2v-9.2c0-0.1,0-0.2,0-0.3s0.1-0.1,0.1-0.2s0.2-0.1,0.3-0.1
				C442.9,84,443,84,443.2,84z"/>
		</g>
	</g>
	<g id="text94">
		<g class="st37">
			<path class="st16" d="M315.7,232.5c0,0.3-0.1,0.5-0.3,0.7c-0.2,0.1-0.5,0.2-0.8,0.2h-12.9c-0.4,0-0.6-0.1-0.8-0.2
				c-0.2-0.1-0.3-0.3-0.3-0.7c0-0.3,0.1-0.5,0.3-0.6c0.2-0.1,0.5-0.2,0.8-0.2h12.9c0.2,0,0.3,0,0.4,0s0.2,0.1,0.3,0.1
				s0.2,0.2,0.2,0.3C315.6,232.2,315.7,232.3,315.7,232.5z"/>
		</g>
	</g>
	<g id="text98">
		<g class="st37">
			<path class="st16" d="M438.5,235.5c0,0.7-0.1,1.4-0.4,2c-0.3,0.6-0.6,1.1-1.1,1.5c-0.5,0.4-1,0.7-1.7,0.9
				c-0.7,0.2-1.4,0.3-2.1,0.3c-0.5,0-1,0-1.5-0.1c-0.5-0.1-0.9-0.2-1.2-0.3c-0.4-0.1-0.6-0.3-0.9-0.4c-0.2-0.1-0.4-0.3-0.5-0.4
				c-0.1-0.1-0.2-0.2-0.2-0.4c0-0.1-0.1-0.4-0.1-0.6c0-0.2,0-0.3,0-0.4c0-0.1,0-0.2,0.1-0.3c0-0.1,0.1-0.1,0.1-0.2s0.1,0,0.2,0
				c0.1,0,0.3,0.1,0.5,0.2c0.2,0.1,0.5,0.3,0.8,0.5s0.7,0.3,1.2,0.5s1,0.2,1.6,0.2c0.5,0,0.9-0.1,1.2-0.2c0.4-0.1,0.7-0.3,1-0.5
				c0.3-0.2,0.5-0.5,0.6-0.8c0.1-0.3,0.2-0.7,0.2-1.1c0-0.4-0.1-0.8-0.3-1.1c-0.2-0.3-0.5-0.6-0.8-0.8c-0.3-0.2-0.7-0.5-1.1-0.7
				c-0.4-0.2-0.9-0.4-1.3-0.6c-0.4-0.2-0.9-0.4-1.3-0.7s-0.8-0.5-1.1-0.9c-0.3-0.3-0.6-0.7-0.8-1.2s-0.3-1-0.3-1.6
				c0-0.7,0.1-1.2,0.4-1.8c0.2-0.5,0.6-0.9,1-1.3s0.9-0.6,1.5-0.8c0.6-0.2,1.2-0.3,1.9-0.3c0.3,0,0.7,0,1.1,0.1
				c0.4,0.1,0.7,0.1,1,0.2c0.3,0.1,0.6,0.2,0.8,0.3c0.2,0.1,0.4,0.2,0.5,0.3s0.1,0.1,0.2,0.2c0,0,0,0.1,0.1,0.2c0,0.1,0,0.2,0,0.2
				s0,0.2,0,0.4c0,0.1,0,0.3,0,0.4c0,0.1,0,0.2-0.1,0.3c0,0.1-0.1,0.1-0.1,0.2c0,0-0.1,0.1-0.2,0.1c-0.1,0-0.2-0.1-0.4-0.2
				c-0.2-0.1-0.4-0.2-0.7-0.4c-0.3-0.1-0.6-0.3-1-0.4s-0.8-0.2-1.3-0.2c-0.4,0-0.8,0.1-1.1,0.2s-0.6,0.3-0.8,0.5
				c-0.2,0.2-0.4,0.4-0.5,0.7c-0.1,0.3-0.2,0.6-0.2,0.9c0,0.4,0.1,0.8,0.3,1.1c0.2,0.3,0.5,0.6,0.8,0.8c0.3,0.2,0.7,0.5,1.1,0.7
				c0.4,0.2,0.9,0.4,1.3,0.6c0.4,0.2,0.9,0.4,1.3,0.7s0.8,0.5,1.1,0.9c0.3,0.3,0.6,0.7,0.8,1.2S438.5,234.9,438.5,235.5z"/>
		</g>
	</g>
</g>
<circle id="circle281-4" class="st25" cx="340.7" cy="259.8" r="11.6"/>
<circle id="circle281-5" class="st26" cx="371.4" cy="259.8" r="11.6"/>
<circle id="circle281-6" class="st27" cx="402.4" cy="259.8" r="11.6"/>
<rect id="rect67" x="336.1" y="259.8" class="st25" width="9.1" height="49.5"/>
<rect id="rect69" x="367" y="259.8" class="st26" width="9.1" height="108.2"/>
<rect id="rect853-2" x="397.8" y="259.8" class="st28" width="9.1" height="255.3"/>
</svg>
