<?xml version="1.0" encoding="UTF-8"?>
<svg xmlns="http://www.w3.org/2000/svg" xmlns:svg="http://www.w3.org/2000/svg" xmlns:sodipodi="http://sodipodi.sourceforge.net/DTD/sodipodi-0.dtd" xmlns:rdf="http://www.w3.org/1999/02/22-rdf-syntax-ns#" xmlns:inkscape="http://www.inkscape.org/namespaces/inkscape" xmlns:dc="http://purl.org/dc/elements/1.1/" xmlns:cc="http://creativecommons.org/ns#" version="1.1" viewBox="0 0 610.8 931.3">
  <defs>
    <style>
      .cls-1 {
        fill: #02814b;
      }

      .cls-2 {
        fill: #868c97;
      }

      .cls-3 {
        fill: #333;
      }

      .cls-3, .cls-4, .cls-5, .cls-6, .cls-7, .cls-8, .cls-9 {
        isolation: isolate;
      }

      .cls-3, .cls-5, .cls-6, .cls-7, .cls-8, .cls-9 {
        opacity: 1;
      }

      .cls-10 {
        stroke: #fff;
      }

      .cls-10, .cls-11 {
        fill: none;
        stroke-miterlimit: 10;
      }

      .cls-12 {
        fill: #c2bfab;
      }

      .cls-13 {
        fill: #e8d28a;
      }

      .cls-14 {
        fill: #8dddde;
      }

      .cls-15 {
        fill: #cecece;
      }

      .cls-16 {
        fill: #c1c1c1;
      }

      .cls-17 {
        fill: #b9a68f;
      }

      .cls-18 {
        fill: #141316;
      }

      .cls-19 {
        fill: #e2eade;
      }

      .cls-5 {
        fill: #7f1710;
      }

      .cls-20 {
        fill: #e10a17;
      }

      .cls-6 {
        fill: #cccbcb;
      }

      .cls-21 {
        fill: #905014;
      }

      .cls-22 {
        fill: #474544;
      }

      .cls-23 {
        fill: #ddd;
      }

      .cls-24 {
        fill: #22ad86;
      }

      .cls-25 {
        fill: #fee86f;
      }

      .cls-26 {
        fill: #914f00;
      }

      .cls-27, .cls-9 {
        fill: #fff;
      }

      .cls-28 {
        fill: #c29148;
      }

      .cls-29 {
        fill: #e30613;
      }

      .cls-30 {
        fill: #e0b45b;
      }

      .cls-31 {
        fill: #d4c547;
      }

      .cls-32 {
        fill: #00b589;
      }

      .cls-7 {
        fill: #b3b3b2;
      }

      .cls-33 {
        fill: #fcfcfa;
      }

      .cls-8 {
        fill: gray;
      }

      .cls-34 {
        fill: #7f7f7f;
      }

      .cls-35 {
        fill: #525035;
      }

      .cls-36 {
        fill: #ffe17b;
      }

      .cls-37 {
        fill: #aba28e;
      }

      .cls-38 {
        fill: #1a1a1a;
      }

      .cls-11 {
        stroke: #95ac6e;
      }

      .cls-39 {
        fill: #36323e;
      }
    </style>
  </defs>
  <!-- Generator: Adobe Illustrator 28.7.0, SVG Export Plug-In . SVG Version: 1.2.0 Build 136)  -->
  <g>
    <g id="svg4098">
      <g>
        <path class="cls-1" d="M243.3,349.3v-11.9H.2v11.9c2.3.9,3.9,3.1,3.9,5.7s-1.6,4.8-3.9,5.7v18.1c2.3.9,3.9,3.1,3.9,5.7s-1.6,4.8-3.9,5.7v18.1c2.3.9,3.9,3.1,3.9,5.7s-1.6,4.8-3.9,5.7v18.1c2.3.9,3.9,3.1,3.9,5.7s-1.6,4.8-3.9,5.7v18.1c2.3.9,3.9,3.1,3.9,5.7s-1.6,4.8-3.9,5.7v18.1c2.3.9,3.9,3.1,3.9,5.7s-1.6,4.8-3.9,5.7v18.1c2.3.9,3.9,3.1,3.9,5.7s-1.6,4.8-3.9,5.7v18.1c2.3.9,3.9,3.1,3.9,5.7s-1.6,4.8-3.9,5.7v18.1c2.3.9,3.9,3.1,3.9,5.7s-1.6,4.8-3.9,5.7v18.1c2.3.9,3.9,3.1,3.9,5.7s-1.6,4.8-3.9,5.7v18.1c2.3.9,3.9,3.1,3.9,5.7s-1.6,4.8-3.9,5.7v18.1c2.3.9,3.9,3.1,3.9,5.7s-1.6,4.8-3.9,5.7v16.8c2.3.9,3.9,3.1,3.9,5.7s-1.6,4.8-3.9,5.7v18.1c2.3.9,3.9,3.1,3.9,5.7s-1.6,4.8-3.9,5.7v18.1c2.3.9,3.9,3.1,3.9,5.7s-1.6,4.8-3.9,5.7v18.1c2.3.9,3.9,3.1,3.9,5.7s-1.6,4.8-3.9,5.7v18.1c2.3.9,3.9,3.1,3.9,5.7s-1.6,4.8-3.9,5.7v17.6c2.3.9,3.9,3.1,3.9,5.7s-1.6,4.8-3.9,5.7v18c2.3.9,3.9,3.1,3.9,5.7s-1.6,4.8-3.9,5.7v18.1c2.3.9,3.9,3.1,3.9,5.7s-1.6,4.8-3.9,5.7v11.9h243.1v-11.9c-2.2-.9-3.8-3.1-3.8-5.7s1.6-4.8,3.8-5.7v-18.1c-2.2-.9-3.8-3.1-3.8-5.7s1.6-4.8,3.8-5.7v-18.1c-2.2-.9-3.8-3.1-3.8-5.7s1.6-4.8,3.8-5.7v-18.1c-2.2-.9-3.8-3.1-3.8-5.7s1.6-4.8,3.8-5.7v-18.1c-2.2-.9-3.8-3.1-3.8-5.7s1.6-4.8,3.8-5.7v-18.1c-2.2-.9-3.8-3.1-3.8-5.7s1.6-4.8,3.8-5.7v-18.1c-2.2-.9-3.8-3.1-3.8-5.7s1.6-4.8,3.8-5.7v-18.1c-2.2-.9-3.8-3.1-3.8-5.7s1.6-4.8,3.8-5.7v-17.4c-2.2-.9-3.8-3.1-3.8-5.7s1.6-4.8,3.8-5.7v-18.1c-2.2-.9-3.8-3.1-3.8-5.7s1.6-4.8,3.8-5.7v-18.1c-2.2-.9-3.8-3.1-3.8-5.7s1.6-4.8,3.8-5.7v-18.1c-2.2-.9-3.8-3.1-3.8-5.7s1.6-4.8,3.8-5.7v-18.1c-2.2-.9-3.8-3.1-3.8-5.7s1.6-4.8,3.8-5.7v-17.6c-2.2-.9-3.8-3.1-3.8-5.7s1.6-4.8,3.8-5.7v-18.1c-2.2-.9-3.8-3.1-3.8-5.7s1.6-4.8,3.8-5.7v-18.1c-2.2-.9-3.8-3.1-3.8-5.7s1.6-4.8,3.8-5.7v-18.1c-2.2-.9-3.8-3.1-3.8-5.7s1.6-4.8,3.8-5.7v-18.1c-2.2-.9-3.8-3.1-3.8-5.7s1.6-4.8,3.8-5.7v-17.6c-2.2-.9-3.8-3.1-3.8-5.7s1.6-4.8,3.8-5.7v-18.1c-2.2-.9-3.8-3.1-3.8-5.7s1.6-4.6,3.8-5.5ZM15.8,919.6c-3.4,0-6.1-2.7-6.1-6.1s2.7-6.1,6.1-6.1,6.1,2.7,6.1,6.1-2.7,6.1-6.1,6.1ZM15.8,890.1c-3.4,0-6.1-2.7-6.1-6.1s2.7-6.1,6.1-6.1,6.1,2.7,6.1,6.1-2.7,6.1-6.1,6.1ZM15.8,860.8c-3.4,0-6.1-2.7-6.1-6.1s2.7-6.1,6.1-6.1,6.1,2.7,6.1,6.1-2.7,6.1-6.1,6.1ZM15.8,831.4c-3.4,0-6.1-2.7-6.1-6.1s2.7-6.1,6.1-6.1,6.1,2.7,6.1,6.1-2.7,6.1-6.1,6.1ZM15.8,802c-3.4,0-6.1-2.7-6.1-6.1s2.7-6.1,6.1-6.1,6.1,2.7,6.1,6.1-2.7,6.1-6.1,6.1ZM15.8,772.6c-3.4,0-6.1-2.7-6.1-6.1s2.7-6.1,6.1-6.1,6.1,2.7,6.1,6.1-2.7,6.1-6.1,6.1ZM15.8,743.2c-3.4,0-6.1-2.7-6.1-6.1s2.7-6.1,6.1-6.1,6.1,2.7,6.1,6.1-2.7,6.1-6.1,6.1ZM15.8,713.8c-3.4,0-6.1-2.7-6.1-6.1s2.7-6.1,6.1-6.1,6.1,2.7,6.1,6.1-2.7,6.1-6.1,6.1ZM15.8,684.4c-3.4,0-6.1-2.7-6.1-6.1s2.7-6.1,6.1-6.1,6.1,2.7,6.1,6.1-2.7,6.1-6.1,6.1ZM15.8,655c-3.4,0-6.1-2.7-6.1-6.1s2.7-6.1,6.1-6.1,6.1,2.7,6.1,6.1-2.7,6.1-6.1,6.1ZM15.8,625.6c-3.4,0-6.1-2.7-6.1-6.1s2.7-6.1,6.1-6.1,6.1,2.7,6.1,6.1-2.7,6.1-6.1,6.1ZM15.8,596.2c-3.4,0-6.1-2.7-6.1-6.1s2.7-6.1,6.1-6.1,6.1,2.7,6.1,6.1-2.7,6.1-6.1,6.1ZM15.8,566.8c-3.4,0-6.1-2.7-6.1-6.1s2.7-6.1,6.1-6.1,6.1,2.7,6.1,6.1-2.7,6.1-6.1,6.1ZM15.8,537.4c-3.4,0-6.1-2.7-6.1-6.1s2.7-6.1,6.1-6.1,6.1,2.7,6.1,6.1-2.7,6.1-6.1,6.1ZM15.8,508c-3.4,0-6.1-2.7-6.1-6.1s2.7-6.1,6.1-6.1,6.1,2.7,6.1,6.1-2.7,6.1-6.1,6.1ZM15.8,478.6c-3.4,0-6.1-2.7-6.1-6.1s2.7-6.1,6.1-6.1,6.1,2.7,6.1,6.1-2.7,6.1-6.1,6.1ZM15.8,449.2c-3.4,0-6.1-2.7-6.1-6.1s2.7-6.1,6.1-6.1,6.1,2.7,6.1,6.1-2.7,6.1-6.1,6.1ZM15.8,419.8c-3.4,0-6.1-2.7-6.1-6.1s2.7-6.1,6.1-6.1,6.1,2.7,6.1,6.1-2.7,6.1-6.1,6.1ZM15.8,390.4c-3.4,0-6.1-2.7-6.1-6.1s2.7-6.1,6.1-6.1,6.1,2.7,6.1,6.1-2.7,6.1-6.1,6.1ZM15.8,361c-3.4,0-6.1-2.7-6.1-6.1s2.7-6.1,6.1-6.1,6.1,2.7,6.1,6.1-2.7,6.1-6.1,6.1ZM53.7,919.5c-6.7,0-12.1-5.4-12.1-12.1s5.4-12.1,12.1-12.1,12.1,5.4,12.1,12.1-5.4,12.1-12.1,12.1ZM53.7,372.4c-6.7,0-12.1-5.4-12.1-12.1s5.4-12.1,12.1-12.1,12.1,5.4,12.1,12.1c0,6.6-5.4,12.1-12.1,12.1ZM127.6,705.6c-3.1,0-5.7-2.6-5.7-5.7s2.6-5.7,5.7-5.7,5.7,2.6,5.7,5.7-2.6,5.7-5.7,5.7ZM157,705.6c-3.1,0-5.7-2.6-5.7-5.7s2.6-5.7,5.7-5.7,5.7,2.6,5.7,5.7-2.5,5.7-5.7,5.7ZM186.2,348.1c6.7,0,12.1,5.4,12.1,12.1s-5.4,12.1-12.1,12.1-12.1-5.4-12.1-12.1c0-6.7,5.5-12.1,12.1-12.1ZM192.5,699.9c0,3.1-2.6,5.7-5.7,5.7s-5.7-2.6-5.7-5.7,2.6-5.7,5.7-5.7,5.7,2.5,5.7,5.7ZM188.2,919.5c-6.7,0-12.1-5.4-12.1-12.1s5.4-12.1,12.1-12.1,12.1,5.4,12.1,12.1-5.4,12.1-12.1,12.1ZM227.8,919.6c-3.4,0-6.1-2.7-6.1-6.1s2.7-6.1,6.1-6.1,6.1,2.7,6.1,6.1-2.7,6.1-6.1,6.1ZM227.8,890.2c-3.4,0-6.1-2.7-6.1-6.1s2.7-6.1,6.1-6.1,6.1,2.7,6.1,6.1-2.7,6.1-6.1,6.1ZM227.8,860.8c-3.4,0-6.1-2.7-6.1-6.1s2.7-6.1,6.1-6.1,6.1,2.7,6.1,6.1-2.7,6.1-6.1,6.1ZM227.8,831.4c-3.4,0-6.1-2.7-6.1-6.1s2.7-6.1,6.1-6.1,6.1,2.7,6.1,6.1-2.7,6.1-6.1,6.1ZM227.8,802c-3.4,0-6.1-2.7-6.1-6.1s2.7-6.1,6.1-6.1,6.1,2.7,6.1,6.1-2.7,6.1-6.1,6.1ZM227.8,772.6c-3.4,0-6.1-2.7-6.1-6.1s2.7-6.1,6.1-6.1,6.1,2.7,6.1,6.1-2.7,6.1-6.1,6.1ZM227.8,743.2c-3.4,0-6.1-2.7-6.1-6.1s2.7-6.1,6.1-6.1,6.1,2.7,6.1,6.1-2.7,6.1-6.1,6.1ZM227.8,713.8c-3.4,0-6.1-2.7-6.1-6.1s2.7-6.1,6.1-6.1,6.1,2.7,6.1,6.1-2.7,6.1-6.1,6.1ZM227.8,684.4c-3.4,0-6.1-2.7-6.1-6.1s2.7-6.1,6.1-6.1,6.1,2.7,6.1,6.1-2.7,6.1-6.1,6.1ZM227.8,655c-3.4,0-6.1-2.7-6.1-6.1s2.7-6.1,6.1-6.1,6.1,2.7,6.1,6.1-2.7,6.1-6.1,6.1ZM227.8,625.6c-3.4,0-6.1-2.7-6.1-6.1s2.7-6.1,6.1-6.1,6.1,2.7,6.1,6.1-2.7,6.1-6.1,6.1ZM227.8,596.2c-3.4,0-6.1-2.7-6.1-6.1s2.7-6.1,6.1-6.1,6.1,2.7,6.1,6.1-2.7,6.1-6.1,6.1ZM227.8,566.8c-3.4,0-6.1-2.7-6.1-6.1s2.7-6.1,6.1-6.1,6.1,2.7,6.1,6.1-2.7,6.1-6.1,6.1ZM227.8,537.4c-3.4,0-6.1-2.7-6.1-6.1s2.7-6.1,6.1-6.1,6.1,2.7,6.1,6.1-2.7,6.1-6.1,6.1ZM227.8,508c-3.4,0-6.1-2.7-6.1-6.1s2.7-6.1,6.1-6.1,6.1,2.7,6.1,6.1-2.7,6.1-6.1,6.1ZM227.8,478.6c-3.4,0-6.1-2.7-6.1-6.1s2.7-6.1,6.1-6.1,6.1,2.7,6.1,6.1-2.7,6.1-6.1,6.1ZM227.8,449.2c-3.4,0-6.1-2.7-6.1-6.1s2.7-6.1,6.1-6.1,6.1,2.7,6.1,6.1-2.7,6.1-6.1,6.1ZM227.8,419.8c-3.4,0-6.1-2.7-6.1-6.1s2.7-6.1,6.1-6.1,6.1,2.7,6.1,6.1-2.7,6.1-6.1,6.1ZM227.8,390.4c-3.4,0-6.1-2.7-6.1-6.1s2.7-6.1,6.1-6.1,6.1,2.7,6.1,6.1-2.7,6.1-6.1,6.1ZM227.8,361c-3.4,0-6.1-2.7-6.1-6.1s2.7-6.1,6.1-6.1,6.1,2.7,6.1,6.1-2.7,6.1-6.1,6.1Z"/>
        <path class="cls-31" d="M53.7,339.7c-11.3,0-20.5,9.2-20.5,20.5s9.2,20.5,20.5,20.5,20.5-9.2,20.5-20.5c.1-11.3-9.1-20.5-20.5-20.5ZM53.7,372.4c-6.7,0-12.1-5.4-12.1-12.1s5.4-12.1,12.1-12.1,12.1,5.4,12.1,12.1c0,6.7-5.4,12.1-12.1,12.1Z"/>
        <path class="cls-31" d="M186.3,339.7c-11.3,0-20.5,9.2-20.5,20.5s9.2,20.5,20.5,20.5,20.5-9.2,20.5-20.5-9.2-20.5-20.5-20.5ZM186.3,372.4c-6.7,0-12.1-5.4-12.1-12.1s5.4-12.1,12.1-12.1,12.1,5.4,12.1,12.1c0,6.7-5.4,12.1-12.1,12.1Z"/>
        <path class="cls-31" d="M53.7,886.9c-11.3,0-20.5,9.2-20.5,20.5s9.2,20.6,20.5,20.6,20.5-9.2,20.5-20.5-9.1-20.6-20.5-20.6ZM53.7,919.5c-6.7,0-12.1-5.4-12.1-12.1s5.4-12.1,12.1-12.1,12.1,5.4,12.1,12.1-5.4,12.1-12.1,12.1Z"/>
        <path class="cls-31" d="M188.3,886.9c-11.3,0-20.5,9.2-20.5,20.5s9.2,20.5,20.5,20.5,20.5-9.2,20.5-20.5-9.2-20.5-20.5-20.5ZM188.3,919.5c-6.7,0-12.1-5.4-12.1-12.1s5.4-12.1,12.1-12.1,12.1,5.4,12.1,12.1-5.4,12.1-12.1,12.1Z"/>
        <circle class="cls-35" cx="55" cy="425" r="10.6"/>
        <circle class="cls-25" cx="55" cy="425" r="5.5"/>
        <path class="cls-36" d="M17.5,404.7H.3v3.4c2.3.9,3.9,3.1,3.9,5.7s-1.6,4.8-3.9,5.7v3.4h17.2c5,0,9-4,9-9h0c0-5.1-4.1-9.2-9-9.2ZM15.9,419.9c-3.4,0-6.1-2.7-6.1-6.1s2.7-6.1,6.1-6.1,6.1,2.7,6.1,6.1-2.8,6.1-6.1,6.1Z"/>
        <path class="cls-36" d="M17.5,551.7H.3v3.4c2.3.9,3.9,3.1,3.9,5.7s-1.6,4.8-3.9,5.7v3.4h17.2c5,0,9-4,9-9s-4.1-9.2-9-9.2ZM15.9,566.8c-3.4,0-6.1-2.7-6.1-6.1s2.7-6.1,6.1-6.1,6.1,2.7,6.1,6.1-2.8,6.1-6.1,6.1Z"/>
        <path class="cls-36" d="M17.5,698.7H.3v3.4c2.3.9,3.9,3.1,3.9,5.7s-1.6,4.8-3.9,5.7v3.4h17.2c5,0,9-4,9-9s-4.1-9.2-9-9.2ZM15.9,713.8c-3.4,0-6.1-2.7-6.1-6.1s2.7-6.1,6.1-6.1,6.1,2.7,6.1,6.1-2.8,6.1-6.1,6.1Z"/>
        <path class="cls-36" d="M17.5,728.1H.3v3.4c2.3.9,3.9,3.1,3.9,5.7s-1.6,4.8-3.9,5.7v3.4h17.2c5,0,9-4,9-9s-4.1-9.2-9-9.2ZM15.9,743.2c-3.4,0-6.1-2.7-6.1-6.1s2.7-6.1,6.1-6.1,6.1,2.7,6.1,6.1-2.8,6.1-6.1,6.1Z"/>
        <path class="cls-36" d="M17.5,757.5H.3v3.4c2.3.9,3.9,3.1,3.9,5.7s-1.6,4.8-3.9,5.7v3.4h17.2c5,0,9-4,9-9s-4.1-9.2-9-9.2ZM15.9,772.6c-3.4,0-6.1-2.7-6.1-6.1s2.7-6.1,6.1-6.1,6.1,2.7,6.1,6.1-2.8,6.1-6.1,6.1Z"/>
        <path class="cls-36" d="M17.5,786.9H.3v3.4c2.3.9,3.9,3.1,3.9,5.7s-1.6,4.8-3.9,5.7v3.4h17.2c5,0,9-4,9-9s-4.1-9.2-9-9.2ZM15.9,802c-3.4,0-6.1-2.7-6.1-6.1s2.7-6.1,6.1-6.1,6.1,2.7,6.1,6.1-2.8,6.1-6.1,6.1Z"/>
        <path class="cls-36" d="M17.5,845.7H.3v3.4c2.3.9,3.9,3.1,3.9,5.7s-1.6,4.8-3.9,5.7v3.4h17.2c5,0,9-4,9-9h0c0-5.2-4.1-9.2-9-9.2ZM15.9,860.8c-3.4,0-6.1-2.7-6.1-6.1s2.7-6.1,6.1-6.1,6.1,2.7,6.1,6.1-2.8,6.1-6.1,6.1Z"/>
        <path class="cls-36" d="M17.5,875.1H.3v3.4c2.3.9,3.9,3.1,3.9,5.7s-1.6,4.8-3.9,5.7v3.4h17.2c5,0,9-4,9-9h0c0-5.2-4.1-9.2-9-9.2ZM15.9,890.2c-3.4,0-6.1-2.7-6.1-6.1s2.7-6.1,6.1-6.1,6.1,2.7,6.1,6.1-2.8,6.1-6.1,6.1Z"/>
        <path class="cls-36" d="M17.5,904.5H.3v3.4c2.3.9,3.9,3.1,3.9,5.7s-1.6,4.8-3.9,5.7v3.4h17.2c5,0,9-4,9-9s-4.1-9.2-9-9.2ZM15.9,919.6c-3.4,0-6.1-2.7-6.1-6.1s2.7-6.1,6.1-6.1,6.1,2.7,6.1,6.1-2.8,6.1-6.1,6.1Z"/>
        <path class="cls-36" d="M239.5,355c0-2.6,1.6-4.8,3.9-5.7v-3.3h-17.2c-5,0-9,4-9,9s4,9,9,9h17.2v-3.4c-2.2-.8-3.9-3-3.9-5.6ZM227.8,361.1c-3.4,0-6.1-2.7-6.1-6.1s2.7-6.1,6.1-6.1,6.1,2.7,6.1,6.1-2.7,6.1-6.1,6.1Z"/>
        <path class="cls-36" d="M239.5,384.4c0-2.6,1.6-4.8,3.9-5.7v-3.4h-17.2c-5,0-9,4-9,9h0c0,5,4,9,9,9h17.2v-3.3c-2.2-.8-3.9-3-3.9-5.6ZM227.8,390.5c-3.4,0-6.1-2.7-6.1-6.1s2.7-6.1,6.1-6.1,6.1,2.7,6.1,6.1-2.7,6.1-6.1,6.1Z"/>
        <path class="cls-36" d="M239.5,413.8c0-2.6,1.6-4.8,3.9-5.7v-3.4h-17.2c-5,0-9,4-9,9h0c0,5,4,9,9,9h17.2v-3.4c-2.2-.7-3.9-2.9-3.9-5.5ZM227.8,419.9c-3.4,0-6.1-2.7-6.1-6.1s2.7-6.1,6.1-6.1,6.1,2.7,6.1,6.1-2.7,6.1-6.1,6.1Z"/>
        <path class="cls-36" d="M239.5,443.2c0-2.6,1.6-4.8,3.9-5.7v-3.4h-17.2c-5,0-9,4-9,9s4,9,9,9h17.2v-3.4c-2.2-.7-3.9-3-3.9-5.5ZM227.8,449.3c-3.4,0-6.1-2.7-6.1-6.1s2.7-6.1,6.1-6.1,6.1,2.7,6.1,6.1-2.7,6.1-6.1,6.1Z"/>
        <path class="cls-36" d="M239.5,472.6c0-2.6,1.6-4.8,3.9-5.7v-3.4h-17.2c-5,0-9,4-9,9s4,9,9,9h17.2v-3.4c-2.2-.8-3.9-3-3.9-5.5ZM227.8,478.6c-3.4,0-6.1-2.7-6.1-6.1s2.7-6.1,6.1-6.1,6.1,2.7,6.1,6.1-2.7,6.1-6.1,6.1Z"/>
        <path class="cls-36" d="M239.5,502c0-2.6,1.6-4.8,3.9-5.7v-3.4h-17.2c-5,0-9,4-9,9s4,9,9,9h17.2v-3.4c-2.2-.8-3.9-3-3.9-5.5ZM227.8,508c-3.4,0-6.1-2.7-6.1-6.1s2.7-6.1,6.1-6.1,6.1,2.7,6.1,6.1-2.7,6.1-6.1,6.1Z"/>
        <path class="cls-36" d="M239.5,560.7c0-2.6,1.6-4.8,3.9-5.7v-3.4h-17.2c-5,0-9,4-9,9s4,9,9,9h17.2v-3.4c-2.2-.7-3.9-2.9-3.9-5.5ZM227.8,566.8c-3.4,0-6.1-2.7-6.1-6.1s2.7-6.1,6.1-6.1,6.1,2.7,6.1,6.1-2.7,6.1-6.1,6.1Z"/>
        <path class="cls-36" d="M239.5,619.5c0-2.6,1.6-4.8,3.9-5.7v-3.4h-17.2c-5,0-9,4-9,9h0c0,5,4,9,9,9h17.2v-3.4c-2.2-.7-3.9-2.9-3.9-5.5ZM227.8,625.6c-3.4,0-6.1-2.7-6.1-6.1s2.7-6.1,6.1-6.1,6.1,2.7,6.1,6.1-2.7,6.1-6.1,6.1Z"/>
        <path class="cls-36" d="M239.5,648.9c0-2.6,1.6-4.8,3.9-5.7v-3.4h-17.2c-5,0-9,4-9,9h0c0,5,4,9,9,9h17.2v-3.4c-2.2-.7-3.9-2.9-3.9-5.5ZM227.8,655c-3.4,0-6.1-2.7-6.1-6.1s2.7-6.1,6.1-6.1,6.1,2.7,6.1,6.1-2.7,6.1-6.1,6.1Z"/>
        <path class="cls-36" d="M239.5,678.3c0-2.6,1.6-4.8,3.9-5.7v-3.4h-17.2c-5,0-9,4-9,9s4,9,9,9h17.2v-3.2c-2.2-.9-3.9-3.1-3.9-5.7ZM227.8,684.4c-3.4,0-6.1-2.7-6.1-6.1s2.7-6.1,6.1-6.1,6.1,2.7,6.1,6.1-2.7,6.1-6.1,6.1Z"/>
        <path class="cls-36" d="M239.5,707.7c0-2.6,1.6-4.8,3.9-5.7v-3.4h-17.2c-5,0-9,4-9,9s4,9,9,9h17.2v-3.4c-2.2-.7-3.9-2.9-3.9-5.5ZM227.8,713.8c-3.4,0-6.1-2.7-6.1-6.1s2.7-6.1,6.1-6.1,6.1,2.7,6.1,6.1-2.7,6.1-6.1,6.1Z"/>
        <path class="cls-36" d="M239.5,737.1c0-2.6,1.6-4.8,3.9-5.7v-3.4h-17.2c-5,0-9,4-9,9s4,9,9,9h17.2v-3.4c-2.2-.7-3.9-2.9-3.9-5.5ZM227.8,743.2c-3.4,0-6.1-2.7-6.1-6.1s2.7-6.1,6.1-6.1,6.1,2.7,6.1,6.1-2.7,6.1-6.1,6.1Z"/>
        <path class="cls-36" d="M239.5,766.5c0-2.6,1.6-4.8,3.9-5.7v-3.4h-17.2c-5,0-9,4-9,9s4,9,9,9h17.2v-3.4c-2.2-.7-3.9-2.9-3.9-5.5ZM227.8,772.6c-3.4,0-6.1-2.7-6.1-6.1s2.7-6.1,6.1-6.1,6.1,2.7,6.1,6.1-2.7,6.1-6.1,6.1Z"/>
        <path class="cls-36" d="M239.5,795.9c0-2.6,1.6-4.8,3.9-5.7v-3.4h-17.2c-5,0-9,4-9,9s4,9,9,9h17.2v-3.4c-2.2-.7-3.9-2.9-3.9-5.5ZM227.8,802c-3.4,0-6.1-2.7-6.1-6.1s2.7-6.1,6.1-6.1,6.1,2.7,6.1,6.1-2.7,6.1-6.1,6.1Z"/>
        <path class="cls-36" d="M239.5,854.7c0-2.6,1.6-4.8,3.9-5.7v-3.4h-17.2c-5,0-9,4-9,9h0c0,5,4,9,9,9h17.2v-3.4c-2.2-.7-3.9-2.9-3.9-5.5ZM227.8,860.8c-3.4,0-6.1-2.7-6.1-6.1s2.7-6.1,6.1-6.1,6.1,2.7,6.1,6.1-2.7,6.1-6.1,6.1Z"/>
        <path class="cls-36" d="M239.5,884.1c0-2.6,1.6-4.8,3.9-5.7v-3.4h-17.2c-5,0-9,4-9,9h0c0,5,4,9,9,9h17.2v-3.4c-2.2-.7-3.9-2.9-3.9-5.5ZM227.8,890.2c-3.4,0-6.1-2.7-6.1-6.1s2.7-6.1,6.1-6.1,6.1,2.7,6.1,6.1-2.7,6.1-6.1,6.1Z"/>
        <path class="cls-23" d="M163.1,326.9l4.4-4.4-2.3-2.3-6.6,6.6h-1.5v-4.7c0-1.2-1-2.2-2.2-2.2h-69.5c-1.2,0-2.2,1-2.2,2.2v4.7h-1.5l-6.6-6.6-2.3,2.3,4.4,4.4c-.6.2-1,.8-1,1.4v56.3c0,.9.7,1.6,1.6,1.6h84.6c.9,0,1.6-.7,1.6-1.6v-56.3c0-.6-.4-1.2-.9-1.4Z"/>
        <g>
          <path class="cls-34" d="M100.3,349.1c0-3.2-2.6-5.8-5.8-5.8s-5.8,2.6-5.8,5.8.5,2.7,1.3,3.7h-.2v7.7c0,1.2,1,2.1,2.1,2.1h5.1c1.2,0,2.1-1,2.1-2.1v-7.7h0c.8-.9,1.3-2.2,1.3-3.7Z"/>
          <path class="cls-34" d="M155.5,349.1c0-3.2-2.6-5.8-5.8-5.8s-5.8,2.6-5.8,5.8.5,2.7,1.3,3.7h-.2v7.7c0,1.2,1,2.1,2.1,2.1h5.1c1.2,0,2.1-1,2.1-2.1v-7.7h-.2c.9-.9,1.4-2.2,1.4-3.7Z"/>
        </g>
        <path class="cls-22" d="M200.9,479.3h-21c-1.2,0-2.2-1-2.2-2.2v-26.7c0-1.2,1-2.2,2.2-2.2h21c1.2,0,2.2,1,2.2,2.2v26.7c0,1.2-1,2.2-2.2,2.2Z"/>
        <g>
          <rect class="cls-19" x="132" y="415.5" width="21.7" height="14.4"/>
          <path class="cls-28" d="M149.3,429.9c-2-1.8-3.2-4.4-3.2-7.2s1.2-5.4,3.2-7.2h-12.8c2,1.8,3.2,4.4,3.2,7.2s-1.2,5.4-3.2,7.2h12.8Z"/>
        </g>
        <g>
          <rect class="cls-19" x="132.3" y="500.8" width="21.7" height="14.4"/>
          <path class="cls-28" d="M149.6,515.3c-2-1.8-3.2-4.4-3.2-7.2s1.2-5.4,3.2-7.2h-12.8c2,1.8,3.2,4.4,3.2,7.2s-1.2,5.4-3.2,7.2h12.8Z"/>
        </g>
        <g>
          <rect class="cls-19" x="132.3" y="520" width="21.7" height="14.4"/>
          <path class="cls-28" d="M149.6,534.4c-2-1.8-3.2-4.4-3.2-7.2s1.2-5.4,3.2-7.2h-12.8c2,1.8,3.2,4.4,3.2,7.2s-1.2,5.4-3.2,7.2h12.8Z"/>
        </g>
        <g>
          <rect class="cls-19" x="61.3" y="571" width="10.6" height="5.4"/>
          <rect class="cls-28" x="63.6" y="571" width="6" height="5.4"/>
        </g>
        <g>
          <rect class="cls-19" x="177.1" y="550.9" width="5.4" height="10.6"/>
          <rect class="cls-28" x="177.1" y="553.2" width="5.4" height="6"/>
        </g>
        <rect class="cls-22" x="179.5" y="400.9" width="18.9" height="29.3"/>
        <g>
          <rect class="cls-19" x="171.6" y="502.2" width="20.6" height="9.6"/>
          <rect class="cls-14" x="176.2" y="502.2" width="11.5" height="9.6"/>
        </g>
        <rect class="cls-28" x="120.2" y="670.2" width="4.2" height="6.9"/>
        <rect class="cls-28" x="126.9" y="670.2" width="4.2" height="6.9"/>
        <rect class="cls-28" x="65.3" y="581.6" width="6.9" height="4.2"/>
        <rect class="cls-28" x="88.2" y="514.5" width="6.9" height="4.2"/>
        <rect class="cls-28" x="64.9" y="625.2" width="6.9" height="4.2"/>
        <rect class="cls-22" x="195" y="629" width="4.2" height="6.9"/>
        <rect class="cls-22" x="187.9" y="569.2" width="6.9" height="4.2"/>
        <rect class="cls-22" x="85.9" y="413.5" width="6.9" height="4.2"/>
        <rect class="cls-22" x="81.1" y="425.8" width="6.9" height="4.2"/>
        <rect class="cls-22" x="191.5" y="518.2" width="6.9" height="4.2"/>
        <path class="cls-16" d="M186.3,833.9H57.5c-2.1,0-3.9-1.7-3.9-3.9v-108c0-2.1,1.7-3.9,3.9-3.9h128.8c2.1,0,3.9,1.7,3.9,3.9v108.1c0,2.1-1.7,3.8-3.9,3.8Z"/>
        <rect class="cls-12" x="101.5" y="880.2" width="10.5" height="5.9"/>
        <rect class="cls-12" x="130.3" y="880.4" width="10.5" height="5.9"/>
        <rect class="cls-12" x="101.5" y="918" width="10.5" height="5.9"/>
        <rect class="cls-12" x="130.3" y="918.1" width="10.5" height="5.9"/>
        <polyline class="cls-11" points="17.5 362.7 17.5 367.2 35.4 385.1 35.4 433.7 51 449.3 51 584.1 55.9 589 91.2 589"/>
        <polyline class="cls-11" points="22.9 389.6 31 397.7 31 435.6 46.7 451.2 46.7 586.5 52.6 592.5 91 592.5"/>
        <polyline class="cls-11" points="23.2 448 43 467.8 43 589 53.4 599.4 95 599.4"/>
        <polyline class="cls-11" points="23.2 477.5 39.8 494 39.8 590.9 51.9 603 95.1 603"/>
        <polyline class="cls-11" points="23.2 507.6 35.6 519.9 35.6 596 49.5 609.9 93.4 609.9"/>
        <polyline class="cls-11" points="22.9 535.8 31.6 544.5 31.6 598.6 46.4 613.4 96.1 613.4"/>
        <polyline class="cls-11" points="22.9 594.4 45.3 616.8 102.7 616.8"/>
        <line class="cls-11" x1="23.7" y1="620.4" x2="98.8" y2="620.4"/>
        <path class="cls-11" d="M23.2,646.7c.1-.6,17.3-17.3,17.3-17.3h12.5l4.9,4.9h45.7"/>
        <polyline class="cls-11" points="20.4 672.6 25.7 667.3 25.7 659.5 30.9 654.3 30.9 645.9 43.9 632.8 52.6 632.8 57.3 637.5 95.3 637.5"/>
        <path class="cls-11" d="M30.7,662.8l3.4-3.4s-.7-8.9,0-9.6c.7-.7,6-6,6-6l6.3-6.3h6.1l3.7,3.7h35.1"/>
        <polyline class="cls-11" points="29.1 718.7 29.1 671 38.7 661.5 93.4 661.5 95 659.9 95 650.2"/>
        <polyline class="cls-11" points="17.5 816.9 17.5 813.3 32.9 797.9 32.9 717.6 35.7 714.8 35.7 673 42 666.7 94.2 666.7 98.4 662.5 98.4 655.2"/>
        <path class="cls-11" d="M35.7,700.5"/>
        <path class="cls-11" d="M35.7,715.8"/>
        <polyline class="cls-11" points="23.6 877.5 30.4 870.7 30.4 806.2 37.5 800.2"/>
        <polyline class="cls-11" points="35.6 810.5 42.6 803.5 42.6 713.8 39.9 711.1 39.9 674.3 44.6 669.6 94.9 669.6 101.9 662.6 101.9 646"/>
        <polyline class="cls-11" points="108.9 652.8 108.9 661.5 95.9 674.5 91.5 674.5"/>
        <polyline class="cls-11" points="93.9 683.1 112.4 664.6 112.4 649.2"/>
        <polyline class="cls-11" points="115.9 654.6 115.9 666.2 102.2 679.9 102.2 700 95.9 706.2 65 706.2 55.5 696.8"/>
        <polyline class="cls-11" points="133.9 693.6 138.7 688.8 138.7 675.5 135.5 672.3 135.5 662.3 132.4 659.2 132.4 648.2"/>
        <polyline class="cls-11" points="137.3 652.3 137.3 660.2 139.3 662.1 139.3 668.5 152.7 682 164.9 682 179.1 696.2"/>
        <polyline class="cls-11" points="145.3 650.1 145.3 660.5 151.3 666.5 172.3 666.5 200.5 694.8 200.5 807.4 206.7 813.6 206.7 864.4 212.3 870 212.3 890.2 223.3 901.2 223.3 906.5"/>
        <polyline class="cls-11" points="150.7 650.6 150.7 657.9 154.7 661.9 173.6 661.9 205.2 693.4 205.2 804.9 211.4 811.1 211.4 863.7 215.6 867.9 215.6 876.7"/>
        <polyline class="cls-11" points="157.5 645.4 165.3 645.4 211.1 691.2 211.1 802.9 227.2 819"/>
        <polyline class="cls-11" points="157.5 641 166.9 641 192.1 666.2"/>
        <polyline class="cls-11" points="158.6 635.8 166.6 635.8 190.1 659.4 195.5 659.4 206.3 670.2 206.3 677.1"/>
        <polyline class="cls-11" points="158.2 631.4 167.3 631.4 190.4 654.5 200.9 654.5"/>
        <polyline class="cls-11" points="158.2 627.3 169.1 627.3 174.1 632.3"/>
        <polyline class="cls-11" points="158.2 622.3 175.4 622.3 202.8 649.6 206.3 649.6 215.9 659.3 215.9 671.6"/>
        <line class="cls-11" x1="158.6" y1="616.9" x2="167.7" y2="616.9"/>
        <polyline class="cls-11" points="156.4 611.5 171.8 611.5 179.2 618.8"/>
        <polyline class="cls-11" points="187.9 631.4 192.4 626.9 192.4 607.6 203.4 607.6"/>
        <polyline class="cls-11" points="158.6 603 209.5 603 218.5 612"/>
        <polyline class="cls-11" points="158.2 598.6 213.8 598.6 220.3 592.1"/>
        <polyline class="cls-11" points="157.5 594.4 198.8 594.4 207.1 586.2 207.1 545.9 219.6 533.4"/>
        <polyline class="cls-11" points="158.6 590.1 179.1 590.1 202.4 566.9 202.4 544"/>
        <polyline class="cls-11" points="159.7 585.4 167.2 585.4 171.8 580.8"/>
        <path class="cls-11" d="M147.8,580.1c-.2-.3,9.2-9.2,9.2-9.2h15.6v-33.5l2.8-2.8v-7.6"/>
        <path class="cls-11" d="M147,577.9v-6.5l10.3-10.3"/>
        <polyline class="cls-11" points="140.1 578.8 140.1 568 147.4 560.7"/>
        <line class="cls-11" x1="136.6" y1="575.8" x2="136.6" y2="558.2"/>
        <path class="cls-11" d="M133.1,577.6v-15.2l-4.2-4.2"/>
        <path class="cls-11" d="M122.6,577.2v-20.7"/>
        <path class="cls-11" d="M119.2,578.8v-11.1l-7.6-7.6"/>
        <polyline class="cls-11" points="115.6 578.4 115.6 572 101.8 558.2 101.8 551.7 105 548.5 108.9 548.5 111.5 545.9 111.5 535.4 106.1 530 100 530"/>
        <polyline class="cls-11" points="99.8 535.8 105.4 535.8 108.5 538.8 108.5 544 105.7 546.8 101.1 546.8 97.7 550.2 97.7 559.2 108.7 570.2 108.7 577"/>
        <polyline class="cls-11" points="91.3 540.3 91.3 557 105.2 570.9 105.2 580.4"/>
        <polyline class="cls-11" points="76.5 539.5 76.5 546.6 85.9 556 85.9 559.9 99 572.9 99 582"/>
        <path class="cls-11" d="M94.8,576.1v-5l-11.7-11.7v-1.1l-4.5-4.5h-6.4l-1.7-1.7h-6.9l-6.7-6.7v-14.4l1.6-1.6h8.8"/>
        <polyline class="cls-11" points="69.1 523.3 60.4 523.3 55.4 528.3 55.4 546.2 63.4 554.2 69.5 554.2 75.9 560.6 78.4 560.6 92.5 574.6"/>
        <line class="cls-11" x1="73.8" y1="496.7" x2="56" y2="514.4"/>
        <polyline class="cls-11" points="137.6 557.3 137.6 551.2 134.7 548.2 134.7 545.2 130.2 540.7 125.2 540.7 121.1 536.7 121.1 517.7 109.7 506.3 109.7 424 124 409.8 124 400.7 127.7 397"/>
        <path class="cls-11" d="M135.3,449.9v-9l-3.1-3.1h-9.8l-4.5-4.5v-4.3"/>
        <polyline class="cls-11" points="129.3 482.3 129.3 487.7 126.1 490.9 120.2 490.9 118.6 492.4"/>
        <polyline class="cls-11" points="62.9 395.4 62.9 404.8 79.1 421 83.6 421 88.5 425.9 88.5 434.1 83.9 438.6 83.9 452.2"/>
        <rect class="cls-13" x="45.6" y="388.3" width="18.9" height="9.6"/>
        <g>
          <rect class="cls-15" x="102.7" y="386.2" width="4.3" height="11.5"/>
          <rect class="cls-15" x="110.4" y="386.2" width="4.3" height="11.5"/>
          <rect class="cls-15" x="118.1" y="386.2" width="4.3" height="11.5"/>
          <rect class="cls-15" x="125.7" y="386.2" width="4.3" height="11.5"/>
          <rect class="cls-15" x="133.4" y="386.2" width="4.3" height="11.5"/>
        </g>
        <g>
          <path class="cls-27" d="M106.8,407v-5.5h2.5v5.8c0,2,.6,2.7,1.7,2.7s1.8-.7,1.8-2.7v-5.8h2.4v5.5c0,3.5-1.4,5.1-4.2,5.1s-4.2-1.6-4.2-5.1Z"/>
          <path class="cls-27" d="M116.7,410.5l1.3-1.6c.7.6,1.7,1,2.6,1s1.4-.4,1.4-.9-.6-.8-1.5-1.2l-1.3-.6c-1.1-.4-2.1-1.3-2.1-2.8s1.6-3.2,3.8-3.2,2.5.5,3.4,1.3l-1.3,1.6c-.7-.5-1.4-.8-2.1-.8s-1.3.3-1.3.8.7.8,1.6,1.2l1.3.5c1.3.5,2.1,1.4,2.1,2.8s-1.5,3.3-4,3.3c-1.5.1-2.8-.3-3.9-1.4Z"/>
          <path class="cls-27" d="M126.3,401.4h3.6c2.2,0,3.9.6,3.9,2.6s-.5,1.9-1.4,2.2h0c1.1.4,1.9,1.2,1.9,2.5,0,2.1-1.8,3.1-4.1,3.1h-3.9s0-10.4,0-10.4ZM129.8,405.6c1.1,0,1.5-.5,1.5-1.2s-.5-1.1-1.5-1.1h-1.1v2.2h1.1ZM130,409.9c1.2,0,1.8-.4,1.8-1.3s-.6-1.2-1.8-1.2h-1.2v2.5h1.2Z"/>
        </g>
        <path class="cls-39" d="M170.2,482.8h-45.7c-.5,0-1-.4-1-1v-33.5c0-.5.4-1,1-1h45.7c.5,0,1,.4,1,1v33.5c0,.6-.5,1-1,1Z"/>
        <g>
          <rect class="cls-15" x="128.6" y="443.2" width="1.4" height="4.1"/>
          <rect class="cls-15" x="134.6" y="443.2" width="1.4" height="4.1"/>
          <rect class="cls-15" x="140.6" y="443.2" width="1.4" height="4.1"/>
          <rect class="cls-15" x="146.6" y="443.2" width="1.4" height="4.1"/>
          <rect class="cls-15" x="152.6" y="443.2" width="1.4" height="4.1"/>
          <rect class="cls-15" x="158.6" y="443.2" width="1.4" height="4.1"/>
          <rect class="cls-15" x="164.6" y="443.2" width="1.4" height="4.1"/>
        </g>
        <g>
          <rect class="cls-15" x="128.6" y="482.8" width="1.4" height="4.1"/>
          <rect class="cls-15" x="134.6" y="482.8" width="1.4" height="4.1"/>
          <rect class="cls-15" x="140.6" y="482.8" width="1.4" height="4.1"/>
          <rect class="cls-15" x="146.6" y="482.8" width="1.4" height="4.1"/>
          <rect class="cls-15" x="152.6" y="482.8" width="1.4" height="4.1"/>
          <rect class="cls-15" x="158.6" y="482.8" width="1.4" height="4.1"/>
          <rect class="cls-15" x="164.6" y="482.8" width="1.4" height="4.1"/>
        </g>
        <g>
          <rect class="cls-2" x="61.4" y="451.2" width="39.3" height="48.9"/>
          <path class="cls-33" d="M81,493.9h0c-7.6,0-13.7-6.1-13.7-13.7v-9.1c0-7.6,6.1-13.7,13.7-13.7h0c7.6,0,13.7,6.1,13.7,13.7v9.1c0,7.6-6.1,13.7-13.7,13.7Z"/>
          <path class="cls-33" d="M61.4,461.5h0v-10.3h10.3c-.1,5.7-4.6,10.3-10.3,10.3Z"/>
          <path class="cls-33" d="M71.6,500.1h-10.2v-10.3h0c5.7,0,10.2,4.7,10.2,10.3h0Z"/>
          <path class="cls-33" d="M100.7,461.5h0c-5.7,0-10.3-4.6-10.3-10.3h10.3v10.3Z"/>
          <path class="cls-33" d="M100.7,500.1h-10.3c0-5.7,4.6-10.3,10.3-10.3h0s0,10.3,0,10.3Z"/>
        </g>
        <g>
          <rect class="cls-39" x="64.9" y="520.7" width="34.6" height="22.9"/>
          <g>
            <rect class="cls-15" x="60.7" y="521.8" width="4.2" height="3.4"/>
            <rect class="cls-15" x="60.7" y="527.6" width="4.2" height="3.4"/>
            <rect class="cls-15" x="60.7" y="533.3" width="4.2" height="3.4"/>
            <rect class="cls-15" x="60.7" y="539.1" width="4.2" height="3.4"/>
          </g>
          <g>
            <rect class="cls-15" x="99.5" y="521.8" width="4.2" height="3.4"/>
            <rect class="cls-15" x="99.5" y="527.6" width="4.2" height="3.4"/>
            <rect class="cls-15" x="99.5" y="533.3" width="4.2" height="3.4"/>
            <rect class="cls-15" x="99.5" y="539.1" width="4.2" height="3.4"/>
          </g>
        </g>
        <rect class="cls-22" x="135.5" y="552.2" width="4.2" height="6.9"/>
        <g>
          <path class="cls-18" d="M160.4,656h-79c-.7,0-1.3-.6-1.3-1.3v-79.1c0-.7.6-1.3,1.3-1.3h79.1c.7,0,1.3.6,1.3,1.3v79.1c-.1.7-.7,1.3-1.4,1.3Z"/>
          <g>
            <rect class="cls-15" x="86.2" y="572.4" width="3.1" height="1.9"/>
            <rect class="cls-15" x="89.7" y="572.4" width="3.1" height="1.9"/>
            <rect class="cls-15" x="93.2" y="572.4" width="3.1" height="1.9"/>
            <rect class="cls-15" x="96.7" y="572.4" width="3.1" height="1.9"/>
            <rect class="cls-15" x="100.2" y="572.4" width="3.1" height="1.9"/>
            <rect class="cls-15" x="103.6" y="572.4" width="3.1" height="1.9"/>
            <rect class="cls-15" x="107.1" y="572.4" width="3.1" height="1.9"/>
            <rect class="cls-15" x="114.1" y="572.4" width="3.1" height="1.9"/>
            <rect class="cls-15" x="121.1" y="572.4" width="3.1" height="1.9"/>
            <rect class="cls-15" x="128" y="572.4" width="3.1" height="1.9"/>
            <rect class="cls-15" x="138.5" y="572.4" width="3.1" height="1.9"/>
            <rect class="cls-15" x="142" y="572.4" width="3.1" height="1.9"/>
            <rect class="cls-15" x="149" y="572.4" width="3.1" height="1.9"/>
            <rect class="cls-15" x="110.6" y="572.4" width="3.1" height="1.9"/>
            <rect class="cls-15" x="117.6" y="572.4" width="3.1" height="1.9"/>
            <rect class="cls-15" x="124.6" y="572.4" width="3.1" height="1.9"/>
            <rect class="cls-15" x="131.5" y="572.4" width="3.1" height="1.9"/>
            <rect class="cls-15" x="135" y="572.4" width="3.1" height="1.9"/>
            <rect class="cls-15" x="145.5" y="572.4" width="3.1" height="1.9"/>
            <rect class="cls-15" x="152.4" y="572.4" width="3.1" height="1.9"/>
          </g>
          <g>
            <rect class="cls-15" x="86.4" y="656" width="3.1" height="1.9"/>
            <rect class="cls-15" x="89.9" y="656" width="3.1" height="1.9"/>
            <rect class="cls-15" x="93.4" y="656" width="3.1" height="1.9"/>
            <rect class="cls-15" x="96.9" y="656" width="3.1" height="1.9"/>
            <rect class="cls-15" x="100.4" y="656" width="3.1" height="1.9"/>
            <rect class="cls-15" x="103.8" y="656" width="3.1" height="1.9"/>
            <rect class="cls-15" x="107.3" y="656" width="3.1" height="1.9"/>
            <rect class="cls-15" x="114.3" y="656" width="3.1" height="1.9"/>
            <rect class="cls-15" x="121.3" y="656" width="3.1" height="1.9"/>
            <rect class="cls-15" x="128.2" y="656" width="3.1" height="1.9"/>
            <rect class="cls-15" x="138.7" y="656" width="3.1" height="1.9"/>
            <rect class="cls-15" x="142.2" y="656" width="3.1" height="1.9"/>
            <rect class="cls-15" x="149.1" y="656" width="3.1" height="1.9"/>
            <rect class="cls-15" x="110.8" y="656" width="3.1" height="1.9"/>
            <rect class="cls-15" x="117.8" y="656" width="3.1" height="1.9"/>
            <rect class="cls-15" x="124.7" y="656" width="3.1" height="1.9"/>
            <rect class="cls-15" x="131.7" y="656" width="3.1" height="1.9"/>
            <rect class="cls-15" x="135.2" y="656" width="3.1" height="1.9"/>
            <rect class="cls-15" x="145.7" y="656" width="3.1" height="1.9"/>
            <rect class="cls-15" x="152.6" y="656" width="3.1" height="1.9"/>
          </g>
          <g>
            <rect class="cls-15" x="78.2" y="646.7" width="1.9" height="3.1"/>
            <rect class="cls-15" x="78.1" y="643.2" width="1.9" height="3.1"/>
            <rect class="cls-15" x="78.1" y="639.8" width="1.9" height="3.1"/>
            <rect class="cls-15" x="78.1" y="636.3" width="1.9" height="3.1"/>
            <rect class="cls-15" x="78.1" y="632.8" width="1.9" height="3.1"/>
            <rect class="cls-15" x="78.1" y="629.3" width="1.9" height="3.1"/>
            <rect class="cls-15" x="78.2" y="625.8" width="1.9" height="3.1"/>
            <rect class="cls-15" x="78.1" y="618.8" width="1.9" height="3.1"/>
            <rect class="cls-15" x="78.1" y="611.9" width="1.9" height="3.1"/>
            <rect class="cls-15" x="78.2" y="604.9" width="1.9" height="3.1"/>
            <rect class="cls-15" x="78.1" y="594.4" width="1.9" height="3.1"/>
            <rect class="cls-15" x="78.1" y="591" width="1.9" height="3.1"/>
            <rect class="cls-15" x="78.1" y="584" width="1.9" height="3.1"/>
            <rect class="cls-15" x="78.2" y="622.3" width="1.9" height="3.1"/>
            <rect class="cls-15" x="78.1" y="615.4" width="1.9" height="3.1"/>
            <rect class="cls-15" x="78.1" y="608.4" width="1.9" height="3.1"/>
            <rect class="cls-15" x="78.2" y="601.4" width="1.9" height="3.1"/>
            <rect class="cls-15" x="78.1" y="597.9" width="1.9" height="3.1"/>
            <rect class="cls-15" x="78.1" y="587.5" width="1.9" height="3.1"/>
            <rect class="cls-15" x="78.2" y="580.5" width="1.9" height="3.1"/>
          </g>
          <g>
            <rect class="cls-15" x="161.7" y="646.7" width="1.9" height="3.1"/>
            <rect class="cls-15" x="161.7" y="643.2" width="1.9" height="3.1"/>
            <rect class="cls-15" x="161.7" y="639.7" width="1.9" height="3.1"/>
            <rect class="cls-15" x="161.7" y="636.3" width="1.9" height="3.1"/>
            <rect class="cls-15" x="161.7" y="632.8" width="1.9" height="3.1"/>
            <rect class="cls-15" x="161.7" y="629.3" width="1.9" height="3.1"/>
            <rect class="cls-15" x="161.8" y="625.8" width="1.9" height="3.1"/>
            <rect class="cls-15" x="161.7" y="618.8" width="1.9" height="3.1"/>
            <rect class="cls-15" x="161.7" y="611.9" width="1.9" height="3.1"/>
            <rect class="cls-15" x="161.8" y="604.9" width="1.9" height="3.1"/>
            <rect class="cls-15" x="161.7" y="594.4" width="1.9" height="3.1"/>
            <rect class="cls-15" x="161.7" y="591" width="1.9" height="3.1"/>
            <rect class="cls-15" x="161.7" y="584" width="1.9" height="3.1"/>
            <rect class="cls-15" x="161.7" y="622.3" width="1.9" height="3.1"/>
            <rect class="cls-15" x="161.7" y="615.4" width="1.9" height="3.1"/>
            <rect class="cls-15" x="161.7" y="608.4" width="1.9" height="3.1"/>
            <rect class="cls-15" x="161.8" y="601.4" width="1.9" height="3.1"/>
            <rect class="cls-15" x="161.7" y="597.9" width="1.9" height="3.1"/>
            <rect class="cls-15" x="161.7" y="587.5" width="1.9" height="3.1"/>
            <rect class="cls-15" x="161.8" y="580.5" width="1.9" height="3.1"/>
          </g>
          <circle class="cls-17" cx="90.2" cy="585.4" r="2.8"/>
        </g>
        <rect class="cls-39" x="187.1" y="540.1" width="18.2" height="8.6"/>
        <rect class="cls-15" x="189.1" y="548.7" width="2.9" height="8.7"/>
        <rect class="cls-15" x="200.9" y="548.7" width="2.9" height="8.7"/>
        <rect class="cls-15" x="194.8" y="531.4" width="2.9" height="8.7"/>
        <rect class="cls-28" x="169.2" y="579.5" width="6.9" height="4.2"/>
        <rect class="cls-22" x="189.5" y="609.3" width="4.2" height="6.9"/>
        <rect class="cls-28" x="172.3" y="628.5" width="4.2" height="6.9" transform="translate(-395.8 308.4) rotate(-45)"/>
        <g>
          <path class="cls-36" d="M157,690.7c-5.1,0-9.2,4.1-9.2,9.2s4.1,9.2,9.2,9.2,9.2-4.1,9.2-9.2-4.1-9.2-9.2-9.2ZM157,705.6c-3.1,0-5.7-2.6-5.7-5.7s2.6-5.7,5.7-5.7,5.7,2.6,5.7,5.7-2.5,5.7-5.7,5.7Z"/>
          <path class="cls-36" d="M118.7,691v17.7h17.7v-17.7h-17.7ZM127.6,705.6c-3.1,0-5.7-2.6-5.7-5.7s2.6-5.7,5.7-5.7,5.7,2.6,5.7,5.7-2.6,5.7-5.7,5.7Z"/>
          <path class="cls-36" d="M186.8,690.7c-5.1,0-9.2,4.1-9.2,9.2s4.1,9.2,9.2,9.2,9.2-4.1,9.2-9.2-4.1-9.2-9.2-9.2ZM186.8,705.6c-3.1,0-5.7-2.6-5.7-5.7s2.6-5.7,5.7-5.7,5.7,2.6,5.7,5.7-2.5,5.7-5.7,5.7Z"/>
        </g>
        <path class="cls-36" d="M17.5,669.3H.3v3.4c2.3.9,3.9,3.1,3.9,5.7s-1.6,4.8-3.9,5.7v3.4h17.2c5,0,9-4,9-9s-4.1-9.2-9-9.2ZM15.9,684.4c-3.4,0-6.1-2.7-6.1-6.1s2.7-6.1,6.1-6.1,6.1,2.7,6.1,6.1-2.8,6.1-6.1,6.1Z"/>
        <path class="cls-36" d="M17.5,639.9H.3v3.4c2.3.9,3.9,3.1,3.9,5.7s-1.6,4.8-3.9,5.7v3.4h17.2c5,0,9-4,9-9h0c0-5.1-4.1-9.2-9-9.2ZM15.9,655c-3.4,0-6.1-2.7-6.1-6.1s2.7-6.1,6.1-6.1,6.1,2.7,6.1,6.1-2.8,6.1-6.1,6.1Z"/>
        <path class="cls-36" d="M17.5,610.5H.3v3.4c2.3.9,3.9,3.1,3.9,5.7s-1.6,4.8-3.9,5.7v3.4h17.2c5,0,9-4,9-9h0c0-5.1-4.1-9.2-9-9.2ZM15.9,625.6c-3.4,0-6.1-2.7-6.1-6.1s2.7-6.1,6.1-6.1,6.1,2.7,6.1,6.1-2.8,6.1-6.1,6.1Z"/>
        <path class="cls-36" d="M17.5,581.1H.3v3.4c2.3.9,3.9,3.1,3.9,5.7s-1.6,4.8-3.9,5.7v3.4h17.2c5,0,9-4,9-9s-4.1-9.2-9-9.2ZM15.9,596.2c-3.4,0-6.1-2.7-6.1-6.1s2.7-6.1,6.1-6.1,6.1,2.7,6.1,6.1-2.8,6.1-6.1,6.1Z"/>
        <path class="cls-36" d="M17.5,522.3H.3v3.4c2.3.9,3.9,3.1,3.9,5.7s-1.6,4.8-3.9,5.7v3.4h17.2c5,0,9-4,9-9s-4.1-9.2-9-9.2ZM15.9,537.4c-3.4,0-6.1-2.7-6.1-6.1s2.7-6.1,6.1-6.1,6.1,2.7,6.1,6.1-2.8,6.1-6.1,6.1Z"/>
        <path class="cls-36" d="M17.5,492.9H.3v3.4c2.3.9,3.9,3.1,3.9,5.7s-1.6,4.8-3.9,5.7v3.4h17.2c5,0,9-4,9-9s-4.1-9.2-9-9.2ZM15.9,508c-3.4,0-6.1-2.7-6.1-6.1s2.7-6.1,6.1-6.1,6.1,2.7,6.1,6.1-2.8,6.1-6.1,6.1Z"/>
        <path class="cls-36" d="M17.5,463.5H.3v3.4c2.3.9,3.9,3.1,3.9,5.7s-1.6,4.8-3.9,5.7v3.4h17.2c5,0,9-4,9-9s-4.1-9.2-9-9.2ZM15.9,478.6c-3.4,0-6.1-2.7-6.1-6.1s2.7-6.1,6.1-6.1,6.1,2.7,6.1,6.1-2.8,6.1-6.1,6.1Z"/>
        <path class="cls-36" d="M17.5,434.1H.3v3.4c2.3.9,3.9,3.1,3.9,5.7s-1.6,4.8-3.9,5.7v3.4h17.2c5,0,9-4,9-9s-4.1-9.2-9-9.2ZM15.9,449.3c-3.4,0-6.1-2.7-6.1-6.1s2.7-6.1,6.1-6.1,6.1,2.7,6.1,6.1-2.8,6.1-6.1,6.1Z"/>
        <path class="cls-36" d="M17.5,375.4H.3v3.4c2.3.9,3.9,3.1,3.9,5.7s-1.6,4.8-3.9,5.7v3.4h17.2c5,0,9-4,9-9h0c0-5.2-4.1-9.2-9-9.2ZM15.9,390.5c-3.4,0-6.1-2.7-6.1-6.1s2.7-6.1,6.1-6.1,6.1,2.7,6.1,6.1-2.8,6.1-6.1,6.1Z"/>
        <path class="cls-36" d="M17.5,346H.3v3.4c2.3.9,3.9,3.1,3.9,5.7s-1.6,4.8-3.9,5.7v3.4h17.2c5,0,9-4,9-9s-4.1-9.2-9-9.2ZM15.9,361.1c-3.4,0-6.1-2.7-6.1-6.1s2.7-6.1,6.1-6.1,6.1,2.7,6.1,6.1-2.8,6.1-6.1,6.1Z"/>
        <path class="cls-36" d="M17.5,816.3H.3v3.4c2.3.9,3.9,3.1,3.9,5.7s-1.6,4.8-3.9,5.7v3.4h17.2c5,0,9-4,9-9s-4.1-9.2-9-9.2ZM15.9,831.4c-3.4,0-6.1-2.7-6.1-6.1s2.7-6.1,6.1-6.1,6.1,2.7,6.1,6.1-2.8,6.1-6.1,6.1Z"/>
        <path class="cls-36" d="M239.5,913.5c0-2.6,1.6-4.8,3.9-5.7v-3.4h-17.2c-5,0-9,4-9,9s4,9,9,9h17.2v-3.4c-2.2-.7-3.9-2.9-3.9-5.5ZM227.8,919.6c-3.4,0-6.1-2.7-6.1-6.1s2.7-6.1,6.1-6.1,6.1,2.7,6.1,6.1-2.7,6.1-6.1,6.1Z"/>
        <path class="cls-36" d="M239.5,825.3c0-2.6,1.6-4.8,3.9-5.7v-3.4h-17.2c-5,0-9,4-9,9s4,9,9,9h17.2v-3.2c-2.2-.9-3.9-3.1-3.9-5.7ZM227.8,831.4c-3.4,0-6.1-2.7-6.1-6.1s2.7-6.1,6.1-6.1,6.1,2.7,6.1,6.1-2.7,6.1-6.1,6.1Z"/>
        <path class="cls-36" d="M239.5,590.1c0-2.6,1.6-4.8,3.9-5.7v-3.4h-17.2c-5,0-9,4-9,9s4,9,9,9h17.2v-3.4c-2.2-.7-3.9-2.9-3.9-5.5ZM227.8,596.2c-3.4,0-6.1-2.7-6.1-6.1s2.7-6.1,6.1-6.1,6.1,2.7,6.1,6.1-2.7,6.1-6.1,6.1Z"/>
        <rect class="cls-12" x="91.4" y="682.7" width="3.7" height="6.7"/>
        <g>
          <path class="cls-30" d="M82.2,703.5h-31.8c-1.2,0-2.2-1-2.2-2.2v-23.7c0-1.2,1-2.2,2.2-2.2h31.8c1.2,0,2.2,1,2.2,2.2v23.7c0,1.3-1,2.2-2.2,2.2Z"/>
          <path class="cls-37" d="M79.9,701.1h-27.3c-.8,0-1.4-.6-1.4-1.4v-20.4c0-.8.6-1.4,1.4-1.4h27.3c.8,0,1.4.6,1.4,1.4v20.4c0,.8-.6,1.4-1.4,1.4Z"/>
        </g>
        <rect class="cls-12" x="91.4" y="702.6" width="3.7" height="6.7"/>
        <rect class="cls-22" x="100.1" y="688.4" width="4.2" height="6.9"/>
        <g>
          <path class="cls-27" d="M42.3,508.5v-3.6c0-2.2.6-3.9,2.6-3.9s1.9.5,2.2,1.4h0c.3-1.1,1.1-1.9,2.4-1.9,2.1,0,3.1,1.8,3.1,4.1v3.9h-10.4ZM46.4,505c0-1.1-.5-1.5-1.2-1.5s-1.1.5-1.1,1.5v1.1h2.2v-1.1h0ZM50.8,504.7c0-1.2-.4-1.8-1.3-1.8s-1.2.6-1.2,1.8v1.2h2.5v-1.2Z"/>
          <path class="cls-27" d="M47.4,499.3c-3.4,0-5.4-1.9-5.4-4.8s2-4.8,5.4-4.8,5.4,1.9,5.4,4.8-2,4.8-5.4,4.8ZM47.4,492.3c-2,0-3.2.8-3.2,2.2s1.2,2.2,3.2,2.2,3.3-.9,3.3-2.2-1.3-2.2-3.3-2.2Z"/>
          <path class="cls-27" d="M47.4,488.3c-3.4,0-5.4-1.9-5.4-4.8s2-4.8,5.4-4.8,5.4,1.9,5.4,4.8-2,4.8-5.4,4.8ZM47.4,481.3c-2,0-3.2.8-3.2,2.2s1.2,2.2,3.2,2.2,3.3-.9,3.3-2.2-1.3-2.2-3.3-2.2Z"/>
          <path class="cls-27" d="M44.3,475.2v2.8h-2.1v-8.1h2.1v2.8h8.3v2.5h-8.3Z"/>
          <path class="cls-27" d="M51.3,469.4l-1.6-1.3c.6-.7,1-1.7,1-2.6s-.4-1.4-.9-1.4-.8.6-1.2,1.5l-.6,1.3c-.4,1.1-1.3,2.1-2.8,2.1s-3.2-1.6-3.2-3.8.5-2.5,1.3-3.4l1.6,1.3c-.5.7-.8,1.4-.8,2.1s.3,1.3.8,1.3.8-.7,1.2-1.6l.5-1.3c.5-1.3,1.4-2.1,2.8-2.1s3.3,1.5,3.3,4c.2,1.4-.3,2.8-1.4,3.9Z"/>
          <path class="cls-27" d="M42.3,459.8v-6.6h2.1v4.1h2v-3.5h2.1v3.5h2.2v-4.3h2.1v6.8h-10.5Z"/>
          <path class="cls-27" d="M42.3,451v-2.5h8.3v-4h2.1v6.5h-10.4Z"/>
        </g>
        <g>
          <path class="cls-27" d="M141.4,665.7h3c3.2,0,5.3,1.6,5.3,5.2s-2.1,5.2-5.1,5.2h-3.1v-10.4h0ZM144.3,674.1c1.7,0,2.9-.8,2.9-3.2s-1.2-3.2-2.9-3.2h-.4v6.4h.4Z"/>
          <path class="cls-27" d="M151.6,665.7h6.6v2.1h-4.1v2h3.5v2.1h-3.5v2.2h4.3v2.1h-6.8v-10.5Z"/>
          <path class="cls-27" d="M160.4,665.7h3.6c2.2,0,3.9.6,3.9,2.6s-.5,1.9-1.4,2.2h0c1.1.4,1.9,1.2,1.9,2.5,0,2.1-1.8,3.1-4.1,3.1h-3.9v-10.4ZM164,669.8c1.1,0,1.5-.5,1.5-1.2s-.5-1.1-1.5-1.1h-1.1v2.2h1.1ZM164.2,674.2c1.2,0,1.8-.4,1.8-1.3s-.6-1.2-1.8-1.2h-1.2v2.5h1.2Z"/>
          <path class="cls-27" d="M170.1,671.2v-5.5h2.5v5.8c0,2,.6,2.7,1.7,2.7s1.8-.7,1.8-2.7v-5.8h2.4v5.5c0,3.5-1.4,5.1-4.2,5.1s-4.2-1.6-4.2-5.1Z"/>
          <path class="cls-27" d="M180.3,671c0-3.5,2.3-5.5,5.1-5.5s2.6.6,3.3,1.4l-1.3,1.5c-.5-.5-1.1-.7-1.9-.7-1.5,0-2.7,1.2-2.7,3.2s.9,3.3,2.9,3.3.8,0,1-.3v-1.7h-1.7v-2h3.9v4.9c-.7.7-2,1.3-3.5,1.3-2.8-.1-5.1-1.9-5.1-5.4Z"/>
        </g>
        <rect class="cls-10" x="114.2" y="687.1" width="86.4" height="25.6"/>
        <g>
          <path class="cls-27" d="M40.1,401.4h2.5v8.3h4v2.1h-6.5v-10.4Z"/>
          <path class="cls-27" d="M48.4,401.4h6.6v2.1h-4.1v2h3.5v2.1h-3.5v2.2h4.3v2.1h-6.8v-10.5Z"/>
          <path class="cls-27" d="M57.2,401.4h3c3.2,0,5.3,1.6,5.3,5.2s-2.1,5.2-5.1,5.2h-3.1v-10.4h-.1ZM60.1,409.9c1.7,0,2.9-.8,2.9-3.2s-1.2-3.2-2.9-3.2h-.4v6.4h.4Z"/>
        </g>
        <g>
          <rect class="cls-19" x="143.7" y="550.9" width="5.4" height="10.6"/>
          <rect class="cls-28" x="143.7" y="553.2" width="5.4" height="6"/>
        </g>
        <g>
          <rect class="cls-19" x="154.3" y="550.9" width="5.4" height="10.6"/>
          <rect class="cls-28" x="154.3" y="553.2" width="5.4" height="6"/>
        </g>
        <rect class="cls-22" x="127.1" y="552.2" width="4.2" height="6.9"/>
        <rect class="cls-22" x="67.3" y="558.7" width="6.9" height="4.2"/>
        <rect class="cls-28" x="120.5" y="552.2" width="4.2" height="6.9"/>
        <rect class="cls-28" x="110.4" y="552.2" width="4.2" height="6.9"/>
        <path class="cls-36" d="M239.5,531.4c0-2.6,1.6-4.8,3.9-5.7v-3.4h-17.2c-5,0-9,4-9,9s4,9,9,9h17.2v-3.3c-2.2-.9-3.9-3.1-3.9-5.6ZM227.8,537.4c-3.4,0-6.1-2.7-6.1-6.1s2.7-6.1,6.1-6.1,6.1,2.7,6.1,6.1-2.7,6.1-6.1,6.1Z"/>
        <g>
          <rect class="cls-19" x="172.6" y="520.2" width="5.6" height="11.9"/>
          <rect class="cls-14" x="172.6" y="522.9" width="5.6" height="6.6"/>
        </g>
      </g>
      <sodipodi:namedview id="namedview199" bordercolor="#666666" borderopacity="1" gridtolerance="10" guidetolerance="10" inkscape:current-layer="svg4098" inkscape:cx="305.38232" inkscape:cy="465.64517" inkscape:pageopacity="0" inkscape:pageshadow="2" inkscape:window-height="1017" inkscape:window-maximized="1" inkscape:window-width="1920" inkscape:window-x="-8" inkscape:window-y="-8" inkscape:zoom="0.25341184" objecttolerance="10" pagecolor="#ffffff" showgrid="false"/>
      <rect id="rect1707" class="cls-29" x="231.8" y="467.1" width="144.9" height="11.3"/>
      <rect id="rect1715-4" class="cls-26" x="186.4" y="408.2" width="11.3" height="104.3"/>
      <circle id="circle281" class="cls-26" cx="232.3" cy="413.8" r="11.9"/>
      <circle id="circle281-2" class="cls-29" cx="232" cy="472.8" r="11.6"/>
      <rect id="rect1727" class="cls-26" x="186.4" y="408.2" width="45.4" height="11.3"/>
      <rect id="rect1727-7" class="cls-26" x="186.4" y="501.1" width="220.8" height="11.3"/>
      <g id="layer1">
        <rect id="rect815" x="279.3" y="53.1" width="176.7" height="237.4"/>
        <rect id="rect821" class="cls-27" x="324.8" y="254.3" width="91.9" height="31.6"/>
        <path id="rect825" class="cls-38" d="M330.8,256.1h18.4c3.2,0,5.8,2.6,5.8,5.8v16.2c0,3.2-2.6,5.8-5.8,5.8h-18.4c-3.2,0-5.8-2.6-5.8-5.8v-16.2c0-3.2,2.6-5.8,5.8-5.8Z"/>
        <path id="rect872" class="cls-38" d="M392.2,256.1h18.4c3.2,0,5.8,2.6,5.8,5.8v16.2c0,3.2-2.6,5.8-5.8,5.8h-18.4c-3.2,0-5.8-2.6-5.8-5.8v-16.2c0-3.2,2.6-5.8,5.8-5.8Z"/>
        <path id="rect874" class="cls-38" d="M360.7,256.1h19.9c2.8,0,5.1,2.3,5.1,5.1h0v17.7c0,2.8-2.3,5.1-5.1,5.1h-19.9c-2.8,0-5.1-2.3-5.1-5.1v-17.7c.1-2.8,2.3-5.1,5.1-5.1h0Z"/>
        <rect id="rect947" class="cls-8" x="338.3" y="271.2" width="3.3" height="58"/>
        <rect id="rect949" class="cls-8" x="369.2" y="271.2" width="3.3" height="58"/>
        <rect id="rect951" class="cls-8" x="399.7" y="271.2" width="3.3" height="58"/>
        <circle id="path1456" class="cls-6" cx="307.7" cy="142.4" r="16.1"/>
        <circle id="ellipse1458" class="cls-6" cx="433.2" cy="142.4" r="16.1"/>
        <circle id="path1460" class="cls-9" cx="307.7" cy="142.4" r="14.5"/>
        <circle id="ellipse1464" class="cls-9" cx="433.2" cy="142.4" r="14.5"/>
        <rect id="rect87" x="307.8" y="221.1" width="125.8" height="31.6"/>
        <circle id="path91" class="cls-6" cx="324.6" cy="242" r="11.8"/>
        <circle id="circle93" class="cls-6" cx="416.3" cy="242" r="11.8"/>
        <path id="rect95" class="cls-6" d="M334,193.8h7.8c4.3,0,7.8,3.5,7.8,7.8v19.6c0,4.3-3.5,7.8-7.8,7.8h-7.8c-4.3,0-7.8-3.5-7.8-7.8v-19.6c-.1-4.3,3.4-7.8,7.8-7.8Z"/>
        <path id="rect97" class="cls-6" d="M400.6,193.8h7.8c4.3,0,7.8,3.5,7.8,7.8v19.6c0,4.3-3.5,7.8-7.8,7.8h-7.8c-4.3,0-7.8-3.5-7.8-7.8v-19.6c0-4.3,3.5-7.8,7.8-7.8Z"/>
        <circle id="circle99" class="cls-6" cx="347.7" cy="180.4" r="11.8"/>
        <circle id="circle101" class="cls-6" cx="394.8" cy="180.4" r="11.8"/>
        <circle id="ellipse103" class="cls-9" cx="321.4" cy="179.6" r="14.5"/>
        <circle id="ellipse105" class="cls-9" cx="421" cy="179.6" r="14.5"/>
        <path id="rect111" class="cls-6" d="M334,129.4h7.8c4.3,0,7.8,3.5,7.8,7.8v19.6c0,4.3-3.5,7.8-7.8,7.8h-7.8c-4.3,0-7.8-3.5-7.8-7.8v-19.6c-.1-4.2,3.4-7.8,7.8-7.8Z"/>
        <path id="rect113" class="cls-6" d="M400.6,129.4h7.8c4.3,0,7.8,3.5,7.8,7.8v19.6c0,4.3-3.5,7.8-7.8,7.8h-7.8c-4.3,0-7.8-3.5-7.8-7.8v-19.6c0-4.2,3.5-7.8,7.8-7.8Z"/>
        <circle id="circle115" class="cls-9" cx="337.9" cy="210.4" r="10.8"/>
        <circle id="circle117" class="cls-9" cx="404.6" cy="210.4" r="10.8"/>
        <circle id="circle119" class="cls-9" cx="324.6" cy="242" r="9.8"/>
        <circle id="circle121" class="cls-9" cx="416.3" cy="242" r="9.8"/>
        <circle id="circle123" class="cls-9" cx="337.9" cy="210.4" r="10.8"/>
        <circle id="circle125" class="cls-9" cx="337.9" cy="146.1" r="10.8"/>
        <circle id="circle127" class="cls-9" cx="404.6" cy="146.1" r="10.8"/>
        <circle id="circle129" class="cls-6" cx="323" cy="102" r="11.8"/>
        <circle id="circle131" class="cls-9" cx="323" cy="102" r="9.8"/>
        <circle id="circle133" class="cls-6" cx="419.5" cy="102" r="11.8"/>
        <circle id="circle135" class="cls-9" cx="419.5" cy="102" r="9.8"/>
        <path id="path31-1" class="cls-27" d="M333.2,75.1c1.1,0,1.2,0,1.4-.2.1,0,.3-.2.3-.3.1-.2.1-.3.1-2.6v-2.4h4.6v3c0,3.3,0,3.6-.4,4.4-.4,1.1-1.3,1.8-2.4,1.9-.7,0-1.4,0-2.1,0s-1.9,0-2.3,0h-.6v-3.9h1.4ZM355.4,81.7c19.9,0,24.8,0,24,0h-.1.1c.1,0,.1.2-.1.2s-.1,0,.2,0h.4-.4c-.2,0-.4,0-.3,0s.1,0,.1.6,0,.5.2.6q.1,0-.1,0c-.1,0-.3,0-.3,0,0,0-7.9,0-23.6,0h-23.5v-1.7h23.4ZM337.5,63.5h2.4v3.8h-4.7v-3.8s2.3,0,2.3,0ZM342.2,70.6c.1-1,.4-2,.9-2.9.1-.2.2-.4.3-.6.1,0,.2-.2.3-.4.3-.4.6-.8.9-1.1h.1c.3-.5.7-.8,1-1,.5-.4,1.1-.7,1.7-.9.9-.4,1.9-.5,2.8-.4.6,0,1.1,0,1.7.2.3,0,.8.2.9.3s.2,0,.4,0c.2,0,.4.2.6.3,1.4.9,2.5,2.2,3.3,3.7.9,1.9,1,4,.3,6-.2.6-.5,1.2-.9,1.8-.4.6-.8,1.2-1.4,1.6-.9,1-2.1,1.6-3.3,1.9-1,.2-2,.3-3,.2-1.2-.2-2.2-.7-3.2-1.4-.4-.3-.7-.6-1-.9-.1,0-.2-.2-.3-.4-1-1.1-1.7-2.5-2-3.9,0-.7,0-1.4,0-2.2h0ZM346.7,72.6c.2.9.7,1.7,1.4,2.3.8.7,1.8.9,2.8.6,1.2-.5,2.2-1.6,2.5-2.9.2-.9.2-1.8,0-2.6-.3-1-.8-1.8-1.6-2.4-.3-.2-.6-.3-.9-.4-.7-.2-1.5,0-2.2.2-.6.4-1.2,1-1.5,1.7-.6,1-.8,2.3-.5,3.5h0ZM359.9,63.6h4.7v2.1c0,2,0,2.1.1,2.5.4.9,1.4,1.4,2.4,1.1.5,0,.8-.5,1-.9l.2-.4v-4.4h4.7v2.5c.1,1,0,2-.2,3-.2.9-.6,1.7-1.2,2.4-.1,0-.2.2-.2.4-.3.4-.7.7-1.1,1s-.9.6-1.4.7c-.1,0-.4,0-.7.2-.5.2-1.1.2-1.7.2-.6,0-1.2,0-1.8-.2-.7,0-1.3-.4-1.9-.8-.7-.5-1.3-1.1-1.8-1.8-.6-.9-1-1.9-1.1-3,0-1.6,0-3.1,0-4.6h0ZM366.5,75.1h3.8v4h-7.7v-4h3.9ZM373.1,60.5s.1,0,.1-.2q0-.2.3-.3h28.7v1.6h-28.9c-.1,0-.1,0-.1-.6-.2-.3-.2-.5-.1-.5h0ZM379.6,70h4.9v3.9h-9.8v-3.9h4.9ZM388.3,63.5h2.4v3.8h-4.7v-3.8s2.3,0,2.3,0ZM388.3,69.4h2.4v9.9h-4.7v-9.9h2.3ZM397.7,63.5h4.9v3.8h-9.9v-3.8s5,0,5,0ZM393.6,69.7h4.6v2.3c0,3.2-.1,3,2.3,3h1.5v4h-.6c-1.4.2-2.8.2-4.3,0-1,0-1.9-.5-2.6-1.2-.6-.7-.9-1.6-1-2.5,0-.8,0-5.7.1-5.7h0ZM405.4,61.7c.1-.4.3-.8.6-1,.9-.9,2.4-1,3.4-.3.4.2.7.6.8,1,.2.3.2.7.2,1s0,.7-.2,1.1c-.4.8-1.2,1.4-2.1,1.4-.8,0-1.6-.2-2.1-.8-.6-.7-.8-1.6-.6-2.4h0ZM405.9,63.3c.3.6.9,1,1.6,1.2s1.5,0,2-.5c.2-.2.4-.4.5-.6.2-.3.2-.6.2-1s0-.7-.2-1c-.1-.3-.3-.5-.6-.7-.2-.2-.5-.3-.7-.4-1.1-.3-2.3.2-2.8,1.3-.2.5-.2,1.1,0,1.7h0ZM407.6,60.8c.3,0,.7,0,1,0,.4.3.5.8.3,1.2-.1,0-.2.2-.3.2h-.2c0,0,.2.3.2.3.2.2.3.4.4.6.1,0,.2.3.3.4.1,0,0,.2-.2,0h-.3l-.4-.6c-.4-.6-.5-.7-1-.7h-.3v1.3h-.4v-3h.9ZM407.7,62.1c.5,0,.6,0,.7,0,.3-.3.2-.7-.4-.8h-.9v.8h.6Z"/>
        <rect id="rect84" class="cls-8" x="346.1" y="41.2" width="3.3" height="139.2"/>
        <rect id="rect86" class="cls-8" x="393.2" y="41.2" width="3.3" height="139.2"/>
        <rect id="rect88" class="cls-7" x="351.6" width="39.2" height="43.1"/>
        <path id="path90" class="cls-7" d="M352.1,43.1c-7.7,0-14.8-4.1-18.7-10.8s-3.9-14.9,0-21.6,11-10.7,18.7-10.7"/>
        <path id="path92" class="cls-7" d="M390.3,43.2c7.7,0,14.8-4.1,18.7-10.8s3.9-14.9,0-21.6-11-10.8-18.7-10.8"/>
        <circle id="path94" class="cls-3" cx="338.5" cy="21.6" r="3.9"/>
        <circle id="ellipse96" class="cls-3" cx="403.8" cy="21.6" r="3.9"/>
        <rect id="rect98" class="cls-5" x="339.6" y="4" width="50.3" height="2"/>
        <path id="path102" class="cls-5" d="M389.8,4c1.4,0,2.7.7,3.4,2s.7,2.7,0,3.9-2,2-3.4,2"/>
        <rect id="rect106" class="cls-5" x="350.9" y="9.9" width="39.2" height="2"/>
        <path id="path114" class="cls-5" d="M350.9,9.9c-1.4,0-2.7.7-3.4,2s-.7,2.7,0,3.9c.7,1.2,2,2,3.4,2"/>
        <rect id="rect116" class="cls-5" x="350.9" y="15.8" width="39.2" height="2"/>
        <path id="path118" class="cls-5" d="M389.8,15.8c1.4,0,2.7.7,3.4,2,.7,1.2.7,2.7,0,3.9-.7,1.2-2,2-3.4,2"/>
        <rect id="rect120" class="cls-5" x="350.9" y="21.7" width="39.2" height="2"/>
        <path id="path122" class="cls-5" d="M350.9,21.7c-1.4,0-2.7.7-3.4,2-.7,1.2-.7,2.7,0,3.9.7,1.2,2,2,3.4,2"/>
        <rect id="rect124" class="cls-5" x="350.9" y="27.5" width="39.2" height="2"/>
        <path id="path126" class="cls-5" d="M389.8,27.6c1.4,0,2.7.7,3.4,2,.7,1.2.7,2.7,0,3.9s-2,2-3.4,2"/>
        <rect id="rect128" class="cls-5" x="350.9" y="33.4" width="39.2" height="2"/>
        <path id="path130" class="cls-5" d="M350.9,33.4c-1.4,0-2.7.7-3.4,2-.7,1.2-.7,2.7,0,3.9s2,2,3.4,2"/>
        <path id="path134" class="cls-7" d="M351.1,35.4c-.7,0-1.5.4-1.9,1s-.4,1.4,0,2,1.1,1,1.9,1"/>
        <path id="path136" class="cls-7" d="M351.1,23.6c-.7,0-1.3.4-1.7,1-.4.6-.4,1.4,0,2s1,1,1.7,1"/>
        <path id="path138" class="cls-7" d="M351.1,11.9c-.7,0-1.3.4-1.7,1s-.4,1.4,0,2,1,1,1.7,1"/>
        <path id="path140" class="cls-7" d="M389.6,6c.7,0,1.5.4,1.9,1s.4,1.4,0,2-1.1,1-1.9,1"/>
        <path id="path142" class="cls-7" d="M389.6,17.7c.7,0,1.5.4,1.9,1s.4,1.4,0,2-1.1,1-1.9,1"/>
        <path id="path144" class="cls-7" d="M389.6,29.5c.7,0,1.5.4,1.9,1s.4,1.4,0,2c-.4.6-1.1,1-1.9,1"/>
        <rect id="rect100" class="cls-5" x="350.8" y="39.3" width="48.3" height="2"/>
        <path id="path1241" class="cls-5" d="M402.5,39.4h.1c0,0-.1,0-.1,0h0q-.1,0,0,0t0,0,0,0h0s-.1,0,0,0h0q-.1,0,0,0c-.1,0-.1-.1,0,0q-.1-.1,0,0t0,0h0q-.1,0,0,0h0q-.1,0,0,0h0q-.1,0,0,0h0q-.1,0,0,0h0q-.1,0,0,0h0q-.1,0,0,0t0,0,0,0,0,0,0,0c-.1,0-.2,0,0,0q-.1,0,0,0t0,0,0,0c-.2,0-.1,0,0,0h-.1q0,0-.1,0h.2c-.1,0-.1,0,0,0h-.2s-.1,0-.1,0h0s-.1,0,0,0,.1,0,.2,0h.1c-.2,0-.1,0,0,0h-.1q0,0-.1,0h-.2.4c-.1,0-.1,0-.1,0h-.3q0,0-.1,0h0c.1,0,0,0,0,0h.1s.1,0,0,0h-.1.2-.1.1-.1.1-.2.1-.1.1-.2.2-.1.1-.1.1-.2.2c-.1,0,0,0,0,0h-.1.2-.1.1c.1,0,0,0,0,0h.1-.2c-.1,0,0,0,0,0h-.1.2-.1c.1,0,0,0,0,0h.1-.1.1-.2.1s-.1,0,0,0h-.1.2-.1.2-.1.1-.2c.1,0,0,0,0,0h.3-.2c.1,0,0,0,0,0h.3-.3c.1,0,0,0,0,0h.2-.1.4-.1.1-.3.2-.2.2c-.1,0,0,0,0,0h-.1c.1,0,0,0,0,0h-.1s-.1,0,0,0h0c.1,0,0,0,0,0h0c.1,0,0,0,0,0h0c.1,0,0,0,0,0h.1s-.1,0,0,0h-.4.1-.1c.1,0,0,0,0,0h.1-.1.2-.1.1-.1.1-.2.1-.2c-.1,0-.2,0-.2,0h-.1c.1,0,0,0,0,0h.3-.1c.1,0,0,0,0,0h-.1c.1,0,0,0,0,0h-.1.1-.1.4-.1s-.1,0,0,0h.2-.2.2-.1.1-.1.1-.1s.1,0,.1,0h0s0,0,.1,0h.1q0,0,.1,0h-.3.3-.2.2-.3.3-.1.2s.1,0,0,0h.1-.1.1-.1.3-.1.1-.1.1-.2.1-.1.1-.2.2-.2.1-.1.1-.1.2-.3.2-.4.2-.2c.1,0,0,0,0,0,0,0,0,0-.1,0h-.1c0,0-.1,0-.1,0h.2-.1.2-.1.1-.3.2-.1.1-.1.1s-.1,0,0,0h-.2.3-.1c.1,0,0,0,0,0h-.3.1-.1s-.1,0,0,0h.1c-.1,0,0,0,0,0h.2-.4.2c.1,0,.2,0,.2,0h.2-.1.2-.2.2-.2.2-.1.2-.2.2-.1.1-.1s.1,0,0,0h.1-.1.1c.1,0,0,0,0,0h.4-.3.1q0,0,.1-.2h-.1.1-.2.1q0,0-.1,0h.1-.1.2c-.1,0,0,0,0,0h.2-.4.1-.2.4-.1.1-.2.2-.2.2-.1.2-.4.2-.2.3-.2.2-.2.3-.1.1q0,0-.1,0h-.2.2-.1.4-.2.2-.3.2-.1.2-.2.2-.2.1-.2.4-.2s.1,0,.1,0h-.1.2-.3.1-.1.2-.3.1-.1.1-.3.2-.1.2-.2.1-.1.3-.2.1s0,0,0,0h-.1.2-.1.1-.2.1-.3.3-.1.2-.1.1-.1.2-.1.1-.1.3-.1.1-.2.2-.2.2s0,0-.1,0h0c0,0,.1-.2.1-.2h.1s.1,0,.1,0h-.1q0,0-.1.2h0s.1,0,.1,0h.1-.1s0,0,.1,0h.1c-1.5.8-1.4.8-1.3.8h-.2s-.1,0,0,0h-.1c0,0-.1,0-.1.2h.1-.2s.1,0,.1,0q.2,0,.4,0h-.1q0-.1.1,0c-.1,0-.1,0-.1,0-.1,0-.1,0-.2,0h-.1s.1,0,.1,0c.1,0,.1,0,.2,0h.1c0,0,0,0,0,0h-.1q0,0-.1,0h.2q-.1-.1,0,0c-.1-.1-.1,0,0,0q-.1,0,0,0t0,0h-.1.1c-.1,0,0,0,0,0h0q-.1,0,0,0t0,0h-.1.1q-.1,0,0,0t0,0,0,0h0q-.1,0,0,0h-.1.1q0-.1,0,0h0q-.1,0,0,0h0q0-.1,0,0h.1-.1c.2,0,.1,0,.1,0h-.1c.1,0,0,0,0,0h0ZM399.7,41s-.1,0,0,0h0c-.1,0-.1,0,0,0-.1,0,0,0,0,0h0q0,0,0,0h0q0,0,0,0h0c-.1,0,0,0,0,0h0s0,0,0,0h0c0,0,0,0,0,0q0,0,0,0h0c-.1,0,0,0,0,0q0,0,0,0h0q0,0,0,0h0q0,0,0,0,0,0,0,0c0,0,0,0,0,0h0q0,0,0,0,0,0,0,0,0,0,0,0h0q0,0,0,0h0c0,0,0,0,0,0h0q0,0,0,0h0q0,0,0,0h0c0,0,.1,0,0,0h0c0,0-.1,0,0,0h0q0,0,0,0h0q-.1,0,0,0h0ZM399.7,41h0s.2-.2.8-.5c.9-.5,1.1-.6,1.2-.7h.3s.1,0,.3-.2l.2-.2h.2s-.1,0-.2,0-.2,0-.3,0-.2,0-.4.2-.3.2-.3.2c0,0-.2,0-.3.2l-.5.3h-.1c0,0-.1.2-.2.2s-.1,0-.2,0h-.1c-.3.2-.4.2-.4.2h0ZM401.4,40l1.1-.7M400.4,40.6l1.3-.8M399.9,40.9l1.9-1.1M399.7,41l2.2-1.3M401.3,40h0s0,0,0,0h0c0,0,.1,0,0,0h0c.1,0,.1,0,0,0q.1,0,0,0h0q.1,0,0,0h.1q0,0,0,0h0c-.1,0,0,0,0,0h0q0,0-.1,0c.2,0,.1,0,.1,0,0,0,0,0-.1,0h.1c0,0-.1,0-.1,0q.1,0,0,0c.1,0,.1,0,0,0h0q.1,0,0,0t0,0h0c0,0,0,0,0,0h.1c0,0,0,0-.1,0q.1,0,.1-.2h0s.1,0,0,0h0q0,0,0,0h0c0,0,0,0,0,0h0s-.1,0,0,0h0q0,.1-.1.2t0,0h0c.1,0,.1,0,0,0h0c.1,0,.1,0,0,0q.1,0,0,0h0q0,0,.1,0h-.1c0,0,.1,0,.1,0h.1s-.1,0-.1,0h-.1q.1,0,0,0h.1q0,0-.1,0h0q.1,0,0,0c.1,0,.1,0,0,0h.1q0,0,.1,0h-.1c0,0-.1,0-.1,0q.1,0,0,0h0q0,0,.1,0h-.1q.1,0,0,0c.1,0,0,0,0,0h0c0,0,.1,0,0,0q.1,0,0,0t0,0h0c0,0,0,0,0,0h0q0,0,0,0h0ZM399.9,40.8h0q0,0,0,0h0q.1,0,0,0t0,0h0c.1,0,0,0,0,0h.1c0,0,0,0,0,0h-.1.1s0,0,.1,0h0q0,0,0,0h0s.1,0,0,0h0v.2h0s0,0,.1,0h0q0,0,0,0s0,0,.1,0h0v.2h0v-.2h0q0,0,0,0h0v-.2h0c0,0,.1,0,.1,0h0c0,0,0,0,.1,0h-.1c0,0,0,0,.1,0h0q0,0,0,0h0q0,0,.1,0h0v.2h0q0,0,.1-.2h0c0,0,.1-.2.1-.2h-.2q0,0,0,0h.1c0,0,.1,0,0,0h0c0,0,0,0,.1,0h0c0,0,0,.2-.1.2h.1c0,0-.1,0-.1,0h-.1.1q0,0-.1,0h-.1c0,0,.1,0,.1,0h.1q0,0,0,0h.1c0,0,0-.2.1-.2h-.1q0,0-.1,0h0s0,0,.1,0h0s0,0,.1,0h0s0,0-.1,0h0s0,0,.1,0h0s-.1,0-.1,0h-.1c0,0-.1.2-.1.2h0s0,0,.1,0h.1c0,0,.1,0,.1,0h0q0,0,0,0h0s0,0-.1,0h0q0,0,0,0h0v-.2h0c0,0-.1,0,0,0h0c-.1,0,0,0,0,0h0s.1,0,0,0h0v-.2h.2c0,0-.1,0,0,0h0q0,0,0,0h0c0,0,0,0,0,0h0q0,0,0,0h0q0,0,0,0h0c-.1,0,0,0,0,0h0s.1,0,0,0h0c-.1,0,0,0,0,0h0c.1,0,0,0,0,0h-.2.2-.1.1-.1.2-.1q0,0-.1,0h.1s.1,0,.1,0h-.1.2-.1.1-.1.1c0,0-.1,0-.1,0h.2s-.1,0-.1,0h0s.1,0,.1,0h-.1s-.1,0-.1,0h.1s-.1,0-.1,0h.1-.1.1-.3s0,0,.1,0h-.1s0,0,.1,0h0q0,0,0,0h0q0,0,.1,0h0q0,0-.1,0h0v-.2h0c0,0-.1,0-.1,0h0v.2h0s0,0,.1,0h0s-.1,0,0,0h0c0,0,0,0,0,0h0c0,0,0,.2-.1.2h0q0,0-.1,0h0s.1,0,0,0h0q.1,0,0,0h-.2c0,0,.1,0,.1-.2h0q0,0,0,0h-.2c0,0,0,0-.1,0h.1c0,0,.1-.2.1-.2h.1c0,0,0,0-.1,0h-.1s0,0,.1,0h0s0,0-.1,0h-.1s0,0-.1,0h.1c0,0,0,0-.1,0h-.1q0,0,0,0h0s-.1,0-.1,0h-.1q0,0,.1,0h.1q0,0,0,0h0s0,0-.1,0h0s0,0,.1,0h-.1c0,0,0,0,.1,0h0q0,0-.1,0h-.1q0,0,.1,0h-.1q0,0-.1,0h0q0,0,.1,0h0q0,0-.1.2h0c0,0,0,0,0,0h0q0,0,0,0h0v-.2h0c0,0,0,.2-.1.2h-.1v-.2h.1s0,0-.1,0h-.1c0,0,0,0,0,0h0v-.2h0q0,0,0,0h0q0,0,0,0h0v.2h0q0,0,0,0h0s0,0-.1,0h0c0,0,0,0-.1,0h0c0,0,0,0-.1,0h-.1q0,0-.1,0h0q0,0,0,0h.1c0,0,0,0,0,0h0s0,0-.1,0h0q.9,0,.8,0h.1c0,0,0,0,0,0h-.1q0,0,0,0h0ZM400.1,40.7h0c0-.1,0,0,0,0h0q0-.1,0,0h0c0-.1,0,0,0,0h0s0-.1,0,0h0q0-.1,0,0t0,0h0q0-.1,0,0h0c0-.1-.1-.1,0,0h0q-.1,0,0,0h-.1.1q-.1,0,0,0h0q-.1,0,0,0t0,0h-.1q0,0,.1,0c-.1,0,0,0,0,0-.1,0-.1,0,0,0h0q-.1,0,0,0h-.1.1s-.1,0,0,0h-.1c-.1,0,0,0,0,0h.1q-.1,0,0,0h0q-.1,0,0,0h-.1.1-.1c0,0-.1,0-.1,0h-.1q0,0,0,0h0q0,0,0,0h0c0,0,0,0,0,0h0q0,0,0,0h0q0,0,0,0h0q0,0,0,0h0v-.2h0q0,0,0,0h0v.2h0c0,0,0,0,0,0h0v-.2h0q0,0,0,0h0c0,0,0,0,0,0h0c0,0,0,0,0,0h0q0,0,0,0h0q0,0,0,0h0c0,0,0,0,0,0h0q0,0,0,0h0c0,0,0,0,0,0h0q0,0,0,0h0c0,0,0,0,0,0h0q0,0,0,0h0c0,0,0,0,0,0h0c0,0,0,0,0,0h0v.2h0c0,0,0,0,0,0h0c0,0,0,0,0,0h0q0,0,0,0h0v-.2h0c0,0,0,0,0,0h0q0,0,0,0h0q0,0,0,0h0q0,0,0,0h0v.2h0v-.2h0q0,0,0,0h0c0,0,0,0,0,0h0q0,0,0,0h0c0,0,0,0,0,0h0q0,0,0,0h0q0,0,0,0h0q0,0,0,0h0q0,0,0,0h0c0,0,0,0,0,0h0c0,0,0,0,0,0h0v.2h0q0,0,0,0h0c0,0,0,0,0,0h0c0,0,0,0,0,0h0q0,0,0,0h0c0,0,0,0,0,0h0q0,0,0,0h0q0,0,0,0h0q0,0,0,0h0q0,0,0,0h0c0,0,0,0,0,0h0c0,0,0,0,0,0h0q0,0,.1,0h.1q0-.2.1-.2t0,0h-.1q0,0-.1,0h.2c0,0-.1,0,0,0h-.1.1c-.1,0,0,0,0,0h-.1q0,0,0,0h0q0-.1.1,0h0c0-.1,0,0,0,0h-.1.1q-.1,0,0,0h-.1.1c-.1,0-.1-.1,0,0h0q0-.1,0,0t0,0h0q0-.1,0,0t0,0,0,0h0s0-.1,0,0q0-.1,0,0c0-.1,0,0,0,0h0q0-.1,0,0h0s0-.1,0,0h0ZM399.4,41h0q0,0,0,0h0q-.1,0,0,0h0c-.1,0,0,0,0,0h.1-.1q-.1,0,0,0h0c-.1,0,0,0,0,0h.1-.1q-.1,0,0,0h.2-.2.2-.2.2-.2.2-.2.2-.2.2-.2.2-.1.1-.1.1-.2.1-.1c.1,0,0,0,0,0h.2-.2c.1,0,.2,0,.2,0h-.2.1c0,0,.1,0,.1,0h.1-.2.2-.1.1-.1.1-.2.2-.3.1-.1.2-.2.2-.2.2-.2.1-.1q-.1,0,0,0h.1-.1.1-.1s-.1,0,0,0q-.1,0,0,0h0q0,0,0,0h0s-.1,0,0,0h0ZM399.2,41.2h0c0,0,0-.1,0,0h0s0-.1,0,0h0s0-.1,0,0h0c0,0,0,0,0,0h0q0-.1,0,0h0q0-.1,0,0h.1q0,0-.1,0h0q0,0,0,0h0c0-.1,0-.1,0,0h0q0-.1,0,0h0c0-.1,0,0,0,0h0q0,0,0,0h0q0-.1,0,0t0,0h.1q0,0,.1,0h-.1s0,0-.1,0h.1c0,0-.1,0-.1,0q0-.1,0,0h0q0-.1,0,0h0q0-.1,0,0h0q0-.1,0,0h0q0-.1,0,0h-.1q.1-.1.1,0h0c0-.1,0,0,0,0h0c0,0,0,0,0,0h0q0,0,0,0h0ZM400.7,39.4h.8s.1,0,0,0h-.9c0,0-.1,0-.1,0h-.1s-.1,0,0,0h.7-.8.2q.1,0,.2,0h.8-.8c0,0,0,0,0,0h0ZM402.3,39.5h0s0,0,0,0h0s0,0,0,0h0ZM399.3,41.2h0q0-.1,0,0h0q0-.1,0,0h0s0-.1,0,0h0c0,0,.1,0,.1,0h-.1s0,0,0,0h0c0-.1,0,0,0,0h0q0-.1,0,0c0-.1,0,0,0,0h0ZM401.4,40q-.1,0,0,0h-.1.1q-.1,0,0,0h0q-.1,0,0,0-.1,0,0,0h-.1.1q-.1,0,0,0-.1,0,0,0h-.2s-.1,0,0,0h0q-.1,0,0,0h.1c0,0,.1,0,.1,0-.1,0-.1,0-.1,0h0c0,0,0,0,.1,0h0c-.1,0-.1,0,0,0h0c-.2,0-.1,0-.2,0h-.1c-.1,0-.1,0,0,0h.2-.1q.1,0,0,0h0s.1,0,0,0h-.1c.1,0,0,0,0,0h0q-.1,0,0,0h0q.1,0,0,0h0q-.1,0,0,0h.2c-.1,0,0,0,0,0h-.1c.1,0,.1,0,0,0h0c.1,0,0,0,0,0h-.1q.1,0,0,0h-.2s-.1,0,0,0h0q-.1,0,0,0h0q.1,0,0,0h0s.1,0,0,0h0q.1,0,0,0h-.2c-.1,0-.1,0,0,0h0q.1,0,0,0h0s.1,0,0,0h-.1q.1,0,0,0h-.1s-.1,0,0,0h-.1q-.1,0,0,0h0c.1,0,.1,0,0,0h-.5.1s.1,0,0,0h-.1.1-.2.1-.2s.1,0,0,0h-.1.1-.3q.1,0,0,0h.1s-.1,0,0,0h0q-.1,0,0,0h-.1s.1,0,0,0h0c-.1,0,0,0,0,0h-.1c.1,0,0,0,0,0h0q-.1,0,0,0h-.1s-.1,0,0,0h0s.1,0,0,0h-.1s.1,0,0,0h0c.1,0,.1,0,0,0h.1-.1c-.1.2,0,0,0,0h.1-.1.1-.1q.1,0,0,0h0c-.1,0-.1,0,0,0h-.1c.1,0,0,0,0,0h0q-.1,0,0,0h.1-.2s-.1,0,0,0h0c-.1,0-.1,0,0,0h0q.1,0,0,0h0q-.1,0,0,0h-.1.1q0,0-.1,0h.1s-.1,0-.1,0h.2-.1.1-.1s.1,0,.1,0h.1s-.1,0-.1,0h.1c0,0-.1,0-.1,0h.1q0,0,.1,0h-.1.1q0,0-.1,0h.2s-.1,0-.1,0h0s0,0,.1,0c0,0,.1,0,.1,0h-.2.1s-.1,0-.1,0h-.1.2-.2.1-.2s.1,0,.1,0h-.1.1q0,0,.1,0h0s-.1,0-.1,0h.1c0,0-.1,0-.1,0h.2-.2.1-.1q0,0-.1,0h.1c-.1,0-.1.2-.1,0h0c0,0,.1,0,.1,0h.1s-.1,0-.1,0h.1-.1s0,0,.1,0h-.1.3-.1.1q0,0,.1,0h-.1.1c0,0,0,0-.1,0h.1c0,0,0,0-.1,0h.2-.1c0,0,.1,0,.1,0h.1s-.1,0-.1,0h.2s-.1,0-.1,0h.1c0,0-.1,0-.1,0h.1-.1.1s-.1,0-.1,0h.1q0,0-.1,0h.1c0,0-.1,0-.1,0h.1-.1.2s-.1,0-.1,0h.1-.1s.1,0,.1,0h-.1s.1,0,.1,0h-.1.1q0,0-.1,0h.1-.1.1q0,0-.1,0h.2-.1q0,0-.1,0h.1-.2.1-.1.1c0,0,.1,0,.1,0,0,0,.1,0,0,0h-.1.1q0,0,.1,0h-.2.1-.1.1-.1.2q1.3,1.2,1.4,1.1h-.1c0,0,0,0,.1,0q-.1,0,0,0h-.1q0,0-.1,0h0s0,0,.1,0h.1q-.1,0,0,0h-.1q0,0-.1,0h.2-.1.1q-.1,0,0,0-.1,0,0,0h0q-.1,0,0,0h-.1q0,0,.1,0-.1,0,0,0-.1,0,0,0-.1,0,0,0-.1,0,0,0-.1,0-.1,0h.1q-.1,0,0,0h0ZM402.4,39.4s-.1,0,0,0c-.1,0-.2,0,0,0q-.1,0,0,0c-.1,0-.1,0-.1,0h-.1s-.1,0-.1,0h.2c0,0,0,0,.1-.2h0c0,0,0,0,0,0h0c0,0,0,0,0,0q-.1,0,0,0h0q-.1,0-.2,0h.2q-.1,0,0,0h0c-.1,0-.1,0,0,0h0c-.1,0,0,0,0,0h0q-.1,0-.1,0h0q0,0,.1,0h0s-.1,0,0,0q-.1,0-.2,0c-.1,0-.1,0-.2,0s-.1,0-.2,0h-.1c.1,0,.1,0,.2,0h0s.1,0,.1,0h0s-.1,0,0,0h-.1q0,0,.1,0h.1c0,0,.1-.2.2-.2h-.1c0,0-.1,0-.1,0h.1c-.1,0,0,0-.1,0s-.1,0-.2,0h0s.1,0,.1,0h0c.1,0,.1,0,.2,0h-.1c.2,0,0,0,0,0h.2-.1c0,0-.1,0-.1,0h-.1.1c-.1,0-.1,0-.2,0h-.1c.1,0,0,0,.1,0h.1c.1,0,.1-.2.2-.2h0c-.1,0-.1,0-.2,0-.1,0-.1,0-.1,0h0c.1,0,.1,0,.2,0,0,0,.1,0,.1,0h0s.1,0,0,0h0s-.1,0-.1,0h-.1c-.1,0,0,0,0,0h-.1.1c-.2,0,0,0,0,0h-.1.1c-.2,0,0,0,0,0h-.2.1s.1,0,.1,0h-.1.1s.1,0,0,0h-.3q0,0-.1,0h-.1c.1,0,0,0,0,0h0s.1,0,0,0h0q.1,0,0,0h.1-.1c.1,0,0,0,0,0h0c-.1,0-.1,0-.1,0h0q.1,0,0,0h0q-.1,0,0,0h.1c-.1,0,0,0,0,0h0q.1,0,0,0h0s-.1,0,0,0h-.1.1-.1.1-.1.1q0,0-.1,0h.1-.1q0,0-.1,0h0s.1,0,.1,0h-.1q0,0-.1,0h.1-.1c0,0,.1,0,.1,0h.1-.2s.1,0,.1,0h.1-.1s.1,0,.1,0h.1-.1.1c0,0,.1,0,.1-.2h-.1.1-.2s-.1,0-.1,0h0s.1,0,0,0h.1-.1.1-.1.1-.1.1-.1.1s.1,0,0,0h.2c-.1,0,0,0,0,0h.1c-.1,0-.2,0-.2,0h-.1c-.1,0-.1,0-.1,0h0c.1,0,0,0,.1,0h0c.1,0,.1,0,.2,0h0c-.1,0-.1,0-.2,0h-.1.1c.1,0,.1,0,.2,0h0q.1,0,0,0h0c0,0,.1,0,.1,0h-.1.1-.2.1c0,0-.1,0-.1,0h0c.1,0,.1,0,.2,0h.1-.1c0,0-.1,0-.1,0h.1c-.1,0-.1,0-.1,0h-.1s-.1,0-.1,0h.1c0,0,.1,0,.1,0h-.1c0,0-.1.2-.1.2h-.1.1c.1,0,.2,0,.2-.2h0c.7.1.7,0,.8,0h0q-.1,0,0,0h-.1.1c-.1,0,0,0,0,0h0c-.1,0,0,0,0,0h0q0,0,0,0c0,0-.1,0,0,0-.1,0-.2,0-.2,0h0s.1,0,.1,0q0,0,.1,0h0c-.1,0,0,0,0,0,0,0-.1,0-.1,0h-.2s.1,0,0,0h.1c.1,0,.1,0,.2,0h0ZM399.2,41.2c0,0,0-.1,0,0h.1c0-.1,0,0-.1,0h.1s.1,0,0,0h0q0-.1-.1,0t0,0,0,0h0c0-.1,0-.1,0,0h.1q0-.1-.1,0h0v-.2h0v-.2h0v-.2h0v-.2h0v-.2h0q0,0,.1,0h0v.8h-.1v-.2h0v-.5h0q0,0,.1,0h0v.2h0v.2h0v.2h0v.2h0c0,0,0,.2-.1.3h.1q0-.1-.1,0h0c0-.1,0,0,0,0h0q0-.1,0,0h0c-.1,0,0-.1,0,0,0-.1,0-.1,0,0q.1,0,.2,0h-.1.1s-.1,0-.2,0q0,0,0,0h0ZM399.2,39.4h0v.2h0v.2h0v.4h0v.2h0v.2h-.1c0,0,.1,0,.1,0h-.1.1-.1v-.2h0v-.2h0v-.2h0v-.2h0c0,0,.1-.5.1-.5h0q-.1-.1,0,0c-.1-.1-.1,0,0,0h0q-.1,0,0,0h-.1v.2h0v.2h0v.2h0v.2h0v.2h0c-.1,0-.1,0-.1,0h.1-.1.1-.1v-.2h0v-.3h0v-.2h0v-.2h0c.2,0,.2,0,.2,0h0ZM399.1,40.3v-1h3.6s-.2,0-1.8,1c-1.5.9-1.8,1-1.8,1h0v-1ZM400.7,40.3c.9-.5,1.6-.9,1.6-.9h-3.1v1.8s.7-.4,1.5-.9h0ZM399.1,41.2v-1.8h3.4l-3.4,1.8Z"/>
        <path id="path1244" class="cls-5" d="M337.3,5.9h0q0,0,0,0h0q0,0,0,0h0c0,0,0,0,0,0h0q.1,0,0,0h0q.1,0,0,0h0q.1,0,0,0t0,0,0,0h0q.1,0,0,0h0c.1,0,.1,0,0,0h0q.1,0,0,0h0q.1,0,0,0t0,0,0,0,0,0h0q.1,0,0,0t0,0,0,0,0,0,0,0h.1-.1c.1,0,.1,0,0,0h0q.1,0,0,0h0q.1,0,0,0h.3c0,0-.1,0-.1,0h-.2q.1,0,0,0t0,0h.1q.1,0-.1,0h0q.1,0,0,0h.1-.1.1-.1.1c0,0,0,0,0,0h0c.1,0,0,0-.1,0h.1q0,0,.1,0h-.1.3-.1.1-.1.1-.1.1-.1.1-.1c.1,0,0,0,0,0h.2c.1,0,0,0,0,0h.1-.1.1-.2.2-.1s.1,0,0,0h.2-.1.1-.1.2-.2.2-.1.1-.1.1-.1.1c.1,0,0,0,0,0h.1-.1.1c-.1,0,0,0,0,0h.1-.2.1-.1.2-.1.2q.1,0,.2,0h.1c-.1,0,0,0,0,0h-.2.1c-.1,0,0,0,0,0h0c-.1,0,0,0,0,0h-.4.2-.1.1-.1v.2h-.1c0,0,.1,0,.1,0h-.2.1-.1.1-.1.1-.2.1-.1.1-.2.2-.1.1-.1.3-.1.1-.1.2-.1.2-.1c0,0,0,0,0,0h0s0,0,.1,0h-.2.1-.2.2s.1,0,0,0h.4-.1.2-.2q-.1,0-.2,0h-.2.1-.1.1-.1.1-.1.1-.2.1c-.1,0,0,0,0,0h-.1.1v.2h0q0,0,.1,0h.2-.1.1-.2.2-.1.1-.1.2-.1q0,0,.1,0h-.2.1-.5.1-.2.1-.1q0,0-.1,0h-.1.2-.2.2-.3.1s0,0,0,0h-.1.2-.1.2-.2.1-.1.1-.2.1-.1.1-.3.1-.1s0,0,0,0h0c0,0,0,.2-.1.2h-.1c0,0,0-.6,0-.6q.1,0,0,0h.1q0,0,.1-.2h-.1q0,0-.1,0h0q.1,0,0,0t0,0,.2,0h0c-.1,0-.1.2-.2,0h.1-.1q.1,0,0,0t.2,0h-.2q.1,0,.2,0h-.2.2s-.1,0-.1,0h-.1c0,0,.1,0,.1,0h-.1c.1,0,.1,0,.1,0h.1q0,0-.1,0t-.1,0c.1,0,.1,0,0,0h0c0,0,0,0,0,0h0q.1,0,0,0h.1c.1,0,0,0-.1,0h0q.1,0,0,0t0,0,0,0,0,0,0,0,0,0,0,0c.1,0,0,0,0,0,0,0,0,0,0,0,0,0,.1,0,0,0q.1,0,0,0t0,0h0q.1,0,0,0t0,0,0,0,0,0h0q.1,0,0,0t0,0h0q.1,0,0,0h0q.1,0,0,0h0q0,0,0,0h0s0,0,0,0q0,0,0,0t0,0h0q0,0,0,0h0ZM339.3,4.3h0q0,0,0,0h0s0,0,0,0h0c0,0,0,0,0,0q0,0,0,0h0s0,0,0,0h0q0,0,0,0h0q0,0,0,0,0,0,0,0c0,0,0,0,0,0h0q0,0,0,0h0q0,0,0,0h0c0,0,0,0,0,0h0q0,0,0,0h0s0,0,0,0h0q0,0,0,0h0q0,0,0,0h0q0,0,0,0s0,0,0,0h0q0,0,0,0h0ZM339.3,4.3h0s-.1.2-.6.5c-.6.5-.8.6-.8.7h-.1l-.2.2-.2.3h0s.1,0,.2,0,.2,0,.2,0c0,0,.1,0,.3-.2s.2-.2.2-.2l.2-.2.3-.3h.1c0,0,.1-.2.2-.2.1,0,.2,0,.2,0h.1c-.2-.3-.1-.3-.1-.3h0ZM338.1,5.3l-.7.7M338.8,4.7l-.9.8M339.1,4.4l-1.3,1.1M339.3,4.3l-1.6,1.3M338.1,5.3h0q.1,0,0,0t0,0,0,0h0s0,0,0,0h0q0,0,0,0h0q0,0,0,0t0,0h0q0,0,0,0h0q0,0,0,0t0,0h-.1q0,0,.1,0h-.1c0,0,.1,0,.1,0h-.1q.1,0,.1,0h-.1q.1,0,.1,0h0c0,0,0,0,0,0q0,0,0,0s0,0,0,0h0s0,0,0,0h0c0,0,0,0,0,0h-.1q.1,0,.1,0t-.1.2h0q0,0,0,0h0c0,0,0,0,0,0h0q.1,0,.1-.2c0,0,0,0,0,0h0q0,0,0,0h0s0,0,0,0c0,0,0,0,0,0h0s0,0,0,0h-.1q0,0,.1,0h0s0,0,0,0h-.1q0,0,.1,0h0q0,0,0,0h-.1q0,0,.1,0h0q0,0,0,0h0q0,0,0,0t0,0h0q.1,0,0,0h0q0,0,0,0s0,0,0,0h0q.1,0,0,0h0q.1,0,0,0h0q.1-.1,0,0h0ZM339.2,4.5h0q-.1,0,0,0h0q-.1,0,0,0-.1,0,0,0-.1,0,0,0h0q-.1,0,0,0h0q-.1,0,0,0h-.1q0,0,.1,0-.1,0,0,0-.1,0,0,0h0q-.1,0,0,0-.1,0-.1.2h0q0,0,0,0h0q0,0,.1-.2h-.1q0,0,0,0h0c0,0,0,0,0,0h0q0,0,0,0h0q0,0,0,0h0c0,0,0,0,0,0h0v.2h0q0,0,0,0h0q0,0,0,0h0c0,0,0,0,0,0h0c0,0,0,0,0,0h0s0,0,.1,0h0v.2h0v-.2h0q0,0,0,0h0q0,0,0,0h0v.2s0,0-.1,0h0c0,0,0,0,0,0h0s0,0-.1,0h0c0,0,0,0,0,0h0v-.2h0s0,0-.1,0h0s0,0,.1,0h0s0,0-.1,0h0q0,0,0,0h0q0,0-.1,0h0q0,0,0,0h0s0,0-.1,0h0c0,0,.1,0,.1,0h.1v.2h0c0,0,0,0-.1,0h.1v-.2h.1c0,0,0,0,0,0h0c0,0,0,0-.1,0h0q0,0,0,0h0q0,0,0,0h0q0,0,0,0h0q0,0,0,0h0v.2h-.1c0,0,0,0,0,0h0v-.2h0q0,0,0,0h0q0,0,0,0h0c.1,0,0,0,0,0h.1-.1.2q0,0-.1,0h.1-.1.1-.1c0,0,.1,0,.1,0h-.1s.1,0,.1,0h0s-.1,0-.1,0h.1q0,0,.1-.2h0s0,0,0,0h0v.2h0c0,0,0,0,0,0h0q0,0,0,0h0c0,0,0,0,0,0h.1v-.2h0v.2h0v-.2h0c0,0,0,0,0,0h0v-.2h0c-.1,0,0,0,0,0h0q0,0-.1.2h0q0,0,0,0h0c0,0,0,0,0,0h-.1v.2h0c0,0,0,0,.1,0h0c0,0,0,0,0,0h0c0,0-.1,0-.1,0h0c0,0,0-.2.1-.2h0q0,0,.1,0h.1q0,0,0,0h0q0,0,0,0h0s0,0,.1,0h0q0,0,0,0h0v.2h0c0,0,0,0,0,0h0s0,0,.1,0h0q0,0,0,0h0v-.2h0v.2h0c0,0,0,0,0,0h0q0,0,0,0h0q0,0,0,0h0v.2h0c0,0,0,0,0,0h0q0,0,0,0h0q0,0,0,0h0q0,0,0,0h0q0,0,0,0h0q0,0,0,0h0v-.2h0q0,0,0,0h0q0,0,0,0h0v-.2h0c0,0-.3-.2-.3-.2h-.1q0,0,0,0h0q-.1,0,.1,0h0q-.1,0-.1.2h0c0,0,.1-.2.1-.2h0q-.1,0,0,0h-.1q0,0,.1,0h0q-.1,0,0,0h0q-.1,0,0,0-.1,0,0,0h0q-.1,0,0,0h0ZM339,4.6h0s0,0,0,0h0c0,0,0,0,0,0h0s0,0,0,0h0s0,0,0,0h0q0,0,0,0h0c0,0,0,0,0,0h0q.1,0,0,0h0q.1,0,0,0h0q.1,0,0,0t0,0h0q.1,0,0,0h0q.1,0,0,0c.1,0,0,0,0,0h0q.1,0,0,0h0c.1,0,.1,0,.1,0h0q0,0-.1,0,.1,0,0,0h0q.1,0,0,0c.1,0,0,0,0,0h.1-.1c.1,0,0,0,0,0h0s.1,0,0,0h.1-.1s.1,0,0,0h.1-.1q.1,0,0,0h.1q0,0,.1,0h0c0,0,0,0,0,0h0q0,0,0,0h0q0,0,0,0h0q0,0,0,0h0q0,0,0,0h0q0,0,0,0h0v.2h0q0,0,0,0h0v-.2h0c0,0,0,0,0,0h0v.2h0q0,0,0,0h0c0,0,0,0,0,0h0c0,0,0,0,0,0h0q0,0,0,0h0q0,0,0,0h0c0,0,0,0,0,0h0q0,0,0,0h0c0,0,0,0,0,0h0q0,0,0,0h0c0,0,0,0,0,0h0q0,0,0,0h0c0,0,0,0,0,0h0c0,0,0,0,0,0h0v-.2h0c0,0,0,0,0,0h0c0,0,0,0,0,0h0q0,0,0,0h0v.2h0v.2h0q0,0,0,0h0v-.2h0q0,0,0,0h0q0,0,0,0h0v-.2h0v.2h0q0,0,0,0h0v.2h0c0,0,0,0,0,0h0c0,0,0,0,0,0h0c0,0,0,0,0,0h0v-.2h0q0,0,0,0h0q0,0,0,0h0v.2h0v-.2h0v.2h0v-.2h0q0,0,0,0h0c0,0,0,0,0,0h0c0,0,0,0,0,0h0q0,0,0,0h0c0,0,0,0,0,0h0q0,0,0,0h0q0,0,0,0h0q0,0,0,0h0c0,0,0,0,0,0h0q0,0,0,0h0c0,0,0,0,0,0h0v-.3h0q-.1.2-.2.2h.1-.1q.1,0,0,0c.1,0,0,0,0,0h.1c0,0-.1,0-.1,0h.1-.1.1q0,0,0,0h-.1q.1,0,0,0h0c0,0,0,0,0,0h0q0,0,.1,0h-.1q.1,0,0,0,.1,0,0,0h0q.1,0,0,0,.1,0,0,0h0q.1,0,0,0c.1,0,0,0,0,0h0q0,0,0,0t0,0h0q0,0,0,0,0,0,0,0,0,0,0,0h0s0,0,0,0q0,0,0,0c0,0,0,0,0,0h0q0,0,0,0h0ZM339.5,4.3h0q0-.1,0,0h0q.1,0,0,0h-.1.1q-.1,0,0,0h-.2.2-.2.2-.1.1-.1.1-.2.2-.3.3-.2.2-.1q0,0,.1,0h0q-.1,0,0,0h-.1q0,0-.1,0h.2q-.1,0-.2,0h.2q-.1,0-.2,0h0q.1,0,.2,0h-.1.1q-.1,0,0,0-.1,0-.2,0h.2c0,0-.1,0-.1,0h-.1q.1,0,.2,0h0q-.1,0,0,0h-.2.2-.2.2-.1.1s-.1,0,0,0h-.2.2-.1.1-.1.1s-.1,0,0,0h-.1.1c-.1,0,0,0,0,0h0q-.1,0,0,0h0q.1,0,0,0h0q0-.1,0,0c0-.1,0,0,0,0h0ZM339.6,4.1h0c0,0,0,0,0,0h0c0,0,0,0,0,0q0,0,0,0h0q0,0,0,0h0c0,0-.1,0-.1,0h.1c0,0-.1,0-.1,0h.1q-.1,0,0,0h-.1c0,0,.1,0,.1,0h-.1q0,0,.1,0h0q-.1,0,0,0h-.1q0,0,.1,0h-.1c0,0,.1,0,.1,0-.1,0,0,0,0,0h0q0,0,0,0h0q0,0,0,0h-.1c0,0,.1,0,.1,0h-.1c0,0,.1,0,.1,0h-.1q0,0,.1,0-.1,0,0,0h-.1c0,0,.1,0,.1,0h-.1q0,0,.1,0h-.1c0,0,.1,0,.1,0h0q-.1,0,0,0,0,0,0,0h-.1c0,0,.1,0,.1,0h-.1c0,0,.1,0,.1,0q0,0,0,0h0q0,0,0,0h0q.1,0,0,0h0c0,0,0,0,0,0,0,0,.1,0,0,0h0q0,0,0,0h0c0,0,0,0,0,0h0ZM338.6,5.9q-.1,0,0,0h-.7.7q-.1,0,0,0c0,0,.1,0,.1,0h.2-.5.5-.2c0,0-.1,0-.1,0h-.6.5c-.1,0,0,0,.1,0-.1,0,0,0,0,0h0ZM337.4,5.8s.1,0,0,0q0,0,0,0h0q0,0,0,0h0q0,0,0,0h0ZM339.6,4.1h0c-.1,0,0,0,0,0h0c0,0,0,0,0,0h0q0,0,0,0c-.1,0-.1,0,0,0h0ZM338.1,5.3s.1,0,0,0h0s.1,0,0,0h0q.1,0,0,0h0q.1,0,0,0t0,0c.1,0,0,0,0,0h0q.1,0,0,0h.1-.1.1q0-.1-.1,0h.1q0,0,0,0h0q0-.1-.1,0h0q.1-.1,0,0h0q.1-.1,0,0c.1-.1.1,0,0,0h0q.1,0,0,0h0c.1,0,.1-.1,0,0h.1q0,0,.1,0h0c.1,0,0,0,0,0h0c-.1,0,0,0,0,0h0s-.1,0,0,0h.1c-.1,0,0,0,0,0h0c.1,0,0,0,0,0h0c-.1,0,0,0,0,0h0c-.1,0,0,0,0,0h0s.1,0,0,0h0c-.1,0,0,0,0,0h0c.1,0,0,0,0,0h0c-.1,0,0,0,0,0h0s.1,0,0,0h0c-.1,0,0,0,0,0h0c.1,0,0,0,0,0h.1s-.1,0,0,0h0c-.1,0,0,0,0,0h0c.1-.2,0,0,0,0h0c-.1,0,0,0,0,0h0c.1,0,0,0,0,0h0c-.1,0,0,0,0,0h.1s.1,0,0,0h0c.1,0,0,0,0,0h0s0,0-.1,0h.1q0,0-.1,0h-.1.1-.1.1c0,0-.1,0-.1,0h-.1.1c0,0,0,0-.1,0h0c0,0,0,0-.1,0h-.1q0,0-.1,0h0s.1,0,0,0h0c0,0-.1.2-.1.2h-.1.1q0,0-.1,0h.1-.1s-.1,0-.1,0h-.1q0,0-.1,0h.1c0,0,0,0-.1,0h.1-.2.1-.1.1q0,0,0,0h-.1c0,0,0-.2.1,0h0v.2h-.2s0,0,.1,0h.1q0,0,.1,0h-.1.1s0,0-.1,0h.1c0,0,0,0,0,0h-.1q0,0,.1,0h-.1s0,0,.1,0h0s0,0-.1,0h0s0,0,.1,0h-.1s0,0,.1,0h0s0,0-.1,0h.2-.1s0,0,.1,0h-.1q0,0-.1.2h.3q0,0-.1,0h.1-.1c0,0-.1,0-.1.2h.1-.1q0,0-.1,0h-.1q0,0,.1,0h-.1.1q0,0-.1,0h.1-.1q0,0-.1,0h.1-.1q0,0,.1,0h.1s.1,0,0,0h-.1c.8-1.1.8-1,.7-1q.1-.1,0,0h0q.1-.1,0,0h.1c0,0-.1,0-.1,0q.1,0,0,0c.1,0,0,0,0,0h0c0,0,.1,0,.1,0h0c0,0,0,0-.1,0h0q.1-.1,0,0t0,0h.1v-.2h-.1q.1,0,0,.2h0q.1-.1,0,0h.1-.1q.1,0,0,0h0q.1,0,0,0h0q.1,0,0,0t0,0c.1,0,0,0,0,0h0s.1,0,0,0q.1-.1,0,0h0q.1,0,0,0h0ZM337.4,5.9h0c.1,0,.1,0,0,0h0c.1,0,0,0,0,0h.1c0,0,.1,0,.1-.2h-.1q0,0-.1.2h0q0,0,0,0h.1c0,0-.1,0-.1,0,.1,0,0,0,0,0h0q0,0,0,0h0s.1,0,0,0h.1-.1c.1,0,0,0,0,0h.1c0,0,.1-.2.1-.2h.1q0,0,.1,0h-.1c0,0-.1.2-.1.2h0s.1,0,0,0h.1q0,0-.1,0h-.1q0,0,0,0h0c0,0,.1,0,.1,0h-.1c0,0-.1.2-.1.2h.1c-.1,0,0,0,0,0h.1q0,0,.1,0h.1q0,0-.1,0h-.1c0,0-.1.2-.1.2h.1c.1-.2,0,0,.1-.2h-.1c0,0-.1,0-.1.2h0s-.1,0,0,0h.1c.1-.2,0,0,0,0h.1c.1,0,0,0,0,0h0c.1,0,0,0,0,0h.1-.1s-.1,0-.1,0h0c-.1,0,0,0,0,0h0c-.1,0,0,0,0,0h0c.1,0,0,0,0,0h0c.1,0,0,0,0,0h-.2q0,0,.1,0h-.1s0,0,.1,0h0s0,0-.1,0h0s0,0,.1,0h.1q0,0-.1,0h-.2q0,0,.1,0h-.1q0,0-.1,0h0c0,0-.1,0-.1.2h.2s.1,0,.1,0h-.2s-.1,0,0,0h-.1c.1,0,0,0,0,0h0q.4-.4.3-.3h.1c.1,0,.1-.2.2-.2h.2q0,0-.1,0h-.1c0,0,.1,0,.1,0h.1-.1c0,0-.1.2-.1.2h0q0,0-.1,0h.1-.1c0,0,0,0,.1,0h-.1q0,0,0,0h.1q0,0,.1-.2h-.1q0,0-.1,0h.1c0,0,.1-.2.1-.2h.1-.1c-.1,0-.1,0-.2.2h0l-.2.2c.1,0,0,0,0,0h0q0,0,0,0h.1q0,0-.1,0c.1,0,0,0,0,0h0c0,0,0,0,0,0q0,0,0,0h.1q0,0,.1,0h.1c-.2,0-.3,0-.3,0h0ZM339.6,4.1h0c0,0-.1,0,0,0q-.1,0,0,0h0c-.1,0-.2,0,0,0h-.1q0,0,.1,0t0,0s.1,0,0,0q.1,0,0,0h0q0,0,0,0c0,0-.1,0,0,0q-.1,0,0,0c-.1,0,0,0,0,0h0v.2h0v.2h0v.2h0v.2h0v.2h0c0,0,0,0,0,0v-.7h0v.2h0v.5h0q0,0,0,0h0v-.2h0v-.2h0v-.2h0v-.2s0,0,0-.2h0c-.1,0,0,0,0,0h0c0,0,0,0,0,0h0c.1,0,0,0,0,0q0,0,0,0h-.1q0,0,.1,0h-.1c0,0,0,0,.1,0h0ZM339.6,6h0q0,0,0,0h0v-.2h0v-.2h0v-.4h0v-.2h0v-.2h.1q-.1,0,0,0h0v.2h0v.2h0v.2h0v.2h0v.2h0v.3q0,0-.1,0h.1-.1q.1,0,0,0h0q.1,0,0,0h.1v-.2h0v-.2h0v-.2h0v-.2h0v-.2h0c.1-.2.1,0,0,0h-.1v.2h0v.3h0v.2h0v.2h0q.1,0,0,.2.1,0,0,0h0ZM339.7,5v1h-2.6s.1,0,1.3-1c1.1-.9,1.3-1,1.3-1h0v1ZM338.5,5c-.6.5-1.1.9-1.1.9h2.2v-1.8s-.5.4-1.1.9h0ZM339.7,4.1v1.9h-2.4l2.4-1.9Z"/>
        <path id="rect1286" class="cls-7" d="M339.7,3.9h0ZM339.6,4h0ZM339.6,4h0ZM339.7,4h0ZM339.7,3.9h0ZM339.7,4h0ZM339.7,4h.1-.1ZM339.6,4h.1-.1ZM339.6,4h.2-.2Z"/>
        <g id="text112">
          <g class="cls-4">
            <path class="cls-27" d="M298.6,219.4h.2c.1,0,.1.1.1.2s.1.2.1.3v1.2c0,.2-.1.3-.1.4-.1.1-.1.2-.2.2l-7.9,5.8h8.1c.1,0,.1.1.1.2s.1.2.1.3v1c0,.1,0,.2-.1.3s-.1.1-.1.2-.1,0-.2,0h-15.3c-.1,0-.1-.1-.1-.2s-.1-.2-.1-.3v-1c0-.1,0-.2.1-.3,0-.1.1-.1.1-.2h7.2l-7-5.6c-.1,0-.1-.1-.2-.2,0-.1-.1-.1-.1-.2s-.1-.2-.1-.3v-1c0-.1,0-.2.1-.3,0-.1.1-.1.1-.2h.2c.1,0,.2,0,.3.1.1.1.3.2.4.3l6.2,5.2,7.5-5.6.4-.2c.1,0,.2,0,.2,0Z"/>
          </g>
          <g class="cls-4">
            <path class="cls-27" d="M292.9,211.7h6s.1.1.1.2.1.2.1.3v1c0,.1,0,.2-.1.3,0,.1-.1.1-.1.2h-6l-8.9,4.5c-.2.1-.3.1-.4.2-.1,0-.2,0-.2-.1-.1-.1-.1-.2-.1-.3v-1.2c0-.1,0-.3.1-.4,0-.1.1-.2.1-.2,0,0,.1-.1.2-.1l4.5-2.2c.4-.2.9-.4,1.3-.6.5-.2.9-.4,1.4-.6h0c-.5-.2-.9-.4-1.4-.6-.5-.2-.9-.4-1.4-.6l-4.5-2.2c-.1,0-.1-.1-.2-.1s-.1-.1-.1-.2-.1-.2-.1-.3v-1.2c0-.2.1-.3.1-.3q.1-.1.2-.1c.1,0,.2.1.4.2l9,4.4Z"/>
          </g>
          <g class="cls-4">
            <path class="cls-27" d="M292.8,201.3c.3,0,.5,0,.7.1.1.1.2.2.2.3v5.1c0,.1-.1.3-.2.3-.1.1-.3.1-.7.1s-.5,0-.6-.1-.2-.2-.2-.3v-5.3c0,0,.1-.1.1-.1.1,0,.2-.1.3-.1h.4Z"/>
            <path class="cls-27" d="M291.1,188.7c1.2,0,2.3.1,3.3.3s1.9.5,2.6.9,1.3,1,1.7,1.7c.4.7.6,1.6.6,2.6s-.2,1.8-.5,2.5c-.4.7-.9,1.2-1.6,1.6-.7.4-1.5.7-2.5.9s-2.2.3-3.4.3-2.3-.1-3.3-.3-1.9-.5-2.6-.9-1.3-1-1.7-1.7-.7-1.6-.7-2.6.2-1.8.5-2.5c.4-.7.9-1.2,1.6-1.6.7-.4,1.5-.7,2.5-.9s2.2-.3,3.5-.3ZM291.2,190.8c-.8,0-1.5,0-2.1.1s-1.2.1-1.7.2c-.5.1-.9.2-1.2.4-.3.2-.6.4-.9.6-.2.2-.4.5-.5.8s-.2.7-.2,1.1c0,.7.2,1.2.5,1.7.3.4.8.8,1.3,1,.6.2,1.2.4,2,.5s1.6.1,2.5.1,2.2-.1,3-.2c.8-.1,1.5-.3,2-.6s.9-.6,1.1-1,.4-.9.4-1.5-.1-.9-.2-1.2-.4-.6-.6-.9c-.3-.2-.6-.5-1-.6s-.8-.3-1.3-.4-1-.2-1.5-.2c-.4.2-1,0-1.6,0Z"/>
            <path class="cls-27" d="M298.2,176.6h.4c.1,0,.2.1.3.1s.1.1.1.1v8.6h-.1c-.1.1-.1.2-.3.2h-.8c-.1,0-.2-.1-.3-.1s-.1-.1-.2-.1c0-.1-.1-.1-.1-.2v-3.3h-12l1.8,3c.1.2.1.3.1.4s0,.2-.1.2q-.1.1-.3.1h-.9c-.1,0-.2,0-.2-.1-.1,0-.1-.1-.2-.1,0,0-.1-.1-.1-.2l-2.3-3.6s0-.1-.1-.1v-1.4c0-.1,0-.2.1-.3,0-.1.1-.1.1-.1h13.9v-2.7q0-.1.1-.2c0-.1.1-.1.2-.1s.2-.1.3-.1.4,0,.6,0Z"/>
            <path class="cls-27" d="M294.9,163.6c.7,0,1.3.1,1.8.4.5.2,1,.6,1.3,1.1.4.5.6,1,.8,1.7s.3,1.4.3,2.3-.1,1.5-.3,2.2-.4,1.2-.8,1.6c-.3.4-.7.8-1.2,1s-1,.4-1.7.4-.9-.1-1.4-.2c-.4-.2-.8-.4-1.1-.7s-.7-.7-1-1.1c-.3-.4-.6-.9-.9-1.5-.3.5-.5.9-.8,1.3-.3.4-.6.7-.9.9-.3.3-.7.5-1.1.6s-.8.2-1.2.2c-.6,0-1.1-.1-1.6-.3s-.9-.5-1.3-.9-.6-.9-.8-1.5-.3-1.3-.3-2.2.1-1.5.3-2.1c.2-.6.5-1.1.8-1.4.3-.4.7-.7,1.2-.8.4-.2.9-.3,1.4-.3s.8.1,1.2.2c.4.1.7.3,1.1.6.3.3.7.6,1,1s.6.8.8,1.3c.3-.6.6-1.1.9-1.5s.6-.8,1-1.1.7-.5,1.1-.7c.6-.4,1-.5,1.4-.5ZM286.9,166.2c-.3,0-.6.1-.9.2-.3.1-.5.3-.7.5s-.3.5-.4.8-.2.7-.2,1.1c0,.9.2,1.5.6,2s.9.7,1.6.7.6-.1.9-.2.5-.3.8-.5.5-.5.7-.9.5-.8.7-1.3c-.4-.8-.9-1.4-1.4-1.9-.6-.2-1.1-.5-1.7-.5ZM295.2,165.7c-.4,0-.7.1-1,.2s-.6.3-.9.6-.5.6-.8,1c-.2.4-.5.9-.8,1.5.3.5.5,1,.8,1.3.3.4.5.7.8.9s.5.4.8.6c.3.1.6.2,1,.2.8,0,1.4-.3,1.8-.8s.6-1.3.6-2.4-.2-1.8-.7-2.4-.9-.7-1.6-.7Z"/>
          </g>
        </g>
        <g id="text116">
          <g class="cls-4">
            <path class="cls-27" d="M317.3,272.6c0,.7-.1,1.4-.4,2s-.6,1.1-1.1,1.5-1,.7-1.7.9c-.7.2-1.4.3-2.1.3s-1,0-1.5-.1-.9-.2-1.2-.3c-.4-.1-.6-.3-.9-.4-.2-.1-.4-.3-.5-.4s-.2-.2-.2-.4-.1-.4-.1-.6v-.4c0-.1,0-.2.1-.3s.1-.1.1-.2h.2c.1,0,.3.1.5.2s.5.3.8.5.7.3,1.2.5c.5.1,1,.2,1.6.2s.9-.1,1.2-.2c.4-.1.7-.3,1-.5s.5-.5.6-.8.2-.7.2-1.1-.1-.8-.3-1.1c-.2-.3-.5-.6-.8-.8-.3-.2-.7-.5-1.1-.7s-.9-.4-1.3-.6-.9-.4-1.3-.7c-.4-.3-.8-.5-1.1-.9-.3-.3-.6-.7-.8-1.2-.2-.5-.3-1-.3-1.6s.1-1.2.4-1.8c.2-.5.6-.9,1-1.3s.9-.6,1.5-.8c.6-.2,1.2-.3,1.9-.3s.7,0,1.1.1.7.1,1,.2.6.2.8.3c.2.1.4.2.5.3s.1.1.2.2c0,0,0,.1.1.2v1c0,.1,0,.2-.1.3s-.1.1-.1.2c0,0-.1.1-.2.1s-.2-.1-.4-.2c-.2-.1-.4-.2-.7-.4-.3-.1-.6-.3-1-.4s-.8-.2-1.3-.2-.8.1-1.1.2c-.3.1-.6.3-.8.5-.2.2-.4.4-.5.7s-.2.6-.2.9.1.8.3,1.1c.2.3.5.6.8.8.3.2.7.5,1.1.7s.9.4,1.3.6.9.4,1.3.7c.4.2.8.5,1.1.9.3.3.6.7.8,1.2s.4.7.4,1.4Z"/>
          </g>
        </g>
        <g id="text120">
          <g class="cls-4">
            <path class="cls-27" d="M440.3,270.1c0,.3-.1.5-.3.7-.2.1-.5.2-.9.2h-13.8c-.4,0-.7-.1-.9-.2-.2-.1-.3-.3-.3-.7s.1-.5.3-.6c.2-.1.5-.2.9-.2h14.3c.1,0,.3.1.4.1.1.1.2.2.2.3s0,.3,0,.4Z"/>
          </g>
        </g>
      </g>
      <circle id="circle281-5" class="cls-21" cx="401.6" cy="297.6" r="11.6"/>
      <circle id="circle281-6" class="cls-20" cx="371" cy="297.6" r="11.6"/>
      <circle id="circle281-7" class="cls-24" cx="340.1" cy="297.6" r="11.6"/>
      <rect id="rect1727-9" class="cls-29" x="365.3" y="297.6" width="11.3" height="180.9"/>
      <rect id="rect1727-10" class="cls-32" x="334.4" y="297.6" width="11.3" height="329"/>
      <rect id="rect1727-11" class="cls-26" x="395.9" y="297.6" width="11.3" height="214.9"/>
      <circle id="circle281-7-2" data-name="circle281-7" class="cls-24" cx="232" cy="620.4" r="11.6"/>
      <rect id="rect1727-10-2" data-name="rect1727-10" class="cls-32" x="232.3" y="615.3" width="113.4" height="11.3"/>
    </g>
  </g>
</svg>