<?xml version="1.0" encoding="UTF-8"?>
<svg xmlns="http://www.w3.org/2000/svg" version="1.1" viewBox="0 0 860.3 919.6">
  <defs>
    <style>
      .cls-1 {
        fill: #02814b;
      }

      .cls-2, .cls-3, .cls-4, .cls-5, .cls-6, .cls-7, .cls-8 {
        isolation: isolate;
      }

      .cls-2, .cls-4, .cls-5, .cls-6, .cls-7, .cls-8 {
        opacity: 1;
      }

      .cls-9 {
        fill: #868c97;
      }

      .cls-10 {
        stroke: #fff;
      }

      .cls-10, .cls-11 {
        fill: none;
        stroke-miterlimit: 10;
      }

      .cls-12 {
        fill: #c2bfab;
      }

      .cls-13 {
        fill: #e8d28a;
      }

      .cls-14 {
        fill: #8dddde;
      }

      .cls-15 {
        fill: #cecece;
      }

      .cls-16 {
        fill: #c1c1c1;
      }

      .cls-17 {
        fill: #b9a68f;
      }

      .cls-18 {
        fill: #141316;
      }

      .cls-19 {
        fill: #e2eade;
      }

      .cls-20 {
        fill: #e10a17;
      }

      .cls-4 {
        fill: #cccbcb;
      }

      .cls-21 {
        fill: #905014;
      }

      .cls-22 {
        fill: #474544;
      }

      .cls-23 {
        fill: #ddd;
      }

      .cls-24 {
        fill: #22ad86;
      }

      .cls-25 {
        fill: #fee86f;
      }

      .cls-5, .cls-26 {
        fill: #1a1a1a;
      }

      .cls-27 {
        fill: #914f00;
      }

      .cls-28, .cls-8 {
        fill: #fff;
      }

      .cls-29 {
        fill: #c29148;
      }

      .cls-30 {
        fill: #e30613;
      }

      .cls-31 {
        fill: #e0b45b;
      }

      .cls-32 {
        fill: #d4c547;
      }

      .cls-6 {
        fill: #989898;
      }

      .cls-33 {
        fill: #7b217f;
      }

      .cls-34 {
        fill: #fcfcfa;
      }

      .cls-7 {
        fill: gray;
      }

      .cls-35 {
        fill: #7f7f7f;
      }

      .cls-36 {
        fill: #525035;
      }

      .cls-37 {
        fill: #ffe17b;
      }

      .cls-38 {
        fill: #484537;
      }

      .cls-39 {
        fill: #aba28e;
      }

      .cls-11 {
        stroke: #95ac6e;
      }

      .cls-40 {
        fill: #36323e;
      }
    </style>
  </defs>
  <!-- Generator: Adobe Illustrator 28.7.0, SVG Export Plug-In . SVG Version: 1.2.0 Build 136)  -->
  <g>
    <g id="svg4098">
      <g>
        <path class="cls-1" d="M243.3,270.7v-11.9H.2v11.9c2.3.9,3.9,3.1,3.9,5.7s-1.6,4.8-3.9,5.7v18.1c2.3.9,3.9,3.1,3.9,5.7s-1.6,4.8-3.9,5.7v18.1c2.3.9,3.9,3.1,3.9,5.7s-1.6,4.8-3.9,5.7v18.1c2.3.9,3.9,3.1,3.9,5.7s-1.6,4.8-3.9,5.7v18.1c2.3.9,3.9,3.1,3.9,5.7s-1.6,4.8-3.9,5.7v18.1c2.3.9,3.9,3.1,3.9,5.7s-1.6,4.8-3.9,5.7v18.1c2.3.9,3.9,3.1,3.9,5.7s-1.6,4.8-3.9,5.7v18.1c2.3.9,3.9,3.1,3.9,5.7s-1.6,4.8-3.9,5.7v18.1c2.3.9,3.9,3.1,3.9,5.7s-1.6,4.8-3.9,5.7v18.1c2.3.9,3.9,3.1,3.9,5.7s-1.6,4.8-3.9,5.7v18.1c2.3.9,3.9,3.1,3.9,5.7s-1.6,4.8-3.9,5.7v18.1c2.3.9,3.9,3.1,3.9,5.7s-1.6,4.8-3.9,5.7v18.1c2.3.9,3.9,3.1,3.9,5.7s-1.6,4.8-3.9,5.7v18.1c2.3.9,3.9,3.1,3.9,5.7s-1.6,4.8-3.9,5.7v18.1c2.3.9,3.9,3.1,3.9,5.7s-1.6,4.8-3.9,5.7v18.1c2.3.9,3.9,3.1,3.9,5.7s-1.6,4.8-3.9,5.7v16.4c2.3.9,3.9,3.1,3.9,5.7s-1.6,4.8-3.9,5.7v18.1c2.3.9,3.9,3.1,3.9,5.7s-1.6,4.8-3.9,5.7v18c2.3.9,3.9,3.1,3.9,5.7s-1.6,4.8-3.9,5.7v18.1c2.3.9,3.9,3.1,3.9,5.7s-1.6,4.8-3.9,5.7v11.9h243.1v-11.9c-2.2-.9-3.8-3.1-3.8-5.7s1.6-4.8,3.8-5.7v-18.1c-2.2-.9-3.8-3.1-3.8-5.7s1.6-4.8,3.8-5.7v-18.1c-2.2-.9-3.8-3.1-3.8-5.7s1.6-4.8,3.8-5.7v-18.1c-2.2-.9-3.8-3.1-3.8-5.7s1.6-4.8,3.8-5.7v-17.9c-2.2-.9-3.8-3.1-3.8-5.7s1.6-4.8,3.8-5.7v-18.1c-2.2-.9-3.8-3.1-3.8-5.7s1.6-4.8,3.8-5.7v-18.1c-2.2-.9-3.8-3.1-3.8-5.7s1.6-4.8,3.8-5.7v-18.1c-2.2-.9-3.8-3.1-3.8-5.7s1.6-4.8,3.8-5.7v-18.1c-2.2-.9-3.8-3.1-3.8-5.7s1.6-4.8,3.8-5.7v-17.6c-2.2-.9-3.8-3.1-3.8-5.7s1.6-4.8,3.8-5.7v-18.1c-2.2-.9-3.8-3.1-3.8-5.7s1.6-4.8,3.8-5.7v-18.1c-2.2-.9-3.8-3.1-3.8-5.7s1.6-4.8,3.8-5.7v-18.1c-2.2-.9-3.8-3.1-3.8-5.7s1.6-4.8,3.8-5.7v-18.1c-2.2-.9-3.8-3.1-3.8-5.7s1.6-4.8,3.8-5.7v-17.6c-2.2-.9-3.8-3.1-3.8-5.7s1.6-4.8,3.8-5.7v-18.1c-2.2-.9-3.8-3.1-3.8-5.7s1.6-4.8,3.8-5.7v-18.1c-2.2-.9-3.8-3.1-3.8-5.7s1.6-4.8,3.8-5.7v-18.1c-2.2-.9-3.8-3.1-3.8-5.7s1.6-4.8,3.8-5.7v-18.1c-2.2-.9-3.8-3.1-3.8-5.7s1.6-4.8,3.8-5.7v-17.6c-2.2-.9-3.8-3.1-3.8-5.7s1.6-4.7,3.8-5.6ZM15.8,841c-3.4,0-6.1-2.7-6.1-6.1s2.7-6.1,6.1-6.1,6.1,2.7,6.1,6.1-2.7,6.1-6.1,6.1ZM15.8,811.6c-3.4,0-6.1-2.7-6.1-6.1s2.7-6.1,6.1-6.1,6.1,2.7,6.1,6.1-2.7,6.1-6.1,6.1ZM15.8,782.2c-3.4,0-6.1-2.7-6.1-6.1s2.7-6.1,6.1-6.1,6.1,2.7,6.1,6.1-2.7,6.1-6.1,6.1ZM15.8,752.8c-3.4,0-6.1-2.7-6.1-6.1s2.7-6.1,6.1-6.1,6.1,2.7,6.1,6.1-2.7,6.1-6.1,6.1ZM15.8,723.4c-3.4,0-6.1-2.7-6.1-6.1s2.7-6.1,6.1-6.1,6.1,2.7,6.1,6.1-2.7,6.1-6.1,6.1ZM15.8,694c-3.4,0-6.1-2.7-6.1-6.1s2.7-6.1,6.1-6.1,6.1,2.7,6.1,6.1-2.7,6.1-6.1,6.1ZM15.8,664.6c-3.4,0-6.1-2.7-6.1-6.1s2.7-6.1,6.1-6.1,6.1,2.7,6.1,6.1-2.7,6.1-6.1,6.1ZM15.8,635.2c-3.4,0-6.1-2.7-6.1-6.1s2.7-6.1,6.1-6.1,6.1,2.7,6.1,6.1-2.7,6.1-6.1,6.1ZM15.8,605.8c-3.4,0-6.1-2.7-6.1-6.1s2.7-6.1,6.1-6.1,6.1,2.7,6.1,6.1-2.7,6.1-6.1,6.1ZM15.8,576.4c-3.4,0-6.1-2.7-6.1-6.1s2.7-6.1,6.1-6.1,6.1,2.7,6.1,6.1-2.7,6.1-6.1,6.1ZM15.8,547c-3.4,0-6.1-2.7-6.1-6.1s2.7-6.1,6.1-6.1,6.1,2.7,6.1,6.1-2.7,6.1-6.1,6.1ZM15.8,517.6c-3.4,0-6.1-2.7-6.1-6.1s2.7-6.1,6.1-6.1,6.1,2.7,6.1,6.1-2.7,6.1-6.1,6.1ZM15.8,488.2c-3.4,0-6.1-2.7-6.1-6.1s2.7-6.1,6.1-6.1,6.1,2.7,6.1,6.1-2.7,6.1-6.1,6.1ZM15.8,458.8c-3.4,0-6.1-2.7-6.1-6.1s2.7-6.1,6.1-6.1,6.1,2.7,6.1,6.1-2.7,6.1-6.1,6.1ZM15.8,429.4c-3.4,0-6.1-2.7-6.1-6.1s2.7-6.1,6.1-6.1,6.1,2.7,6.1,6.1-2.7,6.1-6.1,6.1ZM15.8,400c-3.4,0-6.1-2.7-6.1-6.1s2.7-6.1,6.1-6.1,6.1,2.7,6.1,6.1-2.7,6.1-6.1,6.1ZM15.8,370.7c-3.4,0-6.1-2.7-6.1-6.1s2.7-6.1,6.1-6.1,6.1,2.7,6.1,6.1-2.7,6.1-6.1,6.1ZM15.8,341.3c-3.4,0-6.1-2.7-6.1-6.1s2.7-6.1,6.1-6.1,6.1,2.7,6.1,6.1-2.7,6.1-6.1,6.1ZM15.8,311.9c-3.4,0-6.1-2.7-6.1-6.1s2.7-6.1,6.1-6.1,6.1,2.7,6.1,6.1-2.7,6.1-6.1,6.1ZM15.8,282.5c-3.4,0-6.1-2.7-6.1-6.1s2.7-6.1,6.1-6.1,6.1,2.7,6.1,6.1-2.7,6.1-6.1,6.1ZM53.7,840.9c-6.7,0-12.1-5.4-12.1-12.1s5.4-12.1,12.1-12.1,12.1,5.4,12.1,12.1-5.4,12.1-12.1,12.1ZM53.7,293.8c-6.7,0-12.1-5.4-12.1-12.1s5.4-12.1,12.1-12.1,12.1,5.4,12.1,12.1c0,6.7-5.4,12.1-12.1,12.1ZM127.6,627c-3.1,0-5.7-2.6-5.7-5.7s2.6-5.7,5.7-5.7,5.7,2.6,5.7,5.7-2.6,5.7-5.7,5.7ZM157,627c-3.1,0-5.7-2.6-5.7-5.7s2.6-5.7,5.7-5.7,5.7,2.6,5.7,5.7-2.5,5.7-5.7,5.7ZM186.2,269.5c6.7,0,12.1,5.4,12.1,12.1s-5.4,12.1-12.1,12.1-12.1-5.4-12.1-12.1c0-6.6,5.5-12.1,12.1-12.1ZM192.5,621.3c0,3.1-2.6,5.7-5.7,5.7s-5.7-2.6-5.7-5.7,2.6-5.7,5.7-5.7,5.7,2.6,5.7,5.7ZM188.2,840.9c-6.7,0-12.1-5.4-12.1-12.1s5.4-12.1,12.1-12.1,12.1,5.4,12.1,12.1-5.4,12.1-12.1,12.1ZM227.8,841c-3.4,0-6.1-2.7-6.1-6.1s2.7-6.1,6.1-6.1,6.1,2.7,6.1,6.1-2.7,6.1-6.1,6.1ZM227.8,811.6c-3.4,0-6.1-2.7-6.1-6.1s2.7-6.1,6.1-6.1,6.1,2.7,6.1,6.1-2.7,6.1-6.1,6.1ZM227.8,782.2c-3.4,0-6.1-2.7-6.1-6.1s2.7-6.1,6.1-6.1,6.1,2.7,6.1,6.1-2.7,6.1-6.1,6.1ZM227.8,752.8c-3.4,0-6.1-2.7-6.1-6.1s2.7-6.1,6.1-6.1,6.1,2.7,6.1,6.1-2.7,6.1-6.1,6.1ZM227.8,723.4c-3.4,0-6.1-2.7-6.1-6.1s2.7-6.1,6.1-6.1,6.1,2.7,6.1,6.1-2.7,6.1-6.1,6.1ZM227.8,694c-3.4,0-6.1-2.7-6.1-6.1s2.7-6.1,6.1-6.1,6.1,2.7,6.1,6.1-2.7,6.1-6.1,6.1ZM227.8,664.6c-3.4,0-6.1-2.7-6.1-6.1s2.7-6.1,6.1-6.1,6.1,2.7,6.1,6.1-2.7,6.1-6.1,6.1ZM227.8,635.2c-3.4,0-6.1-2.7-6.1-6.1s2.7-6.1,6.1-6.1,6.1,2.7,6.1,6.1-2.7,6.1-6.1,6.1ZM227.8,605.8c-3.4,0-6.1-2.7-6.1-6.1s2.7-6.1,6.1-6.1,6.1,2.7,6.1,6.1-2.7,6.1-6.1,6.1ZM227.8,576.4c-3.4,0-6.1-2.7-6.1-6.1s2.7-6.1,6.1-6.1,6.1,2.7,6.1,6.1-2.7,6.1-6.1,6.1ZM227.8,547c-3.4,0-6.1-2.7-6.1-6.1s2.7-6.1,6.1-6.1,6.1,2.7,6.1,6.1-2.7,6.1-6.1,6.1ZM227.8,517.6c-3.4,0-6.1-2.7-6.1-6.1s2.7-6.1,6.1-6.1,6.1,2.7,6.1,6.1-2.7,6.1-6.1,6.1ZM227.8,488.2c-3.4,0-6.1-2.7-6.1-6.1s2.7-6.1,6.1-6.1,6.1,2.7,6.1,6.1-2.7,6.1-6.1,6.1ZM227.8,458.8c-3.4,0-6.1-2.7-6.1-6.1s2.7-6.1,6.1-6.1,6.1,2.7,6.1,6.1-2.7,6.1-6.1,6.1ZM227.8,429.4c-3.4,0-6.1-2.7-6.1-6.1s2.7-6.1,6.1-6.1,6.1,2.7,6.1,6.1-2.7,6.1-6.1,6.1ZM227.8,400c-3.4,0-6.1-2.7-6.1-6.1s2.7-6.1,6.1-6.1,6.1,2.7,6.1,6.1-2.7,6.1-6.1,6.1ZM227.8,370.7c-3.4,0-6.1-2.7-6.1-6.1s2.7-6.1,6.1-6.1,6.1,2.7,6.1,6.1-2.7,6.1-6.1,6.1ZM227.8,341.3c-3.4,0-6.1-2.7-6.1-6.1s2.7-6.1,6.1-6.1,6.1,2.7,6.1,6.1-2.7,6.1-6.1,6.1ZM227.8,311.9c-3.4,0-6.1-2.7-6.1-6.1s2.7-6.1,6.1-6.1,6.1,2.7,6.1,6.1-2.7,6.1-6.1,6.1ZM227.8,282.5c-3.4,0-6.1-2.7-6.1-6.1s2.7-6.1,6.1-6.1,6.1,2.7,6.1,6.1-2.7,6.1-6.1,6.1Z"/>
        <path class="cls-32" d="M53.7,261.1c-11.3,0-20.5,9.2-20.5,20.5s9.2,20.5,20.5,20.5,20.5-9.2,20.5-20.5c.1-11.3-9.1-20.5-20.5-20.5ZM53.7,293.8c-6.7,0-12.1-5.4-12.1-12.1s5.4-12.1,12.1-12.1,12.1,5.4,12.1,12.1c0,6.7-5.4,12.1-12.1,12.1Z"/>
        <path class="cls-32" d="M186.3,261.1c-11.3,0-20.5,9.2-20.5,20.5s9.2,20.5,20.5,20.5,20.5-9.2,20.5-20.5-9.2-20.5-20.5-20.5ZM186.3,293.8c-6.7,0-12.1-5.4-12.1-12.1s5.4-12.1,12.1-12.1,12.1,5.4,12.1,12.1c0,6.7-5.4,12.1-12.1,12.1Z"/>
        <path class="cls-32" d="M53.7,808.3c-11.3,0-20.5,9.2-20.5,20.5s9.2,20.5,20.5,20.5,20.5-9.2,20.5-20.5-9.1-20.5-20.5-20.5ZM53.7,841c-6.7,0-12.1-5.4-12.1-12.1s5.4-12.1,12.1-12.1,12.1,5.4,12.1,12.1-5.4,12.1-12.1,12.1Z"/>
        <path class="cls-32" d="M188.3,808.3c-11.3,0-20.5,9.2-20.5,20.5s9.2,20.5,20.5,20.5,20.5-9.2,20.5-20.5-9.2-20.5-20.5-20.5ZM188.3,841c-6.7,0-12.1-5.4-12.1-12.1s5.4-12.1,12.1-12.1,12.1,5.4,12.1,12.1-5.4,12.1-12.1,12.1Z"/>
        <circle class="cls-36" cx="55" cy="346.4" r="10.6"/>
        <circle class="cls-25" cx="55" cy="346.4" r="5.5"/>
        <path class="cls-37" d="M17.5,326.2H.3v3.4c2.3.9,3.9,3.1,3.9,5.7s-1.6,4.8-3.9,5.7v3.4h17.2c5,0,9-4,9-9h0c0-5.2-4.1-9.2-9-9.2ZM15.9,341.3c-3.4,0-6.1-2.7-6.1-6.1s2.7-6.1,6.1-6.1,6.1,2.7,6.1,6.1-2.8,6.1-6.1,6.1Z"/>
        <path class="cls-37" d="M17.5,473.2H.3v3.4c2.3.9,3.9,3.1,3.9,5.7s-1.6,4.8-3.9,5.7v3.4h17.2c5,0,9-4,9-9s-4.1-9.2-9-9.2ZM15.9,488.3c-3.4,0-6.1-2.7-6.1-6.1s2.7-6.1,6.1-6.1,6.1,2.7,6.1,6.1-2.8,6.1-6.1,6.1Z"/>
        <path class="cls-37" d="M17.5,620.1H.3v3.4c2.3.9,3.9,3.1,3.9,5.7s-1.6,4.8-3.9,5.7v3.4h17.2c5,0,9-4,9-9s-4.1-9.2-9-9.2ZM15.9,635.2c-3.4,0-6.1-2.7-6.1-6.1s2.7-6.1,6.1-6.1,6.1,2.7,6.1,6.1-2.8,6.1-6.1,6.1Z"/>
        <path class="cls-37" d="M17.5,649.5H.3v3.4c2.3.9,3.9,3.1,3.9,5.7s-1.6,4.8-3.9,5.7v3.4h17.2c5,0,9-4,9-9s-4.1-9.2-9-9.2ZM15.9,664.6c-3.4,0-6.1-2.7-6.1-6.1s2.7-6.1,6.1-6.1,6.1,2.7,6.1,6.1-2.8,6.1-6.1,6.1Z"/>
        <path class="cls-37" d="M17.5,678.9H.3v3.4c2.3.9,3.9,3.1,3.9,5.7s-1.6,4.8-3.9,5.7v3.4h17.2c5,0,9-4,9-9s-4.1-9.2-9-9.2ZM15.9,694c-3.4,0-6.1-2.7-6.1-6.1s2.7-6.1,6.1-6.1,6.1,2.7,6.1,6.1-2.8,6.1-6.1,6.1Z"/>
        <path class="cls-37" d="M17.5,708.3H.3v3.4c2.3.9,3.9,3.1,3.9,5.7s-1.6,4.8-3.9,5.7v3.4h17.2c5,0,9-4,9-9s-4.1-9.2-9-9.2ZM15.9,723.4c-3.4,0-6.1-2.7-6.1-6.1s2.7-6.1,6.1-6.1,6.1,2.7,6.1,6.1-2.8,6.1-6.1,6.1Z"/>
        <path class="cls-37" d="M17.5,767.1H.3v3.4c2.3.9,3.9,3.1,3.9,5.7s-1.6,4.8-3.9,5.7v3.4h17.2c5,0,9-4,9-9h0c0-5.1-4.1-9.2-9-9.2ZM15.9,782.2c-3.4,0-6.1-2.7-6.1-6.1s2.7-6.1,6.1-6.1,6.1,2.7,6.1,6.1-2.8,6.1-6.1,6.1Z"/>
        <path class="cls-37" d="M17.5,796.5H.3v3.4c2.3.9,3.9,3.1,3.9,5.7s-1.6,4.8-3.9,5.7v3.4h17.2c5,0,9-4,9-9h0c0-5.2-4.1-9.2-9-9.2ZM15.9,811.6c-3.4,0-6.1-2.7-6.1-6.1s2.7-6.1,6.1-6.1,6.1,2.7,6.1,6.1-2.8,6.1-6.1,6.1Z"/>
        <path class="cls-37" d="M17.5,825.9H.3v3.4c2.3.9,3.9,3.1,3.9,5.7s-1.6,4.8-3.9,5.7v3.4h17.2c5,0,9-4,9-9s-4.1-9.2-9-9.2ZM15.9,841c-3.4,0-6.1-2.7-6.1-6.1s2.7-6.1,6.1-6.1,6.1,2.7,6.1,6.1-2.8,6.1-6.1,6.1Z"/>
        <path class="cls-37" d="M239.5,276.4c0-2.6,1.6-4.8,3.9-5.7v-3.4h-17.2c-5,0-9,4-9,9s4,9,9,9h17.2v-3.4c-2.2-.7-3.9-2.9-3.9-5.5ZM227.8,282.5c-3.4,0-6.1-2.7-6.1-6.1s2.7-6.1,6.1-6.1,6.1,2.7,6.1,6.1-2.7,6.1-6.1,6.1Z"/>
        <path class="cls-37" d="M239.5,305.8c0-2.6,1.6-4.8,3.9-5.7v-3.4h-17.2c-5,0-9,4-9,9h0c0,5,4,9,9,9h17.2v-3.4c-2.2-.7-3.9-2.9-3.9-5.5ZM227.8,311.9c-3.4,0-6.1-2.7-6.1-6.1s2.7-6.1,6.1-6.1,6.1,2.7,6.1,6.1-2.7,6.1-6.1,6.1Z"/>
        <path class="cls-37" d="M239.5,335.2c0-2.6,1.6-4.8,3.9-5.7v-3.4h-17.2c-5,0-9,4-9,9h0c0,5,4,9,9,9h17.2v-3.4c-2.2-.7-3.9-2.9-3.9-5.5ZM227.8,341.3c-3.4,0-6.1-2.7-6.1-6.1s2.7-6.1,6.1-6.1,6.1,2.7,6.1,6.1-2.7,6.1-6.1,6.1Z"/>
        <path class="cls-37" d="M239.5,364.6c0-2.6,1.6-4.8,3.9-5.7v-3.4h-17.2c-5,0-9,4-9,9s4,9,9,9h17.2v-3.4c-2.2-.7-3.9-2.9-3.9-5.5ZM227.8,370.7c-3.4,0-6.1-2.7-6.1-6.1s2.7-6.1,6.1-6.1,6.1,2.7,6.1,6.1-2.7,6.1-6.1,6.1Z"/>
        <path class="cls-37" d="M239.5,394c0-2.6,1.6-4.8,3.9-5.7v-3.3h-17.2c-5,0-9,4-9,9s4,9,9,9h17.2v-3.4c-2.2-.8-3.9-3-3.9-5.6ZM227.8,400.1c-3.4,0-6.1-2.7-6.1-6.1s2.7-6.1,6.1-6.1,6.1,2.7,6.1,6.1-2.7,6.1-6.1,6.1Z"/>
        <path class="cls-37" d="M239.5,423.4c0-2.6,1.6-4.8,3.9-5.7v-3.4h-17.2c-5,0-9,4-9,9s4,9,9,9h17.2v-3.4c-2.2-.7-3.9-2.9-3.9-5.5ZM227.8,429.5c-3.4,0-6.1-2.7-6.1-6.1s2.7-6.1,6.1-6.1,6.1,2.7,6.1,6.1-2.7,6.1-6.1,6.1Z"/>
        <path class="cls-37" d="M239.5,482.2c0-2.6,1.6-4.8,3.9-5.7v-3.4h-17.2c-5,0-9,4-9,9s4,9,9,9h17.2v-3.4c-2.2-.7-3.9-2.9-3.9-5.5ZM227.8,488.3c-3.4,0-6.1-2.7-6.1-6.1s2.7-6.1,6.1-6.1,6.1,2.7,6.1,6.1-2.7,6.1-6.1,6.1Z"/>
        <path class="cls-37" d="M239.5,541c0-2.6,1.6-4.8,3.9-5.7v-3.4h-17.2c-5,0-9,4-9,9h0c0,5,4,9,9,9h17.2v-3.4c-2.2-.7-3.9-2.9-3.9-5.5ZM227.8,547.1c-3.4,0-6.1-2.7-6.1-6.1s2.7-6.1,6.1-6.1,6.1,2.7,6.1,6.1-2.7,6.1-6.1,6.1Z"/>
        <path class="cls-37" d="M239.5,570.4c0-2.6,1.6-4.8,3.9-5.7v-3.4h-17.2c-5,0-9,4-9,9h0c0,5,4,9,9,9h17.2v-3.3c-2.2-.9-3.9-3.1-3.9-5.6ZM227.8,576.4c-3.4,0-6.1-2.7-6.1-6.1s2.7-6.1,6.1-6.1,6.1,2.7,6.1,6.1-2.7,6.1-6.1,6.1Z"/>
        <path class="cls-37" d="M239.5,599.8c0-2.6,1.6-4.8,3.9-5.7v-3.4h-17.2c-5,0-9,4-9,9s4,9,9,9h17.2v-3.4c-2.2-.8-3.9-3-3.9-5.5ZM227.8,605.8c-3.4,0-6.1-2.7-6.1-6.1s2.7-6.1,6.1-6.1,6.1,2.7,6.1,6.1-2.7,6.1-6.1,6.1Z"/>
        <path class="cls-37" d="M239.5,629.2c0-2.6,1.6-4.8,3.9-5.7v-3.4h-17.2c-5,0-9,4-9,9s4,9,9,9h17.2v-3.4c-2.2-.8-3.9-3-3.9-5.5ZM227.8,635.2c-3.4,0-6.1-2.7-6.1-6.1s2.7-6.1,6.1-6.1,6.1,2.7,6.1,6.1-2.7,6.1-6.1,6.1Z"/>
        <path class="cls-37" d="M239.5,658.6c0-2.6,1.6-4.8,3.9-5.7v-3.4h-17.2c-5,0-9,4-9,9s4,9,9,9h17.2v-3.4c-2.2-.8-3.9-3-3.9-5.5ZM227.8,664.6c-3.4,0-6.1-2.7-6.1-6.1s2.7-6.1,6.1-6.1,6.1,2.7,6.1,6.1-2.7,6.1-6.1,6.1Z"/>
        <path class="cls-37" d="M239.5,687.9c0-2.6,1.6-4.8,3.9-5.7v-3.4h-17.2c-5,0-9,4-9,9s4,9,9,9h17.2v-3.4c-2.2-.7-3.9-2.9-3.9-5.5ZM227.8,694c-3.4,0-6.1-2.7-6.1-6.1s2.7-6.1,6.1-6.1,6.1,2.7,6.1,6.1-2.7,6.1-6.1,6.1Z"/>
        <path class="cls-37" d="M239.5,717.3c0-2.6,1.6-4.8,3.9-5.7v-3.4h-17.2c-5,0-9,4-9,9s4,9,9,9h17.2v-3.2c-2.2-.9-3.9-3.1-3.9-5.7ZM227.8,723.4c-3.4,0-6.1-2.7-6.1-6.1s2.7-6.1,6.1-6.1,6.1,2.7,6.1,6.1-2.7,6.1-6.1,6.1Z"/>
        <path class="cls-37" d="M239.5,776.1c0-2.6,1.6-4.8,3.9-5.7v-3.4h-17.2c-5,0-9,4-9,9h0c0,5,4,9,9,9h17.2v-3.4c-2.2-.7-3.9-2.9-3.9-5.5ZM227.8,782.2c-3.4,0-6.1-2.7-6.1-6.1s2.7-6.1,6.1-6.1,6.1,2.7,6.1,6.1-2.7,6.1-6.1,6.1Z"/>
        <path class="cls-37" d="M239.5,805.5c0-2.6,1.6-4.8,3.9-5.7v-3.4h-17.2c-5,0-9,4-9,9h0c0,5,4,9,9,9h17.2v-3.4c-2.2-.7-3.9-2.9-3.9-5.5ZM227.8,811.6c-3.4,0-6.1-2.7-6.1-6.1s2.7-6.1,6.1-6.1,6.1,2.7,6.1,6.1-2.7,6.1-6.1,6.1Z"/>
        <path class="cls-23" d="M163.1,248.3l4.4-4.4-2.3-2.3-6.6,6.6h-1.5v-4.7c0-1.2-1-2.2-2.2-2.2h-69.5c-1.2,0-2.2,1-2.2,2.2v4.7h-1.5l-6.6-6.6-2.3,2.3,4.4,4.4c-.6.2-1,.8-1,1.4v56.3c0,.9.7,1.6,1.6,1.6h84.6c.9,0,1.6-.7,1.6-1.6v-56.3c0-.6-.4-1.2-.9-1.4Z"/>
        <g>
          <path class="cls-35" d="M100.3,270.6c0-3.2-2.6-5.8-5.8-5.8s-5.8,2.6-5.8,5.8.5,2.7,1.3,3.7h-.2v7.7c0,1.2,1,2.1,2.1,2.1h5.1c1.2,0,2.1-1,2.1-2.1v-7.7h0c.8-1,1.3-2.3,1.3-3.7Z"/>
          <path class="cls-35" d="M155.5,270.6c0-3.2-2.6-5.8-5.8-5.8s-5.8,2.6-5.8,5.8.5,2.7,1.3,3.7h-.2v7.7c0,1.2,1,2.1,2.1,2.1h5.1c1.2,0,2.1-1,2.1-2.1v-7.7h-.2c.9-1,1.4-2.3,1.4-3.7Z"/>
        </g>
        <path class="cls-22" d="M200.9,400.7h-21c-1.2,0-2.2-1-2.2-2.2v-26.7c0-1.2,1-2.2,2.2-2.2h21c1.2,0,2.2,1,2.2,2.2v26.7c0,1.3-1,2.2-2.2,2.2Z"/>
        <g>
          <rect class="cls-19" x="132" y="336.9" width="21.7" height="14.4"/>
          <path class="cls-29" d="M149.3,351.3c-2-1.8-3.2-4.4-3.2-7.2s1.2-5.4,3.2-7.2h-12.8c2,1.8,3.2,4.4,3.2,7.2s-1.2,5.4-3.2,7.2h12.8Z"/>
        </g>
        <g>
          <rect class="cls-19" x="132.3" y="422.3" width="21.7" height="14.4"/>
          <path class="cls-29" d="M149.6,436.7c-2-1.8-3.2-4.4-3.2-7.2s1.2-5.4,3.2-7.2h-12.8c2,1.8,3.2,4.4,3.2,7.2s-1.2,5.4-3.2,7.2h12.8Z"/>
        </g>
        <g>
          <rect class="cls-19" x="132.3" y="441.4" width="21.7" height="14.4"/>
          <path class="cls-29" d="M149.6,455.9c-2-1.8-3.2-4.4-3.2-7.2s1.2-5.4,3.2-7.2h-12.8c2,1.8,3.2,4.4,3.2,7.2s-1.2,5.4-3.2,7.2h12.8Z"/>
        </g>
        <g>
          <rect class="cls-19" x="61.2" y="492.4" width="10.6" height="5.4"/>
          <rect class="cls-29" x="63.5" y="492.4" width="6" height="5.4"/>
        </g>
        <g>
          <rect class="cls-19" x="177.1" y="472.4" width="5.4" height="10.6"/>
          <rect class="cls-29" x="177.1" y="474.7" width="5.4" height="6"/>
        </g>
        <rect class="cls-22" x="179.5" y="322.3" width="18.9" height="29.3"/>
        <g>
          <rect class="cls-19" x="171.6" y="423.6" width="20.6" height="9.6"/>
          <rect class="cls-14" x="176.2" y="423.6" width="11.5" height="9.6"/>
        </g>
        <rect class="cls-29" x="120.2" y="591.7" width="4.2" height="6.9"/>
        <rect class="cls-29" x="126.9" y="591.7" width="4.2" height="6.9"/>
        <rect class="cls-29" x="65.3" y="503" width="6.9" height="4.2"/>
        <rect class="cls-29" x="88.2" y="435.9" width="6.9" height="4.2"/>
        <rect class="cls-29" x="65" y="546.6" width="6.9" height="4.2"/>
        <rect class="cls-22" x="195" y="550.5" width="4.2" height="6.9"/>
        <rect class="cls-22" x="187.9" y="490.6" width="6.9" height="4.2"/>
        <rect class="cls-22" x="85.9" y="334.9" width="6.9" height="4.2"/>
        <rect class="cls-22" x="81" y="347.2" width="6.9" height="4.2"/>
        <rect class="cls-22" x="191.6" y="439.6" width="6.9" height="4.2"/>
        <path class="cls-16" d="M186.3,755.4H57.5c-2.1,0-3.9-1.7-3.9-3.9v-108.1c0-2.1,1.7-3.9,3.9-3.9h128.8c2.1,0,3.9,1.7,3.9,3.9v108.1c0,2.1-1.7,3.9-3.9,3.9Z"/>
        <rect class="cls-12" x="101.5" y="801.6" width="10.5" height="5.9"/>
        <rect class="cls-12" x="130.3" y="801.8" width="10.5" height="5.9"/>
        <rect class="cls-12" x="101.5" y="839.4" width="10.5" height="5.9"/>
        <rect class="cls-12" x="130.3" y="839.6" width="10.5" height="5.9"/>
        <polyline class="cls-11" points="17.5 284.2 17.5 288.6 35.4 306.5 35.4 355.1 51 370.7 51 505.5 55.9 510.4 91.2 510.4"/>
        <polyline class="cls-11" points="22.9 311 31 319.1 31 357 46.7 372.7 46.7 508 52.6 513.9 91 513.9"/>
        <polyline class="cls-11" points="23.2 369.5 43 389.2 43 510.4 53.4 520.8 95 520.8"/>
        <polyline class="cls-11" points="23.2 398.9 39.8 415.4 39.8 512.4 51.9 524.5 95.1 524.5"/>
        <polyline class="cls-11" points="23.2 429 35.6 441.4 35.6 517.4 49.5 531.3 93.4 531.3"/>
        <polyline class="cls-11" points="22.9 457.2 31.6 465.9 31.6 520 46.4 534.8 96.1 534.8"/>
        <polyline class="cls-11" points="22.9 515.8 45.3 538.3 102.7 538.3"/>
        <line class="cls-11" x1="23.7" y1="541.8" x2="98.8" y2="541.8"/>
        <path class="cls-11" d="M23.2,568.1c.1-.6,17.3-17.3,17.3-17.3h12.5l4.9,4.9h45.7"/>
        <polyline class="cls-11" points="20.4 594 25.7 588.7 25.7 580.9 30.9 575.8 30.9 567.3 43.9 554.3 52.6 554.3 57.3 559 95.3 559"/>
        <path class="cls-11" d="M30.7,584.2l3.4-3.4s-.7-8.9,0-9.6c.7-.7,6-6,6-6l6.3-6.3h6.1l3.7,3.7h35.1"/>
        <polyline class="cls-11" points="29.1 640.1 29.1 592.5 38.7 582.9 93.4 582.9 95 581.3 95 571.6"/>
        <polyline class="cls-11" points="17.5 738.4 17.5 734.7 32.9 719.3 32.9 639 35.7 636.3 35.7 594.5 42 588.1 94.2 588.1 98.4 583.9 98.4 576.6"/>
        <path class="cls-11" d="M35.7,621.9"/>
        <path class="cls-11" d="M35.7,637.2"/>
        <polyline class="cls-11" points="23.6 799 30.4 792.2 30.4 727.6 37.5 721.7"/>
        <polyline class="cls-11" points="35.6 732 42.6 724.9 42.6 635.2 39.9 632.5 39.9 595.7 44.6 591.1 94.9 591.1 101.9 584 101.9 567.4"/>
        <polyline class="cls-11" points="108.9 574.2 108.9 582.9 95.9 596 91.5 596"/>
        <polyline class="cls-11" points="93.9 604.6 112.4 586.1 112.4 570.7"/>
        <polyline class="cls-11" points="115.9 576 115.9 587.7 102.2 601.4 102.2 621.4 95.9 627.7 65 627.7 55.5 618.2"/>
        <polyline class="cls-11" points="133.9 615 138.7 610.2 138.7 596.9 135.5 593.7 135.5 583.7 132.4 580.6 132.4 569.7"/>
        <polyline class="cls-11" points="137.3 573.7 137.3 581.6 139.3 583.6 139.3 590 152.7 603.4 164.9 603.4 179.1 617.6"/>
        <polyline class="cls-11" points="145.3 571.6 145.3 581.9 151.3 587.9 172.3 587.9 200.5 616.2 200.5 728.8 206.7 735 206.7 785.8 212.3 791.4 212.3 811.6 223.3 822.7 223.3 828"/>
        <polyline class="cls-11" points="150.7 572 150.7 579.3 154.7 583.3 173.6 583.3 205.2 614.9 205.2 726.4 211.4 732.6 211.4 785.2 215.6 789.3 215.6 798.1"/>
        <polyline class="cls-11" points="157.5 566.8 165.3 566.8 211.1 612.7 211.1 724.3 227.2 740.4"/>
        <polyline class="cls-11" points="157.5 562.4 166.9 562.4 192.1 587.6"/>
        <polyline class="cls-11" points="158.6 557.3 166.6 557.3 190.1 580.8 195.5 580.8 206.3 591.6 206.3 598.5"/>
        <polyline class="cls-11" points="158.2 552.8 167.3 552.8 190.4 575.9 200.9 575.9"/>
        <polyline class="cls-11" points="158.2 548.7 169.1 548.7 174.1 553.7"/>
        <polyline class="cls-11" points="158.2 543.7 175.4 543.7 202.8 571.1 206.3 571.1 215.9 580.7 215.9 593.1"/>
        <line class="cls-11" x1="158.6" y1="538.3" x2="167.7" y2="538.3"/>
        <polyline class="cls-11" points="156.4 532.9 171.8 532.9 179.2 540.2"/>
        <polyline class="cls-11" points="187.9 552.8 192.4 548.3 192.4 529 203.4 529"/>
        <polyline class="cls-11" points="158.6 524.5 209.5 524.5 218.5 533.5"/>
        <polyline class="cls-11" points="158.2 520 213.8 520 220.3 513.6"/>
        <polyline class="cls-11" points="157.5 515.8 198.8 515.8 207.1 507.6 207.1 467.3 219.6 454.8"/>
        <polyline class="cls-11" points="158.6 511.6 179.1 511.6 202.4 488.3 202.4 465.5"/>
        <polyline class="cls-11" points="159.7 506.9 167.2 506.9 171.8 502.2"/>
        <path class="cls-11" d="M147.8,501.6c-.2-.3,9.2-9.2,9.2-9.2h15.6v-33.5l2.8-2.8v-7.7"/>
        <path class="cls-11" d="M147,499.3v-6.5l10.3-10.3"/>
        <polyline class="cls-11" points="140.1 500.3 140.1 489.5 147.4 482.1"/>
        <line class="cls-11" x1="136.6" y1="497.2" x2="136.6" y2="479.7"/>
        <path class="cls-11" d="M133.1,499v-15.2l-4.2-4.2"/>
        <path class="cls-11" d="M122.6,498.6v-20.7"/>
        <path class="cls-11" d="M119.2,500.3v-11.1l-7.6-7.6"/>
        <polyline class="cls-11" points="115.6 499.8 115.6 493.4 101.8 479.6 101.8 473.2 105 470 108.9 470 111.5 467.3 111.5 456.8 106.1 451.4 100 451.4"/>
        <polyline class="cls-11" points="99.8 457.2 105.4 457.2 108.5 460.3 108.5 465.5 105.7 468.2 101.1 468.2 97.7 471.6 97.7 480.7 108.7 491.7 108.7 498.4"/>
        <polyline class="cls-11" points="91.3 461.7 91.3 478.4 105.2 492.4 105.2 501.9"/>
        <polyline class="cls-11" points="76.5 460.9 76.5 468.1 85.9 477.5 85.9 481.3 99 494.4 99 503.4"/>
        <path class="cls-11" d="M94.8,497.5v-5l-11.7-11.7v-1.1l-4.5-4.5h-6.4l-1.7-1.7h-6.9l-6.7-6.7v-14.4l1.6-1.6h8.8"/>
        <polyline class="cls-11" points="69.1 444.8 60.4 444.8 55.4 449.8 55.4 467.6 63.4 475.6 69.5 475.6 75.9 482 78.4 482 92.5 496"/>
        <line class="cls-11" x1="73.8" y1="418.1" x2="56" y2="435.9"/>
        <polyline class="cls-11" points="137.6 478.7 137.6 472.6 134.7 469.6 134.7 466.6 130.2 462.2 125.2 462.2 121.1 458.1 121.1 439.1 109.7 427.7 109.7 345.5 124 331.2 124 322.1 127.7 318.4"/>
        <path class="cls-11" d="M135.3,371.4v-9l-3.1-3.1h-9.8l-4.5-4.5v-4.3"/>
        <polyline class="cls-11" points="129.3 403.7 129.3 409.1 126.1 412.3 120.2 412.3 118.6 413.8"/>
        <polyline class="cls-11" points="62.9 316.9 62.9 326.3 79.1 342.5 83.6 342.5 88.5 347.3 88.5 355.6 83.9 360.1 83.9 373.6"/>
        <rect class="cls-13" x="45.6" y="309.7" width="18.9" height="9.6"/>
        <g>
          <rect class="cls-15" x="102.7" y="307.6" width="4.3" height="11.5"/>
          <rect class="cls-15" x="110.4" y="307.6" width="4.3" height="11.5"/>
          <rect class="cls-15" x="118.1" y="307.6" width="4.3" height="11.5"/>
          <rect class="cls-15" x="125.7" y="307.6" width="4.3" height="11.5"/>
          <rect class="cls-15" x="133.4" y="307.6" width="4.3" height="11.5"/>
        </g>
        <g>
          <path class="cls-28" d="M106.8,328.4v-5.5h2.5v5.8c0,2,.6,2.7,1.7,2.7s1.8-.7,1.8-2.7v-5.8h2.4v5.5c0,3.5-1.4,5.1-4.2,5.1s-4.2-1.6-4.2-5.1Z"/>
          <path class="cls-28" d="M116.7,332l1.3-1.6c.7.6,1.7,1,2.6,1s1.4-.4,1.4-.9-.6-.8-1.5-1.2l-1.3-.6c-1.1-.4-2.1-1.3-2.1-2.8s1.6-3.2,3.8-3.2,2.5.5,3.4,1.3l-1.3,1.6c-.7-.5-1.4-.8-2.1-.8s-1.3.3-1.3.8.7.8,1.6,1.2l1.3.5c1.3.5,2.1,1.4,2.1,2.8s-1.5,3.3-4,3.3c-1.5.1-2.8-.4-3.9-1.4Z"/>
          <path class="cls-28" d="M126.3,322.9h3.6c2.2,0,3.9.6,3.9,2.6s-.5,1.9-1.4,2.2h0c1.1.4,1.9,1.2,1.9,2.5,0,2.1-1.8,3.1-4.1,3.1h-3.9s0-10.4,0-10.4ZM129.8,327c1.1,0,1.5-.5,1.5-1.2s-.5-1.1-1.5-1.1h-1.1v2.2h1.1ZM130,331.4c1.2,0,1.8-.4,1.8-1.3s-.6-1.2-1.8-1.2h-1.2v2.5h1.2Z"/>
        </g>
        <path class="cls-40" d="M170.2,404.3h-45.7c-.5,0-1-.4-1-1v-33.5c0-.5.4-1,1-1h45.7c.5,0,1,.4,1,1v33.5c0,.5-.5,1-1,1Z"/>
        <g>
          <rect class="cls-15" x="128.6" y="364.6" width="1.4" height="4.1"/>
          <rect class="cls-15" x="134.6" y="364.6" width="1.4" height="4.1"/>
          <rect class="cls-15" x="140.6" y="364.6" width="1.4" height="4.1"/>
          <rect class="cls-15" x="146.6" y="364.6" width="1.4" height="4.1"/>
          <rect class="cls-15" x="152.6" y="364.6" width="1.4" height="4.1"/>
          <rect class="cls-15" x="158.6" y="364.6" width="1.4" height="4.1"/>
          <rect class="cls-15" x="164.6" y="364.6" width="1.4" height="4.1"/>
        </g>
        <g>
          <rect class="cls-15" x="128.6" y="404.3" width="1.4" height="4.1"/>
          <rect class="cls-15" x="134.6" y="404.3" width="1.4" height="4.1"/>
          <rect class="cls-15" x="140.6" y="404.3" width="1.4" height="4.1"/>
          <rect class="cls-15" x="146.6" y="404.3" width="1.4" height="4.1"/>
          <rect class="cls-15" x="152.6" y="404.3" width="1.4" height="4.1"/>
          <rect class="cls-15" x="158.6" y="404.3" width="1.4" height="4.1"/>
          <rect class="cls-15" x="164.6" y="404.3" width="1.4" height="4.1"/>
        </g>
        <g>
          <rect class="cls-9" x="61.4" y="372.6" width="39.3" height="48.9"/>
          <path class="cls-34" d="M81,415.4h0c-7.6,0-13.7-6.1-13.7-13.7v-9.1c0-7.6,6.1-13.7,13.7-13.7h0c7.6,0,13.7,6.1,13.7,13.7v9.1c0,7.5-6.1,13.7-13.7,13.7Z"/>
          <path class="cls-34" d="M61.4,382.9h0v-10.3h10.3c-.1,5.7-4.6,10.3-10.3,10.3Z"/>
          <path class="cls-34" d="M71.6,421.6h-10.2v-10.3h0c5.7,0,10.2,4.6,10.2,10.3h0Z"/>
          <path class="cls-34" d="M100.7,382.9h0c-5.7,0-10.3-4.6-10.3-10.3h10.3v10.3Z"/>
          <path class="cls-34" d="M100.7,421.6h-10.3c0-5.7,4.6-10.3,10.3-10.3h0s0,10.3,0,10.3Z"/>
        </g>
        <g>
          <rect class="cls-40" x="64.9" y="442.1" width="34.6" height="22.9"/>
          <g>
            <rect class="cls-15" x="60.7" y="443.3" width="4.2" height="3.4"/>
            <rect class="cls-15" x="60.7" y="449" width="4.2" height="3.4"/>
            <rect class="cls-15" x="60.7" y="454.8" width="4.2" height="3.4"/>
            <rect class="cls-15" x="60.7" y="460.5" width="4.2" height="3.4"/>
          </g>
          <g>
            <rect class="cls-15" x="99.5" y="443.3" width="4.2" height="3.4"/>
            <rect class="cls-15" x="99.5" y="449" width="4.2" height="3.4"/>
            <rect class="cls-15" x="99.5" y="454.8" width="4.2" height="3.4"/>
            <rect class="cls-15" x="99.5" y="460.5" width="4.2" height="3.4"/>
          </g>
        </g>
        <rect class="cls-22" x="135.5" y="473.6" width="4.2" height="6.9"/>
        <g>
          <path class="cls-18" d="M160.4,577.4h-79c-.7,0-1.3-.6-1.3-1.3v-79.1c0-.7.6-1.3,1.3-1.3h79.1c.7,0,1.3.6,1.3,1.3v79.1c-.1.7-.7,1.3-1.4,1.3Z"/>
          <g>
            <rect class="cls-15" x="86.2" y="493.8" width="3.1" height="1.9"/>
            <rect class="cls-15" x="89.7" y="493.8" width="3.1" height="1.9"/>
            <rect class="cls-15" x="93.2" y="493.8" width="3.1" height="1.9"/>
            <rect class="cls-15" x="96.7" y="493.8" width="3.1" height="1.9"/>
            <rect class="cls-15" x="100.2" y="493.8" width="3.1" height="1.9"/>
            <rect class="cls-15" x="103.6" y="493.8" width="3.1" height="1.9"/>
            <rect class="cls-15" x="107.1" y="493.8" width="3.1" height="1.9"/>
            <rect class="cls-15" x="114.1" y="493.8" width="3.1" height="1.9"/>
            <rect class="cls-15" x="121.1" y="493.8" width="3.1" height="1.9"/>
            <rect class="cls-15" x="128" y="493.8" width="3.1" height="1.9"/>
            <rect class="cls-15" x="138.5" y="493.8" width="3.1" height="1.9"/>
            <rect class="cls-15" x="142" y="493.8" width="3.1" height="1.9"/>
            <rect class="cls-15" x="149" y="493.8" width="3.1" height="1.9"/>
            <rect class="cls-15" x="110.6" y="493.8" width="3.1" height="1.9"/>
            <rect class="cls-15" x="117.6" y="493.8" width="3.1" height="1.9"/>
            <rect class="cls-15" x="124.6" y="493.8" width="3.1" height="1.9"/>
            <rect class="cls-15" x="131.5" y="493.8" width="3.1" height="1.9"/>
            <rect class="cls-15" x="135" y="493.8" width="3.1" height="1.9"/>
            <rect class="cls-15" x="145.5" y="493.8" width="3.1" height="1.9"/>
            <rect class="cls-15" x="152.4" y="493.8" width="3.1" height="1.9"/>
          </g>
          <g>
            <rect class="cls-15" x="86.4" y="577.4" width="3.1" height="1.9"/>
            <rect class="cls-15" x="89.9" y="577.4" width="3.1" height="1.9"/>
            <rect class="cls-15" x="93.4" y="577.4" width="3.1" height="1.9"/>
            <rect class="cls-15" x="96.9" y="577.4" width="3.1" height="1.9"/>
            <rect class="cls-15" x="100.4" y="577.4" width="3.1" height="1.9"/>
            <rect class="cls-15" x="103.8" y="577.4" width="3.1" height="1.9"/>
            <rect class="cls-15" x="107.3" y="577.4" width="3.1" height="1.9"/>
            <rect class="cls-15" x="114.3" y="577.4" width="3.1" height="1.9"/>
            <rect class="cls-15" x="121.3" y="577.4" width="3.1" height="1.9"/>
            <rect class="cls-15" x="128.2" y="577.4" width="3.1" height="1.9"/>
            <rect class="cls-15" x="138.7" y="577.4" width="3.1" height="1.9"/>
            <rect class="cls-15" x="142.2" y="577.4" width="3.1" height="1.9"/>
            <rect class="cls-15" x="149.1" y="577.4" width="3.1" height="1.9"/>
            <rect class="cls-15" x="110.8" y="577.4" width="3.1" height="1.9"/>
            <rect class="cls-15" x="117.8" y="577.4" width="3.1" height="1.9"/>
            <rect class="cls-15" x="124.7" y="577.4" width="3.1" height="1.9"/>
            <rect class="cls-15" x="131.7" y="577.4" width="3.1" height="1.9"/>
            <rect class="cls-15" x="135.2" y="577.4" width="3.1" height="1.9"/>
            <rect class="cls-15" x="145.7" y="577.4" width="3.1" height="1.9"/>
            <rect class="cls-15" x="152.6" y="577.4" width="3.1" height="1.9"/>
          </g>
          <g>
            <rect class="cls-15" x="78.1" y="568.2" width="1.9" height="3.1"/>
            <rect class="cls-15" x="78.1" y="564.7" width="1.9" height="3.1"/>
            <rect class="cls-15" x="78.1" y="561.2" width="1.9" height="3.1"/>
            <rect class="cls-15" x="78.1" y="557.7" width="1.9" height="3.1"/>
            <rect class="cls-15" x="78.2" y="554.2" width="1.9" height="3.1"/>
            <rect class="cls-15" x="78.2" y="550.7" width="1.9" height="3.1"/>
            <rect class="cls-15" x="78.1" y="547.2" width="1.9" height="3.1"/>
            <rect class="cls-15" x="78.1" y="540.3" width="1.9" height="3.1"/>
            <rect class="cls-15" x="78.2" y="533.3" width="1.9" height="3.1"/>
            <rect class="cls-15" x="78.1" y="526.3" width="1.9" height="3.1"/>
            <rect class="cls-15" x="78.1" y="515.9" width="1.9" height="3.1"/>
            <rect class="cls-15" x="78.1" y="512.4" width="1.9" height="3.1"/>
            <rect class="cls-15" x="78.2" y="505.4" width="1.9" height="3.1"/>
            <rect class="cls-15" x="78.1" y="543.8" width="1.9" height="3.1"/>
            <rect class="cls-15" x="78.1" y="536.8" width="1.9" height="3.1"/>
            <rect class="cls-15" x="78.2" y="529.8" width="1.9" height="3.1"/>
            <rect class="cls-15" x="78.1" y="522.8" width="1.9" height="3.1"/>
            <rect class="cls-15" x="78.1" y="519.4" width="1.9" height="3.1"/>
            <rect class="cls-15" x="78.2" y="508.9" width="1.9" height="3.1"/>
            <rect class="cls-15" x="78.1" y="501.9" width="1.9" height="3.1"/>
          </g>
          <g>
            <rect class="cls-15" x="161.7" y="568.1" width="1.9" height="3.1"/>
            <rect class="cls-15" x="161.7" y="564.7" width="1.9" height="3.1"/>
            <rect class="cls-15" x="161.7" y="561.2" width="1.9" height="3.1"/>
            <rect class="cls-15" x="161.7" y="557.7" width="1.9" height="3.1"/>
            <rect class="cls-15" x="161.8" y="554.2" width="1.9" height="3.1"/>
            <rect class="cls-15" x="161.7" y="550.7" width="1.9" height="3.1"/>
            <rect class="cls-15" x="161.7" y="547.2" width="1.9" height="3.1"/>
            <rect class="cls-15" x="161.7" y="540.3" width="1.9" height="3.1"/>
            <rect class="cls-15" x="161.8" y="533.3" width="1.9" height="3.1"/>
            <rect class="cls-15" x="161.7" y="526.3" width="1.9" height="3.1"/>
            <rect class="cls-15" x="161.7" y="515.9" width="1.9" height="3.1"/>
            <rect class="cls-15" x="161.7" y="512.4" width="1.9" height="3.1"/>
            <rect class="cls-15" x="161.7" y="505.4" width="1.9" height="3.1"/>
            <rect class="cls-15" x="161.7" y="543.8" width="1.9" height="3.1"/>
            <rect class="cls-15" x="161.7" y="536.8" width="1.9" height="3.1"/>
            <rect class="cls-15" x="161.8" y="529.8" width="1.9" height="3.1"/>
            <rect class="cls-15" x="161.7" y="522.8" width="1.9" height="3.1"/>
            <rect class="cls-15" x="161.7" y="519.4" width="1.9" height="3.1"/>
            <rect class="cls-15" x="161.8" y="508.9" width="1.9" height="3.1"/>
            <rect class="cls-15" x="161.7" y="501.9" width="1.9" height="3.1"/>
          </g>
          <circle class="cls-17" cx="90.2" cy="506.9" r="2.8"/>
        </g>
        <rect class="cls-40" x="187.1" y="461.5" width="18.2" height="8.6"/>
        <rect class="cls-15" x="189.1" y="470.2" width="2.9" height="8.7"/>
        <rect class="cls-15" x="200.9" y="470.2" width="2.9" height="8.7"/>
        <rect class="cls-15" x="194.8" y="452.9" width="2.9" height="8.7"/>
        <rect class="cls-29" x="169.2" y="500.9" width="6.9" height="4.2"/>
        <rect class="cls-22" x="189.5" y="530.7" width="4.2" height="6.9"/>
        <rect class="cls-29" x="172.3" y="549.9" width="4.2" height="6.9" transform="translate(-340.2 285.4) rotate(-45)"/>
        <g>
          <path class="cls-37" d="M157,612.1c-5.1,0-9.2,4.1-9.2,9.2s4.1,9.2,9.2,9.2,9.2-4.1,9.2-9.2-4.1-9.2-9.2-9.2ZM157,627c-3.1,0-5.7-2.6-5.7-5.7s2.6-5.7,5.7-5.7,5.7,2.6,5.7,5.7-2.5,5.7-5.7,5.7Z"/>
          <path class="cls-37" d="M118.7,612.5v17.7h17.7v-17.7h-17.7ZM127.6,627c-3.1,0-5.7-2.6-5.7-5.7s2.6-5.7,5.7-5.7,5.7,2.6,5.7,5.7-2.6,5.7-5.7,5.7Z"/>
          <path class="cls-37" d="M186.8,612.1c-5.1,0-9.2,4.1-9.2,9.2s4.1,9.2,9.2,9.2,9.2-4.1,9.2-9.2-4.1-9.2-9.2-9.2ZM186.8,627c-3.1,0-5.7-2.6-5.7-5.7s2.6-5.7,5.7-5.7,5.7,2.6,5.7,5.7-2.5,5.7-5.7,5.7Z"/>
        </g>
        <path class="cls-37" d="M17.5,590.7H.3v3.4c2.3.9,3.9,3.1,3.9,5.7s-1.6,4.8-3.9,5.7v3.4h17.2c5,0,9-4,9-9s-4.1-9.2-9-9.2ZM15.9,605.8c-3.4,0-6.1-2.7-6.1-6.1s2.7-6.1,6.1-6.1,6.1,2.7,6.1,6.1-2.8,6.1-6.1,6.1Z"/>
        <path class="cls-37" d="M17.5,561.3H.3v3.4c2.3.9,3.9,3.1,3.9,5.7s-1.6,4.8-3.9,5.7v3.4h17.2c5,0,9-4,9-9h0c0-5.1-4.1-9.2-9-9.2ZM15.9,576.4c-3.4,0-6.1-2.7-6.1-6.1s2.7-6.1,6.1-6.1,6.1,2.7,6.1,6.1-2.8,6.1-6.1,6.1Z"/>
        <path class="cls-37" d="M17.5,531.9H.3v3.4c2.3.9,3.9,3.1,3.9,5.7s-1.6,4.8-3.9,5.7v3.4h17.2c5,0,9-4,9-9h0c0-5.1-4.1-9.2-9-9.2ZM15.9,547.1c-3.4,0-6.1-2.7-6.1-6.1s2.7-6.1,6.1-6.1,6.1,2.7,6.1,6.1-2.8,6.1-6.1,6.1Z"/>
        <path class="cls-37" d="M17.5,502.6H.3v3.4c2.3.9,3.9,3.1,3.9,5.7s-1.6,4.8-3.9,5.7v3.4h17.2c5,0,9-4,9-9s-4.1-9.2-9-9.2ZM15.9,517.7c-3.4,0-6.1-2.7-6.1-6.1s2.7-6.1,6.1-6.1,6.1,2.7,6.1,6.1c-.1,3.3-2.8,6.1-6.1,6.1Z"/>
        <path class="cls-37" d="M17.5,443.8H.3v3.4c2.3.9,3.9,3.1,3.9,5.7s-1.6,4.8-3.9,5.7v3.4h17.2c5,0,9-4,9-9s-4.1-9.2-9-9.2ZM15.9,458.9c-3.4,0-6.1-2.7-6.1-6.1s2.7-6.1,6.1-6.1,6.1,2.7,6.1,6.1-2.8,6.1-6.1,6.1Z"/>
        <path class="cls-37" d="M17.5,414.4H.3v3.4c2.3.9,3.9,3.1,3.9,5.7s-1.6,4.8-3.9,5.7v3.4h17.2c5,0,9-4,9-9s-4.1-9.2-9-9.2ZM15.9,429.5c-3.4,0-6.1-2.7-6.1-6.1s2.7-6.1,6.1-6.1,6.1,2.7,6.1,6.1-2.8,6.1-6.1,6.1Z"/>
        <path class="cls-37" d="M17.5,385H.3v3.4c2.3.9,3.9,3.1,3.9,5.7s-1.6,4.8-3.9,5.7v3.4h17.2c5,0,9-4,9-9s-4.1-9.2-9-9.2ZM15.9,400.1c-3.4,0-6.1-2.7-6.1-6.1s2.7-6.1,6.1-6.1,6.1,2.7,6.1,6.1-2.8,6.1-6.1,6.1Z"/>
        <path class="cls-37" d="M17.5,355.6H.3v3.4c2.3.9,3.9,3.1,3.9,5.7s-1.6,4.8-3.9,5.7v3.4h17.2c5,0,9-4,9-9s-4.1-9.2-9-9.2ZM15.9,370.7c-3.4,0-6.1-2.7-6.1-6.1s2.7-6.1,6.1-6.1,6.1,2.7,6.1,6.1-2.8,6.1-6.1,6.1Z"/>
        <path class="cls-37" d="M17.5,296.8H.3v3.4c2.3.9,3.9,3.1,3.9,5.7s-1.6,4.8-3.9,5.7v3.4h17.2c5,0,9-4,9-9h0c0-5.2-4.1-9.2-9-9.2ZM15.9,311.9c-3.4,0-6.1-2.7-6.1-6.1s2.7-6.1,6.1-6.1,6.1,2.7,6.1,6.1-2.8,6.1-6.1,6.1Z"/>
        <path class="cls-37" d="M17.5,267.4H.3v3.4c2.3.9,3.9,3.1,3.9,5.7s-1.6,4.8-3.9,5.7v3.4h17.2c5,0,9-4,9-9s-4.1-9.2-9-9.2ZM15.9,282.5c-3.4,0-6.1-2.7-6.1-6.1s2.7-6.1,6.1-6.1,6.1,2.7,6.1,6.1-2.8,6.1-6.1,6.1Z"/>
        <path class="cls-37" d="M17.5,737.7H.3v3.4c2.3.9,3.9,3.1,3.9,5.7s-1.6,4.8-3.9,5.7v3.4h17.2c5,0,9-4,9-9s-4.1-9.2-9-9.2ZM15.9,752.8c-3.4,0-6.1-2.7-6.1-6.1s2.7-6.1,6.1-6.1,6.1,2.7,6.1,6.1-2.8,6.1-6.1,6.1Z"/>
        <path class="cls-37" d="M239.5,834.9c0-2.6,1.6-4.8,3.9-5.7v-3.4h-17.2c-5,0-9,4-9,9s4,9,9,9h17.2v-3.4c-2.2-.7-3.9-2.9-3.9-5.5ZM227.8,841c-3.4,0-6.1-2.7-6.1-6.1s2.7-6.1,6.1-6.1,6.1,2.7,6.1,6.1-2.7,6.1-6.1,6.1Z"/>
        <path class="cls-37" d="M239.5,746.7c0-2.6,1.6-4.8,3.9-5.7v-3.4h-17.2c-5,0-9,4-9,9s4,9,9,9h17.2v-3.4c-2.2-.7-3.9-2.9-3.9-5.5ZM227.8,752.8c-3.4,0-6.1-2.7-6.1-6.1s2.7-6.1,6.1-6.1,6.1,2.7,6.1,6.1-2.7,6.1-6.1,6.1Z"/>
        <path class="cls-37" d="M239.5,511.6c0-2.6,1.6-4.8,3.9-5.7v-3.4h-17.2c-5,0-9,4-9,9s4,9,9,9h17.2v-3.4c-2.2-.7-3.9-2.9-3.9-5.5ZM227.8,517.7c-3.4,0-6.1-2.7-6.1-6.1s2.7-6.1,6.1-6.1,6.1,2.7,6.1,6.1c0,3.3-2.7,6.1-6.1,6.1Z"/>
        <rect class="cls-12" x="91.4" y="604.1" width="3.7" height="6.7"/>
        <g>
          <path class="cls-31" d="M82.2,625h-31.8c-1.2,0-2.2-1-2.2-2.2v-23.7c0-1.2,1-2.2,2.2-2.2h31.8c1.2,0,2.2,1,2.2,2.2v23.7c0,1.2-1,2.2-2.2,2.2Z"/>
          <path class="cls-39" d="M79.9,622.5h-27.3c-.8,0-1.4-.6-1.4-1.4v-20.4c0-.8.6-1.4,1.4-1.4h27.3c.8,0,1.4.6,1.4,1.4v20.4c0,.8-.6,1.4-1.4,1.4Z"/>
        </g>
        <rect class="cls-12" x="91.4" y="624" width="3.7" height="6.7"/>
        <rect class="cls-22" x="100.1" y="609.8" width="4.2" height="6.9"/>
        <g>
          <path class="cls-28" d="M42.3,429.9v-3.6c0-2.2.6-3.9,2.6-3.9s1.9.5,2.2,1.4h0c.3-1.1,1.1-1.9,2.4-1.9,2.1,0,3.1,1.8,3.1,4.1v3.9h-10.4ZM46.4,426.4c0-1.1-.5-1.5-1.2-1.5s-1.1.5-1.1,1.5v1.1h2.2v-1.1h0ZM50.8,426.2c0-1.2-.4-1.8-1.3-1.8s-1.2.6-1.2,1.8v1.2h2.5v-1.2Z"/>
          <path class="cls-28" d="M47.4,420.7c-3.4,0-5.4-1.9-5.4-4.8s2-4.8,5.4-4.8,5.4,1.9,5.4,4.8-2,4.8-5.4,4.8ZM47.4,413.7c-2,0-3.2.8-3.2,2.2s1.2,2.2,3.2,2.2,3.3-.9,3.3-2.2-1.3-2.2-3.3-2.2Z"/>
          <path class="cls-28" d="M47.4,409.7c-3.4,0-5.4-1.9-5.4-4.8s2-4.8,5.4-4.8,5.4,1.9,5.4,4.8-2,4.8-5.4,4.8ZM47.4,402.7c-2,0-3.2.8-3.2,2.2s1.2,2.2,3.2,2.2,3.3-.9,3.3-2.2-1.3-2.2-3.3-2.2Z"/>
          <path class="cls-28" d="M44.3,396.7v2.8h-2.1v-8.1h2.1v2.8h8.3v2.5h-8.3Z"/>
          <path class="cls-28" d="M51.3,390.8l-1.6-1.3c.6-.7,1-1.7,1-2.6s-.4-1.4-.9-1.4-.8.6-1.2,1.5l-.6,1.3c-.4,1.1-1.3,2.1-2.8,2.1s-3.2-1.6-3.2-3.8.5-2.5,1.3-3.4l1.6,1.3c-.5.7-.8,1.4-.8,2.1s.3,1.3.8,1.3.8-.7,1.2-1.6l.5-1.3c.5-1.3,1.4-2.1,2.8-2.1s3.3,1.5,3.3,4c.2,1.4-.3,2.8-1.4,3.9Z"/>
          <path class="cls-28" d="M42.3,381.2v-6.6h2.1v4.1h2v-3.5h2.1v3.5h2.2v-4.3h2.1v6.8h-10.5Z"/>
          <path class="cls-28" d="M42.3,372.4v-2.5h8.3v-4h2.1v6.5h-10.4Z"/>
        </g>
        <g>
          <path class="cls-28" d="M141.4,587.1h3c3.2,0,5.3,1.6,5.3,5.2s-2.1,5.2-5.1,5.2h-3.1v-10.4h0ZM144.3,595.5c1.7,0,2.9-.8,2.9-3.2s-1.2-3.2-2.9-3.2h-.4v6.4h.4Z"/>
          <path class="cls-28" d="M151.6,587.1h6.6v2.1h-4.1v2h3.5v2.1h-3.5v2.2h4.3v2.1h-6.8v-10.5Z"/>
          <path class="cls-28" d="M160.4,587.1h3.6c2.2,0,3.9.6,3.9,2.6s-.5,1.9-1.4,2.2h0c1.1.4,1.9,1.2,1.9,2.5,0,2.1-1.8,3.1-4.1,3.1h-3.9v-10.4ZM164,591.3c1.1,0,1.5-.5,1.5-1.2s-.5-1.1-1.5-1.1h-1.1v2.2h1.1ZM164.2,595.6c1.2,0,1.8-.4,1.8-1.3s-.6-1.2-1.8-1.2h-1.2v2.5h1.2Z"/>
          <path class="cls-28" d="M170.1,592.6v-5.5h2.5v5.8c0,2,.6,2.7,1.7,2.7s1.8-.7,1.8-2.7v-5.8h2.4v5.5c0,3.5-1.4,5.1-4.2,5.1s-4.2-1.5-4.2-5.1Z"/>
          <path class="cls-28" d="M180.3,592.4c0-3.5,2.3-5.5,5.1-5.5s2.6.6,3.3,1.4l-1.3,1.5c-.5-.5-1.1-.7-1.9-.7-1.5,0-2.7,1.2-2.7,3.2s.9,3.3,2.9,3.3.8,0,1-.3v-1.7h-1.7v-2h3.9v4.9c-.7.7-2,1.3-3.5,1.3-2.8-.1-5.1-1.9-5.1-5.4Z"/>
        </g>
        <rect class="cls-10" x="114.2" y="608.5" width="86.4" height="25.6"/>
        <g>
          <path class="cls-28" d="M40.1,322.9h2.5v8.3h4v2.1h-6.5v-10.4Z"/>
          <path class="cls-28" d="M48.4,322.9h6.6v2.1h-4.1v2h3.5v2.1h-3.5v2.2h4.3v2.1h-6.8v-10.5Z"/>
          <path class="cls-28" d="M57.2,322.9h3c3.2,0,5.3,1.6,5.3,5.2s-2.1,5.2-5.1,5.2h-3.1v-10.4h-.1ZM60.1,331.3c1.7,0,2.9-.8,2.9-3.2s-1.2-3.2-2.9-3.2h-.4v6.4h.4Z"/>
        </g>
        <g>
          <rect class="cls-19" x="143.7" y="472.4" width="5.4" height="10.6"/>
          <rect class="cls-29" x="143.7" y="474.7" width="5.4" height="6"/>
        </g>
        <g>
          <rect class="cls-19" x="154.3" y="472.4" width="5.4" height="10.6"/>
          <rect class="cls-29" x="154.3" y="474.7" width="5.4" height="6"/>
        </g>
        <rect class="cls-22" x="127.1" y="473.6" width="4.2" height="6.9"/>
        <rect class="cls-22" x="67.3" y="480.1" width="6.9" height="4.2"/>
        <rect class="cls-29" x="120.5" y="473.6" width="4.2" height="6.9"/>
        <rect class="cls-29" x="110.4" y="473.6" width="4.2" height="6.9"/>
        <path class="cls-37" d="M239.5,452.8c0-2.6,1.6-4.8,3.9-5.7v-3.4h-17.2c-5,0-9,4-9,9s4,9,9,9h17.2v-3.4c-2.2-.7-3.9-2.9-3.9-5.5ZM227.8,458.9c-3.4,0-6.1-2.7-6.1-6.1s2.7-6.1,6.1-6.1,6.1,2.7,6.1,6.1-2.7,6.1-6.1,6.1Z"/>
        <g>
          <rect class="cls-19" x="172.5" y="441.7" width="5.6" height="11.9"/>
          <rect class="cls-14" x="172.5" y="444.4" width="5.6" height="6.6"/>
        </g>
      </g>
      <rect id="rect1707" class="cls-30" x="231.8" y="388.6" width="113.9" height="11.3"/>
      <rect id="rect1707-2" class="cls-38" x="231.8" y="447.2" width="79.9" height="11.3"/>
      <circle id="circle281" class="cls-27" cx="231.8" cy="335.3" r="11.9"/>
      <circle id="circle281-2" class="cls-30" cx="231.5" cy="394.2" r="11.6"/>
      <circle id="circle281-3" class="cls-38" cx="231.8" cy="452.9" r="11.6"/>
      <rect id="rect1727" class="cls-27" x="231.8" y="329.6" width="147.9" height="11.3"/>
      <rect id="rect1727-11" class="cls-30" x="334.4" y="388.6" width="11.3" height="357.1"/>
      <rect id="rect1727-12" class="cls-27" x="368.4" y="329.6" width="11.3" height="386.6"/>
      <rect id="rect1727-12-2" data-name="rect1727-12" class="cls-27" x="368.4" y="329.6" width="11.3" height="386.6"/>
      <g id="layer1-9">
        <rect id="rect815-0" x="480.1" y="618.4" width="380.2" height="301.2"/>
        <rect id="rect821-7" class="cls-28" x="485.8" y="695.6" width="30.4" height="146.8"/>
        <path id="rect825-2" class="cls-26" d="M493.2,754.7h15.5c3.1,0,5.6,2.5,5.6,5.6v17.6c0,3.1-2.5,5.6-5.6,5.6h-15.5c-3.1,0-5.6-2.5-5.6-5.6v-17.6c0-3.1,2.5-5.6,5.6-5.6Z"/>
        <path id="rect872-9" class="cls-26" d="M493.2,813.4h15.5c3.1,0,5.6,2.5,5.6,5.6v17.6c0,3.1-2.5,5.6-5.6,5.6h-15.5c-3.1,0-5.6-2.5-5.6-5.6v-17.6c0-3.1,2.5-5.6,5.6-5.6Z"/>
        <path id="rect874-4" class="cls-26" d="M492.5,784.1h17c2.7,0,4.9,2.2,4.9,4.9v19c0,2.7-2.2,4.9-4.9,4.9h-17c-2.7,0-4.9-2.2-4.9-4.9v-19c0-2.7,2.2-4.9,4.9-4.9Z"/>
        <rect id="rect947-8-2" class="cls-7" x="446.2" y="767.5" width="54.6" height="3.2"/>
        <rect id="rect949-5" class="cls-7" x="446.2" y="797" width="54.6" height="3.2"/>
        <rect id="rect951-3" class="cls-7" x="446.2" y="826.2" width="54.6" height="3.2"/>
        <path id="path31-1-7" class="cls-28" d="M838.3,776.8c0,1.4,0,1.5.2,1.8,0,.2.3.3.4.4.3.2.4.2,3.3.2h3v6h-3.8c-4.2,0-4.6,0-5.6-.5-1.4-.5-2.3-1.7-2.5-3.1,0-.9-.2-1.8,0-2.7,0-1.2,0-2.5,0-2.9v-.7h5.1v1.5h-.1ZM829.9,805c0,25.3,0,31.6,0,30.5v-.2.2q-.2,0-.2,0c0-.2,0,0,0,.2v.5c0,0,0-.5,0-.5,0-.3,0-.5,0-.4,0,0,0,0-.7,0s-.7,0-.7.2,0,0,0,0,0-.3,0-.3,0-10,0-30v-30h2.2v29.9ZM853.1,782.2v3h-5v-6h5v3ZM844,788.2c1.3.2,2.5.6,3.7,1.1.3,0,.5.3.8.4.2,0,.3.2.5.3.5.3,1,.7,1.5,1.2,0,0,0,0,0,0,.5.4.9.8,1.2,1.3.5.7.9,1.4,1.1,2.2.5,1.1.6,2.4.5,3.6,0,.7,0,1.4-.3,2.1,0,.4-.3,1-.4,1.2,0,.2,0,.3-.2.5,0,.3-.2.5-.4.7-1.2,1.8-2.8,3.2-4.7,4.1-2.4,1.2-5.1,1.3-7.6.4-.8-.3-1.6-.6-2.3-1.1-.8-.5-1.5-1.1-2.1-1.8-1.2-1.1-2.1-2.6-2.5-4.3-.3-1.2-.3-2.5-.2-3.8.3-1.5.9-2.9,1.7-4.1.3-.5.7-.9,1.1-1.3.2,0,.3-.3.5-.4,1.4-1.3,3.2-2.1,5-2.6,1.1.3,2.1.2,3,.2ZM841.5,794c-1.1.3-2.2.9-3,1.8-.9,1-1.2,2.3-.8,3.6.7,1.6,2.1,2.7,3.7,3.1,1.1.3,2.3.2,3.4,0,1.2-.3,2.3-1.1,3.1-2.1.3-.3.4-.7.5-1.1.2-.9,0-1.9-.3-2.8-.5-.8-1.3-1.5-2.2-1.9-1.3-.8-2.9-1-4.4-.6h0ZM853,810.8v5.9h-2.7c-2.5,0-2.7,0-3.2.2-1.2.5-1.8,1.8-1.4,3,.2.6.6,1.1,1.2,1.3l.5.3h5.6v6h-3.2c-2.9,0-3.2,0-3.8-.2-1.1-.3-2.2-.8-3.1-1.6,0,0-.3-.2-.5-.3-.5-.4-.9-.9-1.3-1.4-.4-.5-.7-1.1-.9-1.8,0,0,0-.5-.3-.9-.2-.7-.3-1.4-.2-2.1,0-.8,0-1.5.2-2.3s.5-1.7,1-2.4c.6-.9,1.4-1.7,2.3-2.3,1.1-.8,2.4-1.3,3.8-1.4,2.2-.2,4.1,0,6,0h0ZM838.2,819.1v4.9h-5v-9.8h5v4.9ZM856.9,827.5s0,0,.3,0q.3,0,.4.4c0,.2,0,8.5,0,18.4v18h-2.2v-36.9c0,0,.2,0,.7,0s.7,0,.7,0h0ZM844.8,835.8v6.2h-5v-12.4h5v6.2ZM853.1,846.9v3h-5v-6h5v3ZM845.6,846.9v3h-12.6v-6h12.6v3ZM853.1,858.8v6.3h-5v-12.6h5v6.3ZM845.2,853.6v5.8h-2.9c-4.1,0-3.9,0-3.9,2.9v1.9h-5.2v-.7c-.2-1.8-.2-3.6,0-5.4,0-1.3.7-2.4,1.6-3.3.9-.7,2-1.2,3.2-1.2,1-.1,7.3-.1,7.3,0h0ZM855.5,868.6c.5,0,1,.4,1.3.8,1.2,1.2,1.3,3,.3,4.3-.3.5-.7.8-1.2,1.1-.4.2-.9.3-1.3.2-.5,0-.9,0-1.3-.2-1-.5-1.7-1.6-1.8-2.7-.2-1.8,1.2-3.4,3-3.5.2,0,.6,0,1,0ZM853.4,869.2c-.8.4-1.3,1.1-1.5,2s0,1.9.7,2.5c.2.3.5.5.8.6.4.2.8.3,1.2.3s.9,0,1.2-.3c.4-.2.7-.4.9-.8.2-.3.4-.6.5-.9.4-1.4-.3-2.9-1.6-3.6-.7,0-1.5,0-2.2.2h0ZM856.5,871.4c0,.4,0,.9,0,1.3-.3.5-1,.7-1.6.4,0,0-.2-.3-.3-.4v-.3c0,0-.4.3-.4.3-.2.2-.5.4-.7.5s-.3.2-.5.3c0,.2-.2,0-.2-.3v-.3l.8-.5c.8-.5.9-.6.9-1.2v-.4h-1.6v-.4h3.8v1ZM854.9,871.6c0,.6,0,.8.2.9.3.4.9.2,1-.4v-1.2h-1.2v.7Z"/>
        <circle id="circle109-6" class="cls-4" cx="832.1" cy="646.7" r="18.8"/>
        <circle id="circle111-4" class="cls-8" cx="832.1" cy="646.7" r="16.7"/>
        <circle id="circle113-4" class="cls-4" cx="832.1" cy="891.4" r="18.8"/>
        <circle id="circle115-1" class="cls-8" cx="832.1" cy="891.4" r="16.7"/>
        <circle id="circle117-7" class="cls-4" cx="508.3" cy="891.4" r="18.8"/>
        <circle id="circle119-4" class="cls-8" cx="508.3" cy="891.4" r="16.7"/>
        <circle id="circle121-0" class="cls-4" cx="508.4" cy="646.7" r="18.8" transform="translate(-135 134.1) rotate(-13.3)"/>
        <circle id="circle123-6" class="cls-8" cx="508.4" cy="646.7" r="16.7" transform="translate(-211.4 1044.9) rotate(-80.8)"/>
        <path id="rect95-0" class="cls-26" d="M493.2,696.2h15.5c3.1,0,5.6,2.5,5.6,5.6v17.6c0,3.1-2.5,5.6-5.6,5.6h-15.5c-3.1,0-5.6-2.5-5.6-5.6v-17.6c.1-3.1,2.6-5.6,5.6-5.6Z"/>
        <path id="rect97-2" class="cls-26" d="M492.5,725.5h17c2.7,0,4.9,2.2,4.9,4.9v19c0,2.7-2.2,4.9-4.9,4.9h-17c-2.7,0-4.9-2.2-4.9-4.9v-19c0-2.7,2.2-4.9,4.9-4.9Z"/>
        <rect id="rect99-1" class="cls-7" x="446.2" y="708.9" width="54.6" height="3.2"/>
        <rect id="rect101-0" class="cls-7" x="446.2" y="738.5" width="54.6" height="3.2"/>
        <rect id="rect143-2" class="cls-8" x="559.2" y="665.5" width="207" height="207"/>
        <rect id="rect154-6" class="cls-8" x="577.3" y="618.4" width="170.1" height="48.9"/>
        <rect id="rect156-8" class="cls-8" x="577.3" y="870.7" width="170.1" height="48.9"/>
        <rect id="rect158-3" class="cls-8" x="765.8" y="684.1" width="55.8" height="169.3"/>
        <circle id="circle145-2" class="cls-4" cx="559.2" cy="872.5" r="18.8"/>
        <circle id="circle147-6" class="cls-4" cx="766.2" cy="872.5" r="18.8"/>
        <circle id="circle149-6" class="cls-4" cx="766.2" cy="665.5" r="18.8"/>
        <circle id="circle151-3" class="cls-4" cx="559.2" cy="665.5" r="18.8"/>
        <rect id="rect164-6" class="cls-2" x="579.5" y="620.3" width="165.6" height="297.4"/>
        <rect id="rect166-8" class="cls-2" x="561.1" y="686" width="257.9" height="165.6"/>
        <rect id="rect168-3" class="cls-6" x="561.1" y="667.4" width="203.3" height="203.3"/>
        <circle id="path170-9" class="cls-5" cx="662.7" cy="769" r="84.7"/>
        <rect id="rect172-0" class="cls-6" x="576.9" y="742.6" width="173.7" height="7.6"/>
        <rect id="rect174-8" class="cls-6" x="573.3" y="787.8" width="179.3" height="7.6"/>
        <rect id="rect176-5" class="cls-2" x="626.9" y="750.2" width="71.5" height="37.6"/>
        <rect id="rect178-8" class="cls-6" x="596.3" y="870.5" width="131.8" height="41.4"/>
        <path id="path182-2" class="cls-2" d="M675.4,870.7c7.4,7.3,7.4,19.2,0,26.6-7.3,7.4-19.2,7.4-26.6,0-7.4-7.3-7.4-19.2,0-26.6"/>
        <rect id="rect187-5" class="cls-2" x="593.7" y="869.8" width="136.9" height="1.1"/>
        <circle id="path100-0" cx="662.7" cy="462.2" r="141.2"/>
        <circle id="path102-6" class="cls-26" cx="662.7" cy="462.2" r="103.5"/>
        <g id="text104">
          <g class="cls-3">
            <path class="cls-28" d="M835,692.3q0,0-.2,0c0,0,0,0-.2-.2s0-.2,0-.4v-1.4c0-.2,0-.4.2-.5l.3-.3,9.4-6.9h-9.4q0,0-.2,0c0,0,0,0,0-.2s0-.2,0-.4v-1.2c0-.2,0-.3,0-.4s0-.2,0-.2c0,0,0,0,.2,0h18.1q0,0,.2,0c0,0,0,0,0,.2s0,.2,0,.4v1.2c0,.2,0,.3,0,.4s0,.2,0,.2c0,0,0,0-.2,0h-8.4l8.4,6.7c0,0,.2,0,.2.2,0,0,0,.2,0,.3s0,.2,0,.4v1.2c0,.2,0,.3,0,.4s0,.2,0,.2c0,0,0,0-.2,0s-.3,0-.4,0c0,0-.3-.2-.5-.4l-7.5-6.3-9,6.7c-.3.2-.4.3-.5.3s0,0-.2,0Z"/>
          </g>
          <g class="cls-3">
            <path class="cls-28" d="M842,701.5h-7q0,0-.2,0c0,0,0,0,0-.2s0-.2,0-.4v-1.2c0-.2,0-.3,0-.4s0-.2,0-.2c0,0,0,0,.2,0h7l10.7-5.3c.2,0,.4-.2.5-.2s.2,0,.3,0,0,.2,0,.4v1.5c0,.2,0,.3,0,.4,0,0,0,.2,0,.2l-.2.2-5.4,2.6c-.5.2-1.1.5-1.6.7s-1.1.5-1.7.7h0c.6.2,1.1.5,1.7.7.5.2,1.1.5,1.6.7l5.5,2.6c0,0,.2,0,.2,0l.2.2c0,0,0,.2,0,.4v1.4c0,.2,0,.3,0,.4,0,0-.2,0-.3,0s-.3,0-.5-.2l-10.9-5.1Z"/>
          </g>
          <g class="cls-3">
            <path class="cls-28" d="M842,714c-.4,0-.6,0-.8,0,0,0-.2-.2-.2-.4v-6.1c0-.2,0-.3.2-.4.2,0,.4,0,.8,0s.6,0,.8,0c0,0,.2.2.2.4v6.3c0,.1,0,0-.2.2,0,0-.2,0-.3,0h-.5Z"/>
            <path class="cls-28" d="M844.1,729.1c-1.4,0-2.8,0-4-.3s-2.2-.6-3.1-1.1c-.9-.5-1.5-1.2-2-2.1-.5-.9-.7-1.9-.7-3.2s.2-2.2.6-3c.4-.8,1-1.5,1.9-2s1.8-.8,3-1.1c1.2-.2,2.6-.3,4.1-.3s2.8,0,4,.3,2.2.6,3.1,1.1c.9.5,1.5,1.2,2,2.1.5.9.7,1.9.7,3.2s-.2,2.2-.6,3-1,1.5-1.9,2-1.8.8-3,1.1c-1.1.2-2.5.3-4.1.3ZM844,726.5c.9,0,1.8,0,2.5,0s1.4-.2,2-.3,1.1-.3,1.5-.5.8-.5,1-.8c.3-.3.5-.6.6-1s.2-.8.2-1.3c0-.8-.2-1.5-.6-2s-.9-.9-1.6-1.2c-.7-.3-1.5-.5-2.4-.6s-1.9-.2-2.9-.2-2.6,0-3.6.2c-1,0-1.8.4-2.4.7-.6.3-1.1.7-1.4,1.2-.3.5-.4,1.1-.4,1.8s0,1,.3,1.4.4.8.8,1.1.7.5,1.2.7,1,.3,1.5.5,1.2.2,1.8.2c.5.2,1.2.2,1.9.2Z"/>
            <path class="cls-28" d="M835.7,743.6h-.5c0,0-.3,0-.3,0,0,0-.2,0-.2-.2s0-.2,0-.2v-10.4c0,0,0-.3,0-.4,0,0,0-.2.2-.3,0,0,.2,0,.3-.2,0,0,.3,0,.5,0h.5c0,0,.3,0,.4,0,0,0,.2,0,.3.2,0,0,.2.2.4.3l3.9,3.8c.9.9,1.7,1.6,2.4,2.1s1.4.9,1.9,1.2,1.1.5,1.6.6.9,0,1.3,0,.8,0,1.2-.2.7-.3,1-.6.5-.6.7-1,.2-.9.2-1.4,0-1.2-.2-1.6-.3-.9-.5-1.3c-.2-.4-.4-.7-.5-.9-.2-.2-.2-.4-.2-.5s0,0,0-.2c0,0,0,0,.2,0s.2,0,.3,0h.9c0,0,.2,0,.3,0,0,0,.2,0,.2,0,0,0,.2,0,.3.2,0,0,.2.3.4.6s.3.6.5,1.1c.2.4.3.9.4,1.4,0,.5.2,1.1.2,1.6,0,.9,0,1.7-.4,2.4-.3.7-.6,1.3-1.1,1.7-.4.5-1,.8-1.6,1s-1.2.3-1.9.3-1.2,0-1.8-.2c-.6,0-1.2-.3-1.9-.7-.7-.3-1.5-.8-2.3-1.5-.9-.7-1.8-1.5-2.9-2.6l-3.1-3v8.2c0,0,0,.2,0,.2s0,0-.2.2-.2,0-.3,0c-.3.2-.4.2-.6.2Z"/>
            <path class="cls-28" d="M840,758.6c-.9,0-1.6-.2-2.3-.5s-1.3-.7-1.8-1.3-.9-1.3-1.1-2.1-.4-1.8-.4-2.8,0-1.2.2-1.8.2-1,.4-1.5c0-.4.3-.8.4-1.1.2-.3.3-.5.3-.5l.2-.2c0,0,.2,0,.2,0,0,0,.2,0,.4,0h.5c.4,0,.6,0,.7,0,0,0,.2.2.2.3s0,.3-.2.5c-.2.3-.3.6-.5,1s-.3.9-.5,1.5-.2,1.2-.2,1.8,0,1.2.2,1.7c.2.5.4.9.7,1.3.3.3.7.6,1.1.8.4.2.9.3,1.4.3s1,0,1.4-.3.8-.5,1.1-1,.5-.9.7-1.5.2-1.3.2-2.1v-1.9c0,0,0-.2,0-.2,0,0,0,0,.2-.2s.2,0,.3,0,.3,0,.5,0h.5c0,0,.2,0,.3,0s0,0,.2.2c0,0,0,0,0,.2v1.6c0,.6,0,1.2.2,1.7.2.5.4.9.7,1.3.3.4.7.6,1.1.8.4.2.9.3,1.5.3s.8,0,1.1-.2c.4,0,.7-.3.9-.6s.5-.6.6-1c.2-.4.2-.8.2-1.4s0-1.1-.3-1.6-.4-.9-.5-1.3c-.2-.4-.4-.7-.5-.9s-.3-.4-.3-.5v-.2c0-.1,0,0,0,0,0,0,.2,0,.3,0h.9c.1,0,.2,0,.3,0s.2,0,.2,0c0,0,0,0,.2.2s.2.3.4.6.3.6.5,1,.3.9.4,1.4c0,.5.2,1.1.2,1.7,0,.9,0,1.6-.3,2.3s-.5,1.2-.9,1.7c-.4.4-.9.8-1.5,1s-1.2.3-1.9.3-1.1,0-1.7-.2-1-.4-1.4-.7-.7-.7-1-1.1c-.3-.4-.5-.9-.6-1.5h0c0,.7-.2,1.2-.5,1.8s-.6,1-1,1.4-.8.7-1.4.9c-.3.7-.9.8-1.5.8Z"/>
          </g>
        </g>
        <g id="text108">
          <g class="cls-3">
            <path class="cls-28" d="M530.4,706.3v.3c0,0,0,.2,0,.2,0,0,0,0,0,0h0c0,0-.2,0-.4-.2s-.5-.3-.8-.4c-.3-.2-.7-.3-1.2-.4s-1-.2-1.6-.2-1.4,0-2,.4c-.6.3-1.1.6-1.5,1.1s-.7,1-.9,1.7-.3,1.4-.3,2.1,0,1.6.4,2.3c.2.7.6,1.2,1,1.7s.9.8,1.5,1,1.2.4,1.9.4.8,0,1.3-.2.8-.3,1.2-.5v-3.7h-3.1c0,0-.2,0-.3-.2,0,0,0-.3,0-.6v-.3c0,0,0-.2,0-.2s0,0,0,0h4.7c0,0,0,0,.2,0q0,0,0,.2c0,0,0,.2,0,.3v5.1c0,.2,0,.3,0,.5s-.2.2-.4.3-.5.2-.8.3-.6.2-1,.3-.7,0-1,.2c-.3,0-.7,0-1,0-1,0-2-.2-2.8-.5s-1.5-.8-2.1-1.4c-.6-.6-1-1.3-1.3-2.1s-.4-1.8-.4-2.8.2-2,.5-2.9.8-1.6,1.4-2.2,1.3-1.1,2.1-1.4c.8-.3,1.7-.5,2.7-.5s1,0,1.4,0c.5,0,.9.2,1.2.3.4,0,.6.3.9.4.2,0,.4.3.5.3,0,0,.2.2.2.3-.1.3-.1.5-.1.7Z"/>
            <path class="cls-28" d="M543.9,717.2c0,0,0,.3,0,.4s0,.2-.2.2-.2,0-.3,0h-.9c-.2,0-.3,0-.5,0,0,0-.3,0-.4-.2s-.3-.2-.4-.4c0-.2-.3-.4-.4-.7l-4.1-7.7c-.2-.4-.4-.8-.6-1.2s-.4-.9-.6-1.3h0v11.1h0c0,0,0,.2,0,.2,0,0-.2,0-.3,0s-.3,0-.4,0h-.4c-.1,0-.2,0-.3,0,0,0,0,0,0,0h0v-12.5c0-.3,0-.5.2-.6s.3-.2.5-.2h.9c.2,0,.4,0,.5,0,0,0,.3,0,.4.2l.3.3c0,0,.2.3.3.5l3.2,5.9c.2.4.4.7.6,1.1.2.3.4.7.5,1s.3.7.5,1,.3.6.5,1h0v-10.7h0c0,0,0-.2,0-.2,0,0,.2,0,.3,0h.8c0,0,.2,0,.3,0,0,0,0,0,0,0h0v12.7h0Z"/>
            <path class="cls-28" d="M557.8,711c0,1.2,0,2.2-.4,3.1-.3.9-.7,1.6-1.3,2.2s-1.3,1-2.1,1.3-1.8.4-3,.4h-2.8c-.2,0-.3,0-.5-.2,0,0-.2-.3-.2-.6v-12c0-.3,0-.5.2-.6,0,0,.3-.2.5-.2h3c1.2,0,2.1.2,3,.5s1.5.7,2,1.3,1,1.2,1.2,2.1c.3.8.4,1.7.4,2.7ZM555.9,711.1c0-.7,0-1.4-.3-2s-.5-1.2-.8-1.6-.9-.8-1.5-1.1-1.3-.4-2.3-.4h-1.8v10.5h1.8c.9,0,1.6,0,2.2-.3.6-.2,1.1-.5,1.5-1,.4-.4.7-1,.9-1.7.2-.7.3-1.5.3-2.4Z"/>
          </g>
        </g>
        <g id="text112">
          <g class="cls-3">
            <path class="cls-28" d="M528.4,739.9v.3c0,0,0,.2,0,.2,0,0,0,0,0,0h-3.6v3.8h0c0,0,0,.2,0,.2,0,0,0,0-.2,0s-.2,0-.4,0h-.4c0,0-.2,0-.2,0s0,0,0,0h0v-3.9h-3.6c-.1,0,0,0,0,0,0,0,0,0,0-.2v-.6c0,0,0-.2,0-.2,0,0,0,0,0,0h3.6v-4h0c0,0,0-.2.2-.2h.8c0,0,.2,0,.2,0s0,0,0,0v4h3.7c0,.2,0,.2,0,.3,0,0,0,0,0,.3Z"/>
            <path class="cls-28" d="M538.7,741.5c0,.7,0,1.4-.4,1.9-.2.6-.6,1-1,1.4s-1,.7-1.6.9-1.3.3-2,.3-.8,0-1.2,0-.7,0-1-.2c-.3,0-.5-.2-.7-.3s-.3,0-.4-.2c0,0,0,0,0,0,0,0,0,0,0-.2v-.8c0,0,0-.2,0-.2,0,0,0,0,0,0h0c0,0,.2,0,.3,0s.3.2.6.3c.2,0,.5.2.9.3s.8,0,1.3,0,.9,0,1.3-.2c.4,0,.7-.3,1-.5s.5-.5.7-.9.2-.8.2-1.3,0-.8-.2-1.1-.3-.6-.6-.8-.6-.4-1.1-.5c-.4,0-.9-.2-1.5-.2s-.8,0-1.1,0c-.3,0-.6,0-.9,0s-.3,0-.4,0,0-.3,0-.5v-5.5c0-.2,0-.4.2-.5,0,0,.3-.2.5-.2h6.1c.1,0,0,0,0,0,0,0,0,0,0,.2v.3c0,.2,0,.4,0,.6,0,0-.2.2-.3.2h-4.8v3.8c.2,0,.5,0,.7,0h.8c.7,0,1.4,0,1.9.3.6.2,1,.4,1.4.8.4.3.6.7.8,1.2.3.5.4,1,.4,1.6Z"/>
            <path class="cls-28" d="M547.2,745.5c0,0,0,0,0,.2,0,0,0,0-.2,0s-.2,0-.3,0h-1.4s0,0-.2,0h0c0,0,0-.2,0-.2l-4.4-12.5c0-.2,0-.3,0-.4s0-.2,0-.2.2,0,.3,0h1.1c0,0,.2,0,.3,0,0,0,0,0,0,0,0,0,0,0,0,.2l3.8,11.3h0l3.7-11.3q0,0,0-.2t0,0s.2,0,.3,0h1c0,0,.2,0,.3,0,0,0,0,0,0,.2s0,.2,0,.4l-4.4,12.4Z"/>
          </g>
        </g>
        <g id="text116">
          <g class="cls-3">
            <path class="cls-28" d="M525.5,775.8c0,0,0,0,0,.2,0,0,0,0-.2,0s-.2,0-.3,0h-1.4q0,0-.2,0h0c0,0,0-.2,0-.2l-4.4-12.5c0-.2,0-.3,0-.4s0-.2,0-.2.2,0,.3,0h1.1c0,0,.2,0,.3,0h0c0,0,0,.2,0,.3l3.8,11.3h0l3.7-11.3q0,0,0-.2h0c0,0,.2,0,.3-.2h1c0,0,.2,0,.3,0,0,0,0,0,0,.2s0,.2,0,.4l-4.4,12.4Z"/>
            <path class="cls-28" d="M541.1,775.8h0c0,0,0,.2,0,.2,0,0-.2,0-.3,0h-.9c0,0-.2,0-.3,0,0,0,0,0-.2,0,0,0,0,0,0-.2l-1.2-3.2c0-.4-.3-.7-.5-1s-.3-.6-.6-.8c-.2-.2-.5-.4-.8-.5s-.6-.2-1-.2h-1.2v5.7h0c0,0,0,.2,0,.2,0,0-.2,0-.3,0s-.3,0-.4,0h-.4c-.1,0-.2,0-.3,0,0,0,0,0,0,0h0v-12.5c0-.3,0-.5.2-.6s.3-.2.5-.2h3.7c.2,0,.4,0,.6,0,.5,0,1,.2,1.4.4s.7.4,1,.7.5.6.6,1,.2.8.2,1.3,0,.9-.2,1.2-.3.7-.5.9c-.2.3-.5.5-.8.7s-.7.4-1.1.5c.2,0,.4.2.6.4s.3.3.5.5.3.4.4.7c0,.3.3.6.4.9l1.2,3c0,.2.2.4.2.5-.1.4-.1.5-.1.5ZM538.4,766.4c0-.5,0-1-.4-1.3s-.6-.6-1.2-.8c-.2,0-.4,0-.6,0h-2.4v4.5h1.7c.5,0,.9,0,1.2-.2s.6-.3.9-.5c.2-.2.4-.4.5-.7.3-.3.3-.6.3-.9Z"/>
            <path class="cls-28" d="M550.6,775.6c0,0,0,.2,0,.2q0,0,0,.2c0,0-.2,0-.3,0h-1c0,0-.2,0-.3,0,0,0,0,0-.2,0h0c0,0-2.2-3.8-2.2-3.8l-2.2,3.7h0c0,0,0,.2-.2.2s-.2,0-.3,0h-1c0,0-.2,0-.3,0,0,0,0,0,0-.2s0,0,0-.2l2.9-4.6-2.8-4.4c0,0,0-.2,0-.2q0,0,0-.2c0,0,.2,0,.3,0h1.3q0,0,.2,0h0c0,0,2.1,3.6,2.1,3.6l2.2-3.5h0c0,0,0-.2,0-.2,0,0,0,0,.2,0s.3,0,.4,0h.5c0,0,.2,0,.3,0s0,0,0,.2,0,.2,0,.3l-2.7,4.3,3,4.7Z"/>
          </g>
        </g>
        <g id="text120">
          <g class="cls-3">
            <path class="cls-28" d="M525.5,804.6c0,0,0,0,0,.2,0,0,0,0-.2,0s-.2,0-.3,0h-1.4q0,0-.2,0h0c0,0,0-.2,0-.2l-4.4-12.5c0-.2,0-.3,0-.4s0-.2,0-.2.2,0,.3,0h1.1c0,0,.2,0,.3,0h0c0,0,0,.2,0,.3l3.8,11.3h0l3.7-11.3q0,0,0-.2h0c0,0,.2,0,.3-.2h1c0,0,.2,0,.3,0,0,0,0,0,0,.2s0,.2,0,.4l-4.4,12.4Z"/>
          </g>
          <g class="cls-3">
            <path class="cls-28" d="M541.1,804.6h0c0,0,0,.2,0,.2,0,0-.2,0-.3,0h-.9c0,0-.2,0-.3,0,0,0,0,0-.2,0,0,0,0,0,0-.2l-1.2-3.2c0-.4-.3-.7-.5-1s-.3-.6-.6-.8c-.2-.2-.5-.4-.8-.5s-.6-.2-1-.2h-1.2v5.7h0c0,0,0,.2,0,.2,0,0-.2,0-.3,0s-.3,0-.4,0h-.4c-.1,0-.2,0-.3,0,0,0,0,0,0,0h0v-12.5c0-.3,0-.5.2-.6s.3-.2.5-.2h3.7c.2,0,.4,0,.6,0,.5,0,1,.2,1.4.4s.7.4,1,.7.5.6.6,1,.2.8.2,1.3,0,.9-.2,1.2-.3.7-.5.9c-.2.3-.5.5-.8.7s-.7.4-1.1.5c.2,0,.4.2.6.4s.3.3.5.5.3.4.4.7c0,.3.3.6.4.9l1.2,3c0,.2.2.4.2.5-.1.4-.1.5-.1.5ZM538.4,795.2c0-.5,0-1-.4-1.3s-.6-.6-1.2-.8c-.2,0-.4,0-.6,0h-2.4v4.5h1.7c.5,0,.9,0,1.2-.2.3,0,.6-.3.9-.5.2-.2.4-.4.5-.7.3-.3.3-.6.3-.9Z"/>
          </g>
          <g class="cls-3">
            <path class="cls-28" d="M547.4,804.9l-1.2,3.4c0,0,0,.2-.3.3s-.4,0-.8,0h-.4c0,0-.2,0-.3,0,0,0,0,0,0-.2s0-.2,0-.2l1.3-3.2c0,0,0,0-.2,0s0,0,0-.2l-3.3-8.9c0,0,0-.3,0-.3q0,0,0-.2c0,0,0,0,.3,0h1c0,0,.2,0,.3,0,0,0,0,0,.2,0,0,0,0,0,0,.2l2.7,7.5h0l2.6-7.5c0,0,0-.2.2-.3,0,0,0,0,.3,0h1c0,0,.2,0,.3,0,0,0,0,0,0,.2s0,.2,0,.3l-3.7,9.1Z"/>
          </g>
        </g>
        <g id="text124">
          <g class="cls-3">
            <path class="cls-28" d="M527.6,829.9c0,.6,0,1.2-.3,1.7s-.6.9-1,1.2-.9.6-1.5.8-1.2.3-1.8.3-.9,0-1.2,0-.7-.2-1-.3-.6-.2-.8-.3-.3-.2-.4-.3,0-.2-.2-.3c0,0,0-.3,0-.5v-.4c0,0,0-.2,0-.2s0,0,0,0h0c0,0,.2,0,.4.2.2,0,.4.2.7.4.3,0,.6.3,1,.4s.8.2,1.4.2.7,0,1.1-.2c.3,0,.6-.3.8-.4s.4-.4.5-.7.2-.6.2-.9,0-.7-.3-1-.4-.5-.7-.7-.6-.4-1-.6c-.4-.2-.7-.3-1.1-.5-.4-.2-.8-.4-1.1-.6-.4-.2-.7-.5-1-.8s-.5-.6-.7-1-.3-.9-.3-1.4,0-1.1.3-1.5.5-.8.9-1.1.8-.5,1.3-.7,1-.2,1.6-.2.6,0,.9,0c.3,0,.6,0,.9.2.3,0,.5.2.7.3s.3.2.4.3,0,0,0,.2,0,0,0,0,0,0,0,.2v.8c0,0,0,0,0,0h0c0,0-.2,0-.4,0s-.4-.2-.6-.3-.5-.2-.8-.3-.7-.2-1.1-.2-.7,0-1,.2-.5.2-.7.4-.3.4-.4.6c0,.2,0,.5,0,.7,0,.4,0,.7.3,1s.4.5.7.7.6.4,1,.6c.4.2.7.3,1.1.5.4.2.8.4,1.1.6.4.2.7.5,1,.7s.5.6.7,1c.2.3.3.7.3,1.2Z"/>
          </g>
          <g class="cls-3">
            <path class="cls-28" d="M542.8,833.3c0,0,0,.2,0,.2q0,0-.2,0c0,0-.2,0-.4,0h-1c0,0-.3,0-.4,0,0,0-.2,0-.2,0,0,0,0,0,0-.2l-2.8-10.1h0l-2.6,10.1c0,0,0,.2,0,.2,0,0,0,0-.2,0s-.2,0-.3,0h-1.1c-.2,0-.3,0-.4,0,0,0-.2,0-.2,0q0,0,0-.2l-3.5-12.4c0-.2,0-.3,0-.4s0-.2,0-.2.2,0,.3,0h1c0,0,.2,0,.3,0h0c0,0,0,.2,0,.3l3,11.2h0l2.9-11.2q0,0,0-.2t.2,0c0,0,.2,0,.3,0h1q.2,0,.3,0c0,0,0,0,.2,0s0,0,0,.2l3.1,11.2h0l3-11.2q0,0,0-.2c0,0,0,0,0,0,0,0,.2,0,.3,0s.3,0,.5,0h.5c0,0,.2,0,.3,0s0,0,0,.2,0,.2,0,.4l-4.1,12.4Z"/>
          </g>
        </g>
      </g>
      <circle id="circle281-6" class="cls-38" cx="476.6" cy="827.8" r="11.6"/>
      <circle id="circle281-7" class="cls-21" cx="476.1" cy="710.5" r="11.6"/>
      <circle id="circle281-8" class="cls-20" cx="476.1" cy="740.1" r="11.6"/>
      <circle id="circle281-9" class="cls-24" cx="476.6" cy="769.1" r="11.6"/>
      <circle id="circle281-10" class="cls-33" cx="476.6" cy="798.6" r="11.6"/>
      <rect class="cls-21" x="368.4" y="704.9" width="108.2" height="11.3"/>
      <rect class="cls-20" x="334.4" y="734.4" width="142.2" height="11.3"/>
      <rect class="cls-24" x="259.3" y="763.1" width="217.2" height="11.3"/>
      <rect class="cls-33" x="283.5" y="792.9" width="193" height="11.3"/>
      <rect class="cls-38" x="300.4" y="447.2" width="11.3" height="386.2"/>
      <rect class="cls-38" x="300.4" y="822.1" width="176.2" height="11.3"/>
      <circle id="circle281-9-2" data-name="circle281-9" class="cls-24" cx="230.3" cy="540.6" r="11.6"/>
      <circle id="circle281-10-2" data-name="circle281-10" class="cls-33" cx="230.3" cy="512.1" r="11.6"/>
      <rect class="cls-33" x="283.3" y="511.7" width="11.3" height="290.8"/>
      <rect class="cls-33" x="228.9" y="505.8" width="65.7" height="11.3"/>
      <rect class="cls-24" x="257.7" y="539.9" width="11.3" height="234.5"/>
      <rect class="cls-24" x="230.3" y="535.4" width="38.7" height="11.3"/>
    </g>
  </g>
</svg>