<?xml version="1.0" encoding="UTF-8"?>
<svg xmlns="http://www.w3.org/2000/svg" version="1.1" viewBox="0 0 1063 801.3">
  <defs>
    <style>
      .cls-1 {
        fill: #2c2c2c;
      }

      .cls-2, .cls-3 {
        fill: #fff;
      }

      .cls-4 {
        fill: #493930;
      }

      .cls-5 {
        fill: #be8839;
      }

      .cls-6 {
        fill: #dbded7;
      }

      .cls-7 {
        fill: #914f00;
      }

      .cls-8 {
        fill: #9a2442;
      }

      .cls-9 {
        fill: #303030;
      }

      .cls-10 {
        fill: #f53200;
      }

      .cls-11 {
        fill: #47494a;
      }

      .cls-12 {
        fill: #655a50;
      }

      .cls-13 {
        fill: #00b589;
      }

      .cls-14 {
        fill: #e30613;
      }

      .cls-15 {
        fill: #474949;
      }

      .cls-16, .cls-17, .cls-18, .cls-3, .cls-19, .cls-20, .cls-21 {
        isolation: isolate;
      }

      .cls-22 {
        fill: #fcf7fd;
      }

      .cls-23 {
        fill: purple;
      }

      .cls-24 {
        fill: #ada390;
      }

      .cls-25 {
        fill: #686868;
      }

      .cls-26 {
        fill: #e3ad51;
      }

      .cls-17, .cls-27 {
        fill: #1a1a1a;
      }

      .cls-17, .cls-18, .cls-3, .cls-19, .cls-20, .cls-21 {
        opacity: 1;
      }

      .cls-28 {
        fill: #ddd;
      }

      .cls-29 {
        fill: #c4b3a8;
      }

      .cls-30 {
        fill: #a3928b;
      }

      .cls-31 {
        fill: #36323e;
      }

      .cls-32 {
        fill: green;
      }

      .cls-18 {
        fill: gray;
      }

      .cls-33 {
        fill: #eaeaea;
      }

      .cls-34 {
        fill: #1a1919;
      }

      .cls-35 {
        fill: #e3b37d;
      }

      .cls-36 {
        fill: #010103;
      }

      .cls-19 {
        fill: #999;
      }

      .cls-20 {
        fill: #ccc;
      }

      .cls-37 {
        fill: #f5b93e;
      }

      .cls-38 {
        fill: #e0dcd3;
      }

      .cls-39 {
        fill: none;
        stroke: #493930;
        stroke-miterlimit: 10;
      }

      .cls-40 {
        fill: #bcb3ad;
      }
    </style>
  </defs>
  <!-- Generator: Adobe Illustrator 28.6.0, SVG Export Plug-In . SVG Version: 1.2.0 Build 709)  -->
  <g>
    <g id="svg8">
      <g>
        <path class="cls-34" d="M589.7,33.2H7c-4,0-7.3,3.2-7.3,7.3v719c0,4,3.2,7.3,7.3,7.3h17.6l34.2,34.2h365.2s34.1-34.2,34.1-34.2h131.6c4,0,7.3-3.2,7.3-7.3V40.4c0-4-3.2-7.3-7.3-7.3ZM28,207.6c-10,0-18.1-8.1-18.1-18.1s8.1-18.1,18.1-18.1,18.1,8.1,18.1,18.1-8.1,18.1-18.1,18.1ZM87.9,789.5c-10,0-18.1-8.1-18.1-18.1s8.1-18.1,18.1-18.1,18.1,8.1,18.1,18.1-8.1,18.1-18.1,18.1ZM401,789.5c-10,0-18.1-8.1-18.1-18.1s8.1-18.1,18.1-18.1,18.1,8.1,18.1,18.1-8.1,18.1-18.1,18.1ZM569.3,219c-10,0-18.1-8.1-18.1-18.1s8.1-18.1,18.1-18.1,18.1,8.1,18.1,18.1-8.1,18.1-18.1,18.1Z"/>
        <rect class="cls-9" x="55.6" y="-.1" width="101.7" height="143.5"/>
        <path class="cls-9" d="M64.7,143.4h83.7v9.1c0,3.9-3.2,7.1-7.1,7.1h-69.4c-3.9,0-7.1-3.2-7.1-7.1v-9.1h0Z"/>
        <path class="cls-28" d="M571.2,71.9h-21.4v-4.6c0-.8-.6-1.4-1.4-1.4h-20.6c-.8,0-1.4.6-1.4,1.4v4.6h-21.4c-1,0-1.7.8-1.7,1.7v65.1c0,1,.8,1.7,1.7,1.7h66.3c1,0,1.7-.8,1.7-1.7v-65.1c0-1-.8-1.7-1.7-1.7Z"/>
        <circle class="cls-8" cx="538" cy="103.2" r="19.2"/>
        <g>
          <circle class="cls-28" cx="148.3" cy="251.9" r="35.2"/>
          <path class="cls-36" d="M129.4,227.3c-8.1,5.1-13.5,14.2-13.5,24.5s5.4,19.4,13.5,24.5v-49.1Z"/>
        </g>
        <g>
          <circle class="cls-28" cx="173.9" cy="350.8" r="35.2"/>
          <path class="cls-36" d="M166.5,320.7c-9.5,1.4-18.1,7.5-22.3,16.9s-2.9,19.9,2.4,27.9l19.9-44.9Z"/>
        </g>
        <rect class="cls-35" x="278.3" y="113.7" width="9.8" height="21.5"/>
        <rect class="cls-35" x="362" y="157.4" width="9.8" height="21.5"/>
        <rect class="cls-35" x="451.3" y="231.5" width="9.8" height="21.5" transform="translate(698.5 -214) rotate(90)"/>
        <rect class="cls-35" x="451.3" y="172" width="9.8" height="21.5" transform="translate(639 -273.4) rotate(90)"/>
        <rect class="cls-35" x="326.9" y="260.4" width="9.8" height="21.5"/>
        <rect class="cls-37" x="396.4" y="357.8" width="9.8" height="21.5"/>
        <rect class="cls-35" x="423.2" y="357.8" width="9.8" height="21.5"/>
        <rect class="cls-35" x="449.6" y="357.8" width="9.8" height="21.5"/>
        <rect class="cls-35" x="329.6" y="645.4" width="9.8" height="21.5" transform="translate(-321.5 990.7) rotate(-90)"/>
        <rect class="cls-37" x="387" y="663.6" width="9.8" height="21.5"/>
        <rect class="cls-15" x="302.3" y="157.4" width="31.5" height="14.6" rx="1.5" ry="1.5"/>
        <g>
          <path class="cls-38" d="M304.9,144.9h12.2v11.5h-12.2c-.7,0-1.2-.6-1.2-1.2v-9c0-.7.6-1.2,1.2-1.2Z" transform="translate(461.1 -159.8) rotate(90)"/>
          <path class="cls-38" d="M320.2,144.9h12.2v11.5h-12.2c-.7,0-1.2-.6-1.2-1.2v-9c0-.7.6-1.2,1.2-1.2Z" transform="translate(476.4 -175) rotate(90)"/>
        </g>
        <g>
          <rect class="cls-6" x="422.8" y="330.7" width="10.7" height="17.2"/>
          <rect class="cls-15" x="422.8" y="333.2" width="10.7" height="11.8"/>
        </g>
        <g>
          <rect class="cls-6" x="449.1" y="330.7" width="10.7" height="17.2"/>
          <rect class="cls-15" x="449.1" y="333.2" width="10.7" height="11.8"/>
        </g>
        <g>
          <rect class="cls-6" x="308.9" y="297.3" width="10.7" height="17.2" transform="translate(8.3 620.1) rotate(-90)"/>
          <rect class="cls-15" x="308.7" y="299.9" width="10.7" height="11.8" transform="translate(8.2 619.9) rotate(-90)"/>
        </g>
        <g>
          <rect class="cls-6" x="253.8" y="297.3" width="10.7" height="17.2" transform="translate(-46.7 565) rotate(-90)"/>
          <rect class="cls-15" x="253.6" y="299.9" width="10.7" height="11.8" transform="translate(-46.9 564.8) rotate(-90)"/>
        </g>
        <g>
          <rect class="cls-6" x="387" y="633.3" width="10.7" height="17.2"/>
          <rect class="cls-15" x="387" y="635.8" width="10.7" height="11.8"/>
        </g>
        <g>
          <rect class="cls-6" x="329.2" y="667.5" width="10.7" height="17.2" transform="translate(-341.5 1010.7) rotate(-90)"/>
          <rect class="cls-15" x="329.1" y="670.2" width="10.7" height="11.8" transform="translate(-341.7 1010.5) rotate(-90)"/>
        </g>
        <g>
          <rect class="cls-6" x="477.7" y="80.5" width="10.7" height="17.2"/>
          <rect class="cls-15" x="477.7" y="83.1" width="10.7" height="11.8"/>
        </g>
        <g>
          <rect class="cls-6" x="338.1" y="81.6" width="10.7" height="17.2"/>
          <rect class="cls-15" x="338.1" y="84.1" width="10.7" height="11.8"/>
        </g>
        <rect class="cls-30" x="441.6" y="194.7" width="12.2" height="32.8" rx="3.7" ry="3.7"/>
        <g>
          <rect class="cls-26" x="369.6" y="445.8" width="22.3" height="17.8" rx="2.9" ry="2.9" transform="translate(-210 402.5) rotate(-45)"/>
          <rect class="cls-29" x="370.5" y="446.6" width="20.5" height="16.4" rx="2.9" ry="2.9" transform="translate(-210 402.5) rotate(-45)"/>
        </g>
        <rect class="cls-40" x="374.5" y="421.8" width="12.2" height="11"/>
        <rect class="cls-40" x="394.1" y="421.8" width="12.2" height="11"/>
        <rect class="cls-40" x="374.5" y="474.7" width="12.2" height="11"/>
        <rect class="cls-40" x="394.1" y="474.7" width="12.2" height="11"/>
        <rect class="cls-10" x="326" y="698" width="20.8" height="11" rx="2.8" ry="2.8"/>
        <g>
          <path class="cls-2" d="M30.9,68.1v-4.5h2.1v7.1h-1.5c-2.9-2.4-4.8-2.7-8.9-2.8v-2.5c3.4.2,5.6.7,8.3,2.7Z"/>
          <path class="cls-2" d="M27.5,72.1v4h-1.7v-4h1.7Z"/>
          <path class="cls-2" d="M24.6,77.8v2.2h5.9v-1.9h1.5c.2,1.1.5,1.8.9,2.6v1.8h-8.4v1.9h-2v-6.6h2Z"/>
          <path class="cls-2" d="M24.1,85.9c2.3,2.7,4.2,4.4,5.6,4.4s1.5-.5,1.5-1.4-.5-1.3-1-1.8l1.3-1.3c1.1,1,1.7,1.9,1.7,3.4s-1.3,3.4-3.3,3.4-3.8-1.7-5.4-3.3c0,.5.1,1.2.1,1.7v2.1h-2.1v-7.2h1.5Z"/>
          <path class="cls-2" d="M33,93.7v2.6l-4.8,1.1c-1.1.3-2.2.5-3.3.8h0c1.1.4,2.2.6,3.3.9l4.8,1.2v2.5l-10.4-3.2v-3l10.4-3.1Z"/>
          <path class="cls-2" d="M33,107.2v2.5h-10.4v-2.5h10.4Z"/>
          <path class="cls-2" d="M33,112.1v2.6l-5,2.6c-.7.4-1.5.7-2.4,1h0c1.1,0,2.6-.3,3.8-.3h3.5v2.4h-10.4v-2.6l5-2.6c.7-.4,1.5-.7,2.4-1h0c-1.2,0-2.6.3-3.8.3h-3.5v-2.4h10.4Z"/>
          <path class="cls-2" d="M33,122.7v3.7c0,2.3-.8,4.2-3.4,4.2s-3.6-1.9-3.6-4.1v-1.2h-3.5v-2.5h10.4ZM28,126.3c0,1.2.6,1.8,1.6,1.8s1.4-.7,1.4-1.9v-1h-3v1.1Z"/>
          <path class="cls-2" d="M27.5,132.3h5.5v2.5h-5.8c-2,0-2.7.6-2.7,1.7s.7,1.8,2.7,1.8h5.8v2.4h-5.5c-3.5,0-5.1-1.4-5.1-4.2s1.6-4.2,5.1-4.2Z"/>
          <path class="cls-2" d="M30.9,145v-2.8h2.1v8.1h-2.1v-2.8h-8.3v-2.5h8.3Z"/>
        </g>
        <g>
          <path class="cls-2" d="M588.4,81.7v3.8c0,2.2-.8,4.1-3.3,4.1s-2.5-.7-3-1.8l-4.1,2.3v-2.8l3.7-1.9v-1.2h-3.7v-2.5h10.4ZM583.6,85.3c0,1.2.5,1.8,1.5,1.8s1.3-.6,1.3-1.8v-1.1h-2.8v1.1Z"/>
          <path class="cls-2" d="M588.4,91.6v6.6h-2.1v-4.1h-2v3.5h-2.1v-3.5h-2.2v4.3h-2.1v-6.8h10.4Z"/>
          <path class="cls-2" d="M579.3,99.7l1.6,1.3c-.6.7-1,1.7-1,2.6s.4,1.4.9,1.4.8-.6,1.2-1.5l.6-1.3c.4-1.1,1.3-2.1,2.8-2.1s3.2,1.6,3.2,3.8-.5,2.5-1.3,3.4l-1.6-1.3c.5-.7.8-1.4.8-2.1s-.3-1.3-.8-1.3-.8.7-1.2,1.6l-.5,1.3c-.5,1.3-1.4,2.1-2.8,2.1s-3.3-1.5-3.3-4,.5-2.8,1.5-3.9Z"/>
          <path class="cls-2" d="M588.4,109.3v6.6h-2.1v-4.1h-2v3.5h-2.1v-3.5h-2.2v4.3h-2.1v-6.8h10.4Z"/>
          <path class="cls-2" d="M586.3,120.1v-2.8h2.1v8.1h-2.1v-2.8h-8.3v-2.5h8.3Z"/>
        </g>
        <g>
          <path class="cls-2" d="M371.4,742.4v2.5h-10.4v-2.5h10.4Z"/>
          <path class="cls-2" d="M366.1,746.8c3.5,0,5.5,2.3,5.5,5s-.6,2.4-1.4,3.2l-1.5-1.3c.5-.5.7-1.1.7-1.8,0-1.4-1.2-2.5-3.2-2.5s-3.3,1-3.3,2.4.3,1.5.9,2l-1.5,1.3c-1-.9-1.5-2.1-1.5-3.4,0-2.7,1.8-4.9,5.3-4.9Z"/>
          <path class="cls-2" d="M362.3,755.5l1.6,1.3c-.6.7-1,1.7-1,2.6s.4,1.4.9,1.4.8-.6,1.2-1.5l.6-1.3c.4-1.1,1.3-2.1,2.8-2.1s3.2,1.6,3.2,3.8-.5,2.5-1.3,3.4l-1.6-1.3c.5-.7.8-1.4.8-2.1s-.3-1.3-.8-1.3-.8.7-1.2,1.6l-.5,1.3c-.5,1.3-1.4,2.1-2.8,2.1s-3.3-1.5-3.3-4,.5-2.8,1.5-3.9Z"/>
          <path class="cls-2" d="M371.4,765.1v3.7c0,2.3-.8,4.2-3.4,4.2s-3.6-1.9-3.6-4.1v-1.2h-3.5v-2.5h10.4ZM366.4,768.7c0,1.2.6,1.8,1.6,1.8s1.4-.7,1.4-1.9v-1h-3v1.1Z"/>
        </g>
        <path class="cls-2" d="M388.4,694.3c-1.2,1-2,2.5-2,4.2,0,3,2.5,5.5,5.5,5.5s5.5-2.5,5.5-5.5-.8-3.2-2-4.2c-.4-.4-.5-1-.1-1.4s1-.5,1.4-.1c1.6,1.4,2.7,3.5,2.7,5.8,0,4.1-3.4,7.5-7.5,7.5s-7.5-3.4-7.5-7.5,1.1-4.4,2.7-5.8c.4-.4,1.1-.3,1.4.1.4.4.3,1.1-.1,1.4h0ZM392.9,698.5c0,.6-.4,1-1,1s-1-.4-1-1v-7c0-.6.4-1,1-1s1,.4,1,1v7Z"/>
        <polyline class="cls-39" points="35.7 225.7 42.4 225.7 105 288.3 115.8 288.3"/>
        <polyline class="cls-39" points="35.5 233.8 42.4 233.8 102.6 294 102.6 425.7 159.3 482.4 212.1 482.4 224.3 470 263.3 470"/>
        <polyline class="cls-39" points="33.1 261.3 44.4 261.3 86.6 303.4 86.6 426.4 156.4 496.3 268.1 496.3"/>
        <polyline class="cls-39" points="22.7 346.8 61.6 385.8 61.6 449.7 32.9 478.4"/>
        <line class="cls-4" x1="75.8" y1="428.5" x2="151.6" y2="504.4"/>
        <polyline class="cls-39" points="131.1 495.8 88.3 538.6 24.2 538.6"/>
        <polyline class="cls-39" points="131.1 506.5 91 546.5 25.7 546.5"/>
        <polyline class="cls-39" points="267.1 505 234.5 505 158.9 580.6 78.4 580.6 55.7 603.3 30.9 603.3"/>
        <polyline class="cls-39" points="249.2 514 249.2 560.4 179.4 630.2 30.3 630.2"/>
        <polyline class="cls-39" points="264.5 534 264.5 570.3 176 658.8 30.9 658.8"/>
        <polyline class="cls-39" points="273.3 533.8 273.3 573 158.5 687.8 24.2 687.8"/>
        <polyline class="cls-39" points="282.3 534.7 282.3 580.3 147.1 715.4 30.3 715.4"/>
        <polyline class="cls-39" points="290.8 538.7 290.8 588.1 134.4 744.5 30.3 744.5"/>
        <line class="cls-4" x1="328.5" y1="623.6" x2="291.9" y2="587"/>
        <polyline class="cls-39" points="330.9 639.9 305.7 614.7 279.8 614.7"/>
        <polyline class="cls-39" points="344.2 647.7 344.2 589 299.5 544.3 299.5 524.9"/>
        <polyline class="cls-39" points="278.2 762.5 261.9 746.2 261.9 681.5 287.1 656.2"/>
        <polyline class="cls-39" points="308 533.3 308 544.1 361.5 597.7 401.2 597.7 506.6 703 506.6 732.1 518.3 743.9 563.4 743.9"/>
        <polyline class="cls-39" points="316.8 534.4 316.8 545.2 359.1 587.5 421.2 587.5 568.4 734.8"/>
        <polyline class="cls-39" points="326.9 533.9 367.7 574.7 433.2 574.7 573.7 715.1"/>
        <polyline class="cls-39" points="345.5 513.3 399.9 513.3 571 684.3"/>
        <polyline class="cls-39" points="346.8 505 407 505 573.2 671.2"/>
        <polyline class="cls-39" points="495.7 524.8 488.8 517.8 442.8 517.8"/>
        <polyline class="cls-39" points="346.8 461.4 358 461.4 366.8 470.2 377.5 470.2"/>
        <polyline class="cls-39" points="346.6 452.4 356.6 452.4 367.1 441.9 380.4 441.9"/>
        <polyline class="cls-39" points="325.1 428.9 341.6 412.5 411.5 412.5 566.6 567.5"/>
        <polyline class="cls-39" points="316.7 430.7 316.7 426.1 336.2 406.6 414.4 406.6 574.8 567"/>
        <polyline class="cls-39" points="308 430.6 308 422.2 328.2 402 418.2 402 574.6 558.4"/>
        <polyline class="cls-39" points="299.4 429.1 299.4 420.9 323.2 397.1 418.6 397.1 576.1 554.6"/>
        <polyline class="cls-39" points="290.8 428.6 290.8 416.6 315.7 391.7 419.8 391.7 580.2 552.1"/>
        <polyline class="cls-39" points="281.9 430.2 281.9 408.5 303.1 388.4 424.8 388.4 479.9 443.5 580.2 443.5"/>
        <polyline class="cls-39" points="273.3 428.4 273.3 405.1 297 383.2 426.5 383.2 457.8 414.5 578.8 414.5"/>
        <polyline class="cls-39" points="264.5 427.9 264.5 403.9 286.5 381.9 289.9 378.5"/>
        <polyline class="cls-39" points="220.9 446 220.9 416.9 289.3 348.6 315.1 348.6 322.1 355.6 371.9 355.6 399.3 328.2 426.5 328.2"/>
        <polyline class="cls-39" points="210 343.1 314 343.1 334.8 322.3 354.1 322.3"/>
        <polyline class="cls-39" points="286.4 272.5 286.4 283.3 277.4 292.3 260 292.3 247.3 279.6 247.3 270.4 247.3 245.3"/>
        <polyline class="cls-39" points="226.6 214.6 226.6 206.3 232.1 200.8 249 200.8"/>
        <polyline class="cls-39" points="190.9 192.3 237.1 192.3 257.7 171.7 257.7 149.9"/>
        <polyline class="cls-39" points="318.9 178.8 332.8 178.8 341.4 170.1 341.4 137.6 313.4 109.6 297.7 109.6 275.7 87.6"/>
        <polyline class="cls-39" points="285.6 84.1 299.4 97.9 311 97.9"/>
        <polyline class="cls-39" points="323 81.6 323 101.8 344.2 123 379.6 123 384.3 118.3 384.3 89.1"/>
        <path class="cls-39" d="M402.3,199.1v-48.4"/>
        <path class="cls-39" d="M417.8,150.7v22"/>
        <polyline class="cls-39" points="415.4 206.4 427.8 206.4 439.7 194.4"/>
        <polyline class="cls-39" points="415.2 220.1 428.2 220.1 440.3 232.2"/>
        <line class="cls-39" x1="415.8" y1="261.3" x2="439.3" y2="261.3"/>
        <line class="cls-39" x1="413.5" y1="275.3" x2="441.6" y2="275.3"/>
        <polyline class="cls-39" points="415.2 288.7 426.5 288.7 441.6 288.7"/>
        <line class="cls-39" x1="562.6" y1="151.6" x2="530.1" y2="184.1"/>
        <g>
          <rect class="cls-15" x="257" y="445.1" width="76" height="76" rx="5.9" ry="5.9"/>
          <circle class="cls-1" cx="322" cy="509.2" r="4.8"/>
          <g>
            <path class="cls-38" d="M240.1,449.7h16.9v5.9h-16.9c-.7,0-1.2-.6-1.2-1.2v-3.4c0-.7.6-1.2,1.2-1.2Z"/>
            <path class="cls-38" d="M240.1,458.4h16.9v5.9h-16.9c-.7,0-1.2-.6-1.2-1.2v-3.4c0-.7.6-1.2,1.2-1.2Z"/>
            <path class="cls-38" d="M240.1,467.1h16.9v5.9h-16.9c-.7,0-1.2-.6-1.2-1.2v-3.4c0-.7.6-1.2,1.2-1.2Z"/>
            <path class="cls-38" d="M240.1,475.8h16.9v5.9h-16.9c-.7,0-1.2-.6-1.2-1.2v-3.4c0-.7.6-1.2,1.2-1.2Z"/>
            <path class="cls-38" d="M240.1,484.5h16.9v5.9h-16.9c-.7,0-1.2-.6-1.2-1.2v-3.4c0-.7.6-1.2,1.2-1.2Z"/>
            <path class="cls-38" d="M240.1,493.2h16.9v5.9h-16.9c-.7,0-1.2-.6-1.2-1.2v-3.4c0-.7.6-1.2,1.2-1.2Z"/>
            <path class="cls-38" d="M240.1,501.9h16.9v5.9h-16.9c-.7,0-1.2-.6-1.2-1.2v-3.4c0-.7.6-1.2,1.2-1.2Z"/>
            <path class="cls-38" d="M240.1,510.6h16.9v5.9h-16.9c-.7,0-1.2-.6-1.2-1.2v-3.4c0-.7.6-1.2,1.2-1.2Z"/>
          </g>
          <g>
            <path class="cls-38" d="M317.5,433.1h16.9v5.9h-16.9c-.7,0-1.2-.6-1.2-1.2v-3.4c0-.7.6-1.2,1.2-1.2Z" transform="translate(761.4 110.7) rotate(90)"/>
            <path class="cls-38" d="M308.9,433.1h16.9v5.9h-16.9c-.7,0-1.2-.6-1.2-1.2v-3.4c0-.7.6-1.2,1.2-1.2Z" transform="translate(752.7 119.4) rotate(90)"/>
            <path class="cls-38" d="M300.2,433.1h16.9v5.9h-16.9c-.7,0-1.2-.6-1.2-1.2v-3.4c0-.7.6-1.2,1.2-1.2Z" transform="translate(744 128.1) rotate(90)"/>
            <path class="cls-38" d="M291.5,433.1h16.9v5.9h-16.9c-.7,0-1.2-.6-1.2-1.2v-3.4c0-.7.6-1.2,1.2-1.2Z" transform="translate(735.3 136.7) rotate(90)"/>
            <path class="cls-38" d="M282.8,433.1h16.9v5.9h-16.9c-.7,0-1.2-.6-1.2-1.2v-3.4c0-.7.6-1.2,1.2-1.2Z" transform="translate(726.6 145.4) rotate(90)"/>
            <path class="cls-38" d="M274.1,433.1h16.9v5.9h-16.9c-.7,0-1.2-.6-1.2-1.2v-3.4c0-.7.6-1.2,1.2-1.2Z" transform="translate(717.9 154.1) rotate(90)"/>
            <path class="cls-38" d="M265.4,433.1h16.9v5.9h-16.9c-.7,0-1.2-.6-1.2-1.2v-3.4c0-.7.6-1.2,1.2-1.2Z" transform="translate(709.2 162.8) rotate(90)"/>
            <path class="cls-38" d="M256.7,433.1h16.9v5.9h-16.9c-.7,0-1.2-.6-1.2-1.2v-3.4c0-.7.6-1.2,1.2-1.2Z" transform="translate(700.5 171.5) rotate(90)"/>
          </g>
          <g>
            <path class="cls-38" d="M256.7,527.2h16.9v5.9h-16.9c-.7,0-1.2-.6-1.2-1.2v-3.4c0-.7.6-1.2,1.2-1.2Z" transform="translate(-265.6 794.7) rotate(-90)"/>
            <path class="cls-38" d="M265.4,527.2h16.9v5.9h-16.9c-.7,0-1.2-.6-1.2-1.2v-3.4c0-.7.6-1.2,1.2-1.2Z" transform="translate(-256.9 803.3) rotate(-90)"/>
            <path class="cls-38" d="M274.1,527.2h16.9v5.9h-16.9c-.7,0-1.2-.6-1.2-1.2v-3.4c0-.7.6-1.2,1.2-1.2Z" transform="translate(-248.2 812) rotate(-90)"/>
            <path class="cls-38" d="M282.8,527.2h16.9v5.9h-16.9c-.7,0-1.2-.6-1.2-1.2v-3.4c0-.7.6-1.2,1.2-1.2Z" transform="translate(-239.5 820.7) rotate(-90)"/>
            <path class="cls-38" d="M291.5,527.2h16.9v5.9h-16.9c-.7,0-1.2-.6-1.2-1.2v-3.4c0-.7.6-1.2,1.2-1.2Z" transform="translate(-230.8 829.4) rotate(-90)"/>
            <path class="cls-38" d="M300.2,527.2h16.9v5.9h-16.9c-.7,0-1.2-.6-1.2-1.2v-3.4c0-.7.6-1.2,1.2-1.2Z" transform="translate(-222.2 838.1) rotate(-90)"/>
            <path class="cls-38" d="M308.9,527.2h16.9v5.9h-16.9c-.7,0-1.2-.6-1.2-1.2v-3.4c0-.7.6-1.2,1.2-1.2Z" transform="translate(-213.5 846.8) rotate(-90)"/>
            <path class="cls-38" d="M317.5,527.2h16.9v5.9h-16.9c-.7,0-1.2-.6-1.2-1.2v-3.4c0-.7.6-1.2,1.2-1.2Z" transform="translate(-204.8 855.5) rotate(-90)"/>
          </g>
          <g>
            <path class="cls-38" d="M334.2,510.3h16.9v5.9h-16.9c-.7,0-1.2-.6-1.2-1.2v-3.4c0-.7.6-1.2,1.2-1.2Z" transform="translate(684 1026.5) rotate(180)"/>
            <path class="cls-38" d="M334.2,501.6h16.9v5.9h-16.9c-.7,0-1.2-.6-1.2-1.2v-3.4c0-.7.6-1.2,1.2-1.2Z" transform="translate(684 1009.1) rotate(180)"/>
            <path class="cls-38" d="M334.2,492.9h16.9v5.9h-16.9c-.7,0-1.2-.6-1.2-1.2v-3.4c0-.7.6-1.2,1.2-1.2Z" transform="translate(684 991.7) rotate(180)"/>
            <path class="cls-38" d="M334.2,484.2h16.9v5.9h-16.9c-.7,0-1.2-.6-1.2-1.2v-3.4c0-.7.6-1.2,1.2-1.2Z" transform="translate(684 974.3) rotate(180)"/>
            <path class="cls-38" d="M334.2,475.5h16.9v5.9h-16.9c-.7,0-1.2-.6-1.2-1.2v-3.4c0-.7.6-1.2,1.2-1.2Z" transform="translate(684 956.9) rotate(180)"/>
            <path class="cls-38" d="M334.2,466.8h16.9v5.9h-16.9c-.7,0-1.2-.6-1.2-1.2v-3.4c0-.7.6-1.2,1.2-1.2Z" transform="translate(684 939.5) rotate(180)"/>
            <path class="cls-38" d="M334.2,458.1h16.9v5.9h-16.9c-.7,0-1.2-.6-1.2-1.2v-3.4c0-.7.6-1.2,1.2-1.2Z" transform="translate(684 922.1) rotate(180)"/>
            <path class="cls-38" d="M334.2,449.4h16.9v5.9h-16.9c-.7,0-1.2-.6-1.2-1.2v-3.4c0-.7.6-1.2,1.2-1.2Z" transform="translate(684 904.8) rotate(180)"/>
          </g>
        </g>
        <path class="cls-2" d="M246.7,608.3v7.2c0,1.3,0,2.5-.1,3.5,0,.8-.2,1.6-.4,2.4-.2.7-.5,1.3-.8,1.9-.5.7-1,1.4-1.6,2-.6.7-1.5,1.2-2.5,1.6-1.1.3-2.3.5-3.7.5h-6v-7.4h3.7c.5,0,.9,0,1.4-.2.3-.1.6-.3.9-.6.2-.3.4-.7.5-1.1.1-.6.2-1.2.2-1.7v-7.9h8.5ZM232.3,631.7h95v3.1h-95v-3.1ZM246.7,596.3v7.4h-8.5v-7.4h8.5ZM267,595.8c1.1,0,2.3,0,3.4.3,1,.2,2.1.5,3.1.9,1,.4,1.9.9,2.7,1.4.9.6,1.7,1.2,2.4,2,.7.7,1.4,1.6,1.9,2.4.6.9,1,1.8,1.4,2.7.4,1,.7,2,.8,3.1.2,1.1.3,2.3.3,3.4,0,1.1,0,2.2-.3,3.3-.2,1-.5,2-.8,3-.4.9-.8,1.9-1.4,2.7-.6.9-1.2,1.7-1.9,2.4-.7.7-1.5,1.4-2.4,2-.8.6-1.7,1-2.7,1.4-1,.4-2,.7-3,.9-1.1.2-2.2.3-3.3.3-1.1,0-2.3,0-3.4-.3-1-.2-2.1-.5-3.1-.8-1-.4-1.9-.8-2.7-1.4-1.7-1.1-3.2-2.6-4.4-4.4-.6-.9-1-1.8-1.4-2.7-.4-1-.7-2-.9-3-.4-2.2-.4-4.5,0-6.7.2-1,.5-2.1.9-3,.4-1,.8-1.9,1.4-2.7.6-.9,1.2-1.7,2-2.5.7-.8,1.5-1.4,2.4-2,.8-.6,1.7-1.1,2.7-1.4,1-.4,2-.7,3-.9,1.1-.2,2.2-.3,3.3-.3h0ZM267,602.9c-1,0-2,.2-3,.6-.9.4-1.6,1-2.2,1.8-.6.8-1.1,1.8-1.4,2.8-.3,1.1-.5,2.3-.5,3.7,0,1.3.1,2.5.5,3.8.3,1,.8,2,1.4,2.9.6.8,1.4,1.4,2.3,1.8.9.4,1.9.6,3,.6,1,0,2-.2,3-.6.9-.4,1.6-1,2.2-1.8.6-.9,1.1-1.8,1.4-2.8.3-1.1.5-2.4.5-3.8,0-1.2-.1-2.5-.5-3.7-.3-1-.8-2-1.4-2.8-.6-.8-1.4-1.4-2.3-1.8-.9-.4-1.9-.6-3-.6h0ZM286.5,596.3h8.5v7.7c0,1.6.3,2.8.9,3.6s1.6,1.2,2.8,1.2c1.3,0,2.3-.4,2.9-1.3s1-2.1,1-3.8v-7.4h8.4v5.4c0,1.3,0,2.5-.2,3.6,0,.9-.2,1.8-.5,2.7-.3.9-.6,1.7-1.1,2.5-.6,1-1.3,1.9-2,2.7-.4.5-.9.9-1.5,1.3-.6.4-1.2.7-1.9.9-.8.3-1.6.4-2.4.5-.9.1-1.9.2-2.8.2-.9,0-1.8,0-2.7-.2-.8-.1-1.5-.3-2.3-.5-.7-.2-1.3-.5-1.9-.9-.5-.3-1-.7-1.5-1.2-.8-.8-1.5-1.7-2.1-2.6-.5-.7-.9-1.5-1.2-2.4-.3-.9-.4-1.8-.5-2.7-.1-1.1-.2-2.3-.2-3.4v-6.1ZM305.8,619.9v7.4h-14.2v-7.4h14.2ZM309.8,589.6h56.8v2.9h-56.8v-2.9ZM313.4,609.8h18.3v7.3h-18.3v-7.3ZM343.4,596.3v7.4h-8.5v-7.4h8.5ZM343.4,608.3v19.1h-8.5v-19.1h8.5ZM367.9,596.3v7.4h-19.9v-7.4h19.9ZM349.4,608.3h8.4v7.7c0,.7,0,1.3.2,2,.1.5.3.9.5,1.2.2.2.6.4,1.1.6.6.1,1.2.2,1.8.2h5.5v7.4h-7.9c-.8,0-1.6,0-2.3-.2-.7,0-1.4-.3-2-.5-.6-.2-1.1-.5-1.7-.8-.5-.3-.9-.7-1.3-1.1-.4-.4-.7-.9-1-1.5-.3-.6-.5-1.2-.7-1.9-.2-.8-.3-1.5-.4-2.3,0-.9-.1-1.8-.1-2.7v-8.1Z"/>
        <rect class="cls-35" x="208.6" y="436.8" width="9.8" height="21.5" transform="translate(-234 661.1) rotate(-90)"/>
        <rect class="cls-35" x="349.1" y="320.6" width="9.8" height="21.5"/>
        <g>
          <rect class="cls-15" x="267.7" y="224" width="50.5" height="39.3" rx="2.5" ry="2.5"/>
          <circle class="cls-1" cx="272" cy="255.3" r="2.7"/>
          <g>
            <path class="cls-38" d="M267.6,266.9h12.2v6.1h-12.2c-.7,0-1.2-.6-1.2-1.2v-3.6c0-.7.6-1.2,1.2-1.2Z" transform="translate(3.1 543) rotate(-90)"/>
            <path class="cls-38" d="M280.9,266.9h12.2v6.1h-12.2c-.7,0-1.2-.6-1.2-1.2v-3.6c0-.7.6-1.2,1.2-1.2Z" transform="translate(16.4 556.3) rotate(-90)"/>
            <path class="cls-38" d="M294.2,266.9h12.2v6.1h-12.2c-.7,0-1.2-.6-1.2-1.2v-3.6c0-.7.6-1.2,1.2-1.2Z" transform="translate(29.7 569.6) rotate(-90)"/>
            <path class="cls-38" d="M307.4,266.9h12.2v6.1h-12.2c-.7,0-1.2-.6-1.2-1.2v-3.6c0-.7.6-1.2,1.2-1.2Z" transform="translate(43 582.9) rotate(-90)"/>
          </g>
          <g>
            <path class="cls-38" d="M307.4,214.2h12.2v6.1h-12.2c-.7,0-1.2-.6-1.2-1.2v-3.6c0-.7.6-1.2,1.2-1.2Z" transform="translate(530.2 -95.7) rotate(90)"/>
            <path class="cls-38" d="M294.2,214.2h12.2v6.1h-12.2c-.7,0-1.2-.6-1.2-1.2v-3.6c0-.7.6-1.2,1.2-1.2Z" transform="translate(516.9 -82.4) rotate(90)"/>
            <path class="cls-38" d="M280.9,214.2h12.2v6.1h-12.2c-.7,0-1.2-.6-1.2-1.2v-3.6c0-.7.6-1.2,1.2-1.2Z" transform="translate(503.6 -69.1) rotate(90)"/>
            <path class="cls-38" d="M267.6,214.2h12.2v6.1h-12.2c-.7,0-1.2-.6-1.2-1.2v-3.6c0-.7.6-1.2,1.2-1.2Z" transform="translate(490.3 -55.8) rotate(90)"/>
          </g>
        </g>
        <g>
          <g>
            <path class="cls-38" d="M221.8,241.5h12.2v9.6h-12.2c-.7,0-1.2-.6-1.2-1.2v-7.1c0-.7.6-1.2,1.2-1.2Z" transform="translate(-19 473.6) rotate(-90)"/>
            <path class="cls-38" d="M241.5,241.5h12.2v9.6h-12.2c-.7,0-1.2-.6-1.2-1.2v-7.1c0-.7.6-1.2,1.2-1.2Z" transform="translate(.6 493.3) rotate(-90)"/>
          </g>
          <g>
            <path class="cls-38" d="M221.1,213.5h12.2v6.1h-12.2c-.7,0-1.2-.6-1.2-1.2v-3.6c0-.7.6-1.2,1.2-1.2Z" transform="translate(443.1 -10.1) rotate(90)"/>
            <path class="cls-38" d="M231.6,213.5h12.2v6.1h-12.2c-.7,0-1.2-.6-1.2-1.2v-3.6c0-.7.6-1.2,1.2-1.2Z" transform="translate(453.6 -20.6) rotate(90)"/>
            <path class="cls-38" d="M242.1,213.5h12.2v6.1h-12.2c-.7,0-1.2-.6-1.2-1.2v-3.6c0-.7.6-1.2,1.2-1.2Z" transform="translate(464.1 -31.1) rotate(90)"/>
          </g>
          <rect class="cls-15" x="221.9" y="223.3" width="30.4" height="16.3" rx=".7" ry=".7"/>
        </g>
        <rect class="cls-35" x="233.4" y="259.7" width="9.8" height="21.5" transform="translate(-32.1 508.7) rotate(-90)"/>
        <g>
          <rect class="cls-15" x="365.2" y="200.9" width="34.4" height="107"/>
          <g>
            <path class="cls-38" d="M348.3,203.4h16.9v5.9h-16.9c-.7,0-1.2-.6-1.2-1.2v-3.4c0-.7.6-1.2,1.2-1.2Z"/>
            <path class="cls-38" d="M348.3,217.1h16.9v5.9h-16.9c-.7,0-1.2-.6-1.2-1.2v-3.4c0-.7.6-1.2,1.2-1.2Z"/>
            <path class="cls-38" d="M348.3,230.9h16.9v5.9h-16.9c-.7,0-1.2-.6-1.2-1.2v-3.4c0-.7.6-1.2,1.2-1.2Z"/>
            <path class="cls-38" d="M348.3,244.6h16.9v5.9h-16.9c-.7,0-1.2-.6-1.2-1.2v-3.4c0-.7.6-1.2,1.2-1.2Z"/>
            <path class="cls-38" d="M348.3,258.3h16.9v5.9h-16.9c-.7,0-1.2-.6-1.2-1.2v-3.4c0-.7.6-1.2,1.2-1.2Z"/>
            <path class="cls-38" d="M348.3,272.1h16.9v5.9h-16.9c-.7,0-1.2-.6-1.2-1.2v-3.4c0-.7.6-1.2,1.2-1.2Z"/>
            <path class="cls-38" d="M348.3,285.8h16.9v5.9h-16.9c-.7,0-1.2-.6-1.2-1.2v-3.4c0-.7.6-1.2,1.2-1.2Z"/>
            <path class="cls-38" d="M348.3,299.5h16.9v5.9h-16.9c-.7,0-1.2-.6-1.2-1.2v-3.4c0-.7.6-1.2,1.2-1.2Z"/>
          </g>
          <g>
            <path class="cls-38" d="M400.8,299.5h16.9v5.9h-16.9c-.7,0-1.2-.6-1.2-1.2v-3.4c0-.7.6-1.2,1.2-1.2Z" transform="translate(817.3 604.9) rotate(180)"/>
            <path class="cls-38" d="M400.8,285.8h16.9v5.9h-16.9c-.7,0-1.2-.6-1.2-1.2v-3.4c0-.7.6-1.2,1.2-1.2Z" transform="translate(817.3 577.4) rotate(180)"/>
            <path class="cls-38" d="M400.8,272.1h16.9v5.9h-16.9c-.7,0-1.2-.6-1.2-1.2v-3.4c0-.7.6-1.2,1.2-1.2Z" transform="translate(817.3 550) rotate(180)"/>
            <path class="cls-38" d="M400.8,258.3h16.9v5.9h-16.9c-.7,0-1.2-.6-1.2-1.2v-3.4c0-.7.6-1.2,1.2-1.2Z" transform="translate(817.3 522.5) rotate(180)"/>
            <path class="cls-38" d="M400.8,244.6h16.9v5.9h-16.9c-.7,0-1.2-.6-1.2-1.2v-3.4c0-.7.6-1.2,1.2-1.2Z" transform="translate(817.3 495.1) rotate(180)"/>
            <path class="cls-38" d="M400.8,230.9h16.9v5.9h-16.9c-.7,0-1.2-.6-1.2-1.2v-3.4c0-.7.6-1.2,1.2-1.2Z" transform="translate(817.3 467.6) rotate(180)"/>
            <path class="cls-38" d="M400.8,217.1h16.9v5.9h-16.9c-.7,0-1.2-.6-1.2-1.2v-3.4c0-.7.6-1.2,1.2-1.2Z" transform="translate(817.3 440.2) rotate(180)"/>
            <path class="cls-38" d="M400.8,203.4h16.9v5.9h-16.9c-.7,0-1.2-.6-1.2-1.2v-3.4c0-.7.6-1.2,1.2-1.2Z" transform="translate(817.3 412.7) rotate(180)"/>
          </g>
          <circle class="cls-1" cx="391.5" cy="298" r="4.9"/>
        </g>
        <rect class="cls-35" x="444.2" y="247.6" width="9.8" height="21.5" transform="translate(707.5 -190.8) rotate(90)"/>
        <g>
          <rect class="cls-6" x="443.8" y="266.9" width="10.7" height="17.2" transform="translate(724.6 -173.6) rotate(90)"/>
          <rect class="cls-15" x="443.9" y="269.6" width="10.7" height="11.8" transform="translate(724.8 -173.8) rotate(90)"/>
        </g>
        <g>
          <rect class="cls-6" x="443.8" y="284.5" width="10.7" height="17.2" transform="translate(742.2 -156) rotate(90)"/>
          <rect class="cls-15" x="443.9" y="287.2" width="10.7" height="11.8" transform="translate(742.4 -156.2) rotate(90)"/>
        </g>
        <g>
          <rect class="cls-6" x="396.9" y="135.7" width="10.7" height="17.2"/>
          <rect class="cls-15" x="396.9" y="138.2" width="10.7" height="11.8"/>
        </g>
        <g>
          <rect class="cls-6" x="412.5" y="135.5" width="10.7" height="17.2"/>
          <rect class="cls-15" x="412.5" y="138.1" width="10.7" height="11.8"/>
        </g>
        <path class="cls-38" d="M311.7,173h12.2v11.5h-12.2c-.7,0-1.2-.6-1.2-1.2v-9c0-.7.6-1.2,1.2-1.2Z" transform="translate(138.5 496) rotate(-90)"/>
        <g>
          <rect class="cls-5" x="274.4" y="53.8" width="51.5" height="35.1"/>
          <rect class="cls-12" x="286.8" y="53.8" width="26.7" height="35.1"/>
        </g>
        <g>
          <path class="cls-28" d="M369.7,19.6h0s87.6,0,87.6,0h0c2.7,1.4,4.4,4.2,4.4,7.3v70.1c0,1-.8,1.8-1.8,1.8h-92.8c-1,0-1.8-.8-1.8-1.8V26.9c0-3,1.7-5.8,4.4-7.3Z"/>
          <g>
            <path class="cls-25" d="M444.5,93h0c0-1.3-1.1-2.4-2.4-2.4h-9.9c-.8,0-1.5-.7-1.5-1.5v-2.1c0-.8.7-1.5,1.5-1.5h9.9c1.3,0,2.4-1.1,2.4-2.4h0c0-1.3-1.1-2.4-2.4-2.4h-14c-1.3,0-2.4,1.1-2.4,2.4v10c0,1.3,1.1,2.4,2.4,2.4h14c1.3,0,2.4-1.1,2.4-2.4Z"/>
            <path class="cls-25" d="M382.6,83h0c0,1.3,1.1,2.4,2.4,2.4h9.9c.8,0,1.5.7,1.5,1.5v2.1c0,.8-.7,1.5-1.5,1.5h-9.9c-1.3,0-2.4,1.1-2.4,2.4h0c0,1.3,1.1,2.4,2.4,2.4h14c1.3,0,2.4-1.1,2.4-2.4v-10c0-1.3-1.1-2.4-2.4-2.4h-14c-1.3,0-2.4,1.1-2.4,2.4Z"/>
          </g>
        </g>
        <g>
          <rect class="cls-15" x="197.8" y="100.6" width="69.5" height="37" rx="1.2" ry="1.2"/>
          <g>
            <path class="cls-38" d="M199.4,143.7h16.9v5.9h-16.9c-.7,0-1.2-.6-1.2-1.2v-3.4c0-.7.6-1.2,1.2-1.2Z" transform="translate(60.6 353.8) rotate(-90)"/>
            <path class="cls-38" d="M224.8,143.7h16.9v5.9h-16.9c-.7,0-1.2-.6-1.2-1.2v-3.4c0-.7.6-1.2,1.2-1.2Z" transform="translate(86 379.2) rotate(-90)"/>
            <path class="cls-38" d="M250.1,143.7h16.9v5.9h-16.9c-.7,0-1.2-.6-1.2-1.2v-3.4c0-.7.6-1.2,1.2-1.2Z" transform="translate(111.3 404.6) rotate(-90)"/>
          </g>
          <path class="cls-38" d="M218.8,70.1h25.6v34.3h-25.6c-.7,0-1.2-.6-1.2-1.2v-31.8c0-.7.6-1.2,1.2-1.2Z" transform="translate(318.2 -143.8) rotate(90)"/>
        </g>
        <rect class="cls-15" x="150.1" y="178.8" width="48.4" height="27.1"/>
        <g>
          <rect class="cls-28" x="15.7" y="221.9" width="20" height="20"/>
          <circle class="cls-24" cx="25.7" cy="231.9" r="7.4"/>
          <rect class="cls-28" x="15.7" y="250.6" width="20" height="20"/>
          <circle class="cls-24" cx="25.7" cy="260.6" r="7.4"/>
          <rect class="cls-28" x="15.7" y="279.2" width="20" height="20"/>
          <circle class="cls-24" cx="25.7" cy="289.3" r="7.4"/>
          <rect class="cls-28" x="15.7" y="307.9" width="20" height="20"/>
          <circle class="cls-24" cx="25.7" cy="317.9" r="7.4"/>
        </g>
        <g>
          <rect class="cls-11" x="9" y="334.3" width="33.4" height="240.9"/>
          <rect x="15.9" y="337" width="19.6" height="19.6"/>
          <rect x="15.9" y="367.5" width="19.6" height="19.6"/>
          <rect x="15.9" y="398" width="19.6" height="19.6"/>
          <rect x="15.9" y="428.5" width="19.6" height="19.6"/>
          <rect x="15.9" y="459" width="19.6" height="19.6"/>
          <rect x="15.9" y="489.6" width="19.6" height="19.6"/>
          <rect x="15.9" y="520.1" width="19.6" height="19.6"/>
          <rect x="15.9" y="550.6" width="19.6" height="19.6"/>
        </g>
        <g>
          <rect class="cls-11" x="9" y="580.9" width="33.4" height="178.8"/>
          <g>
            <rect x="15.9" y="584.2" width="19.6" height="19.6"/>
            <rect x="15.9" y="614.7" width="19.6" height="19.6"/>
            <rect x="15.9" y="645.2" width="19.6" height="19.6"/>
            <rect x="15.9" y="675.7" width="19.6" height="19.6"/>
            <rect x="15.9" y="706.2" width="19.6" height="19.6"/>
            <rect x="15.9" y="736.7" width="19.6" height="19.6"/>
          </g>
        </g>
        <g>
          <path class="cls-2" d="M50,372.5h2.5v10.4h-2.5v-10.4Z"/>
          <path class="cls-2" d="M54.5,377.7c0-3.4,1.9-5.4,4.8-5.4s4.8,2,4.8,5.4-1.9,5.4-4.8,5.4-4.8-2-4.8-5.4ZM61.5,377.7c0-2-.8-3.2-2.2-3.2s-2.2,1.2-2.2,3.2.9,3.3,2.2,3.3,2.2-1.3,2.2-3.3Z"/>
          <path class="cls-2" d="M65.9,372.5h3.8c2.2,0,4.1.8,4.1,3.3s-.7,2.5-1.8,3l2.3,4.1h-2.8l-1.9-3.7h-1.2v3.7h-2.5v-10.4ZM69.6,377.3c1.2,0,1.8-.5,1.8-1.5s-.6-1.3-1.8-1.3h-1.1v2.8h1.1Z"/>
          <path class="cls-2" d="M75.8,372.5h6.6v2.1h-4.1v2h3.5v2.1h-3.5v2.2h4.3v2.1h-6.8v-10.4Z"/>
          <path class="cls-2" d="M84.6,372.5h6.7v2.1h-4.2v2.3h3.6v2.1h-3.6v4h-2.5v-10.4Z"/>
        </g>
        <g>
          <path class="cls-2" d="M51.3,403h3.8c2.2,0,4.1.8,4.1,3.3s-.7,2.5-1.8,3l2.3,4.1h-2.8l-1.9-3.7h-1.2v3.7h-2.5v-10.4ZM54.9,407.8c1.2,0,1.8-.5,1.8-1.5s-.6-1.3-1.8-1.3h-1.1v2.8h1.1Z"/>
          <path class="cls-2" d="M61.2,403h6.6v2.1h-4.1v2h3.5v2.1h-3.5v2.2h4.3v2.1h-6.8v-10.4Z"/>
          <path class="cls-2" d="M69.3,412.1l1.3-1.6c.7.6,1.7,1,2.6,1s1.4-.4,1.4-.9-.6-.8-1.5-1.2l-1.3-.6c-1.1-.4-2.1-1.3-2.1-2.8s1.6-3.2,3.8-3.2,2.5.5,3.4,1.3l-1.3,1.6c-.7-.5-1.4-.8-2.1-.8s-1.3.3-1.3.8.7.8,1.6,1.2l1.3.5c1.3.5,2.1,1.4,2.1,2.8s-1.5,3.3-4,3.3-2.8-.5-3.9-1.5Z"/>
          <path class="cls-2" d="M78.9,403h6.6v2.1h-4.1v2h3.5v2.1h-3.5v2.2h4.3v2.1h-6.8v-10.4Z"/>
          <path class="cls-2" d="M89.7,405.1h-2.8v-2.1h8.1v2.1h-2.8v8.3h-2.5v-8.3Z"/>
        </g>
        <g>
          <path class="cls-2" d="M51.6,442.7l1.1-1.6c.6.6,1.4,1,2.2,1s1.6-.4,1.6-1.2-.5-1.4-2.7-1.4v-1.8c1.8,0,2.3-.5,2.3-1.4s-.4-1.1-1.2-1.1-1.2.3-1.9.9l-1.2-1.5c.9-.8,2-1.3,3.2-1.3,2.2,0,3.6,1,3.6,2.9s-.6,1.8-1.7,2.3h0c1.2.4,2,1.2,2,2.6,0,2-1.8,3-3.8,3s-2.8-.6-3.6-1.4Z"/>
          <path class="cls-2" d="M60.8,442.6c0-.9.6-1.5,1.5-1.5s1.5.7,1.5,1.5-.6,1.5-1.5,1.5-1.5-.7-1.5-1.5Z"/>
          <path class="cls-2" d="M65.1,442.7l1.1-1.6c.6.6,1.4,1,2.2,1s1.6-.4,1.6-1.2-.5-1.4-2.7-1.4v-1.8c1.8,0,2.3-.5,2.3-1.4s-.4-1.1-1.2-1.1-1.2.3-1.9.9l-1.2-1.5c.9-.8,2-1.3,3.2-1.3,2.2,0,3.6,1,3.6,2.9s-.6,1.8-1.7,2.3h0c1.2.4,2,1.2,2,2.6,0,2-1.8,3-3.8,3s-2.8-.6-3.6-1.4Z"/>
          <path class="cls-2" d="M73.1,433.5h2.6l1.1,4.8c.3,1.1.5,2.2.8,3.3h0c.3-1.1.5-2.2.8-3.3l1.2-4.8h2.5l-3.2,10.4h-3l-3.1-10.4Z"/>
        </g>
        <g>
          <path class="cls-2" d="M52.9,473.2l1.1-1.6c.6.6,1.3,1,2.1,1s1.6-.6,1.6-1.6-.6-1.6-1.5-1.6-.9.1-1.5.5l-1.1-.7.3-5.2h5.8v2.1h-3.7v1.8c.2-.1.5-.2.9-.2,1.8,0,3.2,1,3.2,3.3s-1.8,3.7-3.8,3.7-2.8-.6-3.6-1.4Z"/>
          <path class="cls-2" d="M60.9,464h2.6l1.1,4.8c.3,1.1.5,2.2.8,3.3h0c.3-1.1.5-2.2.8-3.3l1.2-4.8h2.5l-3.2,10.4h-3l-3.1-10.4Z"/>
        </g>
        <g>
          <path class="cls-2" d="M54.5,499.8c0-3.5,2.3-5.5,5.1-5.5s2.6.6,3.3,1.4l-1.3,1.5c-.5-.5-1.1-.7-1.9-.7-1.5,0-2.7,1.2-2.7,3.2s.9,3.3,2.9,3.3.8,0,1-.3v-1.7h-1.7v-2h3.9v4.9c-.7.7-2,1.3-3.5,1.3-2.9,0-5.2-1.8-5.2-5.3Z"/>
          <path class="cls-2" d="M65.2,494.5h2.6l2.6,5c.4.7.7,1.5,1,2.4h0c-.1-1.1-.3-2.6-.3-3.8v-3.5h2.4v10.4h-2.6l-2.6-5c-.4-.7-.7-1.5-1-2.4h0c.1,1.2.3,2.6.3,3.8v3.5h-2.4v-10.4Z"/>
          <path class="cls-2" d="M75.9,494.5h3c3.2,0,5.3,1.6,5.3,5.2s-2.1,5.2-5.1,5.2h-3.1v-10.4ZM78.7,503c1.7,0,2.9-.8,2.9-3.2s-1.2-3.2-2.9-3.2h-.4v6.4h.4Z"/>
        </g>
        <g>
          <path class="cls-2" d="M55.7,530.3c0-3.5,2.3-5.5,5.1-5.5s2.6.6,3.3,1.4l-1.3,1.5c-.5-.5-1.1-.7-1.9-.7-1.5,0-2.7,1.2-2.7,3.2s.9,3.3,2.9,3.3.8,0,1-.3v-1.7h-1.7v-2h3.9v4.9c-.7.7-2,1.3-3.5,1.3-2.9,0-5.2-1.8-5.2-5.3Z"/>
          <path class="cls-2" d="M66.4,525.1h2.6l2.6,5c.4.7.7,1.5,1,2.4h0c-.1-1.1-.3-2.6-.3-3.8v-3.5h2.4v10.4h-2.6l-2.6-5c-.4-.7-.7-1.5-1-2.4h0c.1,1.2.3,2.6.3,3.8v3.5h-2.4v-10.4Z"/>
          <path class="cls-2" d="M77.1,525.1h3c3.2,0,5.3,1.6,5.3,5.2s-2.1,5.2-5.1,5.2h-3.1v-10.4ZM80,533.5c1.7,0,2.9-.8,2.9-3.2s-1.2-3.2-2.9-3.2h-.4v6.4h.4Z"/>
        </g>
        <g>
          <path class="cls-2" d="M56.1,555.6h2.6l1.1,4.8c.3,1.1.5,2.2.8,3.3h0c.3-1.1.5-2.2.8-3.3l1.2-4.8h2.5l-3.2,10.4h-3l-3.1-10.4Z"/>
          <path class="cls-2" d="M66.4,555.6h2.5v10.4h-2.5v-10.4Z"/>
          <path class="cls-2" d="M71.3,555.6h2.6l2.6,5c.4.7.7,1.5,1,2.4h0c-.1-1.1-.3-2.6-.3-3.8v-3.5h2.4v10.4h-2.6l-2.6-5c-.4-.7-.7-1.5-1-2.4h0c.1,1.2.3,2.6.3,3.8v3.5h-2.4v-10.4Z"/>
        </g>
        <g>
          <path class="cls-2" d="M60.6,589.1h3l3.2,10.4h-2.6l-.6-2.4h-3.1l-.6,2.4h-2.5l3.2-10.4ZM61,595.2h2.1l-.2-.9c-.3-1-.5-2.3-.8-3.3h0c-.3,1.1-.5,2.3-.8,3.3l-.2.9Z"/>
          <path class="cls-2" d="M67.3,594.3c0-3.6,1.5-5.4,3.7-5.4s3.7,1.8,3.7,5.4-1.5,5.4-3.7,5.4-3.7-1.9-3.7-5.4ZM72.3,594.3c0-2.8-.6-3.5-1.3-3.5s-1.3.6-1.3,3.5.6,3.5,1.3,3.5,1.3-.7,1.3-3.5Z"/>
        </g>
        <g>
          <path class="cls-2" d="M61.8,619.7h3l3.2,10.4h-2.6l-.6-2.4h-3.1l-.6,2.4h-2.5l3.2-10.4ZM62.2,625.8h2.1l-.2-.9c-.3-1-.5-2.3-.8-3.3h0c-.3,1.1-.5,2.3-.8,3.3l-.2.9Z"/>
          <path class="cls-2" d="M69,628.1h2.2v-5.9h-1.9v-1.5c1.1-.2,1.8-.5,2.6-.9h1.8v8.4h1.9v2h-6.6v-2Z"/>
        </g>
        <g>
          <path class="cls-2" d="M63.1,650.2h3l3.2,10.4h-2.6l-.6-2.4h-3.1l-.6,2.4h-2.5l3.2-10.4ZM63.4,656.3h2.1l-.2-.9c-.3-1-.5-2.3-.8-3.3h0c-.3,1.1-.5,2.3-.8,3.3l-.2.9Z"/>
          <path class="cls-2" d="M69.7,659.1c2.7-2.3,4.4-4.2,4.4-5.6s-.5-1.5-1.4-1.5-1.3.5-1.8,1l-1.3-1.3c1-1.1,1.9-1.7,3.4-1.7s3.4,1.3,3.4,3.3-1.7,3.8-3.3,5.4c.5,0,1.2-.1,1.7-.1h2.1v2.1h-7.2v-1.5Z"/>
        </g>
        <g>
          <path class="cls-2" d="M64.3,680.7h3l3.2,10.4h-2.6l-.6-2.4h-3.1l-.6,2.4h-2.5l3.2-10.4ZM64.7,686.8h2.1l-.2-.9c-.3-1-.5-2.3-.8-3.3h0c-.3,1.1-.5,2.3-.8,3.3l-.2.9Z"/>
          <path class="cls-2" d="M70.7,689.9l1.1-1.6c.6.6,1.4,1,2.2,1s1.6-.4,1.6-1.2-.5-1.4-2.7-1.4v-1.8c1.8,0,2.3-.5,2.3-1.4s-.4-1.1-1.2-1.1-1.2.3-1.9.9l-1.2-1.5c.9-.8,2-1.3,3.2-1.3,2.2,0,3.6,1,3.6,2.9s-.6,1.8-1.7,2.3h0c1.2.4,2,1.2,2,2.6,0,2-1.8,3-3.8,3s-2.8-.6-3.6-1.4Z"/>
        </g>
        <g>
          <path class="cls-2" d="M65.5,711.2h3l3.2,10.4h-2.6l-.6-2.4h-3.1l-.6,2.4h-2.5l3.2-10.4ZM65.9,717.3h2.1l-.2-.9c-.3-1-.5-2.3-.8-3.3h0c-.3,1.1-.5,2.3-.8,3.3l-.2.9Z"/>
          <path class="cls-2" d="M76.3,719h-4.4v-1.7l3.6-6.1h3.1v5.9h1.2v1.9h-1.2v2.6h-2.3v-2.6ZM76.3,717.1v-1.5c0-.7,0-1.6,0-2.3h0c-.3.6-.5,1.2-.8,1.8l-1.2,2.1h2Z"/>
          <path class="cls-2" d="M83.4,710.2h1.6l-3.1,13.9h-1.6l3.1-13.9Z"/>
          <path class="cls-2" d="M86.1,720.3l1.3-1.6c.7.6,1.7,1,2.6,1s1.4-.4,1.4-.9-.6-.8-1.5-1.2l-1.3-.6c-1.1-.4-2.1-1.3-2.1-2.8s1.6-3.2,3.8-3.2,2.5.5,3.4,1.3l-1.3,1.6c-.7-.5-1.4-.8-2.1-.8s-1.3.3-1.3.8.7.8,1.6,1.2l1.3.5c1.3.5,2.1,1.4,2.1,2.8s-1.5,3.3-4,3.3-2.8-.5-3.9-1.5Z"/>
          <path class="cls-2" d="M95.6,711.2h3c3.2,0,5.3,1.6,5.3,5.2s-2.1,5.2-5.1,5.2h-3.1v-10.4ZM98.5,719.6c1.7,0,2.9-.8,2.9-3.2s-1.2-3.2-2.9-3.2h-.4v6.4h.4Z"/>
          <path class="cls-2" d="M107.6,711.2h3l3.2,10.4h-2.6l-.6-2.4h-3.1l-.6,2.4h-2.5l3.2-10.4ZM108,717.3h2.1l-.2-.9c-.3-1-.5-2.3-.8-3.3h0c-.3,1.1-.5,2.3-.8,3.3l-.2.9Z"/>
        </g>
        <g>
          <path class="cls-2" d="M66.8,738.6h3l3.2,10.4h-2.6l-.6-2.4h-3.1l-.6,2.4h-2.5l3.2-10.4ZM67.1,744.7h2.1l-.2-.9c-.3-1-.5-2.3-.8-3.3h0c-.3,1.1-.5,2.3-.8,3.3l-.2.9Z"/>
          <path class="cls-2" d="M73.2,747.8l1.1-1.6c.6.6,1.3,1,2.1,1s1.6-.6,1.6-1.6-.6-1.6-1.5-1.6-.9.1-1.5.5l-1.1-.7.3-5.2h5.8v2.1h-3.7v1.8c.2-.1.5-.2.9-.2,1.8,0,3.2,1,3.2,3.3s-1.8,3.7-3.8,3.7-2.8-.6-3.6-1.4Z"/>
          <path class="cls-2" d="M84.7,737.7h1.6l-3.1,13.9h-1.6l3.1-13.9Z"/>
          <path class="cls-2" d="M87.3,747.7l1.3-1.6c.7.6,1.7,1,2.6,1s1.4-.4,1.4-.9-.6-.8-1.5-1.2l-1.3-.6c-1.1-.4-2.1-1.3-2.1-2.8s1.6-3.2,3.8-3.2,2.5.5,3.4,1.3l-1.3,1.6c-.7-.5-1.4-.8-2.1-.8s-1.3.3-1.3.8.7.8,1.6,1.2l1.3.5c1.3.5,2.1,1.4,2.1,2.8s-1.5,3.3-4,3.3-2.8-.5-3.9-1.5Z"/>
          <path class="cls-2" d="M96.4,743.9c0-3.5,2.3-5.5,5-5.5s2.4.6,3.2,1.4l-1.3,1.5c-.5-.5-1.1-.7-1.8-.7-1.4,0-2.5,1.2-2.5,3.2s1,3.3,2.4,3.3,1.5-.3,2-.9l1.3,1.5c-.9,1-2.1,1.5-3.4,1.5-2.7,0-4.9-1.8-4.9-5.3Z"/>
          <path class="cls-2" d="M106.2,738.6h2.5v8.3h4v2.1h-6.5v-10.4Z"/>
        </g>
        <g>
          <path class="cls-2" d="M119.2,431.8v3.7c0,2.3-.8,4.2-3.4,4.2s-3.6-1.9-3.6-4.1v-1.2h-3.5v-2.5h10.4ZM114.2,435.4c0,1.2.6,1.8,1.6,1.8s1.4-.7,1.4-1.9v-1h-3v1.1Z"/>
          <path class="cls-2" d="M114,440.9c3.4,0,5.4,1.9,5.4,4.8s-2,4.8-5.4,4.8-5.4-1.9-5.4-4.8,2-4.8,5.4-4.8ZM114,447.9c2,0,3.2-.8,3.2-2.2s-1.2-2.2-3.2-2.2-3.3.9-3.3,2.2,1.3,2.2,3.3,2.2Z"/>
          <path class="cls-2" d="M119.2,451.4v2.5l-4.8.7c-1.1.1-2.2.3-3.3.4h0c1.1.3,2.2.5,3.3.7l4.8,1.1v2.1l-4.8,1.1c-1.1.2-2.2.4-3.3.6h0c1.2.2,2.3.3,3.3.4l4.8.7v2.4l-10.4-1.8v-3.2l4.6-.9c.8-.2,1.6-.3,2.5-.4h0c-.8-.2-1.6-.3-2.5-.5l-4.6-.9v-3.1l10.4-1.9Z"/>
          <path class="cls-2" d="M119.2,465.4v6.6h-2.1v-4.1h-2v3.5h-2.1v-3.5h-2.2v4.3h-2.1v-6.8h10.4Z"/>
          <path class="cls-2" d="M119.2,474.2v3.8c0,2.2-.8,4.1-3.3,4.1s-2.5-.7-3-1.8l-4.1,2.3v-2.8l3.7-1.9v-1.2h-3.7v-2.5h10.4ZM114.4,477.8c0,1.2.5,1.8,1.5,1.8s1.3-.6,1.3-1.8v-1.1h-2.8v1.1Z"/>
        </g>
        <g>
          <path class="cls-2" d="M119.2,634.1v3l-10.4,3.2v-2.6l2.4-.6v-3.1l-2.4-.6v-2.5l10.4,3.2ZM113.1,634.5v2.1l.9-.2c1-.3,2.3-.5,3.3-.8h0c-1.1-.3-2.3-.6-3.3-.9l-.9-.2Z"/>
          <path class="cls-2" d="M119.2,641.4v2.6l-5,2.6c-.7.4-1.5.7-2.4,1h0c1.1,0,2.6-.3,3.8-.3h3.5v2.4h-10.4v-2.6l5-2.6c.7-.4,1.5-.7,2.4-1h0c-1.2,0-2.6.3-3.8.3h-3.5v-2.4h10.4Z"/>
          <path class="cls-2" d="M119.2,654v3l-10.4,3.2v-2.6l2.4-.6v-3.1l-2.4-.6v-2.5l10.4,3.2ZM113.1,654.4v2.1l.9-.2c1-.3,2.3-.5,3.3-.8h0c-1.1-.3-2.3-.6-3.3-.9l-.9-.2Z"/>
          <path class="cls-2" d="M119.2,661.3v2.5h-8.3v4h-2.1v-6.5h10.4Z"/>
          <path class="cls-2" d="M114,668.6c3.4,0,5.4,1.9,5.4,4.8s-2,4.8-5.4,4.8-5.4-1.9-5.4-4.8,2-4.8,5.4-4.8ZM114,675.6c2,0,3.2-.8,3.2-2.2s-1.2-2.2-3.2-2.2-3.3.9-3.3,2.2,1.3,2.2,3.3,2.2Z"/>
          <path class="cls-2" d="M113.9,679.6c3.5,0,5.5,2.3,5.5,5.1s-.6,2.6-1.4,3.3l-1.5-1.3c.5-.5.7-1.1.7-1.9,0-1.5-1.2-2.7-3.2-2.7s-3.3.9-3.3,2.9,0,.8.3,1h1.7v-1.7h2v3.9h-4.9c-.7-.7-1.3-2-1.3-3.5,0-2.9,1.8-5.2,5.3-5.2Z"/>
          <path class="cls-2" d="M119.2,693.5v2.5h-10.4v-2.5h10.4Z"/>
          <path class="cls-2" d="M119.2,698.4v2.6l-5,2.6c-.7.4-1.5.7-2.4,1h0c1.1,0,2.6-.3,3.8-.3h3.5v2.4h-10.4v-2.6l5-2.6c.7-.4,1.5-.7,2.4-1h0c-1.2,0-2.6.3-3.8.3h-3.5v-2.4h10.4Z"/>
        </g>
        <rect class="cls-33" x="123.5" y="589.5" width="4.5" height="159.9" rx="2.3" ry="2.3"/>
        <rect class="cls-33" x="123.5" y="362.9" width="4.5" height="187.7" rx="2.3" ry="2.3"/>
        <g>
          <g>
            <polygon class="cls-31" points="292 739.4 288.4 739.4 288.3 739.4 284.7 739.4 276.3 747.9 276.3 781 284.7 789.4 288.3 789.4 288.4 789.4 292 789.4 300.5 781 300.5 747.9 292 739.4"/>
            <g>
              <rect class="cls-22" x="285.3" y="749" width="6.2" height="6.2"/>
              <rect class="cls-22" x="285.3" y="773.6" width="6.2" height="6.2"/>
            </g>
          </g>
          <g>
            <polygon class="cls-31" points="316.2 739.4 312.6 739.4 312.6 739.4 308.9 739.4 300.5 747.9 300.5 781 308.9 789.4 312.6 789.4 312.6 789.4 316.2 789.4 324.7 781 324.7 747.9 316.2 739.4"/>
            <g>
              <rect class="cls-22" x="309.5" y="749" width="6.2" height="6.2"/>
              <rect class="cls-22" x="309.5" y="773.6" width="6.2" height="6.2"/>
            </g>
          </g>
          <g>
            <polygon class="cls-31" points="340.4 739.4 336.8 739.4 336.8 739.4 333.1 739.4 324.7 747.9 324.7 781 333.1 789.4 336.8 789.4 336.8 789.4 340.4 789.4 348.9 781 348.9 747.9 340.4 739.4"/>
            <g>
              <rect class="cls-22" x="333.7" y="749" width="6.2" height="6.2"/>
              <rect class="cls-22" x="333.7" y="773.6" width="6.2" height="6.2"/>
            </g>
          </g>
        </g>
        <path class="cls-33" d="M270.2,728c-1.3,0-2.3,1-2.3,2.3v58.5c0,1.3,1,2.3,2.3,2.3h0c1.3,0,2.3-1,2.3-2.3v-53.9c0-1.3,1-2.3,2.3-2.3h75.6c1.3,0,2.3,1,2.3,2.3v53.9c0,1.3,1,2.3,2.3,2.3h0c1.3,0,2.3-1,2.3-2.3v-58.5c0-1.3-1-2.3-2.3-2.3h-84.7Z"/>
        <rect class="cls-33" x="464.8" y="353.3" width="4.5" height="394.7" rx="2.3" ry="2.3"/>
        <g>
          <path class="cls-2" d="M486.2,494.9v3c0,3.2-1.6,5.3-5.2,5.3s-5.2-2.1-5.2-5.1v-3.1h10.4ZM477.8,497.8c0,1.7.8,2.9,3.2,2.9s3.2-1.2,3.2-2.9v-.4h-6.4v.4Z"/>
          <path class="cls-2" d="M486.2,505.1v2.5h-10.4v-2.5h10.4Z"/>
          <path class="cls-2" d="M481,509.5c3.5,0,5.5,2.3,5.5,5.1s-.6,2.6-1.4,3.3l-1.5-1.3c.5-.5.7-1.1.7-1.9,0-1.5-1.2-2.7-3.2-2.7s-3.3.9-3.3,2.9,0,.8.3,1h1.7v-1.7h2v3.9h-4.9c-.7-.7-1.3-2-1.3-3.5,0-2.9,1.8-5.2,5.3-5.2Z"/>
          <path class="cls-2" d="M486.2,520.3v2.5h-10.4v-2.5h10.4Z"/>
          <path class="cls-2" d="M484.2,527.2v-2.8h2.1v8.1h-2.1v-2.8h-8.3v-2.5h8.3Z"/>
          <path class="cls-2" d="M486.2,535.4v3l-10.4,3.2v-2.6l2.4-.6v-3.1l-2.4-.6v-2.5l10.4,3.2ZM480.1,535.8v2.1l.9-.2c1-.3,2.3-.5,3.3-.8h0c-1.1-.3-2.3-.6-3.3-.9l-.9-.2Z"/>
          <path class="cls-2" d="M486.2,542.7v2.5h-8.3v4h-2.1v-6.5h10.4Z"/>
          <path class="cls-2" d="M480.3,554.2c2.8,0,5.1.8,7.3,2.1l-.6,1.6c-2.1-1.2-4.4-1.7-6.7-1.7s-4.6.5-6.7,1.7l-.6-1.6c2.2-1.3,4.5-2.1,7.3-2.1Z"/>
          <path class="cls-2" d="M486.2,559.8v3.7c0,2.3-.8,4.2-3.4,4.2s-3.6-1.9-3.6-4.1v-1.2h-3.5v-2.5h10.4ZM481.2,563.4c0,1.2.6,1.8,1.6,1.8s1.4-.7,1.4-1.9v-1h-3v1.1Z"/>
          <path class="cls-2" d="M486.2,568.4v2.5l-4.8.7c-1.1.1-2.2.3-3.3.4h0c1.1.3,2.2.5,3.3.7l4.8,1.1v2.1l-4.8,1.1c-1.1.2-2.2.4-3.3.6h0c1.2.2,2.3.3,3.3.4l4.8.7v2.4l-10.4-1.8v-3.2l4.6-.9c.8-.2,1.6-.3,2.5-.4h0c-.8-.2-1.6-.3-2.5-.5l-4.6-.9v-3.1l10.4-1.9Z"/>
          <path class="cls-2" d="M486.2,582.5v2.7l-4.5,1.6c-.6.2-1.2.4-1.9.6h0c.7.3,1.3.4,1.9.6l4.5,1.6v2.7h-10.4v-2.3h3.6c1,0,2.8.2,3.8.3h0c0,0-2.7-.9-2.7-.9l-3.8-1.4v-1.4l3.8-1.4,2.7-.8h0c-1,0-2.8.3-3.8.3h-3.6v-2.2h10.4Z"/>
          <path class="cls-2" d="M480.8,596.4c0-.4-.4-.8-.9-1.1l1-1.3c1.2.8,1.7,1.6,1.7,2.4,0,1.3-1.2,1.9-1.2,2.8s.4.8.9,1.1l-1,1.3c-1.2-.8-1.7-1.6-1.7-2.4,0-1.3,1.2-1.9,1.2-2.8Z"/>
          <path class="cls-2" d="M473.6,602.8c2.1,1.2,4.4,1.7,6.7,1.7s4.6-.5,6.7-1.7l.6,1.6c-2.2,1.3-4.5,2.1-7.3,2.1s-5.1-.8-7.3-2.1l.6-1.6Z"/>
        </g>
        <g>
          <rect class="cls-11" x="558.7" y="523.3" width="33.4" height="240.9"/>
          <rect x="565.6" y="526" width="19.6" height="19.6"/>
          <rect x="565.6" y="556.5" width="19.6" height="19.6"/>
          <rect x="565.6" y="587" width="19.6" height="19.6"/>
          <rect x="565.6" y="617.5" width="19.6" height="19.6"/>
          <rect x="565.6" y="648.1" width="19.6" height="19.6"/>
          <rect x="565.6" y="678.6" width="19.6" height="19.6"/>
          <rect x="565.6" y="709.1" width="19.6" height="19.6"/>
          <rect x="565.6" y="739.6" width="19.6" height="19.6"/>
        </g>
        <g>
          <rect class="cls-11" x="558.7" y="220.1" width="33.4" height="301.1"/>
          <rect x="565.6" y="284.7" width="19.6" height="19.6"/>
          <rect x="565.6" y="315.3" width="19.6" height="19.6"/>
          <rect x="565.6" y="345.8" width="19.6" height="19.6"/>
          <rect x="565.6" y="376.3" width="19.6" height="19.6"/>
          <rect x="565.6" y="406.8" width="19.6" height="19.6"/>
          <rect x="565.6" y="437.3" width="19.6" height="19.6"/>
          <rect x="565.6" y="467.8" width="19.6" height="19.6"/>
          <rect x="565.6" y="498.3" width="19.6" height="19.6"/>
          <rect x="565.6" y="254.2" width="19.6" height="19.6"/>
          <rect x="565.6" y="224" width="19.6" height="19.6"/>
        </g>
        <g>
          <g>
            <path class="cls-2" d="M508.5,229h3l3.2,10.4h-2.6l-.6-2.4h-3.1l-.6,2.4h-2.5l3.2-10.4ZM508.9,235.1h2.1l-.2-.9c-.3-1-.5-2.3-.8-3.3h0c-.3,1.1-.5,2.3-.8,3.3l-.2.9Z"/>
            <path class="cls-2" d="M514.9,238.2l1.1-1.6c.6.6,1.3,1,2.1,1s1.6-.6,1.6-1.6-.6-1.6-1.5-1.6-.9.1-1.5.5l-1.1-.7.3-5.2h5.8v2.1h-3.7v1.8c.2-.1.5-.2.9-.2,1.8,0,3.2,1,3.2,3.3s-1.8,3.7-3.8,3.7-2.8-.6-3.6-1.4Z"/>
            <path class="cls-2" d="M526.4,228h1.6l-3.1,13.9h-1.6l3.1-13.9Z"/>
            <path class="cls-2" d="M529,238.1l1.3-1.6c.7.6,1.7,1,2.6,1s1.4-.4,1.4-.9-.6-.8-1.5-1.2l-1.3-.6c-1.1-.4-2.1-1.3-2.1-2.8s1.6-3.2,3.8-3.2,2.5.5,3.4,1.3l-1.3,1.6c-.7-.5-1.4-.8-2.1-.8s-1.3.3-1.3.8.7.8,1.6,1.2l1.3.5c1.3.5,2.1,1.4,2.1,2.8s-1.5,3.3-4,3.3-2.8-.5-3.9-1.5Z"/>
            <path class="cls-2" d="M538.1,234.3c0-3.5,2.3-5.5,5-5.5s2.4.6,3.2,1.4l-1.3,1.5c-.5-.5-1.1-.7-1.8-.7-1.4,0-2.5,1.2-2.5,3.2s1,3.3,2.4,3.3,1.5-.3,2-.9l1.3,1.5c-.9,1-2.1,1.5-3.4,1.5-2.7,0-4.9-1.8-4.9-5.3Z"/>
            <path class="cls-2" d="M547.9,229h2.5v8.3h4v2.1h-6.5v-10.4Z"/>
          </g>
          <g>
            <path class="cls-2" d="M506.3,259.2h3l3.2,10.4h-2.6l-.6-2.4h-3.1l-.6,2.4h-2.5l3.2-10.4ZM506.7,265.3h2.1l-.2-.9c-.3-1-.5-2.3-.8-3.3h0c-.3,1.1-.5,2.3-.8,3.3l-.2.9Z"/>
            <path class="cls-2" d="M517.1,267.1h-4.4v-1.7l3.6-6.1h3.1v5.9h1.2v1.9h-1.2v2.6h-2.3v-2.6ZM517.1,265.2v-1.5c0-.7,0-1.6,0-2.3h0c-.3.6-.5,1.2-.8,1.8l-1.2,2.1h2Z"/>
            <path class="cls-2" d="M524.3,258.3h1.6l-3.1,13.9h-1.6l3.1-13.9Z"/>
            <path class="cls-2" d="M526.9,268.3l1.3-1.6c.7.6,1.7,1,2.6,1s1.4-.4,1.4-.9-.6-.8-1.5-1.2l-1.3-.6c-1.1-.4-2.1-1.3-2.1-2.8s1.6-3.2,3.8-3.2,2.5.5,3.4,1.3l-1.3,1.6c-.7-.5-1.4-.8-2.1-.8s-1.3.3-1.3.8.7.8,1.6,1.2l1.3.5c1.3.5,2.1,1.4,2.1,2.8s-1.5,3.3-4,3.3-2.8-.5-3.9-1.5Z"/>
            <path class="cls-2" d="M536.5,259.2h3c3.2,0,5.3,1.6,5.3,5.2s-2.1,5.2-5.1,5.2h-3.1v-10.4ZM539.3,267.6c1.7,0,2.9-.8,2.9-3.2s-1.2-3.2-2.9-3.2h-.4v6.4h.4Z"/>
            <path class="cls-2" d="M548.4,259.2h3l3.2,10.4h-2.6l-.6-2.4h-3.1l-.6,2.4h-2.5l3.2-10.4ZM548.8,265.3h2.1l-.2-.9c-.3-1-.5-2.3-.8-3.3h0c-.3,1.1-.5,2.3-.8,3.3l-.2.9Z"/>
          </g>
          <g>
            <path class="cls-2" d="M520.7,289.7h3l3.2,10.4h-2.6l-.6-2.4h-3.1l-.6,2.4h-2.5l3.2-10.4ZM521.1,295.8h2.1l-.2-.9c-.3-1-.5-2.3-.8-3.3h0c-.3,1.1-.5,2.3-.8,3.3l-.2.9Z"/>
            <path class="cls-2" d="M528,289.7h3.8c2.2,0,4.1.8,4.1,3.3s-.7,2.5-1.8,3l2.3,4.1h-2.8l-1.9-3.7h-1.2v3.7h-2.5v-10.4ZM531.6,294.5c1.2,0,1.8-.5,1.8-1.5s-.6-1.3-1.8-1.3h-1.1v2.8h1.1Z"/>
            <path class="cls-2" d="M537.9,289.7h6.6v2.1h-4.1v2h3.5v2.1h-3.5v2.2h4.3v2.1h-6.8v-10.4Z"/>
            <path class="cls-2" d="M546.7,289.7h6.7v2.1h-4.2v2.3h3.6v2.1h-3.6v4h-2.5v-10.4Z"/>
          </g>
          <g>
            <path class="cls-2" d="M523,325.5c0-3.5,2.3-5.5,5.1-5.5s2.6.6,3.3,1.4l-1.3,1.5c-.5-.5-1.1-.7-1.9-.7-1.5,0-2.7,1.2-2.7,3.2s.9,3.3,2.9,3.3.8,0,1-.3v-1.7h-1.7v-2h3.9v4.9c-.7.7-2,1.3-3.5,1.3-2.9,0-5.2-1.8-5.2-5.3Z"/>
            <path class="cls-2" d="M533.7,320.3h2.6l2.6,5c.4.7.7,1.5,1,2.4h0c-.1-1.1-.3-2.6-.3-3.8v-3.5h2.4v10.4h-2.6l-2.6-5c-.4-.7-.7-1.5-1-2.4h0c.1,1.2.3,2.6.3,3.8v3.5h-2.4v-10.4Z"/>
            <path class="cls-2" d="M544.4,320.3h3c3.2,0,5.3,1.6,5.3,5.2s-2.1,5.2-5.1,5.2h-3.1v-10.4ZM547.2,328.7c1.7,0,2.9-.8,2.9-3.2s-1.2-3.2-2.9-3.2h-.4v6.4h.4Z"/>
          </g>
          <g>
            <path class="cls-2" d="M495,359.2h2.2v-5.9h-1.9v-1.5c1.1-.2,1.8-.5,2.6-.9h1.8v8.4h1.9v2h-6.6v-2Z"/>
            <path class="cls-2" d="M502.7,359.9l1.1-1.6c.6.6,1.4,1,2.2,1s1.6-.4,1.6-1.2-.5-1.4-2.7-1.4v-1.8c1.8,0,2.3-.5,2.3-1.4s-.4-1.1-1.2-1.1-1.2.3-1.9.9l-1.2-1.5c.9-.8,2-1.3,3.2-1.3,2.2,0,3.6,1,3.6,2.9s-.6,1.8-1.7,2.3h0c1.2.4,2,1.2,2,2.6,0,2-1.8,3-3.8,3s-2.8-.6-3.6-1.4Z"/>
            <path class="cls-2" d="M514.2,349.8h1.6l-3.1,13.9h-1.6l3.1-13.9Z"/>
            <path class="cls-2" d="M516.8,359.9l1.3-1.6c.7.6,1.7,1,2.6,1s1.4-.4,1.4-.9-.6-.8-1.5-1.2l-1.3-.6c-1.1-.4-2.1-1.3-2.1-2.8s1.6-3.2,3.8-3.2,2.5.5,3.4,1.3l-1.3,1.6c-.7-.5-1.4-.8-2.1-.8s-1.3.3-1.3.8.7.8,1.6,1.2l1.3.5c1.3.5,2.1,1.4,2.1,2.8s-1.5,3.3-4,3.3-2.8-.5-3.9-1.5Z"/>
            <path class="cls-2" d="M525.9,356c0-3.5,2.3-5.5,5-5.5s2.4.6,3.2,1.4l-1.3,1.5c-.5-.5-1.1-.7-1.8-.7-1.4,0-2.5,1.2-2.5,3.2s1,3.3,2.4,3.3,1.5-.3,2-.9l1.3,1.5c-.9,1-2.1,1.5-3.4,1.5-2.7,0-4.9-1.8-4.9-5.3Z"/>
            <path class="cls-2" d="M535.7,350.8h2.5v8.3h4v2.1h-6.5v-10.4Z"/>
            <path class="cls-2" d="M544.1,350.8h2.5v4.1h0l3-4.1h2.7l-3.1,4.2,3.7,6.2h-2.7l-2.5-4.3-1.1,1.5v2.7h-2.5v-10.4Z"/>
          </g>
          <g>
            <path class="cls-2" d="M493.8,389.7h2.2v-5.9h-1.9v-1.5c1.1-.2,1.8-.5,2.6-.9h1.8v8.4h1.9v2h-6.6v-2Z"/>
            <path class="cls-2" d="M501.8,390.2c2.7-2.3,4.4-4.2,4.4-5.6s-.5-1.5-1.4-1.5-1.3.5-1.8,1l-1.3-1.3c1-1.1,1.9-1.7,3.4-1.7s3.4,1.3,3.4,3.3-1.7,3.8-3.3,5.4c.5,0,1.2-.1,1.7-.1h2.1v2.1h-7.2v-1.5Z"/>
            <path class="cls-2" d="M513.1,380.3h1.6l-3.1,13.9h-1.6l3.1-13.9Z"/>
            <path class="cls-2" d="M516.3,381.3h2.7l1.6,4.5c.2.6.4,1.2.6,1.9h0c.2-.7.4-1.3.6-1.9l1.6-4.5h2.7v10.4h-2.3v-3.6c0-1,.2-2.8.3-3.8h0l-.9,2.7-1.4,3.8h-1.4l-1.4-3.8-.8-2.7h0c.1,1,.3,2.8.3,3.8v3.6h-2.2v-10.4Z"/>
            <path class="cls-2" d="M528.6,381.3h2.5v10.4h-2.5v-10.4Z"/>
            <path class="cls-2" d="M532.8,390.4l1.3-1.6c.7.6,1.7,1,2.6,1s1.4-.4,1.4-.9-.6-.8-1.5-1.2l-1.3-.6c-1.1-.4-2.1-1.3-2.1-2.8s1.6-3.2,3.8-3.2,2.5.5,3.4,1.3l-1.3,1.6c-.7-.5-1.4-.8-2.1-.8s-1.3.3-1.3.8.7.8,1.6,1.2l1.3.5c1.3.5,2.1,1.4,2.1,2.8s-1.5,3.3-4,3.3-2.8-.5-3.9-1.5Z"/>
            <path class="cls-2" d="M541.9,386.4c0-3.4,1.9-5.4,4.8-5.4s4.8,2,4.8,5.4-1.9,5.4-4.8,5.4-4.8-2-4.8-5.4ZM548.9,386.4c0-2-.8-3.2-2.2-3.2s-2.2,1.2-2.2,3.2.9,3.3,2.2,3.3,2.2-1.3,2.2-3.3Z"/>
          </g>
          <g>
            <path class="cls-2" d="M486.5,417.2c-.4,0-.8.4-1.1.9l-1.3-1c.8-1.2,1.6-1.7,2.4-1.7,1.3,0,1.9,1.2,2.8,1.2s.8-.4,1.1-.9l1.3,1c-.8,1.2-1.6,1.7-2.4,1.7-1.3,0-1.9-1.2-2.8-1.2Z"/>
            <path class="cls-2" d="M493.2,420.2h2.2v-5.9h-1.9v-1.5c1.1-.2,1.8-.5,2.6-.9h1.8v8.4h1.9v2h-6.6v-2Z"/>
            <path class="cls-2" d="M501.8,420.2h2.2v-5.9h-1.9v-1.5c1.1-.2,1.8-.5,2.6-.9h1.8v8.4h1.9v2h-6.6v-2Z"/>
            <path class="cls-2" d="M512.5,410.8h1.6l-3.1,13.9h-1.6l3.1-13.9Z"/>
            <path class="cls-2" d="M515.8,411.8h2.7l1.6,4.5c.2.6.4,1.2.6,1.9h0c.2-.7.4-1.3.6-1.9l1.6-4.5h2.7v10.4h-2.3v-3.6c0-1,.2-2.8.3-3.8h0l-.9,2.7-1.4,3.8h-1.4l-1.4-3.8-.8-2.7h0c.1,1,.3,2.8.3,3.8v3.6h-2.2v-10.4Z"/>
            <path class="cls-2" d="M527.5,417c0-3.4,1.9-5.4,4.8-5.4s4.8,2,4.8,5.4-1.9,5.4-4.8,5.4-4.8-2-4.8-5.4ZM534.5,417c0-2-.8-3.2-2.2-3.2s-2.2,1.2-2.2,3.2.9,3.3,2.2,3.3,2.2-1.3,2.2-3.3Z"/>
            <path class="cls-2" d="M538.4,420.9l1.3-1.6c.7.6,1.7,1,2.6,1s1.4-.4,1.4-.9-.6-.8-1.5-1.2l-1.3-.6c-1.1-.4-2.1-1.3-2.1-2.8s1.6-3.2,3.8-3.2,2.5.5,3.4,1.3l-1.3,1.6c-.7-.5-1.4-.8-2.1-.8s-1.3.3-1.3.8.7.8,1.6,1.2l1.3.5c1.3.5,2.1,1.4,2.1,2.8s-1.5,3.3-4,3.3-2.8-.5-3.9-1.5Z"/>
            <path class="cls-2" d="M547.9,411.8h2.5v10.4h-2.5v-10.4Z"/>
          </g>
          <g>
            <path class="cls-2" d="M528.4,447.7c-.4,0-.8.4-1.1.9l-1.3-1c.8-1.2,1.6-1.7,2.4-1.7,1.3,0,1.9,1.2,2.8,1.2s.8-.4,1.1-.9l1.3,1c-.8,1.2-1.6,1.7-2.4,1.7-1.3,0-1.9-1.2-2.8-1.2Z"/>
            <path class="cls-2" d="M535.1,450.7h2.2v-5.9h-1.9v-1.5c1.1-.2,1.8-.5,2.6-.9h1.8v8.4h1.9v2h-6.6v-2Z"/>
            <path class="cls-2" d="M543.1,447.5c0-3.6,1.5-5.4,3.7-5.4s3.7,1.8,3.7,5.4-1.5,5.4-3.7,5.4-3.7-1.9-3.7-5.4ZM548.2,447.5c0-2.8-.6-3.5-1.3-3.5s-1.3.6-1.3,3.5.6,3.5,1.3,3.5,1.3-.7,1.3-3.5Z"/>
          </g>
          <g>
            <path class="cls-2" d="M536.3,478.2c-.4,0-.8.4-1.1.9l-1.3-1c.8-1.2,1.6-1.7,2.4-1.7,1.3,0,1.9,1.2,2.8,1.2s.8-.4,1.1-.9l1.3,1c-.8,1.2-1.6,1.7-2.4,1.7-1.3,0-1.9-1.2-2.8-1.2Z"/>
            <path class="cls-2" d="M542.6,482.2l1.3-1.5c.3.4,1,.7,1.6.7,1.1,0,1.9-.8,2-3-.5.7-1.4,1-2,1-1.7,0-3-1-3-3.3s1.6-3.5,3.4-3.5,3.9,1.5,3.9,5.3-2,5.5-4.1,5.5-2.4-.6-3.1-1.2ZM546,477.7c.5,0,1.1-.3,1.5-.9-.2-1.8-.8-2.3-1.5-2.3s-1.2.5-1.2,1.7.5,1.5,1.2,1.5Z"/>
          </g>
          <path class="cls-2" d="M542.1,511.2c0-1.3.7-2.1,1.7-2.6h0c-.8-.7-1.4-1.5-1.4-2.6,0-1.7,1.4-2.8,3.3-2.8s3.1,1.1,3.1,2.8-.6,1.8-1.3,2.3h0c1,.6,1.8,1.5,1.8,2.9s-1.5,2.8-3.6,2.8-3.6-1.1-3.6-2.8ZM547,511c0-.9-.8-1.3-2.1-1.9-.4.4-.7,1-.7,1.7s.7,1.4,1.5,1.4,1.3-.4,1.3-1.2ZM546.8,506.1c0-.8-.4-1.2-1.2-1.2s-1.1.4-1.1,1.1.6,1.3,1.7,1.7c.4-.5.6-1,.6-1.5Z"/>
          <path class="cls-2" d="M546,533.1h-4.5v-2.1h7.1v1.5c-2.4,2.9-2.7,4.8-2.8,8.9h-2.5c.2-3.4.7-5.6,2.7-8.3Z"/>
          <g>
            <path class="cls-2" d="M534.6,566.9c-.4,0-.8.4-1.1.9l-1.3-1c.8-1.2,1.6-1.7,2.4-1.7,1.3,0,1.9,1.2,2.8,1.2s.8-.4,1.1-.9l1.3,1c-.8,1.2-1.6,1.7-2.4,1.7-1.3,0-1.9-1.2-2.8-1.2Z"/>
            <path class="cls-2" d="M540.9,566.8c0-3.8,2-5.5,4.1-5.5s2.4.6,3,1.2l-1.3,1.5c-.4-.4-1-.7-1.6-.7-1.1,0-1.9.8-2,3,.5-.6,1.4-1,2-1,1.7,0,3,1,3,3.3s-1.6,3.5-3.4,3.5-3.9-1.5-3.9-5.3ZM543.2,568c.2,1.7.9,2.2,1.5,2.2s1.2-.5,1.2-1.7-.6-1.5-1.3-1.5-1.1.3-1.5,1Z"/>
          </g>
          <g>
            <path class="cls-2" d="M534,597.4c-.4,0-.8.4-1.1.9l-1.3-1c.8-1.2,1.6-1.7,2.4-1.7,1.3,0,1.9,1.2,2.8,1.2s.8-.4,1.1-.9l1.3,1c-.8,1.2-1.6,1.7-2.4,1.7-1.3,0-1.9-1.2-2.8-1.2Z"/>
            <path class="cls-2" d="M540,601.2l1.1-1.6c.6.6,1.3,1,2.1,1s1.6-.6,1.6-1.6-.6-1.6-1.5-1.6-.9.1-1.5.5l-1.1-.7.3-5.2h5.8v2.1h-3.7v1.8c.2-.1.5-.2.9-.2,1.8,0,3.2,1,3.2,3.3s-1.8,3.7-3.8,3.7-2.8-.6-3.6-1.4Z"/>
          </g>
          <path class="cls-2" d="M543.8,630.4h-4.4v-1.7l3.6-6.1h3.1v5.9h1.2v1.9h-1.2v2.6h-2.3v-2.6ZM543.8,628.5v-1.5c0-.7,0-1.6,0-2.3h0c-.3.6-.5,1.2-.8,1.8l-1.2,2.1h2Z"/>
          <g>
            <path class="cls-2" d="M532.9,658.5c-.4,0-.8.4-1.1.9l-1.3-1c.8-1.2,1.6-1.7,2.4-1.7,1.3,0,1.9,1.2,2.8,1.2s.8-.4,1.1-.9l1.3,1c-.8,1.2-1.6,1.7-2.4,1.7-1.3,0-1.9-1.2-2.8-1.2Z"/>
            <path class="cls-2" d="M538.9,662.2l1.1-1.6c.6.6,1.4,1,2.2,1s1.6-.4,1.6-1.2-.5-1.4-2.7-1.4v-1.8c1.8,0,2.3-.5,2.3-1.4s-.4-1.1-1.2-1.1-1.2.3-1.9.9l-1.2-1.5c.9-.8,2-1.3,3.2-1.3,2.2,0,3.6,1,3.6,2.9s-.6,1.8-1.7,2.3h0c1.2.4,2,1.2,2,2.6,0,2-1.8,3-3.8,3s-2.8-.6-3.6-1.4Z"/>
          </g>
          <path class="cls-2" d="M538.5,692.4c2.7-2.3,4.4-4.2,4.4-5.6s-.5-1.5-1.4-1.5-1.3.5-1.8,1l-1.3-1.3c1-1.1,1.9-1.7,3.4-1.7s3.4,1.3,3.4,3.3-1.7,3.8-3.3,5.4c.5,0,1.2-.1,1.7-.1h2.1v2.1h-7.2v-1.5Z"/>
          <g>
            <path class="cls-2" d="M508.8,717.1h-2.8v-2.1h8.1v2.1h-2.8v8.3h-2.5v-8.3Z"/>
            <path class="cls-2" d="M517.2,720l-2.7-5.1h2.8l.8,1.9c.2.5.5,1,.8,1.7h0c.2-.7.5-1.2.7-1.7l.8-1.9h2.6l-2.7,5.2,2.9,5.2h-2.8l-1-2c-.3-.5-.5-1.1-.8-1.7h0c-.2.6-.5,1.2-.7,1.7l-.9,2h-2.7l2.9-5.4Z"/>
            <path class="cls-2" d="M537.1,720.1l-5,5c-.4.4-1,.4-1.4,0s-.4-1,0-1.4l3.3-3.3h-9.6c-.6,0-1-.4-1-1s.4-1,1-1h9.6l-3.3-3.3c-.4-.4-.4-1,0-1.4.4-.4,1-.4,1.4,0l5,5c.4.4.4,1,0,1.4h0Z"/>
            <path class="cls-2" d="M538.5,723.4h2.2v-5.9h-1.9v-1.5c1.1-.2,1.8-.5,2.6-.9h1.8v8.4h1.9v2h-6.6v-2Z"/>
          </g>
          <g>
            <path class="cls-2" d="M505.1,745.5h3.8c2.2,0,4.1.8,4.1,3.3s-.7,2.5-1.8,3l2.3,4.1h-2.8l-1.9-3.7h-1.2v3.7h-2.5v-10.4ZM508.7,750.3c1.2,0,1.8-.5,1.8-1.5s-.6-1.3-1.8-1.3h-1.1v2.8h1.1Z"/>
            <path class="cls-2" d="M516.6,750.5l-2.7-5.1h2.8l.8,1.9c.2.5.5,1,.8,1.7h0c.2-.7.5-1.2.7-1.7l.8-1.9h2.6l-2.7,5.2,2.9,5.2h-2.8l-1-2c-.3-.5-.5-1.1-.8-1.7h0c-.2.6-.5,1.2-.7,1.7l-.9,2h-2.7l2.9-5.4Z"/>
            <path class="cls-2" d="M523.1,749.2l5-5c.4-.4,1-.4,1.4,0s.4,1,0,1.4l-3.3,3.3h9.6c.6,0,1,.4,1,1s-.4,1-1,1h-9.6l3.3,3.3c.4.4.4,1,0,1.4s-1,.4-1.4,0l-5-5c-.4-.4-.4-1,0-1.4h0Z"/>
            <path class="cls-2" d="M537.4,750.7c0-3.6,1.5-5.4,3.7-5.4s3.7,1.8,3.7,5.4-1.5,5.4-3.7,5.4-3.7-1.9-3.7-5.4ZM542.4,750.7c0-2.8-.6-3.5-1.3-3.5s-1.3.6-1.3,3.5.6,3.5,1.3,3.5,1.3-.7,1.3-3.5Z"/>
          </g>
        </g>
        <g>
          <rect class="cls-6" x="396" y="330.7" width="10.7" height="17.2"/>
          <rect class="cls-15" x="396" y="333.2" width="10.7" height="11.8"/>
        </g>
      </g>
      <g id="layer1-9">
        <rect id="rect815-0" x="736.5" y="478.6" width="326.4" height="258.6"/>
        <rect id="rect821-7" class="cls-2" x="741.4" y="544.9" width="26.1" height="126.1"/>
        <rect id="rect825-2" class="cls-27" x="743" y="595.6" width="22.9" height="24.7" rx="4.8" ry="4.8"/>
        <rect id="rect872-9" class="cls-27" x="743" y="646" width="22.9" height="24.7" rx="4.8" ry="4.8"/>
        <rect id="rect874-4" class="cls-27" x="743" y="620.8" width="22.9" height="24.7" rx="4.2" ry="4.2"/>
        <rect id="rect947-8" class="cls-18" x="707.5" y="606.6" width="46.9" height="2.7"/>
        <rect id="rect949-5" class="cls-18" x="707.5" y="631.9" width="46.9" height="2.7"/>
        <rect id="rect951-3" class="cls-18" x="707.5" y="657" width="46.9" height="2.7"/>
        <path id="path31-1-7" class="cls-2" d="M1044.1,614.5c0,1.2,0,1.3.2,1.5,0,.2.2.3.4.4.2.1.4.1,2.8.2h2.6s0,2.6,0,2.6v2.5s-3.3,0-3.3,0c-3.6,0-3.9,0-4.8-.4-1.2-.4-2-1.4-2.1-2.7-.1-.8-.2-1.5-.1-2.3,0-1,0-2.1,0-2.5v-.6c0,0,2.2,0,2.2,0h2.1s0,1.3,0,1.3h0ZM1036.8,638.8c0,21.7,0,27.1-.1,26.2h0c0-.1,0,0,0,0,0,.1,0,0,0-.1,0-.2,0,0,0,.2v.5s0-.5,0-.5c0-.2,0-.4,0-.3,0,.1-.1.1-.6.1s-.6,0-.6.2c0,.1,0,.1,0-.1,0-.2,0-.3,0-.3s0-8.6,0-25.7v-25.7h.9s.9,0,.9,0v25.6ZM1056.8,619.2v2.6s-2.1,0-2.1,0h-2.1s0-2.6,0-2.6v-2.6s2.1,0,2.1,0h2.1s0,2.6,0,2.6ZM1049,624.4c1.1.2,2.2.5,3.2,1,.2.1.4.2.7.4.1.1.3.2.4.3.5.3.9.6,1.3,1,0,0,0,0,.1,0,.4.3.7.7,1,1.1.4.6.7,1.2,1,1.9.4,1,.6,2,.5,3.1,0,.6,0,1.2-.2,1.8-.1.4-.3.8-.3,1,0,.1-.1.3-.1.4,0,.2-.2.4-.3.6-1,1.5-2.4,2.7-4.1,3.6-2,1-4.4,1.1-6.6.4-.7-.2-1.4-.6-2-.9-.7-.4-1.3-.9-1.8-1.5-1.1-1-1.8-2.3-2.1-3.7-.2-1.1-.3-2.2-.2-3.2.2-1.3.7-2.5,1.5-3.5.3-.4.6-.8,1-1.1.1-.1.3-.2.4-.4,1.2-1.1,2.7-1.8,4.3-2.2.8-.1,1.7-.2,2.5-.2ZM1046.8,629.3c-1,.2-1.9.8-2.5,1.5-.8.8-1,2-.7,3.1.6,1.4,1.8,2.4,3.2,2.7,1,.2,1.9.2,2.9,0,1.1-.3,2-.9,2.7-1.8.2-.3.4-.6.4-1,.2-.8,0-1.6-.2-2.4-.5-.7-1.1-1.3-1.9-1.6-1.2-.6-2.6-.8-3.9-.4h0ZM1056.7,643.8s0,1.2,0,2.6v2.5s-2.3,0-2.3,0c-2.2,0-2.3,0-2.7.2-1,.4-1.5,1.5-1.2,2.6.2.5.5.9,1,1.1l.4.2h2.4s2.4,0,2.4,0v2.6s0,2.6,0,2.6h-2.7c-1.1,0-2.2,0-3.3-.2-1-.3-1.9-.7-2.7-1.3-.1-.1-.2-.2-.4-.3-.4-.4-.8-.8-1.1-1.2-.4-.5-.6-1-.8-1.5,0-.1-.1-.5-.2-.8-.2-.6-.2-1.2-.2-1.8,0-.7,0-1.3.2-1.9.2-.7.5-1.4.9-2,.5-.8,1.2-1.4,2-2,1-.7,2.1-1.1,3.3-1.2,1.7-.1,3.3,0,5,0h0ZM1044,650.9v4.2s-2.2,0-2.2,0h-2.2s0-4.2,0-4.2v-4.2s2.2,0,2.2,0h2.2s0,4.2,0,4.2ZM1060.1,658.1s.1,0,.3,0c.3,0,.3,0,.3.3,0,.2,0,7.3,0,15.8v15.5h-.9s-.9,0-.9,0v-15.8c0-8.7,0-15.8,0-15.9,0,0,.2-.1.6-.1.3,0,.6,0,.6,0h0ZM1049.7,665.2v5.3s-2.1,0-2.1,0h-2.1s0-5.3,0-5.3v-5.3s2.1,0,2.1,0h2.1s0,5.3,0,5.3ZM1056.8,674.8v2.6s-2.1,0-2.1,0h-2.1s0-2.6,0-2.6v-2.6s2.1,0,2.1,0h2.1s0,2.6,0,2.6ZM1050.3,674.8v2.6s-5.4,0-5.4,0h-5.4s0-2.6,0-2.6v-2.6s5.4,0,5.4,0h5.4s0,2.6,0,2.6ZM1056.8,685v5.4s-2.1,0-2.1,0h-2.1s0-5.4,0-5.4v-5.4s2.1,0,2.1,0h2.1s0,5.4,0,5.4ZM1050,680.5s0,1.2,0,2.5v2.5s-2.5,0-2.5,0c-3.5,0-3.3-.1-3.3,2.5v1.6s-2.2,0-2.2,0h-2.2s0-.6,0-.6c-.1-1.6-.1-3.1,0-4.7,0-1.1.6-2.1,1.4-2.8.8-.6,1.7-1,2.7-1,.8,0,6.2,0,6.2,0h0ZM1058.8,693.4c.4.1.8.3,1.1.7,1,1,1.1,2.6.3,3.7-.2.4-.6.7-1,.9-.4.2-.7.2-1.1.2-.4,0-.8,0-1.2-.2-.9-.5-1.5-1.3-1.6-2.3-.1-1.5,1-2.9,2.5-3,.3,0,.6,0,.9,0h0ZM1057,693.9c-.7.4-1.1,1-1.3,1.7-.2.8,0,1.6.6,2.2.2.2.4.4.7.5.3.2.7.3,1.1.2.4,0,.7,0,1.1-.2.3-.1.6-.4.8-.7.2-.2.3-.5.4-.8.4-1.2-.2-2.5-1.4-3.1-.6-.2-1.3-.1-1.9,0h0ZM1059.7,695.8c0,.4,0,.8,0,1.1-.3.4-.9.6-1.3.3-.1-.1-.2-.2-.3-.4v-.2c0,0-.3.2-.3.2-.2.2-.4.3-.6.5-.1,0-.3.2-.4.3,0,.1-.2,0-.2-.2v-.3s.7-.4.7-.4c.7-.4.8-.6.8-1v-.3h-1.5v-.2s0-.2,0-.2h1.6s1.6,0,1.6,0v1ZM1058.3,695.9c0,.5,0,.6.1.8.3.4.8.2.9-.4,0-.3,0-.7,0-1-.2,0-.3,0-.5,0h-.5v.6Z"/>
        <circle id="circle109-6" class="cls-20" cx="1038.8" cy="502.8" r="16.2" transform="translate(348.5 1427.8) rotate(-79.1)"/>
        <circle id="circle111-4" class="cls-3" cx="1038.8" cy="502.8" r="14.4"/>
        <circle id="circle113-4" class="cls-20" cx="1038.7" cy="712.9" r="16.2" transform="translate(168.6 1624.1) rotate(-80.8)"/>
        <circle id="circle115-1" class="cls-3" cx="1038.7" cy="712.9" r="14.4"/>
        <circle id="circle117-7" class="cls-20" cx="760.8" cy="712.9" r="16.2"/>
        <circle id="circle119-4" class="cls-3" cx="760.8" cy="712.9" r="14.4"/>
        <circle id="circle121-0" class="cls-20" cx="760.8" cy="502.8" r="16.2"/>
        <circle id="circle123-6" class="cls-3" cx="760.8" cy="502.8" r="14.4"/>
        <rect id="rect95-0" class="cls-27" x="743" y="545.4" width="22.9" height="24.7" rx="4.8" ry="4.8"/>
        <rect id="rect97-2" class="cls-27" x="743" y="570.6" width="22.9" height="24.7" rx="4.2" ry="4.2"/>
        <rect id="rect99-1" class="cls-18" x="707.5" y="556.3" width="46.9" height="2.7"/>
        <rect id="rect101-0" class="cls-18" x="707.5" y="581.7" width="46.9" height="2.7"/>
        <rect id="rect143-2" class="cls-3" x="804.4" y="519" width="177.8" height="177.8"/>
        <rect id="rect154-6" class="cls-3" x="820" y="478.6" width="146.1" height="42"/>
        <rect id="rect156-8" class="cls-3" x="820" y="695.2" width="146.1" height="42"/>
        <rect id="rect158-3" class="cls-3" x="981.8" y="535" width="47.9" height="145.4"/>
        <circle id="circle145-2" class="cls-20" cx="804.4" cy="696.8" r="16.2"/>
        <circle id="circle147-6" class="cls-20" cx="982.2" cy="696.8" r="16.2"/>
        <circle id="circle149-6" class="cls-20" cx="982.2" cy="519" r="16.2"/>
        <circle id="circle151-3" class="cls-20" cx="804.4" cy="519" r="16.2"/>
        <rect id="rect164-6" class="cls-21" x="821.9" y="480.2" width="142.2" height="255.3"/>
        <rect id="rect166-8" class="cls-21" x="806" y="536.6" width="221.4" height="142.2"/>
        <rect id="rect168-3" class="cls-19" x="806" y="520.6" width="174.5" height="174.5"/>
        <circle id="path170-9" class="cls-17" cx="893.3" cy="607.9" r="72.7"/>
        <rect id="rect172-0" class="cls-19" x="819.7" y="585.2" width="149.1" height="6.5"/>
        <rect id="rect174-8" class="cls-19" x="816.6" y="624" width="153.9" height="6.5"/>
        <rect id="rect176-5" class="cls-21" x="862.6" y="591.7" width="61.4" height="32.3"/>
        <rect id="rect178-8" class="cls-19" x="836.3" y="695" width="113.1" height="35.6"/>
        <path id="path182-2" class="cls-21" d="M904.2,695.2c6.3,6.3,6.4,16.5.1,22.9-6.3,6.3-16.5,6.4-22.9.1-6.3-6.3-6.4-16.5-.1-22.9"/>
        <rect id="rect187-5" class="cls-21" x="834" y="694.4" width="117.6" height=".9"/>
        <circle id="path100-0" cx="893.3" cy="344.5" r="121.2"/>
        <circle id="path102-6" class="cls-27" cx="893.3" cy="344.5" r="88.9"/>
        <g id="text104" class="cls-16">
          <g class="cls-16">
            <g class="cls-16">
              <path class="cls-2" d="M1041.3,542c0,0-.1,0-.2,0s0,0-.1-.2c0,0,0-.2,0-.3,0-.1,0-.3,0-.6s0-.5,0-.7c0-.2,0-.3.1-.4,0,0,.1-.2.2-.2l8.1-6h-8.1c0,0-.1,0-.2,0,0,0,0,0-.1-.2s0-.2,0-.3c0-.1,0-.3,0-.5s0-.4,0-.5c0-.1,0-.3,0-.3s0-.1.1-.2c0,0,.1,0,.2,0h15.6c0,0,.1,0,.2,0,0,0,0,0,.1.2,0,0,0,.2,0,.3,0,.1,0,.3,0,.5s0,.4,0,.5c0,.1,0,.2,0,.3,0,0,0,.1-.1.2,0,0-.1,0-.2,0h-7.2l7.2,5.7c0,0,.1.1.2.2,0,0,0,.1.1.2,0,0,0,.2,0,.4,0,.1,0,.3,0,.5s0,.4,0,.5c0,.1,0,.2,0,.3s0,.1-.1.2-.1,0-.2,0c-.1,0-.2,0-.3,0-.1,0-.3-.2-.5-.3l-6.4-5.4-7.7,5.8c-.2.1-.4.2-.4.3s-.1,0-.2,0Z"/>
            </g>
            <g class="cls-16">
              <path class="cls-2" d="M1047.2,549.9h-6c0,0-.1,0-.2,0s0,0-.1-.2c0,0,0-.2,0-.3,0-.1,0-.3,0-.5s0-.4,0-.5c0-.1,0-.2,0-.3,0,0,0-.1.1-.2s.1,0,.2,0h6l9.1-4.6c.2,0,.3-.1.5-.2s.2,0,.2,0c0,0,0,.2.1.3,0,.2,0,.4,0,.7s0,.5,0,.6c0,.2,0,.3,0,.4s0,.2-.1.2c0,0-.1,0-.2.1l-4.7,2.2c-.4.2-.9.4-1.4.6s-1,.4-1.5.6h0c.5.2,1,.4,1.4.6s.9.4,1.4.6l4.7,2.3c0,0,.2,0,.2.1,0,0,.1.1.1.2,0,0,0,.2,0,.3s0,.3,0,.5,0,.5,0,.7c0,.2,0,.3-.1.4,0,0-.1,0-.3,0s-.3,0-.4-.2l-9.1-4.6Z"/>
            </g>
            <g class="cls-16">
              <path class="cls-2" d="M1047.3,560.6c-.3,0-.6,0-.7-.1-.1,0-.2-.2-.2-.3v-5.2c0-.2,0-.3.2-.3.1,0,.4-.1.7-.1s.5,0,.7.1.2.2.2.3v5.2c0,0,0,.1,0,.2,0,0,0,0-.1.1s-.2,0-.3,0-.2,0-.4,0Z"/>
              <path class="cls-2" d="M1049.1,573.6c-1.2,0-2.4,0-3.4-.3s-1.9-.5-2.7-1c-.7-.5-1.3-1.1-1.7-1.8-.4-.7-.6-1.6-.6-2.7s.2-1.9.5-2.6.9-1.3,1.6-1.7,1.6-.7,2.6-.9c1-.2,2.2-.3,3.6-.3s2.4,0,3.4.3c1,.2,1.9.5,2.7,1s1.3,1,1.7,1.8c.4.7.6,1.6.6,2.7s-.2,1.9-.5,2.6-.9,1.3-1.6,1.7-1.6.7-2.6.9c-1,.2-2.2.3-3.6.3ZM1048.9,571.4c.8,0,1.5,0,2.2,0s1.2-.1,1.7-.3c.5-.1.9-.3,1.3-.4.4-.2.6-.4.9-.6.2-.3.4-.5.5-.9.1-.3.2-.7.2-1.1,0-.7-.2-1.3-.5-1.7s-.8-.8-1.4-1c-.6-.3-1.3-.4-2.1-.5-.8,0-1.6-.1-2.5-.1s-2.2,0-3.1.2c-.8.1-1.5.3-2.1.6-.5.3-.9.6-1.2,1-.2.4-.4.9-.4,1.5s0,.9.2,1.2c.2.4.4.7.6.9.3.3.6.5,1,.6.4.2.8.3,1.3.4.5,0,1,.2,1.5.2s1.1,0,1.7,0Z"/>
              <path class="cls-2" d="M1041.9,586.1c-.2,0-.3,0-.4,0s-.2,0-.3,0c0,0-.1,0-.2-.2,0,0,0-.1,0-.2v-9c0-.1,0-.2,0-.3,0,0,0-.2.1-.2,0,0,.2-.1.3-.1.1,0,.3,0,.5,0s.3,0,.4,0c.1,0,.2,0,.3,0,0,0,.2,0,.3.2,0,0,.2.1.3.3l3.3,3.2c.8.7,1.5,1.3,2.1,1.8.6.5,1.2.8,1.7,1s1,.4,1.4.5c.4,0,.8.1,1.2.1s.7,0,1-.2c.3-.1.6-.3.8-.5s.4-.5.6-.9c.1-.3.2-.7.2-1.2s0-1-.2-1.4c-.1-.4-.3-.8-.5-1.1s-.3-.6-.5-.8c-.1-.2-.2-.4-.2-.5s0-.1,0-.2c0,0,0,0,.2-.1s.2,0,.3,0c.1,0,.3,0,.5,0s.2,0,.3,0c0,0,.2,0,.2,0,0,0,.1,0,.2,0,0,0,.1.1.2.2,0,.1.2.3.4.5.2.2.3.6.4.9s.3.8.4,1.2c.1.4.2.9.2,1.4,0,.8-.1,1.5-.3,2.1-.2.6-.5,1.1-.9,1.5-.4.4-.8.7-1.3.9s-1.1.3-1.6.3-1,0-1.5-.1c-.5,0-1.1-.3-1.7-.6-.6-.3-1.3-.7-2-1.3-.7-.6-1.6-1.3-2.5-2.2l-2.7-2.6v7.1c0,0,0,.1,0,.2,0,0,0,.1-.2.2,0,0-.2,0-.3.1-.1,0-.2,0-.4,0Z"/>
              <path class="cls-2" d="M1045.6,599c-.7,0-1.4-.1-2-.4s-1.1-.6-1.5-1.1c-.4-.5-.8-1.1-1-1.8s-.3-1.5-.3-2.4,0-1.1.1-1.5c0-.5.2-.9.3-1.3s.2-.7.4-.9c.1-.2.2-.4.3-.5s.1-.1.2-.1.1,0,.2,0c0,0,.2,0,.3,0s.3,0,.4,0c.3,0,.5,0,.6,0,.1,0,.2.1.2.3s0,.2-.2.5c-.1.2-.3.5-.4.9-.2.4-.3.8-.4,1.2-.1.5-.2,1-.2,1.6s0,1.1.2,1.5c.1.4.3.8.6,1.1s.6.5.9.7c.4.1.7.2,1.2.2s.9,0,1.2-.3c.4-.2.7-.5,1-.8.3-.4.5-.8.6-1.3.1-.5.2-1.1.2-1.8v-1.6c0,0,0-.1,0-.2,0,0,0-.1.1-.2s.2,0,.3-.1c.1,0,.2,0,.4,0s.3,0,.4,0,.2,0,.3.1c0,0,.1,0,.1.2s0,.1,0,.2v1.4c0,.6,0,1,.2,1.5.1.4.3.8.6,1.1.3.3.6.5,1,.7.4.2.8.2,1.2.2s.7,0,1-.2c.3-.1.6-.3.8-.5.2-.2.4-.5.5-.8.1-.3.2-.7.2-1.2s0-.9-.2-1.3c-.1-.4-.3-.8-.5-1.1-.2-.3-.3-.6-.5-.8-.1-.2-.2-.4-.2-.4s0-.1,0-.2c0,0,0,0,.1-.1,0,0,.2,0,.3,0,.1,0,.3,0,.4,0s.2,0,.3,0c0,0,.2,0,.3,0s.1,0,.2,0c0,0,.1,0,.2.2,0,0,.2.2.3.5.2.2.3.5.4.9s.3.8.4,1.2c.1.5.2,1,.2,1.5s0,1.4-.3,2-.5,1-.8,1.4c-.4.4-.8.7-1.3.9-.5.2-1,.3-1.6.3s-1,0-1.4-.2c-.4-.1-.8-.3-1.2-.6-.3-.3-.6-.6-.9-1-.2-.4-.4-.8-.5-1.3h0c0,.6-.2,1.1-.4,1.5-.2.5-.5.9-.8,1.2-.3.3-.7.6-1.2.8-.4.2-.9.3-1.4.3Z"/>
            </g>
          </g>
        </g>
        <g id="text108" class="cls-16">
          <g class="cls-16">
            <path class="cls-2" d="M779.7,554c0,.1,0,.2,0,.3,0,0,0,.2,0,.2,0,0,0,0,0,.1,0,0,0,0-.1,0,0,0-.2,0-.4-.2-.2-.1-.4-.2-.7-.4-.3-.1-.6-.3-1-.4-.4-.1-.9-.2-1.4-.2s-1.2.1-1.7.3c-.5.2-.9.6-1.3,1-.4.4-.6.9-.8,1.5s-.3,1.2-.3,1.8.1,1.4.3,2c.2.6.5,1.1.9,1.4.4.4.8.7,1.3.9s1.1.3,1.7.3.7,0,1.1-.1c.4,0,.7-.2,1-.4v-3.4h-2.7c-.1,0-.2,0-.2-.2,0-.1,0-.3,0-.5s0-.2,0-.3c0,0,0-.1,0-.2,0,0,0,0,0-.1,0,0,0,0,.1,0h3.7c0,0,.1,0,.2,0,0,0,.1,0,.2.1s0,.1.1.2c0,0,0,.2,0,.3v4.4c0,.2,0,.3,0,.4,0,.1-.2.2-.3.3s-.4.2-.7.3c-.3.1-.6.2-.8.3s-.6.1-.9.2c-.3,0-.6,0-.9,0-.9,0-1.7-.1-2.4-.4-.7-.3-1.3-.7-1.8-1.2-.5-.5-.9-1.1-1.1-1.8s-.4-1.5-.4-2.4.1-1.7.4-2.5c.3-.7.7-1.4,1.2-1.9.5-.5,1.1-.9,1.8-1.2.7-.3,1.5-.4,2.3-.4s.9,0,1.2.1c.4,0,.7.2,1,.3.3.1.6.2.8.3.2.1.3.2.4.3,0,0,.1.2.2.3,0,.1,0,.2,0,.4Z"/>
            <path class="cls-2" d="M791.3,563.4c0,.1,0,.2,0,.3,0,0,0,.2-.2.2s-.1,0-.2.1-.2,0-.2,0h-.5c-.2,0-.3,0-.4,0-.1,0-.2,0-.3-.2-.1,0-.2-.2-.3-.4-.1-.1-.2-.3-.3-.6l-3.5-6.6c-.2-.3-.4-.7-.6-1.1s-.4-.7-.5-1.1h0c0,.4,0,.9,0,1.3s0,.9,0,1.3v7s0,0,0,.1c0,0,0,0-.1,0,0,0-.1,0-.2,0s-.2,0-.4,0-.3,0-.4,0c0,0-.2,0-.2,0,0,0,0,0-.1,0,0,0,0,0,0-.1v-10.7c0-.2,0-.4.2-.5.1-.1.3-.2.4-.2h.8c.2,0,.3,0,.4,0,.1,0,.2,0,.3.1,0,0,.2.2.3.3s.2.3.3.5l2.7,5.1c.2.3.3.6.5.9.2.3.3.6.4.9.1.3.3.6.4.8.1.3.3.6.4.8h0c0-.5,0-1,0-1.5s0-1,0-1.5v-6.3s0,0,0-.1c0,0,0,0,.1,0,0,0,.1,0,.2,0,0,0,.2,0,.4,0s.3,0,.4,0,.2,0,.2,0c0,0,0,0,.1,0,0,0,0,0,0,.1v10.7Z"/>
            <path class="cls-2" d="M803.2,558.1c0,1-.1,1.9-.4,2.6-.3.7-.6,1.4-1.1,1.9s-1.1.9-1.8,1.1c-.7.2-1.6.4-2.6.4h-2.4c-.1,0-.3,0-.4-.1-.1,0-.2-.3-.2-.5v-10.3c0-.2,0-.4.2-.5.1,0,.3-.1.4-.1h2.6c1,0,1.8.1,2.5.4.7.3,1.3.6,1.7,1.1.5.5.8,1.1,1.1,1.8.2.7.4,1.5.4,2.3ZM801.6,558.1c0-.6,0-1.2-.2-1.7-.2-.5-.4-1-.7-1.4-.3-.4-.7-.7-1.3-.9-.5-.2-1.2-.3-2-.3h-1.6v9h1.6c.7,0,1.4,0,1.9-.3.5-.2.9-.5,1.3-.8.3-.4.6-.9.8-1.4.2-.6.3-1.3.3-2Z"/>
          </g>
        </g>
        <g id="text112" class="cls-16">
          <g class="cls-16">
            <path class="cls-2" d="M778,582.9c0,.1,0,.2,0,.3,0,0,0,.1,0,.2,0,0,0,0-.1.1,0,0,0,0-.1,0h-2.9v3.2s0,0,0,.1c0,0,0,0-.1,0,0,0-.1,0-.2,0s-.2,0-.3,0-.2,0-.3,0-.2,0-.2,0c0,0,0,0-.1,0,0,0,0,0,0-.1v-3.2h-2.9c0,0,0,0-.1,0,0,0,0,0-.1-.1,0,0,0-.1,0-.2,0,0,0-.2,0-.3s0-.2,0-.3c0,0,0-.1,0-.2,0,0,0,0,.1-.1,0,0,0,0,.1,0h2.9v-3.2s0,0,0-.1c0,0,0,0,.1,0,0,0,.1,0,.2,0s.2,0,.3,0,.2,0,.3,0,.2,0,.2,0c0,0,0,0,.1,0,0,0,0,0,0,.1v3.2h2.9s0,0,.1,0,0,0,.1.1c0,0,0,.1,0,.2,0,0,0,.2,0,.3Z"/>
            <path class="cls-2" d="M786.8,584.3c0,.6-.1,1.2-.3,1.6-.2.5-.5.9-.9,1.2-.4.3-.8.6-1.4.8-.5.2-1.1.3-1.8.3s-.7,0-1,0c-.3,0-.6-.1-.9-.2-.2,0-.5-.1-.6-.2s-.3-.1-.3-.2c0,0,0,0,0-.1,0,0,0,0,0-.1,0,0,0-.1,0-.2,0,0,0-.2,0-.3s0-.2,0-.3c0,0,0-.1,0-.2s0,0,0-.1c0,0,0,0,.1,0s.2,0,.3.1c.1,0,.3.2.5.2.2,0,.5.2.8.2.3,0,.7.1,1.1.1s.8,0,1.1-.1c.3,0,.6-.2.9-.4.2-.2.4-.5.6-.8s.2-.7.2-1.1,0-.7-.2-1c-.1-.3-.3-.5-.5-.7-.2-.2-.5-.3-.9-.4-.4,0-.8-.1-1.3-.1s-.7,0-.9,0c-.3,0-.5,0-.7,0s-.3,0-.4-.1c0,0-.1-.2-.1-.4v-4.7c0-.2,0-.3.1-.4,0,0,.2-.1.4-.1h5.1s0,0,.1,0c0,0,0,0,.1.1,0,0,0,.1,0,.2s0,.2,0,.3c0,.2,0,.4,0,.5,0,.1-.1.2-.2.2h-4.1v3.2c.2,0,.4,0,.6,0s.5,0,.7,0c.6,0,1.2,0,1.7.2.5.2.9.4,1.2.7s.6.6.7,1c.2.4.2.9.2,1.4Z"/>
            <path class="cls-2" d="M794.1,587.7c0,0,0,.1,0,.2,0,0,0,0-.2,0s-.2,0-.3,0c-.1,0-.3,0-.4,0s-.2,0-.3,0c0,0-.2,0-.3,0s-.1,0-.2,0c0,0,0,0-.1,0,0,0,0,0,0,0,0,0,0,0,0-.1l-3.8-10.7c0-.1,0-.2,0-.3s0-.1,0-.2c0,0,.1,0,.3,0,.1,0,.3,0,.5,0s.3,0,.4,0c0,0,.2,0,.2,0,0,0,0,0,.1,0,0,0,0,0,0,.1l3.3,9.7h0l3.2-9.7c0,0,0-.1,0-.2,0,0,0,0,.1,0s.1,0,.2,0c.1,0,.2,0,.4,0s.3,0,.4,0c.1,0,.2,0,.2,0,0,0,0,.1,0,.2s0,.2,0,.3l-3.8,10.7Z"/>
          </g>
        </g>
        <g id="text116" class="cls-16">
          <g class="cls-16">
            <path class="cls-2" d="M775.5,613.7c0,0,0,.1,0,.2,0,0,0,0-.2,0s-.2,0-.3,0c-.1,0-.3,0-.4,0s-.2,0-.3,0c0,0-.2,0-.3,0s-.1,0-.2,0c0,0,0,0-.1,0,0,0,0,0,0,0,0,0,0,0,0-.1l-3.8-10.7c0-.1,0-.2,0-.3s0-.1,0-.2c0,0,.1,0,.3,0,.1,0,.3,0,.5,0s.3,0,.4,0c0,0,.2,0,.2,0,0,0,0,0,.1,0,0,0,0,0,0,.1l3.3,9.7h0l3.2-9.7c0,0,0-.1,0-.2,0,0,0,0,.1,0s.1,0,.2,0c.1,0,.2,0,.4,0s.3,0,.4,0c.1,0,.2,0,.2,0,0,0,0,.1,0,.2s0,.2,0,.3l-3.8,10.7Z"/>
            <path class="cls-2" d="M788.9,613.7s0,0,0,.1c0,0,0,0-.1,0s-.1,0-.2,0c-.1,0-.2,0-.4,0s-.3,0-.4,0c0,0-.2,0-.2,0,0,0-.1,0-.1-.1,0,0,0-.1,0-.2l-1.1-2.7c-.1-.3-.3-.6-.4-.9-.1-.3-.3-.5-.5-.7-.2-.2-.4-.3-.7-.4-.2-.1-.5-.2-.9-.2h-1v4.9s0,0,0,.1c0,0,0,0-.1,0,0,0-.1,0-.2,0,0,0-.2,0-.4,0s-.3,0-.4,0-.2,0-.2,0c0,0-.1,0-.1,0,0,0,0,0,0-.1v-10.7c0-.2,0-.4.2-.5s.3-.1.4-.1h2.4c.3,0,.5,0,.7,0,.2,0,.4,0,.5,0,.4,0,.8.2,1.2.4.3.2.6.4.9.6.2.3.4.5.5.9.1.3.2.7.2,1.1s0,.7-.2,1-.3.6-.5.8c-.2.2-.4.4-.7.6-.3.2-.6.3-.9.4.2,0,.4.2.5.3.2.1.3.3.4.5.1.2.3.4.4.6.1.2.2.5.4.8l1,2.5c0,.2.1.4.2.5,0,0,0,.2,0,.2ZM786.6,605.6c0-.5-.1-.8-.3-1.1-.2-.3-.5-.5-1-.7-.1,0-.3,0-.5,0-.2,0-.4,0-.7,0h-1.3v3.9h1.5c.4,0,.8,0,1-.1.3,0,.5-.2.7-.4s.3-.4.4-.6.1-.5.1-.8Z"/>
            <path class="cls-2" d="M797,613.6c0,0,0,.2,0,.2s0,.1,0,.1c0,0-.1,0-.3,0-.1,0-.3,0-.5,0s-.3,0-.4,0c-.1,0-.2,0-.2,0,0,0-.1,0-.1,0s0,0,0-.1l-1.9-3.2-1.9,3.2s0,0,0,.1,0,0-.1,0c0,0-.1,0-.2,0-.1,0-.2,0-.4,0s-.3,0-.4,0-.2,0-.2,0c0,0,0,0,0-.1s0-.1,0-.2l2.5-3.9-2.4-3.8c0,0,0-.2,0-.2,0,0,0-.1,0-.1,0,0,.1,0,.3,0,.1,0,.3,0,.5,0s.3,0,.4,0c.1,0,.2,0,.2,0,0,0,.1,0,.1,0,0,0,0,0,0,.1l1.8,3,1.9-3s0,0,0,0,0,0,.1,0c0,0,.1,0,.2,0,0,0,.2,0,.4,0s.3,0,.4,0c.1,0,.2,0,.2,0,0,0,0,0,0,.1s0,.1,0,.2l-2.3,3.7,2.5,4Z"/>
          </g>
        </g>
        <g id="text120" class="cls-16">
          <g class="cls-16">
            <g class="cls-16">
              <path class="cls-2" d="M775.5,638.4c0,0,0,.1,0,.2,0,0,0,0-.2,0s-.2,0-.3,0c-.1,0-.3,0-.4,0s-.2,0-.3,0c0,0-.2,0-.3,0s-.1,0-.2,0c0,0,0,0-.1,0,0,0,0,0,0,0,0,0,0,0,0-.1l-3.8-10.7c0-.1,0-.2,0-.3s0-.1,0-.2c0,0,.1,0,.3,0,.1,0,.3,0,.5,0s.3,0,.4,0c0,0,.2,0,.2,0,0,0,0,0,.1,0,0,0,0,0,0,.1l3.3,9.7h0l3.2-9.7c0,0,0-.1,0-.2,0,0,0,0,.1,0s.1,0,.2,0c.1,0,.2,0,.4,0s.3,0,.4,0c.1,0,.2,0,.2,0,0,0,0,.1,0,.2s0,.2,0,.3l-3.8,10.7Z"/>
            </g>
            <g class="cls-16">
              <path class="cls-2" d="M788.9,638.5s0,0,0,.1c0,0,0,0-.1,0,0,0-.1,0-.2,0-.1,0-.2,0-.4,0s-.3,0-.4,0c0,0-.2,0-.2,0,0,0-.1,0-.1-.1,0,0,0-.1,0-.2l-1.1-2.7c-.1-.3-.3-.6-.4-.9-.1-.3-.3-.5-.5-.7-.2-.2-.4-.3-.7-.4-.2-.1-.5-.2-.9-.2h-1v4.9s0,0,0,.1c0,0,0,0-.1,0,0,0-.1,0-.2,0,0,0-.2,0-.4,0s-.3,0-.4,0c0,0-.2,0-.2,0,0,0-.1,0-.1,0,0,0,0,0,0-.1v-10.7c0-.2,0-.4.2-.5.1,0,.2-.1.4-.1h2.5c.3,0,.5,0,.7,0,.2,0,.4,0,.5,0,.4,0,.8.2,1.2.4.3.2.6.4.9.6.2.3.4.5.5.9.1.3.2.7.2,1.1s0,.7-.2,1c-.1.3-.3.6-.5.8s-.4.4-.7.6c-.3.2-.6.3-.9.4.2,0,.4.2.5.3.2.1.3.3.4.5.1.2.3.4.4.6.1.2.2.5.4.8l1,2.5c0,.2.1.4.2.5s0,.2,0,.2ZM786.6,630.4c0-.5-.1-.8-.3-1.1s-.5-.5-1-.7c-.1,0-.3,0-.5,0-.2,0-.4,0-.7,0h-1.3v3.9h1.5c.4,0,.8,0,1-.1.3,0,.5-.2.7-.4.2-.2.3-.4.4-.6,0-.2.1-.5.1-.8Z"/>
            </g>
            <g class="cls-16">
              <path class="cls-2" d="M794.3,638.7l-1.1,2.9c0,0-.1.2-.3.2-.1,0-.4,0-.7,0s-.3,0-.4,0c0,0-.2,0-.2,0,0,0,0,0,0-.1,0,0,0-.1,0-.2l1.1-2.8c0,0-.1,0-.2-.1,0,0,0-.1,0-.2l-2.9-7.7c0-.1,0-.2,0-.3s0-.1,0-.2c0,0,.1,0,.2,0,.1,0,.2,0,.4,0s.3,0,.4,0c.1,0,.2,0,.2,0,0,0,.1,0,.1.1,0,0,0,.1,0,.2l2.3,6.4h0l2.2-6.5c0-.1,0-.2.1-.2,0,0,.1,0,.2,0,.1,0,.2,0,.4,0s.3,0,.4,0c.1,0,.2,0,.2,0,0,0,0,0,0,.2s0,.2,0,.3l-2.9,8Z"/>
            </g>
          </g>
        </g>
        <g id="text124" class="cls-16">
          <g class="cls-16">
            <g class="cls-16">
              <path class="cls-2" d="M777.3,660.2c0,.5,0,1-.3,1.4-.2.4-.5.8-.8,1.1s-.8.5-1.2.7c-.5.1-1,.2-1.5.2s-.7,0-1.1,0c-.3,0-.6-.1-.9-.2-.3,0-.5-.2-.6-.3-.2-.1-.3-.2-.4-.3,0,0-.1-.2-.2-.3,0-.1,0-.3,0-.4s0-.2,0-.3c0,0,0-.2,0-.2,0,0,0,0,0-.1,0,0,0,0,.1,0,0,0,.2,0,.4.2.2.1.3.2.6.3.2.1.5.2.9.3.3.1.7.2,1.2.2s.6,0,.9-.1c.3,0,.5-.2.7-.4.2-.2.4-.4.5-.6.1-.2.2-.5.2-.8s0-.6-.2-.8-.3-.4-.6-.6c-.2-.2-.5-.3-.8-.5-.3-.1-.6-.3-1-.4-.3-.2-.6-.3-1-.5-.3-.2-.6-.4-.8-.7-.2-.2-.4-.5-.6-.9-.2-.3-.2-.7-.2-1.2s0-.9.3-1.3c.2-.4.4-.7.7-.9.3-.3.7-.5,1.1-.6.4-.1.9-.2,1.4-.2s.5,0,.8,0c.3,0,.5.1.7.2s.4.2.6.2c.2,0,.3.2.4.2,0,0,0,.1.1.1,0,0,0,0,0,.1,0,0,0,.1,0,.2s0,.2,0,.3,0,.2,0,.3c0,0,0,.2,0,.2,0,0,0,0,0,.1s0,0-.1,0c0,0-.2,0-.3-.1s-.3-.2-.5-.3c-.2-.1-.4-.2-.7-.3-.3,0-.6-.1-.9-.1s-.6,0-.8.1-.4.2-.6.3-.3.3-.3.5-.1.4-.1.6c0,.3,0,.6.2.8s.3.4.6.6c.2.2.5.3.8.5s.6.3,1,.5c.3.2.6.3,1,.5.3.2.6.4.8.6s.4.5.6.9c.2.3.2.7.2,1.2Z"/>
            </g>
            <g class="cls-16">
              <path class="cls-2" d="M790.4,663.1c0,0,0,.2-.1.2,0,0-.1,0-.2.1,0,0-.2,0-.3,0-.1,0-.3,0-.4,0s-.3,0-.5,0c-.1,0-.2,0-.3,0,0,0-.1,0-.2-.1,0,0,0-.1,0-.2l-2.4-8.7h0l-2.2,8.7c0,0,0,.2,0,.2,0,0-.1,0-.2.1,0,0-.2,0-.3,0-.1,0-.3,0-.5,0s-.4,0-.5,0c-.1,0-.2,0-.3,0,0,0-.1,0-.2-.1,0,0,0-.1,0-.2l-3-10.6c0-.1,0-.2,0-.3s0-.1,0-.2c0,0,.1,0,.2,0,.1,0,.3,0,.5,0s.3,0,.4,0c.1,0,.2,0,.2,0,0,0,0,0,.1,0,0,0,0,0,0,.2l2.6,9.7h0l2.5-9.6c0,0,0-.1,0-.2,0,0,0,0,.1-.1s.1,0,.3,0c.1,0,.3,0,.4,0s.3,0,.4,0c0,0,.2,0,.2,0s.1,0,.1.1c0,0,0,0,0,.2l2.6,9.6h0l2.5-9.6c0,0,0-.1,0-.2,0,0,0,0,.1-.1,0,0,.1,0,.2,0,.1,0,.2,0,.4,0s.3,0,.4,0c.1,0,.2,0,.2,0,0,0,0,.1,0,.2s0,.2,0,.3l-3.1,10.6Z"/>
            </g>
          </g>
        </g>
      </g>
      <circle id="circle281" class="cls-7" cx="26.3" cy="499.3" r="11.6"/>
      <circle id="circle281-2" class="cls-14" cx="26.3" cy="469.5" r="11.6"/>
      <circle id="circle281-3" class="cls-13" cx="25.8" cy="594.2" r="11.6" transform="translate(-9 .5) rotate(-.9)"/>
      <circle id="circle281-4" class="cls-32" cx="25.8" cy="624.8" r="11.6" transform="translate(-9.5 .5) rotate(-.9)"/>
      <circle id="circle281-5" class="cls-23" cx="575.8" cy="658.2" r="11.6"/>
      <rect class="cls-7" x="20.1" y="523.3" width="588.6" height="11.4"/>
      <rect class="cls-7" x="20.1" y="507.5" width="11.4" height="27.2"/>
      <rect class="cls-14" x="20.1" y="432.3" width="567" height="11.4"/>
      <rect class="cls-14" x="20.1" y="432.3" width="11.4" height="47.5"/>
      <rect id="rect853" class="cls-23" x="575.8" y="652.5" width="150.3" height="11.3"/>
      <rect id="rect853-2" class="cls-13" x="552" y="602.1" width="177.7" height="11.3"/>
      <rect id="rect853-3" class="cls-32" x="529.3" y="627.6" width="196.8" height="11.3"/>
      <rect id="rect853-4" class="cls-14" x="574.7" y="577.4" width="151.4" height="11.3"/>
      <rect id="rect853-5" class="cls-7" x="597.3" y="552" width="131.1" height="11.3"/>
      <rect id="rect853-6" class="cls-13" x="25.8" y="588.5" width="527.9" height="11.3"/>
      <rect id="rect853-7" class="cls-32" x="25.8" y="619.1" width="514.8" height="11.3"/>
      <rect id="rect853-8" class="cls-14" x="574.7" y="432.3" width="11.3" height="156.1"/>
      <rect id="rect853-9" class="cls-7" x="597.3" y="523.3" width="11.3" height="40.1"/>
      <rect id="rect853-10" class="cls-13" x="552" y="588.5" width="11.3" height="24"/>
      <rect id="rect853-11" class="cls-32" x="529.3" y="619.1" width="11.3" height="19.8"/>
      <circle id="circle281-6" class="cls-23" cx="726.1" cy="658.4" r="11.6"/>
      <circle id="circle281-7" class="cls-7" cx="726.1" cy="557.7" r="11.6"/>
      <circle id="circle281-8" class="cls-14" cx="726.1" cy="582.9" r="11.6"/>
      <circle id="circle281-9" class="cls-13" cx="726.1" cy="607.7" r="11.6"/>
      <circle id="circle281-10" class="cls-32" cx="726.1" cy="633.2" r="11.6"/>
    </g>
  </g>
</svg>