<?xml version="1.0" encoding="UTF-8"?>
<svg xmlns="http://www.w3.org/2000/svg" version="1.1" viewBox="0 0 785.8 801.3">
  <defs>
    <style>
      .cls-1, .cls-2, .cls-3, .cls-4 {
        isolation: isolate;
      }

      .cls-1, .cls-5 {
        fill: #1a1a1a;
      }

      .cls-6 {
        fill: #2c2c2c;
      }

      .cls-7 {
        fill: #fff;
      }

      .cls-8 {
        fill: #be8839;
      }

      .cls-9 {
        fill: #dbded7;
      }

      .cls-10 {
        fill: #914f00;
      }

      .cls-11 {
        fill: #9a2442;
      }

      .cls-12 {
        fill: blue;
      }

      .cls-13 {
        fill: #978521;
      }

      .cls-14, .cls-15 {
        fill: none;
      }

      .cls-16 {
        fill: #303030;
      }

      .cls-17 {
        fill: #f53200;
      }

      .cls-18 {
        fill: #47494a;
      }

      .cls-19 {
        fill: #655a50;
      }

      .cls-20 {
        fill: #ab9c38;
      }

      .cls-21 {
        fill: #00b589;
      }

      .cls-22 {
        fill: #e30613;
      }

      .cls-23 {
        fill: #474949;
      }

      .cls-24 {
        fill: #fcf7fd;
      }

      .cls-25 {
        fill: #ada390;
      }

      .cls-26 {
        fill: #686868;
      }

      .cls-27 {
        fill: #e3ad51;
      }

      .cls-28 {
        fill: maroon;
      }

      .cls-3 {
        fill: gray;
      }

      .cls-29 {
        fill: #ddd;
      }

      .cls-30 {
        fill: #ccc;
      }

      .cls-31 {
        fill: #c4b3a8;
      }

      .cls-32 {
        fill: #a3928b;
      }

      .cls-4, .cls-33 {
        fill: #1a1919;
      }

      .cls-34 {
        fill: #36323e;
      }

      .cls-35 {
        fill: green;
      }

      .cls-36 {
        fill: #eaeaea;
      }

      .cls-37 {
        fill: #e3b37d;
      }

      .cls-38 {
        fill: #010103;
      }

      .cls-39 {
        fill: #f5b93e;
      }

      .cls-40 {
        fill: #e0dcd3;
      }

      .cls-15 {
        stroke: #493930;
        stroke-miterlimit: 10;
      }

      .cls-41 {
        fill: #bcb3ad;
      }
    </style>
  </defs>
  <!-- Generator: Adobe Illustrator 28.6.0, SVG Export Plug-In . SVG Version: 1.2.0 Build 709)  -->
  <g>
    <g id="Ebene_1">
      <g id="svg8">
        <g>
          <path class="cls-33" d="M589.8,34.4H7.1c-4,0-7.3,3.2-7.3,7.3v719c0,4,3.2,7.3,7.3,7.3h17.6l34.2,34.2h365.2l34.1-34.2h131.6c4,0,7.3-3.2,7.3-7.3V41.7c0-4-3.2-7.3-7.3-7.3h0ZM28.1,208.8c-10,0-18.1-8.1-18.1-18.1s8.1-18.1,18.1-18.1,18.1,8.1,18.1,18.1-8.1,18.1-18.1,18.1ZM88,790.7c-10,0-18.1-8.1-18.1-18.1s8.1-18.1,18.1-18.1,18.1,8.1,18.1,18.1-8.1,18.1-18.1,18.1ZM401.1,790.7c-10,0-18.1-8.1-18.1-18.1s8.1-18.1,18.1-18.1,18.1,8.1,18.1,18.1-8.1,18.1-18.1,18.1ZM569.4,220.2c-10,0-18.1-8.1-18.1-18.1s8.1-18.1,18.1-18.1,18.1,8.1,18.1,18.1-8.1,18.1-18.1,18.1Z"/>
          <rect class="cls-16" x="55.7" y="1.1" width="101.7" height="143.5"/>
          <path class="cls-16" d="M64.8,144.6h83.7v9.1c0,3.9-3.2,7.1-7.1,7.1h-69.4c-3.9,0-7.1-3.2-7.1-7.1v-9.1h0Z"/>
          <path class="cls-29" d="M571.3,73.1h-21.4v-4.6c0-.8-.6-1.4-1.4-1.4h-20.6c-.8,0-1.4.6-1.4,1.4v4.6h-21.4c-1,0-1.7.8-1.7,1.7v65.1c0,1,.8,1.7,1.7,1.7h66.3c1,0,1.7-.8,1.7-1.7v-65.1c0-1-.8-1.7-1.7-1.7h0Z"/>
          <circle class="cls-11" cx="538.2" cy="104.4" r="19.2"/>
          <g>
            <circle class="cls-29" cx="148.4" cy="253.1" r="35.2"/>
            <path class="cls-38" d="M129.5,228.5c-8.1,5.1-13.5,14.2-13.5,24.5s5.4,19.4,13.5,24.5v-49.1h0Z"/>
          </g>
          <g>
            <circle class="cls-29" cx="174" cy="352" r="35.2"/>
            <path class="cls-38" d="M166.6,321.9c-9.5,1.4-18.1,7.5-22.3,16.9s-2.9,19.9,2.4,27.9l19.9-44.9h0Z"/>
          </g>
          <rect class="cls-37" x="278.4" y="114.9" width="9.8" height="21.5"/>
          <rect class="cls-37" x="362.1" y="158.6" width="9.8" height="21.5"/>
          <rect class="cls-37" x="445.6" y="238.5" width="21.5" height="9.8"/>
          <rect class="cls-37" x="445.6" y="179.1" width="21.5" height="9.8"/>
          <rect class="cls-37" x="327" y="261.6" width="9.8" height="21.5"/>
          <rect class="cls-39" x="396.5" y="359" width="9.8" height="21.5"/>
          <rect class="cls-37" x="423.3" y="359" width="9.8" height="21.5"/>
          <rect class="cls-37" x="449.7" y="359" width="9.8" height="21.5"/>
          <rect class="cls-37" x="324" y="652.4" width="21.5" height="9.8"/>
          <rect class="cls-39" x="387.1" y="664.8" width="9.8" height="21.5"/>
          <rect class="cls-23" x="302.4" y="158.6" width="31.5" height="14.6" rx="1.5" ry="1.5"/>
          <g>
            <path class="cls-40" d="M316.3,146.4v12.2h-11.5v-12.2c0-.7.6-1.2,1.2-1.2h9c.7,0,1.2.6,1.2,1.2h.1Z"/>
            <path class="cls-40" d="M331.6,146.4v12.2h-11.5v-12.2c0-.7.6-1.2,1.2-1.2h9c.7,0,1.2.6,1.2,1.2h.1Z"/>
          </g>
          <g>
            <rect class="cls-9" x="422.9" y="331.9" width="10.7" height="17.2"/>
            <rect class="cls-23" x="422.9" y="334.4" width="10.7" height="11.8"/>
          </g>
          <g>
            <rect class="cls-9" x="449.2" y="331.9" width="10.7" height="17.2"/>
            <rect class="cls-23" x="449.2" y="334.4" width="10.7" height="11.8"/>
          </g>
          <g>
            <rect class="cls-9" x="305.7" y="301.7" width="17.2" height="10.7"/>
            <rect class="cls-23" x="308.3" y="301.7" width="11.8" height="10.7"/>
          </g>
          <g>
            <rect class="cls-9" x="250.7" y="301.7" width="17.2" height="10.7"/>
            <rect class="cls-23" x="253.2" y="301.8" width="11.8" height="10.7"/>
          </g>
          <g>
            <rect class="cls-9" x="387.1" y="634.5" width="10.7" height="17.2"/>
            <rect class="cls-23" x="387.1" y="637" width="10.7" height="11.8"/>
          </g>
          <g>
            <rect class="cls-9" x="326" y="672" width="17.2" height="10.7"/>
            <rect class="cls-23" x="328.6" y="671.9" width="11.8" height="10.7"/>
          </g>
          <g>
            <rect class="cls-9" x="477.8" y="81.7" width="10.7" height="17.2"/>
            <rect class="cls-23" x="477.8" y="84.3" width="10.7" height="11.8"/>
          </g>
          <g>
            <rect class="cls-9" x="338.2" y="82.8" width="10.7" height="17.2"/>
            <rect class="cls-23" x="338.2" y="85.3" width="10.7" height="11.8"/>
          </g>
          <rect class="cls-32" x="441.7" y="196" width="12.2" height="32.8" rx="3.7" ry="3.7"/>
          <g>
            <rect class="cls-27" x="369.7" y="447.1" width="22.3" height="17.8" rx="2.9" ry="2.9" transform="translate(-210.9 402.9) rotate(-45)"/>
            <rect class="cls-31" x="370.6" y="447.8" width="20.5" height="16.4" rx="2.9" ry="2.9" transform="translate(-210.9 402.9) rotate(-45)"/>
          </g>
          <rect class="cls-41" x="374.6" y="423" width="12.2" height="11"/>
          <rect class="cls-41" x="394.2" y="423" width="12.2" height="11"/>
          <rect class="cls-41" x="374.6" y="475.9" width="12.2" height="11"/>
          <rect class="cls-41" x="394.2" y="475.9" width="12.2" height="11"/>
          <rect class="cls-17" x="326.1" y="699.2" width="20.8" height="11" rx="2.8" ry="2.8"/>
          <g class="cls-2">
            <g class="cls-2">
              <path class="cls-7" d="M30.8,69.3v-4.5h2.1v7.1h-1.5c-2.8-2.4-4.7-2.8-8.6-3v-2.5c3.3.2,5.4.8,8.1,2.8Z"/>
              <path class="cls-7" d="M27.6,73.3v4h-1.7v-4h1.7Z"/>
              <path class="cls-7" d="M24.7,79v2.2h5.7v-1.9h1.5c.2,1.1.5,1.8.9,2.6v1.8h-8.2v1.9h-2v-6.6h2Z"/>
              <path class="cls-7" d="M24.2,87.1c2.2,2.5,4,4.4,5.4,4.4s1.5-.5,1.5-1.4-.5-1.3-1-1.8l1.3-1.3c1.1,1,1.7,1.9,1.7,3.4s-1.3,3.4-3.2,3.4-3.5-1.7-5.1-3.4c0,.5.1,1.2.1,1.7v2.2h-2.1v-7.2h1.5Z"/>
              <path class="cls-7" d="M33.1,94.9v2.6l-4.8,1.1c-1.1.3-2.2.5-3.3.8h0c1.1.4,2.2.6,3.3.9l4.8,1.2v2.5l-10.4-3.2v-3l10.4-3.1Z"/>
              <path class="cls-7" d="M33.1,108.4v2.5h-10.4v-2.5h10.4Z"/>
              <path class="cls-7" d="M33.1,113.3v2.6l-5,2.6c-.7.4-1.5.7-2.4,1h0c1.1,0,2.6-.3,3.8-.3h3.5v2.4h-10.4v-2.6l5-2.6c.7-.4,1.5-.7,2.4-1h0c-1.2,0-2.6.3-3.8.3h-3.5v-2.4h10.4Z"/>
              <path class="cls-7" d="M33.1,123.9v3.7c0,2.3-.8,4.2-3.4,4.2s-3.6-1.9-3.6-4.1v-1.2h-3.5v-2.5h10.4ZM28.1,127.5c0,1.2.6,1.8,1.6,1.8s1.4-.7,1.4-1.9v-1h-3v1.1Z"/>
              <path class="cls-7" d="M27.6,133.5h5.5v2.5h-5.8c-2,0-2.7.6-2.7,1.7s.7,1.8,2.7,1.8h5.8v2.4h-5.5c-3.5,0-5.1-1.4-5.1-4.2s1.6-4.2,5.1-4.2Z"/>
              <path class="cls-7" d="M31,146.2v-2.8h2.1v8.1h-2.1v-2.8h-8.3v-2.5h8.3Z"/>
            </g>
          </g>
          <g class="cls-2">
            <g class="cls-2">
              <path class="cls-7" d="M588.5,82.9v3.8c0,2.2-.8,4.1-3.3,4.1s-2.5-.7-3-1.8l-4.1,2.3v-2.8l3.7-1.9v-1.2h-3.7v-2.5h10.4ZM583.7,86.5c0,1.2.5,1.8,1.5,1.8s1.3-.6,1.3-1.8v-1.1h-2.8v1.1Z"/>
              <path class="cls-7" d="M588.5,92.8v6.6h-2.1v-4.1h-2v3.5h-2.1v-3.5h-2.2v4.3h-2.1v-6.8h10.4Z"/>
              <path class="cls-7" d="M579.4,100.9l1.6,1.3c-.6.7-1,1.7-1,2.6s.4,1.4.9,1.4.8-.6,1.2-1.5l.6-1.3c.4-1.1,1.3-2.1,2.8-2.1s3.2,1.6,3.2,3.8-.5,2.5-1.3,3.4l-1.6-1.3c.5-.7.8-1.4.8-2.1s-.3-1.3-.8-1.3-.8.7-1.2,1.6l-.5,1.3c-.5,1.3-1.4,2.1-2.8,2.1s-3.3-1.5-3.3-4,.5-2.8,1.5-3.9Z"/>
              <path class="cls-7" d="M588.5,110.5v6.6h-2.1v-4.1h-2v3.5h-2.1v-3.5h-2.2v4.3h-2.1v-6.8h10.4Z"/>
              <path class="cls-7" d="M586.4,121.3v-2.8h2.1v8.1h-2.1v-2.8h-8.3v-2.5h8.3Z"/>
            </g>
          </g>
          <g class="cls-2">
            <g class="cls-2">
              <path class="cls-7" d="M371.5,743.4v2.5h-10.4v-2.5h10.4Z"/>
              <path class="cls-7" d="M366.2,747.8c3.5,0,5.5,2.3,5.5,5s-.6,2.4-1.4,3.2l-1.5-1.3c.5-.5.7-1.1.7-1.8,0-1.4-1.2-2.5-3.2-2.5s-3.3,1-3.3,2.4.3,1.5.9,2l-1.5,1.3c-1-.9-1.5-2.1-1.5-3.4,0-2.7,1.8-4.9,5.3-4.9Z"/>
              <path class="cls-7" d="M362.4,756.5l1.6,1.3c-.6.7-1,1.7-1,2.6s.4,1.4.9,1.4.8-.6,1.2-1.5l.6-1.3c.4-1.1,1.3-2.1,2.8-2.1s3.2,1.6,3.2,3.8-.5,2.5-1.3,3.4l-1.6-1.3c.5-.7.8-1.4.8-2.1s-.3-1.3-.8-1.3-.8.7-1.2,1.6l-.5,1.3c-.5,1.3-1.4,2.1-2.8,2.1s-3.3-1.5-3.3-4,.5-2.8,1.5-3.9Z"/>
              <path class="cls-7" d="M371.5,766.1v3.7c0,2.3-.8,4.2-3.4,4.2s-3.6-1.9-3.6-4.1v-1.2h-3.5v-2.5h10.4ZM366.5,769.7c0,1.2.6,1.8,1.6,1.8s1.4-.7,1.4-1.9v-1h-3v1.1Z"/>
            </g>
          </g>
          <g class="cls-2">
            <g class="cls-2">
              <path class="cls-7" d="M388.5,695.5c-1.2,1-2,2.5-2,4.2,0,3,2.5,5.5,5.5,5.5s5.5-2.5,5.5-5.5-.8-3.2-2-4.2c-.4-.4-.5-1-.1-1.4.4-.4,1-.5,1.4-.1,1.6,1.4,2.7,3.5,2.7,5.8,0,4.1-3.4,7.5-7.5,7.5s-7.5-3.4-7.5-7.5,1.1-4.4,2.7-5.8c.4-.4,1.1-.3,1.4.1.4.4.3,1.1-.1,1.4h0ZM393,699.7c0,.6-.4,1-1,1s-1-.4-1-1v-7c0-.6.4-1,1-1s1,.4,1,1v7Z"/>
            </g>
          </g>
          <polyline class="cls-15" points="35.8 226.9 42.5 226.9 105.1 289.5 115.9 289.5"/>
          <polyline class="cls-15" points="35.6 235 42.5 235 102.7 295.2 102.7 426.9 159.4 483.6 212.2 483.6 224.4 471.2 263.4 471.2"/>
          <polyline class="cls-15" points="33.2 262.5 44.5 262.5 86.7 304.6 86.7 427.7 156.5 497.5 268.2 497.5"/>
          <polyline class="cls-15" points="22.8 348 61.7 387 61.7 450.9 33 479.6"/>
          <line class="cls-14" x1="75.9" y1="429.7" x2="151.7" y2="505.6"/>
          <polyline class="cls-15" points="131.2 497.1 88.4 539.8 24.3 539.8"/>
          <polyline class="cls-15" points="131.2 507.7 91.1 547.7 25.8 547.7"/>
          <polyline class="cls-15" points="267.2 506.2 234.6 506.2 159 581.8 78.5 581.8 55.8 604.5 31 604.5"/>
          <polyline class="cls-15" points="249.3 515.2 249.3 561.6 179.5 631.4 30.4 631.4"/>
          <polyline class="cls-15" points="264.6 535.2 264.6 571.5 176.1 660 31 660"/>
          <polyline class="cls-15" points="273.4 535 273.4 574.2 158.6 689 24.3 689"/>
          <polyline class="cls-15" points="282.4 535.9 282.4 581.5 147.2 716.6 30.4 716.6"/>
          <polyline class="cls-15" points="290.9 539.9 290.9 589.3 134.5 745.7 30.4 745.7"/>
          <line class="cls-14" x1="328.6" y1="624.9" x2="292" y2="588.2"/>
          <polyline class="cls-15" points="331 641.1 305.8 615.9 280 615.9"/>
          <polyline class="cls-15" points="344.3 648.9 344.3 590.2 299.6 545.5 299.6 526.1"/>
          <polyline class="cls-15" points="278.3 763.7 262 747.4 262 682.7 287.3 657.4"/>
          <polyline class="cls-15" points="308.1 534.5 308.1 545.3 361.6 598.9 401.3 598.9 506.7 704.2 506.7 733.3 518.4 745.1 563.5 745.1"/>
          <polyline class="cls-15" points="316.9 535.6 316.9 546.4 359.2 588.8 421.3 588.8 568.5 736"/>
          <polyline class="cls-15" points="327 535.1 367.8 575.9 433.3 575.9 573.8 716.4"/>
          <polyline class="cls-15" points="345.6 514.5 400 514.5 571.1 685.5"/>
          <polyline class="cls-15" points="346.9 506.2 407.1 506.2 573.3 672.4"/>
          <polyline class="cls-15" points="495.9 526 488.9 519 442.9 519"/>
          <polyline class="cls-15" points="346.9 462.6 358.1 462.6 366.9 471.4 377.6 471.4"/>
          <polyline class="cls-15" points="346.7 453.6 356.7 453.6 367.2 443.1 380.5 443.1"/>
          <polyline class="cls-15" points="325.2 430.1 341.7 413.7 411.6 413.7 566.7 568.7"/>
          <polyline class="cls-15" points="316.8 431.9 316.8 427.3 336.3 407.8 414.5 407.8 574.9 568.2"/>
          <polyline class="cls-15" points="308.1 431.8 308.1 423.5 328.4 403.2 418.3 403.2 574.7 559.6"/>
          <polyline class="cls-15" points="299.5 430.3 299.5 422.1 323.3 398.3 418.7 398.3 576.2 555.8"/>
          <polyline class="cls-15" points="290.9 429.8 290.9 417.8 315.8 392.9 419.9 392.9 580.3 553.3"/>
          <polyline class="cls-15" points="282 431.4 282 409.7 303.2 389.6 424.9 389.6 480 444.7 580.3 444.7"/>
          <polyline class="cls-15" points="273.4 429.6 273.4 406.3 297.1 384.4 426.6 384.4 457.9 415.7 578.9 415.7"/>
          <polyline class="cls-15" points="264.6 429.1 264.6 405.1 286.6 383.1 290 379.7"/>
          <polyline class="cls-15" points="221 447.2 221 418.1 289.4 349.8 315.2 349.8 322.2 356.8 372.1 356.8 399.4 329.4 426.6 329.4"/>
          <polyline class="cls-15" points="210.1 344.3 314.1 344.3 334.9 323.5 354.2 323.5"/>
          <polyline class="cls-15" points="286.5 273.7 286.5 284.5 277.5 293.5 260.1 293.5 247.4 280.8 247.4 271.6 247.4 246.5"/>
          <polyline class="cls-15" points="226.7 215.8 226.7 207.5 232.2 202 249.1 202"/>
          <polyline class="cls-15" points="191 193.5 237.2 193.5 257.8 172.9 257.8 151.1"/>
          <polyline class="cls-15" points="319 180 332.9 180 341.5 171.3 341.5 138.8 313.5 110.8 297.8 110.8 275.8 88.8"/>
          <polyline class="cls-15" points="285.7 85.3 299.5 99.1 311.1 99.1"/>
          <polyline class="cls-15" points="323.1 82.8 323.1 103 344.3 124.2 379.7 124.2 384.4 119.5 384.4 90.4"/>
          <path class="cls-15" d="M402.4,200.3v-48.4"/>
          <path class="cls-15" d="M417.9,151.9v22"/>
          <polyline class="cls-15" points="415.5 207.6 427.9 207.6 439.8 195.6"/>
          <polyline class="cls-15" points="415.3 221.3 428.3 221.3 440.4 233.4"/>
          <line class="cls-15" x1="415.9" y1="262.5" x2="439.4" y2="262.5"/>
          <line class="cls-15" x1="413.6" y1="276.5" x2="441.7" y2="276.5"/>
          <polyline class="cls-15" points="415.3 289.9 426.6 289.9 441.7 289.9"/>
          <line class="cls-15" x1="562.7" y1="152.8" x2="530.2" y2="185.3"/>
          <g>
            <rect class="cls-23" x="257.1" y="446.3" width="76" height="76" rx="5.9" ry="5.9"/>
            <circle class="cls-6" cx="322.2" cy="510.4" r="4.8"/>
            <g>
              <path class="cls-40" d="M240.2,450.9h16.9v5.9h-16.9c-.7,0-1.2-.6-1.2-1.2v-3.4c0-.7.6-1.2,1.2-1.2h0Z"/>
              <path class="cls-40" d="M240.2,459.6h16.9v5.9h-16.9c-.7,0-1.2-.6-1.2-1.2v-3.4c0-.7.6-1.2,1.2-1.2h0Z"/>
              <path class="cls-40" d="M240.2,468.3h16.9v5.9h-16.9c-.7,0-1.2-.6-1.2-1.2v-3.4c0-.7.6-1.2,1.2-1.2h0Z"/>
              <path class="cls-40" d="M240.2,477h16.9v5.9h-16.9c-.7,0-1.2-.6-1.2-1.2v-3.4c0-.7.6-1.2,1.2-1.2h0Z"/>
              <path class="cls-40" d="M240.2,485.7h16.9v5.9h-16.9c-.7,0-1.2-.6-1.2-1.2v-3.4c0-.7.6-1.2,1.2-1.2h0Z"/>
              <path class="cls-40" d="M240.2,494.4h16.9v5.9h-16.9c-.7,0-1.2-.6-1.2-1.2v-3.4c0-.7.6-1.2,1.2-1.2h0Z"/>
              <path class="cls-40" d="M240.2,503.1h16.9v5.9h-16.9c-.7,0-1.2-.6-1.2-1.2v-3.4c0-.7.6-1.2,1.2-1.2h0Z"/>
              <path class="cls-40" d="M240.2,511.8h16.9v5.9h-16.9c-.7,0-1.2-.6-1.2-1.2v-3.4c0-.7.6-1.2,1.2-1.2h0Z"/>
            </g>
            <g>
              <path class="cls-40" d="M328.4,429.4v16.9h-5.9v-16.9c0-.7.6-1.2,1.2-1.2h3.4c.7,0,1.2.6,1.2,1.2h0Z"/>
              <path class="cls-40" d="M319.7,429.5v16.9h-5.9v-16.9c0-.7.6-1.2,1.2-1.2h3.4c.7,0,1.2.6,1.2,1.2h0Z"/>
              <path class="cls-40" d="M311,429.5v16.9h-5.9v-16.9c0-.7.6-1.2,1.2-1.2h3.4c.7,0,1.2.6,1.2,1.2h0Z"/>
              <path class="cls-40" d="M302.3,429.5v16.9h-5.9v-16.9c0-.7.6-1.2,1.2-1.2h3.4c.7,0,1.2.6,1.2,1.2h0Z"/>
              <path class="cls-40" d="M293.6,429.4v16.9h-5.9v-16.9c0-.7.6-1.2,1.2-1.2h3.4c.7,0,1.2.6,1.2,1.2h0Z"/>
              <path class="cls-40" d="M285,429.4v16.9h-5.9v-16.9c0-.7.6-1.2,1.2-1.2h3.4c.7,0,1.2.6,1.2,1.2h0Z"/>
              <path class="cls-40" d="M276.3,429.4v16.9h-5.9v-16.9c0-.7.6-1.2,1.2-1.2h3.4c.7,0,1.2.6,1.2,1.2h0Z"/>
              <path class="cls-40" d="M267.6,429.4v16.9h-5.9v-16.9c0-.7.6-1.2,1.2-1.2h3.4c.7,0,1.2.6,1.2,1.2h0Z"/>
            </g>
            <g>
              <path class="cls-40" d="M261.7,539.2v-16.9h5.9v16.9c0,.7-.6,1.2-1.2,1.2h-3.4c-.7,0-1.2-.6-1.2-1.2h0Z"/>
              <path class="cls-40" d="M270.4,539.2v-16.9h5.9v16.9c0,.7-.6,1.2-1.2,1.2h-3.4c-.7,0-1.2-.6-1.2-1.2h0Z"/>
              <path class="cls-40" d="M279.1,539.2v-16.9h5.9v16.9c0,.7-.6,1.2-1.2,1.2h-3.4c-.7,0-1.2-.6-1.2-1.2h0Z"/>
              <path class="cls-40" d="M287.8,539.1v-16.9h5.9v16.9c0,.7-.6,1.2-1.2,1.2h-3.4c-.7,0-1.2-.6-1.2-1.2h0Z"/>
              <path class="cls-40" d="M296.4,539.1v-16.9h5.9v16.9c0,.7-.6,1.2-1.2,1.2h-3.4c-.7,0-1.2-.6-1.2-1.2h0Z"/>
              <path class="cls-40" d="M305.1,539.1v-16.9h5.9v16.9c0,.7-.6,1.2-1.2,1.2h-3.4c-.7,0-1.2-.6-1.2-1.2h0Z"/>
              <path class="cls-40" d="M313.8,539.1v-16.9h5.9v16.9c0,.7-.6,1.2-1.2,1.2h-3.4c-.7,0-1.2-.6-1.2-1.2h0Z"/>
              <path class="cls-40" d="M322.5,539.2v-16.9h5.9v16.9c0,.7-.6,1.2-1.2,1.2h-3.4c-.7,0-1.2-.6-1.2-1.2h0Z"/>
            </g>
            <g>
              <path class="cls-40" d="M349.9,517.4h-16.9v-5.9h16.9c.7,0,1.2.6,1.2,1.2v3.4c0,.7-.6,1.2-1.2,1.2h0Z"/>
              <path class="cls-40" d="M349.9,508.7h-16.9v-5.9h16.9c.7,0,1.2.6,1.2,1.2v3.4c0,.7-.6,1.2-1.2,1.2h0Z"/>
              <path class="cls-40" d="M349.9,500h-16.9v-5.9h16.9c.7,0,1.2.6,1.2,1.2v3.4c0,.7-.6,1.2-1.2,1.2h0Z"/>
              <path class="cls-40" d="M349.9,491.3h-16.9v-5.9h16.9c.7,0,1.2.6,1.2,1.2v3.4c0,.7-.6,1.2-1.2,1.2h0Z"/>
              <path class="cls-40" d="M349.9,482.6h-16.9v-5.9h16.9c.7,0,1.2.6,1.2,1.2v3.4c0,.7-.6,1.2-1.2,1.2h0Z"/>
              <path class="cls-40" d="M349.9,474h-16.9v-5.9h16.9c.7,0,1.2.6,1.2,1.2v3.4c0,.7-.6,1.2-1.2,1.2h0Z"/>
              <path class="cls-40" d="M349.9,465.3h-16.9v-5.9h16.9c.7,0,1.2.6,1.2,1.2v3.4c0,.7-.6,1.2-1.2,1.2h0Z"/>
              <path class="cls-40" d="M349.9,456.5h-16.9v-5.9h16.9c.7,0,1.2.6,1.2,1.2v3.4c0,.7-.6,1.2-1.2,1.2h0Z"/>
            </g>
          </g>
          <path class="cls-7" d="M246.8,609.5v7.2c0,1.3,0,2.5-.1,3.5,0,.8-.2,1.6-.4,2.4-.2.7-.5,1.3-.8,1.9-.5.7-1,1.4-1.6,2-.6.7-1.5,1.2-2.5,1.6-1.1.3-2.3.5-3.7.5h-6v-7.4h3.7c.5,0,.9,0,1.4-.2.3,0,.6-.3.9-.6.2-.3.4-.7.5-1.1.1-.6.2-1.2.2-1.7v-7.9h8.5v-.2ZM232.4,632.9h95v3.1h-95v-3.1ZM246.8,597.5v7.4h-8.5v-7.4h8.5ZM267.1,597c1.1,0,2.3,0,3.4.3,1,.2,2.1.5,3.1.9s1.9.9,2.7,1.4c.9.6,1.7,1.2,2.4,2,.7.7,1.4,1.6,1.9,2.4.6.9,1,1.8,1.4,2.7.4,1,.7,2,.8,3.1.2,1.1.3,2.3.3,3.4s0,2.2-.3,3.3c-.2,1-.5,2-.8,3-.4.9-.8,1.9-1.4,2.7-.6.9-1.2,1.7-1.9,2.4-.7.7-1.5,1.4-2.4,2-.8.6-1.7,1-2.7,1.4s-2,.7-3,.9c-1.1.2-2.2.3-3.3.3s-2.3,0-3.4-.3c-1-.2-2.1-.5-3.1-.8-1-.4-1.9-.8-2.7-1.4-1.7-1.1-3.2-2.6-4.4-4.4-.6-.9-1-1.8-1.4-2.7-.4-1-.7-2-.9-3-.4-2.2-.4-4.5,0-6.7.2-1,.5-2.1.9-3,.4-1,.8-1.9,1.4-2.7.6-.9,1.2-1.7,2-2.5.7-.8,1.5-1.4,2.4-2,.8-.6,1.7-1.1,2.7-1.4,1-.4,2-.7,3-.9,1.1-.2,2.2-.3,3.3-.3h0ZM267.1,604.1c-1,0-2,.2-3,.6-.9.4-1.6,1-2.2,1.8s-1.1,1.8-1.4,2.8c-.3,1.1-.5,2.3-.5,3.7s.1,2.5.5,3.8c.3,1,.8,2,1.4,2.9.6.8,1.4,1.4,2.3,1.8.9.4,1.9.6,3,.6s2-.2,3-.6c.9-.4,1.6-1,2.2-1.8.6-.9,1.1-1.8,1.4-2.8.3-1.1.5-2.4.5-3.8s-.1-2.5-.5-3.7c-.3-1-.8-2-1.4-2.8s-1.4-1.4-2.3-1.8c-.9-.4-1.9-.6-3-.6h0ZM286.6,597.5h8.5v7.7c0,1.6.3,2.8.9,3.6s1.6,1.2,2.8,1.2,2.3-.4,2.9-1.3,1-2.1,1-3.8v-7.4h8.4v5.4c0,1.3,0,2.5-.2,3.6,0,.9-.2,1.8-.5,2.7s-.6,1.7-1.1,2.5c-.6,1-1.3,1.9-2,2.7-.4.5-.9.9-1.5,1.3-.6.4-1.2.7-1.9.9-.8.3-1.6.4-2.4.5-.9,0-1.9.2-2.8.2s-1.8,0-2.7-.2c-.8,0-1.5-.3-2.3-.5-.7-.2-1.3-.5-1.9-.9-.5-.3-1-.7-1.5-1.2-.8-.8-1.5-1.7-2.1-2.6-.5-.7-.9-1.5-1.2-2.4-.3-.9-.4-1.8-.5-2.7-.1-1.1-.2-2.3-.2-3.4v-6.1l.3.2ZM305.9,621.1v7.4h-14.2v-7.4h14.2ZM309.9,590.8h56.8v2.9h-56.8v-2.9ZM313.5,611.1h18.3v7.3h-18.3v-7.3ZM343.5,597.5v7.4h-8.5v-7.4h8.5ZM343.5,609.5v19.1h-8.5v-19.1h8.5ZM368,597.5v7.4h-19.9v-7.4h19.9ZM349.5,609.5h8.4v7.7c0,.7,0,1.3.2,2,.1.5.3.9.5,1.2.2.2.6.4,1.1.6.6,0,1.2.2,1.8.2h5.5v7.4h-7.9c-.8,0-1.6,0-2.3-.2-.7,0-1.4-.3-2-.5s-1.1-.5-1.7-.8c-.5-.3-.9-.7-1.3-1.1-.4-.4-.7-.9-1-1.5s-.5-1.2-.7-1.9c-.2-.8-.3-1.5-.4-2.3,0-.9-.1-1.8-.1-2.7v-8.1h-.1Z"/>
          <rect class="cls-37" x="202.9" y="443.9" width="21.5" height="9.8"/>
          <rect class="cls-37" x="349.2" y="321.8" width="9.8" height="21.5"/>
          <g>
            <rect class="cls-23" x="267.9" y="225.2" width="50.5" height="39.3" rx="2.5" ry="2.5"/>
            <circle class="cls-6" cx="272.1" cy="256.5" r="2.7"/>
            <g>
              <path class="cls-40" d="M270.1,276.7v-12.2h6.1v12.2c0,.7-.6,1.2-1.2,1.2h-3.6c-.7,0-1.2-.6-1.2-1.2h0Z"/>
              <path class="cls-40" d="M283.4,276.6v-12.2h6.1v12.2c0,.7-.6,1.2-1.2,1.2h-3.6c-.7,0-1.2-.6-1.2-1.2h0Z"/>
              <path class="cls-40" d="M296.7,276.6v-12.2h6.1v12.2c0,.7-.6,1.2-1.2,1.2h-3.6c-.7,0-1.2-.6-1.2-1.2h0Z"/>
              <path class="cls-40" d="M309.9,276.7v-12.2h6.1v12.2c0,.7-.6,1.2-1.2,1.2h-3.6c-.7,0-1.2-.6-1.2-1.2h0Z"/>
            </g>
            <g>
              <path class="cls-40" d="M316.1,212.9v12.2h-6.1v-12.2c0-.7.6-1.2,1.2-1.2h3.6c.7,0,1.2.6,1.2,1.2h.1Z"/>
              <path class="cls-40" d="M302.8,213v12.2h-6.1v-12.2c0-.7.6-1.2,1.2-1.2h3.6c.7,0,1.2.6,1.2,1.2h.1Z"/>
              <path class="cls-40" d="M289.5,213v12.2h-6.1v-12.2c0-.7.6-1.2,1.2-1.2h3.6c.7,0,1.2.6,1.2,1.2h.1Z"/>
              <path class="cls-40" d="M276.2,213v12.2h-6.1v-12.2c0-.7.6-1.2,1.2-1.2h3.6c.7,0,1.2.6,1.2,1.2h.1Z"/>
            </g>
          </g>
          <g>
            <g>
              <path class="cls-40" d="M222.6,253v-12.2h9.6v12.2c0,.7-.6,1.2-1.2,1.2h-7.1c-.7,0-1.2-.6-1.2-1.2h-.1Z"/>
              <path class="cls-40" d="M242.2,253v-12.2h9.6v12.2c0,.7-.6,1.2-1.2,1.2h-7.1c-.7,0-1.2-.6-1.2-1.2h-.1Z"/>
            </g>
            <g>
              <path class="cls-40" d="M229.7,212.2v12.2h-6.1v-12.2c0-.7.6-1.2,1.2-1.2h3.6c.7,0,1.2.6,1.2,1.2h.1Z"/>
              <path class="cls-40" d="M240.3,212.2v12.2h-6.1v-12.2c0-.7.6-1.2,1.2-1.2h3.6c.7,0,1.2.6,1.2,1.2h.1Z"/>
              <path class="cls-40" d="M250.8,212.2v12.2h-6.1v-12.2c0-.7.6-1.2,1.2-1.2h3.6c.7,0,1.2.6,1.2,1.2h.1Z"/>
            </g>
            <rect class="cls-23" x="222" y="224.5" width="30.4" height="16.3" rx=".7" ry=".7"/>
          </g>
          <rect class="cls-37" x="227.7" y="266.7" width="21.5" height="9.8"/>
          <g>
            <rect class="cls-23" x="365.3" y="202.1" width="34.4" height="107"/>
            <g>
              <path class="cls-40" d="M348.4,204.6h16.9v5.9h-16.9c-.7,0-1.2-.6-1.2-1.2v-3.4c0-.7.6-1.2,1.2-1.2h0Z"/>
              <path class="cls-40" d="M348.4,218.4h16.9v5.9h-16.9c-.7,0-1.2-.6-1.2-1.2v-3.4c0-.7.6-1.2,1.2-1.2h0Z"/>
              <path class="cls-40" d="M348.4,232.1h16.9v5.9h-16.9c-.7,0-1.2-.6-1.2-1.2v-3.4c0-.7.6-1.2,1.2-1.2h0Z"/>
              <path class="cls-40" d="M348.4,245.8h16.9v5.9h-16.9c-.7,0-1.2-.6-1.2-1.2v-3.4c0-.7.6-1.2,1.2-1.2h0Z"/>
              <path class="cls-40" d="M348.4,259.5h16.9v5.9h-16.9c-.7,0-1.2-.6-1.2-1.2v-3.4c0-.7.6-1.2,1.2-1.2h0Z"/>
              <path class="cls-40" d="M348.4,273.3h16.9v5.9h-16.9c-.7,0-1.2-.6-1.2-1.2v-3.4c0-.7.6-1.2,1.2-1.2h0Z"/>
              <path class="cls-40" d="M348.4,287h16.9v5.9h-16.9c-.7,0-1.2-.6-1.2-1.2v-3.4c0-.7.6-1.2,1.2-1.2h0Z"/>
              <path class="cls-40" d="M348.4,300.7h16.9v5.9h-16.9c-.7,0-1.2-.6-1.2-1.2v-3.4c0-.7.6-1.2,1.2-1.2h0Z"/>
            </g>
            <g>
              <path class="cls-40" d="M416.6,306.6h-16.9v-5.9h16.9c.7,0,1.2.6,1.2,1.2v3.4c0,.7-.6,1.2-1.2,1.2h0Z"/>
              <path class="cls-40" d="M416.6,292.8h-16.9v-5.9h16.9c.7,0,1.2.6,1.2,1.2v3.4c0,.7-.6,1.2-1.2,1.2h0Z"/>
              <path class="cls-40" d="M416.6,279.1h-16.9v-5.9h16.9c.7,0,1.2.6,1.2,1.2v3.4c0,.7-.6,1.2-1.2,1.2h0Z"/>
              <path class="cls-40" d="M416.6,265.4h-16.9v-5.9h16.9c.7,0,1.2.6,1.2,1.2v3.4c0,.7-.6,1.2-1.2,1.2h0Z"/>
              <path class="cls-40" d="M416.6,251.7h-16.9v-5.9h16.9c.7,0,1.2.6,1.2,1.2v3.4c0,.7-.6,1.2-1.2,1.2h0Z"/>
              <path class="cls-40" d="M416.6,237.9h-16.9v-5.9h16.9c.7,0,1.2.6,1.2,1.2v3.4c0,.7-.6,1.2-1.2,1.2h0Z"/>
              <path class="cls-40" d="M416.6,224.2h-16.9v-5.9h16.9c.7,0,1.2.6,1.2,1.2v3.4c0,.7-.6,1.2-1.2,1.2h0Z"/>
              <path class="cls-40" d="M416.6,210.5h-16.9v-5.9h16.9c.7,0,1.2.6,1.2,1.2v3.4c0,.7-.6,1.2-1.2,1.2h0Z"/>
            </g>
            <circle class="cls-6" cx="391.6" cy="299.2" r="4.9"/>
          </g>
          <rect class="cls-37" x="438.5" y="254.6" width="21.5" height="9.8"/>
          <g>
            <rect class="cls-9" x="440.6" y="271.4" width="17.2" height="10.7"/>
            <rect class="cls-23" x="443.5" y="271.4" width="11.8" height="10.7"/>
          </g>
          <g>
            <rect class="cls-9" x="440.6" y="289" width="17.2" height="10.7"/>
            <rect class="cls-23" x="443.5" y="289" width="11.8" height="10.7"/>
          </g>
          <g>
            <rect class="cls-9" x="397" y="136.9" width="10.7" height="17.2"/>
            <rect class="cls-23" x="397" y="139.4" width="10.7" height="11.8"/>
          </g>
          <g>
            <rect class="cls-9" x="412.6" y="136.7" width="10.7" height="17.2"/>
            <rect class="cls-23" x="412.6" y="139.3" width="10.7" height="11.8"/>
          </g>
          <path class="cls-40" d="M311.6,185.5v-12.2h11.5v12.2c0,.7-.6,1.2-1.2,1.2h-9c-.7,0-1.2-.6-1.2-1.2h-.1Z"/>
          <g>
            <rect class="cls-8" x="274.5" y="55" width="51.5" height="35.1"/>
            <rect class="cls-19" x="286.9" y="55" width="26.7" height="35.1"/>
          </g>
          <g>
            <path class="cls-29" d="M369.8,20.9h87.6c2.7,1.4,4.4,4.2,4.4,7.3v70.1c0,1-.8,1.8-1.8,1.8h-92.8c-1,0-1.8-.8-1.8-1.8V28.1c0-3,1.7-5.8,4.4-7.3h0Z"/>
            <g>
              <path class="cls-26" d="M444.6,94.2h0c0-1.3-1.1-2.4-2.4-2.4h-9.9c-.8,0-1.5-.7-1.5-1.5v-2.1c0-.8.7-1.5,1.5-1.5h9.9c1.3,0,2.4-1.1,2.4-2.4h0c0-1.3-1.1-2.4-2.4-2.4h-14c-1.3,0-2.4,1.1-2.4,2.4v10c0,1.3,1.1,2.4,2.4,2.4h14c1.3,0,2.4-1.1,2.4-2.4h0Z"/>
              <path class="cls-26" d="M382.7,84.2h0c0,1.3,1.1,2.4,2.4,2.4h9.9c.8,0,1.5.7,1.5,1.5v2.1c0,.8-.7,1.5-1.5,1.5h-9.9c-1.3,0-2.4,1.1-2.4,2.4h0c0,1.3,1.1,2.4,2.4,2.4h14c1.3,0,2.4-1.1,2.4-2.4v-10c0-1.3-1.1-2.4-2.4-2.4h-14c-1.3,0-2.4,1.1-2.4,2.4h0Z"/>
            </g>
          </g>
          <g>
            <rect class="cls-23" x="197.9" y="101.8" width="69.5" height="37" rx="1.2" ry="1.2"/>
            <g>
              <path class="cls-40" d="M204.4,155.7v-16.9h5.9v16.9c0,.7-.6,1.2-1.2,1.2h-3.4c-.7,0-1.2-.6-1.2-1.2h-.1Z"/>
              <path class="cls-40" d="M229.7,155.6v-16.9h5.9v16.9c0,.7-.6,1.2-1.2,1.2h-3.4c-.7,0-1.2-.6-1.2-1.2h-.1Z"/>
              <path class="cls-40" d="M255.1,155.6v-16.9h5.9v16.9c0,.7-.6,1.2-1.2,1.2h-3.4c-.7,0-1.2-.6-1.2-1.2h-.1Z"/>
            </g>
            <path class="cls-40" d="M248.2,76.2v25.6h-34.3v-25.6c0-.7.6-1.2,1.2-1.2h31.8c.7,0,1.2.6,1.2,1.2h.1Z"/>
          </g>
          <rect class="cls-23" x="150.2" y="180" width="48.4" height="27.1"/>
          <g>
            <rect class="cls-29" x="15.8" y="223.1" width="20" height="20"/>
            <circle class="cls-25" cx="25.8" cy="233.1" r="7.4"/>
            <rect class="cls-29" x="15.8" y="251.8" width="20" height="20"/>
            <circle class="cls-25" cx="25.8" cy="261.8" r="7.4"/>
            <rect class="cls-29" x="15.8" y="280.4" width="20" height="20"/>
            <circle class="cls-25" cx="25.8" cy="290.5" r="7.4"/>
            <rect class="cls-29" x="15.8" y="309.1" width="20" height="20"/>
            <circle class="cls-25" cx="25.8" cy="319.1" r="7.4"/>
          </g>
          <g>
            <rect class="cls-18" x="9.1" y="335.5" width="33.4" height="240.9"/>
            <rect x="16" y="338.2" width="19.6" height="19.6"/>
            <rect x="16" y="368.7" width="19.6" height="19.6"/>
            <rect x="16" y="399.2" width="19.6" height="19.6"/>
            <rect x="16" y="429.7" width="19.6" height="19.6"/>
            <rect x="16" y="460.3" width="19.6" height="19.6"/>
            <rect x="16" y="490.8" width="19.6" height="19.6"/>
            <rect x="16" y="521.3" width="19.6" height="19.6"/>
            <rect x="16" y="551.8" width="19.6" height="19.6"/>
          </g>
          <g>
            <rect class="cls-18" x="9.1" y="582.1" width="33.4" height="178.8"/>
            <g>
              <rect x="16" y="585.4" width="19.6" height="19.6"/>
              <rect x="16" y="615.9" width="19.6" height="19.6"/>
              <rect x="16" y="646.4" width="19.6" height="19.6"/>
              <rect x="16" y="676.9" width="19.6" height="19.6"/>
              <rect x="16" y="707.4" width="19.6" height="19.6"/>
              <rect x="16" y="737.9" width="19.6" height="19.6"/>
            </g>
          </g>
          <g class="cls-2">
            <g class="cls-2">
              <path class="cls-7" d="M50.1,373.7h2.5v10.4h-2.5v-10.4Z"/>
              <path class="cls-7" d="M54.5,378.9c0-3.4,1.9-5.4,4.8-5.4s4.8,2,4.8,5.4-1.9,5.4-4.8,5.4-4.8-2-4.8-5.4ZM61.5,378.9c0-2-.8-3.2-2.2-3.2s-2.2,1.2-2.2,3.2.9,3.3,2.2,3.3,2.2-1.3,2.2-3.3Z"/>
              <path class="cls-7" d="M66,373.7h3.8c2.2,0,4.1.8,4.1,3.3s-.7,2.5-1.8,3l2.3,4.1h-2.8l-1.9-3.7h-1.2v3.7h-2.5v-10.4ZM69.6,378.5c1.2,0,1.8-.5,1.8-1.5s-.6-1.3-1.8-1.3h-1.1v2.8h1.1Z"/>
              <path class="cls-7" d="M75.9,373.7h6.6v2.1h-4.1v2h3.5v2.1h-3.5v2.2h4.3v2.1h-6.8v-10.4Z"/>
              <path class="cls-7" d="M84.7,373.7h6.7v2.1h-4.2v2.3h3.6v2.1h-3.6v4h-2.5v-10.4Z"/>
            </g>
          </g>
          <g class="cls-2">
            <g class="cls-2">
              <path class="cls-7" d="M51.4,404.2h3.8c2.2,0,4.1.8,4.1,3.3s-.7,2.5-1.8,3l2.3,4.1h-2.8l-1.9-3.7h-1.2v3.7h-2.5v-10.4ZM55,409c1.2,0,1.8-.5,1.8-1.5s-.6-1.3-1.8-1.3h-1.1v2.8h1.1Z"/>
              <path class="cls-7" d="M61.3,404.2h6.6v2.1h-4.1v2h3.5v2.1h-3.5v2.2h4.3v2.1h-6.8v-10.4Z"/>
              <path class="cls-7" d="M69.4,413.3l1.3-1.6c.7.6,1.7,1,2.6,1s1.4-.4,1.4-.9-.6-.8-1.5-1.2l-1.3-.6c-1.1-.4-2.1-1.3-2.1-2.8s1.6-3.2,3.8-3.2,2.5.5,3.4,1.3l-1.3,1.6c-.7-.5-1.4-.8-2.1-.8s-1.3.3-1.3.8.7.8,1.6,1.2l1.3.5c1.3.5,2.1,1.4,2.1,2.8s-1.5,3.3-4,3.3-2.8-.5-3.9-1.5Z"/>
              <path class="cls-7" d="M79,404.2h6.6v2.1h-4.1v2h3.5v2.1h-3.5v2.2h4.3v2.1h-6.8v-10.4Z"/>
              <path class="cls-7" d="M89.8,406.3h-2.8v-2.1h8.1v2.1h-2.8v8.3h-2.5v-8.3Z"/>
            </g>
          </g>
          <g class="cls-2">
            <g class="cls-2">
              <path class="cls-7" d="M51.7,444l1.1-1.6c.6.6,1.4,1,2.2,1s1.6-.4,1.6-1.1-.5-1.4-2.7-1.4v-1.7c1.8,0,2.3-.5,2.3-1.3s-.4-1.1-1.2-1.1-1.2.3-1.9.9l-1.2-1.5c.9-.8,2-1.3,3.2-1.3,2.2,0,3.6,1,3.6,2.8s-.6,1.8-1.7,2.2h0c1.2.4,2,1.2,2,2.5,0,1.9-1.8,3-3.8,3s-2.8-.6-3.6-1.4Z"/>
              <path class="cls-7" d="M60.9,443.9c0-.9.6-1.5,1.5-1.5s1.5.7,1.5,1.5-.6,1.5-1.5,1.5-1.5-.7-1.5-1.5Z"/>
              <path class="cls-7" d="M65.2,444l1.1-1.6c.6.6,1.4,1,2.2,1s1.6-.4,1.6-1.1-.5-1.4-2.7-1.4v-1.7c1.8,0,2.3-.5,2.3-1.3s-.4-1.1-1.2-1.1-1.2.3-1.9.9l-1.2-1.5c.9-.8,2-1.3,3.2-1.3,2.2,0,3.6,1,3.6,2.8s-.6,1.8-1.7,2.2h0c1.2.4,2,1.2,2,2.5,0,1.9-1.8,3-3.8,3s-2.8-.6-3.6-1.4Z"/>
              <path class="cls-7" d="M73.2,434.8h2.6l1.1,4.8c.3,1.1.5,2.2.8,3.3h0c.3-1.1.5-2.2.8-3.3l1.2-4.8h2.5l-3.2,10.4h-3l-3.1-10.4Z"/>
            </g>
          </g>
          <g class="cls-2">
            <g class="cls-2">
              <path class="cls-7" d="M53,474.5l1.1-1.6c.6.6,1.3,1,2.1,1s1.6-.5,1.6-1.5-.6-1.5-1.5-1.5-.9.1-1.5.5l-1.1-.7.3-5.2h5.8v2.1h-3.7v1.8c.2-.2.5-.2.9-.2,1.8,0,3.2,1,3.2,3.1s-1.8,3.6-3.8,3.6-2.8-.6-3.6-1.4Z"/>
              <path class="cls-7" d="M61,465.3h2.6l1.1,4.8c.3,1.1.5,2.2.8,3.3h0c.3-1.1.5-2.2.8-3.3l1.2-4.8h2.5l-3.2,10.4h-3l-3.1-10.4Z"/>
            </g>
          </g>
          <g class="cls-2">
            <g class="cls-2">
              <path class="cls-7" d="M54.6,501.1c0-3.5,2.3-5.5,5.1-5.5s2.6.6,3.3,1.4l-1.3,1.5c-.5-.5-1.1-.7-1.9-.7-1.5,0-2.7,1.2-2.7,3.2s.9,3.3,2.9,3.3.8,0,1-.3v-1.7h-1.7v-2h3.9v4.9c-.7.7-2,1.3-3.5,1.3-2.9,0-5.2-1.8-5.2-5.3Z"/>
              <path class="cls-7" d="M65.3,495.8h2.6l2.6,5c.4.7.7,1.5,1,2.4h0c-.1-1.1-.3-2.6-.3-3.8v-3.5h2.4v10.4h-2.6l-2.6-5c-.4-.7-.7-1.5-1-2.4h0c.1,1.2.3,2.6.3,3.8v3.5h-2.4v-10.4Z"/>
              <path class="cls-7" d="M76,495.8h3c3.2,0,5.3,1.6,5.3,5.2s-2.1,5.2-5.1,5.2h-3.1v-10.4ZM78.9,504.2c1.7,0,2.9-.8,2.9-3.2s-1.2-3.2-2.9-3.2h-.4v6.4h.4Z"/>
            </g>
          </g>
          <g class="cls-2">
            <g class="cls-2">
              <path class="cls-7" d="M55.8,531.6c0-3.5,2.3-5.5,5.1-5.5s2.6.6,3.3,1.4l-1.3,1.5c-.5-.5-1.1-.7-1.9-.7-1.5,0-2.7,1.2-2.7,3.2s.9,3.3,2.9,3.3.8,0,1-.3v-1.7h-1.7v-2h3.9v4.9c-.7.7-2,1.3-3.5,1.3-2.9,0-5.2-1.8-5.2-5.3Z"/>
              <path class="cls-7" d="M66.5,526.3h2.6l2.6,5c.4.7.7,1.5,1,2.4h0c-.1-1.1-.3-2.6-.3-3.8v-3.5h2.4v10.4h-2.6l-2.6-5c-.4-.7-.7-1.5-1-2.4h0c.1,1.2.3,2.6.3,3.8v3.5h-2.4v-10.4Z"/>
              <path class="cls-7" d="M77.2,526.3h3c3.2,0,5.3,1.6,5.3,5.2s-2.1,5.2-5.1,5.2h-3.1v-10.4ZM80.1,534.7c1.7,0,2.9-.8,2.9-3.2s-1.2-3.2-2.9-3.2h-.4v6.4h.4Z"/>
            </g>
          </g>
          <g class="cls-2">
            <g class="cls-2">
              <path class="cls-7" d="M56.2,556.8h2.6l1.1,4.8c.3,1.1.5,2.2.8,3.3h0c.3-1.1.5-2.2.8-3.3l1.2-4.8h2.5l-3.2,10.4h-3l-3.1-10.4Z"/>
              <path class="cls-7" d="M66.5,556.8h2.5v10.4h-2.5v-10.4Z"/>
              <path class="cls-7" d="M71.4,556.8h2.6l2.6,5c.4.7.7,1.5,1,2.4h0c-.1-1.1-.3-2.6-.3-3.8v-3.5h2.4v10.4h-2.6l-2.6-5c-.4-.7-.7-1.5-1-2.4h0c.1,1.2.3,2.6.3,3.8v3.5h-2.4v-10.4Z"/>
            </g>
          </g>
          <g class="cls-2">
            <g class="cls-2">
              <path class="cls-7" d="M60.7,590.4h3l3.2,10.4h-2.6l-.6-2.4h-3.1l-.6,2.4h-2.5l3.2-10.4ZM61.1,596.5h2.1l-.2-.9c-.3-1-.5-2.3-.8-3.3h0c-.3,1.1-.5,2.3-.8,3.3l-.2.9Z"/>
              <path class="cls-7" d="M67.4,595.7c0-3.5,1.5-5.2,3.7-5.2s3.7,1.8,3.7,5.2-1.5,5.3-3.7,5.3-3.7-1.9-3.7-5.3ZM72.4,595.7c0-2.8-.6-3.3-1.3-3.3s-1.3.6-1.3,3.3.6,3.4,1.3,3.4,1.3-.7,1.3-3.4Z"/>
            </g>
          </g>
          <g class="cls-2">
            <g class="cls-2">
              <path class="cls-7" d="M61.9,620.9h3l3.2,10.4h-2.6l-.6-2.4h-3.1l-.6,2.4h-2.5l3.2-10.4ZM62.3,627h2.1l-.2-.9c-.3-1-.5-2.3-.8-3.3h0c-.3,1.1-.5,2.3-.8,3.3l-.2.9Z"/>
              <path class="cls-7" d="M69.1,629.3h2.2v-5.7h-1.9v-1.5c1.1-.2,1.8-.5,2.6-.9h1.8v8.2h1.9v2h-6.6v-2Z"/>
            </g>
          </g>
          <g class="cls-2">
            <g class="cls-2">
              <path class="cls-7" d="M63.1,651.4h3l3.2,10.4h-2.6l-.6-2.4h-3.1l-.6,2.4h-2.5l3.2-10.4ZM63.5,657.5h2.1l-.2-.9c-.3-1-.5-2.3-.8-3.3h0c-.3,1.1-.5,2.3-.8,3.3l-.2.9Z"/>
              <path class="cls-7" d="M69.8,660.3c2.5-2.2,4.4-4,4.4-5.4s-.5-1.5-1.4-1.5-1.3.5-1.8,1l-1.3-1.3c1-1.1,1.9-1.7,3.4-1.7s3.4,1.3,3.4,3.2-1.7,3.5-3.4,5.1c.5,0,1.2-.1,1.7-.1h2.2v2.1h-7.2v-1.5Z"/>
            </g>
          </g>
          <g class="cls-2">
            <g class="cls-2">
              <path class="cls-7" d="M64.4,681.9h3l3.2,10.4h-2.6l-.6-2.4h-3.1l-.6,2.4h-2.5l3.2-10.4ZM64.8,688h2.1l-.2-.9c-.3-1-.5-2.3-.8-3.3h0c-.3,1.1-.5,2.3-.8,3.3l-.2.9Z"/>
              <path class="cls-7" d="M70.9,691.1l1.1-1.6c.6.6,1.4,1,2.2,1s1.6-.4,1.6-1.1-.5-1.4-2.7-1.4v-1.7c1.8,0,2.3-.5,2.3-1.3s-.4-1.1-1.2-1.1-1.2.3-1.9.9l-1.2-1.5c.9-.8,2-1.3,3.2-1.3,2.2,0,3.6,1,3.6,2.8s-.6,1.8-1.7,2.2h0c1.2.4,2,1.2,2,2.5,0,1.9-1.8,3-3.8,3s-2.8-.6-3.6-1.4Z"/>
            </g>
          </g>
          <g class="cls-2">
            <g class="cls-2">
              <path class="cls-7" d="M65.6,712.4h3l3.2,10.4h-2.6l-.6-2.4h-3.1l-.6,2.4h-2.5l3.2-10.4ZM66,718.5h2.1l-.2-.9c-.3-1-.5-2.3-.8-3.3h0c-.3,1.1-.5,2.3-.8,3.3l-.2.9Z"/>
              <path class="cls-7" d="M76.4,720.4h-4.4v-1.7l3.6-6.1h3.1v5.9h1.2v1.9h-1.2v2.4h-2.3v-2.4ZM76.4,718.5v-1.5c0-.7,0-1.6,0-2.3h0c-.3.6-.5,1.2-.8,1.8l-1.2,2.1h2Z"/>
              <path class="cls-7" d="M83.5,711.4h1.6l-3.1,13.9h-1.6l3.1-13.9Z"/>
              <path class="cls-7" d="M86.2,721.5l1.3-1.6c.7.6,1.7,1,2.6,1s1.4-.4,1.4-.9-.6-.8-1.5-1.2l-1.3-.6c-1.1-.4-2.1-1.3-2.1-2.8s1.6-3.2,3.8-3.2,2.5.5,3.4,1.3l-1.3,1.6c-.7-.5-1.4-.8-2.1-.8s-1.3.3-1.3.8.7.8,1.6,1.2l1.3.5c1.3.5,2.1,1.4,2.1,2.8s-1.5,3.3-4,3.3-2.8-.5-3.9-1.5Z"/>
              <path class="cls-7" d="M95.7,712.4h3c3.2,0,5.3,1.6,5.3,5.2s-2.1,5.2-5.1,5.2h-3.1v-10.4ZM98.6,720.8c1.7,0,2.9-.8,2.9-3.2s-1.2-3.2-2.9-3.2h-.4v6.4h.4Z"/>
              <path class="cls-7" d="M107.7,712.4h3l3.2,10.4h-2.6l-.6-2.4h-3.1l-.6,2.4h-2.5l3.2-10.4ZM108.1,718.5h2.1l-.2-.9c-.3-1-.5-2.3-.8-3.3h0c-.3,1.1-.5,2.3-.8,3.3l-.2.9Z"/>
            </g>
          </g>
          <g class="cls-2">
            <g class="cls-2">
              <path class="cls-7" d="M66.8,739.9h3l3.2,10.4h-2.6l-.6-2.4h-3.1l-.6,2.4h-2.5l3.2-10.4ZM67.2,746h2.1l-.2-.9c-.3-1-.5-2.3-.8-3.3h0c-.3,1.1-.5,2.3-.8,3.3l-.2.9Z"/>
              <path class="cls-7" d="M73.3,749.1l1.1-1.6c.6.6,1.3,1,2.1,1s1.6-.5,1.6-1.5-.6-1.5-1.5-1.5-.9.1-1.5.5l-1.1-.7.3-5.2h5.8v2.1h-3.7v1.8c.2-.2.5-.2.9-.2,1.8,0,3.2,1,3.2,3.1s-1.8,3.6-3.8,3.6-2.8-.6-3.6-1.4Z"/>
              <path class="cls-7" d="M84.7,738.9h1.6l-3.1,13.9h-1.6l3.1-13.9Z"/>
              <path class="cls-7" d="M87.4,749l1.3-1.6c.7.6,1.7,1,2.6,1s1.4-.4,1.4-.9-.6-.8-1.5-1.2l-1.3-.6c-1.1-.4-2.1-1.3-2.1-2.8s1.6-3.2,3.8-3.2,2.5.5,3.4,1.3l-1.3,1.6c-.7-.5-1.4-.8-2.1-.8s-1.3.3-1.3.8.7.8,1.6,1.2l1.3.5c1.3.5,2.1,1.4,2.1,2.8s-1.5,3.3-4,3.3-2.8-.5-3.9-1.5Z"/>
              <path class="cls-7" d="M96.5,745.2c0-3.5,2.3-5.5,5-5.5s2.4.6,3.2,1.4l-1.3,1.5c-.5-.5-1.1-.7-1.8-.7-1.4,0-2.5,1.2-2.5,3.2s1,3.3,2.4,3.3,1.5-.3,2-.9l1.3,1.5c-.9,1-2.1,1.5-3.4,1.5-2.7,0-4.9-1.8-4.9-5.3Z"/>
              <path class="cls-7" d="M106.3,739.9h2.5v8.3h4v2.1h-6.5v-10.4Z"/>
            </g>
          </g>
          <g class="cls-2">
            <g class="cls-2">
              <path class="cls-7" d="M119.3,433v3.7c0,2.3-.8,4.2-3.4,4.2s-3.6-1.9-3.6-4.1v-1.2h-3.5v-2.5h10.4ZM114.3,436.6c0,1.2.6,1.8,1.6,1.8s1.4-.7,1.4-1.9v-1h-3v1.1Z"/>
              <path class="cls-7" d="M114.2,442.1c3.4,0,5.4,1.9,5.4,4.8s-2,4.8-5.4,4.8-5.4-1.9-5.4-4.8,2-4.8,5.4-4.8ZM114.2,449.1c2,0,3.2-.8,3.2-2.2s-1.2-2.2-3.2-2.2-3.3.9-3.3,2.2,1.3,2.2,3.3,2.2Z"/>
              <path class="cls-7" d="M119.3,452.6v2.5l-4.8.7c-1.1.1-2.2.3-3.3.4h0c1.1.3,2.2.5,3.3.7l4.8,1.1v2.1l-4.8,1.1c-1.1.2-2.2.4-3.3.6h0c1.2.2,2.3.3,3.3.4l4.8.7v2.4l-10.4-1.8v-3.2l4.6-.9c.8-.2,1.6-.3,2.5-.4h0c-.8-.2-1.6-.3-2.5-.5l-4.6-.9v-3.1l10.4-1.9Z"/>
              <path class="cls-7" d="M119.3,466.6v6.6h-2.1v-4.1h-2v3.5h-2.1v-3.5h-2.2v4.3h-2.1v-6.8h10.4Z"/>
              <path class="cls-7" d="M119.3,475.4v3.8c0,2.2-.8,4.1-3.3,4.1s-2.5-.7-3-1.8l-4.1,2.3v-2.8l3.7-1.9v-1.2h-3.7v-2.5h10.4ZM114.5,479.1c0,1.2.5,1.8,1.5,1.8s1.3-.6,1.3-1.8v-1.1h-2.8v1.1Z"/>
            </g>
          </g>
          <g class="cls-2">
            <g class="cls-2">
              <path class="cls-7" d="M119.3,635v3l-10.4,3.2v-2.6l2.4-.6v-3.1l-2.4-.6v-2.5l10.4,3.2ZM113.2,635.4v2.1l.9-.2c1-.3,2.3-.5,3.3-.8h0c-1.1-.3-2.3-.6-3.3-.9l-.9-.2Z"/>
              <path class="cls-7" d="M119.3,642.3v2.6l-5,2.6c-.7.4-1.5.7-2.4,1h0c1.1,0,2.6-.3,3.8-.3h3.5v2.4h-10.4v-2.6l5-2.6c.7-.4,1.5-.7,2.4-1h0c-1.2,0-2.6.3-3.8.3h-3.5v-2.4h10.4Z"/>
              <path class="cls-7" d="M119.3,654.9v3l-10.4,3.2v-2.6l2.4-.6v-3.1l-2.4-.6v-2.5l10.4,3.2ZM113.2,655.3v2.1l.9-.2c1-.3,2.3-.5,3.3-.8h0c-1.1-.3-2.3-.6-3.3-.9l-.9-.2Z"/>
              <path class="cls-7" d="M119.3,662.2v2.5h-8.3v4h-2.1v-6.5h10.4Z"/>
              <path class="cls-7" d="M114.2,669.5c3.4,0,5.4,1.9,5.4,4.8s-2,4.8-5.4,4.8-5.4-1.9-5.4-4.8,2-4.8,5.4-4.8ZM114.2,676.5c2,0,3.2-.8,3.2-2.2s-1.2-2.2-3.2-2.2-3.3.9-3.3,2.2,1.3,2.2,3.3,2.2Z"/>
              <path class="cls-7" d="M114,680.5c3.5,0,5.5,2.3,5.5,5.1s-.6,2.6-1.4,3.3l-1.5-1.3c.5-.5.7-1.1.7-1.9,0-1.5-1.2-2.7-3.2-2.7s-3.3.9-3.3,2.9,0,.8.3,1h1.7v-1.7h2v3.9h-4.9c-.7-.7-1.3-2-1.3-3.5,0-2.9,1.8-5.2,5.3-5.2Z"/>
              <path class="cls-7" d="M119.3,694.4v2.5h-10.4v-2.5h10.4Z"/>
              <path class="cls-7" d="M119.3,699.3v2.6l-5,2.6c-.7.4-1.5.7-2.4,1h0c1.1,0,2.6-.3,3.8-.3h3.5v2.4h-10.4v-2.6l5-2.6c.7-.4,1.5-.7,2.4-1h0c-1.2,0-2.6.3-3.8.3h-3.5v-2.4h10.4Z"/>
            </g>
          </g>
          <path class="cls-36" d="M125.8,590.7h0c1.2,0,2.2,1,2.2,2.3v155.3c0,1.3-1,2.3-2.2,2.3h0c-1.2,0-2.2-1-2.2-2.3v-155.3c0-1.3,1-2.3,2.2-2.3Z"/>
          <path class="cls-36" d="M125.8,364.1h0c1.2,0,2.2,1,2.2,2.3v183.1c0,1.3-1,2.3-2.2,2.3h0c-1.2,0-2.2-1-2.2-2.3v-183.1c0-1.3,1-2.3,2.2-2.3Z"/>
          <g>
            <g>
              <polygon class="cls-34" points="292.1 740.7 288.5 740.7 288.4 740.7 284.8 740.7 276.4 749.1 276.4 782.2 284.8 790.6 288.4 790.6 288.5 790.6 292.1 790.6 300.6 782.2 300.6 749.1 292.1 740.7"/>
              <g>
                <rect class="cls-24" x="285.4" y="750.2" width="6.2" height="6.2"/>
                <rect class="cls-24" x="285.4" y="774.8" width="6.2" height="6.2"/>
              </g>
            </g>
            <g>
              <polygon class="cls-34" points="316.3 740.7 312.7 740.7 312.7 740.7 309 740.7 300.6 749.1 300.6 782.2 309 790.6 312.7 790.6 312.7 790.6 316.3 790.6 324.8 782.2 324.8 749.1 316.3 740.7"/>
              <g>
                <rect class="cls-24" x="309.6" y="750.2" width="6.2" height="6.2"/>
                <rect class="cls-24" x="309.6" y="774.8" width="6.2" height="6.2"/>
              </g>
            </g>
            <g>
              <polygon class="cls-34" points="340.5 740.7 336.9 740.7 336.9 740.7 333.2 740.7 324.8 749.1 324.8 782.2 333.2 790.6 336.9 790.6 336.9 790.6 340.5 790.6 349 782.2 349 749.1 340.5 740.7"/>
              <g>
                <rect class="cls-24" x="333.8" y="750.2" width="6.2" height="6.2"/>
                <rect class="cls-24" x="333.8" y="774.8" width="6.2" height="6.2"/>
              </g>
            </g>
          </g>
          <path class="cls-36" d="M270.3,729.2c-1.3,0-2.3,1-2.3,2.3v58.5c0,1.3,1,2.3,2.3,2.3h0c1.3,0,2.3-1,2.3-2.3v-53.9c0-1.3,1-2.3,2.3-2.3h75.6c1.3,0,2.3,1,2.3,2.3v53.9c0,1.3,1,2.3,2.3,2.3h0c1.3,0,2.3-1,2.3-2.3v-58.5c0-1.3-1-2.3-2.3-2.3h-84.8Z"/>
          <path class="cls-36" d="M467.1,354.5h0c1.2,0,2.2,1,2.2,2.3v390.1c0,1.3-1,2.3-2.2,2.3h0c-1.2,0-2.2-1-2.2-2.3v-390.1c0-1.3,1-2.3,2.2-2.3Z"/>
          <g class="cls-2">
            <g class="cls-2">
              <path class="cls-7" d="M486.3,495.8v3c0,3.2-1.6,5.3-5.2,5.3s-5.2-2.1-5.2-5.1v-3.1h10.4ZM477.9,498.6c0,1.7.8,2.9,3.2,2.9s3.2-1.2,3.2-2.9v-.4h-6.4v.4Z"/>
              <path class="cls-7" d="M486.3,506v2.5h-10.4v-2.5h10.4Z"/>
              <path class="cls-7" d="M481,510.4c3.5,0,5.5,2.3,5.5,5.1s-.6,2.6-1.4,3.3l-1.5-1.3c.5-.5.7-1.1.7-1.9,0-1.5-1.2-2.7-3.2-2.7s-3.3.9-3.3,2.9,0,.8.3,1h1.7v-1.7h2v3.9h-4.9c-.7-.7-1.3-2-1.3-3.5,0-2.9,1.8-5.2,5.3-5.2Z"/>
              <path class="cls-7" d="M486.3,521.1v2.5h-10.4v-2.5h10.4Z"/>
              <path class="cls-7" d="M484.2,528.1v-2.8h2.1v8.1h-2.1v-2.8h-8.3v-2.5h8.3Z"/>
              <path class="cls-7" d="M486.3,536.2v3l-10.4,3.2v-2.6l2.4-.6v-3.1l-2.4-.6v-2.5l10.4,3.2ZM480.2,536.6v2.1l.9-.2c1-.3,2.3-.5,3.3-.8h0c-1.1-.3-2.3-.6-3.3-.9l-.9-.2Z"/>
              <path class="cls-7" d="M486.3,543.5v2.5h-8.3v4h-2.1v-6.5h10.4Z"/>
              <path class="cls-7" d="M480.4,555c2.8,0,5.1.8,7.3,2.1l-.6,1.6c-2.1-1.2-4.4-1.7-6.7-1.7s-4.6.5-6.7,1.7l-.6-1.6c2.2-1.3,4.5-2.1,7.3-2.1Z"/>
              <path class="cls-7" d="M486.3,560.7v3.7c0,2.3-.8,4.2-3.4,4.2s-3.6-1.9-3.6-4.1v-1.2h-3.5v-2.5h10.4ZM481.3,564.3c0,1.2.6,1.8,1.6,1.8s1.4-.7,1.4-1.9v-1h-3v1.1Z"/>
              <path class="cls-7" d="M486.3,569.3v2.5l-4.8.7c-1.1.1-2.2.3-3.3.4h0c1.1.3,2.2.5,3.3.7l4.8,1.1v2.1l-4.8,1.1c-1.1.2-2.2.4-3.3.6h0c1.2.2,2.3.3,3.3.4l4.8.7v2.4l-10.4-1.8v-3.2l4.6-.9c.8-.2,1.6-.3,2.5-.4h0c-.8-.2-1.6-.3-2.5-.5l-4.6-.9v-3.1l10.4-1.9Z"/>
              <path class="cls-7" d="M486.3,583.3v2.7l-4.5,1.6c-.6.2-1.2.4-1.9.6h0c.7.3,1.3.4,1.9.6l4.5,1.6v2.7h-10.4v-2.3h3.6c1,0,2.8.2,3.8.3h0c0,0-2.7-.9-2.7-.9l-3.8-1.4v-1.4l3.8-1.4,2.7-.8h0c-1,0-2.8.3-3.8.3h-3.6v-2.2h10.4Z"/>
              <path class="cls-7" d="M480.9,597.3c0-.4-.4-.8-.9-1.1l1-1.3c1.2.8,1.7,1.6,1.7,2.4,0,1.3-1.2,1.9-1.2,2.8s.4.8.9,1.1l-1,1.3c-1.2-.8-1.7-1.6-1.7-2.4,0-1.3,1.2-1.9,1.2-2.8Z"/>
              <path class="cls-7" d="M473.7,603.7c2.1,1.2,4.4,1.7,6.7,1.7s4.6-.5,6.7-1.7l.6,1.6c-2.2,1.3-4.5,2.1-7.3,2.1s-5.1-.8-7.3-2.1l.6-1.6Z"/>
            </g>
          </g>
          <g>
            <rect class="cls-18" x="558.8" y="524.5" width="33.4" height="240.9"/>
            <rect x="565.7" y="527.2" width="19.6" height="19.6"/>
            <rect x="565.7" y="557.7" width="19.6" height="19.6"/>
            <rect x="565.7" y="588.2" width="19.6" height="19.6"/>
            <rect x="565.7" y="618.8" width="19.6" height="19.6"/>
            <rect x="565.7" y="649.3" width="19.6" height="19.6"/>
            <rect x="565.7" y="679.8" width="19.6" height="19.6"/>
            <rect x="565.7" y="710.3" width="19.6" height="19.6"/>
            <rect x="565.7" y="740.8" width="19.6" height="19.6"/>
          </g>
          <g>
            <rect class="cls-18" x="558.8" y="221.3" width="33.4" height="301.1"/>
            <rect x="565.7" y="286" width="19.6" height="19.6"/>
            <rect x="565.7" y="316.5" width="19.6" height="19.6"/>
            <rect x="565.7" y="347" width="19.6" height="19.6"/>
            <rect x="565.7" y="377.5" width="19.6" height="19.6"/>
            <rect x="565.7" y="408" width="19.6" height="19.6"/>
            <rect x="565.7" y="438.5" width="19.6" height="19.6"/>
            <rect x="565.7" y="469" width="19.6" height="19.6"/>
            <rect x="565.7" y="499.5" width="19.6" height="19.6"/>
            <rect x="565.7" y="255.4" width="19.6" height="19.6"/>
            <rect x="565.7" y="225.2" width="19.6" height="19.6"/>
          </g>
          <g>
            <g class="cls-2">
              <g class="cls-2">
                <path class="cls-7" d="M508.6,230.2h3l3.2,10.4h-2.6l-.6-2.4h-3.1l-.6,2.4h-2.5l3.2-10.4ZM509,236.3h2.1l-.2-.9c-.3-1-.5-2.3-.8-3.3h0c-.3,1.1-.5,2.3-.8,3.3l-.2.9Z"/>
                <path class="cls-7" d="M515.1,239.4l1.1-1.6c.6.6,1.3,1,2.1,1s1.6-.5,1.6-1.5-.6-1.5-1.5-1.5-.9.1-1.5.5l-1.1-.7.3-5.2h5.8v2.1h-3.7v1.8c.2-.2.5-.2.9-.2,1.8,0,3.2,1,3.2,3.1s-1.8,3.6-3.8,3.6-2.8-.6-3.6-1.4Z"/>
                <path class="cls-7" d="M526.5,229.2h1.6l-3.1,13.9h-1.6l3.1-13.9Z"/>
                <path class="cls-7" d="M529.2,239.3l1.3-1.6c.7.6,1.7,1,2.6,1s1.4-.4,1.4-.9-.6-.8-1.5-1.2l-1.3-.6c-1.1-.4-2.1-1.3-2.1-2.8s1.6-3.2,3.8-3.2,2.5.5,3.4,1.3l-1.3,1.6c-.7-.5-1.4-.8-2.1-.8s-1.3.3-1.3.8.7.8,1.6,1.2l1.3.5c1.3.5,2.1,1.4,2.1,2.8s-1.5,3.3-4,3.3-2.8-.5-3.9-1.5Z"/>
                <path class="cls-7" d="M538.3,235.5c0-3.5,2.3-5.5,5-5.5s2.4.6,3.2,1.4l-1.3,1.5c-.5-.5-1.1-.7-1.8-.7-1.4,0-2.5,1.2-2.5,3.2s1,3.3,2.4,3.3,1.5-.3,2-.9l1.3,1.5c-.9,1-2.1,1.5-3.4,1.5-2.7,0-4.9-1.8-4.9-5.3Z"/>
                <path class="cls-7" d="M548.1,230.2h2.5v8.3h4.1v2.1h-6.5v-10.4Z"/>
              </g>
            </g>
            <g class="cls-2">
              <g class="cls-2">
                <path class="cls-7" d="M506.3,260.5h3l3.2,10.4h-2.6l-.6-2.4h-3.1l-.6,2.4h-2.5l3.2-10.4ZM506.7,266.6h2.1l-.2-.9c-.3-1-.5-2.3-.8-3.3h0c-.3,1.1-.5,2.3-.8,3.3l-.2.9Z"/>
                <path class="cls-7" d="M517.1,268.5h-4.4v-1.7l3.6-6.1h3.1v5.9h1.2v1.9h-1.2v2.4h-2.3v-2.4ZM517.1,266.6v-1.5c0-.7,0-1.6,0-2.3h0c-.3.6-.5,1.2-.8,1.8l-1.2,2.1h2Z"/>
                <path class="cls-7" d="M524.2,259.5h1.6l-3.1,13.9h-1.6l3.1-13.9Z"/>
                <path class="cls-7" d="M526.9,269.6l1.3-1.6c.7.6,1.7,1,2.6,1s1.4-.4,1.4-.9-.6-.8-1.5-1.2l-1.3-.6c-1.1-.4-2.1-1.3-2.1-2.8s1.6-3.2,3.8-3.2,2.5.5,3.4,1.3l-1.3,1.6c-.7-.5-1.4-.8-2.1-.8s-1.3.3-1.3.8.7.8,1.6,1.2l1.3.5c1.3.5,2.1,1.4,2.1,2.8s-1.5,3.3-4,3.3-2.8-.5-3.9-1.5Z"/>
                <path class="cls-7" d="M536.4,260.5h3c3.2,0,5.3,1.6,5.3,5.2s-2.1,5.2-5.1,5.2h-3.1v-10.4ZM539.3,268.9c1.7,0,2.9-.8,2.9-3.2s-1.2-3.2-2.9-3.2h-.4v6.4h.4Z"/>
                <path class="cls-7" d="M548.4,260.5h3l3.2,10.4h-2.6l-.6-2.4h-3.1l-.6,2.4h-2.5l3.2-10.4ZM548.8,266.6h2.1l-.2-.9c-.3-1-.5-2.3-.8-3.3h0c-.3,1.1-.5,2.3-.8,3.3l-.2.9Z"/>
              </g>
            </g>
            <g class="cls-2">
              <g class="cls-2">
                <path class="cls-7" d="M520.8,291h3l3.2,10.4h-2.6l-.6-2.4h-3.1l-.6,2.4h-2.5l3.2-10.4ZM521.2,297.1h2.1l-.2-.9c-.3-1-.5-2.3-.8-3.3h0c-.3,1.1-.5,2.3-.8,3.3l-.2.9Z"/>
                <path class="cls-7" d="M528.1,291h3.8c2.2,0,4.1.8,4.1,3.3s-.7,2.5-1.8,3l2.3,4.1h-2.8l-1.9-3.7h-1.2v3.7h-2.5v-10.4ZM531.8,295.8c1.2,0,1.8-.5,1.8-1.5s-.6-1.3-1.8-1.3h-1.1v2.8h1.1Z"/>
                <path class="cls-7" d="M538,291h6.6v2.1h-4.1v2h3.5v2.1h-3.5v2.2h4.3v2.1h-6.8v-10.4Z"/>
                <path class="cls-7" d="M546.8,291h6.7v2.1h-4.2v2.3h3.6v2.1h-3.6v4h-2.5v-10.4Z"/>
              </g>
            </g>
            <g class="cls-2">
              <g class="cls-2">
                <path class="cls-7" d="M523.1,326.8c0-3.5,2.3-5.5,5.1-5.5s2.6.6,3.3,1.4l-1.3,1.5c-.5-.5-1.1-.7-1.9-.7-1.5,0-2.7,1.2-2.7,3.2s.9,3.3,2.9,3.3.8,0,1-.3v-1.7h-1.7v-2h3.9v4.9c-.7.7-2,1.3-3.5,1.3-2.9,0-5.2-1.8-5.2-5.3Z"/>
                <path class="cls-7" d="M533.8,321.5h2.6l2.6,5c.4.7.7,1.5,1,2.4h0c-.1-1.1-.3-2.6-.3-3.8v-3.5h2.4v10.4h-2.6l-2.6-5c-.4-.7-.7-1.5-1-2.4h0c.1,1.2.3,2.6.3,3.8v3.5h-2.4v-10.4Z"/>
                <path class="cls-7" d="M544.5,321.5h3c3.2,0,5.3,1.6,5.3,5.2s-2.1,5.2-5.1,5.2h-3.1v-10.4ZM547.4,329.9c1.7,0,2.9-.8,2.9-3.2s-1.2-3.2-2.9-3.2h-.4v6.4h.4Z"/>
              </g>
            </g>
            <g class="cls-2">
              <g class="cls-2">
                <path class="cls-7" d="M495.1,360.4h2.2v-5.7h-1.9v-1.5c1.1-.2,1.8-.5,2.6-.9h1.8v8.2h1.9v2h-6.6v-2Z"/>
                <path class="cls-7" d="M502.8,361.2l1.1-1.6c.6.6,1.4,1,2.2,1s1.6-.4,1.6-1.1-.5-1.4-2.7-1.4v-1.7c1.8,0,2.3-.5,2.3-1.3s-.4-1.1-1.2-1.1-1.2.3-1.9.9l-1.2-1.5c.9-.8,2-1.3,3.2-1.3,2.2,0,3.6,1,3.6,2.8s-.6,1.8-1.7,2.2h0c1.2.4,2,1.2,2,2.5,0,1.9-1.8,3-3.8,3s-2.8-.6-3.6-1.4Z"/>
                <path class="cls-7" d="M514.3,351h1.6l-3.1,13.9h-1.6l3.1-13.9Z"/>
                <path class="cls-7" d="M517,361.1l1.3-1.6c.7.6,1.7,1,2.6,1s1.4-.4,1.4-.9-.6-.8-1.5-1.2l-1.3-.6c-1.1-.4-2.1-1.3-2.1-2.8s1.6-3.2,3.8-3.2,2.5.5,3.4,1.3l-1.3,1.6c-.7-.5-1.4-.8-2.1-.8s-1.3.3-1.3.8.7.8,1.6,1.2l1.3.5c1.3.5,2.1,1.4,2.1,2.8s-1.5,3.3-4,3.3-2.8-.5-3.9-1.5Z"/>
                <path class="cls-7" d="M526.1,357.3c0-3.5,2.3-5.5,5-5.5s2.4.6,3.2,1.4l-1.3,1.5c-.5-.5-1.1-.7-1.8-.7-1.4,0-2.5,1.2-2.5,3.2s1,3.3,2.4,3.3,1.5-.3,2-.9l1.3,1.5c-.9,1-2.1,1.5-3.4,1.5-2.7,0-4.9-1.8-4.9-5.3Z"/>
                <path class="cls-7" d="M535.9,352h2.5v8.3h4v2.1h-6.5v-10.4Z"/>
                <path class="cls-7" d="M544.2,352h2.5v4.1h0l3-4.1h2.7l-3.1,4.2,3.7,6.2h-2.7l-2.5-4.3-1.1,1.5v2.7h-2.5v-10.4Z"/>
              </g>
            </g>
            <g class="cls-2">
              <g class="cls-2">
                <path class="cls-7" d="M493.9,390.9h2.2v-5.7h-1.9v-1.5c1.1-.2,1.8-.5,2.6-.9h1.8v8.2h1.9v2h-6.6v-2Z"/>
                <path class="cls-7" d="M501.9,391.4c2.5-2.2,4.4-4,4.4-5.4s-.5-1.5-1.4-1.5-1.3.5-1.8,1l-1.3-1.3c1-1.1,1.9-1.7,3.4-1.7s3.4,1.3,3.4,3.2-1.7,3.5-3.4,5.1c.5,0,1.2-.1,1.7-.1h2.2v2.1h-7.2v-1.5Z"/>
                <path class="cls-7" d="M513.1,381.5h1.6l-3.1,13.9h-1.6l3.1-13.9Z"/>
                <path class="cls-7" d="M516.4,382.5h2.7l1.6,4.5c.2.6.4,1.2.6,1.9h0c.2-.7.4-1.3.6-1.9l1.6-4.5h2.7v10.4h-2.3v-3.6c0-1,.2-2.8.3-3.8h0l-.9,2.7-1.4,3.8h-1.4l-1.4-3.8-.8-2.7h0c.1,1,.3,2.8.3,3.8v3.6h-2.2v-10.4Z"/>
                <path class="cls-7" d="M528.7,382.5h2.5v10.4h-2.5v-10.4Z"/>
                <path class="cls-7" d="M532.9,391.6l1.3-1.6c.7.6,1.7,1,2.6,1s1.4-.4,1.4-.9-.6-.8-1.5-1.2l-1.3-.6c-1.1-.4-2.1-1.3-2.1-2.8s1.6-3.2,3.8-3.2,2.5.5,3.4,1.3l-1.3,1.6c-.7-.5-1.4-.8-2.1-.8s-1.3.3-1.3.8.7.8,1.6,1.2l1.3.5c1.3.5,2.1,1.4,2.1,2.8s-1.5,3.3-4,3.3-2.8-.5-3.9-1.5Z"/>
                <path class="cls-7" d="M542,387.6c0-3.4,1.9-5.4,4.8-5.4s4.8,2,4.8,5.4-1.9,5.4-4.8,5.4-4.8-2-4.8-5.4ZM549,387.6c0-2-.8-3.2-2.2-3.2s-2.2,1.2-2.2,3.2.9,3.3,2.2,3.3,2.2-1.3,2.2-3.3Z"/>
              </g>
            </g>
            <g class="cls-2">
              <g class="cls-2">
                <path class="cls-7" d="M486.6,418.4c-.4,0-.8.4-1.1.9l-1.3-1c.8-1.2,1.6-1.7,2.4-1.7,1.3,0,1.9,1.2,2.8,1.2s.8-.4,1.1-.9l1.3,1c-.8,1.2-1.6,1.7-2.4,1.7-1.3,0-1.9-1.2-2.8-1.2Z"/>
                <path class="cls-7" d="M493.3,421.4h2.2v-5.7h-1.9v-1.5c1.1-.2,1.8-.5,2.6-.9h1.8v8.2h1.9v2h-6.6v-2Z"/>
                <path class="cls-7" d="M501.8,421.4h2.2v-5.7h-1.9v-1.5c1.1-.2,1.8-.5,2.6-.9h1.8v8.2h1.9v2h-6.6v-2Z"/>
                <path class="cls-7" d="M512.5,412h1.6l-3.1,13.9h-1.6l3.1-13.9Z"/>
                <path class="cls-7" d="M515.8,413h2.7l1.6,4.5c.2.6.4,1.2.6,1.9h0c.2-.7.4-1.3.6-1.9l1.6-4.5h2.7v10.4h-2.3v-3.6c0-1,.2-2.8.3-3.8h0l-.9,2.7-1.4,3.8h-1.4l-1.4-3.8-.8-2.7h0c.1,1,.3,2.8.3,3.8v3.6h-2.2v-10.4Z"/>
                <path class="cls-7" d="M527.6,418.2c0-3.4,1.9-5.4,4.8-5.4s4.8,2,4.8,5.4-1.9,5.4-4.8,5.4-4.8-2-4.8-5.4ZM534.6,418.2c0-2-.8-3.2-2.2-3.2s-2.2,1.2-2.2,3.2.9,3.3,2.2,3.3,2.2-1.3,2.2-3.3Z"/>
                <path class="cls-7" d="M538.4,422.1l1.3-1.6c.7.6,1.7,1,2.6,1s1.4-.4,1.4-.9-.6-.8-1.5-1.2l-1.3-.6c-1.1-.4-2.1-1.3-2.1-2.8s1.6-3.2,3.8-3.2,2.5.5,3.4,1.3l-1.3,1.6c-.7-.5-1.4-.8-2.1-.8s-1.3.3-1.3.8.7.8,1.6,1.2l1.3.5c1.3.5,2.1,1.4,2.1,2.8s-1.5,3.3-4,3.3-2.8-.5-3.9-1.5Z"/>
                <path class="cls-7" d="M548,413h2.5v10.4h-2.5v-10.4Z"/>
              </g>
            </g>
            <g class="cls-2">
              <g class="cls-2">
                <path class="cls-7" d="M528.5,448.9c-.4,0-.8.4-1.1.9l-1.3-1c.8-1.2,1.6-1.7,2.4-1.7,1.3,0,1.9,1.2,2.8,1.2s.8-.4,1.1-.9l1.3,1c-.8,1.2-1.6,1.7-2.4,1.7-1.3,0-1.9-1.2-2.8-1.2Z"/>
                <path class="cls-7" d="M535.2,451.9h2.2v-5.7h-1.9v-1.5c1.1-.2,1.8-.5,2.6-.9h1.8v8.2h1.9v2h-6.6v-2Z"/>
                <path class="cls-7" d="M543.2,448.8c0-3.5,1.5-5.2,3.7-5.2s3.7,1.8,3.7,5.2-1.5,5.3-3.7,5.3-3.7-1.9-3.7-5.3ZM548.2,448.8c0-2.8-.6-3.3-1.3-3.3s-1.3.6-1.3,3.3.6,3.4,1.3,3.4,1.3-.7,1.3-3.4Z"/>
              </g>
            </g>
            <g class="cls-2">
              <g class="cls-2">
                <path class="cls-7" d="M536.5,479.4c-.4,0-.8.4-1.1.9l-1.3-1c.8-1.2,1.6-1.7,2.4-1.7,1.3,0,1.9,1.2,2.8,1.2s.8-.4,1.1-.9l1.3,1c-.8,1.2-1.6,1.7-2.4,1.7-1.3,0-1.9-1.2-2.8-1.2Z"/>
                <path class="cls-7" d="M542.8,483.3l1.3-1.5c.3.4,1,.7,1.6.7,1.1,0,1.9-.8,2-3-.5.7-1.4,1.1-2,1.1-1.7,0-3.1-1-3.1-3.1s1.6-3.4,3.4-3.4,3.9,1.5,3.9,5.1-2,5.5-4.1,5.5-2.4-.6-3-1.2ZM546.2,478.9c.5,0,1.1-.3,1.5-.9-.2-1.6-.9-2-1.5-2s-1.2.4-1.2,1.6.5,1.4,1.3,1.4Z"/>
              </g>
            </g>
            <g class="cls-2">
              <g class="cls-2">
                <path class="cls-7" d="M542.2,512.4c0-1.2.8-2,1.7-2.5h0c-.8-.7-1.4-1.4-1.4-2.5,0-1.7,1.4-2.8,3.3-2.8s3.1,1.1,3.1,2.8-.6,1.7-1.3,2.2h0c1,.6,1.8,1.4,1.8,2.7s-1.5,2.8-3.6,2.8-3.6-1.1-3.6-2.8ZM547.1,512.3c0-.8-.8-1.2-2.1-1.7-.4.4-.7.9-.7,1.5,0,.9.7,1.4,1.5,1.4s1.3-.4,1.3-1.2ZM546.9,507.6c0-.8-.4-1.3-1.2-1.3s-1.1.4-1.1,1.1.7,1.2,1.7,1.6c.4-.5.6-.9.6-1.4Z"/>
              </g>
            </g>
            <g class="cls-2">
              <g class="cls-2">
                <path class="cls-7" d="M546.1,534.5h-4.5v-2.1h7.1v1.5c-2.4,2.8-2.8,4.7-3,8.6h-2.5c.2-3.3.8-5.4,2.8-8.1Z"/>
              </g>
            </g>
            <g class="cls-2">
              <g class="cls-2">
                <path class="cls-7" d="M534.7,568.1c-.4,0-.8.4-1.1.9l-1.3-1c.8-1.2,1.6-1.7,2.4-1.7,1.3,0,1.9,1.2,2.8,1.2s.8-.4,1.1-.9l1.3,1c-.8,1.2-1.6,1.7-2.4,1.7-1.3,0-1.9-1.2-2.8-1.2Z"/>
                <path class="cls-7" d="M541,568.2c0-3.8,2-5.5,4.1-5.5s2.4.6,3,1.2l-1.3,1.5c-.3-.4-1-.7-1.6-.7-1.1,0-1.9.8-2,3,.5-.7,1.4-1.1,2-1.1,1.7,0,3,1,3,3.1s-1.6,3.4-3.4,3.4-3.9-1.5-3.9-5.1ZM543.3,569.4c.2,1.6.8,2,1.5,2s1.2-.4,1.2-1.6-.6-1.4-1.3-1.4-1.1.3-1.4,1Z"/>
              </g>
            </g>
            <g class="cls-2">
              <g class="cls-2">
                <path class="cls-7" d="M534.2,598.7c-.4,0-.8.4-1.1.9l-1.3-1c.8-1.2,1.6-1.7,2.4-1.7,1.3,0,1.9,1.2,2.8,1.2s.8-.4,1.1-.9l1.3,1c-.8,1.2-1.6,1.7-2.4,1.7-1.3,0-1.9-1.2-2.8-1.2Z"/>
                <path class="cls-7" d="M540.2,602.5l1.1-1.6c.6.6,1.3,1,2.1,1s1.6-.5,1.6-1.5-.6-1.5-1.5-1.5-.9.1-1.5.5l-1.1-.7.3-5.2h5.8v2.1h-3.7v1.8c.2-.2.5-.2.9-.2,1.8,0,3.2,1,3.2,3.1s-1.8,3.6-3.8,3.6-2.8-.6-3.6-1.4Z"/>
              </g>
            </g>
            <g class="cls-2">
              <g class="cls-2">
                <path class="cls-7" d="M543.9,631.8h-4.4v-1.7l3.6-6.1h3.1v5.9h1.2v1.9h-1.2v2.4h-2.3v-2.4ZM543.9,629.9v-1.5c0-.7,0-1.6,0-2.3h0c-.3.6-.5,1.2-.8,1.8l-1.2,2.1h2Z"/>
              </g>
            </g>
            <g class="cls-2">
              <g class="cls-2">
                <path class="cls-7" d="M533,659.7c-.4,0-.8.4-1.1.9l-1.3-1c.8-1.2,1.6-1.7,2.4-1.7,1.3,0,1.9,1.2,2.8,1.2s.8-.4,1.1-.9l1.3,1c-.8,1.2-1.6,1.7-2.4,1.7-1.3,0-1.9-1.2-2.8-1.2Z"/>
                <path class="cls-7" d="M538.9,663.5l1.1-1.6c.6.6,1.4,1,2.2,1s1.6-.4,1.6-1.1-.5-1.4-2.7-1.4v-1.7c1.8,0,2.3-.5,2.3-1.3s-.4-1.1-1.2-1.1-1.2.3-1.9.9l-1.2-1.5c.9-.8,2-1.3,3.2-1.3,2.2,0,3.6,1,3.6,2.8s-.6,1.8-1.7,2.2h0c1.2.4,2,1.2,2,2.5,0,1.9-1.8,3-3.8,3s-2.8-.6-3.6-1.4Z"/>
              </g>
            </g>
            <g class="cls-2">
              <g class="cls-2">
                <path class="cls-7" d="M538.6,693.7c2.5-2.2,4.4-4,4.4-5.4s-.5-1.5-1.4-1.5-1.3.5-1.8,1l-1.3-1.3c1-1.1,1.9-1.7,3.4-1.7s3.4,1.3,3.4,3.2-1.7,3.5-3.4,5.1c.5,0,1.2-.1,1.7-.1h2.2v2.1h-7.2v-1.5Z"/>
              </g>
            </g>
            <g class="cls-2">
              <g class="cls-2">
                <path class="cls-7" d="M508.5,718.3h-2.8v-2.1h8.1v2.1h-2.8v8.3h-2.5v-8.3Z"/>
                <path class="cls-7" d="M517,721.2l-2.7-5.1h2.8l.8,1.9c.2.5.5,1,.8,1.7h0c.2-.7.5-1.2.7-1.7l.8-1.9h2.6l-2.7,5.2,2.9,5.2h-2.8l-1-2c-.3-.5-.5-1.1-.8-1.7h0c-.2.6-.5,1.2-.7,1.7l-.9,2h-2.7l2.9-5.4Z"/>
              </g>
              <g class="cls-2">
                <path class="cls-7" d="M537.1,721.3l-5,5c-.4.4-1,.4-1.4,0s-.4-1,0-1.4l3.3-3.3h-9.6c-.6,0-1-.4-1-1s.4-1,1-1h9.6l-3.3-3.3c-.4-.4-.4-1,0-1.4s1-.4,1.4,0l5,5c.4.4.4,1,0,1.4h0Z"/>
              </g>
              <g class="cls-2">
                <path class="cls-7" d="M538.5,724.6h2.2v-5.7h-1.9v-1.5c1.1-.2,1.8-.5,2.6-.9h1.8v8.2h1.9v2h-6.6v-2Z"/>
              </g>
            </g>
            <g class="cls-2">
              <g class="cls-2">
                <path class="cls-7" d="M505,746.7h3.8c2.2,0,4.1.8,4.1,3.3s-.7,2.5-1.8,3l2.3,4.1h-2.8l-1.9-3.7h-1.2v3.7h-2.5v-10.4ZM508.6,751.5c1.2,0,1.8-.5,1.8-1.5s-.6-1.3-1.8-1.3h-1.1v2.8h1.1Z"/>
                <path class="cls-7" d="M516.6,751.7l-2.7-5.1h2.8l.8,1.9c.2.5.5,1,.8,1.7h0c.2-.7.5-1.2.7-1.7l.8-1.9h2.6l-2.7,5.2,2.9,5.2h-2.8l-1-2c-.3-.5-.5-1.1-.8-1.7h0c-.2.6-.5,1.2-.7,1.7l-.9,2h-2.7l2.9-5.4Z"/>
              </g>
              <g class="cls-2">
                <path class="cls-7" d="M523.2,750.4l5-5c.4-.4,1-.4,1.4,0s.4,1,0,1.4l-3.3,3.3h9.6c.6,0,1,.4,1,1s-.4,1-1,1h-9.6l3.3,3.3c.4.4.4,1,0,1.4s-1,.4-1.4,0l-5-5c-.4-.4-.4-1,0-1.4h0Z"/>
              </g>
              <g class="cls-2">
                <path class="cls-7" d="M537.5,752c0-3.5,1.5-5.2,3.7-5.2s3.7,1.8,3.7,5.2-1.5,5.3-3.7,5.3-3.7-1.9-3.7-5.3ZM542.5,752c0-2.8-.6-3.3-1.3-3.3s-1.3.6-1.3,3.3.6,3.4,1.3,3.4,1.3-.7,1.3-3.4Z"/>
              </g>
            </g>
          </g>
          <g>
            <rect class="cls-9" x="396.1" y="331.9" width="10.7" height="17.2"/>
            <rect class="cls-23" x="396.1" y="334.4" width="10.7" height="11.8"/>
          </g>
        </g>
        <g>
          <rect id="rect815-1" class="cls-4" x="662.7" y="126.8" width="120.8" height="242.3"/>
          <rect id="rect821-2" class="cls-7" x="681.2" y="345.1" width="84.6" height="21.5"/>
          <rect id="rect825-1" class="cls-5" x="681.6" y="346.3" width="20.6" height="19" rx="4" ry="4"/>
          <path id="rect872-6" class="cls-5" d="M727.6,346.3h12.6c2.2,0,4,1.8,4,4v11.1c0,2.2-1.8,4-4,4h-12.6c-2.2,0-4-1.8-4-4v-11.1c0-2.2,1.8-4,4-4h0Z"/>
          <rect id="rect874-1" class="cls-5" x="702.6" y="346.3" width="20.6" height="19" rx="3.5" ry="3.5"/>
          <rect id="rect947-9" class="cls-3" x="690.7" y="356.7" width="2.1" height="40.3"/>
          <rect id="rect949-7" class="cls-3" x="711.9" y="356.7" width="2.1" height="40.3"/>
          <rect id="rect951-2" class="cls-3" x="732.8" y="356.7" width="2.1" height="40.3"/>
          <rect id="rect87-3" class="cls-33" x="680.1" y="273.4" width="86.2" height="21.7"/>
          <path id="path31-1-5" class="cls-7" d="M697.4,173.6c.7,0,.8,0,1-.1,0,0,.2-.1.2-.2v-3.4h3.2v2c0,2.2,0,2.4-.2,3-.3.7-.9,1.2-1.7,1.3h-3.4v-2.7h.9ZM712.6,178.1c13.6,0,17,0,16.4,0h0c0,0,0,0,0,0h.3-.5v.4c0,.3,0,.4,0,.4h-32.4v-1.2h16v.4ZM700.3,165.7h1.6v2.6h-3.2v-2.6h1.6ZM703.5,170.5c0-.7.3-1.4.6-2,0-.1,0-.3.2-.4,0,0,0-.2.2-.3.2-.3.4-.5.6-.8h0c.2-.2.4-.5.7-.6.4-.3.8-.5,1.2-.6.6-.2,1.3-.3,1.9-.3s.8,0,1.1.2c.2,0,.5.2.6.2h.3c0,0,.3.1.4.2.9.6,1.7,1.5,2.2,2.5.6,1.3.7,2.7.2,4.1,0,.4-.3.8-.6,1.2s-.6.8-1,1.1c-.6.7-1.4,1.1-2.3,1.3-.7.1-1.4.2-2,.1-.8-.1-1.5-.5-2.2-.9-.3-.2-.5-.4-.7-.6,0,0,0-.2-.2-.2-.7-.8-1.2-1.7-1.4-2.7,0-.5,0-1,0-1.6h.3ZM706.6,171.9c.2.6.5,1.2.9,1.6.5.5,1.2.6,1.9.4.8-.4,1.5-1.1,1.7-2,0-.6,0-1.2,0-1.8-.2-.7-.6-1.3-1.1-1.7-.2-.1-.4-.2-.6-.3-.5-.1-1,0-1.5.2-.4.3-.8.7-1,1.2-.4.7-.5,1.6-.3,2.4h0ZM715.7,165.7h3.2v1.5c0,1.4,0,1.5,0,1.7.3.6,1,.9,1.6.7.3,0,.6-.3.7-.6v-.3c0,0,.2-1.5.2-1.5v-1.5h3.2v1.7c0,.7,0,1.4,0,2-.2.6-.4,1.2-.8,1.7,0,0,0,.2-.2.2-.2.3-.5.5-.8.7s-.6.4-1,.5c0,0-.3,0-.5.1-.4.1-.8.2-1.2.1-.4,0-.8,0-1.2-.1-.5,0-.9-.3-1.3-.5-.5-.3-.9-.7-1.2-1.2-.4-.6-.7-1.3-.8-2v-3.1h.1ZM720.2,173.6h2.6v2.8h-5.2v-2.8h2.6ZM724.7,163.6v-.2q0-.2.2-.2h19.6v1.2h-19.9v-.8h0ZM729.1,170.1h3.4v2.6h-6.8v-2.6h3.4ZM735.1,165.6h1.6v2.6h-3.2v-2.6h1.6ZM735.1,169.6h1.6v6.8h-3.2v-6.8h1.6ZM741.6,165.6h3.4v2.6h-6.8v-2.6h3.4ZM738.8,169.8h3.1v1.6c0,2.2,0,2.1,1.6,2.1h1v2.8h-3.3c-.7,0-1.3-.4-1.8-.8-.4-.5-.6-1.1-.7-1.7v-3.9h.1ZM746.8,164.3c0-.3.2-.5.4-.7.6-.6,1.6-.7,2.3-.2.3.2.5.4.6.7,0,.2.2.5,0,.7,0,.2,0,.5,0,.7-.3.6-.8.9-1.5,1-.5,0-1.1-.2-1.4-.6-.4-.4-.6-1-.4-1.6h0ZM747.2,165.4c.2.4.6.7,1.1.8s1,0,1.4-.4c0-.1.3-.3.3-.4,0-.2.2-.4,0-.7,0-.2,0-.5-.2-.7,0-.2-.2-.4-.4-.5,0-.1-.3-.2-.5-.3-.8-.2-1.6.1-1.9.9,0,.4,0,.8,0,1.2h.1ZM748.3,163.8h.7c.3.2.4.5.2.8,0,0,0,.1-.2.2h0v.2c.2.1.3.3.4.4,0,0,0,.2.2.3,0,0,0,.1,0,.1h-.2l-.3-.4c-.3-.4-.3-.5-.7-.5h-.2v1h-.2v-2h.6-.1ZM748.4,164.6h.5c.2-.2,0-.5-.2-.5h-.6v.6h.4-.1Z"/>
          <path id="rect64-4" class="cls-5" d="M748.5,346.3h12.6c2.2,0,4,1.8,4,4h0v11.1c0,2.2-1.8,4-4,4h-12.6c-2.2,0-4-1.8-4-4v-11.1c0-2.2,1.8-4,4-4h0Z"/>
          <rect id="rect66-6" class="cls-3" x="753.7" y="356.7" width="2.1" height="40.3"/>
          <rect id="rect103-7" class="cls-33" x="663" y="67.3" width="26.9" height="58.8"/>
          <rect id="rect105-6" class="cls-33" x="757" y="67.3" width="26.9" height="58.8"/>
          <circle id="path107-6" class="cls-30" cx="723.4" cy="301.9" r="29.6"/>
          <circle id="path133-7" class="cls-7" cx="723.4" cy="301.9" r="24.2"/>
          <rect id="rect137-3" class="cls-7" x="663" y="188.7" width="45.7" height="80.6"/>
          <rect id="rect141-8" class="cls-28" x="663" y="190.4" width="43" height="77.4"/>
          <rect id="rect139-1" class="cls-12" x="664.3" y="190.1" width="43" height="77.9"/>
          <circle id="path144-3" class="cls-20" cx="671" cy="261.3" r="6.7"/>
          <rect id="rect952-1" class="cls-13" x="664.3" y="260.3" width="13.4" height="2.1"/>
          <rect id="rect956-1" class="cls-7" x="725.3" y="202.2" width="58.6" height="45.7"/>
          <rect id="rect958-5" class="cls-33" x="726.6" y="203.6" width="55.9" height="43"/>
          <rect id="rect960-5" x="735.8" y="206.3" width="37.6" height="37.6"/>
          <rect id="rect962-9" class="cls-30" x="735.8" y="243.9" width="6.7" height="10.7"/>
          <rect id="rect964-7" class="cls-30" x="766.7" y="243.9" width="6.7" height="10.7"/>
          <rect id="rect966-2" class="cls-30" x="745.2" y="243.9" width="6.7" height="10.7"/>
          <rect id="rect968-3" class="cls-30" x="757.3" y="243.9" width="6.7" height="10.7"/>
          <rect id="rect970-0" class="cls-30" x="735.8" y="195.5" width="6.7" height="10.7"/>
          <rect id="rect972-0" class="cls-30" x="766.7" y="195.5" width="6.7" height="10.7"/>
          <rect id="rect974-7" class="cls-30" x="745.2" y="195.5" width="6.7" height="10.7"/>
          <rect id="rect976-2" class="cls-30" x="757.3" y="195.5" width="6.7" height="10.7"/>
          <polygon id="rect978-4" class="cls-3" points="738 242.5 740.2 242.5 740.2 249.2 738.1 249.2 738 242.5"/>
          <polygon id="rect980-7" class="cls-3" points="747.5 242.5 749.6 242.5 749.6 249.2 747.5 249.2 747.5 242.5"/>
          <polygon id="rect982-7" class="cls-3" points="759.5 242.5 761.7 242.5 761.7 249.2 759.6 249.2 759.5 242.5"/>
          <polygon id="rect984-3" class="cls-3" points="768.9 242.5 771.1 242.5 771.1 249.2 769 249.2 768.9 242.5"/>
          <polygon id="rect986-2" class="cls-3" points="738 207.6 740.2 207.6 740.2 200.9 738.1 200.9 738 207.6"/>
          <polygon id="rect988-4" class="cls-3" points="747.5 207.6 749.6 207.6 749.6 200.9 747.5 200.9 747.5 207.6"/>
          <polygon id="rect990-2" class="cls-3" points="759.5 207.6 761.7 207.6 761.7 200.9 759.6 200.9 759.5 207.6"/>
          <polygon id="rect992-0" class="cls-3" points="768.9 207.6 771.1 207.6 771.1 200.9 769 200.9 768.9 207.6"/>
          <circle id="path994-4" class="cls-30" cx="770.4" cy="93.4" r="9.4"/>
          <circle id="circle996-9" class="cls-30" cx="676.4" cy="93.4" r="9.4"/>
          <circle id="path998-0" class="cls-7" cx="676.4" cy="93.4" r="8.1"/>
          <circle id="path1000-0" class="cls-7" cx="770.4" cy="93.4" r="8.1"/>
          <path id="rect836-7-4" class="cls-30" d="M704.8,131.3h4c4.1,0,7.4,3.3,7.4,7.4h0c0,4.1-3.3,7.4-7.4,7.4h-4c-4.1,0-7.4-3.3-7.4-7.4h0c0-4.1,3.3-7.4,7.4-7.4h0Z"/>
          <path id="rect836-6-3" class="cls-30" d="M725,131.3h4c4.1,0,7.4,3.3,7.4,7.4h0c0,4.1-3.3,7.4-7.4,7.4h-4c-4.1,0-7.4-3.3-7.4-7.4h0c0-4.1,3.3-7.4,7.4-7.4h0Z"/>
          <rect id="rect943-2" class="cls-30" x="743" y="129.9" width="13.9" height="18.8" transform="translate(-1.2 6.5) rotate(-.5)"/>
          <rect id="rect1512-0" class="cls-1" x="708.1" y="32.6" width="42.3" height="36.3"/>
          <rect id="rect78-6" class="cls-3" x="720.2" y="68.9" width="1.6" height="41.4"/>
          <rect id="rect76-6" class="cls-3" x="728.3" y="68.9" width="1.6" height="41.6"/>
          <rect id="rect74-4" class="cls-3" x="736.3" y="68.9" width="1.6" height="41.6"/>
          <polygon id="rect95-8" class="cls-3" points="720.2 110 721.9 110 707.7 139.8 706 139.8 720.2 110"/>
          <polygon id="rect99-0" class="cls-3" points="728.2 110 729.9 110 727.8 139.8 726.2 139.8 728.2 110"/>
          <polygon id="rect101-2" class="cls-3" points="736.2 110.2 737.9 110.2 750.8 140 749.1 140 736.2 110.2"/>
          <path id="rect1026-2" class="cls-30" d="M683.6,129.7h7.6c1.8,0,3.2,1.4,3.2,3.2h0v13.8c0,1.8-1.4,3.2-3.2,3.2h-7.6c-1.8,0-3.2-1.4-3.2-3.2h0v-13.8c0-1.8,1.4-3.2,3.2-3.2h0Z"/>
          <circle id="path1028-4" class="cls-7" cx="687.4" cy="143.1" r="4"/>
          <path id="rect1030-5" class="cls-30" d="M679.3,137v4.1c0,4.1-3.2,7.4-7.2,7.5h0c-4.1,0-7.4-3.2-7.5-7.3h0v-4.1c0-4.1,3.2-7.4,7.2-7.5h0c4.1,0,7.4,3.2,7.5,7.3h0Z"/>
          <circle id="circle105-3" class="cls-7" cx="672" cy="139.1" r="5.4"/>
          <g id="text116" class="cls-2">
            <g class="cls-2">
              <g class="cls-2">
                <g class="cls-2">
                  <path class="cls-7" d="M780.3,171s0,0,.1,0,0,0,0,.1c0,0,0,.1,0,.2s0,.2,0,.4,0,.4,0,.5,0,.2,0,.3c0,0,0,.1-.2.2l-5.4,4h5.4s0,0,.1,0c0,0,0,0,0,.1,0,0,0,.1,0,.2,0,0,0,.2,0,.3s0,.2,0,.3c0,0,0,.2,0,.2s0,0,0,.1c0,0,0,0-.1,0h-10.4s0,0-.1,0c0,0,0,0,0-.1s0-.1,0-.2c0,0,0-.2,0-.3s0-.3,0-.3c0,0,0-.2,0-.2,0,0,0,0,0-.1,0,0,0,0,.1,0h4.8l-4.8-3.8c0,0,0,0-.1-.1,0,0,0,0,0-.2s0-.1,0-.2c0,0,0-.2,0-.4s0-.3,0-.4c0,0,0-.2,0-.2,0,0,0,0,0-.1,0,0,0,0,.1,0,0,0,.1,0,.2,0s.2.1.3.2l4.3,3.6,5.1-3.9c.1,0,.2-.2.3-.2s0,0,.1,0Z"/>
                </g>
              </g>
              <g class="cls-2">
                <g class="cls-2">
                  <path class="cls-7" d="M776.3,165.7h4s0,0,.1,0c0,0,0,0,0,.1s0,.1,0,.2c0,0,0,.2,0,.3s0,.3,0,.3,0,.2,0,.2,0,0,0,.1c0,0,0,0-.1,0h-4l-6.1,3.1c-.1,0-.2,0-.3.1,0,0-.1,0-.2,0,0,0,0-.1,0-.2,0-.1,0-.3,0-.4s0-.3,0-.4c0-.1,0-.2,0-.2,0,0,0-.1,0-.1,0,0,0,0,.1,0l3.1-1.5c.3-.1.6-.3.9-.4.3-.1.6-.3,1-.4h0c-.3-.1-.6-.3-.9-.4-.3-.1-.6-.3-.9-.4l-3.1-1.5c0,0-.1,0-.1,0,0,0,0,0,0-.1,0,0,0-.1,0-.2,0,0,0-.2,0-.4s0-.4,0-.5c0-.1,0-.2,0-.2,0,0,0,0,.2,0,0,0,.2,0,.3.1l6.1,3.1Z"/>
                </g>
              </g>
              <g class="cls-2">
                <g class="cls-2">
                  <path class="cls-7" d="M776.3,158.6c.2,0,.4,0,.5,0,0,0,.1.1.1.2v3.5c0,.1,0,.2-.1.2,0,0-.2,0-.4,0s-.4,0-.4,0c0,0-.1-.1-.1-.2v-3.5s0,0,0-.1c0,0,0,0,0,0,0,0,.1,0,.2,0,0,0,.2,0,.3,0Z"/>
                  <path class="cls-7" d="M775.1,150c.8,0,1.6,0,2.3.2s1.3.3,1.8.7c.5.3.9.7,1.1,1.2.3.5.4,1.1.4,1.8s-.1,1.3-.4,1.7c-.2.5-.6.8-1.1,1.1-.5.3-1,.5-1.7.6s-1.5.2-2.4.2-1.6,0-2.3-.2c-.7-.1-1.3-.4-1.8-.7-.5-.3-.9-.7-1.1-1.2-.3-.5-.4-1.1-.4-1.8s.1-1.3.4-1.7.6-.8,1.1-1.1c.5-.3,1-.5,1.7-.6s1.5-.2,2.4-.2ZM775.2,151.5c-.5,0-1,0-1.5,0-.4,0-.8,0-1.1.2-.3,0-.6.2-.8.3s-.4.3-.6.4c-.2.2-.3.4-.3.6,0,.2-.1.5-.1.7,0,.5.1.9.3,1.2.2.3.5.5.9.7.4.2.8.3,1.4.3.5,0,1.1,0,1.7,0s1.5,0,2.1-.1c.6,0,1-.2,1.4-.4.4-.2.6-.4.8-.7.2-.3.2-.6.2-1s0-.6-.2-.8c-.1-.2-.2-.4-.4-.6s-.4-.3-.7-.4c-.3-.1-.6-.2-.9-.3s-.7-.1-1-.1-.8,0-1.2,0Z"/>
                  <path class="cls-7" d="M779.9,141.7c.1,0,.2,0,.3,0,0,0,.1,0,.2,0s0,0,.1.1c0,0,0,0,0,.1v6c0,0,0,.1,0,.2s0,.1,0,.2c0,0-.1,0-.2,0,0,0-.2,0-.3,0s-.2,0-.3,0c0,0-.2,0-.2,0s-.1,0-.2-.1c0,0-.1,0-.2-.2l-2.2-2.2c-.5-.5-1-.9-1.4-1.2s-.8-.5-1.1-.7c-.3-.2-.6-.3-.9-.3-.3,0-.5,0-.8,0s-.5,0-.7.1c-.2,0-.4.2-.6.3s-.3.3-.4.6c0,.2-.1.5-.1.8s0,.7.1.9c0,.3.2.5.3.7.1.2.2.4.3.5,0,.1.1.2.1.3s0,0,0,.1c0,0,0,0-.1,0,0,0-.1,0-.2,0,0,0-.2,0-.3,0s-.2,0-.2,0c0,0-.1,0-.2,0,0,0,0,0-.1,0,0,0,0,0-.1-.1,0,0-.1-.2-.2-.3,0-.2-.2-.4-.3-.6,0-.2-.2-.5-.2-.8,0-.3,0-.6,0-.9,0-.5,0-1,.2-1.4.1-.4.3-.7.6-1,.3-.3.6-.5.9-.6.3-.1.7-.2,1.1-.2s.7,0,1,0c.3,0,.7.2,1.1.4.4.2.8.5,1.3.9.5.4,1,.9,1.7,1.5l1.8,1.7v-4.7s0,0,0-.1c0,0,0,0,.1-.1,0,0,.1,0,.2,0,0,0,.2,0,.3,0Z"/>
                  <path class="cls-7" d="M777.4,132.6c.2,0,.3,0,.4,0,.1,0,.2.1.2.2v1.2h2.3s0,0,.1,0c0,0,0,0,0,.1,0,0,0,.1,0,.2,0,0,0,.2,0,.4s0,.3,0,.3c0,0,0,.2,0,.2,0,0,0,0,0,.1,0,0,0,0-.1,0h-2.3v4.4c0,0,0,.1,0,.2,0,0,0,0,0,.1,0,0-.1,0-.2,0,0,0-.2,0-.3,0s-.2,0-.3,0c0,0-.2,0-.2,0,0,0-.1,0-.2,0,0,0-.1,0-.2,0l-6.6-3.9s0,0-.1-.1c0,0,0-.1,0-.2,0,0,0-.2,0-.3,0-.1,0-.3,0-.4s0-.4,0-.5c0-.1,0-.3,0-.3s0-.2,0-.2,0,0,.1,0h6.9v-1.2c0,0,0-.2.1-.2,0,0,.2,0,.4,0ZM770.9,135.5h0s5.9,3.5,5.9,3.5v-3.5h-5.9Z"/>
                </g>
              </g>
            </g>
          </g>
          <g id="text120" class="cls-2">
            <g class="cls-2">
              <g class="cls-2">
                <path class="cls-7" d="M692.1,342.6c0,.1,0,.2,0,.3,0,0,0,.1,0,.2,0,0-.1,0-.2,0-.1,0-.2,0-.4,0s-.3,0-.4,0c-.1,0-.2,0-.2,0s0,0-.1,0c0,0,0,0,0-.1l-.9-2.6h-4.5l-.9,2.6s0,0,0,.1c0,0,0,0-.1,0,0,0-.1,0-.2,0,0,0-.2,0-.4,0s-.3,0-.4,0c-.1,0-.2,0-.2,0,0,0,0,0,0-.2s0-.2,0-.3l3.6-10c0,0,0-.1,0-.2s0,0,.2,0c0,0,.2,0,.3,0,.1,0,.2,0,.4,0s.3,0,.4,0c.1,0,.2,0,.3,0s.1,0,.2,0,0,0,0,.2l3.6,10ZM687.5,333.7h0l-1.9,5.4h3.8l-1.9-5.4Z"/>
                <path class="cls-7" d="M700.6,337.7c0,.8,0,1.6-.2,2.3s-.3,1.3-.7,1.8c-.3.5-.7.9-1.2,1.1-.5.3-1.1.4-1.8.4s-1.3-.1-1.7-.4c-.5-.2-.8-.6-1.1-1.1-.3-.5-.5-1-.6-1.7-.1-.7-.2-1.5-.2-2.4s0-1.6.2-2.3c.1-.7.4-1.3.7-1.8.3-.5.7-.9,1.2-1.1.5-.3,1.1-.4,1.8-.4s1.3.1,1.7.4.8.6,1.1,1.1c.3.5.5,1,.6,1.7.1.7.2,1.5.2,2.4ZM699.1,337.8c0-.5,0-1,0-1.5,0-.4,0-.8-.2-1.1,0-.3-.2-.6-.3-.8-.1-.2-.3-.4-.4-.6-.2-.2-.4-.3-.6-.3-.2,0-.5-.1-.7-.1-.5,0-.9.1-1.2.3-.3.2-.5.5-.7.9-.2.4-.3.8-.3,1.4,0,.5,0,1.1,0,1.7s0,1.5.1,2.1c0,.6.2,1,.4,1.4s.4.6.7.8c.3.2.6.2,1,.2s.6,0,.8-.2.4-.2.6-.4.3-.4.4-.7c.1-.3.2-.6.3-.9,0-.3.1-.7.1-1,0-.4,0-.8,0-1.2Z"/>
              </g>
            </g>
          </g>
          <g id="text124" class="cls-2">
            <g class="cls-2">
              <g class="cls-2">
                <path class="cls-7" d="M718,334c0,.1,0,.2,0,.3,0,0,0,.1,0,.2,0,0,0,0,0,.1s0,0-.1,0c0,0-.2,0-.3-.2-.2-.1-.4-.2-.6-.4s-.6-.2-.9-.4c-.4-.1-.8-.2-1.3-.2s-1.1.1-1.6.3c-.5.2-.9.5-1.2.9-.3.4-.6.8-.8,1.4-.2.5-.3,1.1-.3,1.7s0,1.3.3,1.8c.2.5.5,1,.8,1.4.3.4.7.6,1.2.8.5.2,1,.3,1.5.3s.7,0,1-.1c.3,0,.7-.2,1-.4v-3.1h-2.5c0,0-.2,0-.2-.1,0,0,0-.2,0-.4s0-.2,0-.3,0-.1,0-.2c0,0,0,0,0-.1,0,0,0,0,.1,0h3.4c0,0,.1,0,.2,0s.1,0,.2,0c0,0,0,.1.1.2,0,0,0,.2,0,.3v4.1c0,.1,0,.3,0,.4,0,.1-.2.2-.3.3-.2,0-.4.2-.6.3s-.5.2-.8.2c-.3,0-.5.1-.8.2-.3,0-.6,0-.8,0-.8,0-1.6-.1-2.2-.4-.7-.3-1.2-.6-1.7-1.1-.5-.5-.8-1.1-1-1.7s-.4-1.4-.4-2.2.1-1.6.4-2.3c.3-.7.6-1.3,1.1-1.8.5-.5,1-.9,1.7-1.1.7-.3,1.4-.4,2.2-.4s.8,0,1.2.1c.4,0,.7.2,1,.3.3,0,.5.2.7.3.2.1.3.2.4.3s.1.2.2.2c0,0,0,.2,0,.4Z"/>
              </g>
            </g>
          </g>
          <g id="text128" class="cls-2">
            <g class="cls-2">
              <g class="cls-2">
                <path class="cls-7" d="M737.6,339.4c0,.1,0,.2,0,.3s0,.1,0,.2c0,0,0,0,0,.1,0,0,0,0-.1,0h-2.7v3s0,0,0,.1c0,0,0,0-.1,0,0,0-.1,0-.2,0,0,0-.2,0-.3,0s-.2,0-.3,0c0,0-.1,0-.2,0,0,0,0,0-.1,0,0,0,0,0,0-.1v-3h-2.7s0,0-.1,0c0,0,0,0,0-.1,0,0,0-.1,0-.2s0-.2,0-.3,0-.2,0-.3,0-.1,0-.2c0,0,0,0,0-.1,0,0,0,0,.1,0h2.7v-3s0,0,0-.1c0,0,0,0,.1,0,0,0,.1,0,.2,0,0,0,.2,0,.3,0s.2,0,.3,0c0,0,.1,0,.2,0,0,0,0,0,.1,0,0,0,0,0,0,.1v3h2.7s0,0,.1,0c0,0,0,0,0,.1,0,0,0,.1,0,.2s0,.2,0,.3Z"/>
              </g>
            </g>
          </g>
          <g id="text132" class="cls-2">
            <g class="cls-2">
              <g class="cls-2">
                <path class="cls-7" d="M754.7,337.8c0,.9-.1,1.8-.4,2.5-.2.7-.6,1.3-1,1.7s-1,.8-1.7,1c-.7.2-1.5.3-2.4.3h-2.3c-.1,0-.2,0-.4-.1-.1,0-.2-.2-.2-.5v-9.6c0-.2,0-.4.2-.5.1,0,.2-.1.4-.1h2.4c.9,0,1.7.1,2.4.4s1.2.6,1.6,1,.8,1,1,1.6c.2.6.3,1.4.3,2.2ZM753.2,337.9c0-.6,0-1.1-.2-1.6s-.4-.9-.7-1.3c-.3-.4-.7-.7-1.2-.9s-1.1-.3-1.8-.3h-1.5v8.4h1.5c.7,0,1.3,0,1.7-.3.5-.2.9-.4,1.2-.8.3-.4.6-.8.7-1.3.2-.5.2-1.2.2-1.9Z"/>
                <path class="cls-7" d="M763.6,338c0,.8,0,1.6-.2,2.3s-.3,1.3-.7,1.8c-.3.5-.7.9-1.2,1.1-.5.3-1.1.4-1.8.4s-1.3-.1-1.7-.4c-.5-.2-.8-.6-1.1-1.1-.3-.5-.5-1-.6-1.7-.1-.7-.2-1.5-.2-2.4s0-1.6.2-2.3c.1-.7.4-1.3.7-1.8.3-.5.7-.9,1.2-1.1.5-.3,1.1-.4,1.8-.4s1.3.1,1.7.4.8.6,1.1,1.1c.3.5.5,1,.6,1.7s.2,1.5.2,2.4ZM762.1,338.1c0-.5,0-1,0-1.5,0-.4,0-.8-.2-1.1,0-.3-.2-.6-.3-.8-.1-.2-.3-.4-.4-.6-.2-.2-.4-.3-.6-.3-.2,0-.5-.1-.7-.1-.5,0-.9.1-1.2.3s-.5.5-.7.9-.3.8-.3,1.4c0,.5,0,1.1,0,1.7s0,1.5.1,2.1c0,.6.2,1,.4,1.4.2.4.4.6.7.8.3.2.6.2,1,.2s.6,0,.8-.2c.2-.1.4-.2.6-.4s.3-.4.4-.7c.1-.3.2-.6.3-.9,0-.3.1-.7.1-1,0-.4,0-.8,0-1.2Z"/>
              </g>
            </g>
          </g>
        </g>
        <rect id="rect1461" class="cls-35" x="750.3" y="377.1" width="9.1" height="285.4"/>
        <rect id="rect1463" class="cls-22" x="729.3" y="376.8" width="9.1" height="63.3"/>
        <rect id="rect1465" class="cls-10" x="708.4" y="377.1" width="9.1" height="153.4"/>
        <rect id="rect1467" class="cls-21" x="687.2" y="377.1" width="9.1" height="221.8"/>
        <circle id="circle281" class="cls-21" cx="691.8" cy="377.1" r="10.5"/>
        <circle id="circle281-2" class="cls-35" cx="754.8" cy="377.1" r="10.5"/>
        <circle id="circle281-3" class="cls-22" cx="733.9" cy="377.1" r="10.5"/>
        <circle id="circle281-4" class="cls-10" cx="712.9" cy="377.1" r="10.5"/>
        <circle id="circle281-5" class="cls-35" cx="575.7" cy="657.9" r="11.6"/>
        <rect id="rect1461-2" class="cls-35" x="575.7" y="653.4" width="183.7" height="9.1"/>
        <circle id="circle281-6" class="cls-21" cx="26.3" cy="594.3" r="11.6" transform="translate(-15.4 .9) rotate(-1.5)"/>
        <rect class="cls-10" x="21.4" y="521.4" width="696.1" height="9.1"/>
        <rect class="cls-10" x="21.4" y="499.6" width="9.1" height="30.9"/>
        <rect class="cls-22" x="21.4" y="431" width="717" height="9.1"/>
        <rect class="cls-22" x="21.4" y="431" width="9.1" height="38"/>
        <circle id="circle281-7" class="cls-22" cx="26.1" cy="468.9" r="10.5"/>
        <circle id="circle281-8" class="cls-10" cx="26.1" cy="499.6" r="10.5"/>
        <rect id="rect853" class="cls-21" x="26" y="589.7" width="670.4" height="9.1"/>
      </g>
    </g>
  </g>
</svg>