<?xml version="1.0" encoding="UTF-8"?>
<svg xmlns="http://www.w3.org/2000/svg" version="1.1" viewBox="0 0 682 1055.2">
  <defs>
    <style>
      .cls-1 {
        fill: #02814b;
      }

      .cls-2 {
        fill: #868c97;
      }

      .cls-3 {
        stroke: #fff;
      }

      .cls-3, .cls-4 {
        fill: none;
        stroke-miterlimit: 10;
      }

      .cls-5 {
        fill: #c2bfab;
      }

      .cls-6 {
        fill: #e8d28a;
      }

      .cls-7 {
        fill: #8dddde;
      }

      .cls-8 {
        fill: #cecece;
      }

      .cls-9 {
        fill: #c1c1c1;
      }

      .cls-10 {
        fill: #b9a68f;
      }

      .cls-11 {
        fill: #141316;
      }

      .cls-12 {
        fill: #e2eade;
      }

      .cls-13, .cls-14, .cls-15 {
        isolation: isolate;
      }

      .cls-16 {
        fill: #474544;
      }

      .cls-17 {
        fill: #ddd;
      }

      .cls-18 {
        fill: #fee86f;
      }

      .cls-14, .cls-15 {
        opacity: 1;
      }

      .cls-14, .cls-19 {
        fill: #1a1a1a;
      }

      .cls-20 {
        fill: #914f00;
      }

      .cls-21 {
        fill: #fff;
      }

      .cls-22 {
        fill: #cccbcb;
      }

      .cls-23 {
        fill: #c29148;
      }

      .cls-24 {
        fill: #e30613;
      }

      .cls-25 {
        fill: #e0b45b;
      }

      .cls-26 {
        fill: #d4c547;
      }

      .cls-27 {
        fill: #00b589;
      }

      .cls-28 {
        fill: #7b217f;
      }

      .cls-29 {
        fill: #fcfcfa;
      }

      .cls-30 {
        fill: #424242;
      }

      .cls-15 {
        fill: gray;
      }

      .cls-31 {
        fill: #7f7f7f;
      }

      .cls-32 {
        fill: #525035;
      }

      .cls-33 {
        fill: #ffe17b;
      }

      .cls-34 {
        fill: #2a4b9a;
      }

      .cls-35 {
        fill: #aba28e;
      }

      .cls-36 {
        fill: #ab9c38;
      }

      .cls-4 {
        stroke: #95ac6e;
      }

      .cls-37 {
        fill: #96841f;
      }

      .cls-38 {
        fill: #36323e;
      }
    </style>
  </defs>
  <!-- Generator: Adobe Illustrator 28.7.0, SVG Export Plug-In . SVG Version: 1.2.0 Build 136)  -->
  <g>
    <g id="svg4098">
      <g>
        <path class="cls-1" d="M243.3,473.2v-11.9H.2v11.9c2.3.9,3.9,3.1,3.9,5.7s-1.6,4.8-3.9,5.7v18.1c2.3.9,3.9,3.1,3.9,5.7s-1.6,4.8-3.9,5.7v18.1c2.3.9,3.9,3.1,3.9,5.7s-1.6,4.8-3.9,5.7v18.1c2.3.9,3.9,3.1,3.9,5.7s-1.6,4.8-3.9,5.7v18.1c2.3.9,3.9,3.1,3.9,5.7s-1.6,4.8-3.9,5.7v18.1c2.3.9,3.9,3.1,3.9,5.7s-1.6,4.8-3.9,5.7v18.1c2.3.9,3.9,3.1,3.9,5.7s-1.6,4.8-3.9,5.7v18.1c2.3.9,3.9,3.1,3.9,5.7s-1.6,4.8-3.9,5.7v18.1c2.3.9,3.9,3.1,3.9,5.7s-1.6,4.8-3.9,5.7v18.1c2.3.9,3.9,3.1,3.9,5.7s-1.6,4.8-3.9,5.7v18.1c2.3.9,3.9,3.1,3.9,5.7s-1.6,4.8-3.9,5.7v18.1c2.3.9,3.9,3.1,3.9,5.7s-1.6,4.8-3.9,5.7v18.1c2.3.9,3.9,3.1,3.9,5.7s-1.6,4.8-3.9,5.7v18.1c2.3.9,3.9,3.1,3.9,5.7s-1.6,4.8-3.9,5.7v18.1c2.3.9,3.9,3.1,3.9,5.7s-1.6,4.8-3.9,5.7v18.1c2.3.9,3.9,3.1,3.9,5.7s-1.6,4.8-3.9,5.7v18.1c2.3.9,3.9,3.1,3.9,5.7s-1.6,4.8-3.9,5.7v18.1c2.3.9,3.9,3.1,3.9,5.7s-1.6,4.8-3.9,5.7v18c2.3.9,3.9,3.1,3.9,5.7s-1.6,4.8-3.9,5.7v18.1c2.3.9,3.9,3.1,3.9,5.7s-1.6,4.8-3.9,5.7v11.9h243.1v-13.9c-2.2-.9-3.8-3.1-3.8-5.7s1.6-4.8,3.8-5.7v-18.1c-2.2-.9-3.8-3.1-3.8-5.7s1.6-4.8,3.8-5.7v-18.1c-2.2-.9-3.8-3.1-3.8-5.7s1.6-4.8,3.8-5.7v-18.1c-2.2-.9-3.8-3.1-3.8-5.7s1.6-4.8,3.8-5.7v-18.1c-2.2-.9-3.8-3.1-3.8-5.7s1.6-4.8,3.8-5.7v-17.6c-2.2-.9-3.8-3.1-3.8-5.7s1.6-4.8,3.8-5.7v-18.1c-2.2-.9-3.8-3.1-3.8-5.7s1.6-4.8,3.8-5.7v-18.1c-2.2-.9-3.8-3.1-3.8-5.7s1.6-4.8,3.8-5.7v-18.1c-2.2-.9-3.8-3.1-3.8-5.7s1.6-4.8,3.8-5.7v-18.1c-2.2-.9-3.8-3.1-3.8-5.7s1.6-4.8,3.8-5.7v-17.6c-2.2-.9-3.8-3.1-3.8-5.7s1.6-4.8,3.8-5.7v-18.1c-2.2-.9-3.8-3.1-3.8-5.7s1.6-4.8,3.8-5.7v-18.1c-2.2-.9-3.8-3.1-3.8-5.7s1.6-4.8,3.8-5.7v-18.1c-2.2-.9-3.8-3.1-3.8-5.7s1.6-4.8,3.8-5.7v-18.1c-2.2-.9-3.8-3.1-3.8-5.7s1.6-4.8,3.8-5.7v-17.6c-2.2-.9-3.8-3.1-3.8-5.7s1.6-4.8,3.8-5.7v-18.1c-2.2-.9-3.8-3.1-3.8-5.7s1.6-4.8,3.8-5.7v-18.1c-2.2-.9-3.8-3.1-3.8-5.7s1.6-4.8,3.8-5.7v-18.1c-2.2-.9-3.8-3.1-3.8-5.7s1.6-4.8,3.8-5.7v-18.1c-2.2-.9-3.8-3.1-3.8-5.7s1.6-4.2,3.8-5.1ZM15.8,1043.4c-3.4,0-6.1-2.7-6.1-6.1s2.7-6.1,6.1-6.1,6.1,2.7,6.1,6.1c0,3.4-2.7,6.1-6.1,6.1ZM15.8,1014c-3.4,0-6.1-2.7-6.1-6.1s2.7-6.1,6.1-6.1,6.1,2.7,6.1,6.1-2.7,6.1-6.1,6.1ZM15.8,984.6c-3.4,0-6.1-2.7-6.1-6.1s2.7-6.1,6.1-6.1,6.1,2.7,6.1,6.1-2.7,6.1-6.1,6.1ZM15.8,955.2c-3.4,0-6.1-2.7-6.1-6.1s2.7-6.1,6.1-6.1,6.1,2.7,6.1,6.1-2.7,6.1-6.1,6.1ZM15.8,925.8c-3.4,0-6.1-2.7-6.1-6.1s2.7-6.1,6.1-6.1,6.1,2.7,6.1,6.1-2.7,6.1-6.1,6.1ZM15.8,896.4c-3.4,0-6.1-2.7-6.1-6.1s2.7-6.1,6.1-6.1,6.1,2.7,6.1,6.1-2.7,6.1-6.1,6.1ZM15.8,867c-3.4,0-6.1-2.7-6.1-6.1s2.7-6.1,6.1-6.1,6.1,2.7,6.1,6.1-2.7,6.1-6.1,6.1ZM15.8,837.6c-3.4,0-6.1-2.7-6.1-6.1s2.7-6.1,6.1-6.1,6.1,2.7,6.1,6.1-2.7,6.1-6.1,6.1ZM15.8,808.2c-3.4,0-6.1-2.7-6.1-6.1s2.7-6.1,6.1-6.1,6.1,2.7,6.1,6.1-2.7,6.1-6.1,6.1ZM15.8,778.9c-3.4,0-6.1-2.7-6.1-6.1s2.7-6.1,6.1-6.1,6.1,2.7,6.1,6.1-2.7,6.1-6.1,6.1ZM15.8,749.5c-3.4,0-6.1-2.7-6.1-6.1s2.7-6.1,6.1-6.1,6.1,2.7,6.1,6.1-2.7,6.1-6.1,6.1ZM15.8,720.1c-3.4,0-6.1-2.7-6.1-6.1s2.7-6.1,6.1-6.1,6.1,2.7,6.1,6.1-2.7,6.1-6.1,6.1ZM15.8,690.7c-3.4,0-6.1-2.7-6.1-6.1s2.7-6.1,6.1-6.1,6.1,2.7,6.1,6.1-2.7,6.1-6.1,6.1ZM15.8,661.3c-3.4,0-6.1-2.7-6.1-6.1s2.7-6.1,6.1-6.1,6.1,2.7,6.1,6.1-2.7,6.1-6.1,6.1ZM15.8,631.9c-3.4,0-6.1-2.7-6.1-6.1s2.7-6.1,6.1-6.1,6.1,2.7,6.1,6.1-2.7,6.1-6.1,6.1ZM15.8,602.5c-3.4,0-6.1-2.7-6.1-6.1s2.7-6.1,6.1-6.1,6.1,2.7,6.1,6.1-2.7,6.1-6.1,6.1ZM15.8,573.1c-3.4,0-6.1-2.7-6.1-6.1s2.7-6.1,6.1-6.1,6.1,2.7,6.1,6.1-2.7,6.1-6.1,6.1ZM15.8,543.7c-3.4,0-6.1-2.7-6.1-6.1s2.7-6.1,6.1-6.1,6.1,2.7,6.1,6.1-2.7,6.1-6.1,6.1ZM15.8,514.3c-3.4,0-6.1-2.7-6.1-6.1s2.7-6.1,6.1-6.1,6.1,2.7,6.1,6.1-2.7,6.1-6.1,6.1ZM15.8,484.9c-3.4,0-6.1-2.7-6.1-6.1s2.7-6.1,6.1-6.1,6.1,2.7,6.1,6.1-2.7,6.1-6.1,6.1ZM53.7,1043.4c-6.7,0-12.1-5.4-12.1-12.1s5.4-12.1,12.1-12.1,12.1,5.4,12.1,12.1-5.4,12.1-12.1,12.1ZM53.7,496.2c-6.7,0-12.1-5.4-12.1-12.1s5.4-12.1,12.1-12.1,12.1,5.4,12.1,12.1c0,6.7-5.4,12.1-12.1,12.1ZM127.6,829.4c-3.1,0-5.7-2.6-5.7-5.7s2.6-5.7,5.7-5.7,5.7,2.6,5.7,5.7-2.6,5.7-5.7,5.7ZM157,829.4c-3.1,0-5.7-2.6-5.7-5.7s2.6-5.7,5.7-5.7,5.7,2.6,5.7,5.7-2.5,5.7-5.7,5.7ZM186.2,472c6.7,0,12.1,5.4,12.1,12.1s-5.4,12.1-12.1,12.1-12.1-5.4-12.1-12.1c0-6.7,5.5-12.1,12.1-12.1ZM192.5,823.7c0,3.1-2.6,5.7-5.7,5.7s-5.7-2.6-5.7-5.7,2.6-5.7,5.7-5.7,5.7,2.6,5.7,5.7ZM188.2,1043.4c-6.7,0-12.1-5.4-12.1-12.1s5.4-12.1,12.1-12.1,12.1,5.4,12.1,12.1-5.4,12.1-12.1,12.1ZM227.8,1043.4c-3.4,0-6.1-2.7-6.1-6.1s2.7-6.1,6.1-6.1,6.1,2.7,6.1,6.1c0,3.4-2.7,6.1-6.1,6.1ZM227.8,1014c-3.4,0-6.1-2.7-6.1-6.1s2.7-6.1,6.1-6.1,6.1,2.7,6.1,6.1-2.7,6.1-6.1,6.1ZM227.8,984.6c-3.4,0-6.1-2.7-6.1-6.1s2.7-6.1,6.1-6.1,6.1,2.7,6.1,6.1-2.7,6.1-6.1,6.1ZM227.8,955.2c-3.4,0-6.1-2.7-6.1-6.1s2.7-6.1,6.1-6.1,6.1,2.7,6.1,6.1-2.7,6.1-6.1,6.1ZM227.8,925.8c-3.4,0-6.1-2.7-6.1-6.1s2.7-6.1,6.1-6.1,6.1,2.7,6.1,6.1-2.7,6.1-6.1,6.1ZM227.8,896.4c-3.4,0-6.1-2.7-6.1-6.1s2.7-6.1,6.1-6.1,6.1,2.7,6.1,6.1-2.7,6.1-6.1,6.1ZM227.8,867c-3.4,0-6.1-2.7-6.1-6.1s2.7-6.1,6.1-6.1,6.1,2.7,6.1,6.1-2.7,6.1-6.1,6.1ZM227.8,837.6c-3.4,0-6.1-2.7-6.1-6.1s2.7-6.1,6.1-6.1,6.1,2.7,6.1,6.1-2.7,6.1-6.1,6.1ZM227.8,808.2c-3.4,0-6.1-2.7-6.1-6.1s2.7-6.1,6.1-6.1,6.1,2.7,6.1,6.1-2.7,6.1-6.1,6.1ZM227.8,778.9c-3.4,0-6.1-2.7-6.1-6.1s2.7-6.1,6.1-6.1,6.1,2.7,6.1,6.1-2.7,6.1-6.1,6.1ZM227.8,749.5c-3.4,0-6.1-2.7-6.1-6.1s2.7-6.1,6.1-6.1,6.1,2.7,6.1,6.1-2.7,6.1-6.1,6.1ZM227.8,720.1c-3.4,0-6.1-2.7-6.1-6.1s2.7-6.1,6.1-6.1,6.1,2.7,6.1,6.1-2.7,6.1-6.1,6.1ZM227.8,690.7c-3.4,0-6.1-2.7-6.1-6.1s2.7-6.1,6.1-6.1,6.1,2.7,6.1,6.1-2.7,6.1-6.1,6.1ZM227.8,661.3c-3.4,0-6.1-2.7-6.1-6.1s2.7-6.1,6.1-6.1,6.1,2.7,6.1,6.1-2.7,6.1-6.1,6.1ZM227.8,631.9c-3.4,0-6.1-2.7-6.1-6.1s2.7-6.1,6.1-6.1,6.1,2.7,6.1,6.1-2.7,6.1-6.1,6.1ZM227.8,602.5c-3.4,0-6.1-2.7-6.1-6.1s2.7-6.1,6.1-6.1,6.1,2.7,6.1,6.1-2.7,6.1-6.1,6.1ZM227.8,573.1c-3.4,0-6.1-2.7-6.1-6.1s2.7-6.1,6.1-6.1,6.1,2.7,6.1,6.1-2.7,6.1-6.1,6.1ZM227.8,543.7c-3.4,0-6.1-2.7-6.1-6.1s2.7-6.1,6.1-6.1,6.1,2.7,6.1,6.1-2.7,6.1-6.1,6.1ZM227.8,514.3c-3.4,0-6.1-2.7-6.1-6.1s2.7-6.1,6.1-6.1,6.1,2.7,6.1,6.1-2.7,6.1-6.1,6.1ZM227.8,484.9c-3.4,0-6.1-2.7-6.1-6.1s2.7-6.1,6.1-6.1,6.1,2.7,6.1,6.1-2.7,6.1-6.1,6.1Z"/>
        <path class="cls-26" d="M53.7,463.6c-11.3,0-20.5,9.2-20.5,20.5s9.2,20.5,20.5,20.5,20.5-9.2,20.5-20.5c.1-11.3-9.1-20.5-20.5-20.5ZM53.7,496.2c-6.7,0-12.1-5.4-12.1-12.1s5.4-12.1,12.1-12.1,12.1,5.4,12.1,12.1c0,6.7-5.4,12.1-12.1,12.1Z"/>
        <path class="cls-26" d="M186.3,463.6c-11.3,0-20.5,9.2-20.5,20.5s9.2,20.5,20.5,20.5,20.5-9.2,20.5-20.5-9.2-20.5-20.5-20.5ZM186.3,496.2c-6.7,0-12.1-5.4-12.1-12.1s5.4-12.1,12.1-12.1,12.1,5.4,12.1,12.1c0,6.7-5.4,12.1-12.1,12.1Z"/>
        <path class="cls-26" d="M53.7,1010.7c-11.3,0-20.5,9.2-20.5,20.5s9.2,20.5,20.5,20.5,20.5-9.2,20.5-20.5-9.1-20.5-20.5-20.5ZM53.7,1043.4c-6.7,0-12.1-5.4-12.1-12.1s5.4-12.1,12.1-12.1,12.1,5.4,12.1,12.1-5.4,12.1-12.1,12.1Z"/>
        <path class="cls-26" d="M188.3,1010.7c-11.3,0-20.5,9.2-20.5,20.5s9.2,20.5,20.5,20.5,20.5-9.2,20.5-20.5-9.2-20.5-20.5-20.5ZM188.3,1043.4c-6.7,0-12.1-5.4-12.1-12.1s5.4-12.1,12.1-12.1,12.1,5.4,12.1,12.1-5.4,12.1-12.1,12.1Z"/>
        <circle class="cls-32" cx="55" cy="548.8" r="10.6"/>
        <circle class="cls-18" cx="55" cy="548.8" r="5.5"/>
        <path class="cls-33" d="M17.5,528.6H.3v3.4c2.3.9,3.9,3.1,3.9,5.7s-1.6,4.8-3.9,5.7v3.4h17.2c5,0,9-4,9-9h0c0-5.2-4.1-9.2-9-9.2ZM15.9,543.7c-3.4,0-6.1-2.7-6.1-6.1s2.7-6.1,6.1-6.1,6.1,2.7,6.1,6.1-2.8,6.1-6.1,6.1Z"/>
        <path class="cls-33" d="M17.5,675.6H.3v3.4c2.3.9,3.9,3.1,3.9,5.7s-1.6,4.8-3.9,5.7v3.4h17.2c5,0,9-4,9-9s-4.1-9.2-9-9.2ZM15.9,690.7c-3.4,0-6.1-2.7-6.1-6.1s2.7-6.1,6.1-6.1,6.1,2.7,6.1,6.1-2.8,6.1-6.1,6.1Z"/>
        <path class="cls-33" d="M17.5,822.6H.3v3.4c2.3.9,3.9,3.1,3.9,5.7s-1.6,4.8-3.9,5.7v3.4h17.2c5,0,9-4,9-9s-4.1-9.2-9-9.2ZM15.9,837.7c-3.4,0-6.1-2.7-6.1-6.1s2.7-6.1,6.1-6.1,6.1,2.7,6.1,6.1-2.8,6.1-6.1,6.1Z"/>
        <path class="cls-33" d="M17.5,852H.3v3.4c2.3.9,3.9,3.1,3.9,5.7s-1.6,4.8-3.9,5.7v3.4h17.2c5,0,9-4,9-9s-4.1-9.2-9-9.2ZM15.9,867.1c-3.4,0-6.1-2.7-6.1-6.1s2.7-6.1,6.1-6.1,6.1,2.7,6.1,6.1-2.8,6.1-6.1,6.1Z"/>
        <path class="cls-33" d="M17.5,881.4H.3v3.4c2.3.9,3.9,3.1,3.9,5.7s-1.6,4.8-3.9,5.7v3.4h17.2c5,0,9-4,9-9s-4.1-9.2-9-9.2ZM15.9,896.5c-3.4,0-6.1-2.7-6.1-6.1s2.7-6.1,6.1-6.1,6.1,2.7,6.1,6.1-2.8,6.1-6.1,6.1Z"/>
        <path class="cls-33" d="M17.5,910.8H.3v3.4c2.3.9,3.9,3.1,3.9,5.7s-1.6,4.8-3.9,5.7v3.4h17.2c5,0,9-4,9-9s-4.1-9.2-9-9.2ZM15.9,925.9c-3.4,0-6.1-2.7-6.1-6.1s2.7-6.1,6.1-6.1,6.1,2.7,6.1,6.1-2.8,6.1-6.1,6.1Z"/>
        <path class="cls-33" d="M17.5,969.5H.3v3.4c2.3.9,3.9,3.1,3.9,5.7s-1.6,4.8-3.9,5.7v3.4h17.2c5,0,9-4,9-9h0c0-5.1-4.1-9.2-9-9.2ZM15.9,984.7c-3.4,0-6.1-2.7-6.1-6.1s2.7-6.1,6.1-6.1,6.1,2.7,6.1,6.1-2.8,6.1-6.1,6.1Z"/>
        <path class="cls-33" d="M17.5,998.9H.3v3.4c2.3.9,3.9,3.1,3.9,5.7s-1.6,4.8-3.9,5.7v3.4h17.2c5,0,9-4,9-9h0c0-5.1-4.1-9.2-9-9.2ZM15.9,1014c-3.4,0-6.1-2.7-6.1-6.1s2.7-6.1,6.1-6.1,6.1,2.7,6.1,6.1-2.8,6.1-6.1,6.1Z"/>
        <path class="cls-33" d="M17.5,1028.3H.3v3.4c2.3.9,3.9,3.1,3.9,5.7s-1.6,4.8-3.9,5.7v3.4h17.2c5,0,9-4,9-9s-4.1-9.2-9-9.2ZM15.9,1043.4c-3.4,0-6.1-2.7-6.1-6.1s2.7-6.1,6.1-6.1,6.1,2.7,6.1,6.1c-.1,3.4-2.8,6.1-6.1,6.1Z"/>
        <path class="cls-33" d="M239.5,478.8c0-2.6,1.6-4.8,3.9-5.7v-3.4h-17.2c-5,0-9,4-9,9s4,9,9,9h17.2v-3.4c-2.2-.7-3.9-2.9-3.9-5.5ZM227.8,484.9c-3.4,0-6.1-2.7-6.1-6.1s2.7-6.1,6.1-6.1,6.1,2.7,6.1,6.1-2.7,6.1-6.1,6.1Z"/>
        <path class="cls-33" d="M239.5,508.2c0-2.6,1.6-4.8,3.9-5.7v-3.4h-17.2c-5,0-9,4-9,9h0c0,5,4,9,9,9h17.2v-3.4c-2.2-.7-3.9-2.9-3.9-5.5ZM227.8,514.3c-3.4,0-6.1-2.7-6.1-6.1s2.7-6.1,6.1-6.1,6.1,2.7,6.1,6.1-2.7,6.1-6.1,6.1Z"/>
        <path class="cls-33" d="M239.5,537.6c0-2.6,1.6-4.8,3.9-5.7v-3.4h-17.2c-5,0-9,4-9,9h0c0,5,4,9,9,9h17.2v-3.4c-2.2-.7-3.9-2.9-3.9-5.5ZM227.8,543.7c-3.4,0-6.1-2.7-6.1-6.1s2.7-6.1,6.1-6.1,6.1,2.7,6.1,6.1-2.7,6.1-6.1,6.1Z"/>
        <path class="cls-33" d="M239.5,567c0-2.6,1.6-4.8,3.9-5.7v-3.3h-17.2c-5,0-9,4-9,9s4,9,9,9h17.2v-3.4c-2.2-.8-3.9-3-3.9-5.6ZM227.8,573.1c-3.4,0-6.1-2.7-6.1-6.1s2.7-6.1,6.1-6.1,6.1,2.7,6.1,6.1-2.7,6.1-6.1,6.1Z"/>
        <path class="cls-33" d="M239.5,596.4c0-2.6,1.6-4.8,3.9-5.7v-3.4h-17.2c-5,0-9,4-9,9s4,9,9,9h17.2v-3.4c-2.2-.7-3.9-2.9-3.9-5.5ZM227.8,602.5c-3.4,0-6.1-2.7-6.1-6.1s2.7-6.1,6.1-6.1,6.1,2.7,6.1,6.1-2.7,6.1-6.1,6.1Z"/>
        <path class="cls-33" d="M239.5,625.8c0-2.6,1.6-4.8,3.9-5.7v-3.4h-17.2c-5,0-9,4-9,9s4,9,9,9h17.2v-3.4c-2.2-.7-3.9-2.9-3.9-5.5ZM227.8,631.9c-3.4,0-6.1-2.7-6.1-6.1s2.7-6.1,6.1-6.1,6.1,2.7,6.1,6.1-2.7,6.1-6.1,6.1Z"/>
        <path class="cls-33" d="M239.5,684.6c0-2.6,1.6-4.8,3.9-5.7v-3.4h-17.2c-5,0-9,4-9,9s4,9,9,9h17.2v-3.4c-2.2-.7-3.9-2.9-3.9-5.5ZM227.8,690.7c-3.4,0-6.1-2.7-6.1-6.1s2.7-6.1,6.1-6.1,6.1,2.7,6.1,6.1-2.7,6.1-6.1,6.1Z"/>
        <path class="cls-33" d="M239.5,743.4c0-2.6,1.6-4.8,3.9-5.7v-3.4h-17.2c-5,0-9,4-9,9h0c0,5,4,9,9,9h17.2v-3.4c-2.2-.7-3.9-2.9-3.9-5.5ZM227.8,749.5c-3.4,0-6.1-2.7-6.1-6.1s2.7-6.1,6.1-6.1,6.1,2.7,6.1,6.1-2.7,6.1-6.1,6.1Z"/>
        <path class="cls-33" d="M239.5,772.8c0-2.6,1.6-4.8,3.9-5.7v-3.4h-17.2c-5,0-9,4-9,9h0c0,5,4,9,9,9h17.2v-3.4c-2.2-.7-3.9-2.9-3.9-5.5ZM227.8,778.9c-3.4,0-6.1-2.7-6.1-6.1s2.7-6.1,6.1-6.1,6.1,2.7,6.1,6.1-2.7,6.1-6.1,6.1Z"/>
        <path class="cls-33" d="M239.5,802.2c0-2.6,1.6-4.8,3.9-5.7v-3.4h-17.2c-5,0-9,4-9,9s4,9,9,9h17.2v-3.4c-2.2-.7-3.9-2.9-3.9-5.5ZM227.8,808.3c-3.4,0-6.1-2.7-6.1-6.1s2.7-6.1,6.1-6.1,6.1,2.7,6.1,6.1-2.7,6.1-6.1,6.1Z"/>
        <path class="cls-33" d="M239.5,831.6c0-2.6,1.6-4.8,3.9-5.7v-3.4h-17.2c-5,0-9,4-9,9s4,9,9,9h17.2v-3.4c-2.2-.7-3.9-2.9-3.9-5.5ZM227.8,837.7c-3.4,0-6.1-2.7-6.1-6.1s2.7-6.1,6.1-6.1,6.1,2.7,6.1,6.1-2.7,6.1-6.1,6.1Z"/>
        <path class="cls-33" d="M239.5,861c0-2.6,1.6-4.8,3.9-5.7v-3.3h-17.2c-5,0-9,4-9,9s4,9,9,9h17.2v-3.4c-2.2-.8-3.9-3-3.9-5.6ZM227.8,867.1c-3.4,0-6.1-2.7-6.1-6.1s2.7-6.1,6.1-6.1,6.1,2.7,6.1,6.1-2.7,6.1-6.1,6.1Z"/>
        <path class="cls-33" d="M239.5,890.4c0-2.6,1.6-4.8,3.9-5.7v-3.4h-17.2c-5,0-9,4-9,9s4,9,9,9h17.2v-3.3c-2.2-.8-3.9-3-3.9-5.6ZM227.8,896.5c-3.4,0-6.1-2.7-6.1-6.1s2.7-6.1,6.1-6.1,6.1,2.7,6.1,6.1-2.7,6.1-6.1,6.1Z"/>
        <path class="cls-33" d="M239.5,919.8c0-2.6,1.6-4.8,3.9-5.7v-3.4h-17.2c-5,0-9,4-9,9s4,9,9,9h17.2v-3.4c-2.2-.7-3.9-2.9-3.9-5.5ZM227.8,925.9c-3.4,0-6.1-2.7-6.1-6.1s2.7-6.1,6.1-6.1,6.1,2.7,6.1,6.1-2.7,6.1-6.1,6.1Z"/>
        <path class="cls-33" d="M239.5,978.6c0-2.6,1.6-4.8,3.9-5.7v-3.4h-17.2c-5,0-9,4-9,9h0c0,5,4,9,9,9h17.2v-3.4c-2.2-.7-3.9-3-3.9-5.5ZM227.8,984.7c-3.4,0-6.1-2.7-6.1-6.1s2.7-6.1,6.1-6.1,6.1,2.7,6.1,6.1-2.7,6.1-6.1,6.1Z"/>
        <path class="cls-33" d="M239.5,1008c0-2.6,1.6-4.8,3.9-5.7v-3.4h-17.2c-5,0-9,4-9,9h0c0,5,4,9,9,9h17.2v-3.4c-2.2-.8-3.9-3-3.9-5.5ZM227.8,1014c-3.4,0-6.1-2.7-6.1-6.1s2.7-6.1,6.1-6.1,6.1,2.7,6.1,6.1-2.7,6.1-6.1,6.1Z"/>
        <path class="cls-17" d="M163.1,450.7l4.4-4.4-2.3-2.3-6.6,6.6h-1.5v-4.6c0-1.2-1-2.2-2.2-2.2h-69.5c-1.2,0-2.2,1-2.2,2.2v4.7h-1.5l-6.6-6.6-2.3,2.3,4.4,4.4c-.6.2-1,.8-1,1.4v56.3c0,.9.7,1.6,1.6,1.6h84.6c.9,0,1.6-.7,1.6-1.6v-56.3c0-.7-.4-1.2-.9-1.5Z"/>
        <g>
          <path class="cls-31" d="M100.3,473c0-3.2-2.6-5.8-5.8-5.8s-5.8,2.6-5.8,5.8.5,2.7,1.3,3.7h-.2v7.7c0,1.2,1,2.1,2.1,2.1h5.1c1.2,0,2.1-1,2.1-2.1v-7.7h0c.8-1,1.3-2.3,1.3-3.7Z"/>
          <path class="cls-31" d="M155.5,473c0-3.2-2.6-5.8-5.8-5.8s-5.8,2.6-5.8,5.8.5,2.7,1.3,3.7h-.2v7.7c0,1.2,1,2.1,2.1,2.1h5.1c1.2,0,2.1-1,2.1-2.1v-7.7h-.2c.9-1,1.4-2.3,1.4-3.7Z"/>
        </g>
        <path class="cls-16" d="M200.9,603.2h-21c-1.2,0-2.2-1-2.2-2.2v-26.7c0-1.2,1-2.2,2.2-2.2h21c1.2,0,2.2,1,2.2,2.2v26.7c0,1.2-1,2.2-2.2,2.2Z"/>
        <g>
          <rect class="cls-12" x="132" y="539.3" width="21.7" height="14.4"/>
          <path class="cls-23" d="M149.3,553.8c-2-1.8-3.2-4.4-3.2-7.2s1.2-5.4,3.2-7.2h-12.8c2,1.8,3.2,4.4,3.2,7.2s-1.2,5.4-3.2,7.2h12.8Z"/>
        </g>
        <g>
          <rect class="cls-12" x="132.3" y="624.7" width="21.7" height="14.4"/>
          <path class="cls-23" d="M149.6,639.1c-2-1.8-3.2-4.4-3.2-7.2s1.2-5.4,3.2-7.2h-12.8c2,1.8,3.2,4.4,3.2,7.2s-1.2,5.4-3.2,7.2h12.8Z"/>
        </g>
        <g>
          <rect class="cls-12" x="132.3" y="643.8" width="21.7" height="14.4"/>
          <path class="cls-23" d="M149.6,658.3c-2-1.8-3.2-4.4-3.2-7.2s1.2-5.4,3.2-7.2h-12.8c2,1.8,3.2,4.4,3.2,7.2s-1.2,5.4-3.2,7.2h12.8Z"/>
        </g>
        <g>
          <rect class="cls-12" x="61.2" y="694.8" width="10.6" height="5.4"/>
          <rect class="cls-23" x="63.5" y="694.8" width="6" height="5.4"/>
        </g>
        <g>
          <rect class="cls-12" x="177.1" y="674.8" width="5.4" height="10.6"/>
          <rect class="cls-23" x="177.1" y="677.1" width="5.4" height="6"/>
        </g>
        <rect class="cls-16" x="179.5" y="524.8" width="18.9" height="29.3"/>
        <g>
          <rect class="cls-12" x="171.6" y="626" width="20.6" height="9.6"/>
          <rect class="cls-7" x="176.2" y="626" width="11.5" height="9.6"/>
        </g>
        <rect class="cls-23" x="120.2" y="794.1" width="4.2" height="6.9"/>
        <rect class="cls-23" x="126.9" y="794.1" width="4.2" height="6.9"/>
        <rect class="cls-23" x="65.3" y="705.5" width="6.9" height="4.2"/>
        <rect class="cls-23" x="88.3" y="638.4" width="6.9" height="4.2"/>
        <rect class="cls-23" x="65" y="749" width="6.9" height="4.2"/>
        <rect class="cls-16" x="195" y="752.9" width="4.2" height="6.9"/>
        <rect class="cls-16" x="187.9" y="693" width="6.9" height="4.2"/>
        <rect class="cls-16" x="85.9" y="537.4" width="6.9" height="4.2"/>
        <rect class="cls-16" x="81" y="549.6" width="6.9" height="4.2"/>
        <rect class="cls-16" x="191.5" y="642.1" width="6.9" height="4.2"/>
        <path class="cls-9" d="M186.3,957.8H57.5c-2.1,0-3.9-1.7-3.9-3.9v-108.1c0-2.1,1.7-3.9,3.9-3.9h128.8c2.1,0,3.9,1.7,3.9,3.9v108.1c0,2.2-1.7,3.9-3.9,3.9Z"/>
        <rect class="cls-5" x="101.5" y="1004.1" width="10.5" height="5.9"/>
        <rect class="cls-5" x="130.3" y="1004.2" width="10.5" height="5.9"/>
        <rect class="cls-5" x="101.5" y="1041.8" width="10.5" height="5.9"/>
        <rect class="cls-5" x="130.3" y="1042" width="10.5" height="5.9"/>
        <polyline class="cls-4" points="17.5 486.6 17.5 491 35.4 509 35.4 557.6 51 573.2 51 707.9 55.9 712.9 91.2 712.9"/>
        <polyline class="cls-4" points="22.9 513.5 31 521.5 31 559.4 46.7 575.1 46.7 710.4 52.6 716.3 91 716.3"/>
        <polyline class="cls-4" points="23.2 571.9 43 591.7 43 712.9 53.4 723.3 95 723.3"/>
        <polyline class="cls-4" points="23.2 601.3 39.8 617.9 39.8 714.8 51.9 726.9 95.1 726.9"/>
        <polyline class="cls-4" points="23.2 631.5 35.6 643.8 35.6 719.8 49.5 733.8 93.4 733.8"/>
        <polyline class="cls-4" points="22.9 659.6 31.6 668.3 31.6 722.5 46.4 737.3 96.1 737.3"/>
        <polyline class="cls-4" points="22.9 718.3 45.3 740.7 102.7 740.7"/>
        <line class="cls-4" x1="23.7" y1="744.2" x2="98.8" y2="744.2"/>
        <path class="cls-4" d="M23.2,770.5c.1-.6,17.3-17.3,17.3-17.3h12.5l4.9,4.9h45.7"/>
        <polyline class="cls-4" points="20.4 796.5 25.7 791.1 25.7 783.3 30.9 778.2 30.9 769.8 43.9 756.7 52.6 756.7 57.3 761.4 95.3 761.4"/>
        <path class="cls-4" d="M30.7,786.6l3.4-3.4s-.7-8.9,0-9.6c.7-.7,6-6,6-6l6.3-6.3h6.1l3.7,3.7h35.1"/>
        <polyline class="cls-4" points="29.1 842.6 29.1 794.9 38.7 785.4 93.4 785.4 95 783.7 95 774.1"/>
        <polyline class="cls-4" points="17.5 940.8 17.5 937.2 32.9 921.7 32.9 841.4 35.7 838.7 35.7 796.9 42 790.6 94.2 790.6 98.4 786.4 98.4 779"/>
        <path class="cls-4" d="M35.7,824.4"/>
        <path class="cls-4" d="M35.7,839.6"/>
        <polyline class="cls-4" points="23.6 1001.4 30.4 994.6 30.4 930 37.5 924.1"/>
        <polyline class="cls-4" points="35.6 934.4 42.6 927.4 42.6 837.7 39.9 835 39.9 798.1 44.6 793.5 94.9 793.5 101.9 786.5 101.9 769.9"/>
        <polyline class="cls-4" points="108.9 776.6 108.9 785.4 95.9 798.4 91.5 798.4"/>
        <polyline class="cls-4" points="93.9 807 112.4 788.5 112.4 773.1"/>
        <polyline class="cls-4" points="115.9 778.5 115.9 790.1 102.2 803.8 102.2 823.8 95.9 830.1 65 830.1 55.5 820.6"/>
        <polyline class="cls-4" points="133.9 817.4 138.7 812.6 138.7 799.3 135.5 796.2 135.5 786.2 132.4 783 132.4 772.1"/>
        <polyline class="cls-4" points="137.3 776.2 137.3 784 139.3 786 139.3 792.4 152.7 805.8 164.9 805.8 179.1 820.1"/>
        <polyline class="cls-4" points="145.3 774 145.3 784.4 151.3 790.4 172.3 790.4 200.5 818.6 200.5 931.2 206.7 937.4 206.7 988.3 212.3 993.8 212.3 1014 223.3 1025.1 223.3 1030.4"/>
        <polyline class="cls-4" points="150.7 774.4 150.7 781.7 154.7 785.8 173.6 785.8 205.2 817.3 205.2 928.8 211.4 935 211.4 987.6 215.6 991.8 215.6 1000.5"/>
        <polyline class="cls-4" points="157.5 769.3 165.3 769.3 211.1 815.1 211.1 926.7 227.2 942.9"/>
        <polyline class="cls-4" points="157.5 764.9 166.9 764.9 192.1 790.1"/>
        <polyline class="cls-4" points="158.6 759.7 166.6 759.7 190.1 783.2 195.5 783.2 206.3 794 206.3 801"/>
        <polyline class="cls-4" points="158.2 755.3 167.3 755.3 190.4 778.3 200.9 778.3"/>
        <polyline class="cls-4" points="158.2 751.1 169.1 751.1 174.1 756.1"/>
        <polyline class="cls-4" points="158.2 746.1 175.4 746.1 202.8 773.5 206.3 773.5 215.9 783.2 215.9 795.5"/>
        <line class="cls-4" x1="158.6" y1="740.7" x2="167.7" y2="740.7"/>
        <polyline class="cls-4" points="156.4 735.3 171.8 735.3 179.2 742.7"/>
        <polyline class="cls-4" points="187.9 755.3 192.4 750.7 192.4 731.4 203.4 731.4"/>
        <polyline class="cls-4" points="158.6 726.9 209.5 726.9 218.5 735.9"/>
        <polyline class="cls-4" points="158.2 722.5 213.8 722.5 220.3 716"/>
        <polyline class="cls-4" points="157.5 718.3 198.8 718.3 207.1 710 207.1 669.7 219.6 657.2"/>
        <polyline class="cls-4" points="158.6 714 179.1 714 202.4 690.8 202.4 667.9"/>
        <polyline class="cls-4" points="159.7 709.3 167.2 709.3 171.8 704.7"/>
        <path class="cls-4" d="M147.8,704c-.2-.3,9.2-9.2,9.2-9.2h15.6v-33.5l2.8-2.8v-7.7"/>
        <path class="cls-4" d="M147,701.8v-6.5l10.3-10.3"/>
        <polyline class="cls-4" points="140.1 702.7 140.1 691.9 147.4 684.6"/>
        <line class="cls-4" x1="136.6" y1="699.7" x2="136.6" y2="682.1"/>
        <path class="cls-4" d="M133.1,701.4v-15.2l-4.2-4.2"/>
        <path class="cls-4" d="M122.6,701.1v-20.7"/>
        <path class="cls-4" d="M119.2,702.7v-11.1l-7.6-7.6"/>
        <polyline class="cls-4" points="115.6 702.3 115.6 695.9 101.8 682 101.8 675.6 105 672.4 108.9 672.4 111.5 669.7 111.5 659.2 106.1 653.8 100 653.8"/>
        <polyline class="cls-4" points="99.8 659.6 105.4 659.6 108.5 662.7 108.5 667.9 105.7 670.6 101.1 670.6 97.7 674.1 97.7 683.1 108.7 694.1 108.7 700.9"/>
        <polyline class="cls-4" points="91.3 664.1 91.3 680.9 105.2 694.8 105.2 704.3"/>
        <polyline class="cls-4" points="76.5 663.3 76.5 670.5 85.9 679.9 85.9 683.7 99 696.8 99 705.9"/>
        <path class="cls-4" d="M94.8,699.9v-5l-11.7-11.7v-1.1l-4.5-4.5h-6.4l-1.7-1.7h-6.9l-6.7-6.7v-14.4l1.6-1.6h8.8"/>
        <polyline class="cls-4" points="69.1 647.2 60.4 647.2 55.4 652.2 55.4 670.1 63.4 678 69.5 678 75.9 684.4 78.4 684.4 92.5 698.5"/>
        <line class="cls-4" x1="73.8" y1="620.5" x2="56" y2="638.3"/>
        <polyline class="cls-4" points="137.6 681.2 137.6 675 134.7 672.1 134.7 669 130.2 664.6 125.2 664.6 121.1 660.5 121.1 641.6 109.7 630.1 109.7 547.9 124 533.6 124 524.5 127.7 520.8"/>
        <path class="cls-4" d="M135.3,573.8v-9l-3.1-3.1h-9.8l-4.5-4.5v-4.3"/>
        <polyline class="cls-4" points="129.3 606.2 129.3 611.5 126.1 614.7 120.2 614.7 118.6 616.3"/>
        <polyline class="cls-4" points="62.9 519.3 62.9 528.7 79.1 544.9 83.6 544.9 88.5 549.8 88.5 558 83.9 562.5 83.9 576.1"/>
        <rect class="cls-6" x="45.6" y="512.1" width="18.9" height="9.6"/>
        <g>
          <rect class="cls-8" x="102.7" y="510" width="4.3" height="11.5"/>
          <rect class="cls-8" x="110.4" y="510" width="4.3" height="11.5"/>
          <rect class="cls-8" x="118.1" y="510" width="4.3" height="11.5"/>
          <rect class="cls-8" x="125.7" y="510" width="4.3" height="11.5"/>
          <rect class="cls-8" x="133.4" y="510" width="4.3" height="11.5"/>
        </g>
        <g>
          <path class="cls-21" d="M106.8,530.8v-5.5h2.5v5.8c0,2,.6,2.7,1.7,2.7s1.8-.7,1.8-2.7v-5.8h2.4v5.5c0,3.5-1.4,5.1-4.2,5.1s-4.2-1.6-4.2-5.1Z"/>
          <path class="cls-21" d="M116.7,534.4l1.3-1.6c.7.6,1.7,1,2.6,1s1.4-.4,1.4-.9-.6-.8-1.5-1.2l-1.3-.6c-1.1-.4-2.1-1.3-2.1-2.8s1.6-3.2,3.8-3.2,2.5.5,3.4,1.3l-1.3,1.6c-.7-.5-1.4-.8-2.1-.8s-1.3.3-1.3.8.7.8,1.6,1.2l1.3.5c1.3.5,2.1,1.4,2.1,2.8s-1.5,3.3-4,3.3c-1.5.1-2.8-.4-3.9-1.4Z"/>
          <path class="cls-21" d="M126.3,525.3h3.6c2.2,0,3.9.6,3.9,2.6s-.5,1.9-1.4,2.2h0c1.1.4,1.9,1.2,1.9,2.5,0,2.1-1.8,3.1-4.1,3.1h-3.9s0-10.4,0-10.4ZM129.8,529.4c1.1,0,1.5-.5,1.5-1.2s-.5-1.1-1.5-1.1h-1.1v2.2h1.1ZM130,533.8c1.2,0,1.8-.4,1.8-1.3s-.6-1.2-1.8-1.2h-1.2v2.5h1.2Z"/>
        </g>
        <path class="cls-38" d="M170.2,606.7h-45.7c-.5,0-1-.4-1-1v-33.5c0-.5.4-1,1-1h45.7c.5,0,1,.4,1,1v33.5c0,.6-.5,1-1,1Z"/>
        <g>
          <rect class="cls-8" x="128.6" y="567.1" width="1.4" height="4.1"/>
          <rect class="cls-8" x="134.6" y="567.1" width="1.4" height="4.1"/>
          <rect class="cls-8" x="140.6" y="567.1" width="1.4" height="4.1"/>
          <rect class="cls-8" x="146.6" y="567.1" width="1.4" height="4.1"/>
          <rect class="cls-8" x="152.6" y="567.1" width="1.4" height="4.1"/>
          <rect class="cls-8" x="158.6" y="567.1" width="1.4" height="4.1"/>
          <rect class="cls-8" x="164.6" y="567.1" width="1.4" height="4.1"/>
        </g>
        <g>
          <rect class="cls-8" x="128.6" y="606.7" width="1.4" height="4.1"/>
          <rect class="cls-8" x="134.6" y="606.7" width="1.4" height="4.1"/>
          <rect class="cls-8" x="140.6" y="606.7" width="1.4" height="4.1"/>
          <rect class="cls-8" x="146.6" y="606.7" width="1.4" height="4.1"/>
          <rect class="cls-8" x="152.6" y="606.7" width="1.4" height="4.1"/>
          <rect class="cls-8" x="158.6" y="606.7" width="1.4" height="4.1"/>
          <rect class="cls-8" x="164.6" y="606.7" width="1.4" height="4.1"/>
        </g>
        <g>
          <rect class="cls-2" x="61.4" y="575.1" width="39.3" height="48.9"/>
          <path class="cls-29" d="M81,617.8h0c-7.6,0-13.7-6.1-13.7-13.7v-9.1c0-7.6,6.1-13.7,13.7-13.7h0c7.6,0,13.7,6.1,13.7,13.7v9.1c0,7.5-6.1,13.7-13.7,13.7Z"/>
          <path class="cls-29" d="M61.4,585.3h0v-10.3h10.3c-.1,5.7-4.6,10.3-10.3,10.3Z"/>
          <path class="cls-29" d="M71.6,624h-10.2v-10.3h0c5.7,0,10.2,4.6,10.2,10.3h0Z"/>
          <path class="cls-29" d="M100.7,585.3h0c-5.7,0-10.3-4.6-10.3-10.3h10.3v10.3Z"/>
          <path class="cls-29" d="M100.7,624h-10.3c0-5.7,4.6-10.3,10.3-10.3h0s0,10.3,0,10.3Z"/>
        </g>
        <g>
          <rect class="cls-38" x="64.9" y="644.6" width="34.6" height="22.9"/>
          <g>
            <rect class="cls-8" x="60.7" y="645.7" width="4.2" height="3.4"/>
            <rect class="cls-8" x="60.7" y="651.4" width="4.2" height="3.4"/>
            <rect class="cls-8" x="60.7" y="657.2" width="4.2" height="3.4"/>
            <rect class="cls-8" x="60.7" y="662.9" width="4.2" height="3.4"/>
          </g>
          <g>
            <rect class="cls-8" x="99.5" y="645.7" width="4.2" height="3.4"/>
            <rect class="cls-8" x="99.5" y="651.4" width="4.2" height="3.4"/>
            <rect class="cls-8" x="99.5" y="657.2" width="4.2" height="3.4"/>
            <rect class="cls-8" x="99.5" y="662.9" width="4.2" height="3.4"/>
          </g>
        </g>
        <rect class="cls-16" x="135.5" y="676.1" width="4.2" height="6.9"/>
        <g>
          <path class="cls-11" d="M160.4,779.8h-79c-.7,0-1.3-.6-1.3-1.3v-79.1c0-.7.6-1.3,1.3-1.3h79.1c.7,0,1.3.6,1.3,1.3v79.1c-.1.7-.7,1.3-1.4,1.3Z"/>
          <g>
            <rect class="cls-8" x="86.2" y="696.2" width="3.1" height="1.9"/>
            <rect class="cls-8" x="89.7" y="696.2" width="3.1" height="1.9"/>
            <rect class="cls-8" x="93.2" y="696.2" width="3.1" height="1.9"/>
            <rect class="cls-8" x="96.7" y="696.2" width="3.1" height="1.9"/>
            <rect class="cls-8" x="100.2" y="696.2" width="3.1" height="1.9"/>
            <rect class="cls-8" x="103.6" y="696.2" width="3.1" height="1.9"/>
            <rect class="cls-8" x="107.1" y="696.2" width="3.1" height="1.9"/>
            <rect class="cls-8" x="114.1" y="696.2" width="3.1" height="1.9"/>
            <rect class="cls-8" x="121.1" y="696.2" width="3.1" height="1.9"/>
            <rect class="cls-8" x="128" y="696.2" width="3.1" height="1.9"/>
            <rect class="cls-8" x="138.5" y="696.2" width="3.1" height="1.9"/>
            <rect class="cls-8" x="142" y="696.2" width="3.1" height="1.9"/>
            <rect class="cls-8" x="149" y="696.2" width="3.1" height="1.9"/>
            <rect class="cls-8" x="110.6" y="696.2" width="3.1" height="1.9"/>
            <rect class="cls-8" x="117.6" y="696.2" width="3.1" height="1.9"/>
            <rect class="cls-8" x="124.6" y="696.2" width="3.1" height="1.9"/>
            <rect class="cls-8" x="131.5" y="696.2" width="3.1" height="1.9"/>
            <rect class="cls-8" x="135" y="696.2" width="3.1" height="1.9"/>
            <rect class="cls-8" x="145.5" y="696.2" width="3.1" height="1.9"/>
            <rect class="cls-8" x="152.4" y="696.2" width="3.1" height="1.9"/>
          </g>
          <g>
            <rect class="cls-8" x="86.4" y="779.8" width="3.1" height="1.9"/>
            <rect class="cls-8" x="89.9" y="779.8" width="3.1" height="1.9"/>
            <rect class="cls-8" x="93.4" y="779.8" width="3.1" height="1.9"/>
            <rect class="cls-8" x="96.9" y="779.8" width="3.1" height="1.9"/>
            <rect class="cls-8" x="100.4" y="779.8" width="3.1" height="1.9"/>
            <rect class="cls-8" x="103.8" y="779.8" width="3.1" height="1.9"/>
            <rect class="cls-8" x="107.3" y="779.8" width="3.1" height="1.9"/>
            <rect class="cls-8" x="114.3" y="779.8" width="3.1" height="1.9"/>
            <rect class="cls-8" x="121.3" y="779.8" width="3.1" height="1.9"/>
            <rect class="cls-8" x="128.2" y="779.8" width="3.1" height="1.9"/>
            <rect class="cls-8" x="138.7" y="779.8" width="3.1" height="1.9"/>
            <rect class="cls-8" x="142.2" y="779.8" width="3.1" height="1.9"/>
            <rect class="cls-8" x="149.1" y="779.8" width="3.1" height="1.9"/>
            <rect class="cls-8" x="110.8" y="779.8" width="3.1" height="1.9"/>
            <rect class="cls-8" x="117.8" y="779.8" width="3.1" height="1.9"/>
            <rect class="cls-8" x="124.7" y="779.8" width="3.1" height="1.9"/>
            <rect class="cls-8" x="131.7" y="779.8" width="3.1" height="1.9"/>
            <rect class="cls-8" x="135.2" y="779.8" width="3.1" height="1.9"/>
            <rect class="cls-8" x="145.7" y="779.8" width="3.1" height="1.9"/>
            <rect class="cls-8" x="152.6" y="779.8" width="3.1" height="1.9"/>
          </g>
          <g>
            <rect class="cls-8" x="78.1" y="770.6" width="1.9" height="3.1"/>
            <rect class="cls-8" x="78.2" y="767.1" width="1.9" height="3.1"/>
            <rect class="cls-8" x="78.2" y="763.6" width="1.9" height="3.1"/>
            <rect class="cls-8" x="78.1" y="760.1" width="1.9" height="3.1"/>
            <rect class="cls-8" x="78.1" y="756.6" width="1.9" height="3.1"/>
            <rect class="cls-8" x="78.1" y="753.2" width="1.9" height="3.1"/>
            <rect class="cls-8" x="78.1" y="749.7" width="1.9" height="3.1"/>
            <rect class="cls-8" x="78.2" y="742.7" width="1.9" height="3.1"/>
            <rect class="cls-8" x="78.1" y="735.7" width="1.9" height="3.1"/>
            <rect class="cls-8" x="78.1" y="728.8" width="1.9" height="3.1"/>
            <rect class="cls-8" x="78.2" y="718.3" width="1.9" height="3.1"/>
            <rect class="cls-8" x="78.2" y="714.8" width="1.9" height="3.1"/>
            <rect class="cls-8" x="78.1" y="707.9" width="1.9" height="3.1"/>
            <rect class="cls-8" x="78.1" y="746.2" width="1.9" height="3.1"/>
            <rect class="cls-8" x="78.2" y="739.2" width="1.9" height="3.1"/>
            <rect class="cls-8" x="78.1" y="732.3" width="1.9" height="3.1"/>
            <rect class="cls-8" x="78.1" y="725.3" width="1.9" height="3.1"/>
            <rect class="cls-8" x="78.1" y="721.8" width="1.9" height="3.1"/>
            <rect class="cls-8" x="78.1" y="711.3" width="1.9" height="3.1"/>
            <rect class="cls-8" x="78.1" y="704.4" width="1.9" height="3.1"/>
          </g>
          <g>
            <rect class="cls-8" x="161.7" y="770.6" width="1.9" height="3.1"/>
            <rect class="cls-8" x="161.8" y="767.1" width="1.9" height="3.1"/>
            <rect class="cls-8" x="161.8" y="763.6" width="1.9" height="3.1"/>
            <rect class="cls-8" x="161.7" y="760.1" width="1.9" height="3.1"/>
            <rect class="cls-8" x="161.7" y="756.6" width="1.9" height="3.1"/>
            <rect class="cls-8" x="161.7" y="753.2" width="1.9" height="3.1"/>
            <rect class="cls-8" x="161.7" y="749.7" width="1.9" height="3.1"/>
            <rect class="cls-8" x="161.8" y="742.7" width="1.9" height="3.1"/>
            <rect class="cls-8" x="161.7" y="735.7" width="1.9" height="3.1"/>
            <rect class="cls-8" x="161.7" y="728.8" width="1.9" height="3.1"/>
            <rect class="cls-8" x="161.8" y="718.3" width="1.9" height="3.1"/>
            <rect class="cls-8" x="161.7" y="714.8" width="1.9" height="3.1"/>
            <rect class="cls-8" x="161.7" y="707.8" width="1.9" height="3.1"/>
            <rect class="cls-8" x="161.7" y="746.2" width="1.9" height="3.1"/>
            <rect class="cls-8" x="161.7" y="739.2" width="1.9" height="3.1"/>
            <rect class="cls-8" x="161.7" y="732.2" width="1.9" height="3.1"/>
            <rect class="cls-8" x="161.7" y="725.3" width="1.9" height="3.1"/>
            <rect class="cls-8" x="161.7" y="721.8" width="1.9" height="3.1"/>
            <rect class="cls-8" x="161.7" y="711.3" width="1.9" height="3.1"/>
            <rect class="cls-8" x="161.7" y="704.4" width="1.9" height="3.1"/>
          </g>
          <circle class="cls-10" cx="90.2" cy="709.3" r="2.8"/>
        </g>
        <rect class="cls-38" x="187.1" y="664" width="18.2" height="8.6"/>
        <rect class="cls-8" x="189.1" y="672.6" width="2.9" height="8.7"/>
        <rect class="cls-8" x="200.9" y="672.6" width="2.9" height="8.7"/>
        <rect class="cls-8" x="194.8" y="655.3" width="2.9" height="8.7"/>
        <rect class="cls-23" x="169.1" y="703.4" width="6.9" height="4.2"/>
        <rect class="cls-16" x="189.5" y="733.1" width="4.2" height="6.9"/>
        <rect class="cls-23" x="172.4" y="752.4" width="4.2" height="6.9" transform="translate(-483.4 344.7) rotate(-45)"/>
        <g>
          <path class="cls-33" d="M157,814.5c-5.1,0-9.2,4.1-9.2,9.2s4.1,9.2,9.2,9.2,9.2-4.1,9.2-9.2-4.1-9.2-9.2-9.2ZM157,829.4c-3.1,0-5.7-2.6-5.7-5.7s2.6-5.7,5.7-5.7,5.7,2.6,5.7,5.7-2.5,5.7-5.7,5.7Z"/>
          <path class="cls-33" d="M118.7,814.9v17.7h17.7v-17.7h-17.7ZM127.6,829.4c-3.1,0-5.7-2.6-5.7-5.7s2.6-5.7,5.7-5.7,5.7,2.6,5.7,5.7-2.6,5.7-5.7,5.7Z"/>
          <path class="cls-33" d="M186.8,814.5c-5.1,0-9.2,4.1-9.2,9.2s4.1,9.2,9.2,9.2,9.2-4.1,9.2-9.2-4.1-9.2-9.2-9.2ZM186.8,829.4c-3.1,0-5.7-2.6-5.7-5.7s2.6-5.7,5.7-5.7,5.7,2.6,5.7,5.7-2.5,5.7-5.7,5.7Z"/>
        </g>
        <path class="cls-33" d="M17.5,793.2H.3v3.4c2.3.9,3.9,3.1,3.9,5.7s-1.6,4.8-3.9,5.7v3.4h17.2c5,0,9-4,9-9s-4.1-9.2-9-9.2ZM15.9,808.3c-3.4,0-6.1-2.7-6.1-6.1s2.7-6.1,6.1-6.1,6.1,2.7,6.1,6.1-2.8,6.1-6.1,6.1Z"/>
        <path class="cls-33" d="M17.5,763.8H.3v3.4c2.3.9,3.9,3.1,3.9,5.7s-1.6,4.8-3.9,5.7v3.4h17.2c5,0,9-4,9-9h0c0-5.2-4.1-9.2-9-9.2ZM15.9,778.9c-3.4,0-6.1-2.7-6.1-6.1s2.7-6.1,6.1-6.1,6.1,2.7,6.1,6.1-2.8,6.1-6.1,6.1Z"/>
        <path class="cls-33" d="M17.5,734.4H.3v3.4c2.3.9,3.9,3.1,3.9,5.7s-1.6,4.8-3.9,5.7v3.4h17.2c5,0,9-4,9-9h0c0-5.2-4.1-9.2-9-9.2ZM15.9,749.5c-3.4,0-6.1-2.7-6.1-6.1s2.7-6.1,6.1-6.1,6.1,2.7,6.1,6.1-2.8,6.1-6.1,6.1Z"/>
        <path class="cls-33" d="M17.5,705H.3v3.4c2.3.9,3.9,3.1,3.9,5.7s-1.6,4.8-3.9,5.7v3.4h17.2c5,0,9-4,9-9s-4.1-9.2-9-9.2ZM15.9,720.1c-3.4,0-6.1-2.7-6.1-6.1s2.7-6.1,6.1-6.1,6.1,2.7,6.1,6.1-2.8,6.1-6.1,6.1Z"/>
        <path class="cls-33" d="M17.5,646.2H.3v3.4c2.3.9,3.9,3.1,3.9,5.7s-1.6,4.8-3.9,5.7v3.4h17.2c5,0,9-4,9-9s-4.1-9.2-9-9.2ZM15.9,661.3c-3.4,0-6.1-2.7-6.1-6.1s2.7-6.1,6.1-6.1,6.1,2.7,6.1,6.1-2.8,6.1-6.1,6.1Z"/>
        <path class="cls-33" d="M17.5,616.8H.3v3.4c2.3.9,3.9,3.1,3.9,5.7s-1.6,4.8-3.9,5.7v3.4h17.2c5,0,9-4,9-9s-4.1-9.2-9-9.2ZM15.9,631.9c-3.4,0-6.1-2.7-6.1-6.1s2.7-6.1,6.1-6.1,6.1,2.7,6.1,6.1-2.8,6.1-6.1,6.1Z"/>
        <path class="cls-33" d="M17.5,587.4H.3v3.4c2.3.9,3.9,3.1,3.9,5.7s-1.6,4.8-3.9,5.7v3.4h17.2c5,0,9-4,9-9s-4.1-9.2-9-9.2ZM15.9,602.5c-3.4,0-6.1-2.7-6.1-6.1s2.7-6.1,6.1-6.1,6.1,2.7,6.1,6.1-2.8,6.1-6.1,6.1Z"/>
        <path class="cls-33" d="M17.5,558H.3v3.4c2.3.9,3.9,3.1,3.9,5.7s-1.6,4.8-3.9,5.7v3.4h17.2c5,0,9-4,9-9s-4.1-9.2-9-9.2ZM15.9,573.1c-3.4,0-6.1-2.7-6.1-6.1s2.7-6.1,6.1-6.1,6.1,2.7,6.1,6.1-2.8,6.1-6.1,6.1Z"/>
        <path class="cls-33" d="M17.5,499.2H.3v3.4c2.3.9,3.9,3.1,3.9,5.7s-1.6,4.8-3.9,5.7v3.4h17.2c5,0,9-4,9-9h0c0-5.1-4.1-9.2-9-9.2ZM15.9,514.3c-3.4,0-6.1-2.7-6.1-6.1s2.7-6.1,6.1-6.1,6.1,2.7,6.1,6.1-2.8,6.1-6.1,6.1Z"/>
        <path class="cls-33" d="M17.5,469.8H.3v3.4c2.3.9,3.9,3.1,3.9,5.7s-1.6,4.8-3.9,5.7v3.4h17.2c5,0,9-4,9-9s-4.1-9.2-9-9.2ZM15.9,484.9c-3.4,0-6.1-2.7-6.1-6.1s2.7-6.1,6.1-6.1,6.1,2.7,6.1,6.1-2.8,6.1-6.1,6.1Z"/>
        <path class="cls-33" d="M17.5,940.1H.3v3.4c2.3.9,3.9,3.1,3.9,5.7s-1.6,4.8-3.9,5.7v3.4h17.2c5,0,9-4,9-9s-4.1-9.2-9-9.2ZM15.9,955.3c-3.4,0-6.1-2.7-6.1-6.1s2.7-6.1,6.1-6.1,6.1,2.7,6.1,6.1-2.8,6.1-6.1,6.1Z"/>
        <path class="cls-33" d="M239.5,1037.4c0-2.6,1.6-4.8,3.9-5.7v-3.4h-17.2c-5,0-9,4-9,9s4,9,9,9h17.2v-3.4c-2.2-.8-3.9-3-3.9-5.5ZM227.8,1043.4c-3.4,0-6.1-2.7-6.1-6.1s2.7-6.1,6.1-6.1,6.1,2.7,6.1,6.1c0,3.4-2.7,6.1-6.1,6.1Z"/>
        <path class="cls-33" d="M239.5,949.2c0-2.6,1.6-4.8,3.9-5.7v-3.4h-17.2c-5,0-9,4-9,9s4,9,9,9h17.2v-3.4c-2.2-.7-3.9-2.9-3.9-5.5ZM227.8,955.3c-3.4,0-6.1-2.7-6.1-6.1s2.7-6.1,6.1-6.1,6.1,2.7,6.1,6.1-2.7,6.1-6.1,6.1Z"/>
        <path class="cls-33" d="M239.5,714c0-2.6,1.6-4.8,3.9-5.7v-3.3h-17.2c-5,0-9,4-9,9s4,9,9,9h17.2v-3.4c-2.2-.8-3.9-3-3.9-5.6ZM227.8,720.1c-3.4,0-6.1-2.7-6.1-6.1s2.7-6.1,6.1-6.1,6.1,2.7,6.1,6.1-2.7,6.1-6.1,6.1Z"/>
        <rect class="cls-5" x="91.5" y="806.5" width="3.7" height="6.7"/>
        <g>
          <path class="cls-25" d="M82.2,827.4h-31.8c-1.2,0-2.2-1-2.2-2.2v-23.7c0-1.2,1-2.2,2.2-2.2h31.8c1.2,0,2.2,1,2.2,2.2v23.7c0,1.2-1,2.2-2.2,2.2Z"/>
          <path class="cls-35" d="M79.9,824.9h-27.3c-.8,0-1.4-.6-1.4-1.4v-20.4c0-.8.6-1.4,1.4-1.4h27.3c.8,0,1.4.6,1.4,1.4v20.4c0,.8-.6,1.4-1.4,1.4Z"/>
        </g>
        <rect class="cls-5" x="91.4" y="826.5" width="3.7" height="6.7"/>
        <rect class="cls-16" x="100.1" y="812.3" width="4.2" height="6.9"/>
        <g>
          <path class="cls-21" d="M42.3,632.4v-3.6c0-2.2.6-3.9,2.6-3.9s1.9.5,2.2,1.4h0c.3-1.1,1.1-1.9,2.4-1.9,2.1,0,3.1,1.8,3.1,4.1v3.9h-10.4ZM46.4,628.8c0-1.1-.5-1.5-1.2-1.5s-1.1.5-1.1,1.5v1.1h2.2v-1.1h0ZM50.8,628.6c0-1.2-.4-1.8-1.3-1.8s-1.2.6-1.2,1.8v1.2h2.5v-1.2Z"/>
          <path class="cls-21" d="M47.4,623.1c-3.4,0-5.4-1.9-5.4-4.8s2-4.8,5.4-4.8,5.4,1.9,5.4,4.8-2,4.8-5.4,4.8ZM47.4,616.1c-2,0-3.2.8-3.2,2.2s1.2,2.2,3.2,2.2,3.3-.9,3.3-2.2-1.3-2.2-3.3-2.2Z"/>
          <path class="cls-21" d="M47.4,612.1c-3.4,0-5.4-1.9-5.4-4.8s2-4.8,5.4-4.8,5.4,1.9,5.4,4.8-2,4.8-5.4,4.8ZM47.4,605.1c-2,0-3.2.8-3.2,2.2s1.2,2.2,3.2,2.2,3.3-.9,3.3-2.2-1.3-2.2-3.3-2.2Z"/>
          <path class="cls-21" d="M44.3,599.1v2.8h-2.1v-8.1h2.1v2.8h8.3v2.5h-8.3Z"/>
          <path class="cls-21" d="M51.3,593.2l-1.6-1.3c.6-.7,1-1.7,1-2.6s-.4-1.4-.9-1.4-.8.6-1.2,1.5l-.6,1.3c-.4,1.1-1.3,2.1-2.8,2.1s-3.2-1.6-3.2-3.8.5-2.5,1.3-3.4l1.7,1.4c-.5.7-.8,1.4-.8,2.1s.3,1.3.8,1.3.8-.7,1.2-1.6l.5-1.3c.5-1.3,1.4-2.1,2.8-2.1s3.3,1.5,3.3,4c.1,1.3-.4,2.7-1.5,3.8Z"/>
          <path class="cls-21" d="M42.3,583.6v-6.6h2.1v4.1h2v-3.5h2.1v3.5h2.2v-4.3h2.1v6.8h-10.5Z"/>
          <path class="cls-21" d="M42.3,574.8v-2.5h8.3v-4h2.1v6.5h-10.4Z"/>
        </g>
        <g>
          <path class="cls-21" d="M141.4,789.5h3c3.2,0,5.3,1.6,5.3,5.2s-2.1,5.2-5.1,5.2h-3.1v-10.4h0ZM144.3,798c1.7,0,2.9-.8,2.9-3.2s-1.2-3.2-2.9-3.2h-.4v6.4h.4Z"/>
          <path class="cls-21" d="M151.6,789.5h6.6v2.1h-4.1v2h3.5v2.1h-3.5v2.2h4.3v2.1h-6.8v-10.5Z"/>
          <path class="cls-21" d="M160.4,789.5h3.6c2.2,0,3.9.6,3.9,2.6s-.5,1.9-1.4,2.2h0c1.1.4,1.9,1.2,1.9,2.5,0,2.1-1.8,3.1-4.1,3.1h-3.9v-10.4ZM164,793.7c1.1,0,1.5-.5,1.5-1.2s-.5-1.1-1.5-1.1h-1.1v2.2h1.1ZM164.2,798.1c1.2,0,1.8-.4,1.8-1.3s-.6-1.2-1.8-1.2h-1.2v2.5h1.2Z"/>
          <path class="cls-21" d="M170.1,795.1v-5.5h2.5v5.8c0,2,.6,2.7,1.7,2.7s1.8-.7,1.8-2.7v-5.8h2.4v5.5c0,3.5-1.4,5.1-4.2,5.1s-4.2-1.6-4.2-5.1Z"/>
          <path class="cls-21" d="M180.3,794.8c0-3.5,2.3-5.5,5.1-5.5s2.6.6,3.3,1.4l-1.3,1.5c-.5-.5-1.1-.7-1.9-.7-1.5,0-2.7,1.2-2.7,3.2s.9,3.3,2.9,3.3.8,0,1-.3v-1.7h-1.7v-2h3.9v4.9c-.7.7-2,1.3-3.5,1.3-2.8,0-5.1-1.8-5.1-5.4Z"/>
        </g>
        <rect class="cls-3" x="114.2" y="810.9" width="86.4" height="25.6"/>
        <g>
          <path class="cls-21" d="M40.1,525.3h2.5v8.3h4v2.1h-6.5v-10.4Z"/>
          <path class="cls-21" d="M48.4,525.3h6.6v2.1h-4.1v2h3.5v2.1h-3.5v2.2h4.3v2.1h-6.8v-10.5Z"/>
          <path class="cls-21" d="M57.2,525.3h3c3.2,0,5.3,1.6,5.3,5.2s-2.1,5.2-5.1,5.2h-3.1v-10.4h-.1ZM60.1,533.7c1.7,0,2.9-.8,2.9-3.2s-1.2-3.2-2.9-3.2h-.4v6.4h.4Z"/>
        </g>
        <g>
          <rect class="cls-12" x="143.7" y="674.8" width="5.4" height="10.6"/>
          <rect class="cls-23" x="143.7" y="677.1" width="5.4" height="6"/>
        </g>
        <g>
          <rect class="cls-12" x="154.3" y="674.8" width="5.4" height="10.6"/>
          <rect class="cls-23" x="154.3" y="677.1" width="5.4" height="6"/>
        </g>
        <rect class="cls-16" x="127.1" y="676.1" width="4.2" height="6.9"/>
        <rect class="cls-16" x="67.3" y="682.5" width="6.9" height="4.2"/>
        <rect class="cls-23" x="120.5" y="676.1" width="4.2" height="6.9"/>
        <rect class="cls-23" x="110.4" y="676.1" width="4.2" height="6.9"/>
        <path class="cls-33" d="M239.5,655.2c0-2.6,1.6-4.8,3.9-5.7v-3.4h-17.2c-5,0-9,4-9,9s4,9,9,9h17.2v-3.4c-2.2-.7-3.9-2.9-3.9-5.5ZM227.8,661.3c-3.4,0-6.1-2.7-6.1-6.1s2.7-6.1,6.1-6.1,6.1,2.7,6.1,6.1-2.7,6.1-6.1,6.1Z"/>
        <g>
          <rect class="cls-12" x="172.6" y="644.1" width="5.6" height="11.9"/>
          <rect class="cls-7" x="172.6" y="646.8" width="5.6" height="6.6"/>
        </g>
      </g>
      <g id="layer1">
        <rect id="rect815" x="369.9" y="124.1" width="160.6" height="322.2" transform="translate(-.3 .5) rotate(0)"/>
        <rect id="rect821" class="cls-21" x="394" y="415.4" width="112.5" height="28.5"/>
        <path id="rect825" class="cls-19" d="M399.8,417.1h16.8c2.9,0,5.3,2.4,5.3,5.3h0v14.7c0,2.9-2.4,5.3-5.3,5.3h-16.8c-2.9,0-5.3-2.4-5.3-5.3h0v-14.7c0-2.9,2.4-5.3,5.3-5.3h0Z"/>
        <path id="rect872" class="cls-19" d="M455.8,417h16.8c2.9,0,5.3,2.4,5.3,5.3h0v14.7c0,2.9-2.4,5.3-5.3,5.3h-16.8c-2.9,0-5.3-2.4-5.3-5.3h0v-14.7c0-2.9,2.3-5.3,5.3-5.3h0Z"/>
        <path id="rect874" class="cls-19" d="M427.1,417.1h18.1c2.6,0,4.6,2.1,4.6,4.6v16.1c0,2.6-2.1,4.6-4.6,4.6h-18.1c-2.6,0-4.6-2.1-4.6-4.6v-16.1c0-2.6,2.1-4.6,4.6-4.6Z"/>
        <rect id="rect947" class="cls-15" x="406.7" y="430.9" width="2.8" height="53.6"/>
        <rect id="rect949" class="cls-15" x="434.8" y="430.9" width="2.8" height="53.6"/>
        <rect id="rect951" class="cls-15" x="462.6" y="430.8" width="2.8" height="53.6"/>
        <rect id="rect87" x="392.5" y="320.1" width="114.6" height="28.8"/>
        <path id="path31-1" class="cls-21" d="M415.5,187.4c1,0,1.1,0,1.3-.1.1-.1.2-.2.3-.3.1-.2.1-.3.1-2.3v-2.2h4.2v2.7c0,3,0,3.2-.3,4-.3,1-1.2,1.7-2.2,1.8-.6.1-1.3.1-1.9.1s-1.8,0-2.1-.1h-.5v-3.6h1.1ZM435.8,193.4c18.1,0,22.6,0,21.8.1h-.1.1c.1,0,.1.1-.1.1s-.1,0,.2.1h.4-.7c.1,0,.1.1.1.5s0,.5.2.5.1,0-.1,0-.2,0-.2.1c0,0-7.2.1-21.5.1h-21.5v-1.6h21.4ZM419.4,176.9h2.1v3.4h-4.2v-3.4h2.1ZM423.7,183.3c.1-.9.4-1.8.8-2.6.1-.2.2-.4.3-.5.1-.1.2-.2.2-.3.2-.4.5-.7.8-1h.1c.3-.4.6-.7,1-1,.5-.3,1-.6,1.6-.8.8-.3,1.7-.5,2.6-.4.5,0,1,.1,1.5.2.3.1.7.2.9.3.1.1.2.1.3.1.2.1.4.2.5.3,1.3.9,2.3,2,3,3.4.8,1.7,1,3.7.3,5.4-.2.6-.5,1.1-.8,1.6-.3.6-.8,1.1-1.3,1.5-.8.9-1.9,1.5-3,1.8-.9.2-1.8.2-2.7.1-1-.2-2-.6-2.9-1.2-.3-.2-.6-.5-.9-.8-.1-.1-.2-.2-.3-.3-.9-1-1.5-2.3-1.9-3.6,0-.8-.1-1.5-.1-2.2h0ZM427.8,185.1c.2.8.6,1.5,1.3,2.1.7.6,1.7.8,2.6.6,1.1-.5,2-1.5,2.2-2.7.2-.8.2-1.6,0-2.4-.2-.9-.8-1.7-1.5-2.2-.2-.2-.5-.3-.8-.4-.7-.1-1.4-.1-2,.2-.6.4-1.1.9-1.4,1.5-.5,1.1-.6,2.2-.4,3.3h0ZM439.9,176.9h4.2v1.9c0,1.8,0,1.9.1,2.2.4.8,1.3,1.3,2.1,1,.4-.1.8-.4,1-.8l.2-.4v-4h4.2v2.2c.1.9,0,1.8-.1,2.7-.2.8-.6,1.6-1.1,2.2-.1.1-.2.2-.2.3-.3.3-.6.7-1,.9-.4.3-.8.5-1.3.7-.1,0-.4.1-.7.2-.5.2-1,.2-1.5.2s-1.1,0-1.6-.2c-.6-.1-1.2-.4-1.7-.7-.6-.4-1.2-1-1.6-1.6-.6-.8-.9-1.7-1-2.7-.1-1.4-.1-2.7,0-4.1h0ZM445.9,187.4h3.5v3.6h-7v-3.6h3.5ZM451.9,174.1s.1-.1.1-.2q0-.2.3-.3h26.1v1.6h-26.3c-.1,0-.1-.1-.1-.5-.2-.4-.2-.6,0-.6h0ZM457.8,182.7h4.5v3.6h-9v-3.6h4.5ZM465.8,176.8h2.1v3.4h-4.2v-3.4h2.1ZM465.8,182.1h2.1v9h-4.2v-9h2.1ZM474.3,176.8h4.5v3.4h-9v-3.4h4.5ZM470.6,182.4h4.2v2.1c0,2.9-.1,2.7,2.1,2.8h1.4v3.6h-.5c-1.3.2-2.6.2-3.9.1-.9-.1-1.8-.5-2.4-1.1-.5-.6-.8-1.4-.9-2.2-.1-.8-.1-5.3,0-5.3h0ZM481.3,175.1c.1-.4.3-.7.6-1,.8-.8,2.2-.9,3.1-.2.3.2.6.5.8.9.1.3.2.6.2.9s0,.7-.2,1c-.4.7-1.1,1.2-1.9,1.3-.7.1-1.4-.2-1.9-.7-.7-.6-.9-1.4-.7-2.2h0ZM481.7,176.6c.3.5.8.9,1.4,1.1.6.1,1.3,0,1.8-.5.2-.1.3-.3.4-.6.2-.3.2-.6.2-.9s0-.6-.2-.9c-.1-.3-.3-.5-.6-.6-.2-.1-.4-.3-.6-.3-1-.3-2.1.2-2.5,1.2,0,.4,0,1,.1,1.5h0ZM483.3,174.4c.3,0,.6,0,.9.1.4.2.5.7.3,1.1-.1.1-.2.2-.3.2h-.2c0,.1.2.3.2.3.1.2.3.3.4.5.1.1.1.2.2.3s0,.1-.2.1h-.2l-.3-.5c-.4-.6-.5-.6-.9-.6h-.3v1.2h-.4v-2.6h.8ZM483.4,175.5c.4,0,.5,0,.7-.1.3-.2.1-.6-.3-.7h-.8v.8h.4Z"/>
        <path id="rect64" class="cls-19" d="M483.6,417h16.8c2.9,0,5.3,2.4,5.3,5.3h0v14.7c0,2.9-2.4,5.3-5.3,5.3h-16.8c-2.9,0-5.3-2.4-5.3-5.3h0v-14.7c0-2.9,2.3-5.3,5.3-5.3h0Z"/>
        <rect id="rect66" class="cls-15" x="490.4" y="430.8" width="2.8" height="53.6"/>
        <rect id="rect103" x="369.8" y="46.1" width="35.7" height="78.2"/>
        <rect id="rect105" x="494.8" y="46.1" width="35.7" height="78.2"/>
        <circle id="path107" class="cls-22" cx="450.2" cy="358" r="39.3"/>
        <circle id="path133" class="cls-21" cx="450.2" cy="358" r="32.1"/>
        <rect id="rect137" class="cls-21" x="369.8" y="207.6" width="60.7" height="107.2"/>
        <rect id="rect141" x="369.8" y="209.7" width="57.2" height="102.9"/>
        <rect id="rect139" class="cls-34" x="371.6" y="209.4" width="57.2" height="103.6"/>
        <circle id="path144" class="cls-36" cx="380.5" cy="304.1" r="8.9"/>
        <rect id="rect952" class="cls-37" x="371.6" y="302.6" width="17.9" height="2.9"/>
        <rect id="rect956" class="cls-21" x="452.7" y="225.5" width="77.9" height="60.7"/>
        <rect id="rect958" x="454.4" y="227.3" width="74.3" height="57.2"/>
        <rect id="rect960" class="cls-30" x="466.6" y="230.8" width="50" height="50"/>
        <rect id="rect962" class="cls-22" x="466.6" y="280.9" width="8.9" height="14.3"/>
        <rect id="rect964" class="cls-22" x="507.7" y="280.9" width="8.9" height="14.3"/>
        <rect id="rect966" class="cls-22" x="479.1" y="280.9" width="8.9" height="14.3"/>
        <rect id="rect968" class="cls-22" x="495.2" y="280.9" width="8.9" height="14.3"/>
        <rect id="rect970" class="cls-22" x="466.6" y="216.6" width="8.9" height="14.3"/>
        <rect id="rect972" class="cls-22" x="507.7" y="216.6" width="8.9" height="14.3"/>
        <rect id="rect974" class="cls-22" x="479.1" y="216.6" width="8.9" height="14.3"/>
        <rect id="rect976" class="cls-22" x="495.2" y="216.6" width="8.9" height="14.3"/>
        <polygon id="rect978" class="cls-15" points="469.6 279.1 472.5 279.1 472.5 288 469.7 288 469.6 279.1"/>
        <polygon id="rect980" class="cls-15" points="482.1 279.1 485 279.1 485 288 482.2 288 482.1 279.1"/>
        <polygon id="rect982" class="cls-15" points="498.2 279.1 501 279.1 501.1 288 498.2 288 498.2 279.1"/>
        <polygon id="rect984" class="cls-15" points="510.7 279.1 513.5 279.1 513.6 288 510.7 288 510.7 279.1"/>
        <polygon id="rect986" class="cls-15" points="469.6 232.6 472.5 232.6 472.5 223.7 469.7 223.7 469.6 232.6"/>
        <polygon id="rect988" class="cls-15" points="482.1 232.6 485 232.6 485 223.7 482.2 223.7 482.1 232.6"/>
        <polygon id="rect990" class="cls-15" points="498.2 232.6 501 232.6 501.1 223.7 498.2 223.7 498.2 232.6"/>
        <polygon id="rect992" class="cls-15" points="510.7 232.6 513.5 232.6 513.6 223.7 510.7 223.7 510.7 232.6"/>
        <circle id="path994" class="cls-22" cx="512.7" cy="80.8" r="12.5"/>
        <circle id="circle996" class="cls-22" cx="387.6" cy="80.8" r="12.5"/>
        <circle id="path998" class="cls-21" cx="387.6" cy="80.8" r="10.7"/>
        <circle id="path1000" class="cls-21" cx="512.7" cy="80.8" r="10.7"/>
        <path id="rect836-7" class="cls-22" d="M425.5,131.2h5.4c5.4,0,9.8,4.4,9.8,9.8h0c0,5.4-4.4,9.8-9.8,9.8h-5.4c-5.4,0-9.8-4.4-9.8-9.8h0c-.1-5.4,4.3-9.8,9.8-9.8Z"/>
        <path id="rect836-6" class="cls-22" d="M452.2,131.2h5.4c5.4,0,9.8,4.4,9.8,9.8h0c0,5.4-4.4,9.8-9.8,9.8h-5.4c-5.4,0-9.8-4.4-9.8-9.8h0c0-5.4,4.4-9.8,9.8-9.8Z"/>
        <rect id="rect943" class="cls-22" x="476.1" y="129.7" width="18.5" height="25" transform="translate(-1.2 4) rotate(-.5)"/>
        <rect id="rect1512" class="cls-14" x="429.8" width="56.2" height="48.2"/>
        <rect id="rect78" class="cls-15" x="445.9" y="48.2" width="2.1" height="55"/>
        <rect id="rect76" class="cls-15" x="456.6" y="48.2" width="2.1" height="55.3"/>
        <rect id="rect74" class="cls-15" x="467.3" y="48.2" width="2.1" height="55.3"/>
        <polygon id="rect95" class="cls-15" points="445.9 102.9 448.2 102.9 429.3 142.5 427 142.5 445.9 102.9"/>
        <polygon id="rect99" class="cls-15" points="456.6 102.9 458.8 102.9 456.1 142.5 453.8 142.5 456.6 102.9"/>
        <polygon id="rect101" class="cls-15" points="467.2 103.1 469.5 103.1 486.6 142.8 484.3 142.8 467.2 103.1"/>
        <path id="rect1026" class="cls-22" d="M397.3,129h10.1c2.3,0,4.2,1.9,4.2,4.2h0v18.3c0,2.3-1.9,4.2-4.2,4.2h-10.1c-2.3,0-4.2-1.9-4.2-4.2v-18.3c0-2.3,1.8-4.2,4.2-4.2h0Z"/>
        <circle id="path1028" class="cls-21" cx="402.3" cy="146.9" r="5.4"/>
        <path id="rect1030" class="cls-22" d="M391.5,138.7v5.4c.2,5.4-4.2,9.8-9.6,9.9h0c-5.4.1-9.8-4.3-9.9-9.7h0v-5.4c-.2-5.4,4.2-9.8,9.6-9.9h0c5.4,0,9.8,4.3,9.9,9.7h0Z"/>
        <circle id="circle105" class="cls-21" cx="381.8" cy="141.5" r="7.1"/>
        <g id="text116">
          <g class="cls-13">
            <path class="cls-21" d="M525.8,184h.3c0,.1,0,.3,0,.4v1.1c0,.1,0,.3,0,.4q0,.1-.2.2l-7.2,5.3h7.3s0,.1,0,.2,0,.2,0,.3v1c0,.1,0,.2,0,.3,0,.1,0,.1,0,.2h-14.2s-.1-.1-.1-.2,0-.2-.1-.3,0-.3,0-.5v-.5c0-.1,0-.2.1-.3,0-.1.1-.1.1-.2h6.6l-6.4-5.1c-.1,0-.1-.1-.2-.2,0-.1-.1-.1-.1-.2s0-.2-.1-.3v-1c0-.1,0-.2.1-.3,0-.1.1-.1.1-.1h.1c.1,0,.2,0,.3.1,0,0,.2.1.4.3l5.7,4.8,6.8-5.1c.2-.1.3-.2.4-.2q.2-.1.3-.1Z"/>
          </g>
          <g class="cls-13">
            <path class="cls-21" d="M520.5,177h5.5c.1,0,0,.1,0,.2s0,.2,0,.3v1c0,.1,0,.2,0,.3,0,.1,0,.1,0,.2s0,0-.2,0h-5.3l-8.1,4.1c-.2.1-.3.1-.4.1s-.2,0-.2-.1c-.1-.1-.1-.2-.1-.3v-1.1c0-.1,0-.2.1-.3,0-.1.1-.1.1-.2s.1-.1.2-.1l4.1-2c.4-.2.8-.4,1.2-.6.4-.2.9-.4,1.3-.6h0c-.4-.2-.8-.3-1.3-.5-.4-.2-.8-.4-1.2-.5l-4.1-2c-.1,0-.1-.1-.2-.1s-.1-.1-.1-.2,0-.2-.1-.3,0-.3,0-.5v-.6c0-.1.1-.3.1-.3q.1-.1.2-.1c.1,0,.2.1.4.1l8.1,4.1Z"/>
          </g>
          <g class="cls-13">
            <path class="cls-21" d="M520.5,167.5c.3,0,.5,0,.6.1s.2.2.2.3v4.6c0,.1,0,.2-.2.3,0,.1-.3.1-.6.1s-.5,0-.6-.1-.2-.2-.2-.3v-4.8h0c0-.1,0-.2.2-.2h.5Z"/>
            <path class="cls-21" d="M518.9,156c1.1,0,2.1.1,3,.3s1.7.5,2.3.9,1.2.9,1.5,1.6c.4.7.5,1.5.5,2.4s-.2,1.7-.5,2.3-.8,1.1-1.4,1.5c-.6.4-1.4.6-2.3.8-.9.2-2,.2-3.1.2s-2.1-.1-3-.3-1.7-.5-2.3-.9c-.7-.4-1.2-.9-1.5-1.6-.4-.6-.5-1.4-.5-2.4s.2-1.7.5-2.3.8-1.1,1.4-1.5c.6-.4,1.4-.6,2.3-.8.8,0,1.9-.2,3.1-.2ZM519,158c-.7,0-1.4,0-1.9.1s-1.1.1-1.5.2-.8.2-1.1.4-.6.3-.8.6c-.2.2-.4.5-.4.8,0,.3,0,.6,0,1,0,.6,0,1.1.4,1.5.3.4.7.7,1.2.9s1.1.4,1.8.5,1.4.1,2.2.1,2-.1,2.7-.2c.7-.1,1.4-.3,1.8-.5.5-.2.8-.5,1-.9s.3-.8.3-1.4,0-.8-.2-1.1-.3-.6-.6-.8c-.2-.2-.5-.4-.9-.6-.3-.1-.7-.3-1.2-.4-.4-.1-.9-.1-1.4-.2s-.8,0-1.3,0Z"/>
            <path class="cls-21" d="M525.2,145h.4c.1,0,.2,0,.3.1s0,.1.2.1v8.4c0,.1,0,.1,0,.2q0,.1-.3.1h-.8c0,0-.2,0-.3-.1s-.2-.1-.3-.1c0-.1-.2-.1-.3-.2l-2.9-2.9c-.7-.7-1.3-1.2-1.8-1.6s-1-.7-1.5-.9c-.4-.2-.8-.4-1.2-.4-.4-.1-.7-.1-1-.1s-.6.1-.9.2-.5.3-.7.5-.4.5-.5.8-.2.7-.2,1.1,0,.9.2,1.3c0,.4.3.7.4,1,0,.3.3.5.4.7,0,.2.2.3.2.4h0c0,.1,0,.2,0,.2,0,0-.2,0-.3.1h-.9q0,0-.2-.1t-.2-.2c0-.1-.2-.2-.3-.5s-.3-.5-.4-.8c0-.3-.2-.7-.3-1.1-.1-.4-.1-.8-.1-1.2,0-.7.1-1.3.3-1.8s.5-1,.8-1.3.7-.6,1.2-.8.9-.3,1.4-.3.9,0,1.4.1.9.3,1.5.5c.5.3,1.1.6,1.8,1.1.6.5,1.4,1.2,2.2,2l2.4,2.3v-6.4c0-.1,0-.1,0-.1,0,0,0-.1.2-.1,0-.2,0-.2.2-.2Z"/>
            <path class="cls-21" d="M522,132.9c.2,0,.4,0,.6.1,0,.1.2.2.2.3v1.6h3.2s0,.1,0,.2,0,.2,0,.3v1q0,.2,0,.3h0c0,.1,0,.1-.2.1h-3v6.1c0,.1,0,.1,0,.2,0,0,0,.1-.3.1h-1.1c0,0-.2-.1-.3-.1s-.2-.1-.3-.1l-8.7-5.1c-.1,0-.1-.1-.2-.2,0-.1-.1-.2-.1-.3s0-.3-.1-.4v-1.2c0-.1,0-.3.1-.4,0-.1.1-.2.1-.3s.1-.1.2-.1h9.1v-1.6c0-.1,0-.2.2-.3.2,0,.4-.2.7-.2ZM513.3,136.9h0l7.9,4.6v-4.6h-7.9Z"/>
          </g>
        </g>
        <g id="text120">
          <g class="cls-13">
            <path class="cls-21" d="M408.5,412.2c.1.2.1.3.1.4s0,.2-.1.2c-.1.1-.2.1-.3.1h-1c-.1,0-.2,0-.3-.1-.1,0-.1-.1-.2-.1,0,0-.1-.1-.1-.2l-1.2-3.5h-6l-1.2,3.4c0,.1-.1.1-.1.2s-.1.1-.2.1-.2.1-.3.1h-1c-.1,0-.2-.1-.3-.1q-.1-.1-.1-.2c0-.1,0-.2.1-.4l4.8-13.3c0-.1.1-.1.1-.2s.1-.1.2-.1.2,0,.4-.1h1.1c.2,0,.3,0,.4.1.1,0,.2.1.2.1q.1.1.1.2l4.9,13.4ZM402.4,400.4h0l-2.5,7.1h5l-2.5-7.1Z"/>
            <path class="cls-21" d="M419.7,405.6c0,1.1-.1,2.1-.3,3-.2.9-.5,1.7-.9,2.3s-.9,1.2-1.6,1.5c-.7.4-1.5.5-2.4.5s-1.7-.2-2.3-.5-1.1-.8-1.5-1.4-.6-1.4-.8-2.3c-.2-.9-.2-2-.2-3.1s.1-2.1.3-3c.2-.9.5-1.7.9-2.3.4-.7.9-1.2,1.6-1.5.6-.4,1.4-.5,2.4-.5s1.7.2,2.3.5c.6.3,1.1.8,1.5,1.4s.6,1.4.8,2.3c.2.9.2,2,.2,3.1ZM417.8,405.8c0-.7,0-1.4-.1-1.9s-.1-1.1-.2-1.5-.2-.8-.4-1.1c-.2-.3-.3-.6-.6-.8-.2-.2-.5-.4-.8-.4s-.6-.1-1-.1c-.6,0-1.1.1-1.5.4s-.7.7-.9,1.2c-.2.5-.4,1.1-.5,1.8-.1.7-.1,1.4-.1,2.2s.1,2,.2,2.7.3,1.4.5,1.8c.2.5.5.8.9,1s.8.3,1.4.3.8-.1,1.1-.2.6-.3.8-.6c.2-.2.4-.5.6-.9.1-.3.3-.7.4-1.2.1-.4.1-.9.2-1.4s0-.8,0-1.3Z"/>
          </g>
        </g>
        <g id="text124">
          <g class="cls-13">
            <path class="cls-21" d="M442.8,400.6v.4c0,.1,0,.2-.1.3,0,.1-.1.1-.1.1h-.1c-.1,0-.2-.1-.4-.2s-.5-.3-.8-.5-.8-.3-1.2-.5c-.5-.1-1.1-.2-1.7-.2s-1.5.1-2.1.4-1.2.7-1.6,1.2-.8,1.1-1,1.8-.3,1.5-.3,2.3.1,1.7.4,2.4.6,1.3,1.1,1.8,1,.9,1.6,1.1c.6.3,1.3.4,2.1.4s.9-.1,1.3-.2c.5-.1.9-.3,1.3-.5v-4.2h-3.3c-.1,0-.2-.1-.3-.2-.1-.1-.1-.3-.1-.6v-.4c0-.1,0-.2.1-.2s.1-.1.1-.1h5.2q.1.2.2.3c0,.1.1.2.1.4v5.5c0,.2,0,.4-.1.5s-.2.3-.4.4c-.2.1-.5.2-.8.3-.3.1-.7.2-1.1.3-.4.1-.7.2-1.1.2s-.7.1-1.1.1c-1.1,0-2.1-.2-3-.5s-1.6-.8-2.2-1.5c-.6-.6-1.1-1.4-1.4-2.3s-.5-1.9-.5-3,.2-2.2.5-3.1.8-1.7,1.5-2.4c.6-.6,1.4-1.2,2.2-1.5.9-.4,1.8-.5,2.9-.5s1.1,0,1.5.1c.5.1.9.2,1.3.3.4.1.7.3.9.4.3.2.4.3.5.4s.2.2.2.3c-.2.5-.2.7-.2.9Z"/>
          </g>
        </g>
        <g id="text128">
          <g class="cls-13">
            <path class="cls-21" d="M469.1,407.9v.4c0,.1-.1.2-.1.2h-.1c0,.1-.1.1-.2.1h-3.6v4h0c0,.1-.1.2-.1.2-.1,0-.1.1-.2.1h-.8c-.1,0-.2,0-.3-.1-.1,0-.1-.1-.1-.1h0v-4.1h-3.8c-.1,0-.1-.1-.1-.1,0,0-.1-.1-.1-.2v-.7c0-.1.1-.2.1-.2h.1c0-.1.1-.1.2-.1h3.6v-4.2h.1c.1-.1.1-.2.3-.2h.8c.1,0,.2,0,.2.1.1,0,.1.1.1.1v4.2h3.9c0,.2.1.2.1.3v.3Z"/>
          </g>
        </g>
        <g id="text132">
          <g class="cls-13">
            <path class="cls-21" d="M491.8,405.8c0,1.2-.2,2.3-.5,3.2-.3.9-.8,1.7-1.4,2.3-.6.6-1.4,1.1-2.2,1.4-.9.3-1.9.5-3.2.5h-3c-.2,0-.3-.1-.5-.2s-.2-.3-.2-.6v-12.8c0-.3.1-.5.2-.6.2-.1.3-.2.5-.2h3.2c1.2,0,2.3.2,3.1.5s1.6.8,2.2,1.4,1,1.3,1.3,2.2c.3.8.5,1.8.5,2.9ZM489.8,405.9c0-.8-.1-1.5-.3-2.2s-.5-1.2-.9-1.7-.9-.9-1.6-1.1c-.6-.3-1.4-.4-2.4-.4h-1.9v11.2h2c.9,0,1.7-.1,2.3-.3.6-.2,1.2-.6,1.6-1.1s.7-1.1.9-1.8c.2-.8.3-1.7.3-2.6Z"/>
            <path class="cls-21" d="M503.5,406c0,1.1-.1,2.1-.3,3-.2.9-.5,1.7-.9,2.3s-.9,1.2-1.6,1.5c-.7.4-1.5.5-2.4.5s-1.7-.2-2.3-.5-1.1-.8-1.5-1.4-.6-1.4-.8-2.3c-.2-.9-.2-2-.2-3.1s.1-2.1.3-3c.2-.9.5-1.7.9-2.3.4-.7.9-1.2,1.6-1.5.6-.4,1.4-.5,2.4-.5s1.7.2,2.3.5c.6.3,1.1.8,1.5,1.4s.6,1.4.8,2.3c.1.8.2,1.9.2,3.1ZM501.6,406.1c0-.7,0-1.4-.1-1.9s-.1-1.1-.2-1.5-.2-.8-.4-1.1c-.2-.3-.3-.6-.6-.8-.2-.2-.5-.4-.8-.4s-.6-.1-1-.1c-.6,0-1.1.1-1.5.4s-.7.7-.9,1.2c-.2.5-.4,1.1-.5,1.8-.1.7-.1,1.4-.1,2.2s.1,2,.2,2.7.3,1.4.5,1.8c.2.5.5.8.9,1s.8.3,1.4.3.8-.1,1.1-.2.6-.3.8-.6c.2-.2.4-.5.6-.9.1-.3.3-.7.4-1.2.1-.4.1-.9.2-1.4s0-.8,0-1.3Z"/>
          </g>
        </g>
      </g>
      <rect id="rect1707" class="cls-24" x="231.5" y="591" width="46.2" height="11.3"/>
      <circle id="circle281" class="cls-20" cx="231.8" cy="537.7" r="11.9"/>
      <circle id="circle281-2" class="cls-24" cx="231.5" cy="596.7" r="11.6"/>
      <rect id="rect1727" class="cls-20" x="231.5" y="532" width="210.4" height="11.3"/>
      <rect id="rect1727-4" class="cls-24" x="266.3" y="625.7" width="203.4" height="11.3"/>
      <rect id="rect1727-5" class="cls-24" x="266.3" y="591" width="11.3" height="46.1"/>
      <rect id="rect1727-9" class="cls-27" x="402.4" y="455.6" width="11.3" height="293.4"/>
      <rect id="rect1727-10" class="cls-20" x="430.6" y="455.6" width="11.3" height="87.8"/>
      <rect id="rect1727-11" class="cls-24" x="458.4" y="455.6" width="11.3" height="181.5"/>
      <rect id="rect1727-12" class="cls-28" x="486.2" y="455.6" width="11.3" height="499.3"/>
      <circle id="circle281-5" class="cls-28" cx="232.1" cy="949.2" r="11.6"/>
      <circle id="circle281-6" class="cls-28" cx="492" cy="455.6" r="11.6"/>
      <circle id="circle281-7" class="cls-24" cx="464.2" cy="455.6" r="11.6"/>
      <circle id="circle281-8" class="cls-20" cx="436.2" cy="455.6" r="11.6"/>
      <circle id="circle281-9" class="cls-27" cx="408.2" cy="455.6" r="11.6"/>
      <rect class="cls-28" x="232.1" y="943.6" width="265.4" height="11.3"/>
      <circle id="circle281-9-2" data-name="circle281-9" class="cls-27" cx="227.8" cy="744.3" r="11.6"/>
      <rect id="rect1727-9-2" data-name="rect1727-9" class="cls-27" x="227.8" y="738.6" width="185.9" height="11.3"/>
    </g>
  </g>
</svg>