<?xml version="1.0" encoding="UTF-8"?>
<svg xmlns="http://www.w3.org/2000/svg" version="1.1" viewBox="0 0 682 1028.6">
  <defs>
    <style>
      .cls-1 {
        fill: #02814b;
      }

      .cls-2 {
        fill: #b4a542;
      }

      .cls-3 {
        fill: #5b5b5b;
      }

      .cls-4 {
        fill: #868c97;
      }

      .cls-5 {
        stroke: #fff;
      }

      .cls-5, .cls-6 {
        fill: none;
        stroke-miterlimit: 10;
      }

      .cls-7 {
        fill: #afdce8;
      }

      .cls-7, .cls-8, .cls-9 {
        isolation: isolate;
      }

      .cls-7, .cls-9 {
        opacity: 1;
      }

      .cls-10 {
        fill: #c2bfab;
      }

      .cls-11 {
        fill: #e8d28a;
      }

      .cls-12 {
        fill: #8dddde;
      }

      .cls-13 {
        fill: #cecece;
      }

      .cls-14 {
        fill: #c1c1c1;
      }

      .cls-15 {
        fill: #b9a68f;
      }

      .cls-16 {
        fill: #141316;
      }

      .cls-17 {
        fill: #e2eade;
      }

      .cls-18 {
        fill: #474544;
      }

      .cls-19 {
        fill: #ddd;
      }

      .cls-20 {
        fill: #fee86f;
      }

      .cls-21 {
        fill: #914f00;
      }

      .cls-22 {
        fill: #fff;
      }

      .cls-23 {
        fill: #cccbcb;
      }

      .cls-24 {
        fill: #c29148;
      }

      .cls-25 {
        fill: #e30613;
      }

      .cls-26 {
        fill: #e0b45b;
      }

      .cls-27 {
        fill: #d4c547;
      }

      .cls-28 {
        fill: #00b589;
      }

      .cls-29 {
        fill: #7b217f;
      }

      .cls-30 {
        fill: #fcfcfa;
      }

      .cls-9 {
        fill: gray;
      }

      .cls-31 {
        fill: #7f7f7f;
      }

      .cls-32 {
        fill: #525035;
      }

      .cls-33 {
        fill: #ffe17b;
      }

      .cls-34 {
        fill: #2a4b9a;
      }

      .cls-35 {
        fill: #aba28e;
      }

      .cls-36 {
        fill: #ab9c38;
      }

      .cls-37 {
        fill: #1a1a1a;
      }

      .cls-6 {
        stroke: #95ac6e;
      }

      .cls-38 {
        fill: #96841f;
      }

      .cls-39 {
        fill: #36323e;
      }
    </style>
  </defs>
  <!-- Generator: Adobe Illustrator 28.7.0, SVG Export Plug-In . SVG Version: 1.2.0 Build 136)  -->
  <g>
    <g id="svg4098">
      <g>
        <path class="cls-1" d="M243.3,446.6v-11.9H.2v11.9c2.3.9,3.9,3.1,3.9,5.7s-1.6,4.8-3.9,5.7v18c2.3.9,3.9,3.1,3.9,5.7s-1.6,4.8-3.9,5.7v18.1c2.3.9,3.9,3.1,3.9,5.7s-1.6,4.8-3.9,5.7v18.1c2.3.9,3.9,3.1,3.9,5.7s-1.6,4.8-3.9,5.7v18.1c2.3.9,3.9,3.1,3.9,5.7s-1.6,4.8-3.9,5.7v18.1c2.3.9,3.9,3.1,3.9,5.7s-1.6,4.8-3.9,5.7v17.6c2.3.9,3.9,3.1,3.9,5.7s-1.6,4.8-3.9,5.7v18.1c2.3.9,3.9,3.1,3.9,5.7s-1.6,4.8-3.9,5.7v18.1c2.3.9,3.9,3.1,3.9,5.7s-1.6,4.8-3.9,5.7v18.1c2.3.9,3.9,3.1,3.9,5.7s-1.6,4.8-3.9,5.7v18.1c2.3.9,3.9,3.1,3.9,5.7s-1.6,4.8-3.9,5.7v17.6c2.3.9,3.9,3.1,3.9,5.7s-1.6,4.8-3.9,5.7v18.1c2.3.9,3.9,3.1,3.9,5.7s-1.6,4.8-3.9,5.7v18.1c2.3.9,3.9,3.1,3.9,5.7s-1.6,4.8-3.9,5.7v18.1c2.3.9,3.9,3.1,3.9,5.7s-1.6,4.8-3.9,5.7v18.1c2.3.9,3.9,3.1,3.9,5.7s-1.6,4.8-3.9,5.7v18.1c2.3.9,3.9,3.1,3.9,5.7s-1.6,4.8-3.9,5.7v18.1c2.3.9,3.9,3.1,3.9,5.7s-1.6,4.8-3.9,5.7v18c2.3.9,3.9,3.1,3.9,5.7s-1.6,4.8-3.9,5.7v18.1c2.3.9,3.9,3.1,3.9,5.7s-1.6,4.8-3.9,5.7v11.9h243.1v-11.9c-2.2-.9-3.8-3.1-3.8-5.7s1.6-4.8,3.8-5.7v-18.9c-2.2-.9-3.8-3.1-3.8-5.7s1.6-4.8,3.8-5.7v-18.1c-2.2-.9-3.8-3.1-3.8-5.7s1.6-4.8,3.8-5.7v-18.1c-2.2-.9-3.8-3.1-3.8-5.7s1.6-4.8,3.8-5.7v-18.1c-2.2-.9-3.8-3.1-3.8-5.7s1.6-4.8,3.8-5.7v-18.1c-2.2-.9-3.8-3.1-3.8-5.7s1.6-4.8,3.8-5.7v-18.1c-2.2-.9-3.8-3.1-3.8-5.7s1.6-4.8,3.8-5.7v-18.1c-2.2-.9-3.8-3.1-3.8-5.7s1.6-4.8,3.8-5.7v-18.1c-2.2-.9-3.8-3.1-3.8-5.7s1.6-4.8,3.8-5.7v-18.1c-2.2-.9-3.8-3.1-3.8-5.7s1.6-4.8,3.8-5.7v-18.1c-2.2-.9-3.8-3.1-3.8-5.7s1.6-4.8,3.8-5.7v-18.1c-2.2-.9-3.8-3.1-3.8-5.7s1.6-4.8,3.8-5.7v-18.1c-2.2-.9-3.8-3.1-3.8-5.7s1.6-4.8,3.8-5.7v-18.1c-2.2-.9-3.8-3.1-3.8-5.7s1.6-4.8,3.8-5.7v-18.1c-2.2-.9-3.8-3.1-3.8-5.7s1.6-4.8,3.8-5.7v-18.1c-2.2-.9-3.8-3.1-3.8-5.7s1.6-4.8,3.8-5.7v-18.1c-2.2-.9-3.8-3.1-3.8-5.7s1.6-4.8,3.8-5.7v-18.1c-2.2-.9-3.8-3.1-3.8-5.7s1.6-4.8,3.8-5.7v-18.1c-2.2-.9-3.8-3.1-3.8-5.7s1.6-4.8,3.8-5.7v-18.1c-2.2-.9-3.8-3.1-3.8-5.7s1.6-2.8,3.8-3.7ZM15.8,1016.9c-3.4,0-6.1-2.7-6.1-6.1s2.7-6.1,6.1-6.1,6.1,2.7,6.1,6.1-2.7,6.1-6.1,6.1ZM15.8,987.5c-3.4,0-6.1-2.7-6.1-6.1s2.7-6.1,6.1-6.1,6.1,2.7,6.1,6.1-2.7,6.1-6.1,6.1ZM15.8,958.1c-3.4,0-6.1-2.7-6.1-6.1s2.7-6.1,6.1-6.1,6.1,2.7,6.1,6.1-2.7,6.1-6.1,6.1ZM15.8,928.7c-3.4,0-6.1-2.7-6.1-6.1s2.7-6.1,6.1-6.1,6.1,2.7,6.1,6.1-2.7,6.1-6.1,6.1ZM15.8,899.3c-3.4,0-6.1-2.7-6.1-6.1s2.7-6.1,6.1-6.1,6.1,2.7,6.1,6.1-2.7,6.1-6.1,6.1ZM15.8,869.9c-3.4,0-6.1-2.7-6.1-6.1s2.7-6.1,6.1-6.1,6.1,2.7,6.1,6.1-2.7,6.1-6.1,6.1ZM15.8,840.5c-3.4,0-6.1-2.7-6.1-6.1s2.7-6.1,6.1-6.1,6.1,2.7,6.1,6.1-2.7,6.1-6.1,6.1ZM15.8,811.1c-3.4,0-6.1-2.7-6.1-6.1s2.7-6.1,6.1-6.1,6.1,2.7,6.1,6.1-2.7,6.1-6.1,6.1ZM15.8,781.7c-3.4,0-6.1-2.7-6.1-6.1s2.7-6.1,6.1-6.1,6.1,2.7,6.1,6.1-2.7,6.1-6.1,6.1ZM15.8,752.3c-3.4,0-6.1-2.7-6.1-6.1s2.7-6.1,6.1-6.1,6.1,2.7,6.1,6.1-2.7,6.1-6.1,6.1ZM15.8,722.9c-3.4,0-6.1-2.7-6.1-6.1s2.7-6.1,6.1-6.1,6.1,2.7,6.1,6.1-2.7,6.1-6.1,6.1ZM15.8,693.5c-3.4,0-6.1-2.7-6.1-6.1s2.7-6.1,6.1-6.1,6.1,2.7,6.1,6.1-2.7,6.1-6.1,6.1ZM15.8,664.1c-3.4,0-6.1-2.7-6.1-6.1s2.7-6.1,6.1-6.1,6.1,2.7,6.1,6.1-2.7,6.1-6.1,6.1ZM15.8,634.7c-3.4,0-6.1-2.7-6.1-6.1s2.7-6.1,6.1-6.1,6.1,2.7,6.1,6.1-2.7,6.1-6.1,6.1ZM15.8,605.3c-3.4,0-6.1-2.7-6.1-6.1s2.7-6.1,6.1-6.1,6.1,2.7,6.1,6.1-2.7,6.1-6.1,6.1ZM15.8,575.9c-3.4,0-6.1-2.7-6.1-6.1s2.7-6.1,6.1-6.1,6.1,2.7,6.1,6.1-2.7,6.1-6.1,6.1ZM15.8,546.5c-3.4,0-6.1-2.7-6.1-6.1s2.7-6.1,6.1-6.1,6.1,2.7,6.1,6.1-2.7,6.1-6.1,6.1ZM15.8,517.2c-3.4,0-6.1-2.7-6.1-6.1s2.7-6.1,6.1-6.1,6.1,2.7,6.1,6.1-2.7,6.1-6.1,6.1ZM15.8,487.8c-3.4,0-6.1-2.7-6.1-6.1s2.7-6.1,6.1-6.1,6.1,2.7,6.1,6.1-2.7,6.1-6.1,6.1ZM15.8,458.4c-3.4,0-6.1-2.7-6.1-6.1s2.7-6.1,6.1-6.1,6.1,2.7,6.1,6.1-2.7,6.1-6.1,6.1ZM53.7,1016.8c-6.7,0-12.1-5.4-12.1-12.1s5.4-12.1,12.1-12.1,12.1,5.4,12.1,12.1-5.4,12.1-12.1,12.1ZM53.7,469.7c-6.7,0-12.1-5.4-12.1-12.1s5.4-12.1,12.1-12.1,12.1,5.4,12.1,12.1c0,6.7-5.4,12.1-12.1,12.1ZM127.6,802.9c-3.1,0-5.7-2.6-5.7-5.7s2.6-5.7,5.7-5.7,5.7,2.6,5.7,5.7-2.6,5.7-5.7,5.7ZM157,802.9c-3.1,0-5.7-2.6-5.7-5.7s2.6-5.7,5.7-5.7,5.7,2.6,5.7,5.7-2.5,5.7-5.7,5.7ZM186.2,445.4c6.7,0,12.1,5.4,12.1,12.1s-5.4,12.1-12.1,12.1-12.1-5.4-12.1-12.1c0-6.6,5.5-12.1,12.1-12.1ZM192.5,797.2c0,3.1-2.6,5.7-5.7,5.7s-5.7-2.6-5.7-5.7,2.6-5.7,5.7-5.7,5.7,2.6,5.7,5.7ZM188.2,1016.8c-6.7,0-12.1-5.4-12.1-12.1s5.4-12.1,12.1-12.1,12.1,5.4,12.1,12.1-5.4,12.1-12.1,12.1ZM227.8,1016.9c-3.4,0-6.1-2.7-6.1-6.1s2.7-6.1,6.1-6.1,6.1,2.7,6.1,6.1-2.7,6.1-6.1,6.1ZM227.8,987.5c-3.4,0-6.1-2.7-6.1-6.1s2.7-6.1,6.1-6.1,6.1,2.7,6.1,6.1-2.7,6.1-6.1,6.1ZM227.8,958.1c-3.4,0-6.1-2.7-6.1-6.1s2.7-6.1,6.1-6.1,6.1,2.7,6.1,6.1-2.7,6.1-6.1,6.1ZM227.8,928.7c-3.4,0-6.1-2.7-6.1-6.1s2.7-6.1,6.1-6.1,6.1,2.7,6.1,6.1-2.7,6.1-6.1,6.1ZM227.8,899.3c-3.4,0-6.1-2.7-6.1-6.1s2.7-6.1,6.1-6.1,6.1,2.7,6.1,6.1-2.7,6.1-6.1,6.1ZM227.8,869.9c-3.4,0-6.1-2.7-6.1-6.1s2.7-6.1,6.1-6.1,6.1,2.7,6.1,6.1-2.7,6.1-6.1,6.1ZM227.8,840.5c-3.4,0-6.1-2.7-6.1-6.1s2.7-6.1,6.1-6.1,6.1,2.7,6.1,6.1-2.7,6.1-6.1,6.1ZM227.8,811.1c-3.4,0-6.1-2.7-6.1-6.1s2.7-6.1,6.1-6.1,6.1,2.7,6.1,6.1-2.7,6.1-6.1,6.1ZM227.8,781.7c-3.4,0-6.1-2.7-6.1-6.1s2.7-6.1,6.1-6.1,6.1,2.7,6.1,6.1-2.7,6.1-6.1,6.1ZM227.8,752.3c-3.4,0-6.1-2.7-6.1-6.1s2.7-6.1,6.1-6.1,6.1,2.7,6.1,6.1-2.7,6.1-6.1,6.1ZM227.8,722.9c-3.4,0-6.1-2.7-6.1-6.1s2.7-6.1,6.1-6.1,6.1,2.7,6.1,6.1-2.7,6.1-6.1,6.1ZM227.8,693.5c-3.4,0-6.1-2.7-6.1-6.1s2.7-6.1,6.1-6.1,6.1,2.7,6.1,6.1-2.7,6.1-6.1,6.1ZM227.8,664.1c-3.4,0-6.1-2.7-6.1-6.1s2.7-6.1,6.1-6.1,6.1,2.7,6.1,6.1-2.7,6.1-6.1,6.1ZM227.8,634.7c-3.4,0-6.1-2.7-6.1-6.1s2.7-6.1,6.1-6.1,6.1,2.7,6.1,6.1-2.7,6.1-6.1,6.1ZM227.8,605.3c-3.4,0-6.1-2.7-6.1-6.1s2.7-6.1,6.1-6.1,6.1,2.7,6.1,6.1-2.7,6.1-6.1,6.1ZM227.8,575.9c-3.4,0-6.1-2.7-6.1-6.1s2.7-6.1,6.1-6.1,6.1,2.7,6.1,6.1-2.7,6.1-6.1,6.1ZM227.8,546.5c-3.4,0-6.1-2.7-6.1-6.1s2.7-6.1,6.1-6.1,6.1,2.7,6.1,6.1-2.7,6.1-6.1,6.1ZM227.8,517.2c-3.4,0-6.1-2.7-6.1-6.1s2.7-6.1,6.1-6.1,6.1,2.7,6.1,6.1-2.7,6.1-6.1,6.1ZM227.8,487.8c-3.4,0-6.1-2.7-6.1-6.1s2.7-6.1,6.1-6.1,6.1,2.7,6.1,6.1-2.7,6.1-6.1,6.1ZM227.8,458.4c-3.4,0-6.1-2.7-6.1-6.1s2.7-6.1,6.1-6.1,6.1,2.7,6.1,6.1-2.7,6.1-6.1,6.1Z"/>
        <path class="cls-27" d="M53.7,437c-11.3,0-20.5,9.2-20.5,20.5s9.2,20.5,20.5,20.5,20.5-9.2,20.5-20.5c.1-11.3-9.1-20.5-20.5-20.5ZM53.7,469.7c-6.7,0-12.1-5.4-12.1-12.1s5.4-12.1,12.1-12.1,12.1,5.4,12.1,12.1c0,6.7-5.4,12.1-12.1,12.1Z"/>
        <path class="cls-27" d="M186.3,437c-11.3,0-20.5,9.2-20.5,20.5s9.2,20.5,20.5,20.5,20.5-9.2,20.5-20.5-9.2-20.5-20.5-20.5ZM186.3,469.7c-6.7,0-12.1-5.4-12.1-12.1s5.4-12.1,12.1-12.1,12.1,5.4,12.1,12.1c0,6.7-5.4,12.1-12.1,12.1Z"/>
        <path class="cls-27" d="M53.7,984.2c-11.3,0-20.5,9.2-20.5,20.5s9.2,20.5,20.5,20.5,20.5-9.2,20.5-20.5-9.1-20.5-20.5-20.5ZM53.7,1016.9c-6.7,0-12.1-5.4-12.1-12.1s5.4-12.1,12.1-12.1,12.1,5.4,12.1,12.1-5.4,12.1-12.1,12.1Z"/>
        <path class="cls-27" d="M188.3,984.2c-11.3,0-20.5,9.2-20.5,20.5s9.2,20.5,20.5,20.5,20.5-9.2,20.5-20.5-9.2-20.5-20.5-20.5ZM188.3,1016.9c-6.7,0-12.1-5.4-12.1-12.1s5.4-12.1,12.1-12.1,12.1,5.4,12.1,12.1-5.4,12.1-12.1,12.1Z"/>
        <circle class="cls-32" cx="55" cy="522.3" r="10.6"/>
        <circle class="cls-20" cx="55" cy="522.3" r="5.5"/>
        <path class="cls-33" d="M17.5,502.1H.3v3.4c2.3.9,3.9,3.1,3.9,5.7s-1.6,4.8-3.9,5.7v3.4h17.2c5,0,9-4,9-9h0c0-5.2-4.1-9.2-9-9.2ZM15.9,517.2c-3.4,0-6.1-2.7-6.1-6.1s2.7-6.1,6.1-6.1,6.1,2.7,6.1,6.1c-.1,3.4-2.8,6.1-6.1,6.1Z"/>
        <path class="cls-33" d="M17.5,649H.3v3.4c2.3.9,3.9,3.1,3.9,5.7s-1.6,4.8-3.9,5.7v3.4h17.2c5,0,9-4,9-9s-4.1-9.2-9-9.2ZM15.9,664.2c-3.4,0-6.1-2.7-6.1-6.1s2.7-6.1,6.1-6.1,6.1,2.7,6.1,6.1-2.8,6.1-6.1,6.1Z"/>
        <path class="cls-33" d="M17.5,796H.3v3.4c2.3.9,3.9,3.1,3.9,5.7s-1.6,4.8-3.9,5.7v3.4h17.2c5,0,9-4,9-9s-4.1-9.2-9-9.2ZM15.9,811.1c-3.4,0-6.1-2.7-6.1-6.1s2.7-6.1,6.1-6.1,6.1,2.7,6.1,6.1-2.8,6.1-6.1,6.1Z"/>
        <path class="cls-33" d="M17.5,825.4H.3v3.4c2.3.9,3.9,3.1,3.9,5.7s-1.6,4.8-3.9,5.7v3.4h17.2c5,0,9-4,9-9s-4.1-9.2-9-9.2ZM15.9,840.5c-3.4,0-6.1-2.7-6.1-6.1s2.7-6.1,6.1-6.1,6.1,2.7,6.1,6.1-2.8,6.1-6.1,6.1Z"/>
        <path class="cls-33" d="M17.5,854.8H.3v3.4c2.3.9,3.9,3.1,3.9,5.7s-1.6,4.8-3.9,5.7v3.4h17.2c5,0,9-4,9-9s-4.1-9.2-9-9.2ZM15.9,869.9c-3.4,0-6.1-2.7-6.1-6.1s2.7-6.1,6.1-6.1,6.1,2.7,6.1,6.1-2.8,6.1-6.1,6.1Z"/>
        <path class="cls-33" d="M17.5,884.2H.3v3.4c2.3.9,3.9,3.1,3.9,5.7s-1.6,4.8-3.9,5.7v3.4h17.2c5,0,9-4,9-9s-4.1-9.2-9-9.2ZM15.9,899.3c-3.4,0-6.1-2.7-6.1-6.1s2.7-6.1,6.1-6.1,6.1,2.7,6.1,6.1-2.8,6.1-6.1,6.1Z"/>
        <path class="cls-33" d="M17.5,943H.3v3.4c2.3.9,3.9,3.1,3.9,5.7s-1.6,4.8-3.9,5.7v3.4h17.2c5,0,9-4,9-9h0c0-5.2-4.1-9.2-9-9.2ZM15.9,958.1c-3.4,0-6.1-2.7-6.1-6.1s2.7-6.1,6.1-6.1,6.1,2.7,6.1,6.1-2.8,6.1-6.1,6.1Z"/>
        <path class="cls-33" d="M17.5,972.4H.3v3.4c2.3.9,3.9,3.1,3.9,5.7s-1.6,4.8-3.9,5.7v3.4h17.2c5,0,9-4,9-9h0c0-5.2-4.1-9.2-9-9.2ZM15.9,987.5c-3.4,0-6.1-2.7-6.1-6.1s2.7-6.1,6.1-6.1,6.1,2.7,6.1,6.1-2.8,6.1-6.1,6.1Z"/>
        <path class="cls-33" d="M17.5,1001.8H.3v3.4c2.3.9,3.9,3.1,3.9,5.7s-1.6,4.8-3.9,5.7v3.4h17.2c5,0,9-4,9-9s-4.1-9.2-9-9.2ZM15.9,1016.9c-3.4,0-6.1-2.7-6.1-6.1s2.7-6.1,6.1-6.1,6.1,2.7,6.1,6.1-2.8,6.1-6.1,6.1Z"/>
        <path class="cls-33" d="M239.5,452.3c0-2.6,1.6-4.8,3.9-5.7v-3.4h-17.2c-5,0-9,4-9,9s4,9,9,9h17.2v-3.2c-2.2-.9-3.9-3.1-3.9-5.7ZM227.8,458.4c-3.4,0-6.1-2.7-6.1-6.1s2.7-6.1,6.1-6.1,6.1,2.7,6.1,6.1-2.7,6.1-6.1,6.1Z"/>
        <path class="cls-33" d="M239.5,481.7c0-2.6,1.6-4.8,3.9-5.7v-3.4h-17.2c-5,0-9,4-9,9h0c0,5,4,9,9,9h17.2v-3.4c-2.2-.7-3.9-2.9-3.9-5.5ZM227.8,487.8c-3.4,0-6.1-2.7-6.1-6.1s2.7-6.1,6.1-6.1,6.1,2.7,6.1,6.1-2.7,6.1-6.1,6.1Z"/>
        <path class="cls-33" d="M239.5,511.1c0-2.6,1.6-4.8,3.9-5.7v-3.4h-17.2c-5,0-9,4-9,9h0c0,5,4,9,9,9h17.2v-3.4c-2.2-.7-3.9-2.9-3.9-5.5ZM227.8,517.2c-3.4,0-6.1-2.7-6.1-6.1s2.7-6.1,6.1-6.1,6.1,2.7,6.1,6.1c0,3.4-2.7,6.1-6.1,6.1Z"/>
        <path class="cls-33" d="M239.5,540.5c0-2.6,1.6-4.8,3.9-5.7v-3.4h-17.2c-5,0-9,4-9,9s4,9,9,9h17.2v-3.4c-2.2-.7-3.9-2.9-3.9-5.5ZM227.8,546.6c-3.4,0-6.1-2.7-6.1-6.1s2.7-6.1,6.1-6.1,6.1,2.7,6.1,6.1-2.7,6.1-6.1,6.1Z"/>
        <path class="cls-33" d="M239.5,569.9c0-2.6,1.6-4.8,3.9-5.7v-3.4h-17.2c-5,0-9,4-9,9s4,9,9,9h17.2v-3.4c-2.2-.7-3.9-2.9-3.9-5.5ZM227.8,576c-3.4,0-6.1-2.7-6.1-6.1s2.7-6.1,6.1-6.1,6.1,2.7,6.1,6.1-2.7,6.1-6.1,6.1Z"/>
        <path class="cls-33" d="M239.5,599.3c0-2.6,1.6-4.8,3.9-5.7v-3.4h-17.2c-5,0-9,4-9,9s4,9,9,9h17.2v-3.4c-2.2-.7-3.9-2.9-3.9-5.5ZM227.8,605.4c-3.4,0-6.1-2.7-6.1-6.1s2.7-6.1,6.1-6.1,6.1,2.7,6.1,6.1-2.7,6.1-6.1,6.1Z"/>
        <path class="cls-33" d="M239.5,658.1c0-2.6,1.6-4.8,3.9-5.7v-3.4h-17.2c-5,0-9,4-9,9s4,9,9,9h17.2v-3.4c-2.2-.7-3.9-2.9-3.9-5.5ZM227.8,664.2c-3.4,0-6.1-2.7-6.1-6.1s2.7-6.1,6.1-6.1,6.1,2.7,6.1,6.1-2.7,6.1-6.1,6.1Z"/>
        <path class="cls-33" d="M239.5,716.9c0-2.6,1.6-4.8,3.9-5.7v-3.4h-17.2c-5,0-9,4-9,9h0c0,5,4,9,9,9h17.2v-3.4c-2.2-.8-3.9-3-3.9-5.5ZM227.8,722.9c-3.4,0-6.1-2.7-6.1-6.1s2.7-6.1,6.1-6.1,6.1,2.7,6.1,6.1-2.7,6.1-6.1,6.1Z"/>
        <path class="cls-33" d="M239.5,746.3c0-2.6,1.6-4.8,3.9-5.7v-3.4h-17.2c-5,0-9,4-9,9h0c0,5,4,9,9,9h17.2v-3.4c-2.2-.8-3.9-3-3.9-5.5ZM227.8,752.3c-3.4,0-6.1-2.7-6.1-6.1s2.7-6.1,6.1-6.1,6.1,2.7,6.1,6.1-2.7,6.1-6.1,6.1Z"/>
        <path class="cls-33" d="M239.5,775.7c0-2.6,1.6-4.8,3.9-5.7v-3.4h-17.2c-5,0-9,4-9,9s4,9,9,9h17.2v-3.4c-2.2-.8-3.9-3-3.9-5.5ZM227.8,781.7c-3.4,0-6.1-2.7-6.1-6.1s2.7-6.1,6.1-6.1,6.1,2.7,6.1,6.1-2.7,6.1-6.1,6.1Z"/>
        <path class="cls-33" d="M239.5,805c0-2.6,1.6-4.8,3.9-5.7v-3.3h-17.2c-5,0-9,4-9,9s4,9,9,9h17.2v-3.4c-2.2-.8-3.9-3-3.9-5.6ZM227.8,811.1c-3.4,0-6.1-2.7-6.1-6.1s2.7-6.1,6.1-6.1,6.1,2.7,6.1,6.1-2.7,6.1-6.1,6.1Z"/>
        <path class="cls-33" d="M239.5,834.4c0-2.6,1.6-4.8,3.9-5.7v-3.4h-17.2c-5,0-9,4-9,9s4,9,9,9h17.2v-3.4c-2.2-.7-3.9-2.9-3.9-5.5ZM227.8,840.5c-3.4,0-6.1-2.7-6.1-6.1s2.7-6.1,6.1-6.1,6.1,2.7,6.1,6.1-2.7,6.1-6.1,6.1Z"/>
        <path class="cls-33" d="M239.5,863.8c0-2.6,1.6-4.8,3.9-5.7v-3.4h-17.2c-5,0-9,4-9,9s4,9,9,9h17.2v-3.4c-2.2-.7-3.9-2.9-3.9-5.5ZM227.8,869.9c-3.4,0-6.1-2.7-6.1-6.1s2.7-6.1,6.1-6.1,6.1,2.7,6.1,6.1-2.7,6.1-6.1,6.1Z"/>
        <path class="cls-33" d="M239.5,893.2c0-2.6,1.6-4.8,3.9-5.7v-3.4h-17.2c-5,0-9,4-9,9s4,9,9,9h17.2v-3.4c-2.2-.7-3.9-2.9-3.9-5.5ZM227.8,899.3c-3.4,0-6.1-2.7-6.1-6.1s2.7-6.1,6.1-6.1,6.1,2.7,6.1,6.1-2.7,6.1-6.1,6.1Z"/>
        <path class="cls-33" d="M239.5,952c0-2.6,1.6-4.8,3.9-5.7v-3.3h-17.2c-5,0-9,4-9,9h0c0,5,4,9,9,9h17.2v-3.4c-2.2-.8-3.9-3-3.9-5.6ZM227.8,958.1c-3.4,0-6.1-2.7-6.1-6.1s2.7-6.1,6.1-6.1,6.1,2.7,6.1,6.1-2.7,6.1-6.1,6.1Z"/>
        <path class="cls-33" d="M239.5,981.4c0-2.6,1.6-4.8,3.9-5.7v-3.4h-17.2c-5,0-9,4-9,9h0c0,5,4,9,9,9h17.2v-3.4c-2.2-.7-3.9-2.9-3.9-5.5ZM227.8,987.5c-3.4,0-6.1-2.7-6.1-6.1s2.7-6.1,6.1-6.1,6.1,2.7,6.1,6.1-2.7,6.1-6.1,6.1Z"/>
        <path class="cls-19" d="M163.1,424.2l4.4-4.4-2.3-2.3-6.6,6.6h-1.5v-4.7c0-1.2-1-2.2-2.2-2.2h-69.5c-1.2,0-2.2,1-2.2,2.2v4.7h-1.5l-6.6-6.6-2.3,2.3,4.4,4.4c-.6.2-1,.8-1,1.4v56.3c0,.9.7,1.6,1.6,1.6h84.6c.9,0,1.6-.7,1.6-1.6v-56.3c0-.6-.4-1.2-.9-1.4Z"/>
        <g>
          <path class="cls-31" d="M100.3,446.5c0-3.2-2.6-5.8-5.8-5.8s-5.8,2.6-5.8,5.8.5,2.7,1.3,3.7h-.2v7.7c0,1.2,1,2.1,2.1,2.1h5.1c1.2,0,2.1-1,2.1-2.1v-7.7h0c.8-1,1.3-2.3,1.3-3.7Z"/>
          <path class="cls-31" d="M155.5,446.5c0-3.2-2.6-5.8-5.8-5.8s-5.8,2.6-5.8,5.8.5,2.7,1.3,3.7h-.2v7.7c0,1.2,1,2.1,2.1,2.1h5.1c1.2,0,2.1-1,2.1-2.1v-7.7h-.2c.9-1,1.4-2.3,1.4-3.7Z"/>
        </g>
        <path class="cls-18" d="M200.9,576.6h-21c-1.2,0-2.2-1-2.2-2.2v-26.7c0-1.2,1-2.2,2.2-2.2h21c1.2,0,2.2,1,2.2,2.2v26.7c0,1.3-1,2.2-2.2,2.2Z"/>
        <g>
          <rect class="cls-17" x="132" y="512.8" width="21.7" height="14.4"/>
          <path class="cls-24" d="M149.3,527.2c-2-1.8-3.2-4.4-3.2-7.2s1.2-5.4,3.2-7.2h-12.8c2,1.8,3.2,4.4,3.2,7.2s-1.2,5.4-3.2,7.2h12.8Z"/>
        </g>
        <g>
          <rect class="cls-17" x="132.3" y="598.1" width="21.7" height="14.4"/>
          <path class="cls-24" d="M149.6,612.6c-2-1.8-3.2-4.4-3.2-7.2s1.2-5.4,3.2-7.2h-12.8c2,1.8,3.2,4.4,3.2,7.2s-1.2,5.4-3.2,7.2h12.8Z"/>
        </g>
        <g>
          <rect class="cls-17" x="132.3" y="617.3" width="21.7" height="14.4"/>
          <path class="cls-24" d="M149.6,631.8c-2-1.8-3.2-4.4-3.2-7.2s1.2-5.4,3.2-7.2h-12.8c2,1.8,3.2,4.4,3.2,7.2s-1.2,5.4-3.2,7.2h12.8Z"/>
        </g>
        <g>
          <rect class="cls-17" x="61.2" y="668.3" width="10.6" height="5.4"/>
          <rect class="cls-24" x="63.5" y="668.3" width="6" height="5.4"/>
        </g>
        <g>
          <rect class="cls-17" x="177.1" y="648.3" width="5.4" height="10.6"/>
          <rect class="cls-24" x="177.1" y="650.6" width="5.4" height="6"/>
        </g>
        <rect class="cls-18" x="179.5" y="498.2" width="18.9" height="29.3"/>
        <g>
          <rect class="cls-17" x="171.6" y="599.5" width="20.6" height="9.6"/>
          <rect class="cls-12" x="176.2" y="599.5" width="11.5" height="9.6"/>
        </g>
        <rect class="cls-24" x="120.2" y="767.6" width="4.2" height="6.9"/>
        <rect class="cls-24" x="126.9" y="767.6" width="4.2" height="6.9"/>
        <rect class="cls-24" x="65.3" y="678.9" width="6.9" height="4.2"/>
        <rect class="cls-24" x="88.2" y="611.8" width="6.9" height="4.2"/>
        <rect class="cls-24" x="65" y="722.5" width="6.9" height="4.2"/>
        <rect class="cls-18" x="195" y="726.4" width="4.2" height="6.9"/>
        <rect class="cls-18" x="187.9" y="666.5" width="6.9" height="4.2"/>
        <rect class="cls-18" x="85.9" y="510.8" width="6.9" height="4.2"/>
        <rect class="cls-18" x="81" y="523.1" width="6.9" height="4.2"/>
        <rect class="cls-18" x="191.6" y="615.5" width="6.9" height="4.2"/>
        <path class="cls-14" d="M186.3,931.3H57.5c-2.1,0-3.9-1.7-3.9-3.9v-108.1c0-2.1,1.7-3.9,3.9-3.9h128.8c2.1,0,3.9,1.7,3.9,3.9v108.1c0,2.1-1.7,3.9-3.9,3.9Z"/>
        <rect class="cls-10" x="101.5" y="977.5" width="10.5" height="5.9"/>
        <rect class="cls-10" x="130.3" y="977.7" width="10.5" height="5.9"/>
        <rect class="cls-10" x="101.5" y="1015.3" width="10.5" height="5.9"/>
        <rect class="cls-10" x="130.3" y="1015.5" width="10.5" height="5.9"/>
        <polyline class="cls-6" points="17.5 460 17.5 464.5 35.4 482.4 35.4 531 51 546.6 51 681.4 55.9 686.3 91.2 686.3"/>
        <polyline class="cls-6" points="22.9 486.9 31 495 31 532.9 46.7 548.6 46.7 683.8 52.6 689.8 91 689.8"/>
        <polyline class="cls-6" points="23.2 545.4 43 565.1 43 686.3 53.4 696.7 95 696.7"/>
        <polyline class="cls-6" points="23.2 574.8 39.8 591.3 39.8 688.2 51.9 700.4 95.1 700.4"/>
        <polyline class="cls-6" points="23.2 604.9 35.6 617.3 35.6 693.3 49.5 707.2 93.4 707.2"/>
        <polyline class="cls-6" points="22.9 633.1 31.6 641.8 31.6 695.9 46.4 710.7 96.1 710.7"/>
        <polyline class="cls-6" points="22.9 691.7 45.3 714.2 102.7 714.2"/>
        <line class="cls-6" x1="23.7" y1="717.7" x2="98.8" y2="717.7"/>
        <path class="cls-6" d="M23.2,744c.1-.6,17.3-17.3,17.3-17.3h12.5l4.9,4.9h45.7"/>
        <polyline class="cls-6" points="20.4 769.9 25.7 764.6 25.7 756.8 30.9 751.6 30.9 743.2 43.9 730.2 52.6 730.2 57.3 734.8 95.3 734.8"/>
        <path class="cls-6" d="M30.7,760.1l3.4-3.4s-.7-8.9,0-9.6c.7-.7,6-6,6-6l6.3-6.3h6.1l3.7,3.7h35.1"/>
        <polyline class="cls-6" points="29.1 816 29.1 768.4 38.7 758.8 93.4 758.8 95 757.2 95 747.5"/>
        <polyline class="cls-6" points="17.5 914.3 17.5 910.6 32.9 895.2 32.9 814.9 35.7 812.2 35.7 770.3 42 764 94.2 764 98.4 759.8 98.4 752.5"/>
        <path class="cls-6" d="M35.7,797.8"/>
        <path class="cls-6" d="M35.7,813.1"/>
        <polyline class="cls-6" points="23.6 974.8 30.4 968.1 30.4 903.5 37.5 897.6"/>
        <polyline class="cls-6" points="35.6 907.9 42.6 900.8 42.6 811.1 39.9 808.4 39.9 771.6 44.6 766.9 94.9 766.9 101.9 759.9 101.9 743.3"/>
        <polyline class="cls-6" points="108.9 750.1 108.9 758.8 95.9 771.9 91.5 771.9"/>
        <polyline class="cls-6" points="93.9 780.4 112.4 761.9 112.4 746.6"/>
        <polyline class="cls-6" points="115.9 751.9 115.9 763.6 102.2 777.3 102.2 797.3 95.9 803.6 65 803.6 55.5 794.1"/>
        <polyline class="cls-6" points="133.9 790.9 138.7 786.1 138.7 772.8 135.5 769.6 135.5 759.6 132.4 756.5 132.4 745.6"/>
        <polyline class="cls-6" points="137.3 749.6 137.3 757.5 139.3 759.5 139.3 765.9 152.7 779.3 164.9 779.3 179.1 793.5"/>
        <polyline class="cls-6" points="145.3 747.4 145.3 757.8 151.3 763.8 172.3 763.8 200.5 792.1 200.5 904.7 206.7 910.9 206.7 961.7 212.3 967.3 212.3 987.5 223.3 998.6 223.3 1003.9"/>
        <polyline class="cls-6" points="150.7 747.9 150.7 755.2 154.7 759.2 173.6 759.2 205.2 790.8 205.2 902.3 211.4 908.5 211.4 961 215.6 965.2 215.6 974"/>
        <polyline class="cls-6" points="157.5 742.7 165.3 742.7 211.1 788.6 211.1 900.2 227.2 916.3"/>
        <polyline class="cls-6" points="157.5 738.3 166.9 738.3 192.1 763.5"/>
        <polyline class="cls-6" points="158.6 733.2 166.6 733.2 190.1 756.7 195.5 756.7 206.3 767.5 206.3 774.4"/>
        <polyline class="cls-6" points="158.2 728.7 167.3 728.7 190.4 751.8 200.9 751.8"/>
        <polyline class="cls-6" points="158.2 724.6 169.1 724.6 174.1 729.6"/>
        <polyline class="cls-6" points="158.2 719.6 175.4 719.6 202.8 747 206.3 747 215.9 756.6 215.9 769"/>
        <line class="cls-6" x1="158.6" y1="714.2" x2="167.7" y2="714.2"/>
        <polyline class="cls-6" points="156.4 708.8 171.8 708.8 179.2 716.1"/>
        <polyline class="cls-6" points="187.9 728.7 192.4 724.2 192.4 704.9 203.4 704.9"/>
        <polyline class="cls-6" points="158.6 700.4 209.5 700.4 218.5 709.3"/>
        <polyline class="cls-6" points="158.2 695.9 213.8 695.9 220.3 689.5"/>
        <polyline class="cls-6" points="157.5 691.7 198.8 691.7 207.1 683.5 207.1 643.2 219.6 630.7"/>
        <polyline class="cls-6" points="158.6 687.5 179.1 687.5 202.4 664.2 202.4 641.4"/>
        <polyline class="cls-6" points="159.7 682.8 167.2 682.8 171.8 678.1"/>
        <path class="cls-6" d="M147.8,677.5c-.2-.3,9.2-9.2,9.2-9.2h15.6v-33.5l2.8-2.8v-7.7"/>
        <path class="cls-6" d="M147,675.2v-6.5l10.3-10.3"/>
        <polyline class="cls-6" points="140.1 676.2 140.1 665.4 147.4 658"/>
        <line class="cls-6" x1="136.6" y1="673.1" x2="136.6" y2="655.6"/>
        <path class="cls-6" d="M133.1,674.9v-15.2l-4.2-4.2"/>
        <path class="cls-6" d="M122.6,674.5v-20.7"/>
        <path class="cls-6" d="M119.2,676.2v-11.1l-7.6-7.6"/>
        <polyline class="cls-6" points="115.6 675.7 115.6 669.3 101.8 655.5 101.8 649 105 645.8 108.9 645.8 111.5 643.2 111.5 632.7 106.1 627.3 100 627.3"/>
        <polyline class="cls-6" points="99.8 633.1 105.4 633.1 108.5 636.2 108.5 641.4 105.7 644.1 101.1 644.1 97.7 647.5 97.7 656.6 108.7 667.6 108.7 674.3"/>
        <polyline class="cls-6" points="91.3 637.6 91.3 654.3 105.2 668.3 105.2 677.7"/>
        <polyline class="cls-6" points="76.5 636.8 76.5 644 85.9 653.3 85.9 657.2 99 670.3 99 679.3"/>
        <path class="cls-6" d="M94.8,673.4v-5l-11.7-11.7v-1.1l-4.5-4.5h-6.4l-1.7-1.7h-6.9l-6.7-6.7v-14.4l1.6-1.6h8.8"/>
        <polyline class="cls-6" points="69.1 620.7 60.4 620.7 55.4 625.7 55.4 643.5 63.4 651.5 69.5 651.5 75.9 657.9 78.4 657.9 92.5 671.9"/>
        <line class="cls-6" x1="73.8" y1="594" x2="56" y2="611.8"/>
        <polyline class="cls-6" points="137.6 654.6 137.6 648.5 134.7 645.5 134.7 642.5 130.2 638.1 125.2 638.1 121.1 634 121.1 615 109.7 603.6 109.7 521.4 124 507.1 124 498 127.7 494.3"/>
        <path class="cls-6" d="M135.3,547.3v-9l-3.1-3.1h-9.8l-4.5-4.5v-4.3"/>
        <polyline class="cls-6" points="129.3 579.6 129.3 585 126.1 588.2 120.2 588.2 118.6 589.7"/>
        <polyline class="cls-6" points="62.9 492.8 62.9 502.2 79.1 518.4 83.6 518.4 88.5 523.2 88.5 531.5 83.9 536 83.9 549.5"/>
        <rect class="cls-11" x="45.6" y="485.6" width="18.9" height="9.6"/>
        <g>
          <rect class="cls-13" x="102.7" y="483.5" width="4.3" height="11.5"/>
          <rect class="cls-13" x="110.4" y="483.5" width="4.3" height="11.5"/>
          <rect class="cls-13" x="118.1" y="483.5" width="4.3" height="11.5"/>
          <rect class="cls-13" x="125.7" y="483.5" width="4.3" height="11.5"/>
          <rect class="cls-13" x="133.4" y="483.5" width="4.3" height="11.5"/>
        </g>
        <g>
          <path class="cls-22" d="M106.8,504.3v-5.5h2.5v5.8c0,2,.6,2.7,1.7,2.7s1.8-.7,1.8-2.7v-5.8h2.4v5.5c0,3.5-1.4,5.1-4.2,5.1s-4.2-1.6-4.2-5.1Z"/>
          <path class="cls-22" d="M116.7,507.8l1.3-1.6c.7.6,1.7,1,2.6,1s1.4-.4,1.4-.9-.6-.8-1.5-1.2l-1.3-.6c-1.1-.4-2.1-1.3-2.1-2.8s1.6-3.2,3.8-3.2,2.5.5,3.4,1.3l-1.3,1.6c-.7-.5-1.4-.8-2.1-.8s-1.3.3-1.3.8.7.8,1.6,1.2l1.3.5c1.3.5,2.1,1.4,2.1,2.8s-1.5,3.3-4,3.3c-1.5.2-2.8-.3-3.9-1.4Z"/>
          <path class="cls-22" d="M126.3,498.8h3.6c2.2,0,3.9.6,3.9,2.6s-.5,1.9-1.4,2.2h0c1.1.4,1.9,1.2,1.9,2.5,0,2.1-1.8,3.1-4.1,3.1h-3.9s0-10.4,0-10.4ZM129.8,502.9c1.1,0,1.5-.5,1.5-1.2s-.5-1.1-1.5-1.1h-1.1v2.2h1.1ZM130,507.3c1.2,0,1.8-.4,1.8-1.3s-.6-1.2-1.8-1.2h-1.2v2.5h1.2Z"/>
        </g>
        <path class="cls-39" d="M170.2,580.2h-45.7c-.5,0-1-.4-1-1v-33.5c0-.5.4-1,1-1h45.7c.5,0,1,.4,1,1v33.5c0,.5-.5,1-1,1Z"/>
        <g>
          <rect class="cls-13" x="128.6" y="540.5" width="1.4" height="4.1"/>
          <rect class="cls-13" x="134.6" y="540.5" width="1.4" height="4.1"/>
          <rect class="cls-13" x="140.6" y="540.5" width="1.4" height="4.1"/>
          <rect class="cls-13" x="146.6" y="540.5" width="1.4" height="4.1"/>
          <rect class="cls-13" x="152.6" y="540.5" width="1.4" height="4.1"/>
          <rect class="cls-13" x="158.6" y="540.5" width="1.4" height="4.1"/>
          <rect class="cls-13" x="164.6" y="540.5" width="1.4" height="4.1"/>
        </g>
        <g>
          <rect class="cls-13" x="128.6" y="580.2" width="1.4" height="4.1"/>
          <rect class="cls-13" x="134.6" y="580.2" width="1.4" height="4.1"/>
          <rect class="cls-13" x="140.6" y="580.2" width="1.4" height="4.1"/>
          <rect class="cls-13" x="146.6" y="580.2" width="1.4" height="4.1"/>
          <rect class="cls-13" x="152.6" y="580.2" width="1.4" height="4.1"/>
          <rect class="cls-13" x="158.6" y="580.2" width="1.4" height="4.1"/>
          <rect class="cls-13" x="164.6" y="580.2" width="1.4" height="4.1"/>
        </g>
        <g>
          <rect class="cls-4" x="61.4" y="548.5" width="39.3" height="48.9"/>
          <path class="cls-30" d="M81,591.3h0c-7.6,0-13.7-6.1-13.7-13.7v-9.1c0-7.6,6.1-13.7,13.7-13.7h0c7.6,0,13.7,6.1,13.7,13.7v9.1c0,7.5-6.1,13.7-13.7,13.7Z"/>
          <path class="cls-30" d="M61.4,558.8h0v-10.3h10.3c-.1,5.7-4.6,10.3-10.3,10.3Z"/>
          <path class="cls-30" d="M71.6,597.5h-10.2v-10.3h0c5.7,0,10.2,4.6,10.2,10.3h0Z"/>
          <path class="cls-30" d="M100.7,558.8h0c-5.7,0-10.3-4.6-10.3-10.3h10.3v10.3Z"/>
          <path class="cls-30" d="M100.7,597.5h-10.3c0-5.7,4.6-10.3,10.3-10.3h0s0,10.3,0,10.3Z"/>
        </g>
        <g>
          <rect class="cls-39" x="64.9" y="618" width="34.6" height="22.9"/>
          <g>
            <rect class="cls-13" x="60.7" y="619.2" width="4.2" height="3.4"/>
            <rect class="cls-13" x="60.7" y="624.9" width="4.2" height="3.4"/>
            <rect class="cls-13" x="60.7" y="630.6" width="4.2" height="3.4"/>
            <rect class="cls-13" x="60.7" y="636.4" width="4.2" height="3.4"/>
          </g>
          <g>
            <rect class="cls-13" x="99.5" y="619.2" width="4.2" height="3.4"/>
            <rect class="cls-13" x="99.5" y="624.9" width="4.2" height="3.4"/>
            <rect class="cls-13" x="99.5" y="630.6" width="4.2" height="3.4"/>
            <rect class="cls-13" x="99.5" y="636.4" width="4.2" height="3.4"/>
          </g>
        </g>
        <rect class="cls-18" x="135.5" y="649.5" width="4.2" height="6.9"/>
        <g>
          <path class="cls-16" d="M160.4,753.3h-79c-.7,0-1.3-.6-1.3-1.3v-79.1c0-.7.6-1.3,1.3-1.3h79.1c.7,0,1.3.6,1.3,1.3v79.1c-.1.7-.7,1.3-1.4,1.3Z"/>
          <g>
            <rect class="cls-13" x="86.2" y="669.7" width="3.1" height="1.9"/>
            <rect class="cls-13" x="89.7" y="669.7" width="3.1" height="1.9"/>
            <rect class="cls-13" x="93.2" y="669.7" width="3.1" height="1.9"/>
            <rect class="cls-13" x="96.7" y="669.7" width="3.1" height="1.9"/>
            <rect class="cls-13" x="100.2" y="669.7" width="3.1" height="1.9"/>
            <rect class="cls-13" x="103.6" y="669.7" width="3.1" height="1.9"/>
            <rect class="cls-13" x="107.1" y="669.7" width="3.1" height="1.9"/>
            <rect class="cls-13" x="114.1" y="669.7" width="3.1" height="1.9"/>
            <rect class="cls-13" x="121.1" y="669.7" width="3.1" height="1.9"/>
            <rect class="cls-13" x="128" y="669.7" width="3.1" height="1.9"/>
            <rect class="cls-13" x="138.5" y="669.7" width="3.1" height="1.9"/>
            <rect class="cls-13" x="142" y="669.7" width="3.1" height="1.9"/>
            <rect class="cls-13" x="149" y="669.7" width="3.1" height="1.9"/>
            <rect class="cls-13" x="110.6" y="669.7" width="3.1" height="1.9"/>
            <rect class="cls-13" x="117.6" y="669.7" width="3.1" height="1.9"/>
            <rect class="cls-13" x="124.6" y="669.7" width="3.1" height="1.9"/>
            <rect class="cls-13" x="131.5" y="669.7" width="3.1" height="1.9"/>
            <rect class="cls-13" x="135" y="669.7" width="3.1" height="1.9"/>
            <rect class="cls-13" x="145.5" y="669.7" width="3.1" height="1.9"/>
            <rect class="cls-13" x="152.4" y="669.7" width="3.1" height="1.9"/>
          </g>
          <g>
            <rect class="cls-13" x="86.4" y="753.3" width="3.1" height="1.9"/>
            <rect class="cls-13" x="89.9" y="753.3" width="3.1" height="1.9"/>
            <rect class="cls-13" x="93.4" y="753.3" width="3.1" height="1.9"/>
            <rect class="cls-13" x="96.9" y="753.3" width="3.1" height="1.9"/>
            <rect class="cls-13" x="100.4" y="753.3" width="3.1" height="1.9"/>
            <rect class="cls-13" x="103.8" y="753.3" width="3.1" height="1.9"/>
            <rect class="cls-13" x="107.3" y="753.3" width="3.1" height="1.9"/>
            <rect class="cls-13" x="114.3" y="753.3" width="3.1" height="1.9"/>
            <rect class="cls-13" x="121.3" y="753.3" width="3.1" height="1.9"/>
            <rect class="cls-13" x="128.2" y="753.3" width="3.1" height="1.9"/>
            <rect class="cls-13" x="138.7" y="753.3" width="3.1" height="1.9"/>
            <rect class="cls-13" x="142.2" y="753.3" width="3.1" height="1.9"/>
            <rect class="cls-13" x="149.1" y="753.3" width="3.1" height="1.9"/>
            <rect class="cls-13" x="110.8" y="753.3" width="3.1" height="1.9"/>
            <rect class="cls-13" x="117.8" y="753.3" width="3.1" height="1.9"/>
            <rect class="cls-13" x="124.7" y="753.3" width="3.1" height="1.9"/>
            <rect class="cls-13" x="131.7" y="753.3" width="3.1" height="1.9"/>
            <rect class="cls-13" x="135.2" y="753.3" width="3.1" height="1.9"/>
            <rect class="cls-13" x="145.7" y="753.3" width="3.1" height="1.9"/>
            <rect class="cls-13" x="152.6" y="753.3" width="3.1" height="1.9"/>
          </g>
          <g>
            <rect class="cls-13" x="78.1" y="744.1" width="1.9" height="3.1"/>
            <rect class="cls-13" x="78.1" y="740.6" width="1.9" height="3.1"/>
            <rect class="cls-13" x="78.1" y="737.1" width="1.9" height="3.1"/>
            <rect class="cls-13" x="78.1" y="733.6" width="1.9" height="3.1"/>
            <rect class="cls-13" x="78.2" y="730.1" width="1.9" height="3.1"/>
            <rect class="cls-13" x="78.2" y="726.6" width="1.9" height="3.1"/>
            <rect class="cls-13" x="78.1" y="723.1" width="1.9" height="3.1"/>
            <rect class="cls-13" x="78.1" y="716.2" width="1.9" height="3.1"/>
            <rect class="cls-13" x="78.1" y="709.2" width="1.9" height="3.1"/>
            <rect class="cls-13" x="78.2" y="702.2" width="1.9" height="3.1"/>
            <rect class="cls-13" x="78.1" y="691.8" width="1.9" height="3.1"/>
            <rect class="cls-13" x="78.1" y="688.3" width="1.9" height="3.1"/>
            <rect class="cls-13" x="78.2" y="681.3" width="1.9" height="3.1"/>
            <rect class="cls-13" x="78.1" y="719.7" width="1.9" height="3.1"/>
            <rect class="cls-13" x="78.1" y="712.7" width="1.9" height="3.1"/>
            <rect class="cls-13" x="78.2" y="705.7" width="1.9" height="3.1"/>
            <rect class="cls-13" x="78.1" y="698.7" width="1.9" height="3.1"/>
            <rect class="cls-13" x="78.1" y="695.3" width="1.9" height="3.1"/>
            <rect class="cls-13" x="78.2" y="684.8" width="1.9" height="3.1"/>
            <rect class="cls-13" x="78.1" y="677.8" width="1.9" height="3.1"/>
          </g>
          <g>
            <rect class="cls-13" x="161.7" y="744" width="1.9" height="3.1"/>
            <rect class="cls-13" x="161.7" y="740.6" width="1.9" height="3.1"/>
            <rect class="cls-13" x="161.7" y="737.1" width="1.9" height="3.1"/>
            <rect class="cls-13" x="161.7" y="733.6" width="1.9" height="3.1"/>
            <rect class="cls-13" x="161.8" y="730.1" width="1.9" height="3.1"/>
            <rect class="cls-13" x="161.7" y="726.6" width="1.9" height="3.1"/>
            <rect class="cls-13" x="161.7" y="723.1" width="1.9" height="3.1"/>
            <rect class="cls-13" x="161.7" y="716.2" width="1.9" height="3.1"/>
            <rect class="cls-13" x="161.7" y="709.2" width="1.9" height="3.1"/>
            <rect class="cls-13" x="161.7" y="702.2" width="1.9" height="3.1"/>
            <rect class="cls-13" x="161.7" y="691.8" width="1.9" height="3.1"/>
            <rect class="cls-13" x="161.7" y="688.3" width="1.9" height="3.1"/>
            <rect class="cls-13" x="161.8" y="681.3" width="1.9" height="3.1"/>
            <rect class="cls-13" x="161.7" y="719.6" width="1.9" height="3.1"/>
            <rect class="cls-13" x="161.7" y="712.7" width="1.9" height="3.1"/>
            <rect class="cls-13" x="161.8" y="705.7" width="1.9" height="3.1"/>
            <rect class="cls-13" x="161.7" y="698.7" width="1.9" height="3.1"/>
            <rect class="cls-13" x="161.7" y="695.2" width="1.9" height="3.1"/>
            <rect class="cls-13" x="161.8" y="684.8" width="1.9" height="3.1"/>
            <rect class="cls-13" x="161.7" y="677.8" width="1.9" height="3.1"/>
          </g>
          <circle class="cls-15" cx="90.2" cy="682.8" r="2.8"/>
        </g>
        <rect class="cls-39" x="187.1" y="637.4" width="18.2" height="8.6"/>
        <rect class="cls-13" x="189.1" y="646.1" width="2.9" height="8.7"/>
        <rect class="cls-13" x="200.9" y="646.1" width="2.9" height="8.7"/>
        <rect class="cls-13" x="194.8" y="628.8" width="2.9" height="8.7"/>
        <rect class="cls-24" x="169.2" y="676.8" width="6.9" height="4.2"/>
        <rect class="cls-18" x="189.5" y="706.6" width="4.2" height="6.9"/>
        <rect class="cls-24" x="172.3" y="725.8" width="4.2" height="6.9" transform="translate(-464.6 336.9) rotate(-45)"/>
        <g>
          <path class="cls-33" d="M157,788c-5.1,0-9.2,4.1-9.2,9.2s4.1,9.2,9.2,9.2,9.2-4.1,9.2-9.2-4.1-9.2-9.2-9.2ZM157,802.9c-3.1,0-5.7-2.6-5.7-5.7s2.6-5.7,5.7-5.7,5.7,2.6,5.7,5.7-2.5,5.7-5.7,5.7Z"/>
          <path class="cls-33" d="M118.7,788.4v17.7h17.7v-17.7h-17.7ZM127.6,802.9c-3.1,0-5.7-2.6-5.7-5.7s2.6-5.7,5.7-5.7,5.7,2.6,5.7,5.7-2.6,5.7-5.7,5.7Z"/>
          <path class="cls-33" d="M186.8,788c-5.1,0-9.2,4.1-9.2,9.2s4.1,9.2,9.2,9.2,9.2-4.1,9.2-9.2-4.1-9.2-9.2-9.2ZM186.8,802.9c-3.1,0-5.7-2.6-5.7-5.7s2.6-5.7,5.7-5.7,5.7,2.6,5.7,5.7-2.5,5.7-5.7,5.7Z"/>
        </g>
        <path class="cls-33" d="M17.5,766.6H.3v3.4c2.3.9,3.9,3.1,3.9,5.7s-1.6,4.8-3.9,5.7v3.4h17.2c5,0,9-4,9-9s-4.1-9.2-9-9.2ZM15.9,781.7c-3.4,0-6.1-2.7-6.1-6.1s2.7-6.1,6.1-6.1,6.1,2.7,6.1,6.1-2.8,6.1-6.1,6.1Z"/>
        <path class="cls-33" d="M17.5,737.2H.3v3.4c2.3.9,3.9,3.1,3.9,5.7s-1.6,4.8-3.9,5.7v3.4h17.2c5,0,9-4,9-9h0c0-5.1-4.1-9.2-9-9.2ZM15.9,752.3c-3.4,0-6.1-2.7-6.1-6.1s2.7-6.1,6.1-6.1,6.1,2.7,6.1,6.1-2.8,6.1-6.1,6.1Z"/>
        <path class="cls-33" d="M17.5,707.8H.3v3.4c2.3.9,3.9,3.1,3.9,5.7s-1.6,4.8-3.9,5.7v3.4h17.2c5,0,9-4,9-9h0c0-5.1-4.1-9.2-9-9.2ZM15.9,722.9c-3.4,0-6.1-2.7-6.1-6.1s2.7-6.1,6.1-6.1,6.1,2.7,6.1,6.1-2.8,6.1-6.1,6.1Z"/>
        <path class="cls-33" d="M17.5,678.4H.3v3.4c2.3.9,3.9,3.1,3.9,5.7s-1.6,4.8-3.9,5.7v3.4h17.2c5,0,9-4,9-9s-4.1-9.2-9-9.2ZM15.9,693.6c-3.4,0-6.1-2.7-6.1-6.1s2.7-6.1,6.1-6.1,6.1,2.7,6.1,6.1-2.8,6.1-6.1,6.1Z"/>
        <path class="cls-33" d="M17.5,619.7H.3v3.4c2.3.9,3.9,3.1,3.9,5.7s-1.6,4.8-3.9,5.7v3.4h17.2c5,0,9-4,9-9s-4.1-9.2-9-9.2ZM15.9,634.8c-3.4,0-6.1-2.7-6.1-6.1s2.7-6.1,6.1-6.1,6.1,2.7,6.1,6.1-2.8,6.1-6.1,6.1Z"/>
        <path class="cls-33" d="M17.5,590.3H.3v3.4c2.3.9,3.9,3.1,3.9,5.7s-1.6,4.8-3.9,5.7v3.4h17.2c5,0,9-4,9-9s-4.1-9.2-9-9.2ZM15.9,605.4c-3.4,0-6.1-2.7-6.1-6.1s2.7-6.1,6.1-6.1,6.1,2.7,6.1,6.1-2.8,6.1-6.1,6.1Z"/>
        <path class="cls-33" d="M17.5,560.9H.3v3.4c2.3.9,3.9,3.1,3.9,5.7s-1.6,4.8-3.9,5.7v3.4h17.2c5,0,9-4,9-9s-4.1-9.2-9-9.2ZM15.9,576c-3.4,0-6.1-2.7-6.1-6.1s2.7-6.1,6.1-6.1,6.1,2.7,6.1,6.1-2.8,6.1-6.1,6.1Z"/>
        <path class="cls-33" d="M17.5,531.5H.3v3.4c2.3.9,3.9,3.1,3.9,5.7s-1.6,4.8-3.9,5.7v3.4h17.2c5,0,9-4,9-9s-4.1-9.2-9-9.2ZM15.9,546.6c-3.4,0-6.1-2.7-6.1-6.1s2.7-6.1,6.1-6.1,6.1,2.7,6.1,6.1-2.8,6.1-6.1,6.1Z"/>
        <path class="cls-33" d="M17.5,472.7H.3v3.4c2.3.9,3.9,3.1,3.9,5.7s-1.6,4.8-3.9,5.7v3.4h17.2c5,0,9-4,9-9h0c0-5.2-4.1-9.2-9-9.2ZM15.9,487.8c-3.4,0-6.1-2.7-6.1-6.1s2.7-6.1,6.1-6.1,6.1,2.7,6.1,6.1-2.8,6.1-6.1,6.1Z"/>
        <path class="cls-33" d="M17.5,443.3H.3v3.4c2.3.9,3.9,3.1,3.9,5.7s-1.6,4.8-3.9,5.7v3.4h17.2c5,0,9-4,9-9s-4.1-9.2-9-9.2ZM15.9,458.4c-3.4,0-6.1-2.7-6.1-6.1s2.7-6.1,6.1-6.1,6.1,2.7,6.1,6.1-2.8,6.1-6.1,6.1Z"/>
        <path class="cls-33" d="M17.5,913.6H.3v3.4c2.3.9,3.9,3.1,3.9,5.7s-1.6,4.8-3.9,5.7v3.4h17.2c5,0,9-4,9-9s-4.1-9.2-9-9.2ZM15.9,928.7c-3.4,0-6.1-2.7-6.1-6.1s2.7-6.1,6.1-6.1,6.1,2.7,6.1,6.1-2.8,6.1-6.1,6.1Z"/>
        <path class="cls-33" d="M239.5,1010.8c0-2.6,1.6-4.8,3.9-5.7v-3.4h-17.2c-5,0-9,4-9,9s4,9,9,9h17.2v-3.4c-2.2-.7-3.9-2.9-3.9-5.5ZM227.8,1016.9c-3.4,0-6.1-2.7-6.1-6.1s2.7-6.1,6.1-6.1,6.1,2.7,6.1,6.1-2.7,6.1-6.1,6.1Z"/>
        <path class="cls-33" d="M239.5,922.6c0-2.6,1.6-4.8,3.9-5.7v-3.4h-17.2c-5,0-9,4-9,9s4,9,9,9h17.2v-3.4c-2.2-.7-3.9-2.9-3.9-5.5ZM227.8,928.7c-3.4,0-6.1-2.7-6.1-6.1s2.7-6.1,6.1-6.1,6.1,2.7,6.1,6.1-2.7,6.1-6.1,6.1Z"/>
        <path class="cls-33" d="M239.5,687.5c0-2.6,1.6-4.8,3.9-5.7v-3.4h-17.2c-5,0-9,4-9,9s4,9,9,9h17.2v-3.4c-2.2-.7-3.9-2.9-3.9-5.5ZM227.8,693.6c-3.4,0-6.1-2.7-6.1-6.1s2.7-6.1,6.1-6.1,6.1,2.7,6.1,6.1-2.7,6.1-6.1,6.1Z"/>
        <rect class="cls-10" x="91.4" y="780" width="3.7" height="6.7"/>
        <g>
          <path class="cls-26" d="M82.2,800.9h-31.8c-1.2,0-2.2-1-2.2-2.2v-23.7c0-1.2,1-2.2,2.2-2.2h31.8c1.2,0,2.2,1,2.2,2.2v23.7c0,1.2-1,2.2-2.2,2.2Z"/>
          <path class="cls-35" d="M79.9,798.4h-27.3c-.8,0-1.4-.6-1.4-1.4v-20.4c0-.8.6-1.4,1.4-1.4h27.3c.8,0,1.4.6,1.4,1.4v20.4c0,.8-.6,1.4-1.4,1.4Z"/>
        </g>
        <rect class="cls-10" x="91.5" y="799.9" width="3.7" height="6.7"/>
        <rect class="cls-18" x="100.1" y="785.7" width="4.2" height="6.9"/>
        <g>
          <path class="cls-22" d="M42.3,605.8v-3.6c0-2.2.6-3.9,2.6-3.9s1.9.5,2.2,1.4h0c.3-1.1,1.1-1.9,2.4-1.9,2.1,0,3.1,1.8,3.1,4.1v3.9h-10.4ZM46.4,602.3c0-1.1-.5-1.5-1.2-1.5s-1.1.5-1.1,1.5v1.1h2.2v-1.1h0ZM50.8,602.1c0-1.2-.4-1.8-1.3-1.8s-1.2.6-1.2,1.8v1.2h2.5v-1.2Z"/>
          <path class="cls-22" d="M47.4,596.6c-3.4,0-5.4-1.9-5.4-4.8s2-4.8,5.4-4.8,5.4,1.9,5.4,4.8-2,4.8-5.4,4.8ZM47.4,589.6c-2,0-3.2.8-3.2,2.2s1.2,2.2,3.2,2.2,3.3-.9,3.3-2.2-1.3-2.2-3.3-2.2Z"/>
          <path class="cls-22" d="M47.4,585.6c-3.4,0-5.4-1.9-5.4-4.8s2-4.8,5.4-4.8,5.4,1.9,5.4,4.8-2,4.8-5.4,4.8ZM47.4,578.6c-2,0-3.2.8-3.2,2.2s1.2,2.2,3.2,2.2,3.3-.9,3.3-2.2-1.3-2.2-3.3-2.2Z"/>
          <path class="cls-22" d="M44.3,572.6v2.8h-2.1v-8.1h2.1v2.8h8.3v2.5h-8.3Z"/>
          <path class="cls-22" d="M51.3,566.7l-1.6-1.3c.6-.7,1-1.7,1-2.6s-.4-1.4-.9-1.4-.8.6-1.2,1.5l-.6,1.3c-.4,1.1-1.3,2.1-2.8,2.1s-3.2-1.6-3.2-3.8.5-2.5,1.3-3.4l1.6,1.3c-.5.7-.8,1.4-.8,2.1s.3,1.3.8,1.3.8-.7,1.2-1.6l.5-1.3c.5-1.3,1.4-2.1,2.8-2.1s3.3,1.5,3.3,4c.2,1.4-.3,2.8-1.4,3.9Z"/>
          <path class="cls-22" d="M42.3,557.1v-6.6h2.1v4.1h2v-3.5h2.1v3.5h2.2v-4.3h2.1v6.8h-10.5Z"/>
          <path class="cls-22" d="M42.3,548.3v-2.5h8.3v-4h2.1v6.5h-10.4Z"/>
        </g>
        <g>
          <path class="cls-22" d="M141.4,763h3c3.2,0,5.3,1.6,5.3,5.2s-2.1,5.2-5.1,5.2h-3.1v-10.4h0ZM144.3,771.4c1.7,0,2.9-.8,2.9-3.2s-1.2-3.2-2.9-3.2h-.4v6.4h.4Z"/>
          <path class="cls-22" d="M151.6,763h6.6v2.1h-4.1v2h3.5v2.1h-3.5v2.2h4.3v2.1h-6.8v-10.5Z"/>
          <path class="cls-22" d="M160.4,763h3.6c2.2,0,3.9.6,3.9,2.6s-.5,1.9-1.4,2.2h0c1.1.4,1.9,1.2,1.9,2.5,0,2.1-1.8,3.1-4.1,3.1h-3.9v-10.4ZM164,767.2c1.1,0,1.5-.5,1.5-1.2s-.5-1.1-1.5-1.1h-1.1v2.2h1.1ZM164.2,771.5c1.2,0,1.8-.4,1.8-1.3s-.6-1.2-1.8-1.2h-1.2v2.5h1.2Z"/>
          <path class="cls-22" d="M170.1,768.5v-5.5h2.5v5.8c0,2,.6,2.7,1.7,2.7s1.8-.7,1.8-2.7v-5.8h2.4v5.5c0,3.5-1.4,5.1-4.2,5.1s-4.2-1.5-4.2-5.1Z"/>
          <path class="cls-22" d="M180.3,768.3c0-3.5,2.3-5.5,5.1-5.5s2.6.6,3.3,1.4l-1.3,1.5c-.5-.5-1.1-.7-1.9-.7-1.5,0-2.7,1.2-2.7,3.2s.9,3.3,2.9,3.3.8,0,1-.3v-1.7h-1.7v-2h3.9v4.9c-.7.7-2,1.3-3.5,1.3-2.8-.1-5.1-1.9-5.1-5.4Z"/>
        </g>
        <rect class="cls-5" x="114.2" y="784.4" width="86.4" height="25.6"/>
        <g>
          <path class="cls-22" d="M40.1,498.8h2.5v8.3h4v2.1h-6.5v-10.4Z"/>
          <path class="cls-22" d="M48.4,498.8h6.6v2.1h-4.1v2h3.5v2.1h-3.5v2.2h4.3v2.1h-6.8v-10.5Z"/>
          <path class="cls-22" d="M57.2,498.8h3c3.2,0,5.3,1.6,5.3,5.2s-2.1,5.2-5.1,5.2h-3.1v-10.4h-.1ZM60.1,507.2c1.7,0,2.9-.8,2.9-3.2s-1.2-3.2-2.9-3.2h-.4v6.4h.4Z"/>
        </g>
        <g>
          <rect class="cls-17" x="143.7" y="648.3" width="5.4" height="10.6"/>
          <rect class="cls-24" x="143.7" y="650.6" width="5.4" height="6"/>
        </g>
        <g>
          <rect class="cls-17" x="154.3" y="648.3" width="5.4" height="10.6"/>
          <rect class="cls-24" x="154.3" y="650.6" width="5.4" height="6"/>
        </g>
        <rect class="cls-18" x="127.1" y="649.5" width="4.2" height="6.9"/>
        <rect class="cls-18" x="67.3" y="656" width="6.9" height="4.2"/>
        <rect class="cls-24" x="120.5" y="649.5" width="4.2" height="6.9"/>
        <rect class="cls-24" x="110.4" y="649.5" width="4.2" height="6.9"/>
        <path class="cls-33" d="M239.5,628.7c0-2.6,1.6-4.8,3.9-5.7v-3.4h-17.2c-5,0-9,4-9,9s4,9,9,9h17.2v-3.4c-2.2-.7-3.9-2.9-3.9-5.5ZM227.8,634.8c-3.4,0-6.1-2.7-6.1-6.1s2.7-6.1,6.1-6.1,6.1,2.7,6.1,6.1-2.7,6.1-6.1,6.1Z"/>
        <g>
          <rect class="cls-17" x="172.5" y="617.6" width="5.6" height="11.9"/>
          <rect class="cls-12" x="172.5" y="620.3" width="5.6" height="6.6"/>
        </g>
      </g>
      <g id="layer1">
        <rect id="rect815" x="370.2" y="97.6" width="160.6" height="322.1" transform="translate(-.3 .5) rotate(0)"/>
        <rect id="rect821" class="cls-22" x="394.3" y="388.9" width="112.5" height="28.5"/>
        <path id="rect825" class="cls-37" d="M400.1,390.5h16.8c2.9,0,5.3,2.4,5.3,5.3v14.7c0,2.9-2.4,5.3-5.3,5.3h-16.8c-2.9,0-5.3-2.4-5.3-5.3v-14.7c0-2.9,2.4-5.3,5.3-5.3Z"/>
        <path id="rect872" class="cls-37" d="M456,390.5h16.8c2.9,0,5.3,2.4,5.3,5.3v14.7c0,2.9-2.4,5.3-5.3,5.3h-16.8c-2.9,0-5.3-2.4-5.3-5.3v-14.7c0-3,2.4-5.3,5.3-5.3Z"/>
        <path id="rect874" class="cls-37" d="M427.4,390.5h18.1c2.6,0,4.6,2.1,4.6,4.6v16.1c0,2.6-2.1,4.6-4.6,4.6h-18.1c-2.6,0-4.6-2.1-4.6-4.6v-16.1c0-2.5,2.1-4.6,4.6-4.6Z"/>
        <rect id="rect947" class="cls-9" x="407" y="404.3" width="2.8" height="53.6"/>
        <rect id="rect949" class="cls-9" x="435.1" y="404.3" width="2.8" height="53.6"/>
        <rect id="rect951" class="cls-9" x="462.9" y="404.2" width="2.8" height="53.6"/>
        <rect id="rect87" x="392.8" y="293.6" width="114.5" height="28.8"/>
        <path id="path31-1" class="cls-22" d="M415.8,160.9c1,0,1.1,0,1.3-.1.1-.1.2-.2.3-.3.1-.2.1-.3.1-2.3v-2.2h4.2v2.7c0,3,0,3.2-.3,4-.3,1-1.2,1.7-2.2,1.8-.6.1-1.3.1-1.9.1s-1.8,0-2.1-.1h-.5v-3.6h1.1ZM436.1,166.9c18.1,0,22.6,0,21.8.1h-.1.1c.1,0,.1.1-.1.1s-.1,0,.2.1h.4-.7c.1,0,.1.1.1.5s0,.5.2.5.1,0-.1,0-.2,0-.2.1c0,0-7.2.1-21.5.1h-21.5v-1.6h21.4ZM419.7,150.4h2.1v3.4h-4.2v-3.4h2.1ZM424,156.8c.1-.9.4-1.8.8-2.6.1-.2.2-.4.3-.5.1-.1.2-.2.2-.3.2-.4.5-.7.8-1h.1c.3-.4.6-.7,1-1,.5-.3,1-.6,1.6-.8.8-.3,1.7-.5,2.6-.4.5,0,1,.1,1.5.2.3.1.7.2.9.3.1.1.2.1.3.1.2.1.4.2.5.3,1.3.9,2.3,2,3,3.4.8,1.7,1,3.7.3,5.4-.2.6-.5,1.1-.8,1.6-.3.6-.8,1.1-1.3,1.5-.8.9-1.9,1.5-3,1.8-.9.2-1.8.2-2.7.1-1-.2-2-.6-2.9-1.2-.3-.2-.6-.5-.9-.8-.1-.1-.2-.2-.3-.3-.9-1-1.5-2.3-1.9-3.6-.1-.8-.1-1.5-.1-2.2h0ZM428.1,158.6c.2.8.6,1.5,1.3,2.1.7.6,1.7.8,2.6.6,1.1-.5,2-1.5,2.2-2.7.2-.8.2-1.6,0-2.4-.2-.9-.8-1.7-1.5-2.2-.2-.2-.5-.3-.8-.4-.7-.1-1.4-.1-2,.2-.6.4-1.1.9-1.4,1.5-.5,1.1-.6,2.2-.4,3.3h0ZM440.2,150.4h4.2v1.9c0,1.8,0,1.9.1,2.2.4.8,1.3,1.3,2.1,1,.4-.1.8-.4,1-.8l.2-.4v-4h4.2v2.2c.1.9,0,1.8-.1,2.7-.2.8-.6,1.6-1.1,2.2-.1.1-.2.2-.2.3-.3.3-.6.7-1,.9-.4.3-.8.5-1.3.7-.1,0-.4.1-.7.2-.5.2-1,.2-1.5.2s-1.1,0-1.6-.2c-.6-.1-1.2-.4-1.7-.7-.6-.4-1.2-1-1.6-1.6-.6-.8-.9-1.7-1-2.7-.1-1.4-.1-2.7,0-4.1h0ZM446.1,160.9h3.5v3.6h-7v-3.6h3.5ZM452.1,147.6s.1-.1.1-.2q0-.2.3-.3h26.1v1.6h-26.3c-.1,0-.1-.1-.1-.5,0-.4,0-.6,0-.6h0ZM458,156.2h4.5v3.6h-9v-3.6h4.5ZM466,150.3h2.1v3.4h-4.2v-3.4h2.1ZM466,155.6h2.1v9h-4.2v-9h2.1ZM474.6,150.3h4.5v3.4h-9v-3.4h4.5ZM470.8,155.9h4.2v2.1c0,2.9-.1,2.7,2.1,2.8h1.4v3.6h-.5c-1.3.2-2.6.2-3.9.1-.9-.1-1.8-.5-2.4-1.1-.5-.6-.8-1.4-.9-2.2,0-.8,0-5.3,0-5.3h0ZM481.6,148.6c.1-.4.3-.7.6-1,.8-.8,2.2-.9,3.1-.2.3.2.6.5.8.9.1.3.2.6.2.9s0,.7-.2,1c-.4.7-1.1,1.2-1.9,1.3-.7.1-1.4-.2-1.9-.7-.7-.6-.9-1.4-.7-2.2ZM482,150.1c.3.5.8.9,1.4,1.1.6.1,1.3,0,1.8-.5.2-.1.3-.3.4-.6.2-.3.2-.6.2-.9s0-.6-.2-.9c-.1-.3-.3-.5-.6-.6-.2-.1-.4-.3-.6-.3-1-.3-2.1.2-2.5,1.2,0,.4,0,1,.1,1.5h0ZM483.6,147.9c.3,0,.6,0,.9.1.4.2.5.7.3,1.1-.1.1-.2.2-.3.2h-.2c0,.1.2.3.2.3.1.2.3.3.4.5.1.1.1.2.2.3s0,.1-.2.1h-.2l-.3-.5c-.4-.6-.5-.6-.9-.6h-.3v1.2h-.4v-2.6h.8ZM483.7,149c.4,0,.5,0,.7-.1.3-.2.1-.6-.3-.7h-.8v.8h.4Z"/>
        <path id="rect64" class="cls-37" d="M483.8,390.5h16.8c2.9,0,5.3,2.4,5.3,5.3v14.7c0,2.9-2.4,5.3-5.3,5.3h-16.8c-2.9,0-5.3-2.4-5.3-5.3v-14.7c0-3,2.4-5.3,5.3-5.3Z"/>
        <rect id="rect66" class="cls-9" x="490.7" y="404.2" width="2.8" height="53.6"/>
        <rect id="rect103" x="370.1" y="19.6" width="35.7" height="78.2"/>
        <rect id="rect105" x="495.1" y="19.6" width="35.7" height="78.2"/>
        <circle id="path107" class="cls-23" cx="450.4" cy="331.4" r="39.3"/>
        <circle id="path133" class="cls-22" cx="450.4" cy="331.4" r="32.1"/>
        <rect id="rect137" class="cls-22" x="370.1" y="181" width="60.7" height="107.1"/>
        <rect id="rect141" x="370.1" y="183.2" width="57.1" height="102.8"/>
        <rect id="rect139" class="cls-34" x="371.9" y="182.9" width="57.1" height="103.6"/>
        <circle id="path144" class="cls-36" cx="380.8" cy="277.5" r="8.9"/>
        <rect id="rect952" class="cls-38" x="371.9" y="276.1" width="17.9" height="2.9"/>
        <rect id="rect956" class="cls-22" x="452.9" y="199" width="77.8" height="60.7"/>
        <rect id="rect958" x="454.7" y="200.8" width="74.3" height="57.1"/>
        <rect id="rect960" class="cls-3" x="466.9" y="204.3" width="50" height="50"/>
        <rect id="rect962" class="cls-23" x="466.9" y="254.3" width="8.9" height="14.3"/>
        <rect id="rect964" class="cls-23" x="507.9" y="254.3" width="8.9" height="14.3"/>
        <rect id="rect966" class="cls-23" x="479.4" y="254.3" width="8.9" height="14.3"/>
        <rect id="rect968" class="cls-23" x="495.4" y="254.3" width="8.9" height="14.3"/>
        <rect id="rect970" class="cls-23" x="466.9" y="190" width="8.9" height="14.3"/>
        <rect id="rect972" class="cls-23" x="507.9" y="190" width="8.9" height="14.3"/>
        <rect id="rect974" class="cls-23" x="479.4" y="190" width="8.9" height="14.3"/>
        <rect id="rect976" class="cls-23" x="495.4" y="190" width="8.9" height="14.3"/>
        <polygon id="rect978" class="cls-9" points="469.9 252.5 472.7 252.5 472.8 261.5 469.9 261.5 469.9 252.5"/>
        <polygon id="rect980" class="cls-9" points="482.4 252.5 485.2 252.5 485.3 261.5 482.4 261.5 482.4 252.5"/>
        <polygon id="rect982" class="cls-9" points="498.5 252.5 501.3 252.5 501.3 261.5 498.5 261.5 498.5 252.5"/>
        <polygon id="rect984" class="cls-9" points="511 252.5 513.8 252.5 513.8 261.5 511 261.5 511 252.5"/>
        <polygon id="rect986" class="cls-9" points="469.9 206.1 472.7 206.1 472.8 197.2 469.9 197.2 469.9 206.1"/>
        <polygon id="rect988" class="cls-9" points="482.4 206.1 485.2 206.1 485.3 197.2 482.4 197.2 482.4 206.1"/>
        <polygon id="rect990" class="cls-9" points="498.5 206.1 501.3 206.1 501.3 197.2 498.5 197.2 498.5 206.1"/>
        <polygon id="rect992" class="cls-9" points="511 206.1 513.8 206.1 513.8 197.2 511 197.2 511 206.1"/>
        <circle id="path994" class="cls-23" cx="512.9" cy="54.3" r="12.5"/>
        <circle id="circle996" class="cls-23" cx="387.9" cy="54.3" r="12.5"/>
        <path id="rect836-7" class="cls-23" d="M434.2,102.5h5.4c5.4,0,9.8,4.4,9.8,9.8h0c0,5.4-4.4,9.8-9.8,9.8h-5.4c-5.4,0-9.8-4.4-9.8-9.8h0c0-5.4,4.4-9.8,9.8-9.8h0Z"/>
        <path id="rect836-6" class="cls-23" d="M461,102.5h5.4c5.4,0,9.8,4.4,9.8,9.8h0c0,5.4-4.4,9.8-9.8,9.8h-5.4c-5.4,0-9.8-4.4-9.8-9.8h0c0-5.4,4.4-9.8,9.8-9.8h0Z"/>
        <rect id="rect943" class="cls-23" x="482.4" y="102.5" width="18.5" height="25" transform="translate(-.9 4.1) rotate(-.5)"/>
        <path id="rect1026" class="cls-23" d="M406.1,102.4h10.1c2.3,0,4.2,1.9,4.2,4.2h0v18.3c0,2.3-1.9,4.2-4.2,4.2h-10.1c-2.3,0-4.2-1.9-4.2-4.2v-18.3c-.1-2.3,1.8-4.2,4.2-4.2h0Z"/>
        <circle id="path1028" class="cls-22" cx="411.1" cy="120.2" r="5.4"/>
        <path id="rect1030" class="cls-23" d="M400.3,112v5.4c.2,5.4-4.2,9.8-9.6,9.9h0c-5.4,0-9.8-4.3-9.9-9.7h0v-5.4c-.2-5.4,4.2-9.8,9.6-9.9h0c5.4,0,9.8,4.3,9.9,9.7h0Z"/>
        <circle id="circle105" class="cls-22" cx="390.5" cy="114.9" r="7.1"/>
        <path id="rect132" class="cls-2" d="M383.7,9.8h-2.9l2.5,19.6h0l3.2,25h2.9l-3.2-25.2h0l-2.5-19.4Z"/>
        <path id="rect134" class="cls-2" d="M517.1,9.7l-2.4,19.4h0l-3.2,25.2h2.9l3.1-25h0l2.5-19.6h-2.9Z"/>
        <polygon id="rect142" class="cls-2" points="398.1 9.8 398.1 12.6 381.3 12.7 381.3 9.8 398.1 9.8"/>
        <polygon id="rect144" class="cls-2" points="519.6 9.7 519.6 12.6 502.3 12.6 502.3 9.8 519.6 9.7"/>
        <path id="path129" class="cls-7" d="M406.4,0h0c-3.4.1-6.6,1.9-8.3,4.9-1.8,3-1.8,6.8,0,9.8,1.7,3,4.8,4.8,8.3,4.9h88.7-.3c3.3-.2,6.3-2,7.9-4.9,1.8-3,1.8-6.8,0-9.8-1.7-2.9-4.7-4.7-8-4.9h-88.3ZM494.7,0h.3-.3Z"/>
        <circle id="circle124" class="cls-22" cx="436.9" cy="112.4" r="7.1"/>
        <circle id="circle126" class="cls-22" cx="463.6" cy="112.4" r="7.1"/>
        <g id="text114">
          <g class="cls-8">
            <path class="cls-22" d="M526.2,157.4h.2c.1,0,0,.1,0,.1,0,0,0,.2,0,.3v1.1c0,.2,0,.3,0,.4q0,.1-.2.2l-7.2,5.3h7.3s0,.1,0,.2,0,.2,0,.3v1c0,.1,0,.2,0,.3,0,.1,0,.1,0,.2h-14.1s0-.1,0-.2,0-.2,0-.3v-1c0-.1,0-.2,0-.3,0-.1,0-.1,0-.2h6.6l-6.4-5.1c0,0,0-.1-.2-.2,0-.1,0-.1,0-.2s0-.2,0-.3v-1c0-.1,0-.2,0-.3,0-.1,0-.1,0-.1h0c0,0,.2,0,.3.1,0,0,.2.1.4.3l5.7,4.8,6.8-5.1c.2-.1.3-.2.4-.2s0-.1.2-.1Z"/>
          </g>
          <g class="cls-8">
            <path class="cls-22" d="M520.9,150.4h5.5s0,.1,0,.2,0,.2,0,.3v1c0,.1,0,.2,0,.3,0,.1,0,.1,0,.2h-5.5l-8.1,4.1c-.2.1-.3.1-.4.1s-.2,0-.2-.1c0-.1,0-.2,0-.3v-1.1c0-.1,0-.2,0-.3,0-.1,0-.1,0-.2,0,0,0-.1.2-.1l4.1-2c.4-.2.8-.4,1.2-.6.4-.2.9-.4,1.3-.6h0c-.4-.2-.8-.3-1.3-.5s-.8-.4-1.2-.5l-4.1-2c0,0,0-.1-.2-.1s0-.1,0-.2,0-.2,0-.3,0-.3,0-.5v-.6c0-.2,0-.3,0-.3,0,0,0-.1.2-.1s.2.1.4.1l8.1,4.1Z"/>
          </g>
          <g class="cls-8">
            <path class="cls-22" d="M520.9,140.9c.3,0,.5,0,.6.1s.2.2.2.3v4.6c0,.1,0,.2-.2.3s-.3.1-.6.1-.5,0-.6-.1-.2-.2-.2-.3v-4.8h0c0-.1,0-.2.2-.2.2.1.4,0,.5,0Z"/>
            <path class="cls-22" d="M519.3,129.5c1.1,0,2.1.1,3,.3s1.7.5,2.3.9,1.2.9,1.5,1.6c.4.6.5,1.5.5,2.4s-.2,1.7-.5,2.3-.8,1.1-1.4,1.5-1.4.6-2.3.8c-.9.2-2,.2-3.1.2s-2.1-.1-3-.3-1.7-.5-2.3-.9c-.7-.4-1.2-.9-1.5-1.6-.4-.6-.5-1.4-.5-2.4s.2-1.7.5-2.3.8-1.1,1.4-1.5,1.4-.6,2.3-.8c.9,0,1.9-.2,3.1-.2ZM519.4,131.4c-.7,0-1.4,0-1.9.1s-1.1.1-1.5.2c-.4.1-.8.2-1.1.4s-.6.3-.8.6c-.2.2-.3.5-.4.8,0,.3,0,.6,0,1,0,.6,0,1.1.4,1.5.3.4.7.7,1.2.9s1.1.4,1.8.5,1.4.1,2.2.1,2-.1,2.7-.2,1.4-.3,1.8-.5c.5-.2.8-.5,1-.9s.3-.8.3-1.4,0-.8-.2-1.1-.3-.6-.6-.8c-.2-.2-.5-.4-.9-.6s-.7-.3-1.2-.4-.9-.1-1.4-.2c-.2,0-.7,0-1.3,0Z"/>
            <path class="cls-22" d="M525.7,118.5h.4c.1,0,.2,0,.3,0,0,0,0,0,.2,0v8.4c0,0,0,0,0,.2q0,0-.3,0h-.8c0,0-.2,0-.3,0,0,0-.2,0-.3,0s-.2,0-.3-.2l-2.9-2.9c-.7-.7-1.3-1.2-1.8-1.6s-1-.7-1.5-.9c-.4-.2-.8-.4-1.2-.4-.4,0-.7,0-1,0s-.6,0-.9.2-.5.3-.7.5-.4.5-.5.8-.2.7-.2,1.1,0,.9.2,1.3c0,.4.3.7.4,1,0,.3.3.5.4.7,0,.2.2.3.2.4h0c0,0,0,.2,0,.2,0,0-.2,0-.3,0h-.9q0,0-.2,0t-.2-.2c0,0-.2-.2-.3-.5s-.3-.5-.4-.8c0-.3-.2-.7-.3-1.1s0-.8,0-1.2c0-.7,0-1.3.3-1.8s.5-1,.8-1.3.7-.6,1.2-.8c.5-.2.9-.3,1.4-.3s.9,0,1.4,0,.9.3,1.5.5c.5.3,1.1.6,1.8,1.1.6.5,1.4,1.2,2.2,2l2.4,2.3v-6.4c0,0,0,0,0,0,0,0,0,0,.2,0s0-.2.2-.2Z"/>
            <path class="cls-22" d="M521.9,107c.8,0,1.5,0,2,.4.6.3,1.1.6,1.5,1.1s.7,1,.9,1.7.3,1.4.3,2.2,0,.9,0,1.3,0,.8-.2,1.1c0,.3-.2.6-.3.8s-.2.3-.2.4h0c0,0,0,0-.2.2s0,0-.2,0h-.6c0,0-.2,0-.2,0,0,0,0,0,0,0h0c0-.2,0-.3,0-.4,0-.2.2-.4.3-.6,0-.3.2-.6.3-1s0-.8,0-1.4,0-.9-.2-1.4c0-.4-.3-.8-.6-1.1s-.6-.5-.9-.7-.8-.3-1.4-.3-.9,0-1.2.2c-.4,0-.6.4-.9.7s-.4.7-.5,1.1-.2,1-.2,1.6,0,.8,0,1.2c0,.3,0,.6,0,.9s0,.4,0,.4c0,0-.3,0-.6,0h-5.8c-.2,0-.4,0-.5-.2s-.2-.3-.2-.5v-6.5c0,0,0,0,0,0,0,0,.2,0,.3,0h.4c.3,0,.5,0,.6,0s.2.2.2.3v5.1h4c0-.2,0-.5,0-.8v-.9c0-.8,0-1.5.3-2.1s.5-1.1.8-1.5c.4-.4.8-.7,1.3-.9.5,0,1.1-.2,1.7-.2Z"/>
          </g>
        </g>
        <g id="text118">
          <g class="cls-8">
            <path class="cls-22" d="M409.6,387.1c.1.2.1.3.1.4s0,.2-.1.2c-.1.1-.2.1-.3.1h-1c-.1,0-.2,0-.3-.1-.1,0-.1-.1-.2-.1,0,0-.1-.1-.1-.2l-1.2-3.5h-6l-1.2,3.4c0,.1-.1.1-.1.2s-.1.1-.2.1-.2.1-.3.1h-1c-.1,0-.2-.1-.3-.1s-.1-.1-.1-.2,0-.2.1-.4l4.8-13.3c0-.1.1-.1.1-.2s.1-.1.2-.1.2,0,.4-.1h1.1c.2,0,.3,0,.4.1.1,0,.2.1.2.1,0,0,.1.1.1.2l4.9,13.4ZM403.4,375.4h0l-2.5,7.1h5l-2.5-7.1Z"/>
            <path class="cls-22" d="M420.8,380.6c0,1.1-.1,2.1-.3,3-.2.9-.5,1.7-.9,2.3s-.9,1.2-1.6,1.5c-.6.4-1.5.5-2.4.5s-1.7-.2-2.3-.5-1.1-.8-1.5-1.4-.6-1.4-.8-2.3c-.2-.9-.2-2-.2-3.1s.1-2.1.3-3c.2-.9.5-1.7.9-2.3s.9-1.2,1.6-1.5c.6-.4,1.4-.5,2.4-.5s1.7.2,2.3.5,1.1.8,1.5,1.4.6,1.4.8,2.3c.1.9.2,1.9.2,3.1ZM418.8,380.8c0-.7,0-1.4-.1-1.9s-.1-1.1-.2-1.5-.2-.8-.4-1.1c-.2-.3-.3-.6-.6-.8-.2-.2-.5-.4-.8-.4-.3-.1-.6-.1-1-.1-.6,0-1.1.1-1.5.4s-.7.7-.9,1.2c-.2.5-.4,1.1-.5,1.8-.1.7-.1,1.4-.1,2.2s.1,2,.2,2.7.3,1.4.5,1.8c.2.5.5.8.9,1s.8.3,1.4.3.8-.1,1.1-.2.6-.3.8-.6c.2-.2.4-.5.6-.9s.3-.7.4-1.2.1-.9.2-1.4v-1.3Z"/>
          </g>
        </g>
        <g id="text122">
          <g class="cls-8">
            <path class="cls-22" d="M442.2,375.5v.4c0,.1,0,.2-.1.3,0,.1-.1.1-.1.1h-.1c-.1,0-.2-.1-.4-.2-.2-.1-.5-.3-.8-.5s-.8-.3-1.2-.5c-.5-.1-1.1-.2-1.7-.2s-1.5.1-2.1.4-1.2.7-1.6,1.2-.8,1.1-1,1.8c-.2.7-.3,1.5-.3,2.3s.1,1.7.4,2.4c.3.7.6,1.3,1.1,1.8s1,.9,1.6,1.1c.6.3,1.3.4,2.1.4s.9-.1,1.3-.2c.5-.1.9-.3,1.3-.5v-4.2h-3.6c-.1,0-.2-.1-.3-.2-.1-.1-.1-.3-.1-.6v-.4c0-.1,0-.2.1-.2s.1-.1.1-.1h5.2q.1.2.2.3c.1.1.1.2.1.4v5.5c0,.2,0,.4-.1.5s-.2.3-.4.4c-.2.1-.5.2-.8.3-.3.1-.7.2-1.1.3-.4.1-.7.2-1.1.2s-.7.1-1.1.1c-1.1,0-2.1-.2-3-.5s-1.6-.8-2.2-1.5-1.1-1.4-1.4-2.3-.5-1.9-.5-3,.2-2.2.5-3.1.8-1.7,1.5-2.4c.6-.6,1.4-1.2,2.2-1.5s1.8-.5,2.9-.5,1.1,0,1.5.1c.5.1.9.2,1.3.3.4.1.7.3.9.4.3.2.4.3.5.4s.2.2.2.3c0,.4,0,.6,0,.9Z"/>
          </g>
        </g>
        <g id="text126">
          <g class="cls-8">
            <path class="cls-22" d="M469.4,382.8v.4c0,.1-.1.2-.1.2,0,.1-.1.1-.1.1h-3.8v4h0c0,.1-.1.2-.1.2-.1,0-.1.1-.2.1h-.8c-.1,0-.2,0-.3-.1-.1,0-.1-.1-.1-.1h0v-4.1h-4.2c0-.2-.1-.2-.1-.3v-.7c0,0,.1-.2.1-.2,0-.1.1-.1.1-.1h3.8v-4.2c0-.1.1-.1.1-.1.1,0,.1-.1.3-.1h.8c.1,0,.2,0,.2.1.1,0,.1.1.1.1v4.2h3.8c.1,0,.1.1.1.1,0,.1.1.1.1.2s.3.2.3.3Z"/>
          </g>
        </g>
        <g id="text130">
          <g class="cls-8">
            <path class="cls-22" d="M491.8,380.4c0,1.2-.2,2.3-.5,3.2-.3.9-.8,1.7-1.4,2.3-.6.6-1.4,1.1-2.2,1.4s-1.9.5-3.2.5h-3c-.2,0-.3-.1-.5-.2s-.2-.3-.2-.6v-12.8c0-.3.1-.5.2-.6s.3-.2.5-.2h3.2c1.2,0,2.3.2,3.1.5.9.3,1.6.8,2.2,1.4s1,1.3,1.3,2.2c.4.9.5,1.9.5,2.9ZM489.8,380.5c0-.8-.1-1.5-.3-2.2-.2-.7-.5-1.2-.9-1.7s-.9-.9-1.6-1.1c-.6-.3-1.4-.4-2.4-.4h-1.9v11.1h2c.9,0,1.7-.1,2.3-.3.6-.2,1.2-.6,1.6-1.1s.7-1.1.9-1.8c.2-.7.3-1.5.3-2.5Z"/>
            <path class="cls-22" d="M503.5,380.6c0,1.1-.1,2.1-.3,3-.2.9-.5,1.7-.9,2.3s-.9,1.2-1.6,1.5c-.6.4-1.5.5-2.4.5s-1.7-.2-2.3-.5-1.1-.8-1.5-1.4-.6-1.4-.8-2.3c-.2-.9-.2-2-.2-3.1s.1-2.1.3-3c.2-.9.5-1.7.9-2.3s.9-1.2,1.6-1.5c.6-.4,1.4-.5,2.4-.5s1.7.2,2.3.5,1.1.8,1.5,1.4.6,1.4.8,2.3c.2.9.2,1.9.2,3.1ZM501.6,380.8c0-.7,0-1.4-.1-1.9s-.1-1.1-.2-1.5-.2-.8-.4-1.1c-.2-.3-.3-.6-.6-.8-.2-.2-.5-.4-.8-.4-.3-.1-.6-.1-1-.1-.6,0-1.1.1-1.5.4s-.7.7-.9,1.2c-.2.5-.4,1.1-.5,1.8-.1.7-.1,1.4-.1,2.2s.1,2,.2,2.7.3,1.4.5,1.8c.2.5.5.8.9,1s.8.3,1.4.3.8-.1,1.1-.2.6-.3.8-.6c.2-.2.4-.5.6-.9s.3-.7.4-1.2.1-.9.2-1.4v-1.3Z"/>
          </g>
        </g>
      </g>
      <rect id="rect1707" class="cls-25" x="231.5" y="564.5" width="46.2" height="11.3"/>
      <circle id="circle281" class="cls-21" cx="231.8" cy="511.2" r="11.9"/>
      <circle id="circle281-2" class="cls-25" cx="231.5" cy="570.1" r="11.6"/>
      <rect id="rect1727" class="cls-21" x="231.5" y="505.5" width="210.4" height="11.3"/>
      <rect id="rect1727-4" class="cls-25" x="266.3" y="599.2" width="203.4" height="11.3"/>
      <rect id="rect1727-5" class="cls-25" x="266.3" y="564.5" width="11.3" height="46.1"/>
      <rect id="rect1727-9" class="cls-28" x="402.4" y="429" width="11.3" height="294.4"/>
      <rect id="rect1727-10" class="cls-21" x="430.6" y="429" width="11.3" height="87.8"/>
      <rect id="rect1727-11" class="cls-25" x="458.4" y="429" width="11.3" height="181.5"/>
      <rect id="rect1727-12" class="cls-29" x="486.2" y="429" width="11.3" height="499.3"/>
      <circle id="circle281-5" class="cls-29" cx="232.1" cy="922.7" r="11.6"/>
      <circle id="circle281-6" class="cls-29" cx="492" cy="429" r="11.6"/>
      <circle id="circle281-7" class="cls-25" cx="464.2" cy="429" r="11.6"/>
      <circle id="circle281-8" class="cls-21" cx="436.2" cy="429" r="11.6"/>
      <circle id="circle281-9" class="cls-28" cx="408.2" cy="429" r="11.6"/>
      <rect class="cls-29" x="232.1" y="917" width="265.4" height="11.3"/>
      <circle id="circle281-9-2" data-name="circle281-9" class="cls-28" cx="230.3" cy="716.8" r="11.6"/>
      <rect id="rect1727-9-2" data-name="rect1727-9" class="cls-28" x="227.8" y="712.1" width="185.9" height="11.3"/>
    </g>
  </g>
</svg>