<?xml version="1.0" encoding="utf-8"?>
<!-- Generator: Adobe Illustrator 27.8.0, SVG Export Plug-In . SVG Version: 6.00 Build 0)  -->
<svg version="1.1" id="svg8" xmlns="http://www.w3.org/2000/svg" xmlns:xlink="http://www.w3.org/1999/xlink" x="0px" y="0px"
	 viewBox="0 0 786 801.3" style="enable-background:new 0 0 786 801.3;" xml:space="preserve">
<style type="text/css">
	.st0{fill:#1A1919;}
	.st1{fill:#303030;}
	.st2{fill:#DDDDDD;}
	.st3{fill:#9A2442;}
	.st4{fill:#010103;}
	.st5{fill:#E3B37D;}
	.st6{fill:#F5B93E;}
	.st7{fill:#474949;}
	.st8{fill:#E0DCD3;}
	.st9{fill:#DBDED7;}
	.st10{fill:#A3928B;}
	.st11{fill:#E3AD51;}
	.st12{fill:#C4B3A8;}
	.st13{fill:#BCB3AD;}
	.st14{fill:#F53200;}
	.st15{fill:#FFFFFF;}
	.st16{fill:none;stroke:#493930;stroke-miterlimit:10;}
	.st17{fill:#493930;}
	.st18{fill:#2C2C2C;}
	.st19{fill:#BE8839;}
	.st20{fill:#655A50;}
	.st21{fill:#686868;}
	.st22{fill:#ADA390;}
	.st23{fill:#47494A;}
	.st24{fill:#EAEAEA;}
	.st25{fill:#36323E;}
	.st26{fill:#FCF7FD;}
	.st27{fill:#1A1A1A;}
	.st28{opacity:0.99;fill:#808080;enable-background:new    ;}
	.st29{fill:#CCCCCC;}
	.st30{fill:#0000FF;}
	.st31{fill:#AB9C38;}
	.st32{fill:#978521;}
	.st33{fill:#5B5B5B;}
	.st34{fill:#B5A642;}
	.st35{opacity:0.99;fill:#AFDDE9;enable-background:new    ;}
	.st36{enable-background:new    ;}
	.st37{fill:#008000;}
	.st38{fill:#E30613;}
	.st39{fill:#914F00;}
	.st40{fill:#00B589;}
</style>
<g>
	<path class="st0" d="M590,33.5H7.3c-4,0-7.3,3.2-7.3,7.3v719c0,4,3.2,7.3,7.3,7.3h17.6l34.2,34.2h365.2v0l34.1-34.1H590
		c4,0,7.3-3.2,7.3-7.3v-719C597.3,36.7,594,33.5,590,33.5z M28.2,207.9c-10,0-18.1-8.1-18.1-18.1s8.1-18.1,18.1-18.1
		s18.1,8.1,18.1,18.1S38.3,207.9,28.2,207.9z M88.2,789.7c-10,0-18.1-8.1-18.1-18.1s8.1-18.1,18.1-18.1c10,0,18.1,8.1,18.1,18.1
		S98.2,789.7,88.2,789.7z M401.3,789.7c-10,0-18.1-8.1-18.1-18.1s8.1-18.1,18.1-18.1c10,0,18.1,8.1,18.1,18.1
		S411.3,789.7,401.3,789.7z M569.5,219.3c-10,0-18.1-8.1-18.1-18.1c0-10,8.1-18.1,18.1-18.1s18.1,8.1,18.1,18.1
		C587.7,211.2,579.6,219.3,569.5,219.3z"/>
	<rect x="55.9" y="0.1" class="st1" width="101.7" height="143.5"/>
	<path class="st1" d="M141.4,159.8H72.1c-3.9,0-7.1-3.2-7.1-7.1v-9.1h83.7v9.1C148.6,156.7,145.4,159.8,141.4,159.8z"/>
	<path class="st2" d="M571.4,72.1H550v-4.6c0-0.8-0.6-1.4-1.4-1.4H528c-0.8,0-1.4,0.6-1.4,1.4v4.6h-21.4c-1,0-1.7,0.8-1.7,1.7v65.1
		c0,1,0.8,1.7,1.7,1.7h66.3c1,0,1.7-0.8,1.7-1.7V73.9C573.2,72.9,572.4,72.1,571.4,72.1z"/>
	<circle class="st3" cx="538.3" cy="103.4" r="19.2"/>
	<g>
		<circle class="st2" cx="148.6" cy="252.1" r="35.2"/>
		<path class="st4" d="M129.6,227.6c-8.1,5.1-13.5,14.2-13.5,24.5c0,10.3,5.4,19.4,13.5,24.5V227.6z"/>
	</g>
	<g>
		<circle class="st2" cx="174.1" cy="351.1" r="35.2"/>
		<path class="st4" d="M166.8,320.9c-9.5,1.4-18.1,7.5-22.3,16.9c-4.2,9.4-2.9,19.9,2.4,27.9L166.8,320.9z"/>
	</g>
	<rect x="278.6" y="113.9" class="st5" width="9.8" height="21.5"/>
	<rect x="362.3" y="157.7" class="st5" width="9.8" height="21.5"/>
	
		<rect x="451.6" y="231.8" transform="matrix(-1.836970e-16 1 -1 -1.836970e-16 698.9828 -213.9598)" class="st5" width="9.8" height="21.5"/>
	
		<rect x="451.6" y="172.3" transform="matrix(-1.836970e-16 1 -1 -1.836970e-16 639.5008 -273.4419)" class="st5" width="9.8" height="21.5"/>
	<rect x="327.1" y="260.7" class="st5" width="9.8" height="21.5"/>
	<rect x="396.6" y="358.1" class="st6" width="9.8" height="21.5"/>
	<rect x="423.5" y="358.1" class="st5" width="9.8" height="21.5"/>
	<rect x="449.8" y="358.1" class="st5" width="9.8" height="21.5"/>
	
		<rect x="329.9" y="645.6" transform="matrix(6.123234e-17 -1 1 6.123234e-17 -321.5402 991.2023)" class="st5" width="9.8" height="21.5"/>
	<rect x="387.3" y="663.9" class="st6" width="9.8" height="21.5"/>
	<path class="st7" d="M332.5,172.3h-28.4c-0.8,0-1.5-0.7-1.5-1.5v-11.6c0-0.8,0.7-1.5,1.5-1.5h28.4c0.8,0,1.5,0.7,1.5,1.5v11.6
		C334.1,171.6,333.4,172.3,332.5,172.3z"/>
	<g>
		<path class="st8" d="M304.9,145.4v12.2h11.5v-12.2c0-0.7-0.6-1.2-1.2-1.2h-9C305.5,144.2,304.9,144.8,304.9,145.4z"/>
		<path class="st8" d="M320.2,145.4v12.2h11.5v-12.2c0-0.7-0.6-1.2-1.2-1.2h-9C320.8,144.2,320.2,144.8,320.2,145.4z"/>
	</g>
	<g>
		<rect x="423.1" y="331" class="st9" width="10.7" height="17.2"/>
		<rect x="423.1" y="333.5" class="st7" width="10.7" height="11.8"/>
	</g>
	<g>
		<rect x="449.4" y="331" class="st9" width="10.7" height="17.2"/>
		<rect x="449.4" y="333.5" class="st7" width="10.7" height="11.8"/>
	</g>
	<g>
		
			<rect x="309.1" y="297.5" transform="matrix(6.123234e-17 -1 1 6.123234e-17 8.3195 620.5944)" class="st9" width="10.7" height="17.2"/>
		
			<rect x="309" y="300.2" transform="matrix(6.123234e-17 -1 1 6.123234e-17 8.1577 620.4325)" class="st7" width="10.7" height="11.8"/>
	</g>
	<g>
		
			<rect x="254.1" y="297.5" transform="matrix(6.123234e-17 -1 1 6.123234e-17 -46.738 565.5368)" class="st9" width="10.7" height="17.2"/>
		
			<rect x="253.9" y="300.2" transform="matrix(6.123234e-17 -1 1 6.123234e-17 -46.8999 565.3749)" class="st7" width="10.7" height="11.8"/>
	</g>
	<g>
		<rect x="387.3" y="633.6" class="st9" width="10.7" height="17.2"/>
		<rect x="387.3" y="636.1" class="st7" width="10.7" height="11.8"/>
	</g>
	<g>
		
			<rect x="329.5" y="667.8" transform="matrix(6.123234e-17 -1 1 6.123234e-17 -341.5474 1011.2095)" class="st9" width="10.7" height="17.2"/>
		
			<rect x="329.3" y="670.5" transform="matrix(6.123234e-17 -1 1 6.123234e-17 -341.7092 1011.0476)" class="st7" width="10.7" height="11.8"/>
	</g>
	<g>
		<rect x="478" y="80.8" class="st9" width="10.7" height="17.2"/>
		<rect x="478" y="83.3" class="st7" width="10.7" height="11.8"/>
	</g>
	<g>
		<rect x="338.4" y="81.8" class="st9" width="10.7" height="17.2"/>
		<rect x="338.4" y="84.4" class="st7" width="10.7" height="11.8"/>
	</g>
	<path class="st10" d="M450.3,227.8h-4.8c-2,0-3.7-1.7-3.7-3.7v-25.4c0-2,1.7-3.7,3.7-3.7h4.8c2,0,3.7,1.7,3.7,3.7v25.4
		C454,226.2,452.4,227.8,450.3,227.8z"/>
	<g>
		<path class="st11" d="M381.5,467.2l11.7-11.7c1.1-1.1,1.1-2.9,0-4l-8.6-8.6c-1.1-1.1-2.9-1.1-4,0l-11.7,11.7c-1.1,1.1-1.1,2.9,0,4
			l8.6,8.6C378.6,468.3,380.4,468.3,381.5,467.2z"/>
		<path class="st12" d="M381.6,466.1l10.5-10.5c1.1-1.1,1.1-2.9,0-4l-7.6-7.6c-1.1-1.1-2.9-1.1-4,0L370,454.5c-1.1,1.1-1.1,2.9,0,4
			l7.6,7.6C378.7,467.2,380.5,467.2,381.6,466.1z"/>
	</g>
	<rect x="374.8" y="422" class="st13" width="12.2" height="11"/>
	<rect x="394.4" y="422" class="st13" width="12.2" height="11"/>
	<rect x="374.8" y="474.9" class="st13" width="12.2" height="11"/>
	<rect x="394.4" y="474.9" class="st13" width="12.2" height="11"/>
	<path class="st14" d="M344.2,709.3h-15.2c-1.6,0-2.8-1.3-2.8-2.8v-5.3c0-1.6,1.3-2.8,2.8-2.8h15.2c1.6,0,2.8,1.3,2.8,2.8v5.3
		C347.1,708,345.8,709.3,344.2,709.3z"/>
	<g>
		<path class="st15" d="M31.2,68.4v-4.5h2.1V71h-1.5c-2.9-2.4-4.8-2.7-8.9-2.8v-2.5C26.3,65.9,28.5,66.4,31.2,68.4z"/>
		<path class="st15" d="M27.8,72.4v4H26v-4H27.8z"/>
		<path class="st15" d="M24.9,78.1v2.2h5.9v-1.9h1.5c0.2,1.1,0.5,1.8,0.9,2.6v1.8h-8.4v1.9h-2v-6.6H24.9z"/>
		<path class="st15" d="M24.4,86.1c2.3,2.7,4.2,4.4,5.6,4.4c1,0,1.5-0.5,1.5-1.4c0-0.7-0.5-1.3-1-1.8l1.3-1.3c1.1,1,1.7,1.9,1.7,3.4
			c0,2-1.3,3.4-3.3,3.4c-1.9,0-3.8-1.7-5.4-3.3c0,0.5,0.1,1.2,0.1,1.7v2.1h-2.1v-7.2H24.4z"/>
		<path class="st15" d="M33.3,93.9v2.6l-4.8,1.1c-1.1,0.3-2.2,0.5-3.3,0.8v0.1c1.1,0.3,2.2,0.5,3.3,0.8l4.8,1.2v2.5L22.8,100v-3
			L33.3,93.9z"/>
		<path class="st15" d="M33.3,107.4v2.5H22.8v-2.5H33.3z"/>
		<path class="st15" d="M33.3,112.3v2.6l-5,2.6c-0.7,0.4-1.5,0.7-2.4,1v0.1c1.1-0.1,2.6-0.3,3.8-0.3h3.5v2.4H22.8V118l5-2.6
			c0.7-0.4,1.5-0.7,2.4-1v-0.1c-1.2,0.1-2.6,0.3-3.8,0.3h-3.5v-2.4H33.3z"/>
		<path class="st15" d="M33.3,123v3.7c0,2.3-0.8,4.2-3.4,4.2c-2.5,0-3.6-1.9-3.6-4.1v-1.2h-3.5V123H33.3z M28.3,126.6
			c0,1.2,0.6,1.8,1.6,1.8c1,0,1.4-0.7,1.4-1.9v-1h-3V126.6z"/>
		<path class="st15" d="M27.7,132.5h5.5v2.5h-5.8c-2,0-2.7,0.6-2.7,1.7c0,1.2,0.7,1.8,2.7,1.8h5.8v2.4h-5.5c-3.5,0-5.1-1.4-5.1-4.2
			S24.2,132.5,27.7,132.5z"/>
		<path class="st15" d="M31.2,145.3v-2.8h2.1v8.1h-2.1v-2.8h-8.3v-2.5H31.2z"/>
	</g>
	<g>
		<path class="st15" d="M588.6,81.9v3.8c0,2.2-0.8,4.1-3.3,4.1c-1.5,0-2.5-0.7-3-1.8l-4.1,2.3v-2.8l3.7-1.9v-1.2h-3.7v-2.5H588.6z
			 M583.9,85.6c0,1.2,0.5,1.8,1.5,1.8s1.3-0.6,1.3-1.8v-1.1h-2.8V85.6z"/>
		<path class="st15" d="M588.6,91.8v6.6h-2.1v-4.1h-2v3.5h-2.1v-3.5h-2.2v4.3h-2.1v-6.8H588.6z"/>
		<path class="st15" d="M579.5,100l1.6,1.3c-0.6,0.7-1,1.7-1,2.6c0,0.9,0.4,1.4,0.9,1.4c0.6,0,0.8-0.6,1.2-1.5l0.6-1.3
			c0.4-1.1,1.3-2.1,2.8-2.1c1.7,0,3.2,1.6,3.2,3.8c0,1.2-0.5,2.5-1.3,3.4l-1.6-1.3c0.5-0.7,0.8-1.4,0.8-2.1c0-0.8-0.3-1.3-0.8-1.3
			c-0.6,0-0.8,0.7-1.2,1.6l-0.5,1.3c-0.5,1.3-1.4,2.1-2.8,2.1c-1.7,0-3.3-1.5-3.3-4C578,102.5,578.5,101.1,579.5,100z"/>
		<path class="st15" d="M588.6,109.6v6.6h-2.1v-4.1h-2v3.5h-2.1v-3.5h-2.2v4.3h-2.1v-6.8H588.6z"/>
		<path class="st15" d="M586.6,120.4v-2.8h2.1v8.1h-2.1v-2.8h-8.3v-2.5H586.6z"/>
	</g>
	<g>
		<path class="st15" d="M371.7,742.7v2.5h-10.4v-2.5H371.7z"/>
		<path class="st15" d="M366.4,747.1c3.5,0,5.5,2.3,5.5,5c0,1.4-0.6,2.4-1.4,3.2l-1.5-1.3c0.5-0.5,0.7-1.1,0.7-1.8
			c0-1.4-1.2-2.5-3.2-2.5c-2.1,0-3.3,1-3.3,2.4c0,0.8,0.3,1.5,0.9,2l-1.5,1.3c-1-0.9-1.5-2.1-1.5-3.4
			C361.1,749.3,362.9,747.1,366.4,747.1z"/>
		<path class="st15" d="M362.6,755.8l1.6,1.3c-0.6,0.7-1,1.7-1,2.6c0,0.9,0.4,1.4,0.9,1.4c0.6,0,0.8-0.6,1.2-1.5l0.6-1.3
			c0.4-1.1,1.3-2.1,2.8-2.1c1.7,0,3.2,1.6,3.2,3.8c0,1.2-0.5,2.5-1.3,3.4L369,762c0.5-0.7,0.8-1.4,0.8-2.1c0-0.8-0.3-1.3-0.8-1.3
			c-0.6,0-0.8,0.7-1.2,1.6l-0.5,1.3c-0.5,1.3-1.4,2.1-2.8,2.1c-1.7,0-3.3-1.5-3.3-4C361.1,758.2,361.6,756.9,362.6,755.8z"/>
		<path class="st15" d="M371.7,765.3v3.7c0,2.3-0.8,4.2-3.4,4.2c-2.5,0-3.6-1.9-3.6-4.1v-1.2h-3.5v-2.5H371.7z M366.7,768.9
			c0,1.2,0.6,1.8,1.6,1.8c1,0,1.4-0.7,1.4-1.9v-1h-3V768.9z"/>
	</g>
	<g>
		<path class="st15" d="M388.7,694.6c-1.2,1-2,2.5-2,4.2c0,3,2.5,5.5,5.5,5.5c3,0,5.5-2.5,5.5-5.5c0-1.7-0.8-3.2-2-4.2
			c-0.4-0.4-0.5-1-0.1-1.4c0.4-0.4,1-0.5,1.4-0.1c1.6,1.4,2.7,3.5,2.7,5.8c0,4.1-3.4,7.5-7.5,7.5s-7.5-3.4-7.5-7.5
			c0-2.3,1.1-4.4,2.7-5.8c0.4-0.4,1.1-0.3,1.4,0.1S389.1,694.2,388.7,694.6L388.7,694.6z M393.2,698.8c0,0.6-0.4,1-1,1
			c-0.6,0-1-0.4-1-1v-7c0-0.6,0.4-1,1-1c0.6,0,1,0.4,1,1V698.8z"/>
	</g>
	<polyline class="st16" points="36,226 42.7,226 105.3,288.6 116.1,288.6 	"/>
	<polyline class="st16" points="35.8,234.1 42.7,234.1 102.8,294.2 102.8,425.9 159.6,482.7 212.3,482.7 224.6,470.3 263.5,470.3 	
		"/>
	<polyline class="st16" points="33.3,261.5 44.7,261.5 86.8,303.7 86.8,426.7 156.7,496.5 268.4,496.5 	"/>
	<polyline class="st16" points="22.9,347.1 61.9,386 61.9,450 33.2,478.7 	"/>
	<line class="st17" x1="76" y1="428.8" x2="151.9" y2="504.6"/>
	<polyline class="st16" points="131.3,496.1 88.6,538.9 24.5,538.9 	"/>
	<polyline class="st16" points="131.3,506.7 91.3,546.8 26,546.8 	"/>
	<polyline class="st16" points="267.4,505.2 234.8,505.2 159.2,580.8 78.7,580.8 56,603.5 31.2,603.5 	"/>
	<polyline class="st16" points="249.4,514.3 249.4,560.7 179.6,630.5 30.5,630.5 	"/>
	<polyline class="st16" points="264.8,534.3 264.8,570.6 176.2,659 31.2,659 	"/>
	<polyline class="st16" points="273.6,534 273.6,573.3 158.8,688.1 24.5,688.1 	"/>
	<polyline class="st16" points="282.5,534.9 282.5,580.5 147.4,715.7 30.5,715.7 	"/>
	<polyline class="st16" points="291.1,538.9 291.1,588.4 134.7,744.7 30.5,744.7 	"/>
	<line class="st17" x1="328.7" y1="623.9" x2="292.1" y2="587.3"/>
	<polyline class="st16" points="331.1,640.2 305.9,615 280.1,615 	"/>
	<polyline class="st16" points="344.4,648 344.4,589.2 299.8,544.6 299.8,525.2 	"/>
	<polyline class="st16" points="278.5,762.8 262.1,746.4 262.1,681.7 287.4,656.4 	"/>
	<polyline class="st16" points="308.2,533.5 308.2,544.4 361.7,597.9 401.5,597.9 506.8,703.3 506.8,732.4 518.6,744.2 563.7,744.2 
			"/>
	<polyline class="st16" points="317.1,534.6 317.1,545.5 359.4,587.8 421.4,587.8 568.6,735 	"/>
	<polyline class="st16" points="327.1,534.2 367.9,575 433.5,575 573.9,715.4 	"/>
	<polyline class="st16" points="345.8,513.5 400.2,513.5 571.2,684.6 	"/>
	<polyline class="st16" points="347.1,505.2 407.3,505.2 573.5,671.5 	"/>
	<polyline class="st16" points="496,525 489.1,518.1 443.1,518.1 	"/>
	<polyline class="st16" points="347.1,461.6 358.2,461.6 367,470.5 377.7,470.5 	"/>
	<polyline class="st16" points="346.9,452.7 356.8,452.7 367.4,442.1 380.6,442.1 	"/>
	<polyline class="st16" points="325.4,429.2 341.8,412.7 411.8,412.7 566.8,567.8 	"/>
	<polyline class="st16" points="317,430.9 317,426.4 336.5,406.9 414.7,406.9 575.1,567.2 	"/>
	<polyline class="st16" points="308.2,430.9 308.2,422.5 328.5,402.2 418.5,402.2 574.8,558.6 	"/>
	<polyline class="st16" points="299.7,429.3 299.7,421.1 323.5,397.3 418.8,397.3 576.4,554.8 	"/>
	<polyline class="st16" points="291.1,428.8 291.1,416.9 316,392 420,392 580.5,552.4 	"/>
	<polyline class="st16" points="282.2,430.5 282.2,408.8 303.4,388.7 425,388.7 480.1,443.8 580.5,443.8 	"/>
	<polyline class="st16" points="273.5,428.6 273.5,405.3 297.3,383.4 426.8,383.4 458.1,414.7 579.1,414.7 	"/>
	<polyline class="st16" points="264.8,428.2 264.8,404.2 286.8,382.1 290.2,378.8 	"/>
	<polyline class="st16" points="221.2,446.2 221.2,417.2 289.5,348.9 315.4,348.9 322.4,355.8 372.2,355.8 399.6,328.5 426.8,328.5 
			"/>
	<polyline class="st16" points="210.3,343.4 314.3,343.4 335.1,322.6 354.3,322.6 	"/>
	<polyline class="st16" points="286.6,272.8 286.6,283.5 277.6,292.5 260.2,292.5 247.6,279.9 247.6,270.7 247.6,245.6 	"/>
	<polyline class="st16" points="226.8,214.9 226.8,206.6 232.3,201.1 249.3,201.1 	"/>
	<polyline class="st16" points="191.2,192.6 237.4,192.6 258,172 258,150.2 	"/>
	<polyline class="st16" points="319.2,179 333,179 341.6,170.4 341.6,137.8 313.6,109.8 297.9,109.8 276,87.9 	"/>
	<polyline class="st16" points="285.9,84.4 299.7,98.2 311.3,98.2 	"/>
	<polyline class="st16" points="323.2,81.8 323.2,102.1 344.4,123.3 379.9,123.3 384.6,118.6 384.6,89.4 	"/>
	<path class="st16" d="M402.5,199.4c0-0.5,0-48.4,0-48.4"/>
	<path class="st16" d="M418.1,150.9c0,1,0,22,0,22"/>
	<polyline class="st16" points="415.6,206.6 428,206.6 440,194.7 	"/>
	<polyline class="st16" points="415.5,220.3 428.4,220.3 440.5,232.5 	"/>
	<line class="st16" x1="416" y1="261.5" x2="439.6" y2="261.5"/>
	<line class="st16" x1="413.8" y1="275.6" x2="441.9" y2="275.6"/>
	<polyline class="st16" points="415.5,289 426.8,289 441.9,289 	"/>
	<line class="st16" x1="562.9" y1="151.8" x2="530.4" y2="184.3"/>
	<g>
		<path class="st7" d="M327.3,521.3h-64.2c-3.2,0-5.9-2.6-5.9-5.9v-64.2c0-3.2,2.6-5.9,5.9-5.9h64.2c3.2,0,5.9,2.6,5.9,5.9v64.2
			C333.2,518.7,330.6,521.3,327.3,521.3z"/>
		<circle class="st18" cx="322.3" cy="509.5" r="4.8"/>
		<g>
			<path class="st8" d="M240.3,455.9h16.9V450h-16.9c-0.7,0-1.2,0.6-1.2,1.2v3.4C239.1,455.3,239.6,455.9,240.3,455.9z"/>
			<path class="st8" d="M240.3,464.6h16.9v-5.9h-16.9c-0.7,0-1.2,0.6-1.2,1.2v3.4C239.1,464,239.6,464.6,240.3,464.6z"/>
			<path class="st8" d="M240.3,473.2h16.9v-5.9h-16.9c-0.7,0-1.2,0.6-1.2,1.2v3.4C239.1,472.7,239.6,473.2,240.3,473.2z"/>
			<path class="st8" d="M240.3,481.9h16.9v-5.9h-16.9c-0.7,0-1.2,0.6-1.2,1.2v3.4C239.1,481.4,239.6,481.9,240.3,481.9z"/>
			<path class="st8" d="M240.3,490.6h16.9v-5.9h-16.9c-0.7,0-1.2,0.6-1.2,1.2v3.4C239.1,490.1,239.6,490.6,240.3,490.6z"/>
			<path class="st8" d="M240.3,499.3h16.9v-5.9h-16.9c-0.7,0-1.2,0.6-1.2,1.2v3.4C239.1,498.8,239.6,499.3,240.3,499.3z"/>
			<path class="st8" d="M240.3,508h16.9v-5.9h-16.9c-0.7,0-1.2,0.6-1.2,1.2v3.4C239.1,507.5,239.6,508,240.3,508z"/>
			<path class="st8" d="M240.3,516.7h16.9v-5.9h-16.9c-0.7,0-1.2,0.6-1.2,1.2v3.4C239.1,516.2,239.6,516.7,240.3,516.7z"/>
		</g>
		<g>
			<path class="st8" d="M322.7,428.5v16.9h5.9v-16.9c0-0.7-0.6-1.2-1.2-1.2h-3.4C323.3,427.2,322.7,427.8,322.7,428.5z"/>
			<path class="st8" d="M314,428.5v16.9h5.9v-16.9c0-0.7-0.6-1.2-1.2-1.2h-3.4C314.6,427.2,314,427.8,314,428.5z"/>
			<path class="st8" d="M305.3,428.5v16.9h5.9v-16.9c0-0.7-0.6-1.2-1.2-1.2h-3.4C305.9,427.2,305.3,427.8,305.3,428.5z"/>
			<path class="st8" d="M296.6,428.5v16.9h5.9v-16.9c0-0.7-0.6-1.2-1.2-1.2h-3.4C297.2,427.2,296.6,427.8,296.6,428.5z"/>
			<path class="st8" d="M287.9,428.5v16.9h5.9v-16.9c0-0.7-0.6-1.2-1.2-1.2h-3.4C288.5,427.2,287.9,427.8,287.9,428.5z"/>
			<path class="st8" d="M279.2,428.5v16.9h5.9v-16.9c0-0.7-0.6-1.2-1.2-1.2h-3.4C279.8,427.2,279.2,427.8,279.2,428.5z"/>
			<path class="st8" d="M270.5,428.5v16.9h5.9v-16.9c0-0.7-0.6-1.2-1.2-1.2h-3.4C271.1,427.2,270.5,427.8,270.5,428.5z"/>
			<path class="st8" d="M261.8,428.5v16.9h5.9v-16.9c0-0.7-0.6-1.2-1.2-1.2h-3.4C262.4,427.2,261.8,427.8,261.8,428.5z"/>
		</g>
		<g>
			<path class="st8" d="M267.7,538.2v-16.9h-5.9v16.9c0,0.7,0.6,1.2,1.2,1.2h3.4C267.2,539.5,267.7,538.9,267.7,538.2z"/>
			<path class="st8" d="M276.4,538.2v-16.9h-5.9v16.9c0,0.7,0.6,1.2,1.2,1.2h3.4C275.9,539.5,276.4,538.9,276.4,538.2z"/>
			<path class="st8" d="M285.1,538.2v-16.9h-5.9l0,16.9c0,0.7,0.6,1.2,1.2,1.2h3.4C284.5,539.5,285.1,538.9,285.1,538.2z"/>
			<path class="st8" d="M293.8,538.2v-16.9h-5.9v16.9c0,0.7,0.6,1.2,1.2,1.2h3.4C293.2,539.5,293.8,538.9,293.8,538.2z"/>
			<path class="st8" d="M302.5,538.2l0-16.9h-5.9v16.9c0,0.7,0.6,1.2,1.2,1.2h3.4C301.9,539.5,302.5,538.9,302.5,538.2z"/>
			<path class="st8" d="M311.2,538.2v-16.9h-5.9v16.9c0,0.7,0.6,1.2,1.2,1.2h3.4C310.6,539.5,311.2,538.9,311.2,538.2z"/>
			<path class="st8" d="M319.9,538.2v-16.9H314v16.9c0,0.7,0.6,1.2,1.2,1.2h3.4C319.3,539.5,319.9,538.9,319.9,538.2z"/>
			<path class="st8" d="M328.6,538.2v-16.9h-5.9v16.9c0,0.7,0.6,1.2,1.2,1.2h3.4C328,539.5,328.6,538.9,328.6,538.2z"/>
		</g>
		<g>
			<path class="st8" d="M350.1,510.6h-16.9v5.9h16.9c0.7,0,1.2-0.6,1.2-1.2v-3.4C351.3,511.1,350.8,510.6,350.1,510.6z"/>
			<path class="st8" d="M350.1,501.9h-16.9v5.9h16.9c0.7,0,1.2-0.6,1.2-1.2v-3.4C351.3,502.4,350.8,501.9,350.1,501.9z"/>
			<path class="st8" d="M350.1,493.2h-16.9v5.9h16.9c0.7,0,1.2-0.6,1.2-1.2v-3.4C351.3,493.7,350.8,493.2,350.1,493.2z"/>
			<path class="st8" d="M350.1,484.5h-16.9v5.9h16.9c0.7,0,1.2-0.6,1.2-1.2v-3.4C351.3,485,350.8,484.5,350.1,484.5z"/>
			<path class="st8" d="M350.1,475.8h-16.9v5.9h16.9c0.7,0,1.2-0.6,1.2-1.2V477C351.3,476.3,350.8,475.8,350.1,475.8z"/>
			<path class="st8" d="M350.1,467.1h-16.9v5.9h16.9c0.7,0,1.2-0.6,1.2-1.2v-3.4C351.3,467.7,350.8,467.1,350.1,467.1z"/>
			<path class="st8" d="M350.1,458.4h-16.9v5.9h16.9c0.7,0,1.2-0.6,1.2-1.2v-3.4C351.3,459,350.8,458.4,350.1,458.4z"/>
			<path class="st8" d="M350.1,449.7h-16.9v5.9h16.9c0.7,0,1.2-0.6,1.2-1.2V451C351.3,450.3,350.8,449.7,350.1,449.7z"/>
		</g>
	</g>
	<path class="st15" d="M247,608.6v7.2c0,1.3,0,2.5-0.1,3.5c0,0.8-0.2,1.6-0.4,2.4c-0.2,0.7-0.5,1.3-0.8,1.9c-0.5,0.7-1,1.4-1.6,2
		c-0.6,0.7-1.5,1.2-2.5,1.6c-1.1,0.3-2.3,0.5-3.7,0.5h-6v-7.4h3.7c0.5,0,0.9-0.1,1.4-0.2c0.3-0.1,0.6-0.3,0.9-0.6
		c0.2-0.3,0.4-0.7,0.5-1.1c0.1-0.6,0.2-1.2,0.2-1.7v-7.9H247z M232.6,631.9h95v3.1h-95V631.9z M247,596.6v7.4h-8.5v-7.4H247z
		 M267.3,596c1.1,0,2.3,0.1,3.4,0.3c1,0.2,2.1,0.5,3.1,0.9c1,0.4,1.9,0.9,2.7,1.4c0.9,0.6,1.7,1.2,2.4,2c0.7,0.7,1.4,1.6,1.9,2.4
		c0.6,0.9,1,1.8,1.4,2.7c0.4,1,0.7,2,0.8,3.1c0.2,1.1,0.3,2.3,0.3,3.4c0,1.1-0.1,2.2-0.3,3.3c-0.2,1-0.5,2-0.8,3
		c-0.4,0.9-0.8,1.9-1.4,2.7c-0.6,0.9-1.2,1.7-1.9,2.4c-0.7,0.7-1.5,1.4-2.4,2c-0.8,0.6-1.7,1-2.7,1.4c-1,0.4-2,0.7-3,0.9
		c-1.1,0.2-2.2,0.3-3.3,0.3c-1.1,0-2.3-0.1-3.4-0.3c-1-0.2-2.1-0.5-3.1-0.8c-1-0.4-1.9-0.8-2.7-1.4c-1.7-1.1-3.2-2.6-4.4-4.4
		c-0.6-0.9-1-1.8-1.4-2.7c-0.4-1-0.7-2-0.9-3c-0.4-2.2-0.4-4.5,0-6.7c0.2-1,0.5-2.1,0.9-3c0.4-1,0.8-1.9,1.4-2.7
		c0.6-0.9,1.2-1.7,2-2.5c0.7-0.8,1.5-1.4,2.4-2c0.8-0.6,1.7-1.1,2.7-1.4c1-0.4,2-0.7,3-0.9C265.1,596.1,266.2,596,267.3,596
		L267.3,596z M267.3,603.2c-1,0-2,0.2-3,0.6c-0.9,0.4-1.6,1-2.2,1.8c-0.6,0.8-1.1,1.8-1.4,2.8c-0.3,1.1-0.5,2.3-0.5,3.7
		c0,1.3,0.1,2.5,0.5,3.8c0.3,1,0.8,2,1.4,2.9c0.6,0.8,1.4,1.4,2.3,1.8c0.9,0.4,1.9,0.6,3,0.6c1,0,2-0.2,3-0.6c0.9-0.4,1.6-1,2.2-1.8
		c0.6-0.9,1.1-1.8,1.4-2.8c0.3-1.1,0.5-2.4,0.5-3.8c0-1.2-0.1-2.5-0.5-3.7c-0.3-1-0.8-2-1.4-2.8c-0.6-0.8-1.4-1.4-2.3-1.8
		C269.4,603.4,268.4,603.2,267.3,603.2L267.3,603.2z M286.8,596.6h8.5v7.7c0,1.6,0.3,2.8,0.9,3.6c0.6,0.8,1.6,1.2,2.8,1.2
		c1.3,0,2.3-0.4,2.9-1.3s1-2.1,1-3.8v-7.4h8.4v5.4c0,1.3-0.1,2.5-0.2,3.6c-0.1,0.9-0.2,1.8-0.5,2.7c-0.3,0.9-0.6,1.7-1.1,2.5
		c-0.6,1-1.3,1.9-2,2.7c-0.4,0.5-0.9,0.9-1.5,1.3c-0.6,0.4-1.2,0.7-1.9,0.9c-0.8,0.3-1.6,0.4-2.4,0.5c-0.9,0.1-1.9,0.2-2.8,0.2
		c-0.9,0-1.8-0.1-2.7-0.2c-0.8-0.1-1.5-0.3-2.3-0.5c-0.7-0.2-1.3-0.5-1.9-0.9c-0.5-0.3-1-0.7-1.5-1.2c-0.8-0.8-1.5-1.7-2.1-2.6
		c-0.5-0.7-0.9-1.5-1.2-2.4c-0.3-0.9-0.4-1.8-0.5-2.7c-0.1-1.1-0.2-2.3-0.2-3.4L286.8,596.6z M306,620.2v7.4h-14.2v-7.4H306z
		 M310,589.8h56.8v2.9H310V589.8z M313.7,610.1H332v7.3h-18.3V610.1z M343.7,596.6v7.4h-8.5v-7.4H343.7z M343.7,608.6v19.1h-8.5
		v-19.1H343.7z M368.2,596.6v7.4h-19.9v-7.4H368.2z M349.7,608.6h8.4v7.7c0,0.7,0,1.3,0.2,2c0.1,0.5,0.3,0.9,0.5,1.2
		c0.2,0.2,0.6,0.4,1.1,0.6c0.6,0.1,1.2,0.2,1.8,0.2h5.5v7.4h-7.9c-0.8,0-1.6-0.1-2.3-0.2c-0.7-0.1-1.4-0.3-2-0.5
		c-0.6-0.2-1.1-0.5-1.7-0.8c-0.5-0.3-0.9-0.7-1.3-1.1c-0.4-0.4-0.7-0.9-1-1.5c-0.3-0.6-0.5-1.2-0.7-1.9c-0.2-0.8-0.3-1.5-0.4-2.3
		c-0.1-0.9-0.1-1.8-0.1-2.7L349.7,608.6z"/>
	
		<rect x="208.9" y="437.1" transform="matrix(6.123234e-17 -1 1 6.123234e-17 -234.033 661.6231)" class="st5" width="9.8" height="21.5"/>
	<rect x="349.4" y="320.8" class="st5" width="9.8" height="21.5"/>
	<g>
		<path class="st7" d="M316,263.5h-45.5c-1.4,0-2.5-1.1-2.5-2.5v-34.3c0-1.4,1.1-2.5,2.5-2.5H316c1.4,0,2.5,1.1,2.5,2.5V261
			C318.5,262.4,317.4,263.5,316,263.5z"/>
		<circle class="st18" cx="272.2" cy="255.5" r="2.7"/>
		<g>
			<path class="st8" d="M276.4,275.7v-12.2h-6.1v12.2c0,0.7,0.6,1.2,1.2,1.2h3.6C275.8,277,276.4,276.4,276.4,275.7z"/>
			<path class="st8" d="M289.7,275.7v-12.2h-6.1v12.2c0,0.7,0.6,1.2,1.2,1.2h3.6C289.1,277,289.7,276.4,289.7,275.7z"/>
			<path class="st8" d="M303,275.7v-12.2h-6.1v12.2c0,0.7,0.6,1.2,1.2,1.2h3.6C302.4,277,303,276.4,303,275.7z"/>
			<path class="st8" d="M316.2,275.7v-12.2h-6.1v12.2c0,0.7,0.6,1.2,1.2,1.2h3.6C315.7,277,316.2,276.4,316.2,275.7z"/>
		</g>
		<g>
			<path class="st8" d="M310.2,212v12.2h6.1V212c0-0.7-0.6-1.2-1.2-1.2h-3.6C310.7,210.8,310.2,211.3,310.2,212z"/>
			<path class="st8" d="M296.9,212v12.2h6.1l0-12.2c0-0.7-0.6-1.2-1.2-1.2h-3.6C297.4,210.8,296.9,211.3,296.9,212z"/>
			<path class="st8" d="M283.6,212v12.2h6.1V212c0-0.7-0.6-1.2-1.2-1.2h-3.6C284.1,210.8,283.6,211.3,283.6,212z"/>
			<path class="st8" d="M270.3,212v12.2l6.1,0V212c0-0.7-0.6-1.2-1.2-1.2h-3.6C270.8,210.8,270.3,211.3,270.3,212z"/>
		</g>
	</g>
	<g>
		<g>
			<path class="st8" d="M232.4,252.1v-12.2h-9.6v12.2c0,0.7,0.6,1.2,1.2,1.2h7.1C231.8,253.3,232.4,252.7,232.4,252.1z"/>
			<path class="st8" d="M252,252.1v-12.2h-9.6v12.2c0,0.7,0.6,1.2,1.2,1.2h7.1C251.5,253.3,252,252.7,252,252.1z"/>
		</g>
		<g>
			<path class="st8" d="M223.8,211.3v12.2h6.1v-12.2c0-0.7-0.6-1.2-1.2-1.2h-3.6C224.4,210.1,223.8,210.6,223.8,211.3z"/>
			<path class="st8" d="M234.3,211.3v12.2h6.1v-12.2c0-0.7-0.6-1.2-1.2-1.2h-3.6C234.9,210.1,234.3,210.6,234.3,211.3z"/>
			<path class="st8" d="M244.8,211.3v12.2h6.1v-12.2c0-0.7-0.6-1.2-1.2-1.2h-3.6C245.4,210.1,244.8,210.6,244.8,211.3z"/>
		</g>
		<path class="st7" d="M251.9,239.8h-29c-0.4,0-0.7-0.3-0.7-0.7v-14.8c0-0.4,0.3-0.7,0.7-0.7h29c0.4,0,0.7,0.3,0.7,0.7v14.8
			C252.6,239.5,252.3,239.8,251.9,239.8z"/>
	</g>
	
		<rect x="233.6" y="259.9" transform="matrix(6.123234e-17 -1 1 6.123234e-17 -32.1157 509.2166)" class="st5" width="9.8" height="21.5"/>
	<g>
		<rect x="365.5" y="201.2" class="st7" width="34.4" height="107"/>
		<g>
			<path class="st8" d="M348.6,209.6h16.9v-5.9h-16.9c-0.7,0-1.2,0.6-1.2,1.2v3.4C347.3,209,347.9,209.6,348.6,209.6z"/>
			<path class="st8" d="M348.6,223.3h16.9v-5.9h-16.9c-0.7,0-1.2,0.6-1.2,1.2v3.4C347.3,222.7,347.9,223.3,348.6,223.3z"/>
			<path class="st8" d="M348.6,237h16.9v-5.9h-16.9c-0.7,0-1.2,0.6-1.2,1.2v3.4C347.3,236.5,347.9,237,348.6,237z"/>
			<path class="st8" d="M348.6,250.7h16.9v-5.9h-16.9c-0.7,0-1.2,0.6-1.2,1.2v3.4C347.3,250.2,347.9,250.7,348.6,250.7z"/>
			<path class="st8" d="M348.6,264.5h16.9v-5.9h-16.9c-0.7,0-1.2,0.6-1.2,1.2v3.4C347.3,263.9,347.9,264.5,348.6,264.5z"/>
			<path class="st8" d="M348.6,278.2h16.9v-5.9h-16.9c-0.7,0-1.2,0.6-1.2,1.2v3.4C347.3,277.6,347.9,278.2,348.6,278.2z"/>
			<path class="st8" d="M348.6,291.9h16.9V286h-16.9c-0.7,0-1.2,0.6-1.2,1.2v3.4C347.3,291.4,347.9,291.9,348.6,291.9z"/>
			<path class="st8" d="M348.6,305.6h16.9v-5.9h-16.9c-0.7,0-1.2,0.6-1.2,1.2v3.4C347.3,305.1,347.9,305.6,348.6,305.6z"/>
		</g>
		<g>
			<path class="st8" d="M416.7,299.8h-16.9v5.9h16.9c0.7,0,1.2-0.6,1.2-1.2V301C418,300.3,417.4,299.8,416.7,299.8z"/>
			<path class="st8" d="M416.7,286h-16.9v5.9h16.9c0.7,0,1.2-0.6,1.2-1.2v-3.4C418,286.6,417.4,286,416.7,286z"/>
			<path class="st8" d="M416.7,272.3h-16.9v5.9h16.9c0.7,0,1.2-0.6,1.2-1.2v-3.4C418,272.9,417.4,272.3,416.7,272.3z"/>
			<path class="st8" d="M416.7,258.6h-16.9v5.9h16.9c0.7,0,1.2-0.6,1.2-1.2v-3.4C418,259.1,417.4,258.6,416.7,258.6z"/>
			<path class="st8" d="M416.7,244.9h-16.9v5.9h16.9c0.7,0,1.2-0.6,1.2-1.2v-3.4C418,245.4,417.4,244.9,416.7,244.9z"/>
			<path class="st8" d="M416.7,231.1h-16.9v5.9h16.9c0.7,0,1.2-0.6,1.2-1.2v-3.4C418,231.7,417.4,231.1,416.7,231.1z"/>
			<path class="st8" d="M416.7,217.4h-16.9v5.9h16.9c0.7,0,1.2-0.6,1.2-1.2v-3.4C418,218,417.4,217.4,416.7,217.4z"/>
			<path class="st8" d="M416.7,203.7h-16.9v5.9h16.9c0.7,0,1.2-0.6,1.2-1.2v-3.4C418,204.2,417.4,203.7,416.7,203.7z"/>
		</g>
		<circle class="st18" cx="391.8" cy="298.3" r="4.9"/>
	</g>
	
		<rect x="444.5" y="247.8" transform="matrix(-1.836970e-16 1 -1 -1.836970e-16 707.9828 -190.8016)" class="st5" width="9.8" height="21.5"/>
	<g>
		
			<rect x="444.1" y="267.2" transform="matrix(-1.836970e-16 1 -1 -1.836970e-16 725.1573 -173.6271)" class="st9" width="10.7" height="17.2"/>
		
			<rect x="444.2" y="269.8" transform="matrix(-1.836970e-16 1 -1 -1.836970e-16 725.3192 -173.789)" class="st7" width="10.7" height="11.8"/>
	</g>
	<g>
		
			<rect x="444.1" y="284.7" transform="matrix(-1.836970e-16 1 -1 -1.836970e-16 742.7526 -156.0318)" class="st9" width="10.7" height="17.2"/>
		
			<rect x="444.2" y="287.4" transform="matrix(-1.836970e-16 1 -1 -1.836970e-16 742.9145 -156.1936)" class="st7" width="10.7" height="11.8"/>
	</g>
	<g>
		<rect x="397.2" y="136" class="st9" width="10.7" height="17.2"/>
		<rect x="397.2" y="138.5" class="st7" width="10.7" height="11.8"/>
	</g>
	<g>
		<rect x="412.8" y="135.8" class="st9" width="10.7" height="17.2"/>
		<rect x="412.8" y="138.3" class="st7" width="10.7" height="11.8"/>
	</g>
	<path class="st8" d="M323.2,184.5v-12.2h-11.5v12.2c0,0.7,0.6,1.2,1.2,1.2h9C322.7,185.7,323.2,185.2,323.2,184.5z"/>
	<g>
		<rect x="274.7" y="54.1" class="st19" width="51.5" height="35.1"/>
		<rect x="287" y="54.1" class="st20" width="26.7" height="35.1"/>
	</g>
	<g>
		<path class="st2" d="M370,19.9L370,19.9l87.6,0v0c2.7,1.4,4.4,4.2,4.4,7.3v70.1c0,1-0.8,1.8-1.8,1.8h-92.8c-1,0-1.8-0.8-1.8-1.8
			V27.2C365.6,24.1,367.3,21.3,370,19.9z"/>
		<g>
			<path class="st21" d="M444.7,93.2L444.7,93.2c0-1.3-1.1-2.4-2.4-2.4h-9.9c-0.8,0-1.5-0.7-1.5-1.5v-2.1c0-0.8,0.7-1.5,1.5-1.5h9.9
				c1.3,0,2.4-1.1,2.4-2.4l0,0c0-1.3-1.1-2.4-2.4-2.4h-14c-1.3,0-2.4,1.1-2.4,2.4v10c0,1.3,1.1,2.4,2.4,2.4h14
				C443.6,95.7,444.7,94.6,444.7,93.2z"/>
			<path class="st21" d="M382.9,83.2L382.9,83.2c0,1.3,1.1,2.4,2.4,2.4h9.9c0.8,0,1.5,0.7,1.5,1.5v2.1c0,0.8-0.7,1.5-1.5,1.5h-9.9
				c-1.3,0-2.4,1.1-2.4,2.4v0c0,1.3,1.1,2.4,2.4,2.4h14c1.3,0,2.4-1.1,2.4-2.4v-10c0-1.3-1.1-2.4-2.4-2.4h-14
				C384,80.8,382.9,81.9,382.9,83.2z"/>
		</g>
	</g>
	<g>
		<path class="st7" d="M266.4,137.8h-67.1c-0.7,0-1.2-0.5-1.2-1.2v-34.6c0-0.7,0.5-1.2,1.2-1.2h67.1c0.7,0,1.2,0.5,1.2,1.2v34.6
			C267.6,137.3,267.1,137.8,266.4,137.8z"/>
		<g>
			<path class="st8" d="M210.4,154.7v-16.9h-5.9v16.9c0,0.7,0.6,1.2,1.2,1.2h3.4C209.9,156,210.4,155.4,210.4,154.7z"/>
			<path class="st8" d="M235.8,154.7v-16.9h-5.9v16.9c0,0.7,0.6,1.2,1.2,1.2h3.4C235.2,156,235.8,155.4,235.8,154.7z"/>
			<path class="st8" d="M261.2,154.7v-16.9h-5.9v16.9c0,0.7,0.6,1.2,1.2,1.2h3.4C260.6,156,261.2,155.4,261.2,154.7z"/>
		</g>
		<path class="st8" d="M214.1,75.3v25.6h34.3V75.3c0-0.7-0.6-1.2-1.2-1.2h-31.8C214.7,74.1,214.1,74.6,214.1,75.3z"/>
	</g>
	<rect x="150.3" y="179" class="st7" width="48.4" height="27.1"/>
	<g>
		<rect x="16" y="222.2" class="st2" width="20" height="20"/>
		<circle class="st22" cx="26" cy="232.2" r="7.4"/>
		<rect x="16" y="250.8" class="st2" width="20" height="20"/>
		<circle class="st22" cx="26" cy="260.9" r="7.4"/>
		<rect x="16" y="279.5" class="st2" width="20" height="20"/>
		<circle class="st22" cx="26" cy="289.5" r="7.4"/>
		<rect x="16" y="308.2" class="st2" width="20" height="20"/>
		<circle class="st22" cx="26" cy="318.2" r="7.4"/>
	</g>
	<g>
		<rect x="9.3" y="334.6" class="st23" width="33.4" height="240.9"/>
		<rect x="16.2" y="337.3" width="19.6" height="19.6"/>
		<rect x="16.2" y="367.8" width="19.6" height="19.6"/>
		<rect x="16.2" y="398.3" width="19.6" height="19.6"/>
		<rect x="16.2" y="428.8" width="19.6" height="19.6"/>
		<rect x="16.2" y="459.3" width="19.6" height="19.6"/>
		<rect x="16.2" y="489.8" width="19.6" height="19.6"/>
		<rect x="16.2" y="520.3" width="19.6" height="19.6"/>
		<rect x="16.2" y="550.8" width="19.6" height="19.6"/>
	</g>
	<g>
		<rect x="9.3" y="581.1" class="st23" width="33.4" height="178.8"/>
		<g>
			<rect x="16.2" y="584.4" width="19.6" height="19.6"/>
			<rect x="16.2" y="614.9" width="19.6" height="19.6"/>
			<rect x="16.2" y="645.4" width="19.6" height="19.6"/>
			<rect x="16.2" y="676" width="19.6" height="19.6"/>
			<rect x="16.2" y="706.5" width="19.6" height="19.6"/>
			<rect x="16.2" y="737" width="19.6" height="19.6"/>
		</g>
	</g>
	<g>
		<path class="st15" d="M50.3,372.8h2.5v10.4h-2.5V372.8z"/>
		<path class="st15" d="M54.7,377.9c0-3.4,1.9-5.4,4.8-5.4s4.8,2,4.8,5.4s-1.9,5.4-4.8,5.4S54.7,381.3,54.7,377.9z M61.7,377.9
			c0-2-0.8-3.2-2.2-3.2c-1.4,0-2.2,1.2-2.2,3.2c0,2,0.9,3.3,2.2,3.3C60.9,381.2,61.7,380,61.7,377.9z"/>
		<path class="st15" d="M66.2,372.8H70c2.2,0,4.1,0.8,4.1,3.3c0,1.5-0.7,2.5-1.8,3l2.3,4.1h-2.8l-1.9-3.7h-1.2v3.7h-2.5V372.8z
			 M69.8,377.5c1.2,0,1.8-0.5,1.8-1.5s-0.6-1.3-1.8-1.3h-1.1v2.8H69.8z"/>
		<path class="st15" d="M76.1,372.8h6.6v2.1h-4.1v2h3.5v2.1h-3.5v2.2h4.3v2.1h-6.8V372.8z"/>
		<path class="st15" d="M84.9,372.8h6.7v2.1h-4.2v2.3h3.6v2.1h-3.6v4h-2.5V372.8z"/>
	</g>
	<g>
		<path class="st15" d="M51.5,403.3h3.8c2.2,0,4.1,0.8,4.1,3.3c0,1.5-0.7,2.5-1.8,3l2.3,4.1h-2.8l-1.9-3.7H54v3.7h-2.5V403.3z
			 M55.2,408.1c1.2,0,1.8-0.5,1.8-1.5s-0.6-1.3-1.8-1.3H54v2.8H55.2z"/>
		<path class="st15" d="M61.4,403.3H68v2.1h-4.1v2h3.5v2.1h-3.5v2.2h4.3v2.1h-6.8V403.3z"/>
		<path class="st15" d="M69.6,412.4l1.3-1.6c0.7,0.6,1.7,1,2.6,1c0.9,0,1.4-0.4,1.4-0.9c0-0.6-0.6-0.8-1.5-1.2l-1.3-0.6
			c-1.1-0.4-2.1-1.3-2.1-2.8c0-1.7,1.6-3.2,3.8-3.2c1.2,0,2.5,0.5,3.4,1.3l-1.3,1.6c-0.7-0.5-1.4-0.8-2.1-0.8
			c-0.8,0-1.3,0.3-1.3,0.8c0,0.6,0.7,0.8,1.6,1.2l1.3,0.5c1.3,0.5,2.1,1.4,2.1,2.8c0,1.7-1.5,3.3-4,3.3
			C72,413.9,70.7,413.4,69.6,412.4z"/>
		<path class="st15" d="M79.2,403.3h6.6v2.1h-4.1v2h3.5v2.1h-3.5v2.2h4.3v2.1h-6.8V403.3z"/>
		<path class="st15" d="M90,405.4h-2.8v-2.1h8.1v2.1h-2.8v8.3H90V405.4z"/>
	</g>
	<g>
		<path class="st15" d="M51.9,443l1.1-1.6c0.6,0.6,1.4,1,2.2,1c1,0,1.6-0.4,1.6-1.2c0-0.9-0.5-1.4-2.7-1.4V438
			c1.8,0,2.3-0.5,2.3-1.4c0-0.7-0.4-1.1-1.2-1.1c-0.7,0-1.2,0.3-1.9,0.9l-1.2-1.5c0.9-0.8,2-1.3,3.2-1.3c2.2,0,3.6,1,3.6,2.9
			c0,1.1-0.6,1.8-1.7,2.3v0.1c1.2,0.3,2,1.2,2,2.5c0,2-1.8,3-3.8,3C53.8,444.4,52.7,443.8,51.9,443z"/>
		<path class="st15" d="M61.1,442.9c0-0.9,0.6-1.5,1.5-1.5c0.8,0,1.5,0.7,1.5,1.5s-0.6,1.5-1.5,1.5
			C61.7,444.4,61.1,443.7,61.1,442.9z"/>
		<path class="st15" d="M65.3,443l1.1-1.6c0.6,0.6,1.4,1,2.2,1c1,0,1.6-0.4,1.6-1.2c0-0.9-0.5-1.4-2.7-1.4V438
			c1.8,0,2.3-0.5,2.3-1.4c0-0.7-0.4-1.1-1.2-1.1c-0.7,0-1.2,0.3-1.9,0.9l-1.2-1.5c0.9-0.8,2-1.3,3.2-1.3c2.2,0,3.6,1,3.6,2.9
			c0,1.1-0.6,1.8-1.7,2.3v0.1c1.2,0.3,2,1.2,2,2.5c0,2-1.8,3-3.8,3C67.2,444.4,66.1,443.8,65.3,443z"/>
		<path class="st15" d="M73.4,433.8H76l1.1,4.8c0.3,1.1,0.5,2.2,0.8,3.3H78c0.3-1.1,0.5-2.2,0.8-3.3l1.2-4.8h2.5l-3.2,10.4h-3
			L73.4,433.8z"/>
	</g>
	<g>
		<path class="st15" d="M53.2,473.5l1.1-1.6c0.6,0.6,1.3,1,2.1,1c1,0,1.6-0.6,1.6-1.6s-0.6-1.6-1.5-1.6c-0.6,0-0.9,0.1-1.5,0.5
			l-1.1-0.7l0.3-5.2h5.8v2.1h-3.7l-0.1,1.8c0.4-0.1,0.7-0.2,1.1-0.2c1.8,0,3.2,1,3.2,3.3c0,2.4-1.8,3.7-3.8,3.7
			C55.1,474.9,54,474.3,53.2,473.5z"/>
		<path class="st15" d="M61.2,464.3h2.6l1.1,4.8c0.3,1.1,0.5,2.2,0.8,3.3h0.1c0.3-1.1,0.5-2.2,0.8-3.3l1.2-4.8h2.5l-3.2,10.4h-3
			L61.2,464.3z"/>
	</g>
	<g>
		<path class="st15" d="M54.8,500.1c0-3.5,2.3-5.5,5.1-5.5c1.5,0,2.6,0.6,3.3,1.4l-1.3,1.5c-0.5-0.5-1.1-0.7-1.9-0.7
			c-1.5,0-2.7,1.2-2.7,3.2c0,2.1,0.9,3.3,2.9,3.3c0.4,0,0.8-0.1,1-0.3v-1.7h-1.7v-2h3.9v4.9c-0.7,0.7-2,1.3-3.5,1.3
			C57,505.4,54.8,503.6,54.8,500.1z"/>
		<path class="st15" d="M65.5,494.8h2.6l2.6,5c0.4,0.7,0.7,1.5,1,2.4h0.1c-0.1-1.1-0.3-2.6-0.3-3.8v-3.5h2.4v10.4h-2.6l-2.6-5
			c-0.4-0.7-0.7-1.5-1-2.4h-0.1c0.1,1.2,0.3,2.6,0.3,3.8v3.5h-2.4V494.8z"/>
		<path class="st15" d="M76.1,494.8h3c3.2,0,5.3,1.6,5.3,5.2c0,3.6-2.1,5.2-5.1,5.2h-3.1V494.8z M79,503.2c1.7,0,2.9-0.8,2.9-3.2
			c0-2.5-1.2-3.2-2.9-3.2h-0.4v6.4H79z"/>
	</g>
	<g>
		<path class="st15" d="M56,530.6c0-3.5,2.3-5.5,5.1-5.5c1.5,0,2.6,0.6,3.3,1.4l-1.3,1.5c-0.5-0.5-1.1-0.7-1.9-0.7
			c-1.5,0-2.7,1.2-2.7,3.2c0,2.1,0.9,3.3,2.9,3.3c0.4,0,0.8-0.1,1-0.3v-1.7h-1.7v-2h3.9v4.9c-0.7,0.7-2,1.3-3.5,1.3
			C58.3,535.9,56,534.1,56,530.6z"/>
		<path class="st15" d="M66.7,525.3h2.6l2.6,5c0.4,0.7,0.7,1.5,1,2.4h0.1c-0.1-1.1-0.3-2.6-0.3-3.8v-3.5H75v10.4h-2.6l-2.6-5
			c-0.4-0.7-0.7-1.5-1-2.4h-0.1c0.1,1.2,0.3,2.6,0.3,3.8v3.5h-2.4V525.3z"/>
		<path class="st15" d="M77.4,525.3h3c3.2,0,5.3,1.6,5.3,5.2c0,3.6-2.1,5.2-5.1,5.2h-3.1V525.3z M80.2,533.7c1.7,0,2.9-0.8,2.9-3.2
			c0-2.5-1.2-3.2-2.9-3.2h-0.4v6.4H80.2z"/>
	</g>
	<g>
		<path class="st15" d="M56.4,555.8H59l1.1,4.8c0.3,1.1,0.5,2.2,0.8,3.3H61c0.3-1.1,0.5-2.2,0.8-3.3l1.2-4.8h2.5l-3.2,10.4h-3
			L56.4,555.8z"/>
		<path class="st15" d="M66.7,555.8h2.5v10.4h-2.5V555.8z"/>
		<path class="st15" d="M71.6,555.8h2.6l2.6,5c0.4,0.7,0.7,1.5,1,2.4h0.1c-0.1-1.1-0.3-2.6-0.3-3.8v-3.5h2.4v10.4h-2.6l-2.6-5
			c-0.4-0.7-0.7-1.5-1-2.4h-0.1c0.1,1.2,0.3,2.6,0.3,3.8v3.5h-2.4V555.8z"/>
	</g>
	<g>
		<path class="st15" d="M60.9,589.4h3l3.2,10.4h-2.6l-0.6-2.4h-3.1l-0.6,2.4h-2.5L60.9,589.4z M61.2,595.5h2.1l-0.2-0.9
			c-0.3-1-0.5-2.3-0.8-3.3h-0.1c-0.3,1.1-0.5,2.3-0.8,3.3L61.2,595.5z"/>
		<path class="st15" d="M67.5,594.6c0-3.6,1.5-5.4,3.7-5.4s3.7,1.8,3.7,5.4s-1.5,5.4-3.7,5.4S67.5,598.1,67.5,594.6z M72.5,594.6
			c0-2.8-0.6-3.5-1.3-3.5c-0.8,0-1.3,0.6-1.3,3.5c0,2.8,0.6,3.5,1.3,3.5C71.9,598.1,72.5,597.4,72.5,594.6z"/>
	</g>
	<g>
		<path class="st15" d="M62.1,619.9h3l3.2,10.4h-2.6l-0.6-2.4H62l-0.6,2.4h-2.5L62.1,619.9z M62.5,626h2.1l-0.2-0.9
			c-0.3-1-0.5-2.3-0.8-3.3h-0.1c-0.3,1.1-0.5,2.3-0.8,3.3L62.5,626z"/>
		<path class="st15" d="M69.3,628.3h2.2v-5.9h-1.9v-1.5c1.1-0.2,1.8-0.5,2.6-0.9H74v8.4h1.9v2h-6.6V628.3z"/>
	</g>
	<g>
		<path class="st15" d="M63.3,650.4h3l3.2,10.4h-2.6l-0.6-2.4h-3.1l-0.6,2.4h-2.5L63.3,650.4z M63.7,656.5h2.1l-0.2-0.9
			c-0.3-1-0.5-2.3-0.8-3.3h-0.1c-0.3,1.1-0.5,2.3-0.8,3.3L63.7,656.5z"/>
		<path class="st15" d="M70,659.3c2.7-2.3,4.4-4.2,4.4-5.6c0-1-0.5-1.5-1.4-1.5c-0.7,0-1.3,0.5-1.8,1l-1.3-1.3
			c1-1.1,1.9-1.7,3.4-1.7c2,0,3.4,1.3,3.4,3.3c0,1.9-1.7,3.8-3.3,5.4c0.5,0,1.2-0.1,1.7-0.1h2.1v2.1H70V659.3z"/>
	</g>
	<g>
		<path class="st15" d="M64.5,680.9h3l3.2,10.4h-2.6l-0.6-2.4h-3.1l-0.6,2.4h-2.5L64.5,680.9z M64.9,687h2.1l-0.2-0.9
			c-0.3-1-0.5-2.3-0.8-3.3H66c-0.3,1.1-0.5,2.3-0.8,3.3L64.9,687z"/>
		<path class="st15" d="M71,690.1l1.1-1.6c0.6,0.6,1.4,1,2.2,1c1,0,1.6-0.4,1.6-1.2c0-0.9-0.5-1.4-2.7-1.4v-1.8
			c1.8,0,2.3-0.5,2.3-1.4c0-0.7-0.4-1.1-1.2-1.1c-0.7,0-1.2,0.3-1.9,0.9l-1.2-1.5c0.9-0.8,2-1.3,3.2-1.3c2.2,0,3.6,1,3.6,2.9
			c0,1.1-0.6,1.8-1.7,2.3v0.1c1.2,0.3,2,1.2,2,2.5c0,2-1.8,3-3.8,3C72.9,691.6,71.7,691,71,690.1z"/>
	</g>
	<g>
		<path class="st15" d="M65.8,711.5h3l3.2,10.4h-2.6l-0.6-2.4h-3.1l-0.6,2.4h-2.5L65.8,711.5z M66.2,717.6h2.1l-0.2-0.9
			c-0.3-1-0.5-2.3-0.8-3.3h-0.1c-0.3,1.1-0.5,2.3-0.8,3.3L66.2,717.6z"/>
		<path class="st15" d="M76.6,719.3h-4.4v-1.7l3.6-6.1h3.1v5.9H80v1.9h-1.2v2.6h-2.3V719.3z M76.6,717.4v-1.5c0-0.7,0-1.6,0.1-2.3
			h-0.1c-0.3,0.6-0.5,1.2-0.8,1.8l-1.2,2.1H76.6z"/>
		<path class="st15" d="M83.7,710.5h1.6l-3.1,13.9h-1.6L83.7,710.5z"/>
		<path class="st15" d="M86.3,720.5l1.3-1.6c0.7,0.6,1.7,1,2.6,1c0.9,0,1.4-0.4,1.4-0.9c0-0.6-0.6-0.8-1.5-1.2l-1.3-0.6
			c-1.1-0.4-2.1-1.3-2.1-2.8c0-1.7,1.6-3.2,3.8-3.2c1.2,0,2.5,0.5,3.4,1.3l-1.3,1.6c-0.7-0.5-1.4-0.8-2.1-0.8
			c-0.8,0-1.3,0.3-1.3,0.8c0,0.6,0.7,0.8,1.6,1.2l1.3,0.5c1.3,0.5,2.1,1.4,2.1,2.8c0,1.7-1.5,3.3-4,3.3
			C88.8,722.1,87.4,721.6,86.3,720.5z"/>
		<path class="st15" d="M95.9,711.5h3c3.2,0,5.3,1.6,5.3,5.2c0,3.6-2.1,5.2-5.1,5.2h-3.1V711.5z M98.8,719.9c1.7,0,2.9-0.8,2.9-3.2
			c0-2.5-1.2-3.2-2.9-3.2h-0.4v6.4H98.8z"/>
		<path class="st15" d="M107.9,711.5h3l3.2,10.4h-2.6l-0.6-2.4h-3.1l-0.6,2.4h-2.5L107.9,711.5z M108.2,717.6h2.1l-0.2-0.9
			c-0.3-1-0.5-2.3-0.8-3.3h-0.1c-0.3,1.1-0.5,2.3-0.8,3.3L108.2,717.6z"/>
	</g>
	<g>
		<path class="st15" d="M67,738.9h3l3.2,10.4h-2.6l-0.6-2.4h-3.1l-0.6,2.4h-2.5L67,738.9z M67.4,745h2.1l-0.2-0.9
			c-0.3-1-0.5-2.3-0.8-3.3h-0.1c-0.3,1.1-0.5,2.3-0.8,3.3L67.4,745z"/>
		<path class="st15" d="M73.5,748.1l1.1-1.6c0.6,0.6,1.3,1,2.1,1c1,0,1.6-0.6,1.6-1.6s-0.6-1.6-1.5-1.6c-0.6,0-0.9,0.1-1.5,0.5
			l-1.1-0.7l0.3-5.2h5.8v2.1h-3.7l-0.1,1.8c0.4-0.1,0.7-0.2,1.1-0.2c1.8,0,3.2,1,3.2,3.3c0,2.4-1.8,3.7-3.8,3.7
			C75.4,749.5,74.3,748.9,73.5,748.1z"/>
		<path class="st15" d="M84.9,738h1.6l-3.1,13.9h-1.6L84.9,738z"/>
		<path class="st15" d="M87.6,748l1.3-1.6c0.7,0.6,1.7,1,2.6,1c0.9,0,1.4-0.4,1.4-0.9c0-0.6-0.6-0.8-1.5-1.2l-1.3-0.6
			c-1.1-0.4-2.1-1.3-2.1-2.8c0-1.7,1.6-3.2,3.8-3.2c1.2,0,2.5,0.5,3.4,1.3l-1.3,1.6c-0.7-0.5-1.4-0.8-2.1-0.8
			c-0.8,0-1.3,0.3-1.3,0.8c0,0.6,0.7,0.8,1.6,1.2l1.3,0.5c1.3,0.5,2.1,1.4,2.1,2.8c0,1.7-1.5,3.3-4,3.3C90,749.5,88.6,749,87.6,748z
			"/>
		<path class="st15" d="M96.7,744.2c0-3.5,2.3-5.5,5-5.5c1.4,0,2.4,0.6,3.2,1.4l-1.3,1.5c-0.5-0.5-1.1-0.7-1.8-0.7
			c-1.4,0-2.5,1.2-2.5,3.2c0,2.1,1,3.3,2.4,3.3c0.8,0,1.5-0.3,2-0.9l1.3,1.5c-0.9,1-2.1,1.5-3.4,1.5
			C98.9,749.5,96.7,747.7,96.7,744.2z"/>
		<path class="st15" d="M106.5,738.9h2.5v8.3h4v2.1h-6.5V738.9z"/>
	</g>
	<g>
		<path class="st15" d="M119.5,432v3.7c0,2.3-0.8,4.2-3.4,4.2c-2.5,0-3.6-1.9-3.6-4.1v-1.2H109V432H119.5z M114.5,435.6
			c0,1.2,0.6,1.8,1.6,1.8c1,0,1.4-0.7,1.4-1.9v-1h-3V435.6z"/>
		<path class="st15" d="M114.3,441.2c3.4,0,5.4,1.9,5.4,4.8s-2,4.8-5.4,4.8s-5.4-1.9-5.4-4.8S110.9,441.2,114.3,441.2z M114.3,448.1
			c2,0,3.2-0.8,3.2-2.2c0-1.4-1.2-2.2-3.2-2.2c-2,0-3.3,0.9-3.3,2.2C111,447.3,112.3,448.1,114.3,448.1z"/>
		<path class="st15" d="M119.5,451.6v2.5l-4.8,0.7c-1.1,0.1-2.2,0.3-3.3,0.4v0.1c1.1,0.2,2.2,0.4,3.3,0.6l4.8,1.1v2.1l-4.8,1.1
			c-1.1,0.2-2.2,0.4-3.3,0.6v0.1c1.2,0.1,2.3,0.3,3.3,0.4l4.8,0.7v2.4l-10.4-1.8v-3.2l4.6-0.9c0.8-0.2,1.6-0.3,2.5-0.4v-0.1
			c-0.8-0.1-1.6-0.2-2.5-0.4l-4.6-0.9v-3.1L119.5,451.6z"/>
		<path class="st15" d="M119.5,465.7v6.6h-2.1v-4.1h-2v3.5h-2.1v-3.5h-2.2v4.3H109v-6.8H119.5z"/>
		<path class="st15" d="M119.5,474.5v3.8c0,2.2-0.8,4.1-3.3,4.1c-1.5,0-2.5-0.7-3-1.8l-4.1,2.3v-2.8l3.7-1.9V477H109v-2.5H119.5z
			 M114.7,478.1c0,1.2,0.5,1.8,1.5,1.8s1.3-0.6,1.3-1.8V477h-2.8V478.1z"/>
	</g>
	<g>
		<path class="st15" d="M119.5,634.4v3l-10.4,3.2V638l2.4-0.6v-3.1l-2.4-0.6v-2.5L119.5,634.4z M113.4,634.8v2.1l0.9-0.2
			c1-0.3,2.3-0.5,3.3-0.8v-0.1c-1.1-0.3-2.3-0.5-3.3-0.8L113.4,634.8z"/>
		<path class="st15" d="M119.5,641.7v2.6l-5,2.6c-0.7,0.4-1.5,0.7-2.4,1v0.1c1.1-0.1,2.6-0.3,3.8-0.3h3.5v2.4H109v-2.6l5-2.6
			c0.7-0.4,1.5-0.7,2.4-1v-0.1c-1.2,0.1-2.6,0.3-3.8,0.3H109v-2.4H119.5z"/>
		<path class="st15" d="M119.5,654.3v3l-10.4,3.2v-2.6l2.4-0.6v-3.1l-2.4-0.6V651L119.5,654.3z M113.4,654.7v2.1l0.9-0.2
			c1-0.3,2.3-0.5,3.3-0.8v-0.1c-1.1-0.3-2.3-0.5-3.3-0.8L113.4,654.7z"/>
		<path class="st15" d="M119.5,661.6v2.5h-8.3v4H109v-6.5H119.5z"/>
		<path class="st15" d="M114.3,668.9c3.4,0,5.4,1.9,5.4,4.8s-2,4.8-5.4,4.8s-5.4-1.9-5.4-4.8S110.9,668.9,114.3,668.9z M114.3,675.9
			c2,0,3.2-0.8,3.2-2.2c0-1.4-1.2-2.2-3.2-2.2c-2,0-3.3,0.9-3.3,2.2C111,675,112.3,675.9,114.3,675.9z"/>
		<path class="st15" d="M114.2,679.8c3.5,0,5.5,2.3,5.5,5.1c0,1.5-0.6,2.6-1.4,3.3l-1.5-1.3c0.5-0.5,0.7-1.1,0.7-1.9
			c0-1.5-1.2-2.7-3.2-2.7c-2.1,0-3.3,0.9-3.3,2.9c0,0.4,0.1,0.8,0.3,1h1.7v-1.7h2v3.9h-4.9c-0.7-0.7-1.3-2-1.3-3.5
			C108.9,682.1,110.7,679.8,114.2,679.8z"/>
		<path class="st15" d="M119.5,693.8v2.5H109v-2.5H119.5z"/>
		<path class="st15" d="M119.5,698.7v2.6l-5,2.6c-0.7,0.4-1.5,0.7-2.4,1v0.1c1.1-0.1,2.6-0.3,3.8-0.3h3.5v2.4H109v-2.6l5-2.6
			c0.7-0.4,1.5-0.7,2.4-1v-0.1c-1.2,0.1-2.6,0.3-3.8,0.3H109v-2.4H119.5z"/>
	</g>
	<path class="st24" d="M126,749.6L126,749.6c-1.3,0-2.3-1-2.3-2.3V592c0-1.3,1-2.3,2.3-2.3l0,0c1.3,0,2.3,1,2.3,2.3v155.3
		C128.3,748.6,127.3,749.6,126,749.6z"/>
	<path class="st24" d="M126,550.8L126,550.8c-1.3,0-2.3-1-2.3-2.3V365.4c0-1.3,1-2.3,2.3-2.3l0,0c1.3,0,2.3,1,2.3,2.3v183.2
		C128.3,549.8,127.3,550.8,126,550.8z"/>
	<g>
		<g>
			<polygon class="st25" points="292.3,739.7 288.6,739.7 288.6,739.7 285,739.7 276.5,748.2 276.5,781.2 285,789.7 288.6,789.7 
				288.6,789.7 292.3,789.7 300.7,781.2 300.7,748.2 			"/>
			<g>
				<g>
					<rect x="285.5" y="749.3" class="st26" width="6.2" height="6.2"/>
					<rect x="285.5" y="773.9" class="st26" width="6.2" height="6.2"/>
				</g>
			</g>
		</g>
		<g>
			<polygon class="st25" points="316.5,739.7 312.9,739.7 312.8,739.7 309.2,739.7 300.7,748.2 300.7,781.2 309.2,789.7 
				312.8,789.7 312.9,789.7 316.5,789.7 324.9,781.2 324.9,748.2 			"/>
			<g>
				<g>
					<rect x="309.7" y="749.3" class="st26" width="6.2" height="6.2"/>
					<rect x="309.7" y="773.9" class="st26" width="6.2" height="6.2"/>
				</g>
			</g>
		</g>
		<g>
			<polygon class="st25" points="340.7,739.7 337.1,739.7 337,739.7 333.4,739.7 324.9,748.2 324.9,781.2 333.4,789.7 337,789.7 
				337.1,789.7 340.7,789.7 349.2,781.2 349.2,748.2 			"/>
			<g>
				<g>
					<rect x="333.9" y="749.3" class="st26" width="6.2" height="6.2"/>
					<rect x="333.9" y="773.9" class="st26" width="6.2" height="6.2"/>
				</g>
			</g>
		</g>
	</g>
	<path class="st24" d="M270.5,728.2c-1.3,0-2.3,1-2.3,2.3v2.3V789c0,1.3,1,2.3,2.3,2.3l0,0c1.3,0,2.3-1,2.3-2.3V735
		c0-1.3,1-2.3,2.3-2.3h75.6c1.3,0,2.3,1,2.3,2.3V789c0,1.3,1,2.3,2.3,2.3h0c1.3,0,2.3-1,2.3-2.3v-56.2v-2.3c0-1.3-1-2.3-2.3-2.3
		H270.5z"/>
	<path class="st24" d="M467.3,748.3L467.3,748.3c-1.3,0-2.3-1-2.3-2.3V355.8c0-1.3,1-2.3,2.3-2.3l0,0c1.3,0,2.3,1,2.3,2.3V746
		C469.6,747.3,468.6,748.3,467.3,748.3z"/>
	<g>
		<path class="st15" d="M486.5,495.2v3c0,3.2-1.6,5.3-5.2,5.3c-3.6,0-5.2-2.1-5.2-5.1v-3.1H486.5z M478.1,498c0,1.7,0.8,2.9,3.2,2.9
			c2.5,0,3.2-1.2,3.2-2.9v-0.4h-6.4V498z"/>
		<path class="st15" d="M486.5,505.4v2.5h-10.4v-2.5H486.5z"/>
		<path class="st15" d="M481.2,509.8c3.5,0,5.5,2.3,5.5,5.1c0,1.5-0.6,2.6-1.4,3.3l-1.5-1.3c0.5-0.5,0.7-1.1,0.7-1.9
			c0-1.5-1.2-2.7-3.2-2.7c-2.1,0-3.3,0.9-3.3,2.9c0,0.4,0.1,0.8,0.3,1h1.7v-1.7h2v3.9h-4.9c-0.7-0.7-1.3-2-1.3-3.5
			C475.9,512.1,477.7,509.8,481.2,509.8z"/>
		<path class="st15" d="M486.5,520.5v2.5h-10.4v-2.5H486.5z"/>
		<path class="st15" d="M484.4,527.4v-2.8h2.1v8.1h-2.1v-2.8h-8.3v-2.5H484.4z"/>
		<path class="st15" d="M486.5,535.6v3l-10.4,3.2v-2.6l2.4-0.6v-3.1l-2.4-0.6v-2.5L486.5,535.6z M480.4,536v2.1l0.9-0.2
			c1-0.3,2.3-0.5,3.3-0.8V537c-1.1-0.3-2.3-0.5-3.3-0.8L480.4,536z"/>
		<path class="st15" d="M486.5,542.9v2.5h-8.3v4h-2.1v-6.5H486.5z"/>
		<path class="st15" d="M480.5,554.4c2.8,0,5.1,0.8,7.3,2.1l-0.6,1.6c-2.1-1.2-4.4-1.7-6.7-1.7s-4.6,0.5-6.7,1.7l-0.6-1.6
			C475.4,555.2,477.7,554.4,480.5,554.4z"/>
		<path class="st15" d="M486.5,560.1v3.7c0,2.3-0.8,4.2-3.4,4.2c-2.5,0-3.6-1.9-3.6-4.1v-1.2h-3.5v-2.5H486.5z M481.5,563.7
			c0,1.2,0.6,1.8,1.6,1.8c1,0,1.4-0.7,1.4-1.9v-1h-3V563.7z"/>
		<path class="st15" d="M486.5,568.7v2.5l-4.8,0.7c-1.1,0.1-2.2,0.3-3.3,0.4v0.1c1.1,0.2,2.2,0.4,3.3,0.6l4.8,1.1v2.1l-4.8,1.1
			c-1.1,0.2-2.2,0.4-3.3,0.6v0.1c1.2,0.1,2.3,0.3,3.3,0.4l4.8,0.7v2.4l-10.4-1.8v-3.2l4.6-0.9c0.8-0.2,1.6-0.3,2.5-0.4V575
			c-0.8-0.1-1.6-0.2-2.5-0.4l-4.6-0.9v-3.1L486.5,568.7z"/>
		<path class="st15" d="M486.5,582.7v2.7l-4.5,1.6c-0.6,0.2-1.2,0.4-1.9,0.6v0.1c0.7,0.2,1.3,0.4,1.9,0.6l4.5,1.6v2.7h-10.4v-2.3
			h3.6c1,0,2.8,0.2,3.8,0.3v-0.1l-2.7-0.9l-3.8-1.4v-1.4l3.8-1.4l2.7-0.8v-0.1c-1,0.1-2.8,0.3-3.8,0.3h-3.6v-2.2H486.5z"/>
		<path class="st15" d="M481.1,596.6c0-0.4-0.4-0.8-0.9-1.1l1-1.3c1.2,0.8,1.7,1.6,1.7,2.4c0,1.3-1.2,1.9-1.2,2.8
			c0,0.4,0.4,0.8,0.9,1.1l-1,1.3c-1.2-0.8-1.7-1.6-1.7-2.4C479.9,598.1,481.1,597.5,481.1,596.6z"/>
		<path class="st15" d="M473.9,603.1c2.1,1.2,4.4,1.7,6.7,1.7s4.6-0.5,6.7-1.7l0.6,1.6c-2.2,1.3-4.5,2.1-7.3,2.1
			c-2.8,0-5.1-0.8-7.3-2.1L473.9,603.1z"/>
	</g>
	<g>
		<rect x="559" y="523.6" class="st23" width="33.4" height="240.9"/>
		<rect x="565.9" y="526.3" width="19.6" height="19.6"/>
		<rect x="565.9" y="556.8" width="19.6" height="19.6"/>
		<rect x="565.9" y="587.3" width="19.6" height="19.6"/>
		<rect x="565.9" y="617.8" width="19.6" height="19.6"/>
		<rect x="565.9" y="648.3" width="19.6" height="19.6"/>
		<rect x="565.9" y="678.8" width="19.6" height="19.6"/>
		<rect x="565.9" y="709.3" width="19.6" height="19.6"/>
		<rect x="565.9" y="739.9" width="19.6" height="19.6"/>
	</g>
	<g>
		<rect x="559" y="220.3" class="st23" width="33.4" height="301.1"/>
		<rect x="565.9" y="285" width="19.6" height="19.6"/>
		<rect x="565.9" y="315.5" width="19.6" height="19.6"/>
		<rect x="565.9" y="346" width="19.6" height="19.6"/>
		<rect x="565.9" y="376.5" width="19.6" height="19.6"/>
		<rect x="565.9" y="407.1" width="19.6" height="19.6"/>
		<rect x="565.9" y="437.6" width="19.6" height="19.6"/>
		<rect x="565.9" y="468.1" width="19.6" height="19.6"/>
		<rect x="565.9" y="498.6" width="19.6" height="19.6"/>
		<rect x="565.9" y="254.5" width="19.6" height="19.6"/>
		<rect x="565.9" y="224.3" width="19.6" height="19.6"/>
	</g>
	<g>
		<g>
			<path class="st15" d="M508.8,229.2h3l3.2,10.4h-2.6l-0.6-2.4h-3.1l-0.6,2.4h-2.5L508.8,229.2z M509.1,235.3h2.1l-0.2-0.9
				c-0.3-1-0.5-2.3-0.8-3.3h-0.1c-0.3,1.1-0.5,2.3-0.8,3.3L509.1,235.3z"/>
			<path class="st15" d="M515.2,238.4l1.1-1.6c0.6,0.6,1.3,1,2.1,1c1,0,1.6-0.6,1.6-1.6s-0.6-1.6-1.5-1.6c-0.6,0-0.9,0.1-1.5,0.5
				l-1.1-0.7l0.3-5.2h5.8v2.1h-3.7l-0.1,1.8c0.4-0.1,0.7-0.2,1.1-0.2c1.8,0,3.2,1,3.2,3.3c0,2.4-1.8,3.7-3.8,3.7
				C517.2,239.9,516,239.2,515.2,238.4z"/>
			<path class="st15" d="M526.7,228.3h1.6l-3.1,13.9h-1.6L526.7,228.3z"/>
			<path class="st15" d="M529.3,238.3l1.3-1.6c0.7,0.6,1.7,1,2.6,1c0.9,0,1.4-0.4,1.4-0.9c0-0.6-0.6-0.8-1.5-1.2l-1.3-0.6
				c-1.1-0.4-2.1-1.3-2.1-2.8c0-1.7,1.6-3.2,3.8-3.2c1.2,0,2.5,0.5,3.4,1.3l-1.3,1.6c-0.7-0.5-1.4-0.8-2.1-0.8
				c-0.8,0-1.3,0.3-1.3,0.8c0,0.6,0.7,0.8,1.6,1.2l1.3,0.5c1.3,0.5,2.1,1.4,2.1,2.8c0,1.7-1.5,3.3-4,3.3
				C531.8,239.9,530.4,239.4,529.3,238.3z"/>
			<path class="st15" d="M538.4,234.5c0-3.5,2.3-5.5,5-5.5c1.4,0,2.4,0.6,3.2,1.4l-1.3,1.5c-0.5-0.5-1.1-0.7-1.8-0.7
				c-1.4,0-2.5,1.2-2.5,3.2c0,2.1,1,3.3,2.4,3.3c0.8,0,1.5-0.3,2-0.9l1.3,1.5c-0.9,1-2.1,1.5-3.4,1.5
				C540.6,239.9,538.4,238,538.4,234.5z"/>
			<path class="st15" d="M548.2,229.2h2.5v8.3h4v2.1h-6.5V229.2z"/>
		</g>
		<g>
			<path class="st15" d="M506.6,259.5h3l3.2,10.4h-2.6l-0.6-2.4h-3.1l-0.6,2.4h-2.5L506.6,259.5z M507,265.6h2.1l-0.2-0.9
				c-0.3-1-0.5-2.3-0.8-3.3H508c-0.3,1.1-0.5,2.3-0.8,3.3L507,265.6z"/>
			<path class="st15" d="M517.4,267.3H513v-1.7l3.6-6.1h3.1v5.9h1.2v1.9h-1.2v2.6h-2.3V267.3z M517.4,265.4v-1.5
				c0-0.7,0-1.6,0.1-2.3h-0.1c-0.3,0.6-0.5,1.2-0.8,1.8l-1.2,2.1H517.4z"/>
			<path class="st15" d="M524.5,258.5h1.6l-3.1,13.9h-1.6L524.5,258.5z"/>
			<path class="st15" d="M527.2,268.6l1.3-1.6c0.7,0.6,1.7,1,2.6,1c0.9,0,1.4-0.4,1.4-0.9c0-0.6-0.6-0.8-1.5-1.2l-1.3-0.6
				c-1.1-0.4-2.1-1.3-2.1-2.8c0-1.7,1.6-3.2,3.8-3.2c1.2,0,2.5,0.5,3.4,1.3l-1.3,1.6c-0.7-0.5-1.4-0.8-2.1-0.8
				c-0.8,0-1.3,0.3-1.3,0.8c0,0.6,0.7,0.8,1.6,1.2l1.3,0.5c1.3,0.5,2.1,1.4,2.1,2.8c0,1.7-1.5,3.3-4,3.3
				C529.6,270.1,528.2,269.6,527.2,268.6z"/>
			<path class="st15" d="M536.7,259.5h3c3.2,0,5.3,1.6,5.3,5.2c0,3.6-2.1,5.2-5.1,5.2h-3.1V259.5z M539.6,267.9
				c1.7,0,2.9-0.8,2.9-3.2c0-2.5-1.2-3.2-2.9-3.2h-0.4v6.4H539.6z"/>
			<path class="st15" d="M548.7,259.5h3l3.2,10.4h-2.6l-0.6-2.4h-3.1l-0.6,2.4h-2.5L548.7,259.5z M549.1,265.6h2.1l-0.2-0.9
				c-0.3-1-0.5-2.3-0.8-3.3h-0.1c-0.3,1.1-0.5,2.3-0.8,3.3L549.1,265.6z"/>
		</g>
		<g>
			<path class="st15" d="M521,290h3l3.2,10.4h-2.6L524,298h-3.1l-0.6,2.4h-2.5L521,290z M521.4,296.1h2.1l-0.2-0.9
				c-0.3-1-0.5-2.3-0.8-3.3h-0.1c-0.3,1.1-0.5,2.3-0.8,3.3L521.4,296.1z"/>
			<path class="st15" d="M528.3,290h3.8c2.2,0,4.1,0.8,4.1,3.3c0,1.5-0.7,2.5-1.8,3l2.3,4.1h-2.8l-1.9-3.7h-1.2v3.7h-2.5V290z
				 M531.9,294.8c1.2,0,1.8-0.5,1.8-1.5s-0.6-1.3-1.8-1.3h-1.1v2.8H531.9z"/>
			<path class="st15" d="M538.2,290h6.6v2.1h-4.1v2h3.5v2.1h-3.5v2.2h4.3v2.1h-6.8V290z"/>
			<path class="st15" d="M547,290h6.7v2.1h-4.2v2.3h3.6v2.1h-3.6v4H547V290z"/>
		</g>
		<g>
			<path class="st15" d="M523.3,325.8c0-3.5,2.3-5.5,5.1-5.5c1.5,0,2.6,0.6,3.3,1.4l-1.3,1.5c-0.5-0.5-1.1-0.7-1.9-0.7
				c-1.5,0-2.7,1.2-2.7,3.2c0,2.1,0.9,3.3,2.9,3.3c0.4,0,0.8-0.1,1-0.3V327H528v-2h3.9v4.9c-0.7,0.7-2,1.3-3.5,1.3
				C525.5,331.1,523.3,329.3,523.3,325.8z"/>
			<path class="st15" d="M534,320.5h2.6l2.6,5c0.4,0.7,0.7,1.5,1,2.4h0.1c-0.1-1.1-0.3-2.6-0.3-3.8v-3.5h2.4v10.4h-2.6l-2.6-5
				c-0.4-0.7-0.7-1.5-1-2.4H536c0.1,1.2,0.3,2.6,0.3,3.8v3.5H534V320.5z"/>
			<path class="st15" d="M544.6,320.5h3c3.2,0,5.3,1.6,5.3,5.2c0,3.6-2.1,5.2-5.1,5.2h-3.1V320.5z M547.5,328.9
				c1.7,0,2.9-0.8,2.9-3.2c0-2.5-1.2-3.2-2.9-3.2h-0.4v6.4H547.5z"/>
		</g>
		<g>
			<path class="st15" d="M495.2,359.4h2.2v-5.9h-1.9V352c1.1-0.2,1.8-0.5,2.6-0.9h1.8v8.4h1.9v2h-6.6V359.4z"/>
			<path class="st15" d="M503,360.2l1.1-1.6c0.6,0.6,1.4,1,2.2,1c1,0,1.6-0.4,1.6-1.2c0-0.9-0.5-1.4-2.7-1.4v-1.8
				c1.8,0,2.3-0.5,2.3-1.4c0-0.7-0.4-1.1-1.2-1.1c-0.7,0-1.2,0.3-1.9,0.9l-1.2-1.5c0.9-0.8,2-1.3,3.2-1.3c2.2,0,3.6,1,3.6,2.9
				c0,1.1-0.6,1.8-1.7,2.3v0.1c1.2,0.3,2,1.2,2,2.5c0,2-1.8,3-3.8,3C504.9,361.6,503.7,361.1,503,360.2z"/>
			<path class="st15" d="M514.5,350.1h1.6L513,364h-1.6L514.5,350.1z"/>
			<path class="st15" d="M517.1,360.1l1.3-1.6c0.7,0.6,1.7,1,2.6,1c0.9,0,1.4-0.4,1.4-0.9c0-0.6-0.6-0.8-1.5-1.2l-1.3-0.6
				c-1.1-0.4-2.1-1.3-2.1-2.8c0-1.7,1.6-3.2,3.8-3.2c1.2,0,2.5,0.5,3.4,1.3l-1.3,1.6c-0.7-0.5-1.4-0.8-2.1-0.8
				c-0.8,0-1.3,0.3-1.3,0.8c0,0.6,0.7,0.8,1.6,1.2l1.3,0.5c1.3,0.5,2.1,1.4,2.1,2.8c0,1.7-1.5,3.3-4,3.3
				C519.6,361.6,518.2,361.2,517.1,360.1z"/>
			<path class="st15" d="M526.2,356.3c0-3.5,2.3-5.5,5-5.5c1.4,0,2.4,0.6,3.2,1.4l-1.3,1.5c-0.5-0.5-1.1-0.7-1.8-0.7
				c-1.4,0-2.5,1.2-2.5,3.2c0,2.1,1,3.3,2.4,3.3c0.8,0,1.5-0.3,2-0.9l1.3,1.5c-0.9,1-2.1,1.5-3.4,1.5
				C528.4,361.6,526.2,359.8,526.2,356.3z"/>
			<path class="st15" d="M536,351h2.5v8.3h4v2.1H536V351z"/>
			<path class="st15" d="M544.4,351h2.5v4.1h0l3-4.1h2.7l-3.1,4.2l3.7,6.2h-2.7l-2.5-4.3l-1.1,1.5v2.7h-2.5V351z"/>
		</g>
		<g>
			<path class="st15" d="M494.1,390h2.2V384h-1.9v-1.5c1.1-0.2,1.8-0.5,2.6-0.9h1.8v8.4h1.9v2h-6.6V390z"/>
			<path class="st15" d="M502.1,390.4c2.7-2.3,4.4-4.2,4.4-5.6c0-1-0.5-1.5-1.4-1.5c-0.7,0-1.3,0.5-1.8,1L502,383
				c1-1.1,1.9-1.7,3.4-1.7c2,0,3.4,1.3,3.4,3.3c0,1.9-1.7,3.8-3.3,5.4c0.5,0,1.2-0.1,1.7-0.1h2.1v2.1h-7.2V390.4z"/>
			<path class="st15" d="M513.3,380.6h1.6l-3.1,13.9h-1.6L513.3,380.6z"/>
			<path class="st15" d="M516.6,381.5h2.7l1.6,4.5c0.2,0.6,0.4,1.2,0.6,1.9h0.1c0.2-0.7,0.4-1.3,0.6-1.9l1.6-4.5h2.7V392h-2.3v-3.6
				c0-1,0.2-2.8,0.3-3.8h-0.1l-0.9,2.7l-1.4,3.8h-1.4l-1.4-3.8l-0.8-2.7h-0.1c0.1,1,0.3,2.8,0.3,3.8v3.6h-2.2V381.5z"/>
			<path class="st15" d="M528.9,381.5h2.5V392h-2.5V381.5z"/>
			<path class="st15" d="M533.1,390.6l1.3-1.6c0.7,0.6,1.7,1,2.6,1c0.9,0,1.4-0.4,1.4-0.9c0-0.6-0.6-0.8-1.5-1.2l-1.3-0.6
				c-1.1-0.4-2.1-1.3-2.1-2.8c0-1.7,1.6-3.2,3.8-3.2c1.2,0,2.5,0.5,3.4,1.3l-1.3,1.6c-0.7-0.5-1.4-0.8-2.1-0.8
				c-0.8,0-1.3,0.3-1.3,0.8c0,0.6,0.7,0.8,1.6,1.2l1.3,0.5c1.3,0.5,2.1,1.4,2.1,2.8c0,1.7-1.5,3.3-4,3.3
				C535.6,392.2,534.2,391.7,533.1,390.6z"/>
			<path class="st15" d="M542.2,386.7c0-3.4,1.9-5.4,4.8-5.4s4.8,2,4.8,5.4s-1.9,5.4-4.8,5.4S542.2,390.1,542.2,386.7z M549.2,386.7
				c0-2-0.8-3.2-2.2-3.2c-1.4,0-2.2,1.2-2.2,3.2c0,2,0.9,3.3,2.2,3.3C548.4,390,549.2,388.7,549.2,386.7z"/>
		</g>
		<g>
			<path class="st15" d="M486.8,417.5c-0.4,0-0.8,0.4-1.1,0.9l-1.3-1c0.8-1.2,1.6-1.7,2.4-1.7c1.3,0,1.9,1.2,2.8,1.2
				c0.4,0,0.8-0.4,1.1-0.9l1.3,1c-0.8,1.2-1.6,1.7-2.4,1.7C488.2,418.7,487.7,417.5,486.8,417.5z"/>
			<path class="st15" d="M493.5,420.5h2.2v-5.9h-1.9V413c1.1-0.2,1.8-0.5,2.6-0.9h1.8v8.4h1.9v2h-6.6V420.5z"/>
			<path class="st15" d="M502,420.5h2.2v-5.9h-1.9V413c1.1-0.2,1.8-0.5,2.6-0.9h1.8v8.4h1.9v2H502V420.5z"/>
			<path class="st15" d="M512.8,411.1h1.6l-3.1,13.9h-1.6L512.8,411.1z"/>
			<path class="st15" d="M516,412.1h2.7l1.6,4.5c0.2,0.6,0.4,1.2,0.6,1.9h0.1c0.2-0.7,0.4-1.3,0.6-1.9l1.6-4.5h2.7v10.4h-2.3v-3.6
				c0-1,0.2-2.8,0.3-3.8h-0.1l-0.9,2.7l-1.4,3.8h-1.4l-1.4-3.8L518,415h-0.1c0.1,1,0.3,2.8,0.3,3.8v3.6H516V412.1z"/>
			<path class="st15" d="M527.8,417.2c0-3.4,1.9-5.4,4.8-5.4s4.8,2,4.8,5.4s-1.9,5.4-4.8,5.4S527.8,420.6,527.8,417.2z M534.8,417.2
				c0-2-0.8-3.2-2.2-3.2c-1.4,0-2.2,1.2-2.2,3.2c0,2,0.9,3.3,2.2,3.3C534,420.5,534.8,419.2,534.8,417.2z"/>
			<path class="st15" d="M538.6,421.1l1.3-1.6c0.7,0.6,1.7,1,2.6,1c0.9,0,1.4-0.4,1.4-0.9c0-0.6-0.6-0.8-1.5-1.2l-1.3-0.6
				c-1.1-0.4-2.1-1.3-2.1-2.8c0-1.7,1.6-3.2,3.8-3.2c1.2,0,2.5,0.5,3.4,1.3l-1.3,1.6c-0.7-0.5-1.4-0.8-2.1-0.8
				c-0.8,0-1.3,0.3-1.3,0.8c0,0.6,0.7,0.8,1.6,1.2l1.3,0.5c1.3,0.5,2.1,1.4,2.1,2.8c0,1.7-1.5,3.3-4,3.3
				C541.1,422.7,539.7,422.2,538.6,421.1z"/>
			<path class="st15" d="M548.2,412.1h2.5v10.4h-2.5V412.1z"/>
		</g>
		<g>
			<path class="st15" d="M528.7,448c-0.4,0-0.8,0.4-1.1,0.9l-1.3-1c0.8-1.2,1.6-1.7,2.4-1.7c1.3,0,1.9,1.2,2.8,1.2
				c0.4,0,0.8-0.4,1.1-0.9l1.3,1c-0.8,1.2-1.6,1.7-2.4,1.7C530.1,449.2,529.5,448,528.7,448z"/>
			<path class="st15" d="M535.4,451h2.2V445h-1.9v-1.5c1.1-0.2,1.8-0.5,2.6-0.9h1.8v8.4h1.9v2h-6.6V451z"/>
			<path class="st15" d="M543.4,447.7c0-3.6,1.5-5.4,3.7-5.4c2.2,0,3.7,1.8,3.7,5.4s-1.5,5.4-3.7,5.4
				C544.9,453.2,543.4,451.3,543.4,447.7z M548.4,447.7c0-2.8-0.6-3.5-1.3-3.5c-0.8,0-1.3,0.6-1.3,3.5c0,2.8,0.6,3.5,1.3,3.5
				C547.8,451.3,548.4,450.6,548.4,447.7z"/>
		</g>
		<g>
			<path class="st15" d="M536.6,478.5c-0.4,0-0.8,0.4-1.1,0.9l-1.3-1c0.8-1.2,1.6-1.7,2.4-1.7c1.3,0,1.9,1.2,2.8,1.2
				c0.4,0,0.8-0.4,1.1-0.9l1.3,1c-0.8,1.2-1.6,1.7-2.4,1.7C538,479.7,537.5,478.5,536.6,478.5z"/>
			<path class="st15" d="M542.9,482.4l1.3-1.5c0.3,0.4,1,0.7,1.6,0.7c1.1,0,1.9-0.8,2-3c-0.5,0.7-1.4,1-2,1c-1.7,0-3-1-3-3.3
				c0-2.2,1.6-3.5,3.4-3.5c2,0,3.9,1.5,3.9,5.3c0,3.8-2,5.5-4.1,5.5C544.6,483.7,543.6,483.1,542.9,482.4z M546.3,477.9
				c0.5,0,1.1-0.3,1.5-0.9c-0.2-1.8-0.8-2.3-1.5-2.3s-1.2,0.5-1.2,1.7C545,477.5,545.6,477.9,546.3,477.9z"/>
		</g>
		<g>
			<path class="st15" d="M542.3,511.4c0-1.3,0.7-2.1,1.7-2.6v-0.1c-0.8-0.6-1.4-1.4-1.4-2.5c0-1.7,1.4-2.8,3.3-2.8
				c1.9,0,3.1,1.1,3.1,2.8c0,1-0.6,1.8-1.3,2.3v0.1c1,0.5,1.8,1.4,1.8,2.8c0,1.6-1.5,2.8-3.6,2.8
				C543.9,514.2,542.3,513.1,542.3,511.4z M547.2,511.3c0-0.9-0.8-1.3-2.1-1.9c-0.4,0.4-0.7,1-0.7,1.7c0,0.9,0.7,1.4,1.5,1.4
				C546.7,512.5,547.2,512.1,547.2,511.3z M547.1,506.4c0-0.8-0.4-1.2-1.2-1.2c-0.6,0-1.1,0.4-1.1,1.1c0,0.8,0.6,1.3,1.7,1.7
				C546.9,507.4,547.1,506.9,547.1,506.4z"/>
		</g>
		<g>
			<path class="st15" d="M546.3,533.3h-4.5v-2.1h7.1v1.5c-2.4,2.9-2.7,4.8-2.8,8.9h-2.5C543.8,538.2,544.3,536.1,546.3,533.3z"/>
		</g>
		<g>
			<path class="st15" d="M534.9,567.2c-0.4,0-0.8,0.4-1.1,0.9l-1.3-1c0.8-1.2,1.6-1.7,2.4-1.7c1.3,0,1.9,1.2,2.8,1.2
				c0.4,0,0.8-0.4,1.1-0.9l1.3,1c-0.8,1.2-1.6,1.7-2.4,1.7C536.3,568.4,535.7,567.2,534.9,567.2z"/>
			<path class="st15" d="M541.2,567.1c0-3.8,2-5.5,4.1-5.5c1.4,0,2.4,0.6,3,1.2l-1.3,1.5c-0.4-0.4-1-0.7-1.6-0.7c-1.1,0-1.9,0.8-2,3
				c0.5-0.6,1.4-1,2-1c1.7,0,3,1,3,3.3c0,2.2-1.6,3.5-3.4,3.5C543.1,572.4,541.2,570.9,541.2,567.1z M543.5,568.3
				c0.2,1.7,0.9,2.2,1.5,2.2s1.2-0.5,1.2-1.7c0-1.1-0.6-1.5-1.3-1.5C544.4,567.3,543.9,567.6,543.5,568.3z"/>
		</g>
		<g>
			<path class="st15" d="M534.3,597.7c-0.4,0-0.8,0.4-1.1,0.9l-1.3-1c0.8-1.2,1.6-1.7,2.4-1.7c1.3,0,1.9,1.2,2.8,1.2
				c0.4,0,0.8-0.4,1.1-0.9l1.3,1c-0.8,1.2-1.6,1.7-2.4,1.7C535.7,598.9,535.2,597.7,534.3,597.7z"/>
			<path class="st15" d="M540.3,601.5l1.1-1.6c0.6,0.6,1.3,1,2.1,1c1,0,1.6-0.6,1.6-1.6s-0.6-1.6-1.5-1.6c-0.6,0-0.9,0.1-1.5,0.5
				l-1.1-0.7l0.3-5.2h5.8v2.1h-3.7l-0.1,1.8c0.4-0.1,0.7-0.2,1.1-0.2c1.8,0,3.2,1,3.2,3.3c0,2.4-1.8,3.7-3.8,3.7
				C542.3,602.9,541.1,602.3,540.3,601.5z"/>
		</g>
		<g>
			<path class="st15" d="M544,630.6h-4.4v-1.7l3.6-6.1h3.1v5.9h1.2v1.9h-1.2v2.6H544V630.6z M544,628.7v-1.5c0-0.7,0-1.6,0.1-2.3
				h-0.1c-0.3,0.6-0.5,1.2-0.8,1.8l-1.2,2.1H544z"/>
		</g>
		<g>
			<path class="st15" d="M533.1,658.7c-0.4,0-0.8,0.4-1.1,0.9l-1.3-1c0.8-1.2,1.6-1.7,2.4-1.7c1.3,0,1.9,1.2,2.8,1.2
				c0.4,0,0.8-0.4,1.1-0.9l1.3,1c-0.8,1.2-1.6,1.7-2.4,1.7C534.6,659.9,534,658.7,533.1,658.7z"/>
			<path class="st15" d="M539.1,662.5l1.1-1.6c0.6,0.6,1.4,1,2.2,1c1,0,1.6-0.4,1.6-1.2c0-0.9-0.5-1.4-2.7-1.4v-1.8
				c1.8,0,2.3-0.5,2.3-1.4c0-0.7-0.4-1.1-1.2-1.1c-0.7,0-1.2,0.3-1.9,0.9l-1.2-1.5c0.9-0.8,2-1.3,3.2-1.3c2.2,0,3.6,1,3.6,2.9
				c0,1.1-0.6,1.8-1.7,2.3v0.1c1.2,0.3,2,1.2,2,2.5c0,2-1.8,3-3.8,3C541,663.9,539.9,663.3,539.1,662.5z"/>
		</g>
		<g>
			<path class="st15" d="M538.8,692.7c2.7-2.3,4.4-4.2,4.4-5.6c0-1-0.5-1.5-1.4-1.5c-0.7,0-1.3,0.5-1.8,1l-1.3-1.3
				c1-1.1,1.9-1.7,3.4-1.7c2,0,3.4,1.3,3.4,3.3c0,1.9-1.7,3.8-3.3,5.4c0.5,0,1.2-0.1,1.7-0.1h2.1v2.1h-7.2V692.7z"/>
		</g>
		<g>
			<path class="st15" d="M509.1,717.3h-2.8v-2.1h8.1v2.1h-2.8v8.3h-2.5V717.3z"/>
			<path class="st15" d="M517.5,720.3l-2.7-5.1h2.8l0.8,1.9c0.2,0.5,0.5,1,0.8,1.7h0.1c0.2-0.7,0.5-1.2,0.7-1.7l0.8-1.9h2.6
				l-2.7,5.2l2.9,5.2h-2.8l-1-2c-0.3-0.5-0.5-1.1-0.8-1.7h-0.1c-0.2,0.6-0.5,1.2-0.7,1.7l-0.9,2h-2.7L517.5,720.3z"/>
			<path class="st15" d="M537.3,720.4l-5,5c-0.4,0.4-1,0.4-1.4,0s-0.4-1,0-1.4l3.3-3.3h-9.6c-0.6,0-1-0.4-1-1s0.4-1,1-1h9.6
				l-3.3-3.3c-0.4-0.4-0.4-1,0-1.4s1-0.4,1.4,0l5,5C537.7,719.3,537.7,720,537.3,720.4L537.3,720.4z"/>
			<path class="st15" d="M538.7,723.7h2.2v-5.9H539v-1.5c1.1-0.2,1.8-0.5,2.6-0.9h1.8v8.4h1.9v2h-6.6V723.7z"/>
		</g>
		<g>
			<path class="st15" d="M505.3,745.8h3.8c2.2,0,4.1,0.8,4.1,3.3c0,1.5-0.7,2.5-1.8,3l2.3,4.1H511l-1.9-3.7h-1.2v3.7h-2.5V745.8z
				 M509,750.5c1.2,0,1.8-0.5,1.8-1.5s-0.6-1.3-1.8-1.3h-1.1v2.8H509z"/>
			<path class="st15" d="M516.9,750.8l-2.7-5.1h2.8l0.8,1.9c0.2,0.5,0.5,1,0.8,1.7h0.1c0.2-0.7,0.5-1.2,0.7-1.7l0.8-1.9h2.6
				l-2.7,5.2l2.9,5.2h-2.8l-1-2c-0.3-0.5-0.5-1.1-0.8-1.7h-0.1c-0.2,0.6-0.5,1.2-0.7,1.7l-0.9,2H514L516.9,750.8z"/>
			<path class="st15" d="M523.3,749.5l5-5c0.4-0.4,1-0.4,1.4,0s0.4,1,0,1.4l-3.3,3.3h9.6c0.6,0,1,0.4,1,1s-0.4,1-1,1h-9.6l3.3,3.3
				c0.4,0.4,0.4,1,0,1.4s-1,0.4-1.4,0l-5-5C523,750.5,523,749.9,523.3,749.5L523.3,749.5z"/>
			<path class="st15" d="M537.6,750.9c0-3.6,1.5-5.4,3.7-5.4c2.2,0,3.7,1.8,3.7,5.4s-1.5,5.4-3.7,5.4
				C539.1,756.4,537.6,754.5,537.6,750.9z M542.7,750.9c0-2.8-0.6-3.5-1.3-3.5c-0.8,0-1.3,0.6-1.3,3.5c0,2.8,0.6,3.5,1.3,3.5
				C542,754.5,542.7,753.8,542.7,750.9z"/>
		</g>
	</g>
	<g>
		<rect x="396.2" y="331" class="st9" width="10.7" height="17.2"/>
		<rect x="396.2" y="333.5" class="st7" width="10.7" height="11.8"/>
	</g>
</g>
<g id="layer1-1">
	
		<rect id="rect815" x="662.9" y="125.6" transform="matrix(1 -1.216143e-03 1.216143e-03 1 -0.2998 0.8799)" width="121" height="242.7"/>
	<rect id="rect821" x="681" y="345" class="st15" width="84.7" height="21.5"/>
	<path id="rect825" class="st27" d="M685.5,346.2h12.6c2.2,0,4,1.8,4,4v11.1c0,2.2-1.8,4-4,4h-12.6c-2.2,0-4-1.8-4-4v-11.1
		C681.5,348,683.3,346.2,685.5,346.2z"/>
	<path id="rect872" class="st27" d="M727.6,346.2h12.6c2.2,0,4,1.8,4,4v11.1c0,2.2-1.8,4-4,4h-12.6c-2.2,0-4-1.8-4-4v-11.1
		C723.6,348,725.4,346.2,727.6,346.2z"/>
	<path id="rect874" class="st27" d="M706,346.2h13.7c1.9,0,3.5,1.6,3.5,3.5v12.1c0,1.9-1.6,3.5-3.5,3.5H706c-1.9,0-3.5-1.6-3.5-3.5
		v-12.1C702.5,347.8,704.1,346.2,706,346.2z"/>
	<rect id="rect947" x="690.6" y="356.6" class="st28" width="2.1" height="40.4"/>
	<rect id="rect949" x="711.8" y="356.6" class="st28" width="2.1" height="40.4"/>
	<rect id="rect951" x="732.8" y="356.6" class="st28" width="2.1" height="40.4"/>
	<rect id="rect87" x="680" y="273.2" width="86.3" height="21.7"/>
	<path id="path31-1-7" class="st15" d="M697.3,173.2c0.7,0,0.8,0,1-0.1c0.1-0.1,0.2-0.1,0.2-0.2c0.1-0.1,0.1-0.2,0.1-1.8v-1.6h1.6
		h1.6v2c0,2.2,0,2.4-0.2,3c-0.3,0.7-0.9,1.2-1.7,1.3c-0.5,0.1-1,0.1-1.5,0.1c-0.6,0-1.3,0-1.5,0h-0.4v-1.3v-1.3L697.3,173.2
		L697.3,173.2z M712.5,177.8c13.7,0,17,0,16.5,0.1h-0.1h0.1c0.1,0,0.1,0-0.1,0c-0.1,0-0.1,0,0.1,0h0.3H729c-0.2,0-0.2,0-0.2,0
		c0.1,0,0.1,0.1,0.1,0.4c0,0.4,0,0.4,0.1,0.4s0.1,0-0.1,0c-0.1,0-0.2,0-0.2,0s-5.4,0-16.2,0.1h-16.2v-0.6v-0.6L712.5,177.8z
		 M700.2,165.3h1.6v1.3v1.3h-1.6h-1.6v-1.3v-1.3H700.2z M703.5,170.2c0.1-0.7,0.3-1.4,0.6-2c0.1-0.1,0.1-0.3,0.2-0.4
		c0.1-0.1,0.1-0.2,0.2-0.3c0.2-0.3,0.4-0.5,0.6-0.8c0,0,0,0,0.1-0.1c0.2-0.2,0.4-0.5,0.7-0.6c0.4-0.3,0.8-0.5,1.2-0.6
		c0.6-0.2,1.3-0.3,1.9-0.3c0.4,0,0.8,0,1.1,0.2c0.2,0.1,0.5,0.2,0.6,0.2s0.2,0.1,0.3,0.1c0.1,0.1,0.3,0.1,0.4,0.2
		c0.9,0.6,1.7,1.5,2.2,2.5c0.6,1.3,0.7,2.8,0.2,4.1c-0.1,0.4-0.3,0.8-0.6,1.2s-0.6,0.8-1,1.1c-0.6,0.7-1.4,1.1-2.3,1.3
		c-0.7,0.1-1.4,0.2-2,0.1c-0.8-0.1-1.5-0.5-2.2-0.9c-0.3-0.2-0.5-0.4-0.7-0.6c-0.1-0.1-0.1-0.2-0.2-0.2c-0.7-0.8-1.2-1.7-1.4-2.7
		C703.5,171.2,703.4,170.7,703.5,170.2L703.5,170.2z M706.5,171.5c0.2,0.6,0.5,1.2,0.9,1.6c0.5,0.5,1.3,0.6,1.9,0.4
		c0.8-0.4,1.5-1.1,1.7-2c0.1-0.6,0.1-1.2,0-1.8c-0.2-0.7-0.6-1.3-1.1-1.7c-0.2-0.1-0.4-0.2-0.6-0.3c-0.5-0.1-1-0.1-1.5,0.2
		c-0.4,0.3-0.8,0.7-1,1.2C706.4,169.9,706.3,170.7,706.5,171.5L706.5,171.5z M715.6,165.3c0,0,0.8,0,1.6,0h1.6v1.4
		c0,1.4,0,1.5,0.1,1.7c0.3,0.6,1,0.9,1.6,0.7c0.3-0.1,0.6-0.3,0.7-0.6l0.1-0.3v-1.5v-1.5h1.6h1.6v1.7c0.1,0.7,0,1.4-0.1,2
		c-0.2,0.6-0.4,1.2-0.8,1.7c-0.1,0.1-0.1,0.2-0.2,0.2c-0.2,0.3-0.5,0.5-0.8,0.7s-0.6,0.4-1,0.5c-0.1,0-0.3,0.1-0.5,0.1
		c-0.4,0.1-0.8,0.2-1.2,0.1c-0.4,0-0.8,0-1.2-0.1c-0.5-0.1-0.9-0.3-1.3-0.5c-0.5-0.3-0.9-0.7-1.2-1.2c-0.4-0.6-0.7-1.3-0.8-2
		C715.5,167.4,715.5,166.4,715.6,165.3L715.6,165.3z M720.1,173.3h2.6v1.4v1.4h-2.6h-2.6v-1.4v-1.4H720.1z M724.6,163.2
		c0,0,0-0.1,0-0.2c0-0.2,0-0.2,0.2-0.2c0.1,0,4.6,0,9.9,0h9.7v0.6v0.6h-9.9c-5.4,0-9.9,0-10,0s-0.1-0.1-0.1-0.4
		C724.6,163.4,724.6,163.2,724.6,163.2L724.6,163.2z M729.1,169.7h3.4v1.3v1.3h-3.4h-3.4V171v-1.3H729.1z M735.1,165.3h1.6v1.3v1.3
		h-1.6h-1.6v-1.3v-1.3H735.1z M735.1,169.3h1.6v3.4v3.4h-1.6h-1.6v-3.4v-3.4H735.1z M741.5,165.3h3.4v1.3v1.3h-3.4h-3.4v-1.3v-1.3
		H741.5z M738.7,169.5c0,0,0.7,0,1.6,0h1.6v1.6c0,2.2-0.1,2.1,1.6,2.1h1v1.4v1.4h-0.4c-1,0.1-2,0.1-2.9,0c-0.7,0-1.3-0.4-1.8-0.8
		c-0.4-0.5-0.6-1.1-0.7-1.7C738.7,172.9,738.7,169.5,738.7,169.5L738.7,169.5z M746.8,164c0.1-0.3,0.2-0.5,0.4-0.7
		c0.6-0.6,1.6-0.7,2.3-0.2c0.3,0.2,0.5,0.4,0.6,0.7c0.1,0.2,0.2,0.5,0.1,0.7c0,0.2,0,0.5-0.1,0.7c-0.3,0.6-0.8,0.9-1.5,1
		c-0.5,0.1-1.1-0.2-1.4-0.6C746.8,165.2,746.7,164.6,746.8,164L746.8,164z M747.1,165.1c0.2,0.4,0.6,0.7,1.1,0.8s1,0,1.4-0.4
		c0.1-0.1,0.3-0.3,0.3-0.4c0.1-0.2,0.2-0.4,0.1-0.7c0-0.2,0-0.5-0.2-0.7c-0.1-0.2-0.2-0.4-0.4-0.5c-0.1-0.1-0.3-0.2-0.5-0.3
		c-0.8-0.2-1.6,0.1-1.9,0.9C747,164.3,747,164.7,747.1,165.1L747.1,165.1z M748.3,163.4c0.2,0,0.5,0,0.7,0c0.3,0.2,0.4,0.5,0.2,0.8
		c-0.1,0.1-0.1,0.1-0.2,0.2l-0.1,0.1l0.1,0.2c0.1,0.1,0.2,0.3,0.3,0.4c0,0.1,0.1,0.2,0.2,0.3c0.1,0.1,0,0.1-0.1,0.1h-0.2l-0.3-0.4
		c-0.3-0.4-0.3-0.5-0.7-0.5H748v0.5v0.5h-0.1h-0.1v-1v-1L748.3,163.4z M748.4,164.3c0.3,0,0.4,0,0.5-0.1c0.2-0.2,0.1-0.5-0.2-0.5
		c-0.2,0-0.4,0-0.6,0c0,0.1,0,0.2,0,0.3v0.3H748.4z"/>
	<path id="rect64" class="st27" d="M748.5,346.2h12.6c2.2,0,4,1.8,4,4v11.1c0,2.2-1.8,4-4,4h-12.6c-2.2,0-4-1.8-4-4v-11.1
		C744.5,348,746.3,346.2,748.5,346.2z"/>
	<rect id="rect66" x="753.7" y="356.6" class="st28" width="2.1" height="40.4"/>
	<rect id="rect103" x="662.8" y="66.9" width="26.9" height="58.9"/>
	<rect id="rect105" x="757" y="66.8" width="26.9" height="58.9"/>
	<circle id="path107" class="st29" cx="723.3" cy="301.7" r="29.6"/>
	<circle id="path133" class="st15" cx="723.3" cy="301.7" r="24.2"/>
	<rect id="rect137" x="662.8" y="188.4" class="st15" width="45.7" height="80.7"/>
	<rect id="rect141" x="662.8" y="190.1" width="43" height="77.5"/>
	<rect id="rect139" x="664.2" y="189.8" class="st30" width="43" height="78"/>
	<circle id="path144" class="st31" cx="670.9" cy="261.1" r="6.7"/>
	<rect id="rect952" x="664.2" y="260.1" class="st32" width="13.5" height="2.2"/>
	<rect id="rect956" x="725.2" y="201.9" class="st15" width="58.6" height="45.7"/>
	<rect id="rect958" x="726.6" y="203.3" width="56" height="43"/>
	<rect id="rect960" x="735.7" y="206" class="st33" width="37.7" height="37.7"/>
	<rect id="rect962" x="735.7" y="243.6" class="st29" width="6.7" height="10.8"/>
	<rect id="rect964" x="766.7" y="243.6" class="st29" width="6.7" height="10.8"/>
	<rect id="rect966" x="745.1" y="243.6" class="st29" width="6.7" height="10.8"/>
	<rect id="rect968" x="757.2" y="243.6" class="st29" width="6.7" height="10.8"/>
	<rect id="rect970" x="735.7" y="195.2" class="st29" width="6.7" height="10.8"/>
	<rect id="rect972" x="766.7" y="195.2" class="st29" width="6.7" height="10.8"/>
	<rect id="rect974" x="745.1" y="195.2" class="st29" width="6.7" height="10.8"/>
	<rect id="rect976" x="757.2" y="195.2" class="st29" width="6.7" height="10.8"/>
	<polygon id="rect978" class="st28" points="738,242.3 740.1,242.3 740.2,249 738,249 	"/>
	<polygon id="rect980" class="st28" points="747.4,242.3 749.6,242.3 749.6,249 747.5,249 	"/>
	<polygon id="rect982" class="st28" points="759.5,242.3 761.7,242.3 761.7,249 759.6,249 	"/>
	<polygon id="rect984" class="st28" points="768.9,242.3 771.1,242.3 771.1,249 769,249 	"/>
	<polygon id="rect986" class="st28" points="738,207.3 740.1,207.3 740.2,200.6 738,200.6 	"/>
	<polygon id="rect988" class="st28" points="747.4,207.3 749.6,207.3 749.6,200.6 747.5,200.6 	"/>
	<polygon id="rect990" class="st28" points="759.5,207.3 761.7,207.3 761.7,200.6 759.6,200.6 	"/>
	<polygon id="rect992" class="st28" points="768.9,207.3 771.1,207.3 771.1,200.6 769,200.6 	"/>
	<circle id="path994" class="st29" cx="770.4" cy="93" r="9.4"/>
	<circle id="circle996" class="st29" cx="676.3" cy="93" r="9.4"/>
	<path id="rect836-7" class="st29" d="M711.2,129.3h4c4.1,0,7.4,3.3,7.4,7.4l0,0c0,4.1-3.3,7.4-7.4,7.4h-4c-4.1,0-7.4-3.3-7.4-7.4
		l0,0C703.8,132.6,707.1,129.3,711.2,129.3z"/>
	<path id="rect836-6" class="st29" d="M731.3,129.3h4c4.1,0,7.4,3.3,7.4,7.4l0,0c0,4.1-3.3,7.4-7.4,7.4h-4c-4.1,0-7.4-3.3-7.4-7.4
		l0,0C723.9,132.6,727.2,129.3,731.3,129.3z"/>
	
		<rect id="rect943" x="747.4" y="129.3" transform="matrix(1 -8.295344e-03 8.295344e-03 1 -1.1247 6.2626)" class="st29" width="13.9" height="18.8"/>
	<path id="rect1026" class="st29" d="M689.9,129.2h7.6c1.8,0,3.2,1.4,3.2,3.2v13.8c0,1.8-1.4,3.2-3.2,3.2h-7.6
		c-1.8,0-3.2-1.4-3.2-3.2v-13.8C686.7,130.6,688.1,129.2,689.9,129.2L689.9,129.2L689.9,129.2z"/>
	<circle id="path1028" class="st15" cx="693.7" cy="142.6" r="4"/>
	<path id="rect1030" class="st29" d="M685.6,136.4v4.1c0,4.1-3.2,7.4-7.3,7.5l0,0c-4.1,0-7.4-3.2-7.5-7.3l0,0v-4.1
		c0-4.1,3.2-7.4,7.3-7.5l0,0C682.2,129.1,685.5,132.4,685.6,136.4L685.6,136.4z"/>
	<circle id="circle105" class="st15" cx="678.2" cy="138.6" r="5.4"/>
	<path id="rect132-2" class="st34" d="M673.1,59.4h-2.2l1.9,14.7l0,0l2.4,18.8h2.2L675,74l0,0L673.1,59.4z"/>
	<path id="rect134-0" class="st34" d="M773.6,59.4L771.7,74l0,0l-2.4,19h2.2l2.4-18.8l0,0l1.9-14.8L773.6,59.4z"/>
	<polygon id="rect142-2" class="st34" points="683.9,59.4 683.9,61.6 671.2,61.6 671.2,59.5 	"/>
	<polygon id="rect144-4" class="st34" points="775.4,59.4 775.5,61.5 762.5,61.6 762.5,59.4 	"/>
	<path id="path129-9" class="st35" d="M690.2,52.1L690.2,52.1c-2.6,0.1-4.9,1.5-6.2,3.7c-1.3,2.3-1.3,5.1,0,7.4
		c1.3,2.2,3.6,3.6,6.2,3.7l0,0H757l0,0c-0.1,0-0.2,0-0.3,0l0,0c2.5-0.1,4.7-1.5,6-3.7c1.3-2.3,1.3-5.1,0-7.4c-1.2-2.2-3.5-3.5-6-3.7
		l0,0H690.2L690.2,52.1z M756.7,52.1c0.1,0,0.2,0,0.3,0l0,0H756.7z"/>
	<circle id="circle124-6" class="st15" cx="713.1" cy="136.7" r="5.4"/>
	<circle id="circle126-2" class="st15" cx="733.3" cy="136.7" r="5.4"/>
	<g id="text114">
		<g class="st36">
			<path class="st15" d="M780.4,170.6L780.4,170.6l0.2,0.1c0,0.1,0,0.1,0.1,0.2c0,0.1,0,0.2,0,0.4s0,0.4,0,0.5s0,0.2-0.1,0.3
				c0,0.1-0.1,0.1-0.2,0.1l-5.4,4h5.4h0.1l0.1,0.1c0,0,0,0.1,0,0.2s0,0.2,0,0.3s0,0.2,0,0.3s0,0.2,0,0.2c0,0.1,0,0.1-0.1,0.1h-0.1
				H770h-0.1l-0.1-0.1c0-0.1,0-0.1,0-0.2c0-0.1,0-0.2,0-0.3s0-0.3,0-0.3c0-0.1,0-0.2,0-0.2s0-0.1,0.1-0.1h0.1h4.8l-4.8-3.8l-0.1-0.1
				c0,0-0.1-0.1-0.1-0.2s0-0.1,0-0.2c0-0.1,0-0.2,0-0.4s0-0.3,0-0.4c0-0.1,0-0.2,0.1-0.2s0-0.1,0.1-0.1h0.1c0.1,0,0.1,0,0.2,0.1
				s0.2,0.1,0.3,0.2l4.3,3.6l5.1-3.9c0.1-0.1,0.2-0.2,0.3-0.2C780.3,170.6,780.4,170.6,780.4,170.6z"/>
		</g>
		<g class="st36">
			<path class="st15" d="M776.5,165.4h4h0.1l0.1,0.1c0,0.1,0,0.1,0,0.2c0,0.1,0,0.2,0,0.3s0,0.3,0,0.3v0.2c0,0,0,0.1-0.1,0.1h-0.1
				h-4l-6.1,3.1c-0.1,0.1-0.2,0.1-0.3,0.1s-0.1,0-0.2,0c0,0-0.1-0.1-0.1-0.2c0-0.1,0-0.3,0-0.4c0-0.2,0-0.3,0-0.4c0-0.1,0-0.2,0-0.2
				s0-0.1,0.1-0.1l0.1-0.1l3.1-1.5c0.3-0.1,0.6-0.3,0.9-0.4s0.6-0.3,1-0.4l0,0c-0.3-0.1-0.6-0.3-0.9-0.4c-0.3-0.1-0.6-0.3-0.9-0.4
				l-3.1-1.5c-0.1,0-0.1,0-0.1-0.1l-0.1-0.1c0,0,0-0.1,0-0.2c0-0.1,0-0.2,0-0.4s0-0.4,0-0.5s0-0.2,0.1-0.2s0.1-0.1,0.2,0
				c0.1,0,0.2,0.1,0.3,0.1L776.5,165.4z"/>
		</g>
		<g class="st36">
			<path class="st15" d="M776.4,158.2c0.2,0,0.4,0,0.5,0.1c0.1,0,0.1,0.1,0.1,0.2v3.5c0,0.1,0,0.2-0.1,0.2s-0.2,0.1-0.4,0.1
				s-0.4,0-0.4-0.1c-0.1-0.1-0.1-0.1-0.1-0.2v-3.5v-0.1c0,0,0-0.1,0.1-0.1c0,0,0.1,0,0.2-0.1C776.2,158.2,776.3,158.2,776.4,158.2z"
				/>
			<path class="st15" d="M775.2,149.6c0.8,0,1.6,0.1,2.3,0.2c0.7,0.1,1.3,0.3,1.8,0.7s0.9,0.7,1.1,1.2s0.4,1.1,0.4,1.8
				s-0.1,1.2-0.4,1.7c-0.2,0.5-0.6,0.8-1.1,1.1s-1,0.5-1.7,0.6s-1.5,0.2-2.4,0.2c-0.8,0-1.6-0.1-2.3-0.2c-0.7-0.1-1.3-0.4-1.8-0.7
				s-0.9-0.7-1.1-1.2c-0.3-0.5-0.4-1.1-0.4-1.8s0.1-1.3,0.4-1.7c0.2-0.5,0.6-0.8,1.1-1.1s1-0.5,1.7-0.6
				C773.5,149.6,774.3,149.6,775.2,149.6z M775.3,151.1c-0.5,0-1,0-1.5,0.1c-0.4,0-0.8,0.1-1.1,0.2s-0.6,0.2-0.8,0.3
				s-0.4,0.3-0.6,0.4s-0.3,0.4-0.3,0.6c-0.1,0.2-0.1,0.5-0.1,0.7c0,0.5,0.1,0.9,0.3,1.2s0.5,0.5,0.9,0.7s0.8,0.3,1.4,0.3
				c0.5,0.1,1.1,0.1,1.7,0.1c0.8,0,1.5,0,2.1-0.1s1-0.2,1.4-0.4s0.6-0.4,0.8-0.7s0.2-0.6,0.2-1c0-0.3,0-0.6-0.2-0.8
				c-0.1-0.2-0.2-0.4-0.4-0.6c-0.2-0.2-0.4-0.3-0.7-0.4c-0.3-0.1-0.6-0.2-0.9-0.3c-0.3-0.1-0.7-0.1-1-0.1
				C776.1,151.1,775.7,151.1,775.3,151.1z"/>
			<path class="st15" d="M780,141.3c0.1,0,0.2,0,0.3,0s0.1,0,0.2,0.1c0.1,0,0.1,0.1,0.1,0.1v0.1v6c0,0.1,0,0.1,0,0.2
				c0,0.1-0.1,0.1-0.1,0.1s-0.1,0.1-0.2,0.1c-0.1,0-0.2,0-0.3,0s-0.2,0-0.3,0s-0.2,0-0.2-0.1c-0.1,0-0.1-0.1-0.2-0.1
				c-0.1,0-0.1-0.1-0.2-0.2l-2.2-2.2c-0.5-0.5-1-0.9-1.4-1.2s-0.8-0.5-1.1-0.7s-0.6-0.3-0.9-0.3s-0.5-0.1-0.8-0.1s-0.5,0-0.7,0.1
				s-0.4,0.2-0.6,0.3c-0.2,0.2-0.3,0.3-0.4,0.6s-0.1,0.5-0.1,0.8c0,0.4,0,0.7,0.1,0.9s0.2,0.5,0.3,0.7s0.2,0.4,0.3,0.5
				s0.1,0.2,0.1,0.3v0.1l-0.1,0.1c-0.1,0-0.1,0-0.2,0c-0.1,0-0.2,0-0.3,0s-0.2,0-0.2,0c-0.1,0-0.1,0-0.2,0c0,0-0.1,0-0.1-0.1
				l-0.1-0.1c-0.1-0.1-0.1-0.2-0.2-0.3c-0.1-0.2-0.2-0.4-0.3-0.6c-0.1-0.2-0.2-0.5-0.2-0.8c-0.1-0.3-0.1-0.6-0.1-0.9
				c0-0.5,0.1-1,0.2-1.4c0.1-0.4,0.3-0.7,0.6-1s0.6-0.5,0.9-0.6c0.3-0.1,0.7-0.2,1.1-0.2c0.3,0,0.7,0,1,0.1s0.7,0.2,1.1,0.4
				s0.8,0.5,1.3,0.9s1,0.9,1.7,1.5l1.8,1.7v-4.7v-0.1l0.1-0.1c0,0,0.1-0.1,0.2-0.1S779.9,141.3,780,141.3z"/>
			<path class="st15" d="M777.2,132.7c0.6,0,1.1,0.1,1.5,0.3s0.8,0.5,1.1,0.8c0.3,0.4,0.5,0.8,0.7,1.3s0.2,1,0.2,1.6
				c0,0.3,0,0.7-0.1,1c0,0.3-0.1,0.6-0.2,0.8c-0.1,0.2-0.1,0.4-0.2,0.6c-0.1,0.1-0.1,0.2-0.2,0.3l-0.1,0.1h-0.1c0,0-0.1,0-0.2,0
				s-0.2,0-0.3,0s-0.2,0-0.3,0s-0.1,0-0.2,0c0,0-0.1,0-0.1-0.1v-0.1c0-0.1,0-0.1,0.1-0.3c0.1-0.1,0.1-0.3,0.2-0.5
				c0.1-0.2,0.2-0.4,0.2-0.7s0.1-0.6,0.1-1s0-0.7-0.1-1s-0.2-0.6-0.4-0.8s-0.4-0.4-0.7-0.5s-0.6-0.2-1-0.2c-0.3,0-0.6,0.1-0.9,0.2
				c-0.3,0.1-0.5,0.3-0.7,0.5s-0.3,0.5-0.4,0.9s-0.1,0.8-0.1,1.2c0,0.3,0,0.6,0,0.9c0,0.2,0,0.5,0,0.7s0,0.3-0.1,0.3
				s-0.2,0.1-0.4,0.1h-4.4c-0.2,0-0.3,0-0.4-0.1c-0.1-0.1-0.1-0.2-0.1-0.4v-4.8v-0.1l0.1-0.1c0,0,0.1,0,0.2-0.1c0.1,0,0.2,0,0.3,0
				c0.2,0,0.4,0,0.5,0.1s0.2,0.1,0.2,0.2v3.9h3c0-0.2,0-0.4,0-0.6s0-0.4,0-0.7c0-0.6,0.1-1.1,0.2-1.6c0.1-0.4,0.4-0.8,0.6-1.1
				c0.3-0.3,0.6-0.5,1-0.7C776.3,132.8,776.7,132.7,777.2,132.7z"/>
		</g>
	</g>
	<g id="text118">
		<g class="st36">
			<path class="st15" d="M692.6,343.7c0,0.1,0.1,0.2,0.1,0.3s0,0.1-0.1,0.2c0,0-0.1,0.1-0.2,0.1c-0.1,0-0.2,0-0.4,0s-0.3,0-0.4,0
				c-0.1,0-0.2,0-0.2,0s-0.1,0-0.1-0.1c0,0,0-0.1-0.1-0.1l-0.9-2.6h-4.5l-0.9,2.6c0,0.1,0,0.1-0.1,0.1l-0.1,0.1
				c-0.1,0-0.1,0-0.2,0.1c-0.1,0-0.2,0-0.4,0s-0.3,0-0.4,0c-0.1,0-0.2,0-0.2-0.1c0,0-0.1-0.1-0.1-0.2s0-0.2,0.1-0.3l3.6-10
				c0-0.1,0.1-0.1,0.1-0.2s0.1-0.1,0.2-0.1c0.1,0,0.2,0,0.3,0s0.2,0,0.4,0s0.3,0,0.4,0c0.1,0,0.2,0,0.3,0s0.1,0.1,0.2,0.1
				c0,0,0.1,0.1,0.1,0.2L692.6,343.7z M687.9,334.9L687.9,334.9l-1.9,5.4h3.8L687.9,334.9z"/>
			<path class="st15" d="M701,338.8c0,0.8-0.1,1.6-0.2,2.3c-0.1,0.7-0.3,1.3-0.7,1.8s-0.7,0.9-1.2,1.1c-0.5,0.3-1.1,0.4-1.8,0.4
				s-1.2-0.1-1.7-0.4c-0.5-0.2-0.8-0.6-1.1-1.1s-0.5-1-0.6-1.7s-0.2-1.5-0.2-2.4c0-0.8,0.1-1.6,0.2-2.3c0.1-0.7,0.4-1.3,0.7-1.8
				s0.7-0.9,1.2-1.1c0.5-0.3,1.1-0.4,1.8-0.4s1.3,0.1,1.7,0.4c0.5,0.2,0.8,0.6,1.1,1.1s0.5,1,0.6,1.7
				C700.9,337.1,701,337.9,701,338.8z M699.5,338.9c0-0.5,0-1-0.1-1.5c0-0.4-0.1-0.8-0.2-1.1c-0.1-0.3-0.2-0.6-0.3-0.8
				s-0.3-0.4-0.4-0.6s-0.4-0.3-0.6-0.3c-0.2-0.1-0.5-0.1-0.7-0.1c-0.5,0-0.9,0.1-1.2,0.3s-0.5,0.5-0.7,0.9s-0.3,0.8-0.3,1.4
				c-0.1,0.5-0.1,1.1-0.1,1.7c0,0.8,0,1.5,0.1,2.1s0.2,1,0.4,1.4s0.4,0.6,0.7,0.8s0.6,0.2,1,0.2c0.3,0,0.6,0,0.8-0.2
				c0.2-0.1,0.4-0.2,0.6-0.4c0.2-0.2,0.3-0.4,0.4-0.7c0.1-0.3,0.2-0.6,0.3-0.9s0.1-0.7,0.1-1C699.5,339.7,699.5,339.3,699.5,338.9z"
				/>
		</g>
	</g>
	<g id="text122">
		<g class="st36">
			<path class="st15" d="M717.2,334.9c0,0.1,0,0.2,0,0.3c0,0.1,0,0.1,0,0.2s0,0.1-0.1,0.1H717c-0.1,0-0.2-0.1-0.3-0.2
				c-0.2-0.1-0.4-0.2-0.6-0.4s-0.6-0.2-0.9-0.3c-0.4-0.1-0.8-0.2-1.3-0.2c-0.6,0-1.1,0.1-1.6,0.3s-0.9,0.5-1.2,0.9s-0.6,0.8-0.8,1.4
				s-0.3,1.1-0.3,1.7c0,0.7,0.1,1.3,0.3,1.8s0.5,1,0.8,1.4s0.7,0.6,1.2,0.8c0.5,0.2,1,0.3,1.5,0.3c0.3,0,0.7,0,1-0.1s0.7-0.2,1-0.4
				v-3.1h-2.5c-0.1,0-0.2,0-0.2-0.1s-0.1-0.2-0.1-0.4c0-0.1,0-0.2,0-0.3c0-0.1,0-0.1,0.1-0.2l0.1-0.1h0.1h3.4c0.1,0,0.1,0,0.2,0
				c0.1,0,0.1,0.1,0.2,0.1c0,0,0.1,0.1,0.1,0.2s0,0.2,0,0.3v4.1c0,0.1,0,0.3-0.1,0.4s-0.2,0.2-0.3,0.3c-0.2,0.1-0.4,0.2-0.6,0.3
				s-0.5,0.2-0.8,0.2c-0.3,0.1-0.5,0.1-0.8,0.1s-0.6,0.1-0.8,0.1c-0.8,0-1.6-0.1-2.2-0.4c-0.7-0.3-1.2-0.6-1.7-1.1s-0.8-1.1-1-1.7
				c-0.2-0.7-0.4-1.4-0.4-2.2c0-0.9,0.1-1.6,0.4-2.3s0.6-1.3,1.1-1.8s1-0.9,1.7-1.1s1.4-0.4,2.2-0.4c0.4,0,0.8,0,1.2,0.1
				s0.7,0.2,1,0.3c0.3,0.1,0.5,0.2,0.7,0.3s0.3,0.2,0.4,0.3s0.1,0.2,0.1,0.2C717.2,334.6,717.2,334.7,717.2,334.9z"/>
		</g>
	</g>
	<g id="text126">
		<g class="st36">
			<path class="st15" d="M737.6,340.5c0,0.1,0,0.2,0,0.3c0,0.1,0,0.1-0.1,0.2l-0.1,0.1h-0.1h-2.7v3v0.1l-0.1,0.1c0,0-0.1,0-0.2,0.1
				s-0.2,0-0.3,0s-0.2,0-0.3,0s-0.1,0-0.2-0.1c0,0-0.1,0-0.1-0.1v-0.1v-3h-2.7h-0.1l-0.1-0.1c0,0-0.1-0.1-0.1-0.2s0-0.2,0-0.3
				c0-0.1,0-0.2,0-0.3s0-0.1,0.1-0.2l0.1-0.1h0.1h2.7v-3v-0.1l0.1-0.1c0,0,0.1,0,0.2-0.1c0.1,0,0.2,0,0.3,0s0.2,0,0.3,0
				s0.1,0,0.2,0.1l0.1,0.1v0.1v3h2.7h0.1l0.1,0.1c0,0,0.1,0.1,0.1,0.2C737.6,340.3,737.6,340.4,737.6,340.5z"/>
		</g>
	</g>
	<g id="text130">
		<g class="st36">
			<path class="st15" d="M754.5,338.7c0,0.9-0.1,1.8-0.4,2.4c-0.2,0.7-0.6,1.3-1,1.7c-0.5,0.5-1,0.8-1.7,1s-1.5,0.3-2.4,0.3h-2.3
				c-0.1,0-0.2,0-0.4-0.1c-0.1-0.1-0.2-0.2-0.2-0.5V334c0-0.2,0.1-0.4,0.2-0.5s0.2-0.1,0.4-0.1h2.4c0.9,0,1.7,0.1,2.4,0.4
				c0.6,0.2,1.2,0.6,1.6,1s0.8,1,1,1.6C754.4,337.1,754.5,337.8,754.5,338.7z M753,338.7c0-0.6-0.1-1.1-0.2-1.6
				c-0.1-0.5-0.4-0.9-0.7-1.3s-0.7-0.7-1.2-0.9s-1.1-0.3-1.8-0.3h-1.5v8.4h1.5c0.7,0,1.3-0.1,1.7-0.3c0.5-0.2,0.9-0.4,1.2-0.8
				s0.6-0.8,0.7-1.3S753,339.5,753,338.7z"/>
			<path class="st15" d="M763.4,338.8c0,0.8-0.1,1.6-0.2,2.3c-0.1,0.7-0.3,1.3-0.7,1.8c-0.3,0.5-0.7,0.9-1.2,1.1s-1.1,0.4-1.8,0.4
				s-1.2-0.1-1.7-0.4c-0.5-0.2-0.8-0.6-1.1-1.1s-0.5-1-0.6-1.7s-0.2-1.5-0.2-2.4c0-0.8,0.1-1.6,0.2-2.3c0.1-0.7,0.3-1.3,0.7-1.8
				c0.3-0.5,0.7-0.9,1.2-1.1c0.5-0.3,1.1-0.4,1.8-0.4s1.3,0.1,1.7,0.4c0.5,0.2,0.8,0.6,1.1,1.1s0.5,1,0.6,1.7
				S763.4,337.9,763.4,338.8z M761.9,338.9c0-0.5,0-1-0.1-1.5c0-0.4-0.1-0.8-0.2-1.1c-0.1-0.3-0.2-0.6-0.3-0.8
				c-0.1-0.2-0.3-0.4-0.4-0.6c-0.2-0.2-0.4-0.3-0.6-0.3c-0.2-0.1-0.5-0.1-0.7-0.1c-0.5,0-0.9,0.1-1.2,0.3s-0.5,0.5-0.7,0.9
				s-0.3,0.8-0.3,1.4c-0.1,0.5-0.1,1.1-0.1,1.7c0,0.8,0,1.5,0.1,2.1s0.2,1,0.4,1.4s0.4,0.6,0.7,0.8s0.6,0.2,1,0.2
				c0.3,0,0.6,0,0.8-0.2c0.2-0.1,0.4-0.2,0.6-0.4c0.2-0.2,0.3-0.4,0.4-0.7c0.1-0.3,0.2-0.6,0.3-0.9s0.1-0.7,0.1-1
				C761.9,339.7,761.9,339.3,761.9,338.9z"/>
		</g>
	</g>
</g>
<rect id="rect1461" x="750.3" y="377.1" class="st37" width="9.1" height="285.4"/>
<rect id="rect1463" x="729.3" y="376.8" class="st38" width="9.1" height="63.3"/>
<rect id="rect1465" x="708.4" y="377.1" class="st39" width="9.1" height="153.4"/>
<rect id="rect1467" x="687.2" y="377.1" class="st40" width="9.1" height="221.8"/>
<circle id="circle281" class="st40" cx="691.8" cy="377.1" r="10.5"/>
<circle id="circle281-2" class="st37" cx="754.8" cy="377.1" r="10.5"/>
<circle id="circle281-3" class="st38" cx="733.9" cy="377.1" r="10.5"/>
<circle id="circle281-4" class="st39" cx="712.9" cy="377.1" r="10.5"/>
<circle id="circle281-5" class="st37" cx="575.7" cy="657.9" r="11.6"/>
<rect id="rect1461-2" x="575.7" y="653.4" class="st37" width="183.7" height="9.1"/>
<ellipse id="circle281-6" transform="matrix(0.9997 -2.534661e-02 2.534661e-02 0.9997 -15.0554 0.85)" class="st40" cx="26" cy="594.3" rx="11.6" ry="11.6"/>
<rect x="21.4" y="521.4" class="st39" width="696.1" height="9.1"/>
<rect x="21.4" y="499.6" class="st39" width="9.1" height="30.9"/>
<rect x="21.4" y="431" class="st38" width="717" height="9.1"/>
<rect x="21.4" y="431" class="st38" width="9.1" height="38"/>
<ellipse id="circle281-7" class="st38" cx="26.1" cy="469" rx="10.5" ry="10.5"/>
<ellipse id="circle281-8" class="st39" cx="26.1" cy="499.6" rx="10.5" ry="10.5"/>
<rect id="rect853" x="26" y="589.7" class="st40" width="670.4" height="9.1"/>
</svg>
