<?xml version="1.0" encoding="UTF-8"?>
<svg xmlns="http://www.w3.org/2000/svg" version="1.1" viewBox="0 0 682 1042.9">
  <defs>
    <style>
      .cls-1 {
        fill: #02814b;
      }

      .cls-2, .cls-3, .cls-4 {
        isolation: isolate;
      }

      .cls-2, .cls-4 {
        opacity: 1;
      }

      .cls-5 {
        fill: #868c97;
      }

      .cls-6 {
        stroke: #fff;
      }

      .cls-6, .cls-7 {
        fill: none;
        stroke-miterlimit: 10;
      }

      .cls-8 {
        fill: #c2bfab;
      }

      .cls-9 {
        fill: #e8d28a;
      }

      .cls-10 {
        fill: #8dddde;
      }

      .cls-11 {
        fill: #cecece;
      }

      .cls-12 {
        fill: #c1c1c1;
      }

      .cls-13 {
        fill: #b9a68f;
      }

      .cls-14 {
        fill: #141316;
      }

      .cls-15 {
        fill: #e2eade;
      }

      .cls-16 {
        fill: #474544;
      }

      .cls-17 {
        fill: #ddd;
      }

      .cls-18 {
        fill: #fee86f;
      }

      .cls-19 {
        fill: #914f00;
      }

      .cls-20 {
        fill: #fff;
      }

      .cls-21 {
        fill: #cccbcb;
      }

      .cls-22 {
        fill: #c29148;
      }

      .cls-23 {
        fill: #e30613;
      }

      .cls-24 {
        fill: #e0b45b;
      }

      .cls-25 {
        fill: #d4c547;
      }

      .cls-26 {
        fill: #00b589;
      }

      .cls-27 {
        fill: #7b217f;
      }

      .cls-28 {
        fill: #fcfcfa;
      }

      .cls-4 {
        fill: gray;
      }

      .cls-29 {
        fill: #7f7f7f;
      }

      .cls-30 {
        fill: #525035;
      }

      .cls-31 {
        fill: #ffe17b;
      }

      .cls-32 {
        fill: #2a4b9a;
      }

      .cls-33 {
        fill: #aba28e;
      }

      .cls-34 {
        fill: #333;
      }

      .cls-35 {
        fill: #ab9c38;
      }

      .cls-36 {
        fill: #1a1a1a;
      }

      .cls-7 {
        stroke: #95ac6e;
      }

      .cls-37 {
        fill: #96841f;
      }

      .cls-38 {
        fill: #36323e;
      }
    </style>
  </defs>
  <!-- Generator: Adobe Illustrator 28.7.0, SVG Export Plug-In . SVG Version: 1.2.0 Build 136)  -->
  <g>
    <g id="svg4098">
      <g>
        <path class="cls-1" d="M243.3,460.9v-11.9H.2v11.9c2.3.9,3.9,3.1,3.9,5.7s-1.6,4.8-3.9,5.7v18.1c2.3.9,3.9,3.1,3.9,5.7s-1.6,4.8-3.9,5.7v18.1c2.3.9,3.9,3.1,3.9,5.7s-1.6,4.8-3.9,5.7v17.7c2.3.9,3.9,3.1,3.9,5.7s-1.6,4.8-3.9,5.7v18.1c2.3.9,3.9,3.1,3.9,5.7s-1.6,4.8-3.9,5.7v18.1c2.3.9,3.9,3.1,3.9,5.7s-1.6,4.8-3.9,5.7v18.1c2.3.9,3.9,3.1,3.9,5.7s-1.6,4.8-3.9,5.7v18.1c2.3.9,3.9,3.1,3.9,5.7s-1.6,4.8-3.9,5.7v17.6c2.3.9,3.9,3.1,3.9,5.7s-1.6,4.8-3.9,5.7v18.1c2.3.9,3.9,3.1,3.9,5.7s-1.6,4.8-3.9,5.7v18.1c2.3.9,3.9,3.1,3.9,5.7s-1.6,4.8-3.9,5.7v18.1c2.3.9,3.9,3.1,3.9,5.7s-1.6,4.8-3.9,5.7v18.1c2.3.9,3.9,3.1,3.9,5.7s-1.6,4.8-3.9,5.7v17.6c2.3.9,3.9,3.1,3.9,5.7s-1.6,4.8-3.9,5.7v18.1c2.3.9,3.9,3.1,3.9,5.7s-1.6,4.8-3.9,5.7v18.1c2.3.9,3.9,3.1,3.9,5.7s-1.6,4.8-3.9,5.7v18.1c2.3.9,3.9,3.1,3.9,5.7s-1.6,4.8-3.9,5.7v18.1c2.3.9,3.9,3.1,3.9,5.7s-1.6,4.8-3.9,5.7v18c2.3.9,3.9,3.1,3.9,5.7s-1.6,4.8-3.9,5.7v18.1c2.3.9,3.9,3.1,3.9,5.7s-1.6,4.8-3.9,5.7v11.9h243.1v-11.9c-2.2-.9-3.8-3.1-3.8-5.7s1.6-4.8,3.8-5.7v-18.1c-2.2-.9-3.8-3.1-3.8-5.7s1.6-4.8,3.8-5.7v-18.1c-2.2-.9-3.8-3.1-3.8-5.7s1.6-4.8,3.8-5.7v-18.1c-2.2-.9-3.8-3.1-3.8-5.7s1.6-4.8,3.8-5.7v-18.1c-2.2-.9-3.8-3.1-3.8-5.7s1.6-4.8,3.8-5.7v-18.1c-2.2-.9-3.8-3.1-3.8-5.7s1.6-4.8,3.8-5.7v-18.1c-2.2-.9-3.8-3.1-3.8-5.7s1.6-4.8,3.8-5.7v-18.1c-2.2-.9-3.8-3.1-3.8-5.7s1.6-4.8,3.8-5.7v-18.1c-2.2-.9-3.8-3.1-3.8-5.7s1.6-4.8,3.8-5.7v-18.1c-2.2-.9-3.8-3.1-3.8-5.7s1.6-4.8,3.8-5.7v-18.1c-2.2-.9-3.8-3.1-3.8-5.7s1.6-4.8,3.8-5.7v-18.1c-2.2-.9-3.8-3.1-3.8-5.7s1.6-4.8,3.8-5.7v-18.1c-2.2-.9-3.8-3.1-3.8-5.7s1.6-4.8,3.8-5.7v-18.1c-2.2-.9-3.8-3.1-3.8-5.7s1.6-4.8,3.8-5.7v-18.1c-2.2-.9-3.8-3.1-3.8-5.7s1.6-4.8,3.8-5.7v-18.1c-2.2-.9-3.8-3.1-3.8-5.7s1.6-4.8,3.8-5.7v-18.1c-2.2-.9-3.8-3.1-3.8-5.7s1.6-4.8,3.8-5.7v-18.1c-2.2-.9-3.8-3.1-3.8-5.7s1.6-4.8,3.8-5.7v-18.1c-2.2-.9-3.8-3.1-3.8-5.7s1.6-4.8,3.8-5.7v-18.1c-2.2-.9-3.8-3.1-3.8-5.7s1.6-3.4,3.8-4.2ZM15.8,1031.1c-3.4,0-6.1-2.7-6.1-6.1s2.7-6.1,6.1-6.1,6.1,2.7,6.1,6.1c0,3.4-2.7,6.1-6.1,6.1ZM15.8,1001.7c-3.4,0-6.1-2.7-6.1-6.1s2.7-6.1,6.1-6.1,6.1,2.7,6.1,6.1-2.7,6.1-6.1,6.1ZM15.8,972.3c-3.4,0-6.1-2.7-6.1-6.1s2.7-6.1,6.1-6.1,6.1,2.7,6.1,6.1-2.7,6.1-6.1,6.1ZM15.8,942.9c-3.4,0-6.1-2.7-6.1-6.1s2.7-6.1,6.1-6.1,6.1,2.7,6.1,6.1-2.7,6.1-6.1,6.1ZM15.8,913.5c-3.4,0-6.1-2.7-6.1-6.1s2.7-6.1,6.1-6.1,6.1,2.7,6.1,6.1-2.7,6.1-6.1,6.1ZM15.8,884.1c-3.4,0-6.1-2.7-6.1-6.1s2.7-6.1,6.1-6.1,6.1,2.7,6.1,6.1-2.7,6.1-6.1,6.1ZM15.8,854.7c-3.4,0-6.1-2.7-6.1-6.1s2.7-6.1,6.1-6.1,6.1,2.7,6.1,6.1-2.7,6.1-6.1,6.1ZM15.8,825.3c-3.4,0-6.1-2.7-6.1-6.1s2.7-6.1,6.1-6.1,6.1,2.7,6.1,6.1-2.7,6.1-6.1,6.1ZM15.8,795.9c-3.4,0-6.1-2.7-6.1-6.1s2.7-6.1,6.1-6.1,6.1,2.7,6.1,6.1-2.7,6.1-6.1,6.1ZM15.8,766.5c-3.4,0-6.1-2.7-6.1-6.1s2.7-6.1,6.1-6.1,6.1,2.7,6.1,6.1-2.7,6.1-6.1,6.1ZM15.8,737.2c-3.4,0-6.1-2.7-6.1-6.1s2.7-6.1,6.1-6.1,6.1,2.7,6.1,6.1-2.7,6.1-6.1,6.1ZM15.8,707.8c-3.4,0-6.1-2.7-6.1-6.1s2.7-6.1,6.1-6.1,6.1,2.7,6.1,6.1-2.7,6.1-6.1,6.1ZM15.8,678.4c-3.4,0-6.1-2.7-6.1-6.1s2.7-6.1,6.1-6.1,6.1,2.7,6.1,6.1-2.7,6.1-6.1,6.1ZM15.8,649c-3.4,0-6.1-2.7-6.1-6.1s2.7-6.1,6.1-6.1,6.1,2.7,6.1,6.1-2.7,6.1-6.1,6.1ZM15.8,619.6c-3.4,0-6.1-2.7-6.1-6.1s2.7-6.1,6.1-6.1,6.1,2.7,6.1,6.1-2.7,6.1-6.1,6.1ZM15.8,590.2c-3.4,0-6.1-2.7-6.1-6.1s2.7-6.1,6.1-6.1,6.1,2.7,6.1,6.1-2.7,6.1-6.1,6.1ZM15.8,560.8c-3.4,0-6.1-2.7-6.1-6.1s2.7-6.1,6.1-6.1,6.1,2.7,6.1,6.1-2.7,6.1-6.1,6.1ZM15.8,531.4c-3.4,0-6.1-2.7-6.1-6.1s2.7-6.1,6.1-6.1,6.1,2.7,6.1,6.1-2.7,6.1-6.1,6.1ZM15.8,502c-3.4,0-6.1-2.7-6.1-6.1s2.7-6.1,6.1-6.1,6.1,2.7,6.1,6.1-2.7,6.1-6.1,6.1ZM15.8,472.6c-3.4,0-6.1-2.7-6.1-6.1s2.7-6.1,6.1-6.1,6.1,2.7,6.1,6.1-2.7,6.1-6.1,6.1ZM53.7,1031.1c-6.7,0-12.1-5.4-12.1-12.1s5.4-12.1,12.1-12.1,12.1,5.4,12.1,12.1-5.4,12.1-12.1,12.1ZM53.7,483.9c-6.7,0-12.1-5.4-12.1-12.1s5.4-12.1,12.1-12.1,12.1,5.4,12.1,12.1c0,6.7-5.4,12.1-12.1,12.1ZM127.6,817.1c-3.1,0-5.7-2.6-5.7-5.7s2.6-5.7,5.7-5.7,5.7,2.6,5.7,5.7-2.6,5.7-5.7,5.7ZM157,817.1c-3.1,0-5.7-2.6-5.7-5.7s2.6-5.7,5.7-5.7,5.7,2.6,5.7,5.7-2.5,5.7-5.7,5.7ZM186.2,459.7c6.7,0,12.1,5.4,12.1,12.1s-5.4,12.1-12.1,12.1-12.1-5.4-12.1-12.1c0-6.7,5.5-12.1,12.1-12.1ZM192.5,811.4c0,3.1-2.6,5.7-5.7,5.7s-5.7-2.6-5.7-5.7,2.6-5.7,5.7-5.7,5.7,2.6,5.7,5.7ZM188.2,1031.1c-6.7,0-12.1-5.4-12.1-12.1s5.4-12.1,12.1-12.1,12.1,5.4,12.1,12.1-5.4,12.1-12.1,12.1ZM227.8,1031.1c-3.4,0-6.1-2.7-6.1-6.1s2.7-6.1,6.1-6.1,6.1,2.7,6.1,6.1c0,3.4-2.7,6.1-6.1,6.1ZM227.8,1001.7c-3.4,0-6.1-2.7-6.1-6.1s2.7-6.1,6.1-6.1,6.1,2.7,6.1,6.1-2.7,6.1-6.1,6.1ZM227.8,972.3c-3.4,0-6.1-2.7-6.1-6.1s2.7-6.1,6.1-6.1,6.1,2.7,6.1,6.1-2.7,6.1-6.1,6.1ZM227.8,942.9c-3.4,0-6.1-2.7-6.1-6.1s2.7-6.1,6.1-6.1,6.1,2.7,6.1,6.1-2.7,6.1-6.1,6.1ZM227.8,913.5c-3.4,0-6.1-2.7-6.1-6.1s2.7-6.1,6.1-6.1,6.1,2.7,6.1,6.1-2.7,6.1-6.1,6.1ZM227.8,884.1c-3.4,0-6.1-2.7-6.1-6.1s2.7-6.1,6.1-6.1,6.1,2.7,6.1,6.1-2.7,6.1-6.1,6.1ZM227.8,854.7c-3.4,0-6.1-2.7-6.1-6.1s2.7-6.1,6.1-6.1,6.1,2.7,6.1,6.1-2.7,6.1-6.1,6.1ZM227.8,825.3c-3.4,0-6.1-2.7-6.1-6.1s2.7-6.1,6.1-6.1,6.1,2.7,6.1,6.1-2.7,6.1-6.1,6.1ZM227.8,795.9c-3.4,0-6.1-2.7-6.1-6.1s2.7-6.1,6.1-6.1,6.1,2.7,6.1,6.1-2.7,6.1-6.1,6.1ZM227.8,766.5c-3.4,0-6.1-2.7-6.1-6.1s2.7-6.1,6.1-6.1,6.1,2.7,6.1,6.1-2.7,6.1-6.1,6.1ZM227.8,737.2c-3.4,0-6.1-2.7-6.1-6.1s2.7-6.1,6.1-6.1,6.1,2.7,6.1,6.1-2.7,6.1-6.1,6.1ZM227.8,707.8c-3.4,0-6.1-2.7-6.1-6.1s2.7-6.1,6.1-6.1,6.1,2.7,6.1,6.1-2.7,6.1-6.1,6.1ZM227.8,678.4c-3.4,0-6.1-2.7-6.1-6.1s2.7-6.1,6.1-6.1,6.1,2.7,6.1,6.1-2.7,6.1-6.1,6.1ZM227.8,649c-3.4,0-6.1-2.7-6.1-6.1s2.7-6.1,6.1-6.1,6.1,2.7,6.1,6.1-2.7,6.1-6.1,6.1ZM227.8,619.6c-3.4,0-6.1-2.7-6.1-6.1s2.7-6.1,6.1-6.1,6.1,2.7,6.1,6.1-2.7,6.1-6.1,6.1ZM227.8,590.2c-3.4,0-6.1-2.7-6.1-6.1s2.7-6.1,6.1-6.1,6.1,2.7,6.1,6.1-2.7,6.1-6.1,6.1ZM227.8,560.8c-3.4,0-6.1-2.7-6.1-6.1s2.7-6.1,6.1-6.1,6.1,2.7,6.1,6.1-2.7,6.1-6.1,6.1ZM227.8,531.4c-3.4,0-6.1-2.7-6.1-6.1s2.7-6.1,6.1-6.1,6.1,2.7,6.1,6.1-2.7,6.1-6.1,6.1ZM227.8,502c-3.4,0-6.1-2.7-6.1-6.1s2.7-6.1,6.1-6.1,6.1,2.7,6.1,6.1-2.7,6.1-6.1,6.1ZM227.8,472.6c-3.4,0-6.1-2.7-6.1-6.1s2.7-6.1,6.1-6.1,6.1,2.7,6.1,6.1-2.7,6.1-6.1,6.1Z"/>
        <path class="cls-25" d="M53.7,451.3c-11.3,0-20.5,9.2-20.5,20.5s9.2,20.5,20.5,20.5,20.5-9.2,20.5-20.5c.1-11.3-9.1-20.5-20.5-20.5ZM53.7,483.9c-6.7,0-12.1-5.4-12.1-12.1s5.4-12.1,12.1-12.1,12.1,5.4,12.1,12.1c0,6.7-5.4,12.1-12.1,12.1Z"/>
        <path class="cls-25" d="M186.3,451.3c-11.3,0-20.5,9.2-20.5,20.5s9.2,20.5,20.5,20.5,20.5-9.2,20.5-20.5-9.2-20.5-20.5-20.5ZM186.3,483.9c-6.7,0-12.1-5.4-12.1-12.1s5.4-12.1,12.1-12.1,12.1,5.4,12.1,12.1c0,6.7-5.4,12.1-12.1,12.1Z"/>
        <path class="cls-25" d="M53.7,998.4c-11.3,0-20.5,9.2-20.5,20.5s9.2,20.5,20.5,20.5,20.5-9.2,20.5-20.5c.1-11.3-9.1-20.5-20.5-20.5ZM53.7,1031.1c-6.7,0-12.1-5.4-12.1-12.1s5.4-12.1,12.1-12.1,12.1,5.4,12.1,12.1c0,6.7-5.4,12.1-12.1,12.1Z"/>
        <path class="cls-25" d="M188.3,998.4c-11.3,0-20.5,9.2-20.5,20.5s9.2,20.5,20.5,20.5,20.5-9.2,20.5-20.5-9.2-20.5-20.5-20.5ZM188.3,1031.1c-6.7,0-12.1-5.4-12.1-12.1s5.4-12.1,12.1-12.1,12.1,5.4,12.1,12.1c0,6.7-5.4,12.1-12.1,12.1Z"/>
        <circle class="cls-30" cx="55" cy="536.5" r="10.6"/>
        <circle class="cls-18" cx="55" cy="536.5" r="5.5"/>
        <path class="cls-31" d="M17.5,516.3H.3v3.4c2.3.9,3.9,3.1,3.9,5.7s-1.6,4.8-3.9,5.7v3.4h17.2c5,0,9-4,9-9h0c0-5.2-4.1-9.2-9-9.2ZM15.9,531.4c-3.4,0-6.1-2.7-6.1-6.1s2.7-6.1,6.1-6.1,6.1,2.7,6.1,6.1-2.8,6.1-6.1,6.1Z"/>
        <path class="cls-31" d="M17.5,663.3H.3v3.4c2.3.9,3.9,3.1,3.9,5.7s-1.6,4.8-3.9,5.7v3.4h17.2c5,0,9-4,9-9s-4.1-9.2-9-9.2ZM15.9,678.4c-3.4,0-6.1-2.7-6.1-6.1s2.7-6.1,6.1-6.1,6.1,2.7,6.1,6.1-2.8,6.1-6.1,6.1Z"/>
        <path class="cls-31" d="M17.5,810.3H.3v3.4c2.3.9,3.9,3.1,3.9,5.7s-1.6,4.8-3.9,5.7v3.4h17.2c5,0,9-4,9-9s-4.1-9.2-9-9.2ZM15.9,825.4c-3.4,0-6.1-2.7-6.1-6.1s2.7-6.1,6.1-6.1,6.1,2.7,6.1,6.1-2.8,6.1-6.1,6.1Z"/>
        <path class="cls-31" d="M17.5,839.7H.3v3.4c2.3.9,3.9,3.1,3.9,5.7s-1.6,4.8-3.9,5.7v3.4h17.2c5,0,9-4,9-9s-4.1-9.2-9-9.2ZM15.9,854.8c-3.4,0-6.1-2.7-6.1-6.1s2.7-6.1,6.1-6.1,6.1,2.7,6.1,6.1-2.8,6.1-6.1,6.1Z"/>
        <path class="cls-31" d="M17.5,869H.3v3.4c2.3.9,3.9,3.1,3.9,5.7s-1.6,4.8-3.9,5.7v3.4h17.2c5,0,9-4,9-9s-4.1-9.2-9-9.2ZM15.9,884.2c-3.4,0-6.1-2.7-6.1-6.1s2.7-6.1,6.1-6.1,6.1,2.7,6.1,6.1-2.8,6.1-6.1,6.1Z"/>
        <path class="cls-31" d="M17.5,898.4H.3v3.4c2.3.9,3.9,3.1,3.9,5.7s-1.6,4.8-3.9,5.7v3.4h17.2c5,0,9-4,9-9s-4.1-9.2-9-9.2ZM15.9,913.6c-3.4,0-6.1-2.7-6.1-6.1s2.7-6.1,6.1-6.1,6.1,2.7,6.1,6.1-2.8,6.1-6.1,6.1Z"/>
        <path class="cls-31" d="M17.5,957.2H.3v3.4c2.3.9,3.9,3.1,3.9,5.7s-1.6,4.8-3.9,5.7v3.4h17.2c5,0,9-4,9-9h0c0-5.1-4.1-9.2-9-9.2ZM15.9,972.3c-3.4,0-6.1-2.7-6.1-6.1s2.7-6.1,6.1-6.1,6.1,2.7,6.1,6.1-2.8,6.1-6.1,6.1Z"/>
        <path class="cls-31" d="M17.5,986.6H.3v3.4c2.3.9,3.9,3.1,3.9,5.7s-1.6,4.8-3.9,5.7v3.4h17.2c5,0,9-4,9-9h0c0-5.1-4.1-9.2-9-9.2ZM15.9,1001.7c-3.4,0-6.1-2.7-6.1-6.1s2.7-6.1,6.1-6.1,6.1,2.7,6.1,6.1-2.8,6.1-6.1,6.1Z"/>
        <path class="cls-31" d="M17.5,1016H.3v3.4c2.3.9,3.9,3.1,3.9,5.7s-1.6,4.8-3.9,5.7v3.4h17.2c5,0,9-4,9-9s-4.1-9.2-9-9.2ZM15.9,1031.1c-3.4,0-6.1-2.7-6.1-6.1s2.7-6.1,6.1-6.1,6.1,2.7,6.1,6.1c-.1,3.4-2.8,6.1-6.1,6.1Z"/>
        <path class="cls-31" d="M239.5,466.5c0-2.6,1.6-4.8,3.9-5.7v-3.4h-17.2c-5,0-9,4-9,9s4,9,9,9h17.2v-3.4c-2.2-.7-3.9-2.9-3.9-5.5ZM227.8,472.6c-3.4,0-6.1-2.7-6.1-6.1s2.7-6.1,6.1-6.1,6.1,2.7,6.1,6.1-2.7,6.1-6.1,6.1Z"/>
        <path class="cls-31" d="M239.5,495.9c0-2.6,1.6-4.8,3.9-5.7v-3.4h-17.2c-5,0-9,4-9,9h0c0,5,4,9,9,9h17.2v-3.4c-2.2-.7-3.9-2.9-3.9-5.5ZM227.8,502c-3.4,0-6.1-2.7-6.1-6.1s2.7-6.1,6.1-6.1,6.1,2.7,6.1,6.1-2.7,6.1-6.1,6.1Z"/>
        <path class="cls-31" d="M239.5,525.3c0-2.6,1.6-4.8,3.9-5.7v-3.4h-17.2c-5,0-9,4-9,9h0c0,5,4,9,9,9h17.2v-3.2c-2.2-.9-3.9-3.1-3.9-5.7ZM227.8,531.4c-3.4,0-6.1-2.7-6.1-6.1s2.7-6.1,6.1-6.1,6.1,2.7,6.1,6.1-2.7,6.1-6.1,6.1Z"/>
        <path class="cls-31" d="M239.5,554.7c0-2.6,1.6-4.8,3.9-5.7v-3.4h-17.2c-5,0-9,4-9,9s4,9,9,9h17.2v-3.4c-2.2-.7-3.9-2.9-3.9-5.5ZM227.8,560.8c-3.4,0-6.1-2.7-6.1-6.1s2.7-6.1,6.1-6.1,6.1,2.7,6.1,6.1-2.7,6.1-6.1,6.1Z"/>
        <path class="cls-31" d="M239.5,584.1c0-2.6,1.6-4.8,3.9-5.7v-3.4h-17.2c-5,0-9,4-9,9s4,9,9,9h17.2v-3.4c-2.2-.7-3.9-2.9-3.9-5.5ZM227.8,590.2c-3.4,0-6.1-2.7-6.1-6.1s2.7-6.1,6.1-6.1,6.1,2.7,6.1,6.1-2.7,6.1-6.1,6.1Z"/>
        <path class="cls-31" d="M239.5,613.5c0-2.6,1.6-4.8,3.9-5.7v-3.4h-17.2c-5,0-9,4-9,9s4,9,9,9h17.2v-3.4c-2.2-.7-3.9-2.9-3.9-5.5ZM227.8,619.6c-3.4,0-6.1-2.7-6.1-6.1s2.7-6.1,6.1-6.1,6.1,2.7,6.1,6.1-2.7,6.1-6.1,6.1Z"/>
        <path class="cls-31" d="M239.5,672.3c0-2.6,1.6-4.8,3.9-5.7v-3.4h-17.2c-5,0-9,4-9,9s4,9,9,9h17.2v-3.2c-2.2-.9-3.9-3.1-3.9-5.7ZM227.8,678.4c-3.4,0-6.1-2.7-6.1-6.1s2.7-6.1,6.1-6.1,6.1,2.7,6.1,6.1-2.7,6.1-6.1,6.1Z"/>
        <path class="cls-31" d="M239.5,731.1c0-2.6,1.6-4.8,3.9-5.7v-3.4h-17.2c-5,0-9,4-9,9h0c0,5,4,9,9,9h17.2v-3.4c-2.2-.7-3.9-2.9-3.9-5.5ZM227.8,737.2c-3.4,0-6.1-2.7-6.1-6.1s2.7-6.1,6.1-6.1,6.1,2.7,6.1,6.1-2.7,6.1-6.1,6.1Z"/>
        <path class="cls-31" d="M239.5,760.5c0-2.6,1.6-4.8,3.9-5.7v-3.4h-17.2c-5,0-9,4-9,9h0c0,5,4,9,9,9h17.2v-3.4c-2.2-.7-3.9-2.9-3.9-5.5ZM227.8,766.6c-3.4,0-6.1-2.7-6.1-6.1s2.7-6.1,6.1-6.1,6.1,2.7,6.1,6.1-2.7,6.1-6.1,6.1Z"/>
        <path class="cls-31" d="M239.5,789.9c0-2.6,1.6-4.8,3.9-5.7v-3.4h-17.2c-5,0-9,4-9,9s4,9,9,9h17.2v-3.4c-2.2-.7-3.9-2.9-3.9-5.5ZM227.8,796c-3.4,0-6.1-2.7-6.1-6.1s2.7-6.1,6.1-6.1,6.1,2.7,6.1,6.1-2.7,6.1-6.1,6.1Z"/>
        <path class="cls-31" d="M239.5,819.3c0-2.6,1.6-4.8,3.9-5.7v-3.4h-17.2c-5,0-9,4-9,9s4,9,9,9h17.2v-3.4c-2.2-.7-3.9-2.9-3.9-5.5ZM227.8,825.4c-3.4,0-6.1-2.7-6.1-6.1s2.7-6.1,6.1-6.1,6.1,2.7,6.1,6.1-2.7,6.1-6.1,6.1Z"/>
        <path class="cls-31" d="M239.5,848.7c0-2.6,1.6-4.8,3.9-5.7v-3.4h-17.2c-5,0-9,4-9,9s4,9,9,9h17.2v-3.4c-2.2-.7-3.9-2.9-3.9-5.5ZM227.8,854.8c-3.4,0-6.1-2.7-6.1-6.1s2.7-6.1,6.1-6.1,6.1,2.7,6.1,6.1-2.7,6.1-6.1,6.1Z"/>
        <path class="cls-31" d="M239.5,878.1c0-2.6,1.6-4.8,3.9-5.7v-3.4h-17.2c-5,0-9,4-9,9s4,9,9,9h17.2v-3.4c-2.2-.7-3.9-2.9-3.9-5.5ZM227.8,884.2c-3.4,0-6.1-2.7-6.1-6.1s2.7-6.1,6.1-6.1,6.1,2.7,6.1,6.1-2.7,6.1-6.1,6.1Z"/>
        <path class="cls-31" d="M239.5,907.5c0-2.6,1.6-4.8,3.9-5.7v-3.4h-17.2c-5,0-9,4-9,9s4,9,9,9h17.2v-3.4c-2.2-.7-3.9-2.9-3.9-5.5ZM227.8,913.6c-3.4,0-6.1-2.7-6.1-6.1s2.7-6.1,6.1-6.1,6.1,2.7,6.1,6.1-2.7,6.1-6.1,6.1Z"/>
        <path class="cls-31" d="M239.5,966.3c0-2.6,1.6-4.8,3.9-5.7v-3.4h-17.2c-5,0-9,4-9,9h0c0,5,4,9,9,9h17.2v-3.4c-2.2-.8-3.9-3-3.9-5.5ZM227.8,972.3c-3.4,0-6.1-2.7-6.1-6.1s2.7-6.1,6.1-6.1,6.1,2.7,6.1,6.1-2.7,6.1-6.1,6.1Z"/>
        <path class="cls-31" d="M239.5,995.7c0-2.6,1.6-4.8,3.9-5.7v-3.4h-17.2c-5,0-9,4-9,9h0c0,5,4,9,9,9h17.2v-3.4c-2.2-.8-3.9-3-3.9-5.5ZM227.8,1001.7c-3.4,0-6.1-2.7-6.1-6.1s2.7-6.1,6.1-6.1,6.1,2.7,6.1,6.1-2.7,6.1-6.1,6.1Z"/>
        <path class="cls-17" d="M163.1,438.4l4.4-4.4-2.3-2.3-6.6,6.6h-1.5v-4.7c0-1.2-1-2.2-2.2-2.2h-69.5c-1.2,0-2.2,1-2.2,2.2v4.7h-1.5l-6.6-6.6-2.3,2.3,4.4,4.4c-.6.2-1,.8-1,1.4v56.3c0,.9.7,1.6,1.6,1.6h84.6c.9,0,1.6-.7,1.6-1.6v-56.3c0-.6-.4-1.1-.9-1.4Z"/>
        <g>
          <path class="cls-29" d="M100.3,460.7c0-3.2-2.6-5.8-5.8-5.8s-5.8,2.6-5.8,5.8.5,2.7,1.3,3.7h-.2v7.7c0,1.2,1,2.1,2.1,2.1h5.1c1.2,0,2.1-1,2.1-2.1v-7.7h0c.8-1,1.3-2.3,1.3-3.7Z"/>
          <path class="cls-29" d="M155.5,460.7c0-3.2-2.6-5.8-5.8-5.8s-5.8,2.6-5.8,5.8.5,2.7,1.3,3.7h-.2v7.7c0,1.2,1,2.1,2.1,2.1h5.1c1.2,0,2.1-1,2.1-2.1v-7.7h-.2c.9-1,1.4-2.3,1.4-3.7Z"/>
        </g>
        <path class="cls-16" d="M200.9,590.9h-21c-1.2,0-2.2-1-2.2-2.2v-26.7c0-1.2,1-2.2,2.2-2.2h21c1.2,0,2.2,1,2.2,2.2v26.7c0,1.2-1,2.2-2.2,2.2Z"/>
        <g>
          <rect class="cls-15" x="132" y="527" width="21.7" height="14.4"/>
          <path class="cls-22" d="M149.3,541.5c-2-1.8-3.2-4.4-3.2-7.2s1.2-5.4,3.2-7.2h-12.8c2,1.8,3.2,4.4,3.2,7.2s-1.2,5.4-3.2,7.2h12.8Z"/>
        </g>
        <g>
          <rect class="cls-15" x="132.3" y="612.4" width="21.7" height="14.4"/>
          <path class="cls-22" d="M149.6,626.8c-2-1.8-3.2-4.4-3.2-7.2s1.2-5.4,3.2-7.2h-12.8c2,1.8,3.2,4.4,3.2,7.2s-1.2,5.4-3.2,7.2h12.8Z"/>
        </g>
        <g>
          <rect class="cls-15" x="132.3" y="631.5" width="21.7" height="14.4"/>
          <path class="cls-22" d="M149.6,646c-2-1.8-3.2-4.4-3.2-7.2s1.2-5.4,3.2-7.2h-12.8c2,1.8,3.2,4.4,3.2,7.2s-1.2,5.4-3.2,7.2h12.8Z"/>
        </g>
        <g>
          <rect class="cls-15" x="61.2" y="682.5" width="10.6" height="5.4"/>
          <rect class="cls-22" x="63.5" y="682.5" width="6" height="5.4"/>
        </g>
        <g>
          <rect class="cls-15" x="177.1" y="662.5" width="5.4" height="10.6"/>
          <rect class="cls-22" x="177.1" y="664.8" width="5.4" height="6"/>
        </g>
        <rect class="cls-16" x="179.5" y="512.5" width="18.9" height="29.3"/>
        <g>
          <rect class="cls-15" x="171.6" y="613.7" width="20.6" height="9.6"/>
          <rect class="cls-10" x="176.2" y="613.7" width="11.5" height="9.6"/>
        </g>
        <rect class="cls-22" x="120.2" y="781.8" width="4.2" height="6.9"/>
        <rect class="cls-22" x="126.9" y="781.8" width="4.2" height="6.9"/>
        <rect class="cls-22" x="65.3" y="693.2" width="6.9" height="4.2"/>
        <rect class="cls-22" x="88.3" y="626" width="6.9" height="4.2"/>
        <rect class="cls-22" x="65" y="736.7" width="6.9" height="4.2"/>
        <rect class="cls-16" x="195" y="740.6" width="4.2" height="6.9"/>
        <rect class="cls-16" x="187.9" y="680.7" width="6.9" height="4.2"/>
        <rect class="cls-16" x="85.9" y="525.1" width="6.9" height="4.2"/>
        <rect class="cls-16" x="81" y="537.3" width="6.9" height="4.2"/>
        <rect class="cls-16" x="191.5" y="629.8" width="6.9" height="4.2"/>
        <path class="cls-12" d="M186.3,945.5H57.5c-2.1,0-3.9-1.7-3.9-3.9v-108.1c0-2.1,1.7-3.9,3.9-3.9h128.8c2.1,0,3.9,1.7,3.9,3.9v108.1c0,2.2-1.7,3.9-3.9,3.9Z"/>
        <rect class="cls-8" x="101.5" y="991.8" width="10.5" height="5.9"/>
        <rect class="cls-8" x="130.3" y="991.9" width="10.5" height="5.9"/>
        <rect class="cls-8" x="101.5" y="1029.5" width="10.5" height="5.9"/>
        <rect class="cls-8" x="130.3" y="1029.7" width="10.5" height="5.9"/>
        <polyline class="cls-7" points="17.5 474.3 17.5 478.7 35.4 496.7 35.4 545.3 51 560.9 51 695.6 55.9 700.6 91.2 700.6"/>
        <polyline class="cls-7" points="22.9 501.2 31 509.2 31 547.1 46.7 562.8 46.7 698.1 52.6 704 91 704"/>
        <polyline class="cls-7" points="23.2 559.6 43 579.4 43 700.5 53.4 711 95 711"/>
        <polyline class="cls-7" points="23.2 589 39.8 605.5 39.8 702.5 51.9 714.6 95.1 714.6"/>
        <polyline class="cls-7" points="23.2 619.2 35.6 631.5 35.6 707.5 49.5 721.5 93.4 721.5"/>
        <polyline class="cls-7" points="22.9 647.3 31.6 656 31.6 710.2 46.4 725 96.1 725"/>
        <polyline class="cls-7" points="22.9 706 45.3 728.4 102.7 728.4"/>
        <line class="cls-7" x1="23.7" y1="731.9" x2="98.8" y2="731.9"/>
        <path class="cls-7" d="M23.2,758.2c.1-.6,17.3-17.3,17.3-17.3h12.5l4.9,4.9h45.7"/>
        <polyline class="cls-7" points="20.4 784.1 25.7 778.8 25.7 771 30.9 765.9 30.9 757.5 43.9 744.4 52.6 744.4 57.3 749.1 95.3 749.1"/>
        <path class="cls-7" d="M30.7,774.3l3.4-3.4s-.7-8.9,0-9.6c.7-.7,6-6,6-6l6.3-6.3h6.1l3.7,3.7h35.1"/>
        <polyline class="cls-7" points="29.1 830.2 29.1 782.6 38.7 773.1 93.4 773.1 95 771.4 95 761.8"/>
        <polyline class="cls-7" points="17.5 928.5 17.5 924.9 32.9 909.4 32.9 829.1 35.7 826.4 35.7 784.6 42 778.3 94.2 778.3 98.4 774.1 98.4 766.7"/>
        <path class="cls-7" d="M35.7,812.1"/>
        <path class="cls-7" d="M35.7,827.3"/>
        <polyline class="cls-7" points="23.6 989.1 30.4 982.3 30.4 917.7 37.5 911.8"/>
        <polyline class="cls-7" points="35.6 922.1 42.6 915.1 42.6 825.4 39.9 822.7 39.9 785.8 44.6 781.2 94.9 781.2 101.9 774.2 101.9 757.6"/>
        <polyline class="cls-7" points="108.9 764.3 108.9 773 95.9 786.1 91.5 786.1"/>
        <polyline class="cls-7" points="93.9 794.7 112.4 776.2 112.4 760.8"/>
        <polyline class="cls-7" points="115.9 766.2 115.9 777.8 102.2 791.5 102.2 811.5 95.9 817.8 65 817.8 55.5 808.3"/>
        <polyline class="cls-7" points="133.9 805.1 138.7 800.3 138.7 787 135.5 783.9 135.5 773.9 132.4 770.7 132.4 759.8"/>
        <polyline class="cls-7" points="137.3 763.9 137.3 771.7 139.3 773.7 139.3 780.1 152.7 793.5 164.9 793.5 179.1 807.8"/>
        <polyline class="cls-7" points="145.3 761.7 145.3 772.1 151.3 778.1 172.3 778.1 200.5 806.3 200.5 918.9 206.7 925.1 206.7 976 212.3 981.5 212.3 1001.7 223.3 1012.8 223.3 1018.1"/>
        <polyline class="cls-7" points="150.7 762.1 150.7 769.4 154.7 773.5 173.6 773.5 205.2 805 205.2 916.5 211.4 922.7 211.4 975.3 215.6 979.5 215.6 988.2"/>
        <polyline class="cls-7" points="157.5 757 165.3 757 211.1 802.8 211.1 914.4 227.2 930.5"/>
        <polyline class="cls-7" points="157.5 752.6 166.9 752.6 192.1 777.8"/>
        <polyline class="cls-7" points="158.6 747.4 166.6 747.4 190.1 770.9 195.5 770.9 206.3 781.7 206.3 788.7"/>
        <polyline class="cls-7" points="158.2 743 167.3 743 190.4 766 200.9 766"/>
        <polyline class="cls-7" points="158.2 738.8 169.1 738.8 174.1 743.8"/>
        <polyline class="cls-7" points="158.2 733.8 175.4 733.8 202.8 761.2 206.3 761.2 215.9 770.8 215.9 783.2"/>
        <line class="cls-7" x1="158.6" y1="728.4" x2="167.7" y2="728.4"/>
        <polyline class="cls-7" points="156.4 723 171.8 723 179.2 730.4"/>
        <polyline class="cls-7" points="187.9 743 192.4 738.4 192.4 719.1 203.4 719.1"/>
        <polyline class="cls-7" points="158.6 714.6 209.5 714.6 218.5 723.6"/>
        <polyline class="cls-7" points="158.2 710.2 213.8 710.2 220.3 703.7"/>
        <polyline class="cls-7" points="157.5 706 198.8 706 207.1 697.7 207.1 657.4 219.6 644.9"/>
        <polyline class="cls-7" points="158.6 701.7 179.1 701.7 202.4 678.5 202.4 655.6"/>
        <polyline class="cls-7" points="159.7 697 167.2 697 171.8 692.4"/>
        <path class="cls-7" d="M147.8,691.7c-.2-.3,9.2-9.2,9.2-9.2h15.6v-33.5l2.8-2.8v-7.7"/>
        <path class="cls-7" d="M147,689.5v-6.5l10.3-10.3"/>
        <polyline class="cls-7" points="140.1 690.4 140.1 679.6 147.4 672.3"/>
        <line class="cls-7" x1="136.6" y1="687.4" x2="136.6" y2="669.8"/>
        <path class="cls-7" d="M133.1,689.1v-15.2l-4.2-4.2"/>
        <path class="cls-7" d="M122.6,688.8v-20.7"/>
        <path class="cls-7" d="M119.2,690.4v-11.1l-7.6-7.6"/>
        <polyline class="cls-7" points="115.6 690 115.6 683.6 101.8 669.7 101.8 663.3 105 660.1 108.9 660.1 111.5 657.4 111.5 646.9 106.1 641.5 100 641.5"/>
        <polyline class="cls-7" points="99.8 647.3 105.4 647.3 108.5 650.4 108.5 655.6 105.7 658.3 101.1 658.3 97.7 661.8 97.7 670.8 108.7 681.8 108.7 688.5"/>
        <polyline class="cls-7" points="91.3 651.8 91.3 668.6 105.2 682.5 105.2 692"/>
        <polyline class="cls-7" points="76.5 651 76.5 658.2 85.9 667.6 85.9 671.4 99 684.5 99 693.6"/>
        <path class="cls-7" d="M94.8,687.6v-5l-11.7-11.7v-1.1l-4.5-4.5h-6.4l-1.7-1.7h-6.9l-6.7-6.7v-14.4l1.6-1.6h8.8"/>
        <polyline class="cls-7" points="69.1 634.9 60.4 634.9 55.4 639.9 55.4 657.8 63.4 665.7 69.5 665.7 75.9 672.1 78.4 672.1 92.5 686.2"/>
        <line class="cls-7" x1="73.8" y1="608.2" x2="56" y2="626"/>
        <polyline class="cls-7" points="137.6 668.9 137.6 662.7 134.7 659.8 134.7 656.7 130.2 652.3 125.2 652.3 121.1 648.2 121.1 629.3 109.7 617.8 109.7 535.6 124 521.3 124 512.2 127.7 508.5"/>
        <path class="cls-7" d="M135.3,561.5v-9l-3.1-3.1h-9.8l-4.5-4.5v-4.3"/>
        <polyline class="cls-7" points="129.3 593.9 129.3 599.2 126.1 602.4 120.2 602.4 118.6 604"/>
        <polyline class="cls-7" points="62.9 507 62.9 516.4 79.1 532.6 83.6 532.6 88.5 537.5 88.5 545.7 83.9 550.2 83.9 563.7"/>
        <rect class="cls-9" x="45.6" y="499.8" width="18.9" height="9.6"/>
        <g>
          <rect class="cls-11" x="102.7" y="497.7" width="4.3" height="11.5"/>
          <rect class="cls-11" x="110.4" y="497.7" width="4.3" height="11.5"/>
          <rect class="cls-11" x="118.1" y="497.7" width="4.3" height="11.5"/>
          <rect class="cls-11" x="125.7" y="497.7" width="4.3" height="11.5"/>
          <rect class="cls-11" x="133.4" y="497.7" width="4.3" height="11.5"/>
        </g>
        <g>
          <path class="cls-20" d="M106.8,518.5v-5.5h2.5v5.8c0,2,.6,2.7,1.7,2.7s1.8-.7,1.8-2.7v-5.8h2.4v5.5c0,3.5-1.4,5.1-4.2,5.1s-4.2-1.6-4.2-5.1Z"/>
          <path class="cls-20" d="M116.7,522.1l1.3-1.6c.7.6,1.7,1,2.6,1s1.4-.4,1.4-.9-.6-.8-1.5-1.2l-1.3-.6c-1.1-.4-2.1-1.3-2.1-2.8s1.6-3.2,3.8-3.2,2.5.5,3.4,1.3l-1.3,1.6c-.7-.5-1.4-.8-2.1-.8s-1.3.3-1.3.8.7.8,1.6,1.2l1.3.5c1.3.5,2.1,1.4,2.1,2.8s-1.5,3.3-4,3.3c-1.5.1-2.8-.4-3.9-1.4Z"/>
          <path class="cls-20" d="M126.3,513h3.6c2.2,0,3.9.6,3.9,2.6s-.5,1.9-1.4,2.2h0c1.1.4,1.9,1.2,1.9,2.5,0,2.1-1.8,3.1-4.1,3.1h-3.9s0-10.4,0-10.4ZM129.8,517.1c1.1,0,1.5-.5,1.5-1.2s-.5-1.1-1.5-1.1h-1.1v2.2h1.1ZM130,521.5c1.2,0,1.8-.4,1.8-1.3s-.6-1.2-1.8-1.2h-1.2v2.5h1.2Z"/>
        </g>
        <path class="cls-38" d="M170.2,594.4h-45.7c-.5,0-1-.4-1-1v-33.5c0-.5.4-1,1-1h45.7c.5,0,1,.4,1,1v33.5c0,.6-.5,1-1,1Z"/>
        <g>
          <rect class="cls-11" x="128.6" y="554.8" width="1.4" height="4.1"/>
          <rect class="cls-11" x="134.6" y="554.8" width="1.4" height="4.1"/>
          <rect class="cls-11" x="140.6" y="554.8" width="1.4" height="4.1"/>
          <rect class="cls-11" x="146.6" y="554.8" width="1.4" height="4.1"/>
          <rect class="cls-11" x="152.6" y="554.8" width="1.4" height="4.1"/>
          <rect class="cls-11" x="158.6" y="554.8" width="1.4" height="4.1"/>
          <rect class="cls-11" x="164.6" y="554.8" width="1.4" height="4.1"/>
        </g>
        <g>
          <rect class="cls-11" x="128.6" y="594.4" width="1.4" height="4.1"/>
          <rect class="cls-11" x="134.6" y="594.4" width="1.4" height="4.1"/>
          <rect class="cls-11" x="140.6" y="594.4" width="1.4" height="4.1"/>
          <rect class="cls-11" x="146.6" y="594.4" width="1.4" height="4.1"/>
          <rect class="cls-11" x="152.6" y="594.4" width="1.4" height="4.1"/>
          <rect class="cls-11" x="158.6" y="594.4" width="1.4" height="4.1"/>
          <rect class="cls-11" x="164.6" y="594.4" width="1.4" height="4.1"/>
        </g>
        <g>
          <rect class="cls-5" x="61.4" y="562.7" width="39.3" height="48.9"/>
          <path class="cls-28" d="M81,605.5h0c-7.6,0-13.7-6.1-13.7-13.7v-9.1c0-7.6,6.1-13.7,13.7-13.7h0c7.6,0,13.7,6.1,13.7,13.7v9.1c0,7.5-6.1,13.7-13.7,13.7Z"/>
          <path class="cls-28" d="M61.4,573h0v-10.3h10.3c-.1,5.7-4.6,10.3-10.3,10.3Z"/>
          <path class="cls-28" d="M71.6,611.7h-10.2v-10.3h0c5.7,0,10.2,4.6,10.2,10.3h0Z"/>
          <path class="cls-28" d="M100.7,573h0c-5.7,0-10.3-4.6-10.3-10.3h10.3v10.3Z"/>
          <path class="cls-28" d="M100.7,611.7h-10.3c0-5.7,4.6-10.3,10.3-10.3h0s0,10.3,0,10.3Z"/>
        </g>
        <g>
          <rect class="cls-38" x="64.9" y="632.2" width="34.6" height="22.9"/>
          <g>
            <rect class="cls-11" x="60.7" y="633.4" width="4.2" height="3.4"/>
            <rect class="cls-11" x="60.7" y="639.1" width="4.2" height="3.4"/>
            <rect class="cls-11" x="60.7" y="644.9" width="4.2" height="3.4"/>
            <rect class="cls-11" x="60.7" y="650.6" width="4.2" height="3.4"/>
          </g>
          <g>
            <rect class="cls-11" x="99.5" y="633.4" width="4.2" height="3.4"/>
            <rect class="cls-11" x="99.5" y="639.1" width="4.2" height="3.4"/>
            <rect class="cls-11" x="99.5" y="644.9" width="4.2" height="3.4"/>
            <rect class="cls-11" x="99.5" y="650.6" width="4.2" height="3.4"/>
          </g>
        </g>
        <rect class="cls-16" x="135.5" y="663.8" width="4.2" height="6.9"/>
        <g>
          <path class="cls-14" d="M160.4,767.5h-79c-.7,0-1.3-.6-1.3-1.3v-79.1c0-.7.6-1.3,1.3-1.3h79.1c.7,0,1.3.6,1.3,1.3v79.1c-.1.7-.7,1.3-1.4,1.3Z"/>
          <g>
            <rect class="cls-11" x="86.2" y="683.9" width="3.1" height="1.9"/>
            <rect class="cls-11" x="89.7" y="683.9" width="3.1" height="1.9"/>
            <rect class="cls-11" x="93.2" y="683.9" width="3.1" height="1.9"/>
            <rect class="cls-11" x="96.7" y="683.9" width="3.1" height="1.9"/>
            <rect class="cls-11" x="100.2" y="683.9" width="3.1" height="1.9"/>
            <rect class="cls-11" x="103.6" y="683.9" width="3.1" height="1.9"/>
            <rect class="cls-11" x="107.1" y="683.9" width="3.1" height="1.9"/>
            <rect class="cls-11" x="114.1" y="683.9" width="3.1" height="1.9"/>
            <rect class="cls-11" x="121.1" y="683.9" width="3.1" height="1.9"/>
            <rect class="cls-11" x="128" y="683.9" width="3.1" height="1.9"/>
            <rect class="cls-11" x="138.5" y="683.9" width="3.1" height="1.9"/>
            <rect class="cls-11" x="142" y="683.9" width="3.1" height="1.9"/>
            <rect class="cls-11" x="149" y="683.9" width="3.1" height="1.9"/>
            <rect class="cls-11" x="110.6" y="683.9" width="3.1" height="1.9"/>
            <rect class="cls-11" x="117.6" y="683.9" width="3.1" height="1.9"/>
            <rect class="cls-11" x="124.6" y="683.9" width="3.1" height="1.9"/>
            <rect class="cls-11" x="131.5" y="683.9" width="3.1" height="1.9"/>
            <rect class="cls-11" x="135" y="683.9" width="3.1" height="1.9"/>
            <rect class="cls-11" x="145.5" y="683.9" width="3.1" height="1.9"/>
            <rect class="cls-11" x="152.4" y="683.9" width="3.1" height="1.9"/>
          </g>
          <g>
            <rect class="cls-11" x="86.4" y="767.5" width="3.1" height="1.9"/>
            <rect class="cls-11" x="89.9" y="767.5" width="3.1" height="1.9"/>
            <rect class="cls-11" x="93.4" y="767.5" width="3.1" height="1.9"/>
            <rect class="cls-11" x="96.9" y="767.5" width="3.1" height="1.9"/>
            <rect class="cls-11" x="100.4" y="767.5" width="3.1" height="1.9"/>
            <rect class="cls-11" x="103.8" y="767.5" width="3.1" height="1.9"/>
            <rect class="cls-11" x="107.3" y="767.5" width="3.1" height="1.9"/>
            <rect class="cls-11" x="114.3" y="767.5" width="3.1" height="1.9"/>
            <rect class="cls-11" x="121.3" y="767.5" width="3.1" height="1.9"/>
            <rect class="cls-11" x="128.2" y="767.5" width="3.1" height="1.9"/>
            <rect class="cls-11" x="138.7" y="767.5" width="3.1" height="1.9"/>
            <rect class="cls-11" x="142.2" y="767.5" width="3.1" height="1.9"/>
            <rect class="cls-11" x="149.1" y="767.5" width="3.1" height="1.9"/>
            <rect class="cls-11" x="110.8" y="767.5" width="3.1" height="1.9"/>
            <rect class="cls-11" x="117.8" y="767.5" width="3.1" height="1.9"/>
            <rect class="cls-11" x="124.7" y="767.5" width="3.1" height="1.9"/>
            <rect class="cls-11" x="131.7" y="767.5" width="3.1" height="1.9"/>
            <rect class="cls-11" x="135.2" y="767.5" width="3.1" height="1.9"/>
            <rect class="cls-11" x="145.7" y="767.5" width="3.1" height="1.9"/>
            <rect class="cls-11" x="152.6" y="767.5" width="3.1" height="1.9"/>
          </g>
          <g>
            <rect class="cls-11" x="78.1" y="758.3" width="1.9" height="3.1"/>
            <rect class="cls-11" x="78.1" y="754.8" width="1.9" height="3.1"/>
            <rect class="cls-11" x="78.2" y="751.3" width="1.9" height="3.1"/>
            <rect class="cls-11" x="78.2" y="747.8" width="1.9" height="3.1"/>
            <rect class="cls-11" x="78.1" y="744.3" width="1.9" height="3.1"/>
            <rect class="cls-11" x="78.1" y="740.9" width="1.9" height="3.1"/>
            <rect class="cls-11" x="78.1" y="737.4" width="1.9" height="3.1"/>
            <rect class="cls-11" x="78.1" y="730.4" width="1.9" height="3.1"/>
            <rect class="cls-11" x="78.2" y="723.4" width="1.9" height="3.1"/>
            <rect class="cls-11" x="78.1" y="716.5" width="1.9" height="3.1"/>
            <rect class="cls-11" x="78.2" y="706" width="1.9" height="3.1"/>
            <rect class="cls-11" x="78.2" y="702.5" width="1.9" height="3.1"/>
            <rect class="cls-11" x="78.1" y="695.6" width="1.9" height="3.1"/>
            <rect class="cls-11" x="78.1" y="733.9" width="1.9" height="3.1"/>
            <rect class="cls-11" x="78.2" y="726.9" width="1.9" height="3.1"/>
            <rect class="cls-11" x="78.1" y="719.9" width="1.9" height="3.1"/>
            <rect class="cls-11" x="78.1" y="713" width="1.9" height="3.1"/>
            <rect class="cls-11" x="78.1" y="709.5" width="1.9" height="3.1"/>
            <rect class="cls-11" x="78.1" y="699" width="1.9" height="3.1"/>
            <rect class="cls-11" x="78.1" y="692.1" width="1.9" height="3.1"/>
          </g>
          <g>
            <rect class="cls-11" x="161.7" y="758.3" width="1.9" height="3.1"/>
            <rect class="cls-11" x="161.7" y="754.8" width="1.9" height="3.1"/>
            <rect class="cls-11" x="161.8" y="751.3" width="1.9" height="3.1"/>
            <rect class="cls-11" x="161.7" y="747.8" width="1.9" height="3.1"/>
            <rect class="cls-11" x="161.7" y="744.3" width="1.9" height="3.1"/>
            <rect class="cls-11" x="161.7" y="740.8" width="1.9" height="3.1"/>
            <rect class="cls-11" x="161.7" y="737.4" width="1.9" height="3.1"/>
            <rect class="cls-11" x="161.7" y="730.4" width="1.9" height="3.1"/>
            <rect class="cls-11" x="161.7" y="723.4" width="1.9" height="3.1"/>
            <rect class="cls-11" x="161.7" y="716.5" width="1.9" height="3.1"/>
            <rect class="cls-11" x="161.8" y="706" width="1.9" height="3.1"/>
            <rect class="cls-11" x="161.8" y="702.5" width="1.9" height="3.1"/>
            <rect class="cls-11" x="161.7" y="695.5" width="1.9" height="3.1"/>
            <rect class="cls-11" x="161.7" y="733.9" width="1.9" height="3.1"/>
            <rect class="cls-11" x="161.8" y="726.9" width="1.9" height="3.1"/>
            <rect class="cls-11" x="161.7" y="719.9" width="1.9" height="3.1"/>
            <rect class="cls-11" x="161.7" y="713" width="1.9" height="3.1"/>
            <rect class="cls-11" x="161.7" y="709.5" width="1.9" height="3.1"/>
            <rect class="cls-11" x="161.7" y="699" width="1.9" height="3.1"/>
            <rect class="cls-11" x="161.7" y="692.1" width="1.9" height="3.1"/>
          </g>
          <circle class="cls-13" cx="90.2" cy="697" r="2.8"/>
        </g>
        <rect class="cls-38" x="187.1" y="651.7" width="18.2" height="8.6"/>
        <rect class="cls-11" x="189.1" y="660.3" width="2.9" height="8.7"/>
        <rect class="cls-11" x="200.9" y="660.3" width="2.9" height="8.7"/>
        <rect class="cls-11" x="194.8" y="643" width="2.9" height="8.7"/>
        <rect class="cls-22" x="169.1" y="691.1" width="6.9" height="4.2"/>
        <rect class="cls-16" x="189.5" y="720.8" width="4.2" height="6.9"/>
        <rect class="cls-22" x="172.4" y="740.1" width="4.2" height="6.9" transform="translate(-474.7 341.1) rotate(-45)"/>
        <g>
          <path class="cls-31" d="M157,802.2c-5.1,0-9.2,4.1-9.2,9.2s4.1,9.2,9.2,9.2,9.2-4.1,9.2-9.2-4.1-9.2-9.2-9.2ZM157,817.1c-3.1,0-5.7-2.6-5.7-5.7s2.6-5.7,5.7-5.7,5.7,2.6,5.7,5.7-2.5,5.7-5.7,5.7Z"/>
          <path class="cls-31" d="M118.7,802.6v17.7h17.7v-17.7h-17.7ZM127.6,817.1c-3.1,0-5.7-2.6-5.7-5.7s2.6-5.7,5.7-5.7,5.7,2.6,5.7,5.7-2.6,5.7-5.7,5.7Z"/>
          <path class="cls-31" d="M186.8,802.2c-5.1,0-9.2,4.1-9.2,9.2s4.1,9.2,9.2,9.2,9.2-4.1,9.2-9.2-4.1-9.2-9.2-9.2ZM186.8,817.1c-3.1,0-5.7-2.6-5.7-5.7s2.6-5.7,5.7-5.7,5.7,2.6,5.7,5.7-2.5,5.7-5.7,5.7Z"/>
        </g>
        <path class="cls-31" d="M17.5,780.9H.3v3.4c2.3.9,3.9,3.1,3.9,5.7s-1.6,4.8-3.9,5.7v3.4h17.2c5,0,9-4,9-9s-4.1-9.2-9-9.2ZM15.9,796c-3.4,0-6.1-2.7-6.1-6.1s2.7-6.1,6.1-6.1,6.1,2.7,6.1,6.1-2.8,6.1-6.1,6.1Z"/>
        <path class="cls-31" d="M17.5,751.5H.3v3.4c2.3.9,3.9,3.1,3.9,5.7s-1.6,4.8-3.9,5.7v3.4h17.2c5,0,9-4,9-9h0c0-5.2-4.1-9.2-9-9.2ZM15.9,766.6c-3.4,0-6.1-2.7-6.1-6.1s2.7-6.1,6.1-6.1,6.1,2.7,6.1,6.1-2.8,6.1-6.1,6.1Z"/>
        <path class="cls-31" d="M17.5,722.1H.3v3.4c2.3.9,3.9,3.1,3.9,5.7s-1.6,4.8-3.9,5.7v3.4h17.2c5,0,9-4,9-9h0c0-5.2-4.1-9.2-9-9.2ZM15.9,737.2c-3.4,0-6.1-2.7-6.1-6.1s2.7-6.1,6.1-6.1,6.1,2.7,6.1,6.1-2.8,6.1-6.1,6.1Z"/>
        <path class="cls-31" d="M17.5,692.7H.3v3.4c2.3.9,3.9,3.1,3.9,5.7s-1.6,4.8-3.9,5.7v3.4h17.2c5,0,9-4,9-9s-4.1-9.2-9-9.2ZM15.9,707.8c-3.4,0-6.1-2.7-6.1-6.1s2.7-6.1,6.1-6.1,6.1,2.7,6.1,6.1-2.8,6.1-6.1,6.1Z"/>
        <path class="cls-31" d="M17.5,633.9H.3v3.4c2.3.9,3.9,3.1,3.9,5.7s-1.6,4.8-3.9,5.7v3.4h17.2c5,0,9-4,9-9s-4.1-9.2-9-9.2ZM15.9,649c-3.4,0-6.1-2.7-6.1-6.1s2.7-6.1,6.1-6.1,6.1,2.7,6.1,6.1-2.8,6.1-6.1,6.1Z"/>
        <path class="cls-31" d="M17.5,604.5H.3v3.4c2.3.9,3.9,3.1,3.9,5.7s-1.6,4.8-3.9,5.7v3.4h17.2c5,0,9-4,9-9s-4.1-9.2-9-9.2ZM15.9,619.6c-3.4,0-6.1-2.7-6.1-6.1s2.7-6.1,6.1-6.1,6.1,2.7,6.1,6.1-2.8,6.1-6.1,6.1Z"/>
        <path class="cls-31" d="M17.5,575.1H.3v3.4c2.3.9,3.9,3.1,3.9,5.7s-1.6,4.8-3.9,5.7v3.4h17.2c5,0,9-4,9-9s-4.1-9.2-9-9.2ZM15.9,590.2c-3.4,0-6.1-2.7-6.1-6.1s2.7-6.1,6.1-6.1,6.1,2.7,6.1,6.1-2.8,6.1-6.1,6.1Z"/>
        <path class="cls-31" d="M17.5,545.7H.3v3.4c2.3.9,3.9,3.1,3.9,5.7s-1.6,4.8-3.9,5.7v3.4h17.2c5,0,9-4,9-9s-4.1-9.2-9-9.2ZM15.9,560.8c-3.4,0-6.1-2.7-6.1-6.1s2.7-6.1,6.1-6.1,6.1,2.7,6.1,6.1-2.8,6.1-6.1,6.1Z"/>
        <path class="cls-31" d="M17.5,486.9H.3v3.4c2.3.9,3.9,3.1,3.9,5.7s-1.6,4.8-3.9,5.7v3.4h17.2c5,0,9-4,9-9h0c0-5.2-4.1-9.2-9-9.2ZM15.9,502c-3.4,0-6.1-2.7-6.1-6.1s2.7-6.1,6.1-6.1,6.1,2.7,6.1,6.1-2.8,6.1-6.1,6.1Z"/>
        <path class="cls-31" d="M17.5,457.5H.3v3.4c2.3.9,3.9,3.1,3.9,5.7s-1.6,4.8-3.9,5.7v3.4h17.2c5,0,9-4,9-9s-4.1-9.2-9-9.2ZM15.9,472.6c-3.4,0-6.1-2.7-6.1-6.1s2.7-6.1,6.1-6.1,6.1,2.7,6.1,6.1-2.8,6.1-6.1,6.1Z"/>
        <path class="cls-31" d="M17.5,927.8H.3v3.4c2.3.9,3.9,3.1,3.9,5.7s-1.6,4.8-3.9,5.7v3.4h17.2c5,0,9-4,9-9s-4.1-9.2-9-9.2ZM15.9,942.9c-3.4,0-6.1-2.7-6.1-6.1s2.7-6.1,6.1-6.1,6.1,2.7,6.1,6.1-2.8,6.1-6.1,6.1Z"/>
        <path class="cls-31" d="M239.5,1025c0-2.6,1.6-4.8,3.9-5.7v-3.4h-17.2c-5,0-9,4-9,9s4,9,9,9h17.2v-3.4c-2.2-.7-3.9-2.9-3.9-5.5ZM227.8,1031.1c-3.4,0-6.1-2.7-6.1-6.1s2.7-6.1,6.1-6.1,6.1,2.7,6.1,6.1c0,3.4-2.7,6.1-6.1,6.1Z"/>
        <path class="cls-31" d="M239.5,936.9c0-2.6,1.6-4.8,3.9-5.7v-3.4h-17.2c-5,0-9,4-9,9s4,9,9,9h17.2v-3.4c-2.2-.8-3.9-3-3.9-5.5ZM227.8,942.9c-3.4,0-6.1-2.7-6.1-6.1s2.7-6.1,6.1-6.1,6.1,2.7,6.1,6.1-2.7,6.1-6.1,6.1Z"/>
        <path class="cls-31" d="M239.5,701.7c0-2.6,1.6-4.8,3.9-5.7v-3.4h-17.2c-5,0-9,4-9,9s4,9,9,9h17.2v-3.4c-2.2-.7-3.9-2.9-3.9-5.5ZM227.8,707.8c-3.4,0-6.1-2.7-6.1-6.1s2.7-6.1,6.1-6.1,6.1,2.7,6.1,6.1-2.7,6.1-6.1,6.1Z"/>
        <rect class="cls-8" x="91.5" y="794.2" width="3.7" height="6.7"/>
        <g>
          <path class="cls-24" d="M82.2,815.1h-31.8c-1.2,0-2.2-1-2.2-2.2v-23.7c0-1.2,1-2.2,2.2-2.2h31.8c1.2,0,2.2,1,2.2,2.2v23.7c0,1.2-1,2.2-2.2,2.2Z"/>
          <path class="cls-33" d="M79.9,812.6h-27.3c-.8,0-1.4-.6-1.4-1.4v-20.4c0-.8.6-1.4,1.4-1.4h27.3c.8,0,1.4.6,1.4,1.4v20.4c0,.8-.6,1.4-1.4,1.4Z"/>
        </g>
        <rect class="cls-8" x="91.4" y="814.2" width="3.7" height="6.7"/>
        <rect class="cls-16" x="100.1" y="799.9" width="4.2" height="6.9"/>
        <g>
          <path class="cls-20" d="M42.3,620.1v-3.6c0-2.2.6-3.9,2.6-3.9s1.9.5,2.2,1.4h0c.3-1.1,1.1-1.9,2.4-1.9,2.1,0,3.1,1.8,3.1,4.1v3.9h-10.4ZM46.4,616.5c0-1.1-.5-1.5-1.2-1.5s-1.1.5-1.1,1.5v1.1h2.2v-1.1h0ZM50.8,616.3c0-1.2-.4-1.8-1.3-1.8s-1.2.6-1.2,1.8v1.2h2.5v-1.2Z"/>
          <path class="cls-20" d="M47.4,610.8c-3.4,0-5.4-1.9-5.4-4.8s2-4.8,5.4-4.8,5.4,1.9,5.4,4.8-2,4.8-5.4,4.8ZM47.4,603.8c-2,0-3.2.8-3.2,2.2s1.2,2.2,3.2,2.2,3.3-.9,3.3-2.2-1.3-2.2-3.3-2.2Z"/>
          <path class="cls-20" d="M47.4,599.8c-3.4,0-5.4-1.9-5.4-4.8s2-4.8,5.4-4.8,5.4,1.9,5.4,4.8-2,4.8-5.4,4.8ZM47.4,592.8c-2,0-3.2.8-3.2,2.2s1.2,2.2,3.2,2.2,3.3-.9,3.3-2.2-1.3-2.2-3.3-2.2Z"/>
          <path class="cls-20" d="M44.3,586.8v2.8h-2.1v-8.1h2.1v2.8h8.3v2.5h-8.3Z"/>
          <path class="cls-20" d="M51.3,580.9l-1.6-1.3c.6-.7,1-1.7,1-2.6s-.4-1.4-.9-1.4-.8.6-1.2,1.5l-.6,1.3c-.4,1.1-1.3,2.1-2.8,2.1s-3.2-1.6-3.2-3.8.5-2.5,1.3-3.4l1.6,1.3c-.5.7-.8,1.4-.8,2.1s.3,1.3.8,1.3.8-.7,1.2-1.6l.5-1.3c.5-1.3,1.4-2.1,2.8-2.1s3.3,1.5,3.3,4c.2,1.4-.3,2.8-1.4,3.9Z"/>
          <path class="cls-20" d="M42.3,571.3v-6.6h2.1v4.1h2v-3.5h2.1v3.5h2.2v-4.3h2.1v6.8h-10.5Z"/>
          <path class="cls-20" d="M42.3,562.5v-2.5h8.3v-4h2.1v6.5h-10.4Z"/>
        </g>
        <g>
          <path class="cls-20" d="M141.4,777.2h3c3.2,0,5.3,1.6,5.3,5.2s-2.1,5.2-5.1,5.2h-3.1v-10.4h0ZM144.3,785.7c1.7,0,2.9-.8,2.9-3.2s-1.2-3.2-2.9-3.2h-.4v6.4h.4Z"/>
          <path class="cls-20" d="M151.6,777.2h6.6v2.1h-4.1v2h3.5v2.1h-3.5v2.2h4.3v2.1h-6.8v-10.5Z"/>
          <path class="cls-20" d="M160.4,777.2h3.6c2.2,0,3.9.6,3.9,2.6s-.5,1.9-1.4,2.2h0c1.1.4,1.9,1.2,1.9,2.5,0,2.1-1.8,3.1-4.1,3.1h-3.9v-10.4ZM164,781.4c1.1,0,1.5-.5,1.5-1.2s-.5-1.1-1.5-1.1h-1.1v2.2h1.1ZM164.2,785.8c1.2,0,1.8-.4,1.8-1.3s-.6-1.2-1.8-1.2h-1.2v2.5h1.2Z"/>
          <path class="cls-20" d="M170.1,782.8v-5.5h2.5v5.8c0,2,.6,2.7,1.7,2.7s1.8-.7,1.8-2.7v-5.8h2.4v5.5c0,3.5-1.4,5.1-4.2,5.1s-4.2-1.6-4.2-5.1Z"/>
          <path class="cls-20" d="M180.3,782.5c0-3.5,2.3-5.5,5.1-5.5s2.6.6,3.3,1.4l-1.3,1.5c-.5-.5-1.1-.7-1.9-.7-1.5,0-2.7,1.2-2.7,3.2s.9,3.3,2.9,3.3.8,0,1-.3v-1.7h-1.7v-2h3.9v4.9c-.7.7-2,1.3-3.5,1.3-2.8,0-5.1-1.9-5.1-5.4Z"/>
        </g>
        <rect class="cls-6" x="114.2" y="798.6" width="86.4" height="25.6"/>
        <g>
          <path class="cls-20" d="M40.1,513h2.5v8.3h4v2.1h-6.5v-10.4Z"/>
          <path class="cls-20" d="M48.4,513h6.6v2.1h-4.1v2h3.5v2.1h-3.5v2.2h4.3v2.1h-6.8v-10.5Z"/>
          <path class="cls-20" d="M57.2,513h3c3.2,0,5.3,1.6,5.3,5.2s-2.1,5.3-5.1,5.3h-3.1v-10.5h-.1ZM60.1,521.4c1.7,0,2.9-.8,2.9-3.2s-1.2-3.2-2.9-3.2h-.4v6.4h.4Z"/>
        </g>
        <g>
          <rect class="cls-15" x="143.7" y="662.5" width="5.4" height="10.6"/>
          <rect class="cls-22" x="143.7" y="664.8" width="5.4" height="6"/>
        </g>
        <g>
          <rect class="cls-15" x="154.3" y="662.5" width="5.4" height="10.6"/>
          <rect class="cls-22" x="154.3" y="664.8" width="5.4" height="6"/>
        </g>
        <rect class="cls-16" x="127.1" y="663.8" width="4.2" height="6.9"/>
        <rect class="cls-16" x="67.3" y="670.2" width="6.9" height="4.2"/>
        <rect class="cls-22" x="120.5" y="663.8" width="4.2" height="6.9"/>
        <rect class="cls-22" x="110.4" y="663.8" width="4.2" height="6.9"/>
        <path class="cls-31" d="M239.5,642.9c0-2.6,1.6-4.8,3.9-5.7v-3.4h-17.2c-5,0-9,4-9,9s4,9,9,9h17.2v-3.4c-2.2-.7-3.9-2.9-3.9-5.5ZM227.8,649c-3.4,0-6.1-2.7-6.1-6.1s2.7-6.1,6.1-6.1,6.1,2.7,6.1,6.1-2.7,6.1-6.1,6.1Z"/>
        <g>
          <rect class="cls-15" x="172.6" y="631.8" width="5.6" height="11.9"/>
          <rect class="cls-10" x="172.6" y="634.5" width="5.6" height="6.6"/>
        </g>
      </g>
      <g id="layer1">
        <path id="rect815" d="M494.7,34v77.8h-89.2c0,0,0-77.6,0-77.6h-35.7v78.2h0l.2,321.6,160.5-.2-.2-321.6h0V34h-35.7Z"/>
        <rect id="rect821" class="cls-20" x="393.9" y="403.1" width="112.4" height="28.5"/>
        <path id="rect825" class="cls-36" d="M399.8,404.7h16.8c2.9,0,5.3,2.4,5.3,5.3v14.7c0,2.9-2.4,5.3-5.3,5.3h-16.8c-2.9,0-5.3-2.4-5.3-5.3v-14.7c0-2.9,2.4-5.3,5.3-5.3Z"/>
        <path id="rect872" class="cls-36" d="M455.7,404.7h16.8c2.9,0,5.3,2.4,5.3,5.3v14.7c0,2.9-2.4,5.3-5.3,5.3h-16.8c-2.9,0-5.3-2.4-5.3-5.3v-14.7c0-3,2.4-5.3,5.3-5.3Z"/>
        <path id="rect874" class="cls-36" d="M427,404.7h18.1c2.5,0,4.6,2.1,4.6,4.6v16.1c0,2.5-2.1,4.6-4.6,4.6h-18.1c-2.5,0-4.6-2.1-4.6-4.6v-16.1c0-2.5,2.1-4.6,4.6-4.6Z"/>
        <rect id="rect947" class="cls-4" x="406.6" y="418.5" width="2.8" height="53.5"/>
        <rect id="rect949" class="cls-4" x="434.8" y="418.5" width="2.8" height="53.5"/>
        <rect id="rect951" class="cls-4" x="462.5" y="418.4" width="2.8" height="53.5"/>
        <rect id="rect87" x="392.5" y="307.8" width="114.5" height="28.8"/>
        <path id="path31-1" class="cls-20" d="M415.5,175.2c1,0,1.1,0,1.3-.1.1-.1.2-.2.3-.3.1-.2.1-.3.1-2.3v-2.2h4.2v2.7c0,3,0,3.2-.3,4-.3,1-1.2,1.7-2.2,1.8-.6.1-1.3.1-1.9.1s-1.8,0-2.1-.1h-.5v-3.6h1.1ZM435.7,181.2c18.1,0,22.6,0,21.8.1h-.1.1c.1,0,.1.1-.1.1s-.1,0,.2.1h.4-.7c.1,0,.1.1.1.5s0,.5.2.5.1,0-.1,0-.2,0-.2.1c0,0-7.2.1-21.4.1h-21.4v-1.6h21.2ZM419.3,164.7h2.1v3.4h-4.2v-3.4h2.1ZM423.7,171.1c.1-.9.4-1.8.8-2.6.1-.2.2-.4.3-.5.1-.1.2-.2.2-.3.2-.4.5-.7.8-1h.1c.3-.4.6-.7,1-1,.5-.3,1-.6,1.6-.8.8-.3,1.7-.5,2.6-.4.5,0,1,.1,1.5.2.3.1.7.2.9.3.1.1.2.1.3.1.2.1.4.2.5.3,1.3.9,2.3,2,3,3.4.8,1.7,1,3.7.3,5.4-.2.6-.5,1.1-.8,1.6-.3.6-.8,1.1-1.3,1.5-.8.9-1.9,1.5-3,1.8-.9.2-1.8.2-2.7.1-1-.2-2-.6-2.9-1.2-.3-.2-.6-.5-.9-.8-.1-.1-.2-.2-.3-.3-.9-1-1.5-2.3-1.9-3.6-.1-.8-.2-1.5-.1-2.2h0ZM427.8,172.9c.2.8.6,1.5,1.3,2.1.7.6,1.7.8,2.6.6,1.1-.5,2-1.5,2.2-2.7.2-.8.2-1.6,0-2.4-.2-.9-.8-1.7-1.5-2.2-.2-.2-.5-.3-.8-.4-.7-.1-1.4-.1-2,.2-.6.4-1.1.9-1.4,1.5-.6,1.1-.7,2.2-.4,3.3h0ZM439.8,164.7h4.2v1.9c0,1.8,0,1.9.1,2.2.4.8,1.3,1.3,2.1,1,.4-.1.8-.4,1-.8l.2-.4v-4h4.2v2.2c.1.9,0,1.8-.1,2.7-.2.8-.6,1.6-1.1,2.2-.1.1-.2.2-.2.3-.3.3-.6.7-1,.9-.4.3-.8.5-1.3.7-.1,0-.4.1-.7.2-.5.2-1,.2-1.5.2s-1.1,0-1.6-.2c-.6-.1-1.2-.4-1.7-.7-.6-.4-1.2-1-1.6-1.6-.6-.8-.9-1.7-1-2.7,0-1.4,0-2.8,0-4.1h0ZM445.8,175.2h3.5v3.6h-7v-3.6h3.5ZM451.8,161.9s.1-.1.1-.2q0-.2.3-.3h26.1v1.6h-26.3c-.1,0-.1-.1-.1-.5-.2-.4-.2-.6,0-.6h0ZM457.7,170.5h4.5v3.6h-9v-3.6h4.5ZM465.6,164.6h2.1v3.4h-4.2v-3.4h2.1ZM465.7,169.9h2.1v9h-4.2v-9h2.1ZM474.2,164.6h4.5v3.4h-9v-3.4h4.5ZM470.4,170.2h4.2v2.1c0,2.9-.1,2.7,2.1,2.8h1.4v3.6h-.5c-1.3.2-2.6.2-3.9.1-.9-.1-1.8-.5-2.4-1.1-.5-.6-.8-1.4-.9-2.2,0-.8,0-5.3,0-5.3h0ZM481.2,162.9c.1-.4.3-.7.6-1,.8-.8,2.2-.9,3.1-.2.3.2.6.5.8.9.1.3.2.6.2.9s0,.7-.2,1c-.4.7-1.1,1.2-1.9,1.3-.7.1-1.4-.2-1.9-.7-.7-.6-.9-1.4-.7-2.2ZM481.6,164.4c.3.5.8.9,1.4,1.1.6.1,1.3,0,1.8-.5.2-.1.3-.3.4-.6.2-.3.2-.6.2-.9s0-.6-.2-.9c-.1-.3-.3-.5-.6-.6-.2-.1-.4-.3-.6-.3-1-.3-2.1.2-2.5,1.2,0,.4,0,1,.1,1.5h0ZM483.2,162.1c.3,0,.6,0,.9.1.4.2.5.7.3,1.1-.1.1-.2.2-.3.2h-.2c0,.1.2.3.2.3.1.2.3.3.4.5.1.1.1.2.2.3s0,.1-.2.1h-.2l-.3-.5c-.4-.6-.5-.6-.9-.6h-.3v1.2h-.4v-2.6h.8ZM483.3,163.3c.4,0,.5,0,.7-.1.3-.2.1-.6-.3-.7h-.8v.8h.4Z"/>
        <path id="rect64" class="cls-36" d="M483.4,404.7h16.8c2.9,0,5.3,2.4,5.3,5.3v14.7c0,2.9-2.4,5.3-5.3,5.3h-16.8c-2.9,0-5.3-2.4-5.3-5.3v-14.7c0-3,2.4-5.3,5.3-5.3Z"/>
        <rect id="rect66" class="cls-4" x="490.3" y="418.4" width="2.8" height="53.5"/>
        <circle id="path107" class="cls-21" cx="450.1" cy="345.7" r="39.3"/>
        <circle id="path133" class="cls-20" cx="450.1" cy="345.7" r="32.1"/>
        <rect id="rect137" class="cls-20" x="369.7" y="195.3" width="60.7" height="107.1"/>
        <rect id="rect141" x="369.7" y="197.5" width="57.1" height="102.8"/>
        <rect id="rect139" class="cls-32" x="371.5" y="197.2" width="57.1" height="103.5"/>
        <circle id="path144" class="cls-35" cx="380.4" cy="291.8" r="8.9"/>
        <rect id="rect952" class="cls-37" x="371.5" y="290.3" width="17.8" height="2.9"/>
        <rect id="rect956" class="cls-20" x="452.6" y="213.2" width="77.8" height="60.7"/>
        <rect id="rect958" x="454.3" y="215" width="74.2" height="57.1"/>
        <rect id="rect960" class="cls-34" x="466.5" y="218.6" width="50" height="50"/>
        <rect id="rect962" class="cls-21" x="466.5" y="268.6" width="8.9" height="14.3"/>
        <rect id="rect964" class="cls-21" x="507.5" y="268.6" width="8.9" height="14.3"/>
        <rect id="rect966" class="cls-21" x="479" y="268.6" width="8.9" height="14.3"/>
        <rect id="rect968" class="cls-21" x="495" y="268.6" width="8.9" height="14.3"/>
        <rect id="rect970" class="cls-21" x="466.5" y="204.3" width="8.9" height="14.3"/>
        <rect id="rect972" class="cls-21" x="507.5" y="204.3" width="8.9" height="14.3"/>
        <rect id="rect974" class="cls-21" x="479" y="204.3" width="8.9" height="14.3"/>
        <rect id="rect976" class="cls-21" x="495" y="204.3" width="8.9" height="14.3"/>
        <polygon id="rect978" class="cls-4" points="469.5 266.8 472.3 266.8 472.4 275.7 469.6 275.7 469.5 266.8"/>
        <polygon id="rect980" class="cls-4" points="482 266.8 484.8 266.8 484.9 275.7 482 275.7 482 266.8"/>
        <polygon id="rect982" class="cls-4" points="498.1 266.8 500.9 266.8 500.9 275.7 498.1 275.7 498.1 266.8"/>
        <polygon id="rect984" class="cls-4" points="510.6 266.8 513.4 266.8 513.4 275.7 510.6 275.7 510.6 266.8"/>
        <polygon id="rect986" class="cls-4" points="469.5 220.4 472.3 220.4 472.4 211.5 469.6 211.5 469.5 220.4"/>
        <polygon id="rect988" class="cls-4" points="482 220.4 484.8 220.4 484.9 211.5 482 211.5 482 220.4"/>
        <polygon id="rect990" class="cls-4" points="498.1 220.4 500.9 220.4 500.9 211.5 498.1 211.5 498.1 220.4"/>
        <polygon id="rect992" class="cls-4" points="510.6 220.4 513.4 220.4 513.4 211.5 510.6 211.5 510.6 220.4"/>
        <circle id="path994" class="cls-21" cx="512.6" cy="68.7" r="12.5"/>
        <circle id="circle996" class="cls-21" cx="387.6" cy="68.7" r="12.5"/>
        <path id="rect836-7" class="cls-21" d="M433.9,116.9h5.4c5.4,0,9.8,4.4,9.8,9.8h0c0,5.4-4.4,9.8-9.8,9.8h-5.4c-5.4,0-9.8-4.4-9.8-9.8h0c0-5.4,4.4-9.8,9.8-9.8Z"/>
        <path id="rect836-6" class="cls-21" d="M460.7,116.9h5.4c5.4,0,9.8,4.4,9.8,9.8h0c0,5.4-4.4,9.8-9.8,9.8h-5.4c-5.4,0-9.8-4.4-9.8-9.8h0c-.1-5.4,4.3-9.8,9.8-9.8Z"/>
        <rect id="rect943" class="cls-21" x="482" y="116.9" width="18.5" height="25" transform="translate(-1.1 4.1) rotate(-.5)"/>
        <path id="rect1026" class="cls-21" d="M405.7,116.7h10.1c2.3,0,4.2,1.9,4.2,4.2h0v18.3c0,2.3-1.9,4.2-4.2,4.2h-10.1c-2.3,0-4.2-1.9-4.2-4.2h0v-18.3c0-2.3,1.9-4.2,4.2-4.2Z"/>
        <circle id="path1028" class="cls-20" cx="410.7" cy="134.5" r="5.4"/>
        <path id="rect1030" class="cls-21" d="M400,126.3v5.4c.2,5.4-4.2,9.8-9.6,9.9h0c-5.4.1-9.8-4.3-9.9-9.7h0v-5.4c-.2-5.4,4.2-9.8,9.6-9.9h0c5.4,0,9.8,4.3,9.9,9.7h0Z"/>
        <circle id="circle105" class="cls-20" cx="390.2" cy="129.2" r="7.1"/>
        <circle id="path138" class="cls-20" cx="387.6" cy="68.7" r="10.7"/>
        <circle id="circle140" class="cls-20" cx="512.5" cy="68.7" r="10.7"/>
        <rect id="rect142" class="cls-4" x="435.1" y="84.8" width="2.8" height="43.4"/>
        <rect id="rect144" class="cls-4" x="461.9" y="84.7" width="2.8" height="43.5"/>
        <path id="rect3800" class="cls-2" d="M449.3,0c-5.3.1-10.5,1.6-15,4.3-9.7,5.7-15.8,16.1-15.8,27.4h0v46.9h-2.3v7.1h67.8v-7.1h-2.3V31.7h0c0-11.3-6-21.7-15.8-27.4-5.1-3-10.8-4.4-16.6-4.3h0Z"/>
        <circle id="circle147" class="cls-20" cx="491.3" cy="129.2" r="7.1"/>
        <g id="text111">
          <g class="cls-3">
            <path class="cls-20" d="M525.9,171.9h.2c.1,0,0,.1,0,.1,0,0,0,.2,0,.3v1.1c0,.2,0,.3,0,.4q0,.1-.2.2l-7.2,5.3h7.3s0,.1,0,.2,0,.2,0,.3v1c0,.1,0,.2,0,.3,0,.1,0,.1,0,.2h-14s-.1-.1-.1-.2,0-.2-.1-.3,0-.3,0-.5v-.5c0-.1,0-.2.1-.3,0-.1.1-.1.1-.2h6.6l-6.4-5.1c0,0,0-.1-.2-.2,0-.1-.1-.1-.1-.2s0-.2-.1-.3v-1c0-.1,0-.2.1-.3,0-.1.1-.1.1-.1h0c0,0,.2,0,.3.1s.2.1.4.3l5.7,4.7,6.8-5.1c.2-.1.3-.2.4-.2h.1Z"/>
          </g>
          <g class="cls-3">
            <path class="cls-20" d="M520.7,164.9h5.5c.1,0,0,.1,0,.2s0,.2,0,.3v1c0,.1,0,.2,0,.3,0,.1,0,.1,0,.2s0,0-.2,0h-5.3l-8.1,4.1c-.2.1-.3.1-.4.1s-.2,0-.2-.1c-.1-.1-.1-.2-.1-.3v-1.1c0-.1,0-.2.1-.3,0-.1,0-.1,0-.2s0-.1.2-.1l4.1-2c.4-.2.8-.4,1.2-.6.4-.2.9-.4,1.3-.6h0c-.4-.2-.8-.3-1.3-.5-.4-.2-.8-.4-1.2-.5l-4.1-2c0,0,0-.1-.2-.1s-.1-.1-.1-.2,0-.2-.1-.3v-1.1c0-.1.1-.3.1-.3,0,0,.1-.1.2-.1s.2.1.4.1l8.1,4.1Z"/>
          </g>
          <g class="cls-3">
            <path class="cls-20" d="M520.6,155.4c.3,0,.5,0,.6.1s.2.2.2.3v4.6c0,.1,0,.2-.2.3s-.3.1-.6.1-.5,0-.6-.1-.2-.2-.2-.3v-4.8h0c0-.1,0-.2.2-.2h.5Z"/>
            <path class="cls-20" d="M519,144c1.1,0,2.1.1,3,.3s1.7.5,2.3.9,1.2.9,1.5,1.6c.4.6.5,1.5.5,2.4s-.2,1.7-.5,2.3-.8,1.1-1.4,1.5c-.6.4-1.4.6-2.3.8-.9.2-2,.2-3.1.2s-2.1-.1-3-.3-1.7-.5-2.3-.9c-.7-.4-1.2-.9-1.5-1.6-.4-.6-.5-1.4-.5-2.4s.2-1.7.5-2.3.8-1.1,1.4-1.5c.6-.4,1.4-.6,2.3-.8s1.9-.2,3.1-.2ZM519.2,145.9c-.7,0-1.4,0-1.9.1-.6.1-1.1.1-1.5.2s-.8.2-1.1.4-.6.3-.8.6c-.2.2-.3.5-.4.8,0,.3,0,.6,0,1,0,.6,0,1.1.4,1.5s.7.7,1.2.9,1.1.4,1.8.5,1.4.1,2.2.1,2-.1,2.7-.2c.7-.1,1.4-.3,1.8-.5.5-.2.8-.5,1-.9s.3-.8.3-1.4,0-.8-.2-1.1c0-.3-.3-.6-.6-.8-.2-.2-.5-.4-.9-.6-.3-.1-.7-.3-1.2-.4-.4-.1-.9-.1-1.4-.2-.3,0-.8,0-1.3,0Z"/>
            <path class="cls-20" d="M525.4,132.9h.4c.1,0,.2,0,.3.1,0,0,0,.1.2.1v8.4c0,.1,0,.1,0,.2q0,.1-.3.1h-.8c0,0-.2,0-.3-.1s-.2-.1-.3-.1c0-.1-.2-.1-.3-.2l-2.9-2.9c-.7-.7-1.3-1.2-1.8-1.6-.5-.4-1-.7-1.5-.9-.4-.2-.8-.4-1.2-.4s-.7-.1-1-.1-.6.1-.9.2-.5.3-.7.5-.4.5-.5.8-.2.7-.2,1.1,0,.9.2,1.3c0,.4.3.7.4,1,0,.3.3.5.4.7,0,.2.2.3.2.4h0c0,.1,0,.2,0,.2,0,0-.2,0-.3.1h-.9q0,0-.2-.1c0,0,0-.1-.2-.2s-.2-.2-.3-.5-.3-.5-.4-.8-.2-.7-.3-1.1c-.1-.4-.1-.8-.1-1.2,0-.7.1-1.3.3-1.8s.5-1,.8-1.3.7-.6,1.2-.8.9-.3,1.4-.3.9,0,1.4.1.9.3,1.5.5,1.1.6,1.8,1.1,1.4,1.2,2.2,2l2.4,2.3v-6.4c0,0,0-.1,0-.1,0,0,0-.1.2-.1s0-.2.2-.2Z"/>
            <path class="cls-20" d="M521.6,121.1c.6,0,1.2,0,1.8.3.6.2,1.1.5,1.5.9s.8.9,1.1,1.5.4,1.3.4,2.2,0,1.1-.2,1.6c-.1.5-.4.9-.6,1.2-.3.3-.6.6-1,.8s-.9.4-1.4.5-1.1.2-1.7.3c-.6.1-1.3.1-1.9.1s-1.2,0-1.9-.1-1.2-.2-1.8-.4-1.1-.4-1.6-.7-1-.7-1.3-1.1c-.4-.4-.7-1-.9-1.6s-.3-1.3-.3-2.1v-.8c0-.3.1-.5.1-.8.1-.2.1-.4.2-.6s0-.3.2-.3c0,0,0,0,0,0,0,0,0,0,.2,0h1c0,0,0,0,0,0v.2c0,0,0,.2,0,.3,0,0,0,.3-.2.5,0,.2,0,.4-.2.7s0,.6,0,1c0,.7,0,1.3.4,1.8s.7.9,1.1,1.2,1,.5,1.6.7,1.3.2,2,.3c0-.2-.2-.4-.3-.6,0-.2-.2-.5-.3-.8s-.2-.6-.2-.9,0-.7,0-1c0-.8,0-1.4.3-2,.2-.5.5-1,.9-1.3s.8-.6,1.3-.7c.6,0,1.2-.2,1.8-.2ZM521.8,123c-.4,0-.8,0-1.2,0s-.6.2-.9.4c-.2.2-.4.5-.6.8s-.2.7-.2,1.2,0,.5,0,.8c0,.3,0,.5.2.8,0,.3.2.5.3.7s.2.4.4.6c1,0,1.7-.1,2.4-.2.6-.1,1.2-.3,1.5-.5.4-.2.7-.5.8-.9s.2-.8.2-1.2,0-.9-.3-1.2-.4-.6-.7-.9-.6-.4-1-.5c-.3,0-.7,0-1,0Z"/>
          </g>
        </g>
        <g id="text115">
          <g class="cls-3">
            <path class="cls-20" d="M408.9,399.9c.1.2.1.3.1.4s0,.2-.1.2c-.1.1-.2.1-.3.1h-1c-.1,0-.2,0-.3-.1-.1,0-.1-.1-.2-.1,0,0-.1-.1-.1-.2l-1.2-3.5h-6l-1.2,3.4c0,.1-.1.1-.1.2s-.1.1-.2.1-.2.1-.3.1h-1c-.1,0-.2-.1-.3-.1s-.1-.1-.1-.2,0-.2.1-.4l4.8-13.3c0-.1.1-.1.1-.2s.1-.1.2-.1.2,0,.4-.1h1.1c.2,0,.3,0,.4.1.1,0,.2.1.2.1q.1.1.1.2l4.9,13.4ZM402.8,388.2h0l-2.5,7.1h5l-2.5-7.1Z"/>
            <path class="cls-20" d="M420.1,393.4c0,1.1-.1,2.1-.3,3-.2.9-.5,1.7-.9,2.3s-.9,1.2-1.6,1.5c-.6.4-1.5.5-2.4.5s-1.7-.2-2.3-.5c-.6-.3-1.1-.8-1.5-1.4s-.6-1.4-.8-2.3c-.2-.9-.2-2-.2-3.1s.1-2.1.3-3,.5-1.7.9-2.3.9-1.2,1.6-1.5c.6-.4,1.4-.5,2.4-.5s1.7.2,2.3.5c.6.3,1.1.8,1.5,1.4s.6,1.4.8,2.3c.1.9.2,1.9.2,3.1ZM418.2,393.6c0-.7,0-1.4-.1-1.9-.1-.6-.1-1.1-.2-1.5s-.2-.8-.4-1.1c-.2-.3-.3-.6-.6-.8-.2-.2-.5-.4-.8-.4-.3-.1-.6-.1-1-.1-.6,0-1.1.1-1.5.4s-.7.7-.9,1.2c-.2.5-.4,1.1-.5,1.8s-.1,1.4-.1,2.2.1,2,.2,2.7.3,1.4.5,1.8c.2.5.5.8.9,1s.8.3,1.4.3.8-.1,1.1-.2c.3-.1.6-.3.8-.6.2-.2.4-.5.6-.9.1-.3.3-.7.4-1.2.1-.4.1-.9.2-1.4-.1-.3,0-.8,0-1.3Z"/>
          </g>
        </g>
        <g id="text119">
          <g class="cls-3">
            <path class="cls-20" d="M441.9,388.3v.4c0,.1,0,.2-.1.3,0,.1-.1.1-.1.1h-.1c-.1,0-.2-.1-.4-.2-.2-.1-.5-.3-.8-.5s-.8-.3-1.2-.5c-.5-.1-1.1-.2-1.7-.2s-1.5.1-2.1.4-1.2.7-1.6,1.2-.8,1.1-1,1.8-.3,1.5-.3,2.3.1,1.7.4,2.4c.3.7.6,1.3,1.1,1.8s1,.9,1.6,1.1c.6.3,1.3.4,2.1.4s.9-.1,1.3-.2c.5-.1.9-.3,1.3-.5v-4.2h-3.3c-.1,0-.2-.1-.3-.2-.1-.1-.1-.3-.1-.6v-.4c0-.1,0-.2.1-.2s.1-.1.1-.1h4.9c.1,0,.2.1.2.1l.2.2c0,.1.1.2.1.4v5.5c0,.2,0,.4-.1.5s-.2.3-.4.4c-.2.1-.5.2-.8.3-.3.1-.7.2-1.1.3-.4.1-.7.2-1.1.2s-.7.1-1.1.1c-1.1,0-2.1-.2-3-.5s-1.6-.8-2.2-1.5c-.6-.6-1.1-1.4-1.4-2.3s-.5-1.9-.5-3,.2-2.2.5-3.1.8-1.7,1.4-2.4c.6-.6,1.4-1.2,2.2-1.5.9-.4,1.8-.5,2.9-.5s1.1,0,1.5.1c.5.1.9.2,1.3.3.4.1.7.3.9.4.3.2.4.3.5.4s.2.2.2.3c0,.4,0,.6,0,.9Z"/>
          </g>
        </g>
        <g id="text123">
          <g class="cls-3">
            <path class="cls-20" d="M469,395.6v.4c0,.1-.1.2-.1.2,0,.1-.1.1-.1.1h-3.8v4h0c0,.1-.1.2-.1.2,0,0-.1.1-.2.1h-.8c-.1,0-.2,0-.3-.1-.1,0-.1-.1-.1-.1h0v-4.1h-3.9c0-.1-.1-.2-.1-.3v-.7c0-.1.1-.2.1-.2h.1c0-.1.1-.1.2-.1h3.6v-4.2c0-.1.1-.1.1-.1.1,0,.1-.1.3-.1h.8c.1,0,.2,0,.2.1s.1.1.1.1v4.2h3.9c0,.2.1.2.1.3s0,.2,0,.3Z"/>
          </g>
        </g>
        <g id="text127">
          <g class="cls-3">
            <path class="cls-20" d="M491.5,393.2c0,1.2-.2,2.3-.5,3.2-.3.9-.8,1.7-1.4,2.3-.6.6-1.4,1.1-2.2,1.4-.9.3-1.9.5-3.2.5h-3c-.2,0-.3-.1-.5-.2s-.2-.3-.2-.6v-12.8c0-.3.1-.5.2-.6s.3-.2.5-.2h3.2c1.2,0,2.3.2,3.1.5.9.3,1.6.8,2.2,1.4s1,1.3,1.3,2.2.5,1.9.5,2.9ZM489.5,393.3c0-.8-.1-1.5-.3-2.2-.2-.7-.5-1.2-.9-1.7s-.9-.9-1.6-1.1c-.6-.3-1.4-.4-2.4-.4h-1.9v11.1h2c.9,0,1.7-.1,2.3-.3.6-.2,1.2-.6,1.6-1.1s.7-1.1.9-1.8.3-1.5.3-2.5Z"/>
            <path class="cls-20" d="M503.2,393.4c0,1.1-.1,2.1-.3,3-.2.9-.5,1.7-.9,2.3s-.9,1.2-1.6,1.5c-.6.4-1.5.5-2.4.5s-1.7-.2-2.3-.5c-.6-.3-1.1-.8-1.5-1.4s-.6-1.4-.8-2.3c-.2-.9-.2-2-.2-3.1s.1-2.1.3-3,.5-1.7.9-2.3.9-1.2,1.6-1.5c.6-.4,1.4-.5,2.4-.5s1.7.2,2.3.5c.6.3,1.1.8,1.5,1.4s.6,1.4.8,2.3c.1.9.2,1.9.2,3.1ZM501.2,393.6c0-.7,0-1.4-.1-1.9-.1-.6-.1-1.1-.2-1.5s-.2-.8-.4-1.1c-.2-.3-.3-.6-.6-.8-.2-.2-.5-.4-.8-.4-.3-.1-.6-.1-1-.1-.6,0-1.1.1-1.5.4s-.7.7-.9,1.2c-.2.5-.4,1.1-.5,1.8s-.1,1.4-.1,2.2.1,2,.2,2.7.3,1.4.5,1.8c.2.5.5.8.9,1s.8.3,1.4.3.8-.1,1.1-.2c.3-.1.6-.3.8-.6.2-.2.4-.5.6-.9.1-.3.3-.7.4-1.2.1-.4.1-.9.2-1.4v-1.3Z"/>
          </g>
        </g>
      </g>
      <rect id="rect1707" class="cls-23" x="231.5" y="578.7" width="46.2" height="11.3"/>
      <circle id="circle281" class="cls-19" cx="231.8" cy="525.4" r="11.9"/>
      <circle id="circle281-2" class="cls-23" cx="231.5" cy="584.4" r="11.6"/>
      <rect id="rect1727" class="cls-19" x="231.5" y="519.7" width="210.4" height="11.3"/>
      <rect id="rect1727-4" class="cls-23" x="266.3" y="613.4" width="203.4" height="11.3"/>
      <rect id="rect1727-5" class="cls-23" x="266.3" y="578.7" width="11.3" height="46.1"/>
      <rect id="rect1727-9" class="cls-26" x="402.4" y="443.3" width="11.3" height="295.5"/>
      <rect id="rect1727-10" class="cls-19" x="430.6" y="443.3" width="11.3" height="87.8"/>
      <rect id="rect1727-11" class="cls-23" x="458.4" y="443.3" width="11.3" height="181.5"/>
      <rect id="rect1727-12" class="cls-27" x="486.2" y="443.3" width="11.3" height="499.3"/>
      <circle id="circle281-5" class="cls-27" cx="232.1" cy="936.9" r="11.6"/>
      <circle id="circle281-6" class="cls-27" cx="492" cy="443.3" r="11.6"/>
      <circle id="circle281-7" class="cls-23" cx="464.2" cy="443.3" r="11.6"/>
      <circle id="circle281-8" class="cls-19" cx="436.2" cy="443.3" r="11.6"/>
      <circle id="circle281-9" class="cls-26" cx="408.2" cy="443.3" r="11.6"/>
      <rect class="cls-27" x="232.1" y="931.3" width="265.4" height="11.3"/>
      <circle id="circle281-9-2" data-name="circle281-9" class="cls-26" cx="230.3" cy="732" r="11.6"/>
      <rect id="rect1727-9-2" data-name="rect1727-9" class="cls-26" x="230.3" y="727.8" width="183.4" height="11.3"/>
    </g>
  </g>
</svg>