<?xml version="1.0" encoding="utf-8"?>
<!-- Generator: Adobe Illustrator 27.8.0, SVG Export Plug-In . SVG Version: 6.00 Build 0)  -->
<svg version="1.1" id="Ebene_1" xmlns="http://www.w3.org/2000/svg" xmlns:xlink="http://www.w3.org/1999/xlink" x="0px" y="0px"
	 viewBox="0 0 477.9 833.5" style="enable-background:new 0 0 477.9 833.5;" xml:space="preserve">
<style type="text/css">
	.st0{fill:#02814B;}
	.st1{fill:#D4C547;}
	.st2{fill:#525035;}
	.st3{fill:#FEE86F;}
	.st4{fill:#FFE17B;}
	.st5{fill:#DDDDDD;}
	.st6{fill:#7F7F7F;}
	.st7{fill:#474544;}
	.st8{fill:#E2EADE;}
	.st9{fill:#C29148;}
	.st10{fill:#8DDDDE;}
	.st11{fill:#C1C1C1;}
	.st12{fill:#C2BFAB;}
	.st13{fill:none;stroke:#95AC6E;stroke-miterlimit:10;}
	.st14{fill:#E8D28A;}
	.st15{fill:#CECECE;}
	.st16{fill:#FFFFFF;}
	.st17{fill:#36323E;}
	.st18{fill:#868C97;}
	.st19{fill:#FCFCFA;}
	.st20{fill:#141316;}
	.st21{fill:#B9A68F;}
	.st22{fill:#E0B45B;}
	.st23{fill:#ABA28E;}
	.st24{fill:none;stroke:#FFFFFF;stroke-miterlimit:10;}
	.st25{fill:#010101;}
	.st26{opacity:0.99;fill:#CDCCCC;enable-background:new    ;}
	.st27{opacity:0.99;fill:#FFFFFF;enable-background:new    ;}
	.st28{fill:#1B1B1B;}
	.st29{opacity:0.99;fill:#808181;enable-background:new    ;}
	.st30{fill:#CDCCCC;}
	.st31{opacity:0.99;fill:#F2F2F2;enable-background:new    ;}
	.st32{enable-background:new    ;}
	.st33{opacity:0.99;fill:#1B1B1B;enable-background:new    ;}
	.st34{fill:#915114;}
	.st35{fill:#E20E18;}
	.st36{fill:#22AE87;}
	.st37{fill:#25AF88;}
	.st38{fill:#0D8136;}
</style>
<g>
	<path class="st0" d="M243.3,251.5v-11.9H0.2v11.9c2.3,0.9,3.9,3.1,3.9,5.7c0,2.6-1.6,4.8-3.9,5.7v18.1c2.3,0.9,3.9,3.1,3.9,5.7
		s-1.6,4.8-3.9,5.7v18.1c2.3,0.9,3.9,3.1,3.9,5.7s-1.6,4.8-3.9,5.7v18.1c2.3,0.9,3.9,3.1,3.9,5.7s-1.6,4.8-3.9,5.7V369
		c2.3,0.9,3.9,3.1,3.9,5.7s-1.6,4.8-3.9,5.7v18.1c2.3,0.9,3.9,3.1,3.9,5.7s-1.6,4.8-3.9,5.7v18.1c2.3,0.9,3.9,3.1,3.9,5.7
		s-1.6,4.8-3.9,5.7v18.1c2.3,0.9,3.9,3.1,3.9,5.7s-1.6,4.8-3.9,5.7v18.1c2.3,0.9,3.9,3.1,3.9,5.7s-1.6,4.8-3.9,5.7V516
		c2.3,0.9,3.9,3.1,3.9,5.7s-1.6,4.8-3.9,5.7v18.1c2.3,0.9,3.9,3.1,3.9,5.7s-1.6,4.8-3.9,5.7v18.1c2.3,0.9,3.9,3.1,3.9,5.7
		s-1.6,4.8-3.9,5.7v18.1c2.3,0.9,3.9,3.1,3.9,5.7s-1.6,4.8-3.9,5.7v18.1c2.3,0.9,3.9,3.1,3.9,5.7s-1.6,4.8-3.9,5.7V663
		c2.3,0.9,3.9,3.1,3.9,5.7s-1.6,4.8-3.9,5.7v18.1c2.3,0.9,3.9,3.1,3.9,5.7s-1.6,4.8-3.9,5.7v18.1c2.3,0.9,3.9,3.1,3.9,5.7
		s-1.6,4.8-3.9,5.7v18.1c2.3,0.9,3.9,3.1,3.9,5.7s-1.6,4.8-3.9,5.7v18c2.3,0.9,3.9,3.1,3.9,5.7s-1.6,4.8-3.9,5.7V810
		c2.3,0.9,3.9,3.1,3.9,5.7s-1.6,4.8-3.9,5.7v11.9h78.5h7.5h11.3h18.5h11.3H146h11.3h4h82v-11.9c-2.2-0.9-3.8-3.1-3.8-5.7
		s1.6-4.8,3.8-5.7v-18.1c-2.2-0.9-3.8-3.1-3.8-5.7s1.6-4.8,3.8-5.7v-18.1c-2.2-0.9-3.8-3.1-3.8-5.7s1.6-4.8,3.8-5.7v-18.1
		c-2.2-0.9-3.8-3.1-3.8-5.7s1.6-4.8,3.8-5.7v-18.1c-2.2-0.9-3.8-3.1-3.8-5.7s1.6-4.8,3.8-5.7v-18.1c-2.2-0.9-3.8-3.1-3.8-5.7
		s1.6-4.8,3.8-5.7v-18.1c-2.2-0.9-3.8-3.1-3.8-5.7s1.6-4.8,3.8-5.7v-18.1c-2.2-0.9-3.8-3.1-3.8-5.7s1.6-4.8,3.8-5.7v-18.1
		c-2.2-0.9-3.8-3.1-3.8-5.7s1.6-4.8,3.8-5.7v-18.1c-2.2-0.9-3.8-3.1-3.8-5.7s1.6-4.8,3.8-5.7v-18.1c-2.2-0.9-3.8-3.1-3.8-5.7
		s1.6-4.8,3.8-5.7v-18.1c-2.2-0.9-3.8-3.1-3.8-5.7s1.6-4.8,3.8-5.7v-18.1c-2.2-0.9-3.8-3.1-3.8-5.7s1.6-4.8,3.8-5.7v-18.1
		c-2.2-0.9-3.8-3.1-3.8-5.7s1.6-4.8,3.8-5.7v-18.1c-2.2-0.9-3.8-3.1-3.8-5.7s1.6-4.8,3.8-5.7v-18.1c-2.2-0.9-3.8-3.1-3.8-5.7
		s1.6-4.8,3.8-5.7V351c-2.2-0.9-3.8-3.1-3.8-5.7s1.6-4.8,3.8-5.7v-18.1c-2.2-0.9-3.8-3.1-3.8-5.7s1.6-4.8,3.8-5.7v-18.1
		c-2.2-0.9-3.8-3.1-3.8-5.7s1.6-4.8,3.8-5.7v-18.1c-2.2-0.9-3.8-3.1-3.8-5.7C239.5,254.6,241.1,252.4,243.3,251.5z M15.8,821.7
		c-3.4,0-6.1-2.7-6.1-6.1s2.7-6.1,6.1-6.1s6.1,2.7,6.1,6.1S19.2,821.7,15.8,821.7z M15.8,792.3c-3.4,0-6.1-2.7-6.1-6.1
		s2.7-6.1,6.1-6.1s6.1,2.7,6.1,6.1S19.2,792.3,15.8,792.3z M15.8,762.9c-3.4,0-6.1-2.7-6.1-6.1s2.7-6.1,6.1-6.1s6.1,2.7,6.1,6.1
		S19.2,762.9,15.8,762.9z M15.8,733.5c-3.4,0-6.1-2.7-6.1-6.1s2.7-6.1,6.1-6.1s6.1,2.7,6.1,6.1S19.2,733.5,15.8,733.5z M15.8,704.1
		c-3.4,0-6.1-2.7-6.1-6.1s2.7-6.1,6.1-6.1s6.1,2.7,6.1,6.1S19.2,704.1,15.8,704.1z M15.8,674.7c-3.4,0-6.1-2.7-6.1-6.1
		s2.7-6.1,6.1-6.1s6.1,2.7,6.1,6.1S19.2,674.7,15.8,674.7z M15.8,645.3c-3.4,0-6.1-2.7-6.1-6.1s2.7-6.1,6.1-6.1s6.1,2.7,6.1,6.1
		S19.2,645.3,15.8,645.3z M15.8,616c-3.4,0-6.1-2.7-6.1-6.1s2.7-6.1,6.1-6.1s6.1,2.7,6.1,6.1S19.2,616,15.8,616z M15.8,586.6
		c-3.4,0-6.1-2.7-6.1-6.1s2.7-6.1,6.1-6.1s6.1,2.7,6.1,6.1S19.2,586.6,15.8,586.6z M15.8,557.2c-3.4,0-6.1-2.7-6.1-6.1
		s2.7-6.1,6.1-6.1s6.1,2.7,6.1,6.1S19.2,557.2,15.8,557.2z M15.8,527.8c-3.4,0-6.1-2.7-6.1-6.1s2.7-6.1,6.1-6.1s6.1,2.7,6.1,6.1
		S19.2,527.8,15.8,527.8z M15.8,498.4c-3.4,0-6.1-2.7-6.1-6.1s2.7-6.1,6.1-6.1s6.1,2.7,6.1,6.1S19.2,498.4,15.8,498.4z M15.8,469
		c-3.4,0-6.1-2.7-6.1-6.1s2.7-6.1,6.1-6.1s6.1,2.7,6.1,6.1S19.2,469,15.8,469z M15.8,439.6c-3.4,0-6.1-2.7-6.1-6.1s2.7-6.1,6.1-6.1
		s6.1,2.7,6.1,6.1S19.2,439.6,15.8,439.6z M15.8,410.2c-3.4,0-6.1-2.7-6.1-6.1s2.7-6.1,6.1-6.1s6.1,2.7,6.1,6.1
		S19.2,410.2,15.8,410.2z M15.8,380.8c-3.4,0-6.1-2.7-6.1-6.1s2.7-6.1,6.1-6.1s6.1,2.7,6.1,6.1S19.2,380.8,15.8,380.8z M15.8,351.4
		c-3.4,0-6.1-2.7-6.1-6.1s2.7-6.1,6.1-6.1c3.4,0,6.1,2.7,6.1,6.1S19.2,351.4,15.8,351.4z M15.8,322c-3.4,0-6.1-2.7-6.1-6.1
		s2.7-6.1,6.1-6.1s6.1,2.7,6.1,6.1S19.2,322,15.8,322z M15.8,292.6c-3.4,0-6.1-2.7-6.1-6.1s2.7-6.1,6.1-6.1s6.1,2.7,6.1,6.1
		S19.2,292.6,15.8,292.6z M15.8,263.2c-3.4,0-6.1-2.7-6.1-6.1c0-3.4,2.7-6.1,6.1-6.1s6.1,2.7,6.1,6.1
		C21.9,260.5,19.2,263.2,15.8,263.2z M53.7,821.7c-6.7,0-12.1-5.4-12.1-12.1s5.4-12.1,12.1-12.1c6.7,0,12.1,5.4,12.1,12.1
		S60.4,821.7,53.7,821.7z M53.7,274.5c-6.7,0-12.1-5.4-12.1-12.1c0-6.7,5.4-12.1,12.1-12.1c6.7,0,12.1,5.4,12.1,12.1
		C65.8,269.1,60.4,274.5,53.7,274.5z M127.6,607.8c-3.1,0-5.7-2.6-5.7-5.7s2.6-5.7,5.7-5.7c3.1,0,5.7,2.6,5.7,5.7
		S130.7,607.8,127.6,607.8z M157,607.8c-3.1,0-5.7-2.6-5.7-5.7s2.6-5.7,5.7-5.7c3.1,0,5.7,2.6,5.7,5.7S160.2,607.8,157,607.8z
		 M186.2,250.3c6.7,0,12.1,5.4,12.1,12.1c0,6.7-5.4,12.1-12.1,12.1s-12.1-5.4-12.1-12.1C174.1,255.7,179.6,250.3,186.2,250.3z
		 M192.5,602.1c0,3.1-2.6,5.7-5.7,5.7c-3.1,0-5.7-2.6-5.7-5.7s2.6-5.7,5.7-5.7C190,596.4,192.5,598.9,192.5,602.1z M188.2,821.7
		c-6.7,0-12.1-5.4-12.1-12.1s5.4-12.1,12.1-12.1s12.1,5.4,12.1,12.1S194.9,821.7,188.2,821.7z M227.8,821.7c-3.4,0-6.1-2.7-6.1-6.1
		s2.7-6.1,6.1-6.1s6.1,2.7,6.1,6.1S231.2,821.7,227.8,821.7z M227.8,792.3c-3.4,0-6.1-2.7-6.1-6.1s2.7-6.1,6.1-6.1s6.1,2.7,6.1,6.1
		S231.2,792.3,227.8,792.3z M227.8,762.9c-3.4,0-6.1-2.7-6.1-6.1s2.7-6.1,6.1-6.1s6.1,2.7,6.1,6.1S231.2,762.9,227.8,762.9z
		 M227.8,733.5c-3.4,0-6.1-2.7-6.1-6.1s2.7-6.1,6.1-6.1s6.1,2.7,6.1,6.1S231.2,733.5,227.8,733.5z M227.8,704.1
		c-3.4,0-6.1-2.7-6.1-6.1s2.7-6.1,6.1-6.1s6.1,2.7,6.1,6.1S231.2,704.1,227.8,704.1z M227.8,674.7c-3.4,0-6.1-2.7-6.1-6.1
		s2.7-6.1,6.1-6.1s6.1,2.7,6.1,6.1S231.2,674.7,227.8,674.7z M227.8,645.3c-3.4,0-6.1-2.7-6.1-6.1s2.7-6.1,6.1-6.1s6.1,2.7,6.1,6.1
		S231.2,645.3,227.8,645.3z M227.8,616c-3.4,0-6.1-2.7-6.1-6.1s2.7-6.1,6.1-6.1s6.1,2.7,6.1,6.1S231.2,616,227.8,616z M227.8,586.6
		c-3.4,0-6.1-2.7-6.1-6.1s2.7-6.1,6.1-6.1s6.1,2.7,6.1,6.1S231.2,586.6,227.8,586.6z M227.8,557.2c-3.4,0-6.1-2.7-6.1-6.1
		s2.7-6.1,6.1-6.1s6.1,2.7,6.1,6.1S231.2,557.2,227.8,557.2z M227.8,527.8c-3.4,0-6.1-2.7-6.1-6.1s2.7-6.1,6.1-6.1s6.1,2.7,6.1,6.1
		S231.2,527.8,227.8,527.8z M227.8,498.4c-3.4,0-6.1-2.7-6.1-6.1s2.7-6.1,6.1-6.1s6.1,2.7,6.1,6.1S231.2,498.4,227.8,498.4z
		 M227.8,469c-3.4,0-6.1-2.7-6.1-6.1s2.7-6.1,6.1-6.1s6.1,2.7,6.1,6.1S231.2,469,227.8,469z M227.8,439.6c-3.4,0-6.1-2.7-6.1-6.1
		s2.7-6.1,6.1-6.1s6.1,2.7,6.1,6.1S231.2,439.6,227.8,439.6z M227.8,410.2c-3.4,0-6.1-2.7-6.1-6.1s2.7-6.1,6.1-6.1s6.1,2.7,6.1,6.1
		S231.2,410.2,227.8,410.2z M227.8,380.8c-3.4,0-6.1-2.7-6.1-6.1s2.7-6.1,6.1-6.1s6.1,2.7,6.1,6.1S231.2,380.8,227.8,380.8z
		 M227.8,351.4c-3.4,0-6.1-2.7-6.1-6.1s2.7-6.1,6.1-6.1s6.1,2.7,6.1,6.1S231.2,351.4,227.8,351.4z M227.8,322
		c-3.4,0-6.1-2.7-6.1-6.1s2.7-6.1,6.1-6.1s6.1,2.7,6.1,6.1S231.2,322,227.8,322z M227.8,292.6c-3.4,0-6.1-2.7-6.1-6.1
		s2.7-6.1,6.1-6.1s6.1,2.7,6.1,6.1S231.2,292.6,227.8,292.6z M227.8,263.2c-3.4,0-6.1-2.7-6.1-6.1c0-3.4,2.7-6.1,6.1-6.1
		s6.1,2.7,6.1,6.1C233.9,260.5,231.2,263.2,227.8,263.2z"/>
	<path class="st1" d="M53.7,241.9c-11.3,0-20.5,9.2-20.5,20.5c0,11.3,9.2,20.5,20.5,20.5s20.5-9.2,20.5-20.5
		C74.3,251.1,65.1,241.9,53.7,241.9z M53.7,274.6c-6.7,0-12.1-5.4-12.1-12.1c0-6.7,5.4-12.1,12.1-12.1c6.7,0,12.1,5.4,12.1,12.1
		C65.8,269.1,60.4,274.6,53.7,274.6z"/>
	<path class="st1" d="M186.3,241.9c-11.3,0-20.5,9.2-20.5,20.5c0,11.3,9.2,20.5,20.5,20.5c11.3,0,20.5-9.2,20.5-20.5
		C206.8,251.1,197.6,241.9,186.3,241.9z M186.3,274.6c-6.7,0-12.1-5.4-12.1-12.1c0-6.7,5.4-12.1,12.1-12.1c6.7,0,12.1,5.4,12.1,12.1
		C198.4,269.1,193,274.6,186.3,274.6z"/>
	<path class="st1" d="M53.7,789c-11.3,0-20.5,9.2-20.5,20.5s9.2,20.5,20.5,20.5s20.5-9.2,20.5-20.5S65.1,789,53.7,789z M53.7,821.7
		c-6.7,0-12.1-5.4-12.1-12.1s5.4-12.1,12.1-12.1c6.7,0,12.1,5.4,12.1,12.1S60.4,821.7,53.7,821.7z"/>
	<path class="st1" d="M188.3,789c-11.3,0-20.5,9.2-20.5,20.5s9.2,20.5,20.5,20.5c11.3,0,20.5-9.2,20.5-20.5S199.6,789,188.3,789z
		 M188.3,821.7c-6.7,0-12.1-5.4-12.1-12.1s5.4-12.1,12.1-12.1c6.7,0,12.1,5.4,12.1,12.1S195,821.7,188.3,821.7z"/>
	<circle class="st2" cx="55" cy="327.1" r="10.6"/>
	<circle class="st3" cx="55" cy="327.1" r="5.5"/>
	<path class="st4" d="M17.5,306.9H0.3v3.4c2.3,0.9,3.9,3.1,3.9,5.7s-1.6,4.8-3.9,5.7v3.4h17.2c5,0,9-4,9-9v0
		C26.5,311,22.4,306.9,17.5,306.9z M15.9,322c-3.4,0-6.1-2.7-6.1-6.1s2.7-6.1,6.1-6.1s6.1,2.7,6.1,6.1S19.2,322,15.9,322z"/>
	<path class="st4" d="M17.5,453.9H0.3v3.4c2.3,0.9,3.9,3.1,3.9,5.7s-1.6,4.8-3.9,5.7v3.4h17.2c5,0,9-4,9-9S22.4,453.9,17.5,453.9z
		 M15.9,469c-3.4,0-6.1-2.7-6.1-6.1s2.7-6.1,6.1-6.1s6.1,2.7,6.1,6.1S19.2,469,15.9,469z"/>
	<path class="st4" d="M17.5,600.9H0.3v3.4c2.3,0.9,3.9,3.1,3.9,5.7s-1.6,4.8-3.9,5.7v3.4h17.2c5,0,9-4,9-9S22.4,600.9,17.5,600.9z
		 M15.9,616c-3.4,0-6.1-2.7-6.1-6.1s2.7-6.1,6.1-6.1s6.1,2.7,6.1,6.1S19.2,616,15.9,616z"/>
	<path class="st4" d="M17.5,630.3H0.3v3.4c2.3,0.9,3.9,3.1,3.9,5.7s-1.6,4.8-3.9,5.7v3.4h17.2c5,0,9-4,9-9S22.4,630.3,17.5,630.3z
		 M15.9,645.4c-3.4,0-6.1-2.7-6.1-6.1s2.7-6.1,6.1-6.1s6.1,2.7,6.1,6.1S19.2,645.4,15.9,645.4z"/>
	<path class="st4" d="M17.5,659.7H0.3v3.4c2.3,0.9,3.9,3.1,3.9,5.7s-1.6,4.8-3.9,5.7v3.4h17.2c5,0,9-4,9-9S22.4,659.7,17.5,659.7z
		 M15.9,674.8c-3.4,0-6.1-2.7-6.1-6.1s2.7-6.1,6.1-6.1s6.1,2.7,6.1,6.1S19.2,674.8,15.9,674.8z"/>
	<path class="st4" d="M17.5,689.1H0.3v3.4c2.3,0.9,3.9,3.1,3.9,5.7s-1.6,4.8-3.9,5.7v3.4h17.2c5,0,9-4,9-9S22.4,689.1,17.5,689.1z
		 M15.9,704.2c-3.4,0-6.1-2.7-6.1-6.1s2.7-6.1,6.1-6.1s6.1,2.7,6.1,6.1S19.2,704.2,15.9,704.2z"/>
	<path class="st4" d="M17.5,747.9H0.3v3.4c2.3,0.9,3.9,3.1,3.9,5.7s-1.6,4.8-3.9,5.7v3.4h17.2c5,0,9-4,9-9v0
		C26.5,751.9,22.4,747.9,17.5,747.9z M15.9,763c-3.4,0-6.1-2.7-6.1-6.1s2.7-6.1,6.1-6.1s6.1,2.7,6.1,6.1S19.2,763,15.9,763z"/>
	<path class="st4" d="M17.5,777.2H0.3v3.4c2.3,0.9,3.9,3.1,3.9,5.7s-1.6,4.8-3.9,5.7v3.4h17.2c5,0,9-4,9-9v0
		C26.5,781.3,22.4,777.2,17.5,777.2z M15.9,792.4c-3.4,0-6.1-2.7-6.1-6.1s2.7-6.1,6.1-6.1s6.1,2.7,6.1,6.1S19.2,792.4,15.9,792.4z"
		/>
	<path class="st4" d="M17.5,806.6H0.3v3.4c2.3,0.9,3.9,3.1,3.9,5.7s-1.6,4.8-3.9,5.7v3.4h17.2c5,0,9-4,9-9S22.4,806.6,17.5,806.6z
		 M15.9,821.8c-3.4,0-6.1-2.7-6.1-6.1s2.7-6.1,6.1-6.1s6.1,2.7,6.1,6.1S19.2,821.8,15.9,821.8z"/>
	<path class="st4" d="M239.5,257.1c0-2.6,1.6-4.8,3.9-5.7v-3.4h-17.2c-5,0-9,4-9,9c0,5,4,9,9,9h17.2v-3.4
		C241.2,261.9,239.5,259.7,239.5,257.1z M227.8,263.2c-3.4,0-6.1-2.7-6.1-6.1c0-3.4,2.7-6.1,6.1-6.1s6.1,2.7,6.1,6.1
		C233.9,260.5,231.2,263.2,227.8,263.2z"/>
	<path class="st4" d="M239.5,286.5c0-2.6,1.6-4.8,3.9-5.7v-3.4h-17.2c-5,0-9,4-9,9v0c0,5,4,9,9,9h17.2v-3.4
		C241.2,291.3,239.5,289.1,239.5,286.5z M227.8,292.6c-3.4,0-6.1-2.7-6.1-6.1s2.7-6.1,6.1-6.1s6.1,2.7,6.1,6.1
		S231.2,292.6,227.8,292.6z"/>
	<path class="st4" d="M239.5,315.9c0-2.6,1.6-4.8,3.9-5.7v-3.4h-17.2c-5,0-9,4-9,9v0c0,5,4,9,9,9h17.2v-3.4
		C241.2,320.7,239.5,318.5,239.5,315.9z M227.8,322c-3.4,0-6.1-2.7-6.1-6.1s2.7-6.1,6.1-6.1s6.1,2.7,6.1,6.1S231.2,322,227.8,322z"
		/>
	<path class="st4" d="M239.5,345.3c0-2.6,1.6-4.8,3.9-5.7v-3.4h-17.2c-5,0-9,4-9,9s4,9,9,9h17.2V351
		C241.2,350.1,239.5,347.9,239.5,345.3z M227.8,351.4c-3.4,0-6.1-2.7-6.1-6.1s2.7-6.1,6.1-6.1s6.1,2.7,6.1,6.1
		S231.2,351.4,227.8,351.4z"/>
	<path class="st4" d="M239.5,374.7c0-2.6,1.6-4.8,3.9-5.7v-3.4h-17.2c-5,0-9,4-9,9s4,9,9,9h17.2v-3.4
		C241.2,379.5,239.5,377.3,239.5,374.7z M227.8,380.8c-3.4,0-6.1-2.7-6.1-6.1s2.7-6.1,6.1-6.1s6.1,2.7,6.1,6.1
		S231.2,380.8,227.8,380.8z"/>
	<path class="st4" d="M239.5,404.1c0-2.6,1.6-4.8,3.9-5.7v-3.4h-17.2c-5,0-9,4-9,9s4,9,9,9h17.2v-3.4
		C241.2,408.9,239.5,406.7,239.5,404.1z M227.8,410.2c-3.4,0-6.1-2.7-6.1-6.1s2.7-6.1,6.1-6.1s6.1,2.7,6.1,6.1
		S231.2,410.2,227.8,410.2z"/>
	<path class="st4" d="M239.5,462.9c0-2.6,1.6-4.8,3.9-5.7v-3.4h-17.2c-5,0-9,4-9,9s4,9,9,9h17.2v-3.4
		C241.2,467.7,239.5,465.5,239.5,462.9z M227.8,469c-3.4,0-6.1-2.7-6.1-6.1s2.7-6.1,6.1-6.1s6.1,2.7,6.1,6.1S231.2,469,227.8,469z"
		/>
	<path class="st4" d="M239.5,521.7c0-2.6,1.6-4.8,3.9-5.7v-3.4h-17.2c-5,0-9,4-9,9v0c0,5,4,9,9,9h17.2v-3.4
		C241.2,526.5,239.5,524.3,239.5,521.7z M227.8,527.8c-3.4,0-6.1-2.7-6.1-6.1s2.7-6.1,6.1-6.1s6.1,2.7,6.1,6.1
		S231.2,527.8,227.8,527.8z"/>
	<path class="st4" d="M239.5,551.1c0-2.6,1.6-4.8,3.9-5.7v-3.4h-17.2c-5,0-9,4-9,9v0c0,5,4,9,9,9h17.2v-3.4
		C241.2,555.9,239.5,553.7,239.5,551.1z M227.8,557.2c-3.4,0-6.1-2.7-6.1-6.1s2.7-6.1,6.1-6.1s6.1,2.7,6.1,6.1
		S231.2,557.2,227.8,557.2z"/>
	<path class="st4" d="M239.5,580.5c0-2.6,1.6-4.8,3.9-5.7v-3.4h-17.2c-5,0-9,4-9,9s4,9,9,9h17.2v-3.4
		C241.2,585.3,239.5,583.1,239.5,580.5z M227.8,586.6c-3.4,0-6.1-2.7-6.1-6.1s2.7-6.1,6.1-6.1s6.1,2.7,6.1,6.1
		S231.2,586.6,227.8,586.6z"/>
	<path class="st4" d="M239.5,609.9c0-2.6,1.6-4.8,3.9-5.7v-3.4h-17.2c-5,0-9,4-9,9s4,9,9,9h17.2v-3.4
		C241.2,614.7,239.5,612.5,239.5,609.9z M227.8,616c-3.4,0-6.1-2.7-6.1-6.1s2.7-6.1,6.1-6.1s6.1,2.7,6.1,6.1S231.2,616,227.8,616z"
		/>
	<path class="st4" d="M239.5,639.3c0-2.6,1.6-4.8,3.9-5.7v-3.4h-17.2c-5,0-9,4-9,9s4,9,9,9h17.2V645
		C241.2,644.1,239.5,641.9,239.5,639.3z M227.8,645.4c-3.4,0-6.1-2.7-6.1-6.1s2.7-6.1,6.1-6.1s6.1,2.7,6.1,6.1
		S231.2,645.4,227.8,645.4z"/>
	<path class="st4" d="M239.5,668.7c0-2.6,1.6-4.8,3.9-5.7v-3.4h-17.2c-5,0-9,4-9,9s4,9,9,9h17.2v-3.4
		C241.2,673.5,239.5,671.3,239.5,668.7z M227.8,674.8c-3.4,0-6.1-2.7-6.1-6.1s2.7-6.1,6.1-6.1s6.1,2.7,6.1,6.1
		S231.2,674.8,227.8,674.8z"/>
	<path class="st4" d="M239.5,698.1c0-2.6,1.6-4.8,3.9-5.7v-3.4h-17.2c-5,0-9,4-9,9s4,9,9,9h17.2v-3.4
		C241.2,702.9,239.5,700.7,239.5,698.1z M227.8,704.2c-3.4,0-6.1-2.7-6.1-6.1s2.7-6.1,6.1-6.1s6.1,2.7,6.1,6.1
		S231.2,704.2,227.8,704.2z"/>
	<path class="st4" d="M239.5,756.9c0-2.6,1.6-4.8,3.9-5.7v-3.4h-17.2c-5,0-9,4-9,9v0c0,5,4,9,9,9h17.2v-3.4
		C241.2,761.7,239.5,759.5,239.5,756.9z M227.8,763c-3.4,0-6.1-2.7-6.1-6.1s2.7-6.1,6.1-6.1s6.1,2.7,6.1,6.1S231.2,763,227.8,763z"
		/>
	<path class="st4" d="M239.5,786.3c0-2.6,1.6-4.8,3.9-5.7v-3.4h-17.2c-5,0-9,4-9,9v0c0,5,4,9,9,9h17.2v-3.4
		C241.2,791.1,239.5,788.9,239.5,786.3z M227.8,792.4c-3.4,0-6.1-2.7-6.1-6.1s2.7-6.1,6.1-6.1s6.1,2.7,6.1,6.1
		S231.2,792.4,227.8,792.4z"/>
	<path class="st5" d="M163.1,229l4.4-4.4l-2.3-2.3l-6.6,6.6h-1.5v-4.7c0-1.2-1-2.2-2.2-2.2H85.4c-1.2,0-2.2,1-2.2,2.2v4.7h-1.5
		l-6.6-6.6l-2.3,2.3l4.4,4.4c-0.6,0.2-1,0.8-1,1.4v56.3c0,0.9,0.7,1.6,1.6,1.6h84.6c0.9,0,1.6-0.7,1.6-1.6v-56.3
		C164,229.8,163.6,229.3,163.1,229z"/>
	<g>
		<path class="st6" d="M100.3,251.3c0-3.2-2.6-5.8-5.8-5.8s-5.8,2.6-5.8,5.8c0,1.4,0.5,2.7,1.3,3.7h-0.2v7.7c0,1.2,1,2.1,2.1,2.1H97
			c1.2,0,2.1-1,2.1-2.1v-7.7H99C99.8,254,100.3,252.7,100.3,251.3z"/>
		<path class="st6" d="M155.5,251.3c0-3.2-2.6-5.8-5.8-5.8s-5.8,2.6-5.8,5.8c0,1.4,0.5,2.7,1.3,3.7H145v7.7c0,1.2,1,2.1,2.1,2.1h5.1
			c1.2,0,2.1-1,2.1-2.1v-7.7h-0.2C155,254,155.5,252.7,155.5,251.3z"/>
	</g>
	<path class="st7" d="M200.9,381.5h-21c-1.2,0-2.2-1-2.2-2.2v-26.7c0-1.2,1-2.2,2.2-2.2h21c1.2,0,2.2,1,2.2,2.2v26.7
		C203,380.5,202.1,381.5,200.9,381.5z"/>
	<g>
		<rect x="132" y="317.6" class="st8" width="21.7" height="14.4"/>
		<path class="st9" d="M149.3,332.1c-2-1.8-3.2-4.4-3.2-7.2s1.2-5.4,3.2-7.2h-12.8c2,1.8,3.2,4.4,3.2,7.2s-1.2,5.4-3.2,7.2H149.3z"
			/>
	</g>
	<g>
		<rect x="132.3" y="403" class="st8" width="21.7" height="14.4"/>
		<path class="st9" d="M149.6,417.4c-2-1.8-3.2-4.4-3.2-7.2s1.2-5.4,3.2-7.2h-12.8c2,1.8,3.2,4.4,3.2,7.2s-1.2,5.4-3.2,7.2H149.6z"
			/>
	</g>
	<g>
		<rect x="132.3" y="422.2" class="st8" width="21.7" height="14.4"/>
		<path class="st9" d="M149.6,436.6c-2-1.8-3.2-4.4-3.2-7.2s1.2-5.4,3.2-7.2h-12.8c2,1.8,3.2,4.4,3.2,7.2s-1.2,5.4-3.2,7.2H149.6z"
			/>
	</g>
	<g>
		
			<rect x="63.8" y="470.5" transform="matrix(6.123234e-17 -1 1 6.123234e-17 -409.303 542.3394)" class="st8" width="5.4" height="10.6"/>
		
			<rect x="63.8" y="472.8" transform="matrix(6.123234e-17 -1 1 6.123234e-17 -409.303 542.3394)" class="st9" width="5.4" height="6"/>
	</g>
	<g>
		<rect x="177.1" y="453.1" class="st8" width="5.4" height="10.6"/>
		<rect x="177.1" y="455.4" class="st9" width="5.4" height="6"/>
	</g>
	<rect x="179.5" y="303.1" class="st7" width="18.9" height="29.3"/>
	<g>
		<rect x="171.6" y="404.3" class="st8" width="20.6" height="9.6"/>
		<rect x="176.2" y="404.3" class="st10" width="11.5" height="9.6"/>
	</g>
	<rect x="120.2" y="572.4" class="st9" width="4.2" height="6.9"/>
	<rect x="126.9" y="572.4" class="st9" width="4.2" height="6.9"/>
	
		<rect x="66.6" y="482.4" transform="matrix(6.123234e-17 -1 1 6.123234e-17 -417.0997 554.5824)" class="st9" width="4.2" height="6.9"/>
	
		<rect x="89.5" y="415.3" transform="matrix(6.123234e-17 -1 1 6.123234e-17 -327.0349 510.3593)" class="st9" width="4.2" height="6.9"/>
	
		<rect x="66.3" y="526" transform="matrix(6.123234e-17 -1 1 6.123234e-17 -461.0537 597.8239)" class="st9" width="4.2" height="6.9"/>
	<rect x="195" y="531.2" class="st7" width="4.2" height="6.9"/>
	
		<rect x="189.2" y="470" transform="matrix(6.123234e-17 -1 1 6.123234e-17 -282.0835 664.7352)" class="st7" width="4.2" height="6.9"/>
	
		<rect x="87.2" y="314.3" transform="matrix(6.123234e-17 -1 1 6.123234e-17 -228.4019 407.0644)" class="st7" width="4.2" height="6.9"/>
	
		<rect x="82.3" y="326.5" transform="matrix(6.123234e-17 -1 1 6.123234e-17 -245.5171 414.424)" class="st7" width="4.2" height="6.9"/>
	
		<rect x="192.8" y="419" transform="matrix(6.123234e-17 -1 1 6.123234e-17 -227.4738 617.3881)" class="st7" width="4.2" height="6.9"/>
	<path class="st11" d="M186.3,736.1H57.5c-2.1,0-3.9-1.7-3.9-3.9V624.1c0-2.1,1.7-3.9,3.9-3.9h128.8c2.1,0,3.9,1.7,3.9,3.9v108.1
		C190.2,734.4,188.5,736.1,186.3,736.1z"/>
	<rect x="101.5" y="782.4" class="st12" width="10.5" height="5.9"/>
	<rect x="130.3" y="782.5" class="st12" width="10.5" height="5.9"/>
	<rect x="101.5" y="820.2" class="st12" width="10.5" height="5.9"/>
	<rect x="130.3" y="820.3" class="st12" width="10.5" height="5.9"/>
	<polyline class="st13" points="17.5,264.9 17.5,269.3 35.4,287.3 35.4,335.9 51,351.5 51,486.2 55.9,491.2 91.2,491.2 	"/>
	<polyline class="st13" points="22.9,291.8 31,299.8 31,337.7 46.7,353.4 46.7,488.7 52.6,494.7 91,494.7 	"/>
	<polyline class="st13" points="23.2,350.2 43,370 43,491.2 53.4,501.6 95,501.6 	"/>
	<polyline class="st13" points="23.2,379.7 39.8,396.2 39.8,493.1 51.9,505.2 95.1,505.2 	"/>
	<polyline class="st13" points="23.2,409.8 35.6,422.1 35.6,498.1 49.5,512.1 93.4,512.1 	"/>
	<polyline class="st13" points="22.9,437.9 31.6,446.6 31.6,500.8 46.4,515.6 96.1,515.6 	"/>
	<polyline class="st13" points="22.9,496.6 45.3,519 102.7,519 	"/>
	<line class="st13" x1="23.7" y1="522.5" x2="98.8" y2="522.5"/>
	<path class="st13" d="M23.2,548.9c0.1-0.6,17.3-17.3,17.3-17.3H53l4.9,4.9h45.7"/>
	<polyline class="st13" points="20.4,574.8 25.7,569.4 25.7,561.6 30.9,556.5 30.9,548.1 43.9,535 52.6,535 57.3,539.7 95.3,539.7 	
		"/>
	<path class="st13" d="M30.7,564.9l3.4-3.4c0,0-0.7-8.9,0-9.6c0.7-0.7,6-6,6-6l6.3-6.3h6.1l3.7,3.7h35.1"/>
	<polyline class="st13" points="29.1,620.9 29.1,573.2 38.7,563.7 93.4,563.7 95,562 95,552.4 	"/>
	<polyline class="st13" points="17.5,719.1 17.5,715.5 32.9,700 32.9,619.7 35.7,617 35.7,575.2 42,568.9 94.2,568.9 98.4,564.7 
		98.4,557.3 	"/>
	<path class="st13" d="M35.7,602.7"/>
	<path class="st13" d="M35.7,617.9"/>
	<polyline class="st13" points="23.6,779.7 30.4,772.9 30.4,708.4 37.5,702.4 	"/>
	<polyline class="st13" points="35.6,712.7 42.6,705.7 42.6,616 39.9,613.3 39.9,576.4 44.6,571.8 94.9,571.8 101.9,564.8 
		101.9,548.2 	"/>
	<polyline class="st13" points="108.9,554.9 108.9,563.7 95.9,576.7 91.5,576.7 	"/>
	<polyline class="st13" points="93.9,585.3 112.4,566.8 112.4,551.4 	"/>
	<polyline class="st13" points="115.9,556.8 115.9,568.4 102.2,582.1 102.2,602.1 95.9,608.4 65,608.4 55.5,598.9 	"/>
	<polyline class="st13" points="133.9,595.7 138.7,591 138.7,577.7 135.5,574.5 135.5,564.5 132.4,561.3 132.4,550.4 	"/>
	<polyline class="st13" points="137.3,554.5 137.3,562.3 139.3,564.3 139.3,570.7 152.7,584.2 164.9,584.2 179.1,598.4 	"/>
	<polyline class="st13" points="145.3,552.3 145.3,562.7 151.3,568.7 172.3,568.7 200.5,596.9 200.5,709.5 206.7,715.7 206.7,766.6 
		212.3,772.1 212.3,792.4 223.3,803.4 223.3,808.7 	"/>
	<polyline class="st13" points="150.7,552.7 150.7,560.1 154.7,564.1 173.6,564.1 205.2,595.6 205.2,707.1 211.4,713.3 211.4,765.9 
		215.6,770.1 215.6,778.8 	"/>
	<polyline class="st13" points="157.5,547.6 165.3,547.6 211.1,593.4 211.1,705 227.2,721.2 	"/>
	<polyline class="st13" points="157.5,543.2 166.9,543.2 192.1,568.4 	"/>
	<polyline class="st13" points="158.6,538 166.6,538 190.1,561.5 195.5,561.5 206.3,572.3 206.3,579.3 	"/>
	<polyline class="st13" points="158.2,533.6 167.3,533.6 190.4,556.7 200.9,556.7 	"/>
	<polyline class="st13" points="158.2,529.4 169.1,529.4 174.1,534.4 	"/>
	<polyline class="st13" points="158.2,524.5 175.4,524.5 202.8,551.8 206.3,551.8 215.9,561.5 215.9,573.8 	"/>
	<line class="st13" x1="158.6" y1="519" x2="167.7" y2="519"/>
	<polyline class="st13" points="156.4,513.6 171.8,513.6 179.2,521 	"/>
	<polyline class="st13" points="187.9,533.6 192.4,529 192.4,509.8 203.4,509.8 	"/>
	<polyline class="st13" points="158.6,505.2 209.5,505.2 218.5,514.2 	"/>
	<polyline class="st13" points="158.2,500.8 213.8,500.8 220.3,494.3 	"/>
	<polyline class="st13" points="157.5,496.6 198.8,496.6 207.1,488.3 207.1,448 219.6,435.6 	"/>
	<polyline class="st13" points="158.6,492.3 179.1,492.3 202.4,469.1 202.4,446.2 	"/>
	<polyline class="st13" points="159.7,487.6 167.2,487.6 171.8,483 	"/>
	<path class="st13" d="M147.8,482.3c-0.2-0.3,9.2-9.2,9.2-9.2h15.6v-33.5l2.8-2.8v-7.7"/>
	<path class="st13" d="M147,480.1c0-0.2,0-6.5,0-6.5l10.3-10.3"/>
	<polyline class="st13" points="140.1,481 140.1,470.2 147.4,462.9 	"/>
	<line class="st13" x1="136.6" y1="478" x2="136.6" y2="460.4"/>
	<path class="st13" d="M133.1,479.7c0-0.6,0-15.2,0-15.2l-4.2-4.2"/>
	<path class="st13" d="M122.6,479.4c0-0.6,0-20.7,0-20.7"/>
	<path class="st13" d="M119.2,481c0-0.3,0-11.1,0-11.1l-7.6-7.6"/>
	<polyline class="st13" points="115.6,480.6 115.6,474.2 101.8,460.3 101.8,453.9 105,450.7 108.9,450.7 111.5,448 111.5,437.6 
		106.1,432.1 100,432.1 	"/>
	<polyline class="st13" points="99.8,437.9 105.4,437.9 108.5,441 108.5,446.2 105.7,448.9 101.1,448.9 97.7,452.4 97.7,461.4 
		108.7,472.4 108.7,479.2 	"/>
	<polyline class="st13" points="91.3,442.4 91.3,459.2 105.2,473.1 105.2,482.6 	"/>
	<polyline class="st13" points="76.5,441.6 76.5,448.8 85.9,458.2 85.9,462 99,475.1 99,484.2 	"/>
	<path class="st13" d="M94.8,478.3c0-0.1,0-5,0-5l-11.7-11.7v-1.1l-4.5-4.5h-6.4l-1.7-1.7h-6.9l-6.7-6.7v-14.4l1.6-1.6h8.8"/>
	<polyline class="st13" points="69.1,425.5 60.4,425.5 55.4,430.5 55.4,448.4 63.4,456.3 69.5,456.3 75.9,462.7 78.4,462.7 
		92.5,476.8 	"/>
	<line class="st13" x1="73.8" y1="398.9" x2="56" y2="416.6"/>
	<polyline class="st13" points="137.6,459.5 137.6,453.3 134.7,450.4 134.7,447.3 130.2,442.9 125.2,442.9 121.1,438.8 121.1,419.9 
		109.7,408.4 109.7,326.2 124,311.9 124,302.8 127.7,299.1 	"/>
	<path class="st13" d="M135.3,352.1c0-0.6,0-9,0-9l-3.1-3.1h-9.8l-4.5-4.5v-4.3"/>
	<polyline class="st13" points="129.3,384.5 129.3,389.8 126.1,393 120.2,393 118.6,394.6 	"/>
	<polyline class="st13" points="62.9,297.6 62.9,307 79.1,323.2 83.6,323.2 88.5,328.1 88.5,336.3 83.9,340.8 83.9,354.4 	"/>
	<rect x="45.6" y="290.4" class="st14" width="18.9" height="9.6"/>
	<g>
		<rect x="102.7" y="288.3" class="st15" width="4.3" height="11.5"/>
		<rect x="110.4" y="288.3" class="st15" width="4.3" height="11.5"/>
		<rect x="118.1" y="288.3" class="st15" width="4.3" height="11.5"/>
		<rect x="125.7" y="288.3" class="st15" width="4.3" height="11.5"/>
		<rect x="133.4" y="288.3" class="st15" width="4.3" height="11.5"/>
	</g>
	<g>
		<path class="st16" d="M106.8,309.1v-5.5h2.5v5.8c0,2,0.6,2.7,1.7,2.7c1.2,0,1.8-0.7,1.8-2.7v-5.8h2.4v5.5c0,3.5-1.4,5.1-4.2,5.1
			S106.8,312.6,106.8,309.1z"/>
		<path class="st16" d="M116.7,312.7l1.3-1.6c0.7,0.6,1.7,1,2.6,1c0.9,0,1.4-0.4,1.4-0.9c0-0.6-0.6-0.8-1.5-1.2l-1.3-0.6
			c-1.1-0.4-2.1-1.3-2.1-2.8c0-1.7,1.6-3.2,3.8-3.2c1.2,0,2.5,0.5,3.4,1.3l-1.3,1.6c-0.7-0.5-1.4-0.8-2.1-0.8
			c-0.8,0-1.3,0.3-1.3,0.8c0,0.6,0.7,0.8,1.6,1.2l1.3,0.5c1.3,0.5,2.1,1.4,2.1,2.8c0,1.7-1.5,3.3-4,3.3
			C119.1,314.2,117.8,313.7,116.7,312.7z"/>
		<path class="st16" d="M126.3,303.6h3.6c2.2,0,3.9,0.6,3.9,2.6c0,0.9-0.5,1.9-1.4,2.2v0.1c1.1,0.3,1.9,1.1,1.9,2.4
			c0,2.1-1.8,3.1-4.1,3.1h-3.9V303.6z M129.8,307.7c1.1,0,1.5-0.5,1.5-1.2c0-0.8-0.5-1.1-1.5-1.1h-1.1v2.2H129.8z M130,312.1
			c1.2,0,1.8-0.4,1.8-1.3s-0.6-1.2-1.8-1.2h-1.2v2.5H130z"/>
	</g>
	<path class="st17" d="M170.2,385h-45.7c-0.5,0-1-0.4-1-1v-33.5c0-0.5,0.4-1,1-1h45.7c0.5,0,1,0.4,1,1V384
		C171.1,384.6,170.7,385,170.2,385z"/>
	<g>
		<rect x="128.6" y="345.4" class="st15" width="1.4" height="4.1"/>
		<rect x="134.6" y="345.4" class="st15" width="1.4" height="4.1"/>
		<rect x="140.6" y="345.4" class="st15" width="1.4" height="4.1"/>
		<rect x="146.6" y="345.4" class="st15" width="1.4" height="4.1"/>
		<rect x="152.6" y="345.4" class="st15" width="1.4" height="4.1"/>
		<rect x="158.6" y="345.4" class="st15" width="1.4" height="4.1"/>
		<rect x="164.6" y="345.4" class="st15" width="1.4" height="4.1"/>
	</g>
	<g>
		<rect x="128.6" y="385" class="st15" width="1.4" height="4.1"/>
		<rect x="134.6" y="385" class="st15" width="1.4" height="4.1"/>
		<rect x="140.6" y="385" class="st15" width="1.4" height="4.1"/>
		<rect x="146.6" y="385" class="st15" width="1.4" height="4.1"/>
		<rect x="152.6" y="385" class="st15" width="1.4" height="4.1"/>
		<rect x="158.6" y="385" class="st15" width="1.4" height="4.1"/>
		<rect x="164.6" y="385" class="st15" width="1.4" height="4.1"/>
	</g>
	<g>
		<rect x="61.4" y="353.4" class="st18" width="39.3" height="48.9"/>
		<path class="st19" d="M81,396.1L81,396.1c-7.6,0-13.7-6.1-13.7-13.7v-9.1c0-7.6,6.1-13.7,13.7-13.7h0c7.6,0,13.7,6.1,13.7,13.7
			v9.1C94.7,390,88.6,396.1,81,396.1z"/>
		<path class="st19" d="M61.4,363.6L61.4,363.6l0-10.3h10.3l0,0C71.6,359,67.1,363.6,61.4,363.6z"/>
		<path class="st19" d="M71.6,402.3H61.4V392h0C67.1,392,71.6,396.6,71.6,402.3L71.6,402.3z"/>
		<path class="st19" d="M100.7,363.6L100.7,363.6c-5.7,0-10.3-4.6-10.3-10.3l0,0h10.3V363.6z"/>
		<path class="st19" d="M100.7,402.3H90.4v0c0-5.7,4.6-10.3,10.3-10.3h0V402.3z"/>
	</g>
	<g>
		<rect x="64.9" y="422.9" class="st17" width="34.6" height="22.9"/>
		<g>
			<rect x="60.7" y="424" class="st15" width="4.2" height="3.4"/>
			<rect x="60.7" y="429.8" class="st15" width="4.2" height="3.4"/>
			<rect x="60.7" y="435.5" class="st15" width="4.2" height="3.4"/>
			<rect x="60.7" y="441.2" class="st15" width="4.2" height="3.4"/>
		</g>
		<g>
			<rect x="99.5" y="424" class="st15" width="4.2" height="3.4"/>
			<rect x="99.5" y="429.8" class="st15" width="4.2" height="3.4"/>
			<rect x="99.5" y="435.5" class="st15" width="4.2" height="3.4"/>
			<rect x="99.5" y="441.2" class="st15" width="4.2" height="3.4"/>
		</g>
	</g>
	<rect x="135.5" y="454.4" class="st7" width="4.2" height="6.9"/>
	<g>
		<path class="st20" d="M160.4,558.1H81.4c-0.7,0-1.3-0.6-1.3-1.3v-79.1c0-0.7,0.6-1.3,1.3-1.3h79.1c0.7,0,1.3,0.6,1.3,1.3v79.1
			C161.7,557.5,161.1,558.1,160.4,558.1z"/>
		<g>
			<rect x="86.2" y="474.5" class="st15" width="3.1" height="1.9"/>
			<rect x="89.7" y="474.5" class="st15" width="3.1" height="1.9"/>
			<rect x="93.2" y="474.5" class="st15" width="3.1" height="1.9"/>
			<rect x="96.7" y="474.5" class="st15" width="3.1" height="1.9"/>
			<rect x="100.2" y="474.5" class="st15" width="3.1" height="1.9"/>
			<rect x="103.6" y="474.5" class="st15" width="3.1" height="1.9"/>
			<rect x="107.1" y="474.5" class="st15" width="3.1" height="1.9"/>
			<rect x="114.1" y="474.5" class="st15" width="3.1" height="1.9"/>
			<rect x="121.1" y="474.5" class="st15" width="3.1" height="1.9"/>
			<rect x="128" y="474.5" class="st15" width="3.1" height="1.9"/>
			<rect x="138.5" y="474.5" class="st15" width="3.1" height="1.9"/>
			<rect x="142" y="474.5" class="st15" width="3.1" height="1.9"/>
			<rect x="149" y="474.5" class="st15" width="3.1" height="1.9"/>
			<rect x="110.6" y="474.5" class="st15" width="3.1" height="1.9"/>
			<rect x="117.6" y="474.5" class="st15" width="3.1" height="1.9"/>
			<rect x="124.6" y="474.5" class="st15" width="3.1" height="1.9"/>
			<rect x="131.5" y="474.5" class="st15" width="3.1" height="1.9"/>
			<rect x="135" y="474.5" class="st15" width="3.1" height="1.9"/>
			<rect x="145.5" y="474.5" class="st15" width="3.1" height="1.9"/>
			<rect x="152.4" y="474.5" class="st15" width="3.1" height="1.9"/>
		</g>
		<g>
			<rect x="86.4" y="558.1" class="st15" width="3.1" height="1.9"/>
			<rect x="89.9" y="558.1" class="st15" width="3.1" height="1.9"/>
			<rect x="93.4" y="558.1" class="st15" width="3.1" height="1.9"/>
			<rect x="96.9" y="558.1" class="st15" width="3.1" height="1.9"/>
			<rect x="100.4" y="558.1" class="st15" width="3.1" height="1.9"/>
			<rect x="103.8" y="558.1" class="st15" width="3.1" height="1.9"/>
			<rect x="107.3" y="558.1" class="st15" width="3.1" height="1.9"/>
			<rect x="114.3" y="558.1" class="st15" width="3.1" height="1.9"/>
			<rect x="121.3" y="558.1" class="st15" width="3.1" height="1.9"/>
			<rect x="128.2" y="558.1" class="st15" width="3.1" height="1.9"/>
			<rect x="138.7" y="558.1" class="st15" width="3.1" height="1.9"/>
			<rect x="142.2" y="558.1" class="st15" width="3.1" height="1.9"/>
			<rect x="149.1" y="558.1" class="st15" width="3.1" height="1.9"/>
			<rect x="110.8" y="558.1" class="st15" width="3.1" height="1.9"/>
			<rect x="117.8" y="558.1" class="st15" width="3.1" height="1.9"/>
			<rect x="124.7" y="558.1" class="st15" width="3.1" height="1.9"/>
			<rect x="131.7" y="558.1" class="st15" width="3.1" height="1.9"/>
			<rect x="135.2" y="558.1" class="st15" width="3.1" height="1.9"/>
			<rect x="145.7" y="558.1" class="st15" width="3.1" height="1.9"/>
			<rect x="152.6" y="558.1" class="st15" width="3.1" height="1.9"/>
		</g>
		<g>
			
				<rect x="77.5" y="549.4" transform="matrix(6.123234e-17 -1 1 6.123234e-17 -471.3144 629.4949)" class="st15" width="3.1" height="1.9"/>
			
				<rect x="77.5" y="546" transform="matrix(6.123234e-17 -1 1 6.123234e-17 -467.8294 626.0099)" class="st15" width="3.1" height="1.9"/>
			
				<rect x="77.5" y="542.5" transform="matrix(6.123234e-17 -1 1 6.123234e-17 -464.3444 622.5248)" class="st15" width="3.1" height="1.9"/>
			
				<rect x="77.5" y="539" transform="matrix(6.123234e-17 -1 1 6.123234e-17 -460.8593 619.0398)" class="st15" width="3.1" height="1.9"/>
			
				<rect x="77.5" y="535.5" transform="matrix(6.123234e-17 -1 1 6.123234e-17 -457.3743 615.5548)" class="st15" width="3.1" height="1.9"/>
			
				<rect x="77.5" y="532" transform="matrix(6.123234e-17 -1 1 6.123234e-17 -453.8892 612.0698)" class="st15" width="3.1" height="1.9"/>
			
				<rect x="77.5" y="528.5" transform="matrix(6.123234e-17 -1 1 6.123234e-17 -450.4042 608.5847)" class="st15" width="3.1" height="1.9"/>
			
				<rect x="77.5" y="521.6" transform="matrix(6.123234e-17 -1 1 6.123234e-17 -443.4341 601.6146)" class="st15" width="3.1" height="1.9"/>
			
				<rect x="77.5" y="514.6" transform="matrix(6.123234e-17 -1 1 6.123234e-17 -436.464 594.6445)" class="st15" width="3.1" height="1.9"/>
			
				<rect x="77.5" y="507.6" transform="matrix(6.123234e-17 -1 1 6.123234e-17 -429.4939 587.6744)" class="st15" width="3.1" height="1.9"/>
			
				<rect x="77.5" y="497.2" transform="matrix(6.123234e-17 -1 1 6.123234e-17 -419.0388 577.2193)" class="st15" width="3.1" height="1.9"/>
			
				<rect x="77.5" y="493.7" transform="matrix(6.123234e-17 -1 1 6.123234e-17 -415.5537 573.7343)" class="st15" width="3.1" height="1.9"/>
			
				<rect x="77.5" y="486.7" transform="matrix(6.123234e-17 -1 1 6.123234e-17 -408.5836 566.7642)" class="st15" width="3.1" height="1.9"/>
			
				<rect x="77.5" y="525" transform="matrix(6.123234e-17 -1 1 6.123234e-17 -446.9191 605.0997)" class="st15" width="3.1" height="1.9"/>
			
				<rect x="77.5" y="518.1" transform="matrix(6.123234e-17 -1 1 6.123234e-17 -439.949 598.1296)" class="st15" width="3.1" height="1.9"/>
			
				<rect x="77.5" y="511.1" transform="matrix(6.123234e-17 -1 1 6.123234e-17 -432.9789 591.1595)" class="st15" width="3.1" height="1.9"/>
			
				<rect x="77.5" y="504.1" transform="matrix(6.123234e-17 -1 1 6.123234e-17 -426.0089 584.1894)" class="st15" width="3.1" height="1.9"/>
			
				<rect x="77.5" y="500.7" transform="matrix(6.123234e-17 -1 1 6.123234e-17 -422.5238 580.7043)" class="st15" width="3.1" height="1.9"/>
			
				<rect x="77.5" y="490.2" transform="matrix(6.123234e-17 -1 1 6.123234e-17 -412.0687 570.2492)" class="st15" width="3.1" height="1.9"/>
			
				<rect x="77.5" y="483.2" transform="matrix(6.123234e-17 -1 1 6.123234e-17 -405.0986 563.2791)" class="st15" width="3.1" height="1.9"/>
		</g>
		<g>
			
				<rect x="161.1" y="549.4" transform="matrix(6.123234e-17 -1 1 6.123234e-17 -387.7245 713.0849)" class="st15" width="3.1" height="1.9"/>
			
				<rect x="161.1" y="546" transform="matrix(6.123234e-17 -1 1 6.123234e-17 -384.2395 709.5999)" class="st15" width="3.1" height="1.9"/>
			
				<rect x="161.1" y="542.5" transform="matrix(6.123234e-17 -1 1 6.123234e-17 -380.7544 706.1148)" class="st15" width="3.1" height="1.9"/>
			
				<rect x="161.1" y="539" transform="matrix(6.123234e-17 -1 1 6.123234e-17 -377.2694 702.6298)" class="st15" width="3.1" height="1.9"/>
			
				<rect x="161.1" y="535.5" transform="matrix(6.123234e-17 -1 1 6.123234e-17 -373.7843 699.1447)" class="st15" width="3.1" height="1.9"/>
			
				<rect x="161.1" y="532" transform="matrix(6.123234e-17 -1 1 6.123234e-17 -370.2993 695.6597)" class="st15" width="3.1" height="1.9"/>
			
				<rect x="161.1" y="528.5" transform="matrix(6.123234e-17 -1 1 6.123234e-17 -366.8142 692.1746)" class="st15" width="3.1" height="1.9"/>
			
				<rect x="161.1" y="521.6" transform="matrix(6.123234e-17 -1 1 6.123234e-17 -359.8441 685.2045)" class="st15" width="3.1" height="1.9"/>
			
				<rect x="161.1" y="514.6" transform="matrix(6.123234e-17 -1 1 6.123234e-17 -352.8741 678.2344)" class="st15" width="3.1" height="1.9"/>
			
				<rect x="161.1" y="507.6" transform="matrix(6.123234e-17 -1 1 6.123234e-17 -345.904 671.2643)" class="st15" width="3.1" height="1.9"/>
			
				<rect x="161.1" y="497.2" transform="matrix(6.123234e-17 -1 1 6.123234e-17 -335.4489 660.8092)" class="st15" width="3.1" height="1.9"/>
			
				<rect x="161.1" y="493.7" transform="matrix(6.123234e-17 -1 1 6.123234e-17 -331.9638 657.3242)" class="st15" width="3.1" height="1.9"/>
			
				<rect x="161.1" y="486.7" transform="matrix(6.123234e-17 -1 1 6.123234e-17 -324.9937 650.3541)" class="st15" width="3.1" height="1.9"/>
			
				<rect x="161.1" y="525" transform="matrix(6.123234e-17 -1 1 6.123234e-17 -363.3292 688.6896)" class="st15" width="3.1" height="1.9"/>
			
				<rect x="161.1" y="518.1" transform="matrix(6.123234e-17 -1 1 6.123234e-17 -356.3591 681.7195)" class="st15" width="3.1" height="1.9"/>
			
				<rect x="161.1" y="511.1" transform="matrix(6.123234e-17 -1 1 6.123234e-17 -349.389 674.7494)" class="st15" width="3.1" height="1.9"/>
			
				<rect x="161.1" y="504.1" transform="matrix(6.123234e-17 -1 1 6.123234e-17 -342.4189 667.7793)" class="st15" width="3.1" height="1.9"/>
			
				<rect x="161.1" y="500.7" transform="matrix(6.123234e-17 -1 1 6.123234e-17 -338.9339 664.2943)" class="st15" width="3.1" height="1.9"/>
			
				<rect x="161.1" y="490.2" transform="matrix(6.123234e-17 -1 1 6.123234e-17 -328.4788 653.8392)" class="st15" width="3.1" height="1.9"/>
			
				<rect x="161.1" y="483.2" transform="matrix(6.123234e-17 -1 1 6.123234e-17 -321.5087 646.8691)" class="st15" width="3.1" height="1.9"/>
		</g>
		<circle class="st21" cx="90.2" cy="487.6" r="2.8"/>
	</g>
	<rect x="187.1" y="442.3" class="st17" width="18.2" height="8.6"/>
	<rect x="189.1" y="450.9" class="st15" width="2.9" height="8.7"/>
	<rect x="200.9" y="450.9" class="st15" width="2.9" height="8.7"/>
	<rect x="194.8" y="433.6" class="st15" width="2.9" height="8.7"/>
	
		<rect x="170.5" y="480.3" transform="matrix(6.123234e-17 -1 1 6.123234e-17 -311.1716 656.3665)" class="st9" width="4.2" height="6.9"/>
	<rect x="189.5" y="511.5" class="st7" width="4.2" height="6.9"/>
	
		<rect x="172.3" y="530.7" transform="matrix(0.7071 -0.7071 0.7071 0.7071 -326.5669 279.7905)" class="st9" width="4.2" height="6.9"/>
	<g>
		<path class="st4" d="M157,592.8c-5.1,0-9.2,4.1-9.2,9.2s4.1,9.2,9.2,9.2s9.2-4.1,9.2-9.2S162.1,592.8,157,592.8z M157,607.8
			c-3.1,0-5.7-2.6-5.7-5.7s2.6-5.7,5.7-5.7c3.1,0,5.7,2.6,5.7,5.7S160.2,607.8,157,607.8z"/>
		<path class="st4" d="M118.7,593.2v17.7h17.7v-17.7H118.7z M127.6,607.8c-3.1,0-5.7-2.6-5.7-5.7s2.6-5.7,5.7-5.7
			c3.1,0,5.7,2.6,5.7,5.7S130.7,607.8,127.6,607.8z"/>
		<path class="st4" d="M186.8,592.8c-5.1,0-9.2,4.1-9.2,9.2s4.1,9.2,9.2,9.2s9.2-4.1,9.2-9.2S191.9,592.8,186.8,592.8z M186.8,607.8
			c-3.1,0-5.7-2.6-5.7-5.7s2.6-5.7,5.7-5.7c3.1,0,5.7,2.6,5.7,5.7S190,607.8,186.8,607.8z"/>
	</g>
	<path class="st4" d="M17.5,571.5H0.3v3.4c2.3,0.9,3.9,3.1,3.9,5.7s-1.6,4.8-3.9,5.7v3.4h17.2c5,0,9-4,9-9S22.4,571.5,17.5,571.5z
		 M15.9,586.6c-3.4,0-6.1-2.7-6.1-6.1s2.7-6.1,6.1-6.1s6.1,2.7,6.1,6.1S19.2,586.6,15.9,586.6z"/>
	<path class="st4" d="M17.5,542.1H0.3v3.4c2.3,0.9,3.9,3.1,3.9,5.7s-1.6,4.8-3.9,5.7v3.4h17.2c5,0,9-4,9-9v0
		C26.5,546.1,22.4,542.1,17.5,542.1z M15.9,557.2c-3.4,0-6.1-2.7-6.1-6.1s2.7-6.1,6.1-6.1s6.1,2.7,6.1,6.1S19.2,557.2,15.9,557.2z"
		/>
	<path class="st4" d="M17.5,512.7H0.3v3.4c2.3,0.9,3.9,3.1,3.9,5.7s-1.6,4.8-3.9,5.7v3.4h17.2c5,0,9-4,9-9v0
		C26.5,516.7,22.4,512.7,17.5,512.7z M15.9,527.8c-3.4,0-6.1-2.7-6.1-6.1s2.7-6.1,6.1-6.1s6.1,2.7,6.1,6.1S19.2,527.8,15.9,527.8z"
		/>
	<path class="st4" d="M17.5,483.3H0.3v3.4c2.3,0.9,3.9,3.1,3.9,5.7s-1.6,4.8-3.9,5.7v3.4h17.2c5,0,9-4,9-9S22.4,483.3,17.5,483.3z
		 M15.9,498.4c-3.4,0-6.1-2.7-6.1-6.1s2.7-6.1,6.1-6.1s6.1,2.7,6.1,6.1S19.2,498.4,15.9,498.4z"/>
	<path class="st4" d="M17.5,424.5H0.3v3.4c2.3,0.9,3.9,3.1,3.9,5.7s-1.6,4.8-3.9,5.7v3.4h17.2c5,0,9-4,9-9S22.4,424.5,17.5,424.5z
		 M15.9,439.6c-3.4,0-6.1-2.7-6.1-6.1s2.7-6.1,6.1-6.1s6.1,2.7,6.1,6.1S19.2,439.6,15.9,439.6z"/>
	<path class="st4" d="M17.5,395.1H0.3v3.4c2.3,0.9,3.9,3.1,3.9,5.7s-1.6,4.8-3.9,5.7v3.4h17.2c5,0,9-4,9-9S22.4,395.1,17.5,395.1z
		 M15.9,410.2c-3.4,0-6.1-2.7-6.1-6.1s2.7-6.1,6.1-6.1s6.1,2.7,6.1,6.1S19.2,410.2,15.9,410.2z"/>
	<path class="st4" d="M17.5,365.7H0.3v3.4c2.3,0.9,3.9,3.1,3.9,5.7s-1.6,4.8-3.9,5.7v3.4h17.2c5,0,9-4,9-9S22.4,365.7,17.5,365.7z
		 M15.9,380.8c-3.4,0-6.1-2.7-6.1-6.1s2.7-6.1,6.1-6.1s6.1,2.7,6.1,6.1S19.2,380.8,15.9,380.8z"/>
	<path class="st4" d="M17.5,336.3H0.3v3.4c2.3,0.9,3.9,3.1,3.9,5.7s-1.6,4.8-3.9,5.7v3.4h17.2c5,0,9-4,9-9S22.4,336.3,17.5,336.3z
		 M15.9,351.4c-3.4,0-6.1-2.7-6.1-6.1s2.7-6.1,6.1-6.1s6.1,2.7,6.1,6.1S19.2,351.4,15.9,351.4z"/>
	<path class="st4" d="M17.5,277.5H0.3v3.4c2.3,0.9,3.9,3.1,3.9,5.7s-1.6,4.8-3.9,5.7v3.4h17.2c5,0,9-4,9-9v0
		C26.5,281.6,22.4,277.5,17.5,277.5z M15.9,292.6c-3.4,0-6.1-2.7-6.1-6.1s2.7-6.1,6.1-6.1s6.1,2.7,6.1,6.1S19.2,292.6,15.9,292.6z"
		/>
	<path class="st4" d="M17.5,248.1H0.3v3.4c2.3,0.9,3.9,3.1,3.9,5.7c0,2.6-1.6,4.8-3.9,5.7v3.4h17.2c5,0,9-4,9-9
		C26.5,252.2,22.4,248.1,17.5,248.1z M15.9,263.2c-3.4,0-6.1-2.7-6.1-6.1c0-3.4,2.7-6.1,6.1-6.1s6.1,2.7,6.1,6.1
		C21.9,260.5,19.2,263.2,15.9,263.2z"/>
	<path class="st4" d="M17.5,718.5H0.3v3.4c2.3,0.9,3.9,3.1,3.9,5.7s-1.6,4.8-3.9,5.7v3.4h17.2c5,0,9-4,9-9S22.4,718.5,17.5,718.5z
		 M15.9,733.6c-3.4,0-6.1-2.7-6.1-6.1s2.7-6.1,6.1-6.1s6.1,2.7,6.1,6.1S19.2,733.6,15.9,733.6z"/>
	<path class="st4" d="M239.5,815.7c0-2.6,1.6-4.8,3.9-5.7v-3.4h-17.2c-5,0-9,4-9,9s4,9,9,9h17.2v-3.4
		C241.2,820.5,239.5,818.2,239.5,815.7z M227.8,821.8c-3.4,0-6.1-2.7-6.1-6.1s2.7-6.1,6.1-6.1s6.1,2.7,6.1,6.1
		S231.2,821.8,227.8,821.8z"/>
	<path class="st4" d="M239.5,727.5c0-2.6,1.6-4.8,3.9-5.7v-3.4h-17.2c-5,0-9,4-9,9s4,9,9,9h17.2v-3.4
		C241.2,732.3,239.5,730.1,239.5,727.5z M227.8,733.6c-3.4,0-6.1-2.7-6.1-6.1s2.7-6.1,6.1-6.1s6.1,2.7,6.1,6.1
		S231.2,733.6,227.8,733.6z"/>
	<path class="st4" d="M239.5,492.3c0-2.6,1.6-4.8,3.9-5.7v-3.4h-17.2c-5,0-9,4-9,9s4,9,9,9h17.2V498
		C241.2,497.1,239.5,494.9,239.5,492.3z M227.8,498.4c-3.4,0-6.1-2.7-6.1-6.1s2.7-6.1,6.1-6.1s6.1,2.7,6.1,6.1
		S231.2,498.4,227.8,498.4z"/>
	
		<rect x="90" y="586.4" transform="matrix(6.123234e-17 -1 1 6.123234e-17 -494.9553 681.5387)" class="st12" width="6.7" height="3.7"/>
	<g>
		<path class="st22" d="M82.2,605.7H50.4c-1.2,0-2.2-1-2.2-2.2v-23.7c0-1.2,1-2.2,2.2-2.2h31.8c1.2,0,2.2,1,2.2,2.2v23.7
			C84.4,604.7,83.4,605.7,82.2,605.7z"/>
		<path class="st23" d="M79.9,603.3H52.6c-0.8,0-1.4-0.6-1.4-1.4v-20.4c0-0.8,0.6-1.4,1.4-1.4h27.3c0.8,0,1.4,0.6,1.4,1.4v20.4
			C81.3,602.6,80.7,603.3,79.9,603.3z"/>
	</g>
	
		<rect x="90" y="606.3" transform="matrix(6.123234e-17 -1 1 6.123234e-17 -514.8896 701.473)" class="st12" width="6.7" height="3.7"/>
	<rect x="100.1" y="590.6" class="st7" width="4.2" height="6.9"/>
	<g>
		<path class="st16" d="M42.3,410.7V407c0-2.2,0.6-3.9,2.6-3.9c0.9,0,1.9,0.5,2.2,1.4h0.1c0.3-1.1,1.1-1.9,2.4-1.9
			c2.1,0,3.1,1.8,3.1,4.1v3.9H42.3z M46.4,407.1c0-1.1-0.5-1.5-1.2-1.5c-0.8,0-1.1,0.5-1.1,1.5v1.1h2.2V407.1z M50.8,406.9
			c0-1.2-0.4-1.8-1.3-1.8s-1.2,0.6-1.2,1.8v1.2h2.5V406.9z"/>
		<path class="st16" d="M47.4,401.4c-3.4,0-5.4-1.9-5.4-4.8s2-4.8,5.4-4.8c3.4,0,5.4,1.9,5.4,4.8S50.8,401.4,47.4,401.4z
			 M47.4,394.4c-2,0-3.2,0.8-3.2,2.2c0,1.4,1.2,2.2,3.2,2.2c2,0,3.3-0.9,3.3-2.2C50.7,395.3,49.4,394.4,47.4,394.4z"/>
		<path class="st16" d="M47.4,390.4c-3.4,0-5.4-1.9-5.4-4.8s2-4.8,5.4-4.8c3.4,0,5.4,1.9,5.4,4.8S50.8,390.4,47.4,390.4z
			 M47.4,383.4c-2,0-3.2,0.8-3.2,2.2c0,1.4,1.2,2.2,3.2,2.2c2,0,3.3-0.9,3.3-2.2C50.7,384.3,49.4,383.4,47.4,383.4z"/>
		<path class="st16" d="M44.3,377.4v2.8h-2.1v-8.1h2.1v2.8h8.3v2.5H44.3z"/>
		<path class="st16" d="M51.3,371.5l-1.6-1.3c0.6-0.7,1-1.7,1-2.6c0-0.9-0.4-1.4-0.9-1.4c-0.6,0-0.8,0.6-1.2,1.5l-0.6,1.3
			c-0.4,1.1-1.3,2.1-2.8,2.1c-1.7,0-3.2-1.6-3.2-3.8c0-1.2,0.5-2.5,1.3-3.4l1.6,1.3c-0.5,0.7-0.8,1.4-0.8,2.1c0,0.8,0.3,1.3,0.8,1.3
			c0.6,0,0.8-0.7,1.2-1.6l0.5-1.3c0.5-1.3,1.4-2.1,2.8-2.1c1.7,0,3.3,1.5,3.3,4C52.9,369,52.4,370.4,51.3,371.5z"/>
		<path class="st16" d="M42.3,361.9v-6.6h2.1v4.1h2v-3.5h2.1v3.5h2.2v-4.3h2.1v6.8H42.3z"/>
		<path class="st16" d="M42.3,353.1v-2.5h8.3v-4h2.1v6.5H42.3z"/>
	</g>
	<g>
		<path class="st16" d="M141.4,567.9h3c3.2,0,5.3,1.6,5.3,5.2c0,3.6-2.1,5.2-5.1,5.2h-3.1V567.9z M144.3,576.3
			c1.7,0,2.9-0.8,2.9-3.2c0-2.5-1.2-3.2-2.9-3.2h-0.4v6.4H144.3z"/>
		<path class="st16" d="M151.6,567.9h6.6v2.1h-4.1v2h3.5v2.1h-3.5v2.2h4.3v2.1h-6.8V567.9z"/>
		<path class="st16" d="M160.4,567.9h3.6c2.2,0,3.9,0.6,3.9,2.6c0,0.9-0.5,1.9-1.4,2.2v0.1c1.1,0.3,1.9,1.1,1.9,2.4
			c0,2.1-1.8,3.1-4.1,3.1h-3.9V567.9z M164,572c1.1,0,1.5-0.5,1.5-1.2c0-0.8-0.5-1.1-1.5-1.1h-1.1v2.2H164z M164.2,576.4
			c1.2,0,1.8-0.4,1.8-1.3c0-0.9-0.6-1.2-1.8-1.2h-1.2v2.5H164.2z"/>
		<path class="st16" d="M170.1,573.4v-5.5h2.5v5.8c0,2,0.6,2.7,1.7,2.7c1.2,0,1.8-0.7,1.8-2.7v-5.8h2.4v5.5c0,3.5-1.4,5.1-4.2,5.1
			S170.1,576.9,170.1,573.4z"/>
		<path class="st16" d="M180.3,573.1c0-3.5,2.3-5.5,5.1-5.5c1.5,0,2.6,0.6,3.3,1.4l-1.3,1.5c-0.5-0.5-1.1-0.7-1.9-0.7
			c-1.5,0-2.7,1.2-2.7,3.2c0,2.1,0.9,3.3,2.9,3.3c0.4,0,0.8-0.1,1-0.3v-1.7h-1.7v-2h3.9v4.9c-0.7,0.7-2,1.3-3.5,1.3
			C182.6,578.5,180.3,576.7,180.3,573.1z"/>
	</g>
	<rect x="114.2" y="589.2" class="st24" width="86.4" height="25.6"/>
	<g>
		<path class="st16" d="M40.1,303.6h2.5v8.3h4v2.1h-6.5V303.6z"/>
		<path class="st16" d="M48.4,303.6H55v2.1h-4.1v2h3.5v2.1h-3.5v2.2h4.3v2.1h-6.8V303.6z"/>
		<path class="st16" d="M57.2,303.6h3c3.2,0,5.3,1.6,5.3,5.2c0,3.6-2.1,5.2-5.1,5.2h-3.1V303.6z M60.1,312c1.7,0,2.9-0.8,2.9-3.2
			c0-2.5-1.2-3.2-2.9-3.2h-0.4v6.4H60.1z"/>
	</g>
	<g>
		<rect x="143.7" y="453.1" class="st8" width="5.4" height="10.6"/>
		<rect x="143.7" y="455.4" class="st9" width="5.4" height="6"/>
	</g>
	<g>
		<rect x="154.3" y="453.1" class="st8" width="5.4" height="10.6"/>
		<rect x="154.3" y="455.4" class="st9" width="5.4" height="6"/>
	</g>
	<rect x="127.1" y="454.4" class="st7" width="4.2" height="6.9"/>
	
		<rect x="68.6" y="459.5" transform="matrix(6.123234e-17 -1 1 6.123234e-17 -392.18 533.6519)" class="st7" width="4.2" height="6.9"/>
	<rect x="120.5" y="454.4" class="st9" width="4.2" height="6.9"/>
	<rect x="110.4" y="454.4" class="st9" width="4.2" height="6.9"/>
	<path class="st4" d="M239.5,433.5c0-2.6,1.6-4.8,3.9-5.7v-3.4h-17.2c-5,0-9,4-9,9s4,9,9,9h17.2v-3.4
		C241.2,438.3,239.5,436.1,239.5,433.5z M227.8,439.6c-3.4,0-6.1-2.7-6.1-6.1s2.7-6.1,6.1-6.1s6.1,2.7,6.1,6.1
		S231.2,439.6,227.8,439.6z"/>
	<g>
		
			<rect x="169.4" y="425.6" transform="matrix(-1.836970e-16 1 -1 -1.836970e-16 603.7679 253.0047)" class="st8" width="11.9" height="5.6"/>
		
			<rect x="172.1" y="425.6" transform="matrix(-1.836970e-16 1 -1 -1.836970e-16 603.7679 253.0047)" class="st10" width="6.6" height="5.6"/>
	</g>
</g>
<g id="layer1">
	<rect id="rect815" x="300.5" y="0" class="st25" width="177.4" height="237.3"/>
	<path id="path31-1" class="st16" d="M351,17.8c1.1,0,1.2,0,1.4-0.2c0.1-0.1,0.3-0.2,0.4-0.3c0.1-0.2,0.1-0.3,0.1-2.6l0-2.4l2.3,0
		l2.3,0v3c0,3.3,0,3.6-0.4,4.4c-0.4,1.1-1.3,1.8-2.4,2c-0.7,0.1-1.4,0.1-2.1,0.1c-0.9,0-2,0-2.3-0.1l-0.6-0.1l0-1.9l0-1.9L351,17.8z
		 M373.3,24.4c20,0,24.9,0,24.1,0.1l-0.1,0l0.1,0.1c0.1,0,0.1,0.1-0.1,0.1c-0.1,0-0.1,0,0.2,0.1l0.4,0l-0.4,0c-0.2,0-0.4,0-0.3,0
		c0.1,0,0.1,0.1,0.1,0.6c0,0.5,0,0.5,0.2,0.6c0.1,0,0.1,0-0.1,0c-0.1,0-0.3,0-0.3,0.1c0,0-7.9,0.1-23.7,0.1h-23.7v-1.7L373.3,24.4z
		 M355.2,6.1h2.4V10h-4.7V6.1H355.2z M360,13.2c0.1-1,0.4-2,0.9-2.9c0.1-0.2,0.2-0.4,0.3-0.6c0.1-0.1,0.2-0.2,0.3-0.4
		c0.3-0.4,0.6-0.8,0.9-1.2c0,0,0.1-0.1,0.1-0.1c0.3-0.4,0.7-0.7,1.1-1c0.5-0.4,1.1-0.7,1.8-0.9c0.9-0.4,1.9-0.5,2.8-0.4
		c0.6,0,1.1,0.1,1.7,0.2c0.4,0.1,0.8,0.2,0.9,0.3c0.1,0.1,0.2,0.1,0.4,0.1c0.2,0.1,0.4,0.2,0.6,0.3c1.4,0.9,2.5,2.2,3.3,3.7
		c0.9,1.9,1,4,0.3,6c-0.2,0.6-0.5,1.2-0.9,1.8c-0.4,0.6-0.8,1.2-1.4,1.7c-0.9,1-2.1,1.7-3.4,2c-1,0.2-2,0.3-3,0.2
		c-1.2-0.2-2.3-0.7-3.2-1.4c-0.4-0.3-0.7-0.6-1-0.9c-0.1-0.1-0.2-0.3-0.3-0.4c-1-1.1-1.7-2.5-2-4C360,14.8,360,14,360,13.2L360,13.2
		z M364.5,15.2c0.2,0.9,0.7,1.7,1.4,2.3c0.8,0.7,1.8,0.9,2.8,0.6c1.2-0.5,2.2-1.6,2.5-2.9c0.2-0.9,0.2-1.8,0-2.7
		c-0.3-1-0.8-1.8-1.6-2.5c-0.3-0.2-0.6-0.3-0.9-0.4c-0.7-0.2-1.5-0.1-2.2,0.2c-0.7,0.4-1.2,1-1.5,1.7
		C364.4,12.8,364.2,14,364.5,15.2L364.5,15.2z M377.8,6.1c0,0,1.1,0,2.4,0l2.3,0l0,2.1c0,2,0,2.1,0.1,2.5c0.4,0.9,1.4,1.4,2.4,1.1
		c0.5-0.1,0.8-0.5,1.1-0.9l0.2-0.4l0-2.2l0-2.2h4.7l0,2.5c0.1,1,0,2-0.2,3c-0.2,0.9-0.7,1.7-1.2,2.4c-0.1,0.1-0.2,0.2-0.2,0.4
		c-0.3,0.4-0.7,0.7-1.1,1c-0.4,0.3-0.9,0.6-1.4,0.7c-0.1,0-0.4,0.1-0.7,0.2c-0.5,0.2-1.1,0.2-1.7,0.2c-0.6,0.1-1.2,0-1.8-0.2
		c-0.7-0.1-1.3-0.4-1.9-0.8c-0.7-0.5-1.3-1.1-1.8-1.8c-0.6-0.9-1-1.9-1.1-3C377.7,9.2,377.7,7.7,377.8,6.1L377.8,6.1z M384.4,17.8
		h3.9v4h-7.7v-4H384.4z M391,3.1c0,0,0.1-0.1,0.1-0.2c0-0.2,0-0.2,0.3-0.3c0.2,0,6.7,0,14.5,0l14.2,0l0,0.9l0,0.9h-14.5
		c-8,0-14.5,0-14.6,0c-0.1,0-0.1-0.1-0.1-0.6C390.9,3.3,391,3.1,391,3.1L391,3.1z M397.5,12.6h4.9v3.9h-9.8v-3.9H397.5z M406.3,6.1
		h2.4V10H404V6.1L406.3,6.1z M406.3,12h2.4v10H404V12H406.3z M415.7,6.1h4.9V10h-9.9V6.1L415.7,6.1z M411.6,12.3c0,0,1.1,0,2.3,0
		l2.3,0l0,2.3c0,3.2-0.1,3,2.3,3.1l1.5,0v4l-0.6,0.1c-1.4,0.1-2.9,0.1-4.3,0c-1-0.1-1.9-0.5-2.6-1.2c-0.6-0.7-0.9-1.6-1-2.5
		C411.5,17.3,411.5,12.3,411.6,12.3L411.6,12.3z M423.5,4.2c0.1-0.4,0.3-0.8,0.6-1.1c0.9-0.9,2.4-1,3.4-0.3c0.4,0.2,0.7,0.6,0.8,1
		c0.2,0.3,0.2,0.7,0.2,1c0,0.4,0,0.7-0.2,1.1c-0.4,0.8-1.2,1.4-2.2,1.4c-0.8,0.1-1.6-0.2-2.1-0.8C423.5,6,423.2,5.1,423.5,4.2
		L423.5,4.2z M423.9,5.9c0.3,0.6,0.9,1,1.6,1.2c0.7,0.2,1.5,0,2-0.5c0.2-0.2,0.4-0.4,0.5-0.6c0.2-0.3,0.2-0.6,0.2-1
		c0-0.3,0-0.7-0.2-1c-0.1-0.3-0.3-0.5-0.6-0.7c-0.2-0.2-0.5-0.3-0.7-0.4c-1.1-0.3-2.3,0.2-2.8,1.3C423.7,4.7,423.7,5.3,423.9,5.9
		L423.9,5.9z M425.7,3.4c0.3,0,0.7,0,1,0.1c0.4,0.3,0.5,0.8,0.3,1.2c-0.1,0.1-0.2,0.2-0.3,0.2L426.4,5l0.2,0.2
		c0.2,0.2,0.3,0.4,0.4,0.6c0.1,0.1,0.2,0.3,0.3,0.4c0.1,0.1,0,0.2-0.2,0.2l-0.3,0l-0.4-0.6c-0.4-0.6-0.5-0.7-1-0.7h-0.3v1.3l-0.2,0
		l-0.2,0l0-1.5l0-1.5L425.7,3.4z M425.8,4.7c0.5,0,0.6,0,0.7-0.1c0.4-0.3,0.2-0.7-0.4-0.8c-0.3,0-0.6,0-0.9,0c0,0.1,0,0.3,0,0.4v0.4
		L425.8,4.7z"/>
	<ellipse id="path84" class="st26" cx="326.1" cy="32" rx="17.7" ry="17.8"/>
	<ellipse id="circle86" class="st26" cx="452.1" cy="32" rx="17.7" ry="17.8"/>
	<ellipse id="path88" class="st27" cx="326.1" cy="32" rx="15.8" ry="15.8"/>
	<ellipse id="circle90" class="st27" cx="452.1" cy="32" rx="15.8" ry="15.8"/>
	
		<rect id="rect821-4" x="373.3" y="151.4" transform="matrix(2.639991e-03 -1 1 2.639991e-03 174.764 601.8993)" class="st16" width="31.6" height="124"/>
	<path id="rect825-1" class="st28" d="M327.7,221.4l0-16.3c0-3.2,2.6-5.9,5.9-5.9l18.4,0c3.2,0,5.9,2.6,5.9,5.9l0,16.3
		c0,3.2-2.6,5.9-5.9,5.9l0,0l-18.4,0C330.4,227.2,327.7,224.6,327.7,221.4z"/>
	<path id="rect872-6" class="st28" d="M389.4,221.5l0-16.3c0-3.2,2.6-5.9,5.9-5.9l18.4,0c3.2,0,5.9,2.6,5.9,5.9l0,16.3
		c0,3.2-2.6,5.9-5.9,5.9l0,0l-18.4,0C392,227.4,389.4,224.8,389.4,221.5z"/>
	<path id="rect874-1" class="st28" d="M358.6,222.2l0-17.8c0-2.8,2.3-5.1,5.1-5.1l19.9,0c2.8,0,5.1,2.3,5.1,5.1l0,17.8
		c0,2.8-2.3,5.1-5.1,5.1l-19.9,0C360.8,227.3,358.6,225,358.6,222.2z"/>
	
		<rect id="rect947-6" x="313" y="242.6" transform="matrix(2.442116e-03 -1 1 2.442116e-03 97.6491 586.1771)" class="st29" width="59.3" height="3.1"/>
	
		<rect id="rect949-3" x="344" y="242.7" transform="matrix(2.442116e-03 -1 1 2.442116e-03 128.4887 617.2465)" class="st29" width="59.3" height="3.1"/>
	
		<rect id="rect951-7" x="374.6" y="242.7" transform="matrix(2.442116e-03 -1 1 2.442116e-03 158.9734 647.9585)" class="st29" width="59.3" height="3.1"/>
	<path id="rect64" class="st28" d="M420,221.6l0-16.3c0-3.2,2.6-5.9,5.9-5.9l18.4,0c3.2,0,5.9,2.6,5.9,5.9l0,16.3
		c0,3.2-2.6,5.9-5.9,5.9l-18.4,0C422.6,227.5,420,224.8,420,221.6L420,221.6L420,221.6z"/>
	
		<rect id="rect66" x="405.2" y="242.8" transform="matrix(2.439993e-03 -1 1 2.439993e-03 189.4245 678.6682)" class="st29" width="59.3" height="3.1"/>
	<ellipse id="path127" class="st16" cx="360.4" cy="102" rx="29.5" ry="29.7"/>
	<ellipse id="circle129" class="st16" cx="417.8" cy="102" rx="29.5" ry="29.7"/>
	<ellipse id="path131" class="st25" cx="417.8" cy="102" rx="27.6" ry="27.7"/>
	<ellipse id="circle133" class="st25" cx="360.4" cy="102" rx="27.6" ry="27.7"/>
	<ellipse id="path135" class="st30" cx="360.4" cy="82.3" rx="13.8" ry="13.8"/>
	<ellipse id="circle137" class="st30" cx="360.4" cy="121.8" rx="13.8" ry="13.8"/>
	<ellipse id="circle139" class="st30" cx="417.5" cy="82.3" rx="13.8" ry="13.8"/>
	<ellipse id="circle141" class="st30" cx="417.5" cy="121.8" rx="13.8" ry="13.8"/>
	<polygon id="rect164" class="st29" points="349.1,123.7 349.1,120.6 360.4,120.6 360.4,123.7 	"/>
	<polygon id="rect166" class="st29" points="360.4,81.2 360.4,84.3 349.1,84.3 349.1,81.2 	"/>
	<polygon id="rect178" class="st29" points="429.2,120.4 429.2,123.6 417.5,123.6 417.5,120.4 	"/>
	<polygon id="rect180" class="st29" points="417.5,84.2 417.5,81.1 429.1,81.1 429.1,84.2 	"/>
	<path id="path3804-9" class="st31" d="M477.7,100.8c-0.1-4.9-1.5-9.6-4.1-13.8C468,78,458,72.5,447.4,72.6v0h0l0,0v0h-12v-2.1h-6.8
		v62.1h6.8v-2.1h12.1v0c10.7,0.1,20.6-5.4,26.3-14.5C476.4,111.4,477.8,106.1,477.7,100.8L477.7,100.8z"/>
	<g id="text88">
		<g class="st32">
			<path class="st16" d="M320.1,190.6c0.1,0,0.1,0,0.2,0c0.1,0,0.1,0.1,0.1,0.2c0,0.1,0.1,0.2,0.1,0.3c0,0.1,0,0.3,0,0.5
				c0,0.3,0,0.5,0,0.7c0,0.2-0.1,0.3-0.1,0.4c-0.1,0.1-0.1,0.2-0.2,0.2l-7.9,5.8h7.9c0.1,0,0.1,0,0.2,0s0.1,0.1,0.1,0.2
				s0.1,0.2,0.1,0.3c0,0.1,0,0.3,0,0.5c0,0.2,0,0.4,0,0.5c0,0.1,0,0.2-0.1,0.3c0,0.1-0.1,0.1-0.1,0.2c-0.1,0-0.1,0-0.2,0h-15.2
				c-0.1,0-0.1,0-0.2,0c0,0-0.1-0.1-0.1-0.2c0-0.1-0.1-0.2-0.1-0.3c0-0.1,0-0.3,0-0.5c0-0.2,0-0.4,0-0.5c0-0.1,0-0.2,0.1-0.3
				s0.1-0.1,0.1-0.2s0.1,0,0.2,0h7l-7-5.6c-0.1,0-0.1-0.1-0.2-0.2c0-0.1-0.1-0.1-0.1-0.2c0-0.1-0.1-0.2-0.1-0.3c0-0.1,0-0.3,0-0.5
				c0-0.2,0-0.4,0-0.5s0-0.2,0.1-0.3c0-0.1,0.1-0.1,0.1-0.2s0.1,0,0.2,0c0.1,0,0.2,0,0.3,0.1c0.1,0.1,0.3,0.2,0.4,0.3l6.3,5.2
				l7.5-5.6c0.2-0.1,0.4-0.2,0.4-0.2S320,190.6,320.1,190.6z"/>
		</g>
		<g class="st32">
			<path class="st16" d="M314.3,182.9h5.8c0.1,0,0.1,0,0.2,0c0,0,0.1,0.1,0.1,0.2c0,0.1,0.1,0.2,0.1,0.3c0,0.1,0,0.3,0,0.5
				c0,0.2,0,0.4,0,0.5c0,0.1,0,0.2-0.1,0.3s-0.1,0.1-0.1,0.2c0,0-0.1,0-0.2,0h-5.8l-8.9,4.5c-0.2,0.1-0.3,0.1-0.4,0.2
				c-0.1,0-0.2,0-0.2-0.1s-0.1-0.2-0.1-0.3c0-0.2,0-0.4,0-0.6c0-0.2,0-0.4,0-0.6c0-0.2,0-0.3,0.1-0.4c0-0.1,0.1-0.2,0.1-0.2
				c0.1,0,0.1-0.1,0.2-0.1l4.5-2.2c0.4-0.2,0.9-0.4,1.4-0.6c0.5-0.2,0.9-0.4,1.4-0.6v0c-0.5-0.2-0.9-0.4-1.4-0.6s-0.9-0.4-1.4-0.6
				l-4.6-2.2c-0.1,0-0.2-0.1-0.2-0.1c-0.1,0-0.1-0.1-0.1-0.2c0-0.1-0.1-0.2-0.1-0.3c0-0.1,0-0.3,0-0.5c0-0.3,0-0.5,0-0.7
				c0-0.2,0.1-0.3,0.1-0.3c0.1-0.1,0.1-0.1,0.2-0.1c0.1,0,0.2,0.1,0.4,0.2L314.3,182.9z"/>
		</g>
		<g class="st32">
			<path class="st16" d="M314.2,172.4c0.3,0,0.5,0,0.7,0.1s0.2,0.2,0.2,0.3v5.1c0,0.1-0.1,0.3-0.2,0.3c-0.1,0.1-0.3,0.1-0.7,0.1
				c-0.3,0-0.5,0-0.6-0.1s-0.2-0.2-0.2-0.3v-5.1c0-0.1,0-0.1,0-0.2c0-0.1,0.1-0.1,0.1-0.1s0.2-0.1,0.3-0.1
				C314,172.4,314.1,172.4,314.2,172.4z"/>
			<path class="st16" d="M312.5,159.8c1.2,0,2.3,0.1,3.3,0.3c1,0.2,1.9,0.5,2.6,1c0.7,0.4,1.3,1,1.7,1.7c0.4,0.7,0.6,1.6,0.6,2.7
				c0,1-0.2,1.8-0.5,2.5c-0.4,0.7-0.9,1.2-1.6,1.6c-0.7,0.4-1.5,0.7-2.5,0.9c-1,0.2-2.2,0.3-3.5,0.3c-1.2,0-2.3-0.1-3.3-0.3
				c-1-0.2-1.9-0.5-2.6-1c-0.7-0.4-1.3-1-1.7-1.7c-0.4-0.7-0.6-1.6-0.6-2.6c0-1,0.2-1.8,0.5-2.5c0.4-0.7,0.9-1.2,1.6-1.6
				c0.7-0.4,1.5-0.7,2.5-0.9C310,159.9,311.2,159.8,312.5,159.8z M312.6,161.9c-0.8,0-1.5,0-2.1,0.1s-1.2,0.1-1.7,0.2
				s-0.9,0.3-1.2,0.4c-0.3,0.2-0.6,0.4-0.9,0.6s-0.4,0.5-0.5,0.8c-0.1,0.3-0.2,0.7-0.2,1.1c0,0.7,0.2,1.3,0.5,1.7
				c0.3,0.4,0.8,0.8,1.3,1c0.6,0.2,1.2,0.4,2,0.5c0.8,0.1,1.6,0.1,2.5,0.1c1.2,0,2.2-0.1,3-0.2s1.5-0.3,2-0.6c0.5-0.3,0.9-0.6,1.1-1
				c0.2-0.4,0.4-0.9,0.4-1.5c0-0.5-0.1-0.9-0.2-1.2s-0.4-0.6-0.6-0.9s-0.6-0.5-1-0.6c-0.4-0.2-0.8-0.3-1.3-0.4s-1-0.2-1.5-0.2
				C313.8,161.9,313.2,161.9,312.6,161.9z"/>
			<path class="st16" d="M319.5,147.6c0.1,0,0.3,0,0.4,0s0.2,0,0.3,0.1c0.1,0,0.1,0.1,0.2,0.1c0,0.1,0.1,0.1,0.1,0.2v8.7
				c0,0.1,0,0.2,0,0.3c0,0.1-0.1,0.2-0.1,0.2c-0.1,0.1-0.2,0.1-0.3,0.1s-0.3,0-0.5,0c-0.2,0-0.3,0-0.4,0c-0.1,0-0.2,0-0.3-0.1
				c-0.1,0-0.2-0.1-0.3-0.2c-0.1-0.1-0.2-0.1-0.3-0.2l-3.2-3.2c-0.7-0.7-1.4-1.3-2-1.8c-0.6-0.4-1.1-0.8-1.6-1
				c-0.5-0.2-0.9-0.4-1.3-0.5c-0.4-0.1-0.8-0.1-1.1-0.1c-0.4,0-0.7,0.1-1,0.2s-0.6,0.3-0.8,0.5c-0.2,0.2-0.4,0.5-0.6,0.8
				s-0.2,0.7-0.2,1.2c0,0.5,0.1,1,0.2,1.4c0.1,0.4,0.3,0.8,0.5,1.1c0.2,0.3,0.3,0.6,0.5,0.8s0.2,0.4,0.2,0.5c0,0.1,0,0.1,0,0.2
				c0,0-0.1,0.1-0.2,0.1s-0.2,0.1-0.3,0.1s-0.3,0-0.4,0c-0.1,0-0.2,0-0.3,0c-0.1,0-0.2,0-0.2,0c-0.1,0-0.1,0-0.2-0.1
				c-0.1,0-0.1-0.1-0.2-0.2c-0.1-0.1-0.2-0.3-0.3-0.5c-0.1-0.2-0.3-0.5-0.4-0.9c-0.1-0.4-0.3-0.8-0.4-1.2s-0.1-0.9-0.1-1.4
				c0-0.8,0.1-1.4,0.3-2c0.2-0.6,0.5-1,0.9-1.4c0.4-0.4,0.8-0.7,1.3-0.8c0.5-0.2,1-0.3,1.6-0.3c0.5,0,1,0,1.5,0.1
				c0.5,0.1,1,0.3,1.6,0.6s1.2,0.7,1.9,1.3c0.7,0.5,1.5,1.3,2.5,2.2l2.6,2.5v-6.9c0-0.1,0-0.1,0.1-0.2c0-0.1,0.1-0.1,0.2-0.2
				s0.2-0.1,0.3-0.1C319.2,147.6,319.4,147.6,319.5,147.6z"/>
			<path class="st16" d="M305.5,134.7c0.1,0,0.3,0,0.4,0c0.1,0,0.2,0,0.3,0c0.1,0,0.2,0,0.3,0.1c0.1,0,0.2,0.1,0.3,0.1l13.1,5.7
				c0.1,0,0.2,0.1,0.2,0.2c0.1,0.1,0.1,0.1,0.1,0.2c0,0.1,0.1,0.2,0.1,0.4c0,0.1,0,0.3,0,0.5c0,0.3,0,0.5,0,0.6
				c0,0.2-0.1,0.3-0.1,0.3c-0.1,0.1-0.1,0.1-0.2,0.1s-0.2,0-0.3-0.1l-13.4-6v7.6c0,0.2-0.1,0.3-0.2,0.3c-0.2,0.1-0.4,0.1-0.7,0.1
				c-0.2,0-0.3,0-0.4,0c-0.1,0-0.2-0.1-0.3-0.1c-0.1,0-0.1-0.1-0.2-0.1c0-0.1-0.1-0.1-0.1-0.2v-9.2c0-0.1,0-0.2,0-0.3
				c0-0.1,0.1-0.2,0.1-0.2s0.2-0.1,0.3-0.1C305.2,134.7,305.3,134.7,305.5,134.7z"/>
		</g>
	</g>
	<g id="text92">
		<g class="st32">
			<path class="st16" d="M321.3,208.1c0,0.2,0,0.3,0,0.4s0,0.2-0.1,0.3c0,0.1-0.1,0.1-0.1,0.2c0,0-0.1,0-0.2,0
				c-0.1,0-0.3-0.1-0.5-0.2c-0.2-0.2-0.5-0.3-0.9-0.5c-0.4-0.2-0.8-0.4-1.4-0.5c-0.5-0.2-1.2-0.2-1.9-0.2c-0.9,0-1.7,0.2-2.3,0.5
				c-0.7,0.3-1.3,0.8-1.8,1.3c-0.5,0.6-0.8,1.2-1.1,2c-0.3,0.8-0.4,1.6-0.4,2.5c0,1,0.1,1.9,0.4,2.7c0.3,0.8,0.7,1.4,1.2,2
				c0.5,0.5,1.1,0.9,1.8,1.2c0.7,0.3,1.4,0.4,2.3,0.4c0.5,0,1-0.1,1.5-0.2c0.5-0.1,1-0.3,1.4-0.5v-4.6h-3.7c-0.1,0-0.2-0.1-0.3-0.2
				c-0.1-0.1-0.1-0.4-0.1-0.6c0-0.2,0-0.3,0-0.4c0-0.1,0-0.2,0.1-0.3c0-0.1,0.1-0.1,0.1-0.2s0.1,0,0.2,0h5c0.1,0,0.2,0,0.3,0
				c0.1,0,0.2,0.1,0.2,0.1s0.1,0.2,0.2,0.3s0.1,0.2,0.1,0.4v6c0,0.2,0,0.4-0.1,0.5s-0.2,0.3-0.5,0.4c-0.2,0.1-0.5,0.2-0.9,0.4
				c-0.4,0.1-0.8,0.3-1.2,0.4c-0.4,0.1-0.8,0.2-1.2,0.2c-0.4,0-0.8,0.1-1.2,0.1c-1.2,0-2.3-0.2-3.3-0.6c-1-0.4-1.8-0.9-2.4-1.6
				c-0.7-0.7-1.2-1.5-1.5-2.5s-0.5-2.1-0.5-3.3c0-1.3,0.2-2.4,0.6-3.4c0.4-1,0.9-1.9,1.6-2.6c0.7-0.7,1.5-1.3,2.5-1.7
				c1-0.4,2-0.6,3.2-0.6c0.6,0,1.2,0.1,1.7,0.2c0.5,0.1,1,0.2,1.4,0.4c0.4,0.1,0.8,0.3,1,0.5c0.3,0.2,0.5,0.3,0.6,0.4
				c0.1,0.1,0.2,0.2,0.2,0.4C321.3,207.6,321.3,207.8,321.3,208.1z"/>
		</g>
	</g>
	<g id="text96">
		<g class="st32">
			<path class="st16" d="M379.2,186c0,0.2,0,0.3,0,0.4c0,0.1-0.1,0.2-0.1,0.3c0,0.1-0.1,0.1-0.1,0.2c-0.1,0-0.1,0-0.2,0h-4v4.4
				c0,0.1,0,0.1,0,0.2c0,0-0.1,0.1-0.2,0.1c-0.1,0-0.2,0.1-0.3,0.1c-0.1,0-0.3,0-0.4,0c-0.2,0-0.3,0-0.4,0c-0.1,0-0.2,0-0.3-0.1
				c-0.1,0-0.1-0.1-0.2-0.1c0,0,0-0.1,0-0.2v-4.4h-4c-0.1,0-0.1,0-0.2,0c-0.1,0-0.1-0.1-0.1-0.2c0-0.1-0.1-0.2-0.1-0.3
				c0-0.1,0-0.2,0-0.4c0-0.1,0-0.3,0-0.4c0-0.1,0.1-0.2,0.1-0.3c0-0.1,0.1-0.1,0.1-0.2c0.1,0,0.1,0,0.2,0h4v-4.4c0-0.1,0-0.1,0-0.2
				c0-0.1,0.1-0.1,0.2-0.1c0.1,0,0.2-0.1,0.3-0.1c0.1,0,0.3,0,0.4,0c0.2,0,0.3,0,0.4,0c0.1,0,0.2,0,0.3,0.1c0.1,0,0.1,0.1,0.2,0.1
				c0,0.1,0,0.1,0,0.2v4.4h4c0.1,0,0.1,0,0.2,0c0.1,0,0.1,0.1,0.1,0.2s0.1,0.2,0.1,0.3C379.2,185.8,379.2,185.9,379.2,186z"/>
		</g>
	</g>
	<g id="text100">
		<g class="st32">
			<path class="st16" d="M409.7,188.4c0,0.7-0.1,1.4-0.4,2s-0.7,1.1-1.1,1.5c-0.5,0.4-1.1,0.7-1.7,0.9s-1.4,0.3-2.1,0.3
				c-0.5,0-1,0-1.5-0.1c-0.5-0.1-0.9-0.2-1.2-0.3c-0.4-0.1-0.7-0.3-0.9-0.4s-0.4-0.3-0.5-0.4c-0.1-0.1-0.2-0.2-0.2-0.4
				s-0.1-0.4-0.1-0.6c0-0.2,0-0.3,0-0.4c0-0.1,0-0.2,0.1-0.3c0-0.1,0.1-0.1,0.1-0.2s0.1,0,0.2,0c0.1,0,0.3,0.1,0.5,0.2
				c0.2,0.1,0.5,0.3,0.8,0.5c0.3,0.2,0.7,0.3,1.2,0.5c0.5,0.1,1,0.2,1.6,0.2c0.5,0,0.9-0.1,1.3-0.2c0.4-0.1,0.7-0.3,1-0.5
				c0.3-0.2,0.5-0.5,0.6-0.8c0.1-0.3,0.2-0.7,0.2-1.1c0-0.4-0.1-0.8-0.3-1.1c-0.2-0.3-0.5-0.6-0.8-0.8c-0.3-0.2-0.7-0.5-1.1-0.7
				c-0.4-0.2-0.9-0.4-1.3-0.6c-0.4-0.2-0.9-0.4-1.3-0.7c-0.4-0.3-0.8-0.5-1.1-0.9c-0.3-0.3-0.6-0.7-0.8-1.2c-0.2-0.5-0.3-1-0.3-1.7
				c0-0.7,0.1-1.2,0.4-1.8c0.2-0.5,0.6-1,1-1.3c0.4-0.4,0.9-0.6,1.5-0.8s1.2-0.3,1.9-0.3c0.3,0,0.7,0,1.1,0.1s0.7,0.1,1,0.2
				c0.3,0.1,0.6,0.2,0.8,0.3c0.2,0.1,0.4,0.2,0.5,0.3c0.1,0.1,0.1,0.1,0.2,0.2c0,0,0,0.1,0.1,0.2c0,0.1,0,0.2,0,0.3
				c0,0.1,0,0.2,0,0.4c0,0.1,0,0.3,0,0.4c0,0.1,0,0.2-0.1,0.3s-0.1,0.1-0.1,0.2s-0.1,0.1-0.2,0.1c-0.1,0-0.2-0.1-0.4-0.2
				c-0.2-0.1-0.4-0.2-0.7-0.4c-0.3-0.1-0.6-0.3-1-0.4c-0.4-0.1-0.8-0.2-1.3-0.2c-0.4,0-0.8,0.1-1.1,0.2c-0.3,0.1-0.6,0.3-0.8,0.5
				s-0.4,0.4-0.5,0.7c-0.1,0.3-0.2,0.6-0.2,0.9c0,0.4,0.1,0.8,0.3,1.1c0.2,0.3,0.5,0.6,0.8,0.8s0.7,0.5,1.2,0.7
				c0.4,0.2,0.9,0.4,1.3,0.6c0.4,0.2,0.9,0.4,1.3,0.7c0.4,0.2,0.8,0.5,1.2,0.9s0.6,0.7,0.8,1.2C409.6,187.2,409.7,187.8,409.7,188.4
				z"/>
		</g>
	</g>
	<g id="text104">
		<g class="st32">
			<path class="st16" d="M466.2,220.6c0,0.2,0,0.3,0,0.4c0,0.1,0,0.2-0.1,0.3c0,0.1-0.1,0.1-0.1,0.2c-0.1,0-0.1,0.1-0.2,0.1h-7
				c-0.2,0-0.4-0.1-0.5-0.2c-0.2-0.1-0.2-0.3-0.2-0.7V206c0-0.1,0-0.1,0-0.2s0.1-0.1,0.2-0.1c0.1,0,0.2-0.1,0.3-0.1
				c0.1,0,0.3,0,0.5,0c0.2,0,0.4,0,0.5,0c0.1,0,0.2,0,0.3,0.1c0.1,0,0.1,0.1,0.2,0.1c0,0,0,0.1,0,0.2v13.7h5.7c0.1,0,0.1,0,0.2,0.1
				c0.1,0,0.1,0.1,0.1,0.2c0,0.1,0.1,0.2,0.1,0.3C466.2,220.3,466.2,220.4,466.2,220.6z"/>
		</g>
	</g>
	<rect id="rect103" x="215.8" y="68.5" class="st33" width="133.9" height="66.9"/>
</g>
<circle id="circle281" class="st34" cx="232.1" cy="316" r="11.6"/>
<circle id="circle281-2" class="st35" cx="232.1" cy="374.7" r="11.6"/>
<circle id="circle281-3" class="st36" cx="232.1" cy="521.8" r="11.6"/>
<rect x="232.1" y="311.5" class="st34" width="115.1" height="9.1"/>
<rect x="232.1" y="370.2" class="st35" width="146.1" height="9.1"/>
<rect id="rect853" x="232.1" y="517.2" class="st37" width="176.7" height="9.1"/>
<circle id="circle281-4" class="st38" cx="232.1" cy="727.4" r="11.6"/>
<rect id="rect853-2" x="232.1" y="722.8" class="st38" width="207.4" height="9.1"/>
<rect id="rect853-3" x="430.3" y="240.9" class="st38" width="9.1" height="491.1"/>
<rect x="338.1" y="240.9" class="st34" width="9.1" height="79.7"/>
<rect x="369.1" y="240.9" class="st35" width="9.1" height="138.4"/>
<rect id="rect853-4" x="399.7" y="240.9" class="st37" width="9.1" height="285.5"/>
<circle id="circle281-5" class="st34" cx="342.9" cy="240.9" r="11.6"/>
<circle id="circle281-6" class="st35" cx="373.7" cy="240.9" r="11.6"/>
<circle id="circle281-7" class="st37" cx="404.5" cy="240.9" r="11.6"/>
<circle id="circle281-8" class="st38" cx="435.1" cy="240.9" r="11.6"/>
</svg>
