<?xml version="1.0" encoding="UTF-8" standalone="no"?>
<!-- Generator: Adobe Illustrator 27.8.0, SVG Export Plug-In . SVG Version: 6.00 Build 0)  -->

<svg
   version="1.1"
   id="svg4098"
   x="0px"
   y="0px"
   viewBox="0 0 682 1033.6"
   style="enable-background:new 0 0 682 1033.6;"
   xml:space="preserve"
   sodipodi:docname="028-Pico.svg"
   inkscape:version="1.3 (0e150ed, 2023-07-21)"
   xmlns:inkscape="http://www.inkscape.org/namespaces/inkscape"
   xmlns:sodipodi="http://sodipodi.sourceforge.net/DTD/sodipodi-0.dtd"
   xmlns="http://www.w3.org/2000/svg"
   xmlns:svg="http://www.w3.org/2000/svg"><defs
   id="defs334" /><sodipodi:namedview
   id="namedview334"
   pagecolor="#505050"
   bordercolor="#eeeeee"
   borderopacity="1"
   inkscape:showpageshadow="0"
   inkscape:pageopacity="0"
   inkscape:pagecheckerboard="0"
   inkscape:deskcolor="#505050"
   inkscape:zoom="0.36887924"
   inkscape:cx="231.78317"
   inkscape:cy="375.46163"
   inkscape:window-width="1440"
   inkscape:window-height="900"
   inkscape:window-x="0"
   inkscape:window-y="0"
   inkscape:window-maximized="0"
   inkscape:current-layer="svg4098" />&#10;<style
   type="text/css"
   id="style1">&#10;	.st0{fill:#02814B;}&#10;	.st1{fill:#D4C547;}&#10;	.st2{fill:#525035;}&#10;	.st3{fill:#FEE86F;}&#10;	.st4{fill:#FFE17B;}&#10;	.st5{fill:#DDDDDD;}&#10;	.st6{fill:#7F7F7F;}&#10;	.st7{fill:#474544;}&#10;	.st8{fill:#E2EADE;}&#10;	.st9{fill:#C29148;}&#10;	.st10{fill:#8DDDDE;}&#10;	.st11{fill:#C1C1C1;}&#10;	.st12{fill:#C2BFAB;}&#10;	.st13{fill:none;stroke:#95AC6E;stroke-miterlimit:10;}&#10;	.st14{fill:#E8D28A;}&#10;	.st15{fill:#CECECE;}&#10;	.st16{fill:#FFFFFF;}&#10;	.st17{fill:#36323E;}&#10;	.st18{fill:#868C97;}&#10;	.st19{fill:#FCFCFA;}&#10;	.st20{fill:#141316;}&#10;	.st21{fill:#B9A68F;}&#10;	.st22{fill:#E0B45B;}&#10;	.st23{fill:#ABA28E;}&#10;	.st24{fill:none;stroke:#FFFFFF;stroke-miterlimit:10;}&#10;	.st25{fill:#1A1A1A;}&#10;	.st26{opacity:0.99;fill:#808080;enable-background:new    ;}&#10;	.st27{fill:#CCCBCB;}&#10;	.st28{fill:#2A4B9A;}&#10;	.st29{fill:#AB9C38;}&#10;	.st30{fill:#96841F;}&#10;	.st31{fill:#333333;}&#10;	.st32{opacity:0.99;enable-background:new    ;}&#10;	.st33{enable-background:new    ;}&#10;	.st34{fill:#CCCCCC;}&#10;	.st35{fill:#00B589;}&#10;	.st36{fill:#008000;}&#10;	.st37{fill:#54BDC2;}&#10;	.st38{fill:#914F00;}&#10;	.st39{fill:#E30613;}&#10;	.st40{fill:#7B217F;}&#10;</style>&#10;<g
   id="g264">&#10;	<path
   class="st0"
   d="M243.3,451.6v-11.9H0.2v11.9c2.3,0.9,3.9,3.1,3.9,5.7s-1.6,4.8-3.9,5.7V481c2.3,0.9,3.9,3.1,3.9,5.7   s-1.6,4.8-3.9,5.7v18.1c2.3,0.9,3.9,3.1,3.9,5.7s-1.6,4.8-3.9,5.7v18.1c2.3,0.9,3.9,3.1,3.9,5.7s-1.6,4.8-3.9,5.7v18.1   c2.3,0.9,3.9,3.1,3.9,5.7s-1.6,4.8-3.9,5.7v18.1c2.3,0.9,3.9,3.1,3.9,5.7s-1.6,4.8-3.9,5.7V628c2.3,0.9,3.9,3.1,3.9,5.7   s-1.6,4.8-3.9,5.7v18.1c2.3,0.9,3.9,3.1,3.9,5.7s-1.6,4.8-3.9,5.7v18.1c2.3,0.9,3.9,3.1,3.9,5.7s-1.6,4.8-3.9,5.7v18.1   c2.3,0.9,3.9,3.1,3.9,5.7s-1.6,4.8-3.9,5.7v18.1c2.3,0.9,3.9,3.1,3.9,5.7s-1.6,4.8-3.9,5.7V775c2.3,0.9,3.9,3.1,3.9,5.7   s-1.6,4.8-3.9,5.7v18.1c2.3,0.9,3.9,3.1,3.9,5.7s-1.6,4.8-3.9,5.7v18.1c2.3,0.9,3.9,3.1,3.9,5.7s-1.6,4.8-3.9,5.7v18.1   c2.3,0.9,3.9,3.1,3.9,5.7s-1.6,4.8-3.9,5.7v18.1c2.3,0.9,3.9,3.1,3.9,5.7s-1.6,4.8-3.9,5.7V922c2.3,0.9,3.9,3.1,3.9,5.7   s-1.6,4.8-3.9,5.7v18.1c2.3,0.9,3.9,3.1,3.9,5.7s-1.6,4.8-3.9,5.7v18c2.3,0.9,3.9,3.1,3.9,5.7s-1.6,4.8-3.9,5.7v18.1   c2.3,0.9,3.9,3.1,3.9,5.7s-1.6,4.8-3.9,5.7v11.9h78.5h7.5h11.3h18.5h11.3H146h11.3h4h82v-11.9c-2.2-0.9-3.8-3.1-3.8-5.7   s1.6-4.8,3.8-5.7v-18.1c-2.2-0.9-3.8-3.1-3.8-5.7s1.6-4.8,3.8-5.7v-18.1c-2.2-0.9-3.8-3.1-3.8-5.7s1.6-4.8,3.8-5.7v-18.1   c-2.2-0.9-3.8-3.1-3.8-5.7s1.6-4.8,3.8-5.7v-18.1c-2.2-0.9-3.8-3.1-3.8-5.7s1.6-4.8,3.8-5.7v-18.1c-2.2-0.9-3.8-3.1-3.8-5.7   s1.6-4.8,3.8-5.7v-18.1c-2.2-0.9-3.8-3.1-3.8-5.7s1.6-4.8,3.8-5.7v-18.1c-2.2-0.9-3.8-3.1-3.8-5.7s1.6-4.8,3.8-5.7v-18.1   c-2.2-0.9-3.8-3.1-3.8-5.7s1.6-4.8,3.8-5.7v-18.1c-2.2-0.9-3.8-3.1-3.8-5.7s1.6-4.8,3.8-5.7v-18.1c-2.2-0.9-3.8-3.1-3.8-5.7   s1.6-4.8,3.8-5.7v-18.1c-2.2-0.9-3.8-3.1-3.8-5.7s1.6-4.8,3.8-5.7v-18.1c-2.2-0.9-3.8-3.1-3.8-5.7s1.6-4.8,3.8-5.7v-18.1   c-2.2-0.9-3.8-3.1-3.8-5.7s1.6-4.8,3.8-5.7v-18.1c-2.2-0.9-3.8-3.1-3.8-5.7s1.6-4.8,3.8-5.7v-18.1c-2.2-0.9-3.8-3.1-3.8-5.7   s1.6-4.8,3.8-5.7v-18.1c-2.2-0.9-3.8-3.1-3.8-5.7s1.6-4.8,3.8-5.7v-18.1c-2.2-0.9-3.8-3.1-3.8-5.7s1.6-4.8,3.8-5.7v-18.1   c-2.2-0.9-3.8-3.1-3.8-5.7s1.6-4.8,3.8-5.7v-18.1c-2.2-0.9-3.8-3.1-3.8-5.7S241.1,452.5,243.3,451.6z M15.8,1021.9   c-3.4,0-6.1-2.7-6.1-6.1s2.7-6.1,6.1-6.1s6.1,2.7,6.1,6.1S19.2,1021.9,15.8,1021.9z M15.8,992.5c-3.4,0-6.1-2.7-6.1-6.1   s2.7-6.1,6.1-6.1s6.1,2.7,6.1,6.1S19.2,992.5,15.8,992.5z M15.8,963.1c-3.4,0-6.1-2.7-6.1-6.1s2.7-6.1,6.1-6.1s6.1,2.7,6.1,6.1   S19.2,963.1,15.8,963.1z M15.8,933.7c-3.4,0-6.1-2.7-6.1-6.1s2.7-6.1,6.1-6.1s6.1,2.7,6.1,6.1S19.2,933.7,15.8,933.7z M15.8,904.3   c-3.4,0-6.1-2.7-6.1-6.1s2.7-6.1,6.1-6.1s6.1,2.7,6.1,6.1S19.2,904.3,15.8,904.3z M15.8,874.9c-3.4,0-6.1-2.7-6.1-6.1   s2.7-6.1,6.1-6.1s6.1,2.7,6.1,6.1S19.2,874.9,15.8,874.9z M15.8,845.5c-3.4,0-6.1-2.7-6.1-6.1s2.7-6.1,6.1-6.1s6.1,2.7,6.1,6.1   S19.2,845.5,15.8,845.5z M15.8,816.1c-3.4,0-6.1-2.7-6.1-6.1s2.7-6.1,6.1-6.1s6.1,2.7,6.1,6.1S19.2,816.1,15.8,816.1z M15.8,786.7   c-3.4,0-6.1-2.7-6.1-6.1s2.7-6.1,6.1-6.1s6.1,2.7,6.1,6.1S19.2,786.7,15.8,786.7z M15.8,757.3c-3.4,0-6.1-2.7-6.1-6.1   s2.7-6.1,6.1-6.1s6.1,2.7,6.1,6.1S19.2,757.3,15.8,757.3z M15.8,727.9c-3.4,0-6.1-2.7-6.1-6.1s2.7-6.1,6.1-6.1s6.1,2.7,6.1,6.1   S19.2,727.9,15.8,727.9z M15.8,698.5c-3.4,0-6.1-2.7-6.1-6.1s2.7-6.1,6.1-6.1s6.1,2.7,6.1,6.1S19.2,698.5,15.8,698.5z M15.8,669.1   c-3.4,0-6.1-2.7-6.1-6.1s2.7-6.1,6.1-6.1s6.1,2.7,6.1,6.1S19.2,669.1,15.8,669.1z M15.8,639.8c-3.4,0-6.1-2.7-6.1-6.1   s2.7-6.1,6.1-6.1s6.1,2.7,6.1,6.1S19.2,639.8,15.8,639.8z M15.8,610.4c-3.4,0-6.1-2.7-6.1-6.1s2.7-6.1,6.1-6.1s6.1,2.7,6.1,6.1   S19.2,610.4,15.8,610.4z M15.8,581c-3.4,0-6.1-2.7-6.1-6.1s2.7-6.1,6.1-6.1s6.1,2.7,6.1,6.1S19.2,581,15.8,581z M15.8,551.6   c-3.4,0-6.1-2.7-6.1-6.1s2.7-6.1,6.1-6.1c3.4,0,6.1,2.7,6.1,6.1S19.2,551.6,15.8,551.6z M15.8,522.2c-3.4,0-6.1-2.7-6.1-6.1   s2.7-6.1,6.1-6.1s6.1,2.7,6.1,6.1S19.2,522.2,15.8,522.2z M15.8,492.8c-3.4,0-6.1-2.7-6.1-6.1s2.7-6.1,6.1-6.1s6.1,2.7,6.1,6.1   S19.2,492.8,15.8,492.8z M15.8,463.4c-3.4,0-6.1-2.7-6.1-6.1s2.7-6.1,6.1-6.1s6.1,2.7,6.1,6.1S19.2,463.4,15.8,463.4z M53.7,1021.8   c-6.7,0-12.1-5.4-12.1-12.1s5.4-12.1,12.1-12.1c6.7,0,12.1,5.4,12.1,12.1S60.4,1021.8,53.7,1021.8z M53.7,474.7   c-6.7,0-12.1-5.4-12.1-12.1c0-6.7,5.4-12.1,12.1-12.1c6.7,0,12.1,5.4,12.1,12.1C65.8,469.3,60.4,474.7,53.7,474.7z M127.6,807.9   c-3.1,0-5.7-2.6-5.7-5.7s2.6-5.7,5.7-5.7c3.1,0,5.7,2.6,5.7,5.7S130.7,807.9,127.6,807.9z M157,807.9c-3.1,0-5.7-2.6-5.7-5.7   s2.6-5.7,5.7-5.7c3.1,0,5.7,2.6,5.7,5.7S160.2,807.9,157,807.9z M186.2,450.5c6.7,0,12.1,5.4,12.1,12.1c0,6.7-5.4,12.1-12.1,12.1   s-12.1-5.4-12.1-12.1C174.1,455.9,179.6,450.5,186.2,450.5z M192.5,802.2c0,3.1-2.6,5.7-5.7,5.7c-3.1,0-5.7-2.6-5.7-5.7   s2.6-5.7,5.7-5.7C190,796.5,192.5,799.1,192.5,802.2z M188.2,1021.8c-6.7,0-12.1-5.4-12.1-12.1s5.4-12.1,12.1-12.1   s12.1,5.4,12.1,12.1S194.9,1021.8,188.2,1021.8z M227.8,1021.9c-3.4,0-6.1-2.7-6.1-6.1s2.7-6.1,6.1-6.1s6.1,2.7,6.1,6.1   S231.2,1021.9,227.8,1021.9z M227.8,992.5c-3.4,0-6.1-2.7-6.1-6.1s2.7-6.1,6.1-6.1s6.1,2.7,6.1,6.1S231.2,992.5,227.8,992.5z    M227.8,963.1c-3.4,0-6.1-2.7-6.1-6.1s2.7-6.1,6.1-6.1s6.1,2.7,6.1,6.1S231.2,963.1,227.8,963.1z M227.8,933.7   c-3.4,0-6.1-2.7-6.1-6.1s2.7-6.1,6.1-6.1s6.1,2.7,6.1,6.1S231.2,933.7,227.8,933.7z M227.8,904.3c-3.4,0-6.1-2.7-6.1-6.1   s2.7-6.1,6.1-6.1s6.1,2.7,6.1,6.1S231.2,904.3,227.8,904.3z M227.8,874.9c-3.4,0-6.1-2.7-6.1-6.1s2.7-6.1,6.1-6.1s6.1,2.7,6.1,6.1   S231.2,874.9,227.8,874.9z M227.8,845.5c-3.4,0-6.1-2.7-6.1-6.1s2.7-6.1,6.1-6.1s6.1,2.7,6.1,6.1S231.2,845.5,227.8,845.5z    M227.8,816.1c-3.4,0-6.1-2.7-6.1-6.1s2.7-6.1,6.1-6.1s6.1,2.7,6.1,6.1S231.2,816.1,227.8,816.1z M227.8,786.7   c-3.4,0-6.1-2.7-6.1-6.1s2.7-6.1,6.1-6.1s6.1,2.7,6.1,6.1S231.2,786.7,227.8,786.7z M227.8,757.3c-3.4,0-6.1-2.7-6.1-6.1   s2.7-6.1,6.1-6.1s6.1,2.7,6.1,6.1S231.2,757.3,227.8,757.3z M227.8,727.9c-3.4,0-6.1-2.7-6.1-6.1s2.7-6.1,6.1-6.1s6.1,2.7,6.1,6.1   S231.2,727.9,227.8,727.9z M227.8,698.5c-3.4,0-6.1-2.7-6.1-6.1s2.7-6.1,6.1-6.1s6.1,2.7,6.1,6.1S231.2,698.5,227.8,698.5z    M227.8,669.1c-3.4,0-6.1-2.7-6.1-6.1s2.7-6.1,6.1-6.1s6.1,2.7,6.1,6.1S231.2,669.1,227.8,669.1z M227.8,639.8   c-3.4,0-6.1-2.7-6.1-6.1s2.7-6.1,6.1-6.1s6.1,2.7,6.1,6.1S231.2,639.8,227.8,639.8z M227.8,610.4c-3.4,0-6.1-2.7-6.1-6.1   s2.7-6.1,6.1-6.1s6.1,2.7,6.1,6.1S231.2,610.4,227.8,610.4z M227.8,581c-3.4,0-6.1-2.7-6.1-6.1s2.7-6.1,6.1-6.1s6.1,2.7,6.1,6.1   S231.2,581,227.8,581z M227.8,551.6c-3.4,0-6.1-2.7-6.1-6.1s2.7-6.1,6.1-6.1s6.1,2.7,6.1,6.1S231.2,551.6,227.8,551.6z    M227.8,522.2c-3.4,0-6.1-2.7-6.1-6.1s2.7-6.1,6.1-6.1s6.1,2.7,6.1,6.1S231.2,522.2,227.8,522.2z M227.8,492.8   c-3.4,0-6.1-2.7-6.1-6.1s2.7-6.1,6.1-6.1s6.1,2.7,6.1,6.1S231.2,492.8,227.8,492.8z M227.8,463.4c-3.4,0-6.1-2.7-6.1-6.1   s2.7-6.1,6.1-6.1s6.1,2.7,6.1,6.1S231.2,463.4,227.8,463.4z"
   id="path1" />&#10;	<path
   class="st1"
   d="M53.7,442.1c-11.3,0-20.5,9.2-20.5,20.5c0,11.3,9.2,20.5,20.5,20.5s20.5-9.2,20.5-20.5   C74.3,451.3,65.1,442.1,53.7,442.1z M53.7,474.7c-6.7,0-12.1-5.4-12.1-12.1c0-6.7,5.4-12.1,12.1-12.1c6.7,0,12.1,5.4,12.1,12.1   C65.8,469.3,60.4,474.7,53.7,474.7z"
   id="path2" />&#10;	<path
   class="st1"
   d="M186.3,442.1c-11.3,0-20.5,9.2-20.5,20.5c0,11.3,9.2,20.5,20.5,20.5c11.3,0,20.5-9.2,20.5-20.5   C206.8,451.3,197.6,442.1,186.3,442.1z M186.3,474.7c-6.7,0-12.1-5.4-12.1-12.1c0-6.7,5.4-12.1,12.1-12.1c6.7,0,12.1,5.4,12.1,12.1   C198.4,469.3,193,474.7,186.3,474.7z"
   id="path3" />&#10;	<path
   class="st1"
   d="M53.7,989.2c-11.3,0-20.5,9.2-20.5,20.5s9.2,20.5,20.5,20.5s20.5-9.2,20.5-20.5S65.1,989.2,53.7,989.2z    M53.7,1021.9c-6.7,0-12.1-5.4-12.1-12.1s5.4-12.1,12.1-12.1c6.7,0,12.1,5.4,12.1,12.1S60.4,1021.9,53.7,1021.9z"
   id="path4" />&#10;	<path
   class="st1"
   d="M188.3,989.2c-11.3,0-20.5,9.2-20.5,20.5s9.2,20.5,20.5,20.5c11.3,0,20.5-9.2,20.5-20.5   S199.6,989.2,188.3,989.2z M188.3,1021.9c-6.7,0-12.1-5.4-12.1-12.1s5.4-12.1,12.1-12.1c6.7,0,12.1,5.4,12.1,12.1   S195,1021.9,188.3,1021.9z"
   id="path5" />&#10;	<path
   id="circle5"
   class="st2"
   style="fill:#525035"
   d="m 65.6,527.29999 a 10.6,10.6 0 0 1 -10.6,10.6 10.6,10.6 0 0 1 -10.6,-10.6 10.6,10.6 0 0 1 10.6,-10.6 10.6,10.6 0 0 1 10.6,10.6 z" />&#10;	<path
   id="circle6"
   class="st3"
   style="fill:#fee86f"
   d="m 60.5,527.29999 a 5.5,5.5 0 0 1 -5.5,5.5 5.5,5.5 0 0 1 -5.5,-5.5 5.5,5.5 0 0 1 5.5,-5.5 5.5,5.5 0 0 1 5.5,5.5 z" />&#10;	<path
   class="st4"
   d="M17.5,507.1H0.3v3.4c2.3,0.9,3.9,3.1,3.9,5.7s-1.6,4.8-3.9,5.7v3.4h17.2c5,0,9-4,9-9v0   C26.5,511.1,22.4,507.1,17.5,507.1z M15.9,522.2c-3.4,0-6.1-2.7-6.1-6.1s2.7-6.1,6.1-6.1s6.1,2.7,6.1,6.1S19.2,522.2,15.9,522.2z"
   id="path6" />&#10;	<path
   class="st4"
   d="M17.5,654.1H0.3v3.4c2.3,0.9,3.9,3.1,3.9,5.7s-1.6,4.8-3.9,5.7v3.4h17.2c5,0,9-4,9-9S22.4,654.1,17.5,654.1z    M15.9,669.2c-3.4,0-6.1-2.7-6.1-6.1s2.7-6.1,6.1-6.1s6.1,2.7,6.1,6.1S19.2,669.2,15.9,669.2z"
   id="path7" />&#10;	<path
   class="st4"
   d="M17.5,801H0.3v3.4c2.3,0.9,3.9,3.1,3.9,5.7s-1.6,4.8-3.9,5.7v3.4h17.2c5,0,9-4,9-9S22.4,801,17.5,801z    M15.9,816.2c-3.4,0-6.1-2.7-6.1-6.1s2.7-6.1,6.1-6.1s6.1,2.7,6.1,6.1S19.2,816.2,15.9,816.2z"
   id="path8" />&#10;	<path
   class="st4"
   d="M17.5,830.4H0.3v3.4c2.3,0.9,3.9,3.1,3.9,5.7s-1.6,4.8-3.9,5.7v3.4h17.2c5,0,9-4,9-9S22.4,830.4,17.5,830.4z    M15.9,845.6c-3.4,0-6.1-2.7-6.1-6.1s2.7-6.1,6.1-6.1s6.1,2.7,6.1,6.1S19.2,845.6,15.9,845.6z"
   id="path9" />&#10;	<path
   class="st4"
   d="M17.5,859.8H0.3v3.4c2.3,0.9,3.9,3.1,3.9,5.7s-1.6,4.8-3.9,5.7v3.4h17.2c5,0,9-4,9-9S22.4,859.8,17.5,859.8z    M15.9,874.9c-3.4,0-6.1-2.7-6.1-6.1s2.7-6.1,6.1-6.1s6.1,2.7,6.1,6.1S19.2,874.9,15.9,874.9z"
   id="path10" />&#10;	<path
   class="st4"
   d="M17.5,889.2H0.3v3.4c2.3,0.9,3.9,3.1,3.9,5.7s-1.6,4.8-3.9,5.7v3.4h17.2c5,0,9-4,9-9S22.4,889.2,17.5,889.2z    M15.9,904.3c-3.4,0-6.1-2.7-6.1-6.1s2.7-6.1,6.1-6.1s6.1,2.7,6.1,6.1S19.2,904.3,15.9,904.3z"
   id="path11" />&#10;	<path
   class="st4"
   d="M17.5,948H0.3v3.4c2.3,0.9,3.9,3.1,3.9,5.7s-1.6,4.8-3.9,5.7v3.4h17.2c5,0,9-4,9-9v0   C26.5,952.1,22.4,948,17.5,948z M15.9,963.1c-3.4,0-6.1-2.7-6.1-6.1s2.7-6.1,6.1-6.1s6.1,2.7,6.1,6.1S19.2,963.1,15.9,963.1z"
   id="path12" />&#10;	<path
   class="st4"
   d="M17.5,977.4H0.3v3.4c2.3,0.9,3.9,3.1,3.9,5.7s-1.6,4.8-3.9,5.7v3.4h17.2c5,0,9-4,9-9v0   C26.5,981.5,22.4,977.4,17.5,977.4z M15.9,992.5c-3.4,0-6.1-2.7-6.1-6.1s2.7-6.1,6.1-6.1s6.1,2.7,6.1,6.1S19.2,992.5,15.9,992.5z"
   id="path13" />&#10;	<path
   class="st4"
   d="M17.5,1006.8H0.3v3.4c2.3,0.9,3.9,3.1,3.9,5.7s-1.6,4.8-3.9,5.7v3.4h17.2c5,0,9-4,9-9S22.4,1006.8,17.5,1006.8   z M15.9,1021.9c-3.4,0-6.1-2.7-6.1-6.1s2.7-6.1,6.1-6.1s6.1,2.7,6.1,6.1S19.2,1021.9,15.9,1021.9z"
   id="path14" />&#10;	<path
   class="st4"
   d="M239.5,457.3c0-2.6,1.6-4.8,3.9-5.7v-3.4h-17.2c-5,0-9,4-9,9s4,9,9,9h17.2V463   C241.2,462.1,239.5,459.9,239.5,457.3z M227.8,463.4c-3.4,0-6.1-2.7-6.1-6.1s2.7-6.1,6.1-6.1s6.1,2.7,6.1,6.1   S231.2,463.4,227.8,463.4z"
   id="path15" />&#10;	<path
   class="st4"
   d="M239.5,486.7c0-2.6,1.6-4.8,3.9-5.7v-3.4h-17.2c-5,0-9,4-9,9v0c0,5,4,9,9,9h17.2v-3.4   C241.2,491.5,239.5,489.3,239.5,486.7z M227.8,492.8c-3.4,0-6.1-2.7-6.1-6.1s2.7-6.1,6.1-6.1s6.1,2.7,6.1,6.1   S231.2,492.8,227.8,492.8z"
   id="path16" />&#10;	<path
   class="st4"
   d="M239.5,516.1c0-2.6,1.6-4.8,3.9-5.7v-3.4h-17.2c-5,0-9,4-9,9v0c0,5,4,9,9,9h17.2v-3.4   C241.2,520.9,239.5,518.7,239.5,516.1z M227.8,522.2c-3.4,0-6.1-2.7-6.1-6.1s2.7-6.1,6.1-6.1s6.1,2.7,6.1,6.1   S231.2,522.2,227.8,522.2z"
   id="path17" />&#10;	<path
   class="st4"
   d="M239.5,545.5c0-2.6,1.6-4.8,3.9-5.7v-3.4h-17.2c-5,0-9,4-9,9s4,9,9,9h17.2v-3.4   C241.2,550.3,239.5,548.1,239.5,545.5z M227.8,551.6c-3.4,0-6.1-2.7-6.1-6.1s2.7-6.1,6.1-6.1s6.1,2.7,6.1,6.1   S231.2,551.6,227.8,551.6z"
   id="path18" />&#10;	<path
   class="st4"
   d="M239.5,574.9c0-2.6,1.6-4.8,3.9-5.7v-3.4h-17.2c-5,0-9,4-9,9s4,9,9,9h17.2v-3.4   C241.2,579.7,239.5,577.5,239.5,574.9z M227.8,581c-3.4,0-6.1-2.7-6.1-6.1s2.7-6.1,6.1-6.1s6.1,2.7,6.1,6.1S231.2,581,227.8,581z"
   id="path19" />&#10;	<path
   class="st4"
   d="M239.5,604.3c0-2.6,1.6-4.8,3.9-5.7v-3.4h-17.2c-5,0-9,4-9,9s4,9,9,9h17.2V610   C241.2,609.1,239.5,606.9,239.5,604.3z M227.8,610.4c-3.4,0-6.1-2.7-6.1-6.1s2.7-6.1,6.1-6.1s6.1,2.7,6.1,6.1   S231.2,610.4,227.8,610.4z"
   id="path20" />&#10;	<path
   class="st4"
   d="M239.5,663.1c0-2.6,1.6-4.8,3.9-5.7v-3.4h-17.2c-5,0-9,4-9,9s4,9,9,9h17.2v-3.4   C241.2,667.9,239.5,665.7,239.5,663.1z M227.8,669.2c-3.4,0-6.1-2.7-6.1-6.1s2.7-6.1,6.1-6.1s6.1,2.7,6.1,6.1   S231.2,669.2,227.8,669.2z"
   id="path21" />&#10;	<path
   class="st4"
   d="M239.5,721.9c0-2.6,1.6-4.8,3.9-5.7v-3.4h-17.2c-5,0-9,4-9,9v0c0,5,4,9,9,9h17.2v-3.4   C241.2,726.7,239.5,724.5,239.5,721.9z M227.8,728c-3.4,0-6.1-2.7-6.1-6.1s2.7-6.1,6.1-6.1s6.1,2.7,6.1,6.1S231.2,728,227.8,728z"
   id="path22" />&#10;	<path
   class="st4"
   d="M239.5,751.3c0-2.6,1.6-4.8,3.9-5.7v-3.4h-17.2c-5,0-9,4-9,9v0c0,5,4,9,9,9h17.2v-3.4   C241.2,756.1,239.5,753.9,239.5,751.3z M227.8,757.4c-3.4,0-6.1-2.7-6.1-6.1s2.7-6.1,6.1-6.1s6.1,2.7,6.1,6.1   S231.2,757.4,227.8,757.4z"
   id="path23" />&#10;	<path
   class="st4"
   d="M239.5,780.7c0-2.6,1.6-4.8,3.9-5.7v-3.4h-17.2c-5,0-9,4-9,9s4,9,9,9h17.2v-3.4   C241.2,785.5,239.5,783.3,239.5,780.7z M227.8,786.8c-3.4,0-6.1-2.7-6.1-6.1s2.7-6.1,6.1-6.1s6.1,2.7,6.1,6.1   S231.2,786.8,227.8,786.8z"
   id="path24" />&#10;	<path
   class="st4"
   d="M239.5,810.1c0-2.6,1.6-4.8,3.9-5.7V801h-17.2c-5,0-9,4-9,9s4,9,9,9h17.2v-3.4   C241.2,814.9,239.5,812.7,239.5,810.1z M227.8,816.2c-3.4,0-6.1-2.7-6.1-6.1s2.7-6.1,6.1-6.1s6.1,2.7,6.1,6.1   S231.2,816.2,227.8,816.2z"
   id="path25" />&#10;	<path
   class="st4"
   d="M239.5,839.5c0-2.6,1.6-4.8,3.9-5.7v-3.4h-17.2c-5,0-9,4-9,9s4,9,9,9h17.2v-3.4   C241.2,844.3,239.5,842,239.5,839.5z M227.8,845.6c-3.4,0-6.1-2.7-6.1-6.1s2.7-6.1,6.1-6.1s6.1,2.7,6.1,6.1   S231.2,845.6,227.8,845.6z"
   id="path26" />&#10;	<path
   class="st4"
   d="M239.5,868.9c0-2.6,1.6-4.8,3.9-5.7v-3.4h-17.2c-5,0-9,4-9,9s4,9,9,9h17.2v-3.4   C241.2,873.6,239.5,871.4,239.5,868.9z M227.8,874.9c-3.4,0-6.1-2.7-6.1-6.1s2.7-6.1,6.1-6.1s6.1,2.7,6.1,6.1   S231.2,874.9,227.8,874.9z"
   id="path27" />&#10;	<path
   class="st4"
   d="M239.5,898.3c0-2.6,1.6-4.8,3.9-5.7v-3.4h-17.2c-5,0-9,4-9,9s4,9,9,9h17.2v-3.4   C241.2,903,239.5,900.8,239.5,898.3z M227.8,904.3c-3.4,0-6.1-2.7-6.1-6.1s2.7-6.1,6.1-6.1s6.1,2.7,6.1,6.1   S231.2,904.3,227.8,904.3z"
   id="path28" />&#10;	<path
   class="st4"
   d="M239.5,957c0-2.6,1.6-4.8,3.9-5.7V948h-17.2c-5,0-9,4-9,9v0c0,5,4,9,9,9h17.2v-3.4   C241.2,961.8,239.5,959.6,239.5,957z M227.8,963.1c-3.4,0-6.1-2.7-6.1-6.1s2.7-6.1,6.1-6.1s6.1,2.7,6.1,6.1   S231.2,963.1,227.8,963.1z"
   id="path29" />&#10;	<path
   class="st4"
   d="M239.5,986.4c0-2.6,1.6-4.8,3.9-5.7v-3.4h-17.2c-5,0-9,4-9,9v0c0,5,4,9,9,9h17.2v-3.4   C241.2,991.2,239.5,989,239.5,986.4z M227.8,992.5c-3.4,0-6.1-2.7-6.1-6.1s2.7-6.1,6.1-6.1s6.1,2.7,6.1,6.1   S231.2,992.5,227.8,992.5z"
   id="path30" />&#10;	<path
   class="st5"
   d="M163.1,429.2l4.4-4.4l-2.3-2.3l-6.6,6.6h-1.5v-4.7c0-1.2-1-2.2-2.2-2.2H85.4c-1.2,0-2.2,1-2.2,2.2v4.7h-1.5   l-6.6-6.6l-2.3,2.3l4.4,4.4c-0.6,0.2-1,0.8-1,1.4V487c0,0.9,0.7,1.6,1.6,1.6h84.6c0.9,0,1.6-0.7,1.6-1.6v-56.3   C164,430,163.6,429.4,163.1,429.2z"
   id="path31" />&#10;	<g
   id="g33">&#10;		<path
   class="st6"
   d="M100.3,451.5c0-3.2-2.6-5.8-5.8-5.8s-5.8,2.6-5.8,5.8c0,1.4,0.5,2.7,1.3,3.7h-0.2v7.7c0,1.2,1,2.1,2.1,2.1H97    c1.2,0,2.1-1,2.1-2.1v-7.7H99C99.8,454.2,100.3,452.9,100.3,451.5z"
   id="path32" />&#10;		<path
   class="st6"
   d="M155.5,451.5c0-3.2-2.6-5.8-5.8-5.8s-5.8,2.6-5.8,5.8c0,1.4,0.5,2.7,1.3,3.7H145v7.7c0,1.2,1,2.1,2.1,2.1h5.1    c1.2,0,2.1-1,2.1-2.1v-7.7h-0.2C155,454.2,155.5,452.9,155.5,451.5z"
   id="path33" />&#10;	</g>&#10;	<path
   class="st7"
   d="M200.9,581.6h-21c-1.2,0-2.2-1-2.2-2.2v-26.7c0-1.2,1-2.2,2.2-2.2h21c1.2,0,2.2,1,2.2,2.2v26.7   C203,580.7,202.1,581.6,200.9,581.6z"
   id="path34" />&#10;	<g
   id="g35">&#10;		<path
   id="rect34"
   class="st8"
   style="fill:#e2eade"
   d="m 132,517.79999 h 21.7 v 14.4 H 132 Z" />&#10;		<path
   class="st9"
   d="M149.3,532.3c-2-1.8-3.2-4.4-3.2-7.2s1.2-5.4,3.2-7.2h-12.8c2,1.8,3.2,4.4,3.2,7.2s-1.2,5.4-3.2,7.2H149.3z"
   id="path35" />&#10;	</g>&#10;	<g
   id="g36">&#10;		<path
   id="rect35"
   class="st8"
   style="fill:#e2eade"
   d="M 132.3,603.20001 H 154 v 14.4 h -21.7 z" />&#10;		<path
   class="st9"
   d="M149.6,617.6c-2-1.8-3.2-4.4-3.2-7.2s1.2-5.4,3.2-7.2h-12.8c2,1.8,3.2,4.4,3.2,7.2s-1.2,5.4-3.2,7.2H149.6z"
   id="path36" />&#10;	</g>&#10;	<g
   id="g37">&#10;		<path
   id="rect36"
   class="st8"
   style="fill:#e2eade"
   d="M 132.3,622.29999 H 154 v 14.4 h -21.7 z" />&#10;		<path
   class="st9"
   d="M149.6,636.8c-2-1.8-3.2-4.4-3.2-7.2s1.2-5.4,3.2-7.2h-12.8c2,1.8,3.2,4.4,3.2,7.2s-1.2,5.4-3.2,7.2H149.6z"
   id="path37" />&#10;	</g>&#10;	<g
   id="g38">&#10;		&#10;			<path
   id="rect37"
   class="st8"
   transform="matrix(6.123234e-17 -1 1 6.123234e-17 -609.4774 742.5138)"
   style="fill:#e2eade"
   d="m 63.799999,670.70001 h 5.4 v 10.6 h -5.4 z" />&#10;		&#10;			<path
   id="rect38"
   class="st9"
   transform="matrix(6.123234e-17 -1 1 6.123234e-17 -609.4774 742.5138)"
   style="fill:#c29148"
   d="m 63.799999,673 h 5.4 v 6 h -5.4 z" />&#10;	</g>&#10;	<g
   id="g40">&#10;		<path
   id="rect39"
   class="st8"
   style="fill:#e2eade"
   d="m 177.10001,653.29999 h 5.4 v 10.6 h -5.4 z" />&#10;		<path
   id="rect40"
   class="st9"
   style="fill:#c29148"
   d="m 177.10001,655.59998 h 5.4 v 6 h -5.4 z" />&#10;	</g>&#10;	<path
   id="rect41"
   class="st7"
   style="fill:#474544"
   d="m 179.5,503.29999 h 18.9 v 29.3 h -18.9 z" />&#10;	<g
   id="g43">&#10;		<path
   id="rect42"
   class="st8"
   style="fill:#e2eade"
   d="m 171.60001,604.5 h 20.6 v 9.6 h -20.6 z" />&#10;		<path
   id="rect43"
   class="st10"
   style="fill:#8dddde"
   d="m 176.2,604.5 h 11.5 v 9.6 h -11.5 z" />&#10;	</g>&#10;	<path
   id="rect44"
   class="st9"
   style="fill:#c29148"
   d="m 120.2,772.59998 h 4.2 v 6.9 h -4.2 z" />&#10;	<path
   id="rect45"
   class="st9"
   style="fill:#c29148"
   d="m 126.9,772.59998 h 4.2 v 6.9 h -4.2 z" />&#10;	&#10;		<path
   id="rect46"
   class="st9"
   transform="matrix(6.123234e-17 -1 1 6.123234e-17 -617.274 754.7567)"
   style="fill:#c29148"
   d="m 66.599998,682.59998 h 4.2 v 6.9 h -4.2 z" />&#10;	&#10;		<path
   id="rect47"
   class="st9"
   transform="matrix(6.123234e-17 -1 1 6.123234e-17 -527.2093 710.5337)"
   style="fill:#c29148"
   d="m 89.5,615.40002 h 4.2 v 6.9 h -4.2 z" />&#10;	&#10;		<path
   id="rect48"
   class="st9"
   transform="matrix(6.123234e-17 -1 1 6.123234e-17 -661.2281 797.9983)"
   style="fill:#c29148"
   d="m 66.300003,726.20001 h 4.2 v 6.9 h -4.2 z" />&#10;	<path
   id="rect49"
   class="st7"
   style="fill:#474544"
   d="m 195,731.40002 h 4.2 v 6.9 H 195 Z" />&#10;	&#10;		<path
   id="rect50"
   class="st7"
   transform="matrix(6.123234e-17 -1 1 6.123234e-17 -482.2578 864.9096)"
   style="fill:#474544"
   d="m 189.2,670.20001 h 4.2 v 6.9 h -4.2 z" />&#10;	&#10;		<path
   id="rect51"
   class="st7"
   transform="matrix(6.123234e-17 -1 1 6.123234e-17 -428.5762 607.2387)"
   style="fill:#474544"
   d="m 87.199997,514.5 h 4.2 v 6.9 h -4.2 z" />&#10;	&#10;		<path
   id="rect52"
   class="st7"
   transform="matrix(6.123234e-17 -1 1 6.123234e-17 -445.6914 614.5983)"
   style="fill:#474544"
   d="m 82.300003,526.70001 h 4.2 v 6.9 h -4.2 z" />&#10;	&#10;		<path
   id="rect53"
   class="st7"
   transform="matrix(6.123234e-17 -1 1 6.123234e-17 -427.6481 817.5624)"
   style="fill:#474544"
   d="m 192.8,619.20001 h 4.2 v 6.9 h -4.2 z" />&#10;	<path
   class="st11"
   d="M186.3,936.3H57.5c-2.1,0-3.9-1.7-3.9-3.9V824.3c0-2.1,1.7-3.9,3.9-3.9h128.8c2.1,0,3.9,1.7,3.9,3.9v108.1   C190.2,934.5,188.5,936.3,186.3,936.3z"
   id="path53" />&#10;	<path
   id="rect54"
   class="st12"
   style="fill:#c2bfab"
   d="M 101.5,982.59998 H 112 v 5.9 h -10.5 z" />&#10;	<path
   id="rect55"
   class="st12"
   style="fill:#c2bfab"
   d="m 130.3,982.70001 h 10.5 v 5.9 h -10.5 z" />&#10;	<path
   id="rect56"
   class="st12"
   style="fill:#c2bfab"
   d="M 101.5,1020.3 H 112 v 5.9 h -10.5 z" />&#10;	<path
   id="rect57"
   class="st12"
   style="fill:#c2bfab"
   d="m 130.3,1020.5 h 10.5 v 5.9 h -10.5 z" />&#10;	<path
   id="polyline57"
   class="st13"
   style="fill:none;stroke:#95ac6e;stroke-miterlimit:10"
   d="m 17.5,465.1 v 4.4 l 17.9,18 v 48.6 L 51,551.6 v 134.8 l 4.9,4.9 h 35.3" />&#10;	<path
   id="polyline58"
   class="st13"
   style="fill:none;stroke:#95ac6e;stroke-miterlimit:10"
   d="M 22.9,491.9 31,500 v 37.9 l 15.7,15.7 v 135.3 l 5.9,5.9 H 91" />&#10;	<path
   id="polyline59"
   class="st13"
   style="fill:none;stroke:#95ac6e;stroke-miterlimit:10"
   d="M 23.2,550.4 43,570.2 v 121.1 l 10.4,10.5 H 95" />&#10;	<path
   id="polyline60"
   class="st13"
   style="fill:none;stroke:#95ac6e;stroke-miterlimit:10"
   d="m 23.2,579.8 16.6,16.5 v 97 l 12.1,12.1 h 43.2" />&#10;	<path
   id="polyline61"
   class="st13"
   style="fill:none;stroke:#95ac6e;stroke-miterlimit:10"
   d="m 23.2,610 12.4,12.3 v 76 l 13.9,13.9 h 43.9" />&#10;	<path
   id="polyline62"
   class="st13"
   style="fill:none;stroke:#95ac6e;stroke-miterlimit:10"
   d="m 22.9,638.1 8.7,8.7 V 701 l 14.8,14.7 h 49.7" />&#10;	<path
   id="polyline63"
   class="st13"
   style="fill:none;stroke:#95ac6e;stroke-miterlimit:10"
   d="m 22.9,696.7 22.4,22.5 h 57.4" />&#10;	<path
   id="line63"
   class="st13"
   style="fill:none;stroke:#95ac6e;stroke-miterlimit:10"
   d="M 23.700001,722.70001 H 98.800003" />&#10;	<path
   class="st13"
   d="M23.2,749c0.1-0.6,17.3-17.3,17.3-17.3H53l4.9,4.9h45.7"
   id="path63" />&#10;	<path
   id="polyline64"
   class="st13"
   style="fill:none;stroke:#95ac6e;stroke-miterlimit:10"
   d="m 20.4,774.9 5.3,-5.3 v -7.8 l 5.2,-5.1 v -8.4 l 13,-13.1 h 8.7 l 4.7,4.7 h 38" />&#10;	<path
   class="st13"
   d="M30.7,765.1l3.4-3.4c0,0-0.7-8.9,0-9.6c0.7-0.7,6-6,6-6l6.3-6.3h6.1l3.7,3.7h35.1"
   id="path64" />&#10;	<path
   id="polyline65"
   class="st13"
   style="fill:none;stroke:#95ac6e;stroke-miterlimit:10"
   d="m 29.1,821 v -47.6 l 9.6,-9.6 h 54.7 l 1.6,-1.6 v -9.7" />&#10;	<path
   id="polyline66"
   class="st13"
   style="fill:none;stroke:#95ac6e;stroke-miterlimit:10"
   d="m 17.5,919.3 v -3.6 l 15.4,-15.5 v -80.3 l 2.8,-2.7 v -41.8 l 6.3,-6.3 h 52.2 l 4.2,-4.3 v -7.3" />&#10;	<path
   class="st13"
   d="M35.7,802.9"
   id="path66" />&#10;	<path
   class="st13"
   d="M35.7,818.1"
   id="path67" />&#10;	<path
   id="polyline67"
   class="st13"
   style="fill:none;stroke:#95ac6e;stroke-miterlimit:10"
   d="m 23.6,979.9 6.8,-6.8 v -64.6 l 7.1,-5.9" />&#10;	<path
   id="polyline68"
   class="st13"
   style="fill:none;stroke:#95ac6e;stroke-miterlimit:10"
   d="m 35.6,912.9 7,-7 v -89.7 l -2.7,-2.7 v -36.9 l 4.7,-4.6 h 50.3 l 7,-7 v -16.6" />&#10;	<path
   id="polyline69"
   class="st13"
   style="fill:none;stroke:#95ac6e;stroke-miterlimit:10"
   d="m 108.9,755.1 v 8.7 l -13,13.1 h -4.4" />&#10;	<path
   id="polyline70"
   class="st13"
   style="fill:none;stroke:#95ac6e;stroke-miterlimit:10"
   d="M 93.9,785.5 112.4,767 v -15.4" />&#10;	<path
   id="polyline71"
   class="st13"
   style="fill:none;stroke:#95ac6e;stroke-miterlimit:10"
   d="m 115.9,756.9 v 11.7 l -13.7,13.7 v 20 l -6.3,6.3 H 65 l -9.5,-9.5" />&#10;	<path
   id="polyline72"
   class="st13"
   style="fill:none;stroke:#95ac6e;stroke-miterlimit:10"
   d="m 133.9,795.9 4.8,-4.8 v -13.3 l -3.2,-3.1 v -10 l -3.1,-3.2 v -10.9" />&#10;	<path
   id="polyline73"
   class="st13"
   style="fill:none;stroke:#95ac6e;stroke-miterlimit:10"
   d="m 137.3,754.6 v 7.9 l 2,2 v 6.4 l 13.4,13.4 h 12.2 l 14.2,14.3" />&#10;	<path
   id="polyline74"
   class="st13"
   style="fill:none;stroke:#95ac6e;stroke-miterlimit:10"
   d="m 145.3,752.5 v 10.3 l 6,6.1 h 21 l 28.2,28.2 v 112.6 l 6.2,6.2 v 50.9 l 5.6,5.5 v 20.2 l 11,11.1 v 5.3" />&#10;	<path
   id="polyline75"
   class="st13"
   style="fill:none;stroke:#95ac6e;stroke-miterlimit:10"
   d="m 150.7,752.9 v 7.3 l 4,4 h 18.9 l 31.6,31.6 v 111.5 l 6.2,6.2 v 52.6 l 4.2,4.2 v 8.7" />&#10;	<path
   id="polyline76"
   class="st13"
   style="fill:none;stroke:#95ac6e;stroke-miterlimit:10"
   d="m 157.5,747.7 h 7.8 l 45.8,45.9 v 111.6 l 16.1,16.1" />&#10;	<path
   id="polyline77"
   class="st13"
   style="fill:none;stroke:#95ac6e;stroke-miterlimit:10"
   d="m 157.5,743.3 h 9.4 l 25.2,25.3" />&#10;	<path
   id="polyline78"
   class="st13"
   style="fill:none;stroke:#95ac6e;stroke-miterlimit:10"
   d="m 158.6,738.2 h 8 l 23.5,23.5 h 5.4 l 10.8,10.8 v 7" />&#10;	<path
   id="polyline79"
   class="st13"
   style="fill:none;stroke:#95ac6e;stroke-miterlimit:10"
   d="m 158.2,733.8 h 9.1 l 23.1,23 h 10.5" />&#10;	<path
   id="polyline80"
   class="st13"
   style="fill:none;stroke:#95ac6e;stroke-miterlimit:10"
   d="m 158.2,729.6 h 10.9 l 5,5" />&#10;	<path
   id="polyline81"
   class="st13"
   style="fill:none;stroke:#95ac6e;stroke-miterlimit:10"
   d="m 158.2,724.6 h 17.2 l 27.4,27.4 h 3.5 l 9.6,9.6 V 774" />&#10;	<path
   id="line81"
   class="st13"
   style="fill:none;stroke:#95ac6e;stroke-miterlimit:10"
   d="M 158.60001,719.20001 H 167.7" />&#10;	<path
   id="polyline82"
   class="st13"
   style="fill:none;stroke:#95ac6e;stroke-miterlimit:10"
   d="m 156.4,713.8 h 15.4 l 7.4,7.4" />&#10;	<path
   id="polyline83"
   class="st13"
   style="fill:none;stroke:#95ac6e;stroke-miterlimit:10"
   d="m 187.9,733.8 4.5,-4.6 v -19.3 h 11" />&#10;	<path
   id="polyline84"
   class="st13"
   style="fill:none;stroke:#95ac6e;stroke-miterlimit:10"
   d="m 158.6,705.4 h 50.9 l 9,9" />&#10;	<path
   id="polyline85"
   class="st13"
   style="fill:none;stroke:#95ac6e;stroke-miterlimit:10"
   d="m 158.2,701 h 55.6 l 6.5,-6.5" />&#10;	<path
   id="polyline86"
   class="st13"
   style="fill:none;stroke:#95ac6e;stroke-miterlimit:10"
   d="m 157.5,696.7 h 41.3 l 8.3,-8.2 v -40.3 l 12.5,-12.5" />&#10;	<path
   id="polyline87"
   class="st13"
   style="fill:none;stroke:#95ac6e;stroke-miterlimit:10"
   d="m 158.6,692.5 h 20.5 l 23.3,-23.2 v -22.9" />&#10;	<path
   id="polyline88"
   class="st13"
   style="fill:none;stroke:#95ac6e;stroke-miterlimit:10"
   d="m 159.7,687.8 h 7.5 l 4.6,-4.7" />&#10;	<path
   class="st13"
   d="M147.8,682.5c-0.2-0.3,9.2-9.2,9.2-9.2h15.6v-33.5l2.8-2.8v-7.7"
   id="path88" />&#10;	<path
   class="st13"
   d="M147,680.2c0-0.2,0-6.5,0-6.5l10.3-10.3"
   id="path89" />&#10;	<path
   id="polyline89"
   class="st13"
   style="fill:none;stroke:#95ac6e;stroke-miterlimit:10"
   d="m 140.1,681.2 v -10.8 l 7.3,-7.4" />&#10;	<path
   id="line89"
   class="st13"
   style="fill:none;stroke:#95ac6e;stroke-miterlimit:10"
   d="M 136.60001,678.20001 V 660.59998" />&#10;	<path
   class="st13"
   d="M133.1,679.9c0-0.6,0-15.2,0-15.2l-4.2-4.2"
   id="path90" />&#10;	<path
   class="st13"
   d="M122.6,679.5c0-0.6,0-20.7,0-20.7"
   id="path91" />&#10;	<path
   class="st13"
   d="M119.2,681.2c0-0.3,0-11.1,0-11.1l-7.6-7.6"
   id="path92" />&#10;	<path
   id="polyline92"
   class="st13"
   style="fill:none;stroke:#95ac6e;stroke-miterlimit:10"
   d="m 115.6,680.7 v -6.3 l -13.8,-13.9 v -6.4 l 3.2,-3.2 h 3.9 l 2.6,-2.7 v -10.5 l -5.4,-5.4 H 100" />&#10;	<path
   id="polyline93"
   class="st13"
   style="fill:none;stroke:#95ac6e;stroke-miterlimit:10"
   d="m 99.8,638.1 h 5.6 l 3.1,3.1 v 5.2 l -2.8,2.7 h -4.6 l -3.4,3.5 v 9 l 11,11 v 6.7" />&#10;	<path
   id="polyline94"
   class="st13"
   style="fill:none;stroke:#95ac6e;stroke-miterlimit:10"
   d="m 91.3,642.6 v 16.7 l 13.9,14 v 9.5" />&#10;	<path
   id="polyline95"
   class="st13"
   style="fill:none;stroke:#95ac6e;stroke-miterlimit:10"
   d="m 76.5,641.8 v 7.2 l 9.4,9.4 v 3.8 L 99,675.3 v 9.1" />&#10;	<path
   class="st13"
   d="M94.8,678.4c0-0.1,0-5,0-5l-11.7-11.7v-1.1l-4.5-4.5h-6.4l-1.7-1.7h-6.9l-6.7-6.7v-14.4l1.6-1.6h8.8"
   id="path95" />&#10;	<path
   id="polyline96"
   class="st13"
   style="fill:none;stroke:#95ac6e;stroke-miterlimit:10"
   d="m 69.1,625.7 h -8.7 l -5,5 v 17.8 l 8,8 h 6.1 l 6.4,6.4 h 2.5 L 92.5,677" />&#10;	<path
   id="line96"
   class="st13"
   style="fill:none;stroke:#95ac6e;stroke-miterlimit:10"
   d="M 73.800003,599 56,616.79999" />&#10;	<path
   id="polyline97"
   class="st13"
   style="fill:none;stroke:#95ac6e;stroke-miterlimit:10"
   d="m 137.6,659.6 v -6.1 l -2.9,-2.9 v -3.1 l -4.5,-4.4 h -5 L 121.1,639 V 620.1 L 109.7,608.6 V 526.4 L 124,512.1 V 503 l 3.7,-3.7" />&#10;	<path
   class="st13"
   d="M135.3,552.3c0-0.6,0-9,0-9l-3.1-3.1h-9.8l-4.5-4.5v-4.3"
   id="path97" />&#10;	<path
   id="polyline98"
   class="st13"
   style="fill:none;stroke:#95ac6e;stroke-miterlimit:10"
   d="m 129.3,584.7 v 5.3 l -3.2,3.2 h -5.9 l -1.6,1.6" />&#10;	<path
   id="polyline99"
   class="st13"
   style="fill:none;stroke:#95ac6e;stroke-miterlimit:10"
   d="m 62.9,497.8 v 9.4 l 16.2,16.2 h 4.5 l 4.9,4.9 v 8.2 l -4.6,4.5 v 13.5" />&#10;	<path
   id="rect99"
   class="st14"
   style="fill:#e8d28a"
   d="m 45.599998,490.60001 h 18.9 v 9.6 h -18.9 z" />&#10;	<g
   id="g104">&#10;		<path
   id="rect100"
   class="st15"
   style="fill:#cecece"
   d="M 102.7,488.5 H 107 V 500 h -4.3 z" />&#10;		<path
   id="rect101"
   class="st15"
   style="fill:#cecece"
   d="m 110.4,488.5 h 4.3 V 500 h -4.3 z" />&#10;		<path
   id="rect102"
   class="st15"
   style="fill:#cecece"
   d="m 118.1,488.5 h 4.3 V 500 h -4.3 z" />&#10;		<path
   id="rect103"
   class="st15"
   style="fill:#cecece"
   d="M 125.7,488.5 H 130 V 500 h -4.3 z" />&#10;		<path
   id="rect104"
   class="st15"
   style="fill:#cecece"
   d="m 133.39999,488.5 h 4.3 V 500 h -4.3 z" />&#10;	</g>&#10;	<g
   id="g106">&#10;		<path
   class="st16"
   d="M106.8,509.3v-5.5h2.5v5.8c0,2,0.6,2.7,1.7,2.7c1.2,0,1.8-0.7,1.8-2.7v-5.8h2.4v5.5c0,3.5-1.4,5.1-4.2,5.1    S106.8,512.8,106.8,509.3z"
   id="path104" />&#10;		<path
   class="st16"
   d="M116.7,512.9l1.3-1.6c0.7,0.6,1.7,1,2.6,1c0.9,0,1.4-0.4,1.4-0.9c0-0.6-0.6-0.8-1.5-1.2l-1.3-0.6    c-1.1-0.4-2.1-1.3-2.1-2.8c0-1.7,1.6-3.2,3.8-3.2c1.2,0,2.5,0.5,3.4,1.3l-1.3,1.6c-0.7-0.5-1.4-0.8-2.1-0.8    c-0.8,0-1.3,0.3-1.3,0.8c0,0.6,0.7,0.8,1.6,1.2l1.3,0.5c1.3,0.5,2.1,1.4,2.1,2.8c0,1.7-1.5,3.3-4,3.3    C119.1,514.4,117.8,513.9,116.7,512.9z"
   id="path105" />&#10;		<path
   class="st16"
   d="M126.3,503.8h3.6c2.2,0,3.9,0.6,3.9,2.6c0,0.9-0.5,1.9-1.4,2.2v0.1c1.1,0.3,1.9,1.1,1.9,2.4    c0,2.1-1.8,3.1-4.1,3.1h-3.9V503.8z M129.8,507.9c1.1,0,1.5-0.5,1.5-1.2c0-0.8-0.5-1.1-1.5-1.1h-1.1v2.2H129.8z M130,512.3    c1.2,0,1.8-0.4,1.8-1.3s-0.6-1.2-1.8-1.2h-1.2v2.5H130z"
   id="path106" />&#10;	</g>&#10;	<path
   class="st17"
   d="M170.2,585.2h-45.7c-0.5,0-1-0.4-1-1v-33.5c0-0.5,0.4-1,1-1h45.7c0.5,0,1,0.4,1,1v33.5   C171.1,584.7,170.7,585.2,170.2,585.2z"
   id="path107" />&#10;	<g
   id="g113">&#10;		<path
   id="rect107"
   class="st15"
   style="fill:#cecece"
   d="m 128.60001,545.59998 h 1.4 v 4.1 h -1.4 z" />&#10;		<path
   id="rect108"
   class="st15"
   style="fill:#cecece"
   d="m 134.60001,545.59998 h 1.4 v 4.1 h -1.4 z" />&#10;		<path
   id="rect109"
   class="st15"
   style="fill:#cecece"
   d="m 140.60001,545.59998 h 1.4 v 4.1 h -1.4 z" />&#10;		<path
   id="rect110"
   class="st15"
   style="fill:#cecece"
   d="m 146.60001,545.59998 h 1.4 v 4.1 h -1.4 z" />&#10;		<path
   id="rect111"
   class="st15"
   style="fill:#cecece"
   d="m 152.60001,545.59998 h 1.4 v 4.1 h -1.4 z" />&#10;		<path
   id="rect112"
   class="st15"
   style="fill:#cecece"
   d="m 158.60001,545.59998 h 1.4 v 4.1 h -1.4 z" />&#10;		<path
   id="rect113"
   class="st15"
   style="fill:#cecece"
   d="m 164.60001,545.59998 h 1.4 v 4.1 h -1.4 z" />&#10;	</g>&#10;	<g
   id="g120">&#10;		<path
   id="rect114"
   class="st15"
   style="fill:#cecece"
   d="m 128.60001,585.20001 h 1.4 v 4.1 h -1.4 z" />&#10;		<path
   id="rect115"
   class="st15"
   style="fill:#cecece"
   d="m 134.60001,585.20001 h 1.4 v 4.1 h -1.4 z" />&#10;		<path
   id="rect116"
   class="st15"
   style="fill:#cecece"
   d="m 140.60001,585.20001 h 1.4 v 4.1 h -1.4 z" />&#10;		<path
   id="rect117"
   class="st15"
   style="fill:#cecece"
   d="m 146.60001,585.20001 h 1.4 v 4.1 h -1.4 z" />&#10;		<path
   id="rect118"
   class="st15"
   style="fill:#cecece"
   d="m 152.60001,585.20001 h 1.4 v 4.1 h -1.4 z" />&#10;		<path
   id="rect119"
   class="st15"
   style="fill:#cecece"
   d="m 158.60001,585.20001 h 1.4 v 4.1 h -1.4 z" />&#10;		<path
   id="rect120"
   class="st15"
   style="fill:#cecece"
   d="m 164.60001,585.20001 h 1.4 v 4.1 h -1.4 z" />&#10;	</g>&#10;	<g
   id="g125">&#10;		<path
   id="rect121"
   class="st18"
   style="fill:#868c97"
   d="M 61.400002,553.5 H 100.7 v 48.9 H 61.400002 Z" />&#10;		<path
   class="st19"
   d="M81,596.3L81,596.3c-7.6,0-13.7-6.1-13.7-13.7v-9.1c0-7.6,6.1-13.7,13.7-13.7h0c7.6,0,13.7,6.1,13.7,13.7    v9.1C94.7,590.1,88.6,596.3,81,596.3z"
   id="path121" />&#10;		<path
   class="st19"
   d="M61.4,563.8L61.4,563.8l0-10.3h10.3l0,0C71.6,559.2,67.1,563.8,61.4,563.8z"
   id="path122" />&#10;		<path
   class="st19"
   d="M71.6,602.5H61.4v-10.3h0C67.1,592.2,71.6,596.8,71.6,602.5L71.6,602.5z"
   id="path123" />&#10;		<path
   class="st19"
   d="M100.7,563.8L100.7,563.8c-5.7,0-10.3-4.6-10.3-10.3l0,0h10.3V563.8z"
   id="path124" />&#10;		<path
   class="st19"
   d="M100.7,602.5H90.4l0,0c0-5.7,4.6-10.3,10.3-10.3h0V602.5z"
   id="path125" />&#10;	</g>&#10;	<g
   id="g134">&#10;		<path
   id="rect125"
   class="st17"
   style="fill:#36323e"
   d="M 64.900002,623 H 99.5 v 22.9 H 64.900002 Z" />&#10;		<g
   id="g129">&#10;			<path
   id="rect126"
   class="st15"
   style="fill:#cecece"
   d="m 60.700001,624.20001 h 4.2 v 3.4 h -4.2 z" />&#10;			<path
   id="rect127"
   class="st15"
   style="fill:#cecece"
   d="m 60.700001,629.90002 h 4.2 v 3.4 h -4.2 z" />&#10;			<path
   id="rect128"
   class="st15"
   style="fill:#cecece"
   d="m 60.700001,635.70001 h 4.2 v 3.4 h -4.2 z" />&#10;			<path
   id="rect129"
   class="st15"
   style="fill:#cecece"
   d="m 60.700001,641.40002 h 4.2 v 3.4 h -4.2 z" />&#10;		</g>&#10;		<g
   id="g133">&#10;			<path
   id="rect130"
   class="st15"
   style="fill:#cecece"
   d="m 99.5,624.20001 h 4.2 v 3.4 h -4.2 z" />&#10;			<path
   id="rect131"
   class="st15"
   style="fill:#cecece"
   d="m 99.5,629.90002 h 4.2 v 3.4 h -4.2 z" />&#10;			<path
   id="rect132"
   class="st15"
   style="fill:#cecece"
   d="m 99.5,635.70001 h 4.2 v 3.4 h -4.2 z" />&#10;			<path
   id="rect133"
   class="st15"
   style="fill:#cecece"
   d="m 99.5,641.40002 h 4.2 v 3.4 h -4.2 z" />&#10;		</g>&#10;	</g>&#10;	<path
   id="rect134"
   class="st7"
   style="fill:#474544"
   d="m 135.5,654.5 h 4.2 v 6.9 h -4.2 z" />&#10;	<g
   id="g215">&#10;		<path
   class="st20"
   d="M160.4,758.3H81.4c-0.7,0-1.3-0.6-1.3-1.3v-79.1c0-0.7,0.6-1.3,1.3-1.3h79.1c0.7,0,1.3,0.6,1.3,1.3V757    C161.7,757.7,161.1,758.3,160.4,758.3z"
   id="path134" />&#10;		<g
   id="g154">&#10;			<path
   id="rect135"
   class="st15"
   style="fill:#cecece"
   d="m 86.199997,674.70001 h 3.1 v 1.9 h -3.1 z" />&#10;			<path
   id="rect136"
   class="st15"
   style="fill:#cecece"
   d="m 89.699997,674.70001 h 3.1 v 1.9 h -3.1 z" />&#10;			<path
   id="rect137"
   class="st15"
   style="fill:#cecece"
   d="m 93.199997,674.70001 h 3.1 v 1.9 h -3.1 z" />&#10;			<path
   id="rect138"
   class="st15"
   style="fill:#cecece"
   d="m 96.699997,674.70001 h 3.1 v 1.9 h -3.1 z" />&#10;			<path
   id="rect139"
   class="st15"
   style="fill:#cecece"
   d="m 100.2,674.70001 h 3.1 v 1.9 h -3.1 z" />&#10;			<path
   id="rect140"
   class="st15"
   style="fill:#cecece"
   d="m 103.6,674.70001 h 3.1 v 1.9 h -3.1 z" />&#10;			<path
   id="rect141"
   class="st15"
   style="fill:#cecece"
   d="m 107.1,674.70001 h 3.1 v 1.9 h -3.1 z" />&#10;			<path
   id="rect142"
   class="st15"
   style="fill:#cecece"
   d="m 114.1,674.70001 h 3.1 v 1.9 h -3.1 z" />&#10;			<path
   id="rect143"
   class="st15"
   style="fill:#cecece"
   d="m 121.1,674.70001 h 3.1 v 1.9 h -3.1 z" />&#10;			<path
   id="rect144"
   class="st15"
   style="fill:#cecece"
   d="m 128,674.70001 h 3.1 v 1.9 H 128 Z" />&#10;			<path
   id="rect145"
   class="st15"
   style="fill:#cecece"
   d="m 138.5,674.70001 h 3.1 v 1.9 h -3.1 z" />&#10;			<path
   id="rect146"
   class="st15"
   style="fill:#cecece"
   d="m 142,674.70001 h 3.1 v 1.9 H 142 Z" />&#10;			<path
   id="rect147"
   class="st15"
   style="fill:#cecece"
   d="m 149,674.70001 h 3.1 v 1.9 H 149 Z" />&#10;			<path
   id="rect148"
   class="st15"
   style="fill:#cecece"
   d="m 110.6,674.70001 h 3.1 v 1.9 h -3.1 z" />&#10;			<path
   id="rect149"
   class="st15"
   style="fill:#cecece"
   d="m 117.6,674.70001 h 3.1 v 1.9 h -3.1 z" />&#10;			<path
   id="rect150"
   class="st15"
   style="fill:#cecece"
   d="m 124.6,674.70001 h 3.1 v 1.9 h -3.1 z" />&#10;			<path
   id="rect151"
   class="st15"
   style="fill:#cecece"
   d="m 131.5,674.70001 h 3.1 v 1.9 h -3.1 z" />&#10;			<path
   id="rect152"
   class="st15"
   style="fill:#cecece"
   d="m 135,674.70001 h 3.1 v 1.9 H 135 Z" />&#10;			<path
   id="rect153"
   class="st15"
   style="fill:#cecece"
   d="m 145.5,674.70001 h 3.1 v 1.9 h -3.1 z" />&#10;			<path
   id="rect154"
   class="st15"
   style="fill:#cecece"
   d="m 152.39999,674.70001 h 3.1 v 1.9 h -3.1 z" />&#10;		</g>&#10;		<g
   id="g174">&#10;			<path
   id="rect155"
   class="st15"
   style="fill:#cecece"
   d="m 86.400002,758.29999 h 3.099999 v 1.9 h -3.099999 z" />&#10;			<path
   id="rect156"
   class="st15"
   style="fill:#cecece"
   d="m 89.900002,758.29999 h 3.099999 v 1.9 h -3.099999 z" />&#10;			<path
   id="rect157"
   class="st15"
   style="fill:#cecece"
   d="m 93.400002,758.29999 h 3.099999 v 1.9 h -3.099999 z" />&#10;			<path
   id="rect158"
   class="st15"
   style="fill:#cecece"
   d="M 96.900002,758.29999 H 100 v 1.9 h -3.099998 z" />&#10;			<path
   id="rect159"
   class="st15"
   style="fill:#cecece"
   d="m 100.4,758.29999 h 3.1 v 1.9 h -3.1 z" />&#10;			<path
   id="rect160"
   class="st15"
   style="fill:#cecece"
   d="m 103.8,758.29999 h 3.1 v 1.9 h -3.1 z" />&#10;			<path
   id="rect161"
   class="st15"
   style="fill:#cecece"
   d="m 107.3,758.29999 h 3.1 v 1.9 h -3.1 z" />&#10;			<path
   id="rect162"
   class="st15"
   style="fill:#cecece"
   d="m 114.3,758.29999 h 3.1 v 1.9 h -3.1 z" />&#10;			<path
   id="rect163"
   class="st15"
   style="fill:#cecece"
   d="m 121.3,758.29999 h 3.1 v 1.9 h -3.1 z" />&#10;			<path
   id="rect164"
   class="st15"
   style="fill:#cecece"
   d="m 128.2,758.29999 h 3.1 v 1.9 h -3.1 z" />&#10;			<path
   id="rect165"
   class="st15"
   style="fill:#cecece"
   d="m 138.7,758.29999 h 3.1 v 1.9 h -3.1 z" />&#10;			<path
   id="rect166"
   class="st15"
   style="fill:#cecece"
   d="m 142.2,758.29999 h 3.1 v 1.9 h -3.1 z" />&#10;			<path
   id="rect167"
   class="st15"
   style="fill:#cecece"
   d="m 149.10001,758.29999 h 3.1 v 1.9 h -3.1 z" />&#10;			<path
   id="rect168"
   class="st15"
   style="fill:#cecece"
   d="m 110.8,758.29999 h 3.1 v 1.9 h -3.1 z" />&#10;			<path
   id="rect169"
   class="st15"
   style="fill:#cecece"
   d="m 117.8,758.29999 h 3.1 v 1.9 h -3.1 z" />&#10;			<path
   id="rect170"
   class="st15"
   style="fill:#cecece"
   d="m 124.7,758.29999 h 3.1 v 1.9 h -3.1 z" />&#10;			<path
   id="rect171"
   class="st15"
   style="fill:#cecece"
   d="m 131.7,758.29999 h 3.1 v 1.9 h -3.1 z" />&#10;			<path
   id="rect172"
   class="st15"
   style="fill:#cecece"
   d="m 135.2,758.29999 h 3.1 v 1.9 h -3.1 z" />&#10;			<path
   id="rect173"
   class="st15"
   style="fill:#cecece"
   d="m 145.7,758.29999 h 3.1 v 1.9 h -3.1 z" />&#10;			<path
   id="rect174"
   class="st15"
   style="fill:#cecece"
   d="m 152.60001,758.29999 h 3.1 v 1.9 h -3.1 z" />&#10;		</g>&#10;		<g
   id="g194">&#10;			&#10;				<path
   id="rect175"
   class="st15"
   transform="matrix(6.123234e-17 -1 1 6.123234e-17 -671.4888 829.6693)"
   style="fill:#cecece"
   d="m 77.5,749.59998 h 3.1 v 1.9 h -3.1 z" />&#10;			&#10;				<path
   id="rect176"
   class="st15"
   transform="matrix(6.123234e-17 -1 1 6.123234e-17 -668.0037 826.1843)"
   style="fill:#cecece"
   d="m 77.5,746.09998 h 3.1 v 1.9 h -3.1 z" />&#10;			&#10;				<path
   id="rect177"
   class="st15"
   transform="matrix(6.123234e-17 -1 1 6.123234e-17 -664.5187 822.6992)"
   style="fill:#cecece"
   d="m 77.5,742.59998 h 3.1 v 1.9 h -3.1 z" />&#10;			&#10;				<path
   id="rect178"
   class="st15"
   transform="matrix(6.123234e-17 -1 1 6.123234e-17 -661.0336 819.2142)"
   style="fill:#cecece"
   d="m 77.5,739.20001 h 3.1 v 1.9 h -3.1 z" />&#10;			&#10;				<path
   id="rect179"
   class="st15"
   transform="matrix(6.123234e-17 -1 1 6.123234e-17 -657.5486 815.7291)"
   style="fill:#cecece"
   d="m 77.5,735.70001 h 3.1 v 1.9 h -3.1 z" />&#10;			&#10;				<path
   id="rect180"
   class="st15"
   transform="matrix(6.123234e-17 -1 1 6.123234e-17 -654.0635 812.2441)"
   style="fill:#cecece"
   d="m 77.5,732.20001 h 3.1 v 1.9 h -3.1 z" />&#10;			&#10;				<path
   id="rect181"
   class="st15"
   transform="matrix(6.123234e-17 -1 1 6.123234e-17 -650.5785 808.759)"
   style="fill:#cecece"
   d="m 77.5,728.70001 h 3.1 v 1.9 h -3.1 z" />&#10;			&#10;				<path
   id="rect182"
   class="st15"
   transform="matrix(6.123234e-17 -1 1 6.123234e-17 -643.6084 801.7889)"
   style="fill:#cecece"
   d="m 77.5,721.70001 h 3.1 v 1.9 h -3.1 z" />&#10;			&#10;				<path
   id="rect183"
   class="st15"
   transform="matrix(6.123234e-17 -1 1 6.123234e-17 -636.6383 794.8188)"
   style="fill:#cecece"
   d="m 77.5,714.79999 h 3.1 v 1.9 h -3.1 z" />&#10;			&#10;				<path
   id="rect184"
   class="st15"
   transform="matrix(6.123234e-17 -1 1 6.123234e-17 -629.6682 787.8488)"
   style="fill:#cecece"
   d="m 77.5,707.79999 h 3.1 v 1.9 h -3.1 z" />&#10;			&#10;				<path
   id="rect185"
   class="st15"
   transform="matrix(6.123234e-17 -1 1 6.123234e-17 -619.2131 777.3936)"
   style="fill:#cecece"
   d="m 77.5,697.29999 h 3.1 v 1.9 h -3.1 z" />&#10;			&#10;				<path
   id="rect186"
   class="st15"
   transform="matrix(6.123234e-17 -1 1 6.123234e-17 -615.7281 773.9086)"
   style="fill:#cecece"
   d="m 77.5,693.90002 h 3.1 v 1.9 h -3.1 z" />&#10;			&#10;				<path
   id="rect187"
   class="st15"
   transform="matrix(6.123234e-17 -1 1 6.123234e-17 -608.758 766.9385)"
   style="fill:#cecece"
   d="m 77.5,686.90002 h 3.1 v 1.9 h -3.1 z" />&#10;			&#10;				<path
   id="rect188"
   class="st15"
   transform="matrix(6.123234e-17 -1 1 6.123234e-17 -647.0934 805.274)"
   style="fill:#cecece"
   d="m 77.5,725.20001 h 3.1 v 1.9 h -3.1 z" />&#10;			&#10;				<path
   id="rect189"
   class="st15"
   transform="matrix(6.123234e-17 -1 1 6.123234e-17 -640.1234 798.3039)"
   style="fill:#cecece"
   d="m 77.5,718.29999 h 3.1 v 1.9 h -3.1 z" />&#10;			&#10;				<path
   id="rect190"
   class="st15"
   transform="matrix(6.123234e-17 -1 1 6.123234e-17 -633.1533 791.3338)"
   style="fill:#cecece"
   d="m 77.5,711.29999 h 3.1 v 1.9 h -3.1 z" />&#10;			&#10;				<path
   id="rect191"
   class="st15"
   transform="matrix(6.123234e-17 -1 1 6.123234e-17 -626.1832 784.3637)"
   style="fill:#cecece"
   d="m 77.5,704.29999 h 3.1 v 1.9 h -3.1 z" />&#10;			&#10;				<path
   id="rect192"
   class="st15"
   transform="matrix(6.123234e-17 -1 1 6.123234e-17 -622.6982 780.8787)"
   style="fill:#cecece"
   d="m 77.5,700.79999 h 3.1 v 1.9 h -3.1 z" />&#10;			&#10;				<path
   id="rect193"
   class="st15"
   transform="matrix(6.123234e-17 -1 1 6.123234e-17 -612.243 770.4235)"
   style="fill:#cecece"
   d="m 77.5,690.40002 h 3.1 v 1.9 h -3.1 z" />&#10;			&#10;				<path
   id="rect194"
   class="st15"
   transform="matrix(6.123234e-17 -1 1 6.123234e-17 -605.2729 763.4534)"
   style="fill:#cecece"
   d="m 77.5,683.40002 h 3.1 v 1.9 h -3.1 z" />&#10;		</g>&#10;		<g
   id="g214">&#10;			&#10;				<path
   id="rect195"
   class="st15"
   transform="matrix(6.123234e-17 -1 1 6.123234e-17 -587.8989 913.2592)"
   style="fill:#cecece"
   d="m 161.10001,749.59998 h 3.1 v 1.9 h -3.1 z" />&#10;			&#10;				<path
   id="rect196"
   class="st15"
   transform="matrix(6.123234e-17 -1 1 6.123234e-17 -584.4138 909.7742)"
   style="fill:#cecece"
   d="m 161.10001,746.09998 h 3.1 v 1.9 h -3.1 z" />&#10;			&#10;				<path
   id="rect197"
   class="st15"
   transform="matrix(6.123234e-17 -1 1 6.123234e-17 -580.9288 906.2891)"
   style="fill:#cecece"
   d="m 161.10001,742.59998 h 3.1 v 1.9 h -3.1 z" />&#10;			&#10;				<path
   id="rect198"
   class="st15"
   transform="matrix(6.123234e-17 -1 1 6.123234e-17 -577.4437 902.8041)"
   style="fill:#cecece"
   d="m 161.10001,739.20001 h 3.1 v 1.9 h -3.1 z" />&#10;			&#10;				<path
   id="rect199"
   class="st15"
   transform="matrix(6.123234e-17 -1 1 6.123234e-17 -573.9587 899.319)"
   style="fill:#cecece"
   d="m 161.10001,735.70001 h 3.1 v 1.9 h -3.1 z" />&#10;			&#10;				<path
   id="rect200"
   class="st15"
   transform="matrix(6.123234e-17 -1 1 6.123234e-17 -570.4736 895.834)"
   style="fill:#cecece"
   d="m 161.10001,732.20001 h 3.1 v 1.9 h -3.1 z" />&#10;			&#10;				<path
   id="rect201"
   class="st15"
   transform="matrix(6.123234e-17 -1 1 6.123234e-17 -566.9886 892.3489)"
   style="fill:#cecece"
   d="m 161.10001,728.70001 h 3.1 v 1.9 h -3.1 z" />&#10;			&#10;				<path
   id="rect202"
   class="st15"
   transform="matrix(6.123234e-17 -1 1 6.123234e-17 -560.0185 885.3788)"
   style="fill:#cecece"
   d="m 161.10001,721.70001 h 3.1 v 1.9 h -3.1 z" />&#10;			&#10;				<path
   id="rect203"
   class="st15"
   transform="matrix(6.123234e-17 -1 1 6.123234e-17 -553.0484 878.4088)"
   style="fill:#cecece"
   d="m 161.10001,714.79999 h 3.1 v 1.9 h -3.1 z" />&#10;			&#10;				<path
   id="rect204"
   class="st15"
   transform="matrix(6.123234e-17 -1 1 6.123234e-17 -546.0783 871.4387)"
   style="fill:#cecece"
   d="m 161.10001,707.79999 h 3.1 v 1.9 h -3.1 z" />&#10;			&#10;				<path
   id="rect205"
   class="st15"
   transform="matrix(6.123234e-17 -1 1 6.123234e-17 -535.6232 860.9836)"
   style="fill:#cecece"
   d="m 161.10001,697.29999 h 3.1 v 1.9 h -3.1 z" />&#10;			&#10;				<path
   id="rect206"
   class="st15"
   transform="matrix(6.123234e-17 -1 1 6.123234e-17 -532.1381 857.4985)"
   style="fill:#cecece"
   d="m 161.10001,693.90002 h 3.1 v 1.9 h -3.1 z" />&#10;			&#10;				<path
   id="rect207"
   class="st15"
   transform="matrix(6.123234e-17 -1 1 6.123234e-17 -525.168 850.5284)"
   style="fill:#cecece"
   d="m 161.10001,686.90002 h 3.1 v 1.9 h -3.1 z" />&#10;			&#10;				<path
   id="rect208"
   class="st15"
   transform="matrix(6.123234e-17 -1 1 6.123234e-17 -563.5035 888.8639)"
   style="fill:#cecece"
   d="m 161.10001,725.20001 h 3.1 v 1.9 h -3.1 z" />&#10;			&#10;				<path
   id="rect209"
   class="st15"
   transform="matrix(6.123234e-17 -1 1 6.123234e-17 -556.5334 881.8938)"
   style="fill:#cecece"
   d="m 161.10001,718.29999 h 3.1 v 1.9 h -3.1 z" />&#10;			&#10;				<path
   id="rect210"
   class="st15"
   transform="matrix(6.123234e-17 -1 1 6.123234e-17 -549.5634 874.9238)"
   style="fill:#cecece"
   d="m 161.10001,711.29999 h 3.1 v 1.9 h -3.1 z" />&#10;			&#10;				<path
   id="rect211"
   class="st15"
   transform="matrix(6.123234e-17 -1 1 6.123234e-17 -542.5933 867.9537)"
   style="fill:#cecece"
   d="m 161.10001,704.29999 h 3.1 v 1.9 h -3.1 z" />&#10;			&#10;				<path
   id="rect212"
   class="st15"
   transform="matrix(6.123234e-17 -1 1 6.123234e-17 -539.1082 864.4686)"
   style="fill:#cecece"
   d="m 161.10001,700.79999 h 3.1 v 1.9 h -3.1 z" />&#10;			&#10;				<path
   id="rect213"
   class="st15"
   transform="matrix(6.123234e-17 -1 1 6.123234e-17 -528.6531 854.0135)"
   style="fill:#cecece"
   d="m 161.10001,690.40002 h 3.1 v 1.9 h -3.1 z" />&#10;			&#10;				<path
   id="rect214"
   class="st15"
   transform="matrix(6.123234e-17 -1 1 6.123234e-17 -521.683 847.0434)"
   style="fill:#cecece"
   d="m 161.10001,683.40002 h 3.1 v 1.9 h -3.1 z" />&#10;		</g>&#10;		<path
   id="circle214"
   class="st21"
   style="fill:#b9a68f"
   d="m 92.999997,687.79999 a 2.8,2.8 0 0 1 -2.8,2.8 2.8,2.8 0 0 1 -2.8,-2.8 2.8,2.8 0 0 1 2.8,-2.8 2.8,2.8 0 0 1 2.8,2.8 z" />&#10;	</g>&#10;	<path
   id="rect215"
   class="st17"
   style="fill:#36323e"
   d="m 187.10001,642.5 h 18.2 v 8.6 h -18.2 z" />&#10;	<path
   id="rect216"
   class="st15"
   style="fill:#cecece"
   d="m 189.10001,651.09998 h 2.9 v 8.7 h -2.9 z" />&#10;	<path
   id="rect217"
   class="st15"
   style="fill:#cecece"
   d="m 200.89999,651.09998 h 2.9 v 8.7 h -2.9 z" />&#10;	<path
   id="rect218"
   class="st15"
   style="fill:#cecece"
   d="m 194.8,633.79999 h 2.9 v 8.7 h -2.9 z" />&#10;	&#10;		<path
   id="rect219"
   class="st9"
   transform="matrix(6.123234e-17 -1 1 6.123234e-17 -511.346 856.5409)"
   style="fill:#c29148"
   d="m 170.5,680.5 h 4.2 v 6.9 h -4.2 z" />&#10;	<path
   id="rect220"
   class="st7"
   style="fill:#474544"
   d="m 189.5,711.59998 h 4.2 v 6.9 h -4.2 z" />&#10;	&#10;		<path
   id="rect221"
   class="st9"
   transform="matrix(0.7071 -0.7071 0.7071 0.7071 -468.1115 338.4202)"
   style="fill:#c29148"
   d="m 172.3,730.79999 h 4.2 v 6.9 h -4.2 z" />&#10;	<g
   id="g223">&#10;		<path
   class="st4"
   d="M157,793c-5.1,0-9.2,4.1-9.2,9.2s4.1,9.2,9.2,9.2s9.2-4.1,9.2-9.2S162.1,793,157,793z M157,807.9    c-3.1,0-5.7-2.6-5.7-5.7s2.6-5.7,5.7-5.7c3.1,0,5.7,2.6,5.7,5.7S160.2,807.9,157,807.9z"
   id="path221" />&#10;		<path
   class="st4"
   d="M118.7,793.4v17.7h17.7v-17.7H118.7z M127.6,807.9c-3.1,0-5.7-2.6-5.7-5.7s2.6-5.7,5.7-5.7    c3.1,0,5.7,2.6,5.7,5.7S130.7,807.9,127.6,807.9z"
   id="path222" />&#10;		<path
   class="st4"
   d="M186.8,793c-5.1,0-9.2,4.1-9.2,9.2s4.1,9.2,9.2,9.2s9.2-4.1,9.2-9.2S191.9,793,186.8,793z M186.8,807.9    c-3.1,0-5.7-2.6-5.7-5.7s2.6-5.7,5.7-5.7c3.1,0,5.7,2.6,5.7,5.7S190,807.9,186.8,807.9z"
   id="path223" />&#10;	</g>&#10;	<path
   class="st4"
   d="M17.5,771.7H0.3v3.4c2.3,0.9,3.9,3.1,3.9,5.7s-1.6,4.8-3.9,5.7v3.4h17.2c5,0,9-4,9-9S22.4,771.7,17.5,771.7z    M15.9,786.8c-3.4,0-6.1-2.7-6.1-6.1s2.7-6.1,6.1-6.1s6.1,2.7,6.1,6.1S19.2,786.8,15.9,786.8z"
   id="path224" />&#10;	<path
   class="st4"
   d="M17.5,742.3H0.3v3.4c2.3,0.9,3.9,3.1,3.9,5.7s-1.6,4.8-3.9,5.7v3.4h17.2c5,0,9-4,9-9v0   C26.5,746.3,22.4,742.3,17.5,742.3z M15.9,757.4c-3.4,0-6.1-2.7-6.1-6.1s2.7-6.1,6.1-6.1s6.1,2.7,6.1,6.1S19.2,757.4,15.9,757.4z"
   id="path225" />&#10;	<path
   class="st4"
   d="M17.5,712.9H0.3v3.4c2.3,0.9,3.9,3.1,3.9,5.7s-1.6,4.8-3.9,5.7v3.4h17.2c5,0,9-4,9-9v0   C26.5,716.9,22.4,712.9,17.5,712.9z M15.9,728c-3.4,0-6.1-2.7-6.1-6.1s2.7-6.1,6.1-6.1s6.1,2.7,6.1,6.1S19.2,728,15.9,728z"
   id="path226" />&#10;	<path
   class="st4"
   d="M17.5,683.5H0.3v3.4c2.3,0.9,3.9,3.1,3.9,5.7s-1.6,4.8-3.9,5.7v3.4h17.2c5,0,9-4,9-9S22.4,683.5,17.5,683.5z    M15.9,698.6c-3.4,0-6.1-2.7-6.1-6.1s2.7-6.1,6.1-6.1s6.1,2.7,6.1,6.1S19.2,698.6,15.9,698.6z"
   id="path227" />&#10;	<path
   class="st4"
   d="M17.5,624.7H0.3v3.4c2.3,0.9,3.9,3.1,3.9,5.7s-1.6,4.8-3.9,5.7v3.4h17.2c5,0,9-4,9-9S22.4,624.7,17.5,624.7z    M15.9,639.8c-3.4,0-6.1-2.7-6.1-6.1s2.7-6.1,6.1-6.1s6.1,2.7,6.1,6.1S19.2,639.8,15.9,639.8z"
   id="path228" />&#10;	<path
   class="st4"
   d="M17.5,595.3H0.3v3.4c2.3,0.9,3.9,3.1,3.9,5.7s-1.6,4.8-3.9,5.7v3.4h17.2c5,0,9-4,9-9S22.4,595.3,17.5,595.3z    M15.9,610.4c-3.4,0-6.1-2.7-6.1-6.1s2.7-6.1,6.1-6.1s6.1,2.7,6.1,6.1S19.2,610.4,15.9,610.4z"
   id="path229" />&#10;	<path
   class="st4"
   d="M17.5,565.9H0.3v3.4c2.3,0.9,3.9,3.1,3.9,5.7s-1.6,4.8-3.9,5.7v3.4h17.2c5,0,9-4,9-9S22.4,565.9,17.5,565.9z    M15.9,581c-3.4,0-6.1-2.7-6.1-6.1s2.7-6.1,6.1-6.1s6.1,2.7,6.1,6.1S19.2,581,15.9,581z"
   id="path230" />&#10;	<path
   class="st4"
   d="M17.5,536.5H0.3v3.4c2.3,0.9,3.9,3.1,3.9,5.7s-1.6,4.8-3.9,5.7v3.4h17.2c5,0,9-4,9-9S22.4,536.5,17.5,536.5z    M15.9,551.6c-3.4,0-6.1-2.7-6.1-6.1s2.7-6.1,6.1-6.1s6.1,2.7,6.1,6.1S19.2,551.6,15.9,551.6z"
   id="path231" />&#10;	<path
   class="st4"
   d="M17.5,477.7H0.3v3.4c2.3,0.9,3.9,3.1,3.9,5.7s-1.6,4.8-3.9,5.7v3.4h17.2c5,0,9-4,9-9v0   C26.5,481.7,22.4,477.7,17.5,477.7z M15.9,492.8c-3.4,0-6.1-2.7-6.1-6.1s2.7-6.1,6.1-6.1s6.1,2.7,6.1,6.1S19.2,492.8,15.9,492.8z"
   id="path232" />&#10;	<path
   class="st4"
   d="M17.5,448.3H0.3v3.4c2.3,0.9,3.9,3.1,3.9,5.7s-1.6,4.8-3.9,5.7v3.4h17.2c5,0,9-4,9-9S22.4,448.3,17.5,448.3z    M15.9,463.4c-3.4,0-6.1-2.7-6.1-6.1s2.7-6.1,6.1-6.1s6.1,2.7,6.1,6.1S19.2,463.4,15.9,463.4z"
   id="path233" />&#10;	<path
   class="st4"
   d="M17.5,918.6H0.3v3.4c2.3,0.9,3.9,3.1,3.9,5.7s-1.6,4.8-3.9,5.7v3.4h17.2c5,0,9-4,9-9S22.4,918.6,17.5,918.6z    M15.9,933.7c-3.4,0-6.1-2.7-6.1-6.1s2.7-6.1,6.1-6.1s6.1,2.7,6.1,6.1S19.2,933.7,15.9,933.7z"
   id="path234" />&#10;	<path
   class="st4"
   d="M239.5,1015.8c0-2.6,1.6-4.8,3.9-5.7v-3.4h-17.2c-5,0-9,4-9,9s4,9,9,9h17.2v-3.4   C241.2,1020.6,239.5,1018.4,239.5,1015.8z M227.8,1021.9c-3.4,0-6.1-2.7-6.1-6.1s2.7-6.1,6.1-6.1s6.1,2.7,6.1,6.1   S231.2,1021.9,227.8,1021.9z"
   id="path235" />&#10;	<path
   class="st4"
   d="M239.5,927.7c0-2.6,1.6-4.8,3.9-5.7v-3.4h-17.2c-5,0-9,4-9,9s4,9,9,9h17.2v-3.4   C241.2,932.4,239.5,930.2,239.5,927.7z M227.8,933.7c-3.4,0-6.1-2.7-6.1-6.1s2.7-6.1,6.1-6.1s6.1,2.7,6.1,6.1   S231.2,933.7,227.8,933.7z"
   id="path236" />&#10;	<path
   class="st4"
   d="M239.5,692.5c0-2.6,1.6-4.8,3.9-5.7v-3.4h-17.2c-5,0-9,4-9,9s4,9,9,9h17.2v-3.4   C241.2,697.3,239.5,695.1,239.5,692.5z M227.8,698.6c-3.4,0-6.1-2.7-6.1-6.1s2.7-6.1,6.1-6.1s6.1,2.7,6.1,6.1   S231.2,698.6,227.8,698.6z"
   id="path237" />&#10;	&#10;		<path
   id="rect237"
   class="st12"
   transform="matrix(6.123234e-17 -1 1 6.123234e-17 -695.1296 881.713)"
   style="fill:#c2bfab"
   d="m 90,786.59998 h 6.7 v 3.7 H 90 Z" />&#10;	<g
   id="g239">&#10;		<path
   class="st22"
   d="M82.2,805.9H50.4c-1.2,0-2.2-1-2.2-2.2V780c0-1.2,1-2.2,2.2-2.2h31.8c1.2,0,2.2,1,2.2,2.2v23.7    C84.4,804.9,83.4,805.9,82.2,805.9z"
   id="path238" />&#10;		<path
   class="st23"
   d="M79.9,803.4H52.6c-0.8,0-1.4-0.6-1.4-1.4v-20.4c0-0.8,0.6-1.4,1.4-1.4h27.3c0.8,0,1.4,0.6,1.4,1.4V802    C81.3,802.8,80.7,803.4,79.9,803.4z"
   id="path239" />&#10;	</g>&#10;	&#10;		<path
   id="rect239"
   class="st12"
   transform="matrix(6.123234e-17 -1 1 6.123234e-17 -715.064 901.6473)"
   style="fill:#c2bfab"
   d="m 90,806.5 h 6.7 v 3.7 H 90 Z" />&#10;	<path
   id="rect240"
   class="st7"
   style="fill:#474544"
   d="m 100.1,790.70001 h 4.2 v 6.9 h -4.2 z" />&#10;	<g
   id="g246">&#10;		<path
   class="st16"
   d="M42.3,610.8v-3.6c0-2.2,0.6-3.9,2.6-3.9c0.9,0,1.9,0.5,2.2,1.4h0.1c0.3-1.1,1.1-1.9,2.4-1.9    c2.1,0,3.1,1.8,3.1,4.1v3.9H42.3z M46.4,607.3c0-1.1-0.5-1.5-1.2-1.5c-0.8,0-1.1,0.5-1.1,1.5v1.1h2.2V607.3z M50.8,607.1    c0-1.2-0.4-1.8-1.3-1.8s-1.2,0.6-1.2,1.8v1.2h2.5V607.1z"
   id="path240" />&#10;		<path
   class="st16"
   d="M47.4,601.6c-3.4,0-5.4-1.9-5.4-4.8s2-4.8,5.4-4.8c3.4,0,5.4,1.9,5.4,4.8S50.8,601.6,47.4,601.6z     M47.4,594.6c-2,0-3.2,0.8-3.2,2.2c0,1.4,1.2,2.2,3.2,2.2c2,0,3.3-0.9,3.3-2.2C50.7,595.5,49.4,594.6,47.4,594.6z"
   id="path241" />&#10;		<path
   class="st16"
   d="M47.4,590.6c-3.4,0-5.4-1.9-5.4-4.8s2-4.8,5.4-4.8c3.4,0,5.4,1.9,5.4,4.8S50.8,590.6,47.4,590.6z     M47.4,583.6c-2,0-3.2,0.8-3.2,2.2c0,1.4,1.2,2.2,3.2,2.2c2,0,3.3-0.9,3.3-2.2C50.7,584.5,49.4,583.6,47.4,583.6z"
   id="path242" />&#10;		<path
   class="st16"
   d="M44.3,577.6v2.8h-2.1v-8.1h2.1v2.8h8.3v2.5H44.3z"
   id="path243" />&#10;		<path
   class="st16"
   d="M51.3,571.7l-1.6-1.3c0.6-0.7,1-1.7,1-2.6c0-0.9-0.4-1.4-0.9-1.4c-0.6,0-0.8,0.6-1.2,1.5l-0.6,1.3    c-0.4,1.1-1.3,2.1-2.8,2.1c-1.7,0-3.2-1.6-3.2-3.8c0-1.2,0.5-2.5,1.3-3.4l1.6,1.3c-0.5,0.7-0.8,1.4-0.8,2.1c0,0.8,0.3,1.3,0.8,1.3    c0.6,0,0.8-0.7,1.2-1.6l0.5-1.3c0.5-1.3,1.4-2.1,2.8-2.1c1.7,0,3.3,1.5,3.3,4C52.9,569.2,52.4,570.6,51.3,571.7z"
   id="path244" />&#10;		<path
   class="st16"
   d="M42.3,562.1v-6.6h2.1v4.1h2v-3.5h2.1v3.5h2.2v-4.3h2.1v6.8H42.3z"
   id="path245" />&#10;		<path
   class="st16"
   d="M42.3,553.3v-2.5h8.3v-4h2.1v6.5H42.3z"
   id="path246" />&#10;	</g>&#10;	<g
   id="g251">&#10;		<path
   class="st16"
   d="M141.4,768h3c3.2,0,5.3,1.6,5.3,5.2c0,3.6-2.1,5.2-5.1,5.2h-3.1V768z M144.3,776.4c1.7,0,2.9-0.8,2.9-3.2    c0-2.5-1.2-3.2-2.9-3.2h-0.4v6.4H144.3z"
   id="path247" />&#10;		<path
   class="st16"
   d="M151.6,768h6.6v2.1h-4.1v2h3.5v2.1h-3.5v2.2h4.3v2.1h-6.8V768z"
   id="path248" />&#10;		<path
   class="st16"
   d="M160.4,768h3.6c2.2,0,3.9,0.6,3.9,2.6c0,0.9-0.5,1.9-1.4,2.2v0.1c1.1,0.3,1.9,1.1,1.9,2.4    c0,2.1-1.8,3.1-4.1,3.1h-3.9V768z M164,772.2c1.1,0,1.5-0.5,1.5-1.2c0-0.8-0.5-1.1-1.5-1.1h-1.1v2.2H164z M164.2,776.5    c1.2,0,1.8-0.4,1.8-1.3s-0.6-1.2-1.8-1.2h-1.2v2.5H164.2z"
   id="path249" />&#10;		<path
   class="st16"
   d="M170.1,773.6V768h2.5v5.8c0,2,0.6,2.7,1.7,2.7c1.2,0,1.8-0.7,1.8-2.7V768h2.4v5.5c0,3.5-1.4,5.1-4.2,5.1    S170.1,777.1,170.1,773.6z"
   id="path250" />&#10;		<path
   class="st16"
   d="M180.3,773.3c0-3.5,2.3-5.5,5.1-5.5c1.5,0,2.6,0.6,3.3,1.4l-1.3,1.5c-0.5-0.5-1.1-0.7-1.9-0.7    c-1.5,0-2.7,1.2-2.7,3.2c0,2.1,0.9,3.3,2.9,3.3c0.4,0,0.8-0.1,1-0.3v-1.7h-1.7v-2h3.9v4.9c-0.7,0.7-2,1.3-3.5,1.3    C182.6,778.6,180.3,776.8,180.3,773.3z"
   id="path251" />&#10;	</g>&#10;	<path
   id="rect251"
   class="st24"
   style="fill:none;stroke:#ffffff;stroke-miterlimit:10"
   d="m 114.2,789.40002 h 86.4 v 25.6 h -86.4 z" />&#10;	<g
   id="g254">&#10;		<path
   class="st16"
   d="M40.1,503.8h2.5v8.3h4v2.1h-6.5V503.8z"
   id="path252" />&#10;		<path
   class="st16"
   d="M48.4,503.8H55v2.1h-4.1v2h3.5v2.1h-3.5v2.2h4.3v2.1h-6.8V503.8z"
   id="path253" />&#10;		<path
   class="st16"
   d="M57.2,503.8h3c3.2,0,5.3,1.6,5.3,5.2c0,3.6-2.1,5.3-5.1,5.3h-3.1V503.8z M60.1,512.2c1.7,0,2.9-0.8,2.9-3.2    c0-2.5-1.2-3.2-2.9-3.2h-0.4v6.4H60.1z"
   id="path254" />&#10;	</g>&#10;	<g
   id="g255">&#10;		<path
   id="rect254"
   class="st8"
   style="fill:#e2eade"
   d="m 143.7,653.29999 h 5.4 v 10.6 h -5.4 z" />&#10;		<path
   id="rect255"
   class="st9"
   style="fill:#c29148"
   d="m 143.7,655.59998 h 5.4 v 6 h -5.4 z" />&#10;	</g>&#10;	<g
   id="g257">&#10;		<path
   id="rect256"
   class="st8"
   style="fill:#e2eade"
   d="m 154.3,653.29999 h 5.4 v 10.6 h -5.4 z" />&#10;		<path
   id="rect257"
   class="st9"
   style="fill:#c29148"
   d="m 154.3,655.59998 h 5.4 v 6 h -5.4 z" />&#10;	</g>&#10;	<path
   id="rect258"
   class="st7"
   style="fill:#474544"
   d="m 127.1,654.5 h 4.2 v 6.9 h -4.2 z" />&#10;	&#10;		<path
   id="rect259"
   class="st7"
   transform="matrix(6.123234e-17 -1 1 6.123234e-17 -592.3544 733.8262)"
   style="fill:#474544"
   d="m 68.599998,659.70001 h 4.2 v 6.9 h -4.2 z" />&#10;	<path
   id="rect260"
   class="st9"
   style="fill:#c29148"
   d="m 120.5,654.5 h 4.2 v 6.9 h -4.2 z" />&#10;	<path
   id="rect261"
   class="st9"
   style="fill:#c29148"
   d="m 110.4,654.5 h 4.2 v 6.9 h -4.2 z" />&#10;	<path
   class="st4"
   d="M239.5,633.7c0-2.6,1.6-4.8,3.9-5.7v-3.4h-17.2c-5,0-9,4-9,9s4,9,9,9h17.2v-3.4   C241.2,638.5,239.5,636.3,239.5,633.7z M227.8,639.8c-3.4,0-6.1-2.7-6.1-6.1s2.7-6.1,6.1-6.1s6.1,2.7,6.1,6.1   S231.2,639.8,227.8,639.8z"
   id="path261" />&#10;	<g
   id="g263">&#10;		&#10;			<path
   id="rect262"
   class="st8"
   transform="matrix(-1.836970e-16 1 -1 -1.836970e-16 803.9423 453.179)"
   style="fill:#e2eade"
   d="m 169.39999,625.79999 h 11.9 v 5.6 h -11.9 z" />&#10;		&#10;			<path
   id="rect263"
   class="st10"
   transform="matrix(-1.836970e-16 1 -1 -1.836970e-16 803.9423 453.179)"
   style="fill:#8dddde"
   d="m 172.10001,625.79999 h 6.6 v 5.6 h -6.6 z" />&#10;	</g>&#10;</g>&#10;<g
   id="layer1">&#10;	<path
   id="rect815"
   d="M495,24.6v77.9l-89.3,0.1V24.8H370V103h0l0.2,321.8l160.6-0.2l-0.2-321.8h0.1V24.6H495z" />&#10;	<path
   id="rect821"
   class="st16"
   style="fill:#ffffff"
   d="m 394.20001,393.89999 h 112.5 v 28.5 h -112.5 z" />&#10;	<path
   id="rect825"
   class="st25"
   d="M400,395.6h16.8c2.9,0,5.3,2.4,5.3,5.3v14.7c0,2.9-2.4,5.3-5.3,5.3H400c-2.9,0-5.3-2.4-5.3-5.3   v-14.7C394.7,398,397.1,395.6,400,395.6z" />&#10;	<path
   id="rect872"
   class="st25"
   d="M456,395.5h16.8c2.9,0,5.3,2.4,5.3,5.3v14.7c0,2.9-2.4,5.3-5.3,5.3H456c-2.9,0-5.3-2.4-5.3-5.3   v-14.7C450.7,397.9,453,395.5,456,395.5z" />&#10;	<path
   id="rect874"
   class="st25"
   d="M427.3,395.6h18.1c2.6,0,4.6,2.1,4.6,4.6v16.1c0,2.6-2.1,4.6-4.6,4.6h-18.1   c-2.6,0-4.6-2.1-4.6-4.6v-16.1C422.7,397.6,424.8,395.6,427.3,395.6z" />&#10;	<path
   id="rect947"
   class="st26"
   style="opacity:0.99;fill:#808080;enable-background:new"
   d="m 406.89999,409.39999 h 2.8 v 53.6 h -2.8 z" />&#10;	<path
   id="rect949"
   class="st26"
   style="opacity:0.99;fill:#808080;enable-background:new"
   d="m 435,409.29999 h 2.8 v 53.6 H 435 Z" />&#10;	<path
   id="rect951"
   class="st26"
   style="opacity:0.99;fill:#808080;enable-background:new"
   d="m 462.79999,409.29999 h 2.8 v 53.6 h -2.8 z" />&#10;	<path
   id="rect87"
   d="m 392.70001,298.60001 h 114.5 v 28.8 h -114.5 z" />&#10;	<path
   id="path31-1"
   class="st16"
   d="M415.7,165.9c1,0,1.1,0,1.3-0.1c0.1-0.1,0.2-0.2,0.3-0.3c0.1-0.2,0.1-0.3,0.1-2.3l0-2.2l2.1,0   l2.1,0l0,2.7c0,3,0,3.2-0.3,4c-0.3,1-1.2,1.7-2.2,1.8c-0.6,0.1-1.3,0.1-1.9,0.1c-0.8,0-1.8,0-2.1-0.1l-0.5,0l0-1.8l0-1.8   L415.7,165.9L415.7,165.9z M436,171.9c18.1,0,22.6,0,21.8,0.1l-0.1,0l0.1,0c0.1,0,0.1,0.1-0.1,0.1c-0.1,0-0.1,0,0.2,0.1l0.4,0   l-0.4,0c-0.2,0-0.3,0-0.3,0c0.1,0,0.1,0.1,0.1,0.5c0,0.5,0,0.5,0.2,0.5c0.1,0,0.1,0-0.1,0c-0.1,0-0.2,0-0.2,0.1   c0,0-7.2,0.1-21.5,0.1l-21.5,0l0-0.8l0-0.8L436,171.9z M419.6,155.4l2.1,0l0,1.7l0,1.7l-2.1,0l-2.1,0l0-1.7l0-1.7L419.6,155.4z    M423.9,161.8c0.1-0.9,0.4-1.8,0.8-2.6c0.1-0.2,0.2-0.4,0.3-0.5c0.1-0.1,0.2-0.2,0.2-0.3c0.2-0.4,0.5-0.7,0.8-1   c0,0,0.1-0.1,0.1-0.1c0.3-0.3,0.6-0.6,1-0.9c0.5-0.3,1-0.6,1.6-0.8c0.8-0.3,1.7-0.5,2.6-0.4c0.5,0,1,0.1,1.5,0.2   c0.3,0.1,0.7,0.2,0.9,0.3c0.1,0.1,0.2,0.1,0.3,0.1c0.2,0.1,0.4,0.2,0.5,0.3c1.3,0.9,2.3,2,3,3.4c0.8,1.7,1,3.7,0.3,5.4   c-0.2,0.6-0.5,1.1-0.8,1.6c-0.3,0.6-0.8,1.1-1.3,1.5c-0.8,0.9-1.9,1.5-3,1.8c-0.9,0.2-1.8,0.2-2.7,0.1c-1-0.2-2-0.6-2.9-1.2   c-0.3-0.2-0.6-0.5-0.9-0.8c-0.1-0.1-0.2-0.2-0.3-0.3c-0.9-1-1.5-2.3-1.9-3.6C423.9,163.2,423.9,162.5,423.9,161.8L423.9,161.8z    M428,163.6c0.2,0.8,0.6,1.5,1.3,2.1c0.7,0.6,1.7,0.8,2.6,0.6c1.1-0.5,2-1.5,2.2-2.7c0.2-0.8,0.2-1.6,0-2.4   c-0.2-0.9-0.8-1.7-1.5-2.2c-0.2-0.2-0.5-0.3-0.8-0.4c-0.7-0.1-1.4-0.1-2,0.2c-0.6,0.4-1.1,0.9-1.4,1.5   C427.9,161.4,427.8,162.5,428,163.6L428,163.6z M440.1,155.4c0,0,1,0,2.1,0l2.1,0l0,1.9c0,1.8,0,1.9,0.1,2.2c0.4,0.8,1.3,1.3,2.1,1   c0.4-0.1,0.8-0.4,1-0.8l0.2-0.4l0-2l0-2l2.1,0l2.1,0l0,2.2c0.1,0.9,0,1.8-0.1,2.7c-0.2,0.8-0.6,1.6-1.1,2.2   c-0.1,0.1-0.2,0.2-0.2,0.3c-0.3,0.3-0.6,0.7-1,0.9c-0.4,0.3-0.8,0.5-1.3,0.7c-0.1,0-0.4,0.1-0.7,0.2c-0.5,0.2-1,0.2-1.5,0.2   c-0.5,0-1.1,0-1.6-0.2c-0.6-0.1-1.2-0.4-1.7-0.7c-0.6-0.4-1.2-1-1.6-1.6c-0.6-0.8-0.9-1.7-1-2.7C440,158.2,440,156.8,440.1,155.4   L440.1,155.4z M446,165.9l3.5,0l0,1.8l0,1.8l-3.5,0l-3.5,0l0-1.8l0-1.8L446,165.9z M452,152.6c0,0,0.1-0.1,0.1-0.2   c0-0.2,0-0.2,0.3-0.3c0.1,0,6.1,0,13.2,0l12.9,0l0,0.8l0,0.8l-13.1,0c-7.2,0-13.2,0-13.2,0c-0.1,0-0.1-0.1-0.1-0.5   C452,152.8,452,152.6,452,152.6L452,152.6z M457.9,161.2l4.5,0l0,1.8l0,1.8l-4.5,0l-4.5,0l0-1.8l0-1.8L457.9,161.2z M465.9,155.3   l2.1,0l0,1.7l0,1.7l-2.1,0l-2.1,0l0-1.7l0-1.7L465.9,155.3z M465.9,160.7l2.1,0l0,4.5l0,4.5l-2.1,0l-2.1,0l0-4.5l0-4.5L465.9,160.7   z M474.5,155.3l4.5,0l0,1.7l0,1.7l-4.5,0l-4.5,0l0-1.7l0-1.7L474.5,155.3z M470.7,160.9c0,0,1,0,2.1,0l2.1,0l0,2.1   c0,2.9-0.1,2.7,2.1,2.8l1.4,0l0,1.8l0,1.8l-0.5,0.1c-1.3,0.1-2.6,0.1-3.9,0c-0.9-0.1-1.8-0.5-2.4-1.1c-0.5-0.6-0.8-1.4-0.9-2.2   C470.7,165.4,470.7,161,470.7,160.9L470.7,160.9z M481.5,153.6c0.1-0.4,0.3-0.7,0.6-1c0.8-0.8,2.2-0.9,3.1-0.2   c0.3,0.2,0.6,0.5,0.8,0.9c0.1,0.3,0.2,0.6,0.2,0.9c0,0.3,0,0.7-0.2,1c-0.4,0.7-1.1,1.2-1.9,1.3c-0.7,0.1-1.4-0.2-1.9-0.7   C481.5,155.2,481.3,154.4,481.5,153.6L481.5,153.6z M481.9,155.1c0.3,0.5,0.8,0.9,1.4,1.1c0.6,0.1,1.3,0,1.8-0.5   c0.2-0.1,0.3-0.3,0.4-0.6c0.2-0.3,0.2-0.6,0.2-0.9c0-0.3,0-0.6-0.2-0.9c-0.1-0.3-0.3-0.5-0.6-0.6c-0.2-0.1-0.4-0.3-0.6-0.3   c-1-0.3-2.1,0.2-2.5,1.2C481.7,154,481.7,154.6,481.9,155.1L481.9,155.1z M483.5,152.9c0.3,0,0.6,0,0.9,0.1   c0.4,0.2,0.5,0.7,0.3,1.1c-0.1,0.1-0.2,0.2-0.3,0.2l-0.2,0.1l0.2,0.2c0.1,0.2,0.3,0.3,0.4,0.5c0.1,0.1,0.1,0.2,0.2,0.3   c0.1,0.1,0,0.1-0.2,0.1l-0.2,0l-0.3-0.5c-0.4-0.6-0.5-0.6-0.9-0.6l-0.3,0l0,0.6l0,0.6l-0.2,0l-0.2,0l0-1.3l0-1.3L483.5,152.9z    M483.6,154c0.4,0,0.5,0,0.7-0.1c0.3-0.2,0.1-0.6-0.3-0.7c-0.3,0-0.6,0-0.8,0c0,0.1,0,0.3,0,0.4l0,0.4L483.6,154z" />&#10;	<path
   id="rect64"
   class="st25"
   d="M483.7,395.5h16.8c2.9,0,5.3,2.4,5.3,5.3v14.7c0,2.9-2.4,5.3-5.3,5.3h-16.8   c-2.9,0-5.3-2.4-5.3-5.3v-14.7C478.4,397.9,480.8,395.5,483.7,395.5z" />&#10;	<path
   id="rect66"
   class="st26"
   style="opacity:0.99;fill:#808080;enable-background:new"
   d="m 490.60001,409.29999 h 2.8 v 53.6 h -2.8 z" />&#10;	<path
   id="circle264"
   class="st27"
   style="fill:#cccbcb"
   d="m 489.59999,336.5 a 39.299999,39.299999 0 0 1 -39.3,39.3 39.299999,39.299999 0 0 1 -39.3,-39.3 39.299999,39.299999 0 0 1 39.3,-39.3 39.299999,39.299999 0 0 1 39.3,39.3 z" />&#10;	<path
   id="path133"
   class="st16"
   style="fill:#ffffff"
   d="m 482.39999,336.5 a 32.099998,32.099998 0 0 1 -32.1,32.1 32.099998,32.099998 0 0 1 -32.1,-32.1 32.099998,32.099998 0 0 1 32.1,-32.1 32.099998,32.099998 0 0 1 32.1,32.1 z" />&#10;	<path
   id="rect264"
   class="st16"
   style="fill:#ffffff"
   d="m 370,186.10001 h 60.7 V 293.3 H 370 Z" />&#10;	<path
   id="rect265"
   d="m 370,188.3 h 57.1 V 291.2 H 370 Z" />&#10;	<path
   id="rect266"
   class="st28"
   style="fill:#2a4b9a"
   d="m 371.79999,187.89999 h 57.1 v 103.6 h -57.1 z" />&#10;	<path
   id="path144"
   class="st29"
   style="fill:#ab9c38"
   d="m 389.60001,282.60001 a 8.8999996,8.8999996 0 0 1 -8.9,8.9 8.8999996,8.8999996 0 0 1 -8.9,-8.9 8.8999996,8.8999996 0 0 1 8.9,-8.9 8.8999996,8.8999996 0 0 1 8.9,8.9 z" />&#10;	<path
   id="rect952"
   class="st30"
   style="fill:#96841f"
   d="m 371.79999,281.10001 h 17.9 v 2.9 h -17.9 z" />&#10;	<path
   id="rect956"
   class="st16"
   style="fill:#ffffff"
   d="m 452.79999,204 h 77.9 v 60.7 h -77.9 z" />&#10;	<path
   id="rect958"
   d="m 454.60001,205.8 h 74.3 v 57.1 h -74.3 z" />&#10;	<path
   id="rect960"
   class="st31"
   style="fill:#333333"
   d="m 466.79999,209.3 h 50 v 50 h -50 z" />&#10;	<path
   id="rect962"
   class="st27"
   style="fill:#cccbcb"
   d="m 466.79999,259.29999 h 8.9 v 14.3 h -8.9 z" />&#10;	<path
   id="rect964"
   class="st27"
   style="fill:#cccbcb"
   d="m 507.79999,259.29999 h 8.9 v 14.3 h -8.9 z" />&#10;	<path
   id="rect966"
   class="st27"
   style="fill:#cccbcb"
   d="m 479.29999,259.29999 h 8.9 v 14.3 h -8.9 z" />&#10;	<path
   id="rect968"
   class="st27"
   style="fill:#cccbcb"
   d="m 495.29999,259.29999 h 8.9 v 14.3 h -8.9 z" />&#10;	<path
   id="rect970"
   class="st27"
   style="fill:#cccbcb"
   d="m 466.79999,195.10001 h 8.9 v 14.3 h -8.9 z" />&#10;	<path
   id="rect972"
   class="st27"
   style="fill:#cccbcb"
   d="m 507.79999,195.10001 h 8.9 v 14.3 h -8.9 z" />&#10;	<path
   id="rect974"
   class="st27"
   style="fill:#cccbcb"
   d="m 479.29999,195.10001 h 8.9 v 14.3 h -8.9 z" />&#10;	<path
   id="rect976"
   class="st27"
   style="fill:#cccbcb"
   d="m 495.29999,195.10001 h 8.9 v 14.3 h -8.9 z" />&#10;	<path
   id="rect978"
   class="st26"
   style="opacity:0.99;fill:#808080;enable-background:new"
   d="m 469.8,257.6 h 2.8 l 0.1,8.9 h -2.9 z" />&#10;	<path
   id="rect980"
   class="st26"
   style="opacity:0.99;fill:#808080;enable-background:new"
   d="m 482.3,257.6 h 2.8 l 0.1,8.9 h -2.9 z" />&#10;	<path
   id="rect982"
   class="st26"
   style="opacity:0.99;fill:#808080;enable-background:new"
   d="m 498.4,257.6 h 2.8 v 8.9 h -2.8 z" />&#10;	<path
   id="rect984"
   class="st26"
   style="opacity:0.99;fill:#808080;enable-background:new"
   d="m 510.9,257.6 h 2.8 v 8.9 h -2.8 z" />&#10;	<path
   id="rect986"
   class="st26"
   style="opacity:0.99;fill:#808080;enable-background:new"
   d="m 469.8,211.1 h 2.8 l 0.1,-8.9 h -2.9 z" />&#10;	<path
   id="rect988"
   class="st26"
   style="opacity:0.99;fill:#808080;enable-background:new"
   d="m 482.3,211.1 h 2.8 l 0.1,-8.9 h -2.9 z" />&#10;	<path
   id="rect990"
   class="st26"
   style="opacity:0.99;fill:#808080;enable-background:new"
   d="m 498.4,211.1 h 2.8 v -8.9 h -2.8 z" />&#10;	<path
   id="rect992"
   class="st26"
   style="opacity:0.99;fill:#808080;enable-background:new"
   d="m 510.9,211.1 h 2.8 v -8.9 h -2.8 z" />&#10;	&#10;		<path
   id="path994"
   class="st27"
   transform="matrix(0.1602 -0.9871 0.9871 0.1602 372.1236 556.041)"
   style="fill:#cccbcb"
   d="m 525.29999,59.299999 a 12.5,12.5 0 0 1 -12.5,12.5 12.5,12.5 0 0 1 -12.5,-12.5 12.5,12.5 0 0 1 12.5,-12.5 12.5,12.5 0 0 1 12.5,12.5 z" />&#10;	<path
   id="circle996"
   class="st27"
   style="fill:#cccbcb"
   d="m 400.29999,59.299999 a 12.5,12.5 0 0 1 -12.5,12.5 12.5,12.5 0 0 1 -12.5,-12.5 12.5,12.5 0 0 1 12.5,-12.5 12.5,12.5 0 0 1 12.5,12.5 z" />&#10;	<path
   id="rect836-7"
   class="st27"
   d="M434.1,107.5h5.4c5.4,0,9.8,4.4,9.8,9.8v0l0,0c0,5.4-4.4,9.8-9.8,9.8l0,0h-5.4   c-5.4,0-9.8-4.4-9.8-9.8l0,0C424.3,111.9,428.7,107.5,434.1,107.5z" />&#10;	<path
   id="rect836-6"
   class="st27"
   d="M460.9,107.5h5.4c5.4,0,9.8,4.4,9.8,9.8v0l0,0c0,5.4-4.4,9.8-9.8,9.8l0,0h-5.4   c-5.4,0-9.8-4.4-9.8-9.8v0l0,0C451.1,111.9,455.5,107.5,460.9,107.5L460.9,107.5z" />&#10;	&#10;		<path
   id="rect943"
   class="st27"
   transform="matrix(1 -8.295629e-03 8.295629e-03 1 -0.979 4.0821)"
   style="fill:#cccbcb"
   d="m 482.29999,107.6 h 18.5 v 25 h -18.5 z" />&#10;	<path
   id="rect1026"
   class="st27"
   d="M405.9,107.4H416c2.3,0,4.2,1.9,4.2,4.2v0v18.3c0,2.3-1.9,4.2-4.2,4.2h-10.1   c-2.3,0-4.2-1.9-4.2-4.2l0,0v-18.3C401.7,109.3,403.6,107.4,405.9,107.4C405.9,107.4,405.9,107.4,405.9,107.4z" />&#10;	<path
   id="path1028"
   class="st16"
   style="fill:#ffffff"
   d="m 416.4,125.2 a 5.4000001,5.4000001 0 0 1 -5.4,5.4 5.4000001,5.4000001 0 0 1 -5.4,-5.4 5.4000001,5.4000001 0 0 1 5.4,-5.4 5.4000001,5.4000001 0 0 1 5.4,5.4 z" />&#10;	<path
   id="rect1030"
   class="st27"
   d="M400.2,117l0.1,5.4c0.1,5.4-4.3,9.8-9.7,9.9l0,0c-5.4,0.1-9.8-4.3-9.9-9.7c0,0,0,0,0,0   l-0.1-5.4c-0.1-5.4,4.3-9.8,9.7-9.9l0,0C395.7,107.3,400.1,111.6,400.2,117C400.2,117,400.2,117,400.2,117z" />&#10;	<path
   id="circle105"
   class="st16"
   style="fill:#ffffff"
   d="m 397.49999,119.9 a 7.0999999,7.0999999 0 0 1 -7.1,7.1 7.0999999,7.0999999 0 0 1 -7.1,-7.1 7.0999999,7.0999999 0 0 1 7.1,-7.1 7.0999999,7.0999999 0 0 1 7.1,7.1 z" />&#10;	<path
   id="path138"
   class="st16"
   style="fill:#ffffff"
   d="m 398.49999,59.299999 a 10.7,10.7 0 0 1 -10.7,10.7 10.7,10.7 0 0 1 -10.7,-10.7 10.7,10.7 0 0 1 10.7,-10.7 10.7,10.7 0 0 1 10.7,10.7 z" />&#10;	<path
   id="circle140"
   class="st16"
   style="fill:#ffffff"
   d="m 523.49999,59.299999 a 10.7,10.7 0 0 1 -10.7,10.7 10.7,10.7 0 0 1 -10.7,-10.7 10.7,10.7 0 0 1 10.7,-10.7 10.7,10.7 0 0 1 10.7,10.7 z" />&#10;	<path
   id="polygon266"
   class="st26"
   style="opacity:0.99;fill:#808080;enable-background:new"
   d="m 435.3,29.6 h 2.9 v 89.3 h -2.8 z" />&#10;	<path
   id="polygon267"
   class="st26"
   style="opacity:0.99;fill:#808080;enable-background:new"
   d="m 462.1,29.6 h 2.8 l 0.1,89.3 h -2.8 z" />&#10;	<path
   id="circle147"
   class="st16"
   style="fill:#ffffff"
   d="m 498.70001,119.9 a 7.0999999,7.0999999 0 0 1 -7.1,7.1 7.0999999,7.0999999 0 0 1 -7.1,-7.1 7.0999999,7.0999999 0 0 1 7.1,-7.1 7.0999999,7.0999999 0 0 1 7.1,7.1 z" />&#10;	<path
   id="path100"
   class="st32"
   d="M450.2,0c-7.9,0-14.3,6.1-14.8,14h0v17.8h8.9v-3.3c1.9,0.8,3.9,1.2,5.9,1.2c2,0,4-0.4,5.9-1.2   v3.3h8.9v-16c0-0.3,0-0.6,0-0.9C465,6.6,458.3,0,450.2,0L450.2,0z" />&#10;	<g
   id="text111">&#10;		<g
   class="st33"
   id="g267">&#10;			<path
   class="st16"
   d="M526,162.4c0.1,0,0.1,0,0.2,0s0.1,0.1,0.1,0.1s0.1,0.2,0.1,0.3c0,0.1,0,0.3,0,0.5c0,0.3,0,0.5,0,0.6     c0,0.2-0.1,0.3-0.1,0.4c-0.1,0.1-0.1,0.1-0.2,0.2l-7.2,5.3h7.2c0.1,0,0.1,0,0.1,0c0,0,0.1,0.1,0.1,0.2c0,0.1,0,0.2,0.1,0.3     c0,0.1,0,0.3,0,0.5c0,0.2,0,0.3,0,0.5c0,0.1,0,0.2-0.1,0.3c0,0.1-0.1,0.1-0.1,0.2c0,0-0.1,0-0.1,0h-13.8c-0.1,0-0.1,0-0.2,0     c0,0-0.1-0.1-0.1-0.2c0-0.1,0-0.2-0.1-0.3c0-0.1,0-0.3,0-0.5c0-0.2,0-0.3,0-0.5c0-0.1,0-0.2,0.1-0.3c0-0.1,0.1-0.1,0.1-0.2     c0,0,0.1,0,0.2,0h6.4l-6.4-5.1c-0.1,0-0.1-0.1-0.2-0.2c0-0.1-0.1-0.1-0.1-0.2c0-0.1,0-0.2-0.1-0.3c0-0.1,0-0.3,0-0.5     c0-0.2,0-0.3,0-0.5s0-0.2,0.1-0.3c0-0.1,0.1-0.1,0.1-0.1c0,0,0.1,0,0.1,0c0.1,0,0.2,0,0.3,0.1c0.1,0,0.2,0.1,0.4,0.3l5.7,4.8     l6.8-5.1c0.2-0.1,0.3-0.2,0.4-0.2S526,162.4,526,162.4z"
   id="path267" />&#10;		</g>&#10;		<g
   class="st33"
   id="g268">&#10;			<path
   class="st16"
   d="M520.8,155.4h5.3c0.1,0,0.1,0,0.2,0s0.1,0.1,0.1,0.2c0,0.1,0,0.2,0.1,0.3c0,0.1,0,0.3,0,0.5     c0,0.2,0,0.3,0,0.5c0,0.1,0,0.2-0.1,0.3c0,0.1-0.1,0.1-0.1,0.2c0,0-0.1,0-0.2,0h-5.3l-8.1,4.1c-0.2,0.1-0.3,0.1-0.4,0.1     c-0.1,0-0.2,0-0.2-0.1c-0.1-0.1-0.1-0.2-0.1-0.3c0-0.1,0-0.3,0-0.6c0-0.2,0-0.4,0-0.5c0-0.1,0-0.2,0.1-0.3c0-0.1,0.1-0.1,0.1-0.2     c0,0,0.1-0.1,0.2-0.1l4.1-2c0.4-0.2,0.8-0.4,1.2-0.6c0.4-0.2,0.9-0.4,1.3-0.6v0c-0.4-0.2-0.8-0.3-1.3-0.5     c-0.4-0.2-0.8-0.4-1.2-0.5l-4.1-2c-0.1,0-0.1-0.1-0.2-0.1c-0.1,0-0.1-0.1-0.1-0.2c0-0.1,0-0.2-0.1-0.3c0-0.1,0-0.3,0-0.5     c0-0.3,0-0.5,0-0.6c0-0.2,0.1-0.3,0.1-0.3s0.1-0.1,0.2-0.1c0.1,0,0.2,0.1,0.4,0.1L520.8,155.4z"
   id="path268" />&#10;		</g>&#10;		<g
   class="st33"
   id="g272">&#10;			<path
   class="st16"
   d="M520.7,145.9c0.3,0,0.5,0,0.6,0.1c0.1,0.1,0.2,0.2,0.2,0.3v4.6c0,0.1-0.1,0.2-0.2,0.3s-0.3,0.1-0.6,0.1     c-0.3,0-0.5,0-0.6-0.1c-0.1-0.1-0.2-0.2-0.2-0.3v-4.6c0-0.1,0-0.1,0-0.2c0,0,0.1-0.1,0.1-0.1c0.1,0,0.1-0.1,0.2-0.1     C520.5,146,520.6,145.9,520.7,145.9z"
   id="path269" />&#10;			<path
   class="st16"
   d="M519.1,134.5c1.1,0,2.1,0.1,3,0.3s1.7,0.5,2.3,0.9s1.2,0.9,1.5,1.6c0.4,0.7,0.5,1.5,0.5,2.4     c0,0.9-0.2,1.7-0.5,2.3c-0.3,0.6-0.8,1.1-1.4,1.5s-1.4,0.6-2.3,0.8c-0.9,0.2-2,0.2-3.1,0.2c-1.1,0-2.1-0.1-3-0.3     c-0.9-0.2-1.7-0.5-2.3-0.9c-0.7-0.4-1.2-0.9-1.5-1.6c-0.4-0.6-0.5-1.4-0.5-2.4c0-0.9,0.2-1.7,0.5-2.3c0.3-0.6,0.8-1.1,1.4-1.5     c0.6-0.4,1.4-0.6,2.3-0.8C516.9,134.6,518,134.5,519.1,134.5z M519.3,136.4c-0.7,0-1.4,0-1.9,0.1c-0.6,0.1-1.1,0.1-1.5,0.2     c-0.4,0.1-0.8,0.2-1.1,0.4c-0.3,0.2-0.6,0.3-0.8,0.6s-0.4,0.5-0.4,0.8c-0.1,0.3-0.1,0.6-0.1,1c0,0.6,0.1,1.1,0.4,1.5     c0.3,0.4,0.7,0.7,1.2,0.9c0.5,0.2,1.1,0.4,1.8,0.5s1.4,0.1,2.2,0.1c1.1,0,2-0.1,2.7-0.2c0.8-0.1,1.4-0.3,1.8-0.5     c0.5-0.2,0.8-0.5,1-0.9c0.2-0.4,0.3-0.8,0.3-1.4c0-0.4-0.1-0.8-0.2-1.1c-0.1-0.3-0.3-0.6-0.6-0.8c-0.2-0.2-0.5-0.4-0.9-0.6     c-0.3-0.1-0.7-0.3-1.2-0.4c-0.4-0.1-0.9-0.2-1.4-0.2C520.3,136.4,519.8,136.4,519.3,136.4z"
   id="path270" />&#10;			<path
   class="st16"
   d="M525.5,123.5c0.1,0,0.3,0,0.4,0s0.2,0,0.3,0.1s0.1,0.1,0.2,0.1c0,0.1,0,0.1,0,0.2v7.9c0,0.1,0,0.2,0,0.3     c0,0.1-0.1,0.1-0.1,0.2c-0.1,0.1-0.1,0.1-0.3,0.1c-0.1,0-0.2,0-0.4,0c-0.1,0-0.3,0-0.4,0c-0.1,0-0.2,0-0.3-0.1s-0.2-0.1-0.3-0.1     c-0.1-0.1-0.2-0.1-0.3-0.2l-2.9-2.9c-0.7-0.7-1.3-1.2-1.8-1.6c-0.5-0.4-1-0.7-1.5-0.9c-0.4-0.2-0.8-0.4-1.2-0.4     c-0.4-0.1-0.7-0.1-1-0.1s-0.6,0.1-0.9,0.2c-0.3,0.1-0.5,0.3-0.7,0.5c-0.2,0.2-0.4,0.5-0.5,0.8c-0.1,0.3-0.2,0.7-0.2,1.1     c0,0.5,0.1,0.9,0.2,1.3c0.1,0.4,0.3,0.7,0.4,1c0.1,0.3,0.3,0.5,0.4,0.7c0.1,0.2,0.2,0.3,0.2,0.4c0,0.1,0,0.1,0,0.1     c0,0-0.1,0.1-0.1,0.1c-0.1,0-0.2,0-0.3,0.1c-0.1,0-0.2,0-0.4,0c-0.1,0-0.2,0-0.3,0c-0.1,0-0.2,0-0.2,0c-0.1,0-0.1,0-0.2-0.1     c-0.1,0-0.1-0.1-0.2-0.2c-0.1-0.1-0.2-0.2-0.3-0.5s-0.3-0.5-0.4-0.8c-0.1-0.3-0.2-0.7-0.3-1.1c-0.1-0.4-0.1-0.8-0.1-1.2     c0-0.7,0.1-1.3,0.3-1.8s0.5-1,0.8-1.3c0.3-0.3,0.7-0.6,1.2-0.8c0.5-0.2,0.9-0.3,1.4-0.3c0.5,0,0.9,0,1.4,0.1     c0.5,0.1,0.9,0.3,1.5,0.5c0.5,0.3,1.1,0.6,1.8,1.1c0.6,0.5,1.4,1.2,2.2,2l2.4,2.3v-6.2c0-0.1,0-0.1,0-0.2s0.1-0.1,0.1-0.1     c0.1,0,0.2-0.1,0.2-0.1S525.4,123.5,525.5,123.5z"
   id="path271" />&#10;			<path
   class="st16"
   d="M522.7,111.6c0.6,0,1.2,0.1,1.7,0.3c0.5,0.2,0.9,0.5,1.2,1c0.3,0.4,0.6,0.9,0.8,1.5     c0.2,0.6,0.3,1.3,0.3,2.1c0,0.7-0.1,1.4-0.2,2c-0.2,0.6-0.4,1.1-0.7,1.5s-0.7,0.7-1.1,0.9c-0.4,0.2-0.9,0.3-1.5,0.3     c-0.5,0-0.9-0.1-1.2-0.2c-0.4-0.1-0.7-0.4-1-0.6c-0.3-0.3-0.6-0.6-0.9-1c-0.3-0.4-0.5-0.9-0.8-1.4c-0.2,0.4-0.5,0.8-0.7,1.2     c-0.3,0.3-0.5,0.6-0.8,0.9s-0.6,0.4-1,0.5c-0.3,0.1-0.7,0.2-1.1,0.2c-0.5,0-1-0.1-1.4-0.3c-0.4-0.2-0.8-0.5-1.1-0.8     s-0.6-0.8-0.8-1.4c-0.2-0.6-0.3-1.2-0.3-2c0-0.7,0.1-1.3,0.3-1.9c0.2-0.5,0.4-1,0.7-1.3c0.3-0.3,0.7-0.6,1.1-0.8     c0.4-0.2,0.8-0.2,1.3-0.2c0.4,0,0.7,0.1,1.1,0.2s0.7,0.3,1,0.5c0.3,0.2,0.6,0.5,0.9,0.9c0.3,0.3,0.5,0.7,0.8,1.2     c0.3-0.5,0.5-1,0.8-1.4c0.3-0.4,0.6-0.8,0.9-1c0.3-0.3,0.6-0.5,1-0.6C521.9,111.7,522.2,111.6,522.7,111.6z M515.3,114     c-0.3,0-0.6,0.1-0.8,0.2c-0.2,0.1-0.5,0.3-0.6,0.5c-0.2,0.2-0.3,0.5-0.4,0.8c-0.1,0.3-0.1,0.7-0.1,1c0,0.8,0.2,1.4,0.5,1.8     c0.4,0.4,0.9,0.6,1.5,0.6c0.3,0,0.6,0,0.8-0.2c0.2-0.1,0.5-0.3,0.7-0.5c0.2-0.2,0.4-0.5,0.6-0.8c0.2-0.3,0.4-0.7,0.7-1.1     c-0.4-0.7-0.8-1.3-1.3-1.7C516.4,114.2,515.9,114,515.3,114z M522.9,113.6c-0.3,0-0.6,0.1-0.9,0.2c-0.3,0.1-0.5,0.3-0.8,0.6     c-0.2,0.3-0.5,0.6-0.7,1c-0.2,0.4-0.5,0.8-0.7,1.3c0.2,0.5,0.5,0.9,0.7,1.2s0.5,0.6,0.7,0.9c0.2,0.2,0.5,0.4,0.8,0.5     s0.6,0.2,0.9,0.2c0.7,0,1.3-0.2,1.7-0.7s0.6-1.2,0.6-2.2c0-0.9-0.2-1.7-0.6-2.1C524.1,113.8,523.5,113.6,522.9,113.6z"
   id="path272" />&#10;		</g>&#10;	</g>&#10;	<g
   id="text115">&#10;		<g
   class="st33"
   id="g274">&#10;			<path
   class="st16"
   d="M408.4,391.1c0.1,0.2,0.1,0.3,0.1,0.4c0,0.1,0,0.2-0.1,0.2c-0.1,0.1-0.2,0.1-0.3,0.1s-0.3,0-0.5,0     s-0.4,0-0.5,0c-0.1,0-0.2,0-0.3-0.1c-0.1,0-0.1-0.1-0.2-0.1c0,0-0.1-0.1-0.1-0.2l-1.2-3.5h-6l-1.2,3.4c0,0.1-0.1,0.1-0.1,0.2     s-0.1,0.1-0.2,0.1s-0.2,0.1-0.3,0.1c-0.1,0-0.3,0-0.5,0c-0.2,0-0.4,0-0.5,0c-0.1,0-0.2-0.1-0.3-0.1c-0.1-0.1-0.1-0.1-0.1-0.2     c0-0.1,0-0.2,0.1-0.4l4.8-13.3c0-0.1,0.1-0.1,0.1-0.2c0-0.1,0.1-0.1,0.2-0.1c0.1,0,0.2,0,0.4-0.1c0.1,0,0.3,0,0.5,0     c0.2,0,0.4,0,0.6,0c0.2,0,0.3,0,0.4,0.1c0.1,0,0.2,0.1,0.2,0.1c0.1,0.1,0.1,0.1,0.1,0.2L408.4,391.1z M402.2,379.3L402.2,379.3     l-2.5,7.1h5L402.2,379.3z"
   id="path273" />&#10;			<path
   class="st16"
   d="M419.6,384.5c0,1.1-0.1,2.1-0.3,3c-0.2,0.9-0.5,1.7-0.9,2.3s-0.9,1.2-1.6,1.5c-0.6,0.4-1.5,0.5-2.4,0.5     c-0.9,0-1.7-0.2-2.3-0.5c-0.6-0.3-1.1-0.8-1.5-1.4c-0.4-0.6-0.6-1.4-0.8-2.3c-0.2-0.9-0.2-2-0.2-3.1c0-1.1,0.1-2.1,0.3-3     c0.2-0.9,0.5-1.7,0.9-2.3c0.4-0.7,0.9-1.2,1.6-1.5c0.6-0.4,1.4-0.5,2.4-0.5c0.9,0,1.7,0.2,2.3,0.5c0.6,0.3,1.1,0.8,1.5,1.4     c0.4,0.6,0.6,1.4,0.8,2.3C419.5,382.3,419.6,383.4,419.6,384.5z M417.6,384.7c0-0.7,0-1.4-0.1-1.9s-0.1-1.1-0.2-1.5     c-0.1-0.4-0.2-0.8-0.4-1.1c-0.2-0.3-0.3-0.6-0.6-0.8c-0.2-0.2-0.5-0.4-0.8-0.4c-0.3-0.1-0.6-0.1-1-0.1c-0.6,0-1.1,0.1-1.5,0.4     c-0.4,0.3-0.7,0.7-0.9,1.2c-0.2,0.5-0.4,1.1-0.5,1.8s-0.1,1.4-0.1,2.2c0,1.1,0.1,2,0.2,2.7c0.1,0.8,0.3,1.4,0.5,1.8     s0.5,0.8,0.9,1c0.4,0.2,0.8,0.3,1.4,0.3c0.4,0,0.8-0.1,1.1-0.2c0.3-0.1,0.6-0.3,0.8-0.6c0.2-0.2,0.4-0.5,0.6-0.9     c0.1-0.3,0.3-0.7,0.4-1.2s0.1-0.9,0.2-1.4C417.6,385.7,417.6,385.2,417.6,384.7z"
   id="path274" />&#10;		</g>&#10;	</g>&#10;	<g
   id="text119">&#10;		<g
   class="st33"
   id="g275">&#10;			<path
   class="st16"
   d="M441.8,379.4c0,0.1,0,0.3,0,0.4c0,0.1,0,0.2-0.1,0.3c0,0.1-0.1,0.1-0.1,0.1c0,0-0.1,0-0.1,0     c-0.1,0-0.2-0.1-0.4-0.2c-0.2-0.1-0.5-0.3-0.8-0.5c-0.3-0.2-0.8-0.3-1.2-0.5s-1.1-0.2-1.7-0.2c-0.8,0-1.5,0.1-2.1,0.4     c-0.6,0.3-1.2,0.7-1.6,1.2s-0.8,1.1-1,1.8c-0.2,0.7-0.3,1.5-0.3,2.3c0,0.9,0.1,1.7,0.4,2.4c0.3,0.7,0.6,1.3,1.1,1.8     c0.5,0.5,1,0.9,1.6,1.1s1.3,0.4,2.1,0.4c0.4,0,0.9-0.1,1.3-0.2c0.5-0.1,0.9-0.3,1.3-0.5v-4.2h-3.3c-0.1,0-0.2-0.1-0.3-0.2     c-0.1-0.1-0.1-0.3-0.1-0.6c0-0.1,0-0.3,0-0.4s0-0.2,0.1-0.2s0.1-0.1,0.1-0.1c0,0,0.1,0,0.2,0h4.6c0.1,0,0.2,0,0.2,0     c0.1,0,0.2,0.1,0.2,0.1c0.1,0.1,0.1,0.1,0.2,0.2c0,0.1,0.1,0.2,0.1,0.4v5.5c0,0.2,0,0.4-0.1,0.5s-0.2,0.3-0.4,0.4     s-0.5,0.2-0.8,0.3c-0.3,0.1-0.7,0.2-1.1,0.3c-0.4,0.1-0.7,0.2-1.1,0.2s-0.7,0.1-1.1,0.1c-1.1,0-2.1-0.2-3-0.5     c-0.9-0.3-1.6-0.8-2.2-1.5c-0.6-0.6-1.1-1.4-1.4-2.3s-0.5-1.9-0.5-3c0-1.1,0.2-2.2,0.5-3.1c0.3-0.9,0.8-1.7,1.5-2.4     c0.6-0.6,1.4-1.2,2.2-1.5c0.9-0.4,1.8-0.5,2.9-0.5c0.5,0,1.1,0,1.5,0.1c0.5,0.1,0.9,0.2,1.3,0.3c0.4,0.1,0.7,0.3,0.9,0.4     c0.3,0.2,0.4,0.3,0.5,0.4c0.1,0.1,0.2,0.2,0.2,0.3C441.8,379,441.8,379.1,441.8,379.4z"
   id="path275" />&#10;		</g>&#10;	</g>&#10;	<g
   id="text123">&#10;		<g
   class="st33"
   id="g276">&#10;			<path
   class="st16"
   d="M469.3,386.8c0,0.1,0,0.3,0,0.4c0,0.1-0.1,0.2-0.1,0.2s-0.1,0.1-0.1,0.1s-0.1,0-0.2,0h-3.6v4     c0,0.1,0,0.1,0,0.1c0,0-0.1,0.1-0.1,0.1s-0.1,0.1-0.2,0.1s-0.2,0-0.4,0c-0.1,0-0.3,0-0.4,0c-0.1,0-0.2,0-0.3-0.1     c-0.1,0-0.1-0.1-0.1-0.1c0,0,0-0.1,0-0.1v-4H460c-0.1,0-0.1,0-0.2,0s-0.1-0.1-0.1-0.1s-0.1-0.1-0.1-0.2c0-0.1,0-0.2,0-0.4     c0-0.1,0-0.2,0-0.3s0.1-0.2,0.1-0.2s0.1-0.1,0.1-0.1s0.1,0,0.2,0h3.6v-4c0-0.1,0-0.1,0-0.2c0,0,0.1-0.1,0.1-0.1     c0.1,0,0.1-0.1,0.3-0.1c0.1,0,0.2,0,0.4,0c0.2,0,0.3,0,0.4,0s0.2,0,0.2,0.1c0.1,0,0.1,0.1,0.1,0.1c0,0,0,0.1,0,0.2v4h3.6     c0.1,0,0.1,0,0.2,0s0.1,0.1,0.1,0.1c0,0.1,0.1,0.1,0.1,0.2S469.3,386.6,469.3,386.8z"
   id="path276" />&#10;		</g>&#10;	</g>&#10;	<g
   id="text127">&#10;		<g
   class="st33"
   id="g278">&#10;			<path
   class="st16"
   d="M491.6,384.4c0,1.2-0.2,2.3-0.5,3.3c-0.3,0.9-0.8,1.7-1.4,2.3c-0.6,0.6-1.4,1.1-2.2,1.4s-1.9,0.5-3.2,0.5     h-3c-0.2,0-0.3-0.1-0.5-0.2c-0.2-0.1-0.2-0.3-0.2-0.6v-12.8c0-0.3,0.1-0.5,0.2-0.6s0.3-0.2,0.5-0.2h3.2c1.2,0,2.3,0.2,3.1,0.5     s1.6,0.8,2.2,1.4c0.6,0.6,1,1.3,1.3,2.2C491.5,382.3,491.6,383.3,491.6,384.4z M489.6,384.4c0-0.8-0.1-1.5-0.3-2.2     c-0.2-0.7-0.5-1.2-0.9-1.7c-0.4-0.5-0.9-0.9-1.6-1.1c-0.6-0.3-1.4-0.4-2.4-0.4h-1.9v11.2h2c0.9,0,1.7-0.1,2.3-0.3     c0.6-0.2,1.2-0.6,1.6-1.1s0.7-1.1,0.9-1.8C489.5,386.3,489.6,385.4,489.6,384.4z"
   id="path277" />&#10;			<path
   class="st16"
   d="M503.4,384.5c0,1.1-0.1,2.1-0.3,3c-0.2,0.9-0.5,1.7-0.9,2.3s-0.9,1.2-1.6,1.5c-0.6,0.4-1.5,0.5-2.4,0.5     c-0.9,0-1.7-0.2-2.3-0.5c-0.6-0.3-1.1-0.8-1.5-1.4c-0.4-0.6-0.6-1.4-0.8-2.3c-0.2-0.9-0.2-2-0.2-3.1c0-1.1,0.1-2.1,0.3-3     c0.2-0.9,0.5-1.7,0.9-2.3c0.4-0.7,0.9-1.2,1.6-1.5c0.6-0.4,1.4-0.5,2.4-0.5c0.9,0,1.7,0.2,2.3,0.5c0.6,0.3,1.1,0.8,1.5,1.4     c0.4,0.6,0.6,1.4,0.8,2.3C503.3,382.3,503.4,383.4,503.4,384.5z M501.4,384.7c0-0.7,0-1.4-0.1-1.9s-0.1-1.1-0.2-1.5     c-0.1-0.4-0.2-0.8-0.4-1.1c-0.2-0.3-0.3-0.6-0.6-0.8c-0.2-0.2-0.5-0.4-0.8-0.4c-0.3-0.1-0.6-0.1-1-0.1c-0.6,0-1.1,0.1-1.5,0.4     c-0.4,0.3-0.7,0.7-0.9,1.2c-0.2,0.5-0.4,1.1-0.5,1.8s-0.1,1.4-0.1,2.2c0,1.1,0.1,2,0.2,2.7c0.1,0.8,0.3,1.4,0.5,1.8     s0.5,0.8,0.9,1c0.4,0.2,0.8,0.3,1.4,0.3c0.4,0,0.8-0.1,1.1-0.2c0.3-0.1,0.6-0.3,0.8-0.6c0.2-0.2,0.4-0.5,0.6-0.9     c0.1-0.3,0.3-0.7,0.4-1.2s0.1-0.9,0.2-1.4C501.4,385.7,501.4,385.2,501.4,384.7z"
   id="path278" />&#10;		</g>&#10;	</g>&#10;</g>&#10;&#10;<path
   id="rect1707"
   class="st39"
   style="fill:#e30613"
   d="m 231.5,569.5 h 46.2 v 11.3 h -46.2 z" />&#10;&#10;&#10;&#10;<path
   id="circle281"
   class="st38"
   style="fill:#914f00"
   d="m 243.7,516.20001 a 11.9,11.9 0 0 1 -11.9,11.9 11.9,11.9 0 0 1 -11.9,-11.9 11.9,11.9 0 0 1 11.9,-11.9 11.9,11.9 0 0 1 11.9,11.9 z" />&#10;<path
   id="circle281-2"
   class="st39"
   style="fill:#e30613"
   d="m 243.1,575.09998 a 11.6,11.6 0 0 1 -11.6,11.6 11.6,11.6 0 0 1 -11.6,-11.6 11.6,11.6 0 0 1 11.6,-11.6 11.6,11.6 0 0 1 11.6,11.6 z" />&#10;&#10;&#10;<path
   id="rect1727"
   style="fill:#914f00;stroke-width:0.826259"
   class="st38"
   d="m 231.5,510.5 h 210.13651 v 11.3 H 231.5 Z" />&#10;&#10;&#10;<path
   id="rect1727-4"
   class="st39"
   style="fill:#e30613"
   d="m 266.29999,604.20001 h 203.39999 v 11.3 H 266.29999 Z" />&#10;<path
   id="rect1727-5"
   class="st39"
   style="fill:#e30613"
   d="m 266.29999,569.5 h 11.3 v 46.1 h -11.3 z" />&#10;&#10;&#10;&#10;<path
   id="rect1727-9"
   style="fill:#00b589;stroke-width:1.10719"
   class="st35"
   d="m 402.39999,434.10001 h 11.3 v 290.65628 h -11.3 z" /><path
   id="rect1727-9-2"
   style="fill:#00b589;stroke-width:0.880199"
   class="st35"
   transform="rotate(90)"
   d="m 717.6687,-413.72552 h 11.3 v 183.69497 h -11.3 z" />&#10;<path
   id="rect1727-10"
   class="st38"
   style="fill:#914f00"
   d="m 430.60001,434.10001 h 11.3 v 87.8 h -11.3 z" />&#10;<path
   id="rect1727-11"
   class="st39"
   style="fill:#e30613"
   d="m 458.39999,434.10001 h 11.3 v 181.5 h -11.3 z" />&#10;<path
   id="rect1727-12"
   class="st40"
   style="fill:#7b217f"
   d="m 486.20001,434.10001 h 11.3 v 499.29998 h -11.3 z" />&#10;<path
   id="circle281-5"
   class="st40"
   style="fill:#7b217f"
   d="m 243.70001,927.70001 a 11.6,11.6 0 0 1 -11.6,11.6 11.6,11.6 0 0 1 -11.6,-11.6 11.6,11.6 0 0 1 11.6,-11.6 11.6,11.6 0 0 1 11.6,11.6 z" />&#10;<path
   id="circle281-6"
   class="st40"
   style="fill:#7b217f"
   d="m 503.6,434.10001 a 11.6,11.6 0 0 1 -11.6,11.6 11.6,11.6 0 0 1 -11.6,-11.6 11.6,11.6 0 0 1 11.6,-11.6 11.6,11.6 0 0 1 11.6,11.6 z" />&#10;<path
   id="circle281-7"
   class="st39"
   style="fill:#e30613"
   d="m 475.80001,434.10001 a 11.6,11.6 0 0 1 -11.6,11.6 11.6,11.6 0 0 1 -11.6,-11.6 11.6,11.6 0 0 1 11.6,-11.6 11.6,11.6 0 0 1 11.6,11.6 z" />&#10;<path
   id="circle281-8"
   class="st38"
   style="fill:#914f00"
   d="m 447.80001,434.10001 a 11.6,11.6 0 0 1 -11.6,11.6 11.6,11.6 0 0 1 -11.6,-11.6 11.6,11.6 0 0 1 11.6,-11.6 11.6,11.6 0 0 1 11.6,11.6 z" />&#10;<path
   id="circle281-9"
   class="st35"
   style="fill:#00b589"
   d="m 419.80001,434.10001 a 11.6,11.6 0 0 1 -11.6,11.6 11.6,11.6 0 0 1 -11.6,-11.6 11.6,11.6 0 0 1 11.6,-11.6 11.6,11.6 0 0 1 11.6,11.6 z" />&#10;<path
   id="rect334"
   class="st40"
   style="fill:#7b217f"
   d="M 232.10001,922.09998 H 497.5 v 11.3 H 232.10001 Z" />&#10;<path
   id="circle281-9-5"
   style="fill:#00b589"
   class="st35"
   d="m 243.04759,721.69037 a 11.6,11.6 0 0 1 -11.6,11.6 11.6,11.6 0 0 1 -11.6,-11.6 11.6,11.6 0 0 1 11.6,-11.6 11.6,11.6 0 0 1 11.6,11.6 z" /></svg>
