<?xml version="1.0" encoding="UTF-8"?>
<svg xmlns="http://www.w3.org/2000/svg" version="1.1" viewBox="0 0 828.3 1042.1">
  <defs>
    <style>
      .cls-1 {
        fill: #29abe2;
      }

      .cls-2 {
        fill: #2c2c2c;
      }

      .cls-3 {
        stroke: gray;
      }

      .cls-3, .cls-4, .cls-5, .cls-6, .cls-7, .cls-8 {
        fill: none;
      }

      .cls-3, .cls-5, .cls-6, .cls-7 {
        stroke-width: 3px;
      }

      .cls-3, .cls-5, .cls-6, .cls-7, .cls-8 {
        stroke-miterlimit: 10;
      }

      .cls-9, .cls-10 {
        fill: #fff;
      }

      .cls-11 {
        fill: #be8839;
      }

      .cls-12 {
        fill: #dbded7;
      }

      .cls-13 {
        fill: #914f00;
      }

      .cls-14 {
        fill: #9a2442;
      }

      .cls-15 {
        fill: #303030;
      }

      .cls-16 {
        fill: #f53200;
      }

      .cls-5 {
        stroke: #754c24;
      }

      .cls-17 {
        fill: #47494a;
      }

      .cls-18 {
        fill: #655a50;
      }

      .cls-19 {
        fill: #e30613;
      }

      .cls-20 {
        fill: #474949;
      }

      .cls-21, .cls-22, .cls-23, .cls-10, .cls-24, .cls-25 {
        isolation: isolate;
      }

      .cls-26 {
        fill: #fcf7fd;
      }

      .cls-27 {
        fill: #ada390;
      }

      .cls-28 {
        fill: #686868;
      }

      .cls-29 {
        fill: #e3ad51;
      }

      .cls-30 {
        fill: #ddd;
      }

      .cls-31 {
        fill: #1a1a1a;
      }

      .cls-22 {
        fill: #f2f2f2;
      }

      .cls-22, .cls-23, .cls-10, .cls-24, .cls-25 {
        opacity: 1;
      }

      .cls-32, .cls-24 {
        fill: #ccc;
      }

      .cls-33 {
        fill: #c4b3a8;
      }

      .cls-34 {
        fill: #a3928b;
      }

      .cls-35 {
        fill: #36323e;
      }

      .cls-6 {
        stroke: #000;
      }

      .cls-36 {
        fill: green;
      }

      .cls-23 {
        fill: gray;
      }

      .cls-37 {
        fill: #eaeaea;
      }

      .cls-38 {
        fill: #1a1919;
      }

      .cls-39 {
        fill: #e3b37d;
      }

      .cls-40 {
        fill: #010103;
      }

      .cls-7 {
        stroke: red;
      }

      .cls-41 {
        fill: #f5b93e;
      }

      .cls-42 {
        fill: #e0dcd3;
      }

      .cls-8 {
        stroke: #493930;
      }

      .cls-43 {
        fill: #bcb3ad;
      }
    </style>
  </defs>
  <!-- Generator: Adobe Illustrator 28.6.0, SVG Export Plug-In . SVG Version: 1.2.0 Build 709)  -->
  <g>
    <g id="svg8">
      <g>
        <path class="cls-1" d="M711.9,490.2c0,4.7,1.5,9,3.9,12.2v34.5c-2.4,3.2-3.9,7.5-3.9,12.2,0,10,6.7,18.2,14.9,18.2s14.9-8.1,14.9-18.2-1.5-9-3.9-12.2v-34.5c2.4-3.2,3.9-7.5,3.9-12.2,0-10-6.7-18.2-14.9-18.2s-14.9,8.1-14.9,18.2Z"/>
        <line class="cls-5" x1="712.1" y1="488" x2="741.7" y2="488"/>
        <line class="cls-7" x1="712.1" y1="551.2" x2="741.7" y2="551.2"/>
        <line class="cls-7" x1="715.7" y1="532.6" x2="737.9" y2="532.6"/>
        <line class="cls-6" x1="715.6" y1="526.3" x2="737.9" y2="526.3"/>
        <line class="cls-6" x1="715.6" y1="515.4" x2="737.9" y2="515.4"/>
        <line class="cls-3" x1="726.7" y1="567.3" x2="726.7" y2="639.5"/>
        <line class="cls-3" x1="726.7" y1="399.8" x2="726.7" y2="472"/>
      </g>
      <g>
        <path class="cls-1" d="M745.1,490c0,4.7,1.5,9,3.9,12.2v34.5c-2.4,3.2-3.9,7.5-3.9,12.2,0,10,6.7,18.2,14.9,18.2s14.9-8.1,14.9-18.2-1.5-9-3.9-12.2v-34.5c2.4-3.2,3.9-7.5,3.9-12.2,0-10-6.7-18.2-14.9-18.2s-14.9,8.1-14.9,18.2Z"/>
        <line class="cls-5" x1="745.3" y1="487.8" x2="775" y2="487.8"/>
        <line class="cls-7" x1="745.3" y1="551" x2="775" y2="551"/>
        <line class="cls-7" x1="749" y1="532.4" x2="771.2" y2="532.4"/>
        <line class="cls-6" x1="748.9" y1="526.1" x2="771.1" y2="526.1"/>
        <line class="cls-6" x1="748.9" y1="515.2" x2="771.1" y2="515.2"/>
        <line class="cls-3" x1="760" y1="567.1" x2="760" y2="639.3"/>
        <line class="cls-3" x1="760" y1="399.6" x2="760" y2="471.8"/>
      </g>
      <g>
        <path class="cls-38" d="M590,274.3H7.3c-4,0-7.3,3.2-7.3,7.3v719c0,4,3.2,7.3,7.3,7.3h17.6l34.2,34.2h365.2l34.1-34.1h131.6c4,0,7.3-3.2,7.3-7.3V281.7c0-4.2-3.3-7.4-7.3-7.4ZM28.3,448.7c-10,0-18.1-8.1-18.1-18.1s8.1-18.1,18.1-18.1,18.1,8.1,18.1,18.1-8.1,18.1-18.1,18.1ZM88.2,1030.5c-10,0-18.1-8.1-18.1-18.1s8.1-18.1,18.1-18.1,18.1,8.1,18.1,18.1-8.1,18.1-18.1,18.1ZM401.3,1030.5c-10,0-18.1-8.1-18.1-18.1s8.1-18.1,18.1-18.1,18.1,8.1,18.1,18.1-8.1,18.1-18.1,18.1ZM569.6,460.1c-10,0-18.1-8.1-18.1-18.1s8.1-18.1,18.1-18.1,18.1,8.1,18.1,18.1c0,10-8.1,18.1-18.1,18.1Z"/>
        <rect class="cls-15" x="55.9" y="240.9" width="101.7" height="143.5"/>
        <path class="cls-15" d="M141.5,400.6h-69.4c-3.9,0-7.1-3.2-7.1-7.1v-9.1h83.7v9.1c0,3.9-3.3,7.1-7.2,7.1Z"/>
        <path class="cls-30" d="M571.5,312.9h-21.4v-4.6c0-.8-.6-1.4-1.4-1.4h-20.7c-.8,0-1.4.6-1.4,1.4v4.6h-21.4c-1,0-1.7.8-1.7,1.7v65.1c0,1,.8,1.7,1.7,1.7h66.3c1,0,1.7-.8,1.7-1.7v-65.1c0-.9-.8-1.7-1.7-1.7Z"/>
        <circle class="cls-14" cx="538.3" cy="344.2" r="19.2"/>
        <g>
          <circle class="cls-30" cx="148.6" cy="492.9" r="35.2"/>
          <path class="cls-40" d="M129.6,468.4c-8.1,5.1-13.5,14.2-13.5,24.5s5.4,19.4,13.5,24.5v-49Z"/>
        </g>
        <g>
          <circle class="cls-30" cx="174.2" cy="591.9" r="35.2"/>
          <path class="cls-40" d="M166.8,561.7c-9.5,1.4-18.1,7.5-22.3,16.9s-2.9,19.9,2.4,27.9l19.9-44.8Z"/>
        </g>
        <rect class="cls-39" x="278.6" y="354.7" width="9.8" height="21.5"/>
        <rect class="cls-39" x="362.3" y="398.5" width="9.8" height="21.5"/>
        <rect class="cls-39" x="445.7" y="478.4" width="21.5" height="9.8"/>
        <rect class="cls-39" x="445.7" y="418.9" width="21.5" height="9.8"/>
        <rect class="cls-39" x="327.2" y="501.5" width="9.8" height="21.5"/>
        <rect class="cls-41" x="396.7" y="598.9" width="9.8" height="21.5"/>
        <rect class="cls-39" x="423.5" y="598.9" width="9.8" height="21.5"/>
        <rect class="cls-39" x="449.9" y="598.9" width="9.8" height="21.5"/>
        <rect class="cls-39" x="324.1" y="892.3" width="21.5" height="9.8"/>
        <rect class="cls-41" x="387.3" y="904.7" width="9.8" height="21.5"/>
        <path class="cls-20" d="M332.6,413.1h-28.4c-.8,0-1.5-.7-1.5-1.5v-11.6c0-.8.7-1.5,1.5-1.5h28.4c.8,0,1.5.7,1.5,1.5v11.6c0,.8-.7,1.5-1.5,1.5Z"/>
        <g>
          <path class="cls-42" d="M305,386.2v12.2h11.5v-12.2c0-.7-.6-1.2-1.2-1.2h-9c-.8,0-1.3.5-1.3,1.2Z"/>
          <path class="cls-42" d="M320.2,386.2v12.2h11.5v-12.2c0-.7-.6-1.2-1.2-1.2h-9c-.7,0-1.3.5-1.3,1.2Z"/>
        </g>
        <g>
          <rect class="cls-12" x="423.1" y="571.8" width="10.7" height="17.2"/>
          <rect class="cls-20" x="423.1" y="574.3" width="10.7" height="11.8"/>
        </g>
        <g>
          <rect class="cls-12" x="449.4" y="571.8" width="10.7" height="17.2"/>
          <rect class="cls-20" x="449.4" y="574.3" width="10.7" height="11.8"/>
        </g>
        <g>
          <rect class="cls-12" x="305.9" y="541.6" width="17.2" height="10.7"/>
          <rect class="cls-20" x="308.4" y="541.6" width="11.8" height="10.7"/>
        </g>
        <g>
          <rect class="cls-12" x="250.8" y="541.6" width="17.2" height="10.7"/>
          <rect class="cls-20" x="253.3" y="541.6" width="11.8" height="10.7"/>
        </g>
        <g>
          <rect class="cls-12" x="387.3" y="874.4" width="10.7" height="17.2"/>
          <rect class="cls-20" x="387.3" y="876.9" width="10.7" height="11.8"/>
        </g>
        <g>
          <rect class="cls-12" x="326.3" y="911.8" width="17.2" height="10.7"/>
          <rect class="cls-20" x="328.7" y="911.8" width="11.8" height="10.7"/>
        </g>
        <g>
          <rect class="cls-12" x="478" y="321.6" width="10.7" height="17.2"/>
          <rect class="cls-20" x="478" y="324.1" width="10.7" height="11.8"/>
        </g>
        <g>
          <rect class="cls-12" x="338.4" y="322.6" width="10.7" height="17.2"/>
          <rect class="cls-20" x="338.4" y="325.2" width="10.7" height="11.8"/>
        </g>
        <path class="cls-34" d="M450.4,468.6h-4.8c-2,0-3.7-1.7-3.7-3.7v-25.4c0-2,1.7-3.7,3.7-3.7h4.8c2,0,3.7,1.7,3.7,3.7v25.4c0,2.1-1.7,3.7-3.7,3.7Z"/>
        <g>
          <path class="cls-29" d="M381.5,708l11.7-11.7c1.1-1.1,1.1-2.9,0-4l-8.6-8.6c-1.1-1.1-2.9-1.1-4,0l-11.7,11.7c-1.1,1.1-1.1,2.9,0,4l8.6,8.6c1.1,1.1,2.9,1.1,4,0Z"/>
          <path class="cls-33" d="M381.6,706.9l10.5-10.5c1.1-1.1,1.1-2.9,0-4l-7.6-7.6c-1.1-1.1-2.9-1.1-4,0l-10.5,10.5c-1.1,1.1-1.1,2.9,0,4l7.6,7.6c1.1,1.1,2.9,1.1,4,0Z"/>
        </g>
        <rect class="cls-43" x="374.8" y="662.8" width="12.2" height="11"/>
        <rect class="cls-43" x="394.4" y="662.8" width="12.2" height="11"/>
        <rect class="cls-43" x="374.8" y="715.7" width="12.2" height="11"/>
        <rect class="cls-43" x="394.4" y="715.7" width="12.2" height="11"/>
        <path class="cls-16" d="M344.2,950.1h-15.2c-1.6,0-2.8-1.3-2.8-2.8v-5.3c0-1.6,1.3-2.8,2.8-2.8h15.2c1.6,0,2.8,1.3,2.8,2.8v5.3c.1,1.5-1.2,2.8-2.8,2.8Z"/>
        <g>
          <path class="cls-9" d="M31.2,309.2v-4.5h2.1v7.1h-1.5c-2.9-2.4-4.8-2.7-8.9-2.8v-2.5c3.4.2,5.6.7,8.3,2.7Z"/>
          <path class="cls-9" d="M27.8,313.2v4h-1.7v-4h1.7Z"/>
          <path class="cls-9" d="M24.9,318.9v2.2h5.9v-1.9h1.5c.2,1.1.5,1.8.9,2.6v1.8h-8.4v1.9h-2v-6.6h2.1Z"/>
          <path class="cls-9" d="M24.4,326.9c2.3,2.7,4.2,4.4,5.6,4.4s1.5-.5,1.5-1.4-.5-1.3-1-1.8l1.3-1.3c1.1,1,1.7,1.9,1.7,3.4s-1.3,3.4-3.3,3.4-3.8-1.7-5.4-3.3c0,.5.1,1.2.1,1.7v2.1h-2.1v-7.2h1.6Z"/>
          <path class="cls-9" d="M33.3,334.7v2.6l-4.8,1.1c-1.1.3-2.2.5-3.3.8h0c1.1.4,2.2.6,3.3.9l4.8,1.2v2.5l-10.4-3.2v-3l10.4-2.9Z"/>
          <path class="cls-9" d="M33.3,348.2v2.5h-10.4v-2.5h10.4Z"/>
          <path class="cls-9" d="M33.3,353.1v2.6l-5,2.6c-.7.4-1.5.7-2.4,1h0c1.1,0,2.6-.2,3.8-.2h3.5v2.4h-10.3v-2.6l5-2.6c.7-.4,1.5-.7,2.4-1h0c-1.2,0-2.6.2-3.8.2h-3.5v-2.4h10.3Z"/>
          <path class="cls-9" d="M33.3,363.8v3.7c0,2.3-.8,4.2-3.4,4.2s-3.6-1.9-3.6-4.1v-1.2h-3.5v-2.5h10.5ZM28.3,367.4c0,1.2.6,1.8,1.6,1.8s1.4-.7,1.4-1.9v-1h-3v1.1Z"/>
          <path class="cls-9" d="M27.8,373.3h5.5v2.5h-5.8c-2,0-2.7.6-2.7,1.7s.7,1.8,2.7,1.8h5.8v2.4h-5.5c-3.5,0-5.1-1.4-5.1-4.2s1.6-4.2,5.1-4.2Z"/>
          <path class="cls-9" d="M31.2,386.1v-2.8h2.1v8.1h-2.1v-2.8h-8.3v-2.5h8.3Z"/>
        </g>
        <g>
          <path class="cls-9" d="M588.7,322.7v3.8c0,2.2-.8,4.1-3.3,4.1s-2.5-.7-3-1.8l-4.1,2.3v-2.8l3.7-1.9v-1.2h-3.7v-2.5h10.4ZM583.9,326.4c0,1.2.5,1.8,1.5,1.8s1.3-.6,1.3-1.8v-1.1h-2.8v1.1Z"/>
          <path class="cls-9" d="M588.7,332.6v6.6h-2.1v-4.1h-2v3.5h-2.1v-3.5h-2.2v4.3h-2.1v-6.8h10.5Z"/>
          <path class="cls-9" d="M579.6,340.8l1.6,1.3c-.6.7-1,1.7-1,2.6s.4,1.4.9,1.4.8-.6,1.2-1.5l.6-1.3c.4-1.1,1.3-2.1,2.8-2.1s3.2,1.6,3.2,3.8-.5,2.5-1.3,3.4l-1.6-1.3c.5-.7.8-1.4.8-2.1s-.3-1.3-.8-1.3-.8.7-1.2,1.6l-.5,1.3c-.5,1.3-1.4,2.1-2.8,2.1s-3.3-1.5-3.3-4c-.1-1.5.3-2.8,1.4-3.9Z"/>
          <path class="cls-9" d="M588.7,350.3v6.6h-2.1v-4.1h-2v3.5h-2.1v-3.5h-2.2v4.3h-2.1v-6.8h10.5Z"/>
          <path class="cls-9" d="M586.6,361.2v-2.8h2.1v8.1h-2.1v-2.8h-8.3v-2.5h8.3Z"/>
        </g>
        <g>
          <path class="cls-9" d="M371.7,983.5v2.5h-10.4v-2.5h10.4Z"/>
          <path class="cls-9" d="M366.4,987.9c3.5,0,5.5,2.3,5.5,5s-.6,2.4-1.4,3.2l-1.5-1.3c.5-.5.7-1.1.7-1.8,0-1.4-1.2-2.5-3.2-2.5s-3.3,1-3.3,2.4.3,1.5.9,2l-1.5,1.3c-1-.9-1.5-2.1-1.5-3.4,0-2.7,1.8-4.9,5.3-4.9Z"/>
          <path class="cls-9" d="M362.6,996.6l1.6,1.3c-.6.7-1,1.7-1,2.6s.4,1.4.9,1.4.8-.6,1.2-1.5l.6-1.3c.4-1.1,1.3-2.1,2.8-2.1s3.2,1.6,3.2,3.8-.5,2.5-1.3,3.4l-1.6-1.3c.5-.7.8-1.4.8-2.1s-.3-1.3-.8-1.3-.8.7-1.2,1.6l-.5,1.3c-.5,1.3-1.4,2.1-2.8,2.1s-3.3-1.5-3.3-4c-.1-1.5.4-2.9,1.4-3.9Z"/>
          <path class="cls-9" d="M371.7,1006.1v3.7c0,2.3-.8,4.2-3.4,4.2s-3.6-1.9-3.6-4.1v-1.2h-3.5v-2.5h10.5ZM366.7,1009.7c0,1.2.6,1.8,1.6,1.8s1.4-.7,1.4-1.9v-1h-3v1.1Z"/>
        </g>
        <path class="cls-9" d="M388.7,935.4c-1.2,1-2,2.5-2,4.2,0,3,2.5,5.5,5.5,5.5s5.5-2.5,5.5-5.5-.8-3.2-2-4.2c-.4-.4-.5-1-.1-1.4s1-.5,1.4,0c1.6,1.4,2.7,3.5,2.7,5.8,0,4.1-3.4,7.5-7.5,7.5s-7.5-3.4-7.5-7.5,1.1-4.4,2.7-5.8c.4-.4,1.1-.3,1.4,0,.4.4.3,1-.1,1.4h0ZM393.2,939.6c0,.6-.4,1-1,1s-1-.4-1-1v-7c0-.6.4-1,1-1s1,.4,1,1v7Z"/>
        <polyline class="cls-8" points="36 466.8 42.7 466.8 105.3 529.4 116.1 529.4"/>
        <polyline class="cls-8" points="35.8 474.9 42.7 474.9 102.9 535 102.9 666.7 159.6 723.5 212.4 723.5 224.6 711.1 263.6 711.1"/>
        <polyline class="cls-8" points="33.4 502.3 44.7 502.3 86.9 544.5 86.9 667.5 156.7 737.3 268.4 737.3"/>
        <polyline class="cls-8" points="22.9 587.9 61.9 626.8 61.9 690.8 33.2 719.5"/>
        <line class="cls-4" x1="76.1" y1="669.6" x2="151.9" y2="745.4"/>
        <polyline class="cls-8" points="131.4 736.9 88.6 779.7 24.5 779.7"/>
        <polyline class="cls-8" points="131.4 747.5 91.3 787.6 26 787.6"/>
        <polyline class="cls-8" points="267.4 746 234.8 746 159.2 821.6 78.7 821.6 56 844.3 31.2 844.3"/>
        <polyline class="cls-8" points="249.5 755.1 249.5 801.5 179.7 871.3 30.5 871.3"/>
        <polyline class="cls-8" points="264.8 775 264.8 811.3 176.3 899.8 31.2 899.8"/>
        <polyline class="cls-8" points="273.6 774.8 273.6 814 158.8 928.8 24.5 928.8"/>
        <polyline class="cls-8" points="282.6 775.7 282.6 821.3 147.4 956.5 30.5 956.5"/>
        <polyline class="cls-8" points="291.1 779.7 291.1 829.2 134.7 985.5 30.5 985.5"/>
        <line class="cls-4" x1="328.8" y1="864.7" x2="292.2" y2="828.1"/>
        <polyline class="cls-8" points="331.1 881 306 855.8 280.1 855.8"/>
        <polyline class="cls-8" points="344.4 888.7 344.4 830 299.8 785.4 299.8 765.9"/>
        <polyline class="cls-8" points="278.5 1003.6 262.1 987.2 262.1 922.5 287.4 897.2"/>
        <polyline class="cls-8" points="308.2 774.3 308.2 785.2 361.8 838.7 401.5 838.7 506.9 944.1 506.9 973.2 518.6 985 563.7 985"/>
        <polyline class="cls-8" points="317.1 775.4 317.1 786.3 359.4 828.6 421.4 828.6 568.7 975.8"/>
        <polyline class="cls-8" points="327.2 775 368 815.8 433.5 815.8 574 956.2"/>
        <polyline class="cls-8" points="345.8 754.3 400.2 754.3 571.3 925.4"/>
        <polyline class="cls-8" points="347.1 746 407.3 746 573.5 912.3"/>
        <polyline class="cls-8" points="496 765.8 489.1 758.9 443.1 758.9"/>
        <polyline class="cls-8" points="347.1 702.4 358.2 702.4 367.1 711.2 377.8 711.2"/>
        <polyline class="cls-8" points="346.9 693.5 356.9 693.5 367.4 682.9 380.6 682.9"/>
        <polyline class="cls-8" points="325.4 670 341.9 653.5 411.8 653.5 566.8 808.6"/>
        <polyline class="cls-8" points="317 671.7 317 667.2 336.5 647.7 414.7 647.7 575.1 808"/>
        <polyline class="cls-8" points="308.3 671.7 308.3 663.3 328.5 643 418.5 643 574.9 799.4"/>
        <polyline class="cls-8" points="299.7 670.1 299.7 661.9 323.5 638.1 418.9 638.1 576.4 795.6"/>
        <polyline class="cls-8" points="291.1 669.6 291.1 657.7 316 632.8 420.1 632.8 580.5 793.2"/>
        <polyline class="cls-8" points="282.2 671.3 282.2 649.6 303.4 629.5 425.1 629.5 480.2 684.6 580.5 684.6"/>
        <polyline class="cls-8" points="273.6 669.4 273.6 646.1 297.3 624.2 426.8 624.2 458.1 655.5 579.1 655.5"/>
        <polyline class="cls-8" points="264.8 669 264.8 645 286.8 622.9 290.2 619.6"/>
        <polyline class="cls-8" points="221.2 687 221.2 658 289.5 589.7 315.4 589.7 322.4 596.6 372.2 596.6 399.6 569.2 426.8 569.2"/>
        <polyline class="cls-8" points="210.3 584.2 314.3 584.2 335.1 563.4 354.3 563.4"/>
        <polyline class="cls-8" points="286.7 513.6 286.7 524.3 277.7 533.3 260.3 533.3 247.6 520.7 247.6 511.5 247.6 486.4"/>
        <polyline class="cls-8" points="226.9 455.7 226.9 447.4 232.4 441.9 249.3 441.9"/>
        <polyline class="cls-8" points="191.2 433.4 237.4 433.4 258 412.8 258 391"/>
        <polyline class="cls-8" points="319.2 419.8 333 419.8 341.7 411.2 341.7 378.6 313.6 350.6 298 350.6 276 328.7"/>
        <polyline class="cls-8" points="285.9 325.2 299.7 339 311.3 339"/>
        <polyline class="cls-8" points="323.3 322.6 323.3 342.9 344.4 364.1 379.9 364.1 384.6 359.4 384.6 330.2"/>
        <path class="cls-8" d="M402.6,440.2v-48.4"/>
        <path class="cls-8" d="M418.1,391.7v22"/>
        <polyline class="cls-8" points="415.7 447.4 428.1 447.4 440 435.5"/>
        <polyline class="cls-8" points="415.5 461.1 428.4 461.1 440.6 473.3"/>
        <line class="cls-8" x1="416.1" y1="502.3" x2="439.6" y2="502.3"/>
        <line class="cls-8" x1="413.8" y1="516.4" x2="441.9" y2="516.4"/>
        <polyline class="cls-8" points="415.5 529.8 426.8 529.8 441.9 529.8"/>
        <line class="cls-8" x1="562.9" y1="392.6" x2="530.4" y2="425.1"/>
        <g>
          <path class="cls-20" d="M327.3,762.1h-64.2c-3.2,0-5.9-2.6-5.9-5.9v-64.2c0-3.2,2.6-5.9,5.9-5.9h64.2c3.2,0,5.9,2.6,5.9,5.9v64.2c0,3.3-2.6,5.9-5.9,5.9Z"/>
          <circle class="cls-2" cx="322.3" cy="750.3" r="4.8"/>
          <g>
            <path class="cls-42" d="M240.4,696.7h16.9v-5.9h-16.9c-.7,0-1.2.6-1.2,1.2v3.4c0,.7.5,1.3,1.2,1.3Z"/>
            <path class="cls-42" d="M240.4,705.3h16.9v-5.9h-16.9c-.7,0-1.2.6-1.2,1.2v3.4c0,.8.5,1.3,1.2,1.3Z"/>
            <path class="cls-42" d="M240.4,714h16.9v-5.9h-16.9c-.7,0-1.2.6-1.2,1.2v3.4c0,.8.5,1.3,1.2,1.3Z"/>
            <path class="cls-42" d="M240.4,722.7h16.9v-5.9h-16.9c-.7,0-1.2.6-1.2,1.2v3.4c0,.8.5,1.3,1.2,1.3Z"/>
            <path class="cls-42" d="M240.4,731.4h16.9v-5.9h-16.9c-.7,0-1.2.6-1.2,1.2v3.4c0,.8.5,1.3,1.2,1.3Z"/>
            <path class="cls-42" d="M240.4,740.1h16.9v-5.9h-16.9c-.7,0-1.2.6-1.2,1.2v3.4c0,.8.5,1.3,1.2,1.3Z"/>
            <path class="cls-42" d="M240.4,748.8h16.9v-5.9h-16.9c-.7,0-1.2.6-1.2,1.2v3.4c0,.8.5,1.3,1.2,1.3Z"/>
            <path class="cls-42" d="M240.4,757.5h16.9v-5.9h-16.9c-.7,0-1.2.6-1.2,1.2v3.4c0,.8.5,1.3,1.2,1.3Z"/>
          </g>
          <g>
            <path class="cls-42" d="M322.7,669.3v16.9h5.9v-16.9c0-.7-.6-1.2-1.2-1.2h-3.4c-.7,0-1.3.5-1.3,1.2Z"/>
            <path class="cls-42" d="M314,669.3v16.9h5.9v-16.9c0-.7-.6-1.2-1.2-1.2h-3.4c-.7,0-1.3.5-1.3,1.2Z"/>
            <path class="cls-42" d="M305.3,669.3v16.9h5.9v-16.9c0-.7-.6-1.2-1.2-1.2h-3.4c-.7,0-1.3.5-1.3,1.2Z"/>
            <path class="cls-42" d="M296.6,669.3v16.9h5.9v-16.9c0-.7-.6-1.2-1.2-1.2h-3.4c-.7,0-1.3.5-1.3,1.2Z"/>
            <path class="cls-42" d="M287.9,669.3v16.9h5.9v-16.9c0-.7-.6-1.2-1.2-1.2h-3.4c-.7,0-1.3.5-1.3,1.2Z"/>
            <path class="cls-42" d="M279.3,669.3v16.9h5.9v-16.9c0-.7-.6-1.2-1.2-1.2h-3.4c-.8,0-1.3.5-1.3,1.2Z"/>
            <path class="cls-42" d="M270.6,669.3v16.9h5.9v-16.9c0-.7-.6-1.2-1.2-1.2h-3.4c-.8,0-1.3.5-1.3,1.2Z"/>
            <path class="cls-42" d="M261.9,669.3v16.9h5.9v-16.9c0-.7-.6-1.2-1.2-1.2h-3.4c-.8,0-1.3.5-1.3,1.2Z"/>
          </g>
          <g>
            <path class="cls-42" d="M267.7,779v-16.9h-5.9v16.9c0,.7.6,1.2,1.2,1.2h3.4c.8,0,1.3-.5,1.3-1.2Z"/>
            <path class="cls-42" d="M276.4,779v-16.9h-5.9v16.9c0,.7.6,1.2,1.2,1.2h3.4c.8,0,1.3-.5,1.3-1.2Z"/>
            <path class="cls-42" d="M285.1,779v-16.9h-5.9v16.9c0,.7.6,1.2,1.2,1.2h3.4c.8,0,1.3-.5,1.3-1.2Z"/>
            <path class="cls-42" d="M293.8,779v-16.9h-5.9v16.9c0,.7.6,1.2,1.2,1.2h3.4c.8,0,1.3-.5,1.3-1.2Z"/>
            <path class="cls-42" d="M302.5,779v-16.9h-5.9v16.9c0,.7.6,1.2,1.2,1.2h3.4c.8,0,1.3-.5,1.3-1.2Z"/>
            <path class="cls-42" d="M311.2,779v-16.9h-5.9v16.9c0,.7.6,1.2,1.2,1.2h3.4c.8,0,1.3-.5,1.3-1.2Z"/>
            <path class="cls-42" d="M319.9,779v-16.9h-5.9v16.9c0,.7.6,1.2,1.2,1.2h3.4c.7,0,1.3-.5,1.3-1.2Z"/>
            <path class="cls-42" d="M328.6,779v-16.9h-5.9v16.9c0,.7.6,1.2,1.2,1.2h3.4c.7,0,1.3-.5,1.3-1.2Z"/>
          </g>
          <g>
            <path class="cls-42" d="M350.1,751.4h-16.9v5.9h16.9c.7,0,1.2-.6,1.2-1.2v-3.4c0-.8-.5-1.3-1.2-1.3Z"/>
            <path class="cls-42" d="M350.1,742.7h-16.9v5.9h16.9c.7,0,1.2-.6,1.2-1.2v-3.4c0-.8-.5-1.3-1.2-1.3Z"/>
            <path class="cls-42" d="M350.1,734h-16.9v5.9h16.9c.7,0,1.2-.6,1.2-1.2v-3.4c0-.8-.5-1.3-1.2-1.3Z"/>
            <path class="cls-42" d="M350.1,725.3h-16.9v5.9h16.9c.7,0,1.2-.6,1.2-1.2v-3.4c0-.8-.5-1.3-1.2-1.3Z"/>
            <path class="cls-42" d="M350.1,716.6h-16.9v5.9h16.9c.7,0,1.2-.6,1.2-1.2v-3.4c0-.8-.5-1.3-1.2-1.3Z"/>
            <path class="cls-42" d="M350.1,707.9h-16.9v5.9h16.9c.7,0,1.2-.6,1.2-1.2v-3.4c0-.8-.5-1.3-1.2-1.3Z"/>
            <path class="cls-42" d="M350.1,699.2h-16.9v5.9h16.9c.7,0,1.2-.6,1.2-1.2v-3.4c0-.7-.5-1.3-1.2-1.3Z"/>
            <path class="cls-42" d="M350.1,690.5h-16.9v5.9h16.9c.7,0,1.2-.6,1.2-1.2v-3.4c0-.7-.5-1.3-1.2-1.3Z"/>
          </g>
        </g>
        <path class="cls-9" d="M247,849.4v7.2c0,1.3,0,2.5-.1,3.5,0,.8-.2,1.6-.4,2.4-.2.7-.5,1.3-.8,1.9-.5.7-1,1.4-1.6,2-.6.7-1.5,1.2-2.5,1.6-1.1.3-2.3.5-3.7.5h-6v-7.5h3.7c.5,0,.9,0,1.4-.2.3,0,.6-.3.9-.6.2-.3.4-.7.5-1.1.1-.6.2-1.2.2-1.7v-7.9h8.4ZM232.6,872.7h95v3.1h-95v-3.1ZM247,837.4v7.4h-8.5v-7.4h8.5ZM267.3,836.8c1.1,0,2.3,0,3.4.3,1,.2,2.1.5,3.1.9s1.9.9,2.7,1.4c.9.6,1.7,1.2,2.4,2,.7.7,1.4,1.6,1.9,2.4.6.9,1,1.8,1.4,2.7.4,1,.7,2,.8,3.1.2,1.1.3,2.3.3,3.4s-.1,2.2-.3,3.3c-.2,1-.5,2-.8,3-.4.9-.8,1.9-1.4,2.7-.6.9-1.2,1.7-1.9,2.4-.7.7-1.5,1.4-2.4,2-.8.6-1.7,1-2.7,1.4s-2,.7-3,.9c-1.1.2-2.2.3-3.3.3s-2.3,0-3.4-.3c-1-.2-2.1-.5-3.1-.8-1-.4-1.9-.8-2.7-1.4-1.7-1.1-3.2-2.6-4.4-4.4-.6-.9-1-1.8-1.4-2.7-.4-1-.7-2-.9-3-.4-2.2-.4-4.5,0-6.7.2-1,.5-2.1.9-3,.4-1,.8-1.9,1.4-2.7.6-.9,1.2-1.7,2-2.5.7-.8,1.5-1.4,2.4-2,.8-.6,1.7-1.1,2.7-1.4,1-.4,2-.7,3-.9,1.1-.3,2.2-.4,3.3-.4h0ZM267.3,844c-1,0-2,.2-3,.6-.9.4-1.6,1-2.2,1.8s-1.1,1.8-1.4,2.8c-.3,1.1-.5,2.3-.5,3.7s.1,2.5.5,3.8c.3,1,.8,2,1.4,2.9.6.8,1.4,1.4,2.3,1.8.9.4,1.9.6,3,.6s2-.2,3-.6c.9-.4,1.6-1,2.2-1.8.6-.9,1.1-1.8,1.4-2.8.3-1.1.5-2.4.5-3.8s-.1-2.5-.5-3.7c-.3-1-.8-2-1.4-2.8s-1.4-1.4-2.3-1.8c-.9-.5-1.9-.7-3-.7h0ZM286.8,837.4h8.5v7.7c0,1.6.3,2.8.9,3.6s1.6,1.2,2.8,1.2,2.3-.4,2.9-1.3c.6-.8,1-2.1,1-3.8v-7.4h8.4v5.4c0,1.3-.1,2.5-.2,3.6-.1.9-.2,1.8-.5,2.7s-.6,1.7-1.1,2.5c-.6,1-1.3,1.9-2,2.7-.4.5-.9.9-1.5,1.3-.6.4-1.2.7-1.9.9-.8.3-1.6.4-2.4.5-.9,0-1.9.2-2.8.2s-1.8,0-2.7-.2c-.8,0-1.5-.3-2.3-.5-.7-.2-1.3-.5-1.9-.9-.5-.3-1-.7-1.5-1.2-.8-.8-1.5-1.7-2.1-2.6-.5-.7-.9-1.5-1.2-2.4-.3-.9-.4-1.8-.5-2.7-.1-1.1-.2-2.3-.2-3.4l.3-5.9ZM306.1,861v7.4h-14.2v-7.4h14.2ZM310.1,830.6h56.8v2.9h-56.8v-2.9ZM313.7,850.9h18.3v7.3h-18.3v-7.3ZM343.7,837.4v7.4h-8.5v-7.4h8.5ZM343.7,849.4v19.1h-8.5v-19.1h8.5ZM368.2,837.4v7.4h-19.9v-7.4h19.9ZM349.7,849.4h8.4v7.7c0,.7,0,1.3.2,2,.1.5.3.9.5,1.2.2.2.6.4,1.1.6.6,0,1.2.2,1.8.2h5.5v7.4h-7.9c-.8,0-1.6,0-2.3-.2-.7,0-1.4-.3-2-.5s-1.1-.5-1.7-.8c-.5-.3-.9-.7-1.3-1.1-.4-.4-.7-.9-1-1.5s-.5-1.2-.7-1.9c-.2-.8-.3-1.5-.4-2.3-.1-.9-.1-1.8-.1-2.7v-8.1Z"/>
        <rect class="cls-39" x="203.1" y="683.7" width="21.5" height="9.8"/>
        <rect class="cls-39" x="349.4" y="561.6" width="9.8" height="21.5"/>
        <g>
          <path class="cls-20" d="M316,504.3h-45.5c-1.4,0-2.5-1.1-2.5-2.5v-34.3c0-1.4,1.1-2.5,2.5-2.5h45.5c1.4,0,2.5,1.1,2.5,2.5v34.3c0,1.4-1.1,2.5-2.5,2.5Z"/>
          <circle class="cls-2" cx="272.2" cy="496.3" r="2.7"/>
          <g>
            <path class="cls-42" d="M276.4,516.5v-12.2h-6.1v12.2c0,.7.6,1.2,1.2,1.2h3.6c.7,0,1.3-.5,1.3-1.2Z"/>
            <path class="cls-42" d="M289.7,516.5v-12.2h-6.1v12.2c0,.7.6,1.2,1.2,1.2h3.6c.7,0,1.3-.5,1.3-1.2Z"/>
            <path class="cls-42" d="M303,516.5v-12.2h-6.1v12.2c0,.7.6,1.2,1.2,1.2h3.6c.7,0,1.3-.5,1.3-1.2Z"/>
            <path class="cls-42" d="M316.3,516.5v-12.2h-6.1v12.2c0,.7.6,1.2,1.2,1.2h3.6c.7,0,1.3-.5,1.3-1.2Z"/>
          </g>
          <g>
            <path class="cls-42" d="M310.2,452.8v12.2h6.1v-12.2c0-.7-.6-1.2-1.2-1.2h-3.6c-.8,0-1.3.5-1.3,1.2Z"/>
            <path class="cls-42" d="M296.9,452.8v12.2h6.1v-12.2c0-.7-.6-1.2-1.2-1.2h-3.6c-.8,0-1.3.5-1.3,1.2Z"/>
            <path class="cls-42" d="M283.6,452.8v12.2h6.1v-12.2c0-.7-.6-1.2-1.2-1.2h-3.6c-.7,0-1.3.5-1.3,1.2Z"/>
            <path class="cls-42" d="M270.3,452.8v12.2h6.1v-12.2c0-.7-.6-1.2-1.2-1.2h-3.6c-.7,0-1.3.5-1.3,1.2Z"/>
          </g>
        </g>
        <g>
          <g>
            <path class="cls-42" d="M232.4,492.9v-12.2h-9.6v12.2c0,.7.6,1.2,1.2,1.2h7.1c.7,0,1.3-.6,1.3-1.2Z"/>
            <path class="cls-42" d="M252,492.9v-12.2h-9.6v12.2c0,.7.6,1.2,1.2,1.2h7.1c.8,0,1.3-.6,1.3-1.2Z"/>
          </g>
          <g>
            <path class="cls-42" d="M223.9,452.1v12.2h6.1v-12.2c0-.7-.6-1.2-1.2-1.2h-3.6c-.8-.1-1.3.5-1.3,1.2Z"/>
            <path class="cls-42" d="M234.4,452.1v12.2h6.1v-12.2c0-.7-.6-1.2-1.2-1.2h-3.6c-.8-.1-1.3.5-1.3,1.2Z"/>
            <path class="cls-42" d="M244.9,452.1v12.2h6.1v-12.2c0-.7-.6-1.2-1.2-1.2h-3.6c-.8-.1-1.3.5-1.3,1.2Z"/>
          </g>
          <path class="cls-20" d="M251.9,480.6h-29c-.4,0-.7-.3-.7-.7v-14.9c0-.4.3-.7.7-.7h29c.4,0,.7.3.7.7v14.8c0,.5-.3.8-.7.8Z"/>
        </g>
        <rect class="cls-39" x="227.8" y="506.5" width="21.5" height="9.8"/>
        <g>
          <rect class="cls-20" x="365.5" y="442" width="34.4" height="107"/>
          <g>
            <path class="cls-42" d="M348.6,450.3h16.9v-5.9h-16.9c-.7,0-1.2.6-1.2,1.2v3.4c0,.8.5,1.3,1.2,1.3Z"/>
            <path class="cls-42" d="M348.6,464.1h16.9v-5.9h-16.9c-.7,0-1.2.6-1.2,1.2v3.4c0,.7.5,1.3,1.2,1.3Z"/>
            <path class="cls-42" d="M348.6,477.8h16.9v-5.9h-16.9c-.7,0-1.2.6-1.2,1.2v3.4c0,.7.5,1.3,1.2,1.3Z"/>
            <path class="cls-42" d="M348.6,491.5h16.9v-5.9h-16.9c-.7,0-1.2.6-1.2,1.2v3.4c0,.8.5,1.3,1.2,1.3Z"/>
            <path class="cls-42" d="M348.6,505.3h16.9v-5.9h-16.9c-.7,0-1.2.6-1.2,1.2v3.4c0,.7.5,1.3,1.2,1.3Z"/>
            <path class="cls-42" d="M348.6,519h16.9v-5.9h-16.9c-.7,0-1.2.6-1.2,1.2v3.4c0,.7.5,1.3,1.2,1.3Z"/>
            <path class="cls-42" d="M348.6,532.7h16.9v-5.9h-16.9c-.7,0-1.2.6-1.2,1.2v3.4c0,.8.5,1.3,1.2,1.3Z"/>
            <path class="cls-42" d="M348.6,546.4h16.9v-5.9h-16.9c-.7,0-1.2.6-1.2,1.2v3.4c0,.8.5,1.3,1.2,1.3Z"/>
          </g>
          <g>
            <path class="cls-42" d="M416.8,540.6h-16.9v5.9h16.9c.7,0,1.2-.6,1.2-1.2v-3.4c0-.8-.6-1.3-1.2-1.3Z"/>
            <path class="cls-42" d="M416.8,526.8h-16.9v5.9h16.9c.7,0,1.2-.6,1.2-1.2v-3.4c0-.7-.6-1.3-1.2-1.3Z"/>
            <path class="cls-42" d="M416.8,513.1h-16.9v5.9h16.9c.7,0,1.2-.6,1.2-1.2v-3.4c0-.7-.6-1.3-1.2-1.3Z"/>
            <path class="cls-42" d="M416.8,499.4h-16.9v5.9h16.9c.7,0,1.2-.6,1.2-1.2v-3.4c0-.8-.6-1.3-1.2-1.3Z"/>
            <path class="cls-42" d="M416.8,485.7h-16.9v5.9h16.9c.7,0,1.2-.6,1.2-1.2v-3.4c0-.8-.6-1.3-1.2-1.3Z"/>
            <path class="cls-42" d="M416.8,471.9h-16.9v5.9h16.9c.7,0,1.2-.6,1.2-1.2v-3.4c0-.7-.6-1.3-1.2-1.3Z"/>
            <path class="cls-42" d="M416.8,458.2h-16.9v5.9h16.9c.7,0,1.2-.6,1.2-1.2v-3.4c0-.7-.6-1.3-1.2-1.3Z"/>
            <path class="cls-42" d="M416.8,444.5h-16.9v5.9h16.9c.7,0,1.2-.6,1.2-1.2v-3.4c0-.8-.6-1.3-1.2-1.3Z"/>
          </g>
          <circle class="cls-2" cx="391.8" cy="539.1" r="4.9"/>
        </g>
        <rect class="cls-39" x="438.7" y="494.5" width="21.5" height="9.8"/>
        <g>
          <rect class="cls-12" x="440.9" y="511.2" width="17.2" height="10.7"/>
          <rect class="cls-20" x="443.7" y="511.2" width="11.8" height="10.7"/>
        </g>
        <g>
          <rect class="cls-12" x="440.9" y="528.8" width="17.2" height="10.7"/>
          <rect class="cls-20" x="443.7" y="528.8" width="11.8" height="10.7"/>
        </g>
        <g>
          <rect class="cls-12" x="397.2" y="376.8" width="10.7" height="17.2"/>
          <rect class="cls-20" x="397.2" y="379.3" width="10.7" height="11.8"/>
        </g>
        <g>
          <rect class="cls-12" x="412.8" y="376.6" width="10.7" height="17.2"/>
          <rect class="cls-20" x="412.8" y="379.1" width="10.7" height="11.8"/>
        </g>
        <path class="cls-42" d="M323.3,425.3v-12.2h-11.5v12.2c0,.7.6,1.2,1.2,1.2h9c.7,0,1.3-.5,1.3-1.2Z"/>
        <g>
          <rect class="cls-11" x="274.7" y="294.8" width="51.5" height="35.1"/>
          <rect class="cls-18" x="287.1" y="294.8" width="26.7" height="35.1"/>
        </g>
        <g>
          <path class="cls-30" d="M370,260.7h87.6c2.7,1.4,4.4,4.2,4.4,7.3v70.1c0,1-.8,1.8-1.8,1.8h-92.8c-1,0-1.8-.8-1.8-1.8v-70.1c0-3.1,1.7-5.9,4.4-7.3Z"/>
          <g>
            <path class="cls-28" d="M444.8,334h0c0-1.3-1.1-2.4-2.4-2.4h-9.9c-.8,0-1.5-.7-1.5-1.5v-2.1c0-.8.7-1.5,1.5-1.5h9.9c1.3,0,2.4-1.1,2.4-2.4h0c0-1.3-1.1-2.4-2.4-2.4h-14c-1.3,0-2.4,1.1-2.4,2.4v10c0,1.3,1.1,2.4,2.4,2.4h14c1.3,0,2.4-1.1,2.4-2.5Z"/>
            <path class="cls-28" d="M382.9,324h0c0,1.3,1.1,2.4,2.4,2.4h9.9c.8,0,1.5.7,1.5,1.5v2.1c0,.8-.7,1.5-1.5,1.5h-9.9c-1.3,0-2.4,1.1-2.4,2.4h0c0,1.3,1.1,2.4,2.4,2.4h14c1.3,0,2.4-1.1,2.4-2.4v-10c0-1.3-1.1-2.4-2.4-2.4h-14c-1.3.1-2.4,1.2-2.4,2.5Z"/>
          </g>
        </g>
        <g>
          <path class="cls-20" d="M266.5,378.6h-67.1c-.7,0-1.2-.5-1.2-1.2v-34.6c0-.7.5-1.2,1.2-1.2h67.1c.7,0,1.2.5,1.2,1.2v34.6c-.1.7-.6,1.2-1.2,1.2Z"/>
          <g>
            <path class="cls-42" d="M210.4,395.5v-16.9h-5.9v16.9c0,.7.6,1.2,1.2,1.2h3.4c.8,0,1.3-.5,1.3-1.2Z"/>
            <path class="cls-42" d="M235.8,395.5v-16.9h-5.9v16.9c0,.7.6,1.2,1.2,1.2h3.4c.8,0,1.3-.5,1.3-1.2Z"/>
            <path class="cls-42" d="M261.2,395.5v-16.9h-5.9v16.9c0,.7.6,1.2,1.2,1.2h3.4c.7,0,1.3-.5,1.3-1.2Z"/>
          </g>
          <path class="cls-42" d="M214.1,316.1v25.6h34.3v-25.6c0-.7-.6-1.2-1.2-1.2h-31.8c-.7,0-1.3.5-1.3,1.2Z"/>
        </g>
        <rect class="cls-20" x="150.4" y="419.8" width="48.4" height="27.1"/>
        <g>
          <rect class="cls-30" x="16" y="463" width="20" height="20"/>
          <circle class="cls-27" cx="26" cy="473" r="7.4"/>
          <rect class="cls-30" x="16" y="491.6" width="20" height="20"/>
          <circle class="cls-27" cx="26" cy="501.6" r="7.4"/>
          <rect class="cls-30" x="16" y="520.3" width="20" height="20"/>
          <circle class="cls-27" cx="26" cy="530.3" r="7.4" transform="translate(-5.4 .3) rotate(-.6)"/>
          <rect class="cls-30" x="16" y="549" width="20" height="20"/>
          <circle class="cls-27" cx="26" cy="559" r="7.4" transform="translate(-5.7 .3) rotate(-.6)"/>
        </g>
        <g>
          <rect class="cls-17" x="9.3" y="575.4" width="33.4" height="240.9"/>
          <rect x="16.2" y="578.1" width="19.6" height="19.6"/>
          <rect x="16.2" y="608.6" width="19.6" height="19.6"/>
          <rect x="16.2" y="639.1" width="19.6" height="19.6"/>
          <rect x="16.2" y="669.6" width="19.6" height="19.6"/>
          <rect x="16.2" y="700.1" width="19.6" height="19.6"/>
          <rect x="16.2" y="730.6" width="19.6" height="19.6"/>
          <rect x="16.2" y="761.1" width="19.6" height="19.6"/>
          <rect x="16.2" y="791.6" width="19.6" height="19.6"/>
        </g>
        <g>
          <rect class="cls-17" x="9.3" y="821.9" width="33.4" height="178.8"/>
          <g>
            <rect x="16.2" y="825.2" width="19.6" height="19.6"/>
            <rect x="16.2" y="855.7" width="19.6" height="19.6"/>
            <rect x="16.2" y="886.2" width="19.6" height="19.6"/>
            <rect x="16.2" y="916.7" width="19.6" height="19.6"/>
            <rect x="16.2" y="947.3" width="19.6" height="19.6"/>
            <rect x="16.2" y="977.8" width="19.6" height="19.6"/>
          </g>
        </g>
        <g>
          <path class="cls-9" d="M50.3,613.6h2.5v10.4h-2.5v-10.4Z"/>
          <path class="cls-9" d="M54.7,618.7c0-3.4,1.9-5.4,4.8-5.4s4.8,2,4.8,5.4-1.9,5.4-4.8,5.4-4.8-2-4.8-5.4ZM61.7,618.7c0-2-.8-3.2-2.2-3.2s-2.2,1.2-2.2,3.2.9,3.3,2.2,3.3,2.2-1.3,2.2-3.3Z"/>
          <path class="cls-9" d="M66.2,613.6h3.8c2.2,0,4.1.8,4.1,3.3s-.7,2.5-1.8,3l2.3,4.1h-2.8l-1.9-3.7h-1.2v3.7h-2.5v-10.4ZM69.9,618.3c1.2,0,1.8-.5,1.8-1.5s-.6-1.3-1.8-1.3h-1.1v2.8h1.1Z"/>
          <path class="cls-9" d="M76.1,613.6h6.6v2.1h-4.1v2h3.5v2.1h-3.5v2.2h4.3v2.1h-6.8v-10.5Z"/>
          <path class="cls-9" d="M84.9,613.6h6.7v2.1h-4.2v2.3h3.6v2.1h-3.6v4h-2.5v-10.5Z"/>
        </g>
        <g>
          <path class="cls-9" d="M51.6,644.1h3.8c2.2,0,4.1.8,4.1,3.3s-.7,2.5-1.8,3l2.3,4.1h-2.8l-1.9-3.7h-1.2v3.7h-2.5s0-10.4,0-10.4ZM55.2,648.9c1.2,0,1.8-.5,1.8-1.5s-.6-1.3-1.8-1.3h-1.1v2.8h1.1Z"/>
          <path class="cls-9" d="M61.5,644.1h6.5v2.1h-4.1v2h3.5v2.1h-3.5v2.2h4.3v2.1h-6.8v-10.5h0Z"/>
          <path class="cls-9" d="M69.6,653.2l1.3-1.6c.7.6,1.7,1,2.6,1s1.4-.4,1.4-.9-.6-.8-1.5-1.2l-1.3-.6c-1.1-.4-2.1-1.3-2.1-2.8s1.6-3.2,3.8-3.2,2.5.5,3.4,1.3l-1.3,1.6c-.7-.5-1.4-.8-2.1-.8s-1.3.3-1.3.8.7.8,1.6,1.2l1.3.5c1.3.5,2.1,1.4,2.1,2.8s-1.5,3.3-4,3.3c-1.4.1-2.8-.4-3.9-1.4Z"/>
          <path class="cls-9" d="M79.2,644.1h6.6v2.1h-4.1v2h3.5v2.1h-3.5v2.2h4.3v2.1h-6.8v-10.5Z"/>
          <path class="cls-9" d="M90,646.1h-2.8v-2.1h8.1v2.1h-2.8v8.3h-2.5v-8.3Z"/>
        </g>
        <g>
          <path class="cls-9" d="M51.9,683.8l1.1-1.6c.6.6,1.4,1,2.2,1s1.6-.4,1.6-1.2-.5-1.4-2.7-1.4v-1.8c1.8,0,2.3-.5,2.3-1.4s-.4-1.1-1.2-1.1-1.2.3-1.9.9l-1.2-1.5c.9-.8,2-1.3,3.2-1.3,2.2,0,3.6,1,3.6,2.9s-.6,1.8-1.7,2.3h0c1.2.4,2,1.3,2,2.6,0,2-1.8,3-3.8,3s-2.7-.6-3.5-1.4Z"/>
          <path class="cls-9" d="M61.1,683.7c0-.9.6-1.5,1.5-1.5s1.5.7,1.5,1.5-.6,1.5-1.5,1.5-1.5-.7-1.5-1.5Z"/>
          <path class="cls-9" d="M65.4,683.8l1.1-1.6c.6.6,1.4,1,2.2,1s1.6-.4,1.6-1.2-.5-1.4-2.7-1.4v-1.8c1.8,0,2.3-.5,2.3-1.4s-.4-1.1-1.2-1.1-1.2.3-1.9.9l-1.2-1.5c.9-.8,2-1.3,3.2-1.3,2.2,0,3.6,1,3.6,2.9s-.6,1.8-1.7,2.3h0c1.2.4,2,1.3,2,2.6,0,2-1.8,3-3.8,3s-2.8-.6-3.5-1.4Z"/>
          <path class="cls-9" d="M73.4,674.6h2.6l1.1,4.8c.3,1.1.5,2.2.8,3.3h0c.3-1.1.5-2.2.8-3.3l1.2-4.8h2.5l-3,10.4h-3l-3.1-10.4Z"/>
        </g>
        <g>
          <path class="cls-9" d="M53.2,714.3l1.1-1.6c.6.6,1.3,1,2.1,1s1.6-.6,1.6-1.6-.6-1.6-1.5-1.6-.9,0-1.5.5l-1.1-.7.3-5.2h5.8v2.1h-3.7v1.8c.3,0,.6-.2,1-.2,1.8,0,3.2,1,3.2,3.3s-1.8,3.7-3.8,3.7c-1.6,0-2.7-.7-3.5-1.5Z"/>
          <path class="cls-9" d="M61.2,705.1h2.6l1.1,4.8c.3,1.1.5,2.2.8,3.3h0c.3-1.1.5-2.2.8-3.3l1.2-4.8h2.5l-3.2,10.4h-3l-2.9-10.4Z"/>
        </g>
        <g>
          <path class="cls-9" d="M54.8,740.9c0-3.5,2.3-5.5,5.1-5.5s2.6.6,3.3,1.4l-1.3,1.5c-.5-.5-1.1-.7-1.9-.7-1.5,0-2.7,1.2-2.7,3.2s.9,3.3,2.9,3.3.8,0,1-.3v-1.7h-1.7v-2h3.9v4.9c-.7.7-2,1.3-3.5,1.3-2.8-.1-5.1-1.9-5.1-5.4Z"/>
          <path class="cls-9" d="M65.5,735.6h2.6l2.6,5c.4.7.7,1.5,1,2.4h0c0-1.1-.3-2.6-.3-3.8v-3.5h2.4v10.3h-2.6l-2.6-5c-.4-.7-.7-1.5-1-2.4h0c0,1.2.3,2.6.3,3.8v3.5h-2.4v-10.3Z"/>
          <path class="cls-9" d="M76.2,735.6h3c3.2,0,5.3,1.6,5.3,5.2s-2.1,5.2-5.1,5.2h-3.1v-10.4h-.1ZM79,744c1.7,0,2.9-.8,2.9-3.2s-1.2-3.2-2.9-3.2h-.4v6.4h.4Z"/>
        </g>
        <g>
          <path class="cls-9" d="M56,771.4c0-3.5,2.3-5.5,5.1-5.5s2.6.6,3.3,1.4l-1.3,1.5c-.5-.5-1.1-.7-1.9-.7-1.5,0-2.7,1.2-2.7,3.2s.9,3.3,2.9,3.3.8,0,1-.3v-1.7h-1.7v-2h3.9v4.9c-.7.7-2,1.3-3.5,1.3-2.8-.1-5.1-1.9-5.1-5.4Z"/>
          <path class="cls-9" d="M66.7,766.1h2.6l2.6,5c.4.7.7,1.5,1,2.4h.1c0-1.1-.3-2.6-.3-3.8v-3.5h2.3v10.4h-2.6l-2.6-5c-.4-.7-.7-1.5-1-2.4h0c0,1.2.3,2.6.3,3.8v3.5h-2.4v-10.4h0Z"/>
          <path class="cls-9" d="M77.4,766.1h3c3.2,0,5.3,1.6,5.3,5.2s-2.1,5.2-5.1,5.2h-3.1v-10.4h-.1ZM80.3,774.5c1.7,0,2.9-.8,2.9-3.2s-1.2-3.2-2.9-3.2h-.4v6.4h.4Z"/>
        </g>
        <g>
          <path class="cls-9" d="M56.4,796.6h2.6l1.1,4.8c.3,1.1.5,2.2.8,3.3h.1c.3-1.1.5-2.2.8-3.3l1.2-4.8h2.5l-3.1,10.4h-3l-3-10.4Z"/>
          <path class="cls-9" d="M66.7,796.6h2.5v10.4h-2.5v-10.4Z"/>
          <path class="cls-9" d="M71.6,796.6h2.6l2.6,5c.4.7.7,1.5,1,2.4h0c0-1.1-.3-2.6-.3-3.8v-3.5h2.4v10.3h-2.6l-2.6-5c-.4-.7-.7-1.5-1-2.4h0c0,1.2.3,2.6.3,3.8v3.5h-2.4v-10.3Z"/>
        </g>
        <g>
          <path class="cls-9" d="M60.9,830.2h3l3.2,10.4h-2.6l-.6-2.4h-3.1l-.6,2.4h-2.5l3.2-10.4ZM61.3,836.3h2.1l-.2-.9c-.3-1-.5-2.3-.8-3.3h0c-.3,1.1-.5,2.3-.8,3.3l-.2.9Z"/>
          <path class="cls-9" d="M67.5,835.4c0-3.6,1.5-5.4,3.7-5.4s3.7,1.8,3.7,5.4-1.5,5.4-3.7,5.4-3.7-1.9-3.7-5.4ZM72.6,835.4c0-2.8-.6-3.5-1.3-3.5s-1.3.6-1.3,3.5.6,3.5,1.3,3.5,1.3-.7,1.3-3.5Z"/>
        </g>
        <g>
          <path class="cls-9" d="M62.1,860.7h3l3.2,10.4h-2.6l-.6-2.4h-3.1l-.6,2.4h-2.5l3.2-10.4ZM62.5,866.8h2.1l-.2-.9c-.3-1-.5-2.3-.8-3.3h0c-.3,1.1-.5,2.3-.8,3.3l-.2.9Z"/>
          <path class="cls-9" d="M69.3,869.1h2.2v-5.9h-1.9v-1.5c1.1-.2,1.8-.5,2.6-.9h1.8v8.4h1.9v2h-6.6v-2.1Z"/>
        </g>
        <g>
          <path class="cls-9" d="M63.3,891.2h3l3.2,10.4h-2.6l-.6-2.4h-3.1l-.6,2.4h-2.5l3.2-10.4ZM63.7,897.3h2.1l-.2-.9c-.3-1-.5-2.3-.8-3.3h0c-.3,1.1-.5,2.3-.8,3.3l-.2.9Z"/>
          <path class="cls-9" d="M70,900.1c2.7-2.3,4.4-4.2,4.4-5.6s-.5-1.5-1.4-1.5-1.3.5-1.8,1l-1.3-1.3c1-1.1,1.9-1.7,3.4-1.7s3.4,1.3,3.4,3.3-1.7,3.8-3.3,5.4c.5,0,1.2,0,1.7,0h2.1v2.1h-7.2v-1.6Z"/>
        </g>
        <g>
          <path class="cls-9" d="M64.6,921.7h3l3.2,10.4h-2.6l-.6-2.4h-3.1l-.6,2.4h-2.5l3.2-10.4ZM65,927.8h2.1l-.2-.9c-.3-1-.5-2.3-.8-3.3h0c-.3,1.1-.5,2.3-.8,3.3l-.2.9Z"/>
          <path class="cls-9" d="M71,930.9l1.1-1.6c.6.6,1.4,1,2.2,1s1.6-.4,1.6-1.2-.5-1.4-2.7-1.4v-1.7c1.8,0,2.3-.5,2.3-1.4s-.4-1.1-1.2-1.1-1.2.3-1.9.9l-1.2-1.5c.9-.8,2-1.3,3.2-1.3,2.2,0,3.6,1,3.6,2.9s-.6,1.8-1.7,2.3h0c1.2.4,2,1.3,2,2.6,0,2-1.8,3-3.8,3s-2.7-.6-3.5-1.5Z"/>
        </g>
        <g>
          <path class="cls-9" d="M65.8,952.3h3l3.2,10.4h-2.6l-.6-2.4h-3.1l-.6,2.4h-2.5l3.2-10.4ZM66.2,958.3h2.1l-.2-.9c-.3-1-.5-2.3-.8-3.3h0c-.3,1.1-.5,2.3-.8,3.3l-.2.9Z"/>
          <path class="cls-9" d="M76.6,960.1h-4.4v-1.7l3.6-6.1h3.1v5.9h1.2v1.9h-1.2v2.6h-2.3s0-2.6,0-2.6ZM76.6,958.2v-1.5c0-.7,0-1.6,0-2.3h0c-.3.6-.5,1.2-.8,1.8l-1.2,2.1h2Z"/>
          <path class="cls-9" d="M83.7,951.3h1.6l-3.1,13.9h-1.6l3.1-13.9Z"/>
          <path class="cls-9" d="M86.4,961.3l1.3-1.6c.7.6,1.7,1,2.6,1s1.4-.4,1.4-.9-.6-.8-1.5-1.2l-1.3-.6c-1.1-.4-2.1-1.3-2.1-2.8s1.6-3.2,3.8-3.2,2.5.5,3.4,1.3l-1.3,1.6c-.7-.5-1.4-.8-2.1-.8s-1.3.3-1.3.8.7.8,1.6,1.2l1.3.5c1.3.5,2.1,1.4,2.1,2.8s-1.5,3.3-4,3.3c-1.5.2-2.9-.3-3.9-1.4Z"/>
          <path class="cls-9" d="M95.9,952.3h3c3.2,0,5.3,1.6,5.3,5.2s-2.1,5.2-5.1,5.2h-3.1v-10.4h-.1ZM98.8,960.7c1.7,0,2.9-.8,2.9-3.2s-1.2-3.2-2.9-3.2h-.4v6.4h.4Z"/>
          <path class="cls-9" d="M107.9,952.3h3l3.2,10.4h-2.6l-.6-2.4h-3.1l-.6,2.4h-2.5l3.2-10.4ZM108.3,958.3h2.1l-.2-.9c-.3-1-.5-2.3-.8-3.3h0c-.3,1.1-.5,2.3-.8,3.3l-.2.9Z"/>
        </g>
        <g>
          <path class="cls-9" d="M67,979.7h3l3.2,10.4h-2.6l-.6-2.4h-3.1l-.6,2.4h-2.5l3.2-10.4ZM67.4,985.8h2.1l-.2-.9c-.3-1-.5-2.3-.8-3.3h0c-.3,1.1-.5,2.3-.8,3.3l-.2.9Z"/>
          <path class="cls-9" d="M73.5,988.9l1.1-1.6c.6.6,1.3,1,2.1,1s1.6-.6,1.6-1.6-.6-1.6-1.5-1.6-.9,0-1.5.5l-1.1-.7.3-5.2h5.8v2.1h-3.7v1.8c.3,0,.6-.2,1-.2,1.8,0,3.2,1,3.2,3.3s-1.8,3.7-3.8,3.7c-1.5-.1-2.7-.7-3.5-1.5Z"/>
          <path class="cls-9" d="M85,978.8h1.6l-3.1,13.9h-1.6l3.1-13.9Z"/>
          <path class="cls-9" d="M87.6,988.8l1.3-1.6c.7.6,1.7,1,2.6,1s1.4-.4,1.4-.9-.6-.8-1.5-1.2l-1.3-.6c-1.1-.4-2.1-1.3-2.1-2.8s1.6-3.2,3.8-3.2,2.5.5,3.4,1.3l-1.3,1.6c-.7-.5-1.4-.8-2.1-.8s-1.3.3-1.3.8.7.8,1.6,1.2l1.3.5c1.3.5,2.1,1.4,2.1,2.8s-1.5,3.3-4,3.3c-1.4.1-2.8-.4-3.9-1.4Z"/>
          <path class="cls-9" d="M96.7,985c0-3.5,2.3-5.5,5-5.5s2.4.6,3.2,1.4l-1.3,1.5c-.5-.5-1.1-.7-1.8-.7-1.4,0-2.5,1.2-2.5,3.2s1,3.3,2.4,3.3,1.5-.3,2-.9l1.3,1.5c-.9,1-2.1,1.5-3.4,1.5-2.7,0-4.9-1.8-4.9-5.3Z"/>
          <path class="cls-9" d="M106.5,979.7h2.5v8.3h4v2.1h-6.5v-10.4Z"/>
        </g>
        <g>
          <path class="cls-9" d="M119.5,672.8v3.7c0,2.3-.8,4.2-3.4,4.2s-3.6-1.9-3.6-4.1v-1.2h-3.5v-2.5h10.5ZM114.5,676.4c0,1.2.6,1.8,1.6,1.8s1.4-.7,1.4-1.9v-1h-3v1.1Z"/>
          <path class="cls-9" d="M114.3,681.9c3.4,0,5.4,1.9,5.4,4.8s-2,4.8-5.4,4.8-5.4-1.9-5.4-4.8,2-4.8,5.4-4.8ZM114.3,688.9c2,0,3.2-.8,3.2-2.2s-1.2-2.2-3.2-2.2-3.3.9-3.3,2.2,1.3,2.2,3.3,2.2Z"/>
          <path class="cls-9" d="M119.5,692.4v2.5l-4.8.7c-1.1,0-2.2.3-3.3.4h0c1.1.3,2.2.5,3.3.7l4.8,1.1v2.1l-4.8,1.1c-1.1.2-2.2.4-3.3.6h0c1.2.2,2.3.4,3.3.5l4.8.7v2.4l-10.4-1.8v-3.2l4.6-.9c.8-.2,1.6-.3,2.5-.4h0c-.8-.2-1.6-.3-2.5-.5l-4.6-.9v-3.1l10.4-2Z"/>
          <path class="cls-9" d="M119.5,706.5v6.6h-2.1v-4.1h-2v3.5h-2.1v-3.5h-2.2v4.3h-2.1v-6.8h10.5Z"/>
          <path class="cls-9" d="M119.5,715.3v3.8c0,2.2-.8,4.1-3.3,4.1s-2.5-.7-3-1.8l-4.1,2.3v-2.8l3.7-1.9v-1.2h-3.7v-2.5h10.4ZM114.7,718.9c0,1.2.5,1.8,1.5,1.8s1.3-.6,1.3-1.8v-1.1h-2.8v1.1Z"/>
        </g>
        <g>
          <path class="cls-9" d="M119.5,875.2v3l-10.4,3.2v-2.6l2.4-.6v-3.1l-2.4-.6v-2.5l10.4,3.2ZM113.4,875.6v2.1l.9-.2c1-.3,2.3-.5,3.3-.8h0c-1.1-.4-2.3-.6-3.3-.9l-.9-.2Z"/>
          <path class="cls-9" d="M119.5,882.5v2.6l-5,2.6c-.7.4-1.5.7-2.4,1h0c1.1,0,2.6-.2,3.8-.2h3.5v2.4h-10.4v-2.6l5-2.6c.7-.4,1.5-.7,2.4-1h0c-1.2,0-2.6.2-3.8.2h-3.5v-2.4h10.4Z"/>
          <path class="cls-9" d="M119.5,895.1v3l-10.4,3.2v-2.6l2.4-.6v-3.1l-2.4-.6v-2.5l10.4,3.2ZM113.4,895.5v2.1l.9-.2c1-.3,2.3-.5,3.3-.8h0c-1.1-.4-2.3-.6-3.3-.9l-.9-.2Z"/>
          <path class="cls-9" d="M119.5,902.4v2.5h-8.3v4h-2.1v-6.5h10.4Z"/>
          <path class="cls-9" d="M114.3,909.6c3.4,0,5.4,1.9,5.4,4.8s-2,4.8-5.4,4.8-5.4-1.9-5.4-4.8,2-4.8,5.4-4.8ZM114.3,916.6c2,0,3.2-.8,3.2-2.2s-1.2-2.2-3.2-2.2-3.3.9-3.3,2.2,1.3,2.2,3.3,2.2Z"/>
          <path class="cls-9" d="M114.2,920.6c3.5,0,5.5,2.3,5.5,5.1s-.6,2.6-1.4,3.3l-1.5-1.3c.5-.5.7-1.1.7-1.9,0-1.5-1.2-2.7-3.2-2.7s-3.3.9-3.3,2.9,0,.8.3,1h1.7v-1.7h2v3.9h-4.9c-.7-.7-1.3-2-1.3-3.5.1-2.8,1.9-5.1,5.4-5.1Z"/>
          <path class="cls-9" d="M119.5,934.6v2.5h-10.4v-2.5h10.4Z"/>
          <path class="cls-9" d="M119.5,939.5v2.6l-5,2.6c-.7.4-1.5.7-2.4,1h0c1.1,0,2.6-.2,3.8-.2h3.5v2.4h-10.4v-2.6l5-2.6c.7-.4,1.5-.7,2.4-1h0c-1.2,0-2.6.2-3.8.2h-3.5v-2.4h10.4Z"/>
        </g>
        <path class="cls-37" d="M126,990.4h0c-1.3,0-2.3-1-2.3-2.3v-155.3c0-1.3,1-2.3,2.3-2.3h0c1.3,0,2.3,1,2.3,2.3v155.3c0,1.3-1,2.3-2.3,2.3Z"/>
        <path class="cls-37" d="M126,791.6h0c-1.3,0-2.3-1-2.3-2.3v-183.1c0-1.3,1-2.3,2.3-2.3h0c1.3,0,2.3,1,2.3,2.3v183.2c0,1.2-1,2.2-2.3,2.2Z"/>
        <g>
          <g>
            <polygon class="cls-35" points="292.3 980.5 288.7 980.5 288.6 980.5 285 980.5 276.5 989 276.5 1022 285 1030.5 288.6 1030.5 288.7 1030.5 292.3 1030.5 300.8 1022 300.8 989 292.3 980.5"/>
            <g>
              <rect class="cls-26" x="285.5" y="990.1" width="6.2" height="6.2"/>
              <rect class="cls-26" x="285.5" y="1014.7" width="6.2" height="6.2"/>
            </g>
          </g>
          <g>
            <polygon class="cls-35" points="316.5 980.5 312.9 980.5 312.8 980.5 309.2 980.5 300.8 989 300.8 1022 309.2 1030.5 312.8 1030.5 312.9 1030.5 316.5 1030.5 325 1022 325 989 316.5 980.5"/>
            <g>
              <rect class="cls-26" x="309.8" y="990.1" width="6.2" height="6.2"/>
              <rect class="cls-26" x="309.8" y="1014.7" width="6.2" height="6.2"/>
            </g>
          </g>
          <g>
            <polygon class="cls-35" points="340.7 980.5 337.1 980.5 337.1 980.5 333.4 980.5 325 989 325 1022 333.4 1030.5 337.1 1030.5 337.1 1030.5 340.7 1030.5 349.2 1022 349.2 989 340.7 980.5"/>
            <g>
              <rect class="cls-26" x="334" y="990.1" width="6.2" height="6.2"/>
              <rect class="cls-26" x="334" y="1014.7" width="6.2" height="6.2"/>
            </g>
          </g>
        </g>
        <path class="cls-37" d="M270.5,969c-1.3,0-2.3,1-2.3,2.3v58.5c0,1.3,1,2.3,2.3,2.3h0c1.3,0,2.3-1,2.3-2.3v-53.9c0-1.3,1-2.3,2.3-2.3h75.6c1.3,0,2.3,1,2.3,2.3v53.9c0,1.3,1,2.3,2.3,2.3h0c1.3,0,2.3-1,2.3-2.3v-58.5c0-1.3-1-2.3-2.3-2.3h-84.8Z"/>
        <path class="cls-37" d="M467.4,989.1h0c-1.3,0-2.3-1-2.3-2.3v-390.2c0-1.3,1-2.3,2.3-2.3h0c1.3,0,2.3,1,2.3,2.3v390.2c0,1.3-1.1,2.3-2.3,2.3Z"/>
        <g>
          <path class="cls-9" d="M486.5,736v3c0,3.2-1.6,5.3-5.2,5.3s-5.2-2.1-5.2-5.1v-3.2h10.4ZM478.1,738.8c0,1.7.8,2.9,3.2,2.9s3.2-1.2,3.2-2.9v-.4h-6.4v.4h0Z"/>
          <path class="cls-9" d="M486.5,746.2v2.5h-10.4v-2.5h10.4Z"/>
          <path class="cls-9" d="M481.2,750.6c3.5,0,5.5,2.3,5.5,5.1s-.6,2.6-1.4,3.3l-1.5-1.3c.5-.5.7-1.1.7-1.9,0-1.5-1.2-2.7-3.2-2.7s-3.3.9-3.3,2.9.1.8.3,1h1.7v-1.7h2v3.9h-4.9c-.7-.7-1.3-2-1.3-3.5,0-2.8,1.9-5.1,5.4-5.1Z"/>
          <path class="cls-9" d="M486.5,761.3v2.5h-10.4v-2.5h10.4Z"/>
          <path class="cls-9" d="M484.5,768.2v-2.8h2.1v8.1h-2.1v-2.8h-8.3v-2.5h8.3Z"/>
          <path class="cls-9" d="M486.5,776.4v3l-10.4,3.2v-2.6l2.4-.6v-3.1l-2.4-.6v-2.5l10.4,3.2ZM480.4,776.8v2.1l.9-.2c1-.3,2.3-.5,3.3-.8h0c-1.1-.4-2.3-.6-3.3-.9l-.9-.2Z"/>
          <path class="cls-9" d="M486.5,783.7v2.5h-8.3v4h-2.1v-6.5h10.4Z"/>
          <path class="cls-9" d="M480.6,795.2c2.8,0,5.1.8,7.3,2.1l-.6,1.6c-2.1-1.2-4.4-1.7-6.7-1.7s-4.6.5-6.7,1.7l-.6-1.6c2.1-1.3,4.4-2.1,7.3-2.1Z"/>
          <path class="cls-9" d="M486.5,800.9v3.7c0,2.3-.8,4.2-3.4,4.2s-3.6-1.9-3.6-4.1v-1.2h-3.5v-2.5h10.5ZM481.5,804.4c0,1.2.6,1.8,1.6,1.8s1.4-.7,1.4-1.9v-1h-3v1.1Z"/>
          <path class="cls-9" d="M486.5,809.5v2.5l-4.8.7c-1.1,0-2.2.3-3.3.4h0c1.1.3,2.2.5,3.3.7l4.8,1.1v2.1l-4.8,1.1c-1.1.2-2.2.4-3.3.6h0c1.2.2,2.3.4,3.3.5l4.8.7v2.4l-10.4-1.8v-3.2l4.6-.9c.8-.2,1.6-.3,2.5-.4h0c-.8-.2-1.6-.3-2.5-.5l-4.6-.9v-3.1l10.4-2Z"/>
          <path class="cls-9" d="M486.5,823.5v2.7l-4.5,1.6c-.6.2-1.2.4-1.9.6h0c.7.3,1.3.5,1.9.7l4.5,1.6v2.7h-10.4v-2.3h3.6c1,0,2.8.2,3.8.3h0c0,0-2.7-1-2.7-1l-3.8-1.4v-1.4l3.8-1.4,2.7-.8h0c-1,0-2.8.2-3.8.2h-3.6v-2.2h10.4Z"/>
          <path class="cls-9" d="M481.1,837.4c0-.4-.4-.8-.9-1.1l1-1.3c1.2.8,1.7,1.6,1.7,2.4,0,1.3-1.2,1.9-1.2,2.8s.4.8.9,1.1l-1,1.3c-1.2-.8-1.7-1.6-1.7-2.4,0-1.3,1.2-1.9,1.2-2.8Z"/>
          <path class="cls-9" d="M473.9,843.9c2.1,1.2,4.4,1.7,6.7,1.7s4.6-.5,6.7-1.7l.6,1.6c-2.2,1.3-4.5,2.1-7.3,2.1s-5.1-.8-7.3-2.1l.6-1.6Z"/>
        </g>
        <g>
          <rect class="cls-17" x="559" y="764.4" width="33.4" height="240.9"/>
          <rect x="565.9" y="767.1" width="19.6" height="19.6"/>
          <rect x="565.9" y="797.6" width="19.6" height="19.6"/>
          <rect x="565.9" y="828.1" width="19.6" height="19.6"/>
          <rect x="565.9" y="858.6" width="19.6" height="19.6"/>
          <rect x="565.9" y="889.1" width="19.6" height="19.6"/>
          <rect x="565.9" y="919.6" width="19.6" height="19.6"/>
          <rect x="565.9" y="950.1" width="19.6" height="19.6"/>
          <rect x="565.9" y="980.7" width="19.6" height="19.6"/>
        </g>
        <g>
          <rect class="cls-17" x="559" y="461.1" width="33.4" height="301.1"/>
          <rect x="565.9" y="525.8" width="19.6" height="19.6"/>
          <rect x="565.9" y="556.3" width="19.6" height="19.6"/>
          <rect x="565.9" y="586.8" width="19.6" height="19.6"/>
          <rect x="565.9" y="617.3" width="19.6" height="19.6"/>
          <rect x="565.9" y="647.9" width="19.6" height="19.6"/>
          <rect x="565.9" y="678.4" width="19.6" height="19.6"/>
          <rect x="565.9" y="708.9" width="19.6" height="19.6"/>
          <rect x="565.9" y="739.4" width="19.6" height="19.6"/>
          <rect x="565.9" y="495.3" width="19.6" height="19.6"/>
          <rect x="565.9" y="465" width="19.6" height="19.6"/>
        </g>
        <g>
          <g>
            <path class="cls-9" d="M508.8,470h3l3.2,10.4h-2.6l-.6-2.4h-3.1l-.6,2.4h-2.5l3.2-10.4ZM509.2,476.1h2.1l-.2-.9c-.3-1-.5-2.3-.8-3.3h-.1c-.3,1.1-.5,2.3-.8,3.3l-.2.9Z"/>
            <path class="cls-9" d="M515.2,479.2l1.1-1.6c.6.6,1.3,1,2.1,1s1.6-.6,1.6-1.6-.6-1.6-1.5-1.6-.9.1-1.5.5l-1.1-.7.3-5.2h5.8v2.1h-3.7v1.8c.3-.1.6-.2,1-.2,1.8,0,3.2,1,3.2,3.3s-1.8,3.7-3.8,3.7c-1.5,0-2.7-.7-3.5-1.5Z"/>
            <path class="cls-9" d="M526.7,469.1h1.6l-3.1,13.9h-1.6l3.1-13.9Z"/>
            <path class="cls-9" d="M529.3,479.1l1.3-1.6c.7.6,1.7,1,2.6,1s1.4-.4,1.4-.9-.6-.8-1.5-1.2l-1.3-.6c-1.1-.4-2.1-1.3-2.1-2.8s1.6-3.2,3.8-3.2,2.5.5,3.4,1.3l-1.3,1.6c-.7-.5-1.4-.8-2.1-.8s-1.3.3-1.3.8.7.8,1.6,1.2l1.3.5c1.3.5,2.1,1.4,2.1,2.8s-1.5,3.3-4,3.3c-1.4.1-2.8-.3-3.9-1.4Z"/>
            <path class="cls-9" d="M538.4,475.3c0-3.5,2.3-5.5,5-5.5s2.4.6,3.2,1.4l-1.3,1.5c-.5-.5-1.1-.7-1.8-.7-1.4,0-2.5,1.2-2.5,3.2s1,3.3,2.4,3.3,1.5-.3,2-.9l1.3,1.5c-.9,1-2.1,1.5-3.4,1.5-2.6,0-4.9-1.8-4.9-5.3Z"/>
            <path class="cls-9" d="M548.2,470h2.5v8.3h4v2.1h-6.5v-10.4Z"/>
          </g>
          <g>
            <path class="cls-9" d="M506.6,500.3h3l3.2,10.4h-2.6l-.6-2.4h-3.1l-.6,2.4h-2.5l3.2-10.4ZM507,506.4h2.1l-.2-.9c-.3-1-.5-2.3-.8-3.3h-.1c-.3,1.1-.5,2.3-.8,3.3l-.2.9Z"/>
            <path class="cls-9" d="M517.4,508.1h-4.4v-1.7l3.6-6.1h3.1v5.9h1.2v1.9h-1.2v2.6h-2.3v-2.6h0ZM517.4,506.2v-1.5c0-.7,0-1.6,0-2.3h0c-.3.6-.5,1.2-.8,1.8l-1.2,2.1h2Z"/>
            <path class="cls-9" d="M524.6,499.3h1.6l-3.1,13.9h-1.6l3.1-13.9Z"/>
            <path class="cls-9" d="M527.2,509.4l1.3-1.6c.7.6,1.7,1,2.6,1s1.4-.4,1.4-.9-.6-.8-1.5-1.2l-1.3-.6c-1.1-.4-2.1-1.3-2.1-2.8s1.6-3.2,3.8-3.2,2.5.5,3.4,1.3l-1.3,1.6c-.7-.5-1.4-.8-2.1-.8s-1.3.3-1.3.8.7.8,1.6,1.2l1.3.5c1.3.5,2.1,1.4,2.1,2.8s-1.5,3.3-4,3.3c-1.4.1-2.8-.4-3.9-1.4Z"/>
            <path class="cls-9" d="M536.8,500.3h3c3.2,0,5.3,1.6,5.3,5.2s-2.1,5.2-5.1,5.2h-3.1v-10.4h-.1ZM539.6,508.7c1.7,0,2.9-.8,2.9-3.2s-1.2-3.2-2.9-3.2h-.4v6.4h.4Z"/>
            <path class="cls-9" d="M548.7,500.3h3l3.2,10.4h-2.6l-.6-2.4h-3.1l-.6,2.4h-2.5l3.2-10.4ZM549.1,506.4h2.1l-.2-.9c-.3-1-.5-2.3-.8-3.3h0c-.3,1.1-.5,2.3-.8,3.3l-.2.9Z"/>
          </g>
          <g>
            <path class="cls-9" d="M521,530.8h3l3.2,10.4h-2.6l-.6-2.4h-3.1l-.6,2.4h-2.5l3.2-10.4ZM521.4,536.9h2.1l-.2-.9c-.3-1-.5-2.3-.8-3.3h0c-.3,1.1-.5,2.3-.8,3.3l-.2.9Z"/>
            <path class="cls-9" d="M528.3,530.8h3.8c2.2,0,4.1.8,4.1,3.3s-.7,2.5-1.8,3l2.3,4.1h-2.8l-1.9-3.7h-1.2v3.7h-2.5v-10.4h0ZM531.9,535.6c1.2,0,1.8-.5,1.8-1.5s-.6-1.3-1.8-1.3h-1.1v2.8h1.1Z"/>
            <path class="cls-9" d="M538.2,530.8h6.6v2.1h-4.1v2h3.5v2.1h-3.5v2.2h4.3v2.1h-6.8v-10.5Z"/>
            <path class="cls-9" d="M547,530.8h6.7v2.1h-4.2v2.3h3.6v2.1h-3.6v4h-2.5v-10.5Z"/>
          </g>
          <g>
            <path class="cls-9" d="M523.3,566.6c0-3.5,2.3-5.5,5.1-5.5s2.6.6,3.3,1.4l-1.3,1.5c-.5-.5-1.1-.7-1.9-.7-1.5,0-2.7,1.2-2.7,3.2s.9,3.3,2.9,3.3.8,0,1-.3v-1.7h-1.7v-2h3.9v4.9c-.7.7-2,1.3-3.5,1.3-2.8,0-5.1-1.9-5.1-5.4Z"/>
            <path class="cls-9" d="M534,561.3h2.6l2.6,5c.4.7.7,1.5,1,2.4h0c0-1.1-.3-2.6-.3-3.8v-3.5h2.4v10.4h-2.6l-2.6-5c-.4-.7-.7-1.5-1-2.4h-.2c0,1.2.3,2.6.3,3.8v3.5h-2.3v-10.4Z"/>
            <path class="cls-9" d="M544.7,561.3h3c3.2,0,5.3,1.6,5.3,5.2s-2.1,5.2-5.1,5.2h-3.1v-10.4h-.1ZM547.5,569.7c1.7,0,2.9-.8,2.9-3.2s-1.2-3.2-2.9-3.2h-.4v6.4h.4Z"/>
          </g>
          <g>
            <path class="cls-9" d="M495.2,600.2h2.2v-5.9h-1.9v-1.5c1.1-.2,1.8-.5,2.6-.9h1.8v8.4h1.9v2h-6.6v-2.1Z"/>
            <path class="cls-9" d="M503,601l1.1-1.6c.6.6,1.4,1,2.2,1s1.6-.4,1.6-1.2-.5-1.4-2.7-1.4v-1.8c1.8,0,2.3-.5,2.3-1.4s-.4-1.1-1.2-1.1-1.2.3-1.9.9l-1.2-1.5c.9-.8,2-1.3,3.2-1.3,2.2,0,3.6,1,3.6,2.9s-.6,1.8-1.7,2.3h0c1.2.4,2,1.3,2,2.6,0,2-1.8,3-3.8,3s-2.7-.5-3.5-1.4Z"/>
            <path class="cls-9" d="M514.5,590.9h1.6l-3.1,13.9h-1.6l3.1-13.9Z"/>
            <path class="cls-9" d="M517.1,600.9l1.3-1.6c.7.6,1.7,1,2.6,1s1.4-.4,1.4-.9-.6-.8-1.5-1.2l-1.3-.6c-1.1-.4-2.1-1.3-2.1-2.8s1.6-3.2,3.8-3.2,2.5.5,3.4,1.3l-1.3,1.6c-.7-.5-1.4-.8-2.1-.8s-1.3.3-1.3.8.7.8,1.6,1.2l1.3.5c1.3.5,2.1,1.4,2.1,2.8s-1.5,3.3-4,3.3c-1.4.1-2.8-.3-3.9-1.4Z"/>
            <path class="cls-9" d="M526.2,597.1c0-3.5,2.3-5.5,5-5.5s2.4.6,3.2,1.4l-1.3,1.5c-.5-.5-1.1-.7-1.8-.7-1.4,0-2.5,1.2-2.5,3.2s1,3.3,2.4,3.3,1.5-.3,2-.9l1.3,1.5c-.9,1-2.1,1.5-3.4,1.5-2.6,0-4.9-1.8-4.9-5.3Z"/>
            <path class="cls-9" d="M536,591.8h2.5v8.3h4v2.1h-6.5v-10.4Z"/>
            <path class="cls-9" d="M544.4,591.8h2.5v4.1h0l3-4.1h2.7l-3.1,4.2,3.7,6.2h-2.7l-2.5-4.2-1.1,1.5v2.7h-2.5v-10.4Z"/>
          </g>
          <g>
            <path class="cls-9" d="M494.1,630.8h2.2v-5.9h-1.9v-1.5c1.1-.2,1.8-.5,2.6-.9h1.8v8.4h1.9v2h-6.6v-2.1Z"/>
            <path class="cls-9" d="M502.1,631.2c2.7-2.3,4.4-4.2,4.4-5.6s-.5-1.5-1.4-1.5-1.3.5-1.8,1l-1.3-1.3c1-1.1,1.9-1.7,3.4-1.7s3.4,1.3,3.4,3.3-1.7,3.8-3.3,5.4c.5,0,1.2,0,1.7,0h2.1v2.1h-7.2v-1.6h0Z"/>
            <path class="cls-9" d="M513.4,621.4h1.6l-3.1,13.9h-1.6l3.1-13.9Z"/>
            <path class="cls-9" d="M516.6,622.3h2.7l1.6,4.5c.2.6.4,1.2.6,1.9h0c.2-.7.4-1.3.6-1.9l1.6-4.5h2.7v10.4h-2.3v-3.6c0-1,.2-2.8.3-3.8h0l-.9,2.7-1.4,3.8h-1.4l-1.4-3.8-.8-2.7h0c0,1,.3,2.8.3,3.8v3.6h-2.2v-10.4h.1Z"/>
            <path class="cls-9" d="M528.9,622.3h2.5v10.4h-2.5v-10.4Z"/>
            <path class="cls-9" d="M533.1,631.4l1.3-1.6c.7.6,1.7,1,2.6,1s1.4-.4,1.4-.9-.6-.8-1.5-1.2l-1.3-.6c-1.1-.4-2.1-1.3-2.1-2.8s1.6-3.2,3.8-3.2,2.5.5,3.4,1.3l-1.3,1.6c-.7-.5-1.4-.8-2.1-.8s-1.3.3-1.3.8.7.8,1.6,1.2l1.3.5c1.3.5,2.1,1.4,2.1,2.8s-1.5,3.3-4,3.3c-1.4.1-2.8-.3-3.9-1.4Z"/>
            <path class="cls-9" d="M542.2,627.5c0-3.4,1.9-5.4,4.8-5.4s4.8,2,4.8,5.4-1.9,5.4-4.8,5.4-4.8-2-4.8-5.4ZM549.2,627.5c0-2-.8-3.2-2.2-3.2s-2.2,1.2-2.2,3.2.9,3.3,2.2,3.3,2.2-1.3,2.2-3.3Z"/>
          </g>
          <g>
            <path class="cls-9" d="M486.8,658.3c-.4,0-.8.4-1.1.9l-1.3-1c.8-1.2,1.6-1.7,2.4-1.7,1.3,0,1.9,1.2,2.8,1.2s.8-.4,1.1-.9l1.3,1c-.8,1.2-1.6,1.7-2.4,1.7-1.4,0-1.9-1.2-2.8-1.2Z"/>
            <path class="cls-9" d="M493.5,661.3h2.2v-5.9h-1.9v-1.5c1.1-.2,1.8-.5,2.6-.9h1.8v8.4h1.9v2h-6.6v-2.1Z"/>
            <path class="cls-9" d="M502,661.3h2.2v-5.9h-1.9v-1.5c1.1-.2,1.8-.5,2.6-.9h1.8v8.4h1.9v2h-6.6v-2.1Z"/>
            <path class="cls-9" d="M512.8,651.9h1.6l-3.1,13.9h-1.6l3.1-13.9Z"/>
            <path class="cls-9" d="M516.1,652.8h2.7l1.6,4.5c.2.6.4,1.2.6,1.9h0c.2-.7.4-1.3.6-1.9l1.6-4.5h2.7v10.4h-2.3v-3.6c0-1,.2-2.8.3-3.8h0l-.9,2.7-1.4,3.8h-1.4l-1.4-3.8-.8-2.7h0c0,1,.3,2.8.3,3.8v3.6h-2.2v-10.4Z"/>
            <path class="cls-9" d="M527.8,658c0-3.4,1.9-5.4,4.8-5.4s4.8,2,4.8,5.4-1.9,5.4-4.8,5.4-4.8-2-4.8-5.4ZM534.8,658c0-2-.8-3.2-2.2-3.2s-2.2,1.2-2.2,3.2.9,3.3,2.2,3.3,2.2-1.3,2.2-3.3Z"/>
            <path class="cls-9" d="M538.7,661.9l1.3-1.6c.7.6,1.7,1,2.6,1s1.4-.4,1.4-.9-.6-.8-1.5-1.2l-1.3-.6c-1.1-.4-2.1-1.3-2.1-2.8s1.6-3.2,3.8-3.2,2.5.5,3.4,1.3l-1.3,1.6c-.7-.5-1.4-.8-2.1-.8s-1.3.3-1.3.8.7.8,1.6,1.2l1.3.5c1.3.5,2.1,1.4,2.1,2.8s-1.5,3.3-4,3.3c-1.5.2-2.9-.3-3.9-1.4Z"/>
            <path class="cls-9" d="M548.2,652.8h2.5v10.4h-2.5v-10.4Z"/>
          </g>
          <g>
            <path class="cls-9" d="M528.7,688.8c-.4,0-.8.4-1.1.9l-1.3-1c.8-1.2,1.6-1.7,2.4-1.7,1.3,0,1.9,1.2,2.8,1.2s.8-.4,1.1-.9l1.3,1c-.8,1.2-1.6,1.7-2.4,1.7-1.4,0-1.9-1.2-2.8-1.2Z"/>
            <path class="cls-9" d="M535.4,691.8h2.2v-5.9h-1.9v-1.5c1.1-.2,1.8-.5,2.6-.9h1.8v8.4h1.9v2h-6.6v-2.1Z"/>
            <path class="cls-9" d="M543.4,688.5c0-3.6,1.5-5.4,3.7-5.4s3.7,1.8,3.7,5.4-1.5,5.4-3.7,5.4c-2.2,0-3.7-1.8-3.7-5.4ZM548.4,688.5c0-2.8-.6-3.5-1.3-3.5s-1.3.6-1.3,3.5.6,3.5,1.3,3.5c.7,0,1.3-.6,1.3-3.5Z"/>
          </g>
          <g>
            <path class="cls-9" d="M536.6,719.3c-.4,0-.8.4-1.1.9l-1.3-1c.8-1.2,1.6-1.7,2.4-1.7,1.3,0,1.9,1.2,2.8,1.2s.8-.4,1.1-.9l1.3,1c-.8,1.2-1.6,1.7-2.4,1.7-1.4,0-1.9-1.2-2.8-1.2Z"/>
            <path class="cls-9" d="M542.9,723.2l1.3-1.5c.3.4,1,.7,1.6.7,1.1,0,1.9-.8,2-3-.5.7-1.4,1-2,1-1.7,0-3-1-3-3.3s1.6-3.5,3.4-3.5,3.9,1.5,3.9,5.3-2,5.5-4.1,5.5c-1.4,0-2.4-.5-3.1-1.2ZM546.3,718.7c.5,0,1.1-.3,1.5-.9-.2-1.8-.8-2.3-1.5-2.3s-1.2.5-1.2,1.7.5,1.5,1.2,1.5Z"/>
          </g>
          <path class="cls-9" d="M542.4,752.2c0-1.3.7-2.1,1.7-2.6h0c-.8-.7-1.4-1.5-1.4-2.6,0-1.7,1.4-2.8,3.3-2.8s3.1,1.1,3.1,2.8-.6,1.8-1.3,2.3h0c1,.6,1.8,1.5,1.8,2.9s-1.5,2.8-3.6,2.8-3.6-1.1-3.6-2.8ZM547.3,752.1c0-.9-.8-1.3-2.1-1.9-.4.4-.7,1-.7,1.7s.7,1.4,1.5,1.4,1.3-.4,1.3-1.2ZM547.1,747.1c0-.8-.4-1.2-1.2-1.2s-1.1.4-1.1,1.1.6,1.3,1.7,1.7c.4-.5.6-1,.6-1.6Z"/>
          <path class="cls-9" d="M546.3,774.1h-4.5v-2.1h7.1v1.5c-2.4,2.9-2.7,4.8-2.8,8.9h-2.5c.2-3.4.7-5.6,2.7-8.3Z"/>
          <g>
            <path class="cls-9" d="M534.9,808c-.4,0-.8.4-1.1.9l-1.3-1c.8-1.2,1.6-1.7,2.4-1.7,1.3,0,1.9,1.2,2.8,1.2s.8-.4,1.1-.9l1.3,1c-.8,1.2-1.6,1.7-2.4,1.7-1.4,0-1.9-1.2-2.8-1.2Z"/>
            <path class="cls-9" d="M541.2,807.9c0-3.8,2-5.5,4.1-5.5s2.4.6,3,1.2l-1.3,1.5c-.4-.4-1-.7-1.6-.7-1.1,0-1.9.8-2,3,.5-.6,1.4-1,2-1,1.7,0,3,1,3,3.3s-1.6,3.5-3.4,3.5-3.8-1.5-3.8-5.3ZM543.5,809.1c.2,1.7.9,2.2,1.5,2.2s1.2-.5,1.2-1.7-.6-1.5-1.3-1.5-1,.3-1.4,1Z"/>
          </g>
          <g>
            <path class="cls-9" d="M534.3,838.5c-.4,0-.8.4-1.1.9l-1.3-1c.8-1.2,1.6-1.7,2.4-1.7,1.3,0,1.9,1.2,2.8,1.2s.8-.4,1.1-.9l1.3,1c-.8,1.2-1.6,1.7-2.4,1.7-1.4,0-1.9-1.2-2.8-1.2Z"/>
            <path class="cls-9" d="M540.3,842.3l1.1-1.6c.6.6,1.3,1,2.1,1s1.6-.6,1.6-1.6-.6-1.6-1.5-1.6-.9,0-1.5.5l-1.1-.7.3-5.2h5.8v2.1h-3.7v1.8c.3,0,.6-.2,1-.2,1.8,0,3.2,1,3.2,3.3s-1.8,3.7-3.8,3.7c-1.5,0-2.7-.7-3.5-1.5Z"/>
          </g>
          <path class="cls-9" d="M544.1,871.4h-4.4v-1.7l3.6-6.1h3.1v5.9h1.2v1.9h-1.2v2.6h-2.3v-2.6h0ZM544.1,869.5v-1.5c0-.7,0-1.6,0-2.3h0c-.3.6-.5,1.2-.8,1.8l-1.2,2.1h2Z"/>
          <g>
            <path class="cls-9" d="M533.2,899.5c-.4,0-.8.4-1.1.9l-1.3-1c.8-1.2,1.6-1.7,2.4-1.7,1.3,0,1.9,1.2,2.8,1.2s.8-.4,1.1-.9l1.3,1c-.8,1.2-1.6,1.7-2.4,1.7-1.4,0-2-1.2-2.8-1.2Z"/>
            <path class="cls-9" d="M539.1,903.3l1.1-1.6c.6.6,1.4,1,2.2,1s1.6-.4,1.6-1.2-.5-1.4-2.7-1.4v-1.8c1.8,0,2.3-.5,2.3-1.4s-.4-1.1-1.2-1.1-1.2.3-1.9.9l-1.2-1.5c.9-.8,2-1.3,3.2-1.3,2.2,0,3.6,1,3.6,2.9s-.6,1.8-1.7,2.3h0c1.2.4,2,1.3,2,2.6,0,2-1.8,3-3.8,3s-2.7-.6-3.5-1.4Z"/>
          </g>
          <path class="cls-9" d="M538.8,933.5c2.7-2.3,4.4-4.2,4.4-5.6s-.5-1.5-1.4-1.5-1.3.5-1.8,1l-1.3-1.3c1-1.1,1.9-1.7,3.4-1.7s3.4,1.3,3.4,3.3-1.7,3.8-3.3,5.4c.5,0,1.2,0,1.7,0h2.1v2.1h-7.2v-1.6h0Z"/>
          <g>
            <path class="cls-9" d="M509.1,958.1h-2.8v-2.1h8.1v2.1h-2.8v8.3h-2.5v-8.3h0Z"/>
            <path class="cls-9" d="M517.5,961.1l-2.7-5.1h2.8l.8,1.9c.2.5.5,1,.8,1.7h0c.2-.7.5-1.2.7-1.7l.8-1.9h2.6l-2.7,5.2,2.9,5.2h-2.8l-1-2c-.3-.5-.5-1.1-.8-1.7h0c-.2.6-.5,1.2-.7,1.7l-.9,2h-2.7l2.9-5.3Z"/>
            <path class="cls-9" d="M537.4,961.2l-5,5c-.4.4-1,.4-1.4,0s-.4-1,0-1.4l3.3-3.3h-9.6c-.6,0-1-.4-1-1s.4-1,1-1h9.6l-3.3-3.3c-.4-.4-.4-1,0-1.4s1-.4,1.4,0l5,5c.4.3.4,1,0,1.4h0Z"/>
            <path class="cls-9" d="M538.7,964.5h2.2v-5.9h-1.9v-1.6c1.1-.2,1.8-.5,2.6-.9h1.8v8.4h1.9v2h-6.6v-2Z"/>
          </g>
          <g>
            <path class="cls-9" d="M505.4,986.6h3.8c2.2,0,4.1.8,4.1,3.3s-.7,2.5-1.8,3l2.3,4.1h-2.8l-1.9-3.7h-1.2v3.7h-2.5v-10.4ZM509,991.3c1.2,0,1.8-.5,1.8-1.5s-.6-1.3-1.8-1.3h-1.1v2.8h1.1Z"/>
            <path class="cls-9" d="M516.9,991.6l-2.7-5.1h2.8l.8,1.9c.2.5.5,1,.8,1.7h0c.2-.7.5-1.2.7-1.7l.8-1.9h2.6l-2.7,5.2,2.9,5.2h-2.8l-1-2c-.3-.5-.5-1.1-.8-1.7h0c-.2.6-.5,1.2-.7,1.7l-.9,2h-2.7l2.9-5.3Z"/>
            <path class="cls-9" d="M523.4,990.3l5-5c.4-.4,1-.4,1.4,0s.4,1,0,1.4l-3.3,3.3h9.6c.6,0,1,.4,1,1s-.4,1-1,1h-9.6l3.3,3.3c.4.4.4,1,0,1.4s-1,.4-1.4,0l-5-5c-.4-.4-.4-1,0-1.4h0Z"/>
            <path class="cls-9" d="M537.7,991.7c0-3.6,1.5-5.4,3.7-5.4s3.7,1.8,3.7,5.4-1.5,5.4-3.7,5.4c-2.3,0-3.7-1.8-3.7-5.4ZM542.7,991.7c0-2.8-.6-3.5-1.3-3.5s-1.3.6-1.3,3.5.6,3.5,1.3,3.5c.7,0,1.3-.6,1.3-3.5Z"/>
          </g>
        </g>
        <g>
          <rect class="cls-12" x="396.3" y="571.8" width="10.7" height="17.2"/>
          <rect class="cls-20" x="396.3" y="574.3" width="10.7" height="11.8"/>
        </g>
      </g>
      <g id="text1099">
        <g class="cls-21">
          <path class="cls-9" d="M735.8,537.2h.5c0,0,.3,0,.4,0s.2,0,.2.2,0,.2,0,.3v11.2c0,0,0,.3,0,.4,0,0,0,.2-.2.3,0,0-.2,0-.4.2-.2,0-.3,0-.6,0h-.5c-.2,0-.3,0-.4,0,0,0-.2,0-.4-.2,0,0-.2-.2-.4-.3l-4.2-4c-1-.9-1.8-1.7-2.6-2.2-.8-.6-1.5-1-2.1-1.3s-1.2-.5-1.7-.6-1,0-1.4,0-.9,0-1.3.2c-.4.2-.8.4-1.1.7s-.5.6-.7,1.1c-.2.4-.3.9-.3,1.5s0,1.2.3,1.8c.2.5.4,1,.6,1.4.2.4.4.7.6,1,.2.3.3.5.3.6s0,0,0,.2c0,0,0,0-.2,0s-.2,0-.4,0h-1c0,0-.2,0-.3,0,0,0-.2,0-.2,0,0,0-.2,0-.3-.2s-.3-.3-.4-.6c-.2-.3-.4-.7-.6-1.2-.2-.5-.3-1-.5-1.5,0-.6-.2-1.1-.2-1.8,0-1,0-1.8.4-2.6.3-.7.7-1.3,1.1-1.8.5-.5,1-.8,1.7-1.1.6-.2,1.3-.4,2-.4s1.3,0,1.9.2c.6,0,1.3.4,2.1.7.7.4,1.6.9,2.5,1.6.9.7,2,1.6,3.1,2.8l3.3,3.2v-8.8c0,0,0-.2,0-.2s0,0,.2-.2.2,0,.4,0c.4-.5.6-.5.8-.5Z"/>
          <path class="cls-9" d="M735.8,521h.5c0,0,.3,0,.4,0s.2,0,.2.2,0,.2,0,.3v11.2c0,0,0,.3,0,.4,0,0,0,.2-.2.3,0,0-.2,0-.4.2-.2,0-.3,0-.6,0h-.5c-.2,0-.3,0-.4,0,0,0-.2,0-.4-.2,0,0-.2-.2-.4-.3l-4.2-4c-1-.9-1.8-1.7-2.6-2.2-.8-.6-1.5-1-2.1-1.3s-1.2-.5-1.7-.6-1,0-1.4,0-.9,0-1.3.2c-.4.2-.8.4-1.1.7s-.5.6-.7,1.1c-.2.4-.3.9-.3,1.5s0,1.2.3,1.8c.2.5.4,1,.6,1.4.2.4.4.7.6,1,.2.3.3.5.3.6s0,0,0,.2c0,0,0,0-.2,0s-.2,0-.4,0h-1c0,0-.2,0-.3,0,0,0-.2,0-.2,0,0,0-.2,0-.3-.2s-.3-.3-.4-.6c-.2-.3-.4-.7-.6-1.2-.2-.5-.3-1-.5-1.5,0-.6-.2-1.1-.2-1.8,0-1,0-1.8.4-2.6.3-.7.7-1.3,1.1-1.8.5-.5,1-.8,1.7-1.1.6-.2,1.3-.4,2-.4s1.3,0,1.9.2c.6,0,1.3.4,2.1.7.7.4,1.6.9,2.5,1.6.9.7,2,1.6,3.1,2.8l3.3,3.2v-8.8c0,0,0-.2,0-.2s0,0,.2-.2.2,0,.4,0c.4-.5.6-.5.8-.5Z"/>
          <path class="cls-9" d="M726.8,504.1c1.6,0,3,.1,4.2.4,1.3.2,2.4.7,3.3,1.2.9.6,1.6,1.3,2.1,2.2.5.9.8,2,.8,3.4s-.2,2.3-.7,3.2c-.5.9-1.1,1.6-2,2.1s-2,.9-3.2,1.1c-1.3.2-2.8.3-4.4.3s-3,0-4.2-.4c-1.3-.2-2.4-.7-3.3-1.2s-1.6-1.3-2.1-2.2-.8-2-.8-3.4.2-2.4.7-3.2c.5-.9,1.1-1.6,2-2.1s2-.9,3.2-1.1c1.2-.2,2.7-.3,4.4-.3ZM727,506.9c-1,0-1.9,0-2.7.1s-1.5.2-2.1.3c-.6.1-1.1.3-1.6.5-.4.2-.8.5-1.1.8s-.5.7-.6,1.1-.2.9-.2,1.4c0,.9.2,1.6.6,2.2.4.6,1,1,1.7,1.3s1.6.5,2.6.6,2,.2,3.2.2,2.8,0,3.9-.2c1.1-.2,1.9-.4,2.6-.7.7-.3,1.2-.8,1.5-1.3s.5-1.2.5-1.9,0-1.1-.3-1.5-.5-.8-.8-1.1c-.3-.3-.8-.6-1.3-.8-.5-.2-1-.4-1.6-.5s-1.2-.2-1.9-.3c-1-.2-1.7-.2-2.4-.2Z"/>
          <path class="cls-9" d="M735.8,483.3h.5c0,0,.3.1.4.1s.2.1.2.2,0,.1,0,.2v5.9c0,.3,0,.5-.2.6-.2.2-.4.2-.8.2h-1c0,0-.2-.1-.3-.1,0-.1-.2-.1-.3-.2s-.3-.3-.6-.7c-.3-.4-.6-.8-1.1-1.3s-1-.9-1.6-1.2c-.6-.3-1.3-.5-2.1-.7-.8-.1-1.7-.2-2.6-.2s-1.3,0-1.9.1c-.6.1-1.2.2-1.8.4-.6.2-1.1.5-1.5.8-.5.3-.9.7-1.2,1.1-.3.5-.6,1-.8,1.6s-.3,1.3-.3,2.1,0,1.5.3,2.1.5,1.2.8,1.6c.3.5.8.9,1.2,1.2.5.3,1,.6,1.5.8.6.2,1.1.4,1.7.5.6.1,1.2.1,1.8.1,1.1,0,2-.1,2.8-.2s1.5-.4,2.1-.7c.6-.3,1.1-.7,1.6-1.2s.8-.9,1.1-1.3.5-.6.6-.7.2-.2.4-.2c0-.1.2-.1.3-.1h1c.4,0,.6.1.8.2.2.2.2.4.2.6v5.9c0,.1,0,.2,0,.2,0,.1,0,.1-.2.2,0,0-.2.1-.4.1h-.5c-.4,0-.7,0-.9-.1s-.3-.2-.3-.4v-3.9c-.4.7-.8,1.3-1.4,1.8-.5.5-1.2,1-1.9,1.4s-1.5.7-2.3.9c-.8.2-1.8.3-2.8.3s-2.8-.2-4-.6-2.3-1-3.1-1.8c-.9-.8-1.6-1.7-2.1-2.9-.5-1.2-.7-2.5-.7-4s.2-2.7.7-3.8c.5-1.1,1.1-2,2-2.8s1.9-1.3,3-1.7c1.2-.4,2.5-.6,3.9-.6s2,.1,2.9.3,1.7.5,2.4.9,1.4.8,1.9,1.4c.5.5,1,1.1,1.4,1.8v-3.9c0-.2,0-.3.3-.4.2.1.5.1.9.1Z"/>
        </g>
      </g>
      <g id="text1103">
        <g class="cls-21">
          <path class="cls-9" d="M769.5,537.2h.5c0,0,.3,0,.4,0s.2,0,.2.2,0,.2,0,.3v11.2c0,0,0,.3,0,.4,0,0,0,.2-.2.3,0,0-.2,0-.4.2-.2,0-.3,0-.6,0h-.5c-.2,0-.3,0-.4,0,0,0-.2,0-.4-.2,0,0-.2-.2-.4-.3l-4.2-4c-1-.9-1.8-1.7-2.6-2.2-.8-.6-1.5-1-2.1-1.3s-1.2-.5-1.7-.6-1,0-1.4,0-.9,0-1.3.2-.8.4-1.1.7-.5.6-.7,1.1-.3.9-.3,1.5,0,1.2.3,1.8.4,1,.6,1.4.4.7.6,1,.3.5.3.6,0,0,0,.2,0,0-.2,0-.2,0-.4,0h-1c0,0-.2,0-.3,0,0,0-.2,0-.2,0,0,0-.2,0-.3-.2s-.3-.3-.4-.6c-.2-.3-.4-.7-.6-1.2-.2-.5-.3-1-.5-1.5,0-.6-.2-1.1-.2-1.8,0-1,0-1.8.4-2.6s.7-1.3,1.1-1.8,1-.8,1.7-1.1c.6-.2,1.3-.4,2-.4s1.3,0,1.9.2c.6,0,1.3.4,2.1.7.7.4,1.6.9,2.5,1.6.9.7,2,1.6,3.1,2.8l3.3,3.2v-8.8c0,0,0-.2,0-.2s0,0,.2-.2.2,0,.4,0c.4-.5.6-.5.8-.5Z"/>
          <path class="cls-9" d="M769.5,521h.5c0,0,.3,0,.4,0s.2,0,.2.2,0,.2,0,.3v11.2c0,0,0,.3,0,.4,0,0,0,.2-.2.3,0,0-.2,0-.4.2-.2,0-.3,0-.6,0h-.5c-.2,0-.3,0-.4,0,0,0-.2,0-.4-.2,0,0-.2-.2-.4-.3l-4.2-4c-1-.9-1.8-1.7-2.6-2.2-.8-.6-1.5-1-2.1-1.3s-1.2-.5-1.7-.6-1,0-1.4,0-.9,0-1.3.2-.8.4-1.1.7-.5.6-.7,1.1-.3.9-.3,1.5,0,1.2.3,1.8c.2.5.4,1,.6,1.4s.4.7.6,1c.2.3.3.5.3.6s0,0,0,.2c0,0,0,0-.2,0s-.2,0-.4,0h-1c0,0-.2,0-.3,0,0,0-.2,0-.2,0,0,0-.2,0-.3-.2s-.3-.3-.4-.6c-.2-.3-.4-.7-.6-1.2-.2-.5-.3-1-.5-1.5,0-.6-.2-1.1-.2-1.8,0-1,0-1.8.4-2.6s.7-1.3,1.1-1.8,1-.8,1.7-1.1c.6-.2,1.3-.4,2-.4s1.3,0,1.9.2c.6,0,1.3.4,2.1.7.7.4,1.6.9,2.5,1.6.9.7,2,1.6,3.1,2.8l3.3,3.2v-8.8c0,0,0-.2,0-.2s0,0,.2-.2.2,0,.4,0c.4-.5.6-.5.8-.5Z"/>
          <path class="cls-9" d="M760.5,504.1c1.6,0,3,.1,4.2.4,1.3.2,2.4.7,3.3,1.2.9.6,1.6,1.3,2.1,2.2.5.9.8,2,.8,3.4s-.2,2.3-.7,3.2c-.5.9-1.1,1.6-2,2.1s-2,.9-3.2,1.1c-1.3.2-2.8.3-4.4.3s-3,0-4.2-.4-2.4-.7-3.3-1.2-1.6-1.3-2.1-2.2-.8-2-.8-3.4.2-2.4.7-3.2c.5-.9,1.1-1.6,2-2.1s2-.9,3.2-1.1c1.2-.2,2.7-.3,4.4-.3ZM760.7,506.9c-1,0-1.9,0-2.7.1s-1.5.2-2.1.3-1.1.3-1.6.5c-.4.2-.8.5-1.1.8s-.5.7-.6,1.1-.2.9-.2,1.4c0,.9.2,1.6.6,2.2.4.6,1,1,1.7,1.3s1.6.5,2.6.6,2,.2,3.2.2,2.8,0,3.9-.2c1.1-.2,1.9-.4,2.6-.7.7-.3,1.2-.8,1.5-1.3s.5-1.2.5-1.9,0-1.1-.3-1.5-.5-.8-.8-1.1c-.3-.3-.8-.6-1.3-.8-.5-.2-1-.4-1.6-.5s-1.2-.2-1.9-.3c-1-.2-1.7-.2-2.4-.2Z"/>
          <path class="cls-9" d="M769.5,483.3h.5c0,0,.3.1.4.1s.2.1.2.2,0,.1,0,.2v5.9c0,.3,0,.5-.2.6-.2.2-.4.2-.8.2h-1.1c0,0-.2-.1-.3-.1,0-.1-.2-.1-.3-.2s-.3-.3-.6-.7c-.3-.4-.6-.8-1.1-1.3s-1-.9-1.6-1.2c-.6-.3-1.3-.5-2.1-.7-.8-.1-1.7-.2-2.6-.2s-1.3,0-1.9.1-1.2.2-1.8.4c-.6.2-1.1.5-1.5.8s-.9.7-1.2,1.1-.6,1-.8,1.6-.3,1.3-.3,2.1,0,1.5.3,2.1.5,1.2.8,1.6c.3.5.8.9,1.2,1.2.5.3,1,.6,1.5.8.6.2,1.1.4,1.7.5s1.2.1,1.8.1c1.1,0,2-.1,2.8-.2s1.5-.4,2.1-.7c.6-.3,1.1-.7,1.6-1.2s.8-.9,1.1-1.3.5-.6.6-.7.2-.2.4-.2c0-.1.2-.1.3-.1h1c.4,0,.6.1.8.2.2.2.2.4.2.6v5.9c0,.1,0,.2,0,.2,0,.1,0,.1-.2.2,0,0-.2.1-.4.1h-.5c-.4,0-.7,0-.9-.1s-.3-.2-.3-.4v-3.9c-.4.7-.8,1.3-1.4,1.8-.5.5-1.2,1-1.9,1.4s-1.5.7-2.3.9c-.8.2-1.8.3-2.8.3s-2.8-.2-4-.6-2.3-1-3.1-1.8-1.6-1.7-2.1-2.9c-.5-1.2-.7-2.5-.7-4s.2-2.7.7-3.8c.5-1.1,1.1-2,2-2.8s1.9-1.3,3-1.7c1.2-.4,2.5-.6,3.9-.6s2,.1,2.9.3,1.7.5,2.4.9,1.4.8,1.9,1.4c.5.5,1,1.1,1.4,1.8v-3.9c0-.2,0-.3.3-.4.3.1.6.1,1,.1Z"/>
        </g>
      </g>
      <g id="layer1-8">
        <rect id="rect815-8" x="631.8" y="88.7" width="192.2" height="258.3"/>
        <rect id="rect821-4" class="cls-9" x="677.2" y="305" width="100" height="34.4"/>
        <path id="rect825-9" class="cls-31" d="M683.8,307h20c3.5,0,6.3,2.8,6.3,6.3h0v17.6c0,3.5-2.8,6.3-6.3,6.3h-20c-3.5,0-6.3-2.8-6.3-6.3h0v-17.6c0-3.5,2.8-6.3,6.3-6.3h0Z"/>
        <rect id="rect831" class="cls-9" x="658.8" y="233.1" width="136.9" height="34.4"/>
        <rect id="rect833" class="cls-9" x="658.8" y="197.2" width="136.9" height="34.4"/>
        <rect id="rect837" class="cls-9" x="658.8" y="161.3" width="136.9" height="34.4"/>
        <path id="rect872-7" class="cls-31" d="M750.6,307h20c3.5,0,6.3,2.8,6.3,6.3h0v17.6c0,3.5-2.8,6.3-6.3,6.3h-20c-3.5,0-6.3-2.8-6.3-6.3h0v-17.6c0-3.5,2.8-6.3,6.3-6.3h0Z"/>
        <path id="rect874-1" class="cls-31" d="M716.4,307h21.7c3,0,5.5,2.5,5.5,5.5v19.2c0,3-2.5,5.5-5.5,5.5h-21.7c-3,0-5.5-2.5-5.5-5.5v-19.2c0-3.1,2.4-5.5,5.5-5.5Z"/>
        <rect id="rect892" class="cls-25" x="660.7" y="234.2" width="134" height="31.8"/>
        <path id="rect836" class="cls-32" d="M676.6,234.2h8.2c8.8,0,15.9,7.1,15.9,15.9h0c0,8.8-7.1,15.9-15.9,15.9h-8.2c-8.8,0-15.9-7.1-15.9-15.9h0c0-8.8,7.1-15.9,15.9-15.9h0Z"/>
        <rect id="rect850" class="cls-32" x="703.3" y="234.2" width="40" height="31.8"/>
        <rect id="rect892-7" class="cls-25" x="660.2" y="198.4" width="134" height="31.8"/>
        <rect id="rect892-72" class="cls-25" x="660.2" y="162.7" width="134" height="31.8"/>
        <path id="rect836-7" class="cls-32" d="M676.1,198.7h8.1c8.7,0,15.8,7.1,15.8,15.8h0c0,8.7-7.1,15.8-15.8,15.8h-8.1c-8.7,0-15.8-7.1-15.8-15.8h0c.1-8.7,7.1-15.8,15.8-15.8Z"/>
        <path id="rect836-6" class="cls-32" d="M718.8,198.7h8.1c8.7,0,15.8,7.1,15.8,15.8h0c0,8.7-7.1,15.8-15.8,15.8h-8.1c-8.7,0-15.8-7.1-15.8-15.8h0c0-8.7,7.1-15.8,15.8-15.8h0Z"/>
        <path id="rect939" class="cls-32" d="M719,162.4h8.2c8.8,0,15.9,7.1,15.9,15.9h0c0,8.8-7.1,15.9-15.9,15.9h-8.2c-8.8,0-15.9-7.1-15.9-15.9h0c0-8.8,7.1-15.9,15.9-15.9Z"/>
        <path id="rect941" class="cls-32" d="M675.9,162.4h8.2c8.8,0,15.9,7.1,15.9,15.9h0c0,8.8-7.1,15.9-15.9,15.9h-8.2c-8.8,0-15.9-7.1-15.9-15.9h0c0-8.8,7.1-15.9,15.9-15.9Z"/>
        <rect id="rect943" class="cls-32" x="749.5" y="199.4" width="44.1" height="29.9"/>
        <rect id="rect945" class="cls-32" x="749.5" y="163.6" width="44.1" height="29.9"/>
        <rect id="rect947-2" class="cls-23" x="692" y="323.4" width="3.6" height="63.1"/>
        <rect id="rect949-0" class="cls-23" x="725.6" y="323.4" width="3.6" height="63.1"/>
        <rect id="rect951-7" class="cls-23" x="758.8" y="323.4" width="3.6" height="63.1"/>
        <ellipse id="path1456" class="cls-24" cx="658.7" cy="142.6" rx="17.5" ry="17.2"/>
        <ellipse id="ellipse1458" class="cls-24" cx="795.6" cy="142.6" rx="17.5" ry="17.2"/>
        <ellipse id="path1460" class="cls-10" cx="658.7" cy="142.5" rx="15.8" ry="15.5"/>
        <ellipse id="ellipse1464" class="cls-10" cx="795.5" cy="142.5" rx="15.8" ry="15.5"/>
        <circle id="circle1504" class="cls-10" cx="680.4" cy="250.1" r="14.9"/>
        <circle id="circle1510" class="cls-10" cx="722.9" cy="250.1" r="14.9"/>
        <circle id="circle77" class="cls-10" cx="680.2" cy="178.3" r="14.9"/>
        <circle id="circle79" class="cls-10" cx="722.9" cy="178.3" r="14.9"/>
        <circle id="circle81" class="cls-10" cx="771.5" cy="178.5" r="12.8"/>
        <path id="path31-1-2" class="cls-9" d="M686.4,108.9c1.2,0,1.3,0,1.5-.2.2,0,.3-.2.4-.4,0-.2,0-.4.2-2.8v-2.6h5v3.2c0,3.5,0,3.9-.4,4.8-.4,1.2-1.4,2-2.6,2.1-.8,0-1.5.2-2.3,0-1,0-2.1,0-2.5,0h-.6v-4.3l1.3.2h0ZM710.6,116.1c21.7,0,27,0,26.1,0h0,0c0,0,0,.2,0,.2s0,0,.2,0h.4-.4c-.2,0-.4,0-.3,0,0,0,0,0,0,.6s0,.6.2.6,0,0,0,0-.3,0-.3,0c0,0-8.6,0-25.6,0h-25.6v-1.8h25.4ZM691.1,96.4h2.6v4.2h-5.1v-4.2h2.5ZM696.2,104.1c.2-1.1.5-2.2,1-3.1,0-.2.2-.4.4-.6,0,0,.2-.3.3-.4.3-.5.6-.9,1-1.3h0c.3-.5.7-.8,1.1-1.1.6-.4,1.2-.7,1.9-.9,1-.4,2-.6,3.1-.5.6,0,1.2,0,1.8.2.4,0,.8.3,1,.3,0,0,.3,0,.4,0,.2,0,.4.2.6.3,1.5,1,2.7,2.4,3.5,4,1,2,1.1,4.4.4,6.5-.2.7-.5,1.3-.9,2s-.9,1.3-1.5,1.8c-1,1.1-2.2,1.8-3.6,2.1-1.1.2-2.1.3-3.2.2-1.3-.2-2.4-.7-3.5-1.5-.4-.3-.8-.6-1.1-1,0,0-.2-.3-.4-.4-1.1-1.2-1.8-2.7-2.2-4.3-.2-.8-.2-1.6-.2-2.4h0ZM701.1,106.2c.2,1,.8,1.8,1.5,2.5.8.7,2,1,3,.7,1.3-.6,2.3-1.8,2.7-3.2.2-.9.2-1.9,0-2.9-.3-1.1-.9-2-1.8-2.7-.3-.2-.6-.4-1-.4-.8-.2-1.6,0-2.4.2-.7.5-1.3,1.1-1.6,1.8-.6,1.4-.7,2.7-.4,4h0ZM715.5,96.4h5.1v2.3c0,2.2,0,2.3.2,2.7.4,1,1.5,1.5,2.6,1.2.5-.2.9-.5,1.1-1l.2-.4v-4.8h5.1v2.7c0,1.1,0,2.2-.2,3.2-.3,1-.7,1.9-1.3,2.6,0,0-.2.2-.3.4-.4.4-.8.8-1.2,1.1-.5.3-1,.6-1.5.8,0,0-.5,0-.8.2-.6.2-1.2.2-1.8.2-.7,0-1.3,0-1.9-.2-.7-.2-1.4-.5-2-.9-.8-.5-1.4-1.2-2-1.9-.7-1-1.1-2.1-1.2-3.2-.2-1.7-.2-3.3,0-5h0ZM722.6,109h4.2v4.3h-8.4v-4.3h4.2ZM729.8,93.1s0,0,0-.3q0-.3.3-.3h31.2v1.8h-31.5c0,0,0-.2,0-.6,0-.4,0-.6,0-.6h0ZM736.9,103.4h5.3v4.2h-10.7v-4.2h5.4ZM746.4,96.4h2.6v4.2h-5.1v-4.2h2.5ZM746.4,102.7h2.6v10.8h-5.1v-10.8h2.5ZM756.6,96.4h5.4v4.2h-10.7v-4.2h5.3ZM752.1,103h5v2.5c0,3.5,0,3.3,2.5,3.3h1.6v4.3h-.6c-1.5.2-3.1.2-4.6,0-1.1,0-2.1-.6-2.8-1.3-.6-.8-1-1.7-1-2.7-.1-.8-.1-6.1-.1-6.2h0ZM765,94.3c0-.4.3-.8.7-1.1,1-1,2.6-1.1,3.7-.3.4.2.7.6.9,1,.2.3.2.7.2,1.1s0,.8-.2,1.1c-.5.9-1.3,1.5-2.3,1.6-.9,0-1.7-.2-2.3-.9-.7-.6-1-1.6-.7-2.5ZM765.5,96.1c.4.6,1,1.1,1.7,1.3.8.2,1.6,0,2.2-.6.2-.2.4-.4.5-.7.2-.3.3-.7.2-1.1,0-.4,0-.7-.2-1.1,0-.3-.4-.6-.7-.8-.2-.2-.5-.3-.8-.4-1.2-.4-2.5.2-3,1.4-.2.7-.1,1.4,0,2h0ZM767.4,93.4c.4,0,.8,0,1.1,0,.4.3.6.9.3,1.3,0,0-.2.2-.4.3h-.2c0,0,.2.4.2.4.2.2.3.4.5.6,0,0,.2.3.3.4s0,.2-.2.2h-.3l-.4-.7c-.4-.7-.6-.8-1-.8h-.3v1.4h-.4v-3.2h.8ZM767.5,94.8c.5,0,.6,0,.8,0,.4-.3.2-.8-.4-.8h-1v1h.6Z"/>
        <rect id="rect92" class="cls-32" x="749.5" y="235.3" width="44.1" height="29.9"/>
        <circle id="circle1514" class="cls-10" cx="771.5" cy="250.2" r="12.8"/>
        <g id="text87">
          <g class="cls-21">
            <path class="cls-9" d="M819.5,221h.2c0,0,0,.1,0,.2s0,.2,0,.4v1.4c0,.2,0,.3,0,.4s-.2.2-.2.2l-8.6,6.3h8.6q0,0,.2.1c0,0,0,.1,0,.2s0,.2,0,.4v1c0,.1,0,.3,0,.4,0,.1,0,.1,0,.2,0,0,0,.1-.2.1h-16.4q0,0-.2-.1c0,0,0-.1,0-.2s0-.2,0-.4v-1c0-.1,0-.3,0-.4,0-.1,0-.1,0-.2,0,0,0-.1.2-.1h7.6l-7.6-6.1q0-.1-.2-.2c0-.1,0-.2,0-.3s0-.2,0-.4v-1.2c0-.2,0-.3,0-.3,0-.1,0-.1,0-.2h.2c0,0,.2,0,.3.1s.3.2.5.3l6.8,5.7,8.1-6.1c.2-.2.4-.2.5-.3s0,.1.1.1Z"/>
          </g>
          <g class="cls-21">
            <path class="cls-9" d="M813.2,212.6h6.3q0,0,.2.1t0,.2c0,.1,0,.2,0,.4v1c0,.1,0,.3,0,.4,0,.1,0,.2,0,.2,0,0,0,.1-.2.1h-6.3l-9.7,4.8c-.2.1-.4.2-.5.2s-.2,0-.3-.1,0-.2,0-.4v-1.3c0-.2,0-.3,0-.4s0-.2,0-.2c0,0,0-.1.2-.1l4.9-2.4c.5-.2,1-.4,1.5-.7.5-.2,1-.4,1.5-.7h0c-.5-.2-1-.4-1.5-.6s-1-.4-1.5-.7l-4.9-2.4c0,0-.2-.1-.2-.1,0,0,0-.1,0-.2s0-.2,0-.4v-1.3c0,0,0-.3,0-.4,0-.1.2-.1.3-.1s.3.1.5.2l9.7,4.9Z"/>
          </g>
          <g class="cls-21">
            <path class="cls-9" d="M813.2,201.3c.3,0,.6,0,.7.1,0,.1.2.2.2.3v5.5c0,.2,0,.3-.2.4,0,.1-.4.1-.7.1s-.6,0-.7-.1c0-.1-.2-.2-.2-.4v-5.7c0-.1,0-.1.2-.1s.2-.1.3-.1h.4Z"/>
            <path class="cls-9" d="M811.2,187.6c1.3,0,2.5.1,3.6.3s2,.6,2.8,1c.8.5,1.4,1.1,1.8,1.9.4.8.6,1.7.6,2.9s-.2,2-.6,2.7c-.4.7-.9,1.3-1.7,1.8-.7.4-1.7.8-2.8,1s-2.3.3-3.8.3-2.5-.1-3.6-.3-2-.6-2.8-1c-.8-.5-1.4-1.1-1.8-1.9-.4-.8-.6-1.7-.6-2.9s.2-2,.6-2.7c.4-.7.9-1.3,1.7-1.8.7-.5,1.7-.8,2.8-1s2.4-.3,3.8-.3ZM811.4,190c-.9,0-1.6,0-2.3.1s-1.3.2-1.8.3-1,.3-1.3.5c-.4.2-.7.4-.9.7s-.4.6-.5.9c0,.3-.2.7-.2,1.1,0,.7.2,1.4.5,1.8.4.5.8.8,1.5,1.1s1.3.5,2.2.5c.8.1,1.7.1,2.7.1s2.4-.1,3.3-.2c.9-.1,1.6-.3,2.2-.6.6-.3,1-.7,1.2-1.1s.4-1,.4-1.6,0-.9-.2-1.3c-.2-.4-.4-.7-.7-1s-.7-.5-1.1-.7c-.4-.2-.9-.3-1.4-.4-.5-.1-1-.2-1.6-.2-.7,0-1.4,0-2,0Z"/>
            <path class="cls-9" d="M818.9,174.5h.4c0,0,.2.1.3.1s0,.1.2.2c0,.1,0,.1,0,.2v9.8c0,.1,0,.2-.2.2s-.2.1-.3.1h-1c0,0-.2,0-.3-.1,0,0-.2-.1-.3-.2s-.2-.2-.3-.3l-3.5-3.4c-.8-.8-1.5-1.4-2.2-1.9-.6-.5-1.2-.8-1.8-1.1-.5-.3-1-.4-1.4-.5s-.8-.1-1.2-.1-.7.1-1.1.2c-.3.1-.6.3-.9.6s-.5.5-.6.9-.2.8-.2,1.3,0,1.1.2,1.5.3.8.5,1.2c.2.3.3.6.5.8,0,.2.2.4.2.5s0,.1,0,.2,0,.1-.2.1-.2.1-.3.1h-1.1c0,0,0-.1-.2-.1s0-.1-.2-.2c0-.1-.2-.3-.4-.5-.2-.3-.3-.6-.5-1s-.3-.8-.4-1.3-.2-1-.2-1.5c0-.8,0-1.6.4-2.2.2-.6.6-1.1,1-1.5s.9-.7,1.4-.9,1.1-.3,1.7-.3,1.1,0,1.6.1,1.1.3,1.8.6c.6.3,1.3.8,2.1,1.4.8.6,1.7,1.4,2.7,2.4l2.8,2.7v-7.6q0-.1,0-.2c0-.1,0-.1.2-.2,0,0,.2-.1.3-.1h.4Z"/>
            <path class="cls-9" d="M810.6,160.6c.7,0,1.5,0,2.2.1.8.1,1.5.2,2.2.5s1.4.5,2,.9,1.1.8,1.6,1.3.8,1.2,1.1,1.9.4,1.6.4,2.6,0,.7,0,1.1c0,.4,0,.7-.2,1,0,.3,0,.5-.2.7s-.2.3-.2.4c0,.1-.2.2-.3.2s-.3.1-.5.1h-.5c0,0-.2,0-.3-.1,0,0,0-.1,0-.1v-.2c0-.1,0-.2,0-.4s0-.4.2-.7c0-.3.2-.6.2-.9,0-.4,0-.8,0-1.2,0-.9-.2-1.6-.5-2.2-.3-.6-.8-1.1-1.3-1.5-.6-.4-1.2-.7-1.9-.9s-1.5-.3-2.3-.3c.3.5.5,1,.7,1.7s.3,1.4.3,2.2,0,1.8-.4,2.4c-.3.6-.6,1.2-1.1,1.6s-1,.7-1.6.8-1.3.3-2,.3-1.5-.1-2.2-.3-1.3-.6-1.8-1c-.5-.5-.9-1.1-1.2-1.8s-.5-1.6-.5-2.6,0-1.3.3-1.9c.2-.6.4-1,.8-1.4.3-.4.8-.8,1.2-1s1-.5,1.6-.7,1.3-.3,2-.4,1.4-.2,2.2-.2ZM810.4,162.9c-1.1,0-2.1.1-2.9.2-.8.2-1.4.4-1.9.7s-.8.6-1,1.1c-.2.4-.3.9-.3,1.5s0,1.1.3,1.5.5.7.8,1,.7.5,1.2.6c.4.1.9.2,1.4.2s1-.1,1.4-.2c.4-.1.8-.3,1.1-.5s.5-.6.7-1,.2-.9.2-1.5,0-1.3-.3-1.9c-.2-.7-.4-1.2-.7-1.7Z"/>
          </g>
        </g>
        <g id="text91">
          <g class="cls-21">
            <path class="cls-9" d="M666,322.3c0,.3,0,.6-.3.7s-.5.2-.8.2h-13.3c-.4,0-.7-.1-.9-.2s-.3-.4-.3-.7,0-.6.3-.7.5-.2.9-.2h13.8c0,0,.3.1.4.2,0,.1.2.2.2.3,0,.1,0,.3,0,.4Z"/>
          </g>
        </g>
        <g id="text95">
          <g class="cls-21">
            <path class="cls-9" d="M800.4,325.7c0,.8,0,1.5-.4,2.1-.3.6-.7,1.2-1.2,1.6s-1.1.8-1.9,1c-.7.2-1.5.3-2.3.3s-1.1,0-1.6-.1-.9-.2-1.3-.4c-.4-.1-.7-.3-1-.4-.3-.2-.4-.3-.5-.4s-.2-.2-.2-.4,0-.4,0-.7v-.5c0-.1,0-.2,0-.3s0-.1,0-.2,0,0,.2,0,.3.1.5.2.5.3.9.5.8.3,1.3.5,1.1.2,1.7.2.9-.1,1.4-.2c.4-.1.8-.3,1.1-.6.3-.2.5-.5.7-.9s.2-.8.2-1.2,0-.9-.3-1.2c-.2-.3-.5-.6-.9-.9s-.8-.5-1.2-.7-.9-.4-1.4-.7c-.5-.2-1-.5-1.4-.7-.5-.3-.9-.6-1.2-1-.4-.4-.7-.8-.9-1.3s-.3-1.1-.3-1.8,0-1.4.4-1.9c.3-.6.6-1,1.1-1.4s1-.7,1.7-.9c.6-.2,1.3-.3,2.1-.3s.8,0,1.1.1c.4.1.7.2,1.1.3s.6.2.9.4c.3.1.4.2.5.3,0,.1,0,.2.2.2,0,0,0,.1,0,.2s0,.2,0,.3v.8c0,.1,0,.2,0,.3,0,.1,0,.1,0,.2s0,.1-.2.1-.2-.1-.5-.2c-.2-.1-.5-.3-.8-.4-.3-.2-.7-.3-1.1-.4s-.9-.2-1.4-.2-.9.1-1.2.2-.6.3-.9.5c-.2.2-.4.5-.5.8s-.2.6-.2.9c0,.5,0,.9.3,1.2.2.3.5.6.9.9s.8.5,1.2.7c.5.2.9.4,1.4.7.5.2,1,.5,1.4.7.5.3.9.6,1.2,1,.4.4.7.8.9,1.3s.4,1.1.4,1.8Z"/>
          </g>
        </g>
        <rect id="rect884" x="693.7" y="59.6" width="68.2" height="8.8"/>
        <rect id="rect886" x="696.1" y="24.1" width="63.5" height="40.3"/>
        <path id="path888" d="M759.5,25.3c0-9-6-17.4-15.9-21.9-10.1-4.5-21.6-4.5-31.7,0-9.8,4.5-15.9,12.9-15.9,21.9h63.5Z"/>
        <path id="path3796" class="cls-23" d="M753.3,65.2l16.5,23h0v127.9h3.4V88.1h0l-16.4-22.9h-3.4Z"/>
        <path id="path3794" class="cls-23" d="M721.2,65.6h3.4v150.5h-3.4V65.6Z"/>
        <path id="rect74" class="cls-23" d="M698.7,65.2l-20.2,22.9h0v128h3.4V88.1l20.2-23h-3.4Z"/>
        <path id="rect3800" class="cls-22" d="M727.1,2.5c-4.9,0-9.7,1.2-14.2,3.2-9.2,4.2-14.9,12-14.9,20.5h0v35.2h-2.2v5.3h64v-5.3h-2.2V26.2h0c0-8.5-5.7-16.3-14.9-20.6-4.9-2.2-10.2-3.3-15.6-3.1h0Z"/>
      </g>
      <rect id="rect1461" class="cls-36" x="756.1" y="582.7" width="9.1" height="109.9"/>
      <rect id="rect1463" class="cls-19" x="722.6" y="582.7" width="9.1" height="79.3"/>
      <rect id="rect1463-2" class="cls-19" x="722.6" y="357.5" width="9.1" height="93.2"/>
      <rect id="rect1463-3" class="cls-36" x="756.1" y="357.5" width="9.1" height="93.2"/>
      <rect id="rect1465" class="cls-13" x="689.2" y="368" width="9.1" height="403.2"/>
      <circle id="circle281" class="cls-36" cx="760.6" cy="582.7" r="10.5"/>
      <circle id="circle281-2" class="cls-36" cx="760.6" cy="450.7" r="10.5"/>
      <circle id="circle281-3" class="cls-36" cx="760.6" cy="357.5" r="10.5"/>
      <circle id="circle281-4" class="cls-19" cx="727.2" cy="582.4" r="10.5"/>
      <circle id="circle281-5" class="cls-19" cx="727.2" cy="450.7" r="10.5"/>
      <circle id="circle281-6" class="cls-19" cx="727.2" cy="357.5" r="10.5"/>
      <circle id="circle281-7" class="cls-13" cx="693.8" cy="357.5" r="10.5"/>
      <circle id="circle281-8" class="cls-36" cx="575.5" cy="688" r="10.5"/>
      <rect id="rect1461-2" class="cls-36" x="586" y="683.5" width="179.2" height="9.1"/>
      <rect class="cls-13" x="21.4" y="762.1" width="676.9" height="9.1"/>
      <rect class="cls-13" x="21.4" y="740.4" width="9.1" height="30.9"/>
      <rect class="cls-19" x="586.3" y="652.8" width="145.5" height="9.1"/>
      <circle id="circle281-9" class="cls-19" cx="575.8" cy="657.4" r="10.5"/>
      <circle id="circle281-10" class="cls-13" cx="26.1" cy="740.4" r="10.5"/>
    </g>
  </g>
</svg>