<?xml version="1.0" encoding="UTF-8"?>
<svg xmlns="http://www.w3.org/2000/svg" version="1.1" viewBox="0 0 878 812.4">
  <defs>
    <style>
      .cls-1 {
        fill: #2c2c2c;
      }

      .cls-2, .cls-3 {
        fill: #fff;
      }

      .cls-4 {
        fill: #493930;
      }

      .cls-5 {
        fill: #be8839;
      }

      .cls-6 {
        fill: #dbded7;
      }

      .cls-7 {
        fill: #914f00;
      }

      .cls-8 {
        fill: #9a2442;
      }

      .cls-9 {
        fill: #303030;
      }

      .cls-10 {
        fill: #f53200;
      }

      .cls-11 {
        fill: #47494a;
      }

      .cls-12 {
        fill: #655a50;
      }

      .cls-13 {
        fill: #f9f9f9;
      }

      .cls-14 {
        fill: #00b589;
      }

      .cls-15 {
        fill: #e30613;
      }

      .cls-16 {
        fill: #474949;
      }

      .cls-17, .cls-18, .cls-3, .cls-19 {
        isolation: isolate;
      }

      .cls-20 {
        fill: #fcf7fd;
      }

      .cls-21 {
        fill: #ada390;
      }

      .cls-22 {
        fill: #686868;
      }

      .cls-23 {
        fill: #e3ad51;
      }

      .cls-24 {
        fill: #ddd;
      }

      .cls-25 {
        fill: #1a1a1a;
      }

      .cls-26 {
        fill: #c4b3a8;
      }

      .cls-27 {
        fill: #a3928b;
      }

      .cls-28, .cls-18 {
        fill: gray;
      }

      .cls-29 {
        fill: #36323e;
      }

      .cls-18, .cls-3, .cls-19 {
        opacity: 1;
      }

      .cls-30 {
        fill: #eaeaea;
      }

      .cls-31 {
        fill: #1a1919;
      }

      .cls-32 {
        fill: #e3b37d;
      }

      .cls-33 {
        fill: #010103;
      }

      .cls-19 {
        fill: #ccc;
      }

      .cls-34 {
        fill: #f5b93e;
      }

      .cls-35 {
        fill: #e0dcd3;
      }

      .cls-36 {
        fill: none;
        stroke: #493930;
        stroke-miterlimit: 10;
      }

      .cls-37 {
        fill: #bcb3ad;
      }
    </style>
  </defs>
  <!-- Generator: Adobe Illustrator 28.6.0, SVG Export Plug-In . SVG Version: 1.2.0 Build 709)  -->
  <g>
    <g id="svg8">
      <g>
        <path class="cls-31" d="M590.8,44.1H8.1c-4,0-7.3,3.2-7.3,7.3v719c0,4,3.2,7.3,7.3,7.3h17.6l34.2,34.2h365.2s34.1-34.2,34.1-34.2h131.6c4,0,7.3-3.2,7.3-7.3V51.4c0-4-3.2-7.3-7.3-7.3ZM29.1,218.6c-10,0-18.1-8.1-18.1-18.1s8.1-18.1,18.1-18.1,18.1,8.1,18.1,18.1-8.1,18.1-18.1,18.1ZM89,800.4c-10,0-18.1-8.1-18.1-18.1s8.1-18.1,18.1-18.1,18.1,8.1,18.1,18.1-8.1,18.1-18.1,18.1ZM402.1,800.4c-10,0-18.1-8.1-18.1-18.1s8.1-18.1,18.1-18.1,18.1,8.1,18.1,18.1-8.1,18.1-18.1,18.1ZM570.4,230c-10,0-18.1-8.1-18.1-18.1s8.1-18.1,18.1-18.1,18.1,8.1,18.1,18.1-8.1,18.1-18.1,18.1Z"/>
        <rect class="cls-9" x="56.7" y="10.8" width="101.7" height="143.5"/>
        <path class="cls-9" d="M65.7,154.3h83.7v9.1c0,3.9-3.2,7.1-7.1,7.1h-69.4c-3.9,0-7.1-3.2-7.1-7.1v-9.1h0Z"/>
        <path class="cls-24" d="M572.3,82.8h-21.4v-4.6c0-.8-.6-1.4-1.4-1.4h-20.6c-.8,0-1.4.6-1.4,1.4v4.6h-21.4c-1,0-1.7.8-1.7,1.7v65.1c0,1,.8,1.7,1.7,1.7h66.3c1,0,1.7-.8,1.7-1.7v-65.1c0-1-.8-1.7-1.7-1.7Z"/>
        <circle class="cls-8" cx="539.1" cy="114.1" r="19.2"/>
        <g>
          <circle class="cls-24" cx="149.4" cy="262.8" r="35.2"/>
          <path class="cls-33" d="M130.4,238.3c-8.1,5.1-13.5,14.2-13.5,24.5s5.4,19.4,13.5,24.5v-49.1Z"/>
        </g>
        <g>
          <circle class="cls-24" cx="174.9" cy="361.7" r="35.2"/>
          <path class="cls-33" d="M167.6,331.6c-9.5,1.4-18.1,7.5-22.3,16.9s-2.9,19.9,2.4,27.9l19.9-44.9Z"/>
        </g>
        <rect class="cls-32" x="279.4" y="124.6" width="9.8" height="21.5"/>
        <rect class="cls-32" x="363.1" y="168.3" width="9.8" height="21.5"/>
        <rect class="cls-32" x="452.4" y="242.4" width="9.8" height="21.5" transform="translate(710.5 -204.1) rotate(90)"/>
        <rect class="cls-32" x="452.4" y="183" width="9.8" height="21.5" transform="translate(651 -263.6) rotate(90)"/>
        <rect class="cls-32" x="327.9" y="271.4" width="9.8" height="21.5"/>
        <rect class="cls-34" x="397.5" y="368.7" width="9.8" height="21.5"/>
        <rect class="cls-32" x="424.3" y="368.7" width="9.8" height="21.5"/>
        <rect class="cls-32" x="450.6" y="368.7" width="9.8" height="21.5"/>
        <rect class="cls-32" x="330.7" y="656.3" width="9.8" height="21.5" transform="translate(-331.4 1002.7) rotate(-90)"/>
        <rect class="cls-34" x="388.1" y="674.6" width="9.8" height="21.5"/>
        <rect class="cls-16" x="303.4" y="168.3" width="31.5" height="14.6" rx="1.5" ry="1.5"/>
        <g>
          <path class="cls-35" d="M306,155.9h12.2v11.5h-12.2c-.7,0-1.2-.6-1.2-1.2v-9c0-.7.6-1.2,1.2-1.2Z" transform="translate(473.1 -149.9) rotate(90)"/>
          <path class="cls-35" d="M321.3,155.9h12.2v11.5h-12.2c-.7,0-1.2-.6-1.2-1.2v-9c0-.7.6-1.2,1.2-1.2Z" transform="translate(488.4 -165.2) rotate(90)"/>
        </g>
        <g>
          <rect class="cls-6" x="423.9" y="341.6" width="10.7" height="17.2"/>
          <rect class="cls-16" x="423.9" y="344.2" width="10.7" height="11.8"/>
        </g>
        <g>
          <rect class="cls-6" x="450.2" y="341.6" width="10.7" height="17.2"/>
          <rect class="cls-16" x="450.2" y="344.2" width="10.7" height="11.8"/>
        </g>
        <g>
          <rect class="cls-6" x="309.9" y="308.2" width="10.7" height="17.2" transform="translate(-1.5 632.1) rotate(-90)"/>
          <rect class="cls-16" x="309.8" y="310.9" width="10.7" height="11.8" transform="translate(-1.7 631.9) rotate(-90)"/>
        </g>
        <g>
          <rect class="cls-6" x="254.9" y="308.2" width="10.7" height="17.2" transform="translate(-56.6 577) rotate(-90)"/>
          <rect class="cls-16" x="254.7" y="310.9" width="10.7" height="11.8" transform="translate(-56.8 576.9) rotate(-90)"/>
        </g>
        <g>
          <rect class="cls-6" x="388.1" y="644.3" width="10.7" height="17.2"/>
          <rect class="cls-16" x="388.1" y="646.8" width="10.7" height="11.8"/>
        </g>
        <g>
          <rect class="cls-6" x="330.3" y="678.4" width="10.7" height="17.2" transform="translate(-351.4 1022.7) rotate(-90)"/>
          <rect class="cls-16" x="330.2" y="681.1" width="10.7" height="11.8" transform="translate(-351.6 1022.5) rotate(-90)"/>
        </g>
        <g>
          <rect class="cls-6" x="478.8" y="91.5" width="10.7" height="17.2"/>
          <rect class="cls-16" x="478.8" y="94" width="10.7" height="11.8"/>
        </g>
        <g>
          <rect class="cls-6" x="339.2" y="92.5" width="10.7" height="17.2"/>
          <rect class="cls-16" x="339.2" y="95" width="10.7" height="11.8"/>
        </g>
        <rect class="cls-27" x="442.7" y="205.7" width="12.2" height="32.8" rx="3.7" ry="3.7"/>
        <g>
          <rect class="cls-23" x="370.7" y="456.8" width="22.3" height="17.8" rx="2.9" ry="2.9" transform="translate(-217.5 406.4) rotate(-45)"/>
          <rect class="cls-26" x="371.6" y="457.5" width="20.5" height="16.4" rx="2.9" ry="2.9" transform="translate(-217.5 406.4) rotate(-45)"/>
        </g>
        <rect class="cls-37" x="375.6" y="432.7" width="12.2" height="11"/>
        <rect class="cls-37" x="395.2" y="432.7" width="12.2" height="11"/>
        <rect class="cls-37" x="375.6" y="485.6" width="12.2" height="11"/>
        <rect class="cls-37" x="395.2" y="485.6" width="12.2" height="11"/>
        <rect class="cls-10" x="327" y="709" width="20.8" height="11" rx="2.8" ry="2.8"/>
        <g>
          <path class="cls-2" d="M32,79v-4.5h2.1v7.1h-1.5c-2.9-2.4-4.8-2.7-8.9-2.8v-2.5c3.4.2,5.6.7,8.3,2.7Z"/>
          <path class="cls-2" d="M28.6,83.1v4h-1.7v-4h1.7Z"/>
          <path class="cls-2" d="M25.7,88.8v2.2h5.9v-1.9h1.5c.2,1.1.5,1.8.9,2.6v1.8h-8.4v1.9h-2v-6.6h2Z"/>
          <path class="cls-2" d="M25.2,96.8c2.3,2.7,4.2,4.4,5.6,4.4s1.5-.5,1.5-1.4-.5-1.3-1-1.8l1.3-1.3c1.1,1,1.7,1.9,1.7,3.4s-1.3,3.4-3.3,3.4-3.8-1.7-5.4-3.3c0,.5.1,1.2.1,1.7v2.1h-2.1v-7.2h1.5Z"/>
          <path class="cls-2" d="M34.1,104.6v2.6l-4.8,1.1c-1.1.3-2.2.5-3.3.8h0c1.1.4,2.2.6,3.3.9l4.8,1.2v2.5l-10.4-3.2v-3l10.4-3.1Z"/>
          <path class="cls-2" d="M34.1,118.1v2.5h-10.4v-2.5h10.4Z"/>
          <path class="cls-2" d="M34.1,123v2.6l-5,2.6c-.7.4-1.5.7-2.4,1h0c1.1,0,2.6-.3,3.8-.3h3.5v2.4h-10.4v-2.6l5-2.6c.7-.4,1.5-.7,2.4-1h0c-1.2,0-2.6.3-3.8.3h-3.5v-2.4h10.4Z"/>
          <path class="cls-2" d="M34.1,133.7v3.7c0,2.3-.8,4.2-3.4,4.2s-3.6-1.9-3.6-4.1v-1.2h-3.5v-2.5h10.4ZM29.1,137.2c0,1.2.6,1.8,1.6,1.8s1.4-.7,1.4-1.9v-1h-3v1.1Z"/>
          <path class="cls-2" d="M28.6,143.2h5.5v2.5h-5.8c-2,0-2.7.6-2.7,1.7s.7,1.8,2.7,1.8h5.8v2.4h-5.5c-3.5,0-5.1-1.4-5.1-4.2s1.6-4.2,5.1-4.2Z"/>
          <path class="cls-2" d="M32,156v-2.8h2.1v8.1h-2.1v-2.8h-8.3v-2.5h8.3Z"/>
        </g>
        <g>
          <path class="cls-2" d="M589.5,92.6v3.8c0,2.2-.8,4.1-3.3,4.1s-2.5-.7-3-1.8l-4.1,2.3v-2.8l3.7-1.9v-1.2h-3.7v-2.5h10.4ZM584.7,96.2c0,1.2.5,1.8,1.5,1.8s1.3-.6,1.3-1.8v-1.1h-2.8v1.1Z"/>
          <path class="cls-2" d="M589.5,102.5v6.6h-2.1v-4.1h-2v3.5h-2.1v-3.5h-2.2v4.3h-2.1v-6.8h10.4Z"/>
          <path class="cls-2" d="M580.4,110.6l1.6,1.3c-.6.7-1,1.7-1,2.6s.4,1.4.9,1.4.8-.6,1.2-1.5l.6-1.3c.4-1.1,1.3-2.1,2.8-2.1s3.2,1.6,3.2,3.8-.5,2.5-1.3,3.4l-1.6-1.3c.5-.7.8-1.4.8-2.1s-.3-1.3-.8-1.3-.8.7-1.2,1.6l-.5,1.3c-.5,1.3-1.4,2.1-2.8,2.1s-3.3-1.5-3.3-4,.5-2.8,1.5-3.9Z"/>
          <path class="cls-2" d="M589.5,120.2v6.6h-2.1v-4.1h-2v3.5h-2.1v-3.5h-2.2v4.3h-2.1v-6.8h10.4Z"/>
          <path class="cls-2" d="M587.4,131.1v-2.8h2.1v8.1h-2.1v-2.8h-8.3v-2.5h8.3Z"/>
        </g>
        <g>
          <path class="cls-2" d="M372.5,753.3v2.5h-10.4v-2.5h10.4Z"/>
          <path class="cls-2" d="M367.2,757.7c3.5,0,5.5,2.3,5.5,5s-.6,2.4-1.4,3.2l-1.5-1.3c.5-.5.7-1.1.7-1.8,0-1.4-1.2-2.5-3.2-2.5s-3.3,1-3.3,2.4.3,1.5.9,2l-1.5,1.3c-1-.9-1.5-2.1-1.5-3.4,0-2.7,1.8-4.9,5.3-4.9Z"/>
          <path class="cls-2" d="M363.4,766.4l1.6,1.3c-.6.7-1,1.7-1,2.6s.4,1.4.9,1.4.8-.6,1.2-1.5l.6-1.3c.4-1.1,1.3-2.1,2.8-2.1s3.2,1.6,3.2,3.8-.5,2.5-1.3,3.4l-1.6-1.3c.5-.7.8-1.4.8-2.1s-.3-1.3-.8-1.3-.8.7-1.2,1.6l-.5,1.3c-.5,1.3-1.4,2.1-2.8,2.1s-3.3-1.5-3.3-4,.5-2.8,1.5-3.9Z"/>
          <path class="cls-2" d="M372.5,776v3.7c0,2.3-.8,4.2-3.4,4.2s-3.6-1.9-3.6-4.1v-1.2h-3.5v-2.5h10.4ZM367.5,779.6c0,1.2.6,1.8,1.6,1.8s1.4-.7,1.4-1.9v-1h-3v1.1Z"/>
        </g>
        <path class="cls-2" d="M389.5,705.2c-1.2,1-2,2.5-2,4.2,0,3,2.5,5.5,5.5,5.5s5.5-2.5,5.5-5.5-.8-3.2-2-4.2c-.4-.4-.5-1-.1-1.4s1-.5,1.4-.1c1.6,1.4,2.7,3.5,2.7,5.8,0,4.1-3.4,7.5-7.5,7.5s-7.5-3.4-7.5-7.5,1.1-4.4,2.7-5.8c.4-.4,1.1-.3,1.4.1.4.4.3,1.1-.1,1.4h0ZM394,709.5c0,.6-.4,1-1,1s-1-.4-1-1v-7c0-.6.4-1,1-1s1,.4,1,1v7Z"/>
        <polyline class="cls-36" points="36.8 236.7 43.5 236.7 106.1 299.3 116.9 299.3"/>
        <polyline class="cls-36" points="36.6 244.7 43.5 244.7 103.7 304.9 103.7 436.6 160.4 493.3 213.2 493.3 225.4 480.9 264.4 480.9"/>
        <polyline class="cls-36" points="34.1 272.2 45.5 272.2 87.7 314.4 87.7 437.4 157.5 507.2 269.2 507.2"/>
        <polyline class="cls-36" points="23.7 357.8 62.7 396.7 62.7 460.7 34 489.4"/>
        <line class="cls-4" x1="76.9" y1="439.5" x2="152.7" y2="515.3"/>
        <polyline class="cls-36" points="132.2 506.8 89.4 549.5 25.3 549.5"/>
        <polyline class="cls-36" points="132.2 517.4 92.1 557.5 26.8 557.5"/>
        <polyline class="cls-36" points="268.2 515.9 235.6 515.9 160 591.5 79.5 591.5 56.8 614.2 32 614.2"/>
        <polyline class="cls-36" points="250.3 525 250.3 571.3 180.5 641.1 31.3 641.1"/>
        <polyline class="cls-36" points="265.6 544.9 265.6 581.2 177.1 669.7 32 669.7"/>
        <polyline class="cls-36" points="274.4 544.7 274.4 583.9 159.6 698.7 25.3 698.7"/>
        <polyline class="cls-36" points="283.3 545.6 283.3 591.2 148.2 726.3 31.3 726.3"/>
        <polyline class="cls-36" points="291.9 549.6 291.9 599 135.5 755.4 31.3 755.4"/>
        <line class="cls-4" x1="329.6" y1="634.6" x2="293" y2="598"/>
        <polyline class="cls-36" points="331.9 650.9 306.7 625.7 280.9 625.7"/>
        <polyline class="cls-36" points="345.2 658.6 345.2 599.9 300.6 555.2 300.6 535.8"/>
        <polyline class="cls-36" points="279.3 773.5 262.9 757.1 262.9 692.4 288.2 667.1"/>
        <polyline class="cls-36" points="309 544.2 309 555.1 362.6 608.6 402.3 608.6 507.7 713.9 507.7 743.1 519.4 754.8 564.5 754.8"/>
        <polyline class="cls-36" points="317.9 545.3 317.9 556.2 360.2 598.5 422.2 598.5 569.5 745.7"/>
        <polyline class="cls-36" points="328 544.9 368.8 585.6 434.3 585.6 574.8 726.1"/>
        <polyline class="cls-36" points="346.6 524.2 401 524.2 572.1 695.3"/>
        <polyline class="cls-36" points="347.9 515.9 408.1 515.9 574.3 682.2"/>
        <polyline class="cls-36" points="496.8 535.7 489.9 528.8 443.9 528.8"/>
        <polyline class="cls-36" points="347.9 472.3 359 472.3 367.9 481.1 378.6 481.1"/>
        <polyline class="cls-36" points="347.7 463.4 357.7 463.4 368.2 452.8 381.4 452.8"/>
        <polyline class="cls-36" points="326.2 439.8 342.7 423.4 412.6 423.4 567.6 578.5"/>
        <polyline class="cls-36" points="317.8 441.6 317.8 437.1 337.3 417.6 415.5 417.6 575.9 577.9"/>
        <polyline class="cls-36" points="309.1 441.6 309.1 433.2 329.3 412.9 419.3 412.9 575.7 569.3"/>
        <polyline class="cls-36" points="300.5 440 300.5 431.8 324.3 408 419.7 408 577.2 565.5"/>
        <polyline class="cls-36" points="291.9 439.5 291.9 427.6 316.8 402.6 420.9 402.6 581.3 563.1"/>
        <polyline class="cls-36" points="283 441.2 283 419.4 304.2 399.4 425.9 399.4 481 454.4 581.3 454.4"/>
        <polyline class="cls-36" points="274.4 439.3 274.4 416 298.1 394.1 427.6 394.1 458.9 425.4 579.9 425.4"/>
        <polyline class="cls-36" points="265.6 438.8 265.6 414.8 287.6 392.8 291 389.4"/>
        <polyline class="cls-36" points="222 456.9 222 427.8 290.3 359.5 316.2 359.5 323.2 366.5 373 366.5 400.4 339.1 427.6 339.1"/>
        <polyline class="cls-36" points="211.1 354.1 315.1 354.1 335.9 333.2 355.1 333.2"/>
        <polyline class="cls-36" points="287.5 283.5 287.5 294.2 278.5 303.2 261.1 303.2 248.4 290.6 248.4 281.3 248.4 256.2"/>
        <polyline class="cls-36" points="227.7 225.6 227.7 217.3 233.2 211.8 250.1 211.8"/>
        <polyline class="cls-36" points="192 203.2 238.2 203.2 258.8 182.7 258.8 160.8"/>
        <polyline class="cls-36" points="320 189.7 333.8 189.7 342.5 181.1 342.5 148.5 314.4 120.5 298.7 120.5 276.8 98.5"/>
        <polyline class="cls-36" points="286.7 95 300.5 108.9 312.1 108.9"/>
        <polyline class="cls-36" points="324.1 92.5 324.1 112.8 345.2 133.9 380.7 133.9 385.4 129.3 385.4 100.1"/>
        <path class="cls-36" d="M403.3,210v-48.4"/>
        <path class="cls-36" d="M418.9,161.6v22"/>
        <polyline class="cls-36" points="416.5 217.3 428.9 217.3 440.8 205.3"/>
        <polyline class="cls-36" points="416.3 231 429.2 231 441.4 243.1"/>
        <line class="cls-36" x1="416.8" y1="272.2" x2="440.4" y2="272.2"/>
        <line class="cls-36" x1="414.6" y1="286.3" x2="442.7" y2="286.3"/>
        <polyline class="cls-36" points="416.3 299.7 427.6 299.7 442.7 299.7"/>
        <line class="cls-36" x1="563.7" y1="162.5" x2="531.2" y2="195"/>
        <g>
          <rect class="cls-16" x="258" y="456" width="76" height="76" rx="5.9" ry="5.9"/>
          <circle class="cls-1" cx="323.1" cy="520.1" r="4.8"/>
          <g>
            <path class="cls-35" d="M241.2,460.7h16.9v5.9h-16.9c-.7,0-1.2-.6-1.2-1.2v-3.4c0-.7.6-1.2,1.2-1.2Z"/>
            <path class="cls-35" d="M241.2,469.4h16.9v5.9h-16.9c-.7,0-1.2-.6-1.2-1.2v-3.4c0-.7.6-1.2,1.2-1.2Z"/>
            <path class="cls-35" d="M241.2,478h16.9v5.9h-16.9c-.7,0-1.2-.6-1.2-1.2v-3.4c0-.7.6-1.2,1.2-1.2Z"/>
            <path class="cls-35" d="M241.2,486.7h16.9v5.9h-16.9c-.7,0-1.2-.6-1.2-1.2v-3.4c0-.7.6-1.2,1.2-1.2Z"/>
            <path class="cls-35" d="M241.2,495.4h16.9v5.9h-16.9c-.7,0-1.2-.6-1.2-1.2v-3.4c0-.7.6-1.2,1.2-1.2Z"/>
            <path class="cls-35" d="M241.2,504.1h16.9v5.9h-16.9c-.7,0-1.2-.6-1.2-1.2v-3.4c0-.7.6-1.2,1.2-1.2Z"/>
            <path class="cls-35" d="M241.2,512.8h16.9v5.9h-16.9c-.7,0-1.2-.6-1.2-1.2v-3.4c0-.7.6-1.2,1.2-1.2Z"/>
            <path class="cls-35" d="M241.2,521.5h16.9v5.9h-16.9c-.7,0-1.2-.6-1.2-1.2v-3.4c0-.7.6-1.2,1.2-1.2Z"/>
          </g>
          <g>
            <path class="cls-35" d="M318.6,444h16.9v5.9h-16.9c-.7,0-1.2-.6-1.2-1.2v-3.4c0-.7.6-1.2,1.2-1.2Z" transform="translate(773.4 120.5) rotate(90)"/>
            <path class="cls-35" d="M309.9,444h16.9v5.9h-16.9c-.7,0-1.2-.6-1.2-1.2v-3.4c0-.7.6-1.2,1.2-1.2Z" transform="translate(764.7 129.2) rotate(90)"/>
            <path class="cls-35" d="M301.2,444h16.9v5.9h-16.9c-.7,0-1.2-.6-1.2-1.2v-3.4c0-.7.6-1.2,1.2-1.2Z" transform="translate(756 137.9) rotate(90)"/>
            <path class="cls-35" d="M292.6,444h16.9v5.9h-16.9c-.7,0-1.2-.6-1.2-1.2v-3.4c0-.7.6-1.2,1.2-1.2Z" transform="translate(747.3 146.6) rotate(90)"/>
            <path class="cls-35" d="M283.9,444h16.9v5.9h-16.9c-.7,0-1.2-.6-1.2-1.2v-3.4c0-.7.6-1.2,1.2-1.2Z" transform="translate(738.7 155.3) rotate(90)"/>
            <path class="cls-35" d="M275.2,444h16.9v5.9h-16.9c-.7,0-1.2-.6-1.2-1.2v-3.4c0-.7.6-1.2,1.2-1.2Z" transform="translate(730 164) rotate(90)"/>
            <path class="cls-35" d="M266.5,444h16.9v5.9h-16.9c-.7,0-1.2-.6-1.2-1.2v-3.4c0-.7.6-1.2,1.2-1.2Z" transform="translate(721.3 172.7) rotate(90)"/>
            <path class="cls-35" d="M257.8,444h16.9v5.9h-16.9c-.7,0-1.2-.6-1.2-1.2v-3.4c0-.7.6-1.2,1.2-1.2Z" transform="translate(712.6 181.4) rotate(90)"/>
          </g>
          <g>
            <path class="cls-35" d="M257.8,538.1h16.9v5.9h-16.9c-.7,0-1.2-.6-1.2-1.2v-3.4c0-.7.6-1.2,1.2-1.2Z" transform="translate(-275.5 806.7) rotate(-90)"/>
            <path class="cls-35" d="M266.5,538.1h16.9v5.9h-16.9c-.7,0-1.2-.6-1.2-1.2v-3.4c0-.7.6-1.2,1.2-1.2Z" transform="translate(-266.8 815.4) rotate(-90)"/>
            <path class="cls-35" d="M275.2,538.1h16.9v5.9h-16.9c-.7,0-1.2-.6-1.2-1.2v-3.4c0-.7.6-1.2,1.2-1.2Z" transform="translate(-258.1 824.1) rotate(-90)"/>
            <path class="cls-35" d="M283.9,538.1h16.9v5.9h-16.9c-.7,0-1.2-.6-1.2-1.2v-3.4c0-.7.6-1.2,1.2-1.2Z" transform="translate(-249.4 832.8) rotate(-90)"/>
            <path class="cls-35" d="M292.6,538.1h16.9v5.9h-16.9c-.7,0-1.2-.6-1.2-1.2v-3.4c0-.7.6-1.2,1.2-1.2Z" transform="translate(-240.7 841.4) rotate(-90)"/>
            <path class="cls-35" d="M301.2,538.1h16.9v5.9h-16.9c-.7,0-1.2-.6-1.2-1.2v-3.4c0-.7.6-1.2,1.2-1.2Z" transform="translate(-232 850.1) rotate(-90)"/>
            <path class="cls-35" d="M309.9,538.1h16.9v5.9h-16.9c-.7,0-1.2-.6-1.2-1.2v-3.4c0-.7.6-1.2,1.2-1.2Z" transform="translate(-223.3 858.8) rotate(-90)"/>
            <path class="cls-35" d="M318.6,538.1h16.9v5.9h-16.9c-.7,0-1.2-.6-1.2-1.2v-3.4c0-.7.6-1.2,1.2-1.2Z" transform="translate(-214.6 867.5) rotate(-90)"/>
          </g>
          <g>
            <path class="cls-35" d="M335.3,521.2h16.9v5.9h-16.9c-.7,0-1.2-.6-1.2-1.2v-3.4c0-.7.6-1.2,1.2-1.2Z" transform="translate(686.2 1048.3) rotate(180)"/>
            <path class="cls-35" d="M335.3,512.5h16.9v5.9h-16.9c-.7,0-1.2-.6-1.2-1.2v-3.4c0-.7.6-1.2,1.2-1.2Z" transform="translate(686.2 1031) rotate(180)"/>
            <path class="cls-35" d="M335.3,503.9h16.9v5.9h-16.9c-.7,0-1.2-.6-1.2-1.2v-3.4c0-.7.6-1.2,1.2-1.2Z" transform="translate(686.2 1013.6) rotate(180)"/>
            <path class="cls-35" d="M335.3,495.2h16.9v5.9h-16.9c-.7,0-1.2-.6-1.2-1.2v-3.4c0-.7.6-1.2,1.2-1.2Z" transform="translate(686.2 996.2) rotate(180)"/>
            <path class="cls-35" d="M335.3,486.5h16.9v5.9h-16.9c-.7,0-1.2-.6-1.2-1.2v-3.4c0-.7.6-1.2,1.2-1.2Z" transform="translate(686.2 978.8) rotate(180)"/>
            <path class="cls-35" d="M335.3,477.8h16.9v5.9h-16.9c-.7,0-1.2-.6-1.2-1.2v-3.4c0-.7.6-1.2,1.2-1.2Z" transform="translate(686.2 961.4) rotate(180)"/>
            <path class="cls-35" d="M335.3,469.1h16.9v5.9h-16.9c-.7,0-1.2-.6-1.2-1.2v-3.4c0-.7.6-1.2,1.2-1.2Z" transform="translate(686.2 944) rotate(180)"/>
            <path class="cls-35" d="M335.3,460.4h16.9v5.9h-16.9c-.7,0-1.2-.6-1.2-1.2v-3.4c0-.7.6-1.2,1.2-1.2Z" transform="translate(686.2 926.6) rotate(180)"/>
          </g>
        </g>
        <path class="cls-2" d="M247.8,619.2v7.2c0,1.3,0,2.5-.1,3.5,0,.8-.2,1.6-.4,2.4-.2.7-.5,1.3-.8,1.9-.5.7-1,1.4-1.6,2-.6.7-1.5,1.2-2.5,1.6-1.1.3-2.3.5-3.7.5h-6v-7.4h3.7c.5,0,.9,0,1.4-.2.3-.1.6-.3.9-.6.2-.3.4-.7.5-1.1.1-.6.2-1.2.2-1.7v-7.9h8.5ZM233.4,642.6h95v3.1h-95v-3.1ZM247.8,607.3v7.4h-8.5v-7.4h8.5ZM268.1,606.7c1.1,0,2.3,0,3.4.3,1,.2,2.1.5,3.1.9,1,.4,1.9.9,2.7,1.4.9.6,1.7,1.2,2.4,2,.7.7,1.4,1.6,1.9,2.4.6.9,1,1.8,1.4,2.7.4,1,.7,2,.8,3.1.2,1.1.3,2.3.3,3.4,0,1.1,0,2.2-.3,3.3-.2,1-.5,2-.8,3-.4.9-.8,1.9-1.4,2.7-.6.9-1.2,1.7-1.9,2.4-.7.7-1.5,1.4-2.4,2-.8.6-1.7,1-2.7,1.4-1,.4-2,.7-3,.9-1.1.2-2.2.3-3.3.3-1.1,0-2.3,0-3.4-.3-1-.2-2.1-.5-3.1-.8-1-.4-1.9-.8-2.7-1.4-1.7-1.1-3.2-2.6-4.4-4.4-.6-.9-1-1.8-1.4-2.7-.4-1-.7-2-.9-3-.4-2.2-.4-4.5,0-6.7.2-1,.5-2.1.9-3,.4-1,.8-1.9,1.4-2.7.6-.9,1.2-1.7,2-2.5.7-.8,1.5-1.4,2.4-2,.8-.6,1.7-1.1,2.7-1.4,1-.4,2-.7,3-.9,1.1-.2,2.2-.3,3.3-.3h0ZM268.1,613.8c-1,0-2,.2-3,.6-.9.4-1.6,1-2.2,1.8-.6.8-1.1,1.8-1.4,2.8-.3,1.1-.5,2.3-.5,3.7,0,1.3.1,2.5.5,3.8.3,1,.8,2,1.4,2.9.6.8,1.4,1.4,2.3,1.8.9.4,1.9.6,3,.6,1,0,2-.2,3-.6.9-.4,1.6-1,2.2-1.8.6-.9,1.1-1.8,1.4-2.8.3-1.1.5-2.4.5-3.8,0-1.2-.1-2.5-.5-3.7-.3-1-.8-2-1.4-2.8-.6-.8-1.4-1.4-2.3-1.8-.9-.4-1.9-.6-3-.6h0ZM287.6,607.3h8.5v7.7c0,1.6.3,2.8.9,3.6s1.6,1.2,2.8,1.2c1.3,0,2.3-.4,2.9-1.3s1-2.1,1-3.8v-7.4h8.4v5.4c0,1.3,0,2.5-.2,3.6,0,.9-.2,1.8-.5,2.7-.3.9-.6,1.7-1.1,2.5-.6,1-1.3,1.9-2,2.7-.4.5-.9.9-1.5,1.3-.6.4-1.2.7-1.9.9-.8.3-1.6.4-2.4.5-.9.1-1.9.2-2.8.2-.9,0-1.8,0-2.7-.2-.8-.1-1.5-.3-2.3-.5-.7-.2-1.3-.5-1.9-.9-.5-.3-1-.7-1.5-1.2-.8-.8-1.5-1.7-2.1-2.6-.5-.7-.9-1.5-1.2-2.4-.3-.9-.4-1.8-.5-2.7-.1-1.1-.2-2.3-.2-3.4v-6.1ZM306.9,630.9v7.4h-14.2v-7.4h14.2ZM310.8,600.5h56.8v2.9h-56.8v-2.9ZM314.5,620.8h18.3v7.3h-18.3v-7.3ZM344.5,607.3v7.4h-8.5v-7.4h8.5ZM344.5,619.2v19.1h-8.5v-19.1h8.5ZM369,607.3v7.4h-19.9v-7.4h19.9ZM350.5,619.2h8.4v7.7c0,.7,0,1.3.2,2,.1.5.3.9.5,1.2.2.2.6.4,1.1.6.6.1,1.2.2,1.8.2h5.5v7.4h-7.9c-.8,0-1.6,0-2.3-.2-.7,0-1.4-.3-2-.5-.6-.2-1.1-.5-1.7-.8-.5-.3-.9-.7-1.3-1.1-.4-.4-.7-.9-1-1.5-.3-.6-.5-1.2-.7-1.9-.2-.8-.3-1.5-.4-2.3,0-.9-.1-1.8-.1-2.7v-8.1Z"/>
        <rect class="cls-32" x="209.7" y="447.8" width="9.8" height="21.5" transform="translate(-243.9 673.1) rotate(-90)"/>
        <rect class="cls-32" x="350.2" y="331.5" width="9.8" height="21.5"/>
        <g>
          <rect class="cls-16" x="268.8" y="234.9" width="50.5" height="39.3" rx="2.5" ry="2.5"/>
          <circle class="cls-1" cx="273" cy="266.2" r="2.7"/>
          <g>
            <path class="cls-35" d="M268.7,277.9h12.2v6.1h-12.2c-.7,0-1.2-.6-1.2-1.2v-3.6c0-.7.6-1.2,1.2-1.2Z" transform="translate(-6.8 555.1) rotate(-90)"/>
            <path class="cls-35" d="M281.9,277.9h12.2v6.1h-12.2c-.7,0-1.2-.6-1.2-1.2v-3.6c0-.7.6-1.2,1.2-1.2Z" transform="translate(6.5 568.4) rotate(-90)"/>
            <path class="cls-35" d="M295.2,277.9h12.2v6.1h-12.2c-.7,0-1.2-.6-1.2-1.2v-3.6c0-.7.6-1.2,1.2-1.2Z" transform="translate(19.8 581.6) rotate(-90)"/>
            <path class="cls-35" d="M308.5,277.9h12.2v6.1h-12.2c-.7,0-1.2-.6-1.2-1.2v-3.6c0-.7.6-1.2,1.2-1.2Z" transform="translate(33.1 594.9) rotate(-90)"/>
          </g>
          <g>
            <path class="cls-35" d="M308.5,225.1h12.2v6.1h-12.2c-.7,0-1.2-.6-1.2-1.2v-3.6c0-.7.6-1.2,1.2-1.2Z" transform="translate(542.2 -85.8) rotate(90)"/>
            <path class="cls-35" d="M295.2,225.1h12.2v6.1h-12.2c-.7,0-1.2-.6-1.2-1.2v-3.6c0-.7.6-1.2,1.2-1.2Z" transform="translate(528.9 -72.5) rotate(90)"/>
            <path class="cls-35" d="M281.9,225.1h12.2v6.1h-12.2c-.7,0-1.2-.6-1.2-1.2v-3.6c0-.7.6-1.2,1.2-1.2Z" transform="translate(515.6 -59.2) rotate(90)"/>
            <path class="cls-35" d="M268.7,225.1h12.2v6.1h-12.2c-.7,0-1.2-.6-1.2-1.2v-3.6c0-.7.6-1.2,1.2-1.2Z" transform="translate(502.3 -46) rotate(90)"/>
          </g>
        </g>
        <g>
          <g>
            <path class="cls-35" d="M222.9,252.4h12.2v9.6h-12.2c-.7,0-1.2-.6-1.2-1.2v-7.1c0-.7.6-1.2,1.2-1.2Z" transform="translate(-28.9 485.6) rotate(-90)"/>
            <path class="cls-35" d="M242.5,252.4h12.2v9.6h-12.2c-.7,0-1.2-.6-1.2-1.2v-7.1c0-.7.6-1.2,1.2-1.2Z" transform="translate(-9.2 505.3) rotate(-90)"/>
          </g>
          <g>
            <path class="cls-35" d="M222.2,224.4h12.2v6.1h-12.2c-.7,0-1.2-.6-1.2-1.2v-3.6c0-.7.6-1.2,1.2-1.2Z" transform="translate(455.2 -.2) rotate(90)"/>
            <path class="cls-35" d="M232.7,224.4h12.2v6.1h-12.2c-.7,0-1.2-.6-1.2-1.2v-3.6c0-.7.6-1.2,1.2-1.2Z" transform="translate(465.7 -10.7) rotate(90)"/>
            <path class="cls-35" d="M243.2,224.4h12.2v6.1h-12.2c-.7,0-1.2-.6-1.2-1.2v-3.6c0-.7.6-1.2,1.2-1.2Z" transform="translate(476.2 -21.3) rotate(90)"/>
          </g>
          <rect class="cls-16" x="223" y="234.2" width="30.4" height="16.3" rx=".7" ry=".7"/>
        </g>
        <rect class="cls-32" x="234.5" y="270.6" width="9.8" height="21.5" transform="translate(-42 520.7) rotate(-90)"/>
        <g>
          <rect class="cls-16" x="366.3" y="211.8" width="34.4" height="107"/>
          <g>
            <path class="cls-35" d="M349.4,214.4h16.9v5.9h-16.9c-.7,0-1.2-.6-1.2-1.2v-3.4c0-.7.6-1.2,1.2-1.2Z"/>
            <path class="cls-35" d="M349.4,228.1h16.9v5.9h-16.9c-.7,0-1.2-.6-1.2-1.2v-3.4c0-.7.6-1.2,1.2-1.2Z"/>
            <path class="cls-35" d="M349.4,241.8h16.9v5.9h-16.9c-.7,0-1.2-.6-1.2-1.2v-3.4c0-.7.6-1.2,1.2-1.2Z"/>
            <path class="cls-35" d="M349.4,255.5h16.9v5.9h-16.9c-.7,0-1.2-.6-1.2-1.2v-3.4c0-.7.6-1.2,1.2-1.2Z"/>
            <path class="cls-35" d="M349.4,269.3h16.9v5.9h-16.9c-.7,0-1.2-.6-1.2-1.2v-3.4c0-.7.6-1.2,1.2-1.2Z"/>
            <path class="cls-35" d="M349.4,283h16.9v5.9h-16.9c-.7,0-1.2-.6-1.2-1.2v-3.4c0-.7.6-1.2,1.2-1.2Z"/>
            <path class="cls-35" d="M349.4,296.7h16.9v5.9h-16.9c-.7,0-1.2-.6-1.2-1.2v-3.4c0-.7.6-1.2,1.2-1.2Z"/>
            <path class="cls-35" d="M349.4,310.4h16.9v5.9h-16.9c-.7,0-1.2-.6-1.2-1.2v-3.4c0-.7.6-1.2,1.2-1.2Z"/>
          </g>
          <g>
            <path class="cls-35" d="M401.9,310.4h16.9v5.9h-16.9c-.7,0-1.2-.6-1.2-1.2v-3.4c0-.7.6-1.2,1.2-1.2Z" transform="translate(819.5 626.8) rotate(180)"/>
            <path class="cls-35" d="M401.9,296.7h16.9v5.9h-16.9c-.7,0-1.2-.6-1.2-1.2v-3.4c0-.7.6-1.2,1.2-1.2Z" transform="translate(819.5 599.3) rotate(180)"/>
            <path class="cls-35" d="M401.9,283h16.9v5.9h-16.9c-.7,0-1.2-.6-1.2-1.2v-3.4c0-.7.6-1.2,1.2-1.2Z" transform="translate(819.5 571.9) rotate(180)"/>
            <path class="cls-35" d="M401.9,269.3h16.9v5.9h-16.9c-.7,0-1.2-.6-1.2-1.2v-3.4c0-.7.6-1.2,1.2-1.2Z" transform="translate(819.5 544.4) rotate(180)"/>
            <path class="cls-35" d="M401.9,255.5h16.9v5.9h-16.9c-.7,0-1.2-.6-1.2-1.2v-3.4c0-.7.6-1.2,1.2-1.2Z" transform="translate(819.5 516.9) rotate(180)"/>
            <path class="cls-35" d="M401.9,241.8h16.9v5.9h-16.9c-.7,0-1.2-.6-1.2-1.2v-3.4c0-.7.6-1.2,1.2-1.2Z" transform="translate(819.5 489.5) rotate(180)"/>
            <path class="cls-35" d="M401.9,228.1h16.9v5.9h-16.9c-.7,0-1.2-.6-1.2-1.2v-3.4c0-.7.6-1.2,1.2-1.2Z" transform="translate(819.5 462) rotate(180)"/>
            <path class="cls-35" d="M401.9,214.4h16.9v5.9h-16.9c-.7,0-1.2-.6-1.2-1.2v-3.4c0-.7.6-1.2,1.2-1.2Z" transform="translate(819.5 434.6) rotate(180)"/>
          </g>
          <circle class="cls-1" cx="392.6" cy="309" r="4.9"/>
        </g>
        <rect class="cls-32" x="445.3" y="258.5" width="9.8" height="21.5" transform="translate(719.5 -181) rotate(90)"/>
        <g>
          <rect class="cls-6" x="444.9" y="277.8" width="10.7" height="17.2" transform="translate(736.7 -163.8) rotate(90)"/>
          <rect class="cls-16" x="445" y="280.5" width="10.7" height="11.8" transform="translate(736.8 -163.9) rotate(90)"/>
        </g>
        <g>
          <rect class="cls-6" x="444.9" y="295.4" width="10.7" height="17.2" transform="translate(754.2 -146.2) rotate(90)"/>
          <rect class="cls-16" x="445" y="298.1" width="10.7" height="11.8" transform="translate(754.4 -146.3) rotate(90)"/>
        </g>
        <g>
          <rect class="cls-6" x="398" y="146.6" width="10.7" height="17.2"/>
          <rect class="cls-16" x="398" y="149.2" width="10.7" height="11.8"/>
        </g>
        <g>
          <rect class="cls-6" x="413.6" y="146.5" width="10.7" height="17.2"/>
          <rect class="cls-16" x="413.6" y="149" width="10.7" height="11.8"/>
        </g>
        <path class="cls-35" d="M312.8,183.9h12.2v11.5h-12.2c-.7,0-1.2-.6-1.2-1.2v-9c0-.7.6-1.2,1.2-1.2Z" transform="translate(128.6 508) rotate(-90)"/>
        <g>
          <rect class="cls-5" x="275.5" y="64.7" width="51.5" height="35.1"/>
          <rect class="cls-12" x="287.9" y="64.7" width="26.7" height="35.1"/>
        </g>
        <g>
          <path class="cls-24" d="M370.8,30.6h0s87.6,0,87.6,0h0c2.7,1.4,4.4,4.2,4.4,7.3v70.1c0,1-.8,1.8-1.8,1.8h-92.8c-1,0-1.8-.8-1.8-1.8V37.8c0-3,1.7-5.8,4.4-7.3Z"/>
          <g>
            <path class="cls-22" d="M445.6,103.9h0c0-1.3-1.1-2.4-2.4-2.4h-9.9c-.8,0-1.5-.7-1.5-1.5v-2.1c0-.8.7-1.5,1.5-1.5h9.9c1.3,0,2.4-1.1,2.4-2.4h0c0-1.3-1.1-2.4-2.4-2.4h-14c-1.3,0-2.4,1.1-2.4,2.4v10c0,1.3,1.1,2.4,2.4,2.4h14c1.3,0,2.4-1.1,2.4-2.4Z"/>
            <path class="cls-22" d="M383.7,93.9h0c0,1.3,1.1,2.4,2.4,2.4h9.9c.8,0,1.5.7,1.5,1.5v2.1c0,.8-.7,1.5-1.5,1.5h-9.9c-1.3,0-2.4,1.1-2.4,2.4h0c0,1.3,1.1,2.4,2.4,2.4h14c1.3,0,2.4-1.1,2.4-2.4v-10c0-1.3-1.1-2.4-2.4-2.4h-14c-1.3,0-2.4,1.1-2.4,2.4Z"/>
          </g>
        </g>
        <g>
          <rect class="cls-16" x="198.9" y="111.5" width="69.5" height="37" rx="1.2" ry="1.2"/>
          <g>
            <path class="cls-35" d="M200.5,154.6h16.9v5.9h-16.9c-.7,0-1.2-.6-1.2-1.2v-3.4c0-.7.6-1.2,1.2-1.2Z" transform="translate(50.7 365.9) rotate(-90)"/>
            <path class="cls-35" d="M225.9,154.6h16.9v5.9h-16.9c-.7,0-1.2-.6-1.2-1.2v-3.4c0-.7.6-1.2,1.2-1.2Z" transform="translate(76.1 391.2) rotate(-90)"/>
            <path class="cls-35" d="M251.2,154.6h16.9v5.9h-16.9c-.7,0-1.2-.6-1.2-1.2v-3.4c0-.7.6-1.2,1.2-1.2Z" transform="translate(101.5 416.6) rotate(-90)"/>
          </g>
          <path class="cls-35" d="M219.9,81h25.6v34.3h-25.6c-.7,0-1.2-.6-1.2-1.2v-31.8c0-.7.6-1.2,1.2-1.2Z" transform="translate(330.2 -133.9) rotate(90)"/>
        </g>
        <rect class="cls-16" x="151.2" y="189.7" width="48.4" height="27.1"/>
        <g>
          <rect class="cls-24" x="16.8" y="232.9" width="20" height="20"/>
          <circle class="cls-21" cx="26.8" cy="242.9" r="7.4"/>
          <rect class="cls-24" x="16.8" y="261.5" width="20" height="20"/>
          <circle class="cls-21" cx="26.8" cy="271.5" r="7.4"/>
          <rect class="cls-24" x="16.8" y="290.2" width="20" height="20"/>
          <circle class="cls-21" cx="26.8" cy="300.2" r="7.4"/>
          <rect class="cls-24" x="16.8" y="318.8" width="20" height="20"/>
          <circle class="cls-21" cx="26.8" cy="328.9" r="7.4"/>
        </g>
        <g>
          <rect class="cls-11" x="10.1" y="345.3" width="33.4" height="240.9"/>
          <rect x="17" y="347.9" width="19.6" height="19.6"/>
          <rect x="17" y="378.4" width="19.6" height="19.6"/>
          <rect x="17" y="409" width="19.6" height="19.6"/>
          <rect x="17" y="439.5" width="19.6" height="19.6"/>
          <rect x="17" y="470" width="19.6" height="19.6"/>
          <rect x="17" y="500.5" width="19.6" height="19.6"/>
          <rect x="17" y="531" width="19.6" height="19.6"/>
          <rect x="17" y="561.5" width="19.6" height="19.6"/>
        </g>
        <g>
          <rect class="cls-11" x="10.1" y="591.8" width="33.4" height="178.8"/>
          <g>
            <rect x="17" y="595.1" width="19.6" height="19.6"/>
            <rect x="17" y="625.6" width="19.6" height="19.6"/>
            <rect x="17" y="656.1" width="19.6" height="19.6"/>
            <rect x="17" y="686.6" width="19.6" height="19.6"/>
            <rect x="17" y="717.1" width="19.6" height="19.6"/>
            <rect x="17" y="747.7" width="19.6" height="19.6"/>
          </g>
        </g>
        <g>
          <path class="cls-2" d="M51.1,383.4h2.5v10.4h-2.5v-10.4Z"/>
          <path class="cls-2" d="M55.5,388.6c0-3.4,1.9-5.4,4.8-5.4s4.8,2,4.8,5.4-1.9,5.4-4.8,5.4-4.8-2-4.8-5.4ZM62.5,388.6c0-2-.8-3.2-2.2-3.2s-2.2,1.2-2.2,3.2.9,3.3,2.2,3.3,2.2-1.3,2.2-3.3Z"/>
          <path class="cls-2" d="M67,383.4h3.8c2.2,0,4.1.8,4.1,3.3s-.7,2.5-1.8,3l2.3,4.1h-2.8l-1.9-3.7h-1.2v3.7h-2.5v-10.4ZM70.6,388.2c1.2,0,1.8-.5,1.8-1.5s-.6-1.3-1.8-1.3h-1.1v2.8h1.1Z"/>
          <path class="cls-2" d="M76.9,383.4h6.6v2.1h-4.1v2h3.5v2.1h-3.5v2.2h4.3v2.1h-6.8v-10.4Z"/>
          <path class="cls-2" d="M85.7,383.4h6.7v2.1h-4.2v2.3h3.6v2.1h-3.6v4h-2.5v-10.4Z"/>
        </g>
        <g>
          <path class="cls-2" d="M52.4,413.9h3.8c2.2,0,4.1.8,4.1,3.3s-.7,2.5-1.8,3l2.3,4.1h-2.8l-1.9-3.7h-1.2v3.7h-2.5v-10.4ZM56,418.7c1.2,0,1.8-.5,1.8-1.5s-.6-1.3-1.8-1.3h-1.1v2.8h1.1Z"/>
          <path class="cls-2" d="M62.2,413.9h6.6v2.1h-4.1v2h3.5v2.1h-3.5v2.2h4.3v2.1h-6.8v-10.4Z"/>
          <path class="cls-2" d="M70.4,423l1.3-1.6c.7.6,1.7,1,2.6,1s1.4-.4,1.4-.9-.6-.8-1.5-1.2l-1.3-.6c-1.1-.4-2.1-1.3-2.1-2.8s1.6-3.2,3.8-3.2,2.5.5,3.4,1.3l-1.3,1.6c-.7-.5-1.4-.8-2.1-.8s-1.3.3-1.3.8.7.8,1.6,1.2l1.3.5c1.3.5,2.1,1.4,2.1,2.8s-1.5,3.3-4,3.3-2.8-.5-3.9-1.5Z"/>
          <path class="cls-2" d="M80,413.9h6.6v2.1h-4.1v2h3.5v2.1h-3.5v2.2h4.3v2.1h-6.8v-10.4Z"/>
          <path class="cls-2" d="M90.8,416h-2.8v-2.1h8.1v2.1h-2.8v8.3h-2.5v-8.3Z"/>
        </g>
        <g>
          <path class="cls-2" d="M52.7,453.6l1.1-1.6c.6.6,1.4,1,2.2,1s1.6-.4,1.6-1.2-.5-1.4-2.7-1.4v-1.8c1.8,0,2.3-.5,2.3-1.4s-.4-1.1-1.2-1.1-1.2.3-1.9.9l-1.2-1.5c.9-.8,2-1.3,3.2-1.3,2.2,0,3.6,1,3.6,2.9s-.6,1.8-1.7,2.3h0c1.2.4,2,1.2,2,2.6,0,2-1.8,3-3.8,3s-2.8-.6-3.6-1.4Z"/>
          <path class="cls-2" d="M61.9,453.5c0-.9.6-1.5,1.5-1.5s1.5.7,1.5,1.5-.6,1.5-1.5,1.5-1.5-.7-1.5-1.5Z"/>
          <path class="cls-2" d="M66.2,453.6l1.1-1.6c.6.6,1.4,1,2.2,1s1.6-.4,1.6-1.2-.5-1.4-2.7-1.4v-1.8c1.8,0,2.3-.5,2.3-1.4s-.4-1.1-1.2-1.1-1.2.3-1.9.9l-1.2-1.5c.9-.8,2-1.3,3.2-1.3,2.2,0,3.6,1,3.6,2.9s-.6,1.8-1.7,2.3h0c1.2.4,2,1.2,2,2.6,0,2-1.8,3-3.8,3s-2.8-.6-3.6-1.4Z"/>
          <path class="cls-2" d="M74.2,444.5h2.6l1.1,4.8c.3,1.1.5,2.2.8,3.3h0c.3-1.1.5-2.2.8-3.3l1.2-4.8h2.5l-3.2,10.4h-3l-3.1-10.4Z"/>
        </g>
        <g>
          <path class="cls-2" d="M54,484.1l1.1-1.6c.6.6,1.3,1,2.1,1s1.6-.6,1.6-1.6-.6-1.6-1.5-1.6-.9.1-1.5.5l-1.1-.7.3-5.2h5.8v2.1h-3.7v1.8c.2-.1.5-.2.9-.2,1.8,0,3.2,1,3.2,3.3s-1.8,3.7-3.8,3.7-2.8-.6-3.6-1.4Z"/>
          <path class="cls-2" d="M62,475h2.6l1.1,4.8c.3,1.1.5,2.2.8,3.3h0c.3-1.1.5-2.2.8-3.3l1.2-4.8h2.5l-3.2,10.4h-3l-3.1-10.4Z"/>
        </g>
        <g>
          <path class="cls-2" d="M55.6,510.8c0-3.5,2.3-5.5,5.1-5.5s2.6.6,3.3,1.4l-1.3,1.5c-.5-.5-1.1-.7-1.9-.7-1.5,0-2.7,1.2-2.7,3.2s.9,3.3,2.9,3.3.8,0,1-.3v-1.7h-1.7v-2h3.9v4.9c-.7.7-2,1.3-3.5,1.3-2.9,0-5.2-1.8-5.2-5.3Z"/>
          <path class="cls-2" d="M66.3,505.5h2.6l2.6,5c.4.7.7,1.5,1,2.4h0c-.1-1.1-.3-2.6-.3-3.8v-3.5h2.4v10.4h-2.6l-2.6-5c-.4-.7-.7-1.5-1-2.4h0c.1,1.2.3,2.6.3,3.8v3.5h-2.4v-10.4Z"/>
          <path class="cls-2" d="M77,505.5h3c3.2,0,5.3,1.6,5.3,5.2s-2.1,5.2-5.1,5.2h-3.1v-10.4ZM79.8,513.9c1.7,0,2.9-.8,2.9-3.2s-1.2-3.2-2.9-3.2h-.4v6.4h.4Z"/>
        </g>
        <g>
          <path class="cls-2" d="M56.8,541.3c0-3.5,2.3-5.5,5.1-5.5s2.6.6,3.3,1.4l-1.3,1.5c-.5-.5-1.1-.7-1.9-.7-1.5,0-2.7,1.2-2.7,3.2s.9,3.3,2.9,3.3.8,0,1-.3v-1.7h-1.7v-2h3.9v4.9c-.7.7-2,1.3-3.5,1.3-2.9,0-5.2-1.8-5.2-5.3Z"/>
          <path class="cls-2" d="M67.5,536h2.6l2.6,5c.4.7.7,1.5,1,2.4h0c-.1-1.1-.3-2.6-.3-3.8v-3.5h2.4v10.4h-2.6l-2.6-5c-.4-.7-.7-1.5-1-2.4h0c.1,1.2.3,2.6.3,3.8v3.5h-2.4v-10.4Z"/>
          <path class="cls-2" d="M78.2,536h3c3.2,0,5.3,1.6,5.3,5.2s-2.1,5.2-5.1,5.2h-3.1v-10.4ZM81.1,544.4c1.7,0,2.9-.8,2.9-3.2s-1.2-3.2-2.9-3.2h-.4v6.4h.4Z"/>
        </g>
        <g>
          <path class="cls-2" d="M57.2,566.5h2.6l1.1,4.8c.3,1.1.5,2.2.8,3.3h0c.3-1.1.5-2.2.8-3.3l1.2-4.8h2.5l-3.2,10.4h-3l-3.1-10.4Z"/>
          <path class="cls-2" d="M67.5,566.5h2.5v10.4h-2.5v-10.4Z"/>
          <path class="cls-2" d="M72.4,566.5h2.6l2.6,5c.4.7.7,1.5,1,2.4h0c-.1-1.1-.3-2.6-.3-3.8v-3.5h2.4v10.4h-2.6l-2.6-5c-.4-.7-.7-1.5-1-2.4h0c.1,1.2.3,2.6.3,3.8v3.5h-2.4v-10.4Z"/>
        </g>
        <g>
          <path class="cls-2" d="M61.7,600.1h3l3.2,10.4h-2.6l-.6-2.4h-3.1l-.6,2.4h-2.5l3.2-10.4ZM62.1,606.2h2.1l-.2-.9c-.3-1-.5-2.3-.8-3.3h0c-.3,1.1-.5,2.3-.8,3.3l-.2.9Z"/>
          <path class="cls-2" d="M68.3,605.3c0-3.6,1.5-5.4,3.7-5.4s3.7,1.8,3.7,5.4-1.5,5.4-3.7,5.4-3.7-1.9-3.7-5.4ZM73.4,605.3c0-2.8-.6-3.5-1.3-3.5s-1.3.6-1.3,3.5.6,3.5,1.3,3.5,1.3-.7,1.3-3.5Z"/>
        </g>
        <g>
          <path class="cls-2" d="M62.9,630.6h3l3.2,10.4h-2.6l-.6-2.4h-3.1l-.6,2.4h-2.5l3.2-10.4ZM63.3,636.7h2.1l-.2-.9c-.3-1-.5-2.3-.8-3.3h0c-.3,1.1-.5,2.3-.8,3.3l-.2.9Z"/>
          <path class="cls-2" d="M70.1,639h2.2v-5.9h-1.9v-1.5c1.1-.2,1.8-.5,2.6-.9h1.8v8.4h1.9v2h-6.6v-2Z"/>
        </g>
        <g>
          <path class="cls-2" d="M64.1,661.1h3l3.2,10.4h-2.6l-.6-2.4h-3.1l-.6,2.4h-2.5l3.2-10.4ZM64.5,667.2h2.1l-.2-.9c-.3-1-.5-2.3-.8-3.3h0c-.3,1.1-.5,2.3-.8,3.3l-.2.9Z"/>
          <path class="cls-2" d="M70.8,670c2.7-2.3,4.4-4.2,4.4-5.6s-.5-1.5-1.4-1.5-1.3.5-1.8,1l-1.3-1.3c1-1.1,1.9-1.7,3.4-1.7s3.4,1.3,3.4,3.3-1.7,3.8-3.3,5.4c.5,0,1.2-.1,1.7-.1h2.1v2.1h-7.2v-1.5Z"/>
        </g>
        <g>
          <path class="cls-2" d="M65.4,691.6h3l3.2,10.4h-2.6l-.6-2.4h-3.1l-.6,2.4h-2.5l3.2-10.4ZM65.8,697.7h2.1l-.2-.9c-.3-1-.5-2.3-.8-3.3h0c-.3,1.1-.5,2.3-.8,3.3l-.2.9Z"/>
          <path class="cls-2" d="M71.8,700.8l1.1-1.6c.6.6,1.4,1,2.2,1s1.6-.4,1.6-1.2-.5-1.4-2.7-1.4v-1.8c1.8,0,2.3-.5,2.3-1.4s-.4-1.1-1.2-1.1-1.2.3-1.9.9l-1.2-1.5c.9-.8,2-1.3,3.2-1.3,2.2,0,3.6,1,3.6,2.9s-.6,1.8-1.7,2.3h0c1.2.4,2,1.2,2,2.6,0,2-1.8,3-3.8,3s-2.8-.6-3.6-1.4Z"/>
        </g>
        <g>
          <path class="cls-2" d="M66.6,722.1h3l3.2,10.4h-2.6l-.6-2.4h-3.1l-.6,2.4h-2.5l3.2-10.4ZM67,728.2h2.1l-.2-.9c-.3-1-.5-2.3-.8-3.3h0c-.3,1.1-.5,2.3-.8,3.3l-.2.9Z"/>
          <path class="cls-2" d="M77.4,730h-4.4v-1.7l3.6-6.1h3.1v5.9h1.2v1.9h-1.2v2.6h-2.3v-2.6ZM77.4,728.1v-1.5c0-.7,0-1.6,0-2.3h0c-.3.6-.5,1.2-.8,1.8l-1.2,2.1h2Z"/>
          <path class="cls-2" d="M84.5,721.2h1.6l-3.1,13.9h-1.6l3.1-13.9Z"/>
          <path class="cls-2" d="M87.1,731.2l1.3-1.6c.7.6,1.7,1,2.6,1s1.4-.4,1.4-.9-.6-.8-1.5-1.2l-1.3-.6c-1.1-.4-2.1-1.3-2.1-2.8s1.6-3.2,3.8-3.2,2.5.5,3.4,1.3l-1.3,1.6c-.7-.5-1.4-.8-2.1-.8s-1.3.3-1.3.8.7.8,1.6,1.2l1.3.5c1.3.5,2.1,1.4,2.1,2.8s-1.5,3.3-4,3.3-2.8-.5-3.9-1.5Z"/>
          <path class="cls-2" d="M96.7,722.1h3c3.2,0,5.3,1.6,5.3,5.2s-2.1,5.2-5.1,5.2h-3.1v-10.4ZM99.6,730.5c1.7,0,2.9-.8,2.9-3.2s-1.2-3.2-2.9-3.2h-.4v6.4h.4Z"/>
          <path class="cls-2" d="M108.7,722.1h3l3.2,10.4h-2.6l-.6-2.4h-3.1l-.6,2.4h-2.5l3.2-10.4ZM109.1,728.2h2.1l-.2-.9c-.3-1-.5-2.3-.8-3.3h0c-.3,1.1-.5,2.3-.8,3.3l-.2.9Z"/>
        </g>
        <g>
          <path class="cls-2" d="M67.8,749.6h3l3.2,10.4h-2.6l-.6-2.4h-3.1l-.6,2.4h-2.5l3.2-10.4ZM68.2,755.7h2.1l-.2-.9c-.3-1-.5-2.3-.8-3.3h0c-.3,1.1-.5,2.3-.8,3.3l-.2.9Z"/>
          <path class="cls-2" d="M74.3,758.8l1.1-1.6c.6.6,1.3,1,2.1,1s1.6-.6,1.6-1.6-.6-1.6-1.5-1.6-.9.1-1.5.5l-1.1-.7.3-5.2h5.8v2.1h-3.7v1.8c.2-.1.5-.2.9-.2,1.8,0,3.2,1,3.2,3.3s-1.8,3.7-3.8,3.7-2.8-.6-3.6-1.4Z"/>
          <path class="cls-2" d="M85.8,748.6h1.6l-3.1,13.9h-1.6l3.1-13.9Z"/>
          <path class="cls-2" d="M88.4,758.7l1.3-1.6c.7.6,1.7,1,2.6,1s1.4-.4,1.4-.9-.6-.8-1.5-1.2l-1.3-.6c-1.1-.4-2.1-1.3-2.1-2.8s1.6-3.2,3.8-3.2,2.5.5,3.4,1.3l-1.3,1.6c-.7-.5-1.4-.8-2.1-.8s-1.3.3-1.3.8.7.8,1.6,1.2l1.3.5c1.3.5,2.1,1.4,2.1,2.8s-1.5,3.3-4,3.3-2.8-.5-3.9-1.5Z"/>
          <path class="cls-2" d="M97.5,754.9c0-3.5,2.3-5.5,5-5.5s2.4.6,3.2,1.4l-1.3,1.5c-.5-.5-1.1-.7-1.8-.7-1.4,0-2.5,1.2-2.5,3.2s1,3.3,2.4,3.3,1.5-.3,2-.9l1.3,1.5c-.9,1-2.1,1.5-3.4,1.5-2.7,0-4.9-1.8-4.9-5.3Z"/>
          <path class="cls-2" d="M107.3,749.6h2.5v8.3h4v2.1h-6.5v-10.4Z"/>
        </g>
        <g>
          <path class="cls-2" d="M120.3,442.7v3.7c0,2.3-.8,4.2-3.4,4.2s-3.6-1.9-3.6-4.1v-1.2h-3.5v-2.5h10.4ZM115.3,446.3c0,1.2.6,1.8,1.6,1.8s1.4-.7,1.4-1.9v-1h-3v1.1Z"/>
          <path class="cls-2" d="M115.1,451.8c3.4,0,5.4,1.9,5.4,4.8s-2,4.8-5.4,4.8-5.4-1.9-5.4-4.8,2-4.8,5.4-4.8ZM115.1,458.8c2,0,3.2-.8,3.2-2.2s-1.2-2.2-3.2-2.2-3.3.9-3.3,2.2,1.3,2.2,3.3,2.2Z"/>
          <path class="cls-2" d="M120.3,462.3v2.5l-4.8.7c-1.1.1-2.2.3-3.3.4h0c1.1.3,2.2.5,3.3.7l4.8,1.1v2.1l-4.8,1.1c-1.1.2-2.2.4-3.3.6h0c1.2.2,2.3.3,3.3.4l4.8.7v2.4l-10.4-1.8v-3.2l4.6-.9c.8-.2,1.6-.3,2.5-.4h0c-.8-.2-1.6-.3-2.5-.5l-4.6-.9v-3.1l10.4-1.9Z"/>
          <path class="cls-2" d="M120.3,476.4v6.6h-2.1v-4.1h-2v3.5h-2.1v-3.5h-2.2v4.3h-2.1v-6.8h10.4Z"/>
          <path class="cls-2" d="M120.3,485.2v3.8c0,2.2-.8,4.1-3.3,4.1s-2.5-.7-3-1.8l-4.1,2.3v-2.8l3.7-1.9v-1.2h-3.7v-2.5h10.4ZM115.5,488.8c0,1.2.5,1.8,1.5,1.8s1.3-.6,1.3-1.8v-1.1h-2.8v1.1Z"/>
        </g>
        <g>
          <path class="cls-2" d="M120.3,645.1v3l-10.4,3.2v-2.6l2.4-.6v-3.1l-2.4-.6v-2.5l10.4,3.2ZM114.2,645.5v2.1l.9-.2c1-.3,2.3-.5,3.3-.8h0c-1.1-.3-2.3-.6-3.3-.9l-.9-.2Z"/>
          <path class="cls-2" d="M120.3,652.4v2.6l-5,2.6c-.7.4-1.5.7-2.4,1h0c1.1,0,2.6-.3,3.8-.3h3.5v2.4h-10.4v-2.6l5-2.6c.7-.4,1.5-.7,2.4-1h0c-1.2,0-2.6.3-3.8.3h-3.5v-2.4h10.4Z"/>
          <path class="cls-2" d="M120.3,665v3l-10.4,3.2v-2.6l2.4-.6v-3.1l-2.4-.6v-2.5l10.4,3.2ZM114.2,665.3v2.1l.9-.2c1-.3,2.3-.5,3.3-.8h0c-1.1-.3-2.3-.6-3.3-.9l-.9-.2Z"/>
          <path class="cls-2" d="M120.3,672.2v2.5h-8.3v4h-2.1v-6.5h10.4Z"/>
          <path class="cls-2" d="M115.1,679.5c3.4,0,5.4,1.9,5.4,4.8s-2,4.8-5.4,4.8-5.4-1.9-5.4-4.8,2-4.8,5.4-4.8ZM115.1,686.5c2,0,3.2-.8,3.2-2.2s-1.2-2.2-3.2-2.2-3.3.9-3.3,2.2,1.3,2.2,3.3,2.2Z"/>
          <path class="cls-2" d="M115,690.5c3.5,0,5.5,2.3,5.5,5.1s-.6,2.6-1.4,3.3l-1.5-1.3c.5-.5.7-1.1.7-1.9,0-1.5-1.2-2.7-3.2-2.7s-3.3.9-3.3,2.9,0,.8.3,1h1.7v-1.7h2v3.9h-4.9c-.7-.7-1.3-2-1.3-3.5,0-2.9,1.8-5.2,5.3-5.2Z"/>
          <path class="cls-2" d="M120.3,704.4v2.5h-10.4v-2.5h10.4Z"/>
          <path class="cls-2" d="M120.3,709.3v2.6l-5,2.6c-.7.4-1.5.7-2.4,1h0c1.1,0,2.6-.3,3.8-.3h3.5v2.4h-10.4v-2.6l5-2.6c.7-.4,1.5-.7,2.4-1h0c-1.2,0-2.6.3-3.8.3h-3.5v-2.4h10.4Z"/>
        </g>
        <rect class="cls-30" x="124.6" y="600.4" width="4.5" height="159.9" rx="2.3" ry="2.3"/>
        <rect class="cls-30" x="124.6" y="373.8" width="4.5" height="187.7" rx="2.3" ry="2.3"/>
        <g>
          <g>
            <polygon class="cls-29" points="293.1 750.4 289.5 750.4 289.4 750.4 285.8 750.4 277.3 758.8 277.3 791.9 285.8 800.4 289.4 800.4 289.5 800.4 293.1 800.4 301.6 791.9 301.6 758.8 293.1 750.4"/>
            <g>
              <rect class="cls-20" x="286.3" y="760" width="6.2" height="6.2"/>
              <rect class="cls-20" x="286.3" y="784.6" width="6.2" height="6.2"/>
            </g>
          </g>
          <g>
            <polygon class="cls-29" points="317.3 750.4 313.7 750.4 313.6 750.4 310 750.4 301.6 758.8 301.6 791.9 310 800.4 313.6 800.4 313.7 800.4 317.3 800.4 325.8 791.9 325.8 758.8 317.3 750.4"/>
            <g>
              <rect class="cls-20" x="310.6" y="760" width="6.2" height="6.2"/>
              <rect class="cls-20" x="310.6" y="784.6" width="6.2" height="6.2"/>
            </g>
          </g>
          <g>
            <polygon class="cls-29" points="341.5 750.4 337.9 750.4 337.9 750.4 334.2 750.4 325.8 758.8 325.8 791.9 334.2 800.4 337.9 800.4 337.9 800.4 341.5 800.4 350 791.9 350 758.8 341.5 750.4"/>
            <g>
              <rect class="cls-20" x="334.8" y="760" width="6.2" height="6.2"/>
              <rect class="cls-20" x="334.8" y="784.6" width="6.2" height="6.2"/>
            </g>
          </g>
        </g>
        <path class="cls-30" d="M271.3,738.9c-1.3,0-2.3,1-2.3,2.3v58.5c0,1.3,1,2.3,2.3,2.3h0c1.3,0,2.3-1,2.3-2.3v-53.9c0-1.3,1-2.3,2.3-2.3h75.6c1.3,0,2.3,1,2.3,2.3v53.9c0,1.3,1,2.3,2.3,2.3h0c1.3,0,2.3-1,2.3-2.3v-58.5c0-1.3-1-2.3-2.3-2.3h-84.7Z"/>
        <rect class="cls-30" x="465.9" y="364.2" width="4.5" height="394.7" rx="2.3" ry="2.3"/>
        <g>
          <path class="cls-2" d="M487.3,505.9v3c0,3.2-1.6,5.3-5.2,5.3s-5.2-2.1-5.2-5.1v-3.1h10.4ZM478.9,508.7c0,1.7.8,2.9,3.2,2.9s3.2-1.2,3.2-2.9v-.4h-6.4v.4Z"/>
          <path class="cls-2" d="M487.3,516.1v2.5h-10.4v-2.5h10.4Z"/>
          <path class="cls-2" d="M482,520.5c3.5,0,5.5,2.3,5.5,5.1s-.6,2.6-1.4,3.3l-1.5-1.3c.5-.5.7-1.1.7-1.9,0-1.5-1.2-2.7-3.2-2.7s-3.3.9-3.3,2.9,0,.8.3,1h1.7v-1.7h2v3.9h-4.9c-.7-.7-1.3-2-1.3-3.5,0-2.9,1.8-5.2,5.3-5.2Z"/>
          <path class="cls-2" d="M487.3,531.2v2.5h-10.4v-2.5h10.4Z"/>
          <path class="cls-2" d="M485.2,538.1v-2.8h2.1v8.1h-2.1v-2.8h-8.3v-2.5h8.3Z"/>
          <path class="cls-2" d="M487.3,546.3v3l-10.4,3.2v-2.6l2.4-.6v-3.1l-2.4-.6v-2.5l10.4,3.2ZM481.2,546.7v2.1l.9-.2c1-.3,2.3-.5,3.3-.8h0c-1.1-.3-2.3-.6-3.3-.9l-.9-.2Z"/>
          <path class="cls-2" d="M487.3,553.6v2.5h-8.3v4h-2.1v-6.5h10.4Z"/>
          <path class="cls-2" d="M481.4,565.1c2.8,0,5.1.8,7.3,2.1l-.6,1.6c-2.1-1.2-4.4-1.7-6.7-1.7s-4.6.5-6.7,1.7l-.6-1.6c2.2-1.3,4.5-2.1,7.3-2.1Z"/>
          <path class="cls-2" d="M487.3,570.7v3.7c0,2.3-.8,4.2-3.4,4.2s-3.6-1.9-3.6-4.1v-1.2h-3.5v-2.5h10.4ZM482.3,574.3c0,1.2.6,1.8,1.6,1.8s1.4-.7,1.4-1.9v-1h-3v1.1Z"/>
          <path class="cls-2" d="M487.3,579.4v2.5l-4.8.7c-1.1.1-2.2.3-3.3.4h0c1.1.3,2.2.5,3.3.7l4.8,1.1v2.1l-4.8,1.1c-1.1.2-2.2.4-3.3.6h0c1.2.2,2.3.3,3.3.4l4.8.7v2.4l-10.4-1.8v-3.2l4.6-.9c.8-.2,1.6-.3,2.5-.4h0c-.8-.2-1.6-.3-2.5-.5l-4.6-.9v-3.1l10.4-1.9Z"/>
          <path class="cls-2" d="M487.3,593.4v2.7l-4.5,1.6c-.6.2-1.2.4-1.9.6h0c.7.3,1.3.4,1.9.6l4.5,1.6v2.7h-10.4v-2.3h3.6c1,0,2.8.2,3.8.3h0c0,0-2.7-.9-2.7-.9l-3.8-1.4v-1.4l3.8-1.4,2.7-.8h0c-1,0-2.8.3-3.8.3h-3.6v-2.2h10.4Z"/>
          <path class="cls-2" d="M481.9,607.3c0-.4-.4-.8-.9-1.1l1-1.3c1.2.8,1.7,1.6,1.7,2.4,0,1.3-1.2,1.9-1.2,2.8s.4.8.9,1.1l-1,1.3c-1.2-.8-1.7-1.6-1.7-2.4,0-1.3,1.2-1.9,1.2-2.8Z"/>
          <path class="cls-2" d="M474.7,613.8c2.1,1.2,4.4,1.7,6.7,1.7s4.6-.5,6.7-1.7l.6,1.6c-2.2,1.3-4.5,2.1-7.3,2.1s-5.1-.8-7.3-2.1l.6-1.6Z"/>
        </g>
        <g>
          <rect class="cls-11" x="559.8" y="534.3" width="33.4" height="240.9"/>
          <rect x="566.7" y="536.9" width="19.6" height="19.6"/>
          <rect x="566.7" y="567.5" width="19.6" height="19.6"/>
          <rect x="566.7" y="598" width="19.6" height="19.6"/>
          <rect x="566.7" y="628.5" width="19.6" height="19.6"/>
          <rect x="566.7" y="659" width="19.6" height="19.6"/>
          <rect x="566.7" y="689.5" width="19.6" height="19.6"/>
          <rect x="566.7" y="720" width="19.6" height="19.6"/>
          <rect x="566.7" y="750.5" width="19.6" height="19.6"/>
        </g>
        <g>
          <rect class="cls-11" x="559.8" y="231" width="33.4" height="301.1"/>
          <rect x="566.7" y="295.7" width="19.6" height="19.6"/>
          <rect x="566.7" y="326.2" width="19.6" height="19.6"/>
          <rect x="566.7" y="356.7" width="19.6" height="19.6"/>
          <rect x="566.7" y="387.2" width="19.6" height="19.6"/>
          <rect x="566.7" y="417.7" width="19.6" height="19.6"/>
          <rect x="566.7" y="448.2" width="19.6" height="19.6"/>
          <rect x="566.7" y="478.8" width="19.6" height="19.6"/>
          <rect x="566.7" y="509.3" width="19.6" height="19.6"/>
          <rect x="566.7" y="265.2" width="19.6" height="19.6"/>
          <rect x="566.7" y="234.9" width="19.6" height="19.6"/>
        </g>
        <g>
          <g>
            <path class="cls-2" d="M509.6,239.9h3l3.2,10.4h-2.6l-.6-2.4h-3.1l-.6,2.4h-2.5l3.2-10.4ZM510,246h2.1l-.2-.9c-.3-1-.5-2.3-.8-3.3h0c-.3,1.1-.5,2.3-.8,3.3l-.2.9Z"/>
            <path class="cls-2" d="M516,249.1l1.1-1.6c.6.6,1.3,1,2.1,1s1.6-.6,1.6-1.6-.6-1.6-1.5-1.6-.9.1-1.5.5l-1.1-.7.3-5.2h5.8v2.1h-3.7v1.8c.2-.1.5-.2.9-.2,1.8,0,3.2,1,3.2,3.3s-1.8,3.7-3.8,3.7-2.8-.6-3.6-1.4Z"/>
            <path class="cls-2" d="M527.5,239h1.6l-3.1,13.9h-1.6l3.1-13.9Z"/>
            <path class="cls-2" d="M530.1,249l1.3-1.6c.7.6,1.7,1,2.6,1s1.4-.4,1.4-.9-.6-.8-1.5-1.2l-1.3-.6c-1.1-.4-2.1-1.3-2.1-2.8s1.6-3.2,3.8-3.2,2.5.5,3.4,1.3l-1.3,1.6c-.7-.5-1.4-.8-2.1-.8s-1.3.3-1.3.8.7.8,1.6,1.2l1.3.5c1.3.5,2.1,1.4,2.1,2.8s-1.5,3.3-4,3.3-2.8-.5-3.9-1.5Z"/>
            <path class="cls-2" d="M539.2,245.2c0-3.5,2.3-5.5,5-5.5s2.4.6,3.2,1.4l-1.3,1.5c-.5-.5-1.1-.7-1.8-.7-1.4,0-2.5,1.2-2.5,3.2s1,3.3,2.4,3.3,1.5-.3,2-.9l1.3,1.5c-.9,1-2.1,1.5-3.4,1.5-2.7,0-4.9-1.8-4.9-5.3Z"/>
            <path class="cls-2" d="M549,239.9h2.5v8.3h4v2.1h-6.5v-10.4Z"/>
          </g>
          <g>
            <path class="cls-2" d="M507.4,270.2h3l3.2,10.4h-2.6l-.6-2.4h-3.1l-.6,2.4h-2.5l3.2-10.4ZM507.8,276.3h2.1l-.2-.9c-.3-1-.5-2.3-.8-3.3h0c-.3,1.1-.5,2.3-.8,3.3l-.2.9Z"/>
            <path class="cls-2" d="M518.2,278h-4.4v-1.7l3.6-6.1h3.1v5.9h1.2v1.9h-1.2v2.6h-2.3v-2.6ZM518.2,276.1v-1.5c0-.7,0-1.6,0-2.3h0c-.3.6-.5,1.2-.8,1.8l-1.2,2.1h2Z"/>
            <path class="cls-2" d="M525.4,269.2h1.6l-3.1,13.9h-1.6l3.1-13.9Z"/>
            <path class="cls-2" d="M528,279.3l1.3-1.6c.7.6,1.7,1,2.6,1s1.4-.4,1.4-.9-.6-.8-1.5-1.2l-1.3-.6c-1.1-.4-2.1-1.3-2.1-2.8s1.6-3.2,3.8-3.2,2.5.5,3.4,1.3l-1.3,1.6c-.7-.5-1.4-.8-2.1-.8s-1.3.3-1.3.8.7.8,1.6,1.2l1.3.5c1.3.5,2.1,1.4,2.1,2.8s-1.5,3.3-4,3.3-2.8-.5-3.9-1.5Z"/>
            <path class="cls-2" d="M537.6,270.2h3c3.2,0,5.3,1.6,5.3,5.2s-2.1,5.2-5.1,5.2h-3.1v-10.4ZM540.4,278.6c1.7,0,2.9-.8,2.9-3.2s-1.2-3.2-2.9-3.2h-.4v6.4h.4Z"/>
            <path class="cls-2" d="M549.5,270.2h3l3.2,10.4h-2.6l-.6-2.4h-3.1l-.6,2.4h-2.5l3.2-10.4ZM549.9,276.3h2.1l-.2-.9c-.3-1-.5-2.3-.8-3.3h0c-.3,1.1-.5,2.3-.8,3.3l-.2.9Z"/>
          </g>
          <g>
            <path class="cls-2" d="M521.8,300.7h3l3.2,10.4h-2.6l-.6-2.4h-3.1l-.6,2.4h-2.5l3.2-10.4ZM522.2,306.8h2.1l-.2-.9c-.3-1-.5-2.3-.8-3.3h0c-.3,1.1-.5,2.3-.8,3.3l-.2.9Z"/>
            <path class="cls-2" d="M529.1,300.7h3.8c2.2,0,4.1.8,4.1,3.3s-.7,2.5-1.8,3l2.3,4.1h-2.8l-1.9-3.7h-1.2v3.7h-2.5v-10.4ZM532.7,305.5c1.2,0,1.8-.5,1.8-1.5s-.6-1.3-1.8-1.3h-1.1v2.8h1.1Z"/>
            <path class="cls-2" d="M539,300.7h6.6v2.1h-4.1v2h3.5v2.1h-3.5v2.2h4.3v2.1h-6.8v-10.4Z"/>
            <path class="cls-2" d="M547.8,300.7h6.7v2.1h-4.2v2.3h3.6v2.1h-3.6v4h-2.5v-10.4Z"/>
          </g>
          <g>
            <path class="cls-2" d="M524.1,336.5c0-3.5,2.3-5.5,5.1-5.5s2.6.6,3.3,1.4l-1.3,1.5c-.5-.5-1.1-.7-1.9-.7-1.5,0-2.7,1.2-2.7,3.2s.9,3.3,2.9,3.3.8,0,1-.3v-1.7h-1.7v-2h3.9v4.9c-.7.7-2,1.3-3.5,1.3-2.9,0-5.2-1.8-5.2-5.3Z"/>
            <path class="cls-2" d="M534.8,331.2h2.6l2.6,5c.4.7.7,1.5,1,2.4h0c-.1-1.1-.3-2.6-.3-3.8v-3.5h2.4v10.4h-2.6l-2.6-5c-.4-.7-.7-1.5-1-2.4h0c.1,1.2.3,2.6.3,3.8v3.5h-2.4v-10.4Z"/>
            <path class="cls-2" d="M545.5,331.2h3c3.2,0,5.3,1.6,5.3,5.2s-2.1,5.2-5.1,5.2h-3.1v-10.4ZM548.3,339.6c1.7,0,2.9-.8,2.9-3.2s-1.2-3.2-2.9-3.2h-.4v6.4h.4Z"/>
          </g>
          <g>
            <path class="cls-2" d="M496,370.1h2.2v-5.9h-1.9v-1.5c1.1-.2,1.8-.5,2.6-.9h1.8v8.4h1.9v2h-6.6v-2Z"/>
            <path class="cls-2" d="M503.8,370.9l1.1-1.6c.6.6,1.4,1,2.2,1s1.6-.4,1.6-1.2-.5-1.4-2.7-1.4v-1.8c1.8,0,2.3-.5,2.3-1.4s-.4-1.1-1.2-1.1-1.2.3-1.9.9l-1.2-1.5c.9-.8,2-1.3,3.2-1.3,2.2,0,3.6,1,3.6,2.9s-.6,1.8-1.7,2.3h0c1.2.4,2,1.2,2,2.6,0,2-1.8,3-3.8,3s-2.8-.6-3.6-1.4Z"/>
            <path class="cls-2" d="M515.3,360.8h1.6l-3.1,13.9h-1.6l3.1-13.9Z"/>
            <path class="cls-2" d="M517.9,370.8l1.3-1.6c.7.6,1.7,1,2.6,1s1.4-.4,1.4-.9-.6-.8-1.5-1.2l-1.3-.6c-1.1-.4-2.1-1.3-2.1-2.8s1.6-3.2,3.8-3.2,2.5.5,3.4,1.3l-1.3,1.6c-.7-.5-1.4-.8-2.1-.8s-1.3.3-1.3.8.7.8,1.6,1.2l1.3.5c1.3.5,2.1,1.4,2.1,2.8s-1.5,3.3-4,3.3-2.8-.5-3.9-1.5Z"/>
            <path class="cls-2" d="M527,367c0-3.5,2.3-5.5,5-5.5s2.4.6,3.2,1.4l-1.3,1.5c-.5-.5-1.1-.7-1.8-.7-1.4,0-2.5,1.2-2.5,3.2s1,3.3,2.4,3.3,1.5-.3,2-.9l1.3,1.5c-.9,1-2.1,1.5-3.4,1.5-2.7,0-4.9-1.8-4.9-5.3Z"/>
            <path class="cls-2" d="M536.8,361.7h2.5v8.3h4v2.1h-6.5v-10.4Z"/>
            <path class="cls-2" d="M545.2,361.7h2.5v4.1h0l3-4.1h2.7l-3.1,4.2,3.7,6.2h-2.7l-2.5-4.3-1.1,1.5v2.7h-2.5v-10.4Z"/>
          </g>
          <g>
            <path class="cls-2" d="M494.9,400.6h2.2v-5.9h-1.9v-1.5c1.1-.2,1.8-.5,2.6-.9h1.8v8.4h1.9v2h-6.6v-2Z"/>
            <path class="cls-2" d="M502.9,401.1c2.7-2.3,4.4-4.2,4.4-5.6s-.5-1.5-1.4-1.5-1.3.5-1.8,1l-1.3-1.3c1-1.1,1.9-1.7,3.4-1.7s3.4,1.3,3.4,3.3-1.7,3.8-3.3,5.4c.5,0,1.2-.1,1.7-.1h2.1v2.1h-7.2v-1.5Z"/>
            <path class="cls-2" d="M514.2,391.3h1.6l-3.1,13.9h-1.6l3.1-13.9Z"/>
            <path class="cls-2" d="M517.4,392.2h2.7l1.6,4.5c.2.6.4,1.2.6,1.9h0c.2-.7.4-1.3.6-1.9l1.6-4.5h2.7v10.4h-2.3v-3.6c0-1,.2-2.8.3-3.8h0l-.9,2.7-1.4,3.8h-1.4l-1.4-3.8-.8-2.7h0c.1,1,.3,2.8.3,3.8v3.6h-2.2v-10.4Z"/>
            <path class="cls-2" d="M529.7,392.2h2.5v10.4h-2.5v-10.4Z"/>
            <path class="cls-2" d="M533.9,401.3l1.3-1.6c.7.6,1.7,1,2.6,1s1.4-.4,1.4-.9-.6-.8-1.5-1.2l-1.3-.6c-1.1-.4-2.1-1.3-2.1-2.8s1.6-3.2,3.8-3.2,2.5.5,3.4,1.3l-1.3,1.6c-.7-.5-1.4-.8-2.1-.8s-1.3.3-1.3.8.7.8,1.6,1.2l1.3.5c1.3.5,2.1,1.4,2.1,2.8s-1.5,3.3-4,3.3-2.8-.5-3.9-1.5Z"/>
            <path class="cls-2" d="M543,397.4c0-3.4,1.9-5.4,4.8-5.4s4.8,2,4.8,5.4-1.9,5.4-4.8,5.4-4.8-2-4.8-5.4ZM550,397.4c0-2-.8-3.2-2.2-3.2s-2.2,1.2-2.2,3.2.9,3.3,2.2,3.3,2.2-1.3,2.2-3.3Z"/>
          </g>
          <g>
            <path class="cls-2" d="M487.6,428.1c-.4,0-.8.4-1.1.9l-1.3-1c.8-1.2,1.6-1.7,2.4-1.7,1.3,0,1.9,1.2,2.8,1.2s.8-.4,1.1-.9l1.3,1c-.8,1.2-1.6,1.7-2.4,1.7-1.3,0-1.9-1.2-2.8-1.2Z"/>
            <path class="cls-2" d="M494.3,431.1h2.2v-5.9h-1.9v-1.5c1.1-.2,1.8-.5,2.6-.9h1.8v8.4h1.9v2h-6.6v-2Z"/>
            <path class="cls-2" d="M502.8,431.1h2.2v-5.9h-1.9v-1.5c1.1-.2,1.8-.5,2.6-.9h1.8v8.4h1.9v2h-6.6v-2Z"/>
            <path class="cls-2" d="M513.6,421.8h1.6l-3.1,13.9h-1.6l3.1-13.9Z"/>
            <path class="cls-2" d="M516.9,422.7h2.7l1.6,4.5c.2.6.4,1.2.6,1.9h0c.2-.7.4-1.3.6-1.9l1.6-4.5h2.7v10.4h-2.3v-3.6c0-1,.2-2.8.3-3.8h0l-.9,2.7-1.4,3.8h-1.4l-1.4-3.8-.8-2.7h0c.1,1,.3,2.8.3,3.8v3.6h-2.2v-10.4Z"/>
            <path class="cls-2" d="M528.6,427.9c0-3.4,1.9-5.4,4.8-5.4s4.8,2,4.8,5.4-1.9,5.4-4.8,5.4-4.8-2-4.8-5.4ZM535.6,427.9c0-2-.8-3.2-2.2-3.2s-2.2,1.2-2.2,3.2.9,3.3,2.2,3.3,2.2-1.3,2.2-3.3Z"/>
            <path class="cls-2" d="M539.4,431.8l1.3-1.6c.7.6,1.7,1,2.6,1s1.4-.4,1.4-.9-.6-.8-1.5-1.2l-1.3-.6c-1.1-.4-2.1-1.3-2.1-2.8s1.6-3.2,3.8-3.2,2.5.5,3.4,1.3l-1.3,1.6c-.7-.5-1.4-.8-2.1-.8s-1.3.3-1.3.8.7.8,1.6,1.2l1.3.5c1.3.5,2.1,1.4,2.1,2.8s-1.5,3.3-4,3.3-2.8-.5-3.9-1.5Z"/>
            <path class="cls-2" d="M549,422.7h2.5v10.4h-2.5v-10.4Z"/>
          </g>
          <g>
            <path class="cls-2" d="M529.5,458.6c-.4,0-.8.4-1.1.9l-1.3-1c.8-1.2,1.6-1.7,2.4-1.7,1.3,0,1.9,1.2,2.8,1.2s.8-.4,1.1-.9l1.3,1c-.8,1.2-1.6,1.7-2.4,1.7-1.3,0-1.9-1.2-2.8-1.2Z"/>
            <path class="cls-2" d="M536.2,461.7h2.2v-5.9h-1.9v-1.5c1.1-.2,1.8-.5,2.6-.9h1.8v8.4h1.9v2h-6.6v-2Z"/>
            <path class="cls-2" d="M544.2,458.4c0-3.6,1.5-5.4,3.7-5.4s3.7,1.8,3.7,5.4-1.5,5.4-3.7,5.4-3.7-1.9-3.7-5.4ZM549.2,458.4c0-2.8-.6-3.5-1.3-3.5s-1.3.6-1.3,3.5.6,3.5,1.3,3.5,1.3-.7,1.3-3.5Z"/>
          </g>
          <g>
            <path class="cls-2" d="M537.4,489.2c-.4,0-.8.4-1.1.9l-1.3-1c.8-1.2,1.6-1.7,2.4-1.7,1.3,0,1.9,1.2,2.8,1.2s.8-.4,1.1-.9l1.3,1c-.8,1.2-1.6,1.7-2.4,1.7-1.3,0-1.9-1.2-2.8-1.2Z"/>
            <path class="cls-2" d="M543.7,493.1l1.3-1.5c.3.4,1,.7,1.6.7,1.1,0,1.9-.8,2-3-.5.7-1.4,1-2,1-1.7,0-3-1-3-3.3s1.6-3.5,3.4-3.5,3.9,1.5,3.9,5.3-2,5.5-4.1,5.5-2.4-.6-3.1-1.2ZM547.1,488.6c.5,0,1.1-.3,1.5-.9-.2-1.8-.8-2.3-1.5-2.3s-1.2.5-1.2,1.7.5,1.5,1.2,1.5Z"/>
          </g>
          <path class="cls-2" d="M543.2,522.1c0-1.3.7-2.1,1.7-2.6h0c-.8-.7-1.4-1.5-1.4-2.6,0-1.7,1.4-2.8,3.3-2.8s3.1,1.1,3.1,2.8-.6,1.8-1.3,2.3h0c1,.6,1.8,1.5,1.8,2.9s-1.5,2.8-3.6,2.8-3.6-1.1-3.6-2.8ZM548.1,522c0-.9-.8-1.3-2.1-1.9-.4.4-.7,1-.7,1.7s.7,1.4,1.5,1.4,1.3-.4,1.3-1.2ZM547.9,517c0-.8-.4-1.2-1.2-1.2s-1.1.4-1.1,1.1.6,1.3,1.7,1.7c.4-.5.6-1,.6-1.5Z"/>
          <path class="cls-2" d="M547.1,544h-4.5v-2.1h7.1v1.5c-2.4,2.9-2.7,4.8-2.8,8.9h-2.5c.2-3.4.7-5.6,2.7-8.3Z"/>
          <g>
            <path class="cls-2" d="M535.7,577.9c-.4,0-.8.4-1.1.9l-1.3-1c.8-1.2,1.6-1.7,2.4-1.7,1.3,0,1.9,1.2,2.8,1.2s.8-.4,1.1-.9l1.3,1c-.8,1.2-1.6,1.7-2.4,1.7-1.3,0-1.9-1.2-2.8-1.2Z"/>
            <path class="cls-2" d="M542,577.7c0-3.8,2-5.5,4.1-5.5s2.4.6,3,1.2l-1.3,1.5c-.4-.4-1-.7-1.6-.7-1.1,0-1.9.8-2,3,.5-.6,1.4-1,2-1,1.7,0,3,1,3,3.3s-1.6,3.5-3.4,3.5-3.9-1.5-3.9-5.3ZM544.3,579c.2,1.7.9,2.2,1.5,2.2s1.2-.5,1.2-1.7-.6-1.5-1.3-1.5-1.1.3-1.5,1Z"/>
          </g>
          <g>
            <path class="cls-2" d="M535.1,608.4c-.4,0-.8.4-1.1.9l-1.3-1c.8-1.2,1.6-1.7,2.4-1.7,1.3,0,1.9,1.2,2.8,1.2s.8-.4,1.1-.9l1.3,1c-.8,1.2-1.6,1.7-2.4,1.7-1.3,0-1.9-1.2-2.8-1.2Z"/>
            <path class="cls-2" d="M541.1,612.1l1.1-1.6c.6.6,1.3,1,2.1,1s1.6-.6,1.6-1.6-.6-1.6-1.5-1.6-.9.1-1.5.5l-1.1-.7.3-5.2h5.8v2.1h-3.7v1.8c.2-.1.5-.2.9-.2,1.8,0,3.2,1,3.2,3.3s-1.8,3.7-3.8,3.7-2.8-.6-3.6-1.4Z"/>
          </g>
          <path class="cls-2" d="M544.9,641.3h-4.4v-1.7l3.6-6.1h3.1v5.9h1.2v1.9h-1.2v2.6h-2.3v-2.6ZM544.9,639.4v-1.5c0-.7,0-1.6,0-2.3h0c-.3.6-.5,1.2-.8,1.8l-1.2,2.1h2Z"/>
          <g>
            <path class="cls-2" d="M534,669.4c-.4,0-.8.4-1.1.9l-1.3-1c.8-1.2,1.6-1.7,2.4-1.7,1.3,0,1.9,1.2,2.8,1.2s.8-.4,1.1-.9l1.3,1c-.8,1.2-1.6,1.7-2.4,1.7-1.3,0-1.9-1.2-2.8-1.2Z"/>
            <path class="cls-2" d="M539.9,673.2l1.1-1.6c.6.6,1.4,1,2.2,1s1.6-.4,1.6-1.2-.5-1.4-2.7-1.4v-1.8c1.8,0,2.3-.5,2.3-1.4s-.4-1.1-1.2-1.1-1.2.3-1.9.9l-1.2-1.5c.9-.8,2-1.3,3.2-1.3,2.2,0,3.6,1,3.6,2.9s-.6,1.8-1.7,2.3h0c1.2.4,2,1.2,2,2.6,0,2-1.8,3-3.8,3s-2.8-.6-3.6-1.4Z"/>
          </g>
          <path class="cls-2" d="M539.6,703.4c2.7-2.3,4.4-4.2,4.4-5.6s-.5-1.5-1.4-1.5-1.3.5-1.8,1l-1.3-1.3c1-1.1,1.9-1.7,3.4-1.7s3.4,1.3,3.4,3.3-1.7,3.8-3.3,5.4c.5,0,1.2-.1,1.7-.1h2.1v2.1h-7.2v-1.5Z"/>
          <g>
            <path class="cls-2" d="M509.9,728h-2.8v-2.1h8.1v2.1h-2.8v8.3h-2.5v-8.3Z"/>
            <path class="cls-2" d="M518.3,731l-2.7-5.1h2.8l.8,1.9c.2.5.5,1,.8,1.7h0c.2-.7.5-1.2.7-1.7l.8-1.9h2.6l-2.7,5.2,2.9,5.2h-2.8l-1-2c-.3-.5-.5-1.1-.8-1.7h0c-.2.6-.5,1.2-.7,1.7l-.9,2h-2.7l2.9-5.4Z"/>
            <path class="cls-2" d="M538.2,731l-5,5c-.4.4-1,.4-1.4,0s-.4-1,0-1.4l3.3-3.3h-9.6c-.6,0-1-.4-1-1s.4-1,1-1h9.6l-3.3-3.3c-.4-.4-.4-1,0-1.4s1-.4,1.4,0l5,5c.4.4.4,1,0,1.4h0Z"/>
            <path class="cls-2" d="M539.5,734.3h2.2v-5.9h-1.9v-1.5c1.1-.2,1.8-.5,2.6-.9h1.8v8.4h1.9v2h-6.6v-2Z"/>
          </g>
          <g>
            <path class="cls-2" d="M506.1,756.4h3.8c2.2,0,4.1.8,4.1,3.3s-.7,2.5-1.8,3l2.3,4.1h-2.8l-1.9-3.7h-1.2v3.7h-2.5v-10.4ZM509.8,761.2c1.2,0,1.8-.5,1.8-1.5s-.6-1.3-1.8-1.3h-1.1v2.8h1.1Z"/>
            <path class="cls-2" d="M517.7,761.5l-2.7-5.1h2.8l.8,1.9c.2.5.5,1,.8,1.7h0c.2-.7.5-1.2.7-1.7l.8-1.9h2.6l-2.7,5.2,2.9,5.2h-2.8l-1-2c-.3-.5-.5-1.1-.8-1.7h0c-.2.6-.5,1.2-.7,1.7l-.9,2h-2.7l2.9-5.4Z"/>
            <path class="cls-2" d="M524.2,760.1l5-5c.4-.4,1-.4,1.4,0s.4,1,0,1.4l-3.3,3.3h9.6c.6,0,1,.4,1,1s-.4,1-1,1h-9.6l3.3,3.3c.4.4.4,1,0,1.4s-1,.4-1.4,0l-5-5c-.4-.4-.4-1,0-1.4h0Z"/>
            <path class="cls-2" d="M538.5,761.6c0-3.6,1.5-5.4,3.7-5.4s3.7,1.8,3.7,5.4-1.5,5.4-3.7,5.4-3.7-1.9-3.7-5.4ZM543.5,761.6c0-2.8-.6-3.5-1.3-3.5s-1.3.6-1.3,3.5.6,3.5,1.3,3.5,1.3-.7,1.3-3.5Z"/>
          </g>
        </g>
        <g>
          <rect class="cls-6" x="397" y="341.6" width="10.7" height="17.2"/>
          <rect class="cls-16" x="397" y="344.2" width="10.7" height="11.8"/>
        </g>
      </g>
      <g id="layer1-6">
        <rect id="rect815" x="624.3" y="47" width="151.9" height="204.1"/>
        <rect id="rect821-4" class="cls-2" x="660.2" y="217.8" width="79" height="27.2"/>
        <path id="rect825-3" class="cls-25" d="M665.4,219.4h15.8c2.8,0,5,2.2,5,5h0v13.9c0,2.8-2.2,5-5,5h-15.8c-2.8,0-5-2.2-5-5h0v-13.9c0-2.8,2.2-5,5-5h0Z"/>
        <path id="rect872-4" class="cls-25" d="M718.2,219.4h15.8c2.8,0,5,2.2,5,5h0v13.9c0,2.8-2.2,5-5,5h-15.8c-2.8,0-5-2.2-5-5h0v-13.9c0-2.8,2.2-5,5-5h0Z"/>
        <path id="rect874-4" class="cls-25" d="M691.2,219.4h17.1c2.4,0,4.4,2,4.4,4.4h0v15.2c0,2.4-2,4.4-4.4,4.4h-17.1c-2.4,0-4.4-2-4.4-4.4v-15.2c0-2.4,2-4.4,4.4-4.4Z"/>
        <rect id="rect947-7" class="cls-18" x="671.9" y="232.4" width="2.9" height="49.9"/>
        <rect id="rect949-7" class="cls-18" x="698.4" y="232.4" width="2.9" height="49.9"/>
        <rect id="rect951-6" class="cls-18" x="724.7" y="232.4" width="2.9" height="49.9"/>
        <circle id="path1456-0" class="cls-19" cx="645.6" cy="121.6" r="13.8"/>
        <circle id="ellipse1458-3" class="cls-19" cx="753.4" cy="121.6" r="13.8"/>
        <circle id="path1460-6" class="cls-3" cx="645.6" cy="121.6" r="12.5"/>
        <circle id="ellipse1464-7" class="cls-3" cx="753.4" cy="121.6" r="12.5"/>
        <rect id="rect87-9" x="645.7" y="189.2" width="108.1" height="27.2"/>
        <circle id="path91-7" class="cls-19" cx="660.1" cy="207.2" r="10.1"/>
        <circle id="circle93-4" class="cls-19" cx="738.9" cy="207.2" r="10.1"/>
        <rect id="rect95-0" class="cls-19" x="661.4" y="165.8" width="20.2" height="30.3" rx="6.7" ry="6.7"/>
        <rect id="rect97-3" class="cls-19" x="718.7" y="165.8" width="20.2" height="30.3" rx="6.7" ry="6.7"/>
        <circle id="circle99-7" class="cls-19" cx="679.9" cy="154.3" r="10.1"/>
        <circle id="circle101-7" class="cls-19" cx="720.4" cy="154.3" r="10.1"/>
        <circle id="ellipse103-5" class="cls-3" cx="657.4" cy="153.6" r="12.5"/>
        <circle id="ellipse105-6" class="cls-3" cx="743" cy="153.6" r="12.5"/>
        <rect id="rect111-7" class="cls-19" x="661.4" y="110.5" width="20.2" height="30.3" rx="6.7" ry="6.7"/>
        <rect id="rect113-1" class="cls-19" x="718.7" y="110.5" width="20.2" height="30.3" rx="6.7" ry="6.7"/>
        <circle id="circle115-2" class="cls-3" cx="671.5" cy="180.1" r="9.3"/>
        <circle id="circle117-0" class="cls-3" cx="728.8" cy="180.1" r="9.3"/>
        <circle id="circle119-5" class="cls-3" cx="660.1" cy="207.2" r="8.4"/>
        <circle id="circle121-3" class="cls-3" cx="738.9" cy="207.2" r="8.4"/>
        <circle id="circle123-2" class="cls-3" cx="671.5" cy="180.1" r="9.3"/>
        <circle id="circle129" class="cls-19" cx="658.7" cy="86.9" r="10.1"/>
        <circle id="circle131-8" class="cls-3" cx="658.7" cy="86.9" r="8.4"/>
        <circle id="circle133" class="cls-19" cx="741.6" cy="86.9" r="10.1"/>
        <circle id="circle135-6" class="cls-3" cx="741.6" cy="86.9" r="8.4"/>
        <path id="path31-1-7" class="cls-2" d="M667.5,63.8c.9,0,1,0,1.2-.1.1,0,.2-.2.3-.3.1-.2.1-.3.1-2.2v-2s2,0,2,0h2v2.5c0,2.8,0,3.1-.3,3.8-.3.9-1.1,1.6-2.1,1.7-.6,0-1.2.1-1.8,0-.8,0-1.7,0-1.9,0h-.5s0-1.7,0-1.7v-1.7s1,0,1,0h0ZM686.6,69.4c17.1,0,21.3,0,20.6,0h-.1s.1,0,.1,0c0,0,0,0,0,0-.1,0,0,0,.2,0h.4s-.4,0-.4,0c-.2,0-.3,0-.3,0,0,0,0,0,0,.5s0,.5.2.5c.1,0,0,0,0,0-.1,0-.2,0-.2,0s-6.8,0-20.3,0h-20.3v-1.5h20.1ZM671.2,53.8h2v3.3h-4v-3.3h2ZM675.2,59.9c.1-.9.4-1.7.8-2.5,0-.2.2-.3.3-.5,0-.1.2-.2.2-.3.2-.4.5-.7.8-1,0,0,0,0,0,0,.3-.3.6-.6.9-.8.5-.3,1-.6,1.5-.7.8-.3,1.6-.4,2.4-.4.5,0,1,0,1.4.2.3,0,.7.2.8.3.1,0,.2,0,.3.1.2,0,.3.2.5.3,1.2.8,2.1,1.9,2.8,3.2.8,1.6.9,3.4.3,5.1-.2.5-.4,1.1-.7,1.6-.3.5-.7,1-1.2,1.4-.8.8-1.8,1.4-2.9,1.7-.8.2-1.7.2-2.5.1-1-.2-1.9-.6-2.8-1.2-.3-.2-.6-.5-.9-.8,0-.1-.2-.2-.3-.3-.8-1-1.4-2.1-1.7-3.4-.1-.6-.2-1.3-.1-2h0ZM679.1,61.6c.2.8.6,1.5,1.2,2,.7.6,1.6.8,2.4.5,1.1-.5,1.9-1.4,2.1-2.5.2-.7.2-1.5,0-2.3-.2-.8-.7-1.6-1.4-2.1-.2-.2-.5-.3-.8-.3-.6-.1-1.3,0-1.9.2-.6.4-1,.9-1.3,1.5-.5.9-.6,2-.3,3h0ZM690.5,53.9s.9,0,2,0h2s0,1.8,0,1.8c0,1.7,0,1.8.1,2.1.3.8,1.2,1.2,2,.9.4-.1.7-.4.9-.8l.2-.4v-1.9s0-1.9,0-1.9h4v2.1c0,.9,0,1.7-.2,2.5-.2.8-.6,1.5-1.1,2.1,0,0-.2.2-.2.3-.3.3-.6.6-1,.9-.4.3-.8.5-1.2.6,0,0-.4,0-.6.2-.5.1-1,.2-1.4.1-.5,0-1,0-1.5-.2-.6-.1-1.1-.4-1.6-.7-.6-.4-1.1-.9-1.5-1.5-.5-.8-.9-1.6-1-2.6,0-1.3,0-2.6,0-3.9h0ZM696.1,63.8h3.3v3.4h-6.6v-3.4h3.3ZM701.8,51.2s0,0,0-.2c0-.2,0-.2.3-.2.1,0,5.7,0,12.4,0h12.2s0,.7,0,.7v.7h-12.4c-6.8,0-12.4,0-12.5,0,0,0,0-.1,0-.5s0-.5,0-.5h0ZM707.3,59.4h4.2v3.3h-8.4v-3.3h4.2ZM714.9,53.8h2v3.3h-4v-3.3h2ZM714.9,58.9h2v8.5h-4v-8.5h2ZM723,53.8h4.2v3.3h-8.5v-3.3h4.2ZM719.4,59.1s.9,0,2,0h1.9s0,2,0,2c0,2.7,0,2.6,2,2.6h1.3v3.4h-.5c-1.2.2-2.4.1-3.7,0-.9,0-1.7-.4-2.2-1.1-.5-.6-.8-1.3-.8-2.1,0-.6,0-4.8,0-4.9h0ZM729.6,52.2c0-.3.3-.7.5-.9.8-.8,2-.9,2.9-.2.3.2.6.5.7.8.1.3.2.6.2.9,0,.3,0,.6-.2.9-.4.7-1.1,1.2-1.8,1.2-.7,0-1.3-.2-1.8-.7-.5-.5-.7-1.3-.5-2h0ZM730,53.6c.3.5.8.9,1.3,1,.6.1,1.3,0,1.7-.5.2-.1.3-.3.4-.5.1-.3.2-.5.2-.8,0-.3,0-.6-.2-.8-.1-.2-.3-.5-.5-.6-.2-.1-.4-.2-.6-.3-1-.3-2,.2-2.4,1.1-.1.5-.1,1,0,1.5h0ZM731.5,51.5c.3,0,.6,0,.9,0,.4.2.5.7.2,1,0,0-.2.2-.3.2h-.2c0,0,.2.3.2.3.1.2.3.3.4.5,0,.1.1.2.2.3.1,0,0,.1-.2.1h-.2s-.3-.5-.3-.5c-.4-.5-.4-.6-.8-.6h-.2v1.1h-.2s-.2,0-.2,0v-1.3s0-1.3,0-1.3h.7ZM731.6,52.6c.4,0,.5,0,.6-.1.3-.2.1-.6-.3-.7-.3,0-.5,0-.8,0,0,.1,0,.3,0,.4v.4h.5Z"/>
        <circle id="circle84-9" class="cls-3" cx="679.9" cy="154.3" r="8.4"/>
        <circle id="circle86" class="cls-3" cx="720.4" cy="154.3" r="8.4"/>
        <g id="text87" class="cls-17">
          <g class="cls-17">
            <g class="cls-17">
              <path class="cls-2" d="M640.6,187.7c0,0,.1,0,.2,0,0,0,0,0,.1.1,0,0,0,.2,0,.3,0,.1,0,.3,0,.5s0,.4,0,.6c0,.2,0,.3-.1.3,0,0-.1.1-.2.2l-6.8,5h6.8s0,0,.1,0c0,0,0,0,.1.1,0,0,0,.2,0,.3,0,.1,0,.3,0,.4s0,.3,0,.4c0,.1,0,.2,0,.3s0,.1-.1.1c0,0,0,0-.1,0h-13c0,0-.1,0-.1,0s0,0,0-.1,0-.2,0-.3,0-.3,0-.4,0-.3,0-.4c0-.1,0-.2,0-.3,0,0,0-.1,0-.1s0,0,.1,0h6l-6-4.8c0,0-.1,0-.2-.1s0-.1,0-.2c0,0,0-.2,0-.3,0-.1,0-.3,0-.4s0-.3,0-.4c0-.1,0-.2,0-.3,0,0,0-.1.1-.1,0,0,0,0,.1,0,0,0,.2,0,.3,0,0,0,.2.1.4.3l5.4,4.5,6.4-4.8c.2-.1.3-.2.4-.2,0,0,.1,0,.2,0Z"/>
            </g>
            <g class="cls-17">
              <path class="cls-2" d="M635.7,181h5c0,0,.1,0,.1,0,0,0,0,0,0,.1s0,.2,0,.3c0,.1,0,.3,0,.4s0,.3,0,.4c0,.1,0,.2,0,.3s0,.1,0,.2c0,0,0,0-.1,0h-5l-7.6,3.8c-.2,0-.3.1-.4.1,0,0-.2,0-.2,0s0-.1,0-.3c0-.1,0-.3,0-.5s0-.4,0-.5c0-.1,0-.2,0-.3,0,0,0-.1.1-.2,0,0,.1,0,.2-.1l3.9-1.9c.4-.2.8-.3,1.2-.5.4-.2.8-.3,1.2-.5h0c-.4-.2-.8-.3-1.2-.5-.4-.2-.8-.3-1.2-.5l-3.9-1.9c0,0-.1,0-.2,0,0,0,0,0-.1-.2,0,0,0-.2,0-.3,0-.1,0-.3,0-.4s0-.4,0-.6c0-.1,0-.2,0-.3,0,0,.1,0,.2,0,0,0,.2,0,.4.1l7.6,3.8Z"/>
            </g>
            <g class="cls-17">
              <path class="cls-2" d="M635.6,172.1c.3,0,.5,0,.6,0,.1,0,.2.2.2.3v4.4c0,.1,0,.2-.2.3-.1,0-.3,0-.6,0s-.4,0-.6,0c-.1,0-.2-.2-.2-.3v-4.4c0,0,0-.1,0-.2,0,0,0,0,.1-.1,0,0,.1,0,.2,0,0,0,.2,0,.3,0Z"/>
              <path class="cls-2" d="M634.1,161.3c1,0,2,0,2.8.2.9.2,1.6.4,2.2.8.6.4,1.1.9,1.4,1.5.3.6.5,1.4.5,2.3s-.2,1.6-.5,2.1c-.3.6-.7,1.1-1.3,1.4-.6.4-1.3.6-2.2.8-.9.1-1.8.2-3,.2s-2,0-2.8-.3c-.9-.2-1.6-.4-2.2-.8-.6-.4-1.1-.9-1.4-1.5s-.5-1.4-.5-2.3.2-1.6.5-2.2c.3-.6.7-1.1,1.3-1.4.6-.4,1.3-.6,2.2-.8s1.8-.2,3-.2ZM634.2,163.1c-.7,0-1.3,0-1.8,0-.5,0-1,.1-1.4.2-.4,0-.8.2-1.1.4-.3.1-.5.3-.7.5s-.3.4-.4.7c0,.3-.1.6-.1.9,0,.6.1,1.1.4,1.4.3.4.7.7,1.2.9.5.2,1.1.4,1.7.4s1.4.1,2.1.1,1.9,0,2.6-.2,1.3-.3,1.7-.5c.4-.2.8-.5,1-.9s.3-.8.3-1.3,0-.7-.2-1c-.1-.3-.3-.6-.5-.8-.2-.2-.5-.4-.8-.5-.3-.1-.7-.3-1.1-.3-.4,0-.8-.1-1.3-.2-.5,0-.9,0-1.4,0Z"/>
              <path class="cls-2" d="M637.1,151c.6,0,1.2.1,1.7.3.5.2.9.5,1.3.9s.6.9.8,1.5.3,1.3.3,2,0,.9-.1,1.3c0,.4-.2.7-.3,1.1-.1.3-.2.6-.3.8-.1.2-.2.3-.2.4,0,0,0,0-.1.1s-.1,0-.2,0c0,0-.2,0-.3,0-.1,0-.2,0-.4,0-.3,0-.4,0-.5,0,0,0-.1-.1-.1-.2s0-.2.2-.4.2-.4.4-.7c.1-.3.2-.6.4-1,.1-.4.2-.8.2-1.3s0-.9-.2-1.2c-.1-.4-.3-.7-.5-.9s-.5-.4-.8-.5c-.3-.1-.6-.2-1-.2s-.7,0-1,.2-.6.4-.8.7c-.2.3-.4.7-.5,1.1-.1.4-.2.9-.2,1.5v1.3c0,0,0,.1,0,.2,0,0,0,.1-.1.1s-.1,0-.2,0c0,0-.2,0-.4,0s-.2,0-.3,0c0,0-.2,0-.2,0,0,0,0,0-.1-.1,0,0,0-.1,0-.2v-1.2c0-.5,0-.9-.2-1.2-.1-.4-.3-.7-.5-.9-.2-.3-.5-.4-.8-.6-.3-.1-.7-.2-1-.2s-.5,0-.8.1c-.3,0-.5.2-.7.4-.2.2-.3.4-.4.7-.1.3-.2.6-.2,1s0,.8.2,1.1.3.6.4.9c.1.3.3.5.4.7s.2.3.2.4,0,0,0,.1c0,0,0,0-.1,0,0,0-.1,0-.2,0,0,0-.2,0-.4,0s-.2,0-.3,0c0,0-.1,0-.2,0,0,0-.1,0-.2,0s-.1,0-.2-.1c0,0-.2-.2-.3-.4-.1-.2-.2-.5-.4-.7-.1-.3-.2-.6-.3-1,0-.4-.1-.8-.1-1.2s0-1.2.2-1.7c.2-.5.4-.9.7-1.2.3-.3.6-.6,1.1-.7.4-.2.9-.2,1.4-.2s.8,0,1.2.2c.4.1.7.3,1,.5s.5.5.7.8c.2.3.3.7.4,1.1h0c0-.5.2-.9.4-1.3s.4-.7.7-1c.3-.3.6-.5,1-.7.4-.2.8-.2,1.2-.2Z"/>
              <path class="cls-2" d="M640.2,140c.1,0,.2,0,.3,0s.2,0,.2,0c0,0,0,0,.1.1,0,0,0,0,0,.1v7.1s0,0,0,.1,0,0-.1.1c0,0-.1,0-.2,0s-.2,0-.3,0-.2,0-.3,0c0,0-.2,0-.2,0,0,0-.1,0-.1-.1s0,0,0-.2v-2.8h-10.3l1.6,2.6c0,.1.1.2.1.3,0,0,0,.1,0,.2,0,0-.1,0-.2,0s-.2,0-.4,0-.2,0-.3,0c0,0-.2,0-.2,0s-.1,0-.1,0c0,0,0,0-.1-.2l-2-3.1s0,0,0-.1c0,0,0,0,0-.2,0,0,0-.1,0-.2,0,0,0-.2,0-.3s0-.3,0-.4c0-.1,0-.2,0-.3,0,0,0-.1,0-.1,0,0,0,0,.1,0h11.9v-2.4c0,0,0-.1,0-.2,0,0,0,0,.1-.1,0,0,.1,0,.2,0,0,0,.2,0,.3,0Z"/>
            </g>
          </g>
        </g>
        <g id="text91" class="cls-17">
          <g class="cls-17">
            <path class="cls-2" d="M653.9,233.6c0,.6-.1,1.2-.4,1.7-.2.5-.6.9-1,1.3-.4.3-.9.6-1.5.8s-1.2.3-1.8.3-.9,0-1.3-.1c-.4,0-.7-.2-1-.3-.3-.1-.6-.2-.8-.3-.2-.1-.3-.2-.4-.3s-.1-.2-.2-.3,0-.3,0-.5,0-.3,0-.4c0-.1,0-.2,0-.2,0,0,0-.1.1-.1,0,0,0,0,.1,0,0,0,.2,0,.4.2.2.1.4.2.7.4.3.1.6.3,1,.4s.8.2,1.4.2.7,0,1.1-.2c.3-.1.6-.3.8-.4.2-.2.4-.4.5-.7.1-.3.2-.6.2-1s0-.7-.3-1c-.2-.3-.4-.5-.7-.7-.3-.2-.6-.4-1-.6-.4-.2-.7-.3-1.1-.5-.4-.2-.8-.4-1.1-.6-.4-.2-.7-.5-1-.8s-.5-.6-.7-1-.3-.9-.3-1.4.1-1.1.3-1.5.5-.8.9-1.1c.4-.3.8-.5,1.3-.7.5-.2,1.1-.2,1.6-.2s.6,0,.9,0c.3,0,.6.1.9.2.3,0,.5.2.7.3.2.1.3.2.4.3s.1.1.1.2c0,0,0,0,0,.1,0,0,0,.1,0,.2,0,0,0,.2,0,.3s0,.2,0,.3c0,0,0,.2,0,.2s0,.1,0,.1,0,0-.1,0c0,0-.2,0-.4-.1-.2,0-.4-.2-.6-.3-.2-.1-.5-.2-.8-.3-.3-.1-.7-.2-1.1-.2s-.7,0-1,.2c-.3.1-.5.2-.7.4s-.3.4-.4.6c0,.2-.1.5-.1.7,0,.4,0,.7.3,1,.2.3.4.5.7.7s.6.4,1,.6c.4.2.7.3,1.1.5s.8.4,1.1.6c.4.2.7.5,1,.8s.5.6.7,1,.3.9.3,1.4Z"/>
          </g>
        </g>
        <g id="text95" class="cls-17">
          <g class="cls-17">
            <path class="cls-2" d="M758.9,231.3c0,.3,0,.5-.2.6-.2.1-.4.2-.7.2h-10.8c-.3,0-.5,0-.7-.2-.2-.1-.2-.3-.2-.6s0-.4.2-.6c.2-.1.4-.2.7-.2h10.8c.1,0,.3,0,.4,0,.1,0,.2,0,.3.1,0,0,.1.1.2.2,0,0,0,.2,0,.3Z"/>
          </g>
        </g>
        <rect id="rect884" x="604.6" width="191.3" height="41.1"/>
        <rect id="rect88-2" class="cls-13" x="607.5" y="3.8" width="185.4" height="33.7"/>
        <path id="rect90-0" class="cls-28" d="M615.9,10.5v27.7h8.4v-8.5h151.9v8.5h8.3V10.5h-168.6Z"/>
        <polygon id="rect1082-9" class="cls-18" points="615.9 38 618.8 38 673 125.7 670.2 125.7 615.9 38"/>
        <polygon id="rect1084-8" class="cls-18" points="781.6 38 784.4 38 730.3 125.7 727.5 125.7 781.6 38"/>
      </g>
      <rect id="rect1463" class="cls-15" x="695.3" y="272" width="9.1" height="168.9"/>
      <rect id="rect1465" class="cls-7" x="721.6" y="272" width="9.1" height="269.5"/>
      <rect id="rect1467" class="cls-14" x="668.7" y="272" width="9.1" height="190.7"/>
      <circle id="circle281" class="cls-14" cx="673.3" cy="261.5" r="10.5"/>
      <circle id="circle281-3" class="cls-15" cx="699.7" cy="261.5" r="10.5"/>
      <circle id="circle281-5" class="cls-7" cx="726.1" cy="261.5" r="10.5"/>
      <circle id="circle281-7" class="cls-14" cx="575.7" cy="458.2" r="11.6"/>
      <rect class="cls-7" x="22.4" y="532.4" width="707.7" height="9.1"/>
      <rect class="cls-7" x="21.4" y="510.6" width="9.1" height="30.9"/>
      <rect class="cls-15" x="21.4" y="431.8" width="683" height="9.1"/>
      <rect class="cls-15" x="21.4" y="431.8" width="9.1" height="48.2"/>
      <circle id="circle281-8" class="cls-15" cx="26.1" cy="480" r="10.5" transform="translate(-454.1 501) rotate(-89.4)"/>
      <circle id="circle281-9" class="cls-7" cx="26.1" cy="510.6" r="10.5" transform="translate(-484.8 532.1) rotate(-89.5)"/>
      <rect id="rect853" class="cls-14" x="575.7" y="453.6" width="102.2" height="9.1"/>
    </g>
  </g>
</svg>