<?xml version="1.0" encoding="utf-8"?>
<!-- Generator: Adobe Illustrator 27.8.0, SVG Export Plug-In . SVG Version: 6.00 Build 0)  -->
<svg version="1.1" id="Ebene_1" xmlns="http://www.w3.org/2000/svg" xmlns:xlink="http://www.w3.org/1999/xlink" x="0px" y="0px"
	 viewBox="0 0 499 878.4" style="enable-background:new 0 0 499 878.4;" xml:space="preserve">
<style type="text/css">
	.st0{fill:#02814B;}
	.st1{fill:#D4C547;}
	.st2{fill:#525035;}
	.st3{fill:#FEE86F;}
	.st4{fill:#FFE17B;}
	.st5{fill:#DDDDDD;}
	.st6{fill:#7F7F7F;}
	.st7{fill:#474544;}
	.st8{fill:#E2EADE;}
	.st9{fill:#C29148;}
	.st10{fill:#8DDDDE;}
	.st11{fill:#C1C1C1;}
	.st12{fill:#C2BFAB;}
	.st13{fill:none;stroke:#95AC6E;stroke-miterlimit:10;}
	.st14{fill:#E8D28A;}
	.st15{fill:#CECECE;}
	.st16{fill:#FFFFFF;}
	.st17{fill:#36323E;}
	.st18{fill:#868C97;}
	.st19{fill:#FCFCFA;}
	.st20{fill:#141316;}
	.st21{fill:#B9A68F;}
	.st22{fill:#E0B45B;}
	.st23{fill:#ABA28E;}
	.st24{fill:none;stroke:#FFFFFF;stroke-miterlimit:10;}
	.st25{fill:#010101;}
	.st26{fill:#1B1B1B;}
	.st27{opacity:0.99;fill:#808181;enable-background:new    ;}
	.st28{opacity:0.99;fill:#CDCCCC;enable-background:new    ;}
	.st29{opacity:0.99;fill:#FFFFFF;enable-background:new    ;}
	.st30{enable-background:new    ;}
	.st31{fill:#FAFAFA;}
	.st32{fill:#808181;}
	.st33{fill:#915114;}
	.st34{fill:#E20E18;}
	.st35{fill:#26AF88;}
</style>
<g>
	<path class="st0" d="M243.3,296.4v-11.9H0.2v11.9c2.3,0.9,3.9,3.1,3.9,5.7s-1.6,4.8-3.9,5.7v18.1c2.3,0.9,3.9,3.1,3.9,5.7
		s-1.6,4.8-3.9,5.7v18.1c2.3,0.9,3.9,3.1,3.9,5.7s-1.6,4.8-3.9,5.7v18.1c2.3,0.9,3.9,3.1,3.9,5.7s-1.6,4.8-3.9,5.7V414
		c2.3,0.9,3.9,3.1,3.9,5.7s-1.6,4.8-3.9,5.7v18.1c2.3,0.9,3.9,3.1,3.9,5.7s-1.6,4.8-3.9,5.7v18.1c2.3,0.9,3.9,3.1,3.9,5.7
		s-1.6,4.8-3.9,5.7v18.1c2.3,0.9,3.9,3.1,3.9,5.7s-1.6,4.8-3.9,5.7v18.1c2.3,0.9,3.9,3.1,3.9,5.7s-1.6,4.8-3.9,5.7v18.1
		c2.3,0.9,3.9,3.1,3.9,5.7s-1.6,4.8-3.9,5.7v18.1c2.3,0.9,3.9,3.1,3.9,5.7s-1.6,4.8-3.9,5.7v18.1c2.3,0.9,3.9,3.1,3.9,5.7
		s-1.6,4.8-3.9,5.7v18.1c2.3,0.9,3.9,3.1,3.9,5.7s-1.6,4.8-3.9,5.7v18.1c2.3,0.9,3.9,3.1,3.9,5.7s-1.6,4.8-3.9,5.7v18.1
		c2.3,0.9,3.9,3.1,3.9,5.7s-1.6,4.8-3.9,5.7v18.1c2.3,0.9,3.9,3.1,3.9,5.7s-1.6,4.8-3.9,5.7v18.1c2.3,0.9,3.9,3.1,3.9,5.7
		s-1.6,4.8-3.9,5.7v18.1c2.3,0.9,3.9,3.1,3.9,5.7s-1.6,4.8-3.9,5.7v18c2.3,0.9,3.9,3.1,3.9,5.7s-1.6,4.8-3.9,5.7v18.1
		c2.3,0.9,3.9,3.1,3.9,5.7s-1.6,4.8-3.9,5.7v11.9h78.5h7.5h11.3h18.5h11.3H146h11.3h4h82v-11.9c-2.2-0.9-3.8-3.1-3.8-5.7
		s1.6-4.8,3.8-5.7v-18.1c-2.2-0.9-3.8-3.1-3.8-5.7s1.6-4.8,3.8-5.7v-18.1c-2.2-0.9-3.8-3.1-3.8-5.7s1.6-4.8,3.8-5.7V778
		c-2.2-0.9-3.8-3.1-3.8-5.7s1.6-4.8,3.8-5.7v-18.1c-2.2-0.9-3.8-3.1-3.8-5.7s1.6-4.8,3.8-5.7v-18.1c-2.2-0.9-3.8-3.1-3.8-5.7
		s1.6-4.8,3.8-5.7v-18.1c-2.2-0.9-3.8-3.1-3.8-5.7s1.6-4.8,3.8-5.7v-18.1c-2.2-0.9-3.8-3.1-3.8-5.7s1.6-4.8,3.8-5.7V631
		c-2.2-0.9-3.8-3.1-3.8-5.7s1.6-4.8,3.8-5.7v-18.1c-2.2-0.9-3.8-3.1-3.8-5.7s1.6-4.8,3.8-5.7v-18.1c-2.2-0.9-3.8-3.1-3.8-5.7
		s1.6-4.8,3.8-5.7v-18.1c-2.2-0.9-3.8-3.1-3.8-5.7s1.6-4.8,3.8-5.7v-18.1c-2.2-0.9-3.8-3.1-3.8-5.7s1.6-4.8,3.8-5.7v-18.1
		c-2.2-0.9-3.8-3.1-3.8-5.7s1.6-4.8,3.8-5.7v-18.1c-2.2-0.9-3.8-3.1-3.8-5.7s1.6-4.8,3.8-5.7v-18.1c-2.2-0.9-3.8-3.1-3.8-5.7
		s1.6-4.8,3.8-5.7v-18.1c-2.2-0.9-3.8-3.1-3.8-5.7s1.6-4.8,3.8-5.7v-18.1c-2.2-0.9-3.8-3.1-3.8-5.7s1.6-4.8,3.8-5.7v-18.1
		c-2.2-0.9-3.8-3.1-3.8-5.7s1.6-4.8,3.8-5.7v-18.1c-2.2-0.9-3.8-3.1-3.8-5.7S241.1,297.3,243.3,296.4z M15.8,866.6
		c-3.4,0-6.1-2.7-6.1-6.1s2.7-6.1,6.1-6.1s6.1,2.7,6.1,6.1S19.2,866.6,15.8,866.6z M15.8,837.2c-3.4,0-6.1-2.7-6.1-6.1
		s2.7-6.1,6.1-6.1s6.1,2.7,6.1,6.1S19.2,837.2,15.8,837.2z M15.8,807.9c-3.4,0-6.1-2.7-6.1-6.1s2.7-6.1,6.1-6.1s6.1,2.7,6.1,6.1
		S19.2,807.9,15.8,807.9z M15.8,778.5c-3.4,0-6.1-2.7-6.1-6.1s2.7-6.1,6.1-6.1s6.1,2.7,6.1,6.1S19.2,778.5,15.8,778.5z M15.8,749.1
		c-3.4,0-6.1-2.7-6.1-6.1s2.7-6.1,6.1-6.1s6.1,2.7,6.1,6.1S19.2,749.1,15.8,749.1z M15.8,719.7c-3.4,0-6.1-2.7-6.1-6.1
		s2.7-6.1,6.1-6.1s6.1,2.7,6.1,6.1S19.2,719.7,15.8,719.7z M15.8,690.3c-3.4,0-6.1-2.7-6.1-6.1s2.7-6.1,6.1-6.1s6.1,2.7,6.1,6.1
		S19.2,690.3,15.8,690.3z M15.8,660.9c-3.4,0-6.1-2.7-6.1-6.1s2.7-6.1,6.1-6.1s6.1,2.7,6.1,6.1S19.2,660.9,15.8,660.9z M15.8,631.5
		c-3.4,0-6.1-2.7-6.1-6.1s2.7-6.1,6.1-6.1s6.1,2.7,6.1,6.1S19.2,631.5,15.8,631.5z M15.8,602.1c-3.4,0-6.1-2.7-6.1-6.1
		s2.7-6.1,6.1-6.1s6.1,2.7,6.1,6.1S19.2,602.1,15.8,602.1z M15.8,572.7c-3.4,0-6.1-2.7-6.1-6.1s2.7-6.1,6.1-6.1s6.1,2.7,6.1,6.1
		S19.2,572.7,15.8,572.7z M15.8,543.3c-3.4,0-6.1-2.7-6.1-6.1s2.7-6.1,6.1-6.1s6.1,2.7,6.1,6.1S19.2,543.3,15.8,543.3z M15.8,513.9
		c-3.4,0-6.1-2.7-6.1-6.1s2.7-6.1,6.1-6.1s6.1,2.7,6.1,6.1S19.2,513.9,15.8,513.9z M15.8,484.5c-3.4,0-6.1-2.7-6.1-6.1
		s2.7-6.1,6.1-6.1s6.1,2.7,6.1,6.1S19.2,484.5,15.8,484.5z M15.8,455.1c-3.4,0-6.1-2.7-6.1-6.1s2.7-6.1,6.1-6.1s6.1,2.7,6.1,6.1
		S19.2,455.1,15.8,455.1z M15.8,425.7c-3.4,0-6.1-2.7-6.1-6.1s2.7-6.1,6.1-6.1s6.1,2.7,6.1,6.1S19.2,425.7,15.8,425.7z M15.8,396.3
		c-3.4,0-6.1-2.7-6.1-6.1s2.7-6.1,6.1-6.1c3.4,0,6.1,2.7,6.1,6.1S19.2,396.3,15.8,396.3z M15.8,366.9c-3.4,0-6.1-2.7-6.1-6.1
		s2.7-6.1,6.1-6.1s6.1,2.7,6.1,6.1S19.2,366.9,15.8,366.9z M15.8,337.5c-3.4,0-6.1-2.7-6.1-6.1s2.7-6.1,6.1-6.1s6.1,2.7,6.1,6.1
		S19.2,337.5,15.8,337.5z M15.8,308.1c-3.4,0-6.1-2.7-6.1-6.1s2.7-6.1,6.1-6.1s6.1,2.7,6.1,6.1S19.2,308.1,15.8,308.1z M53.7,866.6
		c-6.7,0-12.1-5.4-12.1-12.1s5.4-12.1,12.1-12.1c6.7,0,12.1,5.4,12.1,12.1S60.4,866.6,53.7,866.6z M53.7,319.4
		c-6.7,0-12.1-5.4-12.1-12.1c0-6.7,5.4-12.1,12.1-12.1c6.7,0,12.1,5.4,12.1,12.1C65.8,314,60.4,319.4,53.7,319.4z M127.6,652.7
		c-3.1,0-5.7-2.6-5.7-5.7s2.6-5.7,5.7-5.7c3.1,0,5.7,2.6,5.7,5.7S130.7,652.7,127.6,652.7z M157,652.7c-3.1,0-5.7-2.6-5.7-5.7
		s2.6-5.7,5.7-5.7c3.1,0,5.7,2.6,5.7,5.7S160.2,652.7,157,652.7z M186.2,295.2c6.7,0,12.1,5.4,12.1,12.1c0,6.7-5.4,12.1-12.1,12.1
		s-12.1-5.4-12.1-12.1C174.1,300.6,179.6,295.2,186.2,295.2z M192.5,647c0,3.1-2.6,5.7-5.7,5.7c-3.1,0-5.7-2.6-5.7-5.7
		s2.6-5.7,5.7-5.7C190,641.3,192.5,643.8,192.5,647z M188.2,866.6c-6.7,0-12.1-5.4-12.1-12.1s5.4-12.1,12.1-12.1s12.1,5.4,12.1,12.1
		S194.9,866.6,188.2,866.6z M227.8,866.6c-3.4,0-6.1-2.7-6.1-6.1s2.7-6.1,6.1-6.1s6.1,2.7,6.1,6.1S231.2,866.6,227.8,866.6z
		 M227.8,837.2c-3.4,0-6.1-2.7-6.1-6.1s2.7-6.1,6.1-6.1s6.1,2.7,6.1,6.1S231.2,837.2,227.8,837.2z M227.8,807.9
		c-3.4,0-6.1-2.7-6.1-6.1s2.7-6.1,6.1-6.1s6.1,2.7,6.1,6.1S231.2,807.9,227.8,807.9z M227.8,778.5c-3.4,0-6.1-2.7-6.1-6.1
		s2.7-6.1,6.1-6.1s6.1,2.7,6.1,6.1S231.2,778.5,227.8,778.5z M227.8,749.1c-3.4,0-6.1-2.7-6.1-6.1s2.7-6.1,6.1-6.1s6.1,2.7,6.1,6.1
		S231.2,749.1,227.8,749.1z M227.8,719.7c-3.4,0-6.1-2.7-6.1-6.1s2.7-6.1,6.1-6.1s6.1,2.7,6.1,6.1S231.2,719.7,227.8,719.7z
		 M227.8,690.3c-3.4,0-6.1-2.7-6.1-6.1s2.7-6.1,6.1-6.1s6.1,2.7,6.1,6.1S231.2,690.3,227.8,690.3z M227.8,660.9
		c-3.4,0-6.1-2.7-6.1-6.1s2.7-6.1,6.1-6.1s6.1,2.7,6.1,6.1S231.2,660.9,227.8,660.9z M227.8,631.5c-3.4,0-6.1-2.7-6.1-6.1
		s2.7-6.1,6.1-6.1s6.1,2.7,6.1,6.1S231.2,631.5,227.8,631.5z M227.8,602.1c-3.4,0-6.1-2.7-6.1-6.1s2.7-6.1,6.1-6.1s6.1,2.7,6.1,6.1
		S231.2,602.1,227.8,602.1z M227.8,572.7c-3.4,0-6.1-2.7-6.1-6.1s2.7-6.1,6.1-6.1s6.1,2.7,6.1,6.1S231.2,572.7,227.8,572.7z
		 M227.8,543.3c-3.4,0-6.1-2.7-6.1-6.1s2.7-6.1,6.1-6.1s6.1,2.7,6.1,6.1S231.2,543.3,227.8,543.3z M227.8,513.9
		c-3.4,0-6.1-2.7-6.1-6.1s2.7-6.1,6.1-6.1s6.1,2.7,6.1,6.1S231.2,513.9,227.8,513.9z M227.8,484.5c-3.4,0-6.1-2.7-6.1-6.1
		s2.7-6.1,6.1-6.1s6.1,2.7,6.1,6.1S231.2,484.5,227.8,484.5z M227.8,455.1c-3.4,0-6.1-2.7-6.1-6.1s2.7-6.1,6.1-6.1s6.1,2.7,6.1,6.1
		S231.2,455.1,227.8,455.1z M227.8,425.7c-3.4,0-6.1-2.7-6.1-6.1s2.7-6.1,6.1-6.1s6.1,2.7,6.1,6.1S231.2,425.7,227.8,425.7z
		 M227.8,396.3c-3.4,0-6.1-2.7-6.1-6.1s2.7-6.1,6.1-6.1s6.1,2.7,6.1,6.1S231.2,396.3,227.8,396.3z M227.8,366.9
		c-3.4,0-6.1-2.7-6.1-6.1s2.7-6.1,6.1-6.1s6.1,2.7,6.1,6.1S231.2,366.9,227.8,366.9z M227.8,337.5c-3.4,0-6.1-2.7-6.1-6.1
		s2.7-6.1,6.1-6.1s6.1,2.7,6.1,6.1S231.2,337.5,227.8,337.5z M227.8,308.1c-3.4,0-6.1-2.7-6.1-6.1s2.7-6.1,6.1-6.1s6.1,2.7,6.1,6.1
		S231.2,308.1,227.8,308.1z"/>
	<path class="st1" d="M53.7,286.8c-11.3,0-20.5,9.2-20.5,20.5c0,11.3,9.2,20.5,20.5,20.5s20.5-9.2,20.5-20.5
		C74.3,296,65.1,286.8,53.7,286.8z M53.7,319.5c-6.7,0-12.1-5.4-12.1-12.1c0-6.7,5.4-12.1,12.1-12.1c6.7,0,12.1,5.4,12.1,12.1
		C65.8,314,60.4,319.5,53.7,319.5z"/>
	<path class="st1" d="M186.3,286.8c-11.3,0-20.5,9.2-20.5,20.5c0,11.3,9.2,20.5,20.5,20.5c11.3,0,20.5-9.2,20.5-20.5
		C206.8,296,197.6,286.8,186.3,286.8z M186.3,319.5c-6.7,0-12.1-5.4-12.1-12.1c0-6.7,5.4-12.1,12.1-12.1c6.7,0,12.1,5.4,12.1,12.1
		C198.4,314,193,319.5,186.3,319.5z"/>
	<path class="st1" d="M53.7,834c-11.3,0-20.5,9.2-20.5,20.5S42.4,875,53.7,875s20.5-9.2,20.5-20.5S65.1,834,53.7,834z M53.7,866.6
		c-6.7,0-12.1-5.4-12.1-12.1s5.4-12.1,12.1-12.1c6.7,0,12.1,5.4,12.1,12.1S60.4,866.6,53.7,866.6z"/>
	<path class="st1" d="M188.3,834c-11.3,0-20.5,9.2-20.5,20.5s9.2,20.5,20.5,20.5c11.3,0,20.5-9.2,20.5-20.5S199.6,834,188.3,834z
		 M188.3,866.6c-6.7,0-12.1-5.4-12.1-12.1s5.4-12.1,12.1-12.1c6.7,0,12.1,5.4,12.1,12.1S195,866.6,188.3,866.6z"/>
	<circle class="st2" cx="55" cy="372.1" r="10.6"/>
	<circle class="st3" cx="55" cy="372.1" r="5.5"/>
	<path class="st4" d="M17.5,351.8H0.3v3.4c2.3,0.9,3.9,3.1,3.9,5.7s-1.6,4.8-3.9,5.7v3.4h17.2c5,0,9-4,9-9v0
		C26.5,355.9,22.4,351.8,17.5,351.8z M15.9,366.9c-3.4,0-6.1-2.7-6.1-6.1s2.7-6.1,6.1-6.1s6.1,2.7,6.1,6.1S19.2,366.9,15.9,366.9z"
		/>
	<path class="st4" d="M17.5,498.8H0.3v3.4c2.3,0.9,3.9,3.1,3.9,5.7s-1.6,4.8-3.9,5.7v3.4h17.2c5,0,9-4,9-9S22.4,498.8,17.5,498.8z
		 M15.9,513.9c-3.4,0-6.1-2.7-6.1-6.1s2.7-6.1,6.1-6.1s6.1,2.7,6.1,6.1S19.2,513.9,15.9,513.9z"/>
	<path class="st4" d="M17.5,645.8H0.3v3.4c2.3,0.9,3.9,3.1,3.9,5.7s-1.6,4.8-3.9,5.7v3.4h17.2c5,0,9-4,9-9S22.4,645.8,17.5,645.8z
		 M15.9,660.9c-3.4,0-6.1-2.7-6.1-6.1s2.7-6.1,6.1-6.1s6.1,2.7,6.1,6.1S19.2,660.9,15.9,660.9z"/>
	<path class="st4" d="M17.5,675.2H0.3v3.4c2.3,0.9,3.9,3.1,3.9,5.7s-1.6,4.8-3.9,5.7v3.4h17.2c5,0,9-4,9-9S22.4,675.2,17.5,675.2z
		 M15.9,690.3c-3.4,0-6.1-2.7-6.1-6.1s2.7-6.1,6.1-6.1s6.1,2.7,6.1,6.1S19.2,690.3,15.9,690.3z"/>
	<path class="st4" d="M17.5,704.6H0.3v3.4c2.3,0.9,3.9,3.1,3.9,5.7s-1.6,4.8-3.9,5.7v3.4h17.2c5,0,9-4,9-9S22.4,704.6,17.5,704.6z
		 M15.9,719.7c-3.4,0-6.1-2.7-6.1-6.1s2.7-6.1,6.1-6.1s6.1,2.7,6.1,6.1S19.2,719.7,15.9,719.7z"/>
	<path class="st4" d="M17.5,734H0.3v3.4c2.3,0.9,3.9,3.1,3.9,5.7s-1.6,4.8-3.9,5.7v3.4h17.2c5,0,9-4,9-9S22.4,734,17.5,734z
		 M15.9,749.1c-3.4,0-6.1-2.7-6.1-6.1s2.7-6.1,6.1-6.1s6.1,2.7,6.1,6.1S19.2,749.1,15.9,749.1z"/>
	<path class="st4" d="M17.5,792.8H0.3v3.4c2.3,0.9,3.9,3.1,3.9,5.7s-1.6,4.8-3.9,5.7v3.4h17.2c5,0,9-4,9-9v0
		C26.5,796.8,22.4,792.8,17.5,792.8z M15.9,807.9c-3.4,0-6.1-2.7-6.1-6.1s2.7-6.1,6.1-6.1s6.1,2.7,6.1,6.1S19.2,807.9,15.9,807.9z"
		/>
	<path class="st4" d="M17.5,822.2H0.3v3.4c2.3,0.9,3.9,3.1,3.9,5.7s-1.6,4.8-3.9,5.7v3.4h17.2c5,0,9-4,9-9v0
		C26.5,826.2,22.4,822.2,17.5,822.2z M15.9,837.3c-3.4,0-6.1-2.7-6.1-6.1s2.7-6.1,6.1-6.1s6.1,2.7,6.1,6.1S19.2,837.3,15.9,837.3z"
		/>
	<path class="st4" d="M17.5,851.6H0.3v3.4c2.3,0.9,3.9,3.1,3.9,5.7s-1.6,4.8-3.9,5.7v3.4h17.2c5,0,9-4,9-9S22.4,851.6,17.5,851.6z
		 M15.9,866.7c-3.4,0-6.1-2.7-6.1-6.1s2.7-6.1,6.1-6.1s6.1,2.7,6.1,6.1S19.2,866.7,15.9,866.7z"/>
	<path class="st4" d="M239.5,302.1c0-2.6,1.6-4.8,3.9-5.7V293h-17.2c-5,0-9,4-9,9s4,9,9,9h17.2v-3.4
		C241.2,306.9,239.5,304.7,239.5,302.1z M227.8,308.2c-3.4,0-6.1-2.7-6.1-6.1s2.7-6.1,6.1-6.1s6.1,2.7,6.1,6.1
		S231.2,308.2,227.8,308.2z"/>
	<path class="st4" d="M239.5,331.5c0-2.6,1.6-4.8,3.9-5.7v-3.4h-17.2c-5,0-9,4-9,9v0c0,5,4,9,9,9h17.2v-3.4
		C241.2,336.2,239.5,334,239.5,331.5z M227.8,337.5c-3.4,0-6.1-2.7-6.1-6.1s2.7-6.1,6.1-6.1s6.1,2.7,6.1,6.1
		S231.2,337.5,227.8,337.5z"/>
	<path class="st4" d="M239.5,360.9c0-2.6,1.6-4.8,3.9-5.7v-3.4h-17.2c-5,0-9,4-9,9v0c0,5,4,9,9,9h17.2v-3.4
		C241.2,365.6,239.5,363.4,239.5,360.9z M227.8,366.9c-3.4,0-6.1-2.7-6.1-6.1s2.7-6.1,6.1-6.1s6.1,2.7,6.1,6.1
		S231.2,366.9,227.8,366.9z"/>
	<path class="st4" d="M239.5,390.3c0-2.6,1.6-4.8,3.9-5.7v-3.4h-17.2c-5,0-9,4-9,9s4,9,9,9h17.2v-3.4
		C241.2,395,239.5,392.8,239.5,390.3z M227.8,396.3c-3.4,0-6.1-2.7-6.1-6.1s2.7-6.1,6.1-6.1s6.1,2.7,6.1,6.1
		S231.2,396.3,227.8,396.3z"/>
	<path class="st4" d="M239.5,419.6c0-2.6,1.6-4.8,3.9-5.7v-3.4h-17.2c-5,0-9,4-9,9s4,9,9,9h17.2v-3.4
		C241.2,424.4,239.5,422.2,239.5,419.6z M227.8,425.7c-3.4,0-6.1-2.7-6.1-6.1s2.7-6.1,6.1-6.1s6.1,2.7,6.1,6.1
		S231.2,425.7,227.8,425.7z"/>
	<path class="st4" d="M239.5,449c0-2.6,1.6-4.8,3.9-5.7V440h-17.2c-5,0-9,4-9,9s4,9,9,9h17.2v-3.4
		C241.2,453.8,239.5,451.6,239.5,449z M227.8,455.1c-3.4,0-6.1-2.7-6.1-6.1s2.7-6.1,6.1-6.1s6.1,2.7,6.1,6.1
		S231.2,455.1,227.8,455.1z"/>
	<path class="st4" d="M239.5,507.8c0-2.6,1.6-4.8,3.9-5.7v-3.4h-17.2c-5,0-9,4-9,9s4,9,9,9h17.2v-3.4
		C241.2,512.6,239.5,510.4,239.5,507.8z M227.8,513.9c-3.4,0-6.1-2.7-6.1-6.1s2.7-6.1,6.1-6.1s6.1,2.7,6.1,6.1
		S231.2,513.9,227.8,513.9z"/>
	<path class="st4" d="M239.5,566.6c0-2.6,1.6-4.8,3.9-5.7v-3.4h-17.2c-5,0-9,4-9,9v0c0,5,4,9,9,9h17.2v-3.4
		C241.2,571.4,239.5,569.2,239.5,566.6z M227.8,572.7c-3.4,0-6.1-2.7-6.1-6.1s2.7-6.1,6.1-6.1s6.1,2.7,6.1,6.1
		S231.2,572.7,227.8,572.7z"/>
	<path class="st4" d="M239.5,596c0-2.6,1.6-4.8,3.9-5.7V587h-17.2c-5,0-9,4-9,9v0c0,5,4,9,9,9h17.2v-3.4
		C241.2,600.8,239.5,598.6,239.5,596z M227.8,602.1c-3.4,0-6.1-2.7-6.1-6.1s2.7-6.1,6.1-6.1s6.1,2.7,6.1,6.1
		S231.2,602.1,227.8,602.1z"/>
	<path class="st4" d="M239.5,625.4c0-2.6,1.6-4.8,3.9-5.7v-3.4h-17.2c-5,0-9,4-9,9s4,9,9,9h17.2v-3.4
		C241.2,630.2,239.5,628,239.5,625.4z M227.8,631.5c-3.4,0-6.1-2.7-6.1-6.1s2.7-6.1,6.1-6.1s6.1,2.7,6.1,6.1
		S231.2,631.5,227.8,631.5z"/>
	<path class="st4" d="M239.5,654.8c0-2.6,1.6-4.8,3.9-5.7v-3.4h-17.2c-5,0-9,4-9,9s4,9,9,9h17.2v-3.4
		C241.2,659.6,239.5,657.4,239.5,654.8z M227.8,660.9c-3.4,0-6.1-2.7-6.1-6.1s2.7-6.1,6.1-6.1s6.1,2.7,6.1,6.1
		S231.2,660.9,227.8,660.9z"/>
	<path class="st4" d="M239.5,684.2c0-2.6,1.6-4.8,3.9-5.7v-3.4h-17.2c-5,0-9,4-9,9s4,9,9,9h17.2v-3.4
		C241.2,689,239.5,686.8,239.5,684.2z M227.8,690.3c-3.4,0-6.1-2.7-6.1-6.1s2.7-6.1,6.1-6.1s6.1,2.7,6.1,6.1
		S231.2,690.3,227.8,690.3z"/>
	<path class="st4" d="M239.5,713.6c0-2.6,1.6-4.8,3.9-5.7v-3.4h-17.2c-5,0-9,4-9,9s4,9,9,9h17.2v-3.4
		C241.2,718.4,239.5,716.2,239.5,713.6z M227.8,719.7c-3.4,0-6.1-2.7-6.1-6.1s2.7-6.1,6.1-6.1s6.1,2.7,6.1,6.1
		S231.2,719.7,227.8,719.7z"/>
	<path class="st4" d="M239.5,743c0-2.6,1.6-4.8,3.9-5.7V734h-17.2c-5,0-9,4-9,9s4,9,9,9h17.2v-3.4
		C241.2,747.8,239.5,745.6,239.5,743z M227.8,749.1c-3.4,0-6.1-2.7-6.1-6.1s2.7-6.1,6.1-6.1s6.1,2.7,6.1,6.1
		S231.2,749.1,227.8,749.1z"/>
	<path class="st4" d="M239.5,801.8c0-2.6,1.6-4.8,3.9-5.7v-3.4h-17.2c-5,0-9,4-9,9v0c0,5,4,9,9,9h17.2v-3.4
		C241.2,806.6,239.5,804.4,239.5,801.8z M227.8,807.9c-3.4,0-6.1-2.7-6.1-6.1s2.7-6.1,6.1-6.1s6.1,2.7,6.1,6.1
		S231.2,807.9,227.8,807.9z"/>
	<path class="st4" d="M239.5,831.2c0-2.6,1.6-4.8,3.9-5.7v-3.4h-17.2c-5,0-9,4-9,9v0c0,5,4,9,9,9h17.2v-3.4
		C241.2,836,239.5,833.8,239.5,831.2z M227.8,837.3c-3.4,0-6.1-2.7-6.1-6.1s2.7-6.1,6.1-6.1s6.1,2.7,6.1,6.1
		S231.2,837.3,227.8,837.3z"/>
	<path class="st5" d="M163.1,274l4.4-4.4l-2.3-2.3l-6.6,6.6h-1.5v-4.7c0-1.2-1-2.2-2.2-2.2H85.4c-1.2,0-2.2,1-2.2,2.2v4.7h-1.5
		l-6.6-6.6l-2.3,2.3l4.4,4.4c-0.6,0.2-1,0.8-1,1.4v56.3c0,0.9,0.7,1.6,1.6,1.6h84.6c0.9,0,1.6-0.7,1.6-1.6v-56.3
		C164,274.8,163.6,274.2,163.1,274z"/>
	<g>
		<path class="st6" d="M100.3,296.2c0-3.2-2.6-5.8-5.8-5.8s-5.8,2.6-5.8,5.8c0,1.4,0.5,2.7,1.3,3.7h-0.2v7.7c0,1.2,1,2.1,2.1,2.1H97
			c1.2,0,2.1-1,2.1-2.1V300H99C99.8,299,100.3,297.7,100.3,296.2z"/>
		<path class="st6" d="M155.5,296.2c0-3.2-2.6-5.8-5.8-5.8s-5.8,2.6-5.8,5.8c0,1.4,0.5,2.7,1.3,3.7H145v7.7c0,1.2,1,2.1,2.1,2.1h5.1
			c1.2,0,2.1-1,2.1-2.1V300h-0.2C155,299,155.5,297.7,155.5,296.2z"/>
	</g>
	<path class="st7" d="M200.9,426.4h-21c-1.2,0-2.2-1-2.2-2.2v-26.7c0-1.2,1-2.2,2.2-2.2h21c1.2,0,2.2,1,2.2,2.2v26.7
		C203,425.4,202.1,426.4,200.9,426.4z"/>
	<g>
		<rect x="132" y="362.6" class="st8" width="21.7" height="14.4"/>
		<path class="st9" d="M149.3,377c-2-1.8-3.2-4.4-3.2-7.2s1.2-5.4,3.2-7.2h-12.8c2,1.8,3.2,4.4,3.2,7.2s-1.2,5.4-3.2,7.2H149.3z"/>
	</g>
	<g>
		<rect x="132.3" y="447.9" class="st8" width="21.7" height="14.4"/>
		<path class="st9" d="M149.6,462.4c-2-1.8-3.2-4.4-3.2-7.2s1.2-5.4,3.2-7.2h-12.8c2,1.8,3.2,4.4,3.2,7.2s-1.2,5.4-3.2,7.2H149.6z"
			/>
	</g>
	<g>
		<rect x="132.3" y="467.1" class="st8" width="21.7" height="14.4"/>
		<path class="st9" d="M149.6,481.5c-2-1.8-3.2-4.4-3.2-7.2s1.2-5.4,3.2-7.2h-12.8c2,1.8,3.2,4.4,3.2,7.2s-1.2,5.4-3.2,7.2H149.6z"
			/>
	</g>
	<g>
		
			<rect x="63.8" y="515.4" transform="matrix(6.123234e-17 -1 1 6.123234e-17 -454.2238 587.2603)" class="st8" width="5.4" height="10.6"/>
		
			<rect x="63.8" y="517.7" transform="matrix(6.123234e-17 -1 1 6.123234e-17 -454.2238 587.2603)" class="st9" width="5.4" height="6"/>
	</g>
	<g>
		<rect x="177.1" y="498" class="st8" width="5.4" height="10.6"/>
		<rect x="177.1" y="500.3" class="st9" width="5.4" height="6"/>
	</g>
	<rect x="179.5" y="348" class="st7" width="18.9" height="29.3"/>
	<g>
		<rect x="171.6" y="449.3" class="st8" width="20.6" height="9.6"/>
		<rect x="176.2" y="449.3" class="st10" width="11.5" height="9.6"/>
	</g>
	<rect x="120.2" y="617.3" class="st9" width="4.2" height="6.9"/>
	<rect x="126.9" y="617.3" class="st9" width="4.2" height="6.9"/>
	
		<rect x="66.6" y="527.3" transform="matrix(6.123234e-17 -1 1 6.123234e-17 -462.0205 599.5032)" class="st9" width="4.2" height="6.9"/>
	
		<rect x="89.5" y="460.2" transform="matrix(6.123234e-17 -1 1 6.123234e-17 -371.9557 555.2802)" class="st9" width="4.2" height="6.9"/>
	
		<rect x="66.3" y="570.9" transform="matrix(6.123234e-17 -1 1 6.123234e-17 -505.9745 642.7448)" class="st9" width="4.2" height="6.9"/>
	<rect x="195" y="576.1" class="st7" width="4.2" height="6.9"/>
	
		<rect x="189.2" y="514.9" transform="matrix(6.123234e-17 -1 1 6.123234e-17 -327.0043 709.6561)" class="st7" width="4.2" height="6.9"/>
	
		<rect x="87.2" y="359.2" transform="matrix(6.123234e-17 -1 1 6.123234e-17 -273.3226 451.9852)" class="st7" width="4.2" height="6.9"/>
	
		<rect x="82.3" y="371.5" transform="matrix(6.123234e-17 -1 1 6.123234e-17 -290.4379 459.3448)" class="st7" width="4.2" height="6.9"/>
	
		<rect x="192.8" y="463.9" transform="matrix(6.123234e-17 -1 1 6.123234e-17 -272.3946 662.3089)" class="st7" width="4.2" height="6.9"/>
	<path class="st11" d="M186.3,781H57.5c-2.1,0-3.9-1.7-3.9-3.9V669.1c0-2.1,1.7-3.9,3.9-3.9h128.8c2.1,0,3.9,1.7,3.9,3.9v108.1
		C190.2,779.3,188.5,781,186.3,781z"/>
	<rect x="101.5" y="827.3" class="st12" width="10.5" height="5.9"/>
	<rect x="130.3" y="827.5" class="st12" width="10.5" height="5.9"/>
	<rect x="101.5" y="865.1" class="st12" width="10.5" height="5.9"/>
	<rect x="130.3" y="865.2" class="st12" width="10.5" height="5.9"/>
	<polyline class="st13" points="17.5,309.8 17.5,314.2 35.4,332.2 35.4,380.8 51,396.4 51,531.1 55.9,536.1 91.2,536.1 	"/>
	<polyline class="st13" points="22.9,336.7 31,344.8 31,382.6 46.7,398.3 46.7,533.6 52.6,539.6 91,539.6 	"/>
	<polyline class="st13" points="23.2,395.1 43,414.9 43,536.1 53.4,546.5 95,546.5 	"/>
	<polyline class="st13" points="23.2,424.6 39.8,441.1 39.8,538 51.9,550.1 95.1,550.1 	"/>
	<polyline class="st13" points="23.2,454.7 35.6,467 35.6,543 49.5,557 93.4,557 	"/>
	<polyline class="st13" points="22.9,482.8 31.6,491.6 31.6,545.7 46.4,560.5 96.1,560.5 	"/>
	<polyline class="st13" points="22.9,541.5 45.3,563.9 102.7,563.9 	"/>
	<line class="st13" x1="23.7" y1="567.4" x2="98.8" y2="567.4"/>
	<path class="st13" d="M23.2,593.8c0.1-0.6,17.3-17.3,17.3-17.3H53l4.9,4.9h45.7"/>
	<polyline class="st13" points="20.4,619.7 25.7,614.4 25.7,606.6 30.9,601.4 30.9,593 43.9,579.9 52.6,579.9 57.3,584.6 
		95.3,584.6 	"/>
	<path class="st13" d="M30.7,609.8l3.4-3.4c0,0-0.7-8.9,0-9.6c0.7-0.7,6-6,6-6l6.3-6.3h6.1l3.7,3.7h35.1"/>
	<polyline class="st13" points="29.1,665.8 29.1,618.1 38.7,608.6 93.4,608.6 95,607 95,597.3 	"/>
	<polyline class="st13" points="17.5,764 17.5,760.4 32.9,744.9 32.9,664.7 35.7,661.9 35.7,620.1 42,613.8 94.2,613.8 98.4,609.6 
		98.4,602.3 	"/>
	<path class="st13" d="M35.7,647.6"/>
	<path class="st13" d="M35.7,662.8"/>
	<polyline class="st13" points="23.6,824.6 30.4,817.8 30.4,753.3 37.5,747.3 	"/>
	<polyline class="st13" points="35.6,757.6 42.6,750.6 42.6,660.9 39.9,658.2 39.9,621.4 44.6,616.7 94.9,616.7 101.9,609.7 
		101.9,593.1 	"/>
	<polyline class="st13" points="108.9,599.9 108.9,608.6 95.9,621.6 91.5,621.6 	"/>
	<polyline class="st13" points="93.9,630.2 112.4,611.7 112.4,596.3 	"/>
	<polyline class="st13" points="115.9,601.7 115.9,613.3 102.2,627 102.2,647.1 95.9,653.3 65,653.3 55.5,643.8 	"/>
	<polyline class="st13" points="133.9,640.7 138.7,635.9 138.7,622.6 135.5,619.4 135.5,609.4 132.4,606.2 132.4,595.3 	"/>
	<polyline class="st13" points="137.3,599.4 137.3,607.3 139.3,609.2 139.3,615.6 152.7,629.1 164.9,629.1 179.1,643.3 	"/>
	<polyline class="st13" points="145.3,597.2 145.3,607.6 151.3,613.6 172.3,613.6 200.5,641.9 200.5,754.4 206.7,760.6 206.7,811.5 
		212.3,817.1 212.3,837.3 223.3,848.3 223.3,853.6 	"/>
	<polyline class="st13" points="150.7,597.7 150.7,605 154.7,609 173.6,609 205.2,640.5 205.2,752 211.4,758.2 211.4,810.8 
		215.6,815 215.6,823.8 	"/>
	<polyline class="st13" points="157.5,592.5 165.3,592.5 211.1,638.3 211.1,750 227.2,766.1 	"/>
	<polyline class="st13" points="157.5,588.1 166.9,588.1 192.1,613.3 	"/>
	<polyline class="st13" points="158.6,582.9 166.6,582.9 190.1,606.4 195.5,606.4 206.3,617.3 206.3,624.2 	"/>
	<polyline class="st13" points="158.2,578.5 167.3,578.5 190.4,601.6 200.9,601.6 	"/>
	<polyline class="st13" points="158.2,574.4 169.1,574.4 174.1,579.3 	"/>
	<polyline class="st13" points="158.2,569.4 175.4,569.4 202.8,596.7 206.3,596.7 215.9,606.4 215.9,618.7 	"/>
	<line class="st13" x1="158.6" y1="564" x2="167.7" y2="564"/>
	<polyline class="st13" points="156.4,558.5 171.8,558.5 179.2,565.9 	"/>
	<polyline class="st13" points="187.9,578.5 192.4,574 192.4,554.7 203.4,554.7 	"/>
	<polyline class="st13" points="158.6,550.1 209.5,550.1 218.5,559.1 	"/>
	<polyline class="st13" points="158.2,545.7 213.8,545.7 220.3,539.2 	"/>
	<polyline class="st13" points="157.5,541.5 198.8,541.5 207.1,533.2 207.1,492.9 219.6,480.5 	"/>
	<polyline class="st13" points="158.6,537.2 179.1,537.2 202.4,514 202.4,491.1 	"/>
	<polyline class="st13" points="159.7,532.5 167.2,532.5 171.8,527.9 	"/>
	<path class="st13" d="M147.8,527.2c-0.2-0.3,9.2-9.2,9.2-9.2h15.6v-33.5l2.8-2.8v-7.7"/>
	<path class="st13" d="M147,525c0-0.2,0-6.5,0-6.5l10.3-10.3"/>
	<polyline class="st13" points="140.1,525.9 140.1,515.1 147.4,507.8 	"/>
	<line class="st13" x1="136.6" y1="522.9" x2="136.6" y2="505.3"/>
	<path class="st13" d="M133.1,524.7c0-0.6,0-15.2,0-15.2l-4.2-4.2"/>
	<path class="st13" d="M122.6,524.3c0-0.6,0-20.7,0-20.7"/>
	<path class="st13" d="M119.2,525.9c0-0.3,0-11.1,0-11.1l-7.6-7.6"/>
	<polyline class="st13" points="115.6,525.5 115.6,519.1 101.8,505.2 101.8,498.8 105,495.6 108.9,495.6 111.5,493 111.5,482.5 
		106.1,477.1 100,477.1 	"/>
	<polyline class="st13" points="99.8,482.8 105.4,482.8 108.5,485.9 108.5,491.1 105.7,493.9 101.1,493.9 97.7,497.3 97.7,506.3 
		108.7,517.3 108.7,524.1 	"/>
	<polyline class="st13" points="91.3,487.4 91.3,504.1 105.2,518 105.2,527.5 	"/>
	<polyline class="st13" points="76.5,486.6 76.5,493.7 85.9,503.1 85.9,507 99,520 99,529.1 	"/>
	<path class="st13" d="M94.8,523.2c0-0.1,0-5,0-5l-11.7-11.7v-1.1l-4.5-4.5h-6.4l-1.7-1.7h-6.9l-6.7-6.7v-14.4l1.6-1.6h8.8"/>
	<polyline class="st13" points="69.1,470.4 60.4,470.4 55.4,475.4 55.4,493.3 63.4,501.2 69.5,501.2 75.9,507.7 78.4,507.7 
		92.5,521.7 	"/>
	<line class="st13" x1="73.8" y1="443.8" x2="56" y2="461.5"/>
	<polyline class="st13" points="137.6,504.4 137.6,498.2 134.7,495.3 134.7,492.3 130.2,487.8 125.2,487.8 121.1,483.8 121.1,464.8 
		109.7,453.4 109.7,371.1 124,356.9 124,347.8 127.7,344.1 	"/>
	<path class="st13" d="M135.3,397c0-0.6,0-9,0-9l-3.1-3.1h-9.8l-4.5-4.5v-4.3"/>
	<polyline class="st13" points="129.3,429.4 129.3,434.8 126.1,438 120.2,438 118.6,439.5 	"/>
	<polyline class="st13" points="62.9,342.5 62.9,351.9 79.1,368.1 83.6,368.1 88.5,373 88.5,381.2 83.9,385.7 83.9,399.3 	"/>
	<rect x="45.6" y="335.4" class="st14" width="18.9" height="9.6"/>
	<g>
		<rect x="102.7" y="333.3" class="st15" width="4.3" height="11.5"/>
		<rect x="110.4" y="333.3" class="st15" width="4.3" height="11.5"/>
		<rect x="118.1" y="333.3" class="st15" width="4.3" height="11.5"/>
		<rect x="125.7" y="333.3" class="st15" width="4.3" height="11.5"/>
		<rect x="133.4" y="333.3" class="st15" width="4.3" height="11.5"/>
	</g>
	<g>
		<path class="st16" d="M106.8,354v-5.5h2.5v5.8c0,2,0.6,2.7,1.7,2.7c1.2,0,1.8-0.7,1.8-2.7v-5.8h2.4v5.5c0,3.5-1.4,5.1-4.2,5.1
			S106.8,357.6,106.8,354z"/>
		<path class="st16" d="M116.7,357.6l1.3-1.6c0.7,0.6,1.7,1,2.6,1c0.9,0,1.4-0.4,1.4-0.9c0-0.6-0.6-0.8-1.5-1.2l-1.3-0.6
			c-1.1-0.4-2.1-1.3-2.1-2.8c0-1.7,1.6-3.2,3.8-3.2c1.2,0,2.5,0.5,3.4,1.3l-1.3,1.6c-0.7-0.5-1.4-0.8-2.1-0.8
			c-0.8,0-1.3,0.3-1.3,0.8c0,0.6,0.7,0.8,1.6,1.2l1.3,0.5c1.3,0.5,2.1,1.4,2.1,2.8c0,1.7-1.5,3.3-4,3.3
			C119.1,359.1,117.8,358.7,116.7,357.6z"/>
		<path class="st16" d="M126.3,348.5h3.6c2.2,0,3.9,0.6,3.9,2.6c0,0.9-0.5,1.9-1.4,2.2v0.1c1.1,0.3,1.9,1.1,1.9,2.4
			c0,2.1-1.8,3.1-4.1,3.1h-3.9V348.5z M129.8,352.7c1.1,0,1.5-0.5,1.5-1.2c0-0.8-0.5-1.1-1.5-1.1h-1.1v2.2H129.8z M130,357
			c1.2,0,1.8-0.4,1.8-1.3s-0.6-1.2-1.8-1.2h-1.2v2.5H130z"/>
	</g>
	<path class="st17" d="M170.2,429.9h-45.7c-0.5,0-1-0.4-1-1v-33.5c0-0.5,0.4-1,1-1h45.7c0.5,0,1,0.4,1,1V429
		C171.1,429.5,170.7,429.9,170.2,429.9z"/>
	<g>
		<rect x="128.6" y="390.3" class="st15" width="1.4" height="4.1"/>
		<rect x="134.6" y="390.3" class="st15" width="1.4" height="4.1"/>
		<rect x="140.6" y="390.3" class="st15" width="1.4" height="4.1"/>
		<rect x="146.6" y="390.3" class="st15" width="1.4" height="4.1"/>
		<rect x="152.6" y="390.3" class="st15" width="1.4" height="4.1"/>
		<rect x="158.6" y="390.3" class="st15" width="1.4" height="4.1"/>
		<rect x="164.6" y="390.3" class="st15" width="1.4" height="4.1"/>
	</g>
	<g>
		<rect x="128.6" y="429.9" class="st15" width="1.4" height="4.1"/>
		<rect x="134.6" y="429.9" class="st15" width="1.4" height="4.1"/>
		<rect x="140.6" y="429.9" class="st15" width="1.4" height="4.1"/>
		<rect x="146.6" y="429.9" class="st15" width="1.4" height="4.1"/>
		<rect x="152.6" y="429.9" class="st15" width="1.4" height="4.1"/>
		<rect x="158.6" y="429.9" class="st15" width="1.4" height="4.1"/>
		<rect x="164.6" y="429.9" class="st15" width="1.4" height="4.1"/>
	</g>
	<g>
		<rect x="61.4" y="398.3" class="st18" width="39.3" height="48.9"/>
		<path class="st19" d="M81,441L81,441c-7.6,0-13.7-6.1-13.7-13.7v-9.1c0-7.6,6.1-13.7,13.7-13.7h0c7.6,0,13.7,6.1,13.7,13.7v9.1
			C94.7,434.9,88.6,441,81,441z"/>
		<path class="st19" d="M61.4,408.5L61.4,408.5l0-10.3h10.3v0C71.6,404,67.1,408.5,61.4,408.5z"/>
		<path class="st19" d="M71.6,447.2H61.4V437h0C67.1,437,71.6,441.6,71.6,447.2L71.6,447.2z"/>
		<path class="st19" d="M100.7,408.5L100.7,408.5c-5.7,0-10.3-4.6-10.3-10.3v0h10.3V408.5z"/>
		<path class="st19" d="M100.7,447.2H90.4l0,0c0-5.7,4.6-10.3,10.3-10.3h0V447.2z"/>
	</g>
	<g>
		<rect x="64.9" y="467.8" class="st17" width="34.6" height="22.9"/>
		<g>
			<rect x="60.7" y="468.9" class="st15" width="4.2" height="3.4"/>
			<rect x="60.7" y="474.7" class="st15" width="4.2" height="3.4"/>
			<rect x="60.7" y="480.4" class="st15" width="4.2" height="3.4"/>
			<rect x="60.7" y="486.2" class="st15" width="4.2" height="3.4"/>
		</g>
		<g>
			<rect x="99.5" y="468.9" class="st15" width="4.2" height="3.4"/>
			<rect x="99.5" y="474.7" class="st15" width="4.2" height="3.4"/>
			<rect x="99.5" y="480.4" class="st15" width="4.2" height="3.4"/>
			<rect x="99.5" y="486.2" class="st15" width="4.2" height="3.4"/>
		</g>
	</g>
	<rect x="135.5" y="499.3" class="st7" width="4.2" height="6.9"/>
	<g>
		<path class="st20" d="M160.4,603.1H81.4c-0.7,0-1.3-0.6-1.3-1.3v-79.1c0-0.7,0.6-1.3,1.3-1.3h79.1c0.7,0,1.3,0.6,1.3,1.3v79.1
			C161.7,602.5,161.1,603.1,160.4,603.1z"/>
		<g>
			<rect x="86.2" y="519.5" class="st15" width="3.1" height="1.9"/>
			<rect x="89.7" y="519.5" class="st15" width="3.1" height="1.9"/>
			<rect x="93.2" y="519.5" class="st15" width="3.1" height="1.9"/>
			<rect x="96.7" y="519.5" class="st15" width="3.1" height="1.9"/>
			<rect x="100.2" y="519.5" class="st15" width="3.1" height="1.9"/>
			<rect x="103.6" y="519.5" class="st15" width="3.1" height="1.9"/>
			<rect x="107.1" y="519.5" class="st15" width="3.1" height="1.9"/>
			<rect x="114.1" y="519.5" class="st15" width="3.1" height="1.9"/>
			<rect x="121.1" y="519.5" class="st15" width="3.1" height="1.9"/>
			<rect x="128" y="519.5" class="st15" width="3.1" height="1.9"/>
			<rect x="138.5" y="519.5" class="st15" width="3.1" height="1.9"/>
			<rect x="142" y="519.5" class="st15" width="3.1" height="1.9"/>
			<rect x="149" y="519.5" class="st15" width="3.1" height="1.9"/>
			<rect x="110.6" y="519.5" class="st15" width="3.1" height="1.9"/>
			<rect x="117.6" y="519.5" class="st15" width="3.1" height="1.9"/>
			<rect x="124.6" y="519.5" class="st15" width="3.1" height="1.9"/>
			<rect x="131.5" y="519.5" class="st15" width="3.1" height="1.9"/>
			<rect x="135" y="519.5" class="st15" width="3.1" height="1.9"/>
			<rect x="145.5" y="519.5" class="st15" width="3.1" height="1.9"/>
			<rect x="152.4" y="519.5" class="st15" width="3.1" height="1.9"/>
		</g>
		<g>
			<rect x="86.4" y="603.1" class="st15" width="3.1" height="1.9"/>
			<rect x="89.9" y="603.1" class="st15" width="3.1" height="1.9"/>
			<rect x="93.4" y="603.1" class="st15" width="3.1" height="1.9"/>
			<rect x="96.9" y="603.1" class="st15" width="3.1" height="1.9"/>
			<rect x="100.4" y="603.1" class="st15" width="3.1" height="1.9"/>
			<rect x="103.8" y="603.1" class="st15" width="3.1" height="1.9"/>
			<rect x="107.3" y="603.1" class="st15" width="3.1" height="1.9"/>
			<rect x="114.3" y="603.1" class="st15" width="3.1" height="1.9"/>
			<rect x="121.3" y="603.1" class="st15" width="3.1" height="1.9"/>
			<rect x="128.2" y="603.1" class="st15" width="3.1" height="1.9"/>
			<rect x="138.7" y="603.1" class="st15" width="3.1" height="1.9"/>
			<rect x="142.2" y="603.1" class="st15" width="3.1" height="1.9"/>
			<rect x="149.1" y="603.1" class="st15" width="3.1" height="1.9"/>
			<rect x="110.8" y="603.1" class="st15" width="3.1" height="1.9"/>
			<rect x="117.8" y="603.1" class="st15" width="3.1" height="1.9"/>
			<rect x="124.7" y="603.1" class="st15" width="3.1" height="1.9"/>
			<rect x="131.7" y="603.1" class="st15" width="3.1" height="1.9"/>
			<rect x="135.2" y="603.1" class="st15" width="3.1" height="1.9"/>
			<rect x="145.7" y="603.1" class="st15" width="3.1" height="1.9"/>
			<rect x="152.6" y="603.1" class="st15" width="3.1" height="1.9"/>
		</g>
		<g>
			
				<rect x="77.5" y="594.4" transform="matrix(6.123234e-17 -1 1 6.123234e-17 -516.2352 674.4158)" class="st15" width="3.1" height="1.9"/>
			
				<rect x="77.5" y="590.9" transform="matrix(6.123234e-17 -1 1 6.123234e-17 -512.7502 670.9307)" class="st15" width="3.1" height="1.9"/>
			
				<rect x="77.5" y="587.4" transform="matrix(6.123234e-17 -1 1 6.123234e-17 -509.2651 667.4457)" class="st15" width="3.1" height="1.9"/>
			
				<rect x="77.5" y="583.9" transform="matrix(6.123234e-17 -1 1 6.123234e-17 -505.7801 663.9606)" class="st15" width="3.1" height="1.9"/>
			
				<rect x="77.5" y="580.4" transform="matrix(6.123234e-17 -1 1 6.123234e-17 -502.295 660.4756)" class="st15" width="3.1" height="1.9"/>
			
				<rect x="77.5" y="576.9" transform="matrix(6.123234e-17 -1 1 6.123234e-17 -498.81 656.9905)" class="st15" width="3.1" height="1.9"/>
			
				<rect x="77.5" y="573.5" transform="matrix(6.123234e-17 -1 1 6.123234e-17 -495.325 653.5055)" class="st15" width="3.1" height="1.9"/>
			
				<rect x="77.5" y="566.5" transform="matrix(6.123234e-17 -1 1 6.123234e-17 -488.3549 646.5354)" class="st15" width="3.1" height="1.9"/>
			
				<rect x="77.5" y="559.5" transform="matrix(6.123234e-17 -1 1 6.123234e-17 -481.3848 639.5653)" class="st15" width="3.1" height="1.9"/>
			
				<rect x="77.5" y="552.5" transform="matrix(6.123234e-17 -1 1 6.123234e-17 -474.4147 632.5952)" class="st15" width="3.1" height="1.9"/>
			
				<rect x="77.5" y="542.1" transform="matrix(6.123234e-17 -1 1 6.123234e-17 -463.9596 622.1401)" class="st15" width="3.1" height="1.9"/>
			
				<rect x="77.5" y="538.6" transform="matrix(6.123234e-17 -1 1 6.123234e-17 -460.4745 618.655)" class="st15" width="3.1" height="1.9"/>
			
				<rect x="77.5" y="531.6" transform="matrix(6.123234e-17 -1 1 6.123234e-17 -453.5045 611.6849)" class="st15" width="3.1" height="1.9"/>
			
				<rect x="77.5" y="570" transform="matrix(6.123234e-17 -1 1 6.123234e-17 -491.8399 650.0204)" class="st15" width="3.1" height="1.9"/>
			
				<rect x="77.5" y="563" transform="matrix(6.123234e-17 -1 1 6.123234e-17 -484.8698 643.0504)" class="st15" width="3.1" height="1.9"/>
			
				<rect x="77.5" y="556" transform="matrix(6.123234e-17 -1 1 6.123234e-17 -477.8997 636.0803)" class="st15" width="3.1" height="1.9"/>
			
				<rect x="77.5" y="549.1" transform="matrix(6.123234e-17 -1 1 6.123234e-17 -470.9297 629.1102)" class="st15" width="3.1" height="1.9"/>
			
				<rect x="77.5" y="545.6" transform="matrix(6.123234e-17 -1 1 6.123234e-17 -467.4446 625.6251)" class="st15" width="3.1" height="1.9"/>
			
				<rect x="77.5" y="535.1" transform="matrix(6.123234e-17 -1 1 6.123234e-17 -456.9895 615.17)" class="st15" width="3.1" height="1.9"/>
			
				<rect x="77.5" y="528.1" transform="matrix(6.123234e-17 -1 1 6.123234e-17 -450.0194 608.1999)" class="st15" width="3.1" height="1.9"/>
		</g>
		<g>
			
				<rect x="161.1" y="594.4" transform="matrix(6.123234e-17 -1 1 6.123234e-17 -432.6453 758.0057)" class="st15" width="3.1" height="1.9"/>
			
				<rect x="161.1" y="590.9" transform="matrix(6.123234e-17 -1 1 6.123234e-17 -429.1602 754.5206)" class="st15" width="3.1" height="1.9"/>
			
				<rect x="161.1" y="587.4" transform="matrix(6.123234e-17 -1 1 6.123234e-17 -425.6752 751.0356)" class="st15" width="3.1" height="1.9"/>
			
				<rect x="161.1" y="583.9" transform="matrix(6.123234e-17 -1 1 6.123234e-17 -422.1902 747.5505)" class="st15" width="3.1" height="1.9"/>
			
				<rect x="161.1" y="580.4" transform="matrix(6.123234e-17 -1 1 6.123234e-17 -418.7051 744.0655)" class="st15" width="3.1" height="1.9"/>
			
				<rect x="161.1" y="576.9" transform="matrix(6.123234e-17 -1 1 6.123234e-17 -415.2201 740.5804)" class="st15" width="3.1" height="1.9"/>
			
				<rect x="161.1" y="573.5" transform="matrix(6.123234e-17 -1 1 6.123234e-17 -411.735 737.0954)" class="st15" width="3.1" height="1.9"/>
			
				<rect x="161.1" y="566.5" transform="matrix(6.123234e-17 -1 1 6.123234e-17 -404.765 730.1253)" class="st15" width="3.1" height="1.9"/>
			
				<rect x="161.1" y="559.5" transform="matrix(6.123234e-17 -1 1 6.123234e-17 -397.7949 723.1552)" class="st15" width="3.1" height="1.9"/>
			
				<rect x="161.1" y="552.5" transform="matrix(6.123234e-17 -1 1 6.123234e-17 -390.8248 716.1852)" class="st15" width="3.1" height="1.9"/>
			
				<rect x="161.1" y="542.1" transform="matrix(6.123234e-17 -1 1 6.123234e-17 -380.3696 705.73)" class="st15" width="3.1" height="1.9"/>
			
				<rect x="161.1" y="538.6" transform="matrix(6.123234e-17 -1 1 6.123234e-17 -376.8846 702.245)" class="st15" width="3.1" height="1.9"/>
			
				<rect x="161.1" y="531.6" transform="matrix(6.123234e-17 -1 1 6.123234e-17 -369.9145 695.2749)" class="st15" width="3.1" height="1.9"/>
			
				<rect x="161.1" y="570" transform="matrix(6.123234e-17 -1 1 6.123234e-17 -408.25 733.6104)" class="st15" width="3.1" height="1.9"/>
			
				<rect x="161.1" y="563" transform="matrix(6.123234e-17 -1 1 6.123234e-17 -401.2799 726.6403)" class="st15" width="3.1" height="1.9"/>
			
				<rect x="161.1" y="556" transform="matrix(6.123234e-17 -1 1 6.123234e-17 -394.3098 719.6702)" class="st15" width="3.1" height="1.9"/>
			
				<rect x="161.1" y="549.1" transform="matrix(6.123234e-17 -1 1 6.123234e-17 -387.3397 712.7001)" class="st15" width="3.1" height="1.9"/>
			
				<rect x="161.1" y="545.6" transform="matrix(6.123234e-17 -1 1 6.123234e-17 -383.8547 709.2151)" class="st15" width="3.1" height="1.9"/>
			
				<rect x="161.1" y="535.1" transform="matrix(6.123234e-17 -1 1 6.123234e-17 -373.3996 698.7599)" class="st15" width="3.1" height="1.9"/>
			
				<rect x="161.1" y="528.1" transform="matrix(6.123234e-17 -1 1 6.123234e-17 -366.4295 691.7899)" class="st15" width="3.1" height="1.9"/>
		</g>
		<circle class="st21" cx="90.2" cy="532.5" r="2.8"/>
	</g>
	<rect x="187.1" y="487.2" class="st17" width="18.2" height="8.6"/>
	<rect x="189.1" y="495.8" class="st15" width="2.9" height="8.7"/>
	<rect x="200.9" y="495.8" class="st15" width="2.9" height="8.7"/>
	<rect x="194.8" y="478.5" class="st15" width="2.9" height="8.7"/>
	
		<rect x="170.5" y="525.3" transform="matrix(6.123234e-17 -1 1 6.123234e-17 -356.0924 701.2874)" class="st9" width="4.2" height="6.9"/>
	<rect x="189.5" y="556.4" class="st7" width="4.2" height="6.9"/>
	
		<rect x="172.3" y="575.6" transform="matrix(0.7071 -0.7071 0.7071 0.7071 -358.3307 292.9475)" class="st9" width="4.2" height="6.9"/>
	<g>
		<path class="st4" d="M157,637.7c-5.1,0-9.2,4.1-9.2,9.2s4.1,9.2,9.2,9.2s9.2-4.1,9.2-9.2S162.1,637.7,157,637.7z M157,652.7
			c-3.1,0-5.7-2.6-5.7-5.7s2.6-5.7,5.7-5.7c3.1,0,5.7,2.6,5.7,5.7S160.2,652.7,157,652.7z"/>
		<path class="st4" d="M118.7,638.1v17.7h17.7v-17.7H118.7z M127.6,652.7c-3.1,0-5.7-2.6-5.7-5.7s2.6-5.7,5.7-5.7
			c3.1,0,5.7,2.6,5.7,5.7S130.7,652.7,127.6,652.7z"/>
		<path class="st4" d="M186.8,637.7c-5.1,0-9.2,4.1-9.2,9.2s4.1,9.2,9.2,9.2s9.2-4.1,9.2-9.2S191.9,637.7,186.8,637.7z M186.8,652.7
			c-3.1,0-5.7-2.6-5.7-5.7s2.6-5.7,5.7-5.7c3.1,0,5.7,2.6,5.7,5.7S190,652.7,186.8,652.7z"/>
	</g>
	<path class="st4" d="M17.5,616.4H0.3v3.4c2.3,0.9,3.9,3.1,3.9,5.7s-1.6,4.8-3.9,5.7v3.4h17.2c5,0,9-4,9-9S22.4,616.4,17.5,616.4z
		 M15.9,631.5c-3.4,0-6.1-2.7-6.1-6.1s2.7-6.1,6.1-6.1s6.1,2.7,6.1,6.1S19.2,631.5,15.9,631.5z"/>
	<path class="st4" d="M17.5,587H0.3v3.4c2.3,0.9,3.9,3.1,3.9,5.7s-1.6,4.8-3.9,5.7v3.4h17.2c5,0,9-4,9-9v0
		C26.5,591,22.4,587,17.5,587z M15.9,602.1c-3.4,0-6.1-2.7-6.1-6.1s2.7-6.1,6.1-6.1s6.1,2.7,6.1,6.1S19.2,602.1,15.9,602.1z"/>
	<path class="st4" d="M17.5,557.6H0.3v3.4c2.3,0.9,3.9,3.1,3.9,5.7s-1.6,4.8-3.9,5.7v3.4h17.2c5,0,9-4,9-9v0
		C26.5,561.6,22.4,557.6,17.5,557.6z M15.9,572.7c-3.4,0-6.1-2.7-6.1-6.1s2.7-6.1,6.1-6.1s6.1,2.7,6.1,6.1S19.2,572.7,15.9,572.7z"
		/>
	<path class="st4" d="M17.5,528.2H0.3v3.4c2.3,0.9,3.9,3.1,3.9,5.7s-1.6,4.8-3.9,5.7v3.4h17.2c5,0,9-4,9-9S22.4,528.2,17.5,528.2z
		 M15.9,543.3c-3.4,0-6.1-2.7-6.1-6.1s2.7-6.1,6.1-6.1s6.1,2.7,6.1,6.1S19.2,543.3,15.9,543.3z"/>
	<path class="st4" d="M17.5,469.4H0.3v3.4c2.3,0.9,3.9,3.1,3.9,5.7s-1.6,4.8-3.9,5.7v3.4h17.2c5,0,9-4,9-9S22.4,469.4,17.5,469.4z
		 M15.9,484.5c-3.4,0-6.1-2.7-6.1-6.1s2.7-6.1,6.1-6.1s6.1,2.7,6.1,6.1S19.2,484.5,15.9,484.5z"/>
	<path class="st4" d="M17.5,440H0.3v3.4c2.3,0.9,3.9,3.1,3.9,5.7s-1.6,4.8-3.9,5.7v3.4h17.2c5,0,9-4,9-9S22.4,440,17.5,440z
		 M15.9,455.1c-3.4,0-6.1-2.7-6.1-6.1s2.7-6.1,6.1-6.1s6.1,2.7,6.1,6.1S19.2,455.1,15.9,455.1z"/>
	<path class="st4" d="M17.5,410.6H0.3v3.4c2.3,0.9,3.9,3.1,3.9,5.7s-1.6,4.8-3.9,5.7v3.4h17.2c5,0,9-4,9-9S22.4,410.6,17.5,410.6z
		 M15.9,425.7c-3.4,0-6.1-2.7-6.1-6.1s2.7-6.1,6.1-6.1s6.1,2.7,6.1,6.1S19.2,425.7,15.9,425.7z"/>
	<path class="st4" d="M17.5,381.2H0.3v3.4c2.3,0.9,3.9,3.1,3.9,5.7s-1.6,4.8-3.9,5.7v3.4h17.2c5,0,9-4,9-9S22.4,381.2,17.5,381.2z
		 M15.9,396.3c-3.4,0-6.1-2.7-6.1-6.1s2.7-6.1,6.1-6.1s6.1,2.7,6.1,6.1S19.2,396.3,15.9,396.3z"/>
	<path class="st4" d="M17.5,322.4H0.3v3.4c2.3,0.9,3.9,3.1,3.9,5.7s-1.6,4.8-3.9,5.7v3.4h17.2c5,0,9-4,9-9v0
		C26.5,326.5,22.4,322.4,17.5,322.4z M15.9,337.5c-3.4,0-6.1-2.7-6.1-6.1s2.7-6.1,6.1-6.1s6.1,2.7,6.1,6.1S19.2,337.5,15.9,337.5z"
		/>
	<path class="st4" d="M17.5,293H0.3v3.4c2.3,0.9,3.9,3.1,3.9,5.7s-1.6,4.8-3.9,5.7v3.4h17.2c5,0,9-4,9-9S22.4,293,17.5,293z
		 M15.9,308.2c-3.4,0-6.1-2.7-6.1-6.1s2.7-6.1,6.1-6.1s6.1,2.7,6.1,6.1S19.2,308.2,15.9,308.2z"/>
	<path class="st4" d="M17.5,763.4H0.3v3.4c2.3,0.9,3.9,3.1,3.9,5.7s-1.6,4.8-3.9,5.7v3.4h17.2c5,0,9-4,9-9S22.4,763.4,17.5,763.4z
		 M15.9,778.5c-3.4,0-6.1-2.7-6.1-6.1s2.7-6.1,6.1-6.1s6.1,2.7,6.1,6.1S19.2,778.5,15.9,778.5z"/>
	<path class="st4" d="M239.5,860.6c0-2.6,1.6-4.8,3.9-5.7v-3.4h-17.2c-5,0-9,4-9,9s4,9,9,9h17.2v-3.4
		C241.2,865.4,239.5,863.2,239.5,860.6z M227.8,866.7c-3.4,0-6.1-2.7-6.1-6.1s2.7-6.1,6.1-6.1s6.1,2.7,6.1,6.1
		S231.2,866.7,227.8,866.7z"/>
	<path class="st4" d="M239.5,772.4c0-2.6,1.6-4.8,3.9-5.7v-3.4h-17.2c-5,0-9,4-9,9s4,9,9,9h17.2v-3.4
		C241.2,777.2,239.5,775,239.5,772.4z M227.8,778.5c-3.4,0-6.1-2.7-6.1-6.1s2.7-6.1,6.1-6.1s6.1,2.7,6.1,6.1
		S231.2,778.5,227.8,778.5z"/>
	<path class="st4" d="M239.5,537.2c0-2.6,1.6-4.8,3.9-5.7v-3.4h-17.2c-5,0-9,4-9,9s4,9,9,9h17.2v-3.4
		C241.2,542,239.5,539.8,239.5,537.2z M227.8,543.3c-3.4,0-6.1-2.7-6.1-6.1s2.7-6.1,6.1-6.1s6.1,2.7,6.1,6.1
		S231.2,543.3,227.8,543.3z"/>
	
		<rect x="90" y="631.3" transform="matrix(6.123234e-17 -1 1 6.123234e-17 -539.876 726.4595)" class="st12" width="6.7" height="3.7"/>
	<g>
		<path class="st22" d="M82.2,650.6H50.4c-1.2,0-2.2-1-2.2-2.2v-23.7c0-1.2,1-2.2,2.2-2.2h31.8c1.2,0,2.2,1,2.2,2.2v23.7
			C84.4,649.6,83.4,650.6,82.2,650.6z"/>
		<path class="st23" d="M79.9,648.2H52.6c-0.8,0-1.4-0.6-1.4-1.4v-20.4c0-0.8,0.6-1.4,1.4-1.4h27.3c0.8,0,1.4,0.6,1.4,1.4v20.4
			C81.3,647.6,80.7,648.2,79.9,648.2z"/>
	</g>
	
		<rect x="90" y="651.2" transform="matrix(6.123234e-17 -1 1 6.123234e-17 -559.8104 746.3938)" class="st12" width="6.7" height="3.7"/>
	<rect x="100.1" y="635.5" class="st7" width="4.2" height="6.9"/>
	<g>
		<path class="st16" d="M42.3,455.6V452c0-2.2,0.6-3.9,2.6-3.9c0.9,0,1.9,0.5,2.2,1.4h0.1c0.3-1.1,1.1-1.9,2.4-1.9
			c2.1,0,3.1,1.8,3.1,4.1v3.9H42.3z M46.4,452c0-1.1-0.5-1.5-1.2-1.5c-0.8,0-1.1,0.5-1.1,1.5v1.1h2.2V452z M50.8,451.8
			c0-1.2-0.4-1.8-1.3-1.8s-1.2,0.6-1.2,1.8v1.2h2.5V451.8z"/>
		<path class="st16" d="M47.4,446.4c-3.4,0-5.4-1.9-5.4-4.8s2-4.8,5.4-4.8c3.4,0,5.4,1.9,5.4,4.8S50.8,446.4,47.4,446.4z
			 M47.4,439.4c-2,0-3.2,0.8-3.2,2.2c0,1.4,1.2,2.2,3.2,2.2c2,0,3.3-0.9,3.3-2.2C50.7,440.2,49.4,439.4,47.4,439.4z"/>
		<path class="st16" d="M47.4,435.4c-3.4,0-5.4-1.9-5.4-4.8s2-4.8,5.4-4.8c3.4,0,5.4,1.9,5.4,4.8S50.8,435.4,47.4,435.4z
			 M47.4,428.4c-2,0-3.2,0.8-3.2,2.2c0,1.4,1.2,2.2,3.2,2.2c2,0,3.3-0.9,3.3-2.2C50.7,429.2,49.4,428.4,47.4,428.4z"/>
		<path class="st16" d="M44.3,422.3v2.8h-2.1V417h2.1v2.8h8.3v2.5H44.3z"/>
		<path class="st16" d="M51.3,416.4l-1.6-1.3c0.6-0.7,1-1.7,1-2.6c0-0.9-0.4-1.4-0.9-1.4c-0.6,0-0.8,0.6-1.2,1.5l-0.6,1.3
			c-0.4,1.1-1.3,2.1-2.8,2.1c-1.7,0-3.2-1.6-3.2-3.8c0-1.2,0.5-2.5,1.3-3.4l1.6,1.3c-0.5,0.7-0.8,1.4-0.8,2.1c0,0.8,0.3,1.3,0.8,1.3
			c0.6,0,0.8-0.7,1.2-1.6l0.5-1.3c0.5-1.3,1.4-2.1,2.8-2.1c1.7,0,3.3,1.5,3.3,4C52.9,414,52.4,415.4,51.3,416.4z"/>
		<path class="st16" d="M42.3,406.9v-6.6h2.1v4.1h2v-3.5h2.1v3.5h2.2v-4.3h2.1v6.8H42.3z"/>
		<path class="st16" d="M42.3,398.1v-2.5h8.3v-4h2.1v6.5H42.3z"/>
	</g>
	<g>
		<path class="st16" d="M141.4,612.8h3c3.2,0,5.3,1.6,5.3,5.2c0,3.6-2.1,5.2-5.1,5.2h-3.1V612.8z M144.3,621.2
			c1.7,0,2.9-0.8,2.9-3.2c0-2.5-1.2-3.2-2.9-3.2h-0.4v6.4H144.3z"/>
		<path class="st16" d="M151.6,612.8h6.6v2.1h-4.1v2h3.5v2.1h-3.5v2.2h4.3v2.1h-6.8V612.8z"/>
		<path class="st16" d="M160.4,612.8h3.6c2.2,0,3.9,0.6,3.9,2.6c0,0.9-0.5,1.9-1.4,2.2v0.1c1.1,0.3,1.9,1.1,1.9,2.4
			c0,2.1-1.8,3.1-4.1,3.1h-3.9V612.8z M164,616.9c1.1,0,1.5-0.5,1.5-1.2c0-0.8-0.5-1.1-1.5-1.1h-1.1v2.2H164z M164.2,621.3
			c1.2,0,1.8-0.4,1.8-1.3c0-0.9-0.6-1.2-1.8-1.2h-1.2v2.5H164.2z"/>
		<path class="st16" d="M170.1,618.3v-5.5h2.5v5.8c0,2,0.6,2.7,1.7,2.7c1.2,0,1.8-0.7,1.8-2.7v-5.8h2.4v5.5c0,3.5-1.4,5.1-4.2,5.1
			S170.1,621.8,170.1,618.3z"/>
		<path class="st16" d="M180.3,618.1c0-3.5,2.3-5.5,5.1-5.5c1.5,0,2.6,0.6,3.3,1.4l-1.3,1.5c-0.5-0.5-1.1-0.7-1.9-0.7
			c-1.5,0-2.7,1.2-2.7,3.2c0,2.1,0.9,3.3,2.9,3.3c0.4,0,0.8-0.1,1-0.3v-1.7h-1.7v-2h3.9v4.9c-0.7,0.7-2,1.3-3.5,1.3
			C182.6,623.4,180.3,621.6,180.3,618.1z"/>
	</g>
	<rect x="114.2" y="634.2" class="st24" width="86.4" height="25.6"/>
	<g>
		<path class="st16" d="M40.1,348.5h2.5v8.3h4v2.1h-6.5V348.5z"/>
		<path class="st16" d="M48.4,348.5H55v2.1h-4.1v2h3.5v2.1h-3.5v2.2h4.3v2.1h-6.8V348.5z"/>
		<path class="st16" d="M57.2,348.5h3c3.2,0,5.3,1.6,5.3,5.2c0,3.6-2.1,5.2-5.1,5.2h-3.1V348.5z M60.1,356.9c1.7,0,2.9-0.8,2.9-3.2
			c0-2.5-1.2-3.2-2.9-3.2h-0.4v6.4H60.1z"/>
	</g>
	<g>
		<rect x="143.7" y="498" class="st8" width="5.4" height="10.6"/>
		<rect x="143.7" y="500.3" class="st9" width="5.4" height="6"/>
	</g>
	<g>
		<rect x="154.3" y="498" class="st8" width="5.4" height="10.6"/>
		<rect x="154.3" y="500.3" class="st9" width="5.4" height="6"/>
	</g>
	<rect x="127.1" y="499.3" class="st7" width="4.2" height="6.9"/>
	
		<rect x="68.6" y="504.4" transform="matrix(6.123234e-17 -1 1 6.123234e-17 -437.1008 578.5727)" class="st7" width="4.2" height="6.9"/>
	<rect x="120.5" y="499.3" class="st9" width="4.2" height="6.9"/>
	<rect x="110.4" y="499.3" class="st9" width="4.2" height="6.9"/>
	<path class="st4" d="M239.5,478.4c0-2.6,1.6-4.8,3.9-5.7v-3.4h-17.2c-5,0-9,4-9,9s4,9,9,9h17.2v-3.4
		C241.2,483.2,239.5,481,239.5,478.4z M227.8,484.5c-3.4,0-6.1-2.7-6.1-6.1s2.7-6.1,6.1-6.1s6.1,2.7,6.1,6.1
		S231.2,484.5,227.8,484.5z"/>
	<g>
		
			<rect x="169.4" y="470.5" transform="matrix(-1.836970e-16 1 -1 -1.836970e-16 648.6888 297.9255)" class="st8" width="11.9" height="5.6"/>
		
			<rect x="172.1" y="470.5" transform="matrix(-1.836970e-16 1 -1 -1.836970e-16 648.6888 297.9255)" class="st10" width="6.6" height="5.6"/>
	</g>
</g>
<g id="layer1">
	<rect id="rect815" x="299.2" y="54.7" class="st25" width="176.9" height="237.7"/>
	<rect id="rect821" x="341" y="253.7" class="st16" width="92" height="31.7"/>
	<path id="rect825" class="st26" d="M347.1,255.5h18.4c3.2,0,5.8,2.6,5.8,5.8v16.2c0,3.2-2.6,5.8-5.8,5.8h-18.4
		c-3.2,0-5.8-2.6-5.8-5.8v-16.2C341.2,258.1,343.9,255.5,347.1,255.5z"/>
	<path id="rect872" class="st26" d="M408.5,255.5H427c3.2,0,5.8,2.6,5.8,5.8v16.2c0,3.2-2.6,5.8-5.8,5.8h-18.4
		c-3.2,0-5.8-2.6-5.8-5.8v-16.2C402.7,258.1,405.3,255.5,408.5,255.5z"/>
	<path id="rect874" class="st26" d="M377.1,255.5H397c2.8,0,5.1,2.3,5.1,5.1v17.7c0,2.8-2.3,5.1-5.1,5.1h-19.9
		c-2.8,0-5.1-2.3-5.1-5.1v-17.7C372,257.7,374.3,255.5,377.1,255.5z"/>
	<rect id="rect947" x="354.6" y="270.6" class="st27" width="3.3" height="58.1"/>
	<rect id="rect949" x="385.5" y="270.6" class="st27" width="3.3" height="58.1"/>
	<rect id="rect951" x="416.1" y="270.6" class="st27" width="3.3" height="58.1"/>
	<circle id="path1456" class="st28" cx="324" cy="141.6" r="16.1"/>
	<circle id="ellipse1458" class="st28" cx="449.6" cy="141.6" r="16.1"/>
	<circle id="path1460" class="st29" cx="324" cy="141.6" r="14.5"/>
	<circle id="ellipse1464" class="st29" cx="449.6" cy="141.6" r="14.5"/>
	<rect id="rect87" x="324.1" y="220.4" class="st25" width="125.9" height="31.7"/>
	<circle id="path91" class="st28" cx="340.8" cy="241.4" r="11.8"/>
	<circle id="circle93" class="st28" cx="432.7" cy="241.4" r="11.8"/>
	<path id="rect95" class="st28" d="M350.3,193.1h7.9c4.3,0,7.9,3.5,7.9,7.9v19.6c0,4.3-3.5,7.9-7.9,7.9h-7.9c-4.3,0-7.9-3.5-7.9-7.9
		v-19.6C342.4,196.6,345.9,193.1,350.3,193.1z"/>
	<path id="rect97" class="st28" d="M417,193.1h7.9c4.3,0,7.9,3.5,7.9,7.9v19.6c0,4.3-3.5,7.9-7.9,7.9H417c-4.3,0-7.9-3.5-7.9-7.9
		v-19.6C409.1,196.6,412.7,193.1,417,193.1z"/>
	<circle id="circle99" class="st28" cx="364" cy="179.7" r="11.8"/>
	<circle id="circle101" class="st28" cx="411.1" cy="179.7" r="11.8"/>
	<circle id="ellipse103" class="st29" cx="337.7" cy="178.9" r="14.5"/>
	<circle id="ellipse105" class="st29" cx="437.4" cy="178.9" r="14.5"/>
	<path id="rect111" class="st28" d="M350.3,128.7h7.9c4.3,0,7.9,3.5,7.9,7.9v19.6c0,4.3-3.5,7.9-7.9,7.9h-7.9
		c-4.3,0-7.9-3.5-7.9-7.9v-19.6C342.4,132.2,345.9,128.7,350.3,128.7z"/>
	<path id="rect113" class="st28" d="M417,128.7h7.9c4.3,0,7.9,3.5,7.9,7.9v19.6c0,4.3-3.5,7.9-7.9,7.9H417c-4.3,0-7.9-3.5-7.9-7.9
		v-19.6C409.1,132.2,412.7,128.7,417,128.7z"/>
	<circle id="circle115" class="st29" cx="354.2" cy="209.7" r="10.8"/>
	<circle id="circle117" class="st29" cx="420.9" cy="209.7" r="10.8"/>
	<circle id="circle119" class="st29" cx="340.8" cy="241.4" r="9.8"/>
	<circle id="circle121" class="st29" cx="432.7" cy="241.4" r="9.8"/>
	<circle id="circle123" class="st29" cx="354.2" cy="209.7" r="10.8"/>
	<circle id="circle129" class="st28" cx="339.3" cy="101.2" r="11.8"/>
	<circle id="circle131" class="st29" cx="339.3" cy="101.2" r="9.8"/>
	<circle id="circle133" class="st28" cx="435.8" cy="101.2" r="11.8"/>
	<circle id="circle135" class="st29" cx="435.8" cy="101.2" r="9.8"/>
	<path id="path31-1" class="st16" d="M349.5,74.3c1.1,0,1.2,0,1.4-0.2c0.1-0.1,0.3-0.2,0.4-0.3c0.1-0.2,0.1-0.3,0.1-2.6l0-2.4l2.3,0
		l2.3,0v3c0,3.3,0,3.6-0.4,4.4c-0.4,1.1-1.3,1.8-2.4,1.9c-0.7,0.1-1.4,0.1-2.1,0.1c-0.9,0-1.9,0-2.3-0.1l-0.6-0.1l0-1.9l0-1.9
		L349.5,74.3L349.5,74.3z M371.7,80.9c19.9,0,24.8,0,24,0.1l-0.1,0l0.1,0.1c0.1,0,0.1,0.1-0.1,0.1c-0.1,0-0.1,0,0.2,0.1l0.4,0
		l-0.4,0c-0.2,0-0.4,0-0.3,0c0.1,0,0.1,0.1,0.1,0.6c0,0.5,0,0.5,0.2,0.6c0.1,0,0.1,0-0.1,0c-0.1,0-0.3,0-0.3,0.1
		c0,0-7.9,0.1-23.6,0.1h-23.6v-1.7L371.7,80.9z M353.8,62.7h2.4v3.8h-4.7v-3.8H353.8z M358.5,69.8c0.1-1,0.4-2,0.9-2.9
		c0.1-0.2,0.2-0.4,0.3-0.6c0.1-0.1,0.2-0.2,0.3-0.4c0.3-0.4,0.6-0.8,0.9-1.2c0,0,0.1-0.1,0.1-0.1c0.3-0.4,0.7-0.7,1-0.9
		c0.5-0.4,1.1-0.7,1.8-0.9c0.9-0.4,1.9-0.5,2.8-0.4c0.6,0,1.1,0.1,1.7,0.2c0.4,0.1,0.8,0.2,0.9,0.3c0.1,0.1,0.2,0.1,0.4,0.1
		c0.2,0.1,0.4,0.2,0.6,0.3c1.4,0.9,2.5,2.2,3.3,3.7c0.9,1.9,1,4,0.3,6c-0.2,0.6-0.5,1.2-0.9,1.8c-0.4,0.6-0.8,1.2-1.4,1.6
		c-0.9,1-2.1,1.6-3.4,2c-1,0.2-2,0.3-3,0.2c-1.2-0.2-2.2-0.7-3.2-1.4c-0.4-0.3-0.7-0.6-1-0.9c-0.1-0.1-0.2-0.2-0.3-0.4
		c-1-1.1-1.7-2.5-2-3.9C358.5,71.3,358.5,70.5,358.5,69.8L358.5,69.8z M363,71.8c0.2,0.9,0.7,1.7,1.4,2.3c0.8,0.7,1.8,0.9,2.8,0.6
		c1.2-0.5,2.2-1.6,2.5-2.9c0.2-0.9,0.2-1.8,0-2.6c-0.3-1-0.8-1.8-1.6-2.4c-0.3-0.2-0.6-0.3-0.9-0.4c-0.7-0.2-1.5-0.1-2.2,0.2
		c-0.6,0.4-1.2,1-1.5,1.7C362.9,69.3,362.7,70.6,363,71.8L363,71.8z M376.3,62.7c0,0,1.1,0,2.4,0l2.3,0l0,2.1c0,2,0,2.1,0.1,2.5
		c0.4,0.9,1.4,1.4,2.4,1.1c0.5-0.1,0.8-0.5,1.1-0.9l0.2-0.4l0-2.2l0-2.2h4.7l0,2.5c0.1,1,0,2-0.2,3c-0.2,0.9-0.6,1.7-1.2,2.4
		c-0.1,0.1-0.2,0.2-0.2,0.4c-0.3,0.4-0.7,0.7-1.1,1c-0.4,0.3-0.9,0.6-1.4,0.7c-0.1,0-0.4,0.1-0.7,0.2c-0.5,0.2-1.1,0.2-1.7,0.2
		c-0.6,0.1-1.2,0-1.8-0.2c-0.7-0.1-1.3-0.4-1.9-0.8c-0.7-0.5-1.3-1.1-1.8-1.8c-0.6-0.9-1-1.9-1.1-3
		C376.1,65.8,376.2,64.2,376.3,62.7L376.3,62.7z M382.8,74.3h3.9v4H379v-4L382.8,74.3z M389.4,59.7c0,0,0.1-0.1,0.1-0.2
		c0-0.2,0-0.2,0.3-0.3c0.2,0,6.7,0,14.5,0l14.2,0l0,0.8l0,0.8H404c-7.9,0-14.5,0-14.5,0c-0.1,0-0.1-0.1-0.1-0.6
		C389.4,59.9,389.4,59.7,389.4,59.7L389.4,59.7z M395.9,69.2h4.9v3.9H391v-3.9H395.9z M404.7,62.7h2.4v3.8h-4.7v-3.8H404.7z
		 M404.7,68.5h2.4v9.9h-4.7v-9.9H404.7z M414.1,62.7h4.9v3.8h-9.9v-3.8H414.1z M410,68.8c0,0,1.1,0,2.3,0l2.3,0l0,2.3
		c0,3.2-0.1,3,2.3,3.1l1.5,0v4l-0.6,0.1c-1.4,0.1-2.9,0.1-4.3,0c-1-0.1-1.9-0.5-2.6-1.2c-0.6-0.7-0.9-1.6-1-2.5
		C409.9,73.8,409.9,68.9,410,68.8L410,68.8z M421.8,60.8c0.1-0.4,0.3-0.8,0.6-1c0.9-0.9,2.4-1,3.4-0.3c0.4,0.2,0.7,0.6,0.8,1
		c0.2,0.3,0.2,0.7,0.2,1c0,0.4,0,0.7-0.2,1.1c-0.4,0.8-1.2,1.4-2.1,1.4c-0.8,0.1-1.6-0.2-2.1-0.8C421.8,62.6,421.6,61.7,421.8,60.8z
		 M422.2,62.4c0.3,0.6,0.9,1,1.6,1.2c0.7,0.2,1.5,0,2-0.5c0.2-0.2,0.4-0.4,0.5-0.6c0.2-0.3,0.2-0.6,0.2-1c0-0.3,0-0.7-0.2-1
		c-0.1-0.3-0.3-0.5-0.6-0.7c-0.2-0.2-0.5-0.3-0.7-0.4c-1.1-0.3-2.3,0.2-2.8,1.3C422,61.3,422,61.9,422.2,62.4L422.2,62.4z M424,60
		c0.3,0,0.7,0,1,0.1c0.4,0.3,0.5,0.8,0.3,1.2c-0.1,0.1-0.2,0.2-0.3,0.2l-0.2,0.1l0.2,0.2c0.2,0.2,0.3,0.4,0.4,0.6
		c0.1,0.1,0.2,0.3,0.3,0.4c0.1,0.1,0,0.2-0.2,0.2l-0.3,0l-0.4-0.6c-0.4-0.6-0.5-0.7-1-0.7h-0.3V63l-0.2,0l-0.2,0l0-1.5l0-1.5L424,60
		z M424.1,61.3c0.5,0,0.6,0,0.7-0.1c0.3-0.3,0.2-0.7-0.4-0.8c-0.3,0-0.6,0-0.9,0c0,0.1,0,0.3,0,0.4v0.4L424.1,61.3z"/>
	<circle id="circle84" class="st29" cx="364" cy="179.7" r="9.8"/>
	<circle id="circle86" class="st29" cx="411.1" cy="179.7" r="9.8"/>
	<g id="text87">
		<g class="st30">
			<path class="st16" d="M318.2,218.5c0.1,0,0.1,0,0.2,0c0.1,0,0.1,0.1,0.1,0.2c0,0.1,0.1,0.2,0.1,0.3c0,0.1,0,0.3,0,0.5
				c0,0.3,0,0.5,0,0.7c0,0.2-0.1,0.3-0.1,0.4c-0.1,0.1-0.1,0.2-0.2,0.2l-7.9,5.8h7.9c0.1,0,0.1,0,0.2,0s0.1,0.1,0.1,0.2
				s0.1,0.2,0.1,0.3c0,0.1,0,0.3,0,0.5c0,0.2,0,0.4,0,0.5c0,0.1,0,0.2-0.1,0.3c0,0.1-0.1,0.1-0.1,0.2c-0.1,0-0.1,0-0.2,0h-15.1
				c-0.1,0-0.1,0-0.2,0c0,0-0.1-0.1-0.1-0.2c0-0.1-0.1-0.2-0.1-0.3c0-0.1,0-0.3,0-0.5c0-0.2,0-0.4,0-0.5c0-0.1,0-0.2,0.1-0.3
				s0.1-0.1,0.1-0.2s0.1,0,0.2,0h7l-7-5.6c-0.1,0-0.1-0.1-0.2-0.2c0-0.1-0.1-0.1-0.1-0.2c0-0.1,0-0.2-0.1-0.3s0-0.3,0-0.5
				s0-0.4,0-0.5s0-0.2,0.1-0.3s0.1-0.1,0.1-0.2c0,0,0.1,0,0.2,0c0.1,0,0.2,0,0.3,0.1s0.3,0.2,0.4,0.3l6.2,5.2l7.5-5.6
				c0.2-0.1,0.4-0.2,0.4-0.2C318.1,218.6,318.2,218.5,318.2,218.5z"/>
		</g>
		<g class="st30">
			<path class="st16" d="M312.4,210.8h5.8c0.1,0,0.1,0,0.2,0c0,0,0.1,0.1,0.1,0.2c0,0.1,0.1,0.2,0.1,0.3c0,0.1,0,0.3,0,0.5
				c0,0.2,0,0.4,0,0.5c0,0.1,0,0.2-0.1,0.3c0,0.1-0.1,0.1-0.1,0.2c0,0-0.1,0-0.2,0h-5.8l-8.9,4.5c-0.2,0.1-0.3,0.1-0.4,0.2
				c-0.1,0-0.2,0-0.2-0.1s-0.1-0.2-0.1-0.3s0-0.4,0-0.6c0-0.2,0-0.4,0-0.6c0-0.1,0-0.3,0.1-0.4c0-0.1,0.1-0.2,0.1-0.2
				c0.1,0,0.1-0.1,0.2-0.1l4.5-2.2c0.4-0.2,0.9-0.4,1.4-0.6c0.5-0.2,0.9-0.4,1.4-0.6v0c-0.5-0.2-0.9-0.4-1.4-0.6
				c-0.5-0.2-0.9-0.4-1.4-0.6l-4.6-2.2c-0.1,0-0.1-0.1-0.2-0.1c-0.1,0-0.1-0.1-0.1-0.2c0-0.1,0-0.2-0.1-0.3c0-0.1,0-0.3,0-0.5
				c0-0.3,0-0.5,0-0.7s0.1-0.3,0.1-0.3c0.1-0.1,0.1-0.1,0.2-0.1c0.1,0,0.2,0.1,0.4,0.2L312.4,210.8z"/>
		</g>
		<g class="st30">
			<path class="st16" d="M312.4,200.4c0.3,0,0.5,0,0.7,0.1c0.1,0.1,0.2,0.2,0.2,0.3v5.1c0,0.1-0.1,0.3-0.2,0.3
				c-0.1,0.1-0.3,0.1-0.7,0.1c-0.3,0-0.5,0-0.6-0.1c-0.1-0.1-0.2-0.2-0.2-0.3v-5.1c0-0.1,0-0.1,0-0.2c0-0.1,0.1-0.1,0.1-0.1
				c0.1,0,0.2-0.1,0.3-0.1C312.1,200.4,312.2,200.4,312.4,200.4z"/>
			<path class="st16" d="M310.6,187.8c1.2,0,2.3,0.1,3.3,0.3s1.9,0.5,2.6,0.9c0.7,0.4,1.3,1,1.7,1.7c0.4,0.7,0.6,1.6,0.6,2.6
				c0,1-0.2,1.8-0.5,2.5c-0.4,0.7-0.9,1.2-1.6,1.6c-0.7,0.4-1.5,0.7-2.5,0.9c-1,0.2-2.2,0.3-3.5,0.3c-1.2,0-2.3-0.1-3.3-0.3
				c-1-0.2-1.9-0.5-2.6-0.9c-0.7-0.4-1.3-1-1.7-1.7c-0.4-0.7-0.6-1.6-0.6-2.6c0-1,0.2-1.8,0.5-2.5c0.4-0.7,0.9-1.2,1.6-1.6
				c0.7-0.4,1.5-0.7,2.5-0.9C308.2,187.9,309.3,187.8,310.6,187.8z M310.8,190c-0.8,0-1.5,0-2.1,0.1s-1.2,0.1-1.7,0.2
				c-0.5,0.1-0.9,0.3-1.2,0.4c-0.3,0.2-0.6,0.4-0.9,0.6c-0.2,0.2-0.4,0.5-0.5,0.8s-0.2,0.7-0.2,1.1c0,0.7,0.2,1.2,0.5,1.7
				c0.3,0.4,0.8,0.8,1.3,1c0.6,0.2,1.2,0.4,2,0.5c0.8,0.1,1.6,0.1,2.5,0.1c1.2,0,2.2-0.1,3-0.2c0.8-0.1,1.5-0.3,2-0.6
				c0.5-0.3,0.9-0.6,1.1-1s0.4-0.9,0.4-1.5c0-0.5-0.1-0.9-0.2-1.2c-0.1-0.3-0.4-0.6-0.6-0.9c-0.3-0.2-0.6-0.5-1-0.6
				c-0.4-0.2-0.8-0.3-1.3-0.4c-0.5-0.1-1-0.2-1.5-0.2C311.9,190,311.4,190,310.8,190z"/>
			<path class="st16" d="M314,175.8c0.7,0,1.4,0.1,2,0.4c0.6,0.3,1.1,0.6,1.5,1.1c0.4,0.5,0.7,1.1,1,1.7c0.2,0.7,0.3,1.5,0.3,2.3
				c0,0.5,0,1-0.1,1.5c-0.1,0.5-0.2,0.9-0.3,1.2c-0.1,0.4-0.2,0.7-0.4,0.9c-0.1,0.2-0.2,0.4-0.3,0.4c-0.1,0.1-0.1,0.1-0.2,0.1
				c-0.1,0-0.1,0.1-0.2,0.1s-0.2,0-0.3,0.1c-0.1,0-0.3,0-0.4,0c-0.3,0-0.5,0-0.6-0.1c-0.1-0.1-0.2-0.1-0.2-0.2
				c0-0.1,0.1-0.2,0.2-0.4s0.3-0.5,0.4-0.8c0.2-0.3,0.3-0.7,0.4-1.2c0.1-0.5,0.2-1,0.2-1.5c0-0.5-0.1-1-0.2-1.4s-0.3-0.8-0.6-1
				c-0.3-0.3-0.5-0.5-0.9-0.6c-0.3-0.1-0.7-0.2-1.1-0.2c-0.4,0-0.8,0.1-1.2,0.3c-0.4,0.2-0.7,0.4-0.9,0.8s-0.5,0.8-0.6,1.3
				c-0.1,0.5-0.2,1.1-0.2,1.7v1.5c0,0.1,0,0.1,0,0.2s-0.1,0.1-0.1,0.2c-0.1,0-0.1,0.1-0.3,0.1s-0.2,0-0.4,0c-0.2,0-0.3,0-0.4,0
				s-0.2-0.1-0.2-0.1s-0.1-0.1-0.1-0.2s0-0.1,0-0.2v-1.4c0-0.5-0.1-1-0.2-1.4c-0.1-0.4-0.3-0.8-0.6-1.1c-0.3-0.3-0.6-0.5-0.9-0.7
				s-0.8-0.2-1.2-0.2c-0.3,0-0.6,0.1-0.9,0.2c-0.3,0.1-0.6,0.3-0.8,0.5c-0.2,0.2-0.4,0.5-0.5,0.8c-0.1,0.3-0.2,0.7-0.2,1.1
				c0,0.5,0.1,0.9,0.2,1.3c0.1,0.4,0.3,0.7,0.5,1.1c0.2,0.3,0.3,0.6,0.5,0.8s0.2,0.3,0.2,0.4c0,0.1,0,0.1,0,0.2c0,0-0.1,0.1-0.1,0.1
				c-0.1,0-0.1,0-0.3,0.1c-0.1,0-0.3,0-0.4,0c-0.1,0-0.2,0-0.3,0c-0.1,0-0.2,0-0.2,0c-0.1,0-0.1-0.1-0.2-0.1s-0.1-0.1-0.2-0.2
				c-0.1-0.1-0.2-0.2-0.3-0.5c-0.1-0.2-0.3-0.5-0.4-0.9c-0.1-0.3-0.3-0.7-0.4-1.2c-0.1-0.5-0.1-0.9-0.1-1.5c0-0.7,0.1-1.4,0.3-1.9
				c0.2-0.6,0.5-1,0.8-1.4s0.7-0.6,1.2-0.8c0.5-0.2,1-0.3,1.6-0.3c0.5,0,1,0.1,1.4,0.2c0.4,0.1,0.8,0.3,1.1,0.6
				c0.3,0.3,0.6,0.6,0.8,0.9c0.2,0.4,0.4,0.8,0.5,1.3h0c0.1-0.5,0.2-1,0.4-1.5c0.2-0.5,0.5-0.8,0.8-1.2c0.3-0.3,0.7-0.6,1.1-0.8
				C313.1,175.9,313.5,175.8,314,175.8z"/>
			<path class="st16" d="M317.7,163c0.2,0,0.3,0,0.4,0c0.1,0,0.2,0.1,0.3,0.1c0.1,0,0.1,0.1,0.1,0.1c0,0.1,0,0.1,0,0.2v8.2
				c0,0.1,0,0.1,0,0.2c0,0-0.1,0.1-0.1,0.1c-0.1,0-0.2,0.1-0.3,0.1s-0.2,0-0.4,0c-0.1,0-0.3,0-0.4,0s-0.2-0.1-0.3-0.1
				s-0.1-0.1-0.2-0.1s-0.1-0.1-0.1-0.2v-3.3h-12l1.8,3c0.1,0.2,0.1,0.3,0.1,0.4c0,0.1,0,0.2-0.1,0.2c-0.1,0.1-0.1,0.1-0.3,0.1
				c-0.1,0-0.3,0-0.5,0c-0.1,0-0.3,0-0.4,0c-0.1,0-0.2,0-0.2-0.1c-0.1,0-0.1-0.1-0.2-0.1c0,0-0.1-0.1-0.1-0.2l-2.3-3.6
				c0,0,0-0.1-0.1-0.1c0,0,0-0.1,0-0.2c0-0.1,0-0.2,0-0.3c0-0.1,0-0.2,0-0.4c0-0.2,0-0.4,0-0.5c0-0.1,0-0.2,0.1-0.3
				c0-0.1,0.1-0.1,0.1-0.1c0,0,0.1,0,0.1,0h13.8v-2.8c0-0.1,0-0.1,0.1-0.2s0.1-0.1,0.2-0.1c0.1,0,0.2-0.1,0.3-0.1
				C317.4,163.1,317.6,163,317.7,163z"/>
		</g>
	</g>
	<g id="text91">
		<g class="st30">
			<path class="st16" d="M333.7,272.1c0,0.7-0.1,1.4-0.4,2c-0.3,0.6-0.6,1.1-1.1,1.5c-0.5,0.4-1.1,0.7-1.7,0.9
				c-0.7,0.2-1.4,0.3-2.1,0.3c-0.5,0-1,0-1.5-0.1c-0.5-0.1-0.9-0.2-1.2-0.3c-0.4-0.1-0.6-0.3-0.9-0.4s-0.4-0.3-0.5-0.4
				c-0.1-0.1-0.2-0.2-0.2-0.4c0-0.2-0.1-0.4-0.1-0.6c0-0.2,0-0.3,0-0.4c0-0.1,0-0.2,0.1-0.3s0.1-0.1,0.1-0.2c0,0,0.1,0,0.2,0
				c0.1,0,0.3,0.1,0.5,0.2c0.2,0.1,0.5,0.3,0.8,0.5c0.3,0.2,0.7,0.3,1.2,0.5c0.5,0.1,1,0.2,1.6,0.2c0.5,0,0.9-0.1,1.2-0.2
				c0.4-0.1,0.7-0.3,1-0.5c0.3-0.2,0.5-0.5,0.6-0.8c0.1-0.3,0.2-0.7,0.2-1.1c0-0.4-0.1-0.8-0.3-1.1s-0.5-0.6-0.8-0.8
				s-0.7-0.5-1.1-0.7c-0.4-0.2-0.9-0.4-1.3-0.6s-0.9-0.4-1.3-0.7s-0.8-0.5-1.1-0.9s-0.6-0.7-0.8-1.2c-0.2-0.5-0.3-1-0.3-1.6
				c0-0.7,0.1-1.2,0.4-1.8c0.2-0.5,0.6-0.9,1-1.3c0.4-0.3,0.9-0.6,1.5-0.8c0.6-0.2,1.2-0.3,1.9-0.3c0.3,0,0.7,0,1.1,0.1
				c0.4,0.1,0.7,0.1,1,0.2s0.6,0.2,0.8,0.3s0.4,0.2,0.5,0.3s0.1,0.1,0.2,0.2c0,0,0,0.1,0.1,0.2c0,0.1,0,0.2,0,0.2c0,0.1,0,0.2,0,0.4
				c0,0.1,0,0.3,0,0.4c0,0.1,0,0.2-0.1,0.3s-0.1,0.1-0.1,0.2c0,0-0.1,0.1-0.2,0.1c-0.1,0-0.2-0.1-0.4-0.2c-0.2-0.1-0.4-0.2-0.7-0.4
				c-0.3-0.1-0.6-0.3-1-0.4c-0.4-0.1-0.8-0.2-1.3-0.2c-0.4,0-0.8,0.1-1.1,0.2c-0.3,0.1-0.6,0.3-0.8,0.5c-0.2,0.2-0.4,0.4-0.5,0.7
				c-0.1,0.3-0.2,0.6-0.2,0.9c0,0.4,0.1,0.8,0.3,1.1s0.5,0.6,0.8,0.8s0.7,0.5,1.2,0.7c0.4,0.2,0.9,0.4,1.3,0.6s0.9,0.4,1.3,0.7
				c0.4,0.2,0.8,0.5,1.2,0.9s0.6,0.7,0.8,1.2C333.6,270.9,333.7,271.4,333.7,272.1z"/>
		</g>
	</g>
	<g id="text95">
		<g class="st30">
			<path class="st16" d="M455.9,269.4c0,0.3-0.1,0.5-0.3,0.7c-0.2,0.1-0.4,0.2-0.8,0.2h-12.6c-0.4,0-0.6-0.1-0.8-0.2
				c-0.2-0.1-0.3-0.3-0.3-0.7c0-0.3,0.1-0.5,0.3-0.6c0.2-0.1,0.5-0.2,0.8-0.2h12.6c0.2,0,0.3,0,0.4,0c0.1,0,0.2,0.1,0.3,0.1
				c0.1,0.1,0.2,0.2,0.2,0.3C455.9,269.1,455.9,269.2,455.9,269.4z"/>
		</g>
	</g>
	<rect id="rect884" x="276.3" y="0" class="st25" width="222.8" height="47.8"/>
	<rect id="rect88" x="279.6" y="4.4" class="st31" width="215.9" height="39.3"/>
	<path id="rect90" class="st32" d="M289.4,12.3v32.2h9.8v-9.9h176.9v9.9h9.6V12.3H289.4z"/>
	<polygon id="rect1082" class="st27" points="289.4,44.3 292.7,44.3 356,146.3 352.6,146.3 	"/>
	<polygon id="rect1084" class="st27" points="482.4,44.3 485.7,44.3 422.7,146.3 419.4,146.3 	"/>
</g>
<circle id="circle281" class="st33" cx="232.1" cy="361" r="11.6"/>
<circle id="circle281-2" class="st34" cx="232.1" cy="419.7" r="11.6"/>
<rect x="232.1" y="356.4" class="st33" width="190.2" height="9.1"/>
<rect x="232.1" y="415.1" class="st34" width="159.4" height="9.1"/>
<circle id="circle281-3" class="st35" cx="232.1" cy="772.4" r="11.6"/>
<rect id="rect853" x="232.1" y="767.8" class="st35" width="128.7" height="9.1"/>
<rect id="rect1463" x="382.5" y="295.8" class="st34" width="9.1" height="128.4"/>
<rect id="rect1463-2" x="351.7" y="295.8" class="st35" width="9.1" height="481.1"/>
<rect id="rect1465" x="413.2" y="295.8" class="st33" width="9.1" height="69.7"/>
<circle id="circle281-4" class="st35" cx="356.3" cy="295.8" r="10.5"/>
<circle id="circle281-5" class="st34" cx="387.2" cy="295.8" r="10.5"/>
<circle id="circle281-6" class="st33" cx="417.8" cy="295.8" r="10.5"/>
</svg>
