<?xml version="1.0" encoding="utf-8"?>
<!-- Generator: Adobe Illustrator 27.8.0, SVG Export Plug-In . SVG Version: 6.00 Build 0)  -->
<svg version="1.1" id="Ebene_1" xmlns="http://www.w3.org/2000/svg" xmlns:xlink="http://www.w3.org/1999/xlink" x="0px" y="0px"
	 viewBox="0 0 476.1 1060.7" style="enable-background:new 0 0 476.1 1060.7;" xml:space="preserve">
<style type="text/css">
	.st0{fill:#02814B;}
	.st1{fill:#D4C547;}
	.st2{fill:#525035;}
	.st3{fill:#FEE86F;}
	.st4{fill:#FFE17B;}
	.st5{fill:#DDDDDD;}
	.st6{fill:#7F7F7F;}
	.st7{fill:#474544;}
	.st8{fill:#E2EADE;}
	.st9{fill:#C29148;}
	.st10{fill:#8DDDDE;}
	.st11{fill:#C1C1C1;}
	.st12{fill:#C2BFAB;}
	.st13{fill:none;stroke:#95AC6E;stroke-miterlimit:10;}
	.st14{fill:#E8D28A;}
	.st15{fill:#CECECE;}
	.st16{fill:#FFFFFF;}
	.st17{fill:#36323E;}
	.st18{fill:#868C97;}
	.st19{fill:#FCFCFA;}
	.st20{fill:#141316;}
	.st21{fill:#B9A68F;}
	.st22{fill:#E0B45B;}
	.st23{fill:#ABA28E;}
	.st24{fill:none;stroke:#FFFFFF;stroke-miterlimit:10;}
	.st25{fill:#010101;}
	.st26{fill:#1B1B1B;}
	.st27{opacity:0.99;fill:#808181;enable-background:new    ;}
	.st28{fill:#2B4B9B;}
	.st29{fill:#CDCCCC;}
	.st30{fill:#B4B4B4;}
	.st31{opacity:0.99;fill:#010101;enable-background:new    ;}
	.st32{fill:#E7E6E6;}
	.st33{fill:#343434;}
	.st34{enable-background:new    ;}
	.st35{fill:#915114;}
	.st36{fill:#E20E18;}
	.st37{fill:#26AF88;}
</style>
<g>
	<path class="st0" d="M243.3,478.7v-11.9H0.2v11.9c2.3,0.9,3.9,3.1,3.9,5.7s-1.6,4.8-3.9,5.7v18.1c2.3,0.9,3.9,3.1,3.9,5.7
		c0,2.6-1.6,4.8-3.9,5.7v18.1c2.3,0.9,3.9,3.1,3.9,5.7s-1.6,4.8-3.9,5.7v18.1c2.3,0.9,3.9,3.1,3.9,5.7s-1.6,4.8-3.9,5.7v18.1
		c2.3,0.9,3.9,3.1,3.9,5.7s-1.6,4.8-3.9,5.7v18.1c2.3,0.9,3.9,3.1,3.9,5.7s-1.6,4.8-3.9,5.7v18.1c2.3,0.9,3.9,3.1,3.9,5.7
		s-1.6,4.8-3.9,5.7v18.1c2.3,0.9,3.9,3.1,3.9,5.7s-1.6,4.8-3.9,5.7v18.1c2.3,0.9,3.9,3.1,3.9,5.7s-1.6,4.8-3.9,5.7v18.1
		c2.3,0.9,3.9,3.1,3.9,5.7s-1.6,4.8-3.9,5.7v18.1c2.3,0.9,3.9,3.1,3.9,5.7s-1.6,4.8-3.9,5.7v18.1c2.3,0.9,3.9,3.1,3.9,5.7
		s-1.6,4.8-3.9,5.7v18.1c2.3,0.9,3.9,3.1,3.9,5.7s-1.6,4.8-3.9,5.7v18.1c2.3,0.9,3.9,3.1,3.9,5.7s-1.6,4.8-3.9,5.7v18.1
		c2.3,0.9,3.9,3.1,3.9,5.7s-1.6,4.8-3.9,5.7v18.1c2.3,0.9,3.9,3.1,3.9,5.7s-1.6,4.8-3.9,5.7v18.1c2.3,0.9,3.9,3.1,3.9,5.7
		s-1.6,4.8-3.9,5.7v18.1c2.3,0.9,3.9,3.1,3.9,5.7s-1.6,4.8-3.9,5.7v18c2.3,0.9,3.9,3.1,3.9,5.7s-1.6,4.8-3.9,5.7v18.1
		c2.3,0.9,3.9,3.1,3.9,5.7s-1.6,4.8-3.9,5.7v11.9h78.5h7.5h11.3h18.5h11.3H146h11.3h4h82v-11.9c-2.2-0.9-3.8-3.1-3.8-5.7
		c0-2.6,1.6-4.8,3.8-5.7v-18.1c-2.2-0.9-3.8-3.1-3.8-5.7s1.6-4.8,3.8-5.7v-18.1c-2.2-0.9-3.8-3.1-3.8-5.7s1.6-4.8,3.8-5.7v-18.1
		c-2.2-0.9-3.8-3.1-3.8-5.7s1.6-4.8,3.8-5.7V931c-2.2-0.9-3.8-3.1-3.8-5.7s1.6-4.8,3.8-5.7v-18.1c-2.2-0.9-3.8-3.1-3.8-5.7
		s1.6-4.8,3.8-5.7v-18.1c-2.2-0.9-3.8-3.1-3.8-5.7s1.6-4.8,3.8-5.7v-18.1c-2.2-0.9-3.8-3.1-3.8-5.7s1.6-4.8,3.8-5.7v-18.1
		c-2.2-0.9-3.8-3.1-3.8-5.7s1.6-4.8,3.8-5.7V784c-2.2-0.9-3.8-3.1-3.8-5.7s1.6-4.8,3.8-5.7v-18.1c-2.2-0.9-3.8-3.1-3.8-5.7
		s1.6-4.8,3.8-5.7v-18.1c-2.2-0.9-3.8-3.1-3.8-5.7s1.6-4.8,3.8-5.7v-18.1c-2.2-0.9-3.8-3.1-3.8-5.7s1.6-4.8,3.8-5.7v-18.1
		c-2.2-0.9-3.8-3.1-3.8-5.7s1.6-4.8,3.8-5.7V637c-2.2-0.9-3.8-3.1-3.8-5.7s1.6-4.8,3.8-5.7v-18.1c-2.2-0.9-3.8-3.1-3.8-5.7
		s1.6-4.8,3.8-5.7v-18.1c-2.2-0.9-3.8-3.1-3.8-5.7s1.6-4.8,3.8-5.7v-18.1c-2.2-0.9-3.8-3.1-3.8-5.7s1.6-4.8,3.8-5.7v-18.1
		c-2.2-0.9-3.8-3.1-3.8-5.7c0-2.6,1.6-4.8,3.8-5.7V490c-2.2-0.9-3.8-3.1-3.8-5.7S241.1,479.6,243.3,478.7z M15.8,1049
		c-3.4,0-6.1-2.7-6.1-6.1c0-3.4,2.7-6.1,6.1-6.1s6.1,2.7,6.1,6.1C21.9,1046.3,19.2,1049,15.8,1049z M15.8,1019.6
		c-3.4,0-6.1-2.7-6.1-6.1s2.7-6.1,6.1-6.1s6.1,2.7,6.1,6.1S19.2,1019.6,15.8,1019.6z M15.8,990.2c-3.4,0-6.1-2.7-6.1-6.1
		s2.7-6.1,6.1-6.1s6.1,2.7,6.1,6.1S19.2,990.2,15.8,990.2z M15.8,960.8c-3.4,0-6.1-2.7-6.1-6.1s2.7-6.1,6.1-6.1s6.1,2.7,6.1,6.1
		S19.2,960.8,15.8,960.8z M15.8,931.4c-3.4,0-6.1-2.7-6.1-6.1s2.7-6.1,6.1-6.1s6.1,2.7,6.1,6.1S19.2,931.4,15.8,931.4z M15.8,902
		c-3.4,0-6.1-2.7-6.1-6.1s2.7-6.1,6.1-6.1s6.1,2.7,6.1,6.1S19.2,902,15.8,902z M15.8,872.6c-3.4,0-6.1-2.7-6.1-6.1s2.7-6.1,6.1-6.1
		s6.1,2.7,6.1,6.1S19.2,872.6,15.8,872.6z M15.8,843.2c-3.4,0-6.1-2.7-6.1-6.1s2.7-6.1,6.1-6.1s6.1,2.7,6.1,6.1
		S19.2,843.2,15.8,843.2z M15.8,813.8c-3.4,0-6.1-2.7-6.1-6.1s2.7-6.1,6.1-6.1s6.1,2.7,6.1,6.1S19.2,813.8,15.8,813.8z M15.8,784.4
		c-3.4,0-6.1-2.7-6.1-6.1s2.7-6.1,6.1-6.1s6.1,2.7,6.1,6.1S19.2,784.4,15.8,784.4z M15.8,755c-3.4,0-6.1-2.7-6.1-6.1
		s2.7-6.1,6.1-6.1s6.1,2.7,6.1,6.1S19.2,755,15.8,755z M15.8,725.6c-3.4,0-6.1-2.7-6.1-6.1s2.7-6.1,6.1-6.1s6.1,2.7,6.1,6.1
		S19.2,725.6,15.8,725.6z M15.8,696.3c-3.4,0-6.1-2.7-6.1-6.1s2.7-6.1,6.1-6.1s6.1,2.7,6.1,6.1S19.2,696.3,15.8,696.3z M15.8,666.9
		c-3.4,0-6.1-2.7-6.1-6.1s2.7-6.1,6.1-6.1s6.1,2.7,6.1,6.1S19.2,666.9,15.8,666.9z M15.8,637.5c-3.4,0-6.1-2.7-6.1-6.1
		s2.7-6.1,6.1-6.1s6.1,2.7,6.1,6.1S19.2,637.5,15.8,637.5z M15.8,608.1c-3.4,0-6.1-2.7-6.1-6.1s2.7-6.1,6.1-6.1s6.1,2.7,6.1,6.1
		S19.2,608.1,15.8,608.1z M15.8,578.7c-3.4,0-6.1-2.7-6.1-6.1s2.7-6.1,6.1-6.1c3.4,0,6.1,2.7,6.1,6.1S19.2,578.7,15.8,578.7z
		 M15.8,549.3c-3.4,0-6.1-2.7-6.1-6.1s2.7-6.1,6.1-6.1s6.1,2.7,6.1,6.1S19.2,549.3,15.8,549.3z M15.8,519.9c-3.4,0-6.1-2.7-6.1-6.1
		c0-3.4,2.7-6.1,6.1-6.1s6.1,2.7,6.1,6.1C21.9,517.2,19.2,519.9,15.8,519.9z M15.8,490.5c-3.4,0-6.1-2.7-6.1-6.1s2.7-6.1,6.1-6.1
		s6.1,2.7,6.1,6.1S19.2,490.5,15.8,490.5z M53.7,1048.9c-6.7,0-12.1-5.4-12.1-12.1s5.4-12.1,12.1-12.1c6.7,0,12.1,5.4,12.1,12.1
		S60.4,1048.9,53.7,1048.9z M53.7,501.8c-6.7,0-12.1-5.4-12.1-12.1c0-6.7,5.4-12.1,12.1-12.1c6.7,0,12.1,5.4,12.1,12.1
		C65.8,496.4,60.4,501.8,53.7,501.8z M127.6,835c-3.1,0-5.7-2.6-5.7-5.7s2.6-5.7,5.7-5.7c3.1,0,5.7,2.6,5.7,5.7S130.7,835,127.6,835
		z M157,835c-3.1,0-5.7-2.6-5.7-5.7s2.6-5.7,5.7-5.7c3.1,0,5.7,2.6,5.7,5.7S160.2,835,157,835z M186.2,477.6
		c6.7,0,12.1,5.4,12.1,12.1c0,6.7-5.4,12.1-12.1,12.1s-12.1-5.4-12.1-12.1C174.1,483,179.6,477.6,186.2,477.6z M192.5,829.3
		c0,3.1-2.6,5.7-5.7,5.7c-3.1,0-5.7-2.6-5.7-5.7s2.6-5.7,5.7-5.7C190,823.6,192.5,826.2,192.5,829.3z M188.2,1048.9
		c-6.7,0-12.1-5.4-12.1-12.1s5.4-12.1,12.1-12.1s12.1,5.4,12.1,12.1S194.9,1048.9,188.2,1048.9z M227.8,1049c-3.4,0-6.1-2.7-6.1-6.1
		c0-3.4,2.7-6.1,6.1-6.1s6.1,2.7,6.1,6.1C233.9,1046.3,231.2,1049,227.8,1049z M227.8,1019.6c-3.4,0-6.1-2.7-6.1-6.1
		s2.7-6.1,6.1-6.1s6.1,2.7,6.1,6.1S231.2,1019.6,227.8,1019.6z M227.8,990.2c-3.4,0-6.1-2.7-6.1-6.1s2.7-6.1,6.1-6.1
		s6.1,2.7,6.1,6.1S231.2,990.2,227.8,990.2z M227.8,960.8c-3.4,0-6.1-2.7-6.1-6.1s2.7-6.1,6.1-6.1s6.1,2.7,6.1,6.1
		S231.2,960.8,227.8,960.8z M227.8,931.4c-3.4,0-6.1-2.7-6.1-6.1s2.7-6.1,6.1-6.1s6.1,2.7,6.1,6.1S231.2,931.4,227.8,931.4z
		 M227.8,902c-3.4,0-6.1-2.7-6.1-6.1s2.7-6.1,6.1-6.1s6.1,2.7,6.1,6.1S231.2,902,227.8,902z M227.8,872.6c-3.4,0-6.1-2.7-6.1-6.1
		s2.7-6.1,6.1-6.1s6.1,2.7,6.1,6.1S231.2,872.6,227.8,872.6z M227.8,843.2c-3.4,0-6.1-2.7-6.1-6.1s2.7-6.1,6.1-6.1s6.1,2.7,6.1,6.1
		S231.2,843.2,227.8,843.2z M227.8,813.8c-3.4,0-6.1-2.7-6.1-6.1s2.7-6.1,6.1-6.1s6.1,2.7,6.1,6.1S231.2,813.8,227.8,813.8z
		 M227.8,784.4c-3.4,0-6.1-2.7-6.1-6.1s2.7-6.1,6.1-6.1s6.1,2.7,6.1,6.1S231.2,784.4,227.8,784.4z M227.8,755
		c-3.4,0-6.1-2.7-6.1-6.1s2.7-6.1,6.1-6.1s6.1,2.7,6.1,6.1S231.2,755,227.8,755z M227.8,725.6c-3.4,0-6.1-2.7-6.1-6.1
		s2.7-6.1,6.1-6.1s6.1,2.7,6.1,6.1S231.2,725.6,227.8,725.6z M227.8,696.3c-3.4,0-6.1-2.7-6.1-6.1s2.7-6.1,6.1-6.1s6.1,2.7,6.1,6.1
		S231.2,696.3,227.8,696.3z M227.8,666.9c-3.4,0-6.1-2.7-6.1-6.1s2.7-6.1,6.1-6.1s6.1,2.7,6.1,6.1S231.2,666.9,227.8,666.9z
		 M227.8,637.5c-3.4,0-6.1-2.7-6.1-6.1s2.7-6.1,6.1-6.1s6.1,2.7,6.1,6.1S231.2,637.5,227.8,637.5z M227.8,608.1
		c-3.4,0-6.1-2.7-6.1-6.1s2.7-6.1,6.1-6.1s6.1,2.7,6.1,6.1S231.2,608.1,227.8,608.1z M227.8,578.7c-3.4,0-6.1-2.7-6.1-6.1
		s2.7-6.1,6.1-6.1s6.1,2.7,6.1,6.1S231.2,578.7,227.8,578.7z M227.8,549.3c-3.4,0-6.1-2.7-6.1-6.1s2.7-6.1,6.1-6.1s6.1,2.7,6.1,6.1
		S231.2,549.3,227.8,549.3z M227.8,519.9c-3.4,0-6.1-2.7-6.1-6.1c0-3.4,2.7-6.1,6.1-6.1s6.1,2.7,6.1,6.1
		C233.9,517.2,231.2,519.9,227.8,519.9z M227.8,490.5c-3.4,0-6.1-2.7-6.1-6.1s2.7-6.1,6.1-6.1s6.1,2.7,6.1,6.1
		S231.2,490.5,227.8,490.5z"/>
	<path class="st1" d="M53.7,469.2c-11.3,0-20.5,9.2-20.5,20.5c0,11.3,9.2,20.5,20.5,20.5s20.5-9.2,20.5-20.5
		C74.3,478.4,65.1,469.2,53.7,469.2z M53.7,501.8c-6.7,0-12.1-5.4-12.1-12.1c0-6.7,5.4-12.1,12.1-12.1c6.7,0,12.1,5.4,12.1,12.1
		C65.8,496.4,60.4,501.8,53.7,501.8z"/>
	<path class="st1" d="M186.3,469.2c-11.3,0-20.5,9.2-20.5,20.5c0,11.3,9.2,20.5,20.5,20.5c11.3,0,20.5-9.2,20.5-20.5
		C206.8,478.4,197.6,469.2,186.3,469.2z M186.3,501.8c-6.7,0-12.1-5.4-12.1-12.1c0-6.7,5.4-12.1,12.1-12.1c6.7,0,12.1,5.4,12.1,12.1
		C198.4,496.4,193,501.8,186.3,501.8z"/>
	<path class="st1" d="M53.7,1016.3c-11.3,0-20.5,9.2-20.5,20.5s9.2,20.5,20.5,20.5s20.5-9.2,20.5-20.5S65.1,1016.3,53.7,1016.3z
		 M53.7,1049c-6.7,0-12.1-5.4-12.1-12.1s5.4-12.1,12.1-12.1c6.7,0,12.1,5.4,12.1,12.1S60.4,1049,53.7,1049z"/>
	<path class="st1" d="M188.3,1016.3c-11.3,0-20.5,9.2-20.5,20.5s9.2,20.5,20.5,20.5c11.3,0,20.5-9.2,20.5-20.5
		S199.6,1016.3,188.3,1016.3z M188.3,1049c-6.7,0-12.1-5.4-12.1-12.1s5.4-12.1,12.1-12.1c6.7,0,12.1,5.4,12.1,12.1
		S195,1049,188.3,1049z"/>
	<circle class="st2" cx="55" cy="554.4" r="10.6"/>
	<circle class="st3" cx="55" cy="554.4" r="5.5"/>
	<path class="st4" d="M17.5,534.2H0.3v3.4c2.3,0.9,3.9,3.1,3.9,5.7s-1.6,4.8-3.9,5.7v3.4h17.2c5,0,9-4,9-9v0
		C26.5,538.2,22.4,534.2,17.5,534.2z M15.9,549.3c-3.4,0-6.1-2.7-6.1-6.1s2.7-6.1,6.1-6.1s6.1,2.7,6.1,6.1S19.2,549.3,15.9,549.3z"
		/>
	<path class="st4" d="M17.5,681.2H0.3v3.4c2.3,0.9,3.9,3.1,3.9,5.7s-1.6,4.8-3.9,5.7v3.4h17.2c5,0,9-4,9-9S22.4,681.2,17.5,681.2z
		 M15.9,696.3c-3.4,0-6.1-2.7-6.1-6.1s2.7-6.1,6.1-6.1s6.1,2.7,6.1,6.1S19.2,696.3,15.9,696.3z"/>
	<path class="st4" d="M17.5,828.2H0.3v3.4c2.3,0.9,3.9,3.1,3.9,5.7s-1.6,4.8-3.9,5.7v3.4h17.2c5,0,9-4,9-9S22.4,828.2,17.5,828.2z
		 M15.9,843.3c-3.4,0-6.1-2.7-6.1-6.1s2.7-6.1,6.1-6.1s6.1,2.7,6.1,6.1S19.2,843.3,15.9,843.3z"/>
	<path class="st4" d="M17.5,857.5H0.3v3.4c2.3,0.9,3.9,3.1,3.9,5.7s-1.6,4.8-3.9,5.7v3.4h17.2c5,0,9-4,9-9S22.4,857.5,17.5,857.5z
		 M15.9,872.7c-3.4,0-6.1-2.7-6.1-6.1s2.7-6.1,6.1-6.1s6.1,2.7,6.1,6.1S19.2,872.7,15.9,872.7z"/>
	<path class="st4" d="M17.5,886.9H0.3v3.4c2.3,0.9,3.9,3.1,3.9,5.7s-1.6,4.8-3.9,5.7v3.4h17.2c5,0,9-4,9-9S22.4,886.9,17.5,886.9z
		 M15.9,902.1c-3.4,0-6.1-2.7-6.1-6.1s2.7-6.1,6.1-6.1s6.1,2.7,6.1,6.1S19.2,902.1,15.9,902.1z"/>
	<path class="st4" d="M17.5,916.3H0.3v3.4c2.3,0.9,3.9,3.1,3.9,5.7s-1.6,4.8-3.9,5.7v3.4h17.2c5,0,9-4,9-9S22.4,916.3,17.5,916.3z
		 M15.9,931.4c-3.4,0-6.1-2.7-6.1-6.1s2.7-6.1,6.1-6.1s6.1,2.7,6.1,6.1S19.2,931.4,15.9,931.4z"/>
	<path class="st4" d="M17.5,975.1H0.3v3.4c2.3,0.9,3.9,3.1,3.9,5.7s-1.6,4.8-3.9,5.7v3.4h17.2c5,0,9-4,9-9v0
		C26.5,979.2,22.4,975.1,17.5,975.1z M15.9,990.2c-3.4,0-6.1-2.7-6.1-6.1s2.7-6.1,6.1-6.1s6.1,2.7,6.1,6.1S19.2,990.2,15.9,990.2z"
		/>
	<path class="st4" d="M17.5,1004.5H0.3v3.4c2.3,0.9,3.9,3.1,3.9,5.7s-1.6,4.8-3.9,5.7v3.4h17.2c5,0,9-4,9-9v0
		C26.5,1008.6,22.4,1004.5,17.5,1004.5z M15.9,1019.6c-3.4,0-6.1-2.7-6.1-6.1s2.7-6.1,6.1-6.1s6.1,2.7,6.1,6.1
		S19.2,1019.6,15.9,1019.6z"/>
	<path class="st4" d="M17.5,1033.9H0.3v3.4c2.3,0.9,3.9,3.1,3.9,5.7s-1.6,4.8-3.9,5.7v3.4h17.2c5,0,9-4,9-9
		C26.5,1038,22.4,1033.9,17.5,1033.9z M15.9,1049c-3.4,0-6.1-2.7-6.1-6.1c0-3.4,2.7-6.1,6.1-6.1s6.1,2.7,6.1,6.1
		C21.9,1046.3,19.2,1049,15.9,1049z"/>
	<path class="st4" d="M239.5,484.4c0-2.6,1.6-4.8,3.9-5.7v-3.4h-17.2c-5,0-9,4-9,9s4,9,9,9h17.2v-3.4
		C241.2,489.2,239.5,487,239.5,484.4z M227.8,490.5c-3.4,0-6.1-2.7-6.1-6.1s2.7-6.1,6.1-6.1s6.1,2.7,6.1,6.1
		S231.2,490.5,227.8,490.5z"/>
	<path class="st4" d="M239.5,513.8c0-2.6,1.6-4.8,3.9-5.7v-3.4h-17.2c-5,0-9,4-9,9v0c0,5,4,9,9,9h17.2v-3.4
		C241.2,518.6,239.5,516.4,239.5,513.8z M227.8,519.9c-3.4,0-6.1-2.7-6.1-6.1s2.7-6.1,6.1-6.1s6.1,2.7,6.1,6.1
		S231.2,519.9,227.8,519.9z"/>
	<path class="st4" d="M239.5,543.2c0-2.6,1.6-4.8,3.9-5.7v-3.4h-17.2c-5,0-9,4-9,9v0c0,5,4,9,9,9h17.2v-3.4
		C241.2,548,239.5,545.8,239.5,543.2z M227.8,549.3c-3.4,0-6.1-2.7-6.1-6.1s2.7-6.1,6.1-6.1s6.1,2.7,6.1,6.1
		S231.2,549.3,227.8,549.3z"/>
	<path class="st4" d="M239.5,572.6c0-2.6,1.6-4.8,3.9-5.7v-3.4h-17.2c-5,0-9,4-9,9s4,9,9,9h17.2v-3.4
		C241.2,577.4,239.5,575.2,239.5,572.6z M227.8,578.7c-3.4,0-6.1-2.7-6.1-6.1s2.7-6.1,6.1-6.1s6.1,2.7,6.1,6.1
		S231.2,578.7,227.8,578.7z"/>
	<path class="st4" d="M239.5,602c0-2.6,1.6-4.8,3.9-5.7V593h-17.2c-5,0-9,4-9,9s4,9,9,9h17.2v-3.4
		C241.2,606.8,239.5,604.6,239.5,602z M227.8,608.1c-3.4,0-6.1-2.7-6.1-6.1s2.7-6.1,6.1-6.1s6.1,2.7,6.1,6.1
		S231.2,608.1,227.8,608.1z"/>
	<path class="st4" d="M239.5,631.4c0-2.6,1.6-4.8,3.9-5.7v-3.4h-17.2c-5,0-9,4-9,9s4,9,9,9h17.2v-3.4
		C241.2,636.2,239.5,634,239.5,631.4z M227.8,637.5c-3.4,0-6.1-2.7-6.1-6.1s2.7-6.1,6.1-6.1s6.1,2.7,6.1,6.1
		S231.2,637.5,227.8,637.5z"/>
	<path class="st4" d="M239.5,690.2c0-2.6,1.6-4.8,3.9-5.7v-3.4h-17.2c-5,0-9,4-9,9s4,9,9,9h17.2v-3.4
		C241.2,695,239.5,692.8,239.5,690.2z M227.8,696.3c-3.4,0-6.1-2.7-6.1-6.1s2.7-6.1,6.1-6.1s6.1,2.7,6.1,6.1
		S231.2,696.3,227.8,696.3z"/>
	<path class="st4" d="M239.5,749c0-2.6,1.6-4.8,3.9-5.7V740h-17.2c-5,0-9,4-9,9v0c0,5,4,9,9,9h17.2v-3.4
		C241.2,753.8,239.5,751.6,239.5,749z M227.8,755.1c-3.4,0-6.1-2.7-6.1-6.1s2.7-6.1,6.1-6.1s6.1,2.7,6.1,6.1
		S231.2,755.1,227.8,755.1z"/>
	<path class="st4" d="M239.5,778.4c0-2.6,1.6-4.8,3.9-5.7v-3.4h-17.2c-5,0-9,4-9,9v0c0,5,4,9,9,9h17.2v-3.4
		C241.2,783.2,239.5,781,239.5,778.4z M227.8,784.5c-3.4,0-6.1-2.7-6.1-6.1s2.7-6.1,6.1-6.1s6.1,2.7,6.1,6.1
		S231.2,784.5,227.8,784.5z"/>
	<path class="st4" d="M239.5,807.8c0-2.6,1.6-4.8,3.9-5.7v-3.4h-17.2c-5,0-9,4-9,9s4,9,9,9h17.2v-3.4
		C241.2,812.6,239.5,810.4,239.5,807.8z M227.8,813.9c-3.4,0-6.1-2.7-6.1-6.1s2.7-6.1,6.1-6.1s6.1,2.7,6.1,6.1
		S231.2,813.9,227.8,813.9z"/>
	<path class="st4" d="M239.5,837.2c0-2.6,1.6-4.8,3.9-5.7v-3.4h-17.2c-5,0-9,4-9,9s4,9,9,9h17.2v-3.4
		C241.2,842,239.5,839.8,239.5,837.2z M227.8,843.3c-3.4,0-6.1-2.7-6.1-6.1s2.7-6.1,6.1-6.1s6.1,2.7,6.1,6.1
		S231.2,843.3,227.8,843.3z"/>
	<path class="st4" d="M239.5,866.6c0-2.6,1.6-4.8,3.9-5.7v-3.4h-17.2c-5,0-9,4-9,9s4,9,9,9h17.2v-3.4
		C241.2,871.4,239.5,869.2,239.5,866.6z M227.8,872.7c-3.4,0-6.1-2.7-6.1-6.1s2.7-6.1,6.1-6.1s6.1,2.7,6.1,6.1
		S231.2,872.7,227.8,872.7z"/>
	<path class="st4" d="M239.5,896c0-2.6,1.6-4.8,3.9-5.7v-3.4h-17.2c-5,0-9,4-9,9s4,9,9,9h17.2v-3.4
		C241.2,900.8,239.5,898.5,239.5,896z M227.8,902.1c-3.4,0-6.1-2.7-6.1-6.1s2.7-6.1,6.1-6.1s6.1,2.7,6.1,6.1
		S231.2,902.1,227.8,902.1z"/>
	<path class="st4" d="M239.5,925.4c0-2.6,1.6-4.8,3.9-5.7v-3.4h-17.2c-5,0-9,4-9,9s4,9,9,9h17.2V931
		C241.2,930.1,239.5,927.9,239.5,925.4z M227.8,931.4c-3.4,0-6.1-2.7-6.1-6.1s2.7-6.1,6.1-6.1s6.1,2.7,6.1,6.1
		S231.2,931.4,227.8,931.4z"/>
	<path class="st4" d="M239.5,984.2c0-2.6,1.6-4.8,3.9-5.7v-3.4h-17.2c-5,0-9,4-9,9v0c0,5,4,9,9,9h17.2v-3.4
		C241.2,988.9,239.5,986.7,239.5,984.2z M227.8,990.2c-3.4,0-6.1-2.7-6.1-6.1s2.7-6.1,6.1-6.1s6.1,2.7,6.1,6.1
		S231.2,990.2,227.8,990.2z"/>
	<path class="st4" d="M239.5,1013.5c0-2.6,1.6-4.8,3.9-5.7v-3.4h-17.2c-5,0-9,4-9,9v0c0,5,4,9,9,9h17.2v-3.4
		C241.2,1018.3,239.5,1016.1,239.5,1013.5z M227.8,1019.6c-3.4,0-6.1-2.7-6.1-6.1s2.7-6.1,6.1-6.1s6.1,2.7,6.1,6.1
		S231.2,1019.6,227.8,1019.6z"/>
	<path class="st5" d="M163.1,456.3l4.4-4.4l-2.3-2.3l-6.6,6.6h-1.5v-4.7c0-1.2-1-2.2-2.2-2.2H85.4c-1.2,0-2.2,1-2.2,2.2v4.7h-1.5
		l-6.6-6.6l-2.3,2.3l4.4,4.4c-0.6,0.2-1,0.8-1,1.4v56.3c0,0.9,0.7,1.6,1.6,1.6h84.6c0.9,0,1.6-0.7,1.6-1.6v-56.3
		C164,457.1,163.6,456.6,163.1,456.3z"/>
	<g>
		<path class="st6" d="M100.3,478.6c0-3.2-2.6-5.8-5.8-5.8s-5.8,2.6-5.8,5.8c0,1.4,0.5,2.7,1.3,3.7h-0.2v7.7c0,1.2,1,2.1,2.1,2.1H97
			c1.2,0,2.1-1,2.1-2.1v-7.7H99C99.8,481.3,100.3,480,100.3,478.6z"/>
		<path class="st6" d="M155.5,478.6c0-3.2-2.6-5.8-5.8-5.8s-5.8,2.6-5.8,5.8c0,1.4,0.5,2.7,1.3,3.7H145v7.7c0,1.2,1,2.1,2.1,2.1h5.1
			c1.2,0,2.1-1,2.1-2.1v-7.7h-0.2C155,481.3,155.5,480,155.5,478.6z"/>
	</g>
	<path class="st7" d="M200.9,608.7h-21c-1.2,0-2.2-1-2.2-2.2v-26.7c0-1.2,1-2.2,2.2-2.2h21c1.2,0,2.2,1,2.2,2.2v26.7
		C203,607.8,202.1,608.7,200.9,608.7z"/>
	<g>
		<rect x="132" y="544.9" class="st8" width="21.7" height="14.4"/>
		<path class="st9" d="M149.3,559.4c-2-1.8-3.2-4.4-3.2-7.2s1.2-5.4,3.2-7.2h-12.8c2,1.8,3.2,4.4,3.2,7.2s-1.2,5.4-3.2,7.2H149.3z"
			/>
	</g>
	<g>
		<rect x="132.3" y="630.3" class="st8" width="21.7" height="14.4"/>
		<path class="st9" d="M149.6,644.7c-2-1.8-3.2-4.4-3.2-7.2s1.2-5.4,3.2-7.2h-12.8c2,1.8,3.2,4.4,3.2,7.2s-1.2,5.4-3.2,7.2H149.6z"
			/>
	</g>
	<g>
		<rect x="132.3" y="649.4" class="st8" width="21.7" height="14.4"/>
		<path class="st9" d="M149.6,663.9c-2-1.8-3.2-4.4-3.2-7.2s1.2-5.4,3.2-7.2h-12.8c2,1.8,3.2,4.4,3.2,7.2s-1.2,5.4-3.2,7.2H149.6z"
			/>
	</g>
	<g>
		
			<rect x="63.8" y="697.8" transform="matrix(6.123234e-17 -1 1 6.123234e-17 -636.5811 769.6175)" class="st8" width="5.4" height="10.6"/>
		
			<rect x="63.8" y="700.1" transform="matrix(6.123234e-17 -1 1 6.123234e-17 -636.5811 769.6175)" class="st9" width="5.4" height="6"/>
	</g>
	<g>
		<rect x="177.1" y="680.4" class="st8" width="5.4" height="10.6"/>
		<rect x="177.1" y="682.7" class="st9" width="5.4" height="6"/>
	</g>
	<rect x="179.5" y="530.4" class="st7" width="18.9" height="29.3"/>
	<g>
		<rect x="171.6" y="631.6" class="st8" width="20.6" height="9.6"/>
		<rect x="176.2" y="631.6" class="st10" width="11.5" height="9.6"/>
	</g>
	<rect x="120.2" y="799.7" class="st9" width="4.2" height="6.9"/>
	<rect x="126.9" y="799.7" class="st9" width="4.2" height="6.9"/>
	
		<rect x="66.6" y="709.7" transform="matrix(6.123234e-17 -1 1 6.123234e-17 -644.3777 781.8604)" class="st9" width="4.2" height="6.9"/>
	
		<rect x="89.5" y="642.5" transform="matrix(6.123234e-17 -1 1 6.123234e-17 -554.313 737.6374)" class="st9" width="4.2" height="6.9"/>
	
		<rect x="66.3" y="753.3" transform="matrix(6.123234e-17 -1 1 6.123234e-17 -688.3318 825.102)" class="st9" width="4.2" height="6.9"/>
	<rect x="195" y="758.5" class="st7" width="4.2" height="6.9"/>
	
		<rect x="189.2" y="697.3" transform="matrix(6.123234e-17 -1 1 6.123234e-17 -509.3615 892.0133)" class="st7" width="4.2" height="6.9"/>
	
		<rect x="87.2" y="541.6" transform="matrix(6.123234e-17 -1 1 6.123234e-17 -455.6799 634.3424)" class="st7" width="4.2" height="6.9"/>
	
		<rect x="82.3" y="553.8" transform="matrix(6.123234e-17 -1 1 6.123234e-17 -472.7951 641.702)" class="st7" width="4.2" height="6.9"/>
	
		<rect x="192.8" y="646.3" transform="matrix(6.123234e-17 -1 1 6.123234e-17 -454.7518 844.6661)" class="st7" width="4.2" height="6.9"/>
	<path class="st11" d="M186.3,963.4H57.5c-2.1,0-3.9-1.7-3.9-3.9V851.4c0-2.1,1.7-3.9,3.9-3.9h128.8c2.1,0,3.9,1.7,3.9,3.9v108.1
		C190.2,961.7,188.5,963.4,186.3,963.4z"/>
	<rect x="101.5" y="1009.7" class="st12" width="10.5" height="5.9"/>
	<rect x="130.3" y="1009.8" class="st12" width="10.5" height="5.9"/>
	<rect x="101.5" y="1047.4" class="st12" width="10.5" height="5.9"/>
	<rect x="130.3" y="1047.6" class="st12" width="10.5" height="5.9"/>
	<polyline class="st13" points="17.5,492.2 17.5,496.6 35.4,514.6 35.4,563.2 51,578.7 51,713.5 55.9,718.5 91.2,718.5 	"/>
	<polyline class="st13" points="22.9,519 31,527.1 31,565 46.7,580.7 46.7,716 52.6,721.9 91,721.9 	"/>
	<polyline class="st13" points="23.2,577.5 43,597.3 43,718.4 53.4,728.9 95,728.9 	"/>
	<polyline class="st13" points="23.2,606.9 39.8,623.4 39.8,720.4 51.9,732.5 95.1,732.5 	"/>
	<polyline class="st13" points="23.2,637.1 35.6,649.4 35.6,725.4 49.5,739.3 93.4,739.3 	"/>
	<polyline class="st13" points="22.9,665.2 31.6,673.9 31.6,728.1 46.4,742.9 96.1,742.9 	"/>
	<polyline class="st13" points="22.9,723.9 45.3,746.3 102.7,746.3 	"/>
	<line class="st13" x1="23.7" y1="749.8" x2="98.8" y2="749.8"/>
	<path class="st13" d="M23.2,776.1c0.1-0.6,17.3-17.3,17.3-17.3H53l4.9,4.9h45.7"/>
	<polyline class="st13" points="20.4,802 25.7,796.7 25.7,788.9 30.9,783.8 30.9,775.4 43.9,762.3 52.6,762.3 57.3,767 95.3,767 	
		"/>
	<path class="st13" d="M30.7,792.2l3.4-3.4c0,0-0.7-8.9,0-9.6c0.7-0.7,6-6,6-6l6.3-6.3h6.1l3.7,3.7h35.1"/>
	<polyline class="st13" points="29.1,848.1 29.1,800.5 38.7,790.9 93.4,790.9 95,789.3 95,779.6 	"/>
	<polyline class="st13" points="17.5,946.4 17.5,942.8 32.9,927.3 32.9,847 35.7,844.3 35.7,802.5 42,796.2 94.2,796.2 98.4,792 
		98.4,784.6 	"/>
	<path class="st13" d="M35.7,830"/>
	<path class="st13" d="M35.7,845.2"/>
	<polyline class="st13" points="23.6,1007 30.4,1000.2 30.4,935.6 37.5,929.7 	"/>
	<polyline class="st13" points="35.6,940 42.6,933 42.6,843.3 39.9,840.6 39.9,803.7 44.6,799.1 94.9,799.1 101.9,792.1 
		101.9,775.5 	"/>
	<polyline class="st13" points="108.9,782.2 108.9,790.9 95.9,804 91.5,804 	"/>
	<polyline class="st13" points="93.9,812.6 112.4,794.1 112.4,778.7 	"/>
	<polyline class="st13" points="115.9,784.1 115.9,795.7 102.2,809.4 102.2,829.4 95.9,835.7 65,835.7 55.5,826.2 	"/>
	<polyline class="st13" points="133.9,823 138.7,818.2 138.7,804.9 135.5,801.8 135.5,791.8 132.4,788.6 132.4,777.7 	"/>
	<polyline class="st13" points="137.3,781.8 137.3,789.6 139.3,791.6 139.3,798 152.7,811.4 164.9,811.4 179.1,825.7 	"/>
	<polyline class="st13" points="145.3,779.6 145.3,790 151.3,796 172.3,796 200.5,824.2 200.5,936.8 206.7,943 206.7,993.9 
		212.3,999.4 212.3,1019.6 223.3,1030.7 223.3,1036 	"/>
	<polyline class="st13" points="150.7,780 150.7,787.3 154.7,791.3 173.6,791.3 205.2,822.9 205.2,934.4 211.4,940.6 211.4,993.2 
		215.6,997.4 215.6,1006.1 	"/>
	<polyline class="st13" points="157.5,774.8 165.3,774.8 211.1,820.7 211.1,932.3 227.2,948.4 	"/>
	<polyline class="st13" points="157.5,770.4 166.9,770.4 192.1,795.7 	"/>
	<polyline class="st13" points="158.6,765.3 166.6,765.3 190.1,788.8 195.5,788.8 206.3,799.6 206.3,806.6 	"/>
	<polyline class="st13" points="158.2,760.9 167.3,760.9 190.4,783.9 200.9,783.9 	"/>
	<polyline class="st13" points="158.2,756.7 169.1,756.7 174.1,761.7 	"/>
	<polyline class="st13" points="158.2,751.7 175.4,751.7 202.8,779.1 206.3,779.1 215.9,788.7 215.9,801.1 	"/>
	<line class="st13" x1="158.6" y1="746.3" x2="167.7" y2="746.3"/>
	<polyline class="st13" points="156.4,740.9 171.8,740.9 179.2,748.3 	"/>
	<polyline class="st13" points="187.9,760.9 192.4,756.3 192.4,737 203.4,737 	"/>
	<polyline class="st13" points="158.6,732.5 209.5,732.5 218.5,741.5 	"/>
	<polyline class="st13" points="158.2,728.1 213.8,728.1 220.3,721.6 	"/>
	<polyline class="st13" points="157.5,723.9 198.8,723.9 207.1,715.6 207.1,675.3 219.6,662.8 	"/>
	<polyline class="st13" points="158.6,719.6 179.1,719.6 202.4,696.4 202.4,673.5 	"/>
	<polyline class="st13" points="159.7,714.9 167.2,714.9 171.8,710.2 	"/>
	<path class="st13" d="M147.8,709.6c-0.2-0.3,9.2-9.2,9.2-9.2h15.6v-33.5l2.8-2.8v-7.7"/>
	<path class="st13" d="M147,707.4c0-0.2,0-6.5,0-6.5l10.3-10.3"/>
	<polyline class="st13" points="140.1,708.3 140.1,697.5 147.4,690.1 	"/>
	<line class="st13" x1="136.6" y1="705.3" x2="136.6" y2="687.7"/>
	<path class="st13" d="M133.1,707c0-0.6,0-15.2,0-15.2l-4.2-4.2"/>
	<path class="st13" d="M122.6,706.6c0-0.6,0-20.7,0-20.7"/>
	<path class="st13" d="M119.2,708.3c0-0.3,0-11.1,0-11.1l-7.6-7.6"/>
	<polyline class="st13" points="115.6,707.8 115.6,701.5 101.8,687.6 101.8,681.2 105,678 108.9,678 111.5,675.3 111.5,664.8 
		106.1,659.4 100,659.4 	"/>
	<polyline class="st13" points="99.8,665.2 105.4,665.2 108.5,668.3 108.5,673.5 105.7,676.2 101.1,676.2 97.7,679.7 97.7,688.7 
		108.7,699.7 108.7,706.4 	"/>
	<polyline class="st13" points="91.3,669.7 91.3,686.4 105.2,700.4 105.2,709.9 	"/>
	<polyline class="st13" points="76.5,668.9 76.5,676.1 85.9,685.5 85.9,689.3 99,702.4 99,711.5 	"/>
	<path class="st13" d="M94.8,705.5c0-0.1,0-5,0-5l-11.7-11.7v-1.1l-4.5-4.5h-6.4l-1.7-1.7h-6.9l-6.7-6.7v-14.4l1.6-1.6h8.8"/>
	<polyline class="st13" points="69.1,652.8 60.4,652.8 55.4,657.8 55.4,675.7 63.4,683.6 69.5,683.6 75.9,690 78.4,690 92.5,704.1 	
		"/>
	<line class="st13" x1="73.8" y1="626.1" x2="56" y2="643.9"/>
	<polyline class="st13" points="137.6,686.7 137.6,680.6 134.7,677.7 134.7,674.6 130.2,670.2 125.2,670.2 121.1,666.1 121.1,647.2 
		109.7,635.7 109.7,553.5 124,539.2 124,530.1 127.7,526.4 	"/>
	<path class="st13" d="M135.3,579.4c0-0.6,0-9,0-9l-3.1-3.1h-9.8l-4.5-4.5v-4.3"/>
	<polyline class="st13" points="129.3,611.8 129.3,617.1 126.1,620.3 120.2,620.3 118.6,621.9 	"/>
	<polyline class="st13" points="62.9,524.9 62.9,534.3 79.1,550.5 83.6,550.5 88.5,555.4 88.5,563.6 83.9,568.1 83.9,581.6 	"/>
	<rect x="45.6" y="517.7" class="st14" width="18.9" height="9.6"/>
	<g>
		<rect x="102.7" y="515.6" class="st15" width="4.3" height="11.5"/>
		<rect x="110.4" y="515.6" class="st15" width="4.3" height="11.5"/>
		<rect x="118.1" y="515.6" class="st15" width="4.3" height="11.5"/>
		<rect x="125.7" y="515.6" class="st15" width="4.3" height="11.5"/>
		<rect x="133.4" y="515.6" class="st15" width="4.3" height="11.5"/>
	</g>
	<g>
		<path class="st16" d="M106.8,536.4v-5.5h2.5v5.8c0,2,0.6,2.7,1.7,2.7c1.2,0,1.8-0.7,1.8-2.7v-5.8h2.4v5.5c0,3.5-1.4,5.1-4.2,5.1
			S106.8,539.9,106.8,536.4z"/>
		<path class="st16" d="M116.7,540l1.3-1.6c0.7,0.6,1.7,1,2.6,1c0.9,0,1.4-0.4,1.4-0.9c0-0.6-0.6-0.8-1.5-1.2l-1.3-0.6
			c-1.1-0.4-2.1-1.3-2.1-2.8c0-1.7,1.6-3.2,3.8-3.2c1.2,0,2.5,0.5,3.4,1.3l-1.3,1.6c-0.7-0.5-1.4-0.8-2.1-0.8
			c-0.8,0-1.3,0.3-1.3,0.8c0,0.6,0.7,0.8,1.6,1.2l1.3,0.5c1.3,0.5,2.1,1.4,2.1,2.8c0,1.7-1.5,3.3-4,3.3
			C119.1,541.5,117.8,541,116.7,540z"/>
		<path class="st16" d="M126.3,530.9h3.6c2.2,0,3.9,0.6,3.9,2.6c0,0.9-0.5,1.9-1.4,2.2v0.1c1.1,0.3,1.9,1.1,1.9,2.4
			c0,2.1-1.8,3.1-4.1,3.1h-3.9V530.9z M129.8,535c1.1,0,1.5-0.5,1.5-1.2c0-0.8-0.5-1.1-1.5-1.1h-1.1v2.2H129.8z M130,539.4
			c1.2,0,1.8-0.4,1.8-1.3c0-0.9-0.6-1.2-1.8-1.2h-1.2v2.5H130z"/>
	</g>
	<path class="st17" d="M170.2,612.3h-45.7c-0.5,0-1-0.4-1-1v-33.5c0-0.5,0.4-1,1-1h45.7c0.5,0,1,0.4,1,1v33.5
		C171.1,611.8,170.7,612.3,170.2,612.3z"/>
	<g>
		<rect x="128.6" y="572.7" class="st15" width="1.4" height="4.1"/>
		<rect x="134.6" y="572.7" class="st15" width="1.4" height="4.1"/>
		<rect x="140.6" y="572.7" class="st15" width="1.4" height="4.1"/>
		<rect x="146.6" y="572.7" class="st15" width="1.4" height="4.1"/>
		<rect x="152.6" y="572.7" class="st15" width="1.4" height="4.1"/>
		<rect x="158.6" y="572.7" class="st15" width="1.4" height="4.1"/>
		<rect x="164.6" y="572.7" class="st15" width="1.4" height="4.1"/>
	</g>
	<g>
		<rect x="128.6" y="612.3" class="st15" width="1.4" height="4.1"/>
		<rect x="134.6" y="612.3" class="st15" width="1.4" height="4.1"/>
		<rect x="140.6" y="612.3" class="st15" width="1.4" height="4.1"/>
		<rect x="146.6" y="612.3" class="st15" width="1.4" height="4.1"/>
		<rect x="152.6" y="612.3" class="st15" width="1.4" height="4.1"/>
		<rect x="158.6" y="612.3" class="st15" width="1.4" height="4.1"/>
		<rect x="164.6" y="612.3" class="st15" width="1.4" height="4.1"/>
	</g>
	<g>
		<rect x="61.4" y="580.6" class="st18" width="39.3" height="48.9"/>
		<path class="st19" d="M81,623.4L81,623.4c-7.6,0-13.7-6.1-13.7-13.7v-9.1c0-7.6,6.1-13.7,13.7-13.7h0c7.6,0,13.7,6.1,13.7,13.7
			v9.1C94.7,617.2,88.6,623.4,81,623.4z"/>
		<path class="st19" d="M61.4,590.9L61.4,590.9l0-10.3h10.3l0,0C71.6,586.3,67.1,590.9,61.4,590.9z"/>
		<path class="st19" d="M71.6,629.6H61.4v-10.3h0C67.1,619.3,71.6,623.9,71.6,629.6L71.6,629.6z"/>
		<path class="st19" d="M100.7,590.9L100.7,590.9c-5.7,0-10.3-4.6-10.3-10.3l0,0h10.3V590.9z"/>
		<path class="st19" d="M100.7,629.6H90.4l0,0c0-5.7,4.6-10.3,10.3-10.3h0V629.6z"/>
	</g>
	<g>
		<rect x="64.9" y="650.1" class="st17" width="34.6" height="22.9"/>
		<g>
			<rect x="60.7" y="651.3" class="st15" width="4.2" height="3.4"/>
			<rect x="60.7" y="657" class="st15" width="4.2" height="3.4"/>
			<rect x="60.7" y="662.8" class="st15" width="4.2" height="3.4"/>
			<rect x="60.7" y="668.5" class="st15" width="4.2" height="3.4"/>
		</g>
		<g>
			<rect x="99.5" y="651.3" class="st15" width="4.2" height="3.4"/>
			<rect x="99.5" y="657" class="st15" width="4.2" height="3.4"/>
			<rect x="99.5" y="662.8" class="st15" width="4.2" height="3.4"/>
			<rect x="99.5" y="668.5" class="st15" width="4.2" height="3.4"/>
		</g>
	</g>
	<rect x="135.5" y="681.7" class="st7" width="4.2" height="6.9"/>
	<g>
		<path class="st20" d="M160.4,785.4H81.4c-0.7,0-1.3-0.6-1.3-1.3V705c0-0.7,0.6-1.3,1.3-1.3h79.1c0.7,0,1.3,0.6,1.3,1.3v79.1
			C161.7,784.8,161.1,785.4,160.4,785.4z"/>
		<g>
			<rect x="86.2" y="701.8" class="st15" width="3.1" height="1.9"/>
			<rect x="89.7" y="701.8" class="st15" width="3.1" height="1.9"/>
			<rect x="93.2" y="701.8" class="st15" width="3.1" height="1.9"/>
			<rect x="96.7" y="701.8" class="st15" width="3.1" height="1.9"/>
			<rect x="100.2" y="701.8" class="st15" width="3.1" height="1.9"/>
			<rect x="103.6" y="701.8" class="st15" width="3.1" height="1.9"/>
			<rect x="107.1" y="701.8" class="st15" width="3.1" height="1.9"/>
			<rect x="114.1" y="701.8" class="st15" width="3.1" height="1.9"/>
			<rect x="121.1" y="701.8" class="st15" width="3.1" height="1.9"/>
			<rect x="128" y="701.8" class="st15" width="3.1" height="1.9"/>
			<rect x="138.5" y="701.8" class="st15" width="3.1" height="1.9"/>
			<rect x="142" y="701.8" class="st15" width="3.1" height="1.9"/>
			<rect x="149" y="701.8" class="st15" width="3.1" height="1.9"/>
			<rect x="110.6" y="701.8" class="st15" width="3.1" height="1.9"/>
			<rect x="117.6" y="701.8" class="st15" width="3.1" height="1.9"/>
			<rect x="124.6" y="701.8" class="st15" width="3.1" height="1.9"/>
			<rect x="131.5" y="701.8" class="st15" width="3.1" height="1.9"/>
			<rect x="135" y="701.8" class="st15" width="3.1" height="1.9"/>
			<rect x="145.5" y="701.8" class="st15" width="3.1" height="1.9"/>
			<rect x="152.4" y="701.8" class="st15" width="3.1" height="1.9"/>
		</g>
		<g>
			<rect x="86.4" y="785.4" class="st15" width="3.1" height="1.9"/>
			<rect x="89.9" y="785.4" class="st15" width="3.1" height="1.9"/>
			<rect x="93.4" y="785.4" class="st15" width="3.1" height="1.9"/>
			<rect x="96.9" y="785.4" class="st15" width="3.1" height="1.9"/>
			<rect x="100.4" y="785.4" class="st15" width="3.1" height="1.9"/>
			<rect x="103.8" y="785.4" class="st15" width="3.1" height="1.9"/>
			<rect x="107.3" y="785.4" class="st15" width="3.1" height="1.9"/>
			<rect x="114.3" y="785.4" class="st15" width="3.1" height="1.9"/>
			<rect x="121.3" y="785.4" class="st15" width="3.1" height="1.9"/>
			<rect x="128.2" y="785.4" class="st15" width="3.1" height="1.9"/>
			<rect x="138.7" y="785.4" class="st15" width="3.1" height="1.9"/>
			<rect x="142.2" y="785.4" class="st15" width="3.1" height="1.9"/>
			<rect x="149.1" y="785.4" class="st15" width="3.1" height="1.9"/>
			<rect x="110.8" y="785.4" class="st15" width="3.1" height="1.9"/>
			<rect x="117.8" y="785.4" class="st15" width="3.1" height="1.9"/>
			<rect x="124.7" y="785.4" class="st15" width="3.1" height="1.9"/>
			<rect x="131.7" y="785.4" class="st15" width="3.1" height="1.9"/>
			<rect x="135.2" y="785.4" class="st15" width="3.1" height="1.9"/>
			<rect x="145.7" y="785.4" class="st15" width="3.1" height="1.9"/>
			<rect x="152.6" y="785.4" class="st15" width="3.1" height="1.9"/>
		</g>
		<g>
			
				<rect x="77.5" y="776.7" transform="matrix(6.123234e-17 -1 1 6.123234e-17 -698.5925 856.773)" class="st15" width="3.1" height="1.9"/>
			
				<rect x="77.5" y="773.2" transform="matrix(6.123234e-17 -1 1 6.123234e-17 -695.1074 853.288)" class="st15" width="3.1" height="1.9"/>
			
				<rect x="77.5" y="769.8" transform="matrix(6.123234e-17 -1 1 6.123234e-17 -691.6224 849.8029)" class="st15" width="3.1" height="1.9"/>
			
				<rect x="77.5" y="766.3" transform="matrix(6.123234e-17 -1 1 6.123234e-17 -688.1373 846.3179)" class="st15" width="3.1" height="1.9"/>
			
				<rect x="77.5" y="762.8" transform="matrix(6.123234e-17 -1 1 6.123234e-17 -684.6523 842.8328)" class="st15" width="3.1" height="1.9"/>
			
				<rect x="77.5" y="759.3" transform="matrix(6.123234e-17 -1 1 6.123234e-17 -681.1672 839.3478)" class="st15" width="3.1" height="1.9"/>
			
				<rect x="77.5" y="755.8" transform="matrix(6.123234e-17 -1 1 6.123234e-17 -677.6822 835.8627)" class="st15" width="3.1" height="1.9"/>
			
				<rect x="77.5" y="748.8" transform="matrix(6.123234e-17 -1 1 6.123234e-17 -670.7121 828.8926)" class="st15" width="3.1" height="1.9"/>
			
				<rect x="77.5" y="741.9" transform="matrix(6.123234e-17 -1 1 6.123234e-17 -663.742 821.9225)" class="st15" width="3.1" height="1.9"/>
			
				<rect x="77.5" y="734.9" transform="matrix(6.123234e-17 -1 1 6.123234e-17 -656.7719 814.9525)" class="st15" width="3.1" height="1.9"/>
			
				<rect x="77.5" y="724.4" transform="matrix(6.123234e-17 -1 1 6.123234e-17 -646.3168 804.4973)" class="st15" width="3.1" height="1.9"/>
			
				<rect x="77.5" y="721" transform="matrix(6.123234e-17 -1 1 6.123234e-17 -642.8318 801.0123)" class="st15" width="3.1" height="1.9"/>
			
				<rect x="77.5" y="714" transform="matrix(6.123234e-17 -1 1 6.123234e-17 -635.8617 794.0422)" class="st15" width="3.1" height="1.9"/>
			
				<rect x="77.5" y="752.3" transform="matrix(6.123234e-17 -1 1 6.123234e-17 -674.1971 832.3777)" class="st15" width="3.1" height="1.9"/>
			
				<rect x="77.5" y="745.4" transform="matrix(6.123234e-17 -1 1 6.123234e-17 -667.2271 825.4076)" class="st15" width="3.1" height="1.9"/>
			
				<rect x="77.5" y="738.4" transform="matrix(6.123234e-17 -1 1 6.123234e-17 -660.257 818.4375)" class="st15" width="3.1" height="1.9"/>
			
				<rect x="77.5" y="731.4" transform="matrix(6.123234e-17 -1 1 6.123234e-17 -653.2869 811.4674)" class="st15" width="3.1" height="1.9"/>
			
				<rect x="77.5" y="727.9" transform="matrix(6.123234e-17 -1 1 6.123234e-17 -649.8019 807.9824)" class="st15" width="3.1" height="1.9"/>
			
				<rect x="77.5" y="717.5" transform="matrix(6.123234e-17 -1 1 6.123234e-17 -639.3467 797.5272)" class="st15" width="3.1" height="1.9"/>
			
				<rect x="77.5" y="710.5" transform="matrix(6.123234e-17 -1 1 6.123234e-17 -632.3766 790.5571)" class="st15" width="3.1" height="1.9"/>
		</g>
		<g>
			
				<rect x="161.1" y="776.7" transform="matrix(6.123234e-17 -1 1 6.123234e-17 -615.0026 940.3629)" class="st15" width="3.1" height="1.9"/>
			
				<rect x="161.1" y="773.2" transform="matrix(6.123234e-17 -1 1 6.123234e-17 -611.5175 936.8779)" class="st15" width="3.1" height="1.9"/>
			
				<rect x="161.1" y="769.8" transform="matrix(6.123234e-17 -1 1 6.123234e-17 -608.0325 933.3928)" class="st15" width="3.1" height="1.9"/>
			
				<rect x="161.1" y="766.3" transform="matrix(6.123234e-17 -1 1 6.123234e-17 -604.5474 929.9078)" class="st15" width="3.1" height="1.9"/>
			
				<rect x="161.1" y="762.8" transform="matrix(6.123234e-17 -1 1 6.123234e-17 -601.0624 926.4227)" class="st15" width="3.1" height="1.9"/>
			
				<rect x="161.1" y="759.3" transform="matrix(6.123234e-17 -1 1 6.123234e-17 -597.5773 922.9377)" class="st15" width="3.1" height="1.9"/>
			
				<rect x="161.1" y="755.8" transform="matrix(6.123234e-17 -1 1 6.123234e-17 -594.0923 919.4526)" class="st15" width="3.1" height="1.9"/>
			
				<rect x="161.1" y="748.8" transform="matrix(6.123234e-17 -1 1 6.123234e-17 -587.1222 912.4825)" class="st15" width="3.1" height="1.9"/>
			
				<rect x="161.1" y="741.9" transform="matrix(6.123234e-17 -1 1 6.123234e-17 -580.1521 905.5125)" class="st15" width="3.1" height="1.9"/>
			
				<rect x="161.1" y="734.9" transform="matrix(6.123234e-17 -1 1 6.123234e-17 -573.182 898.5424)" class="st15" width="3.1" height="1.9"/>
			
				<rect x="161.1" y="724.4" transform="matrix(6.123234e-17 -1 1 6.123234e-17 -562.7269 888.0873)" class="st15" width="3.1" height="1.9"/>
			
				<rect x="161.1" y="721" transform="matrix(6.123234e-17 -1 1 6.123234e-17 -559.2418 884.6022)" class="st15" width="3.1" height="1.9"/>
			
				<rect x="161.1" y="714" transform="matrix(6.123234e-17 -1 1 6.123234e-17 -552.2717 877.6321)" class="st15" width="3.1" height="1.9"/>
			
				<rect x="161.1" y="752.3" transform="matrix(6.123234e-17 -1 1 6.123234e-17 -590.6072 915.9676)" class="st15" width="3.1" height="1.9"/>
			
				<rect x="161.1" y="745.4" transform="matrix(6.123234e-17 -1 1 6.123234e-17 -583.6371 908.9975)" class="st15" width="3.1" height="1.9"/>
			
				<rect x="161.1" y="738.4" transform="matrix(6.123234e-17 -1 1 6.123234e-17 -576.6671 902.0275)" class="st15" width="3.1" height="1.9"/>
			
				<rect x="161.1" y="731.4" transform="matrix(6.123234e-17 -1 1 6.123234e-17 -569.697 895.0574)" class="st15" width="3.1" height="1.9"/>
			
				<rect x="161.1" y="727.9" transform="matrix(6.123234e-17 -1 1 6.123234e-17 -566.2119 891.5723)" class="st15" width="3.1" height="1.9"/>
			
				<rect x="161.1" y="717.5" transform="matrix(6.123234e-17 -1 1 6.123234e-17 -555.7568 881.1172)" class="st15" width="3.1" height="1.9"/>
			
				<rect x="161.1" y="710.5" transform="matrix(6.123234e-17 -1 1 6.123234e-17 -548.7867 874.1471)" class="st15" width="3.1" height="1.9"/>
		</g>
		<circle class="st21" cx="90.2" cy="714.9" r="2.8"/>
	</g>
	<rect x="187.1" y="669.6" class="st17" width="18.2" height="8.6"/>
	<rect x="189.1" y="678.2" class="st15" width="2.9" height="8.7"/>
	<rect x="200.9" y="678.2" class="st15" width="2.9" height="8.7"/>
	<rect x="194.8" y="660.9" class="st15" width="2.9" height="8.7"/>
	
		<rect x="170.5" y="707.6" transform="matrix(6.123234e-17 -1 1 6.123234e-17 -538.4496 883.6446)" class="st9" width="4.2" height="6.9"/>
	<rect x="189.5" y="738.7" class="st7" width="4.2" height="6.9"/>
	
		<rect x="172.3" y="757.9" transform="matrix(0.7071 -0.7071 0.7071 0.7071 -487.2767 346.3587)" class="st9" width="4.2" height="6.9"/>
	<g>
		<path class="st4" d="M157,820.1c-5.1,0-9.2,4.1-9.2,9.2s4.1,9.2,9.2,9.2s9.2-4.1,9.2-9.2S162.1,820.1,157,820.1z M157,835
			c-3.1,0-5.7-2.6-5.7-5.7s2.6-5.7,5.7-5.7c3.1,0,5.7,2.6,5.7,5.7S160.2,835,157,835z"/>
		<path class="st4" d="M118.7,820.5v17.7h17.7v-17.7H118.7z M127.6,835c-3.1,0-5.7-2.6-5.7-5.7s2.6-5.7,5.7-5.7
			c3.1,0,5.7,2.6,5.7,5.7S130.7,835,127.6,835z"/>
		<path class="st4" d="M186.8,820.1c-5.1,0-9.2,4.1-9.2,9.2s4.1,9.2,9.2,9.2s9.2-4.1,9.2-9.2S191.9,820.1,186.8,820.1z M186.8,835
			c-3.1,0-5.7-2.6-5.7-5.7s2.6-5.7,5.7-5.7c3.1,0,5.7,2.6,5.7,5.7S190,835,186.8,835z"/>
	</g>
	<path class="st4" d="M17.5,798.8H0.3v3.4c2.3,0.9,3.9,3.1,3.9,5.7s-1.6,4.8-3.9,5.7v3.4h17.2c5,0,9-4,9-9S22.4,798.8,17.5,798.8z
		 M15.9,813.9c-3.4,0-6.1-2.7-6.1-6.1s2.7-6.1,6.1-6.1s6.1,2.7,6.1,6.1S19.2,813.9,15.9,813.9z"/>
	<path class="st4" d="M17.5,769.4H0.3v3.4c2.3,0.9,3.9,3.1,3.9,5.7s-1.6,4.8-3.9,5.7v3.4h17.2c5,0,9-4,9-9v0
		C26.5,773.4,22.4,769.4,17.5,769.4z M15.9,784.5c-3.4,0-6.1-2.7-6.1-6.1s2.7-6.1,6.1-6.1s6.1,2.7,6.1,6.1S19.2,784.5,15.9,784.5z"
		/>
	<path class="st4" d="M17.5,740H0.3v3.4c2.3,0.9,3.9,3.1,3.9,5.7s-1.6,4.8-3.9,5.7v3.4h17.2c5,0,9-4,9-9v0
		C26.5,744,22.4,740,17.5,740z M15.9,755.1c-3.4,0-6.1-2.7-6.1-6.1s2.7-6.1,6.1-6.1s6.1,2.7,6.1,6.1S19.2,755.1,15.9,755.1z"/>
	<path class="st4" d="M17.5,710.6H0.3v3.4c2.3,0.9,3.9,3.1,3.9,5.7s-1.6,4.8-3.9,5.7v3.4h17.2c5,0,9-4,9-9S22.4,710.6,17.5,710.6z
		 M15.9,725.7c-3.4,0-6.1-2.7-6.1-6.1s2.7-6.1,6.1-6.1s6.1,2.7,6.1,6.1S19.2,725.7,15.9,725.7z"/>
	<path class="st4" d="M17.5,651.8H0.3v3.4c2.3,0.9,3.9,3.1,3.9,5.7s-1.6,4.8-3.9,5.7v3.4h17.2c5,0,9-4,9-9S22.4,651.8,17.5,651.8z
		 M15.9,666.9c-3.4,0-6.1-2.7-6.1-6.1s2.7-6.1,6.1-6.1s6.1,2.7,6.1,6.1S19.2,666.9,15.9,666.9z"/>
	<path class="st4" d="M17.5,622.4H0.3v3.4c2.3,0.9,3.9,3.1,3.9,5.7s-1.6,4.8-3.9,5.7v3.4h17.2c5,0,9-4,9-9S22.4,622.4,17.5,622.4z
		 M15.9,637.5c-3.4,0-6.1-2.7-6.1-6.1s2.7-6.1,6.1-6.1s6.1,2.7,6.1,6.1S19.2,637.5,15.9,637.5z"/>
	<path class="st4" d="M17.5,593H0.3v3.4c2.3,0.9,3.9,3.1,3.9,5.7s-1.6,4.8-3.9,5.7v3.4h17.2c5,0,9-4,9-9S22.4,593,17.5,593z
		 M15.9,608.1c-3.4,0-6.1-2.7-6.1-6.1s2.7-6.1,6.1-6.1s6.1,2.7,6.1,6.1S19.2,608.1,15.9,608.1z"/>
	<path class="st4" d="M17.5,563.6H0.3v3.4c2.3,0.9,3.9,3.1,3.9,5.7s-1.6,4.8-3.9,5.7v3.4h17.2c5,0,9-4,9-9S22.4,563.6,17.5,563.6z
		 M15.9,578.7c-3.4,0-6.1-2.7-6.1-6.1s2.7-6.1,6.1-6.1s6.1,2.7,6.1,6.1S19.2,578.7,15.9,578.7z"/>
	<path class="st4" d="M17.5,504.8H0.3v3.4c2.3,0.9,3.9,3.1,3.9,5.7s-1.6,4.8-3.9,5.7v3.4h17.2c5,0,9-4,9-9v0
		C26.5,508.8,22.4,504.8,17.5,504.8z M15.9,519.9c-3.4,0-6.1-2.7-6.1-6.1s2.7-6.1,6.1-6.1s6.1,2.7,6.1,6.1S19.2,519.9,15.9,519.9z"
		/>
	<path class="st4" d="M17.5,475.4H0.3v3.4c2.3,0.9,3.9,3.1,3.9,5.7s-1.6,4.8-3.9,5.7v3.4h17.2c5,0,9-4,9-9S22.4,475.4,17.5,475.4z
		 M15.9,490.5c-3.4,0-6.1-2.7-6.1-6.1s2.7-6.1,6.1-6.1s6.1,2.7,6.1,6.1S19.2,490.5,15.9,490.5z"/>
	<path class="st4" d="M17.5,945.7H0.3v3.4c2.3,0.9,3.9,3.1,3.9,5.7s-1.6,4.8-3.9,5.7v3.4h17.2c5,0,9-4,9-9S22.4,945.7,17.5,945.7z
		 M15.9,960.8c-3.4,0-6.1-2.7-6.1-6.1s2.7-6.1,6.1-6.1s6.1,2.7,6.1,6.1S19.2,960.8,15.9,960.8z"/>
	<path class="st4" d="M239.5,1042.9c0-2.6,1.6-4.8,3.9-5.7v-3.4h-17.2c-5,0-9,4-9,9c0,5,4,9,9,9h17.2v-3.4
		C241.2,1047.7,239.5,1045.5,239.5,1042.9z M227.8,1049c-3.4,0-6.1-2.7-6.1-6.1c0-3.4,2.7-6.1,6.1-6.1s6.1,2.7,6.1,6.1
		C233.9,1046.3,231.2,1049,227.8,1049z"/>
	<path class="st4" d="M239.5,954.8c0-2.6,1.6-4.8,3.9-5.7v-3.4h-17.2c-5,0-9,4-9,9s4,9,9,9h17.2v-3.4
		C241.2,959.5,239.5,957.3,239.5,954.8z M227.8,960.8c-3.4,0-6.1-2.7-6.1-6.1s2.7-6.1,6.1-6.1s6.1,2.7,6.1,6.1
		S231.2,960.8,227.8,960.8z"/>
	<path class="st4" d="M239.5,719.6c0-2.6,1.6-4.8,3.9-5.7v-3.4h-17.2c-5,0-9,4-9,9s4,9,9,9h17.2v-3.4
		C241.2,724.4,239.5,722.2,239.5,719.6z M227.8,725.7c-3.4,0-6.1-2.7-6.1-6.1s2.7-6.1,6.1-6.1s6.1,2.7,6.1,6.1
		S231.2,725.7,227.8,725.7z"/>
	
		<rect x="90" y="813.7" transform="matrix(6.123234e-17 -1 1 6.123234e-17 -722.2333 908.8167)" class="st12" width="6.7" height="3.7"/>
	<g>
		<path class="st22" d="M82.2,833H50.4c-1.2,0-2.2-1-2.2-2.2v-23.7c0-1.2,1-2.2,2.2-2.2h31.8c1.2,0,2.2,1,2.2,2.2v23.7
			C84.4,832,83.4,833,82.2,833z"/>
		<path class="st23" d="M79.9,830.5H52.6c-0.8,0-1.4-0.6-1.4-1.4v-20.4c0-0.8,0.6-1.4,1.4-1.4h27.3c0.8,0,1.4,0.6,1.4,1.4v20.4
			C81.3,829.9,80.7,830.5,79.9,830.5z"/>
	</g>
	
		<rect x="90" y="833.6" transform="matrix(6.123234e-17 -1 1 6.123234e-17 -742.1677 928.751)" class="st12" width="6.7" height="3.7"/>
	<rect x="100.1" y="817.8" class="st7" width="4.2" height="6.9"/>
	<g>
		<path class="st16" d="M42.3,637.9v-3.6c0-2.2,0.6-3.9,2.6-3.9c0.9,0,1.9,0.5,2.2,1.4h0.1c0.3-1.1,1.1-1.9,2.4-1.9
			c2.1,0,3.1,1.8,3.1,4.1v3.9H42.3z M46.4,634.4c0-1.1-0.5-1.5-1.2-1.5c-0.8,0-1.1,0.5-1.1,1.5v1.1h2.2V634.4z M50.8,634.2
			c0-1.2-0.4-1.8-1.3-1.8s-1.2,0.6-1.2,1.8v1.2h2.5V634.2z"/>
		<path class="st16" d="M47.4,628.7c-3.4,0-5.4-1.9-5.4-4.8s2-4.8,5.4-4.8c3.4,0,5.4,1.9,5.4,4.8S50.8,628.7,47.4,628.7z
			 M47.4,621.7c-2,0-3.2,0.8-3.2,2.2c0,1.4,1.2,2.2,3.2,2.2c2,0,3.3-0.9,3.3-2.2C50.7,622.6,49.4,621.7,47.4,621.7z"/>
		<path class="st16" d="M47.4,617.7c-3.4,0-5.4-1.9-5.4-4.8s2-4.8,5.4-4.8c3.4,0,5.4,1.9,5.4,4.8S50.8,617.7,47.4,617.7z
			 M47.4,610.7c-2,0-3.2,0.8-3.2,2.2c0,1.4,1.2,2.2,3.2,2.2c2,0,3.3-0.9,3.3-2.2C50.7,611.6,49.4,610.7,47.4,610.7z"/>
		<path class="st16" d="M44.3,604.7v2.8h-2.1v-8.1h2.1v2.8h8.3v2.5H44.3z"/>
		<path class="st16" d="M51.3,598.8l-1.6-1.3c0.6-0.7,1-1.7,1-2.6c0-0.9-0.4-1.4-0.9-1.4c-0.6,0-0.8,0.6-1.2,1.5l-0.6,1.3
			c-0.4,1.1-1.3,2.1-2.8,2.1c-1.7,0-3.2-1.6-3.2-3.8c0-1.2,0.5-2.5,1.3-3.4l1.6,1.3c-0.5,0.7-0.8,1.4-0.8,2.1c0,0.8,0.3,1.3,0.8,1.3
			c0.6,0,0.8-0.7,1.2-1.6l0.5-1.3c0.5-1.3,1.4-2.1,2.8-2.1c1.7,0,3.3,1.5,3.3,4C52.9,596.3,52.4,597.7,51.3,598.8z"/>
		<path class="st16" d="M42.3,589.2v-6.6h2.1v4.1h2v-3.5h2.1v3.5h2.2v-4.3h2.1v6.8H42.3z"/>
		<path class="st16" d="M42.3,580.4v-2.5h8.3v-4h2.1v6.5H42.3z"/>
	</g>
	<g>
		<path class="st16" d="M141.4,795.1h3c3.2,0,5.3,1.6,5.3,5.2c0,3.6-2.1,5.2-5.1,5.2h-3.1V795.1z M144.3,803.6
			c1.7,0,2.9-0.8,2.9-3.2c0-2.5-1.2-3.2-2.9-3.2h-0.4v6.4H144.3z"/>
		<path class="st16" d="M151.6,795.1h6.6v2.1h-4.1v2h3.5v2.1h-3.5v2.2h4.3v2.1h-6.8V795.1z"/>
		<path class="st16" d="M160.4,795.1h3.6c2.2,0,3.9,0.6,3.9,2.6c0,0.9-0.5,1.9-1.4,2.2v0.1c1.1,0.3,1.9,1.1,1.9,2.4
			c0,2.1-1.8,3.1-4.1,3.1h-3.9V795.1z M164,799.3c1.1,0,1.5-0.5,1.5-1.2c0-0.8-0.5-1.1-1.5-1.1h-1.1v2.2H164z M164.2,803.6
			c1.2,0,1.8-0.4,1.8-1.3c0-0.9-0.6-1.2-1.8-1.2h-1.2v2.5H164.2z"/>
		<path class="st16" d="M170.1,800.7v-5.5h2.5v5.8c0,2,0.6,2.7,1.7,2.7c1.2,0,1.8-0.7,1.8-2.7v-5.8h2.4v5.5c0,3.5-1.4,5.1-4.2,5.1
			S170.1,804.2,170.1,800.7z"/>
		<path class="st16" d="M180.3,800.4c0-3.5,2.3-5.5,5.1-5.5c1.5,0,2.6,0.6,3.3,1.4l-1.3,1.5c-0.5-0.5-1.1-0.7-1.9-0.7
			c-1.5,0-2.7,1.2-2.7,3.2c0,2.1,0.9,3.3,2.9,3.3c0.4,0,0.8-0.1,1-0.3v-1.7h-1.7v-2h3.9v4.9c-0.7,0.7-2,1.3-3.5,1.3
			C182.6,805.7,180.3,803.9,180.3,800.4z"/>
	</g>
	<rect x="114.2" y="816.5" class="st24" width="86.4" height="25.6"/>
	<g>
		<path class="st16" d="M40.1,530.9h2.5v8.3h4v2.1h-6.5V530.9z"/>
		<path class="st16" d="M48.4,530.9H55v2.1h-4.1v2h3.5v2.1h-3.5v2.2h4.3v2.1h-6.8V530.9z"/>
		<path class="st16" d="M57.2,530.9h3c3.2,0,5.3,1.6,5.3,5.2c0,3.6-2.1,5.2-5.1,5.2h-3.1V530.9z M60.1,539.3c1.7,0,2.9-0.8,2.9-3.2
			c0-2.5-1.2-3.2-2.9-3.2h-0.4v6.4H60.1z"/>
	</g>
	<g>
		<rect x="143.7" y="680.4" class="st8" width="5.4" height="10.6"/>
		<rect x="143.7" y="682.7" class="st9" width="5.4" height="6"/>
	</g>
	<g>
		<rect x="154.3" y="680.4" class="st8" width="5.4" height="10.6"/>
		<rect x="154.3" y="682.7" class="st9" width="5.4" height="6"/>
	</g>
	<rect x="127.1" y="681.7" class="st7" width="4.2" height="6.9"/>
	
		<rect x="68.6" y="686.8" transform="matrix(6.123234e-17 -1 1 6.123234e-17 -619.4581 760.9299)" class="st7" width="4.2" height="6.9"/>
	<rect x="120.5" y="681.7" class="st9" width="4.2" height="6.9"/>
	<rect x="110.4" y="681.7" class="st9" width="4.2" height="6.9"/>
	<path class="st4" d="M239.5,660.8c0-2.6,1.6-4.8,3.9-5.7v-3.4h-17.2c-5,0-9,4-9,9s4,9,9,9h17.2v-3.4
		C241.2,665.6,239.5,663.4,239.5,660.8z M227.8,666.9c-3.4,0-6.1-2.7-6.1-6.1s2.7-6.1,6.1-6.1s6.1,2.7,6.1,6.1
		S231.2,666.9,227.8,666.9z"/>
	<g>
		
			<rect x="169.4" y="652.9" transform="matrix(-1.836970e-16 1 -1 -1.836970e-16 831.046 480.2827)" class="st8" width="11.9" height="5.6"/>
		
			<rect x="172.1" y="652.9" transform="matrix(-1.836970e-16 1 -1 -1.836970e-16 831.046 480.2827)" class="st10" width="6.6" height="5.6"/>
	</g>
</g>
<g id="layer1">
	<rect id="rect10" x="299.7" y="5.6" class="st25" width="176.3" height="470.3"/>
	<rect id="rect821" x="334" y="440.1" class="st16" width="107.8" height="31.7"/>
	<path id="rect825" class="st26" d="M394.2,442h14.5c3.2,0,5.8,2.6,5.8,5.8c0,0,0,0,0,0V464c0,3.2-2.6,5.8-5.8,5.8h-14.5
		c-3.2,0-5.8-2.6-5.8-5.8c0,0,0,0,0,0v-16.2C388.3,444.6,390.9,442,394.2,442C394.2,442,394.2,442,394.2,442z"/>
	<path id="rect872" class="st26" d="M340.7,442h14.5c3.2,0,5.8,2.6,5.8,5.8c0,0,0,0,0,0V464c0,3.2-2.6,5.8-5.8,5.8h-14.5
		c-3.2,0-5.8-2.6-5.8-5.8c0,0,0,0,0,0v-16.2C334.9,444.6,337.5,442,340.7,442z"/>
	<path id="rect874" class="st26" d="M366.7,442h16c2.8,0,5.1,2.3,5.1,5.1v17.7c0,2.8-2.3,5.1-5.1,5.1h-16c-2.8,0-5.1-2.3-5.1-5.1
		v-17.7C361.6,444.3,363.9,442,366.7,442z"/>
	<rect id="rect947" x="400" y="456.1" class="st27" width="2.9" height="57"/>
	<rect id="rect949" x="373.1" y="456.1" class="st27" width="2.9" height="57"/>
	<rect id="rect951" x="346.5" y="456.1" class="st27" width="2.9" height="57"/>
	<path id="rect97" class="st26" d="M420,442h16c2.8,0,5.1,2.3,5.1,5.1v17.7c0,2.8-2.3,5.1-5.1,5.1h-16c-2.8,0-5.1-2.3-5.1-5.1v-17.7
		C414.9,444.3,417.2,442,420,442C420,442,420,442,420,442z"/>
	<rect id="rect101" x="426.4" y="456.1" class="st27" width="2.9" height="57"/>
	<path id="rect78" class="st16" d="M303.7,332.8v78l-0.1,0.1l0.1,0.1v0.1h0.2l9.6,7.6v0h0l0.1,0l0,0h58.2l0.2,0.2l9.9-7.9v-78.3
		H303.7z"/>
	<path id="path2575" class="st16" d="M393.9,332.8v78l-0.1,0.1l0.1,0.1v0.1h0.2l9.6,7.6v0h0l0.1,0l0,0H462l0.2,0.2l9.9-7.9v-78.3
		H393.9z"/>
	<path id="path2577" class="st25" d="M305.7,334.7v74.5l-0.1,0.1l0.1,0.1v0.1h0.2l9.1,7.3v0h0l0,0l0,0h55.3l0.2,0.2l9.4-7.5v-74.8
		H305.7z"/>
	<path id="path2579" class="st25" d="M395.8,334.7v74.5l-0.1,0.1l0.1,0.1v0.1h0.2l9.1,7.3v0h0l0,0l0,0h55.3l0.2,0.2l9.4-7.5v-74.8
		H395.8z"/>
	<path id="path2581" class="st28" d="M306.7,335.7v72.7l-0.1,0.1l0.1,0.1v0.1h0.2l8.9,7.1v0h0l0,0l0,0h53.9l0.2,0.2l9.2-7.3v-73
		H306.7z"/>
	<path id="path2583" class="st28" d="M396.8,335.7v72.7l-0.1,0.1l0.1,0.1v0.1h0.2l8.9,7.1v0h0l0,0l0,0h53.9l0.2,0.2l9.2-7.3v-73
		H396.8z"/>
	<path id="path2585" class="st16" d="M378.1,377.8c0,19.5-15.8,35.3-35.3,35.3c-19.5,0-35.3-15.8-35.3-35.3s15.8-35.3,35.3-35.3"/>
	<path id="path2587" class="st16" d="M468.2,377.8c0-19.5-15.8-35.3-35.3-35.3s-35.3,15.8-35.3,35.3c0,19.5,15.8,35.3,35.3,35.3"/>
	
		<rect id="rect2589" x="338.5" y="342.7" transform="matrix(0.7071 -0.7071 0.7071 0.7071 -166.9786 352.8445)" class="st29" width="7.8" height="70.5"/>
	
		<rect id="rect2591" x="397.3" y="373.5" transform="matrix(0.7071 -0.7071 0.7071 0.7071 -140.1621 416.4069)" class="st29" width="70.5" height="7.8"/>
	<rect id="rect2593" x="323.3" y="258.3" class="st16" width="70.5" height="50.9"/>
	<rect id="rect2595" x="325.2" y="260.3" class="st26" width="66.6" height="47"/>
	<rect id="rect2597" x="327.2" y="307.1" class="st30" width="7.8" height="11.8"/>
	<rect id="rect2599" x="346.8" y="307.1" class="st30" width="7.8" height="11.8"/>
	<rect id="rect2601" x="362.4" y="307.1" class="st30" width="7.8" height="11.8"/>
	<rect id="rect2603" x="382" y="307.1" class="st30" width="7.8" height="11.8"/>
	<rect id="rect2605" x="327.2" y="248.6" class="st30" width="7.8" height="11.8"/>
	<rect id="rect2607" x="346.8" y="248.6" class="st30" width="7.8" height="11.8"/>
	<rect id="rect2609" x="362.4" y="248.6" class="st30" width="7.8" height="11.8"/>
	<rect id="rect2611" x="382" y="248.6" class="st30" width="7.8" height="11.8"/>
	<circle id="path2621" class="st29" cx="387.9" cy="183.9" r="39.2"/>
	<circle id="circle2623" class="st16" cx="387.9" cy="183.9" r="35.3"/>
	<rect id="rect837" x="397.7" y="97.6" class="st16" width="66.6" height="23.5"/>
	<rect id="rect892-72" x="398.5" y="98.6" class="st31" width="65" height="21.7"/>
	<path id="rect939" class="st29" d="M442.9,98.4h9.5c6,0,10.9,4.9,10.9,10.9l0,0c0,6-4.9,10.9-10.9,10.9l0,0h-9.5
		c-6,0-10.9-4.9-10.9-10.9c0,0,0,0,0,0l0,0C432.1,103.3,436.9,98.4,442.9,98.4z"/>
	<path id="rect941" class="st29" d="M409.4,98.4h9.5c6,0,10.9,4.9,10.9,10.9l0,0c0,6-4.9,10.9-10.9,10.9h-9.5
		c-6,0-10.9-4.9-10.9-10.9c0,0,0,0,0,0l0,0C398.6,103.3,403.4,98.4,409.4,98.4z"/>
	<rect id="rect837-8" x="311.5" y="38.9" class="st16" width="86.2" height="23.5"/>
	<rect id="rect892-72-4" x="312.4" y="39.9" class="st31" width="84.4" height="21.7"/>
	<path id="rect939-4" class="st29" d="M358.9,39.6h-3.5c-6,0-10.9,4.9-10.9,10.9l0,0l0,0c0,6,4.9,10.9,10.9,10.9l0,0h3.5
		c6,0,10.9-4.9,10.9-10.9l0,0l0,0C369.8,44.5,364.9,39.6,358.9,39.6L358.9,39.6z"/>
	<path id="rect941-4" class="st29" d="M386.1,39.6h-3.5c-6,0-10.9,4.9-10.9,10.9l0,0l0,0c0,6,4.9,10.9,10.9,10.9l0,0h3.5
		c6,0,10.9-4.9,10.9-10.9l0,0l0,0C396.9,44.5,392.1,39.6,386.1,39.6L386.1,39.6z"/>
	<rect id="rect945" x="312.7" y="40.6" class="st29" width="27.8" height="20.1"/>
	<rect id="rect2661" x="403.7" y="23.1" class="st26" width="54.9" height="66.7"/>
	<path id="path2663" class="st32" d="M458.5,23.1c0-4.2-5.2-8.1-13.7-10.2c-9-2.1-18.4-2.1-27.4,0c-8.5,2.1-13.7,6-13.7,10.2"/>
	<rect id="rect2667" x="329.4" y="306.7" class="st27" width="3.1" height="7.8"/>
	<rect id="rect2669" x="349.1" y="306.7" class="st27" width="3.1" height="7.8"/>
	<rect id="rect2671" x="364.7" y="306.7" class="st27" width="3.1" height="7.8"/>
	<rect id="rect2673" x="384.4" y="306.7" class="st27" width="3.1" height="7.8"/>
	<rect id="rect2675" x="329.4" y="253.1" class="st27" width="3.1" height="7.8"/>
	<rect id="rect2677" x="349.1" y="253.1" class="st27" width="3.1" height="7.8"/>
	<rect id="rect2679" x="364.7" y="253.1" class="st27" width="3.1" height="7.8"/>
	<rect id="rect2681" x="384.4" y="253.1" class="st27" width="3.1" height="7.8"/>
	<rect id="rect2683" x="412.6" y="95.9" class="st27" width="3.1" height="13.7"/>
	<rect id="rect2685" x="445.9" y="95.9" class="st27" width="3.1" height="13.7"/>
	<rect id="rect2659" x="399.8" y="89.6" class="st32" width="62.7" height="7.2"/>
	<path id="path2690" class="st26" d="M385.8,11.8c0-4.2-6-8.1-15.7-10.2c-10.3-2.1-21-2.1-31.4,0c-9.7,2.1-15.7,6-15.7,10.2"/>
	<rect id="rect2692" x="356" y="48.7" class="st27" width="3.1" height="5.9"/>
	<rect id="rect2694" x="383.1" y="48.7" class="st27" width="3.1" height="5.9"/>
	<rect id="rect2696" x="325.1" y="48.7" class="st27" width="3.1" height="5.9"/>
	<rect id="rect2688" x="317.4" y="11.6" class="st33" width="74.5" height="39.2"/>
	<path id="path31-1" class="st16" d="M395,242.6c1.1,0,1.2,0,1.4-0.2c0.1-0.1,0.3-0.2,0.3-0.3c0.1-0.2,0.1-0.3,0.1-2.6l0-2.4l2.3,0
		l2.3,0v2.9c0,3.3,0,3.6-0.4,4.4c-0.4,1.1-1.3,1.8-2.4,1.9c-0.7,0.1-1.4,0.1-2.1,0.1c-0.9,0-1.9,0-2.3-0.1l-0.6-0.1l0-1.9l0-1.9
		L395,242.6L395,242.6z M417.2,249.2c19.9,0,24.8,0,24,0.1l-0.1,0l0.1,0.1c0.1,0,0.1,0.1-0.1,0.1c-0.1,0-0.1,0,0.2,0.1l0.4,0l-0.4,0
		c-0.2,0-0.4,0-0.3,0c0.1,0,0.1,0.1,0.1,0.6c0,0.5,0,0.5,0.2,0.6c0.1,0,0.1,0-0.1,0c-0.1,0-0.3,0-0.3,0.1c0,0-7.9,0.1-23.5,0.1
		h-23.5v-1.7L417.2,249.2z M399.3,231h2.4v3.8h-4.7V231H399.3z M404,238.1c0.1-1,0.4-2,0.9-2.9c0.1-0.2,0.2-0.4,0.3-0.6
		c0.1-0.1,0.2-0.2,0.3-0.4c0.3-0.4,0.6-0.8,0.9-1.1c0,0,0.1-0.1,0.1-0.1c0.3-0.4,0.7-0.7,1-0.9c0.5-0.4,1.1-0.7,1.7-0.9
		c0.9-0.4,1.9-0.5,2.8-0.4c0.6,0,1.1,0.1,1.7,0.2c0.3,0.1,0.8,0.2,0.9,0.3c0.1,0.1,0.2,0.1,0.4,0.1c0.2,0.1,0.4,0.2,0.6,0.3
		c1.4,0.9,2.5,2.2,3.3,3.7c0.9,1.9,1,4,0.3,6c-0.2,0.6-0.5,1.2-0.9,1.8c-0.4,0.6-0.8,1.2-1.4,1.6c-0.9,1-2.1,1.6-3.3,1.9
		c-1,0.2-2,0.3-3,0.2c-1.2-0.2-2.2-0.7-3.2-1.3c-0.4-0.3-0.7-0.6-1-0.9c-0.1-0.1-0.2-0.2-0.3-0.4c-1-1.1-1.7-2.5-2-3.9
		C404,239.6,404,238.9,404,238.1z M408.5,240.1c0.2,0.9,0.7,1.7,1.4,2.3c0.8,0.7,1.8,0.9,2.8,0.6c1.2-0.5,2.2-1.6,2.5-2.9
		c0.2-0.9,0.2-1.8,0-2.6c-0.3-1-0.8-1.8-1.6-2.4c-0.3-0.2-0.6-0.3-0.9-0.4c-0.7-0.2-1.5-0.1-2.2,0.2c-0.6,0.4-1.2,1-1.5,1.7
		C408.3,237.6,408.2,238.9,408.5,240.1L408.5,240.1z M421.7,231.1c0,0,1.1,0,2.4,0l2.3,0l0,2.1c0,2,0,2.1,0.1,2.5
		c0.4,0.9,1.4,1.4,2.4,1.1c0.5-0.1,0.8-0.5,1-0.9l0.2-0.4l0-2.2l0-2.2h4.7l0,2.5c0.1,1,0,2-0.2,3c-0.2,0.9-0.6,1.7-1.2,2.4
		c-0.1,0.1-0.2,0.2-0.2,0.4c-0.3,0.4-0.7,0.7-1.1,1c-0.4,0.3-0.9,0.6-1.4,0.7c-0.1,0-0.4,0.1-0.7,0.2c-0.5,0.2-1.1,0.2-1.7,0.2
		c-0.6,0.1-1.2,0-1.8-0.2c-0.7-0.1-1.3-0.4-1.9-0.8c-0.7-0.5-1.3-1.1-1.8-1.8c-0.6-0.9-1-1.9-1.1-3
		C421.6,234.1,421.6,232.6,421.7,231.1L421.7,231.1z M428.3,242.6h3.8v4h-7.7v-4L428.3,242.6z M434.8,228c0,0,0.1-0.1,0.1-0.2
		c0-0.2,0-0.2,0.3-0.3c0.2,0,6.7,0,14.5,0l14.2,0l0,0.8l0,0.8h-14.4c-7.9,0-14.5,0-14.5,0c-0.1,0-0.1-0.1-0.1-0.6
		C434.8,228.2,434.8,228,434.8,228L434.8,228z M441.3,237.5h4.9v3.9h-9.8v-3.9L441.3,237.5z M450.1,231h2.4v3.8h-4.7V231H450.1z
		 M450.1,236.9h2.4v9.9h-4.7v-9.9H450.1z M459.5,231h4.9v3.8h-9.8V231H459.5z M455.4,237.2c0,0,1.1,0,2.3,0l2.3,0l0,2.3
		c0,3.2-0.1,3,2.3,3l1.5,0v4l-0.6,0.1c-1.4,0.1-2.8,0.1-4.3,0c-1-0.1-1.9-0.5-2.6-1.2c-0.6-0.7-0.9-1.6-1-2.5
		C455.3,242.1,455.3,237.2,455.4,237.2L455.4,237.2z M467.1,229.2c0.1-0.4,0.3-0.8,0.6-1c0.9-0.9,2.4-1,3.4-0.3
		c0.4,0.2,0.7,0.6,0.8,0.9c0.2,0.3,0.2,0.7,0.2,1c0,0.4,0,0.7-0.2,1.1c-0.4,0.8-1.2,1.4-2.1,1.4c-0.8,0.1-1.6-0.2-2.1-0.8
		C467.1,230.9,466.9,230,467.1,229.2L467.1,229.2z M467.6,230.8c0.3,0.6,0.9,1,1.6,1.2c0.7,0.2,1.5,0,2-0.5c0.2-0.2,0.4-0.4,0.5-0.6
		c0.2-0.3,0.2-0.6,0.2-1c0-0.3,0-0.7-0.2-1c-0.1-0.3-0.3-0.5-0.6-0.7c-0.2-0.2-0.5-0.3-0.7-0.4c-1.1-0.3-2.3,0.2-2.8,1.3
		C467.4,229.6,467.4,230.2,467.6,230.8L467.6,230.8z M469.4,228.3c0.3,0,0.7,0,1,0.1c0.4,0.3,0.5,0.8,0.3,1.2
		c-0.1,0.1-0.2,0.2-0.3,0.2l-0.2,0.1l0.2,0.2c0.2,0.2,0.3,0.4,0.4,0.6c0.1,0.1,0.2,0.3,0.3,0.4c0.1,0.1,0,0.2-0.2,0.1l-0.3,0
		l-0.4-0.6c-0.4-0.6-0.5-0.7-1-0.7h-0.3v1.3l-0.2,0l-0.2,0l0-1.5l0-1.5L469.4,228.3z M469.5,229.6c0.5,0,0.6,0,0.7-0.1
		c0.3-0.3,0.2-0.7-0.4-0.8c-0.3,0-0.6,0-0.9,0c0,0.1,0,0.3,0,0.4v0.4L469.5,229.6z"/>
	<g id="text97">
		<g class="st34">
			<path class="st16" d="M319.3,177.6c0.1,0,0.1,0,0.2,0s0.1,0.1,0.1,0.2s0.1,0.2,0.1,0.3c0,0.1,0,0.3,0,0.5c0,0.3,0,0.5,0,0.7
				s-0.1,0.3-0.1,0.4c-0.1,0.1-0.1,0.2-0.2,0.2l-7.9,5.8h7.9c0.1,0,0.1,0,0.2,0c0.1,0,0.1,0.1,0.1,0.2s0.1,0.2,0.1,0.3
				c0,0.1,0,0.3,0,0.5c0,0.2,0,0.4,0,0.5c0,0.1,0,0.2-0.1,0.3s-0.1,0.1-0.1,0.2c-0.1,0-0.1,0-0.2,0h-15.1c-0.1,0-0.1,0-0.2,0
				c0,0-0.1-0.1-0.1-0.2s-0.1-0.2-0.1-0.3c0-0.1,0-0.3,0-0.5c0-0.2,0-0.4,0-0.5c0-0.1,0-0.2,0.1-0.3s0.1-0.1,0.1-0.2
				c0,0,0.1,0,0.2,0h7l-7-5.6c-0.1,0-0.1-0.1-0.2-0.2c0-0.1-0.1-0.1-0.1-0.2c0-0.1,0-0.2-0.1-0.3c0-0.1,0-0.3,0-0.5s0-0.4,0-0.5
				c0-0.1,0-0.2,0.1-0.3c0-0.1,0.1-0.1,0.1-0.2s0.1,0,0.2,0c0.1,0,0.2,0,0.3,0.1c0.1,0.1,0.3,0.2,0.4,0.3l6.2,5.2l7.5-5.6
				c0.2-0.1,0.4-0.2,0.4-0.2S319.2,177.6,319.3,177.6z"/>
		</g>
		<g class="st34">
			<path class="st16" d="M313.5,169.9h5.8c0.1,0,0.1,0,0.2,0c0,0,0.1,0.1,0.1,0.2s0.1,0.2,0.1,0.3c0,0.1,0,0.3,0,0.5
				c0,0.2,0,0.4,0,0.5c0,0.1,0,0.2-0.1,0.3s-0.1,0.1-0.1,0.2c0,0-0.1,0-0.2,0h-5.8l-8.9,4.4c-0.2,0.1-0.3,0.1-0.4,0.2
				c-0.1,0-0.2,0-0.2-0.1c-0.1-0.1-0.1-0.2-0.1-0.3c0-0.2,0-0.4,0-0.6c0-0.2,0-0.4,0-0.6c0-0.1,0-0.3,0.1-0.4c0-0.1,0.1-0.2,0.1-0.2
				s0.1-0.1,0.2-0.1l4.5-2.2c0.4-0.2,0.9-0.4,1.3-0.6s0.9-0.4,1.4-0.6v0c-0.5-0.2-0.9-0.4-1.4-0.6c-0.5-0.2-0.9-0.4-1.4-0.6
				l-4.5-2.2c-0.1,0-0.1-0.1-0.2-0.1c-0.1,0-0.1-0.1-0.1-0.2c0-0.1,0-0.2-0.1-0.3c0-0.1,0-0.3,0-0.5c0-0.3,0-0.5,0-0.7
				c0-0.2,0.1-0.3,0.1-0.3s0.1-0.1,0.2-0.1c0.1,0,0.2,0.1,0.4,0.2L313.5,169.9z"/>
		</g>
		<g class="st34">
			<path class="st16" d="M313.5,159.5c0.3,0,0.5,0,0.7,0.1c0.1,0.1,0.2,0.2,0.2,0.3v5.1c0,0.1-0.1,0.3-0.2,0.3
				c-0.1,0.1-0.3,0.1-0.6,0.1s-0.5,0-0.6-0.1c-0.1-0.1-0.2-0.2-0.2-0.3v-5.1c0-0.1,0-0.1,0-0.2s0.1-0.1,0.1-0.1
				c0.1,0,0.2-0.1,0.3-0.1C313.2,159.5,313.3,159.5,313.5,159.5z"/>
			<path class="st16" d="M311.7,146.9c1.2,0,2.3,0.1,3.3,0.3s1.9,0.5,2.6,0.9c0.7,0.4,1.3,1,1.7,1.7c0.4,0.7,0.6,1.6,0.6,2.6
				c0,1-0.2,1.8-0.5,2.5c-0.4,0.7-0.9,1.2-1.6,1.6s-1.5,0.7-2.5,0.9c-1,0.2-2.1,0.3-3.4,0.3c-1.2,0-2.3-0.1-3.3-0.3
				c-1-0.2-1.9-0.5-2.6-0.9s-1.3-1-1.7-1.7c-0.4-0.7-0.6-1.6-0.6-2.6c0-1,0.2-1.8,0.5-2.5c0.4-0.7,0.9-1.2,1.6-1.6
				c0.7-0.4,1.5-0.7,2.5-0.9C309.3,147,310.4,146.9,311.7,146.9z M311.8,149.1c-0.8,0-1.5,0-2.1,0.1s-1.2,0.1-1.7,0.2
				s-0.9,0.3-1.2,0.4s-0.6,0.4-0.9,0.6s-0.4,0.5-0.5,0.8c-0.1,0.3-0.2,0.7-0.2,1.1c0,0.7,0.2,1.2,0.5,1.7c0.3,0.4,0.8,0.8,1.3,1
				c0.6,0.2,1.2,0.4,2,0.5c0.8,0.1,1.6,0.1,2.5,0.1c1.2,0,2.2-0.1,3-0.2c0.8-0.1,1.5-0.3,2-0.6c0.5-0.3,0.9-0.6,1.1-1
				c0.2-0.4,0.4-0.9,0.4-1.5c0-0.5-0.1-0.9-0.2-1.2c-0.1-0.3-0.4-0.6-0.6-0.9c-0.3-0.2-0.6-0.5-1-0.6s-0.8-0.3-1.3-0.4
				c-0.5-0.1-1-0.2-1.5-0.2C313,149.1,312.4,149.1,311.8,149.1z"/>
			<path class="st16" d="M315.1,135c0.7,0,1.4,0.1,2,0.4c0.6,0.3,1.1,0.6,1.5,1.1c0.4,0.5,0.7,1,1,1.7s0.3,1.5,0.3,2.3
				c0,0.5,0,1-0.1,1.5c-0.1,0.5-0.2,0.9-0.3,1.2s-0.2,0.7-0.4,0.9c-0.1,0.2-0.2,0.4-0.3,0.4c-0.1,0.1-0.1,0.1-0.2,0.1
				s-0.1,0.1-0.2,0.1s-0.2,0-0.3,0.1c-0.1,0-0.3,0-0.4,0c-0.3,0-0.5,0-0.6-0.1c-0.1-0.1-0.2-0.1-0.2-0.2c0-0.1,0.1-0.2,0.2-0.4
				c0.1-0.2,0.3-0.5,0.4-0.8c0.2-0.3,0.3-0.7,0.4-1.2c0.1-0.5,0.2-1,0.2-1.5c0-0.5-0.1-1-0.2-1.4s-0.3-0.8-0.6-1
				c-0.3-0.3-0.5-0.5-0.9-0.6c-0.3-0.1-0.7-0.2-1.1-0.2c-0.4,0-0.8,0.1-1.2,0.3s-0.7,0.4-0.9,0.8c-0.3,0.3-0.5,0.8-0.6,1.3
				c-0.1,0.5-0.2,1.1-0.2,1.7v1.5c0,0.1,0,0.1,0,0.2c0,0.1-0.1,0.1-0.1,0.2c-0.1,0-0.1,0.1-0.3,0.1s-0.2,0-0.4,0c-0.2,0-0.3,0-0.4,0
				s-0.2-0.1-0.2-0.1c-0.1,0-0.1-0.1-0.1-0.2s0-0.1,0-0.2v-1.4c0-0.5-0.1-1-0.2-1.4c-0.1-0.4-0.3-0.8-0.6-1.1
				c-0.3-0.3-0.6-0.5-0.9-0.7c-0.4-0.2-0.8-0.2-1.2-0.2c-0.3,0-0.6,0.1-0.9,0.2c-0.3,0.1-0.6,0.3-0.8,0.5s-0.4,0.5-0.5,0.8
				s-0.2,0.7-0.2,1.1c0,0.5,0.1,0.9,0.2,1.3c0.1,0.4,0.3,0.7,0.5,1.1s0.3,0.6,0.5,0.8c0.1,0.2,0.2,0.3,0.2,0.4c0,0.1,0,0.1,0,0.2
				c0,0-0.1,0.1-0.1,0.1c-0.1,0-0.1,0-0.3,0.1c-0.1,0-0.3,0-0.4,0c-0.1,0-0.2,0-0.3,0c-0.1,0-0.2,0-0.2,0s-0.1-0.1-0.2-0.1
				s-0.1-0.1-0.2-0.2c-0.1-0.1-0.2-0.2-0.3-0.5c-0.1-0.2-0.3-0.5-0.4-0.9c-0.1-0.3-0.3-0.7-0.4-1.2c-0.1-0.4-0.1-0.9-0.1-1.5
				c0-0.7,0.1-1.4,0.3-1.9c0.2-0.6,0.4-1,0.8-1.4c0.3-0.4,0.7-0.6,1.2-0.8c0.5-0.2,1-0.3,1.6-0.3c0.5,0,1,0.1,1.4,0.2
				c0.4,0.1,0.8,0.3,1.1,0.6s0.6,0.6,0.8,0.9c0.2,0.4,0.4,0.8,0.5,1.3h0c0.1-0.5,0.2-1,0.4-1.5c0.2-0.5,0.5-0.8,0.8-1.2
				c0.3-0.3,0.7-0.6,1.1-0.8C314.1,135,314.6,135,315.1,135z"/>
			<path class="st16" d="M318.7,122.2c0.1,0,0.3,0,0.4,0c0.1,0,0.2,0,0.3,0.1c0.1,0,0.1,0.1,0.2,0.1s0.1,0.1,0.1,0.2v8.7
				c0,0.1,0,0.2,0,0.3c0,0.1-0.1,0.2-0.1,0.2c-0.1,0.1-0.2,0.1-0.3,0.1c-0.1,0-0.3,0-0.4,0c-0.2,0-0.3,0-0.4,0c-0.1,0-0.2,0-0.3-0.1
				c-0.1,0-0.2-0.1-0.3-0.2c-0.1-0.1-0.2-0.1-0.3-0.2l-3.2-3.1c-0.7-0.7-1.4-1.3-2-1.7c-0.6-0.4-1.1-0.8-1.6-1
				c-0.5-0.2-0.9-0.4-1.3-0.5c-0.4-0.1-0.8-0.1-1.1-0.1c-0.3,0-0.7,0.1-1,0.2c-0.3,0.1-0.6,0.3-0.8,0.5c-0.2,0.2-0.4,0.5-0.6,0.8
				c-0.1,0.3-0.2,0.7-0.2,1.2c0,0.5,0.1,1,0.2,1.4c0.1,0.4,0.3,0.8,0.4,1.1c0.2,0.3,0.3,0.6,0.5,0.8c0.1,0.2,0.2,0.4,0.2,0.5
				c0,0.1,0,0.1,0,0.2c0,0-0.1,0.1-0.2,0.1s-0.2,0.1-0.3,0.1s-0.3,0-0.4,0c-0.1,0-0.2,0-0.3,0c-0.1,0-0.2,0-0.2,0
				c-0.1,0-0.1,0-0.2-0.1s-0.1-0.1-0.2-0.2c-0.1-0.1-0.2-0.3-0.3-0.5c-0.1-0.2-0.3-0.5-0.4-0.9s-0.3-0.8-0.4-1.2
				c-0.1-0.4-0.1-0.9-0.1-1.4c0-0.8,0.1-1.4,0.3-2c0.2-0.6,0.5-1,0.9-1.4c0.4-0.4,0.8-0.7,1.3-0.8s1-0.3,1.6-0.3c0.5,0,1,0,1.5,0.1
				c0.5,0.1,1,0.3,1.6,0.6c0.6,0.3,1.2,0.7,1.9,1.2c0.7,0.5,1.5,1.3,2.4,2.2l2.6,2.5v-6.8c0-0.1,0-0.1,0.1-0.2
				c0-0.1,0.1-0.1,0.2-0.2c0.1,0,0.2-0.1,0.3-0.1C318.4,122.2,318.6,122.2,318.7,122.2z"/>
		</g>
	</g>
	<g id="text101">
		<g class="st34">
			<path class="st16" d="M321.4,462.8c0.1,0,0.2,0,0.3,0c0.1,0,0.2,0,0.2,0.1c0.1,0,0.1,0.1,0.1,0.1c0,0,0,0.1,0,0.1
				c0,0.1-0.1,0.2-0.2,0.3c-0.1,0.2-0.2,0.4-0.4,0.6c-0.1,0.3-0.2,0.6-0.4,1s-0.2,0.8-0.2,1.3c0,0.6,0.1,1.2,0.3,1.6
				c0.2,0.5,0.5,0.9,0.9,1.2c0.4,0.3,0.9,0.6,1.4,0.8c0.5,0.2,1.1,0.3,1.8,0.3c0.7,0,1.3-0.1,1.9-0.3c0.5-0.2,1-0.5,1.4-0.8
				s0.7-0.8,0.9-1.2c0.2-0.5,0.3-1,0.3-1.6c0-0.3,0-0.7-0.1-1c-0.1-0.3-0.2-0.7-0.4-1h-3.2v2.6c0,0.1,0,0.2-0.1,0.2
				c-0.1,0-0.2,0.1-0.5,0.1c-0.1,0-0.2,0-0.3,0c-0.1,0-0.1,0-0.2-0.1s-0.1-0.1-0.1-0.1s0-0.1,0-0.1v-3.5c0-0.1,0-0.1,0-0.2
				c0-0.1,0.1-0.1,0.1-0.2c0-0.1,0.1-0.1,0.2-0.1c0.1,0,0.2,0,0.3,0h4.2c0.1,0,0.3,0,0.4,0.1c0.1,0.1,0.2,0.2,0.3,0.3
				s0.2,0.4,0.3,0.6s0.2,0.5,0.2,0.8c0.1,0.3,0.1,0.6,0.2,0.8c0,0.3,0.1,0.6,0.1,0.8c0,0.9-0.1,1.6-0.4,2.3
				c-0.3,0.7-0.6,1.2-1.1,1.7s-1.1,0.8-1.8,1.1s-1.4,0.4-2.3,0.4c-0.9,0-1.7-0.1-2.4-0.4c-0.7-0.3-1.3-0.6-1.8-1.1
				c-0.5-0.5-0.9-1.1-1.2-1.7s-0.4-1.4-0.4-2.2c0-0.4,0-0.8,0.1-1.2c0.1-0.4,0.2-0.7,0.3-1c0.1-0.3,0.2-0.5,0.3-0.7
				c0.1-0.2,0.2-0.3,0.3-0.4c0.1-0.1,0.2-0.1,0.3-0.2S321.2,462.8,321.4,462.8z"/>
			<path class="st16" d="M330.3,451.7c0.1,0,0.2,0,0.3,0.1c0.1,0,0.1,0.1,0.2,0.2c0.1,0.1,0.1,0.1,0.1,0.2s0,0.2,0,0.2v0.5
				c0,0.2,0,0.3,0,0.4c0,0.1-0.1,0.2-0.2,0.3c-0.1,0.1-0.2,0.2-0.3,0.3c-0.1,0.1-0.3,0.2-0.5,0.3l-6.3,3.4c-0.3,0.2-0.7,0.4-1,0.5
				c-0.4,0.2-0.7,0.3-1,0.5v0c0.4,0,0.8,0,1.3,0s0.8,0,1.3,0h6.7c0,0,0.1,0,0.1,0s0.1,0.1,0.1,0.1c0,0.1,0,0.1,0.1,0.2
				c0,0.1,0,0.2,0,0.4s0,0.3,0,0.4c0,0.1,0,0.2-0.1,0.2c0,0.1,0,0.1-0.1,0.1c0,0-0.1,0-0.1,0h-10.2c-0.2,0-0.4-0.1-0.5-0.2
				c-0.1-0.1-0.1-0.3-0.1-0.4v-0.7c0-0.2,0-0.3,0-0.4c0-0.1,0.1-0.2,0.1-0.3c0.1-0.1,0.2-0.2,0.3-0.3c0.1-0.1,0.3-0.2,0.4-0.3
				l4.8-2.6c0.3-0.2,0.6-0.3,0.9-0.5s0.6-0.3,0.8-0.4c0.3-0.1,0.5-0.3,0.8-0.4c0.3-0.1,0.5-0.3,0.8-0.4v0c-0.4,0-0.9,0-1.4,0
				c-0.5,0-1,0-1.4,0h-6c0,0-0.1,0-0.1,0c0,0-0.1-0.1-0.1-0.1c0-0.1,0-0.1-0.1-0.2c0-0.1,0-0.2,0-0.4c0-0.1,0-0.2,0-0.3
				c0-0.1,0-0.2,0.1-0.2s0.1-0.1,0.1-0.1s0.1,0,0.1,0H330.3z"/>
			<path class="st16" d="M325.3,440.3c1,0,1.8,0.1,2.5,0.4c0.7,0.2,1.3,0.6,1.8,1.1c0.5,0.5,0.8,1,1.1,1.7c0.2,0.7,0.3,1.5,0.3,2.4
				v2.3c0,0.1,0,0.3-0.1,0.4s-0.2,0.2-0.5,0.2h-9.8c-0.2,0-0.4-0.1-0.5-0.2s-0.1-0.2-0.1-0.4v-2.5c0-1,0.1-1.8,0.4-2.4
				c0.2-0.7,0.6-1.2,1.1-1.7c0.5-0.4,1-0.8,1.7-1C323.7,440.4,324.4,440.3,325.3,440.3z M325.3,441.9c-0.6,0-1.2,0.1-1.7,0.2
				c-0.5,0.1-1,0.4-1.3,0.7c-0.4,0.3-0.7,0.7-0.9,1.2c-0.2,0.5-0.3,1.1-0.3,1.9v1.5h8.6v-1.5c0-0.7-0.1-1.3-0.3-1.8
				s-0.4-0.9-0.8-1.2c-0.4-0.3-0.8-0.6-1.4-0.7S326.1,441.9,325.3,441.9z"/>
		</g>
	</g>
	<g id="text105">
		<g class="st34">
			<path class="st16" d="M379.9,431.2c0,0.2,0,0.3,0,0.4c0,0.1-0.1,0.2-0.1,0.3c0,0.1-0.1,0.1-0.1,0.2c-0.1,0-0.1,0-0.2,0h-4v4.4
				c0,0.1,0,0.1,0,0.2c0,0-0.1,0.1-0.2,0.1c-0.1,0-0.2,0.1-0.3,0.1c-0.1,0-0.3,0-0.4,0c-0.2,0-0.3,0-0.4,0c-0.1,0-0.2,0-0.3-0.1
				c-0.1,0-0.1-0.1-0.2-0.1c0,0,0-0.1,0-0.2v-4.4h-4c-0.1,0-0.1,0-0.2,0c-0.1,0-0.1-0.1-0.1-0.2c0-0.1-0.1-0.2-0.1-0.3
				c0-0.1,0-0.2,0-0.4c0-0.1,0-0.3,0-0.4c0-0.1,0.1-0.2,0.1-0.3c0-0.1,0.1-0.1,0.1-0.2s0.1,0,0.2,0h4v-4.4c0-0.1,0-0.1,0-0.2
				c0-0.1,0.1-0.1,0.2-0.1c0.1,0,0.2-0.1,0.3-0.1c0.1,0,0.3,0,0.4,0c0.2,0,0.3,0,0.4,0c0.1,0,0.2,0,0.3,0.1c0.1,0,0.1,0.1,0.2,0.1
				c0,0.1,0,0.1,0,0.2v4.4h4c0.1,0,0.1,0,0.2,0s0.1,0.1,0.1,0.2c0,0.1,0.1,0.2,0.1,0.3C379.9,430.9,379.9,431.1,379.9,431.2z"/>
		</g>
	</g>
	<g id="text110">
		<g class="st34">
			<path class="st16" d="M397.6,433.3c0,0.6-0.1,1.2-0.2,1.7c-0.2,0.5-0.4,1-0.7,1.3c-0.3,0.4-0.7,0.6-1.1,0.8
				c-0.5,0.2-1,0.3-1.6,0.3c-0.6,0-1.1-0.1-1.5-0.3s-0.8-0.4-1.1-0.8c-0.3-0.3-0.5-0.8-0.6-1.3c-0.1-0.5-0.2-1.1-0.2-1.7
				c0-0.6,0.1-1.2,0.2-1.7c0.2-0.5,0.4-0.9,0.7-1.3c0.3-0.4,0.7-0.6,1.1-0.8s1-0.3,1.6-0.3c0.6,0,1.1,0.1,1.5,0.3
				c0.4,0.2,0.8,0.4,1.1,0.8c0.3,0.3,0.5,0.8,0.6,1.3C397.6,432.1,397.6,432.6,397.6,433.3z M396.5,433.4c0-0.5,0-0.9-0.1-1.3
				c-0.1-0.4-0.2-0.7-0.4-1s-0.4-0.5-0.7-0.7c-0.3-0.2-0.7-0.2-1.2-0.2c-0.5,0-0.8,0.1-1.2,0.3c-0.3,0.2-0.6,0.4-0.8,0.7
				c-0.2,0.3-0.3,0.6-0.4,1c-0.1,0.4-0.1,0.8-0.1,1.2c0,0.5,0,0.9,0.1,1.3c0.1,0.4,0.2,0.7,0.4,1c0.2,0.3,0.4,0.5,0.7,0.7
				c0.3,0.2,0.7,0.2,1.2,0.2c0.5,0,0.8-0.1,1.2-0.3c0.3-0.2,0.6-0.4,0.8-0.7c0.2-0.3,0.3-0.6,0.4-1
				C396.5,434.2,396.5,433.8,396.5,433.4z"/>
			<path class="st16" d="M405.3,434.4c0,0.5-0.1,0.9-0.2,1.3c-0.1,0.4-0.3,0.7-0.6,1s-0.6,0.5-1,0.6c-0.4,0.1-0.8,0.2-1.3,0.2
				c-0.4,0-0.8-0.1-1.2-0.2c-0.4-0.1-0.7-0.3-0.9-0.6c-0.3-0.2-0.5-0.6-0.6-0.9s-0.2-0.8-0.2-1.3v-4.9c0,0,0-0.1,0-0.1
				c0,0,0,0,0.1-0.1s0.1,0,0.2,0c0.1,0,0.2,0,0.3,0c0.1,0,0.2,0,0.3,0c0.1,0,0.1,0,0.2,0c0,0,0.1,0,0.1,0.1c0,0,0,0.1,0,0.1v4.8
				c0,0.4,0,0.7,0.1,1s0.2,0.5,0.4,0.7c0.2,0.2,0.4,0.3,0.6,0.4c0.2,0.1,0.5,0.1,0.8,0.1c0.3,0,0.6,0,0.8-0.1
				c0.2-0.1,0.4-0.2,0.6-0.4s0.3-0.4,0.4-0.7s0.1-0.6,0.1-0.9v-4.9c0,0,0-0.1,0-0.1c0,0,0,0,0.1-0.1s0.1,0,0.2,0c0.1,0,0.2,0,0.3,0
				c0.1,0,0.2,0,0.2,0c0.1,0,0.1,0,0.2,0c0,0,0.1,0,0.1,0.1c0,0,0,0.1,0,0.1V434.4z"/>
			<path class="st16" d="M412.3,429.9c0,0.1,0,0.1,0,0.2c0,0.1,0,0.1,0,0.1c0,0,0,0.1-0.1,0.1c0,0-0.1,0-0.1,0h-2.2v6.9
				c0,0,0,0.1,0,0.1c0,0,0,0-0.1,0.1c0,0-0.1,0-0.2,0c-0.1,0-0.2,0-0.3,0c-0.1,0-0.2,0-0.3,0c-0.1,0-0.1,0-0.2,0c0,0-0.1,0-0.1-0.1
				c0,0,0-0.1,0-0.1v-6.9h-2.2c0,0-0.1,0-0.1,0c0,0,0,0-0.1-0.1c0,0,0-0.1,0-0.1c0-0.1,0-0.1,0-0.2s0-0.1,0-0.2c0-0.1,0-0.1,0-0.1
				c0,0,0-0.1,0.1-0.1c0,0,0.1,0,0.1,0h5.5c0,0,0.1,0,0.1,0c0,0,0,0,0.1,0.1c0,0,0,0.1,0,0.1C412.3,429.7,412.3,429.8,412.3,429.9z"
				/>
		</g>
	</g>
	<g id="text114">
		<g class="st34">
			<path class="st16" d="M454.7,458.5c0.1,0,0.2,0,0.3,0c0.1,0,0.1,0,0.2,0.1s0.1,0.1,0.1,0.1c0,0,0,0.1,0,0.1v5.4
				c0,0.1,0,0.3-0.1,0.4c-0.1,0.1-0.2,0.2-0.5,0.2h-10c-0.2,0-0.4-0.1-0.5-0.2c-0.1-0.1-0.1-0.2-0.1-0.4v-5.3c0,0,0-0.1,0-0.1
				c0,0,0.1-0.1,0.1-0.1s0.1,0,0.2-0.1c0.1,0,0.2,0,0.3,0c0.1,0,0.2,0,0.3,0c0.1,0,0.1,0,0.2,0.1s0.1,0.1,0.1,0.1c0,0,0,0.1,0,0.1
				v4.4h3.5v-3.7c0,0,0-0.1,0-0.1c0,0,0.1-0.1,0.1-0.1s0.1,0,0.2-0.1c0.1,0,0.2,0,0.3,0c0.1,0,0.2,0,0.3,0c0.1,0,0.1,0,0.2,0.1
				s0.1,0.1,0.1,0.1c0,0,0,0.1,0,0.1v3.7h4v-4.4c0,0,0-0.1,0-0.1c0,0,0.1-0.1,0.1-0.1s0.1,0,0.2-0.1
				C454.5,458.5,454.6,458.5,454.7,458.5z"/>
			<path class="st16" d="M454.7,447.6c0.1,0,0.2,0,0.3,0.1c0.1,0,0.1,0.1,0.2,0.2s0.1,0.1,0.1,0.2c0,0.1,0,0.2,0,0.2v0.5
				c0,0.2,0,0.3,0,0.4s-0.1,0.2-0.2,0.3c-0.1,0.1-0.2,0.2-0.3,0.3c-0.1,0.1-0.3,0.2-0.6,0.3l-6.3,3.4c-0.3,0.2-0.7,0.4-1,0.5
				c-0.4,0.2-0.7,0.3-1,0.5v0c0.4,0,0.8,0,1.3,0c0.4,0,0.9,0,1.3,0h6.7c0,0,0.1,0,0.1,0c0,0,0.1,0.1,0.1,0.1c0,0.1,0,0.1,0.1,0.2
				c0,0.1,0,0.2,0,0.4s0,0.3,0,0.4s0,0.2-0.1,0.2c0,0.1,0,0.1-0.1,0.1c0,0-0.1,0-0.1,0h-10.3c-0.2,0-0.4-0.1-0.5-0.2
				c-0.1-0.1-0.1-0.3-0.1-0.4v-0.7c0-0.2,0-0.3,0-0.4s0.1-0.2,0.1-0.3c0.1-0.1,0.2-0.2,0.3-0.3c0.1-0.1,0.3-0.2,0.4-0.3l4.9-2.6
				c0.3-0.2,0.6-0.3,0.9-0.5c0.3-0.2,0.6-0.3,0.8-0.4c0.3-0.1,0.5-0.3,0.8-0.4c0.3-0.1,0.5-0.3,0.8-0.4v0c-0.5,0-0.9,0-1.4,0
				s-1,0-1.4,0h-6.1c0,0-0.1,0-0.1,0s-0.1-0.1-0.1-0.1c0-0.1,0-0.1-0.1-0.2c0-0.1,0-0.2,0-0.4c0-0.1,0-0.2,0-0.3s0-0.2,0.1-0.2
				c0-0.1,0.1-0.1,0.1-0.1c0,0,0.1,0,0.1,0H454.7z"/>
		</g>
	</g>
</g>
<circle id="circle281" class="st35" cx="232.1" cy="543.3" r="11.6"/>
<circle id="circle281-2" class="st36" cx="232.1" cy="602" r="11.6"/>
<rect x="232.1" y="538.8" class="st35" width="120.4" height="9.1"/>
<rect x="232.1" y="597.4" class="st36" width="147.2" height="9.1"/>
<circle id="circle281-3" class="st37" cx="232.1" cy="954.7" r="11.6"/>
<rect id="rect853" x="232.1" y="950.2" class="st37" width="173.9" height="9.1"/>
<rect id="rect1463" x="370.1" y="482.2" class="st36" width="9.1" height="124.3"/>
<rect id="rect1463-2" x="396.9" y="482.2" class="st37" width="9.1" height="477"/>
<rect id="rect1465" x="343.4" y="482.2" class="st35" width="9.1" height="65.6"/>
<circle id="circle281-4" class="st37" cx="401.4" cy="482.2" r="10.5"/>
<circle id="circle281-5" class="st36" cx="374.7" cy="482.2" r="10.5"/>
<circle id="circle281-6" class="st35" cx="348" cy="482.2" r="10.5"/>
</svg>
