<?xml version="1.0" encoding="utf-8"?>
<!-- Generator: Adobe Illustrator 27.8.0, SVG Export Plug-In . SVG Version: 6.00 Build 0)  -->
<svg version="1.1" id="svg8" xmlns="http://www.w3.org/2000/svg" xmlns:xlink="http://www.w3.org/1999/xlink" x="0px" y="0px"
	 viewBox="0 0 748.6 856" style="enable-background:new 0 0 748.6 856;" xml:space="preserve">
<style type="text/css">
	.st0{fill:#1A1919;}
	.st1{fill:#303030;}
	.st2{fill:#DDDDDD;}
	.st3{fill:#9A2442;}
	.st4{fill:#010103;}
	.st5{fill:#E3B37D;}
	.st6{fill:#F5B93E;}
	.st7{fill:#474949;}
	.st8{fill:#E0DCD3;}
	.st9{fill:#DBDED7;}
	.st10{fill:#A3928B;}
	.st11{fill:#E3AD51;}
	.st12{fill:#C4B3A8;}
	.st13{fill:#BCB3AD;}
	.st14{fill:#F53200;}
	.st15{fill:#FFFFFF;}
	.st16{fill:none;stroke:#493930;stroke-miterlimit:10;}
	.st17{fill:#493930;}
	.st18{fill:#2C2C2C;}
	.st19{fill:#BE8839;}
	.st20{fill:#655A50;}
	.st21{fill:#686868;}
	.st22{fill:#ADA390;}
	.st23{fill:#47494A;}
	.st24{fill:#EAEAEA;}
	.st25{fill:#36323E;}
	.st26{fill:#FCF7FD;}
	.st27{fill:#1A1A1A;}
	.st28{opacity:0.99;fill:#808080;enable-background:new    ;}
	.st29{fill:#0000FF;}
	.st30{fill:#CCCCCC;}
	.st31{fill:#B3B3B3;}
	.st32{opacity:0.99;enable-background:new    ;}
	.st33{fill:#E6E6E6;}
	.st34{fill:#333333;}
	.st35{enable-background:new    ;}
	.st36{fill:#00B589;}
	.st37{fill:#E30613;}
	.st38{fill:#914F00;}
</style>
<g>
	<path class="st0" d="M590,88.1H7.3c-4,0-7.3,3.2-7.3,7.3v719c0,4,3.2,7.3,7.3,7.3h17.6l34.2,34.2h365.2v0l34.1-34.1H590
		c4,0,7.3-3.2,7.3-7.3v-719C597.3,91.4,594,88.1,590,88.1z M28.3,262.6c-10,0-18.1-8.1-18.1-18.1s8.1-18.1,18.1-18.1
		s18.1,8.1,18.1,18.1S38.3,262.6,28.3,262.6z M88.2,844.4c-10,0-18.1-8.1-18.1-18.1s8.1-18.1,18.1-18.1c10,0,18.1,8.1,18.1,18.1
		S98.2,844.4,88.2,844.4z M401.3,844.4c-10,0-18.1-8.1-18.1-18.1s8.1-18.1,18.1-18.1s18.1,8.1,18.1,18.1S411.3,844.4,401.3,844.4z
		 M569.6,274c-10,0-18.1-8.1-18.1-18.1c0-10,8.1-18.1,18.1-18.1s18.1,8.1,18.1,18.1C587.7,265.9,579.6,274,569.6,274z"/>
	<rect x="55.9" y="54.8" class="st1" width="101.7" height="143.5"/>
	<path class="st1" d="M141.5,214.5H72.1c-3.9,0-7.1-3.2-7.1-7.1v-9.1h83.7v9.1C148.6,211.3,145.4,214.5,141.5,214.5z"/>
	<path class="st2" d="M571.5,126.8h-21.4v-4.6c0-0.8-0.6-1.4-1.4-1.4H528c-0.8,0-1.4,0.6-1.4,1.4v4.6h-21.4c-1,0-1.7,0.8-1.7,1.7
		v65.1c0,1,0.8,1.7,1.7,1.7h66.3c1,0,1.7-0.8,1.7-1.7v-65.1C573.2,127.6,572.4,126.8,571.5,126.8z"/>
	<circle class="st3" cx="538.3" cy="158.1" r="19.2"/>
	<g>
		<circle class="st2" cx="148.6" cy="306.8" r="35.2"/>
		<path class="st4" d="M129.6,282.3c-8.1,5.1-13.5,14.2-13.5,24.5s5.4,19.4,13.5,24.5V282.3z"/>
	</g>
	<g>
		<circle class="st2" cx="174.2" cy="405.8" r="35.2"/>
		<path class="st4" d="M166.8,375.6c-9.5,1.4-18.1,7.5-22.3,16.9c-4.2,9.4-2.9,19.9,2.4,27.9L166.8,375.6z"/>
	</g>
	<rect x="278.6" y="168.6" class="st5" width="9.8" height="21.5"/>
	<rect x="362.3" y="212.4" class="st5" width="9.8" height="21.5"/>
	
		<rect x="451.6" y="286.4" transform="matrix(-1.836970e-16 1 -1 -1.836970e-16 753.6963 -159.3002)" class="st5" width="9.8" height="21.5"/>
	
		<rect x="451.6" y="227" transform="matrix(-1.836970e-16 1 -1 -1.836970e-16 694.2142 -218.7822)" class="st5" width="9.8" height="21.5"/>
	<rect x="327.2" y="315.4" class="st5" width="9.8" height="21.5"/>
	<rect x="396.7" y="412.8" class="st6" width="9.8" height="21.5"/>
	<rect x="423.5" y="412.8" class="st5" width="9.8" height="21.5"/>
	<rect x="449.9" y="412.8" class="st5" width="9.8" height="21.5"/>
	
		<rect x="329.9" y="700.3" transform="matrix(6.123234e-17 -1 1 6.123234e-17 -376.1999 1045.9156)" class="st5" width="9.8" height="21.5"/>
	<rect x="387.3" y="718.6" class="st6" width="9.8" height="21.5"/>
	<path class="st7" d="M332.6,227h-28.4c-0.8,0-1.5-0.7-1.5-1.5v-11.6c0-0.8,0.7-1.5,1.5-1.5h28.4c0.8,0,1.5,0.7,1.5,1.5v11.6
		C334.1,226.3,333.4,227,332.6,227z"/>
	<g>
		<path class="st8" d="M305,200.1v12.2h11.5v-12.2c0-0.7-0.6-1.2-1.2-1.2h-9C305.5,198.9,305,199.4,305,200.1z"/>
		<path class="st8" d="M320.2,200.1v12.2h11.5v-12.2c0-0.7-0.6-1.2-1.2-1.2h-9C320.8,198.9,320.2,199.4,320.2,200.1z"/>
	</g>
	<g>
		<rect x="423.1" y="385.7" class="st9" width="10.7" height="17.2"/>
		<rect x="423.1" y="388.2" class="st7" width="10.7" height="11.8"/>
	</g>
	<g>
		<rect x="449.4" y="385.7" class="st9" width="10.7" height="17.2"/>
		<rect x="449.4" y="388.2" class="st7" width="10.7" height="11.8"/>
	</g>
	<g>
		
			<rect x="309.1" y="352.2" transform="matrix(6.123234e-17 -1 1 6.123234e-17 -46.3401 675.3078)" class="st9" width="10.7" height="17.2"/>
		
			<rect x="309" y="354.9" transform="matrix(6.123234e-17 -1 1 6.123234e-17 -46.502 675.1459)" class="st7" width="10.7" height="11.8"/>
	</g>
	<g>
		
			<rect x="254.1" y="352.2" transform="matrix(6.123234e-17 -1 1 6.123234e-17 -101.3977 620.2502)" class="st9" width="10.7" height="17.2"/>
		
			<rect x="253.9" y="354.9" transform="matrix(6.123234e-17 -1 1 6.123234e-17 -101.5596 620.0884)" class="st7" width="10.7" height="11.8"/>
	</g>
	<g>
		<rect x="387.3" y="688.3" class="st9" width="10.7" height="17.2"/>
		<rect x="387.3" y="690.8" class="st7" width="10.7" height="11.8"/>
	</g>
	<g>
		
			<rect x="329.5" y="722.5" transform="matrix(6.123234e-17 -1 1 6.123234e-17 -396.207 1065.9229)" class="st9" width="10.7" height="17.2"/>
		
			<rect x="329.4" y="725.1" transform="matrix(6.123234e-17 -1 1 6.123234e-17 -396.3689 1065.761)" class="st7" width="10.7" height="11.8"/>
	</g>
	<g>
		<rect x="478" y="135.5" class="st9" width="10.7" height="17.2"/>
		<rect x="478" y="138" class="st7" width="10.7" height="11.8"/>
	</g>
	<g>
		<rect x="338.4" y="136.5" class="st9" width="10.7" height="17.2"/>
		<rect x="338.4" y="139" class="st7" width="10.7" height="11.8"/>
	</g>
	<path class="st10" d="M450.4,282.5h-4.8c-2,0-3.7-1.7-3.7-3.7v-25.4c0-2,1.7-3.7,3.7-3.7h4.8c2,0,3.7,1.7,3.7,3.7v25.4
		C454.1,280.9,452.4,282.5,450.4,282.5z"/>
	<g>
		<path class="st11" d="M381.5,521.9l11.7-11.7c1.1-1.1,1.1-2.9,0-4l-8.6-8.6c-1.1-1.1-2.9-1.1-4,0l-11.7,11.7c-1.1,1.1-1.1,2.9,0,4
			l8.6,8.6C378.6,523,380.4,523,381.5,521.9z"/>
		<path class="st12" d="M381.6,520.8l10.5-10.5c1.1-1.1,1.1-2.9,0-4l-7.6-7.6c-1.1-1.1-2.9-1.1-4,0L370,509.2c-1.1,1.1-1.1,2.9,0,4
			l7.6,7.6C378.7,521.9,380.5,521.9,381.6,520.8z"/>
	</g>
	<rect x="374.8" y="476.7" class="st13" width="12.2" height="11"/>
	<rect x="394.4" y="476.7" class="st13" width="12.2" height="11"/>
	<rect x="374.8" y="529.6" class="st13" width="12.2" height="11"/>
	<rect x="394.4" y="529.6" class="st13" width="12.2" height="11"/>
	<path class="st14" d="M344.2,764h-15.2c-1.6,0-2.8-1.3-2.8-2.8v-5.3c0-1.6,1.3-2.8,2.8-2.8h15.2c1.6,0,2.8,1.3,2.8,2.8v5.3
		C347.1,762.7,345.8,764,344.2,764z"/>
	<g>
		<path class="st15" d="M31.2,123.1v-4.5h2.1v7.1h-1.5c-2.9-2.4-4.8-2.7-8.9-2.8v-2.5C26.3,120.6,28.5,121.1,31.2,123.1z"/>
		<path class="st15" d="M27.8,127.1v4h-1.7v-4H27.8z"/>
		<path class="st15" d="M24.9,132.8v2.2h5.9v-1.9h1.5c0.2,1.1,0.5,1.8,0.9,2.6v1.8h-8.4v1.9h-2v-6.6H24.9z"/>
		<path class="st15" d="M24.4,140.8c2.3,2.7,4.2,4.4,5.6,4.4c1,0,1.5-0.5,1.5-1.4c0-0.7-0.5-1.3-1-1.8l1.3-1.3
			c1.1,1,1.7,1.9,1.7,3.4c0,2-1.3,3.4-3.3,3.4c-1.9,0-3.8-1.7-5.4-3.3c0,0.5,0.1,1.2,0.1,1.7v2.1h-2.1v-7.2H24.4z"/>
		<path class="st15" d="M33.3,148.6v2.6l-4.8,1.1c-1.1,0.3-2.2,0.5-3.3,0.8v0.1c1.1,0.3,2.2,0.5,3.3,0.8l4.8,1.2v2.5l-10.4-3.2v-3
			L33.3,148.6z"/>
		<path class="st15" d="M33.3,162.1v2.5H22.9v-2.5H33.3z"/>
		<path class="st15" d="M33.3,167v2.6l-5,2.6c-0.7,0.4-1.5,0.7-2.4,1v0.1c1.1-0.1,2.6-0.3,3.8-0.3h3.5v2.4H22.9v-2.6l5-2.6
			c0.7-0.4,1.5-0.7,2.4-1v-0.1c-1.2,0.1-2.6,0.3-3.8,0.3h-3.5V167H33.3z"/>
		<path class="st15" d="M33.3,177.7v3.7c0,2.3-0.8,4.2-3.4,4.2c-2.5,0-3.6-1.9-3.6-4.1v-1.2h-3.5v-2.5H33.3z M28.3,181.3
			c0,1.2,0.6,1.8,1.6,1.8c1,0,1.4-0.7,1.4-1.9v-1h-3V181.3z"/>
		<path class="st15" d="M27.8,187.2h5.5v2.5h-5.8c-2,0-2.7,0.6-2.7,1.7c0,1.2,0.7,1.8,2.7,1.8h5.8v2.4h-5.5c-3.5,0-5.1-1.4-5.1-4.2
			S24.3,187.2,27.8,187.2z"/>
		<path class="st15" d="M31.2,200v-2.8h2.1v8.1h-2.1v-2.8h-8.3V200H31.2z"/>
	</g>
	<g>
		<path class="st15" d="M588.7,136.6v3.8c0,2.2-0.8,4.1-3.3,4.1c-1.5,0-2.5-0.7-3-1.8l-4.1,2.3v-2.8l3.7-1.9v-1.2h-3.7v-2.5H588.7z
			 M583.9,140.3c0,1.2,0.5,1.8,1.5,1.8s1.3-0.6,1.3-1.8v-1.1h-2.8V140.3z"/>
		<path class="st15" d="M588.7,146.5v6.6h-2.1V149h-2v3.5h-2.1V149h-2.2v4.3h-2.1v-6.8H588.7z"/>
		<path class="st15" d="M579.6,154.7l1.6,1.3c-0.6,0.7-1,1.7-1,2.6c0,0.9,0.4,1.4,0.9,1.4c0.6,0,0.8-0.6,1.2-1.5l0.6-1.3
			c0.4-1.1,1.3-2.1,2.8-2.1c1.7,0,3.2,1.6,3.2,3.8c0,1.2-0.5,2.5-1.3,3.4l-1.6-1.3c0.5-0.7,0.8-1.4,0.8-2.1c0-0.8-0.3-1.3-0.8-1.3
			c-0.6,0-0.8,0.7-1.2,1.6l-0.5,1.3c-0.5,1.3-1.4,2.1-2.8,2.1c-1.7,0-3.3-1.5-3.3-4C578.1,157.1,578.5,155.7,579.6,154.7z"/>
		<path class="st15" d="M588.7,164.2v6.6h-2.1v-4.1h-2v3.5h-2.1v-3.5h-2.2v4.3h-2.1v-6.8H588.7z"/>
		<path class="st15" d="M586.6,175.1v-2.8h2.1v8.1h-2.1v-2.8h-8.3v-2.5H586.6z"/>
	</g>
	<g>
		<path class="st15" d="M371.7,797.3v2.5h-10.4v-2.5H371.7z"/>
		<path class="st15" d="M366.4,801.8c3.5,0,5.5,2.3,5.5,5c0,1.4-0.6,2.4-1.4,3.2l-1.5-1.3c0.5-0.5,0.7-1.1,0.7-1.8
			c0-1.4-1.2-2.5-3.2-2.5c-2.1,0-3.3,1-3.3,2.4c0,0.8,0.3,1.5,0.9,2l-1.5,1.3c-1-0.9-1.5-2.1-1.5-3.4
			C361.1,804,362.9,801.8,366.4,801.8z"/>
		<path class="st15" d="M362.6,810.4l1.6,1.3c-0.6,0.7-1,1.7-1,2.6c0,0.9,0.4,1.4,0.9,1.4c0.6,0,0.8-0.6,1.2-1.5l0.6-1.3
			c0.4-1.1,1.3-2.1,2.8-2.1c1.7,0,3.2,1.6,3.2,3.8c0,1.2-0.5,2.5-1.3,3.4l-1.6-1.3c0.5-0.7,0.8-1.4,0.8-2.1c0-0.8-0.3-1.3-0.8-1.3
			c-0.6,0-0.8,0.7-1.2,1.6l-0.5,1.3c-0.5,1.3-1.4,2.1-2.8,2.1c-1.7,0-3.3-1.5-3.3-4C361.1,812.9,361.6,811.5,362.6,810.4z"/>
		<path class="st15" d="M371.7,820v3.7c0,2.3-0.8,4.2-3.4,4.2c-2.5,0-3.6-1.9-3.6-4.1v-1.2h-3.5V820H371.7z M366.7,823.6
			c0,1.2,0.6,1.8,1.6,1.8c1,0,1.4-0.7,1.4-1.9v-1h-3V823.6z"/>
	</g>
	<g>
		<path class="st15" d="M388.7,749.3c-1.2,1-2,2.5-2,4.2c0,3,2.5,5.5,5.5,5.5s5.5-2.5,5.5-5.5c0-1.7-0.8-3.2-2-4.2
			c-0.4-0.4-0.5-1-0.1-1.4c0.4-0.4,1-0.5,1.4-0.1c1.7,1.4,2.7,3.5,2.7,5.8c0,4.1-3.4,7.5-7.5,7.5s-7.5-3.4-7.5-7.5
			c0-2.3,1.1-4.4,2.7-5.8c0.4-0.4,1.1-0.3,1.4,0.1C389.2,748.3,389.1,748.9,388.7,749.3L388.7,749.3z M393.2,753.5c0,0.6-0.4,1-1,1
			c-0.6,0-1-0.4-1-1v-7c0-0.6,0.4-1,1-1c0.6,0,1,0.4,1,1V753.5z"/>
	</g>
	<polyline class="st16" points="36,280.7 42.7,280.7 105.3,343.3 116.1,343.3 	"/>
	<polyline class="st16" points="35.8,288.8 42.7,288.8 102.9,348.9 102.9,480.6 159.6,537.3 212.4,537.3 224.6,524.9 263.6,524.9 	
		"/>
	<polyline class="st16" points="33.4,316.2 44.7,316.2 86.9,358.4 86.9,481.4 156.7,551.2 268.4,551.2 	"/>
	<polyline class="st16" points="22.9,401.8 61.9,440.7 61.9,504.7 33.2,533.4 	"/>
	<line class="st17" x1="76.1" y1="483.5" x2="151.9" y2="559.3"/>
	<polyline class="st16" points="131.4,550.8 88.6,593.5 24.5,593.5 	"/>
	<polyline class="st16" points="131.4,561.4 91.3,601.5 26,601.5 	"/>
	<polyline class="st16" points="267.4,559.9 234.8,559.9 159.2,635.5 78.7,635.5 56,658.2 31.2,658.2 	"/>
	<polyline class="st16" points="249.5,569 249.5,615.3 179.7,685.2 30.5,685.2 	"/>
	<polyline class="st16" points="264.8,588.9 264.8,625.2 176.3,713.7 31.2,713.7 	"/>
	<polyline class="st16" points="273.6,588.7 273.6,627.9 158.8,742.7 24.5,742.7 	"/>
	<polyline class="st16" points="282.6,589.6 282.6,635.2 147.4,770.4 30.5,770.4 	"/>
	<polyline class="st16" points="291.1,593.6 291.1,643.1 134.7,799.4 30.5,799.4 	"/>
	<line class="st17" x1="328.8" y1="678.6" x2="292.2" y2="642"/>
	<polyline class="st16" points="331.1,694.9 306,669.7 280.1,669.7 	"/>
	<polyline class="st16" points="344.4,702.6 344.4,643.9 299.8,599.2 299.8,579.8 	"/>
	<polyline class="st16" points="278.5,817.5 262.1,801.1 262.1,736.4 287.4,711.1 	"/>
	<polyline class="st16" points="308.2,588.2 308.2,599.1 361.8,652.6 401.5,652.6 506.9,758 506.9,787.1 518.6,798.9 563.7,798.9 	
		"/>
	<polyline class="st16" points="317.1,589.3 317.1,600.2 359.4,642.5 421.4,642.5 568.7,789.7 	"/>
	<polyline class="st16" points="327.2,588.9 368,629.7 433.5,629.7 574,770.1 	"/>
	<polyline class="st16" points="345.8,568.2 400.2,568.2 571.3,739.3 	"/>
	<polyline class="st16" points="347.1,559.9 407.3,559.9 573.5,726.2 	"/>
	<polyline class="st16" points="496,579.7 489.1,572.8 443.1,572.8 	"/>
	<polyline class="st16" points="347.1,516.3 358.2,516.3 367.1,525.1 377.8,525.1 	"/>
	<polyline class="st16" points="346.9,507.4 356.9,507.4 367.4,496.8 380.6,496.8 	"/>
	<polyline class="st16" points="325.4,483.8 341.9,467.4 411.8,467.4 566.8,622.5 	"/>
	<polyline class="st16" points="317,485.6 317,481.1 336.5,461.6 414.7,461.6 575.1,621.9 	"/>
	<polyline class="st16" points="308.3,485.6 308.3,477.2 328.5,456.9 418.5,456.9 574.9,613.3 	"/>
	<polyline class="st16" points="299.7,484 299.7,475.8 323.5,452 418.9,452 576.4,609.5 	"/>
	<polyline class="st16" points="291.1,483.5 291.1,471.6 316,446.7 420.1,446.7 580.5,607.1 	"/>
	<polyline class="st16" points="282.2,485.2 282.2,463.5 303.4,443.4 425.1,443.4 480.2,498.5 580.5,498.5 	"/>
	<polyline class="st16" points="273.6,483.3 273.6,460 297.3,438.1 426.8,438.1 458.1,469.4 579.1,469.4 	"/>
	<polyline class="st16" points="264.8,482.9 264.8,458.9 286.8,436.8 290.2,433.5 	"/>
	<polyline class="st16" points="221.2,500.9 221.2,471.9 289.5,403.5 315.4,403.5 322.4,410.5 372.2,410.5 399.6,383.1 426.8,383.1 
			"/>
	<polyline class="st16" points="210.3,398.1 314.3,398.1 335.1,377.3 354.3,377.3 	"/>
	<polyline class="st16" points="286.7,327.5 286.7,338.2 277.7,347.2 260.3,347.2 247.6,334.6 247.6,325.4 247.6,300.3 	"/>
	<polyline class="st16" points="226.9,269.6 226.9,261.3 232.4,255.8 249.3,255.8 	"/>
	<polyline class="st16" points="191.2,247.3 237.4,247.3 258,226.7 258,204.9 	"/>
	<polyline class="st16" points="319.2,233.7 333,233.7 341.7,225.1 341.7,192.5 313.6,164.5 298,164.5 276,142.6 	"/>
	<polyline class="st16" points="285.9,139 299.7,152.9 311.3,152.9 	"/>
	<polyline class="st16" points="323.3,136.5 323.3,156.8 344.4,178 379.9,178 384.6,173.3 384.6,144.1 	"/>
	<path class="st16" d="M402.6,254c0-0.5,0-48.4,0-48.4"/>
	<path class="st16" d="M418.1,205.6c0,1,0,22,0,22"/>
	<polyline class="st16" points="415.7,261.3 428.1,261.3 440,249.4 	"/>
	<polyline class="st16" points="415.5,275 428.4,275 440.6,287.2 	"/>
	<line class="st16" x1="416.1" y1="316.2" x2="439.6" y2="316.2"/>
	<line class="st16" x1="413.8" y1="330.3" x2="441.9" y2="330.3"/>
	<polyline class="st16" points="415.5,343.7 426.8,343.7 441.9,343.7 	"/>
	<line class="st16" x1="562.9" y1="206.5" x2="530.4" y2="239"/>
	<g>
		<path class="st7" d="M327.3,576h-64.2c-3.2,0-5.9-2.6-5.9-5.9v-64.2c0-3.2,2.6-5.9,5.9-5.9h64.2c3.2,0,5.9,2.6,5.9,5.9v64.2
			C333.2,573.4,330.6,576,327.3,576z"/>
		<circle class="st18" cx="322.3" cy="564.1" r="4.8"/>
		<g>
			<path class="st8" d="M240.4,510.5h16.9v-5.9h-16.9c-0.7,0-1.2,0.6-1.2,1.2v3.4C239.1,510,239.7,510.5,240.4,510.5z"/>
			<path class="st8" d="M240.4,519.2h16.9v-5.9h-16.9c-0.7,0-1.2,0.6-1.2,1.2v3.4C239.1,518.7,239.7,519.2,240.4,519.2z"/>
			<path class="st8" d="M240.4,527.9h16.9v-5.9h-16.9c-0.7,0-1.2,0.6-1.2,1.2v3.4C239.1,527.4,239.7,527.9,240.4,527.9z"/>
			<path class="st8" d="M240.4,536.6h16.9v-5.9h-16.9c-0.7,0-1.2,0.6-1.2,1.2v3.4C239.1,536.1,239.7,536.6,240.4,536.6z"/>
			<path class="st8" d="M240.4,545.3h16.9v-5.9h-16.9c-0.7,0-1.2,0.6-1.2,1.2v3.4C239.1,544.8,239.7,545.3,240.4,545.3z"/>
			<path class="st8" d="M240.4,554h16.9v-5.9h-16.9c-0.7,0-1.2,0.6-1.2,1.2v3.4C239.1,553.5,239.7,554,240.4,554z"/>
			<path class="st8" d="M240.4,562.7h16.9v-5.9h-16.9c-0.7,0-1.2,0.6-1.2,1.2v3.4C239.1,562.2,239.7,562.7,240.4,562.7z"/>
			<path class="st8" d="M240.4,571.4h16.9v-5.9h-16.9c-0.7,0-1.2,0.6-1.2,1.2v3.4C239.1,570.8,239.7,571.4,240.4,571.4z"/>
		</g>
		<g>
			<path class="st8" d="M322.7,483.2v16.9h5.9v-16.9c0-0.7-0.6-1.2-1.2-1.2H324C323.3,481.9,322.7,482.5,322.7,483.2z"/>
			<path class="st8" d="M314,483.2v16.9h5.9v-16.9c0-0.7-0.6-1.2-1.2-1.2h-3.4C314.6,481.9,314,482.5,314,483.2z"/>
			<path class="st8" d="M305.3,483.2v16.9h5.9v-16.9c0-0.7-0.6-1.2-1.2-1.2h-3.4C305.9,481.9,305.3,482.5,305.3,483.2z"/>
			<path class="st8" d="M296.6,483.2v16.9h5.9v-16.9c0-0.7-0.6-1.2-1.2-1.2h-3.4C297.2,481.9,296.6,482.5,296.6,483.2z"/>
			<path class="st8" d="M287.9,483.2v16.9h5.9v-16.9c0-0.7-0.6-1.2-1.2-1.2h-3.4C288.5,481.9,287.9,482.5,287.9,483.2z"/>
			<path class="st8" d="M279.3,483.2v16.9h5.9v-16.9c0-0.7-0.6-1.2-1.2-1.2h-3.4C279.8,481.9,279.3,482.5,279.3,483.2z"/>
			<path class="st8" d="M270.6,483.2v16.9h5.9v-16.9c0-0.7-0.6-1.2-1.2-1.2h-3.4C271.1,481.9,270.6,482.5,270.6,483.2z"/>
			<path class="st8" d="M261.9,483.2v16.9h5.9v-16.9c0-0.7-0.6-1.2-1.2-1.2h-3.4C262.4,481.9,261.9,482.5,261.9,483.2z"/>
		</g>
		<g>
			<path class="st8" d="M267.7,592.9V576h-5.9v16.9c0,0.7,0.6,1.2,1.2,1.2h3.4C267.2,594.2,267.7,593.6,267.7,592.9z"/>
			<path class="st8" d="M276.4,592.9V576h-5.9l0,16.9c0,0.7,0.6,1.2,1.2,1.2l3.4,0C275.9,594.2,276.4,593.6,276.4,592.9z"/>
			<path class="st8" d="M285.1,592.9V576h-5.9v16.9c0,0.7,0.6,1.2,1.2,1.2h3.4C284.6,594.2,285.1,593.6,285.1,592.9z"/>
			<path class="st8" d="M293.8,592.9l0-16.9h-5.9v16.9c0,0.7,0.6,1.2,1.2,1.2h3.4C293.3,594.2,293.8,593.6,293.8,592.9z"/>
			<path class="st8" d="M302.5,592.9V576h-5.9v16.9c0,0.7,0.6,1.2,1.2,1.2h3.4C302,594.2,302.5,593.6,302.5,592.9z"/>
			<path class="st8" d="M311.2,592.9V576h-5.9v16.9c0,0.7,0.6,1.2,1.2,1.2h3.4C310.7,594.2,311.2,593.6,311.2,592.9z"/>
			<path class="st8" d="M319.9,592.9V576H314v16.9c0,0.7,0.6,1.2,1.2,1.2h3.4C319.3,594.2,319.9,593.6,319.9,592.9z"/>
			<path class="st8" d="M328.6,592.9V576h-5.9l0,16.9c0,0.7,0.6,1.2,1.2,1.2h3.4C328,594.2,328.6,593.6,328.6,592.9z"/>
		</g>
		<g>
			<path class="st8" d="M350.1,565.3h-16.9v5.9h16.9c0.7,0,1.2-0.6,1.2-1.2v-3.4C351.3,565.8,350.8,565.3,350.1,565.3z"/>
			<path class="st8" d="M350.1,556.6h-16.9v5.9h16.9c0.7,0,1.2-0.6,1.2-1.2v-3.4C351.3,557.1,350.8,556.6,350.1,556.6z"/>
			<path class="st8" d="M350.1,547.9h-16.9v5.9h16.9c0.7,0,1.2-0.6,1.2-1.2v-3.4C351.3,548.4,350.8,547.9,350.1,547.9z"/>
			<path class="st8" d="M350.1,539.2h-16.9v5.9h16.9c0.7,0,1.2-0.6,1.2-1.2v-3.4C351.3,539.7,350.8,539.2,350.1,539.2z"/>
			<path class="st8" d="M350.1,530.5h-16.9v5.9h16.9c0.7,0,1.2-0.6,1.2-1.2v-3.4C351.3,531,350.8,530.5,350.1,530.5z"/>
			<path class="st8" d="M350.1,521.8h-16.9v5.9h16.9c0.7,0,1.2-0.6,1.2-1.2V523C351.3,522.3,350.8,521.8,350.1,521.8z"/>
			<path class="st8" d="M350.1,513.1h-16.9v5.9h16.9c0.7,0,1.2-0.6,1.2-1.2v-3.4C351.3,513.6,350.8,513.1,350.1,513.1z"/>
			<path class="st8" d="M350.1,504.4h-16.9v5.9h16.9c0.7,0,1.2-0.6,1.2-1.2v-3.4C351.3,505,350.8,504.4,350.1,504.4z"/>
		</g>
	</g>
	<path class="st15" d="M247,663.2v7.2c0,1.3,0,2.5-0.1,3.5c0,0.8-0.2,1.6-0.4,2.4c-0.2,0.7-0.5,1.3-0.8,1.9c-0.5,0.7-1,1.4-1.6,2
		c-0.6,0.7-1.5,1.2-2.5,1.6c-1.1,0.3-2.3,0.5-3.7,0.5h-6v-7.4h3.7c0.5,0,0.9-0.1,1.4-0.2c0.3-0.1,0.6-0.3,0.9-0.6
		c0.2-0.3,0.4-0.7,0.5-1.1c0.1-0.6,0.2-1.2,0.2-1.7v-7.9H247z M232.6,686.6h95v3.1h-95V686.6z M247,651.3v7.4h-8.5v-7.4H247z
		 M267.3,650.7c1.1,0,2.3,0.1,3.4,0.3c1,0.2,2.1,0.5,3.1,0.9c1,0.4,1.9,0.9,2.7,1.4c0.9,0.6,1.7,1.2,2.4,2c0.7,0.7,1.4,1.6,1.9,2.4
		c0.6,0.9,1,1.8,1.4,2.7c0.4,1,0.7,2,0.8,3.1c0.2,1.1,0.3,2.3,0.3,3.4c0,1.1-0.1,2.2-0.3,3.3c-0.2,1-0.5,2-0.8,3
		c-0.4,0.9-0.8,1.9-1.4,2.7c-0.6,0.9-1.2,1.7-1.9,2.4c-0.7,0.7-1.5,1.4-2.4,2c-0.8,0.6-1.7,1-2.7,1.4c-1,0.4-2,0.7-3,0.9
		c-1.1,0.2-2.2,0.3-3.3,0.3c-1.1,0-2.3-0.1-3.4-0.3c-1-0.2-2.1-0.5-3.1-0.8c-1-0.4-1.9-0.8-2.7-1.4c-1.7-1.1-3.2-2.6-4.4-4.4
		c-0.6-0.9-1-1.8-1.4-2.7c-0.4-1-0.7-2-0.9-3c-0.4-2.2-0.4-4.5,0-6.7c0.2-1,0.5-2.1,0.9-3c0.4-1,0.8-1.9,1.4-2.7
		c0.6-0.9,1.2-1.7,2-2.5c0.7-0.8,1.5-1.4,2.4-2c0.8-0.6,1.7-1.1,2.7-1.4c1-0.4,2-0.7,3-0.9C265.1,650.8,266.2,650.7,267.3,650.7
		L267.3,650.7z M267.3,657.9c-1,0-2,0.2-3,0.6c-0.9,0.4-1.6,1-2.2,1.8c-0.6,0.8-1.1,1.8-1.4,2.8c-0.3,1.1-0.5,2.3-0.5,3.7
		c0,1.3,0.1,2.5,0.5,3.8c0.3,1,0.8,2,1.4,2.9c0.6,0.8,1.4,1.4,2.3,1.8c0.9,0.4,1.9,0.6,3,0.6c1,0,2-0.2,3-0.6c0.9-0.4,1.6-1,2.2-1.8
		c0.6-0.9,1.1-1.8,1.4-2.8c0.3-1.1,0.5-2.4,0.5-3.8c0-1.2-0.1-2.5-0.5-3.7c-0.3-1-0.8-2-1.4-2.8c-0.6-0.8-1.4-1.4-2.3-1.8
		C269.4,658.1,268.4,657.9,267.3,657.9L267.3,657.9z M286.8,651.3h8.5v7.7c0,1.6,0.3,2.8,0.9,3.6c0.6,0.8,1.6,1.2,2.8,1.2
		c1.3,0,2.3-0.4,2.9-1.3c0.6-0.8,1-2.1,1-3.8v-7.4h8.4v5.4c0,1.3-0.1,2.5-0.2,3.6c-0.1,0.9-0.2,1.8-0.5,2.7
		c-0.3,0.9-0.6,1.7-1.1,2.5c-0.6,1-1.3,1.9-2,2.7c-0.4,0.5-0.9,0.9-1.5,1.3c-0.6,0.4-1.2,0.7-1.9,0.9c-0.8,0.3-1.6,0.4-2.4,0.5
		c-0.9,0.1-1.9,0.2-2.8,0.2c-0.9,0-1.8-0.1-2.7-0.2c-0.8-0.1-1.5-0.3-2.3-0.5c-0.7-0.2-1.3-0.5-1.9-0.9c-0.5-0.3-1-0.7-1.5-1.2
		c-0.8-0.8-1.5-1.7-2.1-2.6c-0.5-0.7-0.9-1.5-1.2-2.4c-0.3-0.9-0.4-1.8-0.5-2.7c-0.1-1.1-0.2-2.3-0.2-3.4L286.8,651.3z M306.1,674.9
		v7.4h-14.2v-7.4H306.1z M310.1,644.5h56.8v2.9h-56.8V644.5z M313.7,664.8H332v7.3h-18.3V664.8z M343.7,651.3v7.4h-8.5v-7.4H343.7z
		 M343.7,663.2v19.1h-8.5v-19.1H343.7z M368.2,651.3v7.4h-19.9v-7.4H368.2z M349.7,663.2h8.4v7.7c0,0.7,0,1.3,0.2,2
		c0.1,0.5,0.3,0.9,0.5,1.2c0.2,0.2,0.6,0.4,1.1,0.6c0.6,0.1,1.2,0.2,1.8,0.2h5.5v7.4h-7.9c-0.8,0-1.6-0.1-2.3-0.2
		c-0.7-0.1-1.4-0.3-2-0.5c-0.6-0.2-1.1-0.5-1.7-0.8c-0.5-0.3-0.9-0.7-1.3-1.1c-0.4-0.4-0.7-0.9-1-1.5c-0.3-0.6-0.5-1.2-0.7-1.9
		c-0.2-0.8-0.3-1.5-0.4-2.3c-0.1-0.9-0.1-1.8-0.1-2.7L349.7,663.2z"/>
	
		<rect x="208.9" y="491.8" transform="matrix(6.123234e-17 -1 1 6.123234e-17 -288.6927 716.3365)" class="st5" width="9.8" height="21.5"/>
	<rect x="349.4" y="375.5" class="st5" width="9.8" height="21.5"/>
	<g>
		<path class="st7" d="M316,318.2h-45.5c-1.4,0-2.5-1.1-2.5-2.5v-34.3c0-1.4,1.1-2.5,2.5-2.5H316c1.4,0,2.5,1.1,2.5,2.5v34.3
			C318.5,317.1,317.4,318.2,316,318.2z"/>
		<circle class="st18" cx="272.2" cy="310.2" r="2.7"/>
		<g>
			<path class="st8" d="M276.4,330.4v-12.2h-6.1v12.2c0,0.7,0.6,1.2,1.2,1.2h3.6C275.8,331.7,276.4,331.1,276.4,330.4z"/>
			<path class="st8" d="M289.7,330.4v-12.2h-6.1v12.2c0,0.7,0.6,1.2,1.2,1.2h3.6C289.1,331.7,289.7,331.1,289.7,330.4z"/>
			<path class="st8" d="M303,330.4v-12.2h-6.1v12.2c0,0.7,0.6,1.2,1.2,1.2h3.6C302.4,331.7,303,331.1,303,330.4z"/>
			<path class="st8" d="M316.3,330.4v-12.2h-6.1v12.2c0,0.7,0.6,1.2,1.2,1.2h3.6C315.7,331.7,316.3,331.1,316.3,330.4z"/>
		</g>
		<g>
			<path class="st8" d="M310.2,266.7v12.2h6.1v-12.2c0-0.7-0.6-1.2-1.2-1.2h-3.6C310.7,265.5,310.2,266,310.2,266.7z"/>
			<path class="st8" d="M296.9,266.7v12.2h6.1v-12.2c0-0.7-0.6-1.2-1.2-1.2h-3.6C297.4,265.5,296.9,266,296.9,266.7z"/>
			<path class="st8" d="M283.6,266.7l0,12.2h6.1l0-12.2c0-0.7-0.6-1.2-1.2-1.2h-3.6C284.2,265.5,283.6,266,283.6,266.7z"/>
			<path class="st8" d="M270.3,266.7v12.2h6.1v-12.2c0-0.7-0.6-1.2-1.2-1.2h-3.6C270.9,265.5,270.3,266,270.3,266.7z"/>
		</g>
	</g>
	<g>
		<g>
			<path class="st8" d="M232.4,306.7v-12.2h-9.6v12.2c0,0.7,0.6,1.2,1.2,1.2h7.1C231.8,308,232.4,307.4,232.4,306.7z"/>
			<path class="st8" d="M252,306.7v-12.2h-9.6v12.2c0,0.7,0.6,1.2,1.2,1.2h7.1C251.5,308,252,307.4,252,306.7z"/>
		</g>
		<g>
			<path class="st8" d="M223.9,266v12.2h6.1V266c0-0.7-0.6-1.2-1.2-1.2h-3.6C224.4,264.7,223.9,265.3,223.9,266z"/>
			<path class="st8" d="M234.4,266v12.2h6.1V266c0-0.7-0.6-1.2-1.2-1.2h-3.6C234.9,264.7,234.4,265.3,234.4,266z"/>
			<path class="st8" d="M244.9,266v12.2h6.1V266c0-0.7-0.6-1.2-1.2-1.2h-3.6C245.4,264.7,244.9,265.3,244.9,266z"/>
		</g>
		<path class="st7" d="M251.9,294.5h-29c-0.4,0-0.7-0.3-0.7-0.7v-14.8c0-0.4,0.3-0.7,0.7-0.7h29c0.4,0,0.7,0.3,0.7,0.7v14.8
			C252.6,294.2,252.3,294.5,251.9,294.5z"/>
	</g>
	
		<rect x="233.7" y="314.6" transform="matrix(6.123234e-17 -1 1 6.123234e-17 -86.7754 563.9301)" class="st5" width="9.8" height="21.5"/>
	<g>
		<rect x="365.5" y="255.8" class="st7" width="34.4" height="107"/>
		<g>
			<path class="st8" d="M348.6,264.2h16.9v-5.9h-16.9c-0.7,0-1.2,0.6-1.2,1.2v3.4C347.4,263.7,347.9,264.2,348.6,264.2z"/>
			<path class="st8" d="M348.6,278h16.9v-5.9h-16.9c-0.7,0-1.2,0.6-1.2,1.2v3.4C347.4,277.4,347.9,278,348.6,278z"/>
			<path class="st8" d="M348.6,291.7h16.9v-5.9h-16.9c-0.7,0-1.2,0.6-1.2,1.2v3.4C347.4,291.1,347.9,291.7,348.6,291.7z"/>
			<path class="st8" d="M348.6,305.4h16.9v-5.9h-16.9c-0.7,0-1.2,0.6-1.2,1.2v3.4C347.4,304.9,347.9,305.4,348.6,305.4z"/>
			<path class="st8" d="M348.6,319.1h16.9v-5.9h-16.9c-0.7,0-1.2,0.6-1.2,1.2v3.4C347.4,318.6,347.9,319.1,348.6,319.1z"/>
			<path class="st8" d="M348.6,332.9h16.9V327h-16.9c-0.7,0-1.2,0.6-1.2,1.2v3.4C347.4,332.3,347.9,332.9,348.6,332.9z"/>
			<path class="st8" d="M348.6,346.6h16.9v-5.9h-16.9c-0.7,0-1.2,0.6-1.2,1.2v3.4C347.4,346,347.9,346.6,348.6,346.6z"/>
			<path class="st8" d="M348.6,360.3h16.9v-5.9h-16.9c-0.7,0-1.2,0.6-1.2,1.2v3.4C347.4,359.8,347.9,360.3,348.6,360.3z"/>
		</g>
		<g>
			<path class="st8" d="M416.8,354.5h-16.9v5.9h16.9c0.7,0,1.2-0.6,1.2-1.2v-3.4C418,355,417.4,354.5,416.8,354.5z"/>
			<path class="st8" d="M416.8,340.7h-16.9v5.9h16.9c0.7,0,1.2-0.6,1.2-1.2V342C418,341.3,417.4,340.7,416.8,340.7z"/>
			<path class="st8" d="M416.8,327h-16.9v5.9h16.9c0.7,0,1.2-0.6,1.2-1.2v-3.4C418,327.6,417.4,327,416.8,327z"/>
			<path class="st8" d="M416.8,313.3h-16.9v5.9h16.9c0.7,0,1.2-0.6,1.2-1.2v-3.4C418,313.8,417.4,313.3,416.8,313.3z"/>
			<path class="st8" d="M416.8,299.6h-16.9v5.9h16.9c0.7,0,1.2-0.6,1.2-1.2v-3.4C418,300.1,417.4,299.6,416.8,299.6z"/>
			<path class="st8" d="M416.8,285.8h-16.9v5.9h16.9c0.7,0,1.2-0.6,1.2-1.2v-3.4C418,286.4,417.4,285.8,416.8,285.8z"/>
			<path class="st8" d="M416.8,272.1h-16.9v5.9h16.9c0.7,0,1.2-0.6,1.2-1.2v-3.4C418,272.7,417.4,272.1,416.8,272.1z"/>
			<path class="st8" d="M416.8,258.4h-16.9v5.9h16.9c0.7,0,1.2-0.6,1.2-1.2v-3.4C418,258.9,417.4,258.4,416.8,258.4z"/>
		</g>
		<circle class="st18" cx="391.8" cy="353" r="4.9"/>
	</g>
	
		<rect x="444.5" y="302.5" transform="matrix(-1.836970e-16 1 -1 -1.836970e-16 762.6963 -136.1419)" class="st5" width="9.8" height="21.5"/>
	<g>
		
			<rect x="444.1" y="321.8" transform="matrix(-1.836970e-16 1 -1 -1.836970e-16 779.8707 -118.9674)" class="st9" width="10.7" height="17.2"/>
		
			<rect x="444.2" y="324.5" transform="matrix(-1.836970e-16 1 -1 -1.836970e-16 780.0326 -119.1293)" class="st7" width="10.7" height="11.8"/>
	</g>
	<g>
		
			<rect x="444.1" y="339.4" transform="matrix(-1.836970e-16 1 -1 -1.836970e-16 797.4661 -101.3721)" class="st9" width="10.7" height="17.2"/>
		
			<rect x="444.2" y="342.1" transform="matrix(-1.836970e-16 1 -1 -1.836970e-16 797.6279 -101.534)" class="st7" width="10.7" height="11.8"/>
	</g>
	<g>
		<rect x="397.2" y="190.6" class="st9" width="10.7" height="17.2"/>
		<rect x="397.2" y="193.2" class="st7" width="10.7" height="11.8"/>
	</g>
	<g>
		<rect x="412.8" y="190.5" class="st9" width="10.7" height="17.2"/>
		<rect x="412.8" y="193" class="st7" width="10.7" height="11.8"/>
	</g>
	<path class="st8" d="M323.3,239.2V227h-11.5v12.2c0,0.7,0.6,1.2,1.2,1.2h9C322.7,240.4,323.3,239.9,323.3,239.2z"/>
	<g>
		<rect x="274.7" y="108.7" class="st19" width="51.5" height="35.1"/>
		<rect x="287.1" y="108.7" class="st20" width="26.7" height="35.1"/>
	</g>
	<g>
		<path class="st2" d="M370,74.6L370,74.6h87.6l0,0c2.7,1.4,4.4,4.2,4.4,7.3V152c0,1-0.8,1.8-1.8,1.8h-92.8c-1,0-1.8-0.8-1.8-1.8
			V81.9C365.6,78.8,367.3,76,370,74.6z"/>
		<g>
			<path class="st21" d="M444.8,147.9L444.8,147.9c0-1.3-1.1-2.4-2.4-2.4h-9.9c-0.8,0-1.5-0.7-1.5-1.5v-2.1c0-0.8,0.7-1.5,1.5-1.5
				h9.9c1.3,0,2.4-1.1,2.4-2.4v0c0-1.3-1.1-2.4-2.4-2.4h-14c-1.3,0-2.4,1.1-2.4,2.4v10c0,1.3,1.1,2.4,2.4,2.4h14
				C443.7,150.4,444.8,149.3,444.8,147.9z"/>
			<path class="st21" d="M382.9,137.9L382.9,137.9c0,1.3,1.1,2.4,2.4,2.4h9.9c0.8,0,1.5,0.7,1.5,1.5v2.1c0,0.8-0.7,1.5-1.5,1.5h-9.9
				c-1.3,0-2.4,1.1-2.4,2.4l0,0c0,1.3,1.1,2.4,2.4,2.4h14c1.3,0,2.4-1.1,2.4-2.4v-10c0-1.3-1.1-2.4-2.4-2.4h-14
				C384,135.5,382.9,136.6,382.9,137.9z"/>
		</g>
	</g>
	<g>
		<path class="st7" d="M266.5,192.5h-67.1c-0.7,0-1.2-0.5-1.2-1.2v-34.6c0-0.7,0.5-1.2,1.2-1.2h67.1c0.7,0,1.2,0.5,1.2,1.2v34.6
			C267.6,192,267.1,192.5,266.5,192.5z"/>
		<g>
			<path class="st8" d="M210.4,209.4v-16.9h-5.9v16.9c0,0.7,0.6,1.2,1.2,1.2h3.4C209.9,210.7,210.4,210.1,210.4,209.4z"/>
			<path class="st8" d="M235.8,209.4v-16.9h-5.9v16.9c0,0.7,0.6,1.2,1.2,1.2h3.4C235.3,210.7,235.8,210.1,235.8,209.4z"/>
			<path class="st8" d="M261.2,209.4v-16.9h-5.9v16.9c0,0.7,0.6,1.2,1.2,1.2h3.4C260.6,210.7,261.2,210.1,261.2,209.4z"/>
		</g>
		<path class="st8" d="M214.1,130v25.6h34.3V130c0-0.7-0.6-1.2-1.2-1.2h-31.8C214.7,128.7,214.1,129.3,214.1,130z"/>
	</g>
	<rect x="150.4" y="233.7" class="st7" width="48.4" height="27.1"/>
	<g>
		<rect x="16" y="276.9" class="st2" width="20" height="20"/>
		<circle class="st22" cx="26" cy="286.9" r="7.4"/>
		<rect x="16" y="305.5" class="st2" width="20" height="20"/>
		<circle class="st22" cx="26" cy="315.5" r="7.4"/>
		<rect x="16" y="334.2" class="st2" width="20" height="20"/>
		<circle class="st22" cx="26" cy="344.2" r="7.4"/>
		<rect x="16" y="362.9" class="st2" width="20" height="20"/>
		<circle class="st22" cx="26" cy="372.9" r="7.4"/>
	</g>
	<g>
		<rect x="9.3" y="389.3" class="st23" width="33.4" height="240.9"/>
		<rect x="16.2" y="391.9" width="19.6" height="19.6"/>
		<rect x="16.2" y="422.5" width="19.6" height="19.6"/>
		<rect x="16.2" y="453" width="19.6" height="19.6"/>
		<rect x="16.2" y="483.5" width="19.6" height="19.6"/>
		<rect x="16.2" y="514" width="19.6" height="19.6"/>
		<rect x="16.2" y="544.5" width="19.6" height="19.6"/>
		<rect x="16.2" y="575" width="19.6" height="19.6"/>
		<rect x="16.2" y="605.5" width="19.6" height="19.6"/>
	</g>
	<g>
		<rect x="9.3" y="635.8" class="st23" width="33.4" height="178.8"/>
		<g>
			<rect x="16.2" y="639.1" width="19.6" height="19.6"/>
			<rect x="16.2" y="669.6" width="19.6" height="19.6"/>
			<rect x="16.2" y="700.1" width="19.6" height="19.6"/>
			<rect x="16.2" y="730.6" width="19.6" height="19.6"/>
			<rect x="16.2" y="761.2" width="19.6" height="19.6"/>
			<rect x="16.2" y="791.7" width="19.6" height="19.6"/>
		</g>
	</g>
	<g>
		<path class="st15" d="M50.3,427.5h2.5v10.4h-2.5V427.5z"/>
		<path class="st15" d="M54.7,432.6c0-3.4,1.9-5.4,4.8-5.4s4.8,2,4.8,5.4s-1.9,5.4-4.8,5.4S54.7,436,54.7,432.6z M61.7,432.6
			c0-2-0.8-3.2-2.2-3.2c-1.4,0-2.2,1.2-2.2,3.2c0,2,0.9,3.3,2.2,3.3C60.9,435.9,61.7,434.6,61.7,432.6z"/>
		<path class="st15" d="M66.2,427.5H70c2.2,0,4.1,0.8,4.1,3.3c0,1.5-0.7,2.5-1.8,3l2.3,4.1h-2.8l-1.9-3.7h-1.2v3.7h-2.5V427.5z
			 M69.9,432.2c1.2,0,1.8-0.5,1.8-1.5s-0.6-1.3-1.8-1.3h-1.1v2.8H69.9z"/>
		<path class="st15" d="M76.1,427.5h6.6v2.1h-4.1v2h3.5v2.1h-3.5v2.2h4.3v2.1h-6.8V427.5z"/>
		<path class="st15" d="M84.9,427.5h6.7v2.1h-4.2v2.3H91v2.1h-3.6v4h-2.5V427.5z"/>
	</g>
	<g>
		<path class="st15" d="M51.6,458h3.8c2.2,0,4.1,0.8,4.1,3.3c0,1.5-0.7,2.5-1.8,3l2.3,4.1h-2.8l-1.9-3.7h-1.2v3.7h-2.5V458z
			 M55.2,462.7c1.2,0,1.8-0.5,1.8-1.5s-0.6-1.3-1.8-1.3h-1.1v2.8H55.2z"/>
		<path class="st15" d="M61.5,458H68v2.1h-4.1v2h3.5v2.1h-3.5v2.2h4.3v2.1h-6.8V458z"/>
		<path class="st15" d="M69.6,467.1l1.3-1.6c0.7,0.6,1.7,1,2.6,1c0.9,0,1.4-0.4,1.4-0.9c0-0.6-0.6-0.8-1.5-1.2l-1.3-0.6
			c-1.1-0.4-2.1-1.3-2.1-2.8c0-1.7,1.6-3.2,3.8-3.2c1.2,0,2.5,0.5,3.4,1.3l-1.3,1.6c-0.7-0.5-1.4-0.8-2.1-0.8
			c-0.8,0-1.3,0.3-1.3,0.8c0,0.6,0.7,0.8,1.6,1.2l1.3,0.5c1.3,0.5,2.1,1.4,2.1,2.8c0,1.7-1.5,3.3-4,3.3
			C72.1,468.6,70.7,468.1,69.6,467.1z"/>
		<path class="st15" d="M79.2,458h6.6v2.1h-4.1v2h3.5v2.1h-3.5v2.2h4.3v2.1h-6.8V458z"/>
		<path class="st15" d="M90,460h-2.8V458h8.1v2.1h-2.8v8.3H90V460z"/>
	</g>
	<g>
		<path class="st15" d="M51.9,497.6l1.1-1.6c0.6,0.6,1.4,1,2.2,1c1,0,1.6-0.4,1.6-1.2c0-0.9-0.5-1.4-2.7-1.4v-1.8
			c1.8,0,2.3-0.5,2.3-1.4c0-0.7-0.4-1.1-1.2-1.1c-0.7,0-1.2,0.3-1.9,0.9l-1.2-1.5c0.9-0.8,2-1.3,3.2-1.3c2.2,0,3.6,1,3.6,2.9
			c0,1.1-0.6,1.8-1.7,2.3v0.1c1.2,0.3,2,1.2,2,2.5c0,2-1.8,3-3.8,3C53.9,499.1,52.7,498.5,51.9,497.6z"/>
		<path class="st15" d="M61.1,497.5c0-0.9,0.6-1.5,1.5-1.5c0.8,0,1.5,0.7,1.5,1.5s-0.6,1.5-1.5,1.5
			C61.7,499.1,61.1,498.4,61.1,497.5z"/>
		<path class="st15" d="M65.4,497.6l1.1-1.6c0.6,0.6,1.4,1,2.2,1c1,0,1.6-0.4,1.6-1.2c0-0.9-0.5-1.4-2.7-1.4v-1.8
			c1.8,0,2.3-0.5,2.3-1.4c0-0.7-0.4-1.1-1.2-1.1c-0.7,0-1.2,0.3-1.9,0.9l-1.2-1.5c0.9-0.8,2-1.3,3.2-1.3c2.2,0,3.6,1,3.6,2.9
			c0,1.1-0.6,1.8-1.7,2.3v0.1c1.2,0.3,2,1.2,2,2.5c0,2-1.8,3-3.8,3C67.3,499.1,66.1,498.5,65.4,497.6z"/>
		<path class="st15" d="M73.4,488.5H76l1.1,4.8c0.3,1.1,0.5,2.2,0.8,3.3H78c0.3-1.1,0.5-2.2,0.8-3.3l1.2-4.8h2.5l-3.2,10.4h-3
			L73.4,488.5z"/>
	</g>
	<g>
		<path class="st15" d="M53.2,528.2l1.1-1.6c0.6,0.6,1.3,1,2.1,1c1,0,1.6-0.6,1.6-1.6s-0.6-1.6-1.5-1.6c-0.6,0-0.9,0.1-1.5,0.5
			l-1.1-0.7l0.3-5.2h5.8v2.1h-3.7l-0.1,1.8c0.4-0.1,0.7-0.2,1.1-0.2c1.8,0,3.2,1,3.2,3.3c0,2.4-1.8,3.7-3.8,3.7
			C55.1,529.6,54,529,53.2,528.2z"/>
		<path class="st15" d="M61.2,519h2.6l1.1,4.8c0.3,1.1,0.5,2.2,0.8,3.3h0.1c0.3-1.1,0.5-2.2,0.8-3.3l1.2-4.8h2.5l-3.2,10.4h-3
			L61.2,519z"/>
	</g>
	<g>
		<path class="st15" d="M54.8,554.8c0-3.5,2.3-5.5,5.1-5.5c1.5,0,2.6,0.6,3.3,1.4l-1.3,1.5c-0.5-0.5-1.1-0.7-1.9-0.7
			c-1.5,0-2.7,1.2-2.7,3.2c0,2.1,0.9,3.3,2.9,3.3c0.4,0,0.8-0.1,1-0.3V556h-1.7v-2h3.9v4.9c-0.7,0.7-2,1.3-3.5,1.3
			C57.1,560.1,54.8,558.3,54.8,554.8z"/>
		<path class="st15" d="M65.5,549.5h2.6l2.6,5c0.4,0.7,0.7,1.5,1,2.4h0.1c-0.1-1.1-0.3-2.6-0.3-3.8v-3.5h2.4v10.4h-2.6l-2.6-5
			c-0.4-0.7-0.7-1.5-1-2.4h-0.1c0.1,1.2,0.3,2.6,0.3,3.8v3.5h-2.4V549.5z"/>
		<path class="st15" d="M76.2,549.5h3c3.2,0,5.3,1.6,5.3,5.2c0,3.6-2.1,5.2-5.1,5.2h-3.1V549.5z M79,557.9c1.7,0,2.9-0.8,2.9-3.2
			c0-2.5-1.2-3.2-2.9-3.2h-0.4v6.4H79z"/>
	</g>
	<g>
		<path class="st15" d="M56,585.3c0-3.5,2.3-5.5,5.1-5.5c1.5,0,2.6,0.6,3.3,1.4l-1.3,1.5c-0.5-0.5-1.1-0.7-1.9-0.7
			c-1.5,0-2.7,1.2-2.7,3.2c0,2.1,0.9,3.3,2.9,3.3c0.4,0,0.8-0.1,1-0.3v-1.7h-1.7v-2h3.9v4.9c-0.7,0.7-2,1.3-3.5,1.3
			C58.3,590.6,56,588.8,56,585.3z"/>
		<path class="st15" d="M66.7,580h2.6l2.6,5c0.4,0.7,0.7,1.5,1,2.4H73c-0.1-1.1-0.3-2.6-0.3-3.8V580H75v10.4h-2.6l-2.6-5
			c-0.4-0.7-0.7-1.5-1-2.4h-0.1c0.1,1.2,0.3,2.6,0.3,3.8v3.5h-2.4V580z"/>
		<path class="st15" d="M77.4,580h3c3.2,0,5.3,1.6,5.3,5.2c0,3.6-2.1,5.2-5.1,5.2h-3.1V580z M80.3,588.4c1.7,0,2.9-0.8,2.9-3.2
			c0-2.5-1.2-3.2-2.9-3.2h-0.4v6.4H80.3z"/>
	</g>
	<g>
		<path class="st15" d="M56.4,610.5H59l1.1,4.8c0.3,1.1,0.5,2.2,0.8,3.3H61c0.3-1.1,0.5-2.2,0.8-3.3l1.2-4.8h2.5l-3.2,10.4h-3
			L56.4,610.5z"/>
		<path class="st15" d="M66.7,610.5h2.5v10.4h-2.5V610.5z"/>
		<path class="st15" d="M71.6,610.5h2.6l2.6,5c0.4,0.7,0.7,1.5,1,2.4h0.1c-0.1-1.1-0.3-2.6-0.3-3.8v-3.5h2.4v10.4h-2.6l-2.6-5
			c-0.4-0.7-0.7-1.5-1-2.4h-0.1c0.1,1.2,0.3,2.6,0.3,3.8v3.5h-2.4V610.5z"/>
	</g>
	<g>
		<path class="st15" d="M60.9,644.1h3l3.2,10.4h-2.6l-0.6-2.4h-3.1l-0.6,2.4h-2.5L60.9,644.1z M61.3,650.2h2.1l-0.2-0.9
			c-0.3-1-0.5-2.3-0.8-3.3h-0.1c-0.3,1.1-0.5,2.3-0.8,3.3L61.3,650.2z"/>
		<path class="st15" d="M67.5,649.3c0-3.6,1.5-5.4,3.7-5.4s3.7,1.8,3.7,5.4s-1.5,5.4-3.7,5.4S67.5,652.8,67.5,649.3z M72.6,649.3
			c0-2.8-0.6-3.5-1.3-3.5c-0.8,0-1.3,0.6-1.3,3.5c0,2.8,0.6,3.5,1.3,3.5C72,652.8,72.6,652.1,72.6,649.3z"/>
	</g>
	<g>
		<path class="st15" d="M62.1,674.6h3l3.2,10.4h-2.6l-0.6-2.4H62l-0.6,2.4h-2.5L62.1,674.6z M62.5,680.7h2.1l-0.2-0.9
			c-0.3-1-0.5-2.3-0.8-3.3h-0.1c-0.3,1.1-0.5,2.3-0.8,3.3L62.5,680.7z"/>
		<path class="st15" d="M69.3,683h2.2v-5.9h-1.9v-1.5c1.1-0.2,1.8-0.5,2.6-0.9H74v8.4h1.9v2h-6.6V683z"/>
	</g>
	<g>
		<path class="st15" d="M63.3,705.1h3l3.2,10.4h-2.6l-0.6-2.4h-3.1l-0.6,2.4h-2.5L63.3,705.1z M63.7,711.2h2.1l-0.2-0.9
			c-0.3-1-0.5-2.3-0.8-3.3h-0.1c-0.3,1.1-0.5,2.3-0.8,3.3L63.7,711.2z"/>
		<path class="st15" d="M70,714c2.7-2.3,4.4-4.2,4.4-5.6c0-1-0.5-1.5-1.4-1.5c-0.7,0-1.3,0.5-1.8,1l-1.3-1.3c1-1.1,1.9-1.7,3.4-1.7
			c2,0,3.4,1.3,3.4,3.3c0,1.9-1.7,3.8-3.3,5.4c0.5,0,1.2-0.1,1.7-0.1h2.1v2.1H70V714z"/>
	</g>
	<g>
		<path class="st15" d="M64.6,735.6h3l3.2,10.4h-2.6l-0.6-2.4h-3.1l-0.6,2.4h-2.5L64.6,735.6z M65,741.7h2.1l-0.2-0.9
			c-0.3-1-0.5-2.3-0.8-3.3H66c-0.3,1.1-0.5,2.3-0.8,3.3L65,741.7z"/>
		<path class="st15" d="M71,744.8l1.1-1.6c0.6,0.6,1.4,1,2.2,1c1,0,1.6-0.4,1.6-1.2c0-0.9-0.5-1.4-2.7-1.4v-1.8
			c1.8,0,2.3-0.5,2.3-1.4c0-0.7-0.4-1.1-1.2-1.1c-0.7,0-1.2,0.3-1.9,0.9l-1.2-1.5c0.9-0.8,2-1.3,3.2-1.3c2.2,0,3.6,1,3.6,2.9
			c0,1.1-0.6,1.8-1.7,2.3v0.1c1.2,0.3,2,1.2,2,2.5c0,2-1.8,3-3.8,3C72.9,746.2,71.8,745.7,71,744.8z"/>
	</g>
	<g>
		<path class="st15" d="M65.8,766.1h3l3.2,10.4h-2.6l-0.6-2.4h-3.1l-0.6,2.4h-2.5L65.8,766.1z M66.2,772.2h2.1l-0.2-0.9
			c-0.3-1-0.5-2.3-0.8-3.3h-0.1c-0.3,1.1-0.5,2.3-0.8,3.3L66.2,772.2z"/>
		<path class="st15" d="M76.6,774h-4.4v-1.7l3.6-6.1h3.1v5.9h1.2v1.9h-1.2v2.6h-2.3V774z M76.6,772.1v-1.5c0-0.7,0-1.6,0.1-2.3h-0.1
			c-0.3,0.6-0.5,1.2-0.8,1.8l-1.2,2.1H76.6z"/>
		<path class="st15" d="M83.7,765.2h1.6l-3.1,13.9h-1.6L83.7,765.2z"/>
		<path class="st15" d="M86.4,775.2l1.3-1.6c0.7,0.6,1.7,1,2.6,1c0.9,0,1.4-0.4,1.4-0.9c0-0.6-0.6-0.8-1.5-1.2l-1.3-0.6
			c-1.1-0.4-2.1-1.3-2.1-2.8c0-1.7,1.6-3.2,3.8-3.2c1.2,0,2.5,0.5,3.4,1.3l-1.3,1.6c-0.7-0.5-1.4-0.8-2.1-0.8
			c-0.8,0-1.3,0.3-1.3,0.8c0,0.6,0.7,0.8,1.6,1.2l1.3,0.5c1.3,0.5,2.1,1.4,2.1,2.8c0,1.7-1.5,3.3-4,3.3
			C88.8,776.8,87.4,776.3,86.4,775.2z"/>
		<path class="st15" d="M95.9,766.1h3c3.2,0,5.3,1.6,5.3,5.2c0,3.6-2.1,5.2-5.1,5.2h-3.1V766.1z M98.8,774.6c1.7,0,2.9-0.8,2.9-3.2
			c0-2.5-1.2-3.2-2.9-3.2h-0.4v6.4H98.8z"/>
		<path class="st15" d="M107.9,766.1h3l3.2,10.4h-2.6l-0.6-2.4h-3.1l-0.6,2.4h-2.5L107.9,766.1z M108.3,772.2h2.1l-0.2-0.9
			c-0.3-1-0.5-2.3-0.8-3.3h-0.1c-0.3,1.1-0.5,2.3-0.8,3.3L108.3,772.2z"/>
	</g>
	<g>
		<path class="st15" d="M67,793.6h3l3.2,10.4h-2.6l-0.6-2.4h-3.1l-0.6,2.4h-2.5L67,793.6z M67.4,799.7h2.1l-0.2-0.9
			c-0.3-1-0.5-2.3-0.8-3.3h-0.1c-0.3,1.1-0.5,2.3-0.8,3.3L67.4,799.7z"/>
		<path class="st15" d="M73.5,802.8l1.1-1.6c0.6,0.6,1.3,1,2.1,1c1,0,1.6-0.6,1.6-1.6s-0.6-1.6-1.5-1.6c-0.6,0-0.9,0.1-1.5,0.5
			l-1.1-0.7l0.3-5.2h5.8v2.1h-3.7l-0.1,1.8c0.4-0.1,0.7-0.2,1.1-0.2c1.8,0,3.2,1,3.2,3.3c0,2.4-1.8,3.7-3.8,3.7
			C75.5,804.2,74.3,803.6,73.5,802.8z"/>
		<path class="st15" d="M85,792.6h1.6l-3.1,13.9h-1.6L85,792.6z"/>
		<path class="st15" d="M87.6,802.7l1.3-1.6c0.7,0.6,1.7,1,2.6,1c0.9,0,1.4-0.4,1.4-0.9c0-0.6-0.6-0.8-1.5-1.2l-1.3-0.6
			c-1.1-0.4-2.1-1.3-2.1-2.8c0-1.7,1.6-3.2,3.8-3.2c1.2,0,2.5,0.5,3.4,1.3l-1.3,1.6c-0.7-0.5-1.4-0.8-2.1-0.8
			c-0.8,0-1.3,0.3-1.3,0.8c0,0.6,0.7,0.8,1.6,1.2l1.3,0.5c1.3,0.5,2.1,1.4,2.1,2.8c0,1.7-1.5,3.3-4,3.3
			C90.1,804.2,88.7,803.7,87.6,802.7z"/>
		<path class="st15" d="M96.7,798.9c0-3.5,2.3-5.5,5-5.5c1.4,0,2.4,0.6,3.2,1.4l-1.3,1.5c-0.5-0.5-1.1-0.7-1.8-0.7
			c-1.4,0-2.5,1.2-2.5,3.2c0,2.1,1,3.3,2.4,3.3c0.8,0,1.5-0.3,2-0.9l1.3,1.5c-0.9,1-2.1,1.5-3.4,1.5
			C98.9,804.2,96.7,802.4,96.7,798.9z"/>
		<path class="st15" d="M106.5,793.6h2.5v8.3h4v2.1h-6.5V793.6z"/>
	</g>
	<g>
		<path class="st15" d="M119.5,486.7v3.7c0,2.3-0.8,4.2-3.4,4.2c-2.5,0-3.6-1.9-3.6-4.1v-1.2h-3.5v-2.5H119.5z M114.5,490.3
			c0,1.2,0.6,1.8,1.6,1.8c1,0,1.4-0.7,1.4-1.9v-1h-3V490.3z"/>
		<path class="st15" d="M114.3,495.8c3.4,0,5.4,1.9,5.4,4.8s-2,4.8-5.4,4.8s-5.4-1.9-5.4-4.8S110.9,495.8,114.3,495.8z M114.3,502.8
			c2,0,3.2-0.8,3.2-2.2c0-1.4-1.2-2.2-3.2-2.2c-2,0-3.3,0.9-3.3,2.2C111,502,112.3,502.8,114.3,502.8z"/>
		<path class="st15" d="M119.5,506.3v2.5l-4.8,0.7c-1.1,0.1-2.2,0.3-3.3,0.4v0.1c1.1,0.2,2.2,0.4,3.3,0.6l4.8,1.1v2.1l-4.8,1.1
			c-1.1,0.2-2.2,0.4-3.3,0.6v0.1c1.2,0.1,2.3,0.3,3.3,0.4l4.8,0.7v2.4l-10.4-1.8V514l4.6-0.9c0.8-0.2,1.6-0.3,2.5-0.4v-0.1
			c-0.8-0.1-1.6-0.2-2.5-0.4l-4.6-0.9v-3.1L119.5,506.3z"/>
		<path class="st15" d="M119.5,520.4v6.6h-2.1v-4.1h-2v3.5h-2.1v-3.5h-2.2v4.3h-2.1v-6.8H119.5z"/>
		<path class="st15" d="M119.5,529.2v3.8c0,2.2-0.8,4.1-3.3,4.1c-1.5,0-2.5-0.7-3-1.8l-4.1,2.3v-2.8l3.7-1.9v-1.2h-3.7v-2.5H119.5z
			 M114.7,532.8c0,1.2,0.5,1.8,1.5,1.8s1.3-0.6,1.3-1.8v-1.1h-2.8V532.8z"/>
	</g>
	<g>
		<path class="st15" d="M119.5,689.1v3l-10.4,3.2v-2.6l2.4-0.6V689l-2.4-0.6v-2.5L119.5,689.1z M113.4,689.5v2.1l0.9-0.2
			c1-0.3,2.3-0.5,3.3-0.8v-0.1c-1.1-0.3-2.3-0.5-3.3-0.8L113.4,689.5z"/>
		<path class="st15" d="M119.5,696.4v2.6l-5,2.6c-0.7,0.4-1.5,0.7-2.4,1v0.1c1.1-0.1,2.6-0.3,3.8-0.3h3.5v2.4h-10.4v-2.6l5-2.6
			c0.7-0.4,1.5-0.7,2.4-1v-0.1c-1.2,0.1-2.6,0.3-3.8,0.3h-3.5v-2.4H119.5z"/>
		<path class="st15" d="M119.5,709v3l-10.4,3.2v-2.6l2.4-0.6v-3.1l-2.4-0.6v-2.5L119.5,709z M113.4,709.4v2.1l0.9-0.2
			c1-0.3,2.3-0.5,3.3-0.8v-0.1c-1.1-0.3-2.3-0.5-3.3-0.8L113.4,709.4z"/>
		<path class="st15" d="M119.5,716.3v2.5h-8.3v4h-2.1v-6.5H119.5z"/>
		<path class="st15" d="M114.3,723.5c3.4,0,5.4,1.9,5.4,4.8s-2,4.8-5.4,4.8s-5.4-1.9-5.4-4.8S110.9,723.5,114.3,723.5z M114.3,730.5
			c2,0,3.2-0.8,3.2-2.2c0-1.4-1.2-2.2-3.2-2.2c-2,0-3.3,0.9-3.3,2.2C111,729.7,112.3,730.5,114.3,730.5z"/>
		<path class="st15" d="M114.2,734.5c3.5,0,5.5,2.3,5.5,5.1c0,1.5-0.6,2.6-1.4,3.3l-1.5-1.3c0.5-0.5,0.7-1.1,0.7-1.9
			c0-1.5-1.2-2.7-3.2-2.7c-2.1,0-3.3,0.9-3.3,2.9c0,0.4,0.1,0.8,0.3,1h1.7v-1.7h2v3.9h-4.9c-0.7-0.7-1.3-2-1.3-3.5
			C108.9,736.8,110.7,734.5,114.2,734.5z"/>
		<path class="st15" d="M119.5,748.5v2.5h-10.4v-2.5H119.5z"/>
		<path class="st15" d="M119.5,753.4v2.6l-5,2.6c-0.7,0.4-1.5,0.7-2.4,1v0.1c1.1-0.1,2.6-0.3,3.8-0.3h3.5v2.4h-10.4V759l5-2.6
			c0.7-0.4,1.5-0.7,2.4-1v-0.1c-1.2,0.1-2.6,0.3-3.8,0.3h-3.5v-2.4H119.5z"/>
	</g>
	<path class="st24" d="M126,804.3L126,804.3c-1.3,0-2.3-1-2.3-2.3V646.7c0-1.3,1-2.3,2.3-2.3h0c1.3,0,2.3,1,2.3,2.3v155.3
		C128.3,803.3,127.3,804.3,126,804.3z"/>
	<path class="st24" d="M126,605.5L126,605.5c-1.3,0-2.3-1-2.3-2.3V420.1c0-1.3,1-2.3,2.3-2.3h0c1.3,0,2.3,1,2.3,2.3v183.2
		C128.3,604.5,127.3,605.5,126,605.5z"/>
	<g>
		<g>
			<polygon class="st25" points="292.3,794.4 288.7,794.4 288.6,794.4 285,794.4 276.5,802.9 276.5,835.9 285,844.4 288.6,844.4 
				288.7,844.4 292.3,844.4 300.8,835.9 300.8,802.9 			"/>
			<g>
				<g>
					<rect x="285.5" y="804" class="st26" width="6.2" height="6.2"/>
					<rect x="285.5" y="828.6" class="st26" width="6.2" height="6.2"/>
				</g>
			</g>
		</g>
		<g>
			<polygon class="st25" points="316.5,794.4 312.9,794.4 312.8,794.4 309.2,794.4 300.8,802.9 300.8,835.9 309.2,844.4 
				312.8,844.4 312.9,844.4 316.5,844.4 325,835.9 325,802.9 			"/>
			<g>
				<g>
					<rect x="309.8" y="804" class="st26" width="6.2" height="6.2"/>
					<rect x="309.8" y="828.6" class="st26" width="6.2" height="6.2"/>
				</g>
			</g>
		</g>
		<g>
			<polygon class="st25" points="340.7,794.4 337.1,794.4 337.1,794.4 333.4,794.4 325,802.9 325,835.9 333.4,844.4 337.1,844.4 
				337.1,844.4 340.7,844.4 349.2,835.9 349.2,802.9 			"/>
			<g>
				<g>
					<rect x="334" y="804" class="st26" width="6.2" height="6.2"/>
					<rect x="334" y="828.6" class="st26" width="6.2" height="6.2"/>
				</g>
			</g>
		</g>
	</g>
	<path class="st24" d="M270.5,782.9c-1.3,0-2.3,1-2.3,2.3v2.3v56.2c0,1.3,1,2.3,2.3,2.3l0,0c1.3,0,2.3-1,2.3-2.3v-53.9
		c0-1.3,1-2.3,2.3-2.3h75.6c1.3,0,2.3,1,2.3,2.3v53.9c0,1.3,1,2.3,2.3,2.3h0c1.3,0,2.3-1,2.3-2.3v-56.2v-2.3c0-1.3-1-2.3-2.3-2.3
		H270.5z"/>
	<path class="st24" d="M467.4,803L467.4,803c-1.3,0-2.3-1-2.3-2.3V410.5c0-1.3,1-2.3,2.3-2.3l0,0c1.3,0,2.3,1,2.3,2.3v390.2
		C469.6,802,468.6,803,467.4,803z"/>
	<g>
		<path class="st15" d="M486.5,549.9v3c0,3.2-1.6,5.3-5.2,5.3c-3.6,0-5.2-2.1-5.2-5.1v-3.1H486.5z M478.1,552.7
			c0,1.7,0.8,2.9,3.2,2.9c2.5,0,3.2-1.2,3.2-2.9v-0.4h-6.4V552.7z"/>
		<path class="st15" d="M486.5,560.1v2.5h-10.4v-2.5H486.5z"/>
		<path class="st15" d="M481.2,564.5c3.5,0,5.5,2.3,5.5,5.1c0,1.5-0.6,2.6-1.4,3.3l-1.5-1.3c0.5-0.5,0.7-1.1,0.7-1.9
			c0-1.5-1.2-2.7-3.2-2.7c-2.1,0-3.3,0.9-3.3,2.9c0,0.4,0.1,0.8,0.3,1h1.7v-1.7h2v3.9h-4.9c-0.7-0.7-1.3-2-1.3-3.5
			C475.9,566.8,477.7,564.5,481.2,564.5z"/>
		<path class="st15" d="M486.5,575.2v2.5h-10.4v-2.5H486.5z"/>
		<path class="st15" d="M484.5,582.1v-2.8h2.1v8.1h-2.1v-2.8h-8.3v-2.5H484.5z"/>
		<path class="st15" d="M486.5,590.3v3l-10.4,3.2v-2.6l2.4-0.6v-3.1l-2.4-0.6v-2.5L486.5,590.3z M480.4,590.7v2.1l0.9-0.2
			c1-0.3,2.3-0.5,3.3-0.8v-0.1c-1.1-0.3-2.3-0.5-3.3-0.8L480.4,590.7z"/>
		<path class="st15" d="M486.5,597.6v2.5h-8.3v4h-2.1v-6.5H486.5z"/>
		<path class="st15" d="M480.6,609.1c2.8,0,5.1,0.8,7.3,2.1l-0.6,1.6c-2.1-1.2-4.4-1.7-6.7-1.7s-4.6,0.5-6.7,1.7l-0.6-1.6
			C475.4,609.9,477.7,609.1,480.6,609.1z"/>
		<path class="st15" d="M486.5,614.8v3.7c0,2.3-0.8,4.2-3.4,4.2c-2.5,0-3.6-1.9-3.6-4.1v-1.2h-3.5v-2.5H486.5z M481.5,618.3
			c0,1.2,0.6,1.8,1.6,1.8c1,0,1.4-0.7,1.4-1.9v-1h-3V618.3z"/>
		<path class="st15" d="M486.5,623.4v2.5l-4.8,0.7c-1.1,0.1-2.2,0.3-3.3,0.4v0.1c1.1,0.2,2.2,0.4,3.3,0.6l4.8,1.1v2.1l-4.8,1.1
			c-1.1,0.2-2.2,0.4-3.3,0.6v0.1c1.2,0.1,2.3,0.3,3.3,0.4l4.8,0.7v2.4l-10.4-1.8V631l4.6-0.9c0.8-0.2,1.6-0.3,2.5-0.4v-0.1
			c-0.8-0.1-1.6-0.2-2.5-0.4l-4.6-0.9v-3.1L486.5,623.4z"/>
		<path class="st15" d="M486.5,637.4v2.7l-4.5,1.6c-0.6,0.2-1.2,0.4-1.9,0.6v0.1c0.7,0.2,1.3,0.4,1.9,0.6l4.5,1.6v2.7h-10.4V645h3.6
			c1,0,2.8,0.2,3.8,0.3v-0.1l-2.7-0.9L477,643v-1.4l3.8-1.4l2.7-0.8v-0.1c-1,0.1-2.8,0.3-3.8,0.3h-3.6v-2.2H486.5z"/>
		<path class="st15" d="M481.1,651.3c0-0.4-0.4-0.8-0.9-1.1l1-1.3c1.2,0.8,1.7,1.6,1.7,2.4c0,1.3-1.2,1.9-1.2,2.8
			c0,0.4,0.4,0.8,0.9,1.1l-1,1.3c-1.2-0.8-1.7-1.6-1.7-2.4C479.9,652.8,481.1,652.2,481.1,651.3z"/>
		<path class="st15" d="M473.9,657.8c2.1,1.2,4.4,1.7,6.7,1.7s4.6-0.5,6.7-1.7l0.6,1.6c-2.2,1.3-4.5,2.1-7.3,2.1
			c-2.8,0-5.1-0.8-7.3-2.1L473.9,657.8z"/>
	</g>
	<g>
		<rect x="559" y="578.3" class="st23" width="33.4" height="240.9"/>
		<rect x="565.9" y="581" width="19.6" height="19.6"/>
		<rect x="565.9" y="611.5" width="19.6" height="19.6"/>
		<rect x="565.9" y="642" width="19.6" height="19.6"/>
		<rect x="565.9" y="672.5" width="19.6" height="19.6"/>
		<rect x="565.9" y="703" width="19.6" height="19.6"/>
		<rect x="565.9" y="733.5" width="19.6" height="19.6"/>
		<rect x="565.9" y="764" width="19.6" height="19.6"/>
		<rect x="565.9" y="794.5" width="19.6" height="19.6"/>
	</g>
	<g>
		<rect x="559" y="275" class="st23" width="33.4" height="301.1"/>
		<rect x="565.9" y="339.7" width="19.6" height="19.6"/>
		<rect x="565.9" y="370.2" width="19.6" height="19.6"/>
		<rect x="565.9" y="400.7" width="19.6" height="19.6"/>
		<rect x="565.9" y="431.2" width="19.6" height="19.6"/>
		<rect x="565.9" y="461.7" width="19.6" height="19.6"/>
		<rect x="565.9" y="492.3" width="19.6" height="19.6"/>
		<rect x="565.9" y="522.8" width="19.6" height="19.6"/>
		<rect x="565.9" y="553.3" width="19.6" height="19.6"/>
		<rect x="565.9" y="309.2" width="19.6" height="19.6"/>
		<rect x="565.9" y="278.9" width="19.6" height="19.6"/>
	</g>
	<g>
		<g>
			<path class="st15" d="M508.8,283.9h3l3.2,10.4h-2.6l-0.6-2.4h-3.1l-0.6,2.4h-2.5L508.8,283.9z M509.2,290h2.1l-0.2-0.9
				c-0.3-1-0.5-2.3-0.8-3.3h-0.1c-0.3,1.1-0.5,2.3-0.8,3.3L509.2,290z"/>
			<path class="st15" d="M515.2,293.1l1.1-1.6c0.6,0.6,1.3,1,2.1,1c1,0,1.6-0.6,1.6-1.6s-0.6-1.6-1.5-1.6c-0.6,0-0.9,0.1-1.5,0.5
				l-1.1-0.7l0.3-5.2h5.8v2.1h-3.7l-0.1,1.8c0.4-0.1,0.7-0.2,1.1-0.2c1.8,0,3.2,1,3.2,3.3c0,2.4-1.8,3.7-3.8,3.7
				C517.2,294.5,516,293.9,515.2,293.1z"/>
			<path class="st15" d="M526.7,283h1.6l-3.1,13.9h-1.6L526.7,283z"/>
			<path class="st15" d="M529.3,293l1.3-1.6c0.7,0.6,1.7,1,2.6,1c0.9,0,1.4-0.4,1.4-0.9c0-0.6-0.6-0.8-1.5-1.2l-1.3-0.6
				c-1.1-0.4-2.1-1.3-2.1-2.8c0-1.7,1.6-3.2,3.8-3.2c1.2,0,2.5,0.5,3.4,1.3l-1.3,1.6c-0.7-0.5-1.4-0.8-2.1-0.8
				c-0.8,0-1.3,0.3-1.3,0.8c0,0.6,0.7,0.8,1.6,1.2l1.3,0.5c1.3,0.5,2.1,1.4,2.1,2.8c0,1.7-1.5,3.3-4,3.3
				C531.8,294.5,530.4,294.1,529.3,293z"/>
			<path class="st15" d="M538.4,289.2c0-3.5,2.3-5.5,5-5.5c1.4,0,2.4,0.6,3.2,1.4l-1.3,1.5c-0.5-0.5-1.1-0.7-1.8-0.7
				c-1.4,0-2.5,1.2-2.5,3.2c0,2.1,1,3.3,2.4,3.3c0.8,0,1.5-0.3,2-0.9l1.3,1.5c-0.9,1-2.1,1.5-3.4,1.5
				C540.7,294.5,538.4,292.7,538.4,289.2z"/>
			<path class="st15" d="M548.2,283.9h2.5v8.3h4v2.1h-6.5V283.9z"/>
		</g>
		<g>
			<path class="st15" d="M506.6,314.2h3l3.2,10.4h-2.6l-0.6-2.4h-3.1l-0.6,2.4h-2.5L506.6,314.2z M507,320.3h2.1l-0.2-0.9
				c-0.3-1-0.5-2.3-0.8-3.3H508c-0.3,1.1-0.5,2.3-0.8,3.3L507,320.3z"/>
			<path class="st15" d="M517.4,322h-4.4v-1.7l3.6-6.1h3.1v5.9h1.2v1.9h-1.2v2.6h-2.3V322z M517.4,320.1v-1.5c0-0.7,0-1.6,0.1-2.3
				h-0.1c-0.3,0.6-0.5,1.2-0.8,1.8l-1.2,2.1H517.4z"/>
			<path class="st15" d="M524.6,313.2h1.6l-3.1,13.9h-1.6L524.6,313.2z"/>
			<path class="st15" d="M527.2,323.3l1.3-1.6c0.7,0.6,1.7,1,2.6,1c0.9,0,1.4-0.4,1.4-0.9c0-0.6-0.6-0.8-1.5-1.2l-1.3-0.6
				c-1.1-0.4-2.1-1.3-2.1-2.8c0-1.7,1.6-3.2,3.8-3.2c1.2,0,2.5,0.5,3.4,1.3l-1.3,1.6c-0.7-0.5-1.4-0.8-2.1-0.8
				c-0.8,0-1.3,0.3-1.3,0.8c0,0.6,0.7,0.8,1.6,1.2l1.3,0.5c1.3,0.5,2.1,1.4,2.1,2.8c0,1.7-1.5,3.3-4,3.3
				C529.7,324.8,528.3,324.3,527.2,323.3z"/>
			<path class="st15" d="M536.8,314.2h3c3.2,0,5.3,1.6,5.3,5.2c0,3.6-2.1,5.2-5.1,5.2h-3.1V314.2z M539.6,322.6
				c1.7,0,2.9-0.8,2.9-3.2c0-2.5-1.2-3.2-2.9-3.2h-0.4v6.4H539.6z"/>
			<path class="st15" d="M548.7,314.2h3l3.2,10.4h-2.6l-0.6-2.4h-3.1l-0.6,2.4h-2.5L548.7,314.2z M549.1,320.3h2.1l-0.2-0.9
				c-0.3-1-0.5-2.3-0.8-3.3h-0.1c-0.3,1.1-0.5,2.3-0.8,3.3L549.1,320.3z"/>
		</g>
		<g>
			<path class="st15" d="M521,344.7h3l3.2,10.4h-2.6l-0.6-2.4h-3.1l-0.6,2.4h-2.5L521,344.7z M521.4,350.8h2.1l-0.2-0.9
				c-0.3-1-0.5-2.3-0.8-3.3h-0.1c-0.3,1.1-0.5,2.3-0.8,3.3L521.4,350.8z"/>
			<path class="st15" d="M528.3,344.7h3.8c2.2,0,4.1,0.8,4.1,3.3c0,1.5-0.7,2.5-1.8,3l2.3,4.1h-2.8l-1.9-3.7h-1.2v3.7h-2.5V344.7z
				 M531.9,349.5c1.2,0,1.8-0.5,1.8-1.5s-0.6-1.3-1.8-1.3h-1.1v2.8H531.9z"/>
			<path class="st15" d="M538.2,344.7h6.6v2.1h-4.1v2h3.5v2.1h-3.5v2.2h4.3v2.1h-6.8V344.7z"/>
			<path class="st15" d="M547,344.7h6.7v2.1h-4.2v2.3h3.6v2.1h-3.6v4H547V344.7z"/>
		</g>
		<g>
			<path class="st15" d="M523.3,380.5c0-3.5,2.3-5.5,5.1-5.5c1.5,0,2.6,0.6,3.3,1.4l-1.3,1.5c-0.5-0.5-1.1-0.7-1.9-0.7
				c-1.5,0-2.7,1.2-2.7,3.2c0,2.1,0.9,3.3,2.9,3.3c0.4,0,0.8-0.1,1-0.3v-1.7H528v-2h3.9v4.9c-0.7,0.7-2,1.3-3.5,1.3
				C525.6,385.8,523.3,384,523.3,380.5z"/>
			<path class="st15" d="M534,375.2h2.6l2.6,5c0.4,0.7,0.7,1.5,1,2.4h0.1c-0.1-1.1-0.3-2.6-0.3-3.8v-3.5h2.4v10.4h-2.6l-2.6-5
				c-0.4-0.7-0.7-1.5-1-2.4H536c0.1,1.2,0.3,2.6,0.3,3.8v3.5H534V375.2z"/>
			<path class="st15" d="M544.7,375.2h3c3.2,0,5.3,1.6,5.3,5.2c0,3.6-2.1,5.2-5.1,5.2h-3.1V375.2z M547.5,383.6
				c1.7,0,2.9-0.8,2.9-3.2c0-2.5-1.2-3.2-2.9-3.2h-0.4v6.4H547.5z"/>
		</g>
		<g>
			<path class="st15" d="M495.2,414.1h2.2v-5.9h-1.9v-1.5c1.1-0.2,1.8-0.5,2.6-0.9h1.8v8.4h1.9v2h-6.6V414.1z"/>
			<path class="st15" d="M503,414.9l1.1-1.6c0.6,0.6,1.4,1,2.2,1c1,0,1.6-0.4,1.6-1.2c0-0.9-0.5-1.4-2.7-1.4v-1.8
				c1.8,0,2.3-0.5,2.3-1.4c0-0.7-0.4-1.1-1.2-1.1c-0.7,0-1.2,0.3-1.9,0.9l-1.2-1.5c0.9-0.8,2-1.3,3.2-1.3c2.2,0,3.6,1,3.6,2.9
				c0,1.1-0.6,1.8-1.7,2.3v0.1c1.2,0.3,2,1.2,2,2.5c0,2-1.8,3-3.8,3C504.9,416.3,503.8,415.8,503,414.9z"/>
			<path class="st15" d="M514.5,404.8h1.6l-3.1,13.9h-1.6L514.5,404.8z"/>
			<path class="st15" d="M517.1,414.8l1.3-1.6c0.7,0.6,1.7,1,2.6,1c0.9,0,1.4-0.4,1.4-0.9c0-0.6-0.6-0.8-1.5-1.2l-1.3-0.6
				c-1.1-0.4-2.1-1.3-2.1-2.8c0-1.7,1.6-3.2,3.8-3.2c1.2,0,2.5,0.5,3.4,1.3l-1.3,1.6c-0.7-0.5-1.4-0.8-2.1-0.8
				c-0.8,0-1.3,0.3-1.3,0.8c0,0.6,0.7,0.8,1.6,1.2l1.3,0.5c1.3,0.5,2.1,1.4,2.1,2.8c0,1.7-1.5,3.3-4,3.3
				C519.6,416.3,518.2,415.8,517.1,414.8z"/>
			<path class="st15" d="M526.2,411c0-3.5,2.3-5.5,5-5.5c1.4,0,2.4,0.6,3.2,1.4l-1.3,1.5c-0.5-0.5-1.1-0.7-1.8-0.7
				c-1.4,0-2.5,1.2-2.5,3.2c0,2.1,1,3.3,2.4,3.3c0.8,0,1.5-0.3,2-0.9l1.3,1.5c-0.9,1-2.1,1.5-3.4,1.5
				C528.5,416.3,526.2,414.5,526.2,411z"/>
			<path class="st15" d="M536,405.7h2.5v8.3h4v2.1H536V405.7z"/>
			<path class="st15" d="M544.4,405.7h2.5v4.1h0l3-4.1h2.7l-3.1,4.2l3.7,6.2h-2.7l-2.5-4.3l-1.1,1.5v2.7h-2.5V405.7z"/>
		</g>
		<g>
			<path class="st15" d="M494.1,444.6h2.2v-5.9h-1.9v-1.5c1.1-0.2,1.8-0.5,2.6-0.9h1.8v8.4h1.9v2h-6.6V444.6z"/>
			<path class="st15" d="M502.1,445.1c2.7-2.3,4.4-4.2,4.4-5.6c0-1-0.5-1.5-1.4-1.5c-0.7,0-1.3,0.5-1.8,1l-1.3-1.3
				c1-1.1,1.9-1.7,3.4-1.7c2,0,3.4,1.3,3.4,3.3c0,1.9-1.7,3.8-3.3,5.4c0.5,0,1.2-0.1,1.7-0.1h2.1v2.1h-7.2V445.1z"/>
			<path class="st15" d="M513.4,435.3h1.6l-3.1,13.9h-1.6L513.4,435.3z"/>
			<path class="st15" d="M516.6,436.2h2.7l1.6,4.5c0.2,0.6,0.4,1.2,0.6,1.9h0.1c0.2-0.7,0.4-1.3,0.6-1.9l1.6-4.5h2.7v10.4h-2.3V443
				c0-1,0.2-2.8,0.3-3.8h-0.1l-0.9,2.7l-1.4,3.8h-1.4l-1.4-3.8l-0.8-2.7h-0.1c0.1,1,0.3,2.8,0.3,3.8v3.6h-2.2V436.2z"/>
			<path class="st15" d="M528.9,436.2h2.5v10.4h-2.5V436.2z"/>
			<path class="st15" d="M533.1,445.3l1.3-1.6c0.7,0.6,1.7,1,2.6,1c0.9,0,1.4-0.4,1.4-0.9c0-0.6-0.6-0.8-1.5-1.2l-1.3-0.6
				c-1.1-0.4-2.1-1.3-2.1-2.8c0-1.7,1.6-3.2,3.8-3.2c1.2,0,2.5,0.5,3.4,1.3l-1.3,1.6c-0.7-0.5-1.4-0.8-2.1-0.8
				c-0.8,0-1.3,0.3-1.3,0.8c0,0.6,0.7,0.8,1.6,1.2l1.3,0.5c1.3,0.5,2.1,1.4,2.1,2.8c0,1.7-1.5,3.3-4,3.3
				C535.6,446.8,534.2,446.4,533.1,445.3z"/>
			<path class="st15" d="M542.2,441.4c0-3.4,1.9-5.4,4.8-5.4s4.8,2,4.8,5.4s-1.9,5.4-4.8,5.4S542.2,444.8,542.2,441.4z M549.2,441.4
				c0-2-0.8-3.2-2.2-3.2c-1.4,0-2.2,1.2-2.2,3.2c0,2,0.9,3.3,2.2,3.3C548.4,444.7,549.2,443.4,549.2,441.4z"/>
		</g>
		<g>
			<path class="st15" d="M486.8,472.1c-0.4,0-0.8,0.4-1.1,0.9l-1.3-1c0.8-1.2,1.6-1.7,2.4-1.7c1.3,0,1.9,1.2,2.8,1.2
				c0.4,0,0.8-0.4,1.1-0.9l1.3,1c-0.8,1.2-1.6,1.7-2.4,1.7C488.2,473.4,487.7,472.1,486.8,472.1z"/>
			<path class="st15" d="M493.5,475.2h2.2v-5.9h-1.9v-1.5c1.1-0.2,1.8-0.5,2.6-0.9h1.8v8.4h1.9v2h-6.6V475.2z"/>
			<path class="st15" d="M502,475.2h2.2v-5.9h-1.9v-1.5c1.1-0.2,1.8-0.5,2.6-0.9h1.8v8.4h1.9v2H502V475.2z"/>
			<path class="st15" d="M512.8,465.8h1.6l-3.1,13.9h-1.6L512.8,465.8z"/>
			<path class="st15" d="M516.1,466.7h2.7l1.6,4.5c0.2,0.6,0.4,1.2,0.6,1.9h0.1c0.2-0.7,0.4-1.3,0.6-1.9l1.6-4.5h2.7v10.4h-2.3v-3.6
				c0-1,0.2-2.8,0.3-3.8h-0.1l-0.9,2.7l-1.4,3.8h-1.4l-1.4-3.8l-0.8-2.7H518c0.1,1,0.3,2.8,0.3,3.8v3.6h-2.2V466.7z"/>
			<path class="st15" d="M527.8,471.9c0-3.4,1.9-5.4,4.8-5.4s4.8,2,4.8,5.4s-1.9,5.4-4.8,5.4S527.8,475.3,527.8,471.9z M534.8,471.9
				c0-2-0.8-3.2-2.2-3.2c-1.4,0-2.2,1.2-2.2,3.2c0,2,0.9,3.3,2.2,3.3C534,475.2,534.8,473.9,534.8,471.9z"/>
			<path class="st15" d="M538.7,475.8l1.3-1.6c0.7,0.6,1.7,1,2.6,1c0.9,0,1.4-0.4,1.4-0.9c0-0.6-0.6-0.8-1.5-1.2l-1.3-0.6
				c-1.1-0.4-2.1-1.3-2.1-2.8c0-1.7,1.6-3.2,3.8-3.2c1.2,0,2.5,0.5,3.4,1.3l-1.3,1.6c-0.7-0.5-1.4-0.8-2.1-0.8
				c-0.8,0-1.3,0.3-1.3,0.8c0,0.6,0.7,0.8,1.6,1.2l1.3,0.5c1.3,0.5,2.1,1.4,2.1,2.8c0,1.7-1.5,3.3-4,3.3
				C541.1,477.4,539.7,476.9,538.7,475.8z"/>
			<path class="st15" d="M548.2,466.7h2.5v10.4h-2.5V466.7z"/>
		</g>
		<g>
			<path class="st15" d="M528.7,502.7c-0.4,0-0.8,0.4-1.1,0.9l-1.3-1c0.8-1.2,1.6-1.7,2.4-1.7c1.3,0,1.9,1.2,2.8,1.2
				c0.4,0,0.8-0.4,1.1-0.9l1.3,1c-0.8,1.2-1.6,1.7-2.4,1.7C530.1,503.9,529.6,502.7,528.7,502.7z"/>
			<path class="st15" d="M535.4,505.7h2.2v-5.9h-1.9v-1.5c1.1-0.2,1.8-0.5,2.6-0.9h1.8v8.4h1.9v2h-6.6V505.7z"/>
			<path class="st15" d="M543.4,502.4c0-3.6,1.5-5.4,3.7-5.4c2.2,0,3.7,1.8,3.7,5.4s-1.5,5.4-3.7,5.4
				C544.9,507.9,543.4,506,543.4,502.4z M548.4,502.4c0-2.8-0.6-3.5-1.3-3.5c-0.8,0-1.3,0.6-1.3,3.5c0,2.8,0.6,3.5,1.3,3.5
				C547.8,506,548.4,505.3,548.4,502.4z"/>
		</g>
		<g>
			<path class="st15" d="M536.6,533.2c-0.4,0-0.8,0.4-1.1,0.9l-1.3-1c0.8-1.2,1.6-1.7,2.4-1.7c1.3,0,1.9,1.2,2.8,1.2
				c0.4,0,0.8-0.4,1.1-0.9l1.3,1c-0.8,1.2-1.6,1.7-2.4,1.7C538,534.4,537.5,533.2,536.6,533.2z"/>
			<path class="st15" d="M542.9,537.1l1.3-1.5c0.3,0.4,1,0.7,1.6,0.7c1.1,0,1.9-0.8,2-3c-0.5,0.7-1.4,1-2,1c-1.7,0-3-1-3-3.3
				c0-2.2,1.6-3.5,3.4-3.5c2,0,3.9,1.5,3.9,5.3c0,3.8-2,5.5-4.1,5.5C544.6,538.4,543.6,537.8,542.9,537.1z M546.3,532.6
				c0.5,0,1.1-0.3,1.5-0.9c-0.2-1.8-0.8-2.3-1.5-2.3s-1.2,0.5-1.2,1.7C545.1,532.2,545.6,532.6,546.3,532.6z"/>
		</g>
		<g>
			<path class="st15" d="M542.4,566.1c0-1.3,0.7-2.1,1.7-2.6v-0.1c-0.8-0.6-1.4-1.4-1.4-2.5c0-1.7,1.4-2.8,3.3-2.8
				c1.9,0,3.1,1.1,3.1,2.8c0,1-0.6,1.8-1.3,2.3v0.1c1,0.5,1.8,1.4,1.8,2.8c0,1.6-1.5,2.8-3.6,2.8
				C543.9,568.9,542.4,567.8,542.4,566.1z M547.3,566c0-0.9-0.8-1.3-2.1-1.9c-0.4,0.4-0.7,1-0.7,1.7c0,0.9,0.7,1.4,1.5,1.4
				C546.7,567.2,547.3,566.8,547.3,566z M547.1,561c0-0.8-0.4-1.2-1.2-1.2c-0.6,0-1.1,0.4-1.1,1.1c0,0.8,0.6,1.3,1.7,1.7
				C546.9,562.1,547.1,561.6,547.1,561z"/>
		</g>
		<g>
			<path class="st15" d="M546.3,588h-4.5V586h7.1v1.5c-2.4,2.9-2.7,4.8-2.8,8.9h-2.5C543.8,592.9,544.3,590.7,546.3,588z"/>
		</g>
		<g>
			<path class="st15" d="M534.9,621.9c-0.4,0-0.8,0.4-1.1,0.9l-1.3-1c0.8-1.2,1.6-1.7,2.4-1.7c1.3,0,1.9,1.2,2.8,1.2
				c0.4,0,0.8-0.4,1.1-0.9l1.3,1c-0.8,1.2-1.6,1.7-2.4,1.7C536.3,623.1,535.8,621.9,534.9,621.9z"/>
			<path class="st15" d="M541.2,621.8c0-3.8,2-5.5,4.1-5.5c1.4,0,2.4,0.6,3,1.2l-1.3,1.5c-0.4-0.4-1-0.7-1.6-0.7c-1.1,0-1.9,0.8-2,3
				c0.5-0.6,1.4-1,2-1c1.7,0,3,1,3,3.3c0,2.2-1.6,3.5-3.4,3.5C543.1,627.1,541.2,625.6,541.2,621.8z M543.5,623
				c0.2,1.7,0.9,2.2,1.5,2.2s1.2-0.5,1.2-1.7c0-1.1-0.6-1.5-1.3-1.5C544.4,622,543.9,622.3,543.5,623z"/>
		</g>
		<g>
			<path class="st15" d="M534.3,652.4c-0.4,0-0.8,0.4-1.1,0.9l-1.3-1c0.8-1.2,1.6-1.7,2.4-1.7c1.3,0,1.9,1.2,2.8,1.2
				c0.4,0,0.8-0.4,1.1-0.9l1.3,1c-0.8,1.2-1.6,1.7-2.4,1.7C535.7,653.6,535.2,652.4,534.3,652.4z"/>
			<path class="st15" d="M540.3,656.1l1.1-1.6c0.6,0.6,1.3,1,2.1,1c1,0,1.6-0.6,1.6-1.6s-0.6-1.6-1.5-1.6c-0.6,0-0.9,0.1-1.5,0.5
				l-1.1-0.7l0.3-5.2h5.8v2.1h-3.7l-0.1,1.8c0.4-0.1,0.7-0.2,1.1-0.2c1.8,0,3.2,1,3.2,3.3c0,2.4-1.8,3.7-3.8,3.7
				C542.3,657.6,541.1,657,540.3,656.1z"/>
		</g>
		<g>
			<path class="st15" d="M544.1,685.3h-4.4v-1.7l3.6-6.1h3.1v5.9h1.2v1.9h-1.2v2.6h-2.3V685.3z M544.1,683.4v-1.5
				c0-0.7,0-1.6,0.1-2.3h-0.1c-0.3,0.6-0.5,1.2-0.8,1.8l-1.2,2.1H544.1z"/>
		</g>
		<g>
			<path class="st15" d="M533.2,713.4c-0.4,0-0.8,0.4-1.1,0.9l-1.3-1c0.8-1.2,1.6-1.7,2.4-1.7c1.3,0,1.9,1.2,2.8,1.2
				c0.4,0,0.8-0.4,1.1-0.9l1.3,1c-0.8,1.2-1.6,1.7-2.4,1.7C534.6,714.6,534,713.4,533.2,713.4z"/>
			<path class="st15" d="M539.1,717.2l1.1-1.6c0.6,0.6,1.4,1,2.2,1c1,0,1.6-0.4,1.6-1.2c0-0.9-0.5-1.4-2.7-1.4v-1.8
				c1.8,0,2.3-0.5,2.3-1.4c0-0.7-0.4-1.1-1.2-1.1c-0.7,0-1.2,0.3-1.9,0.9l-1.2-1.5c0.9-0.8,2-1.3,3.2-1.3c2.2,0,3.6,1,3.6,2.9
				c0,1.1-0.6,1.8-1.7,2.3v0.1c1.2,0.3,2,1.2,2,2.5c0,2-1.8,3-3.8,3C541.1,718.6,539.9,718,539.1,717.2z"/>
		</g>
		<g>
			<path class="st15" d="M538.8,747.4c2.7-2.3,4.4-4.2,4.4-5.6c0-1-0.5-1.5-1.4-1.5c-0.7,0-1.3,0.5-1.8,1l-1.3-1.3
				c1-1.1,1.9-1.7,3.4-1.7c2,0,3.4,1.3,3.4,3.3c0,1.9-1.7,3.8-3.3,5.4c0.5,0,1.2-0.1,1.7-0.1h2.1v2.1h-7.2V747.4z"/>
		</g>
		<g>
			<path class="st15" d="M509.1,772h-2.8v-2.1h8.1v2.1h-2.8v8.3h-2.5V772z"/>
			<path class="st15" d="M517.5,775l-2.7-5.1h2.8l0.8,1.9c0.2,0.5,0.5,1,0.8,1.7h0.1c0.2-0.7,0.5-1.2,0.7-1.7l0.8-1.9h2.6l-2.7,5.2
				l2.9,5.2h-2.8l-1-2c-0.3-0.5-0.5-1.1-0.8-1.7h-0.1c-0.2,0.6-0.5,1.2-0.7,1.7l-0.9,2h-2.7L517.5,775z"/>
			<path class="st15" d="M537.4,775.1l-5,5c-0.4,0.4-1,0.4-1.4,0s-0.4-1,0-1.4l3.3-3.3h-9.6c-0.6,0-1-0.4-1-1s0.4-1,1-1h9.6
				l-3.3-3.3c-0.4-0.4-0.4-1,0-1.4s1-0.4,1.4,0l5,5C537.8,774,537.8,774.7,537.4,775.1L537.4,775.1z"/>
			<path class="st15" d="M538.7,778.4h2.2v-5.9h-1.9v-1.5c1.1-0.2,1.8-0.5,2.6-0.9h1.8v8.4h1.9v2h-6.6V778.4z"/>
		</g>
		<g>
			<path class="st15" d="M505.4,800.4h3.8c2.2,0,4.1,0.8,4.1,3.3c0,1.5-0.7,2.5-1.8,3l2.3,4.1H511l-1.9-3.7h-1.2v3.7h-2.5V800.4z
				 M509,805.2c1.2,0,1.8-0.5,1.8-1.5s-0.6-1.3-1.8-1.3h-1.1v2.8H509z"/>
			<path class="st15" d="M516.9,805.5l-2.7-5.1h2.8l0.8,1.9c0.2,0.5,0.5,1,0.8,1.7h0.1c0.2-0.7,0.5-1.2,0.7-1.7l0.8-1.9h2.6
				l-2.7,5.2l2.9,5.2h-2.8l-1-2c-0.3-0.5-0.5-1.1-0.8-1.7h-0.1c-0.2,0.6-0.5,1.2-0.7,1.7l-0.9,2h-2.7L516.9,805.5z"/>
			<path class="st15" d="M523.4,804.2l5-5c0.4-0.4,1-0.4,1.4,0s0.4,1,0,1.4l-3.3,3.3h9.6c0.6,0,1,0.4,1,1s-0.4,1-1,1h-9.6l3.3,3.3
				c0.4,0.4,0.4,1,0,1.4s-1,0.4-1.4,0l-5-5C523,805.2,523,804.5,523.4,804.2L523.4,804.2z"/>
			<path class="st15" d="M537.7,805.6c0-3.6,1.5-5.4,3.7-5.4c2.2,0,3.7,1.8,3.7,5.4s-1.5,5.4-3.7,5.4
				C539.1,811.1,537.7,809.2,537.7,805.6z M542.7,805.6c0-2.8-0.6-3.5-1.3-3.5c-0.8,0-1.3,0.6-1.3,3.5c0,2.8,0.6,3.5,1.3,3.5
				C542.1,809.2,542.7,808.5,542.7,805.6z"/>
		</g>
	</g>
	<g>
		<rect x="396.3" y="385.7" class="st9" width="10.7" height="17.2"/>
		<rect x="396.3" y="388.2" class="st7" width="10.7" height="11.8"/>
	</g>
</g>
<g id="layer1-1">
	<rect id="rect10-9" x="615.4" y="4.2" width="133.2" height="355.1"/>
	<rect id="rect821" x="641.3" y="332.4" class="st15" width="81.4" height="23.9"/>
	<path id="rect825" class="st27" d="M686.7,333.8h11c2.4,0,4.4,2,4.4,4.4v12.2c0,2.4-2,4.4-4.4,4.4l0,0h-11c-2.4,0-4.4-2-4.4-4.4
		c0,0,0,0,0,0v-12.2C682.3,335.7,684.3,333.8,686.7,333.8L686.7,333.8L686.7,333.8z"/>
	<path id="rect872" class="st27" d="M646.3,333.8h11c2.4,0,4.4,2,4.4,4.4c0,0,0,0,0,0v12.2c0,2.4-2,4.4-4.4,4.4l0,0h-11
		c-2.4,0-4.4-2-4.4-4.4v-12.2C641.9,335.7,643.9,333.8,646.3,333.8L646.3,333.8L646.3,333.8z"/>
	<path id="rect874" class="st27" d="M665.9,333.8H678c2.1,0,3.8,1.7,3.8,3.8V351c0,2.1-1.7,3.8-3.8,3.8l0,0h-12.1
		c-2.1,0-3.8-1.7-3.8-3.8v-13.4C662.1,335.5,663.8,333.8,665.9,333.8z"/>
	<rect id="rect947" x="691.1" y="344.4" class="st28" width="2.2" height="43"/>
	<rect id="rect949" x="670.8" y="344.4" class="st28" width="2.2" height="43"/>
	<rect id="rect951" x="650.7" y="344.4" class="st28" width="2.2" height="43"/>
	<path id="rect97" class="st27" d="M706.2,333.8h12.1c2.1,0,3.8,1.7,3.8,3.8V351c0,2.1-1.7,3.8-3.8,3.8l0,0h-12.1
		c-2.1,0-3.8-1.7-3.8-3.8v-13.4C702.4,335.5,704.1,333.8,706.2,333.8L706.2,333.8L706.2,333.8z"/>
	<rect id="rect101-7" x="711.1" y="344.4" class="st28" width="2.2" height="43"/>
	<path id="rect78-2" class="st15" d="M618.4,251.3v58.9l-0.1,0.1l0.1,0v0.1h0.1l7.3,5.7v0h0l0,0l0,0h44l0.2,0.2l7.5-5.9v-59.2H618.4
		z"/>
	<path id="path2575-5" class="st15" d="M686.5,251.3v58.9l-0.1,0.1l0.1,0v0.1h0.1l7.3,5.7v0h0l0,0l0,0h44l0.2,0.2l7.5-5.9v-59.2
		H686.5z"/>
	<path id="path2577-6" d="M619.9,252.8V309l-0.1,0.1l0.1,0v0.1h0.1l6.9,5.5v0h0l0,0l0,0h41.8l0.2,0.2l7.1-5.7v-56.5L619.9,252.8z"/>
	<path id="path2579-9" d="M688,252.8V309l-0.1,0.1l0.1,0v0.1h0.1l6.9,5.5v0h0l0,0l0,0h41.8l0.2,0.2l7.1-5.7v-56.5L688,252.8z"/>
	<path id="path2581-5" class="st29" d="M620.6,253.5v54.9l-0.1,0.1l0.1,0v0.1h0.1l6.7,5.4v0h0l0,0l0,0h40.7l0.2,0.2l6.9-5.5v-55.1
		H620.6z"/>
	<path id="path2583-9" class="st29" d="M688.7,253.5v54.9l-0.1,0.1l0.1,0v0.1h0.1l6.7,5.4v0h0l0,0l0,0h40.7l0.2,0.2l6.9-5.5v-55.1
		H688.7z"/>
	<path id="path2585-9" class="st15" d="M674.6,285.3c0,14.7-11.9,26.6-26.6,26.6c-14.7,0-26.6-11.9-26.6-26.6
		c0-14.7,11.9-26.6,26.6-26.6l0,0"/>
	<path id="path2587-5" class="st15" d="M742.6,285.3c0-14.7-11.9-26.6-26.6-26.6c-14.7,0-26.6,11.9-26.6,26.6
		c0,14.7,11.9,26.6,26.6,26.6l0,0"/>
	
		<rect id="rect2589-6" x="644.7" y="258.8" transform="matrix(0.7071 -0.7071 0.7071 0.7071 -12.1517 541.5508)" class="st30" width="5.9" height="53.3"/>
	
		<rect id="rect2591-5" x="689.1" y="282" transform="matrix(0.7071 -0.7071 0.7071 0.7071 8.0994 589.5516)" class="st30" width="53.3" height="5.9"/>
	<rect id="rect2593-8" x="633.2" y="195.1" class="st15" width="53.3" height="38.5"/>
	<rect id="rect2595-1" x="634.6" y="196.6" class="st27" width="50.3" height="35.5"/>
	<rect id="rect2597-8" x="636.1" y="231.9" class="st31" width="5.9" height="8.9"/>
	<rect id="rect2599-9" x="650.9" y="231.9" class="st31" width="5.9" height="8.9"/>
	<rect id="rect2601-6" x="662.7" y="231.9" class="st31" width="5.9" height="8.9"/>
	<rect id="rect2603-7" x="677.5" y="231.9" class="st31" width="5.9" height="8.9"/>
	<rect id="rect2605-5" x="636.1" y="187.8" class="st31" width="5.9" height="8.9"/>
	<rect id="rect2607-7" x="650.9" y="187.8" class="st31" width="5.9" height="8.9"/>
	<rect id="rect2609-2" x="662.7" y="187.8" class="st31" width="5.9" height="8.9"/>
	<rect id="rect2611-5" x="677.5" y="187.8" class="st31" width="5.9" height="8.9"/>
	<circle id="path2621-4" class="st30" cx="682" cy="138.8" r="29.6"/>
	<circle id="circle2623-0" class="st15" cx="682" cy="138.8" r="26.6"/>
	<rect id="rect837-80" x="689.4" y="73.7" class="st15" width="50.3" height="17.8"/>
	<rect id="rect892-72-3" x="690" y="74.5" class="st32" width="49.1" height="16.4"/>
	<path id="rect939-7" class="st30" d="M723.5,74.3h7.2c4.5,0,8.2,3.7,8.2,8.2c0,0,0,0,0,0l0,0c0,4.5-3.7,8.2-8.2,8.2c0,0,0,0,0,0
		h-7.2c-4.5,0-8.2-3.7-8.2-8.2c0,0,0,0,0,0l0,0C715.3,78,719,74.3,723.5,74.3L723.5,74.3z"/>
	<path id="rect941-7" class="st30" d="M698.2,74.3h7.2c4.5,0,8.2,3.7,8.2,8.2c0,0,0,0,0,0l0,0c0,4.5-3.7,8.2-8.2,8.2c0,0,0,0,0,0
		h-7.2c-4.5,0-8.2-3.7-8.2-8.2l0,0l0,0C690,78,693.7,74.3,698.2,74.3L698.2,74.3z"/>
	<rect id="rect837-8-8" x="624.3" y="29.4" class="st15" width="65.1" height="17.8"/>
	<rect id="rect892-72-4-5" x="625" y="30.1" class="st32" width="63.7" height="16.4"/>
	<path id="rect939-4-7" class="st30" d="M660.1,29.9h-2.6c-4.5,0-8.2,3.7-8.2,8.2l0,0c0,4.5,3.7,8.2,8.2,8.2l0,0h2.6
		c4.5,0,8.2-3.7,8.2-8.2v0l0,0C668.3,33.6,664.6,29.9,660.1,29.9z"/>
	<path id="rect941-4-8" class="st30" d="M680.6,29.9H678c-4.5,0-8.2,3.7-8.2,8.2l0,0c0,4.5,3.7,8.2,8.2,8.2l0,0h2.6
		c4.5,0,8.2-3.7,8.2-8.2c0,0,0,0,0,0l0,0C688.8,33.6,685.1,29.9,680.6,29.9C680.6,29.9,680.6,29.9,680.6,29.9z"/>
	<rect id="rect945-4" x="625.2" y="30.7" class="st30" width="21" height="15.2"/>
	<rect id="rect2661-0" x="693.9" y="17.5" class="st27" width="41.4" height="50.4"/>
	<path id="path2663-2" class="st33" d="M735.3,17.4c0-3.2-3.9-6.1-10.4-7.7c-6.8-1.6-13.9-1.6-20.7,0c-6.4,1.6-10.4,4.5-10.4,7.7"/>
	<rect id="rect2667-2" x="637.8" y="231.6" class="st28" width="2.4" height="5.9"/>
	<rect id="rect2669-2" x="652.7" y="231.6" class="st28" width="2.4" height="5.9"/>
	<rect id="rect2671-8" x="664.4" y="231.6" class="st28" width="2.4" height="5.9"/>
	<rect id="rect2673-8" x="679.3" y="231.6" class="st28" width="2.4" height="5.9"/>
	<rect id="rect2675-9" x="637.8" y="191.1" class="st28" width="2.4" height="5.9"/>
	<rect id="rect2677-9" x="652.7" y="191.1" class="st28" width="2.4" height="5.9"/>
	<rect id="rect2679-7" x="664.4" y="191.1" class="st28" width="2.4" height="5.9"/>
	<rect id="rect2681-4" x="679.3" y="191.1" class="st28" width="2.4" height="5.9"/>
	<rect id="rect2683-6" x="700.6" y="72.4" class="st28" width="2.4" height="10.4"/>
	<rect id="rect2685-8" x="725.8" y="72.4" class="st28" width="2.4" height="10.4"/>
	<rect id="rect2659-8" x="690.9" y="67.7" class="st33" width="47.3" height="5.5"/>
	<path id="path2690-5" class="st27" d="M680.4,8.9c0-3.2-4.5-6.1-11.8-7.7c-7.8-1.6-15.9-1.6-23.7,0C637.5,2.8,633,5.7,633,8.9"/>
	<rect id="rect2692-2" x="657.9" y="36.7" class="st28" width="2.4" height="4.4"/>
	<rect id="rect2694-3" x="678.3" y="36.7" class="st28" width="2.4" height="4.4"/>
	<rect id="rect2696-2" x="634.5" y="36.7" class="st28" width="2.4" height="4.4"/>
	<rect id="rect2688-5" x="628.7" y="8.8" class="st34" width="56.2" height="29.6"/>
	<path id="path31-1-2" class="st15" d="M687.3,183.2c0.8,0,0.9,0,1.1-0.1c0.1-0.1,0.2-0.2,0.3-0.3c0.1-0.1,0.1-0.3,0.1-1.9l0-1.8
		l1.8,0l1.8,0v2.2c0,2.5,0,2.7-0.3,3.3c-0.3,0.8-1,1.4-1.8,1.5c-0.5,0.1-1.1,0.1-1.6,0.1c-0.7,0-1.5,0-1.7,0l-0.4,0l0-1.5l0-1.5
		L687.3,183.2L687.3,183.2z M704.1,188.2c15,0,18.7,0,18.1,0.1l-0.1,0l0.1,0c0.1,0,0.1,0-0.1,0.1c-0.1,0-0.1,0,0.1,0l0.3,0l-0.3,0
		c-0.2,0-0.3,0-0.2,0c0.1,0,0.1,0.1,0.1,0.4c0,0.4,0,0.4,0.1,0.4c0.1,0,0.1,0-0.1,0c-0.1,0-0.2,0-0.2,0.1c0,0-6,0-17.8,0h-17.8v-1.3
		L704.1,188.2z M690.5,174.5h1.8v2.9h-3.6v-2.9H690.5z M694.1,179.8c0.1-0.8,0.3-1.5,0.7-2.2c0.1-0.2,0.2-0.3,0.2-0.4
		c0.1-0.1,0.1-0.2,0.2-0.3c0.2-0.3,0.4-0.6,0.7-0.9c0,0,0.1,0,0.1-0.1c0.2-0.3,0.5-0.5,0.8-0.7c0.4-0.3,0.8-0.5,1.3-0.7
		c0.7-0.3,1.4-0.4,2.1-0.3c0.4,0,0.8,0,1.2,0.2c0.3,0.1,0.6,0.2,0.7,0.2c0.1,0,0.2,0.1,0.3,0.1c0.2,0.1,0.3,0.1,0.4,0.2
		c1,0.7,1.9,1.7,2.5,2.8c0.7,1.4,0.8,3,0.3,4.5c-0.2,0.5-0.4,0.9-0.6,1.4c-0.3,0.5-0.6,0.9-1.1,1.2c-0.7,0.7-1.6,1.2-2.5,1.5
		c-0.7,0.2-1.5,0.2-2.2,0.1c-0.9-0.2-1.7-0.5-2.4-1c-0.3-0.2-0.5-0.4-0.8-0.7c-0.1-0.1-0.2-0.2-0.2-0.3c-0.7-0.9-1.3-1.9-1.5-3
		C694.1,181,694.1,180.4,694.1,179.8L694.1,179.8z M697.5,181.3c0.2,0.7,0.5,1.3,1,1.7c0.6,0.5,1.4,0.7,2.1,0.5
		c0.9-0.4,1.6-1.2,1.9-2.2c0.2-0.7,0.1-1.3,0-2c-0.2-0.7-0.6-1.4-1.2-1.8c-0.2-0.2-0.4-0.3-0.7-0.3c-0.6-0.1-1.1-0.1-1.7,0.2
		c-0.5,0.3-0.9,0.8-1.1,1.3C697.4,179.5,697.3,180.4,697.5,181.3L697.5,181.3z M707.5,174.5c0,0,0.8,0,1.8,0l1.7,0l0,1.6
		c0,1.5,0,1.6,0.1,1.9c0.3,0.7,1.1,1,1.8,0.8c0.3-0.1,0.6-0.4,0.8-0.7l0.2-0.3l0-1.6l0-1.6h3.6l0,1.9c0.1,0.7,0,1.5-0.1,2.2
		c-0.2,0.7-0.5,1.3-0.9,1.8c-0.1,0.1-0.1,0.2-0.2,0.3c-0.2,0.3-0.5,0.5-0.8,0.8c-0.3,0.2-0.7,0.4-1.1,0.6c-0.1,0-0.3,0.1-0.5,0.2
		c-0.4,0.1-0.8,0.2-1.3,0.1c-0.5,0-0.9,0-1.3-0.1c-0.5-0.1-1-0.3-1.4-0.6c-0.5-0.4-1-0.8-1.4-1.3c-0.5-0.7-0.8-1.4-0.9-2.3
		C707.4,176.8,707.4,175.6,707.5,174.5L707.5,174.5z M712.4,183.2h2.9v3h-5.8v-3H712.4z M717.4,172.2c0,0,0-0.1,0-0.2
		c0-0.2,0-0.2,0.2-0.2c0.1,0,5,0,10.9,0l10.7,0l0,0.6l0,0.6h-10.9c-6,0-10.9,0-11,0c-0.1,0-0.1-0.1-0.1-0.4
		C717.4,172.4,717.4,172.2,717.4,172.2L717.4,172.2z M722.3,179.3h3.7v2.9h-7.4v-2.9H722.3z M728.9,174.5h1.8v2.9h-3.6v-2.9H728.9z
		 M728.9,178.9h1.8v7.5h-3.6v-7.5L728.9,178.9z M736,174.5h3.7v2.9h-7.4v-2.9H736z M732.9,179.1c0,0,0.8,0,1.7,0l1.7,0l0,1.7
		c0,2.4-0.1,2.3,1.7,2.3l1.1,0v3l-0.4,0.1c-1.1,0.1-2.1,0.1-3.2,0c-0.7-0.1-1.5-0.4-2-0.9c-0.4-0.5-0.7-1.2-0.7-1.9
		C732.9,182.8,732.8,179.1,732.9,179.1L732.9,179.1z M741.8,173.1c0.1-0.3,0.2-0.6,0.5-0.8c0.7-0.7,1.8-0.8,2.6-0.2
		c0.3,0.2,0.5,0.4,0.6,0.7c0.1,0.2,0.2,0.5,0.1,0.8c0,0.3,0,0.5-0.1,0.8c-0.3,0.6-0.9,1-1.6,1.1c-0.6,0.1-1.2-0.2-1.6-0.6
		C741.8,174.4,741.6,173.7,741.8,173.1L741.8,173.1z M742.2,174.3c0.3,0.4,0.7,0.8,1.2,0.9c0.5,0.1,1.1,0,1.5-0.4
		c0.2-0.1,0.3-0.3,0.4-0.5c0.1-0.2,0.2-0.5,0.2-0.7c0-0.3,0-0.5-0.2-0.7c-0.1-0.2-0.3-0.4-0.5-0.5c-0.2-0.1-0.3-0.2-0.5-0.3
		c-0.8-0.3-1.7,0.2-2.1,1C742,173.4,742,173.9,742.2,174.3L742.2,174.3z M743.5,172.4c0.3,0,0.5,0,0.8,0c0.3,0.2,0.4,0.6,0.2,0.9
		c-0.1,0.1-0.2,0.1-0.3,0.2l-0.2,0.1l0.2,0.2c0.1,0.1,0.2,0.3,0.3,0.4c0.1,0.1,0.1,0.2,0.2,0.3c0.1,0.1,0,0.1-0.2,0.1l-0.2,0
		l-0.3-0.5c-0.3-0.5-0.4-0.5-0.7-0.5h-0.2v1l-0.1,0l-0.1,0l0-1.1l0-1.1L743.5,172.4z M743.6,173.4c0.4,0,0.4,0,0.6-0.1
		c0.3-0.2,0.1-0.5-0.3-0.6c-0.2,0-0.5,0-0.7,0c0,0.1,0,0.2,0,0.3v0.3L743.6,173.4z"/>
	<g id="text97">
		<g class="st35">
			<path class="st15" d="M630.1,134.1c0,0,0.1,0,0.1,0s0.1,0.1,0.1,0.1s0,0.1,0.1,0.2c0,0.1,0,0.2,0,0.4c0,0.2,0,0.4,0,0.5
				c0,0.1-0.1,0.2-0.1,0.3c0,0.1-0.1,0.1-0.2,0.2l-5.9,4.4h5.9c0,0,0.1,0,0.1,0c0,0,0.1,0.1,0.1,0.1s0,0.1,0.1,0.2
				c0,0.1,0,0.2,0,0.4c0,0.1,0,0.3,0,0.4c0,0.1,0,0.2-0.1,0.2c0,0.1-0.1,0.1-0.1,0.1c0,0-0.1,0-0.1,0h-11.4c0,0-0.1,0-0.1,0
				s-0.1-0.1-0.1-0.1c0-0.1,0-0.1-0.1-0.2c0-0.1,0-0.2,0-0.4c0-0.2,0-0.3,0-0.4c0-0.1,0-0.2,0.1-0.2s0-0.1,0.1-0.1s0.1,0,0.1,0h5.3
				l-5.3-4.2c-0.1,0-0.1-0.1-0.1-0.1c0,0-0.1-0.1-0.1-0.2c0-0.1,0-0.2,0-0.3c0-0.1,0-0.2,0-0.4c0-0.2,0-0.3,0-0.4
				c0-0.1,0-0.2,0.1-0.2c0-0.1,0.1-0.1,0.1-0.1c0,0,0.1,0,0.1,0c0.1,0,0.2,0,0.2,0.1c0.1,0,0.2,0.1,0.3,0.2l4.7,3.9l5.6-4.2
				c0.2-0.1,0.3-0.2,0.3-0.2C630.1,134.1,630.1,134.1,630.1,134.1z"/>
		</g>
		<g class="st35">
			<path class="st15" d="M625.8,128.3h4.4c0,0,0.1,0,0.1,0c0,0,0.1,0.1,0.1,0.1c0,0.1,0,0.1,0.1,0.2c0,0.1,0,0.2,0,0.4
				c0,0.2,0,0.3,0,0.4c0,0.1,0,0.2-0.1,0.2s-0.1,0.1-0.1,0.1c0,0-0.1,0-0.1,0h-4.4l-6.7,3.4c-0.1,0.1-0.2,0.1-0.3,0.1
				c-0.1,0-0.1,0-0.2,0c0,0-0.1-0.1-0.1-0.2c0-0.1,0-0.3,0-0.5c0-0.2,0-0.3,0-0.4c0-0.1,0-0.2,0-0.3c0-0.1,0.1-0.1,0.1-0.2
				c0,0,0.1-0.1,0.2-0.1l3.4-1.6c0.3-0.2,0.7-0.3,1-0.5s0.7-0.3,1.1-0.5v0c-0.3-0.1-0.7-0.3-1-0.4c-0.3-0.1-0.7-0.3-1-0.5l-3.4-1.7
				c-0.1,0-0.1,0-0.2-0.1c0,0-0.1-0.1-0.1-0.1c0-0.1,0-0.1,0-0.2c0-0.1,0-0.2,0-0.4c0-0.2,0-0.4,0-0.5c0-0.1,0-0.2,0.1-0.3
				c0,0,0.1-0.1,0.2-0.1c0.1,0,0.2,0.1,0.3,0.1L625.8,128.3z"/>
		</g>
		<g class="st35">
			<path class="st15" d="M625.8,120.5c0.2,0,0.4,0,0.5,0.1s0.1,0.1,0.1,0.2v3.8c0,0.1,0,0.2-0.1,0.2s-0.3,0.1-0.5,0.1
				s-0.4,0-0.5-0.1s-0.1-0.1-0.1-0.2v-3.8c0,0,0-0.1,0-0.1c0,0,0.1-0.1,0.1-0.1c0.1,0,0.1,0,0.2-0.1
				C625.5,120.5,625.6,120.5,625.8,120.5z"/>
			<path class="st15" d="M624.4,111c0.9,0,1.7,0.1,2.5,0.2c0.8,0.1,1.4,0.4,1.9,0.7c0.5,0.3,1,0.8,1.3,1.3c0.3,0.5,0.4,1.2,0.4,2
				c0,0.7-0.1,1.4-0.4,1.9c-0.3,0.5-0.7,0.9-1.2,1.2c-0.5,0.3-1.2,0.5-1.9,0.7c-0.8,0.1-1.6,0.2-2.6,0.2c-0.9,0-1.7-0.1-2.5-0.2
				s-1.4-0.4-1.9-0.7c-0.5-0.3-1-0.8-1.3-1.3c-0.3-0.5-0.4-1.2-0.4-2c0-0.8,0.1-1.4,0.4-1.9c0.3-0.5,0.7-0.9,1.2-1.2
				c0.5-0.3,1.2-0.5,1.9-0.7C622.6,111,623.5,111,624.4,111z M624.5,112.6c-0.6,0-1.1,0-1.6,0.1c-0.5,0-0.9,0.1-1.2,0.2
				c-0.4,0.1-0.7,0.2-0.9,0.3c-0.3,0.1-0.5,0.3-0.6,0.5c-0.2,0.2-0.3,0.4-0.4,0.6c-0.1,0.2-0.1,0.5-0.1,0.8c0,0.5,0.1,0.9,0.4,1.3
				c0.2,0.3,0.6,0.6,1,0.8c0.4,0.2,0.9,0.3,1.5,0.4c0.6,0.1,1.2,0.1,1.9,0.1c0.9,0,1.6,0,2.3-0.1c0.6-0.1,1.1-0.2,1.5-0.4
				c0.4-0.2,0.7-0.5,0.9-0.8c0.2-0.3,0.3-0.7,0.3-1.1c0-0.3-0.1-0.6-0.2-0.9c-0.1-0.3-0.3-0.5-0.5-0.7c-0.2-0.2-0.5-0.3-0.7-0.5
				c-0.3-0.1-0.6-0.2-1-0.3c-0.3-0.1-0.7-0.1-1.1-0.2C625.4,112.6,625,112.6,624.5,112.6z"/>
			<path class="st15" d="M627,101.9c0.5,0,1,0.1,1.5,0.3c0.4,0.2,0.8,0.5,1.1,0.8c0.3,0.4,0.6,0.8,0.7,1.3c0.2,0.5,0.3,1.1,0.3,1.8
				c0,0.4,0,0.8-0.1,1.1s-0.1,0.7-0.2,0.9c-0.1,0.3-0.2,0.5-0.3,0.7s-0.2,0.3-0.2,0.3s-0.1,0.1-0.1,0.1s-0.1,0-0.2,0.1
				c-0.1,0-0.1,0-0.2,0c-0.1,0-0.2,0-0.3,0c-0.2,0-0.4,0-0.5-0.1s-0.1-0.1-0.1-0.2c0-0.1,0-0.2,0.1-0.3s0.2-0.4,0.3-0.6
				c0.1-0.3,0.2-0.6,0.3-0.9c0.1-0.3,0.1-0.7,0.1-1.2c0-0.4-0.1-0.8-0.2-1.1c-0.1-0.3-0.3-0.6-0.4-0.8c-0.2-0.2-0.4-0.4-0.7-0.5
				c-0.3-0.1-0.5-0.2-0.8-0.2c-0.3,0-0.6,0.1-0.9,0.2c-0.3,0.1-0.5,0.3-0.7,0.6c-0.2,0.3-0.3,0.6-0.5,1c-0.1,0.4-0.2,0.8-0.2,1.3
				v1.2c0,0.1,0,0.1,0,0.1c0,0-0.1,0.1-0.1,0.1c0,0-0.1,0.1-0.2,0.1c-0.1,0-0.2,0-0.3,0c-0.1,0-0.2,0-0.3,0c-0.1,0-0.1,0-0.2-0.1
				c0,0-0.1-0.1-0.1-0.1c0,0,0-0.1,0-0.1v-1c0-0.4-0.1-0.8-0.2-1.1c-0.1-0.3-0.3-0.6-0.5-0.8c-0.2-0.2-0.4-0.4-0.7-0.5
				c-0.3-0.1-0.6-0.2-0.9-0.2c-0.2,0-0.5,0-0.7,0.1c-0.2,0.1-0.4,0.2-0.6,0.4s-0.3,0.4-0.4,0.6s-0.1,0.5-0.1,0.9
				c0,0.4,0.1,0.7,0.2,1c0.1,0.3,0.2,0.6,0.3,0.8s0.2,0.4,0.3,0.6c0.1,0.2,0.2,0.3,0.2,0.3c0,0,0,0.1,0,0.1c0,0,0,0.1-0.1,0.1
				s-0.1,0-0.2,0c-0.1,0-0.2,0-0.3,0c-0.1,0-0.2,0-0.2,0c-0.1,0-0.1,0-0.2,0c-0.1,0-0.1,0-0.1-0.1s-0.1-0.1-0.2-0.1
				c-0.1-0.1-0.1-0.2-0.3-0.4c-0.1-0.2-0.2-0.4-0.3-0.7c-0.1-0.3-0.2-0.6-0.3-0.9c-0.1-0.3-0.1-0.7-0.1-1.1c0-0.6,0.1-1,0.2-1.4
				s0.3-0.8,0.6-1s0.6-0.5,0.9-0.6c0.4-0.1,0.8-0.2,1.2-0.2c0.4,0,0.7,0,1,0.1c0.3,0.1,0.6,0.2,0.9,0.4c0.2,0.2,0.5,0.4,0.6,0.7
				c0.2,0.3,0.3,0.6,0.4,1h0c0-0.4,0.1-0.8,0.3-1.1s0.4-0.6,0.6-0.9c0.2-0.2,0.5-0.4,0.9-0.6C626.3,102,626.6,101.9,627,101.9z"/>
			<path class="st15" d="M629.7,92.3c0.1,0,0.2,0,0.3,0c0.1,0,0.2,0,0.2,0.1c0.1,0,0.1,0.1,0.1,0.1s0,0.1,0,0.2v6.6
				c0,0.1,0,0.2,0,0.2c0,0.1-0.1,0.1-0.1,0.2s-0.1,0.1-0.2,0.1s-0.2,0-0.3,0c-0.1,0-0.2,0-0.3,0c-0.1,0-0.2,0-0.2-0.1
				c-0.1,0-0.1-0.1-0.2-0.1c-0.1,0-0.1-0.1-0.2-0.2l-2.4-2.4c-0.6-0.5-1.1-1-1.5-1.3c-0.4-0.3-0.9-0.6-1.2-0.8s-0.7-0.3-1-0.4
				s-0.6-0.1-0.8-0.1c-0.3,0-0.5,0-0.7,0.1c-0.2,0.1-0.4,0.2-0.6,0.4c-0.2,0.2-0.3,0.4-0.4,0.6c-0.1,0.3-0.2,0.5-0.2,0.9
				c0,0.4,0.1,0.7,0.2,1c0.1,0.3,0.2,0.6,0.3,0.8c0.1,0.2,0.2,0.4,0.3,0.6c0.1,0.2,0.2,0.3,0.2,0.3c0,0,0,0.1,0,0.1
				c0,0-0.1,0.1-0.1,0.1c-0.1,0-0.1,0-0.2,0.1s-0.2,0-0.3,0c-0.1,0-0.2,0-0.2,0s-0.1,0-0.2,0c0,0-0.1,0-0.1-0.1s-0.1-0.1-0.2-0.1
				c-0.1-0.1-0.2-0.2-0.3-0.4c-0.1-0.2-0.2-0.4-0.3-0.7c-0.1-0.3-0.2-0.6-0.3-0.9c-0.1-0.3-0.1-0.7-0.1-1c0-0.6,0.1-1.1,0.2-1.5
				s0.4-0.8,0.7-1.1c0.3-0.3,0.6-0.5,1-0.6s0.8-0.2,1.2-0.2c0.4,0,0.8,0,1.1,0.1c0.4,0.1,0.8,0.2,1.2,0.4c0.4,0.2,0.9,0.5,1.5,0.9
				s1.2,1,1.8,1.6l2,1.9v-5.2c0,0,0-0.1,0-0.1c0,0,0.1-0.1,0.1-0.1c0.1,0,0.1-0.1,0.2-0.1C629.5,92.3,629.6,92.3,629.7,92.3z"/>
		</g>
	</g>
	<g id="text101">
		<g class="st35">
			<path class="st15" d="M631.8,349.5c0.1,0,0.2,0,0.2,0c0.1,0,0.1,0,0.2,0s0.1,0,0.1,0.1c0,0,0,0.1,0,0.1c0,0.1,0,0.1-0.1,0.3
				c-0.1,0.1-0.2,0.3-0.3,0.5c-0.1,0.2-0.2,0.4-0.3,0.7c-0.1,0.3-0.1,0.6-0.1,1c0,0.5,0.1,0.9,0.3,1.2c0.2,0.4,0.4,0.7,0.7,0.9
				s0.6,0.4,1.1,0.6s0.8,0.2,1.3,0.2c0.5,0,1-0.1,1.4-0.2c0.4-0.1,0.8-0.4,1-0.6c0.3-0.3,0.5-0.6,0.6-0.9c0.1-0.4,0.2-0.8,0.2-1.2
				c0-0.3,0-0.5-0.1-0.8s-0.2-0.5-0.3-0.7h-2.4v1.9c0,0.1,0,0.1-0.1,0.2c-0.1,0-0.2,0.1-0.3,0.1c-0.1,0-0.2,0-0.2,0
				c-0.1,0-0.1,0-0.1,0c0,0-0.1,0-0.1-0.1c0,0,0-0.1,0-0.1v-2.6c0,0,0-0.1,0-0.1c0,0,0-0.1,0.1-0.1s0.1-0.1,0.1-0.1
				c0.1,0,0.1,0,0.2,0h3.2c0.1,0,0.2,0,0.3,0.1c0.1,0,0.2,0.1,0.2,0.2s0.1,0.3,0.2,0.5c0.1,0.2,0.1,0.4,0.2,0.6
				c0.1,0.2,0.1,0.4,0.1,0.6c0,0.2,0,0.4,0,0.6c0,0.6-0.1,1.2-0.3,1.7s-0.5,0.9-0.9,1.3c-0.4,0.3-0.8,0.6-1.3,0.8s-1.1,0.3-1.7,0.3
				c-0.7,0-1.3-0.1-1.8-0.3c-0.5-0.2-1-0.5-1.4-0.8c-0.4-0.4-0.7-0.8-0.9-1.3s-0.3-1.1-0.3-1.7c0-0.3,0-0.6,0.1-0.9s0.1-0.5,0.2-0.7
				c0.1-0.2,0.2-0.4,0.2-0.5s0.2-0.2,0.2-0.3s0.1-0.1,0.2-0.1C631.5,349.5,631.6,349.5,631.8,349.5z"/>
			<path class="st15" d="M638.5,341.1c0.1,0,0.2,0,0.2,0c0.1,0,0.1,0.1,0.1,0.1c0,0,0.1,0.1,0.1,0.2c0,0.1,0,0.1,0,0.2v0.4
				c0,0.1,0,0.2,0,0.3c0,0.1-0.1,0.2-0.1,0.2s-0.1,0.2-0.3,0.2c-0.1,0.1-0.2,0.2-0.4,0.2l-4.7,2.5c-0.2,0.1-0.5,0.3-0.8,0.4
				c-0.3,0.1-0.5,0.3-0.8,0.4v0c0.3,0,0.6,0,0.9,0c0.3,0,0.6,0,1,0h5c0,0,0.1,0,0.1,0c0,0,0,0,0.1,0.1c0,0,0,0.1,0,0.2
				c0,0.1,0,0.2,0,0.3c0,0.1,0,0.2,0,0.3c0,0.1,0,0.1,0,0.2c0,0,0,0.1-0.1,0.1c0,0-0.1,0-0.1,0h-7.7c-0.2,0-0.3,0-0.4-0.1
				c-0.1-0.1-0.1-0.2-0.1-0.3v-0.5c0-0.1,0-0.2,0-0.3c0-0.1,0.1-0.2,0.1-0.2c0-0.1,0.1-0.1,0.2-0.2c0.1-0.1,0.2-0.1,0.3-0.2l3.7-2
				c0.2-0.1,0.4-0.2,0.7-0.3c0.2-0.1,0.4-0.2,0.6-0.3c0.2-0.1,0.4-0.2,0.6-0.3s0.4-0.2,0.6-0.3v0c-0.3,0-0.7,0-1.1,0
				c-0.4,0-0.7,0-1.1,0h-4.5c0,0-0.1,0-0.1,0c0,0,0,0-0.1-0.1c0,0,0-0.1,0-0.2c0-0.1,0-0.2,0-0.3c0-0.1,0-0.2,0-0.3
				c0-0.1,0-0.1,0-0.2c0,0,0-0.1,0.1-0.1c0,0,0.1,0,0.1,0H638.5z"/>
			<path class="st15" d="M634.7,332.5c0.7,0,1.4,0.1,1.9,0.3s1,0.5,1.3,0.8c0.4,0.4,0.6,0.8,0.8,1.3s0.3,1.1,0.3,1.8v1.8
				c0,0.1,0,0.2-0.1,0.3s-0.2,0.1-0.4,0.1h-7.4c-0.2,0-0.3,0-0.4-0.1s-0.1-0.2-0.1-0.3v-1.9c0-0.7,0.1-1.3,0.3-1.8
				c0.2-0.5,0.5-0.9,0.8-1.3c0.3-0.3,0.8-0.6,1.3-0.8C633.5,332.6,634,332.5,634.7,332.5z M634.7,333.7c-0.5,0-0.9,0.1-1.3,0.2
				s-0.7,0.3-1,0.5s-0.5,0.5-0.7,0.9c-0.2,0.4-0.2,0.8-0.2,1.4v1.1h6.5v-1.1c0-0.5-0.1-1-0.2-1.3c-0.1-0.4-0.3-0.7-0.6-0.9
				c-0.3-0.2-0.6-0.4-1-0.6C635.8,333.7,635.3,333.7,634.7,333.7z"/>
		</g>
	</g>
	<g id="text105">
		<g class="st35">
			<path class="st15" d="M675.9,325.6c0,0.1,0,0.2,0,0.3c0,0.1,0,0.2-0.1,0.2c0,0.1-0.1,0.1-0.1,0.1s-0.1,0-0.1,0h-3v3.3
				c0,0,0,0.1,0,0.1c0,0-0.1,0.1-0.1,0.1s-0.1,0-0.2,0.1c-0.1,0-0.2,0-0.3,0c-0.1,0-0.2,0-0.3,0c-0.1,0-0.2,0-0.2-0.1
				c-0.1,0-0.1-0.1-0.1-0.1c0,0,0-0.1,0-0.1v-3.3h-3c-0.1,0-0.1,0-0.1,0s-0.1-0.1-0.1-0.1c0-0.1-0.1-0.1-0.1-0.2c0-0.1,0-0.2,0-0.3
				c0-0.1,0-0.2,0-0.3c0-0.1,0-0.2,0.1-0.2c0-0.1,0.1-0.1,0.1-0.1s0.1,0,0.1,0h3v-3.3c0,0,0-0.1,0-0.1c0,0,0.1-0.1,0.1-0.1
				c0.1,0,0.1,0,0.2-0.1c0.1,0,0.2,0,0.3,0c0.1,0,0.2,0,0.3,0c0.1,0,0.2,0,0.2,0.1s0.1,0.1,0.1,0.1c0,0,0,0.1,0,0.1v3.3h3
				c0,0,0.1,0,0.1,0c0,0,0.1,0.1,0.1,0.1c0,0.1,0.1,0.1,0.1,0.2C675.9,325.4,675.9,325.5,675.9,325.6z"/>
		</g>
	</g>
	<g id="text110">
		<g class="st35">
			<path class="st15" d="M689.3,327.2c0,0.5-0.1,0.9-0.2,1.3c-0.1,0.4-0.3,0.7-0.5,1c-0.2,0.3-0.5,0.5-0.9,0.6s-0.7,0.2-1.2,0.2
				c-0.5,0-0.8-0.1-1.2-0.2c-0.3-0.1-0.6-0.3-0.8-0.6c-0.2-0.3-0.4-0.6-0.5-1c-0.1-0.4-0.2-0.8-0.2-1.3c0-0.5,0.1-0.9,0.2-1.3
				c0.1-0.4,0.3-0.7,0.5-1s0.5-0.5,0.9-0.6c0.3-0.1,0.7-0.2,1.2-0.2c0.4,0,0.8,0.1,1.2,0.2c0.3,0.1,0.6,0.3,0.8,0.6s0.4,0.6,0.5,0.9
				C689.3,326.3,689.3,326.7,689.3,327.2z M688.5,327.3c0-0.3,0-0.7-0.1-0.9s-0.2-0.5-0.3-0.8s-0.3-0.4-0.6-0.5
				c-0.2-0.1-0.5-0.2-0.9-0.2c-0.3,0-0.6,0.1-0.9,0.2c-0.2,0.1-0.4,0.3-0.6,0.5c-0.1,0.2-0.3,0.5-0.3,0.8s-0.1,0.6-0.1,0.9
				c0,0.4,0,0.7,0.1,1s0.2,0.6,0.3,0.8s0.3,0.4,0.6,0.5c0.2,0.1,0.5,0.2,0.9,0.2c0.3,0,0.6-0.1,0.9-0.2c0.2-0.1,0.4-0.3,0.6-0.5
				c0.1-0.2,0.2-0.5,0.3-0.8C688.5,327.9,688.5,327.6,688.5,327.3z"/>
			<path class="st15" d="M695.1,328.1c0,0.4-0.1,0.7-0.2,1c-0.1,0.3-0.3,0.5-0.5,0.7c-0.2,0.2-0.4,0.3-0.7,0.5
				c-0.3,0.1-0.6,0.2-1,0.2c-0.3,0-0.6,0-0.9-0.1c-0.3-0.1-0.5-0.2-0.7-0.4c-0.2-0.2-0.3-0.4-0.4-0.7c-0.1-0.3-0.2-0.6-0.2-1v-3.7
				c0,0,0,0,0-0.1c0,0,0,0,0.1,0c0,0,0.1,0,0.1,0c0,0,0.1,0,0.2,0c0.1,0,0.1,0,0.2,0c0.1,0,0.1,0,0.1,0s0.1,0,0.1,0c0,0,0,0,0,0.1
				v3.6c0,0.3,0,0.5,0.1,0.7c0.1,0.2,0.2,0.4,0.3,0.5s0.3,0.2,0.5,0.3s0.4,0.1,0.6,0.1c0.2,0,0.4,0,0.6-0.1c0.2-0.1,0.3-0.2,0.5-0.3
				s0.2-0.3,0.3-0.5s0.1-0.4,0.1-0.7v-3.7c0,0,0,0,0-0.1c0,0,0,0,0.1,0c0,0,0.1,0,0.1,0c0.1,0,0.1,0,0.2,0c0.1,0,0.1,0,0.2,0
				c0.1,0,0.1,0,0.1,0s0.1,0,0.1,0c0,0,0,0,0,0.1V328.1z"/>
			<path class="st15" d="M700.4,324.6c0,0.1,0,0.1,0,0.2c0,0,0,0.1,0,0.1c0,0,0,0-0.1,0.1c0,0,0,0-0.1,0h-1.7v5.2c0,0,0,0,0,0.1
				c0,0,0,0-0.1,0c0,0-0.1,0-0.1,0c-0.1,0-0.1,0-0.2,0c-0.1,0-0.1,0-0.2,0c-0.1,0-0.1,0-0.1,0s-0.1,0-0.1,0c0,0,0,0,0-0.1V325h-1.7
				c0,0,0,0-0.1,0c0,0,0,0,0-0.1c0,0,0-0.1,0-0.1s0-0.1,0-0.2s0-0.1,0-0.2s0-0.1,0-0.1c0,0,0,0,0-0.1c0,0,0,0,0.1,0h4.2
				c0,0,0,0,0.1,0c0,0,0,0,0.1,0.1c0,0,0,0.1,0,0.1C700.4,324.5,700.4,324.6,700.4,324.6z"/>
		</g>
	</g>
	<g id="text114">
		<g class="st35">
			<path class="st15" d="M732.4,346.2c0.1,0,0.1,0,0.2,0c0.1,0,0.1,0,0.1,0c0,0,0.1,0,0.1,0.1c0,0,0,0.1,0,0.1v4
				c0,0.1,0,0.2-0.1,0.3c-0.1,0.1-0.2,0.1-0.4,0.1h-7.5c-0.2,0-0.3,0-0.4-0.1c-0.1-0.1-0.1-0.2-0.1-0.3v-4c0,0,0-0.1,0-0.1
				c0,0,0-0.1,0.1-0.1c0,0,0.1,0,0.1,0s0.1,0,0.2,0c0.1,0,0.1,0,0.2,0s0.1,0,0.1,0c0,0,0.1,0,0.1,0.1c0,0,0,0.1,0,0.1v3.3h2.6V347
				c0,0,0-0.1,0-0.1s0-0.1,0.1-0.1s0.1,0,0.1,0c0.1,0,0.1,0,0.2,0c0.1,0,0.1,0,0.2,0c0.1,0,0.1,0,0.1,0c0,0,0.1,0,0.1,0.1
				c0,0,0,0.1,0,0.1v2.8h3v-3.3c0,0,0-0.1,0-0.1s0-0.1,0.1-0.1c0,0,0.1,0,0.1,0C732.2,346.2,732.3,346.2,732.4,346.2z"/>
			<path class="st15" d="M732.4,338.1c0.1,0,0.2,0,0.2,0c0.1,0,0.1,0.1,0.2,0.1s0.1,0.1,0.1,0.2c0,0.1,0,0.1,0,0.2v0.4
				c0,0.1,0,0.2,0,0.3c0,0.1-0.1,0.2-0.1,0.2c-0.1,0.1-0.1,0.2-0.3,0.2c-0.1,0.1-0.2,0.2-0.4,0.2l-4.8,2.6c-0.2,0.1-0.5,0.3-0.8,0.4
				c-0.3,0.1-0.5,0.3-0.8,0.4v0c0.3,0,0.6,0,1,0c0.3,0,0.6,0,1,0h5.1c0,0,0.1,0,0.1,0c0,0,0,0,0.1,0.1c0,0,0,0.1,0,0.2
				c0,0.1,0,0.2,0,0.3s0,0.2,0,0.3c0,0.1,0,0.1,0,0.2c0,0,0,0.1-0.1,0.1c0,0-0.1,0-0.1,0h-7.8c-0.2,0-0.3,0-0.4-0.1
				c-0.1-0.1-0.1-0.2-0.1-0.3v-0.6c0-0.1,0-0.2,0-0.3s0.1-0.2,0.1-0.2s0.1-0.1,0.2-0.2s0.2-0.1,0.3-0.2l3.7-2
				c0.2-0.1,0.4-0.2,0.7-0.4c0.2-0.1,0.4-0.2,0.6-0.3c0.2-0.1,0.4-0.2,0.6-0.3c0.2-0.1,0.4-0.2,0.6-0.3v0c-0.3,0-0.7,0-1.1,0
				c-0.4,0-0.7,0-1.1,0h-4.6c0,0-0.1,0-0.1,0c0,0,0,0-0.1-0.1c0,0,0-0.1,0-0.2c0-0.1,0-0.2,0-0.3c0-0.1,0-0.2,0-0.3s0-0.1,0-0.2
				c0,0,0-0.1,0.1-0.1s0.1,0,0.1,0H732.4z"/>
		</g>
	</g>
</g>
<rect id="rect6090" x="688" y="364.8" class="st36" width="9.1" height="141.6"/>
<rect id="rect6092" x="667.6" y="364.8" class="st37" width="9.1" height="119.8"/>
<rect id="rect6094" x="647.6" y="364.8" class="st38" width="9.1" height="220.4"/>
<circle id="path1102" class="st37" cx="672.1" cy="367.2" r="9.4"/>
<circle id="circle1104" class="st38" cx="652.2" cy="367.2" r="9.4"/>
<circle id="circle1106" class="st36" cx="692.6" cy="367.2" r="9.4"/>
<circle id="circle281" class="st36" cx="575.7" cy="501.8" r="11.6"/>
<rect x="21.4" y="576" class="st38" width="635.3" height="9.1"/>
<rect x="21.4" y="554.3" class="st38" width="9.1" height="30.9"/>
<rect x="21.4" y="475.4" class="st37" width="655.3" height="9.1"/>
<rect x="21.4" y="475.4" class="st37" width="9.1" height="48.2"/>
<ellipse id="circle281-2" transform="matrix(1 -6.172493e-03 6.172493e-03 1 -3.2316 0.1713)" class="st37" cx="26.1" cy="523.6" rx="10.5" ry="10.5"/>
<ellipse id="circle281-3" transform="matrix(5.746847e-03 -1 1 5.746847e-03 -528.3082 577.1848)" class="st38" cx="26.1" cy="554.3" rx="10.5" ry="10.5"/>
<rect id="rect853" x="575.7" y="497.3" class="st36" width="121.5" height="9.1"/>
</svg>
