<?xml version="1.0" encoding="utf-8"?>
<!-- Generator: Adobe Illustrator 27.8.0, SVG Export Plug-In . SVG Version: 6.00 Build 0)  -->
<svg version="1.1" id="Ebene_1" xmlns="http://www.w3.org/2000/svg" xmlns:xlink="http://www.w3.org/1999/xlink" x="0px" y="0px"
	 viewBox="0 0 431.3 1055.3" style="enable-background:new 0 0 431.3 1055.3;" xml:space="preserve">
<style type="text/css">
	.st0{fill:#02814B;}
	.st1{fill:#D4C547;}
	.st2{fill:#525035;}
	.st3{fill:#FEE86F;}
	.st4{fill:#FFE17B;}
	.st5{fill:#DDDDDD;}
	.st6{fill:#7F7F7F;}
	.st7{fill:#474544;}
	.st8{fill:#E2EADE;}
	.st9{fill:#C29148;}
	.st10{fill:#8DDDDE;}
	.st11{fill:#C1C1C1;}
	.st12{fill:#C2BFAB;}
	.st13{fill:none;stroke:#95AC6E;stroke-miterlimit:10;}
	.st14{fill:#E8D28A;}
	.st15{fill:#CECECE;}
	.st16{fill:#FFFFFF;}
	.st17{fill:#36323E;}
	.st18{fill:#868C97;}
	.st19{fill:#FCFCFA;}
	.st20{fill:#141316;}
	.st21{fill:#B9A68F;}
	.st22{fill:#E0B45B;}
	.st23{fill:#ABA28E;}
	.st24{fill:none;stroke:#FFFFFF;stroke-miterlimit:10;}
	.st25{fill:#915114;}
	.st26{fill:#E20E18;}
	.st27{fill:#26AF88;}
	.st28{fill:#010101;}
	.st29{fill:#1B1B1B;}
	.st30{opacity:0.99;fill:#808181;enable-background:new    ;}
	.st31{fill:#2B4B9B;}
	.st32{fill:#CDCCCC;}
	.st33{fill:#B4B4B4;}
	.st34{fill:#343434;}
	.st35{fill:#111227;}
	.st36{enable-background:new    ;}
</style>
<g>
	<path class="st0" d="M243.3,473.3v-11.9H0.2v11.9c2.3,0.9,3.9,3.1,3.9,5.7s-1.6,4.8-3.9,5.7v18.1c2.3,0.9,3.9,3.1,3.9,5.7
		s-1.6,4.8-3.9,5.7v18.1c2.3,0.9,3.9,3.1,3.9,5.7s-1.6,4.8-3.9,5.7v18.1c2.3,0.9,3.9,3.1,3.9,5.7s-1.6,4.8-3.9,5.7v18.1
		c2.3,0.9,3.9,3.1,3.9,5.7s-1.6,4.8-3.9,5.7v18.1c2.3,0.9,3.9,3.1,3.9,5.7s-1.6,4.8-3.9,5.7v18.1c2.3,0.9,3.9,3.1,3.9,5.7
		s-1.6,4.8-3.9,5.7v18.1c2.3,0.9,3.9,3.1,3.9,5.7s-1.6,4.8-3.9,5.7v18.1c2.3,0.9,3.9,3.1,3.9,5.7s-1.6,4.8-3.9,5.7v18.1
		c2.3,0.9,3.9,3.1,3.9,5.7s-1.6,4.8-3.9,5.7v18.1c2.3,0.9,3.9,3.1,3.9,5.7s-1.6,4.8-3.9,5.7v18.1c2.3,0.9,3.9,3.1,3.9,5.7
		s-1.6,4.8-3.9,5.7v18.1c2.3,0.9,3.9,3.1,3.9,5.7s-1.6,4.8-3.9,5.7v18.1c2.3,0.9,3.9,3.1,3.9,5.7s-1.6,4.8-3.9,5.7v18.1
		c2.3,0.9,3.9,3.1,3.9,5.7s-1.6,4.8-3.9,5.7v18.1c2.3,0.9,3.9,3.1,3.9,5.7s-1.6,4.8-3.9,5.7v18.1c2.3,0.9,3.9,3.1,3.9,5.7
		s-1.6,4.8-3.9,5.7V973c2.3,0.9,3.9,3.1,3.9,5.7s-1.6,4.8-3.9,5.7v18c2.3,0.9,3.9,3.1,3.9,5.7s-1.6,4.8-3.9,5.7v18.1
		c2.3,0.9,3.9,3.1,3.9,5.7s-1.6,4.8-3.9,5.7v11.9h78.5h7.5h11.3h18.5h11.3H146h11.3h4h82v-11.9c-2.2-0.9-3.8-3.1-3.8-5.7
		c0-2.6,1.6-4.8,3.8-5.7v-18.1c-2.2-0.9-3.8-3.1-3.8-5.7s1.6-4.8,3.8-5.7v-18.1c-2.2-0.9-3.8-3.1-3.8-5.7s1.6-4.8,3.8-5.7V955
		c-2.2-0.9-3.8-3.1-3.8-5.7s1.6-4.8,3.8-5.7v-18.1c-2.2-0.9-3.8-3.1-3.8-5.7s1.6-4.8,3.8-5.7v-18.1c-2.2-0.9-3.8-3.1-3.8-5.7
		s1.6-4.8,3.8-5.7v-18.1c-2.2-0.9-3.8-3.1-3.8-5.7s1.6-4.8,3.8-5.7v-18.1c-2.2-0.9-3.8-3.1-3.8-5.7s1.6-4.8,3.8-5.7V808
		c-2.2-0.9-3.8-3.1-3.8-5.7s1.6-4.8,3.8-5.7v-18.1c-2.2-0.9-3.8-3.1-3.8-5.7s1.6-4.8,3.8-5.7v-18.1c-2.2-0.9-3.8-3.1-3.8-5.7
		s1.6-4.8,3.8-5.7v-18.1c-2.2-0.9-3.8-3.1-3.8-5.7s1.6-4.8,3.8-5.7v-18.1c-2.2-0.9-3.8-3.1-3.8-5.7s1.6-4.8,3.8-5.7V661
		c-2.2-0.9-3.8-3.1-3.8-5.7s1.6-4.8,3.8-5.7v-18.1c-2.2-0.9-3.8-3.1-3.8-5.7s1.6-4.8,3.8-5.7v-18.1c-2.2-0.9-3.8-3.1-3.8-5.7
		s1.6-4.8,3.8-5.7v-18.1c-2.2-0.9-3.8-3.1-3.8-5.7s1.6-4.8,3.8-5.7v-18.1c-2.2-0.9-3.8-3.1-3.8-5.7s1.6-4.8,3.8-5.7V514
		c-2.2-0.9-3.8-3.1-3.8-5.7s1.6-4.8,3.8-5.7v-18.1c-2.2-0.9-3.8-3.1-3.8-5.7S241.1,474.2,243.3,473.3z M15.8,1043.6
		c-3.4,0-6.1-2.7-6.1-6.1c0-3.4,2.7-6.1,6.1-6.1s6.1,2.7,6.1,6.1C21.9,1040.9,19.2,1043.6,15.8,1043.6z M15.8,1014.2
		c-3.4,0-6.1-2.7-6.1-6.1s2.7-6.1,6.1-6.1s6.1,2.7,6.1,6.1S19.2,1014.2,15.8,1014.2z M15.8,984.8c-3.4,0-6.1-2.7-6.1-6.1
		s2.7-6.1,6.1-6.1s6.1,2.7,6.1,6.1S19.2,984.8,15.8,984.8z M15.8,955.4c-3.4,0-6.1-2.7-6.1-6.1s2.7-6.1,6.1-6.1s6.1,2.7,6.1,6.1
		S19.2,955.4,15.8,955.4z M15.8,926c-3.4,0-6.1-2.7-6.1-6.1s2.7-6.1,6.1-6.1s6.1,2.7,6.1,6.1S19.2,926,15.8,926z M15.8,896.6
		c-3.4,0-6.1-2.7-6.1-6.1s2.7-6.1,6.1-6.1s6.1,2.7,6.1,6.1S19.2,896.6,15.8,896.6z M15.8,867.2c-3.4,0-6.1-2.7-6.1-6.1
		s2.7-6.1,6.1-6.1s6.1,2.7,6.1,6.1S19.2,867.2,15.8,867.2z M15.8,837.8c-3.4,0-6.1-2.7-6.1-6.1s2.7-6.1,6.1-6.1s6.1,2.7,6.1,6.1
		S19.2,837.8,15.8,837.8z M15.8,808.4c-3.4,0-6.1-2.7-6.1-6.1s2.7-6.1,6.1-6.1s6.1,2.7,6.1,6.1S19.2,808.4,15.8,808.4z M15.8,779
		c-3.4,0-6.1-2.7-6.1-6.1s2.7-6.1,6.1-6.1s6.1,2.7,6.1,6.1S19.2,779,15.8,779z M15.8,749.6c-3.4,0-6.1-2.7-6.1-6.1s2.7-6.1,6.1-6.1
		s6.1,2.7,6.1,6.1S19.2,749.6,15.8,749.6z M15.8,720.2c-3.4,0-6.1-2.7-6.1-6.1s2.7-6.1,6.1-6.1s6.1,2.7,6.1,6.1
		S19.2,720.2,15.8,720.2z M15.8,690.8c-3.4,0-6.1-2.7-6.1-6.1s2.7-6.1,6.1-6.1s6.1,2.7,6.1,6.1S19.2,690.8,15.8,690.8z M15.8,661.4
		c-3.4,0-6.1-2.7-6.1-6.1s2.7-6.1,6.1-6.1s6.1,2.7,6.1,6.1S19.2,661.4,15.8,661.4z M15.8,632c-3.4,0-6.1-2.7-6.1-6.1
		s2.7-6.1,6.1-6.1s6.1,2.7,6.1,6.1S19.2,632,15.8,632z M15.8,602.7c-3.4,0-6.1-2.7-6.1-6.1s2.7-6.1,6.1-6.1s6.1,2.7,6.1,6.1
		S19.2,602.7,15.8,602.7z M15.8,573.3c-3.4,0-6.1-2.7-6.1-6.1s2.7-6.1,6.1-6.1c3.4,0,6.1,2.7,6.1,6.1S19.2,573.3,15.8,573.3z
		 M15.8,543.9c-3.4,0-6.1-2.7-6.1-6.1s2.7-6.1,6.1-6.1s6.1,2.7,6.1,6.1S19.2,543.9,15.8,543.9z M15.8,514.5c-3.4,0-6.1-2.7-6.1-6.1
		s2.7-6.1,6.1-6.1s6.1,2.7,6.1,6.1S19.2,514.5,15.8,514.5z M15.8,485.1c-3.4,0-6.1-2.7-6.1-6.1s2.7-6.1,6.1-6.1s6.1,2.7,6.1,6.1
		S19.2,485.1,15.8,485.1z M53.7,1043.5c-6.7,0-12.1-5.4-12.1-12.1s5.4-12.1,12.1-12.1c6.7,0,12.1,5.4,12.1,12.1
		S60.4,1043.5,53.7,1043.5z M53.7,496.4c-6.7,0-12.1-5.4-12.1-12.1c0-6.7,5.4-12.1,12.1-12.1c6.7,0,12.1,5.4,12.1,12.1
		C65.8,491,60.4,496.4,53.7,496.4z M127.6,829.6c-3.1,0-5.7-2.6-5.7-5.7s2.6-5.7,5.7-5.7c3.1,0,5.7,2.6,5.7,5.7
		S130.7,829.6,127.6,829.6z M157,829.6c-3.1,0-5.7-2.6-5.7-5.7s2.6-5.7,5.7-5.7c3.1,0,5.7,2.6,5.7,5.7S160.2,829.6,157,829.6z
		 M186.2,472.2c6.7,0,12.1,5.4,12.1,12.1c0,6.7-5.4,12.1-12.1,12.1s-12.1-5.4-12.1-12.1C174.1,477.6,179.6,472.2,186.2,472.2z
		 M192.5,823.9c0,3.1-2.6,5.7-5.7,5.7c-3.1,0-5.7-2.6-5.7-5.7s2.6-5.7,5.7-5.7C190,818.2,192.5,820.8,192.5,823.9z M188.2,1043.5
		c-6.7,0-12.1-5.4-12.1-12.1s5.4-12.1,12.1-12.1s12.1,5.4,12.1,12.1S194.9,1043.5,188.2,1043.5z M227.8,1043.6
		c-3.4,0-6.1-2.7-6.1-6.1c0-3.4,2.7-6.1,6.1-6.1s6.1,2.7,6.1,6.1C233.9,1040.9,231.2,1043.6,227.8,1043.6z M227.8,1014.2
		c-3.4,0-6.1-2.7-6.1-6.1s2.7-6.1,6.1-6.1s6.1,2.7,6.1,6.1S231.2,1014.2,227.8,1014.2z M227.8,984.8c-3.4,0-6.1-2.7-6.1-6.1
		s2.7-6.1,6.1-6.1s6.1,2.7,6.1,6.1S231.2,984.8,227.8,984.8z M227.8,955.4c-3.4,0-6.1-2.7-6.1-6.1s2.7-6.1,6.1-6.1s6.1,2.7,6.1,6.1
		S231.2,955.4,227.8,955.4z M227.8,926c-3.4,0-6.1-2.7-6.1-6.1s2.7-6.1,6.1-6.1s6.1,2.7,6.1,6.1S231.2,926,227.8,926z M227.8,896.6
		c-3.4,0-6.1-2.7-6.1-6.1s2.7-6.1,6.1-6.1s6.1,2.7,6.1,6.1S231.2,896.6,227.8,896.6z M227.8,867.2c-3.4,0-6.1-2.7-6.1-6.1
		s2.7-6.1,6.1-6.1s6.1,2.7,6.1,6.1S231.2,867.2,227.8,867.2z M227.8,837.8c-3.4,0-6.1-2.7-6.1-6.1s2.7-6.1,6.1-6.1s6.1,2.7,6.1,6.1
		S231.2,837.8,227.8,837.8z M227.8,808.4c-3.4,0-6.1-2.7-6.1-6.1s2.7-6.1,6.1-6.1s6.1,2.7,6.1,6.1S231.2,808.4,227.8,808.4z
		 M227.8,779c-3.4,0-6.1-2.7-6.1-6.1s2.7-6.1,6.1-6.1s6.1,2.7,6.1,6.1S231.2,779,227.8,779z M227.8,749.6c-3.4,0-6.1-2.7-6.1-6.1
		s2.7-6.1,6.1-6.1s6.1,2.7,6.1,6.1S231.2,749.6,227.8,749.6z M227.8,720.2c-3.4,0-6.1-2.7-6.1-6.1s2.7-6.1,6.1-6.1s6.1,2.7,6.1,6.1
		S231.2,720.2,227.8,720.2z M227.8,690.8c-3.4,0-6.1-2.7-6.1-6.1s2.7-6.1,6.1-6.1s6.1,2.7,6.1,6.1S231.2,690.8,227.8,690.8z
		 M227.8,661.4c-3.4,0-6.1-2.7-6.1-6.1s2.7-6.1,6.1-6.1s6.1,2.7,6.1,6.1S231.2,661.4,227.8,661.4z M227.8,632
		c-3.4,0-6.1-2.7-6.1-6.1s2.7-6.1,6.1-6.1s6.1,2.7,6.1,6.1S231.2,632,227.8,632z M227.8,602.7c-3.4,0-6.1-2.7-6.1-6.1
		s2.7-6.1,6.1-6.1s6.1,2.7,6.1,6.1S231.2,602.7,227.8,602.7z M227.8,573.3c-3.4,0-6.1-2.7-6.1-6.1s2.7-6.1,6.1-6.1s6.1,2.7,6.1,6.1
		S231.2,573.3,227.8,573.3z M227.8,543.9c-3.4,0-6.1-2.7-6.1-6.1s2.7-6.1,6.1-6.1s6.1,2.7,6.1,6.1S231.2,543.9,227.8,543.9z
		 M227.8,514.5c-3.4,0-6.1-2.7-6.1-6.1s2.7-6.1,6.1-6.1s6.1,2.7,6.1,6.1S231.2,514.5,227.8,514.5z M227.8,485.1
		c-3.4,0-6.1-2.7-6.1-6.1s2.7-6.1,6.1-6.1s6.1,2.7,6.1,6.1S231.2,485.1,227.8,485.1z"/>
	<path class="st1" d="M53.7,463.7c-11.3,0-20.5,9.2-20.5,20.5c0,11.3,9.2,20.5,20.5,20.5s20.5-9.2,20.5-20.5
		C74.3,472.9,65.1,463.7,53.7,463.7z M53.7,496.4c-6.7,0-12.1-5.4-12.1-12.1c0-6.7,5.4-12.1,12.1-12.1c6.7,0,12.1,5.4,12.1,12.1
		C65.8,491,60.4,496.4,53.7,496.4z"/>
	<path class="st1" d="M186.3,463.7c-11.3,0-20.5,9.2-20.5,20.5c0,11.3,9.2,20.5,20.5,20.5c11.3,0,20.5-9.2,20.5-20.5
		C206.8,472.9,197.6,463.7,186.3,463.7z M186.3,496.4c-6.7,0-12.1-5.4-12.1-12.1c0-6.7,5.4-12.1,12.1-12.1c6.7,0,12.1,5.4,12.1,12.1
		C198.4,491,193,496.4,186.3,496.4z"/>
	<path class="st1" d="M53.7,1010.9c-11.3,0-20.5,9.2-20.5,20.5s9.2,20.5,20.5,20.5s20.5-9.2,20.5-20.5S65.1,1010.9,53.7,1010.9z
		 M53.7,1043.6c-6.7,0-12.1-5.4-12.1-12.1s5.4-12.1,12.1-12.1c6.7,0,12.1,5.4,12.1,12.1S60.4,1043.6,53.7,1043.6z"/>
	<path class="st1" d="M188.3,1010.9c-11.3,0-20.5,9.2-20.5,20.5s9.2,20.5,20.5,20.5c11.3,0,20.5-9.2,20.5-20.5
		S199.6,1010.9,188.3,1010.9z M188.3,1043.6c-6.7,0-12.1-5.4-12.1-12.1s5.4-12.1,12.1-12.1c6.7,0,12.1,5.4,12.1,12.1
		S195,1043.6,188.3,1043.6z"/>
	<circle class="st2" cx="55" cy="549" r="10.6"/>
	<circle class="st3" cx="55" cy="549" r="5.5"/>
	<path class="st4" d="M17.5,528.8H0.3v3.4c2.3,0.9,3.9,3.1,3.9,5.7s-1.6,4.8-3.9,5.7v3.4h17.2c5,0,9-4,9-9v0
		C26.5,532.8,22.4,528.8,17.5,528.8z M15.9,543.9c-3.4,0-6.1-2.7-6.1-6.1s2.7-6.1,6.1-6.1s6.1,2.7,6.1,6.1S19.2,543.9,15.9,543.9z"
		/>
	<path class="st4" d="M17.5,675.8H0.3v3.4c2.3,0.9,3.9,3.1,3.9,5.7s-1.6,4.8-3.9,5.7v3.4h17.2c5,0,9-4,9-9S22.4,675.8,17.5,675.8z
		 M15.9,690.9c-3.4,0-6.1-2.7-6.1-6.1s2.7-6.1,6.1-6.1s6.1,2.7,6.1,6.1S19.2,690.9,15.9,690.9z"/>
	<path class="st4" d="M17.5,822.7H0.3v3.4c2.3,0.9,3.9,3.1,3.9,5.7s-1.6,4.8-3.9,5.7v3.4h17.2c5,0,9-4,9-9S22.4,822.7,17.5,822.7z
		 M15.9,837.8c-3.4,0-6.1-2.7-6.1-6.1s2.7-6.1,6.1-6.1s6.1,2.7,6.1,6.1S19.2,837.8,15.9,837.8z"/>
	<path class="st4" d="M17.5,852.1H0.3v3.4c2.3,0.9,3.9,3.1,3.9,5.7s-1.6,4.8-3.9,5.7v3.4h17.2c5,0,9-4,9-9S22.4,852.1,17.5,852.1z
		 M15.9,867.2c-3.4,0-6.1-2.7-6.1-6.1s2.7-6.1,6.1-6.1s6.1,2.7,6.1,6.1S19.2,867.2,15.9,867.2z"/>
	<path class="st4" d="M17.5,881.5H0.3v3.4c2.3,0.9,3.9,3.1,3.9,5.7s-1.6,4.8-3.9,5.7v3.4h17.2c5,0,9-4,9-9S22.4,881.5,17.5,881.5z
		 M15.9,896.6c-3.4,0-6.1-2.7-6.1-6.1s2.7-6.1,6.1-6.1s6.1,2.7,6.1,6.1S19.2,896.6,15.9,896.6z"/>
	<path class="st4" d="M17.5,910.9H0.3v3.4c2.3,0.9,3.9,3.1,3.9,5.7s-1.6,4.8-3.9,5.7v3.4h17.2c5,0,9-4,9-9S22.4,910.9,17.5,910.9z
		 M15.9,926c-3.4,0-6.1-2.7-6.1-6.1s2.7-6.1,6.1-6.1s6.1,2.7,6.1,6.1S19.2,926,15.9,926z"/>
	<path class="st4" d="M17.5,969.7H0.3v3.4c2.3,0.9,3.9,3.1,3.9,5.7s-1.6,4.8-3.9,5.7v3.4h17.2c5,0,9-4,9-9v0
		C26.5,973.8,22.4,969.7,17.5,969.7z M15.9,984.8c-3.4,0-6.1-2.7-6.1-6.1s2.7-6.1,6.1-6.1s6.1,2.7,6.1,6.1S19.2,984.8,15.9,984.8z"
		/>
	<path class="st4" d="M17.5,999.1H0.3v3.4c2.3,0.9,3.9,3.1,3.9,5.7s-1.6,4.8-3.9,5.7v3.4h17.2c5,0,9-4,9-9v0
		C26.5,1003.1,22.4,999.1,17.5,999.1z M15.9,1014.2c-3.4,0-6.1-2.7-6.1-6.1s2.7-6.1,6.1-6.1s6.1,2.7,6.1,6.1
		S19.2,1014.2,15.9,1014.2z"/>
	<path class="st4" d="M17.5,1028.5H0.3v3.4c2.3,0.9,3.9,3.1,3.9,5.7s-1.6,4.8-3.9,5.7v3.4h17.2c5,0,9-4,9-9
		C26.5,1032.5,22.4,1028.5,17.5,1028.5z M15.9,1043.6c-3.4,0-6.1-2.7-6.1-6.1c0-3.4,2.7-6.1,6.1-6.1s6.1,2.7,6.1,6.1
		C21.9,1040.9,19.2,1043.6,15.9,1043.6z"/>
	<path class="st4" d="M239.5,479c0-2.6,1.6-4.8,3.9-5.7V470h-17.2c-5,0-9,4-9,9s4,9,9,9h17.2v-3.4
		C241.2,483.8,239.5,481.6,239.5,479z M227.8,485.1c-3.4,0-6.1-2.7-6.1-6.1s2.7-6.1,6.1-6.1s6.1,2.7,6.1,6.1
		S231.2,485.1,227.8,485.1z"/>
	<path class="st4" d="M239.5,508.4c0-2.6,1.6-4.8,3.9-5.7v-3.4h-17.2c-5,0-9,4-9,9v0c0,5,4,9,9,9h17.2v-3.4
		C241.2,513.2,239.5,511,239.5,508.4z M227.8,514.5c-3.4,0-6.1-2.7-6.1-6.1s2.7-6.1,6.1-6.1s6.1,2.7,6.1,6.1
		S231.2,514.5,227.8,514.5z"/>
	<path class="st4" d="M239.5,537.8c0-2.6,1.6-4.8,3.9-5.7v-3.4h-17.2c-5,0-9,4-9,9v0c0,5,4,9,9,9h17.2v-3.4
		C241.2,542.6,239.5,540.4,239.5,537.8z M227.8,543.9c-3.4,0-6.1-2.7-6.1-6.1s2.7-6.1,6.1-6.1s6.1,2.7,6.1,6.1
		S231.2,543.9,227.8,543.9z"/>
	<path class="st4" d="M239.5,567.2c0-2.6,1.6-4.8,3.9-5.7v-3.4h-17.2c-5,0-9,4-9,9s4,9,9,9h17.2v-3.4
		C241.2,572,239.5,569.8,239.5,567.2z M227.8,573.3c-3.4,0-6.1-2.7-6.1-6.1s2.7-6.1,6.1-6.1s6.1,2.7,6.1,6.1
		S231.2,573.3,227.8,573.3z"/>
	<path class="st4" d="M239.5,596.6c0-2.6,1.6-4.8,3.9-5.7v-3.4h-17.2c-5,0-9,4-9,9s4,9,9,9h17.2v-3.4
		C241.2,601.4,239.5,599.2,239.5,596.6z M227.8,602.7c-3.4,0-6.1-2.7-6.1-6.1s2.7-6.1,6.1-6.1s6.1,2.7,6.1,6.1
		S231.2,602.7,227.8,602.7z"/>
	<path class="st4" d="M239.5,626c0-2.6,1.6-4.8,3.9-5.7V617h-17.2c-5,0-9,4-9,9s4,9,9,9h17.2v-3.4
		C241.2,630.8,239.5,628.6,239.5,626z M227.8,632.1c-3.4,0-6.1-2.7-6.1-6.1s2.7-6.1,6.1-6.1s6.1,2.7,6.1,6.1
		S231.2,632.1,227.8,632.1z"/>
	<path class="st4" d="M239.5,684.8c0-2.6,1.6-4.8,3.9-5.7v-3.4h-17.2c-5,0-9,4-9,9s4,9,9,9h17.2v-3.4
		C241.2,689.6,239.5,687.4,239.5,684.8z M227.8,690.9c-3.4,0-6.1-2.7-6.1-6.1s2.7-6.1,6.1-6.1s6.1,2.7,6.1,6.1
		S231.2,690.9,227.8,690.9z"/>
	<path class="st4" d="M239.5,743.6c0-2.6,1.6-4.8,3.9-5.7v-3.4h-17.2c-5,0-9,4-9,9v0c0,5,4,9,9,9h17.2v-3.4
		C241.2,748.4,239.5,746.2,239.5,743.6z M227.8,749.7c-3.4,0-6.1-2.7-6.1-6.1s2.7-6.1,6.1-6.1s6.1,2.7,6.1,6.1
		S231.2,749.7,227.8,749.7z"/>
	<path class="st4" d="M239.5,773c0-2.6,1.6-4.8,3.9-5.7v-3.4h-17.2c-5,0-9,4-9,9v0c0,5,4,9,9,9h17.2v-3.4
		C241.2,777.8,239.5,775.5,239.5,773z M227.8,779.1c-3.4,0-6.1-2.7-6.1-6.1s2.7-6.1,6.1-6.1s6.1,2.7,6.1,6.1
		S231.2,779.1,227.8,779.1z"/>
	<path class="st4" d="M239.5,802.4c0-2.6,1.6-4.8,3.9-5.7v-3.4h-17.2c-5,0-9,4-9,9s4,9,9,9h17.2V808
		C241.2,807.1,239.5,804.9,239.5,802.4z M227.8,808.4c-3.4,0-6.1-2.7-6.1-6.1s2.7-6.1,6.1-6.1s6.1,2.7,6.1,6.1
		S231.2,808.4,227.8,808.4z"/>
	<path class="st4" d="M239.5,831.8c0-2.6,1.6-4.8,3.9-5.7v-3.4h-17.2c-5,0-9,4-9,9s4,9,9,9h17.2v-3.4
		C241.2,836.5,239.5,834.3,239.5,831.8z M227.8,837.8c-3.4,0-6.1-2.7-6.1-6.1s2.7-6.1,6.1-6.1s6.1,2.7,6.1,6.1
		S231.2,837.8,227.8,837.8z"/>
	<path class="st4" d="M239.5,861.2c0-2.6,1.6-4.8,3.9-5.7v-3.4h-17.2c-5,0-9,4-9,9s4,9,9,9h17.2v-3.4
		C241.2,865.9,239.5,863.7,239.5,861.2z M227.8,867.2c-3.4,0-6.1-2.7-6.1-6.1s2.7-6.1,6.1-6.1s6.1,2.7,6.1,6.1
		S231.2,867.2,227.8,867.2z"/>
	<path class="st4" d="M239.5,890.5c0-2.6,1.6-4.8,3.9-5.7v-3.4h-17.2c-5,0-9,4-9,9s4,9,9,9h17.2v-3.4
		C241.2,895.3,239.5,893.1,239.5,890.5z M227.8,896.6c-3.4,0-6.1-2.7-6.1-6.1s2.7-6.1,6.1-6.1s6.1,2.7,6.1,6.1
		S231.2,896.6,227.8,896.6z"/>
	<path class="st4" d="M239.5,919.9c0-2.6,1.6-4.8,3.9-5.7v-3.4h-17.2c-5,0-9,4-9,9s4,9,9,9h17.2v-3.4
		C241.2,924.7,239.5,922.5,239.5,919.9z M227.8,926c-3.4,0-6.1-2.7-6.1-6.1s2.7-6.1,6.1-6.1s6.1,2.7,6.1,6.1S231.2,926,227.8,926z"
		/>
	<path class="st4" d="M239.5,978.7c0-2.6,1.6-4.8,3.9-5.7v-3.4h-17.2c-5,0-9,4-9,9v0c0,5,4,9,9,9h17.2v-3.4
		C241.2,983.5,239.5,981.3,239.5,978.7z M227.8,984.8c-3.4,0-6.1-2.7-6.1-6.1s2.7-6.1,6.1-6.1s6.1,2.7,6.1,6.1
		S231.2,984.8,227.8,984.8z"/>
	<path class="st4" d="M239.5,1008.1c0-2.6,1.6-4.8,3.9-5.7v-3.4h-17.2c-5,0-9,4-9,9v0c0,5,4,9,9,9h17.2v-3.4
		C241.2,1012.9,239.5,1010.7,239.5,1008.1z M227.8,1014.2c-3.4,0-6.1-2.7-6.1-6.1s2.7-6.1,6.1-6.1s6.1,2.7,6.1,6.1
		S231.2,1014.2,227.8,1014.2z"/>
	<path class="st5" d="M163.1,450.9l4.4-4.4l-2.3-2.3l-6.6,6.6h-1.5v-4.7c0-1.2-1-2.2-2.2-2.2H85.4c-1.2,0-2.2,1-2.2,2.2v4.7h-1.5
		l-6.6-6.6l-2.3,2.3l4.4,4.4c-0.6,0.2-1,0.8-1,1.4v56.3c0,0.9,0.7,1.6,1.6,1.6h84.6c0.9,0,1.6-0.7,1.6-1.6v-56.3
		C164,451.7,163.6,451.1,163.1,450.9z"/>
	<g>
		<path class="st6" d="M100.3,473.2c0-3.2-2.6-5.8-5.8-5.8s-5.8,2.6-5.8,5.8c0,1.4,0.5,2.7,1.3,3.7h-0.2v7.7c0,1.2,1,2.1,2.1,2.1H97
			c1.2,0,2.1-1,2.1-2.1v-7.7H99C99.8,475.9,100.3,474.6,100.3,473.2z"/>
		<path class="st6" d="M155.5,473.2c0-3.2-2.6-5.8-5.8-5.8s-5.8,2.6-5.8,5.8c0,1.4,0.5,2.7,1.3,3.7H145v7.7c0,1.2,1,2.1,2.1,2.1h5.1
			c1.2,0,2.1-1,2.1-2.1v-7.7h-0.2C155,475.9,155.5,474.6,155.5,473.2z"/>
	</g>
	<path class="st7" d="M200.9,603.3h-21c-1.2,0-2.2-1-2.2-2.2v-26.7c0-1.2,1-2.2,2.2-2.2h21c1.2,0,2.2,1,2.2,2.2v26.7
		C203,602.4,202.1,603.3,200.9,603.3z"/>
	<g>
		<rect x="132" y="539.5" class="st8" width="21.7" height="14.4"/>
		<path class="st9" d="M149.3,553.9c-2-1.8-3.2-4.4-3.2-7.2s1.2-5.4,3.2-7.2h-12.8c2,1.8,3.2,4.4,3.2,7.2s-1.2,5.4-3.2,7.2H149.3z"
			/>
	</g>
	<g>
		<rect x="132.3" y="624.9" class="st8" width="21.7" height="14.4"/>
		<path class="st9" d="M149.6,639.3c-2-1.8-3.2-4.4-3.2-7.2s1.2-5.4,3.2-7.2h-12.8c2,1.8,3.2,4.4,3.2,7.2s-1.2,5.4-3.2,7.2H149.6z"
			/>
	</g>
	<g>
		<rect x="132.3" y="644" class="st8" width="21.7" height="14.4"/>
		<path class="st9" d="M149.6,658.5c-2-1.8-3.2-4.4-3.2-7.2s1.2-5.4,3.2-7.2h-12.8c2,1.8,3.2,4.4,3.2,7.2s-1.2,5.4-3.2,7.2H149.6z"
			/>
	</g>
	<g>
		
			<rect x="63.8" y="692.4" transform="matrix(6.123234e-17 -1 1 6.123234e-17 -631.1656 764.202)" class="st8" width="5.4" height="10.6"/>
		
			<rect x="63.8" y="694.7" transform="matrix(6.123234e-17 -1 1 6.123234e-17 -631.1656 764.202)" class="st9" width="5.4" height="6"/>
	</g>
	<g>
		<rect x="177.1" y="675" class="st8" width="5.4" height="10.6"/>
		<rect x="177.1" y="677.3" class="st9" width="5.4" height="6"/>
	</g>
	<rect x="179.5" y="524.9" class="st7" width="18.9" height="29.3"/>
	<g>
		<rect x="171.6" y="626.2" class="st8" width="20.6" height="9.6"/>
		<rect x="176.2" y="626.2" class="st10" width="11.5" height="9.6"/>
	</g>
	<rect x="120.2" y="794.3" class="st9" width="4.2" height="6.9"/>
	<rect x="126.9" y="794.3" class="st9" width="4.2" height="6.9"/>
	
		<rect x="66.6" y="704.3" transform="matrix(6.123234e-17 -1 1 6.123234e-17 -638.9622 776.4449)" class="st9" width="4.2" height="6.9"/>
	
		<rect x="89.5" y="637.1" transform="matrix(6.123234e-17 -1 1 6.123234e-17 -548.8975 732.2219)" class="st9" width="4.2" height="6.9"/>
	
		<rect x="66.3" y="747.9" transform="matrix(6.123234e-17 -1 1 6.123234e-17 -682.9163 819.6865)" class="st9" width="4.2" height="6.9"/>
	<rect x="195" y="753.1" class="st7" width="4.2" height="6.9"/>
	
		<rect x="189.2" y="691.8" transform="matrix(6.123234e-17 -1 1 6.123234e-17 -503.946 886.5978)" class="st7" width="4.2" height="6.9"/>
	
		<rect x="87.2" y="536.2" transform="matrix(6.123234e-17 -1 1 6.123234e-17 -450.2644 628.9269)" class="st7" width="4.2" height="6.9"/>
	
		<rect x="82.3" y="548.4" transform="matrix(6.123234e-17 -1 1 6.123234e-17 -467.3796 636.2865)" class="st7" width="4.2" height="6.9"/>
	
		<rect x="192.8" y="640.9" transform="matrix(6.123234e-17 -1 1 6.123234e-17 -449.3363 839.2507)" class="st7" width="4.2" height="6.9"/>
	<path class="st11" d="M186.3,958H57.5c-2.1,0-3.9-1.7-3.9-3.9V846c0-2.1,1.7-3.9,3.9-3.9h128.8c2.1,0,3.9,1.7,3.9,3.9v108.1
		C190.2,956.2,188.5,958,186.3,958z"/>
	<rect x="101.5" y="1004.3" class="st12" width="10.5" height="5.9"/>
	<rect x="130.3" y="1004.4" class="st12" width="10.5" height="5.9"/>
	<rect x="101.5" y="1042" class="st12" width="10.5" height="5.9"/>
	<rect x="130.3" y="1042.2" class="st12" width="10.5" height="5.9"/>
	<polyline class="st13" points="17.5,486.8 17.5,491.2 35.4,509.1 35.4,557.7 51,573.3 51,708.1 55.9,713 91.2,713 	"/>
	<polyline class="st13" points="22.9,513.6 31,521.7 31,559.6 46.7,575.3 46.7,710.6 52.6,716.5 91,716.5 	"/>
	<polyline class="st13" points="23.2,572.1 43,591.8 43,713 53.4,723.4 95,723.4 	"/>
	<polyline class="st13" points="23.2,601.5 39.8,618 39.8,715 51.9,727.1 95.1,727.1 	"/>
	<polyline class="st13" points="23.2,631.6 35.6,644 35.6,720 49.5,733.9 93.4,733.9 	"/>
	<polyline class="st13" points="22.9,659.8 31.6,668.5 31.6,722.6 46.4,737.4 96.1,737.4 	"/>
	<polyline class="st13" points="22.9,718.4 45.3,740.9 102.7,740.9 	"/>
	<line class="st13" x1="23.7" y1="744.4" x2="98.8" y2="744.4"/>
	<path class="st13" d="M23.2,770.7c0.1-0.6,17.3-17.3,17.3-17.3H53l4.9,4.9h45.7"/>
	<polyline class="st13" points="20.4,796.6 25.7,791.3 25.7,783.5 30.9,778.4 30.9,769.9 43.9,756.9 52.6,756.9 57.3,761.6 
		95.3,761.6 	"/>
	<path class="st13" d="M30.7,786.8l3.4-3.4c0,0-0.7-8.9,0-9.6c0.7-0.7,6-6,6-6l6.3-6.3h6.1l3.7,3.7h35.1"/>
	<polyline class="st13" points="29.1,842.7 29.1,795.1 38.7,785.5 93.4,785.5 95,783.9 95,774.2 	"/>
	<polyline class="st13" points="17.5,941 17.5,937.3 32.9,921.9 32.9,841.6 35.7,838.9 35.7,797.1 42,790.7 94.2,790.7 98.4,786.5 
		98.4,779.2 	"/>
	<path class="st13" d="M35.7,824.5"/>
	<path class="st13" d="M35.7,839.8"/>
	<polyline class="st13" points="23.6,1001.6 30.4,994.8 30.4,930.2 37.5,924.3 	"/>
	<polyline class="st13" points="35.6,934.6 42.6,927.5 42.6,837.8 39.9,835.2 39.9,798.3 44.6,793.7 94.9,793.7 101.9,786.6 
		101.9,770 	"/>
	<polyline class="st13" points="108.9,776.8 108.9,785.5 95.9,798.6 91.5,798.6 	"/>
	<polyline class="st13" points="93.9,807.2 112.4,788.7 112.4,773.3 	"/>
	<polyline class="st13" points="115.9,778.6 115.9,790.3 102.2,804 102.2,824 95.9,830.3 65,830.3 55.5,820.8 	"/>
	<polyline class="st13" points="133.9,817.6 138.7,812.8 138.7,799.5 135.5,796.3 135.5,786.4 132.4,783.2 132.4,772.3 	"/>
	<polyline class="st13" points="137.3,776.3 137.3,784.2 139.3,786.2 139.3,792.6 152.7,806 164.9,806 179.1,820.3 	"/>
	<polyline class="st13" points="145.3,774.2 145.3,784.5 151.3,790.5 172.3,790.5 200.5,818.8 200.5,931.4 206.7,937.6 206.7,988.5 
		212.3,994 212.3,1014.2 223.3,1025.3 223.3,1030.6 	"/>
	<polyline class="st13" points="150.7,774.6 150.7,781.9 154.7,785.9 173.6,785.9 205.2,817.5 205.2,929 211.4,935.2 211.4,987.8 
		215.6,991.9 215.6,1000.7 	"/>
	<polyline class="st13" points="157.5,769.4 165.3,769.4 211.1,815.3 211.1,926.9 227.2,943 	"/>
	<polyline class="st13" points="157.5,765 166.9,765 192.1,790.2 	"/>
	<polyline class="st13" points="158.6,759.9 166.6,759.9 190.1,783.4 195.5,783.4 206.3,794.2 206.3,801.1 	"/>
	<polyline class="st13" points="158.2,755.4 167.3,755.4 190.4,778.5 200.9,778.5 	"/>
	<polyline class="st13" points="158.2,751.3 169.1,751.3 174.1,756.3 	"/>
	<polyline class="st13" points="158.2,746.3 175.4,746.3 202.8,773.7 206.3,773.7 215.9,783.3 215.9,795.7 	"/>
	<line class="st13" x1="158.6" y1="740.9" x2="167.7" y2="740.9"/>
	<polyline class="st13" points="156.4,735.5 171.8,735.5 179.2,742.9 	"/>
	<polyline class="st13" points="187.9,755.4 192.4,750.9 192.4,731.6 203.4,731.6 	"/>
	<polyline class="st13" points="158.6,727.1 209.5,727.1 218.5,736.1 	"/>
	<polyline class="st13" points="158.2,722.6 213.8,722.6 220.3,716.2 	"/>
	<polyline class="st13" points="157.5,718.4 198.8,718.4 207.1,710.2 207.1,669.9 219.6,657.4 	"/>
	<polyline class="st13" points="158.6,714.2 179.1,714.2 202.4,690.9 202.4,668.1 	"/>
	<polyline class="st13" points="159.7,709.5 167.2,709.5 171.8,704.8 	"/>
	<path class="st13" d="M147.8,704.2c-0.2-0.3,9.2-9.2,9.2-9.2h15.6v-33.5l2.8-2.8V651"/>
	<path class="st13" d="M147,701.9c0-0.2,0-6.5,0-6.5l10.3-10.3"/>
	<polyline class="st13" points="140.1,702.9 140.1,692.1 147.4,684.7 	"/>
	<line class="st13" x1="136.6" y1="699.8" x2="136.6" y2="682.3"/>
	<path class="st13" d="M133.1,701.6c0-0.6,0-15.2,0-15.2l-4.2-4.2"/>
	<path class="st13" d="M122.6,701.2c0-0.6,0-20.7,0-20.7"/>
	<path class="st13" d="M119.2,702.9c0-0.3,0-11.1,0-11.1l-7.6-7.6"/>
	<polyline class="st13" points="115.6,702.4 115.6,696 101.8,682.2 101.8,675.8 105,672.6 108.9,672.6 111.5,669.9 111.5,659.4 
		106.1,654 100,654 	"/>
	<polyline class="st13" points="99.8,659.8 105.4,659.8 108.5,662.9 108.5,668.1 105.7,670.8 101.1,670.8 97.7,674.2 97.7,683.3 
		108.7,694.3 108.7,701 	"/>
	<polyline class="st13" points="91.3,664.3 91.3,681 105.2,695 105.2,704.5 	"/>
	<polyline class="st13" points="76.5,663.5 76.5,670.7 85.9,680.1 85.9,683.9 99,697 99,706.1 	"/>
	<path class="st13" d="M94.8,700.1c0-0.1,0-5,0-5l-11.7-11.7v-1.1l-4.5-4.5h-6.4l-1.7-1.7h-6.9l-6.7-6.7V655l1.6-1.6h8.8"/>
	<polyline class="st13" points="69.1,647.4 60.4,647.4 55.4,652.4 55.4,670.2 63.4,678.2 69.5,678.2 75.9,684.6 78.4,684.6 
		92.5,698.6 	"/>
	<line class="st13" x1="73.8" y1="620.7" x2="56" y2="638.5"/>
	<polyline class="st13" points="137.6,681.3 137.6,675.2 134.7,672.2 134.7,669.2 130.2,664.8 125.2,664.8 121.1,660.7 121.1,641.7 
		109.7,630.3 109.7,548.1 124,533.8 124,524.7 127.7,521 	"/>
	<path class="st13" d="M135.3,574c0-0.6,0-9,0-9l-3.1-3.1h-9.8l-4.5-4.5v-4.3"/>
	<polyline class="st13" points="129.3,606.4 129.3,611.7 126.1,614.9 120.2,614.9 118.6,616.4 	"/>
	<polyline class="st13" points="62.9,519.5 62.9,528.9 79.1,545.1 83.6,545.1 88.5,549.9 88.5,558.2 83.9,562.7 83.9,576.2 	"/>
	<rect x="45.6" y="512.3" class="st14" width="18.9" height="9.6"/>
	<g>
		<rect x="102.7" y="510.2" class="st15" width="4.3" height="11.5"/>
		<rect x="110.4" y="510.2" class="st15" width="4.3" height="11.5"/>
		<rect x="118.1" y="510.2" class="st15" width="4.3" height="11.5"/>
		<rect x="125.7" y="510.2" class="st15" width="4.3" height="11.5"/>
		<rect x="133.4" y="510.2" class="st15" width="4.3" height="11.5"/>
	</g>
	<g>
		<path class="st16" d="M106.8,531v-5.5h2.5v5.8c0,2,0.6,2.7,1.7,2.7c1.2,0,1.8-0.7,1.8-2.7v-5.8h2.4v5.5c0,3.5-1.4,5.1-4.2,5.1
			S106.8,534.5,106.8,531z"/>
		<path class="st16" d="M116.7,534.6l1.3-1.6c0.7,0.6,1.7,1,2.6,1c0.9,0,1.4-0.4,1.4-0.9c0-0.6-0.6-0.8-1.5-1.2l-1.3-0.6
			c-1.1-0.4-2.1-1.3-2.1-2.8c0-1.7,1.6-3.2,3.8-3.2c1.2,0,2.5,0.5,3.4,1.3l-1.3,1.6c-0.7-0.5-1.4-0.8-2.1-0.8
			c-0.8,0-1.3,0.3-1.3,0.8c0,0.6,0.7,0.8,1.6,1.2l1.3,0.5c1.3,0.5,2.1,1.4,2.1,2.8c0,1.7-1.5,3.3-4,3.3
			C119.1,536.1,117.8,535.6,116.7,534.6z"/>
		<path class="st16" d="M126.3,525.5h3.6c2.2,0,3.9,0.6,3.9,2.6c0,0.9-0.5,1.9-1.4,2.2v0.1c1.1,0.3,1.9,1.1,1.9,2.4
			c0,2.1-1.8,3.1-4.1,3.1h-3.9V525.5z M129.8,529.6c1.1,0,1.5-0.5,1.5-1.2c0-0.8-0.5-1.1-1.5-1.1h-1.1v2.2H129.8z M130,534
			c1.2,0,1.8-0.4,1.8-1.3c0-0.9-0.6-1.2-1.8-1.2h-1.2v2.5H130z"/>
	</g>
	<path class="st17" d="M170.2,606.9h-45.7c-0.5,0-1-0.4-1-1v-33.5c0-0.5,0.4-1,1-1h45.7c0.5,0,1,0.4,1,1v33.5
		C171.1,606.4,170.7,606.9,170.2,606.9z"/>
	<g>
		<rect x="128.6" y="567.2" class="st15" width="1.4" height="4.1"/>
		<rect x="134.6" y="567.2" class="st15" width="1.4" height="4.1"/>
		<rect x="140.6" y="567.2" class="st15" width="1.4" height="4.1"/>
		<rect x="146.6" y="567.2" class="st15" width="1.4" height="4.1"/>
		<rect x="152.6" y="567.2" class="st15" width="1.4" height="4.1"/>
		<rect x="158.6" y="567.2" class="st15" width="1.4" height="4.1"/>
		<rect x="164.6" y="567.2" class="st15" width="1.4" height="4.1"/>
	</g>
	<g>
		<rect x="128.6" y="606.9" class="st15" width="1.4" height="4.1"/>
		<rect x="134.6" y="606.9" class="st15" width="1.4" height="4.1"/>
		<rect x="140.6" y="606.9" class="st15" width="1.4" height="4.1"/>
		<rect x="146.6" y="606.9" class="st15" width="1.4" height="4.1"/>
		<rect x="152.6" y="606.9" class="st15" width="1.4" height="4.1"/>
		<rect x="158.6" y="606.9" class="st15" width="1.4" height="4.1"/>
		<rect x="164.6" y="606.9" class="st15" width="1.4" height="4.1"/>
	</g>
	<g>
		<rect x="61.4" y="575.2" class="st18" width="39.3" height="48.9"/>
		<path class="st19" d="M81,618L81,618c-7.6,0-13.7-6.1-13.7-13.7v-9.1c0-7.6,6.1-13.7,13.7-13.7h0c7.6,0,13.7,6.1,13.7,13.7v9.1
			C94.7,611.8,88.6,618,81,618z"/>
		<path class="st19" d="M61.4,585.5L61.4,585.5l0-10.3h10.3l0,0C71.6,580.9,67.1,585.5,61.4,585.5z"/>
		<path class="st19" d="M71.6,624.2H61.4v-10.3h0C67.1,613.9,71.6,618.5,71.6,624.2L71.6,624.2z"/>
		<path class="st19" d="M100.7,585.5L100.7,585.5c-5.7,0-10.3-4.6-10.3-10.3l0,0h10.3V585.5z"/>
		<path class="st19" d="M100.7,624.2H90.4v0c0-5.7,4.6-10.3,10.3-10.3h0V624.2z"/>
	</g>
	<g>
		<rect x="64.9" y="644.7" class="st17" width="34.6" height="22.9"/>
		<g>
			<rect x="60.7" y="645.9" class="st15" width="4.2" height="3.4"/>
			<rect x="60.7" y="651.6" class="st15" width="4.2" height="3.4"/>
			<rect x="60.7" y="657.4" class="st15" width="4.2" height="3.4"/>
			<rect x="60.7" y="663.1" class="st15" width="4.2" height="3.4"/>
		</g>
		<g>
			<rect x="99.5" y="645.9" class="st15" width="4.2" height="3.4"/>
			<rect x="99.5" y="651.6" class="st15" width="4.2" height="3.4"/>
			<rect x="99.5" y="657.4" class="st15" width="4.2" height="3.4"/>
			<rect x="99.5" y="663.1" class="st15" width="4.2" height="3.4"/>
		</g>
	</g>
	<rect x="135.5" y="676.2" class="st7" width="4.2" height="6.9"/>
	<g>
		<path class="st20" d="M160.4,780H81.4c-0.7,0-1.3-0.6-1.3-1.3v-79.1c0-0.7,0.6-1.3,1.3-1.3h79.1c0.7,0,1.3,0.6,1.3,1.3v79.1
			C161.7,779.4,161.1,780,160.4,780z"/>
		<g>
			<rect x="86.2" y="696.4" class="st15" width="3.1" height="1.9"/>
			<rect x="89.7" y="696.4" class="st15" width="3.1" height="1.9"/>
			<rect x="93.2" y="696.4" class="st15" width="3.1" height="1.9"/>
			<rect x="96.7" y="696.4" class="st15" width="3.1" height="1.9"/>
			<rect x="100.2" y="696.4" class="st15" width="3.1" height="1.9"/>
			<rect x="103.6" y="696.4" class="st15" width="3.1" height="1.9"/>
			<rect x="107.1" y="696.4" class="st15" width="3.1" height="1.9"/>
			<rect x="114.1" y="696.4" class="st15" width="3.1" height="1.9"/>
			<rect x="121.1" y="696.4" class="st15" width="3.1" height="1.9"/>
			<rect x="128" y="696.4" class="st15" width="3.1" height="1.9"/>
			<rect x="138.5" y="696.4" class="st15" width="3.1" height="1.9"/>
			<rect x="142" y="696.4" class="st15" width="3.1" height="1.9"/>
			<rect x="149" y="696.4" class="st15" width="3.1" height="1.9"/>
			<rect x="110.6" y="696.4" class="st15" width="3.1" height="1.9"/>
			<rect x="117.6" y="696.4" class="st15" width="3.1" height="1.9"/>
			<rect x="124.6" y="696.4" class="st15" width="3.1" height="1.9"/>
			<rect x="131.5" y="696.4" class="st15" width="3.1" height="1.9"/>
			<rect x="135" y="696.4" class="st15" width="3.1" height="1.9"/>
			<rect x="145.5" y="696.4" class="st15" width="3.1" height="1.9"/>
			<rect x="152.4" y="696.4" class="st15" width="3.1" height="1.9"/>
		</g>
		<g>
			<rect x="86.4" y="780" class="st15" width="3.1" height="1.9"/>
			<rect x="89.9" y="780" class="st15" width="3.1" height="1.9"/>
			<rect x="93.4" y="780" class="st15" width="3.1" height="1.9"/>
			<rect x="96.9" y="780" class="st15" width="3.1" height="1.9"/>
			<rect x="100.4" y="780" class="st15" width="3.1" height="1.9"/>
			<rect x="103.8" y="780" class="st15" width="3.1" height="1.9"/>
			<rect x="107.3" y="780" class="st15" width="3.1" height="1.9"/>
			<rect x="114.3" y="780" class="st15" width="3.1" height="1.9"/>
			<rect x="121.3" y="780" class="st15" width="3.1" height="1.9"/>
			<rect x="128.2" y="780" class="st15" width="3.1" height="1.9"/>
			<rect x="138.7" y="780" class="st15" width="3.1" height="1.9"/>
			<rect x="142.2" y="780" class="st15" width="3.1" height="1.9"/>
			<rect x="149.1" y="780" class="st15" width="3.1" height="1.9"/>
			<rect x="110.8" y="780" class="st15" width="3.1" height="1.9"/>
			<rect x="117.8" y="780" class="st15" width="3.1" height="1.9"/>
			<rect x="124.7" y="780" class="st15" width="3.1" height="1.9"/>
			<rect x="131.7" y="780" class="st15" width="3.1" height="1.9"/>
			<rect x="135.2" y="780" class="st15" width="3.1" height="1.9"/>
			<rect x="145.7" y="780" class="st15" width="3.1" height="1.9"/>
			<rect x="152.6" y="780" class="st15" width="3.1" height="1.9"/>
		</g>
		<g>
			
				<rect x="77.5" y="771.3" transform="matrix(6.123234e-17 -1 1 6.123234e-17 -693.1769 851.3575)" class="st15" width="3.1" height="1.9"/>
			
				<rect x="77.5" y="767.8" transform="matrix(6.123234e-17 -1 1 6.123234e-17 -689.6919 847.8724)" class="st15" width="3.1" height="1.9"/>
			
				<rect x="77.5" y="764.3" transform="matrix(6.123234e-17 -1 1 6.123234e-17 -686.2069 844.3874)" class="st15" width="3.1" height="1.9"/>
			
				<rect x="77.5" y="760.9" transform="matrix(6.123234e-17 -1 1 6.123234e-17 -682.7219 840.9023)" class="st15" width="3.1" height="1.9"/>
			
				<rect x="77.5" y="757.4" transform="matrix(6.123234e-17 -1 1 6.123234e-17 -679.2368 837.4173)" class="st15" width="3.1" height="1.9"/>
			
				<rect x="77.5" y="753.9" transform="matrix(6.123234e-17 -1 1 6.123234e-17 -675.7518 833.9323)" class="st15" width="3.1" height="1.9"/>
			
				<rect x="77.5" y="750.4" transform="matrix(6.123234e-17 -1 1 6.123234e-17 -672.2667 830.4472)" class="st15" width="3.1" height="1.9"/>
			
				<rect x="77.5" y="743.4" transform="matrix(6.123234e-17 -1 1 6.123234e-17 -665.2966 823.4771)" class="st15" width="3.1" height="1.9"/>
			
				<rect x="77.5" y="736.5" transform="matrix(6.123234e-17 -1 1 6.123234e-17 -658.3265 816.5071)" class="st15" width="3.1" height="1.9"/>
			
				<rect x="77.5" y="729.5" transform="matrix(6.123234e-17 -1 1 6.123234e-17 -651.3564 809.537)" class="st15" width="3.1" height="1.9"/>
			
				<rect x="77.5" y="719" transform="matrix(6.123234e-17 -1 1 6.123234e-17 -640.9013 799.0818)" class="st15" width="3.1" height="1.9"/>
			
				<rect x="77.5" y="715.5" transform="matrix(6.123234e-17 -1 1 6.123234e-17 -637.4163 795.5968)" class="st15" width="3.1" height="1.9"/>
			
				<rect x="77.5" y="708.6" transform="matrix(6.123234e-17 -1 1 6.123234e-17 -630.4462 788.6267)" class="st15" width="3.1" height="1.9"/>
			
				<rect x="77.5" y="746.9" transform="matrix(6.123234e-17 -1 1 6.123234e-17 -668.7817 826.9622)" class="st15" width="3.1" height="1.9"/>
			
				<rect x="77.5" y="739.9" transform="matrix(6.123234e-17 -1 1 6.123234e-17 -661.8116 819.9921)" class="st15" width="3.1" height="1.9"/>
			
				<rect x="77.5" y="733" transform="matrix(6.123234e-17 -1 1 6.123234e-17 -654.8415 813.022)" class="st15" width="3.1" height="1.9"/>
			
				<rect x="77.5" y="726" transform="matrix(6.123234e-17 -1 1 6.123234e-17 -647.8714 806.0519)" class="st15" width="3.1" height="1.9"/>
			
				<rect x="77.5" y="722.5" transform="matrix(6.123234e-17 -1 1 6.123234e-17 -644.3864 802.5669)" class="st15" width="3.1" height="1.9"/>
			
				<rect x="77.5" y="712.1" transform="matrix(6.123234e-17 -1 1 6.123234e-17 -633.9312 792.1118)" class="st15" width="3.1" height="1.9"/>
			
				<rect x="77.5" y="705.1" transform="matrix(6.123234e-17 -1 1 6.123234e-17 -626.9611 785.1417)" class="st15" width="3.1" height="1.9"/>
		</g>
		<g>
			
				<rect x="161.1" y="771.3" transform="matrix(6.123234e-17 -1 1 6.123234e-17 -609.587 934.9474)" class="st15" width="3.1" height="1.9"/>
			
				<rect x="161.1" y="767.8" transform="matrix(6.123234e-17 -1 1 6.123234e-17 -606.102 931.4624)" class="st15" width="3.1" height="1.9"/>
			
				<rect x="161.1" y="764.3" transform="matrix(6.123234e-17 -1 1 6.123234e-17 -602.6169 927.9774)" class="st15" width="3.1" height="1.9"/>
			
				<rect x="161.1" y="760.9" transform="matrix(6.123234e-17 -1 1 6.123234e-17 -599.1319 924.4923)" class="st15" width="3.1" height="1.9"/>
			
				<rect x="161.1" y="757.4" transform="matrix(6.123234e-17 -1 1 6.123234e-17 -595.6469 921.0073)" class="st15" width="3.1" height="1.9"/>
			
				<rect x="161.1" y="753.9" transform="matrix(6.123234e-17 -1 1 6.123234e-17 -592.1618 917.5222)" class="st15" width="3.1" height="1.9"/>
			
				<rect x="161.1" y="750.4" transform="matrix(6.123234e-17 -1 1 6.123234e-17 -588.6768 914.0372)" class="st15" width="3.1" height="1.9"/>
			
				<rect x="161.1" y="743.4" transform="matrix(6.123234e-17 -1 1 6.123234e-17 -581.7067 907.0671)" class="st15" width="3.1" height="1.9"/>
			
				<rect x="161.1" y="736.5" transform="matrix(6.123234e-17 -1 1 6.123234e-17 -574.7366 900.097)" class="st15" width="3.1" height="1.9"/>
			
				<rect x="161.1" y="729.5" transform="matrix(6.123234e-17 -1 1 6.123234e-17 -567.7665 893.1269)" class="st15" width="3.1" height="1.9"/>
			
				<rect x="161.1" y="719" transform="matrix(6.123234e-17 -1 1 6.123234e-17 -557.3114 882.6718)" class="st15" width="3.1" height="1.9"/>
			
				<rect x="161.1" y="715.5" transform="matrix(6.123234e-17 -1 1 6.123234e-17 -553.8264 879.1867)" class="st15" width="3.1" height="1.9"/>
			
				<rect x="161.1" y="708.6" transform="matrix(6.123234e-17 -1 1 6.123234e-17 -546.8563 872.2166)" class="st15" width="3.1" height="1.9"/>
			
				<rect x="161.1" y="746.9" transform="matrix(6.123234e-17 -1 1 6.123234e-17 -585.1917 910.5521)" class="st15" width="3.1" height="1.9"/>
			
				<rect x="161.1" y="739.9" transform="matrix(6.123234e-17 -1 1 6.123234e-17 -578.2216 903.582)" class="st15" width="3.1" height="1.9"/>
			
				<rect x="161.1" y="733" transform="matrix(6.123234e-17 -1 1 6.123234e-17 -571.2516 896.6119)" class="st15" width="3.1" height="1.9"/>
			
				<rect x="161.1" y="726" transform="matrix(6.123234e-17 -1 1 6.123234e-17 -564.2815 889.6418)" class="st15" width="3.1" height="1.9"/>
			
				<rect x="161.1" y="722.5" transform="matrix(6.123234e-17 -1 1 6.123234e-17 -560.7964 886.1568)" class="st15" width="3.1" height="1.9"/>
			
				<rect x="161.1" y="712.1" transform="matrix(6.123234e-17 -1 1 6.123234e-17 -550.3413 875.7017)" class="st15" width="3.1" height="1.9"/>
			
				<rect x="161.1" y="705.1" transform="matrix(6.123234e-17 -1 1 6.123234e-17 -543.3712 868.7316)" class="st15" width="3.1" height="1.9"/>
		</g>
		<circle class="st21" cx="90.2" cy="709.5" r="2.8"/>
	</g>
	<rect x="187.1" y="664.1" class="st17" width="18.2" height="8.6"/>
	<rect x="189.1" y="672.8" class="st15" width="2.9" height="8.7"/>
	<rect x="200.9" y="672.8" class="st15" width="2.9" height="8.7"/>
	<rect x="194.8" y="655.5" class="st15" width="2.9" height="8.7"/>
	
		<rect x="170.5" y="702.2" transform="matrix(6.123234e-17 -1 1 6.123234e-17 -533.0342 878.2291)" class="st9" width="4.2" height="6.9"/>
	<rect x="189.5" y="733.3" class="st7" width="4.2" height="6.9"/>
	
		<rect x="172.3" y="752.5" transform="matrix(0.7071 -0.7071 0.7071 0.7071 -483.4474 344.7725)" class="st9" width="4.2" height="6.9"/>
	<g>
		<path class="st4" d="M157,814.7c-5.1,0-9.2,4.1-9.2,9.2s4.1,9.2,9.2,9.2s9.2-4.1,9.2-9.2S162.1,814.7,157,814.7z M157,829.6
			c-3.1,0-5.7-2.6-5.7-5.7s2.6-5.7,5.7-5.7c3.1,0,5.7,2.6,5.7,5.7S160.2,829.6,157,829.6z"/>
		<path class="st4" d="M118.7,815.1v17.7h17.7v-17.7H118.7z M127.6,829.6c-3.1,0-5.7-2.6-5.7-5.7s2.6-5.7,5.7-5.7
			c3.1,0,5.7,2.6,5.7,5.7S130.7,829.6,127.6,829.6z"/>
		<path class="st4" d="M186.8,814.7c-5.1,0-9.2,4.1-9.2,9.2s4.1,9.2,9.2,9.2s9.2-4.1,9.2-9.2S191.9,814.7,186.8,814.7z M186.8,829.6
			c-3.1,0-5.7-2.6-5.7-5.7s2.6-5.7,5.7-5.7c3.1,0,5.7,2.6,5.7,5.7S190,829.6,186.8,829.6z"/>
	</g>
	<path class="st4" d="M17.5,793.3H0.3v3.4c2.3,0.9,3.9,3.1,3.9,5.7s-1.6,4.8-3.9,5.7v3.4h17.2c5,0,9-4,9-9S22.4,793.3,17.5,793.3z
		 M15.9,808.4c-3.4,0-6.1-2.7-6.1-6.1s2.7-6.1,6.1-6.1s6.1,2.7,6.1,6.1S19.2,808.4,15.9,808.4z"/>
	<path class="st4" d="M17.5,763.9H0.3v3.4c2.3,0.9,3.9,3.1,3.9,5.7s-1.6,4.8-3.9,5.7v3.4h17.2c5,0,9-4,9-9v0
		C26.5,768,22.4,763.9,17.5,763.9z M15.9,779.1c-3.4,0-6.1-2.7-6.1-6.1s2.7-6.1,6.1-6.1s6.1,2.7,6.1,6.1S19.2,779.1,15.9,779.1z"/>
	<path class="st4" d="M17.5,734.5H0.3v3.4c2.3,0.9,3.9,3.1,3.9,5.7s-1.6,4.8-3.9,5.7v3.4h17.2c5,0,9-4,9-9v0
		C26.5,738.6,22.4,734.5,17.5,734.5z M15.9,749.7c-3.4,0-6.1-2.7-6.1-6.1s2.7-6.1,6.1-6.1s6.1,2.7,6.1,6.1S19.2,749.7,15.9,749.7z"
		/>
	<path class="st4" d="M17.5,705.2H0.3v3.4c2.3,0.9,3.9,3.1,3.9,5.7s-1.6,4.8-3.9,5.7v3.4h17.2c5,0,9-4,9-9S22.4,705.2,17.5,705.2z
		 M15.9,720.3c-3.4,0-6.1-2.7-6.1-6.1s2.7-6.1,6.1-6.1s6.1,2.7,6.1,6.1S19.2,720.3,15.9,720.3z"/>
	<path class="st4" d="M17.5,646.4H0.3v3.4c2.3,0.9,3.9,3.1,3.9,5.7s-1.6,4.8-3.9,5.7v3.4h17.2c5,0,9-4,9-9S22.4,646.4,17.5,646.4z
		 M15.9,661.5c-3.4,0-6.1-2.7-6.1-6.1s2.7-6.1,6.1-6.1s6.1,2.7,6.1,6.1S19.2,661.5,15.9,661.5z"/>
	<path class="st4" d="M17.5,617H0.3v3.4c2.3,0.9,3.9,3.1,3.9,5.7s-1.6,4.8-3.9,5.7v3.4h17.2c5,0,9-4,9-9S22.4,617,17.5,617z
		 M15.9,632.1c-3.4,0-6.1-2.7-6.1-6.1s2.7-6.1,6.1-6.1s6.1,2.7,6.1,6.1S19.2,632.1,15.9,632.1z"/>
	<path class="st4" d="M17.5,587.6H0.3v3.4c2.3,0.9,3.9,3.1,3.9,5.7s-1.6,4.8-3.9,5.7v3.4h17.2c5,0,9-4,9-9S22.4,587.6,17.5,587.6z
		 M15.9,602.7c-3.4,0-6.1-2.7-6.1-6.1s2.7-6.1,6.1-6.1s6.1,2.7,6.1,6.1S19.2,602.7,15.9,602.7z"/>
	<path class="st4" d="M17.5,558.2H0.3v3.4c2.3,0.9,3.9,3.1,3.9,5.7s-1.6,4.8-3.9,5.7v3.4h17.2c5,0,9-4,9-9S22.4,558.2,17.5,558.2z
		 M15.9,573.3c-3.4,0-6.1-2.7-6.1-6.1s2.7-6.1,6.1-6.1s6.1,2.7,6.1,6.1S19.2,573.3,15.9,573.3z"/>
	<path class="st4" d="M17.5,499.4H0.3v3.4c2.3,0.9,3.9,3.1,3.9,5.7s-1.6,4.8-3.9,5.7v3.4h17.2c5,0,9-4,9-9v0
		C26.5,503.4,22.4,499.4,17.5,499.4z M15.9,514.5c-3.4,0-6.1-2.7-6.1-6.1s2.7-6.1,6.1-6.1s6.1,2.7,6.1,6.1S19.2,514.5,15.9,514.5z"
		/>
	<path class="st4" d="M17.5,470H0.3v3.4c2.3,0.9,3.9,3.1,3.9,5.7s-1.6,4.8-3.9,5.7v3.4h17.2c5,0,9-4,9-9S22.4,470,17.5,470z
		 M15.9,485.1c-3.4,0-6.1-2.7-6.1-6.1s2.7-6.1,6.1-6.1s6.1,2.7,6.1,6.1S19.2,485.1,15.9,485.1z"/>
	<path class="st4" d="M17.5,940.3H0.3v3.4c2.3,0.9,3.9,3.1,3.9,5.7s-1.6,4.8-3.9,5.7v3.4h17.2c5,0,9-4,9-9S22.4,940.3,17.5,940.3z
		 M15.9,955.4c-3.4,0-6.1-2.7-6.1-6.1s2.7-6.1,6.1-6.1s6.1,2.7,6.1,6.1S19.2,955.4,15.9,955.4z"/>
	<path class="st4" d="M239.5,1037.5c0-2.6,1.6-4.8,3.9-5.7v-3.4h-17.2c-5,0-9,4-9,9c0,5,4,9,9,9h17.2v-3.4
		C241.2,1042.3,239.5,1040.1,239.5,1037.5z M227.8,1043.6c-3.4,0-6.1-2.7-6.1-6.1c0-3.4,2.7-6.1,6.1-6.1s6.1,2.7,6.1,6.1
		C233.9,1040.9,231.2,1043.6,227.8,1043.6z"/>
	<path class="st4" d="M239.5,949.3c0-2.6,1.6-4.8,3.9-5.7v-3.4h-17.2c-5,0-9,4-9,9s4,9,9,9h17.2V955
		C241.2,954.1,239.5,951.9,239.5,949.3z M227.8,955.4c-3.4,0-6.1-2.7-6.1-6.1s2.7-6.1,6.1-6.1s6.1,2.7,6.1,6.1
		S231.2,955.4,227.8,955.4z"/>
	<path class="st4" d="M239.5,714.2c0-2.6,1.6-4.8,3.9-5.7v-3.4h-17.2c-5,0-9,4-9,9s4,9,9,9h17.2v-3.4
		C241.2,719,239.5,716.8,239.5,714.2z M227.8,720.3c-3.4,0-6.1-2.7-6.1-6.1s2.7-6.1,6.1-6.1s6.1,2.7,6.1,6.1
		S231.2,720.3,227.8,720.3z"/>
	
		<rect x="90" y="808.2" transform="matrix(6.123234e-17 -1 1 6.123234e-17 -716.8178 903.4012)" class="st12" width="6.7" height="3.7"/>
	<g>
		<path class="st22" d="M82.2,827.6H50.4c-1.2,0-2.2-1-2.2-2.2v-23.7c0-1.2,1-2.2,2.2-2.2h31.8c1.2,0,2.2,1,2.2,2.2v23.7
			C84.4,826.6,83.4,827.6,82.2,827.6z"/>
		<path class="st23" d="M79.9,825.1H52.6c-0.8,0-1.4-0.6-1.4-1.4v-20.4c0-0.8,0.6-1.4,1.4-1.4h27.3c0.8,0,1.4,0.6,1.4,1.4v20.4
			C81.3,824.5,80.7,825.1,79.9,825.1z"/>
	</g>
	
		<rect x="90" y="828.2" transform="matrix(6.123234e-17 -1 1 6.123234e-17 -736.7521 923.3356)" class="st12" width="6.7" height="3.7"/>
	<rect x="100.1" y="812.4" class="st7" width="4.2" height="6.9"/>
	<g>
		<path class="st16" d="M42.3,632.5v-3.6c0-2.2,0.6-3.9,2.6-3.9c0.9,0,1.9,0.5,2.2,1.4h0.1c0.3-1.1,1.1-1.9,2.4-1.9
			c2.1,0,3.1,1.8,3.1,4.1v3.9H42.3z M46.4,629c0-1.1-0.5-1.5-1.2-1.5c-0.8,0-1.1,0.5-1.1,1.5v1.1h2.2V629z M50.8,628.8
			c0-1.2-0.4-1.8-1.3-1.8s-1.2,0.6-1.2,1.8v1.2h2.5V628.8z"/>
		<path class="st16" d="M47.4,623.3c-3.4,0-5.4-1.9-5.4-4.8s2-4.8,5.4-4.8c3.4,0,5.4,1.9,5.4,4.8S50.8,623.3,47.4,623.3z
			 M47.4,616.3c-2,0-3.2,0.8-3.2,2.2c0,1.4,1.2,2.2,3.2,2.2c2,0,3.3-0.9,3.3-2.2C50.7,617.1,49.4,616.3,47.4,616.3z"/>
		<path class="st16" d="M47.4,612.3c-3.4,0-5.4-1.9-5.4-4.8s2-4.8,5.4-4.8c3.4,0,5.4,1.9,5.4,4.8S50.8,612.3,47.4,612.3z
			 M47.4,605.3c-2,0-3.2,0.8-3.2,2.2c0,1.4,1.2,2.2,3.2,2.2c2,0,3.3-0.9,3.3-2.2C50.7,606.2,49.4,605.3,47.4,605.3z"/>
		<path class="st16" d="M44.3,599.3v2.8h-2.1v-8.1h2.1v2.8h8.3v2.5H44.3z"/>
		<path class="st16" d="M51.3,593.4l-1.6-1.3c0.6-0.7,1-1.7,1-2.6c0-0.9-0.4-1.4-0.9-1.4c-0.6,0-0.8,0.6-1.2,1.5l-0.6,1.3
			c-0.4,1.1-1.3,2.1-2.8,2.1c-1.7,0-3.2-1.6-3.2-3.8c0-1.2,0.5-2.5,1.3-3.4l1.6,1.3c-0.5,0.7-0.8,1.4-0.8,2.1c0,0.8,0.3,1.3,0.8,1.3
			c0.6,0,0.8-0.7,1.2-1.6l0.5-1.3c0.5-1.3,1.4-2.1,2.8-2.1c1.7,0,3.3,1.5,3.3,4C52.9,590.9,52.4,592.3,51.3,593.4z"/>
		<path class="st16" d="M42.3,583.8v-6.6h2.1v4.1h2v-3.5h2.1v3.5h2.2v-4.3h2.1v6.8H42.3z"/>
		<path class="st16" d="M42.3,575v-2.5h8.3v-4h2.1v6.5H42.3z"/>
	</g>
	<g>
		<path class="st16" d="M141.4,789.7h3c3.2,0,5.3,1.6,5.3,5.2c0,3.6-2.1,5.2-5.1,5.2h-3.1V789.7z M144.3,798.1
			c1.7,0,2.9-0.8,2.9-3.2c0-2.5-1.2-3.2-2.9-3.2h-0.4v6.4H144.3z"/>
		<path class="st16" d="M151.6,789.7h6.6v2.1h-4.1v2h3.5v2.1h-3.5v2.2h4.3v2.1h-6.8V789.7z"/>
		<path class="st16" d="M160.4,789.7h3.6c2.2,0,3.9,0.6,3.9,2.6c0,0.9-0.5,1.9-1.4,2.2v0.1c1.1,0.3,1.9,1.1,1.9,2.4
			c0,2.1-1.8,3.1-4.1,3.1h-3.9V789.7z M164,793.9c1.1,0,1.5-0.5,1.5-1.2c0-0.8-0.5-1.1-1.5-1.1h-1.1v2.2H164z M164.2,798.2
			c1.2,0,1.8-0.4,1.8-1.3c0-0.9-0.6-1.2-1.8-1.2h-1.2v2.5H164.2z"/>
		<path class="st16" d="M170.1,795.2v-5.5h2.5v5.8c0,2,0.6,2.7,1.7,2.7c1.2,0,1.8-0.7,1.8-2.7v-5.8h2.4v5.5c0,3.5-1.4,5.1-4.2,5.1
			S170.1,798.8,170.1,795.2z"/>
		<path class="st16" d="M180.3,795c0-3.5,2.3-5.5,5.1-5.5c1.5,0,2.6,0.6,3.3,1.4l-1.3,1.5c-0.5-0.5-1.1-0.7-1.9-0.7
			c-1.5,0-2.7,1.2-2.7,3.2c0,2.1,0.9,3.3,2.9,3.3c0.4,0,0.8-0.1,1-0.3v-1.7h-1.7v-2h3.9v4.9c-0.7,0.7-2,1.3-3.5,1.3
			C182.6,800.3,180.3,798.5,180.3,795z"/>
	</g>
	<rect x="114.2" y="811.1" class="st24" width="86.4" height="25.6"/>
	<g>
		<path class="st16" d="M40.1,525.5h2.5v8.3h4v2.1h-6.5V525.5z"/>
		<path class="st16" d="M48.4,525.5H55v2.1h-4.1v2h3.5v2.1h-3.5v2.2h4.3v2.1h-6.8V525.5z"/>
		<path class="st16" d="M57.2,525.5h3c3.2,0,5.3,1.6,5.3,5.2c0,3.6-2.1,5.2-5.1,5.2h-3.1V525.5z M60.1,533.9c1.7,0,2.9-0.8,2.9-3.2
			c0-2.5-1.2-3.2-2.9-3.2h-0.4v6.4H60.1z"/>
	</g>
	<g>
		<rect x="143.7" y="675" class="st8" width="5.4" height="10.6"/>
		<rect x="143.7" y="677.3" class="st9" width="5.4" height="6"/>
	</g>
	<g>
		<rect x="154.3" y="675" class="st8" width="5.4" height="10.6"/>
		<rect x="154.3" y="677.3" class="st9" width="5.4" height="6"/>
	</g>
	<rect x="127.1" y="676.2" class="st7" width="4.2" height="6.9"/>
	
		<rect x="68.6" y="681.3" transform="matrix(6.123234e-17 -1 1 6.123234e-17 -614.0425 755.5145)" class="st7" width="4.2" height="6.9"/>
	<rect x="120.5" y="676.2" class="st9" width="4.2" height="6.9"/>
	<rect x="110.4" y="676.2" class="st9" width="4.2" height="6.9"/>
	<path class="st4" d="M239.5,655.4c0-2.6,1.6-4.8,3.9-5.7v-3.4h-17.2c-5,0-9,4-9,9s4,9,9,9h17.2v-3.4
		C241.2,660.2,239.5,658,239.5,655.4z M227.8,661.5c-3.4,0-6.1-2.7-6.1-6.1s2.7-6.1,6.1-6.1s6.1,2.7,6.1,6.1
		S231.2,661.5,227.8,661.5z"/>
	<g>
		
			<rect x="169.4" y="647.5" transform="matrix(-1.836970e-16 1 -1 -1.836970e-16 825.6305 474.8672)" class="st8" width="11.9" height="5.6"/>
		
			<rect x="172.1" y="647.5" transform="matrix(-1.836970e-16 1 -1 -1.836970e-16 825.6305 474.8672)" class="st10" width="6.6" height="5.6"/>
	</g>
</g>
<circle id="circle281" class="st25" cx="232.1" cy="537.9" r="11.6"/>
<circle id="circle281-2" class="st26" cx="232.1" cy="596.6" r="11.6"/>
<rect x="232.1" y="533.3" class="st25" width="120.4" height="9.1"/>
<rect x="232.1" y="592" class="st26" width="147.2" height="9.1"/>
<circle id="circle281-3" class="st27" cx="232.1" cy="949.3" r="11.6"/>
<rect id="rect853" x="232.1" y="944.7" class="st27" width="173.9" height="9.1"/>
<g id="layer1">
	<rect id="rect10" x="318.1" y="0" class="st28" width="113.2" height="470.2"/>
	<rect id="rect821" x="334.3" y="434.7" class="st16" width="80.8" height="31.6"/>
	<path id="rect825" class="st29" d="M394.2,436.6h14.5c3.2,0,5.8,2.6,5.8,5.8v16.1c0,3.2-2.6,5.8-5.8,5.8h-14.5
		c-3.2,0-5.8-2.6-5.8-5.8v-16.1C388.4,439.2,391,436.6,394.2,436.6L394.2,436.6L394.2,436.6z"/>
	<path id="rect872" class="st29" d="M340.9,436.6h14.5c3.2,0,5.8,2.6,5.8,5.8v16.1c0,3.2-2.6,5.8-5.8,5.8h0h-14.5
		c-3.2,0-5.8-2.6-5.8-5.8v-16.1C335.1,439.2,337.7,436.6,340.9,436.6L340.9,436.6z"/>
	<path id="rect874" class="st29" d="M366.8,436.6h16c2.8,0,5.1,2.3,5.1,5.1v17.6c0,2.8-2.3,5.1-5.1,5.1l0,0h-16
		c-2.8,0-5.1-2.3-5.1-5.1v-17.6C361.7,438.8,364,436.6,366.8,436.6L366.8,436.6L366.8,436.6z"/>
	<rect id="rect947" x="400" y="450.6" class="st30" width="2.9" height="56.7"/>
	<rect id="rect949" x="373.2" y="450.6" class="st30" width="2.9" height="56.7"/>
	<rect id="rect951" x="346.7" y="450.6" class="st30" width="2.9" height="56.7"/>
	<path id="rect78" class="st16" d="M335.7,222.4v77.7l-0.1,0.1l0.1,0.1v0.1h0.2l9.6,7.6v0h0l0,0l0,0h58l0.2,0.2l9.9-7.8v-78H335.7z"
		/>
	<path id="path2577" class="st28" d="M337.7,224.4v74.2l-0.1,0.1l0.1,0.1v0.1h0.2l9.1,7.2v0h0l0,0l0,0h55.1l0.2,0.2l9.4-7.5v-74.5
		L337.7,224.4z"/>
	<path id="path2581" class="st31" d="M338.7,225.4v72.4l-0.1,0.1l0.1,0.1v0.1h0.2l8.8,7.1v0h0l0,0l0,0h53.6l0.2,0.2l9.2-7.3v-72.7
		L338.7,225.4z"/>
	<path id="path2585" class="st16" d="M409.8,267.3c0,19.4-15.7,35.1-35.1,35.1s-35.1-15.7-35.1-35.1s15.7-35.1,35.1-35.1l0,0"/>
	
		<rect id="rect2589" x="370.4" y="232.3" transform="matrix(0.7071 -0.7071 0.7071 0.7071 -79.4971 342.9836)" class="st32" width="7.8" height="70.2"/>
	<rect id="rect2593" x="322" y="341.7" class="st16" width="70.2" height="50.7"/>
	<rect id="rect2595" x="324" y="343.6" class="st29" width="66.3" height="46.8"/>
	<rect id="rect2597" x="325.9" y="390.2" class="st33" width="7.8" height="11.7"/>
	<rect id="rect2599" x="345.4" y="390.2" class="st33" width="7.8" height="11.7"/>
	<rect id="rect2601" x="361" y="390.2" class="st33" width="7.8" height="11.7"/>
	<rect id="rect2603" x="380.5" y="390.2" class="st33" width="7.8" height="11.7"/>
	<rect id="rect2605" x="325.9" y="332" class="st33" width="7.8" height="11.7"/>
	<rect id="rect2607" x="345.4" y="332" class="st33" width="7.8" height="11.7"/>
	<rect id="rect2609" x="361" y="332" class="st33" width="7.8" height="11.7"/>
	<rect id="rect2611" x="380.5" y="332" class="st33" width="7.8" height="11.7"/>
	<circle id="path2621" class="st32" cx="374.7" cy="179.5" r="39"/>
	<circle id="circle2623" class="st16" cx="374.7" cy="179.5" r="29.3"/>
	<rect id="rect2667" x="328.1" y="389.9" class="st30" width="3.1" height="7.8"/>
	<rect id="rect2669" x="347.8" y="389.9" class="st30" width="3.1" height="7.8"/>
	<rect id="rect2671" x="363.2" y="389.9" class="st30" width="3.1" height="7.8"/>
	<rect id="rect2673" x="382.9" y="389.9" class="st30" width="3.1" height="7.8"/>
	<rect id="rect2675" x="328.1" y="336.4" class="st30" width="3.1" height="7.8"/>
	<rect id="rect2677" x="347.8" y="336.4" class="st30" width="3.1" height="7.8"/>
	<rect id="rect2679" x="363.2" y="336.4" class="st30" width="3.1" height="7.8"/>
	<rect id="rect2681" x="382.9" y="336.4" class="st30" width="3.1" height="7.8"/>
	<path id="path31-1" class="st16" d="M342.5,322.9c0.9,0,1,0,1.2-0.1c0.1-0.1,0.2-0.2,0.3-0.3c0.1-0.2,0.1-0.3,0.1-2.1l0-2l2,0l2,0
		v2.4c0,2.7,0,3-0.3,3.7c-0.3,0.9-1.1,1.5-2.1,1.6c-0.6,0.1-1.2,0.1-1.8,0.1c-0.8,0-1.6,0-1.9-0.1l-0.5,0l0-1.6l0-1.6L342.5,322.9
		L342.5,322.9z M361.3,328.3c16.8,0,21,0,20.3,0.1l-0.1,0l0.1,0c0.1,0,0.1,0-0.1,0.1c-0.1,0-0.1,0,0.2,0l0.3,0l-0.3,0
		c-0.2,0-0.3,0-0.3,0c0.1,0,0.1,0.1,0.1,0.5c0,0.4,0,0.4,0.1,0.5c0.1,0,0.1,0-0.1,0c-0.1,0-0.2,0-0.2,0.1c0,0-6.7,0.1-19.9,0.1
		h-19.9v-1.4L361.3,328.3z M346.1,313.3h2v3.2h-4v-3.2H346.1z M350.2,319.2c0.1-0.8,0.4-1.6,0.8-2.4c0.1-0.2,0.2-0.3,0.3-0.5
		c0.1-0.1,0.2-0.2,0.2-0.3c0.2-0.3,0.5-0.7,0.8-1c0,0,0.1-0.1,0.1-0.1c0.3-0.3,0.6-0.6,0.9-0.8c0.5-0.3,1-0.6,1.5-0.7
		c0.8-0.3,1.6-0.4,2.4-0.4c0.5,0,0.9,0,1.4,0.2c0.3,0.1,0.7,0.2,0.8,0.3c0.1,0,0.2,0.1,0.3,0.1c0.2,0.1,0.3,0.2,0.5,0.2
		c1.2,0.8,2.1,1.8,2.8,3.1c0.8,1.5,0.9,3.3,0.3,4.9c-0.2,0.5-0.4,1-0.7,1.5c-0.3,0.5-0.7,1-1.2,1.4c-0.8,0.8-1.7,1.4-2.8,1.6
		c-0.8,0.2-1.7,0.2-2.5,0.1c-1-0.2-1.9-0.6-2.7-1.1c-0.3-0.2-0.6-0.5-0.9-0.7c-0.1-0.1-0.2-0.2-0.3-0.3c-0.8-0.9-1.4-2.1-1.7-3.3
		C350.2,320.4,350.1,319.8,350.2,319.2L350.2,319.2z M354,320.8c0.2,0.7,0.6,1.4,1.2,1.9c0.6,0.6,1.5,0.8,2.4,0.5
		c1-0.4,1.8-1.3,2.1-2.4c0.2-0.7,0.2-1.5,0-2.2c-0.2-0.8-0.7-1.5-1.4-2c-0.2-0.2-0.5-0.3-0.8-0.3c-0.6-0.1-1.3-0.1-1.9,0.2
		c-0.5,0.3-1,0.8-1.3,1.4C353.8,318.8,353.7,319.8,354,320.8L354,320.8z M365.1,313.3c0,0,0.9,0,2,0l1.9,0l0,1.7c0,1.6,0,1.8,0.1,2
		c0.3,0.8,1.2,1.1,2,0.9c0.4-0.1,0.7-0.4,0.9-0.7l0.2-0.3l0-1.8l0-1.8h4l0,2c0.1,0.8,0,1.6-0.1,2.5c-0.2,0.7-0.6,1.4-1,2
		c-0.1,0.1-0.2,0.2-0.2,0.3c-0.3,0.3-0.6,0.6-1,0.8c-0.4,0.3-0.8,0.5-1.2,0.6c-0.1,0-0.4,0.1-0.6,0.2c-0.5,0.1-0.9,0.2-1.4,0.1
		c-0.5,0-1,0-1.5-0.1c-0.6-0.1-1.1-0.3-1.6-0.7c-0.6-0.4-1.1-0.9-1.5-1.5c-0.5-0.7-0.9-1.6-1-2.5C365,315.8,365,314.6,365.1,313.3
		L365.1,313.3z M370.7,322.9h3.3v3.3h-6.5v-3.3H370.7z M376.3,310.8c0,0,0.1-0.1,0.1-0.2c0-0.2,0-0.2,0.2-0.2c0.1,0,5.6,0,12.2,0
		l12,0l0,0.7l0,0.7h-12.2c-6.7,0-12.2,0-12.3,0c-0.1,0-0.1-0.1-0.1-0.5C376.2,311,376.2,310.8,376.3,310.8L376.3,310.8z
		 M381.7,318.7h4.1v3.2h-8.3v-3.2H381.7z M389.2,313.3h2v3.2h-4v-3.2H389.2z M389.2,318.1h2v8.2h-4v-8.2H389.2z M397.1,313.3h4.2
		v3.2h-8.3v-3.2H397.1z M393.6,318.4c0,0,0.9,0,2,0l1.9,0l0,1.9c0,2.6-0.1,2.5,1.9,2.5l1.3,0v3.3l-0.5,0.1c-1.2,0.1-2.4,0.1-3.6,0
		c-0.8-0.1-1.6-0.4-2.2-1c-0.5-0.6-0.8-1.3-0.8-2C393.6,322.5,393.6,318.4,393.6,318.4L393.6,318.4z M403.6,311.8
		c0.1-0.3,0.3-0.6,0.5-0.9c0.8-0.8,2-0.9,2.9-0.2c0.3,0.2,0.6,0.5,0.7,0.8c0.1,0.3,0.2,0.6,0.2,0.9c0,0.3,0,0.6-0.2,0.9
		c-0.4,0.7-1,1.1-1.8,1.2c-0.7,0.1-1.3-0.2-1.8-0.7C403.6,313.2,403.4,312.4,403.6,311.8L403.6,311.8z M404,313.1
		c0.3,0.5,0.8,0.8,1.3,1c0.6,0.1,1.2,0,1.7-0.4c0.2-0.1,0.3-0.3,0.4-0.5c0.1-0.2,0.2-0.5,0.2-0.8c0-0.3,0-0.6-0.2-0.8
		c-0.1-0.2-0.3-0.4-0.5-0.6c-0.2-0.1-0.4-0.2-0.6-0.3c-0.9-0.3-1.9,0.2-2.4,1C403.8,312.1,403.8,312.6,404,313.1L404,313.1z
		 M405.5,311.1c0.3,0,0.6,0,0.9,0.1c0.3,0.2,0.5,0.7,0.2,1c0,0,0,0,0,0c-0.1,0.1-0.2,0.2-0.3,0.2l-0.2,0.1l0.2,0.2
		c0.1,0.2,0.2,0.3,0.4,0.5c0.1,0.1,0.1,0.2,0.2,0.3c0.1,0.1,0,0.1-0.2,0.1l-0.2,0l-0.3-0.5c-0.3-0.5-0.4-0.6-0.8-0.6h-0.2v1.1
		l-0.2,0l-0.2,0l0-1.2l0-1.2L405.5,311.1z M405.6,312.1c0.4,0,0.5,0,0.6-0.1c0.3-0.2,0.1-0.6-0.3-0.6c-0.3,0-0.5,0-0.8,0
		c0,0.1,0,0.2,0,0.4v0.4H405.6z"/>
	<circle id="circle2717" class="st32" cx="374.7" cy="39" r="39"/>
	<circle id="circle2719" class="st16" cx="374.7" cy="39" r="29.3"/>
	<rect id="rect2721" x="318.1" y="78" class="st34" width="113.2" height="62.4"/>
	<circle id="path2723" class="st28" cx="349.3" cy="109.3" r="19.5"/>
	<circle id="circle2725" class="st35" cx="400" cy="109.3" r="19.5"/>
	<rect id="rect2727" x="373.5" y="78" class="st29" width="1.6" height="62.4"/>
	<g id="text71">
		<g class="st36">
			<path class="st16" d="M333.5,51c0.1,0,0.1,0,0.2,0c0,0,0.1,0.1,0.1,0.1c0,0.1,0.1,0.2,0.1,0.3c0,0.1,0,0.3,0,0.5
				c0,0.2,0,0.5,0,0.6s-0.1,0.3-0.1,0.4c-0.1,0.1-0.1,0.1-0.2,0.2l-6.9,5.1h6.9c0.1,0,0.1,0,0.1,0c0,0,0.1,0.1,0.1,0.1
				c0,0.1,0,0.2,0.1,0.3s0,0.3,0,0.4c0,0.2,0,0.3,0,0.4s0,0.2-0.1,0.3c0,0.1-0.1,0.1-0.1,0.1c0,0-0.1,0-0.1,0h-13.3
				c-0.1,0-0.1,0-0.2,0c0,0-0.1-0.1-0.1-0.1c0-0.1,0-0.2-0.1-0.3s0-0.3,0-0.4c0-0.2,0-0.3,0-0.4s0-0.2,0.1-0.3
				c0-0.1,0.1-0.1,0.1-0.1c0,0,0.1,0,0.2,0h6.1l-6.1-4.9c-0.1,0-0.1-0.1-0.2-0.1c0-0.1-0.1-0.1-0.1-0.2c0-0.1,0-0.2-0.1-0.3
				c0-0.1,0-0.3,0-0.5c0-0.2,0-0.3,0-0.4s0-0.2,0.1-0.3c0-0.1,0.1-0.1,0.1-0.1c0,0,0.1,0,0.1,0c0.1,0,0.2,0,0.3,0.1
				c0.1,0,0.2,0.1,0.4,0.3l5.5,4.6l6.6-4.9c0.2-0.1,0.3-0.2,0.4-0.2S333.4,51,333.5,51z"/>
		</g>
		<g class="st36">
			<path class="st16" d="M328.4,44.2h5.1c0.1,0,0.1,0,0.2,0c0,0,0.1,0.1,0.1,0.1c0,0.1,0,0.2,0.1,0.3s0,0.3,0,0.4c0,0.2,0,0.3,0,0.4
				c0,0.1,0,0.2-0.1,0.3c0,0.1-0.1,0.1-0.1,0.2c0,0-0.1,0-0.2,0h-5.1l-7.8,3.9c-0.2,0.1-0.3,0.1-0.4,0.1c-0.1,0-0.2,0-0.2-0.1
				s-0.1-0.1-0.1-0.3c0-0.1,0-0.3,0-0.6c0-0.2,0-0.4,0-0.5c0-0.1,0-0.2,0.1-0.3c0-0.1,0.1-0.1,0.1-0.2c0,0,0.1-0.1,0.2-0.1l4-1.9
				c0.4-0.2,0.8-0.4,1.2-0.5c0.4-0.2,0.8-0.4,1.2-0.5v0c-0.4-0.2-0.8-0.3-1.2-0.5c-0.4-0.2-0.8-0.3-1.2-0.5l-4-1.9
				c-0.1,0-0.1-0.1-0.2-0.1c0,0-0.1-0.1-0.1-0.2c0-0.1,0-0.2-0.1-0.3c0-0.1,0-0.3,0-0.5c0-0.3,0-0.5,0-0.6s0.1-0.2,0.1-0.3
				s0.1-0.1,0.2-0.1c0.1,0,0.2,0.1,0.4,0.1L328.4,44.2z"/>
		</g>
		<g class="st36">
			<path class="st16" d="M328.4,35.1c0.3,0,0.5,0,0.6,0.1c0.1,0.1,0.2,0.2,0.2,0.3v4.5c0,0.1-0.1,0.2-0.2,0.3
				c-0.1,0.1-0.3,0.1-0.6,0.1s-0.5,0-0.6-0.1c-0.1-0.1-0.2-0.2-0.2-0.3v-4.5c0-0.1,0-0.1,0-0.2s0.1-0.1,0.1-0.1
				c0.1,0,0.1-0.1,0.2-0.1C328.1,35.1,328.2,35.1,328.4,35.1z"/>
			<path class="st16" d="M326.8,24c1.1,0,2,0.1,2.9,0.3s1.6,0.4,2.3,0.8s1.1,0.9,1.5,1.5s0.5,1.4,0.5,2.3c0,0.9-0.2,1.6-0.5,2.2
				c-0.3,0.6-0.8,1.1-1.4,1.4c-0.6,0.4-1.3,0.6-2.2,0.8c-0.9,0.2-1.9,0.2-3,0.2c-1.1,0-2-0.1-2.9-0.3c-0.9-0.2-1.6-0.4-2.3-0.8
				c-0.6-0.4-1.1-0.9-1.5-1.5c-0.3-0.6-0.5-1.4-0.5-2.3c0-0.9,0.2-1.6,0.5-2.2c0.3-0.6,0.8-1.1,1.4-1.4c0.6-0.4,1.3-0.6,2.2-0.8
				C324.7,24.1,325.7,24,326.8,24z M327,25.9c-0.7,0-1.3,0-1.9,0.1c-0.5,0.1-1,0.1-1.5,0.2c-0.4,0.1-0.8,0.2-1.1,0.4
				c-0.3,0.2-0.6,0.3-0.7,0.6c-0.2,0.2-0.3,0.5-0.4,0.7c-0.1,0.3-0.1,0.6-0.1,0.9c0,0.6,0.1,1.1,0.4,1.5c0.3,0.4,0.7,0.7,1.2,0.9
				c0.5,0.2,1.1,0.4,1.8,0.4c0.7,0.1,1.4,0.1,2.2,0.1c1,0,1.9-0.1,2.6-0.2c0.7-0.1,1.3-0.3,1.8-0.5c0.5-0.2,0.8-0.5,1-0.9
				s0.3-0.8,0.3-1.3c0-0.4-0.1-0.8-0.2-1.1c-0.1-0.3-0.3-0.6-0.5-0.8c-0.2-0.2-0.5-0.4-0.9-0.5c-0.3-0.1-0.7-0.3-1.1-0.3
				s-0.8-0.1-1.3-0.2C328,25.9,327.5,25.9,327,25.9z"/>
			<path class="st16" d="M329.8,13.5c0.6,0,1.2,0.1,1.7,0.3c0.5,0.2,0.9,0.5,1.3,1c0.4,0.4,0.6,0.9,0.8,1.5c0.2,0.6,0.3,1.3,0.3,2.1
				c0,0.5,0,0.9-0.1,1.3c-0.1,0.4-0.2,0.8-0.3,1.1c-0.1,0.3-0.2,0.6-0.3,0.8c-0.1,0.2-0.2,0.3-0.2,0.4c0,0.1-0.1,0.1-0.2,0.1
				c0,0-0.1,0.1-0.2,0.1s-0.2,0-0.3,0s-0.2,0-0.4,0c-0.3,0-0.4,0-0.5-0.1s-0.1-0.1-0.1-0.2c0-0.1,0.1-0.2,0.2-0.4
				c0.1-0.2,0.2-0.4,0.4-0.7s0.3-0.7,0.4-1.1c0.1-0.4,0.2-0.9,0.2-1.4c0-0.5-0.1-0.9-0.2-1.3c-0.1-0.4-0.3-0.7-0.5-0.9
				c-0.2-0.2-0.5-0.4-0.8-0.6c-0.3-0.1-0.6-0.2-1-0.2c-0.4,0-0.7,0.1-1.1,0.2s-0.6,0.4-0.8,0.7c-0.2,0.3-0.4,0.7-0.5,1.1
				s-0.2,1-0.2,1.5v1.4c0,0.1,0,0.1,0,0.2c0,0.1-0.1,0.1-0.1,0.1c-0.1,0-0.1,0.1-0.2,0.1c-0.1,0-0.2,0-0.4,0c-0.1,0-0.2,0-0.3,0
				c-0.1,0-0.2-0.1-0.2-0.1c-0.1,0-0.1-0.1-0.1-0.1c0,0,0-0.1,0-0.2v-1.2c0-0.5-0.1-0.9-0.2-1.3c-0.1-0.4-0.3-0.7-0.5-1
				c-0.2-0.3-0.5-0.5-0.8-0.6s-0.7-0.2-1.1-0.2c-0.3,0-0.6,0-0.8,0.1c-0.3,0.1-0.5,0.2-0.7,0.4s-0.3,0.4-0.5,0.7
				c-0.1,0.3-0.2,0.6-0.2,1c0,0.4,0.1,0.8,0.2,1.1c0.1,0.3,0.3,0.7,0.4,0.9c0.1,0.3,0.3,0.5,0.4,0.7c0.1,0.2,0.2,0.3,0.2,0.4
				c0,0,0,0.1,0,0.1c0,0-0.1,0.1-0.1,0.1c-0.1,0-0.1,0-0.2,0.1c-0.1,0-0.2,0-0.4,0c-0.1,0-0.2,0-0.3,0c-0.1,0-0.2,0-0.2,0
				s-0.1,0-0.2-0.1s-0.1-0.1-0.2-0.1c-0.1-0.1-0.2-0.2-0.3-0.4s-0.3-0.5-0.4-0.8c-0.1-0.3-0.2-0.7-0.3-1c-0.1-0.4-0.1-0.8-0.1-1.3
				c0-0.6,0.1-1.2,0.2-1.7c0.2-0.5,0.4-0.9,0.7-1.2c0.3-0.3,0.7-0.6,1.1-0.7c0.4-0.2,0.9-0.2,1.4-0.2c0.4,0,0.8,0.1,1.2,0.2
				c0.4,0.1,0.7,0.3,1,0.5c0.3,0.2,0.5,0.5,0.7,0.8s0.3,0.7,0.4,1.1h0c0-0.5,0.2-0.9,0.4-1.3c0.2-0.4,0.4-0.7,0.7-1s0.6-0.5,1-0.7
				C329,13.5,329.4,13.5,329.8,13.5z"/>
			<path class="st16" d="M329.8,2.4c0.6,0,1.2,0.1,1.7,0.3c0.5,0.2,0.9,0.5,1.3,1c0.4,0.4,0.6,0.9,0.8,1.5c0.2,0.6,0.3,1.3,0.3,2.1
				c0,0.5,0,0.9-0.1,1.3c-0.1,0.4-0.2,0.8-0.3,1.1c-0.1,0.3-0.2,0.6-0.3,0.8c-0.1,0.2-0.2,0.3-0.2,0.4c0,0.1-0.1,0.1-0.2,0.1
				c0,0-0.1,0.1-0.2,0.1s-0.2,0-0.3,0s-0.2,0-0.4,0c-0.3,0-0.4,0-0.5-0.1s-0.1-0.1-0.1-0.2c0-0.1,0.1-0.2,0.2-0.4
				c0.1-0.2,0.2-0.4,0.4-0.7s0.3-0.7,0.4-1.1c0.1-0.4,0.2-0.9,0.2-1.4c0-0.5-0.1-0.9-0.2-1.3c-0.1-0.4-0.3-0.7-0.5-0.9
				c-0.2-0.2-0.5-0.4-0.8-0.6c-0.3-0.1-0.6-0.2-1-0.2c-0.4,0-0.7,0.1-1.1,0.2s-0.6,0.4-0.8,0.7c-0.2,0.3-0.4,0.7-0.5,1.1
				s-0.2,1-0.2,1.5v1.4c0,0.1,0,0.1,0,0.2c0,0.1-0.1,0.1-0.1,0.1c-0.1,0-0.1,0.1-0.2,0.1c-0.1,0-0.2,0-0.4,0c-0.1,0-0.2,0-0.3,0
				c-0.1,0-0.2-0.1-0.2-0.1c-0.1,0-0.1-0.1-0.1-0.1c0,0,0-0.1,0-0.2V8c0-0.5-0.1-0.9-0.2-1.3c-0.1-0.4-0.3-0.7-0.5-1
				c-0.2-0.3-0.5-0.5-0.8-0.6S323.8,5,323.4,5c-0.3,0-0.6,0-0.8,0.1c-0.3,0.1-0.5,0.2-0.7,0.4s-0.3,0.4-0.5,0.7
				c-0.1,0.3-0.2,0.6-0.2,1c0,0.4,0.1,0.8,0.2,1.1c0.1,0.3,0.3,0.7,0.4,0.9c0.1,0.3,0.3,0.5,0.4,0.7c0.1,0.2,0.2,0.3,0.2,0.4
				c0,0,0,0.1,0,0.1c0,0-0.1,0.1-0.1,0.1c-0.1,0-0.1,0-0.2,0.1c-0.1,0-0.2,0-0.4,0c-0.1,0-0.2,0-0.3,0c-0.1,0-0.2,0-0.2,0
				s-0.1,0-0.2-0.1s-0.1-0.1-0.2-0.1c-0.1-0.1-0.2-0.2-0.3-0.4s-0.3-0.5-0.4-0.8c-0.1-0.3-0.2-0.7-0.3-1c-0.1-0.4-0.1-0.8-0.1-1.3
				c0-0.6,0.1-1.2,0.2-1.7c0.2-0.5,0.4-0.9,0.7-1.2c0.3-0.3,0.7-0.6,1.1-0.7c0.4-0.2,0.9-0.2,1.4-0.2c0.4,0,0.8,0.1,1.2,0.2
				c0.4,0.1,0.7,0.3,1,0.5c0.3,0.2,0.5,0.5,0.7,0.8s0.3,0.7,0.4,1.1h0c0-0.5,0.2-0.9,0.4-1.3c0.2-0.4,0.4-0.7,0.7-1s0.6-0.5,1-0.7
				C329,2.4,329.4,2.4,329.8,2.4z"/>
		</g>
	</g>
	<g id="text75">
		<g class="st36">
			<path class="st16" d="M354.5,418c0,0.2,0,0.3,0,0.4c0,0.1,0,0.2-0.1,0.3s-0.1,0.1-0.1,0.2c0,0-0.1,0-0.2,0
				c-0.1,0-0.3-0.1-0.5-0.2c-0.2-0.2-0.5-0.3-0.9-0.5s-0.8-0.4-1.4-0.5s-1.2-0.2-1.9-0.2c-0.9,0-1.6,0.2-2.3,0.5
				c-0.7,0.3-1.3,0.8-1.7,1.3c-0.5,0.6-0.8,1.2-1.1,2c-0.3,0.8-0.4,1.6-0.4,2.5c0,1,0.1,1.9,0.4,2.7s0.7,1.4,1.2,2s1.1,0.9,1.8,1.2
				c0.7,0.3,1.4,0.4,2.2,0.4c0.5,0,1-0.1,1.5-0.2c0.5-0.1,1-0.3,1.4-0.5v-4.6h-3.6c-0.1,0-0.2-0.1-0.3-0.2c-0.1-0.1-0.1-0.4-0.1-0.6
				c0-0.2,0-0.3,0-0.4c0-0.1,0-0.2,0.1-0.3c0-0.1,0.1-0.1,0.1-0.2c0,0,0.1,0,0.2,0h5c0.1,0,0.2,0,0.3,0c0.1,0,0.2,0.1,0.2,0.1
				c0.1,0.1,0.1,0.2,0.2,0.3c0,0.1,0.1,0.2,0.1,0.4v6c0,0.2,0,0.4-0.1,0.5c-0.1,0.2-0.2,0.3-0.5,0.4c-0.2,0.1-0.5,0.2-0.9,0.4
				c-0.4,0.1-0.8,0.3-1.1,0.4c-0.4,0.1-0.8,0.2-1.2,0.2c-0.4,0-0.8,0.1-1.2,0.1c-1.2,0-2.3-0.2-3.2-0.6c-1-0.4-1.8-0.9-2.4-1.6
				c-0.7-0.7-1.2-1.5-1.5-2.5c-0.3-1-0.5-2-0.5-3.2c0-1.2,0.2-2.4,0.6-3.4s0.9-1.9,1.6-2.6s1.5-1.3,2.5-1.7c1-0.4,2-0.6,3.2-0.6
				c0.6,0,1.2,0.1,1.7,0.2s1,0.2,1.4,0.4s0.8,0.3,1,0.5c0.3,0.2,0.5,0.3,0.6,0.4c0.1,0.1,0.2,0.2,0.2,0.4S354.5,417.7,354.5,418z"/>
		</g>
	</g>
	<g id="text79">
		<g class="st36">
			<path class="st16" d="M372.8,424.7c0,0.2,0,0.3,0,0.4c0,0.1-0.1,0.2-0.1,0.3c0,0.1-0.1,0.1-0.1,0.2c-0.1,0-0.1,0-0.2,0h-4v4.4
				c0,0.1,0,0.1,0,0.2c0,0-0.1,0.1-0.2,0.1c-0.1,0-0.2,0.1-0.3,0.1c-0.1,0-0.3,0-0.4,0c-0.2,0-0.3,0-0.4,0c-0.1,0-0.2,0-0.3-0.1
				c-0.1,0-0.1-0.1-0.2-0.1c0,0,0-0.1,0-0.2v-4.4h-4c-0.1,0-0.1,0-0.2,0c-0.1,0-0.1-0.1-0.1-0.2c0-0.1-0.1-0.2-0.1-0.3
				c0-0.1,0-0.2,0-0.4c0-0.1,0-0.3,0-0.4c0-0.1,0.1-0.2,0.1-0.3c0-0.1,0.1-0.1,0.1-0.2c0.1,0,0.1,0,0.2,0h4v-4.4c0-0.1,0-0.1,0-0.2
				c0-0.1,0.1-0.1,0.2-0.1c0.1,0,0.2-0.1,0.3-0.1c0.1,0,0.3,0,0.4,0c0.2,0,0.3,0,0.4,0c0.1,0,0.2,0,0.3,0.1c0.1,0,0.1,0.1,0.2,0.1
				c0,0.1,0,0.1,0,0.2v4.4h4c0.1,0,0.1,0,0.2,0s0.1,0.1,0.1,0.2c0,0.1,0.1,0.2,0.1,0.3C372.8,424.4,372.8,424.5,372.8,424.7z"/>
			<path class="st16" d="M382.1,431.3c0,0.1-0.1,0.2-0.1,0.2c-0.1,0.1-0.1,0.1-0.2,0.1s-0.2,0.1-0.4,0.1c-0.2,0-0.4,0-0.6,0
				c-0.2,0-0.3,0-0.5,0c-0.1,0-0.2,0-0.3,0c-0.1,0-0.2,0-0.2-0.1c-0.1,0-0.1,0-0.2-0.1s-0.1-0.1-0.1-0.1c0,0-0.1-0.1-0.1-0.2
				l-5.1-14.5c-0.1-0.2-0.1-0.3-0.1-0.4c0-0.1,0-0.2,0.1-0.2c0.1-0.1,0.2-0.1,0.4-0.1s0.4,0,0.7,0c0.2,0,0.4,0,0.5,0
				c0.1,0,0.2,0,0.3,0.1c0.1,0,0.1,0.1,0.2,0.1c0,0.1,0.1,0.1,0.1,0.2l4.5,13.2h0l4.4-13.2c0-0.1,0.1-0.2,0.1-0.2
				c0-0.1,0.1-0.1,0.2-0.1c0.1,0,0.2-0.1,0.3-0.1s0.3,0,0.6,0c0.2,0,0.4,0,0.6,0s0.2,0.1,0.3,0.1c0.1,0.1,0.1,0.1,0.1,0.2
				c0,0.1,0,0.3-0.1,0.4L382.1,431.3z"/>
		</g>
	</g>
	<g id="text84">
		<g class="st36">
			<path class="st16" d="M406.2,427.1c0,0.7-0.1,1.4-0.4,2c-0.3,0.6-0.6,1.1-1.1,1.5c-0.5,0.4-1,0.7-1.7,0.9
				c-0.6,0.2-1.3,0.3-2.1,0.3c-0.5,0-1,0-1.5-0.1c-0.4-0.1-0.8-0.2-1.2-0.3s-0.6-0.3-0.9-0.4c-0.2-0.1-0.4-0.3-0.5-0.4
				c-0.1-0.1-0.2-0.2-0.2-0.4c0-0.1-0.1-0.3-0.1-0.6c0-0.2,0-0.3,0-0.4c0-0.1,0-0.2,0.1-0.3c0-0.1,0.1-0.1,0.1-0.2s0.1,0,0.2,0
				c0.1,0,0.3,0.1,0.5,0.2c0.2,0.1,0.5,0.3,0.8,0.4c0.3,0.2,0.7,0.3,1.2,0.5c0.5,0.1,1,0.2,1.6,0.2c0.5,0,0.9-0.1,1.2-0.2
				s0.7-0.3,1-0.5s0.5-0.5,0.6-0.8c0.1-0.3,0.2-0.7,0.2-1.1c0-0.4-0.1-0.8-0.3-1.1c-0.2-0.3-0.5-0.6-0.8-0.8
				c-0.3-0.2-0.7-0.5-1.1-0.7c-0.4-0.2-0.9-0.4-1.3-0.6s-0.9-0.4-1.3-0.7c-0.4-0.2-0.8-0.5-1.1-0.9c-0.3-0.3-0.6-0.7-0.8-1.2
				c-0.2-0.5-0.3-1-0.3-1.6c0-0.7,0.1-1.2,0.4-1.7c0.2-0.5,0.6-0.9,1-1.3c0.4-0.3,0.9-0.6,1.5-0.8c0.6-0.2,1.2-0.3,1.9-0.3
				c0.3,0,0.7,0,1,0.1c0.4,0.1,0.7,0.1,1,0.2c0.3,0.1,0.6,0.2,0.8,0.3s0.4,0.2,0.5,0.3c0.1,0.1,0.1,0.1,0.2,0.2c0,0,0,0.1,0.1,0.2
				c0,0.1,0,0.2,0,0.2c0,0.1,0,0.2,0,0.4c0,0.1,0,0.3,0,0.4c0,0.1,0,0.2-0.1,0.3c0,0.1-0.1,0.1-0.1,0.2c0,0-0.1,0.1-0.2,0.1
				c-0.1,0-0.2-0.1-0.4-0.2c-0.2-0.1-0.4-0.2-0.7-0.4c-0.3-0.1-0.6-0.3-1-0.4c-0.4-0.1-0.8-0.2-1.3-0.2c-0.4,0-0.8,0.1-1.1,0.2
				c-0.3,0.1-0.6,0.3-0.8,0.5c-0.2,0.2-0.4,0.4-0.5,0.7c-0.1,0.3-0.2,0.5-0.2,0.8c0,0.4,0.1,0.8,0.3,1.1c0.2,0.3,0.5,0.6,0.8,0.8
				c0.3,0.2,0.7,0.5,1.1,0.7c0.4,0.2,0.9,0.4,1.3,0.6c0.4,0.2,0.9,0.4,1.3,0.7c0.4,0.2,0.8,0.5,1.1,0.9s0.6,0.7,0.8,1.2
				C406.1,425.9,406.2,426.5,406.2,427.1z"/>
		</g>
	</g>
</g>
<rect id="rect1463" x="370.1" y="476.8" class="st26" width="9.1" height="124.3"/>
<rect id="rect1463-2" x="396.9" y="476.8" class="st27" width="9.1" height="477"/>
<rect id="rect1465" x="343.4" y="476.8" class="st25" width="9.1" height="65.6"/>
<circle id="circle281-4" class="st27" cx="401.4" cy="476.8" r="10.5"/>
<circle id="circle281-5" class="st26" cx="374.7" cy="476.8" r="10.5"/>
<circle id="circle281-6" class="st25" cx="348" cy="476.8" r="10.5"/>
</svg>
