<?xml version="1.0" encoding="utf-8"?>
<!-- Generator: Adobe Illustrator 27.8.0, SVG Export Plug-In . SVG Version: 6.00 Build 0)  -->
<svg version="1.1" id="svg8" xmlns="http://www.w3.org/2000/svg" xmlns:xlink="http://www.w3.org/1999/xlink" x="0px" y="0px"
	 viewBox="0 0 719.1 886.2" style="enable-background:new 0 0 719.1 886.2;" xml:space="preserve">
<style type="text/css">
	.st0{fill:#1A1919;}
	.st1{fill:#303030;}
	.st2{fill:#DDDDDD;}
	.st3{fill:#9A2442;}
	.st4{fill:#010103;}
	.st5{fill:#E3B37D;}
	.st6{fill:#F5B93E;}
	.st7{fill:#474949;}
	.st8{fill:#E0DCD3;}
	.st9{fill:#DBDED7;}
	.st10{fill:#A3928B;}
	.st11{fill:#E3AD51;}
	.st12{fill:#C4B3A8;}
	.st13{fill:#BCB3AD;}
	.st14{fill:#F53200;}
	.st15{fill:#FFFFFF;}
	.st16{fill:none;stroke:#493930;stroke-miterlimit:10;}
	.st17{fill:#493930;}
	.st18{fill:#2C2C2C;}
	.st19{fill:#BE8839;}
	.st20{fill:#655A50;}
	.st21{fill:#686868;}
	.st22{fill:#ADA390;}
	.st23{fill:#47494A;}
	.st24{fill:#EAEAEA;}
	.st25{fill:#36323E;}
	.st26{fill:#FCF7FD;}
	.st27{fill:#1A1A1A;}
	.st28{opacity:0.99;fill:#808080;enable-background:new    ;}
	.st29{fill:#0000FF;}
	.st30{fill:#CCCCCC;}
	.st31{fill:#B3B3B3;}
	.st32{fill:#333333;}
	.st33{fill:#00002B;}
	.st34{enable-background:new    ;}
	.st35{fill:#00B589;}
	.st36{fill:#E30613;}
	.st37{fill:#914F00;}
</style>
<g>
	<path class="st0" d="M590,118.3H7.3c-4,0-7.3,3.2-7.3,7.3v719c0,4,3.2,7.3,7.3,7.3h17.6L59.1,886h365.2v0l34.1-34.1H590
		c4,0,7.3-3.2,7.3-7.3v-719C597.3,121.6,594,118.3,590,118.3z M28.3,292.8c-10,0-18.1-8.1-18.1-18.1s8.1-18.1,18.1-18.1
		s18.1,8.1,18.1,18.1S38.3,292.8,28.3,292.8z M88.2,874.6c-10,0-18.1-8.1-18.1-18.1s8.1-18.1,18.1-18.1c10,0,18.1,8.1,18.1,18.1
		S98.2,874.6,88.2,874.6z M401.3,874.6c-10,0-18.1-8.1-18.1-18.1s8.1-18.1,18.1-18.1s18.1,8.1,18.1,18.1S411.3,874.6,401.3,874.6z
		 M569.6,304.2c-10,0-18.1-8.1-18.1-18.1c0-10,8.1-18.1,18.1-18.1s18.1,8.1,18.1,18.1C587.7,296.1,579.6,304.2,569.6,304.2z"/>
	<rect x="55.9" y="85" class="st1" width="101.7" height="143.5"/>
	<path class="st1" d="M141.5,244.7H72.1c-3.9,0-7.1-3.2-7.1-7.1v-9.1h83.7v9.1C148.6,241.5,145.4,244.7,141.5,244.7z"/>
	<path class="st2" d="M571.5,157h-21.4v-4.6c0-0.8-0.6-1.4-1.4-1.4H528c-0.8,0-1.4,0.6-1.4,1.4v4.6h-21.4c-1,0-1.7,0.8-1.7,1.7v65.1
		c0,1,0.8,1.7,1.7,1.7h66.3c1,0,1.7-0.8,1.7-1.7v-65.1C573.2,157.8,572.4,157,571.5,157z"/>
	<circle class="st3" cx="538.3" cy="188.3" r="19.2"/>
	<g>
		<circle class="st2" cx="148.6" cy="337" r="35.2"/>
		<path class="st4" d="M129.6,312.5c-8.1,5.1-13.5,14.2-13.5,24.5s5.4,19.4,13.5,24.5V312.5z"/>
	</g>
	<g>
		<circle class="st2" cx="174.2" cy="436" r="35.2"/>
		<path class="st4" d="M166.8,405.8c-9.5,1.4-18.1,7.5-22.3,16.9c-4.2,9.4-2.9,19.9,2.4,27.9L166.8,405.8z"/>
	</g>
	<rect x="278.6" y="198.8" class="st5" width="9.8" height="21.5"/>
	<rect x="362.3" y="242.5" class="st5" width="9.8" height="21.5"/>
	
		<rect x="451.6" y="316.6" transform="matrix(-1.836970e-16 1 -1 -1.836970e-16 783.8937 -129.1028)" class="st5" width="9.8" height="21.5"/>
	
		<rect x="451.6" y="257.2" transform="matrix(-1.836970e-16 1 -1 -1.836970e-16 724.4116 -188.5848)" class="st5" width="9.8" height="21.5"/>
	<rect x="327.2" y="345.6" class="st5" width="9.8" height="21.5"/>
	<rect x="396.7" y="442.9" class="st6" width="9.8" height="21.5"/>
	<rect x="423.5" y="442.9" class="st5" width="9.8" height="21.5"/>
	<rect x="449.9" y="442.9" class="st5" width="9.8" height="21.5"/>
	
		<rect x="329.9" y="730.5" transform="matrix(6.123234e-17 -1 1 6.123234e-17 -406.3972 1076.113)" class="st5" width="9.8" height="21.5"/>
	<rect x="387.3" y="748.8" class="st6" width="9.8" height="21.5"/>
	<path class="st7" d="M332.6,257.2h-28.4c-0.8,0-1.5-0.7-1.5-1.5v-11.6c0-0.8,0.7-1.5,1.5-1.5h28.4c0.8,0,1.5,0.7,1.5,1.5v11.6
		C334.1,256.5,333.4,257.2,332.6,257.2z"/>
	<g>
		<path class="st8" d="M305,230.3v12.2h11.5v-12.2c0-0.7-0.6-1.2-1.2-1.2h-9C305.5,229.1,305,229.6,305,230.3z"/>
		<path class="st8" d="M320.2,230.3v12.2h11.5v-12.2c0-0.7-0.6-1.2-1.2-1.2h-9C320.8,229.1,320.2,229.6,320.2,230.3z"/>
	</g>
	<g>
		<rect x="423.1" y="415.9" class="st9" width="10.7" height="17.2"/>
		<rect x="423.1" y="418.4" class="st7" width="10.7" height="11.8"/>
	</g>
	<g>
		<rect x="449.4" y="415.9" class="st9" width="10.7" height="17.2"/>
		<rect x="449.4" y="418.4" class="st7" width="10.7" height="11.8"/>
	</g>
	<g>
		
			<rect x="309.1" y="382.4" transform="matrix(6.123234e-17 -1 1 6.123234e-17 -76.5375 705.5052)" class="st9" width="10.7" height="17.2"/>
		
			<rect x="309" y="385.1" transform="matrix(6.123234e-17 -1 1 6.123234e-17 -76.6994 705.3433)" class="st7" width="10.7" height="11.8"/>
	</g>
	<g>
		
			<rect x="254.1" y="382.4" transform="matrix(6.123234e-17 -1 1 6.123234e-17 -131.5951 650.4476)" class="st9" width="10.7" height="17.2"/>
		
			<rect x="253.9" y="385.1" transform="matrix(6.123234e-17 -1 1 6.123234e-17 -131.7569 650.2858)" class="st7" width="10.7" height="11.8"/>
	</g>
	<g>
		<rect x="387.3" y="718.5" class="st9" width="10.7" height="17.2"/>
		<rect x="387.3" y="721" class="st7" width="10.7" height="11.8"/>
	</g>
	<g>
		
			<rect x="329.5" y="752.7" transform="matrix(6.123234e-17 -1 1 6.123234e-17 -426.4044 1096.1202)" class="st9" width="10.7" height="17.2"/>
		
			<rect x="329.4" y="755.3" transform="matrix(6.123234e-17 -1 1 6.123234e-17 -426.5663 1095.9584)" class="st7" width="10.7" height="11.8"/>
	</g>
	<g>
		<rect x="478" y="165.7" class="st9" width="10.7" height="17.2"/>
		<rect x="478" y="168.2" class="st7" width="10.7" height="11.8"/>
	</g>
	<g>
		<rect x="338.4" y="166.7" class="st9" width="10.7" height="17.2"/>
		<rect x="338.4" y="169.2" class="st7" width="10.7" height="11.8"/>
	</g>
	<path class="st10" d="M450.4,312.7h-4.8c-2,0-3.7-1.7-3.7-3.7v-25.4c0-2,1.7-3.7,3.7-3.7h4.8c2,0,3.7,1.7,3.7,3.7V309
		C454.1,311.1,452.4,312.7,450.4,312.7z"/>
	<g>
		<path class="st11" d="M381.5,552.1l11.7-11.7c1.1-1.1,1.1-2.9,0-4l-8.6-8.6c-1.1-1.1-2.9-1.1-4,0l-11.7,11.7c-1.1,1.1-1.1,2.9,0,4
			l8.6,8.6C378.6,553.2,380.4,553.2,381.5,552.1z"/>
		<path class="st12" d="M381.6,551l10.5-10.5c1.1-1.1,1.1-2.9,0-4l-7.6-7.6c-1.1-1.1-2.9-1.1-4,0L370,539.3c-1.1,1.1-1.1,2.9,0,4
			l7.6,7.6C378.7,552.1,380.5,552.1,381.6,551z"/>
	</g>
	<rect x="374.8" y="506.9" class="st13" width="12.2" height="11"/>
	<rect x="394.4" y="506.9" class="st13" width="12.2" height="11"/>
	<rect x="374.8" y="559.8" class="st13" width="12.2" height="11"/>
	<rect x="394.4" y="559.8" class="st13" width="12.2" height="11"/>
	<path class="st14" d="M344.2,794.2h-15.2c-1.6,0-2.8-1.3-2.8-2.8V786c0-1.6,1.3-2.8,2.8-2.8h15.2c1.6,0,2.8,1.3,2.8,2.8v5.3
		C347.1,792.9,345.8,794.2,344.2,794.2z"/>
	<g>
		<path class="st15" d="M31.2,153.3v-4.5h2.1v7.1h-1.5c-2.9-2.4-4.8-2.7-8.9-2.8v-2.5C26.3,150.8,28.5,151.3,31.2,153.3z"/>
		<path class="st15" d="M27.8,157.3v4h-1.7v-4H27.8z"/>
		<path class="st15" d="M24.9,163v2.2h5.9v-1.9h1.5c0.2,1.1,0.5,1.8,0.9,2.6v1.8h-8.4v1.9h-2V163H24.9z"/>
		<path class="st15" d="M24.4,171c2.3,2.7,4.2,4.4,5.6,4.4c1,0,1.5-0.5,1.5-1.4c0-0.7-0.5-1.3-1-1.8l1.3-1.3c1.1,1,1.7,1.9,1.7,3.4
			c0,2-1.3,3.4-3.3,3.4c-1.9,0-3.8-1.7-5.4-3.3c0,0.5,0.1,1.2,0.1,1.7v2.1h-2.1V171H24.4z"/>
		<path class="st15" d="M33.3,178.8v2.6l-4.8,1.1c-1.1,0.3-2.2,0.5-3.3,0.8v0.1c1.1,0.3,2.2,0.5,3.3,0.8l4.8,1.2v2.5l-10.4-3.2v-3
			L33.3,178.8z"/>
		<path class="st15" d="M33.3,192.3v2.5H22.9v-2.5H33.3z"/>
		<path class="st15" d="M33.3,197.2v2.6l-5,2.6c-0.7,0.4-1.5,0.7-2.4,1v0.1c1.1-0.1,2.6-0.3,3.8-0.3h3.5v2.4H22.9v-2.6l5-2.6
			c0.7-0.4,1.5-0.7,2.4-1v-0.1c-1.2,0.1-2.6,0.3-3.8,0.3h-3.5v-2.4H33.3z"/>
		<path class="st15" d="M33.3,207.9v3.7c0,2.3-0.8,4.2-3.4,4.2c-2.5,0-3.6-1.9-3.6-4.1v-1.2h-3.5v-2.5H33.3z M28.3,211.5
			c0,1.2,0.6,1.8,1.6,1.8c1,0,1.4-0.7,1.4-1.9v-1h-3V211.5z"/>
		<path class="st15" d="M27.8,217.4h5.5v2.5h-5.8c-2,0-2.7,0.6-2.7,1.7c0,1.2,0.7,1.8,2.7,1.8h5.8v2.4h-5.5c-3.5,0-5.1-1.4-5.1-4.2
			S24.3,217.4,27.8,217.4z"/>
		<path class="st15" d="M31.2,230.2v-2.8h2.1v8.1h-2.1v-2.8h-8.3v-2.5H31.2z"/>
	</g>
	<g>
		<path class="st15" d="M588.7,166.8v3.8c0,2.2-0.8,4.1-3.3,4.1c-1.5,0-2.5-0.7-3-1.8l-4.1,2.3v-2.8l3.7-1.9v-1.2h-3.7v-2.5H588.7z
			 M583.9,170.5c0,1.2,0.5,1.8,1.5,1.8s1.3-0.6,1.3-1.8v-1.1h-2.8V170.5z"/>
		<path class="st15" d="M588.7,176.7v6.6h-2.1v-4.1h-2v3.5h-2.1v-3.5h-2.2v4.3h-2.1v-6.8H588.7z"/>
		<path class="st15" d="M579.6,184.9l1.6,1.3c-0.6,0.7-1,1.7-1,2.6c0,0.9,0.4,1.4,0.9,1.4c0.6,0,0.8-0.6,1.2-1.5l0.6-1.3
			c0.4-1.1,1.3-2.1,2.8-2.1c1.7,0,3.2,1.6,3.2,3.8c0,1.2-0.5,2.5-1.3,3.4l-1.6-1.3c0.5-0.7,0.8-1.4,0.8-2.1c0-0.8-0.3-1.3-0.8-1.3
			c-0.6,0-0.8,0.7-1.2,1.6l-0.5,1.3c-0.5,1.3-1.4,2.1-2.8,2.1c-1.7,0-3.3-1.5-3.3-4C578.1,187.3,578.5,185.9,579.6,184.9z"/>
		<path class="st15" d="M588.7,194.4v6.6h-2.1v-4.1h-2v3.5h-2.1v-3.5h-2.2v4.3h-2.1v-6.8H588.7z"/>
		<path class="st15" d="M586.6,205.3v-2.8h2.1v8.1h-2.1v-2.8h-8.3v-2.5H586.6z"/>
	</g>
	<g>
		<path class="st15" d="M371.7,827.5v2.5h-10.4v-2.5H371.7z"/>
		<path class="st15" d="M366.4,832c3.5,0,5.5,2.3,5.5,5c0,1.4-0.6,2.4-1.4,3.2l-1.5-1.3c0.5-0.5,0.7-1.1,0.7-1.8
			c0-1.4-1.2-2.5-3.2-2.5c-2.1,0-3.3,1-3.3,2.4c0,0.8,0.3,1.5,0.9,2l-1.5,1.3c-1-0.9-1.5-2.1-1.5-3.4
			C361.1,834.2,362.9,832,366.4,832z"/>
		<path class="st15" d="M362.6,840.6l1.6,1.3c-0.6,0.7-1,1.7-1,2.6c0,0.9,0.4,1.4,0.9,1.4c0.6,0,0.8-0.6,1.2-1.5l0.6-1.3
			c0.4-1.1,1.3-2.1,2.8-2.1c1.7,0,3.2,1.6,3.2,3.8c0,1.2-0.5,2.5-1.3,3.4l-1.6-1.3c0.5-0.7,0.8-1.4,0.8-2.1c0-0.8-0.3-1.3-0.8-1.3
			c-0.6,0-0.8,0.7-1.2,1.6l-0.5,1.3c-0.5,1.3-1.4,2.1-2.8,2.1c-1.7,0-3.3-1.5-3.3-4C361.1,843.1,361.6,841.7,362.6,840.6z"/>
		<path class="st15" d="M371.7,850.2v3.7c0,2.3-0.8,4.2-3.4,4.2c-2.5,0-3.6-1.9-3.6-4.1v-1.2h-3.5v-2.5H371.7z M366.7,853.8
			c0,1.2,0.6,1.8,1.6,1.8c1,0,1.4-0.7,1.4-1.9v-1h-3V853.8z"/>
	</g>
	<g>
		<path class="st15" d="M388.7,779.4c-1.2,1-2,2.5-2,4.2c0,3,2.5,5.5,5.5,5.5s5.5-2.5,5.5-5.5c0-1.7-0.8-3.2-2-4.2
			c-0.4-0.4-0.5-1-0.1-1.4c0.4-0.4,1-0.5,1.4-0.1c1.7,1.4,2.7,3.5,2.7,5.8c0,4.1-3.4,7.5-7.5,7.5s-7.5-3.4-7.5-7.5
			c0-2.3,1.1-4.4,2.7-5.8c0.4-0.4,1.1-0.3,1.4,0.1C389.2,778.5,389.1,779.1,388.7,779.4L388.7,779.4z M393.2,783.7c0,0.6-0.4,1-1,1
			c-0.6,0-1-0.4-1-1v-7c0-0.6,0.4-1,1-1c0.6,0,1,0.4,1,1V783.7z"/>
	</g>
	<polyline class="st16" points="36,310.9 42.7,310.9 105.3,373.5 116.1,373.5 	"/>
	<polyline class="st16" points="35.8,319 42.7,319 102.9,379.1 102.9,510.8 159.6,567.5 212.4,567.5 224.6,555.1 263.6,555.1 	"/>
	<polyline class="st16" points="33.4,346.4 44.7,346.4 86.9,388.6 86.9,511.6 156.7,581.4 268.4,581.4 	"/>
	<polyline class="st16" points="22.9,432 61.9,470.9 61.9,534.9 33.2,563.6 	"/>
	<line class="st17" x1="76.1" y1="513.7" x2="151.9" y2="589.5"/>
	<polyline class="st16" points="131.4,581 88.6,623.7 24.5,623.7 	"/>
	<polyline class="st16" points="131.4,591.6 91.3,631.7 26,631.7 	"/>
	<polyline class="st16" points="267.4,590.1 234.8,590.1 159.2,665.7 78.7,665.7 56,688.4 31.2,688.4 	"/>
	<polyline class="st16" points="249.5,599.2 249.5,645.5 179.7,715.4 30.5,715.4 	"/>
	<polyline class="st16" points="264.8,619.1 264.8,655.4 176.3,743.9 31.2,743.9 	"/>
	<polyline class="st16" points="273.6,618.9 273.6,658.1 158.8,772.9 24.5,772.9 	"/>
	<polyline class="st16" points="282.6,619.8 282.6,665.4 147.4,800.6 30.5,800.6 	"/>
	<polyline class="st16" points="291.1,623.8 291.1,673.3 134.7,829.6 30.5,829.6 	"/>
	<line class="st17" x1="328.8" y1="708.8" x2="292.2" y2="672.2"/>
	<polyline class="st16" points="331.1,725.1 306,699.9 280.1,699.9 	"/>
	<polyline class="st16" points="344.4,732.8 344.4,674.1 299.8,629.4 299.8,610 	"/>
	<polyline class="st16" points="278.5,847.7 262.1,831.3 262.1,766.6 287.4,741.3 	"/>
	<polyline class="st16" points="308.2,618.4 308.2,629.3 361.8,682.8 401.5,682.8 506.9,788.2 506.9,817.3 518.6,829 563.7,829 	"/>
	<polyline class="st16" points="317.1,619.5 317.1,630.4 359.4,672.7 421.4,672.7 568.7,819.9 	"/>
	<polyline class="st16" points="327.2,619.1 368,659.9 433.5,659.9 574,800.3 	"/>
	<polyline class="st16" points="345.8,598.4 400.2,598.4 571.3,769.5 	"/>
	<polyline class="st16" points="347.1,590.1 407.3,590.1 573.5,756.4 	"/>
	<polyline class="st16" points="496,609.9 489.1,603 443.1,603 	"/>
	<polyline class="st16" points="347.1,546.5 358.2,546.5 367.1,555.3 377.8,555.3 	"/>
	<polyline class="st16" points="346.9,537.6 356.9,537.6 367.4,527 380.6,527 	"/>
	<polyline class="st16" points="325.4,514 341.9,497.6 411.8,497.6 566.8,652.7 	"/>
	<polyline class="st16" points="317,515.8 317,511.3 336.5,491.8 414.7,491.8 575.1,652.1 	"/>
	<polyline class="st16" points="308.3,515.8 308.3,507.4 328.5,487.1 418.5,487.1 574.9,643.5 	"/>
	<polyline class="st16" points="299.7,514.2 299.7,506 323.5,482.2 418.9,482.2 576.4,639.7 	"/>
	<polyline class="st16" points="291.1,513.7 291.1,501.8 316,476.9 420.1,476.9 580.5,637.3 	"/>
	<polyline class="st16" points="282.2,515.4 282.2,493.6 303.4,473.6 425.1,473.6 480.2,528.6 580.5,528.6 	"/>
	<polyline class="st16" points="273.6,513.5 273.6,490.2 297.3,468.3 426.8,468.3 458.1,499.6 579.1,499.6 	"/>
	<polyline class="st16" points="264.8,513.1 264.8,489.1 286.8,467 290.2,463.7 	"/>
	<polyline class="st16" points="221.2,531.1 221.2,502.1 289.5,433.7 315.4,433.7 322.4,440.7 372.2,440.7 399.6,413.3 426.8,413.3 
			"/>
	<polyline class="st16" points="210.3,428.3 314.3,428.3 335.1,407.5 354.3,407.5 	"/>
	<polyline class="st16" points="286.7,357.7 286.7,368.4 277.7,377.4 260.3,377.4 247.6,364.8 247.6,355.6 247.6,330.5 	"/>
	<polyline class="st16" points="226.9,299.8 226.9,291.5 232.4,286 249.3,286 	"/>
	<polyline class="st16" points="191.2,277.5 237.4,277.5 258,256.9 258,235.1 	"/>
	<polyline class="st16" points="319.2,263.9 333,263.9 341.7,255.3 341.7,222.7 313.6,194.7 298,194.7 276,172.8 	"/>
	<polyline class="st16" points="285.9,169.2 299.7,183.1 311.3,183.1 	"/>
	<polyline class="st16" points="323.3,166.7 323.3,187 344.4,208.2 379.9,208.2 384.6,203.5 384.6,174.3 	"/>
	<path class="st16" d="M402.6,284.2c0-0.5,0-48.4,0-48.4"/>
	<path class="st16" d="M418.1,235.8c0,1,0,22,0,22"/>
	<polyline class="st16" points="415.7,291.5 428.1,291.5 440,279.6 	"/>
	<polyline class="st16" points="415.5,305.2 428.4,305.2 440.6,317.4 	"/>
	<line class="st16" x1="416.1" y1="346.4" x2="439.6" y2="346.4"/>
	<line class="st16" x1="413.8" y1="360.5" x2="441.9" y2="360.5"/>
	<polyline class="st16" points="415.5,373.9 426.8,373.9 441.9,373.9 	"/>
	<line class="st16" x1="562.9" y1="236.7" x2="530.4" y2="269.2"/>
	<g>
		<path class="st7" d="M327.3,606.2h-64.2c-3.2,0-5.9-2.6-5.9-5.9v-64.2c0-3.2,2.6-5.9,5.9-5.9h64.2c3.2,0,5.9,2.6,5.9,5.9v64.2
			C333.2,603.6,330.6,606.2,327.3,606.2z"/>
		<circle class="st18" cx="322.3" cy="594.3" r="4.8"/>
		<g>
			<path class="st8" d="M240.4,540.7h16.9v-5.9h-16.9c-0.7,0-1.2,0.6-1.2,1.2v3.4C239.1,540.2,239.7,540.7,240.4,540.7z"/>
			<path class="st8" d="M240.4,549.4h16.9v-5.9h-16.9c-0.7,0-1.2,0.6-1.2,1.2v3.4C239.1,548.9,239.7,549.4,240.4,549.4z"/>
			<path class="st8" d="M240.4,558.1h16.9v-5.9h-16.9c-0.7,0-1.2,0.6-1.2,1.2v3.4C239.1,557.6,239.7,558.1,240.4,558.1z"/>
			<path class="st8" d="M240.4,566.8h16.9V561h-16.9c-0.7,0-1.2,0.6-1.2,1.2v3.4C239.1,566.3,239.7,566.8,240.4,566.8z"/>
			<path class="st8" d="M240.4,575.5h16.9v-5.9h-16.9c-0.7,0-1.2,0.6-1.2,1.2v3.4C239.1,575,239.7,575.5,240.4,575.5z"/>
			<path class="st8" d="M240.4,584.2h16.9v-5.9h-16.9c-0.7,0-1.2,0.6-1.2,1.2v3.4C239.1,583.7,239.7,584.2,240.4,584.2z"/>
			<path class="st8" d="M240.4,592.9h16.9V587h-16.9c-0.7,0-1.2,0.6-1.2,1.2v3.4C239.1,592.3,239.7,592.9,240.4,592.9z"/>
			<path class="st8" d="M240.4,601.6h16.9v-5.9h-16.9c-0.7,0-1.2,0.6-1.2,1.2v3.4C239.1,601,239.7,601.6,240.4,601.6z"/>
		</g>
		<g>
			<path class="st8" d="M322.7,513.4v16.9h5.9v-16.9c0-0.7-0.6-1.2-1.2-1.2H324C323.3,512.1,322.7,512.7,322.7,513.4z"/>
			<path class="st8" d="M314,513.4v16.9h5.9v-16.9c0-0.7-0.6-1.2-1.2-1.2h-3.4C314.6,512.1,314,512.7,314,513.4z"/>
			<path class="st8" d="M305.3,513.4v16.9h5.9v-16.9c0-0.7-0.6-1.2-1.2-1.2h-3.4C305.9,512.1,305.3,512.7,305.3,513.4z"/>
			<path class="st8" d="M296.6,513.4v16.9h5.9v-16.9c0-0.7-0.6-1.2-1.2-1.2h-3.4C297.2,512.1,296.6,512.7,296.6,513.4z"/>
			<path class="st8" d="M287.9,513.4v16.9h5.9v-16.9c0-0.7-0.6-1.2-1.2-1.2h-3.4C288.5,512.1,287.9,512.7,287.9,513.4z"/>
			<path class="st8" d="M279.3,513.4v16.9h5.9v-16.9c0-0.7-0.6-1.2-1.2-1.2h-3.4C279.8,512.1,279.3,512.7,279.3,513.4z"/>
			<path class="st8" d="M270.6,513.4v16.9h5.9v-16.9c0-0.7-0.6-1.2-1.2-1.2h-3.4C271.1,512.1,270.6,512.7,270.6,513.4z"/>
			<path class="st8" d="M261.9,513.4v16.9h5.9v-16.9c0-0.7-0.6-1.2-1.2-1.2h-3.4C262.4,512.1,261.9,512.7,261.9,513.4z"/>
		</g>
		<g>
			<path class="st8" d="M267.7,623.1v-16.9h-5.9v16.9c0,0.7,0.6,1.2,1.2,1.2h3.4C267.2,624.4,267.7,623.8,267.7,623.1z"/>
			<path class="st8" d="M276.4,623.1v-16.9h-5.9l0,16.9c0,0.7,0.6,1.2,1.2,1.2h3.4C275.9,624.4,276.4,623.8,276.4,623.1z"/>
			<path class="st8" d="M285.1,623.1v-16.9h-5.9v16.9c0,0.7,0.6,1.2,1.2,1.2h3.4C284.6,624.4,285.1,623.8,285.1,623.1z"/>
			<path class="st8" d="M293.8,623.1l0-16.9h-5.9v16.9c0,0.7,0.6,1.2,1.2,1.2h3.4C293.3,624.4,293.8,623.8,293.8,623.1z"/>
			<path class="st8" d="M302.5,623.1v-16.9h-5.9v16.9c0,0.7,0.6,1.2,1.2,1.2h3.4C302,624.4,302.5,623.8,302.5,623.1z"/>
			<path class="st8" d="M311.2,623.1v-16.9h-5.9v16.9c0,0.7,0.6,1.2,1.2,1.2h3.4C310.7,624.4,311.2,623.8,311.2,623.1z"/>
			<path class="st8" d="M319.9,623.1v-16.9H314v16.9c0,0.7,0.6,1.2,1.2,1.2h3.4C319.3,624.4,319.9,623.8,319.9,623.1z"/>
			<path class="st8" d="M328.6,623.1v-16.9h-5.9l0,16.9c0,0.7,0.6,1.2,1.2,1.2h3.4C328,624.4,328.6,623.8,328.6,623.1z"/>
		</g>
		<g>
			<path class="st8" d="M350.1,595.4h-16.9v5.9h16.9c0.7,0,1.2-0.6,1.2-1.2v-3.4C351.3,596,350.8,595.4,350.1,595.4z"/>
			<path class="st8" d="M350.1,586.8h-16.9v5.9h16.9c0.7,0,1.2-0.6,1.2-1.2V588C351.3,587.3,350.8,586.8,350.1,586.8z"/>
			<path class="st8" d="M350.1,578.1h-16.9v5.9h16.9c0.7,0,1.2-0.6,1.2-1.2v-3.4C351.3,578.6,350.8,578.1,350.1,578.1z"/>
			<path class="st8" d="M350.1,569.4h-16.9v5.9h16.9c0.7,0,1.2-0.6,1.2-1.2v-3.4C351.3,569.9,350.8,569.4,350.1,569.4z"/>
			<path class="st8" d="M350.1,560.7h-16.9v5.9h16.9c0.7,0,1.2-0.6,1.2-1.2v-3.4C351.3,561.2,350.8,560.7,350.1,560.7z"/>
			<path class="st8" d="M350.1,552h-16.9v5.9h16.9c0.7,0,1.2-0.6,1.2-1.2v-3.4C351.3,552.5,350.8,552,350.1,552z"/>
			<path class="st8" d="M350.1,543.3h-16.9v5.9h16.9c0.7,0,1.2-0.6,1.2-1.2v-3.4C351.3,543.8,350.8,543.3,350.1,543.3z"/>
			<path class="st8" d="M350.1,534.6h-16.9v5.9h16.9c0.7,0,1.2-0.6,1.2-1.2v-3.4C351.3,535.1,350.8,534.6,350.1,534.6z"/>
		</g>
	</g>
	<path class="st15" d="M247,693.4v7.2c0,1.3,0,2.5-0.1,3.5c0,0.8-0.2,1.6-0.4,2.4c-0.2,0.7-0.5,1.3-0.8,1.9c-0.5,0.7-1,1.4-1.6,2
		c-0.6,0.7-1.5,1.2-2.5,1.6c-1.1,0.3-2.3,0.5-3.7,0.5h-6v-7.4h3.7c0.5,0,0.9-0.1,1.4-0.2c0.3-0.1,0.6-0.3,0.9-0.6
		c0.2-0.3,0.4-0.7,0.5-1.1c0.1-0.6,0.2-1.2,0.2-1.7v-7.9H247z M232.6,716.8h95v3.1h-95V716.8z M247,681.5v7.4h-8.5v-7.4H247z
		 M267.3,680.9c1.1,0,2.3,0.1,3.4,0.3c1,0.2,2.1,0.5,3.1,0.9c1,0.4,1.9,0.9,2.7,1.4c0.9,0.6,1.7,1.2,2.4,2c0.7,0.7,1.4,1.6,1.9,2.4
		c0.6,0.9,1,1.8,1.4,2.7c0.4,1,0.7,2,0.8,3.1c0.2,1.1,0.3,2.3,0.3,3.4c0,1.1-0.1,2.2-0.3,3.3c-0.2,1-0.5,2-0.8,3
		c-0.4,0.9-0.8,1.9-1.4,2.7c-0.6,0.9-1.2,1.7-1.9,2.4c-0.7,0.7-1.5,1.4-2.4,2c-0.8,0.6-1.7,1-2.7,1.4c-1,0.4-2,0.7-3,0.9
		c-1.1,0.2-2.2,0.3-3.3,0.3c-1.1,0-2.3-0.1-3.4-0.3c-1-0.2-2.1-0.5-3.1-0.8c-1-0.4-1.9-0.8-2.7-1.4c-1.7-1.1-3.2-2.6-4.4-4.4
		c-0.6-0.9-1-1.8-1.4-2.7c-0.4-1-0.7-2-0.9-3c-0.4-2.2-0.4-4.5,0-6.7c0.2-1,0.5-2.1,0.9-3c0.4-1,0.8-1.9,1.4-2.7
		c0.6-0.9,1.2-1.7,2-2.5c0.7-0.8,1.5-1.4,2.4-2c0.8-0.6,1.7-1.1,2.7-1.4c1-0.4,2-0.7,3-0.9C265.1,681,266.2,680.9,267.3,680.9
		L267.3,680.9z M267.3,688c-1,0-2,0.2-3,0.6c-0.9,0.4-1.6,1-2.2,1.8c-0.6,0.8-1.1,1.8-1.4,2.8c-0.3,1.1-0.5,2.3-0.5,3.7
		c0,1.3,0.1,2.5,0.5,3.8c0.3,1,0.8,2,1.4,2.9c0.6,0.8,1.4,1.4,2.3,1.8c0.9,0.4,1.9,0.6,3,0.6c1,0,2-0.2,3-0.6c0.9-0.4,1.6-1,2.2-1.8
		c0.6-0.9,1.1-1.8,1.4-2.8c0.3-1.1,0.5-2.4,0.5-3.8c0-1.2-0.1-2.5-0.5-3.7c-0.3-1-0.8-2-1.4-2.8c-0.6-0.8-1.4-1.4-2.3-1.8
		C269.4,688.2,268.4,688.1,267.3,688L267.3,688z M286.8,681.5h8.5v7.7c0,1.6,0.3,2.8,0.9,3.6c0.6,0.8,1.6,1.2,2.8,1.2
		c1.3,0,2.3-0.4,2.9-1.3c0.6-0.8,1-2.1,1-3.8v-7.4h8.4v5.4c0,1.3-0.1,2.5-0.2,3.6c-0.1,0.9-0.2,1.8-0.5,2.7
		c-0.3,0.9-0.6,1.7-1.1,2.5c-0.6,1-1.3,1.9-2,2.7c-0.4,0.5-0.9,0.9-1.5,1.3c-0.6,0.4-1.2,0.7-1.9,0.9c-0.8,0.3-1.6,0.4-2.4,0.5
		c-0.9,0.1-1.9,0.2-2.8,0.2c-0.9,0-1.8-0.1-2.7-0.2c-0.8-0.1-1.5-0.3-2.3-0.5c-0.7-0.2-1.3-0.5-1.9-0.9c-0.5-0.3-1-0.7-1.5-1.2
		c-0.8-0.8-1.5-1.7-2.1-2.6c-0.5-0.7-0.9-1.5-1.2-2.4c-0.3-0.9-0.4-1.8-0.5-2.7c-0.1-1.1-0.2-2.3-0.2-3.4L286.8,681.5z M306.1,705.1
		v7.4h-14.2v-7.4H306.1z M310.1,674.7h56.8v2.9h-56.8V674.7z M313.7,695H332v7.3h-18.3V695z M343.7,681.5v7.4h-8.5v-7.4H343.7z
		 M343.7,693.4v19.1h-8.5v-19.1H343.7z M368.2,681.5v7.4h-19.9v-7.4H368.2z M349.7,693.4h8.4v7.7c0,0.7,0,1.3,0.2,2
		c0.1,0.5,0.3,0.9,0.5,1.2c0.2,0.2,0.6,0.4,1.1,0.6c0.6,0.1,1.2,0.2,1.8,0.2h5.5v7.4h-7.9c-0.8,0-1.6-0.1-2.3-0.2
		c-0.7-0.1-1.4-0.3-2-0.5c-0.6-0.2-1.1-0.5-1.7-0.8c-0.5-0.3-0.9-0.7-1.3-1.1c-0.4-0.4-0.7-0.9-1-1.5c-0.3-0.6-0.5-1.2-0.7-1.9
		c-0.2-0.8-0.3-1.5-0.4-2.3c-0.1-0.9-0.1-1.8-0.1-2.7L349.7,693.4z"/>
	
		<rect x="208.9" y="522" transform="matrix(6.123234e-17 -1 1 6.123234e-17 -318.89 746.5339)" class="st5" width="9.8" height="21.5"/>
	<rect x="349.4" y="405.7" class="st5" width="9.8" height="21.5"/>
	<g>
		<path class="st7" d="M316,348.4h-45.5c-1.4,0-2.5-1.1-2.5-2.5v-34.3c0-1.4,1.1-2.5,2.5-2.5H316c1.4,0,2.5,1.1,2.5,2.5v34.3
			C318.5,347.3,317.4,348.4,316,348.4z"/>
		<circle class="st18" cx="272.2" cy="340.4" r="2.7"/>
		<g>
			<path class="st8" d="M276.4,360.6v-12.2h-6.1v12.2c0,0.7,0.6,1.2,1.2,1.2h3.6C275.8,361.9,276.4,361.3,276.4,360.6z"/>
			<path class="st8" d="M289.7,360.6v-12.2h-6.1v12.2c0,0.7,0.6,1.2,1.2,1.2h3.6C289.1,361.9,289.7,361.3,289.7,360.6z"/>
			<path class="st8" d="M303,360.6v-12.2h-6.1v12.2c0,0.7,0.6,1.2,1.2,1.2h3.6C302.4,361.9,303,361.3,303,360.6z"/>
			<path class="st8" d="M316.3,360.6v-12.2h-6.1v12.2c0,0.7,0.6,1.2,1.2,1.2h3.6C315.7,361.9,316.3,361.3,316.3,360.6z"/>
		</g>
		<g>
			<path class="st8" d="M310.2,296.9v12.2h6.1v-12.2c0-0.7-0.6-1.2-1.2-1.2h-3.6C310.7,295.7,310.2,296.2,310.2,296.9z"/>
			<path class="st8" d="M296.9,296.9v12.2h6.1v-12.2c0-0.7-0.6-1.2-1.2-1.2h-3.6C297.4,295.7,296.9,296.2,296.9,296.9z"/>
			<path class="st8" d="M283.6,296.9l0,12.2h6.1l0-12.2c0-0.7-0.6-1.2-1.2-1.2h-3.6C284.2,295.7,283.6,296.2,283.6,296.9z"/>
			<path class="st8" d="M270.3,296.9v12.2h6.1v-12.2c0-0.7-0.6-1.2-1.2-1.2h-3.6C270.9,295.7,270.3,296.2,270.3,296.9z"/>
		</g>
	</g>
	<g>
		<g>
			<path class="st8" d="M232.4,336.9v-12.2h-9.6v12.2c0,0.7,0.6,1.2,1.2,1.2h7.1C231.8,338.2,232.4,337.6,232.4,336.9z"/>
			<path class="st8" d="M252,336.9v-12.2h-9.6v12.2c0,0.7,0.6,1.2,1.2,1.2h7.1C251.5,338.2,252,337.6,252,336.9z"/>
		</g>
		<g>
			<path class="st8" d="M223.9,296.2v12.2h6.1v-12.2c0-0.7-0.6-1.2-1.2-1.2h-3.6C224.4,294.9,223.9,295.5,223.9,296.2z"/>
			<path class="st8" d="M234.4,296.2v12.2h6.1v-12.2c0-0.7-0.6-1.2-1.2-1.2h-3.6C234.9,294.9,234.4,295.5,234.4,296.2z"/>
			<path class="st8" d="M244.9,296.2v12.2h6.1v-12.2c0-0.7-0.6-1.2-1.2-1.2h-3.6C245.4,294.9,244.9,295.5,244.9,296.2z"/>
		</g>
		<path class="st7" d="M251.9,324.7h-29c-0.4,0-0.7-0.3-0.7-0.7v-14.8c0-0.4,0.3-0.7,0.7-0.7h29c0.4,0,0.7,0.3,0.7,0.7V324
			C252.6,324.4,252.3,324.7,251.9,324.7z"/>
	</g>
	
		<rect x="233.7" y="344.8" transform="matrix(6.123234e-17 -1 1 6.123234e-17 -116.9728 594.1274)" class="st5" width="9.8" height="21.5"/>
	<g>
		<rect x="365.5" y="286" class="st7" width="34.4" height="107"/>
		<g>
			<path class="st8" d="M348.6,294.4h16.9v-5.9h-16.9c-0.7,0-1.2,0.6-1.2,1.2v3.4C347.4,293.9,347.9,294.4,348.6,294.4z"/>
			<path class="st8" d="M348.6,308.2h16.9v-5.9h-16.9c-0.7,0-1.2,0.6-1.2,1.2v3.4C347.4,307.6,347.9,308.2,348.6,308.2z"/>
			<path class="st8" d="M348.6,321.9h16.9V316h-16.9c-0.7,0-1.2,0.6-1.2,1.2v3.4C347.4,321.3,347.9,321.9,348.6,321.9z"/>
			<path class="st8" d="M348.6,335.6h16.9v-5.9h-16.9c-0.7,0-1.2,0.6-1.2,1.2v3.4C347.4,335.1,347.9,335.6,348.6,335.6z"/>
			<path class="st8" d="M348.6,349.3h16.9v-5.9h-16.9c-0.7,0-1.2,0.6-1.2,1.2v3.4C347.4,348.8,347.9,349.3,348.6,349.3z"/>
			<path class="st8" d="M348.6,363.1h16.9v-5.9h-16.9c-0.7,0-1.2,0.6-1.2,1.2v3.4C347.4,362.5,347.9,363.1,348.6,363.1z"/>
			<path class="st8" d="M348.6,376.8h16.9v-5.9h-16.9c-0.7,0-1.2,0.6-1.2,1.2v3.4C347.4,376.2,347.9,376.8,348.6,376.8z"/>
			<path class="st8" d="M348.6,390.5h16.9v-5.9h-16.9c-0.7,0-1.2,0.6-1.2,1.2v3.4C347.4,390,347.9,390.5,348.6,390.5z"/>
		</g>
		<g>
			<path class="st8" d="M416.8,384.7h-16.9v5.9h16.9c0.7,0,1.2-0.6,1.2-1.2v-3.4C418,385.2,417.4,384.7,416.8,384.7z"/>
			<path class="st8" d="M416.8,370.9h-16.9v5.9h16.9c0.7,0,1.2-0.6,1.2-1.2v-3.4C418,371.5,417.4,370.9,416.8,370.9z"/>
			<path class="st8" d="M416.8,357.2h-16.9v5.9h16.9c0.7,0,1.2-0.6,1.2-1.2v-3.4C418,357.8,417.4,357.2,416.8,357.2z"/>
			<path class="st8" d="M416.8,343.5h-16.9v5.9h16.9c0.7,0,1.2-0.6,1.2-1.2v-3.4C418,344,417.4,343.5,416.8,343.5z"/>
			<path class="st8" d="M416.8,329.7h-16.9v5.9h16.9c0.7,0,1.2-0.6,1.2-1.2V331C418,330.3,417.4,329.7,416.8,329.7z"/>
			<path class="st8" d="M416.8,316h-16.9v5.9h16.9c0.7,0,1.2-0.6,1.2-1.2v-3.4C418,316.6,417.4,316,416.8,316z"/>
			<path class="st8" d="M416.8,302.3h-16.9v5.9h16.9c0.7,0,1.2-0.6,1.2-1.2v-3.4C418,302.9,417.4,302.3,416.8,302.3z"/>
			<path class="st8" d="M416.8,288.6h-16.9v5.9h16.9c0.7,0,1.2-0.6,1.2-1.2v-3.4C418,289.1,417.4,288.6,416.8,288.6z"/>
		</g>
		<circle class="st18" cx="391.8" cy="383.2" r="4.9"/>
	</g>
	
		<rect x="444.5" y="332.7" transform="matrix(-1.836970e-16 1 -1 -1.836970e-16 792.8937 -105.9445)" class="st5" width="9.8" height="21.5"/>
	<g>
		
			<rect x="444.1" y="352" transform="matrix(-1.836970e-16 1 -1 -1.836970e-16 810.0681 -88.7701)" class="st9" width="10.7" height="17.2"/>
		
			<rect x="444.2" y="354.7" transform="matrix(-1.836970e-16 1 -1 -1.836970e-16 810.23 -88.9319)" class="st7" width="10.7" height="11.8"/>
	</g>
	<g>
		
			<rect x="444.1" y="369.6" transform="matrix(-1.836970e-16 1 -1 -1.836970e-16 827.6635 -71.1747)" class="st9" width="10.7" height="17.2"/>
		
			<rect x="444.2" y="372.3" transform="matrix(-1.836970e-16 1 -1 -1.836970e-16 827.8253 -71.3366)" class="st7" width="10.7" height="11.8"/>
	</g>
	<g>
		<rect x="397.2" y="220.8" class="st9" width="10.7" height="17.2"/>
		<rect x="397.2" y="223.4" class="st7" width="10.7" height="11.8"/>
	</g>
	<g>
		<rect x="412.8" y="220.7" class="st9" width="10.7" height="17.2"/>
		<rect x="412.8" y="223.2" class="st7" width="10.7" height="11.8"/>
	</g>
	<path class="st8" d="M323.3,269.4v-12.2h-11.5v12.2c0,0.7,0.6,1.2,1.2,1.2h9C322.7,270.6,323.3,270.1,323.3,269.4z"/>
	<g>
		<rect x="274.7" y="138.9" class="st19" width="51.5" height="35.1"/>
		<rect x="287.1" y="138.9" class="st20" width="26.7" height="35.1"/>
	</g>
	<g>
		<path class="st2" d="M370,104.8L370,104.8h87.6l0,0c2.7,1.4,4.4,4.2,4.4,7.3v70.1c0,1-0.8,1.8-1.8,1.8h-92.8c-1,0-1.8-0.8-1.8-1.8
			v-70.1C365.6,109,367.3,106.2,370,104.8z"/>
		<g>
			<path class="st21" d="M444.8,178.1L444.8,178.1c0-1.3-1.1-2.4-2.4-2.4h-9.9c-0.8,0-1.5-0.7-1.5-1.5v-2.1c0-0.8,0.7-1.5,1.5-1.5
				h9.9c1.3,0,2.4-1.1,2.4-2.4v0c0-1.3-1.1-2.4-2.4-2.4h-14c-1.3,0-2.4,1.1-2.4,2.4v10c0,1.3,1.1,2.4,2.4,2.4h14
				C443.7,180.6,444.8,179.5,444.8,178.1z"/>
			<path class="st21" d="M382.9,168.1L382.9,168.1c0,1.3,1.1,2.4,2.4,2.4h9.9c0.8,0,1.5,0.7,1.5,1.5v2.1c0,0.8-0.7,1.5-1.5,1.5h-9.9
				c-1.3,0-2.4,1.1-2.4,2.4l0,0c0,1.3,1.1,2.4,2.4,2.4h14c1.3,0,2.4-1.1,2.4-2.4v-10c0-1.3-1.1-2.4-2.4-2.4h-14
				C384,165.7,382.9,166.8,382.9,168.1z"/>
		</g>
	</g>
	<g>
		<path class="st7" d="M266.5,222.7h-67.1c-0.7,0-1.2-0.5-1.2-1.2v-34.6c0-0.7,0.5-1.2,1.2-1.2h67.1c0.7,0,1.2,0.5,1.2,1.2v34.6
			C267.6,222.2,267.1,222.7,266.5,222.7z"/>
		<g>
			<path class="st8" d="M210.4,239.6v-16.9h-5.9v16.9c0,0.7,0.6,1.2,1.2,1.2h3.4C209.9,240.8,210.4,240.3,210.4,239.6z"/>
			<path class="st8" d="M235.8,239.6v-16.9h-5.9v16.9c0,0.7,0.6,1.2,1.2,1.2h3.4C235.3,240.8,235.8,240.3,235.8,239.6z"/>
			<path class="st8" d="M261.2,239.6v-16.9h-5.9v16.9c0,0.7,0.6,1.2,1.2,1.2h3.4C260.6,240.8,261.2,240.3,261.2,239.6z"/>
		</g>
		<path class="st8" d="M214.1,160.2v25.6h34.3v-25.6c0-0.7-0.6-1.2-1.2-1.2h-31.8C214.7,158.9,214.1,159.5,214.1,160.2z"/>
	</g>
	<rect x="150.4" y="263.9" class="st7" width="48.4" height="27.1"/>
	<g>
		<rect x="16" y="307.1" class="st2" width="20" height="20"/>
		<circle class="st22" cx="26" cy="317.1" r="7.4"/>
		<rect x="16" y="335.7" class="st2" width="20" height="20"/>
		<circle class="st22" cx="26" cy="345.7" r="7.4"/>
		<rect x="16" y="364.4" class="st2" width="20" height="20"/>
		<circle class="st22" cx="26" cy="374.4" r="7.4"/>
		<rect x="16" y="393.1" class="st2" width="20" height="20"/>
		<circle class="st22" cx="26" cy="403.1" r="7.4"/>
	</g>
	<g>
		<rect x="9.3" y="419.5" class="st23" width="33.4" height="240.9"/>
		<rect x="16.2" y="422.1" width="19.6" height="19.6"/>
		<rect x="16.2" y="452.7" width="19.6" height="19.6"/>
		<rect x="16.2" y="483.2" width="19.6" height="19.6"/>
		<rect x="16.2" y="513.7" width="19.6" height="19.6"/>
		<rect x="16.2" y="544.2" width="19.6" height="19.6"/>
		<rect x="16.2" y="574.7" width="19.6" height="19.6"/>
		<rect x="16.2" y="605.2" width="19.6" height="19.6"/>
		<rect x="16.2" y="635.7" width="19.6" height="19.6"/>
	</g>
	<g>
		<rect x="9.3" y="666" class="st23" width="33.4" height="178.8"/>
		<g>
			<rect x="16.2" y="669.3" width="19.6" height="19.6"/>
			<rect x="16.2" y="699.8" width="19.6" height="19.6"/>
			<rect x="16.2" y="730.3" width="19.6" height="19.6"/>
			<rect x="16.2" y="760.8" width="19.6" height="19.6"/>
			<rect x="16.2" y="791.3" width="19.6" height="19.6"/>
			<rect x="16.2" y="821.9" width="19.6" height="19.6"/>
		</g>
	</g>
	<g>
		<path class="st15" d="M50.3,457.6h2.5v10.4h-2.5V457.6z"/>
		<path class="st15" d="M54.7,462.8c0-3.4,1.9-5.4,4.8-5.4s4.8,2,4.8,5.4s-1.9,5.4-4.8,5.4S54.7,466.2,54.7,462.8z M61.7,462.8
			c0-2-0.8-3.2-2.2-3.2c-1.4,0-2.2,1.2-2.2,3.2c0,2,0.9,3.3,2.2,3.3C60.9,466.1,61.7,464.8,61.7,462.8z"/>
		<path class="st15" d="M66.2,457.6H70c2.2,0,4.1,0.8,4.1,3.3c0,1.5-0.7,2.5-1.8,3l2.3,4.1h-2.8l-1.9-3.7h-1.2v3.7h-2.5V457.6z
			 M69.9,462.4c1.2,0,1.8-0.5,1.8-1.5s-0.6-1.3-1.8-1.3h-1.1v2.8H69.9z"/>
		<path class="st15" d="M76.1,457.6h6.6v2.1h-4.1v2h3.5v2.1h-3.5v2.2h4.3v2.1h-6.8V457.6z"/>
		<path class="st15" d="M84.9,457.6h6.7v2.1h-4.2v2.3H91v2.1h-3.6v4h-2.5V457.6z"/>
	</g>
	<g>
		<path class="st15" d="M51.6,488.2h3.8c2.2,0,4.1,0.8,4.1,3.3c0,1.5-0.7,2.5-1.8,3l2.3,4.1h-2.8l-1.9-3.7h-1.2v3.7h-2.5V488.2z
			 M55.2,492.9c1.2,0,1.8-0.5,1.8-1.5s-0.6-1.3-1.8-1.3h-1.1v2.8H55.2z"/>
		<path class="st15" d="M61.5,488.2H68v2.1h-4.1v2h3.5v2.1h-3.5v2.2h4.3v2.1h-6.8V488.2z"/>
		<path class="st15" d="M69.6,497.3l1.3-1.6c0.7,0.6,1.7,1,2.6,1c0.9,0,1.4-0.4,1.4-0.9c0-0.6-0.6-0.8-1.5-1.2l-1.3-0.6
			c-1.1-0.4-2.1-1.3-2.1-2.8c0-1.7,1.6-3.2,3.8-3.2c1.2,0,2.5,0.5,3.4,1.3l-1.3,1.6c-0.7-0.5-1.4-0.8-2.1-0.8
			c-0.8,0-1.3,0.3-1.3,0.8c0,0.6,0.7,0.8,1.6,1.2l1.3,0.5c1.3,0.5,2.1,1.4,2.1,2.8c0,1.7-1.5,3.3-4,3.3
			C72.1,498.8,70.7,498.3,69.6,497.3z"/>
		<path class="st15" d="M79.2,488.2h6.6v2.1h-4.1v2h3.5v2.1h-3.5v2.2h4.3v2.1h-6.8V488.2z"/>
		<path class="st15" d="M90,490.2h-2.8v-2.1h8.1v2.1h-2.8v8.3H90V490.2z"/>
	</g>
	<g>
		<path class="st15" d="M51.9,527.8l1.1-1.6c0.6,0.6,1.4,1,2.2,1c1,0,1.6-0.4,1.6-1.2c0-0.9-0.5-1.4-2.7-1.4v-1.8
			c1.8,0,2.3-0.5,2.3-1.4c0-0.7-0.4-1.1-1.2-1.1c-0.7,0-1.2,0.3-1.9,0.9l-1.2-1.5c0.9-0.8,2-1.3,3.2-1.3c2.2,0,3.6,1,3.6,2.9
			c0,1.1-0.6,1.8-1.7,2.3v0.1c1.2,0.3,2,1.2,2,2.5c0,2-1.8,3-3.8,3C53.9,529.3,52.7,528.7,51.9,527.8z"/>
		<path class="st15" d="M61.1,527.7c0-0.9,0.6-1.5,1.5-1.5c0.8,0,1.5,0.7,1.5,1.5s-0.6,1.5-1.5,1.5
			C61.7,529.3,61.1,528.6,61.1,527.7z"/>
		<path class="st15" d="M65.4,527.8l1.1-1.6c0.6,0.6,1.4,1,2.2,1c1,0,1.6-0.4,1.6-1.2c0-0.9-0.5-1.4-2.7-1.4v-1.8
			c1.8,0,2.3-0.5,2.3-1.4c0-0.7-0.4-1.1-1.2-1.1c-0.7,0-1.2,0.3-1.9,0.9l-1.2-1.5c0.9-0.8,2-1.3,3.2-1.3c2.2,0,3.6,1,3.6,2.9
			c0,1.1-0.6,1.8-1.7,2.3v0.1c1.2,0.3,2,1.2,2,2.5c0,2-1.8,3-3.8,3C67.3,529.3,66.1,528.7,65.4,527.8z"/>
		<path class="st15" d="M73.4,518.7H76l1.1,4.8c0.3,1.1,0.5,2.2,0.8,3.3H78c0.3-1.1,0.5-2.2,0.8-3.3l1.2-4.8h2.5l-3.2,10.4h-3
			L73.4,518.7z"/>
	</g>
	<g>
		<path class="st15" d="M53.2,558.4l1.1-1.6c0.6,0.6,1.3,1,2.1,1c1,0,1.6-0.6,1.6-1.6s-0.6-1.6-1.5-1.6c-0.6,0-0.9,0.1-1.5,0.5
			l-1.1-0.7l0.3-5.2h5.8v2.1h-3.7l-0.1,1.8c0.4-0.1,0.7-0.2,1.1-0.2c1.8,0,3.2,1,3.2,3.3c0,2.4-1.8,3.7-3.8,3.7
			C55.1,559.8,54,559.2,53.2,558.4z"/>
		<path class="st15" d="M61.2,549.2h2.6l1.1,4.8c0.3,1.1,0.5,2.2,0.8,3.3h0.1c0.3-1.1,0.5-2.2,0.8-3.3l1.2-4.8h2.5l-3.2,10.4h-3
			L61.2,549.2z"/>
	</g>
	<g>
		<path class="st15" d="M54.8,585c0-3.5,2.3-5.5,5.1-5.5c1.5,0,2.6,0.6,3.3,1.4l-1.3,1.5c-0.5-0.5-1.1-0.7-1.9-0.7
			c-1.5,0-2.7,1.2-2.7,3.2c0,2.1,0.9,3.3,2.9,3.3c0.4,0,0.8-0.1,1-0.3v-1.7h-1.7v-2h3.9v4.9c-0.7,0.7-2,1.3-3.5,1.3
			C57.1,590.3,54.8,588.5,54.8,585z"/>
		<path class="st15" d="M65.5,579.7h2.6l2.6,5c0.4,0.7,0.7,1.5,1,2.4h0.1c-0.1-1.1-0.3-2.6-0.3-3.8v-3.5h2.4v10.4h-2.6l-2.6-5
			c-0.4-0.7-0.7-1.5-1-2.4h-0.1c0.1,1.2,0.3,2.6,0.3,3.8v3.5h-2.4V579.7z"/>
		<path class="st15" d="M76.2,579.7h3c3.2,0,5.3,1.6,5.3,5.2c0,3.6-2.1,5.2-5.1,5.2h-3.1V579.7z M79,588.1c1.7,0,2.9-0.8,2.9-3.2
			c0-2.5-1.2-3.2-2.9-3.2h-0.4v6.4H79z"/>
	</g>
	<g>
		<path class="st15" d="M56,615.5c0-3.5,2.3-5.5,5.1-5.5c1.5,0,2.6,0.6,3.3,1.4l-1.3,1.5c-0.5-0.5-1.1-0.7-1.9-0.7
			c-1.5,0-2.7,1.2-2.7,3.2c0,2.1,0.9,3.3,2.9,3.3c0.4,0,0.8-0.1,1-0.3v-1.7h-1.7v-2h3.9v4.9c-0.7,0.7-2,1.3-3.5,1.3
			C58.3,620.8,56,619,56,615.5z"/>
		<path class="st15" d="M66.7,610.2h2.6l2.6,5c0.4,0.7,0.7,1.5,1,2.4H73c-0.1-1.1-0.3-2.6-0.3-3.8v-3.5H75v10.4h-2.6l-2.6-5
			c-0.4-0.7-0.7-1.5-1-2.4h-0.1c0.1,1.2,0.3,2.6,0.3,3.8v3.5h-2.4V610.2z"/>
		<path class="st15" d="M77.4,610.2h3c3.2,0,5.3,1.6,5.3,5.2c0,3.6-2.1,5.2-5.1,5.2h-3.1V610.2z M80.3,618.6c1.7,0,2.9-0.8,2.9-3.2
			c0-2.5-1.2-3.2-2.9-3.2h-0.4v6.4H80.3z"/>
	</g>
	<g>
		<path class="st15" d="M56.4,640.7H59l1.1,4.8c0.3,1.1,0.5,2.2,0.8,3.3H61c0.3-1.1,0.5-2.2,0.8-3.3l1.2-4.8h2.5l-3.2,10.4h-3
			L56.4,640.7z"/>
		<path class="st15" d="M66.7,640.7h2.5v10.4h-2.5V640.7z"/>
		<path class="st15" d="M71.6,640.7h2.6l2.6,5c0.4,0.7,0.7,1.5,1,2.4h0.1c-0.1-1.1-0.3-2.6-0.3-3.8v-3.5h2.4v10.4h-2.6l-2.6-5
			c-0.4-0.7-0.7-1.5-1-2.4h-0.1c0.1,1.2,0.3,2.6,0.3,3.8v3.5h-2.4V640.7z"/>
	</g>
	<g>
		<path class="st15" d="M60.9,674.3h3l3.2,10.4h-2.6l-0.6-2.4h-3.1l-0.6,2.4h-2.5L60.9,674.3z M61.3,680.4h2.1l-0.2-0.9
			c-0.3-1-0.5-2.3-0.8-3.3h-0.1c-0.3,1.1-0.5,2.3-0.8,3.3L61.3,680.4z"/>
		<path class="st15" d="M67.5,679.5c0-3.6,1.5-5.4,3.7-5.4s3.7,1.8,3.7,5.4s-1.5,5.4-3.7,5.4S67.5,683,67.5,679.5z M72.6,679.5
			c0-2.8-0.6-3.5-1.3-3.5c-0.8,0-1.3,0.6-1.3,3.5c0,2.8,0.6,3.5,1.3,3.5C72,683,72.6,682.3,72.6,679.5z"/>
	</g>
	<g>
		<path class="st15" d="M62.1,704.8h3l3.2,10.4h-2.6l-0.6-2.4H62l-0.6,2.4h-2.5L62.1,704.8z M62.5,710.9h2.1l-0.2-0.9
			c-0.3-1-0.5-2.3-0.8-3.3h-0.1c-0.3,1.1-0.5,2.3-0.8,3.3L62.5,710.9z"/>
		<path class="st15" d="M69.3,713.2h2.2v-5.9h-1.9v-1.5c1.1-0.2,1.8-0.5,2.6-0.9H74v8.4h1.9v2h-6.6V713.2z"/>
	</g>
	<g>
		<path class="st15" d="M63.3,735.3h3l3.2,10.4h-2.6l-0.6-2.4h-3.1l-0.6,2.4h-2.5L63.3,735.3z M63.7,741.4h2.1l-0.2-0.9
			c-0.3-1-0.5-2.3-0.8-3.3h-0.1c-0.3,1.1-0.5,2.3-0.8,3.3L63.7,741.4z"/>
		<path class="st15" d="M70,744.2c2.7-2.3,4.4-4.2,4.4-5.6c0-1-0.5-1.5-1.4-1.5c-0.7,0-1.3,0.5-1.8,1l-1.3-1.3
			c1-1.1,1.9-1.7,3.4-1.7c2,0,3.4,1.3,3.4,3.3c0,1.9-1.7,3.8-3.3,5.4c0.5,0,1.2-0.1,1.7-0.1h2.1v2.1H70V744.2z"/>
	</g>
	<g>
		<path class="st15" d="M64.6,765.8h3l3.2,10.4h-2.6l-0.6-2.4h-3.1l-0.6,2.4h-2.5L64.6,765.8z M65,771.9h2.1l-0.2-0.9
			c-0.3-1-0.5-2.3-0.8-3.3H66c-0.3,1.1-0.5,2.3-0.8,3.3L65,771.9z"/>
		<path class="st15" d="M71,775l1.1-1.6c0.6,0.6,1.4,1,2.2,1c1,0,1.6-0.4,1.6-1.2c0-0.9-0.5-1.4-2.7-1.4v-1.8c1.8,0,2.3-0.5,2.3-1.4
			c0-0.7-0.4-1.1-1.2-1.1c-0.7,0-1.2,0.3-1.9,0.9l-1.2-1.5c0.9-0.8,2-1.3,3.2-1.3c2.2,0,3.6,1,3.6,2.9c0,1.1-0.6,1.8-1.7,2.3v0.1
			c1.2,0.3,2,1.2,2,2.5c0,2-1.8,3-3.8,3C72.9,776.4,71.8,775.9,71,775z"/>
	</g>
	<g>
		<path class="st15" d="M65.8,796.3h3l3.2,10.4h-2.6l-0.6-2.4h-3.1l-0.6,2.4h-2.5L65.8,796.3z M66.2,802.4h2.1l-0.2-0.9
			c-0.3-1-0.5-2.3-0.8-3.3h-0.1c-0.3,1.1-0.5,2.3-0.8,3.3L66.2,802.4z"/>
		<path class="st15" d="M76.6,804.2h-4.4v-1.7l3.6-6.1h3.1v5.9h1.2v1.9h-1.2v2.6h-2.3V804.2z M76.6,802.3v-1.5c0-0.7,0-1.6,0.1-2.3
			h-0.1c-0.3,0.6-0.5,1.2-0.8,1.8l-1.2,2.1H76.6z"/>
		<path class="st15" d="M83.7,795.4h1.6l-3.1,13.9h-1.6L83.7,795.4z"/>
		<path class="st15" d="M86.4,805.4l1.3-1.6c0.7,0.6,1.7,1,2.6,1c0.9,0,1.4-0.4,1.4-0.9c0-0.6-0.6-0.8-1.5-1.2l-1.3-0.6
			c-1.1-0.4-2.1-1.3-2.1-2.8c0-1.7,1.6-3.2,3.8-3.2c1.2,0,2.5,0.5,3.4,1.3l-1.3,1.6c-0.7-0.5-1.4-0.8-2.1-0.8
			c-0.8,0-1.3,0.3-1.3,0.8c0,0.6,0.7,0.8,1.6,1.2l1.3,0.5c1.3,0.5,2.1,1.4,2.1,2.8c0,1.7-1.5,3.3-4,3.3
			C88.8,807,87.4,806.5,86.4,805.4z"/>
		<path class="st15" d="M95.9,796.3h3c3.2,0,5.3,1.6,5.3,5.2c0,3.6-2.1,5.2-5.1,5.2h-3.1V796.3z M98.8,804.8c1.7,0,2.9-0.8,2.9-3.2
			c0-2.5-1.2-3.2-2.9-3.2h-0.4v6.4H98.8z"/>
		<path class="st15" d="M107.9,796.3h3l3.2,10.4h-2.6l-0.6-2.4h-3.1l-0.6,2.4h-2.5L107.9,796.3z M108.3,802.4h2.1l-0.2-0.9
			c-0.3-1-0.5-2.3-0.8-3.3h-0.1c-0.3,1.1-0.5,2.3-0.8,3.3L108.3,802.4z"/>
	</g>
	<g>
		<path class="st15" d="M67,823.8h3l3.2,10.4h-2.6l-0.6-2.4h-3.1l-0.6,2.4h-2.5L67,823.8z M67.4,829.9h2.1l-0.2-0.9
			c-0.3-1-0.5-2.3-0.8-3.3h-0.1c-0.3,1.1-0.5,2.3-0.8,3.3L67.4,829.9z"/>
		<path class="st15" d="M73.5,833l1.1-1.6c0.6,0.6,1.3,1,2.1,1c1,0,1.6-0.6,1.6-1.6s-0.6-1.6-1.5-1.6c-0.6,0-0.9,0.1-1.5,0.5
			l-1.1-0.7l0.3-5.2h5.8v2.1h-3.7l-0.1,1.8c0.4-0.1,0.7-0.2,1.1-0.2c1.8,0,3.2,1,3.2,3.3c0,2.4-1.8,3.7-3.8,3.7
			C75.5,834.4,74.3,833.8,73.5,833z"/>
		<path class="st15" d="M85,822.8h1.6l-3.1,13.9h-1.6L85,822.8z"/>
		<path class="st15" d="M87.6,832.9l1.3-1.6c0.7,0.6,1.7,1,2.6,1c0.9,0,1.4-0.4,1.4-0.9c0-0.6-0.6-0.8-1.5-1.2l-1.3-0.6
			c-1.1-0.4-2.1-1.3-2.1-2.8c0-1.7,1.6-3.2,3.8-3.2c1.2,0,2.5,0.5,3.4,1.3l-1.3,1.6c-0.7-0.5-1.4-0.8-2.1-0.8
			c-0.8,0-1.3,0.3-1.3,0.8c0,0.6,0.7,0.8,1.6,1.2l1.3,0.5c1.3,0.5,2.1,1.4,2.1,2.8c0,1.7-1.5,3.3-4,3.3
			C90.1,834.4,88.7,833.9,87.6,832.9z"/>
		<path class="st15" d="M96.7,829.1c0-3.5,2.3-5.5,5-5.5c1.4,0,2.4,0.6,3.2,1.4l-1.3,1.5c-0.5-0.5-1.1-0.7-1.8-0.7
			c-1.4,0-2.5,1.2-2.5,3.2c0,2.1,1,3.3,2.4,3.3c0.8,0,1.5-0.3,2-0.9l1.3,1.5c-0.9,1-2.1,1.5-3.4,1.5
			C98.9,834.4,96.7,832.6,96.7,829.1z"/>
		<path class="st15" d="M106.5,823.8h2.5v8.3h4v2.1h-6.5V823.8z"/>
	</g>
	<g>
		<path class="st15" d="M119.5,516.9v3.7c0,2.3-0.8,4.2-3.4,4.2c-2.5,0-3.6-1.9-3.6-4.1v-1.2h-3.5v-2.5H119.5z M114.5,520.5
			c0,1.2,0.6,1.8,1.6,1.8c1,0,1.4-0.7,1.4-1.9v-1h-3V520.5z"/>
		<path class="st15" d="M114.3,526c3.4,0,5.4,1.9,5.4,4.8s-2,4.8-5.4,4.8s-5.4-1.9-5.4-4.8S110.9,526,114.3,526z M114.3,533
			c2,0,3.2-0.8,3.2-2.2c0-1.4-1.2-2.2-3.2-2.2c-2,0-3.3,0.9-3.3,2.2C111,532.2,112.3,533,114.3,533z"/>
		<path class="st15" d="M119.5,536.5v2.5l-4.8,0.7c-1.1,0.1-2.2,0.3-3.3,0.4v0.1c1.1,0.2,2.2,0.4,3.3,0.6l4.8,1.1v2.1l-4.8,1.1
			c-1.1,0.2-2.2,0.4-3.3,0.6v0.1c1.2,0.1,2.3,0.3,3.3,0.4l4.8,0.7v2.4l-10.4-1.8v-3.2l4.6-0.9c0.8-0.2,1.6-0.3,2.5-0.4v-0.1
			c-0.8-0.1-1.6-0.2-2.5-0.4l-4.6-0.9v-3.1L119.5,536.5z"/>
		<path class="st15" d="M119.5,550.6v6.6h-2.1v-4.1h-2v3.5h-2.1v-3.5h-2.2v4.3h-2.1v-6.8H119.5z"/>
		<path class="st15" d="M119.5,559.4v3.8c0,2.2-0.8,4.1-3.3,4.1c-1.5,0-2.5-0.7-3-1.8l-4.1,2.3V565l3.7-1.9v-1.2h-3.7v-2.5H119.5z
			 M114.7,563c0,1.2,0.5,1.8,1.5,1.8s1.3-0.6,1.3-1.8v-1.1h-2.8V563z"/>
	</g>
	<g>
		<path class="st15" d="M119.5,719.3v3l-10.4,3.2v-2.6l2.4-0.6v-3.1l-2.4-0.6V716L119.5,719.3z M113.4,719.7v2.1l0.9-0.2
			c1-0.3,2.3-0.5,3.3-0.8v-0.1c-1.1-0.3-2.3-0.5-3.3-0.8L113.4,719.7z"/>
		<path class="st15" d="M119.5,726.6v2.6l-5,2.6c-0.7,0.4-1.5,0.7-2.4,1v0.1c1.1-0.1,2.6-0.3,3.8-0.3h3.5v2.4h-10.4v-2.6l5-2.6
			c0.7-0.4,1.5-0.7,2.4-1v-0.1c-1.2,0.1-2.6,0.3-3.8,0.3h-3.5v-2.4H119.5z"/>
		<path class="st15" d="M119.5,739.2v3l-10.4,3.2v-2.6l2.4-0.6v-3.1l-2.4-0.6v-2.5L119.5,739.2z M113.4,739.5v2.1l0.9-0.2
			c1-0.3,2.3-0.5,3.3-0.8v-0.1c-1.1-0.3-2.3-0.5-3.3-0.8L113.4,739.5z"/>
		<path class="st15" d="M119.5,746.5v2.5h-8.3v4h-2.1v-6.5H119.5z"/>
		<path class="st15" d="M114.3,753.7c3.4,0,5.4,1.9,5.4,4.8s-2,4.8-5.4,4.8s-5.4-1.9-5.4-4.8S110.9,753.7,114.3,753.7z M114.3,760.7
			c2,0,3.2-0.8,3.2-2.2c0-1.4-1.2-2.2-3.2-2.2c-2,0-3.3,0.9-3.3,2.2C111,759.9,112.3,760.7,114.3,760.7z"/>
		<path class="st15" d="M114.2,764.7c3.5,0,5.5,2.3,5.5,5.1c0,1.5-0.6,2.6-1.4,3.3l-1.5-1.3c0.5-0.5,0.7-1.1,0.7-1.9
			c0-1.5-1.2-2.7-3.2-2.7c-2.1,0-3.3,0.9-3.3,2.9c0,0.4,0.1,0.8,0.3,1h1.7v-1.7h2v3.9h-4.9c-0.7-0.7-1.3-2-1.3-3.5
			C108.9,767,110.7,764.7,114.2,764.7z"/>
		<path class="st15" d="M119.5,778.7v2.5h-10.4v-2.5H119.5z"/>
		<path class="st15" d="M119.5,783.5v2.6l-5,2.6c-0.7,0.4-1.5,0.7-2.4,1v0.1c1.1-0.1,2.6-0.3,3.8-0.3h3.5v2.4h-10.4v-2.6l5-2.6
			c0.7-0.4,1.5-0.7,2.4-1v-0.1c-1.2,0.1-2.6,0.3-3.8,0.3h-3.5v-2.4H119.5z"/>
	</g>
	<path class="st24" d="M126,834.5L126,834.5c-1.3,0-2.3-1-2.3-2.3V676.9c0-1.3,1-2.3,2.3-2.3h0c1.3,0,2.3,1,2.3,2.3v155.3
		C128.3,833.5,127.3,834.5,126,834.5z"/>
	<path class="st24" d="M126,635.7L126,635.7c-1.3,0-2.3-1-2.3-2.3V450.3c0-1.3,1-2.3,2.3-2.3h0c1.3,0,2.3,1,2.3,2.3v183.2
		C128.3,634.7,127.3,635.7,126,635.7z"/>
	<g>
		<g>
			<polygon class="st25" points="292.3,824.6 288.7,824.6 288.6,824.6 285,824.6 276.5,833.1 276.5,866.1 285,874.6 288.6,874.6 
				288.7,874.6 292.3,874.6 300.8,866.1 300.8,833.1 			"/>
			<g>
				<g>
					<rect x="285.5" y="834.2" class="st26" width="6.2" height="6.2"/>
					<rect x="285.5" y="858.8" class="st26" width="6.2" height="6.2"/>
				</g>
			</g>
		</g>
		<g>
			<polygon class="st25" points="316.5,824.6 312.9,824.6 312.8,824.6 309.2,824.6 300.8,833.1 300.8,866.1 309.2,874.6 
				312.8,874.6 312.9,874.6 316.5,874.6 325,866.1 325,833.1 			"/>
			<g>
				<g>
					<rect x="309.8" y="834.2" class="st26" width="6.2" height="6.2"/>
					<rect x="309.8" y="858.8" class="st26" width="6.2" height="6.2"/>
				</g>
			</g>
		</g>
		<g>
			<polygon class="st25" points="340.7,824.6 337.1,824.6 337.1,824.6 333.4,824.6 325,833.1 325,866.1 333.4,874.6 337.1,874.6 
				337.1,874.6 340.7,874.6 349.2,866.1 349.2,833.1 			"/>
			<g>
				<g>
					<rect x="334" y="834.2" class="st26" width="6.2" height="6.2"/>
					<rect x="334" y="858.8" class="st26" width="6.2" height="6.2"/>
				</g>
			</g>
		</g>
	</g>
	<path class="st24" d="M270.5,813.1c-1.3,0-2.3,1-2.3,2.3v2.3v56.2c0,1.3,1,2.3,2.3,2.3l0,0c1.3,0,2.3-1,2.3-2.3v-53.9
		c0-1.3,1-2.3,2.3-2.3h75.6c1.3,0,2.3,1,2.3,2.3v53.9c0,1.3,1,2.3,2.3,2.3h0c1.3,0,2.3-1,2.3-2.3v-56.2v-2.3c0-1.3-1-2.3-2.3-2.3
		H270.5z"/>
	<path class="st24" d="M467.4,833.2L467.4,833.2c-1.3,0-2.3-1-2.3-2.3V440.7c0-1.3,1-2.3,2.3-2.3l0,0c1.3,0,2.3,1,2.3,2.3v390.2
		C469.6,832.2,468.6,833.2,467.4,833.2z"/>
	<g>
		<path class="st15" d="M486.5,580.1v3c0,3.2-1.6,5.3-5.2,5.3c-3.6,0-5.2-2.1-5.2-5.1v-3.1H486.5z M478.1,582.9
			c0,1.7,0.8,2.9,3.2,2.9c2.5,0,3.2-1.2,3.2-2.9v-0.4h-6.4V582.9z"/>
		<path class="st15" d="M486.5,590.3v2.5h-10.4v-2.5H486.5z"/>
		<path class="st15" d="M481.2,594.7c3.5,0,5.5,2.3,5.5,5.1c0,1.5-0.6,2.6-1.4,3.3l-1.5-1.3c0.5-0.5,0.7-1.1,0.7-1.9
			c0-1.5-1.2-2.7-3.2-2.7c-2.1,0-3.3,0.9-3.3,2.9c0,0.4,0.1,0.8,0.3,1h1.7v-1.7h2v3.9h-4.9c-0.7-0.7-1.3-2-1.3-3.5
			C475.9,597,477.7,594.7,481.2,594.7z"/>
		<path class="st15" d="M486.5,605.4v2.5h-10.4v-2.5H486.5z"/>
		<path class="st15" d="M484.5,612.3v-2.8h2.1v8.1h-2.1v-2.8h-8.3v-2.5H484.5z"/>
		<path class="st15" d="M486.5,620.5v3l-10.4,3.2v-2.6l2.4-0.6v-3.1l-2.4-0.6v-2.5L486.5,620.5z M480.4,620.9v2.1l0.9-0.2
			c1-0.3,2.3-0.5,3.3-0.8v-0.1c-1.1-0.3-2.3-0.5-3.3-0.8L480.4,620.9z"/>
		<path class="st15" d="M486.5,627.8v2.5h-8.3v4h-2.1v-6.5H486.5z"/>
		<path class="st15" d="M480.6,639.3c2.8,0,5.1,0.8,7.3,2.1l-0.6,1.6c-2.1-1.2-4.4-1.7-6.7-1.7s-4.6,0.5-6.7,1.7l-0.6-1.6
			C475.4,640.1,477.7,639.3,480.6,639.3z"/>
		<path class="st15" d="M486.5,645v3.7c0,2.3-0.8,4.2-3.4,4.2c-2.5,0-3.6-1.9-3.6-4.1v-1.2h-3.5V645H486.5z M481.5,648.5
			c0,1.2,0.6,1.8,1.6,1.8c1,0,1.4-0.7,1.4-1.9v-1h-3V648.5z"/>
		<path class="st15" d="M486.5,653.6v2.5l-4.8,0.7c-1.1,0.1-2.2,0.3-3.3,0.4v0.1c1.1,0.2,2.2,0.4,3.3,0.6l4.8,1.1v2.1l-4.8,1.1
			c-1.1,0.2-2.2,0.4-3.3,0.6v0.1c1.2,0.1,2.3,0.3,3.3,0.4l4.8,0.7v2.4l-10.4-1.8v-3.2l4.6-0.9c0.8-0.2,1.6-0.3,2.5-0.4v-0.1
			c-0.8-0.1-1.6-0.2-2.5-0.4l-4.6-0.9v-3.1L486.5,653.6z"/>
		<path class="st15" d="M486.5,667.6v2.7L482,672c-0.6,0.2-1.2,0.4-1.9,0.6v0.1c0.7,0.2,1.3,0.4,1.9,0.6l4.5,1.6v2.7h-10.4v-2.3h3.6
			c1,0,2.8,0.2,3.8,0.3v-0.1l-2.7-0.9l-3.8-1.4v-1.4l3.8-1.4l2.7-0.8v-0.1c-1,0.1-2.8,0.3-3.8,0.3h-3.6v-2.2H486.5z"/>
		<path class="st15" d="M481.1,681.5c0-0.4-0.4-0.8-0.9-1.1l1-1.3c1.2,0.8,1.7,1.6,1.7,2.4c0,1.3-1.2,1.9-1.2,2.8
			c0,0.4,0.4,0.8,0.9,1.1l-1,1.3c-1.2-0.8-1.7-1.6-1.7-2.4C479.9,683,481.1,682.4,481.1,681.5z"/>
		<path class="st15" d="M473.9,688c2.1,1.2,4.4,1.7,6.7,1.7s4.6-0.5,6.7-1.7l0.6,1.6c-2.2,1.3-4.5,2.1-7.3,2.1
			c-2.8,0-5.1-0.8-7.3-2.1L473.9,688z"/>
	</g>
	<g>
		<rect x="559" y="608.5" class="st23" width="33.4" height="240.9"/>
		<rect x="565.9" y="611.2" width="19.6" height="19.6"/>
		<rect x="565.9" y="641.7" width="19.6" height="19.6"/>
		<rect x="565.9" y="672.2" width="19.6" height="19.6"/>
		<rect x="565.9" y="702.7" width="19.6" height="19.6"/>
		<rect x="565.9" y="733.2" width="19.6" height="19.6"/>
		<rect x="565.9" y="763.7" width="19.6" height="19.6"/>
		<rect x="565.9" y="794.2" width="19.6" height="19.6"/>
		<rect x="565.9" y="824.7" width="19.6" height="19.6"/>
	</g>
	<g>
		<rect x="559" y="305.2" class="st23" width="33.4" height="301.1"/>
		<rect x="565.9" y="369.9" width="19.6" height="19.6"/>
		<rect x="565.9" y="400.4" width="19.6" height="19.6"/>
		<rect x="565.9" y="430.9" width="19.6" height="19.6"/>
		<rect x="565.9" y="461.4" width="19.6" height="19.6"/>
		<rect x="565.9" y="491.9" width="19.6" height="19.6"/>
		<rect x="565.9" y="522.5" width="19.6" height="19.6"/>
		<rect x="565.9" y="553" width="19.6" height="19.6"/>
		<rect x="565.9" y="583.5" width="19.6" height="19.6"/>
		<rect x="565.9" y="339.4" width="19.6" height="19.6"/>
		<rect x="565.9" y="309.1" width="19.6" height="19.6"/>
	</g>
	<g>
		<g>
			<path class="st15" d="M508.8,314.1h3l3.2,10.4h-2.6l-0.6-2.4h-3.1l-0.6,2.4h-2.5L508.8,314.1z M509.2,320.2h2.1l-0.2-0.9
				c-0.3-1-0.5-2.3-0.8-3.3h-0.1c-0.3,1.1-0.5,2.3-0.8,3.3L509.2,320.2z"/>
			<path class="st15" d="M515.2,323.3l1.1-1.6c0.6,0.6,1.3,1,2.1,1c1,0,1.6-0.6,1.6-1.6s-0.6-1.6-1.5-1.6c-0.6,0-0.9,0.1-1.5,0.5
				l-1.1-0.7l0.3-5.2h5.8v2.1h-3.7l-0.1,1.8c0.4-0.1,0.7-0.2,1.1-0.2c1.8,0,3.2,1,3.2,3.3c0,2.4-1.8,3.7-3.8,3.7
				C517.2,324.7,516,324.1,515.2,323.3z"/>
			<path class="st15" d="M526.7,313.2h1.6l-3.1,13.9h-1.6L526.7,313.2z"/>
			<path class="st15" d="M529.3,323.2l1.3-1.6c0.7,0.6,1.7,1,2.6,1c0.9,0,1.4-0.4,1.4-0.9c0-0.6-0.6-0.8-1.5-1.2l-1.3-0.6
				c-1.1-0.4-2.1-1.3-2.1-2.8c0-1.7,1.6-3.2,3.8-3.2c1.2,0,2.5,0.5,3.4,1.3l-1.3,1.6c-0.7-0.5-1.4-0.8-2.1-0.8
				c-0.8,0-1.3,0.3-1.3,0.8c0,0.6,0.7,0.8,1.6,1.2l1.3,0.5c1.3,0.5,2.1,1.4,2.1,2.8c0,1.7-1.5,3.3-4,3.3
				C531.8,324.7,530.4,324.3,529.3,323.2z"/>
			<path class="st15" d="M538.4,319.4c0-3.5,2.3-5.5,5-5.5c1.4,0,2.4,0.6,3.2,1.4l-1.3,1.5c-0.5-0.5-1.1-0.7-1.8-0.7
				c-1.4,0-2.5,1.2-2.5,3.2c0,2.1,1,3.3,2.4,3.3c0.8,0,1.5-0.3,2-0.9l1.3,1.5c-0.9,1-2.1,1.5-3.4,1.5
				C540.7,324.7,538.4,322.9,538.4,319.4z"/>
			<path class="st15" d="M548.2,314.1h2.5v8.3h4v2.1h-6.5V314.1z"/>
		</g>
		<g>
			<path class="st15" d="M506.6,344.4h3l3.2,10.4h-2.6l-0.6-2.4h-3.1l-0.6,2.4h-2.5L506.6,344.4z M507,350.5h2.1l-0.2-0.9
				c-0.3-1-0.5-2.3-0.8-3.3H508c-0.3,1.1-0.5,2.3-0.8,3.3L507,350.5z"/>
			<path class="st15" d="M517.4,352.2h-4.4v-1.7l3.6-6.1h3.1v5.9h1.2v1.9h-1.2v2.6h-2.3V352.2z M517.4,350.3v-1.5
				c0-0.7,0-1.6,0.1-2.3h-0.1c-0.3,0.6-0.5,1.2-0.8,1.8l-1.2,2.1H517.4z"/>
			<path class="st15" d="M524.6,343.4h1.6l-3.1,13.9h-1.6L524.6,343.4z"/>
			<path class="st15" d="M527.2,353.5l1.3-1.6c0.7,0.6,1.7,1,2.6,1c0.9,0,1.4-0.4,1.4-0.9c0-0.6-0.6-0.8-1.5-1.2l-1.3-0.6
				c-1.1-0.4-2.1-1.3-2.1-2.8c0-1.7,1.6-3.2,3.8-3.2c1.2,0,2.5,0.5,3.4,1.3l-1.3,1.6c-0.7-0.5-1.4-0.8-2.1-0.8
				c-0.8,0-1.3,0.3-1.3,0.8c0,0.6,0.7,0.8,1.6,1.2l1.3,0.5c1.3,0.5,2.1,1.4,2.1,2.8c0,1.7-1.5,3.3-4,3.3
				C529.7,355,528.3,354.5,527.2,353.5z"/>
			<path class="st15" d="M536.8,344.4h3c3.2,0,5.3,1.6,5.3,5.2c0,3.6-2.1,5.2-5.1,5.2h-3.1V344.4z M539.6,352.8
				c1.7,0,2.9-0.8,2.9-3.2c0-2.5-1.2-3.2-2.9-3.2h-0.4v6.4H539.6z"/>
			<path class="st15" d="M548.7,344.4h3l3.2,10.4h-2.6l-0.6-2.4h-3.1l-0.6,2.4h-2.5L548.7,344.4z M549.1,350.5h2.1l-0.2-0.9
				c-0.3-1-0.5-2.3-0.8-3.3h-0.1c-0.3,1.1-0.5,2.3-0.8,3.3L549.1,350.5z"/>
		</g>
		<g>
			<path class="st15" d="M521,374.9h3l3.2,10.4h-2.6l-0.6-2.4h-3.1l-0.6,2.4h-2.5L521,374.9z M521.4,381h2.1l-0.2-0.9
				c-0.3-1-0.5-2.3-0.8-3.3h-0.1c-0.3,1.1-0.5,2.3-0.8,3.3L521.4,381z"/>
			<path class="st15" d="M528.3,374.9h3.8c2.2,0,4.1,0.8,4.1,3.3c0,1.5-0.7,2.5-1.8,3l2.3,4.1h-2.8l-1.9-3.7h-1.2v3.7h-2.5V374.9z
				 M531.9,379.7c1.2,0,1.8-0.5,1.8-1.5s-0.6-1.3-1.8-1.3h-1.1v2.8H531.9z"/>
			<path class="st15" d="M538.2,374.9h6.6v2.1h-4.1v2h3.5v2.1h-3.5v2.2h4.3v2.1h-6.8V374.9z"/>
			<path class="st15" d="M547,374.9h6.7v2.1h-4.2v2.3h3.6v2.1h-3.6v4H547V374.9z"/>
		</g>
		<g>
			<path class="st15" d="M523.3,410.7c0-3.5,2.3-5.5,5.1-5.5c1.5,0,2.6,0.6,3.3,1.4l-1.3,1.5c-0.5-0.5-1.1-0.7-1.9-0.7
				c-1.5,0-2.7,1.2-2.7,3.2c0,2.1,0.9,3.3,2.9,3.3c0.4,0,0.8-0.1,1-0.3v-1.7H528v-2h3.9v4.9c-0.7,0.7-2,1.3-3.5,1.3
				C525.6,416,523.3,414.2,523.3,410.7z"/>
			<path class="st15" d="M534,405.4h2.6l2.6,5c0.4,0.7,0.7,1.5,1,2.4h0.1c-0.1-1.1-0.3-2.6-0.3-3.8v-3.5h2.4v10.4h-2.6l-2.6-5
				c-0.4-0.7-0.7-1.5-1-2.4H536c0.1,1.2,0.3,2.6,0.3,3.8v3.5H534V405.4z"/>
			<path class="st15" d="M544.7,405.4h3c3.2,0,5.3,1.6,5.3,5.2c0,3.6-2.1,5.2-5.1,5.2h-3.1V405.4z M547.5,413.8
				c1.7,0,2.9-0.8,2.9-3.2c0-2.5-1.2-3.2-2.9-3.2h-0.4v6.4H547.5z"/>
		</g>
		<g>
			<path class="st15" d="M495.2,444.3h2.2v-5.9h-1.9v-1.5c1.1-0.2,1.8-0.5,2.6-0.9h1.8v8.4h1.9v2h-6.6V444.3z"/>
			<path class="st15" d="M503,445.1l1.1-1.6c0.6,0.6,1.4,1,2.2,1c1,0,1.6-0.4,1.6-1.2c0-0.9-0.5-1.4-2.7-1.4v-1.8
				c1.8,0,2.3-0.5,2.3-1.4c0-0.7-0.4-1.1-1.2-1.1c-0.7,0-1.2,0.3-1.9,0.9l-1.2-1.5c0.9-0.8,2-1.3,3.2-1.3c2.2,0,3.6,1,3.6,2.9
				c0,1.1-0.6,1.8-1.7,2.3v0.1c1.2,0.3,2,1.2,2,2.5c0,2-1.8,3-3.8,3C504.9,446.5,503.8,445.9,503,445.1z"/>
			<path class="st15" d="M514.5,435h1.6l-3.1,13.9h-1.6L514.5,435z"/>
			<path class="st15" d="M517.1,445l1.3-1.6c0.7,0.6,1.7,1,2.6,1c0.9,0,1.4-0.4,1.4-0.9c0-0.6-0.6-0.8-1.5-1.2l-1.3-0.6
				c-1.1-0.4-2.1-1.3-2.1-2.8c0-1.7,1.6-3.2,3.8-3.2c1.2,0,2.5,0.5,3.4,1.3l-1.3,1.6c-0.7-0.5-1.4-0.8-2.1-0.8
				c-0.8,0-1.3,0.3-1.3,0.8c0,0.6,0.7,0.8,1.6,1.2l1.3,0.5c1.3,0.5,2.1,1.4,2.1,2.8c0,1.7-1.5,3.3-4,3.3
				C519.6,446.5,518.2,446,517.1,445z"/>
			<path class="st15" d="M526.2,441.2c0-3.5,2.3-5.5,5-5.5c1.4,0,2.4,0.6,3.2,1.4l-1.3,1.5c-0.5-0.5-1.1-0.7-1.8-0.7
				c-1.4,0-2.5,1.2-2.5,3.2c0,2.1,1,3.3,2.4,3.3c0.8,0,1.5-0.3,2-0.9l1.3,1.5c-0.9,1-2.1,1.5-3.4,1.5
				C528.5,446.5,526.2,444.7,526.2,441.2z"/>
			<path class="st15" d="M536,435.9h2.5v8.3h4v2.1H536V435.9z"/>
			<path class="st15" d="M544.4,435.9h2.5v4.1h0l3-4.1h2.7l-3.1,4.2l3.7,6.2h-2.7l-2.5-4.3l-1.1,1.5v2.7h-2.5V435.9z"/>
		</g>
		<g>
			<path class="st15" d="M494.1,474.8h2.2v-5.9h-1.9v-1.5c1.1-0.2,1.8-0.5,2.6-0.9h1.8v8.4h1.9v2h-6.6V474.8z"/>
			<path class="st15" d="M502.1,475.3c2.7-2.3,4.4-4.2,4.4-5.6c0-1-0.5-1.5-1.4-1.5c-0.7,0-1.3,0.5-1.8,1l-1.3-1.3
				c1-1.1,1.9-1.7,3.4-1.7c2,0,3.4,1.3,3.4,3.3c0,1.9-1.7,3.8-3.3,5.4c0.5,0,1.2-0.1,1.7-0.1h2.1v2.1h-7.2V475.3z"/>
			<path class="st15" d="M513.4,465.5h1.6l-3.1,13.9h-1.6L513.4,465.5z"/>
			<path class="st15" d="M516.6,466.4h2.7l1.6,4.5c0.2,0.6,0.4,1.2,0.6,1.9h0.1c0.2-0.7,0.4-1.3,0.6-1.9l1.6-4.5h2.7v10.4h-2.3v-3.6
				c0-1,0.2-2.8,0.3-3.8h-0.1l-0.9,2.7l-1.4,3.8h-1.4l-1.4-3.8l-0.8-2.7h-0.1c0.1,1,0.3,2.8,0.3,3.8v3.6h-2.2V466.4z"/>
			<path class="st15" d="M528.9,466.4h2.5v10.4h-2.5V466.4z"/>
			<path class="st15" d="M533.1,475.5l1.3-1.6c0.7,0.6,1.7,1,2.6,1c0.9,0,1.4-0.4,1.4-0.9c0-0.6-0.6-0.8-1.5-1.2l-1.3-0.6
				c-1.1-0.4-2.1-1.3-2.1-2.8c0-1.7,1.6-3.2,3.8-3.2c1.2,0,2.5,0.5,3.4,1.3l-1.3,1.6c-0.7-0.5-1.4-0.8-2.1-0.8
				c-0.8,0-1.3,0.3-1.3,0.8c0,0.6,0.7,0.8,1.6,1.2l1.3,0.5c1.3,0.5,2.1,1.4,2.1,2.8c0,1.7-1.5,3.3-4,3.3
				C535.6,477,534.2,476.6,533.1,475.5z"/>
			<path class="st15" d="M542.2,471.6c0-3.4,1.9-5.4,4.8-5.4s4.8,2,4.8,5.4s-1.9,5.4-4.8,5.4S542.2,475,542.2,471.6z M549.2,471.6
				c0-2-0.8-3.2-2.2-3.2c-1.4,0-2.2,1.2-2.2,3.2c0,2,0.9,3.3,2.2,3.3C548.4,474.9,549.2,473.6,549.2,471.6z"/>
		</g>
		<g>
			<path class="st15" d="M486.8,502.3c-0.4,0-0.8,0.4-1.1,0.9l-1.3-1c0.8-1.2,1.6-1.7,2.4-1.7c1.3,0,1.9,1.2,2.8,1.2
				c0.4,0,0.8-0.4,1.1-0.9l1.3,1c-0.8,1.2-1.6,1.7-2.4,1.7C488.2,503.5,487.7,502.3,486.8,502.3z"/>
			<path class="st15" d="M493.5,505.4h2.2v-5.9h-1.9v-1.5c1.1-0.2,1.8-0.5,2.6-0.9h1.8v8.4h1.9v2h-6.6V505.4z"/>
			<path class="st15" d="M502,505.4h2.2v-5.9h-1.9v-1.5c1.1-0.2,1.8-0.5,2.6-0.9h1.8v8.4h1.9v2H502V505.4z"/>
			<path class="st15" d="M512.8,496h1.6l-3.1,13.9h-1.6L512.8,496z"/>
			<path class="st15" d="M516.1,496.9h2.7l1.6,4.5c0.2,0.6,0.4,1.2,0.6,1.9h0.1c0.2-0.7,0.4-1.3,0.6-1.9l1.6-4.5h2.7v10.4h-2.3v-3.6
				c0-1,0.2-2.8,0.3-3.8h-0.1l-0.9,2.7l-1.4,3.8h-1.4l-1.4-3.8l-0.8-2.7H518c0.1,1,0.3,2.8,0.3,3.8v3.6h-2.2V496.9z"/>
			<path class="st15" d="M527.8,502.1c0-3.4,1.9-5.4,4.8-5.4s4.8,2,4.8,5.4s-1.9,5.4-4.8,5.4S527.8,505.5,527.8,502.1z M534.8,502.1
				c0-2-0.8-3.2-2.2-3.2c-1.4,0-2.2,1.2-2.2,3.2c0,2,0.9,3.3,2.2,3.3C534,505.4,534.8,504.1,534.8,502.1z"/>
			<path class="st15" d="M538.7,506l1.3-1.6c0.7,0.6,1.7,1,2.6,1c0.9,0,1.4-0.4,1.4-0.9c0-0.6-0.6-0.8-1.5-1.2l-1.3-0.6
				c-1.1-0.4-2.1-1.3-2.1-2.8c0-1.7,1.6-3.2,3.8-3.2c1.2,0,2.5,0.5,3.4,1.3l-1.3,1.6c-0.7-0.5-1.4-0.8-2.1-0.8
				c-0.8,0-1.3,0.3-1.3,0.8c0,0.6,0.7,0.8,1.6,1.2l1.3,0.5c1.3,0.5,2.1,1.4,2.1,2.8c0,1.7-1.5,3.3-4,3.3
				C541.1,507.5,539.7,507.1,538.7,506z"/>
			<path class="st15" d="M548.2,496.9h2.5v10.4h-2.5V496.9z"/>
		</g>
		<g>
			<path class="st15" d="M528.7,532.9c-0.4,0-0.8,0.4-1.1,0.9l-1.3-1c0.8-1.2,1.6-1.7,2.4-1.7c1.3,0,1.9,1.2,2.8,1.2
				c0.4,0,0.8-0.4,1.1-0.9l1.3,1c-0.8,1.2-1.6,1.7-2.4,1.7C530.1,534.1,529.6,532.9,528.7,532.9z"/>
			<path class="st15" d="M535.4,535.9h2.2v-5.9h-1.9v-1.5c1.1-0.2,1.8-0.5,2.6-0.9h1.8v8.4h1.9v2h-6.6V535.9z"/>
			<path class="st15" d="M543.4,532.6c0-3.6,1.5-5.4,3.7-5.4c2.2,0,3.7,1.8,3.7,5.4s-1.5,5.4-3.7,5.4
				C544.9,538.1,543.4,536.2,543.4,532.6z M548.4,532.6c0-2.8-0.6-3.5-1.3-3.5c-0.8,0-1.3,0.6-1.3,3.5c0,2.8,0.6,3.5,1.3,3.5
				C547.8,536.2,548.4,535.5,548.4,532.6z"/>
		</g>
		<g>
			<path class="st15" d="M536.6,563.4c-0.4,0-0.8,0.4-1.1,0.9l-1.3-1c0.8-1.2,1.6-1.7,2.4-1.7c1.3,0,1.9,1.2,2.8,1.2
				c0.4,0,0.8-0.4,1.1-0.9l1.3,1c-0.8,1.2-1.6,1.7-2.4,1.7C538,564.6,537.5,563.4,536.6,563.4z"/>
			<path class="st15" d="M542.9,567.3l1.3-1.5c0.3,0.4,1,0.7,1.6,0.7c1.1,0,1.9-0.8,2-3c-0.5,0.7-1.4,1-2,1c-1.7,0-3-1-3-3.3
				c0-2.2,1.6-3.5,3.4-3.5c2,0,3.9,1.5,3.9,5.3c0,3.8-2,5.5-4.1,5.5C544.6,568.6,543.6,568,542.9,567.3z M546.3,562.8
				c0.5,0,1.1-0.3,1.5-0.9c-0.2-1.8-0.8-2.3-1.5-2.3s-1.2,0.5-1.2,1.7C545.1,562.4,545.6,562.8,546.3,562.8z"/>
		</g>
		<g>
			<path class="st15" d="M542.4,596.3c0-1.3,0.7-2.1,1.7-2.6v-0.1c-0.8-0.6-1.4-1.4-1.4-2.5c0-1.7,1.4-2.8,3.3-2.8
				c1.9,0,3.1,1.1,3.1,2.8c0,1-0.6,1.8-1.3,2.3v0.1c1,0.5,1.8,1.4,1.8,2.8c0,1.6-1.5,2.8-3.6,2.8
				C543.9,599.1,542.4,597.9,542.4,596.3z M547.3,596.2c0-0.9-0.8-1.3-2.1-1.9c-0.4,0.4-0.7,1-0.7,1.7c0,0.9,0.7,1.4,1.5,1.4
				C546.7,597.4,547.3,597,547.3,596.2z M547.1,591.2c0-0.8-0.4-1.2-1.2-1.2c-0.6,0-1.1,0.4-1.1,1.1c0,0.8,0.6,1.3,1.7,1.7
				C546.9,592.3,547.1,591.8,547.1,591.2z"/>
		</g>
		<g>
			<path class="st15" d="M546.3,618.2h-4.5v-2.1h7.1v1.5c-2.4,2.9-2.7,4.8-2.8,8.9h-2.5C543.8,623.1,544.3,620.9,546.3,618.2z"/>
		</g>
		<g>
			<path class="st15" d="M534.9,652.1c-0.4,0-0.8,0.4-1.1,0.9l-1.3-1c0.8-1.2,1.6-1.7,2.4-1.7c1.3,0,1.9,1.2,2.8,1.2
				c0.4,0,0.8-0.4,1.1-0.9l1.3,1c-0.8,1.2-1.6,1.7-2.4,1.7C536.3,653.3,535.8,652.1,534.9,652.1z"/>
			<path class="st15" d="M541.2,652c0-3.8,2-5.5,4.1-5.5c1.4,0,2.4,0.6,3,1.2l-1.3,1.5c-0.4-0.4-1-0.7-1.6-0.7c-1.1,0-1.9,0.8-2,3
				c0.5-0.6,1.4-1,2-1c1.7,0,3,1,3,3.3c0,2.2-1.6,3.5-3.4,3.5C543.1,657.3,541.2,655.8,541.2,652z M543.5,653.2
				c0.2,1.7,0.9,2.2,1.5,2.2s1.2-0.5,1.2-1.7c0-1.1-0.6-1.5-1.3-1.5C544.4,652.2,543.9,652.5,543.5,653.2z"/>
		</g>
		<g>
			<path class="st15" d="M534.3,682.6c-0.4,0-0.8,0.4-1.1,0.9l-1.3-1c0.8-1.2,1.6-1.7,2.4-1.7c1.3,0,1.9,1.2,2.8,1.2
				c0.4,0,0.8-0.4,1.1-0.9l1.3,1c-0.8,1.2-1.6,1.7-2.4,1.7C535.7,683.8,535.2,682.6,534.3,682.6z"/>
			<path class="st15" d="M540.3,686.3l1.1-1.6c0.6,0.6,1.3,1,2.1,1c1,0,1.6-0.6,1.6-1.6s-0.6-1.6-1.5-1.6c-0.6,0-0.9,0.1-1.5,0.5
				l-1.1-0.7l0.3-5.2h5.8v2.1h-3.7l-0.1,1.8c0.4-0.1,0.7-0.2,1.1-0.2c1.8,0,3.2,1,3.2,3.3c0,2.4-1.8,3.7-3.8,3.7
				C542.3,687.8,541.1,687.2,540.3,686.3z"/>
		</g>
		<g>
			<path class="st15" d="M544.1,715.5h-4.4v-1.7l3.6-6.1h3.1v5.9h1.2v1.9h-1.2v2.6h-2.3V715.5z M544.1,713.6v-1.5
				c0-0.7,0-1.6,0.1-2.3h-0.1c-0.3,0.6-0.5,1.2-0.8,1.8l-1.2,2.1H544.1z"/>
		</g>
		<g>
			<path class="st15" d="M533.2,743.6c-0.4,0-0.8,0.4-1.1,0.9l-1.3-1c0.8-1.2,1.6-1.7,2.4-1.7c1.3,0,1.9,1.2,2.8,1.2
				c0.4,0,0.8-0.4,1.1-0.9l1.3,1c-0.8,1.2-1.6,1.7-2.4,1.7C534.6,744.8,534,743.6,533.2,743.6z"/>
			<path class="st15" d="M539.1,747.4l1.1-1.6c0.6,0.6,1.4,1,2.2,1c1,0,1.6-0.4,1.6-1.2c0-0.9-0.5-1.4-2.7-1.4v-1.8
				c1.8,0,2.3-0.5,2.3-1.4c0-0.7-0.4-1.1-1.2-1.1c-0.7,0-1.2,0.3-1.9,0.9l-1.2-1.5c0.9-0.8,2-1.3,3.2-1.3c2.2,0,3.6,1,3.6,2.9
				c0,1.1-0.6,1.8-1.7,2.3v0.1c1.2,0.3,2,1.2,2,2.5c0,2-1.8,3-3.8,3C541.1,748.8,539.9,748.2,539.1,747.4z"/>
		</g>
		<g>
			<path class="st15" d="M538.8,777.6c2.7-2.3,4.4-4.2,4.4-5.6c0-1-0.5-1.5-1.4-1.5c-0.7,0-1.3,0.5-1.8,1l-1.3-1.3
				c1-1.1,1.9-1.7,3.4-1.7c2,0,3.4,1.3,3.4,3.3c0,1.9-1.7,3.8-3.3,5.4c0.5,0,1.2-0.1,1.7-0.1h2.1v2.1h-7.2V777.6z"/>
		</g>
		<g>
			<path class="st15" d="M509.1,802.2h-2.8v-2.1h8.1v2.1h-2.8v8.3h-2.5V802.2z"/>
			<path class="st15" d="M517.5,805.2l-2.7-5.1h2.8l0.8,1.9c0.2,0.5,0.5,1,0.8,1.7h0.1c0.2-0.7,0.5-1.2,0.7-1.7l0.8-1.9h2.6
				l-2.7,5.2l2.9,5.2h-2.8l-1-2c-0.3-0.5-0.5-1.1-0.8-1.7h-0.1c-0.2,0.6-0.5,1.2-0.7,1.7l-0.9,2h-2.7L517.5,805.2z"/>
			<path class="st15" d="M537.4,805.3l-5,5c-0.4,0.4-1,0.4-1.4,0s-0.4-1,0-1.4l3.3-3.3h-9.6c-0.6,0-1-0.4-1-1s0.4-1,1-1h9.6
				l-3.3-3.3c-0.4-0.4-0.4-1,0-1.4s1-0.4,1.4,0l5,5C537.8,804.2,537.8,804.9,537.4,805.3L537.4,805.3z"/>
			<path class="st15" d="M538.7,808.5h2.2v-5.9h-1.9v-1.5c1.1-0.2,1.8-0.5,2.6-0.9h1.8v8.4h1.9v2h-6.6V808.5z"/>
		</g>
		<g>
			<path class="st15" d="M505.4,830.6h3.8c2.2,0,4.1,0.8,4.1,3.3c0,1.5-0.7,2.5-1.8,3l2.3,4.1H511l-1.9-3.7h-1.2v3.7h-2.5V830.6z
				 M509,835.4c1.2,0,1.8-0.5,1.8-1.5s-0.6-1.3-1.8-1.3h-1.1v2.8H509z"/>
			<path class="st15" d="M516.9,835.7l-2.7-5.1h2.8l0.8,1.9c0.2,0.5,0.5,1,0.8,1.7h0.1c0.2-0.7,0.5-1.2,0.7-1.7l0.8-1.9h2.6
				l-2.7,5.2l2.9,5.2h-2.8l-1-2c-0.3-0.5-0.5-1.1-0.8-1.7h-0.1c-0.2,0.6-0.5,1.2-0.7,1.7l-0.9,2h-2.7L516.9,835.7z"/>
			<path class="st15" d="M523.4,834.4l5-5c0.4-0.4,1-0.4,1.4,0s0.4,1,0,1.4l-3.3,3.3h9.6c0.6,0,1,0.4,1,1s-0.4,1-1,1h-9.6l3.3,3.3
				c0.4,0.4,0.4,1,0,1.4s-1,0.4-1.4,0l-5-5C523,835.4,523,834.7,523.4,834.4L523.4,834.4z"/>
			<path class="st15" d="M537.7,835.8c0-3.6,1.5-5.4,3.7-5.4c2.2,0,3.7,1.8,3.7,5.4s-1.5,5.4-3.7,5.4
				C539.1,841.3,537.7,839.4,537.7,835.8z M542.7,835.8c0-2.8-0.6-3.5-1.3-3.5c-0.8,0-1.3,0.6-1.3,3.5c0,2.8,0.6,3.5,1.3,3.5
				C542.1,839.3,542.7,838.7,542.7,835.8z"/>
		</g>
	</g>
	<g>
		<rect x="396.3" y="415.9" class="st9" width="10.7" height="17.2"/>
		<rect x="396.3" y="418.4" class="st7" width="10.7" height="11.8"/>
	</g>
</g>
<g id="layer1-20">
	<rect id="rect10-27" x="625.2" y="0" width="93.9" height="390.4"/>
	<rect id="rect821-2" x="638.6" y="360.9" class="st15" width="67.1" height="26.2"/>
	<path id="rect825-3" class="st27" d="M688.3,362.4h12c2.7,0,4.8,2.2,4.8,4.8c0,0,0,0,0,0v13.4c0,2.7-2.2,4.8-4.8,4.8l0,0h-12
		c-2.7,0-4.8-2.2-4.8-4.8c0,0,0,0,0,0v-13.4C683.5,364.6,685.7,362.4,688.3,362.4L688.3,362.4L688.3,362.4z"/>
	<path id="rect872-3" class="st27" d="M644.1,362.4h12c2.7,0,4.8,2.2,4.8,4.8c0,0,0,0,0,0v13.4c0,2.7-2.2,4.8-4.8,4.8l0,0h-12
		c-2.7,0-4.8-2.2-4.8-4.8c0,0,0,0,0,0v-13.4C639.3,364.6,641.5,362.4,644.1,362.4L644.1,362.4z"/>
	<path id="rect874-3" class="st27" d="M665.6,362.4h13.2c2.3,0,4.2,1.9,4.2,4.2l0,0v14.6c0,2.3-1.9,4.2-4.2,4.2h-13.2
		c-2.3,0-4.2-1.9-4.2-4.2l0,0v-14.6C661.4,364.3,663.3,362.4,665.6,362.4L665.6,362.4z"/>
	<rect id="rect947-7" x="693.2" y="374.1" class="st28" width="2.4" height="47.1"/>
	<rect id="rect949-3" x="670.9" y="374.1" class="st28" width="2.4" height="47.1"/>
	<rect id="rect951-6" x="649" y="374.1" class="st28" width="2.4" height="47.1"/>
	<path id="rect78" class="st15" d="M639.8,184.7v64.5l-0.1,0.1l0.1,0.1v0.1h0.2l7.9,6.3v0h0l0,0l0,0h48.1l0.2,0.2l8.2-6.5v-64.8
		L639.8,184.7z"/>
	<path id="path2577" d="M641.4,186.3v61.6l-0.1,0.1l0.1,0v0.1h0.1l7.5,6v0h0l0,0l0,0h45.7l0.2,0.2l7.8-6.2v-61.8L641.4,186.3z"/>
	<path id="path2581" class="st29" d="M642.2,187.1v60.1l-0.1,0.1l0.1,0v0.1h0.1l7.3,5.9v0h0l0,0l0,0h44.5l0.2,0.2l7.6-6.1v-60.3
		L642.2,187.1z"/>
	<path id="path2585" class="st15" d="M701.3,221.9c0,16.1-13.1,29.2-29.2,29.2S643,238,643,221.9c0-16.1,13.1-29.2,29.2-29.2"/>
	
		<rect id="rect2589" x="668.6" y="192.9" transform="matrix(0.7071 -0.7071 0.7071 0.7071 39.7673 540.0677)" class="st30" width="6.5" height="58.3"/>
	<rect id="rect2593" x="628.4" y="283.6" class="st15" width="58.3" height="42.1"/>
	<rect id="rect2595" x="630" y="285.3" class="st27" width="55.1" height="38.9"/>
	<rect id="rect2597" x="631.7" y="324" class="st31" width="6.5" height="9.7"/>
	<rect id="rect2599" x="647.8" y="324" class="st31" width="6.5" height="9.7"/>
	<rect id="rect2601" x="660.8" y="324" class="st31" width="6.5" height="9.7"/>
	<rect id="rect2603" x="677" y="324" class="st31" width="6.5" height="9.7"/>
	<rect id="rect2605" x="631.7" y="275.6" class="st31" width="6.5" height="9.7"/>
	<rect id="rect2607" x="647.8" y="275.6" class="st31" width="6.5" height="9.7"/>
	<rect id="rect2609" x="660.8" y="275.6" class="st31" width="6.5" height="9.7"/>
	<rect id="rect2611" x="677" y="275.6" class="st31" width="6.5" height="9.7"/>
	<circle id="path2621" class="st30" cx="672.1" cy="149" r="32.4"/>
	<circle id="circle2623" class="st15" cx="672.1" cy="149" r="24.3"/>
	<rect id="rect2667" x="633.5" y="323.7" class="st28" width="2.6" height="6.5"/>
	<rect id="rect2669" x="649.8" y="323.7" class="st28" width="2.6" height="6.5"/>
	<rect id="rect2671" x="662.6" y="323.7" class="st28" width="2.6" height="6.5"/>
	<rect id="rect2673" x="679" y="323.7" class="st28" width="2.6" height="6.5"/>
	<rect id="rect2675" x="633.5" y="279.3" class="st28" width="2.6" height="6.5"/>
	<rect id="rect2677" x="649.8" y="279.3" class="st28" width="2.6" height="6.5"/>
	<rect id="rect2679" x="662.6" y="279.3" class="st28" width="2.6" height="6.5"/>
	<rect id="rect2681" x="679" y="279.3" class="st28" width="2.6" height="6.5"/>
	<path id="path31-1-65" class="st15" d="M645.4,268c0.8,0,0.9,0,1-0.1c0.1-0.1,0.2-0.1,0.2-0.2c0.1-0.1,0.1-0.2,0.1-1.8l0-1.6l1.6,0
		l1.6,0v2c0,2.2,0,2.4-0.3,3c-0.3,0.7-0.9,1.3-1.7,1.3c-0.5,0.1-1,0.1-1.5,0.1c-0.7,0-1.4,0-1.6,0l-0.4,0l0-1.3l0-1.3L645.4,268
		L645.4,268z M661.1,272.6c14,0,17.4,0,16.8,0.1l-0.1,0l0.1,0c0.1,0,0.1,0-0.1,0c-0.1,0-0.1,0,0.1,0l0.3,0l-0.3,0
		c-0.2,0-0.3,0-0.2,0c0.1,0,0.1,0.1,0.1,0.4c0,0.4,0,0.4,0.1,0.4c0.1,0,0.1,0-0.1,0c-0.1,0-0.2,0-0.2,0c0,0-5.5,0-16.5,0h-16.5v-1.2
		L661.1,272.6z M648.5,260.1h1.7v2.6h-3.3v-2.6H648.5z M651.8,265c0.1-0.7,0.3-1.4,0.6-2c0.1-0.1,0.1-0.3,0.2-0.4
		c0.1-0.1,0.1-0.2,0.2-0.3c0.2-0.3,0.4-0.6,0.7-0.8c0,0,0.1,0,0.1-0.1c0.2-0.3,0.5-0.5,0.7-0.7c0.4-0.3,0.8-0.5,1.2-0.6
		c0.6-0.2,1.3-0.3,2-0.3c0.4,0,0.8,0,1.2,0.2c0.2,0.1,0.5,0.2,0.7,0.2c0.1,0,0.2,0.1,0.3,0.1c0.1,0.1,0.3,0.1,0.4,0.2
		c1,0.6,1.8,1.5,2.3,2.5c0.6,1.3,0.7,2.8,0.2,4.1c-0.2,0.4-0.4,0.9-0.6,1.2c-0.3,0.4-0.6,0.8-1,1.1c-0.6,0.7-1.5,1.1-2.4,1.3
		c-0.7,0.1-1.4,0.2-2.1,0.1c-0.8-0.1-1.6-0.5-2.2-0.9c-0.3-0.2-0.5-0.4-0.7-0.6c-0.1-0.1-0.1-0.2-0.2-0.2c-0.7-0.8-1.2-1.7-1.4-2.7
		C651.8,266,651.8,265.5,651.8,265L651.8,265z M654.9,266.3c0.2,0.6,0.5,1.2,1,1.6c0.5,0.5,1.3,0.6,2,0.4c0.9-0.4,1.5-1.1,1.7-2
		c0.1-0.6,0.1-1.2,0-1.8c-0.2-0.7-0.6-1.3-1.2-1.7c-0.2-0.1-0.4-0.2-0.6-0.3c-0.5-0.1-1.1-0.1-1.5,0.2c-0.5,0.3-0.8,0.7-1.1,1.2
		C654.8,264.6,654.7,265.5,654.9,266.3L654.9,266.3z M664.2,260.1c0,0,0.8,0,1.7,0l1.6,0l0,1.4c0,1.4,0,1.5,0.1,1.7
		c0.3,0.6,1,1,1.7,0.7c0.3-0.1,0.6-0.3,0.7-0.6l0.1-0.3l0-1.5l0-1.5h3.3l0,1.7c0.1,0.7,0,1.4-0.1,2c-0.2,0.6-0.5,1.2-0.9,1.7
		c-0.1,0.1-0.1,0.2-0.2,0.2c-0.2,0.3-0.5,0.5-0.8,0.7c-0.3,0.2-0.6,0.4-1,0.5c-0.1,0-0.3,0.1-0.5,0.1c-0.4,0.1-0.8,0.2-1.2,0.1
		c-0.4,0-0.8,0-1.3-0.1c-0.5-0.1-0.9-0.3-1.3-0.5c-0.5-0.3-0.9-0.7-1.3-1.2c-0.4-0.6-0.7-1.3-0.8-2.1
		C664.1,262.2,664.1,261.2,664.2,260.1L664.2,260.1z M668.8,268.1h2.7v2.7h-5.4v-2.7H668.8z M673.5,258c0,0,0-0.1,0-0.2
		c0-0.2,0-0.2,0.2-0.2c0.1,0,4.7,0,10.2,0l10,0l0,0.6l0,0.6h-10.1c-5.6,0-10.2,0-10.2,0c-0.1,0-0.1-0.1-0.1-0.4
		C673.4,258.2,673.4,258,673.5,258L673.5,258z M678,264.5h3.4v2.7h-6.9v-2.7H678z M684.2,260.1h1.7v2.6h-3.3v-2.6H684.2z
		 M684.2,264.1h1.7v6.8h-3.3v-6.8H684.2z M690.8,260.1h3.5v2.6h-6.9v-2.6H690.8z M687.9,264.3c0,0,0.8,0,1.6,0l1.6,0l0,1.6
		c0,2.2-0.1,2.1,1.6,2.1l1.1,0v2.7l-0.4,0c-1,0.1-2,0.1-3,0c-0.7,0-1.3-0.4-1.8-0.9c-0.4-0.5-0.6-1.1-0.7-1.7
		C687.8,267.7,687.8,264.3,687.9,264.3L687.9,264.3z M696.2,258.8c0.1-0.3,0.2-0.5,0.4-0.7c0.6-0.6,1.7-0.7,2.4-0.2
		c0.3,0.2,0.5,0.4,0.6,0.7c0.1,0.2,0.2,0.5,0.1,0.7c0,0.2,0,0.5-0.1,0.7c-0.3,0.6-0.9,0.9-1.5,1c-0.6,0.1-1.1-0.2-1.5-0.6
		C696.2,260,696,259.4,696.2,258.8z M696.5,259.9c0.2,0.4,0.6,0.7,1.1,0.8c0.5,0.1,1,0,1.4-0.4c0.1-0.1,0.3-0.3,0.3-0.4
		c0.1-0.2,0.2-0.4,0.1-0.7c0-0.2,0-0.5-0.2-0.7c-0.1-0.2-0.2-0.4-0.4-0.5c-0.2-0.1-0.3-0.2-0.5-0.3c-0.8-0.2-1.6,0.1-2,0.9
		C696.3,259.1,696.3,259.5,696.5,259.9z M697.7,258.2c0.2,0,0.5,0,0.7,0c0.3,0.2,0.4,0.5,0.2,0.8c0,0,0,0,0,0
		c-0.1,0.1-0.2,0.1-0.2,0.2l-0.2,0.1l0.2,0.2c0.1,0.1,0.2,0.3,0.3,0.4c0,0.1,0.1,0.2,0.2,0.3c0.1,0.1,0,0.1-0.1,0.1l-0.2,0l-0.3-0.4
		c-0.3-0.4-0.4-0.5-0.7-0.5h-0.2v0.9l-0.1,0l-0.1,0l0-1l0-1L697.7,258.2z M697.8,259.1c0.3,0,0.4,0,0.5-0.1c0.2-0.2,0.1-0.5-0.2-0.5
		c-0.2,0-0.4,0-0.7,0c0,0.1,0,0.2,0,0.3v0.3L697.8,259.1z"/>
	<circle id="circle2717-6" class="st30" cx="672.1" cy="32.4" r="32.4"/>
	<circle id="circle2719-5" class="st15" cx="672.1" cy="32.4" r="24.3"/>
	<rect id="rect2721-4" x="625.2" y="64.8" class="st32" width="93.9" height="51.8"/>
	<circle id="path2723-2" cx="651.1" cy="90.7" r="16.2"/>
	<circle id="circle2725-6" class="st33" cx="693.2" cy="90.7" r="16.2"/>
	<rect id="rect2727-2" x="671.2" y="64.8" class="st27" width="1.3" height="51.8"/>
	<g id="text71">
		<g class="st34">
			<path class="st15" d="M637.9,42.3c0,0,0.1,0,0.1,0c0,0,0.1,0.1,0.1,0.1s0,0.1,0.1,0.2c0,0.1,0,0.2,0,0.4c0,0.2,0,0.4,0,0.5
				c0,0.1,0,0.2-0.1,0.3c0,0.1-0.1,0.1-0.2,0.2l-5.7,4.2h5.7c0,0,0.1,0,0.1,0c0,0,0.1,0.1,0.1,0.1c0,0.1,0,0.1,0.1,0.2
				c0,0.1,0,0.2,0,0.4c0,0.1,0,0.3,0,0.4c0,0.1,0,0.2-0.1,0.2c0,0.1,0,0.1-0.1,0.1c0,0-0.1,0-0.1,0h-11c0,0-0.1,0-0.1,0
				c0,0-0.1-0.1-0.1-0.1s0-0.1-0.1-0.2c0-0.1,0-0.2,0-0.4c0-0.1,0-0.3,0-0.4c0-0.1,0-0.2,0.1-0.2s0-0.1,0.1-0.1c0,0,0.1,0,0.1,0h5.1
				l-5.1-4.1c-0.1,0-0.1-0.1-0.1-0.1s-0.1-0.1-0.1-0.2c0-0.1,0-0.2,0-0.2s0-0.2,0-0.4s0-0.3,0-0.4c0-0.1,0-0.2,0.1-0.2
				c0-0.1,0.1-0.1,0.1-0.1c0,0,0.1,0,0.1,0c0.1,0,0.2,0,0.2,0.1c0.1,0,0.2,0.1,0.3,0.2l4.6,3.8l5.4-4.1c0.2-0.1,0.3-0.2,0.3-0.2
				C637.9,42.3,637.9,42.3,637.9,42.3z"/>
		</g>
		<g class="st34">
			<path class="st15" d="M633.7,36.7h4.2c0,0,0.1,0,0.1,0s0.1,0.1,0.1,0.1c0,0.1,0,0.1,0.1,0.2c0,0.1,0,0.2,0,0.4c0,0.1,0,0.3,0,0.4
				c0,0.1,0,0.2-0.1,0.2c0,0.1,0,0.1-0.1,0.1c0,0-0.1,0-0.1,0h-4.2l-6.5,3.2c-0.1,0.1-0.2,0.1-0.3,0.1c-0.1,0-0.1,0-0.2,0
				c0,0-0.1-0.1-0.1-0.2c0-0.1,0-0.3,0-0.5c0-0.2,0-0.3,0-0.4s0-0.2,0-0.3c0-0.1,0-0.1,0.1-0.1c0,0,0.1-0.1,0.1-0.1l3.3-1.6
				c0.3-0.1,0.6-0.3,1-0.4s0.7-0.3,1-0.5v0c-0.3-0.1-0.7-0.3-1-0.4s-0.7-0.3-1-0.4L627,35c-0.1,0-0.1,0-0.2-0.1c0,0-0.1-0.1-0.1-0.1
				c0-0.1,0-0.1,0-0.2c0-0.1,0-0.2,0-0.4c0-0.2,0-0.4,0-0.5c0-0.1,0-0.2,0.1-0.3c0,0,0.1-0.1,0.2,0c0.1,0,0.2,0.1,0.3,0.1
				L633.7,36.7z"/>
		</g>
		<g class="st34">
			<path class="st15" d="M633.7,29.1c0.2,0,0.4,0,0.5,0.1c0.1,0.1,0.1,0.1,0.1,0.2v3.7c0,0.1,0,0.2-0.1,0.2s-0.2,0.1-0.5,0.1
				s-0.4,0-0.5-0.1c-0.1-0.1-0.1-0.1-0.1-0.2v-3.7c0,0,0-0.1,0-0.1s0.1-0.1,0.1-0.1c0.1,0,0.1,0,0.2-0.1
				C633.5,29.1,633.6,29.1,633.7,29.1z"/>
			<path class="st15" d="M632.4,19.9c0.9,0,1.7,0.1,2.4,0.2c0.7,0.1,1.4,0.4,1.9,0.7c0.5,0.3,0.9,0.7,1.2,1.3s0.4,1.2,0.4,1.9
				c0,0.7-0.1,1.3-0.4,1.8c-0.3,0.5-0.6,0.9-1.1,1.2s-1.1,0.5-1.8,0.6c-0.7,0.1-1.6,0.2-2.5,0.2c-0.9,0-1.7-0.1-2.4-0.2
				s-1.4-0.4-1.9-0.7c-0.5-0.3-0.9-0.7-1.2-1.3c-0.3-0.5-0.4-1.2-0.4-1.9c0-0.7,0.1-1.3,0.4-1.8c0.3-0.5,0.6-0.9,1.1-1.2
				s1.1-0.5,1.8-0.6C630.6,20,631.5,19.9,632.4,19.9z M632.5,21.5c-0.6,0-1.1,0-1.5,0.1c-0.5,0-0.9,0.1-1.2,0.2s-0.6,0.2-0.9,0.3
				s-0.5,0.3-0.6,0.5c-0.2,0.2-0.3,0.4-0.4,0.6c-0.1,0.2-0.1,0.5-0.1,0.8c0,0.5,0.1,0.9,0.4,1.2s0.6,0.6,1,0.7
				c0.4,0.2,0.9,0.3,1.5,0.4c0.6,0.1,1.2,0.1,1.8,0.1c0.9,0,1.6,0,2.2-0.1c0.6-0.1,1.1-0.2,1.5-0.4c0.4-0.2,0.7-0.4,0.8-0.7
				s0.3-0.7,0.3-1.1c0-0.3-0.1-0.6-0.2-0.9c-0.1-0.3-0.3-0.5-0.5-0.6c-0.2-0.2-0.4-0.3-0.7-0.4c-0.3-0.1-0.6-0.2-0.9-0.3
				c-0.3-0.1-0.7-0.1-1.1-0.1C633.4,21.5,633,21.5,632.5,21.5z"/>
			<path class="st15" d="M634.9,11.2c0.5,0,1,0.1,1.4,0.3c0.4,0.2,0.8,0.4,1.1,0.8c0.3,0.3,0.5,0.8,0.7,1.3s0.2,1.1,0.2,1.7
				c0,0.4,0,0.7-0.1,1.1c-0.1,0.3-0.1,0.6-0.2,0.9c-0.1,0.3-0.2,0.5-0.3,0.6c-0.1,0.2-0.2,0.3-0.2,0.3c0,0-0.1,0.1-0.1,0.1
				c0,0-0.1,0-0.2,0.1c-0.1,0-0.1,0-0.2,0s-0.2,0-0.3,0c-0.2,0-0.4,0-0.4-0.1c-0.1,0-0.1-0.1-0.1-0.2c0-0.1,0-0.2,0.1-0.3
				c0.1-0.2,0.2-0.4,0.3-0.6s0.2-0.5,0.3-0.9c0.1-0.3,0.1-0.7,0.1-1.1c0-0.4-0.1-0.8-0.2-1.1c-0.1-0.3-0.2-0.6-0.4-0.8
				c-0.2-0.2-0.4-0.4-0.7-0.5c-0.3-0.1-0.5-0.2-0.8-0.2c-0.3,0-0.6,0.1-0.9,0.2c-0.3,0.1-0.5,0.3-0.7,0.6c-0.2,0.3-0.3,0.6-0.4,0.9
				c-0.1,0.4-0.2,0.8-0.2,1.3v1.1c0,0,0,0.1,0,0.1c0,0-0.1,0.1-0.1,0.1c0,0-0.1,0.1-0.2,0.1c-0.1,0-0.2,0-0.3,0c-0.1,0-0.2,0-0.3,0
				s-0.1,0-0.2-0.1s-0.1-0.1-0.1-0.1c0,0,0-0.1,0-0.1v-1c0-0.4,0-0.7-0.2-1.1s-0.2-0.6-0.4-0.8c-0.2-0.2-0.4-0.4-0.7-0.5
				c-0.3-0.1-0.6-0.2-0.9-0.2c-0.2,0-0.5,0-0.7,0.1c-0.2,0.1-0.4,0.2-0.6,0.3c-0.2,0.2-0.3,0.4-0.4,0.6c-0.1,0.2-0.1,0.5-0.1,0.8
				c0,0.3,0.1,0.7,0.2,0.9c0.1,0.3,0.2,0.5,0.3,0.8c0.1,0.2,0.2,0.4,0.3,0.6c0.1,0.1,0.2,0.3,0.2,0.3c0,0,0,0.1,0,0.1
				c0,0,0,0.1-0.1,0.1s-0.1,0-0.2,0c-0.1,0-0.2,0-0.3,0c-0.1,0-0.2,0-0.2,0s-0.1,0-0.2,0c-0.1,0-0.1,0-0.1-0.1c0,0-0.1-0.1-0.1-0.1
				c-0.1-0.1-0.1-0.2-0.2-0.3c-0.1-0.2-0.2-0.4-0.3-0.6c-0.1-0.3-0.2-0.5-0.3-0.9c-0.1-0.3-0.1-0.7-0.1-1.1c0-0.5,0.1-1,0.2-1.4
				c0.1-0.4,0.3-0.7,0.6-1c0.2-0.3,0.5-0.5,0.9-0.6c0.3-0.1,0.7-0.2,1.2-0.2c0.4,0,0.7,0,1,0.1s0.6,0.2,0.8,0.4s0.4,0.4,0.6,0.7
				c0.2,0.3,0.3,0.6,0.4,0.9h0c0-0.4,0.1-0.8,0.3-1.1c0.2-0.3,0.4-0.6,0.6-0.8c0.2-0.2,0.5-0.4,0.8-0.6
				C634.2,11.2,634.5,11.2,634.9,11.2z"/>
			<path class="st15" d="M634.9,2c0.5,0,1,0.1,1.4,0.3c0.4,0.2,0.8,0.4,1.1,0.8c0.3,0.3,0.5,0.8,0.7,1.3s0.2,1.1,0.2,1.7
				c0,0.4,0,0.7-0.1,1.1c-0.1,0.3-0.1,0.6-0.2,0.9c-0.1,0.3-0.2,0.5-0.3,0.6c-0.1,0.2-0.2,0.3-0.2,0.3c0,0-0.1,0.1-0.1,0.1
				c0,0-0.1,0-0.2,0.1c-0.1,0-0.1,0-0.2,0s-0.2,0-0.3,0c-0.2,0-0.4,0-0.4-0.1c-0.1,0-0.1-0.1-0.1-0.2c0-0.1,0-0.2,0.1-0.3
				c0.1-0.2,0.2-0.4,0.3-0.6c0.1-0.3,0.2-0.5,0.3-0.9c0.1-0.3,0.1-0.7,0.1-1.1c0-0.4-0.1-0.8-0.2-1.1c-0.1-0.3-0.2-0.6-0.4-0.8
				c-0.2-0.2-0.4-0.4-0.7-0.5c-0.3-0.1-0.5-0.2-0.8-0.2c-0.3,0-0.6,0.1-0.9,0.2c-0.3,0.1-0.5,0.3-0.7,0.6c-0.2,0.3-0.3,0.6-0.4,0.9
				c-0.1,0.4-0.2,0.8-0.2,1.3v1.1c0,0,0,0.1,0,0.1c0,0-0.1,0.1-0.1,0.1c0,0-0.1,0.1-0.2,0.1c-0.1,0-0.2,0-0.3,0c-0.1,0-0.2,0-0.3,0
				s-0.1,0-0.2-0.1s-0.1-0.1-0.1-0.1c0,0,0-0.1,0-0.1v-1c0-0.4,0-0.7-0.2-1.1s-0.2-0.6-0.4-0.8c-0.2-0.2-0.4-0.4-0.7-0.5
				c-0.3-0.1-0.6-0.2-0.9-0.2c-0.2,0-0.5,0-0.7,0.1c-0.2,0.1-0.4,0.2-0.6,0.3c-0.2,0.2-0.3,0.4-0.4,0.6c-0.1,0.2-0.1,0.5-0.1,0.8
				c0,0.3,0.1,0.7,0.2,0.9s0.2,0.5,0.3,0.8c0.1,0.2,0.2,0.4,0.3,0.6c0.1,0.1,0.2,0.3,0.2,0.3c0,0,0,0.1,0,0.1c0,0,0,0.1-0.1,0.1
				s-0.1,0-0.2,0c-0.1,0-0.2,0-0.3,0c-0.1,0-0.2,0-0.2,0s-0.1,0-0.2,0c-0.1,0-0.1,0-0.1-0.1c0,0-0.1-0.1-0.1-0.1
				c-0.1-0.1-0.1-0.2-0.2-0.3c-0.1-0.2-0.2-0.4-0.3-0.6c-0.1-0.3-0.2-0.5-0.3-0.9c-0.1-0.3-0.1-0.7-0.1-1.1c0-0.5,0.1-1,0.2-1.4
				c0.1-0.4,0.3-0.7,0.6-1c0.2-0.3,0.5-0.5,0.9-0.6c0.3-0.1,0.7-0.2,1.2-0.2c0.4,0,0.7,0,1,0.1s0.6,0.2,0.8,0.4s0.4,0.4,0.6,0.7
				c0.2,0.3,0.3,0.6,0.4,0.9h0c0-0.4,0.1-0.8,0.3-1.1c0.2-0.3,0.4-0.6,0.6-0.8c0.2-0.2,0.5-0.4,0.8-0.6C634.2,2,634.5,2,634.9,2z"/>
		</g>
	</g>
	<g id="text75">
		<g class="st34">
			<path class="st15" d="M655.4,347c0,0.1,0,0.2,0,0.3c0,0.1,0,0.2-0.1,0.2s-0.1,0.1-0.1,0.1c0,0-0.1,0-0.1,0
				c-0.1,0-0.2-0.1-0.4-0.2c-0.2-0.1-0.4-0.3-0.8-0.4c-0.3-0.2-0.7-0.3-1.1-0.4c-0.4-0.1-1-0.2-1.6-0.2c-0.7,0-1.4,0.1-1.9,0.4
				c-0.6,0.3-1.1,0.6-1.4,1.1s-0.7,1-0.9,1.6s-0.3,1.3-0.3,2.1c0,0.8,0.1,1.6,0.3,2.2c0.2,0.6,0.6,1.2,1,1.6s0.9,0.8,1.5,1
				s1.2,0.3,1.9,0.3c0.4,0,0.8,0,1.2-0.1c0.4-0.1,0.8-0.2,1.2-0.4v-3.8h-3c-0.1,0-0.2-0.1-0.3-0.2c-0.1-0.1-0.1-0.3-0.1-0.5
				c0-0.1,0-0.2,0-0.3c0-0.1,0-0.2,0.1-0.2c0-0.1,0.1-0.1,0.1-0.1c0,0,0.1,0,0.2,0h4.1c0.1,0,0.1,0,0.2,0c0.1,0,0.1,0.1,0.2,0.1
				s0.1,0.1,0.1,0.2s0.1,0.2,0.1,0.3v5c0,0.2,0,0.3-0.1,0.5c-0.1,0.1-0.2,0.2-0.4,0.3s-0.4,0.2-0.8,0.3c-0.3,0.1-0.6,0.2-1,0.3
				c-0.3,0.1-0.7,0.1-1,0.2c-0.3,0-0.7,0.1-1,0.1c-1,0-1.9-0.2-2.7-0.5c-0.8-0.3-1.5-0.8-2-1.3c-0.5-0.6-1-1.3-1.2-2.1
				c-0.3-0.8-0.4-1.7-0.4-2.7c0-1,0.2-2,0.5-2.8c0.3-0.8,0.8-1.6,1.3-2.1c0.6-0.6,1.2-1,2-1.4s1.7-0.5,2.6-0.5c0.5,0,1,0,1.4,0.1
				c0.4,0.1,0.8,0.2,1.2,0.3c0.3,0.1,0.6,0.2,0.9,0.4c0.2,0.1,0.4,0.2,0.5,0.3c0.1,0.1,0.1,0.2,0.2,0.3
				C655.4,346.6,655.4,346.8,655.4,347z"/>
		</g>
	</g>
	<g id="text79">
		<g class="st34">
			<path class="st15" d="M670.6,352.5c0,0.1,0,0.2,0,0.3c0,0.1,0,0.2-0.1,0.2s-0.1,0.1-0.1,0.1s-0.1,0-0.2,0h-3.3v3.7
				c0,0.1,0,0.1,0,0.1s-0.1,0.1-0.1,0.1c-0.1,0-0.1,0-0.2,0.1c-0.1,0-0.2,0-0.4,0c-0.1,0-0.2,0-0.3,0c-0.1,0-0.2,0-0.2-0.1
				c-0.1,0-0.1-0.1-0.1-0.1s0-0.1,0-0.1v-3.7h-3.3c-0.1,0-0.1,0-0.2,0s-0.1-0.1-0.1-0.1c0-0.1-0.1-0.1-0.1-0.2c0-0.1,0-0.2,0-0.3
				c0-0.1,0-0.2,0-0.3c0-0.1,0-0.2,0.1-0.2c0-0.1,0.1-0.1,0.1-0.1c0,0,0.1,0,0.1,0h3.3v-3.7c0-0.1,0-0.1,0-0.1s0.1-0.1,0.1-0.1
				s0.1-0.1,0.2-0.1c0.1,0,0.2,0,0.3,0c0.1,0,0.3,0,0.4,0s0.2,0,0.2,0.1c0.1,0,0.1,0.1,0.1,0.1s0,0.1,0,0.1v3.7h3.3
				c0.1,0,0.1,0,0.1,0c0,0,0.1,0.1,0.1,0.1c0,0.1,0.1,0.1,0.1,0.2C670.6,352.3,670.6,352.4,670.6,352.5z"/>
			<path class="st15" d="M678.3,358c0,0.1-0.1,0.1-0.1,0.2s-0.1,0.1-0.2,0.1c-0.1,0-0.2,0-0.3,0.1c-0.1,0-0.3,0-0.5,0
				c-0.1,0-0.3,0-0.4,0c-0.1,0-0.2,0-0.3,0c-0.1,0-0.2,0-0.2,0s-0.1,0-0.1-0.1c0,0-0.1-0.1-0.1-0.1s0-0.1-0.1-0.1l-4.2-12.1
				c-0.1-0.1-0.1-0.3-0.1-0.4c0-0.1,0-0.2,0.1-0.2c0.1,0,0.2-0.1,0.3-0.1c0.1,0,0.3,0,0.5,0c0.2,0,0.3,0,0.4,0c0.1,0,0.2,0,0.3,0.1
				s0.1,0.1,0.1,0.1c0,0,0.1,0.1,0.1,0.2l3.7,10.9h0l3.6-10.9c0-0.1,0-0.1,0.1-0.2c0,0,0.1-0.1,0.1-0.1c0.1,0,0.2,0,0.3-0.1
				c0.1,0,0.3,0,0.5,0c0.2,0,0.4,0,0.5,0c0.1,0,0.2,0,0.2,0.1c0,0,0.1,0.1,0.1,0.2c0,0.1,0,0.2-0.1,0.4L678.3,358z"/>
		</g>
	</g>
	<g id="text84">
		<g class="st34">
			<path class="st15" d="M698.3,354.5c0,0.6-0.1,1.2-0.3,1.6s-0.5,0.9-0.9,1.2s-0.9,0.6-1.4,0.7c-0.5,0.2-1.1,0.3-1.7,0.3
				c-0.4,0-0.8,0-1.2-0.1c-0.4-0.1-0.7-0.2-1-0.3c-0.3-0.1-0.5-0.2-0.7-0.3c-0.2-0.1-0.3-0.2-0.4-0.3c-0.1-0.1-0.1-0.2-0.2-0.3
				c0-0.1-0.1-0.3-0.1-0.5c0-0.1,0-0.3,0-0.4c0-0.1,0-0.2,0.1-0.2s0.1-0.1,0.1-0.1s0.1,0,0.1,0c0.1,0,0.2,0.1,0.4,0.2
				c0.2,0.1,0.4,0.2,0.7,0.4s0.6,0.3,1,0.4c0.4,0.1,0.8,0.2,1.3,0.2c0.4,0,0.7,0,1-0.2s0.6-0.2,0.8-0.4s0.4-0.4,0.5-0.7
				c0.1-0.3,0.2-0.6,0.2-0.9c0-0.4-0.1-0.7-0.3-0.9c-0.2-0.3-0.4-0.5-0.7-0.7c-0.3-0.2-0.6-0.4-0.9-0.5s-0.7-0.3-1.1-0.5
				c-0.4-0.2-0.7-0.4-1.1-0.6c-0.3-0.2-0.7-0.5-0.9-0.7c-0.3-0.3-0.5-0.6-0.7-1c-0.2-0.4-0.3-0.8-0.3-1.4c0-0.5,0.1-1,0.3-1.5
				c0.2-0.4,0.5-0.8,0.8-1.1s0.8-0.5,1.3-0.7c0.5-0.2,1-0.2,1.6-0.2c0.3,0,0.6,0,0.9,0.1s0.6,0.1,0.8,0.2c0.3,0.1,0.5,0.2,0.7,0.3
				c0.2,0.1,0.3,0.2,0.4,0.3c0.1,0.1,0.1,0.1,0.1,0.2c0,0,0,0.1,0,0.1c0,0.1,0,0.1,0,0.2c0,0.1,0,0.2,0,0.3c0,0.1,0,0.2,0,0.3
				s0,0.2,0,0.2c0,0.1,0,0.1-0.1,0.1s-0.1,0-0.1,0c-0.1,0-0.2,0-0.3-0.1s-0.4-0.2-0.6-0.3c-0.2-0.1-0.5-0.2-0.8-0.3
				c-0.3-0.1-0.7-0.1-1.1-0.1c-0.4,0-0.7,0-0.9,0.1s-0.5,0.2-0.7,0.4c-0.2,0.2-0.3,0.4-0.4,0.6c-0.1,0.2-0.1,0.5-0.1,0.7
				c0,0.4,0.1,0.7,0.3,0.9c0.2,0.3,0.4,0.5,0.7,0.7c0.3,0.2,0.6,0.4,0.9,0.6c0.4,0.2,0.7,0.3,1.1,0.5c0.4,0.2,0.7,0.4,1.1,0.6
				c0.4,0.2,0.7,0.4,0.9,0.7c0.3,0.3,0.5,0.6,0.7,1C698.2,353.6,698.3,354,698.3,354.5z"/>
		</g>
	</g>
</g>
<rect id="rect6090" x="689.9" y="396.4" class="st35" width="9.1" height="140.2"/>
<rect id="rect6092" x="667.6" y="396.4" class="st36" width="9.1" height="118.3"/>
<rect id="rect6094" x="645.6" y="396.4" class="st37" width="9.1" height="218.9"/>
<circle id="path1102" class="st36" cx="672.2" cy="396.4" r="9.4"/>
<circle id="circle1104" class="st37" cx="650.1" cy="396.4" r="9.4"/>
<circle id="circle1106" class="st35" cx="694.3" cy="396.4" r="9.4"/>
<circle id="circle281" class="st35" cx="575.7" cy="532" r="11.6"/>
<rect x="21.4" y="606.2" class="st37" width="633.2" height="9.1"/>
<rect x="21.4" y="584.5" class="st37" width="9.1" height="30.9"/>
<rect x="21.4" y="505.6" class="st36" width="655.3" height="9.1"/>
<rect x="21.4" y="505.6" class="st36" width="9.1" height="48.2"/>
<ellipse id="circle281-2" transform="matrix(1 -6.172493e-03 6.172493e-03 1 -3.418 0.1718)" class="st36" cx="26.1" cy="553.8" rx="10.5" ry="10.5"/>
<ellipse id="circle281-3" transform="matrix(5.746847e-03 -1 1 5.746847e-03 -558.5051 607.2086)" class="st37" cx="26.1" cy="584.5" rx="10.5" ry="10.5"/>
<rect id="rect853" x="575.7" y="527.4" class="st35" width="123.3" height="9.1"/>
</svg>
