<?xml version="1.0" encoding="utf-8"?>
<!-- Generator: Adobe Illustrator 27.8.0, SVG Export Plug-In . SVG Version: 6.00 Build 0)  -->
<svg version="1.1" id="Ebene_1" xmlns="http://www.w3.org/2000/svg" xmlns:xlink="http://www.w3.org/1999/xlink" x="0px" y="0px"
	 viewBox="0 0 474.7 967.2" style="enable-background:new 0 0 474.7 967.2;" xml:space="preserve">
<style type="text/css">
	.st0{fill:#02814B;}
	.st1{fill:#D4C547;}
	.st2{fill:#525035;}
	.st3{fill:#FEE86F;}
	.st4{fill:#FFE17B;}
	.st5{fill:#DDDDDD;}
	.st6{fill:#7F7F7F;}
	.st7{fill:#474544;}
	.st8{fill:#E2EADE;}
	.st9{fill:#C29148;}
	.st10{fill:#8DDDDE;}
	.st11{fill:#C1C1C1;}
	.st12{fill:#C2BFAB;}
	.st13{fill:none;stroke:#95AC6E;stroke-miterlimit:10;}
	.st14{fill:#E8D28A;}
	.st15{fill:#CECECE;}
	.st16{fill:#FFFFFF;}
	.st17{fill:#36323E;}
	.st18{fill:#868C97;}
	.st19{fill:#FCFCFA;}
	.st20{fill:#141316;}
	.st21{fill:#B9A68F;}
	.st22{fill:#E0B45B;}
	.st23{fill:#ABA28E;}
	.st24{fill:none;stroke:#FFFFFF;stroke-miterlimit:10;}
	.st25{fill:#010101;}
	.st26{fill:#1B1B1B;}
	.st27{opacity:0.99;fill:#808181;enable-background:new    ;}
	.st28{opacity:0.99;fill:#CDCCCC;enable-background:new    ;}
	.st29{opacity:0.99;fill:#FFFFFF;enable-background:new    ;}
	.st30{fill:#CDCCCC;}
	.st31{enable-background:new    ;}
	.st32{opacity:0.99;fill:#F2F2F2;enable-background:new    ;}
	.st33{fill:#915114;}
	.st34{fill:#26AF88;}
</style>
<g>
	<path class="st0" d="M243.3,385.2v-11.9H0.2v11.9c2.3,0.9,3.9,3.1,3.9,5.7s-1.6,4.8-3.9,5.7v18.1c2.3,0.9,3.9,3.1,3.9,5.7
		s-1.6,4.8-3.9,5.7V444c2.3,0.9,3.9,3.1,3.9,5.7s-1.6,4.8-3.9,5.7v18.1c2.3,0.9,3.9,3.1,3.9,5.7s-1.6,4.8-3.9,5.7v18.1
		c2.3,0.9,3.9,3.1,3.9,5.7s-1.6,4.8-3.9,5.7v18.1c2.3,0.9,3.9,3.1,3.9,5.7s-1.6,4.8-3.9,5.7v18.1c2.3,0.9,3.9,3.1,3.9,5.7
		s-1.6,4.8-3.9,5.7v18.1c2.3,0.9,3.9,3.1,3.9,5.7s-1.6,4.8-3.9,5.7v18.1c2.3,0.9,3.9,3.1,3.9,5.7s-1.6,4.8-3.9,5.7v18.1
		c2.3,0.9,3.9,3.1,3.9,5.7s-1.6,4.8-3.9,5.7v18.1c2.3,0.9,3.9,3.1,3.9,5.7s-1.6,4.8-3.9,5.7v18.1c2.3,0.9,3.9,3.1,3.9,5.7
		s-1.6,4.8-3.9,5.7v18.1c2.3,0.9,3.9,3.1,3.9,5.7s-1.6,4.8-3.9,5.7v18.1c2.3,0.9,3.9,3.1,3.9,5.7s-1.6,4.8-3.9,5.7v18.1
		c2.3,0.9,3.9,3.1,3.9,5.7s-1.6,4.8-3.9,5.7v18.1c2.3,0.9,3.9,3.1,3.9,5.7s-1.6,4.8-3.9,5.7v18.1c2.3,0.9,3.9,3.1,3.9,5.7
		s-1.6,4.8-3.9,5.7v18.1c2.3,0.9,3.9,3.1,3.9,5.7s-1.6,4.8-3.9,5.7v18c2.3,0.9,3.9,3.1,3.9,5.7s-1.6,4.8-3.9,5.7v18.1
		c2.3,0.9,3.9,3.1,3.9,5.7s-1.6,4.8-3.9,5.7v11.9h78.5h7.5h11.3h18.5h11.3H146h11.3h4h82V955c-2.2-0.9-3.8-3.1-3.8-5.7
		s1.6-4.8,3.8-5.7v-18.1c-2.2-0.9-3.8-3.1-3.8-5.7s1.6-4.8,3.8-5.7v-18.1c-2.2-0.9-3.8-3.1-3.8-5.7s1.6-4.8,3.8-5.7v-18.1
		c-2.2-0.9-3.8-3.1-3.8-5.7s1.6-4.8,3.8-5.7v-18.1c-2.2-0.9-3.8-3.1-3.8-5.7s1.6-4.8,3.8-5.7V808c-2.2-0.9-3.8-3.1-3.8-5.7
		s1.6-4.8,3.8-5.7v-18.1c-2.2-0.9-3.8-3.1-3.8-5.7s1.6-4.8,3.8-5.7v-18.1c-2.2-0.9-3.8-3.1-3.8-5.7s1.6-4.8,3.8-5.7v-18.1
		c-2.2-0.9-3.8-3.1-3.8-5.7s1.6-4.8,3.8-5.7v-18.1c-2.2-0.9-3.8-3.1-3.8-5.7s1.6-4.8,3.8-5.7v-18.1c-2.2-0.9-3.8-3.1-3.8-5.7
		s1.6-4.8,3.8-5.7v-18.1c-2.2-0.9-3.8-3.1-3.8-5.7s1.6-4.8,3.8-5.7v-18.1c-2.2-0.9-3.8-3.1-3.8-5.7s1.6-4.8,3.8-5.7v-18.1
		c-2.2-0.9-3.8-3.1-3.8-5.7s1.6-4.8,3.8-5.7v-18.1c-2.2-0.9-3.8-3.1-3.8-5.7s1.6-4.8,3.8-5.7v-18.1c-2.2-0.9-3.8-3.1-3.8-5.7
		s1.6-4.8,3.8-5.7v-18.1c-2.2-0.9-3.8-3.1-3.8-5.7s1.6-4.8,3.8-5.7v-18.1c-2.2-0.9-3.8-3.1-3.8-5.7s1.6-4.8,3.8-5.7v-18.1
		c-2.2-0.9-3.8-3.1-3.8-5.7s1.6-4.8,3.8-5.7v-18.1c-2.2-0.9-3.8-3.1-3.8-5.7S241.1,386.1,243.3,385.2z M15.8,955.4
		c-3.4,0-6.1-2.7-6.1-6.1s2.7-6.1,6.1-6.1s6.1,2.7,6.1,6.1S19.2,955.4,15.8,955.4z M15.8,926c-3.4,0-6.1-2.7-6.1-6.1
		s2.7-6.1,6.1-6.1s6.1,2.7,6.1,6.1S19.2,926,15.8,926z M15.8,896.7c-3.4,0-6.1-2.7-6.1-6.1s2.7-6.1,6.1-6.1s6.1,2.7,6.1,6.1
		S19.2,896.7,15.8,896.7z M15.8,867.3c-3.4,0-6.1-2.7-6.1-6.1s2.7-6.1,6.1-6.1s6.1,2.7,6.1,6.1S19.2,867.3,15.8,867.3z M15.8,837.9
		c-3.4,0-6.1-2.7-6.1-6.1s2.7-6.1,6.1-6.1s6.1,2.7,6.1,6.1S19.2,837.9,15.8,837.9z M15.8,808.5c-3.4,0-6.1-2.7-6.1-6.1
		s2.7-6.1,6.1-6.1s6.1,2.7,6.1,6.1S19.2,808.5,15.8,808.5z M15.8,779.1c-3.4,0-6.1-2.7-6.1-6.1s2.7-6.1,6.1-6.1s6.1,2.7,6.1,6.1
		S19.2,779.1,15.8,779.1z M15.8,749.7c-3.4,0-6.1-2.7-6.1-6.1s2.7-6.1,6.1-6.1s6.1,2.7,6.1,6.1S19.2,749.7,15.8,749.7z M15.8,720.3
		c-3.4,0-6.1-2.7-6.1-6.1s2.7-6.1,6.1-6.1s6.1,2.7,6.1,6.1S19.2,720.3,15.8,720.3z M15.8,690.9c-3.4,0-6.1-2.7-6.1-6.1
		s2.7-6.1,6.1-6.1s6.1,2.7,6.1,6.1S19.2,690.9,15.8,690.9z M15.8,661.5c-3.4,0-6.1-2.7-6.1-6.1s2.7-6.1,6.1-6.1s6.1,2.7,6.1,6.1
		S19.2,661.5,15.8,661.5z M15.8,632.1c-3.4,0-6.1-2.7-6.1-6.1s2.7-6.1,6.1-6.1s6.1,2.7,6.1,6.1S19.2,632.1,15.8,632.1z M15.8,602.7
		c-3.4,0-6.1-2.7-6.1-6.1s2.7-6.1,6.1-6.1s6.1,2.7,6.1,6.1S19.2,602.7,15.8,602.7z M15.8,573.3c-3.4,0-6.1-2.7-6.1-6.1
		s2.7-6.1,6.1-6.1s6.1,2.7,6.1,6.1S19.2,573.3,15.8,573.3z M15.8,543.9c-3.4,0-6.1-2.7-6.1-6.1s2.7-6.1,6.1-6.1s6.1,2.7,6.1,6.1
		S19.2,543.9,15.8,543.9z M15.8,514.5c-3.4,0-6.1-2.7-6.1-6.1s2.7-6.1,6.1-6.1s6.1,2.7,6.1,6.1S19.2,514.5,15.8,514.5z M15.8,485.1
		c-3.4,0-6.1-2.7-6.1-6.1s2.7-6.1,6.1-6.1c3.4,0,6.1,2.7,6.1,6.1S19.2,485.1,15.8,485.1z M15.8,455.7c-3.4,0-6.1-2.7-6.1-6.1
		s2.7-6.1,6.1-6.1s6.1,2.7,6.1,6.1S19.2,455.7,15.8,455.7z M15.8,426.3c-3.4,0-6.1-2.7-6.1-6.1s2.7-6.1,6.1-6.1s6.1,2.7,6.1,6.1
		S19.2,426.3,15.8,426.3z M15.8,396.9c-3.4,0-6.1-2.7-6.1-6.1s2.7-6.1,6.1-6.1s6.1,2.7,6.1,6.1S19.2,396.9,15.8,396.9z M53.7,955.4
		c-6.7,0-12.1-5.4-12.1-12.1s5.4-12.1,12.1-12.1c6.7,0,12.1,5.4,12.1,12.1S60.4,955.4,53.7,955.4z M53.7,408.2
		c-6.7,0-12.1-5.4-12.1-12.1c0-6.7,5.4-12.1,12.1-12.1c6.7,0,12.1,5.4,12.1,12.1C65.8,402.8,60.4,408.2,53.7,408.2z M127.6,741.5
		c-3.1,0-5.7-2.6-5.7-5.7s2.6-5.7,5.7-5.7c3.1,0,5.7,2.6,5.7,5.7S130.7,741.5,127.6,741.5z M157,741.5c-3.1,0-5.7-2.6-5.7-5.7
		s2.6-5.7,5.7-5.7c3.1,0,5.7,2.6,5.7,5.7S160.2,741.5,157,741.5z M186.2,384c6.7,0,12.1,5.4,12.1,12.1c0,6.7-5.4,12.1-12.1,12.1
		s-12.1-5.4-12.1-12.1C174.1,389.4,179.6,384,186.2,384z M192.5,735.8c0,3.1-2.6,5.7-5.7,5.7c-3.1,0-5.7-2.6-5.7-5.7
		s2.6-5.7,5.7-5.7C190,730.1,192.5,732.6,192.5,735.8z M188.2,955.4c-6.7,0-12.1-5.4-12.1-12.1s5.4-12.1,12.1-12.1
		s12.1,5.4,12.1,12.1S194.9,955.4,188.2,955.4z M227.8,955.4c-3.4,0-6.1-2.7-6.1-6.1s2.7-6.1,6.1-6.1s6.1,2.7,6.1,6.1
		S231.2,955.4,227.8,955.4z M227.8,926c-3.4,0-6.1-2.7-6.1-6.1s2.7-6.1,6.1-6.1s6.1,2.7,6.1,6.1S231.2,926,227.8,926z M227.8,896.7
		c-3.4,0-6.1-2.7-6.1-6.1s2.7-6.1,6.1-6.1s6.1,2.7,6.1,6.1S231.2,896.7,227.8,896.7z M227.8,867.3c-3.4,0-6.1-2.7-6.1-6.1
		s2.7-6.1,6.1-6.1s6.1,2.7,6.1,6.1S231.2,867.3,227.8,867.3z M227.8,837.9c-3.4,0-6.1-2.7-6.1-6.1s2.7-6.1,6.1-6.1s6.1,2.7,6.1,6.1
		S231.2,837.9,227.8,837.9z M227.8,808.5c-3.4,0-6.1-2.7-6.1-6.1s2.7-6.1,6.1-6.1s6.1,2.7,6.1,6.1S231.2,808.5,227.8,808.5z
		 M227.8,779.1c-3.4,0-6.1-2.7-6.1-6.1s2.7-6.1,6.1-6.1s6.1,2.7,6.1,6.1S231.2,779.1,227.8,779.1z M227.8,749.7
		c-3.4,0-6.1-2.7-6.1-6.1s2.7-6.1,6.1-6.1s6.1,2.7,6.1,6.1S231.2,749.7,227.8,749.7z M227.8,720.3c-3.4,0-6.1-2.7-6.1-6.1
		s2.7-6.1,6.1-6.1s6.1,2.7,6.1,6.1S231.2,720.3,227.8,720.3z M227.8,690.9c-3.4,0-6.1-2.7-6.1-6.1s2.7-6.1,6.1-6.1s6.1,2.7,6.1,6.1
		S231.2,690.9,227.8,690.9z M227.8,661.5c-3.4,0-6.1-2.7-6.1-6.1s2.7-6.1,6.1-6.1s6.1,2.7,6.1,6.1S231.2,661.5,227.8,661.5z
		 M227.8,632.1c-3.4,0-6.1-2.7-6.1-6.1s2.7-6.1,6.1-6.1s6.1,2.7,6.1,6.1S231.2,632.1,227.8,632.1z M227.8,602.7
		c-3.4,0-6.1-2.7-6.1-6.1s2.7-6.1,6.1-6.1s6.1,2.7,6.1,6.1S231.2,602.7,227.8,602.7z M227.8,573.3c-3.4,0-6.1-2.7-6.1-6.1
		s2.7-6.1,6.1-6.1s6.1,2.7,6.1,6.1S231.2,573.3,227.8,573.3z M227.8,543.9c-3.4,0-6.1-2.7-6.1-6.1s2.7-6.1,6.1-6.1s6.1,2.7,6.1,6.1
		S231.2,543.9,227.8,543.9z M227.8,514.5c-3.4,0-6.1-2.7-6.1-6.1s2.7-6.1,6.1-6.1s6.1,2.7,6.1,6.1S231.2,514.5,227.8,514.5z
		 M227.8,485.1c-3.4,0-6.1-2.7-6.1-6.1s2.7-6.1,6.1-6.1s6.1,2.7,6.1,6.1S231.2,485.1,227.8,485.1z M227.8,455.7
		c-3.4,0-6.1-2.7-6.1-6.1s2.7-6.1,6.1-6.1s6.1,2.7,6.1,6.1S231.2,455.7,227.8,455.7z M227.8,426.3c-3.4,0-6.1-2.7-6.1-6.1
		s2.7-6.1,6.1-6.1s6.1,2.7,6.1,6.1S231.2,426.3,227.8,426.3z M227.8,396.9c-3.4,0-6.1-2.7-6.1-6.1s2.7-6.1,6.1-6.1s6.1,2.7,6.1,6.1
		S231.2,396.9,227.8,396.9z"/>
	<path class="st1" d="M53.7,375.6c-11.3,0-20.5,9.2-20.5,20.5c0,11.3,9.2,20.5,20.5,20.5s20.5-9.2,20.5-20.5
		C74.3,384.8,65.1,375.6,53.7,375.6z M53.7,408.3c-6.7,0-12.1-5.4-12.1-12.1c0-6.7,5.4-12.1,12.1-12.1c6.7,0,12.1,5.4,12.1,12.1
		C65.8,402.8,60.4,408.3,53.7,408.3z"/>
	<path class="st1" d="M186.3,375.6c-11.3,0-20.5,9.2-20.5,20.5c0,11.3,9.2,20.5,20.5,20.5c11.3,0,20.5-9.2,20.5-20.5
		C206.8,384.8,197.6,375.6,186.3,375.6z M186.3,408.3c-6.7,0-12.1-5.4-12.1-12.1c0-6.7,5.4-12.1,12.1-12.1c6.7,0,12.1,5.4,12.1,12.1
		C198.4,402.8,193,408.3,186.3,408.3z"/>
	<path class="st1" d="M53.7,922.8c-11.3,0-20.5,9.2-20.5,20.5s9.2,20.5,20.5,20.5s20.5-9.2,20.5-20.5S65.1,922.8,53.7,922.8z
		 M53.7,955.4c-6.7,0-12.1-5.4-12.1-12.1s5.4-12.1,12.1-12.1c6.7,0,12.1,5.4,12.1,12.1S60.4,955.4,53.7,955.4z"/>
	<path class="st1" d="M188.3,922.8c-11.3,0-20.5,9.2-20.5,20.5s9.2,20.5,20.5,20.5c11.3,0,20.5-9.2,20.5-20.5
		S199.6,922.8,188.3,922.8z M188.3,955.4c-6.7,0-12.1-5.4-12.1-12.1s5.4-12.1,12.1-12.1c6.7,0,12.1,5.4,12.1,12.1
		S195,955.4,188.3,955.4z"/>
	<circle class="st2" cx="55" cy="460.9" r="10.6"/>
	<circle class="st3" cx="55" cy="460.9" r="5.5"/>
	<path class="st4" d="M17.5,440.6H0.3v3.4c2.3,0.9,3.9,3.1,3.9,5.7s-1.6,4.8-3.9,5.7v3.4h17.2c5,0,9-4,9-9v0
		C26.5,444.7,22.4,440.6,17.5,440.6z M15.9,455.7c-3.4,0-6.1-2.7-6.1-6.1s2.7-6.1,6.1-6.1s6.1,2.7,6.1,6.1S19.2,455.7,15.9,455.7z"
		/>
	<path class="st4" d="M17.5,587.6H0.3v3.4c2.3,0.9,3.9,3.1,3.9,5.7s-1.6,4.8-3.9,5.7v3.4h17.2c5,0,9-4,9-9S22.4,587.6,17.5,587.6z
		 M15.9,602.7c-3.4,0-6.1-2.7-6.1-6.1s2.7-6.1,6.1-6.1s6.1,2.7,6.1,6.1S19.2,602.7,15.9,602.7z"/>
	<path class="st4" d="M17.5,734.6H0.3v3.4c2.3,0.9,3.9,3.1,3.9,5.7s-1.6,4.8-3.9,5.7v3.4h17.2c5,0,9-4,9-9S22.4,734.6,17.5,734.6z
		 M15.9,749.7c-3.4,0-6.1-2.7-6.1-6.1s2.7-6.1,6.1-6.1s6.1,2.7,6.1,6.1S19.2,749.7,15.9,749.7z"/>
	<path class="st4" d="M17.5,764H0.3v3.4c2.3,0.9,3.9,3.1,3.9,5.7s-1.6,4.8-3.9,5.7v3.4h17.2c5,0,9-4,9-9S22.4,764,17.5,764z
		 M15.9,779.1c-3.4,0-6.1-2.7-6.1-6.1s2.7-6.1,6.1-6.1s6.1,2.7,6.1,6.1S19.2,779.1,15.9,779.1z"/>
	<path class="st4" d="M17.5,793.4H0.3v3.4c2.3,0.9,3.9,3.1,3.9,5.7s-1.6,4.8-3.9,5.7v3.4h17.2c5,0,9-4,9-9S22.4,793.4,17.5,793.4z
		 M15.9,808.5c-3.4,0-6.1-2.7-6.1-6.1s2.7-6.1,6.1-6.1s6.1,2.7,6.1,6.1S19.2,808.5,15.9,808.5z"/>
	<path class="st4" d="M17.5,822.8H0.3v3.4c2.3,0.9,3.9,3.1,3.9,5.7s-1.6,4.8-3.9,5.7v3.4h17.2c5,0,9-4,9-9S22.4,822.8,17.5,822.8z
		 M15.9,837.9c-3.4,0-6.1-2.7-6.1-6.1s2.7-6.1,6.1-6.1s6.1,2.7,6.1,6.1S19.2,837.9,15.9,837.9z"/>
	<path class="st4" d="M17.5,881.6H0.3v3.4c2.3,0.9,3.9,3.1,3.9,5.7s-1.6,4.8-3.9,5.7v3.4h17.2c5,0,9-4,9-9v0
		C26.5,885.6,22.4,881.6,17.5,881.6z M15.9,896.7c-3.4,0-6.1-2.7-6.1-6.1s2.7-6.1,6.1-6.1s6.1,2.7,6.1,6.1S19.2,896.7,15.9,896.7z"
		/>
	<path class="st4" d="M17.5,911H0.3v3.4c2.3,0.9,3.9,3.1,3.9,5.7s-1.6,4.8-3.9,5.7v3.4h17.2c5,0,9-4,9-9v0
		C26.5,915,22.4,911,17.5,911z M15.9,926.1c-3.4,0-6.1-2.7-6.1-6.1s2.7-6.1,6.1-6.1s6.1,2.7,6.1,6.1S19.2,926.1,15.9,926.1z"/>
	<path class="st4" d="M17.5,940.4H0.3v3.4c2.3,0.9,3.9,3.1,3.9,5.7s-1.6,4.8-3.9,5.7v3.4h17.2c5,0,9-4,9-9S22.4,940.4,17.5,940.4z
		 M15.9,955.5c-3.4,0-6.1-2.7-6.1-6.1s2.7-6.1,6.1-6.1s6.1,2.7,6.1,6.1S19.2,955.5,15.9,955.5z"/>
	<path class="st4" d="M239.5,390.9c0-2.6,1.6-4.8,3.9-5.7v-3.4h-17.2c-5,0-9,4-9,9s4,9,9,9h17.2v-3.4
		C241.2,395.7,239.5,393.5,239.5,390.9z M227.8,397c-3.4,0-6.1-2.7-6.1-6.1s2.7-6.1,6.1-6.1s6.1,2.7,6.1,6.1S231.2,397,227.8,397z"
		/>
	<path class="st4" d="M239.5,420.3c0-2.6,1.6-4.8,3.9-5.7v-3.4h-17.2c-5,0-9,4-9,9v0c0,5,4,9,9,9h17.2v-3.4
		C241.2,425,239.5,422.8,239.5,420.3z M227.8,426.3c-3.4,0-6.1-2.7-6.1-6.1s2.7-6.1,6.1-6.1s6.1,2.7,6.1,6.1
		S231.2,426.3,227.8,426.3z"/>
	<path class="st4" d="M239.5,449.7c0-2.6,1.6-4.8,3.9-5.7v-3.4h-17.2c-5,0-9,4-9,9v0c0,5,4,9,9,9h17.2v-3.4
		C241.2,454.4,239.5,452.2,239.5,449.7z M227.8,455.7c-3.4,0-6.1-2.7-6.1-6.1s2.7-6.1,6.1-6.1s6.1,2.7,6.1,6.1
		S231.2,455.7,227.8,455.7z"/>
	<path class="st4" d="M239.5,479.1c0-2.6,1.6-4.8,3.9-5.7V470h-17.2c-5,0-9,4-9,9s4,9,9,9h17.2v-3.4
		C241.2,483.8,239.5,481.6,239.5,479.1z M227.8,485.1c-3.4,0-6.1-2.7-6.1-6.1s2.7-6.1,6.1-6.1s6.1,2.7,6.1,6.1
		S231.2,485.1,227.8,485.1z"/>
	<path class="st4" d="M239.5,508.4c0-2.6,1.6-4.8,3.9-5.7v-3.4h-17.2c-5,0-9,4-9,9s4,9,9,9h17.2v-3.4
		C241.2,513.2,239.5,511,239.5,508.4z M227.8,514.5c-3.4,0-6.1-2.7-6.1-6.1s2.7-6.1,6.1-6.1s6.1,2.7,6.1,6.1
		S231.2,514.5,227.8,514.5z"/>
	<path class="st4" d="M239.5,537.8c0-2.6,1.6-4.8,3.9-5.7v-3.4h-17.2c-5,0-9,4-9,9s4,9,9,9h17.2v-3.4
		C241.2,542.6,239.5,540.4,239.5,537.8z M227.8,543.9c-3.4,0-6.1-2.7-6.1-6.1s2.7-6.1,6.1-6.1s6.1,2.7,6.1,6.1
		S231.2,543.9,227.8,543.9z"/>
	<path class="st4" d="M239.5,596.6c0-2.6,1.6-4.8,3.9-5.7v-3.4h-17.2c-5,0-9,4-9,9s4,9,9,9h17.2v-3.4
		C241.2,601.4,239.5,599.2,239.5,596.6z M227.8,602.7c-3.4,0-6.1-2.7-6.1-6.1s2.7-6.1,6.1-6.1s6.1,2.7,6.1,6.1
		S231.2,602.7,227.8,602.7z"/>
	<path class="st4" d="M239.5,655.4c0-2.6,1.6-4.8,3.9-5.7v-3.4h-17.2c-5,0-9,4-9,9v0c0,5,4,9,9,9h17.2v-3.4
		C241.2,660.2,239.5,658,239.5,655.4z M227.8,661.5c-3.4,0-6.1-2.7-6.1-6.1s2.7-6.1,6.1-6.1s6.1,2.7,6.1,6.1
		S231.2,661.5,227.8,661.5z"/>
	<path class="st4" d="M239.5,684.8c0-2.6,1.6-4.8,3.9-5.7v-3.4h-17.2c-5,0-9,4-9,9v0c0,5,4,9,9,9h17.2v-3.4
		C241.2,689.6,239.5,687.4,239.5,684.8z M227.8,690.9c-3.4,0-6.1-2.7-6.1-6.1s2.7-6.1,6.1-6.1s6.1,2.7,6.1,6.1
		S231.2,690.9,227.8,690.9z"/>
	<path class="st4" d="M239.5,714.2c0-2.6,1.6-4.8,3.9-5.7v-3.4h-17.2c-5,0-9,4-9,9s4,9,9,9h17.2v-3.4
		C241.2,719,239.5,716.8,239.5,714.2z M227.8,720.3c-3.4,0-6.1-2.7-6.1-6.1s2.7-6.1,6.1-6.1s6.1,2.7,6.1,6.1
		S231.2,720.3,227.8,720.3z"/>
	<path class="st4" d="M239.5,743.6c0-2.6,1.6-4.8,3.9-5.7v-3.4h-17.2c-5,0-9,4-9,9s4,9,9,9h17.2v-3.4
		C241.2,748.4,239.5,746.2,239.5,743.6z M227.8,749.7c-3.4,0-6.1-2.7-6.1-6.1s2.7-6.1,6.1-6.1s6.1,2.7,6.1,6.1
		S231.2,749.7,227.8,749.7z"/>
	<path class="st4" d="M239.5,773c0-2.6,1.6-4.8,3.9-5.7V764h-17.2c-5,0-9,4-9,9s4,9,9,9h17.2v-3.4
		C241.2,777.8,239.5,775.6,239.5,773z M227.8,779.1c-3.4,0-6.1-2.7-6.1-6.1s2.7-6.1,6.1-6.1s6.1,2.7,6.1,6.1
		S231.2,779.1,227.8,779.1z"/>
	<path class="st4" d="M239.5,802.4c0-2.6,1.6-4.8,3.9-5.7v-3.4h-17.2c-5,0-9,4-9,9s4,9,9,9h17.2v-3.4
		C241.2,807.2,239.5,805,239.5,802.4z M227.8,808.5c-3.4,0-6.1-2.7-6.1-6.1s2.7-6.1,6.1-6.1s6.1,2.7,6.1,6.1
		S231.2,808.5,227.8,808.5z"/>
	<path class="st4" d="M239.5,831.8c0-2.6,1.6-4.8,3.9-5.7v-3.4h-17.2c-5,0-9,4-9,9s4,9,9,9h17.2v-3.4
		C241.2,836.6,239.5,834.4,239.5,831.8z M227.8,837.9c-3.4,0-6.1-2.7-6.1-6.1s2.7-6.1,6.1-6.1s6.1,2.7,6.1,6.1
		S231.2,837.9,227.8,837.9z"/>
	<path class="st4" d="M239.5,890.6c0-2.6,1.6-4.8,3.9-5.7v-3.4h-17.2c-5,0-9,4-9,9v0c0,5,4,9,9,9h17.2v-3.4
		C241.2,895.4,239.5,893.2,239.5,890.6z M227.8,896.7c-3.4,0-6.1-2.7-6.1-6.1s2.7-6.1,6.1-6.1s6.1,2.7,6.1,6.1
		S231.2,896.7,227.8,896.7z"/>
	<path class="st4" d="M239.5,920c0-2.6,1.6-4.8,3.9-5.7V911h-17.2c-5,0-9,4-9,9v0c0,5,4,9,9,9h17.2v-3.4
		C241.2,924.8,239.5,922.6,239.5,920z M227.8,926.1c-3.4,0-6.1-2.7-6.1-6.1s2.7-6.1,6.1-6.1s6.1,2.7,6.1,6.1
		S231.2,926.1,227.8,926.1z"/>
	<path class="st5" d="M163.1,362.8l4.4-4.4l-2.3-2.3l-6.6,6.6h-1.5V358c0-1.2-1-2.2-2.2-2.2H85.4c-1.2,0-2.2,1-2.2,2.2v4.7h-1.5
		l-6.6-6.6l-2.3,2.3l4.4,4.4c-0.6,0.2-1,0.8-1,1.4v56.3c0,0.9,0.7,1.6,1.6,1.6h84.6c0.9,0,1.6-0.7,1.6-1.6v-56.3
		C164,363.6,163.6,363,163.1,362.8z"/>
	<g>
		<path class="st6" d="M100.3,385c0-3.2-2.6-5.8-5.8-5.8s-5.8,2.6-5.8,5.8c0,1.4,0.5,2.7,1.3,3.7h-0.2v7.7c0,1.2,1,2.1,2.1,2.1H97
			c1.2,0,2.1-1,2.1-2.1v-7.7H99C99.8,387.8,100.3,386.5,100.3,385z"/>
		<path class="st6" d="M155.5,385c0-3.2-2.6-5.8-5.8-5.8s-5.8,2.6-5.8,5.8c0,1.4,0.5,2.7,1.3,3.7H145v7.7c0,1.2,1,2.1,2.1,2.1h5.1
			c1.2,0,2.1-1,2.1-2.1v-7.7h-0.2C155,387.8,155.5,386.5,155.5,385z"/>
	</g>
	<path class="st7" d="M200.9,515.2h-21c-1.2,0-2.2-1-2.2-2.2v-26.7c0-1.2,1-2.2,2.2-2.2h21c1.2,0,2.2,1,2.2,2.2V513
		C203,514.2,202.1,515.2,200.9,515.2z"/>
	<g>
		<rect x="132" y="451.4" class="st8" width="21.7" height="14.4"/>
		<path class="st9" d="M149.3,465.8c-2-1.8-3.2-4.4-3.2-7.2s1.2-5.4,3.2-7.2h-12.8c2,1.8,3.2,4.4,3.2,7.2s-1.2,5.4-3.2,7.2H149.3z"
			/>
	</g>
	<g>
		<rect x="132.3" y="536.7" class="st8" width="21.7" height="14.4"/>
		<path class="st9" d="M149.6,551.2c-2-1.8-3.2-4.4-3.2-7.2s1.2-5.4,3.2-7.2h-12.8c2,1.8,3.2,4.4,3.2,7.2s-1.2,5.4-3.2,7.2H149.6z"
			/>
	</g>
	<g>
		<rect x="132.3" y="555.9" class="st8" width="21.7" height="14.4"/>
		<path class="st9" d="M149.6,570.3c-2-1.8-3.2-4.4-3.2-7.2s1.2-5.4,3.2-7.2h-12.8c2,1.8,3.2,4.4,3.2,7.2s-1.2,5.4-3.2,7.2H149.6z"
			/>
	</g>
	<g>
		
			<rect x="63.8" y="604.2" transform="matrix(6.123234e-17 -1 1 6.123234e-17 -543.0237 676.0602)" class="st8" width="5.4" height="10.6"/>
		
			<rect x="63.8" y="606.5" transform="matrix(6.123234e-17 -1 1 6.123234e-17 -543.0237 676.0602)" class="st9" width="5.4" height="6"/>
	</g>
	<g>
		<rect x="177.1" y="586.8" class="st8" width="5.4" height="10.6"/>
		<rect x="177.1" y="589.1" class="st9" width="5.4" height="6"/>
	</g>
	<rect x="179.5" y="436.8" class="st7" width="18.9" height="29.3"/>
	<g>
		<rect x="171.6" y="538.1" class="st8" width="20.6" height="9.6"/>
		<rect x="176.2" y="538.1" class="st10" width="11.5" height="9.6"/>
	</g>
	<rect x="120.2" y="706.1" class="st9" width="4.2" height="6.9"/>
	<rect x="126.9" y="706.1" class="st9" width="4.2" height="6.9"/>
	
		<rect x="66.6" y="616.1" transform="matrix(6.123234e-17 -1 1 6.123234e-17 -550.8204 688.3031)" class="st9" width="4.2" height="6.9"/>
	
		<rect x="89.5" y="549" transform="matrix(6.123234e-17 -1 1 6.123234e-17 -460.7557 644.0801)" class="st9" width="4.2" height="6.9"/>
	
		<rect x="66.3" y="659.7" transform="matrix(6.123234e-17 -1 1 6.123234e-17 -594.7745 731.5447)" class="st9" width="4.2" height="6.9"/>
	<rect x="195" y="664.9" class="st7" width="4.2" height="6.9"/>
	
		<rect x="189.2" y="603.7" transform="matrix(6.123234e-17 -1 1 6.123234e-17 -415.8042 798.456)" class="st7" width="4.2" height="6.9"/>
	
		<rect x="87.2" y="448" transform="matrix(6.123234e-17 -1 1 6.123234e-17 -362.1226 540.7851)" class="st7" width="4.2" height="6.9"/>
	
		<rect x="82.3" y="460.3" transform="matrix(6.123234e-17 -1 1 6.123234e-17 -379.2378 548.1447)" class="st7" width="4.2" height="6.9"/>
	
		<rect x="192.8" y="552.7" transform="matrix(6.123234e-17 -1 1 6.123234e-17 -361.1945 751.1088)" class="st7" width="4.2" height="6.9"/>
	<path class="st11" d="M186.3,869.8H57.5c-2.1,0-3.9-1.7-3.9-3.9V757.9c0-2.1,1.7-3.9,3.9-3.9h128.8c2.1,0,3.9,1.7,3.9,3.9V866
		C190.2,868.1,188.5,869.8,186.3,869.8z"/>
	<rect x="101.5" y="916.1" class="st12" width="10.5" height="5.9"/>
	<rect x="130.3" y="916.3" class="st12" width="10.5" height="5.9"/>
	<rect x="101.5" y="953.9" class="st12" width="10.5" height="5.9"/>
	<rect x="130.3" y="954" class="st12" width="10.5" height="5.9"/>
	<polyline class="st13" points="17.5,398.6 17.5,403 35.4,421 35.4,469.6 51,485.2 51,619.9 55.9,624.9 91.2,624.9 	"/>
	<polyline class="st13" points="22.9,425.5 31,433.6 31,471.4 46.7,487.1 46.7,622.4 52.6,628.4 91,628.4 	"/>
	<polyline class="st13" points="23.2,483.9 43,503.7 43,624.9 53.4,635.3 95,635.3 	"/>
	<polyline class="st13" points="23.2,513.4 39.8,529.9 39.8,626.8 51.9,638.9 95.1,638.9 	"/>
	<polyline class="st13" points="23.2,543.5 35.6,555.8 35.6,631.8 49.5,645.8 93.4,645.8 	"/>
	<polyline class="st13" points="22.9,571.6 31.6,580.4 31.6,634.5 46.4,649.3 96.1,649.3 	"/>
	<polyline class="st13" points="22.9,630.3 45.3,652.7 102.7,652.7 	"/>
	<line class="st13" x1="23.7" y1="656.2" x2="98.8" y2="656.2"/>
	<path class="st13" d="M23.2,682.6c0.1-0.6,17.3-17.3,17.3-17.3H53l4.9,4.9h45.7"/>
	<polyline class="st13" points="20.4,708.5 25.7,703.2 25.7,695.4 30.9,690.2 30.9,681.8 43.9,668.7 52.6,668.7 57.3,673.4 
		95.3,673.4 	"/>
	<path class="st13" d="M30.7,698.6l3.4-3.4c0,0-0.7-8.9,0-9.6c0.7-0.7,6-6,6-6l6.3-6.3h6.1l3.7,3.7h35.1"/>
	<polyline class="st13" points="29.1,754.6 29.1,706.9 38.7,697.4 93.4,697.4 95,695.8 95,686.1 	"/>
	<polyline class="st13" points="17.5,852.8 17.5,849.2 32.9,833.7 32.9,753.5 35.7,750.7 35.7,708.9 42,702.6 94.2,702.6 
		98.4,698.4 98.4,691.1 	"/>
	<path class="st13" d="M35.7,736.4"/>
	<path class="st13" d="M35.7,751.6"/>
	<polyline class="st13" points="23.6,913.4 30.4,906.6 30.4,842.1 37.5,836.1 	"/>
	<polyline class="st13" points="35.6,846.4 42.6,839.4 42.6,749.7 39.9,747 39.9,710.2 44.6,705.5 94.9,705.5 101.9,698.5 
		101.9,681.9 	"/>
	<polyline class="st13" points="108.9,688.7 108.9,697.4 95.9,710.4 91.5,710.4 	"/>
	<polyline class="st13" points="93.9,719 112.4,700.5 112.4,685.1 	"/>
	<polyline class="st13" points="115.9,690.5 115.9,702.1 102.2,715.8 102.2,735.9 95.9,742.1 65,742.1 55.5,732.6 	"/>
	<polyline class="st13" points="133.9,729.5 138.7,724.7 138.7,711.4 135.5,708.2 135.5,698.2 132.4,695 132.4,684.1 	"/>
	<polyline class="st13" points="137.3,688.2 137.3,696.1 139.3,698 139.3,704.4 152.7,717.9 164.9,717.9 179.1,732.1 	"/>
	<polyline class="st13" points="145.3,686 145.3,696.4 151.3,702.4 172.3,702.4 200.5,730.7 200.5,843.2 206.7,849.4 206.7,900.3 
		212.3,905.9 212.3,926.1 223.3,937.1 223.3,942.4 	"/>
	<polyline class="st13" points="150.7,686.5 150.7,693.8 154.7,697.8 173.6,697.8 205.2,729.3 205.2,840.8 211.4,847 211.4,899.6 
		215.6,903.8 215.6,912.6 	"/>
	<polyline class="st13" points="157.5,681.3 165.3,681.3 211.1,727.1 211.1,838.8 227.2,854.9 	"/>
	<polyline class="st13" points="157.5,676.9 166.9,676.9 192.1,702.1 	"/>
	<polyline class="st13" points="158.6,671.7 166.6,671.7 190.1,695.2 195.5,695.2 206.3,706.1 206.3,713 	"/>
	<polyline class="st13" points="158.2,667.3 167.3,667.3 190.4,690.4 200.9,690.4 	"/>
	<polyline class="st13" points="158.2,663.2 169.1,663.2 174.1,668.1 	"/>
	<polyline class="st13" points="158.2,658.2 175.4,658.2 202.8,685.5 206.3,685.5 215.9,695.2 215.9,707.5 	"/>
	<line class="st13" x1="158.6" y1="652.8" x2="167.7" y2="652.8"/>
	<polyline class="st13" points="156.4,647.3 171.8,647.3 179.2,654.7 	"/>
	<polyline class="st13" points="187.9,667.3 192.4,662.8 192.4,643.5 203.4,643.5 	"/>
	<polyline class="st13" points="158.6,638.9 209.5,638.9 218.5,647.9 	"/>
	<polyline class="st13" points="158.2,634.5 213.8,634.5 220.3,628 	"/>
	<polyline class="st13" points="157.5,630.3 198.8,630.3 207.1,622 207.1,581.7 219.6,569.3 	"/>
	<polyline class="st13" points="158.6,626 179.1,626 202.4,602.8 202.4,579.9 	"/>
	<polyline class="st13" points="159.7,621.3 167.2,621.3 171.8,616.7 	"/>
	<path class="st13" d="M147.8,616c-0.2-0.3,9.2-9.2,9.2-9.2h15.6v-33.5l2.8-2.8v-7.7"/>
	<path class="st13" d="M147,613.8c0-0.2,0-6.5,0-6.5l10.3-10.3"/>
	<polyline class="st13" points="140.1,614.7 140.1,603.9 147.4,596.6 	"/>
	<line class="st13" x1="136.6" y1="611.7" x2="136.6" y2="594.1"/>
	<path class="st13" d="M133.1,613.5c0-0.6,0-15.2,0-15.2l-4.2-4.2"/>
	<path class="st13" d="M122.6,613.1c0-0.6,0-20.7,0-20.7"/>
	<path class="st13" d="M119.2,614.7c0-0.3,0-11.1,0-11.1l-7.6-7.6"/>
	<polyline class="st13" points="115.6,614.3 115.6,607.9 101.8,594 101.8,587.6 105,584.4 108.9,584.4 111.5,581.8 111.5,571.3 
		106.1,565.9 100,565.9 	"/>
	<polyline class="st13" points="99.8,571.6 105.4,571.6 108.5,574.7 108.5,579.9 105.7,582.7 101.1,582.7 97.7,586.1 97.7,595.1 
		108.7,606.1 108.7,612.9 	"/>
	<polyline class="st13" points="91.3,576.2 91.3,592.9 105.2,606.8 105.2,616.3 	"/>
	<polyline class="st13" points="76.5,575.4 76.5,582.5 85.9,591.9 85.9,595.8 99,608.8 99,617.9 	"/>
	<path class="st13" d="M94.8,612c0-0.1,0-5,0-5l-11.7-11.7v-1.1l-4.5-4.5h-6.4l-1.7-1.7h-6.9l-6.7-6.7v-14.4l1.6-1.6h8.8"/>
	<polyline class="st13" points="69.1,559.2 60.4,559.2 55.4,564.2 55.4,582.1 63.4,590 69.5,590 75.9,596.5 78.4,596.5 92.5,610.5 	
		"/>
	<line class="st13" x1="73.8" y1="532.6" x2="56" y2="550.3"/>
	<polyline class="st13" points="137.6,593.2 137.6,587 134.7,584.1 134.7,581.1 130.2,576.6 125.2,576.6 121.1,572.6 121.1,553.6 
		109.7,542.2 109.7,459.9 124,445.7 124,436.6 127.7,432.9 	"/>
	<path class="st13" d="M135.3,485.8c0-0.6,0-9,0-9l-3.1-3.1h-9.8l-4.5-4.5v-4.3"/>
	<polyline class="st13" points="129.3,518.2 129.3,523.6 126.1,526.8 120.2,526.8 118.6,528.3 	"/>
	<polyline class="st13" points="62.9,431.3 62.9,440.7 79.1,456.9 83.6,456.9 88.5,461.8 88.5,470 83.9,474.5 83.9,488.1 	"/>
	<rect x="45.6" y="424.2" class="st14" width="18.9" height="9.6"/>
	<g>
		<rect x="102.7" y="422.1" class="st15" width="4.3" height="11.5"/>
		<rect x="110.4" y="422.1" class="st15" width="4.3" height="11.5"/>
		<rect x="118.1" y="422.1" class="st15" width="4.3" height="11.5"/>
		<rect x="125.7" y="422.1" class="st15" width="4.3" height="11.5"/>
		<rect x="133.4" y="422.1" class="st15" width="4.3" height="11.5"/>
	</g>
	<g>
		<path class="st16" d="M106.8,442.8v-5.5h2.5v5.8c0,2,0.6,2.7,1.7,2.7c1.2,0,1.8-0.7,1.8-2.7v-5.8h2.4v5.5c0,3.5-1.4,5.1-4.2,5.1
			S106.8,446.4,106.8,442.8z"/>
		<path class="st16" d="M116.7,446.4l1.3-1.6c0.7,0.6,1.7,1,2.6,1c0.9,0,1.4-0.4,1.4-0.9c0-0.6-0.6-0.8-1.5-1.2l-1.3-0.6
			c-1.1-0.4-2.1-1.3-2.1-2.8c0-1.7,1.6-3.2,3.8-3.2c1.2,0,2.5,0.5,3.4,1.3l-1.3,1.6c-0.7-0.5-1.4-0.8-2.1-0.8
			c-0.8,0-1.3,0.3-1.3,0.8c0,0.6,0.7,0.8,1.6,1.2l1.3,0.5c1.3,0.5,2.1,1.4,2.1,2.8c0,1.7-1.5,3.3-4,3.3
			C119.1,447.9,117.8,447.5,116.7,446.4z"/>
		<path class="st16" d="M126.3,437.3h3.6c2.2,0,3.9,0.6,3.9,2.6c0,0.9-0.5,1.9-1.4,2.2v0.1c1.1,0.3,1.9,1.1,1.9,2.4
			c0,2.1-1.8,3.1-4.1,3.1h-3.9V437.3z M129.8,441.5c1.1,0,1.5-0.5,1.5-1.2c0-0.8-0.5-1.1-1.5-1.1h-1.1v2.2H129.8z M130,445.8
			c1.2,0,1.8-0.4,1.8-1.3s-0.6-1.2-1.8-1.2h-1.2v2.5H130z"/>
	</g>
	<path class="st17" d="M170.2,518.7h-45.7c-0.5,0-1-0.4-1-1v-33.5c0-0.5,0.4-1,1-1h45.7c0.5,0,1,0.4,1,1v33.5
		C171.1,518.3,170.7,518.7,170.2,518.7z"/>
	<g>
		<rect x="128.6" y="479.1" class="st15" width="1.4" height="4.1"/>
		<rect x="134.6" y="479.1" class="st15" width="1.4" height="4.1"/>
		<rect x="140.6" y="479.1" class="st15" width="1.4" height="4.1"/>
		<rect x="146.6" y="479.1" class="st15" width="1.4" height="4.1"/>
		<rect x="152.6" y="479.1" class="st15" width="1.4" height="4.1"/>
		<rect x="158.6" y="479.1" class="st15" width="1.4" height="4.1"/>
		<rect x="164.6" y="479.1" class="st15" width="1.4" height="4.1"/>
	</g>
	<g>
		<rect x="128.6" y="518.7" class="st15" width="1.4" height="4.1"/>
		<rect x="134.6" y="518.7" class="st15" width="1.4" height="4.1"/>
		<rect x="140.6" y="518.7" class="st15" width="1.4" height="4.1"/>
		<rect x="146.6" y="518.7" class="st15" width="1.4" height="4.1"/>
		<rect x="152.6" y="518.7" class="st15" width="1.4" height="4.1"/>
		<rect x="158.6" y="518.7" class="st15" width="1.4" height="4.1"/>
		<rect x="164.6" y="518.7" class="st15" width="1.4" height="4.1"/>
	</g>
	<g>
		<rect x="61.4" y="487.1" class="st18" width="39.3" height="48.9"/>
		<path class="st19" d="M81,529.8L81,529.8c-7.6,0-13.7-6.1-13.7-13.7V507c0-7.6,6.1-13.7,13.7-13.7h0c7.6,0,13.7,6.1,13.7,13.7v9.1
			C94.7,523.7,88.6,529.8,81,529.8z"/>
		<path class="st19" d="M61.4,497.3L61.4,497.3l0-10.3h10.3v0C71.6,492.8,67.1,497.3,61.4,497.3z"/>
		<path class="st19" d="M71.6,536H61.4v-10.3h0C67.1,525.8,71.6,530.4,71.6,536L71.6,536z"/>
		<path class="st19" d="M100.7,497.3L100.7,497.3c-5.7,0-10.3-4.6-10.3-10.3v0h10.3V497.3z"/>
		<path class="st19" d="M100.7,536H90.4l0,0c0-5.7,4.6-10.3,10.3-10.3h0V536z"/>
	</g>
	<g>
		<rect x="64.9" y="556.6" class="st17" width="34.6" height="22.9"/>
		<g>
			<rect x="60.7" y="557.7" class="st15" width="4.2" height="3.4"/>
			<rect x="60.7" y="563.5" class="st15" width="4.2" height="3.4"/>
			<rect x="60.7" y="569.2" class="st15" width="4.2" height="3.4"/>
			<rect x="60.7" y="575" class="st15" width="4.2" height="3.4"/>
		</g>
		<g>
			<rect x="99.5" y="557.7" class="st15" width="4.2" height="3.4"/>
			<rect x="99.5" y="563.5" class="st15" width="4.2" height="3.4"/>
			<rect x="99.5" y="569.2" class="st15" width="4.2" height="3.4"/>
			<rect x="99.5" y="575" class="st15" width="4.2" height="3.4"/>
		</g>
	</g>
	<rect x="135.5" y="588.1" class="st7" width="4.2" height="6.9"/>
	<g>
		<path class="st20" d="M160.4,691.9H81.4c-0.7,0-1.3-0.6-1.3-1.3v-79.1c0-0.7,0.6-1.3,1.3-1.3h79.1c0.7,0,1.3,0.6,1.3,1.3v79.1
			C161.7,691.3,161.1,691.9,160.4,691.9z"/>
		<g>
			<rect x="86.2" y="608.3" class="st15" width="3.1" height="1.9"/>
			<rect x="89.7" y="608.3" class="st15" width="3.1" height="1.9"/>
			<rect x="93.2" y="608.3" class="st15" width="3.1" height="1.9"/>
			<rect x="96.7" y="608.3" class="st15" width="3.1" height="1.9"/>
			<rect x="100.2" y="608.3" class="st15" width="3.1" height="1.9"/>
			<rect x="103.6" y="608.3" class="st15" width="3.1" height="1.9"/>
			<rect x="107.1" y="608.3" class="st15" width="3.1" height="1.9"/>
			<rect x="114.1" y="608.3" class="st15" width="3.1" height="1.9"/>
			<rect x="121.1" y="608.3" class="st15" width="3.1" height="1.9"/>
			<rect x="128" y="608.3" class="st15" width="3.1" height="1.9"/>
			<rect x="138.5" y="608.3" class="st15" width="3.1" height="1.9"/>
			<rect x="142" y="608.3" class="st15" width="3.1" height="1.9"/>
			<rect x="149" y="608.3" class="st15" width="3.1" height="1.9"/>
			<rect x="110.6" y="608.3" class="st15" width="3.1" height="1.9"/>
			<rect x="117.6" y="608.3" class="st15" width="3.1" height="1.9"/>
			<rect x="124.6" y="608.3" class="st15" width="3.1" height="1.9"/>
			<rect x="131.5" y="608.3" class="st15" width="3.1" height="1.9"/>
			<rect x="135" y="608.3" class="st15" width="3.1" height="1.9"/>
			<rect x="145.5" y="608.3" class="st15" width="3.1" height="1.9"/>
			<rect x="152.4" y="608.3" class="st15" width="3.1" height="1.9"/>
		</g>
		<g>
			<rect x="86.4" y="691.9" class="st15" width="3.1" height="1.9"/>
			<rect x="89.9" y="691.9" class="st15" width="3.1" height="1.9"/>
			<rect x="93.4" y="691.9" class="st15" width="3.1" height="1.9"/>
			<rect x="96.9" y="691.9" class="st15" width="3.1" height="1.9"/>
			<rect x="100.4" y="691.9" class="st15" width="3.1" height="1.9"/>
			<rect x="103.8" y="691.9" class="st15" width="3.1" height="1.9"/>
			<rect x="107.3" y="691.9" class="st15" width="3.1" height="1.9"/>
			<rect x="114.3" y="691.9" class="st15" width="3.1" height="1.9"/>
			<rect x="121.3" y="691.9" class="st15" width="3.1" height="1.9"/>
			<rect x="128.2" y="691.9" class="st15" width="3.1" height="1.9"/>
			<rect x="138.7" y="691.9" class="st15" width="3.1" height="1.9"/>
			<rect x="142.2" y="691.9" class="st15" width="3.1" height="1.9"/>
			<rect x="149.1" y="691.9" class="st15" width="3.1" height="1.9"/>
			<rect x="110.8" y="691.9" class="st15" width="3.1" height="1.9"/>
			<rect x="117.8" y="691.9" class="st15" width="3.1" height="1.9"/>
			<rect x="124.7" y="691.9" class="st15" width="3.1" height="1.9"/>
			<rect x="131.7" y="691.9" class="st15" width="3.1" height="1.9"/>
			<rect x="135.2" y="691.9" class="st15" width="3.1" height="1.9"/>
			<rect x="145.7" y="691.9" class="st15" width="3.1" height="1.9"/>
			<rect x="152.6" y="691.9" class="st15" width="3.1" height="1.9"/>
		</g>
		<g>
			
				<rect x="77.5" y="683.2" transform="matrix(6.123234e-17 -1 1 6.123234e-17 -605.0352 763.2157)" class="st15" width="3.1" height="1.9"/>
			
				<rect x="77.5" y="679.7" transform="matrix(6.123234e-17 -1 1 6.123234e-17 -601.5501 759.7307)" class="st15" width="3.1" height="1.9"/>
			
				<rect x="77.5" y="676.2" transform="matrix(6.123234e-17 -1 1 6.123234e-17 -598.0651 756.2456)" class="st15" width="3.1" height="1.9"/>
			
				<rect x="77.5" y="672.7" transform="matrix(6.123234e-17 -1 1 6.123234e-17 -594.58 752.7606)" class="st15" width="3.1" height="1.9"/>
			
				<rect x="77.5" y="669.2" transform="matrix(6.123234e-17 -1 1 6.123234e-17 -591.095 749.2755)" class="st15" width="3.1" height="1.9"/>
			
				<rect x="77.5" y="665.7" transform="matrix(6.123234e-17 -1 1 6.123234e-17 -587.6099 745.7905)" class="st15" width="3.1" height="1.9"/>
			
				<rect x="77.5" y="662.3" transform="matrix(6.123234e-17 -1 1 6.123234e-17 -584.1249 742.3054)" class="st15" width="3.1" height="1.9"/>
			
				<rect x="77.5" y="655.3" transform="matrix(6.123234e-17 -1 1 6.123234e-17 -577.1548 735.3353)" class="st15" width="3.1" height="1.9"/>
			
				<rect x="77.5" y="648.3" transform="matrix(6.123234e-17 -1 1 6.123234e-17 -570.1847 728.3652)" class="st15" width="3.1" height="1.9"/>
			
				<rect x="77.5" y="641.3" transform="matrix(6.123234e-17 -1 1 6.123234e-17 -563.2146 721.3951)" class="st15" width="3.1" height="1.9"/>
			
				<rect x="77.5" y="630.9" transform="matrix(6.123234e-17 -1 1 6.123234e-17 -552.7595 710.94)" class="st15" width="3.1" height="1.9"/>
			
				<rect x="77.5" y="627.4" transform="matrix(6.123234e-17 -1 1 6.123234e-17 -549.2745 707.455)" class="st15" width="3.1" height="1.9"/>
			
				<rect x="77.5" y="620.4" transform="matrix(6.123234e-17 -1 1 6.123234e-17 -542.3044 700.4849)" class="st15" width="3.1" height="1.9"/>
			
				<rect x="77.5" y="658.8" transform="matrix(6.123234e-17 -1 1 6.123234e-17 -580.6398 738.8204)" class="st15" width="3.1" height="1.9"/>
			
				<rect x="77.5" y="651.8" transform="matrix(6.123234e-17 -1 1 6.123234e-17 -573.6697 731.8503)" class="st15" width="3.1" height="1.9"/>
			
				<rect x="77.5" y="644.8" transform="matrix(6.123234e-17 -1 1 6.123234e-17 -566.6996 724.8802)" class="st15" width="3.1" height="1.9"/>
			
				<rect x="77.5" y="637.9" transform="matrix(6.123234e-17 -1 1 6.123234e-17 -559.7296 717.9101)" class="st15" width="3.1" height="1.9"/>
			
				<rect x="77.5" y="634.4" transform="matrix(6.123234e-17 -1 1 6.123234e-17 -556.2446 714.425)" class="st15" width="3.1" height="1.9"/>
			
				<rect x="77.5" y="623.9" transform="matrix(6.123234e-17 -1 1 6.123234e-17 -545.7894 703.9699)" class="st15" width="3.1" height="1.9"/>
			
				<rect x="77.5" y="616.9" transform="matrix(6.123234e-17 -1 1 6.123234e-17 -538.8193 696.9998)" class="st15" width="3.1" height="1.9"/>
		</g>
		<g>
			
				<rect x="161.1" y="683.2" transform="matrix(6.123234e-17 -1 1 6.123234e-17 -521.4453 846.8056)" class="st15" width="3.1" height="1.9"/>
			
				<rect x="161.1" y="679.7" transform="matrix(6.123234e-17 -1 1 6.123234e-17 -517.9602 843.3206)" class="st15" width="3.1" height="1.9"/>
			
				<rect x="161.1" y="676.2" transform="matrix(6.123234e-17 -1 1 6.123234e-17 -514.4752 839.8355)" class="st15" width="3.1" height="1.9"/>
			
				<rect x="161.1" y="672.7" transform="matrix(6.123234e-17 -1 1 6.123234e-17 -510.9901 836.3505)" class="st15" width="3.1" height="1.9"/>
			
				<rect x="161.1" y="669.2" transform="matrix(6.123234e-17 -1 1 6.123234e-17 -507.505 832.8654)" class="st15" width="3.1" height="1.9"/>
			
				<rect x="161.1" y="665.7" transform="matrix(6.123234e-17 -1 1 6.123234e-17 -504.02 829.3804)" class="st15" width="3.1" height="1.9"/>
			
				<rect x="161.1" y="662.3" transform="matrix(6.123234e-17 -1 1 6.123234e-17 -500.535 825.8953)" class="st15" width="3.1" height="1.9"/>
			
				<rect x="161.1" y="655.3" transform="matrix(6.123234e-17 -1 1 6.123234e-17 -493.5649 818.9252)" class="st15" width="3.1" height="1.9"/>
			
				<rect x="161.1" y="648.3" transform="matrix(6.123234e-17 -1 1 6.123234e-17 -486.5948 811.9551)" class="st15" width="3.1" height="1.9"/>
			
				<rect x="161.1" y="641.3" transform="matrix(6.123234e-17 -1 1 6.123234e-17 -479.6247 804.9851)" class="st15" width="3.1" height="1.9"/>
			
				<rect x="161.1" y="630.9" transform="matrix(6.123234e-17 -1 1 6.123234e-17 -469.1696 794.53)" class="st15" width="3.1" height="1.9"/>
			
				<rect x="161.1" y="627.4" transform="matrix(6.123234e-17 -1 1 6.123234e-17 -465.6845 791.0449)" class="st15" width="3.1" height="1.9"/>
			
				<rect x="161.1" y="620.4" transform="matrix(6.123234e-17 -1 1 6.123234e-17 -458.7144 784.0748)" class="st15" width="3.1" height="1.9"/>
			
				<rect x="161.1" y="658.8" transform="matrix(6.123234e-17 -1 1 6.123234e-17 -497.0499 822.4103)" class="st15" width="3.1" height="1.9"/>
			
				<rect x="161.1" y="651.8" transform="matrix(6.123234e-17 -1 1 6.123234e-17 -490.0798 815.4402)" class="st15" width="3.1" height="1.9"/>
			
				<rect x="161.1" y="644.8" transform="matrix(6.123234e-17 -1 1 6.123234e-17 -483.1097 808.4702)" class="st15" width="3.1" height="1.9"/>
			
				<rect x="161.1" y="637.9" transform="matrix(6.123234e-17 -1 1 6.123234e-17 -476.1396 801.5001)" class="st15" width="3.1" height="1.9"/>
			
				<rect x="161.1" y="634.4" transform="matrix(6.123234e-17 -1 1 6.123234e-17 -472.6546 798.015)" class="st15" width="3.1" height="1.9"/>
			
				<rect x="161.1" y="623.9" transform="matrix(6.123234e-17 -1 1 6.123234e-17 -462.1995 787.5599)" class="st15" width="3.1" height="1.9"/>
			
				<rect x="161.1" y="616.9" transform="matrix(6.123234e-17 -1 1 6.123234e-17 -455.2294 780.5898)" class="st15" width="3.1" height="1.9"/>
		</g>
		<circle class="st21" cx="90.2" cy="621.3" r="2.8"/>
	</g>
	<rect x="187.1" y="576" class="st17" width="18.2" height="8.6"/>
	<rect x="189.1" y="584.6" class="st15" width="2.9" height="8.7"/>
	<rect x="200.9" y="584.6" class="st15" width="2.9" height="8.7"/>
	<rect x="194.8" y="567.3" class="st15" width="2.9" height="8.7"/>
	
		<rect x="170.5" y="614.1" transform="matrix(6.123234e-17 -1 1 6.123234e-17 -444.8924 790.0873)" class="st9" width="4.2" height="6.9"/>
	<rect x="189.5" y="645.2" class="st7" width="4.2" height="6.9"/>
	
		<rect x="172.3" y="664.4" transform="matrix(0.7071 -0.7071 0.7071 0.7071 -421.1217 318.9564)" class="st9" width="4.2" height="6.9"/>
	<g>
		<path class="st4" d="M157,726.5c-5.1,0-9.2,4.1-9.2,9.2s4.1,9.2,9.2,9.2s9.2-4.1,9.2-9.2S162.1,726.5,157,726.5z M157,741.5
			c-3.1,0-5.7-2.6-5.7-5.7s2.6-5.7,5.7-5.7c3.1,0,5.7,2.6,5.7,5.7S160.2,741.5,157,741.5z"/>
		<path class="st4" d="M118.7,726.9v17.7h17.7v-17.7H118.7z M127.6,741.5c-3.1,0-5.7-2.6-5.7-5.7s2.6-5.7,5.7-5.7
			c3.1,0,5.7,2.6,5.7,5.7S130.7,741.5,127.6,741.5z"/>
		<path class="st4" d="M186.8,726.5c-5.1,0-9.2,4.1-9.2,9.2s4.1,9.2,9.2,9.2s9.2-4.1,9.2-9.2S191.9,726.5,186.8,726.5z M186.8,741.5
			c-3.1,0-5.7-2.6-5.7-5.7s2.6-5.7,5.7-5.7c3.1,0,5.7,2.6,5.7,5.7S190,741.5,186.8,741.5z"/>
	</g>
	<path class="st4" d="M17.5,705.2H0.3v3.4c2.3,0.9,3.9,3.1,3.9,5.7s-1.6,4.8-3.9,5.7v3.4h17.2c5,0,9-4,9-9S22.4,705.2,17.5,705.2z
		 M15.9,720.3c-3.4,0-6.1-2.7-6.1-6.1s2.7-6.1,6.1-6.1s6.1,2.7,6.1,6.1S19.2,720.3,15.9,720.3z"/>
	<path class="st4" d="M17.5,675.8H0.3v3.4c2.3,0.9,3.9,3.1,3.9,5.7s-1.6,4.8-3.9,5.7v3.4h17.2c5,0,9-4,9-9v0
		C26.5,679.8,22.4,675.8,17.5,675.8z M15.9,690.9c-3.4,0-6.1-2.7-6.1-6.1s2.7-6.1,6.1-6.1s6.1,2.7,6.1,6.1S19.2,690.9,15.9,690.9z"
		/>
	<path class="st4" d="M17.5,646.4H0.3v3.4c2.3,0.9,3.9,3.1,3.9,5.7s-1.6,4.8-3.9,5.7v3.4h17.2c5,0,9-4,9-9v0
		C26.5,650.4,22.4,646.4,17.5,646.4z M15.9,661.5c-3.4,0-6.1-2.7-6.1-6.1s2.7-6.1,6.1-6.1s6.1,2.7,6.1,6.1S19.2,661.5,15.9,661.5z"
		/>
	<path class="st4" d="M17.5,617H0.3v3.4c2.3,0.9,3.9,3.1,3.9,5.7s-1.6,4.8-3.9,5.7v3.4h17.2c5,0,9-4,9-9S22.4,617,17.5,617z
		 M15.9,632.1c-3.4,0-6.1-2.7-6.1-6.1s2.7-6.1,6.1-6.1s6.1,2.7,6.1,6.1S19.2,632.1,15.9,632.1z"/>
	<path class="st4" d="M17.5,558.2H0.3v3.4c2.3,0.9,3.9,3.1,3.9,5.7s-1.6,4.8-3.9,5.7v3.4h17.2c5,0,9-4,9-9S22.4,558.2,17.5,558.2z
		 M15.9,573.3c-3.4,0-6.1-2.7-6.1-6.1s2.7-6.1,6.1-6.1s6.1,2.7,6.1,6.1S19.2,573.3,15.9,573.3z"/>
	<path class="st4" d="M17.5,528.8H0.3v3.4c2.3,0.9,3.9,3.1,3.9,5.7s-1.6,4.8-3.9,5.7v3.4h17.2c5,0,9-4,9-9S22.4,528.8,17.5,528.8z
		 M15.9,543.9c-3.4,0-6.1-2.7-6.1-6.1s2.7-6.1,6.1-6.1s6.1,2.7,6.1,6.1S19.2,543.9,15.9,543.9z"/>
	<path class="st4" d="M17.5,499.4H0.3v3.4c2.3,0.9,3.9,3.1,3.9,5.7s-1.6,4.8-3.9,5.7v3.4h17.2c5,0,9-4,9-9S22.4,499.4,17.5,499.4z
		 M15.9,514.5c-3.4,0-6.1-2.7-6.1-6.1s2.7-6.1,6.1-6.1s6.1,2.7,6.1,6.1S19.2,514.5,15.9,514.5z"/>
	<path class="st4" d="M17.5,470H0.3v3.4c2.3,0.9,3.9,3.1,3.9,5.7s-1.6,4.8-3.9,5.7v3.4h17.2c5,0,9-4,9-9S22.4,470,17.5,470z
		 M15.9,485.1c-3.4,0-6.1-2.7-6.1-6.1s2.7-6.1,6.1-6.1s6.1,2.7,6.1,6.1S19.2,485.1,15.9,485.1z"/>
	<path class="st4" d="M17.5,411.2H0.3v3.4c2.3,0.9,3.9,3.1,3.9,5.7s-1.6,4.8-3.9,5.7v3.4h17.2c5,0,9-4,9-9v0
		C26.5,415.3,22.4,411.2,17.5,411.2z M15.9,426.3c-3.4,0-6.1-2.7-6.1-6.1s2.7-6.1,6.1-6.1s6.1,2.7,6.1,6.1S19.2,426.3,15.9,426.3z"
		/>
	<path class="st4" d="M17.5,381.8H0.3v3.4c2.3,0.9,3.9,3.1,3.9,5.7s-1.6,4.8-3.9,5.7v3.4h17.2c5,0,9-4,9-9S22.4,381.8,17.5,381.8z
		 M15.9,397c-3.4,0-6.1-2.7-6.1-6.1s2.7-6.1,6.1-6.1s6.1,2.7,6.1,6.1S19.2,397,15.9,397z"/>
	<path class="st4" d="M17.5,852.2H0.3v3.4c2.3,0.9,3.9,3.1,3.9,5.7s-1.6,4.8-3.9,5.7v3.4h17.2c5,0,9-4,9-9S22.4,852.2,17.5,852.2z
		 M15.9,867.3c-3.4,0-6.1-2.7-6.1-6.1s2.7-6.1,6.1-6.1s6.1,2.7,6.1,6.1S19.2,867.3,15.9,867.3z"/>
	<path class="st4" d="M239.5,949.4c0-2.6,1.6-4.8,3.9-5.7v-3.4h-17.2c-5,0-9,4-9,9s4,9,9,9h17.2v-3.4
		C241.2,954.2,239.5,952,239.5,949.4z M227.8,955.5c-3.4,0-6.1-2.7-6.1-6.1s2.7-6.1,6.1-6.1s6.1,2.7,6.1,6.1
		S231.2,955.5,227.8,955.5z"/>
	<path class="st4" d="M239.5,861.2c0-2.6,1.6-4.8,3.9-5.7v-3.4h-17.2c-5,0-9,4-9,9s4,9,9,9h17.2v-3.4
		C241.2,866,239.5,863.8,239.5,861.2z M227.8,867.3c-3.4,0-6.1-2.7-6.1-6.1s2.7-6.1,6.1-6.1s6.1,2.7,6.1,6.1
		S231.2,867.3,227.8,867.3z"/>
	<path class="st4" d="M239.5,626c0-2.6,1.6-4.8,3.9-5.7V617h-17.2c-5,0-9,4-9,9s4,9,9,9h17.2v-3.4
		C241.2,630.8,239.5,628.6,239.5,626z M227.8,632.1c-3.4,0-6.1-2.7-6.1-6.1s2.7-6.1,6.1-6.1s6.1,2.7,6.1,6.1
		S231.2,632.1,227.8,632.1z"/>
	
		<rect x="90" y="720.1" transform="matrix(6.123234e-17 -1 1 6.123234e-17 -628.676 815.2594)" class="st12" width="6.7" height="3.7"/>
	<g>
		<path class="st22" d="M82.2,739.4H50.4c-1.2,0-2.2-1-2.2-2.2v-23.7c0-1.2,1-2.2,2.2-2.2h31.8c1.2,0,2.2,1,2.2,2.2v23.7
			C84.4,738.4,83.4,739.4,82.2,739.4z"/>
		<path class="st23" d="M79.9,737H52.6c-0.8,0-1.4-0.6-1.4-1.4v-20.4c0-0.8,0.6-1.4,1.4-1.4h27.3c0.8,0,1.4,0.6,1.4,1.4v20.4
			C81.3,736.4,80.7,737,79.9,737z"/>
	</g>
	
		<rect x="90" y="740" transform="matrix(6.123234e-17 -1 1 6.123234e-17 -648.6104 835.1937)" class="st12" width="6.7" height="3.7"/>
	<rect x="100.1" y="724.3" class="st7" width="4.2" height="6.9"/>
	<g>
		<path class="st16" d="M42.3,544.4v-3.6c0-2.2,0.6-3.9,2.6-3.9c0.9,0,1.9,0.5,2.2,1.4h0.1c0.3-1.1,1.1-1.9,2.4-1.9
			c2.1,0,3.1,1.8,3.1,4.1v3.9H42.3z M46.4,540.8c0-1.1-0.5-1.5-1.2-1.5c-0.8,0-1.1,0.5-1.1,1.5v1.1h2.2V540.8z M50.8,540.6
			c0-1.2-0.4-1.8-1.3-1.8s-1.2,0.6-1.2,1.8v1.2h2.5V540.6z"/>
		<path class="st16" d="M47.4,535.2c-3.4,0-5.4-1.9-5.4-4.8s2-4.8,5.4-4.8c3.4,0,5.4,1.9,5.4,4.8S50.8,535.2,47.4,535.2z
			 M47.4,528.2c-2,0-3.2,0.8-3.2,2.2c0,1.4,1.2,2.2,3.2,2.2c2,0,3.3-0.9,3.3-2.2C50.7,529,49.4,528.2,47.4,528.2z"/>
		<path class="st16" d="M47.4,524.2c-3.4,0-5.4-1.9-5.4-4.8s2-4.8,5.4-4.8c3.4,0,5.4,1.9,5.4,4.8S50.8,524.2,47.4,524.2z
			 M47.4,517.2c-2,0-3.2,0.8-3.2,2.2c0,1.4,1.2,2.2,3.2,2.2c2,0,3.3-0.9,3.3-2.2C50.7,518,49.4,517.2,47.4,517.2z"/>
		<path class="st16" d="M44.3,511.1v2.8h-2.1v-8.1h2.1v2.8h8.3v2.5H44.3z"/>
		<path class="st16" d="M51.3,505.2l-1.6-1.3c0.6-0.7,1-1.7,1-2.6c0-0.9-0.4-1.4-0.9-1.4c-0.6,0-0.8,0.6-1.2,1.5l-0.6,1.3
			c-0.4,1.1-1.3,2.1-2.8,2.1c-1.7,0-3.2-1.6-3.2-3.8c0-1.2,0.5-2.5,1.3-3.4L45,499c-0.5,0.7-0.8,1.4-0.8,2.1c0,0.8,0.3,1.3,0.8,1.3
			c0.6,0,0.8-0.7,1.2-1.6l0.5-1.3c0.5-1.3,1.4-2.1,2.8-2.1c1.7,0,3.3,1.5,3.3,4C52.9,502.8,52.4,504.2,51.3,505.2z"/>
		<path class="st16" d="M42.3,495.7v-6.6h2.1v4.1h2v-3.5h2.1v3.5h2.2v-4.3h2.1v6.8H42.3z"/>
		<path class="st16" d="M42.3,486.9v-2.5h8.3v-4h2.1v6.5H42.3z"/>
	</g>
	<g>
		<path class="st16" d="M141.4,701.6h3c3.2,0,5.3,1.6,5.3,5.2c0,3.6-2.1,5.2-5.1,5.2h-3.1V701.6z M144.3,710c1.7,0,2.9-0.8,2.9-3.2
			c0-2.5-1.2-3.2-2.9-3.2h-0.4v6.4H144.3z"/>
		<path class="st16" d="M151.6,701.6h6.6v2.1h-4.1v2h3.5v2.1h-3.5v2.2h4.3v2.1h-6.8V701.6z"/>
		<path class="st16" d="M160.4,701.6h3.6c2.2,0,3.9,0.6,3.9,2.6c0,0.9-0.5,1.9-1.4,2.2v0.1c1.1,0.3,1.9,1.1,1.9,2.4
			c0,2.1-1.8,3.1-4.1,3.1h-3.9V701.6z M164,705.7c1.1,0,1.5-0.5,1.5-1.2c0-0.8-0.5-1.1-1.5-1.1h-1.1v2.2H164z M164.2,710.1
			c1.2,0,1.8-0.4,1.8-1.3c0-0.9-0.6-1.2-1.8-1.2h-1.2v2.5H164.2z"/>
		<path class="st16" d="M170.1,707.1v-5.5h2.5v5.8c0,2,0.6,2.7,1.7,2.7c1.2,0,1.8-0.7,1.8-2.7v-5.8h2.4v5.5c0,3.5-1.4,5.1-4.2,5.1
			S170.1,710.6,170.1,707.1z"/>
		<path class="st16" d="M180.3,706.9c0-3.5,2.3-5.5,5.1-5.5c1.5,0,2.6,0.6,3.3,1.4l-1.3,1.5c-0.5-0.5-1.1-0.7-1.9-0.7
			c-1.5,0-2.7,1.2-2.7,3.2c0,2.1,0.9,3.3,2.9,3.3c0.4,0,0.8-0.1,1-0.3v-1.7h-1.7v-2h3.9v4.9c-0.7,0.7-2,1.3-3.5,1.3
			C182.6,712.2,180.3,710.4,180.3,706.9z"/>
	</g>
	<rect x="114.2" y="723" class="st24" width="86.4" height="25.6"/>
	<g>
		<path class="st16" d="M40.1,437.3h2.5v8.3h4v2.1h-6.5V437.3z"/>
		<path class="st16" d="M48.4,437.3H55v2.1h-4.1v2h3.5v2.1h-3.5v2.2h4.3v2.1h-6.8V437.3z"/>
		<path class="st16" d="M57.2,437.3h3c3.2,0,5.3,1.6,5.3,5.2c0,3.6-2.1,5.2-5.1,5.2h-3.1V437.3z M60.1,445.7c1.7,0,2.9-0.8,2.9-3.2
			c0-2.5-1.2-3.2-2.9-3.2h-0.4v6.4H60.1z"/>
	</g>
	<g>
		<rect x="143.7" y="586.8" class="st8" width="5.4" height="10.6"/>
		<rect x="143.7" y="589.1" class="st9" width="5.4" height="6"/>
	</g>
	<g>
		<rect x="154.3" y="586.8" class="st8" width="5.4" height="10.6"/>
		<rect x="154.3" y="589.1" class="st9" width="5.4" height="6"/>
	</g>
	<rect x="127.1" y="588.1" class="st7" width="4.2" height="6.9"/>
	
		<rect x="68.6" y="593.2" transform="matrix(6.123234e-17 -1 1 6.123234e-17 -525.9008 667.3726)" class="st7" width="4.2" height="6.9"/>
	<rect x="120.5" y="588.1" class="st9" width="4.2" height="6.9"/>
	<rect x="110.4" y="588.1" class="st9" width="4.2" height="6.9"/>
	<path class="st4" d="M239.5,567.2c0-2.6,1.6-4.8,3.9-5.7v-3.4h-17.2c-5,0-9,4-9,9s4,9,9,9h17.2v-3.4
		C241.2,572,239.5,569.8,239.5,567.2z M227.8,573.3c-3.4,0-6.1-2.7-6.1-6.1s2.7-6.1,6.1-6.1s6.1,2.7,6.1,6.1
		S231.2,573.3,227.8,573.3z"/>
	<g>
		
			<rect x="169.4" y="559.3" transform="matrix(-1.836970e-16 1 -1 -1.836970e-16 737.4887 386.7254)" class="st8" width="11.9" height="5.6"/>
		
			<rect x="172.1" y="559.3" transform="matrix(-1.836970e-16 1 -1 -1.836970e-16 737.4887 386.7254)" class="st10" width="6.6" height="5.6"/>
	</g>
</g>
<g id="layer1">
	<rect id="rect815" x="280.1" y="110.8" class="st25" width="190.7" height="256.3"/>
	<rect id="rect821" x="325.2" y="325.4" class="st16" width="99.2" height="34.2"/>
	<path id="rect825" class="st26" d="M331.7,327.4h19.9c3.5,0,6.3,2.8,6.3,6.3v17.5c0,3.5-2.8,6.3-6.3,6.3h-19.9
		c-3.5,0-6.3-2.8-6.3-6.3v-17.5C325.4,330.2,328.2,327.4,331.7,327.4z"/>
	<path id="rect872" class="st26" d="M398,327.4h19.9c3.5,0,6.3,2.8,6.3,6.3v17.5c0,3.5-2.8,6.3-6.3,6.3H398c-3.5,0-6.3-2.8-6.3-6.3
		v-17.5C391.7,330.2,394.5,327.4,398,327.4z"/>
	<path id="rect874" class="st26" d="M364,327.4h21.5c3,0,5.5,2.5,5.5,5.5v19.1c0,3-2.5,5.5-5.5,5.5H364c-3,0-5.5-2.5-5.5-5.5v-19.1
		C358.6,329.8,361,327.4,364,327.4z"/>
	<rect id="rect947" x="339.8" y="343.7" class="st27" width="3.6" height="62.6"/>
	<rect id="rect949" x="373.1" y="343.7" class="st27" width="3.6" height="62.6"/>
	<rect id="rect951" x="406.1" y="343.7" class="st27" width="3.6" height="62.6"/>
	<ellipse id="path1456" class="st28" cx="306.8" cy="164.3" rx="17.4" ry="17"/>
	<ellipse id="ellipse1458" class="st28" cx="442.6" cy="164.3" rx="17.4" ry="17"/>
	<ellipse id="path1460" class="st29" cx="306.8" cy="164.2" rx="15.7" ry="15.4"/>
	<ellipse id="ellipse1464" class="st29" cx="442.5" cy="164.2" rx="15.7" ry="15.4"/>
	<path id="path31-1" class="st16" d="M334.3,130.9c1.2,0,1.3,0,1.5-0.2c0.1-0.1,0.3-0.2,0.4-0.4c0.1-0.2,0.1-0.4,0.2-2.8l0-2.6
		l2.5,0l2.5,0v3.2c0,3.5,0,3.8-0.4,4.8c-0.4,1.1-1.4,2-2.6,2.1c-0.8,0.1-1.5,0.1-2.3,0.1c-1,0-2.1,0-2.4-0.1L333,135l0-2.1l0-2.1
		L334.3,130.9L334.3,130.9z M358.3,138c21.5,0,26.8,0,25.9,0.1l-0.1,0l0.1,0.1c0.1,0,0.1,0.1-0.1,0.1c-0.2,0-0.1,0,0.2,0.1l0.4,0
		l-0.4,0c-0.2,0-0.4,0-0.3,0.1c0.1,0,0.1,0.1,0.1,0.6c0,0.6,0,0.6,0.2,0.6c0.1,0,0.1,0-0.1,0c-0.2,0-0.3,0-0.3,0.1
		c0,0-8.5,0.1-25.4,0.1H333V138L358.3,138z M338.9,118.4h2.5v4.1h-5.1v-4.1H338.9z M344,126c0.2-1.1,0.5-2.1,1-3.1
		c0.1-0.2,0.2-0.4,0.4-0.6c0.1-0.1,0.2-0.3,0.3-0.4c0.3-0.4,0.6-0.9,1-1.2c0,0,0.1-0.1,0.1-0.1c0.3-0.4,0.7-0.7,1.1-1
		c0.6-0.4,1.2-0.7,1.9-0.9c1-0.4,2-0.5,3.1-0.5c0.6,0,1.2,0.1,1.8,0.2c0.4,0.1,0.8,0.3,1,0.3c0.1,0.1,0.3,0.1,0.4,0.1
		c0.2,0.1,0.4,0.2,0.6,0.3c1.5,1,2.7,2.4,3.5,4c1,2,1.1,4.3,0.4,6.4c-0.2,0.7-0.5,1.3-0.9,1.9c-0.4,0.7-0.9,1.3-1.5,1.8
		c-1,1-2.2,1.8-3.6,2.1c-1.1,0.2-2.1,0.3-3.2,0.2c-1.2-0.2-2.4-0.7-3.5-1.5c-0.4-0.3-0.8-0.6-1.1-1c-0.1-0.1-0.2-0.3-0.3-0.4
		c-1.1-1.2-1.8-2.7-2.2-4.3C344.1,127.7,344,126.9,344,126L344,126z M348.9,128.2c0.2,1,0.8,1.8,1.5,2.5c0.8,0.7,2,1,3,0.7
		c1.3-0.6,2.3-1.7,2.7-3.2c0.2-0.9,0.2-1.9,0-2.8c-0.3-1.1-0.9-2-1.8-2.6c-0.3-0.2-0.6-0.4-1-0.4c-0.8-0.2-1.6-0.1-2.4,0.2
		c-0.7,0.4-1.3,1.1-1.6,1.8C348.7,125.5,348.6,126.9,348.9,128.2L348.9,128.2z M363.2,118.4c0,0,1.2,0,2.5,0l2.5,0l0,2.3
		c0,2.1,0,2.3,0.2,2.7c0.4,1,1.5,1.5,2.5,1.2c0.5-0.2,0.9-0.5,1.1-1l0.2-0.4l0-2.4l0-2.4h5.1l0,2.7c0.1,1.1,0,2.1-0.2,3.2
		c-0.2,1-0.7,1.9-1.3,2.6c-0.1,0.1-0.2,0.2-0.3,0.4c-0.4,0.4-0.8,0.8-1.2,1.1c-0.5,0.3-1,0.6-1.5,0.8c-0.1,0-0.5,0.1-0.8,0.2
		c-0.6,0.2-1.2,0.2-1.8,0.2c-0.6,0.1-1.3,0-1.9-0.2c-0.7-0.2-1.4-0.5-2-0.9c-0.8-0.5-1.4-1.2-1.9-1.9c-0.7-0.9-1.1-2.1-1.2-3.2
		C363,121.7,363.1,120.1,363.2,118.4L363.2,118.4z M370.3,130.9h4.2v4.3h-8.3v-4.3H370.3z M377.4,115.2c0,0,0.1-0.1,0.1-0.3
		c0-0.3,0-0.3,0.3-0.3c0.2,0,7.2,0,15.6,0l15.3,0l0,0.9l0,0.9h-15.6c-8.6,0-15.6,0-15.7,0c-0.1,0-0.1-0.2-0.1-0.6
		C377.3,115.4,377.3,115.2,377.4,115.2L377.4,115.2z M384.4,125.4h5.3v4.2h-10.6v-4.2H384.4z M393.8,118.4h2.5v4.1h-5.1v-4.1H393.8z
		 M393.8,124.7h2.5v10.7h-5.1v-10.7L393.8,124.7z M404,118.4h5.3v4.1h-10.6v-4.1H404z M399.5,125c0,0,1.2,0,2.5,0l2.4,0l0,2.5
		c0,3.4-0.1,3.3,2.5,3.3l1.6,0v4.3l-0.6,0.1c-1.5,0.1-3.1,0.1-4.6,0c-1.1-0.1-2.1-0.6-2.8-1.3c-0.6-0.8-1-1.7-1-2.7
		C399.4,130.4,399.4,125.1,399.5,125L399.5,125z M412.3,116.4c0.1-0.4,0.3-0.8,0.7-1.1c1-1,2.6-1.1,3.7-0.3c0.4,0.2,0.7,0.6,0.9,1
		c0.2,0.3,0.2,0.7,0.2,1.1c0,0.4,0,0.8-0.2,1.1c-0.5,0.9-1.3,1.5-2.3,1.6c-0.9,0.1-1.7-0.2-2.3-0.9
		C412.3,118.3,412,117.3,412.3,116.4L412.3,116.4z M412.8,118.1c0.4,0.6,1,1.1,1.7,1.3c0.8,0.2,1.6,0,2.1-0.6
		c0.2-0.2,0.4-0.4,0.5-0.7c0.2-0.3,0.3-0.7,0.2-1c0-0.4,0-0.7-0.2-1c-0.1-0.3-0.4-0.6-0.7-0.8c-0.2-0.2-0.5-0.3-0.8-0.4
		c-1.2-0.4-2.5,0.2-3,1.4C412.5,116.9,412.5,117.5,412.8,118.1L412.8,118.1z M414.6,115.5c0.4,0,0.7,0,1.1,0.1
		c0.4,0.3,0.6,0.9,0.3,1.3c-0.1,0.1-0.2,0.2-0.4,0.3l-0.2,0.1l0.2,0.3c0.2,0.2,0.3,0.4,0.4,0.6c0.1,0.1,0.2,0.3,0.3,0.4
		c0.1,0.1,0,0.2-0.2,0.2l-0.3,0l-0.4-0.6c-0.4-0.7-0.5-0.8-1-0.8h-0.3v1.4l-0.2,0l-0.2,0l0-1.6l0-1.6L414.6,115.5z M414.8,116.9
		c0.5,0,0.6,0,0.8-0.1c0.4-0.3,0.2-0.8-0.4-0.8c-0.3,0-0.7,0-1,0c0,0.2,0,0.3,0,0.5v0.5L414.8,116.9z"/>
	<rect id="rect79" x="301.3" y="288" class="st16" width="148.2" height="33.9"/>
	<rect id="rect81" x="303.4" y="290.1" class="st25" width="144" height="29.6"/>
	<circle id="path83" class="st30" cx="318.2" cy="305" r="14.8"/>
	<circle id="circle85" class="st30" cx="432.5" cy="305" r="14.8"/>
	<circle id="circle87" class="st30" cx="356.3" cy="305" r="14.8"/>
	<circle id="circle89" class="st30" cx="394.4" cy="305" r="14.8"/>
	<circle id="path91" class="st16" cx="318.2" cy="305" r="12.7"/>
	<g id="text88">
		<g class="st31">
			<path class="st16" d="M465.9,240.3c0.1,0,0.1,0,0.2,0c0.1,0,0.1,0.1,0.1,0.2c0,0.1,0.1,0.2,0.1,0.4c0,0.1,0,0.3,0,0.6
				c0,0.3,0,0.6,0,0.7c0,0.2-0.1,0.3-0.1,0.4c-0.1,0.1-0.1,0.2-0.2,0.2l-8.5,6.2h8.5c0.1,0,0.1,0,0.2,0.1s0.1,0.1,0.1,0.2
				c0,0.1,0.1,0.2,0.1,0.3c0,0.1,0,0.3,0,0.5c0,0.2,0,0.4,0,0.5s0,0.3-0.1,0.4c0,0.1-0.1,0.1-0.1,0.2c-0.1,0-0.1,0.1-0.2,0.1h-16.3
				c-0.1,0-0.1,0-0.2-0.1c-0.1,0-0.1-0.1-0.1-0.2c0-0.1-0.1-0.2-0.1-0.4c0-0.1,0-0.3,0-0.5c0-0.2,0-0.4,0-0.5c0-0.1,0-0.3,0.1-0.3
				c0-0.1,0.1-0.1,0.1-0.2s0.1-0.1,0.2-0.1h7.5l-7.5-6c-0.1-0.1-0.1-0.1-0.2-0.2c-0.1-0.1-0.1-0.2-0.1-0.3c0-0.1-0.1-0.2-0.1-0.4
				s0-0.3,0-0.6c0-0.2,0-0.4,0-0.6c0-0.1,0-0.3,0.1-0.3c0-0.1,0.1-0.1,0.1-0.2c0.1,0,0.1,0,0.2,0c0.1,0,0.2,0,0.3,0.1
				c0.1,0.1,0.3,0.2,0.5,0.3l6.7,5.6l8.1-6.1c0.2-0.1,0.4-0.2,0.5-0.3C465.8,240.3,465.9,240.3,465.9,240.3z"/>
		</g>
		<g class="st31">
			<path class="st16" d="M459.7,232h6.3c0.1,0,0.1,0,0.2,0.1c0.1,0,0.1,0.1,0.1,0.2c0,0.1,0.1,0.2,0.1,0.4s0,0.3,0,0.5
				c0,0.2,0,0.4,0,0.5s0,0.3-0.1,0.4c0,0.1-0.1,0.2-0.1,0.2c-0.1,0-0.1,0.1-0.2,0.1h-6.3l-9.6,4.8c-0.2,0.1-0.4,0.2-0.5,0.2
				c-0.1,0-0.2,0-0.3-0.1c-0.1-0.1-0.1-0.2-0.1-0.4c0-0.2,0-0.4,0-0.7c0-0.3,0-0.5,0-0.6c0-0.2,0-0.3,0.1-0.4c0-0.1,0.1-0.2,0.1-0.2
				c0.1,0,0.1-0.1,0.2-0.1l4.9-2.3c0.5-0.2,1-0.4,1.5-0.7c0.5-0.2,1-0.4,1.5-0.7v0c-0.5-0.2-1-0.4-1.5-0.6c-0.5-0.2-1-0.4-1.5-0.6
				l-4.9-2.4c-0.1,0-0.2-0.1-0.2-0.1c-0.1,0-0.1-0.1-0.1-0.2c0-0.1-0.1-0.2-0.1-0.3s0-0.3,0-0.6c0-0.3,0-0.6,0-0.7
				c0-0.2,0.1-0.3,0.1-0.4c0.1-0.1,0.1-0.1,0.3-0.1c0.1,0,0.3,0.1,0.5,0.2L459.7,232z"/>
		</g>
		<g class="st31">
			<path class="st16" d="M459.6,220.7c0.3,0,0.6,0,0.7,0.1c0.1,0.1,0.2,0.2,0.2,0.3v5.5c0,0.2-0.1,0.3-0.2,0.4s-0.4,0.1-0.7,0.1
				c-0.3,0-0.6,0-0.7-0.1c-0.1-0.1-0.2-0.2-0.2-0.4v-5.5c0-0.1,0-0.1,0-0.2c0-0.1,0.1-0.1,0.2-0.1s0.2-0.1,0.3-0.1
				C459.3,220.8,459.5,220.7,459.6,220.7z"/>
			<path class="st16" d="M457.7,207.1c1.3,0,2.5,0.1,3.6,0.3c1.1,0.2,2,0.5,2.8,1c0.8,0.5,1.4,1.1,1.8,1.9c0.4,0.8,0.6,1.7,0.6,2.8
				c0,1.1-0.2,2-0.6,2.7c-0.4,0.7-0.9,1.3-1.7,1.8s-1.6,0.8-2.7,1c-1.1,0.2-2.3,0.3-3.7,0.3c-1.3,0-2.5-0.1-3.6-0.3s-2-0.6-2.8-1
				s-1.4-1.1-1.8-1.9c-0.4-0.8-0.6-1.7-0.6-2.8c0-1.1,0.2-2,0.6-2.7s0.9-1.3,1.7-1.8c0.7-0.4,1.6-0.8,2.7-1
				C455.1,207.2,456.3,207.1,457.7,207.1z M457.9,209.5c-0.8,0-1.6,0-2.3,0.1c-0.7,0.1-1.3,0.2-1.8,0.3c-0.5,0.1-1,0.3-1.3,0.5
				c-0.4,0.2-0.7,0.4-0.9,0.7c-0.2,0.3-0.4,0.6-0.5,0.9c-0.1,0.3-0.2,0.7-0.2,1.1c0,0.7,0.2,1.3,0.5,1.8c0.4,0.5,0.8,0.8,1.4,1.1
				c0.6,0.3,1.3,0.4,2.2,0.5c0.8,0.1,1.7,0.1,2.7,0.1c1.3,0,2.3-0.1,3.2-0.2c0.9-0.1,1.6-0.3,2.2-0.6c0.6-0.3,1-0.6,1.2-1.1
				s0.4-1,0.4-1.6c0-0.5-0.1-0.9-0.2-1.3c-0.2-0.4-0.4-0.7-0.7-1c-0.3-0.3-0.6-0.5-1.1-0.7c-0.4-0.2-0.9-0.3-1.4-0.4
				c-0.5-0.1-1-0.2-1.6-0.2S458.5,209.5,457.9,209.5z"/>
			<path class="st16" d="M461.4,194.2c0.8,0,1.5,0.1,2.1,0.4s1.2,0.7,1.6,1.2c0.4,0.5,0.8,1.1,1,1.9c0.2,0.7,0.4,1.6,0.4,2.5
				c0,0.6,0,1.1-0.1,1.6s-0.2,0.9-0.3,1.3s-0.3,0.7-0.4,1c-0.1,0.3-0.2,0.4-0.3,0.5c-0.1,0.1-0.1,0.1-0.2,0.2
				c-0.1,0-0.1,0.1-0.2,0.1c-0.1,0-0.2,0-0.3,0.1c-0.1,0-0.3,0-0.5,0c-0.3,0-0.5,0-0.7-0.1c-0.1-0.1-0.2-0.2-0.2-0.3
				c0-0.1,0.1-0.2,0.2-0.5c0.1-0.2,0.3-0.5,0.5-0.9c0.2-0.4,0.3-0.8,0.5-1.3c0.1-0.5,0.2-1.1,0.2-1.7c0-0.6-0.1-1.1-0.2-1.6
				c-0.1-0.4-0.4-0.8-0.6-1.1s-0.6-0.5-1-0.7c-0.4-0.2-0.8-0.2-1.2-0.2c-0.5,0-0.9,0.1-1.3,0.3c-0.4,0.2-0.7,0.5-1,0.9
				s-0.5,0.8-0.6,1.4s-0.2,1.2-0.2,1.9v1.7c0,0.1,0,0.1,0,0.2c0,0.1-0.1,0.1-0.2,0.2s-0.2,0.1-0.3,0.1c-0.1,0-0.3,0-0.4,0
				c-0.2,0-0.3,0-0.4,0s-0.2-0.1-0.3-0.1s-0.1-0.1-0.1-0.2c0-0.1,0-0.1,0-0.2v-1.5c0-0.6-0.1-1.1-0.2-1.6c-0.1-0.5-0.4-0.8-0.6-1.2
				s-0.6-0.6-1-0.7c-0.4-0.2-0.8-0.3-1.3-0.3c-0.4,0-0.7,0.1-1,0.2c-0.3,0.1-0.6,0.3-0.8,0.5s-0.4,0.5-0.6,0.9
				c-0.1,0.4-0.2,0.8-0.2,1.2c0,0.5,0.1,1,0.2,1.4c0.2,0.4,0.3,0.8,0.5,1.1c0.2,0.3,0.3,0.6,0.5,0.8c0.2,0.2,0.2,0.4,0.2,0.5
				c0,0.1,0,0.1,0,0.2c0,0-0.1,0.1-0.1,0.1c-0.1,0-0.2,0.1-0.3,0.1c-0.1,0-0.3,0-0.5,0c-0.1,0-0.2,0-0.3,0s-0.2,0-0.3-0.1
				s-0.1-0.1-0.2-0.1s-0.1-0.1-0.2-0.2s-0.2-0.3-0.4-0.5c-0.2-0.3-0.3-0.6-0.5-0.9s-0.3-0.8-0.4-1.3c-0.1-0.5-0.2-1-0.2-1.6
				c0-0.8,0.1-1.5,0.3-2.1c0.2-0.6,0.5-1.1,0.9-1.5c0.4-0.4,0.8-0.7,1.3-0.9c0.5-0.2,1.1-0.3,1.7-0.3c0.5,0,1,0.1,1.5,0.2
				c0.5,0.1,0.9,0.3,1.2,0.6s0.7,0.6,0.9,1c0.2,0.4,0.4,0.8,0.5,1.4h0c0.1-0.6,0.2-1.1,0.4-1.6c0.2-0.5,0.5-0.9,0.9-1.3
				c0.4-0.4,0.8-0.6,1.2-0.8C460.4,194.3,460.9,194.2,461.4,194.2z"/>
			<path class="st16" d="M461.4,179.7c0.3,0,0.5,0,0.7,0.1s0.2,0.2,0.2,0.4v1.9h3.6c0.1,0,0.1,0,0.2,0.1c0,0,0.1,0.1,0.1,0.2
				c0,0.1,0.1,0.2,0.1,0.4c0,0.1,0,0.3,0,0.6c0,0.2,0,0.4,0,0.5c0,0.1,0,0.3-0.1,0.3s-0.1,0.1-0.1,0.2c0,0-0.1,0-0.2,0h-3.6v7
				c0,0.1,0,0.2,0,0.3s-0.1,0.1-0.1,0.2c-0.1,0.1-0.2,0.1-0.3,0.1c-0.1,0-0.3,0-0.5,0c-0.2,0-0.3,0-0.4,0c-0.1,0-0.3,0-0.4-0.1
				c-0.1,0-0.2-0.1-0.3-0.1c-0.1,0-0.2-0.1-0.3-0.2l-10.3-6.1c-0.1,0-0.1-0.1-0.2-0.2c-0.1-0.1-0.1-0.2-0.1-0.3s-0.1-0.3-0.1-0.5
				c0-0.2,0-0.4,0-0.7c0-0.3,0-0.6,0-0.8c0-0.2,0-0.4,0.1-0.5s0.1-0.2,0.1-0.3c0.1-0.1,0.1-0.1,0.2-0.1h10.8v-1.9
				c0-0.1,0.1-0.3,0.2-0.4C460.9,179.8,461.1,179.7,461.4,179.7z M451.2,184.4L451.2,184.4l9.3,5.5v-5.5H451.2z"/>
		</g>
	</g>
	<g id="text92">
		<g class="st31">
			<path class="st16" d="M319.7,284.3c0,0.1-0.1,0.2-0.1,0.2c-0.1,0.1-0.1,0.1-0.3,0.1c-0.1,0-0.2,0.1-0.4,0.1c-0.2,0-0.4,0-0.6,0
				c-0.2,0-0.4,0-0.5,0c-0.1,0-0.3,0-0.4,0c-0.1,0-0.2,0-0.3-0.1s-0.1-0.1-0.2-0.1c-0.1,0-0.1-0.1-0.1-0.1c0,0-0.1-0.1-0.1-0.2
				l-5.6-15.8c-0.1-0.2-0.1-0.3-0.1-0.5c0-0.1,0-0.2,0.1-0.3c0.1-0.1,0.2-0.1,0.4-0.1c0.2,0,0.4,0,0.7,0c0.2,0,0.4,0,0.6,0
				s0.3,0,0.3,0.1c0.1,0,0.1,0.1,0.2,0.1c0,0.1,0.1,0.1,0.1,0.2l4.9,14.3h0l4.7-14.3c0-0.1,0.1-0.2,0.1-0.2c0-0.1,0.1-0.1,0.2-0.1
				c0.1,0,0.2-0.1,0.4-0.1s0.4,0,0.6,0c0.3,0,0.5,0,0.6,0s0.3,0.1,0.3,0.1c0.1,0.1,0.1,0.2,0.1,0.3c0,0.1-0.1,0.3-0.1,0.5
				L319.7,284.3z"/>
		</g>
	</g>
	<g id="text96">
		<g class="st31">
			<path class="st16" d="M363.7,276c0,1.5-0.2,2.8-0.6,3.9c-0.4,1.1-0.9,2-1.6,2.7c-0.7,0.7-1.6,1.3-2.7,1.6c-1,0.4-2.3,0.5-3.8,0.5
				h-3.6c-0.2,0-0.4-0.1-0.6-0.2c-0.2-0.1-0.3-0.4-0.3-0.7v-15.1c0-0.3,0.1-0.6,0.3-0.7c0.2-0.1,0.4-0.2,0.6-0.2h3.8
				c1.5,0,2.7,0.2,3.7,0.6c1,0.4,1.9,0.9,2.6,1.6c0.7,0.7,1.2,1.6,1.6,2.6S363.7,274.7,363.7,276z M361.3,276.1
				c0-0.9-0.1-1.8-0.3-2.6s-0.6-1.5-1.1-2.1c-0.5-0.6-1.1-1-1.8-1.4c-0.7-0.3-1.7-0.5-2.9-0.5h-2.3v13.2h2.3c1.1,0,2-0.1,2.7-0.4
				c0.7-0.3,1.4-0.7,1.9-1.2c0.5-0.6,0.9-1.3,1.1-2.1C361.2,278.2,361.3,277.2,361.3,276.1z"/>
		</g>
	</g>
	<g id="text100">
		<g class="st31">
			<path class="st16" d="M401.4,283.7c0,0.2,0,0.3-0.1,0.4c-0.1,0.1-0.1,0.2-0.2,0.3c-0.1,0.1-0.2,0.1-0.3,0.2
				c-0.1,0-0.2,0.1-0.4,0.1h-0.7c-0.2,0-0.4,0-0.6-0.1c-0.2,0-0.3-0.1-0.5-0.3s-0.3-0.3-0.5-0.5s-0.3-0.5-0.5-0.8l-5.2-9.7
				c-0.3-0.5-0.5-1-0.8-1.6s-0.5-1.1-0.8-1.6h0c0,0.6,0,1.3,0,1.9c0,0.7,0,1.3,0,2v10.3c0,0.1,0,0.1-0.1,0.2c0,0.1-0.1,0.1-0.2,0.1
				c-0.1,0-0.2,0.1-0.3,0.1c-0.1,0-0.3,0-0.5,0s-0.4,0-0.5,0c-0.1,0-0.3,0-0.3-0.1c-0.1,0-0.1-0.1-0.2-0.1c0-0.1-0.1-0.1-0.1-0.2
				v-15.7c0-0.3,0.1-0.6,0.3-0.7c0.2-0.1,0.4-0.2,0.7-0.2h1.1c0.3,0,0.5,0,0.7,0.1c0.2,0,0.3,0.1,0.5,0.2c0.1,0.1,0.3,0.2,0.4,0.4
				c0.1,0.2,0.3,0.4,0.4,0.7l4,7.5c0.2,0.5,0.5,0.9,0.7,1.3c0.2,0.4,0.4,0.9,0.7,1.3c0.2,0.4,0.4,0.8,0.6,1.2
				c0.2,0.4,0.4,0.8,0.6,1.2h0c0-0.7,0-1.4,0-2.2c0-0.7,0-1.5,0-2.2v-9.2c0-0.1,0-0.1,0.1-0.2c0-0.1,0.1-0.1,0.2-0.1
				c0.1,0,0.2-0.1,0.3-0.1s0.3,0,0.6,0c0.2,0,0.4,0,0.5,0c0.1,0,0.3,0,0.3,0.1c0.1,0,0.1,0.1,0.2,0.1c0,0.1,0.1,0.1,0.1,0.2V283.7z"
				/>
		</g>
	</g>
	<g id="text104">
		<g class="st31">
			<path class="st16" d="M439.6,269.8c0,0.2,0,0.3,0,0.4c0,0.1,0,0.2-0.1,0.3c0,0.1-0.1,0.1-0.1,0.2c-0.1,0-0.1,0.1-0.2,0.1
				c-0.1,0-0.3-0.1-0.5-0.2c-0.2-0.2-0.6-0.3-1-0.6c-0.4-0.2-0.9-0.4-1.5-0.6c-0.6-0.2-1.3-0.2-2-0.2c-0.9,0-1.8,0.2-2.5,0.5
				s-1.4,0.8-1.9,1.4s-0.9,1.3-1.2,2.2c-0.3,0.8-0.4,1.7-0.4,2.7c0,1.1,0.2,2,0.5,2.9c0.3,0.8,0.7,1.5,1.3,2.1
				c0.5,0.6,1.2,1,1.9,1.3c0.7,0.3,1.6,0.4,2.4,0.4c0.5,0,1.1-0.1,1.6-0.2s1-0.3,1.5-0.6v-4.9h-3.9c-0.1,0-0.3-0.1-0.3-0.2
				c-0.1-0.1-0.1-0.4-0.1-0.7c0-0.2,0-0.3,0-0.4s0-0.2,0.1-0.3c0-0.1,0.1-0.1,0.1-0.2c0.1,0,0.1-0.1,0.2-0.1h5.4
				c0.1,0,0.2,0,0.3,0.1s0.2,0.1,0.3,0.2c0.1,0.1,0.1,0.2,0.2,0.3c0,0.1,0.1,0.3,0.1,0.4v6.5c0,0.2,0,0.4-0.1,0.6
				c-0.1,0.2-0.2,0.3-0.5,0.4c-0.3,0.1-0.6,0.3-1,0.4c-0.4,0.1-0.8,0.3-1.2,0.4c-0.4,0.1-0.9,0.2-1.3,0.2c-0.4,0.1-0.9,0.1-1.3,0.1
				c-1.3,0-2.5-0.2-3.5-0.6c-1-0.4-1.9-1-2.6-1.7c-0.7-0.8-1.3-1.7-1.6-2.7c-0.4-1-0.6-2.2-0.6-3.5c0-1.3,0.2-2.6,0.6-3.7
				c0.4-1.1,1-2,1.7-2.8s1.6-1.4,2.7-1.8s2.2-0.6,3.4-0.6c0.6,0,1.3,0.1,1.8,0.2c0.6,0.1,1.1,0.2,1.5,0.4c0.4,0.2,0.8,0.3,1.1,0.5
				c0.3,0.2,0.5,0.3,0.6,0.4c0.1,0.1,0.2,0.2,0.2,0.4C439.5,269.3,439.6,269.5,439.6,269.8z"/>
		</g>
	</g>
	<g id="text108">
		<g class="st31">
			<path class="st16" d="M316.8,347.3c0,0.8-0.1,1.5-0.4,2.1c-0.3,0.6-0.7,1.1-1.2,1.6c-0.5,0.4-1.1,0.8-1.8,1
				c-0.7,0.2-1.5,0.3-2.3,0.3c-0.6,0-1.1,0-1.6-0.1c-0.5-0.1-0.9-0.2-1.3-0.4c-0.4-0.1-0.7-0.3-1-0.4c-0.3-0.1-0.4-0.3-0.5-0.4
				c-0.1-0.1-0.2-0.2-0.2-0.4s-0.1-0.4-0.1-0.6c0-0.2,0-0.4,0-0.5s0-0.2,0.1-0.3c0-0.1,0.1-0.1,0.1-0.2c0.1,0,0.1,0,0.2,0
				c0.1,0,0.3,0.1,0.5,0.2c0.2,0.1,0.5,0.3,0.9,0.5c0.3,0.2,0.8,0.3,1.3,0.5s1.1,0.2,1.7,0.2c0.5,0,0.9-0.1,1.3-0.2
				c0.4-0.1,0.8-0.3,1.1-0.6c0.3-0.2,0.5-0.5,0.7-0.9s0.2-0.7,0.2-1.2c0-0.5-0.1-0.9-0.3-1.2s-0.5-0.6-0.9-0.9
				c-0.4-0.3-0.8-0.5-1.2-0.7c-0.5-0.2-0.9-0.4-1.4-0.7c-0.5-0.2-1-0.5-1.4-0.7c-0.5-0.3-0.9-0.6-1.2-1c-0.4-0.4-0.6-0.8-0.9-1.3
				c-0.2-0.5-0.3-1.1-0.3-1.8c0-0.7,0.1-1.3,0.4-1.9c0.3-0.6,0.6-1,1.1-1.4c0.5-0.4,1-0.7,1.6-0.9c0.6-0.2,1.3-0.3,2.1-0.3
				c0.4,0,0.8,0,1.1,0.1c0.4,0.1,0.7,0.2,1.1,0.3c0.3,0.1,0.6,0.2,0.9,0.4c0.3,0.1,0.4,0.2,0.5,0.3c0.1,0.1,0.1,0.1,0.2,0.2
				c0,0,0,0.1,0.1,0.2s0,0.2,0,0.3s0,0.2,0,0.4c0,0.2,0,0.3,0,0.4c0,0.1,0,0.2-0.1,0.3s-0.1,0.1-0.1,0.2c0,0-0.1,0.1-0.2,0.1
				c-0.1,0-0.2-0.1-0.5-0.2c-0.2-0.1-0.5-0.3-0.8-0.4c-0.3-0.2-0.7-0.3-1.1-0.4c-0.4-0.1-0.9-0.2-1.4-0.2c-0.5,0-0.9,0.1-1.2,0.2
				c-0.3,0.1-0.6,0.3-0.9,0.5c-0.2,0.2-0.4,0.5-0.5,0.7c-0.1,0.3-0.2,0.6-0.2,0.9c0,0.5,0.1,0.9,0.3,1.2s0.5,0.6,0.9,0.9
				c0.4,0.3,0.8,0.5,1.2,0.7s0.9,0.4,1.4,0.7c0.5,0.2,1,0.5,1.4,0.7c0.5,0.3,0.9,0.6,1.2,0.9s0.7,0.8,0.9,1.3
				C316.7,346,316.8,346.6,316.8,347.3z"/>
		</g>
	</g>
	<g id="text112">
		<g class="st31">
			<path class="st16" d="M446.3,342.7c0,0.3-0.1,0.6-0.3,0.7c-0.2,0.1-0.5,0.2-0.8,0.2H432c-0.4,0-0.7-0.1-0.9-0.2s-0.3-0.4-0.3-0.7
				c0-0.3,0.1-0.6,0.3-0.7c0.2-0.1,0.5-0.2,0.9-0.2h13.2c0.2,0,0.3,0,0.5,0c0.1,0,0.3,0.1,0.3,0.2c0.1,0.1,0.2,0.2,0.2,0.3
				C446.3,342.4,446.3,342.6,446.3,342.7z"/>
		</g>
	</g>
	<rect id="rect880" x="336.4" y="84.6" class="st25" width="77.9" height="11"/>
	<rect id="rect882" x="339.1" y="35.2" class="st25" width="72.5" height="56.3"/>
	<path id="path884" class="st25" d="M411.6,36.5c0-13-6.9-25.1-18.1-31.6c-11.2-6.5-25-6.5-36.2,0c-11.2,6.6-18.1,18.6-18.1,31.6
		H411.6L411.6,36.5z"/>
	<path id="path3796" class="st27" d="M392.7,91.1h3.4V305h-3.4V91.1z"/>
	<path id="path3794" class="st27" d="M354.6,91.1h3.4V305h-3.4V91.1z"/>
	<path id="rect3800" class="st32" d="M374.6,2.8c-5.6,0.1-11.1,1.7-16,4.5c-10.3,6.1-16.7,17.2-16.7,29.1h0v49.8h-2.5v7.5h72v-7.5
		h-2.5V36.5h0c0-12-6.4-23.1-16.8-29.1C386.8,4.2,380.7,2.7,374.6,2.8L374.6,2.8z"/>
</g>
<circle id="circle281" class="st33" cx="232.1" cy="449.8" r="11.6"/>
<rect x="232.1" y="445.2" class="st33" width="180.3" height="9.1"/>
<circle id="circle281-2" class="st34" cx="232.1" cy="861.2" r="11.6"/>
<rect id="rect853" x="232.1" y="856.6" class="st34" width="114.1" height="9.1"/>
<rect id="rect1463" x="337.1" y="370.1" class="st34" width="9.1" height="495.6"/>
<rect id="rect1465" x="403.3" y="370.1" class="st33" width="9.1" height="84.2"/>
<circle id="circle281-3" class="st34" cx="341.6" cy="370.1" r="10.5"/>
<circle id="circle281-4" class="st33" cx="407.9" cy="370.1" r="10.5"/>
</svg>
