<?xml version="1.0" encoding="UTF-8" standalone="no"?>
<!-- Generator: Adobe Illustrator 27.8.0, SVG Export Plug-In . SVG Version: 6.00 Build 0)  -->

<svg
   version="1.1"
   id="svg4098"
   x="0px"
   y="0px"
   viewBox="0 0 682 990.3"
   style="enable-background:new 0 0 682 990.3;"
   xml:space="preserve"
   sodipodi:docname="035-Pico.svg"
   inkscape:version="1.3 (0e150ed, 2023-07-21)"
   xmlns:inkscape="http://www.inkscape.org/namespaces/inkscape"
   xmlns:sodipodi="http://sodipodi.sourceforge.net/DTD/sodipodi-0.dtd"
   xmlns="http://www.w3.org/2000/svg"
   xmlns:svg="http://www.w3.org/2000/svg"><defs
   id="defs327" /><sodipodi:namedview
   id="namedview327"
   pagecolor="#505050"
   bordercolor="#eeeeee"
   borderopacity="1"
   inkscape:showpageshadow="0"
   inkscape:pageopacity="0"
   inkscape:pagecheckerboard="0"
   inkscape:deskcolor="#505050"
   inkscape:zoom="0.51496862"
   inkscape:cx="163.11674"
   inkscape:cy="377.69292"
   inkscape:window-width="1440"
   inkscape:window-height="900"
   inkscape:window-x="0"
   inkscape:window-y="0"
   inkscape:window-maximized="0"
   inkscape:current-layer="svg4098" />&#10;<style
   type="text/css"
   id="style1">&#10;	.st0{fill:#02814B;}&#10;	.st1{fill:#D4C547;}&#10;	.st2{fill:#525035;}&#10;	.st3{fill:#FEE86F;}&#10;	.st4{fill:#FFE17B;}&#10;	.st5{fill:#DDDDDD;}&#10;	.st6{fill:#7F7F7F;}&#10;	.st7{fill:#474544;}&#10;	.st8{fill:#E2EADE;}&#10;	.st9{fill:#C29148;}&#10;	.st10{fill:#8DDDDE;}&#10;	.st11{fill:#C1C1C1;}&#10;	.st12{fill:#C2BFAB;}&#10;	.st13{fill:none;stroke:#95AC6E;stroke-miterlimit:10;}&#10;	.st14{fill:#E8D28A;}&#10;	.st15{fill:#CECECE;}&#10;	.st16{fill:#FFFFFF;}&#10;	.st17{fill:#36323E;}&#10;	.st18{fill:#868C97;}&#10;	.st19{fill:#FCFCFA;}&#10;	.st20{fill:#141316;}&#10;	.st21{fill:#B9A68F;}&#10;	.st22{fill:#E0B45B;}&#10;	.st23{fill:#ABA28E;}&#10;	.st24{fill:none;stroke:#FFFFFF;stroke-miterlimit:10;}&#10;	.st25{fill:#1A1A1A;}&#10;	.st26{opacity:0.99;enable-background:new    ;}&#10;	.st27{fill:#CCCBCB;}&#10;	.st28{opacity:0.99;fill:#808080;enable-background:new    ;}&#10;	.st29{opacity:0.99;fill:#CCCBCB;enable-background:new    ;}&#10;	.st30{opacity:0.99;fill:#FFFFFF;enable-background:new    ;}&#10;	.st31{opacity:0.99;fill:#1A1A1A;enable-background:new    ;}&#10;	.st32{enable-background:new    ;}&#10;	.st33{fill:#CCCCCC;}&#10;	.st34{fill:#00B589;}&#10;	.st35{fill:#008000;}&#10;	.st36{fill:#54BDC2;}&#10;	.st37{fill:#914F00;}&#10;	.st38{fill:#E30613;}&#10;	.st39{fill:#333333;}&#10;</style>&#10;<g
   id="g264">&#10;	<path
   class="st0"
   d="M243.3,408.3v-11.9H0.2v11.9c2.3,0.9,3.9,3.1,3.9,5.7s-1.6,4.8-3.9,5.7v18.1c2.3,0.9,3.9,3.1,3.9,5.7   s-1.6,4.8-3.9,5.7v18.1c2.3,0.9,3.9,3.1,3.9,5.7s-1.6,4.8-3.9,5.7v18.1c2.3,0.9,3.9,3.1,3.9,5.7s-1.6,4.8-3.9,5.7v18.1   c2.3,0.9,3.9,3.1,3.9,5.7s-1.6,4.8-3.9,5.7v18.1c2.3,0.9,3.9,3.1,3.9,5.7s-1.6,4.8-3.9,5.7v18.1c2.3,0.9,3.9,3.1,3.9,5.7   s-1.6,4.8-3.9,5.7v18.1c2.3,0.9,3.9,3.1,3.9,5.7s-1.6,4.8-3.9,5.7v18.1c2.3,0.9,3.9,3.1,3.9,5.7s-1.6,4.8-3.9,5.7v18.1   c2.3,0.9,3.9,3.1,3.9,5.7s-1.6,4.8-3.9,5.7v18.1c2.3,0.9,3.9,3.1,3.9,5.7s-1.6,4.8-3.9,5.7v18.1c2.3,0.9,3.9,3.1,3.9,5.7   s-1.6,4.8-3.9,5.7V761c2.3,0.9,3.9,3.1,3.9,5.7s-1.6,4.8-3.9,5.7v18.1c2.3,0.9,3.9,3.1,3.9,5.7s-1.6,4.8-3.9,5.7v18.1   c2.3,0.9,3.9,3.1,3.9,5.7s-1.6,4.8-3.9,5.7v18.1c2.3,0.9,3.9,3.1,3.9,5.7s-1.6,4.8-3.9,5.7v18.1c2.3,0.9,3.9,3.1,3.9,5.7   s-1.6,4.8-3.9,5.7V908c2.3,0.9,3.9,3.1,3.9,5.7s-1.6,4.8-3.9,5.7v18c2.3,0.9,3.9,3.1,3.9,5.7s-1.6,4.8-3.9,5.7v18.1   c2.3,0.9,3.9,3.1,3.9,5.7s-1.6,4.8-3.9,5.7v11.9h78.5h7.5h11.3h18.5h11.3H146h11.3h4h82v-11.9c-2.2-0.9-3.8-3.1-3.8-5.7   s1.6-4.8,3.8-5.7v-18.1c-2.2-0.9-3.8-3.1-3.8-5.7s1.6-4.8,3.8-5.7v-18.1c-2.2-0.9-3.8-3.1-3.8-5.7s1.6-4.8,3.8-5.7v-18.1   c-2.2-0.9-3.8-3.1-3.8-5.7s1.6-4.8,3.8-5.7v-18.1c-2.2-0.9-3.8-3.1-3.8-5.7s1.6-4.8,3.8-5.7v-18.1c-2.2-0.9-3.8-3.1-3.8-5.7   s1.6-4.8,3.8-5.7v-18.1c-2.2-0.9-3.8-3.1-3.8-5.7s1.6-4.8,3.8-5.7v-18.1c-2.2-0.9-3.8-3.1-3.8-5.7s1.6-4.8,3.8-5.7V743   c-2.2-0.9-3.8-3.1-3.8-5.7s1.6-4.8,3.8-5.7v-18.1c-2.2-0.9-3.8-3.1-3.8-5.7s1.6-4.8,3.8-5.7v-18.1c-2.2-0.9-3.8-3.1-3.8-5.7   s1.6-4.8,3.8-5.7v-18.1c-2.2-0.9-3.8-3.1-3.8-5.7s1.6-4.8,3.8-5.7v-18.1c-2.2-0.9-3.8-3.1-3.8-5.7s1.6-4.8,3.8-5.7V596   c-2.2-0.9-3.8-3.1-3.8-5.7s1.6-4.8,3.8-5.7v-18.1c-2.2-0.9-3.8-3.1-3.8-5.7s1.6-4.8,3.8-5.7v-18.1c-2.2-0.9-3.8-3.1-3.8-5.7   s1.6-4.8,3.8-5.7v-18.1c-2.2-0.9-3.8-3.1-3.8-5.7s1.6-4.8,3.8-5.7v-18.1c-2.2-0.9-3.8-3.1-3.8-5.7s1.6-4.8,3.8-5.7V449   c-2.2-0.9-3.8-3.1-3.8-5.7s1.6-4.8,3.8-5.7v-18.1c-2.2-0.9-3.8-3.1-3.8-5.7S241.1,409.2,243.3,408.3z M15.8,978.6   c-3.4,0-6.1-2.7-6.1-6.1s2.7-6.1,6.1-6.1s6.1,2.7,6.1,6.1S19.2,978.6,15.8,978.6z M15.8,949.1c-3.4,0-6.1-2.7-6.1-6.1   s2.7-6.1,6.1-6.1s6.1,2.7,6.1,6.1S19.2,949.1,15.8,949.1z M15.8,919.8c-3.4,0-6.1-2.7-6.1-6.1s2.7-6.1,6.1-6.1s6.1,2.7,6.1,6.1   S19.2,919.8,15.8,919.8z M15.8,890.4c-3.4,0-6.1-2.7-6.1-6.1s2.7-6.1,6.1-6.1s6.1,2.7,6.1,6.1S19.2,890.4,15.8,890.4z M15.8,861   c-3.4,0-6.1-2.7-6.1-6.1s2.7-6.1,6.1-6.1s6.1,2.7,6.1,6.1S19.2,861,15.8,861z M15.8,831.6c-3.4,0-6.1-2.7-6.1-6.1s2.7-6.1,6.1-6.1   s6.1,2.7,6.1,6.1S19.2,831.6,15.8,831.6z M15.8,802.2c-3.4,0-6.1-2.7-6.1-6.1s2.7-6.1,6.1-6.1s6.1,2.7,6.1,6.1   S19.2,802.2,15.8,802.2z M15.8,772.8c-3.4,0-6.1-2.7-6.1-6.1s2.7-6.1,6.1-6.1s6.1,2.7,6.1,6.1S19.2,772.8,15.8,772.8z M15.8,743.4   c-3.4,0-6.1-2.7-6.1-6.1s2.7-6.1,6.1-6.1s6.1,2.7,6.1,6.1S19.2,743.4,15.8,743.4z M15.8,714c-3.4,0-6.1-2.7-6.1-6.1   s2.7-6.1,6.1-6.1s6.1,2.7,6.1,6.1S19.2,714,15.8,714z M15.8,684.6c-3.4,0-6.1-2.7-6.1-6.1s2.7-6.1,6.1-6.1s6.1,2.7,6.1,6.1   S19.2,684.6,15.8,684.6z M15.8,655.2c-3.4,0-6.1-2.7-6.1-6.1s2.7-6.1,6.1-6.1s6.1,2.7,6.1,6.1S19.2,655.2,15.8,655.2z M15.8,625.8   c-3.4,0-6.1-2.7-6.1-6.1s2.7-6.1,6.1-6.1s6.1,2.7,6.1,6.1S19.2,625.8,15.8,625.8z M15.8,596.4c-3.4,0-6.1-2.7-6.1-6.1   s2.7-6.1,6.1-6.1s6.1,2.7,6.1,6.1S19.2,596.4,15.8,596.4z M15.8,567c-3.4,0-6.1-2.7-6.1-6.1s2.7-6.1,6.1-6.1s6.1,2.7,6.1,6.1   S19.2,567,15.8,567z M15.8,537.6c-3.4,0-6.1-2.7-6.1-6.1s2.7-6.1,6.1-6.1s6.1,2.7,6.1,6.1S19.2,537.6,15.8,537.6z M15.8,508.2   c-3.4,0-6.1-2.7-6.1-6.1s2.7-6.1,6.1-6.1c3.4,0,6.1,2.7,6.1,6.1S19.2,508.2,15.8,508.2z M15.8,478.8c-3.4,0-6.1-2.7-6.1-6.1   s2.7-6.1,6.1-6.1s6.1,2.7,6.1,6.1S19.2,478.8,15.8,478.8z M15.8,449.4c-3.4,0-6.1-2.7-6.1-6.1s2.7-6.1,6.1-6.1s6.1,2.7,6.1,6.1   S19.2,449.4,15.8,449.4z M15.8,420c-3.4,0-6.1-2.7-6.1-6.1s2.7-6.1,6.1-6.1s6.1,2.7,6.1,6.1S19.2,420,15.8,420z M53.7,978.5   c-6.7,0-12.1-5.4-12.1-12.1s5.4-12.1,12.1-12.1c6.7,0,12.1,5.4,12.1,12.1S60.4,978.5,53.7,978.5z M53.7,431.4   c-6.7,0-12.1-5.4-12.1-12.1c0-6.7,5.4-12.1,12.1-12.1c6.7,0,12.1,5.4,12.1,12.1C65.8,425.9,60.4,431.4,53.7,431.4z M127.6,764.6   c-3.1,0-5.7-2.6-5.7-5.7s2.6-5.7,5.7-5.7c3.1,0,5.7,2.6,5.7,5.7S130.7,764.6,127.6,764.6z M157,764.6c-3.1,0-5.7-2.6-5.7-5.7   s2.6-5.7,5.7-5.7c3.1,0,5.7,2.6,5.7,5.7S160.2,764.6,157,764.6z M186.2,407.1c6.7,0,12.1,5.4,12.1,12.1c0,6.7-5.4,12.1-12.1,12.1   s-12.1-5.4-12.1-12.1C174.1,412.6,179.6,407.1,186.2,407.1z M192.5,758.9c0,3.1-2.6,5.7-5.7,5.7c-3.1,0-5.7-2.6-5.7-5.7   s2.6-5.7,5.7-5.7C190,753.2,192.5,755.7,192.5,758.9z M188.2,978.5c-6.7,0-12.1-5.4-12.1-12.1s5.4-12.1,12.1-12.1   s12.1,5.4,12.1,12.1S194.9,978.5,188.2,978.5z M227.8,978.6c-3.4,0-6.1-2.7-6.1-6.1s2.7-6.1,6.1-6.1s6.1,2.7,6.1,6.1   S231.2,978.6,227.8,978.6z M227.8,949.2c-3.4,0-6.1-2.7-6.1-6.1s2.7-6.1,6.1-6.1s6.1,2.7,6.1,6.1S231.2,949.2,227.8,949.2z    M227.8,919.8c-3.4,0-6.1-2.7-6.1-6.1s2.7-6.1,6.1-6.1s6.1,2.7,6.1,6.1S231.2,919.8,227.8,919.8z M227.8,890.4   c-3.4,0-6.1-2.7-6.1-6.1s2.7-6.1,6.1-6.1s6.1,2.7,6.1,6.1S231.2,890.4,227.8,890.4z M227.8,861c-3.4,0-6.1-2.7-6.1-6.1   s2.7-6.1,6.1-6.1s6.1,2.7,6.1,6.1S231.2,861,227.8,861z M227.8,831.6c-3.4,0-6.1-2.7-6.1-6.1s2.7-6.1,6.1-6.1s6.1,2.7,6.1,6.1   S231.2,831.6,227.8,831.6z M227.8,802.2c-3.4,0-6.1-2.7-6.1-6.1s2.7-6.1,6.1-6.1s6.1,2.7,6.1,6.1S231.2,802.2,227.8,802.2z    M227.8,772.8c-3.4,0-6.1-2.7-6.1-6.1s2.7-6.1,6.1-6.1s6.1,2.7,6.1,6.1S231.2,772.8,227.8,772.8z M227.8,743.4   c-3.4,0-6.1-2.7-6.1-6.1s2.7-6.1,6.1-6.1s6.1,2.7,6.1,6.1S231.2,743.4,227.8,743.4z M227.8,714c-3.4,0-6.1-2.7-6.1-6.1   s2.7-6.1,6.1-6.1s6.1,2.7,6.1,6.1S231.2,714,227.8,714z M227.8,684.6c-3.4,0-6.1-2.7-6.1-6.1s2.7-6.1,6.1-6.1s6.1,2.7,6.1,6.1   S231.2,684.6,227.8,684.6z M227.8,655.2c-3.4,0-6.1-2.7-6.1-6.1s2.7-6.1,6.1-6.1s6.1,2.7,6.1,6.1S231.2,655.2,227.8,655.2z    M227.8,625.8c-3.4,0-6.1-2.7-6.1-6.1s2.7-6.1,6.1-6.1s6.1,2.7,6.1,6.1S231.2,625.8,227.8,625.8z M227.8,596.4   c-3.4,0-6.1-2.7-6.1-6.1s2.7-6.1,6.1-6.1s6.1,2.7,6.1,6.1S231.2,596.4,227.8,596.4z M227.8,567c-3.4,0-6.1-2.7-6.1-6.1   s2.7-6.1,6.1-6.1s6.1,2.7,6.1,6.1S231.2,567,227.8,567z M227.8,537.6c-3.4,0-6.1-2.7-6.1-6.1s2.7-6.1,6.1-6.1s6.1,2.7,6.1,6.1   S231.2,537.6,227.8,537.6z M227.8,508.2c-3.4,0-6.1-2.7-6.1-6.1s2.7-6.1,6.1-6.1s6.1,2.7,6.1,6.1S231.2,508.2,227.8,508.2z    M227.8,478.8c-3.4,0-6.1-2.7-6.1-6.1s2.7-6.1,6.1-6.1s6.1,2.7,6.1,6.1S231.2,478.8,227.8,478.8z M227.8,449.4   c-3.4,0-6.1-2.7-6.1-6.1s2.7-6.1,6.1-6.1s6.1,2.7,6.1,6.1S231.2,449.4,227.8,449.4z M227.8,420c-3.4,0-6.1-2.7-6.1-6.1   s2.7-6.1,6.1-6.1s6.1,2.7,6.1,6.1S231.2,420,227.8,420z"
   id="path1" />&#10;	<path
   class="st1"
   d="M53.7,398.7c-11.3,0-20.5,9.2-20.5,20.5c0,11.3,9.2,20.5,20.5,20.5s20.5-9.2,20.5-20.5   C74.3,407.9,65.1,398.7,53.7,398.7z M53.7,431.4c-6.7,0-12.1-5.4-12.1-12.1c0-6.7,5.4-12.1,12.1-12.1c6.7,0,12.1,5.4,12.1,12.1   C65.8,426,60.4,431.4,53.7,431.4z"
   id="path2" />&#10;	<path
   class="st1"
   d="M186.3,398.7c-11.3,0-20.5,9.2-20.5,20.5c0,11.3,9.2,20.5,20.5,20.5c11.3,0,20.5-9.2,20.5-20.5   C206.8,407.9,197.6,398.7,186.3,398.7z M186.3,431.4c-6.7,0-12.1-5.4-12.1-12.1c0-6.7,5.4-12.1,12.1-12.1c6.7,0,12.1,5.4,12.1,12.1   C198.4,426,193,431.4,186.3,431.4z"
   id="path3" />&#10;	<path
   class="st1"
   d="M53.7,945.9c-11.3,0-20.5,9.2-20.5,20.5S42.4,987,53.7,987s20.5-9.2,20.5-20.5S65.1,945.9,53.7,945.9z    M53.7,978.5c-6.7,0-12.1-5.4-12.1-12.1s5.4-12.1,12.1-12.1c6.7,0,12.1,5.4,12.1,12.1S60.4,978.5,53.7,978.5z"
   id="path4" />&#10;	<path
   class="st1"
   d="M188.3,945.9c-11.3,0-20.5,9.2-20.5,20.5s9.2,20.5,20.5,20.5c11.3,0,20.5-9.2,20.5-20.5   S199.6,945.9,188.3,945.9z M188.3,978.5c-6.7,0-12.1-5.4-12.1-12.1s5.4-12.1,12.1-12.1c6.7,0,12.1,5.4,12.1,12.1   S195,978.5,188.3,978.5z"
   id="path5" />&#10;	<path
   id="circle5"
   class="st2"
   style="fill:#525035"
   d="M 65.6,484 A 10.6,10.6 0 0 1 55,494.6 10.6,10.6 0 0 1 44.4,484 10.6,10.6 0 0 1 55,473.4 10.6,10.6 0 0 1 65.6,484 Z" />&#10;	<path
   id="circle6"
   class="st3"
   style="fill:#fee86f"
   d="M 60.5,484 A 5.5,5.5 0 0 1 55,489.5 5.5,5.5 0 0 1 49.5,484 5.5,5.5 0 0 1 55,478.5 5.5,5.5 0 0 1 60.5,484 Z" />&#10;	<path
   class="st4"
   d="M17.5,463.8H0.3v3.4c2.3,0.9,3.9,3.1,3.9,5.7s-1.6,4.8-3.9,5.7v3.4h17.2c5,0,9-4,9-9v0   C26.5,467.8,22.4,463.8,17.5,463.8z M15.9,478.9c-3.4,0-6.1-2.7-6.1-6.1s2.7-6.1,6.1-6.1s6.1,2.7,6.1,6.1S19.2,478.9,15.9,478.9z"
   id="path6" />&#10;	<path
   class="st4"
   d="M17.5,610.7H0.3v3.4c2.3,0.9,3.9,3.1,3.9,5.7s-1.6,4.8-3.9,5.7v3.4h17.2c5,0,9-4,9-9S22.4,610.7,17.5,610.7z    M15.9,625.8c-3.4,0-6.1-2.7-6.1-6.1s2.7-6.1,6.1-6.1s6.1,2.7,6.1,6.1S19.2,625.8,15.9,625.8z"
   id="path7" />&#10;	<path
   class="st4"
   d="M17.5,757.7H0.3v3.4c2.3,0.9,3.9,3.1,3.9,5.7s-1.6,4.8-3.9,5.7v3.4h17.2c5,0,9-4,9-9S22.4,757.7,17.5,757.7z    M15.9,772.8c-3.4,0-6.1-2.7-6.1-6.1s2.7-6.1,6.1-6.1s6.1,2.7,6.1,6.1S19.2,772.8,15.9,772.8z"
   id="path8" />&#10;	<path
   class="st4"
   d="M17.5,787.1H0.3v3.4c2.3,0.9,3.9,3.1,3.9,5.7s-1.6,4.8-3.9,5.7v3.4h17.2c5,0,9-4,9-9S22.4,787.1,17.5,787.1z    M15.9,802.2c-3.4,0-6.1-2.7-6.1-6.1s2.7-6.1,6.1-6.1s6.1,2.7,6.1,6.1S19.2,802.2,15.9,802.2z"
   id="path9" />&#10;	<path
   class="st4"
   d="M17.5,816.5H0.3v3.4c2.3,0.9,3.9,3.1,3.9,5.7s-1.6,4.8-3.9,5.7v3.4h17.2c5,0,9-4,9-9S22.4,816.5,17.5,816.5z    M15.9,831.6c-3.4,0-6.1-2.7-6.1-6.1s2.7-6.1,6.1-6.1s6.1,2.7,6.1,6.1S19.2,831.6,15.9,831.6z"
   id="path10" />&#10;	<path
   class="st4"
   d="M17.5,845.9H0.3v3.4c2.3,0.9,3.9,3.1,3.9,5.7s-1.6,4.8-3.9,5.7v3.4h17.2c5,0,9-4,9-9S22.4,845.9,17.5,845.9z    M15.9,861c-3.4,0-6.1-2.7-6.1-6.1s2.7-6.1,6.1-6.1s6.1,2.7,6.1,6.1S19.2,861,15.9,861z"
   id="path11" />&#10;	<path
   class="st4"
   d="M17.5,904.7H0.3v3.4c2.3,0.9,3.9,3.1,3.9,5.7s-1.6,4.8-3.9,5.7v3.4h17.2c5,0,9-4,9-9v0   C26.5,908.7,22.4,904.7,17.5,904.7z M15.9,919.8c-3.4,0-6.1-2.7-6.1-6.1s2.7-6.1,6.1-6.1s6.1,2.7,6.1,6.1S19.2,919.8,15.9,919.8z"
   id="path12" />&#10;	<path
   class="st4"
   d="M17.5,934.1H0.3v3.4c2.3,0.9,3.9,3.1,3.9,5.7s-1.6,4.8-3.9,5.7v3.4h17.2c5,0,9-4,9-9v0   C26.5,938.1,22.4,934.1,17.5,934.1z M15.9,949.2c-3.4,0-6.1-2.7-6.1-6.1s2.7-6.1,6.1-6.1s6.1,2.7,6.1,6.1S19.2,949.2,15.9,949.2z"
   id="path13" />&#10;	<path
   class="st4"
   d="M17.5,963.5H0.3v3.4c2.3,0.9,3.9,3.1,3.9,5.7s-1.6,4.8-3.9,5.7v3.4h17.2c5,0,9-4,9-9S22.4,963.5,17.5,963.5z    M15.9,978.6c-3.4,0-6.1-2.7-6.1-6.1s2.7-6.1,6.1-6.1s6.1,2.7,6.1,6.1S19.2,978.6,15.9,978.6z"
   id="path14" />&#10;	<path
   class="st4"
   d="M239.5,414c0-2.6,1.6-4.8,3.9-5.7V405h-17.2c-5,0-9,4-9,9s4,9,9,9h17.2v-3.4   C241.2,418.8,239.5,416.6,239.5,414z M227.8,420.1c-3.4,0-6.1-2.7-6.1-6.1s2.7-6.1,6.1-6.1s6.1,2.7,6.1,6.1   S231.2,420.1,227.8,420.1z"
   id="path15" />&#10;	<path
   class="st4"
   d="M239.5,443.4c0-2.6,1.6-4.8,3.9-5.7v-3.4h-17.2c-5,0-9,4-9,9v0c0,5,4,9,9,9h17.2V449   C241.2,448.2,239.5,446,239.5,443.4z M227.8,449.5c-3.4,0-6.1-2.7-6.1-6.1s2.7-6.1,6.1-6.1s6.1,2.7,6.1,6.1   S231.2,449.5,227.8,449.5z"
   id="path16" />&#10;	<path
   class="st4"
   d="M239.5,472.8c0-2.6,1.6-4.8,3.9-5.7v-3.4h-17.2c-5,0-9,4-9,9v0c0,5,4,9,9,9h17.2v-3.4   C241.2,477.6,239.5,475.4,239.5,472.8z M227.8,478.9c-3.4,0-6.1-2.7-6.1-6.1s2.7-6.1,6.1-6.1s6.1,2.7,6.1,6.1   S231.2,478.9,227.8,478.9z"
   id="path17" />&#10;	<path
   class="st4"
   d="M239.5,502.2c0-2.6,1.6-4.8,3.9-5.7v-3.4h-17.2c-5,0-9,4-9,9s4,9,9,9h17.2v-3.4   C241.2,507,239.5,504.8,239.5,502.2z M227.8,508.3c-3.4,0-6.1-2.7-6.1-6.1s2.7-6.1,6.1-6.1s6.1,2.7,6.1,6.1   S231.2,508.3,227.8,508.3z"
   id="path18" />&#10;	<path
   class="st4"
   d="M239.5,531.6c0-2.6,1.6-4.8,3.9-5.7v-3.4h-17.2c-5,0-9,4-9,9s4,9,9,9h17.2v-3.4   C241.2,536.4,239.5,534.2,239.5,531.6z M227.8,537.7c-3.4,0-6.1-2.7-6.1-6.1s2.7-6.1,6.1-6.1s6.1,2.7,6.1,6.1   S231.2,537.7,227.8,537.7z"
   id="path19" />&#10;	<path
   class="st4"
   d="M239.5,561c0-2.6,1.6-4.8,3.9-5.7v-3.4h-17.2c-5,0-9,4-9,9s4,9,9,9h17.2v-3.4   C241.2,565.7,239.5,563.5,239.5,561z M227.8,567c-3.4,0-6.1-2.7-6.1-6.1s2.7-6.1,6.1-6.1s6.1,2.7,6.1,6.1S231.2,567,227.8,567z"
   id="path20" />&#10;	<path
   class="st4"
   d="M239.5,619.8c0-2.6,1.6-4.8,3.9-5.7v-3.4h-17.2c-5,0-9,4-9,9s4,9,9,9h17.2v-3.4   C241.2,624.5,239.5,622.3,239.5,619.8z M227.8,625.8c-3.4,0-6.1-2.7-6.1-6.1s2.7-6.1,6.1-6.1s6.1,2.7,6.1,6.1   S231.2,625.8,227.8,625.8z"
   id="path21" />&#10;	<path
   class="st4"
   d="M239.5,678.5c0-2.6,1.6-4.8,3.9-5.7v-3.4h-17.2c-5,0-9,4-9,9v0c0,5,4,9,9,9h17.2v-3.4   C241.2,683.3,239.5,681.1,239.5,678.5z M227.8,684.6c-3.4,0-6.1-2.7-6.1-6.1s2.7-6.1,6.1-6.1s6.1,2.7,6.1,6.1   S231.2,684.6,227.8,684.6z"
   id="path22" />&#10;	<path
   class="st4"
   d="M239.5,707.9c0-2.6,1.6-4.8,3.9-5.7v-3.4h-17.2c-5,0-9,4-9,9v0c0,5,4,9,9,9h17.2v-3.4   C241.2,712.7,239.5,710.5,239.5,707.9z M227.8,714c-3.4,0-6.1-2.7-6.1-6.1s2.7-6.1,6.1-6.1s6.1,2.7,6.1,6.1S231.2,714,227.8,714z"
   id="path23" />&#10;	<path
   class="st4"
   d="M239.5,737.3c0-2.6,1.6-4.8,3.9-5.7v-3.4h-17.2c-5,0-9,4-9,9s4,9,9,9h17.2V743   C241.2,742.1,239.5,739.9,239.5,737.3z M227.8,743.4c-3.4,0-6.1-2.7-6.1-6.1s2.7-6.1,6.1-6.1s6.1,2.7,6.1,6.1   S231.2,743.4,227.8,743.4z"
   id="path24" />&#10;	<path
   class="st4"
   d="M239.5,766.7c0-2.6,1.6-4.8,3.9-5.7v-3.4h-17.2c-5,0-9,4-9,9s4,9,9,9h17.2v-3.4   C241.2,771.5,239.5,769.3,239.5,766.7z M227.8,772.8c-3.4,0-6.1-2.7-6.1-6.1s2.7-6.1,6.1-6.1s6.1,2.7,6.1,6.1   S231.2,772.8,227.8,772.8z"
   id="path25" />&#10;	<path
   class="st4"
   d="M239.5,796.1c0-2.6,1.6-4.8,3.9-5.7v-3.4h-17.2c-5,0-9,4-9,9s4,9,9,9h17.2v-3.4   C241.2,800.9,239.5,798.7,239.5,796.1z M227.8,802.2c-3.4,0-6.1-2.7-6.1-6.1s2.7-6.1,6.1-6.1s6.1,2.7,6.1,6.1   S231.2,802.2,227.8,802.2z"
   id="path26" />&#10;	<path
   class="st4"
   d="M239.5,825.5c0-2.6,1.6-4.8,3.9-5.7v-3.4h-17.2c-5,0-9,4-9,9s4,9,9,9h17.2v-3.4   C241.2,830.3,239.5,828.1,239.5,825.5z M227.8,831.6c-3.4,0-6.1-2.7-6.1-6.1s2.7-6.1,6.1-6.1s6.1,2.7,6.1,6.1   S231.2,831.6,227.8,831.6z"
   id="path27" />&#10;	<path
   class="st4"
   d="M239.5,854.9c0-2.6,1.6-4.8,3.9-5.7v-3.4h-17.2c-5,0-9,4-9,9s4,9,9,9h17.2v-3.4   C241.2,859.7,239.5,857.5,239.5,854.9z M227.8,861c-3.4,0-6.1-2.7-6.1-6.1s2.7-6.1,6.1-6.1s6.1,2.7,6.1,6.1S231.2,861,227.8,861z"
   id="path28" />&#10;	<path
   class="st4"
   d="M239.5,913.7c0-2.6,1.6-4.8,3.9-5.7v-3.4h-17.2c-5,0-9,4-9,9v0c0,5,4,9,9,9h17.2v-3.4   C241.2,918.5,239.5,916.3,239.5,913.7z M227.8,919.8c-3.4,0-6.1-2.7-6.1-6.1s2.7-6.1,6.1-6.1s6.1,2.7,6.1,6.1   S231.2,919.8,227.8,919.8z"
   id="path29" />&#10;	<path
   class="st4"
   d="M239.5,943.1c0-2.6,1.6-4.8,3.9-5.7v-3.4h-17.2c-5,0-9,4-9,9v0c0,5,4,9,9,9h17.2v-3.4   C241.2,947.9,239.5,945.7,239.5,943.1z M227.8,949.2c-3.4,0-6.1-2.7-6.1-6.1s2.7-6.1,6.1-6.1s6.1,2.7,6.1,6.1   S231.2,949.2,227.8,949.2z"
   id="path30" />&#10;	<path
   class="st5"
   d="M163.1,385.9l4.4-4.4l-2.3-2.3l-6.6,6.6h-1.5v-4.7c0-1.2-1-2.2-2.2-2.2H85.4c-1.2,0-2.2,1-2.2,2.2v4.7h-1.5   l-6.6-6.6l-2.3,2.3l4.4,4.4c-0.6,0.2-1,0.8-1,1.4v56.3c0,0.9,0.7,1.6,1.6,1.6h84.6c0.9,0,1.6-0.7,1.6-1.6v-56.3   C164,386.7,163.6,386.1,163.1,385.9z"
   id="path31" />&#10;	<g
   id="g33">&#10;		<path
   class="st6"
   d="M100.3,408.2c0-3.2-2.6-5.8-5.8-5.8s-5.8,2.6-5.8,5.8c0,1.4,0.5,2.7,1.3,3.7h-0.2v7.7c0,1.2,1,2.1,2.1,2.1H97    c1.2,0,2.1-1,2.1-2.1v-7.7H99C99.8,410.9,100.3,409.6,100.3,408.2z"
   id="path32" />&#10;		<path
   class="st6"
   d="M155.5,408.2c0-3.2-2.6-5.8-5.8-5.8s-5.8,2.6-5.8,5.8c0,1.4,0.5,2.7,1.3,3.7H145v7.7c0,1.2,1,2.1,2.1,2.1h5.1    c1.2,0,2.1-1,2.1-2.1v-7.7h-0.2C155,410.9,155.5,409.6,155.5,408.2z"
   id="path33" />&#10;	</g>&#10;	<path
   class="st7"
   d="M200.9,538.3h-21c-1.2,0-2.2-1-2.2-2.2v-26.7c0-1.2,1-2.2,2.2-2.2h21c1.2,0,2.2,1,2.2,2.2v26.7   C203,537.3,202.1,538.3,200.9,538.3z"
   id="path34" />&#10;	<g
   id="g35">&#10;		<path
   id="rect34"
   class="st8"
   style="fill:#e2eade"
   d="m 132,474.5 h 21.7 v 14.4 H 132 Z" />&#10;		<path
   class="st9"
   d="M149.3,488.9c-2-1.8-3.2-4.4-3.2-7.2s1.2-5.4,3.2-7.2h-12.8c2,1.8,3.2,4.4,3.2,7.2s-1.2,5.4-3.2,7.2H149.3z"
   id="path35" />&#10;	</g>&#10;	<g
   id="g36">&#10;		<path
   id="rect35"
   class="st8"
   style="fill:#e2eade"
   d="M 132.3,559.79999 H 154 v 14.4 h -21.7 z" />&#10;		<path
   class="st9"
   d="M149.6,574.3c-2-1.8-3.2-4.4-3.2-7.2s1.2-5.4,3.2-7.2h-12.8c2,1.8,3.2,4.4,3.2,7.2s-1.2,5.4-3.2,7.2H149.6z"
   id="path36" />&#10;	</g>&#10;	<g
   id="g37">&#10;		<path
   id="rect36"
   class="st8"
   style="fill:#e2eade"
   d="M 132.3,579 H 154 v 14.4 h -21.7 z" />&#10;		<path
   class="st9"
   d="M149.6,593.4c-2-1.8-3.2-4.4-3.2-7.2s1.2-5.4,3.2-7.2h-12.8c2,1.8,3.2,4.4,3.2,7.2s-1.2,5.4-3.2,7.2H149.6z"
   id="path37" />&#10;	</g>&#10;	<g
   id="g38">&#10;		&#10;			<path
   id="rect37"
   class="st8"
   transform="matrix(6.123234e-17 -1 1 6.123234e-17 -566.1414 699.1778)"
   style="fill:#e2eade"
   d="m 63.799999,627.40002 h 5.4 v 10.6 h -5.4 z" />&#10;		&#10;			<path
   id="rect38"
   class="st9"
   transform="matrix(6.123234e-17 -1 1 6.123234e-17 -566.1414 699.1778)"
   style="fill:#c29148"
   d="m 63.799999,629.70001 h 5.4 v 6 h -5.4 z" />&#10;	</g>&#10;	<g
   id="g40">&#10;		<path
   id="rect39"
   class="st8"
   style="fill:#e2eade"
   d="m 177.10001,609.90002 h 5.4 v 10.6 h -5.4 z" />&#10;		<path
   id="rect40"
   class="st9"
   style="fill:#c29148"
   d="m 177.10001,612.20001 h 5.4 v 6 h -5.4 z" />&#10;	</g>&#10;	<path
   id="rect41"
   class="st7"
   style="fill:#474544"
   d="m 179.5,459.89999 h 18.9 v 29.3 h -18.9 z" />&#10;	<g
   id="g43">&#10;		<path
   id="rect42"
   class="st8"
   style="fill:#e2eade"
   d="m 171.60001,561.20001 h 20.6 v 9.6 h -20.6 z" />&#10;		<path
   id="rect43"
   class="st10"
   style="fill:#8dddde"
   d="m 176.2,561.20001 h 11.5 v 9.6 h -11.5 z" />&#10;	</g>&#10;	<path
   id="rect44"
   class="st9"
   style="fill:#c29148"
   d="m 120.2,729.29999 h 4.2 v 6.9 h -4.2 z" />&#10;	<path
   id="rect45"
   class="st9"
   style="fill:#c29148"
   d="m 126.9,729.29999 h 4.2 v 6.9 h -4.2 z" />&#10;	&#10;		<path
   id="rect46"
   class="st9"
   transform="matrix(6.123234e-17 -1 1 6.123234e-17 -573.938 711.4207)"
   style="fill:#c29148"
   d="m 66.599998,639.20001 h 4.2 v 6.9 h -4.2 z" />&#10;	&#10;		<path
   id="rect47"
   class="st9"
   transform="matrix(6.123234e-17 -1 1 6.123234e-17 -483.8733 667.1977)"
   style="fill:#c29148"
   d="m 89.5,572.09998 h 4.2 v 6.9 h -4.2 z" />&#10;	&#10;		<path
   id="rect48"
   class="st9"
   transform="matrix(6.123234e-17 -1 1 6.123234e-17 -617.8921 754.6623)"
   style="fill:#c29148"
   d="m 66.300003,682.79999 h 4.2 v 6.9 h -4.2 z" />&#10;	<path
   id="rect49"
   class="st7"
   style="fill:#474544"
   d="m 195,688 h 4.2 v 6.9 H 195 Z" />&#10;	&#10;		<path
   id="rect50"
   class="st7"
   transform="matrix(6.123234e-17 -1 1 6.123234e-17 -438.9218 821.5736)"
   style="fill:#474544"
   d="m 189.2,626.79999 h 4.2 v 6.9 h -4.2 z" />&#10;	&#10;		<path
   id="rect51"
   class="st7"
   transform="matrix(6.123234e-17 -1 1 6.123234e-17 -385.2402 563.9027)"
   style="fill:#474544"
   d="m 87.199997,471.10001 h 4.2 v 6.9 h -4.2 z" />&#10;	&#10;		<path
   id="rect52"
   class="st7"
   transform="matrix(6.123234e-17 -1 1 6.123234e-17 -402.3554 571.2623)"
   style="fill:#474544"
   d="m 82.300003,483.39999 h 4.2 v 6.9 h -4.2 z" />&#10;	&#10;		<path
   id="rect53"
   class="st7"
   transform="matrix(6.123234e-17 -1 1 6.123234e-17 -384.3121 774.2264)"
   style="fill:#474544"
   d="m 192.8,575.79999 h 4.2 v 6.9 h -4.2 z" />&#10;	<path
   class="st11"
   d="M186.3,893H57.5c-2.1,0-3.9-1.7-3.9-3.9V781c0-2.1,1.7-3.9,3.9-3.9h128.8c2.1,0,3.9,1.7,3.9,3.9v108.1   C190.2,891.2,188.5,893,186.3,893z"
   id="path53" />&#10;	<path
   id="rect54"
   class="st12"
   style="fill:#c2bfab"
   d="M 101.5,939.20001 H 112 v 5.9 h -10.5 z" />&#10;	<path
   id="rect55"
   class="st12"
   style="fill:#c2bfab"
   d="m 130.3,939.40002 h 10.5 v 5.9 h -10.5 z" />&#10;	<path
   id="rect56"
   class="st12"
   style="fill:#c2bfab"
   d="M 101.5,977 H 112 v 5.9 h -10.5 z" />&#10;	<path
   id="rect57"
   class="st12"
   style="fill:#c2bfab"
   d="m 130.3,977.09998 h 10.5 v 5.9 h -10.5 z" />&#10;	<path
   id="polyline57"
   class="st13"
   style="fill:none;stroke:#95ac6e;stroke-miterlimit:10"
   d="m 17.5,421.7 v 4.5 l 17.9,17.9 v 48.6 L 51,508.3 v 134.8 l 4.9,4.9 h 35.3" />&#10;	<path
   id="polyline58"
   class="st13"
   style="fill:none;stroke:#95ac6e;stroke-miterlimit:10"
   d="m 22.9,448.6 8.1,8.1 v 37.9 l 15.7,15.7 v 135.2 l 5.9,6 H 91" />&#10;	<path
   id="polyline59"
   class="st13"
   style="fill:none;stroke:#95ac6e;stroke-miterlimit:10"
   d="M 23.2,507.1 43,526.8 V 648 l 10.4,10.4 H 95" />&#10;	<path
   id="polyline60"
   class="st13"
   style="fill:none;stroke:#95ac6e;stroke-miterlimit:10"
   d="M 23.2,536.5 39.8,553 v 96.9 l 12.1,12.2 h 43.2" />&#10;	<path
   id="polyline61"
   class="st13"
   style="fill:none;stroke:#95ac6e;stroke-miterlimit:10"
   d="m 23.2,566.6 12.4,12.3 V 655 l 13.9,13.9 h 43.9" />&#10;	<path
   id="polyline62"
   class="st13"
   style="fill:none;stroke:#95ac6e;stroke-miterlimit:10"
   d="m 22.9,594.8 8.7,8.7 v 54.1 l 14.8,14.8 h 49.7" />&#10;	<path
   id="polyline63"
   class="st13"
   style="fill:none;stroke:#95ac6e;stroke-miterlimit:10"
   d="m 22.9,653.4 22.4,22.5 h 57.4" />&#10;	<path
   id="line63"
   class="st13"
   style="fill:none;stroke:#95ac6e;stroke-miterlimit:10"
   d="M 23.700001,679.40002 H 98.800003" />&#10;	<path
   class="st13"
   d="M23.2,705.7c0.1-0.6,17.3-17.3,17.3-17.3H53l4.9,4.9h45.7"
   id="path63" />&#10;	<path
   id="polyline64"
   class="st13"
   style="fill:none;stroke:#95ac6e;stroke-miterlimit:10"
   d="m 20.4,731.6 5.3,-5.3 v -7.8 l 5.2,-5.2 v -8.4 l 13,-13.1 h 8.7 l 4.7,4.7 h 38" />&#10;	<path
   class="st13"
   d="M30.7,721.8l3.4-3.4c0,0-0.7-8.9,0-9.6c0.7-0.7,6-6,6-6l6.3-6.3h6.1l3.7,3.7h35.1"
   id="path64" />&#10;	<path
   id="polyline65"
   class="st13"
   style="fill:none;stroke:#95ac6e;stroke-miterlimit:10"
   d="M 29.1,777.7 V 730 l 9.6,-9.5 h 54.7 l 1.6,-1.6 v -9.7" />&#10;	<path
   id="polyline66"
   class="st13"
   style="fill:none;stroke:#95ac6e;stroke-miterlimit:10"
   d="m 17.5,875.9 v -3.6 l 15.4,-15.4 v -80.3 l 2.8,-2.8 V 732 l 6.3,-6.3 h 52.2 l 4.2,-4.2 v -7.3" />&#10;	<path
   class="st13"
   d="M35.7,759.5"
   id="path66" />&#10;	<path
   class="st13"
   d="M35.7,774.8"
   id="path67" />&#10;	<path
   id="polyline67"
   class="st13"
   style="fill:none;stroke:#95ac6e;stroke-miterlimit:10"
   d="m 23.6,936.5 6.8,-6.8 v -64.5 l 7.1,-5.9" />&#10;	<path
   id="polyline68"
   class="st13"
   style="fill:none;stroke:#95ac6e;stroke-miterlimit:10"
   d="m 35.6,869.5 7,-7 v -89.7 l -2.7,-2.7 v -36.8 l 4.7,-4.7 h 50.3 l 7,-7 V 705" />&#10;	<path
   id="polyline69"
   class="st13"
   style="fill:none;stroke:#95ac6e;stroke-miterlimit:10"
   d="m 108.9,711.8 v 8.7 l -13,13 h -4.4" />&#10;	<path
   id="polyline70"
   class="st13"
   style="fill:none;stroke:#95ac6e;stroke-miterlimit:10"
   d="m 93.9,742.1 18.5,-18.5 v -15.4" />&#10;	<path
   id="polyline71"
   class="st13"
   style="fill:none;stroke:#95ac6e;stroke-miterlimit:10"
   d="m 115.9,713.6 v 11.6 l -13.7,13.7 V 759 l -6.3,6.3 H 65 l -9.5,-9.5" />&#10;	<path
   id="polyline72"
   class="st13"
   style="fill:none;stroke:#95ac6e;stroke-miterlimit:10"
   d="m 133.9,752.6 4.8,-4.8 v -13.3 l -3.2,-3.2 v -10 l -3.1,-3.1 v -11" />&#10;	<path
   id="polyline73"
   class="st13"
   style="fill:none;stroke:#95ac6e;stroke-miterlimit:10"
   d="m 137.3,711.3 v 7.9 l 2,2 v 6.3 l 13.4,13.5 h 12.2 l 14.2,14.2" />&#10;	<path
   id="polyline74"
   class="st13"
   style="fill:none;stroke:#95ac6e;stroke-miterlimit:10"
   d="m 145.3,709.1 v 10.4 l 6,6 h 21 l 28.2,28.3 v 112.6 l 6.2,6.2 v 50.8 l 5.6,5.6 v 20.2 l 11,11 v 5.4" />&#10;	<path
   id="polyline75"
   class="st13"
   style="fill:none;stroke:#95ac6e;stroke-miterlimit:10"
   d="m 150.7,709.6 v 7.3 l 4,4 h 18.9 l 31.6,31.6 v 111.4 l 6.2,6.2 v 52.6 l 4.2,4.2 v 8.8" />&#10;	<path
   id="polyline76"
   class="st13"
   style="fill:none;stroke:#95ac6e;stroke-miterlimit:10"
   d="m 157.5,704.4 h 7.8 l 45.8,45.8 v 111.7 l 16.1,16.1" />&#10;	<path
   id="polyline77"
   class="st13"
   style="fill:none;stroke:#95ac6e;stroke-miterlimit:10"
   d="m 157.5,700 h 9.4 l 25.2,25.2" />&#10;	<path
   id="polyline78"
   class="st13"
   style="fill:none;stroke:#95ac6e;stroke-miterlimit:10"
   d="m 158.6,694.9 h 8 l 23.5,23.5 h 5.4 l 10.8,10.8 v 6.9" />&#10;	<path
   id="polyline79"
   class="st13"
   style="fill:none;stroke:#95ac6e;stroke-miterlimit:10"
   d="m 158.2,690.4 h 9.1 l 23.1,23.1 h 10.5" />&#10;	<path
   id="polyline80"
   class="st13"
   style="fill:none;stroke:#95ac6e;stroke-miterlimit:10"
   d="m 158.2,686.3 h 10.9 l 5,5" />&#10;	<path
   id="polyline81"
   class="st13"
   style="fill:none;stroke:#95ac6e;stroke-miterlimit:10"
   d="m 158.2,681.3 h 17.2 l 27.4,27.3 h 3.5 l 9.6,9.7 v 12.4" />&#10;	<path
   id="line81"
   class="st13"
   style="fill:none;stroke:#95ac6e;stroke-miterlimit:10"
   d="M 158.60001,675.90002 H 167.7" />&#10;	<path
   id="polyline82"
   class="st13"
   style="fill:none;stroke:#95ac6e;stroke-miterlimit:10"
   d="m 156.4,670.5 h 15.4 l 7.4,7.3" />&#10;	<path
   id="polyline83"
   class="st13"
   style="fill:none;stroke:#95ac6e;stroke-miterlimit:10"
   d="m 187.9,690.4 4.5,-4.5 v -19.3 h 11" />&#10;	<path
   id="polyline84"
   class="st13"
   style="fill:none;stroke:#95ac6e;stroke-miterlimit:10"
   d="m 158.6,662.1 h 50.9 l 9,8.9" />&#10;	<path
   id="polyline85"
   class="st13"
   style="fill:none;stroke:#95ac6e;stroke-miterlimit:10"
   d="m 158.2,657.6 h 55.6 l 6.5,-6.5" />&#10;	<path
   id="polyline86"
   class="st13"
   style="fill:none;stroke:#95ac6e;stroke-miterlimit:10"
   d="m 157.5,653.4 h 41.3 l 8.3,-8.2 v -40.3 l 12.5,-12.5" />&#10;	<path
   id="polyline87"
   class="st13"
   style="fill:none;stroke:#95ac6e;stroke-miterlimit:10"
   d="m 158.6,649.2 h 20.5 l 23.3,-23.3 v -22.8" />&#10;	<path
   id="polyline88"
   class="st13"
   style="fill:none;stroke:#95ac6e;stroke-miterlimit:10"
   d="m 159.7,644.4 h 7.5 l 4.6,-4.6" />&#10;	<path
   class="st13"
   d="M147.8,639.1c-0.2-0.3,9.2-9.2,9.2-9.2h15.6v-33.5l2.8-2.8V586"
   id="path88" />&#10;	<path
   class="st13"
   d="M147,636.9c0-0.2,0-6.5,0-6.5l10.3-10.3"
   id="path89" />&#10;	<path
   id="polyline89"
   class="st13"
   style="fill:none;stroke:#95ac6e;stroke-miterlimit:10"
   d="M 140.1,637.8 V 627 l 7.3,-7.3" />&#10;	<path
   id="line89"
   class="st13"
   style="fill:none;stroke:#95ac6e;stroke-miterlimit:10"
   d="M 136.60001,634.79999 V 617.20001" />&#10;	<path
   class="st13"
   d="M133.1,636.6c0-0.6,0-15.2,0-15.2l-4.2-4.2"
   id="path90" />&#10;	<path
   class="st13"
   d="M122.6,636.2c0-0.6,0-20.7,0-20.7"
   id="path91" />&#10;	<path
   class="st13"
   d="M119.2,637.8c0-0.3,0-11.1,0-11.1l-7.6-7.6"
   id="path92" />&#10;	<path
   id="polyline92"
   class="st13"
   style="fill:none;stroke:#95ac6e;stroke-miterlimit:10"
   d="M 115.6,637.4 V 631 l -13.8,-13.8 v -6.5 l 3.2,-3.2 h 3.9 l 2.6,-2.6 V 594.4 L 106.1,589 H 100" />&#10;	<path
   id="polyline93"
   class="st13"
   style="fill:none;stroke:#95ac6e;stroke-miterlimit:10"
   d="m 99.8,594.8 h 5.6 l 3.1,3 v 5.3 l -2.8,2.7 h -4.6 l -3.4,3.4 v 9 l 11,11.1 v 6.7" />&#10;	<path
   id="polyline94"
   class="st13"
   style="fill:none;stroke:#95ac6e;stroke-miterlimit:10"
   d="M 91.3,599.3 V 616 l 13.9,13.9 v 9.5" />&#10;	<path
   id="polyline95"
   class="st13"
   style="fill:none;stroke:#95ac6e;stroke-miterlimit:10"
   d="m 76.5,598.5 v 7.1 l 9.4,9.4 v 3.9 l 13.1,13 v 9.1" />&#10;	<path
   class="st13"
   d="M94.8,635.1c0-0.1,0-5,0-5l-11.7-11.7v-1.1l-4.5-4.5h-6.4l-1.7-1.7h-6.9l-6.7-6.7V590l1.6-1.6h8.8"
   id="path95" />&#10;	<path
   id="polyline96"
   class="st13"
   style="fill:none;stroke:#95ac6e;stroke-miterlimit:10"
   d="m 69.1,582.3 h -8.7 l -5,5 v 17.9 l 8,8 h 6.1 l 6.4,6.4 h 2.5 l 14.1,14" />&#10;	<path
   id="line96"
   class="st13"
   style="fill:none;stroke:#95ac6e;stroke-miterlimit:10"
   d="M 73.800003,555.70001 56,573.40002" />&#10;	<path
   id="polyline97"
   class="st13"
   style="fill:none;stroke:#95ac6e;stroke-miterlimit:10"
   d="m 137.6,616.3 v -6.1 l -2.9,-3 v -3 l -4.5,-4.5 h -5 l -4.1,-4 v -19 L 109.7,565.3 V 483.1 L 124,468.8 v -9.1 l 3.7,-3.7" />&#10;	<path
   class="st13"
   d="M135.3,508.9c0-0.6,0-9,0-9l-3.1-3.1h-9.8l-4.5-4.5v-4.3"
   id="path97" />&#10;	<path
   id="polyline98"
   class="st13"
   style="fill:none;stroke:#95ac6e;stroke-miterlimit:10"
   d="m 129.3,541.3 v 5.4 l -3.2,3.2 h -5.9 l -1.6,1.5" />&#10;	<path
   id="polyline99"
   class="st13"
   style="fill:none;stroke:#95ac6e;stroke-miterlimit:10"
   d="m 62.9,454.4 v 9.4 l 16.2,16.3 h 4.5 l 4.9,4.8 v 8.2 l -4.6,4.6 v 13.5" />&#10;	<path
   id="rect99"
   class="st14"
   style="fill:#e8d28a"
   d="m 45.599998,447.29999 h 18.9 v 9.6 h -18.9 z" />&#10;	<g
   id="g104">&#10;		<path
   id="rect100"
   class="st15"
   style="fill:#cecece"
   d="m 102.7,445.20001 h 4.3 v 11.5 h -4.3 z" />&#10;		<path
   id="rect101"
   class="st15"
   style="fill:#cecece"
   d="m 110.4,445.20001 h 4.3 v 11.5 h -4.3 z" />&#10;		<path
   id="rect102"
   class="st15"
   style="fill:#cecece"
   d="m 118.1,445.20001 h 4.3 v 11.5 h -4.3 z" />&#10;		<path
   id="rect103"
   class="st15"
   style="fill:#cecece"
   d="m 125.7,445.20001 h 4.3 v 11.5 h -4.3 z" />&#10;		<path
   id="rect104"
   class="st15"
   style="fill:#cecece"
   d="m 133.39999,445.20001 h 4.3 v 11.5 h -4.3 z" />&#10;	</g>&#10;	<g
   id="g106">&#10;		<path
   class="st16"
   d="M106.8,466v-5.5h2.5v5.8c0,2,0.6,2.7,1.7,2.7c1.2,0,1.8-0.7,1.8-2.7v-5.8h2.4v5.5c0,3.5-1.4,5.1-4.2,5.1    S106.8,469.5,106.8,466z"
   id="path104" />&#10;		<path
   class="st16"
   d="M116.7,469.5l1.3-1.6c0.7,0.6,1.7,1,2.6,1c0.9,0,1.4-0.4,1.4-0.9c0-0.6-0.6-0.8-1.5-1.2l-1.3-0.6    c-1.1-0.4-2.1-1.3-2.1-2.8c0-1.7,1.6-3.2,3.8-3.2c1.2,0,2.5,0.5,3.4,1.3l-1.3,1.6c-0.7-0.5-1.4-0.8-2.1-0.8    c-0.8,0-1.3,0.3-1.3,0.8c0,0.6,0.7,0.8,1.6,1.2l1.3,0.5c1.3,0.5,2.1,1.4,2.1,2.8c0,1.7-1.5,3.3-4,3.3    C119.1,471.1,117.8,470.6,116.7,469.5z"
   id="path105" />&#10;		<path
   class="st16"
   d="M126.3,460.4h3.6c2.2,0,3.9,0.6,3.9,2.6c0,0.9-0.5,1.9-1.4,2.2v0.1c1.1,0.3,1.9,1.1,1.9,2.4    c0,2.1-1.8,3.1-4.1,3.1h-3.9V460.4z M129.8,464.6c1.1,0,1.5-0.5,1.5-1.2c0-0.8-0.5-1.1-1.5-1.1h-1.1v2.2H129.8z M130,469    c1.2,0,1.8-0.4,1.8-1.3s-0.6-1.2-1.8-1.2h-1.2v2.5H130z"
   id="path106" />&#10;	</g>&#10;	<path
   class="st17"
   d="M170.2,541.8h-45.7c-0.5,0-1-0.4-1-1v-33.5c0-0.5,0.4-1,1-1h45.7c0.5,0,1,0.4,1,1v33.5   C171.1,541.4,170.7,541.8,170.2,541.8z"
   id="path107" />&#10;	<g
   id="g113">&#10;		<path
   id="rect107"
   class="st15"
   style="fill:#cecece"
   d="m 128.60001,502.20001 h 1.4 v 4.1 h -1.4 z" />&#10;		<path
   id="rect108"
   class="st15"
   style="fill:#cecece"
   d="m 134.60001,502.20001 h 1.4 v 4.1 h -1.4 z" />&#10;		<path
   id="rect109"
   class="st15"
   style="fill:#cecece"
   d="m 140.60001,502.20001 h 1.4 v 4.1 h -1.4 z" />&#10;		<path
   id="rect110"
   class="st15"
   style="fill:#cecece"
   d="m 146.60001,502.20001 h 1.4 v 4.1 h -1.4 z" />&#10;		<path
   id="rect111"
   class="st15"
   style="fill:#cecece"
   d="m 152.60001,502.20001 h 1.4 v 4.1 h -1.4 z" />&#10;		<path
   id="rect112"
   class="st15"
   style="fill:#cecece"
   d="m 158.60001,502.20001 h 1.4 v 4.1 h -1.4 z" />&#10;		<path
   id="rect113"
   class="st15"
   style="fill:#cecece"
   d="m 164.60001,502.20001 h 1.4 v 4.1 h -1.4 z" />&#10;	</g>&#10;	<g
   id="g120">&#10;		<path
   id="rect114"
   class="st15"
   style="fill:#cecece"
   d="m 128.60001,541.79999 h 1.4 v 4.1 h -1.4 z" />&#10;		<path
   id="rect115"
   class="st15"
   style="fill:#cecece"
   d="m 134.60001,541.79999 h 1.4 v 4.1 h -1.4 z" />&#10;		<path
   id="rect116"
   class="st15"
   style="fill:#cecece"
   d="m 140.60001,541.79999 h 1.4 v 4.1 h -1.4 z" />&#10;		<path
   id="rect117"
   class="st15"
   style="fill:#cecece"
   d="m 146.60001,541.79999 h 1.4 v 4.1 h -1.4 z" />&#10;		<path
   id="rect118"
   class="st15"
   style="fill:#cecece"
   d="m 152.60001,541.79999 h 1.4 v 4.1 h -1.4 z" />&#10;		<path
   id="rect119"
   class="st15"
   style="fill:#cecece"
   d="m 158.60001,541.79999 h 1.4 v 4.1 h -1.4 z" />&#10;		<path
   id="rect120"
   class="st15"
   style="fill:#cecece"
   d="m 164.60001,541.79999 h 1.4 v 4.1 h -1.4 z" />&#10;	</g>&#10;	<g
   id="g125">&#10;		<path
   id="rect121"
   class="st18"
   style="fill:#868c97"
   d="M 61.400002,510.20001 H 100.7 v 48.9 H 61.400002 Z" />&#10;		<path
   class="st19"
   d="M81,552.9L81,552.9c-7.6,0-13.7-6.1-13.7-13.7v-9.1c0-7.6,6.1-13.7,13.7-13.7h0c7.6,0,13.7,6.1,13.7,13.7    v9.1C94.7,546.8,88.6,552.9,81,552.9z"
   id="path121" />&#10;		<path
   class="st19"
   d="M61.4,520.5L61.4,520.5l0-10.3h10.3v0C71.6,515.9,67.1,520.5,61.4,520.5z"
   id="path122" />&#10;		<path
   class="st19"
   d="M71.6,559.2H61.4v-10.3h0C67.1,548.9,71.6,553.5,71.6,559.2L71.6,559.2z"
   id="path123" />&#10;		<path
   class="st19"
   d="M100.7,520.5L100.7,520.5c-5.7,0-10.3-4.6-10.3-10.3v0h10.3V520.5z"
   id="path124" />&#10;		<path
   class="st19"
   d="M100.7,559.2H90.4l0,0c0-5.7,4.6-10.3,10.3-10.3h0V559.2z"
   id="path125" />&#10;	</g>&#10;	<g
   id="g134">&#10;		<path
   id="rect125"
   class="st17"
   style="fill:#36323e"
   d="M 64.900002,579.70001 H 99.5 v 22.9 H 64.900002 Z" />&#10;		<g
   id="g129">&#10;			<path
   id="rect126"
   class="st15"
   style="fill:#cecece"
   d="m 60.700001,580.90002 h 4.2 v 3.4 h -4.2 z" />&#10;			<path
   id="rect127"
   class="st15"
   style="fill:#cecece"
   d="m 60.700001,586.59998 h 4.2 v 3.4 h -4.2 z" />&#10;			<path
   id="rect128"
   class="st15"
   style="fill:#cecece"
   d="m 60.700001,592.29999 h 4.2 v 3.4 h -4.2 z" />&#10;			<path
   id="rect129"
   class="st15"
   style="fill:#cecece"
   d="m 60.700001,598.09998 h 4.2 v 3.4 h -4.2 z" />&#10;		</g>&#10;		<g
   id="g133">&#10;			<path
   id="rect130"
   class="st15"
   style="fill:#cecece"
   d="m 99.5,580.90002 h 4.2 v 3.4 h -4.2 z" />&#10;			<path
   id="rect131"
   class="st15"
   style="fill:#cecece"
   d="m 99.5,586.59998 h 4.2 v 3.4 h -4.2 z" />&#10;			<path
   id="rect132"
   class="st15"
   style="fill:#cecece"
   d="m 99.5,592.29999 h 4.2 v 3.4 h -4.2 z" />&#10;			<path
   id="rect133"
   class="st15"
   style="fill:#cecece"
   d="m 99.5,598.09998 h 4.2 v 3.4 h -4.2 z" />&#10;		</g>&#10;	</g>&#10;	<path
   id="rect134"
   class="st7"
   style="fill:#474544"
   d="m 135.5,611.20001 h 4.2 v 6.9 h -4.2 z" />&#10;	<g
   id="g215">&#10;		<path
   class="st20"
   d="M160.4,715H81.4c-0.7,0-1.3-0.6-1.3-1.3v-79.1c0-0.7,0.6-1.3,1.3-1.3h79.1c0.7,0,1.3,0.6,1.3,1.3v79.1    C161.7,714.4,161.1,715,160.4,715z"
   id="path134" />&#10;		<g
   id="g154">&#10;			<path
   id="rect135"
   class="st15"
   style="fill:#cecece"
   d="m 86.199997,631.40002 h 3.1 v 1.9 h -3.1 z" />&#10;			<path
   id="rect136"
   class="st15"
   style="fill:#cecece"
   d="m 89.699997,631.40002 h 3.1 v 1.9 h -3.1 z" />&#10;			<path
   id="rect137"
   class="st15"
   style="fill:#cecece"
   d="m 93.199997,631.40002 h 3.1 v 1.9 h -3.1 z" />&#10;			<path
   id="rect138"
   class="st15"
   style="fill:#cecece"
   d="m 96.699997,631.40002 h 3.1 v 1.9 h -3.1 z" />&#10;			<path
   id="rect139"
   class="st15"
   style="fill:#cecece"
   d="m 100.2,631.40002 h 3.1 v 1.9 h -3.1 z" />&#10;			<path
   id="rect140"
   class="st15"
   style="fill:#cecece"
   d="m 103.6,631.40002 h 3.1 v 1.9 h -3.1 z" />&#10;			<path
   id="rect141"
   class="st15"
   style="fill:#cecece"
   d="m 107.1,631.40002 h 3.1 v 1.9 h -3.1 z" />&#10;			<path
   id="rect142"
   class="st15"
   style="fill:#cecece"
   d="m 114.1,631.40002 h 3.1 v 1.9 h -3.1 z" />&#10;			<path
   id="rect143"
   class="st15"
   style="fill:#cecece"
   d="m 121.1,631.40002 h 3.1 v 1.9 h -3.1 z" />&#10;			<path
   id="rect144"
   class="st15"
   style="fill:#cecece"
   d="m 128,631.40002 h 3.1 v 1.9 H 128 Z" />&#10;			<path
   id="rect145"
   class="st15"
   style="fill:#cecece"
   d="m 138.5,631.40002 h 3.1 v 1.9 h -3.1 z" />&#10;			<path
   id="rect146"
   class="st15"
   style="fill:#cecece"
   d="m 142,631.40002 h 3.1 v 1.9 H 142 Z" />&#10;			<path
   id="rect147"
   class="st15"
   style="fill:#cecece"
   d="m 149,631.40002 h 3.1 v 1.9 H 149 Z" />&#10;			<path
   id="rect148"
   class="st15"
   style="fill:#cecece"
   d="m 110.6,631.40002 h 3.1 v 1.9 h -3.1 z" />&#10;			<path
   id="rect149"
   class="st15"
   style="fill:#cecece"
   d="m 117.6,631.40002 h 3.1 v 1.9 h -3.1 z" />&#10;			<path
   id="rect150"
   class="st15"
   style="fill:#cecece"
   d="m 124.6,631.40002 h 3.1 v 1.9 h -3.1 z" />&#10;			<path
   id="rect151"
   class="st15"
   style="fill:#cecece"
   d="m 131.5,631.40002 h 3.1 v 1.9 h -3.1 z" />&#10;			<path
   id="rect152"
   class="st15"
   style="fill:#cecece"
   d="m 135,631.40002 h 3.1 v 1.9 H 135 Z" />&#10;			<path
   id="rect153"
   class="st15"
   style="fill:#cecece"
   d="m 145.5,631.40002 h 3.1 v 1.9 h -3.1 z" />&#10;			<path
   id="rect154"
   class="st15"
   style="fill:#cecece"
   d="m 152.39999,631.40002 h 3.1 v 1.9 h -3.1 z" />&#10;		</g>&#10;		<g
   id="g174">&#10;			<path
   id="rect155"
   class="st15"
   style="fill:#cecece"
   d="m 86.400002,715 h 3.099999 v 1.9 h -3.099999 z" />&#10;			<path
   id="rect156"
   class="st15"
   style="fill:#cecece"
   d="m 89.900002,715 h 3.099999 v 1.9 h -3.099999 z" />&#10;			<path
   id="rect157"
   class="st15"
   style="fill:#cecece"
   d="m 93.400002,715 h 3.099999 v 1.9 h -3.099999 z" />&#10;			<path
   id="rect158"
   class="st15"
   style="fill:#cecece"
   d="M 96.900002,715 H 100 v 1.9 h -3.099998 z" />&#10;			<path
   id="rect159"
   class="st15"
   style="fill:#cecece"
   d="m 100.4,715 h 3.1 v 1.9 h -3.1 z" />&#10;			<path
   id="rect160"
   class="st15"
   style="fill:#cecece"
   d="m 103.8,715 h 3.1 v 1.9 h -3.1 z" />&#10;			<path
   id="rect161"
   class="st15"
   style="fill:#cecece"
   d="m 107.3,715 h 3.1 v 1.9 h -3.1 z" />&#10;			<path
   id="rect162"
   class="st15"
   style="fill:#cecece"
   d="m 114.3,715 h 3.1 v 1.9 h -3.1 z" />&#10;			<path
   id="rect163"
   class="st15"
   style="fill:#cecece"
   d="m 121.3,715 h 3.1 v 1.9 h -3.1 z" />&#10;			<path
   id="rect164"
   class="st15"
   style="fill:#cecece"
   d="m 128.2,715 h 3.1 v 1.9 h -3.1 z" />&#10;			<path
   id="rect165"
   class="st15"
   style="fill:#cecece"
   d="m 138.7,715 h 3.1 v 1.9 h -3.1 z" />&#10;			<path
   id="rect166"
   class="st15"
   style="fill:#cecece"
   d="m 142.2,715 h 3.1 v 1.9 h -3.1 z" />&#10;			<path
   id="rect167"
   class="st15"
   style="fill:#cecece"
   d="m 149.10001,715 h 3.1 v 1.9 h -3.1 z" />&#10;			<path
   id="rect168"
   class="st15"
   style="fill:#cecece"
   d="m 110.8,715 h 3.1 v 1.9 h -3.1 z" />&#10;			<path
   id="rect169"
   class="st15"
   style="fill:#cecece"
   d="m 117.8,715 h 3.1 v 1.9 h -3.1 z" />&#10;			<path
   id="rect170"
   class="st15"
   style="fill:#cecece"
   d="m 124.7,715 h 3.1 v 1.9 h -3.1 z" />&#10;			<path
   id="rect171"
   class="st15"
   style="fill:#cecece"
   d="m 131.7,715 h 3.1 v 1.9 h -3.1 z" />&#10;			<path
   id="rect172"
   class="st15"
   style="fill:#cecece"
   d="m 135.2,715 h 3.1 v 1.9 h -3.1 z" />&#10;			<path
   id="rect173"
   class="st15"
   style="fill:#cecece"
   d="m 145.7,715 h 3.1 v 1.9 h -3.1 z" />&#10;			<path
   id="rect174"
   class="st15"
   style="fill:#cecece"
   d="m 152.60001,715 h 3.1 v 1.9 h -3.1 z" />&#10;		</g>&#10;		<g
   id="g194">&#10;			&#10;				<path
   id="rect175"
   class="st15"
   transform="matrix(6.123234e-17 -1 1 6.123234e-17 -628.1528 786.3333)"
   style="fill:#cecece"
   d="m 77.5,706.29999 h 3.1 v 1.9 h -3.1 z" />&#10;			&#10;				<path
   id="rect176"
   class="st15"
   transform="matrix(6.123234e-17 -1 1 6.123234e-17 -624.6677 782.8483)"
   style="fill:#cecece"
   d="m 77.5,702.79999 h 3.1 v 1.9 h -3.1 z" />&#10;			&#10;				<path
   id="rect177"
   class="st15"
   transform="matrix(6.123234e-17 -1 1 6.123234e-17 -621.1827 779.3632)"
   style="fill:#cecece"
   d="m 77.5,699.29999 h 3.1 v 1.9 h -3.1 z" />&#10;			&#10;				<path
   id="rect178"
   class="st15"
   transform="matrix(6.123234e-17 -1 1 6.123234e-17 -617.6976 775.8782)"
   style="fill:#cecece"
   d="m 77.5,695.79999 h 3.1 v 1.9 h -3.1 z" />&#10;			&#10;				<path
   id="rect179"
   class="st15"
   transform="matrix(6.123234e-17 -1 1 6.123234e-17 -614.2126 772.3931)"
   style="fill:#cecece"
   d="m 77.5,692.29999 h 3.1 v 1.9 h -3.1 z" />&#10;			&#10;				<path
   id="rect180"
   class="st15"
   transform="matrix(6.123234e-17 -1 1 6.123234e-17 -610.7275 768.9081)"
   style="fill:#cecece"
   d="m 77.5,688.90002 h 3.1 v 1.9 h -3.1 z" />&#10;			&#10;				<path
   id="rect181"
   class="st15"
   transform="matrix(6.123234e-17 -1 1 6.123234e-17 -607.2425 765.423)"
   style="fill:#cecece"
   d="m 77.5,685.40002 h 3.1 v 1.9 h -3.1 z" />&#10;			&#10;				<path
   id="rect182"
   class="st15"
   transform="matrix(6.123234e-17 -1 1 6.123234e-17 -600.2724 758.4529)"
   style="fill:#cecece"
   d="m 77.5,678.40002 h 3.1 v 1.9 h -3.1 z" />&#10;			&#10;				<path
   id="rect183"
   class="st15"
   transform="matrix(6.123234e-17 -1 1 6.123234e-17 -593.3023 751.4828)"
   style="fill:#cecece"
   d="m 77.5,671.40002 h 3.1 v 1.9 h -3.1 z" />&#10;			&#10;				<path
   id="rect184"
   class="st15"
   transform="matrix(6.123234e-17 -1 1 6.123234e-17 -586.3322 744.5128)"
   style="fill:#cecece"
   d="m 77.5,664.5 h 3.1 v 1.9 h -3.1 z" />&#10;			&#10;				<path
   id="rect185"
   class="st15"
   transform="matrix(6.123234e-17 -1 1 6.123234e-17 -575.8771 734.0576)"
   style="fill:#cecece"
   d="m 77.5,654 h 3.1 v 1.9 h -3.1 z" />&#10;			&#10;				<path
   id="rect186"
   class="st15"
   transform="matrix(6.123234e-17 -1 1 6.123234e-17 -572.3921 730.5726)"
   style="fill:#cecece"
   d="m 77.5,650.5 h 3.1 v 1.9 h -3.1 z" />&#10;			&#10;				<path
   id="rect187"
   class="st15"
   transform="matrix(6.123234e-17 -1 1 6.123234e-17 -565.422 723.6025)"
   style="fill:#cecece"
   d="m 77.5,643.59998 h 3.1 v 1.9 h -3.1 z" />&#10;			&#10;				<path
   id="rect188"
   class="st15"
   transform="matrix(6.123234e-17 -1 1 6.123234e-17 -603.7574 761.938)"
   style="fill:#cecece"
   d="m 77.5,681.90002 h 3.1 v 1.9 h -3.1 z" />&#10;			&#10;				<path
   id="rect189"
   class="st15"
   transform="matrix(6.123234e-17 -1 1 6.123234e-17 -596.7874 754.9679)"
   style="fill:#cecece"
   d="m 77.5,674.90002 h 3.1 v 1.9 h -3.1 z" />&#10;			&#10;				<path
   id="rect190"
   class="st15"
   transform="matrix(6.123234e-17 -1 1 6.123234e-17 -589.8173 747.9978)"
   style="fill:#cecece"
   d="m 77.5,667.90002 h 3.1 v 1.9 h -3.1 z" />&#10;			&#10;				<path
   id="rect191"
   class="st15"
   transform="matrix(6.123234e-17 -1 1 6.123234e-17 -582.8472 741.0277)"
   style="fill:#cecece"
   d="m 77.5,661 h 3.1 v 1.9 h -3.1 z" />&#10;			&#10;				<path
   id="rect192"
   class="st15"
   transform="matrix(6.123234e-17 -1 1 6.123234e-17 -579.3622 737.5427)"
   style="fill:#cecece"
   d="m 77.5,657.5 h 3.1 v 1.9 h -3.1 z" />&#10;			&#10;				<path
   id="rect193"
   class="st15"
   transform="matrix(6.123234e-17 -1 1 6.123234e-17 -568.907 727.0875)"
   style="fill:#cecece"
   d="m 77.5,647 h 3.1 v 1.9 h -3.1 z" />&#10;			&#10;				<path
   id="rect194"
   class="st15"
   transform="matrix(6.123234e-17 -1 1 6.123234e-17 -561.937 720.1174)"
   style="fill:#cecece"
   d="m 77.5,640.09998 h 3.1 v 1.9 h -3.1 z" />&#10;		</g>&#10;		<g
   id="g214">&#10;			&#10;				<path
   id="rect195"
   class="st15"
   transform="matrix(6.123234e-17 -1 1 6.123234e-17 -544.5629 869.9232)"
   style="fill:#cecece"
   d="m 161.10001,706.29999 h 3.1 v 1.9 h -3.1 z" />&#10;			&#10;				<path
   id="rect196"
   class="st15"
   transform="matrix(6.123234e-17 -1 1 6.123234e-17 -541.0778 866.4382)"
   style="fill:#cecece"
   d="m 161.10001,702.79999 h 3.1 v 1.9 h -3.1 z" />&#10;			&#10;				<path
   id="rect197"
   class="st15"
   transform="matrix(6.123234e-17 -1 1 6.123234e-17 -537.5928 862.9531)"
   style="fill:#cecece"
   d="m 161.10001,699.29999 h 3.1 v 1.9 h -3.1 z" />&#10;			&#10;				<path
   id="rect198"
   class="st15"
   transform="matrix(6.123234e-17 -1 1 6.123234e-17 -534.1077 859.4681)"
   style="fill:#cecece"
   d="m 161.10001,695.79999 h 3.1 v 1.9 h -3.1 z" />&#10;			&#10;				<path
   id="rect199"
   class="st15"
   transform="matrix(6.123234e-17 -1 1 6.123234e-17 -530.6227 855.983)"
   style="fill:#cecece"
   d="m 161.10001,692.29999 h 3.1 v 1.9 h -3.1 z" />&#10;			&#10;				<path
   id="rect200"
   class="st15"
   transform="matrix(6.123234e-17 -1 1 6.123234e-17 -527.1376 852.498)"
   style="fill:#cecece"
   d="m 161.10001,688.90002 h 3.1 v 1.9 h -3.1 z" />&#10;			&#10;				<path
   id="rect201"
   class="st15"
   transform="matrix(6.123234e-17 -1 1 6.123234e-17 -523.6526 849.0129)"
   style="fill:#cecece"
   d="m 161.10001,685.40002 h 3.1 v 1.9 h -3.1 z" />&#10;			&#10;				<path
   id="rect202"
   class="st15"
   transform="matrix(6.123234e-17 -1 1 6.123234e-17 -516.6825 842.0428)"
   style="fill:#cecece"
   d="m 161.10001,678.40002 h 3.1 v 1.9 h -3.1 z" />&#10;			&#10;				<path
   id="rect203"
   class="st15"
   transform="matrix(6.123234e-17 -1 1 6.123234e-17 -509.7124 835.0728)"
   style="fill:#cecece"
   d="m 161.10001,671.40002 h 3.1 v 1.9 h -3.1 z" />&#10;			&#10;				<path
   id="rect204"
   class="st15"
   transform="matrix(6.123234e-17 -1 1 6.123234e-17 -502.7423 828.1027)"
   style="fill:#cecece"
   d="m 161.10001,664.5 h 3.1 v 1.9 h -3.1 z" />&#10;			&#10;				<path
   id="rect205"
   class="st15"
   transform="matrix(6.123234e-17 -1 1 6.123234e-17 -492.2872 817.6476)"
   style="fill:#cecece"
   d="m 161.10001,654 h 3.1 v 1.9 h -3.1 z" />&#10;			&#10;				<path
   id="rect206"
   class="st15"
   transform="matrix(6.123234e-17 -1 1 6.123234e-17 -488.8022 814.1625)"
   style="fill:#cecece"
   d="m 161.10001,650.5 h 3.1 v 1.9 h -3.1 z" />&#10;			&#10;				<path
   id="rect207"
   class="st15"
   transform="matrix(6.123234e-17 -1 1 6.123234e-17 -481.8321 807.1924)"
   style="fill:#cecece"
   d="m 161.10001,643.59998 h 3.1 v 1.9 h -3.1 z" />&#10;			&#10;				<path
   id="rect208"
   class="st15"
   transform="matrix(6.123234e-17 -1 1 6.123234e-17 -520.1675 845.5279)"
   style="fill:#cecece"
   d="m 161.10001,681.90002 h 3.1 v 1.9 h -3.1 z" />&#10;			&#10;				<path
   id="rect209"
   class="st15"
   transform="matrix(6.123234e-17 -1 1 6.123234e-17 -513.1974 838.5578)"
   style="fill:#cecece"
   d="m 161.10001,674.90002 h 3.1 v 1.9 h -3.1 z" />&#10;			&#10;				<path
   id="rect210"
   class="st15"
   transform="matrix(6.123234e-17 -1 1 6.123234e-17 -506.2274 831.5878)"
   style="fill:#cecece"
   d="m 161.10001,667.90002 h 3.1 v 1.9 h -3.1 z" />&#10;			&#10;				<path
   id="rect211"
   class="st15"
   transform="matrix(6.123234e-17 -1 1 6.123234e-17 -499.2573 824.6177)"
   style="fill:#cecece"
   d="m 161.10001,661 h 3.1 v 1.9 h -3.1 z" />&#10;			&#10;				<path
   id="rect212"
   class="st15"
   transform="matrix(6.123234e-17 -1 1 6.123234e-17 -495.7722 821.1326)"
   style="fill:#cecece"
   d="m 161.10001,657.5 h 3.1 v 1.9 h -3.1 z" />&#10;			&#10;				<path
   id="rect213"
   class="st15"
   transform="matrix(6.123234e-17 -1 1 6.123234e-17 -485.3171 810.6775)"
   style="fill:#cecece"
   d="m 161.10001,647 h 3.1 v 1.9 h -3.1 z" />&#10;			&#10;				<path
   id="rect214"
   class="st15"
   transform="matrix(6.123234e-17 -1 1 6.123234e-17 -478.347 803.7074)"
   style="fill:#cecece"
   d="m 161.10001,640.09998 h 3.1 v 1.9 h -3.1 z" />&#10;		</g>&#10;		<path
   id="circle214"
   class="st21"
   style="fill:#b9a68f"
   d="m 92.999997,644.40002 a 2.8,2.8 0 0 1 -2.8,2.8 2.8,2.8 0 0 1 -2.8,-2.8 2.8,2.8 0 0 1 2.8,-2.8 2.8,2.8 0 0 1 2.8,2.8 z" />&#10;	</g>&#10;	<path
   id="rect215"
   class="st17"
   style="fill:#36323e"
   d="m 187.10001,599.09998 h 18.2 v 8.6 h -18.2 z" />&#10;	<path
   id="rect216"
   class="st15"
   style="fill:#cecece"
   d="m 189.10001,607.70001 h 2.9 v 8.7 h -2.9 z" />&#10;	<path
   id="rect217"
   class="st15"
   style="fill:#cecece"
   d="m 200.89999,607.70001 h 2.9 v 8.7 h -2.9 z" />&#10;	<path
   id="rect218"
   class="st15"
   style="fill:#cecece"
   d="m 194.8,590.40002 h 2.9 v 8.7 h -2.9 z" />&#10;	&#10;		<path
   id="rect219"
   class="st9"
   transform="matrix(6.123234e-17 -1 1 6.123234e-17 -468.01 813.2049)"
   style="fill:#c29148"
   d="m 170.5,637.20001 h 4.2 v 6.9 h -4.2 z" />&#10;	<path
   id="rect220"
   class="st7"
   style="fill:#474544"
   d="m 189.5,668.29999 h 4.2 v 6.9 h -4.2 z" />&#10;	&#10;		<path
   id="rect221"
   class="st9"
   transform="matrix(0.7071 -0.7071 0.7071 0.7071 -437.4683 325.7274)"
   style="fill:#c29148"
   d="m 172.3,687.5 h 4.2 v 6.9 h -4.2 z" />&#10;	<g
   id="g223">&#10;		<path
   class="st4"
   d="M157,749.7c-5.1,0-9.2,4.1-9.2,9.2s4.1,9.2,9.2,9.2s9.2-4.1,9.2-9.2S162.1,749.7,157,749.7z M157,764.6    c-3.1,0-5.7-2.6-5.7-5.7s2.6-5.7,5.7-5.7c3.1,0,5.7,2.6,5.7,5.7S160.2,764.6,157,764.6z"
   id="path221" />&#10;		<path
   class="st4"
   d="M118.7,750v17.7h17.7V750H118.7z M127.6,764.6c-3.1,0-5.7-2.6-5.7-5.7s2.6-5.7,5.7-5.7c3.1,0,5.7,2.6,5.7,5.7    S130.7,764.6,127.6,764.6z"
   id="path222" />&#10;		<path
   class="st4"
   d="M186.8,749.7c-5.1,0-9.2,4.1-9.2,9.2s4.1,9.2,9.2,9.2s9.2-4.1,9.2-9.2S191.9,749.7,186.8,749.7z M186.8,764.6    c-3.1,0-5.7-2.6-5.7-5.7s2.6-5.7,5.7-5.7c3.1,0,5.7,2.6,5.7,5.7S190,764.6,186.8,764.6z"
   id="path223" />&#10;	</g>&#10;	<path
   class="st4"
   d="M17.5,728.3H0.3v3.4c2.3,0.9,3.9,3.1,3.9,5.7s-1.6,4.8-3.9,5.7v3.4h17.2c5,0,9-4,9-9S22.4,728.3,17.5,728.3z    M15.9,743.4c-3.4,0-6.1-2.7-6.1-6.1s2.7-6.1,6.1-6.1s6.1,2.7,6.1,6.1S19.2,743.4,15.9,743.4z"
   id="path224" />&#10;	<path
   class="st4"
   d="M17.5,698.9H0.3v3.4c2.3,0.9,3.9,3.1,3.9,5.7s-1.6,4.8-3.9,5.7v3.4h17.2c5,0,9-4,9-9v0   C26.5,703,22.4,698.9,17.5,698.9z M15.9,714c-3.4,0-6.1-2.7-6.1-6.1s2.7-6.1,6.1-6.1s6.1,2.7,6.1,6.1S19.2,714,15.9,714z"
   id="path225" />&#10;	<path
   class="st4"
   d="M17.5,669.5H0.3v3.4c2.3,0.9,3.9,3.1,3.9,5.7s-1.6,4.8-3.9,5.7v3.4h17.2c5,0,9-4,9-9v0   C26.5,673.6,22.4,669.5,17.5,669.5z M15.9,684.6c-3.4,0-6.1-2.7-6.1-6.1s2.7-6.1,6.1-6.1s6.1,2.7,6.1,6.1S19.2,684.6,15.9,684.6z"
   id="path226" />&#10;	<path
   class="st4"
   d="M17.5,640.1H0.3v3.4c2.3,0.9,3.9,3.1,3.9,5.7s-1.6,4.8-3.9,5.7v3.4h17.2c5,0,9-4,9-9S22.4,640.1,17.5,640.1z    M15.9,655.2c-3.4,0-6.1-2.7-6.1-6.1s2.7-6.1,6.1-6.1s6.1,2.7,6.1,6.1S19.2,655.2,15.9,655.2z"
   id="path227" />&#10;	<path
   class="st4"
   d="M17.5,581.3H0.3v3.4c2.3,0.9,3.9,3.1,3.9,5.7s-1.6,4.8-3.9,5.7v3.4h17.2c5,0,9-4,9-9S22.4,581.3,17.5,581.3z    M15.9,596.4c-3.4,0-6.1-2.7-6.1-6.1s2.7-6.1,6.1-6.1s6.1,2.7,6.1,6.1S19.2,596.4,15.9,596.4z"
   id="path228" />&#10;	<path
   class="st4"
   d="M17.5,551.9H0.3v3.4c2.3,0.9,3.9,3.1,3.9,5.7s-1.6,4.8-3.9,5.7v3.4h17.2c5,0,9-4,9-9S22.4,551.9,17.5,551.9z    M15.9,567c-3.4,0-6.1-2.7-6.1-6.1s2.7-6.1,6.1-6.1s6.1,2.7,6.1,6.1S19.2,567,15.9,567z"
   id="path229" />&#10;	<path
   class="st4"
   d="M17.5,522.5H0.3v3.4c2.3,0.9,3.9,3.1,3.9,5.7s-1.6,4.8-3.9,5.7v3.4h17.2c5,0,9-4,9-9S22.4,522.5,17.5,522.5z    M15.9,537.7c-3.4,0-6.1-2.7-6.1-6.1s2.7-6.1,6.1-6.1s6.1,2.7,6.1,6.1S19.2,537.7,15.9,537.7z"
   id="path230" />&#10;	<path
   class="st4"
   d="M17.5,493.2H0.3v3.4c2.3,0.9,3.9,3.1,3.9,5.7s-1.6,4.8-3.9,5.7v3.4h17.2c5,0,9-4,9-9S22.4,493.2,17.5,493.2z    M15.9,508.3c-3.4,0-6.1-2.7-6.1-6.1s2.7-6.1,6.1-6.1s6.1,2.7,6.1,6.1S19.2,508.3,15.9,508.3z"
   id="path231" />&#10;	<path
   class="st4"
   d="M17.5,434.4H0.3v3.4c2.3,0.9,3.9,3.1,3.9,5.7s-1.6,4.8-3.9,5.7v3.4h17.2c5,0,9-4,9-9v0   C26.5,438.4,22.4,434.4,17.5,434.4z M15.9,449.5c-3.4,0-6.1-2.7-6.1-6.1s2.7-6.1,6.1-6.1s6.1,2.7,6.1,6.1S19.2,449.5,15.9,449.5z"
   id="path232" />&#10;	<path
   class="st4"
   d="M17.5,405H0.3v3.4c2.3,0.9,3.9,3.1,3.9,5.7s-1.6,4.8-3.9,5.7v3.4h17.2c5,0,9-4,9-9S22.4,405,17.5,405z    M15.9,420.1c-3.4,0-6.1-2.7-6.1-6.1s2.7-6.1,6.1-6.1s6.1,2.7,6.1,6.1S19.2,420.1,15.9,420.1z"
   id="path233" />&#10;	<path
   class="st4"
   d="M17.5,875.3H0.3v3.4c2.3,0.9,3.9,3.1,3.9,5.7s-1.6,4.8-3.9,5.7v3.4h17.2c5,0,9-4,9-9S22.4,875.3,17.5,875.3z    M15.9,890.4c-3.4,0-6.1-2.7-6.1-6.1s2.7-6.1,6.1-6.1s6.1,2.7,6.1,6.1S19.2,890.4,15.9,890.4z"
   id="path234" />&#10;	<path
   class="st4"
   d="M239.5,972.5c0-2.6,1.6-4.8,3.9-5.7v-3.4h-17.2c-5,0-9,4-9,9s4,9,9,9h17.2v-3.4   C241.2,977.3,239.5,975.1,239.5,972.5z M227.8,978.6c-3.4,0-6.1-2.7-6.1-6.1s2.7-6.1,6.1-6.1s6.1,2.7,6.1,6.1   S231.2,978.6,227.8,978.6z"
   id="path235" />&#10;	<path
   class="st4"
   d="M239.5,884.3c0-2.6,1.6-4.8,3.9-5.7v-3.4h-17.2c-5,0-9,4-9,9s4,9,9,9h17.2V890   C241.2,889.1,239.5,886.9,239.5,884.3z M227.8,890.4c-3.4,0-6.1-2.7-6.1-6.1s2.7-6.1,6.1-6.1s6.1,2.7,6.1,6.1   S231.2,890.4,227.8,890.4z"
   id="path236" />&#10;	<path
   class="st4"
   d="M239.5,649.2c0-2.6,1.6-4.8,3.9-5.7v-3.4h-17.2c-5,0-9,4-9,9s4,9,9,9h17.2v-3.4   C241.2,653.9,239.5,651.7,239.5,649.2z M227.8,655.2c-3.4,0-6.1-2.7-6.1-6.1s2.7-6.1,6.1-6.1s6.1,2.7,6.1,6.1   S231.2,655.2,227.8,655.2z"
   id="path237" />&#10;	&#10;		<path
   id="rect237"
   class="st12"
   transform="matrix(6.123234e-17 -1 1 6.123234e-17 -651.7936 838.377)"
   style="fill:#c2bfab"
   d="m 90,743.20001 h 6.7 v 3.7 H 90 Z" />&#10;	<g
   id="g239">&#10;		<path
   class="st22"
   d="M82.2,762.5H50.4c-1.2,0-2.2-1-2.2-2.2v-23.7c0-1.2,1-2.2,2.2-2.2h31.8c1.2,0,2.2,1,2.2,2.2v23.7    C84.4,761.6,83.4,762.5,82.2,762.5z"
   id="path238" />&#10;		<path
   class="st23"
   d="M79.9,760.1H52.6c-0.8,0-1.4-0.6-1.4-1.4v-20.4c0-0.8,0.6-1.4,1.4-1.4h27.3c0.8,0,1.4,0.6,1.4,1.4v20.4    C81.3,759.5,80.7,760.1,79.9,760.1z"
   id="path239" />&#10;	</g>&#10;	&#10;		<path
   id="rect239"
   class="st12"
   transform="matrix(6.123234e-17 -1 1 6.123234e-17 -671.728 858.3113)"
   style="fill:#c2bfab"
   d="m 90,763.20001 h 6.7 v 3.7 H 90 Z" />&#10;	<path
   id="rect240"
   class="st7"
   style="fill:#474544"
   d="m 100.1,747.40002 h 4.2 v 6.9 h -4.2 z" />&#10;	<g
   id="g246">&#10;		<path
   class="st16"
   d="M42.3,567.5v-3.6c0-2.2,0.6-3.9,2.6-3.9c0.9,0,1.9,0.5,2.2,1.4h0.1c0.3-1.1,1.1-1.9,2.4-1.9    c2.1,0,3.1,1.8,3.1,4.1v3.9H42.3z M46.4,564c0-1.1-0.5-1.5-1.2-1.5c-0.8,0-1.1,0.5-1.1,1.5v1.1h2.2V564z M50.8,563.8    c0-1.2-0.4-1.8-1.3-1.8s-1.2,0.6-1.2,1.8v1.2h2.5V563.8z"
   id="path240" />&#10;		<path
   class="st16"
   d="M47.4,558.3c-3.4,0-5.4-1.9-5.4-4.8s2-4.8,5.4-4.8c3.4,0,5.4,1.9,5.4,4.8S50.8,558.3,47.4,558.3z     M47.4,551.3c-2,0-3.2,0.8-3.2,2.2c0,1.4,1.2,2.2,3.2,2.2c2,0,3.3-0.9,3.3-2.2C50.7,552.1,49.4,551.3,47.4,551.3z"
   id="path241" />&#10;		<path
   class="st16"
   d="M47.4,547.3c-3.4,0-5.4-1.9-5.4-4.8s2-4.8,5.4-4.8c3.4,0,5.4,1.9,5.4,4.8S50.8,547.3,47.4,547.3z     M47.4,540.3c-2,0-3.2,0.8-3.2,2.2c0,1.4,1.2,2.2,3.2,2.2c2,0,3.3-0.9,3.3-2.2C50.7,541.1,49.4,540.3,47.4,540.3z"
   id="path242" />&#10;		<path
   class="st16"
   d="M44.3,534.2v2.8h-2.1v-8.1h2.1v2.8h8.3v2.5H44.3z"
   id="path243" />&#10;		<path
   class="st16"
   d="M51.3,528.4l-1.6-1.3c0.6-0.7,1-1.7,1-2.6c0-0.9-0.4-1.4-0.9-1.4c-0.6,0-0.8,0.6-1.2,1.5l-0.6,1.3    c-0.4,1.1-1.3,2.1-2.8,2.1c-1.7,0-3.2-1.6-3.2-3.8c0-1.2,0.5-2.5,1.3-3.4l1.6,1.3c-0.5,0.7-0.8,1.4-0.8,2.1c0,0.8,0.3,1.3,0.8,1.3    c0.6,0,0.8-0.7,1.2-1.6l0.5-1.3c0.5-1.3,1.4-2.1,2.8-2.1c1.7,0,3.3,1.5,3.3,4C52.9,525.9,52.4,527.3,51.3,528.4z"
   id="path244" />&#10;		<path
   class="st16"
   d="M42.3,518.8v-6.6h2.1v4.1h2v-3.5h2.1v3.5h2.2V512h2.1v6.8H42.3z"
   id="path245" />&#10;		<path
   class="st16"
   d="M42.3,510v-2.5h8.3v-4h2.1v6.5H42.3z"
   id="path246" />&#10;	</g>&#10;	<g
   id="g251">&#10;		<path
   class="st16"
   d="M141.4,724.7h3c3.2,0,5.3,1.6,5.3,5.2c0,3.6-2.1,5.2-5.1,5.2h-3.1V724.7z M144.3,733.1    c1.7,0,2.9-0.8,2.9-3.2c0-2.5-1.2-3.2-2.9-3.2h-0.4v6.4H144.3z"
   id="path247" />&#10;		<path
   class="st16"
   d="M151.6,724.7h6.6v2.1h-4.1v2h3.5v2.1h-3.5v2.2h4.3v2.1h-6.8V724.7z"
   id="path248" />&#10;		<path
   class="st16"
   d="M160.4,724.7h3.6c2.2,0,3.9,0.6,3.9,2.6c0,0.9-0.5,1.9-1.4,2.2v0.1c1.1,0.3,1.9,1.1,1.9,2.4    c0,2.1-1.8,3.1-4.1,3.1h-3.9V724.7z M164,728.8c1.1,0,1.5-0.5,1.5-1.2c0-0.8-0.5-1.1-1.5-1.1h-1.1v2.2H164z M164.2,733.2    c1.2,0,1.8-0.4,1.8-1.3c0-0.9-0.6-1.2-1.8-1.2h-1.2v2.5H164.2z"
   id="path249" />&#10;		<path
   class="st16"
   d="M170.1,730.2v-5.5h2.5v5.8c0,2,0.6,2.7,1.7,2.7c1.2,0,1.8-0.7,1.8-2.7v-5.8h2.4v5.5c0,3.5-1.4,5.1-4.2,5.1    S170.1,733.7,170.1,730.2z"
   id="path250" />&#10;		<path
   class="st16"
   d="M180.3,730c0-3.5,2.3-5.5,5.1-5.5c1.5,0,2.6,0.6,3.3,1.4l-1.3,1.5c-0.5-0.5-1.1-0.7-1.9-0.7    c-1.5,0-2.7,1.2-2.7,3.2c0,2.1,0.9,3.3,2.9,3.3c0.4,0,0.8-0.1,1-0.3v-1.7h-1.7v-2h3.9v4.9c-0.7,0.7-2,1.3-3.5,1.3    C182.6,735.3,180.3,733.5,180.3,730z"
   id="path251" />&#10;	</g>&#10;	<path
   id="rect251"
   class="st24"
   style="fill:none;stroke:#ffffff;stroke-miterlimit:10"
   d="m 114.2,746.09998 h 86.4 v 25.6 h -86.4 z" />&#10;	<g
   id="g254">&#10;		<path
   class="st16"
   d="M40.1,460.4h2.5v8.3h4v2.1h-6.5V460.4z"
   id="path252" />&#10;		<path
   class="st16"
   d="M48.4,460.4H55v2.1h-4.1v2h3.5v2.1h-3.5v2.2h4.3v2.1h-6.8V460.4z"
   id="path253" />&#10;		<path
   class="st16"
   d="M57.2,460.4h3c3.2,0,5.3,1.6,5.3,5.2c0,3.6-2.1,5.2-5.1,5.2h-3.1V460.4z M60.1,468.9c1.7,0,2.9-0.8,2.9-3.2    c0-2.5-1.2-3.2-2.9-3.2h-0.4v6.4H60.1z"
   id="path254" />&#10;	</g>&#10;	<g
   id="g255">&#10;		<path
   id="rect254"
   class="st8"
   style="fill:#e2eade"
   d="m 143.7,609.90002 h 5.4 v 10.6 h -5.4 z" />&#10;		<path
   id="rect255"
   class="st9"
   style="fill:#c29148"
   d="m 143.7,612.20001 h 5.4 v 6 h -5.4 z" />&#10;	</g>&#10;	<g
   id="g257">&#10;		<path
   id="rect256"
   class="st8"
   style="fill:#e2eade"
   d="m 154.3,609.90002 h 5.4 v 10.6 h -5.4 z" />&#10;		<path
   id="rect257"
   class="st9"
   style="fill:#c29148"
   d="m 154.3,612.20001 h 5.4 v 6 h -5.4 z" />&#10;	</g>&#10;	<path
   id="rect258"
   class="st7"
   style="fill:#474544"
   d="m 127.1,611.20001 h 4.2 v 6.9 h -4.2 z" />&#10;	&#10;		<path
   id="rect259"
   class="st7"
   transform="matrix(6.123234e-17 -1 1 6.123234e-17 -549.0184 690.4902)"
   style="fill:#474544"
   d="m 68.599998,616.29999 h 4.2 v 6.9 h -4.2 z" />&#10;	<path
   id="rect260"
   class="st9"
   style="fill:#c29148"
   d="m 120.5,611.20001 h 4.2 v 6.9 h -4.2 z" />&#10;	<path
   id="rect261"
   class="st9"
   style="fill:#c29148"
   d="m 110.4,611.20001 h 4.2 v 6.9 h -4.2 z" />&#10;	<path
   class="st4"
   d="M239.5,590.4c0-2.6,1.6-4.8,3.9-5.7v-3.4h-17.2c-5,0-9,4-9,9s4,9,9,9h17.2V596   C241.2,595.1,239.5,592.9,239.5,590.4z M227.8,596.4c-3.4,0-6.1-2.7-6.1-6.1s2.7-6.1,6.1-6.1s6.1,2.7,6.1,6.1   S231.2,596.4,227.8,596.4z"
   id="path261" />&#10;	<g
   id="g263">&#10;		&#10;			<path
   id="rect262"
   class="st8"
   transform="matrix(-1.836970e-16 1 -1 -1.836970e-16 760.6063 409.843)"
   style="fill:#e2eade"
   d="m 169.39999,582.40002 h 11.9 v 5.6 h -11.9 z" />&#10;		&#10;			<path
   id="rect263"
   class="st10"
   transform="matrix(-1.836970e-16 1 -1 -1.836970e-16 760.6063 409.843)"
   style="fill:#8dddde"
   d="m 172.10001,582.40002 h 6.6 v 5.6 h -6.6 z" />&#10;	</g>&#10;</g>&#10;<g
   id="layer1">&#10;	<path
   id="rect815"
   d="m 363.5,128.5 h 192 v 258 h -192 z" />&#10;	<path
   id="rect821"
   class="st16"
   style="fill:#ffffff"
   d="M 408.89999,344.60001 H 508.8 v 34.4 h -99.90001 z" />&#10;	<path
   id="rect825"
   class="st25"
   d="M415.5,346.5h20c3.5,0,6.3,2.8,6.3,6.3v17.6c0,3.5-2.8,6.3-6.3,6.3c0,0,0,0,0,0h-20   c-3.5,0-6.3-2.8-6.3-6.3c0,0,0,0,0,0v-17.6C409.2,349.3,412,346.5,415.5,346.5z" />&#10;	<path
   id="rect831"
   class="st16"
   style="fill:#ffffff"
   d="m 390.5,272.79999 h 136.7 v 34.4 H 390.5 Z" />&#10;	<path
   id="rect833"
   class="st16"
   style="fill:#ffffff"
   d="M 390.5,236.89999 H 527.2 V 271.3 H 390.5 Z" />&#10;	<path
   id="rect837"
   class="st16"
   style="fill:#ffffff"
   d="m 390.5,201 h 136.7 v 34.4 H 390.5 Z" />&#10;	<path
   id="rect872"
   class="st25"
   d="M482.2,346.5h20c3.5,0,6.3,2.8,6.3,6.3v17.6c0,3.5-2.8,6.3-6.3,6.3c0,0,0,0,0,0h-20   c-3.5,0-6.3-2.8-6.3-6.3v-17.6C475.9,349.3,478.7,346.5,482.2,346.5z" />&#10;	<path
   id="rect874"
   class="st25"
   d="M448,346.5h21.7c3,0,5.5,2.5,5.5,5.5v19.2c0,3-2.5,5.5-5.5,5.5H448c-3,0-5.5-2.5-5.5-5.5V352   C442.5,349,445,346.5,448,346.5z" />&#10;	<path
   id="rect892"
   class="st26"
   style="opacity:0.99;enable-background:new"
   d="M 392.39999,273.79999 H 526.2 v 31.7 H 392.39999 Z" />&#10;	<path
   id="rect836"
   class="st27"
   d="M408.3,273.8h8.2c8.8,0,15.9,7.1,15.9,15.9v0l0,0c0,8.8-7.1,15.9-15.9,15.9l0,0h-8.2   c-8.8,0-15.9-7.1-15.9-15.9l0,0l0,0C392.4,280.9,399.5,273.8,408.3,273.8C408.3,273.8,408.3,273.8,408.3,273.8z" />&#10;	<path
   id="rect850"
   class="st27"
   style="fill:#cccbcb"
   d="m 435,273.79999 h 39.9 v 31.7 H 435 Z" />&#10;	<path
   id="rect892-7"
   class="st26"
   style="opacity:0.99;enable-background:new"
   d="m 392,238.10001 h 133.8 v 31.7 H 392 Z" />&#10;	<path
   id="rect892-72"
   class="st26"
   style="opacity:0.99;enable-background:new"
   d="m 392,202.39999 h 133.8 v 31.7 H 392 Z" />&#10;	<path
   id="rect836-7"
   class="st27"
   d="M407.9,238.4h8.1c8.7,0,15.8,7.1,15.8,15.8l0,0c0,8.7-7.1,15.8-15.8,15.8h-8.1   c-8.7,0-15.8-7.1-15.8-15.8l0,0C392.1,245.4,399.2,238.4,407.9,238.4z" />&#10;	<path
   id="rect836-6"
   class="st27"
   d="M450.5,238.4h8.1c8.7,0,15.8,7.1,15.8,15.8c0,0,0,0,0,0l0,0c0,8.7-7.1,15.8-15.8,15.8l0,0   h-8.1c-8.7,0-15.8-7.1-15.8-15.8c0,0,0,0,0,0l0,0C434.7,245.4,441.8,238.4,450.5,238.4z" />&#10;	<path
   id="rect939"
   class="st27"
   d="M450.7,202.1h8.2c8.8,0,15.9,7.1,15.9,15.9l0,0c0,8.8-7.1,15.9-15.9,15.9h-8.2   c-8.8,0-15.9-7.1-15.9-15.9v0l0,0C434.8,209.2,441.9,202.1,450.7,202.1C450.7,202.1,450.7,202.1,450.7,202.1z" />&#10;	<path
   id="rect941"
   class="st27"
   d="M407.6,202.1h8.2c8.8,0,15.9,7.1,15.9,15.9l0,0c0,8.8-7.1,15.9-15.9,15.9h-8.2   c-8.8,0-15.9-7.1-15.9-15.9l0,0C391.7,209.2,398.9,202.1,407.6,202.1z" />&#10;	<path
   id="rect943"
   class="st27"
   style="fill:#cccbcb"
   d="m 481.20001,239.10001 h 44.1 v 29.8 h -44.1 z" />&#10;	<path
   id="rect945"
   class="st27"
   style="fill:#cccbcb"
   d="m 481.20001,203.3 h 44.1 v 29.8 h -44.1 z" />&#10;	<path
   id="rect947"
   class="st28"
   style="opacity:0.99;fill:#808080;enable-background:new"
   d="m 423.70001,363 h 3.6 v 63 h -3.6 z" />&#10;	<path
   id="rect949"
   class="st28"
   style="opacity:0.99;fill:#808080;enable-background:new"
   d="m 457.20001,363 h 3.6 v 63 h -3.6 z" />&#10;	<path
   id="rect951"
   class="st28"
   style="opacity:0.99;fill:#808080;enable-background:new"
   d="m 490.39999,363 h 3.6 v 63 h -3.6 z" />&#10;	<path
   id="path1456"
   class="st29"
   style="opacity:0.99;fill:#cccbcb;enable-background:new"
   d="m 408,182.39999 a 17.5,17.1 0 0 1 -17.5,17.1 17.5,17.1 0 0 1 -17.5,-17.1 17.5,17.1 0 0 1 17.5,-17.1 17.5,17.1 0 0 1 17.5,17.1 z" />&#10;	<path
   id="ellipse1458"
   class="st29"
   style="opacity:0.99;fill:#cccbcb;enable-background:new"
   d="m 544.59998,182.39999 a 17.5,17.1 0 0 1 -17.5,17.1 17.5,17.1 0 0 1 -17.5,-17.1 17.5,17.1 0 0 1 17.5,-17.1 17.5,17.1 0 0 1 17.5,17.1 z" />&#10;	<path
   id="path1460"
   class="st30"
   style="opacity:0.99;fill:#ffffff;enable-background:new"
   d="m 406.19999,182.3 a 15.8,15.5 0 0 1 -15.8,15.5 15.8,15.5 0 0 1 -15.8,-15.5 15.8,15.5 0 0 1 15.8,-15.5 15.8,15.5 0 0 1 15.8,15.5 z" />&#10;	<path
   id="ellipse1464"
   class="st30"
   style="opacity:0.99;fill:#ffffff;enable-background:new"
   d="m 542.89998,182.3 a 15.8,15.5 0 0 1 -15.8,15.5 15.8,15.5 0 0 1 -15.8,-15.5 15.8,15.5 0 0 1 15.8,-15.5 15.8,15.5 0 0 1 15.8,15.5 z" />&#10;	<path
   id="circle1504"
   class="st30"
   style="opacity:0.99;fill:#ffffff;enable-background:new"
   d="m 427.00001,289.70001 a 14.9,14.9 0 0 1 -14.9,14.9 14.9,14.9 0 0 1 -14.9,-14.9 14.9,14.9 0 0 1 14.9,-14.9 14.9,14.9 0 0 1 14.9,14.9 z" />&#10;	<path
   id="circle1510"
   class="st30"
   style="opacity:0.99;fill:#ffffff;enable-background:new"
   d="m 469.4,289.70001 a 14.9,14.9 0 0 1 -14.9,14.9 14.9,14.9 0 0 1 -14.9,-14.9 14.9,14.9 0 0 1 14.9,-14.9 14.9,14.9 0 0 1 14.9,14.9 z" />&#10;	<path
   id="circle77"
   class="st30"
   style="opacity:0.99;fill:#ffffff;enable-background:new"
   d="m 426.79999,218 a 14.9,14.9 0 0 1 -14.9,14.9 14.9,14.9 0 0 1 -14.9,-14.9 14.9,14.9 0 0 1 14.9,-14.9 14.9,14.9 0 0 1 14.9,14.9 z" />&#10;	<path
   id="circle79"
   class="st30"
   style="opacity:0.99;fill:#ffffff;enable-background:new"
   d="M 469.4,218 A 14.9,14.9 0 0 1 454.5,232.9 14.9,14.9 0 0 1 439.6,218 14.9,14.9 0 0 1 454.5,203.1 14.9,14.9 0 0 1 469.4,218 Z" />&#10;	&#10;		<path
   id="circle81"
   class="st30"
   transform="matrix(0.3827 -0.9239 0.9239 0.3827 108.9733 599.5468)"
   style="opacity:0.99;fill:#ffffff;enable-background:new"
   d="m 515.90001,218.2 a 12.8,12.8 0 0 1 -12.8,12.8 12.8,12.8 0 0 1 -12.8,-12.8 12.8,12.8 0 0 1 12.8,-12.8 12.8,12.8 0 0 1 12.8,12.8 z" />&#10;	<path
   id="path31-1"
   class="st16"
   d="M418.1,148.7c1.2,0,1.3,0,1.5-0.2c0.2-0.1,0.3-0.2,0.4-0.4c0.1-0.2,0.1-0.4,0.2-2.8l0-2.6   l2.5,0l2.5,0v3.2c0,3.5,0,3.9-0.4,4.8c-0.4,1.2-1.4,2-2.6,2.1c-0.8,0.1-1.5,0.2-2.3,0.1c-1,0-2.1,0-2.5-0.1l-0.6-0.1l0-2.1l0-2.1   L418.1,148.7L418.1,148.7z M442.3,155.9c21.6,0,27,0,26.1,0.1l-0.1,0l0.1,0.1c0.1,0,0.1,0.1-0.1,0.1c-0.2,0-0.1,0,0.2,0.1l0.4,0   l-0.4,0c-0.2,0-0.4,0-0.3,0.1c0.1,0,0.1,0.1,0.1,0.6c0,0.6,0,0.6,0.2,0.6c0.1,0,0.1,0-0.1,0c-0.2,0-0.3,0-0.3,0.1   c0,0-8.6,0.1-25.6,0.1h-25.6v-1.8L442.3,155.9z M422.8,136.1h2.6v4.2h-5.1v-4.2L422.8,136.1z M427.9,143.8c0.2-1.1,0.5-2.2,1-3.1   c0.1-0.2,0.2-0.4,0.4-0.6c0.1-0.1,0.2-0.3,0.3-0.4c0.3-0.5,0.6-0.9,1-1.2c0,0,0.1-0.1,0.1-0.1c0.3-0.4,0.7-0.7,1.1-1   c0.6-0.4,1.2-0.7,1.9-0.9c1-0.4,2-0.6,3.1-0.5c0.6,0,1.2,0.1,1.8,0.2c0.4,0.1,0.8,0.3,1,0.3c0.1,0.1,0.3,0.1,0.4,0.1   c0.2,0.1,0.4,0.2,0.6,0.3c1.5,1,2.7,2.4,3.5,4c1,2,1.1,4.4,0.4,6.5c-0.2,0.7-0.5,1.3-0.9,2c-0.4,0.7-0.9,1.3-1.5,1.8   c-1,1.1-2.2,1.8-3.6,2.1c-1.1,0.2-2.1,0.3-3.2,0.2c-1.3-0.2-2.4-0.7-3.5-1.5c-0.4-0.3-0.8-0.6-1.1-1c-0.1-0.1-0.2-0.3-0.4-0.4   c-1.1-1.2-1.8-2.7-2.2-4.3C427.9,145.5,427.9,144.7,427.9,143.8L427.9,143.8z M432.8,146c0.2,1,0.8,1.8,1.5,2.5c0.8,0.7,2,1,3,0.7   c1.3-0.6,2.3-1.8,2.7-3.2c0.2-0.9,0.2-1.9,0-2.9c-0.3-1.1-0.9-2-1.8-2.6c-0.3-0.2-0.6-0.4-1-0.4c-0.8-0.2-1.6-0.1-2.4,0.2   c-0.7,0.5-1.3,1.1-1.6,1.8C432.6,143.3,432.5,144.7,432.8,146L432.8,146z M447.2,136.2c0,0,1.2,0,2.6,0l2.5,0l0,2.3   c0,2.2,0,2.3,0.2,2.7c0.4,1,1.5,1.5,2.6,1.2c0.5-0.2,0.9-0.5,1.1-1l0.2-0.4l0-2.4l0-2.4h5.1l0,2.7c0.1,1.1,0,2.2-0.2,3.2   c-0.3,1-0.7,1.9-1.3,2.6c-0.1,0.1-0.2,0.2-0.3,0.4c-0.4,0.4-0.8,0.8-1.2,1.1c-0.5,0.3-1,0.6-1.5,0.8c-0.1,0-0.5,0.1-0.8,0.2   c-0.6,0.2-1.2,0.2-1.8,0.2c-0.7,0.1-1.3,0-1.9-0.2c-0.7-0.2-1.4-0.5-2-0.9c-0.8-0.5-1.4-1.2-2-1.9c-0.7-1-1.1-2.1-1.2-3.2   C447.1,139.5,447.1,137.8,447.2,136.2L447.2,136.2z M454.3,148.8h4.2v4.3h-8.4v-4.3L454.3,148.8z M461.5,132.9c0,0,0.1-0.1,0.1-0.3   c0-0.3,0-0.3,0.3-0.3c0.2,0,7.3,0,15.7,0l15.4,0l0,0.9l0,0.9h-15.7c-8.6,0-15.7,0-15.8,0c-0.1,0-0.1-0.2-0.1-0.6   C461.4,133.1,461.4,132.9,461.5,132.9L461.5,132.9z M468.5,143.2h5.3v4.2h-10.6v-4.2L468.5,143.2z M478,136.1h2.6v4.2h-5.1v-4.2   L478,136.1z M478,142.5h2.6v10.8h-5.1v-10.8L478,142.5z M488.2,136.1h5.4v4.2h-10.7v-4.2L488.2,136.1z M483.8,142.8   c0,0,1.2,0,2.5,0l2.5,0l0,2.5c0,3.5-0.1,3.3,2.5,3.3l1.6,0v4.3l-0.6,0.1c-1.5,0.1-3.1,0.1-4.6,0c-1.1-0.1-2.1-0.6-2.8-1.3   c-0.6-0.8-1-1.7-1-2.7C483.7,148.2,483.7,142.9,483.8,142.8z M496.6,134.1c0.1-0.4,0.3-0.8,0.7-1.1c1-1,2.6-1.1,3.7-0.3   c0.4,0.2,0.7,0.6,0.9,1c0.2,0.3,0.2,0.7,0.2,1.1c0,0.4,0,0.8-0.2,1.1c-0.5,0.9-1.3,1.5-2.3,1.6c-0.9,0.1-1.7-0.2-2.3-0.9   C496.6,136,496.4,135,496.6,134.1L496.6,134.1z M497.1,135.9c0.4,0.6,1,1.1,1.7,1.3c0.8,0.2,1.6,0,2.2-0.6c0.2-0.2,0.4-0.4,0.5-0.7   c0.2-0.3,0.3-0.7,0.2-1.1c0-0.4,0-0.7-0.2-1.1c-0.1-0.3-0.4-0.6-0.7-0.8c-0.2-0.2-0.5-0.3-0.8-0.4c-1.2-0.4-2.5,0.2-3,1.4   C496.9,134.6,496.9,135.3,497.1,135.9L497.1,135.9z M499,133.2c0.4,0,0.8,0,1.1,0.1c0.4,0.3,0.6,0.9,0.3,1.3   c-0.1,0.1-0.2,0.2-0.4,0.3l-0.2,0.1l0.2,0.3c0.2,0.2,0.3,0.4,0.5,0.6c0.1,0.1,0.2,0.3,0.3,0.4c0.1,0.1,0,0.2-0.2,0.2l-0.3,0   l-0.4-0.7c-0.4-0.7-0.6-0.8-1-0.8h-0.3v1.4l-0.2,0l-0.2,0l0-1.6l0-1.6L499,133.2z M499.1,134.6c0.5,0,0.6,0,0.8-0.1   c0.4-0.3,0.2-0.8-0.4-0.8c-0.3,0-0.7,0-1,0c0,0.2,0,0.3,0,0.5v0.5L499.1,134.6z" />&#10;	<path
   id="rect78"
   class="st28"
   d="M440.3,75.8v30.6l-30,87.6h0.1l-0.1,62.5h3.3l0.1-62.5l30-87.6h0V75.8H440.3z" />&#10;	<path
   id="rect76"
   class="st28"
   d="M457.3,75.8v30.6l-4.4,87.4h0.1l-0.1,62.7l3.3,0l0.1-62.7h0l4.4-87.4V75.8L457.3,75.8z" />&#10;	<path
   id="rect74"
   class="st28"
   d="M474.4,75.8v30.6l27.1,88.1h0l0,62.5h3.4l0-62.5h0l0,0v-0.1h0l-27-88h0V75.8L474.4,75.8z" />&#10;	<path
   id="rect92"
   class="st27"
   style="fill:#cccbcb"
   d="m 481.20001,274.89999 h 44.1 v 29.8 h -44.1 z" />&#10;	<path
   id="circle1514"
   class="st30"
   style="opacity:0.99;fill:#ffffff;enable-background:new"
   d="m 515.90001,289.79999 a 12.8,12.8 0 0 1 -12.8,12.8 12.8,12.8 0 0 1 -12.8,-12.8 12.8,12.8 0 0 1 12.8,-12.8 12.8,12.8 0 0 1 12.8,12.8 z" />&#10;	<path
   id="rect1512"
   class="st31"
   style="opacity:0.99;fill:#1a1a1a;enable-background:new"
   d="m 414.70001,0 h 89.5 v 76.699997 h -89.5 z" />&#10;	<g
   id="text86">&#10;		<g
   class="st32"
   id="g265">&#10;			<path
   class="st16"
   d="M550.6,260.9c0.1,0,0.1,0,0.2,0c0.1,0,0.1,0.1,0.1,0.2c0,0.1,0.1,0.2,0.1,0.4c0,0.2,0,0.3,0,0.6     c0,0.3,0,0.6,0,0.8s-0.1,0.3-0.1,0.4c-0.1,0.1-0.2,0.2-0.2,0.2l-8.6,6.3h8.6c0.1,0,0.1,0,0.2,0.1s0.1,0.1,0.1,0.2     c0,0.1,0.1,0.2,0.1,0.4c0,0.1,0,0.3,0,0.5c0,0.2,0,0.4,0,0.5c0,0.1,0,0.3-0.1,0.4c0,0.1-0.1,0.1-0.1,0.2c-0.1,0-0.1,0.1-0.2,0.1     h-16.4c-0.1,0-0.1,0-0.2-0.1c-0.1,0-0.1-0.1-0.1-0.2c0-0.1-0.1-0.2-0.1-0.4c0-0.1,0-0.3,0-0.5c0-0.2,0-0.4,0-0.5     c0-0.1,0-0.3,0.1-0.4c0-0.1,0.1-0.1,0.1-0.2s0.1-0.1,0.2-0.1h7.6l-7.6-6.1c-0.1-0.1-0.1-0.1-0.2-0.2c-0.1-0.1-0.1-0.2-0.1-0.3     c0-0.1-0.1-0.2-0.1-0.4s0-0.3,0-0.6s0-0.4,0-0.6c0-0.1,0.1-0.3,0.1-0.3s0.1-0.1,0.1-0.2s0.1,0,0.2,0c0.1,0,0.2,0,0.3,0.1     c0.1,0.1,0.3,0.2,0.5,0.3l6.8,5.7l8.1-6.1c0.2-0.2,0.4-0.2,0.5-0.3C550.4,260.9,550.5,260.9,550.6,260.9z"
   id="path264" />&#10;		</g>&#10;		<g
   class="st32"
   id="g266">&#10;			<path
   class="st16"
   d="M544.3,252.6h6.3c0.1,0,0.1,0,0.2,0.1c0.1,0,0.1,0.1,0.1,0.2c0,0.1,0.1,0.2,0.1,0.4c0,0.1,0,0.3,0,0.5     c0,0.2,0,0.4,0,0.5c0,0.1,0,0.3-0.1,0.4c0,0.1-0.1,0.2-0.1,0.2c-0.1,0-0.1,0.1-0.2,0.1h-6.3l-9.6,4.8c-0.2,0.1-0.4,0.2-0.5,0.2     c-0.1,0-0.2,0-0.3-0.1s-0.1-0.2-0.1-0.4s0-0.4,0-0.7c0-0.3,0-0.5,0-0.6s0-0.3,0.1-0.4c0-0.1,0.1-0.2,0.1-0.2s0.1-0.1,0.2-0.1     l4.9-2.4c0.5-0.2,1-0.4,1.5-0.7s1-0.4,1.5-0.7v0c-0.5-0.2-1-0.4-1.5-0.6c-0.5-0.2-1-0.4-1.5-0.7l-4.9-2.4c-0.1,0-0.2-0.1-0.2-0.1     s-0.1-0.1-0.1-0.2c0-0.1-0.1-0.2-0.1-0.4s0-0.3,0-0.6c0-0.3,0-0.6,0-0.7c0-0.2,0.1-0.3,0.1-0.4s0.1-0.1,0.3-0.1     c0.1,0,0.3,0.1,0.5,0.2L544.3,252.6z"
   id="path265" />&#10;		</g>&#10;		<g
   class="st32"
   id="g269">&#10;			<path
   class="st16"
   d="M544.2,241.3c0.3,0,0.6,0,0.7,0.1c0.1,0.1,0.2,0.2,0.2,0.3v5.5c0,0.2-0.1,0.3-0.2,0.4s-0.4,0.1-0.7,0.1     s-0.6,0-0.7-0.1c-0.1-0.1-0.2-0.2-0.2-0.4v-5.5c0-0.1,0-0.1,0-0.2c0-0.1,0.1-0.1,0.2-0.1c0.1,0,0.2-0.1,0.3-0.1     S544.1,241.3,544.2,241.3z"
   id="path266" />&#10;			<path
   class="st16"
   d="M542.3,227.6c1.3,0,2.5,0.1,3.6,0.3c1.1,0.2,2,0.6,2.8,1c0.8,0.5,1.4,1.1,1.8,1.9c0.4,0.8,0.6,1.7,0.6,2.9     c0,1.1-0.2,2-0.6,2.7c-0.4,0.7-0.9,1.3-1.7,1.8c-0.7,0.4-1.7,0.8-2.7,1c-1.1,0.2-2.3,0.3-3.7,0.3c-1.3,0-2.5-0.1-3.6-0.3     c-1.1-0.2-2-0.6-2.8-1c-0.8-0.5-1.4-1.1-1.8-1.9c-0.4-0.8-0.6-1.7-0.6-2.9c0-1.1,0.2-2,0.6-2.7s0.9-1.3,1.7-1.8     c0.7-0.4,1.7-0.8,2.7-1S540.9,227.6,542.3,227.6z M542.5,229.9c-0.9,0-1.6,0-2.3,0.1c-0.7,0.1-1.3,0.2-1.8,0.3s-1,0.3-1.3,0.5     c-0.4,0.2-0.7,0.4-0.9,0.7c-0.2,0.3-0.4,0.6-0.5,0.9c-0.1,0.3-0.2,0.7-0.2,1.1c0,0.7,0.2,1.4,0.5,1.8c0.4,0.5,0.8,0.8,1.5,1.1     c0.6,0.3,1.3,0.5,2.2,0.5c0.8,0.1,1.7,0.1,2.7,0.1c1.3,0,2.4-0.1,3.3-0.2c0.9-0.1,1.6-0.3,2.2-0.6s1-0.7,1.2-1.1     c0.3-0.4,0.4-1,0.4-1.6c0-0.5-0.1-0.9-0.2-1.3c-0.2-0.4-0.4-0.7-0.7-1c-0.3-0.3-0.6-0.5-1.1-0.7c-0.4-0.2-0.9-0.3-1.4-0.4     c-0.5-0.1-1-0.2-1.6-0.2C543.7,229.9,543.1,229.9,542.5,229.9z"
   id="path267" />&#10;			<path
   class="st16"
   d="M546,214.6c0.8,0,1.5,0.1,2.1,0.4c0.6,0.3,1.2,0.7,1.6,1.2s0.8,1.1,1,1.9s0.4,1.6,0.4,2.5     c0,0.6,0,1.1-0.1,1.6s-0.2,0.9-0.3,1.3s-0.3,0.7-0.4,1c-0.1,0.3-0.2,0.4-0.3,0.5c-0.1,0.1-0.1,0.1-0.2,0.2s-0.1,0.1-0.2,0.1     s-0.2,0-0.3,0.1c-0.1,0-0.3,0-0.5,0c-0.3,0-0.5,0-0.7-0.1c-0.1-0.1-0.2-0.2-0.2-0.3c0-0.1,0.1-0.2,0.2-0.5     c0.1-0.2,0.3-0.5,0.5-0.9c0.2-0.4,0.3-0.8,0.5-1.3s0.2-1.1,0.2-1.7c0-0.6-0.1-1.1-0.2-1.6c-0.1-0.5-0.4-0.8-0.6-1.1     s-0.6-0.5-1-0.7c-0.4-0.2-0.8-0.2-1.2-0.2c-0.5,0-0.9,0.1-1.3,0.3c-0.4,0.2-0.7,0.5-1,0.9c-0.3,0.4-0.5,0.8-0.6,1.4     c-0.1,0.6-0.2,1.2-0.2,1.9v1.7c0,0.1,0,0.1,0,0.2c0,0.1-0.1,0.1-0.2,0.2s-0.2,0.1-0.3,0.1c-0.1,0-0.3,0-0.4,0c-0.2,0-0.3,0-0.4,0     c-0.1,0-0.2-0.1-0.3-0.1c-0.1,0-0.1-0.1-0.1-0.2s0-0.1,0-0.2v-1.5c0-0.6-0.1-1.1-0.2-1.6c-0.2-0.5-0.4-0.9-0.6-1.2     c-0.3-0.3-0.6-0.6-1-0.7s-0.8-0.3-1.3-0.3c-0.4,0-0.7,0.1-1,0.2c-0.3,0.1-0.6,0.3-0.8,0.5c-0.2,0.2-0.4,0.5-0.6,0.9     c-0.1,0.4-0.2,0.8-0.2,1.2c0,0.5,0.1,1,0.2,1.4c0.2,0.4,0.3,0.8,0.5,1.1c0.2,0.3,0.3,0.6,0.5,0.8c0.2,0.2,0.2,0.4,0.2,0.5     c0,0.1,0,0.1,0,0.2c0,0-0.1,0.1-0.1,0.1c-0.1,0-0.2,0.1-0.3,0.1c-0.1,0-0.3,0-0.5,0c-0.1,0-0.2,0-0.4,0c-0.1,0-0.2,0-0.3-0.1     c-0.1,0-0.1-0.1-0.2-0.1s-0.1-0.1-0.2-0.2c-0.1-0.1-0.2-0.3-0.4-0.5c-0.2-0.3-0.3-0.6-0.5-0.9c-0.2-0.4-0.3-0.8-0.4-1.3     c-0.1-0.5-0.2-1-0.2-1.6c0-0.8,0.1-1.5,0.3-2.1c0.2-0.6,0.5-1.1,0.9-1.5c0.4-0.4,0.8-0.7,1.3-0.9s1.1-0.3,1.7-0.3     c0.5,0,1,0.1,1.5,0.2c0.5,0.1,0.9,0.3,1.2,0.6c0.4,0.3,0.7,0.6,0.9,1s0.4,0.9,0.5,1.4h0c0.1-0.6,0.2-1.1,0.4-1.6     c0.2-0.5,0.5-0.9,0.9-1.3c0.4-0.4,0.8-0.6,1.2-0.8C545,214.7,545.5,214.6,546,214.6z"
   id="path268" />&#10;			<path
   class="st16"
   d="M545.4,200.8c0.9,0,1.7,0.2,2.4,0.5s1.3,0.7,1.8,1.3c0.5,0.6,0.9,1.2,1.1,2c0.3,0.8,0.4,1.6,0.4,2.6     c0,0.5,0,1-0.1,1.5s-0.2,0.9-0.3,1.3s-0.2,0.7-0.3,0.9c-0.1,0.2-0.2,0.4-0.3,0.5c-0.1,0.1-0.1,0.1-0.2,0.1s-0.1,0.1-0.2,0.1     c-0.1,0-0.2,0-0.3,0s-0.3,0-0.4,0c-0.2,0-0.3,0-0.4,0c-0.1,0-0.2,0-0.3-0.1c-0.1,0-0.1-0.1-0.2-0.1s-0.1-0.1-0.1-0.2     c0-0.1,0.1-0.2,0.2-0.4c0.1-0.2,0.2-0.4,0.4-0.7c0.1-0.3,0.2-0.7,0.4-1.2c0.1-0.5,0.2-1,0.2-1.6c0-0.6-0.1-1.1-0.2-1.6     c-0.1-0.5-0.4-0.9-0.7-1.3c-0.3-0.4-0.7-0.6-1.1-0.8c-0.5-0.2-1-0.3-1.7-0.3c-0.5,0-1,0.1-1.4,0.3c-0.4,0.2-0.8,0.4-1,0.8     c-0.3,0.4-0.5,0.8-0.6,1.4s-0.2,1.2-0.2,2c0,0.5,0,1,0.1,1.4c0.1,0.4,0.1,0.7,0.1,1.1c0,0.2-0.1,0.4-0.2,0.5     c-0.1,0.1-0.3,0.2-0.7,0.2h-7c-0.3,0-0.5-0.1-0.6-0.2c-0.1-0.1-0.2-0.3-0.2-0.6v-7.6c0-0.1,0-0.1,0.1-0.2c0-0.1,0.1-0.1,0.2-0.2     s0.2-0.1,0.3-0.1c0.1,0,0.3,0,0.4,0c0.3,0,0.6,0,0.7,0.1c0.2,0.1,0.3,0.2,0.3,0.4v6.1h4.8c0-0.3-0.1-0.6-0.1-0.9     c0-0.3,0-0.7,0-1.1c0-0.9,0.1-1.8,0.4-2.5c0.2-0.7,0.6-1.3,1-1.8c0.4-0.5,0.9-0.8,1.6-1.1C544,200.9,544.7,200.8,545.4,200.8z"
   id="path269" />&#10;		</g>&#10;	</g>&#10;	<g
   id="text90">&#10;		<g
   class="st32"
   id="g270">&#10;			<path
   class="st16"
   d="M532.1,365.4c0,0.8-0.1,1.5-0.4,2.1s-0.7,1.2-1.2,1.6c-0.5,0.4-1.1,0.8-1.9,1c-0.7,0.2-1.5,0.3-2.3,0.3     c-0.6,0-1.1,0-1.6-0.1c-0.5-0.1-0.9-0.2-1.3-0.4c-0.4-0.1-0.7-0.3-1-0.4c-0.3-0.1-0.4-0.3-0.5-0.4s-0.2-0.2-0.2-0.4     c0-0.2-0.1-0.4-0.1-0.7c0-0.2,0-0.4,0-0.5c0-0.1,0-0.2,0.1-0.3s0.1-0.1,0.1-0.2c0.1,0,0.1,0,0.2,0c0.1,0,0.3,0.1,0.5,0.2     s0.5,0.3,0.9,0.5c0.4,0.2,0.8,0.3,1.3,0.5c0.5,0.2,1.1,0.2,1.7,0.2c0.5,0,0.9-0.1,1.4-0.2c0.4-0.1,0.8-0.3,1.1-0.6     s0.5-0.5,0.7-0.9c0.2-0.4,0.2-0.8,0.2-1.2c0-0.5-0.1-0.9-0.3-1.2c-0.2-0.3-0.5-0.6-0.9-0.9s-0.8-0.5-1.2-0.7s-0.9-0.4-1.4-0.7     s-1-0.5-1.4-0.7c-0.5-0.3-0.9-0.6-1.2-1c-0.4-0.4-0.7-0.8-0.9-1.3s-0.3-1.1-0.3-1.8c0-0.7,0.1-1.4,0.4-1.9c0.3-0.6,0.6-1,1.1-1.4     c0.5-0.4,1-0.7,1.7-0.9s1.3-0.3,2.1-0.3c0.4,0,0.8,0,1.1,0.1c0.4,0.1,0.7,0.2,1.1,0.3c0.3,0.1,0.6,0.2,0.9,0.4     c0.3,0.1,0.4,0.2,0.5,0.3c0.1,0.1,0.1,0.1,0.2,0.2s0,0.1,0.1,0.2c0,0.1,0,0.2,0,0.3c0,0.1,0,0.2,0,0.4c0,0.2,0,0.3,0,0.4     c0,0.1,0,0.2-0.1,0.3c0,0.1-0.1,0.1-0.1,0.2c0,0-0.1,0.1-0.2,0.1c-0.1,0-0.2-0.1-0.5-0.2c-0.2-0.1-0.5-0.3-0.8-0.4     c-0.3-0.2-0.7-0.3-1.1-0.4c-0.4-0.1-0.9-0.2-1.4-0.2c-0.5,0-0.9,0.1-1.2,0.2c-0.4,0.1-0.6,0.3-0.9,0.5c-0.2,0.2-0.4,0.5-0.5,0.8     c-0.1,0.3-0.2,0.6-0.2,0.9c0,0.5,0.1,0.9,0.3,1.2c0.2,0.3,0.5,0.6,0.9,0.9c0.4,0.3,0.8,0.5,1.2,0.7c0.5,0.2,0.9,0.4,1.4,0.7     c0.5,0.2,1,0.5,1.4,0.7c0.5,0.3,0.9,0.6,1.2,1c0.4,0.4,0.7,0.8,0.9,1.3C531.9,364.2,532.1,364.8,532.1,365.4z"
   id="path270" />&#10;		</g>&#10;	</g>&#10;	<g
   id="text94">&#10;		<g
   class="st32"
   id="g271">&#10;			<path
   class="st16"
   d="M397.8,361.8c0,0.3-0.1,0.6-0.3,0.7c-0.2,0.1-0.5,0.2-0.9,0.2h-14.5c-0.4,0-0.7-0.1-0.9-0.2     c-0.2-0.1-0.3-0.4-0.3-0.7s0.1-0.6,0.3-0.7c0.2-0.1,0.5-0.2,0.9-0.2h14.5c0.2,0,0.4,0,0.5,0s0.3,0.1,0.4,0.2s0.2,0.2,0.2,0.3     C397.8,361.5,397.8,361.7,397.8,361.8z"
   id="path271" />&#10;		</g>&#10;	</g>&#10;</g>&#10;&#10;<path
   id="rect1707"
   class="st38"
   style="fill:#e30613"
   d="m 231.5,526.09998 h 46.2 v 11.3 h -46.2 z" />&#10;&#10;&#10;&#10;<path
   id="circle281"
   class="st37"
   style="fill:#914f00"
   d="m 243.7,472.79999 a 11.9,11.9 0 0 1 -11.9,11.9 11.9,11.9 0 0 1 -11.9,-11.9 11.9,11.9 0 0 1 11.9,-11.9 11.9,11.9 0 0 1 11.9,11.9 z" />&#10;<path
   id="circle281-2"
   class="st38"
   style="fill:#e30613"
   d="m 243.1,531.79999 a 11.6,11.6 0 0 1 -11.6,11.6 11.6,11.6 0 0 1 -11.6,-11.6 11.6,11.6 0 0 1 11.6,-11.6 11.6,11.6 0 0 1 11.6,11.6 z" />&#10;&#10;&#10;<path
   id="rect1727"
   style="fill:#914f00;stroke-width:0.80589"
   class="st37"
   d="m 231.5,467.20001 h 199.90337 v 11.3 H 231.5 Z" />&#10;&#10;&#10;<path
   id="rect1727-4"
   class="st38"
   style="fill:#e30613"
   d="m 266.29999,560.90002 h 198.39999 v 11.3 H 266.29999 Z" />&#10;<path
   id="rect1727-5"
   class="st38"
   style="fill:#e30613"
   d="m 266.29999,526.09998 h 11.3 v 46.09999 h -11.3 z" />&#10;&#10;&#10;&#10;<path
   id="rect1727-9"
   style="fill:#00b589;stroke-width:1.10953"
   class="st34"
   d="m 486.60001,390.70001 h 11.3 v 291.88294 h -11.3 z" /><path
   id="rect1727-9-8"
   style="fill:#00b589;stroke-width:1.07023"
   class="st34"
   transform="rotate(90)"
   d="m 673.46527,-497.80319 h 11.3 v 271.57358 h -11.3 z" />&#10;<path
   id="rect1727-10"
   class="st37"
   style="fill:#914f00"
   d="m 419.79999,390.70001 h 11.3 v 87.80001 h -11.3 z" />&#10;<path
   id="rect1727-11"
   class="st38"
   style="fill:#e30613"
   d="m 453.39999,390.70001 h 11.3 v 181.5 h -11.3 z" />&#10;<path
   id="circle281-5"
   class="st34"
   style="fill:#00b589"
   d="m 503.80001,390 a 11.6,11.6 0 0 1 -11.6,11.6 11.6,11.6 0 0 1 -11.6,-11.6 11.6,11.6 0 0 1 11.6,-11.6 11.6,11.6 0 0 1 11.6,11.6 z" /><path
   id="circle281-5-4"
   style="fill:#00b589"
   class="st34"
   d="m 243.287,678.64343 a 11.6,11.6 0 0 1 -11.6,11.6 11.6,11.6 0 0 1 -11.6,-11.6 11.6,11.6 0 0 1 11.6,-11.6 11.6,11.6 0 0 1 11.6,11.6 z" />&#10;<path
   id="circle281-6"
   class="st38"
   style="fill:#e30613"
   d="m 470.49999,390.70001 a 11.6,11.6 0 0 1 -11.6,11.6 11.6,11.6 0 0 1 -11.6,-11.6 11.6,11.6 0 0 1 11.6,-11.6 11.6,11.6 0 0 1 11.6,11.6 z" />&#10;<path
   id="circle281-7"
   class="st37"
   style="fill:#914f00"
   d="m 437.1,390.70001 a 11.6,11.6 0 0 1 -11.6,11.6 11.6,11.6 0 0 1 -11.6,-11.6 11.6,11.6 0 0 1 11.6,-11.6 11.6,11.6 0 0 1 11.6,11.6 z" />&#10;</svg>
