<?xml version="1.0" encoding="UTF-8" standalone="no"?>
<!-- Generator: Adobe Illustrator 27.8.0, SVG Export Plug-In . SVG Version: 6.00 Build 0)  -->

<svg
   version="1.1"
   id="svg4098"
   x="0px"
   y="0px"
   viewBox="0 0 682 1008.7"
   style="enable-background:new 0 0 682 1008.7;"
   xml:space="preserve"
   sodipodi:docname="036-Pico.svg"
   inkscape:version="1.3 (0e150ed, 2023-07-21)"
   xmlns:inkscape="http://www.inkscape.org/namespaces/inkscape"
   xmlns:sodipodi="http://sodipodi.sourceforge.net/DTD/sodipodi-0.dtd"
   xmlns="http://www.w3.org/2000/svg"
   xmlns:svg="http://www.w3.org/2000/svg"><defs
   id="defs335" /><sodipodi:namedview
   id="namedview335"
   pagecolor="#505050"
   bordercolor="#eeeeee"
   borderopacity="1"
   inkscape:showpageshadow="0"
   inkscape:pageopacity="0"
   inkscape:pagecheckerboard="0"
   inkscape:deskcolor="#505050"
   inkscape:zoom="0.55268604"
   inkscape:cx="313.01677"
   inkscape:cy="427.91021"
   inkscape:window-width="1440"
   inkscape:window-height="900"
   inkscape:window-x="0"
   inkscape:window-y="0"
   inkscape:window-maximized="0"
   inkscape:current-layer="svg4098" />&#10;<style
   type="text/css"
   id="style1">&#10;	.st0{fill:#02814B;}&#10;	.st1{fill:#D4C547;}&#10;	.st2{fill:#525035;}&#10;	.st3{fill:#FEE86F;}&#10;	.st4{fill:#FFE17B;}&#10;	.st5{fill:#DDDDDD;}&#10;	.st6{fill:#7F7F7F;}&#10;	.st7{fill:#474544;}&#10;	.st8{fill:#E2EADE;}&#10;	.st9{fill:#C29148;}&#10;	.st10{fill:#8DDDDE;}&#10;	.st11{fill:#C1C1C1;}&#10;	.st12{fill:#C2BFAB;}&#10;	.st13{fill:none;stroke:#95AC6E;stroke-miterlimit:10;}&#10;	.st14{fill:#E8D28A;}&#10;	.st15{fill:#CECECE;}&#10;	.st16{fill:#FFFFFF;}&#10;	.st17{fill:#36323E;}&#10;	.st18{fill:#868C97;}&#10;	.st19{fill:#FCFCFA;}&#10;	.st20{fill:#141316;}&#10;	.st21{fill:#B9A68F;}&#10;	.st22{fill:#E0B45B;}&#10;	.st23{fill:#ABA28E;}&#10;	.st24{fill:none;stroke:#FFFFFF;stroke-miterlimit:10;}&#10;	.st25{fill:#1A1A1A;}&#10;	.st26{opacity:0.99;fill:#808080;enable-background:new    ;}&#10;	.st27{fill:#CCCBCB;}&#10;	.st28{fill:#2A4B9A;}&#10;	.st29{fill:#AB9C38;}&#10;	.st30{fill:#96841F;}&#10;	.st31{fill:#333333;}&#10;	.st32{enable-background:new    ;}&#10;	.st33{fill:#CCCCCC;}&#10;	.st34{fill:#00B589;}&#10;	.st35{fill:#008000;}&#10;	.st36{fill:#54BDC2;}&#10;	.st37{fill:#914F00;}&#10;	.st38{fill:#E30613;}&#10;	.st39{fill:#7B217F;}&#10;</style>&#10;<g
   id="g264">&#10;	<path
   class="st0"
   d="M243.3,426.7v-11.9H0.2v11.9c2.3,0.9,3.9,3.1,3.9,5.7s-1.6,4.8-3.9,5.7v18.1c2.3,0.9,3.9,3.1,3.9,5.7   s-1.6,4.8-3.9,5.7v18.1c2.3,0.9,3.9,3.1,3.9,5.7s-1.6,4.8-3.9,5.7v18.1c2.3,0.9,3.9,3.1,3.9,5.7s-1.6,4.8-3.9,5.7v18.1   c2.3,0.9,3.9,3.1,3.9,5.7s-1.6,4.8-3.9,5.7v18.1c2.3,0.9,3.9,3.1,3.9,5.7s-1.6,4.8-3.9,5.7v18.1c2.3,0.9,3.9,3.1,3.9,5.7   s-1.6,4.8-3.9,5.7v18.1c2.3,0.9,3.9,3.1,3.9,5.7s-1.6,4.8-3.9,5.7v18.1c2.3,0.9,3.9,3.1,3.9,5.7s-1.6,4.8-3.9,5.7v18.1   c2.3,0.9,3.9,3.1,3.9,5.7s-1.6,4.8-3.9,5.7v18.1c2.3,0.9,3.9,3.1,3.9,5.7s-1.6,4.8-3.9,5.7V750c2.3,0.9,3.9,3.1,3.9,5.7   s-1.6,4.8-3.9,5.7v18.1c2.3,0.9,3.9,3.1,3.9,5.7s-1.6,4.8-3.9,5.7v18.1c2.3,0.9,3.9,3.1,3.9,5.7s-1.6,4.8-3.9,5.7v18.1   c2.3,0.9,3.9,3.1,3.9,5.7s-1.6,4.8-3.9,5.7v18.1c2.3,0.9,3.9,3.1,3.9,5.7s-1.6,4.8-3.9,5.7V897c2.3,0.9,3.9,3.1,3.9,5.7   s-1.6,4.8-3.9,5.7v18.1c2.3,0.9,3.9,3.1,3.9,5.7s-1.6,4.8-3.9,5.7v18c2.3,0.9,3.9,3.1,3.9,5.7s-1.6,4.8-3.9,5.7v18.1   c2.3,0.9,3.9,3.1,3.9,5.7s-1.6,4.8-3.9,5.7v11.9h78.5h7.5h11.3h18.5h11.3H146h11.3h4h82v-11.9c-2.2-0.9-3.8-3.1-3.8-5.7   s1.6-4.8,3.8-5.7v-18.1c-2.2-0.9-3.8-3.1-3.8-5.7s1.6-4.8,3.8-5.7v-18.1c-2.2-0.9-3.8-3.1-3.8-5.7s1.6-4.8,3.8-5.7v-18.1   c-2.2-0.9-3.8-3.1-3.8-5.7s1.6-4.8,3.8-5.7v-18.1c-2.2-0.9-3.8-3.1-3.8-5.7s1.6-4.8,3.8-5.7v-18.1c-2.2-0.9-3.8-3.1-3.8-5.7   s1.6-4.8,3.8-5.7v-18.1c-2.2-0.9-3.8-3.1-3.8-5.7s1.6-4.8,3.8-5.7v-18.1c-2.2-0.9-3.8-3.1-3.8-5.7s1.6-4.8,3.8-5.7v-18.1   c-2.2-0.9-3.8-3.1-3.8-5.7s1.6-4.8,3.8-5.7V732c-2.2-0.9-3.8-3.1-3.8-5.7s1.6-4.8,3.8-5.7v-18.1c-2.2-0.9-3.8-3.1-3.8-5.7   s1.6-4.8,3.8-5.7v-18.1c-2.2-0.9-3.8-3.1-3.8-5.7s1.6-4.8,3.8-5.7v-18.1c-2.2-0.9-3.8-3.1-3.8-5.7s1.6-4.8,3.8-5.7v-18.1   c-2.2-0.9-3.8-3.1-3.8-5.7s1.6-4.8,3.8-5.7V585c-2.2-0.9-3.8-3.1-3.8-5.7s1.6-4.8,3.8-5.7v-18.1c-2.2-0.9-3.8-3.1-3.8-5.7   s1.6-4.8,3.8-5.7v-18.1c-2.2-0.9-3.8-3.1-3.8-5.7s1.6-4.8,3.8-5.7v-18.1c-2.2-0.9-3.8-3.1-3.8-5.7s1.6-4.8,3.8-5.7v-18.1   c-2.2-0.9-3.8-3.1-3.8-5.7s1.6-4.8,3.8-5.7V438c-2.2-0.9-3.8-3.1-3.8-5.7S241.1,427.6,243.3,426.7z M15.8,997   c-3.4,0-6.1-2.7-6.1-6.1s2.7-6.1,6.1-6.1s6.1,2.7,6.1,6.1S19.2,997,15.8,997z M15.8,967.5c-3.4,0-6.1-2.7-6.1-6.1s2.7-6.1,6.1-6.1   s6.1,2.7,6.1,6.1S19.2,967.5,15.8,967.5z M15.8,938.2c-3.4,0-6.1-2.7-6.1-6.1s2.7-6.1,6.1-6.1s6.1,2.7,6.1,6.1   S19.2,938.2,15.8,938.2z M15.8,908.8c-3.4,0-6.1-2.7-6.1-6.1s2.7-6.1,6.1-6.1s6.1,2.7,6.1,6.1S19.2,908.8,15.8,908.8z M15.8,879.4   c-3.4,0-6.1-2.7-6.1-6.1s2.7-6.1,6.1-6.1s6.1,2.7,6.1,6.1S19.2,879.4,15.8,879.4z M15.8,850c-3.4,0-6.1-2.7-6.1-6.1   s2.7-6.1,6.1-6.1s6.1,2.7,6.1,6.1S19.2,850,15.8,850z M15.8,820.6c-3.4,0-6.1-2.7-6.1-6.1s2.7-6.1,6.1-6.1s6.1,2.7,6.1,6.1   S19.2,820.6,15.8,820.6z M15.8,791.2c-3.4,0-6.1-2.7-6.1-6.1s2.7-6.1,6.1-6.1s6.1,2.7,6.1,6.1S19.2,791.2,15.8,791.2z M15.8,761.8   c-3.4,0-6.1-2.7-6.1-6.1s2.7-6.1,6.1-6.1s6.1,2.7,6.1,6.1S19.2,761.8,15.8,761.8z M15.8,732.4c-3.4,0-6.1-2.7-6.1-6.1   s2.7-6.1,6.1-6.1s6.1,2.7,6.1,6.1S19.2,732.4,15.8,732.4z M15.8,703c-3.4,0-6.1-2.7-6.1-6.1s2.7-6.1,6.1-6.1s6.1,2.7,6.1,6.1   S19.2,703,15.8,703z M15.8,673.6c-3.4,0-6.1-2.7-6.1-6.1s2.7-6.1,6.1-6.1s6.1,2.7,6.1,6.1S19.2,673.6,15.8,673.6z M15.8,644.2   c-3.4,0-6.1-2.7-6.1-6.1s2.7-6.1,6.1-6.1s6.1,2.7,6.1,6.1S19.2,644.2,15.8,644.2z M15.8,614.8c-3.4,0-6.1-2.7-6.1-6.1   s2.7-6.1,6.1-6.1s6.1,2.7,6.1,6.1S19.2,614.8,15.8,614.8z M15.8,585.4c-3.4,0-6.1-2.7-6.1-6.1s2.7-6.1,6.1-6.1s6.1,2.7,6.1,6.1   S19.2,585.4,15.8,585.4z M15.8,556c-3.4,0-6.1-2.7-6.1-6.1s2.7-6.1,6.1-6.1s6.1,2.7,6.1,6.1S19.2,556,15.8,556z M15.8,526.6   c-3.4,0-6.1-2.7-6.1-6.1s2.7-6.1,6.1-6.1c3.4,0,6.1,2.7,6.1,6.1S19.2,526.6,15.8,526.6z M15.8,497.2c-3.4,0-6.1-2.7-6.1-6.1   s2.7-6.1,6.1-6.1s6.1,2.7,6.1,6.1S19.2,497.2,15.8,497.2z M15.8,467.8c-3.4,0-6.1-2.7-6.1-6.1s2.7-6.1,6.1-6.1s6.1,2.7,6.1,6.1   S19.2,467.8,15.8,467.8z M15.8,438.4c-3.4,0-6.1-2.7-6.1-6.1s2.7-6.1,6.1-6.1s6.1,2.7,6.1,6.1S19.2,438.4,15.8,438.4z M53.7,996.9   c-6.7,0-12.1-5.4-12.1-12.1s5.4-12.1,12.1-12.1c6.7,0,12.1,5.4,12.1,12.1S60.4,996.9,53.7,996.9z M53.7,449.8   c-6.7,0-12.1-5.4-12.1-12.1c0-6.7,5.4-12.1,12.1-12.1c6.7,0,12.1,5.4,12.1,12.1C65.8,444.3,60.4,449.8,53.7,449.8z M127.6,783   c-3.1,0-5.7-2.6-5.7-5.7s2.6-5.7,5.7-5.7c3.1,0,5.7,2.6,5.7,5.7S130.7,783,127.6,783z M157,783c-3.1,0-5.7-2.6-5.7-5.7   s2.6-5.7,5.7-5.7c3.1,0,5.7,2.6,5.7,5.7S160.2,783,157,783z M186.2,425.5c6.7,0,12.1,5.4,12.1,12.1c0,6.7-5.4,12.1-12.1,12.1   s-12.1-5.4-12.1-12.1C174.1,431,179.6,425.5,186.2,425.5z M192.5,777.3c0,3.1-2.6,5.7-5.7,5.7c-3.1,0-5.7-2.6-5.7-5.7   s2.6-5.7,5.7-5.7C190,771.6,192.5,774.2,192.5,777.3z M188.2,996.9c-6.7,0-12.1-5.4-12.1-12.1s5.4-12.1,12.1-12.1   s12.1,5.4,12.1,12.1S194.9,996.9,188.2,996.9z M227.8,997c-3.4,0-6.1-2.7-6.1-6.1s2.7-6.1,6.1-6.1s6.1,2.7,6.1,6.1   S231.2,997,227.8,997z M227.8,967.6c-3.4,0-6.1-2.7-6.1-6.1s2.7-6.1,6.1-6.1s6.1,2.7,6.1,6.1S231.2,967.6,227.8,967.6z    M227.8,938.2c-3.4,0-6.1-2.7-6.1-6.1s2.7-6.1,6.1-6.1s6.1,2.7,6.1,6.1S231.2,938.2,227.8,938.2z M227.8,908.8   c-3.4,0-6.1-2.7-6.1-6.1s2.7-6.1,6.1-6.1s6.1,2.7,6.1,6.1S231.2,908.8,227.8,908.8z M227.8,879.4c-3.4,0-6.1-2.7-6.1-6.1   s2.7-6.1,6.1-6.1s6.1,2.7,6.1,6.1S231.2,879.4,227.8,879.4z M227.8,850c-3.4,0-6.1-2.7-6.1-6.1s2.7-6.1,6.1-6.1s6.1,2.7,6.1,6.1   S231.2,850,227.8,850z M227.8,820.6c-3.4,0-6.1-2.7-6.1-6.1s2.7-6.1,6.1-6.1s6.1,2.7,6.1,6.1S231.2,820.6,227.8,820.6z    M227.8,791.2c-3.4,0-6.1-2.7-6.1-6.1s2.7-6.1,6.1-6.1s6.1,2.7,6.1,6.1S231.2,791.2,227.8,791.2z M227.8,761.8   c-3.4,0-6.1-2.7-6.1-6.1s2.7-6.1,6.1-6.1s6.1,2.7,6.1,6.1S231.2,761.8,227.8,761.8z M227.8,732.4c-3.4,0-6.1-2.7-6.1-6.1   s2.7-6.1,6.1-6.1s6.1,2.7,6.1,6.1S231.2,732.4,227.8,732.4z M227.8,703c-3.4,0-6.1-2.7-6.1-6.1s2.7-6.1,6.1-6.1s6.1,2.7,6.1,6.1   S231.2,703,227.8,703z M227.8,673.6c-3.4,0-6.1-2.7-6.1-6.1s2.7-6.1,6.1-6.1s6.1,2.7,6.1,6.1S231.2,673.6,227.8,673.6z    M227.8,644.2c-3.4,0-6.1-2.7-6.1-6.1s2.7-6.1,6.1-6.1s6.1,2.7,6.1,6.1S231.2,644.2,227.8,644.2z M227.8,614.8   c-3.4,0-6.1-2.7-6.1-6.1s2.7-6.1,6.1-6.1s6.1,2.7,6.1,6.1S231.2,614.8,227.8,614.8z M227.8,585.4c-3.4,0-6.1-2.7-6.1-6.1   s2.7-6.1,6.1-6.1s6.1,2.7,6.1,6.1S231.2,585.4,227.8,585.4z M227.8,556c-3.4,0-6.1-2.7-6.1-6.1s2.7-6.1,6.1-6.1s6.1,2.7,6.1,6.1   S231.2,556,227.8,556z M227.8,526.6c-3.4,0-6.1-2.7-6.1-6.1s2.7-6.1,6.1-6.1s6.1,2.7,6.1,6.1S231.2,526.6,227.8,526.6z    M227.8,497.2c-3.4,0-6.1-2.7-6.1-6.1s2.7-6.1,6.1-6.1s6.1,2.7,6.1,6.1S231.2,497.2,227.8,497.2z M227.8,467.8   c-3.4,0-6.1-2.7-6.1-6.1s2.7-6.1,6.1-6.1s6.1,2.7,6.1,6.1S231.2,467.8,227.8,467.8z M227.8,438.4c-3.4,0-6.1-2.7-6.1-6.1   s2.7-6.1,6.1-6.1s6.1,2.7,6.1,6.1S231.2,438.4,227.8,438.4z"
   id="path1" />&#10;	<path
   class="st1"
   d="M53.7,417.1c-11.3,0-20.5,9.2-20.5,20.5c0,11.3,9.2,20.5,20.5,20.5s20.5-9.2,20.5-20.5   C74.3,426.3,65.1,417.1,53.7,417.1z M53.7,449.8c-6.7,0-12.1-5.4-12.1-12.1c0-6.7,5.4-12.1,12.1-12.1c6.7,0,12.1,5.4,12.1,12.1   C65.8,444.4,60.4,449.8,53.7,449.8z"
   id="path2" />&#10;	<path
   class="st1"
   d="M186.3,417.1c-11.3,0-20.5,9.2-20.5,20.5c0,11.3,9.2,20.5,20.5,20.5c11.3,0,20.5-9.2,20.5-20.5   C206.8,426.3,197.6,417.1,186.3,417.1z M186.3,449.8c-6.7,0-12.1-5.4-12.1-12.1c0-6.7,5.4-12.1,12.1-12.1c6.7,0,12.1,5.4,12.1,12.1   C198.4,444.4,193,449.8,186.3,449.8z"
   id="path3" />&#10;	<path
   class="st1"
   d="M53.7,964.3c-11.3,0-20.5,9.2-20.5,20.5s9.2,20.5,20.5,20.5s20.5-9.2,20.5-20.5S65.1,964.3,53.7,964.3z    M53.7,996.9c-6.7,0-12.1-5.4-12.1-12.1s5.4-12.1,12.1-12.1c6.7,0,12.1,5.4,12.1,12.1S60.4,996.9,53.7,996.9z"
   id="path4" />&#10;	<path
   class="st1"
   d="M188.3,964.3c-11.3,0-20.5,9.2-20.5,20.5s9.2,20.5,20.5,20.5c11.3,0,20.5-9.2,20.5-20.5   S199.6,964.3,188.3,964.3z M188.3,996.9c-6.7,0-12.1-5.4-12.1-12.1s5.4-12.1,12.1-12.1c6.7,0,12.1,5.4,12.1,12.1   S195,996.9,188.3,996.9z"
   id="path5" />&#10;	<path
   id="circle5"
   class="st2"
   style="fill:#525035"
   d="m 65.6,502.39999 a 10.6,10.6 0 0 1 -10.6,10.6 10.6,10.6 0 0 1 -10.6,-10.6 10.6,10.6 0 0 1 10.6,-10.6 10.6,10.6 0 0 1 10.6,10.6 z" />&#10;	<path
   id="circle6"
   class="st3"
   style="fill:#fee86f"
   d="m 60.5,502.39999 a 5.5,5.5 0 0 1 -5.5,5.5 5.5,5.5 0 0 1 -5.5,-5.5 5.5,5.5 0 0 1 5.5,-5.5 5.5,5.5 0 0 1 5.5,5.5 z" />&#10;	<path
   class="st4"
   d="M17.5,482.2H0.3v3.4c2.3,0.9,3.9,3.1,3.9,5.7s-1.6,4.8-3.9,5.7v3.4h17.2c5,0,9-4,9-9v0   C26.5,486.2,22.4,482.2,17.5,482.2z M15.9,497.3c-3.4,0-6.1-2.7-6.1-6.1s2.7-6.1,6.1-6.1s6.1,2.7,6.1,6.1S19.2,497.3,15.9,497.3z"
   id="path6" />&#10;	<path
   class="st4"
   d="M17.5,629.1H0.3v3.4c2.3,0.9,3.9,3.1,3.9,5.7s-1.6,4.8-3.9,5.7v3.4h17.2c5,0,9-4,9-9S22.4,629.1,17.5,629.1z    M15.9,644.2c-3.4,0-6.1-2.7-6.1-6.1s2.7-6.1,6.1-6.1s6.1,2.7,6.1,6.1S19.2,644.2,15.9,644.2z"
   id="path7" />&#10;	<path
   class="st4"
   d="M17.5,776.1H0.3v3.4c2.3,0.9,3.9,3.1,3.9,5.7s-1.6,4.8-3.9,5.7v3.4h17.2c5,0,9-4,9-9S22.4,776.1,17.5,776.1z    M15.9,791.2c-3.4,0-6.1-2.7-6.1-6.1s2.7-6.1,6.1-6.1s6.1,2.7,6.1,6.1S19.2,791.2,15.9,791.2z"
   id="path8" />&#10;	<path
   class="st4"
   d="M17.5,805.5H0.3v3.4c2.3,0.9,3.9,3.1,3.9,5.7s-1.6,4.8-3.9,5.7v3.4h17.2c5,0,9-4,9-9S22.4,805.5,17.5,805.5z    M15.9,820.6c-3.4,0-6.1-2.7-6.1-6.1s2.7-6.1,6.1-6.1s6.1,2.7,6.1,6.1S19.2,820.6,15.9,820.6z"
   id="path9" />&#10;	<path
   class="st4"
   d="M17.5,834.9H0.3v3.4c2.3,0.9,3.9,3.1,3.9,5.7s-1.6,4.8-3.9,5.7v3.4h17.2c5,0,9-4,9-9S22.4,834.9,17.5,834.9z    M15.9,850c-3.4,0-6.1-2.7-6.1-6.1s2.7-6.1,6.1-6.1s6.1,2.7,6.1,6.1S19.2,850,15.9,850z"
   id="path10" />&#10;	<path
   class="st4"
   d="M17.5,864.3H0.3v3.4c2.3,0.9,3.9,3.1,3.9,5.7s-1.6,4.8-3.9,5.7v3.4h17.2c5,0,9-4,9-9S22.4,864.3,17.5,864.3z    M15.9,879.4c-3.4,0-6.1-2.7-6.1-6.1s2.7-6.1,6.1-6.1s6.1,2.7,6.1,6.1S19.2,879.4,15.9,879.4z"
   id="path11" />&#10;	<path
   class="st4"
   d="M17.5,923.1H0.3v3.4c2.3,0.9,3.9,3.1,3.9,5.7s-1.6,4.8-3.9,5.7v3.4h17.2c5,0,9-4,9-9v0   C26.5,927.1,22.4,923.1,17.5,923.1z M15.9,938.2c-3.4,0-6.1-2.7-6.1-6.1s2.7-6.1,6.1-6.1s6.1,2.7,6.1,6.1S19.2,938.2,15.9,938.2z"
   id="path12" />&#10;	<path
   class="st4"
   d="M17.5,952.5H0.3v3.4c2.3,0.9,3.9,3.1,3.9,5.7s-1.6,4.8-3.9,5.7v3.4h17.2c5,0,9-4,9-9v0   C26.5,956.5,22.4,952.5,17.5,952.5z M15.9,967.6c-3.4,0-6.1-2.7-6.1-6.1s2.7-6.1,6.1-6.1s6.1,2.7,6.1,6.1S19.2,967.6,15.9,967.6z"
   id="path13" />&#10;	<path
   class="st4"
   d="M17.5,981.9H0.3v3.4c2.3,0.9,3.9,3.1,3.9,5.7s-1.6,4.8-3.9,5.7v3.4h17.2c5,0,9-4,9-9S22.4,981.9,17.5,981.9z    M15.9,997c-3.4,0-6.1-2.7-6.1-6.1s2.7-6.1,6.1-6.1s6.1,2.7,6.1,6.1S19.2,997,15.9,997z"
   id="path14" />&#10;	<path
   class="st4"
   d="M239.5,432.4c0-2.6,1.6-4.8,3.9-5.7v-3.4h-17.2c-5,0-9,4-9,9s4,9,9,9h17.2v-3.4   C241.2,437.2,239.5,435,239.5,432.4z M227.8,438.5c-3.4,0-6.1-2.7-6.1-6.1s2.7-6.1,6.1-6.1s6.1,2.7,6.1,6.1   S231.2,438.5,227.8,438.5z"
   id="path15" />&#10;	<path
   class="st4"
   d="M239.5,461.8c0-2.6,1.6-4.8,3.9-5.7v-3.4h-17.2c-5,0-9,4-9,9v0c0,5,4,9,9,9h17.2v-3.4   C241.2,466.6,239.5,464.4,239.5,461.8z M227.8,467.9c-3.4,0-6.1-2.7-6.1-6.1s2.7-6.1,6.1-6.1s6.1,2.7,6.1,6.1   S231.2,467.9,227.8,467.9z"
   id="path16" />&#10;	<path
   class="st4"
   d="M239.5,491.2c0-2.6,1.6-4.8,3.9-5.7v-3.4h-17.2c-5,0-9,4-9,9v0c0,5,4,9,9,9h17.2v-3.4   C241.2,496,239.5,493.8,239.5,491.2z M227.8,497.3c-3.4,0-6.1-2.7-6.1-6.1s2.7-6.1,6.1-6.1s6.1,2.7,6.1,6.1   S231.2,497.3,227.8,497.3z"
   id="path17" />&#10;	<path
   class="st4"
   d="M239.5,520.6c0-2.6,1.6-4.8,3.9-5.7v-3.4h-17.2c-5,0-9,4-9,9s4,9,9,9h17.2v-3.4   C241.2,525.4,239.5,523.2,239.5,520.6z M227.8,526.7c-3.4,0-6.1-2.7-6.1-6.1s2.7-6.1,6.1-6.1s6.1,2.7,6.1,6.1   S231.2,526.7,227.8,526.7z"
   id="path18" />&#10;	<path
   class="st4"
   d="M239.5,550c0-2.6,1.6-4.8,3.9-5.7V541h-17.2c-5,0-9,4-9,9s4,9,9,9h17.2v-3.4   C241.2,554.8,239.5,552.6,239.5,550z M227.8,556.1c-3.4,0-6.1-2.7-6.1-6.1s2.7-6.1,6.1-6.1s6.1,2.7,6.1,6.1   S231.2,556.1,227.8,556.1z"
   id="path19" />&#10;	<path
   class="st4"
   d="M239.5,579.4c0-2.6,1.6-4.8,3.9-5.7v-3.4h-17.2c-5,0-9,4-9,9s4,9,9,9h17.2V585   C241.2,584.2,239.5,582,239.5,579.4z M227.8,585.5c-3.4,0-6.1-2.7-6.1-6.1s2.7-6.1,6.1-6.1s6.1,2.7,6.1,6.1   S231.2,585.5,227.8,585.5z"
   id="path20" />&#10;	<path
   class="st4"
   d="M239.5,638.2c0-2.6,1.6-4.8,3.9-5.7v-3.4h-17.2c-5,0-9,4-9,9s4,9,9,9h17.2v-3.4   C241.2,642.9,239.5,640.7,239.5,638.2z M227.8,644.2c-3.4,0-6.1-2.7-6.1-6.1s2.7-6.1,6.1-6.1s6.1,2.7,6.1,6.1   S231.2,644.2,227.8,644.2z"
   id="path21" />&#10;	<path
   class="st4"
   d="M239.5,697c0-2.6,1.6-4.8,3.9-5.7v-3.4h-17.2c-5,0-9,4-9,9v0c0,5,4,9,9,9h17.2v-3.4   C241.2,701.7,239.5,699.5,239.5,697z M227.8,703c-3.4,0-6.1-2.7-6.1-6.1s2.7-6.1,6.1-6.1s6.1,2.7,6.1,6.1S231.2,703,227.8,703z"
   id="path22" />&#10;	<path
   class="st4"
   d="M239.5,726.3c0-2.6,1.6-4.8,3.9-5.7v-3.4h-17.2c-5,0-9,4-9,9v0c0,5,4,9,9,9h17.2V732   C241.2,731.1,239.5,728.9,239.5,726.3z M227.8,732.4c-3.4,0-6.1-2.7-6.1-6.1s2.7-6.1,6.1-6.1s6.1,2.7,6.1,6.1   S231.2,732.4,227.8,732.4z"
   id="path23" />&#10;	<path
   class="st4"
   d="M239.5,755.7c0-2.6,1.6-4.8,3.9-5.7v-3.4h-17.2c-5,0-9,4-9,9s4,9,9,9h17.2v-3.4   C241.2,760.5,239.5,758.3,239.5,755.7z M227.8,761.8c-3.4,0-6.1-2.7-6.1-6.1s2.7-6.1,6.1-6.1s6.1,2.7,6.1,6.1   S231.2,761.8,227.8,761.8z"
   id="path24" />&#10;	<path
   class="st4"
   d="M239.5,785.1c0-2.6,1.6-4.8,3.9-5.7v-3.4h-17.2c-5,0-9,4-9,9s4,9,9,9h17.2v-3.4   C241.2,789.9,239.5,787.7,239.5,785.1z M227.8,791.2c-3.4,0-6.1-2.7-6.1-6.1s2.7-6.1,6.1-6.1s6.1,2.7,6.1,6.1   S231.2,791.2,227.8,791.2z"
   id="path25" />&#10;	<path
   class="st4"
   d="M239.5,814.5c0-2.6,1.6-4.8,3.9-5.7v-3.4h-17.2c-5,0-9,4-9,9s4,9,9,9h17.2v-3.4   C241.2,819.3,239.5,817.1,239.5,814.5z M227.8,820.6c-3.4,0-6.1-2.7-6.1-6.1s2.7-6.1,6.1-6.1s6.1,2.7,6.1,6.1   S231.2,820.6,227.8,820.6z"
   id="path26" />&#10;	<path
   class="st4"
   d="M239.5,843.9c0-2.6,1.6-4.8,3.9-5.7v-3.4h-17.2c-5,0-9,4-9,9s4,9,9,9h17.2v-3.4   C241.2,848.7,239.5,846.5,239.5,843.9z M227.8,850c-3.4,0-6.1-2.7-6.1-6.1s2.7-6.1,6.1-6.1s6.1,2.7,6.1,6.1S231.2,850,227.8,850z"
   id="path27" />&#10;	<path
   class="st4"
   d="M239.5,873.3c0-2.6,1.6-4.8,3.9-5.7v-3.4h-17.2c-5,0-9,4-9,9s4,9,9,9h17.2V879   C241.2,878.1,239.5,875.9,239.5,873.3z M227.8,879.4c-3.4,0-6.1-2.7-6.1-6.1s2.7-6.1,6.1-6.1s6.1,2.7,6.1,6.1   S231.2,879.4,227.8,879.4z"
   id="path28" />&#10;	<path
   class="st4"
   d="M239.5,932.1c0-2.6,1.6-4.8,3.9-5.7v-3.4h-17.2c-5,0-9,4-9,9v0c0,5,4,9,9,9h17.2v-3.4   C241.2,936.9,239.5,934.7,239.5,932.1z M227.8,938.2c-3.4,0-6.1-2.7-6.1-6.1s2.7-6.1,6.1-6.1s6.1,2.7,6.1,6.1   S231.2,938.2,227.8,938.2z"
   id="path29" />&#10;	<path
   class="st4"
   d="M239.5,961.5c0-2.6,1.6-4.8,3.9-5.7v-3.4h-17.2c-5,0-9,4-9,9v0c0,5,4,9,9,9h17.2v-3.4   C241.2,966.3,239.5,964.1,239.5,961.5z M227.8,967.6c-3.4,0-6.1-2.7-6.1-6.1s2.7-6.1,6.1-6.1s6.1,2.7,6.1,6.1   S231.2,967.6,227.8,967.6z"
   id="path30" />&#10;	<path
   class="st5"
   d="M163.1,404.3l4.4-4.4l-2.3-2.3l-6.6,6.6h-1.5v-4.7c0-1.2-1-2.2-2.2-2.2H85.4c-1.2,0-2.2,1-2.2,2.2v4.7h-1.5   l-6.6-6.6l-2.3,2.3l4.4,4.4c-0.6,0.2-1,0.8-1,1.4V462c0,0.9,0.7,1.6,1.6,1.6h84.6c0.9,0,1.6-0.7,1.6-1.6v-56.3   C164,405.1,163.6,404.5,163.1,404.3z"
   id="path31" />&#10;	<g
   id="g33">&#10;		<path
   class="st6"
   d="M100.3,426.6c0-3.2-2.6-5.8-5.8-5.8s-5.8,2.6-5.8,5.8c0,1.4,0.5,2.7,1.3,3.7h-0.2v7.7c0,1.2,1,2.1,2.1,2.1H97    c1.2,0,2.1-1,2.1-2.1v-7.7H99C99.8,429.3,100.3,428,100.3,426.6z"
   id="path32" />&#10;		<path
   class="st6"
   d="M155.5,426.6c0-3.2-2.6-5.8-5.8-5.8s-5.8,2.6-5.8,5.8c0,1.4,0.5,2.7,1.3,3.7H145v7.7c0,1.2,1,2.1,2.1,2.1h5.1    c1.2,0,2.1-1,2.1-2.1v-7.7h-0.2C155,429.3,155.5,428,155.5,426.6z"
   id="path33" />&#10;	</g>&#10;	<path
   class="st7"
   d="M200.9,556.7h-21c-1.2,0-2.2-1-2.2-2.2v-26.7c0-1.2,1-2.2,2.2-2.2h21c1.2,0,2.2,1,2.2,2.2v26.7   C203,555.7,202.1,556.7,200.9,556.7z"
   id="path34" />&#10;	<g
   id="g35">&#10;		<path
   id="rect34"
   class="st8"
   style="fill:#e2eade"
   d="m 132,492.89999 h 21.7 v 14.4 H 132 Z" />&#10;		<path
   class="st9"
   d="M149.3,507.3c-2-1.8-3.2-4.4-3.2-7.2s1.2-5.4,3.2-7.2h-12.8c2,1.8,3.2,4.4,3.2,7.2s-1.2,5.4-3.2,7.2H149.3z"
   id="path35" />&#10;	</g>&#10;	<g
   id="g36">&#10;		<path
   id="rect35"
   class="st8"
   style="fill:#e2eade"
   d="M 132.3,578.20001 H 154 v 14.4 h -21.7 z" />&#10;		<path
   class="st9"
   d="M149.6,592.7c-2-1.8-3.2-4.4-3.2-7.2s1.2-5.4,3.2-7.2h-12.8c2,1.8,3.2,4.4,3.2,7.2s-1.2,5.4-3.2,7.2H149.6z"
   id="path36" />&#10;	</g>&#10;	<g
   id="g37">&#10;		<path
   id="rect36"
   class="st8"
   style="fill:#e2eade"
   d="M 132.3,597.40002 H 154 v 14.4 h -21.7 z" />&#10;		<path
   class="st9"
   d="M149.6,611.8c-2-1.8-3.2-4.4-3.2-7.2s1.2-5.4,3.2-7.2h-12.8c2,1.8,3.2,4.4,3.2,7.2s-1.2,5.4-3.2,7.2H149.6z"
   id="path37" />&#10;	</g>&#10;	<g
   id="g38">&#10;		&#10;			<path
   id="rect37"
   class="st8"
   transform="matrix(6.123234e-17 -1 1 6.123234e-17 -584.5467 717.5831)"
   style="fill:#e2eade"
   d="m 63.799999,645.79999 h 5.4 v 10.6 h -5.4 z" />&#10;		&#10;			<path
   id="rect38"
   class="st9"
   transform="matrix(6.123234e-17 -1 1 6.123234e-17 -584.5467 717.5831)"
   style="fill:#c29148"
   d="m 63.799999,648.09998 h 5.4 v 6 h -5.4 z" />&#10;	</g>&#10;	<g
   id="g40">&#10;		<path
   id="rect39"
   class="st8"
   style="fill:#e2eade"
   d="m 177.10001,628.29999 h 5.4 v 10.6 h -5.4 z" />&#10;		<path
   id="rect40"
   class="st9"
   style="fill:#c29148"
   d="m 177.10001,630.59998 h 5.4 v 6 h -5.4 z" />&#10;	</g>&#10;	<path
   id="rect41"
   class="st7"
   style="fill:#474544"
   d="m 179.5,478.29999 h 18.9 v 29.3 h -18.9 z" />&#10;	<g
   id="g43">&#10;		<path
   id="rect42"
   class="st8"
   style="fill:#e2eade"
   d="m 171.60001,579.59998 h 20.6 v 9.6 h -20.6 z" />&#10;		<path
   id="rect43"
   class="st10"
   style="fill:#8dddde"
   d="m 176.2,579.59998 h 11.5 v 9.6 h -11.5 z" />&#10;	</g>&#10;	<path
   id="rect44"
   class="st9"
   style="fill:#c29148"
   d="m 120.2,747.70001 h 4.2 v 6.9 h -4.2 z" />&#10;	<path
   id="rect45"
   class="st9"
   style="fill:#c29148"
   d="m 126.9,747.70001 h 4.2 v 6.9 h -4.2 z" />&#10;	&#10;		<path
   id="rect46"
   class="st9"
   transform="matrix(6.123234e-17 -1 1 6.123234e-17 -592.3434 729.826)"
   style="fill:#c29148"
   d="m 66.599998,657.70001 h 4.2 v 6.9 h -4.2 z" />&#10;	&#10;		<path
   id="rect47"
   class="st9"
   transform="matrix(6.123234e-17 -1 1 6.123234e-17 -502.2786 685.603)"
   style="fill:#c29148"
   d="m 89.5,590.5 h 4.2 v 6.9 h -4.2 z" />&#10;	&#10;		<path
   id="rect48"
   class="st9"
   transform="matrix(6.123234e-17 -1 1 6.123234e-17 -636.2974 773.0676)"
   style="fill:#c29148"
   d="m 66.300003,701.29999 h 4.2 v 6.9 h -4.2 z" />&#10;	<path
   id="rect49"
   class="st7"
   style="fill:#474544"
   d="m 195,706.5 h 4.2 v 6.9 H 195 Z" />&#10;	&#10;		<path
   id="rect50"
   class="st7"
   transform="matrix(6.123234e-17 -1 1 6.123234e-17 -457.3272 839.9789)"
   style="fill:#474544"
   d="m 189.2,645.20001 h 4.2 v 6.9 h -4.2 z" />&#10;	&#10;		<path
   id="rect51"
   class="st7"
   transform="matrix(6.123234e-17 -1 1 6.123234e-17 -403.6455 582.308)"
   style="fill:#474544"
   d="m 87.199997,489.5 h 4.2 v 6.9 h -4.2 z" />&#10;	&#10;		<path
   id="rect52"
   class="st7"
   transform="matrix(6.123234e-17 -1 1 6.123234e-17 -420.7607 589.6677)"
   style="fill:#474544"
   d="m 82.300003,501.79999 h 4.2 v 6.9 h -4.2 z" />&#10;	&#10;		<path
   id="rect53"
   class="st7"
   transform="matrix(6.123234e-17 -1 1 6.123234e-17 -402.7175 792.6318)"
   style="fill:#474544"
   d="m 192.8,594.20001 h 4.2 v 6.9 h -4.2 z" />&#10;	<path
   class="st11"
   d="M186.3,911.4H57.5c-2.1,0-3.9-1.7-3.9-3.9V799.4c0-2.1,1.7-3.9,3.9-3.9h128.8c2.1,0,3.9,1.7,3.9,3.9v108.1   C190.2,909.6,188.5,911.4,186.3,911.4z"
   id="path53" />&#10;	<path
   id="rect54"
   class="st12"
   style="fill:#c2bfab"
   d="M 101.5,957.59998 H 112 v 5.9 h -10.5 z" />&#10;	<path
   id="rect55"
   class="st12"
   style="fill:#c2bfab"
   d="m 130.3,957.79999 h 10.5 v 5.9 h -10.5 z" />&#10;	<path
   id="rect56"
   class="st12"
   style="fill:#c2bfab"
   d="M 101.5,995.40002 H 112 V 1001.3 h -10.5 z" />&#10;	<path
   id="rect57"
   class="st12"
   style="fill:#c2bfab"
   d="m 130.3,995.5 h 10.5 v 5.9 h -10.5 z" />&#10;	<path
   id="polyline57"
   class="st13"
   style="fill:none;stroke:#95ac6e;stroke-miterlimit:10"
   d="m 17.5,440.1 v 4.5 l 17.9,17.9 v 48.6 L 51,526.7 v 134.8 l 4.9,4.9 h 35.3" />&#10;	<path
   id="polyline58"
   class="st13"
   style="fill:none;stroke:#95ac6e;stroke-miterlimit:10"
   d="m 22.9,467 8.1,8.1 V 513 l 15.7,15.7 v 135.2 l 5.9,6 H 91" />&#10;	<path
   id="polyline59"
   class="st13"
   style="fill:none;stroke:#95ac6e;stroke-miterlimit:10"
   d="M 23.2,525.5 43,545.2 v 121.2 l 10.4,10.4 H 95" />&#10;	<path
   id="polyline60"
   class="st13"
   style="fill:none;stroke:#95ac6e;stroke-miterlimit:10"
   d="m 23.2,554.9 16.6,16.5 v 96.9 l 12.1,12.2 h 43.2" />&#10;	<path
   id="polyline61"
   class="st13"
   style="fill:none;stroke:#95ac6e;stroke-miterlimit:10"
   d="m 23.2,585 12.4,12.3 v 76.1 l 13.9,13.9 h 43.9" />&#10;	<path
   id="polyline62"
   class="st13"
   style="fill:none;stroke:#95ac6e;stroke-miterlimit:10"
   d="m 22.9,613.2 8.7,8.7 V 676 l 14.8,14.8 h 49.7" />&#10;	<path
   id="polyline63"
   class="st13"
   style="fill:none;stroke:#95ac6e;stroke-miterlimit:10"
   d="m 22.9,671.8 22.4,22.5 h 57.4" />&#10;	<path
   id="line63"
   class="st13"
   style="fill:none;stroke:#95ac6e;stroke-miterlimit:10"
   d="M 23.700001,697.79999 H 98.800003" />&#10;	<path
   class="st13"
   d="M23.2,724.1c0.1-0.6,17.3-17.3,17.3-17.3H53l4.9,4.9h45.7"
   id="path63" />&#10;	<path
   id="polyline64"
   class="st13"
   style="fill:none;stroke:#95ac6e;stroke-miterlimit:10"
   d="m 20.4,750 5.3,-5.3 v -7.8 l 5.2,-5.2 v -8.4 l 13,-13 h 8.7 l 4.7,4.6 h 38" />&#10;	<path
   class="st13"
   d="M30.7,740.2l3.4-3.4c0,0-0.7-8.9,0-9.6c0.7-0.7,6-6,6-6l6.3-6.3h6.1l3.7,3.7h35.1"
   id="path64" />&#10;	<path
   id="polyline65"
   class="st13"
   style="fill:none;stroke:#95ac6e;stroke-miterlimit:10"
   d="m 29.1,796.1 v -47.6 l 9.6,-9.6 h 54.7 l 1.6,-1.6 v -9.7" />&#10;	<path
   id="polyline66"
   class="st13"
   style="fill:none;stroke:#95ac6e;stroke-miterlimit:10"
   d="m 17.5,894.4 v -3.7 L 32.9,875.3 V 795 l 2.8,-2.8 v -41.8 l 6.3,-6.3 h 52.2 l 4.2,-4.2 v -7.3" />&#10;	<path
   class="st13"
   d="M35.7,777.9"
   id="path66" />&#10;	<path
   class="st13"
   d="M35.7,793.2"
   id="path67" />&#10;	<path
   id="polyline67"
   class="st13"
   style="fill:none;stroke:#95ac6e;stroke-miterlimit:10"
   d="m 23.6,954.9 6.8,-6.8 v -64.5 l 7.1,-5.9" />&#10;	<path
   id="polyline68"
   class="st13"
   style="fill:none;stroke:#95ac6e;stroke-miterlimit:10"
   d="m 35.6,887.9 7,-7 v -89.7 l -2.7,-2.7 v -36.8 l 4.7,-4.7 h 50.3 l 7,-7 v -16.6" />&#10;	<path
   id="polyline69"
   class="st13"
   style="fill:none;stroke:#95ac6e;stroke-miterlimit:10"
   d="m 108.9,730.2 v 8.7 l -13,13 h -4.4" />&#10;	<path
   id="polyline70"
   class="st13"
   style="fill:none;stroke:#95ac6e;stroke-miterlimit:10"
   d="M 93.9,760.5 112.4,742 v -15.4" />&#10;	<path
   id="polyline71"
   class="st13"
   style="fill:none;stroke:#95ac6e;stroke-miterlimit:10"
   d="m 115.9,732 v 11.7 l -13.7,13.6 v 20.1 l -6.3,6.3 H 65 l -9.5,-9.5" />&#10;	<path
   id="polyline72"
   class="st13"
   style="fill:none;stroke:#95ac6e;stroke-miterlimit:10"
   d="m 133.9,771 4.8,-4.8 v -13.3 l -3.2,-3.2 v -10 l -3.1,-3.1 v -11" />&#10;	<path
   id="polyline73"
   class="st13"
   style="fill:none;stroke:#95ac6e;stroke-miterlimit:10"
   d="m 137.3,729.7 v 7.9 l 2,2 v 6.3 l 13.4,13.5 h 12.2 l 14.2,14.2" />&#10;	<path
   id="polyline74"
   class="st13"
   style="fill:none;stroke:#95ac6e;stroke-miterlimit:10"
   d="m 145.3,727.5 v 10.4 l 6,6 h 21 l 28.2,28.3 v 112.6 l 6.2,6.2 v 50.8 l 5.6,5.6 v 20.2 l 11,11 v 5.4" />&#10;	<path
   id="polyline75"
   class="st13"
   style="fill:none;stroke:#95ac6e;stroke-miterlimit:10"
   d="m 150.7,728 v 7.3 l 4,4 h 18.9 l 31.6,31.6 v 111.4 l 6.2,6.2 v 52.6 l 4.2,4.2 v 8.8" />&#10;	<path
   id="polyline76"
   class="st13"
   style="fill:none;stroke:#95ac6e;stroke-miterlimit:10"
   d="m 157.5,722.8 h 7.8 l 45.8,45.8 v 111.7 l 16.1,16.1" />&#10;	<path
   id="polyline77"
   class="st13"
   style="fill:none;stroke:#95ac6e;stroke-miterlimit:10"
   d="m 157.5,718.4 h 9.4 l 25.2,25.2" />&#10;	<path
   id="polyline78"
   class="st13"
   style="fill:none;stroke:#95ac6e;stroke-miterlimit:10"
   d="m 158.6,713.3 h 8 l 23.5,23.5 h 5.4 l 10.8,10.8 v 6.9" />&#10;	<path
   id="polyline79"
   class="st13"
   style="fill:none;stroke:#95ac6e;stroke-miterlimit:10"
   d="m 158.2,708.8 h 9.1 l 23.1,23.1 h 10.5" />&#10;	<path
   id="polyline80"
   class="st13"
   style="fill:none;stroke:#95ac6e;stroke-miterlimit:10"
   d="m 158.2,704.7 h 10.9 l 5,5" />&#10;	<path
   id="polyline81"
   class="st13"
   style="fill:none;stroke:#95ac6e;stroke-miterlimit:10"
   d="m 158.2,699.7 h 17.2 l 27.4,27.3 h 3.5 l 9.6,9.7 v 12.4" />&#10;	<path
   id="line81"
   class="st13"
   style="fill:none;stroke:#95ac6e;stroke-miterlimit:10"
   d="M 158.60001,694.29999 H 167.7" />&#10;	<path
   id="polyline82"
   class="st13"
   style="fill:none;stroke:#95ac6e;stroke-miterlimit:10"
   d="m 156.4,688.9 h 15.4 l 7.4,7.3" />&#10;	<path
   id="polyline83"
   class="st13"
   style="fill:none;stroke:#95ac6e;stroke-miterlimit:10"
   d="m 187.9,708.8 4.5,-4.5 V 685 h 11" />&#10;	<path
   id="polyline84"
   class="st13"
   style="fill:none;stroke:#95ac6e;stroke-miterlimit:10"
   d="m 158.6,680.5 h 50.9 l 9,8.9" />&#10;	<path
   id="polyline85"
   class="st13"
   style="fill:none;stroke:#95ac6e;stroke-miterlimit:10"
   d="m 158.2,676 h 55.6 l 6.5,-6.5" />&#10;	<path
   id="polyline86"
   class="st13"
   style="fill:none;stroke:#95ac6e;stroke-miterlimit:10"
   d="m 157.5,671.8 h 41.3 l 8.3,-8.2 v -40.3 l 12.5,-12.5" />&#10;	<path
   id="polyline87"
   class="st13"
   style="fill:none;stroke:#95ac6e;stroke-miterlimit:10"
   d="m 158.6,667.6 h 20.5 l 23.3,-23.3 v -22.8" />&#10;	<path
   id="polyline88"
   class="st13"
   style="fill:none;stroke:#95ac6e;stroke-miterlimit:10"
   d="m 159.7,662.8 h 7.5 l 4.6,-4.6" />&#10;	<path
   class="st13"
   d="M147.8,657.5c-0.2-0.3,9.2-9.2,9.2-9.2h15.6v-33.5l2.8-2.8v-7.7"
   id="path88" />&#10;	<path
   class="st13"
   d="M147,655.3c0-0.2,0-6.5,0-6.5l10.3-10.3"
   id="path89" />&#10;	<path
   id="polyline89"
   class="st13"
   style="fill:none;stroke:#95ac6e;stroke-miterlimit:10"
   d="m 140.1,656.2 v -10.7 l 7.3,-7.4" />&#10;	<path
   id="line89"
   class="st13"
   style="fill:none;stroke:#95ac6e;stroke-miterlimit:10"
   d="M 136.60001,653.20001 V 635.59998" />&#10;	<path
   class="st13"
   d="M133.1,655c0-0.6,0-15.2,0-15.2l-4.2-4.2"
   id="path90" />&#10;	<path
   class="st13"
   d="M122.6,654.6c0-0.6,0-20.7,0-20.7"
   id="path91" />&#10;	<path
   class="st13"
   d="M119.2,656.3c0-0.3,0-11.1,0-11.1l-7.6-7.6"
   id="path92" />&#10;	<path
   id="polyline92"
   class="st13"
   style="fill:none;stroke:#95ac6e;stroke-miterlimit:10"
   d="m 115.6,655.8 v -6.4 l -13.8,-13.8 v -6.5 l 3.2,-3.2 h 3.9 l 2.6,-2.6 v -10.5 l -5.4,-5.4 H 100" />&#10;	<path
   id="polyline93"
   class="st13"
   style="fill:none;stroke:#95ac6e;stroke-miterlimit:10"
   d="m 99.8,613.2 h 5.6 l 3.1,3 v 5.3 l -2.8,2.7 h -4.6 l -3.4,3.4 v 9 l 11,11.1 v 6.7" />&#10;	<path
   id="polyline94"
   class="st13"
   style="fill:none;stroke:#95ac6e;stroke-miterlimit:10"
   d="m 91.3,617.7 v 16.7 l 13.9,14 v 9.4" />&#10;	<path
   id="polyline95"
   class="st13"
   style="fill:none;stroke:#95ac6e;stroke-miterlimit:10"
   d="m 76.5,616.9 v 7.1 l 9.4,9.4 v 3.9 l 13.1,13 v 9.1" />&#10;	<path
   class="st13"
   d="M94.8,653.5c0-0.1,0-5,0-5l-11.7-11.7v-1.1l-4.5-4.5h-6.4l-1.7-1.7h-6.9l-6.7-6.7v-14.4l1.6-1.6h8.8"
   id="path95" />&#10;	<path
   id="polyline96"
   class="st13"
   style="fill:none;stroke:#95ac6e;stroke-miterlimit:10"
   d="m 69.1,600.7 h -8.7 l -5,5 v 17.9 l 8,8 h 6.1 l 6.4,6.4 h 2.5 l 14.1,14" />&#10;	<path
   id="line96"
   class="st13"
   style="fill:none;stroke:#95ac6e;stroke-miterlimit:10"
   d="M 73.800003,574.09998 56,591.79999" />&#10;	<path
   id="polyline97"
   class="st13"
   style="fill:none;stroke:#95ac6e;stroke-miterlimit:10"
   d="m 137.6,634.7 v -6.1 l -2.9,-3 v -3 l -4.5,-4.5 h -5 l -4.1,-4 v -19 L 109.7,583.7 V 501.5 L 124,487.2 v -9.1 l 3.7,-3.7" />&#10;	<path
   class="st13"
   d="M135.3,527.4c0-0.6,0-9,0-9l-3.1-3.1h-9.8l-4.5-4.5v-4.3"
   id="path97" />&#10;	<path
   id="polyline98"
   class="st13"
   style="fill:none;stroke:#95ac6e;stroke-miterlimit:10"
   d="m 129.3,559.7 v 5.4 l -3.2,3.2 h -5.9 l -1.6,1.5" />&#10;	<path
   id="polyline99"
   class="st13"
   style="fill:none;stroke:#95ac6e;stroke-miterlimit:10"
   d="m 62.9,472.8 v 9.5 l 16.2,16.2 h 4.5 l 4.9,4.8 v 8.3 l -4.6,4.5 v 13.5" />&#10;	<path
   id="rect99"
   class="st14"
   style="fill:#e8d28a"
   d="m 45.599998,465.70001 h 18.9 v 9.6 h -18.9 z" />&#10;	<g
   id="g104">&#10;		<path
   id="rect100"
   class="st15"
   style="fill:#cecece"
   d="m 102.7,463.60001 h 4.3 v 11.5 h -4.3 z" />&#10;		<path
   id="rect101"
   class="st15"
   style="fill:#cecece"
   d="m 110.4,463.60001 h 4.3 v 11.5 h -4.3 z" />&#10;		<path
   id="rect102"
   class="st15"
   style="fill:#cecece"
   d="m 118.1,463.60001 h 4.3 v 11.5 h -4.3 z" />&#10;		<path
   id="rect103"
   class="st15"
   style="fill:#cecece"
   d="m 125.7,463.60001 h 4.3 v 11.5 h -4.3 z" />&#10;		<path
   id="rect104"
   class="st15"
   style="fill:#cecece"
   d="m 133.39999,463.60001 h 4.3 v 11.5 h -4.3 z" />&#10;	</g>&#10;	<g
   id="g106">&#10;		<path
   class="st16"
   d="M106.8,484.4v-5.5h2.5v5.8c0,2,0.6,2.7,1.7,2.7c1.2,0,1.8-0.7,1.8-2.7v-5.8h2.4v5.5c0,3.5-1.4,5.1-4.2,5.1    S106.8,487.9,106.8,484.4z"
   id="path104" />&#10;		<path
   class="st16"
   d="M116.7,487.9l1.3-1.6c0.7,0.6,1.7,1,2.6,1c0.9,0,1.4-0.4,1.4-0.9c0-0.6-0.6-0.8-1.5-1.2l-1.3-0.6    c-1.1-0.4-2.1-1.3-2.1-2.8c0-1.7,1.6-3.2,3.8-3.2c1.2,0,2.5,0.5,3.4,1.3l-1.3,1.6c-0.7-0.5-1.4-0.8-2.1-0.8    c-0.8,0-1.3,0.3-1.3,0.8c0,0.6,0.7,0.8,1.6,1.2l1.3,0.5c1.3,0.5,2.1,1.4,2.1,2.8c0,1.7-1.5,3.3-4,3.3    C119.1,489.5,117.8,489,116.7,487.9z"
   id="path105" />&#10;		<path
   class="st16"
   d="M126.3,478.8h3.6c2.2,0,3.9,0.6,3.9,2.6c0,0.9-0.5,1.9-1.4,2.2v0.1c1.1,0.3,1.9,1.1,1.9,2.4    c0,2.1-1.8,3.1-4.1,3.1h-3.9V478.8z M129.8,483c1.1,0,1.5-0.5,1.5-1.2c0-0.8-0.5-1.1-1.5-1.1h-1.1v2.2H129.8z M130,487.4    c1.2,0,1.8-0.4,1.8-1.3s-0.6-1.2-1.8-1.2h-1.2v2.5H130z"
   id="path106" />&#10;	</g>&#10;	<path
   class="st17"
   d="M170.2,560.3h-45.7c-0.5,0-1-0.4-1-1v-33.5c0-0.5,0.4-1,1-1h45.7c0.5,0,1,0.4,1,1v33.5   C171.1,559.8,170.7,560.3,170.2,560.3z"
   id="path107" />&#10;	<g
   id="g113">&#10;		<path
   id="rect107"
   class="st15"
   style="fill:#cecece"
   d="m 128.60001,520.59998 h 1.4 v 4.1 h -1.4 z" />&#10;		<path
   id="rect108"
   class="st15"
   style="fill:#cecece"
   d="m 134.60001,520.59998 h 1.4 v 4.1 h -1.4 z" />&#10;		<path
   id="rect109"
   class="st15"
   style="fill:#cecece"
   d="m 140.60001,520.59998 h 1.4 v 4.1 h -1.4 z" />&#10;		<path
   id="rect110"
   class="st15"
   style="fill:#cecece"
   d="m 146.60001,520.59998 h 1.4 v 4.1 h -1.4 z" />&#10;		<path
   id="rect111"
   class="st15"
   style="fill:#cecece"
   d="m 152.60001,520.59998 h 1.4 v 4.1 h -1.4 z" />&#10;		<path
   id="rect112"
   class="st15"
   style="fill:#cecece"
   d="m 158.60001,520.59998 h 1.4 v 4.1 h -1.4 z" />&#10;		<path
   id="rect113"
   class="st15"
   style="fill:#cecece"
   d="m 164.60001,520.59998 h 1.4 v 4.1 h -1.4 z" />&#10;	</g>&#10;	<g
   id="g120">&#10;		<path
   id="rect114"
   class="st15"
   style="fill:#cecece"
   d="m 128.60001,560.29999 h 1.4 v 4.1 h -1.4 z" />&#10;		<path
   id="rect115"
   class="st15"
   style="fill:#cecece"
   d="m 134.60001,560.29999 h 1.4 v 4.1 h -1.4 z" />&#10;		<path
   id="rect116"
   class="st15"
   style="fill:#cecece"
   d="m 140.60001,560.29999 h 1.4 v 4.1 h -1.4 z" />&#10;		<path
   id="rect117"
   class="st15"
   style="fill:#cecece"
   d="m 146.60001,560.29999 h 1.4 v 4.1 h -1.4 z" />&#10;		<path
   id="rect118"
   class="st15"
   style="fill:#cecece"
   d="m 152.60001,560.29999 h 1.4 v 4.1 h -1.4 z" />&#10;		<path
   id="rect119"
   class="st15"
   style="fill:#cecece"
   d="m 158.60001,560.29999 h 1.4 v 4.1 h -1.4 z" />&#10;		<path
   id="rect120"
   class="st15"
   style="fill:#cecece"
   d="m 164.60001,560.29999 h 1.4 v 4.1 h -1.4 z" />&#10;	</g>&#10;	<g
   id="g125">&#10;		<path
   id="rect121"
   class="st18"
   style="fill:#868c97"
   d="M 61.400002,528.59998 H 100.7 v 48.9 H 61.400002 Z" />&#10;		<path
   class="st19"
   d="M81,571.3L81,571.3c-7.6,0-13.7-6.1-13.7-13.7v-9.1c0-7.6,6.1-13.7,13.7-13.7h0c7.6,0,13.7,6.1,13.7,13.7    v9.1C94.7,565.2,88.6,571.3,81,571.3z"
   id="path121" />&#10;		<path
   class="st19"
   d="M61.4,538.9L61.4,538.9l0-10.3h10.3l0,0C71.6,534.3,67.1,538.9,61.4,538.9z"
   id="path122" />&#10;		<path
   class="st19"
   d="M71.6,577.6H61.4v-10.3h0C67.1,567.3,71.6,571.9,71.6,577.6L71.6,577.6z"
   id="path123" />&#10;		<path
   class="st19"
   d="M100.7,538.9L100.7,538.9c-5.7,0-10.3-4.6-10.3-10.3l0,0h10.3V538.9z"
   id="path124" />&#10;		<path
   class="st19"
   d="M100.7,577.6H90.4l0,0c0-5.7,4.6-10.3,10.3-10.3h0V577.6z"
   id="path125" />&#10;	</g>&#10;	<g
   id="g134">&#10;		<path
   id="rect125"
   class="st17"
   style="fill:#36323e"
   d="M 64.900002,598.09998 H 99.5 v 22.9 H 64.900002 Z" />&#10;		<g
   id="g129">&#10;			<path
   id="rect126"
   class="st15"
   style="fill:#cecece"
   d="m 60.700001,599.29999 h 4.2 v 3.4 h -4.2 z" />&#10;			<path
   id="rect127"
   class="st15"
   style="fill:#cecece"
   d="m 60.700001,605 h 4.2 v 3.4 h -4.2 z" />&#10;			<path
   id="rect128"
   class="st15"
   style="fill:#cecece"
   d="m 60.700001,610.70001 h 4.2 v 3.4 h -4.2 z" />&#10;			<path
   id="rect129"
   class="st15"
   style="fill:#cecece"
   d="m 60.700001,616.5 h 4.2 v 3.4 h -4.2 z" />&#10;		</g>&#10;		<g
   id="g133">&#10;			<path
   id="rect130"
   class="st15"
   style="fill:#cecece"
   d="m 99.5,599.29999 h 4.2 v 3.4 h -4.2 z" />&#10;			<path
   id="rect131"
   class="st15"
   style="fill:#cecece"
   d="m 99.5,605 h 4.2 v 3.4 h -4.2 z" />&#10;			<path
   id="rect132"
   class="st15"
   style="fill:#cecece"
   d="m 99.5,610.70001 h 4.2 v 3.4 h -4.2 z" />&#10;			<path
   id="rect133"
   class="st15"
   style="fill:#cecece"
   d="m 99.5,616.5 h 4.2 v 3.4 h -4.2 z" />&#10;		</g>&#10;	</g>&#10;	<path
   id="rect134"
   class="st7"
   style="fill:#474544"
   d="m 135.5,629.59998 h 4.2 v 6.9 h -4.2 z" />&#10;	<g
   id="g215">&#10;		<path
   class="st20"
   d="M160.4,733.4H81.4c-0.7,0-1.3-0.6-1.3-1.3V653c0-0.7,0.6-1.3,1.3-1.3h79.1c0.7,0,1.3,0.6,1.3,1.3v79.1    C161.7,732.8,161.1,733.4,160.4,733.4z"
   id="path134" />&#10;		<g
   id="g154">&#10;			<path
   id="rect135"
   class="st15"
   style="fill:#cecece"
   d="m 86.199997,649.79999 h 3.1 v 1.9 h -3.1 z" />&#10;			<path
   id="rect136"
   class="st15"
   style="fill:#cecece"
   d="m 89.699997,649.79999 h 3.1 v 1.9 h -3.1 z" />&#10;			<path
   id="rect137"
   class="st15"
   style="fill:#cecece"
   d="m 93.199997,649.79999 h 3.1 v 1.9 h -3.1 z" />&#10;			<path
   id="rect138"
   class="st15"
   style="fill:#cecece"
   d="m 96.699997,649.79999 h 3.1 v 1.9 h -3.1 z" />&#10;			<path
   id="rect139"
   class="st15"
   style="fill:#cecece"
   d="m 100.2,649.79999 h 3.1 v 1.9 h -3.1 z" />&#10;			<path
   id="rect140"
   class="st15"
   style="fill:#cecece"
   d="m 103.6,649.79999 h 3.1 v 1.9 h -3.1 z" />&#10;			<path
   id="rect141"
   class="st15"
   style="fill:#cecece"
   d="m 107.1,649.79999 h 3.1 v 1.9 h -3.1 z" />&#10;			<path
   id="rect142"
   class="st15"
   style="fill:#cecece"
   d="m 114.1,649.79999 h 3.1 v 1.9 h -3.1 z" />&#10;			<path
   id="rect143"
   class="st15"
   style="fill:#cecece"
   d="m 121.1,649.79999 h 3.1 v 1.9 h -3.1 z" />&#10;			<path
   id="rect144"
   class="st15"
   style="fill:#cecece"
   d="m 128,649.79999 h 3.1 v 1.9 H 128 Z" />&#10;			<path
   id="rect145"
   class="st15"
   style="fill:#cecece"
   d="m 138.5,649.79999 h 3.1 v 1.9 h -3.1 z" />&#10;			<path
   id="rect146"
   class="st15"
   style="fill:#cecece"
   d="m 142,649.79999 h 3.1 v 1.9 H 142 Z" />&#10;			<path
   id="rect147"
   class="st15"
   style="fill:#cecece"
   d="m 149,649.79999 h 3.1 v 1.9 H 149 Z" />&#10;			<path
   id="rect148"
   class="st15"
   style="fill:#cecece"
   d="m 110.6,649.79999 h 3.1 v 1.9 h -3.1 z" />&#10;			<path
   id="rect149"
   class="st15"
   style="fill:#cecece"
   d="m 117.6,649.79999 h 3.1 v 1.9 h -3.1 z" />&#10;			<path
   id="rect150"
   class="st15"
   style="fill:#cecece"
   d="m 124.6,649.79999 h 3.1 v 1.9 h -3.1 z" />&#10;			<path
   id="rect151"
   class="st15"
   style="fill:#cecece"
   d="m 131.5,649.79999 h 3.1 v 1.9 h -3.1 z" />&#10;			<path
   id="rect152"
   class="st15"
   style="fill:#cecece"
   d="m 135,649.79999 h 3.1 v 1.9 H 135 Z" />&#10;			<path
   id="rect153"
   class="st15"
   style="fill:#cecece"
   d="m 145.5,649.79999 h 3.1 v 1.9 h -3.1 z" />&#10;			<path
   id="rect154"
   class="st15"
   style="fill:#cecece"
   d="m 152.39999,649.79999 h 3.1 v 1.9 h -3.1 z" />&#10;		</g>&#10;		<g
   id="g174">&#10;			<path
   id="rect155"
   class="st15"
   style="fill:#cecece"
   d="m 86.400002,733.40002 h 3.099999 v 1.9 h -3.099999 z" />&#10;			<path
   id="rect156"
   class="st15"
   style="fill:#cecece"
   d="m 89.900002,733.40002 h 3.099999 v 1.9 h -3.099999 z" />&#10;			<path
   id="rect157"
   class="st15"
   style="fill:#cecece"
   d="m 93.400002,733.40002 h 3.099999 v 1.9 h -3.099999 z" />&#10;			<path
   id="rect158"
   class="st15"
   style="fill:#cecece"
   d="M 96.900002,733.40002 H 100 v 1.9 h -3.099998 z" />&#10;			<path
   id="rect159"
   class="st15"
   style="fill:#cecece"
   d="m 100.4,733.40002 h 3.1 v 1.9 h -3.1 z" />&#10;			<path
   id="rect160"
   class="st15"
   style="fill:#cecece"
   d="m 103.8,733.40002 h 3.1 v 1.9 h -3.1 z" />&#10;			<path
   id="rect161"
   class="st15"
   style="fill:#cecece"
   d="m 107.3,733.40002 h 3.1 v 1.9 h -3.1 z" />&#10;			<path
   id="rect162"
   class="st15"
   style="fill:#cecece"
   d="m 114.3,733.40002 h 3.1 v 1.9 h -3.1 z" />&#10;			<path
   id="rect163"
   class="st15"
   style="fill:#cecece"
   d="m 121.3,733.40002 h 3.1 v 1.9 h -3.1 z" />&#10;			<path
   id="rect164"
   class="st15"
   style="fill:#cecece"
   d="m 128.2,733.40002 h 3.1 v 1.9 h -3.1 z" />&#10;			<path
   id="rect165"
   class="st15"
   style="fill:#cecece"
   d="m 138.7,733.40002 h 3.1 v 1.9 h -3.1 z" />&#10;			<path
   id="rect166"
   class="st15"
   style="fill:#cecece"
   d="m 142.2,733.40002 h 3.1 v 1.9 h -3.1 z" />&#10;			<path
   id="rect167"
   class="st15"
   style="fill:#cecece"
   d="m 149.10001,733.40002 h 3.1 v 1.9 h -3.1 z" />&#10;			<path
   id="rect168"
   class="st15"
   style="fill:#cecece"
   d="m 110.8,733.40002 h 3.1 v 1.9 h -3.1 z" />&#10;			<path
   id="rect169"
   class="st15"
   style="fill:#cecece"
   d="m 117.8,733.40002 h 3.1 v 1.9 h -3.1 z" />&#10;			<path
   id="rect170"
   class="st15"
   style="fill:#cecece"
   d="m 124.7,733.40002 h 3.1 v 1.9 h -3.1 z" />&#10;			<path
   id="rect171"
   class="st15"
   style="fill:#cecece"
   d="m 131.7,733.40002 h 3.1 v 1.9 h -3.1 z" />&#10;			<path
   id="rect172"
   class="st15"
   style="fill:#cecece"
   d="m 135.2,733.40002 h 3.1 v 1.9 h -3.1 z" />&#10;			<path
   id="rect173"
   class="st15"
   style="fill:#cecece"
   d="m 145.7,733.40002 h 3.1 v 1.9 h -3.1 z" />&#10;			<path
   id="rect174"
   class="st15"
   style="fill:#cecece"
   d="m 152.60001,733.40002 h 3.1 v 1.9 h -3.1 z" />&#10;		</g>&#10;		<g
   id="g194">&#10;			&#10;				<path
   id="rect175"
   class="st15"
   transform="matrix(6.123234e-17 -1 1 6.123234e-17 -646.5581 804.7386)"
   style="fill:#cecece"
   d="m 77.5,724.70001 h 3.1 v 1.9 h -3.1 z" />&#10;			&#10;				<path
   id="rect176"
   class="st15"
   transform="matrix(6.123234e-17 -1 1 6.123234e-17 -643.0731 801.2536)"
   style="fill:#cecece"
   d="m 77.5,721.20001 h 3.1 v 1.9 h -3.1 z" />&#10;			&#10;				<path
   id="rect177"
   class="st15"
   transform="matrix(6.123234e-17 -1 1 6.123234e-17 -639.588 797.7686)"
   style="fill:#cecece"
   d="m 77.5,717.70001 h 3.1 v 1.9 h -3.1 z" />&#10;			&#10;				<path
   id="rect178"
   class="st15"
   transform="matrix(6.123234e-17 -1 1 6.123234e-17 -636.103 794.2835)"
   style="fill:#cecece"
   d="m 77.5,714.20001 h 3.1 v 1.9 h -3.1 z" />&#10;			&#10;				<path
   id="rect179"
   class="st15"
   transform="matrix(6.123234e-17 -1 1 6.123234e-17 -632.6179 790.7985)"
   style="fill:#cecece"
   d="m 77.5,710.70001 h 3.1 v 1.9 h -3.1 z" />&#10;			&#10;				<path
   id="rect180"
   class="st15"
   transform="matrix(6.123234e-17 -1 1 6.123234e-17 -629.1329 787.3134)"
   style="fill:#cecece"
   d="m 77.5,707.29999 h 3.1 v 1.9 h -3.1 z" />&#10;			&#10;				<path
   id="rect181"
   class="st15"
   transform="matrix(6.123234e-17 -1 1 6.123234e-17 -625.6478 783.8284)"
   style="fill:#cecece"
   d="m 77.5,703.79999 h 3.1 v 1.9 h -3.1 z" />&#10;			&#10;				<path
   id="rect182"
   class="st15"
   transform="matrix(6.123234e-17 -1 1 6.123234e-17 -618.6777 776.8583)"
   style="fill:#cecece"
   d="m 77.5,696.79999 h 3.1 v 1.9 h -3.1 z" />&#10;			&#10;				<path
   id="rect183"
   class="st15"
   transform="matrix(6.123234e-17 -1 1 6.123234e-17 -611.7076 769.8882)"
   style="fill:#cecece"
   d="m 77.5,689.79999 h 3.1 v 1.9 h -3.1 z" />&#10;			&#10;				<path
   id="rect184"
   class="st15"
   transform="matrix(6.123234e-17 -1 1 6.123234e-17 -604.7375 762.9181)"
   style="fill:#cecece"
   d="m 77.5,682.90002 h 3.1 v 1.9 h -3.1 z" />&#10;			&#10;				<path
   id="rect185"
   class="st15"
   transform="matrix(6.123234e-17 -1 1 6.123234e-17 -594.2825 752.463)"
   style="fill:#cecece"
   d="m 77.5,672.40002 h 3.1 v 1.9 h -3.1 z" />&#10;			&#10;				<path
   id="rect186"
   class="st15"
   transform="matrix(6.123234e-17 -1 1 6.123234e-17 -590.7974 748.9779)"
   style="fill:#cecece"
   d="m 77.5,668.90002 h 3.1 v 1.9 h -3.1 z" />&#10;			&#10;				<path
   id="rect187"
   class="st15"
   transform="matrix(6.123234e-17 -1 1 6.123234e-17 -583.8273 742.0078)"
   style="fill:#cecece"
   d="m 77.5,662 h 3.1 v 1.9 h -3.1 z" />&#10;			&#10;				<path
   id="rect188"
   class="st15"
   transform="matrix(6.123234e-17 -1 1 6.123234e-17 -622.1628 780.3433)"
   style="fill:#cecece"
   d="m 77.5,700.29999 h 3.1 v 1.9 h -3.1 z" />&#10;			&#10;				<path
   id="rect189"
   class="st15"
   transform="matrix(6.123234e-17 -1 1 6.123234e-17 -615.1927 773.3732)"
   style="fill:#cecece"
   d="m 77.5,693.29999 h 3.1 v 1.9 h -3.1 z" />&#10;			&#10;				<path
   id="rect190"
   class="st15"
   transform="matrix(6.123234e-17 -1 1 6.123234e-17 -608.2226 766.4031)"
   style="fill:#cecece"
   d="m 77.5,686.40002 h 3.1 v 1.9 h -3.1 z" />&#10;			&#10;				<path
   id="rect191"
   class="st15"
   transform="matrix(6.123234e-17 -1 1 6.123234e-17 -601.2526 759.433)"
   style="fill:#cecece"
   d="m 77.5,679.40002 h 3.1 v 1.9 h -3.1 z" />&#10;			&#10;				<path
   id="rect192"
   class="st15"
   transform="matrix(6.123234e-17 -1 1 6.123234e-17 -597.7675 755.948)"
   style="fill:#cecece"
   d="m 77.5,675.90002 h 3.1 v 1.9 h -3.1 z" />&#10;			&#10;				<path
   id="rect193"
   class="st15"
   transform="matrix(6.123234e-17 -1 1 6.123234e-17 -587.3124 745.4929)"
   style="fill:#cecece"
   d="m 77.5,665.40002 h 3.1 v 1.9 h -3.1 z" />&#10;			&#10;				<path
   id="rect194"
   class="st15"
   transform="matrix(6.123234e-17 -1 1 6.123234e-17 -580.3423 738.5228)"
   style="fill:#cecece"
   d="m 77.5,658.5 h 3.1 v 1.9 h -3.1 z" />&#10;		</g>&#10;		<g
   id="g214">&#10;			&#10;				<path
   id="rect195"
   class="st15"
   transform="matrix(6.123234e-17 -1 1 6.123234e-17 -562.9682 888.3286)"
   style="fill:#cecece"
   d="m 161.10001,724.70001 h 3.1 v 1.9 h -3.1 z" />&#10;			&#10;				<path
   id="rect196"
   class="st15"
   transform="matrix(6.123234e-17 -1 1 6.123234e-17 -559.4832 884.8435)"
   style="fill:#cecece"
   d="m 161.10001,721.20001 h 3.1 v 1.9 h -3.1 z" />&#10;			&#10;				<path
   id="rect197"
   class="st15"
   transform="matrix(6.123234e-17 -1 1 6.123234e-17 -555.9981 881.3585)"
   style="fill:#cecece"
   d="m 161.10001,717.70001 h 3.1 v 1.9 h -3.1 z" />&#10;			&#10;				<path
   id="rect198"
   class="st15"
   transform="matrix(6.123234e-17 -1 1 6.123234e-17 -552.5131 877.8734)"
   style="fill:#cecece"
   d="m 161.10001,714.20001 h 3.1 v 1.9 h -3.1 z" />&#10;			&#10;				<path
   id="rect199"
   class="st15"
   transform="matrix(6.123234e-17 -1 1 6.123234e-17 -549.028 874.3884)"
   style="fill:#cecece"
   d="m 161.10001,710.70001 h 3.1 v 1.9 h -3.1 z" />&#10;			&#10;				<path
   id="rect200"
   class="st15"
   transform="matrix(6.123234e-17 -1 1 6.123234e-17 -545.543 870.9033)"
   style="fill:#cecece"
   d="m 161.10001,707.29999 h 3.1 v 1.9 h -3.1 z" />&#10;			&#10;				<path
   id="rect201"
   class="st15"
   transform="matrix(6.123234e-17 -1 1 6.123234e-17 -542.0579 867.4183)"
   style="fill:#cecece"
   d="m 161.10001,703.79999 h 3.1 v 1.9 h -3.1 z" />&#10;			&#10;				<path
   id="rect202"
   class="st15"
   transform="matrix(6.123234e-17 -1 1 6.123234e-17 -535.0878 860.4482)"
   style="fill:#cecece"
   d="m 161.10001,696.79999 h 3.1 v 1.9 h -3.1 z" />&#10;			&#10;				<path
   id="rect203"
   class="st15"
   transform="matrix(6.123234e-17 -1 1 6.123234e-17 -528.1177 853.4781)"
   style="fill:#cecece"
   d="m 161.10001,689.79999 h 3.1 v 1.9 h -3.1 z" />&#10;			&#10;				<path
   id="rect204"
   class="st15"
   transform="matrix(6.123234e-17 -1 1 6.123234e-17 -521.1476 846.5081)"
   style="fill:#cecece"
   d="m 161.10001,682.90002 h 3.1 v 1.9 h -3.1 z" />&#10;			&#10;				<path
   id="rect205"
   class="st15"
   transform="matrix(6.123234e-17 -1 1 6.123234e-17 -510.6925 836.0529)"
   style="fill:#cecece"
   d="m 161.10001,672.40002 h 3.1 v 1.9 h -3.1 z" />&#10;			&#10;				<path
   id="rect206"
   class="st15"
   transform="matrix(6.123234e-17 -1 1 6.123234e-17 -507.2075 832.5679)"
   style="fill:#cecece"
   d="m 161.10001,668.90002 h 3.1 v 1.9 h -3.1 z" />&#10;			&#10;				<path
   id="rect207"
   class="st15"
   transform="matrix(6.123234e-17 -1 1 6.123234e-17 -500.2374 825.5978)"
   style="fill:#cecece"
   d="m 161.10001,662 h 3.1 v 1.9 h -3.1 z" />&#10;			&#10;				<path
   id="rect208"
   class="st15"
   transform="matrix(6.123234e-17 -1 1 6.123234e-17 -538.5729 863.9332)"
   style="fill:#cecece"
   d="m 161.10001,700.29999 h 3.1 v 1.9 h -3.1 z" />&#10;			&#10;				<path
   id="rect209"
   class="st15"
   transform="matrix(6.123234e-17 -1 1 6.123234e-17 -531.6028 856.9631)"
   style="fill:#cecece"
   d="m 161.10001,693.29999 h 3.1 v 1.9 h -3.1 z" />&#10;			&#10;				<path
   id="rect210"
   class="st15"
   transform="matrix(6.123234e-17 -1 1 6.123234e-17 -524.6327 849.9931)"
   style="fill:#cecece"
   d="m 161.10001,686.40002 h 3.1 v 1.9 h -3.1 z" />&#10;			&#10;				<path
   id="rect211"
   class="st15"
   transform="matrix(6.123234e-17 -1 1 6.123234e-17 -517.6626 843.023)"
   style="fill:#cecece"
   d="m 161.10001,679.40002 h 3.1 v 1.9 h -3.1 z" />&#10;			&#10;				<path
   id="rect212"
   class="st15"
   transform="matrix(6.123234e-17 -1 1 6.123234e-17 -514.1776 839.538)"
   style="fill:#cecece"
   d="m 161.10001,675.90002 h 3.1 v 1.9 h -3.1 z" />&#10;			&#10;				<path
   id="rect213"
   class="st15"
   transform="matrix(6.123234e-17 -1 1 6.123234e-17 -503.7224 829.0828)"
   style="fill:#cecece"
   d="m 161.10001,665.40002 h 3.1 v 1.9 h -3.1 z" />&#10;			&#10;				<path
   id="rect214"
   class="st15"
   transform="matrix(6.123234e-17 -1 1 6.123234e-17 -496.7523 822.1127)"
   style="fill:#cecece"
   d="m 161.10001,658.5 h 3.1 v 1.9 h -3.1 z" />&#10;		</g>&#10;		<path
   id="circle214"
   class="st21"
   style="fill:#b9a68f"
   d="m 92.999997,662.79999 a 2.8,2.8 0 0 1 -2.8,2.8 2.8,2.8 0 0 1 -2.8,-2.8 2.8,2.8 0 0 1 2.8,-2.8 2.8,2.8 0 0 1 2.8,2.8 z" />&#10;	</g>&#10;	<path
   id="rect215"
   class="st17"
   style="fill:#36323e"
   d="m 187.10001,617.5 h 18.2 v 8.6 h -18.2 z" />&#10;	<path
   id="rect216"
   class="st15"
   style="fill:#cecece"
   d="m 189.10001,626.09998 h 2.9 v 8.7 h -2.9 z" />&#10;	<path
   id="rect217"
   class="st15"
   style="fill:#cecece"
   d="m 200.89999,626.09998 h 2.9 v 8.7 h -2.9 z" />&#10;	<path
   id="rect218"
   class="st15"
   style="fill:#cecece"
   d="m 194.8,608.90002 h 2.9 v 8.7 h -2.9 z" />&#10;	&#10;		<path
   id="rect219"
   class="st9"
   transform="matrix(6.123234e-17 -1 1 6.123234e-17 -486.4153 831.6102)"
   style="fill:#c29148"
   d="m 170.5,655.59998 h 4.2 v 6.9 h -4.2 z" />&#10;	<path
   id="rect220"
   class="st7"
   style="fill:#474544"
   d="m 189.5,686.70001 h 4.2 v 6.9 h -4.2 z" />&#10;	&#10;		<path
   id="rect221"
   class="st9"
   transform="matrix(0.7071 -0.7071 0.7071 0.7071 -450.4828 331.1182)"
   style="fill:#c29148"
   d="m 172.3,705.90002 h 4.2 v 6.9 h -4.2 z" />&#10;	<g
   id="g223">&#10;		<path
   class="st4"
   d="M157,768.1c-5.1,0-9.2,4.1-9.2,9.2s4.1,9.2,9.2,9.2s9.2-4.1,9.2-9.2S162.1,768.1,157,768.1z M157,783    c-3.1,0-5.7-2.6-5.7-5.7s2.6-5.7,5.7-5.7c3.1,0,5.7,2.6,5.7,5.7S160.2,783,157,783z"
   id="path221" />&#10;		<path
   class="st4"
   d="M118.7,768.4v17.7h17.7v-17.7H118.7z M127.6,783c-3.1,0-5.7-2.6-5.7-5.7s2.6-5.7,5.7-5.7    c3.1,0,5.7,2.6,5.7,5.7S130.7,783,127.6,783z"
   id="path222" />&#10;		<path
   class="st4"
   d="M186.8,768.1c-5.1,0-9.2,4.1-9.2,9.2s4.1,9.2,9.2,9.2s9.2-4.1,9.2-9.2S191.9,768.1,186.8,768.1z M186.8,783    c-3.1,0-5.7-2.6-5.7-5.7s2.6-5.7,5.7-5.7c3.1,0,5.7,2.6,5.7,5.7S190,783,186.8,783z"
   id="path223" />&#10;	</g>&#10;	<path
   class="st4"
   d="M17.5,746.7H0.3v3.4c2.3,0.9,3.9,3.1,3.9,5.7s-1.6,4.8-3.9,5.7v3.4h17.2c5,0,9-4,9-9S22.4,746.7,17.5,746.7z    M15.9,761.8c-3.4,0-6.1-2.7-6.1-6.1s2.7-6.1,6.1-6.1s6.1,2.7,6.1,6.1S19.2,761.8,15.9,761.8z"
   id="path224" />&#10;	<path
   class="st4"
   d="M17.5,717.3H0.3v3.4c2.3,0.9,3.9,3.1,3.9,5.7s-1.6,4.8-3.9,5.7v3.4h17.2c5,0,9-4,9-9v0   C26.5,721.4,22.4,717.3,17.5,717.3z M15.9,732.4c-3.4,0-6.1-2.7-6.1-6.1s2.7-6.1,6.1-6.1s6.1,2.7,6.1,6.1S19.2,732.4,15.9,732.4z"
   id="path225" />&#10;	<path
   class="st4"
   d="M17.5,687.9H0.3v3.4c2.3,0.9,3.9,3.1,3.9,5.7s-1.6,4.8-3.9,5.7v3.4h17.2c5,0,9-4,9-9v0   C26.5,692,22.4,687.9,17.5,687.9z M15.9,703c-3.4,0-6.1-2.7-6.1-6.1s2.7-6.1,6.1-6.1s6.1,2.7,6.1,6.1S19.2,703,15.9,703z"
   id="path226" />&#10;	<path
   class="st4"
   d="M17.5,658.5H0.3v3.4c2.3,0.9,3.9,3.1,3.9,5.7s-1.6,4.8-3.9,5.7v3.4h17.2c5,0,9-4,9-9S22.4,658.5,17.5,658.5z    M15.9,673.6c-3.4,0-6.1-2.7-6.1-6.1s2.7-6.1,6.1-6.1s6.1,2.7,6.1,6.1S19.2,673.6,15.9,673.6z"
   id="path227" />&#10;	<path
   class="st4"
   d="M17.5,599.7H0.3v3.4c2.3,0.9,3.9,3.1,3.9,5.7s-1.6,4.8-3.9,5.7v3.4h17.2c5,0,9-4,9-9S22.4,599.7,17.5,599.7z    M15.9,614.9c-3.4,0-6.1-2.7-6.1-6.1s2.7-6.1,6.1-6.1s6.1,2.7,6.1,6.1S19.2,614.9,15.9,614.9z"
   id="path228" />&#10;	<path
   class="st4"
   d="M17.5,570.3H0.3v3.4c2.3,0.9,3.9,3.1,3.9,5.7s-1.6,4.8-3.9,5.7v3.4h17.2c5,0,9-4,9-9S22.4,570.3,17.5,570.3z    M15.9,585.5c-3.4,0-6.1-2.7-6.1-6.1s2.7-6.1,6.1-6.1s6.1,2.7,6.1,6.1S19.2,585.5,15.9,585.5z"
   id="path229" />&#10;	<path
   class="st4"
   d="M17.5,541H0.3v3.4c2.3,0.9,3.9,3.1,3.9,5.7s-1.6,4.8-3.9,5.7v3.4h17.2c5,0,9-4,9-9S22.4,541,17.5,541z    M15.9,556.1c-3.4,0-6.1-2.7-6.1-6.1s2.7-6.1,6.1-6.1s6.1,2.7,6.1,6.1S19.2,556.1,15.9,556.1z"
   id="path230" />&#10;	<path
   class="st4"
   d="M17.5,511.6H0.3v3.4c2.3,0.9,3.9,3.1,3.9,5.7s-1.6,4.8-3.9,5.7v3.4h17.2c5,0,9-4,9-9S22.4,511.6,17.5,511.6z    M15.9,526.7c-3.4,0-6.1-2.7-6.1-6.1s2.7-6.1,6.1-6.1s6.1,2.7,6.1,6.1S19.2,526.7,15.9,526.7z"
   id="path231" />&#10;	<path
   class="st4"
   d="M17.5,452.8H0.3v3.4c2.3,0.9,3.9,3.1,3.9,5.7s-1.6,4.8-3.9,5.7v3.4h17.2c5,0,9-4,9-9v0   C26.5,456.8,22.4,452.8,17.5,452.8z M15.9,467.9c-3.4,0-6.1-2.7-6.1-6.1s2.7-6.1,6.1-6.1s6.1,2.7,6.1,6.1S19.2,467.9,15.9,467.9z"
   id="path232" />&#10;	<path
   class="st4"
   d="M17.5,423.4H0.3v3.4c2.3,0.9,3.9,3.1,3.9,5.7s-1.6,4.8-3.9,5.7v3.4h17.2c5,0,9-4,9-9S22.4,423.4,17.5,423.4z    M15.9,438.5c-3.4,0-6.1-2.7-6.1-6.1s2.7-6.1,6.1-6.1s6.1,2.7,6.1,6.1S19.2,438.5,15.9,438.5z"
   id="path233" />&#10;	<path
   class="st4"
   d="M17.5,893.7H0.3v3.4c2.3,0.9,3.9,3.1,3.9,5.7s-1.6,4.8-3.9,5.7v3.4h17.2c5,0,9-4,9-9S22.4,893.7,17.5,893.7z    M15.9,908.8c-3.4,0-6.1-2.7-6.1-6.1s2.7-6.1,6.1-6.1s6.1,2.7,6.1,6.1S19.2,908.8,15.9,908.8z"
   id="path234" />&#10;	<path
   class="st4"
   d="M239.5,990.9c0-2.6,1.6-4.8,3.9-5.7v-3.4h-17.2c-5,0-9,4-9,9s4,9,9,9h17.2v-3.4   C241.2,995.7,239.5,993.5,239.5,990.9z M227.8,997c-3.4,0-6.1-2.7-6.1-6.1s2.7-6.1,6.1-6.1s6.1,2.7,6.1,6.1S231.2,997,227.8,997z"
   id="path235" />&#10;	<path
   class="st4"
   d="M239.5,902.7c0-2.6,1.6-4.8,3.9-5.7v-3.4h-17.2c-5,0-9,4-9,9s4,9,9,9h17.2v-3.4   C241.2,907.5,239.5,905.3,239.5,902.7z M227.8,908.8c-3.4,0-6.1-2.7-6.1-6.1s2.7-6.1,6.1-6.1s6.1,2.7,6.1,6.1   S231.2,908.8,227.8,908.8z"
   id="path236" />&#10;	<path
   class="st4"
   d="M239.5,667.6c0-2.6,1.6-4.8,3.9-5.7v-3.4h-17.2c-5,0-9,4-9,9s4,9,9,9h17.2v-3.4   C241.2,672.3,239.5,670.1,239.5,667.6z M227.8,673.6c-3.4,0-6.1-2.7-6.1-6.1s2.7-6.1,6.1-6.1s6.1,2.7,6.1,6.1   S231.2,673.6,227.8,673.6z"
   id="path237" />&#10;	&#10;		<path
   id="rect237"
   class="st12"
   transform="matrix(6.123234e-17 -1 1 6.123234e-17 -670.1989 856.7823)"
   style="fill:#c2bfab"
   d="m 90,761.59998 h 6.7 v 3.7 H 90 Z" />&#10;	<g
   id="g239">&#10;		<path
   class="st22"
   d="M82.2,781H50.4c-1.2,0-2.2-1-2.2-2.2v-23.7c0-1.2,1-2.2,2.2-2.2h31.8c1.2,0,2.2,1,2.2,2.2v23.7    C84.4,780,83.4,781,82.2,781z"
   id="path238" />&#10;		<path
   class="st23"
   d="M79.9,778.5H52.6c-0.8,0-1.4-0.6-1.4-1.4v-20.4c0-0.8,0.6-1.4,1.4-1.4h27.3c0.8,0,1.4,0.6,1.4,1.4v20.4    C81.3,777.9,80.7,778.5,79.9,778.5z"
   id="path239" />&#10;	</g>&#10;	&#10;		<path
   id="rect239"
   class="st12"
   transform="matrix(6.123234e-17 -1 1 6.123234e-17 -690.1333 876.7167)"
   style="fill:#c2bfab"
   d="m 90,781.59998 h 6.7 v 3.7 H 90 Z" />&#10;	<path
   id="rect240"
   class="st7"
   style="fill:#474544"
   d="m 100.1,765.79999 h 4.2 v 6.9 h -4.2 z" />&#10;	<g
   id="g246">&#10;		<path
   class="st16"
   d="M42.3,585.9v-3.6c0-2.2,0.6-3.9,2.6-3.9c0.9,0,1.9,0.5,2.2,1.4h0.1c0.3-1.1,1.1-1.9,2.4-1.9    c2.1,0,3.1,1.8,3.1,4.1v3.9H42.3z M46.4,582.4c0-1.1-0.5-1.5-1.2-1.5c-0.8,0-1.1,0.5-1.1,1.5v1.1h2.2V582.4z M50.8,582.2    c0-1.2-0.4-1.8-1.3-1.8s-1.2,0.6-1.2,1.8v1.2h2.5V582.2z"
   id="path240" />&#10;		<path
   class="st16"
   d="M47.4,576.7c-3.4,0-5.4-1.9-5.4-4.8s2-4.8,5.4-4.8c3.4,0,5.4,1.9,5.4,4.8S50.8,576.7,47.4,576.7z     M47.4,569.7c-2,0-3.2,0.8-3.2,2.2c0,1.4,1.2,2.2,3.2,2.2c2,0,3.3-0.9,3.3-2.2C50.7,570.5,49.4,569.7,47.4,569.7z"
   id="path241" />&#10;		<path
   class="st16"
   d="M47.4,565.7c-3.4,0-5.4-1.9-5.4-4.8s2-4.8,5.4-4.8c3.4,0,5.4,1.9,5.4,4.8S50.8,565.7,47.4,565.7z     M47.4,558.7c-2,0-3.2,0.8-3.2,2.2c0,1.4,1.2,2.2,3.2,2.2c2,0,3.3-0.9,3.3-2.2C50.7,559.5,49.4,558.7,47.4,558.7z"
   id="path242" />&#10;		<path
   class="st16"
   d="M44.3,552.6v2.8h-2.1v-8.1h2.1v2.8h8.3v2.5H44.3z"
   id="path243" />&#10;		<path
   class="st16"
   d="M51.3,546.8l-1.6-1.3c0.6-0.7,1-1.7,1-2.6c0-0.9-0.4-1.4-0.9-1.4c-0.6,0-0.8,0.6-1.2,1.5l-0.6,1.3    c-0.4,1.1-1.3,2.1-2.8,2.1c-1.7,0-3.2-1.6-3.2-3.8c0-1.2,0.5-2.5,1.3-3.4l1.6,1.3c-0.5,0.7-0.8,1.4-0.8,2.1c0,0.8,0.3,1.3,0.8,1.3    c0.6,0,0.8-0.7,1.2-1.6l0.5-1.3c0.5-1.3,1.4-2.1,2.8-2.1c1.7,0,3.3,1.5,3.3,4C52.9,544.3,52.4,545.7,51.3,546.8z"
   id="path244" />&#10;		<path
   class="st16"
   d="M42.3,537.2v-6.6h2.1v4.1h2v-3.5h2.1v3.5h2.2v-4.3h2.1v6.8H42.3z"
   id="path245" />&#10;		<path
   class="st16"
   d="M42.3,528.4v-2.5h8.3v-4h2.1v6.5H42.3z"
   id="path246" />&#10;	</g>&#10;	<g
   id="g251">&#10;		<path
   class="st16"
   d="M141.4,743.1h3c3.2,0,5.3,1.6,5.3,5.2c0,3.6-2.1,5.2-5.1,5.2h-3.1V743.1z M144.3,751.5    c1.7,0,2.9-0.8,2.9-3.2c0-2.5-1.2-3.2-2.9-3.2h-0.4v6.4H144.3z"
   id="path247" />&#10;		<path
   class="st16"
   d="M151.6,743.1h6.6v2.1h-4.1v2h3.5v2.1h-3.5v2.2h4.3v2.1h-6.8V743.1z"
   id="path248" />&#10;		<path
   class="st16"
   d="M160.4,743.1h3.6c2.2,0,3.9,0.6,3.9,2.6c0,0.9-0.5,1.9-1.4,2.2v0.1c1.1,0.3,1.9,1.1,1.9,2.4    c0,2.1-1.8,3.1-4.1,3.1h-3.9V743.1z M164,747.2c1.1,0,1.5-0.5,1.5-1.2c0-0.8-0.5-1.1-1.5-1.1h-1.1v2.2H164z M164.2,751.6    c1.2,0,1.8-0.4,1.8-1.3s-0.6-1.2-1.8-1.2h-1.2v2.5H164.2z"
   id="path249" />&#10;		<path
   class="st16"
   d="M170.1,748.6v-5.5h2.5v5.8c0,2,0.6,2.7,1.7,2.7c1.2,0,1.8-0.7,1.8-2.7v-5.8h2.4v5.5c0,3.5-1.4,5.1-4.2,5.1    S170.1,752.1,170.1,748.6z"
   id="path250" />&#10;		<path
   class="st16"
   d="M180.3,748.4c0-3.5,2.3-5.5,5.1-5.5c1.5,0,2.6,0.6,3.3,1.4l-1.3,1.5c-0.5-0.5-1.1-0.7-1.9-0.7    c-1.5,0-2.7,1.2-2.7,3.2c0,2.1,0.9,3.3,2.9,3.3c0.4,0,0.8-0.1,1-0.3v-1.7h-1.7v-2h3.9v4.9c-0.7,0.7-2,1.3-3.5,1.3    C182.6,753.7,180.3,751.9,180.3,748.4z"
   id="path251" />&#10;	</g>&#10;	<path
   id="rect251"
   class="st24"
   style="fill:none;stroke:#ffffff;stroke-miterlimit:10"
   d="m 114.2,764.5 h 86.4 v 25.6 h -86.4 z" />&#10;	<g
   id="g254">&#10;		<path
   class="st16"
   d="M40.1,478.8h2.5v8.3h4v2.1h-6.5V478.8z"
   id="path252" />&#10;		<path
   class="st16"
   d="M48.4,478.8H55v2.1h-4.1v2h3.5v2.1h-3.5v2.2h4.3v2.1h-6.8V478.8z"
   id="path253" />&#10;		<path
   class="st16"
   d="M57.2,478.8h3c3.2,0,5.3,1.6,5.3,5.2c0,3.6-2.1,5.2-5.1,5.2h-3.1V478.8z M60.1,487.3c1.7,0,2.9-0.8,2.9-3.2    c0-2.5-1.2-3.2-2.9-3.2h-0.4v6.4H60.1z"
   id="path254" />&#10;	</g>&#10;	<g
   id="g255">&#10;		<path
   id="rect254"
   class="st8"
   style="fill:#e2eade"
   d="m 143.7,628.29999 h 5.4 v 10.6 h -5.4 z" />&#10;		<path
   id="rect255"
   class="st9"
   style="fill:#c29148"
   d="m 143.7,630.59998 h 5.4 v 6 h -5.4 z" />&#10;	</g>&#10;	<g
   id="g257">&#10;		<path
   id="rect256"
   class="st8"
   style="fill:#e2eade"
   d="m 154.3,628.29999 h 5.4 v 10.6 h -5.4 z" />&#10;		<path
   id="rect257"
   class="st9"
   style="fill:#c29148"
   d="m 154.3,630.59998 h 5.4 v 6 h -5.4 z" />&#10;	</g>&#10;	<path
   id="rect258"
   class="st7"
   style="fill:#474544"
   d="m 127.1,629.59998 h 4.2 v 6.9 h -4.2 z" />&#10;	&#10;		<path
   id="rect259"
   class="st7"
   transform="matrix(6.123234e-17 -1 1 6.123234e-17 -567.4237 708.8956)"
   style="fill:#474544"
   d="m 68.599998,634.70001 h 4.2 v 6.9 h -4.2 z" />&#10;	<path
   id="rect260"
   class="st9"
   style="fill:#c29148"
   d="m 120.5,629.59998 h 4.2 v 6.9 h -4.2 z" />&#10;	<path
   id="rect261"
   class="st9"
   style="fill:#c29148"
   d="m 110.4,629.59998 h 4.2 v 6.9 h -4.2 z" />&#10;	<path
   class="st4"
   d="M239.5,608.8c0-2.6,1.6-4.8,3.9-5.7v-3.4h-17.2c-5,0-9,4-9,9s4,9,9,9h17.2v-3.4   C241.2,613.6,239.5,611.3,239.5,608.8z M227.8,614.9c-3.4,0-6.1-2.7-6.1-6.1s2.7-6.1,6.1-6.1s6.1,2.7,6.1,6.1   S231.2,614.9,227.8,614.9z"
   id="path261" />&#10;	<g
   id="g263">&#10;		&#10;			<path
   id="rect262"
   class="st8"
   transform="matrix(-1.836970e-16 1 -1 -1.836970e-16 779.0117 428.2484)"
   style="fill:#e2eade"
   d="m 169.39999,600.79999 h 11.9 v 5.6 h -11.9 z" />&#10;		&#10;			<path
   id="rect263"
   class="st10"
   transform="matrix(-1.836970e-16 1 -1 -1.836970e-16 779.0117 428.2484)"
   style="fill:#8dddde"
   d="m 172.10001,600.79999 h 6.6 v 5.6 h -6.6 z" />&#10;	</g>&#10;</g>&#10;<g
   id="layer1">&#10;	<path
   id="rect815"
   d="M495.2,0v77.8L406,77.9V0.2h-35.7v78.2h0l0.2,321.5l160.5-0.2l-0.2-321.5h0.1V0H495.2z" />&#10;	<path
   id="rect821"
   class="st16"
   style="fill:#ffffff"
   d="m 394.5,369 h 112.4 v 28.5 H 394.5 Z" />&#10;	<path
   id="rect825"
   class="st25"
   d="M400.3,370.6h16.8c2.9,0,5.3,2.4,5.3,5.3v14.7c0,2.9-2.4,5.3-5.3,5.3h-16.8   c-2.9,0-5.3-2.4-5.3-5.3v-14.7C395,373,397.4,370.6,400.3,370.6z" />&#10;	<path
   id="rect872"
   class="st25"
   d="M456.2,370.6H473c2.9,0,5.3,2.4,5.3,5.3v14.7c0,2.9-2.4,5.3-5.3,5.3h-16.8   c-2.9,0-5.3-2.4-5.3-5.3v-14.7C450.9,373,453.3,370.6,456.2,370.6z" />&#10;	<path
   id="rect874"
   class="st25"
   d="M427.6,370.6h18.1c2.5,0,4.6,2.1,4.6,4.6v16.1c0,2.5-2.1,4.6-4.6,4.6h-18.1   c-2.5,0-4.6-2.1-4.6-4.6v-16.1C423,372.7,425.1,370.6,427.6,370.6z" />&#10;	<path
   id="rect947"
   class="st26"
   style="opacity:0.99;fill:#808080;enable-background:new"
   d="m 407.20001,384.39999 h 2.8 v 53.5 h -2.8 z" />&#10;	<path
   id="rect949"
   class="st26"
   style="opacity:0.99;fill:#808080;enable-background:new"
   d="m 435.29999,384.39999 h 2.8 v 53.5 h -2.8 z" />&#10;	<path
   id="rect951"
   class="st26"
   style="opacity:0.99;fill:#808080;enable-background:new"
   d="m 463.10001,384.39999 h 2.8 v 53.5 h -2.8 z" />&#10;	<path
   id="rect87"
   d="m 393,273.79999 h 114.5 v 28.8 H 393 Z" />&#10;	<path
   id="path31-1"
   class="st16"
   d="M416,141.1c1,0,1.1,0,1.3-0.1c0.1-0.1,0.2-0.2,0.3-0.3c0.1-0.2,0.1-0.3,0.1-2.3l0-2.2l2.1,0   l2.1,0l0,2.7c0,3,0,3.2-0.3,4c-0.3,1-1.2,1.7-2.2,1.8c-0.6,0.1-1.3,0.1-1.9,0.1c-0.8,0-1.8,0-2.1-0.1l-0.5,0l0-1.8l0-1.8L416,141.1   L416,141.1z M436.2,147.1c18.1,0,22.6,0,21.8,0.1l-0.1,0l0.1,0c0.1,0,0.1,0.1-0.1,0.1c-0.1,0-0.1,0,0.2,0.1l0.4,0l-0.4,0   c-0.2,0-0.3,0-0.3,0c0.1,0,0.1,0.1,0.1,0.5c0,0.5,0,0.5,0.2,0.5c0.1,0,0.1,0-0.1,0c-0.1,0-0.2,0-0.2,0.1c0,0-7.2,0.1-21.4,0.1   l-21.4,0l0-0.8l0-0.8L436.2,147.1z M419.9,130.6l2.1,0l0,1.7l0,1.7l-2.1,0l-2.1,0l0-1.7l0-1.7L419.9,130.6z M424.2,137.1   c0.1-0.9,0.4-1.8,0.8-2.6c0.1-0.2,0.2-0.4,0.3-0.5c0.1-0.1,0.2-0.2,0.2-0.3c0.2-0.4,0.5-0.7,0.8-1c0,0,0.1-0.1,0.1-0.1   c0.3-0.3,0.6-0.6,1-0.9c0.5-0.3,1-0.6,1.6-0.8c0.8-0.3,1.7-0.5,2.6-0.4c0.5,0,1,0.1,1.5,0.2c0.3,0.1,0.7,0.2,0.9,0.3   c0.1,0.1,0.2,0.1,0.3,0.1c0.2,0.1,0.4,0.2,0.5,0.3c1.3,0.9,2.3,2,3,3.4c0.8,1.7,1,3.7,0.3,5.4c-0.2,0.6-0.5,1.1-0.8,1.6   c-0.3,0.6-0.8,1.1-1.3,1.5c-0.8,0.9-1.9,1.5-3,1.8c-0.9,0.2-1.8,0.2-2.7,0.1c-1-0.2-2-0.6-2.9-1.2c-0.3-0.2-0.6-0.5-0.9-0.8   c-0.1-0.1-0.2-0.2-0.3-0.3c-0.9-1-1.5-2.3-1.9-3.6C424.2,138.5,424.2,137.8,424.2,137.1L424.2,137.1z M428.3,138.9   c0.2,0.8,0.6,1.5,1.3,2.1c0.7,0.6,1.7,0.8,2.6,0.6c1.1-0.5,2-1.5,2.2-2.7c0.2-0.8,0.2-1.6,0-2.4c-0.2-0.9-0.8-1.7-1.5-2.2   c-0.2-0.2-0.5-0.3-0.8-0.4c-0.7-0.1-1.4-0.1-2,0.2c-0.6,0.4-1.1,0.9-1.4,1.5C428.2,136.6,428,137.8,428.3,138.9L428.3,138.9z    M440.3,130.7c0,0,1,0,2.1,0l2.1,0l0,1.9c0,1.8,0,1.9,0.1,2.2c0.4,0.8,1.3,1.3,2.1,1c0.4-0.1,0.8-0.4,1-0.8l0.2-0.4l0-2l0-2l2.1,0   l2.1,0l0,2.2c0.1,0.9,0,1.8-0.1,2.7c-0.2,0.8-0.6,1.6-1.1,2.2c-0.1,0.1-0.2,0.2-0.2,0.3c-0.3,0.3-0.6,0.7-1,0.9   c-0.4,0.3-0.8,0.5-1.3,0.7c-0.1,0-0.4,0.1-0.7,0.2c-0.5,0.2-1,0.2-1.5,0.2c-0.5,0-1.1,0-1.6-0.2c-0.6-0.1-1.2-0.4-1.7-0.7   c-0.6-0.4-1.2-1-1.6-1.6c-0.6-0.8-0.9-1.7-1-2.7C440.2,133.4,440.2,132,440.3,130.7L440.3,130.7z M446.3,141.2l3.5,0l0,1.8l0,1.8   l-3.5,0l-3.5,0l0-1.8l0-1.8L446.3,141.2z M452.3,127.9c0,0,0.1-0.1,0.1-0.2c0-0.2,0-0.2,0.3-0.3c0.1,0,6.1,0,13.2,0l12.9,0l0,0.8   l0,0.8l-13.1,0c-7.2,0-13.2,0-13.2,0c-0.1,0-0.1-0.1-0.1-0.5C452.2,128.1,452.3,127.9,452.3,127.9L452.3,127.9z M458.2,136.5l4.5,0   l0,1.8l0,1.8l-4.5,0l-4.5,0l0-1.8l0-1.8L458.2,136.5z M466.2,130.6l2.1,0l0,1.7l0,1.7l-2.1,0l-2.1,0l0-1.7l0-1.7L466.2,130.6z    M466.2,135.9l2.1,0l0,4.5l0,4.5l-2.1,0l-2.1,0l0-4.5l0-4.5L466.2,135.9z M474.7,130.6l4.5,0l0,1.7l0,1.7l-4.5,0l-4.5,0l0-1.7   l0-1.7L474.7,130.6z M471,136.2c0,0,1,0,2.1,0l2.1,0l0,2.1c0,2.9-0.1,2.7,2.1,2.8l1.4,0l0,1.8l0,1.8l-0.5,0.1   c-1.3,0.1-2.6,0.1-3.9,0c-0.9-0.1-1.8-0.5-2.4-1.1c-0.5-0.6-0.8-1.4-0.9-2.2C470.9,140.7,470.9,136.2,471,136.2L471,136.2z    M481.7,128.9c0.1-0.4,0.3-0.7,0.6-1c0.8-0.8,2.1-0.9,3.1-0.2c0.3,0.2,0.6,0.5,0.8,0.9c0.1,0.3,0.2,0.6,0.2,0.9c0,0.3,0,0.7-0.2,1   c-0.4,0.7-1.1,1.2-1.9,1.3c-0.7,0.1-1.4-0.2-1.9-0.7C481.7,130.5,481.5,129.6,481.7,128.9L481.7,128.9z M482.1,130.4   c0.3,0.5,0.8,0.9,1.4,1.1c0.6,0.1,1.3,0,1.8-0.5c0.2-0.1,0.3-0.3,0.4-0.6c0.2-0.3,0.2-0.6,0.2-0.9c0-0.3,0-0.6-0.2-0.9   c-0.1-0.3-0.3-0.5-0.6-0.6c-0.2-0.1-0.4-0.3-0.6-0.3c-1-0.3-2.1,0.2-2.5,1.2C481.9,129.3,482,129.9,482.1,130.4L482.1,130.4z    M483.7,128.1c0.3,0,0.6,0,0.9,0.1c0.4,0.2,0.5,0.7,0.3,1.1c-0.1,0.1-0.2,0.2-0.3,0.2l-0.2,0.1l0.2,0.2c0.1,0.2,0.3,0.3,0.4,0.5   c0.1,0.1,0.1,0.2,0.2,0.3c0.1,0.1,0,0.1-0.2,0.1l-0.2,0l-0.3-0.5c-0.4-0.6-0.5-0.6-0.9-0.6l-0.3,0l0,0.6l0,0.6l-0.2,0l-0.2,0l0-1.3   l0-1.3L483.7,128.1z M483.8,129.3c0.4,0,0.5,0,0.7-0.1c0.3-0.2,0.1-0.6-0.3-0.7c-0.3,0-0.6,0-0.8,0c0,0.1,0,0.3,0,0.4l0,0.4   L483.8,129.3z" />&#10;	<path
   id="rect64"
   class="st25"
   d="M484,370.6h16.8c2.9,0,5.3,2.4,5.3,5.3v14.7c0,2.9-2.4,5.3-5.3,5.3H484c-2.9,0-5.3-2.4-5.3-5.3   v-14.7C478.7,373,481.1,370.6,484,370.6z" />&#10;	<path
   id="rect66"
   class="st26"
   style="opacity:0.99;fill:#808080;enable-background:new"
   d="m 490.79999,384.39999 h 2.8 v 53.5 h -2.8 z" />&#10;	<path
   id="circle264"
   class="st27"
   style="fill:#cccbcb"
   d="m 489.90001,311.60001 a 39.299999,39.299999 0 0 1 -39.3,39.3 39.299999,39.299999 0 0 1 -39.3,-39.3 39.299999,39.299999 0 0 1 39.3,-39.3 39.299999,39.299999 0 0 1 39.3,39.3 z" />&#10;	<path
   id="path133"
   class="st16"
   style="fill:#ffffff"
   d="M 482.7,311.60001 A 32.099998,32.099998 0 0 1 450.60001,343.7 a 32.099998,32.099998 0 0 1 -32.1,-32.09999 32.099998,32.099998 0 0 1 32.1,-32.1 32.099998,32.099998 0 0 1 32.09999,32.1 z" />&#10;	<path
   id="rect264"
   class="st16"
   style="fill:#ffffff"
   d="m 370.29999,161.3 h 60.7 v 107.1 h -60.7 z" />&#10;	<path
   id="rect265"
   d="m 370.29999,163.5 h 57.1 v 102.8 h -57.1 z" />&#10;	<path
   id="rect266"
   class="st28"
   style="fill:#2a4b9a"
   d="M 372.10001,163.2 H 429.2 v 103.5 h -57.09999 z" />&#10;	<path
   id="path144"
   class="st29"
   style="fill:#ab9c38"
   d="m 389.9,257.70001 a 8.8999996,8.8999996 0 0 1 -8.9,8.9 8.8999996,8.8999996 0 0 1 -8.9,-8.9 8.8999996,8.8999996 0 0 1 8.9,-8.9 8.8999996,8.8999996 0 0 1 8.9,8.9 z" />&#10;	<path
   id="rect952"
   class="st30"
   style="fill:#96841f"
   d="m 372.10001,256.29999 h 17.8 v 2.9 h -17.8 z" />&#10;	<path
   id="rect956"
   class="st16"
   style="fill:#ffffff"
   d="m 453.10001,179.2 h 77.8 v 60.7 h -77.8 z" />&#10;	<path
   id="rect958"
   d="m 454.89999,181 h 74.2 v 57.1 h -74.2 z" />&#10;	<path
   id="rect960"
   class="st31"
   style="fill:#333333"
   d="m 467,184.60001 h 50 v 50 h -50 z" />&#10;	<path
   id="rect962"
   class="st27"
   style="fill:#cccbcb"
   d="m 467,234.5 h 8.9 v 14.3 H 467 Z" />&#10;	<path
   id="rect964"
   class="st27"
   style="fill:#cccbcb"
   d="m 508.10001,234.5 h 8.9 v 14.3 h -8.9 z" />&#10;	<path
   id="rect966"
   class="st27"
   style="fill:#cccbcb"
   d="m 479.5,234.5 h 8.9 v 14.3 h -8.9 z" />&#10;	<path
   id="rect968"
   class="st27"
   style="fill:#cccbcb"
   d="m 495.60001,234.5 h 8.9 v 14.3 h -8.9 z" />&#10;	<path
   id="rect970"
   class="st27"
   style="fill:#cccbcb"
   d="m 467,170.3 h 8.9 v 14.3 H 467 Z" />&#10;	<path
   id="rect972"
   class="st27"
   style="fill:#cccbcb"
   d="m 508.10001,170.3 h 8.9 v 14.3 h -8.9 z" />&#10;	<path
   id="rect974"
   class="st27"
   style="fill:#cccbcb"
   d="m 479.5,170.3 h 8.9 v 14.3 h -8.9 z" />&#10;	<path
   id="rect976"
   class="st27"
   style="fill:#cccbcb"
   d="m 495.60001,170.3 h 8.9 v 14.3 h -8.9 z" />&#10;	<path
   id="rect978"
   class="st26"
   style="opacity:0.99;fill:#808080;enable-background:new"
   d="m 470.1,232.7 h 2.8 v 9 h -2.8 z" />&#10;	<path
   id="rect980"
   class="st26"
   style="opacity:0.99;fill:#808080;enable-background:new"
   d="m 482.5,232.7 h 2.9 v 9 h -2.8 z" />&#10;	<path
   id="rect982"
   class="st26"
   style="opacity:0.99;fill:#808080;enable-background:new"
   d="m 498.6,232.7 h 2.8 l 0.1,9 h -2.9 z" />&#10;	<path
   id="rect984"
   class="st26"
   style="opacity:0.99;fill:#808080;enable-background:new"
   d="m 511.1,232.7 h 2.8 l 0.1,9 h -2.9 z" />&#10;	<path
   id="rect986"
   class="st26"
   style="opacity:0.99;fill:#808080;enable-background:new"
   d="m 470.1,186.4 h 2.8 v -9 h -2.8 z" />&#10;	<path
   id="rect988"
   class="st26"
   style="opacity:0.99;fill:#808080;enable-background:new"
   d="m 482.5,186.4 h 2.9 v -9 h -2.8 z" />&#10;	<path
   id="rect990"
   class="st26"
   style="opacity:0.99;fill:#808080;enable-background:new"
   d="m 498.6,186.4 h 2.8 l 0.1,-9 h -2.9 z" />&#10;	<path
   id="rect992"
   class="st26"
   style="opacity:0.99;fill:#808080;enable-background:new"
   d="m 511.1,186.4 h 2.8 l 0.1,-9 h -2.9 z" />&#10;	<path
   id="path994"
   class="st27"
   style="fill:#cccbcb"
   d="m 525.59998,34.700001 a 12.5,12.5 0 0 1 -12.5,12.5 12.5,12.5 0 0 1 -12.5,-12.5 12.5,12.5 0 0 1 12.5,-12.5 12.5,12.5 0 0 1 12.5,12.5 z" />&#10;	<path
   id="circle996"
   class="st27"
   style="fill:#cccbcb"
   d="m 400.60001,34.700001 a 12.5,12.5 0 0 1 -12.5,12.5 12.5,12.5 0 0 1 -12.5,-12.5 12.5,12.5 0 0 1 12.5,-12.5 12.5,12.5 0 0 1 12.5,12.5 z" />&#10;	<path
   id="rect836-7"
   class="st27"
   d="M434.4,82.9h5.4c5.4,0,9.8,4.4,9.8,9.8l0,0c0,5.4-4.4,9.8-9.8,9.8h-5.4   c-5.4,0-9.8-4.4-9.8-9.8l0,0C424.6,87.3,429,82.9,434.4,82.9z" />&#10;	<path
   id="rect836-6"
   class="st27"
   d="M461.2,82.9h5.4c5.4,0,9.8,4.4,9.8,9.8l0,0c0,5.4-4.4,9.8-9.8,9.8h-5.4   c-5.4,0-9.8-4.4-9.8-9.8l0,0C451.4,87.3,455.8,82.9,461.2,82.9z" />&#10;	&#10;		<path
   id="rect943"
   class="st27"
   transform="matrix(1 -8.295629e-03 8.295629e-03 1 -0.774 4.0832)"
   style="fill:#cccbcb"
   d="m 482.60001,82.900002 h 18.5 V 107.9 h -18.5 z" />&#10;	<path
   id="rect1026"
   class="st27"
   d="M406.3,82.7h10.1c2.3,0,4.2,1.9,4.2,4.2v18.3c0,2.3-1.9,4.2-4.2,4.2l0,0h-10.1   c-2.3,0-4.2-1.9-4.2-4.2c0,0,0,0,0,0V86.9C402,84.6,403.9,82.7,406.3,82.7C406.3,82.7,406.3,82.7,406.3,82.7z" />&#10;	<path
   id="path1028"
   class="st16"
   style="fill:#ffffff"
   d="m 416.69999,100.5 a 5.4000001,5.4000001 0 0 1 -5.4,5.4 5.4000001,5.4000001 0 0 1 -5.4,-5.4 5.4000001,5.4000001 0 0 1 5.4,-5.4 5.4000001,5.4000001 0 0 1 5.4,5.4 z" />&#10;	<path
   id="rect1030"
   class="st27"
   d="M400.5,92.3l0.1,5.4c0.1,5.4-4.3,9.8-9.7,9.9l0,0c-5.4,0.1-9.8-4.3-9.9-9.7c0,0,0,0,0,0   l-0.1-5.4c-0.1-5.4,4.3-9.8,9.7-9.9l0,0C396,82.6,400.4,86.9,400.5,92.3C400.5,92.3,400.5,92.3,400.5,92.3z" />&#10;	<path
   id="circle105"
   class="st16"
   style="fill:#ffffff"
   d="m 397.89999,95.199997 a 7.0999999,7.0999999 0 0 1 -7.1,7.100003 7.0999999,7.0999999 0 0 1 -7.1,-7.100003 7.0999999,7.0999999 0 0 1 7.1,-7.1 7.0999999,7.0999999 0 0 1 7.1,7.1 z" />&#10;	<path
   id="path138"
   class="st16"
   style="fill:#ffffff"
   d="m 398.80001,34.700001 a 10.7,10.7 0 0 1 -10.7,10.7 10.7,10.7 0 0 1 -10.7,-10.7 10.7,10.7 0 0 1 10.7,-10.7 10.7,10.7 0 0 1 10.7,10.7 z" />&#10;	&#10;		<path
   id="circle140"
   class="st16"
   transform="matrix(0.1602 -0.9871 0.9871 0.1602 396.6451 535.5551)"
   style="fill:#ffffff"
   d="m 523.79998,34.700001 a 10.7,10.7 0 0 1 -10.7,10.7 10.7,10.7 0 0 1 -10.7,-10.7 10.7,10.7 0 0 1 10.7,-10.7 10.7,10.7 0 0 1 10.7,10.7 z" />&#10;	<path
   id="polygon266"
   class="st26"
   style="opacity:0.99;fill:#808080;enable-background:new"
   d="m 435.6,81.7 h 2.8 l 0.1,12.5 h -2.8 z" />&#10;	<path
   id="polygon267"
   class="st26"
   style="opacity:0.99;fill:#808080;enable-background:new"
   d="m 462.4,81.7 h 2.8 l 0.1,12.5 h -2.9 z" />&#10;	<path
   id="circle147"
   class="st16"
   style="fill:#ffffff"
   d="m 498.89999,95.199997 a 7.0999999,7.0999999 0 0 1 -7.1,7.100003 7.0999999,7.0999999 0 0 1 -7.1,-7.100003 7.0999999,7.0999999 0 0 1 7.1,-7.1 7.0999999,7.0999999 0 0 1 7.1,7.1 z" />&#10;	<path
   id="rect267"
   d="m 423.79999,20.4 h 53.5 v 62.5 h -53.5 z" />&#10;	&#10;		<path
   id="rect268"
   class="st26"
   transform="matrix(1 -1.120675e-03 1.120675e-03 1 -5.733854e-02 0.5048)"
   style="opacity:0.99;fill:#808080;enable-background:new"
   d="m 449,19 h 2.8 V 83.800003 H 449 Z" />&#10;	<g
   id="text112">&#10;		<g
   class="st32"
   id="g268">&#10;			<path
   class="st16"
   d="M526.1,137.8c0.1,0,0.1,0,0.2,0c0,0,0.1,0.1,0.1,0.1s0.1,0.2,0.1,0.3s0,0.3,0,0.5c0,0.3,0,0.5,0,0.6     c0,0.2-0.1,0.3-0.1,0.4c-0.1,0.1-0.1,0.1-0.2,0.2l-7.2,5.3h7.2c0.1,0,0.1,0,0.1,0c0,0,0.1,0.1,0.1,0.2s0,0.2,0.1,0.3     c0,0.1,0,0.3,0,0.5c0,0.2,0,0.3,0,0.5c0,0.1,0,0.2-0.1,0.3s-0.1,0.1-0.1,0.2c0,0-0.1,0-0.1,0h-13.7c-0.1,0-0.1,0-0.2,0     c0,0-0.1-0.1-0.1-0.2c0-0.1,0-0.2-0.1-0.3c0-0.1,0-0.3,0-0.5c0-0.2,0-0.3,0-0.5c0-0.1,0-0.2,0.1-0.3c0-0.1,0.1-0.1,0.1-0.2     c0,0,0.1,0,0.2,0h6.4l-6.4-5.1c-0.1,0-0.1-0.1-0.2-0.2s-0.1-0.1-0.1-0.2c0-0.1,0-0.2-0.1-0.3c0-0.1,0-0.3,0-0.5     c0-0.2,0-0.3,0-0.5c0-0.1,0-0.2,0.1-0.3c0-0.1,0.1-0.1,0.1-0.1c0,0,0.1,0,0.1,0c0.1,0,0.2,0,0.3,0.1c0.1,0,0.2,0.1,0.4,0.3     l5.7,4.7l6.8-5.1c0.2-0.1,0.3-0.2,0.4-0.2S526,137.8,526.1,137.8z"
   id="path268" />&#10;		</g>&#10;		<g
   class="st32"
   id="g269">&#10;			<path
   class="st16"
   d="M520.8,130.8h5.3c0.1,0,0.1,0,0.2,0c0,0,0.1,0.1,0.1,0.2s0,0.2,0.1,0.3c0,0.1,0,0.3,0,0.5     c0,0.2,0,0.3,0,0.5s0,0.2-0.1,0.3c0,0.1-0.1,0.1-0.1,0.2c0,0-0.1,0-0.2,0h-5.3l-8.1,4.1c-0.2,0.1-0.3,0.1-0.4,0.1     c-0.1,0-0.2,0-0.2-0.1s-0.1-0.2-0.1-0.3c0-0.1,0-0.3,0-0.6c0-0.2,0-0.4,0-0.5c0-0.1,0-0.2,0.1-0.3c0-0.1,0.1-0.1,0.1-0.2     c0,0,0.1-0.1,0.2-0.1l4.1-2c0.4-0.2,0.8-0.4,1.2-0.6c0.4-0.2,0.9-0.4,1.3-0.6v0c-0.4-0.2-0.8-0.3-1.3-0.5     c-0.4-0.2-0.8-0.4-1.2-0.5l-4.1-2c-0.1,0-0.1-0.1-0.2-0.1c-0.1,0-0.1-0.1-0.1-0.2c0-0.1,0-0.2-0.1-0.3c0-0.1,0-0.3,0-0.5     c0-0.3,0-0.5,0-0.6c0-0.2,0.1-0.3,0.1-0.3c0.1-0.1,0.1-0.1,0.2-0.1c0.1,0,0.2,0.1,0.4,0.1L520.8,130.8z"
   id="path269" />&#10;		</g>&#10;		<g
   class="st32"
   id="g273">&#10;			<path
   class="st16"
   d="M520.8,121.3c0.3,0,0.5,0,0.6,0.1s0.2,0.2,0.2,0.3v4.6c0,0.1-0.1,0.2-0.2,0.3c-0.1,0.1-0.3,0.1-0.6,0.1     c-0.3,0-0.5,0-0.6-0.1s-0.2-0.2-0.2-0.3v-4.6c0-0.1,0-0.1,0-0.2c0,0,0.1-0.1,0.1-0.1s0.1-0.1,0.2-0.1     C520.5,121.3,520.6,121.3,520.8,121.3z"
   id="path270" />&#10;			<path
   class="st16"
   d="M519.2,109.8c1.1,0,2.1,0.1,3,0.3c0.9,0.2,1.7,0.5,2.3,0.9s1.2,0.9,1.5,1.6c0.4,0.6,0.5,1.4,0.5,2.4     c0,0.9-0.2,1.7-0.5,2.3c-0.3,0.6-0.8,1.1-1.4,1.5c-0.6,0.4-1.4,0.6-2.3,0.8c-0.9,0.2-2,0.2-3.1,0.2c-1.1,0-2.1-0.1-3-0.3     c-0.9-0.2-1.7-0.5-2.3-0.9s-1.2-0.9-1.5-1.6c-0.4-0.6-0.5-1.4-0.5-2.4c0-0.9,0.2-1.7,0.5-2.3c0.3-0.6,0.8-1.1,1.4-1.5     c0.6-0.4,1.4-0.6,2.3-0.8C517,109.9,518,109.8,519.2,109.8z M519.3,111.8c-0.7,0-1.4,0-1.9,0.1s-1.1,0.1-1.5,0.2     c-0.4,0.1-0.8,0.2-1.1,0.4c-0.3,0.2-0.6,0.3-0.8,0.6c-0.2,0.2-0.4,0.5-0.4,0.8c-0.1,0.3-0.1,0.6-0.1,1c0,0.6,0.1,1.1,0.4,1.5     s0.7,0.7,1.2,0.9c0.5,0.2,1.1,0.4,1.8,0.5s1.4,0.1,2.2,0.1c1.1,0,2-0.1,2.7-0.2c0.8-0.1,1.4-0.3,1.8-0.5c0.5-0.2,0.8-0.5,1-0.9     c0.2-0.4,0.3-0.8,0.3-1.4c0-0.4-0.1-0.8-0.2-1.1c-0.1-0.3-0.3-0.6-0.6-0.8c-0.2-0.2-0.5-0.4-0.9-0.6c-0.3-0.1-0.7-0.3-1.2-0.4     c-0.4-0.1-0.9-0.1-1.4-0.2C520.4,111.8,519.8,111.8,519.3,111.8z"
   id="path271" />&#10;			<path
   class="st16"
   d="M522.3,98.9c0.7,0,1.2,0.1,1.8,0.3s1,0.6,1.4,1c0.4,0.4,0.7,1,0.9,1.6s0.3,1.3,0.3,2.1c0,0.5,0,0.9-0.1,1.3     c-0.1,0.4-0.2,0.8-0.3,1.1c-0.1,0.3-0.2,0.6-0.3,0.8c-0.1,0.2-0.2,0.3-0.2,0.4c-0.1,0.1-0.1,0.1-0.2,0.1s-0.1,0.1-0.2,0.1     s-0.2,0-0.3,0s-0.2,0-0.4,0c-0.3,0-0.5,0-0.6-0.1c-0.1-0.1-0.2-0.1-0.2-0.2c0-0.1,0.1-0.2,0.2-0.4c0.1-0.2,0.2-0.5,0.4-0.8     s0.3-0.7,0.4-1.1c0.1-0.4,0.2-0.9,0.2-1.4c0-0.5-0.1-0.9-0.2-1.3c-0.1-0.4-0.3-0.7-0.5-1c-0.2-0.3-0.5-0.5-0.8-0.6     c-0.3-0.1-0.7-0.2-1-0.2c-0.4,0-0.8,0.1-1.1,0.2c-0.3,0.2-0.6,0.4-0.8,0.7c-0.2,0.3-0.4,0.7-0.5,1.2c-0.1,0.5-0.2,1-0.2,1.6v1.4     c0,0.1,0,0.1,0,0.2c0,0.1-0.1,0.1-0.1,0.1c-0.1,0-0.1,0.1-0.2,0.1c-0.1,0-0.2,0-0.4,0c-0.1,0-0.3,0-0.3,0c-0.1,0-0.2-0.1-0.2-0.1     c-0.1,0-0.1-0.1-0.1-0.1c0-0.1,0-0.1,0-0.2v-1.2c0-0.5-0.1-0.9-0.2-1.3c-0.1-0.4-0.3-0.7-0.5-1s-0.5-0.5-0.8-0.6     c-0.3-0.1-0.7-0.2-1.1-0.2c-0.3,0-0.6,0-0.8,0.1c-0.3,0.1-0.5,0.2-0.7,0.4c-0.2,0.2-0.4,0.4-0.5,0.7c-0.1,0.3-0.2,0.6-0.2,1     c0,0.4,0.1,0.8,0.2,1.2c0.1,0.4,0.3,0.7,0.4,1s0.3,0.5,0.4,0.7s0.2,0.3,0.2,0.4c0,0.1,0,0.1,0,0.1c0,0-0.1,0.1-0.1,0.1     c-0.1,0-0.1,0-0.2,0.1s-0.2,0-0.4,0c-0.1,0-0.2,0-0.3,0c-0.1,0-0.2,0-0.2,0c-0.1,0-0.1,0-0.2-0.1c-0.1,0-0.1-0.1-0.2-0.1     c-0.1-0.1-0.2-0.2-0.3-0.4s-0.3-0.5-0.4-0.8c-0.1-0.3-0.2-0.7-0.3-1.1s-0.1-0.8-0.1-1.3c0-0.7,0.1-1.2,0.3-1.7s0.4-0.9,0.7-1.3     c0.3-0.3,0.7-0.6,1.1-0.8s0.9-0.2,1.4-0.2c0.5,0,0.9,0.1,1.3,0.2s0.7,0.3,1,0.5s0.6,0.5,0.8,0.8s0.4,0.7,0.4,1.2h0     c0.1-0.5,0.2-0.9,0.4-1.4s0.4-0.8,0.7-1.1s0.6-0.5,1-0.7C521.4,99,521.8,98.9,522.3,98.9z"
   id="path272" />&#10;			<path
   class="st16"
   d="M521.7,87c0.6,0,1.2,0.1,1.8,0.3c0.6,0.2,1.1,0.5,1.6,0.9c0.4,0.4,0.8,0.9,1.1,1.5s0.4,1.3,0.4,2.2     c0,0.6-0.1,1.1-0.2,1.6c-0.1,0.5-0.4,0.9-0.6,1.2c-0.3,0.3-0.6,0.6-1,0.8c-0.4,0.2-0.9,0.4-1.4,0.5c-0.5,0.1-1.1,0.2-1.7,0.3     s-1.3,0.1-1.9,0.1c-0.6,0-1.2,0-1.9-0.1s-1.2-0.2-1.8-0.4c-0.6-0.2-1.1-0.4-1.6-0.7s-1-0.7-1.3-1.1c-0.4-0.4-0.7-1-0.9-1.6     c-0.2-0.6-0.3-1.3-0.3-2.1c0-0.3,0-0.5,0.1-0.8s0.1-0.5,0.1-0.8c0.1-0.2,0.1-0.4,0.2-0.6s0.1-0.3,0.2-0.3c0-0.1,0.1-0.1,0.1-0.1     c0,0,0.1,0,0.2-0.1s0.1,0,0.2,0c0.1,0,0.2,0,0.3,0c0.1,0,0.2,0,0.3,0c0.1,0,0.2,0,0.2,0c0.1,0,0.1,0.1,0.1,0.1c0,0,0,0.1,0,0.2     c0,0.1,0,0.2-0.1,0.3c-0.1,0.1-0.1,0.3-0.2,0.5s-0.1,0.4-0.2,0.7s-0.1,0.6-0.1,1c0,0.7,0.1,1.3,0.4,1.8s0.7,0.9,1.1,1.2     s1,0.5,1.6,0.7s1.3,0.2,2,0.3c-0.1-0.2-0.2-0.4-0.3-0.6c-0.1-0.2-0.2-0.5-0.3-0.8s-0.2-0.6-0.2-0.9c-0.1-0.3-0.1-0.7-0.1-1     c0-0.8,0.1-1.4,0.3-2c0.2-0.5,0.5-1,0.9-1.3s0.8-0.6,1.3-0.7C520.6,87.1,521.1,87,521.7,87z M521.9,88.9c-0.4,0-0.8,0-1.2,0.1     c-0.3,0.1-0.6,0.2-0.9,0.4c-0.2,0.2-0.4,0.5-0.6,0.8s-0.2,0.7-0.2,1.2c0,0.3,0,0.5,0.1,0.8c0,0.3,0.1,0.5,0.2,0.8     c0.1,0.3,0.2,0.5,0.3,0.7c0.1,0.2,0.2,0.4,0.4,0.6c1,0,1.7-0.1,2.4-0.2c0.6-0.1,1.2-0.3,1.5-0.5s0.7-0.5,0.8-0.9s0.2-0.8,0.2-1.2     c0-0.5-0.1-0.9-0.3-1.2c-0.2-0.3-0.4-0.6-0.7-0.9s-0.6-0.4-1-0.5C522.7,89,522.3,88.9,521.9,88.9z"
   id="path273" />&#10;		</g>&#10;	</g>&#10;	<g
   id="text116">&#10;		<g
   class="st32"
   id="g275">&#10;			<path
   class="st16"
   d="M409.6,366.7c0.1,0.2,0.1,0.3,0.1,0.4s0,0.2-0.1,0.2c-0.1,0.1-0.2,0.1-0.3,0.1c-0.1,0-0.3,0-0.5,0     c-0.2,0-0.4,0-0.5,0c-0.1,0-0.2,0-0.3-0.1c-0.1,0-0.1-0.1-0.2-0.1c0,0-0.1-0.1-0.1-0.2l-1.2-3.5h-6l-1.2,3.4     c0,0.1-0.1,0.1-0.1,0.2s-0.1,0.1-0.2,0.1c-0.1,0-0.2,0.1-0.3,0.1c-0.1,0-0.3,0-0.5,0c-0.2,0-0.4,0-0.5,0c-0.1,0-0.2-0.1-0.3-0.1     c-0.1-0.1-0.1-0.1-0.1-0.2s0-0.2,0.1-0.4l4.8-13.3c0-0.1,0.1-0.1,0.1-0.2c0-0.1,0.1-0.1,0.2-0.1c0.1,0,0.2,0,0.4-0.1     c0.1,0,0.3,0,0.5,0c0.2,0,0.4,0,0.6,0c0.2,0,0.3,0,0.4,0.1c0.1,0,0.2,0.1,0.2,0.1s0.1,0.1,0.1,0.2L409.6,366.7z M403.4,354.9     L403.4,354.9l-2.5,7.1h5L403.4,354.9z"
   id="path274" />&#10;			<path
   class="st16"
   d="M420.7,360.2c0,1.1-0.1,2.1-0.3,3c-0.2,0.9-0.5,1.7-0.9,2.3c-0.4,0.7-0.9,1.2-1.6,1.5     c-0.6,0.4-1.4,0.5-2.4,0.5c-0.9,0-1.7-0.2-2.3-0.5c-0.6-0.3-1.1-0.8-1.5-1.4s-0.6-1.4-0.8-2.3c-0.2-0.9-0.2-2-0.2-3.1     c0-1.1,0.1-2.1,0.3-3c0.2-0.9,0.5-1.7,0.9-2.3c0.4-0.7,0.9-1.2,1.6-1.5c0.6-0.4,1.4-0.5,2.4-0.5c0.9,0,1.7,0.2,2.3,0.5     s1.1,0.8,1.5,1.4c0.4,0.6,0.6,1.4,0.8,2.3C420.7,357.9,420.7,359,420.7,360.2z M418.8,360.3c0-0.7,0-1.4-0.1-1.9     c-0.1-0.6-0.1-1.1-0.2-1.5c-0.1-0.4-0.2-0.8-0.4-1.1c-0.2-0.3-0.3-0.6-0.6-0.8c-0.2-0.2-0.5-0.4-0.8-0.4s-0.6-0.1-1-0.1     c-0.6,0-1.1,0.1-1.5,0.4s-0.7,0.7-0.9,1.2c-0.2,0.5-0.4,1.1-0.5,1.8c-0.1,0.7-0.1,1.4-0.1,2.2c0,1.1,0.1,2,0.2,2.7     s0.3,1.4,0.5,1.8c0.2,0.5,0.5,0.8,0.9,1c0.4,0.2,0.8,0.3,1.4,0.3c0.4,0,0.8-0.1,1.1-0.2s0.6-0.3,0.8-0.6c0.2-0.2,0.4-0.5,0.6-0.9     s0.3-0.7,0.4-1.2c0.1-0.4,0.1-0.9,0.2-1.4C418.8,361.3,418.8,360.8,418.8,360.3z"
   id="path275" />&#10;		</g>&#10;	</g>&#10;	<g
   id="text120">&#10;		<g
   class="st32"
   id="g276">&#10;			<path
   class="st16"
   d="M442.6,355c0,0.1,0,0.3,0,0.4s0,0.2-0.1,0.3c0,0.1-0.1,0.1-0.1,0.1c0,0-0.1,0-0.1,0c-0.1,0-0.2-0.1-0.4-0.2     c-0.2-0.1-0.5-0.3-0.8-0.5c-0.3-0.2-0.8-0.3-1.2-0.5s-1.1-0.2-1.7-0.2c-0.8,0-1.5,0.1-2.1,0.4s-1.2,0.7-1.6,1.2s-0.8,1.1-1,1.8     c-0.2,0.7-0.3,1.5-0.3,2.3c0,0.9,0.1,1.7,0.4,2.4c0.3,0.7,0.6,1.3,1.1,1.8c0.4,0.5,1,0.9,1.6,1.1c0.6,0.3,1.3,0.4,2.1,0.4     c0.4,0,0.9-0.1,1.3-0.2c0.5-0.1,0.9-0.3,1.3-0.5v-4.2h-3.3c-0.1,0-0.2-0.1-0.3-0.2c-0.1-0.1-0.1-0.3-0.1-0.6c0-0.1,0-0.3,0-0.4     c0-0.1,0-0.2,0.1-0.2s0.1-0.1,0.1-0.1s0.1,0,0.2,0h4.5c0.1,0,0.2,0,0.2,0c0.1,0,0.2,0.1,0.2,0.1c0.1,0.1,0.1,0.1,0.2,0.2     c0,0.1,0.1,0.2,0.1,0.4v5.5c0,0.2,0,0.4-0.1,0.5s-0.2,0.3-0.4,0.4c-0.2,0.1-0.5,0.2-0.8,0.3c-0.3,0.1-0.7,0.2-1.1,0.3     c-0.4,0.1-0.7,0.2-1.1,0.2c-0.4,0-0.7,0.1-1.1,0.1c-1.1,0-2.1-0.2-3-0.5c-0.9-0.3-1.6-0.8-2.2-1.5c-0.6-0.6-1.1-1.4-1.4-2.3     c-0.3-0.9-0.5-1.9-0.5-3c0-1.1,0.2-2.2,0.5-3.1c0.3-0.9,0.8-1.7,1.4-2.4c0.6-0.6,1.4-1.2,2.2-1.5s1.8-0.5,2.9-0.5     c0.5,0,1.1,0,1.5,0.1c0.5,0.1,0.9,0.2,1.3,0.3c0.4,0.1,0.7,0.3,0.9,0.4c0.3,0.2,0.4,0.3,0.5,0.4s0.2,0.2,0.2,0.3     S442.6,354.8,442.6,355z"
   id="path276" />&#10;		</g>&#10;	</g>&#10;	<g
   id="text124">&#10;		<g
   class="st32"
   id="g277">&#10;			<path
   class="st16"
   d="M469.6,362.4c0,0.1,0,0.3,0,0.4s-0.1,0.2-0.1,0.2c0,0.1-0.1,0.1-0.1,0.1c-0.1,0-0.1,0-0.2,0h-3.6v4     c0,0.1,0,0.1,0,0.1c0,0-0.1,0.1-0.1,0.1c-0.1,0-0.1,0.1-0.2,0.1s-0.2,0-0.4,0c-0.1,0-0.3,0-0.4,0c-0.1,0-0.2,0-0.3-0.1     c-0.1,0-0.1-0.1-0.1-0.1c0,0,0-0.1,0-0.1v-4h-3.6c-0.1,0-0.1,0-0.2,0s-0.1-0.1-0.1-0.1c0-0.1-0.1-0.1-0.1-0.2s0-0.2,0-0.4     c0-0.1,0-0.2,0-0.3s0.1-0.2,0.1-0.2c0-0.1,0.1-0.1,0.1-0.1s0.1,0,0.2,0h3.6v-4c0-0.1,0-0.1,0-0.2c0,0,0.1-0.1,0.1-0.1     s0.1-0.1,0.3-0.1c0.1,0,0.2,0,0.4,0c0.2,0,0.3,0,0.4,0c0.1,0,0.2,0,0.2,0.1s0.1,0.1,0.1,0.1c0,0,0,0.1,0,0.2v4h3.6     c0.1,0,0.1,0,0.2,0s0.1,0.1,0.1,0.1c0,0.1,0.1,0.1,0.1,0.2S469.6,362.3,469.6,362.4z"
   id="path277" />&#10;		</g>&#10;	</g>&#10;	<g
   id="text128">&#10;		<g
   class="st32"
   id="g279">&#10;			<path
   class="st16"
   d="M492,360c0,1.2-0.2,2.3-0.5,3.2s-0.8,1.7-1.4,2.3c-0.6,0.6-1.4,1.1-2.2,1.4c-0.9,0.3-1.9,0.5-3.2,0.5h-3     c-0.2,0-0.3-0.1-0.5-0.2c-0.2-0.1-0.2-0.3-0.2-0.6v-12.8c0-0.3,0.1-0.5,0.2-0.6s0.3-0.2,0.5-0.2h3.2c1.2,0,2.3,0.2,3.1,0.5     c0.9,0.3,1.6,0.8,2.2,1.4c0.6,0.6,1,1.3,1.3,2.2C491.8,358,492,358.9,492,360z M490,360.1c0-0.8-0.1-1.5-0.3-2.2     c-0.2-0.7-0.5-1.2-0.9-1.7s-0.9-0.9-1.6-1.1s-1.4-0.4-2.4-0.4h-1.9v11.1h2c0.9,0,1.7-0.1,2.3-0.3s1.2-0.6,1.6-1.1     c0.4-0.5,0.7-1.1,0.9-1.8S490,361,490,360.1z"
   id="path278" />&#10;			<path
   class="st16"
   d="M503.7,360.2c0,1.1-0.1,2.1-0.3,3c-0.2,0.9-0.5,1.7-0.9,2.3c-0.4,0.7-0.9,1.2-1.6,1.5     c-0.6,0.4-1.4,0.5-2.4,0.5c-0.9,0-1.7-0.2-2.3-0.5c-0.6-0.3-1.1-0.8-1.5-1.4s-0.6-1.4-0.8-2.3c-0.2-0.9-0.2-2-0.2-3.1     c0-1.1,0.1-2.1,0.3-3c0.2-0.9,0.5-1.7,0.9-2.3c0.4-0.7,0.9-1.2,1.6-1.5c0.6-0.4,1.4-0.5,2.4-0.5c0.9,0,1.7,0.2,2.3,0.5     s1.1,0.8,1.5,1.4c0.4,0.6,0.6,1.4,0.8,2.3C503.6,357.9,503.7,359,503.7,360.2z M501.8,360.3c0-0.7,0-1.4-0.1-1.9     c-0.1-0.6-0.1-1.1-0.2-1.5c-0.1-0.4-0.2-0.8-0.4-1.1c-0.2-0.3-0.3-0.6-0.6-0.8c-0.2-0.2-0.5-0.4-0.8-0.4s-0.6-0.1-1-0.1     c-0.6,0-1.1,0.1-1.5,0.4s-0.7,0.7-0.9,1.2c-0.2,0.5-0.4,1.1-0.5,1.8c-0.1,0.7-0.1,1.4-0.1,2.2c0,1.1,0.1,2,0.2,2.7     s0.3,1.4,0.5,1.8c0.2,0.5,0.5,0.8,0.9,1c0.4,0.2,0.8,0.3,1.4,0.3c0.4,0,0.8-0.1,1.1-0.2s0.6-0.3,0.8-0.6c0.2-0.2,0.4-0.5,0.6-0.9     s0.3-0.7,0.4-1.2c0.1-0.4,0.1-0.9,0.2-1.4C501.8,361.3,501.8,360.8,501.8,360.3z"
   id="path279" />&#10;		</g>&#10;	</g>&#10;</g>&#10;&#10;<path
   id="rect1707"
   class="st38"
   style="fill:#e30613"
   d="m 231.5,544.5 h 46.2 v 11.3 h -46.2 z" />&#10;&#10;&#10;&#10;<path
   id="circle281"
   class="st37"
   style="fill:#914f00"
   d="m 243.7,491.20001 a 11.9,11.9 0 0 1 -11.9,11.9 11.9,11.9 0 0 1 -11.9,-11.9 11.9,11.9 0 0 1 11.9,-11.9 11.9,11.9 0 0 1 11.9,11.9 z" />&#10;<path
   id="circle281-2"
   class="st38"
   style="fill:#e30613"
   d="m 243.1,550.20001 a 11.6,11.6 0 0 1 -11.6,11.6 11.6,11.6 0 0 1 -11.6,-11.6 11.6,11.6 0 0 1 11.6,-11.6 11.6,11.6 0 0 1 11.6,11.6 z" />&#10;&#10;&#10;<path
   id="rect1727"
   style="fill:#914f00;stroke-width:0.827063"
   class="st37"
   d="m 231.5,485.60001 h 210.54535 v 11.3 H 231.5 Z" />&#10;&#10;&#10;<path
   id="rect1727-4"
   class="st38"
   style="fill:#e30613"
   d="m 266.29999,579.29999 h 203.39999 v 11.3 H 266.29999 Z" />&#10;<path
   id="rect1727-5"
   class="st38"
   style="fill:#e30613"
   d="m 266.29999,544.5 h 11.3 v 46.1 h -11.3 z" />&#10;&#10;&#10;&#10;<path
   id="rect1727-9"
   style="fill:#00b589;stroke-width:1.11514"
   class="st34"
   d="m 402.39999,409.10001 h 11.3 v 294.84396 h -11.3 z" /><path
   id="rect1727-9-9"
   style="fill:#00b589;stroke-width:0.881486"
   class="st34"
   transform="rotate(90)"
   d="m 692.55243,-413.76691 h 11.3 v 184.23116 h -11.3 z" />&#10;<path
   id="rect1727-10"
   class="st37"
   style="fill:#914f00"
   d="m 430.60001,409.10001 h 11.3 v 87.8 h -11.3 z" />&#10;<path
   id="rect1727-11"
   class="st38"
   style="fill:#e30613"
   d="m 458.39999,409.10001 h 11.3 v 181.5 h -11.3 z" />&#10;<path
   id="rect1727-12"
   class="st39"
   style="fill:#7b217f"
   d="m 486.20001,409.10001 h 11.3 v 499.29998 h -11.3 z" />&#10;<path
   id="circle281-5"
   class="st39"
   style="fill:#7b217f"
   d="m 243.70001,902.79999 a 11.6,11.6 0 0 1 -11.6,11.6 11.6,11.6 0 0 1 -11.6,-11.6 11.6,11.6 0 0 1 11.6,-11.6 11.6,11.6 0 0 1 11.6,11.6 z" />&#10;<path
   id="circle281-6"
   class="st39"
   style="fill:#7b217f"
   d="m 503.6,409.10001 a 11.6,11.6 0 0 1 -11.6,11.6 11.6,11.6 0 0 1 -11.6,-11.6 11.6,11.6 0 0 1 11.6,-11.6 11.6,11.6 0 0 1 11.6,11.6 z" />&#10;<path
   id="circle281-7"
   class="st38"
   style="fill:#e30613"
   d="m 475.80001,409.10001 a 11.6,11.6 0 0 1 -11.6,11.6 11.6,11.6 0 0 1 -11.6,-11.6 11.6,11.6 0 0 1 11.6,-11.6 11.6,11.6 0 0 1 11.6,11.6 z" />&#10;<path
   id="circle281-8"
   class="st37"
   style="fill:#914f00"
   d="m 447.80001,409.10001 a 11.6,11.6 0 0 1 -11.6,11.6 11.6,11.6 0 0 1 -11.6,-11.6 11.6,11.6 0 0 1 11.6,-11.6 11.6,11.6 0 0 1 11.6,11.6 z" />&#10;<path
   id="circle281-9"
   class="st34"
   style="fill:#00b589"
   d="m 419.80001,409.10001 a 11.6,11.6 0 0 1 -11.6,11.6 11.6,11.6 0 0 1 -11.6,-11.6 11.6,11.6 0 0 1 11.6,-11.6 11.6,11.6 0 0 1 11.6,11.6 z" /><path
   id="circle281-9-3"
   style="fill:#00b589"
   class="st34"
   d="m 243.20713,696.8786 a 11.6,11.6 0 0 1 -11.6,11.6 11.6,11.6 0 0 1 -11.6,-11.6 11.6,11.6 0 0 1 11.6,-11.6 11.6,11.6 0 0 1 11.6,11.6 z" />&#10;<path
   id="rect335"
   class="st39"
   style="fill:#7b217f"
   d="M 232.10001,897.09998 H 497.5 v 11.3 H 232.10001 Z" />&#10;</svg>
