<?xml version="1.0" encoding="UTF-8" standalone="no"?>
<!-- Generator: Adobe Illustrator 27.8.0, SVG Export Plug-In . SVG Version: 6.00 Build 0)  -->

<svg
   version="1.1"
   id="svg4098"
   x="0px"
   y="0px"
   viewBox="0 0 682 991.5"
   style="enable-background:new 0 0 682 991.5;"
   xml:space="preserve"
   sodipodi:docname="037-Pico.svg"
   inkscape:version="1.3 (0e150ed, 2023-07-21)"
   xmlns:inkscape="http://www.inkscape.org/namespaces/inkscape"
   xmlns:sodipodi="http://sodipodi.sourceforge.net/DTD/sodipodi-0.dtd"
   xmlns="http://www.w3.org/2000/svg"
   xmlns:svg="http://www.w3.org/2000/svg"><defs
   id="defs336" /><sodipodi:namedview
   id="namedview336"
   pagecolor="#505050"
   bordercolor="#eeeeee"
   borderopacity="1"
   inkscape:showpageshadow="0"
   inkscape:pageopacity="0"
   inkscape:pagecheckerboard="0"
   inkscape:deskcolor="#505050"
   inkscape:zoom="0.53214986"
   inkscape:cx="300.66718"
   inkscape:cy="459.45704"
   inkscape:window-width="1440"
   inkscape:window-height="900"
   inkscape:window-x="0"
   inkscape:window-y="0"
   inkscape:window-maximized="0"
   inkscape:current-layer="svg4098" />&#10;<style
   type="text/css"
   id="style1">&#10;	.st0{fill:#02814B;}&#10;	.st1{fill:#D4C547;}&#10;	.st2{fill:#525035;}&#10;	.st3{fill:#FEE86F;}&#10;	.st4{fill:#FFE17B;}&#10;	.st5{fill:#DDDDDD;}&#10;	.st6{fill:#7F7F7F;}&#10;	.st7{fill:#474544;}&#10;	.st8{fill:#E2EADE;}&#10;	.st9{fill:#C29148;}&#10;	.st10{fill:#8DDDDE;}&#10;	.st11{fill:#C1C1C1;}&#10;	.st12{fill:#C2BFAB;}&#10;	.st13{fill:none;stroke:#95AC6E;stroke-miterlimit:10;}&#10;	.st14{fill:#E8D28A;}&#10;	.st15{fill:#CECECE;}&#10;	.st16{fill:#FFFFFF;}&#10;	.st17{fill:#36323E;}&#10;	.st18{fill:#868C97;}&#10;	.st19{fill:#FCFCFA;}&#10;	.st20{fill:#141316;}&#10;	.st21{fill:#B9A68F;}&#10;	.st22{fill:#E0B45B;}&#10;	.st23{fill:#ABA28E;}&#10;	.st24{fill:none;stroke:#FFFFFF;stroke-miterlimit:10;}&#10;	.st25{fill:#1A1A1A;}&#10;	.st26{opacity:0.99;fill:#808080;enable-background:new    ;}&#10;	.st27{fill:#CCCBCB;}&#10;	.st28{fill:#2A4B9A;}&#10;	.st29{fill:#AB9C38;}&#10;	.st30{fill:#96841F;}&#10;	.st31{fill:#333333;}&#10;	.st32{fill:#989898;}&#10;	.st33{enable-background:new    ;}&#10;	.st34{fill:#CCCCCC;}&#10;	.st35{fill:#00B589;}&#10;	.st36{fill:#008000;}&#10;	.st37{fill:#54BDC2;}&#10;	.st38{fill:#914F00;}&#10;	.st39{fill:#E30613;}&#10;	.st40{fill:#7B217F;}&#10;</style>&#10;<g
   id="g264">&#10;	<path
   class="st0"
   d="M243.3,409.5v-11.9H0.2v11.9c2.3,0.9,3.9,3.1,3.9,5.7s-1.6,4.8-3.9,5.7v18.1c2.3,0.9,3.9,3.1,3.9,5.7   s-1.6,4.8-3.9,5.7v18.1c2.3,0.9,3.9,3.1,3.9,5.7s-1.6,4.8-3.9,5.7v18.1c2.3,0.9,3.9,3.1,3.9,5.7s-1.6,4.8-3.9,5.7v18.1   c2.3,0.9,3.9,3.1,3.9,5.7s-1.6,4.8-3.9,5.7v18.1c2.3,0.9,3.9,3.1,3.9,5.7s-1.6,4.8-3.9,5.7v18.1c2.3,0.9,3.9,3.1,3.9,5.7   s-1.6,4.8-3.9,5.7v18.1c2.3,0.9,3.9,3.1,3.9,5.7s-1.6,4.8-3.9,5.7v18.1c2.3,0.9,3.9,3.1,3.9,5.7s-1.6,4.8-3.9,5.7v18.1   c2.3,0.9,3.9,3.1,3.9,5.7s-1.6,4.8-3.9,5.7v18.1c2.3,0.9,3.9,3.1,3.9,5.7s-1.6,4.8-3.9,5.7v18.1c2.3,0.9,3.9,3.1,3.9,5.7   s-1.6,4.8-3.9,5.7v18.1c2.3,0.9,3.9,3.1,3.9,5.7s-1.6,4.8-3.9,5.7v18.1c2.3,0.9,3.9,3.1,3.9,5.7s-1.6,4.8-3.9,5.7v18.1   c2.3,0.9,3.9,3.1,3.9,5.7s-1.6,4.8-3.9,5.7v18.1c2.3,0.9,3.9,3.1,3.9,5.7s-1.6,4.8-3.9,5.7v18.1c2.3,0.9,3.9,3.1,3.9,5.7   s-1.6,4.8-3.9,5.7v18.1c2.3,0.9,3.9,3.1,3.9,5.7s-1.6,4.8-3.9,5.7v18c2.3,0.9,3.9,3.1,3.9,5.7s-1.6,4.8-3.9,5.7V968   c2.3,0.9,3.9,3.1,3.9,5.7s-1.6,4.8-3.9,5.7v11.9h78.5h7.5h11.3h18.5h11.3H146h11.3h4h82v-11.9c-2.2-0.9-3.8-3.1-3.8-5.7   s1.6-4.8,3.8-5.7V950c-2.2-0.9-3.8-3.1-3.8-5.7s1.6-4.8,3.8-5.7v-18.1c-2.2-0.9-3.8-3.1-3.8-5.7s1.6-4.8,3.8-5.7v-18.1   c-2.2-0.9-3.8-3.1-3.8-5.7s1.6-4.8,3.8-5.7v-18.1c-2.2-0.9-3.8-3.1-3.8-5.7s1.6-4.8,3.8-5.7v-18.1c-2.2-0.9-3.8-3.1-3.8-5.7   s1.6-4.8,3.8-5.7V803c-2.2-0.9-3.8-3.1-3.8-5.7s1.6-4.8,3.8-5.7v-18.1c-2.2-0.9-3.8-3.1-3.8-5.7s1.6-4.8,3.8-5.7v-18.1   c-2.2-0.9-3.8-3.1-3.8-5.7s1.6-4.8,3.8-5.7v-18.1c-2.2-0.9-3.8-3.1-3.8-5.7s1.6-4.8,3.8-5.7v-18.1c-2.2-0.9-3.8-3.1-3.8-5.7   s1.6-4.8,3.8-5.7V656c-2.2-0.9-3.8-3.1-3.8-5.7s1.6-4.8,3.8-5.7v-18.1c-2.2-0.9-3.8-3.1-3.8-5.7s1.6-4.8,3.8-5.7v-18.1   c-2.2-0.9-3.8-3.1-3.8-5.7s1.6-4.8,3.8-5.7v-18.1c-2.2-0.9-3.8-3.1-3.8-5.7s1.6-4.8,3.8-5.7v-18.1c-2.2-0.9-3.8-3.1-3.8-5.7   s1.6-4.8,3.8-5.7V509c-2.2-0.9-3.8-3.1-3.8-5.7s1.6-4.8,3.8-5.7v-18.1c-2.2-0.9-3.8-3.1-3.8-5.7s1.6-4.8,3.8-5.7v-18.1   c-2.2-0.9-3.8-3.1-3.8-5.7s1.6-4.8,3.8-5.7v-18.1c-2.2-0.9-3.8-3.1-3.8-5.7S241.1,410.4,243.3,409.5z M15.8,979.8   c-3.4,0-6.1-2.7-6.1-6.1s2.7-6.1,6.1-6.1s6.1,2.7,6.1,6.1S19.2,979.8,15.8,979.8z M15.8,950.4c-3.4,0-6.1-2.7-6.1-6.1   s2.7-6.1,6.1-6.1s6.1,2.7,6.1,6.1S19.2,950.4,15.8,950.4z M15.8,921c-3.4,0-6.1-2.7-6.1-6.1s2.7-6.1,6.1-6.1s6.1,2.7,6.1,6.1   S19.2,921,15.8,921z M15.8,891.6c-3.4,0-6.1-2.7-6.1-6.1s2.7-6.1,6.1-6.1s6.1,2.7,6.1,6.1S19.2,891.6,15.8,891.6z M15.8,862.2   c-3.4,0-6.1-2.7-6.1-6.1s2.7-6.1,6.1-6.1s6.1,2.7,6.1,6.1S19.2,862.2,15.8,862.2z M15.8,832.8c-3.4,0-6.1-2.7-6.1-6.1   s2.7-6.1,6.1-6.1s6.1,2.7,6.1,6.1S19.2,832.8,15.8,832.8z M15.8,803.4c-3.4,0-6.1-2.7-6.1-6.1s2.7-6.1,6.1-6.1s6.1,2.7,6.1,6.1   S19.2,803.4,15.8,803.4z M15.8,774c-3.4,0-6.1-2.7-6.1-6.1s2.7-6.1,6.1-6.1s6.1,2.7,6.1,6.1S19.2,774,15.8,774z M15.8,744.6   c-3.4,0-6.1-2.7-6.1-6.1s2.7-6.1,6.1-6.1s6.1,2.7,6.1,6.1S19.2,744.6,15.8,744.6z M15.8,715.2c-3.4,0-6.1-2.7-6.1-6.1   s2.7-6.1,6.1-6.1s6.1,2.7,6.1,6.1S19.2,715.2,15.8,715.2z M15.8,685.8c-3.4,0-6.1-2.7-6.1-6.1s2.7-6.1,6.1-6.1s6.1,2.7,6.1,6.1   S19.2,685.8,15.8,685.8z M15.8,656.4c-3.4,0-6.1-2.7-6.1-6.1s2.7-6.1,6.1-6.1s6.1,2.7,6.1,6.1S19.2,656.4,15.8,656.4z M15.8,627   c-3.4,0-6.1-2.7-6.1-6.1s2.7-6.1,6.1-6.1s6.1,2.7,6.1,6.1S19.2,627,15.8,627z M15.8,597.7c-3.4,0-6.1-2.7-6.1-6.1s2.7-6.1,6.1-6.1   s6.1,2.7,6.1,6.1S19.2,597.7,15.8,597.7z M15.8,568.3c-3.4,0-6.1-2.7-6.1-6.1s2.7-6.1,6.1-6.1s6.1,2.7,6.1,6.1   S19.2,568.3,15.8,568.3z M15.8,538.9c-3.4,0-6.1-2.7-6.1-6.1s2.7-6.1,6.1-6.1s6.1,2.7,6.1,6.1S19.2,538.9,15.8,538.9z M15.8,509.5   c-3.4,0-6.1-2.7-6.1-6.1s2.7-6.1,6.1-6.1c3.4,0,6.1,2.7,6.1,6.1S19.2,509.5,15.8,509.5z M15.8,480.1c-3.4,0-6.1-2.7-6.1-6.1   s2.7-6.1,6.1-6.1s6.1,2.7,6.1,6.1S19.2,480.1,15.8,480.1z M15.8,450.7c-3.4,0-6.1-2.7-6.1-6.1s2.7-6.1,6.1-6.1s6.1,2.7,6.1,6.1   S19.2,450.7,15.8,450.7z M15.8,421.3c-3.4,0-6.1-2.7-6.1-6.1s2.7-6.1,6.1-6.1s6.1,2.7,6.1,6.1S19.2,421.3,15.8,421.3z M53.7,979.7   c-6.7,0-12.1-5.4-12.1-12.1s5.4-12.1,12.1-12.1c6.7,0,12.1,5.4,12.1,12.1S60.4,979.7,53.7,979.7z M53.7,432.6   c-6.7,0-12.1-5.4-12.1-12.1c0-6.7,5.4-12.1,12.1-12.1c6.7,0,12.1,5.4,12.1,12.1C65.8,427.2,60.4,432.6,53.7,432.6z M127.6,765.8   c-3.1,0-5.7-2.6-5.7-5.7s2.6-5.7,5.7-5.7c3.1,0,5.7,2.6,5.7,5.7S130.7,765.8,127.6,765.8z M157,765.8c-3.1,0-5.7-2.6-5.7-5.7   s2.6-5.7,5.7-5.7c3.1,0,5.7,2.6,5.7,5.7S160.2,765.8,157,765.8z M186.2,408.4c6.7,0,12.1,5.4,12.1,12.1c0,6.7-5.4,12.1-12.1,12.1   s-12.1-5.4-12.1-12.1C174.1,413.8,179.6,408.4,186.2,408.4z M192.5,760.1c0,3.1-2.6,5.7-5.7,5.7c-3.1,0-5.7-2.6-5.7-5.7   s2.6-5.7,5.7-5.7C190,754.4,192.5,757,192.5,760.1z M188.2,979.7c-6.7,0-12.1-5.4-12.1-12.1s5.4-12.1,12.1-12.1s12.1,5.4,12.1,12.1   S194.9,979.7,188.2,979.7z M227.8,979.8c-3.4,0-6.1-2.7-6.1-6.1s2.7-6.1,6.1-6.1s6.1,2.7,6.1,6.1S231.2,979.8,227.8,979.8z    M227.8,950.4c-3.4,0-6.1-2.7-6.1-6.1s2.7-6.1,6.1-6.1s6.1,2.7,6.1,6.1S231.2,950.4,227.8,950.4z M227.8,921   c-3.4,0-6.1-2.7-6.1-6.1s2.7-6.1,6.1-6.1s6.1,2.7,6.1,6.1S231.2,921,227.8,921z M227.8,891.6c-3.4,0-6.1-2.7-6.1-6.1   s2.7-6.1,6.1-6.1s6.1,2.7,6.1,6.1S231.2,891.6,227.8,891.6z M227.8,862.2c-3.4,0-6.1-2.7-6.1-6.1s2.7-6.1,6.1-6.1s6.1,2.7,6.1,6.1   S231.2,862.2,227.8,862.2z M227.8,832.8c-3.4,0-6.1-2.7-6.1-6.1s2.7-6.1,6.1-6.1s6.1,2.7,6.1,6.1S231.2,832.8,227.8,832.8z    M227.8,803.4c-3.4,0-6.1-2.7-6.1-6.1s2.7-6.1,6.1-6.1s6.1,2.7,6.1,6.1S231.2,803.4,227.8,803.4z M227.8,774   c-3.4,0-6.1-2.7-6.1-6.1s2.7-6.1,6.1-6.1s6.1,2.7,6.1,6.1S231.2,774,227.8,774z M227.8,744.6c-3.4,0-6.1-2.7-6.1-6.1   s2.7-6.1,6.1-6.1s6.1,2.7,6.1,6.1S231.2,744.6,227.8,744.6z M227.8,715.2c-3.4,0-6.1-2.7-6.1-6.1s2.7-6.1,6.1-6.1s6.1,2.7,6.1,6.1   S231.2,715.2,227.8,715.2z M227.8,685.8c-3.4,0-6.1-2.7-6.1-6.1s2.7-6.1,6.1-6.1s6.1,2.7,6.1,6.1S231.2,685.8,227.8,685.8z    M227.8,656.4c-3.4,0-6.1-2.7-6.1-6.1s2.7-6.1,6.1-6.1s6.1,2.7,6.1,6.1S231.2,656.4,227.8,656.4z M227.8,627   c-3.4,0-6.1-2.7-6.1-6.1s2.7-6.1,6.1-6.1s6.1,2.7,6.1,6.1S231.2,627,227.8,627z M227.8,597.7c-3.4,0-6.1-2.7-6.1-6.1   s2.7-6.1,6.1-6.1s6.1,2.7,6.1,6.1S231.2,597.7,227.8,597.7z M227.8,568.3c-3.4,0-6.1-2.7-6.1-6.1s2.7-6.1,6.1-6.1s6.1,2.7,6.1,6.1   S231.2,568.3,227.8,568.3z M227.8,538.9c-3.4,0-6.1-2.7-6.1-6.1s2.7-6.1,6.1-6.1s6.1,2.7,6.1,6.1S231.2,538.9,227.8,538.9z    M227.8,509.5c-3.4,0-6.1-2.7-6.1-6.1s2.7-6.1,6.1-6.1s6.1,2.7,6.1,6.1S231.2,509.5,227.8,509.5z M227.8,480.1   c-3.4,0-6.1-2.7-6.1-6.1s2.7-6.1,6.1-6.1s6.1,2.7,6.1,6.1S231.2,480.1,227.8,480.1z M227.8,450.7c-3.4,0-6.1-2.7-6.1-6.1   s2.7-6.1,6.1-6.1s6.1,2.7,6.1,6.1S231.2,450.7,227.8,450.7z M227.8,421.3c-3.4,0-6.1-2.7-6.1-6.1s2.7-6.1,6.1-6.1s6.1,2.7,6.1,6.1   S231.2,421.3,227.8,421.3z"
   id="path1" />&#10;	<path
   class="st1"
   d="M53.7,400c-11.3,0-20.5,9.2-20.5,20.5c0,11.3,9.2,20.5,20.5,20.5s20.5-9.2,20.5-20.5   C74.3,409.2,65.1,400,53.7,400z M53.7,432.6c-6.7,0-12.1-5.4-12.1-12.1c0-6.7,5.4-12.1,12.1-12.1c6.7,0,12.1,5.4,12.1,12.1   C65.8,427.2,60.4,432.6,53.7,432.6z"
   id="path2" />&#10;	<path
   class="st1"
   d="M186.3,400c-11.3,0-20.5,9.2-20.5,20.5c0,11.3,9.2,20.5,20.5,20.5c11.3,0,20.5-9.2,20.5-20.5   C206.8,409.2,197.6,400,186.3,400z M186.3,432.6c-6.7,0-12.1-5.4-12.1-12.1c0-6.7,5.4-12.1,12.1-12.1c6.7,0,12.1,5.4,12.1,12.1   C198.4,427.2,193,432.6,186.3,432.6z"
   id="path3" />&#10;	<path
   class="st1"
   d="M53.7,947.1c-11.3,0-20.5,9.2-20.5,20.5s9.2,20.5,20.5,20.5s20.5-9.2,20.5-20.5S65.1,947.1,53.7,947.1z    M53.7,979.8c-6.7,0-12.1-5.4-12.1-12.1s5.4-12.1,12.1-12.1c6.7,0,12.1,5.4,12.1,12.1S60.4,979.8,53.7,979.8z"
   id="path4" />&#10;	<path
   class="st1"
   d="M188.3,947.1c-11.3,0-20.5,9.2-20.5,20.5s9.2,20.5,20.5,20.5c11.3,0,20.5-9.2,20.5-20.5   S199.6,947.1,188.3,947.1z M188.3,979.8c-6.7,0-12.1-5.4-12.1-12.1s5.4-12.1,12.1-12.1c6.7,0,12.1,5.4,12.1,12.1   S195,979.8,188.3,979.8z"
   id="path5" />&#10;	<path
   id="circle5"
   class="st2"
   style="fill:#525035"
   d="m 65.6,485.20001 a 10.6,10.6 0 0 1 -10.6,10.6 10.6,10.6 0 0 1 -10.6,-10.6 10.6,10.6 0 0 1 10.6,-10.6 10.6,10.6 0 0 1 10.6,10.6 z" />&#10;	<path
   id="circle6"
   class="st3"
   style="fill:#fee86f"
   d="m 60.5,485.20001 a 5.5,5.5 0 0 1 -5.5,5.5 5.5,5.5 0 0 1 -5.5,-5.5 5.5,5.5 0 0 1 5.5,-5.5 5.5,5.5 0 0 1 5.5,5.5 z" />&#10;	<path
   class="st4"
   d="M17.5,465H0.3v3.4c2.3,0.9,3.9,3.1,3.9,5.7s-1.6,4.8-3.9,5.7v3.4h17.2c5,0,9-4,9-9v0   C26.5,469,22.4,465,17.5,465z M15.9,480.1c-3.4,0-6.1-2.7-6.1-6.1s2.7-6.1,6.1-6.1s6.1,2.7,6.1,6.1S19.2,480.1,15.9,480.1z"
   id="path6" />&#10;	<path
   class="st4"
   d="M17.5,612H0.3v3.4c2.3,0.9,3.9,3.1,3.9,5.7s-1.6,4.8-3.9,5.7v3.4h17.2c5,0,9-4,9-9S22.4,612,17.5,612z    M15.9,627.1c-3.4,0-6.1-2.7-6.1-6.1s2.7-6.1,6.1-6.1s6.1,2.7,6.1,6.1S19.2,627.1,15.9,627.1z"
   id="path7" />&#10;	<path
   class="st4"
   d="M17.5,758.9H0.3v3.4c2.3,0.9,3.9,3.1,3.9,5.7s-1.6,4.8-3.9,5.7v3.4h17.2c5,0,9-4,9-9S22.4,758.9,17.5,758.9z    M15.9,774.1c-3.4,0-6.1-2.7-6.1-6.1s2.7-6.1,6.1-6.1s6.1,2.7,6.1,6.1S19.2,774.1,15.9,774.1z"
   id="path8" />&#10;	<path
   class="st4"
   d="M17.5,788.3H0.3v3.4c2.3,0.9,3.9,3.1,3.9,5.7s-1.6,4.8-3.9,5.7v3.4h17.2c5,0,9-4,9-9S22.4,788.3,17.5,788.3z    M15.9,803.5c-3.4,0-6.1-2.7-6.1-6.1s2.7-6.1,6.1-6.1s6.1,2.7,6.1,6.1S19.2,803.5,15.9,803.5z"
   id="path9" />&#10;	<path
   class="st4"
   d="M17.5,817.7H0.3v3.4c2.3,0.9,3.9,3.1,3.9,5.7s-1.6,4.8-3.9,5.7v3.4h17.2c5,0,9-4,9-9S22.4,817.7,17.5,817.7z    M15.9,832.8c-3.4,0-6.1-2.7-6.1-6.1s2.7-6.1,6.1-6.1s6.1,2.7,6.1,6.1S19.2,832.8,15.9,832.8z"
   id="path10" />&#10;	<path
   class="st4"
   d="M17.5,847.1H0.3v3.4c2.3,0.9,3.9,3.1,3.9,5.7s-1.6,4.8-3.9,5.7v3.4h17.2c5,0,9-4,9-9S22.4,847.1,17.5,847.1z    M15.9,862.2c-3.4,0-6.1-2.7-6.1-6.1s2.7-6.1,6.1-6.1s6.1,2.7,6.1,6.1S19.2,862.2,15.9,862.2z"
   id="path11" />&#10;	<path
   class="st4"
   d="M17.5,905.9H0.3v3.4c2.3,0.9,3.9,3.1,3.9,5.7s-1.6,4.8-3.9,5.7v3.4h17.2c5,0,9-4,9-9v0   C26.5,910,22.4,905.9,17.5,905.9z M15.9,921c-3.4,0-6.1-2.7-6.1-6.1s2.7-6.1,6.1-6.1s6.1,2.7,6.1,6.1S19.2,921,15.9,921z"
   id="path12" />&#10;	<path
   class="st4"
   d="M17.5,935.3H0.3v3.4c2.3,0.9,3.9,3.1,3.9,5.7s-1.6,4.8-3.9,5.7v3.4h17.2c5,0,9-4,9-9v0   C26.5,939.4,22.4,935.3,17.5,935.3z M15.9,950.4c-3.4,0-6.1-2.7-6.1-6.1s2.7-6.1,6.1-6.1s6.1,2.7,6.1,6.1S19.2,950.4,15.9,950.4z"
   id="path13" />&#10;	<path
   class="st4"
   d="M17.5,964.7H0.3v3.4c2.3,0.9,3.9,3.1,3.9,5.7s-1.6,4.8-3.9,5.7v3.4h17.2c5,0,9-4,9-9S22.4,964.7,17.5,964.7z    M15.9,979.8c-3.4,0-6.1-2.7-6.1-6.1s2.7-6.1,6.1-6.1s6.1,2.7,6.1,6.1S19.2,979.8,15.9,979.8z"
   id="path14" />&#10;	<path
   class="st4"
   d="M239.5,415.2c0-2.6,1.6-4.8,3.9-5.7v-3.4h-17.2c-5,0-9,4-9,9s4,9,9,9h17.2v-3.4   C241.2,420,239.5,417.8,239.5,415.2z M227.8,421.3c-3.4,0-6.1-2.7-6.1-6.1s2.7-6.1,6.1-6.1s6.1,2.7,6.1,6.1   S231.2,421.3,227.8,421.3z"
   id="path15" />&#10;	<path
   class="st4"
   d="M239.5,444.6c0-2.6,1.6-4.8,3.9-5.7v-3.4h-17.2c-5,0-9,4-9,9v0c0,5,4,9,9,9h17.2v-3.4   C241.2,449.4,239.5,447.2,239.5,444.6z M227.8,450.7c-3.4,0-6.1-2.7-6.1-6.1s2.7-6.1,6.1-6.1s6.1,2.7,6.1,6.1   S231.2,450.7,227.8,450.7z"
   id="path16" />&#10;	<path
   class="st4"
   d="M239.5,474c0-2.6,1.6-4.8,3.9-5.7V465h-17.2c-5,0-9,4-9,9v0c0,5,4,9,9,9h17.2v-3.4   C241.2,478.8,239.5,476.6,239.5,474z M227.8,480.1c-3.4,0-6.1-2.7-6.1-6.1s2.7-6.1,6.1-6.1s6.1,2.7,6.1,6.1   S231.2,480.1,227.8,480.1z"
   id="path17" />&#10;	<path
   class="st4"
   d="M239.5,503.4c0-2.6,1.6-4.8,3.9-5.7v-3.4h-17.2c-5,0-9,4-9,9s4,9,9,9h17.2v-3.4   C241.2,508.2,239.5,506,239.5,503.4z M227.8,509.5c-3.4,0-6.1-2.7-6.1-6.1s2.7-6.1,6.1-6.1s6.1,2.7,6.1,6.1   S231.2,509.5,227.8,509.5z"
   id="path18" />&#10;	<path
   class="st4"
   d="M239.5,532.8c0-2.6,1.6-4.8,3.9-5.7v-3.4h-17.2c-5,0-9,4-9,9s4,9,9,9h17.2v-3.4   C241.2,537.6,239.5,535.4,239.5,532.8z M227.8,538.9c-3.4,0-6.1-2.7-6.1-6.1s2.7-6.1,6.1-6.1s6.1,2.7,6.1,6.1   S231.2,538.9,227.8,538.9z"
   id="path19" />&#10;	<path
   class="st4"
   d="M239.5,562.2c0-2.6,1.6-4.8,3.9-5.7v-3.4h-17.2c-5,0-9,4-9,9s4,9,9,9h17.2v-3.4   C241.2,567,239.5,564.8,239.5,562.2z M227.8,568.3c-3.4,0-6.1-2.7-6.1-6.1s2.7-6.1,6.1-6.1s6.1,2.7,6.1,6.1   S231.2,568.3,227.8,568.3z"
   id="path20" />&#10;	<path
   class="st4"
   d="M239.5,621c0-2.6,1.6-4.8,3.9-5.7V612h-17.2c-5,0-9,4-9,9s4,9,9,9h17.2v-3.4   C241.2,625.8,239.5,623.6,239.5,621z M227.8,627.1c-3.4,0-6.1-2.7-6.1-6.1s2.7-6.1,6.1-6.1s6.1,2.7,6.1,6.1   S231.2,627.1,227.8,627.1z"
   id="path21" />&#10;	<path
   class="st4"
   d="M239.5,679.8c0-2.6,1.6-4.8,3.9-5.7v-3.4h-17.2c-5,0-9,4-9,9v0c0,5,4,9,9,9h17.2v-3.4   C241.2,684.6,239.5,682.4,239.5,679.8z M227.8,685.9c-3.4,0-6.1-2.7-6.1-6.1s2.7-6.1,6.1-6.1s6.1,2.7,6.1,6.1   S231.2,685.9,227.8,685.9z"
   id="path22" />&#10;	<path
   class="st4"
   d="M239.5,709.2c0-2.6,1.6-4.8,3.9-5.7v-3.4h-17.2c-5,0-9,4-9,9v0c0,5,4,9,9,9h17.2v-3.4   C241.2,714,239.5,711.8,239.5,709.2z M227.8,715.3c-3.4,0-6.1-2.7-6.1-6.1s2.7-6.1,6.1-6.1s6.1,2.7,6.1,6.1   S231.2,715.3,227.8,715.3z"
   id="path23" />&#10;	<path
   class="st4"
   d="M239.5,738.6c0-2.6,1.6-4.8,3.9-5.7v-3.4h-17.2c-5,0-9,4-9,9s4,9,9,9h17.2v-3.4   C241.2,743.4,239.5,741.2,239.5,738.6z M227.8,744.7c-3.4,0-6.1-2.7-6.1-6.1s2.7-6.1,6.1-6.1s6.1,2.7,6.1,6.1   S231.2,744.7,227.8,744.7z"
   id="path24" />&#10;	<path
   class="st4"
   d="M239.5,768c0-2.6,1.6-4.8,3.9-5.7v-3.4h-17.2c-5,0-9,4-9,9s4,9,9,9h17.2v-3.4   C241.2,772.8,239.5,770.6,239.5,768z M227.8,774.1c-3.4,0-6.1-2.7-6.1-6.1s2.7-6.1,6.1-6.1s6.1,2.7,6.1,6.1   S231.2,774.1,227.8,774.1z"
   id="path25" />&#10;	<path
   class="st4"
   d="M239.5,797.4c0-2.6,1.6-4.8,3.9-5.7v-3.4h-17.2c-5,0-9,4-9,9s4,9,9,9h17.2V803   C241.2,802.2,239.5,799.9,239.5,797.4z M227.8,803.5c-3.4,0-6.1-2.7-6.1-6.1s2.7-6.1,6.1-6.1s6.1,2.7,6.1,6.1   S231.2,803.5,227.8,803.5z"
   id="path26" />&#10;	<path
   class="st4"
   d="M239.5,826.8c0-2.6,1.6-4.8,3.9-5.7v-3.4h-17.2c-5,0-9,4-9,9s4,9,9,9h17.2v-3.4   C241.2,831.5,239.5,829.3,239.5,826.8z M227.8,832.8c-3.4,0-6.1-2.7-6.1-6.1s2.7-6.1,6.1-6.1s6.1,2.7,6.1,6.1   S231.2,832.8,227.8,832.8z"
   id="path27" />&#10;	<path
   class="st4"
   d="M239.5,856.2c0-2.6,1.6-4.8,3.9-5.7v-3.4h-17.2c-5,0-9,4-9,9s4,9,9,9h17.2v-3.4   C241.2,860.9,239.5,858.7,239.5,856.2z M227.8,862.2c-3.4,0-6.1-2.7-6.1-6.1s2.7-6.1,6.1-6.1s6.1,2.7,6.1,6.1   S231.2,862.2,227.8,862.2z"
   id="path28" />&#10;	<path
   class="st4"
   d="M239.5,914.9c0-2.6,1.6-4.8,3.9-5.7v-3.4h-17.2c-5,0-9,4-9,9v0c0,5,4,9,9,9h17.2v-3.4   C241.2,919.7,239.5,917.5,239.5,914.9z M227.8,921c-3.4,0-6.1-2.7-6.1-6.1s2.7-6.1,6.1-6.1s6.1,2.7,6.1,6.1S231.2,921,227.8,921z"
   id="path29" />&#10;	<path
   class="st4"
   d="M239.5,944.3c0-2.6,1.6-4.8,3.9-5.7v-3.4h-17.2c-5,0-9,4-9,9v0c0,5,4,9,9,9h17.2V950   C241.2,949.1,239.5,946.9,239.5,944.3z M227.8,950.4c-3.4,0-6.1-2.7-6.1-6.1s2.7-6.1,6.1-6.1s6.1,2.7,6.1,6.1   S231.2,950.4,227.8,950.4z"
   id="path30" />&#10;	<path
   class="st5"
   d="M163.1,387.1l4.4-4.4l-2.3-2.3l-6.6,6.6h-1.5v-4.7c0-1.2-1-2.2-2.2-2.2H85.4c-1.2,0-2.2,1-2.2,2.2v4.7h-1.5   l-6.6-6.6l-2.3,2.3l4.4,4.4c-0.6,0.2-1,0.8-1,1.4v56.3c0,0.9,0.7,1.6,1.6,1.6h84.6c0.9,0,1.6-0.7,1.6-1.6v-56.3   C164,387.9,163.6,387.3,163.1,387.1z"
   id="path31" />&#10;	<g
   id="g33">&#10;		<path
   class="st6"
   d="M100.3,409.4c0-3.2-2.6-5.8-5.8-5.8s-5.8,2.6-5.8,5.8c0,1.4,0.5,2.7,1.3,3.7h-0.2v7.7c0,1.2,1,2.1,2.1,2.1H97    c1.2,0,2.1-1,2.1-2.1v-7.7H99C99.8,412.1,100.3,410.8,100.3,409.4z"
   id="path32" />&#10;		<path
   class="st6"
   d="M155.5,409.4c0-3.2-2.6-5.8-5.8-5.8s-5.8,2.6-5.8,5.8c0,1.4,0.5,2.7,1.3,3.7H145v7.7c0,1.2,1,2.1,2.1,2.1h5.1    c1.2,0,2.1-1,2.1-2.1v-7.7h-0.2C155,412.1,155.5,410.8,155.5,409.4z"
   id="path33" />&#10;	</g>&#10;	<path
   class="st7"
   d="M200.9,539.5h-21c-1.2,0-2.2-1-2.2-2.2v-26.7c0-1.2,1-2.2,2.2-2.2h21c1.2,0,2.2,1,2.2,2.2v26.7   C203,538.6,202.1,539.5,200.9,539.5z"
   id="path34" />&#10;	<g
   id="g35">&#10;		<path
   id="rect34"
   class="st8"
   style="fill:#e2eade"
   d="m 132,475.70001 h 21.7 v 14.4 H 132 Z" />&#10;		<path
   class="st9"
   d="M149.3,490.2c-2-1.8-3.2-4.4-3.2-7.2s1.2-5.4,3.2-7.2h-12.8c2,1.8,3.2,4.4,3.2,7.2s-1.2,5.4-3.2,7.2H149.3z"
   id="path35" />&#10;	</g>&#10;	<g
   id="g36">&#10;		<path
   id="rect35"
   class="st8"
   style="fill:#e2eade"
   d="M 132.3,561.09998 H 154 v 14.4 h -21.7 z" />&#10;		<path
   class="st9"
   d="M149.6,575.5c-2-1.8-3.2-4.4-3.2-7.2s1.2-5.4,3.2-7.2h-12.8c2,1.8,3.2,4.4,3.2,7.2s-1.2,5.4-3.2,7.2H149.6z"
   id="path36" />&#10;	</g>&#10;	<g
   id="g37">&#10;		<path
   id="rect36"
   class="st8"
   style="fill:#e2eade"
   d="M 132.3,580.20001 H 154 v 14.4 h -21.7 z" />&#10;		<path
   class="st9"
   d="M149.6,594.7c-2-1.8-3.2-4.4-3.2-7.2s1.2-5.4,3.2-7.2h-12.8c2,1.8,3.2,4.4,3.2,7.2s-1.2,5.4-3.2,7.2H149.6z"
   id="path37" />&#10;	</g>&#10;	<g
   id="g38">&#10;		&#10;			<path
   id="rect37"
   class="st8"
   transform="matrix(6.123234e-17 -1 1 6.123234e-17 -567.3774 700.4138)"
   style="fill:#e2eade"
   d="m 63.799999,628.59998 h 5.4 v 10.6 h -5.4 z" />&#10;		&#10;			<path
   id="rect38"
   class="st9"
   transform="matrix(6.123234e-17 -1 1 6.123234e-17 -567.3774 700.4138)"
   style="fill:#c29148"
   d="m 63.799999,630.90002 h 5.4 v 6 h -5.4 z" />&#10;	</g>&#10;	<g
   id="g40">&#10;		<path
   id="rect39"
   class="st8"
   style="fill:#e2eade"
   d="m 177.10001,611.20001 h 5.4 v 10.6 h -5.4 z" />&#10;		<path
   id="rect40"
   class="st9"
   style="fill:#c29148"
   d="m 177.10001,613.5 h 5.4 v 6 h -5.4 z" />&#10;	</g>&#10;	<path
   id="rect41"
   class="st7"
   style="fill:#474544"
   d="m 179.5,461.20001 h 18.9 v 29.3 h -18.9 z" />&#10;	<g
   id="g43">&#10;		<path
   id="rect42"
   class="st8"
   style="fill:#e2eade"
   d="m 171.60001,562.40002 h 20.6 v 9.6 h -20.6 z" />&#10;		<path
   id="rect43"
   class="st10"
   style="fill:#8dddde"
   d="m 176.2,562.40002 h 11.5 v 9.6 h -11.5 z" />&#10;	</g>&#10;	<path
   id="rect44"
   class="st9"
   style="fill:#c29148"
   d="m 120.2,730.5 h 4.2 v 6.9 h -4.2 z" />&#10;	<path
   id="rect45"
   class="st9"
   style="fill:#c29148"
   d="m 126.9,730.5 h 4.2 v 6.9 h -4.2 z" />&#10;	&#10;		<path
   id="rect46"
   class="st9"
   transform="matrix(6.123234e-17 -1 1 6.123234e-17 -575.1741 712.6567)"
   style="fill:#c29148"
   d="m 66.599998,640.5 h 4.2 v 6.9 h -4.2 z" />&#10;	&#10;		<path
   id="rect47"
   class="st9"
   transform="matrix(6.123234e-17 -1 1 6.123234e-17 -485.1093 668.4337)"
   style="fill:#c29148"
   d="m 89.5,573.29999 h 4.2 v 6.9 h -4.2 z" />&#10;	&#10;		<path
   id="rect48"
   class="st9"
   transform="matrix(6.123234e-17 -1 1 6.123234e-17 -619.1281 755.8983)"
   style="fill:#c29148"
   d="m 66.300003,684.09998 h 4.2 v 6.9 h -4.2 z" />&#10;	<path
   id="rect49"
   class="st7"
   style="fill:#474544"
   d="m 195,689.29999 h 4.2 v 6.9 H 195 Z" />&#10;	&#10;		<path
   id="rect50"
   class="st7"
   transform="matrix(6.123234e-17 -1 1 6.123234e-17 -440.1579 822.8096)"
   style="fill:#474544"
   d="m 189.2,628.09998 h 4.2 v 6.9 h -4.2 z" />&#10;	&#10;		<path
   id="rect51"
   class="st7"
   transform="matrix(6.123234e-17 -1 1 6.123234e-17 -386.4762 565.1387)"
   style="fill:#474544"
   d="m 87.199997,472.39999 h 4.2 v 6.9 h -4.2 z" />&#10;	&#10;		<path
   id="rect52"
   class="st7"
   transform="matrix(6.123234e-17 -1 1 6.123234e-17 -403.5914 572.4984)"
   style="fill:#474544"
   d="m 82.300003,484.60001 h 4.2 v 6.9 h -4.2 z" />&#10;	&#10;		<path
   id="rect53"
   class="st7"
   transform="matrix(6.123234e-17 -1 1 6.123234e-17 -385.5482 775.4625)"
   style="fill:#474544"
   d="m 192.8,577.09998 h 4.2 v 6.9 h -4.2 z" />&#10;	<path
   class="st11"
   d="M186.3,894.2H57.5c-2.1,0-3.9-1.7-3.9-3.9V782.2c0-2.1,1.7-3.9,3.9-3.9h128.8c2.1,0,3.9,1.7,3.9,3.9v108.1   C190.2,892.4,188.5,894.2,186.3,894.2z"
   id="path53" />&#10;	<path
   id="rect54"
   class="st12"
   style="fill:#c2bfab"
   d="M 101.5,940.5 H 112 v 5.9 h -10.5 z" />&#10;	<path
   id="rect55"
   class="st12"
   style="fill:#c2bfab"
   d="m 130.3,940.59998 h 10.5 v 5.9 h -10.5 z" />&#10;	<path
   id="rect56"
   class="st12"
   style="fill:#c2bfab"
   d="M 101.5,978.20001 H 112 v 5.9 h -10.5 z" />&#10;	<path
   id="rect57"
   class="st12"
   style="fill:#c2bfab"
   d="m 130.3,978.40002 h 10.5 v 5.9 h -10.5 z" />&#10;	<path
   id="polyline57"
   class="st13"
   style="fill:none;stroke:#95ac6e;stroke-miterlimit:10"
   d="m 17.5,423 v 4.4 l 17.9,18 V 494 L 51,509.5 v 134.8 l 4.9,4.9 h 35.3" />&#10;	<path
   id="polyline58"
   class="st13"
   style="fill:none;stroke:#95ac6e;stroke-miterlimit:10"
   d="m 22.9,449.8 8.1,8.1 v 37.9 l 15.7,15.7 v 135.3 l 5.9,5.9 H 91" />&#10;	<path
   id="polyline59"
   class="st13"
   style="fill:none;stroke:#95ac6e;stroke-miterlimit:10"
   d="M 23.2,508.3 43,528.1 v 121.1 l 10.4,10.5 H 95" />&#10;	<path
   id="polyline60"
   class="st13"
   style="fill:none;stroke:#95ac6e;stroke-miterlimit:10"
   d="m 23.2,537.7 16.6,16.5 v 97 l 12.1,12.1 h 43.2" />&#10;	<path
   id="polyline61"
   class="st13"
   style="fill:none;stroke:#95ac6e;stroke-miterlimit:10"
   d="m 23.2,567.9 12.4,12.3 v 76 l 13.9,13.9 h 43.9" />&#10;	<path
   id="polyline62"
   class="st13"
   style="fill:none;stroke:#95ac6e;stroke-miterlimit:10"
   d="m 22.9,596 8.7,8.7 v 54.2 l 14.8,14.7 h 49.7" />&#10;	<path
   id="polyline63"
   class="st13"
   style="fill:none;stroke:#95ac6e;stroke-miterlimit:10"
   d="m 22.9,654.6 22.4,22.5 h 57.4" />&#10;	<path
   id="line63"
   class="st13"
   style="fill:none;stroke:#95ac6e;stroke-miterlimit:10"
   d="M 23.700001,680.59998 H 98.800003" />&#10;	<path
   class="st13"
   d="M23.2,706.9c0.1-0.6,17.3-17.3,17.3-17.3H53l4.9,4.9h45.7"
   id="path63" />&#10;	<path
   id="polyline64"
   class="st13"
   style="fill:none;stroke:#95ac6e;stroke-miterlimit:10"
   d="m 20.4,732.8 5.3,-5.3 v -7.8 l 5.2,-5.1 v -8.4 l 13,-13.1 h 8.7 l 4.7,4.7 h 38" />&#10;	<path
   class="st13"
   d="M30.7,723l3.4-3.4c0,0-0.7-8.9,0-9.6c0.7-0.7,6-6,6-6l6.3-6.3h6.1l3.7,3.7h35.1"
   id="path64" />&#10;	<path
   id="polyline65"
   class="st13"
   style="fill:none;stroke:#95ac6e;stroke-miterlimit:10"
   d="m 29.1,778.9 v -47.6 l 9.6,-9.6 h 54.7 l 1.6,-1.6 v -9.7" />&#10;	<path
   id="polyline66"
   class="st13"
   style="fill:none;stroke:#95ac6e;stroke-miterlimit:10"
   d="m 17.5,877.2 v -3.6 l 15.4,-15.5 v -80.3 l 2.8,-2.7 V 733.3 L 42,727 h 52.2 l 4.2,-4.3 v -7.3" />&#10;	<path
   class="st13"
   d="M35.7,760.8"
   id="path66" />&#10;	<path
   class="st13"
   d="M35.7,776"
   id="path67" />&#10;	<path
   id="polyline67"
   class="st13"
   style="fill:none;stroke:#95ac6e;stroke-miterlimit:10"
   d="m 23.6,937.8 6.8,-6.8 v -64.6 l 7.1,-5.9" />&#10;	<path
   id="polyline68"
   class="st13"
   style="fill:none;stroke:#95ac6e;stroke-miterlimit:10"
   d="m 35.6,870.8 7,-7 v -89.7 l -2.7,-2.7 v -36.9 l 4.7,-4.6 h 50.3 l 7,-7 v -16.6" />&#10;	<path
   id="polyline69"
   class="st13"
   style="fill:none;stroke:#95ac6e;stroke-miterlimit:10"
   d="m 108.9,713 v 8.7 l -13,13.1 h -4.4" />&#10;	<path
   id="polyline70"
   class="st13"
   style="fill:none;stroke:#95ac6e;stroke-miterlimit:10"
   d="m 93.9,743.4 18.5,-18.5 v -15.4" />&#10;	<path
   id="polyline71"
   class="st13"
   style="fill:none;stroke:#95ac6e;stroke-miterlimit:10"
   d="m 115.9,714.8 v 11.7 l -13.7,13.7 v 20 l -6.3,6.3 H 65 L 55.5,757" />&#10;	<path
   id="polyline72"
   class="st13"
   style="fill:none;stroke:#95ac6e;stroke-miterlimit:10"
   d="m 133.9,753.8 4.8,-4.8 v -13.3 l -3.2,-3.1 v -10 l -3.1,-3.2 v -10.9" />&#10;	<path
   id="polyline73"
   class="st13"
   style="fill:none;stroke:#95ac6e;stroke-miterlimit:10"
   d="m 137.3,712.5 v 7.9 l 2,2 v 6.4 l 13.4,13.4 h 12.2 l 14.2,14.3" />&#10;	<path
   id="polyline74"
   class="st13"
   style="fill:none;stroke:#95ac6e;stroke-miterlimit:10"
   d="m 145.3,710.4 v 10.3 l 6,6.1 h 21 l 28.2,28.2 v 112.6 l 6.2,6.2 v 50.9 l 5.6,5.5 v 20.2 l 11,11.1 v 5.3" />&#10;	<path
   id="polyline75"
   class="st13"
   style="fill:none;stroke:#95ac6e;stroke-miterlimit:10"
   d="m 150.7,710.8 v 7.3 l 4,4 h 18.9 l 31.6,31.6 v 111.5 l 6.2,6.2 V 924 l 4.2,4.2 v 8.7" />&#10;	<path
   id="polyline76"
   class="st13"
   style="fill:none;stroke:#95ac6e;stroke-miterlimit:10"
   d="m 157.5,705.6 h 7.8 l 45.8,45.9 v 111.6 l 16.1,16.1" />&#10;	<path
   id="polyline77"
   class="st13"
   style="fill:none;stroke:#95ac6e;stroke-miterlimit:10"
   d="m 157.5,701.2 h 9.4 l 25.2,25.3" />&#10;	<path
   id="polyline78"
   class="st13"
   style="fill:none;stroke:#95ac6e;stroke-miterlimit:10"
   d="m 158.6,696.1 h 8 l 23.5,23.5 h 5.4 l 10.8,10.8 v 7" />&#10;	<path
   id="polyline79"
   class="st13"
   style="fill:none;stroke:#95ac6e;stroke-miterlimit:10"
   d="m 158.2,691.7 h 9.1 l 23.1,23 h 10.5" />&#10;	<path
   id="polyline80"
   class="st13"
   style="fill:none;stroke:#95ac6e;stroke-miterlimit:10"
   d="m 158.2,687.5 h 10.9 l 5,5" />&#10;	<path
   id="polyline81"
   class="st13"
   style="fill:none;stroke:#95ac6e;stroke-miterlimit:10"
   d="m 158.2,682.5 h 17.2 l 27.4,27.4 h 3.5 l 9.6,9.6 v 12.4" />&#10;	<path
   id="line81"
   class="st13"
   style="fill:none;stroke:#95ac6e;stroke-miterlimit:10"
   d="M 158.60001,677.09998 H 167.7" />&#10;	<path
   id="polyline82"
   class="st13"
   style="fill:none;stroke:#95ac6e;stroke-miterlimit:10"
   d="m 156.4,671.7 h 15.4 l 7.4,7.4" />&#10;	<path
   id="polyline83"
   class="st13"
   style="fill:none;stroke:#95ac6e;stroke-miterlimit:10"
   d="m 187.9,691.7 4.5,-4.6 v -19.3 h 11" />&#10;	<path
   id="polyline84"
   class="st13"
   style="fill:none;stroke:#95ac6e;stroke-miterlimit:10"
   d="m 158.6,663.3 h 50.9 l 9,9" />&#10;	<path
   id="polyline85"
   class="st13"
   style="fill:none;stroke:#95ac6e;stroke-miterlimit:10"
   d="m 158.2,658.9 h 55.6 l 6.5,-6.5" />&#10;	<path
   id="polyline86"
   class="st13"
   style="fill:none;stroke:#95ac6e;stroke-miterlimit:10"
   d="m 157.5,654.6 h 41.3 l 8.3,-8.2 v -40.3 l 12.5,-12.5" />&#10;	<path
   id="polyline87"
   class="st13"
   style="fill:none;stroke:#95ac6e;stroke-miterlimit:10"
   d="m 158.6,650.4 h 20.5 l 23.3,-23.2 v -22.9" />&#10;	<path
   id="polyline88"
   class="st13"
   style="fill:none;stroke:#95ac6e;stroke-miterlimit:10"
   d="m 159.7,645.7 h 7.5 l 4.6,-4.7" />&#10;	<path
   class="st13"
   d="M147.8,640.4c-0.2-0.3,9.2-9.2,9.2-9.2h15.6v-33.5l2.8-2.8v-7.7"
   id="path88" />&#10;	<path
   class="st13"
   d="M147,638.1c0-0.2,0-6.5,0-6.5l10.3-10.3"
   id="path89" />&#10;	<path
   id="polyline89"
   class="st13"
   style="fill:none;stroke:#95ac6e;stroke-miterlimit:10"
   d="m 140.1,639.1 v -10.8 l 7.3,-7.4" />&#10;	<path
   id="line89"
   class="st13"
   style="fill:none;stroke:#95ac6e;stroke-miterlimit:10"
   d="M 136.60001,636.09998 V 618.5" />&#10;	<path
   class="st13"
   d="M133.1,637.8c0-0.6,0-15.2,0-15.2l-4.2-4.2"
   id="path90" />&#10;	<path
   class="st13"
   d="M122.6,637.4c0-0.6,0-20.7,0-20.7"
   id="path91" />&#10;	<path
   class="st13"
   d="M119.2,639.1c0-0.3,0-11.1,0-11.1l-7.6-7.6"
   id="path92" />&#10;	<path
   id="polyline92"
   class="st13"
   style="fill:none;stroke:#95ac6e;stroke-miterlimit:10"
   d="m 115.6,638.6 v -6.3 L 101.8,618.4 V 612 l 3.2,-3.2 h 3.9 l 2.6,-2.7 v -10.5 l -5.4,-5.4 H 100" />&#10;	<path
   id="polyline93"
   class="st13"
   style="fill:none;stroke:#95ac6e;stroke-miterlimit:10"
   d="m 99.8,596 h 5.6 l 3.1,3.1 v 5.2 l -2.8,2.7 h -4.6 l -3.4,3.5 v 9 l 11,11 v 6.7" />&#10;	<path
   id="polyline94"
   class="st13"
   style="fill:none;stroke:#95ac6e;stroke-miterlimit:10"
   d="m 91.3,600.5 v 16.7 l 13.9,14 v 9.5" />&#10;	<path
   id="polyline95"
   class="st13"
   style="fill:none;stroke:#95ac6e;stroke-miterlimit:10"
   d="m 76.5,599.7 v 7.2 l 9.4,9.4 v 3.8 L 99,633.2 v 9.1" />&#10;	<path
   class="st13"
   d="M94.8,636.3c0-0.1,0-5,0-5l-11.7-11.7v-1.1l-4.5-4.5h-6.4l-1.7-1.7h-6.9l-6.7-6.7v-14.4l1.6-1.6h8.8"
   id="path95" />&#10;	<path
   id="polyline96"
   class="st13"
   style="fill:none;stroke:#95ac6e;stroke-miterlimit:10"
   d="m 69.1,583.6 h -8.7 l -5,5 v 17.8 l 8,8 h 6.1 l 6.4,6.4 h 2.5 l 14.1,14.1" />&#10;	<path
   id="line96"
   class="st13"
   style="fill:none;stroke:#95ac6e;stroke-miterlimit:10"
   d="M 73.800003,556.90002 56,574.70001" />&#10;	<path
   id="polyline97"
   class="st13"
   style="fill:none;stroke:#95ac6e;stroke-miterlimit:10"
   d="m 137.6,617.5 v -6.1 l -2.9,-2.9 v -3.1 l -4.5,-4.4 h -5 l -4.1,-4.1 V 578 L 109.7,566.5 V 484.3 L 124,470 v -9.1 l 3.7,-3.7" />&#10;	<path
   class="st13"
   d="M135.3,510.2c0-0.6,0-9,0-9l-3.1-3.1h-9.8l-4.5-4.5v-4.3"
   id="path97" />&#10;	<path
   id="polyline98"
   class="st13"
   style="fill:none;stroke:#95ac6e;stroke-miterlimit:10"
   d="m 129.3,542.6 v 5.3 l -3.2,3.2 h -5.9 l -1.6,1.6" />&#10;	<path
   id="polyline99"
   class="st13"
   style="fill:none;stroke:#95ac6e;stroke-miterlimit:10"
   d="m 62.9,455.7 v 9.4 l 16.2,16.2 h 4.5 l 4.9,4.9 v 8.2 l -4.6,4.5 v 13.5" />&#10;	<path
   id="rect99"
   class="st14"
   style="fill:#e8d28a"
   d="m 45.599998,448.5 h 18.9 v 9.6 h -18.9 z" />&#10;	<g
   id="g104">&#10;		<path
   id="rect100"
   class="st15"
   style="fill:#cecece"
   d="m 102.7,446.39999 h 4.3 v 11.5 h -4.3 z" />&#10;		<path
   id="rect101"
   class="st15"
   style="fill:#cecece"
   d="m 110.4,446.39999 h 4.3 v 11.5 h -4.3 z" />&#10;		<path
   id="rect102"
   class="st15"
   style="fill:#cecece"
   d="m 118.1,446.39999 h 4.3 v 11.5 h -4.3 z" />&#10;		<path
   id="rect103"
   class="st15"
   style="fill:#cecece"
   d="m 125.7,446.39999 h 4.3 v 11.5 h -4.3 z" />&#10;		<path
   id="rect104"
   class="st15"
   style="fill:#cecece"
   d="m 133.39999,446.39999 h 4.3 v 11.5 h -4.3 z" />&#10;	</g>&#10;	<g
   id="g106">&#10;		<path
   class="st16"
   d="M106.8,467.2v-5.5h2.5v5.8c0,2,0.6,2.7,1.7,2.7c1.2,0,1.8-0.7,1.8-2.7v-5.8h2.4v5.5c0,3.5-1.4,5.1-4.2,5.1    S106.8,470.7,106.8,467.2z"
   id="path104" />&#10;		<path
   class="st16"
   d="M116.7,470.8l1.3-1.6c0.7,0.6,1.7,1,2.6,1c0.9,0,1.4-0.4,1.4-0.9c0-0.6-0.6-0.8-1.5-1.2l-1.3-0.6    c-1.1-0.4-2.1-1.3-2.1-2.8c0-1.7,1.6-3.2,3.8-3.2c1.2,0,2.5,0.5,3.4,1.3l-1.3,1.6c-0.7-0.5-1.4-0.8-2.1-0.8    c-0.8,0-1.3,0.3-1.3,0.8c0,0.6,0.7,0.8,1.6,1.2l1.3,0.5c1.3,0.5,2.1,1.4,2.1,2.8c0,1.7-1.5,3.3-4,3.3    C119.1,472.3,117.8,471.8,116.7,470.8z"
   id="path105" />&#10;		<path
   class="st16"
   d="M126.3,461.7h3.6c2.2,0,3.9,0.6,3.9,2.6c0,0.9-0.5,1.9-1.4,2.2v0.1c1.1,0.3,1.9,1.1,1.9,2.4    c0,2.1-1.8,3.1-4.1,3.1h-3.9V461.7z M129.8,465.8c1.1,0,1.5-0.5,1.5-1.2c0-0.8-0.5-1.1-1.5-1.1h-1.1v2.2H129.8z M130,470.2    c1.2,0,1.8-0.4,1.8-1.3s-0.6-1.2-1.8-1.2h-1.2v2.5H130z"
   id="path106" />&#10;	</g>&#10;	<path
   class="st17"
   d="M170.2,543.1h-45.7c-0.5,0-1-0.4-1-1v-33.5c0-0.5,0.4-1,1-1h45.7c0.5,0,1,0.4,1,1v33.5   C171.1,542.6,170.7,543.1,170.2,543.1z"
   id="path107" />&#10;	<g
   id="g113">&#10;		<path
   id="rect107"
   class="st15"
   style="fill:#cecece"
   d="m 128.60001,503.5 h 1.4 v 4.1 h -1.4 z" />&#10;		<path
   id="rect108"
   class="st15"
   style="fill:#cecece"
   d="m 134.60001,503.5 h 1.4 v 4.1 h -1.4 z" />&#10;		<path
   id="rect109"
   class="st15"
   style="fill:#cecece"
   d="m 140.60001,503.5 h 1.4 v 4.1 h -1.4 z" />&#10;		<path
   id="rect110"
   class="st15"
   style="fill:#cecece"
   d="m 146.60001,503.5 h 1.4 v 4.1 h -1.4 z" />&#10;		<path
   id="rect111"
   class="st15"
   style="fill:#cecece"
   d="m 152.60001,503.5 h 1.4 v 4.1 h -1.4 z" />&#10;		<path
   id="rect112"
   class="st15"
   style="fill:#cecece"
   d="m 158.60001,503.5 h 1.4 v 4.1 h -1.4 z" />&#10;		<path
   id="rect113"
   class="st15"
   style="fill:#cecece"
   d="m 164.60001,503.5 h 1.4 v 4.1 h -1.4 z" />&#10;	</g>&#10;	<g
   id="g120">&#10;		<path
   id="rect114"
   class="st15"
   style="fill:#cecece"
   d="m 128.60001,543.09998 h 1.4 v 4.1 h -1.4 z" />&#10;		<path
   id="rect115"
   class="st15"
   style="fill:#cecece"
   d="m 134.60001,543.09998 h 1.4 v 4.1 h -1.4 z" />&#10;		<path
   id="rect116"
   class="st15"
   style="fill:#cecece"
   d="m 140.60001,543.09998 h 1.4 v 4.1 h -1.4 z" />&#10;		<path
   id="rect117"
   class="st15"
   style="fill:#cecece"
   d="m 146.60001,543.09998 h 1.4 v 4.1 h -1.4 z" />&#10;		<path
   id="rect118"
   class="st15"
   style="fill:#cecece"
   d="m 152.60001,543.09998 h 1.4 v 4.1 h -1.4 z" />&#10;		<path
   id="rect119"
   class="st15"
   style="fill:#cecece"
   d="m 158.60001,543.09998 h 1.4 v 4.1 h -1.4 z" />&#10;		<path
   id="rect120"
   class="st15"
   style="fill:#cecece"
   d="m 164.60001,543.09998 h 1.4 v 4.1 h -1.4 z" />&#10;	</g>&#10;	<g
   id="g125">&#10;		<path
   id="rect121"
   class="st18"
   style="fill:#868c97"
   d="M 61.400002,511.39999 H 100.7 V 560.3 H 61.400002 Z" />&#10;		<path
   class="st19"
   d="M81,554.2L81,554.2c-7.6,0-13.7-6.1-13.7-13.7v-9.1c0-7.6,6.1-13.7,13.7-13.7h0c7.6,0,13.7,6.1,13.7,13.7    v9.1C94.7,548,88.6,554.2,81,554.2z"
   id="path121" />&#10;		<path
   class="st19"
   d="M61.4,521.7L61.4,521.7l0-10.3h10.3v0C71.6,517.1,67.1,521.7,61.4,521.7z"
   id="path122" />&#10;		<path
   class="st19"
   d="M71.6,560.4H61.4v-10.3h0C67.1,550.1,71.6,554.7,71.6,560.4L71.6,560.4z"
   id="path123" />&#10;		<path
   class="st19"
   d="M100.7,521.7L100.7,521.7c-5.7,0-10.3-4.6-10.3-10.3v0h10.3V521.7z"
   id="path124" />&#10;		<path
   class="st19"
   d="M100.7,560.4H90.4l0,0c0-5.7,4.6-10.3,10.3-10.3h0V560.4z"
   id="path125" />&#10;	</g>&#10;	<g
   id="g134">&#10;		<path
   id="rect125"
   class="st17"
   style="fill:#36323e"
   d="M 64.900002,580.90002 H 99.5 v 22.9 H 64.900002 Z" />&#10;		<g
   id="g129">&#10;			<path
   id="rect126"
   class="st15"
   style="fill:#cecece"
   d="m 60.700001,582.09998 h 4.2 v 3.4 h -4.2 z" />&#10;			<path
   id="rect127"
   class="st15"
   style="fill:#cecece"
   d="m 60.700001,587.79999 h 4.2 v 3.4 h -4.2 z" />&#10;			<path
   id="rect128"
   class="st15"
   style="fill:#cecece"
   d="m 60.700001,593.59998 h 4.2 v 3.4 h -4.2 z" />&#10;			<path
   id="rect129"
   class="st15"
   style="fill:#cecece"
   d="m 60.700001,599.29999 h 4.2 v 3.4 h -4.2 z" />&#10;		</g>&#10;		<g
   id="g133">&#10;			<path
   id="rect130"
   class="st15"
   style="fill:#cecece"
   d="m 99.5,582.09998 h 4.2 v 3.4 h -4.2 z" />&#10;			<path
   id="rect131"
   class="st15"
   style="fill:#cecece"
   d="m 99.5,587.79999 h 4.2 v 3.4 h -4.2 z" />&#10;			<path
   id="rect132"
   class="st15"
   style="fill:#cecece"
   d="m 99.5,593.59998 h 4.2 v 3.4 h -4.2 z" />&#10;			<path
   id="rect133"
   class="st15"
   style="fill:#cecece"
   d="m 99.5,599.29999 h 4.2 v 3.4 h -4.2 z" />&#10;		</g>&#10;	</g>&#10;	<path
   id="rect134"
   class="st7"
   style="fill:#474544"
   d="m 135.5,612.40002 h 4.2 v 6.9 h -4.2 z" />&#10;	<g
   id="g215">&#10;		<path
   class="st20"
   d="M160.4,716.2H81.4c-0.7,0-1.3-0.6-1.3-1.3v-79.1c0-0.7,0.6-1.3,1.3-1.3h79.1c0.7,0,1.3,0.6,1.3,1.3v79.1    C161.7,715.6,161.1,716.2,160.4,716.2z"
   id="path134" />&#10;		<g
   id="g154">&#10;			<path
   id="rect135"
   class="st15"
   style="fill:#cecece"
   d="m 86.199997,632.59998 h 3.1 v 1.9 h -3.1 z" />&#10;			<path
   id="rect136"
   class="st15"
   style="fill:#cecece"
   d="m 89.699997,632.59998 h 3.1 v 1.9 h -3.1 z" />&#10;			<path
   id="rect137"
   class="st15"
   style="fill:#cecece"
   d="m 93.199997,632.59998 h 3.1 v 1.9 h -3.1 z" />&#10;			<path
   id="rect138"
   class="st15"
   style="fill:#cecece"
   d="m 96.699997,632.59998 h 3.1 v 1.9 h -3.1 z" />&#10;			<path
   id="rect139"
   class="st15"
   style="fill:#cecece"
   d="m 100.2,632.59998 h 3.1 v 1.9 h -3.1 z" />&#10;			<path
   id="rect140"
   class="st15"
   style="fill:#cecece"
   d="m 103.6,632.59998 h 3.1 v 1.9 h -3.1 z" />&#10;			<path
   id="rect141"
   class="st15"
   style="fill:#cecece"
   d="m 107.1,632.59998 h 3.1 v 1.9 h -3.1 z" />&#10;			<path
   id="rect142"
   class="st15"
   style="fill:#cecece"
   d="m 114.1,632.59998 h 3.1 v 1.9 h -3.1 z" />&#10;			<path
   id="rect143"
   class="st15"
   style="fill:#cecece"
   d="m 121.1,632.59998 h 3.1 v 1.9 h -3.1 z" />&#10;			<path
   id="rect144"
   class="st15"
   style="fill:#cecece"
   d="m 128,632.59998 h 3.1 v 1.9 H 128 Z" />&#10;			<path
   id="rect145"
   class="st15"
   style="fill:#cecece"
   d="m 138.5,632.59998 h 3.1 v 1.9 h -3.1 z" />&#10;			<path
   id="rect146"
   class="st15"
   style="fill:#cecece"
   d="m 142,632.59998 h 3.1 v 1.9 H 142 Z" />&#10;			<path
   id="rect147"
   class="st15"
   style="fill:#cecece"
   d="m 149,632.59998 h 3.1 v 1.9 H 149 Z" />&#10;			<path
   id="rect148"
   class="st15"
   style="fill:#cecece"
   d="m 110.6,632.59998 h 3.1 v 1.9 h -3.1 z" />&#10;			<path
   id="rect149"
   class="st15"
   style="fill:#cecece"
   d="m 117.6,632.59998 h 3.1 v 1.9 h -3.1 z" />&#10;			<path
   id="rect150"
   class="st15"
   style="fill:#cecece"
   d="m 124.6,632.59998 h 3.1 v 1.9 h -3.1 z" />&#10;			<path
   id="rect151"
   class="st15"
   style="fill:#cecece"
   d="m 131.5,632.59998 h 3.1 v 1.9 h -3.1 z" />&#10;			<path
   id="rect152"
   class="st15"
   style="fill:#cecece"
   d="m 135,632.59998 h 3.1 v 1.9 H 135 Z" />&#10;			<path
   id="rect153"
   class="st15"
   style="fill:#cecece"
   d="m 145.5,632.59998 h 3.1 v 1.9 h -3.1 z" />&#10;			<path
   id="rect154"
   class="st15"
   style="fill:#cecece"
   d="m 152.39999,632.59998 h 3.1 v 1.9 h -3.1 z" />&#10;		</g>&#10;		<g
   id="g174">&#10;			<path
   id="rect155"
   class="st15"
   style="fill:#cecece"
   d="m 86.400002,716.20001 h 3.099999 v 1.9 h -3.099999 z" />&#10;			<path
   id="rect156"
   class="st15"
   style="fill:#cecece"
   d="m 89.900002,716.20001 h 3.099999 v 1.9 h -3.099999 z" />&#10;			<path
   id="rect157"
   class="st15"
   style="fill:#cecece"
   d="m 93.400002,716.20001 h 3.099999 v 1.9 h -3.099999 z" />&#10;			<path
   id="rect158"
   class="st15"
   style="fill:#cecece"
   d="M 96.900002,716.20001 H 100 v 1.9 h -3.099998 z" />&#10;			<path
   id="rect159"
   class="st15"
   style="fill:#cecece"
   d="m 100.4,716.20001 h 3.1 v 1.9 h -3.1 z" />&#10;			<path
   id="rect160"
   class="st15"
   style="fill:#cecece"
   d="m 103.8,716.20001 h 3.1 v 1.9 h -3.1 z" />&#10;			<path
   id="rect161"
   class="st15"
   style="fill:#cecece"
   d="m 107.3,716.20001 h 3.1 v 1.9 h -3.1 z" />&#10;			<path
   id="rect162"
   class="st15"
   style="fill:#cecece"
   d="m 114.3,716.20001 h 3.1 v 1.9 h -3.1 z" />&#10;			<path
   id="rect163"
   class="st15"
   style="fill:#cecece"
   d="m 121.3,716.20001 h 3.1 v 1.9 h -3.1 z" />&#10;			<path
   id="rect164"
   class="st15"
   style="fill:#cecece"
   d="m 128.2,716.20001 h 3.1 v 1.9 h -3.1 z" />&#10;			<path
   id="rect165"
   class="st15"
   style="fill:#cecece"
   d="m 138.7,716.20001 h 3.1 v 1.9 h -3.1 z" />&#10;			<path
   id="rect166"
   class="st15"
   style="fill:#cecece"
   d="m 142.2,716.20001 h 3.1 v 1.9 h -3.1 z" />&#10;			<path
   id="rect167"
   class="st15"
   style="fill:#cecece"
   d="m 149.10001,716.20001 h 3.1 v 1.9 h -3.1 z" />&#10;			<path
   id="rect168"
   class="st15"
   style="fill:#cecece"
   d="m 110.8,716.20001 h 3.1 v 1.9 h -3.1 z" />&#10;			<path
   id="rect169"
   class="st15"
   style="fill:#cecece"
   d="m 117.8,716.20001 h 3.1 v 1.9 h -3.1 z" />&#10;			<path
   id="rect170"
   class="st15"
   style="fill:#cecece"
   d="m 124.7,716.20001 h 3.1 v 1.9 h -3.1 z" />&#10;			<path
   id="rect171"
   class="st15"
   style="fill:#cecece"
   d="m 131.7,716.20001 h 3.1 v 1.9 h -3.1 z" />&#10;			<path
   id="rect172"
   class="st15"
   style="fill:#cecece"
   d="m 135.2,716.20001 h 3.1 v 1.9 h -3.1 z" />&#10;			<path
   id="rect173"
   class="st15"
   style="fill:#cecece"
   d="m 145.7,716.20001 h 3.1 v 1.9 h -3.1 z" />&#10;			<path
   id="rect174"
   class="st15"
   style="fill:#cecece"
   d="m 152.60001,716.20001 h 3.1 v 1.9 h -3.1 z" />&#10;		</g>&#10;		<g
   id="g194">&#10;			&#10;				<path
   id="rect175"
   class="st15"
   transform="matrix(6.123234e-17 -1 1 6.123234e-17 -629.3888 787.5693)"
   style="fill:#cecece"
   d="m 77.5,707.5 h 3.1 v 1.9 h -3.1 z" />&#10;			&#10;				<path
   id="rect176"
   class="st15"
   transform="matrix(6.123234e-17 -1 1 6.123234e-17 -625.9037 784.0843)"
   style="fill:#cecece"
   d="m 77.5,704 h 3.1 v 1.9 h -3.1 z" />&#10;			&#10;				<path
   id="rect177"
   class="st15"
   transform="matrix(6.123234e-17 -1 1 6.123234e-17 -622.4187 780.5992)"
   style="fill:#cecece"
   d="m 77.5,700.5 h 3.1 v 1.9 h -3.1 z" />&#10;			&#10;				<path
   id="rect178"
   class="st15"
   transform="matrix(6.123234e-17 -1 1 6.123234e-17 -618.9337 777.1142)"
   style="fill:#cecece"
   d="m 77.5,697.09998 h 3.1 v 1.9 h -3.1 z" />&#10;			&#10;				<path
   id="rect179"
   class="st15"
   transform="matrix(6.123234e-17 -1 1 6.123234e-17 -615.4486 773.6292)"
   style="fill:#cecece"
   d="m 77.5,693.59998 h 3.1 v 1.9 h -3.1 z" />&#10;			&#10;				<path
   id="rect180"
   class="st15"
   transform="matrix(6.123234e-17 -1 1 6.123234e-17 -611.9636 770.1441)"
   style="fill:#cecece"
   d="m 77.5,690.09998 h 3.1 v 1.9 h -3.1 z" />&#10;			&#10;				<path
   id="rect181"
   class="st15"
   transform="matrix(6.123234e-17 -1 1 6.123234e-17 -608.4785 766.6591)"
   style="fill:#cecece"
   d="m 77.5,686.59998 h 3.1 v 1.9 h -3.1 z" />&#10;			&#10;				<path
   id="rect182"
   class="st15"
   transform="matrix(6.123234e-17 -1 1 6.123234e-17 -601.5084 759.689)"
   style="fill:#cecece"
   d="m 77.5,679.59998 h 3.1 v 1.9 h -3.1 z" />&#10;			&#10;				<path
   id="rect183"
   class="st15"
   transform="matrix(6.123234e-17 -1 1 6.123234e-17 -594.5383 752.7189)"
   style="fill:#cecece"
   d="m 77.5,672.70001 h 3.1 v 1.9 h -3.1 z" />&#10;			&#10;				<path
   id="rect184"
   class="st15"
   transform="matrix(6.123234e-17 -1 1 6.123234e-17 -587.5682 745.7488)"
   style="fill:#cecece"
   d="m 77.5,665.70001 h 3.1 v 1.9 h -3.1 z" />&#10;			&#10;				<path
   id="rect185"
   class="st15"
   transform="matrix(6.123234e-17 -1 1 6.123234e-17 -577.1132 735.2936)"
   style="fill:#cecece"
   d="m 77.5,655.20001 h 3.1 v 1.9 h -3.1 z" />&#10;			&#10;				<path
   id="rect186"
   class="st15"
   transform="matrix(6.123234e-17 -1 1 6.123234e-17 -573.6281 731.8086)"
   style="fill:#cecece"
   d="m 77.5,651.79999 h 3.1 v 1.9 h -3.1 z" />&#10;			&#10;				<path
   id="rect187"
   class="st15"
   transform="matrix(6.123234e-17 -1 1 6.123234e-17 -566.658 724.8385)"
   style="fill:#cecece"
   d="m 77.5,644.79999 h 3.1 v 1.9 h -3.1 z" />&#10;			&#10;				<path
   id="rect188"
   class="st15"
   transform="matrix(6.123234e-17 -1 1 6.123234e-17 -604.9935 763.174)"
   style="fill:#cecece"
   d="m 77.5,683.09998 h 3.1 v 1.9 h -3.1 z" />&#10;			&#10;				<path
   id="rect189"
   class="st15"
   transform="matrix(6.123234e-17 -1 1 6.123234e-17 -598.0234 756.2039)"
   style="fill:#cecece"
   d="m 77.5,676.20001 h 3.1 v 1.9 h -3.1 z" />&#10;			&#10;				<path
   id="rect190"
   class="st15"
   transform="matrix(6.123234e-17 -1 1 6.123234e-17 -591.0533 749.2338)"
   style="fill:#cecece"
   d="m 77.5,669.20001 h 3.1 v 1.9 h -3.1 z" />&#10;			&#10;				<path
   id="rect191"
   class="st15"
   transform="matrix(6.123234e-17 -1 1 6.123234e-17 -584.0833 742.2637)"
   style="fill:#cecece"
   d="m 77.5,662.20001 h 3.1 v 1.9 h -3.1 z" />&#10;			&#10;				<path
   id="rect192"
   class="st15"
   transform="matrix(6.123234e-17 -1 1 6.123234e-17 -580.5982 738.7787)"
   style="fill:#cecece"
   d="m 77.5,658.70001 h 3.1 v 1.9 h -3.1 z" />&#10;			&#10;				<path
   id="rect193"
   class="st15"
   transform="matrix(6.123234e-17 -1 1 6.123234e-17 -570.1431 728.3235)"
   style="fill:#cecece"
   d="m 77.5,648.29999 h 3.1 v 1.9 h -3.1 z" />&#10;			&#10;				<path
   id="rect194"
   class="st15"
   transform="matrix(6.123234e-17 -1 1 6.123234e-17 -563.173 721.3535)"
   style="fill:#cecece"
   d="m 77.5,641.29999 h 3.1 v 1.9 h -3.1 z" />&#10;		</g>&#10;		<g
   id="g214">&#10;			&#10;				<path
   id="rect195"
   class="st15"
   transform="matrix(6.123234e-17 -1 1 6.123234e-17 -545.7989 871.1592)"
   style="fill:#cecece"
   d="m 161.10001,707.5 h 3.1 v 1.9 h -3.1 z" />&#10;			&#10;				<path
   id="rect196"
   class="st15"
   transform="matrix(6.123234e-17 -1 1 6.123234e-17 -542.3138 867.6742)"
   style="fill:#cecece"
   d="m 161.10001,704 h 3.1 v 1.9 h -3.1 z" />&#10;			&#10;				<path
   id="rect197"
   class="st15"
   transform="matrix(6.123234e-17 -1 1 6.123234e-17 -538.8288 864.1891)"
   style="fill:#cecece"
   d="m 161.10001,700.5 h 3.1 v 1.9 h -3.1 z" />&#10;			&#10;				<path
   id="rect198"
   class="st15"
   transform="matrix(6.123234e-17 -1 1 6.123234e-17 -535.3438 860.7041)"
   style="fill:#cecece"
   d="m 161.10001,697.09998 h 3.1 v 1.9 h -3.1 z" />&#10;			&#10;				<path
   id="rect199"
   class="st15"
   transform="matrix(6.123234e-17 -1 1 6.123234e-17 -531.8587 857.2191)"
   style="fill:#cecece"
   d="m 161.10001,693.59998 h 3.1 v 1.9 h -3.1 z" />&#10;			&#10;				<path
   id="rect200"
   class="st15"
   transform="matrix(6.123234e-17 -1 1 6.123234e-17 -528.3737 853.734)"
   style="fill:#cecece"
   d="m 161.10001,690.09998 h 3.1 v 1.9 h -3.1 z" />&#10;			&#10;				<path
   id="rect201"
   class="st15"
   transform="matrix(6.123234e-17 -1 1 6.123234e-17 -524.8886 850.249)"
   style="fill:#cecece"
   d="m 161.10001,686.59998 h 3.1 v 1.9 h -3.1 z" />&#10;			&#10;				<path
   id="rect202"
   class="st15"
   transform="matrix(6.123234e-17 -1 1 6.123234e-17 -517.9185 843.2789)"
   style="fill:#cecece"
   d="m 161.10001,679.59998 h 3.1 v 1.9 h -3.1 z" />&#10;			&#10;				<path
   id="rect203"
   class="st15"
   transform="matrix(6.123234e-17 -1 1 6.123234e-17 -510.9484 836.3088)"
   style="fill:#cecece"
   d="m 161.10001,672.70001 h 3.1 v 1.9 h -3.1 z" />&#10;			&#10;				<path
   id="rect204"
   class="st15"
   transform="matrix(6.123234e-17 -1 1 6.123234e-17 -503.9783 829.3387)"
   style="fill:#cecece"
   d="m 161.10001,665.70001 h 3.1 v 1.9 h -3.1 z" />&#10;			&#10;				<path
   id="rect205"
   class="st15"
   transform="matrix(6.123234e-17 -1 1 6.123234e-17 -493.5232 818.8836)"
   style="fill:#cecece"
   d="m 161.10001,655.20001 h 3.1 v 1.9 h -3.1 z" />&#10;			&#10;				<path
   id="rect206"
   class="st15"
   transform="matrix(6.123234e-17 -1 1 6.123234e-17 -490.0382 815.3986)"
   style="fill:#cecece"
   d="m 161.10001,651.79999 h 3.1 v 1.9 h -3.1 z" />&#10;			&#10;				<path
   id="rect207"
   class="st15"
   transform="matrix(6.123234e-17 -1 1 6.123234e-17 -483.0681 808.4285)"
   style="fill:#cecece"
   d="m 161.10001,644.79999 h 3.1 v 1.9 h -3.1 z" />&#10;			&#10;				<path
   id="rect208"
   class="st15"
   transform="matrix(6.123234e-17 -1 1 6.123234e-17 -521.4036 846.7639)"
   style="fill:#cecece"
   d="m 161.10001,683.09998 h 3.1 v 1.9 h -3.1 z" />&#10;			&#10;				<path
   id="rect209"
   class="st15"
   transform="matrix(6.123234e-17 -1 1 6.123234e-17 -514.4335 839.7938)"
   style="fill:#cecece"
   d="m 161.10001,676.20001 h 3.1 v 1.9 h -3.1 z" />&#10;			&#10;				<path
   id="rect210"
   class="st15"
   transform="matrix(6.123234e-17 -1 1 6.123234e-17 -507.4634 832.8238)"
   style="fill:#cecece"
   d="m 161.10001,669.20001 h 3.1 v 1.9 h -3.1 z" />&#10;			&#10;				<path
   id="rect211"
   class="st15"
   transform="matrix(6.123234e-17 -1 1 6.123234e-17 -500.4933 825.8537)"
   style="fill:#cecece"
   d="m 161.10001,662.20001 h 3.1 v 1.9 h -3.1 z" />&#10;			&#10;				<path
   id="rect212"
   class="st15"
   transform="matrix(6.123234e-17 -1 1 6.123234e-17 -497.0082 822.3687)"
   style="fill:#cecece"
   d="m 161.10001,658.70001 h 3.1 v 1.9 h -3.1 z" />&#10;			&#10;				<path
   id="rect213"
   class="st15"
   transform="matrix(6.123234e-17 -1 1 6.123234e-17 -486.5531 811.9135)"
   style="fill:#cecece"
   d="m 161.10001,648.29999 h 3.1 v 1.9 h -3.1 z" />&#10;			&#10;				<path
   id="rect214"
   class="st15"
   transform="matrix(6.123234e-17 -1 1 6.123234e-17 -479.583 804.9434)"
   style="fill:#cecece"
   d="m 161.10001,641.29999 h 3.1 v 1.9 h -3.1 z" />&#10;		</g>&#10;		<path
   id="circle214"
   class="st21"
   style="fill:#b9a68f"
   d="m 92.999997,645.70001 a 2.8,2.8 0 0 1 -2.8,2.8 2.8,2.8 0 0 1 -2.8,-2.8 2.8,2.8 0 0 1 2.8,-2.8 2.8,2.8 0 0 1 2.8,2.8 z" />&#10;	</g>&#10;	<path
   id="rect215"
   class="st17"
   style="fill:#36323e"
   d="m 187.10001,600.40002 h 18.2 v 8.6 h -18.2 z" />&#10;	<path
   id="rect216"
   class="st15"
   style="fill:#cecece"
   d="m 189.10001,609 h 2.9 v 8.7 h -2.9 z" />&#10;	<path
   id="rect217"
   class="st15"
   style="fill:#cecece"
   d="m 200.89999,609 h 2.9 v 8.7 h -2.9 z" />&#10;	<path
   id="rect218"
   class="st15"
   style="fill:#cecece"
   d="m 194.8,591.70001 h 2.9 v 8.7 h -2.9 z" />&#10;	&#10;		<path
   id="rect219"
   class="st9"
   transform="matrix(6.123234e-17 -1 1 6.123234e-17 -469.246 814.4409)"
   style="fill:#c29148"
   d="m 170.5,638.40002 h 4.2 v 6.9 h -4.2 z" />&#10;	<path
   id="rect220"
   class="st7"
   style="fill:#474544"
   d="m 189.5,669.5 h 4.2 v 6.9 h -4.2 z" />&#10;	&#10;		<path
   id="rect221"
   class="st9"
   transform="matrix(0.7071 -0.7071 0.7071 0.7071 -438.3423 326.0894)"
   style="fill:#c29148"
   d="m 172.3,688.70001 h 4.2 v 6.9 h -4.2 z" />&#10;	<g
   id="g223">&#10;		<path
   class="st4"
   d="M157,750.9c-5.1,0-9.2,4.1-9.2,9.2s4.1,9.2,9.2,9.2s9.2-4.1,9.2-9.2S162.1,750.9,157,750.9z M157,765.8    c-3.1,0-5.7-2.6-5.7-5.7s2.6-5.7,5.7-5.7c3.1,0,5.7,2.6,5.7,5.7S160.2,765.8,157,765.8z"
   id="path221" />&#10;		<path
   class="st4"
   d="M118.7,751.3V769h17.7v-17.7H118.7z M127.6,765.8c-3.1,0-5.7-2.6-5.7-5.7s2.6-5.7,5.7-5.7    c3.1,0,5.7,2.6,5.7,5.7S130.7,765.8,127.6,765.8z"
   id="path222" />&#10;		<path
   class="st4"
   d="M186.8,750.9c-5.1,0-9.2,4.1-9.2,9.2s4.1,9.2,9.2,9.2s9.2-4.1,9.2-9.2S191.9,750.9,186.8,750.9z M186.8,765.8    c-3.1,0-5.7-2.6-5.7-5.7s2.6-5.7,5.7-5.7c3.1,0,5.7,2.6,5.7,5.7S190,765.8,186.8,765.8z"
   id="path223" />&#10;	</g>&#10;	<path
   class="st4"
   d="M17.5,729.6H0.3v3.4c2.3,0.9,3.9,3.1,3.9,5.7s-1.6,4.8-3.9,5.7v3.4h17.2c5,0,9-4,9-9S22.4,729.6,17.5,729.6z    M15.9,744.7c-3.4,0-6.1-2.7-6.1-6.1s2.7-6.1,6.1-6.1s6.1,2.7,6.1,6.1S19.2,744.7,15.9,744.7z"
   id="path224" />&#10;	<path
   class="st4"
   d="M17.5,700.2H0.3v3.4c2.3,0.9,3.9,3.1,3.9,5.7s-1.6,4.8-3.9,5.7v3.4h17.2c5,0,9-4,9-9v0   C26.5,704.2,22.4,700.2,17.5,700.2z M15.9,715.3c-3.4,0-6.1-2.7-6.1-6.1s2.7-6.1,6.1-6.1s6.1,2.7,6.1,6.1S19.2,715.3,15.9,715.3z"
   id="path225" />&#10;	<path
   class="st4"
   d="M17.5,670.8H0.3v3.4c2.3,0.9,3.9,3.1,3.9,5.7s-1.6,4.8-3.9,5.7v3.4h17.2c5,0,9-4,9-9v0   C26.5,674.8,22.4,670.8,17.5,670.8z M15.9,685.9c-3.4,0-6.1-2.7-6.1-6.1s2.7-6.1,6.1-6.1s6.1,2.7,6.1,6.1S19.2,685.9,15.9,685.9z"
   id="path226" />&#10;	<path
   class="st4"
   d="M17.5,641.4H0.3v3.4c2.3,0.9,3.9,3.1,3.9,5.7s-1.6,4.8-3.9,5.7v3.4h17.2c5,0,9-4,9-9S22.4,641.4,17.5,641.4z    M15.9,656.5c-3.4,0-6.1-2.7-6.1-6.1s2.7-6.1,6.1-6.1s6.1,2.7,6.1,6.1S19.2,656.5,15.9,656.5z"
   id="path227" />&#10;	<path
   class="st4"
   d="M17.5,582.6H0.3v3.4c2.3,0.9,3.9,3.1,3.9,5.7s-1.6,4.8-3.9,5.7v3.4h17.2c5,0,9-4,9-9S22.4,582.6,17.5,582.6z    M15.9,597.7c-3.4,0-6.1-2.7-6.1-6.1s2.7-6.1,6.1-6.1s6.1,2.7,6.1,6.1S19.2,597.7,15.9,597.7z"
   id="path228" />&#10;	<path
   class="st4"
   d="M17.5,553.2H0.3v3.4c2.3,0.9,3.9,3.1,3.9,5.7s-1.6,4.8-3.9,5.7v3.4h17.2c5,0,9-4,9-9S22.4,553.2,17.5,553.2z    M15.9,568.3c-3.4,0-6.1-2.7-6.1-6.1s2.7-6.1,6.1-6.1s6.1,2.7,6.1,6.1S19.2,568.3,15.9,568.3z"
   id="path229" />&#10;	<path
   class="st4"
   d="M17.5,523.8H0.3v3.4c2.3,0.9,3.9,3.1,3.9,5.7s-1.6,4.8-3.9,5.7v3.4h17.2c5,0,9-4,9-9S22.4,523.8,17.5,523.8z    M15.9,538.9c-3.4,0-6.1-2.7-6.1-6.1s2.7-6.1,6.1-6.1s6.1,2.7,6.1,6.1S19.2,538.9,15.9,538.9z"
   id="path230" />&#10;	<path
   class="st4"
   d="M17.5,494.4H0.3v3.4c2.3,0.9,3.9,3.1,3.9,5.7s-1.6,4.8-3.9,5.7v3.4h17.2c5,0,9-4,9-9S22.4,494.4,17.5,494.4z    M15.9,509.5c-3.4,0-6.1-2.7-6.1-6.1s2.7-6.1,6.1-6.1s6.1,2.7,6.1,6.1S19.2,509.5,15.9,509.5z"
   id="path231" />&#10;	<path
   class="st4"
   d="M17.5,435.6H0.3v3.4c2.3,0.9,3.9,3.1,3.9,5.7s-1.6,4.8-3.9,5.7v3.4h17.2c5,0,9-4,9-9v0   C26.5,439.6,22.4,435.6,17.5,435.6z M15.9,450.7c-3.4,0-6.1-2.7-6.1-6.1s2.7-6.1,6.1-6.1s6.1,2.7,6.1,6.1S19.2,450.7,15.9,450.7z"
   id="path232" />&#10;	<path
   class="st4"
   d="M17.5,406.2H0.3v3.4c2.3,0.9,3.9,3.1,3.9,5.7s-1.6,4.8-3.9,5.7v3.4h17.2c5,0,9-4,9-9S22.4,406.2,17.5,406.2z    M15.9,421.3c-3.4,0-6.1-2.7-6.1-6.1s2.7-6.1,6.1-6.1s6.1,2.7,6.1,6.1S19.2,421.3,15.9,421.3z"
   id="path233" />&#10;	<path
   class="st4"
   d="M17.5,876.5H0.3v3.4c2.3,0.9,3.9,3.1,3.9,5.7s-1.6,4.8-3.9,5.7v3.4h17.2c5,0,9-4,9-9S22.4,876.5,17.5,876.5z    M15.9,891.6c-3.4,0-6.1-2.7-6.1-6.1s2.7-6.1,6.1-6.1s6.1,2.7,6.1,6.1S19.2,891.6,15.9,891.6z"
   id="path234" />&#10;	<path
   class="st4"
   d="M239.5,973.7c0-2.6,1.6-4.8,3.9-5.7v-3.4h-17.2c-5,0-9,4-9,9s4,9,9,9h17.2v-3.4   C241.2,978.5,239.5,976.3,239.5,973.7z M227.8,979.8c-3.4,0-6.1-2.7-6.1-6.1s2.7-6.1,6.1-6.1s6.1,2.7,6.1,6.1   S231.2,979.8,227.8,979.8z"
   id="path235" />&#10;	<path
   class="st4"
   d="M239.5,885.6c0-2.6,1.6-4.8,3.9-5.7v-3.4h-17.2c-5,0-9,4-9,9s4,9,9,9h17.2v-3.4   C241.2,890.3,239.5,888.1,239.5,885.6z M227.8,891.6c-3.4,0-6.1-2.7-6.1-6.1s2.7-6.1,6.1-6.1s6.1,2.7,6.1,6.1   S231.2,891.6,227.8,891.6z"
   id="path236" />&#10;	<path
   class="st4"
   d="M239.5,650.4c0-2.6,1.6-4.8,3.9-5.7v-3.4h-17.2c-5,0-9,4-9,9s4,9,9,9h17.2v-3.4   C241.2,655.2,239.5,653,239.5,650.4z M227.8,656.5c-3.4,0-6.1-2.7-6.1-6.1s2.7-6.1,6.1-6.1s6.1,2.7,6.1,6.1   S231.2,656.5,227.8,656.5z"
   id="path237" />&#10;	&#10;		<path
   id="rect237"
   class="st12"
   transform="matrix(6.123234e-17 -1 1 6.123234e-17 -653.0296 839.613)"
   style="fill:#c2bfab"
   d="m 90,744.5 h 6.7 v 3.7 H 90 Z" />&#10;	<g
   id="g239">&#10;		<path
   class="st22"
   d="M82.2,763.8H50.4c-1.2,0-2.2-1-2.2-2.2v-23.7c0-1.2,1-2.2,2.2-2.2h31.8c1.2,0,2.2,1,2.2,2.2v23.7    C84.4,762.8,83.4,763.8,82.2,763.8z"
   id="path238" />&#10;		<path
   class="st23"
   d="M79.9,761.3H52.6c-0.8,0-1.4-0.6-1.4-1.4v-20.4c0-0.8,0.6-1.4,1.4-1.4h27.3c0.8,0,1.4,0.6,1.4,1.4v20.4    C81.3,760.7,80.7,761.3,79.9,761.3z"
   id="path239" />&#10;	</g>&#10;	&#10;		<path
   id="rect239"
   class="st12"
   transform="matrix(6.123234e-17 -1 1 6.123234e-17 -672.964 859.5474)"
   style="fill:#c2bfab"
   d="m 90,764.40002 h 6.7 v 3.7 H 90 Z" />&#10;	<path
   id="rect240"
   class="st7"
   style="fill:#474544"
   d="m 100.1,748.59998 h 4.2 v 6.9 h -4.2 z" />&#10;	<g
   id="g246">&#10;		<path
   class="st16"
   d="M42.3,568.7v-3.6c0-2.2,0.6-3.9,2.6-3.9c0.9,0,1.9,0.5,2.2,1.4h0.1c0.3-1.1,1.1-1.9,2.4-1.9    c2.1,0,3.1,1.8,3.1,4.1v3.9H42.3z M46.4,565.2c0-1.1-0.5-1.5-1.2-1.5c-0.8,0-1.1,0.5-1.1,1.5v1.1h2.2V565.2z M50.8,565    c0-1.2-0.4-1.8-1.3-1.8s-1.2,0.6-1.2,1.8v1.2h2.5V565z"
   id="path240" />&#10;		<path
   class="st16"
   d="M47.4,559.5c-3.4,0-5.4-1.9-5.4-4.8s2-4.8,5.4-4.8c3.4,0,5.4,1.9,5.4,4.8S50.8,559.5,47.4,559.5z     M47.4,552.5c-2,0-3.2,0.8-3.2,2.2c0,1.4,1.2,2.2,3.2,2.2c2,0,3.3-0.9,3.3-2.2C50.7,553.4,49.4,552.5,47.4,552.5z"
   id="path241" />&#10;		<path
   class="st16"
   d="M47.4,548.5c-3.4,0-5.4-1.9-5.4-4.8s2-4.8,5.4-4.8c3.4,0,5.4,1.9,5.4,4.8S50.8,548.5,47.4,548.5z     M47.4,541.5c-2,0-3.2,0.8-3.2,2.2c0,1.4,1.2,2.2,3.2,2.2c2,0,3.3-0.9,3.3-2.2C50.7,542.4,49.4,541.5,47.4,541.5z"
   id="path242" />&#10;		<path
   class="st16"
   d="M44.3,535.5v2.8h-2.1v-8.1h2.1v2.8h8.3v2.5H44.3z"
   id="path243" />&#10;		<path
   class="st16"
   d="M51.3,529.6l-1.6-1.3c0.6-0.7,1-1.7,1-2.6c0-0.9-0.4-1.4-0.9-1.4c-0.6,0-0.8,0.6-1.2,1.5l-0.6,1.3    c-0.4,1.1-1.3,2.1-2.8,2.1c-1.7,0-3.2-1.6-3.2-3.8c0-1.2,0.5-2.5,1.3-3.4l1.6,1.3c-0.5,0.7-0.8,1.4-0.8,2.1c0,0.8,0.3,1.3,0.8,1.3    c0.6,0,0.8-0.7,1.2-1.6l0.5-1.3c0.5-1.3,1.4-2.1,2.8-2.1c1.7,0,3.3,1.5,3.3,4C52.9,527.1,52.4,528.5,51.3,529.6z"
   id="path244" />&#10;		<path
   class="st16"
   d="M42.3,520v-6.6h2.1v4.1h2V514h2.1v3.5h2.2v-4.3h2.1v6.8H42.3z"
   id="path245" />&#10;		<path
   class="st16"
   d="M42.3,511.2v-2.5h8.3v-4h2.1v6.5H42.3z"
   id="path246" />&#10;	</g>&#10;	<g
   id="g251">&#10;		<path
   class="st16"
   d="M141.4,725.9h3c3.2,0,5.3,1.6,5.3,5.2c0,3.6-2.1,5.2-5.1,5.2h-3.1V725.9z M144.3,734.3    c1.7,0,2.9-0.8,2.9-3.2c0-2.5-1.2-3.2-2.9-3.2h-0.4v6.4H144.3z"
   id="path247" />&#10;		<path
   class="st16"
   d="M151.6,725.9h6.6v2.1h-4.1v2h3.5v2.1h-3.5v2.2h4.3v2.1h-6.8V725.9z"
   id="path248" />&#10;		<path
   class="st16"
   d="M160.4,725.9h3.6c2.2,0,3.9,0.6,3.9,2.6c0,0.9-0.5,1.9-1.4,2.2v0.1c1.1,0.3,1.9,1.1,1.9,2.4    c0,2.1-1.8,3.1-4.1,3.1h-3.9V725.9z M164,730.1c1.1,0,1.5-0.5,1.5-1.2c0-0.8-0.5-1.1-1.5-1.1h-1.1v2.2H164z M164.2,734.4    c1.2,0,1.8-0.4,1.8-1.3c0-0.9-0.6-1.2-1.8-1.2h-1.2v2.5H164.2z"
   id="path249" />&#10;		<path
   class="st16"
   d="M170.1,731.5v-5.5h2.5v5.8c0,2,0.6,2.7,1.7,2.7c1.2,0,1.8-0.7,1.8-2.7v-5.8h2.4v5.5c0,3.5-1.4,5.1-4.2,5.1    S170.1,735,170.1,731.5z"
   id="path250" />&#10;		<path
   class="st16"
   d="M180.3,731.2c0-3.5,2.3-5.5,5.1-5.5c1.5,0,2.6,0.6,3.3,1.4l-1.3,1.5c-0.5-0.5-1.1-0.7-1.9-0.7    c-1.5,0-2.7,1.2-2.7,3.2c0,2.1,0.9,3.3,2.9,3.3c0.4,0,0.8-0.1,1-0.3v-1.7h-1.7v-2h3.9v4.9c-0.7,0.7-2,1.3-3.5,1.3    C182.6,736.5,180.3,734.7,180.3,731.2z"
   id="path251" />&#10;	</g>&#10;	<path
   id="rect251"
   class="st24"
   style="fill:none;stroke:#ffffff;stroke-miterlimit:10"
   d="m 114.2,747.29999 h 86.4 v 25.6 h -86.4 z" />&#10;	<g
   id="g254">&#10;		<path
   class="st16"
   d="M40.1,461.7h2.5v8.3h4v2.1h-6.5V461.7z"
   id="path252" />&#10;		<path
   class="st16"
   d="M48.4,461.7H55v2.1h-4.1v2h3.5v2.1h-3.5v2.2h4.3v2.1h-6.8V461.7z"
   id="path253" />&#10;		<path
   class="st16"
   d="M57.2,461.7h3c3.2,0,5.3,1.6,5.3,5.2c0,3.6-2.1,5.2-5.1,5.2h-3.1V461.7z M60.1,470.1c1.7,0,2.9-0.8,2.9-3.2    c0-2.5-1.2-3.2-2.9-3.2h-0.4v6.4H60.1z"
   id="path254" />&#10;	</g>&#10;	<g
   id="g255">&#10;		<path
   id="rect254"
   class="st8"
   style="fill:#e2eade"
   d="m 143.7,611.20001 h 5.4 v 10.6 h -5.4 z" />&#10;		<path
   id="rect255"
   class="st9"
   style="fill:#c29148"
   d="m 143.7,613.5 h 5.4 v 6 h -5.4 z" />&#10;	</g>&#10;	<g
   id="g257">&#10;		<path
   id="rect256"
   class="st8"
   style="fill:#e2eade"
   d="m 154.3,611.20001 h 5.4 v 10.6 h -5.4 z" />&#10;		<path
   id="rect257"
   class="st9"
   style="fill:#c29148"
   d="m 154.3,613.5 h 5.4 v 6 h -5.4 z" />&#10;	</g>&#10;	<path
   id="rect258"
   class="st7"
   style="fill:#474544"
   d="m 127.1,612.40002 h 4.2 v 6.9 h -4.2 z" />&#10;	&#10;		<path
   id="rect259"
   class="st7"
   transform="matrix(6.123234e-17 -1 1 6.123234e-17 -550.2544 691.7263)"
   style="fill:#474544"
   d="m 68.599998,617.59998 h 4.2 v 6.9 h -4.2 z" />&#10;	<path
   id="rect260"
   class="st9"
   style="fill:#c29148"
   d="m 120.5,612.40002 h 4.2 v 6.9 h -4.2 z" />&#10;	<path
   id="rect261"
   class="st9"
   style="fill:#c29148"
   d="m 110.4,612.40002 h 4.2 v 6.9 h -4.2 z" />&#10;	<path
   class="st4"
   d="M239.5,591.6c0-2.6,1.6-4.8,3.9-5.7v-3.4h-17.2c-5,0-9,4-9,9s4,9,9,9h17.2v-3.4   C241.2,596.4,239.5,594.2,239.5,591.6z M227.8,597.7c-3.4,0-6.1-2.7-6.1-6.1s2.7-6.1,6.1-6.1s6.1,2.7,6.1,6.1   S231.2,597.7,227.8,597.7z"
   id="path261" />&#10;	<g
   id="g263">&#10;		&#10;			<path
   id="rect262"
   class="st8"
   transform="matrix(-1.836970e-16 1 -1 -1.836970e-16 761.8423 411.0791)"
   style="fill:#e2eade"
   d="m 169.39999,583.70001 h 11.9 v 5.6 h -11.9 z" />&#10;		&#10;			<path
   id="rect263"
   class="st10"
   transform="matrix(-1.836970e-16 1 -1 -1.836970e-16 761.8423 411.0791)"
   style="fill:#8dddde"
   d="m 172.10001,583.70001 h 6.6 v 5.6 h -6.6 z" />&#10;	</g>&#10;</g>&#10;<g
   id="layer1">&#10;	<path
   id="rect815"
   d="M495.1,15.4v71.5L406,87V15.6h-35.7v71.8h0l0.2,295.4l160.4-0.2l-0.2-295.4h0.1V15.4L495.1,15.4z" />&#10;	<path
   id="rect821"
   class="st16"
   style="fill:#ffffff"
   d="m 394.5,351.89999 h 112.3 v 28.5 H 394.5 Z" />&#10;	<path
   id="rect825"
   class="st25"
   d="M400.3,353.6h16.8c2.9,0,5.3,2.4,5.3,5.3v14.7c0,2.9-2.4,5.3-5.3,5.3h-16.8   c-2.9,0-5.3-2.4-5.3-5.3v-14.7C395,355.9,397.4,353.6,400.3,353.6z" />&#10;	<path
   id="rect872"
   class="st25"
   d="M456.2,353.5h16.8c2.9,0,5.3,2.4,5.3,5.3v14.7c0,2.9-2.4,5.3-5.3,5.3h-16.8   c-2.9,0-5.3-2.4-5.3-5.3v-14.7C450.9,355.9,453.3,353.5,456.2,353.5z" />&#10;	<path
   id="rect874"
   class="st25"
   d="M427.6,353.6h18.1c2.5,0,4.6,2.1,4.6,4.6v16.1c0,2.5-2.1,4.6-4.6,4.6h-18.1   c-2.5,0-4.6-2.1-4.6-4.6v-16.1C423,355.6,425,353.6,427.6,353.6z" />&#10;	<path
   id="rect947"
   class="st26"
   style="opacity:0.99;fill:#808080;enable-background:new"
   d="m 407.20001,367.29999 h 2.8 v 53.5 h -2.8 z" />&#10;	<path
   id="rect949"
   class="st26"
   style="opacity:0.99;fill:#808080;enable-background:new"
   d="m 435.29999,367.29999 h 2.8 v 53.5 h -2.8 z" />&#10;	<path
   id="rect951"
   class="st26"
   style="opacity:0.99;fill:#808080;enable-background:new"
   d="m 463,367.29999 h 2.8 v 53.5 H 463 Z" />&#10;	<path
   id="rect87"
   d="m 393,256.79999 h 114.4 v 28.8 H 393 Z" />&#10;	<path
   id="path31-1"
   class="st16"
   d="M416,130.9c1,0,1.1,0,1.3-0.1c0.1-0.1,0.2-0.2,0.3-0.3c0.1-0.2,0.1-0.3,0.1-2.3l0-2.2l2.1,0   l2.1,0l0,2.7c0,3,0,3.2-0.3,4c-0.3,1-1.2,1.7-2.2,1.8c-0.6,0.1-1.3,0.1-1.9,0.1c-0.8,0-1.8,0-2.1-0.1l-0.5,0l0-1.7l0-1.7L416,130.9   L416,130.9z M436.2,136.9c18.1,0,22.6,0,21.8,0.1l-0.1,0l0.1,0c0.1,0,0.1,0.1-0.1,0.1c-0.1,0-0.1,0,0.2,0.1l0.4,0l-0.4,0   c-0.2,0-0.3,0-0.3,0c0.1,0,0.1,0.1,0.1,0.5c0,0.5,0,0.5,0.2,0.5c0.1,0,0.1,0-0.1,0c-0.1,0-0.2,0-0.2,0.1c0,0-7.2,0.1-21.4,0.1   l-21.4,0l0-0.8l0-0.8L436.2,136.9z M419.9,120.4l2.1,0l0,1.7l0,1.7l-2.1,0l-2.1,0l0-1.7l0-1.7L419.9,120.4z M424.2,126.8   c0.1-0.9,0.4-1.8,0.8-2.6c0.1-0.2,0.2-0.4,0.3-0.5c0.1-0.1,0.2-0.2,0.2-0.3c0.2-0.4,0.5-0.7,0.8-1c0,0,0.1-0.1,0.1-0.1   c0.3-0.3,0.6-0.6,1-0.9c0.5-0.3,1-0.6,1.6-0.8c0.8-0.3,1.7-0.5,2.6-0.4c0.5,0,1,0.1,1.5,0.2c0.3,0.1,0.7,0.2,0.9,0.3   c0.1,0.1,0.2,0.1,0.3,0.1c0.2,0.1,0.4,0.2,0.5,0.3c1.3,0.9,2.3,2,3,3.4c0.8,1.7,1,3.6,0.3,5.4c-0.2,0.6-0.5,1.1-0.8,1.6   c-0.3,0.6-0.8,1.1-1.3,1.5c-0.8,0.9-1.9,1.5-3,1.8c-0.9,0.2-1.8,0.2-2.7,0.1c-1-0.2-2-0.6-2.9-1.2c-0.3-0.2-0.6-0.5-0.9-0.8   c-0.1-0.1-0.2-0.2-0.3-0.3c-0.9-1-1.5-2.3-1.9-3.6C424.2,128.2,424.2,127.5,424.2,126.8L424.2,126.8z M428.3,128.6   c0.2,0.8,0.6,1.5,1.3,2.1c0.7,0.6,1.7,0.8,2.5,0.6c1.1-0.5,2-1.5,2.2-2.7c0.2-0.8,0.2-1.6,0-2.4c-0.2-0.9-0.8-1.7-1.5-2.2   c-0.2-0.2-0.5-0.3-0.8-0.4c-0.7-0.1-1.4-0.1-2,0.2c-0.6,0.4-1.1,0.9-1.4,1.5C428.1,126.4,428,127.5,428.3,128.6L428.3,128.6z    M440.3,120.4c0,0,1,0,2.1,0l2.1,0l0,1.9c0,1.8,0,1.9,0.1,2.2c0.4,0.8,1.3,1.3,2.1,1c0.4-0.1,0.8-0.4,1-0.8l0.2-0.4l0-2l0-2l2.1,0   l2.1,0l0,2.2c0.1,0.9,0,1.8-0.1,2.7c-0.2,0.8-0.6,1.6-1.1,2.2c-0.1,0.1-0.2,0.2-0.2,0.3c-0.3,0.3-0.6,0.7-1,0.9   c-0.4,0.3-0.8,0.5-1.3,0.7c-0.1,0-0.4,0.1-0.7,0.2c-0.5,0.2-1,0.2-1.5,0.2c-0.5,0-1.1,0-1.6-0.2c-0.6-0.1-1.2-0.4-1.7-0.7   c-0.6-0.4-1.2-1-1.6-1.6c-0.6-0.8-0.9-1.7-1-2.7C440.2,123.2,440.2,121.8,440.3,120.4L440.3,120.4z M446.3,130.9l3.5,0l0,1.8l0,1.8   l-3.5,0l-3.5,0l0-1.8l0-1.8L446.3,130.9z M452.3,117.6c0,0,0.1-0.1,0.1-0.2c0-0.2,0-0.2,0.3-0.3c0.1,0,6.1,0,13.2,0l12.9,0l0,0.8   l0,0.8l-13.1,0c-7.2,0-13.2,0-13.2,0c-0.1,0-0.1-0.1-0.1-0.5C452.2,117.8,452.2,117.6,452.3,117.6L452.3,117.6z M458.2,126.3l4.5,0   l0,1.8l0,1.8l-4.5,0l-4.5,0l0-1.8l0-1.8L458.2,126.3z M466.1,120.4l2.1,0l0,1.7l0,1.7l-2.1,0l-2.1,0l0-1.7l0-1.7L466.1,120.4z    M466.1,125.7l2.1,0l0,4.5l0,4.5l-2.1,0l-2.1,0l0-4.5l0-4.5L466.1,125.7z M474.7,120.4l4.5,0l0,1.7l0,1.7l-4.5,0l-4.5,0l0-1.7   l0-1.7L474.7,120.4z M470.9,125.9c0,0,1,0,2.1,0l2.1,0l0,2.1c0,2.9-0.1,2.7,2.1,2.8l1.4,0l0,1.8l0,1.8l-0.5,0.1   c-1.3,0.1-2.6,0.1-3.9,0c-0.9-0.1-1.7-0.5-2.4-1.1c-0.5-0.6-0.8-1.4-0.9-2.2C470.9,130.4,470.9,126,470.9,125.9L470.9,125.9z    M481.7,118.7c0.1-0.4,0.3-0.7,0.6-0.9c0.8-0.8,2.1-0.9,3.1-0.2c0.3,0.2,0.6,0.5,0.8,0.9c0.1,0.3,0.2,0.6,0.2,0.9   c0,0.3,0,0.7-0.2,1c-0.4,0.7-1.1,1.2-1.9,1.3c-0.7,0.1-1.4-0.2-1.9-0.7C481.7,120.2,481.5,119.4,481.7,118.7z M482.1,120.1   c0.3,0.5,0.8,0.9,1.4,1.1c0.6,0.1,1.3,0,1.8-0.5c0.2-0.1,0.3-0.3,0.4-0.6c0.2-0.3,0.2-0.6,0.2-0.9c0-0.3,0-0.6-0.2-0.9   c-0.1-0.3-0.3-0.5-0.5-0.6c-0.2-0.1-0.4-0.3-0.6-0.3c-1-0.3-2.1,0.2-2.5,1.2C481.9,119.1,481.9,119.6,482.1,120.1L482.1,120.1z    M483.7,117.9c0.3,0,0.6,0,0.9,0.1c0.4,0.2,0.5,0.7,0.3,1.1c-0.1,0.1-0.2,0.2-0.3,0.2l-0.2,0.1l0.2,0.2c0.1,0.2,0.3,0.3,0.4,0.5   c0.1,0.1,0.1,0.2,0.2,0.3c0.1,0.1,0,0.1-0.2,0.1l-0.2,0l-0.3-0.5c-0.4-0.6-0.5-0.6-0.9-0.6l-0.3,0l0,0.6l0,0.6l-0.2,0l-0.2,0l0-1.3   l0-1.3L483.7,117.9z M483.8,119c0.4,0,0.5,0,0.7-0.1c0.3-0.2,0.1-0.6-0.3-0.7c-0.3,0-0.6,0-0.8,0c0,0.1,0,0.3,0,0.4l0,0.4   L483.8,119z" />&#10;	<path
   id="rect64"
   class="st25"
   d="M483.9,353.5h16.8c2.9,0,5.3,2.4,5.3,5.3v14.7c0,2.9-2.4,5.3-5.3,5.3h-16.8   c-2.9,0-5.3-2.4-5.3-5.3v-14.7C478.6,355.9,481,353.5,483.9,353.5z" />&#10;	<path
   id="rect66"
   class="st26"
   style="opacity:0.99;fill:#808080;enable-background:new"
   d="m 490.79999,367.29999 h 2.8 v 53.5 h -2.8 z" />&#10;	<path
   id="circle264"
   class="st27"
   style="fill:#cccbcb"
   d="m 489.80001,294.60001 a 39.200001,39.200001 0 0 1 -39.2,39.2 39.200001,39.200001 0 0 1 -39.2,-39.2 39.200001,39.200001 0 0 1 39.2,-39.2 39.200001,39.200001 0 0 1 39.2,39.2 z" />&#10;	<path
   id="path133"
   class="st16"
   style="fill:#ffffff"
   d="M 482.7,294.60001 A 32.099998,32.099998 0 0 1 450.60001,326.7 a 32.099998,32.099998 0 0 1 -32.1,-32.09999 32.099998,32.099998 0 0 1 32.1,-32.1 32.099998,32.099998 0 0 1 32.09999,32.1 z" />&#10;	<path
   id="rect264"
   class="st16"
   style="fill:#ffffff"
   d="m 370.29999,144.39999 h 60.6 v 107 h -60.6 z" />&#10;	<path
   id="rect265"
   d="m 370.29999,146.60001 h 57.1 V 249.3 h -57.1 z" />&#10;	<path
   id="rect266"
   class="st28"
   style="fill:#2a4b9a"
   d="M 372.10001,146.2 H 429.2 v 103.4 h -57.09999 z" />&#10;	<path
   id="path144"
   class="st29"
   style="fill:#ab9c38"
   d="m 389.9,240.7 a 8.8999996,8.8999996 0 0 1 -8.9,8.9 8.8999996,8.8999996 0 0 1 -8.9,-8.9 8.8999996,8.8999996 0 0 1 8.9,-8.9 8.8999996,8.8999996 0 0 1 8.9,8.9 z" />&#10;	<path
   id="rect952"
   class="st30"
   style="fill:#96841f"
   d="m 372.10001,239.3 h 17.8 v 2.9 h -17.8 z" />&#10;	<path
   id="rect956"
   class="st16"
   style="fill:#ffffff"
   d="M 453.10001,162.3 H 530.8 v 60.6 h -77.69999 z" />&#10;	<path
   id="rect958"
   d="m 454.79999,164.10001 h 74.19999 V 221.2 h -74.19999 z" />&#10;	<path
   id="rect960"
   class="st31"
   style="fill:#333333"
   d="m 467,167.60001 h 49.9 v 49.9 H 467 Z" />&#10;	<path
   id="rect962"
   class="st27"
   style="fill:#cccbcb"
   d="m 467,217.60001 h 8.9 v 14.3 H 467 Z" />&#10;	<path
   id="rect964"
   class="st27"
   style="fill:#cccbcb"
   d="m 508,217.60001 h 8.9 v 14.3 H 508 Z" />&#10;	<path
   id="rect966"
   class="st27"
   style="fill:#cccbcb"
   d="m 479.39999,217.60001 h 8.9 v 14.3 h -8.9 z" />&#10;	<path
   id="rect968"
   class="st27"
   style="fill:#cccbcb"
   d="m 495.5,217.60001 h 8.9 v 14.3 h -8.9 z" />&#10;	<path
   id="rect970"
   class="st27"
   style="fill:#cccbcb"
   d="m 467,153.39999 h 8.9 v 14.3 H 467 Z" />&#10;	<path
   id="rect972"
   class="st27"
   style="fill:#cccbcb"
   d="m 508,153.39999 h 8.9 v 14.3 H 508 Z" />&#10;	<path
   id="rect974"
   class="st27"
   style="fill:#cccbcb"
   d="m 479.39999,153.39999 h 8.9 v 14.3 h -8.9 z" />&#10;	<path
   id="rect976"
   class="st27"
   style="fill:#cccbcb"
   d="m 495.5,153.39999 h 8.9 v 14.3 h -8.9 z" />&#10;	<path
   id="rect978"
   class="st26"
   style="opacity:0.99;fill:#808080;enable-background:new"
   d="m 470,215.8 h 2.8 l 0.1,8.9 H 470 Z" />&#10;	<path
   id="rect980"
   class="st26"
   style="opacity:0.99;fill:#808080;enable-background:new"
   d="m 482.5,215.8 h 2.8 l 0.1,8.9 h -2.9 z" />&#10;	<path
   id="rect982"
   class="st26"
   style="opacity:0.99;fill:#808080;enable-background:new"
   d="m 498.5,215.8 h 2.9 v 8.9 h -2.8 z" />&#10;	<path
   id="rect984"
   class="st26"
   style="opacity:0.99;fill:#808080;enable-background:new"
   d="m 511,215.8 h 2.8 l 0.1,8.9 h -2.8 z" />&#10;	<path
   id="rect986"
   class="st26"
   style="opacity:0.99;fill:#808080;enable-background:new"
   d="m 470,169.4 h 2.8 l 0.1,-8.9 H 470 Z" />&#10;	<path
   id="rect988"
   class="st26"
   style="opacity:0.99;fill:#808080;enable-background:new"
   d="m 482.5,169.4 h 2.8 l 0.1,-8.9 h -2.9 z" />&#10;	<path
   id="rect990"
   class="st26"
   style="opacity:0.99;fill:#808080;enable-background:new"
   d="m 498.5,169.4 h 2.9 v -8.9 h -2.8 z" />&#10;	<path
   id="rect992"
   class="st26"
   style="opacity:0.99;fill:#808080;enable-background:new"
   d="m 511,169.4 h 2.8 l 0.1,-8.9 h -2.8 z" />&#10;	&#10;		<path
   id="path994"
   class="st27"
   transform="matrix(0.2298 -0.9732 0.9732 0.2298 359.3655 527.5463)"
   style="fill:#cccbcb"
   d="m 525.5,36.700001 a 12.5,12.5 0 0 1 -12.5,12.5 12.5,12.5 0 0 1 -12.5,-12.5 12.5,12.5 0 0 1 12.5,-12.5 12.5,12.5 0 0 1 12.5,12.5 z" />&#10;	<path
   id="circle996"
   class="st27"
   style="fill:#cccbcb"
   d="m 400.60001,36.700001 a 12.5,12.5 0 0 1 -12.5,12.5 12.5,12.5 0 0 1 -12.5,-12.5 12.5,12.5 0 0 1 12.5,-12.5 12.5,12.5 0 0 1 12.5,12.5 z" />&#10;	<path
   id="rect836-7"
   class="st27"
   d="M434.4,89.7h5.3c5.4,0,9.8,4.4,9.8,9.8l0,0c0,5.4-4.4,9.8-9.8,9.8h-5.3   c-5.4,0-9.8-4.4-9.8-9.8l0,0C424.6,94.1,429,89.7,434.4,89.7z" />&#10;	<path
   id="rect836-6"
   class="st27"
   d="M461.1,89.7h5.3c5.4,0,9.8,4.4,9.8,9.8l0,0c0,5.4-4.4,9.8-9.8,9.8h-5.3   c-5.4,0-9.8-4.4-9.8-9.8l0,0C451.3,94.1,455.7,89.7,461.1,89.7z" />&#10;	&#10;		<path
   id="rect943"
   class="st27"
   transform="matrix(1 -8.295629e-03 8.295629e-03 1 -0.8266 4.0828)"
   style="fill:#cccbcb"
   d="M 482.5,89.199997 H 501 V 114.2 h -18.5 z" />&#10;	<path
   id="rect1026"
   class="st27"
   d="M406.2,89h10c2.3,0,4.2,1.9,4.2,4.2v18.3c0,2.3-1.9,4.2-4.2,4.2l0,0h-10   c-2.3,0-4.2-1.9-4.2-4.2c0,0,0,0,0,0V93.3C402,90.9,403.9,89,406.2,89L406.2,89L406.2,89z" />&#10;	<path
   id="path1028"
   class="st16"
   style="fill:#ffffff"
   d="m 416.59999,106.8 a 5.3000002,5.3000002 0 0 1 -5.3,5.3 5.3000002,5.3000002 0 0 1 -5.3,-5.3 5.3000002,5.3000002 0 0 1 5.3,-5.3 5.3000002,5.3000002 0 0 1 5.3,5.3 z" />&#10;	<path
   id="rect1030"
   class="st27"
   d="M400.5,98.7l0.1,5.4c0.1,5.4-4.3,9.8-9.7,9.9l0,0c-5.4,0.1-9.8-4.3-9.9-9.7c0,0,0,0,0,0   l-0.1-5.4c-0.1-5.4,4.3-9.8,9.7-9.9l0,0C396,88.9,400.4,93.3,400.5,98.7C400.5,98.7,400.5,98.7,400.5,98.7z" />&#10;	<path
   id="circle105"
   class="st16"
   style="fill:#ffffff"
   d="m 397.89999,101.5 a 7.0999999,7.0999999 0 0 1 -7.1,7.1 7.0999999,7.0999999 0 0 1 -7.1,-7.1 7.0999999,7.0999999 0 0 1 7.1,-7.1 7.0999999,7.0999999 0 0 1 7.1,7.1 z" />&#10;	<path
   id="path138"
   class="st16"
   style="fill:#ffffff"
   d="m 398.80001,36.700001 a 10.7,10.7 0 0 1 -10.7,10.7 10.7,10.7 0 0 1 -10.7,-10.7 10.7,10.7 0 0 1 10.7,-10.7 10.7,10.7 0 0 1 10.7,10.7 z" />&#10;	&#10;		<path
   id="circle140"
   class="st16"
   transform="matrix(0.2898 -0.9571 0.9571 0.2898 329.1645 517.053)"
   style="fill:#ffffff"
   d="m 523.7,36.700001 a 10.7,10.7 0 0 1 -10.7,10.7 10.7,10.7 0 0 1 -10.7,-10.7 10.7,10.7 0 0 1 10.7,-10.7 10.7,10.7 0 0 1 10.7,10.7 z" />&#10;	<path
   id="rect267"
   class="st26"
   style="opacity:0.99;fill:#808080;enable-background:new"
   d="m 435.60001,64 h 2.8 v 37 h -2.8 z" />&#10;	<path
   id="rect268"
   class="st26"
   style="opacity:0.99;fill:#808080;enable-background:new"
   d="m 462.39999,64.5 h 2.8 V 101 h -2.8 z" />&#10;	<path
   id="circle147"
   class="st16"
   style="fill:#ffffff"
   d="m 498.89999,101.5 a 7.0999999,7.0999999 0 0 1 -7.1,7.1 7.0999999,7.0999999 0 0 1 -7.1,-7.1 7.0999999,7.0999999 0 0 1 7.1,-7.1 7.0999999,7.0999999 0 0 1 7.1,7.1 z" />&#10;	<path
   id="rect269"
   class="st32"
   style="fill:#989898"
   d="m 411.29999,3.5999999 h 78.5 V 66.000001 h -78.5 z" />&#10;	<path
   id="rect105"
   d="m 413.10001,0 h 74.9 v 3.5999999 h -74.9 z" />&#10;	<g
   id="text112">&#10;		<g
   class="st33"
   id="g269">&#10;			<path
   class="st16"
   d="M525,120.8c0.1,0,0.1,0,0.2,0s0.1,0.1,0.1,0.1s0.1,0.2,0.1,0.3c0,0.1,0,0.3,0,0.5c0,0.3,0,0.5,0,0.6     s-0.1,0.3-0.1,0.4c-0.1,0.1-0.1,0.1-0.2,0.2l-7.2,5.3h7.2c0.1,0,0.1,0,0.1,0c0,0,0.1,0.1,0.1,0.2c0,0.1,0,0.2,0.1,0.3     c0,0.1,0,0.3,0,0.5c0,0.2,0,0.3,0,0.5c0,0.1,0,0.2-0.1,0.3c0,0.1-0.1,0.1-0.1,0.2c0,0-0.1,0-0.1,0h-13.7c-0.1,0-0.1,0-0.2,0     c0,0-0.1-0.1-0.1-0.2c0-0.1,0-0.2-0.1-0.3s0-0.3,0-0.5c0-0.2,0-0.3,0-0.5s0-0.2,0.1-0.3c0-0.1,0.1-0.1,0.1-0.2c0,0,0.1,0,0.2,0     h6.4l-6.4-5.1c-0.1,0-0.1-0.1-0.2-0.2c0-0.1-0.1-0.1-0.1-0.2c0-0.1,0-0.2-0.1-0.3c0-0.1,0-0.3,0-0.5c0-0.2,0-0.3,0-0.5     c0-0.1,0-0.2,0.1-0.3c0-0.1,0.1-0.1,0.1-0.1c0,0,0.1,0,0.1,0c0.1,0,0.2,0,0.3,0.1s0.2,0.1,0.4,0.3l5.7,4.7l6.8-5.1     c0.2-0.1,0.3-0.2,0.4-0.2C524.9,120.8,525,120.8,525,120.8z"
   id="path269" />&#10;		</g>&#10;		<g
   class="st33"
   id="g270">&#10;			<path
   class="st16"
   d="M519.8,113.8h5.3c0.1,0,0.1,0,0.2,0c0,0,0.1,0.1,0.1,0.2c0,0.1,0,0.2,0.1,0.3c0,0.1,0,0.3,0,0.5     c0,0.2,0,0.3,0,0.5c0,0.1,0,0.2-0.1,0.3c0,0.1-0.1,0.1-0.1,0.2c0,0-0.1,0-0.2,0h-5.3l-8.1,4c-0.2,0.1-0.3,0.1-0.4,0.1     c-0.1,0-0.2,0-0.2-0.1s-0.1-0.2-0.1-0.3c0-0.1,0-0.3,0-0.6c0-0.2,0-0.4,0-0.5s0-0.2,0.1-0.3c0-0.1,0.1-0.1,0.1-0.2     c0,0,0.1-0.1,0.2-0.1l4.1-2c0.4-0.2,0.8-0.4,1.2-0.6c0.4-0.2,0.9-0.4,1.3-0.6v0c-0.4-0.2-0.8-0.3-1.3-0.5     c-0.4-0.2-0.8-0.4-1.2-0.5l-4.1-2c-0.1,0-0.1-0.1-0.2-0.1s-0.1-0.1-0.1-0.2c0-0.1,0-0.2-0.1-0.3c0-0.1,0-0.3,0-0.5     c0-0.3,0-0.5,0-0.6c0-0.2,0.1-0.3,0.1-0.3c0.1-0.1,0.1-0.1,0.2-0.1s0.2,0.1,0.4,0.1L519.8,113.8z"
   id="path270" />&#10;		</g>&#10;		<g
   class="st33"
   id="g274">&#10;			<path
   class="st16"
   d="M519.8,104.3c0.3,0,0.5,0,0.6,0.1s0.2,0.2,0.2,0.3v4.6c0,0.1-0.1,0.2-0.2,0.3c-0.1,0.1-0.3,0.1-0.6,0.1     s-0.5,0-0.6-0.1c-0.1-0.1-0.2-0.2-0.2-0.3v-4.6c0-0.1,0-0.1,0-0.2c0,0,0.1-0.1,0.1-0.1s0.1-0.1,0.2-0.1     C519.5,104.3,519.6,104.3,519.8,104.3z"
   id="path271" />&#10;			<path
   class="st16"
   d="M518.2,92.9c1.1,0,2.1,0.1,3,0.3c0.9,0.2,1.7,0.5,2.3,0.9c0.7,0.4,1.2,0.9,1.5,1.6c0.4,0.6,0.5,1.4,0.5,2.4     c0,0.9-0.2,1.7-0.5,2.3c-0.3,0.6-0.8,1.1-1.4,1.5s-1.4,0.6-2.3,0.8c-0.9,0.2-2,0.2-3.1,0.2c-1.1,0-2.1-0.1-3-0.3     c-0.9-0.2-1.7-0.5-2.3-0.9c-0.7-0.4-1.2-0.9-1.5-1.6c-0.4-0.6-0.5-1.4-0.5-2.4c0-0.9,0.2-1.7,0.5-2.3c0.3-0.6,0.8-1.1,1.4-1.5     s1.4-0.6,2.3-0.8C515.9,93,517,92.9,518.2,92.9z M518.3,94.8c-0.7,0-1.4,0-1.9,0.1c-0.6,0.1-1.1,0.1-1.5,0.2     c-0.4,0.1-0.8,0.2-1.1,0.4s-0.6,0.3-0.8,0.6c-0.2,0.2-0.3,0.5-0.4,0.8c-0.1,0.3-0.1,0.6-0.1,1c0,0.6,0.1,1.1,0.4,1.5     s0.7,0.7,1.2,0.9c0.5,0.2,1.1,0.4,1.8,0.5c0.7,0.1,1.4,0.1,2.2,0.1c1.1,0,2-0.1,2.7-0.2c0.7-0.1,1.4-0.3,1.8-0.5     c0.5-0.2,0.8-0.5,1-0.9c0.2-0.4,0.3-0.8,0.3-1.4c0-0.4-0.1-0.8-0.2-1.1s-0.3-0.6-0.6-0.8c-0.2-0.2-0.5-0.4-0.9-0.6     s-0.7-0.3-1.2-0.4c-0.4-0.1-0.9-0.1-1.4-0.2S518.8,94.8,518.3,94.8z"
   id="path272" />&#10;			<path
   class="st16"
   d="M521.3,82c0.7,0,1.2,0.1,1.8,0.3c0.5,0.2,1,0.6,1.4,1s0.7,1,0.9,1.6c0.2,0.6,0.3,1.3,0.3,2.1     c0,0.5,0,0.9-0.1,1.3c-0.1,0.4-0.2,0.8-0.3,1.1c-0.1,0.3-0.2,0.6-0.3,0.8c-0.1,0.2-0.2,0.3-0.2,0.4c-0.1,0.1-0.1,0.1-0.2,0.1     c-0.1,0-0.1,0.1-0.2,0.1c-0.1,0-0.2,0-0.3,0c-0.1,0-0.2,0-0.4,0c-0.3,0-0.4,0-0.6-0.1c-0.1-0.1-0.2-0.1-0.2-0.2     c0-0.1,0.1-0.2,0.2-0.4s0.2-0.5,0.4-0.8c0.1-0.3,0.3-0.7,0.4-1.1s0.2-0.9,0.2-1.4c0-0.5-0.1-0.9-0.2-1.3c-0.1-0.4-0.3-0.7-0.5-1     c-0.2-0.3-0.5-0.5-0.8-0.6c-0.3-0.1-0.7-0.2-1-0.2c-0.4,0-0.8,0.1-1.1,0.2c-0.3,0.2-0.6,0.4-0.8,0.7c-0.2,0.3-0.4,0.7-0.5,1.2     c-0.1,0.5-0.2,1-0.2,1.6V89c0,0.1,0,0.1,0,0.2c0,0.1-0.1,0.1-0.1,0.1c-0.1,0-0.1,0.1-0.2,0.1c-0.1,0-0.2,0-0.4,0     c-0.1,0-0.3,0-0.3,0c-0.1,0-0.2-0.1-0.2-0.1c-0.1,0-0.1-0.1-0.1-0.1c0-0.1,0-0.1,0-0.2v-1.2c0-0.5-0.1-0.9-0.2-1.3     c-0.1-0.4-0.3-0.7-0.5-1c-0.2-0.3-0.5-0.5-0.8-0.6s-0.7-0.2-1.1-0.2c-0.3,0-0.6,0-0.8,0.1c-0.3,0.1-0.5,0.2-0.7,0.4     c-0.2,0.2-0.4,0.4-0.5,0.7s-0.2,0.6-0.2,1c0,0.4,0.1,0.8,0.2,1.2s0.3,0.7,0.4,1s0.3,0.5,0.4,0.7c0.1,0.2,0.2,0.3,0.2,0.4     c0,0.1,0,0.1,0,0.1c0,0-0.1,0.1-0.1,0.1c-0.1,0-0.1,0-0.2,0.1s-0.2,0-0.4,0c-0.1,0-0.2,0-0.3,0c-0.1,0-0.2,0-0.2,0     c-0.1,0-0.1,0-0.2-0.1c-0.1,0-0.1-0.1-0.2-0.1c-0.1-0.1-0.2-0.2-0.3-0.4s-0.3-0.5-0.4-0.8S511,88.4,511,88s-0.1-0.8-0.1-1.3     c0-0.7,0.1-1.2,0.3-1.7c0.2-0.5,0.4-0.9,0.7-1.3c0.3-0.3,0.7-0.6,1.1-0.8c0.4-0.2,0.9-0.2,1.4-0.2c0.5,0,0.9,0.1,1.3,0.2     c0.4,0.1,0.7,0.3,1,0.5c0.3,0.2,0.6,0.5,0.8,0.8c0.2,0.3,0.4,0.7,0.4,1.1h0c0.1-0.5,0.2-0.9,0.4-1.4s0.4-0.8,0.7-1.1     s0.6-0.5,1-0.7S520.8,82,521.3,82z"
   id="path273" />&#10;			<path
   class="st16"
   d="M511.9,70.2c0.1,0,0.3,0,0.4,0c0.1,0,0.2,0,0.3,0c0.1,0,0.2,0,0.3,0.1c0.1,0,0.2,0.1,0.3,0.1l11.9,5.2     c0.1,0,0.2,0.1,0.2,0.1c0.1,0.1,0.1,0.1,0.1,0.2s0.1,0.2,0.1,0.3s0,0.3,0,0.5c0,0.3,0,0.4,0,0.6c0,0.1-0.1,0.2-0.1,0.3     c0,0.1-0.1,0.1-0.2,0.1c-0.1,0-0.2,0-0.2-0.1l-12.1-5.4v6.9c0,0.1-0.1,0.2-0.2,0.3c-0.1,0.1-0.4,0.1-0.6,0.1c-0.1,0-0.3,0-0.4,0     s-0.2,0-0.3-0.1s-0.1-0.1-0.2-0.1s0-0.1,0-0.2v-8.3c0-0.1,0-0.2,0-0.3c0-0.1,0.1-0.1,0.1-0.2c0.1,0,0.2-0.1,0.3-0.1     C511.6,70.2,511.7,70.2,511.9,70.2z"
   id="path274" />&#10;		</g>&#10;	</g>&#10;	<g
   id="text116">&#10;		<g
   class="st33"
   id="g276">&#10;			<path
   class="st16"
   d="M408.6,349.6c0.1,0.2,0.1,0.3,0.1,0.4s0,0.2-0.1,0.2c-0.1,0.1-0.2,0.1-0.3,0.1c-0.1,0-0.3,0-0.5,0     c-0.2,0-0.4,0-0.5,0s-0.2,0-0.3-0.1c-0.1,0-0.1-0.1-0.2-0.1c0,0-0.1-0.1-0.1-0.2l-1.2-3.5h-5.9l-1.2,3.4c0,0.1-0.1,0.1-0.1,0.2     c0,0-0.1,0.1-0.2,0.1s-0.2,0.1-0.3,0.1s-0.3,0-0.5,0c-0.2,0-0.4,0-0.5,0c-0.1,0-0.2-0.1-0.3-0.1s-0.1-0.1-0.1-0.2     c0-0.1,0-0.2,0.1-0.4l4.8-13.3c0-0.1,0.1-0.1,0.1-0.2s0.1-0.1,0.2-0.1c0.1,0,0.2,0,0.4-0.1s0.3,0,0.5,0c0.2,0,0.4,0,0.6,0     c0.2,0,0.3,0,0.4,0.1c0.1,0,0.2,0.1,0.2,0.1s0.1,0.1,0.1,0.2L408.6,349.6z M402.4,337.8L402.4,337.8L400,345h5L402.4,337.8z"
   id="path275" />&#10;			<path
   class="st16"
   d="M419.8,343c0,1.1-0.1,2.1-0.3,3c-0.2,0.9-0.5,1.7-0.9,2.3c-0.4,0.7-0.9,1.2-1.6,1.5     c-0.6,0.4-1.4,0.5-2.4,0.5c-0.9,0-1.7-0.2-2.3-0.5c-0.6-0.3-1.1-0.8-1.5-1.4s-0.6-1.4-0.8-2.3c-0.2-0.9-0.2-2-0.2-3.1     c0-1.1,0.1-2.1,0.3-3c0.2-0.9,0.5-1.7,0.9-2.3c0.4-0.7,0.9-1.2,1.6-1.5c0.6-0.4,1.4-0.5,2.4-0.5c0.9,0,1.7,0.2,2.3,0.5     c0.6,0.3,1.1,0.8,1.5,1.4s0.6,1.4,0.8,2.3C419.7,340.8,419.8,341.9,419.8,343z M417.8,343.2c0-0.7,0-1.4-0.1-1.9     c-0.1-0.6-0.1-1.1-0.2-1.5c-0.1-0.4-0.2-0.8-0.4-1.1c-0.2-0.3-0.3-0.6-0.6-0.8c-0.2-0.2-0.5-0.4-0.8-0.4c-0.3-0.1-0.6-0.1-1-0.1     c-0.6,0-1.1,0.1-1.5,0.4s-0.7,0.7-0.9,1.2c-0.2,0.5-0.4,1.1-0.5,1.8c-0.1,0.7-0.1,1.4-0.1,2.2c0,1.1,0.1,2,0.2,2.7     s0.3,1.4,0.5,1.8s0.5,0.8,0.9,1c0.4,0.2,0.8,0.3,1.4,0.3c0.4,0,0.8-0.1,1.1-0.2s0.6-0.3,0.8-0.6c0.2-0.2,0.4-0.5,0.6-0.9     s0.3-0.7,0.4-1.2c0.1-0.4,0.1-0.9,0.2-1.4S417.8,343.7,417.8,343.2z"
   id="path276" />&#10;		</g>&#10;	</g>&#10;	<g
   id="text120">&#10;		<g
   class="st33"
   id="g277">&#10;			<path
   class="st16"
   d="M441.7,337.9c0,0.1,0,0.3,0,0.4c0,0.1,0,0.2-0.1,0.3c0,0.1-0.1,0.1-0.1,0.1s-0.1,0-0.1,0     c-0.1,0-0.2-0.1-0.4-0.2c-0.2-0.1-0.5-0.3-0.8-0.5c-0.3-0.2-0.8-0.3-1.2-0.5c-0.5-0.1-1.1-0.2-1.7-0.2c-0.8,0-1.5,0.1-2.1,0.4     c-0.6,0.3-1.2,0.7-1.6,1.2c-0.4,0.5-0.8,1.1-1,1.8c-0.2,0.7-0.3,1.5-0.3,2.3c0,0.9,0.1,1.7,0.4,2.4c0.3,0.7,0.6,1.3,1.1,1.8     c0.4,0.5,1,0.9,1.6,1.1c0.6,0.3,1.3,0.4,2.1,0.4c0.4,0,0.9-0.1,1.3-0.2c0.5-0.1,0.9-0.3,1.3-0.5V344h-3.3c-0.1,0-0.2-0.1-0.3-0.2     c-0.1-0.1-0.1-0.3-0.1-0.6c0-0.1,0-0.3,0-0.4s0-0.2,0.1-0.2s0.1-0.1,0.1-0.1c0,0,0.1,0,0.2,0h4.5c0.1,0,0.2,0,0.2,0     c0.1,0,0.2,0.1,0.2,0.1c0.1,0.1,0.1,0.1,0.2,0.2c0,0.1,0.1,0.2,0.1,0.4v5.5c0,0.2,0,0.4-0.1,0.5c-0.1,0.1-0.2,0.3-0.4,0.4     c-0.2,0.1-0.5,0.2-0.8,0.3c-0.3,0.1-0.7,0.2-1,0.3c-0.4,0.1-0.7,0.2-1.1,0.2c-0.4,0-0.7,0.1-1.1,0.1c-1.1,0-2.1-0.2-3-0.5     s-1.6-0.8-2.2-1.5c-0.6-0.6-1.1-1.4-1.4-2.3s-0.5-1.9-0.5-3c0-1.1,0.2-2.2,0.5-3.1c0.3-0.9,0.8-1.7,1.4-2.4     c0.6-0.6,1.4-1.2,2.2-1.5c0.9-0.4,1.8-0.5,2.9-0.5c0.5,0,1.1,0,1.5,0.1s0.9,0.2,1.3,0.3c0.4,0.1,0.7,0.3,0.9,0.4     c0.3,0.2,0.4,0.3,0.5,0.4c0.1,0.1,0.2,0.2,0.2,0.3C441.6,337.5,441.7,337.6,441.7,337.9z"
   id="path277" />&#10;		</g>&#10;	</g>&#10;	<g
   id="text124">&#10;		<g
   class="st33"
   id="g278">&#10;			<path
   class="st16"
   d="M468.6,345.3c0,0.1,0,0.3,0,0.4s-0.1,0.2-0.1,0.2c0,0.1-0.1,0.1-0.1,0.1c-0.1,0-0.1,0-0.2,0h-3.6v4     c0,0.1,0,0.1,0,0.1c0,0-0.1,0.1-0.1,0.1s-0.1,0.1-0.2,0.1s-0.2,0-0.4,0c-0.1,0-0.3,0-0.4,0s-0.2,0-0.3-0.1     c-0.1,0-0.1-0.1-0.1-0.1c0,0,0-0.1,0-0.1v-4h-3.6c-0.1,0-0.1,0-0.2,0s-0.1-0.1-0.1-0.1c0-0.1-0.1-0.1-0.1-0.2c0-0.1,0-0.2,0-0.4     c0-0.1,0-0.2,0-0.3c0-0.1,0.1-0.2,0.1-0.2s0.1-0.1,0.1-0.1s0.1,0,0.2,0h3.6v-4c0-0.1,0-0.1,0-0.2s0.1-0.1,0.1-0.1     c0.1,0,0.1-0.1,0.3-0.1c0.1,0,0.2,0,0.4,0c0.2,0,0.3,0,0.4,0c0.1,0,0.2,0,0.2,0.1c0.1,0,0.1,0.1,0.1,0.1s0,0.1,0,0.2v4h3.6     c0.1,0,0.1,0,0.2,0s0.1,0.1,0.1,0.1c0,0.1,0.1,0.1,0.1,0.2C468.6,345,468.6,345.1,468.6,345.3z"
   id="path278" />&#10;		</g>&#10;	</g>&#10;	<g
   id="text128">&#10;		<g
   class="st33"
   id="g280">&#10;			<path
   class="st16"
   d="M491,342.9c0,1.2-0.2,2.3-0.5,3.2c-0.3,0.9-0.8,1.7-1.4,2.3c-0.6,0.6-1.4,1.1-2.2,1.4     c-0.9,0.3-1.9,0.5-3.2,0.5h-3c-0.2,0-0.3-0.1-0.5-0.2c-0.2-0.1-0.2-0.3-0.2-0.6v-12.8c0-0.3,0.1-0.5,0.2-0.6     c0.2-0.1,0.3-0.2,0.5-0.2h3.2c1.2,0,2.3,0.2,3.1,0.5c0.9,0.3,1.6,0.8,2.2,1.4c0.6,0.6,1,1.3,1.3,2.2S491,341.8,491,342.9z      M489,342.9c0-0.8-0.1-1.5-0.3-2.2s-0.5-1.2-0.9-1.7s-0.9-0.9-1.6-1.1c-0.6-0.3-1.4-0.4-2.4-0.4h-1.9v11.1h2     c0.9,0,1.7-0.1,2.3-0.3c0.6-0.2,1.1-0.6,1.6-1c0.4-0.5,0.7-1.1,0.9-1.8C488.9,344.8,489,343.9,489,342.9z"
   id="path279" />&#10;			<path
   class="st16"
   d="M502.7,343c0,1.1-0.1,2.1-0.3,3c-0.2,0.9-0.5,1.7-0.9,2.3c-0.4,0.7-0.9,1.2-1.6,1.5     c-0.6,0.4-1.4,0.5-2.4,0.5c-0.9,0-1.7-0.2-2.3-0.5c-0.6-0.3-1.1-0.8-1.5-1.4s-0.6-1.4-0.8-2.3c-0.2-0.9-0.2-2-0.2-3.1     c0-1.1,0.1-2.1,0.3-3c0.2-0.9,0.5-1.7,0.9-2.3c0.4-0.7,0.9-1.2,1.6-1.5c0.6-0.4,1.4-0.5,2.4-0.5c0.9,0,1.7,0.2,2.3,0.5     c0.6,0.3,1.1,0.8,1.5,1.4s0.6,1.4,0.8,2.3C502.6,340.8,502.7,341.9,502.7,343z M500.8,343.2c0-0.7,0-1.4-0.1-1.9     c-0.1-0.6-0.1-1.1-0.2-1.5c-0.1-0.4-0.2-0.8-0.4-1.1c-0.2-0.3-0.3-0.6-0.6-0.8c-0.2-0.2-0.5-0.4-0.8-0.4c-0.3-0.1-0.6-0.1-1-0.1     c-0.6,0-1.1,0.1-1.5,0.4s-0.7,0.7-0.9,1.2c-0.2,0.5-0.4,1.1-0.5,1.8c-0.1,0.7-0.1,1.4-0.1,2.2c0,1.1,0.1,2,0.2,2.7     s0.3,1.4,0.5,1.8s0.5,0.8,0.9,1c0.4,0.2,0.8,0.3,1.4,0.3c0.4,0,0.8-0.1,1.1-0.2s0.6-0.3,0.8-0.6c0.2-0.2,0.4-0.5,0.6-0.9     s0.3-0.7,0.4-1.2c0.1-0.4,0.1-0.9,0.2-1.4S500.8,343.7,500.8,343.2z"
   id="path280" />&#10;		</g>&#10;	</g>&#10;</g>&#10;&#10;<path
   id="rect1707"
   class="st39"
   style="fill:#e30613"
   d="m 231.5,527.40002 h 46.2 v 11.3 h -46.2 z" />&#10;&#10;&#10;&#10;<path
   id="circle281"
   class="st38"
   style="fill:#914f00"
   d="m 243.7,474.10001 a 11.9,11.9 0 0 1 -11.9,11.9 11.9,11.9 0 0 1 -11.9,-11.9 11.9,11.9 0 0 1 11.9,-11.9 11.9,11.9 0 0 1 11.9,11.9 z" />&#10;<path
   id="circle281-2"
   class="st39"
   style="fill:#e30613"
   d="M 243.1,533 A 11.6,11.6 0 0 1 231.5,544.6 11.6,11.6 0 0 1 219.9,533 11.6,11.6 0 0 1 231.5,521.4 11.6,11.6 0 0 1 243.1,533 Z" />&#10;&#10;&#10;<path
   id="rect1727"
   style="fill:#914f00;stroke-width:0.826086"
   class="st38"
   d="m 231.5,468.39999 h 210.04826 v 11.3 H 231.5 Z" />&#10;&#10;&#10;<path
   id="rect1727-4"
   class="st39"
   style="fill:#e30613"
   d="m 266.29999,562.09998 h 203.39999 v 11.3 H 266.29999 Z" />&#10;<path
   id="rect1727-5"
   class="st39"
   style="fill:#e30613"
   d="m 266.29999,527.40002 h 11.3 v 46.1 h -11.3 z" />&#10;&#10;&#10;&#10;<path
   id="rect1727-9"
   style="fill:#00b589;stroke-width:1.10903"
   class="st35"
   d="m 402.39999,392 h 11.3 v 291.61823 h -11.3 z" /><path
   id="rect1727-9-0"
   style="fill:#00b589;stroke-width:0.885617"
   class="st35"
   transform="rotate(90)"
   d="m 674.81946,-413.60187 h 11.3 v 185.96007 h -11.3 z" />&#10;<path
   id="rect1727-10"
   class="st38"
   style="fill:#914f00"
   d="m 430.60001,392 h 11.3 v 87.8 h -11.3 z" />&#10;<path
   id="rect1727-11"
   class="st39"
   style="fill:#e30613"
   d="m 458.39999,392 h 11.3 v 181.5 h -11.3 z" />&#10;<path
   id="rect1727-12"
   class="st40"
   style="fill:#7b217f"
   d="m 486.20001,392 h 11.3 v 499.29999 h -11.3 z" />&#10;<path
   id="circle281-5"
   class="st40"
   style="fill:#7b217f"
   d="m 243.70001,885.59998 a 11.6,11.6 0 0 1 -11.6,11.6 11.6,11.6 0 0 1 -11.6,-11.6 11.6,11.6 0 0 1 11.6,-11.6 11.6,11.6 0 0 1 11.6,11.6 z" />&#10;<path
   id="circle281-6"
   class="st40"
   style="fill:#7b217f"
   d="M 503.6,392 A 11.6,11.6 0 0 1 492,403.6 11.6,11.6 0 0 1 480.4,392 11.6,11.6 0 0 1 492,380.4 11.6,11.6 0 0 1 503.6,392 Z" />&#10;<path
   id="circle281-7"
   class="st39"
   style="fill:#e30613"
   d="m 475.80001,392 a 11.6,11.6 0 0 1 -11.6,11.6 11.6,11.6 0 0 1 -11.6,-11.6 11.6,11.6 0 0 1 11.6,-11.6 11.6,11.6 0 0 1 11.6,11.6 z" />&#10;<path
   id="circle281-8"
   class="st38"
   style="fill:#914f00"
   d="m 447.80001,392 a 11.6,11.6 0 0 1 -11.6,11.6 11.6,11.6 0 0 1 -11.6,-11.6 11.6,11.6 0 0 1 11.6,-11.6 11.6,11.6 0 0 1 11.6,11.6 z" />&#10;<path
   id="circle281-9"
   class="st35"
   style="fill:#00b589"
   d="m 419.80001,392 a 11.6,11.6 0 0 1 -11.6,11.6 11.6,11.6 0 0 1 -11.6,-11.6 11.6,11.6 0 0 1 11.6,-11.6 11.6,11.6 0 0 1 11.6,11.6 z" /><path
   id="circle281-9-9"
   style="fill:#00b589"
   class="st35"
   d="m 243.36572,679.75037 a 11.6,11.6 0 0 1 -11.6,11.6 11.6,11.6 0 0 1 -11.6,-11.6 11.6,11.6 0 0 1 11.6,-11.6 11.6,11.6 0 0 1 11.6,11.6 z" />&#10;<path
   id="rect336"
   class="st40"
   style="fill:#7b217f"
   d="M 232.10001,880 H 497.5 v 11.3 H 232.10001 Z" />&#10;</svg>
