<?xml version="1.0" encoding="UTF-8" standalone="no"?>
<!-- Generator: Adobe Illustrator 27.8.0, SVG Export Plug-In . SVG Version: 6.00 Build 0)  -->

<svg
   version="1.1"
   id="svg4098"
   x="0px"
   y="0px"
   viewBox="0 0 682 1009.2"
   style="enable-background:new 0 0 682 1009.2;"
   xml:space="preserve"
   sodipodi:docname="038-Pico.svg"
   inkscape:version="1.3 (0e150ed, 2023-07-21)"
   xmlns:inkscape="http://www.inkscape.org/namespaces/inkscape"
   xmlns:sodipodi="http://sodipodi.sourceforge.net/DTD/sodipodi-0.dtd"
   xmlns="http://www.w3.org/2000/svg"
   xmlns:svg="http://www.w3.org/2000/svg"><defs
   id="defs336" /><sodipodi:namedview
   id="namedview336"
   pagecolor="#505050"
   bordercolor="#eeeeee"
   borderopacity="1"
   inkscape:showpageshadow="0"
   inkscape:pageopacity="0"
   inkscape:pagecheckerboard="0"
   inkscape:deskcolor="#505050"
   inkscape:zoom="0.30481775"
   inkscape:cx="400.23916"
   inkscape:cy="802.11864"
   inkscape:window-width="1440"
   inkscape:window-height="900"
   inkscape:window-x="0"
   inkscape:window-y="0"
   inkscape:window-maximized="0"
   inkscape:current-layer="svg4098" />&#10;<style
   type="text/css"
   id="style1">&#10;	.st0{fill:#02814B;}&#10;	.st1{fill:#D4C547;}&#10;	.st2{fill:#525035;}&#10;	.st3{fill:#FEE86F;}&#10;	.st4{fill:#FFE17B;}&#10;	.st5{fill:#DDDDDD;}&#10;	.st6{fill:#7F7F7F;}&#10;	.st7{fill:#474544;}&#10;	.st8{fill:#E2EADE;}&#10;	.st9{fill:#C29148;}&#10;	.st10{fill:#8DDDDE;}&#10;	.st11{fill:#C1C1C1;}&#10;	.st12{fill:#C2BFAB;}&#10;	.st13{fill:none;stroke:#95AC6E;stroke-miterlimit:10;}&#10;	.st14{fill:#E8D28A;}&#10;	.st15{fill:#CECECE;}&#10;	.st16{fill:#FFFFFF;}&#10;	.st17{fill:#36323E;}&#10;	.st18{fill:#868C97;}&#10;	.st19{fill:#FCFCFA;}&#10;	.st20{fill:#141316;}&#10;	.st21{fill:#B9A68F;}&#10;	.st22{fill:#E0B45B;}&#10;	.st23{fill:#ABA28E;}&#10;	.st24{fill:none;stroke:#FFFFFF;stroke-miterlimit:10;}&#10;	.st25{fill:#1A1A1A;}&#10;	.st26{opacity:0.99;fill:#808080;enable-background:new    ;}&#10;	.st27{fill:#CCCBCB;}&#10;	.st28{fill:#2A4B9A;}&#10;	.st29{fill:#AB9C38;}&#10;	.st30{fill:#96841F;}&#10;	.st31{fill:#333333;}&#10;	.st32{fill:#989898;}&#10;	.st33{enable-background:new    ;}&#10;	.st34{fill:#CCCCCC;}&#10;	.st35{fill:#00B589;}&#10;	.st36{fill:#008000;}&#10;	.st37{fill:#54BDC2;}&#10;	.st38{fill:#914F00;}&#10;	.st39{fill:#E30613;}&#10;	.st40{fill:#7B217F;}&#10;</style>&#10;<g
   id="g264">&#10;	<path
   class="st0"
   d="M243.3,427.2v-11.9H0.2v11.9c2.3,0.9,3.9,3.1,3.9,5.7s-1.6,4.8-3.9,5.7v18.1c2.3,0.9,3.9,3.1,3.9,5.7   s-1.6,4.8-3.9,5.7v18.1c2.3,0.9,3.9,3.1,3.9,5.7s-1.6,4.8-3.9,5.7v18.1c2.3,0.9,3.9,3.1,3.9,5.7s-1.6,4.8-3.9,5.7v18.1   c2.3,0.9,3.9,3.1,3.9,5.7s-1.6,4.8-3.9,5.7v18.1c2.3,0.9,3.9,3.1,3.9,5.7s-1.6,4.8-3.9,5.7v18.1c2.3,0.9,3.9,3.1,3.9,5.7   s-1.6,4.8-3.9,5.7v18.1c2.3,0.9,3.9,3.1,3.9,5.7s-1.6,4.8-3.9,5.7v18.1c2.3,0.9,3.9,3.1,3.9,5.7s-1.6,4.8-3.9,5.7v18.1   c2.3,0.9,3.9,3.1,3.9,5.7s-1.6,4.8-3.9,5.7v18.1c2.3,0.9,3.9,3.1,3.9,5.7s-1.6,4.8-3.9,5.7v18.1c2.3,0.9,3.9,3.1,3.9,5.7   s-1.6,4.8-3.9,5.7v18.1c2.3,0.9,3.9,3.1,3.9,5.7s-1.6,4.8-3.9,5.7v18.1c2.3,0.9,3.9,3.1,3.9,5.7s-1.6,4.8-3.9,5.7v18.1   c2.3,0.9,3.9,3.1,3.9,5.7s-1.6,4.8-3.9,5.7v18.1c2.3,0.9,3.9,3.1,3.9,5.7s-1.6,4.8-3.9,5.7v18.1c2.3,0.9,3.9,3.1,3.9,5.7   s-1.6,4.8-3.9,5.7v18.1c2.3,0.9,3.9,3.1,3.9,5.7s-1.6,4.8-3.9,5.7v18c2.3,0.9,3.9,3.1,3.9,5.7s-1.6,4.8-3.9,5.7v18.1   c2.3,0.9,3.9,3.1,3.9,5.7s-1.6,4.8-3.9,5.7v11.9h78.5h7.5h11.3h18.5h11.3H146h11.3h4h82V997c-2.2-0.9-3.8-3.1-3.8-5.7   s1.6-4.8,3.8-5.7v-18.1c-2.2-0.9-3.8-3.1-3.8-5.7s1.6-4.8,3.8-5.7v-18.1c-2.2-0.9-3.8-3.1-3.8-5.7s1.6-4.8,3.8-5.7v-18.1   c-2.2-0.9-3.8-3.1-3.8-5.7s1.6-4.8,3.8-5.7v-18.1c-2.2-0.9-3.8-3.1-3.8-5.7s1.6-4.8,3.8-5.7V850c-2.2-0.9-3.8-3.1-3.8-5.7   s1.6-4.8,3.8-5.7v-18.1c-2.2-0.9-3.8-3.1-3.8-5.7s1.6-4.8,3.8-5.7v-18.1c-2.2-0.9-3.8-3.1-3.8-5.7s1.6-4.8,3.8-5.7v-18.1   c-2.2-0.9-3.8-3.1-3.8-5.7s1.6-4.8,3.8-5.7v-18.1c-2.2-0.9-3.8-3.1-3.8-5.7s1.6-4.8,3.8-5.7V703c-2.2-0.9-3.8-3.1-3.8-5.7   s1.6-4.8,3.8-5.7v-18.1c-2.2-0.9-3.8-3.1-3.8-5.7s1.6-4.8,3.8-5.7v-18.1c-2.2-0.9-3.8-3.1-3.8-5.7s1.6-4.8,3.8-5.7v-18.1   c-2.2-0.9-3.8-3.1-3.8-5.7s1.6-4.8,3.8-5.7v-18.1c-2.2-0.9-3.8-3.1-3.8-5.7s1.6-4.8,3.8-5.7V556c-2.2-0.9-3.8-3.1-3.8-5.7   s1.6-4.8,3.8-5.7v-18.1c-2.2-0.9-3.8-3.1-3.8-5.7s1.6-4.8,3.8-5.7v-18.1c-2.2-0.9-3.8-3.1-3.8-5.7s1.6-4.8,3.8-5.7v-18.1   c-2.2-0.9-3.8-3.1-3.8-5.7s1.6-4.8,3.8-5.7v-18.1c-2.2-0.9-3.8-3.1-3.8-5.7S241.1,428.1,243.3,427.2z M15.8,997.4   c-3.4,0-6.1-2.7-6.1-6.1s2.7-6.1,6.1-6.1s6.1,2.7,6.1,6.1S19.2,997.4,15.8,997.4z M15.8,968c-3.4,0-6.1-2.7-6.1-6.1   s2.7-6.1,6.1-6.1s6.1,2.7,6.1,6.1S19.2,968,15.8,968z M15.8,938.6c-3.4,0-6.1-2.7-6.1-6.1s2.7-6.1,6.1-6.1s6.1,2.7,6.1,6.1   S19.2,938.6,15.8,938.6z M15.8,909.2c-3.4,0-6.1-2.7-6.1-6.1s2.7-6.1,6.1-6.1s6.1,2.7,6.1,6.1S19.2,909.2,15.8,909.2z M15.8,879.8   c-3.4,0-6.1-2.7-6.1-6.1s2.7-6.1,6.1-6.1s6.1,2.7,6.1,6.1S19.2,879.8,15.8,879.8z M15.8,850.4c-3.4,0-6.1-2.7-6.1-6.1   s2.7-6.1,6.1-6.1s6.1,2.7,6.1,6.1S19.2,850.4,15.8,850.4z M15.8,821c-3.4,0-6.1-2.7-6.1-6.1s2.7-6.1,6.1-6.1s6.1,2.7,6.1,6.1   S19.2,821,15.8,821z M15.8,791.6c-3.4,0-6.1-2.7-6.1-6.1s2.7-6.1,6.1-6.1s6.1,2.7,6.1,6.1S19.2,791.6,15.8,791.6z M15.8,762.2   c-3.4,0-6.1-2.7-6.1-6.1s2.7-6.1,6.1-6.1s6.1,2.7,6.1,6.1S19.2,762.2,15.8,762.2z M15.8,732.8c-3.4,0-6.1-2.7-6.1-6.1   s2.7-6.1,6.1-6.1s6.1,2.7,6.1,6.1S19.2,732.8,15.8,732.8z M15.8,703.5c-3.4,0-6.1-2.7-6.1-6.1s2.7-6.1,6.1-6.1s6.1,2.7,6.1,6.1   S19.2,703.5,15.8,703.5z M15.8,674.1c-3.4,0-6.1-2.7-6.1-6.1s2.7-6.1,6.1-6.1s6.1,2.7,6.1,6.1S19.2,674.1,15.8,674.1z M15.8,644.7   c-3.4,0-6.1-2.7-6.1-6.1s2.7-6.1,6.1-6.1s6.1,2.7,6.1,6.1S19.2,644.7,15.8,644.7z M15.8,615.3c-3.4,0-6.1-2.7-6.1-6.1   s2.7-6.1,6.1-6.1s6.1,2.7,6.1,6.1S19.2,615.3,15.8,615.3z M15.8,585.9c-3.4,0-6.1-2.7-6.1-6.1s2.7-6.1,6.1-6.1s6.1,2.7,6.1,6.1   S19.2,585.9,15.8,585.9z M15.8,556.5c-3.4,0-6.1-2.7-6.1-6.1s2.7-6.1,6.1-6.1s6.1,2.7,6.1,6.1S19.2,556.5,15.8,556.5z M15.8,527.1   c-3.4,0-6.1-2.7-6.1-6.1s2.7-6.1,6.1-6.1c3.4,0,6.1,2.7,6.1,6.1S19.2,527.1,15.8,527.1z M15.8,497.7c-3.4,0-6.1-2.7-6.1-6.1   s2.7-6.1,6.1-6.1s6.1,2.7,6.1,6.1S19.2,497.7,15.8,497.7z M15.8,468.3c-3.4,0-6.1-2.7-6.1-6.1s2.7-6.1,6.1-6.1s6.1,2.7,6.1,6.1   S19.2,468.3,15.8,468.3z M15.8,438.9c-3.4,0-6.1-2.7-6.1-6.1s2.7-6.1,6.1-6.1s6.1,2.7,6.1,6.1S19.2,438.9,15.8,438.9z M53.7,997.4   c-6.7,0-12.1-5.4-12.1-12.1s5.4-12.1,12.1-12.1c6.7,0,12.1,5.4,12.1,12.1S60.4,997.4,53.7,997.4z M53.7,450.2   c-6.7,0-12.1-5.4-12.1-12.1c0-6.7,5.4-12.1,12.1-12.1c6.7,0,12.1,5.4,12.1,12.1C65.8,444.8,60.4,450.2,53.7,450.2z M127.6,783.4   c-3.1,0-5.7-2.6-5.7-5.7s2.6-5.7,5.7-5.7c3.1,0,5.7,2.6,5.7,5.7S130.7,783.4,127.6,783.4z M157,783.4c-3.1,0-5.7-2.6-5.7-5.7   s2.6-5.7,5.7-5.7c3.1,0,5.7,2.6,5.7,5.7S160.2,783.4,157,783.4z M186.2,426c6.7,0,12.1,5.4,12.1,12.1c0,6.7-5.4,12.1-12.1,12.1   s-12.1-5.4-12.1-12.1C174.1,431.4,179.6,426,186.2,426z M192.5,777.7c0,3.1-2.6,5.7-5.7,5.7c-3.1,0-5.7-2.6-5.7-5.7   s2.6-5.7,5.7-5.7C190,772,192.5,774.6,192.5,777.7z M188.2,997.4c-6.7,0-12.1-5.4-12.1-12.1s5.4-12.1,12.1-12.1s12.1,5.4,12.1,12.1   S194.9,997.4,188.2,997.4z M227.8,997.4c-3.4,0-6.1-2.7-6.1-6.1s2.7-6.1,6.1-6.1s6.1,2.7,6.1,6.1S231.2,997.4,227.8,997.4z    M227.8,968c-3.4,0-6.1-2.7-6.1-6.1s2.7-6.1,6.1-6.1s6.1,2.7,6.1,6.1S231.2,968,227.8,968z M227.8,938.6c-3.4,0-6.1-2.7-6.1-6.1   s2.7-6.1,6.1-6.1s6.1,2.7,6.1,6.1S231.2,938.6,227.8,938.6z M227.8,909.2c-3.4,0-6.1-2.7-6.1-6.1s2.7-6.1,6.1-6.1s6.1,2.7,6.1,6.1   S231.2,909.2,227.8,909.2z M227.8,879.8c-3.4,0-6.1-2.7-6.1-6.1s2.7-6.1,6.1-6.1s6.1,2.7,6.1,6.1S231.2,879.8,227.8,879.8z    M227.8,850.4c-3.4,0-6.1-2.7-6.1-6.1s2.7-6.1,6.1-6.1s6.1,2.7,6.1,6.1S231.2,850.4,227.8,850.4z M227.8,821   c-3.4,0-6.1-2.7-6.1-6.1s2.7-6.1,6.1-6.1s6.1,2.7,6.1,6.1S231.2,821,227.8,821z M227.8,791.6c-3.4,0-6.1-2.7-6.1-6.1   s2.7-6.1,6.1-6.1s6.1,2.7,6.1,6.1S231.2,791.6,227.8,791.6z M227.8,762.2c-3.4,0-6.1-2.7-6.1-6.1s2.7-6.1,6.1-6.1s6.1,2.7,6.1,6.1   S231.2,762.2,227.8,762.2z M227.8,732.8c-3.4,0-6.1-2.7-6.1-6.1s2.7-6.1,6.1-6.1s6.1,2.7,6.1,6.1S231.2,732.8,227.8,732.8z    M227.8,703.5c-3.4,0-6.1-2.7-6.1-6.1s2.7-6.1,6.1-6.1s6.1,2.7,6.1,6.1S231.2,703.5,227.8,703.5z M227.8,674.1   c-3.4,0-6.1-2.7-6.1-6.1s2.7-6.1,6.1-6.1s6.1,2.7,6.1,6.1S231.2,674.1,227.8,674.1z M227.8,644.7c-3.4,0-6.1-2.7-6.1-6.1   s2.7-6.1,6.1-6.1s6.1,2.7,6.1,6.1S231.2,644.7,227.8,644.7z M227.8,615.3c-3.4,0-6.1-2.7-6.1-6.1s2.7-6.1,6.1-6.1s6.1,2.7,6.1,6.1   S231.2,615.3,227.8,615.3z M227.8,585.9c-3.4,0-6.1-2.7-6.1-6.1s2.7-6.1,6.1-6.1s6.1,2.7,6.1,6.1S231.2,585.9,227.8,585.9z    M227.8,556.5c-3.4,0-6.1-2.7-6.1-6.1s2.7-6.1,6.1-6.1s6.1,2.7,6.1,6.1S231.2,556.5,227.8,556.5z M227.8,527.1   c-3.4,0-6.1-2.7-6.1-6.1s2.7-6.1,6.1-6.1s6.1,2.7,6.1,6.1S231.2,527.1,227.8,527.1z M227.8,497.7c-3.4,0-6.1-2.7-6.1-6.1   s2.7-6.1,6.1-6.1s6.1,2.7,6.1,6.1S231.2,497.7,227.8,497.7z M227.8,468.3c-3.4,0-6.1-2.7-6.1-6.1s2.7-6.1,6.1-6.1s6.1,2.7,6.1,6.1   S231.2,468.3,227.8,468.3z M227.8,438.9c-3.4,0-6.1-2.7-6.1-6.1s2.7-6.1,6.1-6.1s6.1,2.7,6.1,6.1S231.2,438.9,227.8,438.9z"
   id="path1" />&#10;	<path
   class="st1"
   d="M53.7,417.6c-11.3,0-20.5,9.2-20.5,20.5c0,11.3,9.2,20.5,20.5,20.5s20.5-9.2,20.5-20.5   C74.3,426.8,65.1,417.6,53.7,417.6z M53.7,450.2c-6.7,0-12.1-5.4-12.1-12.1c0-6.7,5.4-12.1,12.1-12.1c6.7,0,12.1,5.4,12.1,12.1   C65.8,444.8,60.4,450.2,53.7,450.2z"
   id="path2" />&#10;	<path
   class="st1"
   d="M186.3,417.6c-11.3,0-20.5,9.2-20.5,20.5c0,11.3,9.2,20.5,20.5,20.5c11.3,0,20.5-9.2,20.5-20.5   C206.8,426.8,197.6,417.6,186.3,417.6z M186.3,450.2c-6.7,0-12.1-5.4-12.1-12.1c0-6.7,5.4-12.1,12.1-12.1c6.7,0,12.1,5.4,12.1,12.1   C198.4,444.8,193,450.2,186.3,450.2z"
   id="path3" />&#10;	<path
   class="st1"
   d="M53.7,964.7c-11.3,0-20.5,9.2-20.5,20.5s9.2,20.5,20.5,20.5s20.5-9.2,20.5-20.5S65.1,964.7,53.7,964.7z    M53.7,997.4c-6.7,0-12.1-5.4-12.1-12.1s5.4-12.1,12.1-12.1c6.7,0,12.1,5.4,12.1,12.1S60.4,997.4,53.7,997.4z"
   id="path4" />&#10;	<path
   class="st1"
   d="M188.3,964.7c-11.3,0-20.5,9.2-20.5,20.5s9.2,20.5,20.5,20.5c11.3,0,20.5-9.2,20.5-20.5   S199.6,964.7,188.3,964.7z M188.3,997.4c-6.7,0-12.1-5.4-12.1-12.1s5.4-12.1,12.1-12.1c6.7,0,12.1,5.4,12.1,12.1   S195,997.4,188.3,997.4z"
   id="path5" />&#10;	<path
   id="circle5"
   class="st2"
   style="fill:#525035"
   d="m 65.6,502.79999 a 10.6,10.6 0 0 1 -10.6,10.6 10.6,10.6 0 0 1 -10.6,-10.6 10.6,10.6 0 0 1 10.6,-10.6 10.6,10.6 0 0 1 10.6,10.6 z" />&#10;	<path
   id="circle6"
   class="st3"
   style="fill:#fee86f"
   d="m 60.5,502.79999 a 5.5,5.5 0 0 1 -5.5,5.5 5.5,5.5 0 0 1 -5.5,-5.5 5.5,5.5 0 0 1 5.5,-5.5 5.5,5.5 0 0 1 5.5,5.5 z" />&#10;	<path
   class="st4"
   d="M17.5,482.6H0.3v3.4c2.3,0.9,3.9,3.1,3.9,5.7s-1.6,4.8-3.9,5.7v3.4h17.2c5,0,9-4,9-9v0   C26.5,486.6,22.4,482.6,17.5,482.6z M15.9,497.7c-3.4,0-6.1-2.7-6.1-6.1s2.7-6.1,6.1-6.1s6.1,2.7,6.1,6.1S19.2,497.7,15.9,497.7z"
   id="path6" />&#10;	<path
   class="st4"
   d="M17.5,629.6H0.3v3.4c2.3,0.9,3.9,3.1,3.9,5.7s-1.6,4.8-3.9,5.7v3.4h17.2c5,0,9-4,9-9S22.4,629.6,17.5,629.6z    M15.9,644.7c-3.4,0-6.1-2.7-6.1-6.1s2.7-6.1,6.1-6.1s6.1,2.7,6.1,6.1S19.2,644.7,15.9,644.7z"
   id="path7" />&#10;	<path
   class="st4"
   d="M17.5,776.6H0.3v3.4c2.3,0.9,3.9,3.1,3.9,5.7s-1.6,4.8-3.9,5.7v3.4h17.2c5,0,9-4,9-9S22.4,776.6,17.5,776.6z    M15.9,791.7c-3.4,0-6.1-2.7-6.1-6.1s2.7-6.1,6.1-6.1s6.1,2.7,6.1,6.1S19.2,791.7,15.9,791.7z"
   id="path8" />&#10;	<path
   class="st4"
   d="M17.5,806H0.3v3.4c2.3,0.9,3.9,3.1,3.9,5.7s-1.6,4.8-3.9,5.7v3.4h17.2c5,0,9-4,9-9S22.4,806,17.5,806z    M15.9,821.1c-3.4,0-6.1-2.7-6.1-6.1s2.7-6.1,6.1-6.1s6.1,2.7,6.1,6.1S19.2,821.1,15.9,821.1z"
   id="path9" />&#10;	<path
   class="st4"
   d="M17.5,835.4H0.3v3.4c2.3,0.9,3.9,3.1,3.9,5.7s-1.6,4.8-3.9,5.7v3.4h17.2c5,0,9-4,9-9S22.4,835.4,17.5,835.4z    M15.9,850.5c-3.4,0-6.1-2.7-6.1-6.1s2.7-6.1,6.1-6.1s6.1,2.7,6.1,6.1S19.2,850.5,15.9,850.5z"
   id="path10" />&#10;	<path
   class="st4"
   d="M17.5,864.7H0.3v3.4c2.3,0.9,3.9,3.1,3.9,5.7s-1.6,4.8-3.9,5.7v3.4h17.2c5,0,9-4,9-9S22.4,864.7,17.5,864.7z    M15.9,879.9c-3.4,0-6.1-2.7-6.1-6.1s2.7-6.1,6.1-6.1s6.1,2.7,6.1,6.1S19.2,879.9,15.9,879.9z"
   id="path11" />&#10;	<path
   class="st4"
   d="M17.5,923.5H0.3v3.4c2.3,0.9,3.9,3.1,3.9,5.7s-1.6,4.8-3.9,5.7v3.4h17.2c5,0,9-4,9-9v0   C26.5,927.6,22.4,923.5,17.5,923.5z M15.9,938.6c-3.4,0-6.1-2.7-6.1-6.1s2.7-6.1,6.1-6.1s6.1,2.7,6.1,6.1S19.2,938.6,15.9,938.6z"
   id="path12" />&#10;	<path
   class="st4"
   d="M17.5,952.9H0.3v3.4c2.3,0.9,3.9,3.1,3.9,5.7s-1.6,4.8-3.9,5.7v3.4h17.2c5,0,9-4,9-9v0   C26.5,957,22.4,952.9,17.5,952.9z M15.9,968c-3.4,0-6.1-2.7-6.1-6.1s2.7-6.1,6.1-6.1s6.1,2.7,6.1,6.1S19.2,968,15.9,968z"
   id="path13" />&#10;	<path
   class="st4"
   d="M17.5,982.3H0.3v3.4c2.3,0.9,3.9,3.1,3.9,5.7s-1.6,4.8-3.9,5.7v3.4h17.2c5,0,9-4,9-9S22.4,982.3,17.5,982.3z    M15.9,997.4c-3.4,0-6.1-2.7-6.1-6.1s2.7-6.1,6.1-6.1s6.1,2.7,6.1,6.1S19.2,997.4,15.9,997.4z"
   id="path14" />&#10;	<path
   class="st4"
   d="M239.5,432.8c0-2.6,1.6-4.8,3.9-5.7v-3.4h-17.2c-5,0-9,4-9,9s4,9,9,9h17.2v-3.4   C241.2,437.6,239.5,435.4,239.5,432.8z M227.8,438.9c-3.4,0-6.1-2.7-6.1-6.1s2.7-6.1,6.1-6.1s6.1,2.7,6.1,6.1   S231.2,438.9,227.8,438.9z"
   id="path15" />&#10;	<path
   class="st4"
   d="M239.5,462.2c0-2.6,1.6-4.8,3.9-5.7v-3.4h-17.2c-5,0-9,4-9,9v0c0,5,4,9,9,9h17.2v-3.4   C241.2,467,239.5,464.8,239.5,462.2z M227.8,468.3c-3.4,0-6.1-2.7-6.1-6.1s2.7-6.1,6.1-6.1s6.1,2.7,6.1,6.1   S231.2,468.3,227.8,468.3z"
   id="path16" />&#10;	<path
   class="st4"
   d="M239.5,491.6c0-2.6,1.6-4.8,3.9-5.7v-3.4h-17.2c-5,0-9,4-9,9v0c0,5,4,9,9,9h17.2v-3.4   C241.2,496.4,239.5,494.2,239.5,491.6z M227.8,497.7c-3.4,0-6.1-2.7-6.1-6.1s2.7-6.1,6.1-6.1s6.1,2.7,6.1,6.1   S231.2,497.7,227.8,497.7z"
   id="path17" />&#10;	<path
   class="st4"
   d="M239.5,521c0-2.6,1.6-4.8,3.9-5.7V512h-17.2c-5,0-9,4-9,9s4,9,9,9h17.2v-3.4   C241.2,525.8,239.5,523.6,239.5,521z M227.8,527.1c-3.4,0-6.1-2.7-6.1-6.1s2.7-6.1,6.1-6.1s6.1,2.7,6.1,6.1   S231.2,527.1,227.8,527.1z"
   id="path18" />&#10;	<path
   class="st4"
   d="M239.5,550.4c0-2.6,1.6-4.8,3.9-5.7v-3.4h-17.2c-5,0-9,4-9,9s4,9,9,9h17.2v-3.4   C241.2,555.2,239.5,553,239.5,550.4z M227.8,556.5c-3.4,0-6.1-2.7-6.1-6.1s2.7-6.1,6.1-6.1s6.1,2.7,6.1,6.1   S231.2,556.5,227.8,556.5z"
   id="path19" />&#10;	<path
   class="st4"
   d="M239.5,579.8c0-2.6,1.6-4.8,3.9-5.7v-3.4h-17.2c-5,0-9,4-9,9s4,9,9,9h17.2v-3.4   C241.2,584.6,239.5,582.4,239.5,579.8z M227.8,585.9c-3.4,0-6.1-2.7-6.1-6.1s2.7-6.1,6.1-6.1s6.1,2.7,6.1,6.1   S231.2,585.9,227.8,585.9z"
   id="path20" />&#10;	<path
   class="st4"
   d="M239.5,638.6c0-2.6,1.6-4.8,3.9-5.7v-3.4h-17.2c-5,0-9,4-9,9s4,9,9,9h17.2v-3.4   C241.2,643.4,239.5,641.2,239.5,638.6z M227.8,644.7c-3.4,0-6.1-2.7-6.1-6.1s2.7-6.1,6.1-6.1s6.1,2.7,6.1,6.1   S231.2,644.7,227.8,644.7z"
   id="path21" />&#10;	<path
   class="st4"
   d="M239.5,697.4c0-2.6,1.6-4.8,3.9-5.7v-3.4h-17.2c-5,0-9,4-9,9v0c0,5,4,9,9,9h17.2v-3.4   C241.2,702.2,239.5,700,239.5,697.4z M227.8,703.5c-3.4,0-6.1-2.7-6.1-6.1s2.7-6.1,6.1-6.1s6.1,2.7,6.1,6.1   S231.2,703.5,227.8,703.5z"
   id="path22" />&#10;	<path
   class="st4"
   d="M239.5,726.8c0-2.6,1.6-4.8,3.9-5.7v-3.4h-17.2c-5,0-9,4-9,9v0c0,5,4,9,9,9h17.2v-3.4   C241.2,731.6,239.5,729.4,239.5,726.8z M227.8,732.9c-3.4,0-6.1-2.7-6.1-6.1s2.7-6.1,6.1-6.1s6.1,2.7,6.1,6.1   S231.2,732.9,227.8,732.9z"
   id="path23" />&#10;	<path
   class="st4"
   d="M239.5,756.2c0-2.6,1.6-4.8,3.9-5.7v-3.4h-17.2c-5,0-9,4-9,9s4,9,9,9h17.2v-3.4   C241.2,761,239.5,758.8,239.5,756.2z M227.8,762.3c-3.4,0-6.1-2.7-6.1-6.1s2.7-6.1,6.1-6.1s6.1,2.7,6.1,6.1   S231.2,762.3,227.8,762.3z"
   id="path24" />&#10;	<path
   class="st4"
   d="M239.5,785.6c0-2.6,1.6-4.8,3.9-5.7v-3.4h-17.2c-5,0-9,4-9,9s4,9,9,9h17.2v-3.4   C241.2,790.4,239.5,788.2,239.5,785.6z M227.8,791.7c-3.4,0-6.1-2.7-6.1-6.1s2.7-6.1,6.1-6.1s6.1,2.7,6.1,6.1   S231.2,791.7,227.8,791.7z"
   id="path25" />&#10;	<path
   class="st4"
   d="M239.5,815c0-2.6,1.6-4.8,3.9-5.7V806h-17.2c-5,0-9,4-9,9s4,9,9,9h17.2v-3.4   C241.2,819.8,239.5,817.6,239.5,815z M227.8,821.1c-3.4,0-6.1-2.7-6.1-6.1s2.7-6.1,6.1-6.1s6.1,2.7,6.1,6.1   S231.2,821.1,227.8,821.1z"
   id="path26" />&#10;	<path
   class="st4"
   d="M239.5,844.4c0-2.6,1.6-4.8,3.9-5.7v-3.4h-17.2c-5,0-9,4-9,9s4,9,9,9h17.2V850   C241.2,849.2,239.5,847,239.5,844.4z M227.8,850.5c-3.4,0-6.1-2.7-6.1-6.1s2.7-6.1,6.1-6.1s6.1,2.7,6.1,6.1   S231.2,850.5,227.8,850.5z"
   id="path27" />&#10;	<path
   class="st4"
   d="M239.5,873.8c0-2.6,1.6-4.8,3.9-5.7v-3.4h-17.2c-5,0-9,4-9,9s4,9,9,9h17.2v-3.4   C241.2,878.6,239.5,876.4,239.5,873.8z M227.8,879.9c-3.4,0-6.1-2.7-6.1-6.1s2.7-6.1,6.1-6.1s6.1,2.7,6.1,6.1   S231.2,879.9,227.8,879.9z"
   id="path28" />&#10;	<path
   class="st4"
   d="M239.5,932.6c0-2.6,1.6-4.8,3.9-5.7v-3.4h-17.2c-5,0-9,4-9,9v0c0,5,4,9,9,9h17.2v-3.4   C241.2,937.3,239.5,935.1,239.5,932.6z M227.8,938.6c-3.4,0-6.1-2.7-6.1-6.1s2.7-6.1,6.1-6.1s6.1,2.7,6.1,6.1   S231.2,938.6,227.8,938.6z"
   id="path29" />&#10;	<path
   class="st4"
   d="M239.5,962c0-2.6,1.6-4.8,3.9-5.7v-3.4h-17.2c-5,0-9,4-9,9v0c0,5,4,9,9,9h17.2v-3.4   C241.2,966.7,239.5,964.5,239.5,962z M227.8,968c-3.4,0-6.1-2.7-6.1-6.1s2.7-6.1,6.1-6.1s6.1,2.7,6.1,6.1S231.2,968,227.8,968z"
   id="path30" />&#10;	<path
   class="st5"
   d="M163.1,404.7l4.4-4.4l-2.3-2.3l-6.6,6.6h-1.5V400c0-1.2-1-2.2-2.2-2.2H85.4c-1.2,0-2.2,1-2.2,2.2v4.7h-1.5   l-6.6-6.6l-2.3,2.3l4.4,4.4c-0.6,0.2-1,0.8-1,1.4v56.3c0,0.9,0.7,1.6,1.6,1.6h84.6c0.9,0,1.6-0.7,1.6-1.6v-56.3   C164,405.5,163.6,405,163.1,404.7z"
   id="path31" />&#10;	<g
   id="g33">&#10;		<path
   class="st6"
   d="M100.3,427c0-3.2-2.6-5.8-5.8-5.8s-5.8,2.6-5.8,5.8c0,1.4,0.5,2.7,1.3,3.7h-0.2v7.7c0,1.2,1,2.1,2.1,2.1H97    c1.2,0,2.1-1,2.1-2.1v-7.7H99C99.8,429.7,100.3,428.4,100.3,427z"
   id="path32" />&#10;		<path
   class="st6"
   d="M155.5,427c0-3.2-2.6-5.8-5.8-5.8s-5.8,2.6-5.8,5.8c0,1.4,0.5,2.7,1.3,3.7H145v7.7c0,1.2,1,2.1,2.1,2.1h5.1    c1.2,0,2.1-1,2.1-2.1v-7.7h-0.2C155,429.7,155.5,428.4,155.5,427z"
   id="path33" />&#10;	</g>&#10;	<path
   class="st7"
   d="M200.9,557.2h-21c-1.2,0-2.2-1-2.2-2.2v-26.7c0-1.2,1-2.2,2.2-2.2h21c1.2,0,2.2,1,2.2,2.2V555   C203,556.2,202.1,557.2,200.9,557.2z"
   id="path34" />&#10;	<g
   id="g35">&#10;		<path
   id="rect34"
   class="st8"
   style="fill:#e2eade"
   d="m 132,493.29999 h 21.7 v 14.4 H 132 Z" />&#10;		<path
   class="st9"
   d="M149.3,507.8c-2-1.8-3.2-4.4-3.2-7.2s1.2-5.4,3.2-7.2h-12.8c2,1.8,3.2,4.4,3.2,7.2s-1.2,5.4-3.2,7.2H149.3z"
   id="path35" />&#10;	</g>&#10;	<g
   id="g36">&#10;		<path
   id="rect35"
   class="st8"
   style="fill:#e2eade"
   d="M 132.3,578.70001 H 154 v 14.4 h -21.7 z" />&#10;		<path
   class="st9"
   d="M149.6,593.1c-2-1.8-3.2-4.4-3.2-7.2s1.2-5.4,3.2-7.2h-12.8c2,1.8,3.2,4.4,3.2,7.2s-1.2,5.4-3.2,7.2H149.6z"
   id="path36" />&#10;	</g>&#10;	<g
   id="g37">&#10;		<path
   id="rect36"
   class="st8"
   style="fill:#e2eade"
   d="M 132.3,597.79999 H 154 v 14.4 h -21.7 z" />&#10;		<path
   class="st9"
   d="M149.6,612.3c-2-1.8-3.2-4.4-3.2-7.2s1.2-5.4,3.2-7.2h-12.8c2,1.8,3.2,4.4,3.2,7.2s-1.2,5.4-3.2,7.2H149.6z"
   id="path37" />&#10;	</g>&#10;	<g
   id="g38">&#10;		&#10;			<path
   id="rect37"
   class="st8"
   transform="matrix(6.123234e-17 -1 1 6.123234e-17 -584.9906 718.027)"
   style="fill:#e2eade"
   d="m 63.799999,646.20001 h 5.4 v 10.6 h -5.4 z" />&#10;		&#10;			<path
   id="rect38"
   class="st9"
   transform="matrix(6.123234e-17 -1 1 6.123234e-17 -584.9906 718.027)"
   style="fill:#c29148"
   d="m 63.799999,648.5 h 5.4 v 6 h -5.4 z" />&#10;	</g>&#10;	<g
   id="g40">&#10;		<path
   id="rect39"
   class="st8"
   style="fill:#e2eade"
   d="m 177.10001,628.79999 h 5.4 v 10.6 h -5.4 z" />&#10;		<path
   id="rect40"
   class="st9"
   style="fill:#c29148"
   d="m 177.10001,631.09998 h 5.4 v 6 h -5.4 z" />&#10;	</g>&#10;	<path
   id="rect41"
   class="st7"
   style="fill:#474544"
   d="m 179.5,478.79999 h 18.9 v 29.3 h -18.9 z" />&#10;	<g
   id="g43">&#10;		<path
   id="rect42"
   class="st8"
   style="fill:#e2eade"
   d="m 171.60001,580 h 20.6 v 9.6 h -20.6 z" />&#10;		<path
   id="rect43"
   class="st10"
   style="fill:#8dddde"
   d="m 176.2,580 h 11.5 v 9.6 h -11.5 z" />&#10;	</g>&#10;	<path
   id="rect44"
   class="st9"
   style="fill:#c29148"
   d="m 120.2,748.09998 h 4.2 v 6.9 h -4.2 z" />&#10;	<path
   id="rect45"
   class="st9"
   style="fill:#c29148"
   d="m 126.9,748.09998 h 4.2 v 6.9 h -4.2 z" />&#10;	&#10;		<path
   id="rect46"
   class="st9"
   transform="matrix(6.123234e-17 -1 1 6.123234e-17 -592.7872 730.2699)"
   style="fill:#c29148"
   d="m 66.599998,658.09998 h 4.2 v 6.9 h -4.2 z" />&#10;	&#10;		<path
   id="rect47"
   class="st9"
   transform="matrix(6.123234e-17 -1 1 6.123234e-17 -502.7225 686.0469)"
   style="fill:#c29148"
   d="m 89.5,591 h 4.2 v 6.9 h -4.2 z" />&#10;	&#10;		<path
   id="rect48"
   class="st9"
   transform="matrix(6.123234e-17 -1 1 6.123234e-17 -636.7413 773.5115)"
   style="fill:#c29148"
   d="m 66.300003,701.70001 h 4.2 v 6.9 h -4.2 z" />&#10;	<path
   id="rect49"
   class="st7"
   style="fill:#474544"
   d="m 195,706.90002 h 4.2 v 6.9 H 195 Z" />&#10;	&#10;		<path
   id="rect50"
   class="st7"
   transform="matrix(6.123234e-17 -1 1 6.123234e-17 -457.7711 840.4228)"
   style="fill:#474544"
   d="m 189.2,645.70001 h 4.2 v 6.9 h -4.2 z" />&#10;	&#10;		<path
   id="rect51"
   class="st7"
   transform="matrix(6.123234e-17 -1 1 6.123234e-17 -404.0894 582.752)"
   style="fill:#474544"
   d="m 87.199997,490 h 4.2 v 6.9 h -4.2 z" />&#10;	&#10;		<path
   id="rect52"
   class="st7"
   transform="matrix(6.123234e-17 -1 1 6.123234e-17 -421.2046 590.1115)"
   style="fill:#474544"
   d="m 82.300003,502.20001 h 4.2 v 6.9 h -4.2 z" />&#10;	&#10;		<path
   id="rect53"
   class="st7"
   transform="matrix(6.123234e-17 -1 1 6.123234e-17 -403.1613 793.0757)"
   style="fill:#474544"
   d="m 192.8,594.70001 h 4.2 v 6.9 h -4.2 z" />&#10;	<path
   class="st11"
   d="M186.3,911.8H57.5c-2.1,0-3.9-1.7-3.9-3.9V799.8c0-2.1,1.7-3.9,3.9-3.9h128.8c2.1,0,3.9,1.7,3.9,3.9v108.1   C190.2,910.1,188.5,911.8,186.3,911.8z"
   id="path53" />&#10;	<path
   id="rect54"
   class="st12"
   style="fill:#c2bfab"
   d="M 101.5,958.09998 H 112 v 5.9 h -10.5 z" />&#10;	<path
   id="rect55"
   class="st12"
   style="fill:#c2bfab"
   d="m 130.3,958.20001 h 10.5 v 5.9 h -10.5 z" />&#10;	<path
   id="rect56"
   class="st12"
   style="fill:#c2bfab"
   d="M 101.5,995.79999 H 112 V 1001.7 h -10.5 z" />&#10;	<path
   id="rect57"
   class="st12"
   style="fill:#c2bfab"
   d="m 130.3,996 h 10.5 v 5.9 h -10.5 z" />&#10;	<path
   id="polyline57"
   class="st13"
   style="fill:none;stroke:#95ac6e;stroke-miterlimit:10"
   d="m 17.5,440.6 v 4.4 l 17.9,18 v 48.6 L 51,527.2 v 134.7 l 4.9,5 h 35.3" />&#10;	<path
   id="polyline58"
   class="st13"
   style="fill:none;stroke:#95ac6e;stroke-miterlimit:10"
   d="m 22.9,467.5 8.1,8 v 37.9 l 15.7,15.7 v 135.3 l 5.9,5.9 H 91" />&#10;	<path
   id="polyline59"
   class="st13"
   style="fill:none;stroke:#95ac6e;stroke-miterlimit:10"
   d="M 23.2,525.9 43,545.7 v 121.1 l 10.4,10.5 H 95" />&#10;	<path
   id="polyline60"
   class="st13"
   style="fill:none;stroke:#95ac6e;stroke-miterlimit:10"
   d="m 23.2,555.3 16.6,16.6 v 96.9 l 12.1,12.1 h 43.2" />&#10;	<path
   id="polyline61"
   class="st13"
   style="fill:none;stroke:#95ac6e;stroke-miterlimit:10"
   d="m 23.2,585.5 12.4,12.3 v 76 l 13.9,14 h 43.9" />&#10;	<path
   id="polyline62"
   class="st13"
   style="fill:none;stroke:#95ac6e;stroke-miterlimit:10"
   d="m 22.9,613.6 8.7,8.7 v 54.2 l 14.8,14.8 h 49.7" />&#10;	<path
   id="polyline63"
   class="st13"
   style="fill:none;stroke:#95ac6e;stroke-miterlimit:10"
   d="m 22.9,672.3 22.4,22.4 h 57.4" />&#10;	<path
   id="line63"
   class="st13"
   style="fill:none;stroke:#95ac6e;stroke-miterlimit:10"
   d="M 23.700001,698.20001 H 98.800003" />&#10;	<path
   class="st13"
   d="M23.2,724.5c0.1-0.6,17.3-17.3,17.3-17.3H53l4.9,4.9h45.7"
   id="path63" />&#10;	<path
   id="polyline64"
   class="st13"
   style="fill:none;stroke:#95ac6e;stroke-miterlimit:10"
   d="m 20.4,750.4 5.3,-5.3 v -7.8 l 5.2,-5.1 v -8.4 l 13,-13.1 h 8.7 l 4.7,4.7 h 38" />&#10;	<path
   class="st13"
   d="M30.7,740.6l3.4-3.4c0,0-0.7-8.9,0-9.6c0.7-0.7,6-6,6-6l6.3-6.3h6.1l3.7,3.7h35.1"
   id="path64" />&#10;	<path
   id="polyline65"
   class="st13"
   style="fill:none;stroke:#95ac6e;stroke-miterlimit:10"
   d="m 29.1,796.6 v -47.7 l 9.6,-9.5 h 54.7 l 1.6,-1.7 v -9.6" />&#10;	<path
   id="polyline66"
   class="st13"
   style="fill:none;stroke:#95ac6e;stroke-miterlimit:10"
   d="m 17.5,894.8 v -3.6 l 15.4,-15.5 v -80.3 l 2.8,-2.7 v -41.8 l 6.3,-6.3 h 52.2 l 4.2,-4.2 V 733" />&#10;	<path
   class="st13"
   d="M35.7,778.4"
   id="path66" />&#10;	<path
   class="st13"
   d="M35.7,793.6"
   id="path67" />&#10;	<path
   id="polyline67"
   class="st13"
   style="fill:none;stroke:#95ac6e;stroke-miterlimit:10"
   d="m 23.6,955.4 6.8,-6.8 V 884 l 7.1,-5.9" />&#10;	<path
   id="polyline68"
   class="st13"
   style="fill:none;stroke:#95ac6e;stroke-miterlimit:10"
   d="m 35.6,888.4 7,-7 V 791.7 L 39.9,789 v -36.9 l 4.7,-4.6 h 50.3 l 7,-7 v -16.6" />&#10;	<path
   id="polyline69"
   class="st13"
   style="fill:none;stroke:#95ac6e;stroke-miterlimit:10"
   d="m 108.9,730.6 v 8.8 l -13,13 h -4.4" />&#10;	<path
   id="polyline70"
   class="st13"
   style="fill:none;stroke:#95ac6e;stroke-miterlimit:10"
   d="m 93.9,761 18.5,-18.5 v -15.4" />&#10;	<path
   id="polyline71"
   class="st13"
   style="fill:none;stroke:#95ac6e;stroke-miterlimit:10"
   d="m 115.9,732.5 v 11.6 l -13.7,13.7 v 20 l -6.3,6.3 H 65 l -9.5,-9.5" />&#10;	<path
   id="polyline72"
   class="st13"
   style="fill:none;stroke:#95ac6e;stroke-miterlimit:10"
   d="m 133.9,771.4 4.8,-4.8 v -13.3 l -3.2,-3.1 v -10 l -3.1,-3.2 v -10.9" />&#10;	<path
   id="polyline73"
   class="st13"
   style="fill:none;stroke:#95ac6e;stroke-miterlimit:10"
   d="m 137.3,730.2 v 7.8 l 2,2 v 6.4 l 13.4,13.4 h 12.2 l 14.2,14.3" />&#10;	<path
   id="polyline74"
   class="st13"
   style="fill:none;stroke:#95ac6e;stroke-miterlimit:10"
   d="m 145.3,728 v 10.4 l 6,6 h 21 l 28.2,28.2 v 112.6 l 6.2,6.2 v 50.9 l 5.6,5.5 V 968 l 11,11.1 v 5.3" />&#10;	<path
   id="polyline75"
   class="st13"
   style="fill:none;stroke:#95ac6e;stroke-miterlimit:10"
   d="m 150.7,728.4 v 7.3 l 4,4.1 h 18.9 l 31.6,31.5 v 111.5 l 6.2,6.2 v 52.6 l 4.2,4.2 v 8.7" />&#10;	<path
   id="polyline76"
   class="st13"
   style="fill:none;stroke:#95ac6e;stroke-miterlimit:10"
   d="m 157.5,723.3 h 7.8 l 45.8,45.8 v 111.6 l 16.1,16.1" />&#10;	<path
   id="polyline77"
   class="st13"
   style="fill:none;stroke:#95ac6e;stroke-miterlimit:10"
   d="m 157.5,718.9 h 9.4 l 25.2,25.2" />&#10;	<path
   id="polyline78"
   class="st13"
   style="fill:none;stroke:#95ac6e;stroke-miterlimit:10"
   d="m 158.6,713.7 h 8 l 23.5,23.5 h 5.4 l 10.8,10.8 v 7" />&#10;	<path
   id="polyline79"
   class="st13"
   style="fill:none;stroke:#95ac6e;stroke-miterlimit:10"
   d="m 158.2,709.3 h 9.1 l 23.1,23 h 10.5" />&#10;	<path
   id="polyline80"
   class="st13"
   style="fill:none;stroke:#95ac6e;stroke-miterlimit:10"
   d="m 158.2,705.1 h 10.9 l 5,5" />&#10;	<path
   id="polyline81"
   class="st13"
   style="fill:none;stroke:#95ac6e;stroke-miterlimit:10"
   d="m 158.2,700.1 h 17.2 l 27.4,27.4 h 3.5 l 9.6,9.7 v 12.3" />&#10;	<path
   id="line81"
   class="st13"
   style="fill:none;stroke:#95ac6e;stroke-miterlimit:10"
   d="M 158.60001,694.70001 H 167.7" />&#10;	<path
   id="polyline82"
   class="st13"
   style="fill:none;stroke:#95ac6e;stroke-miterlimit:10"
   d="m 156.4,689.3 h 15.4 l 7.4,7.4" />&#10;	<path
   id="polyline83"
   class="st13"
   style="fill:none;stroke:#95ac6e;stroke-miterlimit:10"
   d="m 187.9,709.3 4.5,-4.6 v -19.3 h 11" />&#10;	<path
   id="polyline84"
   class="st13"
   style="fill:none;stroke:#95ac6e;stroke-miterlimit:10"
   d="m 158.6,680.9 h 50.9 l 9,9" />&#10;	<path
   id="polyline85"
   class="st13"
   style="fill:none;stroke:#95ac6e;stroke-miterlimit:10"
   d="m 158.2,676.5 h 55.6 l 6.5,-6.5" />&#10;	<path
   id="polyline86"
   class="st13"
   style="fill:none;stroke:#95ac6e;stroke-miterlimit:10"
   d="m 157.5,672.3 h 41.3 l 8.3,-8.3 v -40.3 l 12.5,-12.5" />&#10;	<path
   id="polyline87"
   class="st13"
   style="fill:none;stroke:#95ac6e;stroke-miterlimit:10"
   d="m 158.6,668 h 20.5 l 23.3,-23.2 v -22.9" />&#10;	<path
   id="polyline88"
   class="st13"
   style="fill:none;stroke:#95ac6e;stroke-miterlimit:10"
   d="m 159.7,663.3 h 7.5 l 4.6,-4.6" />&#10;	<path
   class="st13"
   d="M147.8,658c-0.2-0.3,9.2-9.2,9.2-9.2h15.6v-33.5l2.8-2.8v-7.7"
   id="path88" />&#10;	<path
   class="st13"
   d="M147,655.8c0-0.2,0-6.5,0-6.5l10.3-10.3"
   id="path89" />&#10;	<path
   id="polyline89"
   class="st13"
   style="fill:none;stroke:#95ac6e;stroke-miterlimit:10"
   d="m 140.1,656.7 v -10.8 l 7.3,-7.3" />&#10;	<path
   id="line89"
   class="st13"
   style="fill:none;stroke:#95ac6e;stroke-miterlimit:10"
   d="M 136.60001,653.70001 V 636.09998" />&#10;	<path
   class="st13"
   d="M133.1,655.4c0-0.6,0-15.2,0-15.2l-4.2-4.2"
   id="path90" />&#10;	<path
   class="st13"
   d="M122.6,655.1c0-0.6,0-20.7,0-20.7"
   id="path91" />&#10;	<path
   class="st13"
   d="M119.2,656.7c0-0.3,0-11.1,0-11.1l-7.6-7.6"
   id="path92" />&#10;	<path
   id="polyline92"
   class="st13"
   style="fill:none;stroke:#95ac6e;stroke-miterlimit:10"
   d="m 115.6,656.3 v -6.4 L 101.8,636 v -6.4 l 3.2,-3.2 h 3.9 l 2.6,-2.7 v -10.5 l -5.4,-5.4 H 100" />&#10;	<path
   id="polyline93"
   class="st13"
   style="fill:none;stroke:#95ac6e;stroke-miterlimit:10"
   d="m 99.8,613.6 h 5.6 l 3.1,3.1 v 5.2 l -2.8,2.7 h -4.6 l -3.4,3.5 v 9 l 11,11 v 6.7" />&#10;	<path
   id="polyline94"
   class="st13"
   style="fill:none;stroke:#95ac6e;stroke-miterlimit:10"
   d="m 91.3,618.1 v 16.8 l 13.9,13.9 v 9.5" />&#10;	<path
   id="polyline95"
   class="st13"
   style="fill:none;stroke:#95ac6e;stroke-miterlimit:10"
   d="m 76.5,617.3 v 7.2 l 9.4,9.4 v 3.8 L 99,650.8 v 9.1" />&#10;	<path
   class="st13"
   d="M94.8,653.9c0-0.1,0-5,0-5l-11.7-11.7v-1.1l-4.5-4.5h-6.4l-1.7-1.7h-6.9l-6.7-6.7v-14.4l1.6-1.6h8.8"
   id="path95" />&#10;	<path
   id="polyline96"
   class="st13"
   style="fill:none;stroke:#95ac6e;stroke-miterlimit:10"
   d="m 69.1,601.2 h -8.7 l -5,5 v 17.9 l 8,7.9 h 6.1 l 6.4,6.4 h 2.5 l 14.1,14.1" />&#10;	<path
   id="line96"
   class="st13"
   style="fill:none;stroke:#95ac6e;stroke-miterlimit:10"
   d="M 73.800003,574.5 56,592.29999" />&#10;	<path
   id="polyline97"
   class="st13"
   style="fill:none;stroke:#95ac6e;stroke-miterlimit:10"
   d="M 137.6,635.2 V 629 l -2.9,-2.9 V 623 l -4.5,-4.4 h -5 l -4.1,-4.1 V 595.6 L 109.7,584.1 V 501.9 L 124,487.6 v -9.1 l 3.7,-3.7" />&#10;	<path
   class="st13"
   d="M135.3,527.8c0-0.6,0-9,0-9l-3.1-3.1h-9.8l-4.5-4.5v-4.3"
   id="path97" />&#10;	<path
   id="polyline98"
   class="st13"
   style="fill:none;stroke:#95ac6e;stroke-miterlimit:10"
   d="m 129.3,560.2 v 5.3 l -3.2,3.2 h -5.9 l -1.6,1.6" />&#10;	<path
   id="polyline99"
   class="st13"
   style="fill:none;stroke:#95ac6e;stroke-miterlimit:10"
   d="m 62.9,473.3 v 9.4 l 16.2,16.2 h 4.5 l 4.9,4.9 v 8.2 l -4.6,4.5 V 530" />&#10;	<path
   id="rect99"
   class="st14"
   style="fill:#e8d28a"
   d="m 45.599998,466.10001 h 18.9 v 9.6 h -18.9 z" />&#10;	<g
   id="g104">&#10;		<path
   id="rect100"
   class="st15"
   style="fill:#cecece"
   d="m 102.7,464 h 4.3 v 11.5 h -4.3 z" />&#10;		<path
   id="rect101"
   class="st15"
   style="fill:#cecece"
   d="m 110.4,464 h 4.3 v 11.5 h -4.3 z" />&#10;		<path
   id="rect102"
   class="st15"
   style="fill:#cecece"
   d="m 118.1,464 h 4.3 v 11.5 h -4.3 z" />&#10;		<path
   id="rect103"
   class="st15"
   style="fill:#cecece"
   d="m 125.7,464 h 4.3 v 11.5 h -4.3 z" />&#10;		<path
   id="rect104"
   class="st15"
   style="fill:#cecece"
   d="m 133.39999,464 h 4.3 v 11.5 h -4.3 z" />&#10;	</g>&#10;	<g
   id="g106">&#10;		<path
   class="st16"
   d="M106.8,484.8v-5.5h2.5v5.8c0,2,0.6,2.7,1.7,2.7c1.2,0,1.8-0.7,1.8-2.7v-5.8h2.4v5.5c0,3.5-1.4,5.1-4.2,5.1    S106.8,488.3,106.8,484.8z"
   id="path104" />&#10;		<path
   class="st16"
   d="M116.7,488.4l1.3-1.6c0.7,0.6,1.7,1,2.6,1c0.9,0,1.4-0.4,1.4-0.9c0-0.6-0.6-0.8-1.5-1.2l-1.3-0.6    c-1.1-0.4-2.1-1.3-2.1-2.8c0-1.7,1.6-3.2,3.8-3.2c1.2,0,2.5,0.5,3.4,1.3l-1.3,1.6c-0.7-0.5-1.4-0.8-2.1-0.8    c-0.8,0-1.3,0.3-1.3,0.8c0,0.6,0.7,0.8,1.6,1.2l1.3,0.5c1.3,0.5,2.1,1.4,2.1,2.8c0,1.7-1.5,3.3-4,3.3    C119.1,489.9,117.8,489.4,116.7,488.4z"
   id="path105" />&#10;		<path
   class="st16"
   d="M126.3,479.3h3.6c2.2,0,3.9,0.6,3.9,2.6c0,0.9-0.5,1.9-1.4,2.2v0.1c1.1,0.3,1.9,1.1,1.9,2.4    c0,2.1-1.8,3.1-4.1,3.1h-3.9V479.3z M129.8,483.4c1.1,0,1.5-0.5,1.5-1.2c0-0.8-0.5-1.1-1.5-1.1h-1.1v2.2H129.8z M130,487.8    c1.2,0,1.8-0.4,1.8-1.3s-0.6-1.2-1.8-1.2h-1.2v2.5H130z"
   id="path106" />&#10;	</g>&#10;	<path
   class="st17"
   d="M170.2,560.7h-45.7c-0.5,0-1-0.4-1-1v-33.5c0-0.5,0.4-1,1-1h45.7c0.5,0,1,0.4,1,1v33.5   C171.1,560.3,170.7,560.7,170.2,560.7z"
   id="path107" />&#10;	<g
   id="g113">&#10;		<path
   id="rect107"
   class="st15"
   style="fill:#cecece"
   d="m 128.60001,521.09998 h 1.4 v 4.1 h -1.4 z" />&#10;		<path
   id="rect108"
   class="st15"
   style="fill:#cecece"
   d="m 134.60001,521.09998 h 1.4 v 4.1 h -1.4 z" />&#10;		<path
   id="rect109"
   class="st15"
   style="fill:#cecece"
   d="m 140.60001,521.09998 h 1.4 v 4.1 h -1.4 z" />&#10;		<path
   id="rect110"
   class="st15"
   style="fill:#cecece"
   d="m 146.60001,521.09998 h 1.4 v 4.1 h -1.4 z" />&#10;		<path
   id="rect111"
   class="st15"
   style="fill:#cecece"
   d="m 152.60001,521.09998 h 1.4 v 4.1 h -1.4 z" />&#10;		<path
   id="rect112"
   class="st15"
   style="fill:#cecece"
   d="m 158.60001,521.09998 h 1.4 v 4.1 h -1.4 z" />&#10;		<path
   id="rect113"
   class="st15"
   style="fill:#cecece"
   d="m 164.60001,521.09998 h 1.4 v 4.1 h -1.4 z" />&#10;	</g>&#10;	<g
   id="g120">&#10;		<path
   id="rect114"
   class="st15"
   style="fill:#cecece"
   d="m 128.60001,560.70001 h 1.4 v 4.1 h -1.4 z" />&#10;		<path
   id="rect115"
   class="st15"
   style="fill:#cecece"
   d="m 134.60001,560.70001 h 1.4 v 4.1 h -1.4 z" />&#10;		<path
   id="rect116"
   class="st15"
   style="fill:#cecece"
   d="m 140.60001,560.70001 h 1.4 v 4.1 h -1.4 z" />&#10;		<path
   id="rect117"
   class="st15"
   style="fill:#cecece"
   d="m 146.60001,560.70001 h 1.4 v 4.1 h -1.4 z" />&#10;		<path
   id="rect118"
   class="st15"
   style="fill:#cecece"
   d="m 152.60001,560.70001 h 1.4 v 4.1 h -1.4 z" />&#10;		<path
   id="rect119"
   class="st15"
   style="fill:#cecece"
   d="m 158.60001,560.70001 h 1.4 v 4.1 h -1.4 z" />&#10;		<path
   id="rect120"
   class="st15"
   style="fill:#cecece"
   d="m 164.60001,560.70001 h 1.4 v 4.1 h -1.4 z" />&#10;	</g>&#10;	<g
   id="g125">&#10;		<path
   id="rect121"
   class="st18"
   style="fill:#868c97"
   d="M 61.400002,529 H 100.7 v 48.9 H 61.400002 Z" />&#10;		<path
   class="st19"
   d="M81,571.8L81,571.8c-7.6,0-13.7-6.1-13.7-13.7V549c0-7.6,6.1-13.7,13.7-13.7h0c7.6,0,13.7,6.1,13.7,13.7v9.1    C94.7,565.6,88.6,571.8,81,571.8z"
   id="path121" />&#10;		<path
   class="st19"
   d="M61.4,539.3L61.4,539.3l0-10.3h10.3l0,0C71.6,534.7,67.1,539.3,61.4,539.3z"
   id="path122" />&#10;		<path
   class="st19"
   d="M71.6,578H61.4v-10.3h0C67.1,567.7,71.6,572.3,71.6,578L71.6,578z"
   id="path123" />&#10;		<path
   class="st19"
   d="M100.7,539.3L100.7,539.3c-5.7,0-10.3-4.6-10.3-10.3l0,0h10.3V539.3z"
   id="path124" />&#10;		<path
   class="st19"
   d="M100.7,578H90.4v0c0-5.7,4.6-10.3,10.3-10.3h0V578z"
   id="path125" />&#10;	</g>&#10;	<g
   id="g134">&#10;		<path
   id="rect125"
   class="st17"
   style="fill:#36323e"
   d="M 64.900002,598.59998 H 99.5 v 22.9 H 64.900002 Z" />&#10;		<g
   id="g129">&#10;			<path
   id="rect126"
   class="st15"
   style="fill:#cecece"
   d="m 60.700001,599.70001 h 4.2 v 3.4 h -4.2 z" />&#10;			<path
   id="rect127"
   class="st15"
   style="fill:#cecece"
   d="m 60.700001,605.40002 h 4.2 v 3.4 h -4.2 z" />&#10;			<path
   id="rect128"
   class="st15"
   style="fill:#cecece"
   d="m 60.700001,611.20001 h 4.2 v 3.4 h -4.2 z" />&#10;			<path
   id="rect129"
   class="st15"
   style="fill:#cecece"
   d="m 60.700001,616.90002 h 4.2 v 3.4 h -4.2 z" />&#10;		</g>&#10;		<g
   id="g133">&#10;			<path
   id="rect130"
   class="st15"
   style="fill:#cecece"
   d="m 99.5,599.70001 h 4.2 v 3.4 h -4.2 z" />&#10;			<path
   id="rect131"
   class="st15"
   style="fill:#cecece"
   d="m 99.5,605.40002 h 4.2 v 3.4 h -4.2 z" />&#10;			<path
   id="rect132"
   class="st15"
   style="fill:#cecece"
   d="m 99.5,611.20001 h 4.2 v 3.4 h -4.2 z" />&#10;			<path
   id="rect133"
   class="st15"
   style="fill:#cecece"
   d="m 99.5,616.90002 h 4.2 v 3.4 h -4.2 z" />&#10;		</g>&#10;	</g>&#10;	<path
   id="rect134"
   class="st7"
   style="fill:#474544"
   d="m 135.5,630.09998 h 4.2 v 6.9 h -4.2 z" />&#10;	<g
   id="g215">&#10;		<path
   class="st20"
   d="M160.4,733.8H81.4c-0.7,0-1.3-0.6-1.3-1.3v-79.1c0-0.7,0.6-1.3,1.3-1.3h79.1c0.7,0,1.3,0.6,1.3,1.3v79.1    C161.7,733.2,161.1,733.8,160.4,733.8z"
   id="path134" />&#10;		<g
   id="g154">&#10;			<path
   id="rect135"
   class="st15"
   style="fill:#cecece"
   d="m 86.199997,650.20001 h 3.1 v 1.9 h -3.1 z" />&#10;			<path
   id="rect136"
   class="st15"
   style="fill:#cecece"
   d="m 89.699997,650.20001 h 3.1 v 1.9 h -3.1 z" />&#10;			<path
   id="rect137"
   class="st15"
   style="fill:#cecece"
   d="m 93.199997,650.20001 h 3.1 v 1.9 h -3.1 z" />&#10;			<path
   id="rect138"
   class="st15"
   style="fill:#cecece"
   d="m 96.699997,650.20001 h 3.1 v 1.9 h -3.1 z" />&#10;			<path
   id="rect139"
   class="st15"
   style="fill:#cecece"
   d="m 100.2,650.20001 h 3.1 v 1.9 h -3.1 z" />&#10;			<path
   id="rect140"
   class="st15"
   style="fill:#cecece"
   d="m 103.6,650.20001 h 3.1 v 1.9 h -3.1 z" />&#10;			<path
   id="rect141"
   class="st15"
   style="fill:#cecece"
   d="m 107.1,650.20001 h 3.1 v 1.9 h -3.1 z" />&#10;			<path
   id="rect142"
   class="st15"
   style="fill:#cecece"
   d="m 114.1,650.20001 h 3.1 v 1.9 h -3.1 z" />&#10;			<path
   id="rect143"
   class="st15"
   style="fill:#cecece"
   d="m 121.1,650.20001 h 3.1 v 1.9 h -3.1 z" />&#10;			<path
   id="rect144"
   class="st15"
   style="fill:#cecece"
   d="m 128,650.20001 h 3.1 v 1.9 H 128 Z" />&#10;			<path
   id="rect145"
   class="st15"
   style="fill:#cecece"
   d="m 138.5,650.20001 h 3.1 v 1.9 h -3.1 z" />&#10;			<path
   id="rect146"
   class="st15"
   style="fill:#cecece"
   d="m 142,650.20001 h 3.1 v 1.9 H 142 Z" />&#10;			<path
   id="rect147"
   class="st15"
   style="fill:#cecece"
   d="m 149,650.20001 h 3.1 v 1.9 H 149 Z" />&#10;			<path
   id="rect148"
   class="st15"
   style="fill:#cecece"
   d="m 110.6,650.20001 h 3.1 v 1.9 h -3.1 z" />&#10;			<path
   id="rect149"
   class="st15"
   style="fill:#cecece"
   d="m 117.6,650.20001 h 3.1 v 1.9 h -3.1 z" />&#10;			<path
   id="rect150"
   class="st15"
   style="fill:#cecece"
   d="m 124.6,650.20001 h 3.1 v 1.9 h -3.1 z" />&#10;			<path
   id="rect151"
   class="st15"
   style="fill:#cecece"
   d="m 131.5,650.20001 h 3.1 v 1.9 h -3.1 z" />&#10;			<path
   id="rect152"
   class="st15"
   style="fill:#cecece"
   d="m 135,650.20001 h 3.1 v 1.9 H 135 Z" />&#10;			<path
   id="rect153"
   class="st15"
   style="fill:#cecece"
   d="m 145.5,650.20001 h 3.1 v 1.9 h -3.1 z" />&#10;			<path
   id="rect154"
   class="st15"
   style="fill:#cecece"
   d="m 152.39999,650.20001 h 3.1 v 1.9 h -3.1 z" />&#10;		</g>&#10;		<g
   id="g174">&#10;			<path
   id="rect155"
   class="st15"
   style="fill:#cecece"
   d="m 86.400002,733.79999 h 3.099999 v 1.9 h -3.099999 z" />&#10;			<path
   id="rect156"
   class="st15"
   style="fill:#cecece"
   d="m 89.900002,733.79999 h 3.099999 v 1.9 h -3.099999 z" />&#10;			<path
   id="rect157"
   class="st15"
   style="fill:#cecece"
   d="m 93.400002,733.79999 h 3.099999 v 1.9 h -3.099999 z" />&#10;			<path
   id="rect158"
   class="st15"
   style="fill:#cecece"
   d="M 96.900002,733.79999 H 100 v 1.9 h -3.099998 z" />&#10;			<path
   id="rect159"
   class="st15"
   style="fill:#cecece"
   d="m 100.4,733.79999 h 3.1 v 1.9 h -3.1 z" />&#10;			<path
   id="rect160"
   class="st15"
   style="fill:#cecece"
   d="m 103.8,733.79999 h 3.1 v 1.9 h -3.1 z" />&#10;			<path
   id="rect161"
   class="st15"
   style="fill:#cecece"
   d="m 107.3,733.79999 h 3.1 v 1.9 h -3.1 z" />&#10;			<path
   id="rect162"
   class="st15"
   style="fill:#cecece"
   d="m 114.3,733.79999 h 3.1 v 1.9 h -3.1 z" />&#10;			<path
   id="rect163"
   class="st15"
   style="fill:#cecece"
   d="m 121.3,733.79999 h 3.1 v 1.9 h -3.1 z" />&#10;			<path
   id="rect164"
   class="st15"
   style="fill:#cecece"
   d="m 128.2,733.79999 h 3.1 v 1.9 h -3.1 z" />&#10;			<path
   id="rect165"
   class="st15"
   style="fill:#cecece"
   d="m 138.7,733.79999 h 3.1 v 1.9 h -3.1 z" />&#10;			<path
   id="rect166"
   class="st15"
   style="fill:#cecece"
   d="m 142.2,733.79999 h 3.1 v 1.9 h -3.1 z" />&#10;			<path
   id="rect167"
   class="st15"
   style="fill:#cecece"
   d="m 149.10001,733.79999 h 3.1 v 1.9 h -3.1 z" />&#10;			<path
   id="rect168"
   class="st15"
   style="fill:#cecece"
   d="m 110.8,733.79999 h 3.1 v 1.9 h -3.1 z" />&#10;			<path
   id="rect169"
   class="st15"
   style="fill:#cecece"
   d="m 117.8,733.79999 h 3.1 v 1.9 h -3.1 z" />&#10;			<path
   id="rect170"
   class="st15"
   style="fill:#cecece"
   d="m 124.7,733.79999 h 3.1 v 1.9 h -3.1 z" />&#10;			<path
   id="rect171"
   class="st15"
   style="fill:#cecece"
   d="m 131.7,733.79999 h 3.1 v 1.9 h -3.1 z" />&#10;			<path
   id="rect172"
   class="st15"
   style="fill:#cecece"
   d="m 135.2,733.79999 h 3.1 v 1.9 h -3.1 z" />&#10;			<path
   id="rect173"
   class="st15"
   style="fill:#cecece"
   d="m 145.7,733.79999 h 3.1 v 1.9 h -3.1 z" />&#10;			<path
   id="rect174"
   class="st15"
   style="fill:#cecece"
   d="m 152.60001,733.79999 h 3.1 v 1.9 h -3.1 z" />&#10;		</g>&#10;		<g
   id="g194">&#10;			&#10;				<path
   id="rect175"
   class="st15"
   transform="matrix(6.123234e-17 -1 1 6.123234e-17 -647.002 805.1825)"
   style="fill:#cecece"
   d="m 77.5,725.09998 h 3.1 v 1.9 h -3.1 z" />&#10;			&#10;				<path
   id="rect176"
   class="st15"
   transform="matrix(6.123234e-17 -1 1 6.123234e-17 -643.5169 801.6974)"
   style="fill:#cecece"
   d="m 77.5,721.59998 h 3.1 v 1.9 h -3.1 z" />&#10;			&#10;				<path
   id="rect177"
   class="st15"
   transform="matrix(6.123234e-17 -1 1 6.123234e-17 -640.0319 798.2124)"
   style="fill:#cecece"
   d="m 77.5,718.20001 h 3.1 v 1.9 h -3.1 z" />&#10;			&#10;				<path
   id="rect178"
   class="st15"
   transform="matrix(6.123234e-17 -1 1 6.123234e-17 -636.5469 794.7274)"
   style="fill:#cecece"
   d="m 77.5,714.70001 h 3.1 v 1.9 h -3.1 z" />&#10;			&#10;				<path
   id="rect179"
   class="st15"
   transform="matrix(6.123234e-17 -1 1 6.123234e-17 -633.0618 791.2423)"
   style="fill:#cecece"
   d="m 77.5,711.20001 h 3.1 v 1.9 h -3.1 z" />&#10;			&#10;				<path
   id="rect180"
   class="st15"
   transform="matrix(6.123234e-17 -1 1 6.123234e-17 -629.5768 787.7573)"
   style="fill:#cecece"
   d="m 77.5,707.70001 h 3.1 v 1.9 h -3.1 z" />&#10;			&#10;				<path
   id="rect181"
   class="st15"
   transform="matrix(6.123234e-17 -1 1 6.123234e-17 -626.0917 784.2722)"
   style="fill:#cecece"
   d="m 77.5,704.20001 h 3.1 v 1.9 h -3.1 z" />&#10;			&#10;				<path
   id="rect182"
   class="st15"
   transform="matrix(6.123234e-17 -1 1 6.123234e-17 -619.1216 777.3021)"
   style="fill:#cecece"
   d="m 77.5,697.29999 h 3.1 v 1.9 h -3.1 z" />&#10;			&#10;				<path
   id="rect183"
   class="st15"
   transform="matrix(6.123234e-17 -1 1 6.123234e-17 -612.1516 770.3321)"
   style="fill:#cecece"
   d="m 77.5,690.29999 h 3.1 v 1.9 h -3.1 z" />&#10;			&#10;				<path
   id="rect184"
   class="st15"
   transform="matrix(6.123234e-17 -1 1 6.123234e-17 -605.1815 763.362)"
   style="fill:#cecece"
   d="m 77.5,683.29999 h 3.1 v 1.9 h -3.1 z" />&#10;			&#10;				<path
   id="rect185"
   class="st15"
   transform="matrix(6.123234e-17 -1 1 6.123234e-17 -594.7263 752.9069)"
   style="fill:#cecece"
   d="m 77.5,672.90002 h 3.1 v 1.9 h -3.1 z" />&#10;			&#10;				<path
   id="rect186"
   class="st15"
   transform="matrix(6.123234e-17 -1 1 6.123234e-17 -591.2413 749.4218)"
   style="fill:#cecece"
   d="m 77.5,669.40002 h 3.1 v 1.9 h -3.1 z" />&#10;			&#10;				<path
   id="rect187"
   class="st15"
   transform="matrix(6.123234e-17 -1 1 6.123234e-17 -584.2712 742.4517)"
   style="fill:#cecece"
   d="m 77.5,662.40002 h 3.1 v 1.9 h -3.1 z" />&#10;			&#10;				<path
   id="rect188"
   class="st15"
   transform="matrix(6.123234e-17 -1 1 6.123234e-17 -622.6067 780.7872)"
   style="fill:#cecece"
   d="m 77.5,700.70001 h 3.1 v 1.9 h -3.1 z" />&#10;			&#10;				<path
   id="rect189"
   class="st15"
   transform="matrix(6.123234e-17 -1 1 6.123234e-17 -615.6366 773.8171)"
   style="fill:#cecece"
   d="m 77.5,693.79999 h 3.1 v 1.9 h -3.1 z" />&#10;			&#10;				<path
   id="rect190"
   class="st15"
   transform="matrix(6.123234e-17 -1 1 6.123234e-17 -608.6665 766.847)"
   style="fill:#cecece"
   d="m 77.5,686.79999 h 3.1 v 1.9 h -3.1 z" />&#10;			&#10;				<path
   id="rect191"
   class="st15"
   transform="matrix(6.123234e-17 -1 1 6.123234e-17 -601.6964 759.877)"
   style="fill:#cecece"
   d="m 77.5,679.79999 h 3.1 v 1.9 h -3.1 z" />&#10;			&#10;				<path
   id="rect192"
   class="st15"
   transform="matrix(6.123234e-17 -1 1 6.123234e-17 -598.2114 756.3919)"
   style="fill:#cecece"
   d="m 77.5,676.29999 h 3.1 v 1.9 h -3.1 z" />&#10;			&#10;				<path
   id="rect193"
   class="st15"
   transform="matrix(6.123234e-17 -1 1 6.123234e-17 -587.7562 745.9368)"
   style="fill:#cecece"
   d="m 77.5,665.90002 h 3.1 v 1.9 h -3.1 z" />&#10;			&#10;				<path
   id="rect194"
   class="st15"
   transform="matrix(6.123234e-17 -1 1 6.123234e-17 -580.7861 738.9667)"
   style="fill:#cecece"
   d="m 77.5,658.90002 h 3.1 v 1.9 h -3.1 z" />&#10;		</g>&#10;		<g
   id="g214">&#10;			&#10;				<path
   id="rect195"
   class="st15"
   transform="matrix(6.123234e-17 -1 1 6.123234e-17 -563.412 888.7724)"
   style="fill:#cecece"
   d="m 161.10001,725.09998 h 3.1 v 1.9 h -3.1 z" />&#10;			&#10;				<path
   id="rect196"
   class="st15"
   transform="matrix(6.123234e-17 -1 1 6.123234e-17 -559.927 885.2874)"
   style="fill:#cecece"
   d="m 161.10001,721.59998 h 3.1 v 1.9 h -3.1 z" />&#10;			&#10;				<path
   id="rect197"
   class="st15"
   transform="matrix(6.123234e-17 -1 1 6.123234e-17 -556.442 881.8024)"
   style="fill:#cecece"
   d="m 161.10001,718.20001 h 3.1 v 1.9 h -3.1 z" />&#10;			&#10;				<path
   id="rect198"
   class="st15"
   transform="matrix(6.123234e-17 -1 1 6.123234e-17 -552.9569 878.3173)"
   style="fill:#cecece"
   d="m 161.10001,714.70001 h 3.1 v 1.9 h -3.1 z" />&#10;			&#10;				<path
   id="rect199"
   class="st15"
   transform="matrix(6.123234e-17 -1 1 6.123234e-17 -549.4719 874.8323)"
   style="fill:#cecece"
   d="m 161.10001,711.20001 h 3.1 v 1.9 h -3.1 z" />&#10;			&#10;				<path
   id="rect200"
   class="st15"
   transform="matrix(6.123234e-17 -1 1 6.123234e-17 -545.9868 871.3472)"
   style="fill:#cecece"
   d="m 161.10001,707.70001 h 3.1 v 1.9 h -3.1 z" />&#10;			&#10;				<path
   id="rect201"
   class="st15"
   transform="matrix(6.123234e-17 -1 1 6.123234e-17 -542.5018 867.8622)"
   style="fill:#cecece"
   d="m 161.10001,704.20001 h 3.1 v 1.9 h -3.1 z" />&#10;			&#10;				<path
   id="rect202"
   class="st15"
   transform="matrix(6.123234e-17 -1 1 6.123234e-17 -535.5317 860.8921)"
   style="fill:#cecece"
   d="m 161.10001,697.29999 h 3.1 v 1.9 h -3.1 z" />&#10;			&#10;				<path
   id="rect203"
   class="st15"
   transform="matrix(6.123234e-17 -1 1 6.123234e-17 -528.5616 853.922)"
   style="fill:#cecece"
   d="m 161.10001,690.29999 h 3.1 v 1.9 h -3.1 z" />&#10;			&#10;				<path
   id="rect204"
   class="st15"
   transform="matrix(6.123234e-17 -1 1 6.123234e-17 -521.5916 846.9519)"
   style="fill:#cecece"
   d="m 161.10001,683.29999 h 3.1 v 1.9 h -3.1 z" />&#10;			&#10;				<path
   id="rect205"
   class="st15"
   transform="matrix(6.123234e-17 -1 1 6.123234e-17 -511.1364 836.4968)"
   style="fill:#cecece"
   d="m 161.10001,672.90002 h 3.1 v 1.9 h -3.1 z" />&#10;			&#10;				<path
   id="rect206"
   class="st15"
   transform="matrix(6.123234e-17 -1 1 6.123234e-17 -507.6514 833.0117)"
   style="fill:#cecece"
   d="m 161.10001,669.40002 h 3.1 v 1.9 h -3.1 z" />&#10;			&#10;				<path
   id="rect207"
   class="st15"
   transform="matrix(6.123234e-17 -1 1 6.123234e-17 -500.6813 826.0416)"
   style="fill:#cecece"
   d="m 161.10001,662.40002 h 3.1 v 1.9 h -3.1 z" />&#10;			&#10;				<path
   id="rect208"
   class="st15"
   transform="matrix(6.123234e-17 -1 1 6.123234e-17 -539.0167 864.3771)"
   style="fill:#cecece"
   d="m 161.10001,700.70001 h 3.1 v 1.9 h -3.1 z" />&#10;			&#10;				<path
   id="rect209"
   class="st15"
   transform="matrix(6.123234e-17 -1 1 6.123234e-17 -532.0466 857.407)"
   style="fill:#cecece"
   d="m 161.10001,693.79999 h 3.1 v 1.9 h -3.1 z" />&#10;			&#10;				<path
   id="rect210"
   class="st15"
   transform="matrix(6.123234e-17 -1 1 6.123234e-17 -525.0766 850.437)"
   style="fill:#cecece"
   d="m 161.10001,686.79999 h 3.1 v 1.9 h -3.1 z" />&#10;			&#10;				<path
   id="rect211"
   class="st15"
   transform="matrix(6.123234e-17 -1 1 6.123234e-17 -518.1065 843.4669)"
   style="fill:#cecece"
   d="m 161.10001,679.79999 h 3.1 v 1.9 h -3.1 z" />&#10;			&#10;				<path
   id="rect212"
   class="st15"
   transform="matrix(6.123234e-17 -1 1 6.123234e-17 -514.6215 839.9818)"
   style="fill:#cecece"
   d="m 161.10001,676.29999 h 3.1 v 1.9 h -3.1 z" />&#10;			&#10;				<path
   id="rect213"
   class="st15"
   transform="matrix(6.123234e-17 -1 1 6.123234e-17 -504.1663 829.5267)"
   style="fill:#cecece"
   d="m 161.10001,665.90002 h 3.1 v 1.9 h -3.1 z" />&#10;			&#10;				<path
   id="rect214"
   class="st15"
   transform="matrix(6.123234e-17 -1 1 6.123234e-17 -497.1962 822.5566)"
   style="fill:#cecece"
   d="m 161.10001,658.90002 h 3.1 v 1.9 h -3.1 z" />&#10;		</g>&#10;		<path
   id="circle214"
   class="st21"
   style="fill:#b9a68f"
   d="m 92.999997,663.29999 a 2.8,2.8 0 0 1 -2.8,2.8 2.8,2.8 0 0 1 -2.8,-2.8 2.8,2.8 0 0 1 2.8,-2.8 2.8,2.8 0 0 1 2.8,2.8 z" />&#10;	</g>&#10;	<path
   id="rect215"
   class="st17"
   style="fill:#36323e"
   d="m 187.10001,618 h 18.2 v 8.6 h -18.2 z" />&#10;	<path
   id="rect216"
   class="st15"
   style="fill:#cecece"
   d="m 189.10001,626.59998 h 2.9 v 8.7 h -2.9 z" />&#10;	<path
   id="rect217"
   class="st15"
   style="fill:#cecece"
   d="m 200.89999,626.59998 h 2.9 v 8.7 h -2.9 z" />&#10;	<path
   id="rect218"
   class="st15"
   style="fill:#cecece"
   d="m 194.8,609.29999 h 2.9 v 8.7 h -2.9 z" />&#10;	&#10;		<path
   id="rect219"
   class="st9"
   transform="matrix(6.123234e-17 -1 1 6.123234e-17 -486.8592 832.0541)"
   style="fill:#c29148"
   d="m 170.5,656 h 4.2 v 6.9 h -4.2 z" />&#10;	<path
   id="rect220"
   class="st7"
   style="fill:#474544"
   d="m 189.5,687.09998 h 4.2 v 6.9 h -4.2 z" />&#10;	&#10;		<path
   id="rect221"
   class="st9"
   transform="matrix(0.7071 -0.7071 0.7071 0.7071 -450.7967 331.2482)"
   style="fill:#c29148"
   d="m 172.3,706.40002 h 4.2 v 6.9 h -4.2 z" />&#10;	<g
   id="g223">&#10;		<path
   class="st4"
   d="M157,768.5c-5.1,0-9.2,4.1-9.2,9.2s4.1,9.2,9.2,9.2s9.2-4.1,9.2-9.2S162.1,768.5,157,768.5z M157,783.4    c-3.1,0-5.7-2.6-5.7-5.7s2.6-5.7,5.7-5.7c3.1,0,5.7,2.6,5.7,5.7S160.2,783.4,157,783.4z"
   id="path221" />&#10;		<path
   class="st4"
   d="M118.7,768.9v17.7h17.7v-17.7H118.7z M127.6,783.4c-3.1,0-5.7-2.6-5.7-5.7s2.6-5.7,5.7-5.7    c3.1,0,5.7,2.6,5.7,5.7S130.7,783.4,127.6,783.4z"
   id="path222" />&#10;		<path
   class="st4"
   d="M186.8,768.5c-5.1,0-9.2,4.1-9.2,9.2s4.1,9.2,9.2,9.2s9.2-4.1,9.2-9.2S191.9,768.5,186.8,768.5z M186.8,783.4    c-3.1,0-5.7-2.6-5.7-5.7s2.6-5.7,5.7-5.7c3.1,0,5.7,2.6,5.7,5.7S190,783.4,186.8,783.4z"
   id="path223" />&#10;	</g>&#10;	<path
   class="st4"
   d="M17.5,747.2H0.3v3.4c2.3,0.9,3.9,3.1,3.9,5.7s-1.6,4.8-3.9,5.7v3.4h17.2c5,0,9-4,9-9S22.4,747.2,17.5,747.2z    M15.9,762.3c-3.4,0-6.1-2.7-6.1-6.1s2.7-6.1,6.1-6.1s6.1,2.7,6.1,6.1S19.2,762.3,15.9,762.3z"
   id="path224" />&#10;	<path
   class="st4"
   d="M17.5,717.8H0.3v3.4c2.3,0.9,3.9,3.1,3.9,5.7s-1.6,4.8-3.9,5.7v3.4h17.2c5,0,9-4,9-9v0   C26.5,721.8,22.4,717.8,17.5,717.8z M15.9,732.9c-3.4,0-6.1-2.7-6.1-6.1s2.7-6.1,6.1-6.1s6.1,2.7,6.1,6.1S19.2,732.9,15.9,732.9z"
   id="path225" />&#10;	<path
   class="st4"
   d="M17.5,688.4H0.3v3.4c2.3,0.9,3.9,3.1,3.9,5.7s-1.6,4.8-3.9,5.7v3.4h17.2c5,0,9-4,9-9v0   C26.5,692.4,22.4,688.4,17.5,688.4z M15.9,703.5c-3.4,0-6.1-2.7-6.1-6.1s2.7-6.1,6.1-6.1s6.1,2.7,6.1,6.1S19.2,703.5,15.9,703.5z"
   id="path226" />&#10;	<path
   class="st4"
   d="M17.5,659H0.3v3.4c2.3,0.9,3.9,3.1,3.9,5.7s-1.6,4.8-3.9,5.7v3.4h17.2c5,0,9-4,9-9S22.4,659,17.5,659z    M15.9,674.1c-3.4,0-6.1-2.7-6.1-6.1s2.7-6.1,6.1-6.1s6.1,2.7,6.1,6.1S19.2,674.1,15.9,674.1z"
   id="path227" />&#10;	<path
   class="st4"
   d="M17.5,600.2H0.3v3.4c2.3,0.9,3.9,3.1,3.9,5.7s-1.6,4.8-3.9,5.7v3.4h17.2c5,0,9-4,9-9S22.4,600.2,17.5,600.2z    M15.9,615.3c-3.4,0-6.1-2.7-6.1-6.1s2.7-6.1,6.1-6.1s6.1,2.7,6.1,6.1S19.2,615.3,15.9,615.3z"
   id="path228" />&#10;	<path
   class="st4"
   d="M17.5,570.8H0.3v3.4c2.3,0.9,3.9,3.1,3.9,5.7s-1.6,4.8-3.9,5.7v3.4h17.2c5,0,9-4,9-9S22.4,570.8,17.5,570.8z    M15.9,585.9c-3.4,0-6.1-2.7-6.1-6.1s2.7-6.1,6.1-6.1s6.1,2.7,6.1,6.1S19.2,585.9,15.9,585.9z"
   id="path229" />&#10;	<path
   class="st4"
   d="M17.5,541.4H0.3v3.4c2.3,0.9,3.9,3.1,3.9,5.7s-1.6,4.8-3.9,5.7v3.4h17.2c5,0,9-4,9-9S22.4,541.4,17.5,541.4z    M15.9,556.5c-3.4,0-6.1-2.7-6.1-6.1s2.7-6.1,6.1-6.1s6.1,2.7,6.1,6.1S19.2,556.5,15.9,556.5z"
   id="path230" />&#10;	<path
   class="st4"
   d="M17.5,512H0.3v3.4c2.3,0.9,3.9,3.1,3.9,5.7s-1.6,4.8-3.9,5.7v3.4h17.2c5,0,9-4,9-9S22.4,512,17.5,512z    M15.9,527.1c-3.4,0-6.1-2.7-6.1-6.1s2.7-6.1,6.1-6.1s6.1,2.7,6.1,6.1S19.2,527.1,15.9,527.1z"
   id="path231" />&#10;	<path
   class="st4"
   d="M17.5,453.2H0.3v3.4c2.3,0.9,3.9,3.1,3.9,5.7s-1.6,4.8-3.9,5.7v3.4h17.2c5,0,9-4,9-9v0   C26.5,457.2,22.4,453.2,17.5,453.2z M15.9,468.3c-3.4,0-6.1-2.7-6.1-6.1s2.7-6.1,6.1-6.1s6.1,2.7,6.1,6.1S19.2,468.3,15.9,468.3z"
   id="path232" />&#10;	<path
   class="st4"
   d="M17.5,423.8H0.3v3.4c2.3,0.9,3.9,3.1,3.9,5.7s-1.6,4.8-3.9,5.7v3.4h17.2c5,0,9-4,9-9S22.4,423.8,17.5,423.8z    M15.9,438.9c-3.4,0-6.1-2.7-6.1-6.1s2.7-6.1,6.1-6.1s6.1,2.7,6.1,6.1S19.2,438.9,15.9,438.9z"
   id="path233" />&#10;	<path
   class="st4"
   d="M17.5,894.1H0.3v3.4c2.3,0.9,3.9,3.1,3.9,5.7s-1.6,4.8-3.9,5.7v3.4h17.2c5,0,9-4,9-9S22.4,894.1,17.5,894.1z    M15.9,909.3c-3.4,0-6.1-2.7-6.1-6.1s2.7-6.1,6.1-6.1s6.1,2.7,6.1,6.1S19.2,909.3,15.9,909.3z"
   id="path234" />&#10;	<path
   class="st4"
   d="M239.5,991.4c0-2.6,1.6-4.8,3.9-5.7v-3.4h-17.2c-5,0-9,4-9,9s4,9,9,9h17.2V997   C241.2,996.1,239.5,993.9,239.5,991.4z M227.8,997.4c-3.4,0-6.1-2.7-6.1-6.1s2.7-6.1,6.1-6.1s6.1,2.7,6.1,6.1   S231.2,997.4,227.8,997.4z"
   id="path235" />&#10;	<path
   class="st4"
   d="M239.5,903.2c0-2.6,1.6-4.8,3.9-5.7v-3.4h-17.2c-5,0-9,4-9,9s4,9,9,9h17.2v-3.4   C241.2,908,239.5,905.7,239.5,903.2z M227.8,909.3c-3.4,0-6.1-2.7-6.1-6.1s2.7-6.1,6.1-6.1s6.1,2.7,6.1,6.1   S231.2,909.3,227.8,909.3z"
   id="path236" />&#10;	<path
   class="st4"
   d="M239.5,668c0-2.6,1.6-4.8,3.9-5.7V659h-17.2c-5,0-9,4-9,9s4,9,9,9h17.2v-3.4   C241.2,672.8,239.5,670.6,239.5,668z M227.8,674.1c-3.4,0-6.1-2.7-6.1-6.1s2.7-6.1,6.1-6.1s6.1,2.7,6.1,6.1   S231.2,674.1,227.8,674.1z"
   id="path237" />&#10;	&#10;		<path
   id="rect237"
   class="st12"
   transform="matrix(6.123234e-17 -1 1 6.123234e-17 -670.6428 857.2262)"
   style="fill:#c2bfab"
   d="m 90,762.09998 h 6.7 v 3.7 H 90 Z" />&#10;	<g
   id="g239">&#10;		<path
   class="st22"
   d="M82.2,781.4H50.4c-1.2,0-2.2-1-2.2-2.2v-23.7c0-1.2,1-2.2,2.2-2.2h31.8c1.2,0,2.2,1,2.2,2.2v23.7    C84.4,780.4,83.4,781.4,82.2,781.4z"
   id="path238" />&#10;		<path
   class="st23"
   d="M79.9,778.9H52.6c-0.8,0-1.4-0.6-1.4-1.4v-20.4c0-0.8,0.6-1.4,1.4-1.4h27.3c0.8,0,1.4,0.6,1.4,1.4v20.4    C81.3,778.3,80.7,778.9,79.9,778.9z"
   id="path239" />&#10;	</g>&#10;	&#10;		<path
   id="rect239"
   class="st12"
   transform="matrix(6.123234e-17 -1 1 6.123234e-17 -690.5771 877.1606)"
   style="fill:#c2bfab"
   d="m 90,782 h 6.7 v 3.7 H 90 Z" />&#10;	<path
   id="rect240"
   class="st7"
   style="fill:#474544"
   d="m 100.1,766.29999 h 4.2 v 6.9 h -4.2 z" />&#10;	<g
   id="g246">&#10;		<path
   class="st16"
   d="M42.3,586.4v-3.6c0-2.2,0.6-3.9,2.6-3.9c0.9,0,1.9,0.5,2.2,1.4h0.1c0.3-1.1,1.1-1.9,2.4-1.9    c2.1,0,3.1,1.8,3.1,4.1v3.9H42.3z M46.4,582.8c0-1.1-0.5-1.5-1.2-1.5c-0.8,0-1.1,0.5-1.1,1.5v1.1h2.2V582.8z M50.8,582.6    c0-1.2-0.4-1.8-1.3-1.8s-1.2,0.6-1.2,1.8v1.2h2.5V582.6z"
   id="path240" />&#10;		<path
   class="st16"
   d="M47.4,577.1c-3.4,0-5.4-1.9-5.4-4.8s2-4.8,5.4-4.8c3.4,0,5.4,1.9,5.4,4.8S50.8,577.1,47.4,577.1z     M47.4,570.1c-2,0-3.2,0.8-3.2,2.2c0,1.4,1.2,2.2,3.2,2.2c2,0,3.3-0.9,3.3-2.2C50.7,571,49.4,570.1,47.4,570.1z"
   id="path241" />&#10;		<path
   class="st16"
   d="M47.4,566.1c-3.4,0-5.4-1.9-5.4-4.8s2-4.8,5.4-4.8c3.4,0,5.4,1.9,5.4,4.8S50.8,566.1,47.4,566.1z     M47.4,559.1c-2,0-3.2,0.8-3.2,2.2c0,1.4,1.2,2.2,3.2,2.2c2,0,3.3-0.9,3.3-2.2C50.7,560,49.4,559.1,47.4,559.1z"
   id="path242" />&#10;		<path
   class="st16"
   d="M44.3,553.1v2.8h-2.1v-8.1h2.1v2.8h8.3v2.5H44.3z"
   id="path243" />&#10;		<path
   class="st16"
   d="M51.3,547.2l-1.6-1.3c0.6-0.7,1-1.7,1-2.6c0-0.9-0.4-1.4-0.9-1.4c-0.6,0-0.8,0.6-1.2,1.5l-0.6,1.3    c-0.4,1.1-1.3,2.1-2.8,2.1c-1.7,0-3.2-1.6-3.2-3.8c0-1.2,0.5-2.5,1.3-3.4L45,541c-0.5,0.7-0.8,1.4-0.8,2.1c0,0.8,0.3,1.3,0.8,1.3    c0.6,0,0.8-0.7,1.2-1.6l0.5-1.3c0.5-1.3,1.4-2.1,2.8-2.1c1.7,0,3.3,1.5,3.3,4C52.9,544.7,52.4,546.1,51.3,547.2z"
   id="path244" />&#10;		<path
   class="st16"
   d="M42.3,537.6V531h2.1v4.1h2v-3.5h2.1v3.5h2.2v-4.3h2.1v6.8H42.3z"
   id="path245" />&#10;		<path
   class="st16"
   d="M42.3,528.8v-2.5h8.3v-4h2.1v6.5H42.3z"
   id="path246" />&#10;	</g>&#10;	<g
   id="g251">&#10;		<path
   class="st16"
   d="M141.4,743.5h3c3.2,0,5.3,1.6,5.3,5.2c0,3.6-2.1,5.2-5.1,5.2h-3.1V743.5z M144.3,752c1.7,0,2.9-0.8,2.9-3.2    c0-2.5-1.2-3.2-2.9-3.2h-0.4v6.4H144.3z"
   id="path247" />&#10;		<path
   class="st16"
   d="M151.6,743.5h6.6v2.1h-4.1v2h3.5v2.1h-3.5v2.2h4.3v2.1h-6.8V743.5z"
   id="path248" />&#10;		<path
   class="st16"
   d="M160.4,743.5h3.6c2.2,0,3.9,0.6,3.9,2.6c0,0.9-0.5,1.9-1.4,2.2v0.1c1.1,0.3,1.9,1.1,1.9,2.4    c0,2.1-1.8,3.1-4.1,3.1h-3.9V743.5z M164,747.7c1.1,0,1.5-0.5,1.5-1.2c0-0.8-0.5-1.1-1.5-1.1h-1.1v2.2H164z M164.2,752.1    c1.2,0,1.8-0.4,1.8-1.3c0-0.9-0.6-1.2-1.8-1.2h-1.2v2.5H164.2z"
   id="path249" />&#10;		<path
   class="st16"
   d="M170.1,749.1v-5.5h2.5v5.8c0,2,0.6,2.7,1.7,2.7c1.2,0,1.8-0.7,1.8-2.7v-5.8h2.4v5.5c0,3.5-1.4,5.1-4.2,5.1    S170.1,752.6,170.1,749.1z"
   id="path250" />&#10;		<path
   class="st16"
   d="M180.3,748.8c0-3.5,2.3-5.5,5.1-5.5c1.5,0,2.6,0.6,3.3,1.4l-1.3,1.5c-0.5-0.5-1.1-0.7-1.9-0.7    c-1.5,0-2.7,1.2-2.7,3.2c0,2.1,0.9,3.3,2.9,3.3c0.4,0,0.8-0.1,1-0.3v-1.7h-1.7v-2h3.9v4.9c-0.7,0.7-2,1.3-3.5,1.3    C182.6,754.2,180.3,752.3,180.3,748.8z"
   id="path251" />&#10;	</g>&#10;	<path
   id="rect251"
   class="st24"
   style="fill:none;stroke:#ffffff;stroke-miterlimit:10"
   d="m 114.2,764.90002 h 86.4 v 25.6 h -86.4 z" />&#10;	<g
   id="g254">&#10;		<path
   class="st16"
   d="M40.1,479.3h2.5v8.3h4v2.1h-6.5V479.3z"
   id="path252" />&#10;		<path
   class="st16"
   d="M48.4,479.3H55v2.1h-4.1v2h3.5v2.1h-3.5v2.2h4.3v2.1h-6.8V479.3z"
   id="path253" />&#10;		<path
   class="st16"
   d="M57.2,479.3h3c3.2,0,5.3,1.6,5.3,5.2c0,3.6-2.1,5.2-5.1,5.2h-3.1V479.3z M60.1,487.7c1.7,0,2.9-0.8,2.9-3.2    c0-2.5-1.2-3.2-2.9-3.2h-0.4v6.4H60.1z"
   id="path254" />&#10;	</g>&#10;	<g
   id="g255">&#10;		<path
   id="rect254"
   class="st8"
   style="fill:#e2eade"
   d="m 143.7,628.79999 h 5.4 v 10.6 h -5.4 z" />&#10;		<path
   id="rect255"
   class="st9"
   style="fill:#c29148"
   d="m 143.7,631.09998 h 5.4 v 6 h -5.4 z" />&#10;	</g>&#10;	<g
   id="g257">&#10;		<path
   id="rect256"
   class="st8"
   style="fill:#e2eade"
   d="m 154.3,628.79999 h 5.4 v 10.6 h -5.4 z" />&#10;		<path
   id="rect257"
   class="st9"
   style="fill:#c29148"
   d="m 154.3,631.09998 h 5.4 v 6 h -5.4 z" />&#10;	</g>&#10;	<path
   id="rect258"
   class="st7"
   style="fill:#474544"
   d="m 127.1,630.09998 h 4.2 v 6.9 h -4.2 z" />&#10;	&#10;		<path
   id="rect259"
   class="st7"
   transform="matrix(6.123234e-17 -1 1 6.123234e-17 -567.8676 709.3395)"
   style="fill:#474544"
   d="m 68.599998,635.20001 h 4.2 v 6.9 h -4.2 z" />&#10;	<path
   id="rect260"
   class="st9"
   style="fill:#c29148"
   d="m 120.5,630.09998 h 4.2 v 6.9 h -4.2 z" />&#10;	<path
   id="rect261"
   class="st9"
   style="fill:#c29148"
   d="m 110.4,630.09998 h 4.2 v 6.9 h -4.2 z" />&#10;	<path
   class="st4"
   d="M239.5,609.2c0-2.6,1.6-4.8,3.9-5.7v-3.4h-17.2c-5,0-9,4-9,9s4,9,9,9h17.2v-3.4   C241.2,614,239.5,611.8,239.5,609.2z M227.8,615.3c-3.4,0-6.1-2.7-6.1-6.1s2.7-6.1,6.1-6.1s6.1,2.7,6.1,6.1   S231.2,615.3,227.8,615.3z"
   id="path261" />&#10;	<g
   id="g263">&#10;		&#10;			<path
   id="rect262"
   class="st8"
   transform="matrix(-1.836970e-16 1 -1 -1.836970e-16 779.4555 428.6923)"
   style="fill:#e2eade"
   d="m 169.39999,601.29999 h 11.9 v 5.6 h -11.9 z" />&#10;		&#10;			<path
   id="rect263"
   class="st10"
   transform="matrix(-1.836970e-16 1 -1 -1.836970e-16 779.4555 428.6923)"
   style="fill:#8dddde"
   d="m 172.10001,601.29999 h 6.6 v 5.6 h -6.6 z" />&#10;	</g>&#10;</g>&#10;<g
   id="layer1">&#10;	<path
   id="rect815"
   d="M495.2,0v77.9L405.9,78V0.2h-35.7v78.2h0l0.2,321.8l160.6-0.2l-0.2-321.8h0.1V0L495.2,0z" />&#10;	<path
   id="rect821"
   class="st16"
   style="fill:#ffffff"
   d="m 394.39999,369.39999 h 112.5 v 28.5 h -112.5 z" />&#10;	<path
   id="rect825"
   class="st25"
   d="M400.3,371H417c2.9,0,5.3,2.4,5.3,5.3V391c0,2.9-2.4,5.3-5.3,5.3h-16.8c-2.9,0-5.3-2.4-5.3-5.3   v-14.7C394.9,373.4,397.3,371,400.3,371z" />&#10;	<path
   id="rect872"
   class="st25"
   d="M456.2,371H473c2.9,0,5.3,2.4,5.3,5.3V391c0,2.9-2.4,5.3-5.3,5.3h-16.8c-2.9,0-5.3-2.4-5.3-5.3   v-14.7C450.9,373.3,453.3,371,456.2,371z" />&#10;	<path
   id="rect874"
   class="st25"
   d="M427.5,371h18.1c2.6,0,4.6,2.1,4.6,4.6v16.1c0,2.6-2.1,4.6-4.6,4.6h-18.1   c-2.6,0-4.6-2.1-4.6-4.6v-16.1C422.9,373.1,425,371,427.5,371z" />&#10;	<path
   id="rect947"
   class="st26"
   style="opacity:0.99;fill:#808080;enable-background:new"
   d="m 407.10001,384.79999 h 2.8 v 53.6 h -2.8 z" />&#10;	<path
   id="rect949"
   class="st26"
   style="opacity:0.99;fill:#808080;enable-background:new"
   d="m 435.20001,384.79999 h 2.8 v 53.6 h -2.8 z" />&#10;	<path
   id="rect951"
   class="st26"
   style="opacity:0.99;fill:#808080;enable-background:new"
   d="m 463.10001,384.79999 h 2.8 v 53.6 h -2.8 z" />&#10;	<path
   id="rect87"
   d="m 392.89999,274.10001 h 114.6 v 28.8 h -114.6 z" />&#10;	<path
   id="path31-1"
   class="st16"
   d="M415.9,141.3c1,0,1.1,0,1.3-0.1c0.1-0.1,0.2-0.2,0.3-0.3c0.1-0.2,0.1-0.3,0.1-2.3l0-2.2l2.1,0   l2.1,0l0,2.7c0,3,0,3.2-0.3,4c-0.3,1-1.2,1.7-2.2,1.8c-0.6,0.1-1.3,0.1-1.9,0.1c-0.8,0-1.8,0-2.1-0.1l-0.5,0l0-1.8l0-1.8   L415.9,141.3L415.9,141.3z M436.2,147.3c18.1,0,22.6,0,21.9,0.1l-0.1,0l0.1,0c0.1,0,0.1,0.1-0.1,0.1c-0.1,0-0.1,0,0.2,0.1l0.4,0   l-0.4,0c-0.2,0-0.3,0-0.3,0c0.1,0,0.1,0.1,0.1,0.5c0,0.5,0,0.5,0.2,0.5c0.1,0,0.1,0-0.1,0c-0.1,0-0.2,0-0.2,0.1   c0,0-7.2,0.1-21.5,0.1l-21.5,0l0-0.8l0-0.8L436.2,147.3z M419.8,130.8l2.1,0l0,1.7l0,1.7l-2.1,0l-2.1,0l0-1.7l0-1.7L419.8,130.8z    M424.2,137.2c0.1-0.9,0.4-1.8,0.8-2.6c0.1-0.2,0.2-0.4,0.3-0.5c0.1-0.1,0.2-0.2,0.2-0.3c0.2-0.4,0.5-0.7,0.8-1   c0,0,0.1-0.1,0.1-0.1c0.3-0.3,0.6-0.6,1-0.9c0.5-0.3,1-0.6,1.6-0.8c0.8-0.3,1.7-0.5,2.6-0.4c0.5,0,1,0.1,1.5,0.2   c0.3,0.1,0.7,0.2,0.9,0.3c0.1,0.1,0.2,0.1,0.3,0.1c0.2,0.1,0.4,0.2,0.5,0.3c1.3,0.9,2.3,2,3,3.4c0.8,1.7,1,3.7,0.3,5.4   c-0.2,0.6-0.5,1.1-0.8,1.6c-0.3,0.6-0.8,1.1-1.3,1.5c-0.8,0.9-1.9,1.5-3,1.8c-0.9,0.2-1.8,0.2-2.7,0.1c-1-0.2-2-0.6-2.9-1.2   c-0.3-0.2-0.6-0.5-0.9-0.8c-0.1-0.1-0.2-0.2-0.3-0.3c-0.9-1-1.5-2.3-1.9-3.6C424.2,138.6,424.1,137.9,424.2,137.2L424.2,137.2z    M428.3,139c0.2,0.8,0.6,1.5,1.3,2.1c0.7,0.6,1.7,0.8,2.6,0.6c1.1-0.5,2-1.5,2.3-2.7c0.2-0.8,0.2-1.6,0-2.4   c-0.2-0.9-0.8-1.7-1.5-2.2c-0.2-0.2-0.5-0.3-0.8-0.4c-0.7-0.1-1.4-0.1-2,0.2c-0.6,0.4-1.1,0.9-1.4,1.5   C428.1,136.8,428,137.9,428.3,139z M440.3,130.8c0,0,1,0,2.1,0l2.1,0l0,1.9c0,1.8,0,1.9,0.1,2.3c0.4,0.8,1.3,1.3,2.1,1   c0.4-0.1,0.8-0.4,1-0.8l0.2-0.4l0-2l0-2l2.1,0l2.1,0l0,2.2c0.1,0.9,0,1.8-0.1,2.7c-0.2,0.8-0.6,1.6-1.1,2.2   c-0.1,0.1-0.2,0.2-0.2,0.3c-0.3,0.3-0.6,0.7-1,0.9c-0.4,0.3-0.8,0.5-1.3,0.7c-0.1,0-0.4,0.1-0.7,0.2c-0.5,0.2-1,0.2-1.5,0.2   c-0.5,0-1.1,0-1.6-0.2c-0.6-0.1-1.2-0.4-1.7-0.7c-0.6-0.4-1.2-1-1.6-1.6c-0.6-0.8-0.9-1.7-1-2.7   C440.2,133.5,440.2,132.2,440.3,130.8L440.3,130.8z M446.3,141.3l3.5,0l0,1.8l0,1.8l-3.5,0l-3.5,0l0-1.8l0-1.8L446.3,141.3z    M452.3,128c0,0,0.1-0.1,0.1-0.2c0-0.2,0-0.2,0.3-0.3c0.1,0,6.1,0,13.2,0l12.9,0l0,0.8l0,0.8l-13.1,0c-7.2,0-13.2,0-13.2,0   c-0.1,0-0.1-0.1-0.1-0.5C452.2,128.2,452.2,128,452.3,128L452.3,128z M458.2,136.6l4.5,0l0,1.8l0,1.8l-4.5,0l-4.5,0l0-1.8l0-1.8   L458.2,136.6z M466.2,130.7l2.1,0l0,1.7l0,1.7l-2.1,0l-2.1,0l0-1.7l0-1.7L466.2,130.7z M466.2,136.1l2.1,0l0,4.5l0,4.5l-2.1,0   l-2.1,0l0-4.5l0-4.5L466.2,136.1z M474.7,130.7l4.5,0l0,1.7l0,1.7l-4.5,0l-4.5,0l0-1.7l0-1.7L474.7,130.7z M471,136.3   c0,0,1,0,2.1,0l2.1,0l0,2.1c0,2.9-0.1,2.7,2.1,2.8l1.4,0l0,1.8l0,1.8l-0.5,0.1c-1.3,0.1-2.6,0.1-3.9,0c-0.9-0.1-1.8-0.5-2.4-1.1   c-0.5-0.6-0.8-1.4-0.9-2.2C470.9,140.8,470.9,136.4,471,136.3L471,136.3z M481.7,129c0.1-0.4,0.3-0.7,0.6-1   c0.8-0.8,2.2-0.9,3.1-0.2c0.3,0.2,0.6,0.5,0.8,0.9c0.1,0.3,0.2,0.6,0.2,0.9c0,0.3,0,0.7-0.2,1c-0.4,0.7-1.1,1.2-1.9,1.3   c-0.7,0.1-1.4-0.2-1.9-0.7C481.7,130.6,481.5,129.8,481.7,129L481.7,129z M482.1,130.5c0.3,0.5,0.8,0.9,1.4,1.1   c0.6,0.1,1.3,0,1.8-0.5c0.2-0.1,0.3-0.3,0.4-0.6c0.2-0.3,0.2-0.6,0.2-0.9c0-0.3,0-0.6-0.2-0.9c-0.1-0.3-0.3-0.5-0.6-0.6   c-0.2-0.1-0.4-0.3-0.6-0.3c-1-0.3-2.1,0.2-2.5,1.2C481.9,129.4,481.9,130,482.1,130.5L482.1,130.5z M483.7,128.3   c0.3,0,0.6,0,0.9,0.1c0.4,0.2,0.5,0.7,0.3,1.1c-0.1,0.1-0.2,0.2-0.3,0.2l-0.2,0.1l0.2,0.2c0.1,0.2,0.3,0.3,0.4,0.5   c0.1,0.1,0.1,0.2,0.2,0.3c0.1,0.1,0,0.1-0.2,0.1l-0.2,0l-0.3-0.5c-0.4-0.6-0.5-0.6-0.9-0.6l-0.3,0l0,0.6l0,0.6l-0.2,0l-0.2,0l0-1.3   l0-1.3L483.7,128.3z M483.8,129.4c0.4,0,0.5,0,0.7-0.1c0.3-0.2,0.1-0.6-0.3-0.7c-0.3,0-0.6,0-0.8,0c0,0.1,0,0.3,0,0.4l0,0.4   L483.8,129.4z" />&#10;	<path
   id="rect64"
   class="st25"
   d="M484,371h16.8c2.9,0,5.3,2.4,5.3,5.3V391c0,2.9-2.4,5.3-5.3,5.3H484c-2.9,0-5.3-2.4-5.3-5.3   v-14.7C478.7,373.3,481,371,484,371z" />&#10;	<path
   id="rect66"
   class="st26"
   style="opacity:0.99;fill:#808080;enable-background:new"
   d="m 490.79999,384.79999 h 2.8 v 53.6 h -2.8 z" />&#10;	<path
   id="circle264"
   class="st27"
   style="fill:#cccbcb"
   d="m 489.90001,311.89999 a 39.299999,39.299999 0 0 1 -39.3,39.3 39.299999,39.299999 0 0 1 -39.3,-39.3 39.299999,39.299999 0 0 1 39.3,-39.3 39.299999,39.299999 0 0 1 39.3,39.3 z" />&#10;	<path
   id="path133"
   class="st16"
   style="fill:#ffffff"
   d="m 482.80001,311.89999 a 32.200001,32.200001 0 0 1 -32.2,32.2 32.200001,32.200001 0 0 1 -32.2,-32.2 32.200001,32.200001 0 0 1 32.2,-32.2 32.200001,32.200001 0 0 1 32.2,32.2 z" />&#10;	<path
   id="rect264"
   class="st16"
   style="fill:#ffffff"
   d="m 370.20001,161.5 h 60.7 v 107.2 h -60.7 z" />&#10;	<path
   id="rect265"
   d="m 370.20001,163.7 h 57.2 v 102.9 h -57.2 z" />&#10;	<path
   id="rect266"
   class="st28"
   style="fill:#2a4b9a"
   d="m 372,163.3 h 57.2 V 266.9 H 372 Z" />&#10;	<path
   id="path144"
   class="st29"
   style="fill:#ab9c38"
   d="m 389.79999,258 a 8.8999996,8.8999996 0 0 1 -8.9,8.9 8.8999996,8.8999996 0 0 1 -8.9,-8.9 8.8999996,8.8999996 0 0 1 8.9,-8.9 8.8999996,8.8999996 0 0 1 8.9,8.9 z" />&#10;	<path
   id="rect952"
   class="st30"
   style="fill:#96841f"
   d="m 372,256.60001 h 17.9 v 2.9 H 372 Z" />&#10;	<path
   id="rect956"
   class="st16"
   style="fill:#ffffff"
   d="m 453.10001,179.39999 h 77.9 v 60.7 h -77.9 z" />&#10;	<path
   id="rect958"
   d="m 454.79999,181.2 h 74.3 v 57.2 h -74.3 z" />&#10;	<path
   id="rect960"
   class="st31"
   style="fill:#333333"
   d="m 467,184.8 h 50 v 50 h -50 z" />&#10;	<path
   id="rect962"
   class="st27"
   style="fill:#cccbcb"
   d="m 467,234.8 h 8.9 v 14.3 H 467 Z" />&#10;	<path
   id="rect964"
   class="st27"
   style="fill:#cccbcb"
   d="m 508.10001,234.8 h 8.9 v 14.3 h -8.9 z" />&#10;	<path
   id="rect966"
   class="st27"
   style="fill:#cccbcb"
   d="m 479.5,234.8 h 8.9 v 14.3 h -8.9 z" />&#10;	<path
   id="rect968"
   class="st27"
   style="fill:#cccbcb"
   d="m 495.60001,234.8 h 8.9 v 14.3 h -8.9 z" />&#10;	<path
   id="rect970"
   class="st27"
   style="fill:#cccbcb"
   d="m 467,170.5 h 8.9 v 14.3 H 467 Z" />&#10;	<path
   id="rect972"
   class="st27"
   style="fill:#cccbcb"
   d="m 508.10001,170.5 h 8.9 v 14.3 h -8.9 z" />&#10;	<path
   id="rect974"
   class="st27"
   style="fill:#cccbcb"
   d="m 479.5,170.5 h 8.9 v 14.3 h -8.9 z" />&#10;	<path
   id="rect976"
   class="st27"
   style="fill:#cccbcb"
   d="m 495.60001,170.5 h 8.9 v 14.3 h -8.9 z" />&#10;	<path
   id="rect978"
   class="st26"
   style="opacity:0.99;fill:#808080;enable-background:new"
   d="m 470,233 h 2.9 v 8.9 h -2.8 z" />&#10;	<path
   id="rect980"
   class="st26"
   style="opacity:0.99;fill:#808080;enable-background:new"
   d="m 482.5,233 h 2.9 v 8.9 h -2.8 z" />&#10;	<path
   id="rect982"
   class="st26"
   style="opacity:0.99;fill:#808080;enable-background:new"
   d="m 498.6,233 h 2.8 l 0.1,8.9 h -2.8 z" />&#10;	<path
   id="rect984"
   class="st26"
   style="opacity:0.99;fill:#808080;enable-background:new"
   d="m 511.1,233 h 2.8 l 0.1,8.9 h -2.8 z" />&#10;	<path
   id="rect986"
   class="st26"
   style="opacity:0.99;fill:#808080;enable-background:new"
   d="m 470,186.5 h 2.9 v -8.9 h -2.8 z" />&#10;	<path
   id="rect988"
   class="st26"
   style="opacity:0.99;fill:#808080;enable-background:new"
   d="m 482.5,186.5 h 2.9 v -8.9 h -2.8 z" />&#10;	<path
   id="rect990"
   class="st26"
   style="opacity:0.99;fill:#808080;enable-background:new"
   d="m 498.6,186.5 h 2.8 l 0.1,-8.9 h -2.8 z" />&#10;	<path
   id="rect992"
   class="st26"
   style="opacity:0.99;fill:#808080;enable-background:new"
   d="m 511.1,186.5 h 2.8 l 0.1,-8.9 h -2.8 z" />&#10;	&#10;		<path
   id="path994"
   class="st27"
   transform="matrix(0.185 -0.9827 0.9827 0.185 384.065 532.5181)"
   style="fill:#cccbcb"
   d="m 525.59998,34.700001 a 12.5,12.5 0 0 1 -12.5,12.5 12.5,12.5 0 0 1 -12.5,-12.5 12.5,12.5 0 0 1 12.5,-12.5 12.5,12.5 0 0 1 12.5,12.5 z" />&#10;	<path
   id="circle996"
   class="st27"
   style="fill:#cccbcb"
   d="m 400.5,34.700001 a 12.5,12.5 0 0 1 -12.5,12.5 12.5,12.5 0 0 1 -12.5,-12.5 12.5,12.5 0 0 1 12.5,-12.5 12.5,12.5 0 0 1 12.5,12.5 z" />&#10;	<path
   id="rect836-7"
   class="st27"
   d="M434.4,82.9h5.4c5.4,0,9.8,4.4,9.8,9.8l0,0c0,5.4-4.4,9.8-9.8,9.8l0,0h-5.4   c-5.4,0-9.8-4.4-9.8-9.8l0,0C424.6,87.3,429,82.9,434.4,82.9z" />&#10;	<path
   id="rect836-6"
   class="st27"
   d="M461.2,82.9h5.4c5.4,0,9.8,4.4,9.8,9.8l0,0c0,5.4-4.4,9.8-9.8,9.8l0,0h-5.4   c-5.4,0-9.8-4.4-9.8-9.8c0,0,0,0,0,0l0,0C451.3,87.3,455.7,82.9,461.2,82.9L461.2,82.9z" />&#10;	&#10;		<path
   id="rect943"
   class="st27"
   transform="matrix(1 -8.295629e-03 8.295629e-03 1 -0.7748 4.0832)"
   style="fill:#cccbcb"
   d="m 482.60001,82.900002 h 18.5 V 107.9 h -18.5 z" />&#10;	<path
   id="rect1026"
   class="st27"
   d="M406.2,82.8h10.1c2.3,0,4.2,1.9,4.2,4.2v0v18.3c0,2.3-1.9,4.2-4.2,4.2h-10.1   c-2.3,0-4.2-1.9-4.2-4.2v0V87C401.9,84.7,403.8,82.8,406.2,82.8z" />&#10;	<path
   id="path1028"
   class="st16"
   style="fill:#ffffff"
   d="m 416.60001,100.6 a 5.4000001,5.4000001 0 0 1 -5.4,5.4 5.4000001,5.4000001 0 0 1 -5.4,-5.4 5.4000001,5.4000001 0 0 1 5.4,-5.400002 5.4000001,5.4000001 0 0 1 5.4,5.400002 z" />&#10;	<path
   id="rect1030"
   class="st27"
   d="M400.4,92.4l0.1,5.4c0.1,5.4-4.3,9.8-9.7,9.9l0,0c-5.4,0.1-9.8-4.3-9.9-9.7c0,0,0,0,0,0   l-0.1-5.4c-0.1-5.4,4.3-9.8,9.7-9.9l0,0C395.9,82.7,400.4,87,400.4,92.4C400.4,92.4,400.4,92.4,400.4,92.4z" />&#10;	<path
   id="circle105"
   class="st16"
   style="fill:#ffffff"
   d="m 397.80001,95.300003 a 7.0999999,7.0999999 0 0 1 -7.1,7.099997 7.0999999,7.0999999 0 0 1 -7.1,-7.099997 7.0999999,7.0999999 0 0 1 7.1,-7.1 7.0999999,7.0999999 0 0 1 7.1,7.1 z" />&#10;	<path
   id="path138"
   class="st16"
   style="fill:#ffffff"
   d="m 398.7,34.700001 a 10.7,10.7 0 0 1 -10.7,10.7 10.7,10.7 0 0 1 -10.7,-10.7 10.7,10.7 0 0 1 10.7,-10.7 10.7,10.7 0 0 1 10.7,10.7 z" />&#10;	&#10;		<path
   id="circle140"
   class="st16"
   transform="matrix(0.3827 -0.9239 0.9239 0.3827 284.6621 495.4519)"
   style="fill:#ffffff"
   d="m 523.79998,34.700001 a 10.7,10.7 0 0 1 -10.7,10.7 10.7,10.7 0 0 1 -10.7,-10.7 10.7,10.7 0 0 1 10.7,-10.7 10.7,10.7 0 0 1 10.7,10.7 z" />&#10;	<path
   id="circle147"
   class="st16"
   style="fill:#ffffff"
   d="m 498.89999,95.300003 a 7.0999999,7.0999999 0 0 1 -7.1,7.099997 7.0999999,7.0999999 0 0 1 -7.1,-7.099997 7.0999999,7.0999999 0 0 1 7.1,-7.1 7.0999999,7.0999999 0 0 1 7.1,7.1 z" />&#10;	<path
   id="rect267"
   class="st26"
   style="opacity:0.99;fill:#808080;enable-background:new"
   d="m 435.79999,56.799999 h 2.8 v 37.099999 h -2.8 z" />&#10;	<path
   id="rect268"
   class="st26"
   style="opacity:0.99;fill:#808080;enable-background:new"
   d="m 462.60001,57.299999 h 2.8 v 36.599999 h -2.8 z" />&#10;	<path
   id="rect269"
   class="st32"
   style="fill:#989898"
   d="m 411.5,32.099998 h 78.6 v 26.600001 h -78.6 z" />&#10;	<path
   id="rect105"
   d="m 413.29999,28.5 h 75 v 3.6 h -75 z" />&#10;	<g
   id="text112">&#10;		<g
   class="st33"
   id="g269">&#10;			<path
   class="st16"
   d="M525.4,137.6c0.1,0,0.1,0,0.2,0s0.1,0.1,0.1,0.1s0.1,0.2,0.1,0.3c0,0.1,0,0.3,0,0.5c0,0.3,0,0.5,0,0.6     c0,0.2-0.1,0.3-0.1,0.4c-0.1,0.1-0.1,0.1-0.2,0.2l-7.2,5.3h7.2c0.1,0,0.1,0,0.1,0c0,0,0.1,0.1,0.1,0.2c0,0.1,0,0.2,0.1,0.3     c0,0.1,0,0.3,0,0.5c0,0.2,0,0.3,0,0.5c0,0.1,0,0.2-0.1,0.3c0,0.1-0.1,0.1-0.1,0.2c0,0-0.1,0-0.1,0h-13.8c-0.1,0-0.1,0-0.2,0     c0,0-0.1-0.1-0.1-0.2c0-0.1,0-0.2-0.1-0.3c0-0.1,0-0.3,0-0.5c0-0.2,0-0.3,0-0.5c0-0.1,0-0.2,0.1-0.3c0-0.1,0.1-0.1,0.1-0.2     c0,0,0.1,0,0.2,0h6.4l-6.4-5.1c-0.1,0-0.1-0.1-0.2-0.2s-0.1-0.1-0.1-0.2c0-0.1,0-0.2-0.1-0.3c0-0.1,0-0.3,0-0.5     c0-0.2,0-0.3,0-0.5c0-0.1,0-0.2,0.1-0.3c0-0.1,0.1-0.1,0.1-0.1c0,0,0.1,0,0.1,0c0.1,0,0.2,0,0.3,0.1c0.1,0,0.2,0.1,0.4,0.3     l5.7,4.8l6.8-5.1c0.2-0.1,0.3-0.2,0.4-0.2S525.4,137.6,525.4,137.6z"
   id="path269" />&#10;		</g>&#10;		<g
   class="st33"
   id="g270">&#10;			<path
   class="st16"
   d="M520.1,130.6h5.3c0.1,0,0.1,0,0.2,0c0,0,0.1,0.1,0.1,0.2c0,0.1,0,0.2,0.1,0.3c0,0.1,0,0.3,0,0.5     c0,0.2,0,0.3,0,0.5c0,0.1,0,0.2-0.1,0.3c0,0.1-0.1,0.1-0.1,0.2s-0.1,0-0.2,0h-5.3l-8.1,4.1c-0.2,0.1-0.3,0.1-0.4,0.1     s-0.2,0-0.2-0.1c-0.1-0.1-0.1-0.2-0.1-0.3s0-0.3,0-0.6c0-0.2,0-0.4,0-0.5s0-0.2,0.1-0.3c0-0.1,0.1-0.1,0.1-0.2s0.1-0.1,0.2-0.1     l4.1-2c0.4-0.2,0.8-0.4,1.2-0.6c0.4-0.2,0.9-0.4,1.3-0.6v0c-0.4-0.2-0.8-0.3-1.3-0.5c-0.4-0.2-0.8-0.4-1.2-0.5l-4.1-2     c-0.1,0-0.1-0.1-0.2-0.1s-0.1-0.1-0.1-0.2c0-0.1,0-0.2-0.1-0.3c0-0.1,0-0.3,0-0.5c0-0.3,0-0.5,0-0.6c0-0.2,0.1-0.3,0.1-0.3     s0.1-0.1,0.2-0.1c0.1,0,0.2,0.1,0.4,0.1L520.1,130.6z"
   id="path270" />&#10;		</g>&#10;		<g
   class="st33"
   id="g274">&#10;			<path
   class="st16"
   d="M520.1,121.1c0.3,0,0.5,0,0.6,0.1c0.1,0.1,0.2,0.2,0.2,0.3v4.6c0,0.1-0.1,0.2-0.2,0.3     c-0.1,0.1-0.3,0.1-0.6,0.1c-0.3,0-0.5,0-0.6-0.1c-0.1-0.1-0.2-0.2-0.2-0.3v-4.6c0-0.1,0-0.1,0-0.2s0.1-0.1,0.1-0.1     c0.1,0,0.1-0.1,0.2-0.1S520,121.1,520.1,121.1z"
   id="path271" />&#10;			<path
   class="st16"
   d="M518.5,109.7c1.1,0,2.1,0.1,3,0.3c0.9,0.2,1.7,0.5,2.3,0.9c0.7,0.4,1.2,0.9,1.5,1.6     c0.4,0.7,0.5,1.5,0.5,2.4c0,0.9-0.2,1.7-0.5,2.3c-0.3,0.6-0.8,1.1-1.4,1.5c-0.6,0.4-1.4,0.6-2.3,0.8s-2,0.2-3.1,0.2     c-1.1,0-2.1-0.1-3-0.3s-1.7-0.5-2.3-0.9c-0.7-0.4-1.2-0.9-1.5-1.6s-0.5-1.4-0.5-2.4c0-0.9,0.2-1.7,0.5-2.3s0.8-1.1,1.4-1.5     s1.4-0.6,2.3-0.8S517.3,109.7,518.5,109.7z M518.7,111.6c-0.7,0-1.4,0-1.9,0.1c-0.6,0.1-1.1,0.1-1.5,0.2     c-0.4,0.1-0.8,0.2-1.1,0.4c-0.3,0.2-0.6,0.3-0.8,0.6c-0.2,0.2-0.4,0.5-0.4,0.8c-0.1,0.3-0.1,0.6-0.1,1c0,0.6,0.1,1.1,0.4,1.5     c0.3,0.4,0.7,0.7,1.2,0.9c0.5,0.2,1.1,0.4,1.8,0.5c0.7,0.1,1.4,0.1,2.2,0.1c1.1,0,2-0.1,2.7-0.2c0.8-0.1,1.4-0.3,1.8-0.5     c0.5-0.2,0.8-0.5,1-0.9c0.2-0.4,0.3-0.8,0.3-1.4c0-0.4-0.1-0.8-0.2-1.1c-0.1-0.3-0.3-0.6-0.6-0.8c-0.2-0.2-0.5-0.4-0.9-0.6     s-0.7-0.3-1.2-0.4c-0.4-0.1-0.9-0.1-1.4-0.2C519.7,111.6,519.2,111.6,518.7,111.6z"
   id="path272" />&#10;			<path
   class="st16"
   d="M521.6,98.8c0.7,0,1.2,0.1,1.8,0.3c0.5,0.2,1,0.6,1.4,1c0.4,0.4,0.7,1,0.9,1.6c0.2,0.6,0.3,1.3,0.3,2.1     c0,0.5,0,0.9-0.1,1.3c-0.1,0.4-0.2,0.8-0.3,1.1s-0.2,0.6-0.3,0.8c-0.1,0.2-0.2,0.3-0.2,0.4c-0.1,0.1-0.1,0.1-0.2,0.1     c-0.1,0-0.1,0.1-0.2,0.1c-0.1,0-0.2,0-0.3,0c-0.1,0-0.2,0-0.4,0c-0.3,0-0.5,0-0.6-0.1c-0.1-0.1-0.2-0.1-0.2-0.2     c0-0.1,0.1-0.2,0.2-0.4c0.1-0.2,0.2-0.5,0.4-0.8s0.3-0.7,0.4-1.1c0.1-0.4,0.2-0.9,0.2-1.4c0-0.5-0.1-0.9-0.2-1.3     c-0.1-0.4-0.3-0.7-0.5-1c-0.2-0.3-0.5-0.5-0.8-0.6s-0.7-0.2-1-0.2c-0.4,0-0.8,0.1-1.1,0.2s-0.6,0.4-0.8,0.7s-0.4,0.7-0.5,1.2     c-0.1,0.5-0.2,1-0.2,1.6v1.4c0,0.1,0,0.1,0,0.2c0,0.1-0.1,0.1-0.1,0.1c-0.1,0-0.1,0.1-0.2,0.1s-0.2,0-0.4,0c-0.1,0-0.3,0-0.3,0     c-0.1,0-0.2-0.1-0.2-0.1c-0.1,0-0.1-0.1-0.1-0.1c0-0.1,0-0.1,0-0.2v-1.3c0-0.5-0.1-0.9-0.2-1.3s-0.3-0.7-0.5-1s-0.5-0.5-0.8-0.6     c-0.3-0.1-0.7-0.2-1.1-0.2c-0.3,0-0.6,0-0.8,0.1c-0.3,0.1-0.5,0.2-0.7,0.4c-0.2,0.2-0.4,0.4-0.5,0.7c-0.1,0.3-0.2,0.6-0.2,1     c0,0.4,0.1,0.8,0.2,1.2s0.3,0.7,0.4,1c0.1,0.3,0.3,0.5,0.4,0.7c0.1,0.2,0.2,0.3,0.2,0.4c0,0.1,0,0.1,0,0.1c0,0-0.1,0.1-0.1,0.1     c-0.1,0-0.1,0-0.2,0.1c-0.1,0-0.2,0-0.4,0c-0.1,0-0.2,0-0.3,0c-0.1,0-0.2,0-0.2,0c-0.1,0-0.1,0-0.2-0.1c-0.1,0-0.1-0.1-0.2-0.1     s-0.2-0.2-0.3-0.4c-0.1-0.2-0.3-0.5-0.4-0.8c-0.1-0.3-0.2-0.7-0.3-1.1s-0.1-0.9-0.1-1.3c0-0.7,0.1-1.2,0.3-1.8     c0.2-0.5,0.4-0.9,0.7-1.3c0.3-0.3,0.7-0.6,1.1-0.8c0.4-0.2,0.9-0.2,1.4-0.2c0.5,0,0.9,0.1,1.3,0.2s0.7,0.3,1,0.5     c0.3,0.2,0.6,0.5,0.8,0.8c0.2,0.3,0.4,0.7,0.4,1.2h0c0.1-0.5,0.2-0.9,0.4-1.4c0.2-0.4,0.4-0.8,0.7-1.1c0.3-0.3,0.6-0.5,1-0.7     C520.7,98.8,521.2,98.8,521.6,98.8z"
   id="path273" />&#10;			<path
   class="st16"
   d="M522,86.8c0.6,0,1.2,0.1,1.7,0.3c0.5,0.2,0.9,0.5,1.2,1c0.3,0.4,0.6,0.9,0.8,1.5c0.2,0.6,0.3,1.3,0.3,2.1     c0,0.7-0.1,1.4-0.2,2c-0.2,0.6-0.4,1.1-0.7,1.5s-0.7,0.7-1.1,0.9c-0.4,0.2-0.9,0.3-1.5,0.3c-0.5,0-0.9-0.1-1.2-0.2     c-0.4-0.1-0.7-0.4-1-0.6c-0.3-0.3-0.6-0.6-0.9-1s-0.5-0.9-0.8-1.4c-0.2,0.4-0.5,0.8-0.7,1.2c-0.3,0.3-0.5,0.6-0.8,0.9     c-0.3,0.2-0.6,0.4-1,0.5c-0.3,0.1-0.7,0.2-1.1,0.2c-0.5,0-1-0.1-1.4-0.3c-0.4-0.2-0.8-0.5-1.1-0.8c-0.3-0.4-0.6-0.8-0.8-1.4     c-0.2-0.6-0.3-1.2-0.3-2c0-0.7,0.1-1.3,0.3-1.9c0.2-0.5,0.4-1,0.7-1.3c0.3-0.3,0.7-0.6,1.1-0.8c0.4-0.2,0.8-0.2,1.3-0.2     c0.4,0,0.7,0.1,1.1,0.2c0.3,0.1,0.7,0.3,1,0.5c0.3,0.2,0.6,0.5,0.9,0.9c0.3,0.3,0.5,0.7,0.8,1.2c0.3-0.5,0.5-1,0.8-1.4     c0.3-0.4,0.6-0.8,0.9-1c0.3-0.3,0.6-0.5,1-0.6C521.2,86.9,521.6,86.8,522,86.8z M514.7,89.2c-0.3,0-0.6,0.1-0.8,0.2     c-0.3,0.1-0.5,0.3-0.6,0.5c-0.2,0.2-0.3,0.5-0.4,0.8c-0.1,0.3-0.1,0.7-0.1,1c0,0.8,0.2,1.4,0.5,1.8c0.4,0.4,0.9,0.6,1.5,0.6     c0.3,0,0.6,0,0.8-0.1c0.2-0.1,0.5-0.3,0.7-0.5c0.2-0.2,0.4-0.5,0.6-0.8c0.2-0.3,0.4-0.7,0.7-1.1c-0.4-0.7-0.8-1.3-1.3-1.7     C515.8,89.4,515.2,89.2,514.7,89.2z M522.2,88.7c-0.3,0-0.6,0.1-0.9,0.2c-0.3,0.1-0.5,0.3-0.8,0.6c-0.2,0.3-0.5,0.6-0.7,1     c-0.2,0.4-0.5,0.8-0.7,1.3c0.2,0.5,0.5,0.9,0.7,1.2s0.5,0.6,0.7,0.9c0.2,0.2,0.5,0.4,0.8,0.5c0.3,0.1,0.6,0.2,0.9,0.2     c0.7,0,1.3-0.2,1.7-0.7c0.4-0.5,0.6-1.2,0.6-2.2c0-0.9-0.2-1.7-0.6-2.1C523.5,89,522.9,88.7,522.2,88.7z"
   id="path274" />&#10;		</g>&#10;	</g>&#10;	<g
   id="text116">&#10;		<g
   class="st33"
   id="g276">&#10;			<path
   class="st16"
   d="M408.8,366.8c0.1,0.2,0.1,0.3,0.1,0.4s0,0.2-0.1,0.2c-0.1,0.1-0.2,0.1-0.3,0.1s-0.3,0-0.5,0s-0.4,0-0.5,0     s-0.2,0-0.3-0.1c-0.1,0-0.1-0.1-0.2-0.1c0,0-0.1-0.1-0.1-0.2l-1.2-3.5h-6l-1.2,3.4c0,0.1-0.1,0.1-0.1,0.2s-0.1,0.1-0.2,0.1     s-0.2,0.1-0.3,0.1s-0.3,0-0.5,0c-0.2,0-0.4,0-0.5,0c-0.1,0-0.2-0.1-0.3-0.1c-0.1-0.1-0.1-0.1-0.1-0.2c0-0.1,0-0.2,0.1-0.4     l4.8-13.3c0-0.1,0.1-0.1,0.1-0.2s0.1-0.1,0.2-0.1c0.1,0,0.2-0.1,0.4-0.1c0.1,0,0.3,0,0.5,0c0.2,0,0.4,0,0.6,0     c0.2,0,0.3,0,0.4,0.1c0.1,0,0.2,0.1,0.2,0.1c0.1,0.1,0.1,0.1,0.1,0.2L408.8,366.8z M402.6,355L402.6,355l-2.5,7.1h5L402.6,355z"
   id="path275" />&#10;			<path
   class="st16"
   d="M420,360.2c0,1.1-0.1,2.1-0.3,3c-0.2,0.9-0.5,1.7-0.9,2.3c-0.4,0.7-0.9,1.2-1.6,1.5     c-0.7,0.4-1.5,0.5-2.4,0.5c-0.9,0-1.7-0.2-2.3-0.5c-0.6-0.3-1.1-0.8-1.5-1.4c-0.4-0.6-0.6-1.4-0.8-2.3c-0.2-0.9-0.2-2-0.2-3.1     c0-1.1,0.1-2.1,0.3-3c0.2-0.9,0.5-1.7,0.9-2.3c0.4-0.7,0.9-1.2,1.6-1.5c0.7-0.4,1.4-0.5,2.4-0.5c0.9,0,1.7,0.2,2.3,0.5     c0.6,0.3,1.1,0.8,1.5,1.4s0.6,1.4,0.8,2.3C419.9,358,420,359.1,420,360.2z M418,360.4c0-0.7,0-1.4-0.1-1.9s-0.1-1.1-0.2-1.5     c-0.1-0.4-0.2-0.8-0.4-1.1c-0.2-0.3-0.3-0.6-0.6-0.8c-0.2-0.2-0.5-0.4-0.8-0.4s-0.6-0.1-1-0.1c-0.6,0-1.1,0.1-1.5,0.4     c-0.4,0.3-0.7,0.7-0.9,1.2c-0.2,0.5-0.4,1.1-0.5,1.8c-0.1,0.7-0.1,1.4-0.1,2.2c0,1.1,0.1,2,0.2,2.7c0.1,0.8,0.3,1.4,0.5,1.8     c0.2,0.5,0.5,0.8,0.9,1c0.4,0.2,0.8,0.3,1.4,0.3c0.4,0,0.8-0.1,1.1-0.2c0.3-0.1,0.6-0.3,0.8-0.6c0.2-0.2,0.4-0.5,0.6-0.9     c0.1-0.3,0.3-0.7,0.4-1.2c0.1-0.4,0.1-0.9,0.2-1.4C418,361.4,418,360.9,418,360.4z"
   id="path276" />&#10;		</g>&#10;	</g>&#10;	<g
   id="text120">&#10;		<g
   class="st33"
   id="g277">&#10;			<path
   class="st16"
   d="M441.9,355.1c0,0.1,0,0.3,0,0.4c0,0.1,0,0.2-0.1,0.3s-0.1,0.1-0.1,0.1c0,0-0.1,0-0.1,0     c-0.1,0-0.2-0.1-0.4-0.2c-0.2-0.1-0.5-0.3-0.8-0.5c-0.3-0.2-0.8-0.3-1.2-0.5c-0.5-0.1-1.1-0.2-1.7-0.2c-0.8,0-1.5,0.1-2.1,0.4     c-0.6,0.3-1.2,0.7-1.6,1.2c-0.4,0.5-0.8,1.1-1,1.8c-0.2,0.7-0.3,1.5-0.3,2.3c0,0.9,0.1,1.7,0.4,2.4c0.3,0.7,0.6,1.3,1.1,1.8     s1,0.9,1.6,1.1s1.3,0.4,2.1,0.4c0.4,0,0.9-0.1,1.3-0.2c0.5-0.1,0.9-0.3,1.3-0.5v-4.2h-3.3c-0.1,0-0.2-0.1-0.3-0.2     c-0.1-0.1-0.1-0.3-0.1-0.6c0-0.1,0-0.3,0-0.4s0-0.2,0.1-0.2s0.1-0.1,0.1-0.1c0,0,0.1,0,0.2,0h4.6c0.1,0,0.2,0,0.2,0     s0.2,0.1,0.2,0.1c0.1,0.1,0.1,0.1,0.2,0.2s0.1,0.2,0.1,0.4v5.5c0,0.2,0,0.4-0.1,0.5c-0.1,0.1-0.2,0.3-0.4,0.4     c-0.2,0.1-0.5,0.2-0.8,0.3c-0.3,0.1-0.7,0.2-1.1,0.3c-0.4,0.1-0.7,0.2-1.1,0.2s-0.7,0.1-1.1,0.1c-1.1,0-2.1-0.2-3-0.5     c-0.9-0.3-1.6-0.8-2.2-1.5s-1.1-1.4-1.4-2.3c-0.3-0.9-0.5-1.9-0.5-3c0-1.1,0.2-2.2,0.5-3.1c0.3-0.9,0.8-1.7,1.5-2.4     c0.6-0.6,1.4-1.2,2.2-1.5c0.9-0.4,1.8-0.5,2.9-0.5c0.5,0,1.1,0,1.5,0.1c0.5,0.1,0.9,0.2,1.3,0.3c0.4,0.1,0.7,0.3,0.9,0.4     c0.3,0.2,0.4,0.3,0.5,0.4c0.1,0.1,0.2,0.2,0.2,0.3S441.9,354.8,441.9,355.1z"
   id="path277" />&#10;		</g>&#10;	</g>&#10;	<g
   id="text124">&#10;		<g
   class="st33"
   id="g278">&#10;			<path
   class="st16"
   d="M468.9,362.5c0,0.1,0,0.3,0,0.4c0,0.1-0.1,0.2-0.1,0.2s-0.1,0.1-0.1,0.1c-0.1,0-0.1,0-0.2,0h-3.6v4     c0,0.1,0,0.1,0,0.1c0,0-0.1,0.1-0.1,0.1s-0.1,0.1-0.2,0.1s-0.2,0-0.4,0c-0.1,0-0.3,0-0.4,0c-0.1,0-0.2,0-0.3-0.1     c-0.1,0-0.1-0.1-0.1-0.1c0,0,0-0.1,0-0.1v-4h-3.6c-0.1,0-0.1,0-0.2,0c0,0-0.1-0.1-0.1-0.1s-0.1-0.2-0.1-0.2c0-0.1,0-0.2,0-0.4     c0-0.1,0-0.2,0-0.3c0-0.1,0.1-0.2,0.1-0.2s0.1-0.1,0.1-0.1c0,0,0.1,0,0.2,0h3.6v-4c0-0.1,0-0.1,0-0.2s0.1-0.1,0.1-0.1     c0.1,0,0.1-0.1,0.3-0.1c0.1,0,0.2,0,0.4,0c0.2,0,0.3,0,0.4,0c0.1,0,0.2,0,0.2,0.1s0.1,0.1,0.1,0.1s0,0.1,0,0.2v4h3.6     c0.1,0,0.1,0,0.2,0s0.1,0.1,0.1,0.1c0,0.1,0.1,0.1,0.1,0.2C468.9,362.2,468.9,362.3,468.9,362.5z"
   id="path278" />&#10;		</g>&#10;	</g>&#10;	<g
   id="text128">&#10;		<g
   class="st33"
   id="g280">&#10;			<path
   class="st16"
   d="M491.3,360.1c0,1.2-0.2,2.3-0.5,3.3s-0.8,1.7-1.4,2.3c-0.6,0.6-1.4,1.1-2.2,1.4c-0.9,0.3-1.9,0.5-3.2,0.5     h-3c-0.2,0-0.3-0.1-0.5-0.2c-0.2-0.1-0.2-0.3-0.2-0.6v-12.8c0-0.3,0.1-0.5,0.2-0.6c0.2-0.1,0.3-0.2,0.5-0.2h3.2     c1.2,0,2.3,0.2,3.1,0.5c0.9,0.3,1.6,0.8,2.2,1.4c0.6,0.6,1,1.3,1.3,2.2C491.2,358,491.3,359,491.3,360.1z M489.3,360.1     c0-0.8-0.1-1.5-0.3-2.2s-0.5-1.2-0.9-1.7c-0.4-0.5-0.9-0.9-1.6-1.1c-0.6-0.3-1.4-0.4-2.4-0.4h-1.9v11.2h2c0.9,0,1.7-0.1,2.3-0.3     c0.6-0.2,1.2-0.6,1.6-1.1s0.7-1.1,0.9-1.8C489.2,362,489.3,361.1,489.3,360.1z"
   id="path279" />&#10;			<path
   class="st16"
   d="M503.1,360.2c0,1.1-0.1,2.1-0.3,3c-0.2,0.9-0.5,1.7-0.9,2.3c-0.4,0.7-0.9,1.2-1.6,1.5     c-0.7,0.4-1.5,0.5-2.4,0.5c-0.9,0-1.7-0.2-2.3-0.5c-0.6-0.3-1.1-0.8-1.5-1.4c-0.4-0.6-0.6-1.4-0.8-2.3c-0.2-0.9-0.2-2-0.2-3.1     c0-1.1,0.1-2.1,0.3-3c0.2-0.9,0.5-1.7,0.9-2.3c0.4-0.7,0.9-1.2,1.6-1.5c0.7-0.4,1.4-0.5,2.4-0.5c0.9,0,1.7,0.2,2.3,0.5     c0.6,0.3,1.1,0.8,1.5,1.4s0.6,1.4,0.8,2.3C503,358,503.1,359.1,503.1,360.2z M501.1,360.4c0-0.7,0-1.4-0.1-1.9s-0.1-1.1-0.2-1.5     c-0.1-0.4-0.2-0.8-0.4-1.1c-0.2-0.3-0.3-0.6-0.6-0.8c-0.2-0.2-0.5-0.4-0.8-0.4s-0.6-0.1-1-0.1c-0.6,0-1.1,0.1-1.5,0.4     c-0.4,0.3-0.7,0.7-0.9,1.2c-0.2,0.5-0.4,1.1-0.5,1.8c-0.1,0.7-0.1,1.4-0.1,2.2c0,1.1,0.1,2,0.2,2.7c0.1,0.8,0.3,1.4,0.5,1.8     c0.2,0.5,0.5,0.8,0.9,1c0.4,0.2,0.8,0.3,1.4,0.3c0.4,0,0.8-0.1,1.1-0.2c0.3-0.1,0.6-0.3,0.8-0.6c0.2-0.2,0.4-0.5,0.6-0.9     c0.1-0.3,0.3-0.7,0.4-1.2c0.1-0.4,0.1-0.9,0.2-1.4C501.1,361.4,501.1,360.9,501.1,360.4z"
   id="path280" />&#10;		</g>&#10;	</g>&#10;</g>&#10;&#10;<path
   id="rect1707"
   class="st39"
   style="fill:#e30613"
   d="m 231.5,545 h 46.2 v 11.3 h -46.2 z" />&#10;&#10;&#10;&#10;<path
   id="circle281"
   class="st38"
   style="fill:#914f00"
   d="m 243.7,491.70001 a 11.9,11.9 0 0 1 -11.9,11.9 11.9,11.9 0 0 1 -11.9,-11.9 11.9,11.9 0 0 1 11.9,-11.9 11.9,11.9 0 0 1 11.9,11.9 z" />&#10;<path
   id="circle281-2"
   class="st39"
   style="fill:#e30613"
   d="m 243.1,550.70001 a 11.6,11.6 0 0 1 -11.6,11.6 11.6,11.6 0 0 1 -11.6,-11.6 11.6,11.6 0 0 1 11.6,-11.6 11.6,11.6 0 0 1 11.6,11.6 z" />&#10;&#10;&#10;<path
   id="rect1727"
   style="fill:#914f00;stroke-width:0.82631"
   class="st38"
   d="m 231.5,486 h 210.16228 v 11.3 H 231.5 Z" />&#10;&#10;&#10;<path
   id="rect1727-4"
   class="st39"
   style="fill:#e30613"
   d="m 266.29999,579.70001 h 203.39999 v 11.3 H 266.29999 Z" />&#10;<path
   id="rect1727-5"
   class="st39"
   style="fill:#e30613"
   d="m 266.29999,545 h 11.3 v 46.1 h -11.3 z" />&#10;&#10;&#10;&#10;<path
   id="rect1727-9"
   style="fill:#00b589;stroke-width:1.10678"
   class="st35"
   d="m 402.39999,409.60001 h 11.3 v 290.43844 h -11.3 z" /><path
   id="rect1727-9-9"
   style="fill:#00b589;stroke-width:0.883885"
   class="st35"
   transform="rotate(90)"
   d="m 690.57404,-413.68515 h 11.3 v 185.23523 h -11.3 z" />&#10;<path
   id="rect1727-10"
   class="st38"
   style="fill:#914f00"
   d="m 430.60001,409.60001 h 11.3 v 87.8 h -11.3 z" />&#10;<path
   id="rect1727-11"
   class="st39"
   style="fill:#e30613"
   d="m 458.39999,409.60001 h 11.3 v 181.5 h -11.3 z" />&#10;<path
   id="rect1727-12"
   class="st40"
   style="fill:#7b217f"
   d="m 486.20001,409.60001 h 11.3 v 499.29998 h -11.3 z" />&#10;<path
   id="circle281-5"
   class="st40"
   style="fill:#7b217f"
   d="m 243.70001,903.20001 a 11.6,11.6 0 0 1 -11.6,11.6 11.6,11.6 0 0 1 -11.6,-11.6 11.6,11.6 0 0 1 11.6,-11.6 11.6,11.6 0 0 1 11.6,11.6 z" />&#10;<path
   id="circle281-6"
   class="st40"
   style="fill:#7b217f"
   d="m 503.6,409.60001 a 11.6,11.6 0 0 1 -11.6,11.6 11.6,11.6 0 0 1 -11.6,-11.6 11.6,11.6 0 0 1 11.6,-11.6 11.6,11.6 0 0 1 11.6,11.6 z" />&#10;<path
   id="circle281-7"
   class="st39"
   style="fill:#e30613"
   d="m 475.80001,409.60001 a 11.6,11.6 0 0 1 -11.6,11.6 11.6,11.6 0 0 1 -11.6,-11.6 11.6,11.6 0 0 1 11.6,-11.6 11.6,11.6 0 0 1 11.6,11.6 z" />&#10;<path
   id="circle281-8"
   class="st38"
   style="fill:#914f00"
   d="m 447.80001,409.60001 a 11.6,11.6 0 0 1 -11.6,11.6 11.6,11.6 0 0 1 -11.6,-11.6 11.6,11.6 0 0 1 11.6,-11.6 11.6,11.6 0 0 1 11.6,11.6 z" />&#10;<path
   id="circle281-9"
   class="st35"
   style="fill:#00b589"
   d="m 419.80001,409.60001 a 11.6,11.6 0 0 1 -11.6,11.6 11.6,11.6 0 0 1 -11.6,-11.6 11.6,11.6 0 0 1 11.6,-11.6 11.6,11.6 0 0 1 11.6,11.6 z" /><path
   id="circle281-9-3"
   style="fill:#00b589"
   class="st35"
   d="m 242.98237,697.36414 a 11.6,11.6 0 0 1 -11.6,11.6 11.6,11.6 0 0 1 -11.6,-11.6 11.6,11.6 0 0 1 11.6,-11.6 11.6,11.6 0 0 1 11.6,11.6 z" />&#10;<path
   id="rect336"
   class="st40"
   style="fill:#7b217f"
   d="M 232.10001,897.59998 H 497.5 v 11.3 H 232.10001 Z" />&#10;</svg>
