<?xml version="1.0" encoding="utf-8"?>
<!-- Generator: Adobe Illustrator 27.8.0, SVG Export Plug-In . SVG Version: 6.00 Build 0)  -->
<svg version="1.1" id="svg8" xmlns="http://www.w3.org/2000/svg" xmlns:xlink="http://www.w3.org/1999/xlink" x="0px" y="0px"
	 viewBox="0 0 790.8 801.3" style="enable-background:new 0 0 790.8 801.3;" xml:space="preserve">
<style type="text/css">
	.st0{fill:#1A1919;}
	.st1{fill:#303030;}
	.st2{fill:#DDDDDD;}
	.st3{fill:#9A2442;}
	.st4{fill:#010103;}
	.st5{fill:#E3B37D;}
	.st6{fill:#F5B93E;}
	.st7{fill:#474949;}
	.st8{fill:#E0DCD3;}
	.st9{fill:#DBDED7;}
	.st10{fill:#A3928B;}
	.st11{fill:#E3AD51;}
	.st12{fill:#C4B3A8;}
	.st13{fill:#BCB3AD;}
	.st14{fill:#F53200;}
	.st15{fill:#FFFFFF;}
	.st16{fill:none;stroke:#493930;stroke-miterlimit:10;}
	.st17{fill:#493930;}
	.st18{fill:#2C2C2C;}
	.st19{fill:#BE8839;}
	.st20{fill:#655A50;}
	.st21{fill:#686868;}
	.st22{fill:#ADA390;}
	.st23{fill:#47494A;}
	.st24{fill:#EAEAEA;}
	.st25{fill:#36323E;}
	.st26{fill:#FCF7FD;}
	.st27{fill:#1A1A1A;}
	.st28{opacity:0.99;fill:#808080;enable-background:new    ;}
	.st29{fill:#CCCCCC;}
	.st30{fill:#0000FF;}
	.st31{fill:#AB9C38;}
	.st32{fill:#978521;}
	.st33{fill:#999999;}
	.st34{enable-background:new    ;}
	.st35{fill:#008000;}
	.st36{fill:#E30613;}
	.st37{fill:#914F00;}
	.st38{fill:#00B589;}
</style>
<g>
	<path class="st0" d="M590,33.5H7.3c-4,0-7.3,3.2-7.3,7.3v719c0,4,3.2,7.3,7.3,7.3h17.6l34.2,34.2h365.2v0l34.1-34.1H590
		c4,0,7.3-3.2,7.3-7.3v-719C597.3,36.7,594,33.5,590,33.5z M28.3,207.9c-10,0-18.1-8.1-18.1-18.1s8.1-18.1,18.1-18.1
		s18.1,8.1,18.1,18.1S38.3,207.9,28.3,207.9z M88.2,789.8c-10,0-18.1-8.1-18.1-18.1s8.1-18.1,18.1-18.1c10,0,18.1,8.1,18.1,18.1
		S98.2,789.8,88.2,789.8z M401.3,789.8c-10,0-18.1-8.1-18.1-18.1s8.1-18.1,18.1-18.1s18.1,8.1,18.1,18.1S411.3,789.8,401.3,789.8z
		 M569.6,219.3c-10,0-18.1-8.1-18.1-18.1c0-10,8.1-18.1,18.1-18.1s18.1,8.1,18.1,18.1C587.7,211.2,579.6,219.3,569.6,219.3z"/>
	<rect x="55.9" y="0.2" class="st1" width="101.7" height="143.5"/>
	<path class="st1" d="M141.5,159.9H72.1c-3.9,0-7.1-3.2-7.1-7.1v-9.1h83.7v9.1C148.6,156.7,145.4,159.9,141.5,159.9z"/>
	<path class="st2" d="M571.5,72.2h-21.4v-4.6c0-0.8-0.6-1.4-1.4-1.4H528c-0.8,0-1.4,0.6-1.4,1.4v4.6h-21.4c-1,0-1.7,0.8-1.7,1.7V139
		c0,1,0.8,1.7,1.7,1.7h66.3c1,0,1.7-0.8,1.7-1.7V73.9C573.2,73,572.4,72.2,571.5,72.2z"/>
	<circle class="st3" cx="538.3" cy="103.5" r="19.2"/>
	<g>
		<circle class="st2" cx="148.6" cy="252.2" r="35.2"/>
		<path class="st4" d="M129.6,227.6c-8.1,5.1-13.5,14.2-13.5,24.5c0,10.3,5.4,19.4,13.5,24.5V227.6z"/>
	</g>
	<g>
		<circle class="st2" cx="174.2" cy="351.1" r="35.2"/>
		<path class="st4" d="M166.8,321c-9.5,1.4-18.1,7.5-22.3,16.9c-4.2,9.4-2.9,19.9,2.4,27.9L166.8,321z"/>
	</g>
	<rect x="278.6" y="114" class="st5" width="9.8" height="21.5"/>
	<rect x="362.3" y="157.7" class="st5" width="9.8" height="21.5"/>
	
		<rect x="451.6" y="231.8" transform="matrix(-1.836970e-16 1 -1 -1.836970e-16 699.0458 -213.9506)" class="st5" width="9.8" height="21.5"/>
	
		<rect x="451.6" y="172.3" transform="matrix(-1.836970e-16 1 -1 -1.836970e-16 639.5638 -273.4327)" class="st5" width="9.8" height="21.5"/>
	<rect x="327.2" y="260.7" class="st5" width="9.8" height="21.5"/>
	<rect x="396.7" y="358.1" class="st6" width="9.8" height="21.5"/>
	<rect x="423.5" y="358.1" class="st5" width="9.8" height="21.5"/>
	<rect x="449.9" y="358.1" class="st5" width="9.8" height="21.5"/>
	
		<rect x="329.9" y="645.7" transform="matrix(6.123234e-17 -1 1 6.123234e-17 -321.5493 991.2652)" class="st5" width="9.8" height="21.5"/>
	<rect x="387.3" y="663.9" class="st6" width="9.8" height="21.5"/>
	<path class="st7" d="M332.6,172.3h-28.4c-0.8,0-1.5-0.7-1.5-1.5v-11.6c0-0.8,0.7-1.5,1.5-1.5h28.4c0.8,0,1.5,0.7,1.5,1.5v11.6
		C334.1,171.6,333.4,172.3,332.6,172.3z"/>
	<g>
		<path class="st8" d="M305,145.5v12.2h11.5v-12.2c0-0.7-0.6-1.2-1.2-1.2h-9C305.5,144.2,305,144.8,305,145.5z"/>
		<path class="st8" d="M320.2,145.5v12.2h11.5v-12.2c0-0.7-0.6-1.2-1.2-1.2h-9C320.8,144.2,320.2,144.8,320.2,145.5z"/>
	</g>
	<g>
		<rect x="423.1" y="331" class="st9" width="10.7" height="17.2"/>
		<rect x="423.1" y="333.5" class="st7" width="10.7" height="11.8"/>
	</g>
	<g>
		<rect x="449.4" y="331" class="st9" width="10.7" height="17.2"/>
		<rect x="449.4" y="333.5" class="st7" width="10.7" height="11.8"/>
	</g>
	<g>
		
			<rect x="309.1" y="297.6" transform="matrix(6.123234e-17 -1 1 6.123234e-17 8.3104 620.6573)" class="st9" width="10.7" height="17.2"/>
		
			<rect x="309" y="300.2" transform="matrix(6.123234e-17 -1 1 6.123234e-17 8.1485 620.4954)" class="st7" width="10.7" height="11.8"/>
	</g>
	<g>
		
			<rect x="254.1" y="297.6" transform="matrix(6.123234e-17 -1 1 6.123234e-17 -46.7472 565.5997)" class="st9" width="10.7" height="17.2"/>
		
			<rect x="253.9" y="300.2" transform="matrix(6.123234e-17 -1 1 6.123234e-17 -46.9091 565.4379)" class="st7" width="10.7" height="11.8"/>
	</g>
	<g>
		<rect x="387.3" y="633.6" class="st9" width="10.7" height="17.2"/>
		<rect x="387.3" y="636.1" class="st7" width="10.7" height="11.8"/>
	</g>
	<g>
		
			<rect x="329.5" y="667.8" transform="matrix(6.123234e-17 -1 1 6.123234e-17 -341.5565 1011.2724)" class="st9" width="10.7" height="17.2"/>
		
			<rect x="329.4" y="670.5" transform="matrix(6.123234e-17 -1 1 6.123234e-17 -341.7184 1011.1105)" class="st7" width="10.7" height="11.8"/>
	</g>
	<g>
		<rect x="478" y="80.8" class="st9" width="10.7" height="17.2"/>
		<rect x="478" y="83.4" class="st7" width="10.7" height="11.8"/>
	</g>
	<g>
		<rect x="338.4" y="81.9" class="st9" width="10.7" height="17.2"/>
		<rect x="338.4" y="84.4" class="st7" width="10.7" height="11.8"/>
	</g>
	<path class="st10" d="M450.4,227.9h-4.8c-2,0-3.7-1.7-3.7-3.7v-25.4c0-2,1.7-3.7,3.7-3.7h4.8c2,0,3.7,1.7,3.7,3.7v25.4
		C454.1,226.2,452.4,227.9,450.4,227.9z"/>
	<g>
		<path class="st11" d="M381.5,467.2l11.7-11.7c1.1-1.1,1.1-2.9,0-4l-8.6-8.6c-1.1-1.1-2.9-1.1-4,0l-11.7,11.7c-1.1,1.1-1.1,2.9,0,4
			l8.6,8.6C378.6,468.3,380.4,468.3,381.5,467.2z"/>
		<path class="st12" d="M381.6,466.1l10.5-10.5c1.1-1.1,1.1-2.9,0-4l-7.6-7.6c-1.1-1.1-2.9-1.1-4,0L370,454.5c-1.1,1.1-1.1,2.9,0,4
			l7.6,7.6C378.7,467.2,380.5,467.2,381.6,466.1z"/>
	</g>
	<rect x="374.8" y="422.1" class="st13" width="12.2" height="11"/>
	<rect x="394.4" y="422.1" class="st13" width="12.2" height="11"/>
	<rect x="374.8" y="475" class="st13" width="12.2" height="11"/>
	<rect x="394.4" y="475" class="st13" width="12.2" height="11"/>
	<path class="st14" d="M344.2,709.3h-15.2c-1.6,0-2.8-1.3-2.8-2.8v-5.3c0-1.6,1.3-2.8,2.8-2.8h15.2c1.6,0,2.8,1.3,2.8,2.8v5.3
		C347.1,708.1,345.8,709.3,344.2,709.3z"/>
	<g>
		<path class="st15" d="M31.2,68.4v-4.5h2.1V71h-1.5c-2.9-2.4-4.8-2.7-8.9-2.8v-2.5C26.3,65.9,28.5,66.4,31.2,68.4z"/>
		<path class="st15" d="M27.8,72.4v4h-1.7v-4H27.8z"/>
		<path class="st15" d="M24.9,78.1v2.2h5.9v-1.9h1.5c0.2,1.1,0.5,1.8,0.9,2.6v1.8h-8.4v1.9h-2v-6.6H24.9z"/>
		<path class="st15" d="M24.4,86.2c2.3,2.7,4.2,4.4,5.6,4.4c1,0,1.5-0.5,1.5-1.4c0-0.7-0.5-1.3-1-1.8l1.3-1.3c1.1,1,1.7,1.9,1.7,3.4
			c0,2-1.3,3.4-3.3,3.4c-1.9,0-3.8-1.7-5.4-3.3c0,0.5,0.1,1.2,0.1,1.7v2.1h-2.1v-7.2H24.4z"/>
		<path class="st15" d="M33.3,94v2.6l-4.8,1.1c-1.1,0.3-2.2,0.5-3.3,0.8v0.1c1.1,0.3,2.2,0.5,3.3,0.8l4.8,1.2v2.5L22.9,100v-3
			L33.3,94z"/>
		<path class="st15" d="M33.3,107.5v2.5H22.9v-2.5H33.3z"/>
		<path class="st15" d="M33.3,112.4v2.6l-5,2.6c-0.7,0.4-1.5,0.7-2.4,1v0.1c1.1-0.1,2.6-0.3,3.8-0.3h3.5v2.4H22.9v-2.6l5-2.6
			c0.7-0.4,1.5-0.7,2.4-1v-0.1c-1.2,0.1-2.6,0.3-3.8,0.3h-3.5v-2.4H33.3z"/>
		<path class="st15" d="M33.3,123v3.7c0,2.3-0.8,4.2-3.4,4.2c-2.5,0-3.6-1.9-3.6-4.1v-1.2h-3.5V123H33.3z M28.3,126.6
			c0,1.2,0.6,1.8,1.6,1.8c1,0,1.4-0.7,1.4-1.9v-1h-3V126.6z"/>
		<path class="st15" d="M27.8,132.6h5.5v2.5h-5.8c-2,0-2.7,0.6-2.7,1.7c0,1.2,0.7,1.8,2.7,1.8h5.8v2.4h-5.5c-3.5,0-5.1-1.4-5.1-4.2
			S24.3,132.6,27.8,132.6z"/>
		<path class="st15" d="M31.2,145.3v-2.8h2.1v8.1h-2.1v-2.8h-8.3v-2.5H31.2z"/>
	</g>
	<g>
		<path class="st15" d="M588.7,82v3.8c0,2.2-0.8,4.1-3.3,4.1c-1.5,0-2.5-0.7-3-1.8l-4.1,2.3v-2.8l3.7-1.9v-1.2h-3.7V82H588.7z
			 M583.9,85.6c0,1.2,0.5,1.8,1.5,1.8s1.3-0.6,1.3-1.8v-1.1h-2.8V85.6z"/>
		<path class="st15" d="M588.7,91.9v6.6h-2.1v-4.1h-2v3.5h-2.1v-3.5h-2.2v4.3h-2.1v-6.8H588.7z"/>
		<path class="st15" d="M579.6,100l1.6,1.3c-0.6,0.7-1,1.7-1,2.6c0,0.9,0.4,1.4,0.9,1.4c0.6,0,0.8-0.6,1.2-1.5l0.6-1.3
			c0.4-1.1,1.3-2.1,2.8-2.1c1.7,0,3.2,1.6,3.2,3.8c0,1.2-0.5,2.5-1.3,3.4l-1.6-1.3c0.5-0.7,0.8-1.4,0.8-2.1c0-0.8-0.3-1.3-0.8-1.3
			c-0.6,0-0.8,0.7-1.2,1.6l-0.5,1.3c-0.5,1.3-1.4,2.1-2.8,2.1c-1.7,0-3.3-1.5-3.3-4C578.1,102.5,578.5,101.1,579.6,100z"/>
		<path class="st15" d="M588.7,109.6v6.6h-2.1v-4.1h-2v3.5h-2.1v-3.5h-2.2v4.3h-2.1v-6.8H588.7z"/>
		<path class="st15" d="M586.6,120.4v-2.8h2.1v8.1h-2.1v-2.8h-8.3v-2.5H586.6z"/>
	</g>
	<g>
		<path class="st15" d="M371.7,742.7v2.5h-10.4v-2.5H371.7z"/>
		<path class="st15" d="M366.4,747.1c3.5,0,5.5,2.3,5.5,5c0,1.4-0.6,2.4-1.4,3.2l-1.5-1.3c0.5-0.5,0.7-1.1,0.7-1.8
			c0-1.4-1.2-2.5-3.2-2.5c-2.1,0-3.3,1-3.3,2.4c0,0.8,0.3,1.5,0.9,2l-1.5,1.3c-1-0.9-1.5-2.1-1.5-3.4
			C361.1,749.4,362.9,747.1,366.4,747.1z"/>
		<path class="st15" d="M362.6,755.8l1.6,1.3c-0.6,0.7-1,1.7-1,2.6c0,0.9,0.4,1.4,0.9,1.4c0.6,0,0.8-0.6,1.2-1.5l0.6-1.3
			c0.4-1.1,1.3-2.1,2.8-2.1c1.7,0,3.2,1.6,3.2,3.8c0,1.2-0.5,2.5-1.3,3.4l-1.6-1.3c0.5-0.7,0.8-1.4,0.8-2.1c0-0.8-0.3-1.3-0.8-1.3
			c-0.6,0-0.8,0.7-1.2,1.6l-0.5,1.3c-0.5,1.3-1.4,2.1-2.8,2.1c-1.7,0-3.3-1.5-3.3-4C361.1,758.3,361.6,756.9,362.6,755.8z"/>
		<path class="st15" d="M371.7,765.4v3.7c0,2.3-0.8,4.2-3.4,4.2c-2.5,0-3.6-1.9-3.6-4.1v-1.2h-3.5v-2.5H371.7z M366.7,769
			c0,1.2,0.6,1.8,1.6,1.8c1,0,1.4-0.7,1.4-1.9v-1h-3V769z"/>
	</g>
	<g>
		<path class="st15" d="M388.7,694.6c-1.2,1-2,2.5-2,4.2c0,3,2.5,5.5,5.5,5.5c3,0,5.5-2.5,5.5-5.5c0-1.7-0.8-3.2-2-4.2
			c-0.4-0.4-0.5-1-0.1-1.4c0.4-0.4,1-0.5,1.4-0.1c1.7,1.4,2.7,3.5,2.7,5.8c0,4.1-3.4,7.5-7.5,7.5c-4.1,0-7.5-3.4-7.5-7.5
			c0-2.3,1.1-4.4,2.7-5.8c0.4-0.4,1.1-0.3,1.4,0.1C389.2,693.6,389.1,694.2,388.7,694.6L388.7,694.6z M393.2,698.8c0,0.6-0.4,1-1,1
			s-1-0.4-1-1v-7c0-0.6,0.4-1,1-1s1,0.4,1,1V698.8z"/>
	</g>
	<polyline class="st16" points="36,226 42.7,226 105.3,288.6 116.1,288.6 	"/>
	<polyline class="st16" points="35.8,234.1 42.7,234.1 102.9,294.3 102.9,426 159.6,482.7 212.4,482.7 224.6,470.3 263.6,470.3 	"/>
	<polyline class="st16" points="33.4,261.6 44.7,261.6 86.9,303.7 86.9,426.7 156.7,496.6 268.4,496.6 	"/>
	<polyline class="st16" points="22.9,347.1 61.9,386.1 61.9,450 33.2,478.7 	"/>
	<line class="st17" x1="76.1" y1="428.8" x2="151.9" y2="504.7"/>
	<polyline class="st16" points="131.4,496.1 88.6,538.9 24.5,538.9 	"/>
	<polyline class="st16" points="131.4,506.8 91.3,546.8 26,546.8 	"/>
	<polyline class="st16" points="267.4,505.3 234.8,505.3 159.2,580.9 78.7,580.9 56,603.6 31.2,603.6 	"/>
	<polyline class="st16" points="249.5,514.3 249.5,560.7 179.7,630.5 30.5,630.5 	"/>
	<polyline class="st16" points="264.8,534.3 264.8,570.6 176.3,659.1 31.2,659.1 	"/>
	<polyline class="st16" points="273.6,534.1 273.6,573.3 158.8,688.1 24.5,688.1 	"/>
	<polyline class="st16" points="282.6,535 282.6,580.6 147.4,715.7 30.5,715.7 	"/>
	<polyline class="st16" points="291.1,539 291.1,588.4 134.7,744.8 30.5,744.8 	"/>
	<line class="st17" x1="328.8" y1="623.9" x2="292.2" y2="587.3"/>
	<polyline class="st16" points="331.1,640.2 306,615 280.1,615 	"/>
	<polyline class="st16" points="344.4,648 344.4,589.3 299.8,544.6 299.8,525.2 	"/>
	<polyline class="st16" points="278.5,762.8 262.1,746.5 262.1,681.8 287.4,656.5 	"/>
	<polyline class="st16" points="308.2,533.6 308.2,544.4 361.8,598 401.5,598 506.9,703.3 506.9,732.4 518.6,744.2 563.7,744.2 	"/>
	<polyline class="st16" points="317.1,534.7 317.1,545.5 359.4,587.8 421.4,587.8 568.7,735.1 	"/>
	<polyline class="st16" points="327.2,534.2 368,575 433.5,575 574,715.4 	"/>
	<polyline class="st16" points="345.8,513.6 400.2,513.6 571.3,684.6 	"/>
	<polyline class="st16" points="347.1,505.3 407.3,505.3 573.5,671.5 	"/>
	<polyline class="st16" points="496,525.1 489.1,518.1 443.1,518.1 	"/>
	<polyline class="st16" points="347.1,461.7 358.2,461.7 367.1,470.5 377.8,470.5 	"/>
	<polyline class="st16" points="346.9,452.7 356.9,452.7 367.4,442.2 380.6,442.2 	"/>
	<polyline class="st16" points="325.4,429.2 341.9,412.8 411.8,412.8 566.8,567.8 	"/>
	<polyline class="st16" points="317,431 317,426.4 336.5,406.9 414.7,406.9 575.1,567.3 	"/>
	<polyline class="st16" points="308.3,430.9 308.3,422.5 328.5,402.3 418.5,402.3 574.9,558.7 	"/>
	<polyline class="st16" points="299.7,429.4 299.7,421.2 323.5,397.4 418.9,397.4 576.4,554.9 	"/>
	<polyline class="st16" points="291.1,428.9 291.1,416.9 316,392 420.1,392 580.5,552.4 	"/>
	<polyline class="st16" points="282.2,430.5 282.2,408.8 303.4,388.7 425.1,388.7 480.2,443.8 580.5,443.8 	"/>
	<polyline class="st16" points="273.6,428.7 273.6,405.4 297.3,383.5 426.8,383.5 458.1,414.8 579.1,414.8 	"/>
	<polyline class="st16" points="264.8,428.2 264.8,404.2 286.8,382.2 290.2,378.8 	"/>
	<polyline class="st16" points="221.2,446.3 221.2,417.2 289.5,348.9 315.4,348.9 322.4,355.9 372.2,355.9 399.6,328.5 426.8,328.5 
			"/>
	<polyline class="st16" points="210.3,343.4 314.3,343.4 335.1,322.6 354.3,322.6 	"/>
	<polyline class="st16" points="286.7,272.8 286.7,283.6 277.7,292.6 260.3,292.6 247.6,279.9 247.6,270.7 247.6,245.6 	"/>
	<polyline class="st16" points="226.9,214.9 226.9,206.6 232.4,201.1 249.3,201.1 	"/>
	<polyline class="st16" points="191.2,192.6 237.4,192.6 258,172 258,150.2 	"/>
	<polyline class="st16" points="319.2,179.1 333,179.1 341.7,170.4 341.7,137.9 313.6,109.9 298,109.9 276,87.9 	"/>
	<polyline class="st16" points="285.9,84.4 299.7,98.2 311.3,98.2 	"/>
	<polyline class="st16" points="323.3,81.9 323.3,102.1 344.4,123.3 379.9,123.3 384.6,118.6 384.6,89.4 	"/>
	<path class="st16" d="M402.6,199.4c0-0.5,0-48.4,0-48.4"/>
	<path class="st16" d="M418.1,151c0,1,0,22,0,22"/>
	<polyline class="st16" points="415.7,206.7 428.1,206.7 440,194.7 	"/>
	<polyline class="st16" points="415.5,220.4 428.4,220.4 440.6,232.5 	"/>
	<line class="st16" x1="416.1" y1="261.6" x2="439.6" y2="261.6"/>
	<line class="st16" x1="413.8" y1="275.6" x2="441.9" y2="275.6"/>
	<polyline class="st16" points="415.5,289 426.8,289 441.9,289 	"/>
	<line class="st16" x1="562.9" y1="151.9" x2="530.4" y2="184.4"/>
	<g>
		<path class="st7" d="M327.3,521.4h-64.2c-3.2,0-5.9-2.6-5.9-5.9v-64.2c0-3.2,2.6-5.9,5.9-5.9h64.2c3.2,0,5.9,2.6,5.9,5.9v64.2
			C333.2,518.7,330.6,521.4,327.3,521.4z"/>
		<circle class="st18" cx="322.3" cy="509.5" r="4.8"/>
		<g>
			<path class="st8" d="M240.4,455.9h16.9V450h-16.9c-0.7,0-1.2,0.6-1.2,1.2v3.4C239.1,455.3,239.7,455.9,240.4,455.9z"/>
			<path class="st8" d="M240.4,464.6h16.9v-5.9h-16.9c-0.7,0-1.2,0.6-1.2,1.2v3.4C239.1,464,239.7,464.6,240.4,464.6z"/>
			<path class="st8" d="M240.4,473.3h16.9v-5.9h-16.9c-0.7,0-1.2,0.6-1.2,1.2v3.4C239.1,472.7,239.7,473.3,240.4,473.3z"/>
			<path class="st8" d="M240.4,482h16.9v-5.9h-16.9c-0.7,0-1.2,0.6-1.2,1.2v3.4C239.1,481.4,239.7,482,240.4,482z"/>
			<path class="st8" d="M240.4,490.7h16.9v-5.9h-16.9c-0.7,0-1.2,0.6-1.2,1.2v3.4C239.1,490.1,239.7,490.7,240.4,490.7z"/>
			<path class="st8" d="M240.4,499.4h16.9v-5.9h-16.9c-0.7,0-1.2,0.6-1.2,1.2v3.4C239.1,498.8,239.7,499.4,240.4,499.4z"/>
			<path class="st8" d="M240.4,508.1h16.9v-5.9h-16.9c-0.7,0-1.2,0.6-1.2,1.2v3.4C239.1,507.5,239.7,508.1,240.4,508.1z"/>
			<path class="st8" d="M240.4,516.8h16.9v-5.9h-16.9c-0.7,0-1.2,0.6-1.2,1.2v3.4C239.1,516.2,239.7,516.8,240.4,516.8z"/>
		</g>
		<g>
			<path class="st8" d="M322.7,428.5v16.9h5.9v-16.9c0-0.7-0.6-1.2-1.2-1.2H324C323.3,427.3,322.7,427.8,322.7,428.5z"/>
			<path class="st8" d="M314,428.5v16.9h5.9v-16.9c0-0.7-0.6-1.2-1.2-1.2h-3.4C314.6,427.3,314,427.8,314,428.5z"/>
			<path class="st8" d="M305.3,428.5v16.9h5.9v-16.9c0-0.7-0.6-1.2-1.2-1.2h-3.4C305.9,427.3,305.3,427.8,305.3,428.5z"/>
			<path class="st8" d="M296.6,428.5v16.9h5.9v-16.9c0-0.7-0.6-1.2-1.2-1.2h-3.4C297.2,427.3,296.6,427.8,296.6,428.5z"/>
			<path class="st8" d="M287.9,428.5v16.9h5.9v-16.9c0-0.7-0.6-1.2-1.2-1.2h-3.4C288.5,427.3,287.9,427.8,287.9,428.5z"/>
			<path class="st8" d="M279.3,428.5v16.9h5.9v-16.9c0-0.7-0.6-1.2-1.2-1.2h-3.4C279.8,427.3,279.3,427.8,279.3,428.5z"/>
			<path class="st8" d="M270.6,428.5v16.9h5.9v-16.9c0-0.7-0.6-1.2-1.2-1.2h-3.4C271.1,427.3,270.6,427.8,270.6,428.5z"/>
			<path class="st8" d="M261.9,428.5v16.9h5.9v-16.9c0-0.7-0.6-1.2-1.2-1.2h-3.4C262.4,427.3,261.9,427.8,261.9,428.5z"/>
		</g>
		<g>
			<path class="st8" d="M267.7,538.3v-16.9h-5.9v16.9c0,0.7,0.6,1.2,1.2,1.2h3.4C267.2,539.5,267.7,538.9,267.7,538.3z"/>
			<path class="st8" d="M276.4,538.3v-16.9h-5.9l0,16.9c0,0.7,0.6,1.2,1.2,1.2h3.4C275.9,539.5,276.4,538.9,276.4,538.3z"/>
			<path class="st8" d="M285.1,538.3v-16.9h-5.9v16.9c0,0.7,0.6,1.2,1.2,1.2h3.4C284.6,539.5,285.1,538.9,285.1,538.3z"/>
			<path class="st8" d="M293.8,538.3l0-16.9h-5.9v16.9c0,0.7,0.6,1.2,1.2,1.2h3.4C293.3,539.5,293.8,538.9,293.8,538.3z"/>
			<path class="st8" d="M302.5,538.3v-16.9h-5.9v16.9c0,0.7,0.6,1.2,1.2,1.2h3.4C302,539.5,302.5,538.9,302.5,538.3z"/>
			<path class="st8" d="M311.2,538.3v-16.9h-5.9v16.9c0,0.7,0.6,1.2,1.2,1.2h3.4C310.7,539.5,311.2,538.9,311.2,538.3z"/>
			<path class="st8" d="M319.9,538.3v-16.9H314v16.9c0,0.7,0.6,1.2,1.2,1.2h3.4C319.3,539.5,319.9,538.9,319.9,538.3z"/>
			<path class="st8" d="M328.6,538.3v-16.9h-5.9l0,16.9c0,0.7,0.6,1.2,1.2,1.2h3.4C328,539.5,328.6,538.9,328.6,538.3z"/>
		</g>
		<g>
			<path class="st8" d="M350.1,510.6h-16.9v5.9h16.9c0.7,0,1.2-0.6,1.2-1.2v-3.4C351.3,511.2,350.8,510.6,350.1,510.6z"/>
			<path class="st8" d="M350.1,501.9h-16.9v5.9h16.9c0.7,0,1.2-0.6,1.2-1.2v-3.4C351.3,502.5,350.8,501.9,350.1,501.9z"/>
			<path class="st8" d="M350.1,493.2h-16.9v5.9h16.9c0.7,0,1.2-0.6,1.2-1.2v-3.4C351.3,493.8,350.8,493.2,350.1,493.2z"/>
			<path class="st8" d="M350.1,484.5h-16.9v5.9h16.9c0.7,0,1.2-0.6,1.2-1.2v-3.4C351.3,485.1,350.8,484.5,350.1,484.5z"/>
			<path class="st8" d="M350.1,475.8h-16.9v5.9h16.9c0.7,0,1.2-0.6,1.2-1.2v-3.4C351.3,476.4,350.8,475.8,350.1,475.8z"/>
			<path class="st8" d="M350.1,467.1h-16.9v5.9h16.9c0.7,0,1.2-0.6,1.2-1.2v-3.4C351.3,467.7,350.8,467.1,350.1,467.1z"/>
			<path class="st8" d="M350.1,458.4h-16.9v5.9h16.9c0.7,0,1.2-0.6,1.2-1.2v-3.4C351.3,459,350.8,458.4,350.1,458.4z"/>
			<path class="st8" d="M350.1,449.7h-16.9v5.9h16.9c0.7,0,1.2-0.6,1.2-1.2V451C351.3,450.3,350.8,449.7,350.1,449.7z"/>
		</g>
	</g>
	<path class="st15" d="M247,608.6v7.2c0,1.3,0,2.5-0.1,3.5c0,0.8-0.2,1.6-0.4,2.4c-0.2,0.7-0.5,1.3-0.8,1.9c-0.5,0.7-1,1.4-1.6,2
		c-0.6,0.7-1.5,1.2-2.5,1.6c-1.1,0.3-2.3,0.5-3.7,0.5h-6v-7.4h3.7c0.5,0,0.9-0.1,1.4-0.2c0.3-0.1,0.6-0.3,0.9-0.6
		c0.2-0.3,0.4-0.7,0.5-1.1c0.1-0.6,0.2-1.2,0.2-1.7v-7.9H247z M232.6,632h95v3.1h-95V632z M247,596.6v7.4h-8.5v-7.4H247z
		 M267.3,596.1c1.1,0,2.3,0.1,3.4,0.3c1,0.2,2.1,0.5,3.1,0.9c1,0.4,1.9,0.9,2.7,1.4c0.9,0.6,1.7,1.2,2.4,2c0.7,0.7,1.4,1.6,1.9,2.4
		c0.6,0.9,1,1.8,1.4,2.7c0.4,1,0.7,2,0.8,3.1c0.2,1.1,0.3,2.3,0.3,3.4c0,1.1-0.1,2.2-0.3,3.3c-0.2,1-0.5,2-0.8,3
		c-0.4,0.9-0.8,1.9-1.4,2.7c-0.6,0.9-1.2,1.7-1.9,2.4c-0.7,0.7-1.5,1.4-2.4,2c-0.8,0.6-1.7,1-2.7,1.4c-1,0.4-2,0.7-3,0.9
		c-1.1,0.2-2.2,0.3-3.3,0.3c-1.1,0-2.3-0.1-3.4-0.3c-1-0.2-2.1-0.5-3.1-0.8c-1-0.4-1.9-0.8-2.7-1.4c-1.7-1.1-3.2-2.6-4.4-4.4
		c-0.6-0.9-1-1.8-1.4-2.7c-0.4-1-0.7-2-0.9-3c-0.4-2.2-0.4-4.5,0-6.7c0.2-1,0.5-2.1,0.9-3c0.4-1,0.8-1.9,1.4-2.7
		c0.6-0.9,1.2-1.7,2-2.5c0.7-0.8,1.5-1.4,2.4-2c0.8-0.6,1.7-1.1,2.7-1.4c1-0.4,2-0.7,3-0.9C265.1,596.2,266.2,596.1,267.3,596.1
		L267.3,596.1z M267.3,603.2c-1,0-2,0.2-3,0.6c-0.9,0.4-1.6,1-2.2,1.8c-0.6,0.8-1.1,1.8-1.4,2.8c-0.3,1.1-0.5,2.3-0.5,3.7
		c0,1.3,0.1,2.5,0.5,3.8c0.3,1,0.8,2,1.4,2.9c0.6,0.8,1.4,1.4,2.3,1.8c0.9,0.4,1.9,0.6,3,0.6c1,0,2-0.2,3-0.6c0.9-0.4,1.6-1,2.2-1.8
		c0.6-0.9,1.1-1.8,1.4-2.8c0.3-1.1,0.5-2.4,0.5-3.8c0-1.2-0.1-2.5-0.5-3.7c-0.3-1-0.8-2-1.4-2.8c-0.6-0.8-1.4-1.4-2.3-1.8
		C269.4,603.4,268.4,603.2,267.3,603.2L267.3,603.2z M286.8,596.6h8.5v7.7c0,1.6,0.3,2.8,0.9,3.6s1.6,1.2,2.8,1.2
		c1.3,0,2.3-0.4,2.9-1.3s1-2.1,1-3.8v-7.4h8.4v5.4c0,1.3-0.1,2.5-0.2,3.6c-0.1,0.9-0.2,1.8-0.5,2.7c-0.3,0.9-0.6,1.7-1.1,2.5
		c-0.6,1-1.3,1.9-2,2.7c-0.4,0.5-0.9,0.9-1.5,1.3c-0.6,0.4-1.2,0.7-1.9,0.9c-0.8,0.3-1.6,0.4-2.4,0.5c-0.9,0.1-1.9,0.2-2.8,0.2
		c-0.9,0-1.8-0.1-2.7-0.2c-0.8-0.1-1.5-0.3-2.3-0.5c-0.7-0.2-1.3-0.5-1.9-0.9c-0.5-0.3-1-0.7-1.5-1.2c-0.8-0.8-1.5-1.7-2.1-2.6
		c-0.5-0.7-0.9-1.5-1.2-2.4c-0.3-0.9-0.4-1.8-0.5-2.7c-0.1-1.1-0.2-2.3-0.2-3.4L286.8,596.6z M306.1,620.2v7.4h-14.2v-7.4H306.1z
		 M310.1,589.9h56.8v2.9h-56.8V589.9z M313.7,610.1H332v7.3h-18.3V610.1z M343.7,596.6v7.4h-8.5v-7.4H343.7z M343.7,608.6v19.1h-8.5
		v-19.1H343.7z M368.2,596.6v7.4h-19.9v-7.4H368.2z M349.7,608.6h8.4v7.7c0,0.7,0,1.3,0.2,2c0.1,0.5,0.3,0.9,0.5,1.2
		c0.2,0.2,0.6,0.4,1.1,0.6c0.6,0.1,1.2,0.2,1.8,0.2h5.5v7.4h-7.9c-0.8,0-1.6-0.1-2.3-0.2c-0.7-0.1-1.4-0.3-2-0.5
		c-0.6-0.2-1.1-0.5-1.7-0.8c-0.5-0.3-0.9-0.7-1.3-1.1c-0.4-0.4-0.7-0.9-1-1.5c-0.3-0.6-0.5-1.2-0.7-1.9c-0.2-0.8-0.3-1.5-0.4-2.3
		c-0.1-0.9-0.1-1.8-0.1-2.7L349.7,608.6z"/>
	
		<rect x="208.9" y="437.1" transform="matrix(6.123234e-17 -1 1 6.123234e-17 -234.0422 661.6861)" class="st5" width="9.8" height="21.5"/>
	<rect x="349.4" y="320.9" class="st5" width="9.8" height="21.5"/>
	<g>
		<path class="st7" d="M316,263.5h-45.5c-1.4,0-2.5-1.1-2.5-2.5v-34.3c0-1.4,1.1-2.5,2.5-2.5H316c1.4,0,2.5,1.1,2.5,2.5V261
			C318.5,262.4,317.4,263.5,316,263.5z"/>
		<circle class="st18" cx="272.2" cy="255.6" r="2.7"/>
		<g>
			<path class="st8" d="M276.4,275.8v-12.2h-6.1v12.2c0,0.7,0.6,1.2,1.2,1.2h3.6C275.8,277,276.4,276.5,276.4,275.8z"/>
			<path class="st8" d="M289.7,275.8v-12.2h-6.1v12.2c0,0.7,0.6,1.2,1.2,1.2h3.6C289.1,277,289.7,276.5,289.7,275.8z"/>
			<path class="st8" d="M303,275.8v-12.2h-6.1v12.2c0,0.7,0.6,1.2,1.2,1.2h3.6C302.4,277,303,276.5,303,275.8z"/>
			<path class="st8" d="M316.3,275.8v-12.2h-6.1v12.2c0,0.7,0.6,1.2,1.2,1.2h3.6C315.7,277,316.3,276.5,316.3,275.8z"/>
		</g>
		<g>
			<path class="st8" d="M310.2,212.1v12.2h6.1v-12.2c0-0.7-0.6-1.2-1.2-1.2h-3.6C310.7,210.8,310.2,211.4,310.2,212.1z"/>
			<path class="st8" d="M296.9,212.1v12.2h6.1v-12.2c0-0.7-0.6-1.2-1.2-1.2h-3.6C297.4,210.8,296.9,211.4,296.9,212.1z"/>
			<path class="st8" d="M283.6,212.1l0,12.2h6.1l0-12.2c0-0.7-0.6-1.2-1.2-1.2h-3.6C284.2,210.8,283.6,211.4,283.6,212.1z"/>
			<path class="st8" d="M270.3,212.1v12.2h6.1v-12.2c0-0.7-0.6-1.2-1.2-1.2h-3.6C270.9,210.8,270.3,211.4,270.3,212.1z"/>
		</g>
	</g>
	<g>
		<g>
			<path class="st8" d="M232.4,252.1v-12.2h-9.6v12.2c0,0.7,0.6,1.2,1.2,1.2h7.1C231.8,253.3,232.4,252.8,232.4,252.1z"/>
			<path class="st8" d="M252,252.1v-12.2h-9.6v12.2c0,0.7,0.6,1.2,1.2,1.2h7.1C251.5,253.3,252,252.8,252,252.1z"/>
		</g>
		<g>
			<path class="st8" d="M223.9,211.3v12.2h6.1v-12.2c0-0.7-0.6-1.2-1.2-1.2h-3.6C224.4,210.1,223.9,210.6,223.9,211.3z"/>
			<path class="st8" d="M234.4,211.3v12.2h6.1v-12.2c0-0.7-0.6-1.2-1.2-1.2h-3.6C234.9,210.1,234.4,210.6,234.4,211.3z"/>
			<path class="st8" d="M244.9,211.3v12.2h6.1v-12.2c0-0.7-0.6-1.2-1.2-1.2h-3.6C245.4,210.1,244.9,210.6,244.9,211.3z"/>
		</g>
		<path class="st7" d="M251.9,239.9h-29c-0.4,0-0.7-0.3-0.7-0.7v-14.8c0-0.4,0.3-0.7,0.7-0.7h29c0.4,0,0.7,0.3,0.7,0.7v14.8
			C252.6,239.5,252.3,239.9,251.9,239.9z"/>
	</g>
	
		<rect x="233.7" y="260" transform="matrix(6.123234e-17 -1 1 6.123234e-17 -32.1249 509.2796)" class="st5" width="9.8" height="21.5"/>
	<g>
		<rect x="365.5" y="201.2" class="st7" width="34.4" height="107"/>
		<g>
			<path class="st8" d="M348.6,209.6h16.9v-5.9h-16.9c-0.7,0-1.2,0.6-1.2,1.2v3.4C347.4,209,347.9,209.6,348.6,209.6z"/>
			<path class="st8" d="M348.6,223.3h16.9v-5.9h-16.9c-0.7,0-1.2,0.6-1.2,1.2v3.4C347.4,222.8,347.9,223.3,348.6,223.3z"/>
			<path class="st8" d="M348.6,237h16.9v-5.9h-16.9c-0.7,0-1.2,0.6-1.2,1.2v3.4C347.4,236.5,347.9,237,348.6,237z"/>
			<path class="st8" d="M348.6,250.8h16.9v-5.9h-16.9c-0.7,0-1.2,0.6-1.2,1.2v3.4C347.4,250.2,347.9,250.8,348.6,250.8z"/>
			<path class="st8" d="M348.6,264.5h16.9v-5.9h-16.9c-0.7,0-1.2,0.6-1.2,1.2v3.4C347.4,263.9,347.9,264.5,348.6,264.5z"/>
			<path class="st8" d="M348.6,278.2h16.9v-5.9h-16.9c-0.7,0-1.2,0.6-1.2,1.2v3.4C347.4,277.7,347.9,278.2,348.6,278.2z"/>
			<path class="st8" d="M348.6,292h16.9v-5.9h-16.9c-0.7,0-1.2,0.6-1.2,1.2v3.4C347.4,291.4,347.9,292,348.6,292z"/>
			<path class="st8" d="M348.6,305.7h16.9v-5.9h-16.9c-0.7,0-1.2,0.6-1.2,1.2v3.4C347.4,305.1,347.9,305.7,348.6,305.7z"/>
		</g>
		<g>
			<path class="st8" d="M416.8,299.8h-16.9v5.9h16.9c0.7,0,1.2-0.6,1.2-1.2V301C418,300.4,417.4,299.8,416.8,299.8z"/>
			<path class="st8" d="M416.8,286.1h-16.9v5.9h16.9c0.7,0,1.2-0.6,1.2-1.2v-3.4C418,286.6,417.4,286.1,416.8,286.1z"/>
			<path class="st8" d="M416.8,272.4h-16.9v5.9h16.9c0.7,0,1.2-0.6,1.2-1.2v-3.4C418,272.9,417.4,272.4,416.8,272.4z"/>
			<path class="st8" d="M416.8,258.6h-16.9v5.9h16.9c0.7,0,1.2-0.6,1.2-1.2v-3.4C418,259.2,417.4,258.6,416.8,258.6z"/>
			<path class="st8" d="M416.8,244.9h-16.9v5.9h16.9c0.7,0,1.2-0.6,1.2-1.2v-3.4C418,245.5,417.4,244.9,416.8,244.9z"/>
			<path class="st8" d="M416.8,231.2h-16.9v5.9h16.9c0.7,0,1.2-0.6,1.2-1.2v-3.4C418,231.7,417.4,231.2,416.8,231.2z"/>
			<path class="st8" d="M416.8,217.4h-16.9v5.9h16.9c0.7,0,1.2-0.6,1.2-1.2v-3.4C418,218,417.4,217.4,416.8,217.4z"/>
			<path class="st8" d="M416.8,203.7h-16.9v5.9h16.9c0.7,0,1.2-0.6,1.2-1.2V205C418,204.3,417.4,203.7,416.8,203.7z"/>
		</g>
		<circle class="st18" cx="391.8" cy="298.3" r="4.9"/>
	</g>
	
		<rect x="444.5" y="247.9" transform="matrix(-1.836970e-16 1 -1 -1.836970e-16 708.0458 -190.7924)" class="st5" width="9.8" height="21.5"/>
	<g>
		
			<rect x="444.1" y="267.2" transform="matrix(-1.836970e-16 1 -1 -1.836970e-16 725.2203 -173.6179)" class="st9" width="10.7" height="17.2"/>
		
			<rect x="444.2" y="269.9" transform="matrix(-1.836970e-16 1 -1 -1.836970e-16 725.3821 -173.7798)" class="st7" width="10.7" height="11.8"/>
	</g>
	<g>
		
			<rect x="444.1" y="284.8" transform="matrix(-1.836970e-16 1 -1 -1.836970e-16 742.8156 -156.0226)" class="st9" width="10.7" height="17.2"/>
		
			<rect x="444.2" y="287.5" transform="matrix(-1.836970e-16 1 -1 -1.836970e-16 742.9775 -156.1844)" class="st7" width="10.7" height="11.8"/>
	</g>
	<g>
		<rect x="397.2" y="136" class="st9" width="10.7" height="17.2"/>
		<rect x="397.2" y="138.5" class="st7" width="10.7" height="11.8"/>
	</g>
	<g>
		<rect x="412.8" y="135.8" class="st9" width="10.7" height="17.2"/>
		<rect x="412.8" y="138.4" class="st7" width="10.7" height="11.8"/>
	</g>
	<path class="st8" d="M323.3,184.5v-12.2h-11.5v12.2c0,0.7,0.6,1.2,1.2,1.2h9C322.7,185.8,323.3,185.2,323.3,184.5z"/>
	<g>
		<rect x="274.7" y="54.1" class="st19" width="51.5" height="35.1"/>
		<rect x="287.1" y="54.1" class="st20" width="26.7" height="35.1"/>
	</g>
	<g>
		<path class="st2" d="M370,19.9L370,19.9l87.6,0v0c2.7,1.4,4.4,4.2,4.4,7.3v70.1c0,1-0.8,1.8-1.8,1.8h-92.8c-1,0-1.8-0.8-1.8-1.8
			V27.2C365.6,24.2,367.3,21.4,370,19.9z"/>
		<g>
			<path class="st21" d="M444.8,93.3L444.8,93.3c0-1.3-1.1-2.4-2.4-2.4h-9.9c-0.8,0-1.5-0.7-1.5-1.5v-2.1c0-0.8,0.7-1.5,1.5-1.5h9.9
				c1.3,0,2.4-1.1,2.4-2.4v0c0-1.3-1.1-2.4-2.4-2.4h-14c-1.3,0-2.4,1.1-2.4,2.4v10c0,1.3,1.1,2.4,2.4,2.4h14
				C443.7,95.7,444.8,94.6,444.8,93.3z"/>
			<path class="st21" d="M382.9,83.3L382.9,83.3c0,1.3,1.1,2.4,2.4,2.4h9.9c0.8,0,1.5,0.7,1.5,1.5v2.1c0,0.8-0.7,1.5-1.5,1.5h-9.9
				c-1.3,0-2.4,1.1-2.4,2.4v0c0,1.3,1.1,2.4,2.4,2.4h14c1.3,0,2.4-1.1,2.4-2.4v-10c0-1.3-1.1-2.4-2.4-2.4h-14
				C384,80.8,382.9,81.9,382.9,83.3z"/>
		</g>
	</g>
	<g>
		<path class="st7" d="M266.5,137.9h-67.1c-0.7,0-1.2-0.5-1.2-1.2v-34.6c0-0.7,0.5-1.2,1.2-1.2h67.1c0.7,0,1.2,0.5,1.2,1.2v34.6
			C267.6,137.3,267.1,137.9,266.5,137.9z"/>
		<g>
			<path class="st8" d="M210.4,154.8v-16.9h-5.9v16.9c0,0.7,0.6,1.2,1.2,1.2h3.4C209.9,156,210.4,155.4,210.4,154.8z"/>
			<path class="st8" d="M235.8,154.8v-16.9h-5.9v16.9c0,0.7,0.6,1.2,1.2,1.2h3.4C235.3,156,235.8,155.4,235.8,154.8z"/>
			<path class="st8" d="M261.2,154.8v-16.9h-5.9v16.9c0,0.7,0.6,1.2,1.2,1.2h3.4C260.6,156,261.2,155.4,261.2,154.8z"/>
		</g>
		<path class="st8" d="M214.1,75.3v25.6h34.3V75.3c0-0.7-0.6-1.2-1.2-1.2h-31.8C214.7,74.1,214.1,74.6,214.1,75.3z"/>
	</g>
	<rect x="150.4" y="179.1" class="st7" width="48.4" height="27.1"/>
	<g>
		<rect x="16" y="222.2" class="st2" width="20" height="20"/>
		<circle class="st22" cx="26" cy="232.2" r="7.4"/>
		<rect x="16" y="250.9" class="st2" width="20" height="20"/>
		<circle class="st22" cx="26" cy="260.9" r="7.4"/>
		<rect x="16" y="279.5" class="st2" width="20" height="20"/>
		<circle class="st22" cx="26" cy="289.6" r="7.4"/>
		<rect x="16" y="308.2" class="st2" width="20" height="20"/>
		<circle class="st22" cx="26" cy="318.2" r="7.4"/>
	</g>
	<g>
		<rect x="9.3" y="334.6" class="st23" width="33.4" height="240.9"/>
		<rect x="16.2" y="337.3" width="19.6" height="19.6"/>
		<rect x="16.2" y="367.8" width="19.6" height="19.6"/>
		<rect x="16.2" y="398.3" width="19.6" height="19.6"/>
		<rect x="16.2" y="428.8" width="19.6" height="19.6"/>
		<rect x="16.2" y="459.3" width="19.6" height="19.6"/>
		<rect x="16.2" y="489.9" width="19.6" height="19.6"/>
		<rect x="16.2" y="520.4" width="19.6" height="19.6"/>
		<rect x="16.2" y="550.9" width="19.6" height="19.6"/>
	</g>
	<g>
		<rect x="9.3" y="581.2" class="st23" width="33.4" height="178.8"/>
		<g>
			<rect x="16.2" y="584.5" width="19.6" height="19.6"/>
			<rect x="16.2" y="615" width="19.6" height="19.6"/>
			<rect x="16.2" y="645.5" width="19.6" height="19.6"/>
			<rect x="16.2" y="676" width="19.6" height="19.6"/>
			<rect x="16.2" y="706.5" width="19.6" height="19.6"/>
			<rect x="16.2" y="737" width="19.6" height="19.6"/>
		</g>
	</g>
	<g>
		<path class="st15" d="M50.3,372.8h2.5v10.4h-2.5V372.8z"/>
		<path class="st15" d="M54.7,378c0-3.4,1.9-5.4,4.8-5.4s4.8,2,4.8,5.4s-1.9,5.4-4.8,5.4S54.7,381.4,54.7,378z M61.7,378
			c0-2-0.8-3.2-2.2-3.2c-1.4,0-2.2,1.2-2.2,3.2c0,2,0.9,3.3,2.2,3.3C60.9,381.3,61.7,380,61.7,378z"/>
		<path class="st15" d="M66.2,372.8H70c2.2,0,4.1,0.8,4.1,3.3c0,1.5-0.7,2.5-1.8,3l2.3,4.1h-2.8l-1.9-3.7h-1.2v3.7h-2.5V372.8z
			 M69.9,377.6c1.2,0,1.8-0.5,1.8-1.5s-0.6-1.3-1.8-1.3h-1.1v2.8H69.9z"/>
		<path class="st15" d="M76.1,372.8h6.6v2.1h-4.1v2h3.5v2.1h-3.5v2.2h4.3v2.1h-6.8V372.8z"/>
		<path class="st15" d="M84.9,372.8h6.7v2.1h-4.2v2.3H91v2.1h-3.6v4h-2.5V372.8z"/>
	</g>
	<g>
		<path class="st15" d="M51.6,403.3h3.8c2.2,0,4.1,0.8,4.1,3.3c0,1.5-0.7,2.5-1.8,3l2.3,4.1h-2.8l-1.9-3.7h-1.2v3.7h-2.5V403.3z
			 M55.2,408.1c1.2,0,1.8-0.5,1.8-1.5s-0.6-1.3-1.8-1.3h-1.1v2.8H55.2z"/>
		<path class="st15" d="M61.5,403.3H68v2.1h-4.1v2h3.5v2.1h-3.5v2.2h4.3v2.1h-6.8V403.3z"/>
		<path class="st15" d="M69.6,412.4l1.3-1.6c0.7,0.6,1.7,1,2.6,1c0.9,0,1.4-0.4,1.4-0.9c0-0.6-0.6-0.8-1.5-1.2l-1.3-0.6
			c-1.1-0.4-2.1-1.3-2.1-2.8c0-1.7,1.6-3.2,3.8-3.2c1.2,0,2.5,0.5,3.4,1.3l-1.3,1.6c-0.7-0.5-1.4-0.8-2.1-0.8
			c-0.8,0-1.3,0.3-1.3,0.8c0,0.6,0.7,0.8,1.6,1.2l1.3,0.5c1.3,0.5,2.1,1.4,2.1,2.8c0,1.7-1.5,3.3-4,3.3
			C72.1,413.9,70.7,413.4,69.6,412.4z"/>
		<path class="st15" d="M79.2,403.3h6.6v2.1h-4.1v2h3.5v2.1h-3.5v2.2h4.3v2.1h-6.8V403.3z"/>
		<path class="st15" d="M90,405.4h-2.8v-2.1h8.1v2.1h-2.8v8.3H90V405.4z"/>
	</g>
	<g>
		<path class="st15" d="M51.9,443l1.1-1.6c0.6,0.6,1.4,1,2.2,1c1,0,1.6-0.4,1.6-1.2c0-0.9-0.5-1.4-2.7-1.4V438
			c1.8,0,2.3-0.5,2.3-1.4c0-0.7-0.4-1.1-1.2-1.1c-0.7,0-1.2,0.3-1.9,0.9l-1.2-1.5c0.9-0.8,2-1.3,3.2-1.3c2.2,0,3.6,1,3.6,2.9
			c0,1.1-0.6,1.8-1.7,2.3v0.1c1.2,0.3,2,1.2,2,2.5c0,2-1.8,3-3.8,3C53.9,444.4,52.7,443.9,51.9,443z"/>
		<path class="st15" d="M61.1,442.9c0-0.9,0.6-1.5,1.5-1.5c0.8,0,1.5,0.7,1.5,1.5s-0.6,1.5-1.5,1.5
			C61.7,444.4,61.1,443.8,61.1,442.9z"/>
		<path class="st15" d="M65.4,443l1.1-1.6c0.6,0.6,1.4,1,2.2,1c1,0,1.6-0.4,1.6-1.2c0-0.9-0.5-1.4-2.7-1.4V438
			c1.8,0,2.3-0.5,2.3-1.4c0-0.7-0.4-1.1-1.2-1.1c-0.7,0-1.2,0.3-1.9,0.9l-1.2-1.5c0.9-0.8,2-1.3,3.2-1.3c2.2,0,3.6,1,3.6,2.9
			c0,1.1-0.6,1.8-1.7,2.3v0.1c1.2,0.3,2,1.2,2,2.5c0,2-1.8,3-3.8,3C67.3,444.4,66.1,443.9,65.4,443z"/>
		<path class="st15" d="M73.4,433.8H76l1.1,4.8c0.3,1.1,0.5,2.2,0.8,3.3H78c0.3-1.1,0.5-2.2,0.8-3.3l1.2-4.8h2.5l-3.2,10.4h-3
			L73.4,433.8z"/>
	</g>
	<g>
		<path class="st15" d="M53.2,473.5l1.1-1.6c0.6,0.6,1.3,1,2.1,1c1,0,1.6-0.6,1.6-1.6s-0.6-1.6-1.5-1.6c-0.6,0-0.9,0.1-1.5,0.5
			l-1.1-0.7l0.3-5.2h5.8v2.1h-3.7l-0.1,1.8c0.4-0.1,0.7-0.2,1.1-0.2c1.8,0,3.2,1,3.2,3.3c0,2.4-1.8,3.7-3.8,3.7
			C55.1,474.9,54,474.3,53.2,473.5z"/>
		<path class="st15" d="M61.2,464.3h2.6l1.1,4.8c0.3,1.1,0.5,2.2,0.8,3.3h0.1c0.3-1.1,0.5-2.2,0.8-3.3l1.2-4.8h2.5l-3.2,10.4h-3
			L61.2,464.3z"/>
	</g>
	<g>
		<path class="st15" d="M54.8,500.1c0-3.5,2.3-5.5,5.1-5.5c1.5,0,2.6,0.6,3.3,1.4l-1.3,1.5c-0.5-0.5-1.1-0.7-1.9-0.7
			c-1.5,0-2.7,1.2-2.7,3.2c0,2.1,0.9,3.3,2.9,3.3c0.4,0,0.8-0.1,1-0.3v-1.7h-1.7v-2h3.9v4.9c-0.7,0.7-2,1.3-3.5,1.3
			C57.1,505.5,54.8,503.7,54.8,500.1z"/>
		<path class="st15" d="M65.5,494.8h2.6l2.6,5c0.4,0.7,0.7,1.5,1,2.4h0.1c-0.1-1.1-0.3-2.6-0.3-3.8v-3.5h2.4v10.4h-2.6l-2.6-5
			c-0.4-0.7-0.7-1.5-1-2.4h-0.1c0.1,1.2,0.3,2.6,0.3,3.8v3.5h-2.4V494.8z"/>
		<path class="st15" d="M76.2,494.8h3c3.2,0,5.3,1.6,5.3,5.2c0,3.6-2.1,5.2-5.1,5.2h-3.1V494.8z M79,503.3c1.7,0,2.9-0.8,2.9-3.2
			c0-2.5-1.2-3.2-2.9-3.2h-0.4v6.4H79z"/>
	</g>
	<g>
		<path class="st15" d="M56,530.6c0-3.5,2.3-5.5,5.1-5.5c1.5,0,2.6,0.6,3.3,1.4l-1.3,1.5c-0.5-0.5-1.1-0.7-1.9-0.7
			c-1.5,0-2.7,1.2-2.7,3.2c0,2.1,0.9,3.3,2.9,3.3c0.4,0,0.8-0.1,1-0.3v-1.7h-1.7v-2h3.9v4.9c-0.7,0.7-2,1.3-3.5,1.3
			C58.3,536,56,534.2,56,530.6z"/>
		<path class="st15" d="M66.7,525.4h2.6l2.6,5c0.4,0.7,0.7,1.5,1,2.4H73c-0.1-1.1-0.3-2.6-0.3-3.8v-3.5H75v10.4h-2.6l-2.6-5
			c-0.4-0.7-0.7-1.5-1-2.4h-0.1c0.1,1.2,0.3,2.6,0.3,3.8v3.5h-2.4V525.4z"/>
		<path class="st15" d="M77.4,525.4h3c3.2,0,5.3,1.6,5.3,5.2c0,3.6-2.1,5.2-5.1,5.2h-3.1V525.4z M80.3,533.8c1.7,0,2.9-0.8,2.9-3.2
			c0-2.5-1.2-3.2-2.9-3.2h-0.4v6.4H80.3z"/>
	</g>
	<g>
		<path class="st15" d="M56.4,555.9H59l1.1,4.8c0.3,1.1,0.5,2.2,0.8,3.3H61c0.3-1.1,0.5-2.2,0.8-3.3l1.2-4.8h2.5l-3.2,10.4h-3
			L56.4,555.9z"/>
		<path class="st15" d="M66.7,555.9h2.5v10.4h-2.5V555.9z"/>
		<path class="st15" d="M71.6,555.9h2.6l2.6,5c0.4,0.7,0.7,1.5,1,2.4h0.1c-0.1-1.1-0.3-2.6-0.3-3.8v-3.5h2.4v10.4h-2.6l-2.6-5
			c-0.4-0.7-0.7-1.5-1-2.4h-0.1c0.1,1.2,0.3,2.6,0.3,3.8v3.5h-2.4V555.9z"/>
	</g>
	<g>
		<path class="st15" d="M60.9,589.4h3l3.2,10.4h-2.6l-0.6-2.4h-3.1l-0.6,2.4h-2.5L60.9,589.4z M61.3,595.5h2.1l-0.2-0.9
			c-0.3-1-0.5-2.3-0.8-3.3h-0.1c-0.3,1.1-0.5,2.3-0.8,3.3L61.3,595.5z"/>
		<path class="st15" d="M67.5,594.6c0-3.6,1.5-5.4,3.7-5.4s3.7,1.8,3.7,5.4s-1.5,5.4-3.7,5.4S67.5,598.2,67.5,594.6z M72.6,594.6
			c0-2.8-0.6-3.5-1.3-3.5c-0.8,0-1.3,0.6-1.3,3.5c0,2.8,0.6,3.5,1.3,3.5C72,598.2,72.6,597.5,72.6,594.6z"/>
	</g>
	<g>
		<path class="st15" d="M62.1,620h3l3.2,10.4h-2.6l-0.6-2.4H62l-0.6,2.4h-2.5L62.1,620z M62.5,626.1h2.1l-0.2-0.9
			c-0.3-1-0.5-2.3-0.8-3.3h-0.1c-0.3,1.1-0.5,2.3-0.8,3.3L62.5,626.1z"/>
		<path class="st15" d="M69.3,628.4h2.2v-5.9h-1.9v-1.5c1.1-0.2,1.8-0.5,2.6-0.9H74v8.4h1.9v2h-6.6V628.4z"/>
	</g>
	<g>
		<path class="st15" d="M63.3,650.5h3l3.2,10.4h-2.6l-0.6-2.4h-3.1l-0.6,2.4h-2.5L63.3,650.5z M63.7,656.6h2.1l-0.2-0.9
			c-0.3-1-0.5-2.3-0.8-3.3h-0.1c-0.3,1.1-0.5,2.3-0.8,3.3L63.7,656.6z"/>
		<path class="st15" d="M70,659.4c2.7-2.3,4.4-4.2,4.4-5.6c0-1-0.5-1.5-1.4-1.5c-0.7,0-1.3,0.5-1.8,1l-1.3-1.3
			c1-1.1,1.9-1.7,3.4-1.7c2,0,3.4,1.3,3.4,3.3c0,1.9-1.7,3.8-3.3,5.4c0.5,0,1.2-0.1,1.7-0.1h2.1v2.1H70V659.4z"/>
	</g>
	<g>
		<path class="st15" d="M64.6,681h3l3.2,10.4h-2.6l-0.6-2.4h-3.1l-0.6,2.4h-2.5L64.6,681z M65,687.1h2.1l-0.2-0.9
			c-0.3-1-0.5-2.3-0.8-3.3H66c-0.3,1.1-0.5,2.3-0.8,3.3L65,687.1z"/>
		<path class="st15" d="M71,690.2l1.1-1.6c0.6,0.6,1.4,1,2.2,1c1,0,1.6-0.4,1.6-1.2c0-0.9-0.5-1.4-2.7-1.4v-1.8
			c1.8,0,2.3-0.5,2.3-1.4c0-0.7-0.4-1.1-1.2-1.1c-0.7,0-1.2,0.3-1.9,0.9l-1.2-1.5c0.9-0.8,2-1.3,3.2-1.3c2.2,0,3.6,1,3.6,2.9
			c0,1.1-0.6,1.8-1.7,2.3v0.1c1.2,0.3,2,1.2,2,2.5c0,2-1.8,3-3.8,3C72.9,691.6,71.8,691,71,690.2z"/>
	</g>
	<g>
		<path class="st15" d="M65.8,711.5h3l3.2,10.4h-2.6l-0.6-2.4h-3.1l-0.6,2.4h-2.5L65.8,711.5z M66.2,717.6h2.1l-0.2-0.9
			c-0.3-1-0.5-2.3-0.8-3.3h-0.1c-0.3,1.1-0.5,2.3-0.8,3.3L66.2,717.6z"/>
		<path class="st15" d="M76.6,719.3h-4.4v-1.7l3.6-6.1h3.1v5.9h1.2v1.9h-1.2v2.6h-2.3V719.3z M76.6,717.4v-1.5c0-0.7,0-1.6,0.1-2.3
			h-0.1c-0.3,0.6-0.5,1.2-0.8,1.8l-1.2,2.1H76.6z"/>
		<path class="st15" d="M83.7,710.5h1.6l-3.1,13.9h-1.6L83.7,710.5z"/>
		<path class="st15" d="M86.4,720.6l1.3-1.6c0.7,0.6,1.7,1,2.6,1c0.9,0,1.4-0.4,1.4-0.9c0-0.6-0.6-0.8-1.5-1.2l-1.3-0.6
			c-1.1-0.4-2.1-1.3-2.1-2.8c0-1.7,1.6-3.2,3.8-3.2c1.2,0,2.5,0.5,3.4,1.3l-1.3,1.6c-0.7-0.5-1.4-0.8-2.1-0.8
			c-0.8,0-1.3,0.3-1.3,0.8c0,0.6,0.7,0.8,1.6,1.2l1.3,0.5c1.3,0.5,2.1,1.4,2.1,2.8c0,1.7-1.5,3.3-4,3.3
			C88.8,722.1,87.4,721.6,86.4,720.6z"/>
		<path class="st15" d="M95.9,711.5h3c3.2,0,5.3,1.6,5.3,5.2c0,3.6-2.1,5.2-5.1,5.2h-3.1V711.5z M98.8,719.9c1.7,0,2.9-0.8,2.9-3.2
			c0-2.5-1.2-3.2-2.9-3.2h-0.4v6.4H98.8z"/>
		<path class="st15" d="M107.9,711.5h3l3.2,10.4h-2.6l-0.6-2.4h-3.1l-0.6,2.4h-2.5L107.9,711.5z M108.3,717.6h2.1l-0.2-0.9
			c-0.3-1-0.5-2.3-0.8-3.3h-0.1c-0.3,1.1-0.5,2.3-0.8,3.3L108.3,717.6z"/>
	</g>
	<g>
		<path class="st15" d="M67,738.9h3l3.2,10.4h-2.6L70,747h-3.1l-0.6,2.4h-2.5L67,738.9z M67.4,745h2.1l-0.2-0.9
			c-0.3-1-0.5-2.3-0.8-3.3h-0.1c-0.3,1.1-0.5,2.3-0.8,3.3L67.4,745z"/>
		<path class="st15" d="M73.5,748.1l1.1-1.6c0.6,0.6,1.3,1,2.1,1c1,0,1.6-0.6,1.6-1.6s-0.6-1.6-1.5-1.6c-0.6,0-0.9,0.1-1.5,0.5
			l-1.1-0.7l0.3-5.2h5.8v2.1h-3.7l-0.1,1.8c0.4-0.1,0.7-0.2,1.1-0.2c1.8,0,3.2,1,3.2,3.3c0,2.4-1.8,3.7-3.8,3.7
			C75.5,749.6,74.3,748.9,73.5,748.1z"/>
		<path class="st15" d="M85,738h1.6l-3.1,13.9h-1.6L85,738z"/>
		<path class="st15" d="M87.6,748l1.3-1.6c0.7,0.6,1.7,1,2.6,1c0.9,0,1.4-0.4,1.4-0.9c0-0.6-0.6-0.8-1.5-1.2l-1.3-0.6
			c-1.1-0.4-2.1-1.3-2.1-2.8c0-1.7,1.6-3.2,3.8-3.2c1.2,0,2.5,0.5,3.4,1.3l-1.3,1.6c-0.7-0.5-1.4-0.8-2.1-0.8
			c-0.8,0-1.3,0.3-1.3,0.8c0,0.6,0.7,0.8,1.6,1.2l1.3,0.5c1.3,0.5,2.1,1.4,2.1,2.8c0,1.7-1.5,3.3-4,3.3
			C90.1,749.6,88.7,749.1,87.6,748z"/>
		<path class="st15" d="M96.7,744.2c0-3.5,2.3-5.5,5-5.5c1.4,0,2.4,0.6,3.2,1.4l-1.3,1.5c-0.5-0.5-1.1-0.7-1.8-0.7
			c-1.4,0-2.5,1.2-2.5,3.2c0,2.1,1,3.3,2.4,3.3c0.8,0,1.5-0.3,2-0.9l1.3,1.5c-0.9,1-2.1,1.5-3.4,1.5
			C98.9,749.6,96.7,747.7,96.7,744.2z"/>
		<path class="st15" d="M106.5,738.9h2.5v8.3h4v2.1h-6.5V738.9z"/>
	</g>
	<g>
		<path class="st15" d="M119.5,432.1v3.7c0,2.3-0.8,4.2-3.4,4.2c-2.5,0-3.6-1.9-3.6-4.1v-1.2h-3.5v-2.5H119.5z M114.5,435.7
			c0,1.2,0.6,1.8,1.6,1.8c1,0,1.4-0.7,1.4-1.9v-1h-3V435.7z"/>
		<path class="st15" d="M114.3,441.2c3.4,0,5.4,1.9,5.4,4.8s-2,4.8-5.4,4.8s-5.4-1.9-5.4-4.8S110.9,441.2,114.3,441.2z M114.3,448.2
			c2,0,3.2-0.8,3.2-2.2c0-1.4-1.2-2.2-3.2-2.2c-2,0-3.3,0.9-3.3,2.2C111,447.3,112.3,448.2,114.3,448.2z"/>
		<path class="st15" d="M119.5,451.7v2.5l-4.8,0.7c-1.1,0.1-2.2,0.3-3.3,0.4v0.1c1.1,0.2,2.2,0.4,3.3,0.6l4.8,1.1v2.1l-4.8,1.1
			c-1.1,0.2-2.2,0.4-3.3,0.6v0.1c1.2,0.1,2.3,0.3,3.3,0.4l4.8,0.7v2.4l-10.4-1.8v-3.2l4.6-0.9c0.8-0.2,1.6-0.3,2.5-0.4v-0.1
			c-0.8-0.1-1.6-0.2-2.5-0.4l-4.6-0.9v-3.1L119.5,451.7z"/>
		<path class="st15" d="M119.5,465.7v6.6h-2.1v-4.1h-2v3.5h-2.1v-3.5h-2.2v4.3h-2.1v-6.8H119.5z"/>
		<path class="st15" d="M119.5,474.5v3.8c0,2.2-0.8,4.1-3.3,4.1c-1.5,0-2.5-0.7-3-1.8l-4.1,2.3v-2.8l3.7-1.9V477h-3.7v-2.5H119.5z
			 M114.7,478.1c0,1.2,0.5,1.8,1.5,1.8s1.3-0.6,1.3-1.8V477h-2.8V478.1z"/>
	</g>
	<g>
		<path class="st15" d="M119.5,634.4v3l-10.4,3.2V638l2.4-0.6v-3.1l-2.4-0.6v-2.5L119.5,634.4z M113.4,634.8v2.1l0.9-0.2
			c1-0.3,2.3-0.5,3.3-0.8v-0.1c-1.1-0.3-2.3-0.5-3.3-0.8L113.4,634.8z"/>
		<path class="st15" d="M119.5,641.7v2.6l-5,2.6c-0.7,0.4-1.5,0.7-2.4,1v0.1c1.1-0.1,2.6-0.3,3.8-0.3h3.5v2.4h-10.4v-2.6l5-2.6
			c0.7-0.4,1.5-0.7,2.4-1v-0.1c-1.2,0.1-2.6,0.3-3.8,0.3h-3.5v-2.4H119.5z"/>
		<path class="st15" d="M119.5,654.3v3l-10.4,3.2v-2.6l2.4-0.6v-3.1l-2.4-0.6v-2.5L119.5,654.3z M113.4,654.7v2.1l0.9-0.2
			c1-0.3,2.3-0.5,3.3-0.8v-0.1c-1.1-0.3-2.3-0.5-3.3-0.8L113.4,654.7z"/>
		<path class="st15" d="M119.5,661.6v2.5h-8.3v4h-2.1v-6.5H119.5z"/>
		<path class="st15" d="M114.3,668.9c3.4,0,5.4,1.9,5.4,4.8s-2,4.8-5.4,4.8s-5.4-1.9-5.4-4.8S110.9,668.9,114.3,668.9z M114.3,675.9
			c2,0,3.2-0.8,3.2-2.2c0-1.4-1.2-2.2-3.2-2.2c-2,0-3.3,0.9-3.3,2.2C111,675,112.3,675.9,114.3,675.9z"/>
		<path class="st15" d="M114.2,679.9c3.5,0,5.5,2.3,5.5,5.1c0,1.5-0.6,2.6-1.4,3.3l-1.5-1.3c0.5-0.5,0.7-1.1,0.7-1.9
			c0-1.5-1.2-2.7-3.2-2.7c-2.1,0-3.3,0.9-3.3,2.9c0,0.4,0.1,0.8,0.3,1h1.7v-1.7h2v3.9h-4.9c-0.7-0.7-1.3-2-1.3-3.5
			C108.9,682.2,110.7,679.9,114.2,679.9z"/>
		<path class="st15" d="M119.5,693.8v2.5h-10.4v-2.5H119.5z"/>
		<path class="st15" d="M119.5,698.7v2.6l-5,2.6c-0.7,0.4-1.5,0.7-2.4,1v0.1c1.1-0.1,2.6-0.3,3.8-0.3h3.5v2.4h-10.4v-2.6l5-2.6
			c0.7-0.4,1.5-0.7,2.4-1v-0.1c-1.2,0.1-2.6,0.3-3.8,0.3h-3.5v-2.4H119.5z"/>
	</g>
	<path class="st24" d="M126,749.7L126,749.7c-1.3,0-2.3-1-2.3-2.3V592.1c0-1.3,1-2.3,2.3-2.3h0c1.3,0,2.3,1,2.3,2.3v155.3
		C128.3,748.7,127.3,749.7,126,749.7z"/>
	<path class="st24" d="M126,550.9L126,550.9c-1.3,0-2.3-1-2.3-2.3V365.5c0-1.3,1-2.3,2.3-2.3h0c1.3,0,2.3,1,2.3,2.3v183.2
		C128.3,549.9,127.3,550.9,126,550.9z"/>
	<g>
		<g>
			<polygon class="st25" points="292.3,739.7 288.7,739.7 288.6,739.7 285,739.7 276.5,748.2 276.5,781.3 285,789.7 288.6,789.7 
				288.7,789.7 292.3,789.7 300.8,781.3 300.8,748.2 			"/>
			<g>
				<g>
					<rect x="285.5" y="749.3" class="st26" width="6.2" height="6.2"/>
					<rect x="285.5" y="773.9" class="st26" width="6.2" height="6.2"/>
				</g>
			</g>
		</g>
		<g>
			<polygon class="st25" points="316.5,739.7 312.9,739.7 312.8,739.7 309.2,739.7 300.8,748.2 300.8,781.3 309.2,789.7 
				312.8,789.7 312.9,789.7 316.5,789.7 325,781.3 325,748.2 			"/>
			<g>
				<g>
					<rect x="309.8" y="749.3" class="st26" width="6.2" height="6.2"/>
					<rect x="309.8" y="773.9" class="st26" width="6.2" height="6.2"/>
				</g>
			</g>
		</g>
		<g>
			<polygon class="st25" points="340.7,739.7 337.1,739.7 337.1,739.7 333.4,739.7 325,748.2 325,781.3 333.4,789.7 337.1,789.7 
				337.1,789.7 340.7,789.7 349.2,781.3 349.2,748.2 			"/>
			<g>
				<g>
					<rect x="334" y="749.3" class="st26" width="6.2" height="6.2"/>
					<rect x="334" y="773.9" class="st26" width="6.2" height="6.2"/>
				</g>
			</g>
		</g>
	</g>
	<path class="st24" d="M270.5,728.3c-1.3,0-2.3,1-2.3,2.3v2.3V789c0,1.3,1,2.3,2.3,2.3l0,0c1.3,0,2.3-1,2.3-2.3v-53.9
		c0-1.3,1-2.3,2.3-2.3h75.6c1.3,0,2.3,1,2.3,2.3V789c0,1.3,1,2.3,2.3,2.3h0c1.3,0,2.3-1,2.3-2.3v-56.2v-2.3c0-1.3-1-2.3-2.3-2.3
		H270.5z"/>
	<path class="st24" d="M467.4,748.3L467.4,748.3c-1.3,0-2.3-1-2.3-2.3V355.9c0-1.3,1-2.3,2.3-2.3l0,0c1.3,0,2.3,1,2.3,2.3v390.2
		C469.6,747.3,468.6,748.3,467.4,748.3z"/>
	<g>
		<path class="st15" d="M486.5,495.2v3c0,3.2-1.6,5.3-5.2,5.3c-3.6,0-5.2-2.1-5.2-5.1v-3.1H486.5z M478.1,498.1
			c0,1.7,0.8,2.9,3.2,2.9c2.5,0,3.2-1.2,3.2-2.9v-0.4h-6.4V498.1z"/>
		<path class="st15" d="M486.5,505.4v2.5h-10.4v-2.5H486.5z"/>
		<path class="st15" d="M481.2,509.8c3.5,0,5.5,2.3,5.5,5.1c0,1.5-0.6,2.6-1.4,3.3l-1.5-1.3c0.5-0.5,0.7-1.1,0.7-1.9
			c0-1.5-1.2-2.7-3.2-2.7c-2.1,0-3.3,0.9-3.3,2.9c0,0.4,0.1,0.8,0.3,1h1.7v-1.7h2v3.9h-4.9c-0.7-0.7-1.3-2-1.3-3.5
			C475.9,512.1,477.7,509.8,481.2,509.8z"/>
		<path class="st15" d="M486.5,520.6v2.5h-10.4v-2.5H486.5z"/>
		<path class="st15" d="M484.5,527.5v-2.8h2.1v8.1h-2.1V530h-8.3v-2.5H484.5z"/>
		<path class="st15" d="M486.5,535.7v3l-10.4,3.2v-2.6l2.4-0.6v-3.1l-2.4-0.6v-2.5L486.5,535.7z M480.4,536.1v2.1l0.9-0.2
			c1-0.3,2.3-0.5,3.3-0.8v-0.1c-1.1-0.3-2.3-0.5-3.3-0.8L480.4,536.1z"/>
		<path class="st15" d="M486.5,543v2.5h-8.3v4h-2.1V543H486.5z"/>
		<path class="st15" d="M480.6,554.5c2.8,0,5.1,0.8,7.3,2.1l-0.6,1.6c-2.1-1.2-4.4-1.7-6.7-1.7s-4.6,0.5-6.7,1.7l-0.6-1.6
			C475.4,555.2,477.7,554.5,480.6,554.5z"/>
		<path class="st15" d="M486.5,560.1v3.7c0,2.3-0.8,4.2-3.4,4.2c-2.5,0-3.6-1.9-3.6-4.1v-1.2h-3.5v-2.5H486.5z M481.5,563.7
			c0,1.2,0.6,1.8,1.6,1.8c1,0,1.4-0.7,1.4-1.9v-1h-3V563.7z"/>
		<path class="st15" d="M486.5,568.7v2.5l-4.8,0.7c-1.1,0.1-2.2,0.3-3.3,0.4v0.1c1.1,0.2,2.2,0.4,3.3,0.6l4.8,1.1v2.1l-4.8,1.1
			c-1.1,0.2-2.2,0.4-3.3,0.6v0.1c1.2,0.1,2.3,0.3,3.3,0.4l4.8,0.7v2.4l-10.4-1.8v-3.2l4.6-0.9c0.8-0.2,1.6-0.3,2.5-0.4V575
			c-0.8-0.1-1.6-0.2-2.5-0.4l-4.6-0.9v-3.1L486.5,568.7z"/>
		<path class="st15" d="M486.5,582.8v2.7l-4.5,1.6c-0.6,0.2-1.2,0.4-1.9,0.6v0.1c0.7,0.2,1.3,0.4,1.9,0.6l4.5,1.6v2.7h-10.4v-2.3
			h3.6c1,0,2.8,0.2,3.8,0.3v-0.1l-2.7-0.9l-3.8-1.4V587l3.8-1.4l2.7-0.8v-0.1c-1,0.1-2.8,0.3-3.8,0.3h-3.6v-2.2H486.5z"/>
		<path class="st15" d="M481.1,596.7c0-0.4-0.4-0.8-0.9-1.1l1-1.3c1.2,0.8,1.7,1.6,1.7,2.4c0,1.3-1.2,1.9-1.2,2.8
			c0,0.4,0.4,0.8,0.9,1.1l-1,1.3c-1.2-0.8-1.7-1.6-1.7-2.4C479.9,598.1,481.1,597.6,481.1,596.7z"/>
		<path class="st15" d="M473.9,603.1c2.1,1.2,4.4,1.7,6.7,1.7s4.6-0.5,6.7-1.7l0.6,1.6c-2.2,1.3-4.5,2.1-7.3,2.1
			c-2.8,0-5.1-0.8-7.3-2.1L473.9,603.1z"/>
	</g>
	<g>
		<rect x="559" y="523.6" class="st23" width="33.4" height="240.9"/>
		<rect x="565.9" y="526.3" width="19.6" height="19.6"/>
		<rect x="565.9" y="556.8" width="19.6" height="19.6"/>
		<rect x="565.9" y="587.3" width="19.6" height="19.6"/>
		<rect x="565.9" y="617.8" width="19.6" height="19.6"/>
		<rect x="565.9" y="648.4" width="19.6" height="19.6"/>
		<rect x="565.9" y="678.9" width="19.6" height="19.6"/>
		<rect x="565.9" y="709.4" width="19.6" height="19.6"/>
		<rect x="565.9" y="739.9" width="19.6" height="19.6"/>
	</g>
	<g>
		<rect x="559" y="220.4" class="st23" width="33.4" height="301.1"/>
		<rect x="565.9" y="285" width="19.6" height="19.6"/>
		<rect x="565.9" y="315.6" width="19.6" height="19.6"/>
		<rect x="565.9" y="346.1" width="19.6" height="19.6"/>
		<rect x="565.9" y="376.6" width="19.6" height="19.6"/>
		<rect x="565.9" y="407.1" width="19.6" height="19.6"/>
		<rect x="565.9" y="437.6" width="19.6" height="19.6"/>
		<rect x="565.9" y="468.1" width="19.6" height="19.6"/>
		<rect x="565.9" y="498.6" width="19.6" height="19.6"/>
		<rect x="565.9" y="254.5" width="19.6" height="19.6"/>
		<rect x="565.9" y="224.3" width="19.6" height="19.6"/>
	</g>
	<g>
		<g>
			<path class="st15" d="M508.8,229.3h3l3.2,10.4h-2.6l-0.6-2.4h-3.1l-0.6,2.4h-2.5L508.8,229.3z M509.2,235.4h2.1l-0.2-0.9
				c-0.3-1-0.5-2.3-0.8-3.3h-0.1c-0.3,1.1-0.5,2.3-0.8,3.3L509.2,235.4z"/>
			<path class="st15" d="M515.2,238.5l1.1-1.6c0.6,0.6,1.3,1,2.1,1c1,0,1.6-0.6,1.6-1.6s-0.6-1.6-1.5-1.6c-0.6,0-0.9,0.1-1.5,0.5
				l-1.1-0.7l0.3-5.2h5.8v2.1h-3.7l-0.1,1.8c0.4-0.1,0.7-0.2,1.1-0.2c1.8,0,3.2,1,3.2,3.3c0,2.4-1.8,3.7-3.8,3.7
				C517.2,239.9,516,239.3,515.2,238.5z"/>
			<path class="st15" d="M526.7,228.3h1.6l-3.1,13.9h-1.6L526.7,228.3z"/>
			<path class="st15" d="M529.3,238.4l1.3-1.6c0.7,0.6,1.7,1,2.6,1c0.9,0,1.4-0.4,1.4-0.9c0-0.6-0.6-0.8-1.5-1.2l-1.3-0.6
				c-1.1-0.4-2.1-1.3-2.1-2.8c0-1.7,1.6-3.2,3.8-3.2c1.2,0,2.5,0.5,3.4,1.3l-1.3,1.6c-0.7-0.5-1.4-0.8-2.1-0.8
				c-0.8,0-1.3,0.3-1.3,0.8c0,0.6,0.7,0.8,1.6,1.2l1.3,0.5c1.3,0.5,2.1,1.4,2.1,2.8c0,1.7-1.5,3.3-4,3.3
				C531.8,239.9,530.4,239.4,529.3,238.4z"/>
			<path class="st15" d="M538.4,234.6c0-3.5,2.3-5.5,5-5.5c1.4,0,2.4,0.6,3.2,1.4l-1.3,1.5c-0.5-0.5-1.1-0.7-1.8-0.7
				c-1.4,0-2.5,1.2-2.5,3.2c0,2.1,1,3.3,2.4,3.3c0.8,0,1.5-0.3,2-0.9l1.3,1.5c-0.9,1-2.1,1.5-3.4,1.5
				C540.7,239.9,538.4,238.1,538.4,234.6z"/>
			<path class="st15" d="M548.2,229.3h2.5v8.3h4v2.1h-6.5V229.3z"/>
		</g>
		<g>
			<path class="st15" d="M506.6,259.5h3l3.2,10.4h-2.6l-0.6-2.4h-3.1l-0.6,2.4h-2.5L506.6,259.5z M507,265.6h2.1l-0.2-0.9
				c-0.3-1-0.5-2.3-0.8-3.3H508c-0.3,1.1-0.5,2.3-0.8,3.3L507,265.6z"/>
			<path class="st15" d="M517.4,267.4h-4.4v-1.7l3.6-6.1h3.1v5.9h1.2v1.9h-1.2v2.6h-2.3V267.4z M517.4,265.5v-1.5
				c0-0.7,0-1.6,0.1-2.3h-0.1c-0.3,0.6-0.5,1.2-0.8,1.8l-1.2,2.1H517.4z"/>
			<path class="st15" d="M524.6,258.6h1.6l-3.1,13.9h-1.6L524.6,258.6z"/>
			<path class="st15" d="M527.2,268.6l1.3-1.6c0.7,0.6,1.7,1,2.6,1c0.9,0,1.4-0.4,1.4-0.9c0-0.6-0.6-0.8-1.5-1.2l-1.3-0.6
				c-1.1-0.4-2.1-1.3-2.1-2.8c0-1.7,1.6-3.2,3.8-3.2c1.2,0,2.5,0.5,3.4,1.3l-1.3,1.6c-0.7-0.5-1.4-0.8-2.1-0.8
				c-0.8,0-1.3,0.3-1.3,0.8c0,0.6,0.7,0.8,1.6,1.2l1.3,0.5c1.3,0.5,2.1,1.4,2.1,2.8c0,1.7-1.5,3.3-4,3.3
				C529.7,270.1,528.3,269.7,527.2,268.6z"/>
			<path class="st15" d="M536.8,259.5h3c3.2,0,5.3,1.6,5.3,5.2c0,3.6-2.1,5.2-5.1,5.2h-3.1V259.5z M539.6,267.9
				c1.7,0,2.9-0.8,2.9-3.2c0-2.5-1.2-3.2-2.9-3.2h-0.4v6.4H539.6z"/>
			<path class="st15" d="M548.7,259.5h3l3.2,10.4h-2.6l-0.6-2.4h-3.1l-0.6,2.4h-2.5L548.7,259.5z M549.1,265.6h2.1l-0.2-0.9
				c-0.3-1-0.5-2.3-0.8-3.3h-0.1c-0.3,1.1-0.5,2.3-0.8,3.3L549.1,265.6z"/>
		</g>
		<g>
			<path class="st15" d="M521,290h3l3.2,10.4h-2.6l-0.6-2.4h-3.1l-0.6,2.4h-2.5L521,290z M521.4,296.1h2.1l-0.2-0.9
				c-0.3-1-0.5-2.3-0.8-3.3h-0.1c-0.3,1.1-0.5,2.3-0.8,3.3L521.4,296.1z"/>
			<path class="st15" d="M528.3,290h3.8c2.2,0,4.1,0.8,4.1,3.3c0,1.5-0.7,2.5-1.8,3l2.3,4.1h-2.8l-1.9-3.7h-1.2v3.7h-2.5V290z
				 M531.9,294.8c1.2,0,1.8-0.5,1.8-1.5s-0.6-1.3-1.8-1.3h-1.1v2.8H531.9z"/>
			<path class="st15" d="M538.2,290h6.6v2.1h-4.1v2h3.5v2.1h-3.5v2.2h4.3v2.1h-6.8V290z"/>
			<path class="st15" d="M547,290h6.7v2.1h-4.2v2.3h3.6v2.1h-3.6v4H547V290z"/>
		</g>
		<g>
			<path class="st15" d="M523.3,325.8c0-3.5,2.3-5.5,5.1-5.5c1.5,0,2.6,0.6,3.3,1.4l-1.3,1.5c-0.5-0.5-1.1-0.7-1.9-0.7
				c-1.5,0-2.7,1.2-2.7,3.2c0,2.1,0.9,3.3,2.9,3.3c0.4,0,0.8-0.1,1-0.3v-1.7H528v-2h3.9v4.9c-0.7,0.7-2,1.3-3.5,1.3
				C525.6,331.2,523.3,329.4,523.3,325.8z"/>
			<path class="st15" d="M534,320.6h2.6l2.6,5c0.4,0.7,0.7,1.5,1,2.4h0.1c-0.1-1.1-0.3-2.6-0.3-3.8v-3.5h2.4V331h-2.6l-2.6-5
				c-0.4-0.7-0.7-1.5-1-2.4H536c0.1,1.2,0.3,2.6,0.3,3.8v3.5H534V320.6z"/>
			<path class="st15" d="M544.7,320.6h3c3.2,0,5.3,1.6,5.3,5.2c0,3.6-2.1,5.2-5.1,5.2h-3.1V320.6z M547.5,329c1.7,0,2.9-0.8,2.9-3.2
				c0-2.5-1.2-3.2-2.9-3.2h-0.4v6.4H547.5z"/>
		</g>
		<g>
			<path class="st15" d="M495.2,359.5h2.2v-5.9h-1.9V352c1.1-0.2,1.8-0.5,2.6-0.9h1.8v8.4h1.9v2h-6.6V359.5z"/>
			<path class="st15" d="M503,360.2l1.1-1.6c0.6,0.6,1.4,1,2.2,1c1,0,1.6-0.4,1.6-1.2c0-0.9-0.5-1.4-2.7-1.4v-1.8
				c1.8,0,2.3-0.5,2.3-1.4c0-0.7-0.4-1.1-1.2-1.1c-0.7,0-1.2,0.3-1.9,0.9l-1.2-1.5c0.9-0.8,2-1.3,3.2-1.3c2.2,0,3.6,1,3.6,2.9
				c0,1.1-0.6,1.8-1.7,2.3v0.1c1.2,0.3,2,1.2,2,2.5c0,2-1.8,3-3.8,3C504.9,361.7,503.8,361.1,503,360.2z"/>
			<path class="st15" d="M514.5,350.1h1.6L513,364h-1.6L514.5,350.1z"/>
			<path class="st15" d="M517.1,360.2l1.3-1.6c0.7,0.6,1.7,1,2.6,1c0.9,0,1.4-0.4,1.4-0.9c0-0.6-0.6-0.8-1.5-1.2l-1.3-0.6
				c-1.1-0.4-2.1-1.3-2.1-2.8c0-1.7,1.6-3.2,3.8-3.2c1.2,0,2.5,0.5,3.4,1.3l-1.3,1.6c-0.7-0.5-1.4-0.8-2.1-0.8
				c-0.8,0-1.3,0.3-1.3,0.8c0,0.6,0.7,0.8,1.6,1.2l1.3,0.5c1.3,0.5,2.1,1.4,2.1,2.8c0,1.7-1.5,3.3-4,3.3
				C519.6,361.7,518.2,361.2,517.1,360.2z"/>
			<path class="st15" d="M526.2,356.3c0-3.5,2.3-5.5,5-5.5c1.4,0,2.4,0.6,3.2,1.4l-1.3,1.5c-0.5-0.5-1.1-0.7-1.8-0.7
				c-1.4,0-2.5,1.2-2.5,3.2c0,2.1,1,3.3,2.4,3.3c0.8,0,1.5-0.3,2-0.9l1.3,1.5c-0.9,1-2.1,1.5-3.4,1.5
				C528.5,361.7,526.2,359.9,526.2,356.3z"/>
			<path class="st15" d="M536,351.1h2.5v8.3h4v2.1H536V351.1z"/>
			<path class="st15" d="M544.4,351.1h2.5v4.1h0l3-4.1h2.7l-3.1,4.2l3.7,6.2h-2.7l-2.5-4.3l-1.1,1.5v2.7h-2.5V351.1z"/>
		</g>
		<g>
			<path class="st15" d="M494.1,390h2.2v-5.9h-1.9v-1.5c1.1-0.2,1.8-0.5,2.6-0.9h1.8v8.4h1.9v2h-6.6V390z"/>
			<path class="st15" d="M502.1,390.5c2.7-2.3,4.4-4.2,4.4-5.6c0-1-0.5-1.5-1.4-1.5c-0.7,0-1.3,0.5-1.8,1l-1.3-1.3
				c1-1.1,1.9-1.7,3.4-1.7c2,0,3.4,1.3,3.4,3.3c0,1.9-1.7,3.8-3.3,5.4c0.5,0,1.2-0.1,1.7-0.1h2.1v2.1h-7.2V390.5z"/>
			<path class="st15" d="M513.4,380.6h1.6l-3.1,13.9h-1.6L513.4,380.6z"/>
			<path class="st15" d="M516.6,381.6h2.7l1.6,4.5c0.2,0.6,0.4,1.2,0.6,1.9h0.1c0.2-0.7,0.4-1.3,0.6-1.9l1.6-4.5h2.7V392h-2.3v-3.6
				c0-1,0.2-2.8,0.3-3.8h-0.1l-0.9,2.7l-1.4,3.8h-1.4l-1.4-3.8l-0.8-2.7h-0.1c0.1,1,0.3,2.8,0.3,3.8v3.6h-2.2V381.6z"/>
			<path class="st15" d="M528.9,381.6h2.5V392h-2.5V381.6z"/>
			<path class="st15" d="M533.1,390.7l1.3-1.6c0.7,0.6,1.7,1,2.6,1c0.9,0,1.4-0.4,1.4-0.9c0-0.6-0.6-0.8-1.5-1.2l-1.3-0.6
				c-1.1-0.4-2.1-1.3-2.1-2.8c0-1.7,1.6-3.2,3.8-3.2c1.2,0,2.5,0.5,3.4,1.3l-1.3,1.6c-0.7-0.5-1.4-0.8-2.1-0.8
				c-0.8,0-1.3,0.3-1.3,0.8c0,0.6,0.7,0.8,1.6,1.2l1.3,0.5c1.3,0.5,2.1,1.4,2.1,2.8c0,1.7-1.5,3.3-4,3.3
				C535.6,392.2,534.2,391.7,533.1,390.7z"/>
			<path class="st15" d="M542.2,386.7c0-3.4,1.9-5.4,4.8-5.4s4.8,2,4.8,5.4s-1.9,5.4-4.8,5.4S542.2,390.2,542.2,386.7z M549.2,386.7
				c0-2-0.8-3.2-2.2-3.2c-1.4,0-2.2,1.2-2.2,3.2c0,2,0.9,3.3,2.2,3.3C548.4,390,549.2,388.8,549.2,386.7z"/>
		</g>
		<g>
			<path class="st15" d="M486.8,417.5c-0.4,0-0.8,0.4-1.1,0.9l-1.3-1c0.8-1.2,1.6-1.7,2.4-1.7c1.3,0,1.9,1.2,2.8,1.2
				c0.4,0,0.8-0.4,1.1-0.9l1.3,1c-0.8,1.2-1.6,1.7-2.4,1.7C488.2,418.7,487.7,417.5,486.8,417.5z"/>
			<path class="st15" d="M493.5,420.5h2.2v-5.9h-1.9V413c1.1-0.2,1.8-0.5,2.6-0.9h1.8v8.4h1.9v2h-6.6V420.5z"/>
			<path class="st15" d="M502,420.5h2.2v-5.9h-1.9V413c1.1-0.2,1.8-0.5,2.6-0.9h1.8v8.4h1.9v2H502V420.5z"/>
			<path class="st15" d="M512.8,411.1h1.6l-3.1,13.9h-1.6L512.8,411.1z"/>
			<path class="st15" d="M516.1,412.1h2.7l1.6,4.5c0.2,0.6,0.4,1.2,0.6,1.9h0.1c0.2-0.7,0.4-1.3,0.6-1.9l1.6-4.5h2.7v10.4h-2.3v-3.6
				c0-1,0.2-2.8,0.3-3.8h-0.1l-0.9,2.7l-1.4,3.8h-1.4l-1.4-3.8l-0.8-2.7H518c0.1,1,0.3,2.8,0.3,3.8v3.6h-2.2V412.1z"/>
			<path class="st15" d="M527.8,417.3c0-3.4,1.9-5.4,4.8-5.4s4.8,2,4.8,5.4s-1.9,5.4-4.8,5.4S527.8,420.7,527.8,417.3z M534.8,417.3
				c0-2-0.8-3.2-2.2-3.2c-1.4,0-2.2,1.2-2.2,3.2c0,2,0.9,3.3,2.2,3.3C534,420.6,534.8,419.3,534.8,417.3z"/>
			<path class="st15" d="M538.7,421.2l1.3-1.6c0.7,0.6,1.7,1,2.6,1c0.9,0,1.4-0.4,1.4-0.9c0-0.6-0.6-0.8-1.5-1.2l-1.3-0.6
				c-1.1-0.4-2.1-1.3-2.1-2.8c0-1.7,1.6-3.2,3.8-3.2c1.2,0,2.5,0.5,3.4,1.3l-1.3,1.6c-0.7-0.5-1.4-0.8-2.1-0.8
				c-0.8,0-1.3,0.3-1.3,0.8c0,0.6,0.7,0.8,1.6,1.2l1.3,0.5c1.3,0.5,2.1,1.4,2.1,2.8c0,1.7-1.5,3.3-4,3.3
				C541.1,422.7,539.7,422.2,538.7,421.2z"/>
			<path class="st15" d="M548.2,412.1h2.5v10.4h-2.5V412.1z"/>
		</g>
		<g>
			<path class="st15" d="M528.7,448c-0.4,0-0.8,0.4-1.1,0.9l-1.3-1c0.8-1.2,1.6-1.7,2.4-1.7c1.3,0,1.9,1.2,2.8,1.2
				c0.4,0,0.8-0.4,1.1-0.9l1.3,1c-0.8,1.2-1.6,1.7-2.4,1.7C530.1,449.2,529.6,448,528.7,448z"/>
			<path class="st15" d="M535.4,451h2.2v-5.9h-1.9v-1.5c1.1-0.2,1.8-0.5,2.6-0.9h1.8v8.4h1.9v2h-6.6V451z"/>
			<path class="st15" d="M543.4,447.8c0-3.6,1.5-5.4,3.7-5.4c2.2,0,3.7,1.8,3.7,5.4s-1.5,5.4-3.7,5.4
				C544.9,453.2,543.4,451.3,543.4,447.8z M548.4,447.8c0-2.8-0.6-3.5-1.3-3.5c-0.8,0-1.3,0.6-1.3,3.5c0,2.8,0.6,3.5,1.3,3.5
				C547.8,451.3,548.4,450.6,548.4,447.8z"/>
		</g>
		<g>
			<path class="st15" d="M536.6,478.5c-0.4,0-0.8,0.4-1.1,0.9l-1.3-1c0.8-1.2,1.6-1.7,2.4-1.7c1.3,0,1.9,1.2,2.8,1.2
				c0.4,0,0.8-0.4,1.1-0.9l1.3,1c-0.8,1.2-1.6,1.7-2.4,1.7C538,479.7,537.5,478.5,536.6,478.5z"/>
			<path class="st15" d="M542.9,482.5l1.3-1.5c0.3,0.4,1,0.7,1.6,0.7c1.1,0,1.9-0.8,2-3c-0.5,0.7-1.4,1-2,1c-1.7,0-3-1-3-3.3
				c0-2.2,1.6-3.5,3.4-3.5c2,0,3.9,1.5,3.9,5.3c0,3.8-2,5.5-4.1,5.5C544.6,483.7,543.6,483.1,542.9,482.5z M546.3,478
				c0.5,0,1.1-0.3,1.5-0.9c-0.2-1.8-0.8-2.3-1.5-2.3s-1.2,0.5-1.2,1.7C545.1,477.6,545.6,478,546.3,478z"/>
		</g>
		<g>
			<path class="st15" d="M542.4,511.5c0-1.3,0.7-2.1,1.7-2.6v-0.1c-0.8-0.6-1.4-1.4-1.4-2.5c0-1.7,1.4-2.8,3.3-2.8
				c1.9,0,3.1,1.1,3.1,2.8c0,1-0.6,1.8-1.3,2.3v0.1c1,0.5,1.8,1.4,1.8,2.8c0,1.6-1.5,2.8-3.6,2.8
				C543.9,514.2,542.4,513.1,542.4,511.5z M547.3,511.3c0-0.9-0.8-1.3-2.1-1.9c-0.4,0.4-0.7,1-0.7,1.7c0,0.9,0.7,1.4,1.5,1.4
				C546.7,512.5,547.3,512.2,547.3,511.3z M547.1,506.4c0-0.8-0.4-1.2-1.2-1.2c-0.6,0-1.1,0.4-1.1,1.1c0,0.8,0.6,1.3,1.7,1.7
				C546.9,507.4,547.1,506.9,547.1,506.4z"/>
		</g>
		<g>
			<path class="st15" d="M546.3,533.4h-4.5v-2.1h7.1v1.5c-2.4,2.9-2.7,4.8-2.8,8.9h-2.5C543.8,538.3,544.3,536.1,546.3,533.4z"/>
		</g>
		<g>
			<path class="st15" d="M534.9,567.2c-0.4,0-0.8,0.4-1.1,0.9l-1.3-1c0.8-1.2,1.6-1.7,2.4-1.7c1.3,0,1.9,1.2,2.8,1.2
				c0.4,0,0.8-0.4,1.1-0.9l1.3,1c-0.8,1.2-1.6,1.7-2.4,1.7C536.3,568.4,535.8,567.2,534.9,567.2z"/>
			<path class="st15" d="M541.2,567.1c0-3.8,2-5.5,4.1-5.5c1.4,0,2.4,0.6,3,1.2l-1.3,1.5c-0.4-0.4-1-0.7-1.6-0.7c-1.1,0-1.9,0.8-2,3
				c0.5-0.6,1.4-1,2-1c1.7,0,3,1,3,3.3c0,2.2-1.6,3.5-3.4,3.5C543.1,572.4,541.2,570.9,541.2,567.1z M543.5,568.3
				c0.2,1.7,0.9,2.2,1.5,2.2s1.2-0.5,1.2-1.7c0-1.1-0.6-1.5-1.3-1.5C544.4,567.4,543.9,567.6,543.5,568.3z"/>
		</g>
		<g>
			<path class="st15" d="M534.3,597.7c-0.4,0-0.8,0.4-1.1,0.9l-1.3-1c0.8-1.2,1.6-1.7,2.4-1.7c1.3,0,1.9,1.2,2.8,1.2
				c0.4,0,0.8-0.4,1.1-0.9l1.3,1c-0.8,1.2-1.6,1.7-2.4,1.7C535.7,598.9,535.2,597.7,534.3,597.7z"/>
			<path class="st15" d="M540.3,601.5l1.1-1.6c0.6,0.6,1.3,1,2.1,1c1,0,1.6-0.6,1.6-1.6s-0.6-1.6-1.5-1.6c-0.6,0-0.9,0.1-1.5,0.5
				l-1.1-0.7l0.3-5.2h5.8v2.1h-3.7l-0.1,1.8c0.4-0.1,0.7-0.2,1.1-0.2c1.8,0,3.2,1,3.2,3.3c0,2.4-1.8,3.7-3.8,3.7
				C542.3,602.9,541.1,602.3,540.3,601.5z"/>
		</g>
		<g>
			<path class="st15" d="M544.1,630.7h-4.4v-1.7l3.6-6.1h3.1v5.9h1.2v1.9h-1.2v2.6h-2.3V630.7z M544.1,628.8v-1.5
				c0-0.7,0-1.6,0.1-2.3h-0.1c-0.3,0.6-0.5,1.2-0.8,1.8l-1.2,2.1H544.1z"/>
		</g>
		<g>
			<path class="st15" d="M533.2,658.8c-0.4,0-0.8,0.4-1.1,0.9l-1.3-1c0.8-1.2,1.6-1.7,2.4-1.7c1.3,0,1.9,1.2,2.8,1.2
				c0.4,0,0.8-0.4,1.1-0.9l1.3,1c-0.8,1.2-1.6,1.7-2.4,1.7C534.6,660,534,658.8,533.2,658.8z"/>
			<path class="st15" d="M539.1,662.5l1.1-1.6c0.6,0.6,1.4,1,2.2,1c1,0,1.6-0.4,1.6-1.2c0-0.9-0.5-1.4-2.7-1.4v-1.8
				c1.8,0,2.3-0.5,2.3-1.4c0-0.7-0.4-1.1-1.2-1.1c-0.7,0-1.2,0.3-1.9,0.9l-1.2-1.5c0.9-0.8,2-1.3,3.2-1.3c2.2,0,3.6,1,3.6,2.9
				c0,1.1-0.6,1.8-1.7,2.3v0.1c1.2,0.3,2,1.2,2,2.5c0,2-1.8,3-3.8,3C541.1,664,539.9,663.4,539.1,662.5z"/>
		</g>
		<g>
			<path class="st15" d="M538.8,692.7c2.7-2.3,4.4-4.2,4.4-5.6c0-1-0.5-1.5-1.4-1.5c-0.7,0-1.3,0.5-1.8,1l-1.3-1.3
				c1-1.1,1.9-1.7,3.4-1.7c2,0,3.4,1.3,3.4,3.3c0,1.9-1.7,3.8-3.3,5.4c0.5,0,1.2-0.1,1.7-0.1h2.1v2.1h-7.2V692.7z"/>
		</g>
		<g>
			<path class="st15" d="M509.1,717.4h-2.8v-2.1h8.1v2.1h-2.8v8.3h-2.5V717.4z"/>
			<path class="st15" d="M517.5,720.3l-2.7-5.1h2.8l0.8,1.9c0.2,0.5,0.5,1,0.8,1.7h0.1c0.2-0.7,0.5-1.2,0.7-1.7l0.8-1.9h2.6
				l-2.7,5.2l2.9,5.2h-2.8l-1-2c-0.3-0.5-0.5-1.1-0.8-1.7h-0.1c-0.2,0.6-0.5,1.2-0.7,1.7l-0.9,2h-2.7L517.5,720.3z"/>
			<path class="st15" d="M537.4,720.4l-5,5c-0.4,0.4-1,0.4-1.4,0s-0.4-1,0-1.4l3.3-3.3h-9.6c-0.6,0-1-0.4-1-1s0.4-1,1-1h9.6
				l-3.3-3.3c-0.4-0.4-0.4-1,0-1.4s1-0.4,1.4,0l5,5C537.8,719.4,537.8,720,537.4,720.4L537.4,720.4z"/>
			<path class="st15" d="M538.7,723.7h2.2v-5.9h-1.9v-1.5c1.1-0.2,1.8-0.5,2.6-0.9h1.8v8.4h1.9v2h-6.6V723.7z"/>
		</g>
		<g>
			<path class="st15" d="M505.4,745.8h3.8c2.2,0,4.1,0.8,4.1,3.3c0,1.5-0.7,2.5-1.8,3l2.3,4.1H511l-1.9-3.7h-1.2v3.7h-2.5V745.8z
				 M509,750.6c1.2,0,1.8-0.5,1.8-1.5s-0.6-1.3-1.8-1.3h-1.1v2.8H509z"/>
			<path class="st15" d="M516.9,750.9l-2.7-5.1h2.8l0.8,1.9c0.2,0.5,0.5,1,0.8,1.7h0.1c0.2-0.7,0.5-1.2,0.7-1.7l0.8-1.9h2.6L520,751
				l2.9,5.2h-2.8l-1-2c-0.3-0.5-0.5-1.1-0.8-1.7h-0.1c-0.2,0.6-0.5,1.2-0.7,1.7l-0.9,2h-2.7L516.9,750.9z"/>
			<path class="st15" d="M523.4,749.5l5-5c0.4-0.4,1-0.4,1.4,0s0.4,1,0,1.4l-3.3,3.3h9.6c0.6,0,1,0.4,1,1s-0.4,1-1,1h-9.6l3.3,3.3
				c0.4,0.4,0.4,1,0,1.4s-1,0.4-1.4,0l-5-5C523,750.5,523,749.9,523.4,749.5L523.4,749.5z"/>
			<path class="st15" d="M537.7,751c0-3.6,1.5-5.4,3.7-5.4c2.2,0,3.7,1.8,3.7,5.4s-1.5,5.4-3.7,5.4
				C539.1,756.4,537.7,754.5,537.7,751z M542.7,751c0-2.8-0.6-3.5-1.3-3.5c-0.8,0-1.3,0.6-1.3,3.5c0,2.8,0.6,3.5,1.3,3.5
				C542.1,754.5,542.7,753.8,542.7,751z"/>
		</g>
	</g>
	<g>
		<rect x="396.3" y="331" class="st9" width="10.7" height="17.2"/>
		<rect x="396.3" y="333.5" class="st7" width="10.7" height="11.8"/>
	</g>
</g>
<g id="layer1-5">
	<path id="rect815" d="M759.9,40.5v63.8l-73.2,0.1V40.6h-29.3v64.1h0l0.2,263.8l131.7-0.2l-0.2-263.8h0.1V40.5H759.9z"/>
	<rect id="rect821" x="677.3" y="343.2" class="st15" width="92.2" height="23.4"/>
	<path id="rect825" class="st27" d="M682.1,344.5h13.8c2.4,0,4.3,1.9,4.3,4.3v12.1c0,2.4-1.9,4.3-4.3,4.3h-13.8
		c-2.4,0-4.3-1.9-4.3-4.3v-12.1C677.8,346.5,679.7,344.5,682.1,344.5z"/>
	<path id="rect872" class="st27" d="M728,344.5h13.8c2.4,0,4.3,1.9,4.3,4.3v12.1c0,2.4-1.9,4.3-4.3,4.3H728c-2.4,0-4.3-1.9-4.3-4.3
		v-12.1C723.6,346.4,725.6,344.5,728,344.5z"/>
	<path id="rect874" class="st27" d="M704.5,344.5h14.9c2.1,0,3.8,1.7,3.8,3.8v13.2c0,2.1-1.7,3.8-3.8,3.8h-14.9
		c-2.1,0-3.8-1.7-3.8-3.8v-13.2C700.7,346.2,702.4,344.5,704.5,344.5z"/>
	<rect id="rect947" x="687.7" y="355.8" class="st28" width="2.3" height="43.9"/>
	<rect id="rect949" x="710.8" y="355.8" class="st28" width="2.3" height="43.9"/>
	<rect id="rect951" x="733.6" y="355.8" class="st28" width="2.3" height="43.9"/>
	<rect id="rect87" x="676.1" y="265.1" width="93.9" height="23.6"/>
	<path id="path31-1-2" class="st15" d="M695,156.3c0.8,0,0.9,0,1.1-0.1c0.1-0.1,0.2-0.2,0.3-0.3c0.1-0.1,0.1-0.3,0.1-1.9l0-1.8
		l1.7,0l1.7,0l0,2.2c0,2.4,0,2.7-0.3,3.3c-0.3,0.8-1,1.4-1.8,1.5c-0.5,0.1-1.1,0.1-1.6,0.1c-0.7,0-1.5,0-1.7,0l-0.4,0l0-1.4l0-1.4
		L695,156.3L695,156.3z M711.6,161.2c14.9,0,18.5,0,17.9,0.1l-0.1,0l0.1,0c0.1,0,0.1,0-0.1,0.1c-0.1,0-0.1,0,0.1,0l0.3,0l-0.3,0
		c-0.2,0-0.3,0-0.2,0c0.1,0,0.1,0.1,0.1,0.4c0,0.4,0,0.4,0.1,0.4c0.1,0,0.1,0-0.1,0c-0.1,0-0.2,0-0.2,0.1c0,0-5.9,0.1-17.6,0.1
		l-17.6,0l0-0.6l0-0.6L711.6,161.2z M698.2,147.6l1.8,0l0,1.4l0,1.4l-1.8,0l-1.8,0l0-1.4l0-1.4L698.2,147.6z M701.7,152.9
		c0.1-0.7,0.3-1.5,0.7-2.2c0.1-0.2,0.2-0.3,0.2-0.4c0.1-0.1,0.1-0.2,0.2-0.3c0.2-0.3,0.4-0.6,0.7-0.9c0,0,0.1,0,0.1-0.1
		c0.2-0.3,0.5-0.5,0.8-0.7c0.4-0.3,0.8-0.5,1.3-0.6c0.7-0.3,1.4-0.4,2.1-0.3c0.4,0,0.8,0,1.2,0.2c0.3,0.1,0.6,0.2,0.7,0.2
		c0.1,0,0.2,0.1,0.3,0.1c0.2,0.1,0.3,0.1,0.4,0.2c1,0.7,1.9,1.6,2.4,2.8c0.7,1.4,0.8,3,0.3,4.5c-0.2,0.5-0.4,0.9-0.6,1.3
		c-0.3,0.5-0.6,0.9-1,1.2c-0.7,0.7-1.5,1.2-2.5,1.5c-0.7,0.2-1.5,0.2-2.2,0.1c-0.9-0.2-1.7-0.5-2.4-1c-0.3-0.2-0.5-0.4-0.8-0.7
		c-0.1-0.1-0.2-0.2-0.2-0.3c-0.7-0.8-1.3-1.9-1.5-2.9C701.7,154,701.7,153.5,701.7,152.9L701.7,152.9z M705.1,154.4
		c0.2,0.7,0.5,1.3,1,1.7c0.6,0.5,1.4,0.7,2.1,0.5c0.9-0.4,1.6-1.2,1.8-2.2c0.1-0.6,0.1-1.3,0-2c-0.2-0.7-0.6-1.4-1.2-1.8
		c-0.2-0.2-0.4-0.3-0.7-0.3c-0.5-0.1-1.1-0.1-1.6,0.2c-0.5,0.3-0.9,0.7-1.1,1.3C704.9,152.6,704.8,153.5,705.1,154.4L705.1,154.4z
		 M714.9,147.6c0,0,0.8,0,1.8,0l1.7,0l0,1.6c0,1.5,0,1.6,0.1,1.8c0.3,0.7,1.1,1,1.8,0.8c0.3-0.1,0.6-0.3,0.8-0.7l0.2-0.3l0-1.6
		l0-1.6l1.8,0l1.8,0l0,1.8c0.1,0.7,0,1.5-0.1,2.2c-0.2,0.7-0.5,1.3-0.9,1.8c-0.1,0.1-0.1,0.2-0.2,0.3c-0.2,0.3-0.5,0.5-0.8,0.8
		c-0.3,0.2-0.7,0.4-1,0.5c-0.1,0-0.3,0.1-0.5,0.2c-0.4,0.1-0.8,0.2-1.3,0.1c-0.4,0-0.9,0-1.3-0.1c-0.5-0.1-1-0.3-1.4-0.6
		c-0.5-0.3-1-0.8-1.3-1.3c-0.5-0.7-0.8-1.4-0.9-2.2C714.8,149.9,714.8,148.8,714.9,147.6L714.9,147.6z M719.8,156.3l2.9,0l0,1.5
		l0,1.5l-2.9,0l-2.9,0l0-1.5l0-1.5L719.8,156.3z M724.7,145.4c0,0,0-0.1,0-0.2c0-0.2,0-0.2,0.2-0.2c0.1,0,5,0,10.8,0l10.6,0l0,0.6
		l0,0.6l-10.8,0c-5.9,0-10.8,0-10.8,0c-0.1,0-0.1-0.1-0.1-0.4C724.7,145.5,724.7,145.4,724.7,145.4L724.7,145.4z M729.6,152.4l3.7,0
		l0,1.5l0,1.5l-3.7,0l-3.7,0l0-1.5l0-1.5L729.6,152.4z M736.1,147.6l1.8,0l0,1.4l0,1.4l-1.8,0l-1.8,0l0-1.4l0-1.4L736.1,147.6z
		 M736.1,152l1.8,0l0,3.7l0,3.7l-1.8,0l-1.8,0l0-3.7l0-3.7L736.1,152z M743.1,147.6l3.7,0l0,1.4l0,1.4l-3.7,0l-3.7,0l0-1.4l0-1.4
		L743.1,147.6z M740.1,152.2c0,0,0.8,0,1.7,0l1.7,0l0,1.7c0,2.4-0.1,2.2,1.7,2.3l1.1,0l0,1.5l0,1.5l-0.4,0.1c-1.1,0.1-2.1,0.1-3.2,0
		c-0.7-0.1-1.4-0.4-1.9-0.9c-0.4-0.5-0.7-1.2-0.7-1.8C740,155.9,740,152.2,740.1,152.2L740.1,152.2z M748.9,146.2
		c0.1-0.3,0.2-0.6,0.5-0.8c0.7-0.7,1.8-0.8,2.5-0.2c0.3,0.2,0.5,0.4,0.6,0.7c0.1,0.2,0.2,0.5,0.1,0.8c0,0.3,0,0.5-0.1,0.8
		c-0.3,0.6-0.9,1-1.6,1.1c-0.6,0.1-1.2-0.2-1.6-0.6C748.9,147.5,748.7,146.8,748.9,146.2L748.9,146.2z M749.2,147.4
		c0.2,0.4,0.7,0.8,1.2,0.9c0.5,0.1,1.1,0,1.5-0.4c0.2-0.1,0.3-0.3,0.4-0.5c0.1-0.2,0.2-0.5,0.2-0.7c0-0.3,0-0.5-0.2-0.7
		c-0.1-0.2-0.3-0.4-0.5-0.5c-0.2-0.1-0.3-0.2-0.5-0.3c-0.8-0.3-1.7,0.2-2.1,0.9C749,146.5,749.1,147,749.2,147.4L749.2,147.4z
		 M750.5,145.6c0.3,0,0.5,0,0.8,0c0.3,0.2,0.4,0.6,0.2,0.9c-0.1,0.1-0.2,0.1-0.3,0.2l-0.2,0.1l0.2,0.2c0.1,0.1,0.2,0.3,0.3,0.4
		c0.1,0.1,0.1,0.2,0.2,0.3c0.1,0.1,0,0.1-0.2,0.1l-0.2,0l-0.3-0.4c-0.3-0.5-0.4-0.5-0.7-0.5l-0.2,0l0,0.5l0,0.5l-0.1,0l-0.1,0l0-1.1
		l0-1.1L750.5,145.6z M750.6,146.5c0.4,0,0.4,0,0.5-0.1c0.3-0.2,0.1-0.5-0.3-0.6c-0.2,0-0.5,0-0.7,0c0,0.1,0,0.2,0,0.3l0,0.3
		L750.6,146.5z"/>
	<path id="rect64" class="st27" d="M750.7,344.5h13.8c2.4,0,4.3,1.9,4.3,4.3v12.1c0,2.4-1.9,4.3-4.3,4.3h-13.8
		c-2.4,0-4.3-1.9-4.3-4.3v-12.1C746.4,346.4,748.3,344.5,750.7,344.5z"/>
	<rect id="rect66" x="756.4" y="355.8" class="st28" width="2.3" height="43.9"/>
	<circle id="path107" class="st29" cx="723.3" cy="296.1" r="32.2"/>
	<circle id="path133" class="st15" cx="723.3" cy="296.1" r="26.4"/>
	<rect id="rect137" x="657.5" y="172.8" class="st15" width="49.8" height="87.8"/>
	<rect id="rect141" x="657.5" y="174.6" width="46.8" height="84.3"/>
	<rect id="rect139" x="658.9" y="174.3" class="st30" width="46.8" height="84.9"/>
	<circle id="path144" class="st31" cx="666.3" cy="251.9" r="7.3"/>
	<rect id="rect952" x="658.9" y="250.7" class="st32" width="14.6" height="2.3"/>
	<rect id="rect956" x="725.4" y="187.5" class="st15" width="63.8" height="49.8"/>
	<rect id="rect958" x="726.9" y="188.9" width="60.9" height="46.8"/>
	<rect id="rect960" x="736.8" y="191.9" class="st23" width="41" height="41"/>
	<rect id="rect962" x="736.8" y="232.9" class="st29" width="7.3" height="11.7"/>
	<rect id="rect964" x="770.5" y="232.9" class="st29" width="7.3" height="11.7"/>
	<rect id="rect966" x="747.1" y="232.9" class="st29" width="7.3" height="11.7"/>
	<rect id="rect968" x="760.2" y="232.9" class="st29" width="7.3" height="11.7"/>
	<rect id="rect970" x="736.8" y="180.2" class="st29" width="7.3" height="11.7"/>
	<rect id="rect972" x="770.5" y="180.2" class="st29" width="7.3" height="11.7"/>
	<rect id="rect974" x="747.1" y="180.2" class="st29" width="7.3" height="11.7"/>
	<rect id="rect976" x="760.2" y="180.2" class="st29" width="7.3" height="11.7"/>
	<polygon id="rect978" class="st28" points="739.3,231.4 741.6,231.4 741.7,238.7 739.3,238.7 	"/>
	<polygon id="rect980" class="st28" points="749.5,231.4 751.9,231.4 751.9,238.7 749.6,238.7 	"/>
	<polygon id="rect982" class="st28" points="762.7,231.4 765,231.4 765.1,238.7 762.8,238.7 	"/>
	<polygon id="rect984" class="st28" points="773,231.4 775.3,231.4 775.3,238.7 773,238.7 	"/>
	<polygon id="rect986" class="st28" points="739.3,193.3 741.6,193.3 741.7,186 739.3,186 	"/>
	<polygon id="rect988" class="st28" points="749.5,193.3 751.9,193.3 751.9,186 749.6,186 	"/>
	<polygon id="rect990" class="st28" points="762.7,193.3 765,193.3 765.1,186 762.8,186 	"/>
	<polygon id="rect992" class="st28" points="773,193.3 775.3,193.3 775.3,186 773,186 	"/>
	<circle id="path994" class="st29" cx="774.6" cy="68.9" r="10.2"/>
	<circle id="circle996" class="st29" cx="672.1" cy="68.9" r="10.2"/>
	<path id="rect836-7" class="st29" d="M710.1,108.4h4.4c4.4,0,8.1,3.6,8.1,8.1l0,0c0,4.4-3.6,8.1-8.1,8.1h-4.4
		c-4.4,0-8.1-3.6-8.1-8.1l0,0C702,112,705.6,108.4,710.1,108.4z"/>
	<path id="rect836-6" class="st29" d="M732,108.4h4.4c4.4,0,8.1,3.6,8.1,8.1l0,0c0,4.4-3.6,8.1-8.1,8.1H732c-4.4,0-8.1-3.6-8.1-8.1
		l0,0C724,112,727.6,108.4,732,108.4z"/>
	
		<rect id="rect943" x="749.6" y="108.4" transform="matrix(1 -8.295629e-03 8.295629e-03 1 -0.9584 6.2852)" class="st29" width="15.2" height="20.5"/>
	<path id="rect1026" class="st29" d="M687,108.3h8.2c1.9,0,3.5,1.6,3.5,3.5v15c0,1.9-1.6,3.5-3.5,3.5H687c-1.9,0-3.5-1.6-3.5-3.5
		v-15C683.5,109.8,685,108.3,687,108.3z"/>
	<circle id="path1028" class="st15" cx="691.1" cy="122.9" r="4.4"/>
	<path id="rect1030" class="st29" d="M682.2,116.2l0.1,4.4c0.1,4.4-3.5,8.1-7.9,8.1l0,0c-4.4,0.1-8.1-3.5-8.1-7.9c0,0,0,0,0,0
		l-0.1-4.4c-0.1-4.4,3.5-8.1,7.9-8.1l0,0C678.6,108.2,682.2,111.8,682.2,116.2C682.2,116.2,682.2,116.2,682.2,116.2z"/>
	<circle id="circle105" class="st15" cx="674.2" cy="118.5" r="5.9"/>
	<circle id="path138-6" class="st15" cx="672.1" cy="68.9" r="8.8"/>
	<circle id="circle140-6" class="st15" cx="774.6" cy="68.9" r="8.8"/>
	<circle id="circle147-7" class="st15" cx="757.2" cy="118.5" r="5.9"/>
	<rect id="rect142-7" x="711.3" y="87" class="st28" width="2.3" height="30.4"/>
	<rect id="rect144-6" x="733.2" y="87.4" class="st28" width="2.3" height="30"/>
	<rect id="rect101" x="691.3" y="66.8" class="st33" width="64.4" height="21.8"/>
	<rect id="rect105" x="692.8" y="63.8" width="61.5" height="2.9"/>
	<g id="text112">
		<g class="st34">
			<path class="st15" d="M784.7,153.2c0,0,0.1,0,0.1,0c0,0,0.1,0.1,0.1,0.1s0,0.1,0.1,0.2c0,0.1,0,0.2,0,0.4c0,0.2,0,0.4,0,0.5
				c0,0.1-0.1,0.2-0.1,0.3c0,0.1-0.1,0.1-0.2,0.2l-5.9,4.3h5.9c0,0,0.1,0,0.1,0c0,0,0.1,0.1,0.1,0.1s0,0.1,0.1,0.2
				c0,0.1,0,0.2,0,0.4c0,0.1,0,0.3,0,0.4c0,0.1,0,0.2-0.1,0.2s-0.1,0.1-0.1,0.1c0,0-0.1,0-0.1,0h-11.3c0,0-0.1,0-0.1,0
				c0,0-0.1-0.1-0.1-0.1c0-0.1,0-0.1-0.1-0.2c0-0.1,0-0.2,0-0.4c0-0.2,0-0.3,0-0.4c0-0.1,0-0.2,0.1-0.2c0-0.1,0.1-0.1,0.1-0.1
				c0,0,0.1,0,0.1,0h5.2l-5.2-4.2c-0.1,0-0.1-0.1-0.1-0.1c0,0-0.1-0.1-0.1-0.2c0-0.1,0-0.2,0-0.3c0-0.1,0-0.2,0-0.4
				c0-0.2,0-0.3,0-0.4c0-0.1,0-0.2,0.1-0.2s0.1-0.1,0.1-0.1c0,0,0.1,0,0.1,0c0.1,0,0.2,0,0.2,0.1c0.1,0,0.2,0.1,0.3,0.2l4.7,3.9
				l5.6-4.2c0.2-0.1,0.3-0.2,0.3-0.2C784.6,153.2,784.7,153.2,784.7,153.2z"/>
		</g>
		<g class="st34">
			<path class="st15" d="M780.4,147.5h4.3c0,0,0.1,0,0.1,0c0,0,0.1,0.1,0.1,0.1s0,0.1,0.1,0.2c0,0.1,0,0.2,0,0.4c0,0.2,0,0.3,0,0.4
				c0,0.1,0,0.2-0.1,0.2c0,0.1,0,0.1-0.1,0.1c0,0-0.1,0-0.1,0h-4.3l-6.6,3.3c-0.1,0.1-0.2,0.1-0.3,0.1c-0.1,0-0.1,0-0.2,0
				c0,0-0.1-0.1-0.1-0.2c0-0.1,0-0.3,0-0.5c0-0.2,0-0.3,0-0.4c0-0.1,0-0.2,0-0.3c0-0.1,0.1-0.1,0.1-0.1c0,0,0.1-0.1,0.2-0.1l3.4-1.6
				c0.3-0.2,0.7-0.3,1-0.5c0.4-0.2,0.7-0.3,1.1-0.5v0c-0.3-0.1-0.7-0.3-1-0.4s-0.7-0.3-1-0.4l-3.4-1.6c-0.1,0-0.1,0-0.2-0.1
				c0,0-0.1-0.1-0.1-0.1c0-0.1,0-0.1,0-0.2c0-0.1,0-0.2,0-0.4c0-0.2,0-0.4,0-0.5c0-0.1,0-0.2,0.1-0.3s0.1-0.1,0.2,0s0.2,0.1,0.3,0.1
				L780.4,147.5z"/>
		</g>
		<g class="st34">
			<path class="st15" d="M780.4,139.7c0.2,0,0.4,0,0.5,0.1c0.1,0.1,0.1,0.1,0.1,0.2v3.8c0,0.1,0,0.2-0.1,0.2
				c-0.1,0.1-0.3,0.1-0.5,0.1c-0.2,0-0.4,0-0.5-0.1c-0.1-0.1-0.1-0.1-0.1-0.2v-3.8c0,0,0-0.1,0-0.1c0,0,0.1-0.1,0.1-0.1
				c0.1,0,0.1,0,0.2-0.1C780.1,139.7,780.2,139.7,780.4,139.7z"/>
			<path class="st15" d="M779,130.3c0.9,0,1.7,0.1,2.5,0.2c0.7,0.1,1.4,0.4,1.9,0.7c0.5,0.3,1,0.8,1.2,1.3c0.3,0.5,0.4,1.2,0.4,2
				c0,0.7-0.1,1.4-0.4,1.9c-0.3,0.5-0.7,0.9-1.2,1.2c-0.5,0.3-1.1,0.5-1.9,0.7c-0.7,0.1-1.6,0.2-2.6,0.2c-0.9,0-1.7-0.1-2.5-0.2
				c-0.7-0.1-1.4-0.4-1.9-0.7c-0.5-0.3-1-0.8-1.2-1.3c-0.3-0.5-0.4-1.2-0.4-2c0-0.7,0.1-1.4,0.4-1.9c0.3-0.5,0.7-0.9,1.2-1.2
				c0.5-0.3,1.1-0.5,1.9-0.7C777.2,130.4,778.1,130.3,779,130.3z M779.2,131.9c-0.6,0-1.1,0-1.6,0.1c-0.5,0-0.9,0.1-1.2,0.2
				c-0.4,0.1-0.7,0.2-0.9,0.3c-0.3,0.1-0.5,0.3-0.6,0.5c-0.2,0.2-0.3,0.4-0.4,0.6c-0.1,0.2-0.1,0.5-0.1,0.8c0,0.5,0.1,0.9,0.4,1.3
				s0.6,0.6,1,0.8c0.4,0.2,0.9,0.3,1.5,0.4c0.6,0.1,1.2,0.1,1.8,0.1c0.9,0,1.6,0,2.2-0.1s1.1-0.2,1.5-0.4c0.4-0.2,0.7-0.4,0.8-0.8
				c0.2-0.3,0.3-0.7,0.3-1.1c0-0.3-0.1-0.6-0.2-0.9c-0.1-0.3-0.3-0.5-0.5-0.7c-0.2-0.2-0.4-0.3-0.7-0.5c-0.3-0.1-0.6-0.2-0.9-0.3
				c-0.3-0.1-0.7-0.1-1.1-0.2S779.6,131.9,779.2,131.9z"/>
			<path class="st15" d="M781.6,121.4c0.5,0,1,0.1,1.5,0.3c0.4,0.2,0.8,0.5,1.1,0.8s0.5,0.8,0.7,1.3c0.2,0.5,0.2,1.1,0.2,1.7
				c0,0.4,0,0.8-0.1,1.1s-0.1,0.6-0.2,0.9s-0.2,0.5-0.3,0.7c-0.1,0.2-0.2,0.3-0.2,0.3c0,0-0.1,0.1-0.1,0.1c0,0-0.1,0-0.2,0.1
				c-0.1,0-0.1,0-0.2,0c-0.1,0-0.2,0-0.3,0c-0.2,0-0.4,0-0.5-0.1c-0.1,0-0.1-0.1-0.1-0.2c0-0.1,0-0.2,0.1-0.3
				c0.1-0.2,0.2-0.4,0.3-0.6c0.1-0.3,0.2-0.6,0.3-0.9s0.1-0.7,0.1-1.2c0-0.4-0.1-0.8-0.2-1.1c-0.1-0.3-0.2-0.6-0.4-0.8
				c-0.2-0.2-0.4-0.4-0.7-0.5c-0.3-0.1-0.5-0.2-0.8-0.2c-0.3,0-0.6,0.1-0.9,0.2s-0.5,0.3-0.7,0.6c-0.2,0.3-0.3,0.6-0.4,1
				s-0.2,0.8-0.2,1.3v1.2c0,0,0,0.1,0,0.1c0,0-0.1,0.1-0.1,0.1c0,0-0.1,0.1-0.2,0.1c-0.1,0-0.2,0-0.3,0c-0.1,0-0.2,0-0.3,0
				c-0.1,0-0.1,0-0.2-0.1c0,0-0.1-0.1-0.1-0.1c0,0,0-0.1,0-0.1v-1c0-0.4-0.1-0.8-0.2-1.1c-0.1-0.3-0.3-0.6-0.4-0.8
				c-0.2-0.2-0.4-0.4-0.7-0.5s-0.6-0.2-0.9-0.2c-0.2,0-0.5,0-0.7,0.1c-0.2,0.1-0.4,0.2-0.6,0.4c-0.2,0.2-0.3,0.4-0.4,0.6
				c-0.1,0.2-0.1,0.5-0.1,0.8c0,0.4,0.1,0.7,0.2,1c0.1,0.3,0.2,0.6,0.3,0.8c0.1,0.2,0.2,0.4,0.3,0.6c0.1,0.2,0.2,0.3,0.2,0.3
				c0,0,0,0.1,0,0.1c0,0,0,0.1-0.1,0.1c0,0-0.1,0-0.2,0c-0.1,0-0.2,0-0.3,0c-0.1,0-0.2,0-0.2,0c-0.1,0-0.1,0-0.2,0
				c-0.1,0-0.1,0-0.1-0.1c0,0-0.1-0.1-0.1-0.1s-0.1-0.2-0.2-0.3c-0.1-0.2-0.2-0.4-0.3-0.6c-0.1-0.3-0.2-0.6-0.3-0.9
				c-0.1-0.3-0.1-0.7-0.1-1.1c0-0.5,0.1-1,0.2-1.4c0.1-0.4,0.3-0.8,0.6-1c0.3-0.3,0.6-0.5,0.9-0.6c0.4-0.1,0.7-0.2,1.2-0.2
				c0.4,0,0.7,0,1,0.1c0.3,0.1,0.6,0.2,0.8,0.4s0.5,0.4,0.6,0.7c0.2,0.3,0.3,0.6,0.4,0.9h0c0-0.4,0.1-0.8,0.3-1.1s0.4-0.6,0.6-0.9
				s0.5-0.4,0.8-0.6C780.9,121.5,781.2,121.4,781.6,121.4z"/>
			<path class="st15" d="M781.9,111.6c0.5,0,1,0.1,1.4,0.3c0.4,0.2,0.7,0.4,1,0.8s0.5,0.8,0.6,1.3c0.1,0.5,0.2,1.1,0.2,1.7
				c0,0.6-0.1,1.1-0.2,1.6c-0.1,0.5-0.3,0.9-0.6,1.2c-0.2,0.3-0.6,0.6-0.9,0.8s-0.8,0.3-1.2,0.3c-0.4,0-0.7-0.1-1-0.2
				c-0.3-0.1-0.6-0.3-0.9-0.5c-0.3-0.2-0.5-0.5-0.7-0.8c-0.2-0.3-0.4-0.7-0.6-1.1c-0.2,0.4-0.4,0.7-0.6,1s-0.4,0.5-0.7,0.7
				c-0.2,0.2-0.5,0.3-0.8,0.4c-0.3,0.1-0.6,0.1-0.9,0.1c-0.4,0-0.8-0.1-1.2-0.2c-0.4-0.1-0.7-0.4-0.9-0.7c-0.3-0.3-0.5-0.7-0.6-1.1
				c-0.2-0.5-0.2-1-0.2-1.6c0-0.6,0.1-1.1,0.2-1.5c0.1-0.4,0.3-0.8,0.6-1.1c0.2-0.3,0.5-0.5,0.9-0.6c0.3-0.1,0.7-0.2,1.1-0.2
				c0.3,0,0.6,0,0.9,0.2c0.3,0.1,0.6,0.2,0.8,0.4c0.3,0.2,0.5,0.4,0.7,0.7c0.2,0.3,0.4,0.6,0.6,1c0.2-0.4,0.4-0.8,0.7-1.1
				c0.2-0.3,0.5-0.6,0.7-0.8c0.3-0.2,0.5-0.4,0.8-0.5C781.3,111.7,781.6,111.6,781.9,111.6z M775.9,113.6c-0.3,0-0.5,0-0.7,0.1
				c-0.2,0.1-0.4,0.2-0.5,0.4c-0.1,0.2-0.3,0.4-0.3,0.6c-0.1,0.3-0.1,0.5-0.1,0.9c0,0.7,0.1,1.1,0.4,1.5c0.3,0.3,0.7,0.5,1.2,0.5
				c0.2,0,0.5,0,0.7-0.1c0.2-0.1,0.4-0.2,0.6-0.4c0.2-0.2,0.4-0.4,0.5-0.7c0.2-0.3,0.4-0.6,0.5-0.9c-0.3-0.6-0.7-1.1-1-1.4
				C776.8,113.7,776.4,113.6,775.9,113.6z M782.1,113.2c-0.3,0-0.5,0.1-0.8,0.2c-0.2,0.1-0.4,0.3-0.6,0.5c-0.2,0.2-0.4,0.5-0.6,0.8
				c-0.2,0.3-0.4,0.7-0.6,1.1c0.2,0.4,0.4,0.7,0.6,1c0.2,0.3,0.4,0.5,0.6,0.7c0.2,0.2,0.4,0.3,0.6,0.4c0.2,0.1,0.5,0.1,0.7,0.1
				c0.6,0,1-0.2,1.4-0.6c0.3-0.4,0.5-1,0.5-1.8c0-0.8-0.2-1.4-0.5-1.8C783.1,113.4,782.7,113.2,782.1,113.2z"/>
		</g>
	</g>
	<g id="text116">
		<g class="st34">
			<path class="st15" d="M689.1,341c0,0.1,0.1,0.2,0.1,0.3s0,0.1-0.1,0.2c0,0-0.1,0.1-0.2,0.1c-0.1,0-0.3,0-0.4,0s-0.3,0-0.4,0
				c-0.1,0-0.2,0-0.3,0c-0.1,0-0.1,0-0.1-0.1s-0.1-0.1-0.1-0.1l-1-2.9h-4.9l-1,2.8c0,0.1,0,0.1-0.1,0.1c0,0-0.1,0.1-0.1,0.1
				c-0.1,0-0.1,0-0.2,0.1c-0.1,0-0.2,0-0.4,0c-0.2,0-0.3,0-0.4,0c-0.1,0-0.2,0-0.2-0.1c0,0-0.1-0.1-0.1-0.2c0-0.1,0-0.2,0.1-0.3
				l3.9-10.9c0-0.1,0.1-0.1,0.1-0.2c0,0,0.1-0.1,0.2-0.1c0.1,0,0.2,0,0.3-0.1c0.1,0,0.3,0,0.5,0c0.2,0,0.4,0,0.5,0
				c0.1,0,0.2,0,0.3,0.1c0.1,0,0.1,0.1,0.2,0.1c0,0,0.1,0.1,0.1,0.2L689.1,341z M684.1,331.4L684.1,331.4l-2,5.9h4.1L684.1,331.4z"
				/>
			<path class="st15" d="M698.3,335.7c0,0.9-0.1,1.7-0.2,2.5c-0.1,0.7-0.4,1.4-0.7,1.9c-0.3,0.5-0.8,1-1.3,1.2
				c-0.5,0.3-1.2,0.4-2,0.4c-0.7,0-1.4-0.1-1.9-0.4c-0.5-0.3-0.9-0.7-1.2-1.2c-0.3-0.5-0.5-1.1-0.7-1.9c-0.1-0.7-0.2-1.6-0.2-2.6
				c0-0.9,0.1-1.7,0.2-2.5c0.1-0.7,0.4-1.4,0.7-1.9c0.3-0.5,0.8-1,1.3-1.2c0.5-0.3,1.2-0.4,2-0.4c0.7,0,1.4,0.1,1.9,0.4
				c0.5,0.3,0.9,0.7,1.2,1.2c0.3,0.5,0.5,1.1,0.7,1.9C698.2,333.9,698.3,334.7,698.3,335.7z M696.7,335.8c0-0.6,0-1.1-0.1-1.6
				s-0.1-0.9-0.2-1.2c-0.1-0.4-0.2-0.7-0.3-0.9s-0.3-0.5-0.5-0.6c-0.2-0.2-0.4-0.3-0.6-0.4c-0.2-0.1-0.5-0.1-0.8-0.1
				c-0.5,0-0.9,0.1-1.3,0.4c-0.3,0.2-0.6,0.6-0.8,1c-0.2,0.4-0.3,0.9-0.4,1.5c-0.1,0.6-0.1,1.2-0.1,1.8c0,0.9,0,1.6,0.1,2.2
				s0.2,1.1,0.4,1.5c0.2,0.4,0.4,0.7,0.8,0.8c0.3,0.2,0.7,0.3,1.1,0.3c0.3,0,0.6-0.1,0.9-0.2c0.3-0.1,0.5-0.3,0.7-0.5
				s0.3-0.4,0.5-0.7c0.1-0.3,0.2-0.6,0.3-0.9c0.1-0.3,0.1-0.7,0.1-1.1S696.7,336.2,696.7,335.8z"/>
		</g>
	</g>
	<g id="text120">
		<g class="st34">
			<path class="st15" d="M716.2,331.5c0,0.1,0,0.2,0,0.3c0,0.1,0,0.2-0.1,0.2c0,0.1-0.1,0.1-0.1,0.1c0,0-0.1,0-0.1,0
				c-0.1,0-0.2-0.1-0.4-0.2c-0.2-0.1-0.4-0.2-0.7-0.4c-0.3-0.1-0.6-0.3-1-0.4s-0.9-0.2-1.4-0.2c-0.6,0-1.2,0.1-1.7,0.4
				c-0.5,0.2-1,0.6-1.3,1c-0.4,0.4-0.6,0.9-0.8,1.5c-0.2,0.6-0.3,1.2-0.3,1.9c0,0.8,0.1,1.4,0.3,2c0.2,0.6,0.5,1.1,0.9,1.5
				s0.8,0.7,1.3,0.9c0.5,0.2,1.1,0.3,1.7,0.3c0.4,0,0.7,0,1.1-0.1s0.7-0.2,1-0.4v-3.4h-2.7c-0.1,0-0.2-0.1-0.2-0.2
				c-0.1-0.1-0.1-0.3-0.1-0.5c0-0.1,0-0.2,0-0.3c0-0.1,0-0.1,0.1-0.2s0.1-0.1,0.1-0.1c0,0,0.1,0,0.1,0h3.7c0.1,0,0.1,0,0.2,0
				c0.1,0,0.1,0.1,0.2,0.1c0.1,0,0.1,0.1,0.1,0.2s0,0.2,0,0.3v4.5c0,0.2,0,0.3-0.1,0.4c-0.1,0.1-0.2,0.2-0.3,0.3s-0.4,0.2-0.7,0.3
				c-0.3,0.1-0.6,0.2-0.9,0.3c-0.3,0.1-0.6,0.1-0.9,0.2c-0.3,0-0.6,0.1-0.9,0.1c-0.9,0-1.7-0.1-2.4-0.4c-0.7-0.3-1.3-0.7-1.8-1.2
				s-0.9-1.1-1.1-1.9c-0.3-0.7-0.4-1.5-0.4-2.4c0-0.9,0.1-1.8,0.4-2.5c0.3-0.8,0.7-1.4,1.2-1.9c0.5-0.5,1.1-0.9,1.8-1.2
				c0.7-0.3,1.5-0.4,2.4-0.4c0.4,0,0.9,0,1.3,0.1c0.4,0.1,0.7,0.2,1,0.3s0.6,0.2,0.8,0.3c0.2,0.1,0.4,0.2,0.4,0.3
				c0.1,0.1,0.1,0.2,0.2,0.3C716.2,331.1,716.2,331.3,716.2,331.5z"/>
		</g>
	</g>
	<g id="text124">
		<g class="st34">
			<path class="st15" d="M738.3,337.5c0,0.1,0,0.2,0,0.3c0,0.1,0,0.1-0.1,0.2s-0.1,0.1-0.1,0.1c0,0-0.1,0-0.1,0h-3v3.3
				c0,0,0,0.1,0,0.1s-0.1,0.1-0.1,0.1c-0.1,0-0.1,0-0.2,0.1c-0.1,0-0.2,0-0.3,0c-0.1,0-0.2,0-0.3,0c-0.1,0-0.2,0-0.2-0.1
				c-0.1,0-0.1-0.1-0.1-0.1c0,0,0-0.1,0-0.1v-3.3h-3c-0.1,0-0.1,0-0.1,0c0,0-0.1-0.1-0.1-0.1s-0.1-0.1-0.1-0.2c0-0.1,0-0.2,0-0.3
				c0-0.1,0-0.2,0-0.3c0-0.1,0-0.2,0.1-0.2c0-0.1,0.1-0.1,0.1-0.1s0.1,0,0.1,0h3v-3.3c0,0,0-0.1,0-0.1c0,0,0.1-0.1,0.1-0.1
				c0.1,0,0.1,0,0.2-0.1c0.1,0,0.2,0,0.3,0c0.1,0,0.2,0,0.3,0c0.1,0,0.2,0,0.2,0.1c0.1,0,0.1,0.1,0.1,0.1s0,0.1,0,0.1v3.3h3
				c0,0,0.1,0,0.1,0c0,0,0.1,0.1,0.1,0.1c0,0.1,0.1,0.1,0.1,0.2C738.3,337.3,738.3,337.4,738.3,337.5z"/>
		</g>
	</g>
	<g id="text128">
		<g class="st34">
			<path class="st15" d="M756.7,335.6c0,1-0.1,1.9-0.4,2.7c-0.3,0.8-0.6,1.4-1.1,1.9c-0.5,0.5-1.1,0.9-1.8,1.1s-1.6,0.4-2.6,0.4
				h-2.5c-0.1,0-0.3,0-0.4-0.1s-0.2-0.3-0.2-0.5v-10.5c0-0.2,0.1-0.4,0.2-0.5s0.3-0.1,0.4-0.1h2.7c1,0,1.9,0.1,2.6,0.4
				s1.3,0.6,1.8,1.1c0.5,0.5,0.8,1.1,1.1,1.8S756.7,334.7,756.7,335.6z M755.1,335.6c0-0.6-0.1-1.2-0.2-1.8s-0.4-1-0.7-1.4
				s-0.8-0.7-1.3-0.9c-0.5-0.2-1.2-0.3-2-0.3h-1.6v9.1h1.6c0.8,0,1.4-0.1,1.9-0.3c0.5-0.2,0.9-0.5,1.3-0.9c0.3-0.4,0.6-0.9,0.8-1.5
				C755,337.1,755.1,336.4,755.1,335.6z"/>
			<path class="st15" d="M766.4,335.7c0,0.9-0.1,1.7-0.2,2.5c-0.1,0.7-0.4,1.4-0.7,1.9c-0.3,0.5-0.8,1-1.3,1.2
				c-0.5,0.3-1.2,0.4-2,0.4c-0.7,0-1.4-0.1-1.9-0.4c-0.5-0.3-0.9-0.7-1.2-1.2c-0.3-0.5-0.5-1.1-0.7-1.9c-0.1-0.7-0.2-1.6-0.2-2.6
				c0-0.9,0.1-1.7,0.2-2.5c0.1-0.7,0.4-1.4,0.7-1.9c0.3-0.5,0.8-1,1.3-1.2c0.5-0.3,1.2-0.4,2-0.4c0.7,0,1.4,0.1,1.9,0.4
				c0.5,0.3,0.9,0.7,1.2,1.2c0.3,0.5,0.5,1.1,0.7,1.9C766.3,333.9,766.4,334.7,766.4,335.7z M764.8,335.8c0-0.6,0-1.1-0.1-1.6
				s-0.1-0.9-0.2-1.2c-0.1-0.4-0.2-0.7-0.3-0.9s-0.3-0.5-0.5-0.6c-0.2-0.2-0.4-0.3-0.6-0.4c-0.2-0.1-0.5-0.1-0.8-0.1
				c-0.5,0-0.9,0.1-1.3,0.4c-0.3,0.2-0.6,0.6-0.8,1c-0.2,0.4-0.3,0.9-0.4,1.5c-0.1,0.6-0.1,1.2-0.1,1.8c0,0.9,0,1.6,0.1,2.2
				s0.2,1.1,0.4,1.5c0.2,0.4,0.4,0.7,0.8,0.8c0.3,0.2,0.7,0.3,1.1,0.3c0.3,0,0.6-0.1,0.9-0.2c0.3-0.1,0.5-0.3,0.7-0.5
				s0.3-0.4,0.5-0.7c0.1-0.3,0.2-0.6,0.3-0.9c0.1-0.3,0.1-0.7,0.1-1.1S764.8,336.2,764.8,335.8z"/>
		</g>
	</g>
</g>
<rect id="rect1461" x="753" y="377.1" class="st35" width="9.1" height="285.4"/>
<rect id="rect1463" x="730.3" y="377.7" class="st36" width="9.1" height="62.4"/>
<rect id="rect1465" x="707.3" y="377.8" class="st37" width="9.1" height="152.7"/>
<rect id="rect1467" x="684.4" y="377.7" class="st38" width="9.1" height="221.1"/>
<circle id="circle281" class="st38" cx="689" cy="377.1" r="10.5"/>
<circle id="circle281-2" class="st35" cx="757.6" cy="377.1" r="10.5"/>
<circle id="circle281-3" class="st36" cx="734.8" cy="377.1" r="10.5"/>
<circle id="circle281-4" class="st37" cx="711.9" cy="377.1" r="10.5"/>
<circle id="circle281-5" class="st35" cx="575.7" cy="657.9" r="11.6"/>
<rect id="rect1461-2" x="575.7" y="653.4" class="st35" width="186.4" height="9.1"/>
<ellipse id="circle281-6" transform="matrix(0.9999 -1.514629e-02 1.514629e-02 0.9999 -8.9985 0.462)" class="st38" cx="26" cy="594.3" rx="11.6" ry="11.6"/>
<rect x="21.4" y="521.4" class="st37" width="695" height="9.1"/>
<rect x="21.4" y="499.6" class="st37" width="9.1" height="30.9"/>
<rect x="21.4" y="431" class="st36" width="718" height="9.1"/>
<rect x="21.4" y="431" class="st36" width="9.1" height="38"/>
<ellipse id="circle281-7" transform="matrix(1.063649e-02 -0.9999 0.9999 1.063649e-02 -443.094 490.1158)" class="st36" cx="26.1" cy="469" rx="10.5" ry="10.5"/>
<ellipse id="circle281-8" transform="matrix(0.9999 -1.219240e-02 1.219240e-02 0.9999 -6.0896 0.3554)" class="st37" cx="26.1" cy="499.6" rx="10.5" ry="10.5"/>
<rect id="rect853" x="26" y="589.7" class="st38" width="667.5" height="9.1"/>
</svg>
