<?xml version="1.0" encoding="UTF-8"?>
<svg xmlns="http://www.w3.org/2000/svg" version="1.1" viewBox="0 0 785 881.9">
  <defs>
    <style>
      .cls-1 {
        fill: #2c2c2c;
      }

      .cls-2 {
        fill: #803300;
      }

      .cls-3, .cls-4 {
        fill: #fff;
      }

      .cls-5 {
        fill: #be8839;
      }

      .cls-6 {
        fill: #dbded7;
      }

      .cls-7 {
        fill: #914f00;
      }

      .cls-4 {
        stroke: #000;
      }

      .cls-4, .cls-8 {
        stroke-miterlimit: 10;
      }

      .cls-9 {
        fill: #9a2442;
      }

      .cls-10, .cls-8 {
        fill: none;
      }

      .cls-11 {
        fill: #303030;
      }

      .cls-12 {
        fill: #f53200;
      }

      .cls-13 {
        fill: #47494a;
      }

      .cls-14 {
        fill: #655a50;
      }

      .cls-15 {
        fill: #00b589;
      }

      .cls-16 {
        fill: #e30613;
      }

      .cls-17 {
        fill: #474949;
      }

      .cls-18 {
        isolation: isolate;
      }

      .cls-19 {
        fill: #fcf7fd;
      }

      .cls-20 {
        fill: #ada390;
      }

      .cls-21 {
        fill: #686868;
      }

      .cls-22 {
        fill: #e3ad51;
      }

      .cls-23 {
        fill: #ddd;
      }

      .cls-24 {
        fill: #999;
      }

      .cls-25 {
        fill: #c4b3a8;
      }

      .cls-26 {
        fill: #a3928b;
      }

      .cls-27 {
        fill: gray;
      }

      .cls-28 {
        fill: #36323e;
      }

      .cls-29 {
        fill: #eaeaea;
      }

      .cls-30 {
        fill: #1a1919;
      }

      .cls-31 {
        fill: #e3b37d;
      }

      .cls-32 {
        fill: #010103;
      }

      .cls-33 {
        fill: #f5b93e;
      }

      .cls-34 {
        fill: #e0dcd3;
      }

      .cls-8 {
        stroke: #493930;
      }

      .cls-35 {
        fill: #bcb3ad;
      }

      .cls-36 {
        fill: #e6e6e6;
      }
    </style>
  </defs>
  <!-- Generator: Adobe Illustrator 28.6.0, SVG Export Plug-In . SVG Version: 1.2.0 Build 709)  -->
  <g>
    <g id="svg8">
      <g>
        <rect id="rect103" class="cls-27" x="699.7" y="469.6" width="1.1" height="20.5"/>
        <rect id="rect105" class="cls-27" x="709.8" y="469.6" width="1.1" height="20.5"/>
        <rect id="rect107" class="cls-27" x="719.6" y="469.6" width="1.1" height="20.5"/>
        <rect id="rect90" class="cls-4" x="705.4" y="146.7" width="9.1" height="325.3"/>
        <rect id="rect92" class="cls-24" x="695.5" y="146.7" width="9.1" height="325.7"/>
        <rect id="rect94" x="715.4" y="146.7" width="9.1" height="325.7"/>
        <circle id="path74" cx="710.2" cy="75.4" r="74.5"/>
        <circle id="circle79" class="cls-36" cx="710.2" cy="75.4" r="9.9"/>
        <path id="path31-1" class="cls-3" d="M649.3,98.3c0-.7,0-.7,0-.9,0,0-.1-.2-.2-.2-.1,0-.2,0-1.6,0h-1.5s0-1.5,0-1.5v-1.4h1.8c2,0,2.2,0,2.7.2.7.3,1,.7,1.2,1.5,0,.2,0,.5,0,1.3s0,1.2,0,1.4v.4s-1.2,0-1.2,0h-1.2s0-.7,0-.7h0ZM653.4,84.5c0-12.3,0-15.3,0-14.8h0c0,0,0,0,0,0,0,0,0,0,0,0,0,0,0,0,0-.1v-.3s0,.3,0,.3c0,.1,0,.2,0,.2,0,0,0,0,.3,0s.3,0,.3-.1c0,0,0,0,0,0s0,.2,0,.2,0,4.9,0,14.6v14.6h-1.1v-14.5ZM642.2,95.6v-1.5h2.4v2.9h-2.4v-1.5ZM646.6,92.7c-.7-.1-1.3-.3-1.8-.6-.2,0-.4-.2-.4-.2s-.1,0-.2-.2c-.2-.2-.7-.5-.7-.6,0,0,0,0,0,0,0,0-.4-.4-.6-.7-.2-.3-.3-.5-.5-1.1-.2-.6-.3-1-.3-1.8,0-.5,0-.7.1-1,0-.2.2-.5.2-.6s0-.2,0-.2,0-.2.2-.4c.4-.7,1.5-1.6,2.3-2,1.3-.6,2.5-.6,3.7-.2.5.2.8.3,1.1.5.4.2.4.3,1,.9.7.7,1,1.2,1.2,2.1.1.5.2,1.4,0,1.8,0,.6-.5,1.5-.8,2-.2.3-.5.6-.5.6s-.1,0-.2.2c-.5.5-1.6,1.1-2.4,1.3-.3,0-1.2.1-1.4,0h0ZM647.8,89.9c.5-.1,1-.4,1.4-.9.4-.4.6-1.1.4-1.7-.2-.7-1-1.3-1.8-1.5-.5-.1-1.2-.1-1.6,0-.7.2-1.2.5-1.5,1-.2.2-.2.3-.2.5,0,.5,0,1,.1,1.4.2.3.6.7,1.1.9.7.3,1.4.4,2.2.2h0ZM642.2,81.7s0-.7,0-1.5v-1.4h1.3c1.2,0,1.3,0,1.5,0,.5-.2.9-.9.7-1.5-.1-.3-.3-.5-.6-.7h-.3c0-.1-1.4-.1-1.4-.1h-1.3v-2.9h1.5c1.4,0,1.5,0,1.8.1.6.2,1.1.4,1.5.8.1,0,.2.2.2.2,0,0,.4.4.6.7.2.3.4.7.5.9,0,0,0,.3.1.4,0,.3.1.4.1,1s0,.7-.1,1.1c-.2.6-.2.8-.5,1.2-.3.4-.7.8-1.1,1.1-.6.4-1.1.6-1.8.7-.5,0-2.8,0-2.8,0h0ZM649.4,77.7v-2.4h2.5v4.8h-2.5v-2.4ZM640.3,73.6s0,0-.2,0q-.2,0-.2-.2c0-.1,0-4.1,0-9v-8.8h.5s.5,0,.5,0v8.9c0,4.9,0,8.9,0,9,0,0,0,0-.4,0-.2,0-.3,0-.3,0h0ZM646.2,69.6v-3h2.4v6h-2.4v-3ZM642.2,64.2v-1.5h2.4v2.9h-2.4v-1.5ZM645.8,64.2v-1.5h6.1v2.9h-6.1v-1.5ZM642.2,58.4v-3h2.4v6.1h-2.4v-3ZM646,60.9s0-.7,0-1.4v-1.4h1.4c2,0,1.9,0,1.9-1.4v-.9h2.5v.4c.1.5.1,2.2,0,2.6-.1.8-.4,1.3-.8,1.6-.4.4-.8.5-1.5.6-.4,0-3.5,0-3.5,0h0ZM641,53.6c-.3,0-.5-.2-.6-.4-.6-.7-.6-1.4-.2-2.1.2-.3.3-.4.6-.5.2,0,.3-.1.6-.1s.4,0,.7.1c.5.2.9.8.9,1.3,0,.5-.1.9-.5,1.3-.4.4-1,.5-1.5.4h0ZM642,53.3c.3-.1.6-.5.7-1s0-.7-.3-1.2c0-.1-.2-.2-.4-.3-.2-.1-.3-.1-.6-.1s-.4,0-.6.1c-.2.1-.3.2-.4.4,0,.1-.2.3-.2.4-.2.7.1,1.5.8,1.7.2,0,.8,0,1.1,0h0ZM640.5,52.2c0-.3,0-.6,0-.6,0-.2.5-.4.7-.2,0,0,.1.1.2.2h0c0,.1.2,0,.2,0,0,0,.2-.2.4-.3.1,0,.2-.1.2-.2,0,0,0,0,0,.1v.2l-.4.2c-.4.3-.4.3-.4.6v.2h.8,0c0,.1,0,.2,0,.2h-.9s-.9,0-.9,0v-.5ZM641.3,52.2c0-.3,0-.4,0-.5-.2-.2-.4,0-.5.2,0,.1,0,.5,0,.6,0,0,.1,0,.3,0h.3v-.4Z"/>
        <rect id="rect86" class="cls-36" x="703.8" y="87.1" width="12.4" height="13.2"/>
        <rect id="rect88" class="cls-2" x="705.4" y="88.7" width="9.1" height="9.9"/>
        <g class="cls-18">
          <path class="cls-3" d="M753,78.6s0,0,.1,0c0,0,0,0,0,.1,0,0,0,.1,0,.2,0,0,0,.2,0,.4s0,.3,0,.5c0,.1,0,.2,0,.3,0,0,0,.1-.1.1l-5.2,3.8h5.2s0,0,.1,0c0,0,0,0,0,.1s0,.1,0,.2c0,0,0,.2,0,.3s0,.2,0,.3c0,0,0,.2,0,.2,0,0,0,0,0,.1s0,0-.1,0h-9.9s0,0-.1,0c0,0,0,0,0-.1s0-.1,0-.2c0,0,0-.2,0-.3s0-.2,0-.3c0,0,0-.2,0-.2,0,0,0,0,0-.1s0,0,.1,0h4.6l-4.6-3.7s0,0-.1-.1c0,0,0,0,0-.2s0-.1,0-.2c0,0,0-.2,0-.3s0-.2,0-.3c0,0,0-.2,0-.2,0,0,0,0,0-.1s0,0,.1,0c0,0,.1,0,.2,0,0,0,.2.1.3.2l4.1,3.4,4.9-3.7c.1,0,.2-.1.3-.2,0,0,0,0,.1,0Z"/>
          <path class="cls-3" d="M749.2,73.5h3.8s0,0,.1,0,0,0,0,.1,0,.1,0,.2c0,0,0,.2,0,.3s0,.2,0,.3c0,0,0,.2,0,.2,0,0,0,0,0,.1s0,0-.1,0h-3.8l-5.8,2.9c-.1,0-.2,0-.3.1,0,0-.1,0-.2,0,0,0,0-.1,0-.2s0-.2,0-.4,0-.3,0-.4,0-.2,0-.2,0-.1,0-.1c0,0,0,0,.1,0l3-1.4c.3-.1.6-.3.9-.4.3-.1.6-.3.9-.4h0c-.3-.1-.6-.3-.9-.4-.3-.1-.6-.3-.9-.4l-3-1.4c0,0,0,0-.1,0,0,0,0,0,0-.1s0-.1,0-.2c0,0,0-.2,0-.3,0-.2,0-.3,0-.5,0-.1,0-.2,0-.2,0,0,0,0,.2,0,0,0,.2,0,.3.1l5.8,2.9Z"/>
          <path class="cls-3" d="M749.2,66.7c.2,0,.4,0,.4,0,0,0,.1.1.1.2v3.4c0,0,0,.2-.1.2,0,0-.2,0-.4,0s-.3,0-.4,0c0,0-.1-.1-.1-.2v-3.4s0,0,0-.1c0,0,0,0,0,0s.1,0,.2,0c0,0,.2,0,.3,0Z"/>
          <path class="cls-3" d="M748,58.4c.8,0,1.5,0,2.2.2.7.1,1.2.3,1.7.6.5.3.8.7,1.1,1.1s.4,1.1.4,1.7-.1,1.2-.4,1.6-.6.8-1,1.1c-.5.3-1,.5-1.7.6-.7.1-1.4.2-2.3.2s-1.5,0-2.2-.2-1.2-.3-1.7-.6c-.5-.3-.8-.7-1.1-1.1s-.4-1.1-.4-1.7.1-1.2.4-1.7c.2-.4.6-.8,1-1.1.5-.3,1-.5,1.7-.6.6-.1,1.4-.2,2.3-.2ZM748.1,59.8c-.5,0-1,0-1.4,0s-.8,0-1.1.2c-.3,0-.6.2-.8.3-.2.1-.4.3-.6.4-.2.2-.3.3-.3.5,0,.2-.1.4-.1.7,0,.5.1.8.3,1.1.2.3.5.5.9.7s.8.3,1.3.3c.5,0,1,0,1.6,0s1.4,0,2-.1c.5,0,1-.2,1.3-.4.3-.2.6-.4.7-.7.2-.3.2-.6.2-1s0-.6-.1-.8c0-.2-.2-.4-.4-.6s-.4-.3-.6-.4c-.2-.1-.5-.2-.8-.3-.3,0-.6-.1-1-.1-.4,0-.7,0-1.1,0Z"/>
          <path class="cls-3" d="M750.3,50.5c.5,0,.9,0,1.3.2.4.2.7.4,1,.7.3.3.5.7.6,1.1.2.5.2,1,.2,1.5s0,.7,0,1c0,.3-.1.6-.2.8,0,.2-.2.4-.2.6,0,.2-.1.3-.2.3s0,0-.1,0c0,0,0,0-.1,0,0,0-.1,0-.2,0s-.2,0-.3,0c-.2,0-.3,0-.4,0,0,0-.1,0-.1-.2s0-.2.1-.3.2-.3.3-.6c0-.2.2-.5.3-.8,0-.3.1-.6.1-1s0-.7-.1-1-.2-.5-.4-.7c-.2-.2-.4-.3-.6-.4s-.5-.1-.7-.1-.6,0-.8.2-.4.3-.6.5-.3.5-.4.8c0,.3-.1.7-.1,1.1v1s0,0,0,.1c0,0,0,0,0,.1,0,0,0,0-.2,0,0,0-.2,0-.3,0s-.2,0-.3,0c0,0-.1,0-.2,0,0,0,0,0,0-.1,0,0,0,0,0-.1v-.9c0-.4,0-.7-.1-.9s-.2-.5-.4-.7c-.2-.2-.4-.3-.6-.4-.2-.1-.5-.2-.8-.2s-.4,0-.6.1c-.2,0-.4.2-.5.3-.1.1-.3.3-.3.5,0,.2-.1.5-.1.7s0,.6.1.9.2.5.3.7c.1.2.2.4.3.5s.1.2.1.3,0,0,0,.1c0,0,0,0,0,0,0,0,0,0-.2,0,0,0-.2,0-.3,0s-.2,0-.2,0c0,0-.1,0-.2,0,0,0,0,0-.1,0,0,0,0,0-.1-.1,0,0-.1-.2-.2-.3,0-.2-.2-.4-.3-.6,0-.2-.2-.5-.2-.8s0-.6,0-1,0-.9.2-1.3.3-.7.5-.9c.2-.2.5-.4.8-.5.3-.1.7-.2,1-.2s.6,0,.9.1.5.2.7.4.4.4.5.6c.2.2.3.5.3.8h0c0-.4.1-.7.3-1s.3-.5.5-.8c.2-.2.5-.4.7-.5.3,0,.6-.2.9-.2Z"/>
          <path class="cls-3" d="M747.6,42c.4,0,.9,0,1.4,0,.5,0,.9.1,1.3.3s.8.3,1.2.5.7.5,1,.8c.3.3.5.7.7,1.2.2.5.2,1,.2,1.6s0,.5,0,.7c0,.2,0,.4-.1.6,0,.2,0,.3-.1.4s0,.2-.1.3-.1,0-.2.1-.2,0-.3,0-.2,0-.3,0c0,0-.1,0-.2,0,0,0,0,0,0,0,0,0,0,0,0-.1,0,0,0-.1,0-.2,0-.1,0-.2.1-.4,0-.2,0-.4.1-.6s0-.5,0-.7c0-.5-.1-1-.3-1.3-.2-.4-.5-.7-.8-.9s-.7-.4-1.2-.5-.9-.2-1.4-.2c.2.3.3.6.4,1s.2.9.2,1.4,0,1.1-.2,1.4c-.2.4-.4.7-.6.9s-.6.4-1,.5-.8.2-1.2.2-.9,0-1.3-.2c-.4-.1-.8-.3-1.1-.6-.3-.3-.6-.6-.7-1.1-.2-.4-.3-1-.3-1.6s0-.8.2-1.1c.1-.3.3-.6.5-.9.2-.2.5-.5.7-.6.3-.2.6-.3,1-.4s.8-.2,1.2-.2c.4,0,.9,0,1.4,0ZM747.5,43.4c-.7,0-1.3,0-1.7.1s-.8.2-1.1.4-.5.4-.6.7c-.1.3-.2.5-.2.9s0,.6.2.9.3.4.5.6c.2.2.5.3.7.4.3,0,.5.1.8.1s.6,0,.9-.1c.3,0,.5-.2.7-.3.2-.2.3-.3.4-.6s.2-.5.2-.9,0-.8-.2-1.2c-.1-.4-.3-.7-.5-1Z"/>
        </g>
        <g class="cls-18">
          <path class="cls-3" d="M692.5,142.1c0,.3,0,.5,0,.5s-.2.2-.3.2h-4.3c-.1,0-.2,0-.3-.2,0-.1,0-.3,0-.5s0-.4,0-.5.2-.2.3-.2h4.3c0,0,.1,0,.2,0s0,0,.1.1,0,.1,0,.2c0,.1,0,.2,0,.3Z"/>
        </g>
        <g class="cls-18">
          <path class="cls-3" d="M714.4,136.3c0,.1,0,.2,0,.3s0,.2,0,.2,0,.1-.1.1c0,0,0,0-.2,0h-3.4v3.7c0,0,0,.1,0,.1,0,0,0,0-.1,0,0,0-.1,0-.2,0,0,0-.2,0-.4,0s-.3,0-.4,0-.2,0-.2,0c0,0-.1,0-.1,0,0,0,0,0,0-.1v-3.7h-3.4c0,0-.1,0-.2,0,0,0,0,0-.1-.1s0-.1,0-.2,0-.2,0-.3,0-.2,0-.3,0-.2,0-.2,0-.1.1-.1c0,0,0,0,.2,0h3.4v-3.7c0,0,0-.1,0-.2,0,0,0,0,.1-.1s.1,0,.2,0,.2,0,.4,0,.3,0,.4,0,.2,0,.2,0c0,0,.1,0,.1.1,0,0,0,0,0,.2v3.7h3.4c0,0,.1,0,.2,0,0,0,0,0,.1.1,0,0,0,.1,0,.2,0,0,0,.2,0,.3Z"/>
        </g>
        <g class="cls-18">
          <path class="cls-3" d="M731.3,143.6c0,.5-.1,1-.3,1.5-.2.4-.5.8-.8,1.1-.4.3-.8.5-1.3.7-.5.2-1,.2-1.6.2s-.8,0-1.1-.1c-.3,0-.6-.2-.9-.2-.3,0-.5-.2-.7-.3-.2-.1-.3-.2-.4-.3,0,0-.1-.2-.2-.3s0-.3,0-.4,0-.2,0-.3c0,0,0-.2,0-.2,0,0,0,0,0-.1s0,0,.1,0c0,0,.2,0,.4.2.2.1.4.2.6.3.2.1.5.2.9.3s.7.2,1.2.2.6,0,.9-.1.5-.2.7-.4c.2-.2.4-.4.5-.6s.2-.5.2-.8,0-.6-.2-.9c-.2-.2-.4-.4-.6-.6s-.5-.3-.8-.5-.6-.3-1-.5c-.3-.2-.7-.3-1-.5s-.6-.4-.8-.7c-.2-.3-.4-.5-.6-.9-.2-.3-.2-.7-.2-1.2s0-.9.3-1.3c.2-.4.4-.7.7-1,.3-.3.7-.5,1.1-.6s.9-.2,1.4-.2.5,0,.8,0c.3,0,.5.1.7.2s.4.2.6.3.3.2.4.2,0,.1.1.1,0,0,0,.1c0,0,0,.1,0,.2,0,0,0,.2,0,.3s0,.2,0,.3,0,.2,0,.2c0,0,0,.1,0,.1s0,0-.1,0c0,0-.2,0-.3-.1s-.3-.2-.5-.3-.4-.2-.7-.3c-.3,0-.6-.1-.9-.1s-.6,0-.9.1c-.2,0-.4.2-.6.4-.2.1-.3.3-.4.5,0,.2-.1.4-.1.6,0,.3,0,.6.2.8.2.2.4.4.6.6.2.2.5.4.9.5.3.2.6.3,1,.5.3.2.7.3,1,.5.3.2.6.4.9.7.2.2.5.5.6.9,0,.4.2.8.2,1.2Z"/>
        </g>
      </g>
      <g>
        <path class="cls-30" d="M590,114H7.3c-4,0-7.3,3.2-7.3,7.3v719c0,4,3.2,7.3,7.3,7.3h17.6l34.2,34.2h365.2l34.1-34.1h131.6c4,0,7.3-3.2,7.3-7.3V121.4c0-4.1-3.3-7.4-7.3-7.4ZM28.3,288.5c-10,0-18.1-8.1-18.1-18.1s8.1-18.1,18.1-18.1,18.1,8.1,18.1,18.1-8.1,18.1-18.1,18.1ZM88.2,870.3c-10,0-18.1-8.1-18.1-18.1s8.1-18.2,18.1-18.2,18.1,8.1,18.1,18.1-8.1,18.2-18.1,18.2ZM401.3,870.3c-10,0-18.1-8.1-18.1-18.1s8.1-18.1,18.1-18.1,18.1,8.1,18.1,18.1-8.1,18.1-18.1,18.1ZM569.6,299.9c-10,0-18.1-8.1-18.1-18.1s8.1-18.1,18.1-18.1,18.1,8.1,18.1,18.1c0,9.9-8.1,18.1-18.1,18.1Z"/>
        <rect class="cls-11" x="55.9" y="80.7" width="101.7" height="143.5"/>
        <path class="cls-11" d="M141.5,240.4h-69.4c-3.9,0-7.1-3.2-7.1-7.1v-9.1h83.7v9.1c0,3.9-3.3,7.1-7.2,7.1Z"/>
        <path class="cls-23" d="M571.5,152.7h-21.4v-4.6c0-.8-.6-1.4-1.4-1.4h-20.7c-.8,0-1.4.6-1.4,1.4v4.6h-21.4c-1,0-1.7.8-1.7,1.7v65.1c0,1,.8,1.7,1.7,1.7h66.3c1,0,1.7-.8,1.7-1.7v-65.1c0-.9-.8-1.7-1.7-1.7Z"/>
        <circle class="cls-9" cx="538.3" cy="184" r="19.2"/>
        <g>
          <circle class="cls-23" cx="148.6" cy="332.7" r="35.2"/>
          <path class="cls-32" d="M129.6,308.2c-8.1,5.1-13.5,14.2-13.5,24.5s5.4,19.4,13.5,24.5v-49Z"/>
        </g>
        <g>
          <circle class="cls-23" cx="174.2" cy="431.6" r="35.2"/>
          <path class="cls-32" d="M166.8,401.5c-9.5,1.4-18.1,7.5-22.3,16.9s-2.9,19.9,2.4,27.9l19.9-44.8Z"/>
        </g>
        <rect class="cls-31" x="278.6" y="194.5" width="9.8" height="21.5"/>
        <rect class="cls-31" x="362.3" y="238.2" width="9.8" height="21.5"/>
        <rect class="cls-31" x="445.8" y="318.2" width="21.5" height="9.8"/>
        <rect class="cls-31" x="445.7" y="258.7" width="21.5" height="9.8"/>
        <rect class="cls-31" x="327.2" y="341.3" width="9.8" height="21.5"/>
        <rect class="cls-33" x="396.7" y="438.6" width="9.8" height="21.5"/>
        <rect class="cls-31" x="423.5" y="438.6" width="9.8" height="21.5"/>
        <rect class="cls-31" x="449.9" y="438.6" width="9.8" height="21.5"/>
        <rect class="cls-31" x="324.1" y="732.1" width="21.5" height="9.8"/>
        <rect class="cls-33" x="387.3" y="744.5" width="9.8" height="21.5"/>
        <path class="cls-17" d="M332.6,252.9h-28.4c-.8,0-1.5-.7-1.5-1.5v-11.6c0-.8.7-1.5,1.5-1.5h28.4c.8,0,1.5.7,1.5,1.5v11.6c0,.8-.7,1.5-1.5,1.5Z"/>
        <g>
          <path class="cls-34" d="M305,226v12.2h11.5v-12.2c0-.7-.6-1.2-1.2-1.2h-9c-.8,0-1.3.5-1.3,1.2Z"/>
          <path class="cls-34" d="M320.2,226v12.2h11.5v-12.2c0-.7-.6-1.2-1.2-1.2h-9c-.7,0-1.3.5-1.3,1.2Z"/>
        </g>
        <g>
          <rect class="cls-6" x="423.1" y="411.5" width="10.7" height="17.2"/>
          <rect class="cls-17" x="423.1" y="414.1" width="10.7" height="11.8"/>
        </g>
        <g>
          <rect class="cls-6" x="449.4" y="411.5" width="10.7" height="17.2"/>
          <rect class="cls-17" x="449.4" y="414.1" width="10.7" height="11.8"/>
        </g>
        <g>
          <rect class="cls-6" x="305.9" y="381.4" width="17.2" height="10.7"/>
          <rect class="cls-17" x="308.4" y="381.3" width="11.8" height="10.7"/>
        </g>
        <g>
          <rect class="cls-6" x="250.8" y="381.3" width="17.2" height="10.7"/>
          <rect class="cls-17" x="253.4" y="381.4" width="11.8" height="10.7"/>
        </g>
        <g>
          <rect class="cls-6" x="387.3" y="714.2" width="10.7" height="17.2"/>
          <rect class="cls-17" x="387.3" y="716.7" width="10.7" height="11.8"/>
        </g>
        <g>
          <rect class="cls-6" x="326.2" y="751.6" width="17.2" height="10.7"/>
          <rect class="cls-17" x="328.7" y="751.5" width="11.8" height="10.7"/>
        </g>
        <g>
          <rect class="cls-6" x="478" y="161.4" width="10.7" height="17.2"/>
          <rect class="cls-17" x="478" y="163.9" width="10.7" height="11.8"/>
        </g>
        <g>
          <rect class="cls-6" x="338.4" y="162.4" width="10.7" height="17.2"/>
          <rect class="cls-17" x="338.4" y="164.9" width="10.7" height="11.8"/>
        </g>
        <path class="cls-26" d="M450.4,308.4h-4.8c-2,0-3.7-1.7-3.7-3.7v-25.4c0-2,1.7-3.7,3.7-3.7h4.8c2,0,3.7,1.7,3.7,3.7v25.4c0,2.1-1.7,3.7-3.7,3.7Z"/>
        <g>
          <path class="cls-22" d="M381.5,547.8l11.7-11.7c1.1-1.1,1.1-2.9,0-4l-8.6-8.6c-1.1-1.1-2.9-1.1-4,0l-11.7,11.7c-1.1,1.1-1.1,2.9,0,4l8.6,8.6c1.1,1.1,2.9,1.1,4,0Z"/>
          <path class="cls-25" d="M381.6,546.6l10.5-10.5c1.1-1.1,1.1-2.9,0-4l-7.6-7.6c-1.1-1.1-2.9-1.1-4,0l-10.5,10.5c-1.1,1.1-1.1,2.9,0,4l7.6,7.6c1.1,1.2,2.9,1.2,4,0Z"/>
        </g>
        <rect class="cls-35" x="374.8" y="502.6" width="12.2" height="11"/>
        <rect class="cls-35" x="394.4" y="502.6" width="12.2" height="11"/>
        <rect class="cls-35" x="374.8" y="555.5" width="12.2" height="11"/>
        <rect class="cls-35" x="394.4" y="555.5" width="12.2" height="11"/>
        <path class="cls-12" d="M344.2,789.9h-15.2c-1.6,0-2.8-1.3-2.8-2.8v-5.3c0-1.6,1.3-2.8,2.8-2.8h15.2c1.6,0,2.8,1.3,2.8,2.8v5.3c.1,1.5-1.2,2.8-2.8,2.8Z"/>
        <g>
          <path class="cls-3" d="M31.2,148.9v-4.5h2.1v7.1h-1.5c-2.9-2.4-4.8-2.7-8.9-2.8v-2.5c3.4.2,5.6.8,8.3,2.7Z"/>
          <path class="cls-3" d="M27.8,153v4h-1.7v-4h1.7Z"/>
          <path class="cls-3" d="M24.9,158.7v2.2h5.9v-1.9h1.5c.2,1.1.5,1.8.9,2.6v1.8h-8.4v1.9h-2v-6.6h2.1Z"/>
          <path class="cls-3" d="M24.4,166.7c2.3,2.7,4.2,4.4,5.6,4.4s1.5-.5,1.5-1.4-.5-1.3-1-1.8l1.3-1.3c1.1,1,1.7,1.9,1.7,3.4s-1.3,3.4-3.3,3.4-3.8-1.7-5.4-3.3c0,.5.1,1.2.1,1.7v2.1h-2.1v-7.2h1.6Z"/>
          <path class="cls-3" d="M33.3,174.5v2.6l-4.8,1.1c-1.1.3-2.2.5-3.3.8h0c1.1.4,2.2.6,3.3.9l4.8,1.2v2.5l-10.4-3.2v-3l10.4-2.9Z"/>
          <path class="cls-3" d="M33.3,188v2.5h-10.4v-2.5h10.4Z"/>
          <path class="cls-3" d="M33.3,192.9v2.6l-5,2.6c-.7.4-1.5.7-2.4,1h0c1.1,0,2.6-.2,3.8-.2h3.5v2.4h-10.3v-2.6l5-2.6c.7-.4,1.5-.7,2.4-1h0c-1.2,0-2.6.2-3.8.2h-3.5v-2.4h10.3Z"/>
          <path class="cls-3" d="M33.3,203.6v3.7c0,2.3-.8,4.2-3.4,4.2s-3.6-1.9-3.6-4.1v-1.2h-3.5v-2.5h10.5ZM28.3,207.1c0,1.2.6,1.8,1.6,1.8s1.4-.7,1.4-1.9v-1h-3v1.1Z"/>
          <path class="cls-3" d="M27.8,213.1h5.5v2.5h-5.8c-2,0-2.7.6-2.7,1.7s.7,1.8,2.7,1.8h5.8v2.4h-5.5c-3.5,0-5.1-1.4-5.1-4.2s1.6-4.2,5.1-4.2Z"/>
          <path class="cls-3" d="M31.2,225.9v-2.9h2.1v8.1h-2.1v-2.8h-8.3v-2.5h8.3Z"/>
        </g>
        <g>
          <path class="cls-3" d="M588.7,162.5v3.8c0,2.2-.8,4.1-3.3,4.1s-2.5-.7-3-1.8l-4.1,2.3v-2.8l3.7-1.9v-1.2h-3.7v-2.5h10.4ZM583.9,166.1c0,1.2.5,1.8,1.5,1.8s1.3-.6,1.3-1.8v-1.1h-2.8v1.1Z"/>
          <path class="cls-3" d="M588.7,172.4v6.6h-2.1v-4.1h-2v3.5h-2.1v-3.5h-2.2v4.3h-2.1v-6.8h10.5Z"/>
          <path class="cls-3" d="M579.6,180.5l1.6,1.3c-.6.7-1,1.7-1,2.6s.4,1.4.9,1.4.8-.6,1.2-1.5l.6-1.3c.4-1.1,1.3-2.1,2.8-2.1s3.2,1.6,3.2,3.8-.5,2.5-1.3,3.4l-1.6-1.3c.5-.7.8-1.4.8-2.1s-.3-1.3-.8-1.3-.8.7-1.2,1.6l-.5,1.3c-.5,1.3-1.4,2.1-2.8,2.1s-3.3-1.5-3.3-4c-.1-1.4.3-2.8,1.4-3.9Z"/>
          <path class="cls-3" d="M588.7,190.1v6.6h-2.1v-4.1h-2v3.5h-2.1v-3.5h-2.2v4.3h-2.1v-6.8h10.5Z"/>
          <path class="cls-3" d="M586.6,201v-2.8h2.1v8.1h-2.1v-2.8h-8.3v-2.5h8.3Z"/>
        </g>
        <g>
          <path class="cls-3" d="M371.7,823.2v2.5h-10.4v-2.5h10.4Z"/>
          <path class="cls-3" d="M366.4,827.6c3.5,0,5.5,2.3,5.5,5s-.6,2.4-1.4,3.2l-1.5-1.3c.5-.5.7-1.1.7-1.8,0-1.4-1.2-2.5-3.2-2.5s-3.3,1-3.3,2.4.3,1.5.9,2l-1.5,1.3c-1-.9-1.5-2.1-1.5-3.4,0-2.6,1.8-4.9,5.3-4.9Z"/>
          <path class="cls-3" d="M362.6,836.3l1.6,1.3c-.6.7-1,1.7-1,2.6s.4,1.4.9,1.4.8-.6,1.2-1.5l.6-1.3c.4-1.1,1.3-2.1,2.8-2.1s3.2,1.6,3.2,3.8-.5,2.5-1.3,3.4l-1.6-1.3c.5-.7.8-1.4.8-2.1s-.3-1.3-.8-1.3-.8.7-1.2,1.6l-.5,1.3c-.5,1.3-1.4,2.1-2.8,2.1s-3.3-1.5-3.3-4c-.1-1.4.4-2.8,1.4-3.9Z"/>
          <path class="cls-3" d="M371.7,845.9v3.7c0,2.3-.8,4.2-3.4,4.2s-3.6-1.9-3.6-4.1v-1.2h-3.5v-2.5h10.5ZM366.7,849.5c0,1.2.6,1.8,1.6,1.8s1.4-.7,1.4-1.9v-1h-3v1.1Z"/>
        </g>
        <path class="cls-3" d="M388.7,775.1c-1.2,1-2,2.5-2,4.2,0,3,2.5,5.5,5.5,5.5s5.5-2.5,5.5-5.5-.8-3.2-2-4.2c-.4-.4-.5-1-.1-1.4s1-.5,1.4,0c1.7,1.4,2.7,3.5,2.7,5.8,0,4.1-3.4,7.5-7.5,7.5s-7.5-3.4-7.5-7.5,1.1-4.4,2.7-5.8c.4-.4,1.1-.3,1.4,0,.4.5.3,1.1-.1,1.4h0ZM393.2,779.4c0,.6-.4,1-1,1s-1-.4-1-1v-7c0-.6.4-1,1-1s1,.4,1,1v7Z"/>
        <polyline class="cls-8" points="36 306.6 42.7 306.6 105.3 369.2 116.1 369.2"/>
        <polyline class="cls-8" points="35.8 314.6 42.7 314.6 102.9 374.8 102.9 506.5 159.6 563.2 212.4 563.2 224.6 550.8 263.6 550.8"/>
        <polyline class="cls-8" points="33.4 342.1 44.7 342.1 86.9 384.3 86.9 507.3 156.7 577.1 268.4 577.1"/>
        <polyline class="cls-8" points="22.9 427.7 61.9 466.6 61.9 530.6 33.2 559.3"/>
        <line class="cls-10" x1="76.1" y1="509.4" x2="151.9" y2="585.2"/>
        <polyline class="cls-8" points="131.4 576.7 88.6 619.4 24.5 619.4"/>
        <polyline class="cls-8" points="131.4 587.3 91.3 627.4 26 627.4"/>
        <polyline class="cls-8" points="267.4 585.8 234.8 585.8 159.2 661.4 78.7 661.4 56 684.1 31.2 684.1"/>
        <polyline class="cls-8" points="249.5 594.9 249.5 641.2 179.7 711 30.5 711"/>
        <polyline class="cls-8" points="264.8 614.8 264.8 651.1 176.3 739.6 31.2 739.6"/>
        <polyline class="cls-8" points="273.6 614.6 273.6 653.8 158.8 768.6 24.5 768.6"/>
        <polyline class="cls-8" points="282.6 615.5 282.6 661.1 147.4 796.2 30.5 796.2"/>
        <polyline class="cls-8" points="291.1 619.5 291.1 668.9 134.7 825.3 30.5 825.3"/>
        <line class="cls-10" x1="328.8" y1="704.5" x2="292.2" y2="667.9"/>
        <polyline class="cls-8" points="331.1 720.8 306 695.6 280.1 695.6"/>
        <polyline class="cls-8" points="344.4 728.5 344.4 669.8 299.8 625.1 299.8 605.7"/>
        <polyline class="cls-8" points="278.5 843.4 262.1 827 262.1 762.3 287.4 737"/>
        <polyline class="cls-8" points="308.2 614.1 308.2 625 361.8 678.5 401.5 678.5 506.9 783.8 506.9 813 518.6 824.7 563.7 824.7"/>
        <polyline class="cls-8" points="317.1 615.2 317.1 626.1 359.4 668.4 421.4 668.4 568.7 815.6"/>
        <polyline class="cls-8" points="327.2 614.8 368 655.5 433.5 655.5 574 796"/>
        <polyline class="cls-8" points="345.8 594.1 400.2 594.1 571.3 765.2"/>
        <polyline class="cls-8" points="347.1 585.8 407.3 585.8 573.5 752.1"/>
        <polyline class="cls-8" points="496 605.6 489.1 598.7 443.1 598.7"/>
        <polyline class="cls-8" points="347.1 542.2 358.2 542.2 367.1 551 377.8 551"/>
        <polyline class="cls-8" points="346.9 533.3 356.9 533.3 367.4 522.7 380.6 522.7"/>
        <polyline class="cls-8" points="325.4 509.7 341.9 493.3 411.8 493.3 566.8 648.4"/>
        <polyline class="cls-8" points="317 511.5 317 507 336.5 487.5 414.7 487.5 575.1 647.8"/>
        <polyline class="cls-8" points="308.3 511.5 308.3 503.1 328.5 482.8 418.5 482.8 574.9 639.2"/>
        <polyline class="cls-8" points="299.7 509.9 299.7 501.7 323.5 477.9 418.9 477.9 576.4 635.4"/>
        <polyline class="cls-8" points="291.1 509.4 291.1 497.5 316 472.5 420.1 472.5 580.5 633"/>
        <polyline class="cls-8" points="282.2 511.1 282.2 489.3 303.4 469.3 425.1 469.3 480.2 524.3 580.5 524.3"/>
        <polyline class="cls-8" points="273.6 509.2 273.6 485.9 297.3 464 426.8 464 458.1 495.3 579.1 495.3"/>
        <polyline class="cls-8" points="264.8 508.7 264.8 484.7 286.8 462.7 290.2 459.3"/>
        <polyline class="cls-8" points="221.2 526.8 221.2 497.7 289.5 429.4 315.4 429.4 322.4 436.4 372.2 436.4 399.6 409 426.8 409"/>
        <polyline class="cls-8" points="210.3 423.9 314.3 423.9 335.1 403.1 354.3 403.1"/>
        <polyline class="cls-8" points="286.7 353.4 286.7 364.1 277.7 373.1 260.3 373.1 247.6 360.5 247.6 351.2 247.6 326.1"/>
        <polyline class="cls-8" points="226.9 295.5 226.9 287.2 232.4 281.7 249.3 281.7"/>
        <polyline class="cls-8" points="191.2 273.1 237.4 273.1 258 252.6 258 230.7"/>
        <polyline class="cls-8" points="319.2 259.6 333 259.6 341.7 251 341.7 218.4 313.6 190.4 298 190.4 276 168.4"/>
        <polyline class="cls-8" points="285.9 164.9 299.7 178.8 311.3 178.8"/>
        <polyline class="cls-8" points="323.3 162.4 323.3 182.7 344.4 203.8 379.9 203.8 384.6 199.2 384.6 170"/>
        <path class="cls-8" d="M402.6,279.9v-48.4"/>
        <path class="cls-8" d="M418.1,231.5v22"/>
        <polyline class="cls-8" points="415.7 287.2 428.1 287.2 440 275.2"/>
        <polyline class="cls-8" points="415.5 300.9 428.4 300.9 440.6 313"/>
        <line class="cls-8" x1="416.1" y1="342.1" x2="439.6" y2="342.1"/>
        <line class="cls-8" x1="413.8" y1="356.2" x2="441.9" y2="356.2"/>
        <polyline class="cls-8" points="415.5 369.6 426.8 369.6 441.9 369.6"/>
        <line class="cls-8" x1="562.9" y1="232.4" x2="530.4" y2="264.9"/>
        <g>
          <path class="cls-17" d="M327.3,601.9h-64.2c-3.2,0-5.9-2.6-5.9-5.9v-64.2c0-3.2,2.6-5.9,5.9-5.9h64.2c3.2,0,5.9,2.6,5.9,5.9v64.2c0,3.3-2.6,5.9-5.9,5.9Z"/>
          <circle class="cls-1" cx="322.3" cy="590" r="4.8"/>
          <g>
            <path class="cls-34" d="M240.4,536.4h16.9v-5.9h-16.9c-.7,0-1.2.6-1.2,1.2v3.4c0,.8.5,1.3,1.2,1.3Z"/>
            <path class="cls-34" d="M240.4,545.1h16.9v-5.9h-16.9c-.7,0-1.2.6-1.2,1.2v3.4c0,.8.5,1.3,1.2,1.3Z"/>
            <path class="cls-34" d="M240.4,553.8h16.9v-5.9h-16.9c-.7,0-1.2.6-1.2,1.2v3.4c0,.8.5,1.3,1.2,1.3Z"/>
            <path class="cls-34" d="M240.4,562.5h16.9v-5.9h-16.9c-.7,0-1.2.6-1.2,1.2v3.4c0,.8.5,1.3,1.2,1.3Z"/>
            <path class="cls-34" d="M240.4,571.2h16.9v-5.9h-16.9c-.7,0-1.2.6-1.2,1.2v3.4c0,.7.5,1.3,1.2,1.3Z"/>
            <path class="cls-34" d="M240.4,579.9h16.9v-5.9h-16.9c-.7,0-1.2.6-1.2,1.2v3.4c0,.7.5,1.3,1.2,1.3Z"/>
            <path class="cls-34" d="M240.4,588.6h16.9v-5.9h-16.9c-.7,0-1.2.6-1.2,1.2v3.4c0,.7.5,1.3,1.2,1.3Z"/>
            <path class="cls-34" d="M240.4,597.3h16.9v-5.9h-16.9c-.7,0-1.2.6-1.2,1.2v3.4c0,.7.5,1.3,1.2,1.3Z"/>
          </g>
          <g>
            <path class="cls-34" d="M322.7,509v16.9h5.9v-16.9c0-.7-.6-1.2-1.2-1.2h-3.4c-.7,0-1.3.6-1.3,1.2Z"/>
            <path class="cls-34" d="M314,509v16.9h5.9v-16.9c0-.7-.6-1.2-1.2-1.2h-3.4c-.7,0-1.3.6-1.3,1.2Z"/>
            <path class="cls-34" d="M305.3,509v16.9h5.9v-16.9c0-.7-.6-1.2-1.2-1.2h-3.4c-.7,0-1.3.6-1.3,1.2Z"/>
            <path class="cls-34" d="M296.6,509v16.9h5.9v-16.9c0-.7-.6-1.2-1.2-1.2h-3.4c-.7,0-1.3.6-1.3,1.2Z"/>
            <path class="cls-34" d="M287.9,509v16.9h5.9v-16.9c0-.7-.6-1.2-1.2-1.2h-3.4c-.7,0-1.3.6-1.3,1.2Z"/>
            <path class="cls-34" d="M279.3,509v16.9h5.9v-16.9c0-.7-.6-1.2-1.2-1.2h-3.4c-.8,0-1.3.6-1.3,1.2Z"/>
            <path class="cls-34" d="M270.6,509v16.9h5.9v-16.9c0-.7-.6-1.2-1.2-1.2h-3.4c-.8,0-1.3.6-1.3,1.2Z"/>
            <path class="cls-34" d="M261.9,509v16.9h5.9v-16.9c0-.7-.6-1.2-1.2-1.2h-3.4c-.8,0-1.3.6-1.3,1.2Z"/>
          </g>
          <g>
            <path class="cls-34" d="M267.7,618.8v-16.9h-5.9v16.9c0,.7.6,1.2,1.2,1.2h3.4c.8,0,1.3-.5,1.3-1.2Z"/>
            <path class="cls-34" d="M276.4,618.8v-16.9h-5.9v16.9c0,.7.6,1.2,1.2,1.2h3.4c.8,0,1.3-.5,1.3-1.2Z"/>
            <path class="cls-34" d="M285.1,618.8v-16.9h-5.9v16.9c0,.7.6,1.2,1.2,1.2h3.4c.8,0,1.3-.5,1.3-1.2Z"/>
            <path class="cls-34" d="M293.8,618.8v-16.9h-5.9v16.9c0,.7.6,1.2,1.2,1.2h3.4c.8,0,1.3-.5,1.3-1.2Z"/>
            <path class="cls-34" d="M302.5,618.8v-16.9h-5.9v16.9c0,.7.6,1.2,1.2,1.2h3.4c.8,0,1.3-.5,1.3-1.2Z"/>
            <path class="cls-34" d="M311.2,618.8v-16.9h-5.9v16.9c0,.7.6,1.2,1.2,1.2h3.4c.8,0,1.3-.5,1.3-1.2Z"/>
            <path class="cls-34" d="M319.9,618.8v-16.9h-5.9v16.9c0,.7.6,1.2,1.2,1.2h3.4c.7,0,1.3-.5,1.3-1.2Z"/>
            <path class="cls-34" d="M328.6,618.8v-16.9h-5.9v16.9c0,.7.6,1.2,1.2,1.2h3.4c.7,0,1.3-.5,1.3-1.2Z"/>
          </g>
          <g>
            <path class="cls-34" d="M350.1,591.1h-16.9v5.9h16.9c.7,0,1.2-.6,1.2-1.2v-3.4c0-.7-.5-1.3-1.2-1.3Z"/>
            <path class="cls-34" d="M350.1,582.4h-16.9v5.9h16.9c.7,0,1.2-.6,1.2-1.2v-3.4c0-.7-.5-1.3-1.2-1.3Z"/>
            <path class="cls-34" d="M350.1,573.7h-16.9v5.9h16.9c.7,0,1.2-.6,1.2-1.2v-3.4c0-.7-.5-1.3-1.2-1.3Z"/>
            <path class="cls-34" d="M350.1,565.1h-16.9v5.9h16.9c.7,0,1.2-.6,1.2-1.2v-3.4c0-.8-.5-1.3-1.2-1.3Z"/>
            <path class="cls-34" d="M350.1,556.4h-16.9v5.9h16.9c.7,0,1.2-.6,1.2-1.2v-3.4c0-.8-.5-1.3-1.2-1.3Z"/>
            <path class="cls-34" d="M350.1,547.7h-16.9v5.9h16.9c.7,0,1.2-.6,1.2-1.2v-3.4c0-.8-.5-1.3-1.2-1.3Z"/>
            <path class="cls-34" d="M350.1,539h-16.9v5.9h16.9c.7,0,1.2-.6,1.2-1.2v-3.4c0-.8-.5-1.3-1.2-1.3Z"/>
            <path class="cls-34" d="M350.1,530.3h-16.9v5.9h16.9c.7,0,1.2-.6,1.2-1.2v-3.4c0-.8-.5-1.3-1.2-1.3Z"/>
          </g>
        </g>
        <path class="cls-3" d="M247,689.1v7.2c0,1.3,0,2.5-.1,3.5,0,.8-.2,1.6-.4,2.4-.2.7-.5,1.3-.8,1.9-.5.7-1,1.4-1.6,2-.6.7-1.5,1.2-2.5,1.6-1.1.3-2.3.5-3.7.5h-6v-7.4h3.7c.5,0,.9,0,1.4-.2.3,0,.6-.3.9-.6.2-.3.4-.7.5-1.1.1-.6.2-1.2.2-1.7v-7.9h8.4v-.2ZM232.6,712.5h95v3.1h-95v-3.1ZM247,677.2v7.4h-8.5v-7.4h8.5ZM267.3,676.6c1.1,0,2.3,0,3.4.3,1,.2,2.1.5,3.1.9s1.9.9,2.7,1.4c.9.6,1.7,1.2,2.4,2,.7.7,1.4,1.6,1.9,2.4.6.9,1,1.8,1.4,2.7.4,1,.7,2,.8,3.1.2,1.1.3,2.3.3,3.4s-.1,2.2-.3,3.3c-.2,1-.5,2-.8,3-.4.9-.8,1.9-1.4,2.7-.6.9-1.2,1.7-1.9,2.4-.7.7-1.5,1.4-2.4,2-.8.6-1.7,1-2.7,1.4s-2,.7-3,.9c-1.1.2-2.2.3-3.3.3s-2.3,0-3.4-.3c-1-.2-2.1-.5-3.1-.8-1-.4-1.9-.8-2.7-1.4-1.7-1.1-3.2-2.6-4.4-4.4-.6-.9-1-1.8-1.4-2.7-.4-1-.7-2-.9-3-.4-2.2-.4-4.5,0-6.7.2-1,.5-2.1.9-3,.4-1,.8-1.9,1.4-2.7.6-.9,1.2-1.7,2-2.5.7-.8,1.5-1.4,2.4-2,.8-.6,1.7-1.1,2.7-1.4,1-.4,2-.7,3-.9,1.1-.3,2.2-.4,3.3-.4h0ZM267.3,683.7c-1,0-2,.2-3,.6-.9.4-1.6,1-2.2,1.8s-1.1,1.8-1.4,2.8c-.3,1.1-.5,2.3-.5,3.7s.1,2.5.5,3.8c.3,1,.8,2,1.4,2.9.6.8,1.4,1.4,2.3,1.8.9.4,1.9.6,3,.6s2-.2,3-.6c.9-.4,1.6-1,2.2-1.8.6-.9,1.1-1.8,1.4-2.8.3-1.1.5-2.4.5-3.8s-.1-2.5-.5-3.7c-.3-1-.8-2-1.4-2.8s-1.4-1.4-2.3-1.8c-.9-.5-1.9-.7-3-.7h0ZM286.8,677.2h8.5v7.7c0,1.6.3,2.8.9,3.6s1.6,1.2,2.8,1.2,2.3-.4,2.9-1.3,1-2.1,1-3.8v-7.4h8.4v5.4c0,1.3-.1,2.5-.2,3.6-.1.9-.2,1.8-.5,2.7s-.6,1.7-1.1,2.5c-.6,1-1.3,1.9-2,2.7-.4.5-.9.9-1.5,1.3-.6.4-1.2.7-1.9.9-.8.3-1.6.4-2.4.5-.9,0-1.9.2-2.8.2s-1.8,0-2.7-.2c-.8,0-1.5-.3-2.3-.5-.7-.2-1.3-.5-1.9-.9-.5-.3-1-.7-1.5-1.2-.8-.8-1.5-1.7-2.1-2.6-.5-.7-.9-1.5-1.2-2.4-.3-.9-.4-1.8-.5-2.7-.1-1.1-.2-2.3-.2-3.4l.3-5.9ZM306.1,700.8v7.4h-14.2v-7.4h14.2ZM310.1,670.4h56.8v2.9h-56.8v-2.9ZM313.7,690.7h18.3v7.3h-18.3v-7.3ZM343.7,677.2v7.4h-8.5v-7.4h8.5ZM343.7,689.1v19.1h-8.5v-19.1h8.5ZM368.2,677.2v7.4h-19.9v-7.4h19.9ZM349.7,689.1h8.4v7.7c0,.7,0,1.3.2,2,.1.5.3.9.5,1.2.2.2.6.4,1.1.6.6,0,1.2.2,1.8.2h5.5v7.4h-7.9c-.8,0-1.6,0-2.3-.2-.7,0-1.4-.3-2-.5s-1.1-.5-1.7-.8c-.5-.3-.9-.7-1.3-1.1-.4-.4-.7-.9-1-1.5s-.5-1.2-.7-1.9c-.2-.8-.3-1.5-.4-2.3-.1-.9-.1-1.8-.1-2.7v-8.1Z"/>
        <rect class="cls-31" x="203.1" y="523.5" width="21.5" height="9.8"/>
        <rect class="cls-31" x="349.4" y="401.4" width="9.8" height="21.5"/>
        <g>
          <path class="cls-17" d="M316,344.1h-45.5c-1.4,0-2.5-1.1-2.5-2.5v-34.3c0-1.4,1.1-2.5,2.5-2.5h45.5c1.4,0,2.5,1.1,2.5,2.5v34.3c0,1.4-1.1,2.5-2.5,2.5Z"/>
          <circle class="cls-1" cx="272.2" cy="336.1" r="2.7"/>
          <g>
            <path class="cls-34" d="M276.4,356.3v-12.2h-6.1v12.2c0,.7.6,1.2,1.2,1.2h3.6c.7.1,1.3-.5,1.3-1.2Z"/>
            <path class="cls-34" d="M289.7,356.3v-12.2h-6.1v12.2c0,.7.6,1.2,1.2,1.2h3.6c.7.1,1.3-.5,1.3-1.2Z"/>
            <path class="cls-34" d="M303,356.3v-12.2h-6.1v12.2c0,.7.6,1.2,1.2,1.2h3.6c.7.1,1.3-.5,1.3-1.2Z"/>
            <path class="cls-34" d="M316.3,356.3v-12.2h-6.1v12.2c0,.7.6,1.2,1.2,1.2h3.6c.7.1,1.3-.5,1.3-1.2Z"/>
          </g>
          <g>
            <path class="cls-34" d="M310.2,292.6v12.2h6.1v-12.2c0-.7-.6-1.2-1.2-1.2h-3.6c-.8,0-1.3.5-1.3,1.2Z"/>
            <path class="cls-34" d="M296.9,292.6v12.2h6.1v-12.2c0-.7-.6-1.2-1.2-1.2h-3.6c-.8,0-1.3.5-1.3,1.2Z"/>
            <path class="cls-34" d="M283.6,292.6v12.2h6.1v-12.2c0-.7-.6-1.2-1.2-1.2h-3.6c-.7,0-1.3.5-1.3,1.2Z"/>
            <path class="cls-34" d="M270.3,292.6v12.2h6.1v-12.2c0-.7-.6-1.2-1.2-1.2h-3.6c-.7,0-1.3.5-1.3,1.2Z"/>
          </g>
        </g>
        <g>
          <g>
            <path class="cls-34" d="M232.4,332.6v-12.2h-9.6v12.2c0,.7.6,1.2,1.2,1.2h7.1c.7,0,1.3-.5,1.3-1.2Z"/>
            <path class="cls-34" d="M252,332.6v-12.2h-9.6v12.2c0,.7.6,1.2,1.2,1.2h7.1c.8,0,1.3-.5,1.3-1.2Z"/>
          </g>
          <g>
            <path class="cls-34" d="M223.9,291.9v12.2h6.1v-12.2c0-.7-.6-1.2-1.2-1.2h-3.6c-.8,0-1.3.5-1.3,1.2Z"/>
            <path class="cls-34" d="M234.4,291.9v12.2h6.1v-12.2c0-.7-.6-1.2-1.2-1.2h-3.6c-.8,0-1.3.5-1.3,1.2Z"/>
            <path class="cls-34" d="M244.9,291.9v12.2h6.1v-12.2c0-.7-.6-1.2-1.2-1.2h-3.6c-.8,0-1.3.5-1.3,1.2Z"/>
          </g>
          <path class="cls-17" d="M251.9,320.4h-29c-.4,0-.7-.3-.7-.7v-14.8c0-.4.3-.7.7-.7h29c.4,0,.7.3.7.7v14.8c0,.4-.3.7-.7.7Z"/>
        </g>
        <rect class="cls-31" x="227.8" y="346.3" width="21.5" height="9.8"/>
        <g>
          <rect class="cls-17" x="365.5" y="281.7" width="34.4" height="107"/>
          <g>
            <path class="cls-34" d="M348.6,290.1h16.9v-5.9h-16.9c-.7,0-1.2.6-1.2,1.2v3.4c0,.8.5,1.3,1.2,1.3Z"/>
            <path class="cls-34" d="M348.6,303.9h16.9v-5.9h-16.9c-.7,0-1.2.6-1.2,1.2v3.4c0,.7.5,1.3,1.2,1.3Z"/>
            <path class="cls-34" d="M348.6,317.6h16.9v-5.9h-16.9c-.7,0-1.2.6-1.2,1.2v3.4c0,.7.5,1.3,1.2,1.3Z"/>
            <path class="cls-34" d="M348.6,331.3h16.9v-5.9h-16.9c-.7,0-1.2.6-1.2,1.2v3.4c0,.8.5,1.3,1.2,1.3Z"/>
            <path class="cls-34" d="M348.6,345h16.9v-5.9h-16.9c-.7,0-1.2.6-1.2,1.2v3.4c0,.8.5,1.3,1.2,1.3Z"/>
            <path class="cls-34" d="M348.6,358.8h16.9v-5.9h-16.9c-.7,0-1.2.6-1.2,1.2v3.4c0,.7.5,1.3,1.2,1.3Z"/>
            <path class="cls-34" d="M348.6,372.5h16.9v-5.9h-16.9c-.7,0-1.2.6-1.2,1.2v3.4c0,.7.5,1.3,1.2,1.3Z"/>
            <path class="cls-34" d="M348.6,386.2h16.9v-5.9h-16.9c-.7,0-1.2.6-1.2,1.2v3.4c0,.8.5,1.3,1.2,1.3Z"/>
          </g>
          <g>
            <path class="cls-34" d="M416.8,380.3h-16.9v5.9h16.9c.7,0,1.2-.6,1.2-1.2v-3.4c0-.7-.6-1.3-1.2-1.3Z"/>
            <path class="cls-34" d="M416.8,366.6h-16.9v5.9h16.9c.7,0,1.2-.6,1.2-1.2v-3.4c0-.7-.6-1.3-1.2-1.3Z"/>
            <path class="cls-34" d="M416.8,352.9h-16.9v5.9h16.9c.7,0,1.2-.6,1.2-1.2v-3.4c0-.8-.6-1.3-1.2-1.3Z"/>
            <path class="cls-34" d="M416.8,339.2h-16.9v5.9h16.9c.7,0,1.2-.6,1.2-1.2v-3.4c0-.8-.6-1.3-1.2-1.3Z"/>
            <path class="cls-34" d="M416.8,325.4h-16.9v5.9h16.9c.7,0,1.2-.6,1.2-1.2v-3.4c0-.7-.6-1.3-1.2-1.3Z"/>
            <path class="cls-34" d="M416.8,311.7h-16.9v5.9h16.9c.7,0,1.2-.6,1.2-1.2v-3.4c0-.7-.6-1.3-1.2-1.3Z"/>
            <path class="cls-34" d="M416.8,298h-16.9v5.9h16.9c.7,0,1.2-.6,1.2-1.2v-3.4c0-.8-.6-1.3-1.2-1.3Z"/>
            <path class="cls-34" d="M416.8,284.3h-16.9v5.9h16.9c.7,0,1.2-.6,1.2-1.2v-3.4c0-.8-.6-1.3-1.2-1.3Z"/>
          </g>
          <circle class="cls-1" cx="391.8" cy="378.9" r="4.9"/>
        </g>
        <rect class="cls-31" x="438.7" y="334.2" width="21.5" height="9.8"/>
        <g>
          <rect class="cls-6" x="440.9" y="351" width="17.2" height="10.7"/>
          <rect class="cls-17" x="443.7" y="351" width="11.8" height="10.7"/>
        </g>
        <g>
          <rect class="cls-6" x="440.9" y="368.6" width="17.2" height="10.7"/>
          <rect class="cls-17" x="443.7" y="368.6" width="11.8" height="10.7"/>
        </g>
        <g>
          <rect class="cls-6" x="397.2" y="216.5" width="10.7" height="17.2"/>
          <rect class="cls-17" x="397.2" y="219.1" width="10.7" height="11.8"/>
        </g>
        <g>
          <rect class="cls-6" x="412.8" y="216.4" width="10.7" height="17.2"/>
          <rect class="cls-17" x="412.8" y="218.9" width="10.7" height="11.8"/>
        </g>
        <path class="cls-34" d="M323.3,265.1v-12.2h-11.5v12.2c0,.7.6,1.2,1.2,1.2h9c.7,0,1.3-.5,1.3-1.2Z"/>
        <g>
          <rect class="cls-5" x="274.7" y="134.6" width="51.5" height="35.1"/>
          <rect class="cls-14" x="287.1" y="134.6" width="26.7" height="35.1"/>
        </g>
        <g>
          <path class="cls-23" d="M370,100.5h87.6c2.7,1.4,4.4,4.2,4.4,7.3v70.1c0,1-.8,1.8-1.8,1.8h-92.8c-1,0-1.8-.8-1.8-1.8v-70.1c0-3.1,1.7-5.9,4.4-7.3Z"/>
          <g>
            <path class="cls-21" d="M444.8,173.8h0c0-1.3-1.1-2.4-2.4-2.4h-9.9c-.8,0-1.5-.7-1.5-1.5v-2.1c0-.8.7-1.5,1.5-1.5h9.9c1.3,0,2.4-1.1,2.4-2.4h0c0-1.3-1.1-2.4-2.4-2.4h-14c-1.3,0-2.4,1.1-2.4,2.4v10c0,1.3,1.1,2.4,2.4,2.4h14c1.3-.1,2.4-1.1,2.4-2.5Z"/>
            <path class="cls-21" d="M382.9,163.8h0c0,1.3,1.1,2.4,2.4,2.4h9.9c.8,0,1.5.7,1.5,1.5v2.1c0,.8-.7,1.5-1.5,1.5h-9.9c-1.3,0-2.4,1.1-2.4,2.4h0c0,1.3,1.1,2.4,2.4,2.4h14c1.3,0,2.4-1.1,2.4-2.4v-10c0-1.3-1.1-2.4-2.4-2.4h-14c-1.3,0-2.4,1.2-2.4,2.5Z"/>
          </g>
        </g>
        <g>
          <path class="cls-17" d="M266.5,218.4h-67.1c-.7,0-1.2-.5-1.2-1.2v-34.6c0-.7.5-1.2,1.2-1.2h67.1c.7,0,1.2.5,1.2,1.2v34.6c-.1.7-.6,1.2-1.2,1.2Z"/>
          <g>
            <path class="cls-34" d="M210.4,235.3v-16.9h-5.9v16.9c0,.7.6,1.2,1.2,1.2h3.4c.8,0,1.3-.5,1.3-1.2Z"/>
            <path class="cls-34" d="M235.8,235.3v-16.9h-5.9v16.9c0,.7.6,1.2,1.2,1.2h3.4c.8,0,1.3-.5,1.3-1.2Z"/>
            <path class="cls-34" d="M261.2,235.3v-16.9h-5.9v16.9c0,.7.6,1.2,1.2,1.2h3.4c.7,0,1.3-.5,1.3-1.2Z"/>
          </g>
          <path class="cls-34" d="M214.1,155.9v25.6h34.3v-25.6c0-.7-.6-1.2-1.2-1.2h-31.8c-.7,0-1.3.5-1.3,1.2Z"/>
        </g>
        <rect class="cls-17" x="150.4" y="259.6" width="48.4" height="27.1"/>
        <g>
          <rect class="cls-23" x="16" y="302.8" width="20" height="20"/>
          <circle class="cls-20" cx="26" cy="312.8" r="7.4"/>
          <rect class="cls-23" x="16" y="331.4" width="20" height="20"/>
          <circle class="cls-20" cx="26" cy="341.4" r="7.4"/>
          <rect class="cls-23" x="16" y="360.1" width="20" height="20"/>
          <circle class="cls-20" cx="26" cy="370.1" r="7.4"/>
          <rect class="cls-23" x="16" y="388.7" width="20" height="20"/>
          <circle class="cls-20" cx="26" cy="398.8" r="7.4"/>
        </g>
        <g>
          <rect class="cls-13" x="9.3" y="415.2" width="33.4" height="240.9"/>
          <rect x="16.2" y="417.8" width="19.6" height="19.6"/>
          <rect x="16.2" y="448.3" width="19.6" height="19.6"/>
          <rect x="16.2" y="478.9" width="19.6" height="19.6"/>
          <rect x="16.2" y="509.4" width="19.6" height="19.6"/>
          <rect x="16.2" y="539.9" width="19.6" height="19.6"/>
          <rect x="16.2" y="570.4" width="19.6" height="19.6"/>
          <rect x="16.2" y="600.9" width="19.6" height="19.6"/>
          <rect x="16.2" y="631.4" width="19.6" height="19.6"/>
        </g>
        <g>
          <rect class="cls-13" x="9.3" y="661.7" width="33.4" height="178.8"/>
          <g>
            <rect x="16.2" y="665" width="19.6" height="19.6"/>
            <rect x="16.2" y="695.5" width="19.6" height="19.6"/>
            <rect x="16.2" y="726" width="19.6" height="19.6"/>
            <rect x="16.2" y="756.5" width="19.6" height="19.6"/>
            <rect x="16.2" y="787" width="19.6" height="19.6"/>
            <rect x="16.2" y="817.5" width="19.6" height="19.6"/>
          </g>
        </g>
        <g>
          <path class="cls-3" d="M50.3,453.3h2.5v10.4h-2.5v-10.4Z"/>
          <path class="cls-3" d="M54.7,458.5c0-3.4,1.9-5.4,4.8-5.4s4.8,2,4.8,5.4-1.9,5.4-4.8,5.4-4.8-2-4.8-5.4ZM61.7,458.5c0-2-.8-3.2-2.2-3.2s-2.2,1.2-2.2,3.2.9,3.3,2.2,3.3,2.2-1.3,2.2-3.3Z"/>
          <path class="cls-3" d="M66.2,453.3h3.8c2.2,0,4.1.8,4.1,3.3s-.7,2.5-1.8,3l2.3,4.1h-2.8l-1.9-3.7h-1.2v3.7h-2.5v-10.4ZM69.9,458.1c1.2,0,1.8-.5,1.8-1.5s-.6-1.3-1.8-1.3h-1.1v2.8h1.1Z"/>
          <path class="cls-3" d="M76.1,453.3h6.6v2.1h-4.1v2h3.5v2.1h-3.5v2.2h4.3v2.1h-6.8v-10.5Z"/>
          <path class="cls-3" d="M84.9,453.3h6.7v2.1h-4.2v2.3h3.6v2.1h-3.6v4h-2.5v-10.5Z"/>
        </g>
        <g>
          <path class="cls-3" d="M51.6,483.8h3.8c2.2,0,4.1.8,4.1,3.3s-.7,2.5-1.8,3l2.3,4.1h-2.8l-1.9-3.7h-1.2v3.7h-2.5s0-10.4,0-10.4ZM55.2,488.6c1.2,0,1.8-.5,1.8-1.5s-.6-1.3-1.8-1.3h-1.1v2.8h1.1Z"/>
          <path class="cls-3" d="M61.5,483.8h6.5v2.1h-4.1v2h3.5v2.1h-3.5v2.2h4.3v2.1h-6.8v-10.5h0Z"/>
          <path class="cls-3" d="M69.6,492.9l1.3-1.6c.7.6,1.7,1,2.6,1s1.4-.4,1.4-.9-.6-.8-1.5-1.2l-1.3-.6c-1.1-.4-2.1-1.3-2.1-2.8s1.6-3.2,3.8-3.2,2.5.5,3.4,1.3l-1.3,1.6c-.7-.5-1.4-.8-2.1-.8s-1.3.3-1.3.8.7.8,1.6,1.2l1.3.5c1.3.5,2.1,1.4,2.1,2.8s-1.5,3.3-4,3.3c-1.4.2-2.8-.3-3.9-1.4Z"/>
          <path class="cls-3" d="M79.2,483.8h6.6v2.1h-4.1v2h3.5v2.1h-3.5v2.2h4.3v2.1h-6.8v-10.5Z"/>
          <path class="cls-3" d="M90,485.9h-2.8v-2.1h8.1v2.1h-2.8v8.3h-2.5v-8.3Z"/>
        </g>
        <g>
          <path class="cls-3" d="M51.9,523.5l1.1-1.6c.6.6,1.4,1,2.2,1s1.6-.4,1.6-1.2-.5-1.4-2.7-1.4v-1.8c1.8,0,2.3-.5,2.3-1.4s-.4-1.1-1.2-1.1-1.2.3-1.9.9l-1.2-1.5c.9-.8,2-1.3,3.2-1.3,2.2,0,3.6,1,3.6,2.9s-.6,1.8-1.7,2.3h0c1.2.4,2,1.3,2,2.6,0,2-1.8,3-3.8,3-1.5,0-2.7-.5-3.5-1.4Z"/>
          <path class="cls-3" d="M61.1,523.4c0-.9.6-1.5,1.5-1.5s1.5.7,1.5,1.5-.6,1.5-1.5,1.5c-.9,0-1.5-.6-1.5-1.5Z"/>
          <path class="cls-3" d="M65.4,523.5l1.1-1.6c.6.6,1.4,1,2.2,1s1.6-.4,1.6-1.2-.5-1.4-2.7-1.4v-1.8c1.8,0,2.3-.5,2.3-1.4s-.4-1.1-1.2-1.1-1.2.3-1.9.9l-1.2-1.5c.9-.8,2-1.3,3.2-1.3,2.2,0,3.6,1,3.6,2.9s-.6,1.8-1.7,2.3h0c1.2.4,2,1.3,2,2.6,0,2-1.8,3-3.8,3-1.6,0-2.8-.5-3.5-1.4Z"/>
          <path class="cls-3" d="M73.4,514.4h2.6l1.1,4.8c.3,1.1.5,2.2.8,3.3h0c.3-1.1.5-2.2.8-3.3l1.2-4.8h2.5l-3.2,10.4h-3l-2.9-10.4Z"/>
        </g>
        <g>
          <path class="cls-3" d="M53.2,554l1.1-1.6c.6.6,1.3,1,2.1,1s1.6-.6,1.6-1.6-.6-1.6-1.5-1.6-.9,0-1.5.5l-1-.7.3-5.2h5.8v2.1h-3.7v1.8c.3,0,.6-.2,1-.2,1.8,0,3.2,1,3.2,3.3s-1.8,3.7-3.8,3.7c-1.7,0-2.8-.6-3.6-1.5Z"/>
          <path class="cls-3" d="M61.2,544.9h2.6l1.1,4.8c.3,1.1.5,2.2.8,3.3h0c.3-1.1.5-2.2.8-3.3l1.2-4.8h2.5l-3.2,10.4h-3l-2.9-10.4Z"/>
        </g>
        <g>
          <path class="cls-3" d="M54.8,580.7c0-3.5,2.3-5.5,5.1-5.5s2.6.6,3.3,1.4l-1.3,1.5c-.5-.5-1.1-.7-1.9-.7-1.5,0-2.7,1.2-2.7,3.2s.9,3.3,2.9,3.3.8,0,1-.3v-1.7h-1.7v-2h3.9v4.9c-.7.7-2,1.3-3.5,1.3-2.8-.1-5.1-1.9-5.1-5.4Z"/>
          <path class="cls-3" d="M65.5,575.4h2.6l2.6,5c.4.7.7,1.5,1,2.4h0c0-1.1-.3-2.6-.3-3.8v-3.5h2.4v10.4h-2.6l-2.6-5c-.4-.7-.7-1.5-1-2.4h0c0,1.2.3,2.6.3,3.8v3.5h-2.4v-10.4Z"/>
          <path class="cls-3" d="M76.2,575.4h3c3.2,0,5.3,1.6,5.3,5.2s-2.1,5.2-5.1,5.2h-3.1v-10.4h-.1ZM79,583.8c1.7,0,2.9-.8,2.9-3.2s-1.2-3.2-2.9-3.2h-.4v6.4h.4Z"/>
        </g>
        <g>
          <path class="cls-3" d="M56,611.2c0-3.5,2.3-5.5,5.1-5.5s2.6.6,3.3,1.4l-1.3,1.5c-.5-.5-1.1-.7-1.9-.7-1.5,0-2.7,1.2-2.7,3.2s.9,3.3,2.9,3.3.8,0,1-.3v-1.7h-1.7v-2h3.9v4.9c-.7.7-2,1.3-3.5,1.3-2.8-.1-5.1-1.9-5.1-5.4Z"/>
          <path class="cls-3" d="M66.7,605.9h2.6l2.6,5c.4.7.7,1.5,1,2.4h.1c0-1.1-.3-2.6-.3-3.8v-3.5h2.3v10.4h-2.6l-2.6-5c-.4-.7-.7-1.5-1-2.4h0c0,1.2.3,2.6.3,3.8v3.5h-2.4v-10.4h0Z"/>
          <path class="cls-3" d="M77.4,605.9h3c3.2,0,5.3,1.6,5.3,5.2s-2.1,5.2-5.1,5.2h-3.1v-10.4h-.1ZM80.3,614.3c1.7,0,2.9-.8,2.9-3.2s-1.2-3.2-2.9-3.2h-.4v6.4h.4Z"/>
        </g>
        <g>
          <path class="cls-3" d="M56.4,636.4h2.6l1.1,4.8c.3,1.1.5,2.2.8,3.3h.1c.3-1.1.5-2.2.8-3.3l1.2-4.8h2.5l-3.2,10.4h-3l-2.9-10.4Z"/>
          <path class="cls-3" d="M66.7,636.4h2.5v10.4h-2.5v-10.4Z"/>
          <path class="cls-3" d="M71.6,636.4h2.6l2.6,5c.4.7.7,1.5,1,2.4h0c0-1.1-.3-2.6-.3-3.8v-3.5h2.4v10.4h-2.6l-2.6-5c-.4-.7-.7-1.5-1-2.4h0c0,1.2.3,2.6.3,3.8v3.5h-2.4v-10.4Z"/>
        </g>
        <g>
          <path class="cls-3" d="M60.9,670h3l3.2,10.4h-2.6l-.6-2.4h-3.1l-.6,2.4h-2.5l3.2-10.4ZM61.3,676.1h2.1l-.2-.9c-.3-1-.5-2.3-.8-3.3h0c-.3,1.1-.5,2.3-.8,3.3l-.2.9Z"/>
          <path class="cls-3" d="M67.5,675.2c0-3.6,1.5-5.4,3.7-5.4s3.7,1.8,3.7,5.4-1.5,5.4-3.7,5.4-3.7-1.9-3.7-5.4ZM72.6,675.2c0-2.8-.6-3.5-1.3-3.5s-1.3.6-1.3,3.5.6,3.5,1.3,3.5,1.3-.7,1.3-3.5Z"/>
        </g>
        <g>
          <path class="cls-3" d="M62.1,700.5h3l3.2,10.4h-2.6l-.6-2.4h-3.1l-.6,2.4h-2.5l3.2-10.4ZM62.5,706.6h2.1l-.2-.9c-.3-1-.5-2.3-.8-3.3h0c-.3,1.1-.5,2.3-.8,3.3l-.2.9Z"/>
          <path class="cls-3" d="M69.3,708.9h2.2v-5.9h-1.9v-1.5c1.1-.2,1.8-.5,2.6-.9h1.8v8.4h1.9v2h-6.6v-2.1Z"/>
        </g>
        <g>
          <path class="cls-3" d="M63.3,731h3l3.2,10.4h-2.6l-.6-2.4h-3.1l-.6,2.4h-2.5l3.2-10.4ZM63.7,737.1h2.1l-.2-.9c-.3-1-.5-2.3-.8-3.3h0c-.3,1.1-.5,2.3-.8,3.3l-.2.9Z"/>
          <path class="cls-3" d="M70,739.9c2.7-2.3,4.4-4.2,4.4-5.6s-.5-1.5-1.4-1.5-1.3.5-1.8,1l-1.3-1.3c1-1.1,1.9-1.7,3.4-1.7s3.4,1.3,3.4,3.3-1.7,3.8-3.3,5.4c.5,0,1.2,0,1.7,0h2.1v2.1h-7.2v-1.6Z"/>
        </g>
        <g>
          <path class="cls-3" d="M64.6,761.5h3l3.2,10.4h-2.6l-.6-2.4h-3.1l-.6,2.4h-2.5l3.2-10.4ZM65,767.6h2.1l-.2-.9c-.3-1-.5-2.3-.8-3.3h0c-.3,1.1-.5,2.3-.8,3.3l-.2.9Z"/>
          <path class="cls-3" d="M71,770.7l1.1-1.6c.6.6,1.4,1,2.2,1s1.6-.4,1.6-1.2-.5-1.4-2.7-1.4v-1.8c1.8,0,2.3-.5,2.3-1.4s-.4-1.1-1.2-1.1-1.2.3-1.9.9l-1.2-1.5c.9-.8,2-1.3,3.2-1.3,2.2,0,3.6,1,3.6,2.9s-.6,1.8-1.7,2.3h0c1.2.4,2,1.3,2,2.6,0,2-1.8,3-3.8,3-1.6,0-2.7-.5-3.5-1.4Z"/>
        </g>
        <g>
          <path class="cls-3" d="M65.8,792h3l3.2,10.4h-2.6l-.6-2.4h-3.1l-.6,2.4h-2.5l3.2-10.4ZM66.2,798.1h2.1l-.2-.9c-.3-1-.5-2.3-.8-3.3h0c-.3,1.1-.5,2.3-.8,3.3l-.2.9Z"/>
          <path class="cls-3" d="M76.6,799.9h-4.4v-1.7l3.6-6.1h3.1v5.9h1.2v1.9h-1.2v2.6h-2.3s0-2.6,0-2.6ZM76.6,798v-1.5c0-.7,0-1.6,0-2.3h0c-.3.6-.5,1.2-.8,1.8l-1.2,2.1h2Z"/>
          <path class="cls-3" d="M83.7,791.1h1.6l-3.1,13.9h-1.6l3.1-13.9Z"/>
          <path class="cls-3" d="M86.4,801.1l1.3-1.6c.7.6,1.7,1,2.6,1s1.4-.4,1.4-.9-.6-.8-1.5-1.2l-1.3-.6c-1.1-.4-2.1-1.3-2.1-2.8s1.6-3.2,3.8-3.2,2.5.5,3.4,1.3l-1.3,1.6c-.7-.5-1.4-.8-2.1-.8s-1.3.3-1.3.8.7.8,1.6,1.2l1.3.5c1.3.5,2.1,1.4,2.1,2.8s-1.5,3.3-4,3.3c-1.5.1-2.9-.3-3.9-1.4Z"/>
          <path class="cls-3" d="M95.9,792h3c3.2,0,5.3,1.6,5.3,5.2s-2.1,5.2-5.1,5.2h-3.1v-10.4h-.1ZM98.8,800.4c1.7,0,2.9-.8,2.9-3.2s-1.2-3.2-2.9-3.2h-.4v6.4h.4Z"/>
          <path class="cls-3" d="M107.9,792h3l3.2,10.4h-2.6l-.6-2.4h-3.1l-.6,2.4h-2.5l3.2-10.4ZM108.3,798.1h2.1l-.2-.9c-.3-1-.5-2.3-.8-3.3h0c-.3,1.1-.5,2.3-.8,3.3l-.2.9Z"/>
        </g>
        <g>
          <path class="cls-3" d="M67,819.5h3l3.2,10.4h-2.6l-.6-2.4h-3.1l-.6,2.4h-2.5l3.2-10.4ZM67.4,825.6h2.1l-.2-.9c-.3-1-.5-2.3-.8-3.3h0c-.3,1.1-.5,2.3-.8,3.3l-.2.9Z"/>
          <path class="cls-3" d="M73.5,828.6l1.1-1.6c.6.6,1.3,1,2.1,1s1.6-.6,1.6-1.6-.6-1.6-1.5-1.6-.9,0-1.5.5l-1.1-.7.3-5.2h5.8v2.1h-3.7v1.8c.3,0,.6-.2,1-.2,1.8,0,3.2,1,3.2,3.3s-1.8,3.7-3.8,3.7-2.7-.6-3.5-1.5Z"/>
          <path class="cls-3" d="M85,818.5h1.6l-3.1,13.9h-1.6l3.1-13.9Z"/>
          <path class="cls-3" d="M87.6,828.6l1.3-1.6c.7.6,1.7,1,2.6,1s1.4-.4,1.4-.9-.6-.8-1.5-1.2l-1.3-.6c-1.1-.4-2.1-1.3-2.1-2.8s1.6-3.2,3.8-3.2,2.5.5,3.4,1.3l-1.3,1.6c-.7-.5-1.4-.8-2.1-.8s-1.3.3-1.3.8.7.8,1.6,1.2l1.3.5c1.3.5,2.1,1.4,2.1,2.8s-1.5,3.3-4,3.3c-1.4.1-2.8-.4-3.9-1.4Z"/>
          <path class="cls-3" d="M96.7,824.8c0-3.5,2.3-5.5,5-5.5s2.4.6,3.2,1.4l-1.3,1.5c-.5-.5-1.1-.7-1.8-.7-1.4,0-2.5,1.2-2.5,3.2s1,3.3,2.4,3.3,1.5-.3,2-.9l1.3,1.5c-.9,1-2.1,1.5-3.4,1.5-2.7,0-4.9-1.8-4.9-5.3Z"/>
          <path class="cls-3" d="M106.5,819.5h2.5v8.3h4v2.1h-6.5v-10.4Z"/>
        </g>
        <g>
          <path class="cls-3" d="M119.5,512.6v3.7c0,2.3-.8,4.2-3.4,4.2s-3.6-1.9-3.6-4.1v-1.2h-3.5v-2.5h10.5ZM114.5,516.2c0,1.2.6,1.8,1.6,1.8s1.4-.7,1.4-1.9v-1h-3v1.1Z"/>
          <path class="cls-3" d="M114.3,521.7c3.4,0,5.4,1.9,5.4,4.8s-2,4.8-5.4,4.8-5.4-1.9-5.4-4.8,2-4.8,5.4-4.8ZM114.3,528.7c2,0,3.2-.8,3.2-2.2s-1.2-2.2-3.2-2.2-3.3.9-3.3,2.2,1.3,2.2,3.3,2.2Z"/>
          <path class="cls-3" d="M119.5,532.2v2.5l-4.8.7c-1.1,0-2.2.3-3.3.4h0c1.1.3,2.2.5,3.3.7l4.8,1.1v2.1l-4.8,1.1c-1.1.2-2.2.4-3.3.6h0c1.2.2,2.3.4,3.3.5l4.8.7v2.4l-10.4-1.8v-3.2l4.6-.9c.8-.2,1.6-.3,2.5-.4h0c-.8-.2-1.6-.3-2.5-.5l-4.6-.9v-3.1l10.4-2Z"/>
          <path class="cls-3" d="M119.5,546.3v6.6h-2.1v-4.1h-2v3.5h-2.1v-3.5h-2.2v4.3h-2.1v-6.8h10.5Z"/>
          <path class="cls-3" d="M119.5,555.1v3.8c0,2.2-.8,4.1-3.3,4.1s-2.5-.7-3-1.8l-4.1,2.3v-2.8l3.7-1.9v-1.2h-3.7v-2.5h10.4ZM114.7,558.7c0,1.2.5,1.8,1.5,1.8s1.3-.6,1.3-1.8v-1.1h-2.8v1.1Z"/>
        </g>
        <g>
          <path class="cls-3" d="M119.5,715v3l-10.4,3.2v-2.6l2.4-.6v-3.1l-2.4-.6v-2.5l10.4,3.2ZM113.4,715.3v2.1l.9-.2c1-.3,2.3-.5,3.3-.8h0c-1.1-.4-2.3-.6-3.3-.9l-.9-.2Z"/>
          <path class="cls-3" d="M119.5,722.3v2.6l-5,2.6c-.7.4-1.5.7-2.4,1h0c1.1,0,2.6-.2,3.8-.2h3.5v2.4h-10.4v-2.7l5-2.6c.7-.4,1.5-.7,2.4-1h0c-1.2,0-2.6.2-3.8.2h-3.5v-2.4h10.4Z"/>
          <path class="cls-3" d="M119.5,734.9v3l-10.4,3.2v-2.6l2.4-.6v-3.1l-2.4-.6v-2.5l10.4,3.2ZM113.4,735.2v2.1l.9-.2c1-.3,2.3-.5,3.3-.8h0c-1.1-.4-2.3-.6-3.3-.9l-.9-.2Z"/>
          <path class="cls-3" d="M119.5,742.1v2.5h-8.3v4h-2.1v-6.5h10.4Z"/>
          <path class="cls-3" d="M114.3,749.4c3.4,0,5.4,1.9,5.4,4.8s-2,4.8-5.4,4.8-5.4-1.9-5.4-4.8,2-4.8,5.4-4.8ZM114.3,756.4c2,0,3.2-.8,3.2-2.2s-1.2-2.2-3.2-2.2-3.3.9-3.3,2.2,1.3,2.2,3.3,2.2Z"/>
          <path class="cls-3" d="M114.2,760.4c3.5,0,5.5,2.3,5.5,5.1s-.6,2.6-1.4,3.3l-1.5-1.3c.5-.5.7-1.1.7-1.9,0-1.5-1.2-2.7-3.2-2.7s-3.3.9-3.3,2.9,0,.8.3,1h1.7v-1.7h2v3.9h-4.9c-.7-.7-1.3-2-1.3-3.5.1-2.8,1.9-5.1,5.4-5.1Z"/>
          <path class="cls-3" d="M119.5,774.3v2.5h-10.4v-2.5h10.4Z"/>
          <path class="cls-3" d="M119.5,779.2v2.6l-5,2.6c-.7.4-1.5.7-2.4,1h0c1.1,0,2.6-.2,3.8-.2h3.5v2.4h-10.4v-2.6l5-2.6c.7-.4,1.5-.7,2.4-1h0c-1.2,0-2.6.2-3.8.2h-3.5v-2.4h10.4Z"/>
        </g>
        <path class="cls-29" d="M126,830.2h0c-1.3,0-2.3-1-2.3-2.3v-155.3c0-1.3,1-2.3,2.3-2.3h0c1.3,0,2.3,1,2.3,2.3v155.3c0,1.3-1,2.3-2.3,2.3Z"/>
        <path class="cls-29" d="M126,631.4h0c-1.3,0-2.3-1-2.3-2.3v-183.1c0-1.3,1-2.3,2.3-2.3h0c1.3,0,2.3,1,2.3,2.3v183.2c0,1.2-1,2.2-2.3,2.2Z"/>
        <g>
          <g>
            <polygon class="cls-28" points="292.3 820.3 288.7 820.3 288.6 820.3 285 820.3 276.5 828.7 276.5 861.8 285 870.3 288.6 870.3 288.7 870.3 292.3 870.3 300.8 861.8 300.8 828.7 292.3 820.3"/>
            <g>
              <rect class="cls-19" x="285.5" y="829.9" width="6.2" height="6.2"/>
              <rect class="cls-19" x="285.5" y="854.5" width="6.2" height="6.2"/>
            </g>
          </g>
          <g>
            <polygon class="cls-28" points="316.5 820.3 312.9 820.3 312.8 820.3 309.2 820.3 300.8 828.7 300.8 861.8 309.2 870.3 312.8 870.3 312.9 870.3 316.5 870.3 325 861.8 325 828.7 316.5 820.3"/>
            <g>
              <rect class="cls-19" x="309.8" y="829.9" width="6.2" height="6.2"/>
              <rect class="cls-19" x="309.8" y="854.5" width="6.2" height="6.2"/>
            </g>
          </g>
          <g>
            <polygon class="cls-28" points="340.7 820.3 337.1 820.3 337.1 820.3 333.4 820.3 325 828.7 325 861.8 333.4 870.3 337.1 870.3 337.1 870.3 340.7 870.3 349.2 861.8 349.2 828.7 340.7 820.3"/>
            <g>
              <rect class="cls-19" x="334" y="829.9" width="6.2" height="6.2"/>
              <rect class="cls-19" x="334" y="854.5" width="6.2" height="6.2"/>
            </g>
          </g>
        </g>
        <path class="cls-29" d="M270.5,808.8c-1.3,0-2.3,1-2.3,2.3v58.5c0,1.3,1,2.3,2.3,2.3h0c1.3,0,2.3-1,2.3-2.3v-53.9c0-1.3,1-2.3,2.3-2.3h75.6c1.3,0,2.3,1,2.3,2.3v53.9c0,1.3,1,2.3,2.3,2.3h0c1.3,0,2.3-1,2.3-2.3v-58.5c0-1.3-1-2.3-2.3-2.3h-84.8Z"/>
        <path class="cls-29" d="M467.4,828.9h0c-1.3,0-2.3-1-2.3-2.3v-390.2c0-1.3,1-2.3,2.3-2.3h0c1.3,0,2.3,1,2.3,2.3v390.2c0,1.3-1.1,2.3-2.3,2.3Z"/>
        <g>
          <path class="cls-3" d="M486.5,575.8v3c0,3.2-1.6,5.3-5.2,5.3s-5.2-2.1-5.2-5.1v-3.1h10.4ZM478.1,578.6c0,1.7.8,2.9,3.2,2.9s3.2-1.2,3.2-2.9v-.4h-6.4v.4h0Z"/>
          <path class="cls-3" d="M486.5,586v2.5h-10.4v-2.5h10.4Z"/>
          <path class="cls-3" d="M481.2,590.4c3.5,0,5.5,2.3,5.5,5.1s-.6,2.6-1.4,3.3l-1.5-1.3c.5-.5.7-1.1.7-1.9,0-1.5-1.2-2.7-3.2-2.7s-3.3.9-3.3,2.9.1.8.3,1h1.7v-1.7h2v3.9h-4.9c-.7-.7-1.3-2-1.3-3.5,0-2.9,1.9-5.1,5.4-5.1Z"/>
          <path class="cls-3" d="M486.5,601.1v2.5h-10.4v-2.5h10.4Z"/>
          <path class="cls-3" d="M484.5,608v-2.8h2.1v8.1h-2.1v-2.8h-8.3v-2.5h8.3Z"/>
          <path class="cls-3" d="M486.5,616.2v3l-10.4,3.2v-2.6l2.4-.6v-3.1l-2.4-.6v-2.5l10.4,3.2ZM480.4,616.6v2.1l.9-.2c1-.3,2.3-.5,3.3-.8h0c-1.1-.4-2.3-.6-3.3-.9l-.9-.2Z"/>
          <path class="cls-3" d="M486.5,623.5v2.5h-8.3v4h-2.1v-6.5h10.4Z"/>
          <path class="cls-3" d="M480.6,635c2.8,0,5.1.8,7.3,2.1l-.6,1.6c-2.1-1.2-4.4-1.7-6.7-1.7s-4.6.5-6.7,1.7l-.6-1.6c2.1-1.3,4.4-2.1,7.3-2.1Z"/>
          <path class="cls-3" d="M486.5,640.6v3.7c0,2.3-.8,4.2-3.4,4.2s-3.6-1.9-3.6-4.1v-1.2h-3.5v-2.5h10.5ZM481.5,644.2c0,1.2.6,1.8,1.6,1.8s1.4-.7,1.4-1.9v-1h-3v1.1Z"/>
          <path class="cls-3" d="M486.5,649.2v2.5l-4.8.7c-1.1,0-2.2.3-3.3.4h0c1.1.3,2.2.5,3.3.7l4.8,1.1v2.1l-4.8,1.1c-1.1.2-2.2.4-3.3.6h0c1.2.2,2.3.4,3.3.5l4.8.7v2.4l-10.4-1.8v-3.2l4.6-.9c.8-.2,1.6-.3,2.5-.4h0c-.8-.2-1.6-.3-2.5-.5l-4.6-.9v-3.1l10.4-2Z"/>
          <path class="cls-3" d="M486.5,663.3v2.7l-4.5,1.6c-.6.2-1.2.4-1.9.6h0c.7.3,1.3.5,1.9.7l4.5,1.6v2.7h-10.4v-2.3h3.6c1,0,2.8.2,3.8.3h0c0,0-2.7-1-2.7-1l-3.8-1.4v-1.4l3.8-1.4,2.7-.8h0c-1,0-2.8.2-3.8.2h-3.6v-2.2h10.4Z"/>
          <path class="cls-3" d="M481.1,677.2c0-.4-.4-.8-.9-1.1l1-1.3c1.2.8,1.7,1.6,1.7,2.4,0,1.3-1.2,1.9-1.2,2.8s.4.8.9,1.1l-1,1.3c-1.2-.8-1.7-1.6-1.7-2.4,0-1.4,1.2-1.9,1.2-2.8Z"/>
          <path class="cls-3" d="M473.9,683.6c2.1,1.2,4.4,1.7,6.7,1.7s4.6-.5,6.7-1.7l.6,1.6c-2.2,1.3-4.5,2.1-7.3,2.1s-5.1-.8-7.3-2.1l.6-1.6Z"/>
        </g>
        <g>
          <rect class="cls-13" x="559" y="604.2" width="33.4" height="240.9"/>
          <rect x="565.9" y="606.8" width="19.6" height="19.6"/>
          <rect x="565.9" y="637.4" width="19.6" height="19.6"/>
          <rect x="565.9" y="667.9" width="19.6" height="19.6"/>
          <rect x="565.9" y="698.4" width="19.6" height="19.6"/>
          <rect x="565.9" y="728.9" width="19.6" height="19.6"/>
          <rect x="565.9" y="759.4" width="19.6" height="19.6"/>
          <rect x="565.9" y="789.9" width="19.6" height="19.6"/>
          <rect x="565.9" y="820.4" width="19.6" height="19.6"/>
        </g>
        <g>
          <rect class="cls-13" x="559" y="300.9" width="33.4" height="301.1"/>
          <rect x="565.9" y="365.6" width="19.6" height="19.6"/>
          <rect x="565.9" y="396.1" width="19.6" height="19.6"/>
          <rect x="565.9" y="426.6" width="19.6" height="19.6"/>
          <rect x="565.9" y="457.1" width="19.6" height="19.6"/>
          <rect x="565.9" y="487.6" width="19.6" height="19.6"/>
          <rect x="565.9" y="518.1" width="19.6" height="19.6"/>
          <rect x="565.9" y="548.7" width="19.6" height="19.6"/>
          <rect x="565.9" y="579.2" width="19.6" height="19.6"/>
          <rect x="565.9" y="335.1" width="19.6" height="19.6"/>
          <rect x="565.9" y="304.8" width="19.6" height="19.6"/>
        </g>
        <g>
          <g>
            <path class="cls-3" d="M508.8,309.8h3l3.2,10.4h-2.6l-.6-2.4h-3.1l-.6,2.4h-2.5l3.2-10.4ZM509.2,315.9h2.1l-.2-.9c-.3-1-.5-2.3-.8-3.3h-.1c-.3,1.1-.5,2.3-.8,3.3l-.2.9Z"/>
            <path class="cls-3" d="M515.2,319l1.1-1.6c.6.6,1.3,1,2.1,1s1.6-.6,1.6-1.6-.6-1.6-1.5-1.6-.9.1-1.5.5l-1-.7.3-5.2h5.8v2.1h-3.7v1.8c.3-.1.6-.2,1-.2,1.8,0,3.2,1,3.2,3.3s-1.8,3.7-3.8,3.7c-1.6,0-2.8-.7-3.6-1.5Z"/>
            <path class="cls-3" d="M526.7,308.9h1.6l-3.1,13.9h-1.6l3.1-13.9Z"/>
            <path class="cls-3" d="M529.3,318.9l1.3-1.6c.7.6,1.7,1,2.6,1s1.4-.4,1.4-.9-.6-.8-1.5-1.2l-1.3-.6c-1.1-.4-2.1-1.3-2.1-2.8s1.6-3.2,3.8-3.2,2.5.5,3.4,1.3l-1.3,1.6c-.7-.5-1.4-.8-2.1-.8s-1.3.3-1.3.8.7.8,1.6,1.2l1.3.5c1.3.5,2.1,1.4,2.1,2.8s-1.5,3.3-4,3.3c-1.4.1-2.8-.4-3.9-1.4Z"/>
            <path class="cls-3" d="M538.4,315.1c0-3.5,2.3-5.5,5-5.5s2.4.6,3.2,1.4l-1.3,1.5c-.5-.5-1.1-.7-1.8-.7-1.4,0-2.5,1.2-2.5,3.2s1,3.3,2.4,3.3,1.5-.3,2-.9l1.3,1.5c-.9,1-2.1,1.5-3.4,1.5-2.6,0-4.9-1.8-4.9-5.3Z"/>
            <path class="cls-3" d="M548.2,309.8h2.5v8.3h4v2.1h-6.5v-10.4Z"/>
          </g>
          <g>
            <path class="cls-3" d="M506.6,340.1h3l3.2,10.4h-2.6l-.6-2.4h-3.1l-.6,2.4h-2.5l3.2-10.4ZM507,346.2h2.1l-.2-.9c-.3-1-.5-2.3-.8-3.3h-.1c-.3,1.1-.5,2.3-.8,3.3l-.2.9Z"/>
            <path class="cls-3" d="M517.4,347.9h-4.4v-1.7l3.6-6.1h3.1v5.9h1.2v1.9h-1.2v2.6h-2.3v-2.6h0ZM517.4,346v-1.5c0-.7,0-1.6,0-2.3h0c-.3.6-.5,1.2-.8,1.8l-1.2,2.1h2Z"/>
            <path class="cls-3" d="M524.6,339.1h1.6l-3.1,13.9h-1.6l3.1-13.9Z"/>
            <path class="cls-3" d="M527.2,349.2l1.3-1.6c.7.6,1.7,1,2.6,1s1.4-.4,1.4-.9-.6-.8-1.5-1.2l-1.3-.6c-1.1-.4-2.1-1.3-2.1-2.8s1.6-3.2,3.8-3.2,2.5.5,3.4,1.3l-1.3,1.6c-.7-.5-1.4-.8-2.1-.8s-1.3.3-1.3.8.7.8,1.6,1.2l1.3.5c1.3.5,2.1,1.4,2.1,2.8s-1.5,3.3-4,3.3c-1.4.1-2.8-.4-3.9-1.4Z"/>
            <path class="cls-3" d="M536.8,340.1h3c3.2,0,5.3,1.6,5.3,5.2s-2.1,5.2-5.1,5.2h-3.1v-10.4h-.1ZM539.6,348.5c1.7,0,2.9-.8,2.9-3.2s-1.2-3.2-2.9-3.2h-.4v6.4h.4Z"/>
            <path class="cls-3" d="M548.7,340.1h3l3.2,10.4h-2.6l-.6-2.4h-3.1l-.6,2.4h-2.5l3.2-10.4ZM549.1,346.2h2.1l-.2-.9c-.3-1-.5-2.3-.8-3.3h0c-.3,1.1-.5,2.3-.8,3.3l-.2.9Z"/>
          </g>
          <g>
            <path class="cls-3" d="M521,370.6h3l3.2,10.4h-2.6l-.6-2.4h-3.1l-.6,2.4h-2.5l3.2-10.4ZM521.4,376.7h2.1l-.2-.9c-.3-1-.5-2.3-.8-3.3h0c-.3,1.1-.5,2.3-.8,3.3l-.2.9Z"/>
            <path class="cls-3" d="M528.3,370.6h3.8c2.2,0,4.1.8,4.1,3.3s-.7,2.5-1.8,3l2.3,4.1h-2.8l-1.9-3.7h-1.2v3.7h-2.5v-10.4h0ZM531.9,375.4c1.2,0,1.8-.5,1.8-1.5s-.6-1.3-1.8-1.3h-1.1v2.8h1.1Z"/>
            <path class="cls-3" d="M538.2,370.6h6.6v2.1h-4.1v2h3.5v2.1h-3.5v2.2h4.3v2.1h-6.8v-10.5Z"/>
            <path class="cls-3" d="M547,370.6h6.7v2.1h-4.2v2.3h3.6v2.1h-3.6v4h-2.5v-10.5Z"/>
          </g>
          <g>
            <path class="cls-3" d="M523.3,406.4c0-3.5,2.3-5.5,5.1-5.5s2.6.6,3.3,1.4l-1.3,1.5c-.5-.5-1.1-.7-1.9-.7-1.5,0-2.7,1.2-2.7,3.2s.9,3.3,2.9,3.3.8-.1,1-.3v-1.7h-1.7v-2h3.9v4.9c-.7.7-2,1.3-3.5,1.3-2.8,0-5.1-1.9-5.1-5.4Z"/>
            <path class="cls-3" d="M534,401.1h2.6l2.6,5c.4.7.7,1.5,1,2.4h0c0-1.1-.3-2.6-.3-3.8v-3.5h2.4v10.4h-2.6l-2.6-5c-.4-.7-.7-1.5-1-2.4h-.2c0,1.2.3,2.6.3,3.8v3.5h-2.3v-10.4Z"/>
            <path class="cls-3" d="M544.7,401.1h3c3.2,0,5.3,1.6,5.3,5.2s-2.1,5.2-5.1,5.2h-3.1v-10.4h-.1ZM547.5,409.5c1.7,0,2.9-.8,2.9-3.2s-1.2-3.2-2.9-3.2h-.4v6.4h.4Z"/>
          </g>
          <g>
            <path class="cls-3" d="M495.2,440h2.2v-5.9h-1.9v-1.5c1.1-.2,1.8-.5,2.6-.9h1.8v8.4h1.9v2h-6.6v-2.1Z"/>
            <path class="cls-3" d="M503,440.8l1.1-1.6c.6.6,1.4,1,2.2,1s1.6-.4,1.6-1.2-.5-1.4-2.7-1.4v-1.8c1.8,0,2.3-.5,2.3-1.4s-.4-1.1-1.2-1.1-1.2.3-1.9.9l-1.2-1.5c.9-.8,2-1.3,3.2-1.3,2.2,0,3.6,1,3.6,2.9s-.6,1.8-1.7,2.3h0c1.2.4,2,1.3,2,2.6,0,2-1.8,3-3.8,3-1.6,0-2.7-.6-3.5-1.4Z"/>
            <path class="cls-3" d="M514.5,430.7h1.6l-3.1,13.9h-1.6l3.1-13.9Z"/>
            <path class="cls-3" d="M517.1,440.7l1.3-1.6c.7.6,1.7,1,2.6,1s1.4-.4,1.4-.9-.6-.8-1.5-1.2l-1.3-.6c-1.1-.4-2.1-1.3-2.1-2.8s1.6-3.2,3.8-3.2,2.5.5,3.4,1.3l-1.3,1.6c-.7-.5-1.4-.8-2.1-.8s-1.3.3-1.3.8.7.8,1.6,1.2l1.3.5c1.3.5,2.1,1.4,2.1,2.8s-1.5,3.3-4,3.3c-1.4.1-2.8-.4-3.9-1.4Z"/>
            <path class="cls-3" d="M526.2,436.9c0-3.5,2.3-5.5,5-5.5s2.4.6,3.2,1.4l-1.3,1.5c-.5-.5-1.1-.7-1.8-.7-1.4,0-2.5,1.2-2.5,3.2s1,3.3,2.4,3.3,1.5-.3,2-.9l1.3,1.5c-.9,1-2.1,1.5-3.4,1.5-2.6,0-4.9-1.8-4.9-5.3Z"/>
            <path class="cls-3" d="M536,431.6h2.5v8.3h4v2.1h-6.5v-10.4Z"/>
            <path class="cls-3" d="M544.4,431.6h2.5v4.1h0l3-4.1h2.7l-3.1,4.2,3.7,6.2h-2.7l-2.5-4.3-1.1,1.5v2.7h-2.5v-10.3h0Z"/>
          </g>
          <g>
            <path class="cls-3" d="M494.1,470.5h2.2v-5.9h-1.9v-1.5c1.1-.2,1.8-.5,2.6-.9h1.8v8.4h1.9v2h-6.6v-2.1Z"/>
            <path class="cls-3" d="M502.1,471c2.7-2.3,4.4-4.2,4.4-5.6s-.5-1.5-1.4-1.5-1.3.5-1.8,1l-1.3-1.3c1-1.1,1.9-1.7,3.4-1.7s3.4,1.3,3.4,3.3-1.7,3.8-3.3,5.4c.5,0,1.2-.1,1.7-.1h2.1v2.1h-7.2v-1.6h0Z"/>
            <path class="cls-3" d="M513.4,461.2h1.6l-3.1,13.9h-1.6l3.1-13.9Z"/>
            <path class="cls-3" d="M516.6,462.1h2.7l1.6,4.5c.2.6.4,1.2.6,1.9h0c.2-.7.4-1.3.6-1.9l1.6-4.5h2.7v10.4h-2.3v-3.6c0-1,.2-2.8.3-3.8h0l-.9,2.7-1.4,3.8h-1.4l-1.4-3.8-.8-2.7h0c0,1,.3,2.8.3,3.8v3.6h-2.2v-10.4h.1Z"/>
            <path class="cls-3" d="M528.9,462.1h2.5v10.4h-2.5v-10.4Z"/>
            <path class="cls-3" d="M533.1,471.2l1.3-1.6c.7.6,1.7,1,2.6,1s1.4-.4,1.4-.9-.6-.8-1.5-1.2l-1.3-.6c-1.1-.4-2.1-1.3-2.1-2.8s1.6-3.2,3.8-3.2,2.5.5,3.4,1.3l-1.3,1.6c-.7-.5-1.4-.8-2.1-.8s-1.3.3-1.3.8.7.8,1.6,1.2l1.3.5c1.3.5,2.1,1.4,2.1,2.8s-1.5,3.3-4,3.3c-1.4.1-2.8-.4-3.9-1.4Z"/>
            <path class="cls-3" d="M542.2,467.3c0-3.4,1.9-5.4,4.8-5.4s4.8,2,4.8,5.4-1.9,5.4-4.8,5.4-4.8-2-4.8-5.4ZM549.2,467.3c0-2-.8-3.2-2.2-3.2s-2.2,1.2-2.2,3.2.9,3.3,2.2,3.3c1.4,0,2.2-1.3,2.2-3.3Z"/>
          </g>
          <g>
            <path class="cls-3" d="M486.8,498c-.4,0-.8.4-1.1.9l-1.3-1c.8-1.2,1.6-1.7,2.4-1.7,1.3,0,1.9,1.2,2.8,1.2s.8-.4,1.1-.9l1.3,1c-.8,1.2-1.6,1.7-2.4,1.7-1.4,0-1.9-1.2-2.8-1.2Z"/>
            <path class="cls-3" d="M493.5,501h2.2v-5.9h-1.9v-1.5c1.1-.2,1.8-.5,2.6-.9h1.8v8.4h1.9v2h-6.6v-2.1Z"/>
            <path class="cls-3" d="M502,501h2.2v-5.9h-1.9v-1.5c1.1-.2,1.8-.5,2.6-.9h1.8v8.4h1.9v2h-6.6v-2.1Z"/>
            <path class="cls-3" d="M512.8,491.7h1.6l-3.1,13.9h-1.6l3.1-13.9Z"/>
            <path class="cls-3" d="M516.1,492.6h2.7l1.6,4.5c.2.6.4,1.2.6,1.9h0c.2-.7.4-1.3.6-1.9l1.6-4.5h2.7v10.4h-2.3v-3.6c0-1,.2-2.8.3-3.8h0l-.9,2.7-1.4,3.8h-1.4l-1.4-3.8-.8-2.7h0c0,1,.3,2.8.3,3.8v3.6h-2.2v-10.4Z"/>
            <path class="cls-3" d="M527.8,497.8c0-3.4,1.9-5.4,4.8-5.4s4.8,2,4.8,5.4-1.9,5.4-4.8,5.4-4.8-2-4.8-5.4ZM534.8,497.8c0-2-.8-3.2-2.2-3.2s-2.2,1.2-2.2,3.2.9,3.3,2.2,3.3c1.4,0,2.2-1.3,2.2-3.3Z"/>
            <path class="cls-3" d="M538.7,501.7l1.3-1.6c.7.6,1.7,1,2.6,1s1.4-.4,1.4-.9-.6-.8-1.5-1.2l-1.3-.6c-1.1-.4-2.1-1.3-2.1-2.8s1.6-3.2,3.8-3.2,2.5.5,3.4,1.3l-1.3,1.6c-.7-.5-1.4-.8-2.1-.8s-1.3.3-1.3.8.7.8,1.6,1.2l1.3.5c1.3.5,2.1,1.4,2.1,2.8s-1.5,3.3-4,3.3c-1.5.1-2.9-.3-3.9-1.4Z"/>
            <path class="cls-3" d="M548.2,492.6h2.5v10.4h-2.5v-10.4Z"/>
          </g>
          <g>
            <path class="cls-3" d="M528.7,528.5c-.4,0-.8.4-1.1.9l-1.3-1c.8-1.2,1.6-1.7,2.4-1.7,1.3,0,1.9,1.2,2.8,1.2s.8-.4,1.1-.9l1.3,1c-.8,1.2-1.6,1.7-2.4,1.7-1.4,0-1.9-1.2-2.8-1.2Z"/>
            <path class="cls-3" d="M535.4,531.6h2.2v-5.9h-1.9v-1.5c1.1-.2,1.8-.5,2.6-.9h1.8v8.4h1.9v2h-6.6v-2.1Z"/>
            <path class="cls-3" d="M543.4,528.3c0-3.6,1.5-5.4,3.7-5.4s3.7,1.8,3.7,5.4-1.5,5.4-3.7,5.4-3.7-1.8-3.7-5.4ZM548.4,528.3c0-2.8-.6-3.5-1.3-3.5s-1.3.6-1.3,3.5.6,3.5,1.3,3.5,1.3-.6,1.3-3.5Z"/>
          </g>
          <g>
            <path class="cls-3" d="M536.6,559.1c-.4,0-.8.4-1.1.9l-1.3-1c.8-1.2,1.6-1.7,2.4-1.7,1.3,0,1.9,1.2,2.8,1.2s.8-.4,1.1-.9l1.3,1c-.8,1.2-1.6,1.7-2.4,1.7-1.4,0-1.9-1.2-2.8-1.2Z"/>
            <path class="cls-3" d="M542.9,563l1.3-1.5c.3.4,1,.7,1.6.7,1.1,0,1.9-.8,2-3-.5.7-1.4,1-2,1-1.7,0-3-1-3-3.3s1.6-3.5,3.4-3.5,3.9,1.5,3.9,5.3-2,5.5-4.1,5.5c-1.4,0-2.4-.5-3.1-1.2ZM546.3,558.5c.5,0,1.1-.3,1.5-.9-.2-1.8-.8-2.3-1.5-2.3s-1.2.5-1.2,1.7.5,1.5,1.2,1.5Z"/>
          </g>
          <path class="cls-3" d="M542.4,592c0-1.3.7-2.1,1.7-2.6h0c-.8-.7-1.4-1.5-1.4-2.6,0-1.7,1.4-2.8,3.3-2.8s3.1,1.1,3.1,2.8-.6,1.8-1.3,2.3h0c1,.6,1.8,1.5,1.8,2.9s-1.5,2.8-3.6,2.8-3.6-1.2-3.6-2.8ZM547.3,591.9c0-.9-.8-1.3-2.1-1.9-.4.4-.7,1-.7,1.7s.7,1.4,1.5,1.4c.7,0,1.3-.4,1.3-1.2ZM547.1,586.9c0-.8-.4-1.2-1.2-1.2s-1.1.4-1.1,1.1.6,1.3,1.7,1.7c.4-.5.6-1,.6-1.6Z"/>
          <path class="cls-3" d="M546.3,613.9h-4.5v-2.1h7.1v1.5c-2.4,2.9-2.7,4.8-2.8,8.9h-2.5c.2-3.4.7-5.6,2.7-8.3Z"/>
          <g>
            <path class="cls-3" d="M534.9,647.8c-.4,0-.8.4-1.1.9l-1.3-1c.8-1.2,1.6-1.7,2.4-1.7,1.3,0,1.9,1.2,2.8,1.2s.8-.4,1.1-.9l1.3,1c-.8,1.2-1.6,1.7-2.4,1.7-1.4,0-1.9-1.2-2.8-1.2Z"/>
            <path class="cls-3" d="M541.2,647.6c0-3.8,2-5.5,4.1-5.5s2.4.6,3,1.2l-1.3,1.5c-.4-.4-1-.7-1.6-.7-1.1,0-1.9.8-2,3,.5-.6,1.4-1,2-1,1.7,0,3,1,3,3.3s-1.6,3.5-3.4,3.5c-1.9.1-3.8-1.5-3.8-5.3ZM543.5,648.9c.2,1.7.9,2.2,1.5,2.2s1.2-.5,1.2-1.7-.6-1.5-1.3-1.5-1,.3-1.4,1Z"/>
          </g>
          <g>
            <path class="cls-3" d="M534.3,678.3c-.4,0-.8.4-1.1.9l-1.3-1c.8-1.2,1.6-1.7,2.4-1.7,1.3,0,1.9,1.2,2.8,1.2s.8-.4,1.1-.9l1.3,1c-.8,1.2-1.6,1.7-2.4,1.7-1.4,0-1.9-1.2-2.8-1.2Z"/>
            <path class="cls-3" d="M540.3,682l1.1-1.6c.6.6,1.3,1,2.1,1s1.6-.6,1.6-1.6-.6-1.6-1.5-1.6-.9,0-1.5.5l-1.1-.7.3-5.2h5.8v2.1h-3.7v1.8c.3,0,.6-.2,1-.2,1.8,0,3.2,1,3.2,3.3s-1.8,3.7-3.8,3.7-2.7-.7-3.5-1.5Z"/>
          </g>
          <path class="cls-3" d="M544.1,711.2h-4.4v-1.7l3.6-6.1h3.1v5.9h1.2v1.9h-1.2v2.6h-2.3v-2.6h0ZM544.1,709.3v-1.5c0-.7,0-1.6,0-2.3h0c-.3.6-.5,1.2-.8,1.8l-1.2,2.1h2Z"/>
          <g>
            <path class="cls-3" d="M533.2,739.3c-.4,0-.8.4-1.1.9l-1.3-1c.8-1.2,1.6-1.7,2.4-1.7,1.3,0,1.9,1.2,2.8,1.2s.8-.4,1.1-.9l1.3,1c-.8,1.2-1.6,1.7-2.4,1.7-1.4,0-2-1.2-2.8-1.2Z"/>
            <path class="cls-3" d="M539.1,743.1l1.1-1.6c.6.6,1.4,1,2.2,1s1.6-.4,1.6-1.2-.5-1.4-2.7-1.4v-1.8c1.8,0,2.3-.5,2.3-1.4s-.4-1.1-1.2-1.1-1.2.3-1.9.9l-1.2-1.5c.9-.8,2-1.3,3.2-1.3,2.2,0,3.6,1,3.6,2.9s-.6,1.8-1.7,2.3h0c1.2.4,2,1.3,2,2.6,0,2-1.8,3-3.8,3s-2.7-.6-3.5-1.4Z"/>
          </g>
          <path class="cls-3" d="M538.8,773.3c2.7-2.3,4.4-4.2,4.4-5.6s-.5-1.5-1.4-1.5-1.3.5-1.8,1l-1.3-1.3c1-1.1,1.9-1.7,3.4-1.7s3.4,1.3,3.4,3.3-1.7,3.8-3.3,5.4c.5,0,1.2,0,1.7,0h2.1v2.1h-7.2v-1.6h0Z"/>
          <g>
            <path class="cls-3" d="M509.1,797.9h-2.8v-2.1h8.1v2.1h-2.8v8.3h-2.5v-8.3h0Z"/>
            <path class="cls-3" d="M517.5,800.9l-2.7-5.1h2.8l.8,1.9c.2.5.5,1,.8,1.7h0c.2-.7.5-1.2.7-1.7l.8-1.9h2.6l-2.7,5.2,2.9,5.2h-2.8l-1-2c-.3-.5-.5-1.1-.8-1.7h0c-.2.6-.5,1.2-.7,1.7l-.9,2h-2.7l2.9-5.3Z"/>
            <path class="cls-3" d="M537.4,800.9l-5,5c-.4.4-1,.4-1.4,0s-.4-1,0-1.4l3.3-3.3h-9.6c-.6,0-1-.4-1-1s.4-1,1-1h9.6l-3.3-3.3c-.4-.4-.4-1,0-1.4s1-.4,1.4,0l5,5c.4.4.4,1.1,0,1.4h0Z"/>
            <path class="cls-3" d="M538.7,804.2h2.2v-5.9h-1.9v-1.5c1.1-.2,1.8-.5,2.6-.9h1.8v8.4h1.9v2h-6.6v-2.1Z"/>
          </g>
          <g>
            <path class="cls-3" d="M505.4,826.3h3.8c2.2,0,4.1.8,4.1,3.3s-.7,2.5-1.8,3l2.3,4.1h-2.8l-1.9-3.7h-1.2v3.7h-2.5v-10.4ZM509,831.1c1.2,0,1.8-.5,1.8-1.5s-.6-1.3-1.8-1.3h-1.1v2.8h1.1Z"/>
            <path class="cls-3" d="M516.9,831.4l-2.7-5.1h2.8l.8,1.9c.2.5.5,1,.8,1.7h0c.2-.7.5-1.2.7-1.7l.8-1.9h2.6l-2.7,5.2,2.9,5.2h-2.8l-1-2c-.3-.5-.5-1.1-.8-1.7h0c-.2.6-.5,1.2-.7,1.7l-.9,2h-2.7l2.9-5.3Z"/>
            <path class="cls-3" d="M523.4,830l5-5c.4-.4,1-.4,1.4,0s.4,1,0,1.4l-3.3,3.3h9.6c.6,0,1,.4,1,1s-.4,1-1,1h-9.6l3.3,3.3c.4.4.4,1,0,1.4s-1,.4-1.4,0l-5-5c-.4-.3-.4-1,0-1.4h0Z"/>
            <path class="cls-3" d="M537.7,831.5c0-3.6,1.5-5.4,3.7-5.4s3.7,1.8,3.7,5.4-1.5,5.4-3.7,5.4-3.7-1.8-3.7-5.4ZM542.7,831.5c0-2.8-.6-3.5-1.3-3.5s-1.3.6-1.3,3.5.6,3.5,1.3,3.5,1.3-.7,1.3-3.5Z"/>
          </g>
        </g>
        <g>
          <rect class="cls-6" x="396.3" y="411.5" width="10.7" height="17.2"/>
          <rect class="cls-17" x="396.3" y="414.1" width="10.7" height="11.8"/>
        </g>
      </g>
      <rect id="rect1005" class="cls-16" x="705.9" y="475.1" width="8.5" height="42.3"/>
      <rect id="rect1007" class="cls-7" x="695.9" y="475.1" width="8.5" height="135.9"/>
      <rect id="rect1009" class="cls-15" x="715.9" y="475.1" width="8.5" height="204.3"/>
      <circle id="circle281" class="cls-15" cx="26" cy="674.8" r="11.6" transform="translate(-17.1 .9) rotate(-1.5)"/>
      <rect class="cls-7" x="21.4" y="601.9" width="683" height="9.1"/>
      <rect class="cls-7" x="21.4" y="580.2" width="9.1" height="30.9"/>
      <rect class="cls-16" x="21.4" y="511.6" width="693" height="9.1"/>
      <rect class="cls-16" x="21.4" y="511.6" width="9.1" height="38"/>
      <circle id="circle281-2" class="cls-16" cx="26.1" cy="549.5" r="10.5"/>
      <circle id="circle281-3" class="cls-7" cx="26.2" cy="580.2" r="10.5"/>
      <rect id="rect853" class="cls-15" x="26" y="670.3" width="698.4" height="9.1"/>
    </g>
  </g>
</svg>