<?xml version="1.0" encoding="UTF-8" standalone="no"?>
<svg
   version="1.1"
   viewBox="0 0 589.8 1358.9"
   id="svg329"
   sodipodi:docname="039-Pico.svg"
   inkscape:version="1.3 (0e150ed, 2023-07-21)"
   xmlns:inkscape="http://www.inkscape.org/namespaces/inkscape"
   xmlns:sodipodi="http://sodipodi.sourceforge.net/DTD/sodipodi-0.dtd"
   xmlns="http://www.w3.org/2000/svg"
   xmlns:svg="http://www.w3.org/2000/svg">
  <defs
     id="defs1">
    <style
       id="style1">&#10;      .cls-1 {&#10;        fill: #c2bfab;&#10;      }&#10;&#10;      .cls-2 {&#10;        fill: #e8d28a;&#10;      }&#10;&#10;      .cls-3 {&#10;        fill: #02814b;&#10;      }&#10;&#10;      .cls-4 {&#10;        fill: #474544;&#10;      }&#10;&#10;      .cls-5 {&#10;        fill: #803300;&#10;      }&#10;&#10;      .cls-6 {&#10;        fill: #49c9c9;&#10;      }&#10;&#10;      .cls-7, .cls-8 {&#10;        fill: #fff;&#10;      }&#10;&#10;      .cls-9 {&#10;        fill: #914f00;&#10;      }&#10;&#10;      .cls-8 {&#10;        stroke: #000;&#10;      }&#10;&#10;      .cls-8, .cls-10, .cls-11 {&#10;        stroke-miterlimit: 10;&#10;      }&#10;&#10;      .cls-12 {&#10;        fill: #aba28e;&#10;      }&#10;&#10;      .cls-13 {&#10;        fill: #cecece;&#10;      }&#10;&#10;      .cls-10 {&#10;        stroke: #fff;&#10;      }&#10;&#10;      .cls-10, .cls-11 {&#10;        fill: none;&#10;      }&#10;&#10;      .cls-14 {&#10;        fill: #525035;&#10;      }&#10;&#10;      .cls-15 {&#10;        fill: #00b589;&#10;      }&#10;&#10;      .cls-16 {&#10;        fill: #e30613;&#10;      }&#10;&#10;      .cls-17, .cls-18 {&#10;        isolation: isolate;&#10;      }&#10;&#10;      .cls-19 {&#10;        fill: #e2eade;&#10;      }&#10;&#10;      .cls-20 {&#10;        fill: #c29148;&#10;      }&#10;&#10;      .cls-21 {&#10;        fill: #fcfcfa;&#10;      }&#10;&#10;      .cls-11 {&#10;        stroke: #95ac6e;&#10;      }&#10;&#10;      .cls-22 {&#10;        fill: #ddd;&#10;      }&#10;&#10;      .cls-23 {&#10;        fill: #333;&#10;      }&#10;&#10;      .cls-24 {&#10;        fill: #999;&#10;      }&#10;&#10;      .cls-25 {&#10;        fill: #d4c547;&#10;      }&#10;&#10;      .cls-26 {&#10;        fill: #ffe17b;&#10;      }&#10;&#10;      .cls-27 {&#10;        fill: #ccc;&#10;      }&#10;&#10;      .cls-28 {&#10;        fill: #c1c1c1;&#10;      }&#10;&#10;      .cls-29 {&#10;        fill: #8dddde;&#10;      }&#10;&#10;      .cls-30, .cls-18 {&#10;        fill: gray;&#10;      }&#10;&#10;      .cls-31 {&#10;        fill: #7f7f7f;&#10;      }&#10;&#10;      .cls-32 {&#10;        fill: #36323e;&#10;      }&#10;&#10;      .cls-33 {&#10;        fill: green;&#10;      }&#10;&#10;      .cls-34 {&#10;        fill: #141316;&#10;      }&#10;&#10;      .cls-18 {&#10;        opacity: 1;&#10;      }&#10;&#10;      .cls-35 {&#10;        fill: #868c97;&#10;      }&#10;&#10;      .cls-36 {&#10;        fill: #b9a68f;&#10;      }&#10;&#10;      .cls-37 {&#10;        fill: #fee86f;&#10;      }&#10;&#10;      .cls-38 {&#10;        fill: #e0b45b;&#10;      }&#10;&#10;      .cls-39 {&#10;        fill: #e6e6e6;&#10;      }&#10;    </style>
  </defs>
  <!-- Generator: Adobe Illustrator 28.6.0, SVG Export Plug-In . SVG Version: 1.2.0 Build 709)  -->
  <g
     id="g329">
    <g
       id="svg4098">
      <g
         id="g10">
        <path
           id="rect103"
           class="cls-30"
           style="fill:#808080"
           d="m 364.89999,470.20001 h 1.1 v 20.5 h -1.1 z" />
        <path
           id="rect105"
           class="cls-30"
           style="fill:#808080"
           d="m 375,470.20001 h 1.1 v 20.5 H 375 Z" />
        <path
           id="rect107"
           class="cls-30"
           style="fill:#808080"
           d="m 384.79999,470.20001 h 1.1 v 20.5 h -1.1 z" />
        <path
           id="rect90"
           class="cls-8"
           style="fill:#ffffff;stroke:#000000;stroke-miterlimit:10"
           d="m 370.70001,147.2 h 9.1 v 325.29998 h -9.1 z" />
        <path
           id="rect92"
           class="cls-24"
           style="fill:#999999"
           d="m 360.70001,147.2 h 9.1 v 325.70001 h -9.1 z" />
        <path
           id="rect94"
           d="m 380.60001,147.2 h 9.1 v 325.70001 h -9.1 z" />
        <path
           id="path74"
           d="m 449.89999,76 a 74.5,74.5 0 0 1 -74.5,74.5 74.5,74.5 0 0 1 -74.5,-74.5 74.5,74.5 0 0 1 74.5,-74.5 74.5,74.5 0 0 1 74.5,74.5 z" />
        <path
           id="circle79"
           class="cls-39"
           style="fill:#e6e6e6"
           d="m 385.29999,76 a 9.8999996,9.8999996 0 0 1 -9.9,9.9 9.8999996,9.8999996 0 0 1 -9.9,-9.9 9.8999996,9.8999996 0 0 1 9.9,-9.9 9.8999996,9.8999996 0 0 1 9.9,9.9 z" />
        <path
           id="path31-1"
           class="cls-7"
           d="M314.6,98.8c0-.7,0-.7,0-.9,0,0-.1-.2-.2-.2-.1,0-.2,0-1.6,0h-1.5s0-1.5,0-1.5v-1.4h1.8c2,0,2.2,0,2.7.2.7.3,1,.7,1.2,1.5,0,.2,0,.5,0,1.3s0,1.2,0,1.4v.4s-1.2,0-1.2,0h-1.2s0-.7,0-.7h0ZM318.6,85.1c0-12.3,0-15.3,0-14.8h0c0,0,0,0,0,0,0,0,0,0,0,0,0,0,0,0,0-.1v-.3s0,.3,0,.3c0,.1,0,.2,0,.2,0,0,0,0,.3,0s.3,0,.3-.1c0,0,0,0,0,0s0,.2,0,.2,0,4.9,0,14.6v14.6h-1.1v-14.5ZM307.4,96.2v-1.5h2.4v2.9h-2.4v-1.5ZM311.8,93.3c-.7-.1-1.3-.3-1.8-.6-.2,0-.4-.2-.4-.2s-.1,0-.2-.2c-.2-.2-.7-.5-.7-.6,0,0,0,0,0,0,0,0-.4-.4-.6-.7-.2-.3-.3-.5-.5-1.1-.2-.6-.3-1-.3-1.8,0-.5,0-.7.1-1,0-.2.2-.5.2-.6s0-.2,0-.2,0-.2.2-.4c.4-.7,1.5-1.6,2.3-2,1.3-.6,2.5-.6,3.7-.2.5.2.8.3,1.1.5.4.2.4.3,1,.9.7.7,1,1.2,1.2,2.1.1.5.2,1.4,0,1.8,0,.6-.5,1.5-.8,2-.2.3-.5.6-.5.6s-.1,0-.2.2c-.5.5-1.6,1.1-2.4,1.3-.3,0-1.2.1-1.4,0h0ZM313,90.5c.5-.1,1-.4,1.4-.9.4-.4.6-1.1.4-1.7-.2-.7-1-1.3-1.8-1.5-.5-.1-1.2-.1-1.6,0-.7.2-1.2.5-1.5,1-.2.2-.2.3-.2.5,0,.5,0,1,.1,1.4.2.3.6.7,1.1.9.7.3,1.4.4,2.2.2h0ZM307.4,82.3s0-.7,0-1.5v-1.4h1.3c1.2,0,1.3,0,1.5,0,.5-.2.9-.9.7-1.5-.1-.3-.3-.5-.6-.7h-.3c0-.1-1.4-.1-1.4-.1h-1.3v-2.9h1.5c1.4,0,1.5,0,1.8.1.6.2,1.1.4,1.5.8.1,0,.2.2.2.2,0,0,.4.4.6.7.2.3.4.7.5.9,0,0,0,.3.1.4,0,.3.1.4.1,1s0,.7-.1,1.1c-.2.6-.2.8-.5,1.2-.3.4-.7.8-1.1,1.1-.6.4-1.1.6-1.8.7-.5,0-2.8,0-2.8,0h0ZM314.6,78.2v-2.4h2.5v4.8h-2.5v-2.4ZM305.6,74.2s0,0-.2,0q-.2,0-.2-.2c0-.1,0-4.1,0-9v-8.8h.5s.5,0,.5,0v8.9c0,4.9,0,8.9,0,9,0,0,0,0-.4,0-.2,0-.3,0-.3,0h0ZM311.4,70.2v-3h2.4v6h-2.4v-3ZM307.4,64.7v-1.5h2.4v2.9h-2.4v-1.5ZM311,64.7v-1.5h6.1v2.9h-6.1v-1.5ZM307.4,58.9v-3h2.4v6.1h-2.4v-3ZM311.2,61.5s0-.7,0-1.4v-1.4h1.4c2,0,1.9,0,1.9-1.4v-.9h2.5v.4c.1.5.1,2.2,0,2.6-.1.8-.4,1.3-.8,1.6-.4.4-.8.5-1.5.6-.4,0-3.5,0-3.5,0h0ZM306.3,54.2c-.3,0-.5-.2-.6-.4-.6-.7-.6-1.4-.2-2.1.2-.3.3-.4.6-.5.2,0,.3-.1.6-.1s.4,0,.7.1c.5.2.9.8.9,1.3,0,.5-.1.9-.5,1.3-.4.4-1,.5-1.5.4h0ZM307.3,53.9c.3-.1.6-.5.7-1s0-.7-.3-1.2c0-.1-.2-.2-.4-.3-.2-.1-.3-.1-.6-.1s-.4,0-.6.1c-.2.1-.3.2-.4.4,0,.1-.2.3-.2.4-.2.7.1,1.5.8,1.7.2,0,.8,0,1.1,0h0ZM305.7,52.8c0-.3,0-.6,0-.6,0-.2.5-.4.7-.2,0,0,.1.1.2.2h0c0,.1.2,0,.2,0,0,0,.2-.2.4-.3.1,0,.2-.1.2-.2,0,0,0,0,0,.1v.2l-.4.2c-.4.3-.4.3-.4.6v.2h.8,0c0,.1,0,.2,0,.2h-.9s-.9,0-.9,0v-.5ZM306.5,52.7c0-.3,0-.4,0-.5-.2-.2-.4,0-.5.2,0,.1,0,.5,0,.6,0,0,.1,0,.3,0h.3v-.4Z"
           inkscape:connector-curvature="0" />
        <path
           id="rect86"
           class="cls-39"
           style="fill:#e6e6e6"
           d="m 369,87.599998 h 12.4 V 100.8 H 369 Z" />
        <path
           id="rect88"
           class="cls-5"
           style="fill:#803300"
           d="m 370.70001,89.300003 h 9.1 v 9.9 h -9.1 z" />
        <g
           class="cls-17"
           id="g6">
          <path
             class="cls-7"
             d="M418.2,79.2s0,0,.1,0c0,0,0,0,0,.1,0,0,0,.1,0,.2,0,0,0,.2,0,.4s0,.3,0,.5c0,.1,0,.2,0,.3,0,0,0,.1-.1.1l-5.2,3.8h5.2s0,0,.1,0c0,0,0,0,0,.1s0,.1,0,.2c0,0,0,.2,0,.3s0,.2,0,.3c0,0,0,.2,0,.2,0,0,0,0,0,.1s0,0-.1,0h-9.9s0,0-.1,0c0,0,0,0,0-.1s0-.1,0-.2c0,0,0-.2,0-.3s0-.2,0-.3c0,0,0-.2,0-.2,0,0,0,0,0-.1s0,0,.1,0h4.6l-4.6-3.7s0,0-.1-.1c0,0,0,0,0-.2s0-.1,0-.2c0,0,0-.2,0-.3s0-.2,0-.3c0,0,0-.2,0-.2,0,0,0,0,0-.1s0,0,.1,0c0,0,.1,0,.2,0,0,0,.2.1.3.2l4.1,3.4,4.9-3.7c.1,0,.2-.1.3-.2,0,0,0,0,.1,0Z"
             id="path1" />
          <path
             class="cls-7"
             d="M414.4,74.1h3.8s0,0,.1,0,0,0,0,.1,0,.1,0,.2c0,0,0,.2,0,.3s0,.2,0,.3c0,0,0,.2,0,.2,0,0,0,0,0,.1s0,0-.1,0h-3.8l-5.8,2.9c-.1,0-.2,0-.3.1,0,0-.1,0-.2,0,0,0,0-.1,0-.2s0-.2,0-.4,0-.3,0-.4,0-.2,0-.2,0-.1,0-.1c0,0,0,0,.1,0l3-1.4c.3-.1.6-.3.9-.4.3-.1.6-.3.9-.4h0c-.3-.1-.6-.3-.9-.4-.3-.1-.6-.3-.9-.4l-3-1.4c0,0,0,0-.1,0,0,0,0,0,0-.1s0-.1,0-.2c0,0,0-.2,0-.3,0-.2,0-.3,0-.5,0-.1,0-.2,0-.2,0,0,0,0,.2,0,0,0,.2,0,.3.1l5.8,2.9Z"
             id="path2" />
          <path
             class="cls-7"
             d="M414.4,67.2c.2,0,.4,0,.4,0,0,0,.1.1.1.2v3.4c0,0,0,.2-.1.2,0,0-.2,0-.4,0s-.3,0-.4,0c0,0-.1-.1-.1-.2v-3.4s0,0,0-.1c0,0,0,0,0,0s.1,0,.2,0c0,0,.2,0,.3,0Z"
             id="path3" />
          <path
             class="cls-7"
             d="M413.3,58.9c.8,0,1.5,0,2.2.2.7.1,1.2.3,1.7.6.5.3.8.7,1.1,1.1s.4,1.1.4,1.7-.1,1.2-.4,1.6-.6.8-1,1.1c-.5.3-1,.5-1.7.6-.7.1-1.4.2-2.3.2s-1.5,0-2.2-.2-1.2-.3-1.7-.6c-.5-.3-.8-.7-1.1-1.1s-.4-1.1-.4-1.7.1-1.2.4-1.7c.2-.4.6-.8,1-1.1.5-.3,1-.5,1.7-.6.6-.1,1.4-.2,2.3-.2ZM413.4,60.4c-.5,0-1,0-1.4,0s-.8,0-1.1.2c-.3,0-.6.2-.8.3-.2.1-.4.3-.6.4-.2.2-.3.3-.3.5,0,.2-.1.4-.1.7,0,.5.1.8.3,1.1.2.3.5.5.9.7s.8.3,1.3.3c.5,0,1,0,1.6,0s1.4,0,2-.1c.5,0,1-.2,1.3-.4.3-.2.6-.4.7-.7.2-.3.2-.6.2-1s0-.6-.1-.8c0-.2-.2-.4-.4-.6s-.4-.3-.6-.4c-.2-.1-.5-.2-.8-.3-.3,0-.6-.1-1-.1-.4,0-.7,0-1.1,0Z"
             id="path4" />
          <path
             class="cls-7"
             d="M415.5,51.1c.5,0,.9,0,1.3.2.4.2.7.4,1,.7.3.3.5.7.6,1.1.2.5.2,1,.2,1.5s0,.7,0,1c0,.3-.1.6-.2.8,0,.2-.2.4-.2.6,0,.2-.1.3-.2.3s0,0-.1,0c0,0,0,0-.1,0,0,0-.1,0-.2,0s-.2,0-.3,0c-.2,0-.3,0-.4,0,0,0-.1,0-.1-.2s0-.2.1-.3.2-.3.3-.6c0-.2.2-.5.3-.8,0-.3.1-.6.1-1s0-.7-.1-1-.2-.5-.4-.7c-.2-.2-.4-.3-.6-.4s-.5-.1-.7-.1-.6,0-.8.2-.4.3-.6.5-.3.5-.4.8c0,.3-.1.7-.1,1.1v1s0,0,0,.1c0,0,0,0,0,.1,0,0,0,0-.2,0,0,0-.2,0-.3,0s-.2,0-.3,0c0,0-.1,0-.2,0,0,0,0,0,0-.1,0,0,0,0,0-.1v-.9c0-.4,0-.7-.1-.9s-.2-.5-.4-.7c-.2-.2-.4-.3-.6-.4-.2-.1-.5-.2-.8-.2s-.4,0-.6.1c-.2,0-.4.2-.5.3-.1.1-.3.3-.3.5,0,.2-.1.5-.1.7s0,.6.1.9.2.5.3.7c.1.2.2.4.3.5s.1.2.1.3,0,0,0,.1c0,0,0,0,0,0,0,0,0,0-.2,0,0,0-.2,0-.3,0s-.2,0-.2,0c0,0-.1,0-.2,0,0,0,0,0-.1,0,0,0,0,0-.1-.1,0,0-.1-.2-.2-.3,0-.2-.2-.4-.3-.6,0-.2-.2-.5-.2-.8s0-.6,0-1,0-.9.2-1.3.3-.7.5-.9c.2-.2.5-.4.8-.5.3-.1.7-.2,1-.2s.6,0,.9.1.5.2.7.4.4.4.5.6c.2.2.3.5.3.8h0c0-.4.1-.7.3-1s.3-.5.5-.8c.2-.2.5-.4.7-.5.3,0,.6-.2.9-.2Z"
             id="path5" />
          <path
             class="cls-7"
             d="M412.9,42.6c.4,0,.9,0,1.4,0,.5,0,.9.1,1.3.3s.8.3,1.2.5.7.5,1,.8c.3.3.5.7.7,1.2.2.5.2,1,.2,1.6s0,.5,0,.7c0,.2,0,.4-.1.6,0,.2,0,.3-.1.4s0,.2-.1.3-.1,0-.2.1-.2,0-.3,0-.2,0-.3,0c0,0-.1,0-.2,0,0,0,0,0,0,0,0,0,0,0,0-.1,0,0,0-.1,0-.2,0-.1,0-.2.1-.4,0-.2,0-.4.1-.6s0-.5,0-.7c0-.5-.1-1-.3-1.3-.2-.4-.5-.7-.8-.9s-.7-.4-1.2-.5-.9-.2-1.4-.2c.2.3.3.6.4,1s.2.9.2,1.4,0,1.1-.2,1.4c-.2.4-.4.7-.6.9s-.6.4-1,.5-.8.2-1.2.2-.9,0-1.3-.2c-.4-.1-.8-.3-1.1-.6-.3-.3-.6-.6-.7-1.1-.2-.4-.3-1-.3-1.6s0-.8.2-1.1c.1-.3.3-.6.5-.9.2-.2.5-.5.7-.6.3-.2.6-.3,1-.4s.8-.2,1.2-.2c.4,0,.9,0,1.4,0ZM412.7,44c-.7,0-1.3,0-1.7.1s-.8.2-1.1.4-.5.4-.6.7c-.1.3-.2.5-.2.9s0,.6.2.9.3.4.5.6c.2.2.5.3.7.4.3,0,.5.1.8.1s.6,0,.9-.1c.3,0,.5-.2.7-.3.2-.2.3-.3.4-.6s.2-.5.2-.9,0-.8-.2-1.2c-.1-.4-.3-.7-.5-1Z"
             id="path6" />
        </g>
        <g
           class="cls-17"
           id="g7">
          <path
             class="cls-7"
             d="M357.7,142.7c0,.3,0,.5,0,.5s-.2.2-.3.2h-4.3c-.1,0-.2,0-.3-.2,0-.1,0-.3,0-.5s0-.4,0-.5.2-.2.3-.2h4.3c0,0,.1,0,.2,0s0,0,.1.1,0,.1,0,.2c0,.1,0,.2,0,.3Z"
             id="path7" />
        </g>
        <g
           class="cls-17"
           id="g8">
          <path
             class="cls-7"
             d="M379.6,136.9c0,.1,0,.2,0,.3s0,.2,0,.2,0,.1-.1.1c0,0,0,0-.2,0h-3.4v3.7c0,0,0,.1,0,.1,0,0,0,0-.1,0,0,0-.1,0-.2,0,0,0-.2,0-.4,0s-.3,0-.4,0-.2,0-.2,0c0,0-.1,0-.1,0,0,0,0,0,0-.1v-3.7h-3.4c0,0-.1,0-.2,0,0,0,0,0-.1-.1s0-.1,0-.2,0-.2,0-.3,0-.2,0-.3,0-.2,0-.2,0-.1.1-.1c0,0,0,0,.2,0h3.4v-3.7c0,0,0-.1,0-.2,0,0,0,0,.1-.1s.1,0,.2,0,.2,0,.4,0,.3,0,.4,0,.2,0,.2,0c0,0,.1,0,.1.1,0,0,0,0,0,.2v3.7h3.4c0,0,.1,0,.2,0,0,0,0,0,.1.1,0,0,0,.1,0,.2,0,0,0,.2,0,.3Z"
             id="path8" />
        </g>
        <g
           class="cls-17"
           id="g9">
          <path
             class="cls-7"
             d="M396.5,144.2c0,.5-.1,1-.3,1.5-.2.4-.5.8-.8,1.1-.4.3-.8.5-1.3.7-.5.2-1,.2-1.6.2s-.8,0-1.1-.1c-.3,0-.6-.2-.9-.2-.3,0-.5-.2-.7-.3-.2-.1-.3-.2-.4-.3,0,0-.1-.2-.2-.3s0-.3,0-.4,0-.2,0-.3c0,0,0-.2,0-.2,0,0,0,0,0-.1s0,0,.1,0c0,0,.2,0,.4.2.2.1.4.2.6.3.2.1.5.2.9.3s.7.2,1.2.2.6,0,.9-.1.5-.2.7-.4c.2-.2.4-.4.5-.6s.2-.5.2-.8,0-.6-.2-.9c-.2-.2-.4-.4-.6-.6s-.5-.3-.8-.5-.6-.3-1-.5c-.3-.2-.7-.3-1-.5s-.6-.4-.8-.7c-.2-.3-.4-.5-.6-.9-.2-.3-.2-.7-.2-1.2s0-.9.3-1.3c.2-.4.4-.7.7-1,.3-.3.7-.5,1.1-.6s.9-.2,1.4-.2.5,0,.8,0c.3,0,.5.1.7.2s.4.2.6.3.3.2.4.2,0,.1.1.1,0,0,0,.1c0,0,0,.1,0,.2,0,0,0,.2,0,.3s0,.2,0,.3,0,.2,0,.2c0,0,0,.1,0,.1s0,0-.1,0c0,0-.2,0-.3-.1s-.3-.2-.5-.3-.4-.2-.7-.3c-.3,0-.6-.1-.9-.1s-.6,0-.9.1c-.2,0-.4.2-.6.4-.2.1-.3.3-.4.5,0,.2-.1.4-.1.6,0,.3,0,.6.2.8.2.2.4.4.6.6.2.2.5.4.9.5.3.2.6.3,1,.5.3.2.7.3,1,.5.3.2.6.4.9.7.2.2.5.5.6.9,0,.4.2.8.2,1.2Z"
             id="path9" />
        </g>
      </g>
      <g
         id="g273">
        <path
           class="cls-3"
           d="M329.3,582.9v-15.9H5.8v15.9c3,1.2,5.2,4.1,5.2,7.5s-2.1,6.4-5.2,7.5v24c3,1.2,5.2,4.1,5.2,7.5s-2.1,6.4-5.2,7.5v24c3,1.2,5.2,4.1,5.2,7.5s-2.1,6.4-5.2,7.5v24c3,1.2,5.2,4.1,5.2,7.5s-2.1,6.4-5.2,7.5v24c3,1.2,5.2,4.1,5.2,7.5s-2.1,6.4-5.2,7.5v24c3,1.2,5.2,4.1,5.2,7.5s-2.1,6.4-5.2,7.5v24c3,1.2,5.2,4.1,5.2,7.5s-2.1,6.4-5.2,7.5v24c3,1.2,5.2,4.1,5.2,7.5s-2.1,6.4-5.2,7.5v24c3,1.2,5.2,4.1,5.2,7.5s-2.1,6.4-5.2,7.5v24c3,1.2,5.2,4.1,5.2,7.5s-2.1,6.4-5.2,7.5v24c3,1.2,5.2,4.1,5.2,7.5s-2.1,6.4-5.2,7.5v24c3,1.2,5.2,4.1,5.2,7.5s-2.1,6.4-5.2,7.5v24c3,1.2,5.2,4.1,5.2,7.5s-2.1,6.4-5.2,7.5v24c3,1.2,5.2,4.1,5.2,7.5s-2.1,6.4-5.2,7.5v24c3,1.2,5.2,4.1,5.2,7.5s-2.1,6.4-5.2,7.5v24c3,1.2,5.2,4.1,5.2,7.5s-2.1,6.4-5.2,7.5v24c3,1.2,5.2,4.1,5.2,7.5s-2.1,6.4-5.2,7.5v24c3,1.2,5.2,4.1,5.2,7.5s-2.1,6.4-5.2,7.5v24c3,1.2,5.2,4.1,5.2,7.5s-2.1,6.4-5.2,7.5v24.1c3,1.2,5.2,4.1,5.2,7.5s-2.1,6.4-5.2,7.5v15.9h323.6v-15.9c-3-1.2-5.1-4.1-5.1-7.5s2.1-6.3,5.1-7.5v-24.1c-3-1.2-5.1-4.1-5.1-7.5s2.1-6.3,5.1-7.5v-24.1c-3-1.2-5.1-4.1-5.1-7.5s2.1-6.3,5.1-7.5v-24.1c-3-1.2-5.1-4.1-5.1-7.5s2.1-6.3,5.1-7.5v-24.1c-3-1.2-5.1-4.1-5.1-7.5s2.1-6.3,5.1-7.5v-24.1c-3-1.2-5.1-4.1-5.1-7.5s2.1-6.3,5.1-7.5v-24.1c-3-1.2-5.1-4.1-5.1-7.5s2.1-6.3,5.1-7.5v-24.1c-3-1.2-5.1-4.1-5.1-7.5s2.1-6.3,5.1-7.5v-24.1c-3-1.2-5.1-4.1-5.1-7.5s2.1-6.3,5.1-7.5v-24.1c-3-1.2-5.1-4.1-5.1-7.5s2.1-6.3,5.1-7.5v-22.1c-3-1.2-5.1-4.1-5.1-7.5s2.1-6.3,5.1-7.5v-24.1c-3-1.2-5.1-4.1-5.1-7.5s2.1-6.3,5.1-7.5v-24.1c-3-1.2-5.1-4.1-5.1-7.5s2.1-6.3,5.1-7.5v-24.1c-3-1.2-5.1-4.1-5.1-7.5s2.1-6.3,5.1-7.5v-24.1c-3-1.2-5.1-4.1-5.1-7.5s2.1-6.3,5.1-7.5v-24.1c-3-1.2-5.1-4.1-5.1-7.5s2.1-6.3,5.1-7.5v-24.1c-3-1.2-5.1-4.1-5.1-7.5s2.1-6.3,5.1-7.5v-24.1c-3-1.2-5.1-4.1-5.1-7.5s2.1-6.3,5.1-7.5v-24.1c-3-1.2-5.1-4.1-5.1-7.5s2.1-6.3,5.1-7.5v-24.2c-3-1.2-5.1-4.1-5.1-7.5s2-6.4,5-7.6ZM26.6,1341.8c-4.5,0-8.1-3.6-8.1-8.1s3.6-8.1,8.1-8.1,8.1,3.6,8.1,8.1-3.7,8.1-8.1,8.1ZM26.6,1302.6c-4.5,0-8.1-3.6-8.1-8.1s3.6-8.1,8.1-8.1,8.1,3.6,8.1,8.1-3.7,8.1-8.1,8.1ZM26.6,1263.5c-4.5,0-8.1-3.6-8.1-8.1s3.6-8.1,8.1-8.1,8.1,3.6,8.1,8.1-3.7,8.1-8.1,8.1ZM26.6,1224.4c-4.5,0-8.1-3.6-8.1-8.1s3.6-8.1,8.1-8.1,8.1,3.6,8.1,8.1-3.7,8.1-8.1,8.1ZM26.6,1185.3c-4.5,0-8.1-3.6-8.1-8.1s3.6-8.1,8.1-8.1,8.1,3.6,8.1,8.1-3.7,8.1-8.1,8.1ZM26.6,1146.2c-4.5,0-8.1-3.6-8.1-8.1s3.6-8.1,8.1-8.1,8.1,3.6,8.1,8.1-3.7,8.1-8.1,8.1ZM26.6,1107.1c-4.5,0-8.1-3.6-8.1-8.1s3.6-8.1,8.1-8.1,8.1,3.6,8.1,8.1-3.7,8.1-8.1,8.1ZM26.6,1067.9c-4.5,0-8.1-3.6-8.1-8.1s3.6-8.1,8.1-8.1,8.1,3.6,8.1,8.1-3.7,8.1-8.1,8.1ZM26.6,1028.8c-4.5,0-8.1-3.6-8.1-8.1s3.6-8.1,8.1-8.1,8.1,3.6,8.1,8.1-3.7,8.1-8.1,8.1ZM26.6,989.7c-4.5,0-8.1-3.6-8.1-8.1s3.6-8.1,8.1-8.1,8.1,3.6,8.1,8.1-3.7,8.1-8.1,8.1ZM26.6,950.6c-4.5,0-8.1-3.6-8.1-8.1s3.6-8.1,8.1-8.1,8.1,3.6,8.1,8.1-3.7,8.1-8.1,8.1ZM26.6,911.5c-4.5,0-8.1-3.6-8.1-8.1s3.6-8.1,8.1-8.1,8.1,3.6,8.1,8.1-3.7,8.1-8.1,8.1ZM26.6,872.4c-4.5,0-8.1-3.6-8.1-8.1s3.6-8.1,8.1-8.1,8.1,3.6,8.1,8.1-3.7,8.1-8.1,8.1ZM26.6,833.2c-4.5,0-8.1-3.6-8.1-8.1s3.6-8.1,8.1-8.1,8.1,3.6,8.1,8.1-3.7,8.1-8.1,8.1ZM26.6,794.1c-4.5,0-8.1-3.6-8.1-8.1s3.6-8.1,8.1-8.1,8.1,3.6,8.1,8.1-3.7,8.1-8.1,8.1ZM26.6,755c-4.5,0-8.1-3.6-8.1-8.1s3.6-8.1,8.1-8.1,8.1,3.6,8.1,8.1-3.7,8.1-8.1,8.1ZM26.6,715.9c-4.5,0-8.1-3.6-8.1-8.1s3.6-8.1,8.1-8.1,8.1,3.6,8.1,8.1-3.7,8.1-8.1,8.1ZM26.6,676.8c-4.5,0-8.1-3.6-8.1-8.1s3.6-8.1,8.1-8.1,8.1,3.6,8.1,8.1-3.7,8.1-8.1,8.1ZM26.6,637.7c-4.5,0-8.1-3.6-8.1-8.1s3.6-8.1,8.1-8.1,8.1,3.6,8.1,8.1-3.7,8.1-8.1,8.1ZM26.6,598.5c-4.5,0-8.1-3.6-8.1-8.1s3.6-8.1,8.1-8.1,8.1,3.6,8.1,8.1-3.7,8.1-8.1,8.1ZM76.9,1341.7c-8.9,0-16.1-7.2-16.1-16.1s7.2-16.1,16.1-16.1,16.1,7.2,16.1,16.1c0,8.9-7.2,16.1-16.1,16.1ZM76.9,613.6c-8.9,0-16.1-7.2-16.1-16.1s7.2-16.1,16.1-16.1,16.1,7.2,16.1,16.1c0,8.9-7.2,16.1-16.1,16.1ZM175.3,1057c-4.2,0-7.6-3.4-7.6-7.6s3.4-7.6,7.6-7.6,7.6,3.4,7.6,7.6-3.4,7.6-7.6,7.6ZM214.5,1057c-4.2,0-7.6-3.4-7.6-7.6s3.4-7.6,7.6-7.6,7.6,3.4,7.6,7.6-3.5,7.6-7.6,7.6ZM253.3,581.3c8.9,0,16.1,7.2,16.1,16.1s-7.2,16.1-16.1,16.1-16.1-7.2-16.1-16.1c0-8.8,7.2-16.1,16.1-16.1ZM261.7,1049.4c0,4.2-3.4,7.6-7.6,7.6s-7.6-3.4-7.6-7.6,3.4-7.6,7.6-7.6c4.2,0,7.6,3.5,7.6,7.6ZM256,1341.7c-8.9,0-16.1-7.2-16.1-16.1s7.2-16.1,16.1-16.1,16.1,7.2,16.1,16.1-7.2,16.1-16.1,16.1ZM308.6,1341.8c-4.5,0-8.1-3.6-8.1-8.1s3.6-8.1,8.1-8.1,8.1,3.6,8.1,8.1-3.6,8.1-8.1,8.1ZM308.6,1302.6c-4.5,0-8.1-3.6-8.1-8.1s3.6-8.1,8.1-8.1,8.1,3.6,8.1,8.1-3.6,8.1-8.1,8.1ZM308.6,1263.5c-4.5,0-8.1-3.6-8.1-8.1s3.6-8.1,8.1-8.1,8.1,3.6,8.1,8.1-3.6,8.1-8.1,8.1ZM308.6,1224.4c-4.5,0-8.1-3.6-8.1-8.1s3.6-8.1,8.1-8.1,8.1,3.6,8.1,8.1-3.6,8.1-8.1,8.1ZM308.6,1185.3c-4.5,0-8.1-3.6-8.1-8.1s3.6-8.1,8.1-8.1,8.1,3.6,8.1,8.1-3.6,8.1-8.1,8.1ZM308.6,1146.2c-4.5,0-8.1-3.6-8.1-8.1s3.6-8.1,8.1-8.1,8.1,3.6,8.1,8.1-3.6,8.1-8.1,8.1ZM308.6,1107.1c-4.5,0-8.1-3.6-8.1-8.1s3.6-8.1,8.1-8.1,8.1,3.6,8.1,8.1-3.6,8.1-8.1,8.1ZM308.6,1067.9c-4.5,0-8.1-3.6-8.1-8.1s3.6-8.1,8.1-8.1,8.1,3.6,8.1,8.1-3.6,8.1-8.1,8.1ZM308.6,1028.8c-4.5,0-8.1-3.6-8.1-8.1s3.6-8.1,8.1-8.1,8.1,3.6,8.1,8.1-3.6,8.1-8.1,8.1ZM308.6,989.7c-4.5,0-8.1-3.6-8.1-8.1s3.6-8.1,8.1-8.1,8.1,3.6,8.1,8.1-3.6,8.1-8.1,8.1ZM308.6,950.6c-4.5,0-8.1-3.6-8.1-8.1s3.6-8.1,8.1-8.1,8.1,3.6,8.1,8.1-3.6,8.1-8.1,8.1ZM308.6,911.5c-4.5,0-8.1-3.6-8.1-8.1s3.6-8.1,8.1-8.1,8.1,3.6,8.1,8.1-3.6,8.1-8.1,8.1ZM308.6,872.4c-4.5,0-8.1-3.6-8.1-8.1s3.6-8.1,8.1-8.1,8.1,3.6,8.1,8.1-3.6,8.1-8.1,8.1ZM308.6,833.2c-4.5,0-8.1-3.6-8.1-8.1s3.6-8.1,8.1-8.1,8.1,3.6,8.1,8.1-3.6,8.1-8.1,8.1ZM308.6,794.1c-4.5,0-8.1-3.6-8.1-8.1s3.6-8.1,8.1-8.1,8.1,3.6,8.1,8.1-3.6,8.1-8.1,8.1ZM308.6,755c-4.5,0-8.1-3.6-8.1-8.1s3.6-8.1,8.1-8.1,8.1,3.6,8.1,8.1-3.6,8.1-8.1,8.1ZM308.6,715.9c-4.5,0-8.1-3.6-8.1-8.1s3.6-8.1,8.1-8.1,8.1,3.6,8.1,8.1-3.6,8.1-8.1,8.1ZM308.6,676.8c-4.5,0-8.1-3.6-8.1-8.1s3.6-8.1,8.1-8.1,8.1,3.6,8.1,8.1-3.6,8.1-8.1,8.1ZM308.6,637.7c-4.5,0-8.1-3.6-8.1-8.1s3.6-8.1,8.1-8.1,8.1,3.6,8.1,8.1-3.6,8.1-8.1,8.1ZM308.6,598.5c-4.5,0-8.1-3.6-8.1-8.1s3.6-8.1,8.1-8.1,8.1,3.6,8.1,8.1-3.6,8.1-8.1,8.1Z"
           id="path10" />
        <path
           class="cls-25"
           d="M77,570.2c-15.1,0-27.3,12.2-27.3,27.3s12.2,27.3,27.3,27.3,27.3-12.2,27.3-27.3-12.2-27.3-27.3-27.3ZM77,613.6c-8.9,0-16.1-7.2-16.1-16.1s7.2-16.1,16.1-16.1,16.1,7.2,16.1,16.1-7.2,16.1-16.1,16.1Z"
           id="path11" />
        <path
           class="cls-25"
           d="M253.4,570.2c-15.1,0-27.3,12.2-27.3,27.3s12.2,27.3,27.3,27.3,27.3-12.2,27.3-27.3c0-15.1-12.2-27.3-27.3-27.3ZM253.4,613.6c-8.9,0-16.1-7.2-16.1-16.1s7.2-16.1,16.1-16.1,16.1,7.2,16.1,16.1-7.2,16.1-16.1,16.1Z"
           id="path12" />
        <path
           class="cls-25"
           d="M77,1298.3c-15.1,0-27.3,12.2-27.3,27.3s12.2,27.3,27.3,27.3,27.3-12.2,27.3-27.3-12.2-27.3-27.3-27.3ZM77,1341.7c-8.9,0-16.1-7.2-16.1-16.1s7.2-16.1,16.1-16.1,16.1,7.2,16.1,16.1-7.2,16.1-16.1,16.1Z"
           id="path13" />
        <path
           class="cls-25"
           d="M256,1298.3c-15.1,0-27.3,12.2-27.3,27.3s12.2,27.3,27.3,27.3,27.3-12.2,27.3-27.3c.1-15.1-12.2-27.3-27.3-27.3ZM256,1341.7c-8.9,0-16.1-7.2-16.1-16.1s7.2-16.1,16.1-16.1,16.1,7.2,16.1,16.1c.1,8.9-7.2,16.1-16.1,16.1Z"
           id="path14" />
        <path
           id="circle14"
           class="cls-14"
           style="fill:#525035"
           d="m 92.799997,683.59998 a 14.1,14.1 0 0 1 -14.1,14.1 14.1,14.1 0 0 1 -14.1,-14.1 14.1,14.1 0 0 1 14.1,-14.1 14.1,14.1 0 0 1 14.1,14.1 z" />
        <path
           id="circle15"
           class="cls-37"
           style="fill:#fee86f"
           d="m 86.099997,683.59998 a 7.4000001,7.4000001 0 0 1 -7.4,7.4 7.4000001,7.4000001 0 0 1 -7.4,-7.4 7.4000001,7.4000001 0 0 1 7.4,-7.4 7.4000001,7.4000001 0 0 1 7.4,7.4 z" />
        <path
           class="cls-26"
           d="M28.7,656.7H5.9v4.5c3,1.2,5.2,4.1,5.2,7.5s-2.1,6.4-5.2,7.5v4.5h22.9c6.6,0,12-5.4,12-12h0c0-6.6-5.4-12-12.1-12ZM26.6,676.8c-4.5,0-8.1-3.6-8.1-8.1s3.6-8.1,8.1-8.1,8.1,3.6,8.1,8.1-3.6,8.1-8.1,8.1Z"
           id="path15" />
        <path
           class="cls-26"
           d="M28.7,852.3H5.9v4.5c3,1.2,5.2,4.1,5.2,7.5s-2.1,6.4-5.2,7.5v4.5h22.9c6.6,0,12-5.4,12-12,0-6.6-5.4-12-12.1-12ZM26.6,872.4c-4.5,0-8.1-3.6-8.1-8.1s3.6-8.1,8.1-8.1,8.1,3.6,8.1,8.1-3.6,8.1-8.1,8.1Z"
           id="path16" />
        <path
           class="cls-26"
           d="M28.7,1047.9H5.9v4.5c3,1.2,5.2,4.1,5.2,7.5s-2.1,6.4-5.2,7.5v4.5h22.9c6.6,0,12-5.4,12-12,0-6.7-5.4-12-12.1-12ZM26.6,1068c-4.5,0-8.1-3.6-8.1-8.1s3.6-8.1,8.1-8.1,8.1,3.6,8.1,8.1-3.6,8.1-8.1,8.1Z"
           id="path17" />
        <path
           class="cls-26"
           d="M28.7,1087H5.9v4.5c3,1.2,5.2,4.1,5.2,7.5s-2.1,6.4-5.2,7.5v4.5h22.9c6.6,0,12-5.4,12-12,0-6.6-5.4-12-12.1-12ZM26.6,1107.1c-4.5,0-8.1-3.6-8.1-8.1s3.6-8.1,8.1-8.1,8.1,3.6,8.1,8.1-3.6,8.1-8.1,8.1Z"
           id="path18" />
        <path
           class="cls-26"
           d="M28.7,1126.1H5.9v4.5c3,1.2,5.2,4.1,5.2,7.5s-2.1,6.4-5.2,7.5v4.5h22.9c6.6,0,12-5.4,12-12,0-6.6-5.4-12-12.1-12ZM26.6,1146.2c-4.5,0-8.1-3.6-8.1-8.1s3.6-8.1,8.1-8.1,8.1,3.6,8.1,8.1-3.6,8.1-8.1,8.1Z"
           id="path19" />
        <path
           class="cls-26"
           d="M28.7,1165.2H5.9v4.5c3,1.2,5.2,4.1,5.2,7.5s-2.1,6.4-5.2,7.5v4.5h22.9c6.6,0,12-5.4,12-12,0-6.6-5.4-12-12.1-12ZM26.6,1185.3c-4.5,0-8.1-3.6-8.1-8.1s3.6-8.1,8.1-8.1,8.1,3.6,8.1,8.1-3.6,8.1-8.1,8.1Z"
           id="path20" />
        <path
           class="cls-26"
           d="M28.7,1243.5H5.9v4.5c3,1.2,5.2,4.1,5.2,7.5s-2.1,6.4-5.2,7.5v4.5h22.9c6.6,0,12-5.4,12-12h0c0-6.7-5.4-12-12.1-12ZM26.6,1263.6c-4.5,0-8.1-3.6-8.1-8.1s3.6-8.1,8.1-8.1,8.1,3.6,8.1,8.1-3.6,8.1-8.1,8.1Z"
           id="path21" />
        <path
           class="cls-26"
           d="M28.7,1282.6H5.9v4.5c3,1.2,5.2,4.1,5.2,7.5s-2.1,6.4-5.2,7.5v4.5h22.9c6.6,0,12-5.4,12-12h0c0-6.7-5.4-12-12.1-12ZM26.6,1302.7c-4.5,0-8.1-3.6-8.1-8.1s3.6-8.1,8.1-8.1,8.1,3.6,8.1,8.1-3.6,8.1-8.1,8.1Z"
           id="path22" />
        <path
           class="cls-26"
           d="M28.7,1321.7H5.9v4.5c3,1.2,5.2,4.1,5.2,7.5s-2.1,6.4-5.2,7.5v4.5h22.9c6.6,0,12-5.4,12-12,0-6.6-5.4-12-12.1-12ZM26.6,1341.8c-4.5,0-8.1-3.6-8.1-8.1s3.6-8.1,8.1-8.1,8.1,3.6,8.1,8.1-3.6,8.1-8.1,8.1Z"
           id="path23" />
        <path
           class="cls-26"
           d="M324.3,590.5c0-3.4,2.1-6.4,5.2-7.5v-4.5h-22.9c-6.6,0-12,5.4-12,12s5.4,12,12,12h22.9v-4.5c-3.1-1.2-5.2-4.1-5.2-7.5ZM308.7,598.6c-4.5,0-8.1-3.6-8.1-8.1s3.6-8.1,8.1-8.1,8.1,3.6,8.1,8.1-3.6,8.1-8.1,8.1Z"
           id="path24" />
        <path
           class="cls-26"
           d="M324.3,629.6c0-3.4,2.1-6.4,5.2-7.5v-4.5h-22.9c-6.6,0-12,5.4-12,12h0c0,6.6,5.4,12,12,12h22.9v-4.5c-3.1-1.1-5.2-4.1-5.2-7.5ZM308.7,637.7c-4.5,0-8.1-3.6-8.1-8.1s3.6-8.1,8.1-8.1,8.1,3.6,8.1,8.1-3.6,8.1-8.1,8.1Z"
           id="path25" />
        <path
           class="cls-26"
           d="M324.3,668.7c0-3.4,2.1-6.4,5.2-7.5v-4.5h-22.9c-6.6,0-12,5.4-12,12h0c0,6.6,5.4,12,12,12h22.9v-4.5c-3.1-1.1-5.2-4.1-5.2-7.5ZM308.7,676.8c-4.5,0-8.1-3.6-8.1-8.1s3.6-8.1,8.1-8.1,8.1,3.6,8.1,8.1c0,4.5-3.6,8.1-8.1,8.1Z"
           id="path26" />
        <path
           class="cls-26"
           d="M324.3,707.8c0-3.4,2.1-6.4,5.2-7.5v-4.5h-22.9c-6.6,0-12,5.4-12,12s5.4,12,12,12h22.9v-4.5c-3.1-1.1-5.2-4-5.2-7.5ZM308.7,715.9c-4.5,0-8.1-3.6-8.1-8.1s3.6-8.1,8.1-8.1,8.1,3.6,8.1,8.1c0,4.5-3.6,8.1-8.1,8.1Z"
           id="path27" />
        <path
           class="cls-26"
           d="M324.3,746.9c0-3.4,2.1-6.4,5.2-7.5v-4.5h-22.9c-6.6,0-12,5.4-12,12s5.4,12,12,12h22.9v-4.5c-3.1-1.1-5.2-4-5.2-7.5ZM308.7,755c-4.5,0-8.1-3.6-8.1-8.1s3.6-8.1,8.1-8.1,8.1,3.6,8.1,8.1c0,4.5-3.6,8.1-8.1,8.1Z"
           id="path28" />
        <path
           class="cls-26"
           d="M324.3,786.1c0-3.4,2.1-6.4,5.2-7.5v-4.5h-22.9c-6.6,0-12,5.4-12,12s5.4,12,12,12h22.9v-4.5c-3.1-1.2-5.2-4.1-5.2-7.5ZM308.7,794.2c-4.5,0-8.1-3.6-8.1-8.1s3.6-8.1,8.1-8.1,8.1,3.6,8.1,8.1c0,4.4-3.6,8.1-8.1,8.1Z"
           id="path29" />
        <path
           class="cls-26"
           d="M324.3,864.3c0-3.4,2.1-6.4,5.2-7.5v-4.5h-22.9c-6.6,0-12,5.4-12,12s5.4,12,12,12h22.9v-4.5c-3.1-1.1-5.2-4.1-5.2-7.5ZM308.7,872.4c-4.5,0-8.1-3.6-8.1-8.1s3.6-8.1,8.1-8.1,8.1,3.6,8.1,8.1c0,4.5-3.6,8.1-8.1,8.1Z"
           id="path30" />
        <path
           class="cls-26"
           d="M324.3,942.5c0-3.4,2.1-6.4,5.2-7.5v-4.5h-22.9c-6.6,0-12,5.4-12,12h0c0,6.6,5.4,12,12,12h22.9v-4.5c-3.1-1.1-5.2-4-5.2-7.5ZM308.7,950.6c-4.5,0-8.1-3.6-8.1-8.1s3.6-8.1,8.1-8.1,8.1,3.6,8.1,8.1-3.6,8.1-8.1,8.1Z"
           id="path31" />
        <path
           class="cls-26"
           d="M324.3,981.6c0-3.4,2.1-6.4,5.2-7.5v-4.5h-22.9c-6.6,0-12,5.4-12,12h0c0,6.6,5.4,12,12,12h22.9v-4.5c-3.1-1.1-5.2-4-5.2-7.5ZM308.7,989.7c-4.5,0-8.1-3.6-8.1-8.1s3.6-8.1,8.1-8.1,8.1,3.6,8.1,8.1c0,4.5-3.6,8.1-8.1,8.1Z"
           id="path32" />
        <path
           class="cls-26"
           d="M324.3,1020.8c0-3.4,2.1-6.4,5.2-7.5v-4.5h-22.9c-6.6,0-12,5.4-12,12s5.4,12,12,12h22.9v-4.5c-3.1-1.2-5.2-4.1-5.2-7.5ZM308.7,1028.9c-4.5,0-8.1-3.6-8.1-8.1s3.6-8.1,8.1-8.1,8.1,3.6,8.1,8.1c0,4.4-3.6,8.1-8.1,8.1Z"
           id="path33" />
        <path
           class="cls-26"
           d="M324.3,1059.9c0-3.4,2.1-6.4,5.2-7.5v-4.5h-22.9c-6.6,0-12,5.4-12,12s5.4,12,12,12h22.9v-4.5c-3.1-1.2-5.2-4.1-5.2-7.5ZM308.7,1068c-4.5,0-8.1-3.6-8.1-8.1s3.6-8.1,8.1-8.1,8.1,3.6,8.1,8.1c0,4.4-3.6,8.1-8.1,8.1Z"
           id="path34" />
        <path
           class="cls-26"
           d="M324.3,1099c0-3.4,2.1-6.4,5.2-7.5v-4.5h-22.9c-6.6,0-12,5.4-12,12s5.4,12,12,12h22.9v-4.5c-3.1-1.1-5.2-4.1-5.2-7.5ZM308.7,1107.1c-4.5,0-8.1-3.6-8.1-8.1s3.6-8.1,8.1-8.1,8.1,3.6,8.1,8.1c0,4.5-3.6,8.1-8.1,8.1Z"
           id="path35" />
        <path
           class="cls-26"
           d="M324.3,1138.1c0-3.4,2.1-6.4,5.2-7.5v-4.5h-22.9c-6.6,0-12,5.4-12,12s5.4,12,12,12h22.9v-4.5c-3.1-1.1-5.2-4.1-5.2-7.5ZM308.7,1146.2c-4.5,0-8.1-3.6-8.1-8.1s3.6-8.1,8.1-8.1,8.1,3.6,8.1,8.1c0,4.5-3.6,8.1-8.1,8.1Z"
           id="path36" />
        <path
           class="cls-26"
           d="M324.3,1177.2c0-3.4,2.1-6.4,5.2-7.5v-4.5h-22.9c-6.6,0-12,5.4-12,12s5.4,12,12,12h22.9v-4.5c-3.1-1.1-5.2-4-5.2-7.5ZM308.7,1185.3c-4.5,0-8.1-3.6-8.1-8.1s3.6-8.1,8.1-8.1,8.1,3.6,8.1,8.1c0,4.5-3.6,8.1-8.1,8.1Z"
           id="path37" />
        <path
           class="cls-26"
           d="M324.3,1255.5c0-3.4,2.1-6.4,5.2-7.5v-4.5h-22.9c-6.6,0-12,5.4-12,12h0c0,6.6,5.4,12,12,12h22.9v-4.5c-3.1-1.2-5.2-4.1-5.2-7.5ZM308.7,1263.6c-4.5,0-8.1-3.6-8.1-8.1s3.6-8.1,8.1-8.1,8.1,3.6,8.1,8.1c0,4.4-3.6,8.1-8.1,8.1Z"
           id="path38" />
        <path
           class="cls-26"
           d="M324.3,1294.6c0-3.4,2.1-6.4,5.2-7.5v-4.5h-22.9c-6.6,0-12,5.4-12,12h0c0,6.6,5.4,12,12,12h22.9v-4.5c-3.1-1.2-5.2-4.1-5.2-7.5ZM308.7,1302.7c-4.5,0-8.1-3.6-8.1-8.1s3.6-8.1,8.1-8.1,8.1,3.6,8.1,8.1c0,4.4-3.6,8.1-8.1,8.1Z"
           id="path39" />
        <path
           class="cls-22"
           d="M222.5,553.1l5.9-5.9-3-3-8.8,8.8h-2v-6.2c0-1.6-1.3-3-3-3h-92.5c-1.6,0-3,1.3-3,3v6.2h-2l-8.8-8.8-3,3,5.9,5.9c-.8.3-1.3,1-1.3,1.9v74.9c0,1.1.9,2.1,2.1,2.1h112.6c1.1,0,2.1-.9,2.1-2.1v-74.9c.1-.9-.5-1.6-1.2-1.9Z"
           id="path40" />
        <g
           id="g42">
          <path
             class="cls-31"
             d="M139,582.7c0-4.3-3.5-7.8-7.8-7.8s-7.8,3.5-7.8,7.8.7,3.6,1.8,5h-.3v10.3c0,1.6,1.3,2.8,2.8,2.8h6.8c1.6,0,2.8-1.3,2.8-2.8v-10.3h-.3c1.3-1.4,2-3.1,2-5Z"
             id="path41" />
          <path
             class="cls-31"
             d="M212.5,582.7c0-4.3-3.5-7.8-7.8-7.8s-7.8,3.5-7.8,7.8.7,3.6,1.8,5h-.3v10.3c0,1.6,1.3,2.8,2.8,2.8h6.8c1.6,0,2.8-1.3,2.8-2.8v-10.3h-.3c1.3-1.4,2-3.1,2-5Z"
             id="path42" />
        </g>
        <path
           class="cls-4"
           d="M273.5,755.9h-29.4c-1.2,0-2.2-1-2.2-2.2v-36.9c0-1.2,1-2.2,2.2-2.2h29.4c1.2,0,2.2,1,2.2,2.2v36.9c0,1.2-1,2.2-2.2,2.2Z"
           id="path43" />
        <g
           id="g44">
          <path
             id="rect43"
             class="cls-19"
             style="fill:#e2eade"
             d="m 181.2,671 h 28.9 v 19.2 h -28.9 z" />
          <path
             class="cls-20"
             d="M204.1,690.2c-2.6-2.4-4.3-5.8-4.3-9.6s1.7-7.2,4.3-9.6h-17.1c2.6,2.4,4.3,5.8,4.3,9.6s-1.7,7.2-4.3,9.6h17.1Z"
             id="path44" />
        </g>
        <g
           id="g45">
          <path
             id="rect44"
             class="cls-19"
             style="fill:#e2eade"
             d="m 181.60001,784.59998 h 28.9 v 19.2 h -28.9 z" />
          <path
             class="cls-20"
             d="M204.6,803.8c-2.6-2.4-4.3-5.8-4.3-9.6s1.7-7.2,4.3-9.6h-17.1c2.6,2.4,4.3,5.8,4.3,9.6s-1.7,7.2-4.3,9.6h17.1Z"
             id="path45" />
        </g>
        <g
           id="g46">
          <path
             id="rect45"
             class="cls-19"
             style="fill:#e2eade"
             d="m 181.60001,810.09998 h 28.9 v 19.2 h -28.9 z" />
          <path
             class="cls-20"
             d="M204.6,829.3c-2.6-2.4-4.3-5.8-4.3-9.6s1.7-7.2,4.3-9.6h-17.1c2.6,2.4,4.3,5.8,4.3,9.6s-1.7,7.2-4.3,9.6h17.1Z"
             id="path46" />
        </g>
        <g
           id="g47">
          <path
             id="rect46"
             class="cls-19"
             style="fill:#e2eade"
             d="m 87,877.90002 h 14.1 v 7.2 H 87 Z" />
          <path
             id="rect47"
             class="cls-20"
             style="fill:#c29148"
             d="m 90.099998,877.90002 h 8 v 7.2 h -8 z" />
        </g>
        <g
           id="g49">
          <path
             id="rect48"
             class="cls-19"
             style="fill:#e2eade"
             d="m 241.2,851.20001 h 7.2 v 14.1 h -7.2 z" />
          <path
             id="rect49"
             class="cls-20"
             style="fill:#c29148"
             d="m 241.2,854.29999 h 7.2 v 8 h -7.2 z" />
        </g>
        <path
           id="rect50"
           class="cls-4"
           style="fill:#474544"
           d="m 244.39999,651.59998 h 25.2 v 39 h -25.2 z" />
        <g
           id="g52">
          <path
             id="rect51"
             class="cls-19"
             style="fill:#e2eade"
             d="m 233.89999,786.40002 h 27.4 v 12.8 h -27.4 z" />
          <path
             id="rect52"
             class="cls-29"
             style="fill:#8dddde"
             d="m 240,786.40002 h 15.3 v 12.8 H 240 Z" />
        </g>
        <path
           id="rect53"
           class="cls-20"
           style="fill:#c29148"
           d="m 165.5,1010 h 5.6 v 9.1 h -5.6 z" />
        <path
           id="rect54"
           class="cls-20"
           style="fill:#c29148"
           d="m 174.39999,1010 h 5.6 v 9.1 h -5.6 z" />
        <path
           id="rect55"
           class="cls-20"
           style="fill:#c29148"
           d="M 92.400002,892 H 101.5 v 5.6 h -9.099998 z" />
        <path
           id="rect56"
           class="cls-20"
           style="fill:#c29148"
           d="m 122.9,802.59998 h 9.1 v 5.6 h -9.1 z" />
        <path
           id="rect57"
           class="cls-20"
           style="fill:#c29148"
           d="M 91.900002,950 H 101 v 5.6 h -9.099998 z" />
        <path
           id="rect58"
           class="cls-4"
           style="fill:#474544"
           d="m 264.89999,955.20001 h 5.6 v 9.1 h -5.6 z" />
        <path
           id="rect59"
           class="cls-4"
           style="fill:#474544"
           d="m 255.5,875.5 h 9.1 v 5.6 h -9.1 z" />
        <path
           id="rect60"
           class="cls-4"
           style="fill:#474544"
           d="m 119.8,668.29999 h 9.1 v 5.6 h -9.1 z" />
        <path
           id="rect61"
           class="cls-4"
           style="fill:#474544"
           d="m 113.3,684.59998 h 9.1 v 5.6 h -9.1 z" />
        <path
           id="rect62"
           class="cls-4"
           style="fill:#474544"
           d="m 260.39999,807.70001 h 9.1 v 5.6 h -9.1 z" />
        <path
           class="cls-28"
           d="M254.7,1227.8H80.7c-2.1,0-3.9-1.7-3.9-3.9v-146.4c0-2.1,1.7-3.9,3.9-3.9h174c2.1,0,3.9,1.7,3.9,3.9v146.5c0,2.1-1.7,3.8-3.9,3.8Z"
           id="path62" />
        <path
           id="rect63"
           class="cls-1"
           style="fill:#c2bfab"
           d="m 140.60001,1289.4 h 14 v 7.9 h -14 z" />
        <path
           id="rect64"
           class="cls-1"
           style="fill:#c2bfab"
           d="m 178.8,1289.6 h 14 v 7.9 h -14 z" />
        <path
           id="rect65"
           class="cls-1"
           style="fill:#c2bfab"
           d="m 140.60001,1339.7 h 14 v 7.9 h -14 z" />
        <path
           id="rect66"
           class="cls-1"
           style="fill:#c2bfab"
           d="m 178.8,1339.9 h 14 v 7.9 h -14 z" />
        <path
           id="polyline66"
           class="cls-11"
           style="fill:none;stroke:#95ac6e;stroke-miterlimit:10"
           d="m 28.7,600.8 v 5.9 l 23.9,23.9 v 64.7 L 73.4,716 v 179.3 l 6.6,6.6 h 46.9" />
        <path
           id="polyline67"
           class="cls-11"
           style="fill:none;stroke:#95ac6e;stroke-miterlimit:10"
           d="m 36,636.5 10.7,10.8 v 50.4 l 20.9,20.9 v 180 l 7.9,7.9 h 51.1" />
        <path
           id="polyline68"
           class="cls-11"
           style="fill:none;stroke:#95ac6e;stroke-miterlimit:10"
           d="m 36.4,714.3 26.3,26.3 v 161.3 l 13.9,13.8 h 55.3" />
        <path
           id="polyline69"
           class="cls-11"
           style="fill:none;stroke:#95ac6e;stroke-miterlimit:10"
           d="m 36.4,753.5 22,22 v 128.9 l 16.1,16.2 H 132" />
        <path
           id="polyline70"
           class="cls-11"
           style="fill:none;stroke:#95ac6e;stroke-miterlimit:10"
           d="M 36.4,793.6 52.8,810 v 101.1 l 18.6,18.6 h 58.3" />
        <path
           id="polyline71"
           class="cls-11"
           style="fill:none;stroke:#95ac6e;stroke-miterlimit:10"
           d="m 36,831 11.6,11.6 v 72.1 l 19.7,19.7 h 66.1" />
        <path
           id="polyline72"
           class="cls-11"
           style="fill:none;stroke:#95ac6e;stroke-miterlimit:10"
           d="m 36,909.1 29.8,29.8 h 76.3" />
        <path
           id="line72"
           class="cls-11"
           style="fill:none;stroke:#95ac6e;stroke-miterlimit:10"
           d="M 37,943.59998 H 137" />
        <path
           class="cls-11"
           d="M36.4,978.6c0-.8,23-23,23-23h16.6l6.5,6.5h60.8"
           id="path72" />
        <path
           id="polyline73"
           class="cls-11"
           style="fill:none;stroke:#95ac6e;stroke-miterlimit:10"
           d="m 32.6,1013.1 7.1,-7.1 v -10.3 l 6.9,-6.9 V 977.6 L 64,960.2 h 11.5 l 6.2,6.3 h 50.6" />
        <path
           class="cls-11"
           d="M46.3,1000l4.5-4.5s-.9-11.8,0-12.7,8-8,8-8l8.3-8.3h8.1l4.9,4.9h46.7"
           id="path73" />
        <path
           id="polyline74"
           class="cls-11"
           style="fill:none;stroke:#95ac6e;stroke-miterlimit:10"
           d="m 44.2,1074.5 v -63.4 l 12.7,-12.7 h 72.9 l 2.1,-2.2 v -12.9" />
        <path
           id="polyline75"
           class="cls-11"
           style="fill:none;stroke:#95ac6e;stroke-miterlimit:10"
           d="m 28.7,1205.2 v -4.8 l 20.6,-20.6 V 1073 l 3.7,-3.7 v -55.6 l 8.4,-8.4 h 69.5 l 5.6,-5.6 V 990" />
        <path
           class="cls-11"
           d="M53,1050.3"
           id="path75" />
        <path
           class="cls-11"
           d="M53,1070.6"
           id="path76" />
        <path
           id="polyline76"
           class="cls-11"
           style="fill:none;stroke:#95ac6e;stroke-miterlimit:10"
           d="m 36.9,1285.8 9.1,-9 v -85.9 l 9.4,-7.9" />
        <path
           id="polyline77"
           class="cls-11"
           style="fill:none;stroke:#95ac6e;stroke-miterlimit:10"
           d="m 52.9,1196.7 9.3,-9.4 V 1068 l -3.6,-3.6 v -49 l 6.2,-6.2 h 67 l 9.4,-9.4 v -22" />
        <path
           id="polyline78"
           class="cls-11"
           style="fill:none;stroke:#95ac6e;stroke-miterlimit:10"
           d="m 150.5,986.8 v 11.6 l -17.4,17.3 h -5.9" />
        <path
           id="polyline79"
           class="cls-11"
           style="fill:none;stroke:#95ac6e;stroke-miterlimit:10"
           d="M 130.4,1027.1 155,1002.5 V 982" />
        <path
           id="polyline80"
           class="cls-11"
           style="fill:none;stroke:#95ac6e;stroke-miterlimit:10"
           d="m 159.7,989.2 v 15.5 l -18.2,18.2 v 26.6 l -8.3,8.4 H 91.9 l -12.6,-12.6" />
        <path
           id="polyline81"
           class="cls-11"
           style="fill:none;stroke:#95ac6e;stroke-miterlimit:10"
           d="m 183.7,1041 6.4,-6.3 V 1017 l -4.2,-4.2 v -13.3 l -4.2,-4.3 v -14.5" />
        <path
           id="polyline82"
           class="cls-11"
           style="fill:none;stroke:#95ac6e;stroke-miterlimit:10"
           d="m 188.2,986.1 v 10.5 l 2.6,2.6 v 8.5 l 17.9,17.9 H 225 l 18.9,19" />
        <path
           id="polyline83"
           class="cls-11"
           style="fill:none;stroke:#95ac6e;stroke-miterlimit:10"
           d="M 198.8,983.2 V 997 l 8,8 h 27.9 l 37.6,37.6 v 149.9 l 8.3,8.2 v 67.7 l 7.4,7.4 v 26.9 l 14.7,14.7 v 7" />
        <path
           id="polyline84"
           class="cls-11"
           style="fill:none;stroke:#95ac6e;stroke-miterlimit:10"
           d="m 206,983.8 v 9.7 l 5.4,5.4 h 25.2 l 41.9,42 v 148.3 l 8.3,8.3 v 70 l 5.5,5.5 v 11.7" />
        <path
           id="polyline85"
           class="cls-11"
           style="fill:none;stroke:#95ac6e;stroke-miterlimit:10"
           d="m 215.1,976.9 h 10.3 l 61,61 v 148.6 l 21.5,21.4" />
        <path
           id="polyline86"
           class="cls-11"
           style="fill:none;stroke:#95ac6e;stroke-miterlimit:10"
           d="m 215.1,971.1 h 12.5 l 33.6,33.5" />
        <path
           id="polyline87"
           class="cls-11"
           style="fill:none;stroke:#95ac6e;stroke-miterlimit:10"
           d="m 216.6,964.2 h 10.7 l 31.2,31.3 h 7.1 l 14.4,14.4 v 9.2" />
        <path
           id="polyline88"
           class="cls-11"
           style="fill:none;stroke:#95ac6e;stroke-miterlimit:10"
           d="m 216,958.3 h 12.2 l 30.7,30.7 h 14" />
        <path
           id="polyline89"
           class="cls-11"
           style="fill:none;stroke:#95ac6e;stroke-miterlimit:10"
           d="m 216,952.8 h 14.6 l 6.6,6.6" />
        <path
           id="polyline90"
           class="cls-11"
           style="fill:none;stroke:#95ac6e;stroke-miterlimit:10"
           d="m 216,946.2 h 23 l 36.4,36.4 h 4.6 l 12.9,12.8 v 16.5" />
        <path
           id="line90"
           class="cls-11"
           style="fill:none;stroke:#95ac6e;stroke-miterlimit:10"
           d="m 216.60001,939 h 12" />
        <path
           id="polyline91"
           class="cls-11"
           style="fill:none;stroke:#95ac6e;stroke-miterlimit:10"
           d="m 213.6,931.8 h 20.5 l 9.8,9.8" />
        <path
           id="polyline92"
           class="cls-11"
           style="fill:none;stroke:#95ac6e;stroke-miterlimit:10"
           d="m 255.5,958.3 6.1,-6 v -25.7 h 14.6" />
        <path
           id="polyline93"
           class="cls-11"
           style="fill:none;stroke:#95ac6e;stroke-miterlimit:10"
           d="m 216.6,920.6 h 67.7 l 12,11.9" />
        <path
           id="polyline94"
           class="cls-11"
           style="fill:none;stroke:#95ac6e;stroke-miterlimit:10"
           d="m 216,914.7 h 74 l 8.6,-8.6" />
        <path
           id="polyline95"
           class="cls-11"
           style="fill:none;stroke:#95ac6e;stroke-miterlimit:10"
           d="m 215.1,909.1 h 55 l 11,-11 v -53.6 l 16.6,-16.6" />
        <path
           id="polyline96"
           class="cls-11"
           style="fill:none;stroke:#95ac6e;stroke-miterlimit:10"
           d="m 216.6,903.4 h 27.3 l 30.9,-30.9 v -30.4" />
        <path
           id="polyline97"
           class="cls-11"
           style="fill:none;stroke:#95ac6e;stroke-miterlimit:10"
           d="m 218.1,897.1 h 9.8 l 6.2,-6.1" />
        <path
           class="cls-11"
           d="M202.2,890.1c-.2-.3,12.3-12.3,12.3-12.3h20.7v-44.5l3.7-3.7v-10.2"
           id="path97" />
        <path
           class="cls-11"
           d="M201.2,887.1v-8.6l13.8-13.8"
           id="path98" />
        <path
           id="polyline98"
           class="cls-11"
           style="fill:none;stroke:#95ac6e;stroke-miterlimit:10"
           d="M 191.9,888.4 V 874 l 9.8,-9.8" />
        <path
           id="line98"
           class="cls-11"
           style="fill:none;stroke:#95ac6e;stroke-miterlimit:10"
           d="M 187.2,884.29999 V 860.90002" />
        <path
           class="cls-11"
           d="M182.6,886.7v-20.2l-5.6-5.6"
           id="path99" />
        <path
           class="cls-11"
           d="M168.7,886.2v-27.5"
           id="path100" />
        <path
           class="cls-11"
           d="M164.1,888.4v-14.7l-10.1-10.2"
           id="path101" />
        <path
           id="polyline101"
           class="cls-11"
           style="fill:none;stroke:#95ac6e;stroke-miterlimit:10"
           d="m 159.4,887.8 v -8.5 L 141,860.8 v -8.5 l 4.2,-4.3 h 5.2 l 3.5,-3.5 v -14 l -7.2,-7.1 h -8.2" />
        <path
           id="polyline102"
           class="cls-11"
           style="fill:none;stroke:#95ac6e;stroke-miterlimit:10"
           d="m 138.3,831 h 7.4 l 4.1,4.1 v 7 l -3.6,3.6 h -6.1 l -4.6,4.6 v 12 l 14.6,14.6 v 9" />
        <path
           id="polyline103"
           class="cls-11"
           style="fill:none;stroke:#95ac6e;stroke-miterlimit:10"
           d="m 126.9,837 v 22.3 l 18.6,18.6 v 12.6" />
        <path
           id="polyline104"
           class="cls-11"
           style="fill:none;stroke:#95ac6e;stroke-miterlimit:10"
           d="m 107.3,836 v 9.5 l 12.5,12.5 v 5.1 l 17.4,17.4 v 12.1" />
        <path
           class="cls-11"
           d="M131.6,884.7v-6.7l-15.6-15.5v-1.5l-6-6h-8.5l-2.3-2.3h-9.2l-8.9-8.9v-19.1l2.1-2.1h11.8"
           id="path104" />
        <path
           id="polyline105"
           class="cls-11"
           style="fill:none;stroke:#95ac6e;stroke-miterlimit:10"
           d="M 97.4,814.5 H 85.9 l -6.6,6.7 v 23.7 l 10.6,10.6 H 98 l 8.5,8.5 h 3.3 l 18.7,18.7" />
        <path
           id="line105"
           class="cls-11"
           style="fill:none;stroke:#95ac6e;stroke-miterlimit:10"
           d="M 103.7,779 80.099998,802.70001" />
        <path
           id="polyline106"
           class="cls-11"
           style="fill:none;stroke:#95ac6e;stroke-miterlimit:10"
           d="m 188.7,859.7 v -8.2 l -4,-3.9 v -4 l -5.9,-5.9 h -6.7 l -5.4,-5.5 V 807 L 151.5,791.8 V 682.4 l 19,-19 v -12.1 l 4.9,-4.9" />
        <path
           class="cls-11"
           d="M185.5,716.8v-11.9l-4.1-4.1h-13.1l-5.9-5.9v-5.9"
           id="path106" />
        <path
           id="polyline107"
           class="cls-11"
           style="fill:none;stroke:#95ac6e;stroke-miterlimit:10"
           d="m 177.5,759.9 v 7.2 l -4.2,4.2 h -7.9 l -2,2.1" />
        <path
           id="polyline108"
           class="cls-11"
           style="fill:none;stroke:#95ac6e;stroke-miterlimit:10"
           d="m 89.2,644.3 v 12.5 l 21.6,21.6 h 5.9 l 6.5,6.5 v 10.9 l -6,6 v 18" />
        <path
           id="rect108"
           class="cls-2"
           style="fill:#e8d28a"
           d="m 66.199997,634.79999 h 25.200001 v 12.8 H 66.199997 Z" />
        <g
           id="g113">
          <path
             id="rect109"
             class="cls-13"
             style="fill:#cecece"
             d="m 142.2,632 h 5.7 v 15.3 h -5.7 z" />
          <path
             id="rect110"
             class="cls-13"
             style="fill:#cecece"
             d="m 152.39999,632 h 5.7 v 15.3 h -5.7 z" />
          <path
             id="rect111"
             class="cls-13"
             style="fill:#cecece"
             d="m 162.60001,632 h 5.7 v 15.3 h -5.7 z" />
          <path
             id="rect112"
             class="cls-13"
             style="fill:#cecece"
             d="m 172.8,632 h 5.7 v 15.3 h -5.7 z" />
          <path
             id="rect113"
             class="cls-13"
             style="fill:#cecece"
             d="m 183,632 h 5.7 v 15.3 H 183 Z" />
        </g>
        <g
           id="g115">
          <path
             class="cls-7"
             d="M147.6,659.6v-7.3h3.3v7.7c0,2.6.8,3.6,2.3,3.6s2.4-.9,2.4-3.6v-7.7h3.2v7.3c0,4.7-1.9,6.8-5.5,6.8s-5.7-2.1-5.7-6.8Z"
             id="path113" />
          <path
             class="cls-7"
             d="M160.8,664.4l1.7-2.1c1,.9,2.3,1.3,3.5,1.3s1.8-.5,1.8-1.2-.7-1.1-2-1.6l-1.8-.8c-1.5-.6-2.8-1.8-2.8-3.8s2.1-4.2,5-4.2,3.3.6,4.5,1.7l-1.7,2.1c-.9-.7-1.9-1-2.8-1s-1.7.4-1.7,1.1.9,1.1,2.1,1.6l1.7.7c1.7.7,2.7,1.8,2.7,3.8s-1.9,4.3-5.3,4.3c-1.6.1-3.5-.5-4.9-1.9Z"
             id="path114" />
          <path
             class="cls-7"
             d="M173.5,652.3h4.8c2.9,0,5.2.8,5.2,3.4s-.7,2.6-1.8,3h0c1.4.5,2.5,1.5,2.5,3.4,0,2.8-2.4,4.1-5.4,4.1h-5.2v-13.9h-.1ZM178.2,657.8c1.4,0,2-.6,2-1.6s-.7-1.4-2-1.4h-1.4v3h1.4ZM178.5,663.6c1.6,0,2.4-.6,2.4-1.8s-.8-1.6-2.4-1.6h-1.7v3.4h1.7Z"
             id="path115" />
        </g>
        <path
           class="cls-32"
           d="M232.3,760.6h-61.5c-.5,0-1-.4-1-1v-45.3c0-.5.4-1,1-1h61.5c.5,0,1,.4,1,1v45.3c-.1.6-.5,1-1,1Z"
           id="path116" />
        <g
           id="g122">
          <path
             id="rect116"
             class="cls-13"
             style="fill:#cecece"
             d="m 176.60001,707.90002 h 1.9 v 5.5 h -1.9 z" />
          <path
             id="rect117"
             class="cls-13"
             style="fill:#cecece"
             d="m 184.60001,707.90002 h 1.9 v 5.5 h -1.9 z" />
          <path
             id="rect118"
             class="cls-13"
             style="fill:#cecece"
             d="m 192.60001,707.90002 h 1.9 v 5.5 h -1.9 z" />
          <path
             id="rect119"
             class="cls-13"
             style="fill:#cecece"
             d="m 200.60001,707.90002 h 1.9 v 5.5 h -1.9 z" />
          <path
             id="rect120"
             class="cls-13"
             style="fill:#cecece"
             d="m 208.60001,707.90002 h 1.9 v 5.5 h -1.9 z" />
          <path
             id="rect121"
             class="cls-13"
             style="fill:#cecece"
             d="m 216.60001,707.90002 h 1.9 v 5.5 h -1.9 z" />
          <path
             id="rect122"
             class="cls-13"
             style="fill:#cecece"
             d="m 224.5,707.90002 h 1.9 v 5.5 h -1.9 z" />
        </g>
        <g
           id="g129">
          <path
             id="rect123"
             class="cls-13"
             style="fill:#cecece"
             d="m 176.60001,760.59998 h 1.9 v 5.5 h -1.9 z" />
          <path
             id="rect124"
             class="cls-13"
             style="fill:#cecece"
             d="m 184.60001,760.59998 h 1.9 v 5.5 h -1.9 z" />
          <path
             id="rect125"
             class="cls-13"
             style="fill:#cecece"
             d="m 192.60001,760.59998 h 1.9 v 5.5 h -1.9 z" />
          <path
             id="rect126"
             class="cls-13"
             style="fill:#cecece"
             d="m 200.60001,760.59998 h 1.9 v 5.5 h -1.9 z" />
          <path
             id="rect127"
             class="cls-13"
             style="fill:#cecece"
             d="m 208.60001,760.59998 h 1.9 v 5.5 h -1.9 z" />
          <path
             id="rect128"
             class="cls-13"
             style="fill:#cecece"
             d="m 216.60001,760.59998 h 1.9 v 5.5 h -1.9 z" />
          <path
             id="rect129"
             class="cls-13"
             style="fill:#cecece"
             d="m 224.5,760.59998 h 1.9 v 5.5 h -1.9 z" />
        </g>
        <g
           id="g134">
          <path
             id="rect130"
             class="cls-35"
             style="fill:#868c97"
             d="M 87.199997,718.5 H 139.5 v 65.1 H 87.199997 Z" />
          <path
             class="cls-21"
             d="M117.9,775.4h-9.1c-7.6,0-13.7-6.1-13.7-13.7v-21.2c0-7.6,6.1-13.7,13.7-13.7h9.1c7.6,0,13.7,6.1,13.7,13.7v21.2c0,7.5-6.2,13.7-13.7,13.7Z"
             id="path130" />
          <path
             class="cls-21"
             d="M90.6,732.2h-3.4v-13.7h13.7v3.4c0,5.7-4.6,10.3-10.3,10.3Z"
             id="path131" />
          <path
             class="cls-21"
             d="M100.8,783.6h-13.6v-13.6h3.4c5.7,0,10.3,4.6,10.3,10.3v3.3h0Z"
             id="path132" />
          <path
             class="cls-21"
             d="M139.4,732.2h-3.4c-5.7,0-10.3-4.6-10.3-10.3v-3.4h13.7v13.7Z"
             id="path133" />
          <path
             class="cls-21"
             d="M139.4,783.6h-13.7v-3.4c0-5.7,4.6-10.3,10.3-10.3h3.4v13.7Z"
             id="path134" />
        </g>
        <g
           id="g143">
          <path
             id="rect134"
             class="cls-32"
             style="fill:#36323e"
             d="M 91.900002,811 H 137.9 v 30.5 H 91.900002 Z" />
          <g
             id="g138">
            <path
               id="rect135"
               class="cls-13"
               style="fill:#cecece"
               d="m 86.300003,812.5 h 5.6 v 4.5 h -5.6 z" />
            <path
               id="rect136"
               class="cls-13"
               style="fill:#cecece"
               d="m 86.300003,820.20001 h 5.6 v 4.5 h -5.6 z" />
            <path
               id="rect137"
               class="cls-13"
               style="fill:#cecece"
               d="m 86.300003,827.79999 h 5.6 v 4.5 h -5.6 z" />
            <path
               id="rect138"
               class="cls-13"
               style="fill:#cecece"
               d="m 86.300003,835.40002 h 5.6 v 4.5 h -5.6 z" />
          </g>
          <g
             id="g142">
            <path
               id="rect139"
               class="cls-13"
               style="fill:#cecece"
               d="m 137.89999,812.5 h 5.6 v 4.5 h -5.6 z" />
            <path
               id="rect140"
               class="cls-13"
               style="fill:#cecece"
               d="m 137.89999,820.20001 h 5.6 v 4.5 h -5.6 z" />
            <path
               id="rect141"
               class="cls-13"
               style="fill:#cecece"
               d="m 137.89999,827.79999 h 5.6 v 4.5 h -5.6 z" />
            <path
               id="rect142"
               class="cls-13"
               style="fill:#cecece"
               d="m 137.89999,835.40002 h 5.6 v 4.5 h -5.6 z" />
          </g>
        </g>
        <path
           id="rect143"
           class="cls-4"
           style="fill:#474544"
           d="m 185.8,852.90002 h 5.6 v 9.1 h -5.6 z" />
        <g
           id="g224">
          <path
             class="cls-34"
             d="M219.4,991h-106.1c-.7,0-1.3-.6-1.3-1.3v-106.1c0-.7.6-1.3,1.3-1.3h106.1c.7,0,1.3.6,1.3,1.3v106.1c0,.7-.6,1.3-1.3,1.3Z"
             id="path143" />
          <g
             id="g163">
            <path
               id="rect144"
               class="cls-13"
               style="fill:#cecece"
               d="m 120.2,879.79999 h 4.1 v 2.6 h -4.1 z" />
            <path
               id="rect145"
               class="cls-13"
               style="fill:#cecece"
               d="m 124.9,879.79999 h 4.1 v 2.6 h -4.1 z" />
            <path
               id="rect146"
               class="cls-13"
               style="fill:#cecece"
               d="m 129.5,879.79999 h 4.1 v 2.6 h -4.1 z" />
            <path
               id="rect147"
               class="cls-13"
               style="fill:#cecece"
               d="m 134.2,879.79999 h 4.1 v 2.6 h -4.1 z" />
            <path
               id="rect148"
               class="cls-13"
               style="fill:#cecece"
               d="m 138.8,879.79999 h 4.1 v 2.6 h -4.1 z" />
            <path
               id="rect149"
               class="cls-13"
               style="fill:#cecece"
               d="m 143.39999,879.79999 h 4.1 v 2.6 h -4.1 z" />
            <path
               id="rect150"
               class="cls-13"
               style="fill:#cecece"
               d="m 148.10001,879.79999 h 4.1 v 2.6 h -4.1 z" />
            <path
               id="rect151"
               class="cls-13"
               style="fill:#cecece"
               d="m 157.3,879.79999 h 4.1 v 2.6 h -4.1 z" />
            <path
               id="rect152"
               class="cls-13"
               style="fill:#cecece"
               d="m 166.60001,879.79999 h 4.1 v 2.6 h -4.1 z" />
            <path
               id="rect153"
               class="cls-13"
               style="fill:#cecece"
               d="m 175.89999,879.79999 h 4.1 v 2.6 h -4.1 z" />
            <path
               id="rect154"
               class="cls-13"
               style="fill:#cecece"
               d="m 189.8,879.79999 h 4.1 v 2.6 h -4.1 z" />
            <path
               id="rect155"
               class="cls-13"
               style="fill:#cecece"
               d="m 194.39999,879.79999 h 4.1 v 2.6 h -4.1 z" />
            <path
               id="rect156"
               class="cls-13"
               style="fill:#cecece"
               d="m 203.7,879.79999 h 4.1 v 2.6 h -4.1 z" />
            <path
               id="rect157"
               class="cls-13"
               style="fill:#cecece"
               d="m 152.7,879.79999 h 4.1 v 2.6 h -4.1 z" />
            <path
               id="rect158"
               class="cls-13"
               style="fill:#cecece"
               d="m 162,879.79999 h 4.1 v 2.6 H 162 Z" />
            <path
               id="rect159"
               class="cls-13"
               style="fill:#cecece"
               d="m 171.3,879.79999 h 4.1 v 2.6 h -4.1 z" />
            <path
               id="rect160"
               class="cls-13"
               style="fill:#cecece"
               d="m 180.5,879.79999 h 4.1 v 2.6 h -4.1 z" />
            <path
               id="rect161"
               class="cls-13"
               style="fill:#cecece"
               d="m 185.2,879.79999 h 4.1 v 2.6 h -4.1 z" />
            <path
               id="rect162"
               class="cls-13"
               style="fill:#cecece"
               d="m 199.10001,879.79999 h 4.1 v 2.6 h -4.1 z" />
            <path
               id="rect163"
               class="cls-13"
               style="fill:#cecece"
               d="m 208.39999,879.79999 h 4.1 v 2.6 h -4.1 z" />
          </g>
          <g
             id="g183">
            <path
               id="rect164"
               class="cls-13"
               style="fill:#cecece"
               d="m 120.5,991 h 4.1 v 2.6 h -4.1 z" />
            <path
               id="rect165"
               class="cls-13"
               style="fill:#cecece"
               d="m 125.1,991 h 4.1 v 2.6 h -4.1 z" />
            <path
               id="rect166"
               class="cls-13"
               style="fill:#cecece"
               d="m 129.8,991 h 4.1 v 2.6 h -4.1 z" />
            <path
               id="rect167"
               class="cls-13"
               style="fill:#cecece"
               d="m 134.39999,991 h 4.1 v 2.6 h -4.1 z" />
            <path
               id="rect168"
               class="cls-13"
               style="fill:#cecece"
               d="m 139,991 h 4.1 v 2.6 H 139 Z" />
            <path
               id="rect169"
               class="cls-13"
               style="fill:#cecece"
               d="m 143.7,991 h 4.1 v 2.6 h -4.1 z" />
            <path
               id="rect170"
               class="cls-13"
               style="fill:#cecece"
               d="m 148.3,991 h 4.1 v 2.6 h -4.1 z" />
            <path
               id="rect171"
               class="cls-13"
               style="fill:#cecece"
               d="m 157.60001,991 h 4.1 v 2.6 h -4.1 z" />
            <path
               id="rect172"
               class="cls-13"
               style="fill:#cecece"
               d="m 166.89999,991 h 4.1 v 2.6 h -4.1 z" />
            <path
               id="rect173"
               class="cls-13"
               style="fill:#cecece"
               d="m 176.10001,991 h 4.1 v 2.6 h -4.1 z" />
            <path
               id="rect174"
               class="cls-13"
               style="fill:#cecece"
               d="m 190.10001,991 h 4.1 v 2.6 h -4.1 z" />
            <path
               id="rect175"
               class="cls-13"
               style="fill:#cecece"
               d="m 194.7,991 h 4.1 v 2.6 h -4.1 z" />
            <path
               id="rect176"
               class="cls-13"
               style="fill:#cecece"
               d="m 204,991 h 4.1 v 2.6 H 204 Z" />
            <path
               id="rect177"
               class="cls-13"
               style="fill:#cecece"
               d="m 153,991 h 4.1 v 2.6 H 153 Z" />
            <path
               id="rect178"
               class="cls-13"
               style="fill:#cecece"
               d="m 162.2,991 h 4.1 v 2.6 h -4.1 z" />
            <path
               id="rect179"
               class="cls-13"
               style="fill:#cecece"
               d="m 171.5,991 h 4.1 v 2.6 h -4.1 z" />
            <path
               id="rect180"
               class="cls-13"
               style="fill:#cecece"
               d="m 180.8,991 h 4.1 v 2.6 h -4.1 z" />
            <path
               id="rect181"
               class="cls-13"
               style="fill:#cecece"
               d="m 185.39999,991 h 4.1 v 2.6 h -4.1 z" />
            <path
               id="rect182"
               class="cls-13"
               style="fill:#cecece"
               d="m 199.3,991 h 4.1 v 2.6 h -4.1 z" />
            <path
               id="rect183"
               class="cls-13"
               style="fill:#cecece"
               d="m 208.60001,991 h 4.1 v 2.6 h -4.1 z" />
          </g>
          <g
             id="g203">
            <path
               id="rect184"
               class="cls-13"
               style="fill:#cecece"
               d="m 109.4,978.70001 h 2.6 v 4.1 h -2.6 z" />
            <path
               id="rect185"
               class="cls-13"
               style="fill:#cecece"
               d="m 109.5,974 h 2.6 v 4.1 h -2.6 z" />
            <path
               id="rect186"
               class="cls-13"
               style="fill:#cecece"
               d="m 109.5,969.40002 h 2.6 v 4.1 h -2.6 z" />
            <path
               id="rect187"
               class="cls-13"
               style="fill:#cecece"
               d="m 109.5,964.70001 h 2.6 v 4.1 h -2.6 z" />
            <path
               id="rect188"
               class="cls-13"
               style="fill:#cecece"
               d="m 109.5,960.09998 h 2.6 v 4.1 h -2.6 z" />
            <path
               id="rect189"
               class="cls-13"
               style="fill:#cecece"
               d="m 109.4,955.5 h 2.6 v 4.1 h -2.6 z" />
            <path
               id="rect190"
               class="cls-13"
               style="fill:#cecece"
               d="m 109.5,950.79999 h 2.6 v 4.1 h -2.6 z" />
            <path
               id="rect191"
               class="cls-13"
               style="fill:#cecece"
               d="m 109.4,941.59998 h 2.6 v 4.1 h -2.6 z" />
            <path
               id="rect192"
               class="cls-13"
               style="fill:#cecece"
               d="m 109.5,932.29999 h 2.6 v 4.1 h -2.6 z" />
            <path
               id="rect193"
               class="cls-13"
               style="fill:#cecece"
               d="m 109.5,923 h 2.6 v 4.1 h -2.6 z" />
            <path
               id="rect194"
               class="cls-13"
               style="fill:#cecece"
               d="m 109.5,909.09998 h 2.6 v 4.1 h -2.6 z" />
            <path
               id="rect195"
               class="cls-13"
               style="fill:#cecece"
               d="m 109.4,904.5 h 2.6 v 4.1 h -2.6 z" />
            <path
               id="rect196"
               class="cls-13"
               style="fill:#cecece"
               d="m 109.5,895.20001 h 2.6 v 4.1 h -2.6 z" />
            <path
               id="rect197"
               class="cls-13"
               style="fill:#cecece"
               d="m 109.5,946.20001 h 2.6 v 4.1 h -2.6 z" />
            <path
               id="rect198"
               class="cls-13"
               style="fill:#cecece"
               d="m 109.5,936.90002 h 2.6 v 4.1 h -2.6 z" />
            <path
               id="rect199"
               class="cls-13"
               style="fill:#cecece"
               d="m 109.5,927.59998 h 2.6 v 4.1 h -2.6 z" />
            <path
               id="rect200"
               class="cls-13"
               style="fill:#cecece"
               d="m 109.4,918.40002 h 2.6 v 4.1 h -2.6 z" />
            <path
               id="rect201"
               class="cls-13"
               style="fill:#cecece"
               d="m 109.5,913.70001 h 2.6 v 4.1 h -2.6 z" />
            <path
               id="rect202"
               class="cls-13"
               style="fill:#cecece"
               d="m 109.5,899.79999 h 2.6 v 4.1 h -2.6 z" />
            <path
               id="rect203"
               class="cls-13"
               style="fill:#cecece"
               d="m 109.5,890.5 h 2.6 v 4.1 h -2.6 z" />
          </g>
          <g
             id="g223">
            <path
               id="rect204"
               class="cls-13"
               style="fill:#cecece"
               d="m 220.7,978.70001 h 2.6 v 4.1 h -2.6 z" />
            <path
               id="rect205"
               class="cls-13"
               style="fill:#cecece"
               d="m 220.7,974.09998 h 2.6 v 4.1 h -2.6 z" />
            <path
               id="rect206"
               class="cls-13"
               style="fill:#cecece"
               d="m 220.7,969.40002 h 2.6 v 4.1 h -2.6 z" />
            <path
               id="rect207"
               class="cls-13"
               style="fill:#cecece"
               d="m 220.7,964.79999 h 2.6 v 4.1 h -2.6 z" />
            <path
               id="rect208"
               class="cls-13"
               style="fill:#cecece"
               d="m 220.7,960.09998 h 2.6 v 4.1 h -2.6 z" />
            <path
               id="rect209"
               class="cls-13"
               style="fill:#cecece"
               d="m 220.7,955.5 h 2.6 v 4.1 h -2.6 z" />
            <path
               id="rect210"
               class="cls-13"
               style="fill:#cecece"
               d="m 220.7,950.90002 h 2.6 v 4.1 h -2.6 z" />
            <path
               id="rect211"
               class="cls-13"
               style="fill:#cecece"
               d="m 220.7,941.59998 h 2.6 v 4.1 h -2.6 z" />
            <path
               id="rect212"
               class="cls-13"
               style="fill:#cecece"
               d="m 220.7,932.29999 h 2.6 v 4.1 h -2.6 z" />
            <path
               id="rect213"
               class="cls-13"
               style="fill:#cecece"
               d="m 220.7,923 h 2.6 v 4.1 h -2.6 z" />
            <path
               id="rect214"
               class="cls-13"
               style="fill:#cecece"
               d="m 220.7,909.09998 h 2.6 v 4.1 h -2.6 z" />
            <path
               id="rect215"
               class="cls-13"
               style="fill:#cecece"
               d="m 220.7,904.5 h 2.6 v 4.1 h -2.6 z" />
            <path
               id="rect216"
               class="cls-13"
               style="fill:#cecece"
               d="m 220.7,895.20001 h 2.6 v 4.1 h -2.6 z" />
            <path
               id="rect217"
               class="cls-13"
               style="fill:#cecece"
               d="m 220.7,946.20001 h 2.6 v 4.1 h -2.6 z" />
            <path
               id="rect218"
               class="cls-13"
               style="fill:#cecece"
               d="m 220.7,937 h 2.6 v 4.1 h -2.6 z" />
            <path
               id="rect219"
               class="cls-13"
               style="fill:#cecece"
               d="m 220.7,927.70001 h 2.6 v 4.1 h -2.6 z" />
            <path
               id="rect220"
               class="cls-13"
               style="fill:#cecece"
               d="m 220.7,918.40002 h 2.6 v 4.1 h -2.6 z" />
            <path
               id="rect221"
               class="cls-13"
               style="fill:#cecece"
               d="m 220.7,913.79999 h 2.6 v 4.1 h -2.6 z" />
            <path
               id="rect222"
               class="cls-13"
               style="fill:#cecece"
               d="m 220.7,899.90002 h 2.6 v 4.1 h -2.6 z" />
            <path
               id="rect223"
               class="cls-13"
               style="fill:#cecece"
               d="m 220.7,890.59998 h 2.6 v 4.1 h -2.6 z" />
          </g>
          <path
             id="circle223"
             class="cls-36"
             transform="translate(-87.8 16.7) rotate(-5.7)"
             style="fill:#b9a68f"
             d="m 129.3,897.09998 a 3.7,3.7 0 0 1 -3.7,3.7 3.7,3.7 0 0 1 -3.7,-3.7 3.7,3.7 0 0 1 3.7,-3.7 3.7,3.7 0 0 1 3.7,3.7 z" />
        </g>
        <path
           id="rect224"
           class="cls-32"
           style="fill:#36323e"
           d="m 254.5,836.79999 h 24.2 v 11.5 h -24.2 z" />
        <path
           id="rect225"
           class="cls-13"
           style="fill:#cecece"
           d="m 257.20001,848.29999 h 3.8 v 11.5 h -3.8 z" />
        <path
           id="rect226"
           class="cls-13"
           style="fill:#cecece"
           d="m 272.79999,848.29999 h 3.8 v 11.5 h -3.8 z" />
        <path
           id="rect227"
           class="cls-13"
           style="fill:#cecece"
           d="m 264.70001,825.29999 h 3.8 v 11.5 h -3.8 z" />
        <path
           id="rect228"
           class="cls-20"
           style="fill:#c29148"
           d="m 230.60001,889.20001 h 9.1 v 5.6 h -9.1 z" />
        <path
           id="rect229"
           class="cls-4"
           style="fill:#474544"
           d="m 257.70001,928.90002 h 5.6 v 9.1 h -5.6 z" />
        <path
           id="rect230"
           class="cls-20"
           transform="translate(-608.5 448.9) rotate(-45)"
           style="fill:#c29148"
           d="m 234.8,954.40002 h 5.6 v 9.1 h -5.6 z" />
        <g
           id="g232">
          <path
             class="cls-26"
             d="M214.5,1037.2c-6.8,0-12.3,5.5-12.3,12.3s5.5,12.3,12.3,12.3,12.3-5.5,12.3-12.3c-.1-6.8-5.6-12.3-12.3-12.3ZM214.5,1057c-4.2,0-7.6-3.4-7.6-7.6s3.4-7.6,7.6-7.6,7.6,3.4,7.6,7.6-3.5,7.6-7.6,7.6Z"
             id="path230" />
          <path
             class="cls-26"
             d="M163.5,1037.7v23.6h23.5v-23.6h-23.5ZM175.3,1057c-4.2,0-7.6-3.4-7.6-7.6s3.4-7.6,7.6-7.6,7.6,3.4,7.6,7.6-3.4,7.6-7.6,7.6Z"
             id="path231" />
          <path
             class="cls-26"
             d="M254.1,1037.2c-6.8,0-12.3,5.5-12.3,12.3s5.5,12.3,12.3,12.3,12.3-5.5,12.3-12.3-5.5-12.3-12.3-12.3ZM254.1,1057c-4.2,0-7.6-3.4-7.6-7.6s3.4-7.6,7.6-7.6,7.6,3.4,7.6,7.6-3.4,7.6-7.6,7.6Z"
             id="path232" />
        </g>
        <path
           class="cls-26"
           d="M28.7,1008.8H5.9v4.5c3,1.2,5.2,4.1,5.2,7.5s-2.1,6.4-5.2,7.5v4.5h22.9c6.6,0,12-5.4,12-12s-5.4-12-12.1-12ZM26.6,1028.9c-4.5,0-8.1-3.6-8.1-8.1s3.6-8.1,8.1-8.1,8.1,3.6,8.1,8.1-3.6,8.1-8.1,8.1Z"
           id="path233" />
        <path
           class="cls-26"
           d="M28.7,969.6H5.9v4.5c3,1.2,5.2,4.1,5.2,7.5s-2.1,6.4-5.2,7.5v4.5h22.9c6.6,0,12-5.4,12-12h0c0-6.6-5.4-12-12.1-12ZM26.6,989.7c-4.5,0-8.1-3.6-8.1-8.1s3.6-8.1,8.1-8.1,8.1,3.6,8.1,8.1-3.6,8.1-8.1,8.1Z"
           id="path234" />
        <path
           class="cls-26"
           d="M28.7,930.5H5.9v4.5c3,1.2,5.2,4.1,5.2,7.5s-2.1,6.4-5.2,7.5v4.5h22.9c6.6,0,12-5.4,12-12h0c0-6.6-5.4-12-12.1-12ZM26.6,950.6c-4.5,0-8.1-3.6-8.1-8.1s3.6-8.1,8.1-8.1,8.1,3.6,8.1,8.1-3.6,8.1-8.1,8.1Z"
           id="path235" />
        <path
           class="cls-26"
           d="M28.7,891.4H5.9v4.5c3,1.2,5.2,4.1,5.2,7.5s-2.1,6.4-5.2,7.5v4.5h22.9c6.6,0,12-5.4,12-12,0-6.6-5.4-12-12.1-12ZM26.6,911.5c-4.5,0-8.1-3.6-8.1-8.1s3.6-8.1,8.1-8.1,8.1,3.6,8.1,8.1-3.6,8.1-8.1,8.1Z"
           id="path236" />
        <path
           class="cls-26"
           d="M28.7,813.2H5.9v4.5c3,1.2,5.2,4.1,5.2,7.5s-2.1,6.4-5.2,7.5v4.5h22.9c6.6,0,12-5.4,12-12,0-6.7-5.4-12-12.1-12ZM26.6,833.3c-4.5,0-8.1-3.6-8.1-8.1s3.6-8.1,8.1-8.1,8.1,3.6,8.1,8.1-3.6,8.1-8.1,8.1Z"
           id="path237" />
        <path
           class="cls-26"
           d="M28.7,774.1H5.9v4.5c3,1.2,5.2,4.1,5.2,7.5s-2.1,6.4-5.2,7.5v4.5h22.9c6.6,0,12-5.4,12-12,0-6.7-5.4-12-12.1-12ZM26.6,794.2c-4.5,0-8.1-3.6-8.1-8.1s3.6-8.1,8.1-8.1,8.1,3.6,8.1,8.1-3.6,8.1-8.1,8.1Z"
           id="path238" />
        <path
           class="cls-26"
           d="M28.7,734.9H5.9v4.5c3,1.2,5.2,4.1,5.2,7.5s-2.1,6.4-5.2,7.5v4.5h22.9c6.6,0,12-5.4,12-12,0-6.6-5.4-12-12.1-12ZM26.6,755c-4.5,0-8.1-3.6-8.1-8.1s3.6-8.1,8.1-8.1,8.1,3.6,8.1,8.1-3.6,8.1-8.1,8.1Z"
           id="path239" />
        <path
           class="cls-26"
           d="M28.7,695.8H5.9v4.5c3,1.2,5.2,4.1,5.2,7.5s-2.1,6.4-5.2,7.5v4.5h22.9c6.6,0,12-5.4,12-12,0-6.6-5.4-12-12.1-12ZM26.6,715.9c-4.5,0-8.1-3.6-8.1-8.1s3.6-8.1,8.1-8.1,8.1,3.6,8.1,8.1-3.6,8.1-8.1,8.1Z"
           id="path240" />
        <path
           class="cls-26"
           d="M28.7,617.6H5.9v4.5c3,1.2,5.2,4.1,5.2,7.5s-2.1,6.4-5.2,7.5v4.5h22.9c6.6,0,12-5.4,12-12h0c0-6.6-5.4-12-12.1-12ZM26.6,637.7c-4.5,0-8.1-3.6-8.1-8.1s3.6-8.1,8.1-8.1,8.1,3.6,8.1,8.1-3.6,8.1-8.1,8.1Z"
           id="path241" />
        <path
           class="cls-26"
           d="M28.7,578.5H5.9v4.5c3,1.2,5.2,4.1,5.2,7.5s-2.1,6.4-5.2,7.5v4.5h22.9c6.6,0,12-5.4,12-12s-5.4-12-12.1-12ZM26.6,598.6c-4.5,0-8.1-3.6-8.1-8.1s3.6-8.1,8.1-8.1,8.1,3.6,8.1,8.1-3.6,8.1-8.1,8.1Z"
           id="path242" />
        <path
           class="cls-26"
           d="M28.7,1204.3H5.9v4.5c3,1.2,5.2,4.1,5.2,7.5s-2.1,6.4-5.2,7.5v4.5h22.9c6.6,0,12-5.4,12-12,0-6.6-5.4-12-12.1-12ZM26.6,1224.4c-4.5,0-8.1-3.6-8.1-8.1s3.6-8.1,8.1-8.1,8.1,3.6,8.1,8.1-3.6,8.1-8.1,8.1Z"
           id="path243" />
        <path
           class="cls-26"
           d="M324.3,1333.7c0-3.4,2.1-6.4,5.2-7.5v-4.5h-22.9c-6.6,0-12,5.4-12,12s5.4,12,12,12h22.9v-4.5c-3.1-1.1-5.2-4.1-5.2-7.5ZM308.7,1341.8c-4.5,0-8.1-3.6-8.1-8.1s3.6-8.1,8.1-8.1,8.1,3.6,8.1,8.1c0,4.5-3.6,8.1-8.1,8.1Z"
           id="path244" />
        <path
           class="cls-26"
           d="M324.3,1216.3c0-3.4,2.1-6.4,5.2-7.5v-4.5h-22.9c-6.6,0-12,5.4-12,12s5.4,12,12,12h22.9v-4.5c-3.1-1.1-5.2-4-5.2-7.5ZM308.7,1224.4c-4.5,0-8.1-3.6-8.1-8.1s3.6-8.1,8.1-8.1,8.1,3.6,8.1,8.1c0,4.5-3.6,8.1-8.1,8.1Z"
           id="path245" />
        <path
           class="cls-26"
           d="M324.3,903.4c0-3.4,2.1-6.4,5.2-7.5v-4.5h-22.9c-6.6,0-12,5.4-12,12s5.4,12,12,12h22.9v-4.4c-3.1-1.2-5.2-4.2-5.2-7.6ZM308.7,911.5c-4.5,0-8.1-3.6-8.1-8.1s3.6-8.1,8.1-8.1,8.1,3.6,8.1,8.1c0,4.5-3.6,8.1-8.1,8.1Z"
           id="path246" />
        <path
           id="rect246"
           class="cls-1"
           style="fill:#c2bfab"
           d="m 127.2,1026.7 h 5 v 8.8 h -5 z" />
        <g
           id="g248">
          <path
             class="cls-38"
             d="M115.6,1054.3h-43.8c-1.2,0-2.2-1-2.2-2.2v-32.9c0-1.2,1-2.2,2.2-2.2h43.8c1.2,0,2.2,1,2.2,2.2v32.9c0,1.2-1,2.2-2.2,2.2Z"
             id="path247" />
          <path
             class="cls-12"
             d="M112.3,1051h-37.2c-.8,0-1.4-.6-1.4-1.4v-28c0-.8.6-1.4,1.4-1.4h37.2c.8,0,1.4.6,1.4,1.4v28c0,.8-.7,1.4-1.4,1.4Z"
             id="path248" />
        </g>
        <path
           id="rect248"
           class="cls-1"
           style="fill:#c2bfab"
           d="m 127.2,1053.2 h 5 v 8.8 h -5 z" />
        <path
           id="rect249"
           class="cls-4"
           style="fill:#474544"
           d="m 138.60001,1034.2 h 5.6 v 9.1 h -5.6 z" />
        <g
           id="g255">
          <path
             class="cls-7"
             d="M61.7,794.8v-4.8c0-2.9.8-5.2,3.4-5.2s2.6.7,3,1.8h0c.4-1.4,1.4-2.5,3.3-2.5,2.8,0,4.1,2.4,4.1,5.4v5.2h-13.9ZM67.3,790.1c0-1.4-.6-2-1.6-2s-1.4.7-1.4,2v1.4h3v-1.4ZM73.1,789.8c0-1.6-.6-2.4-1.8-2.4s-1.6.8-1.6,2.4v1.7h3.4v-1.7Z"
             id="path249" />
          <path
             class="cls-7"
             d="M68.6,782.5c-4.6,0-7.1-2.6-7.1-6.3s2.6-6.3,7.1-6.3,7.2,2.6,7.2,6.3-2.6,6.3-7.2,6.3ZM68.6,773.2c-2.7,0-4.3,1.1-4.3,3s1.6,3,4.3,3,4.4-1.1,4.4-3-1.7-3-4.4-3Z"
             id="path250" />
          <path
             class="cls-7"
             d="M68.6,767.9c-4.6,0-7.1-2.6-7.1-6.3s2.6-6.3,7.1-6.3,7.2,2.6,7.2,6.3-2.6,6.3-7.2,6.3ZM68.6,758.5c-2.7,0-4.3,1.1-4.3,3s1.6,3,4.3,3,4.4-1.1,4.4-3-1.7-3-4.4-3Z"
             id="path251" />
          <path
             class="cls-7"
             d="M64.5,750.5v3.8h-2.8v-10.8h2.8v3.8h11.1v3.3h-11.1Z"
             id="path252" />
          <path
             class="cls-7"
             d="M73.8,742.7l-2.1-1.7c.9-1,1.3-2.3,1.3-3.5s-.5-1.8-1.2-1.8-1.1.7-1.6,2l-.8,1.8c-.6,1.5-1.8,2.8-3.8,2.8s-4.2-2.1-4.2-5,.6-3.3,1.7-4.5l2.1,1.7c-.7.9-1,1.9-1,2.8s.4,1.7,1.1,1.7,1.1-.9,1.6-2.1l.7-1.7c.7-1.7,1.8-2.7,3.8-2.7s4.3,1.9,4.3,5.3c.2,1.6-.5,3.4-1.9,4.9Z"
             id="path253" />
          <path
             class="cls-7"
             d="M61.7,729.9v-8.8h2.8v5.4h2.6v-4.7h2.8v4.7h3v-5.7h2.8v9h-14Z"
             id="path254" />
          <path
             class="cls-7"
             d="M61.7,718.2v-3.3h11.1v-5.4h2.8v8.7h-13.9Z"
             id="path255" />
        </g>
        <g
           id="g260">
          <path
             class="cls-7"
             d="M193.7,1003.9h4c4.2,0,7,2.1,7,6.9s-2.8,7-6.8,7h-4.2v-13.9ZM197.5,1015.1c2.2,0,3.8-1,3.8-4.3s-1.6-4.2-3.8-4.2h-.5v8.5h.5Z"
             id="path256" />
          <path
             class="cls-7"
             d="M207.3,1003.9h8.8v2.8h-5.4v2.6h4.7v2.8h-4.7v3h5.7v2.8h-9v-14h-.1Z"
             id="path257" />
          <path
             class="cls-7"
             d="M219,1003.9h4.8c2.9,0,5.2.8,5.2,3.4s-.7,2.6-1.8,3h0c1.4.5,2.5,1.5,2.5,3.4,0,2.8-2.4,4.1-5.4,4.1h-5.3v-13.9ZM223.7,1009.5c1.4,0,2-.6,2-1.6s-.7-1.4-2-1.4h-1.4v3h1.4ZM224,1015.3c1.6,0,2.4-.6,2.4-1.8s-.8-1.6-2.4-1.6h-1.7v3.4h1.7Z"
             id="path258" />
          <path
             class="cls-7"
             d="M231.8,1011.3v-7.3h3.3v7.7c0,2.6.8,3.6,2.3,3.6s2.4-.9,2.4-3.6v-7.7h3.2v7.3c0,4.7-1.9,6.8-5.5,6.8s-5.7-2.1-5.7-6.8Z"
             id="path259" />
          <path
             class="cls-7"
             d="M245.5,1011c0-4.6,3.1-7.3,6.8-7.3s3.5.8,4.4,1.8l-1.7,2c-.7-.6-1.4-1-2.6-1-2,0-3.5,1.6-3.5,4.3s1.3,4.4,3.8,4.4,1,0,1.3-.4v-2.2h-2.2v-2.7h5.2v6.5c-1,.9-2.7,1.7-4.6,1.7-3.9,0-6.9-2.5-6.9-7.1Z"
             id="path260" />
        </g>
        <path
           id="rect260"
           class="cls-10"
           style="fill:none;stroke:#ffffff;stroke-miterlimit:10"
           d="m 157.5,1032.4 h 115 v 34.1 h -115 z" />
        <g
           id="g263">
          <path
             class="cls-7"
             d="M58.8,652.3h3.3v11.1h5.4v2.8h-8.7v-13.9Z"
             id="path261" />
          <path
             class="cls-7"
             d="M69.9,652.3h8.8v2.8h-5.4v2.6h4.7v2.8h-4.7v3h5.7v2.8h-9v-14h0Z"
             id="path262" />
          <path
             class="cls-7"
             d="M81.6,652.3h4c4.2,0,7,2.1,7,6.9s-2.8,7-6.8,7h-4.2v-13.9ZM85.4,663.5c2.2,0,3.8-1,3.8-4.3s-1.6-4.2-3.8-4.2h-.4v8.5h.4Z"
             id="path263" />
        </g>
        <g
           id="g264">
          <path
             id="rect263"
             class="cls-19"
             style="fill:#e2eade"
             d="m 196.8,851.20001 h 7.2 v 14.1 h -7.2 z" />
          <path
             id="rect264"
             class="cls-20"
             style="fill:#c29148"
             d="m 196.8,854.29999 h 7.2 v 8 h -7.2 z" />
        </g>
        <g
           id="g266">
          <path
             id="rect265"
             class="cls-19"
             style="fill:#e2eade"
             d="m 210.8,851.20001 h 7.2 v 14.1 h -7.2 z" />
          <path
             id="rect266"
             class="cls-20"
             style="fill:#c29148"
             d="m 210.8,854.29999 h 7.2 v 8 h -7.2 z" />
        </g>
        <path
           id="rect267"
           class="cls-4"
           style="fill:#474544"
           d="m 174.7,852.90002 h 5.6 v 9.1 h -5.6 z" />
        <path
           id="rect268"
           class="cls-4"
           style="fill:#474544"
           d="m 95,861.5 h 9.1 v 5.6 H 95 Z" />
        <path
           id="rect269"
           class="cls-20"
           style="fill:#c29148"
           d="m 165.89999,852.90002 h 5.6 v 9.1 h -5.6 z" />
        <path
           id="rect270"
           class="cls-20"
           style="fill:#c29148"
           d="m 152.39999,852.90002 h 5.6 v 9.1 h -5.6 z" />
        <path
           class="cls-26"
           d="M324.3,825.2c0-3.4,2.1-6.4,5.2-7.5v-4.5h-22.9c-6.6,0-12,5.4-12,12s5.4,12,12,12h22.9v-4.5c-3.1-1.2-5.2-4.1-5.2-7.5ZM308.7,833.3c-4.5,0-8.1-3.6-8.1-8.1s3.6-8.1,8.1-8.1,8.1,3.6,8.1,8.1c0,4.4-3.6,8.1-8.1,8.1Z"
           id="path270" />
        <g
           id="g272">
          <path
             id="rect271"
             class="cls-19"
             style="fill:#e2eade"
             d="m 235.2,810.5 h 7.4 v 15.8 h -7.4 z" />
          <path
             id="rect272"
             class="cls-29"
             style="fill:#8dddde"
             d="m 235.2,814 h 7.4 v 8.8 h -7.4 z" />
        </g>
      </g>
      <sodipodi:namedview
         id="namedview147"
         bordercolor="#666666"
         borderopacity="1"
         gridtolerance="10"
         guidetolerance="10"
         inkscape:current-layer="svg4098"
         inkscape:cx="-440.74316"
         inkscape:cy="770.12418"
         inkscape:pageopacity="0"
         inkscape:pageshadow="2"
         inkscape:window-height="900"
         inkscape:window-maximized="0"
         inkscape:window-width="1440"
         inkscape:window-x="0"
         inkscape:window-y="0"
         inkscape:zoom="0.31877976"
         objecttolerance="10"
         pagecolor="#ffffff"
         showgrid="false"
         showguides="false"
         inkscape:showpageshadow="0"
         inkscape:pagecheckerboard="0"
         inkscape:deskcolor="#505050" />
      <path
         id="circle281"
         class="cls-9"
         style="fill:#914f00"
         d="m 324.89999,668.90002 a 13,13 0 0 1 -13,13 13,13 0 0 1 -13,-13 13,13 0 0 1 13,-13 13,13 0 0 1 13,13 z" />
      <path
         id="circle281-2"
         class="cls-16"
         style="fill:#e30613"
         d="m 324.89999,747.09998 a 13,13 0 0 1 -13,13 13,13 0 0 1 -13,-13 13,13 0 0 1 13,-13 13,13 0 0 1 13,13 z" />
      <path
         id="rect1310"
         class="cls-9"
         style="fill:#914f00"
         d="M 312.60001,664.40002 H 352.2 v 9.1 h -39.59999 z" />
      <path
         id="rect1110"
         class="cls-9"
         style="fill:#914f00"
         d="m 360.70001,476.10001 h 8.5 v 18.8 h -8.5 z" />
      <path
         id="rect2102"
         class="cls-16"
         style="fill:#e30613"
         d="m 370.70001,476.10001 h 8.5 V 542.7 h -8.5 z" />
      <path
         id="rect1316"
         class="cls-16"
         style="fill:#e30613"
         d="m 315.60001,742.5 h 64 v 9.1 h -64 z" />
      <path
         id="rect973"
         class="cls-9"
         style="fill:#914f00"
         d="m 343.10001,486.39999 h 9.1 v 187 h -9.1 z" />
      <path
         id="rect979"
         class="cls-16"
         style="fill:#e30613"
         d="m 370.5,542.29999 h 9.1 v 209.3 h -9.1 z" />
      <path
         id="rect991"
         style="fill:#00b589;stroke-width:1.46129"
         class="cls-15"
         d="m 397.89999,487 h 9.1 v 461.4519 h -9.1 z" />
      <path
         id="rect1005"
         class="cls-15"
         style="fill:#00b589"
         d="m 380.70001,476.10001 h 8.5 v 18.8 h -8.5 z" />
      <path
         id="rect1007"
         class="cls-9"
         style="fill:#914f00"
         d="m 343.10001,486.39999 h 26.1 v 8.5 h -26.1 z" />
      <path
         id="rect1009"
         class="cls-15"
         style="fill:#00b589"
         d="m 380.70001,486.39999 h 26.3 v 8.5 h -26.3 z" />
      <path
         id="rect1009-7"
         style="fill:#00b589;stroke-width:1.90515"
         class="cls-15"
         d="m 311.64926,939.86914 h 95.45825 v 8.5 h -95.45825 z" />
      <path
         id="circle281-2-2"
         style="fill:#00b589"
         class="cls-16"
         d="m 324.15869,943.96893 a 13,13 0 0 1 -13,13 13,13 0 0 1 -13,-13 13,13 0 0 1 13,-13 13,13 0 0 1 13,13 z" />
    </g>
  </g>
</svg>
