<?xml version="1.0" encoding="utf-8"?>
<!-- Generator: Adobe Illustrator 27.8.0, SVG Export Plug-In . SVG Version: 6.00 Build 0)  -->
<svg version="1.1" id="Ebene_1" xmlns="http://www.w3.org/2000/svg" xmlns:xlink="http://www.w3.org/1999/xlink" x="0px" y="0px"
	 viewBox="0 0 718.3 764.8" style="enable-background:new 0 0 718.3 764.8;" xml:space="preserve">
<style type="text/css">
	.st0{fill:#02814B;}
	.st1{fill:#D4C547;}
	.st2{fill:#525035;}
	.st3{fill:#FEE86F;}
	.st4{fill:#FFE17B;}
	.st5{fill:#DDDDDD;}
	.st6{fill:#7F7F7F;}
	.st7{fill:#474544;}
	.st8{fill:#E2EADE;}
	.st9{fill:#C29148;}
	.st10{fill:#8DDDDE;}
	.st11{fill:#C1C1C1;}
	.st12{fill:#C2BFAB;}
	.st13{fill:none;stroke:#95AC6E;stroke-miterlimit:10;}
	.st14{fill:#E8D28A;}
	.st15{fill:#CECECE;}
	.st16{fill:#FFFFFF;}
	.st17{fill:#36323E;}
	.st18{fill:#868C97;}
	.st19{fill:#FCFCFA;}
	.st20{fill:#141316;}
	.st21{fill:#B9A68F;}
	.st22{fill:#E0B45B;}
	.st23{fill:#ABA28E;}
	.st24{fill:none;stroke:#FFFFFF;stroke-miterlimit:10;}
	.st25{fill:#010101;}
	.st26{fill:#1B1B1B;}
	.st27{opacity:0.99;fill:#808181;enable-background:new    ;}
	.st28{fill:#CDCCCC;}
	.st29{fill:#4E4D4D;}
	.st30{fill:#676767;}
	.st31{fill:#9A9999;}
	.st32{fill:#B4B4B4;}
	.st33{enable-background:new    ;}
	.st34{fill:#915114;}
	.st35{fill:#E20E18;}
	.st36{fill:#22AE87;}
	.st37{fill:#25AF88;}
	.st38{fill:#0D8136;}
	.st39{fill:#59BFC3;}
</style>
<g>
	<path class="st0" d="M243.3,182.8v-11.9H0.2v11.9c2.3,0.9,3.9,3.1,3.9,5.7s-1.6,4.8-3.9,5.7v18.1c2.3,0.9,3.9,3.1,3.9,5.7
		s-1.6,4.8-3.9,5.7v18.1c2.3,0.9,3.9,3.1,3.9,5.7s-1.6,4.8-3.9,5.7V271c2.3,0.9,3.9,3.1,3.9,5.7s-1.6,4.8-3.9,5.7v18.1
		c2.3,0.9,3.9,3.1,3.9,5.7s-1.6,4.8-3.9,5.7v18.1c2.3,0.9,3.9,3.1,3.9,5.7s-1.6,4.8-3.9,5.7v18.1c2.3,0.9,3.9,3.1,3.9,5.7
		s-1.6,4.8-3.9,5.7v18.1c2.3,0.9,3.9,3.1,3.9,5.7s-1.6,4.8-3.9,5.7v18.1c2.3,0.9,3.9,3.1,3.9,5.7s-1.6,4.8-3.9,5.7v18.1
		c2.3,0.9,3.9,3.1,3.9,5.7s-1.6,4.8-3.9,5.7v18.1c2.3,0.9,3.9,3.1,3.9,5.7s-1.6,4.8-3.9,5.7v18.1c2.3,0.9,3.9,3.1,3.9,5.7
		s-1.6,4.8-3.9,5.7v18.1c2.3,0.9,3.9,3.1,3.9,5.7s-1.6,4.8-3.9,5.7v18.1c2.3,0.9,3.9,3.1,3.9,5.7s-1.6,4.8-3.9,5.7v18.1
		c2.3,0.9,3.9,3.1,3.9,5.7s-1.6,4.8-3.9,5.7v18.1c2.3,0.9,3.9,3.1,3.9,5.7s-1.6,4.8-3.9,5.7v18.1c2.3,0.9,3.9,3.1,3.9,5.7
		s-1.6,4.8-3.9,5.7v18.1c2.3,0.9,3.9,3.1,3.9,5.7s-1.6,4.8-3.9,5.7v18c2.3,0.9,3.9,3.1,3.9,5.7s-1.6,4.8-3.9,5.7v18.1
		c2.3,0.9,3.9,3.1,3.9,5.7s-1.6,4.8-3.9,5.7v11.9h78.5h7.5h11.3h18.5h11.3H146h11.3h4h82v-11.9c-2.2-0.9-3.8-3.1-3.8-5.7
		s1.6-4.8,3.8-5.7v-18.1c-2.2-0.9-3.8-3.1-3.8-5.7s1.6-4.8,3.8-5.7v-18.1c-2.2-0.9-3.8-3.1-3.8-5.7s1.6-4.8,3.8-5.7v-18.1
		c-2.2-0.9-3.8-3.1-3.8-5.7s1.6-4.8,3.8-5.7V635c-2.2-0.9-3.8-3.1-3.8-5.7s1.6-4.8,3.8-5.7v-18.1c-2.2-0.9-3.8-3.1-3.8-5.7
		s1.6-4.8,3.8-5.7v-18.1c-2.2-0.9-3.8-3.1-3.8-5.7s1.6-4.8,3.8-5.7v-18.1c-2.2-0.9-3.8-3.1-3.8-5.7s1.6-4.8,3.8-5.7v-18.1
		c-2.2-0.9-3.8-3.1-3.8-5.7s1.6-4.8,3.8-5.7V488c-2.2-0.9-3.8-3.1-3.8-5.7s1.6-4.8,3.8-5.7v-18.1c-2.2-0.9-3.8-3.1-3.8-5.7
		s1.6-4.8,3.8-5.7v-18.1c-2.2-0.9-3.8-3.1-3.8-5.7s1.6-4.8,3.8-5.7v-18.1c-2.2-0.9-3.8-3.1-3.8-5.7s1.6-4.8,3.8-5.7v-18.1
		c-2.2-0.9-3.8-3.1-3.8-5.7s1.6-4.8,3.8-5.7v-18.1c-2.2-0.9-3.8-3.1-3.8-5.7s1.6-4.8,3.8-5.7v-18.1c-2.2-0.9-3.8-3.1-3.8-5.7
		s1.6-4.8,3.8-5.7v-18.1c-2.2-0.9-3.8-3.1-3.8-5.7s1.6-4.8,3.8-5.7v-18.1c-2.2-0.9-3.8-3.1-3.8-5.7s1.6-4.8,3.8-5.7v-18.1
		c-2.2-0.9-3.8-3.1-3.8-5.7s1.6-4.8,3.8-5.7v-18.1c-2.2-0.9-3.8-3.1-3.8-5.7S241.1,183.7,243.3,182.8z M15.8,753
		c-3.4,0-6.1-2.7-6.1-6.1s2.7-6.1,6.1-6.1s6.1,2.7,6.1,6.1S19.2,753,15.8,753z M15.8,723.6c-3.4,0-6.1-2.7-6.1-6.1s2.7-6.1,6.1-6.1
		s6.1,2.7,6.1,6.1S19.2,723.6,15.8,723.6z M15.8,694.2c-3.4,0-6.1-2.7-6.1-6.1s2.7-6.1,6.1-6.1s6.1,2.7,6.1,6.1
		S19.2,694.2,15.8,694.2z M15.8,664.9c-3.4,0-6.1-2.7-6.1-6.1s2.7-6.1,6.1-6.1s6.1,2.7,6.1,6.1S19.2,664.9,15.8,664.9z M15.8,635.5
		c-3.4,0-6.1-2.7-6.1-6.1s2.7-6.1,6.1-6.1s6.1,2.7,6.1,6.1S19.2,635.5,15.8,635.5z M15.8,606.1c-3.4,0-6.1-2.7-6.1-6.1
		s2.7-6.1,6.1-6.1s6.1,2.7,6.1,6.1S19.2,606.1,15.8,606.1z M15.8,576.7c-3.4,0-6.1-2.7-6.1-6.1s2.7-6.1,6.1-6.1s6.1,2.7,6.1,6.1
		S19.2,576.7,15.8,576.7z M15.8,547.3c-3.4,0-6.1-2.7-6.1-6.1s2.7-6.1,6.1-6.1s6.1,2.7,6.1,6.1S19.2,547.3,15.8,547.3z M15.8,517.9
		c-3.4,0-6.1-2.7-6.1-6.1s2.7-6.1,6.1-6.1s6.1,2.7,6.1,6.1S19.2,517.9,15.8,517.9z M15.8,488.5c-3.4,0-6.1-2.7-6.1-6.1
		s2.7-6.1,6.1-6.1s6.1,2.7,6.1,6.1S19.2,488.5,15.8,488.5z M15.8,459.1c-3.4,0-6.1-2.7-6.1-6.1s2.7-6.1,6.1-6.1s6.1,2.7,6.1,6.1
		S19.2,459.1,15.8,459.1z M15.8,429.7c-3.4,0-6.1-2.7-6.1-6.1s2.7-6.1,6.1-6.1s6.1,2.7,6.1,6.1S19.2,429.7,15.8,429.7z M15.8,400.3
		c-3.4,0-6.1-2.7-6.1-6.1s2.7-6.1,6.1-6.1s6.1,2.7,6.1,6.1S19.2,400.3,15.8,400.3z M15.8,370.9c-3.4,0-6.1-2.7-6.1-6.1
		s2.7-6.1,6.1-6.1s6.1,2.7,6.1,6.1S19.2,370.9,15.8,370.9z M15.8,341.5c-3.4,0-6.1-2.7-6.1-6.1s2.7-6.1,6.1-6.1s6.1,2.7,6.1,6.1
		S19.2,341.5,15.8,341.5z M15.8,312.1c-3.4,0-6.1-2.7-6.1-6.1s2.7-6.1,6.1-6.1s6.1,2.7,6.1,6.1S19.2,312.1,15.8,312.1z M15.8,282.7
		c-3.4,0-6.1-2.7-6.1-6.1s2.7-6.1,6.1-6.1c3.4,0,6.1,2.7,6.1,6.1S19.2,282.7,15.8,282.7z M15.8,253.3c-3.4,0-6.1-2.7-6.1-6.1
		s2.7-6.1,6.1-6.1s6.1,2.7,6.1,6.1S19.2,253.3,15.8,253.3z M15.8,223.9c-3.4,0-6.1-2.7-6.1-6.1s2.7-6.1,6.1-6.1s6.1,2.7,6.1,6.1
		S19.2,223.9,15.8,223.9z M15.8,194.5c-3.4,0-6.1-2.7-6.1-6.1s2.7-6.1,6.1-6.1s6.1,2.7,6.1,6.1S19.2,194.5,15.8,194.5z M53.7,753
		c-6.7,0-12.1-5.4-12.1-12.1s5.4-12.1,12.1-12.1c6.7,0,12.1,5.4,12.1,12.1S60.4,753,53.7,753z M53.7,205.8
		c-6.7,0-12.1-5.4-12.1-12.1c0-6.7,5.4-12.1,12.1-12.1c6.7,0,12.1,5.4,12.1,12.1C65.8,200.4,60.4,205.8,53.7,205.8z M127.6,539.1
		c-3.1,0-5.7-2.6-5.7-5.7s2.6-5.7,5.7-5.7c3.1,0,5.7,2.6,5.7,5.7S130.7,539.1,127.6,539.1z M157,539.1c-3.1,0-5.7-2.6-5.7-5.7
		s2.6-5.7,5.7-5.7c3.1,0,5.7,2.6,5.7,5.7S160.2,539.1,157,539.1z M186.2,181.6c6.7,0,12.1,5.4,12.1,12.1c0,6.7-5.4,12.1-12.1,12.1
		s-12.1-5.4-12.1-12.1C174.1,187,179.6,181.6,186.2,181.6z M192.5,533.4c0,3.1-2.6,5.7-5.7,5.7c-3.1,0-5.7-2.6-5.7-5.7
		s2.6-5.7,5.7-5.7C190,527.7,192.5,530.2,192.5,533.4z M188.2,753c-6.7,0-12.1-5.4-12.1-12.1s5.4-12.1,12.1-12.1s12.1,5.4,12.1,12.1
		S194.9,753,188.2,753z M227.8,753c-3.4,0-6.1-2.7-6.1-6.1s2.7-6.1,6.1-6.1s6.1,2.7,6.1,6.1S231.2,753,227.8,753z M227.8,723.6
		c-3.4,0-6.1-2.7-6.1-6.1s2.7-6.1,6.1-6.1s6.1,2.7,6.1,6.1S231.2,723.6,227.8,723.6z M227.8,694.2c-3.4,0-6.1-2.7-6.1-6.1
		s2.7-6.1,6.1-6.1s6.1,2.7,6.1,6.1S231.2,694.2,227.8,694.2z M227.8,664.9c-3.4,0-6.1-2.7-6.1-6.1s2.7-6.1,6.1-6.1s6.1,2.7,6.1,6.1
		S231.2,664.9,227.8,664.9z M227.8,635.5c-3.4,0-6.1-2.7-6.1-6.1s2.7-6.1,6.1-6.1s6.1,2.7,6.1,6.1S231.2,635.5,227.8,635.5z
		 M227.8,606.1c-3.4,0-6.1-2.7-6.1-6.1s2.7-6.1,6.1-6.1s6.1,2.7,6.1,6.1S231.2,606.1,227.8,606.1z M227.8,576.7
		c-3.4,0-6.1-2.7-6.1-6.1s2.7-6.1,6.1-6.1s6.1,2.7,6.1,6.1S231.2,576.7,227.8,576.7z M227.8,547.3c-3.4,0-6.1-2.7-6.1-6.1
		s2.7-6.1,6.1-6.1s6.1,2.7,6.1,6.1S231.2,547.3,227.8,547.3z M227.8,517.9c-3.4,0-6.1-2.7-6.1-6.1s2.7-6.1,6.1-6.1s6.1,2.7,6.1,6.1
		S231.2,517.9,227.8,517.9z M227.8,488.5c-3.4,0-6.1-2.7-6.1-6.1s2.7-6.1,6.1-6.1s6.1,2.7,6.1,6.1S231.2,488.5,227.8,488.5z
		 M227.8,459.1c-3.4,0-6.1-2.7-6.1-6.1s2.7-6.1,6.1-6.1s6.1,2.7,6.1,6.1S231.2,459.1,227.8,459.1z M227.8,429.7
		c-3.4,0-6.1-2.7-6.1-6.1s2.7-6.1,6.1-6.1s6.1,2.7,6.1,6.1S231.2,429.7,227.8,429.7z M227.8,400.3c-3.4,0-6.1-2.7-6.1-6.1
		s2.7-6.1,6.1-6.1s6.1,2.7,6.1,6.1S231.2,400.3,227.8,400.3z M227.8,370.9c-3.4,0-6.1-2.7-6.1-6.1s2.7-6.1,6.1-6.1s6.1,2.7,6.1,6.1
		S231.2,370.9,227.8,370.9z M227.8,341.5c-3.4,0-6.1-2.7-6.1-6.1s2.7-6.1,6.1-6.1s6.1,2.7,6.1,6.1S231.2,341.5,227.8,341.5z
		 M227.8,312.1c-3.4,0-6.1-2.7-6.1-6.1s2.7-6.1,6.1-6.1s6.1,2.7,6.1,6.1S231.2,312.1,227.8,312.1z M227.8,282.7
		c-3.4,0-6.1-2.7-6.1-6.1s2.7-6.1,6.1-6.1s6.1,2.7,6.1,6.1S231.2,282.7,227.8,282.7z M227.8,253.3c-3.4,0-6.1-2.7-6.1-6.1
		s2.7-6.1,6.1-6.1s6.1,2.7,6.1,6.1S231.2,253.3,227.8,253.3z M227.8,223.9c-3.4,0-6.1-2.7-6.1-6.1s2.7-6.1,6.1-6.1s6.1,2.7,6.1,6.1
		S231.2,223.9,227.8,223.9z M227.8,194.5c-3.4,0-6.1-2.7-6.1-6.1s2.7-6.1,6.1-6.1s6.1,2.7,6.1,6.1S231.2,194.5,227.8,194.5z"/>
	<path class="st1" d="M53.7,173.2c-11.3,0-20.5,9.2-20.5,20.5c0,11.3,9.2,20.5,20.5,20.5s20.5-9.2,20.5-20.5
		C74.3,182.4,65.1,173.2,53.7,173.2z M53.7,205.9c-6.7,0-12.1-5.4-12.1-12.1c0-6.7,5.4-12.1,12.1-12.1c6.7,0,12.1,5.4,12.1,12.1
		C65.8,200.4,60.4,205.9,53.7,205.9z"/>
	<path class="st1" d="M186.3,173.2c-11.3,0-20.5,9.2-20.5,20.5c0,11.3,9.2,20.5,20.5,20.5c11.3,0,20.5-9.2,20.5-20.5
		C206.8,182.4,197.6,173.2,186.3,173.2z M186.3,205.9c-6.7,0-12.1-5.4-12.1-12.1c0-6.7,5.4-12.1,12.1-12.1c6.7,0,12.1,5.4,12.1,12.1
		C198.4,200.4,193,205.9,186.3,205.9z"/>
	<path class="st1" d="M53.7,720.3c-11.3,0-20.5,9.2-20.5,20.5s9.2,20.5,20.5,20.5s20.5-9.2,20.5-20.5S65.1,720.3,53.7,720.3z
		 M53.7,753c-6.7,0-12.1-5.4-12.1-12.1s5.4-12.1,12.1-12.1c6.7,0,12.1,5.4,12.1,12.1S60.4,753,53.7,753z"/>
	<path class="st1" d="M188.3,720.3c-11.3,0-20.5,9.2-20.5,20.5s9.2,20.5,20.5,20.5c11.3,0,20.5-9.2,20.5-20.5
		S199.6,720.3,188.3,720.3z M188.3,753c-6.7,0-12.1-5.4-12.1-12.1s5.4-12.1,12.1-12.1c6.7,0,12.1,5.4,12.1,12.1S195,753,188.3,753z"
		/>
	<circle class="st2" cx="55" cy="258.5" r="10.6"/>
	<circle class="st3" cx="55" cy="258.5" r="5.5"/>
	<path class="st4" d="M17.5,238.2H0.3v3.4c2.3,0.9,3.9,3.1,3.9,5.7s-1.6,4.8-3.9,5.7v3.4h17.2c5,0,9-4,9-9v0
		C26.5,242.3,22.4,238.2,17.5,238.2z M15.9,253.3c-3.4,0-6.1-2.7-6.1-6.1s2.7-6.1,6.1-6.1s6.1,2.7,6.1,6.1S19.2,253.3,15.9,253.3z"
		/>
	<path class="st4" d="M17.5,385.2H0.3v3.4c2.3,0.9,3.9,3.1,3.9,5.7s-1.6,4.8-3.9,5.7v3.4h17.2c5,0,9-4,9-9S22.4,385.2,17.5,385.2z
		 M15.9,400.3c-3.4,0-6.1-2.7-6.1-6.1s2.7-6.1,6.1-6.1s6.1,2.7,6.1,6.1S19.2,400.3,15.9,400.3z"/>
	<path class="st4" d="M17.5,532.2H0.3v3.4c2.3,0.9,3.9,3.1,3.9,5.7s-1.6,4.8-3.9,5.7v3.4h17.2c5,0,9-4,9-9S22.4,532.2,17.5,532.2z
		 M15.9,547.3c-3.4,0-6.1-2.7-6.1-6.1s2.7-6.1,6.1-6.1s6.1,2.7,6.1,6.1S19.2,547.3,15.9,547.3z"/>
	<path class="st4" d="M17.5,561.6H0.3v3.4c2.3,0.9,3.9,3.1,3.9,5.7s-1.6,4.8-3.9,5.7v3.4h17.2c5,0,9-4,9-9S22.4,561.6,17.5,561.6z
		 M15.9,576.7c-3.4,0-6.1-2.7-6.1-6.1s2.7-6.1,6.1-6.1s6.1,2.7,6.1,6.1S19.2,576.7,15.9,576.7z"/>
	<path class="st4" d="M17.5,591H0.3v3.4c2.3,0.9,3.9,3.1,3.9,5.7s-1.6,4.8-3.9,5.7v3.4h17.2c5,0,9-4,9-9S22.4,591,17.5,591z
		 M15.9,606.1c-3.4,0-6.1-2.7-6.1-6.1s2.7-6.1,6.1-6.1s6.1,2.7,6.1,6.1S19.2,606.1,15.9,606.1z"/>
	<path class="st4" d="M17.5,620.4H0.3v3.4c2.3,0.9,3.9,3.1,3.9,5.7s-1.6,4.8-3.9,5.7v3.4h17.2c5,0,9-4,9-9S22.4,620.4,17.5,620.4z
		 M15.9,635.5c-3.4,0-6.1-2.7-6.1-6.1s2.7-6.1,6.1-6.1s6.1,2.7,6.1,6.1S19.2,635.5,15.9,635.5z"/>
	<path class="st4" d="M17.5,679.2H0.3v3.4c2.3,0.9,3.9,3.1,3.9,5.7s-1.6,4.8-3.9,5.7v3.4h17.2c5,0,9-4,9-9v0
		C26.5,683.2,22.4,679.2,17.5,679.2z M15.9,694.3c-3.4,0-6.1-2.7-6.1-6.1s2.7-6.1,6.1-6.1s6.1,2.7,6.1,6.1S19.2,694.3,15.9,694.3z"
		/>
	<path class="st4" d="M17.5,708.6H0.3v3.4c2.3,0.9,3.9,3.1,3.9,5.7s-1.6,4.8-3.9,5.7v3.4h17.2c5,0,9-4,9-9v0
		C26.5,712.6,22.4,708.6,17.5,708.6z M15.9,723.7c-3.4,0-6.1-2.7-6.1-6.1s2.7-6.1,6.1-6.1s6.1,2.7,6.1,6.1S19.2,723.7,15.9,723.7z"
		/>
	<path class="st4" d="M17.5,738H0.3v3.4c2.3,0.9,3.9,3.1,3.9,5.7s-1.6,4.8-3.9,5.7v3.4h17.2c5,0,9-4,9-9S22.4,738,17.5,738z
		 M15.9,753.1c-3.4,0-6.1-2.7-6.1-6.1s2.7-6.1,6.1-6.1s6.1,2.7,6.1,6.1S19.2,753.1,15.9,753.1z"/>
	<path class="st4" d="M239.5,188.5c0-2.6,1.6-4.8,3.9-5.7v-3.4h-17.2c-5,0-9,4-9,9s4,9,9,9h17.2v-3.4
		C241.2,193.2,239.5,191,239.5,188.5z M227.8,194.5c-3.4,0-6.1-2.7-6.1-6.1s2.7-6.1,6.1-6.1s6.1,2.7,6.1,6.1
		S231.2,194.5,227.8,194.5z"/>
	<path class="st4" d="M239.5,217.9c0-2.6,1.6-4.8,3.9-5.7v-3.4h-17.2c-5,0-9,4-9,9v0c0,5,4,9,9,9h17.2v-3.4
		C241.2,222.6,239.5,220.4,239.5,217.9z M227.8,223.9c-3.4,0-6.1-2.7-6.1-6.1s2.7-6.1,6.1-6.1s6.1,2.7,6.1,6.1
		S231.2,223.9,227.8,223.9z"/>
	<path class="st4" d="M239.5,247.3c0-2.6,1.6-4.8,3.9-5.7v-3.4h-17.2c-5,0-9,4-9,9v0c0,5,4,9,9,9h17.2v-3.4
		C241.2,252,239.5,249.8,239.5,247.3z M227.8,253.3c-3.4,0-6.1-2.7-6.1-6.1s2.7-6.1,6.1-6.1s6.1,2.7,6.1,6.1
		S231.2,253.3,227.8,253.3z"/>
	<path class="st4" d="M239.5,276.6c0-2.6,1.6-4.8,3.9-5.7v-3.4h-17.2c-5,0-9,4-9,9s4,9,9,9h17.2v-3.4
		C241.2,281.4,239.5,279.2,239.5,276.6z M227.8,282.7c-3.4,0-6.1-2.7-6.1-6.1s2.7-6.1,6.1-6.1s6.1,2.7,6.1,6.1
		S231.2,282.7,227.8,282.7z"/>
	<path class="st4" d="M239.5,306c0-2.6,1.6-4.8,3.9-5.7V297h-17.2c-5,0-9,4-9,9s4,9,9,9h17.2v-3.4
		C241.2,310.8,239.5,308.6,239.5,306z M227.8,312.1c-3.4,0-6.1-2.7-6.1-6.1s2.7-6.1,6.1-6.1s6.1,2.7,6.1,6.1
		S231.2,312.1,227.8,312.1z"/>
	<path class="st4" d="M239.5,335.4c0-2.6,1.6-4.8,3.9-5.7v-3.4h-17.2c-5,0-9,4-9,9s4,9,9,9h17.2v-3.4
		C241.2,340.2,239.5,338,239.5,335.4z M227.8,341.5c-3.4,0-6.1-2.7-6.1-6.1s2.7-6.1,6.1-6.1s6.1,2.7,6.1,6.1
		S231.2,341.5,227.8,341.5z"/>
	<path class="st4" d="M239.5,394.2c0-2.6,1.6-4.8,3.9-5.7v-3.4h-17.2c-5,0-9,4-9,9s4,9,9,9h17.2v-3.4
		C241.2,399,239.5,396.8,239.5,394.2z M227.8,400.3c-3.4,0-6.1-2.7-6.1-6.1s2.7-6.1,6.1-6.1s6.1,2.7,6.1,6.1
		S231.2,400.3,227.8,400.3z"/>
	<path class="st4" d="M239.5,453c0-2.6,1.6-4.8,3.9-5.7V444h-17.2c-5,0-9,4-9,9v0c0,5,4,9,9,9h17.2v-3.4
		C241.2,457.8,239.5,455.6,239.5,453z M227.8,459.1c-3.4,0-6.1-2.7-6.1-6.1s2.7-6.1,6.1-6.1s6.1,2.7,6.1,6.1
		S231.2,459.1,227.8,459.1z"/>
	<path class="st4" d="M239.5,482.4c0-2.6,1.6-4.8,3.9-5.7v-3.4h-17.2c-5,0-9,4-9,9v0c0,5,4,9,9,9h17.2v-3.4
		C241.2,487.2,239.5,485,239.5,482.4z M227.8,488.5c-3.4,0-6.1-2.7-6.1-6.1s2.7-6.1,6.1-6.1s6.1,2.7,6.1,6.1
		S231.2,488.5,227.8,488.5z"/>
	<path class="st4" d="M239.5,511.8c0-2.6,1.6-4.8,3.9-5.7v-3.4h-17.2c-5,0-9,4-9,9c0,5,4,9,9,9h17.2v-3.4
		C241.2,516.6,239.5,514.4,239.5,511.8z M227.8,517.9c-3.4,0-6.1-2.7-6.1-6.1c0-3.4,2.7-6.1,6.1-6.1s6.1,2.7,6.1,6.1
		C233.9,515.2,231.2,517.9,227.8,517.9z"/>
	<path class="st4" d="M239.5,541.2c0-2.6,1.6-4.8,3.9-5.7v-3.4h-17.2c-5,0-9,4-9,9s4,9,9,9h17.2v-3.4
		C241.2,546,239.5,543.8,239.5,541.2z M227.8,547.3c-3.4,0-6.1-2.7-6.1-6.1s2.7-6.1,6.1-6.1s6.1,2.7,6.1,6.1
		S231.2,547.3,227.8,547.3z"/>
	<path class="st4" d="M239.5,570.6c0-2.6,1.6-4.8,3.9-5.7v-3.4h-17.2c-5,0-9,4-9,9s4,9,9,9h17.2v-3.4
		C241.2,575.4,239.5,573.2,239.5,570.6z M227.8,576.7c-3.4,0-6.1-2.7-6.1-6.1s2.7-6.1,6.1-6.1s6.1,2.7,6.1,6.1
		S231.2,576.7,227.8,576.7z"/>
	<path class="st4" d="M239.5,600c0-2.6,1.6-4.8,3.9-5.7V591h-17.2c-5,0-9,4-9,9s4,9,9,9h17.2v-3.4
		C241.2,604.8,239.5,602.6,239.5,600z M227.8,606.1c-3.4,0-6.1-2.7-6.1-6.1s2.7-6.1,6.1-6.1s6.1,2.7,6.1,6.1
		S231.2,606.1,227.8,606.1z"/>
	<path class="st4" d="M239.5,629.4c0-2.6,1.6-4.8,3.9-5.7v-3.4h-17.2c-5,0-9,4-9,9s4,9,9,9h17.2v-3.4
		C241.2,634.2,239.5,632,239.5,629.4z M227.8,635.5c-3.4,0-6.1-2.7-6.1-6.1s2.7-6.1,6.1-6.1s6.1,2.7,6.1,6.1
		S231.2,635.5,227.8,635.5z"/>
	<path class="st4" d="M239.5,688.2c0-2.6,1.6-4.8,3.9-5.7v-3.4h-17.2c-5,0-9,4-9,9v0c0,5,4,9,9,9h17.2v-3.4
		C241.2,693,239.5,690.8,239.5,688.2z M227.8,694.3c-3.4,0-6.1-2.7-6.1-6.1s2.7-6.1,6.1-6.1s6.1,2.7,6.1,6.1
		S231.2,694.3,227.8,694.3z"/>
	<path class="st4" d="M239.5,717.6c0-2.6,1.6-4.8,3.9-5.7v-3.4h-17.2c-5,0-9,4-9,9v0c0,5,4,9,9,9h17.2v-3.4
		C241.2,722.4,239.5,720.2,239.5,717.6z M227.8,723.7c-3.4,0-6.1-2.7-6.1-6.1s2.7-6.1,6.1-6.1s6.1,2.7,6.1,6.1
		S231.2,723.7,227.8,723.7z"/>
	<path class="st5" d="M163.1,160.4l4.4-4.4l-2.3-2.3l-6.6,6.6h-1.5v-4.7c0-1.2-1-2.2-2.2-2.2H85.4c-1.2,0-2.2,1-2.2,2.2v4.7h-1.5
		l-6.6-6.6l-2.3,2.3l4.4,4.4c-0.6,0.2-1,0.8-1,1.4v56.3c0,0.9,0.7,1.6,1.6,1.6h84.6c0.9,0,1.6-0.7,1.6-1.6v-56.3
		C164,161.1,163.6,160.6,163.1,160.4z"/>
	<g>
		<path class="st6" d="M100.3,182.6c0-3.2-2.6-5.8-5.8-5.8s-5.8,2.6-5.8,5.8c0,1.4,0.5,2.7,1.3,3.7h-0.2v7.7c0,1.2,1,2.1,2.1,2.1H97
			c1.2,0,2.1-1,2.1-2.1v-7.7H99C99.8,185.4,100.3,184.1,100.3,182.6z"/>
		<path class="st6" d="M155.5,182.6c0-3.2-2.6-5.8-5.8-5.8s-5.8,2.6-5.8,5.8c0,1.4,0.5,2.7,1.3,3.7H145v7.7c0,1.2,1,2.1,2.1,2.1h5.1
			c1.2,0,2.1-1,2.1-2.1v-7.7h-0.2C155,185.4,155.5,184.1,155.5,182.6z"/>
	</g>
	<path class="st7" d="M200.9,312.8h-21c-1.2,0-2.2-1-2.2-2.2v-26.7c0-1.2,1-2.2,2.2-2.2h21c1.2,0,2.2,1,2.2,2.2v26.7
		C203,311.8,202.1,312.8,200.9,312.8z"/>
	<g>
		<rect x="132" y="249" class="st8" width="21.7" height="14.4"/>
		<path class="st9" d="M149.3,263.4c-2-1.8-3.2-4.4-3.2-7.2c0-2.9,1.2-5.4,3.2-7.2h-12.8c2,1.8,3.2,4.4,3.2,7.2
			c0,2.9-1.2,5.4-3.2,7.2H149.3z"/>
	</g>
	<g>
		<rect x="132.3" y="334.3" class="st8" width="21.7" height="14.4"/>
		<path class="st9" d="M149.6,348.7c-2-1.8-3.2-4.4-3.2-7.2s1.2-5.4,3.2-7.2h-12.8c2,1.8,3.2,4.4,3.2,7.2s-1.2,5.4-3.2,7.2H149.6z"
			/>
	</g>
	<g>
		<rect x="132.3" y="353.5" class="st8" width="21.7" height="14.4"/>
		<path class="st9" d="M149.6,367.9c-2-1.8-3.2-4.4-3.2-7.2s1.2-5.4,3.2-7.2h-12.8c2,1.8,3.2,4.4,3.2,7.2s-1.2,5.4-3.2,7.2H149.6z"
			/>
	</g>
	<g>
		
			<rect x="63.8" y="401.8" transform="matrix(6.123234e-17 -1 1 6.123234e-17 -340.619 473.6553)" class="st8" width="5.4" height="10.6"/>
		
			<rect x="63.8" y="404.1" transform="matrix(6.123234e-17 -1 1 6.123234e-17 -340.619 473.6553)" class="st9" width="5.4" height="6"/>
	</g>
	<g>
		<rect x="177.1" y="384.4" class="st8" width="5.4" height="10.6"/>
		<rect x="177.1" y="386.7" class="st9" width="5.4" height="6"/>
	</g>
	<rect x="179.5" y="234.4" class="st7" width="18.9" height="29.3"/>
	<g>
		<rect x="171.6" y="335.7" class="st8" width="20.6" height="9.6"/>
		<rect x="176.2" y="335.7" class="st10" width="11.5" height="9.6"/>
	</g>
	<rect x="120.2" y="503.7" class="st9" width="4.2" height="6.9"/>
	<rect x="126.9" y="503.7" class="st9" width="4.2" height="6.9"/>
	
		<rect x="66.6" y="413.7" transform="matrix(6.123234e-17 -1 1 6.123234e-17 -348.4156 485.8983)" class="st9" width="4.2" height="6.9"/>
	
		<rect x="89.5" y="346.6" transform="matrix(6.123234e-17 -1 1 6.123234e-17 -258.3509 441.6753)" class="st9" width="4.2" height="6.9"/>
	
		<rect x="66.3" y="457.3" transform="matrix(6.123234e-17 -1 1 6.123234e-17 -392.3696 529.1398)" class="st9" width="4.2" height="6.9"/>
	<rect x="195" y="462.5" class="st7" width="4.2" height="6.9"/>
	
		<rect x="189.2" y="401.3" transform="matrix(6.123234e-17 -1 1 6.123234e-17 -213.3994 596.0511)" class="st7" width="4.2" height="6.9"/>
	
		<rect x="87.2" y="245.6" transform="matrix(6.123234e-17 -1 1 6.123234e-17 -159.7178 338.3803)" class="st7" width="4.2" height="6.9"/>
	
		<rect x="82.3" y="257.9" transform="matrix(6.123234e-17 -1 1 6.123234e-17 -176.833 345.7399)" class="st7" width="4.2" height="6.9"/>
	
		<rect x="192.8" y="350.3" transform="matrix(6.123234e-17 -1 1 6.123234e-17 -158.7897 548.704)" class="st7" width="4.2" height="6.9"/>
	<path class="st11" d="M186.3,667.4H57.5c-2.1,0-3.9-1.7-3.9-3.9V555.5c0-2.1,1.7-3.9,3.9-3.9h128.8c2.1,0,3.9,1.7,3.9,3.9v108.1
		C190.2,665.7,188.5,667.4,186.3,667.4z"/>
	<rect x="101.5" y="713.7" class="st12" width="10.5" height="5.9"/>
	<rect x="130.3" y="713.8" class="st12" width="10.5" height="5.9"/>
	<rect x="101.5" y="751.5" class="st12" width="10.5" height="5.9"/>
	<rect x="130.3" y="751.6" class="st12" width="10.5" height="5.9"/>
	<polyline class="st13" points="17.5,196.2 17.5,200.6 35.4,218.6 35.4,267.2 51,282.8 51,417.5 55.9,422.5 91.2,422.5 	"/>
	<polyline class="st13" points="22.9,223.1 31,231.2 31,269 46.7,284.7 46.7,420 52.6,426 91,426 	"/>
	<polyline class="st13" points="23.2,281.5 43,301.3 43,422.5 53.4,432.9 95,432.9 	"/>
	<polyline class="st13" points="23.2,311 39.8,327.5 39.8,424.4 51.9,436.5 95.1,436.5 	"/>
	<polyline class="st13" points="23.2,341.1 35.6,353.4 35.6,429.4 49.5,443.4 93.4,443.4 	"/>
	<polyline class="st13" points="22.9,369.2 31.6,378 31.6,432.1 46.4,446.9 96.1,446.9 	"/>
	<polyline class="st13" points="22.9,427.9 45.3,450.3 102.7,450.3 	"/>
	<line class="st13" x1="23.7" y1="453.8" x2="98.8" y2="453.8"/>
	<path class="st13" d="M23.2,480.2c0.1-0.6,17.3-17.3,17.3-17.3H53l4.9,4.9h45.7"/>
	<polyline class="st13" points="20.4,506.1 25.7,500.7 25.7,493 30.9,487.8 30.9,479.4 43.9,466.3 52.6,466.3 57.3,471 95.3,471 	
		"/>
	<path class="st13" d="M30.7,496.2l3.4-3.4c0,0-0.7-8.9,0-9.6c0.7-0.7,6-6,6-6l6.3-6.3h6.1l3.7,3.7h35.1"/>
	<polyline class="st13" points="29.1,552.2 29.1,504.5 38.7,495 93.4,495 95,493.4 95,483.7 	"/>
	<polyline class="st13" points="17.5,650.4 17.5,646.8 32.9,631.3 32.9,551.1 35.7,548.3 35.7,506.5 42,500.2 94.2,500.2 98.4,496 
		98.4,488.7 	"/>
	<path class="st13" d="M35.7,534"/>
	<path class="st13" d="M35.7,549.2"/>
	<polyline class="st13" points="23.6,711 30.4,704.2 30.4,639.7 37.5,633.7 	"/>
	<polyline class="st13" points="35.6,644 42.6,637 42.6,547.3 39.9,544.6 39.9,507.8 44.6,503.1 94.9,503.1 101.9,496.1 
		101.9,479.5 	"/>
	<polyline class="st13" points="108.9,486.3 108.9,495 95.9,508 91.5,508 	"/>
	<polyline class="st13" points="93.9,516.6 112.4,498.1 112.4,482.7 	"/>
	<polyline class="st13" points="115.9,488.1 115.9,499.7 102.2,513.4 102.2,533.4 95.9,539.7 65,539.7 55.5,530.2 	"/>
	<polyline class="st13" points="133.9,527.1 138.7,522.3 138.7,509 135.5,505.8 135.5,495.8 132.4,492.6 132.4,481.7 	"/>
	<polyline class="st13" points="137.3,485.8 137.3,493.6 139.3,495.6 139.3,502 152.7,515.5 164.9,515.5 179.1,529.7 	"/>
	<polyline class="st13" points="145.3,483.6 145.3,494 151.3,500 172.3,500 200.5,528.3 200.5,640.8 206.7,647 206.7,697.9 
		212.3,703.5 212.3,723.7 223.3,734.7 223.3,740 	"/>
	<polyline class="st13" points="150.7,484.1 150.7,491.4 154.7,495.4 173.6,495.4 205.2,526.9 205.2,638.4 211.4,644.6 211.4,697.2 
		215.6,701.4 215.6,710.2 	"/>
	<polyline class="st13" points="157.5,478.9 165.3,478.9 211.1,524.7 211.1,636.4 227.2,652.5 	"/>
	<polyline class="st13" points="157.5,474.5 166.9,474.5 192.1,499.7 	"/>
	<polyline class="st13" points="158.6,469.3 166.6,469.3 190.1,492.8 195.5,492.8 206.3,503.6 206.3,510.6 	"/>
	<polyline class="st13" points="158.2,464.9 167.3,464.9 190.4,488 200.9,488 	"/>
	<polyline class="st13" points="158.2,460.8 169.1,460.8 174.1,465.7 	"/>
	<polyline class="st13" points="158.2,455.8 175.4,455.8 202.8,483.1 206.3,483.1 215.9,492.8 215.9,505.1 	"/>
	<line class="st13" x1="158.6" y1="450.4" x2="167.7" y2="450.4"/>
	<polyline class="st13" points="156.4,444.9 171.8,444.9 179.2,452.3 	"/>
	<polyline class="st13" points="187.9,464.9 192.4,460.4 192.4,441.1 203.4,441.1 	"/>
	<polyline class="st13" points="158.6,436.5 209.5,436.5 218.5,445.5 	"/>
	<polyline class="st13" points="158.2,432.1 213.8,432.1 220.3,425.6 	"/>
	<polyline class="st13" points="157.5,427.9 198.8,427.9 207.1,419.6 207.1,379.3 219.6,366.9 	"/>
	<polyline class="st13" points="158.6,423.6 179.1,423.6 202.4,400.4 202.4,377.5 	"/>
	<polyline class="st13" points="159.7,418.9 167.2,418.9 171.8,414.3 	"/>
	<path class="st13" d="M147.8,413.6c-0.2-0.3,9.2-9.2,9.2-9.2h15.6v-33.5l2.8-2.8v-7.7"/>
	<path class="st13" d="M147,411.4c0-0.2,0-6.5,0-6.5l10.3-10.3"/>
	<polyline class="st13" points="140.1,412.3 140.1,401.5 147.4,394.2 	"/>
	<line class="st13" x1="136.6" y1="409.3" x2="136.6" y2="391.7"/>
	<path class="st13" d="M133.1,411.1c0-0.6,0-15.2,0-15.2l-4.2-4.2"/>
	<path class="st13" d="M122.6,410.7c0-0.6,0-20.7,0-20.7"/>
	<path class="st13" d="M119.2,412.3c0-0.3,0-11.1,0-11.1l-7.6-7.6"/>
	<polyline class="st13" points="115.6,411.9 115.6,405.5 101.8,391.6 101.8,385.2 105,382 108.9,382 111.5,379.4 111.5,368.9 
		106.1,363.5 100,363.5 	"/>
	<polyline class="st13" points="99.8,369.2 105.4,369.2 108.5,372.3 108.5,377.5 105.7,380.3 101.1,380.3 97.7,383.7 97.7,392.7 
		108.7,403.7 108.7,410.5 	"/>
	<polyline class="st13" points="91.3,373.8 91.3,390.5 105.2,404.4 105.2,413.9 	"/>
	<polyline class="st13" points="76.5,373 76.5,380.1 85.9,389.5 85.9,393.4 99,406.4 99,415.5 	"/>
	<path class="st13" d="M94.8,409.6c0-0.1,0-5,0-5l-11.7-11.7v-1.1l-4.5-4.5h-6.4l-1.7-1.7h-6.9l-6.7-6.7v-14.4l1.6-1.6h8.8"/>
	<polyline class="st13" points="69.1,356.8 60.4,356.8 55.4,361.8 55.4,379.7 63.4,387.6 69.5,387.6 75.9,394 78.4,394 92.5,408.1 	
		"/>
	<line class="st13" x1="73.8" y1="330.2" x2="56" y2="347.9"/>
	<polyline class="st13" points="137.6,390.8 137.6,384.6 134.7,381.7 134.7,378.7 130.2,374.2 125.2,374.2 121.1,370.1 121.1,351.2 
		109.7,339.8 109.7,257.5 124,243.3 124,234.2 127.7,230.5 	"/>
	<path class="st13" d="M135.3,283.4c0-0.6,0-9,0-9l-3.1-3.1h-9.8l-4.5-4.5v-4.3"/>
	<polyline class="st13" points="129.3,315.8 129.3,321.2 126.1,324.3 120.2,324.3 118.6,325.9 	"/>
	<polyline class="st13" points="62.9,228.9 62.9,238.3 79.1,254.5 83.6,254.5 88.5,259.4 88.5,267.6 83.9,272.1 83.9,285.7 	"/>
	<rect x="45.6" y="221.7" class="st14" width="18.9" height="9.6"/>
	<g>
		<rect x="102.7" y="219.6" class="st15" width="4.3" height="11.5"/>
		<rect x="110.4" y="219.6" class="st15" width="4.3" height="11.5"/>
		<rect x="118.1" y="219.6" class="st15" width="4.3" height="11.5"/>
		<rect x="125.7" y="219.6" class="st15" width="4.3" height="11.5"/>
		<rect x="133.4" y="219.6" class="st15" width="4.3" height="11.5"/>
	</g>
	<g>
		<path class="st16" d="M106.8,240.4v-5.5h2.5v5.8c0,2,0.6,2.7,1.7,2.7c1.2,0,1.8-0.7,1.8-2.7v-5.8h2.4v5.5c0,3.5-1.4,5.1-4.2,5.1
			S106.8,244,106.8,240.4z"/>
		<path class="st16" d="M116.7,244l1.3-1.6c0.7,0.6,1.7,1,2.6,1c0.9,0,1.4-0.4,1.4-0.9c0-0.6-0.6-0.8-1.5-1.2l-1.3-0.6
			c-1.1-0.4-2.1-1.3-2.1-2.8c0-1.7,1.6-3.2,3.8-3.2c1.2,0,2.5,0.5,3.4,1.3l-1.3,1.6c-0.7-0.5-1.4-0.8-2.1-0.8
			c-0.8,0-1.3,0.3-1.3,0.8c0,0.6,0.7,0.8,1.6,1.2l1.3,0.5c1.3,0.5,2.1,1.4,2.1,2.8c0,1.7-1.5,3.3-4,3.3
			C119.1,245.5,117.8,245,116.7,244z"/>
		<path class="st16" d="M126.3,234.9h3.6c2.2,0,3.9,0.6,3.9,2.6c0,0.9-0.5,1.9-1.4,2.2v0.1c1.1,0.3,1.9,1.1,1.9,2.4
			c0,2.1-1.8,3.1-4.1,3.1h-3.9V234.9z M129.8,239.1c1.1,0,1.5-0.5,1.5-1.2c0-0.8-0.5-1.1-1.5-1.1h-1.1v2.2H129.8z M130,243.4
			c1.2,0,1.8-0.4,1.8-1.3s-0.6-1.2-1.8-1.2h-1.2v2.5H130z"/>
	</g>
	<path class="st17" d="M170.2,316.3h-45.7c-0.5,0-1-0.4-1-1v-33.5c0-0.5,0.4-1,1-1h45.7c0.5,0,1,0.4,1,1v33.5
		C171.1,315.9,170.7,316.3,170.2,316.3z"/>
	<g>
		<rect x="128.6" y="276.7" class="st15" width="1.4" height="4.1"/>
		<rect x="134.6" y="276.7" class="st15" width="1.4" height="4.1"/>
		<rect x="140.6" y="276.7" class="st15" width="1.4" height="4.1"/>
		<rect x="146.6" y="276.7" class="st15" width="1.4" height="4.1"/>
		<rect x="152.6" y="276.7" class="st15" width="1.4" height="4.1"/>
		<rect x="158.6" y="276.7" class="st15" width="1.4" height="4.1"/>
		<rect x="164.6" y="276.7" class="st15" width="1.4" height="4.1"/>
	</g>
	<g>
		<rect x="128.6" y="316.3" class="st15" width="1.4" height="4.1"/>
		<rect x="134.6" y="316.3" class="st15" width="1.4" height="4.1"/>
		<rect x="140.6" y="316.3" class="st15" width="1.4" height="4.1"/>
		<rect x="146.6" y="316.3" class="st15" width="1.4" height="4.1"/>
		<rect x="152.6" y="316.3" class="st15" width="1.4" height="4.1"/>
		<rect x="158.6" y="316.3" class="st15" width="1.4" height="4.1"/>
		<rect x="164.6" y="316.3" class="st15" width="1.4" height="4.1"/>
	</g>
	<g>
		<rect x="61.4" y="284.7" class="st18" width="39.3" height="48.9"/>
		<path class="st19" d="M81,327.4L81,327.4c-7.6,0-13.7-6.1-13.7-13.7v-9.1c0-7.6,6.1-13.7,13.7-13.7h0c7.6,0,13.7,6.1,13.7,13.7
			v9.1C94.7,321.3,88.6,327.4,81,327.4z"/>
		<path class="st19" d="M61.4,294.9L61.4,294.9l0-10.3h10.3v0C71.6,290.3,67.1,294.9,61.4,294.9z"/>
		<path class="st19" d="M71.6,333.6H61.4v-10.3h0C67.1,323.4,71.6,328,71.6,333.6L71.6,333.6z"/>
		<path class="st19" d="M100.7,294.9L100.7,294.9c-5.7,0-10.3-4.6-10.3-10.3v0h10.3V294.9z"/>
		<path class="st19" d="M100.7,333.6H90.4l0,0c0-5.7,4.6-10.3,10.3-10.3h0V333.6z"/>
	</g>
	<g>
		<rect x="64.9" y="354.2" class="st17" width="34.6" height="22.9"/>
		<g>
			<rect x="60.7" y="355.3" class="st15" width="4.2" height="3.4"/>
			<rect x="60.7" y="361.1" class="st15" width="4.2" height="3.4"/>
			<rect x="60.7" y="366.8" class="st15" width="4.2" height="3.4"/>
			<rect x="60.7" y="372.6" class="st15" width="4.2" height="3.4"/>
		</g>
		<g>
			<rect x="99.5" y="355.3" class="st15" width="4.2" height="3.4"/>
			<rect x="99.5" y="361.1" class="st15" width="4.2" height="3.4"/>
			<rect x="99.5" y="366.8" class="st15" width="4.2" height="3.4"/>
			<rect x="99.5" y="372.6" class="st15" width="4.2" height="3.4"/>
		</g>
	</g>
	<rect x="135.5" y="385.7" class="st7" width="4.2" height="6.9"/>
	<g>
		<path class="st20" d="M160.4,489.4H81.4c-0.7,0-1.3-0.6-1.3-1.3v-79.1c0-0.7,0.6-1.3,1.3-1.3h79.1c0.7,0,1.3,0.6,1.3,1.3v79.1
			C161.7,488.9,161.1,489.4,160.4,489.4z"/>
		<g>
			<rect x="86.2" y="405.9" class="st15" width="3.1" height="1.9"/>
			<rect x="89.7" y="405.9" class="st15" width="3.1" height="1.9"/>
			<rect x="93.2" y="405.9" class="st15" width="3.1" height="1.9"/>
			<rect x="96.7" y="405.9" class="st15" width="3.1" height="1.9"/>
			<rect x="100.2" y="405.9" class="st15" width="3.1" height="1.9"/>
			<rect x="103.6" y="405.9" class="st15" width="3.1" height="1.9"/>
			<rect x="107.1" y="405.9" class="st15" width="3.1" height="1.9"/>
			<rect x="114.1" y="405.9" class="st15" width="3.1" height="1.9"/>
			<rect x="121.1" y="405.9" class="st15" width="3.1" height="1.9"/>
			<rect x="128" y="405.9" class="st15" width="3.1" height="1.9"/>
			<rect x="138.5" y="405.9" class="st15" width="3.1" height="1.9"/>
			<rect x="142" y="405.9" class="st15" width="3.1" height="1.9"/>
			<rect x="149" y="405.9" class="st15" width="3.1" height="1.9"/>
			<rect x="110.6" y="405.9" class="st15" width="3.1" height="1.9"/>
			<rect x="117.6" y="405.9" class="st15" width="3.1" height="1.9"/>
			<rect x="124.6" y="405.9" class="st15" width="3.1" height="1.9"/>
			<rect x="131.5" y="405.9" class="st15" width="3.1" height="1.9"/>
			<rect x="135" y="405.9" class="st15" width="3.1" height="1.9"/>
			<rect x="145.5" y="405.9" class="st15" width="3.1" height="1.9"/>
			<rect x="152.4" y="405.9" class="st15" width="3.1" height="1.9"/>
		</g>
		<g>
			<rect x="86.4" y="489.4" class="st15" width="3.1" height="1.9"/>
			<rect x="89.9" y="489.4" class="st15" width="3.1" height="1.9"/>
			<rect x="93.4" y="489.4" class="st15" width="3.1" height="1.9"/>
			<rect x="96.9" y="489.4" class="st15" width="3.1" height="1.9"/>
			<rect x="100.4" y="489.4" class="st15" width="3.1" height="1.9"/>
			<rect x="103.8" y="489.4" class="st15" width="3.1" height="1.9"/>
			<rect x="107.3" y="489.4" class="st15" width="3.1" height="1.9"/>
			<rect x="114.3" y="489.4" class="st15" width="3.1" height="1.9"/>
			<rect x="121.3" y="489.4" class="st15" width="3.1" height="1.9"/>
			<rect x="128.2" y="489.4" class="st15" width="3.1" height="1.9"/>
			<rect x="138.7" y="489.4" class="st15" width="3.1" height="1.9"/>
			<rect x="142.2" y="489.4" class="st15" width="3.1" height="1.9"/>
			<rect x="149.1" y="489.4" class="st15" width="3.1" height="1.9"/>
			<rect x="110.8" y="489.4" class="st15" width="3.1" height="1.9"/>
			<rect x="117.8" y="489.4" class="st15" width="3.1" height="1.9"/>
			<rect x="124.7" y="489.4" class="st15" width="3.1" height="1.9"/>
			<rect x="131.7" y="489.4" class="st15" width="3.1" height="1.9"/>
			<rect x="135.2" y="489.4" class="st15" width="3.1" height="1.9"/>
			<rect x="145.7" y="489.4" class="st15" width="3.1" height="1.9"/>
			<rect x="152.6" y="489.4" class="st15" width="3.1" height="1.9"/>
		</g>
		<g>
			
				<rect x="77.5" y="480.8" transform="matrix(6.123234e-17 -1 1 6.123234e-17 -402.6303 560.8109)" class="st15" width="3.1" height="1.9"/>
			
				<rect x="77.5" y="477.3" transform="matrix(6.123234e-17 -1 1 6.123234e-17 -399.1453 557.3258)" class="st15" width="3.1" height="1.9"/>
			
				<rect x="77.5" y="473.8" transform="matrix(6.123234e-17 -1 1 6.123234e-17 -395.6602 553.8408)" class="st15" width="3.1" height="1.9"/>
			
				<rect x="77.5" y="470.3" transform="matrix(6.123234e-17 -1 1 6.123234e-17 -392.1752 550.3557)" class="st15" width="3.1" height="1.9"/>
			
				<rect x="77.5" y="466.8" transform="matrix(6.123234e-17 -1 1 6.123234e-17 -388.6902 546.8707)" class="st15" width="3.1" height="1.9"/>
			
				<rect x="77.5" y="463.3" transform="matrix(6.123234e-17 -1 1 6.123234e-17 -385.2051 543.3856)" class="st15" width="3.1" height="1.9"/>
			
				<rect x="77.5" y="459.8" transform="matrix(6.123234e-17 -1 1 6.123234e-17 -381.7201 539.9006)" class="st15" width="3.1" height="1.9"/>
			
				<rect x="77.5" y="452.9" transform="matrix(6.123234e-17 -1 1 6.123234e-17 -374.75 532.9305)" class="st15" width="3.1" height="1.9"/>
			
				<rect x="77.5" y="445.9" transform="matrix(6.123234e-17 -1 1 6.123234e-17 -367.7799 525.9604)" class="st15" width="3.1" height="1.9"/>
			
				<rect x="77.5" y="438.9" transform="matrix(6.123234e-17 -1 1 6.123234e-17 -360.8098 518.9904)" class="st15" width="3.1" height="1.9"/>
			
				<rect x="77.5" y="428.5" transform="matrix(6.123234e-17 -1 1 6.123234e-17 -350.3547 508.5352)" class="st15" width="3.1" height="1.9"/>
			
				<rect x="77.5" y="425" transform="matrix(6.123234e-17 -1 1 6.123234e-17 -346.8696 505.0502)" class="st15" width="3.1" height="1.9"/>
			
				<rect x="77.5" y="418" transform="matrix(6.123234e-17 -1 1 6.123234e-17 -339.8996 498.0801)" class="st15" width="3.1" height="1.9"/>
			
				<rect x="77.5" y="456.4" transform="matrix(6.123234e-17 -1 1 6.123234e-17 -378.235 536.4155)" class="st15" width="3.1" height="1.9"/>
			
				<rect x="77.5" y="449.4" transform="matrix(6.123234e-17 -1 1 6.123234e-17 -371.265 529.4455)" class="st15" width="3.1" height="1.9"/>
			
				<rect x="77.5" y="442.4" transform="matrix(6.123234e-17 -1 1 6.123234e-17 -364.2949 522.4754)" class="st15" width="3.1" height="1.9"/>
			
				<rect x="77.5" y="435.5" transform="matrix(6.123234e-17 -1 1 6.123234e-17 -357.3248 515.5053)" class="st15" width="3.1" height="1.9"/>
			
				<rect x="77.5" y="432" transform="matrix(6.123234e-17 -1 1 6.123234e-17 -353.8397 512.0203)" class="st15" width="3.1" height="1.9"/>
			
				<rect x="77.5" y="421.5" transform="matrix(6.123234e-17 -1 1 6.123234e-17 -343.3846 501.5651)" class="st15" width="3.1" height="1.9"/>
			
				<rect x="77.5" y="414.5" transform="matrix(6.123234e-17 -1 1 6.123234e-17 -336.4145 494.595)" class="st15" width="3.1" height="1.9"/>
		</g>
		<g>
			
				<rect x="161.1" y="480.8" transform="matrix(6.123234e-17 -1 1 6.123234e-17 -319.0404 644.4008)" class="st15" width="3.1" height="1.9"/>
			
				<rect x="161.1" y="477.3" transform="matrix(6.123234e-17 -1 1 6.123234e-17 -315.5554 640.9158)" class="st15" width="3.1" height="1.9"/>
			
				<rect x="161.1" y="473.8" transform="matrix(6.123234e-17 -1 1 6.123234e-17 -312.0703 637.4307)" class="st15" width="3.1" height="1.9"/>
			
				<rect x="161.1" y="470.3" transform="matrix(6.123234e-17 -1 1 6.123234e-17 -308.5853 633.9457)" class="st15" width="3.1" height="1.9"/>
			
				<rect x="161.1" y="466.8" transform="matrix(6.123234e-17 -1 1 6.123234e-17 -305.1002 630.4606)" class="st15" width="3.1" height="1.9"/>
			
				<rect x="161.1" y="463.3" transform="matrix(6.123234e-17 -1 1 6.123234e-17 -301.6152 626.9756)" class="st15" width="3.1" height="1.9"/>
			
				<rect x="161.1" y="459.8" transform="matrix(6.123234e-17 -1 1 6.123234e-17 -298.1302 623.4905)" class="st15" width="3.1" height="1.9"/>
			
				<rect x="161.1" y="452.9" transform="matrix(6.123234e-17 -1 1 6.123234e-17 -291.1601 616.5204)" class="st15" width="3.1" height="1.9"/>
			
				<rect x="161.1" y="445.9" transform="matrix(6.123234e-17 -1 1 6.123234e-17 -284.19 609.5504)" class="st15" width="3.1" height="1.9"/>
			
				<rect x="161.1" y="438.9" transform="matrix(6.123234e-17 -1 1 6.123234e-17 -277.2199 602.5803)" class="st15" width="3.1" height="1.9"/>
			
				<rect x="161.1" y="428.5" transform="matrix(6.123234e-17 -1 1 6.123234e-17 -266.7647 592.1251)" class="st15" width="3.1" height="1.9"/>
			
				<rect x="161.1" y="425" transform="matrix(6.123234e-17 -1 1 6.123234e-17 -263.2797 588.6401)" class="st15" width="3.1" height="1.9"/>
			
				<rect x="161.1" y="418" transform="matrix(6.123234e-17 -1 1 6.123234e-17 -256.3096 581.67)" class="st15" width="3.1" height="1.9"/>
			
				<rect x="161.1" y="456.4" transform="matrix(6.123234e-17 -1 1 6.123234e-17 -294.6451 620.0055)" class="st15" width="3.1" height="1.9"/>
			
				<rect x="161.1" y="449.4" transform="matrix(6.123234e-17 -1 1 6.123234e-17 -287.675 613.0354)" class="st15" width="3.1" height="1.9"/>
			
				<rect x="161.1" y="442.4" transform="matrix(6.123234e-17 -1 1 6.123234e-17 -280.7049 606.0653)" class="st15" width="3.1" height="1.9"/>
			
				<rect x="161.1" y="435.5" transform="matrix(6.123234e-17 -1 1 6.123234e-17 -273.7348 599.0952)" class="st15" width="3.1" height="1.9"/>
			
				<rect x="161.1" y="432" transform="matrix(6.123234e-17 -1 1 6.123234e-17 -270.2498 595.6102)" class="st15" width="3.1" height="1.9"/>
			
				<rect x="161.1" y="421.5" transform="matrix(6.123234e-17 -1 1 6.123234e-17 -259.7947 585.155)" class="st15" width="3.1" height="1.9"/>
			
				<rect x="161.1" y="414.5" transform="matrix(6.123234e-17 -1 1 6.123234e-17 -252.8246 578.1849)" class="st15" width="3.1" height="1.9"/>
		</g>
		<circle class="st21" cx="90.2" cy="418.9" r="2.8"/>
	</g>
	<rect x="187.1" y="373.6" class="st17" width="18.2" height="8.6"/>
	<rect x="189.1" y="382.2" class="st15" width="2.9" height="8.7"/>
	<rect x="200.9" y="382.2" class="st15" width="2.9" height="8.7"/>
	<rect x="194.8" y="364.9" class="st15" width="2.9" height="8.7"/>
	
		<rect x="170.5" y="411.7" transform="matrix(6.123234e-17 -1 1 6.123234e-17 -242.4875 587.6824)" class="st9" width="4.2" height="6.9"/>
	<rect x="189.5" y="442.8" class="st7" width="4.2" height="6.9"/>
	
		<rect x="172.3" y="462" transform="matrix(0.7071 -0.7071 0.7071 0.7071 -277.9999 259.6734)" class="st9" width="4.2" height="6.9"/>
	<g>
		<path class="st4" d="M157,524.1c-5.1,0-9.2,4.1-9.2,9.2s4.1,9.2,9.2,9.2s9.2-4.1,9.2-9.2S162.1,524.1,157,524.1z M157,539.1
			c-3.1,0-5.7-2.6-5.7-5.7s2.6-5.7,5.7-5.7c3.1,0,5.7,2.6,5.7,5.7S160.2,539.1,157,539.1z"/>
		<path class="st4" d="M118.7,524.5v17.7h17.7v-17.7H118.7z M127.6,539.1c-3.1,0-5.7-2.6-5.7-5.7s2.6-5.7,5.7-5.7
			c3.1,0,5.7,2.6,5.7,5.7S130.7,539.1,127.6,539.1z"/>
		<path class="st4" d="M186.8,524.1c-5.1,0-9.2,4.1-9.2,9.2s4.1,9.2,9.2,9.2s9.2-4.1,9.2-9.2S191.9,524.1,186.8,524.1z M186.8,539.1
			c-3.1,0-5.7-2.6-5.7-5.7s2.6-5.7,5.7-5.7c3.1,0,5.7,2.6,5.7,5.7S190,539.1,186.8,539.1z"/>
	</g>
	<path class="st4" d="M17.5,502.8H0.3v3.4c2.3,0.9,3.9,3.1,3.9,5.7c0,2.6-1.6,4.8-3.9,5.7v3.4h17.2c5,0,9-4,9-9
		C26.5,506.8,22.4,502.8,17.5,502.8z M15.9,517.9c-3.4,0-6.1-2.7-6.1-6.1c0-3.4,2.7-6.1,6.1-6.1s6.1,2.7,6.1,6.1
		C21.9,515.2,19.2,517.9,15.9,517.9z"/>
	<path class="st4" d="M17.5,473.4H0.3v3.4c2.3,0.9,3.9,3.1,3.9,5.7s-1.6,4.8-3.9,5.7v3.4h17.2c5,0,9-4,9-9v0
		C26.5,477.4,22.4,473.4,17.5,473.4z M15.9,488.5c-3.4,0-6.1-2.7-6.1-6.1s2.7-6.1,6.1-6.1s6.1,2.7,6.1,6.1S19.2,488.5,15.9,488.5z"
		/>
	<path class="st4" d="M17.5,444H0.3v3.4c2.3,0.9,3.9,3.1,3.9,5.7s-1.6,4.8-3.9,5.7v3.4h17.2c5,0,9-4,9-9v0
		C26.5,448,22.4,444,17.5,444z M15.9,459.1c-3.4,0-6.1-2.7-6.1-6.1s2.7-6.1,6.1-6.1s6.1,2.7,6.1,6.1S19.2,459.1,15.9,459.1z"/>
	<path class="st4" d="M17.5,414.6H0.3v3.4c2.3,0.9,3.9,3.1,3.9,5.7s-1.6,4.8-3.9,5.7v3.4h17.2c5,0,9-4,9-9S22.4,414.6,17.5,414.6z
		 M15.9,429.7c-3.4,0-6.1-2.7-6.1-6.1s2.7-6.1,6.1-6.1s6.1,2.7,6.1,6.1S19.2,429.7,15.9,429.7z"/>
	<path class="st4" d="M17.5,355.8H0.3v3.4c2.3,0.9,3.9,3.1,3.9,5.7s-1.6,4.8-3.9,5.7v3.4h17.2c5,0,9-4,9-9S22.4,355.8,17.5,355.8z
		 M15.9,370.9c-3.4,0-6.1-2.7-6.1-6.1s2.7-6.1,6.1-6.1s6.1,2.7,6.1,6.1S19.2,370.9,15.9,370.9z"/>
	<path class="st4" d="M17.5,326.4H0.3v3.4c2.3,0.9,3.9,3.1,3.9,5.7s-1.6,4.8-3.9,5.7v3.4h17.2c5,0,9-4,9-9S22.4,326.4,17.5,326.4z
		 M15.9,341.5c-3.4,0-6.1-2.7-6.1-6.1s2.7-6.1,6.1-6.1s6.1,2.7,6.1,6.1S19.2,341.5,15.9,341.5z"/>
	<path class="st4" d="M17.5,297H0.3v3.4c2.3,0.9,3.9,3.1,3.9,5.7s-1.6,4.8-3.9,5.7v3.4h17.2c5,0,9-4,9-9S22.4,297,17.5,297z
		 M15.9,312.1c-3.4,0-6.1-2.7-6.1-6.1s2.7-6.1,6.1-6.1s6.1,2.7,6.1,6.1S19.2,312.1,15.9,312.1z"/>
	<path class="st4" d="M17.5,267.6H0.3v3.4c2.3,0.9,3.9,3.1,3.9,5.7s-1.6,4.8-3.9,5.7v3.4h17.2c5,0,9-4,9-9S22.4,267.6,17.5,267.6z
		 M15.9,282.7c-3.4,0-6.1-2.7-6.1-6.1s2.7-6.1,6.1-6.1s6.1,2.7,6.1,6.1S19.2,282.7,15.9,282.7z"/>
	<path class="st4" d="M17.5,208.8H0.3v3.4c2.3,0.9,3.9,3.1,3.9,5.7s-1.6,4.8-3.9,5.7v3.4h17.2c5,0,9-4,9-9v0
		C26.5,212.9,22.4,208.8,17.5,208.8z M15.9,223.9c-3.4,0-6.1-2.7-6.1-6.1s2.7-6.1,6.1-6.1s6.1,2.7,6.1,6.1S19.2,223.9,15.9,223.9z"
		/>
	<path class="st4" d="M17.5,179.4H0.3v3.4c2.3,0.9,3.9,3.1,3.9,5.7s-1.6,4.8-3.9,5.7v3.4h17.2c5,0,9-4,9-9S22.4,179.4,17.5,179.4z
		 M15.9,194.5c-3.4,0-6.1-2.7-6.1-6.1s2.7-6.1,6.1-6.1s6.1,2.7,6.1,6.1S19.2,194.5,15.9,194.5z"/>
	<path class="st4" d="M17.5,649.8H0.3v3.4c2.3,0.9,3.9,3.1,3.9,5.7s-1.6,4.8-3.9,5.7v3.4h17.2c5,0,9-4,9-9S22.4,649.8,17.5,649.8z
		 M15.9,664.9c-3.4,0-6.1-2.7-6.1-6.1s2.7-6.1,6.1-6.1s6.1,2.7,6.1,6.1S19.2,664.9,15.9,664.9z"/>
	<path class="st4" d="M239.5,747c0-2.6,1.6-4.8,3.9-5.7V738h-17.2c-5,0-9,4-9,9s4,9,9,9h17.2v-3.4
		C241.2,751.8,239.5,749.6,239.5,747z M227.8,753.1c-3.4,0-6.1-2.7-6.1-6.1s2.7-6.1,6.1-6.1s6.1,2.7,6.1,6.1
		S231.2,753.1,227.8,753.1z"/>
	<path class="st4" d="M239.5,658.8c0-2.6,1.6-4.8,3.9-5.7v-3.4h-17.2c-5,0-9,4-9,9s4,9,9,9h17.2v-3.4
		C241.2,663.6,239.5,661.4,239.5,658.8z M227.8,664.9c-3.4,0-6.1-2.7-6.1-6.1s2.7-6.1,6.1-6.1s6.1,2.7,6.1,6.1
		S231.2,664.9,227.8,664.9z"/>
	<path class="st4" d="M239.5,423.6c0-2.6,1.6-4.8,3.9-5.7v-3.4h-17.2c-5,0-9,4-9,9s4,9,9,9h17.2v-3.4
		C241.2,428.4,239.5,426.2,239.5,423.6z M227.8,429.7c-3.4,0-6.1-2.7-6.1-6.1s2.7-6.1,6.1-6.1s6.1,2.7,6.1,6.1
		S231.2,429.7,227.8,429.7z"/>
	
		<rect x="90" y="517.7" transform="matrix(6.123234e-17 -1 1 6.123234e-17 -426.2712 612.8546)" class="st12" width="6.7" height="3.7"/>
	<g>
		<path class="st22" d="M82.2,537H50.4c-1.2,0-2.2-1-2.2-2.2v-23.7c0-1.2,1-2.2,2.2-2.2h31.8c1.2,0,2.2,1,2.2,2.2v23.7
			C84.4,536,83.4,537,82.2,537z"/>
		<path class="st23" d="M79.9,534.6H52.6c-0.8,0-1.4-0.6-1.4-1.4v-20.4c0-0.8,0.6-1.4,1.4-1.4h27.3c0.8,0,1.4,0.6,1.4,1.4v20.4
			C81.3,533.9,80.7,534.6,79.9,534.6z"/>
	</g>
	
		<rect x="90" y="537.6" transform="matrix(6.123234e-17 -1 1 6.123234e-17 -446.2055 632.7889)" class="st12" width="6.7" height="3.7"/>
	<rect x="100.1" y="521.9" class="st7" width="4.2" height="6.9"/>
	<g>
		<path class="st16" d="M42.3,342v-3.6c0-2.2,0.6-3.9,2.6-3.9c0.9,0,1.9,0.5,2.2,1.4h0.1c0.3-1.1,1.1-1.9,2.4-1.9
			c2.1,0,3.1,1.8,3.1,4.1v3.9H42.3z M46.4,338.4c0-1.1-0.5-1.5-1.2-1.5c-0.8,0-1.1,0.5-1.1,1.5v1.1h2.2V338.4z M50.8,338.2
			c0-1.2-0.4-1.8-1.3-1.8s-1.2,0.6-1.2,1.8v1.2h2.5V338.2z"/>
		<path class="st16" d="M47.4,332.7c-3.4,0-5.4-1.9-5.4-4.8s2-4.8,5.4-4.8c3.4,0,5.4,1.9,5.4,4.8S50.8,332.7,47.4,332.7z
			 M47.4,325.8c-2,0-3.2,0.8-3.2,2.2c0,1.4,1.2,2.2,3.2,2.2c2,0,3.3-0.9,3.3-2.2C50.7,326.6,49.4,325.8,47.4,325.8z"/>
		<path class="st16" d="M47.4,321.8c-3.4,0-5.4-1.9-5.4-4.8s2-4.8,5.4-4.8c3.4,0,5.4,1.9,5.4,4.8S50.8,321.8,47.4,321.8z
			 M47.4,314.8c-2,0-3.2,0.8-3.2,2.2c0,1.4,1.2,2.2,3.2,2.2c2,0,3.3-0.9,3.3-2.2C50.7,315.6,49.4,314.8,47.4,314.8z"/>
		<path class="st16" d="M44.3,308.7v2.8h-2.1v-8.1h2.1v2.8h8.3v2.5H44.3z"/>
		<path class="st16" d="M51.3,302.8l-1.6-1.3c0.6-0.7,1-1.7,1-2.6c0-0.9-0.4-1.4-0.9-1.4c-0.6,0-0.8,0.6-1.2,1.5l-0.6,1.3
			c-0.4,1.1-1.3,2.1-2.8,2.1c-1.7,0-3.2-1.6-3.2-3.8c0-1.2,0.5-2.5,1.3-3.4l1.6,1.3c-0.5,0.7-0.8,1.4-0.8,2.1c0,0.8,0.3,1.3,0.8,1.3
			c0.6,0,0.8-0.7,1.2-1.6l0.5-1.3c0.5-1.3,1.4-2.1,2.8-2.1c1.7,0,3.3,1.5,3.3,4C52.9,300.4,52.4,301.8,51.3,302.8z"/>
		<path class="st16" d="M42.3,293.3v-6.6h2.1v4.1h2v-3.5h2.1v3.5h2.2v-4.3h2.1v6.8H42.3z"/>
		<path class="st16" d="M42.3,284.5V282h8.3v-4h2.1v6.5H42.3z"/>
	</g>
	<g>
		<path class="st16" d="M141.4,499.2h3c3.2,0,5.3,1.6,5.3,5.2c0,3.6-2.1,5.2-5.1,5.2h-3.1V499.2z M144.3,507.6
			c1.7,0,2.9-0.8,2.9-3.2c0-2.5-1.2-3.2-2.9-3.2h-0.4v6.4H144.3z"/>
		<path class="st16" d="M151.6,499.2h6.6v2.1h-4.1v2h3.5v2.1h-3.5v2.2h4.3v2.1h-6.8V499.2z"/>
		<path class="st16" d="M160.4,499.2h3.6c2.2,0,3.9,0.6,3.9,2.6c0,0.9-0.5,1.9-1.4,2.2v0.1c1.1,0.3,1.9,1.1,1.9,2.4
			c0,2.1-1.8,3.1-4.1,3.1h-3.9V499.2z M164,503.3c1.1,0,1.5-0.5,1.5-1.2c0-0.8-0.5-1.1-1.5-1.1h-1.1v2.2H164z M164.2,507.7
			c1.2,0,1.8-0.4,1.8-1.3c0-0.9-0.6-1.2-1.8-1.2h-1.2v2.5H164.2z"/>
		<path class="st16" d="M170.1,504.7v-5.5h2.5v5.8c0,2,0.6,2.7,1.7,2.7c1.2,0,1.8-0.7,1.8-2.7v-5.8h2.4v5.5c0,3.5-1.4,5.1-4.2,5.1
			S170.1,508.2,170.1,504.7z"/>
		<path class="st16" d="M180.3,504.5c0-3.5,2.3-5.5,5.1-5.5c1.5,0,2.6,0.6,3.3,1.4l-1.3,1.5c-0.5-0.5-1.1-0.7-1.9-0.7
			c-1.5,0-2.7,1.2-2.7,3.2c0,2.1,0.9,3.3,2.9,3.3c0.4,0,0.8-0.1,1-0.3v-1.7h-1.7v-2h3.9v4.9c-0.7,0.7-2,1.3-3.5,1.3
			C182.6,509.8,180.3,508,180.3,504.5z"/>
	</g>
	<rect x="114.2" y="520.5" class="st24" width="86.4" height="25.6"/>
	<g>
		<path class="st16" d="M40.1,234.9h2.5v8.3h4v2.1h-6.5V234.9z"/>
		<path class="st16" d="M48.4,234.9H55v2.1h-4.1v2h3.5v2.1h-3.5v2.2h4.3v2.1h-6.8V234.9z"/>
		<path class="st16" d="M57.2,234.9h3c3.2,0,5.3,1.6,5.3,5.2c0,3.6-2.1,5.2-5.1,5.2h-3.1V234.9z M60.1,243.3c1.7,0,2.9-0.8,2.9-3.2
			c0-2.5-1.2-3.2-2.9-3.2h-0.4v6.4H60.1z"/>
	</g>
	<g>
		<rect x="143.7" y="384.4" class="st8" width="5.4" height="10.6"/>
		<rect x="143.7" y="386.7" class="st9" width="5.4" height="6"/>
	</g>
	<g>
		<rect x="154.3" y="384.4" class="st8" width="5.4" height="10.6"/>
		<rect x="154.3" y="386.7" class="st9" width="5.4" height="6"/>
	</g>
	<rect x="127.1" y="385.7" class="st7" width="4.2" height="6.9"/>
	
		<rect x="68.6" y="390.8" transform="matrix(6.123234e-17 -1 1 6.123234e-17 -323.4959 464.9678)" class="st7" width="4.2" height="6.9"/>
	<rect x="120.5" y="385.7" class="st9" width="4.2" height="6.9"/>
	<rect x="110.4" y="385.7" class="st9" width="4.2" height="6.9"/>
	<path class="st4" d="M239.5,364.8c0-2.6,1.6-4.8,3.9-5.7v-3.4h-17.2c-5,0-9,4-9,9s4,9,9,9h17.2v-3.4
		C241.2,369.6,239.5,367.4,239.5,364.8z M227.8,370.9c-3.4,0-6.1-2.7-6.1-6.1s2.7-6.1,6.1-6.1s6.1,2.7,6.1,6.1
		S231.2,370.9,227.8,370.9z"/>
	<g>
		
			<rect x="169.4" y="356.9" transform="matrix(-1.836970e-16 1 -1 -1.836970e-16 535.0839 184.3206)" class="st8" width="11.9" height="5.6"/>
		
			<rect x="172.1" y="356.9" transform="matrix(-1.836970e-16 1 -1 -1.836970e-16 535.0839 184.3206)" class="st10" width="6.6" height="5.6"/>
	</g>
</g>
<g id="layer1-7">
	<rect id="rect815" x="255" y="1.5" class="st25" width="310.9" height="215.5"/>
	<rect id="rect821" x="536.4" y="56.7" class="st16" width="24.8" height="105"/>
	<path id="rect825" class="st26" d="M542.5,99h12.7c2.5,0,4.6,2,4.6,4.6c0,0,0,0,0,0V115c0,2.5-2,4.6-4.6,4.6l0,0h-12.7
		c-2.5,0-4.6-2-4.6-4.6c0,0,0,0,0,0v-11.4C537.9,101.1,540,99,542.5,99L542.5,99z"/>
	<path id="rect872" class="st26" d="M542.5,141.1h12.7c2.5,0,4.6,2,4.6,4.6v0v11.4c0,2.5-2,4.6-4.6,4.6l0,0h-12.7
		c-2.5,0-4.6-2-4.6-4.6v0v-11.4C537.9,143.1,540,141.1,542.5,141.1z"/>
	<path id="rect874" class="st26" d="M541.9,120.1h13.9c2.2,0,4,1.8,4,4v12.6c0,2.2-1.8,4-4,4l0,0h-13.9c-2.2,0-4-1.8-4-4V124
		C537.9,121.8,539.7,120.1,541.9,120.1z"/>
	<rect id="rect947" x="549" y="108.2" class="st27" width="44.6" height="2.3"/>
	<rect id="rect949" x="549" y="129.3" class="st27" width="44.6" height="2.3"/>
	<rect id="rect951" x="549" y="150.2" class="st27" width="44.6" height="2.3"/>
	<path id="path31-1" class="st16" d="M381.4,194.4c1.3,0,1.4,0,1.6-0.2c0.2-0.1,0.3-0.3,0.4-0.5c0.1-0.3,0.1-0.4,0.2-3.4l0-3.1
		l2.7,0l2.7,0v3.9c0,4.3,0,4.7-0.4,5.8c-0.3,1.3-1.4,2.3-2.8,2.6c-0.8,0.1-1.6,0.2-2.4,0.1c-1.1,0-2.2,0-2.6-0.1l-0.7-0.1l0-2.5
		l0-2.5L381.4,194.4L381.4,194.4z M406.9,203.1c22.9,0,28.5,0,27.5,0.2l-0.1,0l0.1,0.1c0.1,0.1,0.1,0.1-0.1,0.1
		c-0.2,0-0.1,0,0.2,0.1l0.5,0.1l-0.5,0c-0.3,0-0.4,0-0.3,0.1c0.1,0,0.1,0.1,0.1,0.7c0,0.7,0,0.7,0.2,0.7c0.1,0,0.1,0-0.1,0
		c-0.2,0-0.3,0-0.3,0.1c0,0.1-9.1,0.1-27,0.1h-27v-2.2L406.9,203.1z M386.3,179.1h2.7l0,2.5l0,2.5h-5.4l0-2.5l0-2.5H386.3z
		 M391.8,188.5c0.2-1.3,0.5-2.6,1-3.8c0.1-0.3,0.2-0.5,0.4-0.8c0.1-0.2,0.2-0.3,0.3-0.5c0.3-0.5,0.7-1,1.1-1.5c0,0,0.1-0.1,0.1-0.1
		c0.3-0.5,0.7-0.9,1.2-1.2c0.6-0.5,1.3-0.9,2-1.1c1-0.5,2.1-0.7,3.2-0.6c0.6,0,1.3,0.1,1.9,0.3c0.4,0.1,0.9,0.3,1.1,0.4
		c0.1,0.1,0.3,0.1,0.4,0.2c0.2,0.1,0.5,0.2,0.7,0.4c1.6,1.3,2.9,3,3.7,4.9c1.1,2.5,1.2,5.3,0.4,7.9c-0.2,0.8-0.6,1.6-1,2.4
		c-0.4,0.8-1,1.5-1.6,2.2c-1,1.2-2.3,2.1-3.8,2.6c-1.1,0.3-2.3,0.4-3.4,0.2c-1.3-0.3-2.6-0.9-3.7-1.8c-0.4-0.3-0.8-0.7-1.2-1.2
		c-0.1-0.2-0.2-0.3-0.4-0.5c-1.2-1.5-1.9-3.3-2.3-5.2C391.8,190.5,391.7,189.5,391.8,188.5L391.8,188.5z M396.9,191.1
		c0.2,1.1,0.8,2.2,1.6,3.1c0.8,0.9,2.1,1.2,3.2,0.8c1.5-0.8,2.5-2.2,2.8-3.9c0.2-1.1,0.2-2.3,0-3.5c-0.3-1.2-0.9-2.4-1.9-3.2
		c-0.3-0.3-0.6-0.5-1-0.5c-0.8-0.2-1.7-0.1-2.5,0.3c-0.8,0.6-1.4,1.3-1.7,2.2C396.8,187.9,396.6,189.5,396.9,191.1L396.9,191.1z
		 M412.1,179.2c0,0,1.3,0,2.7,0l2.6,0l0,2.8c0,2.6,0,2.8,0.2,3.3c0.3,1.1,1.5,1.8,2.6,1.4c0,0,0.1,0,0.1,0c0.6-0.2,1-0.6,1.2-1.2
		l0.2-0.5l0-2.9l0-2.9h5.4l0,3.3c0.1,1.3,0,2.6-0.2,3.9c-0.3,1.1-0.7,2.2-1.4,3.2c-0.1,0.1-0.2,0.3-0.3,0.5
		c-0.4,0.5-0.8,0.9-1.3,1.3c-0.5,0.4-1,0.7-1.6,1c-0.1,0-0.5,0.2-0.8,0.3c-0.6,0.2-1.3,0.3-1.9,0.2c-0.7,0.1-1.4,0-2-0.2
		c-0.8-0.2-1.5-0.6-2.1-1.1c-0.8-0.6-1.5-1.4-2.1-2.3c-0.7-1.2-1.2-2.5-1.3-3.9C412,183.2,412,181.2,412.1,179.2L412.1,179.2z
		 M419.6,194.5h4.4v5.2h-8.8v-5.2H419.6z M427.2,175.2c0,0,0.1-0.1,0.1-0.3c0-0.3,0-0.3,0.3-0.4c0.2,0,7.7-0.1,16.6-0.1h16.3l0,1.1
		l0,1.1h-16.6c-9.1,0-16.6,0-16.7-0.1c-0.1,0-0.1-0.2-0.1-0.7C427.1,175.5,427.1,175.2,427.2,175.2L427.2,175.2z M434.6,187.7h5.6
		v5.1H429v-5.1L434.6,187.7z M444.7,179.2h2.7v5.1H442v-5.1L444.7,179.2z M444.7,186.9h2.7v13.1H442v-13.1H444.7z M455.5,179.2h5.7
		v5.1h-11.3v-5.1H455.5z M450.7,187.2c0,0,1.2,0,2.7,0l2.6,0l0,3c0,4.2-0.1,4,2.6,4l1.7,0v5.3l-0.6,0.1c-1.6,0.1-3.3,0.1-4.9,0
		c-1.2-0.1-2.3-0.7-3-1.6c-0.7-1-1.1-2.1-1.1-3.3C450.7,193.8,450.7,187.3,450.7,187.2L450.7,187.2z M464.3,176.7
		c0.1-0.5,0.4-1,0.7-1.4c0.9-1.2,2.6-1.4,3.8-0.4c0,0,0.1,0.1,0.1,0.1c0.4,0.3,0.8,0.7,1,1.3c0.2,0.4,0.3,0.9,0.2,1.4
		c0,0.5,0,1-0.2,1.4c-0.4,1-1.4,1.7-2.5,1.9c-0.9,0.1-1.8-0.3-2.4-1.1C464.3,178.9,464,177.8,464.3,176.7L464.3,176.7z M464.8,178.8
		c0.3,0.8,1,1.3,1.8,1.5c0.8,0.2,1.7-0.1,2.3-0.7c0.2-0.2,0.4-0.5,0.5-0.8c0.2-0.4,0.3-0.8,0.2-1.3c0-0.4,0-0.9-0.3-1.3
		c-0.1-0.4-0.4-0.7-0.7-0.9c-0.2-0.2-0.5-0.4-0.8-0.5c-1.3-0.4-2.8,0.3-3.2,1.7C464.6,177.3,464.6,178.1,464.8,178.8L464.8,178.8z
		 M466.8,175.6c0.4,0,0.8,0,1.2,0.1c0.5,0.4,0.6,1.1,0.3,1.6c-0.1,0.1-0.2,0.2-0.4,0.3l-0.2,0.1l0.3,0.3c0.2,0.2,0.3,0.5,0.5,0.8
		c0.1,0.2,0.2,0.3,0.3,0.5c0.2,0.1,0,0.2-0.2,0.2l-0.3,0l-0.4-0.8c-0.5-0.8-0.6-0.9-1.1-0.9h-0.3v0.9v0.9l-0.2,0l-0.2,0l0-1.9l0-1.9
		L466.8,175.6z M466.9,177.2c0.5,0,0.7,0,0.8-0.2c0.4-0.4,0.2-0.9-0.4-1c-0.4,0-0.7,0-1.1,0c0,0.2,0,0.4,0,0.6v0.6L466.9,177.2z"/>
	<path id="rect95" class="st26" d="M542.5,57.2h12.7c2.5,0,4.6,2,4.6,4.6v11.4c0,2.5-2,4.6-4.6,4.6l0,0h-12.7c-2.5,0-4.6-2-4.6-4.6
		c0,0,0,0,0,0V61.7C537.9,59.2,540,57.2,542.5,57.2L542.5,57.2L542.5,57.2z"/>
	<path id="rect97" class="st26" d="M541.9,78.2h13.9c2.2,0,4,1.8,4,4v12.6c0,2.2-1.8,4-4,4l0,0h-13.9c-2.2,0-4-1.8-4-4V82.1
		C537.9,80,539.7,78.2,541.9,78.2z"/>
	<rect id="rect99" x="549" y="66.3" class="st27" width="44.6" height="2.3"/>
	<rect id="rect101" x="549" y="87.4" class="st27" width="44.6" height="2.3"/>
	
		<ellipse id="path140" transform="matrix(0.1602 -0.9871 0.9871 0.1602 244.7821 661.6968)" class="st28" cx="511.3" cy="187" rx="26.9" ry="26.9"/>
	<circle id="circle142" class="st28" cx="337.3" cy="187" r="26.9"/>
	<circle id="path152" class="st16" cx="337.3" cy="187" r="24.6"/>
	
		<ellipse id="circle154" transform="matrix(0.1602 -0.9871 0.9871 0.1602 244.7821 661.6968)" class="st16" cx="511.3" cy="187" rx="24.6" ry="24.6"/>
	<rect id="rect156" x="310.4" y="18.4" class="st16" width="190.9" height="140.1"/>
	<rect id="rect158" x="311.9" y="20" class="st25" width="187.8" height="137"/>
	<rect id="rect170" x="498.8" y="78.5" class="st28" width="16" height="18.5"/>
	<rect id="rect172" x="498.8" y="121.6" class="st28" width="16" height="18.5"/>
	<rect id="rect177" x="296.8" y="79.4" class="st28" width="16" height="18.5"/>
	<rect id="rect179" x="296.8" y="104" class="st28" width="16" height="18.5"/>
	<rect id="rect181" x="296.8" y="54.8" class="st28" width="16" height="18.5"/>
	<rect id="rect183" x="305.4" y="62.8" class="st27" width="8" height="2.5"/>
	<rect id="rect185" x="305.4" y="87.4" class="st27" width="8.3" height="2.5"/>
	<rect id="rect187" x="305.4" y="112" class="st27" width="8.6" height="2.5"/>
	<rect id="rect193" x="498.5" y="86.5" class="st27" width="8.3" height="2.5"/>
	<rect id="rect195" x="498.5" y="129.6" class="st27" width="8.6" height="2.5"/>
	<rect id="rect160" x="312.7" y="20.8" class="st29" width="186.3" height="135.5"/>
	<path id="path162" class="st30" d="M405.8,22.3c-36.6,0-66.2,29.6-66.2,66.2v0c0,36.6,29.6,66.2,66.2,66.2l0,0l0,0
		c36.6,0,66.2-29.6,66.2-66.2S442.4,22.3,405.8,22.3z M312.7,65.4v46.2H325V65.4H312.7z"/>
	<circle id="path166" class="st31" cx="405.8" cy="88.5" r="53.9"/>
	<path id="path168" class="st32" d="M367.7,50.4c21-21,55.2-21,76.2,0s21,55.2,0,76.2c-21,21-55.2,21-76.2,0
		c-0.1-0.1-0.1-0.1-0.2-0.2"/>
	<g id="text70">
		<g class="st33">
			<path class="st16" d="M372.8,15.7c0,0.1,0,0.1,0,0.1c0,0-0.1,0.1-0.1,0.1s-0.1,0-0.3,0.1c-0.1,0-0.2,0-0.4,0c-0.2,0-0.4,0-0.5,0
				c-0.1,0-0.2-0.1-0.3-0.1c-0.1-0.1-0.1-0.1-0.2-0.2l-4.5-6.2v6.2c0,0,0,0.1,0,0.1s-0.1,0.1-0.1,0.1c-0.1,0-0.1,0-0.3,0.1
				c-0.1,0-0.2,0-0.4,0c-0.2,0-0.3,0-0.4,0s-0.2,0-0.3-0.1c-0.1,0-0.1-0.1-0.1-0.1s0-0.1,0-0.1V3.8c0-0.1,0-0.1,0-0.1
				c0,0,0.1-0.1,0.1-0.1s0.1,0,0.3-0.1c0.1,0,0.2,0,0.4,0c0.2,0,0.3,0,0.4,0c0.1,0,0.2,0,0.3,0.1s0.1,0.1,0.1,0.1c0,0,0,0.1,0,0.1
				v5.5l4.4-5.5c0-0.1,0.1-0.1,0.1-0.1c0.1,0,0.1-0.1,0.2-0.1c0.1,0,0.2,0,0.3-0.1c0.1,0,0.2,0,0.4,0c0.2,0,0.3,0,0.4,0
				c0.1,0,0.2,0,0.2,0.1s0.1,0.1,0.1,0.1s0,0.1,0,0.1c0,0.1,0,0.2-0.1,0.2c0,0.1-0.1,0.2-0.2,0.3l-4.1,4.9l4.4,5.9
				c0.1,0.2,0.2,0.3,0.2,0.3S372.8,15.6,372.8,15.7z"/>
		</g>
		<g class="st33">
			<path class="st16" d="M378.8,11.1v4.6c0,0.1,0,0.1,0,0.1s-0.1,0.1-0.1,0.1c-0.1,0-0.1,0-0.3,0.1c-0.1,0-0.2,0-0.4,0
				c-0.2,0-0.3,0-0.4,0s-0.2,0-0.3-0.1c-0.1,0-0.1-0.1-0.1-0.1s0-0.1,0-0.1v-4.6l-3.5-7c-0.1-0.1-0.1-0.3-0.1-0.3c0-0.1,0-0.1,0-0.2
				s0.1-0.1,0.3-0.1s0.3,0,0.5,0c0.2,0,0.3,0,0.5,0c0.1,0,0.2,0,0.3,0.1c0.1,0,0.1,0.1,0.2,0.1s0.1,0.1,0.1,0.2l1.7,3.6
				c0.2,0.3,0.3,0.7,0.5,1.1s0.3,0.7,0.5,1.1h0c0.1-0.4,0.3-0.7,0.5-1.1c0.2-0.4,0.3-0.7,0.5-1.1l1.7-3.6c0-0.1,0-0.1,0.1-0.2
				s0.1-0.1,0.1-0.1c0.1,0,0.1,0,0.3-0.1c0.1,0,0.2,0,0.4,0c0.2,0,0.4,0,0.5,0c0.1,0,0.2,0,0.3,0.1c0.1,0,0.1,0.1,0.1,0.2
				c0,0.1-0.1,0.2-0.1,0.3L378.8,11.1z"/>
		</g>
		<g class="st33">
			<path class="st16" d="M387,11.1c0,0.2,0,0.4-0.1,0.5s-0.1,0.1-0.2,0.1h-4c-0.1,0-0.2,0-0.3-0.1c-0.1-0.1-0.1-0.3-0.1-0.5
				s0-0.4,0.1-0.5c0.1-0.1,0.1-0.1,0.3-0.1h4c0.1,0,0.1,0,0.1,0c0,0,0.1,0.1,0.1,0.1s0.1,0.1,0.1,0.2C387,10.9,387,11,387,11.1z"/>
			<path class="st16" d="M396.9,9.7c0,0.9-0.1,1.8-0.2,2.6c-0.1,0.8-0.4,1.5-0.7,2c-0.3,0.6-0.8,1-1.4,1.3c-0.6,0.3-1.3,0.5-2.1,0.5
				c-0.8,0-1.4-0.1-2-0.4c-0.5-0.3-1-0.7-1.3-1.2c-0.3-0.5-0.6-1.2-0.7-2c-0.1-0.8-0.2-1.7-0.2-2.7c0-0.9,0.1-1.8,0.2-2.6
				c0.2-0.8,0.4-1.5,0.7-2c0.3-0.6,0.8-1,1.4-1.3c0.6-0.3,1.2-0.5,2.1-0.5c0.8,0,1.4,0.1,2,0.4s1,0.7,1.3,1.2c0.3,0.5,0.6,1.2,0.7,2
				C396.8,7.8,396.9,8.7,396.9,9.7z M395.2,9.9c0-0.6,0-1.2-0.1-1.7c0-0.5-0.1-0.9-0.2-1.3c-0.1-0.4-0.2-0.7-0.3-1
				c-0.1-0.3-0.3-0.5-0.5-0.7c-0.2-0.2-0.4-0.3-0.7-0.4s-0.5-0.1-0.8-0.1c-0.5,0-1,0.1-1.3,0.4c-0.3,0.3-0.6,0.6-0.8,1.1
				c-0.2,0.4-0.3,1-0.4,1.6C390,8.4,390,9,390,9.7c0,0.9,0,1.7,0.1,2.4c0.1,0.6,0.2,1.2,0.5,1.6s0.5,0.7,0.8,0.9s0.7,0.3,1.2,0.3
				c0.4,0,0.7-0.1,0.9-0.2c0.3-0.1,0.5-0.3,0.7-0.5c0.2-0.2,0.4-0.5,0.5-0.8c0.1-0.3,0.2-0.6,0.3-1c0.1-0.4,0.1-0.8,0.2-1.2
				C395.2,10.8,395.2,10.3,395.2,9.9z"/>
			<path class="st16" d="M406.9,12.4c0,0.2,0,0.4-0.1,0.5c-0.1,0.1-0.2,0.2-0.3,0.2h-1.4v2.6c0,0.1,0,0.1,0,0.1c0,0-0.1,0.1-0.1,0.1
				c-0.1,0-0.2,0-0.3,0.1c-0.1,0-0.2,0-0.4,0c-0.2,0-0.3,0-0.4,0c-0.1,0-0.2,0-0.3-0.1c-0.1,0-0.1-0.1-0.1-0.1c0,0,0-0.1,0-0.1v-2.6
				h-5.1c-0.1,0-0.1,0-0.2,0c-0.1,0-0.1-0.1-0.1-0.1s-0.1-0.1-0.1-0.2c0-0.1,0-0.2,0-0.4c0-0.1,0-0.2,0-0.3c0-0.1,0-0.2,0-0.3
				c0-0.1,0-0.2,0.1-0.2c0-0.1,0.1-0.2,0.1-0.2l4.4-7.5c0-0.1,0.1-0.1,0.1-0.1s0.1-0.1,0.2-0.1c0.1,0,0.2,0,0.4-0.1s0.3,0,0.5,0
				c0.2,0,0.4,0,0.6,0c0.2,0,0.3,0,0.4,0.1c0.1,0,0.2,0.1,0.2,0.1s0.1,0.1,0.1,0.1v7.9h1.4c0.1,0,0.2,0.1,0.3,0.2
				C406.9,12,406.9,12.2,406.9,12.4z M403.5,5L403.5,5l-4,6.8h4V5z"/>
			<path class="st16" d="M416.7,9.7c0,0.9-0.1,1.8-0.2,2.6c-0.1,0.8-0.4,1.5-0.7,2c-0.3,0.6-0.8,1-1.4,1.3c-0.6,0.3-1.3,0.5-2.1,0.5
				c-0.8,0-1.4-0.1-2-0.4c-0.5-0.3-1-0.7-1.3-1.2c-0.3-0.5-0.6-1.2-0.7-2c-0.1-0.8-0.2-1.7-0.2-2.7c0-0.9,0.1-1.8,0.2-2.6
				c0.2-0.8,0.4-1.5,0.7-2c0.3-0.6,0.8-1,1.4-1.3c0.6-0.3,1.2-0.5,2.1-0.5c0.8,0,1.4,0.1,2,0.4s1,0.7,1.3,1.2c0.3,0.5,0.6,1.2,0.7,2
				C416.6,7.8,416.7,8.7,416.7,9.7z M415,9.9c0-0.6,0-1.2-0.1-1.7c0-0.5-0.1-0.9-0.2-1.3c-0.1-0.4-0.2-0.7-0.3-1
				c-0.1-0.3-0.3-0.5-0.5-0.7c-0.2-0.2-0.4-0.3-0.7-0.4c-0.2-0.1-0.5-0.1-0.8-0.1c-0.5,0-1,0.1-1.3,0.4c-0.3,0.3-0.6,0.6-0.8,1.1
				s-0.3,1-0.4,1.6c-0.1,0.6-0.1,1.2-0.1,1.9c0,0.9,0,1.7,0.1,2.4c0.1,0.6,0.2,1.2,0.5,1.6s0.5,0.7,0.8,0.9s0.7,0.3,1.2,0.3
				c0.4,0,0.7-0.1,0.9-0.2c0.3-0.1,0.5-0.3,0.7-0.5c0.2-0.2,0.4-0.5,0.5-0.8c0.1-0.3,0.2-0.6,0.3-1c0.1-0.4,0.1-0.8,0.2-1.2
				C415,10.8,415,10.3,415,9.9z"/>
		</g>
	</g>
	<g id="text74">
		<g class="st33">
			<path class="st16" d="M518.6,71.2c0,0.1,0,0.1,0,0.2s0,0.1,0,0.2c0,0,0,0.1,0,0.1c0,0-0.1,0.1-0.1,0.1c0,0-0.2,0.1-0.3,0.2
				c-0.2,0.1-0.4,0.2-0.6,0.3c-0.2,0.1-0.5,0.2-0.8,0.2c-0.3,0.1-0.6,0.1-1,0.1c-0.6,0-1.2-0.1-1.7-0.3c-0.5-0.2-0.9-0.5-1.3-0.9
				c-0.4-0.4-0.6-0.9-0.8-1.5c-0.2-0.6-0.3-1.3-0.3-2.1c0-0.8,0.1-1.5,0.3-2.1c0.2-0.6,0.5-1.2,0.9-1.6c0.4-0.4,0.8-0.8,1.3-1
				c0.5-0.2,1.1-0.3,1.7-0.3c0.3,0,0.5,0,0.8,0.1c0.3,0.1,0.5,0.1,0.7,0.2c0.2,0.1,0.4,0.2,0.6,0.3c0.2,0.1,0.3,0.2,0.4,0.3
				c0.1,0.1,0.1,0.1,0.1,0.2c0,0,0,0.1,0,0.1c0,0,0,0.1,0,0.2c0,0.1,0,0.1,0,0.2c0,0.1,0,0.2,0,0.3c0,0.1,0,0.1,0,0.2
				c0,0,0,0.1-0.1,0.1c0,0-0.1,0-0.1,0c-0.1,0-0.2,0-0.3-0.1c-0.1-0.1-0.3-0.2-0.5-0.3c-0.2-0.1-0.4-0.2-0.7-0.3
				c-0.3-0.1-0.6-0.1-1-0.1c-0.4,0-0.8,0.1-1.2,0.3s-0.7,0.4-0.9,0.8c-0.2,0.3-0.4,0.7-0.6,1.2c-0.1,0.5-0.2,1-0.2,1.6
				c0,0.6,0.1,1.1,0.2,1.6c0.1,0.5,0.3,0.9,0.6,1.2c0.2,0.3,0.5,0.6,0.9,0.7c0.4,0.2,0.8,0.2,1.2,0.2c0.4,0,0.7,0,1-0.1
				c0.3-0.1,0.5-0.2,0.7-0.3c0.2-0.1,0.4-0.2,0.5-0.3c0.1-0.1,0.2-0.1,0.3-0.1c0,0,0.1,0,0.1,0c0,0,0,0,0.1,0.1c0,0,0,0.1,0,0.2
				C518.6,71,518.6,71.1,518.6,71.2z"/>
			<path class="st16" d="M525.3,72c0,0.1,0,0.2,0,0.2c0,0.1,0,0.1,0,0.2c0,0-0.1,0.1-0.1,0.1c0,0-0.1,0-0.1,0h-4.3
				c-0.1,0-0.2,0-0.3-0.1s-0.2-0.2-0.2-0.4v-8.9c0,0,0-0.1,0-0.1c0,0,0.1-0.1,0.1-0.1c0,0,0.1,0,0.2,0c0.1,0,0.2,0,0.3,0
				c0.1,0,0.2,0,0.3,0s0.1,0,0.2,0c0,0,0.1,0,0.1,0.1c0,0,0,0.1,0,0.1v8.3h3.5c0,0,0.1,0,0.1,0c0,0,0.1,0.1,0.1,0.1c0,0,0,0.1,0,0.2
				C525.3,71.8,525.3,71.9,525.3,72z"/>
			<path class="st16" d="M533,72.4c0,0,0,0.1,0,0.1s-0.1,0.1-0.1,0.1c0,0-0.1,0-0.2,0c-0.1,0-0.2,0-0.3,0c-0.2,0-0.3,0-0.4,0
				s-0.2,0-0.2-0.1c-0.1,0-0.1-0.1-0.1-0.1l-3.5-4.8v4.8c0,0,0,0.1,0,0.1s-0.1,0.1-0.1,0.1c0,0-0.1,0-0.2,0c-0.1,0-0.2,0-0.3,0
				c-0.1,0-0.2,0-0.3,0c-0.1,0-0.2,0-0.2,0c0,0-0.1,0-0.1-0.1c0,0,0-0.1,0-0.1v-9.2c0,0,0-0.1,0-0.1c0,0,0.1-0.1,0.1-0.1
				c0,0,0.1,0,0.2,0s0.2,0,0.3,0c0.1,0,0.2,0,0.3,0c0.1,0,0.1,0,0.2,0c0,0,0.1,0,0.1,0.1c0,0,0,0.1,0,0.1v4.3l3.4-4.3
				c0,0,0.1-0.1,0.1-0.1c0,0,0.1-0.1,0.1-0.1c0.1,0,0.1,0,0.2,0s0.2,0,0.3,0s0.2,0,0.3,0c0.1,0,0.1,0,0.2,0c0,0,0.1,0,0.1,0.1
				c0,0,0,0.1,0,0.1c0,0.1,0,0.1,0,0.2s-0.1,0.2-0.2,0.3l-3.2,3.8l3.4,4.6c0.1,0.1,0.1,0.2,0.2,0.3C533,72.3,533,72.3,533,72.4z"/>
		</g>
	</g>
	<g id="text78">
		<g class="st33">
			<path class="st16" d="M524.3,87.7c0,0.8-0.1,1.5-0.3,2.2s-0.5,1.1-0.9,1.5c-0.4,0.4-0.9,0.7-1.5,0.9s-1.3,0.3-2.1,0.3h-2
				c-0.1,0-0.2,0-0.3-0.1s-0.2-0.2-0.2-0.4v-8.5c0-0.2,0.1-0.3,0.2-0.4s0.2-0.1,0.3-0.1h2.2c0.8,0,1.5,0.1,2.1,0.3
				c0.6,0.2,1,0.5,1.4,0.9c0.4,0.4,0.7,0.9,0.9,1.5C524.2,86.4,524.3,87,524.3,87.7z M523,87.8c0-0.5-0.1-1-0.2-1.4
				c-0.1-0.4-0.3-0.8-0.6-1.2c-0.3-0.3-0.6-0.6-1-0.8s-1-0.3-1.6-0.3h-1.3v7.4h1.3c0.6,0,1.1-0.1,1.5-0.2s0.8-0.4,1-0.7
				c0.3-0.3,0.5-0.7,0.6-1.2S523,88.4,523,87.8z"/>
		</g>
		<g class="st33">
			<path class="st16" d="M532,83.6c0,0.1,0,0.2,0,0.2s0,0.1,0,0.2c0,0,0,0.1-0.1,0.1s-0.1,0-0.1,0h-2.7v8.3c0,0,0,0.1,0,0.1
				c0,0-0.1,0.1-0.1,0.1c0,0-0.1,0-0.2,0c-0.1,0-0.2,0-0.3,0c-0.1,0-0.2,0-0.3,0c-0.1,0-0.1,0-0.2,0c0,0-0.1,0-0.1-0.1
				c0,0,0-0.1,0-0.1v-8.3h-2.7c0,0-0.1,0-0.1,0c0,0-0.1-0.1-0.1-0.1c0,0,0-0.1,0-0.2c0-0.1,0-0.1,0-0.2c0-0.1,0-0.2,0-0.2
				c0-0.1,0-0.1,0-0.2c0,0,0-0.1,0.1-0.1c0,0,0.1,0,0.1,0h6.6c0,0,0.1,0,0.1,0c0,0,0.1,0.1,0.1,0.1c0,0,0,0.1,0,0.2
				S532,83.6,532,83.6z"/>
		</g>
	</g>
	<g id="text82">
		<g class="st33">
			<path class="st16" d="M519.1,111.7c0,0.4-0.1,0.8-0.2,1.2s-0.4,0.6-0.7,0.9c-0.3,0.2-0.6,0.4-1,0.5c-0.4,0.1-0.8,0.2-1.3,0.2
				c-0.3,0-0.6,0-0.9-0.1c-0.3-0.1-0.5-0.1-0.7-0.2c-0.2-0.1-0.4-0.2-0.5-0.2c-0.1-0.1-0.2-0.2-0.3-0.2c-0.1-0.1-0.1-0.1-0.1-0.2
				c0-0.1,0-0.2,0-0.4c0-0.1,0-0.2,0-0.3s0-0.1,0-0.2s0-0.1,0.1-0.1c0,0,0.1,0,0.1,0c0.1,0,0.2,0,0.3,0.1c0.1,0.1,0.3,0.2,0.5,0.3
				s0.4,0.2,0.7,0.3c0.3,0.1,0.6,0.1,0.9,0.1c0.3,0,0.5,0,0.7-0.1c0.2-0.1,0.4-0.2,0.6-0.3s0.3-0.3,0.4-0.5s0.1-0.4,0.1-0.7
				c0-0.3-0.1-0.5-0.2-0.7s-0.3-0.4-0.5-0.5c-0.2-0.1-0.4-0.3-0.7-0.4c-0.3-0.1-0.5-0.2-0.8-0.4c-0.3-0.1-0.5-0.3-0.8-0.4
				c-0.3-0.2-0.5-0.3-0.7-0.5c-0.2-0.2-0.4-0.4-0.5-0.7s-0.2-0.6-0.2-1c0-0.4,0.1-0.7,0.2-1s0.3-0.6,0.6-0.8
				c0.3-0.2,0.6-0.4,0.9-0.5c0.4-0.1,0.7-0.2,1.1-0.2c0.2,0,0.4,0,0.6,0.1s0.4,0.1,0.6,0.1c0.2,0.1,0.4,0.1,0.5,0.2s0.2,0.1,0.3,0.2
				c0,0,0.1,0.1,0.1,0.1c0,0,0,0.1,0,0.1c0,0,0,0.1,0,0.1c0,0.1,0,0.1,0,0.2c0,0.1,0,0.2,0,0.2c0,0.1,0,0.1,0,0.2s0,0.1-0.1,0.1
				c0,0-0.1,0-0.1,0c-0.1,0-0.1,0-0.3-0.1c-0.1-0.1-0.3-0.1-0.4-0.2c-0.2-0.1-0.4-0.2-0.6-0.2c-0.2-0.1-0.5-0.1-0.8-0.1
				c-0.3,0-0.5,0-0.7,0.1c-0.2,0.1-0.4,0.2-0.5,0.3s-0.2,0.3-0.3,0.4s-0.1,0.3-0.1,0.5c0,0.3,0.1,0.5,0.2,0.7
				c0.1,0.2,0.3,0.4,0.5,0.5c0.2,0.1,0.4,0.3,0.7,0.4c0.3,0.1,0.5,0.2,0.8,0.4c0.3,0.1,0.5,0.3,0.8,0.4c0.3,0.1,0.5,0.3,0.7,0.5
				c0.2,0.2,0.4,0.4,0.5,0.7C519,111,519.1,111.3,519.1,111.7z"/>
		</g>
		<g class="st33">
			<path class="st16" d="M529.8,114c0,0.1,0,0.1-0.1,0.2c0,0-0.1,0.1-0.2,0.1c-0.1,0-0.2,0-0.2,0c-0.1,0-0.2,0-0.4,0
				c-0.1,0-0.3,0-0.4,0c-0.1,0-0.2,0-0.3,0c-0.1,0-0.1-0.1-0.2-0.1s-0.1-0.1-0.1-0.2l-2-7.1h0l-1.8,7.1c0,0.1,0,0.1-0.1,0.2
				s-0.1,0.1-0.1,0.1c-0.1,0-0.1,0-0.2,0c-0.1,0-0.2,0-0.4,0c-0.2,0-0.3,0-0.4,0s-0.2,0-0.3,0c-0.1,0-0.1-0.1-0.2-0.1
				s-0.1-0.1-0.1-0.2l-2.5-8.7c0-0.1,0-0.2,0-0.3c0-0.1,0-0.1,0.1-0.1c0,0,0.1-0.1,0.2-0.1s0.2,0,0.4,0c0.2,0,0.3,0,0.4,0
				s0.2,0,0.2,0s0.1,0,0.1,0.1c0,0,0,0.1,0,0.1l2.1,7.9h0l2-7.9c0-0.1,0-0.1,0.1-0.1c0,0,0.1-0.1,0.1-0.1c0,0,0.1,0,0.2,0
				s0.2,0,0.4,0c0.1,0,0.2,0,0.3,0c0.1,0,0.1,0,0.2,0c0,0,0.1,0,0.1,0.1c0,0,0,0.1,0.1,0.1l2.2,7.9h0l2.1-7.9c0,0,0-0.1,0-0.1
				s0-0.1,0.1-0.1c0,0,0.1,0,0.2,0c0.1,0,0.2,0,0.3,0c0.1,0,0.3,0,0.3,0c0.1,0,0.1,0,0.2,0.1c0,0,0.1,0.1,0.1,0.1c0,0.1,0,0.1,0,0.3
				L529.8,114z"/>
		</g>
	</g>
	<g id="text86">
		<g class="st33">
			<path class="st16" d="M527.2,129.4c0,0.1,0,0.2,0,0.3c0,0.1,0,0.2-0.1,0.2c0,0.1-0.1,0.1-0.1,0.1c0,0-0.1,0-0.1,0h-3.1v3.5
				c0,0.1,0,0.1,0,0.1c0,0-0.1,0.1-0.1,0.1c-0.1,0-0.1,0-0.2,0.1c-0.1,0-0.2,0-0.3,0c-0.1,0-0.2,0-0.3,0c-0.1,0-0.2,0-0.2-0.1
				c-0.1,0-0.1-0.1-0.1-0.1c0,0,0-0.1,0-0.1v-3.5h-3.1c-0.1,0-0.1,0-0.1,0c0,0-0.1-0.1-0.1-0.1c0-0.1-0.1-0.1-0.1-0.2
				c0-0.1,0-0.2,0-0.3c0-0.1,0-0.2,0-0.3c0-0.1,0-0.2,0.1-0.2c0-0.1,0.1-0.1,0.1-0.1c0,0,0.1,0,0.1,0h3.1v-3.5c0-0.1,0-0.1,0-0.1
				c0,0,0.1-0.1,0.1-0.1c0.1,0,0.1-0.1,0.2-0.1c0.1,0,0.2,0,0.3,0c0.1,0,0.2,0,0.3,0c0.1,0,0.2,0,0.2,0.1c0.1,0,0.1,0.1,0.1,0.1
				c0,0,0,0.1,0,0.1v3.5h3.1c0.1,0,0.1,0,0.1,0c0,0,0.1,0.1,0.1,0.1c0,0.1,0.1,0.1,0.1,0.2S527.2,129.3,527.2,129.4z"/>
		</g>
	</g>
	<g id="text90">
		<g class="st33">
			<path class="st16" d="M514.3,147.2c0,0.1,0,0.2,0,0.2c0,0.1,0,0.1,0,0.2c0,0,0,0.1-0.1,0.1c0,0-0.1,0-0.1,0c-0.1,0-0.2,0-0.3-0.1
				c-0.1-0.1-0.3-0.2-0.5-0.3c-0.2-0.1-0.5-0.2-0.8-0.3c-0.3-0.1-0.7-0.1-1.1-0.1c-0.5,0-1,0.1-1.4,0.3s-0.8,0.4-1,0.8
				s-0.5,0.7-0.7,1.2c-0.2,0.5-0.2,1-0.2,1.5c0,0.6,0.1,1.1,0.2,1.6c0.2,0.5,0.4,0.9,0.7,1.2s0.6,0.6,1.1,0.7
				c0.4,0.2,0.9,0.2,1.3,0.2c0.3,0,0.6,0,0.9-0.1c0.3-0.1,0.6-0.2,0.8-0.3v-2.7h-2.2c-0.1,0-0.1,0-0.2-0.1s-0.1-0.2-0.1-0.4
				c0-0.1,0-0.2,0-0.2c0-0.1,0-0.1,0-0.2s0-0.1,0.1-0.1c0,0,0.1,0,0.1,0h3c0.1,0,0.1,0,0.2,0c0.1,0,0.1,0,0.1,0.1
				c0,0,0.1,0.1,0.1,0.2c0,0.1,0,0.1,0,0.2v3.6c0,0.1,0,0.2-0.1,0.3c0,0.1-0.1,0.2-0.3,0.2c-0.1,0.1-0.3,0.1-0.5,0.2
				c-0.2,0.1-0.5,0.2-0.7,0.2c-0.2,0.1-0.5,0.1-0.7,0.1c-0.2,0-0.5,0-0.7,0c-0.7,0-1.4-0.1-1.9-0.3c-0.6-0.2-1-0.5-1.4-1
				s-0.7-0.9-0.9-1.5c-0.2-0.6-0.3-1.2-0.3-1.9c0-0.7,0.1-1.4,0.3-2c0.2-0.6,0.5-1.1,0.9-1.5s0.9-0.8,1.5-1c0.6-0.2,1.2-0.3,1.9-0.3
				c0.4,0,0.7,0,1,0.1c0.3,0.1,0.6,0.1,0.8,0.2c0.2,0.1,0.4,0.2,0.6,0.3c0.2,0.1,0.3,0.2,0.3,0.2s0.1,0.1,0.1,0.2
				C514.2,146.9,514.3,147,514.3,147.2z"/>
			<path class="st16" d="M523.6,154.8c0,0.1,0,0.2,0,0.2c0,0.1-0.1,0.1-0.1,0.2c-0.1,0-0.1,0.1-0.2,0.1c-0.1,0-0.1,0-0.2,0h-0.4
				c-0.1,0-0.2,0-0.3,0c-0.1,0-0.2-0.1-0.3-0.1c-0.1-0.1-0.2-0.2-0.3-0.3c-0.1-0.1-0.2-0.3-0.3-0.5l-2.9-5.3
				c-0.1-0.3-0.3-0.6-0.5-0.9s-0.3-0.6-0.4-0.9h0c0,0.3,0,0.7,0,1.1s0,0.7,0,1.1v5.6c0,0,0,0.1,0,0.1c0,0-0.1,0.1-0.1,0.1
				c0,0-0.1,0-0.2,0c-0.1,0-0.2,0-0.3,0s-0.2,0-0.3,0c-0.1,0-0.1,0-0.2,0c0,0-0.1,0-0.1-0.1s0-0.1,0-0.1v-8.6c0-0.2,0.1-0.3,0.2-0.4
				s0.2-0.1,0.4-0.1h0.6c0.1,0,0.3,0,0.4,0c0.1,0,0.2,0.1,0.3,0.1c0.1,0.1,0.2,0.1,0.2,0.2s0.1,0.2,0.2,0.4l2.2,4.1
				c0.1,0.3,0.3,0.5,0.4,0.7s0.2,0.5,0.4,0.7c0.1,0.2,0.2,0.5,0.3,0.7c0.1,0.2,0.2,0.4,0.3,0.7h0c0-0.4,0-0.8,0-1.2
				c0-0.4,0-0.8,0-1.2v-5.1c0,0,0-0.1,0-0.1c0,0,0.1-0.1,0.1-0.1c0,0,0.1,0,0.2,0c0.1,0,0.2,0,0.3,0c0.1,0,0.2,0,0.3,0
				c0.1,0,0.1,0,0.2,0c0,0,0.1,0,0.1,0.1c0,0,0,0.1,0,0.1V154.8z"/>
			<path class="st16" d="M533.3,150.5c0,0.8-0.1,1.5-0.3,2.1c-0.2,0.6-0.5,1.1-0.9,1.5c-0.4,0.4-0.9,0.7-1.5,0.9
				c-0.6,0.2-1.3,0.3-2.1,0.3h-2c-0.1,0-0.2,0-0.3-0.1c-0.1-0.1-0.1-0.2-0.1-0.4v-8.3c0-0.2,0-0.3,0.1-0.4c0.1-0.1,0.2-0.1,0.3-0.1
				h2.1c0.8,0,1.5,0.1,2,0.3c0.6,0.2,1,0.5,1.4,0.9s0.7,0.9,0.9,1.4C533.2,149.1,533.3,149.8,533.3,150.5z M532,150.5
				c0-0.5-0.1-1-0.2-1.4c-0.1-0.4-0.3-0.8-0.6-1.1c-0.3-0.3-0.6-0.6-1-0.7s-0.9-0.3-1.6-0.3h-1.3v7.3h1.3c0.6,0,1.1-0.1,1.5-0.2
				s0.8-0.4,1-0.7c0.3-0.3,0.5-0.7,0.6-1.2C531.9,151.7,532,151.2,532,150.5z"/>
		</g>
	</g>
	<g id="text94">
		<g class="st33">
			<path class="st16" d="M294.6,199.7c0,0.1-0.1,0.2-0.2,0.3c-0.1,0.1-0.2,0.2-0.4,0.2c-0.1,0-0.3,0.1-0.6,0.1c-0.2,0-0.5,0-0.9,0
				c-0.3,0-0.5,0-0.7,0c-0.2,0-0.4,0-0.5,0c-0.1,0-0.3-0.1-0.4-0.1c-0.1,0-0.2-0.1-0.3-0.1s-0.1-0.1-0.2-0.2c0-0.1-0.1-0.1-0.1-0.2
				l-7.6-21.6c-0.1-0.3-0.1-0.5-0.2-0.6s0-0.3,0.2-0.4s0.3-0.1,0.5-0.2c0.2,0,0.6,0,1,0c0.3,0,0.6,0,0.8,0s0.4,0.1,0.5,0.1
				c0.1,0,0.2,0.1,0.2,0.2c0.1,0.1,0.1,0.2,0.2,0.3l6.7,19.6h0l6.5-19.5c0-0.1,0.1-0.2,0.1-0.3c0-0.1,0.1-0.1,0.3-0.2
				s0.3-0.1,0.5-0.1s0.5,0,0.9,0c0.4,0,0.7,0,0.9,0c0.2,0,0.4,0.1,0.4,0.2c0.1,0.1,0.1,0.2,0.1,0.4c0,0.2-0.1,0.4-0.2,0.6
				L294.6,199.7z"/>
		</g>
	</g>
</g>
<circle id="circle281" class="st34" cx="232.1" cy="247.4" r="11.6"/>
<circle id="circle281-2" class="st35" cx="232.1" cy="306.1" r="11.6"/>
<circle id="circle281-3" class="st36" cx="232.1" cy="658.8" r="11.6"/>
<rect x="232.1" y="242.8" class="st34" width="376.7" height="9.1"/>
<rect x="232.1" y="301.5" class="st35" width="404.1" height="9.1"/>
<rect id="rect853" x="232.1" y="654.3" class="st37" width="431.5" height="9.1"/>
<circle id="circle281-4" class="st38" cx="232.1" cy="747.1" r="11.6"/>
<rect id="rect853-2" x="232.1" y="742.6" class="st38" width="486.2" height="9.1"/>
<circle id="circle281-5" class="st39" cx="232.1" cy="717.7" r="11.6"/>
<rect id="rect853-3" x="232.1" y="713.2" class="st39" width="458.9" height="9.1"/>
<rect id="rect1022" x="570.6" y="146.8" class="st34" width="38.2" height="9.1"/>
<rect id="rect1022-2" x="599.7" y="146.8" class="st34" width="9.1" height="105.1"/>
<rect id="rect1022-3" x="627.1" y="125.9" class="st35" width="9.1" height="184.7"/>
<rect id="rect1022-4" x="654.5" y="104.7" class="st37" width="9.1" height="558.7"/>
<rect id="rect1022-5" x="681.8" y="84" class="st39" width="9.1" height="638.3"/>
<rect id="rect1022-6" x="709.2" y="62.8" class="st38" width="9.1" height="688.9"/>
<rect id="rect1024" x="570.6" y="125.9" class="st35" width="65.6" height="9.1"/>
<rect id="rect1026" x="570.6" y="104.7" class="st37" width="92.9" height="9.1"/>
<rect id="rect1028" x="569.1" y="62.8" class="st38" width="149.2" height="9.1"/>
<rect id="rect1030" x="570.6" y="84" class="st39" width="120.3" height="9.1"/>
<circle id="circle1058" class="st37" cx="570.6" cy="109.3" r="9.4"/>
<circle id="circle1060" class="st38" cx="569.1" cy="67.3" r="9.4"/>
<circle id="circle1062" class="st39" cx="570.6" cy="88.6" r="9.4"/>
<circle id="circle1064" class="st35" cx="570.6" cy="130.3" r="9.4"/>
<circle id="circle1066" class="st34" cx="570.6" cy="151.3" r="9.4"/>
</svg>
