<?xml version="1.0" encoding="UTF-8"?>
<svg xmlns="http://www.w3.org/2000/svg" version="1.1" viewBox="0 0 714.3 872.2">
  <defs>
    <style>
      .cls-1 {
        fill: #915114;
      }

      .cls-2 {
        fill: #c2bfab;
      }

      .cls-3 {
        fill: #010101;
      }

      .cls-4 {
        fill: #e8d28a;
      }

      .cls-5 {
        fill: #02814b;
      }

      .cls-6 {
        fill: #474544;
      }

      .cls-7 {
        fill: #fff;
      }

      .cls-8 {
        fill: #808181;
        opacity: 1;
      }

      .cls-8, .cls-9 {
        isolation: isolate;
      }

      .cls-10 {
        fill: #25af88;
      }

      .cls-11 {
        fill: #aba28e;
      }

      .cls-12 {
        fill: #cecece;
      }

      .cls-13 {
        stroke: #fff;
      }

      .cls-13, .cls-14 {
        fill: none;
        stroke-miterlimit: 10;
      }

      .cls-15 {
        fill: #525035;
      }

      .cls-16 {
        fill: #e20e18;
      }

      .cls-17 {
        fill: #e2eade;
      }

      .cls-18 {
        fill: #c29148;
      }

      .cls-19 {
        fill: #dfab88;
      }

      .cls-20 {
        fill: #fcfcfa;
      }

      .cls-14 {
        stroke: #95ac6e;
      }

      .cls-21 {
        fill: #ddd;
      }

      .cls-22 {
        fill: #0a11ff;
      }

      .cls-23 {
        fill: #d4c547;
      }

      .cls-24 {
        fill: #1b1b1b;
      }

      .cls-25 {
        fill: #ffe17b;
      }

      .cls-26 {
        fill: #b4b4b4;
      }

      .cls-27 {
        fill: #c1c1c1;
      }

      .cls-28 {
        fill: #8dddde;
      }

      .cls-29 {
        fill: #cdcccc;
      }

      .cls-30 {
        fill: #c87137;
      }

      .cls-31 {
        fill: #7f7f7f;
      }

      .cls-32 {
        fill: #36323e;
      }

      .cls-33 {
        fill: #141316;
      }

      .cls-34 {
        fill: #868c97;
      }

      .cls-35 {
        fill: #b9a68f;
      }

      .cls-36 {
        fill: #fee86f;
      }

      .cls-37 {
        fill: #343434;
      }

      .cls-38 {
        fill: #e0b45b;
      }
    </style>
  </defs>
  <!-- Generator: Adobe Illustrator 28.6.0, SVG Export Plug-In . SVG Version: 1.2.0 Build 709)  -->
  <g>
    <g id="Ebene_1">
      <g>
        <path class="cls-5" d="M243.3,290.2v-11.9H.2v11.9c2.3.9,3.9,3.1,3.9,5.7s-1.6,4.8-3.9,5.7v18.1c2.3.9,3.9,3.1,3.9,5.7s-1.6,4.8-3.9,5.7v17.9c2.3.9,3.9,3.1,3.9,5.7s-1.6,4.8-3.9,5.7v18.1c2.3.9,3.9,3.1,3.9,5.7s-1.6,4.8-3.9,5.7v18.1c2.3.9,3.9,3.1,3.9,5.7s-1.6,4.8-3.9,5.7v18.1c2.3.9,3.9,3.1,3.9,5.7s-1.6,4.8-3.9,5.7v18.1c2.3.9,3.9,3.1,3.9,5.7s-1.6,4.8-3.9,5.7v17.6c2.3.9,3.9,3.1,3.9,5.7s-1.6,4.8-3.9,5.7v18.1c2.3.9,3.9,3.1,3.9,5.7s-1.6,4.8-3.9,5.7v18.1c2.3.9,3.9,3.1,3.9,5.7s-1.6,4.8-3.9,5.7v18.1c2.3.9,3.9,3.1,3.9,5.7s-1.6,4.8-3.9,5.7v18.1c2.3.9,3.9,3.1,3.9,5.7s-1.6,4.8-3.9,5.7v18.1c2.3.9,3.9,3.1,3.9,5.7s-1.6,4.8-3.9,5.7v18.1c2.3.9,3.9,3.1,3.9,5.7s-1.6,4.8-3.9,5.7v18.1c2.3.9,3.9,3.1,3.9,5.7s-1.6,4.8-3.9,5.7v18.1c2.3.9,3.9,3.1,3.9,5.7s-1.6,4.8-3.9,5.7v18.1c2.3.9,3.9,3.1,3.9,5.7s-1.6,4.8-3.9,5.7v18.1c2.3.9,3.9,3.1,3.9,5.7s-1.6,4.8-3.9,5.7v18c2.3.9,3.9,3.1,3.9,5.7s-1.6,4.8-3.9,5.7v18.1c2.3.9,3.9,3.1,3.9,5.7s-1.6,4.8-3.9,5.7v10.7h243.1v-12c-2.2-.9-3.8-3.1-3.8-5.7s1.6-4.8,3.8-5.7v-18.1c-2.2-.9-3.8-3.1-3.8-5.7s1.6-4.8,3.8-5.7v-18.1c-2.2-.9-3.8-3.1-3.8-5.7s1.6-4.8,3.8-5.7v-18.1c-2.2-.9-3.8-3.1-3.8-5.7s1.6-4.8,3.8-5.7v-18.1c-2.2-.9-3.8-3.1-3.8-5.7s1.6-4.8,3.8-5.7v-17.6c-2.2-.9-3.8-3.1-3.8-5.7s1.6-4.8,3.8-5.7v-18.1c-2.2-.9-3.8-3.1-3.8-5.7s1.6-4.8,3.8-5.7v-18.1c-2.2-.9-3.8-3.1-3.8-5.7s1.6-4.8,3.8-5.7v-18.1c-2.2-.9-3.8-3.1-3.8-5.7s1.6-4.8,3.8-5.7v-18.1c-2.2-.9-3.8-3.1-3.8-5.7s1.6-4.8,3.8-5.7v-18.1c-2.2-.9-3.8-3.1-3.8-5.7s1.6-4.8,3.8-5.7v-18.1c-2.2-.9-3.8-3.1-3.8-5.7s1.6-4.8,3.8-5.7v-18.1c-2.2-.9-3.8-3.1-3.8-5.7s1.6-4.8,3.8-5.7v-18.1c-2.2-.9-3.8-3.1-3.8-5.7s1.6-4.8,3.8-5.7v-18.1c-2.2-.9-3.8-3.1-3.8-5.7s1.6-4.8,3.8-5.7v-18.1c-2.2-.9-3.8-3.1-3.8-5.7s1.6-4.8,3.8-5.7v-18.1c-2.2-.9-3.8-3.1-3.8-5.7s1.6-4.8,3.8-5.7v-18.1c-2.2-.9-3.8-3.1-3.8-5.7s1.6-4.8,3.8-5.7v-18.1c-2.2-.9-3.8-3.1-3.8-5.7s1.6-4.8,3.8-5.7v-18.1c-2.2-.9-3.8-3.1-3.8-5.7s1.6-3.2,3.8-4.1ZM15.8,860.5c-3.4,0-6.1-2.7-6.1-6.1s2.7-6.1,6.1-6.1,6.1,2.7,6.1,6.1-2.7,6.1-6.1,6.1ZM15.8,831c-3.4,0-6.1-2.7-6.1-6.1s2.7-6.1,6.1-6.1,6.1,2.7,6.1,6.1-2.7,6.1-6.1,6.1ZM15.8,801.7c-3.4,0-6.1-2.7-6.1-6.1s2.7-6.1,6.1-6.1,6.1,2.7,6.1,6.1-2.7,6.1-6.1,6.1ZM15.8,772.3c-3.4,0-6.1-2.7-6.1-6.1s2.7-6.1,6.1-6.1,6.1,2.7,6.1,6.1-2.7,6.1-6.1,6.1ZM15.8,742.9c-3.4,0-6.1-2.7-6.1-6.1s2.7-6.1,6.1-6.1,6.1,2.7,6.1,6.1-2.7,6.1-6.1,6.1ZM15.8,713.5c-3.4,0-6.1-2.7-6.1-6.1s2.7-6.1,6.1-6.1,6.1,2.7,6.1,6.1-2.7,6.1-6.1,6.1ZM15.8,684.1c-3.4,0-6.1-2.7-6.1-6.1s2.7-6.1,6.1-6.1,6.1,2.7,6.1,6.1-2.7,6.1-6.1,6.1ZM15.8,654.7c-3.4,0-6.1-2.7-6.1-6.1s2.7-6.1,6.1-6.1,6.1,2.7,6.1,6.1-2.7,6.1-6.1,6.1ZM15.8,625.3c-3.4,0-6.1-2.7-6.1-6.1s2.7-6.1,6.1-6.1,6.1,2.7,6.1,6.1-2.7,6.1-6.1,6.1ZM15.8,595.9c-3.4,0-6.1-2.7-6.1-6.1s2.7-6.1,6.1-6.1,6.1,2.7,6.1,6.1-2.7,6.1-6.1,6.1ZM15.8,566.5c-3.4,0-6.1-2.7-6.1-6.1s2.7-6.1,6.1-6.1,6.1,2.7,6.1,6.1-2.7,6.1-6.1,6.1ZM15.8,537.1c-3.4,0-6.1-2.7-6.1-6.1s2.7-6.1,6.1-6.1,6.1,2.7,6.1,6.1-2.7,6.1-6.1,6.1ZM15.8,507.7c-3.4,0-6.1-2.7-6.1-6.1s2.7-6.1,6.1-6.1,6.1,2.7,6.1,6.1-2.7,6.1-6.1,6.1ZM15.8,478.3c-3.4,0-6.1-2.7-6.1-6.1s2.7-6.1,6.1-6.1,6.1,2.7,6.1,6.1-2.7,6.1-6.1,6.1ZM15.8,448.9c-3.4,0-6.1-2.7-6.1-6.1s2.7-6.1,6.1-6.1,6.1,2.7,6.1,6.1-2.7,6.1-6.1,6.1ZM15.8,419.5c-3.4,0-6.1-2.7-6.1-6.1s2.7-6.1,6.1-6.1,6.1,2.7,6.1,6.1-2.7,6.1-6.1,6.1ZM15.8,390.1c-3.4,0-6.1-2.7-6.1-6.1s2.7-6.1,6.1-6.1,6.1,2.7,6.1,6.1-2.7,6.1-6.1,6.1ZM15.8,360.7c-3.4,0-6.1-2.7-6.1-6.1s2.7-6.1,6.1-6.1,6.1,2.7,6.1,6.1-2.7,6.1-6.1,6.1ZM15.8,331.3c-3.4,0-6.1-2.7-6.1-6.1s2.7-6.1,6.1-6.1,6.1,2.7,6.1,6.1-2.7,6.1-6.1,6.1ZM15.8,301.9c-3.4,0-6.1-2.7-6.1-6.1s2.7-6.1,6.1-6.1,6.1,2.7,6.1,6.1-2.7,6.1-6.1,6.1ZM53.7,860.4c-6.7,0-12.1-5.4-12.1-12.1s5.4-12.1,12.1-12.1,12.1,5.4,12.1,12.1-5.4,12.1-12.1,12.1ZM53.7,313.3c-6.7,0-12.1-5.4-12.1-12.1s5.4-12.1,12.1-12.1,12.1,5.4,12.1,12.1c0,6.6-5.4,12.1-12.1,12.1ZM127.6,646.5c-3.1,0-5.7-2.6-5.7-5.7s2.6-5.7,5.7-5.7,5.7,2.6,5.7,5.7-2.6,5.7-5.7,5.7ZM157,646.5c-3.1,0-5.7-2.6-5.7-5.7s2.6-5.7,5.7-5.7,5.7,2.6,5.7,5.7-2.5,5.7-5.7,5.7ZM186.2,289c6.7,0,12.1,5.4,12.1,12.1s-5.4,12.1-12.1,12.1-12.1-5.4-12.1-12.1c0-6.7,5.5-12.1,12.1-12.1ZM192.5,640.8c0,3.1-2.6,5.7-5.7,5.7s-5.7-2.6-5.7-5.7,2.6-5.7,5.7-5.7,5.7,2.5,5.7,5.7ZM188.2,860.4c-6.7,0-12.1-5.4-12.1-12.1s5.4-12.1,12.1-12.1,12.1,5.4,12.1,12.1-5.4,12.1-12.1,12.1ZM227.8,860.5c-3.4,0-6.1-2.7-6.1-6.1s2.7-6.1,6.1-6.1,6.1,2.7,6.1,6.1-2.7,6.1-6.1,6.1ZM227.8,831.1c-3.4,0-6.1-2.7-6.1-6.1s2.7-6.1,6.1-6.1,6.1,2.7,6.1,6.1-2.7,6.1-6.1,6.1ZM227.8,801.7c-3.4,0-6.1-2.7-6.1-6.1s2.7-6.1,6.1-6.1,6.1,2.7,6.1,6.1-2.7,6.1-6.1,6.1ZM227.8,772.3c-3.4,0-6.1-2.7-6.1-6.1s2.7-6.1,6.1-6.1,6.1,2.7,6.1,6.1-2.7,6.1-6.1,6.1ZM227.8,742.9c-3.4,0-6.1-2.7-6.1-6.1s2.7-6.1,6.1-6.1,6.1,2.7,6.1,6.1-2.7,6.1-6.1,6.1ZM227.8,713.5c-3.4,0-6.1-2.7-6.1-6.1s2.7-6.1,6.1-6.1,6.1,2.7,6.1,6.1-2.7,6.1-6.1,6.1ZM227.8,684.1c-3.4,0-6.1-2.7-6.1-6.1s2.7-6.1,6.1-6.1,6.1,2.7,6.1,6.1-2.7,6.1-6.1,6.1ZM227.8,654.7c-3.4,0-6.1-2.7-6.1-6.1s2.7-6.1,6.1-6.1,6.1,2.7,6.1,6.1-2.7,6.1-6.1,6.1ZM227.8,625.3c-3.4,0-6.1-2.7-6.1-6.1s2.7-6.1,6.1-6.1,6.1,2.7,6.1,6.1-2.7,6.1-6.1,6.1ZM227.8,595.9c-3.4,0-6.1-2.7-6.1-6.1s2.7-6.1,6.1-6.1,6.1,2.7,6.1,6.1-2.7,6.1-6.1,6.1ZM227.8,566.5c-3.4,0-6.1-2.7-6.1-6.1s2.7-6.1,6.1-6.1,6.1,2.7,6.1,6.1-2.7,6.1-6.1,6.1ZM227.8,537.1c-3.4,0-6.1-2.7-6.1-6.1s2.7-6.1,6.1-6.1,6.1,2.7,6.1,6.1-2.7,6.1-6.1,6.1ZM227.8,507.7c-3.4,0-6.1-2.7-6.1-6.1s2.7-6.1,6.1-6.1,6.1,2.7,6.1,6.1-2.7,6.1-6.1,6.1ZM227.8,478.3c-3.4,0-6.1-2.7-6.1-6.1s2.7-6.1,6.1-6.1,6.1,2.7,6.1,6.1-2.7,6.1-6.1,6.1ZM227.8,448.9c-3.4,0-6.1-2.7-6.1-6.1s2.7-6.1,6.1-6.1,6.1,2.7,6.1,6.1-2.7,6.1-6.1,6.1ZM227.8,419.5c-3.4,0-6.1-2.7-6.1-6.1s2.7-6.1,6.1-6.1,6.1,2.7,6.1,6.1-2.7,6.1-6.1,6.1ZM227.8,390.1c-3.4,0-6.1-2.7-6.1-6.1s2.7-6.1,6.1-6.1,6.1,2.7,6.1,6.1-2.7,6.1-6.1,6.1ZM227.8,360.7c-3.4,0-6.1-2.7-6.1-6.1s2.7-6.1,6.1-6.1,6.1,2.7,6.1,6.1-2.7,6.1-6.1,6.1ZM227.8,331.3c-3.4,0-6.1-2.7-6.1-6.1s2.7-6.1,6.1-6.1,6.1,2.7,6.1,6.1-2.7,6.1-6.1,6.1ZM227.8,301.9c-3.4,0-6.1-2.7-6.1-6.1s2.7-6.1,6.1-6.1,6.1,2.7,6.1,6.1-2.7,6.1-6.1,6.1Z"/>
        <path class="cls-23" d="M53.7,280.6c-11.3,0-20.5,9.2-20.5,20.5s9.2,20.5,20.5,20.5,20.5-9.2,20.5-20.5c.1-11.3-9.1-20.5-20.5-20.5ZM53.7,313.3c-6.7,0-12.1-5.4-12.1-12.1s5.4-12.1,12.1-12.1,12.1,5.4,12.1,12.1c0,6.7-5.4,12.1-12.1,12.1Z"/>
        <path class="cls-23" d="M186.3,280.6c-11.3,0-20.5,9.2-20.5,20.5s9.2,20.5,20.5,20.5,20.5-9.2,20.5-20.5-9.2-20.5-20.5-20.5ZM186.3,313.3c-6.7,0-12.1-5.4-12.1-12.1s5.4-12.1,12.1-12.1,12.1,5.4,12.1,12.1c0,6.7-5.4,12.1-12.1,12.1Z"/>
        <path class="cls-23" d="M53.7,827.8c-11.3,0-20.5,9.2-20.5,20.5s9.2,20.5,20.5,20.5,20.5-9.2,20.5-20.5-9.1-20.5-20.5-20.5ZM53.7,860.4c-6.7,0-12.1-5.4-12.1-12.1s5.4-12.1,12.1-12.1,12.1,5.4,12.1,12.1-5.4,12.1-12.1,12.1Z"/>
        <path class="cls-23" d="M188.3,827.8c-11.3,0-20.5,9.2-20.5,20.5s9.2,20.5,20.5,20.5,20.5-9.2,20.5-20.5-9.2-20.5-20.5-20.5ZM188.3,860.4c-6.7,0-12.1-5.4-12.1-12.1s5.4-12.1,12.1-12.1,12.1,5.4,12.1,12.1-5.4,12.1-12.1,12.1Z"/>
        <circle class="cls-15" cx="55" cy="365.9" r="10.6"/>
        <circle class="cls-36" cx="55" cy="365.9" r="5.5"/>
        <path class="cls-25" d="M17.5,345.7H.3v3.4c2.3.9,3.9,3.1,3.9,5.7s-1.6,4.8-3.9,5.7v3.4h17.2c5,0,9-4,9-9h0c0-5.2-4.1-9.2-9-9.2ZM15.9,360.8c-3.4,0-6.1-2.7-6.1-6.1s2.7-6.1,6.1-6.1,6.1,2.7,6.1,6.1-2.8,6.1-6.1,6.1Z"/>
        <path class="cls-25" d="M17.5,492.6H.3v3.4c2.3.9,3.9,3.1,3.9,5.7s-1.6,4.8-3.9,5.7v3.4h17.2c5,0,9-4,9-9s-4.1-9.2-9-9.2ZM15.9,507.7c-3.4,0-6.1-2.7-6.1-6.1s2.7-6.1,6.1-6.1,6.1,2.7,6.1,6.1-2.8,6.1-6.1,6.1Z"/>
        <path class="cls-25" d="M17.5,639.6H.3v3.4c2.3.9,3.9,3.1,3.9,5.7s-1.6,4.8-3.9,5.7v3.4h17.2c5,0,9-4,9-9s-4.1-9.2-9-9.2ZM15.9,654.7c-3.4,0-6.1-2.7-6.1-6.1s2.7-6.1,6.1-6.1,6.1,2.7,6.1,6.1-2.8,6.1-6.1,6.1Z"/>
        <path class="cls-25" d="M17.5,669H.3v3.4c2.3.9,3.9,3.1,3.9,5.7s-1.6,4.8-3.9,5.7v3.4h17.2c5,0,9-4,9-9s-4.1-9.2-9-9.2ZM15.9,684.1c-3.4,0-6.1-2.7-6.1-6.1s2.7-6.1,6.1-6.1,6.1,2.7,6.1,6.1-2.8,6.1-6.1,6.1Z"/>
        <path class="cls-25" d="M17.5,698.4H.3v3.4c2.3.9,3.9,3.1,3.9,5.7s-1.6,4.8-3.9,5.7v3.4h17.2c5,0,9-4,9-9s-4.1-9.2-9-9.2ZM15.9,713.5c-3.4,0-6.1-2.7-6.1-6.1s2.7-6.1,6.1-6.1,6.1,2.7,6.1,6.1-2.8,6.1-6.1,6.1Z"/>
        <path class="cls-25" d="M17.5,727.8H.3v3.4c2.3.9,3.9,3.1,3.9,5.7s-1.6,4.8-3.9,5.7v3.4h17.2c5,0,9-4,9-9s-4.1-9.2-9-9.2ZM15.9,742.9c-3.4,0-6.1-2.7-6.1-6.1s2.7-6.1,6.1-6.1,6.1,2.7,6.1,6.1-2.8,6.1-6.1,6.1Z"/>
        <path class="cls-25" d="M17.5,786.6H.3v3.4c2.3.9,3.9,3.1,3.9,5.7s-1.6,4.8-3.9,5.7v3.4h17.2c5,0,9-4,9-9h0c0-5.2-4.1-9.2-9-9.2ZM15.9,801.7c-3.4,0-6.1-2.7-6.1-6.1s2.7-6.1,6.1-6.1,6.1,2.7,6.1,6.1-2.8,6.1-6.1,6.1Z"/>
        <path class="cls-25" d="M17.5,816H.3v3.4c2.3.9,3.9,3.1,3.9,5.7s-1.6,4.8-3.9,5.7v3.4h17.2c5,0,9-4,9-9h0c0-5.2-4.1-9.2-9-9.2ZM15.9,831.1c-3.4,0-6.1-2.7-6.1-6.1s2.7-6.1,6.1-6.1,6.1,2.7,6.1,6.1-2.8,6.1-6.1,6.1Z"/>
        <path class="cls-25" d="M17.5,845.4H.3v3.4c2.3.9,3.9,3.1,3.9,5.7s-1.6,4.8-3.9,5.7v3.4h17.2c5,0,9-4,9-9s-4.1-9.2-9-9.2ZM15.9,860.5c-3.4,0-6.1-2.7-6.1-6.1s2.7-6.1,6.1-6.1,6.1,2.7,6.1,6.1-2.8,6.1-6.1,6.1Z"/>
        <path class="cls-25" d="M239.5,295.9c0-2.6,1.6-4.8,3.9-5.7v-3.4h-17.2c-5,0-9,4-9,9s4,9,9,9h17.2v-3.4c-2.2-.7-3.9-2.9-3.9-5.5ZM227.8,302c-3.4,0-6.1-2.7-6.1-6.1s2.7-6.1,6.1-6.1,6.1,2.7,6.1,6.1-2.7,6.1-6.1,6.1Z"/>
        <path class="cls-25" d="M239.5,325.3c0-2.6,1.6-4.8,3.9-5.7v-3.4h-17.2c-5,0-9,4-9,9h0c0,5,4,9,9,9h17.2v-3.4c-2.2-.7-3.9-2.9-3.9-5.5ZM227.8,331.4c-3.4,0-6.1-2.7-6.1-6.1s2.7-6.1,6.1-6.1,6.1,2.7,6.1,6.1-2.7,6.1-6.1,6.1Z"/>
        <path class="cls-25" d="M239.5,354.7c0-2.6,1.6-4.8,3.9-5.7v-3.4h-17.2c-5,0-9,4-9,9h0c0,5,4,9,9,9h17.2v-3.4c-2.2-.7-3.9-2.9-3.9-5.5ZM227.8,360.8c-3.4,0-6.1-2.7-6.1-6.1s2.7-6.1,6.1-6.1,6.1,2.7,6.1,6.1-2.7,6.1-6.1,6.1Z"/>
        <path class="cls-25" d="M239.5,384.1c0-2.6,1.6-4.8,3.9-5.7v-3.4h-17.2c-5,0-9,4-9,9s4,9,9,9h17.2v-3.4c-2.2-.7-3.9-2.9-3.9-5.5ZM227.8,390.2c-3.4,0-6.1-2.7-6.1-6.1s2.7-6.1,6.1-6.1,6.1,2.7,6.1,6.1-2.7,6.1-6.1,6.1Z"/>
        <path class="cls-25" d="M239.5,413.5c0-2.6,1.6-4.8,3.9-5.7v-3.4h-17.2c-5,0-9,4-9,9s4,9,9,9h17.2v-3.4c-2.2-.7-3.9-3-3.9-5.5ZM227.8,419.6c-3.4,0-6.1-2.7-6.1-6.1s2.7-6.1,6.1-6.1,6.1,2.7,6.1,6.1-2.7,6.1-6.1,6.1Z"/>
        <path class="cls-25" d="M239.5,442.9c0-2.6,1.6-4.8,3.9-5.7v-3.4h-17.2c-5,0-9,4-9,9s4,9,9,9h17.2v-3.4c-2.2-.8-3.9-3-3.9-5.5ZM227.8,448.9c-3.4,0-6.1-2.7-6.1-6.1s2.7-6.1,6.1-6.1,6.1,2.7,6.1,6.1-2.7,6.1-6.1,6.1Z"/>
        <path class="cls-25" d="M239.5,501.7c0-2.6,1.6-4.8,3.9-5.7v-3.4h-17.2c-5,0-9,4-9,9s4,9,9,9h17.2v-3.4c-2.2-.8-3.9-3-3.9-5.5ZM227.8,507.7c-3.4,0-6.1-2.7-6.1-6.1s2.7-6.1,6.1-6.1,6.1,2.7,6.1,6.1-2.7,6.1-6.1,6.1Z"/>
        <path class="cls-25" d="M239.5,560.4c0-2.6,1.6-4.8,3.9-5.7v-3.4h-17.2c-5,0-9,4-9,9h0c0,5,4,9,9,9h17.2v-3.4c-2.2-.7-3.9-2.9-3.9-5.5ZM227.8,566.5c-3.4,0-6.1-2.7-6.1-6.1s2.7-6.1,6.1-6.1,6.1,2.7,6.1,6.1-2.7,6.1-6.1,6.1Z"/>
        <path class="cls-25" d="M239.5,589.8c0-2.6,1.6-4.8,3.9-5.7v-3.4h-17.2c-5,0-9,4-9,9h0c0,5,4,9,9,9h17.2v-3.4c-2.2-.7-3.9-2.9-3.9-5.5ZM227.8,595.9c-3.4,0-6.1-2.7-6.1-6.1s2.7-6.1,6.1-6.1,6.1,2.7,6.1,6.1-2.7,6.1-6.1,6.1Z"/>
        <path class="cls-25" d="M239.5,619.2c0-2.6,1.6-4.8,3.9-5.7v-3.4h-17.2c-5,0-9,4-9,9s4,9,9,9h17.2v-3.4c-2.2-.7-3.9-2.9-3.9-5.5ZM227.8,625.3c-3.4,0-6.1-2.7-6.1-6.1s2.7-6.1,6.1-6.1,6.1,2.7,6.1,6.1-2.7,6.1-6.1,6.1Z"/>
        <path class="cls-25" d="M239.5,648.6c0-2.6,1.6-4.8,3.9-5.7v-3.4h-17.2c-5,0-9,4-9,9s4,9,9,9h17.2v-3.4c-2.2-.7-3.9-2.9-3.9-5.5ZM227.8,654.7c-3.4,0-6.1-2.7-6.1-6.1s2.7-6.1,6.1-6.1,6.1,2.7,6.1,6.1-2.7,6.1-6.1,6.1Z"/>
        <path class="cls-25" d="M239.5,678c0-2.6,1.6-4.8,3.9-5.7v-3.3h-17.2c-5,0-9,4-9,9s4,9,9,9h17.2v-3.4c-2.2-.8-3.9-3-3.9-5.6ZM227.8,684.1c-3.4,0-6.1-2.7-6.1-6.1s2.7-6.1,6.1-6.1,6.1,2.7,6.1,6.1-2.7,6.1-6.1,6.1Z"/>
        <path class="cls-25" d="M239.5,707.4c0-2.6,1.6-4.8,3.9-5.7v-3.4h-17.2c-5,0-9,4-9,9s4,9,9,9h17.2v-3.4c-2.2-.7-3.9-2.9-3.9-5.5ZM227.8,713.5c-3.4,0-6.1-2.7-6.1-6.1s2.7-6.1,6.1-6.1,6.1,2.7,6.1,6.1-2.7,6.1-6.1,6.1Z"/>
        <path class="cls-25" d="M239.5,736.8c0-2.6,1.6-4.8,3.9-5.7v-3.4h-17.2c-5,0-9,4-9,9s4,9,9,9h17.2v-3.4c-2.2-.7-3.9-2.9-3.9-5.5ZM227.8,742.9c-3.4,0-6.1-2.7-6.1-6.1s2.7-6.1,6.1-6.1,6.1,2.7,6.1,6.1-2.7,6.1-6.1,6.1Z"/>
        <path class="cls-25" d="M239.5,795.6c0-2.6,1.6-4.8,3.9-5.7v-3.4h-17.2c-5,0-9,4-9,9h0c0,5,4,9,9,9h17.2v-3.4c-2.2-.7-3.9-2.9-3.9-5.5ZM227.8,801.7c-3.4,0-6.1-2.7-6.1-6.1s2.7-6.1,6.1-6.1,6.1,2.7,6.1,6.1-2.7,6.1-6.1,6.1Z"/>
        <path class="cls-25" d="M239.5,825c0-2.6,1.6-4.8,3.9-5.7v-3.3h-17.2c-5,0-9,4-9,9h0c0,5,4,9,9,9h17.2v-3.4c-2.2-.8-3.9-3-3.9-5.6ZM227.8,831.1c-3.4,0-6.1-2.7-6.1-6.1s2.7-6.1,6.1-6.1,6.1,2.7,6.1,6.1-2.7,6.1-6.1,6.1Z"/>
        <path class="cls-21" d="M163.1,267.8l4.4-4.4-2.3-2.3-6.6,6.6h-1.5v-4.7c0-1.2-1-2.2-2.2-2.2h-69.5c-1.2,0-2.2,1-2.2,2.2v4.7h-1.5l-6.6-6.6-2.3,2.3,4.4,4.4c-.6.2-1,.8-1,1.4v56.3c0,.9.7,1.6,1.6,1.6h84.6c.9,0,1.6-.7,1.6-1.6v-56.3c0-.6-.4-1.2-.9-1.4Z"/>
        <g>
          <path class="cls-31" d="M100.3,290.1c0-3.2-2.6-5.8-5.8-5.8s-5.8,2.6-5.8,5.8.5,2.7,1.3,3.7h-.2v7.7c0,1.2,1,2.1,2.1,2.1h5.1c1.2,0,2.1-1,2.1-2.1v-7.7h0c.8-1,1.3-2.3,1.3-3.7Z"/>
          <path class="cls-31" d="M155.5,290.1c0-3.2-2.6-5.8-5.8-5.8s-5.8,2.6-5.8,5.8.5,2.7,1.3,3.7h-.2v7.7c0,1.2,1,2.1,2.1,2.1h5.1c1.2,0,2.1-1,2.1-2.1v-7.7h-.2c.9-1,1.4-2.3,1.4-3.7Z"/>
        </g>
        <path class="cls-6" d="M200.9,420.2h-21c-1.2,0-2.2-1-2.2-2.2v-26.7c0-1.2,1-2.2,2.2-2.2h21c1.2,0,2.2,1,2.2,2.2v26.7c0,1.2-1,2.2-2.2,2.2Z"/>
        <g>
          <rect class="cls-17" x="132" y="356.4" width="21.7" height="14.4"/>
          <path class="cls-18" d="M149.3,370.8c-2-1.8-3.2-4.4-3.2-7.2s1.2-5.4,3.2-7.2h-12.8c2,1.8,3.2,4.4,3.2,7.2s-1.2,5.4-3.2,7.2h12.8Z"/>
        </g>
        <g>
          <rect class="cls-17" x="132.3" y="441.7" width="21.7" height="14.4"/>
          <path class="cls-18" d="M149.6,456.2c-2-1.8-3.2-4.4-3.2-7.2s1.2-5.4,3.2-7.2h-12.8c2,1.8,3.2,4.4,3.2,7.2s-1.2,5.4-3.2,7.2h12.8Z"/>
        </g>
        <g>
          <rect class="cls-17" x="132.3" y="460.9" width="21.7" height="14.4"/>
          <path class="cls-18" d="M149.6,475.3c-2-1.8-3.2-4.4-3.2-7.2s1.2-5.4,3.2-7.2h-12.8c2,1.8,3.2,4.4,3.2,7.2s-1.2,5.4-3.2,7.2h12.8Z"/>
        </g>
        <g>
          <rect class="cls-17" x="61.3" y="511.9" width="10.6" height="5.4"/>
          <rect class="cls-18" x="63.6" y="511.9" width="6" height="5.4"/>
        </g>
        <g>
          <rect class="cls-17" x="177.1" y="491.8" width="5.4" height="10.6"/>
          <rect class="cls-18" x="177.1" y="494.1" width="5.4" height="6"/>
        </g>
        <rect class="cls-6" x="179.5" y="341.8" width="18.9" height="29.3"/>
        <g>
          <rect class="cls-17" x="171.6" y="443.1" width="20.6" height="9.6"/>
          <rect class="cls-28" x="176.2" y="443.1" width="11.5" height="9.6"/>
        </g>
        <rect class="cls-18" x="120.2" y="611.2" width="4.2" height="6.9"/>
        <rect class="cls-18" x="126.9" y="611.2" width="4.2" height="6.9"/>
        <rect class="cls-18" x="65.3" y="522.5" width="6.9" height="4.2"/>
        <rect class="cls-18" x="88.2" y="455.4" width="6.9" height="4.2"/>
        <rect class="cls-18" x="64.9" y="566.1" width="6.9" height="4.2"/>
        <rect class="cls-6" x="195" y="569.9" width="4.2" height="6.9"/>
        <rect class="cls-6" x="187.9" y="510.1" width="6.9" height="4.2"/>
        <rect class="cls-6" x="85.9" y="354.4" width="6.9" height="4.2"/>
        <rect class="cls-6" x="81" y="366.7" width="6.9" height="4.2"/>
        <rect class="cls-6" x="191.5" y="459.1" width="6.9" height="4.2"/>
        <path class="cls-27" d="M186.3,774.8H57.5c-2.1,0-3.9-1.7-3.9-3.9v-108c0-2.1,1.7-3.9,3.9-3.9h128.8c2.1,0,3.9,1.7,3.9,3.9v108.1c0,2.1-1.7,3.8-3.9,3.8Z"/>
        <rect class="cls-2" x="101.5" y="821.1" width="10.5" height="5.9"/>
        <rect class="cls-2" x="130.3" y="821.3" width="10.5" height="5.9"/>
        <rect class="cls-2" x="101.5" y="858.9" width="10.5" height="5.9"/>
        <rect class="cls-2" x="130.3" y="859" width="10.5" height="5.9"/>
        <polyline class="cls-14" points="17.5 303.6 17.5 308.1 35.4 326 35.4 374.6 51 390.2 51 525 55.9 529.9 91.2 529.9"/>
        <polyline class="cls-14" points="22.9 330.5 31 338.6 31 376.5 46.7 392.2 46.7 527.4 52.6 533.4 91 533.4"/>
        <polyline class="cls-14" points="23.2 389 43 408.7 43 529.9 53.4 540.3 95 540.3"/>
        <polyline class="cls-14" points="23.2 418.4 39.8 434.9 39.8 531.8 51.9 543.9 95.1 543.9"/>
        <polyline class="cls-14" points="23.2 448.5 35.6 460.8 35.6 536.9 49.5 550.8 93.4 550.8"/>
        <polyline class="cls-14" points="22.9 476.7 31.6 485.4 31.6 539.5 46.4 554.3 96.1 554.3"/>
        <polyline class="cls-14" points="22.9 535.3 45.3 557.7 102.7 557.7"/>
        <line class="cls-14" x1="23.7" y1="561.3" x2="98.8" y2="561.3"/>
        <path class="cls-14" d="M23.2,587.6c.1-.6,17.3-17.3,17.3-17.3h12.5l4.9,4.9h45.7"/>
        <polyline class="cls-14" points="20.4 613.5 25.7 608.2 25.7 600.4 30.9 595.2 30.9 586.8 43.9 573.7 52.6 573.7 57.3 578.4 95.3 578.4"/>
        <path class="cls-14" d="M30.7,603.7l3.4-3.4s-.7-8.9,0-9.6c.7-.7,6-6,6-6l6.3-6.3h6.1l3.7,3.7h35.1"/>
        <polyline class="cls-14" points="29.1 659.6 29.1 611.9 38.7 602.4 93.4 602.4 95 600.8 95 591.1"/>
        <polyline class="cls-14" points="17.5 757.8 17.5 754.2 32.9 738.8 32.9 658.5 35.7 655.7 35.7 613.9 42 607.6 94.2 607.6 98.4 603.4 98.4 596.1"/>
        <path class="cls-14" d="M35.7,641.4"/>
        <path class="cls-14" d="M35.7,656.7"/>
        <polyline class="cls-14" points="23.6 818.4 30.4 811.6 30.4 747.1 37.5 741.2"/>
        <polyline class="cls-14" points="35.6 751.4 42.6 744.4 42.6 654.7 39.9 652 39.9 615.2 44.6 610.5 94.9 610.5 101.9 603.5 101.9 586.9"/>
        <polyline class="cls-14" points="108.9 593.7 108.9 602.4 95.9 615.4 91.5 615.4"/>
        <polyline class="cls-14" points="93.9 624 112.4 605.5 112.4 590.1"/>
        <polyline class="cls-14" points="115.9 595.5 115.9 607.1 102.2 620.8 102.2 640.9 95.9 647.2 65 647.2 55.5 637.7"/>
        <polyline class="cls-14" points="133.9 634.5 138.7 629.7 138.7 616.4 135.5 613.2 135.5 603.2 132.4 600.1 132.4 589.1"/>
        <polyline class="cls-14" points="137.3 593.2 137.3 601.1 139.3 603.1 139.3 609.4 152.7 622.9 164.9 622.9 179.1 637.1"/>
        <polyline class="cls-14" points="145.3 591 145.3 601.4 151.3 607.4 172.3 607.4 200.5 635.7 200.5 748.3 206.7 754.5 206.7 805.3 212.3 810.9 212.3 831.1 223.3 842.1 223.3 847.5"/>
        <polyline class="cls-14" points="150.7 591.5 150.7 598.8 154.7 602.8 173.6 602.8 205.2 634.4 205.2 745.8 211.4 752 211.4 804.6 215.6 808.8 215.6 817.6"/>
        <polyline class="cls-14" points="157.5 586.3 165.3 586.3 211.1 632.1 211.1 743.8 227.2 759.9"/>
        <polyline class="cls-14" points="157.5 581.9 166.9 581.9 192.1 607.1"/>
        <polyline class="cls-14" points="158.6 576.8 166.6 576.8 190.1 600.3 195.5 600.3 206.3 611.1 206.3 618"/>
        <polyline class="cls-14" points="158.2 572.3 167.3 572.3 190.4 595.4 200.9 595.4"/>
        <polyline class="cls-14" points="158.2 568.2 169.1 568.2 174.1 573.2"/>
        <polyline class="cls-14" points="158.2 563.2 175.4 563.2 202.8 590.5 206.3 590.5 215.9 600.2 215.9 612.5"/>
        <line class="cls-14" x1="158.6" y1="557.8" x2="167.7" y2="557.8"/>
        <polyline class="cls-14" points="156.4 552.4 171.8 552.4 179.2 559.7"/>
        <polyline class="cls-14" points="187.9 572.3 192.4 567.8 192.4 548.5 203.4 548.5"/>
        <polyline class="cls-14" points="158.6 543.9 209.5 543.9 218.5 552.9"/>
        <polyline class="cls-14" points="158.2 539.5 213.8 539.5 220.3 533"/>
        <polyline class="cls-14" points="157.5 535.3 198.8 535.3 207.1 527.1 207.1 486.8 219.6 474.3"/>
        <polyline class="cls-14" points="158.6 531 179.1 531 202.4 507.8 202.4 484.9"/>
        <polyline class="cls-14" points="159.7 526.3 167.2 526.3 171.8 521.7"/>
        <path class="cls-14" d="M147.8,521c-.2-.3,9.2-9.2,9.2-9.2h15.6v-33.5l2.8-2.8v-7.7"/>
        <path class="cls-14" d="M147,518.8v-6.5l10.3-10.3"/>
        <polyline class="cls-14" points="140.1 519.7 140.1 508.9 147.4 501.6"/>
        <line class="cls-14" x1="136.6" y1="516.7" x2="136.6" y2="499.1"/>
        <path class="cls-14" d="M133.1,518.5v-15.2l-4.2-4.2"/>
        <path class="cls-14" d="M122.6,518.1v-20.7"/>
        <path class="cls-14" d="M119.2,519.7v-11.1l-7.6-7.6"/>
        <polyline class="cls-14" points="115.6 519.3 115.6 512.9 101.8 499.1 101.8 492.6 105 489.4 108.9 489.4 111.5 486.8 111.5 476.3 106.1 470.9 100 470.9"/>
        <polyline class="cls-14" points="99.8 476.7 105.4 476.7 108.5 479.7 108.5 485 105.7 487.7 101.1 487.7 97.7 491.1 97.7 500.1 108.7 511.1 108.7 517.9"/>
        <polyline class="cls-14" points="91.3 481.2 91.3 497.9 105.2 511.8 105.2 521.3"/>
        <polyline class="cls-14" points="76.5 480.4 76.5 487.5 85.9 496.9 85.9 500.8 99 513.8 99 522.9"/>
        <path class="cls-14" d="M94.8,517v-5l-11.7-11.7v-1.1l-4.5-4.5h-6.4l-1.7-1.7h-6.9l-6.7-6.7v-14.4l1.6-1.6h8.8"/>
        <polyline class="cls-14" points="69.1 464.2 60.4 464.2 55.4 469.2 55.4 487.1 63.4 495.1 69.5 495.1 75.9 501.5 78.4 501.5 92.5 515.5"/>
        <line class="cls-14" x1="73.8" y1="437.6" x2="56" y2="455.3"/>
        <polyline class="cls-14" points="137.6 498.2 137.6 492.1 134.7 489.1 134.7 486.1 130.2 481.6 125.2 481.6 121.1 477.6 121.1 458.6 109.7 447.2 109.7 365 124 350.7 124 341.6 127.7 337.9"/>
        <path class="cls-14" d="M135.3,390.8v-9l-3.1-3.1h-9.8l-4.5-4.5v-4.2"/>
        <polyline class="cls-14" points="129.3 423.2 129.3 428.6 126.1 431.8 120.2 431.8 118.6 433.3"/>
        <polyline class="cls-14" points="62.9 336.3 62.9 345.7 79.1 362 83.6 362 88.5 366.8 88.5 375 83.9 379.6 83.9 393.1"/>
        <rect class="cls-4" x="45.6" y="329.2" width="18.9" height="9.6"/>
        <g>
          <rect class="cls-12" x="102.7" y="327.1" width="4.3" height="11.5"/>
          <rect class="cls-12" x="110.4" y="327.1" width="4.3" height="11.5"/>
          <rect class="cls-12" x="118.1" y="327.1" width="4.3" height="11.5"/>
          <rect class="cls-12" x="125.7" y="327.1" width="4.3" height="11.5"/>
          <rect class="cls-12" x="133.4" y="327.1" width="4.3" height="11.5"/>
        </g>
        <g>
          <path class="cls-7" d="M106.8,347.9v-5.5h2.5v5.8c0,2,.6,2.7,1.7,2.7s1.8-.7,1.8-2.7v-5.8h2.4v5.5c0,3.5-1.4,5.1-4.2,5.1s-4.2-1.6-4.2-5.1Z"/>
          <path class="cls-7" d="M116.7,351.4l1.3-1.6c.7.6,1.7,1,2.6,1s1.4-.4,1.4-.9-.6-.8-1.5-1.2l-1.3-.6c-1.1-.4-2.1-1.3-2.1-2.8s1.6-3.2,3.8-3.2,2.5.5,3.4,1.3l-1.3,1.6c-.7-.5-1.4-.8-2.1-.8s-1.3.3-1.3.8.7.8,1.6,1.2l1.3.5c1.3.5,2.1,1.4,2.1,2.8s-1.5,3.3-4,3.3c-1.5.1-2.8-.3-3.9-1.4Z"/>
          <path class="cls-7" d="M126.3,342.3h3.6c2.2,0,3.9.6,3.9,2.6s-.5,1.9-1.4,2.2h0c1.1.4,1.9,1.2,1.9,2.5,0,2.1-1.8,3.1-4.1,3.1h-3.9s0-10.4,0-10.4ZM129.8,346.5c1.1,0,1.5-.5,1.5-1.2s-.5-1.1-1.5-1.1h-1.1v2.2h1.1ZM130,350.9c1.2,0,1.8-.4,1.8-1.3s-.6-1.2-1.8-1.2h-1.2v2.5h1.2Z"/>
        </g>
        <path class="cls-32" d="M170.2,423.7h-45.7c-.5,0-1-.4-1-1v-33.5c0-.5.4-1,1-1h45.7c.5,0,1,.4,1,1v33.5c0,.6-.5,1-1,1Z"/>
        <g>
          <rect class="cls-12" x="128.6" y="384.1" width="1.4" height="4.1"/>
          <rect class="cls-12" x="134.6" y="384.1" width="1.4" height="4.1"/>
          <rect class="cls-12" x="140.6" y="384.1" width="1.4" height="4.1"/>
          <rect class="cls-12" x="146.6" y="384.1" width="1.4" height="4.1"/>
          <rect class="cls-12" x="152.6" y="384.1" width="1.4" height="4.1"/>
          <rect class="cls-12" x="158.6" y="384.1" width="1.4" height="4.1"/>
          <rect class="cls-12" x="164.6" y="384.1" width="1.4" height="4.1"/>
        </g>
        <g>
          <rect class="cls-12" x="128.6" y="423.7" width="1.4" height="4.1"/>
          <rect class="cls-12" x="134.6" y="423.7" width="1.4" height="4.1"/>
          <rect class="cls-12" x="140.6" y="423.7" width="1.4" height="4.1"/>
          <rect class="cls-12" x="146.6" y="423.7" width="1.4" height="4.1"/>
          <rect class="cls-12" x="152.6" y="423.7" width="1.4" height="4.1"/>
          <rect class="cls-12" x="158.6" y="423.7" width="1.4" height="4.1"/>
          <rect class="cls-12" x="164.6" y="423.7" width="1.4" height="4.1"/>
        </g>
        <g>
          <rect class="cls-34" x="61.4" y="392.1" width="39.3" height="48.9"/>
          <path class="cls-20" d="M81,434.8h0c-7.6,0-13.7-6.1-13.7-13.7v-9.1c0-7.6,6.1-13.7,13.7-13.7h0c7.6,0,13.7,6.1,13.7,13.7v9.1c0,7.6-6.1,13.7-13.7,13.7Z"/>
          <path class="cls-20" d="M61.4,402.4h0v-10.3h10.3c-.1,5.7-4.6,10.3-10.3,10.3Z"/>
          <path class="cls-20" d="M71.6,441h-10.2v-10.3h0c5.7,0,10.2,4.7,10.2,10.3h0Z"/>
          <path class="cls-20" d="M100.7,402.4h0c-5.7,0-10.3-4.6-10.3-10.3h10.3v10.3Z"/>
          <path class="cls-20" d="M100.7,441h-10.3c0-5.7,4.6-10.3,10.3-10.3h0s0,10.3,0,10.3Z"/>
        </g>
        <g>
          <rect class="cls-32" x="64.9" y="461.6" width="34.6" height="22.9"/>
          <g>
            <rect class="cls-12" x="60.7" y="462.7" width="4.2" height="3.4"/>
            <rect class="cls-12" x="60.7" y="468.5" width="4.2" height="3.4"/>
            <rect class="cls-12" x="60.7" y="474.2" width="4.2" height="3.4"/>
            <rect class="cls-12" x="60.7" y="480" width="4.2" height="3.4"/>
          </g>
          <g>
            <rect class="cls-12" x="99.5" y="462.7" width="4.2" height="3.4"/>
            <rect class="cls-12" x="99.5" y="468.5" width="4.2" height="3.4"/>
            <rect class="cls-12" x="99.5" y="474.2" width="4.2" height="3.4"/>
            <rect class="cls-12" x="99.5" y="480" width="4.2" height="3.4"/>
          </g>
        </g>
        <rect class="cls-6" x="135.5" y="493.1" width="4.2" height="6.9"/>
        <g>
          <path class="cls-33" d="M160.4,596.9h-79c-.7,0-1.3-.6-1.3-1.3v-79.1c0-.7.6-1.3,1.3-1.3h79.1c.7,0,1.3.6,1.3,1.3v79.1c-.1.7-.7,1.3-1.4,1.3Z"/>
          <g>
            <rect class="cls-12" x="86.2" y="513.3" width="3.1" height="1.9"/>
            <rect class="cls-12" x="89.7" y="513.3" width="3.1" height="1.9"/>
            <rect class="cls-12" x="93.2" y="513.3" width="3.1" height="1.9"/>
            <rect class="cls-12" x="96.7" y="513.3" width="3.1" height="1.9"/>
            <rect class="cls-12" x="100.2" y="513.3" width="3.1" height="1.9"/>
            <rect class="cls-12" x="103.6" y="513.3" width="3.1" height="1.9"/>
            <rect class="cls-12" x="107.1" y="513.3" width="3.1" height="1.9"/>
            <rect class="cls-12" x="114.1" y="513.3" width="3.1" height="1.9"/>
            <rect class="cls-12" x="121.1" y="513.3" width="3.1" height="1.9"/>
            <rect class="cls-12" x="128" y="513.3" width="3.1" height="1.9"/>
            <rect class="cls-12" x="138.5" y="513.3" width="3.1" height="1.9"/>
            <rect class="cls-12" x="142" y="513.3" width="3.1" height="1.9"/>
            <rect class="cls-12" x="149" y="513.3" width="3.1" height="1.9"/>
            <rect class="cls-12" x="110.6" y="513.3" width="3.1" height="1.9"/>
            <rect class="cls-12" x="117.6" y="513.3" width="3.1" height="1.9"/>
            <rect class="cls-12" x="124.6" y="513.3" width="3.1" height="1.9"/>
            <rect class="cls-12" x="131.5" y="513.3" width="3.1" height="1.9"/>
            <rect class="cls-12" x="135" y="513.3" width="3.1" height="1.9"/>
            <rect class="cls-12" x="145.5" y="513.3" width="3.1" height="1.9"/>
            <rect class="cls-12" x="152.4" y="513.3" width="3.1" height="1.9"/>
          </g>
          <g>
            <rect class="cls-12" x="86.4" y="596.9" width="3.1" height="1.9"/>
            <rect class="cls-12" x="89.9" y="596.9" width="3.1" height="1.9"/>
            <rect class="cls-12" x="93.4" y="596.9" width="3.1" height="1.9"/>
            <rect class="cls-12" x="96.9" y="596.9" width="3.1" height="1.9"/>
            <rect class="cls-12" x="100.4" y="596.9" width="3.1" height="1.9"/>
            <rect class="cls-12" x="103.8" y="596.9" width="3.1" height="1.9"/>
            <rect class="cls-12" x="107.3" y="596.9" width="3.1" height="1.9"/>
            <rect class="cls-12" x="114.3" y="596.9" width="3.1" height="1.9"/>
            <rect class="cls-12" x="121.3" y="596.9" width="3.1" height="1.9"/>
            <rect class="cls-12" x="128.2" y="596.9" width="3.1" height="1.9"/>
            <rect class="cls-12" x="138.7" y="596.9" width="3.1" height="1.9"/>
            <rect class="cls-12" x="142.2" y="596.9" width="3.1" height="1.9"/>
            <rect class="cls-12" x="149.1" y="596.9" width="3.1" height="1.9"/>
            <rect class="cls-12" x="110.8" y="596.9" width="3.1" height="1.9"/>
            <rect class="cls-12" x="117.8" y="596.9" width="3.1" height="1.9"/>
            <rect class="cls-12" x="124.7" y="596.9" width="3.1" height="1.9"/>
            <rect class="cls-12" x="131.7" y="596.9" width="3.1" height="1.9"/>
            <rect class="cls-12" x="135.2" y="596.9" width="3.1" height="1.9"/>
            <rect class="cls-12" x="145.7" y="596.9" width="3.1" height="1.9"/>
            <rect class="cls-12" x="152.6" y="596.9" width="3.1" height="1.9"/>
          </g>
          <g>
            <rect class="cls-12" x="78.2" y="587.6" width="1.9" height="3.1"/>
            <rect class="cls-12" x="78.1" y="584.1" width="1.9" height="3.1"/>
            <rect class="cls-12" x="78.1" y="580.7" width="1.9" height="3.1"/>
            <rect class="cls-12" x="78.1" y="577.2" width="1.9" height="3.1"/>
            <rect class="cls-12" x="78.1" y="573.7" width="1.9" height="3.1"/>
            <rect class="cls-12" x="78.2" y="570.2" width="1.9" height="3.1"/>
            <rect class="cls-12" x="78.2" y="566.7" width="1.9" height="3.1"/>
            <rect class="cls-12" x="78.1" y="559.7" width="1.9" height="3.1"/>
            <rect class="cls-12" x="78.1" y="552.8" width="1.9" height="3.1"/>
            <rect class="cls-12" x="78.2" y="545.8" width="1.9" height="3.1"/>
            <rect class="cls-12" x="78.1" y="535.4" width="1.9" height="3.1"/>
            <rect class="cls-12" x="78.1" y="531.9" width="1.9" height="3.1"/>
            <rect class="cls-12" x="78.1" y="524.9" width="1.9" height="3.1"/>
            <rect class="cls-12" x="78.1" y="563.2" width="1.9" height="3.1"/>
            <rect class="cls-12" x="78.1" y="556.3" width="1.9" height="3.1"/>
            <rect class="cls-12" x="78.1" y="549.3" width="1.9" height="3.1"/>
            <rect class="cls-12" x="78.2" y="542.3" width="1.9" height="3.1"/>
            <rect class="cls-12" x="78.1" y="538.8" width="1.9" height="3.1"/>
            <rect class="cls-12" x="78.1" y="528.4" width="1.9" height="3.1"/>
            <rect class="cls-12" x="78.2" y="521.4" width="1.9" height="3.1"/>
          </g>
          <g>
            <rect class="cls-12" x="161.7" y="587.6" width="1.9" height="3.1"/>
            <rect class="cls-12" x="161.7" y="584.1" width="1.9" height="3.1"/>
            <rect class="cls-12" x="161.7" y="580.7" width="1.9" height="3.1"/>
            <rect class="cls-12" x="161.7" y="577.2" width="1.9" height="3.1"/>
            <rect class="cls-12" x="161.7" y="573.7" width="1.9" height="3.1"/>
            <rect class="cls-12" x="161.8" y="570.2" width="1.9" height="3.1"/>
            <rect class="cls-12" x="161.8" y="566.7" width="1.9" height="3.1"/>
            <rect class="cls-12" x="161.7" y="559.7" width="1.9" height="3.1"/>
            <rect class="cls-12" x="161.7" y="552.8" width="1.9" height="3.1"/>
            <rect class="cls-12" x="161.8" y="545.8" width="1.9" height="3.1"/>
            <rect class="cls-12" x="161.7" y="535.3" width="1.9" height="3.1"/>
            <rect class="cls-12" x="161.7" y="531.9" width="1.9" height="3.1"/>
            <rect class="cls-12" x="161.7" y="524.9" width="1.9" height="3.1"/>
            <rect class="cls-12" x="161.7" y="563.2" width="1.9" height="3.1"/>
            <rect class="cls-12" x="161.7" y="556.3" width="1.9" height="3.1"/>
            <rect class="cls-12" x="161.7" y="549.3" width="1.9" height="3.1"/>
            <rect class="cls-12" x="161.7" y="542.3" width="1.9" height="3.1"/>
            <rect class="cls-12" x="161.7" y="538.8" width="1.9" height="3.1"/>
            <rect class="cls-12" x="161.7" y="528.4" width="1.9" height="3.1"/>
            <rect class="cls-12" x="161.8" y="521.4" width="1.9" height="3.1"/>
          </g>
          <circle class="cls-35" cx="90.2" cy="526.3" r="2.8"/>
        </g>
        <rect class="cls-32" x="187.1" y="481" width="18.2" height="8.6"/>
        <rect class="cls-12" x="189.1" y="489.6" width="2.9" height="8.7"/>
        <rect class="cls-12" x="200.9" y="489.6" width="2.9" height="8.7"/>
        <rect class="cls-12" x="194.8" y="472.3" width="2.9" height="8.7"/>
        <rect class="cls-18" x="169.2" y="520.4" width="6.9" height="4.2"/>
        <rect class="cls-6" x="189.5" y="550.2" width="4.2" height="6.9"/>
        <rect class="cls-18" x="172.3" y="569.4" width="4.2" height="6.9" transform="translate(-354 291.1) rotate(-45)"/>
        <g>
          <path class="cls-25" d="M157,631.6c-5.1,0-9.2,4.1-9.2,9.2s4.1,9.2,9.2,9.2,9.2-4.1,9.2-9.2-4.1-9.2-9.2-9.2ZM157,646.5c-3.1,0-5.7-2.6-5.7-5.7s2.6-5.7,5.7-5.7,5.7,2.6,5.7,5.7-2.5,5.7-5.7,5.7Z"/>
          <path class="cls-25" d="M118.7,631.9v17.7h17.7v-17.7h-17.7ZM127.6,646.5c-3.1,0-5.7-2.6-5.7-5.7s2.6-5.7,5.7-5.7,5.7,2.6,5.7,5.7-2.6,5.7-5.7,5.7Z"/>
          <path class="cls-25" d="M186.8,631.6c-5.1,0-9.2,4.1-9.2,9.2s4.1,9.2,9.2,9.2,9.2-4.1,9.2-9.2-4.1-9.2-9.2-9.2ZM186.8,646.5c-3.1,0-5.7-2.6-5.7-5.7s2.6-5.7,5.7-5.7,5.7,2.6,5.7,5.7-2.5,5.7-5.7,5.7Z"/>
        </g>
        <path class="cls-25" d="M17.5,610.2H.3v3.4c2.3.9,3.9,3.1,3.9,5.7s-1.6,4.8-3.9,5.7v3.4h17.2c5,0,9-4,9-9s-4.1-9.2-9-9.2ZM15.9,625.3c-3.4,0-6.1-2.7-6.1-6.1s2.7-6.1,6.1-6.1,6.1,2.7,6.1,6.1-2.8,6.1-6.1,6.1Z"/>
        <path class="cls-25" d="M17.5,580.8H.3v3.4c2.3.9,3.9,3.1,3.9,5.7s-1.6,4.8-3.9,5.7v3.4h17.2c5,0,9-4,9-9h0c0-5.1-4.1-9.2-9-9.2ZM15.9,595.9c-3.4,0-6.1-2.7-6.1-6.1s2.7-6.1,6.1-6.1,6.1,2.7,6.1,6.1-2.8,6.1-6.1,6.1Z"/>
        <path class="cls-25" d="M17.5,551.4H.3v3.4c2.3.9,3.9,3.1,3.9,5.7s-1.6,4.8-3.9,5.7v3.4h17.2c5,0,9-4,9-9h0c0-5.1-4.1-9.2-9-9.2ZM15.9,566.5c-3.4,0-6.1-2.7-6.1-6.1s2.7-6.1,6.1-6.1,6.1,2.7,6.1,6.1-2.8,6.1-6.1,6.1Z"/>
        <path class="cls-25" d="M17.5,522H.3v3.4c2.3.9,3.9,3.1,3.9,5.7s-1.6,4.8-3.9,5.7v3.4h17.2c5,0,9-4,9-9s-4.1-9.2-9-9.2ZM15.9,537.1c-3.4,0-6.1-2.7-6.1-6.1s2.7-6.1,6.1-6.1,6.1,2.7,6.1,6.1-2.8,6.1-6.1,6.1Z"/>
        <path class="cls-25" d="M17.5,463.2H.3v3.4c2.3.9,3.9,3.1,3.9,5.7s-1.6,4.8-3.9,5.7v3.4h17.2c5,0,9-4,9-9s-4.1-9.2-9-9.2ZM15.9,478.3c-3.4,0-6.1-2.7-6.1-6.1s2.7-6.1,6.1-6.1,6.1,2.7,6.1,6.1-2.8,6.1-6.1,6.1Z"/>
        <path class="cls-25" d="M17.5,433.8H.3v3.4c2.3.9,3.9,3.1,3.9,5.7s-1.6,4.8-3.9,5.7v3.4h17.2c5,0,9-4,9-9s-4.1-9.2-9-9.2ZM15.9,448.9c-3.4,0-6.1-2.7-6.1-6.1s2.7-6.1,6.1-6.1,6.1,2.7,6.1,6.1-2.8,6.1-6.1,6.1Z"/>
        <path class="cls-25" d="M17.5,404.4H.3v3.4c2.3.9,3.9,3.1,3.9,5.7s-1.6,4.8-3.9,5.7v3.4h17.2c5,0,9-4,9-9s-4.1-9.2-9-9.2ZM15.9,419.6c-3.4,0-6.1-2.7-6.1-6.1s2.7-6.1,6.1-6.1,6.1,2.7,6.1,6.1-2.8,6.1-6.1,6.1Z"/>
        <path class="cls-25" d="M17.5,375H.3v3.4c2.3.9,3.9,3.1,3.9,5.7s-1.6,4.8-3.9,5.7v3.4h17.2c5,0,9-4,9-9s-4.1-9.2-9-9.2ZM15.9,390.2c-3.4,0-6.1-2.7-6.1-6.1s2.7-6.1,6.1-6.1,6.1,2.7,6.1,6.1-2.8,6.1-6.1,6.1Z"/>
        <path class="cls-25" d="M17.5,316.3H.3v3.4c2.3.9,3.9,3.1,3.9,5.7s-1.6,4.8-3.9,5.7v3.4h17.2c5,0,9-4,9-9h0c0-5.2-4.1-9.2-9-9.2ZM15.9,331.4c-3.4,0-6.1-2.7-6.1-6.1s2.7-6.1,6.1-6.1,6.1,2.7,6.1,6.1-2.8,6.1-6.1,6.1Z"/>
        <path class="cls-25" d="M17.5,286.9H.3v3.4c2.3.9,3.9,3.1,3.9,5.7s-1.6,4.8-3.9,5.7v3.4h17.2c5,0,9-4,9-9s-4.1-9.2-9-9.2ZM15.9,302c-3.4,0-6.1-2.7-6.1-6.1s2.7-6.1,6.1-6.1,6.1,2.7,6.1,6.1-2.8,6.1-6.1,6.1Z"/>
        <path class="cls-25" d="M17.5,757.2H.3v3.4c2.3.9,3.9,3.1,3.9,5.7s-1.6,4.8-3.9,5.7v3.4h17.2c5,0,9-4,9-9s-4.1-9.2-9-9.2ZM15.9,772.3c-3.4,0-6.1-2.7-6.1-6.1s2.7-6.1,6.1-6.1,6.1,2.7,6.1,6.1-2.8,6.1-6.1,6.1Z"/>
        <path class="cls-25" d="M239.5,854.4c0-2.6,1.6-4.8,3.9-5.7v-3.4h-17.2c-5,0-9,4-9,9s4,9,9,9h17.2v-3.4c-2.2-.7-3.9-2.9-3.9-5.5ZM227.8,860.5c-3.4,0-6.1-2.7-6.1-6.1s2.7-6.1,6.1-6.1,6.1,2.7,6.1,6.1-2.7,6.1-6.1,6.1Z"/>
        <path class="cls-25" d="M239.5,766.2c0-2.6,1.6-4.8,3.9-5.7v-3.4h-17.2c-5,0-9,4-9,9s4,9,9,9h17.2v-3.4c-2.2-.7-3.9-2.9-3.9-5.5ZM227.8,772.3c-3.4,0-6.1-2.7-6.1-6.1s2.7-6.1,6.1-6.1,6.1,2.7,6.1,6.1-2.7,6.1-6.1,6.1Z"/>
        <path class="cls-25" d="M239.5,531c0-2.6,1.6-4.8,3.9-5.7v-3.3h-17.2c-5,0-9,4-9,9s4,9,9,9h17.2v-3.4c-2.2-.8-3.9-3-3.9-5.6ZM227.8,537.1c-3.4,0-6.1-2.7-6.1-6.1s2.7-6.1,6.1-6.1,6.1,2.7,6.1,6.1-2.7,6.1-6.1,6.1Z"/>
        <rect class="cls-2" x="91.4" y="623.6" width="3.7" height="6.7"/>
        <g>
          <path class="cls-38" d="M82.2,644.4h-31.8c-1.2,0-2.2-1-2.2-2.2v-23.7c0-1.2,1-2.2,2.2-2.2h31.8c1.2,0,2.2,1,2.2,2.2v23.7c0,1.3-1,2.2-2.2,2.2Z"/>
          <path class="cls-11" d="M79.9,642h-27.3c-.8,0-1.4-.6-1.4-1.4v-20.4c0-.8.6-1.4,1.4-1.4h27.3c.8,0,1.4.6,1.4,1.4v20.4c0,.8-.6,1.4-1.4,1.4Z"/>
        </g>
        <rect class="cls-2" x="91.4" y="643.5" width="3.7" height="6.7"/>
        <rect class="cls-6" x="100.1" y="629.3" width="4.2" height="6.9"/>
        <g>
          <path class="cls-7" d="M42.3,449.4v-3.6c0-2.2.6-3.9,2.6-3.9s1.9.5,2.2,1.4h0c.3-1.1,1.1-1.9,2.4-1.9,2.1,0,3.1,1.8,3.1,4.1v3.9h-10.4ZM46.4,445.9c0-1.1-.5-1.5-1.2-1.5s-1.1.5-1.1,1.5v1.1h2.2v-1.1h0ZM50.8,445.7c0-1.2-.4-1.8-1.3-1.8s-1.2.6-1.2,1.8v1.2h2.5v-1.2Z"/>
          <path class="cls-7" d="M47.4,440.2c-3.4,0-5.4-1.9-5.4-4.8s2-4.8,5.4-4.8,5.4,1.9,5.4,4.8-2,4.8-5.4,4.8ZM47.4,433.2c-2,0-3.2.8-3.2,2.2s1.2,2.2,3.2,2.2,3.3-.9,3.3-2.2-1.3-2.2-3.3-2.2Z"/>
          <path class="cls-7" d="M47.4,429.2c-3.4,0-5.4-1.9-5.4-4.8s2-4.8,5.4-4.8,5.4,1.9,5.4,4.8-2,4.8-5.4,4.8ZM47.4,422.2c-2,0-3.2.8-3.2,2.2s1.2,2.2,3.2,2.2,3.3-.9,3.3-2.2-1.3-2.2-3.3-2.2Z"/>
          <path class="cls-7" d="M44.3,416.1v2.8h-2.1v-8.1h2.1v2.8h8.3v2.5h-8.3Z"/>
          <path class="cls-7" d="M51.3,410.3l-1.6-1.3c.6-.7,1-1.7,1-2.6s-.4-1.4-.9-1.4-.8.6-1.2,1.5l-.6,1.3c-.4,1.1-1.3,2.1-2.8,2.1s-3.2-1.6-3.2-3.8.5-2.5,1.3-3.4l1.7,1.3c-.5.7-.8,1.4-.8,2.1s.3,1.3.8,1.3.8-.7,1.2-1.6l.5-1.3c.5-1.3,1.4-2.1,2.8-2.1s3.3,1.5,3.3,4c.1,1.4-.4,2.8-1.5,3.9Z"/>
          <path class="cls-7" d="M42.3,400.7v-6.6h2.1v4.1h2v-3.5h2.1v3.5h2.2v-4.3h2.1v6.8h-10.5Z"/>
          <path class="cls-7" d="M42.3,391.9v-2.5h8.3v-4h2.1v6.5h-10.4Z"/>
        </g>
        <g>
          <path class="cls-7" d="M141.4,606.6h3c3.2,0,5.3,1.6,5.3,5.2s-2.1,5.2-5.1,5.2h-3.1v-10.4h0ZM144.3,615c1.7,0,2.9-.8,2.9-3.2s-1.2-3.2-2.9-3.2h-.4v6.4h.4Z"/>
          <path class="cls-7" d="M151.6,606.6h6.6v2.1h-4.1v2h3.5v2.1h-3.5v2.2h4.3v2.1h-6.8v-10.5Z"/>
          <path class="cls-7" d="M160.4,606.6h3.6c2.2,0,3.9.6,3.9,2.6s-.5,1.9-1.4,2.2h0c1.1.4,1.9,1.2,1.9,2.5,0,2.1-1.8,3.1-4.1,3.1h-3.9v-10.4ZM164,610.7c1.1,0,1.5-.5,1.5-1.2s-.5-1.1-1.5-1.1h-1.1v2.2h1.1ZM164.2,615.1c1.2,0,1.8-.4,1.8-1.3s-.6-1.2-1.8-1.2h-1.2v2.5h1.2Z"/>
          <path class="cls-7" d="M170.1,612.1v-5.5h2.5v5.8c0,2,.6,2.7,1.7,2.7s1.8-.7,1.8-2.7v-5.8h2.4v5.5c0,3.5-1.4,5.1-4.2,5.1s-4.2-1.6-4.2-5.1Z"/>
          <path class="cls-7" d="M180.3,611.9c0-3.5,2.3-5.5,5.1-5.5s2.6.6,3.3,1.4l-1.3,1.5c-.5-.5-1.1-.7-1.9-.7-1.5,0-2.7,1.2-2.7,3.2s.9,3.3,2.9,3.3.8,0,1-.3v-1.7h-1.7v-2h3.9v4.9c-.7.7-2,1.3-3.5,1.3-2.8-.1-5.1-1.9-5.1-5.4Z"/>
        </g>
        <rect class="cls-13" x="114.2" y="628" width="86.4" height="25.6"/>
        <g>
          <path class="cls-7" d="M40.1,342.3h2.5v8.3h4v2.1h-6.5v-10.4Z"/>
          <path class="cls-7" d="M48.4,342.3h6.6v2.1h-4.1v2h3.5v2.1h-3.5v2.2h4.3v2.1h-6.8v-10.5Z"/>
          <path class="cls-7" d="M57.2,342.3h3c3.2,0,5.3,1.6,5.3,5.2s-2.1,5.2-5.1,5.2h-3.1v-10.4h-.1ZM60.1,350.8c1.7,0,2.9-.8,2.9-3.2s-1.2-3.2-2.9-3.2h-.4v6.4h.4Z"/>
        </g>
        <g>
          <rect class="cls-17" x="143.7" y="491.8" width="5.4" height="10.6"/>
          <rect class="cls-18" x="143.7" y="494.1" width="5.4" height="6"/>
        </g>
        <g>
          <rect class="cls-17" x="154.3" y="491.8" width="5.4" height="10.6"/>
          <rect class="cls-18" x="154.3" y="494.1" width="5.4" height="6"/>
        </g>
        <rect class="cls-6" x="127.1" y="493.1" width="4.2" height="6.9"/>
        <rect class="cls-6" x="67.3" y="499.6" width="6.9" height="4.2"/>
        <rect class="cls-18" x="120.5" y="493.1" width="4.2" height="6.9"/>
        <rect class="cls-18" x="110.4" y="493.1" width="4.2" height="6.9"/>
        <path class="cls-25" d="M239.5,472.3c0-2.6,1.6-4.8,3.9-5.7v-3.4h-17.2c-5,0-9,4-9,9s4,9,9,9h17.2v-3.4c-2.2-.8-3.9-3-3.9-5.5ZM227.8,478.3c-3.4,0-6.1-2.7-6.1-6.1s2.7-6.1,6.1-6.1,6.1,2.7,6.1,6.1-2.7,6.1-6.1,6.1Z"/>
        <g>
          <rect class="cls-17" x="172.6" y="461.1" width="5.6" height="11.9"/>
          <rect class="cls-28" x="172.6" y="463.8" width="5.6" height="6.6"/>
        </g>
      </g>
      <circle id="circle281" class="cls-1" cx="232.1" cy="354.8" r="11.6"/>
      <circle id="circle281-2" class="cls-16" cx="232.1" cy="413.5" r="11.6"/>
      <circle id="circle281-3" class="cls-22" cx="11.6" cy="325.4" r="11.6"/>
      <circle id="circle281-4" class="cls-10" cx="11.6" cy="296" r="11.6"/>
      <rect id="rect1278" class="cls-1" x="232.1" y="350.2" width="427.5" height="9.1"/>
      <rect id="rect1278-2" class="cls-22" x="11.6" y="320.8" width="675.3" height="9.1"/>
      <rect id="rect1278-3" class="cls-10" x="11.6" y="291.4" width="702.7" height="9.1"/>
      <rect id="rect1278-4" class="cls-16" x="232.1" y="408.9" width="400.1" height="9.1"/>
      <g id="layer1-5">
        <rect id="rect815-2" class="cls-3" x="198.9" y=".2" width="388.1" height="269"/>
        <rect id="rect821-0" class="cls-7" x="550.1" y="55.9" width="31.1" height="157.6"/>
        <path id="rect825-5" class="cls-24" d="M557.7,108.6h15.9c3.2,0,5.7,2.6,5.7,5.7h0v14.2c0,3.2-2.6,5.7-5.7,5.7h-15.9c-3.2,0-5.7-2.6-5.7-5.7v-14.2c0-3.1,2.5-5.7,5.7-5.7Z"/>
        <path id="rect872-2" class="cls-24" d="M557.7,161h15.9c3.2,0,5.7,2.6,5.7,5.7h0v14.3c0,3.2-2.6,5.7-5.7,5.7h-15.9c-3.2,0-5.7-2.6-5.7-5.7h0v-14.2c0-3.2,2.5-5.8,5.7-5.8h0Z"/>
        <path id="rect874-8" class="cls-24" d="M556.9,134.8h17.3c2.8,0,5,2.2,5,5h0v15.7c0,2.8-2.2,5-5,5h-17.3c-2.8,0-5-2.2-5-5h0v-15.7c0-2.7,2.3-5,5-5h0Z"/>
        <rect id="rect947-3" class="cls-8" x="565.8" y="120" width="55.8" height="2.8"/>
        <rect id="rect949-7" class="cls-8" x="565.8" y="146.3" width="55.8" height="2.8"/>
        <rect id="rect951-2" class="cls-8" x="565.8" y="172.4" width="55.8" height="2.8"/>
        <path id="path31-1-0" class="cls-7" d="M296.5,238.4c1.3,0,1.5,0,1.7-.2.2-.1.3-.3.4-.5.1-.3.2-.5.2-3.6v-3.3h5.8v4.1c0,4.5,0,4.9-.4,6.1-.4,1.4-1.5,2.5-3,2.7-.9.1-1.7.2-2.6.1-1.1,0-2.4,0-2.8-.1h-.7v-5.5l1.4.2h0ZM323.7,247.6c24.4,0,30.4,0,29.4.2h-.2.2q.1.2-.1.2c-.2,0-.1,0,.2.1h.5c0,.1-.5.1-.5.1-.3,0-.4,0-.4.1.1,0,.1.1.1.8s0,.7.2.8c.2,0,.1,0-.1,0s-.3.1-.3.1c0,.1-9.7.1-28.9.1h-28.8v-2.4h28.7ZM301.7,222.4h2.9v5.4h-5.8v-5.4h2.9ZM307.5,232.2c.2-1.4.5-2.7,1.1-4,.1-.3.3-.6.4-.8s.2-.3.3-.5c.3-.6.7-1.1,1.1-1.6.1,0,.1-.1.1-.1.4-.5.8-.9,1.3-1.3.6-.5,1.4-.9,2.1-1.2,1.1-.5,2.3-.7,3.5-.6.7,0,1.4.1,2,.3.4.1.9.3,1.2.4.1.1.3.1.5.2.2.1.5.3.7.4,1.7,1.4,3.1,3.1,4,5.1,1.1,2.6,1.3,5.6.4,8.3-.3.9-.6,1.7-1,2.5s-1,1.6-1.7,2.3c-1,1.3-2.5,2.3-4.1,2.7-1.2.3-2.4.4-3.6.2-1.4-.3-2.8-1-3.9-1.9-.5-.4-.9-.8-1.2-1.2-.1-.2-.3-.3-.4-.5-1.2-1.6-2.1-3.5-2.5-5.5-.3-1.1-.3-2.1-.3-3.2h0ZM313,235c.3,1.2.8,2.3,1.7,3.2.9.9,2.2,1.3,3.4.9,1.6-.8,2.7-2.3,3-4.1.2-1.2.2-2.5,0-3.7-.3-1.3-1-2.5-2-3.4-.3-.3-.7-.5-1.1-.6-.9-.2-1.9-.1-2.7.3-.8.6-1.5,1.4-1.8,2.3-.7,1.7-.8,3.4-.5,5.1h0ZM329.2,222.4h5.7v2.9c0,2.8,0,2.9.2,3.4.4,1.2,1.6,1.9,2.8,1.5h.1c.6-.2,1.1-.7,1.3-1.3l.3-.6v-6h5.8v3.4c0,3.2,0,3.5-.2,4.1-.3,1.2-.8,2.4-1.5,3.4-.1.1-.2.3-.3.5-.4.5-.9,1-1.4,1.4s-1.1.8-1.7,1c-.1,0-.5.2-.9.3-.7.2-1.4.3-2.1.2-.7.1-1.5,0-2.2-.2-.8-.2-1.6-.6-2.3-1.1-.9-.7-1.6-1.5-2.2-2.5-.8-1.2-1.3-2.7-1.4-4.1,0-2,0-4.2,0-6.3h0ZM337.3,238.5h4.7v5.5h-9.4v-5.5h4.7ZM345.3,218.2s.1-.2.1-.3q0-.3.4-.4c.2,0,8.2-.1,17.7-.1h17.4v2.4h-17.7c-9.7,0-17.7,0-17.8-.1-.1,0-.1-.2-.1-.8,0-.4,0-.7,0-.7h0ZM353.3,231.4h6v5.4h-12v-5.4h6ZM364,222.4h2.9v5.3h-5.8v-5.3h2.9ZM364,230.5h2.9v13.8h-5.8v-13.8h2.9ZM375.5,222.4h6v5.3h-12.1v-5.3h6.1ZM370.5,230.9h5.6v3.2c0,4.4-.1,4.2,2.8,4.2h1.8v5.5h-.7c-1.7.2-3.5.2-5.2.1-1.3-.1-2.4-.7-3.2-1.7-.7-1-1.1-2.2-1.2-3.4,0-1,0-7.8.1-7.9h0ZM384.9,219.8c.1-.5.4-1,.7-1.4,1-1.2,2.8-1.4,4.1-.4,0,0,.1,0,.1.1.5.3.8.8,1,1.3s.3.9.2,1.4c.1.5,0,1-.2,1.5-.5,1.1-1.5,1.8-2.6,2-1,.1-2-.3-2.6-1.1-.7-1-1-2.2-.7-3.4h0ZM385.5,222.1c.4.8,1.1,1.4,1.9,1.6.9.2,1.8-.1,2.4-.7.3-.2.5-.5.6-.9.2-.4.3-.9.3-1.3s0-.9-.3-1.3c-.1-.4-.4-.7-.7-1-.3-.2-.6-.4-.9-.5-1.4-.4-3,.3-3.4,1.8-.2.7-.2,1.5.1,2.3h0ZM387.6,218.7c.4,0,.8,0,1.3.1.5.4.7,1.1.4,1.7-.1.1-.3.3-.4.3h-.3c0,.1.3.4.3.4.2.3.4.5.5.8.1.2.2.4.3.5.2.1,0,.2-.3.2h-.3l-.5-.8c-.5-.9-.6-1-1.2-1h-.3v1.8h-.4v-4h.9ZM387.8,220.4c.6,0,.7,0,.9-.2.4-.4.2-1-.4-1.1h-1.1v1.2h.6Z"/>
        <path id="rect95-6" class="cls-24" d="M557.7,56.4h15.9c3.2,0,5.7,2.6,5.7,5.7h0v14.2c0,3.2-2.6,5.7-5.7,5.7h-15.9c-3.2,0-5.7-2.6-5.7-5.7h0v-14.2c0-3.1,2.5-5.7,5.7-5.7h0Z"/>
        <path id="rect97-3" class="cls-24" d="M556.9,82.6h17.3c2.8,0,5,2.2,5,5h0v15.7c0,2.8-2.2,5-5,5h-17.3c-2.8,0-5-2.2-5-5h0v-15.7c0-2.8,2.3-5,5-5h0Z"/>
        <rect id="rect99-1" class="cls-8" x="565.8" y="67.8" width="55.8" height="2.8"/>
        <rect id="rect101-1" class="cls-8" x="565.8" y="94.1" width="55.8" height="2.8"/>
        <circle id="path140-0" class="cls-29" cx="239.3" cy="40.5" r="32.7"/>
        <circle id="circle142-2" class="cls-29" cx="239.3" cy="228.8" r="32.7"/>
        <circle id="path152-5" class="cls-7" cx="239.3" cy="228.8" r="26.9" transform="translate(-53.4 383.4) rotate(-71.6)"/>
        <circle id="circle154-9" class="cls-7" cx="239.3" cy="40.5" r="26.9"/>
        <path id="rect68-5" class="cls-24" d="M557.7,187.1h15.9c3.2,0,5.7,2.6,5.7,5.7h0v14.2c0,3.2-2.6,5.7-5.7,5.7h-15.9c-3.2,0-5.7-2.6-5.7-5.7h0v-14.2c0-3.1,2.5-5.7,5.7-5.7h0Z"/>
        <rect id="rect70-2" class="cls-8" x="565.8" y="198.7" width="55.8" height="2.8"/>
        <rect id="rect80-7" class="cls-19" x="459.5" y="173.1" width="19.2" height="11.5"/>
        <rect id="rect82-9" class="cls-29" x="478.7" y="173.1" width="6.9" height="11.5"/>
        <rect id="rect84-6" class="cls-29" x="452.6" y="173.1" width="6.9" height="11.5"/>
        <rect id="rect105-0" class="cls-30" x="459.5" y="92.4" width="19.2" height="11.5"/>
        <rect id="rect107-1" class="cls-29" x="478.7" y="92.4" width="6.9" height="11.5"/>
        <rect id="rect109-7" class="cls-29" x="452.6" y="92.4" width="6.9" height="11.5"/>
        <rect id="rect112-2" class="cls-30" x="276.9" y="109.7" width="19.2" height="11.5"/>
        <rect id="rect114-1" class="cls-29" x="296.2" y="109.7" width="6.9" height="11.5"/>
        <rect id="rect116-2" class="cls-29" x="270" y="109.7" width="6.9" height="11.5"/>
        <rect id="rect118-1" class="cls-29" x="371.1" y="84.7" width="23.1" height="15.4"/>
        <rect id="rect122-0" class="cls-3" x="372.7" y="86.3" width="19.8" height="12.3"/>
        <rect id="rect125-0" class="cls-29" x="364.2" y="84.7" width="6.9" height="15.4"/>
        <rect id="rect128-1" class="cls-29" x="394.1" y="84.7" width="6.9" height="15.4"/>
        <rect id="rect130-6" class="cls-29" x="371.1" y="115.4" width="23.1" height="15.4"/>
        <rect id="rect132-7" class="cls-3" x="372.7" y="117.1" width="19.8" height="12.3"/>
        <rect id="rect134-9" class="cls-29" x="364.2" y="115.4" width="6.9" height="15.4"/>
        <rect id="rect136-2" class="cls-29" x="394.1" y="115.4" width="6.9" height="15.4"/>
        <rect id="rect138-1" class="cls-29" x="371.1" y="146.2" width="23.1" height="15.4"/>
        <rect id="rect140-7" class="cls-3" x="372.7" y="147.8" width="19.8" height="12.3"/>
        <rect id="rect142-9" class="cls-29" x="364.2" y="146.2" width="6.9" height="15.4"/>
        <rect id="rect144-2" class="cls-29" x="394.1" y="146.2" width="6.9" height="15.4"/>
        <rect id="rect146-9" class="cls-29" x="371.1" y="176.9" width="23.1" height="15.4"/>
        <rect id="rect148-8" class="cls-3" x="372.7" y="178.5" width="19.8" height="12.3"/>
        <rect id="rect150-4" class="cls-29" x="364.2" y="176.9" width="6.9" height="15.4"/>
        <rect id="rect152-5" class="cls-29" x="394.1" y="176.9" width="6.9" height="15.4"/>
        <rect id="rect206-7" class="cls-29" x="451.4" y="115.4" width="6.9" height="11.5"/>
        <rect id="rect208-7" class="cls-29" x="451.4" y="150" width="6.9" height="11.5"/>
        <rect id="rect210-7" class="cls-29" x="479.5" y="132.7" width="6.9" height="11.5"/>
        <rect id="rect218-6" class="cls-29" x="263.1" y="161.6" width="6.9" height="5.8"/>
        <rect id="rect220-7" class="cls-29" x="263.1" y="128.9" width="6.9" height="5.8"/>
        <rect id="rect222-8" class="cls-29" x="263.1" y="138.5" width="6.9" height="5.8"/>
        <rect id="rect224-1" class="cls-29" x="263.1" y="150" width="6.9" height="5.8"/>
        <rect id="rect226-8" class="cls-29" x="303.1" y="161.6" width="6.9" height="5.8"/>
        <rect id="rect228-0" class="cls-29" x="303.1" y="128.9" width="6.9" height="5.8"/>
        <rect id="rect230-0" class="cls-29" x="303.1" y="138.5" width="6.9" height="5.8"/>
        <rect id="rect232-1" class="cls-29" x="303.1" y="150" width="6.9" height="5.8"/>
        <rect id="rect234-0" class="cls-8" x="264.8" y="130.2" width="5.7" height="2.8"/>
        <rect id="rect236-2" class="cls-8" x="264.8" y="139.9" width="5.7" height="2.8"/>
        <rect id="rect238-3" class="cls-8" x="264.8" y="151.5" width="5.7" height="2.8"/>
        <rect id="rect240-9" class="cls-8" x="264.8" y="163.1" width="5.7" height="2.8"/>
        <rect id="rect242-0" class="cls-8" x="302.6" y="130.2" width="5.7" height="2.8"/>
        <rect id="rect244-8" class="cls-8" x="302.6" y="139.9" width="5.7" height="2.8"/>
        <rect id="rect246-5" class="cls-8" x="302.6" y="151.5" width="5.7" height="2.8"/>
        <rect id="rect248-9" class="cls-8" x="302.6" y="163.1" width="5.7" height="2.8"/>
        <path id="rect165-4" class="cls-26" d="M303.1,128.9h-33v38.4h33v-38.4Z"/>
        <rect id="rect251-7" class="cls-8" x="453.7" y="154.6" width="5.7" height="2.8"/>
        <rect id="rect253-1" class="cls-8" x="453.7" y="119.7" width="5.7" height="2.8"/>
        <rect id="rect255-5" class="cls-8" x="478.3" y="137.2" width="5.7" height="2.8"/>
        <rect id="rect204-1" class="cls-37" x="458.3" y="115.4" width="21.1" height="46.1"/>
        <circle id="path258-7" class="cls-3" cx="296.9" cy="134.7" r="3.8"/>
        <g id="text122">
          <g class="cls-9">
            <path class="cls-7" d="M305,15.5c0,.5-.1.9-.2,1.3s-.3.8-.5,1.1c-.2.3-.5.6-.8.9-.3.2-.7.5-1.1.6-.4.2-.8.3-1.3.4-.4.1-1,.1-1.5.1h-4c-.2,0-.4-.1-.5-.2-.2-.1-.2-.3-.2-.6V5.3c0-.3.1-.5.2-.6.2,0,.3-.2.5-.2h3.5c.9,0,1.7,0,2.3.3.6.2,1.1.4,1.5.8.4.3.7.7.9,1.2.2.5.3,1,.3,1.6s0,.7-.1,1-.2.6-.4.9-.4.5-.6.8c-.3.2-.6.4-.9.5.4.1.8.2,1.2.4.4.2.7.5,1,.8s.5.7.6,1.1c0,.6.1,1.1.1,1.6ZM301.9,8.6c0-.4-.1-.7-.2-1s-.3-.6-.5-.8c-.2-.2-.5-.4-.9-.5s-.8-.2-1.4-.2h-2.1v5h2.3c.5,0,1-.1,1.3-.2s.6-.3.8-.6c.2-.2.4-.5.5-.8.1-.3.2-.6.2-.9ZM302.8,15.6c0-.5-.1-.9-.2-1.2s-.4-.6-.6-.9c-.3-.2-.6-.4-1.1-.5-.4-.1-1-.2-1.6-.2h-2.4v5.4h3c.5,0,.9-.1,1.2-.2s.7-.3.9-.5c.3-.2.5-.5.6-.8.1-.3.2-.7.2-1.1Z"/>
            <path class="cls-7" d="M324.8,19.6v.2s-.1.1-.2.1-.2.1-.3.1h-1c-.1,0-.2,0-.3-.1-.1,0-.1-.1-.2-.1V6.2h0l-5.4,13.5c0,.1-.1.1-.1.1,0,0-.1.1-.2.1s-.2,0-.3.1h-.8c-.1,0-.2,0-.3-.1-.1,0-.1-.1-.2-.1s-.1-.1-.1-.1l-5.2-13.5h0v13.6s-.1.1-.2.1-.2.1-.3.1h-1c-.1,0-.2,0-.3-.1-.1,0-.1-.1-.2-.1V5.4c0-.3.1-.6.3-.7s.4-.2.6-.2h1.3c.3,0,.5,0,.7,0,.2,0,.4,0,.5.2s.3.2.4.4.2.3.3.6l4.4,11.2h.1l4.6-11.1c.1-.2.2-.4.3-.6.1-.2.2-.3.3-.4.1,0,.3-.2.4-.2.2,0,.3,0,.5,0h1.3c.1,0,.2,0,.3,0,.1,0,.2,0,.3.2.1,0,.1.2.2.3,0,0,.1.3.1.4v14h-.3Z"/>
            <path class="cls-7" d="M338.4,9c0,.8-.1,1.5-.4,2.1s-.6,1.1-1.1,1.6c-.5.4-1.1.8-1.7,1-.7.2-1.5.4-2.5.4h-1.7v5.6q0,.1-.1.2s-.1.1-.2.1-.2.1-.3.1h-1c-.1,0-.2,0-.3-.1-.1,0-.1-.1-.2-.1V5.4c0-.3.1-.5.2-.7.2,0,.4-.2.6-.2h4.3c.3,0,.7,0,1.1.2s.8.3,1.3.5c.4.3.8.6,1.1.9.3.4.5.8.7,1.3,0,.5.2,1,.2,1.6ZM336.3,9.2c0-.6-.1-1.2-.4-1.6-.2-.4-.5-.7-.9-.9s-.7-.3-1.1-.4-.7,0-1.1,0h-1.8v6.2h1.8c.6,0,1.1-.1,1.5-.2s.8-.4,1-.7c.3-.3.5-.6.6-1,.3-.4.4-.9.4-1.3Z"/>
            <path class="cls-7" d="M350.5,19v.4c0,.1,0,.2-.1.3,0,.1-.1.1-.1.2s-.1.1-.2.1h-8.8c-.1,0-.2-.1-.2-.1,0,0-.1-.2-.1-.3v-.8c0-.1,0-.2.1-.3,0-.1.1-.2.2-.3.1-.1.1-.2.2-.3l3.1-3.2c.7-.7,1.3-1.4,1.7-2,.4-.6.8-1.1,1-1.6s.4-.9.5-1.3c.1-.4.1-.8.1-1.1s-.1-.7-.2-1-.3-.6-.5-.8c-.2-.2-.5-.4-.8-.5s-.7-.2-1.1-.2-.9,0-1.3.2-.7.3-1,.4c-.3.2-.5.3-.8.4-.2,0-.4.2-.4.2h-.2c-.1,0-.1,0-.1-.2s-.1-.2-.1-.3v-.9q0,0,.1-.2c0,0,.1,0,.2-.2s.3-.2.5-.3.5-.3.9-.4.7-.3,1.2-.4.9,0,1.3,0c.7,0,1.4,0,2,.3.6.2,1,.5,1.4.9s.6.8.8,1.3.3,1,.3,1.5,0,1-.1,1.5-.3,1-.6,1.6c-.3.6-.7,1.2-1.2,1.9s-1.2,1.5-2.1,2.4l-2.4,2.5h6.7q.1,0,.2.1c.1,0,.1.1.2.2,0,.1.1.2.1.3s-.4,0-.4,0Z"/>
            <path class="cls-7" d="M363.2,16c0,.7-.1,1.3-.4,1.8-.2.5-.6,1-1,1.3s-1,.6-1.7.8-1.4.3-2.3.3-1.5-.1-2.1-.2c-.6-.2-1.2-.4-1.6-.7-.4-.3-.8-.7-1-1.2s-.3-1-.3-1.6.1-.9.2-1.3c.2-.4.4-.8.7-1.1s.7-.7,1.1-1,.9-.6,1.5-.9c-.5-.2-.9-.5-1.3-.8s-.7-.6-.9-.9c-.3-.3-.4-.7-.6-1s-.2-.8-.2-1.2.1-1,.3-1.5c.2-.5.5-.9.9-1.2.4-.3.9-.6,1.5-.8.6-.2,1.3-.3,2.1-.3s1.5,0,2,.3c.6.2,1,.4,1.4.8s.6.7.8,1.1c.2.4.3.9.3,1.4s-.1.8-.2,1.2-.3.7-.6,1.1c-.3.3-.6.6-.9.9-.4.3-.8.6-1.3.8.6.3,1.1.6,1.5.9.4.3.8.6,1.1.9.3.3.5.7.7,1.1.3.1.3.5.3,1ZM361.2,16.2c0-.4-.1-.7-.2-1s-.3-.6-.6-.8c-.3-.3-.6-.5-1-.8-.4-.2-.9-.5-1.4-.8-.5.2-.9.5-1.3.7s-.7.5-.9.8-.4.5-.5.8-.2.6-.2,1c0,.8.3,1.4.8,1.8s1.3.6,2.4.6,1.8-.2,2.3-.6c.3-.4.6-1,.6-1.7ZM360.7,8c0-.3-.1-.6-.2-.9s-.3-.5-.5-.7-.5-.3-.8-.4-.7,0-1.1,0c-.9,0-1.5.2-1.9.6s-.7.9-.7,1.6.1.6.2.9c.1.3.3.5.5.8s.5.5.9.7c.3.2.8.5,1.2.7.8-.4,1.4-.9,1.8-1.4.4-.6.6-1.2.6-1.8Z"/>
            <path class="cls-7" d="M375.8,12.2c0,1.2-.1,2.3-.3,3.2-.2,1-.5,1.8-.9,2.5s-1,1.2-1.7,1.6-1.6.6-2.6.6-1.8-.2-2.4-.5-1.2-.9-1.6-1.5c-.4-.7-.7-1.5-.9-2.5-.2-1-.3-2.1-.3-3.4s.1-2.3.3-3.2c.2-1,.5-1.8.9-2.5s1-1.2,1.7-1.6,1.6-.6,2.6-.6,1.8.2,2.5.5,1.2.9,1.6,1.5.7,1.5.9,2.5.2,2.1.2,3.4ZM373.7,12.3c0-.8,0-1.5-.1-2.1s-.1-1.2-.2-1.6c-.1-.5-.2-.9-.4-1.2-.2-.3-.4-.6-.6-.8-.2-.2-.5-.4-.8-.5s-.6,0-1,0c-.7,0-1.2.2-1.6.5s-.8.8-1,1.3c-.2.5-.4,1.2-.5,2-.1.7-.1,1.5-.1,2.4s.1,2.1.2,2.9c.1.8.3,1.5.6,2,.3.5.6.9,1,1.1s.9.3,1.5.3.8-.1,1.2-.2c.3-.1.6-.3.9-.6.2-.3.4-.6.6-1s.3-.8.4-1.2c.1-.5.2-.9.2-1.5-.4-.6-.3-1.1-.3-1.7Z"/>
          </g>
        </g>
        <g id="text126">
          <g class="cls-9">
            <path class="cls-7" d="M378.6,95.5v.2h0c0,0,0,.2-.1.2h-4.2v-.6h0c0,0,0-.2.1-.2h1.6v-5.6l-1.4.8c-.1,0-.1,0-.2,0h-.1s0,0-.1,0v-.4h0v-.2h.1c0,0,1.7-1.2,1.7-1.2h.8s.1,0,.1,0h0v6.6h1.5v.2c.2,0,.2,0,.2,0Z"/>
            <path class="cls-7" d="M384.8,92.2c0,.6,0,1.1-.1,1.5s-.2.9-.4,1.2c-.2.3-.5.6-.8.8-.3.2-.7.3-1.2.3s-.9,0-1.2-.2c-.3-.2-.6-.4-.8-.7-.2-.3-.3-.7-.4-1.2s-.1-1-.1-1.6,0-1.1.1-1.5c.1-.5.2-.9.4-1.2s.5-.6.8-.8c.3-.2.7-.3,1.2-.3s.9,0,1.2.2c.3.2.6.4.8.7.2.3.3.7.4,1.2s.1,1,.1,1.6ZM383.8,92.3v-1c0-.3-.1-.6-.1-.8-.1-.2-.1-.4-.2-.6s-.2-.3-.3-.4c-.1,0-.2-.2-.4-.2s-.3,0-.5,0c-.3,0-.6,0-.8.2-.2.2-.4.4-.5.6-.1.3-.2.6-.2.9s-.1.7-.1,1.2,0,1,.1,1.4.1.7.3.9c.1.2.3.4.5.5s.4.2.7.2.4,0,.6,0,.3-.2.4-.3c.1,0,.2-.3.3-.5s.1-.4.2-.6c0-.2.1-.5.1-.7-.1,0-.1-.3-.1-.6Z"/>
            <path class="cls-7" d="M390.4,93.8c0,.3-.1.6-.2.9s-.3.5-.5.7-.5.3-.8.4-.7.2-1.1.2-.5,0-.7,0c-.2,0-.4,0-.6,0-.2,0-.3,0-.4-.2s-.2,0-.2,0h-.1v-.2h0v-.6c0,0,.1,0,.1,0,0,0,.1,0,.2,0s.2,0,.4.2c.2,0,.4,0,.6.2s.5,0,.7,0c.3,0,.5,0,.7,0s.4-.2.5-.3c.1,0,.2-.3.3-.4s.1-.3.1-.5,0-.4-.1-.6-.2-.3-.4-.4c-.2,0-.4-.2-.6-.3-.2,0-.5,0-.8,0h-.8s-.1,0-.1,0,0,0-.1,0v-.4h0q0,0,.1-.2h.7c.2,0,.5,0,.7,0s.4-.2.5-.3c.1,0,.2-.3.3-.4s.1-.4.1-.6,0-.3-.1-.4-.1-.3-.2-.4-.2-.2-.4-.2c-.2,0-.3,0-.5,0s-.4,0-.6,0-.3,0-.5.2-.3,0-.4.2-.2,0-.2,0h-.2v-.6h0v-.2s0,0,.1,0l.2-.2c.1,0,.2,0,.4-.2.2,0,.3,0,.6-.2.2,0,.4,0,.7,0s.6,0,.9,0,.5.2.6.4c.2.2.3.4.4.6s.1.5.1.7,0,.4-.1.6-.2.4-.3.5c-.1.2-.3.3-.4.4-.2,0-.4.2-.6.2h0c.3,0,.5,0,.7.2s.4.2.5.4c.2.2.3.3.4.5.4.6.4.8.4,1Z"/>
          </g>
        </g>
        <g id="text134">
          <g class="cls-9">
            <path class="cls-7" d="M378.9,126.4v.2h0c0,0,0,.2-.1.2h-4.2v-.6h0c0,0,0-.2.1-.2h1.6v-5.6l-1.4.8c-.1,0-.1,0-.2,0h-.1s0,0-.1,0v-.4h0v-.2h.1c0,0,1.7-1.2,1.7-1.2h.8s.1,0,.1,0h0v6.6h1.5v.2c0,0,.2,0,.2,0Z"/>
            <path class="cls-7" d="M385,123.1c0,.6,0,1.1-.1,1.5s-.2.9-.4,1.2c-.2.3-.5.6-.8.8-.3.2-.7.3-1.2.3s-.9,0-1.2-.2c-.3-.2-.6-.4-.8-.7-.2-.3-.3-.7-.4-1.2s-.1-1-.1-1.6,0-1.1.1-1.5c.1-.5.2-.9.4-1.2s.5-.6.8-.8c.3-.2.7-.3,1.2-.3s.9,0,1.2.2c.3.2.6.4.8.7.2.3.3.7.4,1.2.1.4.1,1,.1,1.6ZM384,123.1v-1c0-.3-.1-.6-.1-.8-.1-.2-.1-.4-.2-.6s-.2-.3-.3-.4c-.1,0-.2-.2-.4-.2s-.3,0-.5,0c-.3,0-.6,0-.8.2-.2.2-.4.4-.5.6-.1.3-.2.6-.2.9s-.1.7-.1,1.2,0,1,.1,1.4.1.7.3.9c.1.2.3.4.5.5s.4.2.7.2.4,0,.6,0,.3-.2.4-.3c.1,0,.2-.3.3-.5s.1-.4.2-.6c0-.2.1-.5.1-.7-.1,0-.1-.3-.1-.6Z"/>
            <path class="cls-7" d="M390.6,124.7c0,.3-.1.6-.2.9s-.3.5-.5.7-.5.3-.8.4-.7.2-1.1.2-.5,0-.7,0c-.2,0-.4,0-.6,0-.2,0-.3,0-.4-.2s-.2,0-.2,0h-.1v-.2h0v-.6c0,0,.1,0,.1,0,0,0,.1,0,.2,0s.2,0,.4.2c.2,0,.4,0,.6.2s.5,0,.7,0c.3,0,.5,0,.7,0s.4-.2.5-.3c.1,0,.2-.3.3-.4s.1-.3.1-.5,0-.4-.1-.6-.2-.3-.4-.4c-.2,0-.4-.2-.6-.3-.2,0-.5,0-.8,0h-.8s-.1,0-.1,0,0,0-.1,0v-.4h0q0,0,.1-.2h.7c.2,0,.5,0,.7,0s.4-.2.5-.3c.1,0,.2-.3.3-.4s.1-.4.1-.6,0-.3-.1-.4-.1-.3-.2-.4-.2-.2-.4-.2c-.2,0-.3,0-.5,0s-.4,0-.6,0-.3,0-.5.2-.3,0-.4.2-.2,0-.2,0h-.2v-.6h0v-.2s0,0,.1,0l.2-.2c.1,0,.2,0,.4-.2.2,0,.3,0,.6-.2.2,0,.4,0,.7,0s.6,0,.9,0,.5.2.6.4c.2.2.3.4.4.6s.1.5.1.7,0,.4-.1.6-.2.4-.3.5c-.1.2-.3.3-.4.4-.2,0-.4.2-.6.2h0c.3,0,.5,0,.7.2s.4.2.5.4c.2.2.3.3.4.5.4.5.4.7.4,1Z"/>
          </g>
        </g>
        <g id="text147">
          <g class="cls-9">
            <path class="cls-7" d="M516.8,72.8c0,.7,0,1.4-.4,1.9-.3.6-.6,1-1.1,1.4s-1,.7-1.7.9-1.3.3-2.1.3-1,0-1.4,0l-1.2-.3c-.3,0-.6-.3-.9-.4-.2,0-.4-.3-.5-.3-.1,0-.2-.2-.2-.4s-.1-.3-.1-.6v-.4c0,0,0-.2.1-.3,0,0,.1,0,.1,0h.2c.1,0,.3,0,.5.2s.5.3.8.4c.3.2.7.3,1.2.4.4,0,1,.2,1.6.2s.9,0,1.2-.2c.4,0,.7-.3,1-.5s.5-.5.6-.8.2-.7.2-1.1,0-.8-.3-1.1c-.2-.3-.5-.6-.8-.8-.3-.2-.7-.4-1.1-.6-.4-.2-.8-.4-1.3-.6-.4-.2-.9-.4-1.3-.7-.4-.2-.8-.5-1.1-.9-.3-.3-.6-.7-.8-1.2-.2-.4-.3-1-.3-1.6s.1-1.2.4-1.7c.2-.5.6-.9,1-1.3.4-.3.9-.6,1.5-.8s1.2-.3,1.9-.3.7,0,1,0,.7,0,1,.2c.3,0,.6.2.8.3s.4.2.5.3,0,0,0,.2c0,0,0,0,0,.2v1c0,0,0,.2,0,.3,0,0,0,0,0,.2h0c0,0-.2,0-.4,0s-.4-.2-.7-.4c-.3,0-.6-.3-1-.4-.4,0-.8-.2-1.2-.2s-.8,0-1.1.2c-.3,0-.6.3-.8.5-.2.2-.4.4-.5.7-.1.3-.2.5-.2.8s.1.8.3,1.1c.2.3.5.6.8.8.3.2.7.5,1.1.7.4.2.8.4,1.3.6.4.2.9.4,1.3.7s.8.5,1.1.9c.3.3.6.7.8,1.2.2.3.3.9.3,1.5Z"/>
            <path class="cls-7" d="M531.5,69.2c0,1.3-.2,2.5-.5,3.5s-.8,1.8-1.5,2.5-1.5,1.1-2.4,1.5c-1,.3-2.1.5-3.4.5h-3.3c-.2,0-.4,0-.5-.2-.2,0-.2-.3-.2-.6v-13.9c0-.3,0-.5.2-.6.2,0,.3-.2.5-.2h3.5c1.3,0,2.5.2,3.4.5s1.7.8,2.3,1.5c.6.6,1.1,1.4,1.4,2.4.4.9.5,1.9.5,3.1ZM529.4,69.2c0-.8,0-1.6-.3-2.3-.2-.7-.5-1.3-1-1.9-.4-.5-1-.9-1.7-1.2s-1.5-.4-2.6-.4h-2.1v12h2.1c1,0,1.8,0,2.5-.4.7-.2,1.2-.6,1.7-1.1s.8-1.1,1-1.9.4-1.7.4-2.8Z"/>
            <path class="cls-7" d="M547.6,69.2c0,1.2,0,2.4-.4,3.4s-.7,1.9-1.3,2.6-1.3,1.2-2.2,1.6-1.9.6-3.1.6-2.2-.2-3-.5-1.5-.8-2.1-1.5-1-1.5-1.2-2.5c-.3-1-.4-2.1-.4-3.4s0-2.3.4-3.3.7-1.8,1.3-2.5c.6-.7,1.3-1.2,2.2-1.6.9-.4,1.9-.6,3.1-.6s2.1.2,3,.5c.8.3,1.5.8,2.1,1.5.6.7,1,1.5,1.3,2.4.2.9.3,2.1.3,3.3ZM545.5,69.3c0-.9,0-1.7-.2-2.4-.2-.8-.4-1.4-.8-2-.4-.6-.8-1-1.4-1.3-.6-.3-1.3-.5-2.2-.5s-1.6.2-2.2.5c-.6.3-1.1.8-1.5,1.3s-.6,1.2-.8,1.9c-.2.7-.2,1.5-.2,2.3s0,1.7.2,2.5c.2.8.4,1.4.8,2,.4.6.8,1,1.4,1.3s1.4.5,2.3.5,1.7-.2,2.3-.5,1.1-.8,1.5-1.4.6-1.2.8-2c0-.5,0-1.3,0-2.2Z"/>
          </g>
        </g>
        <g id="text151">
          <g class="cls-9">
            <path class="cls-7" d="M521.9,101.2v.5s0,0,0,.2c0,0,0,0-.2.2,0,0-.2.2-.5.4s-.6.3-.9.5c-.4.2-.8.3-1.3.4s-1,.2-1.6.2c-1,0-1.9-.2-2.7-.5s-1.5-.8-2.1-1.5c-.6-.7-1-1.5-1.3-2.4s-.5-2.1-.5-3.3.2-2.4.5-3.4.8-1.8,1.4-2.5c.6-.7,1.3-1.2,2.1-1.6s1.7-.5,2.8-.5.9,0,1.3,0c.4,0,.8.2,1.2.3s.7.3,1,.4c.3.2.5.3.6.4s.2.2.2.2c0,0,0,0,0,.2v1.1c0,0,0,.2,0,.3,0,0,0,0,0,.2s0,0-.2,0-.3,0-.5-.2c-.2-.2-.5-.3-.8-.5s-.7-.4-1.2-.5-1-.2-1.6-.2-1.3,0-1.9.4c-.6.3-1,.7-1.4,1.2s-.7,1.2-.9,1.9c-.2.8-.3,1.6-.3,2.6s0,1.8.3,2.6c.2.8.5,1.4.9,1.9s.9.9,1.5,1.1c.6.3,1.2.4,2,.4s1.2,0,1.6-.2c.5-.2.9-.3,1.2-.5s.6-.4.8-.5c.2-.2.4-.2.5-.2h.2c0,.2,0,.3,0,.4,0,0,0,0,0,.3Z"/>
            <path class="cls-7" d="M532.9,99c0,.7,0,1.4-.4,1.9-.3.6-.6,1-1.1,1.4s-1,.7-1.7.9c-.6.2-1.3.3-2.1.3s-1,0-1.4,0-.8-.2-1.2-.3c-.3,0-.6-.3-.9-.4-.2,0-.4-.3-.5-.3,0,0-.2-.2-.2-.4s0-.3,0-.6v-.4c0,0,0-.2,0-.3,0,0,0,0,0,0h.2c0,0,.3,0,.5.2s.5.3.8.4c.3.2.7.3,1.1.4s1,.2,1.6.2.9,0,1.2-.2.7-.3,1-.5.5-.5.6-.8.2-.7.2-1.1,0-.8-.3-1.1c-.2-.3-.5-.6-.8-.8-.3-.2-.7-.4-1.1-.6-.4-.2-.8-.4-1.3-.6-.4-.2-.9-.4-1.3-.7s-.8-.5-1.1-.9c-.3-.3-.6-.7-.8-1.2-.2-.4-.3-1-.3-1.6s0-1.2.4-1.7c.2-.5.6-.9,1-1.3.4-.3.9-.6,1.5-.8s1.2-.3,1.9-.3.7,0,1,0,.7,0,1,.2.6.2.8.3c.2,0,.4.2.5.3q0,0,0,.2s0,0,0,.2v1c0,0,0,.2,0,.3,0,0,0,0,0,.2h0c0,0-.2,0-.4,0s-.4-.2-.7-.4c-.3,0-.6-.3-1-.4s-.8-.2-1.2-.2-.8,0-1.1.2-.6.3-.8.5-.4.4-.5.7c0,.3-.2.5-.2.8s0,.8.3,1.1c.2.3.5.6.8.8.3.2.7.5,1.1.7s.8.4,1.3.6c.4.2.9.4,1.3.7.4.2.8.5,1.1.9.3.3.6.7.8,1.2.3.4.4.9.4,1.5Z"/>
            <path class="cls-7" d="M545.9,99c0,.5,0,.9-.2,1.3,0,.4-.3.8-.5,1.1-.2.3-.5.6-.8.9-.3.2-.7.5-1.1.6-.4.2-.8.3-1.3.4-.4,0-1,0-1.5,0h-4c-.2,0-.4,0-.5-.2-.2,0-.2-.3-.2-.6v-13.8c0-.3,0-.5.2-.6.2,0,.3-.2.5-.2h3.5c.9,0,1.7,0,2.3.3.6.2,1.1.4,1.5.8.4.3.7.7.9,1.2s.3,1,.3,1.6,0,.7,0,1-.2.6-.4.9-.4.5-.6.8c-.3.2-.6.4-.9.5.4,0,.8.2,1.2.4.4.2.7.5,1,.8s.5.7.6,1.1c0,.5,0,1,0,1.6ZM542.9,92.1c0-.4,0-.7-.2-1,0-.3-.3-.6-.5-.8-.2-.2-.5-.4-.9-.5s-.8-.2-1.4-.2h-2.1v5h2.3c.5,0,1,0,1.3-.2s.6-.3.8-.6.4-.5.5-.8c.1-.3.2-.6.2-.9ZM543.8,99.1c0-.5,0-.9-.2-1.2s-.4-.6-.6-.9c-.3-.2-.6-.4-1.1-.5s-1-.2-1.6-.2h-2.4v5.4h3c.5,0,.9,0,1.2-.2s.7-.3.9-.5c.3-.2.5-.5.6-.8s.2-.7.2-1.1Z"/>
          </g>
        </g>
        <g id="text155">
          <g class="cls-9">
            <path class="cls-7" d="M517.8,125.1c0,.7,0,1.4-.4,1.9-.3.6-.6,1-1.1,1.4s-1,.7-1.7.9-1.3.3-2.1.3-1,0-1.4-.1-.8-.2-1.2-.3c-.3-.1-.6-.3-.9-.4-.2-.1-.4-.3-.5-.3-.1-.1-.2-.2-.2-.4s-.1-.3-.1-.6v-.4c0,0,0-.2.1-.3,0,0,.1,0,.1,0h.2c.1,0,.3,0,.5.2s.5.3.8.4c.3.2.7.3,1.2.4.4,0,1,.2,1.6.2s.9,0,1.2-.2c.4,0,.7-.3,1-.5s.5-.5.6-.8.2-.7.2-1.1,0-.8-.3-1.1c-.2-.3-.5-.6-.8-.8-.3-.2-.7-.4-1.1-.6-.4-.2-.8-.4-1.3-.6-.4-.2-.9-.4-1.3-.7-.4-.2-.8-.5-1.1-.9-.3-.3-.6-.7-.8-1.2-.2-.4-.3-1-.3-1.6s.1-1.2.4-1.7.6-.9,1-1.3c.4-.3.9-.6,1.5-.8.6-.2,1.2-.3,1.9-.3s.7,0,1,0,.7,0,1,.2.6.2.8.3c.2,0,.4.2.5.3q0,0,0,.2s0,0,0,.2v1c0,0,0,.2,0,.3s0,0,0,.2h0c0,0-.2,0-.4,0s-.4-.2-.7-.4c-.3,0-.6-.3-1-.4s-.8-.2-1.2-.2-.8,0-1.1.2-.6.3-.8.5c-.2.2-.4.4-.5.7-.1.3-.2.5-.2.8s.1.8.3,1.1c.2.3.5.6.8.8.3.2.7.5,1.1.7s.8.4,1.3.6c.4.2.9.4,1.3.7s.8.5,1.1.9c.3.3.6.7.8,1.2.2.4.3.9.3,1.5Z"/>
          </g>
          <g class="cls-9">
            <path class="cls-7" d="M532.6,121.5c0,1.3-.2,2.5-.5,3.5s-.8,1.8-1.5,2.5-1.5,1.1-2.4,1.5c-1,.3-2.1.5-3.4.5h-3.3c-.2,0-.4-.1-.5-.2-.2-.1-.2-.3-.2-.6v-13.7c0-.3,0-.5.2-.6.2,0,.3-.2.5-.2h3.5c1.3,0,2.5.2,3.4.5s1.7.8,2.3,1.5,1.1,1.4,1.4,2.4c.3.7.5,1.8.5,2.9ZM530.4,121.6c0-.8,0-1.6-.3-2.3-.2-.7-.5-1.3-1-1.9-.4-.5-1-.9-1.7-1.2-.7-.3-1.5-.4-2.6-.4h-2.1v12h2.1c1,0,1.8,0,2.5-.4.7-.2,1.2-.6,1.7-1.1s.8-1.1,1-1.9.4-1.7.4-2.8Z"/>
          </g>
          <g class="cls-9">
            <path class="cls-7" d="M546.9,128.7c0,.2,0,.3,0,.4s0,.2,0,.2-.2.1-.3.1h-1.2c0,0-.3,0-.3-.1,0,0,0-.1-.2-.1,0,0,0-.1,0-.2l-1.3-3.8h-6.4l-1.3,3.7c0,.1,0,.1,0,.2s0,.1-.2.1-.2.1-.3.1h-1.1c0,0-.2-.1-.3-.1s0-.1,0-.2,0-.2,0-.4l5.2-14.3c0,0,0-.2,0-.2q0,0,.2,0c0,0,.2,0,.4,0h1.2c.2,0,.3,0,.4,0,0,0,.2,0,.2,0,0,0,0,0,0,.2l5.3,14.4ZM540.3,116.1h0l-2.7,7.7h5.4l-2.7-7.7Z"/>
          </g>
        </g>
        <g id="text159">
          <g class="cls-9">
            <path class="cls-7" d="M521.7,151.4c0,.7,0,1.4-.4,1.9-.3.6-.6,1-1.1,1.4s-1,.7-1.7.9-1.3.3-2.1.3-1,0-1.4-.1l-1.2-.3c-.3-.1-.6-.3-.9-.4-.2-.1-.4-.3-.5-.3,0-.1-.2-.2-.2-.4s0-.3,0-.6v-.4c0-.1,0-.2,0-.3,0-.1,0-.1,0-.1h.2c0,0,.3.1.5.2.2.1.5.3.8.4.3.2.7.3,1.2.4.4.1,1,.2,1.6.2s.9-.1,1.2-.2c.4-.1.7-.3,1-.5s.5-.5.6-.8.2-.7.2-1.1,0-.8-.3-1.1-.5-.6-.8-.8-.7-.4-1.1-.6c-.4-.2-.8-.4-1.3-.6-.4-.2-.9-.4-1.3-.7-.4-.2-.8-.5-1.1-.9-.3-.3-.6-.7-.8-1.2-.2-.4-.3-1-.3-1.6s0-1.2.4-1.7.6-.9,1-1.3c.4-.3.9-.6,1.5-.8s1.2-.3,1.9-.3.7,0,1,.1.7.1,1,.2c.3.1.6.2.8.3s.4.2.5.3,0,.1,0,.2c0,0,0,.1,0,.2v1c0,.1,0,.2,0,.3s0,.1,0,.2h0c0,.1-.2,0-.4,0s-.4-.2-.7-.4c-.3-.1-.6-.3-1-.4-.4-.1-.8-.2-1.2-.2s-.8.1-1.1.2c-.3.1-.6.3-.8.5s-.4.4-.5.7-.2.5-.2.8,0,.8.3,1.1.5.6.8.8.7.5,1.1.7.8.4,1.3.6c.4.2.9.4,1.3.7s.8.5,1.1.9c.3.3.6.7.8,1.2.2.4.3.9.3,1.5Z"/>
            <path class="cls-7" d="M534.9,153.6v.5s0,.1,0,.2c0,.1,0,.1-.2.2s-.2.2-.5.4-.6.3-.9.5c-.4.2-.8.3-1.3.4-.5.1-1,.2-1.6.2-1,0-1.9-.2-2.7-.5s-1.5-.8-2.1-1.5-1-1.5-1.3-2.4-.5-2.1-.5-3.3.2-2.4.5-3.4.8-1.8,1.4-2.5c.6-.7,1.3-1.2,2.1-1.6s1.8-.5,2.8-.5.9,0,1.3.1l1.2.3c.4.1.7.3,1,.4.3.2.5.3.6.4,0,.1.2.2.2.2,0,.1,0,.1,0,.2v1.1c0,.1,0,.2,0,.3,0,.1,0,.1,0,.2s0,.1-.2.1-.3-.1-.5-.2c-.2-.2-.5-.3-.8-.5s-.7-.4-1.1-.5-1-.2-1.6-.2-1.3.1-1.9.4c-.6.3-1,.7-1.4,1.2s-.7,1.2-.9,1.9c-.2.8-.3,1.6-.3,2.6s0,1.8.3,2.6.5,1.4.9,1.9.9.9,1.5,1.1c.6.3,1.2.4,2,.4s1.2-.1,1.6-.2c.5-.2.9-.3,1.2-.5s.6-.4.8-.5c.2-.2.4-.2.5-.2h.2c0,.2,0,.3,0,.4-.2,0-.2.1-.2.3Z"/>
            <path class="cls-7" d="M545.6,154.9v.4c0,.1,0,.2,0,.3,0,.1,0,.1,0,.2s0,.1-.2.1h-6.8c-.2,0-.4-.1-.5-.2-.2-.1-.2-.3-.2-.6v-14.5s0-.1.2-.1.2-.1.3-.1h1c0,0,.2,0,.3.1,0,0,0,.1.2.1v13.4h5.5q0,0,.2.1t0,.2c0,.1,0,.2,0,.3v.3Z"/>
          </g>
        </g>
        <g id="text163">
          <g class="cls-9">
            <path class="cls-7" d="M516.8,182.3c0,.1,0,.2,0,.2,0,0,0,.1-.2.1s-.2.1-.4.1h-1.4c0,0-.2,0-.2-.1q0,0-.2-.1h0c0-.1,0-.2,0-.3l-5-14.3c-.1-.2-.1-.3-.1-.4s0-.2.1-.2c.1-.1.2-.1.3-.1h1.1c.1,0,.2,0,.3.1s.1.1.2.1c0,.1.1.1.1.2l4.4,13h0l4.3-13c0-.1,0-.2,0-.2,0-.1,0-.1.2-.1s.2-.1.3-.1h1.2c0,0,.2.1.3.1s0,.1,0,.2,0,.2,0,.4l-5.1,14.4Z"/>
          </g>
          <g class="cls-9">
            <path class="cls-7" d="M534.5,180.5v.5s0,.1,0,.2c0,.1,0,.1-.2.2,0,.1-.2.2-.5.4s-.6.3-.9.5c-.4.2-.8.3-1.3.4-.5.1-1,.2-1.6.2-1,0-1.9-.2-2.7-.5s-1.5-.8-2.1-1.5-1-1.5-1.3-2.4-.5-2.1-.5-3.3.2-2.4.5-3.4.8-1.8,1.4-2.5c.6-.7,1.3-1.2,2.1-1.6s1.7-.5,2.8-.5.9,0,1.3.1l1.2.3c.4.1.7.3,1,.4.3.2.5.3.6.4,0,.1.2.2.2.2,0,.1,0,.1,0,.2v1.1c0,.1,0,.2,0,.3,0,.1,0,.1,0,.2s0,.1-.2.1-.3-.1-.5-.2c-.2-.2-.5-.3-.8-.5s-.7-.4-1.2-.5-1-.2-1.6-.2-1.3.1-1.9.4c-.6.3-1,.7-1.4,1.2s-.7,1.2-.9,1.9c-.2.8-.3,1.6-.3,2.6s0,1.8.3,2.6.5,1.4.9,1.9.9.9,1.5,1.1c.6.3,1.2.4,2,.4s1.2-.1,1.6-.2c.5-.2.9-.3,1.2-.5s.6-.4.8-.5c.2-.2.4-.2.5-.2h.2c0,.2,0,.3,0,.4,0,0,0,.1,0,.3Z"/>
            <path class="cls-7" d="M547.5,180.5v.5s0,.1,0,.2c0,.1,0,.1-.2.2s-.2.2-.5.4-.6.3-.9.5c-.4.2-.8.3-1.3.4-.5.1-1,.2-1.6.2-1,0-1.9-.2-2.7-.5s-1.5-.8-2.1-1.5-1-1.5-1.3-2.4-.5-2.1-.5-3.3.2-2.4.5-3.4.8-1.8,1.4-2.5c.6-.7,1.3-1.2,2.1-1.6s1.8-.5,2.8-.5.9,0,1.3.1l1.2.3c.4.1.7.3,1,.4.3.2.5.3.6.4,0,.1.2.2.2.2,0,.1,0,.1,0,.2v1.1c0,.1,0,.2,0,.3,0,.1,0,.1,0,.2s0,.1-.2.1-.3-.1-.5-.2c-.2-.2-.5-.3-.8-.5s-.7-.4-1.1-.5-1-.2-1.6-.2-1.3.1-1.9.4c-.6.3-1,.7-1.4,1.2s-.7,1.2-.9,1.9c-.2.8-.3,1.6-.3,2.6s0,1.8.3,2.6.5,1.4.9,1.9.9.9,1.5,1.1c.6.3,1.2.4,2,.4s1.2-.1,1.6-.2c.5-.2.9-.3,1.2-.5s.6-.4.8-.5c.2-.2.4-.2.5-.2h.2c0,.2,0,.3,0,.4-.2,0-.2.1-.2.3Z"/>
          </g>
        </g>
        <g id="text167">
          <g class="cls-9">
            <path class="cls-7" d="M517.2,194.4v.4c0,0,0,.2,0,.3,0,.1,0,.1,0,.2s0,0-.2,0-.3-.1-.5-.2c-.2-.2-.5-.3-.9-.5s-.8-.3-1.3-.5-1.1-.2-1.9-.2-1.6.2-2.3.5c-.7.3-1.2.7-1.7,1.3-.5.5-.8,1.2-1.1,2-.3.8-.4,1.6-.4,2.5s.1,1.9.4,2.6c.3.8.7,1.4,1.1,1.9.5.5,1.1.9,1.7,1.2.7.3,1.4.4,2.2.4s1-.1,1.4-.2.9-.3,1.4-.5v-4.6h-3.6c-.1,0-.2-.1-.3-.2s-.1-.3-.1-.6v-.4c0-.1,0-.2.1-.3h.1c0-.1.1-.1.2-.1h5.2c0,0,.2.1.2.1,0,0,0,.2.2.3s0,.2,0,.4v5.9c0,.2,0,.4,0,.5,0,.2-.2.3-.5.4-.2.1-.5.2-.9.4-.4.1-.7.2-1.1.3-.4.1-.8.2-1.2.2s-.8.1-1.2.1c-1.2,0-2.3-.2-3.2-.6-.9-.4-1.7-.9-2.4-1.6-.6-.7-1.1-1.5-1.5-2.5-.3-1-.5-2-.5-3.2s.2-2.3.6-3.3.9-1.8,1.6-2.5,1.5-1.2,2.4-1.6c.9-.4,2-.6,3.1-.6s1.1.1,1.7.2c.5.1,1,.2,1.4.4s.7.3,1,.5.5.3.6.4c0,.1.2.2.2.4.2,0,.2.1.2.4Z"/>
            <path class="cls-7" d="M532.7,206.9c0,.2,0,.3,0,.4,0,.1,0,.2-.2.3,0,.1-.2.1-.3.2h-1c-.2,0-.4,0-.6-.1-.2,0-.3-.1-.5-.2,0-.1-.3-.3-.4-.5,0-.2-.3-.5-.5-.8l-4.7-8.8c-.2-.5-.5-.9-.7-1.4s-.5-1-.7-1.4h0v13.1c0,.1,0,.1-.2.1s-.2.1-.3.1h-1c0,0-.2,0-.3-.1,0,0,0-.1-.2-.1v-14.4c0-.3,0-.5.3-.7.2-.1.4-.2.6-.2h1c.2,0,.4,0,.6.1.2,0,.3.1.4.2s.2.2.4.4c0,.2.2.4.4.6l3.6,6.8c.2.4.4.8.6,1.2.2.4.4.8.6,1.2.2.4.4.8.6,1.1.2.4.4.7.6,1.1h0v-12.4q0-.1,0-.2s0-.1.2-.1.2-.1.3-.1h1c0,0,.2,0,.3.1s0,.1.2.1c0,0,0,.1,0,.2v14.2h-.2Z"/>
            <path class="cls-7" d="M548.6,199.8c0,1.3-.2,2.5-.5,3.5s-.8,1.8-1.5,2.5-1.5,1.1-2.4,1.5c-1,.3-2.1.5-3.4.5h-3.3c-.2,0-.4-.1-.5-.2-.2-.1-.2-.3-.2-.6v-13.7c0-.3,0-.5.2-.6.2-.1.3-.2.5-.2h3.5c1.3,0,2.5.2,3.4.5s1.7.8,2.3,1.5c.6.6,1.1,1.4,1.4,2.4.3.7.5,1.7.5,2.9ZM546.4,199.9c0-.8,0-1.6-.3-2.3s-.5-1.3-1-1.9c-.4-.5-1-.9-1.7-1.2s-1.5-.4-2.6-.4h-2.1v12h2.1c1,0,1.8-.1,2.5-.4.7-.2,1.2-.6,1.7-1.1s.8-1.1,1-1.9.4-1.8.4-2.8Z"/>
          </g>
        </g>
        <g id="text909">
          <g class="cls-9">
            <path class="cls-7" d="M378.6,157.2v.2h0c0,.1,0,.2-.1.2h-4.2v-.6h0c0-.1,0-.2.1-.2h1.6v-5.6l-1.4.8c-.1,0-.1.1-.2.1h-.1s0-.1-.1-.1v-.4h0v-.2h.1c0-.1,1.7-1.2,1.7-1.2h.8s.1,0,.1.1h0v6.6h1.5v.2c.2,0,.2,0,.2.1Z"/>
            <path class="cls-7" d="M384.8,153.8c0,.6,0,1.1-.1,1.5s-.2.9-.4,1.2c-.2.3-.5.6-.8.8s-.7.3-1.2.3-.9-.1-1.2-.2c-.3-.2-.6-.4-.8-.7-.2-.3-.3-.7-.4-1.2s-.1-1-.1-1.6,0-1.1.1-1.5c.1-.5.2-.9.4-1.2s.5-.6.8-.8.7-.3,1.2-.3.9.1,1.2.2c.3.2.6.4.8.7.2.3.3.7.4,1.2s.1,1,.1,1.6ZM383.8,153.9v-1c0-.3-.1-.6-.1-.8-.1-.2-.1-.4-.2-.6-.1-.2-.2-.3-.3-.4-.1-.1-.2-.2-.4-.2s-.3-.1-.5-.1c-.3,0-.6.1-.8.2-.2.2-.4.4-.5.6-.1.3-.2.6-.2.9s-.1.7-.1,1.2,0,1,.1,1.4.1.7.3.9c.1.2.3.4.5.5s.4.2.7.2.4,0,.6-.1.3-.2.4-.3.2-.3.3-.5.1-.4.2-.6c0-.2.1-.5.1-.7-.1,0-.1-.3-.1-.6Z"/>
            <path class="cls-7" d="M390.4,155.4c0,.3-.1.6-.2.9-.1.3-.3.5-.5.7s-.5.3-.8.4c-.3.1-.7.2-1.1.2s-.5,0-.7-.1c-.2,0-.4-.1-.6-.1-.2-.1-.3-.1-.4-.2-.1-.1-.2-.1-.2-.1h-.1v-.2h0v-.6c0-.1.1-.1.1-.1,0,0,.1,0,.2.1s.2.1.4.2.4.1.6.2c.2.1.5.1.7.1.3,0,.5,0,.7-.1s.4-.2.5-.3.2-.3.3-.4.1-.3.1-.5,0-.4-.1-.6c-.1-.2-.2-.3-.4-.4l-.6-.3c-.2-.1-.5-.1-.8-.1h-.8s-.1,0-.1-.1,0-.1-.1-.1v-.4h0q0-.1.1-.2h.7c.2,0,.5,0,.7-.1s.4-.2.5-.3.2-.3.3-.4.1-.4.1-.6,0-.3-.1-.4-.1-.3-.2-.4c-.1-.1-.2-.2-.4-.2-.2-.1-.3-.1-.5-.1s-.4,0-.6.1-.3.1-.5.2-.3.1-.4.2c-.1.1-.2.1-.2.1h-.2v-.6h0v-.2s0-.1.1-.1c0,0,.1-.1.2-.2.1-.1.2-.1.4-.2s.3-.1.6-.2c.2,0,.4-.1.7-.1s.6,0,.9.1.5.2.6.4c.2.2.3.4.4.6.1.2.1.5.1.7s0,.4-.1.6c-.1.2-.2.4-.3.5-.1.2-.3.3-.4.4-.2.1-.4.2-.6.2h0c.3,0,.5.1.7.2s.4.2.5.4c.2.2.3.3.4.5.4.6.4.8.4,1Z"/>
          </g>
        </g>
        <g id="text913">
          <g class="cls-9">
            <path class="cls-7" d="M378.9,188v.2h0c0,.1,0,.2-.1.2h-4.2v-.6h0c0-.1,0-.2.1-.2h1.6v-5.6l-1.4.8c-.1,0-.1.1-.2.1h-.1s0-.1-.1-.1v-.4h0v-.2h.1c0-.1,1.7-1.2,1.7-1.2h.8s.1,0,.1.1h0v6.6h1.5v.2c0,0,.2,0,.2,0Z"/>
            <path class="cls-7" d="M385,184.7c0,.6,0,1.1-.1,1.5s-.2.9-.4,1.2c-.2.3-.5.6-.8.8s-.7.3-1.2.3-.9-.1-1.2-.2c-.3-.2-.6-.4-.8-.7-.2-.3-.3-.7-.4-1.2s-.1-1-.1-1.6,0-1.1.1-1.5c.1-.5.2-.9.4-1.2s.5-.6.8-.8.7-.3,1.2-.3.9.1,1.2.2c.3.2.6.4.8.7.2.3.3.7.4,1.2.1.4.1,1,.1,1.6ZM384,184.8v-1c0-.3-.1-.6-.1-.8-.1-.2-.1-.4-.2-.6-.1-.2-.2-.3-.3-.4-.1-.1-.2-.2-.4-.2s-.3-.1-.5-.1c-.3,0-.6.1-.8.2-.2.2-.4.4-.5.6-.1.3-.2.6-.2.9s-.1.7-.1,1.2,0,1,.1,1.4.1.7.3.9c.1.2.3.4.5.5s.4.2.7.2.4,0,.6-.1.3-.2.4-.3.2-.3.3-.5.1-.4.2-.6c0-.2.1-.5.1-.7-.1,0-.1-.4-.1-.6Z"/>
            <path class="cls-7" d="M390.6,186.3c0,.3-.1.6-.2.9-.1.3-.3.5-.5.7s-.5.3-.8.4c-.3.1-.7.2-1.1.2s-.5,0-.7-.1c-.2,0-.4-.1-.6-.1-.2-.1-.3-.1-.4-.2-.1-.1-.2-.1-.2-.1h-.1v-.2h0v-.6c0-.1.1-.1.1-.1,0,0,.1,0,.2.1s.2.1.4.2.4.1.6.2c.2.1.5.1.7.1.3,0,.5,0,.7-.1s.4-.2.5-.3.2-.3.3-.4.1-.3.1-.5,0-.4-.1-.6c-.1-.2-.2-.3-.4-.4l-.6-.3c-.2-.1-.5-.1-.8-.1h-.8s-.1,0-.1-.1,0-.1-.1-.1v-.4h0q0-.1.1-.2h.7c.2,0,.5,0,.7-.1s.4-.2.5-.3.2-.3.3-.4.1-.4.1-.6,0-.3-.1-.4-.1-.3-.2-.4c-.1-.1-.2-.2-.4-.2-.2-.1-.3-.1-.5-.1s-.4,0-.6.1-.3.1-.5.2-.3.1-.4.2c-.1.1-.2.1-.2.1h-.2v-.6h0v-.2s0-.1.1-.1c0,0,.1-.1.2-.2.1-.1.2-.1.4-.2s.3-.1.6-.2c.2,0,.4-.1.7-.1s.6,0,.9.1.5.2.6.4c.2.2.3.4.4.6.1.2.1.5.1.7s0,.4-.1.6c-.1.2-.2.4-.3.5-.1.2-.3.3-.4.4-.2.1-.4.2-.6.2h0c.3,0,.5.1.7.2s.4.2.5.4c.2.2.3.3.4.5.4.5.4.8.4,1Z"/>
          </g>
        </g>
      </g>
      <rect id="rect1538" class="cls-1" x="596.4" y="195.6" width="63.1" height="9.1"/>
      <rect id="rect1538-2" class="cls-10" x="705.2" y="116.9" width="9.1" height="183.6"/>
      <rect id="rect1538-3" class="cls-22" x="679" y="143.1" width="7.9" height="186.8"/>
      <rect id="rect1538-4" class="cls-1" x="650.4" y="195.6" width="9.1" height="163.7"/>
      <rect id="rect1540" class="cls-16" x="596.4" y="169.3" width="35.8" height="9.1"/>
      <rect id="rect1542" class="cls-22" x="596.4" y="143.1" width="90.5" height="9.1"/>
      <rect id="rect1544" class="cls-10" x="596.4" y="116.9" width="117.9" height="9.1"/>
      <rect id="rect1546" class="cls-16" x="596.4" y="91" width="35.8" height="9.1"/>
      <rect id="rect1548" class="cls-16" x="596.4" y="64.7" width="35.8" height="9.1"/>
      <rect id="rect1548-2" class="cls-16" x="623.1" y="64.7" width="9.1" height="353.4"/>
      <circle id="circle972" class="cls-10" cx="596.4" cy="121.5" r="9.4"/>
      <circle id="circle980" class="cls-16" cx="596.4" cy="95.4" r="9.4"/>
      <circle id="circle982" class="cls-16" cx="596.4" cy="69.2" r="9.4"/>
      <circle id="circle984" class="cls-1" cx="596.4" cy="199.9" r="9.4"/>
      <circle id="circle986" class="cls-16" cx="596.4" cy="173.8" r="9.4"/>
      <circle id="circle988" class="cls-22" cx="596.4" cy="147.7" r="9.4"/>
    </g>
  </g>
</svg>