<?xml version="1.0" encoding="UTF-8"?>
<svg xmlns="http://www.w3.org/2000/svg" version="1.1" viewBox="0 0 546.7 611.7">
  <defs>
    <style>
      .cls-1 {
        fill: #c2bfab;
      }

      .cls-2 {
        fill: #e8d28a;
      }

      .cls-3 {
        fill: #02814b;
      }

      .cls-4 {
        fill: #474544;
      }

      .cls-5 {
        fill: #fff;
      }

      .cls-6 {
        fill: #914f00;
      }

      .cls-7 {
        fill: #aba28e;
      }

      .cls-8 {
        fill: #cecece;
      }

      .cls-9 {
        stroke: #fff;
      }

      .cls-9, .cls-10 {
        fill: none;
        stroke-miterlimit: 10;
      }

      .cls-11 {
        fill: #0000df;
      }

      .cls-12 {
        fill: #525035;
      }

      .cls-13 {
        fill: #00b589;
      }

      .cls-14 {
        fill: #e30613;
      }

      .cls-15, .cls-16 {
        isolation: isolate;
      }

      .cls-17 {
        fill: #e2eade;
      }

      .cls-18 {
        fill: #c29148;
      }

      .cls-19 {
        fill: #fcfcfa;
      }

      .cls-10 {
        stroke: #95ac6e;
      }

      .cls-20 {
        fill: #ddd;
      }

      .cls-21 {
        fill: #333;
      }

      .cls-22 {
        fill: #d4c547;
      }

      .cls-23 {
        fill: #ffe17b;
      }

      .cls-24 {
        fill: #ccc;
      }

      .cls-25 {
        fill: #c1c1c1;
      }

      .cls-26 {
        fill: #8dddde;
      }

      .cls-27 {
        fill: #7f7f7f;
      }

      .cls-28 {
        fill: #36323e;
      }

      .cls-29 {
        fill: #141316;
      }

      .cls-16 {
        fill: gray;
        opacity: 1;
      }

      .cls-30 {
        fill: #868c97;
      }

      .cls-31 {
        fill: #b9a68f;
      }

      .cls-32 {
        fill: #fee86f;
      }

      .cls-33 {
        fill: #e0b45b;
      }
    </style>
  </defs>
  <!-- Generator: Adobe Illustrator 28.6.0, SVG Export Plug-In . SVG Version: 1.2.0 Build 709)  -->
  <g>
    <g id="svg4098">
      <g>
        <path class="cls-3" d="M243.3,29.7v-12H.2v11.9c2.3.9,3.9,3.1,3.9,5.7s-1.6,4.8-3.9,5.7v18c2.3.9,3.9,3.1,3.9,5.7s-1.6,4.8-3.9,5.7v18.1c2.3.9,3.9,3.1,3.9,5.7s-1.6,4.8-3.9,5.7v18.1c2.3.9,3.9,3.1,3.9,5.7s-1.6,4.8-3.9,5.7v18.1c2.3.9,3.9,3.1,3.9,5.7s-1.6,4.8-3.9,5.7v18.1c2.3.9,3.9,3.1,3.9,5.7s-1.6,4.8-3.9,5.7v17.6c2.3.9,3.9,3.1,3.9,5.7s-1.6,4.8-3.9,5.7v18.1c2.3.9,3.9,3.1,3.9,5.7s-1.6,4.8-3.9,5.7v18.1c2.3.9,3.9,3.1,3.9,5.7s-1.6,4.8-3.9,5.7v18.1c2.3.9,3.9,3.1,3.9,5.7s-1.6,4.8-3.9,5.7v18.1c2.3.9,3.9,3.1,3.9,5.7s-1.6,4.8-3.9,5.7v17.6c2.3.9,3.9,3.1,3.9,5.7s-1.6,4.8-3.9,5.7v18.1c2.3.9,3.9,3.1,3.9,5.7s-1.6,4.8-3.9,5.7v18.1c2.3.9,3.9,3.1,3.9,5.7s-1.6,4.8-3.9,5.7v18.1c2.3.9,3.9,3.1,3.9,5.7s-1.6,4.8-3.9,5.7v18.1c2.3.9,3.9,3.1,3.9,5.7s-1.6,4.8-3.9,5.7v17.6c2.3.9,3.9,3.1,3.9,5.7s-1.6,4.8-3.9,5.7v18.1c2.3.9,3.9,3.1,3.9,5.7s-1.6,4.8-3.9,5.7v18c2.3.9,3.9,3.1,3.9,5.7s-1.6,4.8-3.9,5.7v18.1c2.3.9,3.9,3.1,3.9,5.7s-1.6,4.8-3.9,5.7v11.9h243.1v-11.9c-2.2-.9-3.8-3.1-3.8-5.7s1.6-4.8,3.8-5.7v-18.1c-2.2-.9-3.8-3.1-3.8-5.7s1.6-4.8,3.8-5.7v-18.1c-2.2-.9-3.8-3.1-3.8-5.7s1.6-4.8,3.8-5.7v-18.1c-2.2-.9-3.8-3.1-3.8-5.7s1.6-4.8,3.8-5.7v-18.1c-2.2-.9-3.8-3.1-3.8-5.7s1.6-4.8,3.8-5.7v-18.1c-2.2-.9-3.8-3.1-3.8-5.7s1.6-4.8,3.8-5.7v-18.1c-2.2-.9-3.8-3.1-3.8-5.7s1.6-4.8,3.8-5.7v-18.1c-2.2-.9-3.8-3.1-3.8-5.7s1.6-4.8,3.8-5.7v-18.1c-2.2-.9-3.8-3.1-3.8-5.7s1.6-4.8,3.8-5.7v-18.1c-2.2-.9-3.8-3.1-3.8-5.7s1.6-4.8,3.8-5.7v-18.1c-2.2-.9-3.8-3.1-3.8-5.7s1.6-4.8,3.8-5.7v-18.1c-2.2-.9-3.8-3.1-3.8-5.7s1.6-4.8,3.8-5.7v-18.1c-2.2-.9-3.8-3.1-3.8-5.7s1.6-4.8,3.8-5.7v-18.1c-2.2-.9-3.8-3.1-3.8-5.7s1.6-4.8,3.8-5.7v-18.1c-2.2-.9-3.8-3.1-3.8-5.7s1.6-4.8,3.8-5.7v-18.1c-2.2-.9-3.8-3.1-3.8-5.7s1.6-4.8,3.8-5.7v-18.1c-2.2-.9-3.8-3.1-3.8-5.7s1.6-4.8,3.8-5.7v-16.6c-2.2-.9-3.8-3.1-3.8-5.7s1.6-4.8,3.8-5.7v-18c-2.2-.9-3.8-3.1-3.8-5.7s1.6-4.8,3.8-5.7v-18c-2.2-.9-3.8-3.1-3.8-5.7s1.6-4.7,3.8-5.6ZM15.8,599.9c-3.4,0-6.1-2.7-6.1-6.1s2.7-6.1,6.1-6.1,6.1,2.7,6.1,6.1-2.7,6.1-6.1,6.1ZM15.8,570.5c-3.4,0-6.1-2.7-6.1-6.1s2.7-6.1,6.1-6.1,6.1,2.7,6.1,6.1-2.7,6.1-6.1,6.1ZM15.8,541.1c-3.4,0-6.1-2.7-6.1-6.1s2.7-6.1,6.1-6.1,6.1,2.7,6.1,6.1-2.7,6.1-6.1,6.1ZM15.8,511.7c-3.4,0-6.1-2.7-6.1-6.1s2.7-6.1,6.1-6.1,6.1,2.7,6.1,6.1-2.7,6.1-6.1,6.1ZM15.8,482.3c-3.4,0-6.1-2.7-6.1-6.1s2.7-6.1,6.1-6.1,6.1,2.7,6.1,6.1-2.7,6.1-6.1,6.1ZM15.8,452.9c-3.4,0-6.1-2.7-6.1-6.1s2.7-6.1,6.1-6.1,6.1,2.7,6.1,6.1-2.7,6.1-6.1,6.1ZM15.8,423.6c-3.4,0-6.1-2.7-6.1-6.1s2.7-6.1,6.1-6.1,6.1,2.7,6.1,6.1-2.7,6.1-6.1,6.1ZM15.8,394.2c-3.4,0-6.1-2.7-6.1-6.1s2.7-6.1,6.1-6.1,6.1,2.7,6.1,6.1-2.7,6.1-6.1,6.1ZM15.8,364.8c-3.4,0-6.1-2.7-6.1-6.1s2.7-6.1,6.1-6.1,6.1,2.7,6.1,6.1-2.7,6.1-6.1,6.1ZM15.8,335.4c-3.4,0-6.1-2.7-6.1-6.1s2.7-6.1,6.1-6.1,6.1,2.7,6.1,6.1-2.7,6.1-6.1,6.1ZM15.8,306c-3.4,0-6.1-2.7-6.1-6.1s2.7-6.1,6.1-6.1,6.1,2.7,6.1,6.1-2.7,6.1-6.1,6.1ZM15.8,276.6c-3.4,0-6.1-2.7-6.1-6.1s2.7-6.1,6.1-6.1,6.1,2.7,6.1,6.1-2.7,6.1-6.1,6.1ZM15.8,247.2c-3.4,0-6.1-2.7-6.1-6.1s2.7-6.1,6.1-6.1,6.1,2.7,6.1,6.1-2.7,6.1-6.1,6.1ZM15.8,217.8c-3.4,0-6.1-2.7-6.1-6.1s2.7-6.1,6.1-6.1,6.1,2.7,6.1,6.1-2.7,6.1-6.1,6.1ZM15.8,188.4c-3.4,0-6.1-2.7-6.1-6.1s2.7-6.1,6.1-6.1,6.1,2.7,6.1,6.1-2.7,6.1-6.1,6.1ZM15.8,159c-3.4,0-6.1-2.7-6.1-6.1s2.7-6.1,6.1-6.1,6.1,2.7,6.1,6.1-2.7,6.1-6.1,6.1ZM15.8,129.6c-3.4,0-6.1-2.7-6.1-6.1s2.7-6.1,6.1-6.1,6.1,2.7,6.1,6.1-2.7,6.1-6.1,6.1ZM15.8,100.2c-3.4,0-6.1-2.7-6.1-6.1s2.7-6.1,6.1-6.1,6.1,2.7,6.1,6.1-2.7,6.1-6.1,6.1ZM15.8,70.8c-3.4,0-6.1-2.7-6.1-6.1s2.7-6.1,6.1-6.1,6.1,2.7,6.1,6.1-2.7,6.1-6.1,6.1ZM15.8,41.4c-3.4,0-6.1-2.7-6.1-6.1s2.7-6.1,6.1-6.1,6.1,2.7,6.1,6.1-2.7,6.1-6.1,6.1ZM53.7,599.9c-6.7,0-12.1-5.4-12.1-12.1s5.4-12.1,12.1-12.1,12.1,5.4,12.1,12.1-5.4,12.1-12.1,12.1ZM53.7,52.7c-6.7,0-12.1-5.4-12.1-12.1s5.4-12.1,12.1-12.1,12.1,5.4,12.1,12.1c0,6.7-5.4,12.1-12.1,12.1ZM127.6,386c-3.1,0-5.7-2.6-5.7-5.7s2.6-5.7,5.7-5.7,5.7,2.6,5.7,5.7-2.6,5.7-5.7,5.7ZM157,386c-3.1,0-5.7-2.6-5.7-5.7s2.6-5.7,5.7-5.7,5.7,2.6,5.7,5.7-2.5,5.7-5.7,5.7ZM186.2,28.5c6.7,0,12.1,5.4,12.1,12.1s-5.4,12.1-12.1,12.1-12.1-5.4-12.1-12.1c0-6.7,5.5-12.1,12.1-12.1ZM192.5,380.3c0,3.1-2.6,5.7-5.7,5.7s-5.7-2.6-5.7-5.7,2.6-5.7,5.7-5.7c3.2,0,5.7,2.5,5.7,5.7ZM188.2,599.9c-6.7,0-12.1-5.4-12.1-12.1s5.4-12.1,12.1-12.1,12.1,5.4,12.1,12.1-5.4,12.1-12.1,12.1ZM227.8,599.9c-3.4,0-6.1-2.7-6.1-6.1s2.7-6.1,6.1-6.1,6.1,2.7,6.1,6.1-2.7,6.1-6.1,6.1ZM227.8,570.5c-3.4,0-6.1-2.7-6.1-6.1s2.7-6.1,6.1-6.1,6.1,2.7,6.1,6.1-2.7,6.1-6.1,6.1ZM227.8,541.1c-3.4,0-6.1-2.7-6.1-6.1s2.7-6.1,6.1-6.1,6.1,2.7,6.1,6.1-2.7,6.1-6.1,6.1ZM227.8,511.7c-3.4,0-6.1-2.7-6.1-6.1s2.7-6.1,6.1-6.1,6.1,2.7,6.1,6.1-2.7,6.1-6.1,6.1ZM227.8,482.3c-3.4,0-6.1-2.7-6.1-6.1s2.7-6.1,6.1-6.1,6.1,2.7,6.1,6.1-2.7,6.1-6.1,6.1ZM227.8,452.9c-3.4,0-6.1-2.7-6.1-6.1s2.7-6.1,6.1-6.1,6.1,2.7,6.1,6.1-2.7,6.1-6.1,6.1ZM227.8,423.6c-3.4,0-6.1-2.7-6.1-6.1s2.7-6.1,6.1-6.1,6.1,2.7,6.1,6.1-2.7,6.1-6.1,6.1ZM227.8,394.2c-3.4,0-6.1-2.7-6.1-6.1s2.7-6.1,6.1-6.1,6.1,2.7,6.1,6.1-2.7,6.1-6.1,6.1ZM227.8,364.8c-3.4,0-6.1-2.7-6.1-6.1s2.7-6.1,6.1-6.1,6.1,2.7,6.1,6.1-2.7,6.1-6.1,6.1ZM227.8,335.4c-3.4,0-6.1-2.7-6.1-6.1s2.7-6.1,6.1-6.1,6.1,2.7,6.1,6.1-2.7,6.1-6.1,6.1ZM227.8,306c-3.4,0-6.1-2.7-6.1-6.1s2.7-6.1,6.1-6.1,6.1,2.7,6.1,6.1-2.7,6.1-6.1,6.1ZM227.8,276.6c-3.4,0-6.1-2.7-6.1-6.1s2.7-6.1,6.1-6.1,6.1,2.7,6.1,6.1-2.7,6.1-6.1,6.1ZM227.8,247.2c-3.4,0-6.1-2.7-6.1-6.1s2.7-6.1,6.1-6.1,6.1,2.7,6.1,6.1-2.7,6.1-6.1,6.1ZM227.8,217.8c-3.4,0-6.1-2.7-6.1-6.1s2.7-6.1,6.1-6.1,6.1,2.7,6.1,6.1-2.7,6.1-6.1,6.1ZM227.8,188.4c-3.4,0-6.1-2.7-6.1-6.1s2.7-6.1,6.1-6.1,6.1,2.7,6.1,6.1-2.7,6.1-6.1,6.1ZM227.8,159c-3.4,0-6.1-2.7-6.1-6.1s2.7-6.1,6.1-6.1,6.1,2.7,6.1,6.1-2.7,6.1-6.1,6.1ZM227.8,129.6c-3.4,0-6.1-2.7-6.1-6.1s2.7-6.1,6.1-6.1,6.1,2.7,6.1,6.1-2.7,6.1-6.1,6.1ZM227.8,100.2c-3.4,0-6.1-2.7-6.1-6.1s2.7-6.1,6.1-6.1,6.1,2.7,6.1,6.1-2.7,6.1-6.1,6.1ZM227.8,70.8c-3.4,0-6.1-2.7-6.1-6.1s2.7-6.1,6.1-6.1,6.1,2.7,6.1,6.1-2.7,6.1-6.1,6.1ZM227.8,41.4c-3.4,0-6.1-2.7-6.1-6.1s2.7-6.1,6.1-6.1,6.1,2.7,6.1,6.1-2.7,6.1-6.1,6.1Z"/>
        <path class="cls-22" d="M53.7,20.1c-11.3,0-20.5,9.2-20.5,20.5s9.2,20.5,20.5,20.5,20.6-9.1,20.6-20.5-9.2-20.5-20.6-20.5ZM53.7,52.8c-6.7,0-12.1-5.4-12.1-12.1s5.4-12.1,12.1-12.1,12.1,5.4,12.1,12.1c0,6.6-5.4,12.1-12.1,12.1Z"/>
        <path class="cls-22" d="M186.3,20.1c-11.3,0-20.5,9.2-20.5,20.5s9.2,20.5,20.5,20.5,20.5-9.2,20.5-20.5-9.2-20.5-20.5-20.5ZM186.3,52.8c-6.7,0-12.1-5.4-12.1-12.1s5.4-12.1,12.1-12.1,12.1,5.4,12.1,12.1c0,6.6-5.4,12.1-12.1,12.1Z"/>
        <path class="cls-22" d="M53.7,567.2c-11.3,0-20.5,9.2-20.5,20.5s9.2,20.5,20.5,20.5,20.5-9.2,20.5-20.5-9.1-20.5-20.5-20.5ZM53.7,599.9c-6.7,0-12.1-5.4-12.1-12.1s5.4-12.1,12.1-12.1,12.1,5.4,12.1,12.1-5.4,12.1-12.1,12.1Z"/>
        <path class="cls-22" d="M188.3,567.2c-11.3,0-20.5,9.2-20.5,20.5s9.2,20.5,20.5,20.5,20.5-9.2,20.5-20.5-9.2-20.5-20.5-20.5ZM188.3,599.9c-6.7,0-12.1-5.4-12.1-12.1s5.4-12.1,12.1-12.1,12.1,5.4,12.1,12.1-5.4,12.1-12.1,12.1Z"/>
        <circle class="cls-12" cx="55" cy="105.3" r="10.6"/>
        <circle class="cls-32" cx="55" cy="105.3" r="5.5"/>
        <path class="cls-23" d="M17.5,85.1H.3v3.4c2.3.9,3.9,3.1,3.9,5.7s-1.6,4.8-3.9,5.7v3.4h17.2c5,0,9-4,9-9h0c0-5.1-4.1-9.2-9-9.2ZM15.9,100.2c-3.4,0-6.1-2.7-6.1-6.1s2.7-6.1,6.1-6.1,6.1,2.7,6.1,6.1-2.8,6.1-6.1,6.1Z"/>
        <path class="cls-23" d="M17.5,232.1H.3v3.4c2.3.9,3.9,3.1,3.9,5.7s-1.6,4.8-3.9,5.7v3.4h17.2c5,0,9-4,9-9s-4.1-9.2-9-9.2ZM15.9,247.2c-3.4,0-6.1-2.7-6.1-6.1s2.7-6.1,6.1-6.1,6.1,2.7,6.1,6.1-2.8,6.1-6.1,6.1Z"/>
        <path class="cls-23" d="M17.5,379.1H.3v3.4c2.3.9,3.9,3.1,3.9,5.7s-1.6,4.8-3.9,5.7v3.4h17.2c5,0,9-4,9-9s-4.1-9.2-9-9.2ZM15.9,394.2c-3.4,0-6.1-2.7-6.1-6.1s2.7-6.1,6.1-6.1,6.1,2.7,6.1,6.1-2.8,6.1-6.1,6.1Z"/>
        <path class="cls-23" d="M17.5,408.5H.3v3.4c2.3.9,3.9,3.1,3.9,5.7s-1.6,4.8-3.9,5.7v3.4h17.2c5,0,9-4,9-9s-4.1-9.2-9-9.2ZM15.9,423.6c-3.4,0-6.1-2.7-6.1-6.1s2.7-6.1,6.1-6.1,6.1,2.7,6.1,6.1-2.8,6.1-6.1,6.1Z"/>
        <path class="cls-23" d="M17.5,437.9H.3v3.4c2.3.9,3.9,3.1,3.9,5.7s-1.6,4.8-3.9,5.7v3.4h17.2c5,0,9-4,9-9s-4.1-9.2-9-9.2ZM15.9,453c-3.4,0-6.1-2.7-6.1-6.1s2.7-6.1,6.1-6.1,6.1,2.7,6.1,6.1-2.8,6.1-6.1,6.1Z"/>
        <path class="cls-23" d="M17.5,467.3H.3v3.4c2.3.9,3.9,3.1,3.9,5.7s-1.6,4.8-3.9,5.7v3.4h17.2c5,0,9-4,9-9s-4.1-9.2-9-9.2ZM15.9,482.4c-3.4,0-6.1-2.7-6.1-6.1s2.7-6.1,6.1-6.1,6.1,2.7,6.1,6.1-2.8,6.1-6.1,6.1Z"/>
        <path class="cls-23" d="M17.5,526.1H.3v3.4c2.3.9,3.9,3.1,3.9,5.7s-1.6,4.8-3.9,5.7v3.4h17.2c5,0,9-4,9-9h0c0-5.2-4.1-9.2-9-9.2ZM15.9,541.2c-3.4,0-6.1-2.7-6.1-6.1s2.7-6.1,6.1-6.1,6.1,2.7,6.1,6.1-2.8,6.1-6.1,6.1Z"/>
        <path class="cls-23" d="M17.5,555.4H.3v3.4c2.3.9,3.9,3.1,3.9,5.7s-1.6,4.8-3.9,5.7v3.4h17.2c5,0,9-4,9-9h0c0-5.1-4.1-9.2-9-9.2ZM15.9,570.6c-3.4,0-6.1-2.7-6.1-6.1s2.7-6.1,6.1-6.1,6.1,2.7,6.1,6.1-2.8,6.1-6.1,6.1Z"/>
        <path class="cls-23" d="M17.5,584.8H.3v3.4c2.3.9,3.9,3.1,3.9,5.7s-1.6,4.8-3.9,5.7v3.4h17.2c5,0,9-4,9-9s-4.1-9.2-9-9.2ZM15.9,600c-3.4,0-6.1-2.7-6.1-6.1s2.7-6.1,6.1-6.1,6.1,2.7,6.1,6.1-2.8,6.1-6.1,6.1Z"/>
        <path class="cls-23" d="M239.5,35.3c0-2.6,1.6-4.8,3.9-5.7v-3.4h-17.2c-5,0-9,4-9,9s4,9,9,9h17.2v-3.2c-2.2-.9-3.9-3.1-3.9-5.7ZM227.8,41.4c-3.4,0-6.1-2.7-6.1-6.1s2.7-6.1,6.1-6.1,6.1,2.7,6.1,6.1-2.7,6.1-6.1,6.1Z"/>
        <path class="cls-23" d="M239.5,64.7c0-2.6,1.6-4.8,3.9-5.7v-3.4h-17.2c-5,0-9,4-9,9h0c0,5,4,9,9,9h17.2v-3.4c-2.2-.7-3.9-2.9-3.9-5.5ZM227.8,70.8c-3.4,0-6.1-2.7-6.1-6.1s2.7-6.1,6.1-6.1,6.1,2.7,6.1,6.1c0,3.4-2.7,6.1-6.1,6.1Z"/>
        <path class="cls-23" d="M239.5,94.1c0-2.6,1.6-4.8,3.9-5.7v-3.4h-17.2c-5,0-9,4-9,9h0c0,5,4,9,9,9h17.2v-3.4c-2.2-.7-3.9-2.9-3.9-5.5ZM227.8,100.2c-3.4,0-6.1-2.7-6.1-6.1s2.7-6.1,6.1-6.1,6.1,2.7,6.1,6.1-2.7,6.1-6.1,6.1Z"/>
        <path class="cls-23" d="M239.5,123.5c0-2.6,1.6-4.8,3.9-5.7v-3.4h-17.2c-5,0-9,4-9,9s4,9,9,9h17.2v-3.4c-2.2-.7-3.9-2.9-3.9-5.5ZM227.8,129.6c-3.4,0-6.1-2.7-6.1-6.1s2.7-6.1,6.1-6.1,6.1,2.7,6.1,6.1-2.7,6.1-6.1,6.1Z"/>
        <path class="cls-23" d="M239.5,152.9c0-2.6,1.6-4.8,3.9-5.7v-3.4h-17.2c-5,0-9,4-9,9s4,9,9,9h17.2v-3.4c-2.2-.7-3.9-2.9-3.9-5.5ZM227.8,159c-3.4,0-6.1-2.7-6.1-6.1s2.7-6.1,6.1-6.1,6.1,2.7,6.1,6.1-2.7,6.1-6.1,6.1Z"/>
        <path class="cls-23" d="M239.5,182.3c0-2.6,1.6-4.8,3.9-5.7v-3.4h-17.2c-5,0-9,4-9,9s4,9,9,9h17.2v-3.2c-2.2-.9-3.9-3.1-3.9-5.7ZM227.8,188.4c-3.4,0-6.1-2.7-6.1-6.1s2.7-6.1,6.1-6.1,6.1,2.7,6.1,6.1-2.7,6.1-6.1,6.1Z"/>
        <path class="cls-23" d="M239.5,241.1c0-2.6,1.6-4.8,3.9-5.7v-3.4h-17.2c-5,0-9,4-9,9s4,9,9,9h17.2v-3.4c-2.2-.7-3.9-2.9-3.9-5.5ZM227.8,247.2c-3.4,0-6.1-2.7-6.1-6.1s2.7-6.1,6.1-6.1,6.1,2.7,6.1,6.1-2.7,6.1-6.1,6.1Z"/>
        <path class="cls-23" d="M239.5,299.9c0-2.6,1.6-4.8,3.9-5.7v-3.4h-17.2c-5,0-9,4-9,9h0c0,5,4,9,9,9h17.2v-3.4c-2.2-.7-3.9-2.9-3.9-5.5ZM227.8,306c-3.4,0-6.1-2.7-6.1-6.1s2.7-6.1,6.1-6.1,6.1,2.7,6.1,6.1-2.7,6.1-6.1,6.1Z"/>
        <path class="cls-23" d="M239.5,329.3c0-2.6,1.6-4.8,3.9-5.7v-3.4h-17.2c-5,0-9,4-9,9h0c0,5,4,9,9,9h17.2v-3.2c-2.2-.9-3.9-3.1-3.9-5.7ZM227.8,335.4c-3.4,0-6.1-2.7-6.1-6.1s2.7-6.1,6.1-6.1,6.1,2.7,6.1,6.1-2.7,6.1-6.1,6.1Z"/>
        <path class="cls-23" d="M239.5,358.7c0-2.6,1.6-4.8,3.9-5.7v-3.4h-17.2c-5,0-9,4-9,9s4,9,9,9h17.2v-3.4c-2.2-.7-3.9-2.9-3.9-5.5ZM227.8,364.8c-3.4,0-6.1-2.7-6.1-6.1s2.7-6.1,6.1-6.1,6.1,2.7,6.1,6.1-2.7,6.1-6.1,6.1Z"/>
        <path class="cls-23" d="M239.5,388.1c0-2.6,1.6-4.8,3.9-5.7v-3.4h-17.2c-5,0-9,4-9,9s4,9,9,9h17.2v-3.4c-2.2-.7-3.9-2.9-3.9-5.5ZM227.8,394.2c-3.4,0-6.1-2.7-6.1-6.1s2.7-6.1,6.1-6.1,6.1,2.7,6.1,6.1-2.7,6.1-6.1,6.1Z"/>
        <path class="cls-23" d="M239.5,417.5c0-2.6,1.6-4.8,3.9-5.7v-3.4h-17.2c-5,0-9,4-9,9s4,9,9,9h17.2v-3.4c-2.2-.7-3.9-2.9-3.9-5.5ZM227.8,423.6c-3.4,0-6.1-2.7-6.1-6.1s2.7-6.1,6.1-6.1,6.1,2.7,6.1,6.1-2.7,6.1-6.1,6.1Z"/>
        <path class="cls-23" d="M239.5,446.9c0-2.6,1.6-4.8,3.9-5.7v-3.4h-17.2c-5,0-9,4-9,9s4,9,9,9h17.2v-3.4c-2.2-.7-3.9-2.9-3.9-5.5ZM227.8,453c-3.4,0-6.1-2.7-6.1-6.1s2.7-6.1,6.1-6.1,6.1,2.7,6.1,6.1-2.7,6.1-6.1,6.1Z"/>
        <path class="cls-23" d="M239.5,476.3c0-2.6,1.6-4.8,3.9-5.7v-3.4h-17.2c-5,0-9,4-9,9s4,9,9,9h17.2v-3.2c-2.2-.9-3.9-3.1-3.9-5.7ZM227.8,482.4c-3.4,0-6.1-2.7-6.1-6.1s2.7-6.1,6.1-6.1,6.1,2.7,6.1,6.1-2.7,6.1-6.1,6.1Z"/>
        <path class="cls-23" d="M239.5,535.1c0-2.6,1.6-4.8,3.9-5.7v-3.4h-17.2c-5,0-9,4-9,9h0c0,5,4,9,9,9h17.2v-3.4c-2.2-.7-3.9-2.9-3.9-5.5ZM227.8,541.2c-3.4,0-6.1-2.7-6.1-6.1s2.7-6.1,6.1-6.1,6.1,2.7,6.1,6.1-2.7,6.1-6.1,6.1Z"/>
        <path class="cls-23" d="M239.5,564.5c0-2.6,1.6-4.8,3.9-5.7v-3.4h-17.2c-5,0-9,4-9,9h0c0,5,4,9,9,9h17.2v-3.4c-2.2-.7-3.9-2.9-3.9-5.5ZM227.8,570.6c-3.4,0-6.1-2.7-6.1-6.1s2.7-6.1,6.1-6.1,6.1,2.7,6.1,6.1-2.7,6.1-6.1,6.1Z"/>
        <path class="cls-20" d="M163.1,7.2l4.4-4.4-2.3-2.3-6.6,6.6h-1.5V2.5c0-1.2-1-2.2-2.2-2.2h-69.5c-1.2,0-2.2,1-2.2,2.2v4.7h-1.5l-6.6-6.6-2.3,2.3,4.4,4.4c-.6.2-1,.8-1,1.4v56.3c0,.9.7,1.6,1.6,1.6h84.6c.9,0,1.6-.7,1.6-1.6V8.7c0-.7-.4-1.2-.9-1.5Z"/>
        <g>
          <path class="cls-27" d="M100.3,29.5c0-3.2-2.6-5.8-5.8-5.8s-5.8,2.6-5.8,5.8.5,2.7,1.3,3.7h-.2v7.8c0,1.2,1,2.1,2.1,2.1h5.1c1.2,0,2.1-1,2.1-2.1v-7.7h0c.8-1.1,1.3-2.4,1.3-3.8Z"/>
          <path class="cls-27" d="M155.5,29.5c0-3.2-2.6-5.8-5.8-5.8s-5.8,2.6-5.8,5.8.5,2.7,1.3,3.7h-.2v7.8c0,1.2,1,2.1,2.1,2.1h5.1c1.2,0,2.1-1,2.1-2.1v-7.7h-.2c.9-1.1,1.4-2.4,1.4-3.8Z"/>
        </g>
        <path class="cls-4" d="M200.9,159.7h-21c-1.2,0-2.2-1-2.2-2.2v-26.7c0-1.2,1-2.2,2.2-2.2h21c1.2,0,2.2,1,2.2,2.2v26.7c0,1.2-1,2.2-2.2,2.2Z"/>
        <g>
          <rect class="cls-17" x="132" y="95.8" width="21.7" height="14.4"/>
          <path class="cls-18" d="M149.3,110.3c-2-1.8-3.2-4.4-3.2-7.2s1.2-5.4,3.2-7.2h-12.8c2,1.8,3.2,4.4,3.2,7.2s-1.2,5.4-3.2,7.2h12.8Z"/>
        </g>
        <g>
          <rect class="cls-17" x="132.3" y="181.2" width="21.7" height="14.4"/>
          <path class="cls-18" d="M149.6,195.6c-2-1.8-3.2-4.4-3.2-7.2s1.2-5.4,3.2-7.2h-12.8c2,1.8,3.2,4.4,3.2,7.2s-1.2,5.4-3.2,7.2h12.8Z"/>
        </g>
        <g>
          <rect class="cls-17" x="132.3" y="200.4" width="21.7" height="14.4"/>
          <path class="cls-18" d="M149.6,214.8c-2-1.8-3.2-4.4-3.2-7.2s1.2-5.4,3.2-7.2h-12.8c2,1.8,3.2,4.4,3.2,7.2s-1.2,5.4-3.2,7.2h12.8Z"/>
        </g>
        <g>
          <rect class="cls-17" x="61.2" y="251.3" width="10.6" height="5.4"/>
          <rect class="cls-18" x="63.5" y="251.3" width="6" height="5.4"/>
        </g>
        <g>
          <rect class="cls-17" x="177.1" y="231.3" width="5.4" height="10.6"/>
          <rect class="cls-18" x="177.1" y="233.6" width="5.4" height="6"/>
        </g>
        <rect class="cls-4" x="179.5" y="81.3" width="18.9" height="29.3"/>
        <g>
          <rect class="cls-17" x="171.6" y="182.5" width="20.6" height="9.6"/>
          <rect class="cls-26" x="176.2" y="182.5" width="11.5" height="9.6"/>
        </g>
        <rect class="cls-18" x="120.2" y="350.6" width="4.2" height="6.9"/>
        <rect class="cls-18" x="126.9" y="350.6" width="4.2" height="6.9"/>
        <rect class="cls-18" x="65.3" y="262" width="6.9" height="4.2"/>
        <rect class="cls-18" x="88.3" y="194.9" width="6.9" height="4.2"/>
        <rect class="cls-18" x="64.9" y="305.5" width="6.9" height="4.2"/>
        <rect class="cls-4" x="195" y="309.4" width="4.2" height="6.9"/>
        <rect class="cls-4" x="187.9" y="249.5" width="6.9" height="4.2"/>
        <rect class="cls-4" x="85.9" y="93.9" width="6.9" height="4.2"/>
        <rect class="cls-4" x="81" y="106.1" width="6.9" height="4.2"/>
        <rect class="cls-4" x="191.5" y="198.6" width="6.9" height="4.2"/>
        <path class="cls-25" d="M186.3,514.3H57.5c-2.1,0-3.9-1.7-3.9-3.9v-108.1c0-2.1,1.7-3.9,3.9-3.9h128.8c2.1,0,3.9,1.7,3.9,3.9v108.1c0,2.2-1.7,3.9-3.9,3.9Z"/>
        <rect class="cls-1" x="101.5" y="560.6" width="10.5" height="5.9"/>
        <rect class="cls-1" x="130.3" y="560.7" width="10.5" height="5.9"/>
        <rect class="cls-1" x="101.5" y="598.4" width="10.5" height="5.9"/>
        <rect class="cls-1" x="130.3" y="598.5" width="10.5" height="5.9"/>
        <polyline class="cls-10" points="17.5 43.1 17.5 47.5 35.4 65.5 35.4 114.1 51 129.7 51 264.4 55.9 269.4 91.2 269.4"/>
        <polyline class="cls-10" points="22.9 70 31 78.1 31 115.9 46.7 131.6 46.7 266.9 52.6 272.9 91 272.9"/>
        <polyline class="cls-10" points="23.2 128.4 43 148.2 43 269.4 53.4 279.8 95 279.8"/>
        <polyline class="cls-10" points="23.2 157.9 39.8 174.4 39.8 271.3 51.9 283.4 95.1 283.4"/>
        <polyline class="cls-10" points="23.2 188 35.6 200.3 35.6 276.3 49.5 290.3 93.4 290.3"/>
        <polyline class="cls-10" points="22.9 216.1 31.6 224.8 31.6 279 46.4 293.8 96.1 293.8"/>
        <polyline class="cls-10" points="22.9 274.8 45.3 297.2 102.7 297.2"/>
        <line class="cls-10" x1="23.7" y1="300.7" x2="98.8" y2="300.7"/>
        <path class="cls-10" d="M23.2,327.1c.1-.6,17.3-17.3,17.3-17.3h12.5l4.9,4.9h45.7"/>
        <polyline class="cls-10" points="20.4 353 25.7 347.6 25.7 339.8 30.9 334.7 30.9 326.3 43.9 313.2 52.6 313.2 57.3 317.9 95.3 317.9"/>
        <path class="cls-10" d="M30.7,343.1l3.4-3.4s-.7-8.9,0-9.6,6-6,6-6l6.3-6.3h6.1l3.7,3.7h35.1"/>
        <polyline class="cls-10" points="29.1 399.1 29.1 351.4 38.7 341.9 93.4 341.9 95 340.2 95 330.6"/>
        <polyline class="cls-10" points="17.5 497.3 17.5 493.7 32.9 478.2 32.9 397.9 35.7 395.2 35.7 353.4 42 347.1 94.2 347.1 98.4 342.9 98.4 335.5"/>
        <path class="cls-10" d="M35.7,380.9"/>
        <path class="cls-10" d="M35.7,396.1"/>
        <polyline class="cls-10" points="23.6 557.9 30.4 551.1 30.4 486.6 37.5 480.6"/>
        <polyline class="cls-10" points="35.6 490.9 42.6 483.9 42.6 394.2 39.9 391.5 39.9 354.6 44.6 350 94.9 350 101.9 343 101.9 326.4"/>
        <polyline class="cls-10" points="108.9 333.1 108.9 341.9 95.9 354.9 91.5 354.9"/>
        <polyline class="cls-10" points="93.9 363.5 112.4 345 112.4 329.6"/>
        <polyline class="cls-10" points="115.9 335 115.9 346.6 102.2 360.3 102.2 380.3 95.9 386.6 65 386.6 55.5 377.1"/>
        <polyline class="cls-10" points="133.9 373.9 138.7 369.2 138.7 355.9 135.5 352.7 135.5 342.7 132.4 339.5 132.4 328.6"/>
        <polyline class="cls-10" points="137.3 332.7 137.3 340.5 139.3 342.5 139.3 348.9 152.7 362.4 164.9 362.4 179.1 376.6"/>
        <polyline class="cls-10" points="145.3 330.5 145.3 340.9 151.3 346.9 172.3 346.9 200.5 375.2 200.5 487.7 206.7 493.9 206.7 544.8 212.3 550.3 212.3 570.6 223.3 581.6 223.3 586.9"/>
        <polyline class="cls-10" points="150.7 330.9 150.7 338.3 154.7 342.3 173.6 342.3 205.2 373.8 205.2 485.3 211.4 491.5 211.4 544.1 215.6 548.3 215.6 557"/>
        <polyline class="cls-10" points="157.5 325.8 165.3 325.8 211.1 371.6 211.1 483.2 227.2 499.4"/>
        <polyline class="cls-10" points="157.5 321.4 166.9 321.4 192.1 346.6"/>
        <polyline class="cls-10" points="158.6 316.2 166.6 316.2 190.1 339.7 195.5 339.7 206.3 350.5 206.3 357.5"/>
        <polyline class="cls-10" points="158.2 311.8 167.3 311.8 190.4 334.9 200.9 334.9"/>
        <polyline class="cls-10" points="158.2 307.6 169.1 307.6 174.1 312.6"/>
        <polyline class="cls-10" points="158.2 302.7 175.4 302.7 202.8 330 206.3 330 215.9 339.7 215.9 352"/>
        <line class="cls-10" x1="158.6" y1="297.2" x2="167.7" y2="297.2"/>
        <polyline class="cls-10" points="156.4 291.8 171.8 291.8 179.2 299.2"/>
        <polyline class="cls-10" points="187.9 311.8 192.4 307.2 192.4 288 203.4 288"/>
        <polyline class="cls-10" points="158.6 283.4 209.5 283.4 218.5 292.4"/>
        <polyline class="cls-10" points="158.2 279 213.8 279 220.3 272.5"/>
        <polyline class="cls-10" points="157.5 274.8 198.8 274.8 207.1 266.5 207.1 226.2 219.6 213.8"/>
        <polyline class="cls-10" points="158.6 270.5 179.1 270.5 202.4 247.3 202.4 224.4"/>
        <polyline class="cls-10" points="159.7 265.8 167.2 265.8 171.8 261.2"/>
        <path class="cls-10" d="M147.8,260.5c-.2-.3,9.2-9.2,9.2-9.2h15.6v-33.5l2.8-2.8v-7.7"/>
        <path class="cls-10" d="M147,258.3v-6.5l10.3-10.3"/>
        <polyline class="cls-10" points="140.1 259.2 140.1 248.4 147.4 241.1"/>
        <line class="cls-10" x1="136.6" y1="256.2" x2="136.6" y2="238.6"/>
        <path class="cls-10" d="M133.1,257.9v-15.2l-4.2-4.2"/>
        <path class="cls-10" d="M122.6,257.6v-20.7"/>
        <path class="cls-10" d="M119.2,259.2v-11.1l-7.6-7.6"/>
        <polyline class="cls-10" points="115.6 258.8 115.6 252.4 101.8 238.5 101.8 232.1 105 228.9 108.9 228.9 111.5 226.3 111.5 215.8 106.1 210.4 100 210.4"/>
        <polyline class="cls-10" points="99.8 216.1 105.4 216.1 108.5 219.2 108.5 224.4 105.7 227.1 101.1 227.1 97.7 230.6 97.7 239.6 108.7 250.6 108.7 257.4"/>
        <polyline class="cls-10" points="91.3 220.6 91.3 237.4 105.2 251.3 105.2 260.8"/>
        <polyline class="cls-10" points="76.5 219.8 76.5 227 85.9 236.4 85.9 240.2 99 253.3 99 262.4"/>
        <path class="cls-10" d="M94.8,256.5v-5l-11.7-11.7v-1.1l-4.5-4.5h-6.4l-1.7-1.7h-6.9l-6.7-6.7v-14.4l1.6-1.6h8.8"/>
        <polyline class="cls-10" points="69.1 203.7 60.4 203.7 55.4 208.7 55.4 226.6 63.4 234.5 69.5 234.5 75.9 240.9 78.4 240.9 92.5 255"/>
        <line class="cls-10" x1="73.8" y1="177.1" x2="56" y2="194.8"/>
        <polyline class="cls-10" points="137.6 237.7 137.6 231.5 134.7 228.6 134.7 225.5 130.2 221.1 125.2 221.1 121.1 217 121.1 198.1 109.7 186.6 109.7 104.4 124 90.1 124 81 127.7 77.3"/>
        <path class="cls-10" d="M135.3,130.3v-9l-3.1-3.1h-9.8l-4.5-4.5v-4.3"/>
        <polyline class="cls-10" points="129.3 162.7 129.3 168 126.1 171.2 120.2 171.2 118.6 172.8"/>
        <polyline class="cls-10" points="62.9 75.8 62.9 85.2 79.1 101.4 83.6 101.4 88.5 106.3 88.5 114.5 83.9 119 83.9 132.6"/>
        <rect class="cls-2" x="45.6" y="68.6" width="18.9" height="9.6"/>
        <g>
          <rect class="cls-8" x="102.7" y="66.5" width="4.3" height="11.5"/>
          <rect class="cls-8" x="110.4" y="66.5" width="4.3" height="11.5"/>
          <rect class="cls-8" x="118.1" y="66.5" width="4.3" height="11.5"/>
          <rect class="cls-8" x="125.7" y="66.5" width="4.3" height="11.5"/>
          <rect class="cls-8" x="133.4" y="66.5" width="4.3" height="11.5"/>
        </g>
        <g>
          <path class="cls-5" d="M106.8,87.3v-5.5h2.5v5.8c0,2,.6,2.7,1.7,2.7s1.8-.7,1.8-2.7v-5.8h2.4v5.5c0,3.5-1.4,5.1-4.2,5.1s-4.2-1.6-4.2-5.1Z"/>
          <path class="cls-5" d="M116.7,90.9l1.3-1.6c.7.6,1.7,1,2.6,1s1.4-.4,1.4-.9-.6-.8-1.5-1.2l-1.3-.6c-1.1-.4-2.1-1.3-2.1-2.8s1.6-3.2,3.8-3.2,2.5.5,3.4,1.3l-1.3,1.6c-.7-.5-1.4-.8-2.1-.8s-1.3.3-1.3.8.7.8,1.6,1.2l1.3.5c1.3.5,2.1,1.4,2.1,2.8s-1.5,3.3-4,3.3c-1.5,0-2.8-.4-3.9-1.4Z"/>
          <path class="cls-5" d="M126.3,81.8h3.6c2.2,0,3.9.6,3.9,2.6s-.5,1.9-1.4,2.2h0c1.1.4,1.9,1.2,1.9,2.5,0,2.1-1.8,3.1-4.1,3.1h-3.9s0-10.4,0-10.4ZM129.8,85.9c1.1,0,1.5-.5,1.5-1.2s-.5-1.1-1.5-1.1h-1.1v2.2h1.1ZM130,90.3c1.2,0,1.8-.4,1.8-1.3s-.6-1.2-1.8-1.2h-1.2v2.5h1.2Z"/>
        </g>
        <path class="cls-28" d="M170.2,163.2h-45.7c-.5,0-1-.4-1-1v-33.5c0-.5.4-1,1-1h45.7c.5,0,1,.4,1,1v33.5c0,.6-.5,1-1,1Z"/>
        <g>
          <rect class="cls-8" x="128.6" y="123.6" width="1.4" height="4.1"/>
          <rect class="cls-8" x="134.6" y="123.6" width="1.4" height="4.1"/>
          <rect class="cls-8" x="140.6" y="123.6" width="1.4" height="4.1"/>
          <rect class="cls-8" x="146.6" y="123.6" width="1.4" height="4.1"/>
          <rect class="cls-8" x="152.6" y="123.6" width="1.4" height="4.1"/>
          <rect class="cls-8" x="158.6" y="123.6" width="1.4" height="4.1"/>
          <rect class="cls-8" x="164.6" y="123.6" width="1.4" height="4.1"/>
        </g>
        <g>
          <rect class="cls-8" x="128.6" y="163.2" width="1.4" height="4.1"/>
          <rect class="cls-8" x="134.6" y="163.2" width="1.4" height="4.1"/>
          <rect class="cls-8" x="140.6" y="163.2" width="1.4" height="4.1"/>
          <rect class="cls-8" x="146.6" y="163.2" width="1.4" height="4.1"/>
          <rect class="cls-8" x="152.6" y="163.2" width="1.4" height="4.1"/>
          <rect class="cls-8" x="158.6" y="163.2" width="1.4" height="4.1"/>
          <rect class="cls-8" x="164.6" y="163.2" width="1.4" height="4.1"/>
        </g>
        <g>
          <rect class="cls-30" x="61.4" y="131.6" width="39.3" height="48.9"/>
          <path class="cls-19" d="M81,174.3h0c-7.6,0-13.7-6.1-13.7-13.7v-9.1c0-7.6,6.1-13.7,13.7-13.7h0c7.6,0,13.7,6.1,13.7,13.7v9.1c0,7.6-6.1,13.7-13.7,13.7Z"/>
          <path class="cls-19" d="M61.4,141.8h0v-10.3h10.3c-.1,5.7-4.6,10.3-10.3,10.3Z"/>
          <path class="cls-19" d="M71.6,180.5h-10.2v-10.3h0c5.7.1,10.2,4.6,10.2,10.3h0Z"/>
          <path class="cls-19" d="M100.7,141.8h0c-5.7,0-10.3-4.6-10.3-10.3h10.3v10.3Z"/>
          <path class="cls-19" d="M100.7,180.5h-10.3c0-5.7,4.6-10.3,10.3-10.3h0s0,10.3,0,10.3Z"/>
        </g>
        <g>
          <rect class="cls-28" x="64.9" y="201.1" width="34.6" height="22.9"/>
          <g>
            <rect class="cls-8" x="60.7" y="202.2" width="4.2" height="3.4"/>
            <rect class="cls-8" x="60.7" y="208" width="4.2" height="3.4"/>
            <rect class="cls-8" x="60.7" y="213.7" width="4.2" height="3.4"/>
            <rect class="cls-8" x="60.7" y="219.4" width="4.2" height="3.4"/>
          </g>
          <g>
            <rect class="cls-8" x="99.5" y="202.2" width="4.2" height="3.4"/>
            <rect class="cls-8" x="99.5" y="208" width="4.2" height="3.4"/>
            <rect class="cls-8" x="99.5" y="213.7" width="4.2" height="3.4"/>
            <rect class="cls-8" x="99.5" y="219.4" width="4.2" height="3.4"/>
          </g>
        </g>
        <rect class="cls-4" x="135.5" y="232.6" width="4.2" height="6.9"/>
        <g>
          <path class="cls-29" d="M160.4,336.3h-79c-.7,0-1.3-.6-1.3-1.3v-79c0-.7.6-1.3,1.3-1.3h79.1c.7,0,1.3.6,1.3,1.3v79c-.1.7-.7,1.3-1.4,1.3Z"/>
          <g>
            <rect class="cls-8" x="86.2" y="252.7" width="3.1" height="1.9"/>
            <rect class="cls-8" x="89.7" y="252.7" width="3.1" height="1.9"/>
            <rect class="cls-8" x="93.2" y="252.7" width="3.1" height="1.9"/>
            <rect class="cls-8" x="96.7" y="252.7" width="3.1" height="1.9"/>
            <rect class="cls-8" x="100.2" y="252.7" width="3.1" height="1.9"/>
            <rect class="cls-8" x="103.6" y="252.7" width="3.1" height="1.9"/>
            <rect class="cls-8" x="107.1" y="252.7" width="3.1" height="1.9"/>
            <rect class="cls-8" x="114.1" y="252.7" width="3.1" height="1.9"/>
            <rect class="cls-8" x="121.1" y="252.7" width="3.1" height="1.9"/>
            <rect class="cls-8" x="128" y="252.7" width="3.1" height="1.9"/>
            <rect class="cls-8" x="138.5" y="252.7" width="3.1" height="1.9"/>
            <rect class="cls-8" x="142" y="252.7" width="3.1" height="1.9"/>
            <rect class="cls-8" x="149" y="252.7" width="3.1" height="1.9"/>
            <rect class="cls-8" x="110.6" y="252.7" width="3.1" height="1.9"/>
            <rect class="cls-8" x="117.6" y="252.7" width="3.1" height="1.9"/>
            <rect class="cls-8" x="124.6" y="252.7" width="3.1" height="1.9"/>
            <rect class="cls-8" x="131.5" y="252.7" width="3.1" height="1.9"/>
            <rect class="cls-8" x="135" y="252.7" width="3.1" height="1.9"/>
            <rect class="cls-8" x="145.5" y="252.7" width="3.1" height="1.9"/>
            <rect class="cls-8" x="152.4" y="252.7" width="3.1" height="1.9"/>
          </g>
          <g>
            <rect class="cls-8" x="86.4" y="336.3" width="3.1" height="1.9"/>
            <rect class="cls-8" x="89.9" y="336.3" width="3.1" height="1.9"/>
            <rect class="cls-8" x="93.4" y="336.3" width="3.1" height="1.9"/>
            <rect class="cls-8" x="96.9" y="336.3" width="3.1" height="1.9"/>
            <rect class="cls-8" x="100.4" y="336.3" width="3.1" height="1.9"/>
            <rect class="cls-8" x="103.8" y="336.3" width="3.1" height="1.9"/>
            <rect class="cls-8" x="107.3" y="336.3" width="3.1" height="1.9"/>
            <rect class="cls-8" x="114.3" y="336.3" width="3.1" height="1.9"/>
            <rect class="cls-8" x="121.3" y="336.3" width="3.1" height="1.9"/>
            <rect class="cls-8" x="128.2" y="336.3" width="3.1" height="1.9"/>
            <rect class="cls-8" x="138.7" y="336.3" width="3.1" height="1.9"/>
            <rect class="cls-8" x="142.2" y="336.3" width="3.1" height="1.9"/>
            <rect class="cls-8" x="149.1" y="336.3" width="3.1" height="1.9"/>
            <rect class="cls-8" x="110.8" y="336.3" width="3.1" height="1.9"/>
            <rect class="cls-8" x="117.8" y="336.3" width="3.1" height="1.9"/>
            <rect class="cls-8" x="124.7" y="336.3" width="3.1" height="1.9"/>
            <rect class="cls-8" x="131.7" y="336.3" width="3.1" height="1.9"/>
            <rect class="cls-8" x="135.2" y="336.3" width="3.1" height="1.9"/>
            <rect class="cls-8" x="145.7" y="336.3" width="3.1" height="1.9"/>
            <rect class="cls-8" x="152.6" y="336.3" width="3.1" height="1.9"/>
          </g>
          <g>
            <rect class="cls-8" x="78.1" y="327.1" width="1.9" height="3.1"/>
            <rect class="cls-8" x="78.2" y="323.6" width="1.9" height="3.1"/>
            <rect class="cls-8" x="78.2" y="320.1" width="1.9" height="3.1"/>
            <rect class="cls-8" x="78.1" y="316.6" width="1.9" height="3.1"/>
            <rect class="cls-8" x="78.1" y="313.2" width="1.9" height="3.1"/>
            <rect class="cls-8" x="78.1" y="309.7" width="1.9" height="3.1"/>
            <rect class="cls-8" x="78.1" y="306.2" width="1.9" height="3.1"/>
            <rect class="cls-8" x="78.2" y="299.2" width="1.9" height="3.1"/>
            <rect class="cls-8" x="78.1" y="292.2" width="1.9" height="3.1"/>
            <rect class="cls-8" x="78.1" y="285.3" width="1.9" height="3.1"/>
            <rect class="cls-8" x="78.2" y="274.8" width="1.9" height="3.1"/>
            <rect class="cls-8" x="78.1" y="271.3" width="1.9" height="3.1"/>
            <rect class="cls-8" x="78.1" y="264.4" width="1.9" height="3.1"/>
            <rect class="cls-8" x="78.2" y="302.7" width="1.9" height="3.1"/>
            <rect class="cls-8" x="78.1" y="295.7" width="1.9" height="3.1"/>
            <rect class="cls-8" x="78.1" y="288.8" width="1.9" height="3.1"/>
            <rect class="cls-8" x="78.1" y="281.8" width="1.9" height="3.1"/>
            <rect class="cls-8" x="78.2" y="278.3" width="1.9" height="3.1"/>
            <rect class="cls-8" x="78.1" y="267.9" width="1.9" height="3.1"/>
            <rect class="cls-8" x="78.1" y="260.9" width="1.9" height="3.1"/>
          </g>
          <g>
            <rect class="cls-8" x="161.7" y="327.1" width="1.9" height="3.1"/>
            <rect class="cls-8" x="161.8" y="323.6" width="1.9" height="3.1"/>
            <rect class="cls-8" x="161.7" y="320.1" width="1.9" height="3.1"/>
            <rect class="cls-8" x="161.7" y="316.6" width="1.9" height="3.1"/>
            <rect class="cls-8" x="161.7" y="313.1" width="1.9" height="3.1"/>
            <rect class="cls-8" x="161.7" y="309.7" width="1.9" height="3.1"/>
            <rect class="cls-8" x="161.7" y="306.2" width="1.9" height="3.1"/>
            <rect class="cls-8" x="161.8" y="299.2" width="1.9" height="3.1"/>
            <rect class="cls-8" x="161.7" y="292.2" width="1.9" height="3.1"/>
            <rect class="cls-8" x="161.7" y="285.3" width="1.9" height="3.1"/>
            <rect class="cls-8" x="161.7" y="274.8" width="1.9" height="3.1"/>
            <rect class="cls-8" x="161.7" y="271.3" width="1.9" height="3.1"/>
            <rect class="cls-8" x="161.7" y="264.4" width="1.9" height="3.1"/>
            <rect class="cls-8" x="161.8" y="302.7" width="1.9" height="3.1"/>
            <rect class="cls-8" x="161.7" y="295.7" width="1.9" height="3.1"/>
            <rect class="cls-8" x="161.7" y="288.8" width="1.9" height="3.1"/>
            <rect class="cls-8" x="161.7" y="281.8" width="1.9" height="3.1"/>
            <rect class="cls-8" x="161.8" y="278.3" width="1.9" height="3.1"/>
            <rect class="cls-8" x="161.7" y="267.8" width="1.9" height="3.1"/>
            <rect class="cls-8" x="161.7" y="260.9" width="1.9" height="3.1"/>
          </g>
          <circle class="cls-31" cx="90.2" cy="265.8" r="2.8"/>
        </g>
        <rect class="cls-28" x="187.1" y="220.5" width="18.2" height="8.6"/>
        <rect class="cls-8" x="189.1" y="229.1" width="2.9" height="8.7"/>
        <rect class="cls-8" x="200.9" y="229.1" width="2.9" height="8.7"/>
        <rect class="cls-8" x="194.8" y="211.8" width="2.9" height="8.7"/>
        <rect class="cls-18" x="169.1" y="259.9" width="6.9" height="4.2"/>
        <rect class="cls-4" x="189.5" y="289.7" width="4.2" height="6.9"/>
        <rect class="cls-18" x="172.3" y="308.9" width="4.2" height="6.9" transform="translate(-169.8 214.8) rotate(-45)"/>
        <g>
          <path class="cls-23" d="M157,371c-5.1,0-9.2,4.1-9.2,9.2s4.1,9.2,9.2,9.2,9.2-4.1,9.2-9.2-4.1-9.2-9.2-9.2ZM157,386c-3.1,0-5.7-2.6-5.7-5.7s2.6-5.7,5.7-5.7,5.7,2.6,5.7,5.7-2.5,5.7-5.7,5.7Z"/>
          <path class="cls-23" d="M118.7,371.4v17.7h17.7v-17.7h-17.7ZM127.6,386c-3.1,0-5.7-2.6-5.7-5.7s2.6-5.7,5.7-5.7,5.7,2.6,5.7,5.7-2.6,5.7-5.7,5.7Z"/>
          <path class="cls-23" d="M186.8,371c-5.1,0-9.2,4.1-9.2,9.2s4.1,9.2,9.2,9.2,9.2-4.1,9.2-9.2-4.1-9.2-9.2-9.2ZM186.8,386c-3.1,0-5.7-2.6-5.7-5.7s2.6-5.7,5.7-5.7,5.7,2.6,5.7,5.7-2.5,5.7-5.7,5.7Z"/>
        </g>
        <path class="cls-23" d="M17.5,349.7H.3v3.4c2.3.9,3.9,3.1,3.9,5.7s-1.6,4.8-3.9,5.7v3.4h17.2c5,0,9-4,9-9s-4.1-9.2-9-9.2ZM15.9,364.8c-3.4,0-6.1-2.7-6.1-6.1s2.7-6.1,6.1-6.1,6.1,2.7,6.1,6.1-2.8,6.1-6.1,6.1Z"/>
        <path class="cls-23" d="M17.5,320.3H.3v3.4c2.3.9,3.9,3.1,3.9,5.7s-1.6,4.8-3.9,5.7v3.4h17.2c5,0,9-4,9-9h0c0-5.2-4.1-9.2-9-9.2ZM15.9,335.4c-3.4,0-6.1-2.7-6.1-6.1s2.7-6.1,6.1-6.1,6.1,2.7,6.1,6.1-2.8,6.1-6.1,6.1Z"/>
        <path class="cls-23" d="M17.5,290.9H.3v3.4c2.3.9,3.9,3.1,3.9,5.7s-1.6,4.8-3.9,5.7v3.4h17.2c5,0,9-4,9-9h0c0-5.2-4.1-9.2-9-9.2ZM15.9,306c-3.4,0-6.1-2.7-6.1-6.1s2.7-6.1,6.1-6.1,6.1,2.7,6.1,6.1-2.8,6.1-6.1,6.1Z"/>
        <path class="cls-23" d="M17.5,261.5H.3v3.4c2.3.9,3.9,3.1,3.9,5.7s-1.6,4.8-3.9,5.7v3.4h17.2c5,0,9-4,9-9s-4.1-9.2-9-9.2ZM15.9,276.6c-3.4,0-6.1-2.7-6.1-6.1s2.7-6.1,6.1-6.1,6.1,2.7,6.1,6.1-2.8,6.1-6.1,6.1Z"/>
        <path class="cls-23" d="M17.5,202.7H.3v3.4c2.3.9,3.9,3.1,3.9,5.7s-1.6,4.8-3.9,5.7v3.4h17.2c5,0,9-4,9-9s-4.1-9.2-9-9.2ZM15.9,217.8c-3.4,0-6.1-2.7-6.1-6.1s2.7-6.1,6.1-6.1,6.1,2.7,6.1,6.1-2.8,6.1-6.1,6.1Z"/>
        <path class="cls-23" d="M17.5,173.3H.3v3.4c2.3.9,3.9,3.1,3.9,5.7s-1.6,4.8-3.9,5.7v3.4h17.2c5,0,9-4,9-9s-4.1-9.2-9-9.2ZM15.9,188.4c-3.4,0-6.1-2.7-6.1-6.1s2.7-6.1,6.1-6.1,6.1,2.7,6.1,6.1-2.8,6.1-6.1,6.1Z"/>
        <path class="cls-23" d="M17.5,143.9H.3v3.4c2.3.9,3.9,3.1,3.9,5.7s-1.6,4.8-3.9,5.7v3.4h17.2c5,0,9-4,9-9s-4.1-9.2-9-9.2ZM15.9,159c-3.4,0-6.1-2.7-6.1-6.1s2.7-6.1,6.1-6.1,6.1,2.7,6.1,6.1-2.8,6.1-6.1,6.1Z"/>
        <path class="cls-23" d="M17.5,114.5H.3v3.4c2.3.9,3.9,3.1,3.9,5.7s-1.6,4.8-3.9,5.7v3.4h17.2c5,0,9-4,9-9s-4.1-9.2-9-9.2ZM15.9,129.6c-3.4,0-6.1-2.7-6.1-6.1s2.7-6.1,6.1-6.1,6.1,2.7,6.1,6.1-2.8,6.1-6.1,6.1Z"/>
        <path class="cls-23" d="M17.5,55.7H.3v3.4c2.3.9,3.9,3.1,3.9,5.7s-1.6,4.8-3.9,5.7v3.4h17.2c5,0,9-4,9-9h0c0-5.1-4.1-9.2-9-9.2ZM15.9,70.8c-3.4,0-6.1-2.7-6.1-6.1s2.7-6.1,6.1-6.1,6.1,2.7,6.1,6.1c-.1,3.4-2.8,6.1-6.1,6.1Z"/>
        <path class="cls-23" d="M17.5,26.3H.3v3.4c2.3.9,3.9,3.1,3.9,5.7s-1.7,4.7-3.9,5.6v3.4h17.2c5,0,9-4,9-9s-4.1-9.1-9-9.1ZM15.9,41.4c-3.4,0-6.1-2.7-6.1-6.1s2.7-6.1,6.1-6.1,6.1,2.7,6.1,6.1-2.8,6.1-6.1,6.1Z"/>
        <path class="cls-23" d="M17.5,496.7H.3v3.4c2.3.9,3.9,3.1,3.9,5.7s-1.6,4.8-3.9,5.7v3.4h17.2c5,0,9-4,9-9s-4.1-9.2-9-9.2ZM15.9,511.8c-3.4,0-6.1-2.7-6.1-6.1s2.7-6.1,6.1-6.1,6.1,2.7,6.1,6.1-2.8,6.1-6.1,6.1Z"/>
        <path class="cls-23" d="M239.5,593.9c0-2.6,1.6-4.8,3.9-5.7v-3.4h-17.2c-5,0-9,4-9,9s4,9,9,9h17.2v-3.4c-2.2-.7-3.9-3-3.9-5.5ZM227.8,600c-3.4,0-6.1-2.7-6.1-6.1s2.7-6.1,6.1-6.1,6.1,2.7,6.1,6.1-2.7,6.1-6.1,6.1Z"/>
        <path class="cls-23" d="M239.5,505.7c0-2.6,1.6-4.8,3.9-5.7v-3.4h-17.2c-5,0-9,4-9,9s4,9,9,9h17.2v-3.4c-2.2-.7-3.9-2.9-3.9-5.5ZM227.8,511.8c-3.4,0-6.1-2.7-6.1-6.1s2.7-6.1,6.1-6.1,6.1,2.7,6.1,6.1-2.7,6.1-6.1,6.1Z"/>
        <path class="cls-23" d="M239.5,270.5c0-2.6,1.6-4.8,3.9-5.7v-3.4h-17.2c-5,0-9,4-9,9s4,9,9,9h17.2v-3.4c-2.2-.7-3.9-2.9-3.9-5.5ZM227.8,276.6c-3.4,0-6.1-2.7-6.1-6.1s2.7-6.1,6.1-6.1,6.1,2.7,6.1,6.1-2.7,6.1-6.1,6.1Z"/>
        <rect class="cls-1" x="91.4" y="363" width="3.7" height="6.7"/>
        <g>
          <path class="cls-33" d="M82.2,383.9h-31.8c-1.2,0-2.2-1-2.2-2.2v-23.7c0-1.2,1-2.2,2.2-2.2h31.8c1.2,0,2.2,1,2.2,2.2v23.7c0,1.2-1,2.2-2.2,2.2Z"/>
          <path class="cls-7" d="M79.9,381.5h-27.3c-.8,0-1.4-.6-1.4-1.4v-20.4c0-.8.6-1.4,1.4-1.4h27.3c.8,0,1.4.6,1.4,1.4v20.4c0,.7-.6,1.4-1.4,1.4Z"/>
        </g>
        <rect class="cls-1" x="91.4" y="383" width="3.7" height="6.7"/>
        <rect class="cls-4" x="100.1" y="368.8" width="4.2" height="6.9"/>
        <g>
          <path class="cls-5" d="M42.3,188.9v-3.6c0-2.2.6-3.9,2.6-3.9s1.9.5,2.2,1.4h0c.3-1.1,1.1-1.9,2.4-1.9,2.1,0,3.1,1.8,3.1,4.1v3.9h-10.4ZM46.4,185.3c0-1.1-.5-1.5-1.2-1.5s-1.1.5-1.1,1.5v1.1h2.2v-1.1h0ZM50.8,185.1c0-1.2-.4-1.8-1.3-1.8s-1.2.6-1.2,1.8v1.2h2.5v-1.2Z"/>
          <path class="cls-5" d="M47.4,179.6c-3.4,0-5.4-1.9-5.4-4.8s2-4.8,5.4-4.8,5.4,1.9,5.4,4.8-2,4.8-5.4,4.8ZM47.4,172.6c-2,0-3.2.8-3.2,2.2s1.2,2.2,3.2,2.2,3.3-.9,3.3-2.2-1.3-2.2-3.3-2.2Z"/>
          <path class="cls-5" d="M47.4,168.6c-3.4,0-5.4-1.9-5.4-4.8s2-4.8,5.4-4.8,5.4,1.9,5.4,4.8-2,4.8-5.4,4.8ZM47.4,161.6c-2,0-3.2.8-3.2,2.2s1.2,2.2,3.2,2.2,3.3-.9,3.3-2.2-1.3-2.2-3.3-2.2Z"/>
          <path class="cls-5" d="M44.3,155.6v2.8h-2.1v-8.1h2.1v2.8h8.3v2.5h-8.3Z"/>
          <path class="cls-5" d="M51.3,149.7l-1.6-1.3c.6-.7,1-1.7,1-2.6s-.4-1.4-.9-1.4-.8.6-1.2,1.5l-.6,1.3c-.4,1.1-1.3,2.1-2.8,2.1s-3.2-1.6-3.2-3.8.5-2.5,1.3-3.4l1.6,1.3c-.5.7-.8,1.4-.8,2.1s.3,1.3.8,1.3.8-.7,1.2-1.6l.5-1.3c.5-1.3,1.4-2.1,2.8-2.1s3.3,1.5,3.3,4c.2,1.4-.3,2.8-1.4,3.9Z"/>
          <path class="cls-5" d="M42.3,140.1v-6.6h2.1v4.1h2v-3.5h2.1v3.5h2.2v-4.3h2.1v6.8h-10.5Z"/>
          <path class="cls-5" d="M42.3,131.3v-2.5h8.3v-4h2.1v6.5h-10.4Z"/>
        </g>
        <g>
          <path class="cls-5" d="M141.4,346.1h3c3.2,0,5.3,1.6,5.3,5.2s-2.1,5.2-5.1,5.2h-3.1v-10.4h0ZM144.3,354.5c1.7,0,2.9-.8,2.9-3.2s-1.2-3.2-2.9-3.2h-.4v6.4h.4Z"/>
          <path class="cls-5" d="M151.6,346.1h6.6v2.1h-4.1v2h3.5v2.1h-3.5v2.2h4.3v2.1h-6.8v-10.5Z"/>
          <path class="cls-5" d="M160.4,346.1h3.6c2.2,0,3.9.6,3.9,2.6s-.5,1.9-1.4,2.2h0c1.1.4,1.9,1.2,1.9,2.5,0,2.1-1.8,3.1-4.1,3.1h-3.9v-10.4ZM164,350.2c1.1,0,1.5-.5,1.5-1.2s-.5-1.1-1.5-1.1h-1.1v2.2h1.1ZM164.2,354.6c1.2,0,1.8-.4,1.8-1.3s-.6-1.2-1.8-1.2h-1.2v2.5h1.2Z"/>
          <path class="cls-5" d="M170.1,351.6v-5.5h2.5v5.8c0,2,.6,2.7,1.7,2.7s1.8-.7,1.8-2.7v-5.8h2.4v5.5c0,3.5-1.4,5.1-4.2,5.1s-4.2-1.6-4.2-5.1Z"/>
          <path class="cls-5" d="M180.3,351.3c0-3.5,2.3-5.5,5.1-5.5s2.6.6,3.3,1.4l-1.3,1.5c-.5-.5-1.1-.7-1.9-.7-1.5,0-2.7,1.2-2.7,3.2s.9,3.3,2.9,3.3.8-.1,1-.3v-1.7h-1.7v-2h3.9v4.9c-.7.7-2,1.3-3.5,1.3-2.8,0-5.1-1.8-5.1-5.4Z"/>
        </g>
        <rect class="cls-9" x="114.2" y="367.4" width="86.4" height="25.6"/>
        <g>
          <path class="cls-5" d="M40.1,81.8h2.5v8.3h4v2.1h-6.5v-10.4Z"/>
          <path class="cls-5" d="M48.4,81.8h6.6v2.1h-4.1v2h3.5v2.1h-3.5v2.2h4.3v2.1h-6.8v-10.5Z"/>
          <path class="cls-5" d="M57.2,81.8h3c3.2,0,5.3,1.6,5.3,5.2s-2.1,5.2-5.1,5.2h-3.1v-10.4h-.1ZM60.1,90.2c1.7,0,2.9-.8,2.9-3.2s-1.2-3.2-2.9-3.2h-.4v6.4s.4,0,.4,0Z"/>
        </g>
        <g>
          <rect class="cls-17" x="143.7" y="231.3" width="5.4" height="10.6"/>
          <rect class="cls-18" x="143.7" y="233.6" width="5.4" height="6"/>
        </g>
        <g>
          <rect class="cls-17" x="154.3" y="231.3" width="5.4" height="10.6"/>
          <rect class="cls-18" x="154.3" y="233.6" width="5.4" height="6"/>
        </g>
        <rect class="cls-4" x="127.1" y="232.6" width="4.2" height="6.9"/>
        <rect class="cls-4" x="67.3" y="239.1" width="6.9" height="4.2"/>
        <rect class="cls-18" x="120.5" y="232.6" width="4.2" height="6.9"/>
        <rect class="cls-18" x="110.4" y="232.6" width="4.2" height="6.9"/>
        <path class="cls-23" d="M239.5,211.7c0-2.6,1.6-4.8,3.9-5.7v-3.4h-17.2c-5,0-9,4-9,9s4,9,9,9h17.2v-3.4c-2.2-.7-3.9-2.9-3.9-5.5ZM227.8,217.8c-3.4,0-6.1-2.7-6.1-6.1s2.7-6.1,6.1-6.1,6.1,2.7,6.1,6.1-2.7,6.1-6.1,6.1Z"/>
        <g>
          <rect class="cls-17" x="172.6" y="200.6" width="5.6" height="11.9"/>
          <rect class="cls-26" x="172.6" y="203.3" width="5.6" height="6.6"/>
        </g>
      </g>
      <rect id="rect18-0" x="388.2" y="17.7" width="158.2" height="307.6"/>
      <circle id="path61-5" class="cls-24" cx="404" cy="306" r="14.1"/>
      <circle id="circle63-6" class="cls-24" cx="404" cy="276.1" r="14.1"/>
      <circle id="circle65-1" class="cls-24" cx="404" cy="246.2" r="14.1"/>
      <circle id="circle67-7" class="cls-24" cx="404" cy="216.3" r="14.1"/>
      <circle id="circle69-3" class="cls-24" cx="404" cy="186.4" r="14.1"/>
      <circle id="circle71-8" class="cls-24" cx="404" cy="156.6" r="14.1"/>
      <circle id="circle73-6" class="cls-11" cx="404" cy="126.7" r="14.1"/>
      <circle id="circle75-3" class="cls-13" cx="404" cy="96.8" r="14.1"/>
      <circle id="circle77-9" class="cls-6" cx="404" cy="66.9" r="14.1"/>
      <circle id="circle79-4" class="cls-14" cx="404" cy="37" r="14.1"/>
      <path id="path31-1-1" class="cls-5" d="M460.9,70.8c1,0,1.1,0,1.2-.2.1,0,.2-.2.3-.3.1-.2.1-.3.1-2.6v-2.4h4v3c0,3.3,0,3.6-.3,4.5-.3,1-1.1,1.8-2.1,2-.6,0-1.2,0-1.9,0s-1.7,0-2,0h-.5v-3.9h1.2ZM480.4,77.5c17.5,0,21.8,0,21.1,0h-.1.1c.1,0,.1.2-.1.2s-.1,0,.2,0h.4-.7c.1,0,.1,0,.1.6s0,.5.2.6q.1,0-.1,0c-.1,0-.2,0-.2,0,0,0-6.9,0-20.7,0h-20.7v-1.7h20.5ZM464.6,59.1h2.1v3.8h-4.1v-3.8h2ZM468.8,66.3c.1-1,.4-2,.8-2.9.1-.2.2-.4.3-.6.1,0,.2-.2.2-.4.2-.4.5-.8.8-1.2h.1c.3-.5.6-.8.9-1.1.5-.4,1-.7,1.5-.9.8-.4,1.6-.5,2.5-.4.5,0,1,0,1.5.2.3,0,.7.2.8.3.1,0,.2,0,.3,0,.2,0,.4.2.5.3,1.2,1,2.2,2.3,2.9,3.7.8,1.9.9,4,.3,6-.2.6-.4,1.2-.8,1.8-.3.6-.7,1.2-1.2,1.7-.7,1-1.8,1.6-2.9,2-.9.2-1.7.3-2.6.2-1-.2-2-.7-2.8-1.4-.3-.3-.6-.6-.9-.9-.1,0-.2-.2-.3-.4-.9-1.2-1.5-2.5-1.8-4,0-.6,0-1.4,0-2.1h0ZM472.7,68.3c.2.9.6,1.7,1.2,2.3.6.7,1.6.9,2.5.6,1.1-.6,1.9-1.7,2.2-2.9.2-.9.2-1.8,0-2.7-.2-1-.7-1.8-1.4-2.5-.2-.2-.5-.3-.8-.4-.6-.2-1.3,0-1.9.2-.6.4-1,1-1.3,1.7-.6,1.2-.7,2.5-.5,3.7h0ZM484.3,59.2h4.1v2.1c-.1.8,0,1.7.1,2.5.2.9,1.1,1.3,2,1.1h.1c.4-.2.8-.5.9-.9l.2-.4v-4.4h4.1v2.5c.1,1,0,2-.1,3-.2.9-.6,1.7-1.1,2.5-.1,0-.2.2-.2.4-.3.4-.6.7-1,1s-.8.6-1.2.7c-.1,0-.4,0-.6.2-.5.2-1,.2-1.5.2-.5,0-1.1,0-1.6-.2-.6-.2-1.2-.4-1.6-.8-.6-.5-1.2-1.1-1.6-1.8-.6-.9-.9-1.9-1-3,0-1.7,0-3.2,0-4.7h0ZM490.1,70.9h3.4v4h-6.8v-4h3.4ZM495.9,56.1s.1,0,.1-.2q0-.2.3-.3h25.2v1.8h-25.5c-.1,0-.1,0-.1-.6-.1-.5,0-.7,0-.7h0ZM501.6,65.7h4.3v3.9h-8.6v-3.9h4.3ZM509.3,59.1h2.1v3.9h-4.1v-3.9h2ZM509.3,65h2.1v10h-4.1v-10h2ZM517.5,59.1h4.3v3.9h-8.7v-3.9h4.4ZM513.9,65.3h4v2.3c0,3.2,0,3,2,3.1h1.3v4h-.5c-1.2.2-2.5.2-3.7,0-.9,0-1.7-.5-2.3-1.3-.5-.7-.8-1.6-.8-2.5s-.1-5.6,0-5.7h0ZM524.3,57.3c0-.4.3-.8.5-1.1.7-.9,2-1,2.9-.3,0,0,0,0,0,0,.3.2.6.6.7,1,0,.3.2.7.2,1s0,.7-.2,1.1c-.3.8-1,1.3-1.9,1.5-.7,0-1.4-.2-1.8-.8-.5-.8-.7-1.7-.5-2.5h0ZM524.7,58.9c.3.6.8,1,1.4,1.2.6.2,1.3,0,1.7-.5.2-.2.3-.4.4-.6,0-.3.2-.6.2-1s0-.7-.2-1c0-.3-.3-.5-.5-.7s-.4-.3-.6-.4c-1-.3-2.1.2-2.5,1.3-.1.5-.1,1.1,0,1.7h0ZM526.2,56.4c.3,0,.6,0,.9,0,.4.3.5.8.3,1.2,0,0-.2.2-.3.2h-.2c0,0,.2.3.2.3,0,.2.3.4.4.6,0,0,0,.3.2.4,0,0,0,.2-.2.2h-.2l-.3-.6c-.4-.6-.4-.7-.8-.7h-.2v1.4h-.4v-3h.6ZM526.3,57.7c.4,0,.5,0,.6,0,.3-.3,0-.7-.3-.8h-.8v.8h.5Z"/>
      <circle id="path183-0" class="cls-24" cx="527.1" cy="37" r="17.6" transform="translate(373.1 542.4) rotate(-77.1)"/>
      <circle id="path185-5" class="cls-5" cx="527.1" cy="37" r="15.8"/>
      <circle id="circle187-8" class="cls-24" cx="527.1" cy="306" r="17.6" transform="translate(140.6 777.3) rotate(-80.8)"/>
      <circle id="circle189-9" class="cls-5" cx="527.1" cy="306" r="15.8"/>
      <rect id="rect203-4" class="cls-24" x="462" y="293" width="7" height="5.3"/>
      <rect id="rect205-2" class="cls-24" x="470.8" y="293" width="7" height="5.3"/>
      <rect id="rect207-8" class="cls-24" x="479.6" y="293" width="7" height="5.3"/>
      <rect id="rect209-6" class="cls-24" x="488.4" y="293" width="7" height="5.3"/>
      <rect id="rect211-5" class="cls-24" x="497.2" y="293" width="7" height="5.3"/>
      <rect id="rect213-1" class="cls-24" x="462" y="238.5" width="7" height="5.3"/>
      <rect id="rect215-8" class="cls-24" x="470.8" y="238.5" width="7" height="5.3"/>
      <rect id="rect217-1" class="cls-24" x="479.6" y="238.5" width="7" height="5.3"/>
      <rect id="rect219-4" class="cls-24" x="488.4" y="238.5" width="7" height="5.3"/>
      <rect id="rect221-8" class="cls-24" x="497.2" y="238.5" width="7" height="5.3"/>
      <rect id="rect947-8" class="cls-16" x="464.1" y="240.5" width="3" height="4.6"/>
      <rect id="rect229-5" class="cls-16" x="481.6" y="240.5" width="3" height="4.6"/>
      <rect id="rect231-8" class="cls-16" x="490.4" y="240.5" width="3" height="4.6"/>
      <rect id="rect233-8" class="cls-16" x="499.2" y="240.5" width="3" height="4.6"/>
      <rect id="rect235-0" class="cls-16" x="472.9" y="240.5" width="3" height="4.6"/>
      <rect id="rect237-4" class="cls-16" x="464.1" y="291.4" width="3" height="4.6"/>
      <rect id="rect239-2" class="cls-16" x="481.6" y="291.4" width="3" height="4.6"/>
      <rect id="rect241-5" class="cls-16" x="490.4" y="291.4" width="3" height="4.6"/>
      <rect id="rect243-5" class="cls-16" x="499.2" y="291.4" width="3" height="4.6"/>
      <rect id="rect245-5" class="cls-16" x="472.9" y="291.4" width="3" height="4.6"/>
      <rect id="rect201-9" class="cls-21" x="462" y="243.8" width="42.2" height="49.2"/>
      <g id="text99">
        <g class="cls-15">
          <path class="cls-5" d="M529.3,89.5h-.3c0,0-.2,0-.2,0,0,0,0,0,0,0h0v-7.5h0c0,0,0-.2,0-.2,0,0,0,0,.2,0h.6c0,0,.2,0,.2,0s0,0,0,0v3.1h10.7l-1.6-2.7c0,0,0-.2,0-.3v-.2c0,0,0,0,.2,0h.9c0,0,0,0,.2,0,0,0,0,0,0,.2l2.1,3.2s0,0,0,0v1.1c0,0,0,.2,0,.3s0,0,0,0h-12.3v2.8c0,0,0,0,0,0,0,0,0,0-.2,0s-.3,0-.4,0Z"/>
          <path class="cls-5" d="M533.1,101.1c-.6,0-1.2,0-1.8-.3-.6-.2-1.1-.5-1.5-.9s-.8-.9-1.1-1.5-.4-1.3-.4-2.1,0-1.1.2-1.6c0-.5.4-.8.6-1.2.3-.3.6-.6,1-.8s.8-.4,1.3-.5,1-.2,1.6-.3c.6,0,1.2,0,1.9,0s1.2,0,1.8,0,1.2.2,1.8.3c.6.2,1.1.4,1.6.7s.9.6,1.3,1.1c.4.4.7,1,.9,1.6s.3,1.3.3,2.1v.8c0,.3,0,.5,0,.8,0,.2,0,.4-.2.6,0,.2,0,.3-.2.3,0,0,0,0,0,0,0,0,0,0-.2,0h-1.1v-.3c0,0,0-.2,0-.3s0-.3.2-.5c0-.2,0-.4.2-.7,0-.3,0-.6,0-1,0-.7,0-1.3-.4-1.7-.3-.5-.6-.9-1.1-1.2-.5-.3-1-.5-1.6-.7-.6,0-1.3-.2-1.9-.3,0,.2.2.4.3.6s.2.5.3.8.2.6.2.9c0,.3,0,.6,0,1,0,.8,0,1.4-.3,1.9s-.5.9-.9,1.3c-.4.3-.8.6-1.3.7-.5.2-1,.2-1.6.2ZM532.9,99.2c.4,0,.8,0,1.1,0s.6-.2.9-.4c.2-.2.4-.5.6-.8s.2-.7.2-1.2,0-.5,0-.8c0-.3,0-.5-.2-.8,0-.3-.2-.5-.3-.7s-.2-.4-.4-.6c-.9,0-1.7,0-2.4.2-.6,0-1.1.3-1.5.5s-.7.5-.8.9c-.2.3-.2.7-.2,1.2s0,.9.3,1.2c.2.3.4.6.7.8s.6.4,1,.5c.4.1.7.1,1.1.1Z"/>
          <path class="cls-5" d="M532.6,113.2c-.4,0-.9,0-1.2-.2-.4,0-.7-.3-1-.5s-.6-.4-.8-.7-.4-.6-.6-1c-.2-.4-.3-.7-.3-1.2,0-.4,0-.9,0-1.4v-3.7c0-.2,0-.3.2-.5,0,0,.3-.2.6-.2h12.6c.3,0,.5,0,.6.2s.2.3.2.5v3.2c0,.8,0,1.5-.2,2.1-.2.5-.4,1-.7,1.3s-.7.6-1.1.8c-.4.2-.9.3-1.5.3s-.7,0-1,0-.6-.2-.8-.4-.5-.4-.7-.6-.4-.5-.5-.8c0,.4-.2.7-.4,1.1s-.4.6-.7.9-.6.4-1,.6c-.7.2-1.2.3-1.6.3ZM532.5,111.2c.4,0,.8,0,1.1-.2s.6-.3.8-.6c.2-.3.4-.6.5-1s.2-.9.2-1.5v-2.2h-5v2.7c0,.4,0,.8.2,1.1s.3.6.5.8c.2.2.4.4.7.6s.6.3,1,.3ZM538.9,110.4c.3,0,.6,0,.9,0,.3,0,.5-.2.7-.4s.3-.5.4-.8c0-.3.2-.8.2-1.3v-1.9h-4.6v2.1c0,.5,0,.9.2,1.2,0,.3.3.5.5.7s.5.3.8.4.6.1.9.1Z"/>
          <path class="cls-5" d="M528.8,117.6h-.2c0-.2,0-.3,0-.4v-.8c0,0,0-.2,0-.3,0,0,0,0,0,0h10.1c0,.2,0,.3,0,.4v.8c0,0,0,.2,0,.3,0,0,0,0,0,0h-9.9ZM541.9,117.8c-.4,0-.7,0-.9-.2-.2-.2-.2-.5-.2-.9s0-.7.2-.9c0-.2.4-.2.8-.2s.7,0,.9.2c.2.2.2.5.2.9s0,.7-.2.9c-.1.2-.4.2-.8.2Z"/>
          <path class="cls-5" d="M529.5,126.1h-.5c0,0-.2,0-.3,0q0,0-.2-.3t0-.4c0,0,0-.3,0-.5v-.5c0-.5,0-.9.2-1.3,0-.4.3-.7.6-.9.3-.2.6-.4,1-.5s.9-.2,1.5-.2h5.7v-1.4c0,0,0-.2.2-.3s.3,0,.6,0h.3c0,0,.2,0,.2,0,0,0,0,0,0,0v1.6h2.5c0,.2,0,.3,0,.4v.8c0,0,0,.2,0,.3,0,0,0,0,0,0h-2.4v2.7h0c0,0,0,.2-.2.2h-.3c-.3,0-.5,0-.6,0s-.2-.2-.2-.3v-2.5h-5.5c-.7,0-1.2,0-1.5.3-.3.2-.5.6-.5,1.1v.4c0,0,0,.2,0,.3s0,.2,0,.3v.2h0c0,0,0,.2,0,.2h-.2c0,.2-.1.3-.2.3Z"/>
          <path class="cls-5" d="M529.3,136.9h-.3c0,0-.2-.1-.2-.1,0,0,0-.1,0-.1h0v-7.5h0c0-.1,0-.2,0-.2,0,0,0-.1.2-.1h.6c0,0,.2,0,.2.1,0,0,0,.1,0,.1v3.1h10.7l-1.6-2.7c0-.1,0-.2,0-.3v-.2c0-.1,0-.1.2-.1h.9c0,0,0,.1.2.1s0,.1,0,.2l2.1,3.2s0,.1,0,.1v1.1c0,0,0,.2,0,.3h0c0,.1,0,.1,0,.1h-12.2v2.7c0,.1,0,.1,0,.1,0,0,0,.1-.2.1s-.3,0-.4,0Z"/>
          <path class="cls-5" d="M529.3,148.1h-.3c0,0-.2,0-.3-.1,0,0,0-.1-.2-.1v-8.3c0-.1,0-.1,0-.2q0-.1.3-.1h.8c0,0,.2,0,.3.1,0,0,.2.1.3.1,0,.1.2.1.3.2l2.9,2.8c.7.7,1.3,1.2,1.8,1.6.5.4,1,.7,1.4.9s.8.4,1.2.4c.4.1.7.1,1,.1s.6-.1.9-.2c.3-.1.5-.3.7-.5s.4-.4.5-.7.2-.6.2-1,0-.9-.2-1.2c0-.4-.3-.7-.4-1s-.3-.5-.4-.7-.2-.3-.2-.4h0c0-.1,0-.2,0-.2,0,0,.2,0,.3-.1h.9q0,0,.2.1s0,.1.2.2c0,.1.2.2.3.5,0,.2.3.5.4.8,0,.3.2.7.3,1.1,0,.4,0,.8,0,1.2,0,.7,0,1.3-.3,1.8s-.5.9-.8,1.3c-.3.3-.7.6-1.2.8-.4.2-.9.3-1.4.3s-.9,0-1.3-.1c-.4-.1-.9-.2-1.5-.5s-1.1-.6-1.7-1.1c-.6-.5-1.4-1.1-2.2-1.9l-2.3-2.2v6.3c0,.1,0,.1,0,.1,0,0,0,.1-.2.1-.2-.2-.3-.2-.5-.2Z"/>
          <path class="cls-5" d="M530.5,160.7h-.5q0,0-.2-.1c0,0,0-.1-.2-.2,0-.1-.2-.2-.3-.5,0-.2-.3-.5-.4-.9,0-.3-.3-.7-.4-1.2,0-.4,0-.9,0-1.5,0-.9.2-1.7.5-2.5.3-.7.8-1.4,1.4-1.9s1.3-.9,2.2-1.2,1.9-.4,3-.4,2.2.2,3.1.5c.9.3,1.7.7,2.3,1.3s1.1,1.2,1.5,2c.3.8.5,1.6.5,2.5s0,.8,0,1.2-.2.7-.3,1.1c0,.3-.3.6-.4.9-.2.3-.3.4-.4.5,0,.1-.2.2-.2.2,0,0,0,.1-.2.1h-.9c-.1,0-.2,0-.3-.1,0,0,0-.1-.2-.1h0c0-.2,0-.3.2-.5s.3-.4.5-.7.3-.6.5-1.1c0-.4.2-.9.2-1.5s0-1.2-.4-1.7c-.3-.5-.6-1-1.1-1.3-.5-.4-1.1-.6-1.8-.8s-1.5-.3-2.4-.3-1.7.1-2.4.3-1.3.5-1.7.8c-.5.4-.8.8-1,1.3s-.4,1.1-.4,1.8,0,1.1.2,1.5c0,.4.3.8.5,1.1s.3.5.5.7c0,.2.2.3.2.4h0c0,.1,0,.2,0,.2h-.3c-.3,0-.4,0-.6,0Z"/>
          <path class="cls-5" d="M529.2,178.8c-.2.1-.3.1-.4.1s-.2,0-.2-.1c0-.1,0-.2,0-.3v-1c0-.1,0-.2,0-.3,0-.1,0-.1,0-.2,0,0,0-.1.2-.1l3.4-1.2v-5.9l-3.4-1.2c0,0,0-.1-.2-.1,0,0,0-.1,0-.2s0-.2,0-.3v-1c0-.1,0-.2,0-.3q0-.1.2-.1c0,0,.2,0,.4.1l13.1,4.7c0,0,0,.1.2.1s0,.1,0,.2,0,.2,0,.3v1.1c0,.2,0,.3,0,.4,0,.1,0,.2,0,.2,0,0,0,.1-.2.1l-13.1,5ZM540.7,172.7h0l-7-2.4v4.9l7-2.5Z"/>
          <path class="cls-5" d="M535.8,192c-1.2,0-2.3-.2-3.2-.5s-1.7-.8-2.3-1.4-1-1.3-1.3-2.2-.4-1.9-.4-3.1v-3c0-.2,0-.3.2-.5,0-.1.3-.2.6-.2h12.6c.3,0,.5.1.6.2,0,.1.2.3.2.5v3.2c0,1.2-.2,2.3-.5,3.1s-.8,1.5-1.4,2.1c-.6.6-1.3,1-2.2,1.3-.9.3-1.9.5-2.9.5ZM535.7,190c.8,0,1.5-.1,2.1-.3.7-.2,1.2-.5,1.7-.9s.9-.9,1.1-1.5c.3-.6.4-1.4.4-2.4v-1.9h-11v1.9c0,.9,0,1.7.3,2.3s.6,1.1,1,1.5,1,.7,1.8.9,1.6.4,2.6.4Z"/>
          <path class="cls-5" d="M530.5,204.3h-.5q0,0-.2-.1c0,0,0-.1-.2-.2,0-.1-.2-.2-.3-.5,0-.2-.3-.5-.4-.9,0-.3-.3-.7-.4-1.2,0-.4,0-.9,0-1.5,0-.9.2-1.7.5-2.5.3-.7.8-1.4,1.4-1.9s1.3-.9,2.2-1.2,1.9-.4,3-.4,2.2.2,3.1.5c.9.3,1.7.7,2.3,1.3s1.1,1.2,1.5,2c.3.8.5,1.6.5,2.5s0,.8,0,1.2-.2.7-.3,1.1c0,.3-.3.6-.4.9-.2.3-.3.4-.4.5,0,.1-.2.2-.2.2,0,0,0,.1-.2.1h-.9c-.1,0-.2,0-.3-.1,0,0,0-.1-.2-.1h0c0-.2,0-.3.2-.5s.3-.4.5-.7.3-.6.5-1.1c0-.4.2-.9.2-1.5s0-1.2-.4-1.7c-.3-.5-.6-1-1.1-1.3-.5-.4-1.1-.6-1.8-.8s-1.5-.3-2.4-.3-1.7.1-2.4.3-1.3.5-1.7.8c-.5.4-.8.8-1,1.3s-.4,1.1-.4,1.8,0,1.1.2,1.5c0,.4.3.8.5,1.1s.3.5.5.7c0,.2.2.3.2.4h0c0,.1,0,.2,0,.2h-.3c-.3,0-.4,0-.6,0Z"/>
          <path class="cls-5" d="M534.8,215.2h-.4c0,0-.2-.1-.2-.1h0v-3.9h-4.2c0-.2,0-.2,0-.3v-.8c0-.1,0-.2,0-.3,0-.1,0-.1,0-.1h4.1v-3.8h0c0-.1,0-.2.2-.2h.7c0,0,.2.1.2.1h0v3.9h4.3c0,.1,0,.2,0,.4v.8c0,.1,0,.2,0,.2,0,.1,0,.1,0,.1h-4.2v3.8h0c0,.1,0,.2-.2.2h-.3Z"/>
          <path class="cls-5" d="M538.5,226.5c-.7,0-1.3-.1-1.9-.3s-1-.6-1.4-1-.7-1-.9-1.6-.3-1.4-.3-2.3v-1.6h-5.3s0-.1,0-.2,0-.2,0-.3v-1c0-.1,0-.2,0-.3,0-.1,0-.1,0-.2s0,0,.2,0h13c.3,0,.5.1.6.2s.2.3.2.5v3.9c0,.3,0,.6-.2,1,0,.4-.2.8-.5,1.2-.2.4-.5.7-.8,1s-.7.5-1.2.6c-.5.4-1,.4-1.5.4ZM538.3,224.6c.6,0,1.1-.1,1.4-.3.4-.2.7-.5.9-.8s.3-.6.4-1,0-.7,0-1v-1.7h-5.7v1.7c0,.6,0,1,.2,1.4,0,.4.3.7.6.9.3.3.6.4.9.6.4.1.8.2,1.2.2Z"/>
        </g>
        <g class="cls-15">
          <path class="cls-5" d="M535.7,241.2c-1.1,0-2.2-.1-3.1-.4-.9-.3-1.7-.7-2.3-1.2s-1.1-1.2-1.5-2-.5-1.7-.5-2.8.2-2,.5-2.8.8-1.4,1.4-1.9c.6-.5,1.4-.9,2.2-1.1.9-.2,1.9-.4,3.1-.4s2.1.1,3,.4c.9.3,1.7.7,2.3,1.2s1.1,1.2,1.5,2c.3.8.5,1.7.5,2.8s-.2,1.9-.5,2.7-.8,1.4-1.4,1.9c-.6.5-1.3.9-2.2,1.1-.8.4-1.8.5-3,.5ZM535.6,239.2c.8,0,1.5-.1,2.2-.2s1.3-.4,1.8-.7.9-.8,1.2-1.3c.3-.6.4-1.2.4-2s-.2-1.5-.5-2c-.3-.6-.7-1-1.2-1.3s-1.1-.6-1.8-.7-1.4-.2-2.1-.2-1.6.1-2.3.2c-.7.1-1.3.4-1.8.7s-.9.8-1.2,1.3-.4,1.2-.4,2.1.2,1.5.5,2.1.7,1,1.2,1.4c.5.3,1.1.6,1.8.7.7-.1,1.4-.1,2.2-.1Z"/>
        </g>
        <g class="cls-15">
          <path class="cls-5" d="M529.2,254.5c-.2.1-.3.1-.4.1s-.2,0-.2-.1c0-.1,0-.2,0-.3v-1c0-.1,0-.2,0-.3,0-.1,0-.1,0-.2,0,0,0-.1.2-.1l3.4-1.2v-5.9l-3.4-1.2c0,0,0-.1-.2-.1,0,0,0-.1,0-.2s0-.2,0-.3v-1c0-.1,0-.2,0-.3q0-.1.2-.1c0,0,.2,0,.4.1l13.1,4.7c0,0,0,.1.2.1s0,.1,0,.2,0,.2,0,.3v1.1c0,.2,0,.3,0,.4,0,.1,0,.2,0,.2q0,.1-.2.1l-13.1,5ZM540.7,248.4h0l-7-2.4v4.9l7-2.5Z"/>
        </g>
      </g>
      <g id="text105">
        <g class="cls-15">
          <path class="cls-5" d="M502.7,142.7c-.2.1-.3.1-.4.1s-.2,0-.2-.1c-.1-.1-.1-.2-.1-.3v-1c0-.1,0-.2.1-.3,0-.1.1-.1.1-.2,0,0,.1-.1.2-.1l3.4-1.2v-5.9l-3.4-1.2c-.1,0-.1-.1-.2-.1,0,0-.1-.1-.1-.2s-.1-.2-.1-.3v-1c0-.1.1-.2.1-.3q.1-.1.2-.1c.1,0,.2,0,.4.1l13.1,4.7c0,0,0,.1.2.1s0,.1,0,.2,0,.2,0,.3v1.1c0,.2,0,.3,0,.4,0,.1,0,.2,0,.2q0,.1-.2.1l-13.1,5ZM514.2,136.6h0l-7-2.4v4.9l7-2.5Z"/>
          <path class="cls-5" d="M509.2,155.9c-1.2,0-2.3-.2-3.2-.5-.9-.3-1.7-.8-2.3-1.4s-1-1.3-1.3-2.2-.4-1.9-.4-3.1v-3c0-.2.1-.3.2-.5.1-.1.3-.2.6-.2h12.6c.3,0,.5.1.6.2,0,.1.2.3.2.5v3.2c0,1.2-.2,2.3-.5,3.1s-.8,1.5-1.4,2.1c-.6.6-1.3,1-2.2,1.3-.8.3-1.8.5-2.9.5ZM509.2,153.9c.8,0,1.5-.1,2.1-.3.7-.2,1.2-.5,1.7-.9s.9-.9,1.1-1.5c.3-.6.4-1.4.4-2.4v-1.9h-11v1.9c0,.9.1,1.7.3,2.3.2.6.6,1.1,1,1.5s1,.7,1.8.9,1.6.4,2.6.4Z"/>
          <path class="cls-5" d="M505.9,166.4c-.7,0-1.2-.1-1.8-.4-.5-.2-1-.6-1.3-1-.4-.4-.6-.9-.8-1.5s-.3-1.2-.3-1.9,0-.9.1-1.3.2-.8.3-1.1.2-.6.4-.8c.1-.2.2-.4.3-.4.1-.1.2-.1.3-.2.1,0,.3-.1.5-.1h.4c.1,0,.2,0,.3.1.1,0,.1.1.1.1v.2c0,.1-.1.2-.2.4s-.3.4-.4.7-.3.6-.4,1.1c-.1.4-.2.9-.2,1.4s.1.8.2,1.1.3.6.5.9c.2.2.4.4.7.6.3.1.6.2,1,.2s.7-.1,1-.3.5-.4.7-.7.4-.6.6-1,.4-.8.5-1.2c.2-.4.4-.8.6-1.2s.5-.7.8-1,.7-.5,1.1-.7.9-.3,1.5-.3,1.1.1,1.6.3.8.5,1.2.9.6.8.7,1.4.2,1.1.2,1.7,0,.6,0,.9,0,.6-.2.9c0,.3-.2.5-.3.7s-.2.4-.3.4q0,.1-.2.1t-.2.1h-1.1c0,0,0-.1-.2-.1h0c0-.2,0-.3.2-.5,0-.2.2-.4.3-.6s.2-.5.3-.9.2-.7.2-1.1,0-.7-.2-1c0-.3-.2-.5-.4-.7s-.4-.3-.6-.4c-.2-.1-.5-.1-.8-.1s-.7.1-1,.3-.5.4-.8.7-.4.6-.6,1-.4.8-.5,1.2c-.2.4-.4.8-.6,1.2s-.5.7-.8,1-.7.5-1.1.7c-.1.1-.6.2-1.2.2Z"/>
          <path class="cls-5" d="M502.7,177.3h-.3c-.1,0-.2-.1-.2-.1-.1,0-.1-.1-.1-.1h0v-7.5h0c0-.1.1-.2.1-.2.1,0,.1-.1.2-.1h.6c.1,0,.2,0,.2.1.1,0,.1.1.1.1v3.1h10.7l-1.6-2.7c0-.1,0-.2,0-.3v-.2c0-.1,0-.1.2-.1h.9c0,0,0,.1.2.1s0,.1,0,.2l2.1,3.2s0,.1,0,.1v1.1c0,0,0,.2,0,.3h0c0,.1,0,.1,0,.1h-12.4v2.7c0,.1-.1.1-.1.1-.1,0-.1.1-.2.1s0,0-.2,0Z"/>
          <path class="cls-5" d="M502.7,188.6h-.3c-.1,0-.2-.1-.2-.1-.1,0-.1-.1-.1-.1h0v-7.5h0c0-.1.1-.2.1-.2.1,0,.1-.1.2-.1h.6c.1,0,.2,0,.2.1.1,0,.1.1.1.1v3.1h10.7l-1.6-2.7c0-.1,0-.2,0-.3v-.2c0-.1,0-.1.2-.1h.9c0,0,0,.1.2.1s0,.1,0,.2l2.1,3.2s0,.1,0,.1v1.1c0,0,0,.2,0,.3h0c0,.1,0,.1,0,.1h-12.4v2.7c0,.1-.1.1-.1.1-.1,0-.1.1-.2.1s0,0-.2,0Z"/>
          <path class="cls-5" d="M502.7,199.9h-.3c-.1,0-.2-.1-.2-.1-.1,0-.1-.1-.1-.1h0v-7.5h0c0-.1.1-.2.1-.2.1,0,.1-.1.2-.1h.6c.1,0,.2,0,.2.1.1,0,.1.1.1.1v3.1h10.7l-1.6-2.7c0-.1,0-.2,0-.3v-.2c0-.1,0-.1.2-.1h.9c0,0,0,.1.2.1s0,.1,0,.2l2.1,3.2s0,.1,0,.1v1.1c0,0,0,.2,0,.3h0c0,.1,0,.1,0,.1h-12.4v2.7c0,.1-.1.1-.1.1-.1,0-.1.1-.2.1s0,0-.2,0Z"/>
          <path class="cls-5" d="M506.5,211.1c-.8,0-1.4-.1-2-.4-.6-.3-1.1-.6-1.5-1.1s-.7-1-.9-1.7c-.2-.6-.3-1.4-.3-2.1s0-.9.1-1.2c.1-.4.1-.7.2-1s.2-.6.3-.8c.1-.2.2-.3.2-.4s.1-.1.1-.1c0,0,.1,0,.2-.1h.8c.1,0,.2,0,.2.1.1,0,.1.1.1.1h0c0,.2,0,.3-.1.4s-.2.4-.3.6-.2.6-.3,1c-.1.4-.1.8-.1,1.4s.1.9.2,1.3c.1.4.3.8.5,1.1s.6.5.9.7c.4.2.8.2,1.4.2s.8-.1,1.2-.2c.3-.1.6-.4.9-.7s.4-.7.5-1.1c.1-.5.2-1,.2-1.6s0-.8-.1-1.1c0-.3-.1-.6-.1-.9s0-.3.1-.4c.1-.1.3-.1.5-.1h5.7c.2,0,.4.1.5.2,0,.1.2.3.2.5v6.4c0,.1,0,.1,0,.1,0,0,0,.1-.3.1h-.4c-.3,0-.5,0-.6-.1s-.2-.2-.2-.3v-5h-4c0,.2.1.5.1.8v.9c0,.8-.1,1.5-.3,2s-.5,1.1-.8,1.5-.8.7-1.3.9c-.2,0-.8.1-1.4.1Z"/>
        </g>
      </g>
      <g id="text109">
        <g class="cls-15">
          <path class="cls-5" d="M464.2,30.5h0c0,.1-.1.2-.1.2q-.1,0-.2.1c-.1.1-.2,0-.4,0h-.5c-.1,0-.2-.1-.3-.1s-.1-.1-.2-.2l-4.4-6v6h0c0,.1-.1.2-.1.2q-.1,0-.2.1h-.8c-.1,0-.2,0-.2-.1-.1,0-.1-.1-.1-.1h0v-11.5h0c0-.1.1-.2.1-.2,0,0,.1,0,.2-.1h.8c.1,0,.2,0,.2.1.1,0,.1.1.1.1h0v5.4l4.2-5.3c0-.1.1-.1.1-.1,0,0,.1-.1.2-.1s.2,0,.3-.1h.8c.1,0,.2,0,.2.1.1,0,.1.1.1.1h0c0,.2,0,.3-.1.3,0,.1-.1.2-.2.3l-4,4.7,4.3,5.7c.1.2.2.3.2.3v.2Z"/>
        </g>
        <g class="cls-15">
          <path class="cls-5" d="M470,26.1v4.4h0c0,.1-.1.2-.1.2q-.1,0-.2.1h-.8c-.1,0-.2,0-.2-.1-.1,0-.1-.1-.1-.1h0v-4.5l-3.4-6.7c-.1-.1-.1-.3-.1-.3v-.2s.1-.1.2-.1h.9c.1,0,.2,0,.3.1s.1.1.2.1c0,0,.1.1.1.2l1.6,3.4c.2.3.3.7.5,1,.2.4.3.7.5,1.1h0c.1-.4.3-.7.4-1,.2-.3.3-.7.5-1l1.7-3.4q0-.1.1-.2h.1l.2-.2h.9c.1,0,.2,0,.3.1,0,0,.1.1.1.2s-.1.2-.1.3l-3.6,6.6Z"/>
        </g>
        <g class="cls-15">
          <path class="cls-5" d="M477.9,26.1c0,.2,0,.4-.1.5s-.1.1-.2.1h-3.9c-.1,0-.2,0-.2-.1-.1-.1-.1-.3-.1-.5s0-.4.1-.5.1-.1.2-.1h4.1q0,.2.1.3v.3Z"/>
          <path class="cls-5" d="M487.4,24.8c0,.9-.1,1.8-.2,2.5s-.4,1.4-.7,2c-.3.5-.8,1-1.3,1.3s-1.2.4-2,.4-1.4-.1-1.9-.4-.9-.7-1.2-1.2c-.3-.5-.5-1.2-.7-1.9-.1-.8-.2-1.6-.2-2.6s.1-1.7.2-2.5.4-1.4.7-2c.3-.5.8-1,1.3-1.3s1.2-.4,2-.4,1.4.1,1.9.4.9.7,1.2,1.2c.3.5.5,1.2.7,1.9.2.7.2,1.6.2,2.6ZM485.8,24.9c0-.6,0-1.1-.1-1.6,0-.5-.1-.9-.2-1.3s-.2-.7-.3-.9c-.1-.3-.3-.5-.5-.6-.2-.2-.4-.3-.6-.4s-.5-.1-.8-.1c-.5,0-.9.1-1.3.4-.3.2-.6.6-.8,1-.2.4-.3.9-.4,1.5s-.1,1.2-.1,1.9,0,1.6.1,2.3.2,1.1.4,1.5c.2.4.5.7.8.9.3.2.7.3,1.1.3s.6-.1.9-.2.5-.3.7-.5.3-.5.5-.7c.1-.3.2-.6.3-1,.1-.3.1-.7.2-1.1,0-.5,0-1,0-1.4Z"/>
          <path class="cls-5" d="M496.6,27c0,.6-.1,1.2-.3,1.7-.2.5-.5.9-.9,1.3-.4.3-.9.6-1.4.8-.5.2-1.1.3-1.8.3s-.7,0-1.1-.1c-.3-.1-.6-.1-.9-.2s-.5-.2-.6-.2c-.2-.1-.3-.1-.3-.2s-.1-.1-.1-.1c0,0,0-.1-.1-.1v-.8c0-.1,0-.2.1-.2,0-.1.1-.1.1-.1h.1c.1,0,.2,0,.3.1.1.1.3.2.5.2.2.1.5.2.8.3.3.1.7.1,1.1.1s.8,0,1.1-.1c.3-.1.6-.3.9-.5s.4-.5.6-.8c.1-.3.2-.7.2-1.2s-.1-.7-.2-1-.3-.5-.6-.7c-.2-.2-.6-.3-.9-.4-.4-.1-.8-.1-1.4-.1s-.7,0-1,.1c-.3,0-.5.1-.8.1s-.3,0-.4-.1-.1-.2-.1-.5v-4.9c0-.2,0-.4.1-.5s.2-.1.4-.1h5.5c0,.2.1.2.1.3v.3c0,.2,0,.4-.1.5s-.1.2-.2.2h-4.3v3.3c.2,0,.4,0,.6-.1h.8c.7,0,1.2.1,1.7.2s.9.4,1.2.7c.3.3.6.7.7,1.1.5.4.6.8.6,1.4Z"/>
          <path class="cls-5" d="M506.1,27.4c0,.5-.1,1-.3,1.5s-.5.8-.8,1.1-.8.6-1.3.7-1.1.3-1.8.3-.8,0-1.1-.1c-.3-.1-.7-.1-.9-.2-.3-.1-.5-.2-.7-.3-.2-.1-.3-.2-.3-.2h-.1c0-.1,0-.2-.1-.3s0-.1,0-.2v-.3c0-.2,0-.4.1-.5s.1-.1.2-.1.2,0,.3.1.4.2.6.3c.3.1.6.2.9.3.3.1.7.1,1.2.1s.8-.1,1.1-.2c.3-.1.6-.3.8-.4s.4-.4.5-.7.2-.5.2-.9-.1-.6-.2-.9-.3-.5-.6-.7c-.3-.2-.6-.3-1-.5-.4-.1-.8-.2-1.3-.2h-1.4c0-.1-.1-.2-.1-.3v-.6q0-.1.1-.2h.1c0-.1.1-.1.1-.1h1c.4,0,.8-.1,1.1-.2s.6-.3.8-.5c.2-.2.4-.4.5-.7.1-.3.2-.6.2-.9s0-.5-.1-.7-.2-.4-.4-.6c-.2-.2-.4-.3-.6-.4s-.5-.1-.9-.1-.7.1-1,.2-.6.2-.8.3-.4.2-.6.3c-.2.1-.3.2-.3.2h-.1s-.1,0-.1-.1v-.9q0-.1.1-.1s.1-.1.1-.2c.1-.1.2-.1.4-.3.2-.1.4-.2.7-.3.3-.1.6-.2.9-.3s.7-.1,1.1-.1c.6,0,1,.1,1.5.2.4.1.8.3,1,.6.3.3.5.6.6.9.1.4.2.8.2,1.2s0,.7-.1,1-.2.6-.4.9-.4.5-.7.6c-.3.2-.6.3-1,.4h0c.4,0,.8.1,1.1.3s.6.4.9.6c.2.2.4.5.6.9,0,.5,0,.9,0,1.3Z"/>
        </g>
      </g>
      <g id="text113">
        <g class="cls-15">
          <path class="cls-5" d="M427.6,41.8c0,0-.1,0-.1.2s-.1,0-.2,0h-1.4s-.1,0-.1,0c0,0-.1,0-.1,0,0,0,0,0-.1,0l-3.6-10.3c0-.1-.1-.2-.1-.3s0-.1.1-.2c.1,0,.1-.1.2-.1h1.1c.1,0,.1.1.1.1,0,0,0,.1.1.1l3.2,9.3h0l3.1-9.3q0-.1.1-.2h.1q.1-.1.2-.1h.8c.1,0,.2,0,.2.1s.1.1,0,.2c0,.1,0,.2-.1.3l-3.5,10.4Z"/>
          <path class="cls-5" d="M441.6,36.3c0,1-.1,1.8-.4,2.5-.2.7-.6,1.3-1.1,1.8s-1.1.8-1.7,1.1-1.5.3-2.4.3h-2.3c-.1,0-.3,0-.4,0s-.2-.2-.2-.5v-9.9c0-.2.1-.4.2-.5s.2-.1.4-.1h2.5c1,0,1.8.1,2.4.4.7.2,1.2.6,1.7,1.1.4.5.8,1,1,1.7.2.6.3,1.4.3,2.2ZM440,36.4c0-.6-.1-1.2-.2-1.7s-.4-1-.7-1.3c-.3-.4-.7-.7-1.2-.9s-1.1-.3-1.9-.3h-1.5v8.6h1.5c.7,0,1.3,0,1.8-.3s.9-.4,1.2-.8c.3-.4.6-.8.7-1.4.3-.5.3-1.2.3-1.9Z"/>
          <path class="cls-5" d="M452.4,36.3c0,1-.1,1.8-.4,2.5-.2.7-.6,1.3-1.1,1.8s-1,.8-1.7,1.1-1.5.4-2.5.4h-2.3c-.1,0-.3,0-.4,0s-.2-.2-.2-.5v-9.9c0-.2.1-.4.2-.5s.2-.1.4-.1h2.5c1,0,1.8.1,2.4.4.7.2,1.2.6,1.7,1.1.4.5.8,1,1,1.7.3.5.4,1.3.4,2.1ZM450.8,36.4c0-.6-.1-1.2-.2-1.7s-.4-1-.7-1.3c-.3-.4-.7-.7-1.2-.9s-1.1-.3-1.9-.3h-1.5v8.6h1.5c.7,0,1.3,0,1.8-.3s.9-.4,1.2-.8c.3-.4.6-.8.7-1.4.3-.5.3-1.2.3-1.9Z"/>
        </g>
      </g>
      <g id="text117">
        <g class="cls-15">
          <path class="cls-5" d="M431.3,62.8v.3c0,0,0,.2-.1.2s-.1,0-.1,0h-.1c-.1,0-.2,0-.4-.2s-.4-.3-.7-.4-.7-.3-1.1-.4c-.4,0-.9-.2-1.5-.2s-1.3,0-1.8.4c-.5.2-1,.6-1.4,1s-.7,1-.9,1.6c-.2.6-.3,1.3-.3,2s.1,1.5.3,2.1.5,1.1.9,1.5.9.7,1.4,1,1.1.3,1.8.3.8,0,1.2,0c.4,0,.8-.2,1.1-.4v-3.6h-2.9c-.1,0-.2,0-.2-.2-.1,0-.1-.3-.1-.5v-.3c0,0,0-.2.1-.2,0,0,.1,0,.1,0h4.2c.1,0,.1,0,.2,0q.1,0,.1.2v5c0,.2,0,.3-.1.4s-.2.2-.4.3c-.2,0-.4.2-.7.3-.3,0-.6.2-.9.3-.3,0-.6,0-.9.2-.3,0-.6,0-.9,0-1,0-1.8,0-2.6-.4-.8-.3-1.4-.7-1.9-1.3-.5-.5-.9-1.2-1.2-2-.3-.8-.4-1.6-.4-2.6s.1-1.9.4-2.7c.3-.8.7-1.5,1.3-2,.5-.6,1.2-1,1.9-1.3.8-.3,1.6-.5,2.5-.5s.9,0,1.3,0,.8.2,1.1.3c.3,0,.6.2.8.4.2,0,.4.2.5.3s.1.2.2.3c.2.2.2.4.2.6Z"/>
          <path class="cls-5" d="M443.8,72.8c0,0,0,.2-.1.3,0,0-.1.2-.2.2s-.1,0-.2,0h-.8c-.2,0-.3,0-.5,0-.1,0-.2,0-.4-.2-.1,0-.2-.2-.3-.4s-.2-.4-.4-.6l-3.8-7c-.2-.4-.4-.7-.6-1.1s-.4-.8-.6-1.2h0v10.3h0c0,0-.1.2-.1.2q-.1,0-.3,0h-.8c-.1,0-.2,0-.2,0-.1,0-.1,0-.1,0h0v-11.4c0-.3.1-.4.2-.5s.3-.2.5-.2h1.3c.1,0,.2,0,.3.2.1,0,.2.2.3.3.1,0,.2.3.3.5l2.9,5.4c.2.3.4.7.5,1,.2.3.3.6.5.9s.3.6.5.9.3.6.4.9h0v-9.9h0c0,0,.1-.2.1-.2q.1,0,.3,0c.2,0,.2,0,.4,0h.4c.1,0,.2,0,.3,0,.1,0,.1,0,.1,0h0v11.6h.1Z"/>
          <path class="cls-5" d="M456.6,67.1c0,1.1-.1,2-.4,2.8s-.7,1.5-1.2,2-1.2.9-1.9,1.2c-.8.3-1.7.4-2.7.4h-2.6c-.1,0-.3,0-.4,0s-.2-.3-.2-.5v-11c0-.2.1-.4.2-.5s.3,0,.4,0h2.8c1.1,0,2,0,2.7.4.7.3,1.4.7,1.9,1.2s.9,1.1,1.1,1.9c.1.5.3,1.4.3,2.3ZM454.8,67.2c0-.7-.1-1.3-.2-1.9-.2-.6-.4-1.1-.8-1.5s-.8-.7-1.3-1-1.2-.4-2.1-.4h-1.7v9.6h1.7c.8,0,1.5,0,2-.3s1-.5,1.4-.9.6-.9.8-1.5c.1-.6.2-1.3.2-2.1Z"/>
        </g>
      </g>
      <g id="text121">
        <g class="cls-15">
          <path class="cls-5" d="M431,99.7c0,.5-.1,1-.3,1.4-.2.4-.5.8-.8,1.1-.3.3-.8.5-1.2.7-.5,0-1,.2-1.5.2s-.7,0-1.1,0c-.3,0-.6,0-.9-.2s-.5-.2-.6-.3c-.2,0-.3-.2-.4-.3-.1,0-.1-.2-.1-.3v-.7c0-.1,0-.2.1-.2s.1,0,.1,0h.1c.1,0,.2,0,.3,0,.1,0,.3.2.6.3.2,0,.5.2.8.3.3,0,.7.2,1.1.2s.6,0,.9,0,.5-.2.7-.4c.2-.2.3-.4.5-.6.1-.2.2-.5.2-.8s-.1-.6-.2-.8c-.1-.2-.3-.4-.6-.6-.2-.2-.5-.3-.8-.5-.3,0-.6-.3-.9-.4s-.6-.3-.9-.5-.6-.4-.8-.6c-.2-.2-.4-.5-.6-.9-.1-.3-.2-.7-.2-1.2s.1-.9.3-1.3c.2-.4.4-.7.7-.9.3-.3.7-.4,1.1-.6.4,0,.9-.2,1.4-.2s.5,0,.8,0c.3,0,.5,0,.7.2s.4.2.6.2c.2,0,.3.2.3.2h.1v1.2s0,0-.1,0h-.1c-.1,0-.2,0-.3,0-.1,0-.3-.2-.5-.3-.2,0-.4-.2-.7-.3-.3,0-.6,0-.9,0s-.6,0-.8,0c-.2,0-.4.2-.6.3-.2,0-.3.3-.3.5s-.1.4-.1.6c0,.3.1.6.2.8.1.2.3.4.6.6.2.2.5.3.8.5.3,0,.6.3,1,.4.3,0,.6.3,1,.5.3.2.6.4.8.6.2.2.4.5.6.9-.2.5-.1.8-.1,1.3Z"/>
          <path class="cls-5" d="M440.8,101.3v.4q0,0-.1,0h-.1c0,0-.2.2-.4.4-.2,0-.4.2-.7.4-.3,0-.6.2-1,.3-.4,0-.8,0-1.2,0-.7,0-1.4,0-2-.4-.6-.2-1.1-.6-1.5-1.1s-.7-1.1-1-1.8c-.2-.7-.3-1.5-.3-2.4s.1-1.8.4-2.5c.2-.7.6-1.4,1-1.9s1-.9,1.6-1.2c.6-.3,1.3-.4,2-.4s.6,0,1,0c.3,0,.6,0,.9.2s.5.2.7.3c.2,0,.3.2.4.3l.2.2c.1,0,0,0,.1,0s0,0,0,.2v.6c0,0,0,.2-.1.2,0,0-.1,0-.1,0h-.1c-.1,0-.2,0-.3-.2-.1,0-.3-.2-.6-.4-.2,0-.5-.3-.8-.4s-.7-.2-1.2-.2-1,0-1.4.3c-.4.2-.8.5-1.1.9-.3.4-.5.9-.7,1.4s-.2,1.2-.2,1.9.1,1.4.2,1.9.4,1,.7,1.4c.3.4.7.7,1.1.8.4.2.9.3,1.4.3s.9,0,1.2-.2c.3,0,.6-.2.9-.4.2,0,.4-.3.6-.4s.3-.2.4-.2h.2v.3c0,0-.1.7-.1.9Z"/>
          <path class="cls-5" d="M448.7,102.2v.3q0,.1-.1.2h-.1c0,0-.1,0-.1,0h-5c-.1,0-.3,0-.4,0s-.2-.3-.2-.5v-10.5h0c0,0,.1-.2.1-.2,0,0,.1,0,.2,0h.8c.1,0,.2,0,.2,0q.1,0,.1,0h0v10h4.3c0,0,0,.2.1.3s0,.2,0,.3Z"/>
        </g>
      </g>
      <g id="text125">
        <g class="cls-15">
          <path class="cls-5" d="M430.2,130c0,.7-.1,1.2-.4,1.8-.2.5-.6,1-1,1.3-.4.4-.9.6-1.5.8s-1.2.3-1.9.3-.9,0-1.3-.1-.8-.2-1.1-.3c-.3-.1-.6-.2-.8-.4-.2-.1-.4-.2-.4-.3-.1-.1-.1-.2-.2-.3,0-.1-.1-.3-.1-.5v-.4c0,0,0-.2.1-.3,0-.1.1-.1.1-.1h.2c.1,0,.2.1.4.2s.4.3.7.4c.3.1.6.3,1.1.4s.9.2,1.4.2.8-.1,1.1-.2.6-.3.9-.5c.2-.2.4-.4.6-.7.1-.3.2-.6.2-1s-.1-.7-.3-1c-.2-.3-.4-.5-.7-.7-.3-.2-.6-.4-1-.6-.4-.2-.8-.4-1.2-.5-.4-.2-.8-.4-1.2-.6s-.7-.5-1-.8-.5-.7-.7-1.1-.3-.9-.3-1.5.1-1.1.3-1.6c.2-.5.5-.8.9-1.2.4-.3.8-.6,1.4-.7.5-.2,1.1-.2,1.7-.2s.6,0,.9,0,.6,0,.9.2.5.2.7.3c.2,0,.4.2.4.3q.1,0,.1.2t.1.2v1.1c0,0-.1,0-.1.2h-.1c-.1,0-.2,0-.4-.2-.2,0-.4-.2-.6-.3s-.5-.2-.9-.3c-.3,0-.7-.2-1.1-.2s-.7,0-1,.2-.5.2-.7.4c-.2.2-.3.4-.4.6s-.1.5-.1.8.1.7.3,1,.4.5.7.8c.3.2.6.4,1,.6s.8.4,1.2.5c.4.2.8.4,1.2.6.4.2.7.5,1,.8.3.3.5.7.7,1.1,0,.2.2.7.2,1.2Z"/>
        </g>
        <g class="cls-15">
          <path class="cls-5" d="M443.8,126.7c0,1.2-.2,2.3-.5,3.2s-.8,1.7-1.4,2.3-1.3,1-2.2,1.3c-.9.3-1.9.4-3.1.4h-3c-.2,0-.3-.1-.5-.2-.1-.1-.2-.3-.2-.6v-12.6c0-.3.1-.5.2-.6s.3-.2.5-.2h3.2c1.2,0,2.3.2,3.1.5s1.5.8,2.1,1.4,1,1.3,1.3,2.2c.3.9.5,1.9.5,2.9ZM441.8,126.8c0-.8-.1-1.5-.3-2.1-.2-.7-.5-1.2-.9-1.7s-.9-.9-1.5-1.1c-.6-.3-1.4-.4-2.4-.4h-1.9v11h1.9c.9,0,1.7-.1,2.3-.3s1.1-.6,1.5-1,.7-1,.9-1.8.4-1.6.4-2.6Z"/>
        </g>
        <g class="cls-15">
          <path class="cls-5" d="M456.9,133.3c.1.2.1.3.1.4s0,.2-.1.2c-.1.1-.2.1-.3.1h-1c-.1,0-.2,0-.3-.1s-.1-.1-.2-.1c0,0-.1-.1-.1-.2l-1.2-3.4h-5.9l-1.2,3.4c0,.1-.1.1-.1.2,0,0-.1.1-.2.1s-.2.1-.3.1h-1c-.1,0-.2-.1-.3-.1s-.1-.1-.1-.2,0-.2.1-.4l4.7-13.1c0,0,.1,0,.1-.2s.1,0,.2,0,.2,0,.3,0h1.1c.2,0,.3,0,.4,0,.1,0,.2,0,.2,0q.1,0,.1.2l5,13.1ZM450.8,121.8h0l-2.4,7h4.9l-2.5-7Z"/>
        </g>
      </g>
      <g id="text129">
        <g class="cls-15">
          <path class="cls-5" d="M433.8,163.8c.1.2.1.3.1.4s0,.2-.1.2c-.1.1-.2.1-.3.1h-1c-.1,0-.2,0-.3-.1s-.1-.1-.2-.1c0,0-.1-.1-.1-.2l-1.2-3.4h-5.9l-1.2,3.4c0,.1-.1.1-.1.2,0,0-.1.1-.2.1s-.2.1-.3.1h-1c-.1,0-.2-.1-.3-.1s-.1-.1-.1-.2,0-.2.1-.4l4.7-13.1c0-.1.1-.1.1-.2s.1-.1.2-.1.2,0,.3-.1h1.1c.2,0,.3,0,.4.1.1,0,.2.1.2.1q.1.1.1.2l5,13.1ZM427.8,152.2h0l-2.4,7h4.9l-2.5-7Z"/>
          <path class="cls-5" d="M447,157.2c0,1.2-.2,2.3-.5,3.2s-.8,1.7-1.4,2.3-1.3,1-2.2,1.3c-.9.3-1.9.4-3.1.4h-3c-.2,0-.3-.1-.5-.2-.1-.1-.2-.3-.2-.6v-12.6c0-.3.1-.5.2-.6s.3-.2.5-.2h3.2c1.2,0,2.3.2,3.1.5.8.3,1.5.8,2.1,1.4.6.6,1,1.3,1.3,2.2.4.9.5,1.8.5,2.9ZM445.1,157.3c0-.8-.1-1.5-.3-2.1-.2-.7-.5-1.2-.9-1.7s-.9-.9-1.5-1.1c-.6-.3-1.4-.4-2.4-.4h-1.9v11h1.9c.9,0,1.7-.1,2.3-.3.6-.2,1.1-.6,1.5-1s.7-1,.9-1.8.4-1.7.4-2.6Z"/>
          <path class="cls-5" d="M460.8,157.2c0,1.2-.2,2.3-.5,3.2s-.8,1.7-1.4,2.3-1.3,1-2.2,1.3c-.9.3-1.9.4-3.1.4h-3c-.2,0-.3-.1-.5-.2-.1-.1-.2-.3-.2-.6v-12.6c0-.3.1-.5.2-.6s.3-.2.5-.2h3.2c1.2,0,2.3.2,3.1.5.8.3,1.5.8,2.1,1.4.6.6,1,1.3,1.3,2.2.3.9.5,1.8.5,2.9ZM458.8,157.3c0-.8-.1-1.5-.3-2.1-.2-.7-.5-1.2-.9-1.7s-.9-.9-1.5-1.1c-.6-.3-1.4-.4-2.4-.4h-1.9v11h1.9c.9,0,1.7-.1,2.3-.3.6-.2,1.1-.6,1.5-1s.7-1,.9-1.8.4-1.7.4-2.6Z"/>
          <path class="cls-5" d="M473.1,164.2v.2c0,0-.1.1-.1.1-.1,0-.2.1-.3.1h-1c-.1,0-.2,0-.3-.1-.1,0-.1-.1-.2-.1,0-.1-.1-.1-.1-.2l-1.3-3.3c-.2-.4-.3-.7-.5-1s-.4-.6-.6-.8-.5-.4-.8-.5-.7-.2-1.1-.2h-1.3v6.2s-.1.1-.2.1-.2,0-.3.1h-1c-.1,0-.2,0-.3-.1-.1,0-.1-.1-.2-.1s0-.1,0-.2v-13.1c0-.3.1-.5.2-.6s.3-.2.5-.2h3.9c.2,0,.4,0,.6.1.5.1,1,.2,1.4.4s.8.5,1.1.8c.3.3.5.7.6,1.1s.2.8.2,1.3-.1.9-.2,1.3c-.1.4-.3.7-.6,1-.2.3-.5.5-.9.7s-.7.4-1.1.5c.2.1.4.2.6.4s.4.3.5.6c.2.2.3.5.5.8.1.3.3.6.4,1l1.3,3.1c.1.3.2.4.2.6.4-.2.4-.1.4,0ZM470.2,154.3c0-.6-.1-1-.4-1.4s-.7-.7-1.2-.8c-.2-.1-.4-.1-.6-.1h-2.5v4.8h1.8c.5,0,.9-.1,1.3-.2.4-.1.7-.3.9-.5.2-.2.4-.5.5-.8.2-.4.2-.7.2-1Z"/>
        </g>
      </g>
      <g id="text133">
        <g class="cls-15">
          <path class="cls-5" d="M434.1,193.8c.1.2.1.3.1.4s0,.2-.1.2c-.1.1-.2.1-.3.1h-1c-.1,0-.2,0-.3-.1s-.1-.1-.2-.1c0,0-.1-.1-.1-.2l-1.2-3.4h-5.9l-1.2,3.4c0,.1-.1.1-.1.2,0,0-.1.1-.2.1s-.2.1-.3.1h-1c-.1,0-.2-.1-.3-.1s-.1-.1-.1-.2,0-.2.1-.4l4.7-13.1c0-.1.1-.1.1-.2s.1-.1.2-.1.2,0,.3-.1h1.1c.2,0,.3,0,.4.1.1,0,.2.1.2.1q.1.1.1.2l5,13.1ZM428.1,182.2h0l-2.4,7h4.9l-2.5-7Z"/>
          <path class="cls-5" d="M443.8,193.6v.4c0,.1,0,.2-.1.3,0,.1-.1.1-.1.2h-6.4c-.2,0-.3-.1-.5-.2-.1-.1-.2-.3-.2-.6v-13.3c0,0,.1-.1.2-.1s.2,0,.3-.1h.9c.1,0,.2,0,.3.1.1,0,.1.1.2.1v12.4h5.4c0,.2.1.2.1.3,0,.3,0,.4,0,.5Z"/>
        </g>
        <g class="cls-15">
          <path class="cls-5" d="M455.3,194.2v.2h-.1c-.1.1-.2.2-.3.2h-1c-.1,0-.2,0-.3-.1-.1,0-.1-.1-.2-.1,0-.1-.1-.1-.1-.2l-1.3-3.3c-.2-.4-.3-.7-.5-1s-.4-.6-.6-.8-.5-.4-.8-.5-.7-.2-1.1-.2h-1.3v6.2s-.1.1-.2.1-.2,0-.3.1h-1q-.2,0-.3-.1c-.1,0-.1-.1-.2-.1s0-.1,0-.2v-13.1c0-.3.1-.5.2-.6s.3-.2.5-.2h3.9c.2,0,.4,0,.6.1.5.1,1,.2,1.4.4s.8.5,1.1.8.5.7.6,1.1.2.8.2,1.3-.1.9-.2,1.3c-.1.4-.3.7-.5,1s-.5.5-.9.7-.7.4-1.1.5c.2.1.4.2.6.4s.4.3.5.6c.2.2.3.5.5.8.1.3.3.6.4,1l1.3,3.1c.1.3.2.4.2.6.3-.2.3-.1.3,0ZM452.5,184.3c0-.6-.1-1-.4-1.4s-.7-.7-1.2-.8c-.2-.1-.4-.1-.6-.1h-2.5v4.8h1.8c.5,0,.9-.1,1.3-.2.4-.1.7-.3.9-.5.2-.2.4-.5.5-.8.1-.4.2-.7.2-1Z"/>
        </g>
        <g class="cls-15">
          <path class="cls-5" d="M466.6,181.2v.4c0,.1,0,.2-.1.2,0,.1-.1.1-.1.1h-4.2v12.4c0,0-.1.1-.2.1s-.2,0-.3.1-.3,0-.5,0h-.4c-.1,0-.2,0-.3-.1s-.1-.1-.2-.1v-12.3h-4.3c0-.2-.1-.2-.1-.3v-.8c0-.1,0-.2.1-.3,0-.1.1-.1.1-.1h10.3c0,.2.1.3.1.4.1,0,.1,0,.1.3Z"/>
        </g>
      </g>
      <g id="text137">
        <g class="cls-15">
          <path class="cls-5" d="M432.7,222.3c.1.2.1.3.1.4s0,.2-.1.2c-.1.1-.2.1-.3.1h-1c-.1,0-.2,0-.3-.1s-.1-.1-.2-.1c0,0-.1-.1-.1-.2l-1.2-3.4h-5.9l-1.2,3.4c0,.1-.1.1-.1.2,0,0-.1.1-.2.1s-.2.1-.3.1h-1c-.1,0-.2-.1-.3-.1s-.1-.1-.1-.2,0-.2.1-.4l4.7-13.1c0-.1.1-.1.1-.2s.1-.1.2-.1.2,0,.3-.1h1.1c.2,0,.3,0,.4.1.1,0,.2.1.2.1q.1.1.1.2l5,13.1ZM426.6,210.7h0l-2.4,7h4.9l-2.5-7Z"/>
          <path class="cls-5" d="M443.7,215.9c0,1.1-.1,2.1-.3,3s-.5,1.7-.8,2.3c-.4.6-.9,1.1-1.6,1.5s-1.4.5-2.4.5-1.6-.2-2.2-.5-1.1-.8-1.5-1.4c-.4-.6-.6-1.4-.8-2.3-.2-.9-.2-1.9-.2-3.1s.1-2.1.3-3c.2-.9.5-1.7.9-2.3s.9-1.1,1.5-1.5,1.4-.5,2.4-.5,1.6.2,2.2.5,1.1.8,1.5,1.4c.4.6.6,1.4.8,2.3.1.9.2,1.9.2,3.1ZM441.8,216c0-.7,0-1.3-.1-1.9-.1-.6-.1-1.1-.2-1.5s-.2-.8-.4-1.1c-.2-.3-.3-.6-.6-.8-.2-.2-.5-.3-.7-.4-.3-.1-.6-.1-.9-.1-.6,0-1.1.1-1.5.4-.4.3-.7.7-.9,1.2-.2.5-.4,1.1-.5,1.8s-.1,1.4-.1,2.2.1,1.9.2,2.7c.1.7.3,1.3.5,1.8s.5.8.9,1,.8.3,1.3.3.8-.1,1.1-.2c.3-.1.6-.3.8-.6s.4-.5.6-.9c.1-.3.3-.7.3-1.1.1-.4.1-.9.2-1.3,0-.5,0-1,0-1.5Z"/>
        </g>
      </g>
      <g id="text141">
        <g class="cls-15">
          <path class="cls-5" d="M433.2,252.6c.1.2.1.3.1.4s0,.2-.1.2c-.1.1-.2.1-.3.1h-1c-.1,0-.2,0-.3-.1s-.1-.1-.2-.1c0,0-.1-.1-.1-.2l-1.2-3.4h-5.9l-1.2,3.4c0,.1-.1.1-.1.2,0,0-.1.1-.2.1s-.2.1-.3.1h-1c-.1,0-.2-.1-.3-.1s-.1-.1-.1-.2,0-.2.1-.4l4.7-13.1c0-.1.1-.1.1-.2s.1-.1.2-.1.2,0,.3-.1h1.1c.2,0,.3,0,.4.1.1,0,.2.1.2.1q.1.1.1.2l5,13.1ZM427.1,241h0l-2.4,7h4.9l-2.5-7Z"/>
          <path class="cls-5" d="M443.8,252.5v.3c0,.1-.1.2-.1.2,0,.1-.1.1-.1.1h-7.8c0-.2-.1-.2-.1-.3v-.6c0-.1,0-.2.1-.2,0-.1.1-.1.1-.1h3.1v-10.9l-2.7,1.6c-.1.1-.2.1-.3.1h-.2c-.1,0-.1-.1-.1-.2v-.9s.1-.1.1-.2c0,0,.1-.1.2-.1l3.2-2.1s.1,0,.1-.1h1.1c.1,0,.2,0,.3.1s.1.1.1.1h0v12.5h2.7c.1,0,.1.1.1.1,0,.1.1.1.1.2s0,.3,0,.4Z"/>
        </g>
      </g>
      <g id="text145">
        <g class="cls-15">
          <path class="cls-5" d="M432.3,283.1c.1.2.1.3.1.4s0,.2-.1.2c-.1.1-.2.1-.3.1h-1c-.1,0-.2,0-.3-.1s-.1-.1-.2-.1c0,0-.1-.1-.1-.2l-1.2-3.4h-5.9l-1.2,3.4c0,.1-.1.1-.1.2,0,0-.1.1-.2.1s-.2.1-.3.1h-1c-.1,0-.2-.1-.3-.1s-.1-.1-.1-.2,0-.2.1-.4l4.7-13.1c0-.1.1-.1.1-.2s.1-.1.2-.1.2,0,.3-.1h1.1c.2,0,.3,0,.4.1.1,0,.2.1.2.1q.1.1.1.2l5,13.1ZM426.2,271.5h0l-2.4,7h4.9l-2.5-7Z"/>
          <path class="cls-5" d="M442.8,282.9v.3c0,.1,0,.2-.1.3,0,.1-.1.1-.1.2h-8.3c0,0-.1-.1-.2-.1q-.1-.1-.1-.3v-.8c0-.1,0-.2.1-.3,0-.1.1-.2.1-.3.1-.1.1-.2.2-.3l2.8-2.9c.7-.7,1.2-1.3,1.6-1.8s.7-1,.9-1.4c.2-.4.4-.8.4-1.2.1-.4.1-.7.1-1s-.1-.6-.2-.9-.3-.5-.5-.7-.4-.4-.7-.5-.6-.2-1-.2-.9.1-1.2.2c-.4.1-.7.3-1,.4s-.5.3-.7.4-.3.2-.4.2h-.2c0-.2,0-.3-.1-.4v-.9q0-.1.1-.2c0-.1.1-.1.2-.2s.2-.2.5-.3c.2-.1.5-.3.8-.4s.7-.2,1.1-.3c.4-.1.8-.1,1.2-.1.7,0,1.3.1,1.8.3.5.2.9.5,1.3.8.3.3.6.7.8,1.2.2.4.3.9.3,1.4s0,.9-.1,1.3-.2.9-.5,1.5-.6,1.1-1.1,1.7-1.1,1.4-1.9,2.2l-2.2,2.3h6.3c.1,0,.1.1.1.1,0,0,.1.1.1.2-.2.3-.2.4-.2.5Z"/>
        </g>
      </g>
      <g id="text149">
        <g class="cls-15">
          <path class="cls-5" d="M433.4,311.6c.1.2.1.3.1.4s0,.2-.1.2c-.1.1-.2.1-.3.1h-1c-.1,0-.2,0-.3-.1s-.1-.1-.2-.1c0,0-.1-.1-.1-.2l-1.2-3.4h-5.9l-1.2,3.4c0,.1-.1.1-.1.2,0,0-.1.1-.2.1s-.2.1-.3.1h-1c-.1,0-.2-.1-.3-.1s-.1-.1-.1-.2,0-.2.1-.4l4.7-13.1c0-.1.1-.1.1-.2s.1-.1.2-.1.2,0,.3-.1h1.1c.2,0,.3,0,.4.1.1,0,.2.1.2.1q.1.1.1.2l5,13.1ZM427.3,300h0l-2.4,7h4.9l-2.5-7Z"/>
          <path class="cls-5" d="M443.9,308.2c0,.6-.1,1.2-.3,1.7-.2.5-.5,1-1,1.3-.4.4-.9.7-1.6.9-.6.2-1.3.3-2.1.3s-.9,0-1.3-.1-.8-.2-1.1-.3-.6-.2-.8-.3-.3-.2-.4-.2-.1-.1-.1-.2-.1-.1-.1-.2v-.7c0-.3,0-.4.1-.5s.1-.2.2-.2.2.1.4.2.5.2.8.4c.3.1.7.3,1.1.4s.9.2,1.4.2.9-.1,1.3-.2.7-.3.9-.5c.3-.2.4-.5.6-.8.1-.3.2-.6.2-1s-.1-.8-.2-1.1c-.2-.3-.4-.6-.7-.8-.3-.2-.7-.4-1.1-.5-.5-.1-1-.2-1.5-.2h-1.6c-.1,0-.1-.1-.1-.1,0-.1-.1-.1-.1-.2v-.9c.1-.1.2-.1.2-.1h1.4c.5,0,.9-.1,1.3-.2s.7-.3,1-.5.5-.5.6-.8.2-.7.2-1.1,0-.6-.1-.8c-.1-.3-.2-.5-.4-.7-.2-.2-.4-.4-.7-.5-.3-.1-.6-.2-1-.2s-.8.1-1.2.2c-.4.1-.7.3-.9.4-.3.1-.5.3-.7.4s-.3.2-.4.2h-.2c0-.1,0-.2-.1-.3s0-.2,0-.4v-.5s0-.1.1-.2.1-.1.1-.2c.1-.1.2-.2.4-.3.2-.1.5-.3.8-.4s.7-.2,1.1-.3c.4-.1.8-.1,1.3-.1s1.2.1,1.7.3c.5.2.9.4,1.2.7s.6.7.7,1.1c.2.4.2.9.2,1.4s-.1.9-.2,1.2c-.1.4-.3.7-.5,1s-.5.5-.8.8-.7.4-1.1.4h0c.5.1.9.2,1.3.4s.8.4,1,.7c.3.3.5.6.7,1,0,.2.1.6.1,1Z"/>
        </g>
      </g>
      <rect id="rect1707" class="cls-14" x="231.8" y="147.5" width="113.9" height="11.3"/>
      <rect id="rect1715" class="cls-13" x="11.6" y="59.1" width="266.1" height="11.3"/>
      <rect id="rect1715-2" class="cls-13" x="266.3" y="91.1" width="137.7" height="11.3"/>
      <rect id="rect1715-3" class="cls-13" x="266.3" y="59.1" width="11.3" height="43.4"/>
      <rect id="rect1715-4" class="cls-6" x="185.9" y="88.5" width="11.3" height="104.3"/>
      <circle id="circle281" class="cls-6" cx="231.8" cy="94.2" r="11.9"/>
      <circle id="circle281-2" class="cls-14" cx="231.5" cy="153.2" r="11.6"/>
      <circle id="circle281-3" class="cls-13" cx="11.9" cy="64.8" r="11.9"/>
      <circle id="circle281-4" class="cls-11" cx="11.9" cy="35.3" r="11.9"/>
      <rect id="rect1727" class="cls-6" x="185.9" y="88.5" width="45.9" height="11.3"/>
      <rect id="rect1727-2" class="cls-11" x="11.6" y="29.6" width="300.1" height="11.3"/>
      <rect id="rect1727-3" class="cls-11" x="300.4" y="121" width="103.7" height="11.3"/>
      <rect id="rect1727-4" class="cls-14" x="334.4" y="31.4" width="69.7" height="11.3"/>
      <rect id="rect1727-5" class="cls-6" x="368.4" y="61.3" width="35.6" height="11.3"/>
      <rect id="rect1727-6" class="cls-6" x="185.9" y="181.5" width="193.8" height="11.3"/>
      <rect id="rect1727-7" class="cls-11" x="300.4" y="29.6" width="11.3" height="102.7"/>
      <rect id="rect1727-8" class="cls-14" x="334.4" y="31.4" width="11.3" height="127.5"/>
      <rect id="rect1727-9" class="cls-6" x="368.4" y="61.3" width="11.3" height="131.6"/>
    </g>
  </g>
</svg>