<?xml version="1.0" encoding="UTF-8"?>
<svg xmlns="http://www.w3.org/2000/svg" version="1.1" viewBox="0 0 910.1 895.6">
  <defs>
    <style>
      .cls-1 {
        fill: #2c2c2c;
      }

      .cls-2, .cls-3 {
        fill: #fff;
      }

      .cls-4 {
        fill: #493930;
      }

      .cls-5 {
        fill: #be8839;
      }

      .cls-6 {
        fill: #dbded7;
      }

      .cls-7 {
        fill: #914f00;
      }

      .cls-3, .cls-8, .cls-9 {
        isolation: isolate;
      }

      .cls-10 {
        fill: #9a2442;
      }

      .cls-11 {
        fill: #000151;
      }

      .cls-12 {
        fill: #303030;
      }

      .cls-13 {
        fill: #f53200;
      }

      .cls-14 {
        fill: #47494a;
      }

      .cls-15 {
        fill: #655a50;
      }

      .cls-16 {
        fill: #00b589;
      }

      .cls-17 {
        fill: #e30613;
      }

      .cls-18 {
        fill: #474949;
      }

      .cls-19 {
        fill: #fcf7fd;
      }

      .cls-20 {
        fill: #ada390;
      }

      .cls-21 {
        fill: #686868;
      }

      .cls-22 {
        fill: #e3ad51;
      }

      .cls-9 {
        fill: gray;
      }

      .cls-23 {
        fill: #ddd;
      }

      .cls-24 {
        fill: #1a1a1a;
      }

      .cls-25 {
        fill: #ccc;
      }

      .cls-26 {
        fill: #c4b3a8;
      }

      .cls-27 {
        fill: #a3928b;
      }

      .cls-28 {
        fill: #36323e;
      }

      .cls-29 {
        fill: #eaeaea;
      }

      .cls-30 {
        fill: #1a1919;
      }

      .cls-31 {
        fill: #e3b37d;
      }

      .cls-32 {
        fill: #010103;
      }

      .cls-33 {
        fill: #f5b93e;
      }

      .cls-34 {
        fill: #e0dcd3;
      }

      .cls-35 {
        fill: none;
        stroke: #493930;
        stroke-miterlimit: 10;
      }

      .cls-36 {
        fill: #bcb3ad;
      }
    </style>
  </defs>
  <!-- Generator: Adobe Illustrator 28.6.0, SVG Export Plug-In . SVG Version: 1.2.0 Build 709)  -->
  <g>
    <g id="svg8">
      <g>
        <path class="cls-30" d="M590.7,127.1H8c-4,0-7.3,3.2-7.3,7.3v719c0,4,3.2,7.3,7.3,7.3h17.6l34.2,34.2h365.2s34.1-34.2,34.1-34.2h131.6c4,0,7.3-3.2,7.3-7.3V134.4c0-4-3.2-7.3-7.3-7.3ZM29,301.6c-10,0-18.1-8.1-18.1-18.1s8.1-18.1,18.1-18.1,18.1,8.1,18.1,18.1-8.1,18.1-18.1,18.1ZM88.9,883.4c-10,0-18.1-8.1-18.1-18.1s8.1-18.1,18.1-18.1,18.1,8.1,18.1,18.1-8.1,18.1-18.1,18.1ZM402,883.4c-10,0-18.1-8.1-18.1-18.1s8.1-18.1,18.1-18.1,18.1,8.1,18.1,18.1-8.1,18.1-18.1,18.1ZM570.3,312.9c-10,0-18.1-8.1-18.1-18.1s8.1-18.1,18.1-18.1,18.1,8.1,18.1,18.1-8.1,18.1-18.1,18.1Z"/>
        <rect class="cls-12" x="56.6" y="93.8" width="101.7" height="143.5"/>
        <path class="cls-12" d="M65.6,237.3h83.7v9.1c0,3.9-3.2,7.1-7.1,7.1h-69.4c-3.9,0-7.1-3.2-7.1-7.1v-9.1h0Z"/>
        <path class="cls-23" d="M572.2,165.8h-21.4v-4.6c0-.8-.6-1.4-1.4-1.4h-20.6c-.8,0-1.4.6-1.4,1.4v4.6h-21.4c-1,0-1.7.8-1.7,1.7v65.1c0,1,.8,1.7,1.7,1.7h66.3c1,0,1.7-.8,1.7-1.7v-65.1c0-1-.8-1.7-1.7-1.7Z"/>
        <circle class="cls-10" cx="539" cy="197.1" r="19.2"/>
        <g>
          <circle class="cls-23" cx="149.3" cy="345.8" r="35.2"/>
          <path class="cls-32" d="M130.3,321.3c-8.1,5.1-13.5,14.2-13.5,24.5s5.4,19.4,13.5,24.5v-49.1Z"/>
        </g>
        <g>
          <circle class="cls-23" cx="174.8" cy="444.7" r="35.2"/>
          <path class="cls-32" d="M167.5,414.6c-9.5,1.4-18.1,7.5-22.3,16.9s-2.9,19.9,2.4,27.9l19.9-44.9Z"/>
        </g>
        <rect class="cls-31" x="279.3" y="207.6" width="9.8" height="21.5"/>
        <rect class="cls-31" x="363" y="251.3" width="9.8" height="21.5"/>
        <rect class="cls-31" x="452.3" y="325.4" width="9.8" height="21.5" transform="translate(793.4 -121) rotate(90)"/>
        <rect class="cls-31" x="452.3" y="265.9" width="9.8" height="21.5" transform="translate(733.9 -180.5) rotate(90)"/>
        <rect class="cls-31" x="327.8" y="354.4" width="9.8" height="21.5"/>
        <rect class="cls-33" x="397.4" y="451.7" width="9.8" height="21.5"/>
        <rect class="cls-31" x="424.2" y="451.7" width="9.8" height="21.5"/>
        <rect class="cls-31" x="450.5" y="451.7" width="9.8" height="21.5"/>
        <rect class="cls-31" x="330.6" y="739.3" width="9.8" height="21.5" transform="translate(-414.5 1085.6) rotate(-90)"/>
        <rect class="cls-33" x="388" y="757.5" width="9.8" height="21.5"/>
        <rect class="cls-18" x="303.3" y="251.3" width="31.5" height="14.6" rx="1.5" ry="1.5"/>
        <g>
          <path class="cls-34" d="M305.9,238.9h12.2v11.5h-12.2c-.7,0-1.2-.6-1.2-1.2v-9c0-.7.6-1.2,1.2-1.2Z" transform="translate(556 -66.8) rotate(90)"/>
          <path class="cls-34" d="M321.2,238.9h12.2v11.5h-12.2c-.7,0-1.2-.6-1.2-1.2v-9c0-.7.6-1.2,1.2-1.2Z" transform="translate(571.3 -82.1) rotate(90)"/>
        </g>
        <g>
          <rect class="cls-6" x="423.8" y="424.6" width="10.7" height="17.2"/>
          <rect class="cls-18" x="423.8" y="427.2" width="10.7" height="11.8"/>
        </g>
        <g>
          <rect class="cls-6" x="450.1" y="424.6" width="10.7" height="17.2"/>
          <rect class="cls-18" x="450.1" y="427.2" width="10.7" height="11.8"/>
        </g>
        <g>
          <rect class="cls-6" x="309.8" y="391.2" width="10.7" height="17.2" transform="translate(-84.6 715) rotate(-90)"/>
          <rect class="cls-18" x="309.7" y="393.9" width="10.7" height="11.8" transform="translate(-84.8 714.8) rotate(-90)"/>
        </g>
        <g>
          <rect class="cls-6" x="254.8" y="391.2" width="10.7" height="17.2" transform="translate(-139.7 659.9) rotate(-90)"/>
          <rect class="cls-18" x="254.6" y="393.9" width="10.7" height="11.8" transform="translate(-139.8 659.8) rotate(-90)"/>
        </g>
        <g>
          <rect class="cls-6" x="388" y="727.2" width="10.7" height="17.2"/>
          <rect class="cls-18" x="388" y="729.8" width="10.7" height="11.8"/>
        </g>
        <g>
          <rect class="cls-6" x="330.2" y="761.4" width="10.7" height="17.2" transform="translate(-434.5 1105.6) rotate(-90)"/>
          <rect class="cls-18" x="330" y="764.1" width="10.7" height="11.8" transform="translate(-434.7 1105.4) rotate(-90)"/>
        </g>
        <g>
          <rect class="cls-6" x="478.7" y="174.5" width="10.7" height="17.2"/>
          <rect class="cls-18" x="478.7" y="177" width="10.7" height="11.8"/>
        </g>
        <g>
          <rect class="cls-6" x="339.1" y="175.5" width="10.7" height="17.2"/>
          <rect class="cls-18" x="339.1" y="178" width="10.7" height="11.8"/>
        </g>
        <rect class="cls-27" x="442.6" y="288.7" width="12.2" height="32.8" rx="3.7" ry="3.7"/>
        <g>
          <rect class="cls-22" x="370.6" y="539.8" width="22.3" height="17.8" rx="2.9" ry="2.9" transform="translate(-276.2 430.7) rotate(-45)"/>
          <rect class="cls-26" x="371.5" y="540.5" width="20.5" height="16.4" rx="2.9" ry="2.9" transform="translate(-276.2 430.7) rotate(-45)"/>
        </g>
        <rect class="cls-36" x="375.5" y="515.7" width="12.2" height="11"/>
        <rect class="cls-36" x="395.1" y="515.7" width="12.2" height="11"/>
        <rect class="cls-36" x="375.5" y="568.6" width="12.2" height="11"/>
        <rect class="cls-36" x="395.1" y="568.6" width="12.2" height="11"/>
        <rect class="cls-13" x="326.9" y="792" width="20.8" height="11" rx="2.8" ry="2.8"/>
        <g>
          <path class="cls-2" d="M31.9,162v-4.5h2.1v7.1h-1.5c-2.9-2.4-4.8-2.7-8.9-2.8v-2.5c3.4.2,5.6.7,8.3,2.7Z"/>
          <path class="cls-2" d="M28.5,166v4h-1.7v-4h1.7Z"/>
          <path class="cls-2" d="M25.6,171.8v2.2h5.9v-1.9h1.5c.2,1.1.5,1.8.9,2.6v1.8h-8.4v1.9h-2v-6.6h2Z"/>
          <path class="cls-2" d="M25.1,179.8c2.3,2.7,4.2,4.4,5.6,4.4s1.5-.5,1.5-1.4-.5-1.3-1-1.8l1.3-1.3c1.1,1,1.7,1.9,1.7,3.4s-1.3,3.4-3.3,3.4-3.8-1.7-5.4-3.3c0,.5.1,1.2.1,1.7v2.1h-2.1v-7.2h1.5Z"/>
          <path class="cls-2" d="M34,187.6v2.6l-4.8,1.1c-1.1.3-2.2.5-3.3.8h0c1.1.4,2.2.6,3.3.9l4.8,1.2v2.5l-10.4-3.2v-3l10.4-3.1Z"/>
          <path class="cls-2" d="M34,201.1v2.5h-10.4v-2.5h10.4Z"/>
          <path class="cls-2" d="M34,206v2.6l-5,2.6c-.7.4-1.5.7-2.4,1h0c1.1,0,2.6-.3,3.8-.3h3.5v2.4h-10.4v-2.6l5-2.6c.7-.4,1.5-.7,2.4-1h0c-1.2,0-2.6.3-3.8.3h-3.5v-2.4h10.4Z"/>
          <path class="cls-2" d="M34,216.6v3.7c0,2.3-.8,4.2-3.4,4.2s-3.6-1.9-3.6-4.1v-1.2h-3.5v-2.5h10.4ZM29,220.2c0,1.2.6,1.8,1.6,1.8s1.4-.7,1.4-1.9v-1h-3v1.1Z"/>
          <path class="cls-2" d="M28.5,226.2h5.5v2.5h-5.8c-2,0-2.7.6-2.7,1.7s.7,1.8,2.7,1.8h5.8v2.4h-5.5c-3.5,0-5.1-1.4-5.1-4.2s1.6-4.2,5.1-4.2Z"/>
          <path class="cls-2" d="M31.9,239v-2.8h2.1v8.1h-2.1v-2.8h-8.3v-2.5h8.3Z"/>
        </g>
        <g>
          <path class="cls-2" d="M589.4,175.6v3.8c0,2.2-.8,4.1-3.3,4.1s-2.5-.7-3-1.8l-4.1,2.3v-2.8l3.7-1.9v-1.2h-3.7v-2.5h10.4ZM584.6,179.2c0,1.2.5,1.8,1.5,1.8s1.3-.6,1.3-1.8v-1.1h-2.8v1.1Z"/>
          <path class="cls-2" d="M589.4,185.5v6.6h-2.1v-4.1h-2v3.5h-2.1v-3.5h-2.2v4.3h-2.1v-6.8h10.4Z"/>
          <path class="cls-2" d="M580.3,193.6l1.6,1.3c-.6.7-1,1.7-1,2.6s.4,1.4.9,1.4.8-.6,1.2-1.5l.6-1.3c.4-1.1,1.3-2.1,2.8-2.1s3.2,1.6,3.2,3.8-.5,2.5-1.3,3.4l-1.6-1.3c.5-.7.8-1.4.8-2.1s-.3-1.3-.8-1.3-.8.7-1.2,1.6l-.5,1.3c-.5,1.3-1.4,2.1-2.8,2.1s-3.3-1.5-3.3-4,.5-2.8,1.5-3.9Z"/>
          <path class="cls-2" d="M589.4,203.2v6.6h-2.1v-4.1h-2v3.5h-2.1v-3.5h-2.2v4.3h-2.1v-6.8h10.4Z"/>
          <path class="cls-2" d="M587.3,214v-2.8h2.1v8.1h-2.1v-2.8h-8.3v-2.5h8.3Z"/>
        </g>
        <g>
          <path class="cls-2" d="M372.4,836.3v2.5h-10.4v-2.5h10.4Z"/>
          <path class="cls-2" d="M367.1,840.7c3.5,0,5.5,2.3,5.5,5s-.6,2.4-1.4,3.2l-1.5-1.3c.5-.5.7-1.1.7-1.8,0-1.4-1.2-2.5-3.2-2.5s-3.3,1-3.3,2.4.3,1.5.9,2l-1.5,1.3c-1-.9-1.5-2.1-1.5-3.4,0-2.7,1.8-4.9,5.3-4.9Z"/>
          <path class="cls-2" d="M363.3,849.4l1.6,1.3c-.6.7-1,1.7-1,2.6s.4,1.4.9,1.4.8-.6,1.2-1.5l.6-1.3c.4-1.1,1.3-2.1,2.8-2.1s3.2,1.6,3.2,3.8-.5,2.5-1.3,3.4l-1.6-1.3c.5-.7.8-1.4.8-2.1s-.3-1.3-.8-1.3-.8.7-1.2,1.6l-.5,1.3c-.5,1.3-1.4,2.1-2.8,2.1s-3.3-1.5-3.3-4,.5-2.8,1.5-3.9Z"/>
          <path class="cls-2" d="M372.4,859v3.7c0,2.3-.8,4.2-3.4,4.2s-3.6-1.9-3.6-4.1v-1.2h-3.5v-2.5h10.4ZM367.4,862.6c0,1.2.6,1.8,1.6,1.8s1.4-.7,1.4-1.9v-1h-3v1.1Z"/>
        </g>
        <path class="cls-2" d="M389.4,788.2c-1.2,1-2,2.5-2,4.2,0,3,2.5,5.5,5.5,5.5s5.5-2.5,5.5-5.5-.8-3.2-2-4.2c-.4-.4-.5-1-.1-1.4s1-.5,1.4-.1c1.6,1.4,2.7,3.5,2.7,5.8,0,4.1-3.4,7.5-7.5,7.5s-7.5-3.4-7.5-7.5,1.1-4.4,2.7-5.8c.4-.4,1.1-.3,1.4.1.4.4.3,1.1-.1,1.4h0ZM393.9,792.5c0,.6-.4,1-1,1s-1-.4-1-1v-7c0-.6.4-1,1-1s1,.4,1,1v7Z"/>
        <polyline class="cls-35" points="36.7 319.6 43.4 319.6 106 382.3 116.8 382.3"/>
        <polyline class="cls-35" points="36.5 327.7 43.4 327.7 103.6 387.9 103.6 519.6 160.3 576.3 213 576.3 225.3 563.9 264.2 563.9"/>
        <polyline class="cls-35" points="34 355.2 45.4 355.2 87.6 397.4 87.6 520.4 157.4 590.2 269.1 590.2"/>
        <polyline class="cls-35" points="23.6 440.7 62.6 479.7 62.6 543.6 33.9 572.4"/>
        <line class="cls-4" x1="76.8" y1="522.5" x2="152.6" y2="598.3"/>
        <polyline class="cls-35" points="132.1 589.8 89.3 632.5 25.2 632.5"/>
        <polyline class="cls-35" points="132.1 600.4 92 640.4 26.7 640.4"/>
        <polyline class="cls-35" points="268.1 598.9 235.5 598.9 159.9 674.5 79.4 674.5 56.7 697.2 31.9 697.2"/>
        <polyline class="cls-35" points="250.2 608 250.2 654.3 180.4 724.1 31.2 724.1"/>
        <polyline class="cls-35" points="265.5 627.9 265.5 664.2 177 752.7 31.9 752.7"/>
        <polyline class="cls-35" points="274.3 627.7 274.3 666.9 159.5 781.7 25.2 781.7"/>
        <polyline class="cls-35" points="283.2 628.6 283.2 674.2 148.1 809.3 31.2 809.3"/>
        <polyline class="cls-35" points="291.8 632.6 291.8 682 135.4 838.4 31.2 838.4"/>
        <line class="cls-4" x1="329.5" y1="717.6" x2="292.9" y2="681"/>
        <polyline class="cls-35" points="331.8 733.9 306.6 708.7 280.8 708.7"/>
        <polyline class="cls-35" points="345.1 741.6 345.1 682.9 300.5 638.2 300.5 618.8"/>
        <polyline class="cls-35" points="279.2 856.4 262.8 840.1 262.8 775.4 288.1 750.1"/>
        <polyline class="cls-35" points="308.9 627.2 308.9 638.1 362.5 691.6 402.2 691.6 507.6 796.9 507.6 826.1 519.3 837.8 564.4 837.8"/>
        <polyline class="cls-35" points="317.8 628.3 317.8 639.2 360.1 681.5 422.1 681.5 569.4 828.7"/>
        <polyline class="cls-35" points="327.9 627.8 368.7 668.6 434.2 668.6 574.7 809.1"/>
        <polyline class="cls-35" points="346.5 607.2 400.9 607.2 571.9 778.3"/>
        <polyline class="cls-35" points="347.8 598.9 408 598.9 574.2 765.1"/>
        <polyline class="cls-35" points="496.7 618.7 489.8 611.8 443.8 611.8"/>
        <polyline class="cls-35" points="347.8 555.3 358.9 555.3 367.8 564.1 378.5 564.1"/>
        <polyline class="cls-35" points="347.6 546.3 357.6 546.3 368.1 535.8 381.3 535.8"/>
        <polyline class="cls-35" points="326.1 522.8 342.6 506.4 412.5 506.4 567.5 661.5"/>
        <polyline class="cls-35" points="317.7 524.6 317.7 520 337.2 500.5 415.4 500.5 575.8 660.9"/>
        <polyline class="cls-35" points="309 524.6 309 516.2 329.2 495.9 419.2 495.9 575.6 652.3"/>
        <polyline class="cls-35" points="300.4 523 300.4 514.8 324.2 491 419.5 491 577.1 648.5"/>
        <polyline class="cls-35" points="291.8 522.5 291.8 510.6 316.7 485.6 420.8 485.6 581.2 646.1"/>
        <polyline class="cls-35" points="282.9 524.2 282.9 502.4 304.1 482.3 425.8 482.3 480.8 537.4 581.2 537.4"/>
        <polyline class="cls-35" points="274.3 522.3 274.3 499 298 477.1 427.5 477.1 458.8 508.4 579.8 508.4"/>
        <polyline class="cls-35" points="265.5 521.8 265.5 497.8 287.5 475.8 290.9 472.4"/>
        <polyline class="cls-35" points="221.9 539.9 221.9 510.8 290.2 442.5 316.1 442.5 323.1 449.5 372.9 449.5 400.3 422.1 427.5 422.1"/>
        <polyline class="cls-35" points="211 437 315 437 335.8 416.2 355 416.2"/>
        <polyline class="cls-35" points="287.3 366.5 287.3 377.2 278.4 386.2 261 386.2 248.3 373.6 248.3 364.3 248.3 339.2"/>
        <polyline class="cls-35" points="227.6 308.5 227.6 300.3 233.1 294.8 250 294.8"/>
        <polyline class="cls-35" points="191.9 286.2 238.1 286.2 258.7 265.7 258.7 243.8"/>
        <polyline class="cls-35" points="319.9 272.7 333.7 272.7 342.3 264.1 342.3 231.5 314.3 203.5 298.6 203.5 276.7 181.5"/>
        <polyline class="cls-35" points="286.6 178 300.4 191.8 312 191.8"/>
        <polyline class="cls-35" points="324 175.5 324 195.8 345.1 216.9 380.6 216.9 385.3 212.2 385.3 183.1"/>
        <path class="cls-35" d="M403.2,293v-48.4"/>
        <path class="cls-35" d="M418.8,244.6v22"/>
        <polyline class="cls-35" points="416.4 300.3 428.7 300.3 440.7 288.3"/>
        <polyline class="cls-35" points="416.2 314 429.1 314 441.3 326.1"/>
        <line class="cls-35" x1="416.7" y1="355.2" x2="440.3" y2="355.2"/>
        <line class="cls-35" x1="414.5" y1="369.2" x2="442.6" y2="369.2"/>
        <polyline class="cls-35" points="416.2 382.6 427.5 382.6 442.6 382.6"/>
        <line class="cls-35" x1="563.6" y1="245.5" x2="531.1" y2="278"/>
        <g>
          <rect class="cls-18" x="257.9" y="539" width="76" height="76" rx="5.9" ry="5.9"/>
          <circle class="cls-1" cx="323" cy="603.1" r="4.8"/>
          <g>
            <path class="cls-34" d="M241,543.6h16.9v5.9h-16.9c-.7,0-1.2-.6-1.2-1.2v-3.4c0-.7.6-1.2,1.2-1.2Z"/>
            <path class="cls-34" d="M241,552.3h16.9v5.9h-16.9c-.7,0-1.2-.6-1.2-1.2v-3.4c0-.7.6-1.2,1.2-1.2Z"/>
            <path class="cls-34" d="M241,561h16.9v5.9h-16.9c-.7,0-1.2-.6-1.2-1.2v-3.4c0-.7.6-1.2,1.2-1.2Z"/>
            <path class="cls-34" d="M241,569.7h16.9v5.9h-16.9c-.7,0-1.2-.6-1.2-1.2v-3.4c0-.7.6-1.2,1.2-1.2Z"/>
            <path class="cls-34" d="M241,578.4h16.9v5.9h-16.9c-.7,0-1.2-.6-1.2-1.2v-3.4c0-.7.6-1.2,1.2-1.2Z"/>
            <path class="cls-34" d="M241,587.1h16.9v5.9h-16.9c-.7,0-1.2-.6-1.2-1.2v-3.4c0-.7.6-1.2,1.2-1.2Z"/>
            <path class="cls-34" d="M241,595.8h16.9v5.9h-16.9c-.7,0-1.2-.6-1.2-1.2v-3.4c0-.7.6-1.2,1.2-1.2Z"/>
            <path class="cls-34" d="M241,604.5h16.9v5.9h-16.9c-.7,0-1.2-.6-1.2-1.2v-3.4c0-.7.6-1.2,1.2-1.2Z"/>
          </g>
          <g>
            <path class="cls-34" d="M318.5,527h16.9v5.9h-16.9c-.7,0-1.2-.6-1.2-1.2v-3.4c0-.7.6-1.2,1.2-1.2Z" transform="translate(856.3 203.6) rotate(90)"/>
            <path class="cls-34" d="M309.8,527h16.9v5.9h-16.9c-.7,0-1.2-.6-1.2-1.2v-3.4c0-.7.6-1.2,1.2-1.2Z" transform="translate(847.6 212.3) rotate(90)"/>
            <path class="cls-34" d="M301.1,527h16.9v5.9h-16.9c-.7,0-1.2-.6-1.2-1.2v-3.4c0-.7.6-1.2,1.2-1.2Z" transform="translate(838.9 221) rotate(90)"/>
            <path class="cls-34" d="M292.4,527h16.9v5.9h-16.9c-.7,0-1.2-.6-1.2-1.2v-3.4c0-.7.6-1.2,1.2-1.2Z" transform="translate(830.2 229.7) rotate(90)"/>
            <path class="cls-34" d="M283.8,527h16.9v5.9h-16.9c-.7,0-1.2-.6-1.2-1.2v-3.4c0-.7.6-1.2,1.2-1.2Z" transform="translate(821.5 238.4) rotate(90)"/>
            <path class="cls-34" d="M275.1,527h16.9v5.9h-16.9c-.7,0-1.2-.6-1.2-1.2v-3.4c0-.7.6-1.2,1.2-1.2Z" transform="translate(812.8 247.1) rotate(90)"/>
            <path class="cls-34" d="M266.4,527h16.9v5.9h-16.9c-.7,0-1.2-.6-1.2-1.2v-3.4c0-.7.6-1.2,1.2-1.2Z" transform="translate(804.2 255.8) rotate(90)"/>
            <path class="cls-34" d="M257.7,527h16.9v5.9h-16.9c-.7,0-1.2-.6-1.2-1.2v-3.4c0-.7.6-1.2,1.2-1.2Z" transform="translate(795.5 264.5) rotate(90)"/>
          </g>
          <g>
            <path class="cls-34" d="M257.7,621.1h16.9v5.9h-16.9c-.7,0-1.2-.6-1.2-1.2v-3.4c0-.7.6-1.2,1.2-1.2Z" transform="translate(-358.6 889.6) rotate(-90)"/>
            <path class="cls-34" d="M266.4,621.1h16.9v5.9h-16.9c-.7,0-1.2-.6-1.2-1.2v-3.4c0-.7.6-1.2,1.2-1.2Z" transform="translate(-349.9 898.3) rotate(-90)"/>
            <path class="cls-34" d="M275.1,621.1h16.9v5.9h-16.9c-.7,0-1.2-.6-1.2-1.2v-3.4c0-.7.6-1.2,1.2-1.2Z" transform="translate(-341.2 906.9) rotate(-90)"/>
            <path class="cls-34" d="M283.8,621.1h16.9v5.9h-16.9c-.7,0-1.2-.6-1.2-1.2v-3.4c0-.7.6-1.2,1.2-1.2Z" transform="translate(-332.5 915.6) rotate(-90)"/>
            <path class="cls-34" d="M292.4,621.1h16.9v5.9h-16.9c-.7,0-1.2-.6-1.2-1.2v-3.4c0-.7.6-1.2,1.2-1.2Z" transform="translate(-323.8 924.3) rotate(-90)"/>
            <path class="cls-34" d="M301.1,621.1h16.9v5.9h-16.9c-.7,0-1.2-.6-1.2-1.2v-3.4c0-.7.6-1.2,1.2-1.2Z" transform="translate(-315.1 933) rotate(-90)"/>
            <path class="cls-34" d="M309.8,621.1h16.9v5.9h-16.9c-.7,0-1.2-.6-1.2-1.2v-3.4c0-.7.6-1.2,1.2-1.2Z" transform="translate(-306.4 941.7) rotate(-90)"/>
            <path class="cls-34" d="M318.5,621.1h16.9v5.9h-16.9c-.7,0-1.2-.6-1.2-1.2v-3.4c0-.7.6-1.2,1.2-1.2Z" transform="translate(-297.7 950.4) rotate(-90)"/>
          </g>
          <g>
            <path class="cls-34" d="M335.2,604.2h16.9v5.9h-16.9c-.7,0-1.2-.6-1.2-1.2v-3.4c0-.7.6-1.2,1.2-1.2Z" transform="translate(685.9 1214.3) rotate(180)"/>
            <path class="cls-34" d="M335.2,595.5h16.9v5.9h-16.9c-.7,0-1.2-.6-1.2-1.2v-3.4c0-.7.6-1.2,1.2-1.2Z" transform="translate(685.9 1196.9) rotate(180)"/>
            <path class="cls-34" d="M335.2,586.8h16.9v5.9h-16.9c-.7,0-1.2-.6-1.2-1.2v-3.4c0-.7.6-1.2,1.2-1.2Z" transform="translate(685.9 1179.5) rotate(180)"/>
            <path class="cls-34" d="M335.2,578.1h16.9v5.9h-16.9c-.7,0-1.2-.6-1.2-1.2v-3.4c0-.7.6-1.2,1.2-1.2Z" transform="translate(685.9 1162.2) rotate(180)"/>
            <path class="cls-34" d="M335.2,569.5h16.9v5.9h-16.9c-.7,0-1.2-.6-1.2-1.2v-3.4c0-.7.6-1.2,1.2-1.2Z" transform="translate(685.9 1144.8) rotate(180)"/>
            <path class="cls-34" d="M335.2,560.8h16.9v5.9h-16.9c-.7,0-1.2-.6-1.2-1.2v-3.4c0-.7.6-1.2,1.2-1.2Z" transform="translate(685.9 1127.4) rotate(180)"/>
            <path class="cls-34" d="M335.2,552.1h16.9v5.9h-16.9c-.7,0-1.2-.6-1.2-1.2v-3.4c0-.7.6-1.2,1.2-1.2Z" transform="translate(685.9 1110) rotate(180)"/>
            <path class="cls-34" d="M335.2,543.4h16.9v5.9h-16.9c-.7,0-1.2-.6-1.2-1.2v-3.4c0-.7.6-1.2,1.2-1.2Z" transform="translate(685.9 1092.6) rotate(180)"/>
          </g>
        </g>
        <path class="cls-2" d="M247.7,702.2v7.2c0,1.3,0,2.5-.1,3.5,0,.8-.2,1.6-.4,2.4-.2.7-.5,1.3-.8,1.9-.5.7-1,1.4-1.6,2-.6.7-1.5,1.2-2.5,1.6-1.1.3-2.3.5-3.7.5h-6v-7.4h3.7c.5,0,.9,0,1.4-.2.3-.1.6-.3.9-.6.2-.3.4-.7.5-1.1.1-.6.2-1.2.2-1.7v-7.9h8.5ZM233.3,725.6h95v3.1h-95v-3.1ZM247.7,690.3v7.4h-8.5v-7.4h8.5ZM268,689.7c1.1,0,2.3,0,3.4.3,1,.2,2.1.5,3.1.9,1,.4,1.9.9,2.7,1.4.9.6,1.7,1.2,2.4,2,.7.7,1.4,1.6,1.9,2.4.6.9,1,1.8,1.4,2.7.4,1,.7,2,.8,3.1.2,1.1.3,2.3.3,3.4,0,1.1,0,2.2-.3,3.3-.2,1-.5,2-.8,3-.4.9-.8,1.9-1.4,2.7-.6.9-1.2,1.7-1.9,2.4-.7.7-1.5,1.4-2.4,2-.8.6-1.7,1-2.7,1.4-1,.4-2,.7-3,.9-1.1.2-2.2.3-3.3.3-1.1,0-2.3,0-3.4-.3-1-.2-2.1-.5-3.1-.8-1-.4-1.9-.8-2.7-1.4-1.7-1.1-3.2-2.6-4.4-4.4-.6-.9-1-1.8-1.4-2.7-.4-1-.7-2-.9-3-.4-2.2-.4-4.5,0-6.7.2-1,.5-2.1.9-3,.4-1,.8-1.9,1.4-2.7.6-.9,1.2-1.7,2-2.5.7-.8,1.5-1.4,2.4-2,.8-.6,1.7-1.1,2.7-1.4,1-.4,2-.7,3-.9,1.1-.2,2.2-.3,3.3-.3h0ZM268,696.8c-1,0-2,.2-3,.6-.9.4-1.6,1-2.2,1.8-.6.8-1.1,1.8-1.4,2.8-.3,1.1-.5,2.3-.5,3.7,0,1.3.1,2.5.5,3.8.3,1,.8,2,1.4,2.9.6.8,1.4,1.4,2.3,1.8.9.4,1.9.6,3,.6,1,0,2-.2,3-.6.9-.4,1.6-1,2.2-1.8.6-.9,1.1-1.8,1.4-2.8.3-1.1.5-2.4.5-3.8,0-1.2-.1-2.5-.5-3.7-.3-1-.8-2-1.4-2.8-.6-.8-1.4-1.4-2.3-1.8-.9-.4-1.9-.6-3-.6h0ZM287.5,690.3h8.5v7.7c0,1.6.3,2.8.9,3.6s1.6,1.2,2.8,1.2c1.3,0,2.3-.4,2.9-1.3s1-2.1,1-3.8v-7.4h8.4v5.4c0,1.3,0,2.5-.2,3.6,0,.9-.2,1.8-.5,2.7-.3.9-.6,1.7-1.1,2.5-.6,1-1.3,1.9-2,2.7-.4.5-.9.9-1.5,1.3-.6.4-1.2.7-1.9.9-.8.3-1.6.4-2.4.5-.9.1-1.9.2-2.8.2-.9,0-1.8,0-2.7-.2-.8-.1-1.5-.3-2.3-.5-.7-.2-1.3-.5-1.9-.9-.5-.3-1-.7-1.5-1.2-.8-.8-1.5-1.7-2.1-2.6-.5-.7-.9-1.5-1.2-2.4-.3-.9-.4-1.8-.5-2.7-.1-1.1-.2-2.3-.2-3.4v-6.1ZM306.8,713.9v7.4h-14.2v-7.4h14.2ZM310.7,683.5h56.8v2.9h-56.8v-2.9ZM314.4,703.8h18.3v7.3h-18.3v-7.3ZM344.4,690.3v7.4h-8.5v-7.4h8.5ZM344.4,702.2v19.1h-8.5v-19.1h8.5ZM368.9,690.3v7.4h-19.9v-7.4h19.9ZM350.4,702.2h8.4v7.7c0,.7,0,1.3.2,2,.1.5.3.9.5,1.2.2.2.6.4,1.1.6.6.1,1.2.2,1.8.2h5.5v7.4h-7.9c-.8,0-1.6,0-2.3-.2-.7,0-1.4-.3-2-.5-.6-.2-1.1-.5-1.7-.8-.5-.3-.9-.7-1.3-1.1-.4-.4-.7-.9-1-1.5-.3-.6-.5-1.2-.7-1.9-.2-.8-.3-1.5-.4-2.3,0-.9-.1-1.8-.1-2.7v-8.1Z"/>
        <rect class="cls-31" x="209.6" y="530.7" width="9.8" height="21.5" transform="translate(-327 756) rotate(-90)"/>
        <rect class="cls-31" x="350.1" y="414.5" width="9.8" height="21.5"/>
        <g>
          <rect class="cls-18" x="268.7" y="317.9" width="50.5" height="39.3" rx="2.5" ry="2.5"/>
          <circle class="cls-1" cx="272.9" cy="349.2" r="2.7"/>
          <g>
            <path class="cls-34" d="M268.6,360.9h12.2v6.1h-12.2c-.7,0-1.2-.6-1.2-1.2v-3.6c0-.7.6-1.2,1.2-1.2Z" transform="translate(-89.9 638) rotate(-90)"/>
            <path class="cls-34" d="M281.8,360.9h12.2v6.1h-12.2c-.7,0-1.2-.6-1.2-1.2v-3.6c0-.7.6-1.2,1.2-1.2Z" transform="translate(-76.6 651.2) rotate(-90)"/>
            <path class="cls-34" d="M295.1,360.9h12.2v6.1h-12.2c-.7,0-1.2-.6-1.2-1.2v-3.6c0-.7.6-1.2,1.2-1.2Z" transform="translate(-63.3 664.5) rotate(-90)"/>
            <path class="cls-34" d="M308.4,360.9h12.2v6.1h-12.2c-.7,0-1.2-.6-1.2-1.2v-3.6c0-.7.6-1.2,1.2-1.2Z" transform="translate(-50 677.8) rotate(-90)"/>
          </g>
          <g>
            <path class="cls-34" d="M308.4,308.1h12.2v6.1h-12.2c-.7,0-1.2-.6-1.2-1.2v-3.6c0-.7.6-1.2,1.2-1.2Z" transform="translate(625.1 -2.7) rotate(90)"/>
            <path class="cls-34" d="M295.1,308.1h12.2v6.1h-12.2c-.7,0-1.2-.6-1.2-1.2v-3.6c0-.7.6-1.2,1.2-1.2Z" transform="translate(611.8 10.6) rotate(90)"/>
            <path class="cls-34" d="M281.8,308.1h12.2v6.1h-12.2c-.7,0-1.2-.6-1.2-1.2v-3.6c0-.7.6-1.2,1.2-1.2Z" transform="translate(598.5 23.8) rotate(90)"/>
            <path class="cls-34" d="M268.6,308.1h12.2v6.1h-12.2c-.7,0-1.2-.6-1.2-1.2v-3.6c0-.7.6-1.2,1.2-1.2Z" transform="translate(585.2 37.1) rotate(90)"/>
          </g>
        </g>
        <g>
          <g>
            <path class="cls-34" d="M222.8,335.4h12.2v9.6h-12.2c-.7,0-1.2-.6-1.2-1.2v-7.1c0-.7.6-1.2,1.2-1.2Z" transform="translate(-112 568.5) rotate(-90)"/>
            <path class="cls-34" d="M242.4,335.4h12.2v9.6h-12.2c-.7,0-1.2-.6-1.2-1.2v-7.1c0-.7.6-1.2,1.2-1.2Z" transform="translate(-92.3 588.2) rotate(-90)"/>
          </g>
          <g>
            <path class="cls-34" d="M222.1,307.4h12.2v6.1h-12.2c-.7,0-1.2-.6-1.2-1.2v-3.6c0-.7.6-1.2,1.2-1.2Z" transform="translate(538 82.8) rotate(90)"/>
            <path class="cls-34" d="M232.6,307.4h12.2v6.1h-12.2c-.7,0-1.2-.6-1.2-1.2v-3.6c0-.7.6-1.2,1.2-1.2Z" transform="translate(548.5 72.3) rotate(90)"/>
            <path class="cls-34" d="M243.1,307.4h12.2v6.1h-12.2c-.7,0-1.2-.6-1.2-1.2v-3.6c0-.7.6-1.2,1.2-1.2Z" transform="translate(559.1 61.8) rotate(90)"/>
          </g>
          <rect class="cls-18" x="222.9" y="317.2" width="30.4" height="16.3" rx=".7" ry=".7"/>
        </g>
        <rect class="cls-31" x="234.3" y="353.6" width="9.8" height="21.5" transform="translate(-125.1 603.6) rotate(-90)"/>
        <g>
          <rect class="cls-18" x="366.2" y="294.8" width="34.4" height="107"/>
          <g>
            <path class="cls-34" d="M349.3,297.3h16.9v5.9h-16.9c-.7,0-1.2-.6-1.2-1.2v-3.4c0-.7.6-1.2,1.2-1.2Z"/>
            <path class="cls-34" d="M349.3,311.1h16.9v5.9h-16.9c-.7,0-1.2-.6-1.2-1.2v-3.4c0-.7.6-1.2,1.2-1.2Z"/>
            <path class="cls-34" d="M349.3,324.8h16.9v5.9h-16.9c-.7,0-1.2-.6-1.2-1.2v-3.4c0-.7.6-1.2,1.2-1.2Z"/>
            <path class="cls-34" d="M349.3,338.5h16.9v5.9h-16.9c-.7,0-1.2-.6-1.2-1.2v-3.4c0-.7.6-1.2,1.2-1.2Z"/>
            <path class="cls-34" d="M349.3,352.3h16.9v5.9h-16.9c-.7,0-1.2-.6-1.2-1.2v-3.4c0-.7.6-1.2,1.2-1.2Z"/>
            <path class="cls-34" d="M349.3,366h16.9v5.9h-16.9c-.7,0-1.2-.6-1.2-1.2v-3.4c0-.7.6-1.2,1.2-1.2Z"/>
            <path class="cls-34" d="M349.3,379.7h16.9v5.9h-16.9c-.7,0-1.2-.6-1.2-1.2v-3.4c0-.7.6-1.2,1.2-1.2Z"/>
            <path class="cls-34" d="M349.3,393.4h16.9v5.9h-16.9c-.7,0-1.2-.6-1.2-1.2v-3.4c0-.7.6-1.2,1.2-1.2Z"/>
          </g>
          <g>
            <path class="cls-34" d="M401.8,393.4h16.9v5.9h-16.9c-.7,0-1.2-.6-1.2-1.2v-3.4c0-.7.6-1.2,1.2-1.2Z" transform="translate(819.2 792.7) rotate(180)"/>
            <path class="cls-34" d="M401.8,379.7h16.9v5.9h-16.9c-.7,0-1.2-.6-1.2-1.2v-3.4c0-.7.6-1.2,1.2-1.2Z" transform="translate(819.2 765.3) rotate(180)"/>
            <path class="cls-34" d="M401.8,366h16.9v5.9h-16.9c-.7,0-1.2-.6-1.2-1.2v-3.4c0-.7.6-1.2,1.2-1.2Z" transform="translate(819.2 737.8) rotate(180)"/>
            <path class="cls-34" d="M401.8,352.3h16.9v5.9h-16.9c-.7,0-1.2-.6-1.2-1.2v-3.4c0-.7.6-1.2,1.2-1.2Z" transform="translate(819.2 710.4) rotate(180)"/>
            <path class="cls-34" d="M401.8,338.5h16.9v5.9h-16.9c-.7,0-1.2-.6-1.2-1.2v-3.4c0-.7.6-1.2,1.2-1.2Z" transform="translate(819.2 682.9) rotate(180)"/>
            <path class="cls-34" d="M401.8,324.8h16.9v5.9h-16.9c-.7,0-1.2-.6-1.2-1.2v-3.4c0-.7.6-1.2,1.2-1.2Z" transform="translate(819.2 655.5) rotate(180)"/>
            <path class="cls-34" d="M401.8,311.1h16.9v5.9h-16.9c-.7,0-1.2-.6-1.2-1.2v-3.4c0-.7.6-1.2,1.2-1.2Z" transform="translate(819.2 628) rotate(180)"/>
            <path class="cls-34" d="M401.8,297.3h16.9v5.9h-16.9c-.7,0-1.2-.6-1.2-1.2v-3.4c0-.7.6-1.2,1.2-1.2Z" transform="translate(819.2 600.6) rotate(180)"/>
          </g>
          <circle class="cls-1" cx="392.5" cy="391.9" r="4.9"/>
        </g>
        <rect class="cls-31" x="445.2" y="341.5" width="9.8" height="21.5" transform="translate(802.4 -97.9) rotate(90)"/>
        <g>
          <rect class="cls-6" x="444.8" y="360.8" width="10.7" height="17.2" transform="translate(819.5 -80.7) rotate(90)"/>
          <rect class="cls-18" x="444.9" y="363.5" width="10.7" height="11.8" transform="translate(819.7 -80.8) rotate(90)"/>
        </g>
        <g>
          <rect class="cls-6" x="444.8" y="378.4" width="10.7" height="17.2" transform="translate(837.1 -63.1) rotate(90)"/>
          <rect class="cls-18" x="444.9" y="381.1" width="10.7" height="11.8" transform="translate(837.3 -63.3) rotate(90)"/>
        </g>
        <g>
          <rect class="cls-6" x="397.9" y="229.6" width="10.7" height="17.2"/>
          <rect class="cls-18" x="397.9" y="232.1" width="10.7" height="11.8"/>
        </g>
        <g>
          <rect class="cls-6" x="413.5" y="229.5" width="10.7" height="17.2"/>
          <rect class="cls-18" x="413.5" y="232" width="10.7" height="11.8"/>
        </g>
        <path class="cls-34" d="M312.7,266.9h12.2v11.5h-12.2c-.7,0-1.2-.6-1.2-1.2v-9c0-.7.6-1.2,1.2-1.2Z" transform="translate(45.5 590.9) rotate(-90)"/>
        <g>
          <rect class="cls-5" x="275.4" y="147.7" width="51.5" height="35.1"/>
          <rect class="cls-15" x="287.8" y="147.7" width="26.7" height="35.1"/>
        </g>
        <g>
          <path class="cls-23" d="M370.7,113.6h0s87.6,0,87.6,0h0c2.7,1.4,4.4,4.2,4.4,7.3v70.1c0,1-.8,1.8-1.8,1.8h-92.8c-1,0-1.8-.8-1.8-1.8v-70.1c0-3,1.7-5.8,4.4-7.3Z"/>
          <g>
            <path class="cls-21" d="M445.5,186.9h0c0-1.3-1.1-2.4-2.4-2.4h-9.9c-.8,0-1.5-.7-1.5-1.5v-2.1c0-.8.7-1.5,1.5-1.5h9.9c1.3,0,2.4-1.1,2.4-2.4h0c0-1.3-1.1-2.4-2.4-2.4h-14c-1.3,0-2.4,1.1-2.4,2.4v10c0,1.3,1.1,2.4,2.4,2.4h14c1.3,0,2.4-1.1,2.4-2.4Z"/>
            <path class="cls-21" d="M383.6,176.9h0c0,1.3,1.1,2.4,2.4,2.4h9.9c.8,0,1.5.7,1.5,1.5v2.1c0,.8-.7,1.5-1.5,1.5h-9.9c-1.3,0-2.4,1.1-2.4,2.4h0c0,1.3,1.1,2.4,2.4,2.4h14c1.3,0,2.4-1.1,2.4-2.4v-10c0-1.3-1.1-2.4-2.4-2.4h-14c-1.3,0-2.4,1.1-2.4,2.4Z"/>
          </g>
        </g>
        <g>
          <rect class="cls-18" x="198.8" y="194.5" width="69.5" height="37" rx="1.2" ry="1.2"/>
          <g>
            <path class="cls-34" d="M200.4,237.6h16.9v5.9h-16.9c-.7,0-1.2-.6-1.2-1.2v-3.4c0-.7.6-1.2,1.2-1.2Z" transform="translate(-32.4 448.8) rotate(-90)"/>
            <path class="cls-34" d="M225.7,237.6h16.9v5.9h-16.9c-.7,0-1.2-.6-1.2-1.2v-3.4c0-.7.6-1.2,1.2-1.2Z" transform="translate(-7 474.1) rotate(-90)"/>
            <path class="cls-34" d="M251.1,237.6h16.9v5.9h-16.9c-.7,0-1.2-.6-1.2-1.2v-3.4c0-.7.6-1.2,1.2-1.2Z" transform="translate(18.4 499.5) rotate(-90)"/>
          </g>
          <path class="cls-34" d="M219.8,164h25.6v34.3h-25.6c-.7,0-1.2-.6-1.2-1.2v-31.8c0-.7.6-1.2,1.2-1.2Z" transform="translate(413.1 -50.9) rotate(90)"/>
        </g>
        <rect class="cls-18" x="151.1" y="272.7" width="48.4" height="27.1"/>
        <g>
          <rect class="cls-23" x="16.7" y="315.8" width="20" height="20"/>
          <circle class="cls-20" cx="26.7" cy="325.9" r="7.4"/>
          <rect class="cls-23" x="16.7" y="344.5" width="20" height="20"/>
          <circle class="cls-20" cx="26.7" cy="354.5" r="7.4"/>
          <rect class="cls-23" x="16.7" y="373.2" width="20" height="20"/>
          <circle class="cls-20" cx="26.7" cy="383.2" r="7.4"/>
          <rect class="cls-23" x="16.7" y="401.8" width="20" height="20"/>
          <circle class="cls-20" cx="26.7" cy="411.8" r="7.4"/>
        </g>
        <g>
          <rect class="cls-14" x="10" y="428.2" width="33.4" height="240.9"/>
          <rect x="16.9" y="430.9" width="19.6" height="19.6"/>
          <rect x="16.9" y="461.4" width="19.6" height="19.6"/>
          <rect x="16.9" y="491.9" width="19.6" height="19.6"/>
          <rect x="16.9" y="522.5" width="19.6" height="19.6"/>
          <rect x="16.9" y="553" width="19.6" height="19.6"/>
          <rect x="16.9" y="583.5" width="19.6" height="19.6"/>
          <rect x="16.9" y="614" width="19.6" height="19.6"/>
          <rect x="16.9" y="644.5" width="19.6" height="19.6"/>
        </g>
        <g>
          <rect class="cls-14" x="10" y="674.8" width="33.4" height="178.8"/>
          <g>
            <rect x="16.9" y="678.1" width="19.6" height="19.6"/>
            <rect x="16.9" y="708.6" width="19.6" height="19.6"/>
            <rect x="16.9" y="739.1" width="19.6" height="19.6"/>
            <rect x="16.9" y="769.6" width="19.6" height="19.6"/>
            <rect x="16.9" y="800.1" width="19.6" height="19.6"/>
            <rect x="16.9" y="830.6" width="19.6" height="19.6"/>
          </g>
        </g>
        <g>
          <path class="cls-2" d="M51,466.4h2.5v10.4h-2.5v-10.4Z"/>
          <path class="cls-2" d="M55.4,471.6c0-3.4,1.9-5.4,4.8-5.4s4.8,2,4.8,5.4-1.9,5.4-4.8,5.4-4.8-2-4.8-5.4ZM62.4,471.6c0-2-.8-3.2-2.2-3.2s-2.2,1.2-2.2,3.2.9,3.3,2.2,3.3,2.2-1.3,2.2-3.3Z"/>
          <path class="cls-2" d="M66.9,466.4h3.8c2.2,0,4.1.8,4.1,3.3s-.7,2.5-1.8,3l2.3,4.1h-2.8l-1.9-3.7h-1.2v3.7h-2.5v-10.4ZM70.5,471.2c1.2,0,1.8-.5,1.8-1.5s-.6-1.3-1.8-1.3h-1.1v2.8h1.1Z"/>
          <path class="cls-2" d="M76.8,466.4h6.6v2.1h-4.1v2h3.5v2.1h-3.5v2.2h4.3v2.1h-6.8v-10.4Z"/>
          <path class="cls-2" d="M85.6,466.4h6.7v2.1h-4.2v2.3h3.6v2.1h-3.6v4h-2.5v-10.4Z"/>
        </g>
        <g>
          <path class="cls-2" d="M52.3,496.9h3.8c2.2,0,4.1.8,4.1,3.3s-.7,2.5-1.8,3l2.3,4.1h-2.8l-1.9-3.7h-1.2v3.7h-2.5v-10.4ZM55.9,501.7c1.2,0,1.8-.5,1.8-1.5s-.6-1.3-1.8-1.3h-1.1v2.8h1.1Z"/>
          <path class="cls-2" d="M62.1,496.9h6.6v2.1h-4.1v2h3.5v2.1h-3.5v2.2h4.3v2.1h-6.8v-10.4Z"/>
          <path class="cls-2" d="M70.3,506l1.3-1.6c.7.6,1.7,1,2.6,1s1.4-.4,1.4-.9-.6-.8-1.5-1.2l-1.3-.6c-1.1-.4-2.1-1.3-2.1-2.8s1.6-3.2,3.8-3.2,2.5.5,3.4,1.3l-1.3,1.6c-.7-.5-1.4-.8-2.1-.8s-1.3.3-1.3.8.7.8,1.6,1.2l1.3.5c1.3.5,2.1,1.4,2.1,2.8s-1.5,3.3-4,3.3-2.8-.5-3.9-1.5Z"/>
          <path class="cls-2" d="M79.9,496.9h6.6v2.1h-4.1v2h3.5v2.1h-3.5v2.2h4.3v2.1h-6.8v-10.4Z"/>
          <path class="cls-2" d="M90.7,499h-2.8v-2.1h8.1v2.1h-2.8v8.3h-2.5v-8.3Z"/>
        </g>
        <g>
          <path class="cls-2" d="M52.6,536.6l1.1-1.6c.6.6,1.4,1,2.2,1s1.6-.4,1.6-1.2-.5-1.4-2.7-1.4v-1.8c1.8,0,2.3-.5,2.3-1.4s-.4-1.1-1.2-1.1-1.2.3-1.9.9l-1.2-1.5c.9-.8,2-1.3,3.2-1.3,2.2,0,3.6,1,3.6,2.9s-.6,1.8-1.7,2.3h0c1.2.4,2,1.2,2,2.6,0,2-1.8,3-3.8,3s-2.8-.6-3.6-1.4Z"/>
          <path class="cls-2" d="M61.8,536.5c0-.9.6-1.5,1.5-1.5s1.5.7,1.5,1.5-.6,1.5-1.5,1.5-1.5-.7-1.5-1.5Z"/>
          <path class="cls-2" d="M66,536.6l1.1-1.6c.6.6,1.4,1,2.2,1s1.6-.4,1.6-1.2-.5-1.4-2.7-1.4v-1.8c1.8,0,2.3-.5,2.3-1.4s-.4-1.1-1.2-1.1-1.2.3-1.9.9l-1.2-1.5c.9-.8,2-1.3,3.2-1.3,2.2,0,3.6,1,3.6,2.9s-.6,1.8-1.7,2.3h0c1.2.4,2,1.2,2,2.6,0,2-1.8,3-3.8,3s-2.8-.6-3.6-1.4Z"/>
          <path class="cls-2" d="M74.1,527.4h2.6l1.1,4.8c.3,1.1.5,2.2.8,3.3h0c.3-1.1.5-2.2.8-3.3l1.2-4.8h2.5l-3.2,10.4h-3l-3.1-10.4Z"/>
        </g>
        <g>
          <path class="cls-2" d="M53.9,567.1l1.1-1.6c.6.6,1.3,1,2.1,1s1.6-.6,1.6-1.6-.6-1.6-1.5-1.6-.9.1-1.5.5l-1.1-.7.3-5.2h5.8v2.1h-3.7v1.8c.2-.1.5-.2.9-.2,1.8,0,3.2,1,3.2,3.3s-1.8,3.7-3.8,3.7-2.8-.6-3.6-1.4Z"/>
          <path class="cls-2" d="M61.9,558h2.6l1.1,4.8c.3,1.1.5,2.2.8,3.3h0c.3-1.1.5-2.2.8-3.3l1.2-4.8h2.5l-3.2,10.4h-3l-3.1-10.4Z"/>
        </g>
        <g>
          <path class="cls-2" d="M55.5,593.8c0-3.5,2.3-5.5,5.1-5.5s2.6.6,3.3,1.4l-1.3,1.5c-.5-.5-1.1-.7-1.9-.7-1.5,0-2.7,1.2-2.7,3.2s.9,3.3,2.9,3.3.8,0,1-.3v-1.7h-1.7v-2h3.9v4.9c-.7.7-2,1.3-3.5,1.3-2.9,0-5.2-1.8-5.2-5.3Z"/>
          <path class="cls-2" d="M66.2,588.5h2.6l2.6,5c.4.7.7,1.5,1,2.4h0c-.1-1.1-.3-2.6-.3-3.8v-3.5h2.4v10.4h-2.6l-2.6-5c-.4-.7-.7-1.5-1-2.4h0c.1,1.2.3,2.6.3,3.8v3.5h-2.4v-10.4Z"/>
          <path class="cls-2" d="M76.9,588.5h3c3.2,0,5.3,1.6,5.3,5.2s-2.1,5.2-5.1,5.2h-3.1v-10.4ZM79.7,596.9c1.7,0,2.9-.8,2.9-3.2s-1.2-3.2-2.9-3.2h-.4v6.4h.4Z"/>
        </g>
        <g>
          <path class="cls-2" d="M56.7,624.3c0-3.5,2.3-5.5,5.1-5.5s2.6.6,3.3,1.4l-1.3,1.5c-.5-.5-1.1-.7-1.9-.7-1.5,0-2.7,1.2-2.7,3.2s.9,3.3,2.9,3.3.8,0,1-.3v-1.7h-1.7v-2h3.9v4.9c-.7.7-2,1.3-3.5,1.3-2.9,0-5.2-1.8-5.2-5.3Z"/>
          <path class="cls-2" d="M67.4,619h2.6l2.6,5c.4.7.7,1.5,1,2.4h0c-.1-1.1-.3-2.6-.3-3.8v-3.5h2.4v10.4h-2.6l-2.6-5c-.4-.7-.7-1.5-1-2.4h0c.1,1.2.3,2.6.3,3.8v3.5h-2.4v-10.4Z"/>
          <path class="cls-2" d="M78.1,619h3c3.2,0,5.3,1.6,5.3,5.2s-2.1,5.2-5.1,5.2h-3.1v-10.4ZM80.9,627.4c1.7,0,2.9-.8,2.9-3.2s-1.2-3.2-2.9-3.2h-.4v6.4h.4Z"/>
        </g>
        <g>
          <path class="cls-2" d="M57.1,649.5h2.6l1.1,4.8c.3,1.1.5,2.2.8,3.3h0c.3-1.1.5-2.2.8-3.3l1.2-4.8h2.5l-3.2,10.4h-3l-3.1-10.4Z"/>
          <path class="cls-2" d="M67.4,649.5h2.5v10.4h-2.5v-10.4Z"/>
          <path class="cls-2" d="M72.3,649.5h2.6l2.6,5c.4.7.7,1.5,1,2.4h0c-.1-1.1-.3-2.6-.3-3.8v-3.5h2.4v10.4h-2.6l-2.6-5c-.4-.7-.7-1.5-1-2.4h0c.1,1.2.3,2.6.3,3.8v3.5h-2.4v-10.4Z"/>
        </g>
        <g>
          <path class="cls-2" d="M61.6,683.1h3l3.2,10.4h-2.6l-.6-2.4h-3.1l-.6,2.4h-2.5l3.2-10.4ZM62,689.2h2.1l-.2-.9c-.3-1-.5-2.3-.8-3.3h0c-.3,1.1-.5,2.3-.8,3.3l-.2.9Z"/>
          <path class="cls-2" d="M68.2,688.2c0-3.6,1.5-5.4,3.7-5.4s3.7,1.8,3.7,5.4-1.5,5.4-3.7,5.4-3.7-1.9-3.7-5.4ZM73.3,688.2c0-2.8-.6-3.5-1.3-3.5s-1.3.6-1.3,3.5.6,3.5,1.3,3.5,1.3-.7,1.3-3.5Z"/>
        </g>
        <g>
          <path class="cls-2" d="M62.8,713.6h3l3.2,10.4h-2.6l-.6-2.4h-3.1l-.6,2.4h-2.5l3.2-10.4ZM63.2,719.7h2.1l-.2-.9c-.3-1-.5-2.3-.8-3.3h0c-.3,1.1-.5,2.3-.8,3.3l-.2.9Z"/>
          <path class="cls-2" d="M70,722h2.2v-5.9h-1.9v-1.5c1.1-.2,1.8-.5,2.6-.9h1.8v8.4h1.9v2h-6.6v-2Z"/>
        </g>
        <g>
          <path class="cls-2" d="M64,744.1h3l3.2,10.4h-2.6l-.6-2.4h-3.1l-.6,2.4h-2.5l3.2-10.4ZM64.4,750.2h2.1l-.2-.9c-.3-1-.5-2.3-.8-3.3h0c-.3,1.1-.5,2.3-.8,3.3l-.2.9Z"/>
          <path class="cls-2" d="M70.7,753c2.7-2.3,4.4-4.2,4.4-5.6s-.5-1.5-1.4-1.5-1.3.5-1.8,1l-1.3-1.3c1-1.1,1.9-1.7,3.4-1.7s3.4,1.3,3.4,3.3-1.7,3.8-3.3,5.4c.5,0,1.2-.1,1.7-.1h2.1v2.1h-7.2v-1.5Z"/>
        </g>
        <g>
          <path class="cls-2" d="M65.3,774.6h3l3.2,10.4h-2.6l-.6-2.4h-3.1l-.6,2.4h-2.5l3.2-10.4ZM65.7,780.7h2.1l-.2-.9c-.3-1-.5-2.3-.8-3.3h0c-.3,1.1-.5,2.3-.8,3.3l-.2.9Z"/>
          <path class="cls-2" d="M71.7,783.8l1.1-1.6c.6.6,1.4,1,2.2,1s1.6-.4,1.6-1.2-.5-1.4-2.7-1.4v-1.8c1.8,0,2.3-.5,2.3-1.4s-.4-1.1-1.2-1.1-1.2.3-1.9.9l-1.2-1.5c.9-.8,2-1.3,3.2-1.3,2.2,0,3.6,1,3.6,2.9s-.6,1.8-1.7,2.3h0c1.2.4,2,1.2,2,2.6,0,2-1.8,3-3.8,3s-2.8-.6-3.6-1.4Z"/>
        </g>
        <g>
          <path class="cls-2" d="M66.5,805.1h3l3.2,10.4h-2.6l-.6-2.4h-3.1l-.6,2.4h-2.5l3.2-10.4ZM66.9,811.2h2.1l-.2-.9c-.3-1-.5-2.3-.8-3.3h0c-.3,1.1-.5,2.3-.8,3.3l-.2.9Z"/>
          <path class="cls-2" d="M77.3,812.9h-4.4v-1.7l3.6-6.1h3.1v5.9h1.2v1.9h-1.2v2.6h-2.3v-2.6ZM77.3,811.1v-1.5c0-.7,0-1.6,0-2.3h0c-.3.6-.5,1.2-.8,1.8l-1.2,2.1h2Z"/>
          <path class="cls-2" d="M84.4,804.2h1.6l-3.1,13.9h-1.6l3.1-13.9Z"/>
          <path class="cls-2" d="M87,814.2l1.3-1.6c.7.6,1.7,1,2.6,1s1.4-.4,1.4-.9-.6-.8-1.5-1.2l-1.3-.6c-1.1-.4-2.1-1.3-2.1-2.8s1.6-3.2,3.8-3.2,2.5.5,3.4,1.3l-1.3,1.6c-.7-.5-1.4-.8-2.1-.8s-1.3.3-1.3.8.7.8,1.6,1.2l1.3.5c1.3.5,2.1,1.4,2.1,2.8s-1.5,3.3-4,3.3-2.8-.5-3.9-1.5Z"/>
          <path class="cls-2" d="M96.6,805.1h3c3.2,0,5.3,1.6,5.3,5.2s-2.1,5.2-5.1,5.2h-3.1v-10.4ZM99.5,813.5c1.7,0,2.9-.8,2.9-3.2s-1.2-3.2-2.9-3.2h-.4v6.4h.4Z"/>
          <path class="cls-2" d="M108.6,805.1h3l3.2,10.4h-2.6l-.6-2.4h-3.1l-.6,2.4h-2.5l3.2-10.4ZM109,811.2h2.1l-.2-.9c-.3-1-.5-2.3-.8-3.3h0c-.3,1.1-.5,2.3-.8,3.3l-.2.9Z"/>
        </g>
        <g>
          <path class="cls-2" d="M67.7,832.6h3l3.2,10.4h-2.6l-.6-2.4h-3.1l-.6,2.4h-2.5l3.2-10.4ZM68.1,838.7h2.1l-.2-.9c-.3-1-.5-2.3-.8-3.3h0c-.3,1.1-.5,2.3-.8,3.3l-.2.9Z"/>
          <path class="cls-2" d="M74.2,841.7l1.1-1.6c.6.6,1.3,1,2.1,1s1.6-.6,1.6-1.6-.6-1.6-1.5-1.6-.9.1-1.5.5l-1.1-.7.3-5.2h5.8v2.1h-3.7v1.8c.2-.1.5-.2.9-.2,1.8,0,3.2,1,3.2,3.3s-1.8,3.7-3.8,3.7-2.8-.6-3.6-1.4Z"/>
          <path class="cls-2" d="M85.7,831.6h1.6l-3.1,13.9h-1.6l3.1-13.9Z"/>
          <path class="cls-2" d="M88.3,841.7l1.3-1.6c.7.6,1.7,1,2.6,1s1.4-.4,1.4-.9-.6-.8-1.5-1.2l-1.3-.6c-1.1-.4-2.1-1.3-2.1-2.8s1.6-3.2,3.8-3.2,2.5.5,3.4,1.3l-1.3,1.6c-.7-.5-1.4-.8-2.1-.8s-1.3.3-1.3.8.7.8,1.6,1.2l1.3.5c1.3.5,2.1,1.4,2.1,2.8s-1.5,3.3-4,3.3-2.8-.5-3.9-1.5Z"/>
          <path class="cls-2" d="M97.4,837.8c0-3.5,2.3-5.5,5-5.5s2.4.6,3.2,1.4l-1.3,1.5c-.5-.5-1.1-.7-1.8-.7-1.4,0-2.5,1.2-2.5,3.2s1,3.3,2.4,3.3,1.5-.3,2-.9l1.3,1.5c-.9,1-2.1,1.5-3.4,1.5-2.7,0-4.9-1.8-4.9-5.3Z"/>
          <path class="cls-2" d="M107.2,832.6h2.5v8.3h4v2.1h-6.5v-10.4Z"/>
        </g>
        <g>
          <path class="cls-2" d="M120.2,525.7v3.7c0,2.3-.8,4.2-3.4,4.2s-3.6-1.9-3.6-4.1v-1.2h-3.5v-2.5h10.4ZM115.2,529.3c0,1.2.6,1.8,1.6,1.8s1.4-.7,1.4-1.9v-1h-3v1.1Z"/>
          <path class="cls-2" d="M115,534.8c3.4,0,5.4,1.9,5.4,4.8s-2,4.8-5.4,4.8-5.4-1.9-5.4-4.8,2-4.8,5.4-4.8ZM115,541.8c2,0,3.2-.8,3.2-2.2s-1.2-2.2-3.2-2.2-3.3.9-3.3,2.2,1.3,2.2,3.3,2.2Z"/>
          <path class="cls-2" d="M120.2,545.3v2.5l-4.8.7c-1.1.1-2.2.3-3.3.4h0c1.1.3,2.2.5,3.3.7l4.8,1.1v2.1l-4.8,1.1c-1.1.2-2.2.4-3.3.6h0c1.2.2,2.3.3,3.3.4l4.8.7v2.4l-10.4-1.8v-3.2l4.6-.9c.8-.2,1.6-.3,2.5-.4h0c-.8-.2-1.6-.3-2.5-.5l-4.6-.9v-3.1l10.4-1.9Z"/>
          <path class="cls-2" d="M120.2,559.3v6.6h-2.1v-4.1h-2v3.5h-2.1v-3.5h-2.2v4.3h-2.1v-6.8h10.4Z"/>
          <path class="cls-2" d="M120.2,568.1v3.8c0,2.2-.8,4.1-3.3,4.1s-2.5-.7-3-1.8l-4.1,2.3v-2.8l3.7-1.9v-1.2h-3.7v-2.5h10.4ZM115.4,571.8c0,1.2.5,1.8,1.5,1.8s1.3-.6,1.3-1.8v-1.1h-2.8v1.1Z"/>
        </g>
        <g>
          <path class="cls-2" d="M120.2,728.1v3l-10.4,3.2v-2.6l2.4-.6v-3.1l-2.4-.6v-2.5l10.4,3.2ZM114.1,728.4v2.1l.9-.2c1-.3,2.3-.5,3.3-.8h0c-1.1-.3-2.3-.6-3.3-.9l-.9-.2Z"/>
          <path class="cls-2" d="M120.2,735.3v2.6l-5,2.6c-.7.4-1.5.7-2.4,1h0c1.1,0,2.6-.3,3.8-.3h3.5v2.4h-10.4v-2.6l5-2.6c.7-.4,1.5-.7,2.4-1h0c-1.2,0-2.6.3-3.8.3h-3.5v-2.4h10.4Z"/>
          <path class="cls-2" d="M120.2,747.9v3l-10.4,3.2v-2.6l2.4-.6v-3.1l-2.4-.6v-2.5l10.4,3.2ZM114.1,748.3v2.1l.9-.2c1-.3,2.3-.5,3.3-.8h0c-1.1-.3-2.3-.6-3.3-.9l-.9-.2Z"/>
          <path class="cls-2" d="M120.2,755.2v2.5h-8.3v4h-2.1v-6.5h10.4Z"/>
          <path class="cls-2" d="M115,762.5c3.4,0,5.4,1.9,5.4,4.8s-2,4.8-5.4,4.8-5.4-1.9-5.4-4.8,2-4.8,5.4-4.8ZM115,769.5c2,0,3.2-.8,3.2-2.2s-1.2-2.2-3.2-2.2-3.3.9-3.3,2.2,1.3,2.2,3.3,2.2Z"/>
          <path class="cls-2" d="M114.9,773.5c3.5,0,5.5,2.3,5.5,5.1s-.6,2.6-1.4,3.3l-1.5-1.3c.5-.5.7-1.1.7-1.9,0-1.5-1.2-2.7-3.2-2.7s-3.3.9-3.3,2.9,0,.8.3,1h1.7v-1.7h2v3.9h-4.9c-.7-.7-1.3-2-1.3-3.5,0-2.9,1.8-5.2,5.3-5.2Z"/>
          <path class="cls-2" d="M120.2,787.4v2.5h-10.4v-2.5h10.4Z"/>
          <path class="cls-2" d="M120.2,792.3v2.6l-5,2.6c-.7.4-1.5.7-2.4,1h0c1.1,0,2.6-.3,3.8-.3h3.5v2.4h-10.4v-2.6l5-2.6c.7-.4,1.5-.7,2.4-1h0c-1.2,0-2.6.3-3.8.3h-3.5v-2.4h10.4Z"/>
        </g>
        <rect class="cls-29" x="124.5" y="683.4" width="4.5" height="159.9" rx="2.3" ry="2.3"/>
        <rect class="cls-29" x="124.5" y="456.8" width="4.5" height="187.7" rx="2.3" ry="2.3"/>
        <g>
          <g>
            <polygon class="cls-28" points="293 833.4 289.4 833.4 289.3 833.4 285.7 833.4 277.2 841.8 277.2 874.9 285.7 883.4 289.3 883.4 289.4 883.4 293 883.4 301.4 874.9 301.4 841.8 293 833.4"/>
            <g>
              <rect class="cls-19" x="286.2" y="843" width="6.2" height="6.2"/>
              <rect class="cls-19" x="286.2" y="867.6" width="6.2" height="6.2"/>
            </g>
          </g>
          <g>
            <polygon class="cls-28" points="317.2 833.4 313.6 833.4 313.5 833.4 309.9 833.4 301.4 841.8 301.4 874.9 309.9 883.4 313.5 883.4 313.6 883.4 317.2 883.4 325.7 874.9 325.7 841.8 317.2 833.4"/>
            <g>
              <rect class="cls-19" x="310.4" y="843" width="6.2" height="6.2"/>
              <rect class="cls-19" x="310.4" y="867.6" width="6.2" height="6.2"/>
            </g>
          </g>
          <g>
            <polygon class="cls-28" points="341.4 833.4 337.8 833.4 337.8 833.4 334.1 833.4 325.7 841.8 325.7 874.9 334.1 883.4 337.8 883.4 337.8 883.4 341.4 883.4 349.9 874.9 349.9 841.8 341.4 833.4"/>
            <g>
              <rect class="cls-19" x="334.7" y="843" width="6.2" height="6.2"/>
              <rect class="cls-19" x="334.7" y="867.6" width="6.2" height="6.2"/>
            </g>
          </g>
        </g>
        <path class="cls-29" d="M271.2,821.9c-1.3,0-2.3,1-2.3,2.3v58.5c0,1.3,1,2.3,2.3,2.3h0c1.3,0,2.3-1,2.3-2.3v-53.9c0-1.3,1-2.3,2.3-2.3h75.6c1.3,0,2.3,1,2.3,2.3v53.9c0,1.3,1,2.3,2.3,2.3h0c1.3,0,2.3-1,2.3-2.3v-58.5c0-1.3-1-2.3-2.3-2.3h-84.7Z"/>
        <rect class="cls-29" x="465.8" y="447.2" width="4.5" height="394.7" rx="2.3" ry="2.3"/>
        <g>
          <path class="cls-2" d="M487.2,588.9v3c0,3.2-1.6,5.3-5.2,5.3s-5.2-2.1-5.2-5.1v-3.1h10.4ZM478.8,591.7c0,1.7.8,2.9,3.2,2.9s3.2-1.2,3.2-2.9v-.4h-6.4v.4Z"/>
          <path class="cls-2" d="M487.2,599v2.5h-10.4v-2.5h10.4Z"/>
          <path class="cls-2" d="M481.9,603.5c3.5,0,5.5,2.3,5.5,5.1s-.6,2.6-1.4,3.3l-1.5-1.3c.5-.5.7-1.1.7-1.9,0-1.5-1.2-2.7-3.2-2.7s-3.3.9-3.3,2.9,0,.8.3,1h1.7v-1.7h2v3.9h-4.9c-.7-.7-1.3-2-1.3-3.5,0-2.9,1.8-5.2,5.3-5.2Z"/>
          <path class="cls-2" d="M487.2,614.2v2.5h-10.4v-2.5h10.4Z"/>
          <path class="cls-2" d="M485.1,621.1v-2.8h2.1v8.1h-2.1v-2.8h-8.3v-2.5h8.3Z"/>
          <path class="cls-2" d="M487.2,629.3v3l-10.4,3.2v-2.6l2.4-.6v-3.1l-2.4-.6v-2.5l10.4,3.2ZM481.1,629.7v2.1l.9-.2c1-.3,2.3-.5,3.3-.8h0c-1.1-.3-2.3-.6-3.3-.9l-.9-.2Z"/>
          <path class="cls-2" d="M487.2,636.6v2.5h-8.3v4h-2.1v-6.5h10.4Z"/>
          <path class="cls-2" d="M481.3,648.1c2.8,0,5.1.8,7.3,2.1l-.6,1.6c-2.1-1.2-4.4-1.7-6.7-1.7s-4.6.5-6.7,1.7l-.6-1.6c2.2-1.3,4.5-2.1,7.3-2.1Z"/>
          <path class="cls-2" d="M487.2,653.7v3.7c0,2.3-.8,4.2-3.4,4.2s-3.6-1.9-3.6-4.1v-1.2h-3.5v-2.5h10.4ZM482.2,657.3c0,1.2.6,1.8,1.6,1.8s1.4-.7,1.4-1.9v-1h-3v1.1Z"/>
          <path class="cls-2" d="M487.2,662.3v2.5l-4.8.7c-1.1.1-2.2.3-3.3.4h0c1.1.3,2.2.5,3.3.7l4.8,1.1v2.1l-4.8,1.1c-1.1.2-2.2.4-3.3.6h0c1.2.2,2.3.3,3.3.4l4.8.7v2.4l-10.4-1.8v-3.2l4.6-.9c.8-.2,1.6-.3,2.5-.4h0c-.8-.2-1.6-.3-2.5-.5l-4.6-.9v-3.1l10.4-1.9Z"/>
          <path class="cls-2" d="M487.2,676.4v2.7l-4.5,1.6c-.6.2-1.2.4-1.9.6h0c.7.3,1.3.4,1.9.6l4.5,1.6v2.7h-10.4v-2.3h3.6c1,0,2.8.2,3.8.3h0c0,0-2.7-.9-2.7-.9l-3.8-1.4v-1.4l3.8-1.4,2.7-.8h0c-1,0-2.8.3-3.8.3h-3.6v-2.2h10.4Z"/>
          <path class="cls-2" d="M481.8,690.3c0-.4-.4-.8-.9-1.1l1-1.3c1.2.8,1.7,1.6,1.7,2.4,0,1.3-1.2,1.9-1.2,2.8s.4.8.9,1.1l-1,1.3c-1.2-.8-1.7-1.6-1.7-2.4,0-1.3,1.2-1.9,1.2-2.8Z"/>
          <path class="cls-2" d="M474.6,696.7c2.1,1.2,4.4,1.7,6.7,1.7s4.6-.5,6.7-1.7l.6,1.6c-2.2,1.3-4.5,2.1-7.3,2.1s-5.1-.8-7.3-2.1l.6-1.6Z"/>
        </g>
        <g>
          <rect class="cls-14" x="559.7" y="617.3" width="33.4" height="240.9"/>
          <rect x="566.6" y="619.9" width="19.6" height="19.6"/>
          <rect x="566.6" y="650.4" width="19.6" height="19.6"/>
          <rect x="566.6" y="681" width="19.6" height="19.6"/>
          <rect x="566.6" y="711.5" width="19.6" height="19.6"/>
          <rect x="566.6" y="742" width="19.6" height="19.6"/>
          <rect x="566.6" y="772.5" width="19.6" height="19.6"/>
          <rect x="566.6" y="803" width="19.6" height="19.6"/>
          <rect x="566.6" y="833.5" width="19.6" height="19.6"/>
        </g>
        <g>
          <rect class="cls-14" x="559.7" y="314" width="33.4" height="301.1"/>
          <rect x="566.6" y="378.7" width="19.6" height="19.6"/>
          <rect x="566.6" y="409.2" width="19.6" height="19.6"/>
          <rect x="566.6" y="439.7" width="19.6" height="19.6"/>
          <rect x="566.6" y="470.2" width="19.6" height="19.6"/>
          <rect x="566.6" y="500.7" width="19.6" height="19.6"/>
          <rect x="566.6" y="531.2" width="19.6" height="19.6"/>
          <rect x="566.6" y="561.7" width="19.6" height="19.6"/>
          <rect x="566.6" y="592.3" width="19.6" height="19.6"/>
          <rect x="566.6" y="348.2" width="19.6" height="19.6"/>
          <rect x="566.6" y="317.9" width="19.6" height="19.6"/>
        </g>
        <g>
          <g>
            <path class="cls-2" d="M509.5,322.9h3l3.2,10.4h-2.6l-.6-2.4h-3.1l-.6,2.4h-2.5l3.2-10.4ZM509.9,329h2.1l-.2-.9c-.3-1-.5-2.3-.8-3.3h0c-.3,1.1-.5,2.3-.8,3.3l-.2.9Z"/>
            <path class="cls-2" d="M515.9,332.1l1.1-1.6c.6.6,1.3,1,2.1,1s1.6-.6,1.6-1.6-.6-1.6-1.5-1.6-.9.1-1.5.5l-1.1-.7.3-5.2h5.8v2.1h-3.7v1.8c.2-.1.5-.2.9-.2,1.8,0,3.2,1,3.2,3.3s-1.8,3.7-3.8,3.7-2.8-.6-3.6-1.4Z"/>
            <path class="cls-2" d="M527.4,322h1.6l-3.1,13.9h-1.6l3.1-13.9Z"/>
            <path class="cls-2" d="M530,332l1.3-1.6c.7.6,1.7,1,2.6,1s1.4-.4,1.4-.9-.6-.8-1.5-1.2l-1.3-.6c-1.1-.4-2.1-1.3-2.1-2.8s1.6-3.2,3.8-3.2,2.5.5,3.4,1.3l-1.3,1.6c-.7-.5-1.4-.8-2.1-.8s-1.3.3-1.3.8.7.8,1.6,1.2l1.3.5c1.3.5,2.1,1.4,2.1,2.8s-1.5,3.3-4,3.3-2.8-.5-3.9-1.5Z"/>
            <path class="cls-2" d="M539.1,328.2c0-3.5,2.3-5.5,5-5.5s2.4.6,3.2,1.4l-1.3,1.5c-.5-.5-1.1-.7-1.8-.7-1.4,0-2.5,1.2-2.5,3.2s1,3.3,2.4,3.3,1.5-.3,2-.9l1.3,1.5c-.9,1-2.1,1.5-3.4,1.5-2.7,0-4.9-1.8-4.9-5.3Z"/>
            <path class="cls-2" d="M548.9,322.9h2.5v8.3h4v2.1h-6.5v-10.4Z"/>
          </g>
          <g>
            <path class="cls-2" d="M507.3,353.2h3l3.2,10.4h-2.6l-.6-2.4h-3.1l-.6,2.4h-2.5l3.2-10.4ZM507.7,359.3h2.1l-.2-.9c-.3-1-.5-2.3-.8-3.3h0c-.3,1.1-.5,2.3-.8,3.3l-.2.9Z"/>
            <path class="cls-2" d="M518.1,361h-4.4v-1.7l3.6-6.1h3.1v5.9h1.2v1.9h-1.2v2.6h-2.3v-2.6ZM518.1,359.1v-1.5c0-.7,0-1.6,0-2.3h0c-.3.6-.5,1.2-.8,1.8l-1.2,2.1h2Z"/>
            <path class="cls-2" d="M525.3,352.2h1.6l-3.1,13.9h-1.6l3.1-13.9Z"/>
            <path class="cls-2" d="M527.9,362.2l1.3-1.6c.7.6,1.7,1,2.6,1s1.4-.4,1.4-.9-.6-.8-1.5-1.2l-1.3-.6c-1.1-.4-2.1-1.3-2.1-2.8s1.6-3.2,3.8-3.2,2.5.5,3.4,1.3l-1.3,1.6c-.7-.5-1.4-.8-2.1-.8s-1.3.3-1.3.8.7.8,1.6,1.2l1.3.5c1.3.5,2.1,1.4,2.1,2.8s-1.5,3.3-4,3.3-2.8-.5-3.9-1.5Z"/>
            <path class="cls-2" d="M537.5,353.2h3c3.2,0,5.3,1.6,5.3,5.2s-2.1,5.2-5.1,5.2h-3.1v-10.4ZM540.3,361.6c1.7,0,2.9-.8,2.9-3.2s-1.2-3.2-2.9-3.2h-.4v6.4h.4Z"/>
            <path class="cls-2" d="M549.4,353.2h3l3.2,10.4h-2.6l-.6-2.4h-3.1l-.6,2.4h-2.5l3.2-10.4ZM549.8,359.3h2.1l-.2-.9c-.3-1-.5-2.3-.8-3.3h0c-.3,1.1-.5,2.3-.8,3.3l-.2.9Z"/>
          </g>
          <g>
            <path class="cls-2" d="M521.7,383.7h3l3.2,10.4h-2.6l-.6-2.4h-3.1l-.6,2.4h-2.5l3.2-10.4ZM522.1,389.8h2.1l-.2-.9c-.3-1-.5-2.3-.8-3.3h0c-.3,1.1-.5,2.3-.8,3.3l-.2.9Z"/>
            <path class="cls-2" d="M529,383.7h3.8c2.2,0,4.1.8,4.1,3.3s-.7,2.5-1.8,3l2.3,4.1h-2.8l-1.9-3.7h-1.2v3.7h-2.5v-10.4ZM532.6,388.5c1.2,0,1.8-.5,1.8-1.5s-.6-1.3-1.8-1.3h-1.1v2.8h1.1Z"/>
            <path class="cls-2" d="M538.9,383.7h6.6v2.1h-4.1v2h3.5v2.1h-3.5v2.2h4.3v2.1h-6.8v-10.4Z"/>
            <path class="cls-2" d="M547.7,383.7h6.7v2.1h-4.2v2.3h3.6v2.1h-3.6v4h-2.5v-10.4Z"/>
          </g>
          <g>
            <path class="cls-2" d="M524,419.5c0-3.5,2.3-5.5,5.1-5.5s2.6.6,3.3,1.4l-1.3,1.5c-.5-.5-1.1-.7-1.9-.7-1.5,0-2.7,1.2-2.7,3.2s.9,3.3,2.9,3.3.8,0,1-.3v-1.7h-1.7v-2h3.9v4.9c-.7.7-2,1.3-3.5,1.3-2.9,0-5.2-1.8-5.2-5.3Z"/>
            <path class="cls-2" d="M534.7,414.2h2.6l2.6,5c.4.7.7,1.5,1,2.4h0c-.1-1.1-.3-2.6-.3-3.8v-3.5h2.4v10.4h-2.6l-2.6-5c-.4-.7-.7-1.5-1-2.4h0c.1,1.2.3,2.6.3,3.8v3.5h-2.4v-10.4Z"/>
            <path class="cls-2" d="M545.4,414.2h3c3.2,0,5.3,1.6,5.3,5.2s-2.1,5.2-5.1,5.2h-3.1v-10.4ZM548.2,422.6c1.7,0,2.9-.8,2.9-3.2s-1.2-3.2-2.9-3.2h-.4v6.4h.4Z"/>
          </g>
          <g>
            <path class="cls-2" d="M495.9,453.1h2.2v-5.9h-1.9v-1.5c1.1-.2,1.8-.5,2.6-.9h1.8v8.4h1.9v2h-6.6v-2Z"/>
            <path class="cls-2" d="M503.7,453.9l1.1-1.6c.6.6,1.4,1,2.2,1s1.6-.4,1.6-1.2-.5-1.4-2.7-1.4v-1.8c1.8,0,2.3-.5,2.3-1.4s-.4-1.1-1.2-1.1-1.2.3-1.9.9l-1.2-1.5c.9-.8,2-1.3,3.2-1.3,2.2,0,3.6,1,3.6,2.9s-.6,1.8-1.7,2.3h0c1.2.4,2,1.2,2,2.6,0,2-1.8,3-3.8,3s-2.8-.6-3.6-1.4Z"/>
            <path class="cls-2" d="M515.2,443.7h1.6l-3.1,13.9h-1.6l3.1-13.9Z"/>
            <path class="cls-2" d="M517.8,453.8l1.3-1.6c.7.6,1.7,1,2.6,1s1.4-.4,1.4-.9-.6-.8-1.5-1.2l-1.3-.6c-1.1-.4-2.1-1.3-2.1-2.8s1.6-3.2,3.8-3.2,2.5.5,3.4,1.3l-1.3,1.6c-.7-.5-1.4-.8-2.1-.8s-1.3.3-1.3.8.7.8,1.6,1.2l1.3.5c1.3.5,2.1,1.4,2.1,2.8s-1.5,3.3-4,3.3-2.8-.5-3.9-1.5Z"/>
            <path class="cls-2" d="M526.9,450c0-3.5,2.3-5.5,5-5.5s2.4.6,3.2,1.4l-1.3,1.5c-.5-.5-1.1-.7-1.8-.7-1.4,0-2.5,1.2-2.5,3.2s1,3.3,2.4,3.3,1.5-.3,2-.9l1.3,1.5c-.9,1-2.1,1.5-3.4,1.5-2.7,0-4.9-1.8-4.9-5.3Z"/>
            <path class="cls-2" d="M536.7,444.7h2.5v8.3h4v2.1h-6.5v-10.4Z"/>
            <path class="cls-2" d="M545.1,444.7h2.5v4.1h0l3-4.1h2.7l-3.1,4.2,3.7,6.2h-2.7l-2.5-4.3-1.1,1.5v2.7h-2.5v-10.4Z"/>
          </g>
          <g>
            <path class="cls-2" d="M494.8,483.6h2.2v-5.9h-1.9v-1.5c1.1-.2,1.8-.5,2.6-.9h1.8v8.4h1.9v2h-6.6v-2Z"/>
            <path class="cls-2" d="M502.8,484.1c2.7-2.3,4.4-4.2,4.4-5.6s-.5-1.5-1.4-1.5-1.3.5-1.8,1l-1.3-1.3c1-1.1,1.9-1.7,3.4-1.7s3.4,1.3,3.4,3.3-1.7,3.8-3.3,5.4c.5,0,1.2-.1,1.7-.1h2.1v2.1h-7.2v-1.5Z"/>
            <path class="cls-2" d="M514,474.3h1.6l-3.1,13.9h-1.6l3.1-13.9Z"/>
            <path class="cls-2" d="M517.3,475.2h2.7l1.6,4.5c.2.6.4,1.2.6,1.9h0c.2-.7.4-1.3.6-1.9l1.6-4.5h2.7v10.4h-2.3v-3.6c0-1,.2-2.8.3-3.8h0l-.9,2.7-1.4,3.8h-1.4l-1.4-3.8-.8-2.7h0c.1,1,.3,2.8.3,3.8v3.6h-2.2v-10.4Z"/>
            <path class="cls-2" d="M529.6,475.2h2.5v10.4h-2.5v-10.4Z"/>
            <path class="cls-2" d="M533.8,484.3l1.3-1.6c.7.6,1.7,1,2.6,1s1.4-.4,1.4-.9-.6-.8-1.5-1.2l-1.3-.6c-1.1-.4-2.1-1.3-2.1-2.8s1.6-3.2,3.8-3.2,2.5.5,3.4,1.3l-1.3,1.6c-.7-.5-1.4-.8-2.1-.8s-1.3.3-1.3.8.7.8,1.6,1.2l1.3.5c1.3.5,2.1,1.4,2.1,2.8s-1.5,3.3-4,3.3-2.8-.5-3.9-1.5Z"/>
            <path class="cls-2" d="M542.9,480.4c0-3.4,1.9-5.4,4.8-5.4s4.8,2,4.8,5.4-1.9,5.4-4.8,5.4-4.8-2-4.8-5.4ZM549.9,480.4c0-2-.8-3.2-2.2-3.2s-2.2,1.2-2.2,3.2.9,3.3,2.2,3.3,2.2-1.3,2.2-3.3Z"/>
          </g>
          <g>
            <path class="cls-2" d="M487.5,511.1c-.4,0-.8.4-1.1.9l-1.3-1c.8-1.2,1.6-1.7,2.4-1.7,1.3,0,1.9,1.2,2.8,1.2s.8-.4,1.1-.9l1.3,1c-.8,1.2-1.6,1.7-2.4,1.7-1.3,0-1.9-1.2-2.8-1.2Z"/>
            <path class="cls-2" d="M494.2,514.1h2.2v-5.9h-1.9v-1.5c1.1-.2,1.8-.5,2.6-.9h1.8v8.4h1.9v2h-6.6v-2Z"/>
            <path class="cls-2" d="M502.7,514.1h2.2v-5.9h-1.9v-1.5c1.1-.2,1.8-.5,2.6-.9h1.8v8.4h1.9v2h-6.6v-2Z"/>
            <path class="cls-2" d="M513.5,504.8h1.6l-3.1,13.9h-1.6l3.1-13.9Z"/>
            <path class="cls-2" d="M516.8,505.7h2.7l1.6,4.5c.2.6.4,1.2.6,1.9h0c.2-.7.4-1.3.6-1.9l1.6-4.5h2.7v10.4h-2.3v-3.6c0-1,.2-2.8.3-3.8h0l-.9,2.7-1.4,3.8h-1.4l-1.4-3.8-.8-2.7h0c.1,1,.3,2.8.3,3.8v3.6h-2.2v-10.4Z"/>
            <path class="cls-2" d="M528.5,510.9c0-3.4,1.9-5.4,4.8-5.4s4.8,2,4.8,5.4-1.9,5.4-4.8,5.4-4.8-2-4.8-5.4ZM535.5,510.9c0-2-.8-3.2-2.2-3.2s-2.2,1.2-2.2,3.2.9,3.3,2.2,3.3,2.2-1.3,2.2-3.3Z"/>
            <path class="cls-2" d="M539.3,514.8l1.3-1.6c.7.6,1.7,1,2.6,1s1.4-.4,1.4-.9-.6-.8-1.5-1.2l-1.3-.6c-1.1-.4-2.1-1.3-2.1-2.8s1.6-3.2,3.8-3.2,2.5.5,3.4,1.3l-1.3,1.6c-.7-.5-1.4-.8-2.1-.8s-1.3.3-1.3.8.7.8,1.6,1.2l1.3.5c1.3.5,2.1,1.4,2.1,2.8s-1.5,3.3-4,3.3-2.8-.5-3.9-1.5Z"/>
            <path class="cls-2" d="M548.9,505.7h2.5v10.4h-2.5v-10.4Z"/>
          </g>
          <g>
            <path class="cls-2" d="M529.4,541.6c-.4,0-.8.4-1.1.9l-1.3-1c.8-1.2,1.6-1.7,2.4-1.7,1.3,0,1.9,1.2,2.8,1.2s.8-.4,1.1-.9l1.3,1c-.8,1.2-1.6,1.7-2.4,1.7-1.3,0-1.9-1.2-2.8-1.2Z"/>
            <path class="cls-2" d="M536.1,544.6h2.2v-5.9h-1.9v-1.5c1.1-.2,1.8-.5,2.6-.9h1.8v8.4h1.9v2h-6.6v-2Z"/>
            <path class="cls-2" d="M544.1,541.4c0-3.6,1.5-5.4,3.7-5.4s3.7,1.8,3.7,5.4-1.5,5.4-3.7,5.4-3.7-1.9-3.7-5.4ZM549.1,541.4c0-2.8-.6-3.5-1.3-3.5s-1.3.6-1.3,3.5.6,3.5,1.3,3.5,1.3-.7,1.3-3.5Z"/>
          </g>
          <g>
            <path class="cls-2" d="M537.3,572.1c-.4,0-.8.4-1.1.9l-1.3-1c.8-1.2,1.6-1.7,2.4-1.7,1.3,0,1.9,1.2,2.8,1.2s.8-.4,1.1-.9l1.3,1c-.8,1.2-1.6,1.7-2.4,1.7-1.3,0-1.9-1.2-2.8-1.2Z"/>
            <path class="cls-2" d="M543.6,576.1l1.3-1.5c.3.4,1,.7,1.6.7,1.1,0,1.9-.8,2-3-.5.7-1.4,1-2,1-1.7,0-3-1-3-3.3s1.6-3.5,3.4-3.5,3.9,1.5,3.9,5.3-2,5.5-4.1,5.5-2.4-.6-3.1-1.2ZM547,571.6c.5,0,1.1-.3,1.5-.9-.2-1.8-.8-2.3-1.5-2.3s-1.2.5-1.2,1.7.5,1.5,1.2,1.5Z"/>
          </g>
          <path class="cls-2" d="M543.1,605.1c0-1.3.7-2.1,1.7-2.6h0c-.8-.7-1.4-1.5-1.4-2.6,0-1.7,1.4-2.8,3.3-2.8s3.1,1.1,3.1,2.8-.6,1.8-1.3,2.3h0c1,.6,1.8,1.5,1.8,2.9s-1.5,2.8-3.6,2.8-3.6-1.1-3.6-2.8ZM548,604.9c0-.9-.8-1.3-2.1-1.9-.4.4-.7,1-.7,1.7s.7,1.4,1.5,1.4,1.3-.4,1.3-1.2ZM547.8,600c0-.8-.4-1.2-1.2-1.2s-1.1.4-1.1,1.1.6,1.3,1.7,1.7c.4-.5.6-1,.6-1.5Z"/>
          <path class="cls-2" d="M547,627h-4.5v-2.1h7.1v1.5c-2.4,2.9-2.7,4.8-2.8,8.9h-2.5c.2-3.4.7-5.6,2.7-8.3Z"/>
          <g>
            <path class="cls-2" d="M535.6,660.8c-.4,0-.8.4-1.1.9l-1.3-1c.8-1.2,1.6-1.7,2.4-1.7,1.3,0,1.9,1.2,2.8,1.2s.8-.4,1.1-.9l1.3,1c-.8,1.2-1.6,1.7-2.4,1.7-1.3,0-1.9-1.2-2.8-1.2Z"/>
            <path class="cls-2" d="M541.9,660.7c0-3.8,2-5.5,4.1-5.5s2.4.6,3,1.2l-1.3,1.5c-.4-.4-1-.7-1.6-.7-1.1,0-1.9.8-2,3,.5-.6,1.4-1,2-1,1.7,0,3,1,3,3.3s-1.6,3.5-3.4,3.5-3.9-1.5-3.9-5.3ZM544.2,662c.2,1.7.9,2.2,1.5,2.2s1.2-.5,1.2-1.7-.6-1.5-1.3-1.5-1.1.3-1.5,1Z"/>
          </g>
          <g>
            <path class="cls-2" d="M535,691.4c-.4,0-.8.4-1.1.9l-1.3-1c.8-1.2,1.6-1.7,2.4-1.7,1.3,0,1.9,1.2,2.8,1.2s.8-.4,1.1-.9l1.3,1c-.8,1.2-1.6,1.7-2.4,1.7-1.3,0-1.9-1.2-2.8-1.2Z"/>
            <path class="cls-2" d="M541,695.1l1.1-1.6c.6.6,1.3,1,2.1,1s1.6-.6,1.6-1.6-.6-1.6-1.5-1.6-.9.1-1.5.5l-1.1-.7.3-5.2h5.8v2.1h-3.7v1.8c.2-.1.5-.2.9-.2,1.8,0,3.2,1,3.2,3.3s-1.8,3.7-3.8,3.7-2.8-.6-3.6-1.4Z"/>
          </g>
          <path class="cls-2" d="M544.8,724.3h-4.4v-1.7l3.6-6.1h3.1v5.9h1.2v1.9h-1.2v2.6h-2.3v-2.6ZM544.8,722.4v-1.5c0-.7,0-1.6,0-2.3h0c-.3.6-.5,1.2-.8,1.8l-1.2,2.1h2Z"/>
          <g>
            <path class="cls-2" d="M533.9,752.4c-.4,0-.8.4-1.1.9l-1.3-1c.8-1.2,1.6-1.7,2.4-1.7,1.3,0,1.9,1.2,2.8,1.2s.8-.4,1.1-.9l1.3,1c-.8,1.2-1.6,1.7-2.4,1.7-1.3,0-1.9-1.2-2.8-1.2Z"/>
            <path class="cls-2" d="M539.8,756.1l1.1-1.6c.6.6,1.4,1,2.2,1s1.6-.4,1.6-1.2-.5-1.4-2.7-1.4v-1.8c1.8,0,2.3-.5,2.3-1.4s-.4-1.1-1.2-1.1-1.2.3-1.9.9l-1.2-1.5c.9-.8,2-1.3,3.2-1.3,2.2,0,3.6,1,3.6,2.9s-.6,1.8-1.7,2.3h0c1.2.4,2,1.2,2,2.6,0,2-1.8,3-3.8,3s-2.8-.6-3.6-1.4Z"/>
          </g>
          <path class="cls-2" d="M539.5,786.4c2.7-2.3,4.4-4.2,4.4-5.6s-.5-1.5-1.4-1.5-1.3.5-1.8,1l-1.3-1.3c1-1.1,1.9-1.7,3.4-1.7s3.4,1.3,3.4,3.3-1.7,3.8-3.3,5.4c.5,0,1.2-.1,1.7-.1h2.1v2.1h-7.2v-1.5Z"/>
          <g>
            <path class="cls-2" d="M509.8,811h-2.8v-2.1h8.1v2.1h-2.8v8.3h-2.5v-8.3Z"/>
            <path class="cls-2" d="M518.2,814l-2.7-5.1h2.8l.8,1.9c.2.5.5,1,.8,1.7h0c.2-.7.5-1.2.7-1.7l.8-1.9h2.6l-2.7,5.2,2.9,5.2h-2.8l-1-2c-.3-.5-.5-1.1-.8-1.7h0c-.2.6-.5,1.2-.7,1.7l-.9,2h-2.7l2.9-5.4Z"/>
            <path class="cls-2" d="M538.1,814l-5,5c-.4.4-1,.4-1.4,0s-.4-1,0-1.4l3.3-3.3h-9.6c-.6,0-1-.4-1-1s.4-1,1-1h9.6l-3.3-3.3c-.4-.4-.4-1,0-1.4s1-.4,1.4,0l5,5c.4.4.4,1,0,1.4h0Z"/>
            <path class="cls-2" d="M539.4,817.3h2.2v-5.9h-1.9v-1.5c1.1-.2,1.8-.5,2.6-.9h1.8v8.4h1.9v2h-6.6v-2Z"/>
          </g>
          <g>
            <path class="cls-2" d="M506,839.4h3.8c2.2,0,4.1.8,4.1,3.3s-.7,2.5-1.8,3l2.3,4.1h-2.8l-1.9-3.7h-1.2v3.7h-2.5v-10.4ZM509.7,844.2c1.2,0,1.8-.5,1.8-1.5s-.6-1.3-1.8-1.3h-1.1v2.8h1.1Z"/>
            <path class="cls-2" d="M517.6,844.5l-2.7-5.1h2.8l.8,1.9c.2.5.5,1,.8,1.7h0c.2-.7.5-1.2.7-1.7l.8-1.9h2.6l-2.7,5.2,2.9,5.2h-2.8l-1-2c-.3-.5-.5-1.1-.8-1.7h0c-.2.6-.5,1.2-.7,1.7l-.9,2h-2.7l2.9-5.4Z"/>
            <path class="cls-2" d="M524.1,843.1l5-5c.4-.4,1-.4,1.4,0s.4,1,0,1.4l-3.3,3.3h9.6c.6,0,1,.4,1,1s-.4,1-1,1h-9.6l3.3,3.3c.4.4.4,1,0,1.4s-1,.4-1.4,0l-5-5c-.4-.4-.4-1,0-1.4h0Z"/>
            <path class="cls-2" d="M538.3,844.6c0-3.6,1.5-5.4,3.7-5.4s3.7,1.8,3.7,5.4-1.5,5.4-3.7,5.4-3.7-1.9-3.7-5.4ZM543.4,844.6c0-2.8-.6-3.5-1.3-3.5s-1.3.6-1.3,3.5.6,3.5,1.3,3.5,1.3-.7,1.3-3.5Z"/>
          </g>
        </g>
        <g>
          <rect class="cls-6" x="396.9" y="424.6" width="10.7" height="17.2"/>
          <rect class="cls-18" x="396.9" y="427.2" width="10.7" height="11.8"/>
        </g>
      </g>
      <g>
        <rect id="rect815" x="714.8" y="112.4" width="186.2" height="250.3"/>
        <g>
          <rect id="rect943" class="cls-25" x="771.7" y="172.1" width="28.9" height="28.9"/>
          <rect id="rect943-2" class="cls-25" x="815.1" y="172.1" width="28.9" height="28.9"/>
        </g>
        <g>
          <rect id="rect821" class="cls-2" x="761.9" y="323" width="96.9" height="33.4"/>
          <path id="rect825" class="cls-24" d="M768.3,325.1h19.4c3.4,0,6.2,2.7,6.2,6.2v17.1c0,3.4-2.7,6.2-6.2,6.2h-19.4c-3.4,0-6.2-2.7-6.2-6.2v-17.1c0-3.4,2.8-6.2,6.2-6.2Z"/>
          <path id="rect872" class="cls-24" d="M833,325.1h19.4c3.4,0,6.2,2.7,6.2,6.2v17.1c0,3.4-2.7,6.2-6.2,6.2h-19.4c-3.4,0-6.2-2.7-6.2-6.2v-17.1c0-3.4,2.8-6.2,6.2-6.2Z"/>
          <path id="rect874" class="cls-24" d="M799.8,325.1h21c3,0,5.4,2.4,5.4,5.4v18.6c0,3-2.4,5.4-5.4,5.4h-21c-3,0-5.4-2.4-5.4-5.4v-18.6c0-3,2.4-5.4,5.4-5.4Z"/>
          <g class="cls-8">
            <path class="cls-2" d="M757.3,343.4c0,.8-.1,1.5-.4,2.1s-.7,1.1-1.2,1.6c-.5.4-1.1.8-1.8.9-.7.2-1.4.3-2.2.3s-1.1,0-1.6-.1-.9-.2-1.3-.3c-.4-.1-.7-.3-.9-.4-.2-.1-.4-.3-.5-.4s-.2-.2-.2-.4,0-.4,0-.7,0-.3,0-.5c0-.1,0-.2,0-.3,0,0,0-.1.1-.1,0,0,0,0,.2,0,.1,0,.3,0,.5.2s.5.3.8.5c.3.2.8.3,1.2.5s1,.2,1.7.2.9,0,1.3-.2.8-.3,1-.6.5-.5.7-.8.2-.8.2-1.2,0-.9-.3-1.2-.5-.6-.8-.9c-.3-.2-.8-.5-1.2-.7-.5-.2-.9-.4-1.4-.7s-.9-.5-1.4-.7c-.4-.3-.8-.6-1.2-.9s-.6-.8-.8-1.3-.3-1.1-.3-1.7.1-1.3.4-1.8c.2-.6.6-1,1-1.4.5-.4,1-.7,1.6-.8s1.3-.3,2-.3.8,0,1.1,0c.4,0,.7.1,1,.2s.6.2.9.4c.2.1.4.2.5.3s.1.1.1.2,0,0,0,.2,0,.1,0,.3v.8c0,.1,0,.2,0,.3,0,0,0,.1,0,.2s0,0-.1,0c0,0-.2,0-.4-.2-.2-.1-.5-.2-.8-.4-.3-.1-.7-.3-1-.4-.4-.1-.8-.2-1.3-.2s-.8,0-1.2.2c-.3.1-.6.3-.8.5-.2.2-.4.5-.5.8,0,.3-.2.6-.2.9,0,.5,0,.8.3,1.2s.5.6.8.9c.4.2.8.5,1.2.7s.9.4,1.4.7.9.5,1.4.7.8.6,1.2.9c.4.4.7.8.8,1.3s.2,1,.2,1.7h0Z"/>
          </g>
          <g class="cls-8">
            <path class="cls-2" d="M882.1,339.7c0,.3,0,.6-.3.7-.2.1-.5.2-.9.2h-14.3c-.4,0-.7,0-.9-.2s-.3-.4-.3-.7,0-.6.3-.7c.2-.1.5-.2.9-.2h14.3c.2,0,.3,0,.5,0s.3,0,.4.1c0,0,.2.2.2.3v.4h0Z"/>
          </g>
        </g>
        <rect id="rect947" class="cls-9" x="777.2" y="338.5" width="3.5" height="61.1"/>
        <rect id="rect949" class="cls-9" x="809.7" y="338.5" width="3.5" height="61.1"/>
        <rect id="rect951" class="cls-9" x="841.9" y="338.5" width="3.5" height="61.1"/>
        <path id="path31-1" class="cls-2" d="M767.7,137.3c1.2,0,1.3,0,1.5-.2.1,0,.3-.2.4-.4.1-.2.1-.4.1-2.7v-2.5h4.9v3.1c0,3.4,0,3.8-.4,4.7-.5,1.2-1.2,1.7-2.6,2.1-.4,0-.8,0-2.3,0s-2.1,0-2.4,0h-.6v-4.1h1.3ZM791.1,144.3c21,0,26.2,0,25.3.1h-.1.1c0,0,0,.1,0,.1-.1,0,0,0,.2,0h.4s-.4,0-.4,0c-.2,0-.4,0-.3,0,0,0,0,0,0,.6s0,.6.2.6,0,0,0,0-.3,0-.3,0-8.3,0-24.8,0h-24.8v-1.8h24.7ZM772.2,125.2h2.5v4h-5v-4s2.5,0,2.5,0ZM777.2,132.6c.2-1.1.5-2.2.9-3.1.2-.3.3-.6.3-.6,0,0,.1-.2.3-.4.2-.4.8-1.1,1-1.2,0,0,0,0,0,0,0,0,.6-.7,1.1-1,.5-.4.9-.6,1.8-.9,1.1-.4,1.7-.5,3-.5.9,0,1.2,0,1.7.2.4,0,.8.3,1,.3.2,0,.4.1.4.1,0,0,.3.1.6.3,1.2.7,2.8,2.5,3.4,3.9,1,2.2,1.1,4.3.4,6.3-.3.8-.5,1.3-.9,1.9-.4.7-.5.7-1.5,1.7-1.2,1.1-2,1.6-3.5,2.1-.8.2-2.3.3-3.1.1-1.1-.2-2.5-.8-3.4-1.4-.5-.3-1.1-.9-1.1-.9,0,0-.1-.2-.3-.4-.9-.9-1.8-2.7-2.2-4.1,0-.7-.1-2.1,0-2.5h0ZM781.9,134.7c.2.9.7,1.7,1.5,2.4s1.9,1,3,.7c1.1-.3,2.3-1.6,2.6-3.1.2-.8.2-2,0-2.8-.3-1.1-.9-2-1.7-2.6-.4-.3-.6-.3-.9-.4-.8-.1-1.7,0-2.3.2-.5.3-1.2,1-1.6,1.8-.5,1.1-.7,2.5-.4,3.7h0ZM795.9,125.2h4.9v2.2c0,2.1,0,2.3.1,2.6.3.9,1.5,1.5,2.5,1.1.5-.2.8-.5,1.1-.9l.2-.4v-4.6h5v2.6c0,2.4,0,2.6-.2,3.1-.3,1-.7,1.9-1.3,2.5-.1.2-.3.3-.3.4,0,0-.6.7-1.2,1.1-.5.3-1.1.7-1.5.8,0,0-.5.1-.8.2-.5.1-.7.2-1.8.2s-1.3,0-1.9-.2c-1-.3-1.3-.4-2-.8-.8-.5-1.4-1.1-1.9-1.9-.8-1.1-1-1.9-1.2-3.1,0-.8,0-4.7,0-4.8h0ZM802.8,137.4h4v4.1h-8.1v-4.1h4,0ZM809.7,122s0,0,0-.2.1-.3.3-.3c.2,0,7,0,15.3,0h14.9v1.8h-15.2c-8.4,0-15.3,0-15.3,0,0,0,0-.1,0-.6,0-.3,0-.6,0-.6h0ZM816.6,132h5.2v4.1h-10.3v-4.1h5.2ZM825.8,125.2h2.5v4h-5v-4h2.5ZM825.8,131.3h2.5v10.4h-5v-10.4h2.5ZM835.7,125.2h5.2v4h-10.4v-4h5.2ZM831.4,131.6s1.1,0,2.4,0h2.4v2.4c0,3.3,0,3.2,2.4,3.2h1.6v4.2h-.6c-.9.2-3.7.2-4.5,0-1.3-.2-2.2-.6-2.7-1.3-.6-.7-.9-1.5-1-2.6,0-.7,0-5.8,0-5.9h0ZM843.8,123.2c.1-.4.4-.8.7-1.1,1.1-1,2.5-1.1,3.6-.3.5.4.7.5.9,1s.2.5.2,1.1,0,.8-.2,1.1c-.4.8-1.3,1.5-2.3,1.5-.8,0-1.6-.2-2.2-.8-.7-.6-.9-1.6-.7-2.5h0ZM844.3,124.9c.2.5.9,1.1,1.6,1.2.7.2,1.3,0,2.1-.6.2-.1.3-.3.5-.7.2-.4.2-.5.2-1s0-.6-.2-1c-.2-.4-.3-.5-.7-.8-.2-.1-.6-.3-.8-.4-1.1-.4-2.5.2-3,1.3-.1.5,0,1.4,0,1.9h0ZM846.1,122.3c.5,0,1,0,1.1,0,.4.1.6.9.3,1.3,0,0-.2.2-.4.2h-.2c0,0,.2.3.2.3.1.1.3.4.4.6s.2.4.3.4c.1,0,0,.1-.2.1h-.3l-.4-.6c-.4-.7-.5-.8-1-.8h-.3v1.4h-.4v-3.1h.9ZM846.3,123.7c.5,0,.6,0,.8-.1.4-.3.1-.8-.4-.8-.2,0-.8,0-1,0v.9h.6Z"/>
        <path id="path3796" class="cls-9" d="M824.5,67.5h2.3v122.7h-2.3v-122.7Z"/>
        <path id="rect74" class="cls-9" d="M790.2,67.5h2.3v122.7h-2.3v-122.7Z"/>
        <g>
          <ellipse id="ellipse1464" class="cls-3" cx="772" cy="237.5" rx="23.6" ry="23.1"/>
          <ellipse id="ellipse1464-2" class="cls-3" cx="843.8" cy="237.5" rx="23.6" ry="23.1"/>
        </g>
        <g>
          <rect id="rect884" class="cls-11" x="776" y="52.9" width="63.9" height="14.7"/>
          <rect id="rect884-2" class="cls-11" x="782.7" y="1.4" width="50.3" height="51.5"/>
        </g>
        <path d="M884.1,198.3h0l-.7.3v-.4c0,0,.7-.4.7-.4h.4v3.7h-.5v-3.2Z"/>
        <g>
          <path class="cls-2" d="M881.6,272.2v-2.1h7.9c-.7-.5-1.2-1-1.7-1.4l-6.2-5v-2.6l7,6,9.5-6.4v2.5l-8.1,5.4,1.8,1.6h6.3v2.1h-16.5Z"/>
          <path class="cls-2" d="M898,255.5h-7l-9.5,5.2v-2.4l4.6-2.3c1.3-.7,2.3-1.1,3.4-1.6h0c-1.1-.5-2.2-1.1-3.4-1.7l-4.6-2.3v-2.4l9.4,5.5h7v2.2h0Z"/>
          <path class="cls-2" d="M890.6,242.3h1.6v6h-1.6v-6Z"/>
          <path class="cls-2" d="M889.9,229.9c5.4,0,8.4,2,8.4,5.5s-2.9,5.2-8.2,5.3c-5.3,0-8.3-2.3-8.3-5.5s3-5.3,8-5.3h0ZM890.2,238.5c4.1,0,6.5-1.3,6.5-3.2s-2.6-3.2-6.6-3.2-6.5,1-6.5,3.2,2.3,3.2,6.6,3.2Z"/>
          <path class="cls-2" d="M883.9,218.4v6.1l4.1.6c0-.4,0-.7,0-1.3,0-1.2.3-2.4.8-3.4.7-1.3,2.1-2.3,4.1-2.3,3.1,0,5.4,2.5,5.4,5.9s-.5,3.2-1,3.9l-1.6-.5c.4-.7.9-2,.9-3.4s-1.3-3.8-3.4-3.8-3.5,1.4-3.5,4.6,0,1.6.2,2.2l-7.6-1v-7.6h1.8Z"/>
          <path class="cls-2" d="M898,208.8h-4.3v7.4h-1.4l-10.2-7.1v-2.3h9.9v-2.2h1.7v2.2h4.3v2ZM892,208.8h-5.3c-.8,0-1.6,0-2.5,0h0c.9.6,1.6,1,2.3,1.4l5.4,3.9h0v-5.2h0Z"/>
        </g>
        <g>
          <rect id="rect118" class="cls-25" x="796.4" y="270.5" width="23.1" height="15.4"/>
          <rect id="rect122" x="797.9" y="272.1" width="19.8" height="12.3"/>
          <rect id="rect125" class="cls-25" x="789.4" y="270.5" width="6.9" height="15.4"/>
          <rect id="rect128" class="cls-25" x="819.4" y="270.5" width="6.9" height="15.4"/>
          <g class="cls-8">
            <path class="cls-2" d="M803.9,281.4v.2s0,0,0,.1c0,0,0,0,0,0h-4s0,0,0,0c0,0,0,0,0-.1s0,0,0-.2v-.2s0,0,0-.1c0,0,0,0,0,0h1.6v-5.6l-1.4.8c0,0-.1,0-.2,0s0,0,0,0c0,0,0,0,0-.1v-.4h0q0-.2,0-.2s0,0,0,0l1.7-1.1h.8s0,0,0,0,0,0,0,0v6.5h1.5s0,0,0,0c0,0,0,0,0,.1s0,.2,0,.2h0Z"/>
            <path class="cls-2" d="M810.1,278c0,.6,0,1.1-.1,1.6s-.2.9-.5,1.2-.5.6-.8.8c-.3.2-.8.3-1.3.3s-.8,0-1.2-.2-.6-.4-.8-.7-.3-.7-.4-1.2-.1-1-.1-1.6,0-1.1.1-1.6.2-.9.5-1.2.5-.6.8-.8.8-.3,1.2-.3.9,0,1.2.2c.3.2.6.4.8.7.2.3.3.7.4,1.2,0,.5.1,1,.1,1.6h0ZM809.1,278.1c0-.4,0-.7,0-1,0-.3,0-.6-.1-.8s-.1-.4-.2-.6-.2-.3-.3-.4-.2-.2-.4-.2-.3,0-.5,0-.6,0-.8.2-.3.4-.5.6c-.1.3-.2.6-.2.9s0,.8,0,1.1,0,1,0,1.4.1.7.3.9.3.4.5.5c.2,0,.4.2.7.2s.4,0,.6,0,.3-.2.4-.3.2-.3.3-.5c0-.2.1-.4.2-.6s0-.5,0-.7c0-.3,0-.5,0-.8h0Z"/>
            <path class="cls-2" d="M815.7,279.6c0,.3,0,.7-.2.9s-.3.5-.5.7-.5.3-.8.5-.7.1-1.1.1-.5,0-.7,0-.4,0-.6-.1-.3-.1-.4-.2c0,0-.2,0-.2-.1s0,0,0,0c0,0,0,0,0,0s0,0,0-.1v-.2c0-.1,0-.2,0-.3s0,0,.1,0,0,0,.2,0,.2.1.4.2.3.1.6.2c.2,0,.5,0,.7,0s.5,0,.7,0,.3-.1.5-.3c.1-.1.2-.2.3-.4,0-.1,0-.3,0-.5s0-.4-.1-.6-.2-.3-.4-.4c-.2-.1-.4-.2-.6-.3-.2,0-.5,0-.8,0h-.8s0,0,0,0c0,0,0,0,0-.1v-.4s0,0,0-.1,0,0,0,0,0,0,0,0h.7c.2,0,.5,0,.7,0s.4-.1.5-.3.2-.3.3-.5,0-.3,0-.6,0-.3,0-.5-.1-.2-.2-.4c0,0-.2-.2-.4-.2s-.3,0-.5,0-.4,0-.6,0c-.2,0-.3.1-.5.2-.1,0-.3.1-.3.2,0,0-.1,0-.2,0h0s0,0,0,0h0v-.5h0q0-.2,0-.2s0,0,0,0c0,0,0,0,.2-.1s.2-.1.4-.2.3-.1.6-.2.5,0,.7,0c.3,0,.7,0,.9.1s.5.2.7.4c.2.1.3.3.4.6s.1.5.1.8,0,.5,0,.7c0,.2-.1.4-.3.5s-.3.3-.4.4c-.2,0-.4.2-.6.2h0c.2,0,.5,0,.7.2s.4.2.6.4c.1.1.3.3.3.5,0,.3.1.5.1.8h.1Z"/>
          </g>
        </g>
      </g>
      <rect id="rect1675" class="cls-17" x="807.1" y="393" width="11.3" height="145.1"/>
      <rect id="rect829" class="cls-7" x="837.5" y="393" width="11.3" height="92.8"/>
      <circle id="path1085" class="cls-17" cx="812.9" cy="392.3" r="9.4"/>
      <circle id="circle1087" class="cls-16" cx="779.3" cy="392.3" r="9.4"/>
      <circle id="circle1089" class="cls-7" cx="843.2" cy="392.3" r="9.4"/>
      <rect id="rect1731" class="cls-16" x="774.3" y="395.9" width="11.3" height="450.4"/>
      <circle id="circle281-2" class="cls-16" cx="25.9" cy="840.5" r="11.6" transform="translate(-814.9 855.7) rotate(-89.3)"/>
      <circle id="circle281-3" class="cls-17" cx="25.9" cy="563.3" r="11.6" transform="translate(-537.7 582) rotate(-89.3)"/>
      <rect id="rect426" class="cls-17" x="20.2" y="526.7" width="797.5" height="11.3"/>
      <rect id="rect426-2" class="cls-17" x="20.2" y="526.7" width="11.3" height="36.6"/>
      <rect id="rect290" class="cls-7" x="93.6" y="474.5" width="11.3" height="186.6"/>
      <rect class="cls-7" x="20.2" y="649.7" width="84.8" height="11.4"/>
      <rect class="cls-7" x="20.2" y="622.7" width="11.4" height="38.4"/>
      <circle id="circle281-4" class="cls-7" cx="25.9" cy="624.5" r="11.6" transform="translate(-598.9 642.4) rotate(-89.3)"/>
      <rect id="rect838" class="cls-7" x="93.6" y="474.5" width="755.2" height="11.3"/>
      <rect id="rect1216" class="cls-16" x="26.1" y="834.9" width="758.5" height="11.3"/>
    </g>
  </g>
</svg>