<?xml version="1.0" encoding="UTF-8"?>
<svg xmlns="http://www.w3.org/2000/svg" version="1.1" viewBox="0 0 590.7 868.6">
  <defs>
    <style>
      .cls-1 {
        fill: #02814b;
      }

      .cls-2 {
        fill: #868c97;
      }

      .cls-3 {
        stroke: #fff;
      }

      .cls-3, .cls-4 {
        fill: none;
        stroke-miterlimit: 10;
      }

      .cls-5 {
        fill: #c2bfab;
      }

      .cls-6 {
        fill: #e8d28a;
      }

      .cls-7 {
        fill: #8dddde;
      }

      .cls-8 {
        fill: #cecece;
      }

      .cls-9 {
        fill: #c1c1c1;
      }

      .cls-10 {
        fill: #b9a68f;
      }

      .cls-11 {
        fill: #141316;
      }

      .cls-12 {
        fill: #e2eade;
      }

      .cls-13 {
        fill: #ccc;
      }

      .cls-14, .cls-15, .cls-16 {
        isolation: isolate;
      }

      .cls-17 {
        fill: #474544;
      }

      .cls-18 {
        fill: #ddd;
      }

      .cls-19 {
        fill: #fee86f;
      }

      .cls-20 {
        fill: #914f00;
      }

      .cls-21, .cls-16 {
        fill: #fff;
      }

      .cls-22 {
        fill: #000151;
      }

      .cls-23 {
        fill: #c29148;
      }

      .cls-24 {
        fill: #e30613;
      }

      .cls-25 {
        fill: #e0b45b;
      }

      .cls-26 {
        fill: #d4c547;
      }

      .cls-15 {
        fill: gray;
      }

      .cls-27 {
        fill: #00b589;
      }

      .cls-28 {
        fill: #fcfcfa;
      }

      .cls-29 {
        fill: #7f7f7f;
      }

      .cls-30 {
        fill: #525035;
      }

      .cls-31 {
        fill: #ffe17b;
      }

      .cls-32 {
        fill: #aba28e;
      }

      .cls-33 {
        fill: #1a1a1a;
      }

      .cls-4 {
        stroke: #95ac6e;
      }

      .cls-34 {
        fill: #36323e;
      }
    </style>
  </defs>
  <!-- Generator: Adobe Illustrator 28.7.0, SVG Export Plug-In . SVG Version: 1.2.0 Build 136)  -->
  <g>
    <g id="Layer_1">
      <g>
        <rect id="rect815" x="404.4" y="112.4" width="186.2" height="250.3"/>
        <g>
          <rect id="rect943" class="cls-13" x="461.3" y="172.1" width="28.9" height="28.9"/>
          <rect id="rect943-2" class="cls-13" x="504.7" y="172.1" width="28.9" height="28.9"/>
        </g>
        <g>
          <rect id="rect821" class="cls-21" x="451.5" y="323" width="96.9" height="33.4"/>
          <path id="rect825" class="cls-33" d="M457.9,325.1h19.4c3.4,0,6.2,2.7,6.2,6.2v17.1c0,3.4-2.7,6.2-6.2,6.2h-19.4c-3.4,0-6.2-2.7-6.2-6.2v-17.1c0-3.4,2.8-6.2,6.2-6.2Z"/>
          <path id="rect872" class="cls-33" d="M522.6,325.1h19.4c3.4,0,6.2,2.7,6.2,6.2v17.1c0,3.4-2.7,6.2-6.2,6.2h-19.4c-3.4,0-6.2-2.7-6.2-6.2v-17.1c0-3.4,2.8-6.2,6.2-6.2Z"/>
          <path id="rect874" class="cls-33" d="M489.4,325.1h21c3,0,5.4,2.4,5.4,5.4v18.6c0,3-2.4,5.4-5.4,5.4h-21c-3,0-5.4-2.4-5.4-5.4v-18.6c0-3,2.4-5.4,5.4-5.4Z"/>
          <g class="cls-14">
            <path class="cls-21" d="M446.9,343.4c0,.8,0,1.5-.4,2.1s-.7,1.1-1.2,1.6c-.5.4-1.1.8-1.8.9-.7.2-1.4.3-2.2.3s-1.1,0-1.6-.1-.9-.2-1.3-.3c-.4-.1-.7-.3-.9-.4s-.4-.3-.5-.4-.2-.2-.2-.4v-1.5s0-.1,0-.1h.2c0,0,.3,0,.5.2s.5.3.8.5.8.3,1.2.5,1,.2,1.7.2.9,0,1.3-.2.8-.3,1-.6.5-.5.7-.8.2-.8.2-1.2,0-.9-.3-1.2-.5-.6-.8-.9c-.3-.2-.8-.5-1.2-.7-.5-.2-.9-.4-1.4-.7s-.9-.5-1.4-.7c-.4-.3-.8-.6-1.2-.9s-.6-.8-.8-1.3-.3-1.1-.3-1.7,0-1.3.4-1.8c.2-.6.6-1,1-1.4.5-.4,1-.7,1.6-.8s1.3-.3,2-.3h1.1c.4,0,.7.1,1,.2s.6.2.9.4c.2.1.4.2.5.3s0,.1,0,.2v1.8c0,.1,0,0,0,0,0,0-.2,0-.4-.2-.2-.1-.5-.2-.8-.4-.3-.1-.7-.3-1-.4-.4-.1-.8-.2-1.3-.2s-.8,0-1.2.2c-.3.1-.6.3-.8.5s-.4.5-.5.8c0,.3-.2.6-.2.9,0,.5,0,.8.3,1.2s.5.6.8.9c.4.2.8.5,1.2.7s.9.4,1.4.7.9.5,1.4.7.8.6,1.2.9c.4.4.7.8.8,1.3s.2,1,.2,1.7h.2Z"/>
          </g>
          <g class="cls-14">
            <path class="cls-21" d="M571.7,339.7c0,.3,0,.6-.3.7-.2.1-.5.2-.9.2h-14.3c-.4,0-.7,0-.9-.2s-.3-.4-.3-.7,0-.6.3-.7c.2-.1.5-.2.9-.2h14.8c.2,0,.3,0,.4.1,0,0,.2.2.2.3v.4h0Z"/>
          </g>
        </g>
        <rect id="rect947" class="cls-15" x="466.8" y="338.5" width="3.5" height="61.1"/>
        <rect id="rect949" class="cls-15" x="499.3" y="338.5" width="3.5" height="61.1"/>
        <rect id="rect951" class="cls-15" x="531.5" y="338.5" width="3.5" height="61.1"/>
        <path id="path31-1" class="cls-21" d="M457.3,137.3c1.2,0,1.3,0,1.5-.2,0,0,.3-.2.4-.4,0-.2,0-.4,0-2.7v-2.5h4.9v3.1c0,3.4,0,3.8-.4,4.7-.5,1.2-1.2,1.7-2.6,2.1h-5.3v-4.1h1.4ZM480.7,144.3c21,0,26.2,0,25.3.1h0,0c0,.1,0,.1.2.1h.4-.4c-.2,0-.4,0-.3,0v.6q0,.6.2.6c.2,0,0,0,0,0h-49.9v-1.8h24.7l-.2.4ZM461.8,125.2h2.5v4h-5v-4h2.5ZM466.8,132.6c.2-1.1.5-2.2.9-3.1.2-.3.3-.6.3-.6,0,0,0-.2.3-.4.2-.4.8-1.1,1-1.2h0s.6-.7,1.1-1c.5-.4.9-.6,1.8-.9,1.1-.4,1.7-.5,3-.5s1.2,0,1.7.2c.4,0,.8.3,1,.3s.4,0,.4,0c0,0,.3,0,.6.3,1.2.7,2.8,2.5,3.4,3.9,1,2.2,1.1,4.3.4,6.3-.3.8-.5,1.3-.9,1.9-.4.7-.5.7-1.5,1.7-1.2,1.1-2,1.6-3.5,2.1-.8.2-2.3.3-3.1.1-1.1-.2-2.5-.8-3.4-1.4-.5-.3-1.1-.9-1.1-.9,0,0,0-.2-.3-.4-.9-.9-1.8-2.7-2.2-4.1,0-.7,0-2.1,0-2.5h0ZM471.5,134.7c.2.9.7,1.7,1.5,2.4s1.9,1,3,.7,2.3-1.6,2.6-3.1c.2-.8.2-2,0-2.8-.3-1.1-.9-2-1.7-2.6-.4-.3-.6-.3-.9-.4-.8-.1-1.7,0-2.3.2-.5.3-1.2,1-1.6,1.8-.5,1.1-.7,2.5-.4,3.7h-.2ZM485.5,125.2h4.9v2.2c0,2.1,0,2.3,0,2.6.3.9,1.5,1.5,2.5,1.1s.8-.5,1.1-.9l.2-.4v-4.6h5v2.6c0,2.4,0,2.6-.2,3.1-.3,1-.7,1.9-1.3,2.5,0,.2-.3.3-.3.4,0,0-.6.7-1.2,1.1-.5.3-1.1.7-1.5.8,0,0-.5.1-.8.2-.5.1-.7.2-1.8.2s-1.3,0-1.9-.2c-1-.3-1.3-.4-2-.8-.8-.5-1.4-1.1-1.9-1.9-.8-1.1-1-1.9-1.2-3.1v-4.8h.3ZM492.4,137.4h4v4.1h-8.1v-4.1h4.1ZM499.3,122v-.2c0-.2,0-.3.3-.3h30.2v1.8h-30.5v-1.2h0ZM506.2,132h5.2v4.1h-10.3v-4.1h5.2-.1ZM515.4,125.2h2.5v4h-5v-4h2.5ZM515.4,131.3h2.5v10.4h-5v-10.4h2.5ZM525.3,125.2h5.2v4h-10.4v-4h5.2ZM521,131.6h4.8v2.4c0,3.3,0,3.2,2.4,3.2h1.6v4.2h-.6c-.9.2-3.7.2-4.5,0-1.3-.2-2.2-.6-2.7-1.3-.6-.7-.9-1.5-1-2.6v-5.9h0ZM533.4,123.2c0-.4.4-.8.7-1.1,1.1-1,2.5-1.1,3.6-.3.5.4.7.5.9,1s.2.5.2,1.1,0,.8-.2,1.1c-.4.8-1.3,1.5-2.3,1.5s-1.6-.2-2.2-.8c-.7-.6-.9-1.6-.7-2.5h0ZM533.9,124.9c.2.5.9,1.1,1.6,1.2.7.2,1.3,0,2.1-.6.2,0,.3-.3.5-.7.2-.4.2-.5.2-1s0-.6-.2-1-.3-.5-.7-.8c-.2,0-.6-.3-.8-.4-1.1-.4-2.5.2-3,1.3,0,.5,0,1.4,0,1.9h.3ZM535.7,122.3h1.1c.4,0,.6.9.3,1.3,0,0-.2.2-.4.2h-.2l.2.3c0,0,.3.4.4.6s.2.4.3.4,0,0-.2,0h-.3l-.4-.6c-.4-.7-.5-.8-1-.8h-.3v1.4h-.4v-3.1h.9v.2ZM535.9,123.7c.5,0,.6,0,.8,0,.4-.3,0-.8-.4-.8h-1v.9h.6Z"/>
        <path id="path3796" class="cls-15" d="M514.1,67.5h2.3v122.7h-2.3v-122.7Z"/>
        <path id="rect74" class="cls-15" d="M479.8,67.5h2.3v122.7h-2.3v-122.7Z"/>
        <g>
          <ellipse id="ellipse1464" class="cls-16" cx="461.6" cy="237.5" rx="23.6" ry="23.1"/>
          <ellipse id="ellipse1464-2" class="cls-16" cx="533.4" cy="237.5" rx="23.6" ry="23.1"/>
        </g>
        <g>
          <rect id="rect884" class="cls-22" x="465.6" y="52.9" width="63.9" height="14.7"/>
          <rect id="rect884-2" class="cls-22" x="472.3" y="1.4" width="50.3" height="51.5"/>
        </g>
        <path d="M573.7,198.3h0l-.7.3v-.4l.7-.4h.4v3.7h-.5v-3.2h0Z"/>
        <g>
          <path class="cls-21" d="M571.2,272.2v-2.1h7.9c-.7-.5-1.2-1-1.7-1.4l-6.2-5v-2.6l7,6,9.5-6.4v2.5l-8.1,5.4,1.8,1.6h6.3v2.1h-16.5Z"/>
          <path class="cls-21" d="M587.6,255.5h-7l-9.5,5.2v-2.4l4.6-2.3c1.3-.7,2.3-1.1,3.4-1.6h0c-1.1-.5-2.2-1.1-3.4-1.7l-4.6-2.3v-2.4l9.4,5.5h7v2.2h0v-.2Z"/>
          <path class="cls-21" d="M580.2,242.3h1.6v6h-1.6v-6Z"/>
          <path class="cls-21" d="M579.5,229.9c5.4,0,8.4,2,8.4,5.5s-2.9,5.2-8.2,5.3c-5.3,0-8.3-2.3-8.3-5.5s3-5.3,8-5.3h0ZM579.8,238.5c4.1,0,6.5-1.3,6.5-3.2s-2.6-3.2-6.6-3.2-6.5,1-6.5,3.2,2.3,3.2,6.6,3.2Z"/>
          <path class="cls-21" d="M573.5,218.4v6.1l4.1.6v-1.3c0-1.2.3-2.4.8-3.4.7-1.3,2.1-2.3,4.1-2.3,3.1,0,5.4,2.5,5.4,5.9s-.5,3.2-1,3.9l-1.6-.5c.4-.7.9-2,.9-3.4s-1.3-3.8-3.4-3.8-3.5,1.4-3.5,4.6,0,1.6.2,2.2l-7.6-1v-7.6h1.8-.2Z"/>
          <path class="cls-21" d="M587.6,208.8h-4.3v7.4h-1.4l-10.2-7.1v-2.3h9.9v-2.2h1.7v2.2h4.3v2h0ZM581.6,208.8h-7.8c.9.6,1.6,1,2.3,1.4l5.4,3.9h0v-5.2h0Z"/>
        </g>
        <g>
          <rect id="rect118" class="cls-13" x="486" y="270.5" width="23.1" height="15.4"/>
          <rect id="rect122" x="487.5" y="272.1" width="19.8" height="12.3"/>
          <rect id="rect125" class="cls-13" x="479" y="270.5" width="6.9" height="15.4"/>
          <rect id="rect128" class="cls-13" x="509" y="270.5" width="6.9" height="15.4"/>
          <g class="cls-14">
            <path class="cls-21" d="M493.5,281.4v.2h0c0,.1-4,.1-4,.1h0v-.5h0c0-.1,1.6-.1,1.6-.1v-5.6l-1.4.8h-.2c-.1,0,0,0,0,0h0v-.5h0v-.2h0l1.7-1.1h.8v6.5h1.5v.3h0Z"/>
            <path class="cls-21" d="M499.7,278c0,.6,0,1.1,0,1.6s-.2.9-.5,1.2-.5.6-.8.8c-.3.2-.8.3-1.3.3s-.8,0-1.2-.2-.6-.4-.8-.7-.3-.7-.4-1.2,0-1,0-1.6,0-1.1,0-1.6.2-.9.5-1.2.5-.6.8-.8.8-.3,1.2-.3.9,0,1.2.2.6.4.8.7c.2.3.3.7.4,1.2,0,.5,0,1,0,1.6h0ZM498.7,278.1v-1c0-.3,0-.6,0-.8s0-.4-.2-.6-.2-.3-.3-.4-.2-.2-.4-.2h-.5c-.2,0-.6,0-.8.2s-.3.4-.5.6c0,.3-.2.6-.2.9v2.5c0,.4,0,.7.3.9s.3.4.5.5c.2,0,.4.2.7.2h.6c.2,0,.3-.2.4-.3s.2-.3.3-.5c0-.2,0-.4.2-.6s0-.5,0-.7v-.8h0Z"/>
            <path class="cls-21" d="M505.3,279.6c0,.3,0,.7-.2.9s-.3.5-.5.7-.5.3-.8.5-.7.1-1.1.1h-.7c-.2,0-.4,0-.6-.1s-.3-.1-.4-.2c0,0-.2,0-.2-.1s0,0,0,0h0v-.6c0,0,0,0,0,0h.2c.2,0,.2.1.4.2s.3.1.6.2h1.4c.2,0,.3-.1.5-.3,0-.1.2-.2.3-.4v-.5c0-.2,0-.4,0-.6s-.2-.3-.4-.4l-.6-.3h-1.6v-.5h0c0-.2,0-.1,0-.1h1.4c.2,0,.4-.1.5-.3s.2-.3.3-.5,0-.3,0-.6v-.5c0-.2,0-.2-.2-.4,0,0-.2-.2-.4-.2h-1.1c-.2,0-.3.1-.5.2,0,0-.3.1-.3.2h-.2v-.5h0v-.2h.2q.2-.2.4-.3c.2-.1.3-.1.6-.2s.5,0,.7,0c.3,0,.7,0,.9.1s.5.2.7.4c.2.1.3.3.4.6s0,.5,0,.8v.7c0,.2,0,.4-.3.5s-.3.3-.4.4c-.2,0-.4.2-.6.2h0c.2,0,.5,0,.7.2s.4.2.6.4c0,.1.3.3.3.5,0,.3,0,.5,0,.8h0l-.3-.8Z"/>
          </g>
        </g>
      </g>
      <rect id="rect1675" class="cls-24" x="496.7" y="393" width="11.3" height="145.1"/>
      <rect id="rect829" class="cls-20" x="527.1" y="393" width="11.3" height="92.8"/>
      <circle id="path1085" class="cls-24" cx="502.5" cy="392.3" r="9.4"/>
      <circle id="circle1087" class="cls-27" cx="468.9" cy="392.3" r="9.4"/>
      <circle id="circle1089" class="cls-20" cx="532.8" cy="392.3" r="9.4"/>
      <rect id="rect1731" class="cls-27" x="463.9" y="395.9" width="11.3" height="167.6"/>
      <rect id="rect426" class="cls-24" x="292.6" y="526.7" width="214.6" height="11.3"/>
      <rect id="rect426-2" class="cls-24" x="292.6" y="407.4" width="11.3" height="130.5"/>
      <rect id="rect290" class="cls-20" x="328" y="350.2" width="11.3" height="134.9"/>
      <rect id="rect838" class="cls-20" x="328" y="474.5" width="210.4" height="11.3"/>
      <g>
        <path class="cls-1" d="M243.1,286.8v-11.9H0v11.9c2.3.9,3.9,3.1,3.9,5.7s-1.6,4.8-3.9,5.7v18.1c2.3.9,3.9,3.1,3.9,5.7s-1.6,4.8-3.9,5.7v18.1c2.3.9,3.9,3.1,3.9,5.7s-1.6,4.8-3.9,5.7v18.1c2.3.9,3.9,3.1,3.9,5.7s-1.6,4.8-3.9,5.7v18.1c2.3.9,3.9,3.1,3.9,5.7s-1.6,4.8-3.9,5.7v18.1c2.3.9,3.9,3.1,3.9,5.7s-1.6,4.8-3.9,5.7v18.1c2.3.9,3.9,3.1,3.9,5.7s-1.6,4.8-3.9,5.7v18.1c2.3.9,3.9,3.1,3.9,5.7s-1.6,4.8-3.9,5.7v18.1c2.3.9,3.9,3.1,3.9,5.7s-1.6,4.8-3.9,5.7v18.1c2.3.9,3.9,3.1,3.9,5.7s-1.6,4.8-3.9,5.7v18.1c2.3.9,3.9,3.1,3.9,5.7s-1.6,4.8-3.9,5.7v18.1c2.3.9,3.9,3.1,3.9,5.7s-1.6,4.8-3.9,5.7v18.1c2.3.9,3.9,3.1,3.9,5.7s-1.6,4.8-3.9,5.7v18.1c2.3.9,3.9,3.1,3.9,5.7s-1.6,4.8-3.9,5.7v18.1c2.3.9,3.9,3.1,3.9,5.7s-1.6,4.8-3.9,5.7v18.1c2.3.9,3.9,3.1,3.9,5.7s-1.6,4.8-3.9,5.7v18.1c2.3.9,3.9,3.1,3.9,5.7s-1.6,4.8-3.9,5.7v18.1c2.3.9,3.9,3.1,3.9,5.7s-1.6,4.8-3.9,5.7v18c2.3.9,3.9,3.1,3.9,5.7s-1.6,4.8-3.9,5.7v18.1c2.3.9,3.9,3.1,3.9,5.7s-1.6,4.8-3.9,5.7v11.9h243.1v-11.9c-2.2-.9-3.8-3.1-3.8-5.7s1.6-4.8,3.8-5.7v-18.1c-2.2-.9-3.8-3.1-3.8-5.7s1.6-4.8,3.8-5.7v-18.1c-2.2-.9-3.8-3.1-3.8-5.7s1.6-4.8,3.8-5.7v-18.1c-2.2-.9-3.8-3.1-3.8-5.7s1.6-4.8,3.8-5.7v-18.1c-2.2-.9-3.8-3.1-3.8-5.7s1.6-4.8,3.8-5.7v-18.1c-2.2-.9-3.8-3.1-3.8-5.7s1.6-4.8,3.8-5.7v-18.1c-2.2-.9-3.8-3.1-3.8-5.7s1.6-4.8,3.8-5.7v-18.1c-2.2-.9-3.8-3.1-3.8-5.7s1.6-4.8,3.8-5.7v-18.1c-2.2-.9-3.8-3.1-3.8-5.7s1.6-4.8,3.8-5.7v-18.1c-2.2-.9-3.8-3.1-3.8-5.7s1.6-4.8,3.8-5.7v-18.1c-2.2-.9-3.8-3.1-3.8-5.7s1.6-4.8,3.8-5.7v-18.1c-2.2-.9-3.8-3.1-3.8-5.7s1.6-4.8,3.8-5.7v-18.1c-2.2-.9-3.8-3.1-3.8-5.7s1.6-4.8,3.8-5.7v-18.1c-2.2-.9-3.8-3.1-3.8-5.7s1.6-4.8,3.8-5.7v-18.1c-2.2-.9-3.8-3.1-3.8-5.7s1.6-4.8,3.8-5.7v-18.1c-2.2-.9-3.8-3.1-3.8-5.7s1.6-4.8,3.8-5.7v-18.1c-2.2-.9-3.8-3.1-3.8-5.7s1.6-4.8,3.8-5.7v-18.1c-2.2-.9-3.8-3.1-3.8-5.7s1.6-4.8,3.8-5.7v-18.1c-2.2-.9-3.8-3.1-3.8-5.7s1.6-4.8,3.8-5.7v-18.1c-2.2-.9-3.8-3.1-3.8-5.7s1.6-4.8,3.8-5.7ZM15.6,857.1c-3.4,0-6.1-2.7-6.1-6.1s2.7-6.1,6.1-6.1,6.1,2.7,6.1,6.1-2.7,6.1-6.1,6.1ZM15.6,827.7c-3.4,0-6.1-2.7-6.1-6.1s2.7-6.1,6.1-6.1,6.1,2.7,6.1,6.1-2.7,6.1-6.1,6.1ZM15.6,798.3c-3.4,0-6.1-2.7-6.1-6.1s2.7-6.1,6.1-6.1,6.1,2.7,6.1,6.1-2.7,6.1-6.1,6.1ZM15.6,768.9c-3.4,0-6.1-2.7-6.1-6.1s2.7-6.1,6.1-6.1,6.1,2.7,6.1,6.1-2.7,6.1-6.1,6.1ZM15.6,739.5c-3.4,0-6.1-2.7-6.1-6.1s2.7-6.1,6.1-6.1,6.1,2.7,6.1,6.1-2.7,6.1-6.1,6.1ZM15.6,710.1c-3.4,0-6.1-2.7-6.1-6.1s2.7-6.1,6.1-6.1,6.1,2.7,6.1,6.1-2.7,6.1-6.1,6.1ZM15.6,680.7c-3.4,0-6.1-2.7-6.1-6.1s2.7-6.1,6.1-6.1,6.1,2.7,6.1,6.1-2.7,6.1-6.1,6.1ZM15.6,651.3c-3.4,0-6.1-2.7-6.1-6.1s2.7-6.1,6.1-6.1,6.1,2.7,6.1,6.1-2.7,6.1-6.1,6.1ZM15.6,621.9c-3.4,0-6.1-2.7-6.1-6.1s2.7-6.1,6.1-6.1,6.1,2.7,6.1,6.1-2.7,6.1-6.1,6.1ZM15.6,592.5c-3.4,0-6.1-2.7-6.1-6.1s2.7-6.1,6.1-6.1,6.1,2.7,6.1,6.1-2.7,6.1-6.1,6.1ZM15.6,563.1c-3.4,0-6.1-2.7-6.1-6.1s2.7-6.1,6.1-6.1,6.1,2.7,6.1,6.1-2.7,6.1-6.1,6.1ZM15.6,533.7c-3.4,0-6.1-2.7-6.1-6.1s2.7-6.1,6.1-6.1,6.1,2.7,6.1,6.1-2.7,6.1-6.1,6.1ZM15.6,504.3c-3.4,0-6.1-2.7-6.1-6.1s2.7-6.1,6.1-6.1,6.1,2.7,6.1,6.1-2.7,6.1-6.1,6.1ZM15.6,474.9c-3.4,0-6.1-2.7-6.1-6.1s2.7-6.1,6.1-6.1,6.1,2.7,6.1,6.1-2.7,6.1-6.1,6.1ZM15.6,445.5c-3.4,0-6.1-2.7-6.1-6.1s2.7-6.1,6.1-6.1,6.1,2.7,6.1,6.1-2.7,6.1-6.1,6.1ZM15.6,416.1c-3.4,0-6.1-2.7-6.1-6.1s2.7-6.1,6.1-6.1,6.1,2.7,6.1,6.1-2.7,6.1-6.1,6.1ZM15.6,386.7c-3.4,0-6.1-2.7-6.1-6.1s2.7-6.1,6.1-6.1,6.1,2.7,6.1,6.1-2.7,6.1-6.1,6.1ZM15.6,357.4c-3.4,0-6.1-2.7-6.1-6.1s2.7-6.1,6.1-6.1,6.1,2.7,6.1,6.1-2.7,6.1-6.1,6.1ZM15.6,328c-3.4,0-6.1-2.7-6.1-6.1s2.7-6.1,6.1-6.1,6.1,2.7,6.1,6.1-2.7,6.1-6.1,6.1ZM15.6,298.6c-3.4,0-6.1-2.7-6.1-6.1s2.7-6.1,6.1-6.1,6.1,2.7,6.1,6.1-2.7,6.1-6.1,6.1ZM53.4,857c-6.7,0-12.1-5.4-12.1-12.1s5.4-12.1,12.1-12.1,12.1,5.4,12.1,12.1-5.4,12.1-12.1,12.1ZM53.4,309.9c-6.7,0-12.1-5.4-12.1-12.1s5.4-12.1,12.1-12.1,12.1,5.4,12.1,12.1-5.4,12.1-12.1,12.1ZM127.3,643.1c-3.1,0-5.7-2.6-5.7-5.7s2.6-5.7,5.7-5.7,5.7,2.6,5.7,5.7-2.6,5.7-5.7,5.7ZM156.8,643.1c-3.1,0-5.7-2.6-5.7-5.7s2.6-5.7,5.7-5.7,5.7,2.6,5.7,5.7-2.6,5.7-5.7,5.7ZM186,285.6c6.7,0,12.1,5.4,12.1,12.1s-5.4,12.1-12.1,12.1-12.1-5.4-12.1-12.1,5.4-12.1,12.1-12.1ZM192.3,637.4c0,3.1-2.6,5.7-5.7,5.7s-5.7-2.6-5.7-5.7,2.6-5.7,5.7-5.7,5.7,2.6,5.7,5.7ZM188,857c-6.7,0-12.1-5.4-12.1-12.1s5.4-12.1,12.1-12.1,12.1,5.4,12.1,12.1-5.4,12.1-12.1,12.1ZM227.5,857.1c-3.4,0-6.1-2.7-6.1-6.1s2.7-6.1,6.1-6.1,6.1,2.7,6.1,6.1-2.7,6.1-6.1,6.1ZM227.5,827.7c-3.4,0-6.1-2.7-6.1-6.1s2.7-6.1,6.1-6.1,6.1,2.7,6.1,6.1-2.7,6.1-6.1,6.1ZM227.5,798.3c-3.4,0-6.1-2.7-6.1-6.1s2.7-6.1,6.1-6.1,6.1,2.7,6.1,6.1-2.7,6.1-6.1,6.1ZM227.5,768.9c-3.4,0-6.1-2.7-6.1-6.1s2.7-6.1,6.1-6.1,6.1,2.7,6.1,6.1-2.7,6.1-6.1,6.1ZM227.5,739.5c-3.4,0-6.1-2.7-6.1-6.1s2.7-6.1,6.1-6.1,6.1,2.7,6.1,6.1-2.7,6.1-6.1,6.1ZM227.5,710.1c-3.4,0-6.1-2.7-6.1-6.1s2.7-6.1,6.1-6.1,6.1,2.7,6.1,6.1-2.7,6.1-6.1,6.1ZM227.5,680.7c-3.4,0-6.1-2.7-6.1-6.1s2.7-6.1,6.1-6.1,6.1,2.7,6.1,6.1-2.7,6.1-6.1,6.1ZM227.5,651.3c-3.4,0-6.1-2.7-6.1-6.1s2.7-6.1,6.1-6.1,6.1,2.7,6.1,6.1-2.7,6.1-6.1,6.1ZM227.5,621.9c-3.4,0-6.1-2.7-6.1-6.1s2.7-6.1,6.1-6.1,6.1,2.7,6.1,6.1-2.7,6.1-6.1,6.1ZM227.5,592.5c-3.4,0-6.1-2.7-6.1-6.1s2.7-6.1,6.1-6.1,6.1,2.7,6.1,6.1-2.7,6.1-6.1,6.1ZM227.5,563.1c-3.4,0-6.1-2.7-6.1-6.1s2.7-6.1,6.1-6.1,6.1,2.7,6.1,6.1-2.7,6.1-6.1,6.1ZM227.5,533.7c-3.4,0-6.1-2.7-6.1-6.1s2.7-6.1,6.1-6.1,6.1,2.7,6.1,6.1-2.7,6.1-6.1,6.1ZM227.5,504.3c-3.4,0-6.1-2.7-6.1-6.1s2.7-6.1,6.1-6.1,6.1,2.7,6.1,6.1-2.7,6.1-6.1,6.1ZM227.5,474.9c-3.4,0-6.1-2.7-6.1-6.1s2.7-6.1,6.1-6.1,6.1,2.7,6.1,6.1-2.7,6.1-6.1,6.1ZM227.5,445.5c-3.4,0-6.1-2.7-6.1-6.1s2.7-6.1,6.1-6.1,6.1,2.7,6.1,6.1-2.7,6.1-6.1,6.1ZM227.5,416.1c-3.4,0-6.1-2.7-6.1-6.1s2.7-6.1,6.1-6.1,6.1,2.7,6.1,6.1-2.7,6.1-6.1,6.1ZM227.5,386.7c-3.4,0-6.1-2.7-6.1-6.1s2.7-6.1,6.1-6.1,6.1,2.7,6.1,6.1-2.7,6.1-6.1,6.1ZM227.5,357.4c-3.4,0-6.1-2.7-6.1-6.1s2.7-6.1,6.1-6.1,6.1,2.7,6.1,6.1-2.7,6.1-6.1,6.1ZM227.5,328c-3.4,0-6.1-2.7-6.1-6.1s2.7-6.1,6.1-6.1,6.1,2.7,6.1,6.1-2.7,6.1-6.1,6.1ZM227.5,298.6c-3.4,0-6.1-2.7-6.1-6.1s2.7-6.1,6.1-6.1,6.1,2.7,6.1,6.1-2.7,6.1-6.1,6.1Z"/>
        <path class="cls-26" d="M53.4,277.2c-11.3,0-20.5,9.2-20.5,20.5s9.2,20.5,20.5,20.5,20.5-9.2,20.5-20.5-9.2-20.5-20.5-20.5ZM53.4,309.9c-6.7,0-12.1-5.4-12.1-12.1s5.4-12.1,12.1-12.1,12.1,5.4,12.1,12.1-5.4,12.1-12.1,12.1Z"/>
        <path class="cls-26" d="M186,277.2c-11.3,0-20.5,9.2-20.5,20.5s9.2,20.5,20.5,20.5,20.5-9.2,20.5-20.5-9.2-20.5-20.5-20.5ZM186,309.9c-6.7,0-12.1-5.4-12.1-12.1s5.4-12.1,12.1-12.1,12.1,5.4,12.1,12.1-5.4,12.1-12.1,12.1Z"/>
        <path class="cls-26" d="M53.4,824.4c-11.3,0-20.5,9.2-20.5,20.5s9.2,20.5,20.5,20.5,20.5-9.2,20.5-20.5-9.2-20.5-20.5-20.5ZM53.4,857.1c-6.7,0-12.1-5.4-12.1-12.1s5.4-12.1,12.1-12.1,12.1,5.4,12.1,12.1-5.4,12.1-12.1,12.1Z"/>
        <path class="cls-26" d="M188,824.4c-11.3,0-20.5,9.2-20.5,20.5s9.2,20.5,20.5,20.5,20.5-9.2,20.5-20.5-9.2-20.5-20.5-20.5ZM188,857.1c-6.7,0-12.1-5.4-12.1-12.1s5.4-12.1,12.1-12.1,12.1,5.4,12.1,12.1-5.4,12.1-12.1,12.1Z"/>
        <circle class="cls-30" cx="54.8" cy="362.5" r="10.6"/>
        <circle class="cls-19" cx="54.8" cy="362.5" r="5.5"/>
        <path class="cls-31" d="M17.2,342.3H0v3.4c2.3.9,3.9,3.1,3.9,5.7s-1.6,4.8-3.9,5.7v3.4h17.2c5,0,9-4,9-9h0c0-5-4-9-9-9ZM15.6,357.4c-3.4,0-6.1-2.7-6.1-6.1s2.7-6.1,6.1-6.1,6.1,2.7,6.1,6.1-2.7,6.1-6.1,6.1Z"/>
        <path class="cls-31" d="M17.2,489.2H0v3.4c2.3.9,3.9,3.1,3.9,5.7s-1.6,4.8-3.9,5.7v3.4h17.2c5,0,9-4,9-9s-4-9-9-9ZM15.6,504.4c-3.4,0-6.1-2.7-6.1-6.1s2.7-6.1,6.1-6.1,6.1,2.7,6.1,6.1-2.7,6.1-6.1,6.1Z"/>
        <path class="cls-31" d="M17.2,636.2H0v3.4c2.3.9,3.9,3.1,3.9,5.7s-1.6,4.8-3.9,5.7v3.4h17.2c5,0,9-4,9-9s-4-9-9-9ZM15.6,651.3c-3.4,0-6.1-2.7-6.1-6.1s2.7-6.1,6.1-6.1,6.1,2.7,6.1,6.1-2.7,6.1-6.1,6.1Z"/>
        <path class="cls-31" d="M17.2,665.6H0v3.4c2.3.9,3.9,3.1,3.9,5.7s-1.6,4.8-3.9,5.7v3.4h17.2c5,0,9-4,9-9s-4-9-9-9ZM15.6,680.7c-3.4,0-6.1-2.7-6.1-6.1s2.7-6.1,6.1-6.1,6.1,2.7,6.1,6.1-2.7,6.1-6.1,6.1Z"/>
        <path class="cls-31" d="M17.2,695H0v3.4c2.3.9,3.9,3.1,3.9,5.7s-1.6,4.8-3.9,5.7v3.4h17.2c5,0,9-4,9-9s-4-9-9-9ZM15.6,710.1c-3.4,0-6.1-2.7-6.1-6.1s2.7-6.1,6.1-6.1,6.1,2.7,6.1,6.1-2.7,6.1-6.1,6.1Z"/>
        <path class="cls-31" d="M17.2,724.4H0v3.4c2.3.9,3.9,3.1,3.9,5.7s-1.6,4.8-3.9,5.7v3.4h17.2c5,0,9-4,9-9s-4-9-9-9ZM15.6,739.5c-3.4,0-6.1-2.7-6.1-6.1s2.7-6.1,6.1-6.1,6.1,2.7,6.1,6.1-2.7,6.1-6.1,6.1Z"/>
        <path class="cls-31" d="M17.2,783.2H0v3.4c2.3.9,3.9,3.1,3.9,5.7s-1.6,4.8-3.9,5.7v3.4h17.2c5,0,9-4,9-9h0c0-5-4-9-9-9ZM15.6,798.3c-3.4,0-6.1-2.7-6.1-6.1s2.7-6.1,6.1-6.1,6.1,2.7,6.1,6.1-2.7,6.1-6.1,6.1Z"/>
        <path class="cls-31" d="M17.2,812.6H0v3.4c2.3.9,3.9,3.1,3.9,5.7s-1.6,4.8-3.9,5.7v3.4h17.2c5,0,9-4,9-9h0c0-5-4-9-9-9ZM15.6,827.7c-3.4,0-6.1-2.7-6.1-6.1s2.7-6.1,6.1-6.1,6.1,2.7,6.1,6.1-2.7,6.1-6.1,6.1Z"/>
        <path class="cls-31" d="M17.2,842H0v3.4c2.3.9,3.9,3.1,3.9,5.7s-1.6,4.8-3.9,5.7v3.4h17.2c5,0,9-4,9-9s-4-9-9-9ZM15.6,857.1c-3.4,0-6.1-2.7-6.1-6.1s2.7-6.1,6.1-6.1,6.1,2.7,6.1,6.1-2.7,6.1-6.1,6.1Z"/>
        <path class="cls-31" d="M239.3,292.5c0-2.6,1.6-4.8,3.9-5.7v-3.4h-17.2c-5,0-9,4-9,9s4,9,9,9h17.2v-3.4c-2.3-.9-3.9-3.1-3.9-5.7ZM227.6,298.6c-3.4,0-6.1-2.7-6.1-6.1s2.7-6.1,6.1-6.1,6.1,2.7,6.1,6.1-2.7,6.1-6.1,6.1Z"/>
        <path class="cls-31" d="M239.3,321.9c0-2.6,1.6-4.8,3.9-5.7v-3.4h-17.2c-5,0-9,4-9,9h0c0,5,4,9,9,9h17.2v-3.4c-2.3-.9-3.9-3.1-3.9-5.7ZM227.6,328c-3.4,0-6.1-2.7-6.1-6.1s2.7-6.1,6.1-6.1,6.1,2.7,6.1,6.1-2.7,6.1-6.1,6.1Z"/>
        <path class="cls-31" d="M239.3,351.3c0-2.6,1.6-4.8,3.9-5.7v-3.4h-17.2c-5,0-9,4-9,9h0c0,5,4,9,9,9h17.2v-3.4c-2.3-.9-3.9-3.1-3.9-5.7ZM227.6,357.4c-3.4,0-6.1-2.7-6.1-6.1s2.7-6.1,6.1-6.1,6.1,2.7,6.1,6.1-2.7,6.1-6.1,6.1Z"/>
        <path class="cls-31" d="M239.3,380.7c0-2.6,1.6-4.8,3.9-5.7v-3.4h-17.2c-5,0-9,4-9,9s4,9,9,9h17.2v-3.4c-2.3-.9-3.9-3.1-3.9-5.7ZM227.6,386.8c-3.4,0-6.1-2.7-6.1-6.1s2.7-6.1,6.1-6.1,6.1,2.7,6.1,6.1-2.7,6.1-6.1,6.1Z"/>
        <path class="cls-31" d="M239.3,410.1c0-2.6,1.6-4.8,3.9-5.7v-3.4h-17.2c-5,0-9,4-9,9s4,9,9,9h17.2v-3.4c-2.3-.9-3.9-3.1-3.9-5.7ZM227.6,416.2c-3.4,0-6.1-2.7-6.1-6.1s2.7-6.1,6.1-6.1,6.1,2.7,6.1,6.1-2.7,6.1-6.1,6.1Z"/>
        <path class="cls-31" d="M239.3,439.5c0-2.6,1.6-4.8,3.9-5.7v-3.4h-17.2c-5,0-9,4-9,9s4,9,9,9h17.2v-3.4c-2.3-.9-3.9-3.1-3.9-5.7ZM227.6,445.6c-3.4,0-6.1-2.7-6.1-6.1s2.7-6.1,6.1-6.1,6.1,2.7,6.1,6.1-2.7,6.1-6.1,6.1Z"/>
        <path class="cls-31" d="M239.3,498.3c0-2.6,1.6-4.8,3.9-5.7v-3.4h-17.2c-5,0-9,4-9,9s4,9,9,9h17.2v-3.4c-2.3-.9-3.9-3.1-3.9-5.7ZM227.6,504.4c-3.4,0-6.1-2.7-6.1-6.1s2.7-6.1,6.1-6.1,6.1,2.7,6.1,6.1-2.7,6.1-6.1,6.1Z"/>
        <path class="cls-31" d="M239.3,557.1c0-2.6,1.6-4.8,3.9-5.7v-3.4h-17.2c-5,0-9,4-9,9h0c0,5,4,9,9,9h17.2v-3.4c-2.3-.9-3.9-3.1-3.9-5.7ZM227.6,563.1c-3.4,0-6.1-2.7-6.1-6.1s2.7-6.1,6.1-6.1,6.1,2.7,6.1,6.1-2.7,6.1-6.1,6.1Z"/>
        <path class="cls-31" d="M239.3,586.5c0-2.6,1.6-4.8,3.9-5.7v-3.4h-17.2c-5,0-9,4-9,9h0c0,5,4,9,9,9h17.2v-3.4c-2.3-.9-3.9-3.1-3.9-5.7ZM227.6,592.5c-3.4,0-6.1-2.7-6.1-6.1s2.7-6.1,6.1-6.1,6.1,2.7,6.1,6.1-2.7,6.1-6.1,6.1Z"/>
        <path class="cls-31" d="M239.3,615.9c0-2.6,1.6-4.8,3.9-5.7v-3.4h-17.2c-5,0-9,4-9,9s4,9,9,9h17.2v-3.4c-2.3-.9-3.9-3.1-3.9-5.7ZM227.6,621.9c-3.4,0-6.1-2.7-6.1-6.1s2.7-6.1,6.1-6.1,6.1,2.7,6.1,6.1-2.7,6.1-6.1,6.1Z"/>
        <path class="cls-31" d="M239.3,645.2c0-2.6,1.6-4.8,3.9-5.7v-3.4h-17.2c-5,0-9,4-9,9s4,9,9,9h17.2v-3.4c-2.3-.9-3.9-3.1-3.9-5.7ZM227.6,651.3c-3.4,0-6.1-2.7-6.1-6.1s2.7-6.1,6.1-6.1,6.1,2.7,6.1,6.1-2.7,6.1-6.1,6.1Z"/>
        <path class="cls-31" d="M239.3,674.6c0-2.6,1.6-4.8,3.9-5.7v-3.4h-17.2c-5,0-9,4-9,9s4,9,9,9h17.2v-3.4c-2.3-.9-3.9-3.1-3.9-5.7ZM227.6,680.7c-3.4,0-6.1-2.7-6.1-6.1s2.7-6.1,6.1-6.1,6.1,2.7,6.1,6.1-2.7,6.1-6.1,6.1Z"/>
        <path class="cls-31" d="M239.3,704c0-2.6,1.6-4.8,3.9-5.7v-3.4h-17.2c-5,0-9,4-9,9s4,9,9,9h17.2v-3.4c-2.3-.9-3.9-3.1-3.9-5.7ZM227.6,710.1c-3.4,0-6.1-2.7-6.1-6.1s2.7-6.1,6.1-6.1,6.1,2.7,6.1,6.1-2.7,6.1-6.1,6.1Z"/>
        <path class="cls-31" d="M239.3,733.4c0-2.6,1.6-4.8,3.9-5.7v-3.4h-17.2c-5,0-9,4-9,9s4,9,9,9h17.2v-3.4c-2.3-.9-3.9-3.1-3.9-5.7ZM227.6,739.5c-3.4,0-6.1-2.7-6.1-6.1s2.7-6.1,6.1-6.1,6.1,2.7,6.1,6.1-2.7,6.1-6.1,6.1Z"/>
        <path class="cls-31" d="M239.3,792.2c0-2.6,1.6-4.8,3.9-5.7v-3.4h-17.2c-5,0-9,4-9,9h0c0,5,4,9,9,9h17.2v-3.4c-2.3-.9-3.9-3.1-3.9-5.7ZM227.6,798.3c-3.4,0-6.1-2.7-6.1-6.1s2.7-6.1,6.1-6.1,6.1,2.7,6.1,6.1-2.7,6.1-6.1,6.1Z"/>
        <path class="cls-31" d="M239.3,821.6c0-2.6,1.6-4.8,3.9-5.7v-3.4h-17.2c-5,0-9,4-9,9h0c0,5,4,9,9,9h17.2v-3.4c-2.3-.9-3.9-3.1-3.9-5.7ZM227.6,827.7c-3.4,0-6.1-2.7-6.1-6.1s2.7-6.1,6.1-6.1,6.1,2.7,6.1,6.1-2.7,6.1-6.1,6.1Z"/>
        <path class="cls-18" d="M162.8,264.4l4.4-4.4-2.3-2.3-6.6,6.6h-1.5v-4.7c0-1.2-1-2.2-2.2-2.2h-69.5c-1.2,0-2.2,1-2.2,2.2v4.7h-1.5l-6.6-6.6-2.3,2.3,4.4,4.4c-.6.2-1,.8-1,1.4v56.3c0,.9.7,1.6,1.6,1.6h84.6c.9,0,1.6-.7,1.6-1.6v-56.3c0-.7-.4-1.2-1-1.4Z"/>
        <g>
          <path class="cls-29" d="M100,286.7c0-3.2-2.6-5.8-5.8-5.8s-5.8,2.6-5.8,5.8.5,2.7,1.3,3.7h-.2v7.7c0,1.2,1,2.1,2.1,2.1h5.1c1.2,0,2.1-1,2.1-2.1v-7.7h-.2c.8-1,1.3-2.3,1.3-3.7Z"/>
          <path class="cls-29" d="M155.3,286.7c0-3.2-2.6-5.8-5.8-5.8s-5.8,2.6-5.8,5.8.5,2.7,1.3,3.7h-.2v7.7c0,1.2,1,2.1,2.1,2.1h5.1c1.2,0,2.1-1,2.1-2.1v-7.7h-.2c.8-1,1.3-2.3,1.3-3.7Z"/>
        </g>
        <rect class="cls-17" x="177.4" y="385.8" width="25.3" height="31" rx="2.2" ry="2.2"/>
        <g>
          <rect class="cls-12" x="131.7" y="353" width="21.7" height="14.4"/>
          <path class="cls-23" d="M149,367.4c-2-1.8-3.2-4.4-3.2-7.2s1.2-5.4,3.2-7.2h-12.8c2,1.8,3.2,4.4,3.2,7.2s-1.2,5.4-3.2,7.2h12.8Z"/>
        </g>
        <g>
          <rect class="cls-12" x="132.1" y="438.3" width="21.7" height="14.4"/>
          <path class="cls-23" d="M149.3,452.8c-2-1.8-3.2-4.4-3.2-7.2s1.2-5.4,3.2-7.2h-12.8c2,1.8,3.2,4.4,3.2,7.2s-1.2,5.4-3.2,7.2h12.8Z"/>
        </g>
        <g>
          <rect class="cls-12" x="132.1" y="457.5" width="21.7" height="14.4"/>
          <path class="cls-23" d="M149.3,472c-2-1.8-3.2-4.4-3.2-7.2s1.2-5.4,3.2-7.2h-12.8c2,1.8,3.2,4.4,3.2,7.2s-1.2,5.4-3.2,7.2h12.8Z"/>
        </g>
        <g>
          <rect class="cls-12" x="63.5" y="505.9" width="5.4" height="10.6" transform="translate(-444.9 577.4) rotate(-90)"/>
          <rect class="cls-23" x="63.5" y="508.2" width="5.4" height="6" transform="translate(-444.9 577.4) rotate(-90)"/>
        </g>
        <g>
          <rect class="cls-12" x="176.8" y="488.5" width="5.4" height="10.6"/>
          <rect class="cls-23" x="176.8" y="490.8" width="5.4" height="6"/>
        </g>
        <rect class="cls-17" x="179.3" y="338.4" width="18.9" height="29.3"/>
        <g>
          <rect class="cls-12" x="171.4" y="439.7" width="20.6" height="9.6"/>
          <rect class="cls-7" x="175.9" y="439.7" width="11.5" height="9.6"/>
        </g>
        <rect class="cls-23" x="119.9" y="607.8" width="4.2" height="6.9"/>
        <rect class="cls-23" x="126.7" y="607.8" width="4.2" height="6.9"/>
        <rect class="cls-23" x="66.4" y="517.8" width="4.2" height="6.9" transform="translate(-452.7 589.7) rotate(-90)"/>
        <rect class="cls-23" x="89.3" y="450.6" width="4.2" height="6.9" transform="translate(-362.7 545.4) rotate(-90)"/>
        <rect class="cls-23" x="66" y="561.4" width="4.2" height="6.9" transform="translate(-496.7 632.9) rotate(-90)"/>
        <rect class="cls-17" x="194.7" y="566.6" width="4.2" height="6.9"/>
        <rect class="cls-17" x="188.9" y="505.3" width="4.2" height="6.9" transform="translate(-317.7 699.8) rotate(-90)"/>
        <rect class="cls-17" x="86.9" y="349.7" width="4.2" height="6.9" transform="translate(-264 442.2) rotate(-90)"/>
        <rect class="cls-17" x="82.1" y="361.9" width="4.2" height="6.9" transform="translate(-281.1 449.5) rotate(-90)"/>
        <rect class="cls-17" x="192.6" y="454.4" width="4.2" height="6.9" transform="translate(-263.1 652.5) rotate(-90)"/>
        <rect class="cls-9" x="53.4" y="655.6" width="136.6" height="115.9" rx="3.9" ry="3.9"/>
        <rect class="cls-5" x="101.2" y="817.7" width="10.5" height="5.9"/>
        <rect class="cls-5" x="130" y="817.9" width="10.5" height="5.9"/>
        <rect class="cls-5" x="101.2" y="855.5" width="10.5" height="5.9"/>
        <rect class="cls-5" x="130" y="855.7" width="10.5" height="5.9"/>
        <polyline class="cls-4" points="17.2 300.2 17.2 304.7 35.1 322.6 35.1 371.2 50.7 386.8 50.7 521.6 55.7 526.5 91 526.5"/>
        <polyline class="cls-4" points="22.6 327.1 30.7 335.2 30.7 373.1 46.4 388.8 46.4 524 52.4 530 90.7 530"/>
        <polyline class="cls-4" points="23 385.6 42.7 405.3 42.7 526.5 53.2 536.9 94.7 536.9"/>
        <polyline class="cls-4" points="23 415 39.5 431.5 39.5 528.4 51.6 540.6 94.8 540.6"/>
        <polyline class="cls-4" points="23 445.1 35.3 457.5 35.3 533.5 49.2 547.4 93.1 547.4"/>
        <polyline class="cls-4" points="22.6 473.3 31.4 482 31.4 536.1 46.1 550.9 95.9 550.9"/>
        <polyline class="cls-4" points="22.6 531.9 45.1 554.4 102.4 554.4"/>
        <line class="cls-4" x1="23.4" y1="557.9" x2="98.5" y2="557.9"/>
        <path class="cls-4" d="M23,584.2c0-.6,17.3-17.3,17.3-17.3h12.5l4.9,4.9h45.7"/>
        <polyline class="cls-4" points="20.1 610.1 25.5 604.8 25.5 597 30.6 591.8 30.6 583.4 43.7 570.4 52.3 570.4 57 575 95 575"/>
        <path class="cls-4" d="M30.4,600.3l3.4-3.4s-.7-8.9,0-9.6,6-6,6-6l6.3-6.3h6.1l3.7,3.7h35.1"/>
        <polyline class="cls-4" points="28.8 656.2 28.8 608.6 38.4 599 93.1 599 94.7 597.4 94.7 587.7"/>
        <polyline class="cls-4" points="17.2 754.5 17.2 750.8 32.6 735.4 32.6 655.1 35.4 652.4 35.4 610.5 41.7 604.2 93.9 604.2 98.1 600 98.1 592.7"/>
        <path class="cls-4" d="M35.4,638"/>
        <path class="cls-4" d="M35.4,653.3"/>
        <polyline class="cls-4" points="23.4 815 30.1 808.3 30.1 743.7 37.2 737.8"/>
        <polyline class="cls-4" points="35.3 748.1 42.4 741 42.4 651.3 39.7 648.6 39.7 611.8 44.3 607.1 94.7 607.1 101.7 600.1 101.7 583.5"/>
        <polyline class="cls-4" points="108.7 590.3 108.7 599 95.6 612.1 91.2 612.1"/>
        <polyline class="cls-4" points="93.6 620.6 112.1 602.1 112.1 586.7"/>
        <polyline class="cls-4" points="115.6 592.1 115.6 603.8 101.9 617.5 101.9 637.5 95.7 643.8 64.7 643.8 55.2 634.3"/>
        <polyline class="cls-4" points="133.7 631.1 138.4 626.3 138.4 613 135.3 609.8 135.3 599.8 132.1 596.7 132.1 585.8"/>
        <polyline class="cls-4" points="137 589.8 137 597.7 139 599.7 139 606.1 152.5 619.5 164.6 619.5 178.9 633.7"/>
        <polyline class="cls-4" points="145 587.6 145 598 151 604 172 604 200.3 632.3 200.3 744.9 206.4 751.1 206.4 801.9 212 807.5 212 827.7 223.1 838.8 223.1 844.1"/>
        <polyline class="cls-4" points="150.4 588.1 150.4 595.4 154.4 599.4 173.4 599.4 204.9 631 204.9 742.5 211.1 748.7 211.1 801.2 215.3 805.4 215.3 814.2"/>
        <polyline class="cls-4" points="157.2 582.9 165 582.9 210.8 628.8 210.8 740.4 226.9 756.5"/>
        <polyline class="cls-4" points="157.2 578.5 166.6 578.5 191.9 603.7"/>
        <polyline class="cls-4" points="158.3 573.4 166.4 573.4 189.9 596.9 195.2 596.9 206 607.7 206 614.6"/>
        <polyline class="cls-4" points="157.9 568.9 167.1 568.9 190.1 592 200.6 592"/>
        <polyline class="cls-4" points="157.9 564.8 168.9 564.8 173.9 569.8"/>
        <polyline class="cls-4" points="157.9 559.8 175.2 559.8 202.5 587.2 206 587.2 215.7 596.8 215.7 609.2"/>
        <line class="cls-4" x1="158.3" y1="554.4" x2="167.4" y2="554.4"/>
        <polyline class="cls-4" points="156.1 549 171.6 549 178.9 556.3"/>
        <polyline class="cls-4" points="187.6 568.9 192.2 564.4 192.2 545.1 203.1 545.1"/>
        <polyline class="cls-4" points="158.3 540.6 209.3 540.6 218.3 549.5"/>
        <polyline class="cls-4" points="157.9 536.1 213.5 536.1 220 529.7"/>
        <polyline class="cls-4" points="157.2 531.9 198.6 531.9 206.8 523.7 206.8 483.4 219.3 470.9"/>
        <polyline class="cls-4" points="158.3 527.7 178.9 527.7 202.1 504.4 202.1 481.6"/>
        <polyline class="cls-4" points="159.5 523 166.9 523 171.5 518.3"/>
        <path class="cls-4" d="M147.5,517.7c-.2-.3,9.2-9.2,9.2-9.2h15.6v-33.5l2.8-2.8v-7.7"/>
        <path class="cls-4" d="M146.8,515.4c0-.2,0-6.5,0-6.5l10.3-10.3"/>
        <polyline class="cls-4" points="139.8 516.4 139.8 505.6 147.1 498.2"/>
        <line class="cls-4" x1="136.3" y1="513.3" x2="136.3" y2="495.8"/>
        <path class="cls-4" d="M132.8,515.1c0-.6,0-15.2,0-15.2l-4.2-4.2"/>
        <path class="cls-4" d="M122.4,514.7v-20.7"/>
        <path class="cls-4" d="M118.9,516.4v-11.1l-7.6-7.6"/>
        <polyline class="cls-4" points="115.4 515.9 115.4 509.5 101.5 495.7 101.5 489.2 104.7 486 108.6 486 111.3 483.4 111.3 472.9 105.8 467.5 99.7 467.5"/>
        <polyline class="cls-4" points="99.5 473.3 105.1 473.3 108.2 476.4 108.2 481.6 105.5 484.3 100.8 484.3 97.4 487.7 97.4 496.8 108.4 507.8 108.4 514.5"/>
        <polyline class="cls-4" points="91 477.8 91 494.5 104.9 508.5 104.9 517.9"/>
        <polyline class="cls-4" points="76.2 477 76.2 484.2 85.6 493.5 85.6 497.4 98.7 510.5 98.7 519.5"/>
        <path class="cls-4" d="M94.5,513.6v-5l-11.7-11.7v-1.1l-4.5-4.5h-6.4l-1.7-1.7h-6.9l-6.7-6.7v-14.4l1.6-1.6h8.8"/>
        <polyline class="cls-4" points="68.8 460.9 60.2 460.9 55.2 465.9 55.2 483.7 63.1 491.7 69.2 491.7 75.7 498.1 78.1 498.1 92.2 512.1"/>
        <line class="cls-4" x1="73.5" y1="434.2" x2="55.8" y2="452"/>
        <polyline class="cls-4" points="137.4 494.8 137.4 488.7 134.4 485.7 134.4 482.7 130 478.3 124.9 478.3 120.9 474.2 120.9 455.2 109.4 443.8 109.4 361.6 123.7 347.3 123.7 338.2 127.4 334.5"/>
        <path class="cls-4" d="M135,387.5c0-.6,0-9,0-9l-3.1-3.1h-9.8l-4.5-4.5v-4.3"/>
        <polyline class="cls-4" points="129 419.8 129 425.2 125.8 428.4 119.9 428.4 118.4 429.9"/>
        <polyline class="cls-4" points="62.6 333 62.6 342.4 78.9 358.6 83.3 358.6 88.2 363.4 88.2 371.7 83.7 376.2 83.7 389.7"/>
        <rect class="cls-6" x="45.4" y="325.8" width="18.9" height="9.6"/>
        <g>
          <rect class="cls-8" x="102.4" y="323.7" width="4.3" height="11.5"/>
          <rect class="cls-8" x="110.1" y="323.7" width="4.3" height="11.5"/>
          <rect class="cls-8" x="117.8" y="323.7" width="4.3" height="11.5"/>
          <rect class="cls-8" x="125.5" y="323.7" width="4.3" height="11.5"/>
          <rect class="cls-8" x="133.1" y="323.7" width="4.3" height="11.5"/>
        </g>
        <g>
          <path class="cls-21" d="M106.5,344.5v-5.5h2.5v5.8c0,2,.6,2.7,1.7,2.7s1.8-.7,1.8-2.7v-5.8h2.4v5.5c0,3.5-1.4,5.1-4.2,5.1s-4.2-1.6-4.2-5.1Z"/>
          <path class="cls-21" d="M116.4,348l1.3-1.6c.7.6,1.7,1,2.6,1s1.4-.4,1.4-.9-.6-.8-1.5-1.2l-1.3-.6c-1.1-.4-2.1-1.3-2.1-2.8s1.6-3.2,3.8-3.2,2.5.5,3.4,1.3l-1.3,1.6c-.7-.5-1.4-.8-2.1-.8s-1.3.3-1.3.8.7.8,1.6,1.2l1.3.5c1.3.5,2.1,1.4,2.1,2.8s-1.5,3.3-4,3.3-2.8-.5-3.9-1.5Z"/>
          <path class="cls-21" d="M126,339h3.6c2.2,0,3.9.6,3.9,2.6s-.5,1.9-1.4,2.2h0c1.1.4,1.9,1.1,1.9,2.5,0,2.1-1.8,3.1-4.1,3.1h-3.9v-10.4ZM129.5,343.1c1.1,0,1.5-.5,1.5-1.2s-.5-1.1-1.5-1.1h-1.1v2.2h1ZM129.7,347.5c1.2,0,1.8-.4,1.8-1.3s-.6-1.2-1.8-1.2h-1.2v2.5h1.2Z"/>
        </g>
        <rect class="cls-34" x="123.2" y="384.9" width="47.7" height="35.5" rx="1" ry="1"/>
        <g>
          <rect class="cls-8" x="128.3" y="380.7" width="1.4" height="4.1"/>
          <rect class="cls-8" x="134.3" y="380.7" width="1.4" height="4.1"/>
          <rect class="cls-8" x="140.3" y="380.7" width="1.4" height="4.1"/>
          <rect class="cls-8" x="146.3" y="380.7" width="1.4" height="4.1"/>
          <rect class="cls-8" x="152.3" y="380.7" width="1.4" height="4.1"/>
          <rect class="cls-8" x="158.3" y="380.7" width="1.4" height="4.1"/>
          <rect class="cls-8" x="164.3" y="380.7" width="1.4" height="4.1"/>
        </g>
        <g>
          <rect class="cls-8" x="128.3" y="420.4" width="1.4" height="4.1"/>
          <rect class="cls-8" x="134.3" y="420.4" width="1.4" height="4.1"/>
          <rect class="cls-8" x="140.3" y="420.4" width="1.4" height="4.1"/>
          <rect class="cls-8" x="146.3" y="420.4" width="1.4" height="4.1"/>
          <rect class="cls-8" x="152.3" y="420.4" width="1.4" height="4.1"/>
          <rect class="cls-8" x="158.3" y="420.4" width="1.4" height="4.1"/>
          <rect class="cls-8" x="164.3" y="420.4" width="1.4" height="4.1"/>
        </g>
        <g>
          <rect class="cls-2" x="61.1" y="388.7" width="39.3" height="48.9"/>
          <rect class="cls-28" x="67" y="394.9" width="27.4" height="36.5" rx="13.7" ry="13.7"/>
          <path class="cls-28" d="M61.1,388.7h10.3c0,5.7-4.6,10.3-10.3,10.3h0v-10.3h0Z"/>
          <path class="cls-28" d="M61.1,427.4h0c5.7,0,10.3,4.6,10.3,10.3h-10.3v-10.3h0Z"/>
          <path class="cls-28" d="M90.1,388.7h10.3v10.3h0c-5.7,0-10.3-4.6-10.3-10.3h0Z"/>
          <path class="cls-28" d="M100.4,427.4h0v10.3h-10.3c0-5.7,4.6-10.3,10.3-10.3Z"/>
        </g>
        <g>
          <rect class="cls-34" x="64.7" y="458.2" width="34.6" height="22.9"/>
          <g>
            <rect class="cls-8" x="60.5" y="459.4" width="4.2" height="3.4"/>
            <rect class="cls-8" x="60.5" y="465.1" width="4.2" height="3.4"/>
            <rect class="cls-8" x="60.5" y="470.8" width="4.2" height="3.4"/>
            <rect class="cls-8" x="60.5" y="476.6" width="4.2" height="3.4"/>
          </g>
          <g>
            <rect class="cls-8" x="99.2" y="459.4" width="4.2" height="3.4"/>
            <rect class="cls-8" x="99.2" y="465.1" width="4.2" height="3.4"/>
            <rect class="cls-8" x="99.2" y="470.8" width="4.2" height="3.4"/>
            <rect class="cls-8" x="99.2" y="476.6" width="4.2" height="3.4"/>
          </g>
        </g>
        <rect class="cls-17" x="135.3" y="489.7" width="4.2" height="6.9"/>
        <g>
          <rect class="cls-11" x="79.8" y="511.8" width="81.7" height="81.7" rx="1.3" ry="1.3"/>
          <g>
            <rect class="cls-8" x="86" y="509.9" width="3.1" height="1.9"/>
            <rect class="cls-8" x="89.4" y="509.9" width="3.1" height="1.9"/>
            <rect class="cls-8" x="92.9" y="509.9" width="3.1" height="1.9"/>
            <rect class="cls-8" x="96.4" y="509.9" width="3.1" height="1.9"/>
            <rect class="cls-8" x="99.9" y="509.9" width="3.1" height="1.9"/>
            <rect class="cls-8" x="103.4" y="509.9" width="3.1" height="1.9"/>
            <rect class="cls-8" x="106.9" y="509.9" width="3.1" height="1.9"/>
            <rect class="cls-8" x="113.8" y="509.9" width="3.1" height="1.9"/>
            <rect class="cls-8" x="120.8" y="509.9" width="3.1" height="1.9"/>
            <rect class="cls-8" x="127.8" y="509.9" width="3.1" height="1.9"/>
            <rect class="cls-8" x="138.2" y="509.9" width="3.1" height="1.9"/>
            <rect class="cls-8" x="141.7" y="509.9" width="3.1" height="1.9"/>
            <rect class="cls-8" x="148.7" y="509.9" width="3.1" height="1.9"/>
            <rect class="cls-8" x="110.4" y="509.9" width="3.1" height="1.9"/>
            <rect class="cls-8" x="117.3" y="509.9" width="3.1" height="1.9"/>
            <rect class="cls-8" x="124.3" y="509.9" width="3.1" height="1.9"/>
            <rect class="cls-8" x="131.3" y="509.9" width="3.1" height="1.9"/>
            <rect class="cls-8" x="134.7" y="509.9" width="3.1" height="1.9"/>
            <rect class="cls-8" x="145.2" y="509.9" width="3.1" height="1.9"/>
            <rect class="cls-8" x="152.2" y="509.9" width="3.1" height="1.9"/>
          </g>
          <g>
            <rect class="cls-8" x="86.1" y="593.5" width="3.1" height="1.9"/>
            <rect class="cls-8" x="89.6" y="593.5" width="3.1" height="1.9"/>
            <rect class="cls-8" x="93.1" y="593.5" width="3.1" height="1.9"/>
            <rect class="cls-8" x="96.6" y="593.5" width="3.1" height="1.9"/>
            <rect class="cls-8" x="100.1" y="593.5" width="3.1" height="1.9"/>
            <rect class="cls-8" x="103.6" y="593.5" width="3.1" height="1.9"/>
            <rect class="cls-8" x="107.1" y="593.5" width="3.1" height="1.9"/>
            <rect class="cls-8" x="114" y="593.5" width="3.1" height="1.9"/>
            <rect class="cls-8" x="121" y="593.5" width="3.1" height="1.9"/>
            <rect class="cls-8" x="128" y="593.5" width="3.1" height="1.9"/>
            <rect class="cls-8" x="138.4" y="593.5" width="3.1" height="1.9"/>
            <rect class="cls-8" x="141.9" y="593.5" width="3.1" height="1.9"/>
            <rect class="cls-8" x="148.9" y="593.5" width="3.1" height="1.9"/>
            <rect class="cls-8" x="110.5" y="593.5" width="3.1" height="1.9"/>
            <rect class="cls-8" x="117.5" y="593.5" width="3.1" height="1.9"/>
            <rect class="cls-8" x="124.5" y="593.5" width="3.1" height="1.9"/>
            <rect class="cls-8" x="131.4" y="593.5" width="3.1" height="1.9"/>
            <rect class="cls-8" x="134.9" y="593.5" width="3.1" height="1.9"/>
            <rect class="cls-8" x="145.4" y="593.5" width="3.1" height="1.9"/>
            <rect class="cls-8" x="152.4" y="593.5" width="3.1" height="1.9"/>
          </g>
          <g>
            <rect class="cls-8" x="77.3" y="584.8" width="3.1" height="1.9" transform="translate(-506.9 664.6) rotate(-90)"/>
            <rect class="cls-8" x="77.3" y="581.3" width="3.1" height="1.9" transform="translate(-503.5 661.1) rotate(-90)"/>
            <rect class="cls-8" x="77.3" y="577.8" width="3.1" height="1.9" transform="translate(-500 657.6) rotate(-90)"/>
            <rect class="cls-8" x="77.3" y="574.3" width="3.1" height="1.9" transform="translate(-496.5 654.1) rotate(-90)"/>
            <rect class="cls-8" x="77.3" y="570.9" width="3.1" height="1.9" transform="translate(-493 650.6) rotate(-90)"/>
            <rect class="cls-8" x="77.3" y="567.4" width="3.1" height="1.9" transform="translate(-489.5 647.2) rotate(-90)"/>
            <rect class="cls-8" x="77.3" y="563.9" width="3.1" height="1.9" transform="translate(-486 643.7) rotate(-90)"/>
            <rect class="cls-8" x="77.3" y="556.9" width="3.1" height="1.9" transform="translate(-479.1 636.7) rotate(-90)"/>
            <rect class="cls-8" x="77.3" y="549.9" width="3.1" height="1.9" transform="translate(-472.1 629.7) rotate(-90)"/>
            <rect class="cls-8" x="77.3" y="543" width="3.1" height="1.9" transform="translate(-465.1 622.8) rotate(-90)"/>
            <rect class="cls-8" x="77.3" y="532.5" width="3.1" height="1.9" transform="translate(-454.7 612.3) rotate(-90)"/>
            <rect class="cls-8" x="77.3" y="529" width="3.1" height="1.9" transform="translate(-451.2 608.8) rotate(-90)"/>
            <rect class="cls-8" x="77.3" y="522.1" width="3.1" height="1.9" transform="translate(-444.2 601.9) rotate(-90)"/>
            <rect class="cls-8" x="77.3" y="560.4" width="3.1" height="1.9" transform="translate(-482.5 640.2) rotate(-90)"/>
            <rect class="cls-8" x="77.3" y="553.4" width="3.1" height="1.9" transform="translate(-475.6 633.2) rotate(-90)"/>
            <rect class="cls-8" x="77.3" y="546.5" width="3.1" height="1.9" transform="translate(-468.6 626.2) rotate(-90)"/>
            <rect class="cls-8" x="77.3" y="539.5" width="3.1" height="1.9" transform="translate(-461.6 619.3) rotate(-90)"/>
            <rect class="cls-8" x="77.3" y="536" width="3.1" height="1.9" transform="translate(-458.1 615.8) rotate(-90)"/>
            <rect class="cls-8" x="77.3" y="525.6" width="3.1" height="1.9" transform="translate(-447.7 605.3) rotate(-90)"/>
            <rect class="cls-8" x="77.3" y="518.6" width="3.1" height="1.9" transform="translate(-440.7 598.4) rotate(-90)"/>
          </g>
          <g>
            <rect class="cls-8" x="160.9" y="584.8" width="3.1" height="1.9" transform="translate(-423.3 748.2) rotate(-90)"/>
            <rect class="cls-8" x="160.9" y="581.3" width="3.1" height="1.9" transform="translate(-419.9 744.7) rotate(-90)"/>
            <rect class="cls-8" x="160.9" y="577.8" width="3.1" height="1.9" transform="translate(-416.4 741.2) rotate(-90)"/>
            <rect class="cls-8" x="160.9" y="574.3" width="3.1" height="1.9" transform="translate(-412.9 737.7) rotate(-90)"/>
            <rect class="cls-8" x="160.9" y="570.9" width="3.1" height="1.9" transform="translate(-409.4 734.2) rotate(-90)"/>
            <rect class="cls-8" x="160.9" y="567.4" width="3.1" height="1.9" transform="translate(-405.9 730.7) rotate(-90)"/>
            <rect class="cls-8" x="160.9" y="563.9" width="3.1" height="1.9" transform="translate(-402.4 727.3) rotate(-90)"/>
            <rect class="cls-8" x="160.9" y="556.9" width="3.1" height="1.9" transform="translate(-395.5 720.3) rotate(-90)"/>
            <rect class="cls-8" x="160.9" y="549.9" width="3.1" height="1.9" transform="translate(-388.5 713.3) rotate(-90)"/>
            <rect class="cls-8" x="160.9" y="543" width="3.1" height="1.9" transform="translate(-381.5 706.4) rotate(-90)"/>
            <rect class="cls-8" x="160.9" y="532.5" width="3.1" height="1.9" transform="translate(-371.1 695.9) rotate(-90)"/>
            <rect class="cls-8" x="160.9" y="529" width="3.1" height="1.9" transform="translate(-367.6 692.4) rotate(-90)"/>
            <rect class="cls-8" x="160.9" y="522.1" width="3.1" height="1.9" transform="translate(-360.6 685.4) rotate(-90)"/>
            <rect class="cls-8" x="160.9" y="560.4" width="3.1" height="1.9" transform="translate(-399 723.8) rotate(-90)"/>
            <rect class="cls-8" x="160.9" y="553.4" width="3.1" height="1.9" transform="translate(-392 716.8) rotate(-90)"/>
            <rect class="cls-8" x="160.9" y="546.5" width="3.1" height="1.9" transform="translate(-385 709.8) rotate(-90)"/>
            <rect class="cls-8" x="160.9" y="539.5" width="3.1" height="1.9" transform="translate(-378 702.9) rotate(-90)"/>
            <rect class="cls-8" x="160.9" y="536" width="3.1" height="1.9" transform="translate(-374.6 699.4) rotate(-90)"/>
            <rect class="cls-8" x="160.9" y="525.6" width="3.1" height="1.9" transform="translate(-364.1 688.9) rotate(-90)"/>
            <rect class="cls-8" x="160.9" y="518.6" width="3.1" height="1.9" transform="translate(-357.1 682) rotate(-90)"/>
          </g>
          <circle class="cls-10" cx="90" cy="523" r="2.8"/>
        </g>
        <rect class="cls-34" x="186.8" y="477.6" width="18.2" height="8.6"/>
        <rect class="cls-8" x="188.9" y="486.3" width="2.9" height="8.7"/>
        <rect class="cls-8" x="200.6" y="486.3" width="2.9" height="8.7"/>
        <rect class="cls-8" x="194.5" y="469" width="2.9" height="8.7"/>
        <rect class="cls-23" x="170.2" y="515.7" width="4.2" height="6.9" transform="translate(-346.8 691.5) rotate(-90)"/>
        <rect class="cls-17" x="189.2" y="546.8" width="4.2" height="6.9"/>
        <rect class="cls-23" x="172.1" y="566" width="4.2" height="6.9" transform="translate(-351.6 290) rotate(-45)"/>
        <g>
          <path class="cls-31" d="M156.8,628.2c-5.1,0-9.2,4.1-9.2,9.2s4.1,9.2,9.2,9.2,9.2-4.1,9.2-9.2-4.1-9.2-9.2-9.2ZM156.8,643.1c-3.1,0-5.7-2.6-5.7-5.7s2.6-5.7,5.7-5.7,5.7,2.6,5.7,5.7-2.6,5.7-5.7,5.7Z"/>
          <path class="cls-31" d="M118.5,628.6v17.7h17.7v-17.7h-17.7ZM127.3,643.1c-3.1,0-5.7-2.6-5.7-5.7s2.6-5.7,5.7-5.7,5.7,2.6,5.7,5.7-2.6,5.7-5.7,5.7Z"/>
          <path class="cls-31" d="M186.6,628.2c-5.1,0-9.2,4.1-9.2,9.2s4.1,9.2,9.2,9.2,9.2-4.1,9.2-9.2-4.1-9.2-9.2-9.2ZM186.6,643.1c-3.1,0-5.7-2.6-5.7-5.7s2.6-5.7,5.7-5.7,5.7,2.6,5.7,5.7-2.6,5.7-5.7,5.7Z"/>
        </g>
        <path class="cls-31" d="M17.2,606.8H0v3.4c2.3.9,3.9,3.1,3.9,5.7s-1.6,4.8-3.9,5.7v3.4h17.2c5,0,9-4,9-9s-4-9-9-9ZM15.6,621.9c-3.4,0-6.1-2.7-6.1-6.1s2.7-6.1,6.1-6.1,6.1,2.7,6.1,6.1-2.7,6.1-6.1,6.1Z"/>
        <path class="cls-31" d="M17.2,577.4H0v3.4c2.3.9,3.9,3.1,3.9,5.7s-1.6,4.8-3.9,5.7v3.4h17.2c5,0,9-4,9-9h0c0-5-4-9-9-9ZM15.6,592.5c-3.4,0-6.1-2.7-6.1-6.1s2.7-6.1,6.1-6.1,6.1,2.7,6.1,6.1-2.7,6.1-6.1,6.1Z"/>
        <path class="cls-31" d="M17.2,548H0v3.4c2.3.9,3.9,3.1,3.9,5.7s-1.6,4.8-3.9,5.7v3.4h17.2c5,0,9-4,9-9h0c0-5-4-9-9-9ZM15.6,563.1c-3.4,0-6.1-2.7-6.1-6.1s2.7-6.1,6.1-6.1,6.1,2.7,6.1,6.1-2.7,6.1-6.1,6.1Z"/>
        <path class="cls-31" d="M17.2,518.6H0v3.4c2.3.9,3.9,3.1,3.9,5.7s-1.6,4.8-3.9,5.7v3.4h17.2c5,0,9-4,9-9s-4-9-9-9ZM15.6,533.8c-3.4,0-6.1-2.7-6.1-6.1s2.7-6.1,6.1-6.1,6.1,2.7,6.1,6.1-2.7,6.1-6.1,6.1Z"/>
        <path class="cls-31" d="M17.2,459.9H0v3.4c2.3.9,3.9,3.1,3.9,5.7s-1.6,4.8-3.9,5.7v3.4h17.2c5,0,9-4,9-9s-4-9-9-9ZM15.6,475c-3.4,0-6.1-2.7-6.1-6.1s2.7-6.1,6.1-6.1,6.1,2.7,6.1,6.1-2.7,6.1-6.1,6.1Z"/>
        <path class="cls-31" d="M17.2,430.5H0v3.4c2.3.9,3.9,3.1,3.9,5.7s-1.6,4.8-3.9,5.7v3.4h17.2c5,0,9-4,9-9s-4-9-9-9ZM15.6,445.6c-3.4,0-6.1-2.7-6.1-6.1s2.7-6.1,6.1-6.1,6.1,2.7,6.1,6.1-2.7,6.1-6.1,6.1Z"/>
        <path class="cls-31" d="M17.2,401.1H0v3.4c2.3.9,3.9,3.1,3.9,5.7s-1.6,4.8-3.9,5.7v3.4h17.2c5,0,9-4,9-9s-4-9-9-9ZM15.6,416.2c-3.4,0-6.1-2.7-6.1-6.1s2.7-6.1,6.1-6.1,6.1,2.7,6.1,6.1-2.7,6.1-6.1,6.1Z"/>
        <path class="cls-31" d="M17.2,371.7H0v3.4c2.3.9,3.9,3.1,3.9,5.7s-1.6,4.8-3.9,5.7v3.4h17.2c5,0,9-4,9-9s-4-9-9-9ZM15.6,386.8c-3.4,0-6.1-2.7-6.1-6.1s2.7-6.1,6.1-6.1,6.1,2.7,6.1,6.1-2.7,6.1-6.1,6.1Z"/>
        <path class="cls-31" d="M17.2,312.9H0v3.4c2.3.9,3.9,3.1,3.9,5.7s-1.6,4.8-3.9,5.7v3.4h17.2c5,0,9-4,9-9h0c0-5-4-9-9-9ZM15.6,328c-3.4,0-6.1-2.7-6.1-6.1s2.7-6.1,6.1-6.1,6.1,2.7,6.1,6.1-2.7,6.1-6.1,6.1Z"/>
        <path class="cls-31" d="M17.2,283.5H0v3.4c2.3.9,3.9,3.1,3.9,5.7s-1.6,4.8-3.9,5.7v3.4h17.2c5,0,9-4,9-9s-4-9-9-9ZM15.6,298.6c-3.4,0-6.1-2.7-6.1-6.1s2.7-6.1,6.1-6.1,6.1,2.7,6.1,6.1-2.7,6.1-6.1,6.1Z"/>
        <path class="cls-31" d="M17.2,753.8H0v3.4c2.3.9,3.9,3.1,3.9,5.7s-1.6,4.8-3.9,5.7v3.4h17.2c5,0,9-4,9-9s-4-9-9-9ZM15.6,768.9c-3.4,0-6.1-2.7-6.1-6.1s2.7-6.1,6.1-6.1,6.1,2.7,6.1,6.1-2.7,6.1-6.1,6.1Z"/>
        <path class="cls-31" d="M239.3,851c0-2.6,1.6-4.8,3.9-5.7v-3.4h-17.2c-5,0-9,4-9,9s4,9,9,9h17.2v-3.4c-2.3-.9-3.9-3.1-3.9-5.7ZM227.6,857.1c-3.4,0-6.1-2.7-6.1-6.1s2.7-6.1,6.1-6.1,6.1,2.7,6.1,6.1-2.7,6.1-6.1,6.1Z"/>
        <path class="cls-31" d="M239.3,762.8c0-2.6,1.6-4.8,3.9-5.7v-3.4h-17.2c-5,0-9,4-9,9s4,9,9,9h17.2v-3.4c-2.3-.9-3.9-3.1-3.9-5.7ZM227.6,768.9c-3.4,0-6.1-2.7-6.1-6.1s2.7-6.1,6.1-6.1,6.1,2.7,6.1,6.1-2.7,6.1-6.1,6.1Z"/>
        <path class="cls-31" d="M239.3,527.7c0-2.6,1.6-4.8,3.9-5.7v-3.4h-17.2c-5,0-9,4-9,9s4,9,9,9h17.2v-3.4c-2.3-.9-3.9-3.1-3.9-5.7ZM227.6,533.8c-3.4,0-6.1-2.7-6.1-6.1s2.7-6.1,6.1-6.1,6.1,2.7,6.1,6.1-2.7,6.1-6.1,6.1Z"/>
        <rect class="cls-5" x="89.7" y="621.7" width="6.7" height="3.7" transform="translate(-530.6 716.6) rotate(-90)"/>
        <g>
          <rect class="cls-25" x="47.9" y="613" width="36.2" height="28.1" rx="2.2" ry="2.2"/>
          <rect class="cls-32" x="51" y="615.5" width="30" height="23.1" rx="1.4" ry="1.4"/>
        </g>
        <rect class="cls-5" x="89.7" y="641.7" width="6.7" height="3.7" transform="translate(-550.5 736.6) rotate(-90)"/>
        <rect class="cls-17" x="99.8" y="625.9" width="4.2" height="6.9"/>
        <g>
          <path class="cls-21" d="M42,446v-3.6c0-2.2.6-3.9,2.6-3.9s1.9.5,2.2,1.4h0c.3-1.1,1.1-1.9,2.4-1.9,2.1,0,3.1,1.8,3.1,4.1v3.9h-10.4ZM46.1,442.5c0-1.1-.5-1.5-1.2-1.5s-1.1.5-1.1,1.5v1.1h2.2v-1ZM50.5,442.3c0-1.2-.4-1.8-1.3-1.8s-1.2.6-1.2,1.8v1.2h2.5v-1.2Z"/>
          <path class="cls-21" d="M47.2,436.8c-3.4,0-5.4-1.9-5.4-4.8s2-4.8,5.4-4.8,5.4,1.9,5.4,4.8-2,4.8-5.4,4.8ZM47.2,429.8c-2,0-3.2.8-3.2,2.2s1.2,2.2,3.2,2.2,3.3-.9,3.3-2.2-1.3-2.2-3.3-2.2Z"/>
          <path class="cls-21" d="M47.2,425.8c-3.4,0-5.4-1.9-5.4-4.8s2-4.8,5.4-4.8,5.4,1.9,5.4,4.8-2,4.8-5.4,4.8ZM47.2,418.8c-2,0-3.2.8-3.2,2.2s1.2,2.2,3.2,2.2,3.3-.9,3.3-2.2-1.3-2.2-3.3-2.2Z"/>
          <path class="cls-21" d="M44.1,412.8v2.8h-2.1v-8.1h2.1v2.8h8.3v2.5h-8.3Z"/>
          <path class="cls-21" d="M51.1,406.9l-1.6-1.3c.6-.7,1-1.7,1-2.6s-.4-1.4-.9-1.4-.8.6-1.2,1.5l-.6,1.3c-.4,1.1-1.3,2.1-2.8,2.1s-3.2-1.6-3.2-3.8.5-2.5,1.3-3.4l1.6,1.3c-.5.7-.8,1.4-.8,2.1s.3,1.3.8,1.3.8-.7,1.2-1.6l.5-1.3c.5-1.3,1.4-2.1,2.8-2.1s3.3,1.5,3.3,4-.5,2.8-1.5,3.9Z"/>
          <path class="cls-21" d="M42,397.3v-6.6h2.1v4.1h2v-3.5h2.1v3.5h2.2v-4.3h2.1v6.8h-10.4Z"/>
          <path class="cls-21" d="M42,388.5v-2.5h8.3v-4h2.1v6.5h-10.4Z"/>
        </g>
        <g>
          <path class="cls-21" d="M141.2,603.2h3c3.2,0,5.3,1.6,5.3,5.2s-2.1,5.2-5.1,5.2h-3.1v-10.4ZM144,611.6c1.7,0,2.9-.8,2.9-3.2s-1.2-3.2-2.9-3.2h-.4v6.4h.4Z"/>
          <path class="cls-21" d="M151.4,603.2h6.6v2.1h-4.1v2h3.5v2.1h-3.5v2.2h4.3v2.1h-6.8v-10.4Z"/>
          <path class="cls-21" d="M160.2,603.2h3.6c2.2,0,3.9.6,3.9,2.6s-.5,1.9-1.4,2.2h0c1.1.4,1.9,1.1,1.9,2.5,0,2.1-1.8,3.1-4.1,3.1h-3.9v-10.4ZM163.7,607.4c1.1,0,1.5-.5,1.5-1.2s-.5-1.1-1.5-1.1h-1.1v2.2h1ZM163.9,611.7c1.2,0,1.8-.4,1.8-1.3s-.6-1.2-1.8-1.2h-1.2v2.5h1.2Z"/>
          <path class="cls-21" d="M169.8,608.7v-5.5h2.5v5.8c0,2,.6,2.7,1.7,2.7s1.8-.7,1.8-2.7v-5.8h2.4v5.5c0,3.5-1.4,5.1-4.2,5.1s-4.2-1.6-4.2-5.1Z"/>
          <path class="cls-21" d="M180.1,608.5c0-3.5,2.3-5.5,5.1-5.5s2.6.6,3.3,1.4l-1.3,1.5c-.5-.5-1.1-.7-1.9-.7-1.5,0-2.7,1.2-2.7,3.2s.9,3.3,2.9,3.3.8,0,1-.3v-1.7h-1.7v-2h3.9v4.9c-.7.7-2,1.3-3.5,1.3-2.9,0-5.2-1.8-5.2-5.3Z"/>
        </g>
        <rect class="cls-3" x="113.9" y="624.6" width="86.4" height="25.6"/>
        <g>
          <path class="cls-21" d="M39.8,339h2.5v8.3h4v2.1h-6.5v-10.4Z"/>
          <path class="cls-21" d="M48.2,339h6.6v2.1h-4.1v2h3.5v2.1h-3.5v2.2h4.3v2.1h-6.8v-10.4Z"/>
          <path class="cls-21" d="M57,339h3c3.2,0,5.3,1.6,5.3,5.2s-2.1,5.2-5.1,5.2h-3.1v-10.4ZM59.8,347.4c1.7,0,2.9-.8,2.9-3.2s-1.2-3.2-2.9-3.2h-.4v6.4h.4Z"/>
        </g>
        <g>
          <rect class="cls-12" x="143.5" y="488.5" width="5.4" height="10.6"/>
          <rect class="cls-23" x="143.5" y="490.8" width="5.4" height="6"/>
        </g>
        <g>
          <rect class="cls-12" x="154" y="488.5" width="5.4" height="10.6"/>
          <rect class="cls-23" x="154" y="490.8" width="5.4" height="6"/>
        </g>
        <rect class="cls-17" x="126.9" y="489.7" width="4.2" height="6.9"/>
        <rect class="cls-17" x="68.4" y="494.8" width="4.2" height="6.9" transform="translate(-427.8 568.7) rotate(-90)"/>
        <rect class="cls-23" x="120.2" y="489.7" width="4.2" height="6.9"/>
        <rect class="cls-23" x="110.1" y="489.7" width="4.2" height="6.9"/>
        <path class="cls-31" d="M239.3,468.9c0-2.6,1.6-4.8,3.9-5.7v-3.4h-17.2c-5,0-9,4-9,9s4,9,9,9h17.2v-3.4c-2.3-.9-3.9-3.1-3.9-5.7ZM227.6,475c-3.4,0-6.1-2.7-6.1-6.1s2.7-6.1,6.1-6.1,6.1,2.7,6.1,6.1-2.7,6.1-6.1,6.1Z"/>
        <g>
          <rect class="cls-12" x="169.2" y="461" width="11.9" height="5.6" transform="translate(638.9 288.6) rotate(90)"/>
          <rect class="cls-7" x="171.8" y="461" width="6.6" height="5.6" transform="translate(638.9 288.6) rotate(90)"/>
        </g>
      </g>
      <circle id="circle281-4" class="cls-20" cx="230.6" cy="351.1" r="11.6" transform="translate(-123.3 577.4) rotate(-89.3)"/>
      <circle id="circle281-3" class="cls-24" cx="230.6" cy="410.1" r="11.6" transform="translate(-182.3 635.6) rotate(-89.3)"/>
      <circle id="circle281-2" class="cls-27" cx="230.1" cy="557.2" r="11.6" transform="translate(-329.9 780.5) rotate(-89.3)"/>
      <rect class="cls-20" x="230.6" y="345.4" width="108.7" height="11.4"/>
      <rect class="cls-20" x="230.6" y="345.4" width="108.7" height="11.4"/>
      <rect id="rect426-2-2" data-name="rect426-2" class="cls-24" x="227.4" y="404.4" width="76.5" height="11.3"/>
      <rect id="rect1216" class="cls-27" x="223.1" y="552.2" width="252.1" height="11.3"/>
    </g>
  </g>
</svg>