<?xml version="1.0" encoding="utf-8"?>
<!-- Generator: Adobe Illustrator 27.8.0, SVG Export Plug-In . SVG Version: 6.00 Build 0)  -->
<svg version="1.1"
	 id="svg8" xmlns:svg="http://www.w3.org/2000/svg" xmlns:rdf="http://www.w3.org/1999/02/22-rdf-syntax-ns#" xmlns:sodipodi="http://sodipodi.sourceforge.net/DTD/sodipodi-0.dtd" xmlns:dc="http://purl.org/dc/elements/1.1/" xmlns:inkscape="http://www.inkscape.org/namespaces/inkscape" xmlns:cc="http://creativecommons.org/ns#" inkscape:export-xdpi="93" inkscape:export-ydpi="93" inkscape:version="0.92.4 (5da689c313, 2019-01-14)"
	 xmlns="http://www.w3.org/2000/svg" xmlns:xlink="http://www.w3.org/1999/xlink" x="0px" y="0px" viewBox="0 0 348 1081"
	 style="enable-background:new 0 0 348 1081;" xml:space="preserve">
<style type="text/css">
	.st0{fill:#FFFFFF;}
	.st1{fill:#1A1A1A;}
	.st2{opacity:0.99;fill:#808080;enable-background:new    ;}
	.st3{fill:#CCCCCC;}
	.st4{fill:#0000FF;}
	.st5{fill:#AB9C38;}
	.st6{fill:#978521;}
	.st7{fill:#5B5B5B;}
	.st8{fill:#B5A642;}
	.st9{opacity:0.99;fill:#AFDDE9;enable-background:new    ;}
	.st10{enable-background:new    ;}
</style>
<defs>
	
		<inkscape:perspective  id="perspective876" inkscape:persp3d-origin="105 : 98.999987 : 1" inkscape:vp_x="0 : 148.49997 : 1" inkscape:vp_y="0 : 999.99986 : 0" inkscape:vp_z="210.00001 : 148.49997 : 1" sodipodi:type="inkscape:persp3d">
		</inkscape:perspective>
</defs>
<sodipodi:namedview  bordercolor="#666666" borderopacity="1.0" id="base" inkscape:current-layer="layer1" inkscape:cx="297.83774" inkscape:cy="1303.5378" inkscape:document-units="mm" inkscape:lockguides="false" inkscape:pageopacity="0" inkscape:pageshadow="2" inkscape:window-height="1017" inkscape:window-maximized="1" inkscape:window-width="1920" inkscape:window-x="-8" inkscape:window-y="-8" inkscape:zoom="0.25000001" pagecolor="#323232" showgrid="false" showguides="true" width="500mm">
	</sodipodi:namedview>
<g id="layer1" transform="translate(0.31582593,1102.811)" inkscape:groupmode="layer" inkscape:label="Ebene 1">
	
		<rect id="rect815" x="0" y="-882.3" inkscape:export-xdpi="93" inkscape:export-ydpi="93" transform="matrix(1 -1.216180e-03 1.216180e-03 1 0.6493 0.2109)" width="347.5" height="697.1">
	</rect>
	
		<rect id="rect821" x="52.2" y="-251.9" inkscape:export-xdpi="93" inkscape:export-ydpi="93" class="st0" width="243.4" height="61.7">
	</rect>
	<path id="rect825" inkscape:export-xdpi="93" inkscape:export-ydpi="93" class="st1" d="M64.8-248.3l36.3,0
		c6.3,0,11.5,5.1,11.5,11.5l0,31.9c0,6.3-5.1,11.5-11.5,11.5l-36.3,0c-6.3,0-11.5-5.1-11.5-11.5l0-31.9
		C53.3-243.1,58.5-248.3,64.8-248.3z"/>
	<path id="rect872" inkscape:export-xdpi="93" inkscape:export-ydpi="93" class="st1" d="M185.8-248.4l36.3,0
		c6.3,0,11.5,5.1,11.5,11.5l0,31.9c0,6.3-5.1,11.5-11.5,11.5l-36.3,0c-6.3,0-11.5-5.1-11.5-11.5l0-31.9
		C174.4-243.2,179.5-248.4,185.8-248.4z"/>
	<path id="rect874" inkscape:export-xdpi="93" inkscape:export-ydpi="93" class="st1" d="M123.8-248.3l39.3,0c5.5,0,10,4.5,10,10
		l0,34.8c0,5.5-4.5,10-10,10l-39.3,0c-5.5,0-10-4.5-10-10l0-34.8C113.9-243.8,118.3-248.3,123.8-248.3z"/>
	
		<rect id="rect947" x="79.7" y="-218.5" inkscape:export-xdpi="93" inkscape:export-ydpi="93" class="st2" width="6.1" height="115.9">
	</rect>
	
		<rect id="rect949" x="140.5" y="-218.5" inkscape:export-xdpi="93" inkscape:export-ydpi="93" class="st2" width="6.1" height="115.9">
	</rect>
	
		<rect id="rect951" x="200.7" y="-218.6" inkscape:export-xdpi="93" inkscape:export-ydpi="93" class="st2" width="6.1" height="115.9">
	</rect>
	<g id="flowRoot969" transform="translate(121.05234,16.942602)" inkscape:export-xdpi="93" inkscape:export-ydpi="93">
	</g>
	<g id="flowRoot1466" transform="translate(121.05234,16.942602)" inkscape:export-xdpi="93" inkscape:export-ydpi="93">
	</g>
	<g id="flowRoot1529" transform="translate(121.05234,16.942602)" inkscape:export-xdpi="93" inkscape:export-ydpi="93">
	</g>
	<rect id="rect87" x="49" y="-458.1" inkscape:export-xdpi="93" inkscape:export-ydpi="93" width="247.9" height="62.4">
	</rect>
	<path id="path31-1" inkscape:connector-curvature="0" inkscape:export-xdpi="93" inkscape:export-ydpi="93" class="st0" d="
		M98.8-745.3c2.2,0,2.4-0.1,2.8-0.3c0.2-0.1,0.6-0.5,0.7-0.7c0.2-0.4,0.3-0.7,0.3-5.1l0-4.7l4.6,0l4.6,0l0,5.8c0,6.4,0,7-0.7,8.7
		c-0.9,2.2-2.2,3.2-4.8,3.8c-0.7,0.2-1.5,0.2-4.2,0.2c-1.8,0-3.8-0.1-4.4-0.1l-1.1-0.1l0-3.8l0-3.8L98.8-745.3L98.8-745.3z
		 M142.6-732.3c39.2,0,48.9,0,47.3,0.2l-0.3,0l0.3,0.1c0.2,0.1,0.2,0.1-0.2,0.1c-0.3,0-0.2,0.1,0.4,0.1l0.8,0.1l-0.8,0
		c-0.4,0-0.7,0.1-0.6,0.1c0.2,0,0.2,0.2,0.2,1.1c0,1,0,1,0.3,1.1c0.2,0,0.2,0.1-0.2,0.1c-0.3,0-0.5,0.1-0.5,0.1
		c0,0.1-15.6,0.1-46.4,0.2l-46.4,0l0-1.7l0-1.7L142.6-732.3z M107.2-768l4.6,0l0,3.8l0,3.8l-4.6,0l-4.6,0l0-3.8l0-3.8L107.2-768z
		 M116.6-754.1c0.3-2.1,0.9-4,1.8-5.7c0.3-0.6,0.6-1.1,0.6-1.2c0,0,0.3-0.4,0.5-0.7c0.5-0.8,1.6-2.1,1.8-2.3
		c0.1-0.1,0.2-0.1,0.2-0.2c0-0.2,1.2-1.2,2.1-1.9c1-0.7,1.7-1.1,3.4-1.7c2-0.7,3.2-0.9,5.6-0.8c1.7,0.1,2.2,0.1,3.3,0.4
		c0.7,0.2,1.5,0.5,1.9,0.6c0.3,0.1,0.7,0.3,0.7,0.3c0.1,0,0.6,0.3,1.1,0.6c2.2,1.3,5.3,4.7,6.4,7.3c1.8,4,2.1,8,0.7,11.8
		c-0.6,1.6-1,2.5-1.7,3.6c-0.8,1.3-0.8,1.4-2.7,3.2c-2.2,2.2-3.7,3.1-6.6,3.8c-1.5,0.4-4.3,0.6-5.8,0.3c-2-0.3-4.7-1.4-6.3-2.7
		c-0.9-0.6-2-1.6-2-1.7c0,0-0.3-0.4-0.6-0.7c-1.7-1.7-3.4-5-4-7.8C116.6-750.6,116.4-753.4,116.6-754.1L116.6-754.1z M125.4-750.2
		c0.5,1.7,1.3,3.2,2.7,4.6c1.4,1.3,3.6,1.8,5.5,1.2c2.1-0.7,4.2-3.1,4.9-5.8c0.4-1.5,0.4-3.7-0.1-5.2c-0.6-2.1-1.7-3.7-3.2-4.8
		c-0.7-0.5-1-0.6-1.8-0.8c-1.6-0.3-3.2-0.1-4.3,0.4c-1,0.5-2.2,1.9-3,3.3C125.1-755,124.8-752.5,125.4-750.2L125.4-750.2z
		 M151.5-768c0.1,0,2.2,0,4.6,0l4.5,0l0,4.1c0,3.9,0,4.2,0.3,4.9c0.7,1.8,2.8,2.7,4.6,2.1c1-0.3,1.6-0.9,2.1-1.8l0.4-0.8l0-4.3
		l0-4.3l4.6,0l4.6,0l0,4.9c0,4.5-0.1,4.9-0.3,5.8c-0.5,1.9-1.3,3.5-2.4,4.8c-0.3,0.3-0.5,0.6-0.5,0.7c0,0.2-1.2,1.2-2.2,2
		c-0.9,0.7-2.1,1.3-2.8,1.5c-0.2,0-0.8,0.2-1.4,0.4c-1,0.3-1.2,0.3-3.3,0.3c-2.1,0-2.3,0-3.5-0.3c-1.8-0.5-2.5-0.8-3.7-1.6
		c-1.4-0.9-2.6-2.1-3.5-3.5c-1.4-2-2-3.5-2.2-5.9C151.2-760.6,151.3-767.9,151.5-768L151.5-768z M164.4-745.2l7.6,0l0,3.9l0,3.9
		l-7.6,0l-7.6,0l0-3.9l0-3.9L164.4-745.2z M177.4-774c0.1,0,0.1-0.2,0.1-0.5c0-0.5,0-0.5,0.6-0.6c0.3,0,13.2-0.1,28.5-0.1l28,0
		l0,1.7l0,1.7l-28.4,0c-15.6,0-28.5,0-28.6-0.1c-0.2-0.1-0.2-0.3-0.2-1.1C177.2-773.6,177.3-774,177.4-774L177.4-774z M190.2-755.4
		l9.6,0l0,3.8l0,3.8l-9.6,0l-9.6,0l0-3.8l0-3.8L190.2-755.4z M207.4-768.1l4.6,0l0,3.8l0,3.8l-4.6,0l-4.6,0l0-3.8l0-3.8L207.4-768.1
		z M207.4-756.6l4.6,0l0,9.8l0,9.8l-4.6,0l-4.6,0l0-9.8l0-9.8L207.4-756.6z M225.9-768.1l9.7,0l0,3.8l0,3.8l-9.7,0l-9.7,0l0-3.8
		l0-3.8L225.9-768.1z M217.8-756.1c0.1,0,2.1-0.1,4.6-0.1l4.5,0l0,4.5c0.1,6.3-0.2,5.9,4.5,6l3,0l0,3.9l0,3.9l-1.1,0.1
		c-1.7,0.2-7,0.2-8.4,0c-2.5-0.4-4.1-1.2-5.1-2.4c-1.1-1.3-1.6-2.7-1.9-4.9C217.7-746.3,217.7-756,217.8-756.1L217.8-756.1z
		 M241.1-771.8c0.2-0.8,0.7-1.6,1.2-2.1c2.1-1.8,4.6-2,6.7-0.5c1,0.7,1.2,1,1.6,1.9c0.3,0.7,0.4,0.9,0.4,2c0,1.2,0,1.4-0.4,2.1
		c-0.7,1.5-2.5,2.7-4.2,2.8c-1.6,0.1-2.9-0.4-4.1-1.6C241.1-768.3,240.6-770.2,241.1-771.8L241.1-771.8z M242-768.7
		c0.4,1,1.7,2,3.1,2.3c1.4,0.3,2.4,0.1,3.9-1.1c0.4-0.3,0.6-0.6,0.9-1.2c0.4-0.7,0.4-1,0.4-1.9c0-1,0-1.1-0.4-1.9
		c-0.4-0.7-0.6-0.9-1.2-1.4c-0.4-0.3-1-0.6-1.4-0.7c-2.1-0.7-4.7,0.4-5.5,2.5C241.5-771.3,241.6-769.6,242-768.7z M245.4-773.5
		c0.9,0,1.9,0.1,2,0.1c0.8,0.3,1.1,1.7,0.6,2.4c-0.1,0.2-0.4,0.4-0.7,0.5l-0.4,0.2l0.4,0.5c0.2,0.3,0.6,0.8,0.8,1.2
		c0.2,0.4,0.4,0.7,0.5,0.8c0.3,0.2,0.1,0.3-0.4,0.3l-0.5,0l-0.8-1.2c-0.8-1.3-1-1.4-1.9-1.4l-0.6,0l0,1.3l0,1.3l-0.4,0l-0.4,0l0-2.9
		l0-2.9L245.4-773.5z M245.6-771c0.9,0,1.2,0,1.4-0.3c0.7-0.5,0.3-1.4-0.7-1.5c-0.4-0.1-1.6,0-1.8,0c0,0,0,0.4,0,0.9l0,0.9
		L245.6-771z"/>
	<path id="rect64" inkscape:export-xdpi="93" inkscape:export-ydpi="93" class="st1" d="M245.9-248.4l36.3,0
		c6.3,0,11.5,5.1,11.5,11.5l0,31.9c0,6.3-5.1,11.5-11.5,11.5l-36.3,0c-6.3,0-11.5-5.1-11.5-11.5l0-31.9
		C234.5-243.2,239.6-248.4,245.9-248.4z"/>
	
		<rect id="rect66" x="260.8" y="-218.6" inkscape:export-xdpi="93" inkscape:export-ydpi="93" class="st2" width="6.1" height="115.9">
	</rect>
	<rect id="rect103" x="-0.2" y="-1050.9" inkscape:export-xdpi="93" inkscape:export-ydpi="93" width="77.3" height="169.3">
	</rect>
	<rect id="rect105" x="270.3" y="-1051" inkscape:export-xdpi="93" inkscape:export-ydpi="93" width="77.3" height="169.3">
	</rect>
	<circle id="path107" inkscape:export-xdpi="93" inkscape:export-ydpi="93" class="st3" cx="173.7" cy="-376.1" r="85">
	</circle>
	<circle id="path133" inkscape:export-xdpi="93" inkscape:export-ydpi="93" class="st0" cx="173.7" cy="-376.1" r="69.6">
	</circle>
	
		<rect id="rect137" x="-0.2" y="-701.6" inkscape:export-xdpi="93" inkscape:export-ydpi="93" class="st0" width="131.4" height="231.9">
	</rect>
	<rect id="rect141" x="-0.2" y="-696.9" inkscape:export-xdpi="93" inkscape:export-ydpi="93" width="123.7" height="222.6">
	</rect>
	
		<rect id="rect139" x="3.7" y="-697.6" inkscape:export-xdpi="93" inkscape:export-ydpi="93" class="st4" width="123.7" height="224.1">
	</rect>
	
		<circle id="path144" inkscape:export-xdpi="93" inkscape:export-ydpi="93" inkscape:transform-center-x="7.5703852" inkscape:transform-center-y="6.4056526" class="st5" cx="23" cy="-492.8" r="19.3">
	</circle>
	
		<rect id="rect952" x="3.7" y="-495.9" inkscape:export-xdpi="93" inkscape:export-ydpi="93" class="st6" width="38.6" height="6.2">
	</rect>
	
		<rect id="rect956" x="179.1" y="-662.9" inkscape:export-xdpi="93" inkscape:export-ydpi="93" class="st0" width="168.5" height="131.4">
	</rect>
	<rect id="rect958" x="183" y="-659" inkscape:export-xdpi="93" inkscape:export-ydpi="93" width="160.8" height="123.7">
	</rect>
	
		<rect id="rect960" x="209.2" y="-651.3" inkscape:export-xdpi="93" inkscape:export-ydpi="93" class="st7" width="108.2" height="108.2">
	</rect>
	
		<rect id="rect962" x="209.2" y="-543.1" inkscape:export-xdpi="93" inkscape:export-ydpi="93" class="st3" width="19.3" height="30.9">
	</rect>
	
		<rect id="rect964" x="298.1" y="-543.1" inkscape:export-xdpi="93" inkscape:export-ydpi="93" class="st3" width="19.3" height="30.9">
	</rect>
	
		<rect id="rect966" x="236.3" y="-543.1" inkscape:export-xdpi="93" inkscape:export-ydpi="93" class="st3" width="19.3" height="30.9">
	</rect>
	
		<rect id="rect968" x="271.1" y="-543.1" inkscape:export-xdpi="93" inkscape:export-ydpi="93" class="st3" width="19.3" height="30.9">
	</rect>
	
		<rect id="rect970" x="209.2" y="-682.2" inkscape:export-xdpi="93" inkscape:export-ydpi="93" class="st3" width="19.3" height="30.9">
	</rect>
	
		<rect id="rect972" x="298.1" y="-682.2" inkscape:export-xdpi="93" inkscape:export-ydpi="93" class="st3" width="19.3" height="30.9">
	</rect>
	
		<rect id="rect974" x="236.3" y="-682.2" inkscape:export-xdpi="93" inkscape:export-ydpi="93" class="st3" width="19.3" height="30.9">
	</rect>
	
		<rect id="rect976" x="271.1" y="-682.2" inkscape:export-xdpi="93" inkscape:export-ydpi="93" class="st3" width="19.3" height="30.9">
	</rect>
	<polygon id="rect978" inkscape:export-xdpi="93" inkscape:export-ydpi="93" class="st2" points="215.8,-546.9 221.9,-546.9 
		222,-527.6 215.9,-527.6 	">
	</polygon>
	<polygon id="rect980" inkscape:export-xdpi="93" inkscape:export-ydpi="93" class="st2" points="242.9,-546.9 249,-546.9 
		249.1,-527.6 243,-527.6 	">
	</polygon>
	<polygon id="rect982" inkscape:export-xdpi="93" inkscape:export-ydpi="93" class="st2" points="277.6,-546.9 283.8,-546.9 
		283.9,-527.6 277.7,-527.6 	">
	</polygon>
	<polygon id="rect984" inkscape:export-xdpi="93" inkscape:export-ydpi="93" class="st2" points="304.7,-546.9 310.8,-546.9 
		310.9,-527.6 304.8,-527.6 	">
	</polygon>
	<polygon id="rect986" inkscape:export-xdpi="93" inkscape:export-ydpi="93" class="st2" points="215.8,-647.4 221.9,-647.4 
		222,-666.7 215.9,-666.7 	">
	</polygon>
	<polygon id="rect988" inkscape:export-xdpi="93" inkscape:export-ydpi="93" class="st2" points="242.9,-647.4 249,-647.4 
		249.1,-666.7 243,-666.7 	">
	</polygon>
	<polygon id="rect990" inkscape:export-xdpi="93" inkscape:export-ydpi="93" class="st2" points="277.6,-647.4 283.8,-647.4 
		283.9,-666.7 277.7,-666.7 	">
	</polygon>
	<polygon id="rect992" inkscape:export-xdpi="93" inkscape:export-ydpi="93" class="st2" points="304.7,-647.4 310.8,-647.4 
		310.9,-666.7 304.8,-666.7 	">
	</polygon>
	<circle id="path994" inkscape:export-xdpi="93" inkscape:export-ydpi="93" class="st3" cx="308.9" cy="-975.9" r="27">
	</circle>
	<circle id="circle996" inkscape:export-xdpi="93" inkscape:export-ydpi="93" class="st3" cx="38.4" cy="-975.9" r="27">
	</circle>
	<path id="rect836-7" inkscape:export-xdpi="93" inkscape:export-ydpi="93" class="st3" d="M138.7-871.5h11.6
		c11.7,0,21.3,9.5,21.3,21.3l0,0c0,11.7-9.5,21.3-21.3,21.3h-11.6c-11.7,0-21.3-9.5-21.3-21.3l0,0
		C117.4-862,126.9-871.5,138.7-871.5z"/>
	<path id="rect836-6" inkscape:export-xdpi="93" inkscape:export-ydpi="93" class="st3" d="M196.6-871.5h11.6
		c11.7,0,21.3,9.5,21.3,21.3l0,0c0,11.7-9.5,21.3-21.3,21.3h-11.6c-11.7,0-21.3-9.5-21.3-21.3l0,0
		C175.4-862,184.9-871.5,196.6-871.5z"/>
	
		<rect id="rect943" x="242.9" y="-871.5" inkscape:export-xdpi="93" inkscape:export-ydpi="93" transform="matrix(1 -8.295600e-03 8.295600e-03 1 7.0145 2.1521)" class="st3" width="40.1" height="54.1">
	</rect>
	<path id="rect1026" inkscape:export-xdpi="93" inkscape:export-ydpi="93" class="st3" d="M68.5-823.2l0-39.6c0-5.1,4.1-9.2,9.2-9.2
		l21.8,0c5.1,0,9.2,4.1,9.2,9.2l0,39.6c0,5.1-4.1,9.2-9.2,9.2l-21.8,0C72.6-814,68.5-818.1,68.5-823.2z"/>
	<circle id="path1028" inkscape:export-xdpi="93" inkscape:export-ydpi="93" class="st0" cx="88.5" cy="-833.3" r="11.6">
	</circle>
	<path id="rect1030" inkscape:export-xdpi="93" inkscape:export-ydpi="93" class="st3" d="M65.2-851l0.1,11.7
		c0.1,11.7-9.2,21.3-20.9,21.4l0,0c-11.7,0.1-21.3-9.2-21.4-20.9l-0.1-11.7c-0.1-11.7,9.2-21.3,20.9-21.4l0,0
		C55.5-872.1,65.1-862.7,65.2-851z"/>
	<circle id="circle105" inkscape:export-xdpi="93" inkscape:export-ydpi="93" class="st0" cx="44.1" cy="-844.9" r="15.5">
	</circle>
	
		<path id="rect132" inkscape:connector-curvature="0" inkscape:export-xdpi="93" inkscape:export-ydpi="93" inkscape:transform-center-x="7.8928511" inkscape:transform-center-y="-62.347487" class="st8" d="
		M29.3-1072.2h-6.2l5.5,42.4h0l6.9,54l6.2,0l-7-54.5h0L29.3-1072.2z"/>
	
		<path id="rect134" inkscape:connector-curvature="0" inkscape:export-xdpi="93" inkscape:export-ydpi="93" inkscape:transform-center-x="-7.83928" inkscape:transform-center-y="-62.475594" class="st8" d="
		M318-1072.4l-5.3,42h0l-6.9,54.6l6.2,0l6.8-54.1h0l5.3-42.4L318-1072.4z"/>
	
		<polygon id="rect142" inkscape:export-xdpi="93" inkscape:export-ydpi="93" inkscape:transform-center-x="-23.615912" inkscape:transform-center-y="-0.4590758" class="st8" points="
		60.5,-1072.3 60.5,-1066.2 24,-1066 24,-1072.2 	">
	</polygon>
	
		<polygon id="rect144" inkscape:export-xdpi="93" inkscape:export-ydpi="93" inkscape:transform-center-x="-24.144882" inkscape:transform-center-y="-0.45905859" class="st8" points="
		323.4,-1072.4 323.4,-1066.2 286,-1066.1 286,-1072.3 	">
	</polygon>
	<path id="path129" inkscape:connector-curvature="0" inkscape:export-xdpi="93" inkscape:export-ydpi="93" class="st9" d="
		M78.4-1093.5L78.4-1093.5c-7.4,0.1-14.2,4.2-17.9,10.6c-3.8,6.6-3.8,14.7,0,21.3c3.7,6.4,10.5,10.4,17.9,10.6v0h191.9v0
		c-0.2,0-0.5,0-0.7,0v-0.1c7.1-0.4,13.6-4.3,17.1-10.5c3.8-6.6,3.8-14.7,0-21.3c-3.6-6.2-10-10.2-17.1-10.6v0H78.9L78.4-1093.5z
		 M269.6-1093.5c0.2,0,0.5,0,0.7,0v0H269.6z"/>
	<circle id="circle124" inkscape:export-xdpi="93" inkscape:export-ydpi="93" class="st0" cx="144.3" cy="-850.3" r="15.5">
	</circle>
	<circle id="circle126" inkscape:export-xdpi="93" inkscape:export-ydpi="93" class="st0" cx="202.3" cy="-850.3" r="15.5">
	</circle>
	<g class="st10">
		<path d="M127.4-95.2c0,0.2,0,0.5,0,0.7c0,0.2-0.1,0.3-0.1,0.5c-0.1,0.1-0.1,0.2-0.2,0.3s-0.2,0.1-0.3,0.1c-0.2,0-0.4-0.1-0.8-0.4
			c-0.4-0.2-0.9-0.5-1.5-0.8s-1.4-0.6-2.2-0.8s-1.9-0.4-3.1-0.4c-1.4,0-2.7,0.3-3.8,0.8c-1.1,0.5-2.1,1.2-2.8,2.1
			c-0.8,0.9-1.4,2-1.8,3.2s-0.6,2.6-0.6,4.1c0,1.6,0.2,3.1,0.7,4.3c0.5,1.3,1.1,2.3,1.9,3.2s1.8,1.5,2.9,2s2.3,0.7,3.7,0.7
			c0.8,0,1.6-0.1,2.4-0.3c0.8-0.2,1.6-0.5,2.3-0.9v-7.4h-5.9c-0.2,0-0.4-0.1-0.5-0.3c-0.1-0.2-0.2-0.6-0.2-1c0-0.2,0-0.5,0-0.6
			c0-0.2,0.1-0.3,0.1-0.4c0.1-0.1,0.1-0.2,0.2-0.2c0.1-0.1,0.2-0.1,0.3-0.1h8.1c0.1,0,0.3,0,0.4,0.1c0.1,0.1,0.3,0.1,0.4,0.2
			c0.1,0.1,0.2,0.2,0.3,0.4c0.1,0.2,0.1,0.4,0.1,0.6v9.7c0,0.3-0.1,0.6-0.2,0.9s-0.4,0.5-0.7,0.7c-0.4,0.2-0.9,0.4-1.5,0.6
			c-0.6,0.2-1.2,0.4-1.9,0.6c-0.6,0.2-1.3,0.3-1.9,0.4s-1.3,0.1-1.9,0.1c-2,0-3.7-0.3-5.3-0.9s-2.9-1.5-3.9-2.6
			c-1.1-1.1-1.9-2.5-2.5-4.1c-0.6-1.6-0.8-3.3-0.8-5.3c0-2,0.3-3.9,0.9-5.5c0.6-1.6,1.5-3,2.6-4.2s2.4-2.1,4-2.7s3.3-1,5.2-1
			c1,0,1.9,0.1,2.7,0.3c0.9,0.2,1.6,0.4,2.3,0.6c0.7,0.2,1.2,0.5,1.7,0.7c0.5,0.3,0.8,0.5,0.9,0.7c0.2,0.2,0.3,0.4,0.4,0.6
			C127.4-95.9,127.4-95.6,127.4-95.2z"/>
		<path d="M153-74.6c0,0.3,0,0.5-0.1,0.7s-0.2,0.3-0.3,0.5s-0.3,0.2-0.5,0.3c-0.2,0.1-0.4,0.1-0.5,0.1h-1.1c-0.4,0-0.7,0-0.9-0.1
			c-0.3-0.1-0.5-0.2-0.8-0.4c-0.2-0.2-0.5-0.4-0.7-0.8c-0.2-0.3-0.5-0.7-0.8-1.3l-7.8-14.5c-0.4-0.7-0.8-1.5-1.2-2.4
			c-0.4-0.8-0.8-1.6-1.2-2.4h0c0,0.9,0,1.9,0.1,2.9c0,1,0,2,0,2.9v15.4c0,0.1,0,0.2-0.1,0.3c-0.1,0.1-0.1,0.2-0.3,0.2
			s-0.3,0.1-0.5,0.1c-0.2,0-0.5,0-0.8,0c-0.3,0-0.6,0-0.8,0c-0.2,0-0.4-0.1-0.5-0.1c-0.1,0-0.2-0.1-0.3-0.2
			c-0.1-0.1-0.1-0.2-0.1-0.3v-23.5c0-0.5,0.1-0.9,0.4-1.1c0.3-0.2,0.6-0.3,1-0.3h1.7c0.4,0,0.7,0,1,0.1s0.5,0.2,0.7,0.3
			c0.2,0.2,0.4,0.4,0.6,0.6c0.2,0.3,0.4,0.6,0.6,1l6,11.2c0.4,0.7,0.7,1.3,1.1,2c0.3,0.6,0.7,1.3,1,1.9c0.3,0.6,0.6,1.2,0.9,1.9
			s0.6,1.2,0.9,1.8h0c0-1,0-2.1,0-3.2c0-1.1,0-2.2,0-3.2v-13.8c0-0.1,0-0.2,0.1-0.3c0.1-0.1,0.1-0.1,0.3-0.2
			c0.1-0.1,0.3-0.1,0.5-0.1s0.5,0,0.8,0c0.3,0,0.6,0,0.8,0s0.4,0.1,0.5,0.1c0.1,0.1,0.2,0.1,0.3,0.2c0.1,0.1,0.1,0.2,0.1,0.3V-74.6z
			"/>
		<path d="M179.3-86.3c0,2.2-0.3,4.1-0.8,5.8c-0.6,1.6-1.4,3-2.5,4.1c-1.1,1.1-2.4,1.9-4,2.4c-1.6,0.5-3.5,0.8-5.6,0.8H161
			c-0.3,0-0.6-0.1-0.9-0.3c-0.3-0.2-0.4-0.6-0.4-1.1v-22.7c0-0.5,0.1-0.9,0.4-1.1c0.3-0.2,0.6-0.3,0.9-0.3h5.8
			c2.2,0,4.1,0.3,5.6,0.9s2.8,1.4,3.8,2.5c1,1.1,1.8,2.4,2.3,3.9S179.3-88.2,179.3-86.3z M175.8-86.1c0-1.4-0.2-2.7-0.5-3.8
			c-0.3-1.2-0.9-2.2-1.6-3.1s-1.7-1.5-2.8-2c-1.1-0.5-2.6-0.7-4.3-0.7h-3.4V-76h3.5c1.6,0,3-0.2,4.1-0.6c1.1-0.4,2-1,2.8-1.9
			c0.7-0.8,1.3-1.9,1.7-3.2C175.6-82.9,175.8-84.4,175.8-86.1z"/>
	</g>
	<g class="st10">
		<path d="M233.5-83.1c0,2.2-0.3,4.1-0.8,5.8c-0.6,1.6-1.4,3-2.5,4.1c-1.1,1.1-2.4,1.9-4,2.4c-1.6,0.5-3.5,0.8-5.6,0.8h-5.4
			c-0.3,0-0.6-0.1-0.9-0.3c-0.3-0.2-0.4-0.6-0.4-1.1v-22.7c0-0.5,0.1-0.9,0.4-1.1c0.3-0.2,0.6-0.3,0.9-0.3h5.8
			c2.2,0,4.1,0.3,5.6,0.9s2.8,1.4,3.8,2.5c1,1.1,1.8,2.4,2.3,3.9S233.5-85,233.5-83.1z M230-83c0-1.4-0.2-2.7-0.5-3.8
			c-0.3-1.2-0.9-2.2-1.6-3.1s-1.7-1.5-2.8-2c-1.1-0.5-2.6-0.7-4.3-0.7h-3.4v19.8h3.5c1.6,0,3-0.2,4.1-0.6c1.1-0.4,2-1,2.8-1.9
			c0.7-0.8,1.3-1.9,1.7-3.2C229.8-79.8,230-81.3,230-83z"/>
		<path d="M242-94.2c0,0.8-0.1,1.3-0.4,1.6c-0.3,0.3-0.8,0.4-1.6,0.4c-0.8,0-1.3-0.1-1.6-0.4c-0.3-0.3-0.4-0.8-0.4-1.5
			c0-0.8,0.1-1.3,0.4-1.6s0.8-0.4,1.6-0.4c0.8,0,1.3,0.1,1.6,0.4C241.9-95.5,242-95,242-94.2z M241.6-70.5c0,0.1,0,0.2-0.1,0.3
			c-0.1,0.1-0.1,0.1-0.3,0.2c-0.1,0.1-0.3,0.1-0.5,0.1c-0.2,0-0.5,0-0.8,0c-0.3,0-0.6,0-0.8,0c-0.2,0-0.4-0.1-0.5-0.1
			c-0.1-0.1-0.2-0.1-0.3-0.2s-0.1-0.2-0.1-0.3v-17.7c0-0.1,0-0.2,0.1-0.3c0-0.1,0.1-0.1,0.3-0.2s0.3-0.1,0.5-0.1c0.2,0,0.5,0,0.8,0
			c0.3,0,0.6,0,0.8,0c0.2,0,0.4,0.1,0.5,0.1s0.2,0.1,0.3,0.2c0.1,0.1,0.1,0.2,0.1,0.3V-70.5z"/>
		<path d="M262.5-87.4c0,0.5-0.1,0.8-0.2,1c-0.1,0.2-0.3,0.3-0.5,0.3h-2.5c0.5,0.5,0.8,1,1,1.6c0.2,0.6,0.3,1.2,0.3,1.8
			c0,1-0.2,1.9-0.5,2.7c-0.3,0.8-0.8,1.5-1.4,2c-0.6,0.5-1.3,1-2.2,1.2c-0.8,0.3-1.8,0.4-2.8,0.4c-0.7,0-1.4-0.1-2.1-0.3
			c-0.7-0.2-1.2-0.4-1.5-0.7c-0.2,0.2-0.4,0.5-0.6,0.8c-0.2,0.3-0.2,0.7-0.2,1c0,0.5,0.2,0.8,0.6,1.1s1,0.5,1.7,0.5l4.6,0.2
			c0.9,0,1.7,0.1,2.4,0.4c0.7,0.2,1.4,0.5,1.9,0.9c0.5,0.4,1,0.9,1.3,1.5c0.3,0.6,0.5,1.3,0.5,2c0,0.8-0.2,1.6-0.5,2.3
			c-0.3,0.7-0.9,1.4-1.6,1.9c-0.7,0.6-1.6,1-2.7,1.3c-1.1,0.3-2.4,0.5-3.9,0.5c-1.4,0-2.6-0.1-3.7-0.4s-1.8-0.6-2.5-1
			c-0.6-0.4-1.1-0.9-1.4-1.5s-0.4-1.2-0.4-1.9c0-0.4,0.1-0.9,0.2-1.3c0.1-0.4,0.3-0.8,0.5-1.2s0.5-0.7,0.8-1.1
			c0.3-0.3,0.7-0.7,1.1-1c-0.6-0.3-1.1-0.7-1.4-1.2s-0.5-1-0.5-1.6c0-0.8,0.2-1.5,0.5-2.1s0.7-1.2,1.2-1.7c-0.4-0.5-0.7-1-1-1.6
			s-0.4-1.3-0.4-2.2c0-1,0.2-1.9,0.5-2.7c0.3-0.8,0.8-1.5,1.4-2c0.6-0.6,1.3-1,2.2-1.3c0.8-0.3,1.8-0.4,2.8-0.4c0.5,0,1,0,1.5,0.1
			c0.5,0.1,0.9,0.1,1.3,0.2h5.4c0.2,0,0.4,0.1,0.5,0.3S262.5-87.9,262.5-87.4z M259-68.7c0-0.8-0.3-1.3-0.9-1.8
			c-0.6-0.4-1.5-0.6-2.5-0.7l-4.6-0.2c-0.4,0.3-0.8,0.6-1,0.9c-0.3,0.3-0.5,0.6-0.6,0.8c-0.2,0.3-0.3,0.5-0.3,0.8
			c-0.1,0.3-0.1,0.5-0.1,0.8c0,0.9,0.4,1.5,1.3,1.9c0.9,0.4,2.1,0.7,3.6,0.7c1,0,1.8-0.1,2.5-0.3c0.7-0.2,1.2-0.4,1.6-0.8
			c0.4-0.3,0.7-0.7,0.9-1.1C258.9-67.8,259-68.3,259-68.7z M257.4-82.8c0-1.2-0.3-2.1-1-2.8c-0.7-0.7-1.6-1-2.8-1
			c-0.6,0-1.2,0.1-1.6,0.3c-0.5,0.2-0.9,0.5-1.2,0.9c-0.3,0.4-0.5,0.8-0.7,1.3c-0.2,0.5-0.2,1-0.2,1.5c0,1.2,0.3,2.1,1,2.8
			c0.7,0.7,1.6,1,2.8,1c0.6,0,1.2-0.1,1.7-0.3c0.5-0.2,0.9-0.5,1.2-0.8s0.5-0.8,0.7-1.2C257.3-81.8,257.4-82.2,257.4-82.8z"/>
		<path d="M270.2-94.2c0,0.8-0.1,1.3-0.4,1.6c-0.3,0.3-0.8,0.4-1.6,0.4c-0.8,0-1.3-0.1-1.6-0.4c-0.3-0.3-0.4-0.8-0.4-1.5
			c0-0.8,0.1-1.3,0.4-1.6s0.8-0.4,1.6-0.4c0.8,0,1.3,0.1,1.6,0.4C270.1-95.5,270.2-95,270.2-94.2z M269.9-70.5c0,0.1,0,0.2-0.1,0.3
			c-0.1,0.1-0.1,0.1-0.3,0.2c-0.1,0.1-0.3,0.1-0.5,0.1c-0.2,0-0.5,0-0.8,0c-0.3,0-0.6,0-0.8,0c-0.2,0-0.4-0.1-0.5-0.1
			c-0.1-0.1-0.2-0.1-0.3-0.2s-0.1-0.2-0.1-0.3v-17.7c0-0.1,0-0.2,0.1-0.3c0-0.1,0.1-0.1,0.3-0.2s0.3-0.1,0.5-0.1c0.2,0,0.5,0,0.8,0
			c0.3,0,0.6,0,0.8,0c0.2,0,0.4,0.1,0.5,0.1s0.2,0.1,0.3,0.2c0.1,0.1,0.1,0.2,0.1,0.3V-70.5z"/>
		<path d="M285.1-71.8c0,0.4,0,0.7-0.1,0.9c-0.1,0.2-0.1,0.4-0.2,0.5c-0.1,0.1-0.3,0.2-0.5,0.3s-0.5,0.2-0.7,0.2
			c-0.3,0.1-0.6,0.1-0.9,0.1c-0.3,0-0.6,0.1-0.9,0.1c-0.9,0-1.7-0.1-2.4-0.4c-0.7-0.2-1.2-0.6-1.6-1.1s-0.7-1.1-0.9-1.9
			c-0.2-0.8-0.3-1.6-0.3-2.7V-86h-2.5c-0.2,0-0.4-0.1-0.5-0.3s-0.2-0.6-0.2-1c0-0.2,0-0.5,0-0.6c0-0.2,0.1-0.3,0.1-0.4
			c0.1-0.1,0.1-0.2,0.2-0.2c0.1,0,0.2-0.1,0.3-0.1h2.5V-93c0-0.1,0-0.2,0.1-0.3c0-0.1,0.1-0.1,0.3-0.2c0.1-0.1,0.3-0.1,0.5-0.1
			s0.5,0,0.8,0c0.3,0,0.6,0,0.8,0s0.4,0.1,0.5,0.1c0.1,0.1,0.2,0.1,0.3,0.2c0.1,0.1,0.1,0.2,0.1,0.3v4.2h4.5c0.1,0,0.2,0,0.3,0.1
			c0.1,0,0.1,0.1,0.2,0.2c0.1,0.1,0.1,0.3,0.1,0.4c0,0.2,0,0.4,0,0.6c0,0.5-0.1,0.8-0.2,1s-0.3,0.3-0.5,0.3h-4.5v9.9
			c0,1.2,0.2,2.1,0.5,2.8c0.4,0.6,1,0.9,1.9,0.9c0.3,0,0.6,0,0.8-0.1c0.2-0.1,0.4-0.1,0.6-0.2c0.2-0.1,0.3-0.1,0.5-0.2
			c0.1-0.1,0.2-0.1,0.4-0.1c0.1,0,0.1,0,0.2,0c0.1,0,0.1,0.1,0.1,0.2c0,0.1,0.1,0.2,0.1,0.4C285.1-72.2,285.1-72,285.1-71.8z"/>
		<path d="M302.2-70.5c0,0.2-0.1,0.3-0.2,0.4c-0.1,0.1-0.2,0.1-0.4,0.2c-0.2,0-0.5,0.1-0.8,0.1c-0.3,0-0.6,0-0.8-0.1
			c-0.2,0-0.4-0.1-0.4-0.2s-0.1-0.2-0.1-0.4v-1.8c-0.8,0.8-1.6,1.5-2.6,1.9c-1,0.5-2,0.7-3,0.7c-0.9,0-1.8-0.1-2.5-0.4
			c-0.8-0.2-1.4-0.6-1.9-1.1c-0.5-0.5-0.9-1-1.2-1.7c-0.3-0.7-0.4-1.4-0.4-2.3c0-1,0.2-1.9,0.6-2.6c0.4-0.7,1-1.3,1.8-1.8
			c0.8-0.5,1.7-0.8,2.8-1.1c1.1-0.2,2.3-0.4,3.7-0.4h2.4v-1.4c0-0.7-0.1-1.3-0.2-1.8c-0.1-0.5-0.4-1-0.7-1.3s-0.7-0.6-1.2-0.8
			c-0.5-0.2-1.1-0.3-1.9-0.3c-0.8,0-1.5,0.1-2.2,0.3c-0.6,0.2-1.2,0.4-1.7,0.6c-0.5,0.2-0.9,0.4-1.2,0.6s-0.6,0.3-0.7,0.3
			c-0.1,0-0.2,0-0.3-0.1c-0.1-0.1-0.1-0.1-0.2-0.2c-0.1-0.1-0.1-0.2-0.1-0.4s0-0.3,0-0.5c0-0.3,0-0.6,0.1-0.8c0-0.2,0.2-0.4,0.3-0.5
			c0.2-0.2,0.5-0.4,0.9-0.6c0.4-0.2,0.9-0.4,1.5-0.6s1.2-0.3,1.9-0.5c0.7-0.1,1.3-0.2,2-0.2c1.3,0,2.4,0.1,3.2,0.4
			c0.9,0.3,1.6,0.7,2.2,1.3c0.6,0.6,1,1.2,1.2,2.1s0.4,1.8,0.4,2.9V-70.5z M299-78.6h-2.8c-0.9,0-1.7,0.1-2.3,0.2
			c-0.7,0.2-1.2,0.4-1.6,0.7c-0.4,0.3-0.8,0.6-1,1.1c-0.2,0.4-0.3,0.9-0.3,1.4c0,0.9,0.3,1.7,0.9,2.2c0.6,0.5,1.4,0.8,2.5,0.8
			c0.9,0,1.6-0.2,2.4-0.6c0.7-0.4,1.5-1.1,2.3-2V-78.6z"/>
		<path d="M311.5-70.5c0,0.1,0,0.2-0.1,0.3c-0.1,0.1-0.1,0.1-0.3,0.2c-0.1,0.1-0.3,0.1-0.5,0.1c-0.2,0-0.5,0-0.8,0
			c-0.3,0-0.6,0-0.8,0c-0.2,0-0.4-0.1-0.5-0.1c-0.1-0.1-0.2-0.1-0.3-0.2s-0.1-0.2-0.1-0.3v-26.3c0-0.1,0-0.2,0.1-0.3
			c0-0.1,0.1-0.1,0.3-0.2c0.1-0.1,0.3-0.1,0.5-0.1c0.2,0,0.5,0,0.8,0c0.3,0,0.6,0,0.8,0c0.2,0,0.4,0.1,0.5,0.1
			c0.1,0.1,0.2,0.1,0.3,0.2c0.1,0.1,0.1,0.2,0.1,0.3V-70.5z"/>
	</g>
	<g class="st10">
		<path d="M45-30.2c0.1,0.3,0.2,0.5,0.2,0.7c0,0.2,0,0.3-0.1,0.4c-0.1,0.1-0.3,0.2-0.5,0.2c-0.2,0-0.6,0-1,0s-0.7,0-1,0
			S42.2-29,42-29c-0.1,0-0.2-0.1-0.3-0.2c-0.1-0.1-0.1-0.2-0.2-0.3l-2.2-6.2H28.8l-2.1,6.1c0,0.1-0.1,0.2-0.2,0.3
			c-0.1,0.1-0.2,0.2-0.3,0.2c-0.1,0.1-0.3,0.1-0.5,0.1c-0.2,0-0.5,0-0.9,0c-0.4,0-0.7,0-0.9,0c-0.2,0-0.4-0.1-0.5-0.2
			s-0.1-0.2-0.1-0.4c0-0.2,0.1-0.4,0.2-0.7L32-53.9c0.1-0.1,0.1-0.3,0.2-0.4c0.1-0.1,0.2-0.2,0.4-0.2s0.4-0.1,0.6-0.1s0.6,0,1,0
			c0.4,0,0.8,0,1,0c0.3,0,0.5,0.1,0.7,0.1s0.3,0.1,0.4,0.2s0.2,0.2,0.2,0.4L45-30.2z M34.1-51.1L34.1-51.1l-4.4,12.7h8.9L34.1-51.1z
			"/>
		<path d="M64.2-29.5c0,0.1,0,0.2-0.1,0.3S64-29.1,63.8-29c-0.1,0.1-0.3,0.1-0.5,0.1c-0.2,0-0.5,0-0.8,0c-0.3,0-0.6,0-0.8,0
			c-0.2,0-0.4-0.1-0.5-0.1c-0.1-0.1-0.2-0.1-0.3-0.2s-0.1-0.2-0.1-0.3v-10.4c0-1-0.1-1.8-0.2-2.4c-0.2-0.6-0.4-1.1-0.7-1.6
			c-0.3-0.4-0.7-0.8-1.2-1s-1-0.4-1.7-0.4c-0.8,0-1.6,0.3-2.4,0.9c-0.8,0.6-1.7,1.4-2.6,2.5v12.4c0,0.1,0,0.2-0.1,0.3
			c-0.1,0.1-0.1,0.1-0.3,0.2c-0.1,0.1-0.3,0.1-0.5,0.1c-0.2,0-0.5,0-0.8,0c-0.3,0-0.6,0-0.8,0c-0.2,0-0.4-0.1-0.5-0.1
			c-0.1-0.1-0.2-0.1-0.3-0.2s-0.1-0.2-0.1-0.3v-17.7c0-0.1,0-0.2,0.1-0.3c0-0.1,0.1-0.1,0.2-0.2c0.1-0.1,0.3-0.1,0.5-0.1
			c0.2,0,0.4,0,0.7,0c0.3,0,0.5,0,0.7,0c0.2,0,0.3,0.1,0.4,0.1c0.1,0.1,0.2,0.1,0.2,0.2c0,0.1,0.1,0.2,0.1,0.3v2.3
			c1-1.1,2-1.9,3-2.5s2-0.8,3-0.8c1.2,0,2.2,0.2,3,0.6c0.8,0.4,1.5,0.9,2,1.6c0.5,0.7,0.9,1.5,1.1,2.4c0.2,0.9,0.3,2,0.3,3.2V-29.5z
			"/>
		<path d="M83.4-29.5c0,0.2-0.1,0.3-0.2,0.4C83.2-29,83-29,82.9-28.9c-0.2,0-0.5,0.1-0.8,0.1c-0.3,0-0.6,0-0.8-0.1
			c-0.2,0-0.4-0.1-0.4-0.2s-0.1-0.2-0.1-0.4v-1.8c-0.8,0.8-1.6,1.5-2.6,1.9c-1,0.5-2,0.7-3,0.7c-0.9,0-1.8-0.1-2.5-0.4
			c-0.8-0.2-1.4-0.6-1.9-1.1c-0.5-0.5-0.9-1-1.2-1.7c-0.3-0.7-0.4-1.4-0.4-2.3c0-1,0.2-1.9,0.6-2.6c0.4-0.7,1-1.3,1.8-1.8
			c0.8-0.5,1.7-0.8,2.8-1.1c1.1-0.2,2.3-0.4,3.7-0.4h2.4v-1.4c0-0.7-0.1-1.3-0.2-1.8c-0.1-0.5-0.4-1-0.7-1.3s-0.7-0.6-1.2-0.8
			c-0.5-0.2-1.1-0.3-1.9-0.3c-0.8,0-1.5,0.1-2.2,0.3c-0.6,0.2-1.2,0.4-1.7,0.6c-0.5,0.2-0.9,0.4-1.2,0.6s-0.6,0.3-0.7,0.3
			c-0.1,0-0.2,0-0.3-0.1c-0.1-0.1-0.1-0.1-0.2-0.2c-0.1-0.1-0.1-0.2-0.1-0.4s0-0.3,0-0.5c0-0.3,0-0.6,0.1-0.8c0-0.2,0.2-0.4,0.3-0.5
			c0.2-0.2,0.5-0.4,0.9-0.6c0.4-0.2,0.9-0.4,1.5-0.6s1.2-0.3,1.9-0.5c0.7-0.1,1.3-0.2,2-0.2c1.3,0,2.4,0.1,3.2,0.4
			c0.9,0.3,1.6,0.7,2.2,1.3c0.6,0.6,1,1.2,1.2,2.1s0.4,1.8,0.4,2.9V-29.5z M80.2-37.6h-2.8c-0.9,0-1.7,0.1-2.3,0.2
			c-0.7,0.2-1.2,0.4-1.6,0.7c-0.4,0.3-0.8,0.6-1,1.1c-0.2,0.4-0.3,0.9-0.3,1.4c0,0.9,0.3,1.7,0.9,2.2c0.6,0.5,1.4,0.8,2.5,0.8
			c0.9,0,1.6-0.2,2.4-0.6c0.7-0.4,1.5-1.1,2.3-2V-37.6z"/>
		<path d="M92.7-29.5c0,0.1,0,0.2-0.1,0.3c-0.1,0.1-0.1,0.1-0.3,0.2c-0.1,0.1-0.3,0.1-0.5,0.1c-0.2,0-0.5,0-0.8,0
			c-0.3,0-0.6,0-0.8,0c-0.2,0-0.4-0.1-0.5-0.1c-0.1-0.1-0.2-0.1-0.3-0.2s-0.1-0.2-0.1-0.3v-26.3c0-0.1,0-0.2,0.1-0.3
			c0-0.1,0.1-0.1,0.3-0.2c0.1-0.1,0.3-0.1,0.5-0.1c0.2,0,0.5,0,0.8,0c0.3,0,0.6,0,0.8,0c0.2,0,0.4,0.1,0.5,0.1
			c0.1,0.1,0.2,0.1,0.3,0.2c0.1,0.1,0.1,0.2,0.1,0.3V-29.5z"/>
		<path d="M115.1-38.5c0,1.4-0.2,2.8-0.6,4c-0.4,1.2-0.9,2.3-1.7,3.1c-0.8,0.9-1.7,1.6-2.8,2.1c-1.1,0.5-2.5,0.7-3.9,0.7
			c-1.5,0-2.7-0.2-3.8-0.6c-1.1-0.4-2-1.1-2.7-1.9s-1.3-1.8-1.6-3c-0.4-1.2-0.5-2.5-0.5-4c0-1.4,0.2-2.8,0.6-4s0.9-2.3,1.7-3.1
			c0.8-0.9,1.7-1.6,2.8-2c1.1-0.5,2.4-0.7,4-0.7c1.5,0,2.7,0.2,3.8,0.7c1.1,0.4,2,1.1,2.7,1.9s1.3,1.8,1.6,3
			C115-41.4,115.1-40,115.1-38.5z M111.8-38.3c0-1-0.1-1.9-0.3-2.7c-0.2-0.9-0.5-1.6-0.9-2.2c-0.4-0.6-1-1.2-1.7-1.5
			s-1.6-0.6-2.6-0.6c-1,0-1.8,0.2-2.5,0.5c-0.7,0.3-1.3,0.8-1.7,1.4c-0.5,0.6-0.8,1.4-1,2.2c-0.2,0.9-0.3,1.8-0.3,2.8
			c0,1,0.1,1.9,0.3,2.7c0.2,0.9,0.5,1.6,0.9,2.2c0.4,0.6,1,1.1,1.7,1.5s1.6,0.6,2.6,0.6c1,0,1.8-0.2,2.5-0.5
			c0.7-0.3,1.3-0.8,1.7-1.4c0.5-0.6,0.8-1.4,1-2.2C111.7-36.4,111.8-37.3,111.8-38.3z"/>
		<path d="M134.7-46.4c0,0.5-0.1,0.8-0.2,1c-0.1,0.2-0.3,0.3-0.5,0.3h-2.5c0.5,0.5,0.8,1,1,1.6c0.2,0.6,0.3,1.2,0.3,1.8
			c0,1-0.2,1.9-0.5,2.7c-0.3,0.8-0.8,1.5-1.4,2c-0.6,0.5-1.3,1-2.2,1.2c-0.8,0.3-1.8,0.4-2.8,0.4c-0.7,0-1.4-0.1-2.1-0.3
			c-0.7-0.2-1.2-0.4-1.5-0.7c-0.2,0.2-0.4,0.5-0.6,0.8c-0.2,0.3-0.2,0.7-0.2,1c0,0.5,0.2,0.8,0.6,1.1s1,0.5,1.7,0.5l4.6,0.2
			c0.9,0,1.7,0.1,2.4,0.4c0.7,0.2,1.4,0.5,1.9,0.9c0.5,0.4,1,0.9,1.3,1.5c0.3,0.6,0.5,1.3,0.5,2c0,0.8-0.2,1.6-0.5,2.3
			c-0.3,0.7-0.9,1.4-1.6,1.9c-0.7,0.6-1.6,1-2.7,1.3c-1.1,0.3-2.4,0.5-3.9,0.5c-1.4,0-2.6-0.1-3.7-0.4s-1.8-0.6-2.5-1
			c-0.6-0.4-1.1-0.9-1.4-1.5s-0.4-1.2-0.4-1.9c0-0.4,0.1-0.9,0.2-1.3c0.1-0.4,0.3-0.8,0.5-1.2s0.5-0.7,0.8-1.1
			c0.3-0.3,0.7-0.7,1.1-1c-0.6-0.3-1.1-0.7-1.4-1.2s-0.5-1-0.5-1.6c0-0.8,0.2-1.5,0.5-2.1s0.7-1.2,1.2-1.7c-0.4-0.5-0.7-1-1-1.6
			s-0.4-1.3-0.4-2.2c0-1,0.2-1.9,0.5-2.7c0.3-0.8,0.8-1.5,1.4-2c0.6-0.6,1.3-1,2.2-1.3c0.8-0.3,1.8-0.4,2.8-0.4c0.5,0,1,0,1.5,0.1
			c0.5,0.1,0.9,0.1,1.3,0.2h5.4c0.2,0,0.4,0.1,0.5,0.3S134.7-46.8,134.7-46.4z M131.3-27.7c0-0.8-0.3-1.3-0.9-1.8
			c-0.6-0.4-1.5-0.6-2.5-0.7l-4.6-0.2c-0.4,0.3-0.8,0.6-1,0.9c-0.3,0.3-0.5,0.6-0.6,0.8c-0.2,0.3-0.3,0.5-0.3,0.8
			c-0.1,0.3-0.1,0.5-0.1,0.8c0,0.9,0.4,1.5,1.3,1.9c0.9,0.4,2.1,0.7,3.6,0.7c1,0,1.8-0.1,2.5-0.3c0.7-0.2,1.2-0.4,1.6-0.8
			c0.4-0.3,0.7-0.7,0.9-1.1C131.2-26.8,131.3-27.3,131.3-27.7z M129.7-41.7c0-1.2-0.3-2.1-1-2.8c-0.7-0.7-1.6-1-2.8-1
			c-0.6,0-1.2,0.1-1.6,0.3c-0.5,0.2-0.9,0.5-1.2,0.9c-0.3,0.4-0.5,0.8-0.7,1.3c-0.2,0.5-0.2,1-0.2,1.5c0,1.2,0.3,2.1,1,2.8
			c0.7,0.7,1.6,1,2.8,1c0.6,0,1.2-0.1,1.7-0.3c0.5-0.2,0.9-0.5,1.2-0.8s0.5-0.8,0.7-1.2C129.6-40.7,129.7-41.2,129.7-41.7z"/>
	</g>
	<g class="st10">
		<path d="M200.6-33.3c0,0.2,0,0.5-0.1,0.6c0,0.2-0.1,0.3-0.2,0.4c-0.1,0.1-0.1,0.2-0.2,0.3s-0.2,0.1-0.3,0.1h-6.5v7.2
			c0,0.1,0,0.2-0.1,0.3c-0.1,0.1-0.1,0.1-0.2,0.2c-0.1,0.1-0.3,0.1-0.4,0.1c-0.2,0-0.4,0-0.7,0c-0.3,0-0.5,0-0.7,0
			c-0.2,0-0.3-0.1-0.5-0.1c-0.1-0.1-0.2-0.1-0.2-0.2s-0.1-0.2-0.1-0.3v-7.2H184c-0.1,0-0.2,0-0.3-0.1c-0.1-0.1-0.2-0.1-0.2-0.3
			s-0.1-0.3-0.2-0.4c0-0.2-0.1-0.4-0.1-0.6c0-0.2,0-0.4,0.1-0.6c0-0.2,0.1-0.3,0.2-0.4s0.1-0.2,0.2-0.3c0.1-0.1,0.2-0.1,0.3-0.1h6.5
			v-7.2c0-0.1,0-0.2,0.1-0.3c0.1-0.1,0.1-0.2,0.2-0.2c0.1-0.1,0.3-0.1,0.5-0.1c0.2,0,0.4,0,0.7,0c0.3,0,0.5,0,0.7,0
			c0.2,0,0.3,0.1,0.4,0.1c0.1,0.1,0.2,0.1,0.2,0.2c0.1,0.1,0.1,0.2,0.1,0.3v7.2h6.5c0.1,0,0.2,0,0.3,0.1c0.1,0.1,0.2,0.1,0.2,0.3
			s0.1,0.3,0.2,0.4C200.6-33.7,200.6-33.5,200.6-33.3z"/>
		<path d="M215.7-22.5c-0.1,0.1-0.1,0.3-0.2,0.4c-0.1,0.1-0.2,0.2-0.4,0.2c-0.2,0.1-0.4,0.1-0.6,0.1s-0.6,0-1,0c-0.3,0-0.5,0-0.8,0
			s-0.4,0-0.6,0c-0.2,0-0.3-0.1-0.4-0.1c-0.1,0-0.2-0.1-0.3-0.1s-0.1-0.1-0.2-0.2s-0.1-0.2-0.1-0.3l-8.3-23.7
			c-0.1-0.3-0.2-0.5-0.2-0.7c0-0.2,0-0.3,0.2-0.4s0.3-0.2,0.6-0.2c0.3,0,0.6,0,1.1,0c0.4,0,0.7,0,0.9,0c0.2,0,0.4,0.1,0.5,0.1
			s0.2,0.1,0.3,0.2c0.1,0.1,0.1,0.2,0.2,0.3l7.3,21.4h0l7.1-21.4c0-0.1,0.1-0.3,0.1-0.4c0.1-0.1,0.1-0.2,0.3-0.2s0.3-0.1,0.6-0.1
			s0.6,0,0.9,0c0.4,0,0.7,0,1,0c0.2,0,0.4,0.1,0.5,0.2s0.1,0.2,0.1,0.4c0,0.2-0.1,0.4-0.2,0.7L215.7-22.5z"/>
	</g>
	<g class="st10">
		<path class="st0" d="M337.6-752.8c0.1,0,0.2,0,0.3,0.1c0.1,0.1,0.2,0.2,0.3,0.3c0.1,0.2,0.1,0.4,0.2,0.6s0.1,0.6,0.1,1.1
			c0,0.6,0,1-0.1,1.4c0,0.4-0.1,0.6-0.3,0.8s-0.3,0.3-0.4,0.4l-15.5,11.4h15.5c0.1,0,0.2,0,0.3,0.1c0.1,0.1,0.2,0.2,0.2,0.3
			c0.1,0.2,0.1,0.4,0.1,0.6s0.1,0.6,0.1,1c0,0.4,0,0.7-0.1,1c0,0.3-0.1,0.5-0.1,0.6c-0.1,0.2-0.1,0.3-0.2,0.3
			c-0.1,0.1-0.2,0.1-0.3,0.1h-29.8c-0.1,0-0.2,0-0.3-0.1c-0.1-0.1-0.2-0.2-0.2-0.3c-0.1-0.2-0.1-0.4-0.1-0.6c0-0.3-0.1-0.6-0.1-1
			c0-0.4,0-0.7,0.1-1s0.1-0.5,0.1-0.6c0.1-0.2,0.1-0.3,0.2-0.3c0.1-0.1,0.2-0.1,0.3-0.1h13.8l-13.8-11c-0.1-0.1-0.3-0.2-0.4-0.3
			c-0.1-0.1-0.2-0.3-0.2-0.5c-0.1-0.2-0.1-0.4-0.1-0.7c0-0.3,0-0.6,0-1c0-0.4,0-0.8,0.1-1s0.1-0.5,0.2-0.6c0.1-0.2,0.1-0.3,0.2-0.3
			c0.1-0.1,0.2-0.1,0.3-0.1c0.2,0,0.4,0.1,0.6,0.2c0.2,0.1,0.5,0.3,0.9,0.6l12.3,10.3l14.7-11.1c0.4-0.3,0.7-0.4,0.9-0.5
			C337.4-752.8,337.5-752.8,337.6-752.8z"/>
		<path class="st0" d="M326.2-767.9h11.4c0.1,0,0.2,0,0.3,0.1c0.1,0.1,0.2,0.2,0.2,0.3c0.1,0.2,0.1,0.4,0.1,0.6c0,0.3,0.1,0.6,0.1,1
			c0,0.4,0,0.7-0.1,1c0,0.3-0.1,0.5-0.1,0.6s-0.1,0.3-0.2,0.3c-0.1,0.1-0.2,0.1-0.3,0.1h-11.4l-17.5,8.8c-0.4,0.2-0.7,0.3-0.9,0.3
			c-0.2,0-0.4,0-0.5-0.1c-0.1-0.1-0.2-0.3-0.2-0.6c0-0.3,0-0.7,0-1.3c0-0.5,0-0.9,0-1.2c0-0.3,0.1-0.5,0.1-0.7
			c0.1-0.2,0.1-0.3,0.2-0.4s0.2-0.2,0.4-0.3l8.9-4.3c0.8-0.4,1.7-0.8,2.7-1.2s1.9-0.8,2.8-1.2v0c-0.9-0.4-1.8-0.7-2.7-1.1
			c-0.9-0.4-1.8-0.8-2.7-1.2l-9-4.3c-0.2,0-0.3-0.1-0.4-0.2c-0.1-0.1-0.2-0.2-0.3-0.4c-0.1-0.2-0.1-0.4-0.1-0.6c0-0.3,0-0.6,0-1
			c0-0.6,0-1,0.1-1.4s0.1-0.6,0.2-0.7c0.1-0.1,0.3-0.2,0.5-0.1c0.2,0,0.5,0.1,0.8,0.3L326.2-767.9z"/>
		<path class="st0" d="M326.2-788.4c0.6,0,1.1,0.1,1.3,0.2c0.2,0.1,0.4,0.4,0.4,0.6v10c0,0.3-0.1,0.5-0.4,0.6
			c-0.2,0.1-0.7,0.2-1.3,0.2c-0.6,0-1-0.1-1.3-0.2c-0.2-0.1-0.4-0.4-0.4-0.6v-10c0-0.1,0-0.2,0.1-0.3s0.1-0.2,0.3-0.3
			c0.1-0.1,0.3-0.1,0.5-0.2C325.6-788.4,325.9-788.4,326.2-788.4z"/>
		<path class="st0" d="M322.7-813.3c2.4,0,4.6,0.2,6.5,0.6c2,0.4,3.7,1,5.1,1.9c1.4,0.9,2.5,2,3.3,3.4c0.8,1.4,1.2,3.1,1.2,5.2
			c0,1.9-0.3,3.6-1,4.9c-0.7,1.3-1.7,2.4-3.1,3.2c-1.3,0.8-3,1.4-5,1.7c-2,0.3-4.2,0.5-6.8,0.5c-2.4,0-4.5-0.2-6.5-0.6
			c-2-0.4-3.7-1-5.1-1.9c-1.4-0.9-2.5-2-3.3-3.4c-0.8-1.4-1.2-3.1-1.2-5.2c0-2,0.3-3.6,1-4.9c0.7-1.3,1.7-2.4,3.1-3.2
			c1.3-0.8,3-1.4,5-1.7C317.9-813.1,320.2-813.3,322.7-813.3z M323-809c-1.5,0-2.9,0.1-4.2,0.2c-1.2,0.1-2.3,0.3-3.3,0.5
			s-1.8,0.5-2.4,0.8c-0.7,0.3-1.2,0.8-1.7,1.2c-0.4,0.5-0.8,1-1,1.6c-0.2,0.6-0.3,1.3-0.3,2.1c0,1.4,0.3,2.5,1,3.3
			c0.6,0.8,1.5,1.5,2.6,2s2.4,0.8,3.9,1c1.5,0.2,3.1,0.3,4.8,0.3c2.3,0,4.3-0.1,5.9-0.4c1.6-0.2,2.9-0.6,4-1.1s1.8-1.2,2.2-2
			c0.5-0.8,0.7-1.8,0.7-2.9c0-0.9-0.1-1.7-0.4-2.4c-0.3-0.7-0.7-1.3-1.2-1.7s-1.2-0.9-1.9-1.2s-1.6-0.6-2.5-0.8
			c-0.9-0.2-1.9-0.3-3-0.4C325.3-809,324.2-809,323-809z"/>
		<path class="st0" d="M336.5-837.1c0.3,0,0.5,0,0.8,0.1c0.2,0,0.4,0.1,0.6,0.2c0.2,0.1,0.3,0.2,0.3,0.3c0.1,0.1,0.1,0.3,0.1,0.4
			v17.1c0,0.2,0,0.4-0.1,0.6c-0.1,0.2-0.1,0.3-0.3,0.4s-0.3,0.2-0.6,0.3c-0.2,0.1-0.5,0.1-0.9,0.1c-0.3,0-0.6,0-0.8,0
			c-0.2,0-0.5-0.1-0.6-0.2c-0.2-0.1-0.4-0.2-0.6-0.3c-0.2-0.1-0.4-0.3-0.6-0.5l-6.4-6.2c-1.5-1.4-2.8-2.6-4-3.4s-2.2-1.5-3.2-2
			c-1-0.5-1.8-0.8-2.6-0.9c-0.8-0.1-1.5-0.2-2.2-0.2c-0.7,0-1.3,0.1-2,0.3c-0.6,0.2-1.2,0.6-1.6,1c-0.5,0.4-0.8,1-1.1,1.6
			c-0.3,0.7-0.4,1.4-0.4,2.3c0,1,0.1,1.9,0.4,2.7c0.3,0.8,0.6,1.5,0.9,2.1c0.3,0.6,0.6,1.1,0.9,1.5c0.3,0.4,0.4,0.7,0.4,0.9
			c0,0.1,0,0.2-0.1,0.3c-0.1,0.1-0.2,0.2-0.3,0.2s-0.3,0.1-0.6,0.1c-0.2,0-0.5,0-0.9,0c-0.2,0-0.4,0-0.6,0c-0.2,0-0.3,0-0.5-0.1
			c-0.1,0-0.2-0.1-0.4-0.2c-0.1-0.1-0.3-0.2-0.4-0.4c-0.2-0.2-0.4-0.5-0.7-1c-0.3-0.5-0.6-1.1-0.9-1.8s-0.5-1.5-0.7-2.3
			c-0.2-0.9-0.3-1.8-0.3-2.7c0-1.5,0.2-2.8,0.6-3.9c0.4-1.1,1-2.1,1.7-2.8c0.7-0.7,1.6-1.3,2.6-1.7c1-0.4,2-0.6,3.1-0.6
			c1,0,2,0.1,3,0.3c1,0.2,2,0.5,3.2,1.1c1.1,0.6,2.4,1.4,3.8,2.5s3,2.5,4.8,4.3l5.1,4.9v-13.5c0-0.1,0-0.3,0.1-0.4
			c0.1-0.1,0.2-0.2,0.3-0.3c0.1-0.1,0.3-0.2,0.5-0.2S336.2-837.1,336.5-837.1z"/>
		<path class="st0" d="M328.3-861.8c1.7,0,3.1,0.3,4.4,0.8s2.4,1.3,3.3,2.4s1.6,2.2,2,3.7c0.5,1.4,0.7,3,0.7,4.7
			c0,1-0.1,1.9-0.2,2.7c-0.1,0.9-0.3,1.6-0.5,2.3c-0.2,0.7-0.4,1.2-0.6,1.7s-0.3,0.7-0.5,0.8c-0.1,0.1-0.2,0.2-0.3,0.3
			s-0.2,0.1-0.3,0.1c-0.1,0-0.3,0.1-0.5,0.1c-0.2,0-0.5,0-0.7,0c-0.3,0-0.5,0-0.7,0c-0.2,0-0.4-0.1-0.5-0.1s-0.2-0.1-0.3-0.2
			s-0.1-0.2-0.1-0.3c0-0.2,0.1-0.4,0.3-0.7c0.2-0.3,0.4-0.8,0.6-1.4s0.5-1.3,0.7-2.1c0.2-0.8,0.3-1.8,0.3-3c0-1.1-0.1-2.1-0.4-2.9
			c-0.3-0.9-0.7-1.7-1.2-2.3c-0.5-0.6-1.2-1.2-2-1.5c-0.8-0.4-1.8-0.6-3-0.6c-1,0-1.9,0.2-2.6,0.5s-1.4,0.8-1.9,1.4
			c-0.5,0.6-0.9,1.5-1.1,2.5c-0.2,1-0.4,2.2-0.4,3.5c0,1,0,1.8,0.1,2.5s0.1,1.4,0.1,2c0,0.4-0.1,0.8-0.3,1c-0.2,0.2-0.6,0.3-1.2,0.3
			h-12.6c-0.5,0-0.9-0.1-1.2-0.4c-0.3-0.2-0.4-0.6-0.4-1.1V-859c0-0.1,0-0.3,0.1-0.4s0.2-0.2,0.3-0.3c0.1-0.1,0.3-0.1,0.6-0.2
			c0.2,0,0.5-0.1,0.8-0.1c0.6,0,1,0.1,1.3,0.2c0.3,0.2,0.5,0.4,0.5,0.6v11.1h8.7c-0.1-0.5-0.1-1.1-0.1-1.7c0-0.6,0-1.2,0-2
			c0-1.7,0.2-3.2,0.6-4.5c0.4-1.3,1-2.3,1.8-3.2c0.8-0.9,1.7-1.5,2.8-1.9S327-861.8,328.3-861.8z"/>
	</g>
	<g class="st10">
		<path class="st0" d="M85.3-255.6c0.1,0.4,0.2,0.6,0.2,0.9c0,0.2-0.1,0.4-0.2,0.5c-0.1,0.1-0.3,0.2-0.6,0.2s-0.7,0-1.2,0
			c-0.5,0-0.9,0-1.2,0c-0.3,0-0.5-0.1-0.7-0.1c-0.2-0.1-0.3-0.1-0.3-0.2c-0.1-0.1-0.1-0.2-0.2-0.4l-2.7-7.5H65.5l-2.5,7.5
			c0,0.1-0.1,0.3-0.2,0.4s-0.2,0.2-0.3,0.3c-0.2,0.1-0.4,0.1-0.6,0.2s-0.6,0-1.1,0c-0.5,0-0.8,0-1.1-0.1c-0.3,0-0.5-0.1-0.6-0.2
			s-0.2-0.3-0.2-0.5s0.1-0.5,0.2-0.9l10.4-28.8c0.1-0.2,0.1-0.3,0.3-0.4c0.1-0.1,0.3-0.2,0.5-0.3c0.2-0.1,0.5-0.1,0.8-0.1
			c0.3,0,0.7,0,1.2,0c0.5,0,0.9,0,1.3,0c0.3,0,0.6,0.1,0.8,0.1c0.2,0.1,0.4,0.2,0.5,0.3c0.1,0.1,0.2,0.3,0.3,0.4L85.3-255.6z
			 M71.9-281L71.9-281l-5.4,15.5h10.8L71.9-281z"/>
		<path class="st0" d="M109.5-269.7c0,2.4-0.2,4.6-0.6,6.5c-0.4,2-1,3.7-1.9,5.1c-0.9,1.4-2,2.5-3.4,3.3c-1.4,0.8-3.1,1.2-5.2,1.2
			c-1.9,0-3.6-0.3-4.9-1c-1.3-0.7-2.4-1.7-3.2-3.1c-0.8-1.3-1.4-3-1.7-5c-0.3-2-0.5-4.2-0.5-6.8c0-2.4,0.2-4.5,0.6-6.5
			c0.4-2,1-3.7,1.9-5.1c0.9-1.4,2-2.5,3.4-3.3c1.4-0.8,3.1-1.2,5.2-1.2c2,0,3.6,0.3,4.9,1c1.3,0.7,2.4,1.7,3.2,3.1
			c0.8,1.3,1.4,3,1.7,5C109.3-274.5,109.5-272.3,109.5-269.7z M105.3-269.4c0-1.5-0.1-2.9-0.2-4.2c-0.1-1.2-0.3-2.3-0.5-3.3
			s-0.5-1.8-0.8-2.4c-0.3-0.7-0.8-1.2-1.2-1.7c-0.5-0.4-1-0.8-1.6-1c-0.6-0.2-1.3-0.3-2.1-0.3c-1.4,0-2.5,0.3-3.3,1
			c-0.8,0.6-1.5,1.5-2,2.6s-0.8,2.4-1,3.9c-0.2,1.5-0.3,3.1-0.3,4.8c0,2.3,0.1,4.3,0.4,5.9c0.2,1.6,0.6,2.9,1.1,4s1.2,1.8,2,2.2
			c0.8,0.5,1.8,0.7,2.9,0.7c0.9,0,1.7-0.1,2.4-0.4c0.7-0.3,1.3-0.7,1.7-1.2s0.9-1.2,1.2-1.9s0.6-1.6,0.8-2.5c0.2-0.9,0.3-1.9,0.4-3
			C105.3-267.2,105.3-268.3,105.3-269.4z"/>
	</g>
	<g class="st10">
		<path class="st0" d="M155.9-280.9c0,0.3,0,0.6,0,0.8c0,0.2-0.1,0.4-0.1,0.6c-0.1,0.2-0.1,0.3-0.2,0.3c-0.1,0.1-0.2,0.1-0.3,0.1
			c-0.2,0-0.5-0.2-1-0.5c-0.4-0.3-1-0.6-1.8-1s-1.6-0.7-2.7-1c-1-0.3-2.3-0.5-3.7-0.5c-1.7,0-3.2,0.3-4.6,0.9
			c-1.4,0.6-2.5,1.5-3.5,2.6s-1.7,2.4-2.2,3.9c-0.5,1.5-0.8,3.2-0.8,4.9c0,2,0.3,3.7,0.8,5.3c0.6,1.5,1.3,2.8,2.3,3.9
			s2.1,1.9,3.5,2.4c1.3,0.5,2.8,0.8,4.4,0.8c1,0,1.9-0.1,2.9-0.3s1.9-0.6,2.7-1v-9h-7.2c-0.3,0-0.5-0.1-0.6-0.4s-0.2-0.7-0.2-1.3
			c0-0.3,0-0.6,0-0.8c0-0.2,0.1-0.4,0.2-0.5c0.1-0.1,0.2-0.2,0.3-0.3c0.1-0.1,0.2-0.1,0.4-0.1h9.8c0.2,0,0.4,0,0.5,0.1
			c0.2,0.1,0.3,0.2,0.5,0.3s0.3,0.3,0.3,0.5c0.1,0.2,0.1,0.5,0.1,0.8v11.8c0,0.4-0.1,0.8-0.2,1.1c-0.1,0.3-0.4,0.6-0.9,0.8
			c-0.5,0.2-1.1,0.5-1.8,0.8c-0.7,0.3-1.5,0.5-2.3,0.7c-0.8,0.2-1.6,0.3-2.4,0.4c-0.8,0.1-1.6,0.1-2.4,0.1c-2.4,0-4.5-0.4-6.4-1.1
			c-1.9-0.7-3.5-1.8-4.8-3.2c-1.3-1.4-2.3-3-3-4.9c-0.7-1.9-1-4.1-1-6.4c0-2.5,0.4-4.7,1.1-6.7s1.8-3.7,3.1-5.1
			c1.3-1.4,3-2.5,4.9-3.3c1.9-0.8,4-1.2,6.3-1.2c1.2,0,2.3,0.1,3.3,0.3c1,0.2,2,0.5,2.8,0.7c0.8,0.3,1.5,0.6,2,0.9
			c0.6,0.3,0.9,0.6,1.1,0.8c0.2,0.2,0.4,0.4,0.4,0.7S155.9-281.4,155.9-280.9z"/>
	</g>
	<g class="st10">
		<path class="st0" d="M214.7-264.9c0,0.3,0,0.6-0.1,0.8c0,0.2-0.1,0.4-0.2,0.5c-0.1,0.1-0.2,0.2-0.3,0.3c-0.1,0.1-0.2,0.1-0.4,0.1
			h-7.9v8.7c0,0.1,0,0.2-0.1,0.3s-0.2,0.2-0.3,0.2c-0.1,0.1-0.3,0.1-0.5,0.2s-0.5,0.1-0.8,0.1c-0.3,0-0.6,0-0.8-0.1
			s-0.4-0.1-0.6-0.2c-0.1-0.1-0.2-0.1-0.3-0.2c-0.1-0.1-0.1-0.2-0.1-0.3v-8.7h-7.9c-0.1,0-0.3,0-0.4-0.1c-0.1-0.1-0.2-0.2-0.3-0.3
			c-0.1-0.1-0.1-0.3-0.2-0.5c0-0.2-0.1-0.5-0.1-0.8c0-0.3,0-0.5,0.1-0.8s0.1-0.4,0.2-0.5c0.1-0.1,0.2-0.2,0.3-0.3
			c0.1-0.1,0.2-0.1,0.3-0.1h7.9v-8.7c0-0.1,0-0.2,0.1-0.3c0.1-0.1,0.2-0.2,0.3-0.3c0.1-0.1,0.3-0.1,0.6-0.2c0.2,0,0.5-0.1,0.8-0.1
			c0.3,0,0.6,0,0.8,0.1c0.2,0,0.4,0.1,0.5,0.2c0.1,0.1,0.2,0.2,0.3,0.3c0.1,0.1,0.1,0.2,0.1,0.3v8.7h7.9c0.1,0,0.2,0,0.3,0.1
			s0.2,0.2,0.3,0.3c0.1,0.1,0.2,0.3,0.2,0.5S214.7-265.2,214.7-264.9z"/>
	</g>
	<g class="st10">
		<path class="st0" d="M263.2-270.1c0,2.7-0.3,5-1,7c-0.7,2-1.7,3.7-3,5c-1.3,1.3-2.9,2.3-4.9,3s-4.2,1-6.9,1h-6.6
			c-0.4,0-0.7-0.1-1-0.4c-0.3-0.2-0.5-0.7-0.5-1.3v-27.7c0-0.6,0.2-1.1,0.5-1.3c0.3-0.2,0.7-0.4,1-0.4h7c2.7,0,5,0.3,6.8,1
			c1.9,0.7,3.4,1.7,4.7,3c1.3,1.3,2.2,2.9,2.9,4.7C262.9-274.5,263.2-272.4,263.2-270.1z M258.9-269.9c0-1.7-0.2-3.2-0.6-4.7
			c-0.4-1.4-1.1-2.7-2-3.8s-2-1.9-3.4-2.5c-1.4-0.6-3.1-0.9-5.2-0.9h-4.2v24.1h4.2c2,0,3.7-0.2,5-0.7c1.4-0.5,2.5-1.3,3.4-2.3
			c0.9-1,1.6-2.3,2-3.8C258.7-266,258.9-267.8,258.9-269.9z"/>
		<path class="st0" d="M288.6-269.7c0,2.4-0.2,4.6-0.6,6.5c-0.4,2-1,3.7-1.9,5.1c-0.9,1.4-2,2.5-3.4,3.3c-1.4,0.8-3.1,1.2-5.2,1.2
			c-1.9,0-3.6-0.3-4.9-1c-1.3-0.7-2.4-1.7-3.2-3.1c-0.8-1.3-1.4-3-1.7-5c-0.3-2-0.5-4.2-0.5-6.8c0-2.4,0.2-4.5,0.6-6.5
			c0.4-2,1-3.7,1.9-5.1c0.9-1.4,2-2.5,3.4-3.3c1.4-0.8,3.1-1.2,5.2-1.2c2,0,3.6,0.3,4.9,1c1.3,0.7,2.4,1.7,3.2,3.1
			c0.8,1.3,1.4,3,1.7,5C288.5-274.5,288.6-272.3,288.6-269.7z M284.4-269.4c0-1.5-0.1-2.9-0.2-4.2c-0.1-1.2-0.3-2.3-0.5-3.3
			s-0.5-1.8-0.8-2.4c-0.3-0.7-0.8-1.2-1.2-1.7c-0.5-0.4-1-0.8-1.6-1c-0.6-0.2-1.3-0.3-2.1-0.3c-1.4,0-2.5,0.3-3.3,1
			c-0.8,0.6-1.5,1.5-2,2.6s-0.8,2.4-1,3.9c-0.2,1.5-0.3,3.1-0.3,4.8c0,2.3,0.1,4.3,0.4,5.9c0.2,1.6,0.6,2.9,1.1,4s1.2,1.8,2,2.2
			c0.8,0.5,1.8,0.7,2.9,0.7c0.9,0,1.7-0.1,2.4-0.4c0.7-0.3,1.3-0.7,1.7-1.2s0.9-1.2,1.2-1.9s0.6-1.6,0.8-2.5c0.2-0.9,0.3-1.9,0.4-3
			C284.4-267.2,284.4-268.3,284.4-269.4z"/>
	</g>
</g>
</svg>
