<?xml version="1.0" encoding="utf-8"?>
<!-- Generator: Adobe Illustrator 27.8.0, SVG Export Plug-In . SVG Version: 6.00 Build 0)  -->
<svg version="1.1"
	 id="svg8" xmlns:svg="http://www.w3.org/2000/svg" xmlns:rdf="http://www.w3.org/1999/02/22-rdf-syntax-ns#" xmlns:sodipodi="http://sodipodi.sourceforge.net/DTD/sodipodi-0.dtd" xmlns:dc="http://purl.org/dc/elements/1.1/" xmlns:inkscape="http://www.inkscape.org/namespaces/inkscape" xmlns:cc="http://creativecommons.org/ns#" inkscape:export-xdpi="93" inkscape:export-ydpi="93" inkscape:version="0.92.4 (5da689c313, 2019-01-14)"
	 xmlns="http://www.w3.org/2000/svg" xmlns:xlink="http://www.w3.org/1999/xlink" x="0px" y="0px" viewBox="0 0 1921 873"
	 style="enable-background:new 0 0 1921 873;" xml:space="preserve">
<style type="text/css">
	.st0{fill:#FFFFFF;}
	.st1{fill:#1A1A1A;}
	.st2{opacity:0.99;fill:#808080;enable-background:new    ;}
	.st3{opacity:0.99;fill:#CCCCCC;enable-background:new    ;}
	.st4{opacity:0.99;fill:#FFFFFF;enable-background:new    ;}
	.st5{opacity:0.99;enable-background:new    ;}
	.st6{opacity:0.99;fill:#D7EEF4;enable-background:new    ;}
	.st7{enable-background:new    ;}
</style>
<defs>
	
		<inkscape:perspective  id="perspective876" inkscape:persp3d-origin="104.99999 : 99 : 1" inkscape:vp_x="0 : 148.5 : 1" inkscape:vp_y="0 : 999.99999 : 0" inkscape:vp_z="209.99999 : 148.5 : 1" sodipodi:type="inkscape:persp3d">
		</inkscape:perspective>
</defs>
<sodipodi:namedview  bordercolor="#666666" borderopacity="1.0" id="base" inkscape:current-layer="layer1" inkscape:cx="1588.3229" inkscape:cy="771.89172" inkscape:document-units="mm" inkscape:lockguides="false" inkscape:pageopacity="0" inkscape:pageshadow="2" inkscape:window-height="1017" inkscape:window-maximized="1" inkscape:window-width="1920" inkscape:window-x="-8" inkscape:window-y="-8" inkscape:zoom="0.2271736" pagecolor="#323232" showgrid="false" showguides="true" width="500mm">
	</sodipodi:namedview>
<g id="layer1" transform="translate(0.31582593,152.81107)" inkscape:groupmode="layer" inkscape:label="Ebene 1">
	<rect id="rect815" x="0.2" y="-152.5" width="1493.2" height="872.3"/>
	<rect id="rect821" x="1325.9" y="-21.8" class="st0" width="154.9" height="611"/>
	<path id="rect825" class="st1" d="M1334.9,557.4l-0.1-91.1c0-15.9,12.9-28.8,28.8-28.8l80,0c15.9,0,28.8,12.9,28.8,28.8l0.1,91.1
		c0,15.9-12.9,28.8-28.8,28.8l-80,0C1347.8,586.2,1334.9,573.3,1334.9,557.4z"/>
	<path id="rect872" class="st1" d="M1334.7,253.6l-0.1-91.1c0-15.9,12.9-28.8,28.8-28.8l80,0c15.9,0,28.8,12.9,28.8,28.8l0.1,91.1
		c0,15.9-12.9,28.8-28.8,28.8l-80,0C1347.6,282.4,1334.7,269.5,1334.7,253.6z"/>
	<path id="rect874" class="st1" d="M1334.8,409.2l-0.1-98.6c0-13.9,11.2-25.1,25.1-25.1l87.4,0c13.9,0,25.1,11.2,25.1,25.1l0.1,98.6
		c0,13.9-11.2,25.1-25.1,25.1l-87.4,0C1346.1,434.3,1334.8,423.1,1334.8,409.2z"/>
	<rect id="rect947" x="1409.7" y="504.7" class="st2" width="291" height="15.4"/>
	<rect id="rect949" x="1409.7" y="352" class="st2" width="291" height="15.4"/>
	<rect id="rect951" x="1409.6" y="201" class="st2" width="291" height="15.4"/>
	<g id="flowRoot969" transform="translate(121.05234,121.38818)">
	</g>
	<g id="flowRoot1466" transform="translate(121.05234,121.38818)">
	</g>
	<g id="flowRoot1529" transform="translate(121.05234,121.38818)">
	</g>
	<rect id="rect87" x="808.4" y="-25.3" width="156.5" height="622.2"/>
	<path id="path31-1" inkscape:connector-curvature="0" class="st0" d="M87.3,471.7c-0.1-5.4-0.2-6-0.8-7c-0.4-0.6-1.1-1.4-1.7-1.7
		c-1-0.6-1.7-0.6-12.7-0.7l-11.7-0.1l0.1-11.5l0.1-11.5l14.6,0c16.1,0,17.6,0.1,21.8,1.8c5.5,2.2,8.1,5.4,9.6,12
		c0.4,1.8,0.5,3.8,0.5,10.5c0,4.6-0.2,9.6-0.3,11.2l-0.3,2.8l-9.5,0.1l-9.5,0.1L87.3,471.7L87.3,471.7z M119.9,361.8
		c0-98.5,0.1-122.8,0.5-118.7l0.1,0.6l0.3-0.6c0.2-0.5,0.3-0.4,0.3,0.5c0.1,0.7,0.1,0.4,0.3-0.9l0.2-2l0.1,2c0,1.1,0.2,1.8,0.2,1.5
		c0.1-0.5,0.5-0.6,2.7-0.6c2.6,0,2.6,0,2.7-0.9c0.1-0.6,0.1-0.5,0.2,0.5c0,0.7,0.2,1.3,0.4,1.3c0.2,0,0.3,39.1,0.4,116.5l0.1,116.5
		l-4.2,0l-4.2,0L119.9,361.8z M30.2,450.6l0-11.6l9.5,0l9.5,0l0,11.6l0,11.6l-9.5,0l-9.5,0L30.2,450.6z M65.1,427.1
		c-5.3-0.8-10.1-2.3-14.3-4.4c-1.5-0.8-2.9-1.5-3-1.6c-0.1-0.1-0.9-0.7-1.9-1.3c-1.9-1.2-5.3-4-5.7-4.6c-0.1-0.2-0.4-0.4-0.5-0.4
		c-0.4,0-3-2.9-4.7-5.2c-1.7-2.4-2.7-4.3-4.3-8.7c-1.9-5-2.3-8-2.1-14c0.1-4.4,0.3-5.4,1.1-8.2c0.5-1.7,1.2-3.8,1.6-4.7
		c0.4-0.8,0.6-1.7,0.6-1.9c0-0.2,0.7-1.5,1.5-2.9c3.2-5.6,11.9-13.2,18.3-16.1c10.1-4.6,20.2-5.2,29.5-1.7c3.9,1.5,6.2,2.5,8.9,4.2
		c3.2,2,3.4,2.1,8.1,6.9c5.4,5.5,7.7,9.4,9.7,16.6c1,3.6,1.4,10.8,0.8,14.7c-0.8,5-3.6,11.7-6.7,15.8c-1.6,2.1-4.1,5-4.4,5
		c-0.1,0-0.9,0.7-1.8,1.6c-4.3,4.2-12.6,8.5-19.5,10.1C73.9,427,67.1,427.4,65.1,427.1z M75,404.9c4.4-1.1,8.1-3.4,11.4-6.8
		c3.3-3.5,4.6-9.1,3.1-13.9c-1.6-5.3-7.8-10.5-14.4-12.2c-3.8-1-9.3-0.9-13,0.2c-5.2,1.5-9.3,4.3-12.1,8.1c-1.3,1.8-1.6,2.6-2,4.4
		c-0.7,4-0.3,8,1.1,10.8c1.3,2.5,4.8,5.6,8.4,7.4C62.9,405.6,69.2,406.3,75,404.9L75,404.9z M30.3,339.5c-0.1-0.2-0.1-5.5-0.1-11.7
		l0.1-11.3l10.4,0c9.8,0,10.5-0.1,12.2-0.7c4.4-1.6,6.8-7,5.3-11.7c-0.8-2.4-2.2-4-4.5-5.2l-2-1l-10.8-0.1l-10.8-0.1l0-11.6l0-11.6
		l12.2,0.1c11.3,0.1,12.4,0.2,14.7,0.8c4.7,1.3,8.8,3.4,12,6.1c0.8,0.7,1.6,1.2,1.8,1.2c0.4,0,3,2.9,5,5.6c1.6,2.2,3.3,5.4,3.6,6.9
		c0.1,0.5,0.6,2.1,1,3.6c0.8,2.5,0.8,3.1,0.8,8.3c0,5.3-0.1,5.9-0.9,8.8c-1.3,4.6-1.9,6.2-3.9,9.2c-2.3,3.5-5.2,6.4-8.8,8.9
		c-5.1,3.5-8.9,4.9-14.8,5.6C49,340,30.5,340,30.3,339.5L30.3,339.5z M87.6,307l0-19l9.8,0l9.8,0l0,19l0,19l-9.8,0l-9.8,0L87.6,307z
		 M15.2,274.5c0-0.2-0.5-0.3-1.2-0.3c-1.2,0-1.2,0-1.4-1.5c-0.1-0.8-0.2-33-0.2-71.6l0-70.2l4.2,0.1l4.2,0.1l0,71.4
		c0,39.2,0,71.6-0.1,71.9c-0.2,0.4-0.7,0.5-2.8,0.5C16.3,274.8,15.2,274.7,15.2,274.5L15.2,274.5z M62.1,242.4l0-24.2l9.6,0l9.6,0
		l0,24.2l0,24.2l-9.6,0l-9.6,0L62.1,242.4z M30.1,199l0-11.6l9.5,0l9.5,0l0,11.6l0,11.6l-9.5,0l-9.5,0L30.1,199z M59,199l0-11.6
		l24.5,0l24.5,0l0,11.6l0,11.6l-24.5,0l-24.5,0L59,199z M30.1,152.6l0-24.4l9.5,0l9.5,0l0,24.4l0,24.4l-9.5,0l-9.5,0L30.1,152.6z
		 M60.4,172.9c-0.1-0.2-0.2-5.3-0.2-11.5l0-11.2l11.2-0.1c15.8-0.2,14.9,0.5,15.1-11.4l0.1-7.5l9.9,0l9.9,0l0.4,2.8
		c0.5,4.2,0.5,17.5-0.1,21.1c-1,6.2-2.9,10.2-6.1,12.9c-3.3,2.8-6.8,4.1-12.2,4.7C84.9,173.2,60.6,173.3,60.4,172.9L60.4,172.9z
		 M20.8,114.5c-2.1-0.6-4-1.7-5.2-3c-4.6-5.3-5.1-11.6-1.3-16.8c1.8-2.4,2.5-3.1,4.7-4.1c1.7-0.8,2.2-0.9,5.1-0.9
		c2.9,0,3.5,0.1,5.2,0.9c3.8,1.8,6.8,6.2,7.1,10.6c0.3,4.1-0.9,7.2-4,10.4C29.7,114.4,24.8,115.7,20.8,114.5z M28.8,112.2
		c2.5-1.1,5-4.4,5.8-7.7c0.8-3.4,0.1-6-2.7-9.8c-0.7-0.9-1.6-1.6-3.1-2.3c-1.9-0.9-2.4-1-4.8-1c-2.4,0-2.8,0.1-4.8,1.1
		c-1.7,0.9-2.4,1.5-3.4,3c-0.7,1-1.6,2.6-1.9,3.5c-1.8,5.3,1.1,11.7,6.3,13.8C22.2,113.4,26.4,113.2,28.8,112.2z M16.7,103.6
		c0-2.4,0.1-4.7,0.3-5.1c0.7-1.9,4.3-2.8,6-1.4c0.4,0.4,1,1.1,1.2,1.7l0.4,1.1l1.2-1.1c0.6-0.6,1.9-1.5,2.9-2.1
		c0.9-0.5,1.8-1.1,1.9-1.3c0.4-0.7,0.8-0.2,0.7,1.1l0,1.3l-3,1.9c-3.2,2-3.5,2.5-3.5,4.7l0,1.4l3.3,0l3.3,0l-0.1,0.9l-0.1,0.9
		l-7.2,0.1l-7.2,0.1L16.7,103.6z M22.9,103.1c0-2.3-0.1-2.9-0.6-3.6c-1.3-1.7-3.5-0.7-3.8,1.7c-0.1,1-0.1,4,0.1,4.6
		c0,0,1,0.1,2.2,0.1l2.2,0L22.9,103.1z"/>
	<circle id="path84" class="st3" cx="157.5" cy="594" r="87.3"/>
	<circle id="circle86" class="st3" cx="157.2" cy="-26.8" r="87.3"/>
	<circle id="path88" class="st4" cx="157.5" cy="594" r="77.6"/>
	<circle id="circle90" class="st4" cx="157.2" cy="-26.8" r="77.6"/>
	<path id="rect64" class="st1" d="M1334.7,102.7l-0.1-91.1c0-15.9,12.9-28.8,28.8-28.8l80,0c15.9,0,28.8,12.9,28.8,28.8l0.1,91.1
		c0,15.9-12.9,28.8-28.8,28.8l-80,0C1347.6,131.5,1334.7,118.6,1334.7,102.7z"/>
	<rect id="rect66" x="1409.6" y="50.1" class="st2" width="291" height="15.4"/>
	<path id="rect178" class="st3" d="M1008.7,363.2h97c10.7,0,19.4,14.8,19.4,33l0,0c0,18.2-8.7,33-19.4,33h-97
		c-10.7,0-19.4-14.8-19.4-33l0,0C989.3,378,998,363.2,1008.7,363.2z"/>
	<path id="rect180" class="st3" d="M1008.7,251.7h97c10.7,0,19.4,14.8,19.4,33l0,0c0,18.2-8.7,33-19.4,33h-97
		c-10.7,0-19.4-14.8-19.4-33l0,0C989.3,266.4,998,251.7,1008.7,251.7z"/>
	<path id="rect182" class="st3" d="M1008.7,140.1h97c10.7,0,19.4,14.8,19.4,33l0,0c0,18.2-8.7,33-19.4,33h-97
		c-10.7,0-19.4-14.8-19.4-33l0,0C989.3,154.9,998,140.1,1008.7,140.1z"/>
	<path id="rect184" class="st3" d="M387.9,140.1h97c10.7,0,19.4,14.8,19.4,33l0,0c0,18.2-8.7,33-19.4,33h-97
		c-10.7,0-19.4-14.8-19.4-33l0,0C368.5,154.9,377.2,140.1,387.9,140.1z"/>
	<path id="rect186" class="st3" d="M387.9,251.7h97c10.7,0,19.4,14.8,19.4,33l0,0c0,18.2-8.7,33-19.4,33h-97
		c-10.7,0-19.4-14.8-19.4-33l0,0C368.5,266.4,377.2,251.7,387.9,251.7z"/>
	<path id="rect188" class="st3" d="M387.9,363.2h97c10.7,0,19.4,14.8,19.4,33l0,0c0,18.2-8.7,33-19.4,33h-97
		c-10.7,0-19.4-14.8-19.4-33l0,0C368.5,378,377.2,363.2,387.9,363.2z"/>
	<rect id="rect68" x="484.9" y="21.8" class="st4" width="523.8" height="523.8"/>
	<rect id="rect70" x="492.6" y="31.5" class="st5" width="506.3" height="506.3"/>
	<rect id="rect72" x="493.7" y="33.4" class="st4" width="502.5" height="502.5"/>
	<circle id="path74" class="st6" cx="743.9" cy="285.6" r="221.2"/>
	<rect id="rect82" x="542.2" y="181.5" class="st4" width="138" height="11.6"/>
	<rect id="rect84" x="672.5" y="68.6" class="st4" width="11.6" height="124.5"/>
	<rect id="rect86" x="672.2" y="155.3" class="st4" width="119.3" height="11.6"/>
	<rect id="rect88" x="791.5" y="155.3" class="st4" width="11.6" height="65.6"/>
	<rect id="rect90" x="791.5" y="209.3" class="st4" width="96.5" height="11.6"/>
	<rect id="rect92" x="880.2" y="110.5" class="st4" width="11.6" height="110.4"/>
	<rect id="rect94" x="880.2" y="203.3" class="st4" width="75.2" height="17.6"/>
	<rect id="rect96" x="531.1" y="373.9" class="st4" width="149.2" height="11.6"/>
	<rect id="rect98" x="672.5" y="373.3" class="st4" width="11.6" height="127.7"/>
	<rect id="rect100" x="672.2" y="400.1" class="st4" width="119.3" height="11.6"/>
	<rect id="rect102" x="791.5" y="350" class="st4" width="11.6" height="61.8"/>
	<rect id="rect104" x="791.5" y="346.1" class="st4" width="96.5" height="11.6"/>
	<rect id="rect106" x="880.2" y="350" class="st4" width="11.6" height="112.4"/>
	<rect id="rect108" x="881.1" y="345.3" class="st4" width="75.2" height="17.6"/>
	<rect id="rect110" x="577.3" y="189.6" class="st4" width="11.6" height="98.4"/>
	<rect id="rect112" x="577.3" y="288" class="st4" width="11.6" height="92.2"/>
	<path id="path114" inkscape:connector-curvature="0" class="st4" d="M538.4,369.4c0.5,1,1,2,1.6,2.9c0.4,0.7,0.8,1.5,1,2.3
		c0.1,0.6,0.2,1.2,0.5,1.8c0.3,0.4,0.6,0.9,0.8,1.4c0.3,0.5,0.6,1,0.9,1.5c0.3,0.6,0.5,1.3,0.8,1.9c0.3,0.6,0.7,1.1,0.9,1.7
		c0.2,0.5,0.5,1,0.7,1.5c0.1,0.6,0.5,1.1,0.7,1.7c0.3,0.7,0.5,1.3,0.9,1.9c0.2,0.4,0.5,0.8,0.7,1.2l-4.7,2.7l0,0
		c-0.2-0.4-0.5-0.8-0.7-1.2c-0.4-0.6-0.7-1.3-1-2c-0.2-0.6-0.6-1.1-0.7-1.7c-0.2-0.5-0.5-1-0.7-1.5c-0.2-0.6-0.7-1.1-0.9-1.7
		c-0.2-0.6-0.5-1.2-0.8-1.8c-0.3-0.5-0.6-1-0.9-1.5c-0.2-0.5-0.6-0.9-0.8-1.4c-0.3-0.6-0.5-1.2-0.5-1.9c-0.2-0.8-0.5-1.5-0.9-2.2
		c-0.6-1-1.1-1.9-1.6-2.9L538.4,369.4L538.4,369.4z"/>
	<path id="path116" inkscape:connector-curvature="0" class="st4" d="M666.1,493.1c0.8,0.6,1.7,1.3,2.6,1.8c0.8,0.5,1.7,0.8,2.6,1.1
		c0.8,0.3,1.6,0.4,2.5,0.4c0.8-0.1,1.5,0.2,2.3,0.5c0.9,0.3,1.8,0.7,2.7,1.1c0.1,0.1,0.3,0.1,0.4,0.2c0.1,0.1,0.5,0.2,0.6,0.3
		c1.6,1.5-3.2,3.7-5.1,3.1c-0.8-0.3-1.5-0.7-2.2-1.1c-0.7-0.3-1.3-0.6-1.9-0.9c-0.6-0.4-1.2-0.8-1.8-1.2c-0.5-0.4-1.1-0.6-1.6-0.9
		c-1.6-1.7,4.1-3,4.6-3.3c0,0,0.7,0.3,0.8,0.3c0.6,0.3,1.1,0.6,1.6,1c0.5,0.2,0.9,0.6,1.4,0.9c0.5,0.3,1,0.6,1.6,0.7
		c0.6,0.3,1.2,0.5,1.8,0.7c0.5,0.4,1.4,0.3,1.7,0.8c0,0,0.1-0.1,0.1-0.1c0,0,0.7,0,0.9,0c0.1,0,0.3,0,0.4,0c0.1,0,0.1-0.1,0.2,0
		c0.2,0.2,0.4,0.5,0.1,0.7l-5,2.2l0,0c0,0,0-0.1,0-0.1c0,0,0.8,0.4,0.3,0.4c-0.2,0-0.3,0-0.5,0c-0.5,0-0.9,0-1.3-0.3
		c0,0,0.1,0.1,0.1,0.1c-0.1,0-1.3-0.5-1.6-0.6c-0.6-0.2-1.2-0.4-1.8-0.7c-0.6-0.2-1.1-0.5-1.6-0.8c-0.5-0.3-0.9-0.7-1.5-0.9
		c-0.5-0.3-1-0.6-1.5-0.9c-0.1,0-0.4-0.2-0.5-0.2c-0.1,0-0.2,0-0.2,0c3.5-2.4,4.1-3.2,4.4-2.9c0.5,0.3,1.1,0.6,1.6,1
		c0.6,0.4,1.2,0.8,1.8,1.2c0.6,0.4,1.3,0.6,1.9,0.9c0.7,0.4,1.3,0.8,2.1,1c2,0.1,0.4,0-4,3c-0.1,0-0.1-0.1-0.2-0.1
		c-0.1-0.1-0.2-0.1-0.3-0.2c-0.1-0.1-0.3-0.1-0.4-0.2c-0.9-0.4-1.7-0.8-2.7-1c-0.7-0.2-1.4-0.4-2.2-0.4c-0.9-0.1-1.7-0.2-2.5-0.5
		c-0.9-0.3-1.8-0.7-2.6-1.2c-0.9-0.6-1.8-1.3-2.7-1.9L666.1,493.1L666.1,493.1z"/>
	<path id="path118" inkscape:connector-curvature="0" class="st4" d="M896.4,452.1c-0.8,0.6-1.5,1.3-2.3,1.9c-0.5,0.4-1,0.8-1.6,1.1
		c-1.8,1.5-4,2.4-5.9,3.6c-1.5,0.9,3-1.7,4.4-2.5c-1.6,0.9-3.3,1.9-4.9,2.8c-0.1,0-0.2,0.1-0.3,0.1c-0.1,0-0.3,0.2-0.2,0.2
		c1.5-0.8,3-1.7,4.5-2.6c0,0-0.1,0.1-0.4,0.4c-1.9,1.4-4.1,2.4-6,3.6c-1.4,0.9,2.9-1.7,4.3-2.5c0.1-0.1-0.2,0.1-0.3,0.2
		c-2,1.4-4.1,2.5-6.2,3.7c11.7-6.7-0.3,0.2-0.5,0.3c-0.1,0-0.2,0-0.3,0.1c-0.3,0.1-0.4,0.3-0.7,0.4c-0.5,0.1-0.9,0.3-1.4,0.4
		l4.3-3.3l0,0c0.5-0.2,0.9-0.3,1.3-0.5c5.4-2.9-14.3,8.2,1.4-0.8c-8.3,4.8-4.7,3-3.1,1.7c3-1.9,10-5.8,1-0.6
		c-0.4,0.2,0.4-0.3,0.7-0.4c0.1-0.1,0.2-0.1,0.3-0.1c1.9-1.7,11.5-6.6,1.3-1c1.6-0.9,3.3-1.9,4.9-2.8c1.5-0.8-2.9,1.7-4.4,2.6
		c-0.1,0,0.2-0.1,0.2-0.1c0.2-0.2,0.5-0.3,0.7-0.5c0.5-0.5,1.1-0.7,1.6-1.1c0.9-0.9-0.4,0.3,0.7-0.6c0.5-0.4,1-1,1.6-1.4
		L896.4,452.1L896.4,452.1z"/>
	<path id="path120" inkscape:connector-curvature="0" class="st4" d="M882.6,459.8c-8,5-3.7,2.2-2,0.8c1.8-1.6,3.9-2.5,6-3.7
		c0.5-0.2,0.3-0.1,0.7-0.3c0.3-0.1,0.6-0.3,0.9-0.4c0.1,0,0.4-0.2,0.3-0.1c-4.8,2.8-5.8,3.5-4.2,2.4c1.6-0.9,3.3-1.9,4.9-2.8
		c1.5-0.9-3,1.7-4.4,2.6c-0.1,0,0.1-0.1,0.2-0.1c2.1-1.2,3.6-2.5,5.7-3.1c1.7-0.8,3.9-2.1-3.8,2.2c-0.6,0.4,0.6-0.4,0.7-0.5
		c0.1-0.3,0.5,0,0.3,0.1c-0.1,0.1-0.3,0-0.4,0c-0.7,0-1.3-0.1-2,0.1c-0.5,0.1-1,0.5-1.5,0.7c1.5-0.9,3-1.7,4.4-2.6
		c0.1,0-0.1,0.1-0.2,0.2c-1.6,1-3.3,1.8-4.9,2.8c-1.4,0.9,3-1.7,4.4-2.6c0.1-0.1-0.3,0.2-0.4,0.3c-0.4,0.3-0.6,0.8-0.9,1.2
		c-0.3,0.3-0.5,0.7-0.7,1.1c-0.2-2.3-6.5,3.9-4.1,1.7c0.4-0.4,0.9-0.8,1.3-1.1c0.4-0.4,0.9-0.6,1.3-1c9.6-5.6,3.6-2.1,0.5-0.3
		c-0.1,0,0.1-0.1,0.2-0.2c1.6-0.9,3.3-1.9,4.9-2.8c1.4-0.8-5.6,3.2-4.2,2.4c0.4-0.3,0.7-0.8,1.1-1.1c0.4-0.4,0.7-0.9,1.1-1.4
		c0.3-0.2,0.5-0.5,0.8-0.7l5.1-2l0,0c-0.3,0.2-0.6,0.4-0.8,0.7c-0.5,0.3-0.7,0.9-1.1,1.4c-0.4,0.4-0.7,0.7-1.1,1.1
		c-1.3,1.7-0.4,0.6-5.1,3c-1.5,0.8,3-1.7,4.4-2.6c0.1,0-0.2,0.1-0.2,0.1c-1.6,1-3.3,1.9-4.9,2.9c-1.5,0.9,2.9-1.7,4.4-2.6
		c-0.5,0.3-0.9,0.7-1.4,0.9c-0.4,0.4-0.9,0.7-1.3,1.1c-0.4,0.6,0.1-0.1-0.3,0.4c-1.4,1.5-4.4,4.6-5.5,2.5c0-0.5,0.3-1,0.6-1.4
		c0.3-0.5,0.6-0.9,0.9-1.3c2.2-2-6.3,3.7,5.2-3.3c1.5-0.9-2.9,1.7-4.4,2.6c-0.1,0,0.1-0.1,0.2-0.1c1.6-1,3.2-1.9,4.9-2.9
		c0.5-0.3,1-0.5,1.6-0.6c0.7,0,1.4,0,2.1,0c0.5,0.1,1.3,0.5,0.7,1c-0.3,0.2-0.2,0.1-0.4,0.4c-1.8,1.3-3.8,2.4-5.9,3.3
		c-1.7,0.7-4.2,2.4,3.7-2.2c0.1,0-0.2,0.1-0.2,0.1c-1.6,0.9-3.3,1.9-4.9,2.8c-1.5,0.9,3-1.7,4.4-2.6c-2,1.3-4.1,2.5-6.3,3.5
		c-1.7,0.8-4.1,2.3,3.6-2.1c0.6-0.4-1.6,0.9-1,0.8c-0.4,0.3-0.8,0.7-1.2,1c-1.9,1.4-3.9,2.6-6,3.7L882.6,459.8L882.6,459.8z"/>
	<path id="path122" inkscape:connector-curvature="0" class="st4" d="M969.9,312.7c0.1,1.1,0.2,2.2,0.4,3.3c0.2,0.8,0.2,1.7,0.3,2.5
		c0,0.8,0,1.7,0,2.5c0,0.7,0,1.4-0.1,2.1c-0.2,0.7-0.4,1.4-0.6,2c-0.2,0.7-0.5,1.5-0.8,2.2c-0.3,0.6-0.5,1.3-0.7,1.9
		c-0.3,0.6-0.6,1.3-0.9,1.9c-0.5,0.6-0.8,1.2-1.1,1.9c-0.3,0.8-0.5,1.5-0.8,2.3c-0.2,0.6-0.4,1.1-0.6,1.7c-0.2,0.5-0.5,0.9-0.8,1.4
		c-0.2,0.5-0.5,0.9-0.8,1.4c-0.3,0.5-0.7,1-1,1.4c-0.3,0.5-0.5,1-0.7,1.6c-0.2,0.6-0.5,1.1-0.7,1.8c-0.2,0.6-0.3,1.2-0.5,1.8
		c-0.2,0.6-0.3,1.2-0.3,1.8c0,0.9,0,1.8-0.1,2.7c-0.1,0.9-0.5,1.7-0.8,2.6c-0.2,0.7-0.3,1.4-0.3,2c0,0.6-0.2,1.2-0.4,1.8
		c-0.3,0.6-0.5,1.3-0.8,2c-0.3,0.6-0.5,1.3-0.9,1.9c-0.3,0.5-0.4,1.1-0.5,1.7c0,0.7-0.1,1.3-0.2,2c-0.1,0.6-0.4,1.2-0.6,1.8
		c-0.2,0.6-0.4,1.2-0.7,1.7c-0.2,1.8-6.2,4.7-5.1,2.6c0.3-0.5,0.5-0.9,0.9-1.3c0.4-0.4,0.6-0.9,0.7-1.4c0.2-0.6,0.3-1.2,0.4-1.8
		c0-0.7,0.3-1.3,0.5-2c0.2-0.6,0.2-1.3,0.4-1.9c0.1-0.7,0.3-1.4,0.5-2c0.1-0.8,0.2-1.6,0.4-2.4c0.1-0.7,0.1-1.5,0.2-2.2
		c0-0.7,0-1.4,0.1-2.1c0.1-0.6,0.2-1.2,0.3-1.9c0.1-0.1,0.2-1.1,0.2-1.1c5-2.6,4.3-4.1,5.1-2.1c0.2,0.7,0.1,1.5,0.2,2.3
		c0,0.7,0,1.4-0.3,2c-0.3,0.6-0.5,1.1-0.7,1.8c-0.1,0.7-0.2,1.4-0.4,2.2c-0.1,0.7-0.3,1.4-0.5,2.1c-0.3,0.6-0.5,1.3-0.8,1.9
		c-0.4,0.6-0.7,1.1-1.2,1.6c-0.4,0.5-0.6,1-0.9,1.5c-0.3,0.5-0.6,1.1-0.9,1.7c-0.3,0.6-0.7,1.1-1,1.7c-0.2,0.3-0.1,0.6-0.1,0.9
		l-4.8,2.6l0,0c-0.1-0.4-0.2-0.8-0.1-1.2c0.3-0.6,0.7-1.1,1-1.7c0.3-0.5,0.6-1.1,0.9-1.7c0.3-0.5,0.6-1,0.9-1.6
		c0.4-0.5,0.8-1,1.2-1.6c0.4-0.5,0.6-1.2,0.9-1.7c0.2-0.7,0.4-1.3,0.5-2c0.1-0.7,0.3-1.4,0.3-2.2c0.1-0.7,0.3-1.3,0.6-1.9
		c0.3-0.7,0.4-1,0.4-1.8c0-0.7,0-1.4-0.1-2.1c-0.4-1.9-0.1-0.1,4.7-2.8c0,0-0.1,0-0.1,0.1c-0.2,0.3-0.1,0.6-0.2,0.9
		c-0.1,0.6-0.3,1.2-0.4,1.8c-0.1,0.7-0.3,1.3-0.2,2c0,0.8,0,1.5-0.1,2.3c-0.1,0.8-0.3,1.6-0.4,2.4c-0.1,0.7-0.3,1.4-0.5,2.1
		c-0.2,0.7-0.2,1.3-0.3,2c-0.2,0.6-0.6,1.2-0.6,1.9c-0.1,0.6-0.1,1.2-0.4,1.8c-0.1,0.6-0.2,1.2-0.6,1.6c-0.3,0.5-0.7,0.8-0.9,1.3
		c-1.4,1.6-0.3,0.4-5.2,2.6c0,0,0-0.1,0-0.1c0.1-0.1,0.3-0.1,0.3-0.3c0-0.1,0.1-0.2,0.1-0.3c0.2-0.6,0.4-1.2,0.7-1.7
		c0.2-0.6,0.4-1.2,0.6-1.7c0.1-0.6,0.3-1.3,0.3-1.9c0-0.7,0.1-1.3,0.4-1.9c0.4-0.6,0.7-1.2,0.9-1.8c0.3-0.6,0.5-1.3,0.8-1.9
		c0.2-0.6,0.4-1.1,0.5-1.6c0-0.7,0-1.5,0.2-2.2c0.3-0.8,0.7-1.6,0.8-2.5c0.1-0.9,0-1.8,0.1-2.6c0-0.7,0.1-1.3,0.3-2
		c0.2-0.6,0.3-1.2,0.6-1.7c0.1-0.7,0.3-1.3,0.6-1.8c0.1-0.3,0.2-0.6,0.3-0.8c0.3-0.7,0,0.2,0.3-0.5c0-0.1,0.1-0.2,0.1-0.3
		c0.3-0.5,0.7-0.9,1-1.4c0.2-0.5,0.6-0.9,0.8-1.4c0.3-0.5,0.6-0.9,0.8-1.4c0.3-0.5,0.4-1.1,0.6-1.7c0.3-0.7,0.6-1.5,0.8-2.3
		c0.3-0.7,0.5-1.4,1-2c0.4-0.5,0.6-1.2,1-1.8c0.3-0.6,0.4-1.3,0.7-1.9c0.4-0.7,0.5-1.4,0.9-2.1c0.2-0.7,0.4-1.3,0.7-2
		c0.1-0.7,0.3-1.3,0.2-2.1c0-0.8,0-1.7,0-2.5c0-0.8-0.1-1.6-0.2-2.4c-0.2-1.1-0.4-2.2-0.5-3.4L969.9,312.7L969.9,312.7z"/>
	<path id="path124" inkscape:connector-curvature="0" class="st4" d="M951.6,195.3c0.4,1.1,1,2.1,1.4,3.1c0.3,0.8,0.6,1.5,1,2.3
		c0.2,0.7,0.5,1.3,0.7,2c0.1,0.6,0.3,1.2,0.6,1.7c0.3,0.6,0.6,1.2,0.9,1.8c0.4,0.6,0.6,1.2,0.9,1.8c0.3,0.7,0.5,1.4,0.7,2.2
		c0.2,0.6,0.3,1.2,0.4,1.8c0.2,0.6,0.3,1.2,0.4,1.9c0.1,0.6,0.4,1.2,0.6,1.7c0.2,0.5,0.5,1.1,0.7,1.6c0.4,0.7,0.6,1.4,0.7,2.1
		c0,0.6,0.3,1.1,0.6,1.7c0.3,0.5,0.5,1.1,0.6,1.7c0.1,0.3,0.1,0.6,0.4,0.9l-4.7,2.8l0,0c-0.3-0.4-0.4-0.7-0.5-1.2
		c-0.1-0.6-0.2-1.1-0.5-1.6c-0.2-0.6-0.6-1.1-0.6-1.8c-0.1-0.7-0.3-1.4-0.6-2c-0.2-0.5-0.5-1.1-0.7-1.6c-0.3-0.6-0.5-1.2-0.7-1.8
		c-0.2-0.6-0.3-1.2-0.5-1.8c-0.2-0.6-0.2-1.3-0.4-1.9c-0.1-0.7-0.3-1.4-0.6-2.1c-0.2-0.6-0.5-1.2-0.8-1.8c-0.3-0.6-0.5-1.2-0.9-1.8
		c-0.3-0.6-0.6-1.2-0.7-1.8c-0.2-0.7-0.4-1.3-0.6-1.9c-0.3-0.8-0.7-1.5-1-2.3c-0.4-1.1-0.9-2.1-1.4-3.1L951.6,195.3L951.6,195.3z"/>
	<path id="path130" inkscape:connector-curvature="0" class="st4" d="M883.9,103.4c0.8,0.7,1.6,1.5,2.2,2.3c0.5,0.6,1,1.2,1.4,1.8
		c0.3,0.6,0.5,1.2,0.7,1.8c0.2,0.7,0.6,1.3,0.9,2c0.4,0.7,0.8,1.3,1.4,1.9c0.6,0.6,1.1,1.2,1.6,1.8c1.3,1.5,0.3,0.3-4.7,2.8
		c-0.1,0-0.1-0.2-0.1-0.2c-0.1-0.3-0.3-0.6-0.4-0.8c-0.4-0.6-0.8-1.2-1.3-1.8c-0.4-0.6-0.8-1.1-1.4-1.5c-0.7-0.3-1.3-0.8-1.9-1.1
		c-3.5-1.2-2.8-0.2,2.6-3.6c0.5,0.3,1,0.7,1.4,1c0.6,0.4,1.3,0.7,2,1.1c0.7,0.4,1.3,0.7,1.9,1.2c0.5,0.3,1.1,0.8,1.4,1.4
		c0.5,2.1,0.2,0.5-5,2.8c-0.1,0.1-1.1-0.7-1.3-0.8c-0.6-0.4-1-1-1.4-1.5c-0.4-0.5-0.8-1-1.2-1.4c-0.3-0.3-0.5-0.8-0.8-1.2l4.7-2.8
		l0,0c0.2,0.4,0.5,0.7,0.8,1.1c0.4,0.5,0.9,0.9,1.3,1.5c0.4,0.5,0.8,1,1.4,1.4c0.3,0.2,0.6,0.4,0.9,0.6c0.1,0.1,0.4,0.1,0.3,0.1
		c-4.3,3-5.8,1.5-4.3,2.9c0-0.3-0.9-0.9-1.2-1.1c-0.6-0.4-1.2-0.8-1.8-1.1c-0.7-0.4-1.4-0.7-2.1-1.1c-0.5-0.3-1-0.6-1.4-0.9
		c4.8-3.3,3-3.6,6.5-2.4c0.7,0.4,1.4,0.8,2,1.2c0.5,0.5,1,1,1.4,1.6c0.5,0.6,0.9,1.3,1.3,1.9c1.4,2.4,0.4,1.4-4.1,3.9
		c0,0,0-0.1-0.1-0.1c-0.5-0.6-1-1.2-1.6-1.8c-0.6-0.6-1-1.3-1.4-2c-0.4-0.6-0.7-1.3-0.9-2c-0.3-0.6-0.4-1.1-0.7-1.7
		c-0.4-0.6-0.9-1.3-1.4-1.8c-0.7-0.8-1.4-1.5-2.2-2.2L883.9,103.4L883.9,103.4z"/>
	<path id="path132" inkscape:connector-curvature="0" class="st4" d="M532.4,195.3c0.2-1.1,0.5-2.1,0.8-3.1c0.2-0.7,0.5-1.4,0.7-2
		c0.2-0.7,0.2-1.4,0.3-2.1c0.1-0.8,0.3-1.5,0.5-2.2c0.1-0.7,0.2-1.4,0.4-2c0.2-0.6,0.6-1,1.1-1.4c2.3-1.7,4.8-3.2,7.6-3.8
		c1-0.2,1.7-0.2,2.5,0.3c0.7,0.5,1.3,1,1.6,1.8c0.3,0.7,0.2,1.3,0.1,2c-0.2,0.5-0.5,1-0.7,1.6c-0.2,0.6-0.3,1.1-0.6,1.7
		c-0.3,0.5-0.5,0.9-0.7,1.5c-0.1,0.6-0.4,1.2-0.6,1.8c-0.2,0.5-0.5,1-0.8,1.5c-0.2,0.5-0.5,0.9-0.8,1.4c-0.3,0.5-0.5,0.9-0.8,1.4
		c-0.3,0.4-0.6,0.8-0.9,1.3l-5,2.2l0,0c0.3-0.5,0.6-0.9,0.9-1.3c0.4-0.4,0.5-0.9,0.8-1.3c0.2-0.5,0.6-0.9,0.8-1.4
		c0.3-0.5,0.6-1,0.9-1.5c0.3-0.5,0.5-1.1,0.7-1.7c0.1-0.6,0.2-1.2,0.6-1.6c0.2-0.5,0.5-1,0.6-1.6c0.1-0.6,0.4-1,0.6-1.6
		c0.3-0.5,0.3-1.1,0.1-1.7c-0.3-0.7-0.8-1.1-1.4-1.5c-0.7-0.3-1.5-0.2-2.3,0c-0.6,0.2-0.5,0.1-1.1,0.4c-0.2,0.1-0.7,0.3-0.6,0.2
		c7.2-4.5,5-2.9,3.4-2.1c-0.3,0.3-0.2,0.2-0.5,0.4c-0.1,0-0.2,0.1-0.2,0.1c-0.2,0.2-0.3,0.4-0.4,0.6c-0.4,0.6-0.3,1.3-0.4,1.9
		c-0.1,0.7-0.4,1.4-0.5,2.2c-0.1,0.7-0.1,1.5-0.2,2.2c-0.2,0.7-0.5,1.3-0.8,2c-0.2,1.1-0.6,2.1-0.8,3.1L532.4,195.3L532.4,195.3z"/>
	<path id="path136" inkscape:connector-curvature="0" class="st4" d="M657.3,75.5c1.8,0,3.5,0,5.3,0c1.4,0.1,2.7-0.2,4-0.5
		c0.9-0.1,1.7-0.4,2.5-0.7c0.7-0.1,1.2-0.6,1.8-0.8c-1.5,0.8-5.9,3.5-4.4,2.5c1.6-1,3.3-1.9,4.9-2.8c0.1,0,0.4-0.1,0.3-0.1
		c-1.5,0.9-5.9,3.4-4.4,2.5c4.2-2.6,3.2-2.2,5.2-2.9c2-1.4-6.1,3.5-3.9,2.2c2.3-1.3,3.4-2.6,5.6-3c0.7-0.3,1.4-0.4,2.1-0.4
		c0.5-0.1,1,0,1.5,0c0.2,0,0.4-0.1,0.6-0.2c0.6-0.2,1.3-0.1,1.9-0.3c2.9-0.7,1.7-0.6-3.4,2.9c-0.7,0.1-1.4,0.2-1.9,0.6
		c-0.1,0-0.2,0.1-0.3,0.1c1.5-0.8,2.9-1.7,4.4-2.5c0.1,0-0.1,0.1-0.2,0.2c-0.2,0.2-0.4,0.3-0.6,0.5c-0.5,0.3-0.9,0.6-1.3,1
		c-1.7,1.2-3.4,2-5.4,3.2c-0.2,0.1-0.5,0.2-0.7,0.1c-0.3-0.2-0.5-0.6-0.2-0.9c4.8-2.8,3-2.5,5.1-2.9c0.5-0.4,1.1-0.3,1.6-0.5
		c0.4-0.2,0.8-0.2,1.2-0.3c0.2,0,0.4-0.1,0.5-0.2c0.6-0.1,1.1-0.5,1.7-0.7c0.1-0.1,0.2-0.1,0.3-0.2c0.8-0.4-0.1,0.1,0.6-0.3
		c0.1-0.1,0.4-0.2,0.3-0.2c-4.6,2.6-5.8,3.5-4.2,2.4c0.2-0.1,0.4-0.3,0.6-0.5l5-2.1l0,0c-0.2,0.2-0.4,0.4-0.6,0.6
		c-2,1.3-4.1,2.6-6.3,3.6c-0.6,0.3-1.2,0.5-1.8,0.7c-0.6,0.2-1.2,0.2-1.8,0.5c-0.6,0.1-1.1,0.3-1.6,0.5c-1.8,0.9,0.2-0.1,4.3-2.5
		c0,0-0.1,0-0.2,0c0,0,0,0.1-0.1,0.1c-0.3-0.3-0.3-0.3-0.3-0.5c0.2-0.2,0,0,0.3-0.2c0.1,0,0.4-0.2,0.3-0.1c-8.1,4.8-5.3,3.4-3.9,2.2
		c0.5-0.3,0.9-0.6,1.3-1c0.4-0.2,0.5-0.5,0.9-0.7c4.7-2.8,3.2-2,5.2-3c0.7-0.2,1.4-0.4,2.1-0.3c-3.9,3.1-2.7,3-5.4,3.5
		c-0.6,0.1-1.3,0.1-1.9,0.3c-0.7,0.1-1.4,0.1-2.1,0.1c-0.7,0.1-1.4,0.3-2.1,0.5c-0.2,0.1-0.8,0.4-0.6,0.3c9.5-5.6,1.6-0.8-1,0.6
		c-2.3,1.3,10.5-5.7,4.2-2.4c-1.7,0.9-3.3,1.9-4.9,2.8c-3.8,2.2,15.7-9-0.7,0.4c-0.6,0.3-1.2,0.6-1.9,0.8c-0.8,0.3-1.7,0.5-2.5,0.6
		c-1.3,0.3-2.6,0.4-4,0.4c-1.8,0-3.6,0-5.4,0L657.3,75.5L657.3,75.5z"/>
	<g class="st7">
		<path d="M1760.6,21.5c0,0.6,0,1.2-0.1,1.7s-0.2,0.9-0.3,1.2c-0.1,0.3-0.3,0.5-0.5,0.7c-0.2,0.1-0.4,0.2-0.6,0.2
			c-0.4,0-1.1-0.3-2-0.9c-0.9-0.6-2.2-1.3-3.7-2.1c-1.5-0.8-3.4-1.5-5.6-2.1c-2.2-0.6-4.7-0.9-7.7-0.9c-3.5,0-6.7,0.6-9.5,1.9
			c-2.8,1.3-5.2,3.1-7.1,5.3c-1.9,2.3-3.4,5-4.5,8.1c-1,3.1-1.6,6.5-1.6,10.2c0,4.1,0.6,7.7,1.7,10.9s2.7,5.8,4.7,8
			c2,2.2,4.4,3.8,7.2,4.9s5.8,1.7,9.2,1.7c2,0,4-0.2,6-0.7s3.9-1.2,5.7-2.2V48.7h-14.8c-0.6,0-1-0.3-1.3-0.8
			c-0.3-0.6-0.4-1.4-0.4-2.6c0-0.6,0-1.2,0.1-1.6c0.1-0.4,0.2-0.8,0.3-1.1c0.1-0.3,0.3-0.5,0.5-0.6c0.2-0.1,0.4-0.2,0.7-0.2h20.3
			c0.4,0,0.7,0.1,1.1,0.2c0.4,0.1,0.7,0.3,1,0.6c0.3,0.3,0.5,0.6,0.7,1.1c0.2,0.5,0.2,1,0.2,1.6v24.4c0,0.9-0.1,1.6-0.4,2.2
			c-0.3,0.6-0.9,1.2-1.9,1.7c-1,0.5-2.2,1-3.7,1.6c-1.5,0.6-3.1,1-4.7,1.4c-1.6,0.4-3.2,0.7-4.9,0.9c-1.6,0.2-3.3,0.3-4.9,0.3
			c-4.9,0-9.4-0.8-13.2-2.3c-3.9-1.5-7.2-3.7-9.9-6.5c-2.7-2.8-4.7-6.2-6.2-10.2c-1.4-4-2.1-8.4-2.1-13.2c0-5.1,0.8-9.7,2.3-13.8
			c1.5-4.1,3.7-7.6,6.5-10.5c2.8-2.9,6.1-5.1,10-6.7c3.9-1.6,8.2-2.4,13-2.4c2.4,0,4.7,0.2,6.9,0.6c2.1,0.4,4,0.9,5.7,1.5
			c1.7,0.6,3.1,1.2,4.2,1.9c1.1,0.7,1.9,1.2,2.3,1.7c0.4,0.4,0.7,0.9,0.9,1.5C1760.6,19.6,1760.6,20.4,1760.6,21.5z"/>
		<path d="M1824.8,73.2c0,0.7-0.1,1.2-0.3,1.7c-0.2,0.5-0.5,0.8-0.9,1.1c-0.4,0.3-0.8,0.5-1.2,0.6c-0.4,0.1-0.9,0.2-1.3,0.2h-2.8
			c-0.9,0-1.7-0.1-2.3-0.3c-0.7-0.2-1.3-0.5-1.9-1c-0.6-0.5-1.2-1.1-1.8-2c-0.6-0.8-1.2-1.9-1.9-3.2l-19.5-36.4
			c-1-1.9-2-3.8-3.1-5.9c-1-2.1-2-4.1-2.9-6h-0.1c0.1,2.4,0.1,4.8,0.1,7.3c0,2.5,0,4.9,0,7.4v38.6c0,0.2-0.1,0.5-0.2,0.7
			c-0.1,0.2-0.4,0.4-0.7,0.5c-0.3,0.1-0.8,0.2-1.3,0.3s-1.2,0.1-2.1,0.1c-0.8,0-1.5,0-2.1-0.1c-0.5-0.1-1-0.2-1.3-0.3
			c-0.3-0.1-0.5-0.3-0.7-0.5c-0.1-0.2-0.2-0.4-0.2-0.7v-59c0-1.3,0.4-2.3,1.1-2.8c0.7-0.6,1.6-0.8,2.4-0.8h4.2c1,0,1.8,0.1,2.5,0.2
			c0.7,0.2,1.3,0.4,1.8,0.8c0.5,0.4,1,0.9,1.5,1.6c0.5,0.7,1,1.5,1.6,2.5l15,28.1c0.9,1.7,1.8,3.4,2.7,5c0.9,1.6,1.7,3.2,2.5,4.8
			s1.6,3.1,2.4,4.7c0.8,1.5,1.6,3.1,2.3,4.6h0c-0.1-2.6-0.1-5.3-0.1-8.1c0-2.8,0-5.5,0-8.1V14.2c0-0.2,0.1-0.4,0.2-0.6
			c0.1-0.2,0.4-0.4,0.7-0.5c0.3-0.1,0.8-0.3,1.3-0.3c0.5-0.1,1.2-0.1,2.1-0.1c0.8,0,1.4,0,2,0.1c0.6,0.1,1,0.2,1.3,0.3
			c0.3,0.1,0.5,0.3,0.7,0.5c0.1,0.2,0.2,0.4,0.2,0.6V73.2z"/>
		<path d="M1891,43.8c0,5.5-0.7,10.4-2.1,14.5c-1.4,4.1-3.5,7.6-6.2,10.3c-2.7,2.7-6.1,4.8-10,6.1c-4,1.4-8.7,2-14.1,2H1845
			c-0.8,0-1.5-0.3-2.2-0.8c-0.7-0.5-1-1.4-1-2.7v-57c0-1.3,0.3-2.2,1-2.7c0.7-0.5,1.4-0.8,2.2-0.8h14.5c5.5,0,10.2,0.7,14,2.1
			c3.8,1.4,7,3.5,9.6,6.2c2.6,2.7,4.5,5.9,5.9,9.8S1891,39,1891,43.8z M1882,44.1c0-3.5-0.4-6.7-1.3-9.7c-0.9-3-2.2-5.6-4-7.7
			c-1.8-2.2-4.1-3.9-6.9-5.1s-6.4-1.8-10.8-1.8h-8.6v49.8h8.7c4.1,0,7.5-0.5,10.3-1.5c2.8-1,5.1-2.6,7-4.7c1.9-2.1,3.3-4.8,4.2-7.9
			C1881.5,52.3,1882,48.5,1882,44.1z"/>
	</g>
	<g class="st7">
		<path d="M1755.2,227.9c0,0.3,0,0.5-0.1,0.7c-0.1,0.2-0.3,0.4-0.6,0.5c-0.3,0.1-0.8,0.2-1.4,0.3c-0.6,0.1-1.4,0.1-2.4,0.1
			c-0.9,0-1.6,0-2.1-0.1c-0.5-0.1-1-0.2-1.3-0.3c-0.3-0.1-0.6-0.4-0.8-0.6c-0.2-0.3-0.3-0.6-0.5-1l-5.9-15.1
			c-0.7-1.7-1.4-3.3-2.2-4.7c-0.7-1.4-1.6-2.7-2.6-3.7s-2.2-1.8-3.6-2.4c-1.4-0.6-3-0.9-5-0.9h-5.7v27.2c0,0.3-0.1,0.5-0.2,0.7
			c-0.1,0.2-0.4,0.4-0.7,0.5c-0.3,0.1-0.7,0.2-1.3,0.3c-0.5,0.1-1.2,0.1-2.1,0.1c-0.8,0-1.5,0-2.1-0.1s-1-0.2-1.3-0.3
			c-0.3-0.1-0.6-0.3-0.7-0.5c-0.1-0.2-0.2-0.4-0.2-0.7v-59.2c0-1.3,0.3-2.2,1-2.7c0.7-0.5,1.4-0.8,2.2-0.8h13.6c1.6,0,3,0,4,0.1
			c1.1,0.1,2,0.2,2.9,0.3c2.5,0.4,4.7,1.1,6.5,2c1.9,0.9,3.5,2.1,4.8,3.5c1.3,1.4,2.2,3,2.9,4.9c0.6,1.8,1,3.8,1,6.1
			c0,2.1-0.3,4.1-0.9,5.8c-0.6,1.7-1.4,3.2-2.5,4.5c-1.1,1.3-2.4,2.4-3.9,3.4c-1.5,1-3.2,1.8-5.1,2.4c1.1,0.5,2,1,2.9,1.8
			c0.9,0.7,1.7,1.6,2.4,2.5c0.7,1,1.4,2.1,2.1,3.4c0.7,1.3,1.3,2.7,2,4.3l5.7,14.1c0.5,1.2,0.8,2,0.9,2.5
			C1755.2,227.3,1755.2,227.7,1755.2,227.9z M1742.4,183c0-2.5-0.6-4.6-1.7-6.4c-1.1-1.7-3-3-5.6-3.7c-0.8-0.2-1.8-0.4-2.8-0.5
			c-1-0.1-2.4-0.1-4.1-0.1h-7.2v21.5h8.3c2.2,0,4.2-0.3,5.8-0.8s3-1.3,4.1-2.3c1.1-1,1.9-2.1,2.4-3.4S1742.4,184.6,1742.4,183z"/>
		<path d="M1805.9,205.3c0,3.6-0.5,7-1.4,10c-1,3-2.4,5.7-4.3,7.9c-1.9,2.2-4.3,3.9-7.1,5.2c-2.9,1.2-6.2,1.9-9.9,1.9
			c-3.7,0-6.8-0.5-9.6-1.6c-2.7-1.1-5-2.7-6.8-4.7c-1.8-2.1-3.2-4.6-4.1-7.6c-0.9-3-1.3-6.3-1.3-10.1c0-3.6,0.5-7,1.4-10
			c0.9-3,2.4-5.7,4.3-7.9c1.9-2.2,4.3-3.9,7.1-5.1c2.8-1.2,6.1-1.8,9.9-1.8c3.7,0,6.8,0.5,9.6,1.6c2.7,1.1,5,2.7,6.8,4.7
			c1.8,2.1,3.2,4.6,4.1,7.6S1805.9,201.5,1805.9,205.3z M1797.5,205.8c0-2.4-0.2-4.7-0.7-6.8c-0.4-2.1-1.2-4-2.2-5.6
			c-1-1.6-2.4-2.9-4.2-3.8c-1.8-0.9-4-1.4-6.6-1.4c-2.4,0-4.5,0.4-6.3,1.3c-1.7,0.9-3.2,2.1-4.3,3.6c-1.1,1.6-2,3.4-2.5,5.6
			c-0.5,2.1-0.8,4.5-0.8,7c0,2.4,0.2,4.7,0.7,6.9s1.2,4,2.2,5.6c1,1.6,2.5,2.9,4.2,3.8c1.8,0.9,4,1.4,6.6,1.4c2.4,0,4.5-0.4,6.2-1.3
			c1.8-0.9,3.2-2.1,4.3-3.6c1.1-1.5,2-3.4,2.5-5.5C1797.2,210.7,1797.5,208.4,1797.5,205.8z"/>
		<path d="M1841,224.7c0,1-0.1,1.7-0.2,2.3c-0.1,0.6-0.3,1-0.6,1.2s-0.7,0.5-1.2,0.7c-0.5,0.2-1.1,0.4-1.8,0.6
			c-0.7,0.1-1.4,0.3-2.2,0.4c-0.8,0.1-1.5,0.1-2.3,0.1c-2.3,0-4.3-0.3-5.9-0.9s-3-1.5-4.1-2.8c-1.1-1.2-1.8-2.8-2.3-4.7
			c-0.5-1.9-0.7-4.1-0.7-6.7v-26h-6.2c-0.5,0-0.9-0.3-1.2-0.8c-0.3-0.5-0.4-1.4-0.4-2.6c0-0.6,0-1.2,0.1-1.6
			c0.1-0.4,0.2-0.8,0.3-1.1c0.1-0.3,0.3-0.5,0.5-0.6c0.2-0.1,0.5-0.2,0.7-0.2h6.2v-10.6c0-0.2,0.1-0.4,0.2-0.6
			c0.1-0.2,0.3-0.4,0.6-0.5c0.3-0.1,0.7-0.3,1.3-0.3c0.5-0.1,1.2-0.1,2-0.1c0.8,0,1.5,0,2,0.1c0.5,0.1,0.9,0.2,1.2,0.3
			s0.5,0.3,0.6,0.5c0.1,0.2,0.2,0.4,0.2,0.6v10.6h11.4c0.3,0,0.5,0.1,0.7,0.2c0.2,0.1,0.4,0.3,0.5,0.6c0.1,0.3,0.3,0.6,0.3,1.1
			c0.1,0.4,0.1,1,0.1,1.6c0,1.2-0.1,2-0.4,2.6c-0.3,0.5-0.7,0.8-1.2,0.8H1828v24.8c0,3.1,0.5,5.4,1.4,6.9c0.9,1.6,2.5,2.3,4.9,2.3
			c0.8,0,1.4-0.1,2-0.2s1.1-0.3,1.6-0.5c0.5-0.2,0.9-0.3,1.2-0.5s0.6-0.2,0.9-0.2c0.2,0,0.3,0,0.5,0.1c0.1,0.1,0.3,0.2,0.3,0.5
			s0.2,0.5,0.2,0.9C1841,223.6,1841,224.1,1841,224.7z"/>
	</g>
	<g class="st7">
		<path d="M1760.6,324.2c0,0.6,0,1.2-0.1,1.7s-0.2,0.9-0.3,1.2c-0.1,0.3-0.3,0.5-0.5,0.7c-0.2,0.1-0.4,0.2-0.6,0.2
			c-0.4,0-1.1-0.3-2-0.9c-0.9-0.6-2.2-1.3-3.7-2.1c-1.5-0.8-3.4-1.5-5.6-2.1c-2.2-0.6-4.7-0.9-7.7-0.9c-3.5,0-6.7,0.6-9.5,1.9
			c-2.8,1.3-5.2,3.1-7.1,5.3c-1.9,2.3-3.4,5-4.5,8.1c-1,3.1-1.6,6.5-1.6,10.2c0,4.1,0.6,7.7,1.7,10.9s2.7,5.8,4.7,8
			c2,2.2,4.4,3.8,7.2,4.9s5.8,1.7,9.2,1.7c2,0,4-0.2,6-0.7s3.9-1.2,5.7-2.2v-18.6h-14.8c-0.6,0-1-0.3-1.3-0.8
			c-0.3-0.6-0.4-1.4-0.4-2.6c0-0.6,0-1.2,0.1-1.6c0.1-0.4,0.2-0.8,0.3-1.1c0.1-0.3,0.3-0.5,0.5-0.6c0.2-0.1,0.4-0.2,0.7-0.2h20.3
			c0.4,0,0.7,0.1,1.1,0.2c0.4,0.1,0.7,0.3,1,0.6c0.3,0.3,0.5,0.6,0.7,1.1c0.2,0.5,0.2,1,0.2,1.6v24.4c0,0.9-0.1,1.6-0.4,2.2
			c-0.3,0.6-0.9,1.2-1.9,1.7c-1,0.5-2.2,1-3.7,1.6c-1.5,0.6-3.1,1-4.7,1.4c-1.6,0.4-3.2,0.7-4.9,0.9c-1.6,0.2-3.3,0.3-4.9,0.3
			c-4.9,0-9.4-0.8-13.2-2.3c-3.9-1.5-7.2-3.7-9.9-6.5c-2.7-2.8-4.7-6.2-6.2-10.2c-1.4-4-2.1-8.4-2.1-13.2c0-5.1,0.8-9.7,2.3-13.8
			c1.5-4.1,3.7-7.6,6.5-10.5c2.8-2.9,6.1-5.1,10-6.7c3.9-1.6,8.2-2.4,13-2.4c2.4,0,4.7,0.2,6.9,0.6c2.1,0.4,4,0.9,5.7,1.5
			c1.7,0.6,3.1,1.2,4.2,1.9c1.1,0.7,1.9,1.2,2.3,1.7c0.4,0.4,0.7,0.9,0.9,1.5C1760.6,322.4,1760.6,323.2,1760.6,324.2z"/>
		<path d="M1801.5,336.7c0,0.7,0,1.3,0,1.8c0,0.5-0.1,0.9-0.2,1.2c-0.1,0.3-0.2,0.5-0.4,0.6c-0.1,0.1-0.4,0.2-0.6,0.2
			s-0.6-0.1-1-0.2c-0.4-0.1-0.8-0.3-1.3-0.4c-0.5-0.1-1-0.3-1.6-0.4c-0.6-0.1-1.2-0.2-1.9-0.2c-0.8,0-1.6,0.2-2.4,0.5
			c-0.8,0.3-1.6,0.9-2.5,1.6c-0.9,0.8-1.8,1.8-2.7,3c-1,1.3-2,2.8-3.2,4.6v29.3c0,0.3-0.1,0.5-0.2,0.7c-0.1,0.2-0.3,0.3-0.6,0.5
			c-0.3,0.1-0.7,0.2-1.2,0.3c-0.5,0.1-1.2,0.1-2,0.1c-0.8,0-1.5,0-2-0.1c-0.5-0.1-0.9-0.2-1.3-0.3c-0.3-0.1-0.5-0.3-0.6-0.5
			c-0.1-0.2-0.2-0.4-0.2-0.7v-44.5c0-0.3,0-0.5,0.1-0.7c0.1-0.2,0.3-0.3,0.6-0.5c0.3-0.1,0.7-0.2,1.1-0.3c0.5,0,1.1-0.1,1.8-0.1
			c0.7,0,1.3,0,1.8,0.1c0.5,0,0.8,0.1,1.1,0.3c0.3,0.1,0.5,0.3,0.6,0.5c0.1,0.2,0.2,0.4,0.2,0.7v6.5c1.2-1.8,2.4-3.2,3.4-4.3
			c1.1-1.1,2.1-2,3-2.6c1-0.6,1.9-1.1,2.8-1.3c0.9-0.2,1.9-0.4,2.8-0.4c0.4,0,0.9,0,1.5,0.1c0.5,0,1.1,0.1,1.7,0.3
			c0.6,0.1,1.1,0.3,1.6,0.4c0.5,0.2,0.8,0.3,1,0.5c0.2,0.2,0.3,0.3,0.4,0.5c0.1,0.1,0.1,0.3,0.2,0.6s0.1,0.6,0.1,1
			C1801.5,335.3,1801.5,335.9,1801.5,336.7z"/>
		<path d="M1848.9,378.2c0,0.3-0.1,0.5-0.2,0.7c-0.1,0.2-0.3,0.3-0.6,0.5c-0.3,0.1-0.7,0.2-1.2,0.3c-0.5,0.1-1.1,0.1-1.8,0.1
			c-0.8,0-1.4,0-1.9-0.1s-0.9-0.2-1.1-0.3c-0.3-0.1-0.5-0.3-0.6-0.5c-0.1-0.2-0.1-0.4-0.1-0.7v-5.9c-2.5,2.8-5,4.8-7.5,6.1
			c-2.5,1.3-5,1.9-7.5,1.9c-3,0-5.5-0.5-7.5-1.5s-3.7-2.3-4.9-4s-2.1-3.7-2.7-5.9s-0.8-5-0.8-8.2v-27c0-0.3,0.1-0.5,0.2-0.7
			c0.1-0.2,0.3-0.3,0.7-0.5c0.3-0.1,0.8-0.2,1.3-0.3c0.5,0,1.2-0.1,2-0.1c0.8,0,1.4,0,2,0.1c0.5,0,0.9,0.1,1.3,0.3
			c0.3,0.1,0.5,0.3,0.7,0.5c0.1,0.2,0.2,0.4,0.2,0.7v25.9c0,2.6,0.2,4.7,0.6,6.3c0.4,1.6,1,2.9,1.7,4c0.8,1.1,1.8,2,2.9,2.6
			c1.2,0.6,2.6,0.9,4.2,0.9c2,0,4.1-0.7,6.1-2.2c2-1.4,4.2-3.6,6.5-6.4v-31.1c0-0.3,0.1-0.5,0.2-0.7c0.1-0.2,0.3-0.3,0.7-0.5
			c0.3-0.1,0.7-0.2,1.3-0.3c0.5,0,1.2-0.1,2-0.1c0.8,0,1.4,0,2,0.1c0.5,0,0.9,0.1,1.2,0.3c0.3,0.1,0.5,0.3,0.7,0.5
			c0.1,0.2,0.2,0.4,0.2,0.7V378.2z M1825.7,319.3c0,1.8-0.3,3-1,3.7c-0.7,0.7-1.9,1-3.7,1s-3-0.3-3.6-1s-0.9-1.8-0.9-3.6
			c0-1.8,0.3-3.1,1-3.8c0.6-0.7,1.9-1,3.6-1c1.8,0,3,0.3,3.7,1C1825.4,316.4,1825.7,317.6,1825.7,319.3z M1843.2,319.3
			c0,1.8-0.3,3-1,3.7s-1.9,1-3.7,1s-3-0.3-3.6-1c-0.6-0.6-0.9-1.8-0.9-3.6c0-1.8,0.3-3.1,1-3.8c0.6-0.7,1.9-1,3.6-1
			c1.8,0,3,0.3,3.7,1C1842.9,316.4,1843.2,317.6,1843.2,319.3z"/>
		<path d="M1902.3,378.2c0,0.3-0.1,0.5-0.2,0.7c-0.1,0.2-0.3,0.3-0.6,0.5c-0.3,0.1-0.7,0.2-1.2,0.3c-0.5,0.1-1.2,0.1-2,0.1
			c-0.8,0-1.5,0-2-0.1s-0.9-0.2-1.2-0.3c-0.3-0.1-0.5-0.3-0.6-0.5c-0.1-0.2-0.2-0.4-0.2-0.7v-26c0-2.5-0.2-4.6-0.6-6.1
			c-0.4-1.5-1-2.9-1.7-4c-0.8-1.1-1.7-2-2.9-2.6c-1.2-0.6-2.6-0.9-4.2-0.9c-2,0-4.1,0.7-6.1,2.2c-2,1.5-4.2,3.6-6.4,6.4v31.1
			c0,0.3-0.1,0.5-0.2,0.7c-0.1,0.2-0.3,0.3-0.6,0.5c-0.3,0.1-0.7,0.2-1.2,0.3c-0.5,0.1-1.2,0.1-2,0.1c-0.8,0-1.5,0-2-0.1
			c-0.5-0.1-0.9-0.2-1.3-0.3c-0.3-0.1-0.5-0.3-0.6-0.5c-0.1-0.2-0.2-0.4-0.2-0.7v-44.5c0-0.3,0-0.5,0.1-0.7c0.1-0.2,0.3-0.3,0.6-0.5
			c0.3-0.1,0.7-0.2,1.1-0.3c0.5,0,1.1-0.1,1.8-0.1c0.7,0,1.3,0,1.8,0.1c0.5,0,0.8,0.1,1.1,0.3c0.3,0.1,0.5,0.3,0.6,0.5
			c0.1,0.2,0.2,0.4,0.2,0.7v5.9c2.5-2.8,5-4.9,7.5-6.2c2.5-1.3,5-2,7.5-2c3,0,5.5,0.5,7.5,1.5s3.7,2.3,4.9,4
			c1.3,1.7,2.1,3.7,2.7,5.9c0.5,2.3,0.8,5,0.8,8.1V378.2z"/>
	</g>
	<g class="st7">
		<path d="M1754.8,512.5c0,2-0.3,3.9-0.8,5.6c-0.5,1.7-1.2,3.2-2.2,4.6c-0.9,1.4-2,2.5-3.3,3.6s-2.8,1.9-4.4,2.6
			c-1.6,0.7-3.4,1.2-5.2,1.6c-1.9,0.3-4,0.5-6.4,0.5h-16.7c-0.8,0-1.5-0.3-2.2-0.8c-0.7-0.5-1-1.4-1-2.7v-57c0-1.3,0.3-2.2,1-2.7
			c0.7-0.5,1.4-0.8,2.2-0.8h14.5c3.8,0,7,0.4,9.4,1.1c2.4,0.7,4.5,1.8,6.1,3.2s2.9,3.1,3.7,5.1c0.8,2,1.2,4.3,1.2,6.8
			c0,1.5-0.2,3-0.5,4.3c-0.4,1.4-0.9,2.7-1.6,3.8c-0.7,1.2-1.6,2.2-2.7,3.1c-1.1,0.9-2.3,1.7-3.7,2.3c1.7,0.3,3.4,0.9,4.9,1.8
			c1.5,0.9,2.8,2,4,3.3c1.1,1.4,2,2.9,2.7,4.7C1754.4,508.4,1754.8,510.4,1754.8,512.5z M1742,483.9c0-1.5-0.2-2.9-0.6-4.2
			c-0.4-1.3-1.1-2.3-2-3.2c-0.9-0.9-2.1-1.5-3.6-2c-1.5-0.5-3.4-0.7-5.9-0.7h-8.8v20.7h9.7c2.2,0,4-0.3,5.3-0.9
			c1.3-0.6,2.5-1.4,3.4-2.3c0.9-1,1.5-2.1,1.9-3.4C1741.7,486.6,1742,485.3,1742,483.9z M1745.8,513c0-1.9-0.3-3.6-0.9-5
			c-0.6-1.4-1.5-2.7-2.7-3.7s-2.6-1.7-4.4-2.2c-1.8-0.5-4-0.8-6.6-0.8H1721v22.5h12.3c1.9,0,3.6-0.2,5.1-0.7
			c1.4-0.5,2.7-1.1,3.8-2.1c1.1-0.9,2-2,2.6-3.4C1745.5,516.4,1745.8,514.8,1745.8,513z"/>
		<path d="M1774.9,529.6c0,0.3-0.1,0.5-0.2,0.7c-0.1,0.2-0.3,0.3-0.6,0.5c-0.3,0.1-0.7,0.2-1.2,0.3c-0.5,0.1-1.2,0.1-2,0.1
			c-0.8,0-1.5,0-2-0.1c-0.5-0.1-0.9-0.2-1.3-0.3c-0.3-0.1-0.5-0.3-0.6-0.5c-0.1-0.2-0.2-0.4-0.2-0.7v-66c0-0.3,0.1-0.5,0.2-0.7
			c0.1-0.2,0.3-0.4,0.6-0.5c0.3-0.1,0.7-0.2,1.3-0.3c0.5-0.1,1.2-0.1,2-0.1c0.8,0,1.5,0,2,0.1c0.5,0.1,0.9,0.2,1.2,0.3
			c0.3,0.1,0.5,0.3,0.6,0.5c0.1,0.2,0.2,0.4,0.2,0.7V529.6z"/>
		<path d="M1823.5,529.7c0,0.4-0.1,0.7-0.4,0.9c-0.3,0.2-0.6,0.3-1.1,0.4c-0.5,0.1-1.1,0.1-2,0.1c-0.9,0-1.5,0-2.1-0.1
			c-0.5-0.1-0.9-0.2-1.1-0.4c-0.2-0.2-0.3-0.5-0.3-0.9v-4.4c-1.9,2.1-4.1,3.7-6.5,4.8c-2.4,1.2-4.9,1.7-7.6,1.7
			c-2.3,0-4.5-0.3-6.4-0.9c-1.9-0.6-3.5-1.5-4.8-2.6c-1.3-1.2-2.4-2.6-3.1-4.3c-0.7-1.7-1.1-3.6-1.1-5.7c0-2.5,0.5-4.7,1.5-6.5
			c1-1.8,2.5-3.4,4.4-4.6c1.9-1.2,4.2-2.1,7-2.7c2.8-0.6,5.9-0.9,9.3-0.9h6.1V500c0-1.7-0.2-3.2-0.5-4.5c-0.4-1.3-0.9-2.4-1.8-3.3
			c-0.8-0.9-1.9-1.5-3.1-2c-1.3-0.4-2.9-0.7-4.7-0.7c-2,0-3.8,0.2-5.4,0.7c-1.6,0.5-3,1-4.2,1.6c-1.2,0.6-2.2,1.1-3,1.6
			c-0.8,0.5-1.4,0.7-1.8,0.7c-0.3,0-0.5-0.1-0.7-0.2c-0.2-0.1-0.4-0.3-0.5-0.6s-0.3-0.6-0.3-1c-0.1-0.4-0.1-0.9-0.1-1.4
			c0-0.8,0.1-1.5,0.2-2c0.1-0.5,0.4-0.9,0.8-1.4c0.4-0.4,1.2-0.9,2.3-1.5c1.1-0.6,2.3-1.1,3.8-1.6c1.4-0.5,3-0.9,4.6-1.2
			c1.7-0.3,3.4-0.5,5.1-0.5c3.2,0,5.9,0.4,8.2,1.1s4.1,1.8,5.4,3.2s2.4,3.1,3,5.2c0.6,2.1,0.9,4.5,0.9,7.3V529.7z M1815.3,509.4h-7
			c-2.2,0-4.2,0.2-5.8,0.6c-1.6,0.4-3,0.9-4.1,1.7s-1.9,1.6-2.4,2.7c-0.5,1-0.8,2.2-0.8,3.6c0,2.3,0.7,4.1,2.2,5.5
			c1.5,1.4,3.5,2.1,6.2,2.1c2.1,0,4.1-0.5,6-1.6c1.8-1.1,3.7-2.8,5.8-5V509.4z"/>
		<path d="M1876.5,529.6c0,0.3-0.1,0.5-0.2,0.7c-0.1,0.2-0.3,0.3-0.6,0.5c-0.3,0.1-0.7,0.2-1.2,0.3c-0.5,0.1-1.1,0.1-1.8,0.1
			c-0.8,0-1.4,0-1.9-0.1s-0.9-0.2-1.1-0.3c-0.3-0.1-0.5-0.3-0.6-0.5c-0.1-0.2-0.1-0.4-0.1-0.7v-5.9c-2.5,2.8-5,4.8-7.5,6.1
			c-2.5,1.3-5,1.9-7.5,1.9c-3,0-5.5-0.5-7.5-1.5s-3.7-2.3-4.9-4s-2.1-3.7-2.7-5.9s-0.8-5-0.8-8.2v-27c0-0.3,0.1-0.5,0.2-0.7
			c0.1-0.2,0.3-0.3,0.7-0.5c0.3-0.1,0.8-0.2,1.3-0.3c0.5,0,1.2-0.1,2-0.1c0.8,0,1.4,0,2,0.1c0.5,0,0.9,0.1,1.3,0.3
			c0.3,0.1,0.5,0.3,0.7,0.5c0.1,0.2,0.2,0.4,0.2,0.7v25.9c0,2.6,0.2,4.7,0.6,6.3c0.4,1.6,1,2.9,1.7,4c0.8,1.1,1.8,2,2.9,2.6
			c1.2,0.6,2.6,0.9,4.2,0.9c2,0,4.1-0.7,6.1-2.2c2-1.4,4.2-3.6,6.5-6.4v-31.1c0-0.3,0.1-0.5,0.2-0.7c0.1-0.2,0.3-0.3,0.7-0.5
			c0.3-0.1,0.7-0.2,1.3-0.3c0.5,0,1.2-0.1,2-0.1c0.8,0,1.4,0,2,0.1c0.5,0,0.9,0.1,1.2,0.3c0.3,0.1,0.5,0.3,0.7,0.5
			c0.1,0.2,0.2,0.4,0.2,0.7V529.6z"/>
	</g>
	<g class="st7">
		<path class="st0" d="M425.2,713c0,0.3-0.1,0.5-0.2,0.7c-0.1,0.2-0.3,0.4-0.7,0.5s-0.8,0.2-1.4,0.3s-1.3,0.1-2.2,0.1
			c-1.2,0-2.1-0.1-2.9-0.2c-0.7-0.1-1.3-0.3-1.7-0.6s-0.7-0.6-0.9-0.9l-24.1-32.7v32.7c0,0.2-0.1,0.5-0.2,0.7
			c-0.1,0.2-0.4,0.4-0.7,0.5c-0.3,0.1-0.8,0.2-1.3,0.3c-0.6,0.1-1.3,0.1-2.1,0.1c-0.8,0-1.5,0-2.1-0.1c-0.6-0.1-1-0.2-1.4-0.3
			s-0.6-0.3-0.7-0.5c-0.1-0.2-0.2-0.4-0.2-0.7v-62.8c0-0.3,0.1-0.5,0.2-0.7s0.4-0.4,0.7-0.5c0.3-0.1,0.8-0.2,1.4-0.3
			c0.6-0.1,1.3-0.1,2.1-0.1c0.8,0,1.5,0,2.1,0.1c0.6,0.1,1,0.2,1.3,0.3c0.3,0.1,0.6,0.3,0.7,0.5s0.2,0.4,0.2,0.7v29.1l23.2-29.1
			c0.2-0.3,0.4-0.6,0.7-0.8c0.3-0.2,0.6-0.4,1-0.5c0.4-0.1,0.9-0.2,1.4-0.3c0.6-0.1,1.3-0.1,2.1-0.1c0.9,0,1.6,0,2.1,0.1
			s1,0.2,1.3,0.3c0.3,0.1,0.5,0.3,0.7,0.5s0.2,0.4,0.2,0.7c0,0.4-0.1,0.9-0.3,1.3c-0.2,0.4-0.6,1-1.2,1.8l-21.7,25.9l23.4,31
			c0.6,0.9,0.9,1.5,1,1.8S425.2,712.8,425.2,713z"/>
		<path class="st0" d="M457.1,689v24.1c0,0.3-0.1,0.5-0.2,0.7c-0.1,0.2-0.4,0.4-0.7,0.5s-0.8,0.2-1.4,0.3c-0.6,0.1-1.3,0.1-2.1,0.1
			c-0.8,0-1.5,0-2.1-0.1c-0.6-0.1-1-0.2-1.4-0.3c-0.4-0.1-0.6-0.3-0.7-0.5c-0.1-0.2-0.2-0.4-0.2-0.7V689l-18.5-36.9
			c-0.4-0.8-0.6-1.4-0.7-1.8c-0.1-0.4,0-0.8,0.3-1c0.3-0.2,0.7-0.4,1.4-0.5s1.5-0.1,2.7-0.1c1,0,1.8,0,2.5,0.1
			c0.6,0.1,1.1,0.2,1.5,0.3c0.4,0.1,0.6,0.3,0.8,0.5c0.2,0.2,0.4,0.5,0.5,0.8l9,18.8c0.8,1.8,1.7,3.7,2.5,5.6c0.8,2,1.7,3.9,2.6,5.9
			h0.1c0.8-1.9,1.6-3.8,2.4-5.7c0.8-1.9,1.7-3.8,2.5-5.6l9.1-18.9c0.1-0.3,0.2-0.6,0.4-0.9c0.2-0.2,0.4-0.4,0.8-0.5s0.8-0.2,1.3-0.3
			s1.3-0.1,2.2-0.1c1.2,0,2.2,0,2.9,0.1s1.2,0.2,1.4,0.5c0.3,0.2,0.4,0.6,0.3,1c-0.1,0.4-0.3,1-0.7,1.8L457.1,689z"/>
		<path class="st0" d="M500.3,688.9c0,1.3-0.2,2.2-0.5,2.7c-0.3,0.5-0.7,0.8-1.3,0.8h-21.1c-0.6,0-1.1-0.3-1.4-0.8
			c-0.3-0.5-0.5-1.4-0.5-2.7s0.2-2.2,0.5-2.7s0.8-0.8,1.4-0.8h21.1c0.3,0,0.5,0.1,0.7,0.2c0.2,0.1,0.4,0.3,0.6,0.6
			c0.2,0.3,0.3,0.6,0.4,1.1C500.3,687.8,500.3,688.3,500.3,688.9z"/>
		<path class="st0" d="M552.7,681.6c0,5-0.4,9.6-1.2,13.8s-2.1,7.7-3.9,10.7c-1.8,3-4.2,5.3-7.2,6.9c-3,1.6-6.6,2.5-11,2.5
			c-4.1,0-7.6-0.7-10.4-2.2c-2.8-1.5-5.1-3.6-6.8-6.5c-1.7-2.8-2.9-6.4-3.7-10.5c-0.7-4.2-1.1-8.9-1.1-14.3c0-5,0.4-9.6,1.2-13.7
			c0.8-4.2,2.1-7.7,3.9-10.7c1.8-3,4.2-5.3,7.2-6.9c3-1.6,6.6-2.5,10.9-2.5c4.1,0,7.6,0.7,10.4,2.2c2.8,1.5,5.1,3.6,6.8,6.5
			c1.7,2.8,2.9,6.4,3.7,10.5C552.3,671.4,552.7,676.2,552.7,681.6z M543.8,682.2c0-3.3-0.1-6.2-0.4-8.8c-0.2-2.6-0.6-4.9-1-6.9
			c-0.5-2-1-3.7-1.8-5.1c-0.7-1.4-1.6-2.6-2.6-3.5c-1-0.9-2.2-1.6-3.5-2c-1.3-0.4-2.8-0.6-4.4-0.6c-2.9,0-5.2,0.7-7,2
			s-3.2,3.2-4.2,5.6c-1,2.4-1.7,5.1-2.1,8.3c-0.4,3.2-0.6,6.6-0.6,10.2c0,4.9,0.3,9,0.8,12.5c0.5,3.4,1.3,6.2,2.4,8.4
			c1.1,2.2,2.5,3.7,4.2,4.7c1.7,1,3.8,1.5,6.2,1.5c1.9,0,3.5-0.3,5-0.9c1.4-0.6,2.7-1.5,3.7-2.6c1-1.1,1.9-2.5,2.6-4.1
			c0.7-1.6,1.2-3.3,1.6-5.3s0.7-4,0.8-6.2C543.7,687,543.8,684.6,543.8,682.2z"/>
		<path class="st0" d="M605.2,681.6c0,5-0.4,9.6-1.2,13.8s-2.1,7.7-3.9,10.7c-1.8,3-4.2,5.3-7.2,6.9c-3,1.6-6.6,2.5-11,2.5
			c-4.1,0-7.6-0.7-10.4-2.2c-2.8-1.5-5.1-3.6-6.8-6.5c-1.7-2.8-2.9-6.4-3.7-10.5c-0.7-4.2-1.1-8.9-1.1-14.3c0-5,0.4-9.6,1.2-13.7
			c0.8-4.2,2.1-7.7,3.9-10.7c1.8-3,4.2-5.3,7.2-6.9c3-1.6,6.6-2.5,10.9-2.5c4.1,0,7.6,0.7,10.4,2.2c2.8,1.5,5.1,3.6,6.8,6.5
			c1.7,2.8,2.9,6.4,3.7,10.5C604.8,671.4,605.2,676.2,605.2,681.6z M596.3,682.2c0-3.3-0.1-6.2-0.4-8.8c-0.2-2.6-0.6-4.9-1-6.9
			c-0.5-2-1-3.7-1.8-5.1c-0.7-1.4-1.6-2.6-2.6-3.5c-1-0.9-2.2-1.6-3.5-2c-1.3-0.4-2.8-0.6-4.4-0.6c-2.9,0-5.2,0.7-7,2
			s-3.2,3.2-4.2,5.6c-1,2.4-1.7,5.1-2.1,8.3c-0.4,3.2-0.6,6.6-0.6,10.2c0,4.9,0.3,9,0.8,12.5c0.5,3.4,1.3,6.2,2.4,8.4
			c1.1,2.2,2.5,3.7,4.2,4.7c1.7,1,3.8,1.5,6.2,1.5c1.9,0,3.5-0.3,5-0.9c1.4-0.6,2.7-1.5,3.7-2.6c1-1.1,1.9-2.5,2.6-4.1
			c0.7-1.6,1.2-3.3,1.6-5.3s0.7-4,0.8-6.2C596.2,687,596.3,684.6,596.3,682.2z"/>
		<path class="st0" d="M656,679.2c0,2.8-0.2,5.7-0.5,8.6c-0.3,2.9-0.9,5.7-1.7,8.4c-0.8,2.7-1.9,5.2-3.3,7.5
			c-1.4,2.3-3.1,4.4-5.2,6.1c-2.1,1.8-4.5,3.1-7.4,4.1c-2.8,1-6.2,1.5-9.9,1.5c-1.4,0-2.9-0.1-4.2-0.3c-1.4-0.2-2.6-0.4-3.7-0.7
			c-1.1-0.3-2-0.6-2.8-0.9c-0.7-0.3-1.3-0.6-1.6-0.9s-0.6-0.7-0.7-1.2c-0.2-0.5-0.2-1.2-0.2-2.1c0-0.7,0-1.3,0.1-1.8
			c0.1-0.4,0.1-0.8,0.2-1c0.1-0.2,0.2-0.4,0.4-0.5c0.2-0.1,0.4-0.1,0.7-0.1c0.4,0,0.9,0.1,1.6,0.4c0.7,0.3,1.5,0.5,2.6,0.8
			c1,0.3,2.2,0.6,3.6,0.8c1.4,0.3,2.9,0.4,4.7,0.4c3.3,0,6.1-0.6,8.4-1.9c2.3-1.3,4.3-3,5.7-5.1c1.5-2.1,2.6-4.6,3.3-7.4
			c0.7-2.8,1.1-5.7,1.2-8.8c-1.8,1-3.9,2-6.4,2.8s-5.4,1.2-8.6,1.2c-3.6,0-6.7-0.5-9.2-1.5c-2.5-1-4.5-2.4-6-4.1
			c-1.5-1.7-2.6-3.8-3.2-6.1c-0.7-2.4-1-4.9-1-7.7c0-2.9,0.4-5.7,1.3-8.3c0.8-2.6,2.2-4.9,3.9-6.9s4.1-3.6,6.8-4.8
			c2.8-1.2,6.1-1.8,9.9-1.8c2.7,0,5.1,0.3,7.3,1c2.1,0.7,3.9,1.7,5.5,3c1.5,1.3,2.9,2.9,3.9,4.7c1.1,1.8,1.9,3.9,2.6,6.2
			s1.1,4.8,1.4,7.6C655.9,673.3,656,676.2,656,679.2z M647.2,678.2c0-4.3-0.3-7.9-0.9-10.9c-0.6-2.9-1.4-5.3-2.5-7.2
			s-2.5-3.1-4.1-3.9c-1.6-0.8-3.5-1.2-5.6-1.2c-2.2,0-4.1,0.4-5.6,1.2c-1.6,0.8-2.8,1.9-3.8,3.2c-1,1.3-1.7,2.8-2.2,4.5
			c-0.5,1.7-0.7,3.4-0.7,5.2c0,2,0.2,3.8,0.6,5.5c0.4,1.7,1.1,3.1,2,4.2c0.9,1.1,2.2,2,3.7,2.7c1.5,0.6,3.4,0.9,5.6,0.9
			c2.5,0,5-0.4,7.3-1.1C643.4,680.5,645.4,679.5,647.2,678.2z"/>
	</g>
	<g class="st7">
		<path class="st0" d="M1274.2,254.7c0,0.4-0.1,0.8-0.2,1.2c-0.2,0.3-0.5,0.6-1.1,0.8c-0.6,0.2-1.3,0.4-2.3,0.5
			c-1,0.1-2.3,0.2-4,0.2c-1.4,0-2.6-0.1-3.5-0.2c-0.9-0.1-1.6-0.3-2.2-0.5c-0.6-0.2-1-0.6-1.3-1c-0.3-0.4-0.6-1-0.8-1.7l-9.8-25.2
			c-1.2-2.9-2.4-5.5-3.6-7.9c-1.2-2.4-2.7-4.5-4.4-6.2c-1.7-1.7-3.7-3.1-6-4c-2.3-1-5.1-1.4-8.3-1.4h-9.5v45.5
			c0,0.4-0.1,0.8-0.4,1.2c-0.2,0.3-0.6,0.6-1.2,0.8c-0.5,0.2-1.2,0.4-2.1,0.5c-0.9,0.1-2,0.2-3.4,0.2c-1.4,0-2.5-0.1-3.4-0.2
			c-0.9-0.1-1.6-0.3-2.2-0.5c-0.6-0.2-0.9-0.5-1.2-0.8c-0.2-0.3-0.3-0.7-0.3-1.2v-98.9c0-2.1,0.6-3.6,1.7-4.5
			c1.1-0.9,2.3-1.3,3.6-1.3h22.7c2.7,0,4.9,0.1,6.7,0.2c1.8,0.1,3.4,0.3,4.8,0.5c4.1,0.7,7.8,1.8,10.9,3.4c3.2,1.5,5.8,3.5,8,5.9
			c2.1,2.4,3.8,5.1,4.8,8.1c1.1,3.1,1.6,6.4,1.6,10.1c0,3.6-0.5,6.8-1.4,9.6c-1,2.8-2.4,5.3-4.2,7.5c-1.8,2.2-4,4.1-6.5,5.7
			c-2.5,1.6-5.4,2.9-8.5,4c1.8,0.8,3.4,1.7,4.8,2.9c1.4,1.2,2.8,2.6,4,4.3c1.2,1.7,2.4,3.5,3.5,5.7c1.1,2.1,2.2,4.6,3.3,7.3
			l9.6,23.5c0.8,2,1.3,3.4,1.5,4.2C1274.1,253.7,1274.2,254.3,1274.2,254.7z M1252.8,179.7c0-4.2-0.9-7.7-2.8-10.6
			c-1.9-2.9-5-5-9.4-6.2c-1.4-0.4-2.9-0.7-4.7-0.8s-4-0.2-6.8-0.2h-12v36h13.9c3.7,0,7-0.5,9.7-1.4c2.7-0.9,5-2.2,6.8-3.8
			c1.8-1.6,3.1-3.5,4-5.7C1252.4,184.7,1252.8,182.3,1252.8,179.7z"/>
	</g>
	<g class="st7">
		<path class="st0" d="M1281.6,325.5c0,1-0.1,2-0.2,2.8c-0.1,0.8-0.3,1.5-0.5,2c-0.2,0.5-0.5,0.9-0.8,1.1c-0.3,0.2-0.7,0.3-1.1,0.3
			c-0.7,0-1.8-0.5-3.3-1.6c-1.5-1-3.6-2.2-6.2-3.5c-2.6-1.3-5.7-2.4-9.3-3.5c-3.6-1-7.9-1.6-12.8-1.6c-5.9,0-11.2,1.1-15.8,3.2
			c-4.7,2.1-8.6,5.1-11.9,8.9c-3.2,3.8-5.7,8.3-7.5,13.5c-1.7,5.2-2.6,10.9-2.6,17c0,6.8,0.9,12.9,2.8,18.2
			c1.9,5.3,4.5,9.7,7.9,13.4c3.4,3.6,7.4,6.4,12,8.3c4.6,1.9,9.8,2.8,15.3,2.8c3.3,0,6.6-0.4,10-1.2s6.5-2,9.5-3.6V371h-24.8
			c-0.9,0-1.6-0.5-2.1-1.4c-0.5-0.9-0.7-2.4-0.7-4.4c0-1,0.1-1.9,0.2-2.7c0.1-0.7,0.3-1.3,0.5-1.8c0.2-0.5,0.5-0.8,0.9-1
			c0.3-0.2,0.7-0.3,1.2-0.3h33.9c0.6,0,1.2,0.1,1.8,0.3c0.6,0.2,1.2,0.6,1.7,1s0.9,1,1.2,1.8c0.3,0.8,0.4,1.7,0.4,2.6v40.7
			c0,1.4-0.2,2.7-0.7,3.7c-0.5,1-1.5,2-3.1,2.8c-1.6,0.8-3.7,1.7-6.2,2.6c-2.5,0.9-5.1,1.7-7.8,2.4s-5.4,1.2-8.2,1.5
			c-2.8,0.3-5.5,0.5-8.2,0.5c-8.3,0-15.6-1.3-22.1-3.8c-6.5-2.6-12-6.2-16.5-10.9c-4.5-4.7-7.9-10.4-10.3-17
			c-2.4-6.6-3.5-14-3.5-22.1c0-8.5,1.3-16.2,3.8-23c2.6-6.9,6.2-12.7,10.8-17.6c4.6-4.8,10.2-8.6,16.8-11.3c6.5-2.7,13.7-4,21.7-4
			c4.1,0,7.9,0.4,11.5,1.1c3.6,0.7,6.8,1.6,9.5,2.5c2.8,1,5.1,2,7,3.1s3.2,2,3.9,2.8c0.7,0.7,1.2,1.5,1.5,2.5
			C1281.5,322.4,1281.6,323.7,1281.6,325.5z"/>
	</g>
	<g class="st7">
		<path class="st0" d="M1269.3,536.2c0,3.4-0.4,6.5-1.3,9.3c-0.9,2.8-2.1,5.4-3.6,7.6c-1.5,2.3-3.4,4.2-5.6,5.9
			c-2.2,1.7-4.6,3.1-7.3,4.3c-2.7,1.2-5.6,2-8.8,2.6c-3.1,0.6-6.7,0.9-10.7,0.9h-27.9c-1.3,0-2.5-0.4-3.6-1.3
			c-1.1-0.9-1.7-2.4-1.7-4.5v-95.3c0-2.1,0.6-3.6,1.7-4.5c1.1-0.9,2.3-1.3,3.6-1.3h24.3c6.4,0,11.6,0.6,15.7,1.8
			c4.1,1.2,7.5,3,10.2,5.3c2.7,2.3,4.8,5.1,6.1,8.5c1.4,3.4,2.1,7.2,2.1,11.4c0,2.5-0.3,5-0.9,7.3c-0.6,2.3-1.5,4.4-2.7,6.4
			c-1.2,2-2.7,3.7-4.5,5.2c-1.8,1.5-3.8,2.8-6.1,3.8c2.9,0.6,5.6,1.6,8.2,3c2.5,1.5,4.7,3.3,6.6,5.6c1.9,2.3,3.4,4.9,4.5,7.9
			C1268.7,529.2,1269.3,532.6,1269.3,536.2z M1247.9,488.4c0-2.6-0.4-4.9-1.1-7c-0.7-2.1-1.8-3.9-3.4-5.3c-1.5-1.5-3.5-2.6-6-3.3
			c-2.5-0.8-5.7-1.2-9.8-1.2H1213v34.6h16.1c3.7,0,6.6-0.5,8.9-1.4c2.3-1,4.1-2.3,5.6-3.9s2.6-3.5,3.3-5.7
			S1247.9,490.7,1247.9,488.4z M1254.3,537c0-3.2-0.5-6-1.5-8.4c-1-2.4-2.5-4.5-4.4-6.1c-2-1.7-4.4-2.9-7.3-3.8
			c-2.9-0.9-6.6-1.3-11.1-1.3h-17v37.6h20.6c3.2,0,6.1-0.4,8.5-1.2c2.4-0.8,4.5-1.9,6.4-3.4c1.8-1.5,3.3-3.4,4.3-5.7
			C1253.8,542.6,1254.3,540,1254.3,537z"/>
	</g>
	<g class="st7">
		<path class="st0" d="M1292.9,61.8c0,2.1-0.7,3.6-2.1,4.5c-1.4,0.8-3.4,1.2-6,1.2h-96.6c-2.8,0-4.9-0.4-6.2-1.3
			c-1.4-0.9-2.1-2.3-2.1-4.4c0-2.1,0.7-3.5,2.1-4.4c1.4-0.8,3.5-1.2,6.2-1.2h96.6c1.2,0,2.3,0.1,3.4,0.2c1,0.2,1.8,0.5,2.5,0.9
			c0.7,0.5,1.2,1.1,1.6,1.8C1292.7,59.9,1292.9,60.8,1292.9,61.8z"/>
	</g>
</g>
</svg>
