<?xml version="1.0" encoding="utf-8"?>
<!-- Generator: Adobe Illustrator 27.8.0, SVG Export Plug-In . SVG Version: 6.00 Build 0)  -->
<svg version="1.1"
	 id="svg8" xmlns:svg="http://www.w3.org/2000/svg" xmlns:rdf="http://www.w3.org/1999/02/22-rdf-syntax-ns#" xmlns:sodipodi="http://sodipodi.sourceforge.net/DTD/sodipodi-0.dtd" xmlns:dc="http://purl.org/dc/elements/1.1/" xmlns:inkscape="http://www.inkscape.org/namespaces/inkscape" xmlns:cc="http://creativecommons.org/ns#" inkscape:export-xdpi="93" inkscape:export-ydpi="93" inkscape:version="0.92.4 (5da689c313, 2019-01-14)"
	 xmlns="http://www.w3.org/2000/svg" xmlns:xlink="http://www.w3.org/1999/xlink" x="0px" y="0px" viewBox="0 0 512 1081"
	 style="enable-background:new 0 0 512 1081;" xml:space="preserve">
<style type="text/css">
	.st0{fill:#FFFFFF;}
	.st1{fill:#1A1A1A;}
	.st2{opacity:0.99;enable-background:new    ;}
	.st3{fill:#CCCCCC;}
	.st4{opacity:0.99;fill:#808080;enable-background:new    ;}
	.st5{opacity:0.99;fill:#CCCCCC;enable-background:new    ;}
	.st6{opacity:0.99;fill:#FFFFFF;enable-background:new    ;}
	.st7{enable-background:new    ;}
	.st8{opacity:0.99;fill:#F2F2F2;enable-background:new    ;}
</style>
<defs>
	
		<inkscape:perspective  id="perspective876" inkscape:persp3d-origin="105 : 98.999989 : 1" inkscape:vp_x="0 : 148.49999 : 1" inkscape:vp_y="0 : 999.99988 : 0" inkscape:vp_z="210.00001 : 148.49999 : 1" sodipodi:type="inkscape:persp3d">
		</inkscape:perspective>
</defs>
<sodipodi:namedview  bordercolor="#666666" borderopacity="1.0" id="base" inkscape:current-layer="layer1" inkscape:cx="815.21022" inkscape:cy="3297.9672" inkscape:document-units="mm" inkscape:lockguides="true" inkscape:pageopacity="0" inkscape:pageshadow="2" inkscape:window-height="987" inkscape:window-maximized="1" inkscape:window-width="1680" inkscape:window-x="1912" inkscape:window-y="-8" inkscape:zoom="1" pagecolor="#323232" showgrid="false" showguides="true" width="500mm">
	<inkscape:grid  id="grid3786" type="xygrid"></inkscape:grid>
</sodipodi:namedview>
<g id="layer1" transform="translate(0.31582593,652.81107)" inkscape:groupmode="layer" inkscape:label="Ebene 1">
	<rect id="rect815" x="-0.3" y="-418.6" width="512.6" height="688.8"/>
	<rect id="rect821" x="120.9" y="158.1" class="st0" width="266.7" height="91.8"/>
	<path id="rect825" class="st1" d="M138.4,163.3h53.5c9.3,0,16.9,7.6,16.9,16.9v46.9c0,9.3-7.6,16.9-16.9,16.9h-53.5
		c-9.3,0-16.9-7.6-16.9-16.9v-46.9C121.5,170.9,129,163.3,138.4,163.3z"/>
	<rect id="rect831" x="71.7" y="-33.5" class="st0" width="364.9" height="91.8"/>
	<rect id="rect833" x="71.7" y="-129.4" class="st0" width="364.9" height="91.8"/>
	<rect id="rect837" x="71.7" y="-225.2" class="st0" width="364.9" height="91.8"/>
	<path id="rect872" class="st1" d="M316.5,163.3H370c9.3,0,16.9,7.6,16.9,16.9v46.9c0,9.3-7.6,16.9-16.9,16.9h-53.5
		c-9.3,0-16.9-7.6-16.9-16.9v-46.9C299.6,170.9,307.2,163.3,316.5,163.3z"/>
	<path id="rect874" class="st1" d="M225.3,163.3h57.8c8.1,0,14.7,6.6,14.7,14.7v51.2c0,8.1-6.6,14.7-14.7,14.7h-57.8
		c-8.1,0-14.7-6.6-14.7-14.7V178C210.6,169.9,217.1,163.3,225.3,163.3z"/>
	<rect id="rect892" x="76.7" y="-30.8" class="st2" width="357.2" height="84.7"/>
	<path id="rect836" class="st3" d="M119.1-30.8h21.8c23.4,0,42.4,19,42.4,42.4l0,0c0,23.4-19,42.4-42.4,42.4h-21.8
		c-23.4,0-42.4-19-42.4-42.4l0,0C76.7-11.8,95.7-30.8,119.1-30.8z"/>
	<rect id="rect850" x="190.3" y="-30.8" class="st3" width="106.6" height="84.7"/>
	<rect id="rect892-7" x="75.6" y="-126.1" class="st2" width="357.2" height="84.7"/>
	<rect id="rect892-72" x="75.5" y="-221.3" class="st2" width="357.2" height="84.7"/>
	<path id="rect836-7" class="st3" d="M118-125.4h21.6c23.2,0,42.1,18.8,42.1,42.1l0,0c0,23.2-18.8,42.1-42.1,42.1H118
		c-23.2,0-42.1-18.8-42.1-42.1l0,0C75.9-106.6,94.8-125.4,118-125.4z"/>
	<path id="rect836-6" class="st3" d="M231.8-125.4h21.6c23.2,0,42.1,18.8,42.1,42.1l0,0c0,23.2-18.8,42.1-42.1,42.1h-21.6
		c-23.2,0-42.1-18.8-42.1-42.1l0,0C189.7-106.6,208.5-125.4,231.8-125.4z"/>
	<path id="rect939" class="st3" d="M232.2-222.2h21.8c23.4,0,42.4,19,42.4,42.4l0,0c0,23.4-19,42.4-42.4,42.4h-21.8
		c-23.4,0-42.4-19-42.4-42.4l0,0C189.9-203.2,208.8-222.2,232.2-222.2z"/>
	<path id="rect941" class="st3" d="M117.4-222.2h21.8c23.4,0,42.4,19,42.4,42.4l0,0c0,23.4-19,42.4-42.4,42.4h-21.8
		c-23.4,0-42.4-19-42.4-42.4l0,0C75-203.2,93.9-222.2,117.4-222.2z"/>
	<rect id="rect943" x="313.7" y="-123.5" class="st3" width="117.6" height="79.6"/>
	<rect id="rect945" x="313.7" y="-218.9" class="st3" width="117.6" height="79.6"/>
	<rect id="rect947" x="160.2" y="207.2" class="st4" width="9.7" height="168.3"/>
	<rect id="rect949" x="249.7" y="207.2" class="st4" width="9.7" height="168.3"/>
	<rect id="rect951" x="338.3" y="207.2" class="st4" width="9.7" height="168.3"/>
	<g id="flowRoot969" transform="translate(0,-45.72499)">
	</g>
	<ellipse id="path1456" class="st5" cx="71.5" cy="-274.9" rx="46.8" ry="45.7"/>
	<ellipse id="ellipse1458" class="st5" cx="436.4" cy="-274.9" rx="46.8" ry="45.7"/>
	<ellipse id="path1460" class="st6" cx="71.5" cy="-275.2" rx="42.1" ry="41.3"/>
	<ellipse id="ellipse1464" class="st6" cx="436.2" cy="-275.2" rx="42.1" ry="41.3"/>
	<g id="flowRoot1466" transform="translate(0,-45.72499)">
	</g>
	<circle id="circle1504" class="st6" cx="129.4" cy="11.7" r="39.8"/>
	<circle id="circle1510" class="st6" cx="242.6" cy="11.7" r="39.8"/>
	<g id="flowRoot1529" transform="translate(0,-45.72499)">
	</g>
	
		<ellipse id="circle77" transform="matrix(9.853762e-02 -0.9951 0.9951 9.853762e-02 294.9965 -33.9053)" class="st6" cx="128.8" cy="-179.8" rx="39.8" ry="39.8"/>
	<circle id="circle79" class="st6" cx="242.6" cy="-179.8" r="39.8"/>
	<circle id="circle81" class="st6" cx="372.3" cy="-179.1" r="34.1"/>
	<path id="path31-1" inkscape:connector-curvature="0" class="st0" d="M145.4-364.8c3.2-0.1,3.5-0.1,4.1-0.5c0.4-0.2,0.8-0.7,1-1
		c0.3-0.6,0.4-1,0.4-7.5l0.1-6.9l6.8,0l6.8,0v8.6c0,9.4-0.1,10.3-1.1,12.8c-1.3,3.2-3.2,4.8-7.1,5.6c-1,0.2-2.2,0.3-6.2,0.3
		c-2.7,0-5.6-0.1-6.5-0.2l-1.7-0.1l0-5.6l0-5.6L145.4-364.8L145.4-364.8z M209.8-345.6c57.8,0,72,0.1,69.6,0.3l-0.4,0l0.4,0.2
		c0.3,0.1,0.3,0.2-0.3,0.2c-0.4,0-0.2,0.1,0.6,0.2l1.2,0.1l-1.2,0.1c-0.7,0-1.1,0.1-0.9,0.1c0.3,0.1,0.3,0.3,0.3,1.6
		c0,1.5,0,1.5,0.5,1.6c0.4,0.1,0.3,0.1-0.3,0.1c-0.4,0-0.8,0.1-0.8,0.2c0,0.1-22.9,0.2-68.3,0.2h-68.3v-2.5v-2.5L209.8-345.6z
		 M157.8-398.2h6.8v5.6v5.6h-6.8H151v-5.6v-5.6H157.8z M171.5-377.7c0.5-3.1,1.3-5.9,2.6-8.4c0.5-0.9,0.9-1.7,1-1.7
		c0.1-0.1,0.4-0.5,0.8-1.1c0.7-1.1,2.3-3.1,2.7-3.3c0.1-0.1,0.2-0.2,0.2-0.3c0-0.2,1.7-1.8,3-2.7c1.4-1,2.5-1.6,5.1-2.5
		c2.9-1.1,4.7-1.4,8.2-1.2c2.6,0.1,3.2,0.2,4.8,0.6c1,0.3,2.2,0.7,2.7,0.9s1,0.4,1.1,0.4c0.1,0,0.9,0.4,1.7,0.9
		c3.3,1.9,7.7,7,9.4,10.7c2.7,5.9,3,11.8,1,17.3c-0.9,2.3-1.5,3.6-2.5,5.2c-1.2,1.9-1.2,2-4.1,4.7c-3.2,3.2-5.5,4.5-9.7,5.7
		c-2.1,0.6-6.3,0.8-8.6,0.5c-2.9-0.5-6.9-2.1-9.3-3.9c-1.3-0.9-2.9-2.4-2.9-2.6c0,0-0.4-0.5-0.9-1c-2.5-2.5-5-7.4-5.9-11.4
		C171.6-372.6,171.4-376.6,171.5-377.7L171.5-377.7z M184.6-372c0.7,2.6,2,4.8,4,6.7c2.1,2,5.3,2.7,8.1,1.8c3.1-1,6.2-4.6,7.2-8.5
		c0.6-2.2,0.5-5.5-0.1-7.6c-0.9-3.1-2.5-5.5-4.8-7.1c-1-0.7-1.5-0.9-2.6-1.2c-2.3-0.4-4.7-0.2-6.4,0.6c-1.5,0.7-3.3,2.8-4.4,4.9
		C184.1-379.1,183.7-375.4,184.6-372L184.6-372z M223-398.2c0.1,0,3.2-0.1,6.8,0l6.6,0l0,6.1c0,5.8,0,6.2,0.4,7.2
		c1,2.6,4.1,4,6.8,3.1c1.4-0.5,2.4-1.3,3-2.6l0.6-1.2l0.1-6.3l0.1-6.3h6.8h6.8l-0.1,7.1c-0.1,6.7-0.1,7.2-0.5,8.6
		c-0.8,2.8-2,5.2-3.6,7c-0.4,0.5-0.7,0.9-0.7,1c0,0.2-1.7,1.8-3.3,2.9c-1.3,1-3.1,1.9-4.1,2.1c-0.3,0.1-1.2,0.3-2.1,0.6
		c-1.5,0.4-1.8,0.5-4.9,0.5c-3.1,0-3.4,0-5.2-0.5c-2.7-0.8-3.6-1.1-5.4-2.3c-2-1.3-3.8-3-5.2-5.2c-2-3-2.9-5.2-3.3-8.7
		C222.6-387.2,222.7-398,223-398.2L223-398.2z M242-364.5h11.2v5.7v5.7H242h-11.2v-5.7v-5.7H242z M261.1-407c0.1,0,0.2-0.3,0.2-0.7
		c0-0.7,0-0.7,0.9-0.8c0.5-0.1,19.4-0.1,42-0.1l41.2,0l-0.1,2.5l-0.1,2.5h-41.9c-23,0-42,0-42.1-0.1c-0.2-0.1-0.3-0.4-0.3-1.6
		C260.9-406.3,261-407,261.1-407L261.1-407z M279.9-379.5h14.2v5.6v5.6h-14.2h-14.2v-5.6v-5.6H279.9z M305.4-398.2h6.8v5.6v5.6h-6.8
		h-6.8v-5.6v-5.6H305.4z M305.4-381.3h6.8v14.4v14.4h-6.8h-6.8v-14.4v-14.4L305.4-381.3z M332.6-398.2h14.3v5.6v5.6h-14.3h-14.3
		v-5.6v-5.6H332.6z M320.6-380.5c0.1-0.1,3.1-0.1,6.7-0.1l6.6,0l0.1,6.6c0.1,9.2-0.3,8.7,6.7,8.8l4.4,0.1v5.8v5.8l-1.6,0.2
		c-2.5,0.3-10.3,0.3-12.4-0.1c-3.6-0.6-6-1.7-7.6-3.6c-1.6-2-2.4-4-2.8-7.1C320.4-366.1,320.4-380.3,320.6-380.5L320.6-380.5z
		 M354.9-403.7c0.3-1.2,1-2.4,1.8-3c3.1-2.7,6.8-3,9.9-0.8c1.4,1.1,1.8,1.5,2.4,2.8c0.5,1,0.5,1.3,0.5,3c0,1.7-0.1,2-0.5,3.1
		c-1,2.2-3.6,4-6.2,4.2c-2.4,0.2-4.2-0.5-6.1-2.3C354.9-398.4,354.2-401.3,354.9-403.7L354.9-403.7z M356.2-399
		c0.6,1.5,2.6,2.9,4.5,3.4c2,0.5,3.5,0.1,5.8-1.6c0.5-0.4,0.9-0.9,1.4-1.8c0.5-1.1,0.6-1.4,0.6-2.8c0-1.4,0-1.7-0.6-2.8
		c-0.5-1-0.9-1.4-1.8-2c-0.6-0.4-1.5-0.9-2-1.1c-3.1-1.1-6.9,0.6-8.1,3.7C355.5-402.8,355.6-400.4,356.2-399L356.2-399z
		 M361.3-406.1c1.4,0,2.7,0.1,3,0.2c1.1,0.4,1.6,2.5,0.8,3.5c-0.2,0.3-0.7,0.6-1,0.7l-0.6,0.2l0.6,0.7c0.3,0.4,0.9,1.1,1.2,1.7
		c0.3,0.6,0.6,1.1,0.7,1.1c0.4,0.2,0.1,0.4-0.6,0.4l-0.8,0l-1.1-1.7c-1.2-1.9-1.5-2.1-2.8-2.1H360v1.9v1.9l-0.6-0.1l-0.6-0.1l0-4.2
		l0-4.2L361.3-406.1z M361.6-402.4c1.4,0,1.7-0.1,2.1-0.4c1-0.8,0.4-2.1-1-2.3c-0.6-0.1-2.3,0-2.7,0.1c0,0,0,0.6,0,1.3v1.3
		L361.6-402.4z"/>
	<rect id="rect92" x="313.7" y="-27.8" class="st3" width="117.6" height="79.6"/>
	<circle id="circle1514" class="st6" cx="372.3" cy="12" r="34.1"/>
	<g class="st7">
		<path d="M122.6,382.7c0,0.4,0,0.7-0.1,1c0,0.3-0.1,0.5-0.2,0.7s-0.2,0.3-0.3,0.4s-0.2,0.1-0.4,0.1c-0.2,0-0.6-0.2-1.2-0.6
			c-0.5-0.4-1.3-0.8-2.2-1.2s-2-0.9-3.3-1.2c-1.3-0.4-2.8-0.6-4.5-0.6c-2.1,0-3.9,0.4-5.6,1.1c-1.6,0.8-3,1.8-4.2,3.1
			c-1.1,1.3-2,2.9-2.6,4.8c-0.6,1.8-0.9,3.8-0.9,6c0,2.4,0.3,4.5,1,6.4c0.7,1.9,1.6,3.4,2.8,4.7s2.6,2.2,4.2,2.9
			c1.6,0.7,3.4,1,5.4,1c1.2,0,2.3-0.1,3.5-0.4s2.3-0.7,3.3-1.3v-10.9h-8.7c-0.3,0-0.6-0.2-0.7-0.5c-0.2-0.3-0.2-0.8-0.2-1.5
			c0-0.4,0-0.7,0.1-0.9c0-0.3,0.1-0.5,0.2-0.6c0.1-0.2,0.2-0.3,0.3-0.4c0.1-0.1,0.3-0.1,0.4-0.1h11.9c0.2,0,0.4,0,0.6,0.1
			c0.2,0.1,0.4,0.2,0.6,0.3c0.2,0.2,0.3,0.4,0.4,0.6s0.1,0.6,0.1,0.9v14.3c0,0.5-0.1,0.9-0.3,1.3s-0.5,0.7-1.1,1
			c-0.6,0.3-1.3,0.6-2.2,0.9c-0.9,0.3-1.8,0.6-2.8,0.8c-0.9,0.2-1.9,0.4-2.9,0.5c-1,0.1-1.9,0.2-2.9,0.2c-2.9,0-5.5-0.4-7.8-1.3
			s-4.2-2.2-5.8-3.8c-1.6-1.7-2.8-3.7-3.6-6c-0.8-2.3-1.2-4.9-1.2-7.8c0-3,0.4-5.7,1.3-8.1c0.9-2.4,2.2-4.5,3.8-6.2
			c1.6-1.7,3.6-3,5.9-4s4.8-1.4,7.6-1.4c1.4,0,2.8,0.1,4,0.4c1.3,0.3,2.4,0.5,3.3,0.9c1,0.3,1.8,0.7,2.5,1.1c0.7,0.4,1.1,0.7,1.4,1
			c0.3,0.3,0.4,0.5,0.5,0.9C122.5,381.6,122.6,382.1,122.6,382.7z"/>
		<path d="M160.2,413c0,0.4-0.1,0.7-0.2,1s-0.3,0.5-0.5,0.7c-0.2,0.2-0.4,0.3-0.7,0.4s-0.5,0.1-0.8,0.1h-1.6c-0.5,0-1-0.1-1.4-0.2
			c-0.4-0.1-0.8-0.3-1.1-0.6c-0.3-0.3-0.7-0.7-1-1.1s-0.7-1.1-1.1-1.9l-11.4-21.3c-0.6-1.1-1.2-2.3-1.8-3.5
			c-0.6-1.2-1.2-2.4-1.7-3.5h-0.1c0,1.4,0.1,2.8,0.1,4.3c0,1.4,0,2.9,0,4.3v22.6c0,0.1,0,0.3-0.1,0.4c-0.1,0.1-0.2,0.2-0.4,0.3
			c-0.2,0.1-0.4,0.1-0.8,0.2c-0.3,0-0.7,0.1-1.2,0.1s-0.9,0-1.2-0.1c-0.3,0-0.6-0.1-0.7-0.2c-0.2-0.1-0.3-0.2-0.4-0.3
			c-0.1-0.1-0.1-0.3-0.1-0.4v-34.6c0-0.8,0.2-1.3,0.7-1.7c0.4-0.3,0.9-0.5,1.4-0.5h2.5c0.6,0,1.1,0,1.5,0.1c0.4,0.1,0.7,0.3,1,0.5
			c0.3,0.2,0.6,0.5,0.9,0.9c0.3,0.4,0.6,0.9,0.9,1.5l8.8,16.5c0.5,1,1.1,2,1.6,2.9c0.5,1,1,1.9,1.5,2.8c0.5,0.9,0.9,1.8,1.4,2.7
			c0.5,0.9,0.9,1.8,1.4,2.7h0c0-1.5-0.1-3.1-0.1-4.8s0-3.2,0-4.8v-20.3c0-0.1,0-0.3,0.1-0.4c0.1-0.1,0.2-0.2,0.4-0.3
			c0.2-0.1,0.4-0.1,0.8-0.2c0.3,0,0.7-0.1,1.2-0.1c0.4,0,0.8,0,1.2,0.1s0.6,0.1,0.8,0.2s0.3,0.2,0.4,0.3c0.1,0.1,0.1,0.2,0.1,0.4
			V413z"/>
		<path d="M199,395.8c0,3.2-0.4,6.1-1.2,8.5c-0.8,2.4-2,4.4-3.6,6c-1.6,1.6-3.6,2.8-5.9,3.6c-2.3,0.8-5.1,1.2-8.3,1.2H172
			c-0.4,0-0.9-0.1-1.3-0.4c-0.4-0.3-0.6-0.8-0.6-1.6v-33.4c0-0.8,0.2-1.3,0.6-1.6c0.4-0.3,0.8-0.4,1.3-0.4h8.5c3.2,0,6,0.4,8.2,1.3
			c2.2,0.8,4.1,2,5.6,3.6c1.5,1.6,2.7,3.5,3.4,5.7S199,393,199,395.8z M193.8,396c0-2-0.3-3.9-0.8-5.7c-0.5-1.7-1.3-3.3-2.4-4.5
			s-2.4-2.3-4.1-3c-1.6-0.7-3.8-1.1-6.3-1.1h-5.1v29.2h5.1c2.4,0,4.4-0.3,6.1-0.9s3-1.5,4.1-2.8c1.1-1.2,1.9-2.8,2.5-4.7
			C193.5,400.8,193.8,398.5,193.8,396z"/>
	</g>
	<g class="st7">
		<path d="M331,407c0,1.8-0.3,3.3-1,4.7s-1.5,2.5-2.7,3.5c-1.1,1-2.5,1.7-4.1,2.2c-1.6,0.5-3.2,0.7-5,0.7c-1.3,0-2.4-0.1-3.5-0.3
			c-1.1-0.2-2-0.5-2.9-0.8c-0.8-0.3-1.5-0.6-2.1-1c-0.6-0.3-1-0.6-1.2-0.8c-0.2-0.2-0.4-0.5-0.5-0.9c-0.1-0.4-0.2-0.8-0.2-1.4
			c0-0.4,0-0.8,0.1-1.1c0-0.3,0.1-0.5,0.2-0.7c0.1-0.2,0.2-0.3,0.3-0.4c0.1-0.1,0.3-0.1,0.4-0.1c0.3,0,0.7,0.2,1.1,0.5
			c0.5,0.3,1.1,0.7,1.9,1.1c0.8,0.4,1.7,0.7,2.8,1.1c1.1,0.3,2.4,0.5,3.8,0.5c1.1,0,2.1-0.1,3-0.4c0.9-0.3,1.7-0.7,2.3-1.2
			c0.6-0.5,1.1-1.2,1.5-2c0.3-0.8,0.5-1.7,0.5-2.6c0-1.1-0.2-2-0.7-2.7c-0.5-0.8-1.1-1.4-1.9-2c-0.8-0.6-1.7-1.1-2.7-1.6
			s-2.1-1-3.1-1.4c-1.1-0.5-2.1-1-3.1-1.6c-1-0.6-1.9-1.3-2.7-2.1c-0.8-0.8-1.4-1.8-1.9-2.9c-0.5-1.1-0.7-2.4-0.7-3.9
			c0-1.6,0.3-3,0.9-4.2c0.6-1.2,1.4-2.3,2.4-3.1c1-0.8,2.2-1.5,3.6-1.9c1.4-0.4,2.9-0.7,4.5-0.7c0.8,0,1.7,0.1,2.5,0.2
			c0.8,0.1,1.6,0.3,2.4,0.6c0.7,0.2,1.4,0.5,2,0.8c0.6,0.3,1,0.5,1.1,0.7s0.3,0.3,0.4,0.4c0.1,0.1,0.1,0.2,0.1,0.4s0.1,0.4,0.1,0.6
			s0,0.5,0,0.9c0,0.3,0,0.7,0,0.9c0,0.3-0.1,0.5-0.1,0.7c-0.1,0.2-0.1,0.3-0.2,0.4c-0.1,0.1-0.2,0.1-0.4,0.1c-0.2,0-0.5-0.1-1-0.4
			c-0.5-0.3-1-0.6-1.7-0.9c-0.7-0.3-1.4-0.6-2.3-0.9c-0.9-0.3-1.9-0.4-3-0.4c-1,0-2,0.1-2.7,0.4c-0.8,0.3-1.4,0.7-1.9,1.1
			c-0.5,0.5-0.9,1-1.1,1.7s-0.4,1.3-0.4,2c0,1,0.2,1.9,0.7,2.7c0.5,0.8,1.1,1.4,1.9,2c0.8,0.6,1.7,1.1,2.7,1.6c1,0.5,2.1,1,3.1,1.5
			c1.1,0.5,2.1,1,3.1,1.6c1,0.6,1.9,1.3,2.7,2.1c0.8,0.8,1.4,1.8,1.9,2.8C330.8,404.3,331,405.5,331,407z"/>
		<path d="M342.9,381.9c0,1.1-0.2,1.9-0.6,2.3c-0.4,0.4-1.2,0.6-2.3,0.6c-1.1,0-1.9-0.2-2.3-0.6c-0.4-0.4-0.6-1.1-0.6-2.2
			c0-1.1,0.2-1.9,0.6-2.3c0.4-0.4,1.2-0.6,2.3-0.6c1.1,0,1.9,0.2,2.3,0.6C342.7,380.1,342.9,380.8,342.9,381.9z M342.4,416.8
			c0,0.2,0,0.3-0.1,0.4s-0.2,0.2-0.4,0.3c-0.2,0.1-0.4,0.1-0.7,0.2c-0.3,0-0.7,0.1-1.2,0.1c-0.5,0-0.9,0-1.2-0.1
			c-0.3,0-0.6-0.1-0.7-0.2c-0.2-0.1-0.3-0.2-0.4-0.3s-0.1-0.2-0.1-0.4v-26.1c0-0.1,0-0.3,0.1-0.4s0.2-0.2,0.4-0.3s0.4-0.1,0.7-0.2
			c0.3,0,0.7-0.1,1.2-0.1c0.5,0,0.9,0,1.2,0.1c0.3,0,0.6,0.1,0.7,0.2s0.3,0.2,0.4,0.3s0.1,0.2,0.1,0.4V416.8z"/>
		<path d="M373,391.9c0,0.7-0.1,1.2-0.3,1.5c-0.2,0.3-0.4,0.4-0.7,0.4h-3.7c0.7,0.7,1.1,1.5,1.4,2.3c0.3,0.8,0.4,1.7,0.4,2.6
			c0,1.5-0.2,2.8-0.7,4c-0.5,1.2-1.2,2.1-2.1,2.9c-0.9,0.8-2,1.4-3.2,1.8c-1.2,0.4-2.6,0.6-4.1,0.6c-1.1,0-2.1-0.1-3-0.4
			s-1.7-0.6-2.2-1.1c-0.3,0.3-0.6,0.7-0.9,1.2c-0.2,0.4-0.3,1-0.3,1.5c0,0.7,0.3,1.2,0.9,1.7s1.5,0.7,2.5,0.7l6.8,0.3
			c1.3,0,2.5,0.2,3.6,0.5c1.1,0.3,2,0.8,2.8,1.4c0.8,0.6,1.4,1.3,1.9,2.2c0.4,0.9,0.7,1.9,0.7,3c0,1.2-0.3,2.3-0.8,3.4
			c-0.5,1.1-1.3,2-2.3,2.9c-1,0.8-2.4,1.5-4,1.9c-1.6,0.5-3.5,0.7-5.7,0.7c-2.1,0-3.9-0.2-5.4-0.5c-1.5-0.4-2.7-0.8-3.6-1.5
			c-0.9-0.6-1.6-1.4-2.1-2.2c-0.4-0.9-0.6-1.8-0.6-2.8c0-0.6,0.1-1.3,0.2-1.9c0.2-0.6,0.4-1.2,0.7-1.7c0.3-0.5,0.7-1.1,1.2-1.6
			c0.5-0.5,1-1,1.6-1.5c-0.9-0.5-1.6-1.1-2.1-1.8c-0.5-0.7-0.7-1.5-0.7-2.4c0-1.2,0.2-2.2,0.7-3.2s1.1-1.8,1.8-2.5
			c-0.6-0.7-1.1-1.5-1.4-2.4s-0.5-2-0.5-3.3c0-1.5,0.3-2.8,0.8-4c0.5-1.2,1.2-2.2,2.1-3c0.9-0.8,2-1.4,3.2-1.9
			c1.2-0.4,2.6-0.7,4.1-0.7c0.8,0,1.5,0,2.2,0.1s1.3,0.2,1.9,0.4h7.9c0.3,0,0.6,0.2,0.7,0.5C372.9,390.8,373,391.3,373,391.9z
			 M367.9,419.5c0-1.1-0.5-2-1.4-2.6c-0.9-0.6-2.2-0.9-3.7-1l-6.8-0.2c-0.6,0.5-1.1,0.9-1.5,1.4c-0.4,0.4-0.7,0.8-0.9,1.2
			c-0.2,0.4-0.4,0.8-0.5,1.2s-0.1,0.8-0.1,1.2c0,1.3,0.6,2.2,1.9,2.9c1.3,0.6,3.1,1,5.3,1c1.4,0,2.7-0.1,3.6-0.4
			c1-0.3,1.8-0.7,2.4-1.1c0.6-0.5,1-1,1.3-1.6S367.9,420.1,367.9,419.5z M365.5,398.8c0-1.8-0.5-3.2-1.5-4.2c-1-1-2.4-1.5-4.2-1.5
			c-0.9,0-1.7,0.2-2.4,0.5c-0.7,0.3-1.3,0.7-1.7,1.3s-0.8,1.2-1,1.9c-0.2,0.7-0.3,1.4-0.3,2.2c0,1.7,0.5,3.1,1.5,4.1
			c1,1,2.3,1.5,4.1,1.5c0.9,0,1.8-0.1,2.5-0.4c0.7-0.3,1.3-0.7,1.7-1.2c0.5-0.5,0.8-1.1,1-1.8C365.4,400.3,365.5,399.6,365.5,398.8z
			"/>
		<path d="M401.6,416.8c0,0.2,0,0.3-0.1,0.4c-0.1,0.1-0.2,0.2-0.4,0.3c-0.2,0.1-0.4,0.1-0.7,0.2c-0.3,0-0.7,0.1-1.2,0.1
			c-0.5,0-0.9,0-1.2-0.1c-0.3,0-0.5-0.1-0.7-0.2c-0.2-0.1-0.3-0.2-0.4-0.3c-0.1-0.1-0.1-0.2-0.1-0.4v-15.3c0-1.5-0.1-2.7-0.3-3.6
			c-0.2-0.9-0.6-1.7-1-2.3c-0.4-0.7-1-1.2-1.7-1.5c-0.7-0.3-1.5-0.5-2.4-0.5c-1.2,0-2.4,0.4-3.6,1.3c-1.2,0.8-2.5,2.1-3.8,3.7v18.2
			c0,0.2,0,0.3-0.1,0.4s-0.2,0.2-0.4,0.3c-0.2,0.1-0.4,0.1-0.7,0.2c-0.3,0-0.7,0.1-1.2,0.1c-0.5,0-0.9,0-1.2-0.1
			c-0.3,0-0.6-0.1-0.7-0.2c-0.2-0.1-0.3-0.2-0.4-0.3s-0.1-0.2-0.1-0.4v-26.1c0-0.2,0-0.3,0.1-0.4c0.1-0.1,0.2-0.2,0.3-0.3
			c0.2-0.1,0.4-0.1,0.7-0.2s0.6,0,1.1,0c0.4,0,0.8,0,1.1,0c0.3,0,0.5,0.1,0.7,0.2c0.2,0.1,0.3,0.2,0.3,0.3c0.1,0.1,0.1,0.2,0.1,0.4
			v3.4c1.5-1.6,2.9-2.8,4.4-3.6c1.5-0.8,2.9-1.1,4.4-1.1c1.7,0,3.2,0.3,4.4,0.9c1.2,0.6,2.1,1.4,2.9,2.4c0.7,1,1.3,2.1,1.6,3.5
			c0.3,1.3,0.5,2.9,0.5,4.8V416.8z"/>
		<path d="M430,416.9c0,0.2-0.1,0.4-0.2,0.5c-0.2,0.1-0.4,0.2-0.6,0.3c-0.3,0.1-0.7,0.1-1.2,0.1c-0.5,0-0.9,0-1.2-0.1
			s-0.5-0.1-0.7-0.3s-0.2-0.3-0.2-0.5v-2.6c-1.1,1.2-2.4,2.2-3.8,2.8c-1.4,0.7-2.9,1-4.4,1c-1.4,0-2.6-0.2-3.7-0.5s-2.1-0.9-2.8-1.6
			c-0.8-0.7-1.4-1.5-1.8-2.5c-0.4-1-0.7-2.1-0.7-3.4c0-1.5,0.3-2.7,0.9-3.8c0.6-1.1,1.5-2,2.6-2.7c1.1-0.7,2.5-1.3,4.1-1.6
			s3.4-0.5,5.5-0.5h3.6v-2c0-1-0.1-1.9-0.3-2.7c-0.2-0.8-0.6-1.4-1-1.9c-0.5-0.5-1.1-0.9-1.8-1.2c-0.8-0.3-1.7-0.4-2.8-0.4
			c-1.2,0-2.2,0.1-3.2,0.4s-1.8,0.6-2.5,0.9s-1.3,0.6-1.8,0.9c-0.5,0.3-0.8,0.4-1.1,0.4c-0.2,0-0.3,0-0.4-0.1
			c-0.1-0.1-0.2-0.2-0.3-0.3s-0.2-0.4-0.2-0.6c0-0.2-0.1-0.5-0.1-0.8c0-0.5,0-0.9,0.1-1.1c0.1-0.3,0.2-0.5,0.5-0.8s0.7-0.5,1.3-0.9
			c0.6-0.3,1.4-0.6,2.2-0.9c0.8-0.3,1.7-0.5,2.7-0.7s2-0.3,3-0.3c1.9,0,3.5,0.2,4.8,0.6c1.3,0.4,2.4,1,3.2,1.9s1.4,1.8,1.8,3.1
			s0.6,2.6,0.6,4.3V416.9z M425.2,404.9h-4.1c-1.3,0-2.5,0.1-3.4,0.3c-1,0.2-1.8,0.6-2.4,1s-1.1,1-1.4,1.6c-0.3,0.6-0.4,1.3-0.4,2.1
			c0,1.4,0.4,2.4,1.3,3.2c0.9,0.8,2.1,1.2,3.6,1.2c1.3,0,2.4-0.3,3.5-1c1.1-0.6,2.2-1.6,3.4-2.9V404.9z"/>
		<path d="M443.6,416.8c0,0.2,0,0.3-0.1,0.4s-0.2,0.2-0.4,0.3c-0.2,0.1-0.4,0.1-0.7,0.2c-0.3,0-0.7,0.1-1.2,0.1
			c-0.5,0-0.9,0-1.2-0.1c-0.3,0-0.6-0.1-0.7-0.2c-0.2-0.1-0.3-0.2-0.4-0.3s-0.1-0.2-0.1-0.4v-38.7c0-0.2,0-0.3,0.1-0.4
			s0.2-0.2,0.4-0.3c0.2-0.1,0.4-0.1,0.7-0.2c0.3,0,0.7-0.1,1.2-0.1c0.5,0,0.9,0,1.2,0.1c0.3,0,0.6,0.1,0.7,0.2
			c0.2,0.1,0.3,0.2,0.4,0.3s0.1,0.3,0.1,0.4V416.8z"/>
	</g>
	<g class="st7">
		<path d="M251.2,398.7c0,0.4,0,0.7-0.1,0.9c-0.1,0.3-0.1,0.5-0.2,0.7s-0.2,0.3-0.3,0.4c-0.1,0.1-0.3,0.1-0.4,0.1h-9.5v10.6
			c0,0.2,0,0.3-0.1,0.4c-0.1,0.1-0.2,0.2-0.4,0.3c-0.2,0.1-0.4,0.1-0.7,0.2c-0.3,0-0.6,0.1-1,0.1c-0.4,0-0.7,0-1-0.1
			c-0.3,0-0.5-0.1-0.7-0.2c-0.2-0.1-0.3-0.2-0.4-0.3c-0.1-0.1-0.1-0.2-0.1-0.4v-10.6h-9.5c-0.2,0-0.3,0-0.4-0.1
			c-0.1-0.1-0.2-0.2-0.3-0.4s-0.2-0.4-0.2-0.7c-0.1-0.3-0.1-0.6-0.1-0.9c0-0.3,0-0.7,0.1-0.9c0.1-0.3,0.1-0.5,0.2-0.7
			s0.2-0.3,0.3-0.4c0.1-0.1,0.3-0.1,0.4-0.1h9.5v-10.6c0-0.2,0-0.3,0.1-0.4c0.1-0.1,0.2-0.2,0.4-0.3c0.2-0.1,0.4-0.2,0.7-0.2
			c0.3,0,0.6-0.1,1-0.1c0.4,0,0.7,0,1,0.1c0.3,0,0.5,0.1,0.7,0.2s0.3,0.2,0.4,0.3s0.1,0.3,0.1,0.4v10.6h9.5c0.2,0,0.3,0,0.4,0.1
			s0.2,0.2,0.3,0.4c0.1,0.2,0.2,0.4,0.2,0.7C251.2,398.1,251.2,398.4,251.2,398.7z"/>
		<path d="M273.4,414.6c-0.1,0.2-0.2,0.4-0.3,0.5c-0.1,0.1-0.3,0.2-0.6,0.3s-0.6,0.1-0.9,0.2c-0.4,0-0.8,0-1.4,0c-0.4,0-0.8,0-1.1,0
			c-0.3,0-0.6,0-0.8-0.1c-0.2,0-0.4-0.1-0.6-0.1c-0.2,0-0.3-0.1-0.4-0.2c-0.1-0.1-0.2-0.2-0.3-0.3c-0.1-0.1-0.1-0.2-0.2-0.4
			l-12.3-34.8c-0.2-0.4-0.2-0.8-0.2-1s0.1-0.5,0.2-0.6s0.5-0.2,0.8-0.3s0.9-0.1,1.6-0.1c0.5,0,1,0,1.3,0c0.3,0,0.6,0.1,0.7,0.2
			c0.2,0.1,0.3,0.2,0.4,0.3s0.2,0.3,0.2,0.5l10.8,31.6h0l10.5-31.5c0.1-0.2,0.1-0.4,0.2-0.5c0.1-0.1,0.2-0.2,0.4-0.3
			s0.5-0.1,0.8-0.2c0.3,0,0.8,0,1.4,0c0.6,0,1.1,0,1.4,0.1c0.3,0,0.6,0.1,0.7,0.3c0.1,0.1,0.2,0.3,0.1,0.6s-0.1,0.6-0.3,1
			L273.4,414.6z"/>
	</g>
	<g class="st7">
		<path class="st0" d="M500.2-65.9c0.2,0,0.4,0,0.5,0.1c0.2,0.1,0.3,0.2,0.4,0.5s0.2,0.6,0.2,1c0.1,0.4,0.1,0.9,0.1,1.6
			c0,0.8,0,1.5-0.1,2c-0.1,0.5-0.2,0.9-0.4,1.2c-0.2,0.3-0.4,0.5-0.6,0.6l-22.8,16.8h22.8c0.2,0,0.3,0,0.5,0.1
			c0.2,0.1,0.3,0.3,0.4,0.5c0.1,0.2,0.2,0.5,0.2,0.9c0.1,0.4,0.1,0.9,0.1,1.5c0,0.6,0,1-0.1,1.4c-0.1,0.4-0.1,0.7-0.2,1
			c-0.1,0.2-0.2,0.4-0.4,0.5c-0.2,0.1-0.3,0.1-0.5,0.1h-43.8c-0.2,0-0.4,0-0.5-0.1c-0.1-0.1-0.3-0.3-0.3-0.5c-0.1-0.2-0.2-0.6-0.2-1
			c-0.1-0.4-0.1-0.9-0.1-1.4c0-0.6,0-1.1,0.1-1.5c0.1-0.4,0.1-0.7,0.2-0.9c0.1-0.2,0.2-0.4,0.3-0.5c0.1-0.1,0.3-0.1,0.5-0.1h20.3
			l-20.3-16.2c-0.2-0.1-0.4-0.3-0.5-0.5c-0.1-0.2-0.3-0.4-0.3-0.7c-0.1-0.3-0.1-0.6-0.2-1c0-0.4-0.1-0.9-0.1-1.5
			c0-0.6,0-1.1,0.1-1.5c0.1-0.4,0.1-0.7,0.2-0.9c0.1-0.2,0.2-0.4,0.4-0.5c0.1-0.1,0.3-0.1,0.5-0.1c0.3,0,0.6,0.1,0.9,0.2
			c0.3,0.2,0.7,0.4,1.3,0.9l18.1,15.1L498.4-65c0.6-0.4,1-0.6,1.3-0.7C499.8-65.8,500-65.9,500.2-65.9z"/>
		<path class="st0" d="M483.4-88.2h16.8c0.2,0,0.4,0,0.5,0.1c0.1,0.1,0.3,0.3,0.3,0.5c0.1,0.2,0.2,0.5,0.2,0.9s0.1,0.9,0.1,1.4
			c0,0.6,0,1.1-0.1,1.5s-0.1,0.7-0.2,0.9c-0.1,0.2-0.2,0.4-0.3,0.5c-0.1,0.1-0.3,0.1-0.5,0.1h-16.8l-25.8,12.9
			c-0.5,0.3-1,0.4-1.3,0.5s-0.5,0-0.7-0.2c-0.2-0.2-0.3-0.5-0.3-1c0-0.5-0.1-1.1-0.1-1.9c0-0.7,0-1.3,0.1-1.7c0-0.4,0.1-0.8,0.2-1
			c0.1-0.3,0.2-0.5,0.4-0.6c0.2-0.1,0.3-0.3,0.6-0.4l13.1-6.3c1.2-0.6,2.6-1.2,3.9-1.8c1.4-0.6,2.7-1.2,4.1-1.8v-0.1
			c-1.3-0.5-2.7-1.1-4-1.7c-1.3-0.6-2.6-1.2-3.9-1.7l-13.2-6.3c-0.2-0.1-0.4-0.2-0.6-0.3c-0.2-0.1-0.3-0.3-0.4-0.5
			c-0.1-0.2-0.1-0.5-0.2-0.9c0-0.4-0.1-0.9-0.1-1.5c0-0.8,0-1.5,0.1-2c0.1-0.5,0.2-0.8,0.3-1s0.4-0.3,0.7-0.2
			c0.3,0.1,0.7,0.2,1.2,0.5L483.4-88.2z"/>
		<path class="st0" d="M483.3-118.3c0.9,0,1.6,0.1,1.9,0.3c0.4,0.2,0.5,0.5,0.5,0.9v14.7c0,0.4-0.2,0.7-0.5,1
			c-0.4,0.2-1,0.3-1.9,0.3c-0.9,0-1.5-0.1-1.9-0.3c-0.4-0.2-0.5-0.5-0.5-1v-14.7c0-0.2,0-0.4,0.1-0.5c0.1-0.2,0.2-0.3,0.4-0.4
			c0.2-0.1,0.5-0.2,0.8-0.2S482.9-118.3,483.3-118.3z"/>
		<path class="st0" d="M478.2-154.9c3.5,0,6.7,0.3,9.6,0.8s5.4,1.5,7.5,2.8c2.1,1.3,3.7,3,4.8,5c1.1,2.1,1.7,4.6,1.7,7.7
			c0,2.9-0.5,5.3-1.5,7.2s-2.5,3.5-4.5,4.7c-2,1.2-4.4,2.1-7.3,2.6c-2.9,0.5-6.2,0.8-10,0.8c-3.5,0-6.7-0.3-9.6-0.8
			c-2.9-0.6-5.4-1.5-7.5-2.8c-2.1-1.3-3.7-2.9-4.8-5s-1.7-4.6-1.7-7.6c0-2.9,0.5-5.3,1.5-7.3c1-2,2.5-3.5,4.5-4.7
			c2-1.2,4.4-2.1,7.3-2.6C471.1-154.6,474.5-154.9,478.2-154.9z M478.6-148.7c-2.3,0-4.3,0.1-6.1,0.2c-1.8,0.2-3.4,0.4-4.8,0.7
			s-2.6,0.7-3.6,1.2c-1,0.5-1.8,1.1-2.5,1.8c-0.6,0.7-1.1,1.5-1.4,2.4c-0.3,0.9-0.4,1.9-0.4,3.1c0,2,0.5,3.6,1.4,4.9
			c0.9,1.2,2.2,2.2,3.9,2.9s3.6,1.2,5.8,1.5c2.2,0.3,4.6,0.4,7.1,0.4c3.4,0,6.3-0.2,8.7-0.5c2.4-0.4,4.3-0.9,5.8-1.7
			c1.5-0.8,2.6-1.7,3.3-2.9c0.7-1.2,1-2.6,1-4.3c0-1.3-0.2-2.5-0.6-3.5c-0.4-1-1-1.9-1.8-2.6c-0.8-0.7-1.7-1.3-2.8-1.8
			c-1.1-0.5-2.3-0.8-3.7-1.1s-2.8-0.5-4.4-0.6C482-148.6,480.3-148.7,478.6-148.7z"/>
		<path class="st0" d="M498.5-190c0.4,0,0.8,0,1.1,0.1c0.3,0.1,0.6,0.1,0.8,0.2c0.2,0.1,0.4,0.2,0.5,0.4c0.1,0.2,0.2,0.4,0.2,0.6
			v25.2c0,0.3,0,0.6-0.1,0.9c-0.1,0.2-0.2,0.5-0.4,0.6c-0.2,0.2-0.5,0.3-0.8,0.4c-0.4,0.1-0.8,0.1-1.3,0.1c-0.5,0-0.9,0-1.2-0.1
			c-0.4,0-0.7-0.1-0.9-0.2c-0.3-0.1-0.5-0.3-0.8-0.5c-0.3-0.2-0.6-0.4-0.9-0.7l-9.4-9.1c-2.2-2.1-4.1-3.8-5.8-5.1
			c-1.7-1.3-3.3-2.3-4.7-2.9c-1.4-0.7-2.7-1.1-3.8-1.4c-1.2-0.2-2.2-0.3-3.2-0.3c-1,0-2,0.2-2.9,0.5c-0.9,0.3-1.7,0.8-2.4,1.5
			c-0.7,0.6-1.2,1.5-1.6,2.4c-0.4,1-0.6,2.1-0.6,3.3c0,1.5,0.2,2.8,0.6,4c0.4,1.2,0.8,2.2,1.3,3.1c0.5,0.9,0.9,1.6,1.3,2.2
			c0.4,0.6,0.6,1,0.6,1.3c0,0.2,0,0.3-0.1,0.5c-0.1,0.1-0.2,0.2-0.5,0.3c-0.2,0.1-0.5,0.2-0.8,0.2c-0.4,0-0.8,0.1-1.3,0.1
			c-0.4,0-0.7,0-0.9,0s-0.5-0.1-0.7-0.1c-0.2-0.1-0.4-0.1-0.5-0.2c-0.2-0.1-0.4-0.3-0.6-0.6s-0.6-0.8-1-1.5
			c-0.4-0.7-0.8-1.6-1.3-2.6c-0.4-1-0.8-2.2-1-3.5c-0.3-1.3-0.4-2.6-0.4-4c0-2.2,0.3-4.1,0.9-5.8c0.6-1.7,1.5-3,2.6-4.1
			s2.3-1.9,3.8-2.5c1.4-0.5,3-0.8,4.6-0.8c1.5,0,2.9,0.1,4.4,0.4s3,0.8,4.7,1.6c1.7,0.8,3.6,2,5.6,3.6c2.1,1.6,4.4,3.7,7.1,6.3
			l7.5,7.2v-19.9c0-0.2,0.1-0.4,0.2-0.5c0.1-0.2,0.3-0.3,0.5-0.5c0.2-0.1,0.5-0.2,0.8-0.3C497.7-189.9,498.1-190,498.5-190z"/>
		<path class="st0" d="M476.5-226.9c2,0,4,0.1,6,0.4c2,0.2,4,0.6,5.8,1.2c1.9,0.6,3.6,1.3,5.3,2.3c1.6,1,3.1,2.2,4.3,3.6
			s2.2,3.2,2.9,5.2c0.7,2,1,4.3,1,6.9c0,1-0.1,2-0.2,2.9c-0.1,1-0.3,1.8-0.5,2.6c-0.2,0.8-0.4,1.4-0.6,1.9s-0.4,0.9-0.6,1.1
			c-0.2,0.2-0.5,0.4-0.9,0.5c-0.4,0.1-0.9,0.2-1.5,0.2c-0.5,0-0.9,0-1.2-0.1s-0.5-0.1-0.7-0.2c-0.2-0.1-0.3-0.2-0.3-0.3
			c-0.1-0.1-0.1-0.3-0.1-0.5c0-0.3,0.1-0.6,0.3-1.1s0.4-1.1,0.6-1.8c0.2-0.7,0.4-1.6,0.6-2.5c0.2-1,0.3-2,0.3-3.2
			c0-2.3-0.4-4.2-1.3-5.9c-0.9-1.6-2.1-3-3.5-4c-1.5-1-3.2-1.8-5.2-2.3c-2-0.5-4-0.8-6.2-0.8c0.7,1.2,1.4,2.7,1.9,4.5s0.8,3.7,0.8,6
			c0,2.5-0.3,4.7-1,6.4c-0.7,1.7-1.6,3.1-2.8,4.2c-1.2,1-2.6,1.8-4.3,2.3c-1.6,0.5-3.4,0.7-5.4,0.7c-2,0-3.9-0.3-5.8-0.9
			s-3.4-1.5-4.8-2.8c-1.4-1.2-2.5-2.8-3.3-4.8c-0.8-1.9-1.2-4.2-1.2-6.9c0-1.9,0.2-3.6,0.7-5.1c0.5-1.5,1.2-2.7,2.1-3.8
			c0.9-1.1,2-2,3.3-2.8c1.3-0.8,2.7-1.4,4.4-1.8c1.6-0.5,3.4-0.8,5.3-1C472.4-226.8,474.4-226.9,476.5-226.9z M475.9-220.8
			c-3,0-5.5,0.2-7.6,0.6c-2.1,0.4-3.7,1-5,1.8c-1.3,0.8-2.2,1.7-2.8,2.9s-0.8,2.4-0.8,3.9c0,1.5,0.3,2.8,0.8,3.9s1.3,2,2.2,2.7
			c0.9,0.7,2,1.2,3.2,1.5c1.2,0.3,2.4,0.5,3.6,0.5c1.4,0,2.7-0.1,3.8-0.4s2.1-0.8,2.9-1.4c0.8-0.7,1.4-1.5,1.9-2.6
			c0.4-1.1,0.7-2.4,0.7-3.9c0-1.8-0.3-3.5-0.8-5.1S476.7-219.6,475.9-220.8z"/>
	</g>
	<g class="st7">
		<path class="st0" d="M91,204.3c0,0.9-0.3,1.6-0.8,1.9s-1.2,0.5-2.2,0.5H52.6c-1,0-1.8-0.2-2.3-0.5s-0.8-1-0.8-1.9
			c0-0.9,0.3-1.5,0.8-1.9c0.5-0.4,1.3-0.5,2.3-0.5H88c0.5,0,0.9,0,1.2,0.1c0.4,0.1,0.7,0.2,0.9,0.4c0.3,0.2,0.5,0.5,0.6,0.8
			C90.9,203.5,91,203.9,91,204.3z"/>
	</g>
	<g class="st7">
		<path class="st0" d="M449.3,213.2c0,2.1-0.4,4-1.2,5.7c-0.8,1.7-1.9,3.1-3.3,4.3s-3,2-4.9,2.6c-1.9,0.6-3.9,0.9-6.1,0.9
			c-1.5,0-2.9-0.1-4.3-0.4c-1.3-0.3-2.5-0.6-3.5-1c-1-0.4-1.9-0.8-2.6-1.2c-0.7-0.4-1.2-0.7-1.4-1c-0.3-0.3-0.5-0.6-0.6-1.1
			c-0.1-0.4-0.2-1-0.2-1.7c0-0.5,0-0.9,0.1-1.3c0-0.3,0.1-0.6,0.2-0.8c0.1-0.2,0.2-0.4,0.4-0.4c0.1-0.1,0.3-0.1,0.5-0.1
			c0.3,0,0.8,0.2,1.4,0.6c0.6,0.4,1.4,0.8,2.3,1.3c0.9,0.5,2.1,0.9,3.4,1.3c1.3,0.4,2.9,0.6,4.6,0.6c1.3,0,2.5-0.2,3.6-0.5
			s2-0.9,2.8-1.5c0.8-0.6,1.4-1.4,1.8-2.4c0.4-0.9,0.6-2,0.6-3.2c0-1.3-0.3-2.4-0.9-3.3c-0.6-0.9-1.4-1.7-2.3-2.4
			c-1-0.7-2.1-1.3-3.3-1.9c-1.2-0.6-2.5-1.2-3.8-1.8c-1.3-0.6-2.6-1.3-3.8-2c-1.2-0.7-2.3-1.6-3.3-2.6c-1-1-1.7-2.1-2.3-3.5
			s-0.9-2.9-0.9-4.8c0-1.9,0.3-3.6,1-5.1c0.7-1.5,1.7-2.7,2.9-3.8c1.2-1,2.7-1.8,4.4-2.3c1.7-0.5,3.5-0.8,5.5-0.8c1,0,2,0.1,3.1,0.3
			c1,0.2,2,0.4,2.9,0.7c0.9,0.3,1.7,0.6,2.4,1c0.7,0.4,1.2,0.7,1.4,0.9s0.4,0.4,0.4,0.5c0.1,0.1,0.1,0.3,0.2,0.5
			c0,0.2,0.1,0.4,0.1,0.7c0,0.3,0,0.6,0,1.1c0,0.4,0,0.8-0.1,1.1c0,0.3-0.1,0.6-0.2,0.8s-0.2,0.4-0.3,0.5c-0.1,0.1-0.3,0.2-0.4,0.2
			c-0.3,0-0.7-0.2-1.2-0.5c-0.6-0.3-1.2-0.7-2-1.1c-0.8-0.4-1.7-0.8-2.8-1.1c-1.1-0.3-2.3-0.5-3.7-0.5c-1.3,0-2.4,0.2-3.3,0.5
			c-0.9,0.3-1.7,0.8-2.3,1.4s-1.1,1.2-1.4,2s-0.5,1.6-0.5,2.5c0,1.3,0.3,2.4,0.9,3.3c0.6,0.9,1.4,1.7,2.3,2.4c1,0.7,2.1,1.4,3.3,1.9
			c1.2,0.6,2.5,1.2,3.8,1.8c1.3,0.6,2.6,1.3,3.8,2c1.2,0.7,2.4,1.6,3.3,2.5c1,1,1.8,2.1,2.4,3.5C449,209.8,449.3,211.4,449.3,213.2z
			"/>
	</g>
	<rect id="rect884" x="164.8" y="-496.2" width="181.8" height="23.5"/>
	<rect id="rect886" x="171.1" y="-591" width="169.2" height="107.3"/>
	
		<path id="path888" sodipodi:cx="224.69795" sodipodi:cy="595.67407" sodipodi:end="3.1415927" sodipodi:rx="74.364555" sodipodi:ry="59.312115" sodipodi:start="0" sodipodi:type="arc" d="
		M340.3-587.7c0-24.1-16.1-46.4-42.3-58.4c-26.2-12.1-58.4-12.1-84.6,0s-42.3,34.3-42.3,58.4h84.6H340.3z"/>
	<path id="path3796" inkscape:connector-curvature="0" class="st4" d="M323.8-481.4l44,61.4l0,0v341h9.1v-341.3h-0.2l-43.7-61.1
		H323.8z"/>
	<path id="path3794" inkscape:connector-curvature="0" class="st4" d="M238-480.2h9.1V-79H238V-480.2z"/>
	<path id="rect74" inkscape:connector-curvature="0" class="st4" d="M178.2-481.4l-53.8,61.1h-0.1v0.2V-79h9.1v-341.2l53.9-61.3
		L178.2-481.4z"/>
	<path id="rect3800" inkscape:connector-curvature="0" class="st8" d="M253.8-648.6c-13.3,0.3-26.3,3.2-37.8,8.5
		c-24.5,11.3-39.6,32.2-39.7,54.9h0v0.3v93.6h-5.9v14.2H341v-14.2h-5.9V-585v-0.3h0c-0.1-22.7-15.2-43.6-39.7-54.9
		C282.8-646,268.4-648.9,253.8-648.6L253.8-648.6z"/>
</g>
</svg>
