<?xml version="1.0" encoding="utf-8"?>
<!-- Generator: Adobe Illustrator 27.8.0, SVG Export Plug-In . SVG Version: 6.00 Build 0)  -->
<svg version="1.1"
	 id="svg8" xmlns:svg="http://www.w3.org/2000/svg" xmlns:rdf="http://www.w3.org/1999/02/22-rdf-syntax-ns#" xmlns:sodipodi="http://sodipodi.sourceforge.net/DTD/sodipodi-0.dtd" xmlns:dc="http://purl.org/dc/elements/1.1/" xmlns:inkscape="http://www.inkscape.org/namespaces/inkscape" xmlns:cc="http://creativecommons.org/ns#" inkscape:export-xdpi="93" inkscape:export-ydpi="93" inkscape:version="0.92.4 (5da689c313, 2019-01-14)"
	 xmlns="http://www.w3.org/2000/svg" xmlns:xlink="http://www.w3.org/1999/xlink" x="0px" y="0px" viewBox="0 0 463 1081"
	 style="enable-background:new 0 0 463 1081;" xml:space="preserve">
<style type="text/css">
	.st0{fill:#FFFFFF;}
	.st1{fill:#1A1A1A;}
	.st2{opacity:0.99;enable-background:new    ;}
	.st3{fill:#CCCCCC;}
	.st4{opacity:0.99;fill:#808080;enable-background:new    ;}
	.st5{opacity:0.99;fill:#CCCCCC;enable-background:new    ;}
	.st6{opacity:0.99;fill:#FFFFFF;enable-background:new    ;}
	.st7{opacity:0.99;fill:#1A1A1A;enable-background:new    ;}
	.st8{enable-background:new    ;}
</style>
<defs>
	
		<inkscape:perspective  id="perspective876" inkscape:persp3d-origin="105 : 98.999999 : 1" inkscape:vp_x="0 : 148.49999 : 1" inkscape:vp_y="0 : 999.99998 : 0" inkscape:vp_z="210.00001 : 148.49999 : 1" sodipodi:type="inkscape:persp3d">
		</inkscape:perspective>
</defs>
<sodipodi:namedview  bordercolor="#666666" borderopacity="1.0" id="base" inkscape:current-layer="layer1" inkscape:cx="388.76687" inkscape:cy="1790.2623" inkscape:document-units="mm" inkscape:lockguides="true" inkscape:pageopacity="0" inkscape:pageshadow="2" inkscape:window-height="1017" inkscape:window-maximized="1" inkscape:window-width="1920" inkscape:window-x="-8" inkscape:window-y="-8" inkscape:zoom="0.1767767" pagecolor="#323232" showgrid="false" showguides="true" width="500mm">
	</sodipodi:namedview>
<g id="layer1" transform="translate(0.31582593,752.81107)" inkscape:groupmode="layer" inkscape:label="Ebene 1">
	<rect id="rect815" x="-0.3" y="-439.7" width="463.5" height="622.9"/>
	<rect id="rect821" x="109.3" y="81.9" class="st0" width="241.2" height="83"/>
	<path id="rect825" class="st1" d="M125.1,86.5h48.3c8.4,0,15.3,6.8,15.3,15.3v42.4c0,8.4-6.8,15.3-15.3,15.3h-48.3
		c-8.4,0-15.3-6.8-15.3-15.3v-42.4C109.8,93.4,116.7,86.5,125.1,86.5z"/>
	<rect id="rect831" x="64.8" y="-91.5" class="st0" width="330" height="83"/>
	<rect id="rect833" x="64.8" y="-178.1" class="st0" width="330" height="83"/>
	<rect id="rect837" x="64.8" y="-264.8" class="st0" width="330" height="83"/>
	<path id="rect872" class="st1" d="M286.2,86.5h48.3c8.4,0,15.3,6.8,15.3,15.3v42.4c0,8.4-6.8,15.3-15.3,15.3h-48.3
		c-8.4,0-15.3-6.8-15.3-15.3v-42.4C270.9,93.4,277.8,86.5,286.2,86.5z"/>
	<path id="rect874" class="st1" d="M203.7,86.5H256c7.3,0,13.3,6,13.3,13.3v46.3c0,7.3-6,13.3-13.3,13.3h-52.3
		c-7.3,0-13.3-6-13.3-13.3V99.9C190.4,92.5,196.3,86.5,203.7,86.5z"/>
	<rect id="rect892" x="69.4" y="-88.9" class="st2" width="323" height="76.6"/>
	<path id="rect836" class="st3" d="M107.7-88.9h19.7c21.2,0,38.3,17.2,38.3,38.3l0,0c0,21.2-17.2,38.3-38.3,38.3h-19.7
		c-21.2,0-38.3-17.2-38.3-38.3l0,0C69.4-71.8,86.5-88.9,107.7-88.9z"/>
	<rect id="rect850" x="172.1" y="-88.9" class="st3" width="96.4" height="76.6"/>
	<rect id="rect892-7" x="68.3" y="-175.2" class="st2" width="323" height="76.6"/>
	<rect id="rect892-72" x="68.3" y="-261.3" class="st2" width="323" height="76.6"/>
	<path id="rect836-7" class="st3" d="M106.7-174.5h19.5c21,0,38.1,17,38.1,38.1l0,0c0,21-17,38.1-38.1,38.1h-19.5
		c-21,0-38.1-17-38.1-38.1l0,0C68.6-157.5,85.7-174.5,106.7-174.5z"/>
	<path id="rect836-6" class="st3" d="M209.6-174.5h19.5c21,0,38.1,17,38.1,38.1l0,0c0,21-17,38.1-38.1,38.1h-19.5
		c-21,0-38.1-17-38.1-38.1l0,0C171.5-157.5,188.6-174.5,209.6-174.5z"/>
	<path id="rect939" class="st3" d="M210-262h19.7c21.2,0,38.3,17.2,38.3,38.3l0,0c0,21.2-17.2,38.3-38.3,38.3H210
		c-21.2,0-38.3-17.2-38.3-38.3l0,0C171.7-244.9,188.8-262,210-262z"/>
	<path id="rect941" class="st3" d="M106.1-262h19.7c21.2,0,38.3,17.2,38.3,38.3l0,0c0,21.2-17.2,38.3-38.3,38.3h-19.7
		c-21.2,0-38.3-17.2-38.3-38.3l0,0C67.8-244.9,84.9-262,106.1-262z"/>
	<rect id="rect943" x="283.7" y="-172.8" class="st3" width="106.4" height="72"/>
	<rect id="rect945" x="283.7" y="-259.1" class="st3" width="106.4" height="72"/>
	<rect id="rect947" x="144.8" y="126.3" class="st4" width="8.8" height="152.2"/>
	<rect id="rect949" x="225.8" y="126.3" class="st4" width="8.8" height="152.2"/>
	<rect id="rect951" x="305.9" y="126.3" class="st4" width="8.8" height="152.2"/>
	<g id="flowRoot969" transform="translate(0,-47.502517)">
	</g>
	<ellipse id="path1456" class="st5" cx="64.7" cy="-309.7" rx="42.3" ry="41.4"/>
	<ellipse id="ellipse1458" class="st5" cx="394.6" cy="-309.7" rx="42.3" ry="41.4"/>
	<ellipse id="path1460" class="st6" cx="64.6" cy="-310" rx="38.1" ry="37.3"/>
	<ellipse id="ellipse1464" class="st6" cx="394.4" cy="-310" rx="38.1" ry="37.3"/>
	<g id="flowRoot1466" transform="translate(0,-47.502517)">
	</g>
	<circle id="circle1504" class="st6" cx="117" cy="-50.6" r="36"/>
	<circle id="circle1510" class="st6" cx="219.3" cy="-50.6" r="36"/>
	<g id="flowRoot1529" transform="translate(0,-47.502517)">
	</g>
	
		<ellipse id="circle77" transform="matrix(9.853762e-02 -0.9951 0.9951 9.853762e-02 327.5726 -85.7996)" class="st6" cx="116.4" cy="-223.7" rx="36" ry="36"/>
	<circle id="circle79" class="st6" cx="219.3" cy="-223.7" r="36"/>
	<circle id="circle81" class="st6" cx="336.6" cy="-223.1" r="30.9"/>
	<path id="path31-1" inkscape:connector-curvature="0" class="st0" d="M131.4-391c2.9-0.1,3.2-0.1,3.7-0.4c0.3-0.2,0.7-0.6,0.9-0.9
		c0.3-0.5,0.3-0.9,0.4-6.8l0-6.2l6.1,0l6.1,0v7.7c0,8.5-0.1,9.3-1,11.6c-1.2,2.9-2.9,4.3-6.4,5.1c-0.9,0.2-2,0.3-5.6,0.2
		c-2.4,0-5.1-0.1-5.9-0.2l-1.5-0.1l0-5l0-5L131.4-391L131.4-391z M189.7-373.6c52.3,0,65.1,0.1,62.9,0.3l-0.3,0l0.3,0.1
		c0.3,0.1,0.2,0.1-0.3,0.2c-0.4,0-0.2,0.1,0.5,0.1l1.1,0.1l-1.1,0c-0.6,0-1,0.1-0.8,0.1c0.2,0.1,0.3,0.3,0.3,1.5
		c0,1.4,0,1.4,0.5,1.4c0.3,0,0.2,0.1-0.3,0.1c-0.4,0-0.7,0.1-0.7,0.2c0,0.1-20.7,0.2-61.8,0.2h-61.8v-2.2v-2.2L189.7-373.6z
		 M142.6-421.3h6.2v5v5h-6.2h-6.2v-5v-5H142.6z M155.1-402.7c0.4-2.8,1.2-5.3,2.4-7.6c0.4-0.8,0.8-1.5,0.9-1.6c0.1,0,0.4-0.5,0.7-1
		c0.6-1,2.1-2.8,2.4-3c0.1-0.1,0.2-0.2,0.2-0.3c0-0.2,1.5-1.6,2.7-2.5c1.3-0.9,2.3-1.4,4.6-2.3c2.7-1,4.2-1.2,7.4-1.1
		c2.3,0.1,2.9,0.2,4.3,0.6c0.9,0.3,2,0.6,2.5,0.8c0.4,0.2,0.9,0.3,1,0.3c0.1,0,0.8,0.4,1.5,0.8c3,1.7,7,6.3,8.5,9.7
		c2.4,5.3,2.7,10.7,0.9,15.6c-0.8,2.1-1.3,3.3-2.2,4.7c-1,1.7-1.1,1.8-3.7,4.3c-2.9,2.9-5,4.1-8.8,5.1c-1.9,0.5-5.7,0.7-7.8,0.4
		c-2.7-0.4-6.2-1.9-8.4-3.5c-1.1-0.8-2.7-2.2-2.7-2.3c0,0-0.4-0.5-0.8-0.9c-2.2-2.3-4.5-6.7-5.3-10.3
		C155.2-398.1,154.9-401.7,155.1-402.7L155.1-402.7z M166.9-397.5c0.6,2.3,1.8,4.3,3.6,6.1c1.9,1.8,4.8,2.4,7.4,1.6
		c2.8-0.9,5.6-4.1,6.5-7.7c0.5-2,0.5-5-0.1-6.9c-0.8-2.8-2.3-4.9-4.3-6.4c-0.9-0.7-1.4-0.9-2.3-1c-2.1-0.4-4.2-0.2-5.7,0.6
		c-1.3,0.7-3,2.5-4,4.4C166.5-403.9,166.1-400.6,166.9-397.5L166.9-397.5z M201.6-421.2c0.1,0,2.9-0.1,6.2,0l6,0l0,5.5
		c0,5.2,0,5.6,0.4,6.5c0.9,2.3,3.7,3.6,6.2,2.8c1.3-0.4,2.1-1.2,2.8-2.4l0.5-1.1l0-5.7l0-5.7h6.2h6.2l-0.1,6.5
		c-0.1,6-0.1,6.6-0.4,7.8c-0.7,2.5-1.8,4.7-3.2,6.4c-0.4,0.4-0.6,0.8-0.6,0.9c0,0.2-1.6,1.6-2.9,2.6c-1.2,0.9-2.8,1.7-3.7,1.9
		c-0.3,0.1-1.1,0.3-1.9,0.5c-1.3,0.4-1.6,0.4-4.4,0.4c-2.8,0-3.1,0-4.7-0.5c-2.5-0.7-3.3-1-4.9-2.1c-1.9-1.2-3.4-2.8-4.7-4.7
		c-1.8-2.7-2.6-4.7-3-7.8C201.3-411.3,201.3-421.1,201.6-421.2L201.6-421.2z M218.8-390.8h10.1v5.2v5.2h-10.1h-10.1v-5.2v-5.2H218.8
		z M236.1-429.2c0.1,0,0.2-0.3,0.2-0.6c0-0.6,0-0.6,0.8-0.7c0.4-0.1,17.5-0.1,38-0.1l37.2,0l-0.1,2.2l-0.1,2.2h-37.8
		c-20.8,0-38,0-38.1-0.1c-0.2-0.1-0.3-0.4-0.3-1.5C235.9-428.6,236-429.2,236.1-429.2L236.1-429.2z M253.1-404.3h12.8v5.1v5.1h-12.8
		h-12.8v-5.1v-5.1H253.1z M276.1-421.3h6.2v5v5h-6.2h-6.2v-5v-5H276.1z M276.1-405.9h6.2v13v13h-6.2h-6.2v-13v-13L276.1-405.9z
		 M300.7-421.3h12.9v5v5h-12.9h-12.9v-5v-5H300.7z M289.9-405.2c0.1,0,2.8-0.1,6.1-0.1l5.9,0l0.1,6c0.1,8.4-0.3,7.9,6,8l4,0.1v5.2
		v5.2l-1.5,0.2c-2.2,0.3-9.3,0.2-11.2-0.1c-3.3-0.5-5.4-1.5-6.8-3.2c-1.5-1.8-2.2-3.6-2.5-6.5C289.7-392.2,289.7-405.1,289.9-405.2
		L289.9-405.2z M320.9-426.2c0.3-1.1,0.9-2.1,1.6-2.7c2.8-2.5,6.2-2.7,8.9-0.7c1.3,1,1.6,1.3,2.2,2.5c0.4,0.9,0.5,1.2,0.5,2.7
		c0,1.6-0.1,1.8-0.5,2.8c-0.9,2-3.3,3.6-5.6,3.8c-2.2,0.2-3.8-0.5-5.5-2.1C320.9-421.4,320.3-424,320.9-426.2L320.9-426.2z
		 M322.1-421.9c0.6,1.3,2.3,2.6,4.1,3.1c1.8,0.4,3.2,0.1,5.2-1.4c0.5-0.4,0.9-0.8,1.2-1.6c0.5-1,0.6-1.3,0.6-2.5
		c0-1.3,0-1.5-0.6-2.5c-0.5-0.9-0.8-1.3-1.6-1.8c-0.6-0.4-1.4-0.8-1.8-1c-2.8-1-6.2,0.6-7.3,3.3
		C321.5-425.4,321.6-423.2,322.1-421.9L322.1-421.9z M326.7-428.3c1.3,0,2.5,0.1,2.7,0.2c1,0.4,1.5,2.3,0.8,3.2
		c-0.2,0.2-0.6,0.5-0.9,0.6l-0.6,0.2l0.6,0.6c0.3,0.3,0.8,1,1.1,1.5c0.3,0.5,0.6,1,0.7,1c0.4,0.2,0.1,0.4-0.6,0.4l-0.7,0l-1-1.6
		c-1.1-1.7-1.3-1.9-2.5-1.9h-0.7v1.7v1.7l-0.5-0.1l-0.5-0.1l0-3.8l0-3.8L326.7-428.3z M327-425c1.2,0,1.5-0.1,1.9-0.3
		c0.9-0.7,0.4-1.9-0.9-2c-0.6-0.1-2.1,0-2.4,0.1c0,0,0,0.5,0,1.2v1.2L327-425z"/>
	<path id="rect78" inkscape:connector-curvature="0" class="st4" d="M184.9-566.8v73.9l-72.5,211.4h0.1l-0.1,151h8.1l0.1-151
		l72.5-211.4h0v-73.9H184.9z"/>
	<path id="rect76" inkscape:connector-curvature="0" class="st4" d="M226-566.8v73.9l-10.7,211h0.1l-0.3,151.4l8,0l0.3-151.3h0.1
		l10.7-211v-73.9L226-566.8z"/>
	<path id="rect74" inkscape:connector-curvature="0" class="st4" d="M267.2-566.8v73.9l65.4,212.6h0l0,150.8h8.2l0-150.8h0l0-0.1
		v-0.1h0l-65.3-212.4h0v-73.9L267.2-566.8z"/>
	<rect id="rect92" x="283.7" y="-86.3" class="st3" width="106.4" height="72"/>
	<circle id="circle1514" class="st6" cx="336.6" cy="-50.3" r="30.9"/>
	<rect id="rect1512" x="123.2" y="-749.9" class="st7" width="216.1" height="185.2"/>
	<g class="st8">
		<path d="M110.4,289.8c0,0.3,0,0.6-0.1,0.9c0,0.3-0.1,0.5-0.2,0.6c-0.1,0.2-0.2,0.3-0.3,0.4c-0.1,0.1-0.2,0.1-0.3,0.1
			c-0.2,0-0.6-0.2-1-0.5s-1.1-0.7-2-1.1s-1.8-0.8-2.9-1.1s-2.5-0.5-4.1-0.5c-1.9,0-3.5,0.3-5,1s-2.7,1.6-3.8,2.8s-1.8,2.6-2.4,4.3
			c-0.5,1.7-0.8,3.5-0.8,5.4c0,2.2,0.3,4.1,0.9,5.8c0.6,1.7,1.4,3.1,2.5,4.2c1.1,1.2,2.3,2,3.8,2.6c1.5,0.6,3.1,0.9,4.9,0.9
			c1,0,2.1-0.1,3.2-0.4c1.1-0.3,2.1-0.6,3-1.1v-9.9h-7.9c-0.3,0-0.5-0.1-0.7-0.4s-0.2-0.8-0.2-1.4c0-0.3,0-0.6,0.1-0.9
			c0-0.2,0.1-0.4,0.2-0.6s0.2-0.3,0.3-0.3c0.1-0.1,0.2-0.1,0.4-0.1h10.8c0.2,0,0.4,0,0.6,0.1c0.2,0.1,0.4,0.2,0.5,0.3
			c0.2,0.1,0.3,0.3,0.4,0.6c0.1,0.2,0.1,0.5,0.1,0.8v12.9c0,0.5-0.1,0.8-0.2,1.2s-0.5,0.6-1,0.9c-0.5,0.3-1.2,0.5-2,0.8
			c-0.8,0.3-1.6,0.5-2.5,0.8c-0.9,0.2-1.7,0.4-2.6,0.5c-0.9,0.1-1.7,0.2-2.6,0.2c-2.6,0-5-0.4-7-1.2c-2.1-0.8-3.8-2-5.2-3.5
			c-1.4-1.5-2.5-3.3-3.3-5.4c-0.8-2.1-1.1-4.4-1.1-7c0-2.7,0.4-5.1,1.2-7.3s2-4,3.4-5.6c1.5-1.5,3.2-2.7,5.3-3.6
			c2.1-0.8,4.4-1.3,6.9-1.3c1.3,0,2.5,0.1,3.6,0.3c1.1,0.2,2.1,0.5,3,0.8c0.9,0.3,1.6,0.6,2.2,1c0.6,0.4,1,0.7,1.2,0.9
			c0.2,0.2,0.4,0.5,0.5,0.8C110.3,288.9,110.4,289.3,110.4,289.8z"/>
		<path d="M144.4,317.3c0,0.3-0.1,0.6-0.2,0.9c-0.1,0.2-0.3,0.4-0.5,0.6c-0.2,0.2-0.4,0.3-0.6,0.3s-0.5,0.1-0.7,0.1h-1.5
			c-0.5,0-0.9,0-1.2-0.1c-0.4-0.1-0.7-0.3-1-0.5c-0.3-0.3-0.6-0.6-0.9-1s-0.7-1-1-1.7l-10.3-19.3c-0.5-1-1.1-2-1.6-3.1
			c-0.5-1.1-1.1-2.2-1.5-3.2h-0.1c0,1.3,0.1,2.5,0.1,3.9s0,2.6,0,3.9v20.5c0,0.1,0,0.2-0.1,0.4c-0.1,0.1-0.2,0.2-0.4,0.3
			c-0.2,0.1-0.4,0.1-0.7,0.2c-0.3,0-0.7,0.1-1.1,0.1c-0.4,0-0.8,0-1.1-0.1c-0.3,0-0.5-0.1-0.7-0.2s-0.3-0.1-0.4-0.3
			c-0.1-0.1-0.1-0.2-0.1-0.4v-31.3c0-0.7,0.2-1.2,0.6-1.5c0.4-0.3,0.8-0.4,1.3-0.4h2.2c0.5,0,1,0,1.3,0.1c0.4,0.1,0.7,0.2,0.9,0.4
			c0.3,0.2,0.5,0.5,0.8,0.8c0.3,0.4,0.5,0.8,0.8,1.3l8,14.9c0.5,0.9,1,1.8,1.4,2.7s0.9,1.7,1.3,2.6c0.4,0.8,0.8,1.7,1.3,2.5
			c0.4,0.8,0.8,1.6,1.2,2.5h0c0-1.4-0.1-2.8-0.1-4.3c0-1.5,0-2.9,0-4.3V286c0-0.1,0-0.2,0.1-0.3c0.1-0.1,0.2-0.2,0.4-0.3
			c0.2-0.1,0.4-0.1,0.7-0.2c0.3,0,0.7-0.1,1.1-0.1c0.4,0,0.8,0,1.1,0.1c0.3,0,0.5,0.1,0.7,0.2c0.2,0.1,0.3,0.2,0.4,0.3
			c0.1,0.1,0.1,0.2,0.1,0.3V317.3z"/>
		<path d="M179.5,301.7c0,2.9-0.4,5.5-1.1,7.7c-0.8,2.2-1.8,4-3.3,5.5c-1.4,1.4-3.2,2.5-5.3,3.2c-2.1,0.7-4.6,1.1-7.5,1.1h-7.2
			c-0.4,0-0.8-0.1-1.1-0.4c-0.4-0.3-0.5-0.7-0.5-1.4v-30.2c0-0.7,0.2-1.2,0.5-1.4c0.4-0.3,0.7-0.4,1.1-0.4h7.7
			c2.9,0,5.4,0.4,7.4,1.1c2,0.8,3.7,1.9,5.1,3.3s2.4,3.1,3.1,5.2S179.5,299.1,179.5,301.7z M174.8,301.9c0-1.8-0.2-3.5-0.7-5.1
			c-0.5-1.6-1.2-2.9-2.1-4.1c-1-1.2-2.2-2.1-3.7-2.7c-1.5-0.6-3.4-1-5.7-1h-4.6v26.4h4.6c2.2,0,4-0.3,5.5-0.8
			c1.5-0.5,2.7-1.4,3.7-2.5s1.7-2.5,2.2-4.2S174.8,304.2,174.8,301.9z"/>
	</g>
	<g class="st8">
		<path d="M305.8,308.8c0,1.6-0.3,3-0.9,4.2c-0.6,1.2-1.4,2.3-2.4,3.2c-1,0.9-2.3,1.5-3.7,2c-1.4,0.4-2.9,0.7-4.5,0.7
			c-1.1,0-2.2-0.1-3.2-0.3c-1-0.2-1.8-0.4-2.6-0.7c-0.8-0.3-1.4-0.6-1.9-0.9c-0.5-0.3-0.9-0.5-1.1-0.8c-0.2-0.2-0.4-0.5-0.4-0.8
			c-0.1-0.3-0.1-0.8-0.1-1.3c0-0.4,0-0.7,0.1-1c0-0.3,0.1-0.5,0.2-0.6c0.1-0.2,0.2-0.3,0.3-0.3c0.1-0.1,0.2-0.1,0.4-0.1
			c0.2,0,0.6,0.1,1,0.4c0.4,0.3,1,0.6,1.7,1c0.7,0.3,1.5,0.7,2.5,1s2.1,0.5,3.4,0.5c1,0,1.9-0.1,2.7-0.4c0.8-0.3,1.5-0.6,2.1-1.1
			c0.6-0.5,1-1.1,1.3-1.8c0.3-0.7,0.5-1.5,0.5-2.4c0-1-0.2-1.8-0.7-2.5c-0.4-0.7-1-1.3-1.7-1.8c-0.7-0.5-1.5-1-2.5-1.4
			c-0.9-0.4-1.9-0.9-2.8-1.3c-1-0.4-1.9-0.9-2.8-1.5c-0.9-0.5-1.7-1.2-2.4-1.9c-0.7-0.7-1.3-1.6-1.7-2.6s-0.7-2.2-0.7-3.6
			c0-1.4,0.3-2.7,0.8-3.8s1.2-2,2.1-2.8c0.9-0.8,2-1.3,3.3-1.7c1.3-0.4,2.6-0.6,4.1-0.6c0.8,0,1.5,0.1,2.3,0.2
			c0.8,0.1,1.5,0.3,2.1,0.5c0.7,0.2,1.3,0.5,1.8,0.7s0.9,0.5,1,0.7s0.3,0.3,0.3,0.4c0.1,0.1,0.1,0.2,0.1,0.4s0.1,0.3,0.1,0.5
			c0,0.2,0,0.5,0,0.8c0,0.3,0,0.6,0,0.8c0,0.2-0.1,0.5-0.1,0.6c-0.1,0.2-0.1,0.3-0.2,0.4c-0.1,0.1-0.2,0.1-0.3,0.1
			c-0.2,0-0.5-0.1-0.9-0.4c-0.4-0.2-0.9-0.5-1.5-0.8c-0.6-0.3-1.3-0.6-2.1-0.8c-0.8-0.3-1.7-0.4-2.7-0.4c-0.9,0-1.8,0.1-2.5,0.4
			c-0.7,0.3-1.3,0.6-1.7,1c-0.5,0.4-0.8,0.9-1,1.5c-0.2,0.6-0.3,1.2-0.3,1.8c0,0.9,0.2,1.8,0.7,2.4c0.4,0.7,1,1.3,1.7,1.8
			c0.7,0.5,1.5,1,2.5,1.4c0.9,0.4,1.9,0.9,2.8,1.3c1,0.4,1.9,0.9,2.8,1.5c0.9,0.5,1.8,1.2,2.5,1.9c0.7,0.7,1.3,1.6,1.8,2.6
			C305.6,306.3,305.8,307.4,305.8,308.8z"/>
		<path d="M316.6,286.1c0,1-0.2,1.7-0.6,2.1c-0.4,0.4-1.1,0.6-2.1,0.6c-1,0-1.7-0.2-2.1-0.5c-0.4-0.4-0.6-1-0.6-2
			c0-1,0.2-1.7,0.6-2.1c0.4-0.4,1.1-0.6,2.1-0.6c1,0,1.7,0.2,2.1,0.5S316.6,285.1,316.6,286.1z M316.1,317.6c0,0.1,0,0.3-0.1,0.4
			c-0.1,0.1-0.2,0.2-0.3,0.2c-0.2,0.1-0.4,0.1-0.7,0.2s-0.6,0.1-1.1,0.1c-0.4,0-0.8,0-1-0.1s-0.5-0.1-0.7-0.2
			c-0.2-0.1-0.3-0.2-0.3-0.2c-0.1-0.1-0.1-0.2-0.1-0.4V294c0-0.1,0-0.2,0.1-0.3c0.1-0.1,0.2-0.2,0.3-0.3c0.2-0.1,0.4-0.1,0.7-0.2
			s0.6-0.1,1-0.1c0.4,0,0.8,0,1.1,0.1s0.5,0.1,0.7,0.2c0.2,0.1,0.3,0.2,0.3,0.3c0.1,0.1,0.1,0.2,0.1,0.3V317.6z"/>
		<path d="M343.8,295.1c0,0.6-0.1,1.1-0.2,1.3c-0.2,0.3-0.4,0.4-0.6,0.4h-3.4c0.6,0.6,1,1.3,1.3,2.1c0.2,0.8,0.4,1.6,0.4,2.4
			c0,1.4-0.2,2.6-0.7,3.6c-0.4,1-1.1,1.9-1.9,2.7c-0.8,0.7-1.8,1.3-2.9,1.7c-1.1,0.4-2.4,0.6-3.7,0.6c-1,0-1.9-0.1-2.7-0.4
			c-0.9-0.3-1.5-0.6-2-1c-0.3,0.3-0.6,0.7-0.8,1.1c-0.2,0.4-0.3,0.9-0.3,1.4c0,0.6,0.3,1.1,0.9,1.5c0.6,0.4,1.3,0.6,2.3,0.7l6.2,0.3
			c1.2,0,2.2,0.2,3.2,0.5c1,0.3,1.8,0.7,2.5,1.2s1.3,1.2,1.7,2s0.6,1.7,0.6,2.7c0,1.1-0.2,2.1-0.7,3.1c-0.5,1-1.1,1.8-2.1,2.6
			c-0.9,0.7-2.1,1.3-3.6,1.8c-1.5,0.4-3.2,0.6-5.1,0.6c-1.9,0-3.5-0.2-4.9-0.5s-2.4-0.8-3.3-1.3c-0.9-0.6-1.5-1.2-1.9-2
			c-0.4-0.8-0.6-1.6-0.6-2.5c0-0.6,0.1-1.1,0.2-1.7c0.1-0.5,0.4-1.1,0.6-1.5s0.6-1,1.1-1.4c0.4-0.4,0.9-0.9,1.5-1.3
			c-0.9-0.4-1.5-1-1.9-1.7c-0.4-0.7-0.6-1.4-0.6-2.1c0-1.1,0.2-2,0.7-2.9s1-1.6,1.6-2.3c-0.5-0.6-1-1.4-1.3-2.2
			c-0.3-0.8-0.5-1.8-0.5-2.9c0-1.3,0.2-2.6,0.7-3.6c0.5-1.1,1.1-2,1.9-2.7c0.8-0.7,1.8-1.3,2.9-1.7s2.4-0.6,3.7-0.6
			c0.7,0,1.4,0,2,0.1c0.6,0.1,1.2,0.2,1.7,0.3h7.1c0.3,0,0.5,0.1,0.7,0.4C343.7,294.1,343.8,294.5,343.8,295.1z M339.2,320
			c0-1-0.4-1.8-1.2-2.3c-0.8-0.5-2-0.8-3.4-0.9l-6.1-0.2c-0.6,0.4-1,0.9-1.4,1.2c-0.4,0.4-0.6,0.8-0.9,1.1c-0.2,0.4-0.4,0.7-0.4,1.1
			c-0.1,0.3-0.1,0.7-0.1,1.1c0,1.1,0.6,2,1.7,2.6c1.2,0.6,2.8,0.9,4.8,0.9c1.3,0,2.4-0.1,3.3-0.4c0.9-0.3,1.6-0.6,2.1-1
			c0.5-0.4,0.9-0.9,1.2-1.4C339.1,321.2,339.2,320.6,339.2,320z M337.1,301.3c0-1.6-0.4-2.9-1.3-3.8c-0.9-0.9-2.1-1.3-3.8-1.3
			c-0.8,0-1.6,0.1-2.2,0.4c-0.6,0.3-1.1,0.7-1.5,1.2c-0.4,0.5-0.7,1.1-0.9,1.7c-0.2,0.6-0.3,1.3-0.3,2c0,1.6,0.4,2.8,1.3,3.7
			c0.9,0.9,2.1,1.3,3.7,1.3c0.9,0,1.6-0.1,2.2-0.4c0.6-0.3,1.1-0.6,1.6-1.1c0.4-0.5,0.7-1,0.9-1.7S337.1,302,337.1,301.3z"/>
		<path d="M369.7,317.6c0,0.1,0,0.3-0.1,0.4c-0.1,0.1-0.2,0.2-0.3,0.2c-0.2,0.1-0.4,0.1-0.7,0.2c-0.3,0-0.6,0.1-1,0.1
			c-0.4,0-0.8,0-1.1-0.1c-0.3,0-0.5-0.1-0.7-0.2c-0.2-0.1-0.3-0.2-0.3-0.2c-0.1-0.1-0.1-0.2-0.1-0.4v-13.8c0-1.3-0.1-2.4-0.3-3.2
			c-0.2-0.8-0.5-1.5-0.9-2.1c-0.4-0.6-0.9-1-1.6-1.4s-1.4-0.5-2.2-0.5c-1.1,0-2.2,0.4-3.2,1.2c-1.1,0.8-2.2,1.9-3.4,3.4v16.5
			c0,0.1,0,0.3-0.1,0.4c-0.1,0.1-0.2,0.2-0.3,0.2c-0.2,0.1-0.4,0.1-0.7,0.2s-0.6,0.1-1.1,0.1c-0.4,0-0.8,0-1-0.1s-0.5-0.1-0.7-0.2
			c-0.2-0.1-0.3-0.2-0.3-0.2c-0.1-0.1-0.1-0.2-0.1-0.4V294c0-0.1,0-0.3,0.1-0.4c0.1-0.1,0.2-0.2,0.3-0.3c0.2-0.1,0.4-0.1,0.6-0.2
			c0.2,0,0.6,0,1,0c0.4,0,0.7,0,1,0c0.3,0,0.5,0.1,0.6,0.2c0.1,0.1,0.2,0.2,0.3,0.3c0.1,0.1,0.1,0.2,0.1,0.4v3.1
			c1.3-1.5,2.7-2.6,4-3.3s2.7-1,4-1c1.6,0,2.9,0.3,4,0.8c1.1,0.5,1.9,1.2,2.6,2.1c0.7,0.9,1.1,1.9,1.4,3.1c0.3,1.2,0.4,2.6,0.4,4.3
			V317.6z"/>
		<path d="M395.4,317.7c0,0.2-0.1,0.4-0.2,0.5c-0.1,0.1-0.3,0.2-0.6,0.2c-0.2,0.1-0.6,0.1-1.1,0.1c-0.5,0-0.8,0-1.1-0.1
			c-0.3-0.1-0.5-0.1-0.6-0.2s-0.2-0.3-0.2-0.5v-2.4c-1,1.1-2.2,2-3.4,2.6c-1.3,0.6-2.6,0.9-4,0.9c-1.2,0-2.4-0.2-3.4-0.5
			c-1-0.3-1.9-0.8-2.6-1.4c-0.7-0.6-1.3-1.4-1.7-2.3c-0.4-0.9-0.6-1.9-0.6-3c0-1.3,0.3-2.5,0.8-3.5c0.5-1,1.3-1.8,2.3-2.4
			c1-0.6,2.3-1.1,3.7-1.5s3.1-0.5,5-0.5h3.2v-1.8c0-0.9-0.1-1.7-0.3-2.4c-0.2-0.7-0.5-1.3-0.9-1.7c-0.4-0.5-1-0.8-1.7-1
			c-0.7-0.2-1.5-0.4-2.5-0.4c-1.1,0-2,0.1-2.9,0.4c-0.8,0.3-1.6,0.5-2.2,0.8c-0.6,0.3-1.2,0.6-1.6,0.8c-0.4,0.3-0.7,0.4-1,0.4
			c-0.1,0-0.3,0-0.4-0.1c-0.1-0.1-0.2-0.2-0.3-0.3c-0.1-0.1-0.1-0.3-0.2-0.5s-0.1-0.5-0.1-0.7c0-0.4,0-0.8,0.1-1
			c0.1-0.3,0.2-0.5,0.4-0.7c0.2-0.2,0.6-0.5,1.2-0.8c0.6-0.3,1.2-0.6,2-0.8c0.8-0.3,1.6-0.5,2.5-0.6c0.9-0.2,1.8-0.2,2.7-0.2
			c1.7,0,3.1,0.2,4.3,0.6c1.2,0.4,2.1,0.9,2.9,1.7c0.7,0.7,1.3,1.7,1.6,2.8c0.3,1.1,0.5,2.4,0.5,3.9V317.7z M391.1,306.9h-3.7
			c-1.2,0-2.2,0.1-3.1,0.3s-1.6,0.5-2.2,0.9c-0.6,0.4-1,0.9-1.3,1.4c-0.3,0.6-0.4,1.2-0.4,1.9c0,1.2,0.4,2.2,1.2,2.9
			c0.8,0.7,1.9,1.1,3.3,1.1c1.1,0,2.2-0.3,3.2-0.9c1-0.6,2-1.5,3.1-2.6V306.9z"/>
		<path d="M407.6,317.6c0,0.1,0,0.3-0.1,0.4c-0.1,0.1-0.2,0.2-0.3,0.2c-0.2,0.1-0.4,0.1-0.7,0.2s-0.6,0.1-1.1,0.1
			c-0.4,0-0.8,0-1-0.1s-0.5-0.1-0.7-0.2c-0.2-0.1-0.3-0.2-0.3-0.2c-0.1-0.1-0.1-0.2-0.1-0.4v-35c0-0.1,0-0.3,0.1-0.4
			c0.1-0.1,0.2-0.2,0.3-0.3c0.2-0.1,0.4-0.1,0.7-0.2s0.6-0.1,1-0.1c0.4,0,0.8,0,1.1,0.1s0.5,0.1,0.7,0.2c0.2,0.1,0.3,0.2,0.3,0.3
			c0.1,0.1,0.1,0.2,0.1,0.4V317.6z"/>
	</g>
	<g class="st8">
		<path d="M227.7,304.4c0,0.3,0,0.6-0.1,0.9s-0.1,0.4-0.2,0.6c-0.1,0.2-0.2,0.3-0.3,0.3c-0.1,0.1-0.3,0.1-0.4,0.1h-8.6v9.5
			c0,0.1,0,0.3-0.1,0.4c-0.1,0.1-0.2,0.2-0.3,0.2c-0.1,0.1-0.3,0.1-0.6,0.2c-0.2,0-0.5,0.1-0.9,0.1c-0.3,0-0.7,0-0.9-0.1
			c-0.3,0-0.5-0.1-0.6-0.2c-0.1-0.1-0.3-0.2-0.3-0.2c-0.1-0.1-0.1-0.2-0.1-0.4v-9.5h-8.6c-0.2,0-0.3,0-0.4-0.1
			c-0.1-0.1-0.2-0.2-0.3-0.3c-0.1-0.2-0.2-0.4-0.2-0.6c-0.1-0.2-0.1-0.5-0.1-0.9c0-0.3,0-0.6,0.1-0.8c0.1-0.2,0.1-0.4,0.2-0.6
			c0.1-0.2,0.2-0.3,0.3-0.3c0.1-0.1,0.2-0.1,0.4-0.1h8.6V293c0-0.1,0-0.3,0.1-0.4c0.1-0.1,0.2-0.2,0.3-0.3c0.1-0.1,0.3-0.1,0.6-0.2
			c0.3,0,0.6-0.1,0.9-0.1c0.4,0,0.7,0,0.9,0.1s0.4,0.1,0.6,0.2c0.1,0.1,0.3,0.2,0.3,0.3c0.1,0.1,0.1,0.2,0.1,0.4v9.5h8.6
			c0.1,0,0.3,0,0.4,0.1c0.1,0.1,0.2,0.2,0.3,0.3c0.1,0.2,0.2,0.4,0.2,0.6C227.7,303.8,227.7,304,227.7,304.4z"/>
		<path d="M247.8,318.7c-0.1,0.2-0.2,0.3-0.3,0.5s-0.3,0.2-0.5,0.3c-0.2,0.1-0.5,0.1-0.8,0.1s-0.8,0-1.3,0c-0.4,0-0.7,0-1,0
			c-0.3,0-0.5,0-0.7-0.1c-0.2,0-0.4-0.1-0.5-0.1c-0.1,0-0.3-0.1-0.4-0.2c-0.1-0.1-0.2-0.2-0.2-0.2c-0.1-0.1-0.1-0.2-0.2-0.4
			l-11.1-31.5c-0.1-0.4-0.2-0.7-0.2-0.9c0-0.2,0.1-0.4,0.2-0.5c0.2-0.1,0.4-0.2,0.8-0.2c0.3,0,0.8-0.1,1.4-0.1c0.5,0,0.9,0,1.2,0
			c0.3,0,0.5,0.1,0.7,0.1c0.2,0.1,0.3,0.2,0.4,0.3c0.1,0.1,0.2,0.3,0.2,0.4l9.7,28.5h0l9.5-28.5c0.1-0.2,0.1-0.3,0.2-0.5
			c0.1-0.1,0.2-0.2,0.4-0.3c0.2-0.1,0.4-0.1,0.7-0.1s0.7,0,1.3,0c0.5,0,1,0,1.3,0.1c0.3,0,0.5,0.1,0.6,0.2c0.1,0.1,0.2,0.3,0.1,0.5
			c0,0.2-0.1,0.5-0.2,0.9L247.8,318.7z"/>
	</g>
	<g class="st8">
		<path class="st0" d="M451.1-120.1c0.2,0,0.3,0,0.5,0.1c0.1,0.1,0.2,0.2,0.3,0.4c0.1,0.2,0.2,0.5,0.2,0.9c0.1,0.4,0.1,0.8,0.1,1.4
			c0,0.7,0,1.4-0.1,1.8s-0.2,0.8-0.4,1.1s-0.4,0.4-0.6,0.6l-20.6,15.2h20.6c0.1,0,0.3,0,0.4,0.1s0.2,0.2,0.3,0.4
			c0.1,0.2,0.1,0.5,0.2,0.8c0.1,0.4,0.1,0.8,0.1,1.3c0,0.5,0,0.9-0.1,1.3c-0.1,0.4-0.1,0.6-0.2,0.9c-0.1,0.2-0.2,0.4-0.3,0.4
			s-0.3,0.1-0.4,0.1h-39.6c-0.2,0-0.3,0-0.4-0.1c-0.1-0.1-0.2-0.2-0.3-0.4c-0.1-0.2-0.1-0.5-0.2-0.9c-0.1-0.4-0.1-0.8-0.1-1.3
			c0-0.5,0-1,0.1-1.3c0.1-0.4,0.1-0.6,0.2-0.8c0.1-0.2,0.2-0.4,0.3-0.4c0.1-0.1,0.3-0.1,0.4-0.1h18.3l-18.3-14.6
			c-0.2-0.1-0.4-0.3-0.5-0.4c-0.1-0.2-0.2-0.4-0.3-0.6c-0.1-0.2-0.1-0.5-0.2-0.9c0-0.4-0.1-0.8-0.1-1.4c0-0.6,0-1,0.1-1.3
			c0.1-0.3,0.1-0.6,0.2-0.8c0.1-0.2,0.2-0.3,0.3-0.4c0.1-0.1,0.3-0.1,0.4-0.1c0.3,0,0.6,0.1,0.8,0.2c0.3,0.1,0.7,0.4,1.1,0.8
			l16.4,13.7l19.6-14.7c0.6-0.4,0.9-0.6,1.1-0.7C450.8-120,451-120.1,451.1-120.1z"/>
		<path class="st0" d="M436-140.2h15.2c0.2,0,0.3,0,0.4,0.1c0.1,0.1,0.2,0.2,0.3,0.4c0.1,0.2,0.1,0.5,0.2,0.9s0.1,0.8,0.1,1.3
			c0,0.5,0,1-0.1,1.3c-0.1,0.3-0.1,0.6-0.2,0.9c-0.1,0.2-0.2,0.4-0.3,0.5c-0.1,0.1-0.3,0.1-0.4,0.1H436l-23.3,11.7
			c-0.5,0.2-0.9,0.4-1.1,0.4c-0.3,0.1-0.5,0-0.6-0.2c-0.1-0.2-0.2-0.4-0.3-0.9c0-0.4-0.1-1-0.1-1.7c0-0.6,0-1.2,0.1-1.5
			c0-0.4,0.1-0.7,0.2-0.9c0.1-0.2,0.2-0.4,0.3-0.5c0.1-0.1,0.3-0.2,0.5-0.3l11.9-5.7c1.1-0.5,2.3-1.1,3.5-1.6s2.5-1.1,3.7-1.6v-0.1
			c-1.2-0.5-2.4-1-3.6-1.5c-1.2-0.5-2.4-1-3.6-1.6l-11.9-5.7c-0.2-0.1-0.4-0.2-0.5-0.3s-0.3-0.3-0.3-0.5s-0.1-0.5-0.2-0.8
			c0-0.4-0.1-0.8-0.1-1.4c0-0.8,0-1.4,0.1-1.8c0.1-0.4,0.2-0.7,0.3-0.9s0.4-0.2,0.6-0.2c0.3,0.1,0.6,0.2,1.1,0.4L436-140.2z"/>
		<path class="st0" d="M435.9-167.5c0.8,0,1.4,0.1,1.7,0.3s0.5,0.5,0.5,0.8v13.3c0,0.4-0.2,0.7-0.5,0.9s-0.9,0.3-1.7,0.3
			c-0.8,0-1.4-0.1-1.7-0.3c-0.3-0.2-0.5-0.5-0.5-0.9v-13.3c0-0.2,0-0.3,0.1-0.5c0.1-0.1,0.2-0.3,0.4-0.4c0.2-0.1,0.4-0.2,0.7-0.2
			C435.2-167.5,435.5-167.5,435.9-167.5z"/>
		<path class="st0" d="M431.3-200.6c3.2,0,6.1,0.2,8.7,0.7c2.6,0.5,4.9,1.3,6.7,2.5s3.3,2.7,4.4,4.5c1,1.9,1.5,4.2,1.5,6.9
			c0,2.6-0.5,4.8-1.4,6.6c-0.9,1.8-2.3,3.2-4.1,4.3c-1.8,1.1-4,1.9-6.6,2.3c-2.6,0.5-5.6,0.7-9,0.7c-3.1,0-6-0.3-8.7-0.8
			c-2.6-0.5-4.9-1.3-6.8-2.5c-1.9-1.1-3.3-2.7-4.4-4.5c-1-1.9-1.5-4.2-1.5-6.9c0-2.6,0.5-4.8,1.4-6.6c0.9-1.8,2.3-3.2,4.1-4.3
			c1.8-1.1,4-1.9,6.6-2.3C424.9-200.3,427.9-200.6,431.3-200.6z M431.7-195c-2.1,0-3.9,0.1-5.6,0.2c-1.6,0.1-3.1,0.4-4.3,0.7
			c-1.3,0.3-2.3,0.7-3.2,1.1s-1.6,1-2.2,1.6c-0.6,0.6-1,1.4-1.3,2.2c-0.3,0.8-0.4,1.7-0.4,2.8c0,1.8,0.4,3.3,1.3,4.4s2,2,3.5,2.7
			c1.5,0.6,3.2,1.1,5.2,1.3c2,0.2,4.1,0.4,6.4,0.4c3.1,0,5.7-0.2,7.9-0.5c2.2-0.3,3.9-0.8,5.3-1.5c1.4-0.7,2.4-1.6,3-2.6
			c0.6-1.1,0.9-2.4,0.9-3.9c0-1.2-0.2-2.2-0.6-3.1c-0.4-0.9-0.9-1.7-1.6-2.3c-0.7-0.6-1.6-1.2-2.6-1.6c-1-0.4-2.1-0.8-3.3-1
			c-1.2-0.3-2.5-0.4-3.9-0.5S433.2-195,431.7-195z"/>
		<path class="st0" d="M440.2-232c1.9,0,3.6,0.3,5.1,1c1.5,0.7,2.8,1.6,3.9,2.8c1.1,1.2,1.9,2.8,2.5,4.6c0.6,1.8,0.9,3.8,0.9,6.1
			c0,1.4-0.1,2.7-0.3,3.9c-0.2,1.2-0.5,2.3-0.8,3.2c-0.3,0.9-0.6,1.7-1,2.3c-0.3,0.6-0.6,1-0.7,1.2c-0.1,0.2-0.3,0.3-0.4,0.4
			s-0.3,0.2-0.5,0.2c-0.2,0.1-0.5,0.1-0.8,0.1c-0.3,0-0.7,0-1.1,0c-0.8,0-1.3-0.1-1.6-0.2s-0.4-0.4-0.4-0.7c0-0.2,0.2-0.6,0.5-1.2
			c0.3-0.6,0.7-1.3,1.1-2.2c0.4-0.9,0.8-2,1.1-3.2c0.3-1.2,0.5-2.6,0.5-4c0-1.4-0.2-2.7-0.5-3.8c-0.4-1.1-0.9-2-1.5-2.7
			c-0.7-0.7-1.4-1.3-2.3-1.7c-0.9-0.4-1.9-0.6-3-0.6c-1.2,0-2.2,0.2-3.2,0.7c-0.9,0.5-1.7,1.2-2.4,2.1c-0.7,0.9-1.2,2-1.6,3.4
			c-0.4,1.3-0.5,2.8-0.5,4.5v4.1c0,0.2,0,0.3-0.1,0.5c-0.1,0.2-0.2,0.3-0.4,0.4c-0.2,0.1-0.4,0.2-0.7,0.3s-0.6,0.1-1.1,0.1
			c-0.4,0-0.7,0-1-0.1c-0.3-0.1-0.5-0.2-0.6-0.3c-0.2-0.1-0.3-0.2-0.4-0.4s-0.1-0.3-0.1-0.5v-3.6c0-1.4-0.2-2.7-0.5-3.8
			c-0.4-1.1-0.9-2.1-1.6-2.8c-0.7-0.8-1.5-1.4-2.4-1.8s-2-0.6-3.2-0.6c-0.9,0-1.7,0.1-2.4,0.4s-1.5,0.7-2,1.2s-1,1.3-1.4,2.1
			c-0.3,0.9-0.5,1.9-0.5,3c0,1.2,0.2,2.4,0.6,3.4c0.4,1,0.8,2,1.2,2.8c0.4,0.8,0.8,1.5,1.2,2c0.4,0.5,0.6,0.9,0.6,1.1
			c0,0.1,0,0.3-0.1,0.4c-0.1,0.1-0.2,0.2-0.3,0.3c-0.2,0.1-0.4,0.1-0.7,0.2c-0.3,0-0.7,0-1.1,0c-0.3,0-0.6,0-0.8,0
			c-0.2,0-0.5-0.1-0.6-0.1s-0.3-0.1-0.5-0.2c-0.1-0.1-0.3-0.2-0.5-0.4c-0.2-0.2-0.5-0.6-0.9-1.2c-0.4-0.6-0.8-1.4-1.1-2.3
			s-0.7-1.9-0.9-3.1c-0.3-1.2-0.4-2.5-0.4-3.8c0-1.9,0.2-3.6,0.7-5c0.5-1.4,1.2-2.7,2.1-3.6c0.9-1,2-1.7,3.2-2.2s2.6-0.7,4.1-0.7
			c1.3,0,2.5,0.2,3.6,0.5c1.1,0.3,2.1,0.8,3,1.5c0.9,0.7,1.6,1.5,2.2,2.4s1,2.1,1.3,3.3h0.1c0.1-1.4,0.5-2.7,1.1-3.9
			c0.6-1.2,1.3-2.2,2.1-3c0.9-0.9,1.8-1.5,3-2S438.9-232,440.2-232z"/>
		<path class="st0" d="M438.7-265.2c2.2,0,4.2,0.4,5.9,1.1s3.2,1.8,4.4,3.2s2.1,3,2.7,4.9c0.6,1.9,0.9,4,0.9,6.3
			c0,1.3-0.1,2.5-0.3,3.6s-0.4,2.2-0.7,3.1c-0.3,0.9-0.5,1.6-0.8,2.2c-0.3,0.6-0.5,0.9-0.6,1.1c-0.1,0.2-0.3,0.3-0.4,0.3
			c-0.1,0.1-0.3,0.1-0.5,0.2s-0.4,0.1-0.7,0.1c-0.3,0-0.6,0-1,0c-0.4,0-0.7,0-1,0c-0.3,0-0.5-0.1-0.7-0.2s-0.3-0.2-0.4-0.3
			c-0.1-0.1-0.1-0.2-0.1-0.4c0-0.2,0.1-0.5,0.4-1c0.3-0.4,0.6-1,0.9-1.8s0.6-1.7,0.9-2.8c0.3-1.1,0.4-2.4,0.4-4
			c0-1.4-0.2-2.7-0.5-3.9c-0.3-1.2-0.9-2.2-1.6-3.1c-0.7-0.9-1.6-1.5-2.7-2c-1.1-0.5-2.4-0.7-4-0.7c-1.3,0-2.5,0.2-3.5,0.6
			c-1,0.4-1.9,1.1-2.5,1.9s-1.2,2-1.5,3.3c-0.3,1.3-0.5,2.9-0.5,4.7c0,1.3,0.1,2.4,0.2,3.3c0.1,0.9,0.2,1.8,0.2,2.6
			c0,0.6-0.1,1-0.4,1.3c-0.3,0.3-0.8,0.4-1.6,0.4h-16.8c-0.7,0-1.2-0.2-1.6-0.5c-0.3-0.3-0.5-0.8-0.5-1.4v-18.3c0-0.2,0-0.3,0.1-0.5
			s0.2-0.3,0.4-0.4s0.4-0.2,0.7-0.2c0.3-0.1,0.6-0.1,1.1-0.1c0.8,0,1.4,0.1,1.8,0.3c0.4,0.2,0.6,0.5,0.6,0.9v14.8h11.6
			c-0.1-0.7-0.2-1.5-0.2-2.2c0-0.7,0-1.6,0-2.6c0-2.3,0.3-4.3,0.8-6c0.6-1.7,1.4-3.1,2.4-4.3c1-1.1,2.3-2,3.7-2.6
			C435.3-264.9,437-265.2,438.7-265.2z"/>
	</g>
	<g class="st8">
		<path class="st0" d="M406.5,132.3c0,1.9-0.4,3.7-1.1,5.2s-1.7,2.8-3,3.8s-2.8,1.8-4.5,2.4c-1.7,0.5-3.6,0.8-5.5,0.8
			c-1.4,0-2.7-0.1-3.8-0.4c-1.2-0.2-2.2-0.5-3.2-0.9c-0.9-0.3-1.7-0.7-2.3-1.1c-0.6-0.4-1.1-0.7-1.3-0.9s-0.4-0.6-0.5-1
			c-0.1-0.4-0.2-0.9-0.2-1.6c0-0.5,0-0.9,0.1-1.2c0-0.3,0.1-0.6,0.2-0.7c0.1-0.2,0.2-0.3,0.3-0.4c0.1-0.1,0.3-0.1,0.4-0.1
			c0.3,0,0.7,0.2,1.3,0.5c0.5,0.4,1.2,0.8,2.1,1.2c0.9,0.4,1.9,0.8,3.1,1.2s2.6,0.6,4.2,0.6c1.2,0,2.3-0.2,3.3-0.5
			c1-0.3,1.8-0.8,2.6-1.4c0.7-0.6,1.3-1.3,1.6-2.2s0.6-1.8,0.6-2.9c0-1.2-0.3-2.2-0.8-3c-0.5-0.8-1.2-1.6-2.1-2.2
			c-0.9-0.6-1.9-1.2-3-1.7c-1.1-0.5-2.3-1.1-3.4-1.6c-1.2-0.5-2.3-1.1-3.4-1.8s-2.1-1.4-3-2.3c-0.9-0.9-1.6-1.9-2.1-3.1
			c-0.5-1.2-0.8-2.6-0.8-4.3c0-1.7,0.3-3.3,0.9-4.6c0.6-1.4,1.5-2.5,2.6-3.4s2.4-1.6,4-2.1c1.5-0.5,3.2-0.7,5-0.7
			c0.9,0,1.8,0.1,2.8,0.2c0.9,0.2,1.8,0.4,2.6,0.6c0.8,0.3,1.5,0.6,2.2,0.9c0.6,0.3,1.1,0.6,1.3,0.8s0.3,0.4,0.4,0.5
			c0.1,0.1,0.1,0.3,0.2,0.4c0,0.2,0.1,0.4,0.1,0.7c0,0.3,0,0.6,0,1c0,0.4,0,0.7,0,1c0,0.3-0.1,0.5-0.1,0.7c-0.1,0.2-0.2,0.4-0.3,0.4
			s-0.2,0.1-0.4,0.1c-0.2,0-0.6-0.1-1.1-0.4c-0.5-0.3-1.1-0.6-1.8-1c-0.7-0.4-1.6-0.7-2.6-1c-1-0.3-2.1-0.5-3.3-0.5
			c-1.1,0-2.1,0.2-3,0.5c-0.9,0.3-1.6,0.7-2.1,1.2c-0.6,0.5-1,1.1-1.2,1.8c-0.3,0.7-0.4,1.4-0.4,2.2c0,1.1,0.3,2.1,0.8,3
			c0.5,0.8,1.2,1.6,2.1,2.2c0.9,0.6,1.9,1.2,3,1.8c1.1,0.5,2.3,1.1,3.4,1.6c1.2,0.5,2.3,1.1,3.4,1.8c1.1,0.6,2.1,1.4,3,2.3
			c0.9,0.9,1.6,1.9,2.1,3.1C406.2,129.2,406.5,130.6,406.5,132.3z"/>
	</g>
	<g class="st8">
		<path class="st0" d="M82.4,123.6c0,0.8-0.3,1.4-0.8,1.7s-1.2,0.5-2.2,0.5H44.4c-1,0-1.8-0.2-2.3-0.5c-0.5-0.3-0.8-0.9-0.8-1.7
			c0-0.8,0.3-1.4,0.8-1.7c0.5-0.3,1.3-0.5,2.3-0.5h35.1c0.4,0,0.9,0,1.2,0.1c0.4,0.1,0.7,0.2,0.9,0.4c0.3,0.2,0.4,0.4,0.6,0.7
			C82.4,122.8,82.4,123.2,82.4,123.6z"/>
	</g>
</g>
</svg>
