<?xml version="1.0" encoding="utf-8"?>
<!-- Generator: Adobe Illustrator 27.8.0, SVG Export Plug-In . SVG Version: 6.00 Build 0)  -->
<svg version="1.1"
	 id="svg8" xmlns:svg="http://www.w3.org/2000/svg" xmlns:rdf="http://www.w3.org/1999/02/22-rdf-syntax-ns#" xmlns:sodipodi="http://sodipodi.sourceforge.net/DTD/sodipodi-0.dtd" xmlns:dc="http://purl.org/dc/elements/1.1/" xmlns:inkscape="http://www.inkscape.org/namespaces/inkscape" xmlns:cc="http://creativecommons.org/ns#" inkscape:export-xdpi="93" inkscape:export-ydpi="93" inkscape:version="0.92.4 (5da689c313, 2019-01-14)"
	 xmlns="http://www.w3.org/2000/svg" xmlns:xlink="http://www.w3.org/1999/xlink" x="0px" y="0px" viewBox="0 0 566.9 623.6"
	 style="enable-background:new 0 0 566.9 623.6;" xml:space="preserve">
<style type="text/css">
	.st0{fill:#4D4D4D;}
	.st1{fill:#1A1A1A;}
	.st2{enable-background:new    ;}
	.st3{fill:#49C9C9;}
	.st4{fill:#FF0000;}
</style>
<sodipodi:namedview  bordercolor="#666666" borderopacity="1.0" id="base" inkscape:current-layer="layer1" inkscape:cx="124.92984" inkscape:cy="397.10534" inkscape:document-units="mm" inkscape:guide-bbox="true" inkscape:pagecheckerboard="false" inkscape:pageopacity="1" inkscape:pageshadow="2" inkscape:window-height="1017" inkscape:window-maximized="1" inkscape:window-width="1920" inkscape:window-x="1912" inkscape:window-y="-8" inkscape:zoom="0.9899495" pagecolor="#373737" showgrid="false" showguides="true">
	</sodipodi:namedview>
<g id="layer1" transform="translate(0,-77)" inkscape:groupmode="layer" inkscape:label="Ebene 1">
	
		<rect id="rect826" x="472.9" y="691.5" inkscape:export-xdpi="93" inkscape:export-ydpi="93" class="st0" width="79.4" height="9.1">
	</rect>
	
		<rect id="rect828" x="508" y="579.1" inkscape:export-xdpi="93" inkscape:export-ydpi="93" class="st0" width="9.1" height="118.8">
	</rect>
	
		<rect id="rect830" x="493.3" y="572.3" inkscape:export-xdpi="93" inkscape:export-ydpi="93" class="st0" width="38.6" height="9.1">
	</rect>
	
		<rect id="rect832" x="493.3" y="509.1" inkscape:export-xdpi="93" inkscape:export-ydpi="93" class="st0" width="9.1" height="72.3">
	</rect>
	
		<rect id="rect836" x="522.8" y="509.1" inkscape:export-xdpi="93" inkscape:export-ydpi="93" class="st0" width="9.1" height="72.3">
	</rect>
	
		<rect id="rect838" x="493.3" y="509.1" inkscape:export-xdpi="93" inkscape:export-ydpi="93" class="st0" width="38.6" height="9.1">
	</rect>
	
		<rect id="rect840" x="508" y="398.1" inkscape:export-xdpi="93" inkscape:export-ydpi="93" class="st0" width="9.1" height="118.8">
	</rect>
	<circle id="path842" inkscape:export-xdpi="93" inkscape:export-ydpi="93" class="st0" cx="512.1" cy="397.4" r="10.7">
	</circle>
	
		<rect id="rect844" x="508" y="279.2" inkscape:export-xdpi="93" inkscape:export-ydpi="93" class="st0" width="9.1" height="118.8">
	</rect>
	
		<rect id="rect846" x="345.5" y="392.8" inkscape:export-xdpi="93" inkscape:export-ydpi="93" class="st0" width="162.6" height="9.1">
	</rect>
	
		<rect id="rect856" x="508" y="100.3" inkscape:export-xdpi="93" inkscape:export-ydpi="93" class="st0" width="9.1" height="118.8">
	</rect>
	
		<path id="path860" inkscape:export-xdpi="93" inkscape:export-ydpi="93" inkscape:flatsided="true" inkscape:randomized="0" inkscape:rounded="0" inkscape:transform-center-x="0.028865177" inkscape:transform-center-y="-3.2765104" sodipodi:arg1="0.52796978" sodipodi:arg2="1.5751673" sodipodi:cx="180.97543" sodipodi:cy="91.939247" sodipodi:r1="13.206109" sodipodi:r2="6.6030545" sodipodi:sides="3" sodipodi:type="star" class="st0" d="
		M545.3,138.2l-64.8-0.3l32.7-56L545.3,138.2z"/>
	<path id="path864" inkscape:export-xdpi="93" inkscape:export-ydpi="93" class="st0" d="M319.9,365.8c-17.2,0-31.2,14-31.2,31.2
		c0,0,0,0,0,0c0,17.2,14,31.2,31.2,31.2c0,0,0,0,0,0c17.2,0,31.2-14,31.2-31.2C351.1,379.8,337.2,365.8,319.9,365.8z M319.9,374.3
		c12.5,0,22.7,10.2,22.7,22.7c0,12.5-10.2,22.7-22.7,22.7c-12.5,0-22.7-10.2-22.7-22.7c0,0,0,0,0,0
		C297.3,384.5,307.4,374.3,319.9,374.3C319.9,374.3,319.9,374.3,319.9,374.3z"/>
	
		<rect id="rect877" x="493.3" y="276.6" inkscape:export-xdpi="93" inkscape:export-ydpi="93" class="st0" width="38.6" height="9.1">
	</rect>
	
		<rect id="rect879" x="493.3" y="213.4" inkscape:export-xdpi="93" inkscape:export-ydpi="93" class="st0" width="9.1" height="72.3">
	</rect>
	
		<rect id="rect881" x="522.8" y="213.4" inkscape:export-xdpi="93" inkscape:export-ydpi="93" class="st0" width="9.1" height="72.3">
	</rect>
	
		<rect id="rect883" x="493.3" y="213.4" inkscape:export-xdpi="93" inkscape:export-ydpi="93" class="st0" width="38.6" height="9.1">
	</rect>
	<path id="rect887" inkscape:connector-curvature="0" inkscape:export-xdpi="93" inkscape:export-ydpi="93" class="st1" d="
		M543.5,503.6v27.8l-65.2,49.9l2.5,3.2l67.3-51.5v-29.5L543.5,503.6z"/>
	<g class="st2">
		<path class="st3" d="M297.4,509.3c0,0.2,0,0.4,0,0.5c0,0.1-0.1,0.3-0.1,0.4c0,0.1-0.1,0.2-0.2,0.2c-0.1,0-0.1,0.1-0.2,0.1h-5.7
			V528c0,0.1,0,0.2-0.1,0.2c0,0.1-0.1,0.1-0.2,0.1c-0.1,0-0.2,0.1-0.4,0.1c-0.2,0-0.4,0-0.6,0c-0.2,0-0.5,0-0.6,0
			c-0.2,0-0.3-0.1-0.4-0.1c-0.1,0-0.2-0.1-0.2-0.1c0-0.1-0.1-0.1-0.1-0.2v-17.5h-5.7c-0.1,0-0.2,0-0.2-0.1c-0.1,0-0.1-0.1-0.2-0.2
			c0-0.1-0.1-0.2-0.1-0.4c0-0.1,0-0.3,0-0.5c0-0.2,0-0.4,0-0.5c0-0.2,0.1-0.3,0.1-0.4c0-0.1,0.1-0.2,0.2-0.2c0.1,0,0.1-0.1,0.2-0.1
			h14.1c0.1,0,0.2,0,0.2,0.1c0.1,0,0.1,0.1,0.2,0.2s0.1,0.2,0.1,0.4C297.4,508.9,297.4,509.1,297.4,509.3z"/>
		<path class="st3" d="M310.3,520.8c0,1.1-0.2,2.2-0.5,3.2c-0.3,1-0.8,1.8-1.4,2.5c-0.6,0.7-1.3,1.2-2.2,1.6
			c-0.9,0.4-1.9,0.6-3.1,0.6c-1.2,0-2.2-0.2-3-0.5s-1.6-0.8-2.1-1.5c-0.6-0.7-1-1.5-1.3-2.4s-0.4-2-0.4-3.2c0-1.1,0.1-2.2,0.4-3.2
			c0.3-1,0.7-1.8,1.3-2.5c0.6-0.7,1.3-1.2,2.2-1.6c0.9-0.4,1.9-0.6,3.1-0.6c1.2,0,2.2,0.2,3,0.5s1.6,0.8,2.1,1.5
			c0.6,0.7,1,1.5,1.3,2.4C310.1,518.6,310.3,519.6,310.3,520.8z M307.6,521c0-0.8-0.1-1.5-0.2-2.2c-0.1-0.7-0.4-1.3-0.7-1.8
			c-0.3-0.5-0.8-0.9-1.3-1.2c-0.6-0.3-1.3-0.4-2.1-0.4c-0.8,0-1.4,0.1-2,0.4c-0.6,0.3-1,0.7-1.4,1.1c-0.4,0.5-0.6,1.1-0.8,1.8
			c-0.2,0.7-0.3,1.4-0.3,2.2c0,0.8,0.1,1.5,0.2,2.2c0.1,0.7,0.4,1.3,0.7,1.8c0.3,0.5,0.8,0.9,1.3,1.2c0.6,0.3,1.3,0.4,2.1,0.4
			c0.8,0,1.4-0.1,2-0.4c0.6-0.3,1-0.7,1.4-1.1c0.4-0.5,0.6-1.1,0.8-1.8C307.5,522.5,307.6,521.8,307.6,521z"/>
		<path class="st3" d="M334.2,520.8c0,1.2-0.1,2.3-0.4,3.3c-0.3,1-0.7,1.8-1.2,2.5s-1.1,1.2-1.9,1.6s-1.6,0.5-2.6,0.5
			c-0.4,0-0.9,0-1.2-0.1c-0.4-0.1-0.8-0.2-1.1-0.4c-0.4-0.2-0.7-0.4-1.1-0.8c-0.4-0.3-0.8-0.7-1.2-1.1v1.7c0,0.1,0,0.2-0.1,0.2
			c0,0.1-0.1,0.1-0.2,0.1s-0.2,0.1-0.4,0.1c-0.1,0-0.3,0-0.5,0c-0.2,0-0.4,0-0.5,0c-0.1,0-0.3,0-0.4-0.1s-0.2-0.1-0.2-0.1
			s0-0.1,0-0.2v-20.9c0-0.1,0-0.2,0.1-0.2c0-0.1,0.1-0.1,0.2-0.2c0.1,0,0.2-0.1,0.4-0.1c0.2,0,0.4,0,0.6,0c0.3,0,0.5,0,0.6,0
			c0.2,0,0.3,0.1,0.4,0.1c0.1,0,0.2,0.1,0.2,0.2c0,0.1,0.1,0.1,0.1,0.2v8.4c0.4-0.4,0.8-0.8,1.2-1.1c0.4-0.3,0.8-0.5,1.1-0.7
			c0.4-0.2,0.8-0.3,1.1-0.4c0.4-0.1,0.8-0.1,1.2-0.1c1,0,1.9,0.2,2.6,0.6c0.7,0.4,1.3,1,1.8,1.6c0.5,0.7,0.8,1.5,1,2.4
			C334.1,518.8,334.2,519.8,334.2,520.8z M331.6,521.1c0-0.7-0.1-1.4-0.2-2.1c-0.1-0.7-0.3-1.3-0.6-1.8c-0.3-0.5-0.6-0.9-1.1-1.3
			c-0.5-0.3-1-0.5-1.7-0.5c-0.3,0-0.7,0-1,0.1c-0.3,0.1-0.7,0.2-1,0.5c-0.3,0.2-0.7,0.5-1,0.8s-0.7,0.8-1.2,1.3v5.6
			c0.7,0.9,1.4,1.5,2,2c0.6,0.5,1.3,0.7,2,0.7c0.6,0,1.2-0.2,1.7-0.5s0.8-0.7,1.1-1.2s0.5-1.1,0.6-1.7
			C331.5,522.4,331.6,521.7,331.6,521.1z"/>
		<path class="st3" d="M350.1,520.4c0,0.4-0.1,0.7-0.3,0.9c-0.2,0.2-0.4,0.3-0.7,0.3h-9.3c0,0.8,0.1,1.5,0.2,2.1s0.4,1.2,0.8,1.6
			c0.4,0.4,0.8,0.8,1.4,1c0.6,0.2,1.3,0.4,2.2,0.4c0.7,0,1.3-0.1,1.8-0.2s1-0.2,1.4-0.4c0.4-0.1,0.7-0.3,0.9-0.4s0.4-0.2,0.6-0.2
			c0.1,0,0.1,0,0.2,0.1c0.1,0,0.1,0.1,0.1,0.2c0,0.1,0.1,0.2,0.1,0.3c0,0.1,0,0.3,0,0.5c0,0.1,0,0.3,0,0.4c0,0.1,0,0.2,0,0.3
			s0,0.1-0.1,0.2c0,0.1-0.1,0.1-0.1,0.2c-0.1,0.1-0.2,0.2-0.5,0.3c-0.3,0.1-0.6,0.3-1.1,0.4c-0.4,0.1-1,0.2-1.6,0.3
			c-0.6,0.1-1.2,0.1-1.9,0.1c-1.2,0-2.2-0.2-3-0.5c-0.9-0.3-1.6-0.8-2.2-1.4c-0.6-0.6-1-1.4-1.3-2.4c-0.3-1-0.5-2.1-0.5-3.3
			c0-1.2,0.2-2.3,0.5-3.3c0.3-1,0.8-1.8,1.4-2.5c0.6-0.7,1.3-1.2,2.1-1.5c0.8-0.4,1.8-0.5,2.8-0.5c1.1,0,2,0.2,2.8,0.5
			c0.8,0.4,1.4,0.8,1.9,1.4c0.5,0.6,0.9,1.3,1.1,2.1c0.2,0.8,0.4,1.7,0.4,2.6V520.4z M347.5,519.6c0-1.4-0.3-2.4-0.9-3.2
			c-0.6-0.8-1.6-1.2-2.8-1.2c-0.6,0-1.2,0.1-1.7,0.4c-0.5,0.2-0.9,0.6-1.2,1c-0.3,0.4-0.6,0.9-0.8,1.4c-0.2,0.5-0.3,1.1-0.3,1.6
			H347.5z"/>
		<path class="st3" d="M382.1,528c0,0.1,0,0.2-0.1,0.2c0,0.1-0.1,0.1-0.2,0.1s-0.2,0.1-0.4,0.1c-0.2,0-0.4,0-0.6,0
			c-0.3,0-0.5,0-0.6,0c-0.2,0-0.3-0.1-0.4-0.1c-0.1,0-0.2-0.1-0.2-0.1c0-0.1-0.1-0.1-0.1-0.2v-8.5c0-0.6-0.1-1.1-0.2-1.6
			c-0.1-0.5-0.3-0.9-0.5-1.3c-0.2-0.4-0.5-0.6-0.9-0.8c-0.4-0.2-0.8-0.3-1.2-0.3c-0.6,0-1.2,0.2-1.8,0.7c-0.6,0.5-1.3,1.1-2,2v9.8
			c0,0.1,0,0.2-0.1,0.2c0,0.1-0.1,0.1-0.2,0.1c-0.1,0-0.2,0.1-0.4,0.1c-0.2,0-0.4,0-0.6,0c-0.2,0-0.4,0-0.6,0
			c-0.2,0-0.3-0.1-0.4-0.1c-0.1,0-0.2-0.1-0.2-0.1c0-0.1-0.1-0.1-0.1-0.2v-8.5c0-0.6-0.1-1.1-0.2-1.6c-0.1-0.5-0.3-0.9-0.5-1.3
			c-0.2-0.4-0.5-0.6-0.9-0.8c-0.3-0.2-0.8-0.3-1.2-0.3c-0.6,0-1.2,0.2-1.8,0.7c-0.6,0.5-1.3,1.1-2,2v9.8c0,0.1,0,0.2-0.1,0.2
			c0,0.1-0.1,0.1-0.2,0.1s-0.2,0.1-0.4,0.1c-0.2,0-0.4,0-0.6,0c-0.2,0-0.5,0-0.6,0c-0.2,0-0.3-0.1-0.4-0.1c-0.1,0-0.2-0.1-0.2-0.1
			c0-0.1-0.1-0.1-0.1-0.2v-14.1c0-0.1,0-0.2,0-0.2c0-0.1,0.1-0.1,0.2-0.2s0.2-0.1,0.4-0.1c0.1,0,0.3,0,0.6,0c0.2,0,0.4,0,0.6,0
			c0.2,0,0.3,0,0.4,0.1c0.1,0,0.1,0.1,0.2,0.2c0,0.1,0.1,0.1,0.1,0.2v1.9c0.8-0.9,1.6-1.5,2.3-1.9c0.7-0.4,1.5-0.6,2.3-0.6
			c0.6,0,1.1,0.1,1.6,0.2c0.5,0.1,0.9,0.3,1.2,0.6c0.4,0.2,0.7,0.5,0.9,0.9c0.2,0.3,0.5,0.7,0.6,1.1c0.5-0.5,0.9-0.9,1.3-1.3
			c0.4-0.4,0.8-0.6,1.2-0.9s0.8-0.4,1.1-0.5c0.4-0.1,0.7-0.1,1.1-0.1c0.9,0,1.7,0.2,2.3,0.5c0.6,0.3,1.1,0.7,1.5,1.3
			c0.4,0.5,0.7,1.2,0.8,1.9c0.2,0.7,0.2,1.5,0.2,2.3V528z"/>
		<path class="st3" d="M398.8,520.4c0,0.4-0.1,0.7-0.3,0.9c-0.2,0.2-0.4,0.3-0.7,0.3h-9.3c0,0.8,0.1,1.5,0.2,2.1s0.4,1.2,0.8,1.6
			c0.4,0.4,0.8,0.8,1.4,1c0.6,0.2,1.3,0.4,2.2,0.4c0.7,0,1.3-0.1,1.8-0.2s1-0.2,1.4-0.4c0.4-0.1,0.7-0.3,0.9-0.4s0.4-0.2,0.6-0.2
			c0.1,0,0.1,0,0.2,0.1c0.1,0,0.1,0.1,0.1,0.2c0,0.1,0.1,0.2,0.1,0.3c0,0.1,0,0.3,0,0.5c0,0.1,0,0.3,0,0.4c0,0.1,0,0.2,0,0.3
			s0,0.1-0.1,0.2c0,0.1-0.1,0.1-0.1,0.2c-0.1,0.1-0.2,0.2-0.5,0.3c-0.3,0.1-0.6,0.3-1.1,0.4c-0.4,0.1-1,0.2-1.6,0.3
			c-0.6,0.1-1.2,0.1-1.9,0.1c-1.2,0-2.2-0.2-3-0.5c-0.9-0.3-1.6-0.8-2.2-1.4c-0.6-0.6-1-1.4-1.3-2.4c-0.3-1-0.5-2.1-0.5-3.3
			c0-1.2,0.2-2.3,0.5-3.3c0.3-1,0.8-1.8,1.4-2.5c0.6-0.7,1.3-1.2,2.1-1.5c0.8-0.4,1.8-0.5,2.8-0.5c1.1,0,2,0.2,2.8,0.5
			c0.8,0.4,1.4,0.8,1.9,1.4c0.5,0.6,0.9,1.3,1.1,2.1c0.2,0.8,0.4,1.7,0.4,2.6V520.4z M396.2,519.6c0-1.4-0.3-2.4-0.9-3.2
			c-0.6-0.8-1.6-1.2-2.8-1.2c-0.6,0-1.2,0.1-1.7,0.4c-0.5,0.2-0.9,0.6-1.2,1c-0.3,0.4-0.6,0.9-0.8,1.4c-0.2,0.5-0.3,1.1-0.3,1.6
			H396.2z"/>
		<path class="st3" d="M413.3,528c0,0.1,0,0.2-0.1,0.3c-0.1,0.1-0.2,0.1-0.3,0.1c-0.1,0-0.4,0-0.6,0c-0.3,0-0.5,0-0.6,0
			c-0.2,0-0.3-0.1-0.4-0.1c-0.1-0.1-0.1-0.2-0.1-0.3v-1.4c-0.6,0.7-1.3,1.2-2.1,1.5c-0.8,0.4-1.6,0.5-2.4,0.5c-0.7,0-1.4-0.1-2-0.3
			c-0.6-0.2-1.1-0.5-1.5-0.8c-0.4-0.4-0.8-0.8-1-1.3s-0.4-1.1-0.4-1.8c0-0.8,0.2-1.5,0.5-2.1c0.3-0.6,0.8-1.1,1.4-1.5
			c0.6-0.4,1.3-0.7,2.2-0.9c0.9-0.2,1.9-0.3,3-0.3h1.9v-1.1c0-0.5-0.1-1-0.2-1.4c-0.1-0.4-0.3-0.8-0.6-1c-0.3-0.3-0.6-0.5-1-0.6
			s-0.9-0.2-1.5-0.2c-0.6,0-1.2,0.1-1.7,0.2c-0.5,0.2-0.9,0.3-1.3,0.5c-0.4,0.2-0.7,0.3-1,0.5c-0.3,0.2-0.4,0.2-0.6,0.2
			c-0.1,0-0.2,0-0.2-0.1c-0.1,0-0.1-0.1-0.2-0.2c0-0.1-0.1-0.2-0.1-0.3c0-0.1,0-0.3,0-0.4c0-0.3,0-0.5,0.1-0.6
			c0-0.2,0.1-0.3,0.3-0.4c0.1-0.1,0.4-0.3,0.7-0.5c0.3-0.2,0.7-0.3,1.2-0.5c0.4-0.2,0.9-0.3,1.5-0.4c0.5-0.1,1.1-0.1,1.6-0.1
			c1,0,1.9,0.1,2.6,0.3c0.7,0.2,1.3,0.6,1.7,1c0.4,0.4,0.8,1,1,1.6c0.2,0.7,0.3,1.4,0.3,2.3V528z M410.8,521.6h-2.2
			c-0.7,0-1.3,0.1-1.8,0.2c-0.5,0.1-1,0.3-1.3,0.5s-0.6,0.5-0.8,0.8c-0.2,0.3-0.2,0.7-0.2,1.1c0,0.7,0.2,1.3,0.7,1.7
			c0.5,0.4,1.1,0.6,1.9,0.6c0.7,0,1.3-0.2,1.9-0.5s1.2-0.9,1.8-1.6V521.6z"/>
		<path class="st3" d="M426.9,524.2c0,0.7-0.1,1.4-0.4,1.9s-0.6,1-1.1,1.4c-0.5,0.4-1.1,0.7-1.8,0.9c-0.7,0.2-1.4,0.3-2.2,0.3
			c-0.5,0-1,0-1.4-0.1s-0.9-0.2-1.2-0.3s-0.7-0.2-0.9-0.4c-0.2-0.1-0.4-0.2-0.5-0.4c-0.1-0.1-0.2-0.2-0.2-0.4
			c-0.1-0.2-0.1-0.4-0.1-0.8c0-0.2,0-0.4,0-0.5c0-0.1,0-0.2,0.1-0.3c0-0.1,0.1-0.1,0.1-0.2c0.1,0,0.1-0.1,0.2-0.1
			c0.1,0,0.3,0.1,0.5,0.2c0.2,0.1,0.5,0.3,0.8,0.5c0.3,0.2,0.7,0.3,1.2,0.5c0.4,0.1,1,0.2,1.5,0.2c0.4,0,0.8,0,1.2-0.1
			c0.4-0.1,0.7-0.2,0.9-0.4c0.3-0.2,0.5-0.4,0.6-0.7s0.2-0.6,0.2-1c0-0.4-0.1-0.7-0.3-1c-0.2-0.3-0.5-0.5-0.8-0.7
			c-0.3-0.2-0.7-0.4-1.1-0.6c-0.4-0.2-0.8-0.3-1.3-0.5c-0.4-0.2-0.9-0.4-1.3-0.6c-0.4-0.2-0.8-0.5-1.1-0.8c-0.3-0.3-0.6-0.7-0.8-1.2
			c-0.2-0.4-0.3-1-0.3-1.6c0-0.6,0.1-1.1,0.3-1.6c0.2-0.5,0.5-0.9,1-1.3c0.4-0.4,1-0.7,1.6-0.9c0.6-0.2,1.4-0.3,2.2-0.3
			c0.4,0,0.8,0,1.1,0.1s0.7,0.1,1,0.2c0.3,0.1,0.6,0.2,0.8,0.3c0.2,0.1,0.4,0.2,0.5,0.3c0.1,0.1,0.2,0.2,0.2,0.2
			c0,0.1,0.1,0.1,0.1,0.2s0,0.2,0,0.3c0,0.1,0,0.3,0,0.4c0,0.2,0,0.3,0,0.5c0,0.1,0,0.2-0.1,0.3c0,0.1-0.1,0.1-0.1,0.2
			c-0.1,0-0.1,0.1-0.2,0.1c-0.1,0-0.2-0.1-0.4-0.2c-0.2-0.1-0.4-0.2-0.7-0.4c-0.3-0.1-0.6-0.3-1-0.4c-0.4-0.1-0.8-0.2-1.3-0.2
			c-0.4,0-0.8,0-1.2,0.1c-0.3,0.1-0.6,0.2-0.8,0.4c-0.2,0.2-0.4,0.4-0.5,0.6s-0.2,0.5-0.2,0.8c0,0.4,0.1,0.7,0.3,1
			c0.2,0.3,0.5,0.5,0.8,0.7c0.3,0.2,0.7,0.4,1.1,0.6c0.4,0.2,0.9,0.3,1.3,0.5c0.4,0.2,0.9,0.4,1.3,0.6c0.4,0.2,0.8,0.5,1.1,0.8
			c0.3,0.3,0.6,0.7,0.8,1.1S426.9,523.6,426.9,524.2z"/>
		<path class="st3" d="M442.6,528c0,0.1,0,0.2-0.1,0.2c0,0.1-0.1,0.1-0.2,0.1s-0.2,0.1-0.4,0.1c-0.2,0-0.3,0-0.6,0
			c-0.2,0-0.4,0-0.6,0c-0.2,0-0.3-0.1-0.4-0.1c-0.1,0-0.1-0.1-0.2-0.1c0-0.1,0-0.1,0-0.2v-1.9c-0.8,0.9-1.6,1.5-2.4,1.9
			s-1.6,0.6-2.4,0.6c-0.9,0-1.7-0.2-2.4-0.5s-1.2-0.7-1.6-1.3c-0.4-0.5-0.7-1.2-0.9-1.9c-0.2-0.7-0.3-1.6-0.3-2.6v-8.5
			c0-0.1,0-0.2,0.1-0.2c0-0.1,0.1-0.1,0.2-0.2c0.1,0,0.2-0.1,0.4-0.1c0.2,0,0.4,0,0.6,0s0.5,0,0.6,0c0.2,0,0.3,0,0.4,0.1
			c0.1,0,0.2,0.1,0.2,0.2c0,0.1,0.1,0.1,0.1,0.2v8.2c0,0.8,0.1,1.5,0.2,2c0.1,0.5,0.3,0.9,0.5,1.3c0.2,0.3,0.6,0.6,0.9,0.8
			c0.4,0.2,0.8,0.3,1.3,0.3c0.6,0,1.3-0.2,1.9-0.7c0.6-0.5,1.3-1.1,2-2v-9.8c0-0.1,0-0.2,0.1-0.2c0-0.1,0.1-0.1,0.2-0.2
			c0.1,0,0.2-0.1,0.4-0.1c0.2,0,0.4,0,0.6,0c0.2,0,0.5,0,0.6,0c0.2,0,0.3,0,0.4,0.1s0.2,0.1,0.2,0.2c0,0.1,0.1,0.1,0.1,0.2V528z"/>
		<path class="st3" d="M455.6,514.9c0,0.2,0,0.4,0,0.6c0,0.2,0,0.3-0.1,0.4c0,0.1-0.1,0.2-0.1,0.2s-0.1,0.1-0.2,0.1
			c-0.1,0-0.2,0-0.3-0.1c-0.1,0-0.3-0.1-0.4-0.1c-0.2,0-0.3-0.1-0.5-0.1c-0.2,0-0.4-0.1-0.6-0.1c-0.3,0-0.5,0.1-0.8,0.2
			c-0.2,0.1-0.5,0.3-0.8,0.5c-0.3,0.2-0.6,0.6-0.9,1c-0.3,0.4-0.6,0.9-1,1.5v9.2c0,0.1,0,0.2-0.1,0.2c0,0.1-0.1,0.1-0.2,0.1
			s-0.2,0.1-0.4,0.1c-0.2,0-0.4,0-0.6,0c-0.2,0-0.5,0-0.6,0c-0.2,0-0.3-0.1-0.4-0.1c-0.1,0-0.2-0.1-0.2-0.1c0-0.1-0.1-0.1-0.1-0.2
			v-14.1c0-0.1,0-0.2,0-0.2c0-0.1,0.1-0.1,0.2-0.2s0.2-0.1,0.4-0.1c0.1,0,0.3,0,0.6,0c0.2,0,0.4,0,0.6,0c0.2,0,0.3,0,0.4,0.1
			c0.1,0,0.1,0.1,0.2,0.2c0,0.1,0.1,0.1,0.1,0.2v2c0.4-0.6,0.7-1,1.1-1.4c0.3-0.4,0.7-0.6,1-0.8c0.3-0.2,0.6-0.3,0.9-0.4
			s0.6-0.1,0.9-0.1c0.1,0,0.3,0,0.5,0s0.4,0,0.5,0.1c0.2,0,0.4,0.1,0.5,0.1c0.2,0.1,0.3,0.1,0.3,0.2c0.1,0.1,0.1,0.1,0.1,0.1
			c0,0,0,0.1,0.1,0.2c0,0.1,0,0.2,0,0.3C455.6,514.4,455.6,514.6,455.6,514.9z"/>
		<path class="st3" d="M470.1,520.4c0,0.4-0.1,0.7-0.3,0.9c-0.2,0.2-0.4,0.3-0.7,0.3h-9.3c0,0.8,0.1,1.5,0.2,2.1s0.4,1.2,0.8,1.6
			c0.4,0.4,0.8,0.8,1.4,1c0.6,0.2,1.3,0.4,2.2,0.4c0.7,0,1.3-0.1,1.8-0.2s1-0.2,1.4-0.4c0.4-0.1,0.7-0.3,0.9-0.4s0.4-0.2,0.6-0.2
			c0.1,0,0.1,0,0.2,0.1c0.1,0,0.1,0.1,0.1,0.2c0,0.1,0.1,0.2,0.1,0.3c0,0.1,0,0.3,0,0.5c0,0.1,0,0.3,0,0.4c0,0.1,0,0.2,0,0.3
			s0,0.1-0.1,0.2c0,0.1-0.1,0.1-0.1,0.2c-0.1,0.1-0.2,0.2-0.5,0.3c-0.3,0.1-0.6,0.3-1.1,0.4c-0.4,0.1-1,0.2-1.6,0.3
			c-0.6,0.1-1.2,0.1-1.9,0.1c-1.2,0-2.2-0.2-3-0.5c-0.9-0.3-1.6-0.8-2.2-1.4c-0.6-0.6-1-1.4-1.3-2.4c-0.3-1-0.5-2.1-0.5-3.3
			c0-1.2,0.2-2.3,0.5-3.3c0.3-1,0.8-1.8,1.4-2.5c0.6-0.7,1.3-1.2,2.1-1.5c0.8-0.4,1.8-0.5,2.8-0.5c1.1,0,2,0.2,2.8,0.5
			c0.8,0.4,1.4,0.8,1.9,1.4c0.5,0.6,0.9,1.3,1.1,2.1c0.2,0.8,0.4,1.7,0.4,2.6V520.4z M467.5,519.6c0-1.4-0.3-2.4-0.9-3.2
			c-0.6-0.8-1.6-1.2-2.8-1.2c-0.6,0-1.2,0.1-1.7,0.4c-0.5,0.2-0.9,0.6-1.2,1c-0.3,0.4-0.6,0.9-0.8,1.4c-0.2,0.5-0.3,1.1-0.3,1.6
			H467.5z"/>
		<path class="st3" d="M486.1,528c0,0.1,0,0.2-0.1,0.2c0,0.1-0.1,0.1-0.2,0.1c-0.1,0-0.2,0.1-0.4,0.1c-0.1,0-0.3,0-0.5,0
			c-0.2,0-0.4,0-0.5,0c-0.1,0-0.3,0-0.4-0.1s-0.2-0.1-0.2-0.1c0-0.1-0.1-0.1-0.1-0.2v-1.9c-0.7,0.8-1.5,1.4-2.3,1.9
			s-1.7,0.7-2.6,0.7c-1,0-1.9-0.2-2.6-0.6c-0.7-0.4-1.3-0.9-1.8-1.6c-0.5-0.7-0.8-1.5-1-2.4c-0.2-0.9-0.3-1.9-0.3-2.9
			c0-1.2,0.1-2.3,0.4-3.3c0.3-1,0.6-1.8,1.2-2.5c0.5-0.7,1.1-1.2,1.9-1.6c0.8-0.4,1.6-0.6,2.6-0.6c0.8,0,1.6,0.2,2.3,0.5
			c0.7,0.4,1.4,0.9,2,1.6v-8.2c0-0.1,0-0.1,0.1-0.2c0-0.1,0.1-0.1,0.2-0.2c0.1,0,0.2-0.1,0.4-0.1c0.2,0,0.4,0,0.6,0
			c0.3,0,0.5,0,0.6,0c0.2,0,0.3,0.1,0.4,0.1c0.1,0,0.2,0.1,0.2,0.2c0,0.1,0.1,0.1,0.1,0.2V528z M483.5,518.1c-0.7-0.9-1.4-1.5-2-2
			c-0.7-0.5-1.3-0.7-2-0.7c-0.7,0-1.2,0.2-1.7,0.5c-0.5,0.3-0.8,0.7-1.1,1.2c-0.3,0.5-0.5,1.1-0.6,1.7c-0.1,0.6-0.2,1.3-0.2,2
			c0,0.7,0.1,1.4,0.2,2.1c0.1,0.7,0.3,1.3,0.6,1.8c0.3,0.5,0.6,0.9,1.1,1.3c0.4,0.3,1,0.5,1.7,0.5c0.3,0,0.7,0,1-0.1
			c0.3-0.1,0.6-0.2,1-0.5c0.3-0.2,0.7-0.5,1-0.9c0.4-0.3,0.8-0.8,1.2-1.3V518.1z"/>
	</g>
	<g class="st2">
		<path class="st3" d="M292.7,554.9c0,0.2,0,0.4,0,0.6c0,0.2,0,0.3-0.1,0.4c0,0.1-0.1,0.2-0.1,0.2s-0.1,0.1-0.2,0.1
			c-0.1,0-0.2,0-0.3-0.1c-0.1,0-0.3-0.1-0.4-0.1c-0.2,0-0.3-0.1-0.5-0.1c-0.2,0-0.4-0.1-0.6-0.1c-0.3,0-0.5,0.1-0.8,0.2
			c-0.2,0.1-0.5,0.3-0.8,0.5c-0.3,0.2-0.6,0.6-0.9,1c-0.3,0.4-0.6,0.9-1,1.5v9.2c0,0.1,0,0.2-0.1,0.2c0,0.1-0.1,0.1-0.2,0.1
			s-0.2,0.1-0.4,0.1c-0.2,0-0.4,0-0.6,0c-0.2,0-0.5,0-0.6,0c-0.2,0-0.3-0.1-0.4-0.1c-0.1,0-0.2-0.1-0.2-0.1c0-0.1-0.1-0.1-0.1-0.2
			v-14.1c0-0.1,0-0.2,0-0.2c0-0.1,0.1-0.1,0.2-0.2s0.2-0.1,0.4-0.1c0.1,0,0.3,0,0.6,0c0.2,0,0.4,0,0.6,0c0.2,0,0.3,0,0.4,0.1
			c0.1,0,0.1,0.1,0.2,0.2c0,0.1,0.1,0.1,0.1,0.2v2c0.4-0.6,0.7-1,1.1-1.4c0.3-0.4,0.7-0.6,1-0.8c0.3-0.2,0.6-0.3,0.9-0.4
			s0.6-0.1,0.9-0.1c0.1,0,0.3,0,0.5,0s0.4,0,0.5,0.1c0.2,0,0.4,0.1,0.5,0.1c0.2,0.1,0.3,0.1,0.3,0.2c0.1,0.1,0.1,0.1,0.1,0.1
			c0,0,0,0.1,0.1,0.2c0,0.1,0,0.2,0,0.3C292.6,554.4,292.7,554.6,292.7,554.9z"/>
		<path class="st3" d="M307.2,560.4c0,0.4-0.1,0.7-0.3,0.9c-0.2,0.2-0.4,0.3-0.7,0.3h-9.3c0,0.8,0.1,1.5,0.2,2.1s0.4,1.2,0.8,1.6
			c0.4,0.4,0.8,0.8,1.4,1c0.6,0.2,1.3,0.4,2.2,0.4c0.7,0,1.3-0.1,1.8-0.2s1-0.2,1.4-0.4c0.4-0.1,0.7-0.3,0.9-0.4s0.4-0.2,0.6-0.2
			c0.1,0,0.1,0,0.2,0.1c0.1,0,0.1,0.1,0.1,0.2c0,0.1,0.1,0.2,0.1,0.3c0,0.1,0,0.3,0,0.5c0,0.1,0,0.3,0,0.4c0,0.1,0,0.2,0,0.3
			s0,0.1-0.1,0.2c0,0.1-0.1,0.1-0.1,0.2c-0.1,0.1-0.2,0.2-0.5,0.3c-0.3,0.1-0.6,0.3-1.1,0.4c-0.4,0.1-1,0.2-1.6,0.3
			c-0.6,0.1-1.2,0.1-1.9,0.1c-1.2,0-2.2-0.2-3-0.5c-0.9-0.3-1.6-0.8-2.2-1.4c-0.6-0.6-1-1.4-1.3-2.4c-0.3-1-0.5-2.1-0.5-3.3
			c0-1.2,0.2-2.3,0.5-3.3c0.3-1,0.8-1.8,1.4-2.5c0.6-0.7,1.3-1.2,2.1-1.5c0.8-0.4,1.8-0.5,2.8-0.5c1.1,0,2,0.2,2.8,0.5
			c0.8,0.4,1.4,0.8,1.9,1.4c0.5,0.6,0.9,1.3,1.1,2.1c0.2,0.8,0.4,1.7,0.4,2.6V560.4z M304.6,559.6c0-1.4-0.3-2.4-0.9-3.2
			c-0.6-0.8-1.6-1.2-2.8-1.2c-0.6,0-1.2,0.1-1.7,0.4c-0.5,0.2-0.9,0.6-1.2,1c-0.3,0.4-0.6,0.9-0.8,1.4c-0.2,0.5-0.3,1.1-0.3,1.6
			H304.6z"/>
		<path class="st3" d="M319.9,564.2c0,0.7-0.1,1.4-0.4,1.9s-0.6,1-1.1,1.4c-0.5,0.4-1.1,0.7-1.8,0.9c-0.7,0.2-1.4,0.3-2.2,0.3
			c-0.5,0-1,0-1.4-0.1s-0.9-0.2-1.2-0.3s-0.7-0.2-0.9-0.4c-0.2-0.1-0.4-0.2-0.5-0.4c-0.1-0.1-0.2-0.2-0.2-0.4
			c-0.1-0.2-0.1-0.4-0.1-0.8c0-0.2,0-0.4,0-0.5c0-0.1,0-0.2,0.1-0.3c0-0.1,0.1-0.1,0.1-0.2c0.1,0,0.1-0.1,0.2-0.1
			c0.1,0,0.3,0.1,0.5,0.2c0.2,0.1,0.5,0.3,0.8,0.5c0.3,0.2,0.7,0.3,1.2,0.5c0.4,0.1,1,0.2,1.5,0.2c0.4,0,0.8,0,1.2-0.1
			c0.4-0.1,0.7-0.2,0.9-0.4c0.3-0.2,0.5-0.4,0.6-0.7s0.2-0.6,0.2-1c0-0.4-0.1-0.7-0.3-1c-0.2-0.3-0.5-0.5-0.8-0.7
			c-0.3-0.2-0.7-0.4-1.1-0.6c-0.4-0.2-0.8-0.3-1.3-0.5c-0.4-0.2-0.9-0.4-1.3-0.6c-0.4-0.2-0.8-0.5-1.1-0.8c-0.3-0.3-0.6-0.7-0.8-1.2
			c-0.2-0.4-0.3-1-0.3-1.6c0-0.6,0.1-1.1,0.3-1.6c0.2-0.5,0.5-0.9,1-1.3c0.4-0.4,1-0.7,1.6-0.9c0.6-0.2,1.4-0.3,2.2-0.3
			c0.4,0,0.8,0,1.1,0.1s0.7,0.1,1,0.2c0.3,0.1,0.6,0.2,0.8,0.3c0.2,0.1,0.4,0.2,0.5,0.3c0.1,0.1,0.2,0.2,0.2,0.2
			c0,0.1,0.1,0.1,0.1,0.2s0,0.2,0,0.3c0,0.1,0,0.3,0,0.4c0,0.2,0,0.3,0,0.5c0,0.1,0,0.2-0.1,0.3c0,0.1-0.1,0.1-0.1,0.2
			c-0.1,0-0.1,0.1-0.2,0.1c-0.1,0-0.2-0.1-0.4-0.2c-0.2-0.1-0.4-0.2-0.7-0.4c-0.3-0.1-0.6-0.3-1-0.4c-0.4-0.1-0.8-0.2-1.3-0.2
			c-0.4,0-0.8,0-1.2,0.1c-0.3,0.1-0.6,0.2-0.8,0.4c-0.2,0.2-0.4,0.4-0.5,0.6s-0.2,0.5-0.2,0.8c0,0.4,0.1,0.7,0.3,1
			c0.2,0.3,0.5,0.5,0.8,0.7c0.3,0.2,0.7,0.4,1.1,0.6c0.4,0.2,0.9,0.3,1.3,0.5c0.4,0.2,0.9,0.4,1.3,0.6c0.4,0.2,0.8,0.5,1.1,0.8
			c0.3,0.3,0.6,0.7,0.8,1.1S319.9,563.6,319.9,564.2z"/>
		<path class="st3" d="M326.5,549.2c0,0.6-0.1,1-0.3,1.2c-0.2,0.2-0.7,0.3-1.3,0.3c-0.6,0-1-0.1-1.2-0.3c-0.2-0.2-0.3-0.6-0.3-1.2
			c0-0.6,0.1-1,0.3-1.2c0.2-0.2,0.7-0.3,1.3-0.3c0.6,0,1,0.1,1.2,0.3C326.4,548.2,326.5,548.6,326.5,549.2z M326.2,568
			c0,0.1,0,0.2-0.1,0.2c0,0.1-0.1,0.1-0.2,0.1s-0.2,0.1-0.4,0.1c-0.2,0-0.4,0-0.6,0c-0.2,0-0.5,0-0.6,0c-0.2,0-0.3-0.1-0.4-0.1
			c-0.1,0-0.2-0.1-0.2-0.1c0-0.1-0.1-0.1-0.1-0.2v-14.1c0-0.1,0-0.1,0.1-0.2c0-0.1,0.1-0.1,0.2-0.2c0.1,0,0.2-0.1,0.4-0.1
			c0.2,0,0.4,0,0.6,0c0.3,0,0.5,0,0.6,0c0.2,0,0.3,0.1,0.4,0.1c0.1,0,0.2,0.1,0.2,0.2c0,0.1,0.1,0.1,0.1,0.2V568z"/>
		<path class="st3" d="M339.8,564.2c0,0.7-0.1,1.4-0.4,1.9s-0.6,1-1.1,1.4c-0.5,0.4-1.1,0.7-1.8,0.9c-0.7,0.2-1.4,0.3-2.2,0.3
			c-0.5,0-1,0-1.4-0.1s-0.9-0.2-1.2-0.3s-0.7-0.2-0.9-0.4c-0.2-0.1-0.4-0.2-0.5-0.4c-0.1-0.1-0.2-0.2-0.2-0.4
			c-0.1-0.2-0.1-0.4-0.1-0.8c0-0.2,0-0.4,0-0.5c0-0.1,0-0.2,0.1-0.3c0-0.1,0.1-0.1,0.1-0.2c0.1,0,0.1-0.1,0.2-0.1
			c0.1,0,0.3,0.1,0.5,0.2c0.2,0.1,0.5,0.3,0.8,0.5c0.3,0.2,0.7,0.3,1.2,0.5c0.4,0.1,1,0.2,1.5,0.2c0.4,0,0.8,0,1.2-0.1
			c0.4-0.1,0.7-0.2,0.9-0.4c0.3-0.2,0.5-0.4,0.6-0.7s0.2-0.6,0.2-1c0-0.4-0.1-0.7-0.3-1c-0.2-0.3-0.5-0.5-0.8-0.7
			c-0.3-0.2-0.7-0.4-1.1-0.6c-0.4-0.2-0.8-0.3-1.3-0.5c-0.4-0.2-0.9-0.4-1.3-0.6c-0.4-0.2-0.8-0.5-1.1-0.8c-0.3-0.3-0.6-0.7-0.8-1.2
			c-0.2-0.4-0.3-1-0.3-1.6c0-0.6,0.1-1.1,0.3-1.6c0.2-0.5,0.5-0.9,1-1.3c0.4-0.4,1-0.7,1.6-0.9c0.6-0.2,1.4-0.3,2.2-0.3
			c0.4,0,0.8,0,1.1,0.1s0.7,0.1,1,0.2c0.3,0.1,0.6,0.2,0.8,0.3c0.2,0.1,0.4,0.2,0.5,0.3c0.1,0.1,0.2,0.2,0.2,0.2
			c0,0.1,0.1,0.1,0.1,0.2s0,0.2,0,0.3c0,0.1,0,0.3,0,0.4c0,0.2,0,0.3,0,0.5c0,0.1,0,0.2-0.1,0.3c0,0.1-0.1,0.1-0.1,0.2
			c-0.1,0-0.1,0.1-0.2,0.1c-0.1,0-0.2-0.1-0.4-0.2c-0.2-0.1-0.4-0.2-0.7-0.4c-0.3-0.1-0.6-0.3-1-0.4c-0.4-0.1-0.8-0.2-1.3-0.2
			c-0.4,0-0.8,0-1.2,0.1c-0.3,0.1-0.6,0.2-0.8,0.4c-0.2,0.2-0.4,0.4-0.5,0.6s-0.2,0.5-0.2,0.8c0,0.4,0.1,0.7,0.3,1
			c0.2,0.3,0.5,0.5,0.8,0.7c0.3,0.2,0.7,0.4,1.1,0.6c0.4,0.2,0.9,0.3,1.3,0.5c0.4,0.2,0.9,0.4,1.3,0.6c0.4,0.2,0.8,0.5,1.1,0.8
			c0.3,0.3,0.6,0.7,0.8,1.1S339.8,563.6,339.8,564.2z"/>
		<path class="st3" d="M350.4,567c0,0.3,0,0.5-0.1,0.7c0,0.2-0.1,0.3-0.2,0.4c-0.1,0.1-0.2,0.2-0.4,0.2c-0.2,0.1-0.4,0.1-0.6,0.2
			c-0.2,0-0.4,0.1-0.7,0.1c-0.2,0-0.5,0-0.7,0c-0.7,0-1.4-0.1-1.9-0.3c-0.5-0.2-0.9-0.5-1.3-0.9c-0.3-0.4-0.6-0.9-0.7-1.5
			c-0.2-0.6-0.2-1.3-0.2-2.1v-8.2h-2c-0.2,0-0.3-0.1-0.4-0.2c-0.1-0.2-0.1-0.4-0.1-0.8c0-0.2,0-0.4,0-0.5c0-0.1,0.1-0.2,0.1-0.3
			c0-0.1,0.1-0.2,0.2-0.2c0.1,0,0.1-0.1,0.2-0.1h2v-3.3c0-0.1,0-0.1,0.1-0.2c0-0.1,0.1-0.1,0.2-0.2c0.1,0,0.2-0.1,0.4-0.1
			c0.2,0,0.4,0,0.6,0c0.3,0,0.5,0,0.6,0c0.2,0,0.3,0.1,0.4,0.1s0.2,0.1,0.2,0.2c0,0.1,0.1,0.1,0.1,0.2v3.3h3.6c0.1,0,0.2,0,0.2,0.1
			c0.1,0,0.1,0.1,0.2,0.2c0,0.1,0.1,0.2,0.1,0.3c0,0.1,0,0.3,0,0.5c0,0.4,0,0.6-0.1,0.8c-0.1,0.2-0.2,0.2-0.4,0.2h-3.6v7.8
			c0,1,0.1,1.7,0.4,2.2c0.3,0.5,0.8,0.7,1.5,0.7c0.2,0,0.5,0,0.6-0.1s0.4-0.1,0.5-0.1c0.1-0.1,0.3-0.1,0.4-0.1
			c0.1,0,0.2-0.1,0.3-0.1c0.1,0,0.1,0,0.1,0c0,0,0.1,0.1,0.1,0.1c0,0.1,0,0.2,0.1,0.3C350.4,566.6,350.4,566.8,350.4,567z"/>
		<path class="st3" d="M364,568c0,0.1,0,0.2-0.1,0.3c-0.1,0.1-0.2,0.1-0.3,0.1c-0.1,0-0.4,0-0.6,0c-0.3,0-0.5,0-0.6,0
			c-0.2,0-0.3-0.1-0.4-0.1c-0.1-0.1-0.1-0.2-0.1-0.3v-1.4c-0.6,0.7-1.3,1.2-2.1,1.5c-0.8,0.4-1.6,0.5-2.4,0.5c-0.7,0-1.4-0.1-2-0.3
			c-0.6-0.2-1.1-0.5-1.5-0.8c-0.4-0.4-0.8-0.8-1-1.3s-0.4-1.1-0.4-1.8c0-0.8,0.2-1.5,0.5-2.1c0.3-0.6,0.8-1.1,1.4-1.5
			c0.6-0.4,1.3-0.7,2.2-0.9c0.9-0.2,1.9-0.3,3-0.3h1.9v-1.1c0-0.5-0.1-1-0.2-1.4c-0.1-0.4-0.3-0.8-0.6-1c-0.3-0.3-0.6-0.5-1-0.6
			s-0.9-0.2-1.5-0.2c-0.6,0-1.2,0.1-1.7,0.2c-0.5,0.2-0.9,0.3-1.3,0.5c-0.4,0.2-0.7,0.3-1,0.5c-0.3,0.2-0.4,0.2-0.6,0.2
			c-0.1,0-0.2,0-0.2-0.1c-0.1,0-0.1-0.1-0.2-0.2c0-0.1-0.1-0.2-0.1-0.3c0-0.1,0-0.3,0-0.4c0-0.3,0-0.5,0.1-0.6
			c0-0.2,0.1-0.3,0.3-0.4c0.1-0.1,0.4-0.3,0.7-0.5c0.3-0.2,0.7-0.3,1.2-0.5c0.4-0.2,0.9-0.3,1.5-0.4c0.5-0.1,1.1-0.1,1.6-0.1
			c1,0,1.9,0.1,2.6,0.3c0.7,0.2,1.3,0.6,1.7,1c0.4,0.4,0.8,1,1,1.6c0.2,0.7,0.3,1.4,0.3,2.3V568z M361.5,561.6h-2.2
			c-0.7,0-1.3,0.1-1.8,0.2c-0.5,0.1-1,0.3-1.3,0.5s-0.6,0.5-0.8,0.8c-0.2,0.3-0.2,0.7-0.2,1.1c0,0.7,0.2,1.3,0.7,1.7
			c0.5,0.4,1.1,0.6,1.9,0.6c0.7,0,1.3-0.2,1.9-0.5s1.2-0.9,1.8-1.6V561.6z"/>
		<path class="st3" d="M380.9,568c0,0.1,0,0.2-0.1,0.2c0,0.1-0.1,0.1-0.2,0.1s-0.2,0.1-0.4,0.1c-0.2,0-0.4,0-0.6,0
			c-0.3,0-0.5,0-0.6,0c-0.2,0-0.3-0.1-0.4-0.1s-0.2-0.1-0.2-0.1c0-0.1-0.1-0.1-0.1-0.2v-8.2c0-0.8-0.1-1.4-0.2-1.9
			c-0.1-0.5-0.3-0.9-0.5-1.3c-0.2-0.4-0.5-0.6-0.9-0.8c-0.4-0.2-0.8-0.3-1.3-0.3c-0.6,0-1.3,0.2-1.9,0.7c-0.6,0.5-1.3,1.1-2,2v9.8
			c0,0.1,0,0.2-0.1,0.2c0,0.1-0.1,0.1-0.2,0.1s-0.2,0.1-0.4,0.1c-0.2,0-0.4,0-0.6,0c-0.2,0-0.5,0-0.6,0c-0.2,0-0.3-0.1-0.4-0.1
			c-0.1,0-0.2-0.1-0.2-0.1c0-0.1-0.1-0.1-0.1-0.2v-14.1c0-0.1,0-0.2,0-0.2c0-0.1,0.1-0.1,0.2-0.2s0.2-0.1,0.4-0.1c0.1,0,0.3,0,0.6,0
			c0.2,0,0.4,0,0.6,0c0.2,0,0.3,0,0.4,0.1c0.1,0,0.1,0.1,0.2,0.2c0,0.1,0.1,0.1,0.1,0.2v1.9c0.8-0.9,1.6-1.5,2.4-1.9
			c0.8-0.4,1.6-0.6,2.4-0.6c0.9,0,1.7,0.2,2.4,0.5c0.6,0.3,1.2,0.7,1.6,1.3c0.4,0.5,0.7,1.2,0.9,1.9c0.2,0.7,0.3,1.6,0.3,2.6V568z"
			/>
		<path class="st3" d="M395.7,565.9c0,0.2,0,0.3,0,0.5c0,0.1,0,0.2-0.1,0.3c0,0.1-0.1,0.2-0.1,0.2c0,0.1-0.1,0.2-0.2,0.3
			c-0.1,0.1-0.4,0.3-0.7,0.5c-0.3,0.2-0.7,0.4-1.1,0.5c-0.4,0.2-0.8,0.3-1.3,0.4c-0.5,0.1-0.9,0.1-1.4,0.1c-1,0-1.9-0.2-2.7-0.5
			s-1.4-0.8-2-1.5c-0.5-0.6-0.9-1.4-1.2-2.4c-0.3-0.9-0.4-2-0.4-3.2c0-1.4,0.2-2.6,0.5-3.6c0.3-1,0.8-1.8,1.4-2.4
			c0.6-0.6,1.3-1.1,2.1-1.4c0.8-0.3,1.7-0.5,2.6-0.5c0.4,0,0.9,0,1.3,0.1c0.4,0.1,0.8,0.2,1.2,0.3c0.4,0.1,0.7,0.3,0.9,0.5
			c0.3,0.2,0.5,0.3,0.6,0.5s0.2,0.2,0.3,0.3c0,0.1,0.1,0.2,0.1,0.3c0,0.1,0.1,0.2,0.1,0.3c0,0.1,0,0.3,0,0.5c0,0.4,0,0.7-0.1,0.9
			c-0.1,0.2-0.2,0.2-0.3,0.2c-0.2,0-0.3-0.1-0.5-0.3s-0.5-0.4-0.8-0.6c-0.3-0.2-0.7-0.4-1.1-0.6c-0.4-0.2-1-0.3-1.6-0.3
			c-1.2,0-2.2,0.5-2.9,1.4c-0.7,1-1,2.3-1,4.1c0,0.9,0.1,1.7,0.3,2.4c0.2,0.7,0.4,1.3,0.8,1.7c0.3,0.5,0.7,0.8,1.2,1
			c0.5,0.2,1,0.3,1.7,0.3c0.6,0,1.1-0.1,1.6-0.3c0.4-0.2,0.8-0.4,1.2-0.6c0.3-0.2,0.6-0.4,0.8-0.6c0.2-0.2,0.4-0.3,0.5-0.3
			c0.1,0,0.1,0,0.2,0.1c0.1,0,0.1,0.1,0.1,0.2c0,0.1,0.1,0.2,0.1,0.4C395.7,565.5,395.7,565.6,395.7,565.9z"/>
		<path class="st3" d="M411.1,560.4c0,0.4-0.1,0.7-0.3,0.9c-0.2,0.2-0.4,0.3-0.7,0.3h-9.3c0,0.8,0.1,1.5,0.2,2.1s0.4,1.2,0.8,1.6
			c0.4,0.4,0.8,0.8,1.4,1c0.6,0.2,1.3,0.4,2.2,0.4c0.7,0,1.3-0.1,1.8-0.2s1-0.2,1.4-0.4c0.4-0.1,0.7-0.3,0.9-0.4s0.4-0.2,0.6-0.2
			c0.1,0,0.1,0,0.2,0.1c0.1,0,0.1,0.1,0.1,0.2c0,0.1,0.1,0.2,0.1,0.3c0,0.1,0,0.3,0,0.5c0,0.1,0,0.3,0,0.4c0,0.1,0,0.2,0,0.3
			s0,0.1-0.1,0.2c0,0.1-0.1,0.1-0.1,0.2c-0.1,0.1-0.2,0.2-0.5,0.3c-0.3,0.1-0.6,0.3-1.1,0.4c-0.4,0.1-1,0.2-1.6,0.3
			c-0.6,0.1-1.2,0.1-1.9,0.1c-1.2,0-2.2-0.2-3-0.5c-0.9-0.3-1.6-0.8-2.2-1.4c-0.6-0.6-1-1.4-1.3-2.4c-0.3-1-0.5-2.1-0.5-3.3
			c0-1.2,0.2-2.3,0.5-3.3c0.3-1,0.8-1.8,1.4-2.5c0.6-0.7,1.3-1.2,2.1-1.5c0.8-0.4,1.8-0.5,2.8-0.5c1.1,0,2,0.2,2.8,0.5
			c0.8,0.4,1.4,0.8,1.9,1.4c0.5,0.6,0.9,1.3,1.1,2.1c0.2,0.8,0.4,1.7,0.4,2.6V560.4z M408.5,559.6c0-1.4-0.3-2.4-0.9-3.2
			c-0.6-0.8-1.6-1.2-2.8-1.2c-0.6,0-1.2,0.1-1.7,0.4c-0.5,0.2-0.9,0.6-1.2,1c-0.3,0.4-0.6,0.9-0.8,1.4c-0.2,0.5-0.3,1.1-0.3,1.6
			H408.5z"/>
	</g>
	<g class="st2">
		<path class="st4" d="M339.3,219.9c0,0.2,0,0.4,0,0.5c0,0.1-0.1,0.3-0.1,0.4c-0.1,0.1-0.1,0.2-0.2,0.2c-0.1,0-0.1,0.1-0.2,0.1h-7.4
			v6.9h7c0.1,0,0.1,0,0.2,0.1c0.1,0,0.1,0.1,0.2,0.2c0.1,0.1,0.1,0.2,0.1,0.3c0,0.1,0,0.3,0,0.5c0,0.2,0,0.4,0,0.5
			c0,0.1-0.1,0.3-0.1,0.3c-0.1,0.1-0.1,0.2-0.2,0.2c-0.1,0-0.1,0.1-0.2,0.1h-7v8.4c0,0.1,0,0.1-0.1,0.2c0,0.1-0.1,0.1-0.2,0.2
			c-0.1,0-0.2,0.1-0.4,0.1c-0.2,0-0.4,0-0.7,0c-0.2,0-0.5,0-0.6,0c-0.2,0-0.3-0.1-0.4-0.1c-0.1,0-0.2-0.1-0.2-0.2
			c0-0.1-0.1-0.1-0.1-0.2v-18.7c0-0.4,0.1-0.7,0.3-0.9c0.2-0.2,0.4-0.2,0.7-0.2h9.1c0.1,0,0.1,0,0.2,0.1c0.1,0,0.1,0.1,0.2,0.2
			c0.1,0.1,0.1,0.2,0.1,0.4C339.3,219.5,339.3,219.7,339.3,219.9z"/>
		<path class="st4" d="M346,219.8c0,0.6-0.1,1-0.3,1.2c-0.2,0.2-0.7,0.3-1.3,0.3c-0.6,0-1-0.1-1.2-0.3c-0.2-0.2-0.3-0.6-0.3-1.2
			c0-0.6,0.1-1,0.3-1.2c0.2-0.2,0.7-0.3,1.3-0.3c0.6,0,1,0.1,1.2,0.3C345.8,218.8,346,219.2,346,219.8z M345.7,238.6
			c0,0.1,0,0.2-0.1,0.2c0,0.1-0.1,0.1-0.2,0.1s-0.2,0.1-0.4,0.1c-0.2,0-0.4,0-0.6,0c-0.2,0-0.5,0-0.6,0c-0.2,0-0.3-0.1-0.4-0.1
			c-0.1,0-0.2-0.1-0.2-0.1c0-0.1-0.1-0.1-0.1-0.2v-14.1c0-0.1,0-0.1,0.1-0.2c0-0.1,0.1-0.1,0.2-0.2c0.1,0,0.2-0.1,0.4-0.1
			c0.2,0,0.4,0,0.6,0c0.3,0,0.5,0,0.6,0c0.2,0,0.3,0.1,0.4,0.1c0.1,0,0.2,0.1,0.2,0.2c0,0.1,0.1,0.1,0.1,0.2V238.6z"/>
		<path class="st4" d="M361.1,238.3c0.1,0.1,0.1,0.3,0.1,0.4c0,0.1,0,0.2-0.1,0.2c-0.1,0.1-0.2,0.1-0.5,0.1c-0.2,0-0.5,0-0.8,0
			c-0.3,0-0.6,0-0.7,0c-0.2,0-0.3,0-0.4-0.1s-0.2-0.1-0.2-0.1c-0.1-0.1-0.1-0.1-0.1-0.2l-3.4-5.6l-3.4,5.6c0,0.1-0.1,0.1-0.1,0.2
			c-0.1,0.1-0.1,0.1-0.2,0.1s-0.3,0.1-0.4,0.1c-0.2,0-0.4,0-0.7,0c-0.3,0-0.5,0-0.7,0c-0.2,0-0.3-0.1-0.4-0.1
			c-0.1-0.1-0.1-0.1-0.1-0.2c0-0.1,0.1-0.2,0.1-0.4l4.4-6.9l-4.1-6.6c-0.1-0.1-0.1-0.3-0.1-0.4c0-0.1,0-0.2,0.1-0.2
			c0.1-0.1,0.2-0.1,0.5-0.1c0.2,0,0.5,0,0.8,0c0.3,0,0.5,0,0.7,0c0.2,0,0.3,0,0.4,0.1c0.1,0,0.2,0.1,0.2,0.1
			c0.1,0.1,0.1,0.1,0.1,0.2l3.2,5.2l3.2-5.2c0-0.1,0.1-0.1,0.1-0.2c0.1-0.1,0.1-0.1,0.2-0.1c0.1,0,0.2-0.1,0.4-0.1
			c0.2,0,0.4,0,0.7,0c0.3,0,0.5,0,0.7,0c0.2,0,0.3,0.1,0.4,0.1c0.1,0.1,0.1,0.1,0.1,0.2c0,0.1-0.1,0.2-0.2,0.4l-4.1,6.5L361.1,238.3
			z"/>
		<path class="st4" d="M375.4,230.9c0,0.4-0.1,0.7-0.3,0.9c-0.2,0.2-0.4,0.3-0.7,0.3h-9.3c0,0.8,0.1,1.5,0.2,2.1s0.4,1.2,0.8,1.6
			c0.4,0.4,0.8,0.8,1.4,1c0.6,0.2,1.3,0.4,2.2,0.4c0.7,0,1.3-0.1,1.8-0.2s1-0.2,1.4-0.4c0.4-0.1,0.7-0.3,0.9-0.4s0.4-0.2,0.6-0.2
			c0.1,0,0.1,0,0.2,0.1c0.1,0,0.1,0.1,0.1,0.2c0,0.1,0.1,0.2,0.1,0.3c0,0.1,0,0.3,0,0.5c0,0.1,0,0.3,0,0.4c0,0.1,0,0.2,0,0.3
			s0,0.1-0.1,0.2c0,0.1-0.1,0.1-0.1,0.2c-0.1,0.1-0.2,0.2-0.5,0.3c-0.3,0.1-0.6,0.3-1.1,0.4c-0.4,0.1-1,0.2-1.6,0.3
			c-0.6,0.1-1.2,0.1-1.9,0.1c-1.2,0-2.2-0.2-3-0.5c-0.9-0.3-1.6-0.8-2.2-1.4c-0.6-0.6-1-1.4-1.3-2.4c-0.3-1-0.5-2.1-0.5-3.3
			c0-1.2,0.2-2.3,0.5-3.3c0.3-1,0.8-1.8,1.4-2.5c0.6-0.7,1.3-1.2,2.1-1.5c0.8-0.4,1.8-0.5,2.8-0.5c1.1,0,2,0.2,2.8,0.5
			c0.8,0.4,1.4,0.8,1.9,1.4c0.5,0.6,0.9,1.3,1.1,2.1c0.2,0.8,0.4,1.7,0.4,2.6V230.9z M372.8,230.2c0-1.4-0.3-2.4-0.9-3.2
			c-0.6-0.8-1.6-1.2-2.8-1.2c-0.6,0-1.2,0.1-1.7,0.4c-0.5,0.2-0.9,0.6-1.2,1c-0.3,0.4-0.6,0.9-0.8,1.4c-0.2,0.5-0.3,1.1-0.3,1.6
			H372.8z"/>
		<path class="st4" d="M391.4,238.6c0,0.1,0,0.2-0.1,0.2c0,0.1-0.1,0.1-0.2,0.1c-0.1,0-0.2,0.1-0.4,0.1c-0.1,0-0.3,0-0.5,0
			c-0.2,0-0.4,0-0.5,0c-0.1,0-0.3,0-0.4-0.1s-0.2-0.1-0.2-0.1c0-0.1-0.1-0.1-0.1-0.2v-1.9c-0.7,0.8-1.5,1.4-2.3,1.9
			s-1.7,0.7-2.6,0.7c-1,0-1.9-0.2-2.6-0.6c-0.7-0.4-1.3-0.9-1.8-1.6c-0.5-0.7-0.8-1.5-1-2.4c-0.2-0.9-0.3-1.9-0.3-2.9
			c0-1.2,0.1-2.3,0.4-3.3c0.3-1,0.6-1.8,1.2-2.5c0.5-0.7,1.1-1.2,1.9-1.6c0.8-0.4,1.6-0.6,2.6-0.6c0.8,0,1.6,0.2,2.3,0.5
			c0.7,0.4,1.4,0.9,2,1.6v-8.2c0-0.1,0-0.1,0.1-0.2c0-0.1,0.1-0.1,0.2-0.2c0.1,0,0.2-0.1,0.4-0.1c0.2,0,0.4,0,0.6,0
			c0.3,0,0.5,0,0.6,0c0.2,0,0.3,0.1,0.4,0.1c0.1,0,0.2,0.1,0.2,0.2c0,0.1,0.1,0.1,0.1,0.2V238.6z M388.8,228.7c-0.7-0.9-1.4-1.5-2-2
			c-0.7-0.5-1.3-0.7-2-0.7c-0.7,0-1.2,0.2-1.7,0.5c-0.5,0.3-0.8,0.7-1.1,1.2c-0.3,0.5-0.5,1.1-0.6,1.7c-0.1,0.6-0.2,1.3-0.2,2
			c0,0.7,0.1,1.4,0.2,2.1c0.1,0.7,0.3,1.3,0.6,1.8c0.3,0.5,0.6,0.9,1.1,1.3c0.4,0.3,1,0.5,1.7,0.5c0.3,0,0.7,0,1-0.1
			c0.3-0.1,0.6-0.2,1-0.5c0.3-0.2,0.7-0.5,1-0.9c0.4-0.3,0.8-0.8,1.2-1.3V228.7z"/>
		<path class="st4" d="M415,238.6c0,0.1,0,0.2-0.1,0.2c0,0.1-0.1,0.1-0.2,0.2c-0.1,0-0.2,0.1-0.4,0.1c-0.2,0-0.4,0-0.7,0
			c-0.3,0-0.5,0-0.7,0c-0.2,0-0.3,0-0.5-0.1s-0.2-0.1-0.3-0.2c-0.1-0.1-0.1-0.1-0.2-0.2l-5.9-7.8v7.8c0,0.1,0,0.2-0.1,0.2
			c0,0.1-0.1,0.1-0.2,0.1s-0.2,0.1-0.4,0.1c-0.2,0-0.4,0-0.6,0c-0.2,0-0.5,0-0.6,0c-0.2,0-0.3-0.1-0.4-0.1c-0.1,0-0.2-0.1-0.2-0.1
			c0-0.1-0.1-0.1-0.1-0.2v-20.9c0-0.1,0-0.2,0.1-0.2c0-0.1,0.1-0.1,0.2-0.2c0.1,0,0.2-0.1,0.4-0.1c0.2,0,0.4,0,0.6,0
			c0.3,0,0.5,0,0.6,0c0.2,0,0.3,0.1,0.4,0.1c0.1,0,0.2,0.1,0.2,0.2c0,0.1,0.1,0.1,0.1,0.2v12.7l5.3-5.8c0.1-0.1,0.2-0.2,0.3-0.3
			c0.1-0.1,0.2-0.1,0.3-0.2c0.1,0,0.3-0.1,0.5-0.1c0.2,0,0.4,0,0.6,0c0.3,0,0.5,0,0.7,0c0.2,0,0.3,0,0.4,0.1c0.1,0,0.2,0.1,0.2,0.1
			c0,0.1,0.1,0.1,0.1,0.2c0,0.1,0,0.2-0.1,0.4c-0.1,0.1-0.2,0.3-0.3,0.4l-5.1,5.1l5.7,7.4c0.1,0.2,0.2,0.3,0.3,0.4
			C414.9,238.4,415,238.5,415,238.6z"/>
		<path class="st4" d="M430.1,238.6c0,0.1,0,0.2-0.1,0.2c0,0.1-0.1,0.1-0.2,0.1s-0.2,0.1-0.4,0.1c-0.2,0-0.4,0-0.6,0
			c-0.3,0-0.5,0-0.6,0c-0.2,0-0.3-0.1-0.4-0.1s-0.2-0.1-0.2-0.1c0-0.1-0.1-0.1-0.1-0.2v-8.2c0-0.8-0.1-1.4-0.2-1.9
			c-0.1-0.5-0.3-0.9-0.5-1.3c-0.2-0.4-0.5-0.6-0.9-0.8c-0.4-0.2-0.8-0.3-1.3-0.3c-0.6,0-1.3,0.2-1.9,0.7c-0.6,0.5-1.3,1.1-2,2v9.8
			c0,0.1,0,0.2-0.1,0.2c0,0.1-0.1,0.1-0.2,0.1s-0.2,0.1-0.4,0.1c-0.2,0-0.4,0-0.6,0c-0.2,0-0.5,0-0.6,0c-0.2,0-0.3-0.1-0.4-0.1
			c-0.1,0-0.2-0.1-0.2-0.1c0-0.1-0.1-0.1-0.1-0.2v-14.1c0-0.1,0-0.2,0-0.2c0-0.1,0.1-0.1,0.2-0.2s0.2-0.1,0.4-0.1c0.1,0,0.3,0,0.6,0
			c0.2,0,0.4,0,0.6,0c0.2,0,0.3,0,0.4,0.1c0.1,0,0.1,0.1,0.2,0.2c0,0.1,0.1,0.1,0.1,0.2v1.9c0.8-0.9,1.6-1.5,2.4-1.9
			c0.8-0.4,1.6-0.6,2.4-0.6c0.9,0,1.7,0.2,2.4,0.5c0.6,0.3,1.2,0.7,1.6,1.3c0.4,0.5,0.7,1.2,0.9,1.9c0.2,0.7,0.3,1.6,0.3,2.6V238.6z
			"/>
		<path class="st4" d="M447.8,231.4c0,1.1-0.2,2.2-0.5,3.2c-0.3,1-0.8,1.8-1.4,2.5c-0.6,0.7-1.3,1.2-2.2,1.6
			c-0.9,0.4-1.9,0.6-3.1,0.6c-1.2,0-2.2-0.2-3-0.5s-1.6-0.8-2.1-1.5c-0.6-0.7-1-1.5-1.3-2.4s-0.4-2-0.4-3.2c0-1.1,0.1-2.2,0.4-3.2
			c0.3-1,0.7-1.8,1.3-2.5c0.6-0.7,1.3-1.2,2.2-1.6c0.9-0.4,1.9-0.6,3.1-0.6c1.2,0,2.2,0.2,3,0.5s1.6,0.8,2.1,1.5
			c0.6,0.7,1,1.5,1.3,2.4C447.7,229.2,447.8,230.2,447.8,231.4z M445.2,231.6c0-0.8-0.1-1.5-0.2-2.2c-0.1-0.7-0.4-1.3-0.7-1.8
			c-0.3-0.5-0.8-0.9-1.3-1.2c-0.6-0.3-1.3-0.4-2.1-0.4c-0.8,0-1.4,0.1-2,0.4c-0.6,0.3-1,0.7-1.4,1.1c-0.4,0.5-0.6,1.1-0.8,1.8
			c-0.2,0.7-0.3,1.4-0.3,2.2c0,0.8,0.1,1.5,0.2,2.2c0.1,0.7,0.4,1.3,0.7,1.8c0.3,0.5,0.8,0.9,1.3,1.2c0.6,0.3,1.3,0.4,2.1,0.4
			c0.8,0,1.4-0.1,2-0.4c0.6-0.3,1-0.7,1.4-1.1c0.4-0.5,0.6-1.1,0.8-1.8C445.1,233.1,445.2,232.4,445.2,231.6z"/>
		<path class="st4" d="M471.2,224.5c0,0.1,0,0.2,0,0.3c0,0.1-0.1,0.2-0.1,0.4l-4.1,13.4c0,0.1-0.1,0.2-0.1,0.3
			c-0.1,0.1-0.2,0.1-0.3,0.2c-0.1,0-0.3,0.1-0.5,0.1c-0.2,0-0.5,0-0.8,0c-0.3,0-0.6,0-0.8,0c-0.2,0-0.4-0.1-0.5-0.1
			c-0.1,0-0.2-0.1-0.3-0.2c-0.1-0.1-0.1-0.2-0.1-0.3l-3-10.2l0-0.1l0,0.1l-2.7,10.2c0,0.1-0.1,0.2-0.1,0.3c-0.1,0.1-0.2,0.1-0.3,0.2
			c-0.1,0-0.3,0.1-0.5,0.1c-0.2,0-0.5,0-0.8,0c-0.3,0-0.6,0-0.8,0c-0.2,0-0.4-0.1-0.5-0.1c-0.1,0-0.2-0.1-0.3-0.2
			c-0.1-0.1-0.1-0.2-0.1-0.3l-4.1-13.4c-0.1-0.2-0.1-0.3-0.1-0.4c0-0.1,0-0.2,0-0.3c0-0.1,0-0.2,0.1-0.2c0-0.1,0.1-0.1,0.2-0.1
			c0.1,0,0.2-0.1,0.4-0.1c0.2,0,0.4,0,0.6,0c0.3,0,0.5,0,0.7,0c0.2,0,0.3,0,0.4,0.1c0.1,0,0.2,0.1,0.2,0.2c0,0.1,0.1,0.1,0.1,0.2
			l3.4,11.6l0,0.1l0-0.1l3.1-11.6c0-0.1,0.1-0.2,0.1-0.2c0-0.1,0.1-0.1,0.2-0.2c0.1,0,0.2-0.1,0.4-0.1c0.2,0,0.4,0,0.6,0
			c0.2,0,0.5,0,0.6,0c0.2,0,0.3,0,0.4,0.1c0.1,0,0.2,0.1,0.2,0.1c0,0.1,0.1,0.1,0.1,0.2l3.4,11.6l0,0.1l0-0.1l3.3-11.6
			c0-0.1,0.1-0.2,0.1-0.2c0-0.1,0.1-0.1,0.2-0.2c0.1,0,0.2-0.1,0.4-0.1s0.4,0,0.7,0c0.2,0,0.5,0,0.6,0c0.2,0,0.3,0,0.4,0.1
			c0.1,0,0.2,0.1,0.2,0.1C471.2,224.3,471.2,224.4,471.2,224.5z"/>
		<path class="st4" d="M486.5,238.6c0,0.1,0,0.2-0.1,0.2c0,0.1-0.1,0.1-0.2,0.1s-0.2,0.1-0.4,0.1c-0.2,0-0.4,0-0.6,0
			c-0.3,0-0.5,0-0.6,0c-0.2,0-0.3-0.1-0.4-0.1s-0.2-0.1-0.2-0.1c0-0.1-0.1-0.1-0.1-0.2v-8.2c0-0.8-0.1-1.4-0.2-1.9
			c-0.1-0.5-0.3-0.9-0.5-1.3c-0.2-0.4-0.5-0.6-0.9-0.8c-0.4-0.2-0.8-0.3-1.3-0.3c-0.6,0-1.3,0.2-1.9,0.7c-0.6,0.5-1.3,1.1-2,2v9.8
			c0,0.1,0,0.2-0.1,0.2c0,0.1-0.1,0.1-0.2,0.1s-0.2,0.1-0.4,0.1c-0.2,0-0.4,0-0.6,0c-0.2,0-0.5,0-0.6,0c-0.2,0-0.3-0.1-0.4-0.1
			c-0.1,0-0.2-0.1-0.2-0.1c0-0.1-0.1-0.1-0.1-0.2v-14.1c0-0.1,0-0.2,0-0.2c0-0.1,0.1-0.1,0.2-0.2s0.2-0.1,0.4-0.1c0.1,0,0.3,0,0.6,0
			c0.2,0,0.4,0,0.6,0c0.2,0,0.3,0,0.4,0.1c0.1,0,0.1,0.1,0.2,0.2c0,0.1,0.1,0.1,0.1,0.2v1.9c0.8-0.9,1.6-1.5,2.4-1.9
			c0.8-0.4,1.6-0.6,2.4-0.6c0.9,0,1.7,0.2,2.4,0.5c0.6,0.3,1.2,0.7,1.6,1.3c0.4,0.5,0.7,1.2,0.9,1.9c0.2,0.7,0.3,1.6,0.3,2.6V238.6z
			"/>
	</g>
	<g class="st2">
		<path class="st4" d="M336.6,265.4c0,0.2,0,0.4,0,0.6c0,0.2,0,0.3-0.1,0.4c0,0.1-0.1,0.2-0.1,0.2s-0.1,0.1-0.2,0.1
			c-0.1,0-0.2,0-0.3-0.1c-0.1,0-0.3-0.1-0.4-0.1c-0.2,0-0.3-0.1-0.5-0.1c-0.2,0-0.4-0.1-0.6-0.1c-0.3,0-0.5,0.1-0.8,0.2
			c-0.2,0.1-0.5,0.3-0.8,0.5c-0.3,0.2-0.6,0.6-0.9,1c-0.3,0.4-0.6,0.9-1,1.5v9.2c0,0.1,0,0.2-0.1,0.2c0,0.1-0.1,0.1-0.2,0.1
			s-0.2,0.1-0.4,0.1c-0.2,0-0.4,0-0.6,0c-0.2,0-0.5,0-0.6,0c-0.2,0-0.3-0.1-0.4-0.1c-0.1,0-0.2-0.1-0.2-0.1c0-0.1-0.1-0.1-0.1-0.2
			v-14.1c0-0.1,0-0.2,0-0.2c0-0.1,0.1-0.1,0.2-0.2s0.2-0.1,0.4-0.1c0.1,0,0.3,0,0.6,0c0.2,0,0.4,0,0.6,0c0.2,0,0.3,0,0.4,0.1
			c0.1,0,0.1,0.1,0.2,0.2c0,0.1,0.1,0.1,0.1,0.2v2c0.4-0.6,0.7-1,1.1-1.4c0.3-0.4,0.7-0.6,1-0.8c0.3-0.2,0.6-0.3,0.9-0.4
			s0.6-0.1,0.9-0.1c0.1,0,0.3,0,0.5,0s0.4,0,0.5,0.1c0.2,0,0.4,0.1,0.5,0.1c0.2,0.1,0.3,0.1,0.3,0.2c0.1,0.1,0.1,0.1,0.1,0.1
			c0,0,0,0.1,0.1,0.2c0,0.1,0,0.2,0,0.3C336.6,265,336.6,265.2,336.6,265.4z"/>
		<path class="st4" d="M351.1,270.9c0,0.4-0.1,0.7-0.3,0.9c-0.2,0.2-0.4,0.3-0.7,0.3h-9.3c0,0.8,0.1,1.5,0.2,2.1s0.4,1.2,0.8,1.6
			c0.4,0.4,0.8,0.8,1.4,1c0.6,0.2,1.3,0.4,2.2,0.4c0.7,0,1.3-0.1,1.8-0.2s1-0.2,1.4-0.4c0.4-0.1,0.7-0.3,0.9-0.4s0.4-0.2,0.6-0.2
			c0.1,0,0.1,0,0.2,0.1c0.1,0,0.1,0.1,0.1,0.2c0,0.1,0.1,0.2,0.1,0.3c0,0.1,0,0.3,0,0.5c0,0.1,0,0.3,0,0.4c0,0.1,0,0.2,0,0.3
			s0,0.1-0.1,0.2c0,0.1-0.1,0.1-0.1,0.2c-0.1,0.1-0.2,0.2-0.5,0.3c-0.3,0.1-0.6,0.3-1.1,0.4c-0.4,0.1-1,0.2-1.6,0.3
			c-0.6,0.1-1.2,0.1-1.9,0.1c-1.2,0-2.2-0.2-3-0.5c-0.9-0.3-1.6-0.8-2.2-1.4c-0.6-0.6-1-1.4-1.3-2.4c-0.3-1-0.5-2.1-0.5-3.3
			c0-1.2,0.2-2.3,0.5-3.3c0.3-1,0.8-1.8,1.4-2.5c0.6-0.7,1.3-1.2,2.1-1.5c0.8-0.4,1.8-0.5,2.8-0.5c1.1,0,2,0.2,2.8,0.5
			c0.8,0.4,1.4,0.8,1.9,1.4c0.5,0.6,0.9,1.3,1.1,2.1c0.2,0.8,0.4,1.7,0.4,2.6V270.9z M348.5,270.2c0-1.4-0.3-2.4-0.9-3.2
			c-0.6-0.8-1.6-1.2-2.8-1.2c-0.6,0-1.2,0.1-1.7,0.4c-0.5,0.2-0.9,0.6-1.2,1c-0.3,0.4-0.6,0.9-0.8,1.4c-0.2,0.5-0.3,1.1-0.3,1.6
			H348.5z"/>
		<path class="st4" d="M363.9,274.8c0,0.7-0.1,1.4-0.4,1.9s-0.6,1-1.1,1.4c-0.5,0.4-1.1,0.7-1.8,0.9c-0.7,0.2-1.4,0.3-2.2,0.3
			c-0.5,0-1,0-1.4-0.1s-0.9-0.2-1.2-0.3s-0.7-0.2-0.9-0.4c-0.2-0.1-0.4-0.2-0.5-0.4c-0.1-0.1-0.2-0.2-0.2-0.4
			c-0.1-0.2-0.1-0.4-0.1-0.8c0-0.2,0-0.4,0-0.5c0-0.1,0-0.2,0.1-0.3c0-0.1,0.1-0.1,0.1-0.2c0.1,0,0.1-0.1,0.2-0.1
			c0.1,0,0.3,0.1,0.5,0.2c0.2,0.1,0.5,0.3,0.8,0.5c0.3,0.2,0.7,0.3,1.2,0.5c0.4,0.1,1,0.2,1.5,0.2c0.4,0,0.8,0,1.2-0.1
			c0.4-0.1,0.7-0.2,0.9-0.4c0.3-0.2,0.5-0.4,0.6-0.7s0.2-0.6,0.2-1c0-0.4-0.1-0.7-0.3-1c-0.2-0.3-0.5-0.5-0.8-0.7
			c-0.3-0.2-0.7-0.4-1.1-0.6c-0.4-0.2-0.8-0.3-1.3-0.5c-0.4-0.2-0.9-0.4-1.3-0.6c-0.4-0.2-0.8-0.5-1.1-0.8c-0.3-0.3-0.6-0.7-0.8-1.2
			c-0.2-0.4-0.3-1-0.3-1.6c0-0.6,0.1-1.1,0.3-1.6c0.2-0.5,0.5-0.9,1-1.3c0.4-0.4,1-0.7,1.6-0.9c0.6-0.2,1.4-0.3,2.2-0.3
			c0.4,0,0.8,0,1.1,0.1s0.7,0.1,1,0.2c0.3,0.1,0.6,0.2,0.8,0.3c0.2,0.1,0.4,0.2,0.5,0.3c0.1,0.1,0.2,0.2,0.2,0.2
			c0,0.1,0.1,0.1,0.1,0.2s0,0.2,0,0.3c0,0.1,0,0.3,0,0.4c0,0.2,0,0.3,0,0.5c0,0.1,0,0.2-0.1,0.3c0,0.1-0.1,0.1-0.1,0.2
			c-0.1,0-0.1,0.1-0.2,0.1c-0.1,0-0.2-0.1-0.4-0.2c-0.2-0.1-0.4-0.2-0.7-0.4c-0.3-0.1-0.6-0.3-1-0.4c-0.4-0.1-0.8-0.2-1.3-0.2
			c-0.4,0-0.8,0-1.2,0.1c-0.3,0.1-0.6,0.2-0.8,0.4c-0.2,0.2-0.4,0.4-0.5,0.6s-0.2,0.5-0.2,0.8c0,0.4,0.1,0.7,0.3,1
			c0.2,0.3,0.5,0.5,0.8,0.7c0.3,0.2,0.7,0.4,1.1,0.6c0.4,0.2,0.9,0.3,1.3,0.5c0.4,0.2,0.9,0.4,1.3,0.6c0.4,0.2,0.8,0.5,1.1,0.8
			c0.3,0.3,0.6,0.7,0.8,1.1S363.9,274.2,363.9,274.8z"/>
		<path class="st4" d="M370.4,259.8c0,0.6-0.1,1-0.3,1.2c-0.2,0.2-0.7,0.3-1.3,0.3c-0.6,0-1-0.1-1.2-0.3c-0.2-0.2-0.3-0.6-0.3-1.2
			c0-0.6,0.1-1,0.3-1.2c0.2-0.2,0.7-0.3,1.3-0.3c0.6,0,1,0.1,1.2,0.3C370.3,258.8,370.4,259.2,370.4,259.8z M370.1,278.6
			c0,0.1,0,0.2-0.1,0.2c0,0.1-0.1,0.1-0.2,0.1s-0.2,0.1-0.4,0.1c-0.2,0-0.4,0-0.6,0c-0.2,0-0.5,0-0.6,0c-0.2,0-0.3-0.1-0.4-0.1
			c-0.1,0-0.2-0.1-0.2-0.1c0-0.1-0.1-0.1-0.1-0.2v-14.1c0-0.1,0-0.1,0.1-0.2c0-0.1,0.1-0.1,0.2-0.2c0.1,0,0.2-0.1,0.4-0.1
			c0.2,0,0.4,0,0.6,0c0.3,0,0.5,0,0.6,0c0.2,0,0.3,0.1,0.4,0.1c0.1,0,0.2,0.1,0.2,0.2c0,0.1,0.1,0.1,0.1,0.2V278.6z"/>
		<path class="st4" d="M383.7,274.8c0,0.7-0.1,1.4-0.4,1.9s-0.6,1-1.1,1.4c-0.5,0.4-1.1,0.7-1.8,0.9c-0.7,0.2-1.4,0.3-2.2,0.3
			c-0.5,0-1,0-1.4-0.1s-0.9-0.2-1.2-0.3s-0.7-0.2-0.9-0.4c-0.2-0.1-0.4-0.2-0.5-0.4c-0.1-0.1-0.2-0.2-0.2-0.4
			c-0.1-0.2-0.1-0.4-0.1-0.8c0-0.2,0-0.4,0-0.5c0-0.1,0-0.2,0.1-0.3c0-0.1,0.1-0.1,0.1-0.2c0.1,0,0.1-0.1,0.2-0.1
			c0.1,0,0.3,0.1,0.5,0.2c0.2,0.1,0.5,0.3,0.8,0.5c0.3,0.2,0.7,0.3,1.2,0.5c0.4,0.1,1,0.2,1.5,0.2c0.4,0,0.8,0,1.2-0.1
			c0.4-0.1,0.7-0.2,0.9-0.4c0.3-0.2,0.5-0.4,0.6-0.7s0.2-0.6,0.2-1c0-0.4-0.1-0.7-0.3-1c-0.2-0.3-0.5-0.5-0.8-0.7
			c-0.3-0.2-0.7-0.4-1.1-0.6c-0.4-0.2-0.8-0.3-1.3-0.5c-0.4-0.2-0.9-0.4-1.3-0.6c-0.4-0.2-0.8-0.5-1.1-0.8c-0.3-0.3-0.6-0.7-0.8-1.2
			c-0.2-0.4-0.3-1-0.3-1.6c0-0.6,0.1-1.1,0.3-1.6c0.2-0.5,0.5-0.9,1-1.3c0.4-0.4,1-0.7,1.6-0.9c0.6-0.2,1.4-0.3,2.2-0.3
			c0.4,0,0.8,0,1.1,0.1s0.7,0.1,1,0.2c0.3,0.1,0.6,0.2,0.8,0.3c0.2,0.1,0.4,0.2,0.5,0.3c0.1,0.1,0.2,0.2,0.2,0.2
			c0,0.1,0.1,0.1,0.1,0.2s0,0.2,0,0.3c0,0.1,0,0.3,0,0.4c0,0.2,0,0.3,0,0.5c0,0.1,0,0.2-0.1,0.3c0,0.1-0.1,0.1-0.1,0.2
			c-0.1,0-0.1,0.1-0.2,0.1c-0.1,0-0.2-0.1-0.4-0.2c-0.2-0.1-0.4-0.2-0.7-0.4c-0.3-0.1-0.6-0.3-1-0.4c-0.4-0.1-0.8-0.2-1.3-0.2
			c-0.4,0-0.8,0-1.2,0.1c-0.3,0.1-0.6,0.2-0.8,0.4c-0.2,0.2-0.4,0.4-0.5,0.6s-0.2,0.5-0.2,0.8c0,0.4,0.1,0.7,0.3,1
			c0.2,0.3,0.5,0.5,0.8,0.7c0.3,0.2,0.7,0.4,1.1,0.6c0.4,0.2,0.9,0.3,1.3,0.5c0.4,0.2,0.9,0.4,1.3,0.6c0.4,0.2,0.8,0.5,1.1,0.8
			c0.3,0.3,0.6,0.7,0.8,1.1S383.7,274.2,383.7,274.8z"/>
		<path class="st4" d="M394.4,277.6c0,0.3,0,0.5-0.1,0.7c0,0.2-0.1,0.3-0.2,0.4c-0.1,0.1-0.2,0.2-0.4,0.2c-0.2,0.1-0.4,0.1-0.6,0.2
			c-0.2,0-0.4,0.1-0.7,0.1c-0.2,0-0.5,0-0.7,0c-0.7,0-1.4-0.1-1.9-0.3c-0.5-0.2-0.9-0.5-1.3-0.9c-0.3-0.4-0.6-0.9-0.7-1.5
			c-0.2-0.6-0.2-1.3-0.2-2.1v-8.2h-2c-0.2,0-0.3-0.1-0.4-0.2c-0.1-0.2-0.1-0.4-0.1-0.8c0-0.2,0-0.4,0-0.5c0-0.1,0.1-0.2,0.1-0.3
			c0-0.1,0.1-0.2,0.2-0.2c0.1,0,0.1-0.1,0.2-0.1h2v-3.3c0-0.1,0-0.1,0.1-0.2c0-0.1,0.1-0.1,0.2-0.2c0.1,0,0.2-0.1,0.4-0.1
			c0.2,0,0.4,0,0.6,0c0.3,0,0.5,0,0.6,0c0.2,0,0.3,0.1,0.4,0.1s0.2,0.1,0.2,0.2c0,0.1,0.1,0.1,0.1,0.2v3.3h3.6c0.1,0,0.2,0,0.2,0.1
			c0.1,0,0.1,0.1,0.2,0.2c0,0.1,0.1,0.2,0.1,0.3c0,0.1,0,0.3,0,0.5c0,0.4,0,0.6-0.1,0.8c-0.1,0.2-0.2,0.2-0.4,0.2h-3.6v7.8
			c0,1,0.1,1.7,0.4,2.2c0.3,0.5,0.8,0.7,1.5,0.7c0.2,0,0.5,0,0.6-0.1s0.4-0.1,0.5-0.1c0.1-0.1,0.3-0.1,0.4-0.1
			c0.1,0,0.2-0.1,0.3-0.1c0.1,0,0.1,0,0.1,0c0,0,0.1,0.1,0.1,0.1c0,0.1,0,0.2,0.1,0.3C394.3,277.2,394.4,277.4,394.4,277.6z"/>
		<path class="st4" d="M408,278.6c0,0.1,0,0.2-0.1,0.3c-0.1,0.1-0.2,0.1-0.3,0.1c-0.1,0-0.4,0-0.6,0c-0.3,0-0.5,0-0.6,0
			c-0.2,0-0.3-0.1-0.4-0.1c-0.1-0.1-0.1-0.2-0.1-0.3v-1.4c-0.6,0.7-1.3,1.2-2.1,1.5c-0.8,0.4-1.6,0.5-2.4,0.5c-0.7,0-1.4-0.1-2-0.3
			c-0.6-0.2-1.1-0.5-1.5-0.8c-0.4-0.4-0.8-0.8-1-1.3s-0.4-1.1-0.4-1.8c0-0.8,0.2-1.5,0.5-2.1c0.3-0.6,0.8-1.1,1.4-1.5
			c0.6-0.4,1.3-0.7,2.2-0.9c0.9-0.2,1.9-0.3,3-0.3h1.9v-1.1c0-0.5-0.1-1-0.2-1.4c-0.1-0.4-0.3-0.8-0.6-1c-0.3-0.3-0.6-0.5-1-0.6
			s-0.9-0.2-1.5-0.2c-0.6,0-1.2,0.1-1.7,0.2c-0.5,0.2-0.9,0.3-1.3,0.5c-0.4,0.2-0.7,0.3-1,0.5c-0.3,0.2-0.4,0.2-0.6,0.2
			c-0.1,0-0.2,0-0.2-0.1c-0.1,0-0.1-0.1-0.2-0.2c0-0.1-0.1-0.2-0.1-0.3c0-0.1,0-0.3,0-0.4c0-0.3,0-0.5,0.1-0.6
			c0-0.2,0.1-0.3,0.3-0.4c0.1-0.1,0.4-0.3,0.7-0.5c0.3-0.2,0.7-0.3,1.2-0.5c0.4-0.2,0.9-0.3,1.5-0.4c0.5-0.1,1.1-0.1,1.6-0.1
			c1,0,1.9,0.1,2.6,0.3c0.7,0.2,1.3,0.6,1.7,1c0.4,0.4,0.8,1,1,1.6c0.2,0.7,0.3,1.4,0.3,2.3V278.6z M405.4,272.2h-2.2
			c-0.7,0-1.3,0.1-1.8,0.2c-0.5,0.1-1,0.3-1.3,0.5s-0.6,0.5-0.8,0.8c-0.2,0.3-0.2,0.7-0.2,1.1c0,0.7,0.2,1.3,0.7,1.7
			c0.5,0.4,1.1,0.6,1.9,0.6c0.7,0,1.3-0.2,1.9-0.5s1.2-0.9,1.8-1.6V272.2z"/>
		<path class="st4" d="M424.8,278.6c0,0.1,0,0.2-0.1,0.2c0,0.1-0.1,0.1-0.2,0.1s-0.2,0.1-0.4,0.1c-0.2,0-0.4,0-0.6,0
			c-0.3,0-0.5,0-0.6,0c-0.2,0-0.3-0.1-0.4-0.1s-0.2-0.1-0.2-0.1c0-0.1-0.1-0.1-0.1-0.2v-8.2c0-0.8-0.1-1.4-0.2-1.9
			c-0.1-0.5-0.3-0.9-0.5-1.3c-0.2-0.4-0.5-0.6-0.9-0.8c-0.4-0.2-0.8-0.3-1.3-0.3c-0.6,0-1.3,0.2-1.9,0.7c-0.6,0.5-1.3,1.1-2,2v9.8
			c0,0.1,0,0.2-0.1,0.2c0,0.1-0.1,0.1-0.2,0.1s-0.2,0.1-0.4,0.1c-0.2,0-0.4,0-0.6,0c-0.2,0-0.5,0-0.6,0c-0.2,0-0.3-0.1-0.4-0.1
			c-0.1,0-0.2-0.1-0.2-0.1c0-0.1-0.1-0.1-0.1-0.2v-14.1c0-0.1,0-0.2,0-0.2c0-0.1,0.1-0.1,0.2-0.2s0.2-0.1,0.4-0.1c0.1,0,0.3,0,0.6,0
			c0.2,0,0.4,0,0.6,0c0.2,0,0.3,0,0.4,0.1c0.1,0,0.1,0.1,0.2,0.2c0,0.1,0.1,0.1,0.1,0.2v1.9c0.8-0.9,1.6-1.5,2.4-1.9
			c0.8-0.4,1.6-0.6,2.4-0.6c0.9,0,1.7,0.2,2.4,0.5c0.6,0.3,1.2,0.7,1.6,1.3c0.4,0.5,0.7,1.2,0.9,1.9c0.2,0.7,0.3,1.6,0.3,2.6V278.6z
			"/>
		<path class="st4" d="M439.6,276.4c0,0.2,0,0.3,0,0.5c0,0.1,0,0.2-0.1,0.3c0,0.1-0.1,0.2-0.1,0.2c0,0.1-0.1,0.2-0.2,0.3
			c-0.1,0.1-0.4,0.3-0.7,0.5c-0.3,0.2-0.7,0.4-1.1,0.5c-0.4,0.2-0.8,0.3-1.3,0.4c-0.5,0.1-0.9,0.1-1.4,0.1c-1,0-1.9-0.2-2.7-0.5
			s-1.4-0.8-2-1.5c-0.5-0.6-0.9-1.4-1.2-2.4c-0.3-0.9-0.4-2-0.4-3.2c0-1.4,0.2-2.6,0.5-3.6c0.3-1,0.8-1.8,1.4-2.4
			c0.6-0.6,1.3-1.1,2.1-1.4c0.8-0.3,1.7-0.5,2.6-0.5c0.4,0,0.9,0,1.3,0.1c0.4,0.1,0.8,0.2,1.2,0.3c0.4,0.1,0.7,0.3,0.9,0.5
			c0.3,0.2,0.5,0.3,0.6,0.5s0.2,0.2,0.3,0.3c0,0.1,0.1,0.2,0.1,0.3c0,0.1,0.1,0.2,0.1,0.3c0,0.1,0,0.3,0,0.5c0,0.4,0,0.7-0.1,0.9
			c-0.1,0.2-0.2,0.2-0.3,0.2c-0.2,0-0.3-0.1-0.5-0.3s-0.5-0.4-0.8-0.6c-0.3-0.2-0.7-0.4-1.1-0.6c-0.4-0.2-1-0.3-1.6-0.3
			c-1.2,0-2.2,0.5-2.9,1.4c-0.7,1-1,2.3-1,4.1c0,0.9,0.1,1.7,0.3,2.4c0.2,0.7,0.4,1.3,0.8,1.7c0.3,0.5,0.7,0.8,1.2,1
			c0.5,0.2,1,0.3,1.7,0.3c0.6,0,1.1-0.1,1.6-0.3c0.4-0.2,0.8-0.4,1.2-0.6c0.3-0.2,0.6-0.4,0.8-0.6c0.2-0.2,0.4-0.3,0.5-0.3
			c0.1,0,0.1,0,0.2,0.1c0.1,0,0.1,0.1,0.1,0.2c0,0.1,0.1,0.2,0.1,0.4C439.6,276.1,439.6,276.2,439.6,276.4z"/>
		<path class="st4" d="M455,270.9c0,0.4-0.1,0.7-0.3,0.9c-0.2,0.2-0.4,0.3-0.7,0.3h-9.3c0,0.8,0.1,1.5,0.2,2.1s0.4,1.2,0.8,1.6
			c0.4,0.4,0.8,0.8,1.4,1c0.6,0.2,1.3,0.4,2.2,0.4c0.7,0,1.3-0.1,1.8-0.2s1-0.2,1.4-0.4c0.4-0.1,0.7-0.3,0.9-0.4s0.4-0.2,0.6-0.2
			c0.1,0,0.1,0,0.2,0.1c0.1,0,0.1,0.1,0.1,0.2c0,0.1,0.1,0.2,0.1,0.3c0,0.1,0,0.3,0,0.5c0,0.1,0,0.3,0,0.4c0,0.1,0,0.2,0,0.3
			s0,0.1-0.1,0.2c0,0.1-0.1,0.1-0.1,0.2c-0.1,0.1-0.2,0.2-0.5,0.3c-0.3,0.1-0.6,0.3-1.1,0.4c-0.4,0.1-1,0.2-1.6,0.3
			c-0.6,0.1-1.2,0.1-1.9,0.1c-1.2,0-2.2-0.2-3-0.5c-0.9-0.3-1.6-0.8-2.2-1.4c-0.6-0.6-1-1.4-1.3-2.4c-0.3-1-0.5-2.1-0.5-3.3
			c0-1.2,0.2-2.3,0.5-3.3c0.3-1,0.8-1.8,1.4-2.5c0.6-0.7,1.3-1.2,2.1-1.5c0.8-0.4,1.8-0.5,2.8-0.5c1.1,0,2,0.2,2.8,0.5
			c0.8,0.4,1.4,0.8,1.9,1.4c0.5,0.6,0.9,1.3,1.1,2.1c0.2,0.8,0.4,1.7,0.4,2.6V270.9z M452.5,270.2c0-1.4-0.3-2.4-0.9-3.2
			c-0.6-0.8-1.6-1.2-2.8-1.2c-0.6,0-1.2,0.1-1.7,0.4c-0.5,0.2-0.9,0.6-1.2,1c-0.3,0.4-0.6,0.9-0.8,1.4c-0.2,0.5-0.3,1.1-0.3,1.6
			H452.5z"/>
	</g>
	<g class="st2">
		<path d="M17.3,404.7c0.1,0.2,0.1,0.4,0.1,0.6c0,0.1,0,0.2-0.1,0.3c-0.1,0.1-0.2,0.1-0.4,0.1c-0.2,0-0.5,0-0.8,0
			c-0.3,0-0.6,0-0.8,0c-0.2,0-0.3,0-0.4-0.1c-0.1,0-0.2-0.1-0.2-0.1s-0.1-0.1-0.1-0.2l-1.7-4.9H4.4l-1.7,4.9c0,0.1-0.1,0.2-0.1,0.2
			c-0.1,0.1-0.1,0.1-0.2,0.2c-0.1,0-0.2,0.1-0.4,0.1c-0.2,0-0.4,0-0.7,0c-0.3,0-0.5,0-0.7,0c-0.2,0-0.3-0.1-0.4-0.1
			C0,405.5,0,405.4,0,405.2c0-0.1,0-0.3,0.1-0.6l6.8-18.8c0-0.1,0.1-0.2,0.2-0.3c0.1-0.1,0.2-0.1,0.3-0.2c0.1,0,0.3-0.1,0.5-0.1
			s0.5,0,0.8,0c0.3,0,0.6,0,0.8,0s0.4,0,0.5,0.1c0.1,0,0.2,0.1,0.3,0.2c0.1,0.1,0.1,0.2,0.2,0.3L17.3,404.7z M8.6,388.1L8.6,388.1
			l-3.5,10.1h7L8.6,388.1z"/>
		<path d="M32.5,405.3c0,0.1,0,0.2-0.1,0.2c0,0.1-0.1,0.1-0.2,0.1s-0.2,0.1-0.4,0.1c-0.2,0-0.4,0-0.6,0c-0.3,0-0.5,0-0.6,0
			c-0.2,0-0.3-0.1-0.4-0.1s-0.2-0.1-0.2-0.1c0-0.1-0.1-0.1-0.1-0.2V397c0-0.8-0.1-1.4-0.2-1.9c-0.1-0.5-0.3-0.9-0.5-1.3
			c-0.2-0.4-0.5-0.6-0.9-0.8c-0.4-0.2-0.8-0.3-1.3-0.3c-0.6,0-1.3,0.2-1.9,0.7c-0.6,0.5-1.3,1.1-2,2v9.8c0,0.1,0,0.2-0.1,0.2
			c0,0.1-0.1,0.1-0.2,0.1s-0.2,0.1-0.4,0.1c-0.2,0-0.4,0-0.6,0c-0.2,0-0.5,0-0.6,0c-0.2,0-0.3-0.1-0.4-0.1c-0.1,0-0.2-0.1-0.2-0.1
			c0-0.1-0.1-0.1-0.1-0.2v-14.1c0-0.1,0-0.2,0-0.2c0-0.1,0.1-0.1,0.2-0.2s0.2-0.1,0.4-0.1c0.1,0,0.3,0,0.6,0c0.2,0,0.4,0,0.6,0
			c0.2,0,0.3,0,0.4,0.1c0.1,0,0.1,0.1,0.2,0.2c0,0.1,0.1,0.1,0.1,0.2v1.9c0.8-0.9,1.6-1.5,2.4-1.9c0.8-0.4,1.6-0.6,2.4-0.6
			c0.9,0,1.7,0.2,2.4,0.5c0.6,0.3,1.2,0.7,1.6,1.3c0.4,0.5,0.7,1.2,0.9,1.9c0.2,0.7,0.3,1.6,0.3,2.6V405.3z"/>
		<path d="M47.8,405.3c0,0.1,0,0.2-0.1,0.3c-0.1,0.1-0.2,0.1-0.3,0.1c-0.1,0-0.4,0-0.6,0c-0.3,0-0.5,0-0.6,0c-0.2,0-0.3-0.1-0.4-0.1
			c-0.1-0.1-0.1-0.2-0.1-0.3v-1.4c-0.6,0.7-1.3,1.2-2.1,1.5c-0.8,0.4-1.6,0.5-2.4,0.5c-0.7,0-1.4-0.1-2-0.3
			c-0.6-0.2-1.1-0.5-1.5-0.8c-0.4-0.4-0.8-0.8-1-1.3s-0.4-1.1-0.4-1.8c0-0.8,0.2-1.5,0.5-2.1c0.3-0.6,0.8-1.1,1.4-1.5
			c0.6-0.4,1.3-0.7,2.2-0.9c0.9-0.2,1.9-0.3,3-0.3h1.9v-1.1c0-0.5-0.1-1-0.2-1.4c-0.1-0.4-0.3-0.8-0.6-1c-0.3-0.3-0.6-0.5-1-0.6
			s-0.9-0.2-1.5-0.2c-0.6,0-1.2,0.1-1.7,0.2c-0.5,0.2-0.9,0.3-1.3,0.5c-0.4,0.2-0.7,0.3-1,0.5c-0.3,0.2-0.4,0.2-0.6,0.2
			c-0.1,0-0.2,0-0.2-0.1c-0.1,0-0.1-0.1-0.2-0.2c0-0.1-0.1-0.2-0.1-0.3c0-0.1,0-0.3,0-0.4c0-0.3,0-0.5,0.1-0.6
			c0-0.2,0.1-0.3,0.3-0.4c0.1-0.1,0.4-0.3,0.7-0.5c0.3-0.2,0.7-0.3,1.2-0.5c0.4-0.2,0.9-0.3,1.5-0.4c0.5-0.1,1.1-0.1,1.6-0.1
			c1,0,1.9,0.1,2.6,0.3c0.7,0.2,1.3,0.6,1.7,1c0.4,0.4,0.8,1,1,1.6c0.2,0.7,0.3,1.4,0.3,2.3V405.3z M45.2,398.9H43
			c-0.7,0-1.3,0.1-1.8,0.2c-0.5,0.1-1,0.3-1.3,0.5s-0.6,0.5-0.8,0.8c-0.2,0.3-0.2,0.7-0.2,1.1c0,0.7,0.2,1.3,0.7,1.7
			c0.5,0.4,1.1,0.6,1.9,0.6c0.7,0,1.3-0.2,1.9-0.5s1.2-0.9,1.8-1.6V398.9z"/>
		<path d="M55.1,405.3c0,0.1,0,0.2-0.1,0.2c0,0.1-0.1,0.1-0.2,0.1s-0.2,0.1-0.4,0.1c-0.2,0-0.4,0-0.6,0c-0.2,0-0.5,0-0.6,0
			c-0.2,0-0.3-0.1-0.4-0.1c-0.1,0-0.2-0.1-0.2-0.1c0-0.1-0.1-0.1-0.1-0.2v-20.9c0-0.1,0-0.2,0.1-0.2c0-0.1,0.1-0.1,0.2-0.2
			c0.1,0,0.2-0.1,0.4-0.1c0.2,0,0.4,0,0.6,0c0.3,0,0.5,0,0.6,0c0.2,0,0.3,0.1,0.4,0.1c0.1,0,0.2,0.1,0.2,0.2c0,0.1,0.1,0.1,0.1,0.2
			V405.3z"/>
		<path d="M72.9,398.1c0,1.1-0.2,2.2-0.5,3.2c-0.3,1-0.8,1.8-1.4,2.5c-0.6,0.7-1.3,1.2-2.2,1.6c-0.9,0.4-1.9,0.6-3.1,0.6
			c-1.2,0-2.2-0.2-3-0.5s-1.6-0.8-2.1-1.5c-0.6-0.7-1-1.5-1.3-2.4s-0.4-2-0.4-3.2c0-1.1,0.1-2.2,0.4-3.2c0.3-1,0.7-1.8,1.3-2.5
			c0.6-0.7,1.3-1.2,2.2-1.6c0.9-0.4,1.9-0.6,3.1-0.6c1.2,0,2.2,0.2,3,0.5s1.6,0.8,2.1,1.5c0.6,0.7,1,1.5,1.3,2.4
			C72.8,395.8,72.9,396.9,72.9,398.1z M70.2,398.2c0-0.8-0.1-1.5-0.2-2.2c-0.1-0.7-0.4-1.3-0.7-1.8c-0.3-0.5-0.8-0.9-1.3-1.2
			c-0.6-0.3-1.3-0.4-2.1-0.4c-0.8,0-1.4,0.1-2,0.4c-0.6,0.3-1,0.7-1.4,1.1c-0.4,0.5-0.6,1.1-0.8,1.8c-0.2,0.7-0.3,1.4-0.3,2.2
			c0,0.8,0.1,1.5,0.2,2.2c0.1,0.7,0.4,1.3,0.7,1.8c0.3,0.5,0.8,0.9,1.3,1.2c0.6,0.3,1.3,0.4,2.1,0.4c0.8,0,1.4-0.1,2-0.4
			c0.6-0.3,1-0.7,1.4-1.1c0.4-0.5,0.6-1.1,0.8-1.8C70.2,399.8,70.2,399.1,70.2,398.2z"/>
		<path d="M88.5,391.8c0,0.4,0,0.6-0.1,0.8c-0.1,0.2-0.2,0.2-0.4,0.2h-2c0.4,0.4,0.6,0.8,0.8,1.2c0.1,0.5,0.2,0.9,0.2,1.4
			c0,0.8-0.1,1.5-0.4,2.2c-0.3,0.6-0.6,1.2-1.1,1.6c-0.5,0.4-1.1,0.8-1.7,1c-0.7,0.2-1.4,0.3-2.2,0.3c-0.6,0-1.1-0.1-1.6-0.2
			c-0.5-0.2-0.9-0.3-1.2-0.6c-0.2,0.2-0.3,0.4-0.5,0.6c-0.1,0.2-0.2,0.5-0.2,0.8c0,0.4,0.2,0.7,0.5,0.9c0.3,0.2,0.8,0.4,1.4,0.4
			l3.7,0.2c0.7,0,1.3,0.1,1.9,0.3c0.6,0.2,1.1,0.4,1.5,0.7c0.4,0.3,0.8,0.7,1,1.2c0.2,0.5,0.4,1,0.4,1.6c0,0.6-0.1,1.3-0.4,1.8
			c-0.3,0.6-0.7,1.1-1.2,1.5c-0.6,0.4-1.3,0.8-2.1,1c-0.9,0.3-1.9,0.4-3.1,0.4c-1.1,0-2.1-0.1-2.9-0.3c-0.8-0.2-1.5-0.5-2-0.8
			c-0.5-0.3-0.9-0.7-1.1-1.2c-0.2-0.5-0.3-1-0.3-1.5c0-0.3,0-0.7,0.1-1c0.1-0.3,0.2-0.6,0.4-0.9s0.4-0.6,0.6-0.8
			c0.3-0.3,0.5-0.5,0.9-0.8c-0.5-0.3-0.9-0.6-1.1-1c-0.2-0.4-0.4-0.8-0.4-1.3c0-0.6,0.1-1.2,0.4-1.7c0.3-0.5,0.6-0.9,1-1.3
			c-0.3-0.4-0.6-0.8-0.8-1.3s-0.3-1.1-0.3-1.8c0-0.8,0.1-1.5,0.4-2.2c0.3-0.6,0.6-1.2,1.1-1.6c0.5-0.4,1.1-0.8,1.7-1
			s1.4-0.4,2.2-0.4c0.4,0,0.8,0,1.2,0.1c0.4,0,0.7,0.1,1,0.2h4.2c0.2,0,0.3,0.1,0.4,0.3C88.4,391.2,88.5,391.5,88.5,391.8z
			 M85.7,406.7c0-0.6-0.2-1.1-0.7-1.4c-0.5-0.3-1.2-0.5-2-0.5l-3.6-0.1c-0.3,0.3-0.6,0.5-0.8,0.7c-0.2,0.2-0.4,0.5-0.5,0.7
			c-0.1,0.2-0.2,0.4-0.3,0.6c0,0.2-0.1,0.4-0.1,0.6c0,0.7,0.3,1.2,1,1.5c0.7,0.3,1.6,0.5,2.9,0.5c0.8,0,1.4-0.1,2-0.2
			c0.5-0.2,1-0.4,1.3-0.6c0.3-0.2,0.6-0.5,0.7-0.9C85.7,407.4,85.7,407,85.7,406.7z M84.4,395.5c0-1-0.3-1.7-0.8-2.2
			c-0.5-0.5-1.3-0.8-2.2-0.8c-0.5,0-0.9,0.1-1.3,0.2c-0.4,0.2-0.7,0.4-0.9,0.7c-0.2,0.3-0.4,0.6-0.5,1c-0.1,0.4-0.2,0.8-0.2,1.2
			c0,0.9,0.3,1.7,0.8,2.2c0.5,0.5,1.3,0.8,2.2,0.8c0.5,0,1-0.1,1.3-0.2c0.4-0.2,0.7-0.4,0.9-0.7c0.2-0.3,0.4-0.6,0.5-1
			C84.4,396.3,84.4,395.9,84.4,395.5z"/>
		<path d="M102,405.2c0,0.1,0,0.2-0.1,0.2c0,0.1-0.1,0.1-0.2,0.1c-0.1,0-0.2,0.1-0.4,0.1c-0.2,0-0.4,0-0.6,0c-0.2,0-0.5,0-0.6,0
			c-0.2,0-0.3-0.1-0.4-0.1c-0.1,0-0.2-0.1-0.2-0.1c0-0.1-0.1-0.1-0.1-0.2v-19.4c0-0.1,0-0.2,0.1-0.2s0.1-0.1,0.2-0.1
			c0.1,0,0.2-0.1,0.4-0.1c0.2,0,0.4,0,0.6,0c0.3,0,0.5,0,0.6,0c0.2,0,0.3,0.1,0.4,0.1c0.1,0,0.2,0.1,0.2,0.1c0,0.1,0.1,0.1,0.1,0.2
			V405.2z"/>
		<path d="M119.2,405.3c0,0.1,0,0.2-0.1,0.2c0,0.1-0.1,0.1-0.2,0.1s-0.2,0.1-0.4,0.1c-0.2,0-0.4,0-0.6,0c-0.3,0-0.5,0-0.6,0
			c-0.2,0-0.3-0.1-0.4-0.1s-0.2-0.1-0.2-0.1c0-0.1-0.1-0.1-0.1-0.2V397c0-0.8-0.1-1.4-0.2-1.9c-0.1-0.5-0.3-0.9-0.5-1.3
			c-0.2-0.4-0.5-0.6-0.9-0.8c-0.4-0.2-0.8-0.3-1.3-0.3c-0.6,0-1.3,0.2-1.9,0.7c-0.6,0.5-1.3,1.1-2,2v9.8c0,0.1,0,0.2-0.1,0.2
			c0,0.1-0.1,0.1-0.2,0.1s-0.2,0.1-0.4,0.1c-0.2,0-0.4,0-0.6,0c-0.2,0-0.5,0-0.6,0c-0.2,0-0.3-0.1-0.4-0.1c-0.1,0-0.2-0.1-0.2-0.1
			c0-0.1-0.1-0.1-0.1-0.2v-14.1c0-0.1,0-0.2,0-0.2c0-0.1,0.1-0.1,0.2-0.2s0.2-0.1,0.4-0.1c0.1,0,0.3,0,0.6,0c0.2,0,0.4,0,0.6,0
			c0.2,0,0.3,0,0.4,0.1c0.1,0,0.1,0.1,0.2,0.2c0,0.1,0.1,0.1,0.1,0.2v1.9c0.8-0.9,1.6-1.5,2.4-1.9c0.8-0.4,1.6-0.6,2.4-0.6
			c0.9,0,1.7,0.2,2.4,0.5c0.6,0.3,1.2,0.7,1.6,1.3c0.4,0.5,0.7,1.2,0.9,1.9c0.2,0.7,0.3,1.6,0.3,2.6V405.3z"/>
		<path d="M136.8,398c0,1.2-0.1,2.3-0.4,3.3c-0.3,1-0.7,1.8-1.2,2.5c-0.5,0.7-1.2,1.2-1.9,1.6c-0.8,0.4-1.6,0.6-2.6,0.6
			c-0.4,0-0.8,0-1.2-0.1c-0.4-0.1-0.7-0.2-1-0.4c-0.3-0.2-0.7-0.4-1-0.7c-0.3-0.3-0.7-0.6-1.1-1v7c0,0.1,0,0.2-0.1,0.2
			c0,0.1-0.1,0.1-0.2,0.2c-0.1,0-0.2,0.1-0.4,0.1c-0.2,0-0.4,0-0.6,0c-0.2,0-0.5,0-0.6,0c-0.2,0-0.3-0.1-0.4-0.1
			c-0.1,0-0.2-0.1-0.2-0.2c0-0.1-0.1-0.1-0.1-0.2v-19.6c0-0.1,0-0.2,0-0.2c0-0.1,0.1-0.1,0.2-0.1c0.1,0,0.2-0.1,0.4-0.1
			c0.1,0,0.3,0,0.5,0c0.2,0,0.4,0,0.5,0s0.3,0,0.4,0.1c0.1,0,0.2,0.1,0.2,0.1c0,0.1,0.1,0.1,0.1,0.2v1.9c0.4-0.4,0.8-0.8,1.2-1.1
			c0.4-0.3,0.8-0.6,1.2-0.8c0.4-0.2,0.8-0.4,1.2-0.5s0.9-0.2,1.3-0.2c1,0,1.9,0.2,2.6,0.6c0.7,0.4,1.3,0.9,1.8,1.6s0.8,1.5,1,2.4
			C136.7,396,136.8,397,136.8,398z M134.2,398.3c0-0.7-0.1-1.4-0.2-2.1s-0.3-1.3-0.6-1.8c-0.3-0.5-0.6-0.9-1.1-1.2
			c-0.5-0.3-1-0.5-1.7-0.5c-0.3,0-0.7,0-1,0.1c-0.3,0.1-0.7,0.3-1,0.5c-0.3,0.2-0.7,0.5-1.1,0.8c-0.4,0.3-0.8,0.8-1.2,1.3v5.6
			c0.7,0.9,1.4,1.5,2,2c0.6,0.5,1.3,0.7,2,0.7c0.6,0,1.2-0.2,1.7-0.5c0.5-0.3,0.8-0.7,1.1-1.2c0.3-0.5,0.5-1.1,0.6-1.8
			C134.1,399.6,134.2,399,134.2,398.3z"/>
		<path d="M152.8,405.3c0,0.1,0,0.2-0.1,0.2c0,0.1-0.1,0.1-0.2,0.1s-0.2,0.1-0.4,0.1c-0.2,0-0.3,0-0.6,0c-0.2,0-0.4,0-0.6,0
			c-0.2,0-0.3-0.1-0.4-0.1c-0.1,0-0.1-0.1-0.2-0.1c0-0.1,0-0.1,0-0.2v-1.9c-0.8,0.9-1.6,1.5-2.4,1.9s-1.6,0.6-2.4,0.6
			c-0.9,0-1.7-0.2-2.4-0.5s-1.2-0.7-1.6-1.3c-0.4-0.5-0.7-1.2-0.9-1.9c-0.2-0.7-0.3-1.6-0.3-2.6v-8.5c0-0.1,0-0.2,0.1-0.2
			c0-0.1,0.1-0.1,0.2-0.2c0.1,0,0.2-0.1,0.4-0.1c0.2,0,0.4,0,0.6,0s0.5,0,0.6,0c0.2,0,0.3,0,0.4,0.1c0.1,0,0.2,0.1,0.2,0.2
			c0,0.1,0.1,0.1,0.1,0.2v8.2c0,0.8,0.1,1.5,0.2,2c0.1,0.5,0.3,0.9,0.5,1.3c0.2,0.3,0.6,0.6,0.9,0.8c0.4,0.2,0.8,0.3,1.3,0.3
			c0.6,0,1.3-0.2,1.9-0.7c0.6-0.5,1.3-1.1,2-2v-9.8c0-0.1,0-0.2,0.1-0.2c0-0.1,0.1-0.1,0.2-0.2c0.1,0,0.2-0.1,0.4-0.1
			c0.2,0,0.4,0,0.6,0c0.2,0,0.5,0,0.6,0c0.2,0,0.3,0,0.4,0.1s0.2,0.1,0.2,0.2c0,0.1,0.1,0.1,0.1,0.2V405.3z"/>
		<path d="M164.8,404.2c0,0.3,0,0.5-0.1,0.7c0,0.2-0.1,0.3-0.2,0.4c-0.1,0.1-0.2,0.2-0.4,0.2c-0.2,0.1-0.4,0.1-0.6,0.2
			c-0.2,0-0.4,0.1-0.7,0.1c-0.2,0-0.5,0-0.7,0c-0.7,0-1.4-0.1-1.9-0.3c-0.5-0.2-0.9-0.5-1.3-0.9c-0.3-0.4-0.6-0.9-0.7-1.5
			c-0.2-0.6-0.2-1.3-0.2-2.1v-8.2h-2c-0.2,0-0.3-0.1-0.4-0.2c-0.1-0.2-0.1-0.4-0.1-0.8c0-0.2,0-0.4,0-0.5c0-0.1,0.1-0.2,0.1-0.3
			c0-0.1,0.1-0.2,0.2-0.2c0.1,0,0.1-0.1,0.2-0.1h2v-3.3c0-0.1,0-0.1,0.1-0.2c0-0.1,0.1-0.1,0.2-0.2c0.1,0,0.2-0.1,0.4-0.1
			c0.2,0,0.4,0,0.6,0c0.3,0,0.5,0,0.6,0c0.2,0,0.3,0.1,0.4,0.1s0.2,0.1,0.2,0.2c0,0.1,0.1,0.1,0.1,0.2v3.3h3.6c0.1,0,0.2,0,0.2,0.1
			c0.1,0,0.1,0.1,0.2,0.2c0,0.1,0.1,0.2,0.1,0.3c0,0.1,0,0.3,0,0.5c0,0.4,0,0.6-0.1,0.8c-0.1,0.2-0.2,0.2-0.4,0.2h-3.6v7.8
			c0,1,0.1,1.7,0.4,2.2c0.3,0.5,0.8,0.7,1.5,0.7c0.2,0,0.5,0,0.6-0.1s0.4-0.1,0.5-0.1c0.1-0.1,0.3-0.1,0.4-0.1
			c0.1,0,0.2-0.1,0.3-0.1c0.1,0,0.1,0,0.1,0c0,0,0.1,0.1,0.1,0.1c0,0.1,0,0.2,0.1,0.3C164.8,403.9,164.8,404,164.8,404.2z"/>
		<path d="M188.2,391.4c0,1-0.2,1.9-0.5,2.7c-0.3,0.8-0.8,1.5-1.4,2.1c-0.6,0.6-1.4,1-2.3,1.3c-0.9,0.3-2,0.5-3.2,0.5h-2.3v7.3
			c0,0.1,0,0.2-0.1,0.2s-0.1,0.1-0.2,0.1c-0.1,0-0.2,0.1-0.4,0.1c-0.2,0-0.4,0-0.6,0c-0.3,0-0.5,0-0.6,0c-0.2,0-0.3-0.1-0.4-0.1
			c-0.1,0-0.2-0.1-0.2-0.1c0-0.1-0.1-0.1-0.1-0.2v-18.7c0-0.4,0.1-0.7,0.3-0.9c0.2-0.2,0.5-0.3,0.7-0.3h4.3c0.4,0,0.9,0,1.3,0.1
			c0.4,0,0.9,0.1,1.4,0.2c0.5,0.1,1.1,0.3,1.7,0.7c0.6,0.3,1,0.7,1.4,1.2c0.4,0.5,0.7,1,0.9,1.7
			C188.1,389.9,188.2,390.6,188.2,391.4z M185.4,391.6c0-0.8-0.2-1.5-0.5-2.1c-0.3-0.6-0.7-1-1.1-1.2c-0.5-0.3-0.9-0.4-1.4-0.5
			c-0.5-0.1-1-0.1-1.4-0.1h-2.5v8.1h2.4c0.8,0,1.5-0.1,2-0.3c0.5-0.2,1-0.5,1.4-0.9c0.4-0.4,0.6-0.8,0.8-1.3
			S185.4,392.2,185.4,391.6z"/>
		<path d="M194.9,386.4c0,0.6-0.1,1-0.3,1.2c-0.2,0.2-0.7,0.3-1.3,0.3c-0.6,0-1-0.1-1.2-0.3c-0.2-0.2-0.3-0.6-0.3-1.2
			c0-0.6,0.1-1,0.3-1.2c0.2-0.2,0.7-0.3,1.3-0.3c0.6,0,1,0.1,1.2,0.3C194.8,385.5,194.9,385.9,194.9,386.4z M194.6,405.3
			c0,0.1,0,0.2-0.1,0.2c0,0.1-0.1,0.1-0.2,0.1s-0.2,0.1-0.4,0.1c-0.2,0-0.4,0-0.6,0c-0.2,0-0.5,0-0.6,0c-0.2,0-0.3-0.1-0.4-0.1
			c-0.1,0-0.2-0.1-0.2-0.1c0-0.1-0.1-0.1-0.1-0.2v-14.1c0-0.1,0-0.1,0.1-0.2c0-0.1,0.1-0.1,0.2-0.2c0.1,0,0.2-0.1,0.4-0.1
			c0.2,0,0.4,0,0.6,0c0.3,0,0.5,0,0.6,0c0.2,0,0.3,0.1,0.4,0.1c0.1,0,0.2,0.1,0.2,0.2c0,0.1,0.1,0.1,0.1,0.2V405.3z"/>
		<path d="M211.5,405.3c0,0.1,0,0.2-0.1,0.2c0,0.1-0.1,0.1-0.2,0.1s-0.2,0.1-0.4,0.1c-0.2,0-0.4,0-0.6,0c-0.3,0-0.5,0-0.6,0
			c-0.2,0-0.3-0.1-0.4-0.1s-0.2-0.1-0.2-0.1c0-0.1-0.1-0.1-0.1-0.2V397c0-0.8-0.1-1.4-0.2-1.9c-0.1-0.5-0.3-0.9-0.5-1.3
			c-0.2-0.4-0.5-0.6-0.9-0.8c-0.4-0.2-0.8-0.3-1.3-0.3c-0.6,0-1.3,0.2-1.9,0.7c-0.6,0.5-1.3,1.1-2,2v9.8c0,0.1,0,0.2-0.1,0.2
			c0,0.1-0.1,0.1-0.2,0.1s-0.2,0.1-0.4,0.1c-0.2,0-0.4,0-0.6,0c-0.2,0-0.5,0-0.6,0c-0.2,0-0.3-0.1-0.4-0.1c-0.1,0-0.2-0.1-0.2-0.1
			c0-0.1-0.1-0.1-0.1-0.2v-14.1c0-0.1,0-0.2,0-0.2c0-0.1,0.1-0.1,0.2-0.2s0.2-0.1,0.4-0.1c0.1,0,0.3,0,0.6,0c0.2,0,0.4,0,0.6,0
			c0.2,0,0.3,0,0.4,0.1c0.1,0,0.1,0.1,0.2,0.2c0,0.1,0.1,0.1,0.1,0.2v1.9c0.8-0.9,1.6-1.5,2.4-1.9c0.8-0.4,1.6-0.6,2.4-0.6
			c0.9,0,1.7,0.2,2.4,0.5c0.6,0.3,1.2,0.7,1.6,1.3c0.4,0.5,0.7,1.2,0.9,1.9c0.2,0.7,0.3,1.6,0.3,2.6V405.3z"/>
	</g>
	<g class="st2">
		<path d="M463.8,99.7c0,0.2,0,0.4,0,0.5s-0.1,0.3-0.1,0.4c-0.1,0.1-0.1,0.2-0.2,0.2c-0.1,0-0.2,0.1-0.2,0.1h-5.1v5.7
			c0,0.1,0,0.2-0.1,0.2c0,0.1-0.1,0.1-0.2,0.1c-0.1,0-0.2,0.1-0.4,0.1c-0.1,0-0.3,0-0.5,0c-0.2,0-0.4,0-0.5,0
			c-0.2,0-0.3-0.1-0.4-0.1c-0.1,0-0.2-0.1-0.2-0.1c0-0.1-0.1-0.1-0.1-0.2v-5.7h-5.1c-0.1,0-0.2,0-0.2-0.1c-0.1,0-0.1-0.1-0.2-0.2
			c-0.1-0.1-0.1-0.2-0.1-0.4s0-0.3,0-0.5c0-0.2,0-0.4,0-0.5s0.1-0.3,0.1-0.4c0.1-0.1,0.1-0.2,0.2-0.2c0.1,0,0.1-0.1,0.2-0.1h5.1
			v-5.7c0-0.1,0-0.2,0.1-0.2c0-0.1,0.1-0.1,0.2-0.2c0.1,0,0.2-0.1,0.4-0.1c0.2,0,0.3,0,0.5,0c0.2,0,0.4,0,0.5,0
			c0.1,0,0.3,0.1,0.4,0.1c0.1,0,0.2,0.1,0.2,0.2c0,0.1,0.1,0.1,0.1,0.2v5.7h5.1c0.1,0,0.2,0,0.2,0.1c0.1,0,0.1,0.1,0.2,0.2
			c0.1,0.1,0.1,0.2,0.1,0.4C463.8,99.3,463.8,99.5,463.8,99.7z"/>
		<path d="M475.7,108.2c0,0.1-0.1,0.2-0.2,0.3c-0.1,0.1-0.2,0.1-0.3,0.2c-0.1,0-0.3,0.1-0.5,0.1s-0.5,0-0.8,0c-0.2,0-0.4,0-0.6,0
			c-0.2,0-0.3,0-0.4,0c-0.1,0-0.2,0-0.3-0.1c-0.1,0-0.2-0.1-0.2-0.1c-0.1,0-0.1-0.1-0.1-0.1c0-0.1-0.1-0.1-0.1-0.2l-6.6-18.8
			c-0.1-0.2-0.1-0.4-0.1-0.6c0-0.1,0-0.2,0.1-0.3c0.1-0.1,0.2-0.1,0.5-0.1c0.2,0,0.5,0,0.8,0c0.3,0,0.5,0,0.7,0s0.3,0,0.4,0.1
			c0.1,0,0.2,0.1,0.2,0.2s0.1,0.2,0.1,0.3l5.8,17h0l5.6-17c0-0.1,0.1-0.2,0.1-0.3c0-0.1,0.1-0.1,0.2-0.2c0.1,0,0.2-0.1,0.4-0.1
			s0.4,0,0.8,0c0.3,0,0.6,0,0.8,0c0.2,0,0.3,0.1,0.4,0.1c0.1,0.1,0.1,0.2,0.1,0.3s-0.1,0.3-0.1,0.6L475.7,108.2z"/>
	</g>
</g>
</svg>
