<?xml version="1.0" encoding="utf-8"?>
<!-- Generator: Adobe Illustrator 27.8.0, SVG Export Plug-In . SVG Version: 6.00 Build 0)  -->
<svg version="1.1"
	 id="svg8" xmlns:svg="http://www.w3.org/2000/svg" xmlns:rdf="http://www.w3.org/1999/02/22-rdf-syntax-ns#" xmlns:sodipodi="http://sodipodi.sourceforge.net/DTD/sodipodi-0.dtd" xmlns:dc="http://purl.org/dc/elements/1.1/" xmlns:inkscape="http://www.inkscape.org/namespaces/inkscape" xmlns:cc="http://creativecommons.org/ns#" inkscape:export-xdpi="93" inkscape:export-ydpi="93" inkscape:version="0.92.4 (5da689c313, 2019-01-14)"
	 xmlns="http://www.w3.org/2000/svg" xmlns:xlink="http://www.w3.org/1999/xlink" x="0px" y="0px" viewBox="0 0 550 1081"
	 style="enable-background:new 0 0 550 1081;" xml:space="preserve">
<style type="text/css">
	.st0{fill:#FFFFFF;}
	.st1{fill:#1A1A1A;}
	.st2{opacity:0.99;fill:#808080;enable-background:new    ;}
	.st3{opacity:0.99;fill:#CCCCCC;enable-background:new    ;}
	.st4{opacity:0.99;fill:#FFFFFF;enable-background:new    ;}
	.st5{opacity:0.99;enable-background:new    ;}
	.st6{enable-background:new    ;}
</style>
<defs>
	
		<inkscape:perspective  id="perspective876" inkscape:persp3d-origin="105 : 99 : 1" inkscape:vp_x="0 : 148.5 : 1" inkscape:vp_y="0 : 999.99999 : 0" inkscape:vp_z="210.00001 : 148.5 : 1" sodipodi:type="inkscape:persp3d">
		</inkscape:perspective>
</defs>
<sodipodi:namedview  bordercolor="#666666" borderopacity="1.0" id="base" inkscape:current-layer="layer1" inkscape:cx="259.53493" inkscape:cy="1739.0577" inkscape:document-units="mm" inkscape:lockguides="true" inkscape:pageopacity="0.0" inkscape:pageshadow="2" inkscape:window-height="1017" inkscape:window-maximized="1" inkscape:window-width="1920" inkscape:window-x="-8" inkscape:window-y="-8" inkscape:zoom="0.24748737" pagecolor="#ffffff" showgrid="false" showguides="true" width="500mm">
	</sodipodi:namedview>
<g id="layer1" transform="translate(0.31582593,586.81107)" inkscape:groupmode="layer" inkscape:label="Ebene 1">
	<rect id="rect815" x="-0.3" y="-415.9" width="550.6" height="740"/>
	<rect id="rect821" x="129.9" y="203.6" class="st0" width="286.5" height="98.6"/>
	<path id="rect825" class="st1" d="M148.7,209.2h57.4c10,0,18.1,8.1,18.1,18.1v50.4c0,10-8.1,18.1-18.1,18.1h-57.4
		c-10,0-18.1-8.1-18.1-18.1v-50.4C130.5,217.3,138.6,209.2,148.7,209.2z"/>
	<path id="rect872" class="st1" d="M340,209.2h57.4c10,0,18.1,8.1,18.1,18.1v50.4c0,10-8.1,18.1-18.1,18.1H340
		c-10,0-18.1-8.1-18.1-18.1v-50.4C321.9,217.3,330,209.2,340,209.2z"/>
	<path id="rect874" class="st1" d="M242,209.2h62.1c8.7,0,15.8,7.1,15.8,15.8v55c0,8.7-7.1,15.8-15.8,15.8H242
		c-8.7,0-15.8-7.1-15.8-15.8v-55C226.2,216.3,233.3,209.2,242,209.2z"/>
	<rect id="rect947" x="172.1" y="256.4" class="st2" width="10.4" height="180.8"/>
	<rect id="rect949" x="268.3" y="256.4" class="st2" width="10.4" height="180.8"/>
	<rect id="rect951" x="363.4" y="256.4" class="st2" width="10.4" height="180.8"/>
	<g id="flowRoot969" transform="translate(0,-45.920852)">
	</g>
	<circle id="path1456" class="st3" cx="76.7" cy="-145.2" r="50.1"/>
	<circle id="ellipse1458" class="st3" cx="467.8" cy="-145.2" r="50.1"/>
	<circle id="path1460" class="st4" cx="76.7" cy="-145.2" r="45.2"/>
	<circle id="ellipse1464" class="st4" cx="467.8" cy="-145.2" r="45.2"/>
	<g id="flowRoot1466" transform="translate(0,-45.920852)">
	</g>
	<g id="flowRoot1529" transform="translate(0,-45.920852)">
	</g>
	<rect id="rect87" x="77.1" y="99.9" width="392" height="98.6"/>
	<circle id="path91" class="st3" cx="129.2" cy="165.2" r="36.7"/>
	<circle id="circle93" class="st3" cx="415.2" cy="165.2" r="36.7"/>
	<path id="rect95" class="st3" d="M158.6,14.9H183c13.5,0,24.4,10.9,24.4,24.4v61.1c0,13.5-10.9,24.4-24.4,24.4h-24.4
		c-13.5,0-24.4-10.9-24.4-24.4V39.3C134.1,25.8,145.1,14.9,158.6,14.9z"/>
	<path id="rect97" class="st3" d="M366.4,14.9h24.4c13.5,0,24.4,10.9,24.4,24.4v61.1c0,13.5-10.9,24.4-24.4,24.4h-24.4
		c-13.5,0-24.4-10.9-24.4-24.4V39.3C341.9,25.8,352.9,14.9,366.4,14.9z"/>
	<circle id="circle99" class="st3" cx="201.4" cy="-26.7" r="36.7"/>
	<circle id="circle101" class="st3" cx="348" cy="-26.7" r="36.7"/>
	<circle id="ellipse103" class="st4" cx="119.5" cy="-29.1" r="45.2"/>
	<circle id="ellipse105" class="st4" cx="429.9" cy="-29.1" r="45.2"/>
	<path id="rect111" class="st3" d="M158.6-185.5H183c13.5,0,24.4,10.9,24.4,24.4v61.1c0,13.5-10.9,24.4-24.4,24.4h-24.4
		c-13.5,0-24.4-10.9-24.4-24.4v-61.1C134.1-174.6,145.1-185.5,158.6-185.5z"/>
	<path id="rect113" class="st3" d="M366.4-185.5h24.4c13.5,0,24.4,10.9,24.4,24.4v61.1c0,13.5-10.9,24.4-24.4,24.4h-24.4
		c-13.5,0-24.4-10.9-24.4-24.4v-61.1C341.9-174.6,352.9-185.5,366.4-185.5z"/>
	<circle id="circle115" class="st4" cx="170.8" cy="66.8" r="33.6"/>
	<circle id="circle117" class="st4" cx="378.6" cy="66.8" r="33.6"/>
	<circle id="circle119" class="st4" cx="129.2" cy="165.2" r="30.6"/>
	<circle id="circle121" class="st4" cx="415.2" cy="165.2" r="30.6"/>
	<circle id="circle123" class="st4" cx="170.8" cy="66.8" r="33.6"/>
	<circle id="circle129" class="st3" cx="124.4" cy="-271.1" r="36.7"/>
	<circle id="circle131" class="st4" cx="124.4" cy="-271.1" r="30.6"/>
	<circle id="circle133" class="st3" cx="425" cy="-271.1" r="36.7"/>
	<circle id="circle135" class="st4" cx="425" cy="-271.1" r="30.6"/>
	<path id="path31-1" inkscape:connector-curvature="0" class="st0" d="M156.2-355c3.4-0.1,3.8-0.1,4.4-0.5c0.4-0.2,0.9-0.7,1.1-1.1
		c0.4-0.6,0.4-1.1,0.5-8l0.1-7.4l7.3,0l7.3,0v9.2c0,10.1-0.1,11.1-1.1,13.8c-1.4,3.5-3.4,5.1-7.6,6.1c-1.1,0.3-2.4,0.3-6.6,0.3
		c-2.9,0-6.1-0.1-7-0.2l-1.8-0.2l-0.1-6l-0.1-6L156.2-355L156.2-355z M225.4-334.4c62.1,0,77.3,0.1,74.8,0.4l-0.4,0l0.4,0.2
		c0.3,0.1,0.3,0.2-0.3,0.2c-0.5,0-0.3,0.1,0.6,0.2l1.3,0.1l-1.3,0.1c-0.7,0-1.1,0.1-0.9,0.1c0.3,0.1,0.3,0.3,0.3,1.7
		c0,1.6,0,1.6,0.5,1.7c0.4,0.1,0.3,0.1-0.3,0.1c-0.5,0-0.8,0.1-0.8,0.2c0,0.1-24.6,0.2-73.4,0.2h-73.4v-2.6v-2.6L225.4-334.4z
		 M169.5-391h7.3v6v6h-7.3h-7.3v-6v-6H169.5z M184.3-368.9c0.5-3.4,1.4-6.3,2.8-9c0.5-1,1-1.8,1-1.9c0.1-0.1,0.4-0.6,0.8-1.2
		c0.8-1.2,2.5-3.3,2.9-3.6c0.1-0.1,0.3-0.2,0.3-0.3c0-0.3,1.8-1.9,3.3-2.9c1.5-1.1,2.7-1.7,5.5-2.7c3.2-1.2,5-1.5,8.8-1.3
		c2.8,0.1,3.4,0.2,5.2,0.7c1.1,0.3,2.4,0.8,2.9,1s1.1,0.4,1.2,0.4c0.1,0,0.9,0.4,1.8,0.9c3.5,2,8.3,7.5,10.1,11.5
		c2.9,6.3,3.3,12.7,1.1,18.6c-0.9,2.5-1.6,3.9-2.7,5.6c-1.2,2-1.3,2.1-4.4,5.1c-3.5,3.4-5.9,4.8-10.4,6.1c-2.3,0.6-6.8,0.9-9.2,0.5
		c-3.2-0.5-7.4-2.3-10-4.2c-1.3-1-3.1-2.6-3.1-2.8c0-0.1-0.5-0.6-1-1.1c-2.6-2.7-5.4-7.9-6.3-12.3
		C184.4-363.4,184.1-367.7,184.3-368.9L184.3-368.9z M198.3-362.8c0.7,2.8,2.1,5.1,4.3,7.2c2.2,2.1,5.7,2.9,8.7,2
		c3.3-1,6.6-4.9,7.7-9.1c0.6-2.4,0.6-5.9-0.1-8.2c-1-3.3-2.7-5.9-5.1-7.6c-1.1-0.8-1.6-1-2.8-1.2c-2.5-0.5-5-0.2-6.8,0.7
		c-1.6,0.8-3.6,3-4.7,5.3C197.8-370.4,197.4-366.4,198.3-362.8L198.3-362.8z M239.5-390.9c0.1,0,3.4-0.1,7.3,0l7.1,0.1l0,6.6
		c0,6.2,0,6.6,0.4,7.7c1,2.8,4.4,4.3,7.3,3.3c1.5-0.5,2.5-1.4,3.3-2.8l0.6-1.3l0.1-6.8l0.1-6.8h7.3h7.3l-0.1,7.7
		c-0.1,7.1-0.1,7.8-0.5,9.2c-0.8,3-2.1,5.6-3.8,7.6c-0.4,0.5-0.8,1-0.8,1.1c0,0.3-1.9,1.9-3.5,3.1c-1.4,1-3.4,2.1-4.4,2.3
		c-0.3,0.1-1.3,0.4-2.3,0.6c-1.6,0.5-1.9,0.5-5.3,0.5c-3.3,0-3.7,0-5.5-0.6c-2.9-0.8-3.9-1.2-5.8-2.5c-2.2-1.4-4.1-3.3-5.6-5.5
		c-2.2-3.2-3.1-5.6-3.5-9.3C239.2-379.1,239.2-390.8,239.5-390.9L239.5-390.9z M260-354.8h12v6.2v6.2h-12h-12v-6.2v-6.2H260z
		 M280.5-400.3c0.1,0,0.2-0.3,0.2-0.8c0-0.8,0-0.8,0.9-0.9c0.5-0.1,20.8-0.1,45.1-0.1l44.2,0l-0.1,2.6l-0.1,2.6h-45
		c-24.7,0-45.1-0.1-45.3-0.1c-0.3-0.1-0.3-0.4-0.3-1.8C280.3-399.7,280.4-400.3,280.5-400.3L280.5-400.3z M300.7-370.8H316v6.1v6.1
		h-15.3h-15.3v-6.1v-6.1H300.7z M328-391h7.3v6v6H328h-7.3v-6v-6H328z M328-372.8h7.3v15.5v15.5H328h-7.3v-15.5v-15.5L328-372.8z
		 M357.3-391h15.4v6v6h-15.4h-15.4v-6v-6H357.3z M344.5-371.9c0.1-0.1,3.3-0.1,7.2-0.1l7,0l0.1,7.1c0.1,9.9-0.3,9.4,7.1,9.5l4.7,0.1
		v6.2v6.2l-1.7,0.2c-2.6,0.3-11,0.3-13.3-0.1c-3.9-0.6-6.4-1.8-8.1-3.9c-1.8-2.1-2.6-4.3-3-7.7C344.3-356.4,344.2-371.7,344.5-371.9
		L344.5-371.9z M381.3-396.8c0.4-1.3,1.1-2.5,1.9-3.3c3.3-2.9,7.3-3.2,10.6-0.8c1.5,1.1,1.9,1.6,2.6,3c0.5,1.1,0.6,1.4,0.6,3.2
		c0,1.8-0.1,2.2-0.6,3.3c-1.1,2.4-3.9,4.3-6.7,4.5c-2.6,0.2-4.5-0.6-6.6-2.5C381.3-391.2,380.5-394.2,381.3-396.8L381.3-396.8z
		 M382.7-391.7c0.7,1.6,2.7,3.1,4.9,3.7c2.1,0.5,3.8,0.1,6.2-1.7c0.6-0.4,1-1,1.5-1.9c0.6-1.2,0.7-1.5,0.7-3c0-1.5-0.1-1.8-0.7-3
		c-0.6-1.1-0.9-1.5-1.9-2.2c-0.7-0.5-1.6-1-2.2-1.2c-3.3-1.1-7.4,0.7-8.7,3.9C381.9-395.9,382.1-393.2,382.7-391.7L382.7-391.7z
		 M388.1-399.4c1.5,0,2.9,0.1,3.2,0.2c1.2,0.4,1.7,2.7,0.9,3.8c-0.2,0.3-0.7,0.6-1.1,0.7l-0.7,0.2l0.7,0.7c0.4,0.4,1,1.2,1.3,1.8
		c0.3,0.6,0.7,1.1,0.8,1.2c0.4,0.3,0.1,0.5-0.7,0.5l-0.8,0l-1.2-1.9c-1.3-2-1.6-2.2-3-2.2h-0.9v2.1v2.1l-0.6-0.1l-0.6-0.1l0-4.5
		l0-4.5L388.1-399.4z M388.5-395.5c1.5,0,1.8-0.1,2.3-0.4c1.1-0.8,0.5-2.2-1.1-2.4c-0.7-0.1-2.5,0-2.9,0.1c0,0-0.1,0.6-0.1,1.4v1.4
		L388.5-395.5z"/>
	<circle id="circle84" class="st4" cx="348" cy="-26.7" r="30.6"/>
	<circle id="circle86" class="st4" cx="201.4" cy="-26.7" r="30.6"/>
	<polygon id="rect88" inkscape:transform-center-x="-16.687463" inkscape:transform-center-y="-73.949692" class="st2" points="
		206.3,-310.1 216.7,-310.1 176.3,-129.3 165.9,-129.3 	">
	</polygon>
	<polygon id="rect90" inkscape:transform-center-x="17.098443" inkscape:transform-center-y="-73.98884" class="st2" points="
		332.1,-310.1 342.5,-310.1 384.1,-129.3 373.7,-129.3 	">
	</polygon>
	<polygon id="rect96" inkscape:transform-center-x="-2.65451" inkscape:transform-center-y="-62.495964" class="st2" points="
		212.4,-462 222.8,-462 216.6,-309.2 206.2,-309.2 	">
	</polygon>
	<polygon id="rect98" inkscape:transform-center-x="3.425484" inkscape:transform-center-y="-62.529053" class="st2" points="
		324,-461.9 334.4,-461.9 342.5,-309.2 332.1,-309.2 	">
	</polygon>
	<path id="path100" inkscape:connector-curvature="0" class="st5" d="M273.5-584c-32.3,0-59,25.2-60.9,57.5h-0.2v3.6v69.7H249v-13.8
		c7.7,3.4,16,5.1,24.4,5.1c8.4,0,16.6-1.8,24.3-5.1v13.7h36.7v-66c0.1-1.2,0.2-2.5,0.2-3.7C334.6-556.6,307.2-584,273.5-584
		C273.5-584,273.5-584,273.5-584z"/>
	<g class="st6">
		<path d="M363.7,447.7c0,0.4,0,0.7-0.1,1c0,0.3-0.1,0.5-0.2,0.7s-0.2,0.3-0.3,0.4c-0.1,0.1-0.3,0.1-0.4,0.1c-0.2,0-0.7-0.2-1.2-0.6
			c-0.6-0.4-1.4-0.8-2.3-1.3s-2.1-0.9-3.5-1.3s-3-0.6-4.8-0.6c-2.2,0-4.2,0.4-6,1.2c-1.8,0.8-3.3,1.9-4.5,3.4s-2.2,3.1-2.8,5.1
			c-0.7,2-1,4.1-1,6.4c0,2.6,0.4,4.9,1.1,6.9c0.7,2,1.7,3.7,3,5c1.3,1.4,2.8,2.4,4.5,3.1c1.8,0.7,3.7,1.1,5.8,1.1
			c1.2,0,2.5-0.2,3.8-0.5s2.5-0.8,3.6-1.4v-11.7h-9.3c-0.4,0-0.6-0.2-0.8-0.5c-0.2-0.4-0.3-0.9-0.3-1.7c0-0.4,0-0.7,0.1-1
			c0-0.3,0.1-0.5,0.2-0.7c0.1-0.2,0.2-0.3,0.3-0.4c0.1-0.1,0.3-0.1,0.5-0.1h12.8c0.2,0,0.5,0,0.7,0.1s0.4,0.2,0.6,0.4
			s0.3,0.4,0.4,0.7c0.1,0.3,0.2,0.6,0.2,1V478c0,0.5-0.1,1-0.3,1.4s-0.6,0.7-1.2,1c-0.6,0.3-1.4,0.6-2.3,1c-1,0.4-1.9,0.7-3,0.9
			c-1,0.2-2,0.4-3.1,0.6c-1,0.1-2.1,0.2-3.1,0.2c-3.1,0-5.9-0.5-8.3-1.4c-2.4-1-4.5-2.3-6.2-4.1c-1.7-1.8-3-3.9-3.9-6.4
			c-0.9-2.5-1.3-5.3-1.3-8.3c0-3.2,0.5-6.1,1.4-8.7s2.3-4.8,4.1-6.6c1.8-1.8,3.9-3.2,6.3-4.2c2.5-1,5.2-1.5,8.2-1.5
			c1.5,0,3,0.1,4.3,0.4c1.3,0.3,2.5,0.6,3.6,1c1,0.4,1.9,0.8,2.6,1.2c0.7,0.4,1.2,0.8,1.5,1s0.5,0.6,0.6,0.9
			C363.6,446.6,363.7,447.1,363.7,447.7z"/>
		<path d="M404.1,480.3c0,0.4-0.1,0.8-0.2,1.1c-0.1,0.3-0.3,0.5-0.5,0.7c-0.2,0.2-0.5,0.3-0.8,0.4s-0.6,0.1-0.8,0.1H400
			c-0.6,0-1-0.1-1.5-0.2c-0.4-0.1-0.8-0.3-1.2-0.6c-0.4-0.3-0.8-0.7-1.1-1.2c-0.4-0.5-0.8-1.2-1.2-2l-12.3-22.9
			c-0.6-1.2-1.3-2.4-1.9-3.7c-0.7-1.3-1.3-2.6-1.8-3.8h-0.1c0,1.5,0.1,3,0.1,4.6c0,1.6,0,3.1,0,4.6v24.3c0,0.1,0,0.3-0.1,0.4
			c-0.1,0.1-0.2,0.2-0.4,0.3c-0.2,0.1-0.5,0.1-0.8,0.2c-0.3,0.1-0.8,0.1-1.3,0.1s-1,0-1.3-0.1c-0.3-0.1-0.6-0.1-0.8-0.2
			c-0.2-0.1-0.3-0.2-0.4-0.3c-0.1-0.1-0.1-0.3-0.1-0.4v-37.2c0-0.8,0.2-1.4,0.7-1.8c0.5-0.4,1-0.5,1.5-0.5h2.6
			c0.6,0,1.1,0.1,1.6,0.2c0.4,0.1,0.8,0.3,1.1,0.5c0.3,0.2,0.7,0.6,1,1s0.6,1,1,1.6l9.4,17.7c0.6,1.1,1.1,2.1,1.7,3.2s1.1,2,1.6,3
			c0.5,1,1,2,1.5,2.9s1,1.9,1.5,2.9h0c0-1.6-0.1-3.3-0.1-5.1c0-1.8,0-3.5,0-5.1v-21.9c0-0.1,0-0.3,0.1-0.4c0.1-0.1,0.2-0.2,0.4-0.3
			c0.2-0.1,0.5-0.2,0.8-0.2c0.3,0,0.8-0.1,1.3-0.1c0.5,0,0.9,0,1.2,0.1c0.3,0,0.6,0.1,0.8,0.2c0.2,0.1,0.3,0.2,0.4,0.3
			c0.1,0.1,0.1,0.3,0.1,0.4V480.3z"/>
		<path d="M445.8,461.8c0,3.5-0.4,6.5-1.3,9.1c-0.9,2.6-2.2,4.8-3.9,6.5c-1.7,1.7-3.8,3-6.3,3.8s-5.5,1.3-8.9,1.3h-8.5
			c-0.5,0-0.9-0.2-1.4-0.5c-0.4-0.3-0.6-0.9-0.6-1.7v-35.9c0-0.8,0.2-1.4,0.6-1.7c0.4-0.3,0.9-0.5,1.4-0.5h9.1
			c3.5,0,6.4,0.5,8.8,1.4c2.4,0.9,4.4,2.2,6.1,3.9c1.6,1.7,2.9,3.7,3.7,6.1C445.4,456.1,445.8,458.8,445.8,461.8z M440.1,462
			c0-2.2-0.3-4.2-0.8-6.1c-0.5-1.9-1.4-3.5-2.5-4.9c-1.2-1.4-2.6-2.4-4.4-3.2c-1.8-0.8-4-1.2-6.8-1.2h-5.4v31.4h5.5
			c2.6,0,4.7-0.3,6.5-1c1.8-0.6,3.2-1.6,4.4-3c1.2-1.3,2.1-3,2.7-5S440.1,464.8,440.1,462z"/>
	</g>
	<g class="st6">
		<path d="M92.9,471.2c0,1.9-0.3,3.6-1,5c-0.7,1.5-1.7,2.7-2.9,3.8s-2.7,1.8-4.4,2.3s-3.5,0.8-5.4,0.8c-1.3,0-2.6-0.1-3.8-0.3
			c-1.2-0.2-2.2-0.5-3.1-0.8s-1.7-0.7-2.3-1c-0.6-0.4-1-0.7-1.3-0.9s-0.4-0.6-0.5-0.9s-0.2-0.9-0.2-1.5c0-0.5,0-0.8,0.1-1.1
			c0-0.3,0.1-0.5,0.2-0.7c0.1-0.2,0.2-0.3,0.3-0.4c0.1-0.1,0.3-0.1,0.4-0.1c0.3,0,0.7,0.2,1.2,0.5c0.5,0.4,1.2,0.7,2,1.2
			c0.8,0.4,1.8,0.8,3,1.2c1.2,0.4,2.5,0.5,4.1,0.5c1.2,0,2.2-0.2,3.2-0.5c1-0.3,1.8-0.8,2.5-1.3c0.7-0.6,1.2-1.3,1.6-2.1
			c0.4-0.8,0.6-1.8,0.6-2.8c0-1.1-0.3-2.1-0.8-2.9s-1.2-1.5-2.1-2.1c-0.9-0.6-1.8-1.2-2.9-1.7s-2.2-1-3.3-1.6s-2.3-1.1-3.3-1.8
			c-1.1-0.6-2-1.4-2.9-2.3c-0.9-0.9-1.5-1.9-2.1-3.1s-0.8-2.6-0.8-4.2c0-1.7,0.3-3.2,0.9-4.5c0.6-1.3,1.5-2.4,2.6-3.3s2.4-1.6,3.9-2
			c1.5-0.5,3.1-0.7,4.9-0.7c0.9,0,1.8,0.1,2.7,0.2c0.9,0.2,1.8,0.4,2.6,0.6s1.5,0.5,2.1,0.9c0.6,0.3,1,0.6,1.2,0.8
			c0.2,0.2,0.3,0.4,0.4,0.5s0.1,0.3,0.2,0.4c0,0.2,0.1,0.4,0.1,0.6s0,0.6,0,1c0,0.4,0,0.7,0,1s-0.1,0.5-0.1,0.7s-0.2,0.3-0.3,0.4
			c-0.1,0.1-0.2,0.1-0.4,0.1c-0.2,0-0.6-0.1-1.1-0.4c-0.5-0.3-1.1-0.6-1.8-1c-0.7-0.4-1.5-0.7-2.5-1c-1-0.3-2-0.5-3.3-0.5
			c-1.1,0-2.1,0.2-2.9,0.5s-1.5,0.7-2.1,1.2c-0.5,0.5-0.9,1.1-1.2,1.8c-0.3,0.7-0.4,1.4-0.4,2.2c0,1.1,0.3,2.1,0.8,2.9
			c0.5,0.8,1.2,1.5,2.1,2.1s1.8,1.2,2.9,1.7c1.1,0.5,2.2,1,3.4,1.6s2.3,1.1,3.4,1.7c1.1,0.6,2.1,1.4,2.9,2.2s1.6,1.9,2.1,3.1
			C92.6,468.3,92.9,469.6,92.9,471.2z"/>
		<path d="M105.7,444.3c0,1.2-0.2,2-0.7,2.5c-0.5,0.4-1.3,0.7-2.5,0.7c-1.2,0-2-0.2-2.5-0.6c-0.4-0.4-0.7-1.2-0.7-2.4
			c0-1.2,0.2-2,0.7-2.5c0.5-0.4,1.3-0.7,2.5-0.7c1.2,0,2,0.2,2.5,0.6C105.5,442.3,105.7,443.1,105.7,444.3z M105.1,481.8
			c0,0.2,0,0.3-0.1,0.4c-0.1,0.1-0.2,0.2-0.4,0.3c-0.2,0.1-0.4,0.1-0.8,0.2c-0.3,0-0.8,0.1-1.3,0.1c-0.5,0-0.9,0-1.2-0.1
			c-0.3,0-0.6-0.1-0.8-0.2c-0.2-0.1-0.3-0.2-0.4-0.3c-0.1-0.1-0.1-0.3-0.1-0.4v-28c0-0.1,0-0.3,0.1-0.4c0.1-0.1,0.2-0.2,0.4-0.3
			s0.5-0.1,0.8-0.2c0.3,0,0.7-0.1,1.2-0.1c0.5,0,0.9,0,1.3,0.1c0.3,0,0.6,0.1,0.8,0.2s0.3,0.2,0.4,0.3c0.1,0.1,0.1,0.3,0.1,0.4
			V481.8z"/>
		<path d="M138,455c0,0.7-0.1,1.3-0.3,1.6c-0.2,0.3-0.5,0.5-0.8,0.5h-4c0.7,0.7,1.2,1.6,1.5,2.5c0.3,0.9,0.4,1.8,0.4,2.8
			c0,1.6-0.3,3.1-0.8,4.3c-0.5,1.2-1.3,2.3-2.2,3.2c-1,0.9-2.1,1.5-3.4,2c-1.3,0.5-2.8,0.7-4.4,0.7c-1.1,0-2.2-0.2-3.3-0.5
			s-1.8-0.7-2.4-1.1c-0.4,0.4-0.7,0.8-0.9,1.3c-0.2,0.5-0.4,1-0.4,1.6c0,0.7,0.3,1.3,1,1.8s1.6,0.7,2.7,0.8l7.3,0.3
			c1.4,0,2.7,0.2,3.8,0.6c1.2,0.3,2.2,0.8,3,1.5c0.9,0.6,1.5,1.4,2,2.3c0.5,0.9,0.7,2,0.7,3.2c0,1.3-0.3,2.5-0.8,3.7
			c-0.5,1.2-1.4,2.2-2.5,3.1c-1.1,0.9-2.5,1.6-4.3,2.1c-1.7,0.5-3.8,0.8-6.1,0.8c-2.3,0-4.2-0.2-5.8-0.6c-1.6-0.4-2.9-0.9-3.9-1.6
			c-1-0.7-1.8-1.5-2.2-2.4c-0.5-0.9-0.7-1.9-0.7-3c0-0.7,0.1-1.3,0.2-2s0.4-1.3,0.8-1.8s0.8-1.1,1.3-1.7s1.1-1.1,1.8-1.6
			c-1-0.5-1.8-1.2-2.3-2c-0.5-0.8-0.7-1.6-0.7-2.6c0-1.3,0.3-2.4,0.8-3.4c0.5-1,1.2-1.9,1.9-2.7c-0.6-0.8-1.2-1.6-1.5-2.6
			c-0.4-1-0.6-2.1-0.6-3.5c0-1.6,0.3-3,0.8-4.3c0.5-1.3,1.3-2.3,2.2-3.2s2.1-1.5,3.4-2c1.3-0.5,2.8-0.7,4.4-0.7c0.9,0,1.6,0,2.4,0.1
			c0.7,0.1,1.4,0.2,2.1,0.4h8.5c0.4,0,0.6,0.2,0.8,0.5S138,454.3,138,455z M132.6,484.6c0-1.2-0.5-2.1-1.5-2.8c-1-0.7-2.3-1-4-1
			l-7.3-0.2c-0.7,0.5-1.2,1-1.6,1.5c-0.4,0.5-0.8,0.9-1,1.3c-0.2,0.4-0.4,0.8-0.5,1.3c-0.1,0.4-0.1,0.8-0.1,1.3
			c0,1.3,0.7,2.4,2.1,3.1c1.4,0.7,3.3,1,5.7,1c1.6,0,2.9-0.2,3.9-0.5c1-0.3,1.9-0.7,2.5-1.2c0.6-0.5,1.1-1.1,1.4-1.7
			C132.4,486,132.6,485.3,132.6,484.6z M130,462.4c0-1.9-0.5-3.4-1.6-4.5c-1-1.1-2.5-1.6-4.5-1.6c-1,0-1.9,0.2-2.6,0.5
			c-0.7,0.3-1.3,0.8-1.8,1.4c-0.5,0.6-0.9,1.2-1.1,2c-0.2,0.8-0.4,1.6-0.4,2.4c0,1.8,0.5,3.3,1.6,4.4c1,1.1,2.5,1.6,4.4,1.6
			c1,0,1.9-0.2,2.6-0.5c0.7-0.3,1.4-0.8,1.9-1.3c0.5-0.6,0.9-1.2,1.1-2C129.9,464,130,463.2,130,462.4z"/>
		<path d="M168.7,481.8c0,0.2,0,0.3-0.1,0.4c-0.1,0.1-0.2,0.2-0.4,0.3c-0.2,0.1-0.4,0.1-0.8,0.2c-0.3,0-0.7,0.1-1.2,0.1
			c-0.5,0-0.9,0-1.3-0.1c-0.3,0-0.6-0.1-0.8-0.2c-0.2-0.1-0.3-0.2-0.4-0.3c-0.1-0.1-0.1-0.3-0.1-0.4v-16.4c0-1.6-0.1-2.9-0.4-3.9
			c-0.2-1-0.6-1.8-1.1-2.5s-1.1-1.2-1.9-1.6c-0.8-0.4-1.6-0.6-2.6-0.6c-1.3,0-2.6,0.5-3.9,1.4s-2.6,2.3-4,4v19.6
			c0,0.2,0,0.3-0.1,0.4c-0.1,0.1-0.2,0.2-0.4,0.3c-0.2,0.1-0.4,0.1-0.8,0.2c-0.3,0-0.8,0.1-1.3,0.1c-0.5,0-0.9,0-1.2-0.1
			c-0.3,0-0.6-0.1-0.8-0.2c-0.2-0.1-0.3-0.2-0.4-0.3c-0.1-0.1-0.1-0.3-0.1-0.4v-28c0-0.2,0-0.3,0.1-0.4s0.2-0.2,0.4-0.3
			c0.2-0.1,0.4-0.2,0.7-0.2c0.3,0,0.7,0,1.2,0c0.5,0,0.8,0,1.1,0c0.3,0,0.5,0.1,0.7,0.2c0.2,0.1,0.3,0.2,0.4,0.3
			c0.1,0.1,0.1,0.3,0.1,0.4v3.7c1.6-1.8,3.1-3.1,4.7-3.9c1.6-0.8,3.1-1.2,4.7-1.2c1.9,0,3.4,0.3,4.7,1c1.3,0.6,2.3,1.5,3.1,2.5
			c0.8,1.1,1.4,2.3,1.7,3.7c0.3,1.4,0.5,3.1,0.5,5.1V481.8z"/>
		<path d="M199.2,481.8c0,0.2-0.1,0.4-0.2,0.6c-0.2,0.1-0.4,0.2-0.7,0.3c-0.3,0.1-0.7,0.1-1.3,0.1c-0.5,0-1,0-1.3-0.1
			c-0.3-0.1-0.6-0.2-0.7-0.3c-0.1-0.1-0.2-0.3-0.2-0.6V479c-1.2,1.3-2.6,2.3-4.1,3.1s-3.1,1.1-4.8,1.1c-1.5,0-2.8-0.2-4-0.6
			s-2.2-0.9-3.1-1.7c-0.8-0.7-1.5-1.6-2-2.7c-0.5-1.1-0.7-2.3-0.7-3.6c0-1.6,0.3-2.9,1-4.1c0.6-1.2,1.6-2.1,2.8-2.9
			c1.2-0.8,2.7-1.3,4.4-1.7c1.7-0.4,3.7-0.6,5.9-0.6h3.9v-2.2c0-1.1-0.1-2-0.3-2.9s-0.6-1.5-1.1-2.1s-1.2-1-2-1.2s-1.8-0.4-3-0.4
			c-1.3,0-2.4,0.2-3.4,0.5s-1.9,0.6-2.6,1c-0.8,0.4-1.4,0.7-1.9,1s-0.9,0.5-1.1,0.5c-0.2,0-0.3,0-0.4-0.1c-0.1-0.1-0.2-0.2-0.3-0.4
			c-0.1-0.2-0.2-0.4-0.2-0.6c0-0.3-0.1-0.5-0.1-0.9c0-0.5,0-0.9,0.1-1.2c0.1-0.3,0.2-0.6,0.5-0.9c0.3-0.3,0.8-0.6,1.4-0.9
			c0.7-0.4,1.5-0.7,2.4-1c0.9-0.3,1.9-0.5,2.9-0.7s2.1-0.3,3.2-0.3c2,0,3.7,0.2,5.1,0.7c1.4,0.5,2.6,1.1,3.4,2
			c0.9,0.9,1.5,2,1.9,3.3s0.6,2.8,0.6,4.6V481.8z M194.1,469h-4.4c-1.4,0-2.6,0.1-3.7,0.4c-1,0.2-1.9,0.6-2.6,1.1
			c-0.7,0.5-1.2,1-1.5,1.7c-0.3,0.7-0.5,1.4-0.5,2.3c0,1.5,0.5,2.6,1.4,3.5c0.9,0.9,2.2,1.3,3.9,1.3c1.3,0,2.6-0.3,3.8-1
			c1.2-0.7,2.4-1.7,3.6-3.1V469z"/>
		<path d="M213.8,481.8c0,0.2,0,0.3-0.1,0.4c-0.1,0.1-0.2,0.2-0.4,0.3c-0.2,0.1-0.4,0.1-0.8,0.2c-0.3,0-0.8,0.1-1.3,0.1
			c-0.5,0-0.9,0-1.2-0.1c-0.3,0-0.6-0.1-0.8-0.2c-0.2-0.1-0.3-0.2-0.4-0.3c-0.1-0.1-0.1-0.3-0.1-0.4v-41.6c0-0.2,0-0.3,0.1-0.4
			c0.1-0.1,0.2-0.2,0.4-0.3c0.2-0.1,0.5-0.1,0.8-0.2c0.3,0,0.7-0.1,1.2-0.1c0.5,0,0.9,0,1.3,0.1c0.3,0,0.6,0.1,0.8,0.2
			c0.2,0.1,0.3,0.2,0.4,0.3c0.1,0.1,0.1,0.3,0.1,0.4V481.8z"/>
	</g>
	<g class="st6">
		<path d="M269.2,464.6c0,0.4,0,0.7-0.1,1c-0.1,0.3-0.1,0.5-0.2,0.7c-0.1,0.2-0.2,0.3-0.4,0.4c-0.1,0.1-0.3,0.1-0.5,0.1h-10.2v11.3
			c0,0.2,0,0.3-0.1,0.4s-0.2,0.2-0.4,0.3s-0.4,0.2-0.7,0.2c-0.3,0.1-0.7,0.1-1.1,0.1c-0.4,0-0.8,0-1.1-0.1s-0.5-0.1-0.7-0.2
			c-0.2-0.1-0.3-0.2-0.4-0.3s-0.1-0.3-0.1-0.4v-11.3H243c-0.2,0-0.3,0-0.5-0.1s-0.3-0.2-0.4-0.4c-0.1-0.2-0.2-0.4-0.2-0.7
			c-0.1-0.3-0.1-0.6-0.1-1c0-0.4,0-0.7,0.1-1c0.1-0.3,0.1-0.5,0.2-0.7c0.1-0.2,0.2-0.3,0.4-0.4c0.1-0.1,0.3-0.1,0.5-0.1h10.2v-11.3
			c0-0.2,0-0.3,0.1-0.5s0.2-0.2,0.4-0.3c0.2-0.1,0.4-0.2,0.7-0.2s0.7-0.1,1.1-0.1c0.4,0,0.8,0,1.1,0.1c0.3,0.1,0.5,0.1,0.7,0.2
			s0.3,0.2,0.4,0.3s0.1,0.3,0.1,0.5v11.3h10.2c0.2,0,0.3,0,0.5,0.1c0.1,0.1,0.3,0.2,0.4,0.4s0.2,0.4,0.2,0.7
			S269.2,464.2,269.2,464.6z"/>
		<path d="M293,481.6c-0.1,0.2-0.2,0.4-0.3,0.6c-0.1,0.1-0.3,0.3-0.6,0.3s-0.6,0.1-1,0.2c-0.4,0-0.9,0-1.5,0c-0.5,0-0.9,0-1.2,0
			s-0.6,0-0.9-0.1c-0.2,0-0.5-0.1-0.6-0.1c-0.2-0.1-0.3-0.1-0.5-0.2c-0.1-0.1-0.2-0.2-0.3-0.3c-0.1-0.1-0.1-0.3-0.2-0.4l-13.2-37.4
			c-0.2-0.5-0.3-0.8-0.3-1.1c0-0.3,0.1-0.5,0.3-0.6c0.2-0.1,0.5-0.2,0.9-0.3c0.4,0,1-0.1,1.7-0.1c0.6,0,1,0,1.4,0
			c0.3,0,0.6,0.1,0.8,0.2c0.2,0.1,0.3,0.2,0.4,0.3c0.1,0.1,0.2,0.3,0.3,0.5l11.6,33.9h0l11.2-33.8c0.1-0.2,0.1-0.4,0.2-0.6
			c0.1-0.1,0.2-0.3,0.4-0.3c0.2-0.1,0.5-0.1,0.9-0.2c0.4,0,0.9,0,1.5,0c0.6,0,1.2,0,1.5,0.1c0.4,0.1,0.6,0.2,0.8,0.3
			c0.1,0.1,0.2,0.4,0.2,0.6c0,0.3-0.1,0.6-0.3,1.1L293,481.6z"/>
	</g>
	<g class="st6">
		<path class="st0" d="M53.3,94.9c0.2,0,0.4,0,0.5,0.1c0.2,0.1,0.3,0.3,0.4,0.5c0.1,0.3,0.2,0.6,0.2,1c0.1,0.4,0.1,1,0.1,1.7
			c0,0.9,0,1.6-0.1,2.2c-0.1,0.6-0.2,1-0.4,1.3c-0.2,0.3-0.4,0.5-0.7,0.7l-24.5,18h24.5c0.2,0,0.3,0.1,0.5,0.2
			c0.2,0.1,0.3,0.3,0.4,0.5c0.1,0.3,0.2,0.6,0.2,1c0.1,0.4,0.1,0.9,0.1,1.6c0,0.6,0,1.1-0.1,1.6c-0.1,0.4-0.1,0.8-0.2,1
			c-0.1,0.3-0.2,0.4-0.4,0.5c-0.2,0.1-0.3,0.2-0.5,0.2H6.3c-0.2,0-0.4,0-0.5-0.2c-0.2-0.1-0.3-0.3-0.4-0.5c-0.1-0.3-0.2-0.6-0.2-1
			c-0.1-0.4-0.1-0.9-0.1-1.6c0-0.6,0-1.2,0.1-1.6s0.1-0.8,0.2-1c0.1-0.3,0.2-0.4,0.4-0.5c0.2-0.1,0.3-0.2,0.5-0.2h21.8L6.3,103
			c-0.2-0.2-0.4-0.3-0.6-0.5s-0.3-0.4-0.4-0.7c-0.1-0.3-0.2-0.6-0.2-1.1c-0.1-0.4-0.1-1-0.1-1.6c0-0.7,0-1.2,0.1-1.6
			c0.1-0.4,0.1-0.7,0.2-1c0.1-0.2,0.2-0.4,0.4-0.5c0.2-0.1,0.3-0.1,0.5-0.1c0.3,0,0.7,0.1,1,0.2C7.6,96.3,8,96.6,8.6,97l19.4,16.3
			l23.3-17.5c0.7-0.4,1.1-0.7,1.3-0.8C52.9,94.9,53.1,94.9,53.3,94.9z"/>
		<path class="st0" d="M35.3,70.9h18.1c0.2,0,0.4,0,0.5,0.2c0.2,0.1,0.3,0.3,0.4,0.5c0.1,0.3,0.2,0.6,0.2,1c0.1,0.4,0.1,0.9,0.1,1.5
			c0,0.6,0,1.1-0.1,1.6c-0.1,0.4-0.1,0.8-0.2,1c-0.1,0.3-0.2,0.4-0.4,0.5c-0.2,0.1-0.3,0.2-0.5,0.2H35.3L7.6,91.3
			c-0.6,0.3-1,0.4-1.4,0.5c-0.3,0.1-0.6,0-0.8-0.2c-0.2-0.2-0.3-0.5-0.3-1c-0.1-0.5-0.1-1.2-0.1-2c0-0.8,0-1.4,0.1-1.8
			c0.1-0.5,0.1-0.8,0.2-1.1c0.1-0.3,0.2-0.5,0.4-0.6c0.2-0.1,0.4-0.3,0.6-0.4l14.1-6.8c1.3-0.6,2.7-1.3,4.2-1.9
			c1.5-0.6,2.9-1.3,4.4-1.9V74c-1.4-0.6-2.9-1.2-4.3-1.8c-1.4-0.6-2.8-1.2-4.2-1.9L6.4,63.5c-0.3-0.1-0.5-0.2-0.6-0.3
			s-0.3-0.3-0.4-0.6c-0.1-0.2-0.2-0.6-0.2-1c-0.1-0.4-0.1-1-0.1-1.6c0-0.9,0-1.6,0.1-2.1c0.1-0.5,0.2-0.9,0.4-1.1
			c0.2-0.2,0.4-0.3,0.8-0.2c0.3,0.1,0.8,0.2,1.3,0.5L35.3,70.9z"/>
		<path class="st0" d="M35.2,38.5c1,0,1.7,0.1,2,0.3s0.6,0.6,0.6,1v15.8c0,0.5-0.2,0.8-0.6,1c-0.4,0.2-1.1,0.3-2,0.3
			c-1,0-1.6-0.1-2-0.3c-0.4-0.2-0.6-0.6-0.6-1V39.8c0-0.2,0-0.4,0.1-0.5c0.1-0.2,0.2-0.3,0.4-0.4c0.2-0.1,0.5-0.2,0.8-0.3
			C34.3,38.5,34.7,38.5,35.2,38.5z"/>
		<path class="st0" d="M29.7-0.8c3.8,0,7.2,0.3,10.3,0.9c3.1,0.6,5.8,1.6,8,3c2.2,1.4,4,3.2,5.2,5.4c1.2,2.2,1.8,5,1.8,8.2
			c0,3.1-0.5,5.7-1.6,7.8c-1.1,2.1-2.7,3.8-4.9,5.1c-2.1,1.3-4.8,2.2-7.9,2.7s-6.7,0.8-10.7,0.8c-3.7,0-7.2-0.3-10.3-0.9
			s-5.8-1.6-8-3s-4-3.2-5.2-5.4c-1.2-2.2-1.8-5-1.8-8.2c0-3.1,0.5-5.7,1.6-7.8c1.1-2.1,2.7-3.8,4.9-5.1c2.1-1.3,4.8-2.2,7.9-2.7
			C22.1-0.5,25.7-0.8,29.7-0.8z M30.2,5.9c-2.5,0-4.6,0.1-6.6,0.3c-1.9,0.2-3.7,0.4-5.2,0.8c-1.5,0.3-2.8,0.8-3.8,1.3
			c-1.1,0.5-2,1.2-2.7,2c-0.7,0.8-1.2,1.6-1.5,2.6c-0.3,1-0.5,2.1-0.5,3.3c0,2.1,0.5,3.9,1.5,5.2c1,1.3,2.4,2.4,4.2,3.2
			s3.8,1.3,6.2,1.6c2.4,0.3,4.9,0.4,7.7,0.4c3.7,0,6.8-0.2,9.3-0.6c2.6-0.4,4.7-1,6.3-1.8c1.6-0.8,2.8-1.9,3.5-3.1
			c0.7-1.3,1.1-2.8,1.1-4.6c0-1.4-0.2-2.7-0.7-3.7c-0.5-1.1-1.1-2-2-2.8c-0.8-0.8-1.9-1.4-3.1-1.9c-1.2-0.5-2.5-0.9-3.9-1.2
			c-1.4-0.3-3-0.5-4.7-0.6C33.7,6,32,5.9,30.2,5.9z"/>
		<path class="st0" d="M51.8-38.6c0.5,0,0.9,0,1.2,0.1c0.3,0.1,0.6,0.2,0.8,0.3c0.2,0.1,0.3,0.3,0.4,0.4c0.1,0.2,0.1,0.3,0.1,0.5
			v25.6c0,0.2,0,0.3-0.1,0.5c-0.1,0.2-0.2,0.3-0.4,0.4s-0.5,0.2-0.8,0.3c-0.3,0.1-0.7,0.1-1.2,0.1c-0.5,0-0.8,0-1.2-0.1
			c-0.3-0.1-0.6-0.2-0.8-0.3c-0.2-0.1-0.4-0.3-0.5-0.4c-0.1-0.2-0.2-0.3-0.2-0.5v-10.2H11.8l5.6,9.5c0.3,0.5,0.4,0.9,0.5,1.2
			c0.1,0.3,0,0.5-0.2,0.7c-0.2,0.2-0.4,0.3-0.8,0.4c-0.4,0.1-0.9,0.1-1.4,0.1c-0.4,0-0.8,0-1.1-0.1c-0.3,0-0.6-0.1-0.8-0.2
			s-0.4-0.2-0.5-0.3c-0.2-0.1-0.3-0.3-0.5-0.5L5.4-22.4c-0.1-0.1-0.1-0.2-0.2-0.4c-0.1-0.2-0.1-0.3-0.2-0.6S5-23.9,5-24.2
			c0-0.3,0-0.7,0-1.1c0-0.6,0-1.1,0.1-1.5c0.1-0.4,0.1-0.7,0.2-0.9c0.1-0.2,0.2-0.4,0.3-0.5c0.1-0.1,0.3-0.1,0.4-0.1h43.1v-8.9
			c0-0.2,0.1-0.4,0.2-0.6c0.1-0.2,0.3-0.3,0.5-0.4c0.2-0.1,0.5-0.2,0.8-0.3C50.9-38.5,51.3-38.6,51.8-38.6z"/>
		<path class="st0" d="M40.3-77.4c2.2,0,4.3,0.4,6.1,1.2c1.8,0.8,3.4,1.9,4.6,3.4c1.3,1.5,2.3,3.3,3,5.4s1,4.6,1,7.3
			c0,1.6-0.1,3.2-0.4,4.6c-0.3,1.4-0.6,2.7-0.9,3.8c-0.4,1.1-0.7,2-1.1,2.8c-0.4,0.7-0.7,1.2-0.9,1.4c-0.2,0.2-0.4,0.3-0.5,0.4
			c-0.2,0.1-0.4,0.2-0.6,0.3c-0.3,0.1-0.6,0.1-0.9,0.2s-0.8,0.1-1.3,0.1c-0.9,0-1.5-0.1-1.9-0.3c-0.4-0.2-0.5-0.4-0.5-0.8
			c0-0.2,0.2-0.7,0.6-1.4c0.4-0.7,0.8-1.6,1.3-2.6c0.5-1.1,0.9-2.3,1.3-3.8c0.4-1.4,0.6-3,0.6-4.8c0-1.7-0.2-3.2-0.6-4.5
			c-0.4-1.3-1-2.4-1.8-3.3s-1.7-1.5-2.8-2c-1.1-0.4-2.2-0.7-3.5-0.7c-1.4,0-2.6,0.3-3.8,0.8c-1.1,0.6-2.1,1.4-2.9,2.5
			c-0.8,1.1-1.4,2.4-1.9,4c-0.4,1.6-0.6,3.4-0.6,5.4v4.8c0,0.2,0,0.4-0.1,0.6c-0.1,0.2-0.2,0.4-0.4,0.5c-0.2,0.1-0.5,0.3-0.8,0.4
			c-0.3,0.1-0.8,0.1-1.3,0.1c-0.5,0-0.9,0-1.2-0.1c-0.3-0.1-0.6-0.2-0.8-0.3c-0.2-0.1-0.3-0.3-0.4-0.5c-0.1-0.2-0.1-0.4-0.1-0.6
			v-4.3c0-1.7-0.2-3.2-0.6-4.5c-0.4-1.3-1-2.5-1.9-3.4c-0.8-0.9-1.8-1.6-2.9-2.1c-1.1-0.5-2.4-0.7-3.8-0.7c-1,0-2,0.2-2.9,0.5
			s-1.7,0.8-2.4,1.5c-0.7,0.7-1.2,1.5-1.6,2.5c-0.4,1-0.6,2.2-0.6,3.5c0,1.5,0.2,2.8,0.7,4s0.9,2.3,1.4,3.3c0.5,1,1,1.8,1.4,2.4
			c0.4,0.6,0.7,1.1,0.7,1.3c0,0.2,0,0.3-0.1,0.5c-0.1,0.1-0.2,0.3-0.4,0.3s-0.5,0.2-0.8,0.2c-0.3,0-0.8,0.1-1.3,0.1
			c-0.4,0-0.7,0-1,0c-0.3,0-0.5-0.1-0.8-0.2c-0.2-0.1-0.4-0.2-0.6-0.3C9-48.6,8.8-48.8,8.5-49c-0.2-0.2-0.6-0.7-1-1.5
			c-0.5-0.7-0.9-1.6-1.3-2.7c-0.4-1.1-0.8-2.3-1.1-3.7s-0.5-2.9-0.5-4.5c0-2.3,0.3-4.3,0.9-6c0.6-1.7,1.4-3.2,2.5-4.3
			c1.1-1.1,2.3-2,3.8-2.6c1.5-0.6,3.1-0.9,4.9-0.9c1.5,0,3,0.2,4.3,0.6s2.5,1,3.5,1.8s1.9,1.7,2.6,2.9c0.7,1.1,1.2,2.5,1.5,3.9h0.1
			c0.2-1.7,0.6-3.2,1.3-4.6c0.7-1.4,1.5-2.6,2.5-3.6c1-1,2.2-1.8,3.5-2.4S38.8-77.4,40.3-77.4z"/>
	</g>
	<g class="st6">
		<path class="st0" d="M104,260.3c0,2.3-0.4,4.3-1.3,6.1s-2,3.3-3.5,4.6c-1.5,1.3-3.3,2.2-5.3,2.8c-2,0.6-4.2,0.9-6.6,0.9
			c-1.6,0-3.2-0.1-4.6-0.4s-2.7-0.6-3.8-1c-1.1-0.4-2-0.8-2.8-1.3c-0.7-0.4-1.3-0.8-1.6-1.1c-0.3-0.3-0.5-0.7-0.6-1.2
			c-0.1-0.5-0.2-1.1-0.2-1.9c0-0.6,0-1,0.1-1.4c0-0.4,0.1-0.7,0.2-0.9c0.1-0.2,0.2-0.4,0.4-0.5c0.2-0.1,0.3-0.1,0.5-0.1
			c0.4,0,0.9,0.2,1.5,0.6c0.6,0.4,1.5,0.9,2.5,1.4c1,0.5,2.2,1,3.7,1.4s3.1,0.7,4.9,0.7c1.4,0,2.7-0.2,3.9-0.6s2.2-0.9,3-1.6
			c0.8-0.7,1.5-1.5,2-2.6c0.5-1,0.7-2.2,0.7-3.4c0-1.4-0.3-2.6-0.9-3.6s-1.5-1.9-2.5-2.6s-2.2-1.4-3.5-2c-1.3-0.6-2.7-1.2-4.1-1.9
			c-1.4-0.6-2.7-1.4-4.1-2.1s-2.5-1.7-3.5-2.8c-1-1.1-1.9-2.3-2.5-3.7c-0.6-1.4-1-3.1-1-5.1c0-2,0.4-3.9,1.1-5.5
			c0.7-1.6,1.8-2.9,3.1-4c1.3-1.1,2.9-1.9,4.7-2.5c1.8-0.6,3.8-0.9,5.9-0.9c1.1,0,2.2,0.1,3.3,0.3c1.1,0.2,2.1,0.4,3.1,0.8
			c1,0.3,1.8,0.7,2.6,1.1c0.8,0.4,1.3,0.7,1.5,0.9c0.2,0.2,0.4,0.4,0.5,0.6c0.1,0.1,0.1,0.3,0.2,0.5s0.1,0.5,0.1,0.8
			c0,0.3,0,0.7,0,1.2c0,0.5,0,0.9-0.1,1.2c0,0.4-0.1,0.7-0.2,0.9c-0.1,0.2-0.2,0.4-0.3,0.5c-0.1,0.1-0.3,0.2-0.5,0.2
			c-0.3,0-0.7-0.2-1.3-0.5c-0.6-0.4-1.3-0.8-2.2-1.2c-0.9-0.4-1.9-0.8-3.1-1.2c-1.2-0.4-2.5-0.5-4-0.5c-1.4,0-2.6,0.2-3.6,0.5
			c-1,0.4-1.8,0.9-2.5,1.5c-0.7,0.6-1.2,1.3-1.5,2.2s-0.5,1.7-0.5,2.7c0,1.4,0.3,2.5,0.9,3.5c0.6,1,1.5,1.9,2.5,2.6
			c1,0.8,2.2,1.5,3.6,2.1c1.3,0.6,2.7,1.3,4.1,1.9c1.4,0.6,2.8,1.4,4.1,2.1c1.3,0.8,2.5,1.7,3.6,2.7c1,1,1.9,2.3,2.5,3.7
			C103.7,256.7,104,258.4,104,260.3z"/>
	</g>
	<g class="st6">
		<path class="st0" d="M485.9,254.9c0,1-0.3,1.7-0.9,2c-0.6,0.4-1.4,0.6-2.5,0.6h-40.3c-1.2,0-2-0.2-2.6-0.6c-0.6-0.4-0.9-1.1-0.9-2
			c0-1,0.3-1.6,0.9-2c0.6-0.4,1.4-0.6,2.6-0.6h40.3c0.5,0,1,0,1.4,0.1c0.4,0.1,0.8,0.2,1.1,0.4c0.3,0.2,0.5,0.5,0.7,0.8
			C485.8,254,485.9,254.4,485.9,254.9z"/>
	</g>
</g>
</svg>
