<?xml version="1.0" encoding="utf-8"?>
<!-- Generator: Adobe Illustrator 27.8.0, SVG Export Plug-In . SVG Version: 6.00 Build 0)  -->
<svg version="1.1"
	 id="svg8" xmlns:svg="http://www.w3.org/2000/svg" xmlns:rdf="http://www.w3.org/1999/02/22-rdf-syntax-ns#" xmlns:sodipodi="http://sodipodi.sourceforge.net/DTD/sodipodi-0.dtd" xmlns:dc="http://purl.org/dc/elements/1.1/" xmlns:inkscape="http://www.inkscape.org/namespaces/inkscape" xmlns:cc="http://creativecommons.org/ns#" inkscape:export-xdpi="93" inkscape:export-ydpi="93" inkscape:version="0.92.4 (5da689c313, 2019-01-14)"
	 xmlns="http://www.w3.org/2000/svg" xmlns:xlink="http://www.w3.org/1999/xlink" x="0px" y="0px" viewBox="0 0 653 1081"
	 style="enable-background:new 0 0 653 1081;" xml:space="preserve">
<style type="text/css">
	.st0{fill:#FFFFFF;}
	.st1{fill:#1A1A1A;}
	.st2{opacity:0.99;fill:#808080;enable-background:new    ;}
	.st3{opacity:0.99;fill:#CCCCCC;enable-background:new    ;}
	.st4{opacity:0.99;fill:#FFFFFF;enable-background:new    ;}
	.st5{opacity:0.99;fill:#B3B3B3;enable-background:new    ;}
	.st6{opacity:0.99;enable-background:new    ;}
	.st7{enable-background:new    ;}
</style>
<defs>
	
		<inkscape:perspective  id="perspective876" inkscape:persp3d-origin="105 : 98.999993 : 1" inkscape:vp_x="0 : 148.49997 : 1" inkscape:vp_y="0 : 999.9999 : 0" inkscape:vp_z="210.00001 : 148.49997 : 1" sodipodi:type="inkscape:persp3d">
		</inkscape:perspective>
</defs>
<sodipodi:namedview  bordercolor="#666666" borderopacity="1.0" id="base" inkscape:current-layer="layer1" inkscape:cx="281.33711" inkscape:cy="1412.0081" inkscape:document-units="mm" inkscape:lockguides="true" inkscape:pageopacity="0.0" inkscape:pageshadow="2" inkscape:window-height="1017" inkscape:window-maximized="1" inkscape:window-width="1920" inkscape:window-x="-8" inkscape:window-y="-8" inkscape:zoom="0.24748737" pagecolor="#ffffff" showgrid="false" showguides="true" width="500mm">
	</sodipodi:namedview>
<g id="layer1" transform="translate(0.31582593,447.81107)" inkscape:groupmode="layer" inkscape:label="Ebene 1">
	<rect id="rect815" x="-0.3" y="-445.4" width="653.7" height="878.5"/>
	<rect id="rect821" x="154.3" y="290.1" class="st0" width="340.1" height="117.1"/>
	<path id="rect825" class="st1" d="M176.6,296.7h68.2c11.9,0,21.5,9.6,21.5,21.5v59.8c0,11.9-9.6,21.5-21.5,21.5h-68.2
		c-11.9,0-21.5-9.6-21.5-21.5v-59.8C155,306.4,164.7,296.7,176.6,296.7z"/>
	<path id="rect872" class="st1" d="M403.8,296.7h68.2c11.9,0,21.5,9.6,21.5,21.5v59.8c0,11.9-9.6,21.5-21.5,21.5h-68.2
		c-11.9,0-21.5-9.6-21.5-21.5v-59.8C382.2,306.4,391.9,296.7,403.8,296.7z"/>
	<path id="rect874" class="st1" d="M287.4,296.7h73.7c10.4,0,18.8,8.4,18.8,18.8v65.4c0,10.4-8.4,18.8-18.8,18.8h-73.7
		c-10.4,0-18.8-8.4-18.8-18.8v-65.4C268.6,305.1,277,296.7,287.4,296.7z"/>
	<rect id="rect947" x="204.4" y="352.7" class="st2" width="12.3" height="214.6"/>
	<rect id="rect949" x="318.6" y="352.7" class="st2" width="12.3" height="214.6"/>
	<rect id="rect951" x="431.6" y="352.7" class="st2" width="12.3" height="214.6"/>
	<g id="flowRoot969" transform="translate(0,-44.843765)">
	</g>
	<circle id="path1456" class="st3" cx="91.1" cy="-124" r="59.5"/>
	<circle id="ellipse1458" class="st3" cx="555.4" cy="-124" r="59.5"/>
	<circle id="path1460" class="st4" cx="91.1" cy="-124" r="53.7"/>
	<circle id="ellipse1464" class="st4" cx="555.4" cy="-124" r="53.7"/>
	<g id="flowRoot1466" transform="translate(0,-44.843765)">
	</g>
	<g id="flowRoot1529" transform="translate(0,-44.843765)">
	</g>
	<rect id="rect87" x="91.6" y="167" width="465.3" height="117.1"/>
	<circle id="path91" class="st3" cx="153.5" cy="244.5" r="43.5"/>
	<circle id="circle93" class="st3" cx="493" cy="244.5" r="43.5"/>
	<path id="rect95" class="st3" d="M188.3,66.1h29c16,0,29,13,29,29v72.6c0,16-13,29-29,29h-29c-16,0-29-13-29-29V95.1
		C159.3,79.1,172.3,66.1,188.3,66.1z"/>
	<path id="rect97" class="st3" d="M435,66.1h29c16,0,29,13,29,29v72.6c0,16-13,29-29,29h-29c-16,0-29-13-29-29V95.1
		C406,79.1,419,66.1,435,66.1z"/>
	<circle id="circle99" class="st3" cx="239.1" cy="16.7" r="43.5"/>
	<circle id="circle101" class="st3" cx="413.2" cy="16.7" r="43.5"/>
	<circle id="ellipse103" class="st4" cx="142" cy="13.8" r="53.7"/>
	<circle id="ellipse105" class="st4" cx="510.5" cy="13.8" r="53.7"/>
	<path id="rect111" class="st3" d="M188.3-171.9h29c16,0,29,13,29,29v72.6c0,16-13,29-29,29h-29c-16,0-29-13-29-29v-72.6
		C159.3-158.9,172.3-171.9,188.3-171.9z"/>
	<path id="rect113" class="st3" d="M435-171.9h29c16,0,29,13,29,29v72.6c0,16-13,29-29,29h-29c-16,0-29-13-29-29v-72.6
		C406-158.9,419-171.9,435-171.9z"/>
	<circle id="circle119" class="st4" cx="153.5" cy="244.5" r="36.3"/>
	<circle id="circle121" class="st4" cx="493" cy="244.5" r="36.3"/>
	<circle id="circle129" class="st3" cx="147.7" cy="-273.5" r="43.5"/>
	<circle id="circle131" class="st4" cx="147.7" cy="-273.5" r="36.3"/>
	<circle id="circle133" class="st3" cx="504.7" cy="-273.5" r="43.5"/>
	<circle id="circle135" class="st4" cx="504.7" cy="-273.5" r="36.3"/>
	<path id="path31-1" inkscape:connector-curvature="0" class="st0" d="M185.5-373.1c4-0.1,4.5-0.1,5.2-0.6c0.5-0.3,1-0.9,1.3-1.3
		c0.4-0.7,0.5-1.2,0.5-9.5l0.1-8.8l8.6,0l8.6,0v10.9c0,12-0.1,13.2-1.4,16.3c-1.6,4.1-4,6.1-9,7.2c-1.3,0.3-2.8,0.4-7.9,0.3
		c-3.4,0-7.2-0.1-8.4-0.2l-2.1-0.2l-0.1-7.1l-0.1-7.1L185.5-373.1L185.5-373.1z M267.7-348.6c73.7,0,91.8,0.1,88.8,0.4l-0.5,0
		l0.5,0.2c0.4,0.2,0.3,0.2-0.4,0.3c-0.5,0-0.3,0.1,0.7,0.2l1.5,0.2l-1.5,0.1c-0.8,0-1.3,0.1-1.1,0.2c0.4,0.1,0.4,0.4,0.4,2
		c0,1.9,0,1.9,0.6,2c0.5,0.1,0.3,0.1-0.4,0.1c-0.5,0-1,0.1-1,0.3c0,0.2-29.2,0.2-87.2,0.2h-87.2v-3.1v-3.1L267.7-348.6z
		 M201.3-415.7h8.7v7.1v7.1h-8.7h-8.7v-7.1v-7.1H201.3z M218.9-389.6c0.6-4,1.7-7.5,3.3-10.7c0.6-1.1,1.1-2.1,1.2-2.2
		c0.1-0.1,0.5-0.7,1-1.4c0.9-1.4,3-4,3.4-4.3c0.2-0.1,0.3-0.3,0.3-0.4c0-0.3,2.2-2.3,3.9-3.5c1.8-1.3,3.3-2,6.5-3.2
		c3.8-1.4,6-1.7,10.5-1.6c3.3,0.1,4.1,0.2,6.1,0.8c1.3,0.4,2.9,0.9,3.5,1.2c0.6,0.3,1.2,0.5,1.4,0.5c0.1,0,1.1,0.5,2.2,1.1
		c4.2,2.4,9.9,8.9,12,13.7c3.4,7.5,3.9,15.1,1.3,22.1c-1.1,2.9-1.9,4.6-3.2,6.7c-1.5,2.4-1.6,2.5-5.2,6.1c-4.1,4-7,5.8-12.4,7.2
		c-2.7,0.7-8.1,1-11,0.6c-3.8-0.6-8.8-2.7-11.8-5c-1.6-1.2-3.7-3.1-3.7-3.3c0-0.1-0.5-0.7-1.2-1.3c-3.1-3.2-6.4-9.4-7.5-14.6
		C219-383.1,218.7-388.2,218.9-389.6L218.9-389.6z M235.5-382.3c0.8,3.3,2.5,6.1,5.1,8.6c2.6,2.5,6.8,3.4,10.4,2.3
		c3.9-1.2,7.9-5.8,9.1-10.8c0.7-2.8,0.7-7-0.1-9.7c-1.2-3.9-3.2-7-6.1-9c-1.3-0.9-1.9-1.2-3.3-1.5c-3-0.6-6-0.3-8.1,0.8
		c-1.9,0.9-4.2,3.6-5.6,6.3C234.9-391.3,234.4-386.6,235.5-382.3L235.5-382.3z M284.4-415.6c0.2-0.1,4.1-0.1,8.7,0l8.4,0.1l0,7.8
		c0,7.3,0.1,7.9,0.5,9.1c1.2,3.3,5.2,5.1,8.7,4c1.8-0.6,3-1.6,3.9-3.3l0.8-1.5l0.1-8.1l0.1-8.1h8.7h8.7l-0.1,9.1
		c-0.1,8.5-0.1,9.2-0.6,11c-1,3.5-2.5,6.6-4.5,9c-0.5,0.6-0.9,1.2-0.9,1.3c0,0.3-2.2,2.3-4.2,3.7c-1.7,1.2-4,2.5-5.2,2.7
		c-0.4,0.1-1.6,0.4-2.7,0.8c-1.9,0.6-2.3,0.6-6.2,0.6c-3.9,0-4.4,0-6.6-0.7c-3.5-1-4.6-1.5-6.9-3c-2.6-1.7-4.8-3.9-6.6-6.6
		c-2.6-3.8-3.7-6.7-4.2-11C284-401.7,284.1-415.5,284.4-415.6L284.4-415.6z M308.7-372.8H323v7.3v7.3h-14.2h-14.2v-7.3v-7.3H308.7z
		 M333.1-426.9c0.1,0,0.2-0.4,0.2-0.9c0-0.9,0-0.9,1.1-1c0.6-0.1,24.7-0.1,53.6-0.1l52.5,0l-0.1,3.1l-0.1,3.1H387
		c-29.4,0-53.5-0.1-53.7-0.1c-0.3-0.1-0.4-0.5-0.4-2.1C332.8-426.1,332.9-426.9,333.1-426.9L333.1-426.9z M357.1-391.8h18.1v7.2v7.2
		h-18.1H339v-7.2v-7.2H357.1z M389.5-415.7h8.7v7.1v7.1h-8.7h-8.7v-7.1v-7.1H389.5z M389.5-394.2h8.7v18.3v18.3h-8.7h-8.7v-18.3
		v-18.3L389.5-394.2z M424.2-415.7h18.2v7.1v7.1h-18.2H406v-7.1v-7.1H424.2z M409-393.1c0.1-0.1,4-0.1,8.6-0.1l8.4,0l0.1,8.4
		c0.1,11.8-0.4,11.1,8.5,11.3l5.6,0.1v7.4v7.4l-2.1,0.3c-3.1,0.4-13.1,0.3-15.8-0.1c-4.6-0.7-7.6-2.2-9.6-4.6
		c-2.1-2.5-3.1-5.1-3.5-9.1C408.8-374.8,408.7-392.9,409-393.1L409-393.1z M452.7-422.7c0.4-1.5,1.3-3,2.3-3.9
		c3.9-3.5,8.7-3.8,12.6-1c1.8,1.3,2.3,1.9,3.1,3.5c0.6,1.3,0.7,1.6,0.7,3.8c0,2.2-0.1,2.6-0.7,3.9c-1.3,2.8-4.7,5.1-7.9,5.3
		c-3,0.2-5.4-0.7-7.8-3C452.8-416,451.8-419.7,452.7-422.7L452.7-422.7z M454.4-416.7c0.8,1.9,3.3,3.7,5.8,4.3
		c2.5,0.6,4.5,0.1,7.4-2c0.7-0.5,1.2-1.2,1.8-2.3c0.7-1.4,0.8-1.8,0.8-3.6c0-1.8-0.1-2.1-0.8-3.6c-0.7-1.3-1.1-1.8-2.2-2.6
		c-0.8-0.5-1.9-1.2-2.6-1.4c-4-1.3-8.7,0.8-10.3,4.7C453.5-421.6,453.7-418.5,454.4-416.7L454.4-416.7z M460.9-425.7
		c1.8,0,3.5,0.1,3.8,0.2c1.4,0.5,2.1,3.2,1.1,4.5c-0.3,0.3-0.8,0.7-1.3,0.9l-0.8,0.3l0.8,0.9c0.4,0.5,1.1,1.5,1.5,2.2
		c0.4,0.7,0.8,1.3,0.9,1.4c0.5,0.3,0.1,0.6-0.8,0.6l-1,0l-1.4-2.2c-1.5-2.4-1.9-2.6-3.5-2.6h-1v2.5v2.5l-0.7-0.1l-0.7-0.1l-0.1-5.4
		l-0.1-5.4L460.9-425.7z M461.3-421.1c1.8,0,2.2-0.1,2.7-0.5c1.3-1,0.6-2.6-1.3-2.9c-0.8-0.1-3-0.1-3.4,0.1c0,0-0.1,0.8-0.1,1.6v1.6
		L461.3-421.1z"/>
	<rect id="rect84" x="159.3" y="-155.2" class="st5" width="333.7" height="333.7"/>
	<circle id="path86" class="st6" cx="460.4" cy="-122.6" r="18.1"/>
	<circle id="circle88" class="st6" cx="192" cy="-122.6" r="18.1"/>
	<circle id="circle90" class="st6" cx="460.4" cy="145.9" r="18.1"/>
	<circle id="circle92" class="st6" cx="192" cy="145.9" r="18.1"/>
	<circle id="path94" class="st6" cx="326.2" cy="11.7" r="108.8"/>
	<g class="st7">
		<path d="M432.1,577.9c0,0.5,0,0.9-0.1,1.2c0,0.4-0.1,0.7-0.2,0.9c-0.1,0.2-0.2,0.4-0.4,0.5c-0.1,0.1-0.3,0.1-0.5,0.1
			c-0.3,0-0.8-0.2-1.5-0.7c-0.7-0.5-1.6-1-2.8-1.6c-1.2-0.6-2.5-1.1-4.2-1.6c-1.6-0.5-3.5-0.7-5.7-0.7c-2.6,0-5,0.5-7.1,1.4
			c-2.1,1-3.9,2.3-5.3,4s-2.6,3.7-3.3,6.1c-0.8,2.3-1.2,4.9-1.2,7.6c0,3.1,0.4,5.8,1.3,8.1c0.8,2.4,2,4.4,3.5,6
			c1.5,1.6,3.3,2.9,5.4,3.7c2.1,0.8,4.4,1.3,6.9,1.3c1.5,0,3-0.2,4.5-0.5s2.9-0.9,4.2-1.6v-13.9h-11.1c-0.4,0-0.7-0.2-0.9-0.6
			c-0.2-0.4-0.3-1.1-0.3-2c0-0.5,0-0.9,0.1-1.2c0-0.3,0.1-0.6,0.2-0.8c0.1-0.2,0.2-0.4,0.4-0.5c0.1-0.1,0.3-0.1,0.6-0.1h15.2
			c0.3,0,0.5,0,0.8,0.1c0.3,0.1,0.5,0.2,0.7,0.4c0.2,0.2,0.4,0.5,0.5,0.8c0.1,0.3,0.2,0.7,0.2,1.2v18.2c0,0.6-0.1,1.2-0.3,1.7
			s-0.7,0.9-1.4,1.2c-0.7,0.4-1.6,0.7-2.8,1.2c-1.1,0.4-2.3,0.8-3.5,1.1c-1.2,0.3-2.4,0.5-3.7,0.7c-1.2,0.1-2.5,0.2-3.7,0.2
			c-3.7,0-7-0.6-9.9-1.7c-2.9-1.1-5.4-2.8-7.4-4.9c-2-2.1-3.5-4.7-4.6-7.6s-1.6-6.3-1.6-9.9c0-3.8,0.6-7.2,1.7-10.3
			c1.1-3.1,2.8-5.7,4.8-7.9c2.1-2.2,4.6-3.8,7.5-5c2.9-1.2,6.2-1.8,9.7-1.8c1.8,0,3.5,0.2,5.1,0.5s3,0.7,4.3,1.1
			c1.2,0.4,2.3,0.9,3.1,1.4c0.8,0.5,1.4,0.9,1.8,1.2c0.3,0.3,0.5,0.7,0.7,1.1S432.1,577.1,432.1,577.9z"/>
		<path d="M480.1,616.6c0,0.5-0.1,0.9-0.2,1.3c-0.2,0.3-0.4,0.6-0.6,0.9c-0.3,0.2-0.6,0.4-0.9,0.5c-0.3,0.1-0.7,0.1-1,0.1h-2.1
			c-0.7,0-1.2-0.1-1.7-0.2c-0.5-0.1-1-0.4-1.4-0.7c-0.4-0.4-0.9-0.8-1.3-1.5c-0.4-0.6-0.9-1.4-1.4-2.4l-14.6-27.2
			c-0.8-1.4-1.5-2.9-2.3-4.4s-1.5-3-2.2-4.5h-0.1c0,1.8,0.1,3.6,0.1,5.4s0,3.7,0,5.5v28.9c0,0.2-0.1,0.3-0.2,0.5
			c-0.1,0.2-0.3,0.3-0.5,0.4c-0.2,0.1-0.6,0.2-1,0.2s-0.9,0.1-1.5,0.1c-0.6,0-1.1,0-1.5-0.1s-0.7-0.1-1-0.2
			c-0.2-0.1-0.4-0.2-0.5-0.4c-0.1-0.2-0.2-0.3-0.2-0.5v-44.1c0-1,0.3-1.7,0.8-2.1c0.6-0.4,1.2-0.6,1.8-0.6h3.1
			c0.7,0,1.4,0.1,1.9,0.2c0.5,0.1,0.9,0.3,1.3,0.6c0.4,0.3,0.8,0.7,1.1,1.2s0.8,1.1,1.2,1.9l11.2,21c0.7,1.3,1.4,2.5,2,3.8
			c0.6,1.2,1.3,2.4,1.9,3.6c0.6,1.2,1.2,2.3,1.8,3.5c0.6,1.1,1.2,2.3,1.7,3.5h0c0-1.9-0.1-4-0.1-6.1c0-2.1,0-4.1,0-6.1v-25.9
			c0-0.2,0.1-0.3,0.2-0.5c0.1-0.1,0.3-0.3,0.5-0.4s0.6-0.2,1-0.2c0.4,0,0.9-0.1,1.6-0.1c0.6,0,1.1,0,1.5,0.1c0.4,0,0.7,0.1,1,0.2
			s0.4,0.2,0.5,0.4c0.1,0.1,0.2,0.3,0.2,0.5V616.6z"/>
		<path d="M529.6,594.6c0,4.1-0.5,7.8-1.6,10.8s-2.6,5.7-4.6,7.7s-4.5,3.6-7.5,4.6c-3,1-6.5,1.5-10.6,1.5h-10.1
			c-0.6,0-1.1-0.2-1.6-0.6c-0.5-0.4-0.8-1.1-0.8-2V574c0-1,0.3-1.6,0.8-2c0.5-0.4,1-0.6,1.6-0.6H506c4.1,0,7.6,0.5,10.5,1.6
			c2.9,1.1,5.3,2.6,7.2,4.6s3.4,4.4,4.4,7.3S529.6,591,529.6,594.6z M522.9,594.9c0-2.6-0.3-5-1-7.2s-1.6-4.2-3-5.8
			c-1.4-1.6-3.1-2.9-5.2-3.8c-2.1-0.9-4.8-1.4-8.1-1.4h-6.5v37.2h6.5c3.1,0,5.6-0.4,7.7-1.1c2.1-0.8,3.8-1.9,5.2-3.5
			c1.4-1.6,2.5-3.6,3.2-5.9C522.5,601,522.9,598.1,522.9,594.9z"/>
	</g>
	<g class="st7">
		<path d="M320.7,598.4c0,0.5,0,0.9-0.1,1.2c-0.1,0.3-0.2,0.6-0.3,0.8c-0.1,0.2-0.3,0.4-0.4,0.5s-0.4,0.1-0.6,0.1h-12.1v13.5
			c0,0.2,0,0.4-0.1,0.5s-0.3,0.3-0.5,0.4c-0.2,0.1-0.5,0.2-0.8,0.2c-0.3,0.1-0.8,0.1-1.3,0.1c-0.5,0-0.9,0-1.3-0.1
			c-0.4-0.1-0.6-0.1-0.9-0.2c-0.2-0.1-0.4-0.2-0.5-0.4s-0.1-0.3-0.1-0.5v-13.5h-12.1c-0.2,0-0.4,0-0.6-0.1s-0.3-0.3-0.4-0.5
			c-0.1-0.2-0.2-0.5-0.3-0.8c-0.1-0.3-0.1-0.7-0.1-1.2c0-0.4,0-0.8,0.1-1.2c0.1-0.3,0.2-0.6,0.3-0.8c0.1-0.2,0.3-0.4,0.4-0.5
			s0.3-0.1,0.5-0.1h12.2v-13.5c0-0.2,0-0.4,0.1-0.5c0.1-0.2,0.3-0.3,0.5-0.4c0.2-0.1,0.5-0.2,0.9-0.3c0.4-0.1,0.8-0.1,1.3-0.1
			c0.5,0,0.9,0,1.3,0.1c0.3,0.1,0.6,0.1,0.8,0.3c0.2,0.1,0.4,0.2,0.5,0.4c0.1,0.2,0.1,0.3,0.1,0.5v13.5h12.2c0.2,0,0.4,0,0.5,0.1
			s0.3,0.3,0.4,0.5s0.2,0.5,0.3,0.8C320.7,597.6,320.7,598,320.7,598.4z"/>
		<path d="M349,618.6c-0.1,0.3-0.2,0.5-0.4,0.7c-0.2,0.2-0.4,0.3-0.7,0.4c-0.3,0.1-0.7,0.2-1.2,0.2s-1.1,0.1-1.8,0.1
			c-0.5,0-1,0-1.4,0c-0.4,0-0.8,0-1.1-0.1c-0.3,0-0.5-0.1-0.8-0.2c-0.2-0.1-0.4-0.1-0.5-0.2c-0.1-0.1-0.3-0.2-0.4-0.4
			s-0.2-0.3-0.2-0.5l-15.6-44.4c-0.2-0.5-0.3-1-0.3-1.3c0-0.3,0.1-0.6,0.3-0.8c0.2-0.2,0.6-0.3,1.1-0.3c0.5,0,1.2-0.1,2-0.1
			c0.7,0,1.2,0,1.6,0.1c0.4,0,0.7,0.1,0.9,0.2s0.4,0.2,0.5,0.4c0.1,0.2,0.2,0.4,0.3,0.6l13.7,40.3h0l13.3-40.2
			c0.1-0.3,0.2-0.5,0.3-0.7c0.1-0.2,0.3-0.3,0.5-0.4c0.2-0.1,0.6-0.2,1-0.2c0.4,0,1-0.1,1.8-0.1c0.8,0,1.4,0,1.8,0.1
			c0.4,0.1,0.7,0.2,0.9,0.4c0.2,0.2,0.2,0.4,0.2,0.8s-0.2,0.8-0.4,1.3L349,618.6z"/>
	</g>
	<g class="st7">
		<path d="M110.3,606.3c0,2.2-0.4,4.2-1.2,6c-0.8,1.8-2,3.2-3.4,4.5c-1.5,1.2-3.2,2.1-5.2,2.8c-2,0.6-4.1,0.9-6.4,0.9
			c-1.6,0-3.1-0.1-4.5-0.4c-1.4-0.3-2.6-0.6-3.7-1c-1.1-0.4-2-0.8-2.7-1.2s-1.2-0.8-1.5-1.1s-0.5-0.7-0.6-1.1
			c-0.1-0.5-0.2-1.1-0.2-1.8c0-0.5,0-1,0.1-1.3c0-0.4,0.1-0.6,0.2-0.9c0.1-0.2,0.2-0.4,0.4-0.5c0.1-0.1,0.3-0.1,0.5-0.1
			c0.3,0,0.8,0.2,1.5,0.6c0.6,0.4,1.4,0.9,2.4,1.4s2.2,1,3.6,1.4c1.4,0.4,3,0.6,4.8,0.6c1.4,0,2.6-0.2,3.8-0.6
			c1.1-0.4,2.1-0.9,3-1.6c0.8-0.7,1.5-1.5,1.9-2.5c0.4-1,0.7-2.1,0.7-3.4c0-1.4-0.3-2.5-0.9-3.5c-0.6-1-1.4-1.8-2.4-2.5
			s-2.2-1.4-3.5-2s-2.6-1.2-4-1.8c-1.4-0.6-2.7-1.3-4-2.1c-1.3-0.8-2.4-1.7-3.4-2.7s-1.8-2.2-2.5-3.6c-0.6-1.4-0.9-3.1-0.9-5
			c0-2,0.4-3.8,1.1-5.3c0.7-1.6,1.7-2.9,3-3.9c1.3-1.1,2.8-1.9,4.6-2.4c1.8-0.6,3.7-0.8,5.8-0.8c1.1,0,2.1,0.1,3.2,0.3
			c1.1,0.2,2.1,0.4,3,0.7c0.9,0.3,1.8,0.7,2.5,1c0.7,0.4,1.2,0.7,1.5,0.9s0.4,0.4,0.5,0.6c0.1,0.1,0.1,0.3,0.2,0.5
			c0,0.2,0.1,0.5,0.1,0.8c0,0.3,0,0.7,0,1.1c0,0.4,0,0.8-0.1,1.2c0,0.3-0.1,0.6-0.2,0.9s-0.2,0.4-0.3,0.5c-0.1,0.1-0.3,0.2-0.5,0.2
			c-0.3,0-0.7-0.2-1.3-0.5c-0.6-0.3-1.3-0.7-2.1-1.2c-0.8-0.4-1.8-0.8-3-1.2c-1.1-0.4-2.4-0.5-3.9-0.5c-1.3,0-2.5,0.2-3.5,0.5
			c-1,0.4-1.8,0.8-2.4,1.4c-0.6,0.6-1.1,1.3-1.4,2.1c-0.3,0.8-0.5,1.7-0.5,2.6c0,1.3,0.3,2.5,0.9,3.4s1.4,1.8,2.5,2.6
			c1,0.7,2.2,1.4,3.5,2c1.3,0.6,2.6,1.2,4,1.9c1.4,0.6,2.7,1.3,4,2.1c1.3,0.8,2.5,1.6,3.5,2.7c1,1,1.8,2.2,2.5,3.6
			C110,602.7,110.3,604.4,110.3,606.3z"/>
		<path d="M125.5,574.3c0,1.4-0.3,2.4-0.8,2.9c-0.5,0.5-1.5,0.8-3,0.8c-1.4,0-2.4-0.3-2.9-0.8c-0.5-0.5-0.8-1.5-0.8-2.9
			c0-1.4,0.3-2.4,0.8-2.9c0.5-0.5,1.5-0.8,3-0.8c1.4,0,2.4,0.3,2.9,0.8C125.3,571.9,125.5,572.9,125.5,574.3z M124.8,618.8
			c0,0.2,0,0.4-0.1,0.5c-0.1,0.1-0.3,0.3-0.5,0.4c-0.2,0.1-0.5,0.2-0.9,0.2c-0.4,0-0.9,0.1-1.5,0.1c-0.6,0-1.1,0-1.5-0.1
			c-0.4,0-0.7-0.1-0.9-0.2c-0.2-0.1-0.4-0.2-0.5-0.4c-0.1-0.1-0.1-0.3-0.1-0.5v-33.3c0-0.2,0-0.3,0.1-0.5c0.1-0.1,0.2-0.3,0.5-0.4
			s0.5-0.2,0.9-0.2s0.9-0.1,1.5-0.1c0.6,0,1.1,0,1.5,0.1s0.7,0.1,0.9,0.2s0.4,0.2,0.5,0.4c0.1,0.1,0.1,0.3,0.1,0.5V618.8z"/>
		<path d="M163.9,587c0,0.9-0.1,1.5-0.4,1.9s-0.5,0.6-0.9,0.6h-4.8c0.9,0.9,1.5,1.9,1.8,2.9s0.5,2.2,0.5,3.3c0,1.9-0.3,3.6-0.9,5.1
			c-0.6,1.5-1.5,2.7-2.6,3.8c-1.1,1-2.5,1.8-4.1,2.3c-1.6,0.5-3.3,0.8-5.2,0.8c-1.4,0-2.6-0.2-3.9-0.5s-2.2-0.8-2.8-1.3
			c-0.4,0.4-0.8,0.9-1.1,1.5c-0.3,0.6-0.4,1.2-0.4,2c0,0.9,0.4,1.6,1.2,2.1c0.8,0.6,1.9,0.9,3.2,0.9l8.7,0.4c1.7,0,3.2,0.3,4.5,0.7
			c1.4,0.4,2.6,1,3.6,1.7c1,0.8,1.8,1.7,2.4,2.8c0.6,1.1,0.9,2.4,0.9,3.8c0,1.5-0.3,3-1,4.4c-0.6,1.4-1.6,2.6-2.9,3.6
			c-1.3,1-3,1.9-5,2.5c-2,0.6-4.5,0.9-7.2,0.9c-2.7,0-5-0.2-6.9-0.7c-1.9-0.5-3.4-1.1-4.6-1.9c-1.2-0.8-2.1-1.7-2.6-2.8
			c-0.5-1.1-0.8-2.3-0.8-3.6c0-0.8,0.1-1.6,0.3-2.4s0.5-1.5,0.9-2.2c0.4-0.7,0.9-1.3,1.5-2c0.6-0.6,1.3-1.3,2.1-1.9
			c-1.2-0.6-2.1-1.4-2.7-2.3c-0.6-0.9-0.9-1.9-0.9-3c0-1.5,0.3-2.8,0.9-4s1.4-2.2,2.3-3.2c-0.8-0.9-1.4-1.9-1.8-3.1
			c-0.4-1.1-0.7-2.5-0.7-4.2c0-1.9,0.3-3.6,1-5.1s1.5-2.8,2.7-3.8c1.1-1,2.5-1.8,4.1-2.4c1.6-0.6,3.3-0.8,5.2-0.8c1,0,2,0.1,2.8,0.2
			c0.9,0.1,1.7,0.3,2.5,0.5h10.1c0.4,0,0.7,0.2,0.9,0.6C163.8,585.6,163.9,586.2,163.9,587z M157.4,622.1c0-1.4-0.6-2.5-1.8-3.3
			c-1.2-0.8-2.8-1.2-4.8-1.2l-8.6-0.3c-0.8,0.6-1.4,1.2-1.9,1.8c-0.5,0.6-0.9,1.1-1.2,1.6s-0.5,1-0.6,1.5c-0.1,0.5-0.2,1-0.2,1.5
			c0,1.6,0.8,2.8,2.4,3.6c1.6,0.8,3.9,1.2,6.8,1.2c1.8,0,3.4-0.2,4.6-0.5c1.2-0.4,2.2-0.8,3-1.4c0.8-0.6,1.3-1.3,1.6-2
			C157.3,623.8,157.4,623,157.4,622.1z M154.4,595.8c0-2.3-0.6-4-1.9-5.3c-1.2-1.3-3-1.9-5.3-1.9c-1.2,0-2.2,0.2-3.1,0.6
			c-0.9,0.4-1.6,0.9-2.2,1.6c-0.6,0.7-1,1.5-1.3,2.4s-0.4,1.8-0.4,2.8c0,2.2,0.6,3.9,1.9,5.2c1.2,1.3,3,1.9,5.2,1.9
			c1.2,0,2.3-0.2,3.1-0.6c0.9-0.4,1.6-0.9,2.2-1.6s1-1.5,1.3-2.3C154.2,597.7,154.4,596.7,154.4,595.8z"/>
		<path d="M200.4,618.8c0,0.2,0,0.4-0.1,0.5c-0.1,0.1-0.3,0.3-0.5,0.4c-0.2,0.1-0.5,0.2-0.9,0.2c-0.4,0-0.9,0.1-1.5,0.1
			c-0.6,0-1.1,0-1.5-0.1c-0.4,0-0.7-0.1-0.9-0.2c-0.2-0.1-0.4-0.2-0.5-0.4c-0.1-0.1-0.1-0.3-0.1-0.5v-19.5c0-1.9-0.1-3.4-0.4-4.6
			s-0.7-2.2-1.3-3c-0.6-0.8-1.3-1.5-2.2-1.9c-0.9-0.4-1.9-0.7-3.1-0.7c-1.5,0-3.1,0.5-4.6,1.6c-1.5,1.1-3.1,2.7-4.8,4.8v23.3
			c0,0.2,0,0.4-0.1,0.5c-0.1,0.1-0.3,0.3-0.5,0.4c-0.2,0.1-0.5,0.2-0.9,0.2c-0.4,0-0.9,0.1-1.5,0.1c-0.6,0-1.1,0-1.5-0.1
			c-0.4,0-0.7-0.1-0.9-0.2c-0.2-0.1-0.4-0.2-0.5-0.4c-0.1-0.1-0.1-0.3-0.1-0.5v-33.3c0-0.2,0-0.4,0.1-0.5c0.1-0.1,0.2-0.3,0.4-0.4
			c0.2-0.1,0.5-0.2,0.9-0.2c0.3,0,0.8-0.1,1.4-0.1c0.5,0,1,0,1.3,0.1s0.6,0.1,0.8,0.2c0.2,0.1,0.3,0.2,0.4,0.4
			c0.1,0.1,0.1,0.3,0.1,0.5v4.4c1.9-2.1,3.7-3.6,5.6-4.6c1.9-1,3.7-1.5,5.6-1.5c2.2,0,4.1,0.4,5.6,1.1s2.7,1.8,3.7,3
			c0.9,1.3,1.6,2.7,2,4.4c0.4,1.7,0.6,3.7,0.6,6.1V618.8z"/>
		<path d="M236.6,618.8c0,0.3-0.1,0.5-0.3,0.7c-0.2,0.1-0.5,0.3-0.8,0.3c-0.3,0.1-0.9,0.1-1.5,0.1c-0.6,0-1.2,0-1.5-0.1
			c-0.4-0.1-0.7-0.2-0.8-0.3c-0.2-0.1-0.3-0.4-0.3-0.7v-3.3c-1.5,1.6-3.1,2.8-4.9,3.6c-1.8,0.9-3.7,1.3-5.7,1.3
			c-1.8,0-3.3-0.2-4.8-0.7s-2.6-1.1-3.6-2s-1.8-1.9-2.3-3.2c-0.6-1.3-0.8-2.7-0.8-4.3c0-1.9,0.4-3.5,1.1-4.9
			c0.8-1.4,1.9-2.5,3.3-3.4c1.4-0.9,3.2-1.6,5.2-2.1s4.4-0.7,7-0.7h4.6v-2.6c0-1.3-0.1-2.4-0.4-3.4s-0.7-1.8-1.3-2.5
			c-0.6-0.7-1.4-1.1-2.3-1.5c-1-0.3-2.1-0.5-3.5-0.5c-1.5,0-2.9,0.2-4,0.5c-1.2,0.4-2.2,0.8-3.1,1.2c-0.9,0.4-1.7,0.8-2.3,1.2
			c-0.6,0.4-1.1,0.5-1.3,0.5c-0.2,0-0.4,0-0.5-0.1c-0.1-0.1-0.3-0.2-0.4-0.4c-0.1-0.2-0.2-0.4-0.2-0.8c0-0.3-0.1-0.6-0.1-1
			c0-0.6,0-1.1,0.1-1.5c0.1-0.4,0.3-0.7,0.6-1s0.9-0.7,1.7-1.1c0.8-0.4,1.8-0.8,2.8-1.2c1.1-0.4,2.2-0.7,3.5-0.9s2.5-0.4,3.8-0.4
			c2.4,0,4.4,0.3,6.1,0.8s3,1.3,4.1,2.4c1,1,1.8,2.3,2.3,3.9s0.7,3.4,0.7,5.4V618.8z M230.5,603.6h-5.2c-1.7,0-3.1,0.1-4.4,0.4
			c-1.2,0.3-2.3,0.7-3.1,1.3c-0.8,0.6-1.4,1.2-1.8,2c-0.4,0.8-0.6,1.7-0.6,2.7c0,1.7,0.5,3.1,1.6,4.1c1.1,1,2.6,1.5,4.6,1.5
			c1.6,0,3.1-0.4,4.5-1.2c1.4-0.8,2.8-2.1,4.3-3.7V603.6z"/>
		<path d="M253.9,618.8c0,0.2,0,0.4-0.1,0.5c-0.1,0.1-0.3,0.3-0.5,0.4c-0.2,0.1-0.5,0.2-0.9,0.2c-0.4,0-0.9,0.1-1.5,0.1
			c-0.6,0-1.1,0-1.5-0.1c-0.4,0-0.7-0.1-0.9-0.2c-0.2-0.1-0.4-0.2-0.5-0.4c-0.1-0.1-0.1-0.3-0.1-0.5v-49.4c0-0.2,0-0.4,0.1-0.5
			c0.1-0.1,0.2-0.3,0.5-0.4c0.2-0.1,0.5-0.2,0.9-0.2c0.4,0,0.9-0.1,1.5-0.1c0.6,0,1.1,0,1.5,0.1c0.4,0,0.7,0.1,0.9,0.2
			c0.2,0.1,0.4,0.2,0.5,0.4c0.1,0.1,0.1,0.3,0.1,0.5V618.8z"/>
	</g>
	<g class="st7">
		<path class="st0" d="M67.6,161.6c0.2,0,0.5,0.1,0.7,0.2c0.2,0.1,0.4,0.3,0.5,0.6s0.2,0.7,0.3,1.2c0.1,0.5,0.1,1.2,0.1,2
			c0,1,0,1.9-0.1,2.6c-0.1,0.7-0.3,1.2-0.5,1.5c-0.2,0.3-0.5,0.6-0.8,0.8l-29.1,21.4h29.1c0.2,0,0.4,0.1,0.6,0.2
			c0.2,0.1,0.3,0.3,0.5,0.6c0.1,0.3,0.2,0.7,0.3,1.2s0.1,1.1,0.1,1.9c0,0.7,0,1.3-0.1,1.8c-0.1,0.5-0.2,0.9-0.3,1.2
			c-0.1,0.3-0.3,0.5-0.5,0.6c-0.2,0.1-0.4,0.2-0.6,0.2H11.8c-0.2,0-0.5-0.1-0.6-0.2c-0.2-0.1-0.3-0.3-0.4-0.6
			c-0.1-0.3-0.2-0.7-0.3-1.2c-0.1-0.5-0.1-1.1-0.1-1.8c0-0.7,0-1.4,0.1-1.9c0.1-0.5,0.2-0.9,0.3-1.2c0.1-0.3,0.2-0.5,0.4-0.6
			c0.2-0.1,0.4-0.2,0.6-0.2h25.9l-25.9-20.6c-0.3-0.2-0.5-0.4-0.7-0.6c-0.2-0.2-0.3-0.5-0.4-0.9c-0.1-0.3-0.2-0.8-0.2-1.3
			s-0.1-1.1-0.1-1.9c0-0.8,0-1.4,0.1-1.9c0.1-0.5,0.2-0.9,0.3-1.1c0.1-0.3,0.3-0.5,0.4-0.6c0.2-0.1,0.4-0.2,0.6-0.2
			c0.4,0,0.8,0.1,1.2,0.3s0.9,0.6,1.6,1.1l23.1,19.3l27.6-20.8c0.8-0.5,1.3-0.8,1.6-0.9S67.4,161.6,67.6,161.6z"/>
		<path class="st0" d="M46.2,133.1h21.5c0.2,0,0.5,0.1,0.6,0.2s0.3,0.3,0.4,0.6c0.1,0.3,0.2,0.7,0.3,1.2s0.1,1.1,0.1,1.8
			c0,0.7,0,1.4-0.1,1.9c-0.1,0.5-0.2,0.9-0.3,1.2c-0.1,0.3-0.2,0.5-0.4,0.6c-0.2,0.1-0.4,0.2-0.6,0.2H46.2l-32.8,16.5
			c-0.7,0.3-1.2,0.5-1.6,0.6s-0.7,0-0.9-0.2c-0.2-0.2-0.3-0.6-0.4-1.2c-0.1-0.6-0.1-1.4-0.1-2.4c0-0.9,0-1.6,0.1-2.2s0.1-1,0.2-1.3
			c0.1-0.3,0.3-0.6,0.5-0.7c0.2-0.2,0.4-0.3,0.7-0.5l16.7-8.1c1.6-0.7,3.3-1.5,5-2.2s3.5-1.5,5.3-2.3v-0.1c-1.7-0.7-3.4-1.4-5.1-2.1
			c-1.7-0.7-3.4-1.5-5-2.2l-16.8-8.1c-0.3-0.1-0.6-0.2-0.8-0.4c-0.2-0.2-0.4-0.4-0.5-0.7c-0.1-0.3-0.2-0.7-0.2-1.2
			c-0.1-0.5-0.1-1.2-0.1-1.9c0-1.1,0-1.9,0.1-2.5c0.1-0.6,0.2-1,0.4-1.3c0.2-0.2,0.5-0.3,0.9-0.2c0.4,0.1,0.9,0.3,1.6,0.6
			L46.2,133.1z"/>
		<path class="st0" d="M46.1,94.7c1.2,0,2,0.1,2.4,0.4c0.4,0.3,0.7,0.7,0.7,1.2v18.8c0,0.5-0.2,0.9-0.7,1.2
			c-0.5,0.3-1.3,0.4-2.4,0.4s-1.9-0.1-2.4-0.4c-0.4-0.3-0.7-0.7-0.7-1.2V96.3c0-0.2,0-0.5,0.1-0.7c0.1-0.2,0.3-0.4,0.5-0.5
			c0.3-0.1,0.6-0.2,1-0.3C45.1,94.7,45.6,94.7,46.1,94.7z"/>
		<path class="st0" d="M39.6,48.1c4.5,0,8.5,0.4,12.2,1.1c3.7,0.7,6.9,1.9,9.5,3.5c2.7,1.6,4.7,3.8,6.2,6.4c1.5,2.6,2.2,5.9,2.2,9.8
			c0,3.7-0.7,6.7-2,9.2c-1.3,2.5-3.2,4.5-5.8,6.1c-2.5,1.5-5.7,2.6-9.4,3.3c-3.7,0.6-8,1-12.8,1c-4.4,0-8.5-0.4-12.2-1.1
			c-3.7-0.7-6.9-1.9-9.5-3.5c-2.7-1.6-4.7-3.7-6.2-6.4c-1.5-2.6-2.2-5.9-2.2-9.7c0-3.7,0.7-6.8,2-9.3s3.2-4.5,5.8-6.1
			c2.5-1.5,5.7-2.6,9.4-3.3C30.6,48.4,34.8,48.1,39.6,48.1z M40.1,56c-2.9,0-5.5,0.1-7.8,0.3s-4.3,0.5-6.1,0.9
			c-1.8,0.4-3.3,0.9-4.6,1.6c-1.3,0.6-2.3,1.4-3.1,2.3c-0.8,0.9-1.4,1.9-1.8,3.1c-0.4,1.2-0.6,2.5-0.6,3.9c0,2.5,0.6,4.6,1.8,6.2
			c1.2,1.6,2.9,2.8,4.9,3.8c2.1,0.9,4.6,1.5,7.4,1.9c2.8,0.3,5.8,0.5,9.1,0.5c4.3,0,8-0.2,11.1-0.7c3-0.5,5.5-1.2,7.4-2.1
			c1.9-1,3.3-2.2,4.2-3.7s1.3-3.4,1.3-5.5c0-1.7-0.3-3.2-0.8-4.4c-0.5-1.3-1.3-2.4-2.3-3.3c-1-0.9-2.2-1.7-3.6-2.3
			c-1.4-0.6-3-1.1-4.7-1.4c-1.7-0.4-3.6-0.6-5.6-0.7C44.4,56.1,42.3,56,40.1,56z"/>
		<path class="st0" d="M39.6,1.4c4.5,0,8.5,0.4,12.2,1.1c3.7,0.7,6.9,1.9,9.5,3.5c2.7,1.6,4.7,3.8,6.2,6.4c1.5,2.6,2.2,5.9,2.2,9.8
			c0,3.7-0.7,6.7-2,9.2c-1.3,2.5-3.2,4.5-5.8,6.1c-2.5,1.5-5.7,2.6-9.4,3.3c-3.7,0.6-8,1-12.8,1c-4.4,0-8.5-0.4-12.2-1.1
			c-3.7-0.7-6.9-1.9-9.5-3.5c-2.7-1.6-4.7-3.7-6.2-6.4c-1.5-2.6-2.2-5.9-2.2-9.7c0-3.7,0.7-6.8,2-9.3s3.2-4.5,5.8-6.1
			C20,4.1,23.1,3,26.9,2.3C30.6,1.7,34.8,1.4,39.6,1.4z M40.1,9.3c-2.9,0-5.5,0.1-7.8,0.3s-4.3,0.5-6.1,0.9
			c-1.8,0.4-3.3,0.9-4.6,1.6c-1.3,0.6-2.3,1.4-3.1,2.3c-0.8,0.9-1.4,1.9-1.8,3.1c-0.4,1.2-0.6,2.5-0.6,3.9c0,2.5,0.6,4.6,1.8,6.2
			c1.2,1.6,2.9,2.8,4.9,3.8c2.1,0.9,4.6,1.5,7.4,1.9c2.8,0.3,5.8,0.5,9.1,0.5c4.3,0,8-0.2,11.1-0.7c3-0.5,5.5-1.2,7.4-2.1
			c1.9-1,3.3-2.2,4.2-3.7s1.3-3.4,1.3-5.5c0-1.7-0.3-3.2-0.8-4.4c-0.5-1.3-1.3-2.4-2.3-3.3c-1-0.9-2.2-1.7-3.6-2.3
			c-1.4-0.6-3-1.1-4.7-1.4c-1.7-0.4-3.6-0.6-5.6-0.7C44.4,9.4,42.3,9.3,40.1,9.3z"/>
		<path class="st0" d="M52.3-45.9c1,0,1.8,0.2,2.3,0.5c0.6,0.3,0.9,0.7,0.9,1.3v6.6h12.2c0.2,0,0.4,0.1,0.6,0.2
			c0.2,0.1,0.3,0.3,0.4,0.6c0.1,0.3,0.2,0.7,0.3,1.2c0.1,0.5,0.1,1.1,0.1,1.9c0,0.7,0,1.4-0.1,1.9c-0.1,0.5-0.2,0.9-0.3,1.2
			c-0.1,0.3-0.3,0.5-0.4,0.6c-0.2,0.1-0.4,0.2-0.6,0.2H55.5V-6c0,0.4,0,0.7-0.1,0.9c-0.1,0.2-0.3,0.5-0.5,0.6
			c-0.2,0.2-0.6,0.3-1,0.4C53.4-4,52.8-4,52.1-4c-0.6,0-1.1,0-1.5,0c-0.5,0-0.9-0.1-1.2-0.2c-0.4-0.1-0.7-0.2-1.1-0.4
			c-0.3-0.1-0.7-0.3-1.1-0.5L11.8-25.8c-0.2-0.2-0.5-0.4-0.6-0.7c-0.2-0.3-0.3-0.7-0.5-1.1c-0.1-0.5-0.2-1-0.2-1.7
			c0-0.7-0.1-1.5-0.1-2.4c0-1,0-1.9,0.1-2.6c0.1-0.7,0.2-1.4,0.3-1.8c0.1-0.5,0.3-0.8,0.5-1.1c0.2-0.2,0.4-0.4,0.7-0.4h37.2v-6.6
			c0-0.5,0.3-0.9,0.8-1.2C50.4-45.7,51.2-45.9,52.3-45.9z M17.2-29.9L17.2-29.9L49.1-11v-18.8H17.2z"/>
	</g>
	<g class="st7">
		<path class="st0" d="M129.7,360.9c0,2.7-0.5,5.2-1.5,7.3c-1,2.1-2.4,3.9-4.2,5.4c-1.8,1.5-3.9,2.6-6.3,3.4c-2.4,0.7-5,1.1-7.8,1.1
			c-2,0-3.8-0.2-5.4-0.5c-1.7-0.3-3.1-0.7-4.5-1.2s-2.4-1-3.3-1.5c-0.9-0.5-1.5-0.9-1.8-1.3c-0.3-0.4-0.6-0.8-0.8-1.4
			c-0.2-0.6-0.2-1.3-0.2-2.2c0-0.7,0-1.2,0.1-1.6c0.1-0.4,0.1-0.8,0.3-1.1c0.1-0.3,0.3-0.5,0.5-0.6c0.2-0.1,0.4-0.2,0.6-0.2
			c0.4,0,1,0.3,1.8,0.8s1.7,1.1,2.9,1.7c1.2,0.6,2.6,1.2,4.3,1.7c1.7,0.5,3.7,0.8,5.9,0.8c1.7,0,3.2-0.2,4.6-0.7s2.6-1.1,3.6-1.9
			c1-0.8,1.8-1.8,2.3-3c0.5-1.2,0.8-2.6,0.8-4.1c0-1.6-0.4-3.1-1.1-4.2c-0.8-1.2-1.7-2.2-3-3.1s-2.6-1.7-4.2-2.4
			c-1.6-0.7-3.2-1.5-4.8-2.2c-1.6-0.8-3.3-1.6-4.8-2.5s-3-2-4.2-3.3c-1.2-1.3-2.2-2.7-3-4.4s-1.1-3.7-1.1-6.1c0-2.4,0.4-4.6,1.3-6.5
			c0.9-1.9,2.1-3.5,3.7-4.8c1.6-1.3,3.4-2.3,5.6-2.9c2.2-0.7,4.5-1,7-1c1.3,0,2.6,0.1,3.9,0.3c1.3,0.2,2.5,0.5,3.7,0.9
			c1.2,0.4,2.2,0.8,3.1,1.3s1.5,0.8,1.8,1.1c0.3,0.3,0.5,0.5,0.6,0.7c0.1,0.2,0.2,0.4,0.2,0.6c0.1,0.3,0.1,0.6,0.1,0.9
			c0,0.4,0,0.8,0,1.4c0,0.5,0,1-0.1,1.4c0,0.4-0.1,0.8-0.2,1.1s-0.2,0.5-0.4,0.6s-0.4,0.2-0.6,0.2c-0.3,0-0.8-0.2-1.6-0.6
			c-0.7-0.4-1.6-0.9-2.6-1.4c-1-0.5-2.2-1-3.6-1.4s-3-0.7-4.7-0.7c-1.6,0-3,0.2-4.2,0.7c-1.2,0.4-2.2,1-3,1.7
			c-0.8,0.7-1.4,1.6-1.8,2.6c-0.4,1-0.6,2-0.6,3.1c0,1.6,0.4,3,1.1,4.2c0.7,1.2,1.7,2.2,3,3.1c1.2,0.9,2.7,1.7,4.3,2.5
			c1.6,0.8,3.2,1.5,4.9,2.3c1.6,0.8,3.3,1.6,4.9,2.5s3,2,4.3,3.2c1.2,1.2,2.2,2.7,3,4.4C129.3,356.6,129.7,358.6,129.7,360.9z"/>
	</g>
	<g class="st7">
		<path class="st0" d="M578.3,349.4c0,1.2-0.4,2-1.1,2.4c-0.7,0.4-1.8,0.7-3.2,0.7h-51.8c-1.5,0-2.6-0.2-3.3-0.7
			c-0.7-0.5-1.1-1.3-1.1-2.4s0.4-1.9,1.1-2.4c0.7-0.4,1.9-0.7,3.3-0.7h51.8c0.7,0,1.3,0,1.8,0.1c0.5,0.1,1,0.3,1.4,0.5
			c0.4,0.3,0.7,0.6,0.9,1C578.2,348.4,578.3,348.9,578.3,349.4z"/>
	</g>
</g>
</svg>
