<?xml version="1.0" encoding="utf-8"?>
<!-- Generator: Adobe Illustrator 27.8.0, SVG Export Plug-In . SVG Version: 6.00 Build 0)  -->
<svg version="1.1"
	 id="svg8" xmlns:svg="http://www.w3.org/2000/svg" xmlns:rdf="http://www.w3.org/1999/02/22-rdf-syntax-ns#" xmlns:sodipodi="http://sodipodi.sourceforge.net/DTD/sodipodi-0.dtd" xmlns:dc="http://purl.org/dc/elements/1.1/" xmlns:inkscape="http://www.inkscape.org/namespaces/inkscape" xmlns:cc="http://creativecommons.org/ns#" inkscape:export-xdpi="93" inkscape:export-ydpi="93" inkscape:version="0.92.4 (5da689c313, 2019-01-14)"
	 xmlns="http://www.w3.org/2000/svg" xmlns:xlink="http://www.w3.org/1999/xlink" x="0px" y="0px" viewBox="0 0 1921 961"
	 style="enable-background:new 0 0 1921 961;" xml:space="preserve">
<style type="text/css">
	.st0{fill:#105089;}
	.st1{fill:#FFFFFF;}
	.st2{fill:#1A1A1A;}
	.st3{opacity:0.99;fill:#808080;enable-background:new    ;}
	.st4{fill:#999999;}
	.st5{fill:#B3B3B3;}
	.st6{fill:#CCCCCC;}
	.st7{enable-background:new    ;}
</style>
<sodipodi:namedview  bordercolor="#666666" borderopacity="1.0" id="base" inkscape:current-layer="layer1" inkscape:cx="884.65117" inkscape:cy="1212.4727" inkscape:document-units="mm" inkscape:pageopacity="0" inkscape:pageshadow="2" inkscape:window-height="1017" inkscape:window-maximized="1" inkscape:window-width="1920" inkscape:window-x="-8" inkscape:window-y="-8" inkscape:zoom="0.15971212" pagecolor="#323232" showgrid="false">
	</sodipodi:namedview>
<g id="layer1" transform="translate(0,253)" inkscape:groupmode="layer" inkscape:label="Ebene 1">
	<rect id="rect10" x="0" y="-253" class="st0" width="1922" height="786.3"/>
	<rect id="rect821" x="685.8" y="383.5" class="st1" width="550.4" height="141"/>
	<path id="rect825" class="st2" d="M987.9,391.9l82.4,0c14.3,0,25.9,11.6,25.9,25.9l0,72c0,14.3-11.6,25.9-25.9,25.9l-82.4,0
		c-14.3,0-25.9-11.6-25.9-25.9l0-72C962,403.5,973.6,391.9,987.9,391.9z"/>
	<path id="rect874" class="st2" d="M1121.7,391.9l89.1,0c12.5,0,22.6,10.1,22.6,22.6l0,78.7c0,12.5-10.1,22.6-22.6,22.6l-89.1,0
		c-12.5,0-22.6-10.1-22.6-22.6l0-78.7C1099.1,402,1109.2,391.9,1121.7,391.9z"/>
	<rect id="rect947" x="1021.5" y="454.6" class="st3" width="14.9" height="253.4"/>
	<rect id="rect949" x="1159.4" y="454.6" class="st3" width="14.9" height="253.4"/>
	<path id="rect95" class="st2" d="M714.5,391.9l82.4,0c14.3,0,25.9,11.6,25.9,25.9l0,72c0,14.3-11.6,25.9-25.9,25.9l-82.4,0
		c-14.3,0-25.9-11.6-25.9-25.9l0-72C688.6,403.5,700.2,391.9,714.5,391.9z"/>
	<path id="rect97" class="st2" d="M848.3,391.9l89.1,0c12.5,0,22.6,10.1,22.6,22.6l0,78.7c0,12.5-10.1,22.6-22.6,22.6l-89.1,0
		c-12.5,0-22.6-10.1-22.6-22.6l0-78.7C825.7,402,835.8,391.9,848.3,391.9z"/>
	<rect id="rect99" x="748.1" y="454.6" class="st3" width="14.9" height="253.4"/>
	<rect id="rect101" x="886" y="454.6" class="st3" width="14.9" height="253.4"/>
	<path id="path31-1" inkscape:connector-curvature="0" class="st1" d="M766.2,130.4c5.6-0.1,6.2-0.2,7.3-0.9c0.6-0.4,1.4-1.4,1.8-2
		c0.6-1.2,0.7-2,0.7-15.3l0.1-14.1l12,0.1l12,0.1v17.5c0,19.3-0.1,21.1-1.9,26.2c-2.3,6.6-5.6,9.7-12.5,11.6
		c-1.8,0.5-3.9,0.6-10.9,0.5c-4.7,0-10-0.2-11.6-0.4l-2.9-0.3l-0.1-11.4l-0.1-11.4L766.2,130.4L766.2,130.4z M880,169.6
		c102,0,127.1,0.2,122.9,0.7l-0.7,0.1l0.7,0.3c0.5,0.3,0.5,0.3-0.5,0.4c-0.8,0.1-0.4,0.2,1,0.3l2.1,0.2l-2.1,0.1
		c-1.2,0.1-1.9,0.2-1.5,0.3c0.5,0.1,0.6,0.6,0.6,3.3c0,3.1,0,3.1,0.9,3.3c0.6,0.1,0.5,0.2-0.5,0.2c-0.8,0-1.4,0.2-1.4,0.4
		c0,0.2-40.5,0.4-120.7,0.4H760.1v-5v-5L880,169.6z M788.1,61.8h12.1l0,11.4l0,11.4h-12.1H776l0-11.4l0-11.4H788.1z M812.4,103.8
		c0.9-6.4,2.4-12.1,4.6-17.2c0.8-1.8,1.6-3.4,1.7-3.5c0.1-0.1,0.7-1.1,1.3-2.2c1.3-2.3,4.1-6.4,4.8-6.8c0.2-0.2,0.4-0.5,0.4-0.6
		c0-0.5,3-3.6,5.4-5.6c2.5-2.1,4.5-3.2,9-5.2c5.2-2.2,8.3-2.8,14.5-2.5c4.5,0.2,5.6,0.4,8.5,1.3c1.8,0.6,4,1.5,4.8,1.9
		c0.9,0.4,1.7,0.8,1.9,0.8c0.2,0,1.5,0.8,3,1.8c5.8,3.9,13.6,14.2,16.7,22c4.8,12.1,5.4,24.2,1.7,35.4c-1.5,4.7-2.6,7.4-4.4,10.7
		c-2,3.8-2.2,4.1-7.2,9.7c-5.7,6.5-9.8,9.2-17.2,11.6c-3.8,1.2-11.2,1.6-15.2,0.9c-5.2-0.9-12.1-4.3-16.4-8
		c-2.2-1.9-5.2-4.9-5.2-5.2c0-0.1-0.7-1.1-1.7-2.1c-4.3-5.1-8.8-15.1-10.4-23.4C812.5,114.3,812.1,106.1,812.4,103.8L812.4,103.8z
		 M835.5,115.6c1.2,5.3,3.5,9.8,7.1,13.8c3.6,4,9.4,5.5,14.4,3.7c5.5-2,10.9-9.4,12.7-17.3c1-4.6,1-11.2-0.2-15.6
		c-1.6-6.3-4.4-11.2-8.4-14.5c-1.8-1.5-2.6-1.9-4.6-2.4c-4.1-0.9-8.3-0.4-11.2,1.3c-2.6,1.5-5.8,5.8-7.7,10
		C834.6,101.1,833.9,108.6,835.5,115.6z M903.2,62c0.2-0.1,5.7-0.1,12.1-0.1L927,62l0,12.5c0,11.8,0.1,12.6,0.7,14.7
		c1.7,5.3,7.2,8.2,12.1,6.4c2.5-1,4.2-2.6,5.4-5.4l1.1-2.4l0.1-13l0.1-13h12.1h12.1l-0.1,14.6c-0.1,13.6-0.2,14.8-0.8,17.6
		c-1.3,5.6-3.5,10.6-6.3,14.4c-0.7,1-1.3,1.9-1.3,2.1c0,0.5-3.1,3.6-5.8,6c-2.3,2-5.6,4-7.2,4.4c-0.5,0.1-2.2,0.7-3.7,1.2
		c-2.6,0.9-3.2,1-8.6,1c-5.5,0-6.1-0.1-9.1-1.1c-4.8-1.6-6.4-2.3-9.6-4.7c-3.6-2.7-6.7-6.2-9.2-10.6c-3.6-6.1-5.1-10.7-5.8-17.7
		C902.6,84.5,902.7,62.2,903.2,62L903.2,62z M936.8,130.8h19.7v11.7v11.7h-19.7h-19.7v-11.7v-11.7H936.8z M970.5,43.9
		c0.2,0,0.3-0.6,0.3-1.4c0-1.4,0-1.4,1.5-1.7c0.8-0.1,34.2-0.2,74.2-0.2h72.7l-0.1,5l-0.1,5h-73.9c-40.7,0-74.1-0.1-74.4-0.2
		c-0.4-0.2-0.5-0.8-0.5-3.4C970.2,45.2,970.3,43.9,970.5,43.9L970.5,43.9z M1003.8,100.3h25.1v11.6v11.6h-25.1h-25.1v-11.6v-11.6
		L1003.8,100.3z M1048.7,61.8h12.1v11.4v11.4h-12.1h-12.1V73.2V61.8L1048.7,61.8z M1048.7,96.5h12.1V126v29.5h-12.1h-12.1V126V96.5
		H1048.7z M1096.8,61.9h25.2v11.4v11.4h-25.2h-25.2V73.2V61.9L1096.8,61.9z M1075.7,98.2c0.2-0.1,5.5-0.2,11.9-0.2l11.6,0l0.1,13.5
		c0.1,18.9-0.5,17.9,11.8,18.1l7.7,0.1v11.8v11.8l-2.9,0.4c-4.3,0.6-18.1,0.5-21.9-0.2c-6.4-1.2-10.6-3.5-13.4-7.4
		c-2.9-4-4.3-8.1-4.9-14.6C1075.4,127.7,1075.3,98.5,1075.7,98.2L1075.7,98.2z M1136.2,50.7c0.6-2.5,1.8-4.8,3.1-6.2
		c5.5-5.6,12-6.2,17.4-1.6c2.5,2.2,3.2,3,4.2,5.6c0.8,2,0.9,2.6,0.9,6.2c0,3.5-0.1,4.2-0.9,6.3c-1.8,4.6-6.4,8.2-11,8.5
		c-4.2,0.4-7.4-1.1-10.8-4.8C1136.3,61.4,1135,55.6,1136.2,50.7L1136.2,50.7z M1138.6,60.4c1.1,3,4.5,6,8,7c3.5,1,6.2,0.2,10.2-3.2
		c1-0.8,1.7-1.9,2.4-3.7c1-2.3,1.1-2.9,1.1-5.7c0-2.9-0.1-3.4-1.1-5.8c-0.9-2.1-1.5-2.9-3.1-4.1c-1.1-0.9-2.7-1.9-3.6-2.2
		c-5.5-2.2-12.1,1.3-14.3,7.5C1137.3,52.5,1137.5,57.5,1138.6,60.4L1138.6,60.4z M1147.5,45.8c2.5,0,4.8,0.2,5.3,0.4
		c2,0.9,2.9,5.2,1.5,7.2c-0.4,0.5-1.2,1.2-1.8,1.4l-1.1,0.5l1.1,1.4c0.6,0.8,1.6,2.3,2.1,3.5c0.6,1.1,1.1,2.2,1.3,2.3
		c0.7,0.5,0.2,0.9-1.1,0.9l-1.4,0l-2-3.6c-2.1-3.8-2.6-4.2-4.9-4.2l-1.4,0l0,3.9l0,3.9l-1-0.1l-1-0.1l-0.1-8.7l-0.1-8.7L1147.5,45.8
		z M1148.1,53.3c2.4,0,3-0.1,3.7-0.8c1.8-1.6,0.8-4.2-1.8-4.6c-1.1-0.2-4.1-0.1-4.7,0.1c0,0-0.1,1.2-0.1,2.6l0,2.6L1148.1,53.3z"/>
	<path id="rect84" inkscape:connector-curvature="0" class="st4" d="M663.7-237.6L663.7-237.6c-31.1,0.7-59.6,17.3-75.2,43.7
		c-15.9,27-15.9,60.3,0,87.4c15.6,26.4,44.1,42.9,75.2,43.6v0.1h2h590.6h1.4v0c31.3-0.5,60.1-17.1,75.7-43.6
		c15.9-27,15.9-60.3,0-87.4c-15.7-26.6-44.4-43.1-75.7-43.6v-0.1h-1.4H665.7L663.7-237.6z"/>
	<circle id="path104" class="st1" cx="349.5" cy="183.8" r="323.2"/>
	<circle id="path91" class="st5" cx="349.5" cy="183.8" r="314.5"/>
	<circle id="circle107" class="st1" cx="1572.5" cy="183.8" r="323.2"/>
	<circle id="circle102" class="st5" cx="1572.5" cy="183.8" r="314.5"/>
	<circle id="path110" cx="349.5" cy="183.8" r="288.3"/>
	<circle id="circle112" cx="1572.5" cy="183.8" r="288.3"/>
	<circle id="path122" class="st6" cx="69.9" cy="-183.1" r="61.2"/>
	<circle id="circle133" class="st6" cx="1852.1" cy="-183.1" r="61.2"/>
	<circle id="circle135" class="st6" cx="1852.1" cy="463.4" r="61.2"/>
	<circle id="circle137" class="st6" cx="69.9" cy="463.4" r="61.2"/>
	<circle id="path139" class="st1" cx="69.9" cy="-183.1" r="52.4"/>
	<circle id="circle141" class="st1" cx="1852.1" cy="-183.1" r="52.4"/>
	<circle id="circle143" class="st1" cx="1852.1" cy="463.4" r="52.4"/>
	<circle id="circle145" class="st1" cx="69.9" cy="463.4" r="52.4"/>
	<g class="st7">
		<path class="st1" d="M826.6,17.3c0,0.3-0.1,0.5-0.2,0.8c-0.1,0.2-0.4,0.4-0.8,0.5c-0.4,0.1-0.8,0.2-1.4,0.3
			c-0.6,0.1-1.3,0.1-2.2,0.1c-0.9,0-1.7,0-2.3-0.1c-0.6-0.1-1-0.2-1.4-0.3c-0.4-0.1-0.6-0.3-0.8-0.5c-0.1-0.2-0.2-0.5-0.2-0.8v-31.1
			h-31.9v31.1c0,0.3-0.1,0.5-0.2,0.8c-0.1,0.2-0.4,0.4-0.8,0.5c-0.4,0.1-0.8,0.2-1.4,0.3c-0.6,0.1-1.3,0.1-2.2,0.1
			c-0.9,0-1.6,0-2.2-0.1c-0.6-0.1-1.1-0.2-1.5-0.3c-0.4-0.1-0.6-0.3-0.8-0.5c-0.1-0.2-0.2-0.5-0.2-0.8V-50c0-0.3,0.1-0.5,0.2-0.8
			c0.1-0.2,0.4-0.4,0.8-0.5c0.4-0.1,0.8-0.2,1.5-0.3c0.6-0.1,1.4-0.1,2.2-0.1c0.9,0,1.7,0,2.2,0.1c0.6,0.1,1.1,0.2,1.4,0.3
			c0.4,0.1,0.6,0.3,0.8,0.5c0.1,0.2,0.2,0.5,0.2,0.8v28.1h31.9V-50c0-0.3,0.1-0.5,0.2-0.8c0.1-0.2,0.4-0.4,0.8-0.5
			c0.4-0.1,0.8-0.2,1.4-0.3c0.6-0.1,1.3-0.1,2.3-0.1c0.9,0,1.6,0,2.2,0.1c0.6,0.1,1.1,0.2,1.4,0.3c0.4,0.1,0.6,0.3,0.8,0.5
			c0.1,0.2,0.2,0.5,0.2,0.8V17.3z"/>
		<path class="st1" d="M892.1,8.8c0,0.6,0,1.1-0.1,1.5c0,0.4-0.1,0.8-0.2,1.1s-0.2,0.6-0.4,0.9c-0.1,0.3-0.4,0.6-0.8,0.9
			c-0.4,0.4-1.1,0.9-2.3,1.7c-1.2,0.7-2.6,1.5-4.3,2.2c-1.7,0.7-3.7,1.3-5.9,1.8c-2.2,0.5-4.7,0.7-7.3,0.7c-4.6,0-8.7-0.8-12.3-2.3
			c-3.7-1.5-6.8-3.8-9.4-6.7c-2.6-3-4.6-6.6-6-11c-1.4-4.4-2.1-9.4-2.1-15c0-5.8,0.7-11,2.2-15.5s3.6-8.4,6.3-11.6
			c2.7-3.2,6-5.6,9.7-7.2c3.8-1.7,8-2.5,12.5-2.5c2,0,4,0.2,5.9,0.6c1.9,0.4,3.7,0.9,5.3,1.4c1.6,0.6,3.1,1.2,4.3,2
			c1.3,0.8,2.1,1.4,2.6,1.9c0.5,0.5,0.8,0.9,0.9,1.1c0.1,0.3,0.3,0.6,0.4,0.9c0.1,0.3,0.2,0.8,0.2,1.2c0.1,0.5,0.1,1,0.1,1.7
			c0,0.7,0,1.3-0.1,1.8c-0.1,0.5-0.2,0.9-0.3,1.3c-0.1,0.3-0.3,0.6-0.5,0.8c-0.2,0.2-0.4,0.2-0.7,0.2c-0.5,0-1.2-0.4-2.1-1.1
			c-0.9-0.7-2.1-1.5-3.5-2.3c-1.4-0.8-3.2-1.6-5.2-2.3c-2.1-0.7-4.5-1.1-7.4-1.1c-3.1,0-6,0.6-8.5,1.9c-2.6,1.2-4.7,3.1-6.6,5.5
			c-1.8,2.4-3.2,5.4-4.2,8.9c-1,3.5-1.5,7.5-1.5,11.9c0,4.4,0.5,8.4,1.4,11.8c1,3.4,2.3,6.3,4.1,8.6s4,4,6.6,5.2
			c2.6,1.2,5.6,1.8,8.9,1.8c2.8,0,5.2-0.3,7.3-1c2.1-0.7,3.9-1.5,5.3-2.3s2.7-1.6,3.6-2.3c0.9-0.7,1.7-1,2.2-1
			c0.3,0,0.5,0.1,0.7,0.2c0.2,0.1,0.3,0.3,0.4,0.6c0.1,0.3,0.2,0.7,0.2,1.3C892,7.3,892.1,8,892.1,8.8z"/>
		<path class="st1" d="M925.3-8.6c0,1.4-0.2,2.4-0.5,2.9c-0.3,0.5-0.8,0.8-1.4,0.8h-22.6c-0.7,0-1.1-0.3-1.5-0.8s-0.5-1.5-0.5-2.9
			c0-1.4,0.2-2.3,0.5-2.9c0.3-0.5,0.8-0.8,1.5-0.8h22.6c0.3,0,0.5,0.1,0.8,0.2c0.2,0.1,0.4,0.3,0.6,0.6c0.2,0.3,0.3,0.7,0.4,1.2
			C925.3-9.9,925.3-9.3,925.3-8.6z"/>
		<path class="st1" d="M976-0.9c0,3.3-0.6,6.2-1.8,8.8c-1.2,2.6-2.9,4.7-5,6.5c-2.1,1.8-4.7,3.1-7.6,4s-6,1.4-9.4,1.4
			c-2.3,0-4.5-0.2-6.5-0.6c-2-0.4-3.8-0.9-5.4-1.5c-1.6-0.6-2.9-1.2-4-1.8c-1.1-0.6-1.8-1.1-2.2-1.6c-0.4-0.4-0.7-1-0.9-1.7
			c-0.2-0.7-0.3-1.6-0.3-2.7c0-0.8,0-1.5,0.1-2c0.1-0.5,0.2-0.9,0.3-1.3c0.1-0.3,0.3-0.6,0.5-0.7c0.2-0.1,0.5-0.2,0.8-0.2
			c0.5,0,1.2,0.3,2.1,0.9c0.9,0.6,2.1,1.3,3.5,2c1.4,0.7,3.2,1.4,5.2,2c2,0.6,4.4,0.9,7.1,0.9c2,0,3.9-0.3,5.6-0.8
			c1.7-0.5,3.1-1.3,4.3-2.3c1.2-1,2.1-2.2,2.8-3.7c0.7-1.4,1-3.1,1-4.9c0-2-0.5-3.7-1.4-5.1c-0.9-1.4-2.1-2.6-3.6-3.7
			c-1.5-1.1-3.2-2-5.1-2.9c-1.9-0.9-3.8-1.8-5.8-2.7s-3.9-1.9-5.8-3.1s-3.6-2.4-5-4c-1.5-1.5-2.7-3.3-3.6-5.3
			c-0.9-2-1.4-4.5-1.4-7.3c0-2.9,0.5-5.5,1.6-7.8c1.1-2.3,2.5-4.2,4.4-5.8c1.9-1.6,4.2-2.7,6.8-3.5c2.6-0.8,5.4-1.2,8.5-1.2
			c1.6,0,3.1,0.1,4.7,0.4c1.6,0.3,3.1,0.6,4.4,1.1c1.4,0.5,2.6,1,3.7,1.5c1.1,0.6,1.8,1,2.1,1.4c0.3,0.3,0.6,0.6,0.7,0.8
			c0.1,0.2,0.2,0.5,0.3,0.8c0.1,0.3,0.1,0.7,0.2,1.1s0.1,1,0.1,1.7c0,0.6,0,1.2-0.1,1.7c-0.1,0.5-0.1,0.9-0.2,1.3
			c-0.1,0.3-0.3,0.6-0.5,0.8c-0.2,0.2-0.4,0.2-0.7,0.2c-0.4,0-1-0.3-1.9-0.8c-0.8-0.5-1.9-1.1-3.1-1.7c-1.2-0.6-2.7-1.2-4.4-1.7
			c-1.7-0.5-3.6-0.8-5.7-0.8c-2,0-3.6,0.3-5.1,0.8s-2.6,1.2-3.6,2.1c-0.9,0.9-1.6,1.9-2.1,3.1c-0.5,1.2-0.7,2.5-0.7,3.8
			c0,2,0.5,3.6,1.4,5c0.9,1.4,2.1,2.7,3.6,3.7c1.5,1.1,3.2,2.1,5.1,3c1.9,0.9,3.9,1.8,5.9,2.7s3.9,1.9,5.9,3
			c1.9,1.1,3.6,2.4,5.1,3.9c1.5,1.5,2.7,3.3,3.6,5.3C975.6-6.1,976-3.7,976-0.9z"/>
		<path class="st1" d="M1036.1,17.3c0,0.3-0.1,0.5-0.2,0.8s-0.3,0.4-0.7,0.5c-0.4,0.1-0.9,0.3-1.5,0.3c-0.7,0.1-1.5,0.1-2.6,0.1
			c-0.9,0-1.7,0-2.3-0.1c-0.6-0.1-1.1-0.2-1.4-0.4c-0.4-0.2-0.6-0.4-0.8-0.7c-0.2-0.3-0.4-0.7-0.5-1.1l-6.4-16.5
			c-0.8-1.9-1.5-3.6-2.4-5.2s-1.8-2.9-2.9-4.1c-1.1-1.1-2.4-2-4-2.7c-1.5-0.6-3.3-0.9-5.5-0.9h-6.2v29.9c0,0.3-0.1,0.5-0.2,0.8
			s-0.4,0.4-0.8,0.5c-0.3,0.1-0.8,0.2-1.4,0.3c-0.6,0.1-1.3,0.1-2.2,0.1c-0.9,0-1.7,0-2.2-0.1c-0.6-0.1-1.1-0.2-1.4-0.3
			c-0.4-0.1-0.6-0.3-0.8-0.5c-0.1-0.2-0.2-0.5-0.2-0.8v-64.9c0-1.4,0.4-2.4,1.1-3c0.7-0.6,1.5-0.8,2.4-0.8h14.9c1.8,0,3.2,0,4.4,0.1
			c1.2,0.1,2.2,0.2,3.2,0.3c2.7,0.5,5.1,1.2,7.2,2.2c2.1,1,3.8,2.3,5.2,3.8c1.4,1.6,2.5,3.3,3.2,5.3c0.7,2,1.1,4.2,1.1,6.6
			c0,2.3-0.3,4.5-0.9,6.3c-0.6,1.9-1.5,3.5-2.7,4.9c-1.2,1.4-2.6,2.7-4.3,3.7c-1.7,1-3.5,1.9-5.6,2.7c1.2,0.5,2.2,1.1,3.1,1.9
			c0.9,0.8,1.8,1.7,2.6,2.8c0.8,1.1,1.6,2.3,2.3,3.7c0.7,1.4,1.4,3,2.2,4.8l6.3,15.4c0.5,1.3,0.8,2.2,1,2.7
			C1036,16.6,1036.1,17,1036.1,17.3z M1022.1-31.9c0-2.7-0.6-5.1-1.8-7c-1.2-1.9-3.3-3.3-6.2-4.1c-0.9-0.3-1.9-0.4-3.1-0.5
			s-2.6-0.2-4.5-0.2h-7.9v23.6h9.1c2.5,0,4.6-0.3,6.4-0.9s3.3-1.4,4.5-2.5c1.2-1.1,2.1-2.3,2.6-3.8
			C1021.8-28.7,1022.1-30.2,1022.1-31.9z"/>
		<path class="st1" d="M1092.7-16.5c0,5.4-0.4,10.3-1.3,14.7c-0.8,4.4-2.3,8.3-4.2,11.5s-4.5,5.7-7.7,7.4c-3.2,1.8-7.1,2.6-11.8,2.6
			c-4.4,0-8.1-0.8-11.1-2.4c-3-1.6-5.4-3.9-7.3-6.9c-1.8-3.1-3.2-6.8-3.9-11.3c-0.8-4.5-1.2-9.6-1.2-15.4c0-5.3,0.4-10.2,1.3-14.7
			c0.9-4.5,2.3-8.3,4.2-11.5s4.5-5.7,7.7-7.4s7.1-2.6,11.7-2.6c4.4,0,8.2,0.8,11.2,2.4c3,1.6,5.4,3.9,7.3,6.9
			c1.8,3.1,3.2,6.8,3.9,11.3C1092.3-27.4,1092.7-22.3,1092.7-16.5z M1083.1-15.8c0-3.5-0.1-6.6-0.4-9.4c-0.3-2.8-0.6-5.2-1.1-7.4
			s-1.1-4-1.9-5.5c-0.8-1.5-1.7-2.8-2.8-3.8c-1.1-1-2.3-1.7-3.7-2.2c-1.4-0.5-3-0.7-4.7-0.7c-3.1,0-5.6,0.7-7.5,2.2
			c-1.9,1.4-3.4,3.4-4.5,6c-1.1,2.5-1.9,5.5-2.2,8.9s-0.6,7-0.6,10.9c0,5.2,0.3,9.7,0.8,13.4s1.4,6.7,2.6,9s2.7,4,4.5,5
			c1.8,1,4,1.6,6.6,1.6c2,0,3.8-0.3,5.3-1c1.5-0.6,2.9-1.6,4-2.8c1.1-1.2,2-2.7,2.7-4.4s1.3-3.6,1.7-5.6c0.4-2.1,0.7-4.3,0.9-6.7
			C1083.1-10.7,1083.1-13.2,1083.1-15.8z"/>
		<path class="st1" d="M1149.6-1.2c0,1.2-0.2,2.1-0.5,2.8c-0.4,0.7-0.9,1-1.5,1h-7.9v14.7c0,0.3-0.1,0.5-0.2,0.7
			c-0.1,0.2-0.4,0.4-0.8,0.5c-0.4,0.1-0.9,0.3-1.5,0.3c-0.6,0.1-1.4,0.1-2.3,0.1c-0.9,0-1.6,0-2.2-0.1c-0.6-0.1-1.1-0.2-1.4-0.3
			c-0.4-0.1-0.6-0.3-0.7-0.5c-0.1-0.2-0.2-0.4-0.2-0.7V2.6h-28.7c-0.4,0-0.8-0.1-1.1-0.2s-0.5-0.3-0.8-0.6c-0.2-0.3-0.4-0.7-0.5-1.2
			s-0.1-1.2-0.1-2.1c0-0.7,0-1.3,0.1-1.8c0-0.5,0.1-1,0.2-1.5c0.1-0.5,0.2-0.9,0.4-1.3c0.2-0.4,0.4-0.9,0.6-1.3l25-42.6
			c0.2-0.3,0.5-0.5,0.8-0.8c0.3-0.2,0.8-0.4,1.4-0.5c0.6-0.1,1.2-0.2,2-0.3c0.8-0.1,1.8-0.1,2.9-0.1c1.2,0,2.3,0,3.2,0.1
			c0.9,0.1,1.6,0.2,2.2,0.4s1,0.3,1.3,0.6c0.3,0.2,0.4,0.5,0.4,0.8v44.7h7.9c0.6,0,1.1,0.3,1.5,0.9
			C1149.4-3.5,1149.6-2.5,1149.6-1.2z M1130.3-43.5h-0.1l-22.5,38.5h22.6V-43.5z"/>
	</g>
	<g class="st7">
		<path class="st1" d="M790,340.2c0.4,0.1,0.7,0.3,1,0.6c0.3,0.3,0.5,0.6,0.6,1.1c0.1,0.5,0.2,1,0.3,1.7c0.1,0.7,0.1,1.6,0.1,2.6
			c0,0.8,0,1.5,0,2.1c0,0.6-0.1,1.1-0.1,1.5s-0.2,0.8-0.2,1.1c-0.1,0.3-0.2,0.6-0.4,0.8c-0.1,0.2-0.3,0.4-0.5,0.5
			c-0.2,0.1-0.4,0.2-0.7,0.4l-65.1,22.9c-0.8,0.3-1.4,0.4-1.9,0.5c-0.5,0-0.9-0.1-1.1-0.5c-0.3-0.3-0.4-0.8-0.5-1.6
			c-0.1-0.7-0.1-1.7-0.1-2.9c0-1,0-1.8,0.1-2.4c0.1-0.6,0.2-1.1,0.3-1.4s0.3-0.6,0.6-0.7c0.2-0.2,0.5-0.3,0.9-0.5l59-20.1v-0.1
			l-58.9-19.6c-0.4-0.1-0.7-0.2-1-0.4c-0.3-0.1-0.5-0.4-0.6-0.8c-0.1-0.4-0.2-0.9-0.3-1.5c-0.1-0.7-0.1-1.5-0.1-2.6
			c0-1.1,0-2,0.1-2.7c0.1-0.7,0.3-1.1,0.5-1.3c0.3-0.2,0.6-0.3,1.1-0.3c0.5,0.1,1.1,0.2,1.9,0.5L790,340.2z"/>
		<path class="st1" d="M782.9,277.1c0.6,0,1.1,0,1.6,0.1c0.5,0,0.8,0.1,1.1,0.2c0.3,0.1,0.6,0.2,0.8,0.3c0.2,0.1,0.6,0.4,1,0.9
			c0.5,0.5,1,1.2,1.7,2.3c0.7,1.1,1.3,2.3,1.8,3.7c0.5,1.4,0.9,2.8,1.3,4.4c0.3,1.6,0.5,3.2,0.5,4.9c0,3.5-0.6,6.6-1.7,9.3
			s-2.8,5-5.1,6.8c-2.2,1.8-4.9,3.2-8.2,4.2c-3.2,1-7,1.4-11.2,1.4c-4.8,0-8.9-0.6-12.4-1.8c-3.4-1.2-6.3-2.8-8.5-4.8
			c-2.2-2-3.8-4.4-4.9-7.2c-1.1-2.8-1.6-5.8-1.6-9c0-1.6,0.1-3.1,0.4-4.5s0.7-2.8,1.1-4c0.5-1.2,1-2.3,1.6-3.3s1.1-1.7,1.6-2.1
			s0.8-0.7,1-0.9c0.3-0.2,0.6-0.3,0.9-0.4c0.3-0.1,0.7-0.2,1.2-0.2s1-0.1,1.6-0.1c1.4,0,2.4,0.2,3,0.5c0.6,0.3,0.8,0.7,0.8,1.2
			c0,0.5-0.3,1.2-0.9,1.9s-1.3,1.6-2,2.7c-0.7,1.1-1.4,2.4-2,3.9c-0.6,1.5-0.9,3.4-0.9,5.4c0,4.3,1.7,7.6,5,9.9s8.1,3.4,14.4,3.4
			c3.1,0,5.9-0.3,8.3-0.9c2.4-0.6,4.3-1.5,5.9-2.6c1.6-1.2,2.8-2.6,3.5-4.3c0.8-1.7,1.2-3.6,1.2-5.8c0-2.1-0.3-3.9-1-5.4
			c-0.6-1.6-1.4-2.9-2.1-4c-0.8-1.1-1.5-2.1-2.1-2.9s-0.9-1.4-0.9-1.8c0-0.3,0.1-0.5,0.2-0.7c0.1-0.2,0.4-0.3,0.7-0.5
			c0.3-0.1,0.8-0.2,1.3-0.3C781.5,277.2,782.1,277.1,782.9,277.1z"/>
		<path class="st1" d="M782.9,230.2c0.6,0,1.1,0,1.6,0.1c0.5,0,0.8,0.1,1.1,0.2c0.3,0.1,0.6,0.2,0.8,0.3c0.2,0.1,0.6,0.4,1,0.9
			c0.5,0.5,1,1.2,1.7,2.3c0.7,1.1,1.3,2.3,1.8,3.7c0.5,1.4,0.9,2.8,1.3,4.4c0.3,1.6,0.5,3.2,0.5,4.9c0,3.5-0.6,6.6-1.7,9.3
			c-1.2,2.7-2.8,5-5.1,6.8c-2.2,1.8-4.9,3.2-8.2,4.2c-3.2,1-7,1.4-11.2,1.4c-4.8,0-8.9-0.6-12.4-1.8c-3.4-1.2-6.3-2.8-8.5-4.8
			c-2.2-2-3.8-4.4-4.9-7.2c-1.1-2.8-1.6-5.8-1.6-9c0-1.6,0.1-3.1,0.4-4.5s0.7-2.8,1.1-4c0.5-1.2,1-2.3,1.6-3.3s1.1-1.7,1.6-2.1
			s0.8-0.7,1-0.9c0.3-0.2,0.6-0.3,0.9-0.4c0.3-0.1,0.7-0.2,1.2-0.2s1-0.1,1.6-0.1c1.4,0,2.4,0.2,3,0.5c0.6,0.3,0.8,0.7,0.8,1.2
			c0,0.5-0.3,1.2-0.9,1.9s-1.3,1.6-2,2.7c-0.7,1.1-1.4,2.4-2,3.9c-0.6,1.5-0.9,3.4-0.9,5.4c0,4.3,1.7,7.6,5,9.9
			c3.3,2.3,8.1,3.4,14.4,3.4c3.1,0,5.9-0.3,8.3-0.9c2.4-0.6,4.3-1.5,5.9-2.6c1.6-1.2,2.8-2.6,3.5-4.3c0.8-1.7,1.2-3.6,1.2-5.8
			c0-2.1-0.3-3.9-1-5.4c-0.6-1.6-1.4-2.9-2.1-4c-0.8-1.1-1.5-2.1-2.1-2.9s-0.9-1.4-0.9-1.8c0-0.3,0.1-0.5,0.2-0.7
			c0.1-0.2,0.4-0.3,0.7-0.5c0.3-0.1,0.8-0.2,1.3-0.3C781.5,230.3,782.1,230.2,782.9,230.2z"/>
	</g>
	<g class="st7">
		<path class="st1" d="M852.3,323.6c0.7,0,1.3,0,1.8,0.1c0.5,0.1,0.9,0.2,1.2,0.4c0.3,0.2,0.5,0.4,0.7,0.6c0.1,0.2,0.2,0.5,0.2,0.8
			v19.7H917c0.3,0,0.5,0.1,0.8,0.2c0.2,0.1,0.4,0.4,0.5,0.8c0.1,0.4,0.2,0.8,0.3,1.4c0.1,0.6,0.1,1.3,0.1,2.2c0,0.9,0,1.6-0.1,2.2
			c-0.1,0.6-0.2,1.1-0.3,1.5c-0.1,0.4-0.3,0.6-0.5,0.8s-0.5,0.2-0.8,0.2h-60.8v19.7c0,0.3-0.1,0.6-0.2,0.8c-0.1,0.2-0.4,0.4-0.7,0.6
			c-0.3,0.1-0.7,0.3-1.2,0.4c-0.5,0.1-1.1,0.1-1.8,0.1c-0.7,0-1.3,0-1.8-0.1c-0.5-0.1-0.9-0.2-1.3-0.4s-0.6-0.3-0.7-0.6
			c-0.1-0.2-0.2-0.5-0.2-0.8v-48.8c0-0.3,0.1-0.5,0.2-0.8c0.1-0.2,0.4-0.4,0.7-0.6c0.3-0.2,0.8-0.3,1.3-0.4
			C851,323.6,851.6,323.6,852.3,323.6z"/>
		<path class="st1" d="M871.5,292.9c0.8,0,1.5,0,2,0.1c0.5,0,1,0.1,1.3,0.2c0.3,0.1,0.5,0.2,0.7,0.4c0.2,0.2,0.2,0.4,0.2,0.7
			s-0.1,0.6-0.2,1.1c-0.2,0.4-0.3,0.9-0.5,1.4s-0.3,1.1-0.5,1.8s-0.2,1.4-0.2,2.1c0,0.9,0.2,1.8,0.5,2.7c0.4,0.9,1,1.8,1.8,2.7
			c0.8,1,1.9,2,3.3,3c1.4,1,3.1,2.2,5,3.5h32.1c0.3,0,0.5,0.1,0.7,0.2c0.2,0.1,0.4,0.4,0.5,0.7s0.3,0.8,0.3,1.4
			c0.1,0.6,0.1,1.3,0.1,2.2c0,0.9,0,1.6-0.1,2.2c-0.1,0.6-0.2,1-0.3,1.4c-0.1,0.3-0.3,0.6-0.5,0.7c-0.2,0.1-0.4,0.2-0.7,0.2h-48.8
			c-0.3,0-0.5-0.1-0.7-0.2c-0.2-0.1-0.4-0.3-0.5-0.7c-0.2-0.3-0.3-0.7-0.3-1.2c-0.1-0.5-0.1-1.2-0.1-2c0-0.8,0-1.5,0.1-2
			c0.1-0.5,0.2-0.9,0.3-1.2c0.2-0.3,0.3-0.5,0.5-0.6c0.2-0.1,0.4-0.2,0.7-0.2h7.1c-2-1.3-3.5-2.6-4.8-3.8c-1.2-1.2-2.2-2.3-2.9-3.3
			c-0.7-1-1.2-2.1-1.5-3.1c-0.3-1-0.4-2.1-0.4-3.1c0-0.5,0-1,0.1-1.6c0.1-0.6,0.2-1.2,0.3-1.9c0.1-0.7,0.3-1.2,0.5-1.8
			s0.4-0.9,0.5-1.1c0.2-0.2,0.4-0.4,0.5-0.4c0.2-0.1,0.4-0.1,0.6-0.2c0.3-0.1,0.6-0.1,1.1-0.1S870.7,292.9,871.5,292.9z"/>
		<path class="st1" d="M851.8,272.7c2.1,0,3.5,0.4,4.3,1.2c0.8,0.8,1.1,2.3,1.1,4.4c0,2.1-0.4,3.5-1.1,4.3c-0.7,0.8-2.1,1.2-4.2,1.2
			c-2.1,0-3.5-0.4-4.3-1.2c-0.8-0.8-1.1-2.3-1.1-4.4c0-2.1,0.4-3.5,1.1-4.3C848.4,273.1,849.8,272.7,851.8,272.7z M917.1,273.7
			c0.3,0,0.5,0.1,0.7,0.2c0.2,0.1,0.4,0.4,0.5,0.7s0.3,0.8,0.3,1.4c0.1,0.6,0.1,1.3,0.1,2.2c0,0.9,0,1.6-0.1,2.2
			c-0.1,0.6-0.2,1-0.3,1.4c-0.1,0.3-0.3,0.6-0.5,0.7c-0.2,0.1-0.4,0.2-0.7,0.2h-48.8c-0.3,0-0.5-0.1-0.7-0.2
			c-0.2-0.1-0.4-0.4-0.5-0.7c-0.1-0.3-0.3-0.8-0.3-1.4c-0.1-0.6-0.1-1.3-0.1-2.2c0-0.9,0-1.6,0.1-2.2c0.1-0.6,0.2-1,0.3-1.4
			s0.3-0.6,0.5-0.7s0.5-0.2,0.7-0.2H917.1z"/>
		<path class="st1" d="M870.5,216.5c1.3,0,2.2,0.2,2.7,0.5c0.6,0.3,0.8,0.8,0.8,1.3v7c1.3-1.3,2.7-2.1,4.3-2.7s3.2-0.8,4.9-0.8
			c2.8,0,5.3,0.5,7.5,1.4c2.2,0.9,4,2.2,5.5,3.9c1.5,1.7,2.6,3.7,3.4,6c0.8,2.3,1.2,4.9,1.2,7.7c0,2-0.3,3.9-0.8,5.7
			c-0.5,1.8-1.2,3.2-2,4.1c0.7,0.7,1.4,1.2,2.2,1.6s1.8,0.6,2.9,0.6c1.3,0,2.3-0.6,3.1-1.8c0.8-1.2,1.3-2.7,1.4-4.7l0.5-12.7
			c0.1-2.4,0.4-4.6,1-6.7c0.6-2,1.4-3.8,2.5-5.3c1.1-1.5,2.5-2.6,4.1-3.5c1.6-0.8,3.5-1.2,5.6-1.2c2.2,0,4.4,0.5,6.4,1.4
			c2,0.9,3.8,2.4,5.3,4.3c1.5,1.9,2.7,4.4,3.6,7.4c0.9,3,1.3,6.5,1.3,10.6c0,3.9-0.3,7.3-1,10c-0.7,2.8-1.6,5-2.7,6.8
			c-1.2,1.8-2.5,3.1-4.1,3.8c-1.6,0.8-3.4,1.2-5.2,1.2c-1.2,0-2.3-0.1-3.5-0.4c-1.1-0.3-2.2-0.7-3.2-1.3s-2-1.3-2.9-2.2
			c-0.9-0.9-1.8-1.9-2.7-3.1c-0.9,1.8-2,3.1-3.4,3.9c-1.4,0.8-2.9,1.3-4.4,1.3c-2.2,0-4.2-0.5-5.9-1.4c-1.7-0.9-3.3-2-4.7-3.4
			c-1.3,1.1-2.8,2-4.5,2.7c-1.7,0.6-3.7,1-6.1,1c-2.8,0-5.3-0.5-7.5-1.4s-4.1-2.2-5.6-3.9c-1.5-1.7-2.7-3.7-3.5-6
			c-0.8-2.3-1.2-4.9-1.2-7.6c0-1.5,0.1-2.9,0.2-4.1c0.2-1.3,0.4-2.5,0.7-3.6v-14.7c0-0.6,0.3-1.1,0.9-1.4S869.3,216.5,870.5,216.5z
			 M883.4,230.4c-3.3,0-5.9,0.9-7.8,2.7c-1.9,1.8-2.8,4.4-2.8,7.8c0,1.7,0.3,3.2,0.9,4.5c0.6,1.3,1.4,2.3,2.4,3.2
			c1,0.8,2.2,1.5,3.5,1.9c1.3,0.4,2.7,0.6,4.1,0.6c3.2,0,5.7-0.9,7.6-2.7c1.8-1.8,2.8-4.4,2.8-7.7c0-1.8-0.3-3.3-0.8-4.6
			c-0.6-1.3-1.3-2.4-2.3-3.2c-1-0.8-2.1-1.5-3.4-1.9C886.1,230.7,884.8,230.4,883.4,230.4z M922,226c-2.1,0-3.7,0.9-4.8,2.6
			c-1.1,1.7-1.7,4-1.8,7l-0.4,12.6c0.9,1.2,1.8,2.1,2.6,2.8s1.6,1.3,2.3,1.8c0.7,0.4,1.5,0.7,2.2,0.9s1.5,0.2,2.2,0.2
			c2.3,0,4.1-1.2,5.3-3.6s1.8-5.7,1.8-10c0-2.7-0.3-5-0.8-6.8c-0.5-1.8-1.2-3.3-2.1-4.4c-0.9-1.1-1.9-1.9-3-2.4
			C924.4,226.2,923.2,226,922,226z"/>
	</g>
	<g class="st7">
		<path class="st1" d="M1054.9,343.8c0.5,0,1,0,1.4,0.1c0.4,0.1,0.7,0.2,1,0.3c0.3,0.1,0.5,0.3,0.6,0.5c0.1,0.2,0.2,0.4,0.2,0.6
			v27.8c0,0.7-0.2,1.3-0.7,1.9c-0.5,0.6-1.3,0.9-2.4,0.9h-51.6c-1.2,0-2-0.3-2.4-0.9c-0.5-0.6-0.7-1.3-0.7-1.9v-27.5
			c0-0.2,0.1-0.5,0.2-0.6c0.1-0.2,0.3-0.4,0.6-0.5s0.6-0.2,1-0.3c0.4-0.1,0.9-0.1,1.5-0.1c0.5,0,1,0,1.4,0.1c0.4,0.1,0.7,0.2,1,0.3
			c0.3,0.1,0.4,0.3,0.6,0.5c0.1,0.2,0.2,0.4,0.2,0.6v22.6h18.2v-19.4c0-0.2,0.1-0.5,0.2-0.6c0.1-0.2,0.3-0.4,0.6-0.5
			c0.2-0.1,0.6-0.2,1-0.3s0.9-0.1,1.5-0.1c0.5,0,1,0,1.4,0.1s0.7,0.2,0.9,0.3c0.2,0.1,0.4,0.3,0.5,0.5s0.2,0.4,0.2,0.6v19.4h20.7
			v-23c0-0.2,0.1-0.5,0.2-0.6c0.1-0.2,0.3-0.4,0.6-0.5c0.3-0.1,0.6-0.3,1-0.3C1053.8,343.8,1054.3,343.8,1054.9,343.8z"/>
		<path class="st1" d="M1050.8,304.4c0.5,0,0.9,0,1.3,0s0.7,0.1,0.9,0.2c0.3,0.1,0.5,0.2,0.7,0.3s0.5,0.3,0.8,0.7
			c0.4,0.4,0.8,1,1.4,1.9c0.6,0.9,1,1.9,1.5,3c0.4,1.1,0.8,2.3,1.1,3.6c0.3,1.3,0.4,2.7,0.4,4.1c0,2.9-0.5,5.5-1.4,7.7
			c-1,2.2-2.3,4.1-4.2,5.6c-1.8,1.5-4.1,2.7-6.8,3.4c-2.7,0.8-5.8,1.2-9.2,1.2c-4,0-7.4-0.5-10.2-1.5c-2.8-1-5.2-2.3-7-4
			c-1.8-1.7-3.2-3.7-4-6c-0.9-2.3-1.3-4.8-1.3-7.4c0-1.3,0.1-2.5,0.4-3.7c0.2-1.2,0.6-2.3,0.9-3.3c0.4-1,0.8-1.9,1.3-2.7
			c0.5-0.8,0.9-1.4,1.3-1.7c0.4-0.4,0.6-0.6,0.9-0.7c0.2-0.1,0.5-0.2,0.7-0.3c0.3-0.1,0.6-0.1,1-0.2c0.4,0,0.8,0,1.3,0
			c1.2,0,2,0.1,2.4,0.4c0.5,0.3,0.7,0.6,0.7,1c0,0.4-0.2,1-0.7,1.5s-1,1.3-1.6,2.2c-0.6,0.9-1.1,2-1.6,3.2c-0.5,1.3-0.7,2.8-0.7,4.5
			c0,3.6,1.4,6.3,4.1,8.2c2.7,1.9,6.7,2.8,11.9,2.8c2.6,0,4.9-0.2,6.8-0.7c2-0.5,3.6-1.2,4.9-2.2c1.3-1,2.3-2.1,2.9-3.5s1-3,1-4.8
			c0-1.7-0.3-3.2-0.8-4.5c-0.5-1.3-1.1-2.4-1.8-3.3c-0.6-0.9-1.2-1.7-1.7-2.4c-0.5-0.6-0.8-1.1-0.8-1.5c0-0.2,0.1-0.4,0.2-0.5
			c0.1-0.1,0.3-0.3,0.6-0.4c0.3-0.1,0.6-0.2,1.1-0.2C1049.7,304.4,1050.2,304.4,1050.8,304.4z"/>
		<path class="st1" d="M1057,259.9c0.2,0,0.4,0.1,0.6,0.2c0.2,0.1,0.3,0.3,0.4,0.6c0.1,0.3,0.2,0.6,0.3,1.1s0.1,1.1,0.1,1.8
			c0,0.7,0,1.4-0.1,1.8s-0.1,0.8-0.3,1.1c-0.1,0.3-0.3,0.5-0.4,0.6c-0.2,0.1-0.4,0.2-0.6,0.2h-23.6c-2.3,0-4.1,0.2-5.5,0.5
			c-1.4,0.4-2.6,0.9-3.6,1.6c-1,0.7-1.8,1.6-2.3,2.7c-0.5,1.1-0.8,2.3-0.8,3.8c0,1.8,0.7,3.7,2,5.5c1.3,1.9,3.2,3.8,5.8,5.8h28.1
			c0.2,0,0.4,0.1,0.6,0.2c0.2,0.1,0.3,0.3,0.4,0.6c0.1,0.3,0.2,0.6,0.3,1.1s0.1,1.1,0.1,1.8c0,0.7,0,1.3-0.1,1.8s-0.1,0.9-0.3,1.1
			c-0.1,0.3-0.3,0.5-0.4,0.6s-0.4,0.2-0.6,0.2h-59.8c-0.2,0-0.4-0.1-0.6-0.2s-0.3-0.3-0.4-0.6c-0.1-0.3-0.2-0.7-0.3-1.1
			s-0.1-1.1-0.1-1.8c0-0.7,0-1.4,0.1-1.8s0.1-0.9,0.3-1.1s0.3-0.5,0.4-0.6c0.2-0.1,0.4-0.2,0.6-0.2h24.1c-2.2-2.1-3.9-4.3-5-6.4
			c-1.1-2.1-1.6-4.3-1.6-6.5c0-2.7,0.5-4.9,1.4-6.8c0.9-1.8,2.1-3.3,3.6-4.5s3.3-1.9,5.3-2.4c2-0.5,4.5-0.7,7.4-0.7H1057z"/>
		<path class="st1" d="M1036.4,209c3.3,0,6.3,0.4,9.1,1.3s5.1,2.2,7.1,3.9c2,1.7,3.6,3.9,4.7,6.4c1.1,2.6,1.7,5.6,1.7,9
			c0,3.3-0.5,6.2-1.5,8.7c-1,2.5-2.4,4.5-4.3,6.2c-1.9,1.6-4.2,2.9-6.8,3.7c-2.7,0.8-5.7,1.2-9.1,1.2c-3.3,0-6.3-0.4-9.1-1.3
			c-2.8-0.8-5.1-2.1-7.1-3.8c-2-1.7-3.6-3.9-4.7-6.4c-1.1-2.6-1.7-5.6-1.7-9c0-3.3,0.5-6.2,1.5-8.7c1-2.5,2.4-4.5,4.3-6.2
			s4.2-2.9,6.8-3.7C1030,209.4,1033,209,1036.4,209z M1036.9,216.7c-2.2,0-4.2,0.2-6.2,0.6c-1.9,0.4-3.6,1.1-5.1,2
			c-1.5,0.9-2.6,2.2-3.5,3.8c-0.8,1.6-1.3,3.6-1.3,6c0,2.2,0.4,4.1,1.2,5.7c0.8,1.6,1.9,2.9,3.3,3.9c1.4,1,3.1,1.8,5,2.3
			c1.9,0.5,4.1,0.7,6.4,0.7c2.2,0,4.3-0.2,6.2-0.6c1.9-0.4,3.6-1.1,5.1-2s2.6-2.2,3.4-3.8c0.8-1.6,1.3-3.6,1.3-6
			c0-2.2-0.4-4-1.2-5.6c-0.8-1.6-1.9-2.9-3.3-3.9c-1.4-1-3.1-1.8-5-2.3C1041.3,216.9,1039.2,216.7,1036.9,216.7z"/>
	</g>
	<g class="st7">
		<path class="st1" d="M1139.4,319c0.7,0,1.3,0,1.8,0.1c0.5,0.1,1,0.2,1.3,0.3c0.3,0.1,0.6,0.3,0.7,0.5s0.2,0.5,0.2,0.7
			c0,0.4-0.3,1.2-1,2.2c-0.7,1-1.4,2.4-2.3,4.1c-0.8,1.7-1.6,3.7-2.3,6.1c-0.7,2.4-1,5.2-1,8.4c0,3.9,0.7,7.3,2.1,10.4
			c1.4,3.1,3.4,5.7,5.9,7.8c2.5,2.1,5.5,3.8,8.9,4.9s7.2,1.7,11.2,1.7c4.5,0,8.5-0.6,11.9-1.9c3.5-1.2,6.4-3,8.8-5.2
			s4.2-4.8,5.4-7.9c1.2-3.1,1.8-6.4,1.8-10c0-2.2-0.3-4.4-0.8-6.6c-0.5-2.2-1.3-4.3-2.4-6.2h-20.4v16.3c0,0.6-0.3,1.1-0.9,1.4
			c-0.6,0.3-1.6,0.5-2.9,0.5c-0.7,0-1.3,0-1.8-0.1s-0.9-0.2-1.2-0.4c-0.3-0.2-0.5-0.4-0.7-0.6c-0.1-0.2-0.2-0.5-0.2-0.8v-22.3
			c0-0.4,0.1-0.8,0.2-1.2c0.1-0.4,0.4-0.8,0.7-1.1s0.7-0.6,1.2-0.8c0.5-0.2,1.1-0.3,1.7-0.3h26.7c0.9,0,1.8,0.2,2.4,0.5
			c0.7,0.3,1.3,1,1.8,2.1c0.5,1,1.1,2.4,1.7,4.1c0.6,1.7,1.1,3.4,1.6,5.1c0.4,1.8,0.8,3.6,1,5.4c0.2,1.8,0.3,3.6,0.3,5.4
			c0,5.4-0.8,10.3-2.5,14.5c-1.7,4.3-4.1,7.9-7.2,10.8c-3.1,2.9-6.8,5.2-11.2,6.7c-4.3,1.6-9.2,2.3-14.5,2.3
			c-5.6,0-10.6-0.8-15.1-2.5c-4.5-1.7-8.4-4-11.5-7.1c-3.2-3.1-5.6-6.7-7.4-11c-1.8-4.3-2.6-9-2.6-14.2c0-2.7,0.2-5.2,0.7-7.5
			c0.5-2.3,1-4.4,1.7-6.3c0.6-1.8,1.3-3.4,2.1-4.6s1.3-2.1,1.8-2.6c0.5-0.5,1-0.8,1.6-1S1138.3,319,1139.4,319z"/>
		<path class="st1" d="M1196.1,248.7c0.7,0,1.3,0.1,1.8,0.4c0.5,0.2,0.9,0.6,1.2,1s0.6,0.8,0.7,1.3c0.1,0.5,0.2,1,0.2,1.5v3.1
			c0,1-0.1,1.8-0.3,2.5c-0.2,0.7-0.6,1.4-1.1,2.1s-1.2,1.3-2.1,2c-0.9,0.7-2.1,1.3-3.5,2.1l-39.9,21.4c-2.1,1.1-4.2,2.2-6.5,3.4
			c-2.3,1.1-4.5,2.2-6.6,3.2v0.1c2.6-0.1,5.3-0.1,8-0.2s5.4-0.1,8.1-0.1h42.3c0.3,0,0.5,0.1,0.7,0.2s0.4,0.4,0.5,0.8
			c0.1,0.4,0.2,0.8,0.3,1.4c0.1,0.6,0.1,1.3,0.1,2.3c0,0.9,0,1.7-0.1,2.3c-0.1,0.6-0.2,1.1-0.3,1.4c-0.1,0.3-0.3,0.6-0.5,0.7
			s-0.5,0.2-0.7,0.2h-64.7c-1.4,0-2.5-0.4-3.1-1.2c-0.6-0.8-0.9-1.7-0.9-2.7v-4.6c0-1.1,0.1-2,0.3-2.7c0.2-0.7,0.5-1.4,0.9-2
			c0.4-0.6,1-1.1,1.7-1.7c0.7-0.5,1.7-1.1,2.8-1.7l30.8-16.4c1.9-1,3.7-2,5.5-2.9c1.8-0.9,3.5-1.8,5.3-2.7c1.7-0.9,3.4-1.7,5.1-2.6
			c1.7-0.9,3.4-1.7,5.1-2.5v-0.1c-2.9,0.1-5.8,0.1-8.9,0.1c-3.1,0-6.1,0-8.9,0h-38c-0.3,0-0.5-0.1-0.7-0.2c-0.2-0.2-0.4-0.4-0.6-0.8
			c-0.2-0.4-0.3-0.8-0.4-1.4c-0.1-0.6-0.1-1.4-0.1-2.3c0-0.8,0-1.6,0.1-2.2s0.2-1.1,0.4-1.4c0.2-0.3,0.4-0.6,0.6-0.7
			s0.5-0.2,0.7-0.2H1196.1z"/>
		<path class="st1" d="M1163.9,176.1c6.1,0,11.4,0.8,15.9,2.3c4.5,1.6,8.3,3.8,11.3,6.8s5.2,6.6,6.7,11c1.5,4.3,2.2,9.5,2.2,15.5
			v14.8c0,0.8-0.3,1.6-0.8,2.4c-0.6,0.7-1.5,1.1-3,1.1h-62.5c-1.4,0-2.4-0.4-3-1.1c-0.6-0.7-0.8-1.5-0.8-2.4v-15.9
			c0-6.1,0.8-11.2,2.4-15.4c1.6-4.2,3.8-7.7,6.8-10.5c2.9-2.8,6.5-5,10.7-6.4C1153.9,176.8,1158.6,176.1,1163.9,176.1z
			 M1164.3,185.9c-3.8,0-7.3,0.5-10.6,1.4c-3.3,0.9-6.1,2.4-8.5,4.4c-2.4,2-4.2,4.5-5.6,7.6c-1.3,3.1-2,7-2,11.9v9.5h54.6v-9.6
			c0-4.5-0.6-8.3-1.7-11.3c-1.1-3.1-2.8-5.6-5.1-7.7s-5.2-3.6-8.7-4.6S1169.1,185.9,1164.3,185.9z"/>
	</g>
</g>
</svg>
