<?xml version="1.0" encoding="utf-8"?>
<!-- Generator: Adobe Illustrator 27.8.0, SVG Export Plug-In . SVG Version: 6.00 Build 0)  -->
<svg version="1.1"
	 id="svg8" xmlns:svg="http://www.w3.org/2000/svg" xmlns:rdf="http://www.w3.org/1999/02/22-rdf-syntax-ns#" xmlns:sodipodi="http://sodipodi.sourceforge.net/DTD/sodipodi-0.dtd" xmlns:dc="http://purl.org/dc/elements/1.1/" xmlns:inkscape="http://www.inkscape.org/namespaces/inkscape" xmlns:cc="http://creativecommons.org/ns#" inkscape:export-xdpi="93" inkscape:export-ydpi="93" inkscape:version="0.92.4 (5da689c313, 2019-01-14)"
	 xmlns="http://www.w3.org/2000/svg" xmlns:xlink="http://www.w3.org/1999/xlink" x="0px" y="0px" viewBox="0 0 657 1081"
	 style="enable-background:new 0 0 657 1081;" xml:space="preserve">
<style type="text/css">
	.st0{fill:#FFFFFF;}
	.st1{fill:#1A1A1A;}
	.st2{opacity:0.99;fill:#808080;enable-background:new    ;}
	.st3{opacity:0.99;fill:#CCCCCC;enable-background:new    ;}
	.st4{opacity:0.99;fill:#FFFFFF;enable-background:new    ;}
	.st5{enable-background:new    ;}
	.st6{opacity:0.99;fill:#333333;enable-background:new    ;}
</style>
<defs>
	
		<inkscape:perspective  id="perspective876" inkscape:persp3d-origin="105 : 98.999996 : 1" inkscape:vp_x="0 : 148.49998 : 1" inkscape:vp_y="0 : 999.99993 : 0" inkscape:vp_z="210.00001 : 148.49998 : 1" sodipodi:type="inkscape:persp3d">
		</inkscape:perspective>
</defs>
<sodipodi:namedview  bordercolor="#666666" borderopacity="1.0" id="base" inkscape:current-layer="layer1" inkscape:cx="1410.1026" inkscape:cy="1174.9126" inkscape:document-units="mm" inkscape:lockguides="true" inkscape:pageopacity="0.0" inkscape:pageshadow="2" inkscape:window-height="1017" inkscape:window-maximized="1" inkscape:window-width="1920" inkscape:window-x="-8" inkscape:window-y="-8" inkscape:zoom="0.24748737" pagecolor="#ffffff" showgrid="false" showguides="true" width="500mm">
	</sodipodi:namedview>
<g id="layer1" transform="translate(0.31582593,442.81107)" inkscape:groupmode="layer" inkscape:label="Ebene 1">
	<rect id="rect815" x="-0.3" y="-438.5" width="657.7" height="876"/>
	<rect id="rect821" x="155.2" y="293.6" class="st0" width="342.2" height="117.8"/>
	<path id="rect825" class="st1" d="M177.6,300.2h68.6c12,0,21.7,9.7,21.7,21.7v60.2c0,12-9.7,21.7-21.7,21.7h-68.6
		c-12,0-21.7-9.7-21.7-21.7v-60.2C156,309.9,165.7,300.2,177.6,300.2z"/>
	<path id="rect872" class="st1" d="M406.2,300.2h68.6c12,0,21.7,9.7,21.7,21.7v60.2c0,12-9.7,21.7-21.7,21.7h-68.6
		c-12,0-21.7-9.7-21.7-21.7v-60.2C384.6,309.9,394.3,300.2,406.2,300.2z"/>
	<path id="rect874" class="st1" d="M289.2,300.2h74.2c10.4,0,18.9,8.5,18.9,18.9v65.8c0,10.4-8.5,18.9-18.9,18.9h-74.2
		c-10.4,0-18.9-8.5-18.9-18.9v-65.8C270.3,308.7,278.7,300.2,289.2,300.2z"/>
	<rect id="rect947" x="205.6" y="356.6" class="st2" width="12.4" height="215.9"/>
	<rect id="rect949" x="320.6" y="356.6" class="st2" width="12.4" height="215.9"/>
	<rect id="rect951" x="434.2" y="356.6" class="st2" width="12.4" height="215.9"/>
	<g id="flowRoot969" transform="translate(0,-44.243392)">
	</g>
	<g id="flowRoot1466" transform="translate(0,-44.243392)">
	</g>
	<g id="flowRoot1529" transform="translate(0,-44.243392)">
	</g>
	<rect id="rect87" x="92.1" y="169.7" width="468.2" height="117.8"/>
	<path id="path31-1" inkscape:connector-curvature="0" class="st0" d="M186.6-373c4.1-0.1,4.5-0.1,5.3-0.6c0.5-0.3,1-0.9,1.3-1.3
		c0.4-0.7,0.5-1.3,0.5-9.6l0.1-8.8l8.7,0l8.7,0v11c0,12.1-0.1,13.2-1.4,16.4c-1.7,4.2-4.1,6.1-9.1,7.2c-1.3,0.3-2.9,0.4-7.9,0.3
		c-3.5,0-7.2-0.1-8.4-0.2l-2.1-0.2l-0.1-7.2l-0.1-7.2L186.6-373L186.6-373z M269.4-348.4c74.1,0,92.4,0.1,89.3,0.4l-0.5,0l0.5,0.2
		c0.4,0.2,0.3,0.2-0.4,0.3c-0.5,0-0.3,0.1,0.7,0.2l1.5,0.2L359-347c-0.8,0-1.4,0.1-1.1,0.2c0.4,0.1,0.4,0.4,0.4,2.1c0,2,0,2,0.7,2.1
		c0.5,0.1,0.4,0.1-0.4,0.1c-0.6,0-1,0.1-1,0.3c0,0.2-29.4,0.2-87.7,0.2h-87.7v-3.2v-3.2L269.4-348.4z M202.5-416h8.8v7.1v7.1h-8.8
		h-8.8v-7.1v-7.1H202.5z M220.2-389.7c0.6-4,1.7-7.6,3.3-10.7c0.6-1.2,1.1-2.2,1.2-2.2c0.1-0.1,0.5-0.7,1-1.4c0.9-1.4,3-4,3.5-4.3
		c0.2-0.1,0.3-0.3,0.3-0.4c0-0.3,2.2-2.3,3.9-3.5c1.8-1.3,3.3-2,6.5-3.2c3.8-1.4,6-1.7,10.5-1.6c3.3,0.1,4.1,0.2,6.2,0.8
		c1.3,0.4,2.9,0.9,3.5,1.2c0.6,0.3,1.3,0.5,1.4,0.5c0.1,0,1.1,0.5,2.2,1.1c4.2,2.4,9.9,8.9,12.1,13.8c3.5,7.6,3.9,15.2,1.3,22.2
		c-1.1,3-1.9,4.6-3.2,6.7c-1.5,2.4-1.6,2.5-5.2,6.1c-4.1,4.1-7.1,5.8-12.5,7.3c-2.7,0.7-8.1,1-11,0.6c-3.8-0.6-8.8-2.7-11.9-5
		c-1.6-1.2-3.8-3.1-3.8-3.3c0-0.1-0.5-0.7-1.2-1.3c-3.1-3.2-6.4-9.5-7.6-14.7C220.3-383.1,220-388.2,220.2-389.7L220.2-389.7z
		 M237-382.3c0.8,3.3,2.5,6.1,5.1,8.6c2.6,2.5,6.8,3.5,10.4,2.3c4-1.2,7.9-5.9,9.2-10.9c0.7-2.9,0.7-7-0.1-9.8
		c-1.2-3.9-3.2-7-6.1-9.1c-1.3-0.9-1.9-1.2-3.3-1.5c-3-0.6-6-0.3-8.1,0.8c-1.9,0.9-4.2,3.6-5.6,6.3
		C236.4-391.4,235.8-386.6,237-382.3L237-382.3z M286.2-415.9c0.2-0.1,4.1-0.1,8.8,0l8.5,0.1l0,7.8c0,7.4,0.1,7.9,0.5,9.2
		c1.2,3.3,5.3,5.1,8.8,4c1.8-0.6,3-1.7,3.9-3.4l0.8-1.5l0.1-8.1l0.1-8.1h8.8h8.8l-0.1,9.2c-0.1,8.5-0.1,9.3-0.6,11
		c-1,3.5-2.5,6.6-4.6,9c-0.5,0.6-0.9,1.2-0.9,1.3c0,0.3-2.2,2.3-4.2,3.7c-1.7,1.2-4,2.5-5.2,2.7c-0.4,0.1-1.6,0.4-2.7,0.8
		c-1.9,0.6-2.3,0.6-6.3,0.6c-4,0-4.4,0-6.6-0.7c-3.5-1-4.6-1.5-6.9-3c-2.6-1.7-4.8-3.9-6.7-6.6c-2.6-3.8-3.7-6.7-4.2-11.1
		C285.8-401.8,285.8-415.7,286.2-415.9L286.2-415.9z M310.6-372.7h14.3v7.4v7.4h-14.3h-14.3v-7.4v-7.4H310.6z M335.1-427.2
		c0.1,0,0.2-0.4,0.2-0.9c0-0.9,0-0.9,1.1-1.1c0.6-0.1,24.9-0.1,53.9-0.1l52.8,0l-0.1,3.2L443-423h-53.7c-29.5,0-53.9-0.1-54.1-0.1
		c-0.3-0.1-0.4-0.5-0.4-2.1C334.9-426.4,335-427.2,335.1-427.2L335.1-427.2z M359.3-391.9h18.2v7.2v7.2h-18.2H341v-7.2v-7.2H359.3z
		 M391.9-416h8.8v7.1v7.1h-8.8h-8.8v-7.1v-7.1H391.9z M391.9-394.2h8.8v18.5v18.5h-8.8h-8.8v-18.5v-18.5H391.9z M426.8-416h18.3v7.1
		v7.1h-18.3h-18.3v-7.1v-7.1H426.8z M411.5-393.2c0.1-0.1,4-0.1,8.6-0.1l8.4,0l0.1,8.5c0.1,11.9-0.4,11.2,8.5,11.3l5.6,0.1v7.4v7.4
		l-2.1,0.3c-3.2,0.4-13.2,0.3-15.9-0.1c-4.7-0.7-7.7-2.2-9.7-4.6c-2.1-2.5-3.1-5.1-3.6-9.2C411.3-374.7,411.3-393,411.5-393.2
		L411.5-393.2z M455.5-422.9c0.4-1.6,1.3-3,2.3-3.9c4-3.5,8.7-3.9,12.7-1c1.8,1.4,2.3,1.9,3.1,3.5c0.6,1.3,0.7,1.6,0.7,3.9
		c0,2.2-0.1,2.6-0.7,3.9c-1.3,2.9-4.7,5.1-8,5.3c-3.1,0.2-5.4-0.7-7.8-3C455.5-416.2,454.6-419.9,455.5-422.9L455.5-422.9z
		 M457.2-416.9c0.8,1.9,3.3,3.7,5.8,4.4c2.6,0.6,4.5,0.1,7.4-2c0.7-0.5,1.2-1.2,1.8-2.3c0.7-1.4,0.8-1.8,0.8-3.6
		c0-1.8-0.1-2.1-0.8-3.6c-0.7-1.3-1.1-1.8-2.2-2.6c-0.8-0.5-2-1.2-2.6-1.4c-4-1.3-8.8,0.8-10.4,4.7
		C456.3-421.9,456.5-418.7,457.2-416.9L457.2-416.9z M463.7-426c1.8,0,3.5,0.1,3.8,0.2c1.4,0.5,2.1,3.3,1.1,4.5
		c-0.3,0.3-0.8,0.7-1.3,0.9l-0.8,0.3l0.8,0.9c0.4,0.5,1.1,1.5,1.5,2.2s0.8,1.3,1,1.4c0.5,0.3,0.1,0.6-0.8,0.6l-1,0l-1.4-2.2
		c-1.5-2.4-1.9-2.7-3.6-2.7h-1v2.5v2.5l-0.7-0.1l-0.7-0.1l-0.1-5.4l-0.1-5.4L463.7-426z M464.1-421.3c1.8,0,2.2-0.1,2.7-0.5
		c1.3-1,0.6-2.6-1.3-2.9c-0.8-0.1-3-0.1-3.4,0.1c0,0-0.1,0.8-0.1,1.7v1.6L464.1-421.3z"/>
	<circle id="path84" class="st3" cx="94.6" cy="-320.2" r="65.7"/>
	<circle id="circle86" class="st3" cx="561.8" cy="-320.2" r="65.7"/>
	<circle id="path88" class="st4" cx="94.6" cy="-320.2" r="58.4"/>
	<circle id="circle90" class="st4" cx="561.8" cy="-320.2" r="58.4"/>
	<g class="st5">
		<path d="M434.1,582.7c0,0.5,0,0.9-0.1,1.2c-0.1,0.4-0.1,0.7-0.2,0.9c-0.1,0.2-0.2,0.4-0.4,0.5s-0.3,0.1-0.5,0.1
			c-0.3,0-0.8-0.2-1.5-0.7c-0.7-0.5-1.6-1-2.8-1.6c-1.2-0.6-2.6-1.1-4.2-1.6c-1.6-0.5-3.6-0.7-5.8-0.7c-2.7,0-5,0.5-7.1,1.5
			c-2.1,1-3.9,2.3-5.4,4s-2.6,3.7-3.4,6.1c-0.8,2.4-1.2,4.9-1.2,7.7c0,3.1,0.4,5.8,1.3,8.2c0.9,2.4,2,4.4,3.6,6s3.3,2.9,5.4,3.7
			c2.1,0.8,4.4,1.3,6.9,1.3c1.5,0,3-0.2,4.5-0.5c1.5-0.4,2.9-0.9,4.3-1.6v-14h-11.2c-0.4,0-0.7-0.2-0.9-0.6c-0.2-0.4-0.3-1.1-0.3-2
			c0-0.5,0-0.9,0.1-1.2c0-0.3,0.1-0.6,0.2-0.8s0.2-0.4,0.4-0.5c0.1-0.1,0.3-0.1,0.6-0.1h15.3c0.3,0,0.5,0,0.8,0.1
			c0.3,0.1,0.5,0.2,0.7,0.4c0.2,0.2,0.4,0.5,0.5,0.8c0.1,0.3,0.2,0.7,0.2,1.2v18.3c0,0.6-0.1,1.2-0.3,1.7c-0.2,0.5-0.7,0.9-1.4,1.2
			c-0.7,0.4-1.6,0.8-2.8,1.2c-1.1,0.4-2.3,0.8-3.5,1.1c-1.2,0.3-2.4,0.5-3.7,0.7c-1.2,0.1-2.5,0.2-3.7,0.2c-3.7,0-7-0.6-10-1.7
			c-2.9-1.2-5.4-2.8-7.4-4.9c-2-2.1-3.6-4.7-4.6-7.7c-1.1-3-1.6-6.3-1.6-10c0-3.8,0.6-7.3,1.7-10.4c1.2-3.1,2.8-5.7,4.9-7.9
			s4.6-3.9,7.6-5.1c2.9-1.2,6.2-1.8,9.8-1.8c1.8,0,3.6,0.2,5.2,0.5c1.6,0.3,3,0.7,4.3,1.1c1.3,0.4,2.3,0.9,3.2,1.4s1.4,0.9,1.8,1.2
			c0.3,0.3,0.5,0.7,0.7,1.1C434.1,581.3,434.1,581.9,434.1,582.7z"/>
		<path d="M482.4,621.7c0,0.5-0.1,0.9-0.2,1.3c-0.2,0.3-0.4,0.6-0.7,0.9c-0.3,0.2-0.6,0.4-0.9,0.5c-0.3,0.1-0.7,0.1-1,0.1h-2.1
			c-0.7,0-1.2-0.1-1.8-0.2s-1-0.4-1.4-0.7c-0.4-0.4-0.9-0.8-1.3-1.5c-0.4-0.6-0.9-1.4-1.4-2.4l-14.7-27.4c-0.8-1.4-1.5-2.9-2.3-4.4
			c-0.8-1.5-1.5-3.1-2.2-4.5h-0.1c0,1.8,0.1,3.6,0.1,5.5c0,1.9,0,3.7,0,5.5v29c0,0.2-0.1,0.3-0.2,0.5s-0.3,0.3-0.5,0.4
			c-0.2,0.1-0.6,0.2-1,0.2s-0.9,0.1-1.6,0.1s-1.1,0-1.6-0.1c-0.4-0.1-0.7-0.1-1-0.2s-0.4-0.2-0.5-0.4s-0.2-0.3-0.2-0.5v-44.4
			c0-1,0.3-1.7,0.8-2.1c0.6-0.4,1.2-0.6,1.8-0.6h3.1c0.7,0,1.4,0.1,1.9,0.2c0.5,0.1,0.9,0.3,1.3,0.6c0.4,0.3,0.8,0.7,1.2,1.2
			c0.4,0.5,0.8,1.1,1.2,1.9l11.3,21.1c0.7,1.3,1.4,2.5,2,3.8c0.6,1.2,1.3,2.4,1.9,3.6c0.6,1.2,1.2,2.4,1.8,3.5
			c0.6,1.2,1.2,2.3,1.7,3.5h0c-0.1-2-0.1-4-0.1-6.1s0-4.2,0-6.1v-26.1c0-0.2,0.1-0.3,0.2-0.5c0.1-0.1,0.3-0.3,0.5-0.4
			c0.2-0.1,0.6-0.2,1-0.2c0.4,0,0.9-0.1,1.6-0.1c0.6,0,1.1,0,1.5,0.1c0.4,0,0.7,0.1,1,0.2c0.2,0.1,0.4,0.2,0.5,0.4
			c0.1,0.1,0.2,0.3,0.2,0.5V621.7z"/>
		<path d="M532.2,599.5c0,4.2-0.5,7.8-1.6,10.9c-1.1,3.1-2.6,5.7-4.7,7.7c-2,2-4.6,3.6-7.5,4.6c-3,1-6.5,1.5-10.6,1.5h-10.2
			c-0.6,0-1.1-0.2-1.6-0.6c-0.5-0.4-0.8-1.1-0.8-2v-42.9c0-1,0.3-1.6,0.8-2c0.5-0.4,1-0.6,1.6-0.6h10.9c4.2,0,7.7,0.5,10.6,1.6
			c2.9,1.1,5.3,2.6,7.2,4.6c1.9,2,3.4,4.5,4.4,7.3C531.7,592.7,532.2,595.9,532.2,599.5z M525.5,599.8c0-2.6-0.3-5-1-7.3
			c-0.6-2.2-1.7-4.2-3-5.8c-1.4-1.6-3.1-2.9-5.2-3.8c-2.1-0.9-4.8-1.4-8.1-1.4h-6.5V619h6.6c3.1,0,5.7-0.4,7.8-1.2
			c2.1-0.8,3.9-1.9,5.3-3.5c1.4-1.6,2.5-3.6,3.2-6C525.1,605.9,525.5,603.1,525.5,599.8z"/>
	</g>
	<g class="st5">
		<path d="M110.7,610.8c0,2.3-0.4,4.3-1.2,6c-0.8,1.8-2,3.3-3.5,4.5c-1.5,1.2-3.2,2.2-5.2,2.8c-2,0.6-4.1,0.9-6.5,0.9
			c-1.6,0-3.1-0.1-4.5-0.4c-1.4-0.3-2.6-0.6-3.7-1c-1.1-0.4-2-0.8-2.7-1.2c-0.7-0.4-1.2-0.8-1.5-1.1s-0.5-0.7-0.6-1.1
			c-0.1-0.5-0.2-1.1-0.2-1.8c0-0.5,0-1,0.1-1.4s0.1-0.7,0.2-0.9c0.1-0.2,0.2-0.4,0.4-0.5c0.1-0.1,0.3-0.1,0.5-0.1
			c0.3,0,0.8,0.2,1.5,0.6c0.6,0.4,1.4,0.9,2.4,1.4c1,0.5,2.2,1,3.6,1.4c1.4,0.4,3,0.7,4.9,0.7c1.4,0,2.7-0.2,3.8-0.6
			c1.2-0.4,2.1-0.9,3-1.6c0.8-0.7,1.5-1.5,1.9-2.5c0.4-1,0.7-2.1,0.7-3.4c0-1.4-0.3-2.5-0.9-3.5c-0.6-1-1.4-1.8-2.5-2.5
			s-2.2-1.4-3.5-2c-1.3-0.6-2.6-1.2-4-1.9c-1.4-0.6-2.7-1.3-4-2.1s-2.4-1.7-3.5-2.7c-1-1-1.8-2.3-2.5-3.7c-0.6-1.4-0.9-3.1-0.9-5
			c0-2,0.4-3.8,1.1-5.4c0.7-1.6,1.7-2.9,3-4c1.3-1.1,2.9-1.9,4.6-2.4c1.8-0.6,3.7-0.8,5.8-0.8c1.1,0,2.1,0.1,3.2,0.3
			c1.1,0.2,2.1,0.4,3,0.7c1,0.3,1.8,0.7,2.5,1c0.7,0.4,1.2,0.7,1.5,0.9s0.4,0.4,0.5,0.6c0.1,0.1,0.1,0.3,0.2,0.5
			c0,0.2,0.1,0.5,0.1,0.8s0,0.7,0,1.2c0,0.4,0,0.8-0.1,1.2c0,0.3-0.1,0.6-0.2,0.9c-0.1,0.2-0.2,0.4-0.3,0.5
			c-0.1,0.1-0.3,0.2-0.5,0.2c-0.3,0-0.7-0.2-1.3-0.5c-0.6-0.3-1.3-0.7-2.1-1.2c-0.8-0.4-1.8-0.8-3-1.2c-1.2-0.4-2.4-0.5-3.9-0.5
			c-1.3,0-2.5,0.2-3.5,0.5c-1,0.4-1.8,0.8-2.5,1.4c-0.6,0.6-1.1,1.3-1.5,2.1s-0.5,1.7-0.5,2.6c0,1.3,0.3,2.5,0.9,3.5
			s1.4,1.8,2.5,2.6s2.2,1.4,3.5,2s2.7,1.2,4,1.9c1.4,0.6,2.7,1.3,4,2.1c1.3,0.8,2.5,1.6,3.5,2.7c1,1,1.9,2.2,2.5,3.6
			C110.4,607.2,110.7,608.9,110.7,610.8z"/>
		<path d="M126,578.6c0,1.4-0.3,2.4-0.8,2.9c-0.5,0.5-1.5,0.8-3,0.8c-1.4,0-2.4-0.3-3-0.8c-0.5-0.5-0.8-1.5-0.8-2.9
			c0-1.4,0.3-2.4,0.8-2.9c0.5-0.5,1.5-0.8,3-0.8c1.4,0,2.4,0.3,3,0.8C125.7,576.2,126,577.2,126,578.6z M125.3,623.4
			c0,0.2,0,0.4-0.1,0.5c-0.1,0.1-0.3,0.3-0.5,0.4c-0.2,0.1-0.5,0.2-0.9,0.2s-0.9,0.1-1.5,0.1c-0.6,0-1.1,0-1.5-0.1s-0.7-0.1-0.9-0.2
			c-0.2-0.1-0.4-0.2-0.5-0.4c-0.1-0.1-0.1-0.3-0.1-0.5v-33.5c0-0.2,0-0.3,0.1-0.5c0.1-0.1,0.2-0.3,0.5-0.4c0.2-0.1,0.6-0.2,0.9-0.2
			s0.9-0.1,1.5-0.1c0.6,0,1.1,0,1.5,0.1s0.7,0.1,0.9,0.2c0.2,0.1,0.4,0.2,0.5,0.4c0.1,0.1,0.1,0.3,0.1,0.5V623.4z"/>
		<path d="M164.6,591.4c0,0.9-0.1,1.5-0.4,1.9c-0.2,0.4-0.5,0.6-0.9,0.6h-4.8c0.9,0.9,1.5,1.9,1.8,3c0.3,1.1,0.5,2.2,0.5,3.4
			c0,1.9-0.3,3.6-0.9,5.1c-0.6,1.5-1.5,2.7-2.7,3.8c-1.2,1-2.5,1.8-4.1,2.4c-1.6,0.5-3.3,0.8-5.3,0.8c-1.4,0-2.7-0.2-3.9-0.5
			s-2.2-0.8-2.8-1.4c-0.4,0.4-0.8,1-1.1,1.5s-0.4,1.2-0.4,2c0,0.9,0.4,1.6,1.2,2.2s1.9,0.9,3.2,0.9l8.7,0.4c1.7,0,3.2,0.3,4.6,0.7
			s2.6,1,3.6,1.7c1,0.8,1.8,1.7,2.4,2.8s0.9,2.4,0.9,3.8c0,1.5-0.3,3-1,4.4c-0.6,1.4-1.6,2.6-3,3.7c-1.3,1.1-3,1.9-5.1,2.5
			c-2.1,0.6-4.5,0.9-7.3,0.9c-2.7,0-5-0.2-6.9-0.7c-1.9-0.5-3.5-1.1-4.7-1.9c-1.2-0.8-2.1-1.7-2.6-2.8c-0.5-1.1-0.8-2.3-0.8-3.6
			c0-0.8,0.1-1.6,0.3-2.4s0.5-1.5,0.9-2.2s0.9-1.4,1.5-2c0.6-0.6,1.3-1.3,2.1-1.9c-1.2-0.6-2.1-1.4-2.7-2.3c-0.6-0.9-0.9-2-0.9-3
			c0-1.5,0.3-2.9,0.9-4.1c0.6-1.2,1.4-2.3,2.3-3.2c-0.8-0.9-1.4-2-1.8-3.1s-0.7-2.5-0.7-4.2c0-1.9,0.3-3.6,1-5.1
			c0.6-1.5,1.5-2.8,2.7-3.8c1.1-1,2.5-1.8,4.1-2.4c1.6-0.6,3.3-0.8,5.2-0.8c1,0,2,0.1,2.8,0.2s1.7,0.3,2.5,0.5h10.1
			c0.4,0,0.7,0.2,0.9,0.6C164.5,590,164.6,590.6,164.6,591.4z M158.1,626.8c0-1.4-0.6-2.5-1.8-3.3s-2.8-1.2-4.8-1.2l-8.7-0.3
			c-0.8,0.6-1.4,1.2-2,1.8c-0.5,0.6-0.9,1.1-1.2,1.6c-0.3,0.5-0.5,1-0.6,1.5c-0.1,0.5-0.2,1-0.2,1.5c0,1.6,0.8,2.8,2.5,3.7
			c1.6,0.8,3.9,1.2,6.8,1.2c1.9,0,3.4-0.2,4.7-0.5c1.3-0.4,2.3-0.8,3-1.4c0.8-0.6,1.3-1.3,1.7-2
			C157.9,628.4,158.1,627.6,158.1,626.8z M155,600.2c0-2.3-0.6-4.1-1.9-5.3c-1.3-1.3-3-1.9-5.3-1.9c-1.2,0-2.2,0.2-3.1,0.6
			s-1.6,0.9-2.2,1.6c-0.6,0.7-1,1.5-1.3,2.4c-0.3,0.9-0.4,1.9-0.4,2.8c0,2.2,0.6,3.9,1.9,5.2s3,1.9,5.3,1.9c1.2,0,2.3-0.2,3.2-0.6
			c0.9-0.4,1.6-0.9,2.2-1.6s1-1.5,1.3-2.4S155,601.2,155,600.2z"/>
		<path d="M201.3,623.4c0,0.2,0,0.4-0.1,0.5c-0.1,0.1-0.3,0.3-0.5,0.4c-0.2,0.1-0.5,0.2-0.9,0.2s-0.9,0.1-1.5,0.1
			c-0.6,0-1.1,0-1.5-0.1s-0.7-0.1-0.9-0.2s-0.4-0.2-0.5-0.4c-0.1-0.1-0.1-0.3-0.1-0.5v-19.6c0-1.9-0.1-3.4-0.4-4.6
			c-0.3-1.2-0.7-2.2-1.3-3c-0.6-0.8-1.3-1.5-2.2-1.9c-0.9-0.4-2-0.7-3.1-0.7c-1.5,0-3.1,0.5-4.6,1.6c-1.5,1.1-3.1,2.7-4.8,4.8v23.4
			c0,0.2,0,0.4-0.1,0.5c-0.1,0.1-0.3,0.3-0.5,0.4c-0.2,0.1-0.5,0.2-0.9,0.2s-0.9,0.1-1.5,0.1c-0.6,0-1.1,0-1.5-0.1s-0.7-0.1-0.9-0.2
			c-0.2-0.1-0.4-0.2-0.5-0.4c-0.1-0.1-0.1-0.3-0.1-0.5v-33.5c0-0.2,0-0.4,0.1-0.5c0.1-0.1,0.2-0.3,0.4-0.4c0.2-0.1,0.5-0.2,0.9-0.2
			c0.3,0,0.8-0.1,1.4-0.1c0.5,0,1,0,1.4,0.1s0.6,0.1,0.8,0.2c0.2,0.1,0.3,0.2,0.4,0.4c0.1,0.1,0.1,0.3,0.1,0.5v4.4
			c1.9-2.1,3.8-3.7,5.6-4.6c1.9-1,3.8-1.5,5.7-1.5c2.2,0,4.1,0.4,5.6,1.1c1.5,0.8,2.8,1.8,3.7,3c0.9,1.3,1.6,2.7,2,4.4
			s0.6,3.7,0.6,6.1V623.4z"/>
		<path d="M237.7,623.4c0,0.3-0.1,0.5-0.3,0.7c-0.2,0.1-0.5,0.3-0.8,0.3c-0.3,0.1-0.9,0.1-1.5,0.1c-0.6,0-1.2,0-1.5-0.1
			c-0.4-0.1-0.7-0.2-0.8-0.3c-0.2-0.1-0.3-0.4-0.3-0.7v-3.3c-1.5,1.6-3.1,2.8-4.9,3.6c-1.8,0.9-3.7,1.3-5.7,1.3
			c-1.8,0-3.4-0.2-4.8-0.7c-1.4-0.5-2.6-1.1-3.6-2c-1-0.9-1.8-1.9-2.3-3.2s-0.8-2.7-0.8-4.3c0-1.9,0.4-3.5,1.2-4.9
			c0.8-1.4,1.9-2.5,3.3-3.5c1.4-0.9,3.2-1.6,5.3-2.1c2.1-0.5,4.4-0.7,7-0.7h4.6v-2.6c0-1.3-0.1-2.4-0.4-3.4c-0.3-1-0.7-1.8-1.3-2.5
			s-1.4-1.2-2.4-1.5c-1-0.3-2.2-0.5-3.6-0.5c-1.5,0-2.9,0.2-4.1,0.5c-1.2,0.4-2.3,0.8-3.2,1.2c-0.9,0.4-1.7,0.8-2.3,1.2
			c-0.6,0.4-1.1,0.5-1.4,0.5c-0.2,0-0.4,0-0.5-0.1c-0.1-0.1-0.3-0.2-0.4-0.4c-0.1-0.2-0.2-0.5-0.2-0.8c0-0.3-0.1-0.7-0.1-1
			c0-0.6,0-1.1,0.1-1.5c0.1-0.4,0.3-0.7,0.6-1c0.3-0.3,0.9-0.7,1.7-1.1c0.8-0.4,1.8-0.8,2.8-1.2c1.1-0.4,2.2-0.7,3.5-0.9
			c1.3-0.2,2.5-0.4,3.8-0.4c2.4,0,4.5,0.3,6.1,0.8c1.7,0.5,3,1.3,4.1,2.4c1,1.1,1.8,2.4,2.3,3.9c0.5,1.6,0.7,3.4,0.7,5.5V623.4z
			 M231.6,608.1h-5.2c-1.7,0-3.1,0.1-4.4,0.4c-1.2,0.3-2.3,0.7-3.1,1.3s-1.4,1.2-1.8,2c-0.4,0.8-0.6,1.7-0.6,2.7
			c0,1.7,0.6,3.1,1.7,4.1c1.1,1,2.6,1.5,4.6,1.5c1.6,0,3.1-0.4,4.5-1.2c1.4-0.8,2.8-2.1,4.3-3.8V608.1z"/>
		<path d="M255.1,623.4c0,0.2,0,0.4-0.1,0.5c-0.1,0.1-0.3,0.3-0.5,0.4c-0.2,0.1-0.5,0.2-0.9,0.2s-0.9,0.1-1.5,0.1
			c-0.6,0-1.1,0-1.5-0.1s-0.7-0.1-0.9-0.2c-0.2-0.1-0.4-0.2-0.5-0.4c-0.1-0.1-0.1-0.3-0.1-0.5v-49.7c0-0.2,0-0.4,0.1-0.5
			c0.1-0.1,0.2-0.3,0.5-0.4c0.2-0.1,0.6-0.2,0.9-0.2s0.9-0.1,1.5-0.1c0.6,0,1.1,0,1.5,0.1s0.7,0.1,0.9,0.2c0.2,0.1,0.4,0.2,0.5,0.4
			c0.1,0.1,0.1,0.3,0.1,0.5V623.4z"/>
	</g>
	<g class="st5">
		<path d="M321.3,602.9c0,0.5,0,0.9-0.1,1.2c-0.1,0.3-0.2,0.6-0.3,0.8c-0.1,0.2-0.3,0.4-0.4,0.5c-0.2,0.1-0.4,0.1-0.6,0.1h-12.2
			v13.5c0,0.2,0,0.4-0.1,0.5c-0.1,0.1-0.3,0.3-0.5,0.4c-0.2,0.1-0.5,0.2-0.8,0.2c-0.3,0.1-0.8,0.1-1.3,0.1c-0.5,0-0.9,0-1.3-0.1
			c-0.4-0.1-0.6-0.1-0.9-0.2c-0.2-0.1-0.4-0.2-0.5-0.4c-0.1-0.1-0.1-0.3-0.1-0.5v-13.5H290c-0.2,0-0.4,0-0.6-0.1s-0.3-0.3-0.4-0.5
			c-0.1-0.2-0.2-0.5-0.3-0.8c-0.1-0.3-0.1-0.7-0.1-1.2c0-0.4,0-0.8,0.1-1.2c0.1-0.3,0.2-0.6,0.3-0.8c0.1-0.2,0.3-0.4,0.4-0.5
			c0.2-0.1,0.3-0.1,0.5-0.1h12.2v-13.5c0-0.2,0-0.4,0.1-0.5c0.1-0.2,0.3-0.3,0.5-0.4c0.2-0.1,0.5-0.2,0.9-0.3
			c0.4-0.1,0.8-0.1,1.3-0.1c0.5,0,1,0,1.3,0.1c0.3,0.1,0.6,0.1,0.8,0.3c0.2,0.1,0.4,0.2,0.5,0.4c0.1,0.2,0.1,0.3,0.1,0.5v13.5h12.2
			c0.2,0,0.4,0,0.5,0.1c0.2,0.1,0.3,0.3,0.4,0.5c0.1,0.2,0.2,0.5,0.3,0.8C321.3,602.1,321.3,602.4,321.3,602.9z"/>
		<path d="M349.8,623.2c-0.1,0.3-0.2,0.5-0.4,0.7c-0.2,0.2-0.4,0.3-0.7,0.4c-0.3,0.1-0.7,0.2-1.2,0.2s-1.1,0.1-1.8,0.1
			c-0.5,0-1,0-1.4,0s-0.8,0-1.1-0.1s-0.6-0.1-0.8-0.2s-0.4-0.1-0.5-0.2c-0.1-0.1-0.3-0.2-0.4-0.4c-0.1-0.1-0.2-0.3-0.2-0.5
			l-15.7-44.7c-0.2-0.5-0.3-1-0.3-1.3c0-0.3,0.1-0.6,0.3-0.8c0.2-0.2,0.6-0.3,1.1-0.3s1.2-0.1,2-0.1c0.7,0,1.2,0,1.7,0.1
			s0.7,0.1,0.9,0.2c0.2,0.1,0.4,0.2,0.5,0.4c0.1,0.2,0.2,0.4,0.3,0.6l13.8,40.5h0l13.4-40.4c0.1-0.3,0.2-0.5,0.3-0.7
			c0.1-0.2,0.3-0.3,0.5-0.4c0.2-0.1,0.6-0.2,1-0.2s1-0.1,1.8-0.1c0.8,0,1.4,0,1.8,0.1c0.4,0.1,0.7,0.2,0.9,0.4
			c0.2,0.2,0.2,0.4,0.2,0.8c0,0.3-0.2,0.8-0.4,1.3L349.8,623.2z"/>
	</g>
	<g class="st5">
		<path class="st0" d="M64.6,57.1c0.2,0,0.5,0.1,0.7,0.2c0.2,0.1,0.4,0.3,0.5,0.6c0.1,0.3,0.2,0.7,0.3,1.2c0.1,0.5,0.1,1.2,0.1,2
			c0,1.1,0,1.9-0.1,2.6c-0.1,0.7-0.3,1.2-0.5,1.5c-0.2,0.3-0.5,0.6-0.8,0.8L35.4,87.5h29.3c0.2,0,0.4,0.1,0.6,0.2
			c0.2,0.1,0.3,0.3,0.5,0.6c0.1,0.3,0.2,0.7,0.3,1.2s0.1,1.1,0.1,1.9c0,0.7,0,1.3-0.1,1.9c-0.1,0.5-0.2,0.9-0.3,1.2
			c-0.1,0.3-0.3,0.5-0.5,0.6c-0.2,0.1-0.4,0.2-0.6,0.2H8.5c-0.2,0-0.5-0.1-0.6-0.2c-0.2-0.1-0.3-0.3-0.4-0.6
			c-0.1-0.3-0.2-0.7-0.3-1.2c-0.1-0.5-0.1-1.1-0.1-1.9c0-0.8,0-1.4,0.1-1.9c0.1-0.5,0.2-0.9,0.3-1.2c0.1-0.3,0.2-0.5,0.4-0.6
			c0.2-0.1,0.4-0.2,0.6-0.2h26l-26-20.7c-0.3-0.2-0.5-0.4-0.7-0.6c-0.2-0.2-0.3-0.5-0.4-0.9c-0.1-0.3-0.2-0.8-0.2-1.3
			c-0.1-0.5-0.1-1.1-0.1-1.9c0-0.8,0-1.4,0.1-1.9c0.1-0.5,0.2-0.9,0.3-1.2c0.1-0.3,0.3-0.5,0.5-0.6c0.2-0.1,0.4-0.2,0.6-0.2
			c0.4,0,0.8,0.1,1.2,0.3c0.4,0.2,0.9,0.6,1.6,1.1l23.2,19.4l27.8-20.9c0.8-0.5,1.3-0.8,1.6-0.9S64.5,57.1,64.6,57.1z"/>
		<path class="st0" d="M43.1,28.5h21.6c0.2,0,0.5,0.1,0.6,0.2c0.2,0.1,0.3,0.3,0.4,0.6c0.1,0.3,0.2,0.7,0.3,1.2s0.1,1.1,0.1,1.8
			c0,0.8,0,1.4-0.1,1.9s-0.2,0.9-0.3,1.2c-0.1,0.3-0.2,0.5-0.4,0.7c-0.2,0.1-0.4,0.2-0.6,0.2H43.1l-33,16.6
			c-0.7,0.3-1.2,0.5-1.6,0.6c-0.4,0.1-0.7,0-0.9-0.2C7.3,53,7.2,52.6,7.2,52c-0.1-0.6-0.1-1.4-0.1-2.4c0-0.9,0-1.6,0.1-2.2
			c0.1-0.6,0.1-1,0.2-1.3c0.1-0.3,0.3-0.6,0.5-0.7c0.2-0.2,0.4-0.3,0.7-0.5l16.8-8.1c1.6-0.8,3.3-1.5,5-2.3c1.8-0.8,3.5-1.5,5.3-2.3
			v-0.1c-1.7-0.7-3.4-1.4-5.1-2.1c-1.7-0.7-3.4-1.5-5-2.2L8.6,19.6c-0.3-0.1-0.6-0.2-0.8-0.4c-0.2-0.2-0.4-0.4-0.5-0.7
			c-0.1-0.3-0.2-0.7-0.2-1.2c-0.1-0.5-0.1-1.2-0.1-1.9c0-1.1,0-1.9,0.1-2.6c0.1-0.6,0.2-1,0.4-1.3c0.2-0.2,0.5-0.3,0.9-0.2
			c0.4,0.1,0.9,0.3,1.6,0.6L43.1,28.5z"/>
		<path class="st0" d="M43.1-10.2c1.2,0,2,0.1,2.4,0.4c0.5,0.3,0.7,0.7,0.7,1.2v18.9c0,0.5-0.2,1-0.7,1.2s-1.3,0.4-2.4,0.4
			c-1.1,0-1.9-0.1-2.4-0.4c-0.5-0.3-0.7-0.7-0.7-1.2V-8.7c0-0.2,0-0.5,0.1-0.7c0.1-0.2,0.3-0.4,0.5-0.5c0.3-0.1,0.6-0.2,1-0.3
			C42-10.2,42.5-10.2,43.1-10.2z"/>
		<path class="st0" d="M36.5-57.1c4.5,0,8.6,0.4,12.3,1.1c3.7,0.7,6.9,1.9,9.6,3.5s4.7,3.8,6.2,6.5c1.5,2.7,2.2,5.9,2.2,9.8
			c0,3.7-0.7,6.8-2,9.3c-1.3,2.5-3.2,4.5-5.8,6.1c-2.5,1.5-5.7,2.6-9.4,3.3c-3.7,0.6-8,1-12.8,1c-4.5,0-8.6-0.4-12.3-1.1
			c-3.7-0.7-6.9-1.9-9.6-3.5s-4.7-3.8-6.2-6.4c-1.5-2.7-2.2-5.9-2.2-9.8c0-3.7,0.7-6.8,2-9.3c1.3-2.5,3.2-4.5,5.8-6.1
			c2.6-1.5,5.7-2.6,9.4-3.3C27.4-56.8,31.7-57.1,36.5-57.1z M37-49.2c-2.9,0-5.6,0.1-7.9,0.3s-4.4,0.5-6.2,0.9
			c-1.8,0.4-3.3,0.9-4.6,1.6c-1.3,0.6-2.3,1.4-3.2,2.3s-1.4,1.9-1.8,3.1c-0.4,1.2-0.6,2.5-0.6,3.9c0,2.6,0.6,4.6,1.8,6.2
			c1.2,1.6,2.9,2.9,5,3.8c2.1,0.9,4.6,1.5,7.4,1.9c2.8,0.3,5.9,0.5,9.1,0.5c4.4,0,8.1-0.2,11.2-0.7c3.1-0.5,5.6-1.2,7.5-2.2
			c1.9-1,3.3-2.2,4.2-3.8c0.9-1.5,1.3-3.4,1.3-5.5c0-1.7-0.3-3.2-0.8-4.5c-0.5-1.3-1.3-2.4-2.3-3.3c-1-0.9-2.2-1.7-3.6-2.3
			c-1.4-0.6-3-1.1-4.7-1.4c-1.7-0.4-3.6-0.6-5.6-0.7S39.2-49.2,37-49.2z"/>
		<path class="st0" d="M62.8-102.3c0.6,0,1.1,0,1.4,0.1c0.4,0.1,0.7,0.2,1,0.4c0.2,0.2,0.4,0.3,0.5,0.5s0.2,0.4,0.2,0.6v30.6
			c0,0.2-0.1,0.4-0.2,0.6c-0.1,0.2-0.3,0.4-0.5,0.5c-0.2,0.2-0.6,0.3-1,0.4c-0.4,0.1-0.9,0.1-1.4,0.1c-0.5,0-1,0-1.4-0.1
			c-0.4-0.1-0.7-0.2-1-0.3c-0.3-0.1-0.5-0.3-0.6-0.5s-0.2-0.4-0.2-0.7v-12.2H15.1L21.9-71c0.3,0.6,0.5,1,0.5,1.4
			c0.1,0.3,0,0.6-0.2,0.8c-0.2,0.2-0.5,0.4-1,0.4c-0.5,0.1-1,0.1-1.7,0.1c-0.5,0-1,0-1.3-0.1c-0.4,0-0.7-0.1-0.9-0.2
			s-0.5-0.2-0.6-0.4c-0.2-0.2-0.4-0.4-0.5-0.7L7.5-83c-0.1-0.1-0.2-0.3-0.2-0.5c-0.1-0.2-0.1-0.4-0.2-0.7c-0.1-0.3-0.1-0.6-0.1-1
			c0-0.4,0-0.8,0-1.4c0-0.7,0-1.3,0.1-1.8c0.1-0.5,0.1-0.9,0.2-1.1c0.1-0.3,0.2-0.5,0.4-0.5c0.2-0.1,0.3-0.1,0.5-0.1h51.5v-10.6
			c0-0.2,0.1-0.5,0.2-0.7c0.1-0.2,0.3-0.4,0.6-0.5c0.3-0.1,0.6-0.2,1-0.3C61.8-102.3,62.3-102.3,62.8-102.3z"/>
		<path class="st0" d="M62.6-149.2c0.5,0,1,0,1.4,0.1c0.4,0.1,0.8,0.2,1.1,0.3c0.3,0.1,0.5,0.3,0.6,0.5c0.1,0.2,0.2,0.5,0.2,0.7
			v32.4c0,0.4-0.1,0.8-0.2,1.1s-0.3,0.6-0.5,0.8c-0.2,0.2-0.6,0.4-1,0.5c-0.5,0.1-1,0.2-1.7,0.2c-0.6,0-1.1,0-1.6-0.1
			c-0.5,0-0.9-0.1-1.2-0.3c-0.3-0.2-0.7-0.4-1-0.6c-0.3-0.2-0.7-0.5-1.1-0.9l-12-11.7c-2.8-2.7-5.3-4.9-7.5-6.5s-4.2-2.9-6-3.8
			c-1.8-0.9-3.5-1.5-4.9-1.7c-1.5-0.3-2.9-0.4-4.2-0.4c-1.3,0-2.5,0.2-3.7,0.7c-1.2,0.4-2.2,1.1-3.1,1.9c-0.9,0.8-1.6,1.9-2.1,3.1
			c-0.5,1.2-0.8,2.7-0.8,4.3c0,1.9,0.3,3.6,0.8,5.1c0.5,1.5,1.1,2.8,1.7,4c0.6,1.1,1.2,2.1,1.7,2.8c0.5,0.8,0.8,1.3,0.8,1.7
			c0,0.2-0.1,0.4-0.2,0.6c-0.1,0.2-0.3,0.3-0.6,0.4c-0.3,0.1-0.6,0.2-1.1,0.3c-0.5,0.1-1,0.1-1.6,0.1c-0.5,0-0.8,0-1.2,0
			s-0.6-0.1-0.9-0.2c-0.2-0.1-0.5-0.2-0.7-0.3c-0.2-0.1-0.5-0.4-0.8-0.7c-0.3-0.4-0.7-1-1.3-1.9c-0.5-0.9-1.1-2-1.6-3.4
			c-0.5-1.3-1-2.8-1.3-4.4c-0.4-1.6-0.5-3.3-0.5-5.1c0-2.8,0.4-5.3,1.2-7.4c0.8-2.1,1.9-3.9,3.3-5.3c1.4-1.4,3-2.5,4.8-3.1
			c1.8-0.7,3.8-1,5.9-1c1.9,0,3.7,0.2,5.6,0.5s3.9,1,6,2.1c2.2,1.1,4.6,2.6,7.2,4.6s5.7,4.7,9.1,8.1l9.7,9.3v-25.5
			c0-0.2,0.1-0.5,0.2-0.7c0.1-0.2,0.3-0.4,0.6-0.6c0.3-0.2,0.6-0.3,1-0.4C61.5-149.1,62-149.2,62.6-149.2z"/>
	</g>
	<g class="st5">
		<path class="st0" d="M160.6-199.4c0,0.6,0,1.1-0.1,1.5s-0.2,0.7-0.4,1s-0.3,0.5-0.5,0.6c-0.2,0.1-0.4,0.2-0.7,0.2H144v16.5
			c0,0.2-0.1,0.4-0.2,0.6c-0.1,0.2-0.3,0.3-0.6,0.4c-0.3,0.1-0.6,0.2-1,0.3s-1,0.1-1.6,0.1c-0.6,0-1.1,0-1.6-0.1
			c-0.4-0.1-0.8-0.2-1-0.3c-0.3-0.1-0.4-0.3-0.6-0.4c-0.1-0.2-0.2-0.4-0.2-0.6v-16.5h-14.8c-0.3,0-0.5-0.1-0.7-0.2
			c-0.2-0.1-0.4-0.3-0.5-0.6c-0.2-0.3-0.3-0.6-0.4-1s-0.1-0.9-0.1-1.5c0-0.5,0-1,0.1-1.4c0.1-0.4,0.2-0.7,0.4-1
			c0.2-0.3,0.3-0.5,0.5-0.6c0.2-0.1,0.4-0.2,0.7-0.2h14.9v-16.5c0-0.2,0.1-0.5,0.2-0.7c0.1-0.2,0.3-0.4,0.6-0.5
			c0.3-0.1,0.6-0.2,1-0.3c0.4-0.1,1-0.1,1.6-0.1c0.6,0,1.2,0,1.6,0.1s0.8,0.2,1,0.3c0.3,0.1,0.4,0.3,0.6,0.5
			c0.1,0.2,0.2,0.4,0.2,0.7v16.5h14.9c0.2,0,0.5,0.1,0.7,0.2c0.2,0.1,0.4,0.3,0.5,0.6c0.2,0.3,0.3,0.6,0.4,1
			C160.5-200.4,160.6-199.9,160.6-199.4z"/>
	</g>
	<g class="st5">
		<path class="st0" d="M519.7-196.2c0,1.2-0.2,2-0.6,2.4c-0.4,0.5-1,0.7-1.8,0.7H489c-0.8,0-1.4-0.2-1.8-0.7
			c-0.4-0.5-0.6-1.3-0.6-2.4c0-1.1,0.2-1.9,0.6-2.4c0.4-0.5,1-0.7,1.8-0.7h28.4c0.4,0,0.7,0,1,0.1c0.3,0.1,0.5,0.3,0.7,0.5
			c0.2,0.3,0.4,0.6,0.5,1C519.7-197.2,519.7-196.8,519.7-196.2z"/>
	</g>
	<circle id="path92" class="st6" cx="328.2" cy="-3.4" r="255.5"/>
	<circle id="path94" class="st3" cx="328.2" cy="-3.4" r="73"/>
	<g class="st5">
		<path class="st0" d="M573.4,352c0,1.2-0.3,2-1,2.4c-0.6,0.5-1.6,0.7-2.8,0.7h-44.8c-1.3,0-2.2-0.2-2.9-0.7c-0.6-0.5-1-1.3-1-2.4
			c0-1.1,0.3-1.9,1-2.4c0.6-0.5,1.6-0.7,2.9-0.7h44.8c0.6,0,1.1,0,1.6,0.1c0.5,0.1,0.9,0.3,1.2,0.5c0.3,0.3,0.6,0.6,0.8,1
			C573.3,351,573.4,351.5,573.4,352z"/>
	</g>
	<g class="st5">
		<path class="st0" d="M122.8,361.1c0,2.7-0.5,5.2-1.5,7.3c-1,2.1-2.4,4-4.2,5.5c-1.8,1.5-3.9,2.6-6.3,3.4c-2.4,0.8-5,1.1-7.9,1.1
			c-2,0-3.8-0.2-5.5-0.5c-1.7-0.3-3.2-0.7-4.5-1.2c-1.3-0.5-2.4-1-3.3-1.5c-0.9-0.5-1.5-1-1.9-1.3s-0.6-0.8-0.8-1.4
			c-0.2-0.6-0.2-1.3-0.2-2.2c0-0.7,0-1.2,0.1-1.7c0.1-0.4,0.2-0.8,0.3-1.1c0.1-0.3,0.3-0.5,0.5-0.6c0.2-0.1,0.4-0.2,0.6-0.2
			c0.4,0,1,0.3,1.8,0.8c0.8,0.5,1.8,1.1,3,1.7c1.2,0.6,2.7,1.2,4.4,1.7c1.7,0.5,3.7,0.8,5.9,0.8c1.7,0,3.2-0.2,4.6-0.7
			c1.4-0.5,2.6-1.1,3.6-1.9c1-0.8,1.8-1.8,2.3-3.1c0.5-1.2,0.8-2.6,0.8-4.1c0-1.7-0.4-3.1-1.1-4.3c-0.8-1.2-1.8-2.2-3-3.1
			c-1.2-0.9-2.6-1.7-4.2-2.4c-1.6-0.7-3.2-1.5-4.9-2.3c-1.7-0.8-3.3-1.6-4.8-2.6c-1.6-0.9-3-2-4.2-3.3s-2.2-2.8-3-4.5
			c-0.8-1.7-1.2-3.7-1.2-6.1c0-2.4,0.4-4.6,1.3-6.5c0.9-1.9,2.1-3.5,3.7-4.8c1.6-1.3,3.5-2.3,5.7-3c2.2-0.7,4.5-1,7.1-1
			c1.3,0,2.6,0.1,3.9,0.3c1.3,0.2,2.5,0.5,3.7,0.9c1.2,0.4,2.2,0.8,3.1,1.3s1.5,0.8,1.8,1.1c0.3,0.3,0.5,0.5,0.6,0.7
			c0.1,0.2,0.2,0.4,0.2,0.6c0.1,0.3,0.1,0.6,0.1,0.9c0,0.4,0,0.8,0,1.4c0,0.5,0,1-0.1,1.4c0,0.4-0.1,0.8-0.2,1.1
			c-0.1,0.3-0.2,0.5-0.4,0.6c-0.2,0.1-0.4,0.2-0.6,0.2c-0.3,0-0.9-0.2-1.6-0.6c-0.7-0.4-1.6-0.9-2.6-1.4c-1-0.5-2.2-1-3.6-1.4
			s-3-0.7-4.7-0.7c-1.6,0-3,0.2-4.3,0.7c-1.2,0.4-2.2,1-3,1.7c-0.8,0.7-1.4,1.6-1.8,2.6s-0.6,2.1-0.6,3.2c0,1.6,0.4,3,1.1,4.2
			c0.8,1.2,1.8,2.2,3,3.1c1.3,0.9,2.7,1.7,4.3,2.5c1.6,0.8,3.2,1.5,4.9,2.3c1.7,0.8,3.3,1.6,4.9,2.5c1.6,0.9,3,2,4.3,3.3
			c1.3,1.3,2.3,2.7,3,4.4S122.8,358.8,122.8,361.1z"/>
	</g>
</g>
</svg>
