<?xml version="1.0" encoding="utf-8"?>
<!-- Generator: Adobe Illustrator 27.8.0, SVG Export Plug-In . SVG Version: 6.00 Build 0)  -->
<svg version="1.1"
	 id="svg8" xmlns:svg="http://www.w3.org/2000/svg" xmlns:rdf="http://www.w3.org/1999/02/22-rdf-syntax-ns#" xmlns:sodipodi="http://sodipodi.sourceforge.net/DTD/sodipodi-0.dtd" xmlns:dc="http://purl.org/dc/elements/1.1/" xmlns:inkscape="http://www.inkscape.org/namespaces/inkscape" xmlns:cc="http://creativecommons.org/ns#" inkscape:export-xdpi="93" inkscape:export-ydpi="93" inkscape:version="0.92.4 (5da689c313, 2019-01-14)"
	 xmlns="http://www.w3.org/2000/svg" xmlns:xlink="http://www.w3.org/1999/xlink" x="0px" y="0px" viewBox="0 0 614 1081"
	 style="enable-background:new 0 0 614 1081;" xml:space="preserve">
<style type="text/css">
	.st0{fill:#FFFFFF;}
	.st1{fill:#1A1A1A;}
	.st2{opacity:0.99;fill:#808080;enable-background:new    ;}
	.st3{opacity:0.99;fill:#CCCCCC;enable-background:new    ;}
	.st4{opacity:0.99;fill:#FFFFFF;enable-background:new    ;}
	.st5{fill:#333333;}
	.st6{opacity:0.99;fill:#C87137;enable-background:new    ;}
	.st7{enable-background:new    ;}
</style>
<defs>
	
		<inkscape:perspective  id="perspective876" inkscape:persp3d-origin="105 : 98.999998 : 1" inkscape:vp_x="0 : 148.49998 : 1" inkscape:vp_y="0 : 999.99997 : 0" inkscape:vp_z="210.00001 : 148.49998 : 1" sodipodi:type="inkscape:persp3d">
		</inkscape:perspective>
</defs>
<sodipodi:namedview  bordercolor="#666666" borderopacity="1.0" id="base" inkscape:current-layer="layer1" inkscape:cx="659.87631" inkscape:cy="1807.7326" inkscape:document-units="mm" inkscape:lockguides="true" inkscape:pageopacity="0.0" inkscape:pageshadow="2" inkscape:window-height="987" inkscape:window-maximized="1" inkscape:window-width="1680" inkscape:window-x="1912" inkscape:window-y="-8" inkscape:zoom="0.175" pagecolor="#ffffff" showgrid="false" showguides="true" width="500mm">
	</sodipodi:namedview>
<g id="layer1" transform="translate(0.31582593,494.81107)" inkscape:groupmode="layer" inkscape:label="Ebene 1">
	<rect id="rect815" x="-0.3" y="-429.1" width="614.7" height="826.1"/>
	<rect id="rect821" x="145" y="262.5" class="st0" width="319.8" height="110.1"/>
	<path id="rect825" class="st1" d="M166,268.7h64.1c11.2,0,20.3,9.1,20.3,20.3v56.2c0,11.2-9.1,20.3-20.3,20.3H166
		c-11.2,0-20.3-9.1-20.3-20.3v-56.2C145.7,277.7,154.8,268.7,166,268.7z"/>
	<path id="rect872" class="st1" d="M379.6,268.7h64.1c11.2,0,20.3,9.1,20.3,20.3v56.2c0,11.2-9.1,20.3-20.3,20.3h-64.1
		c-11.2,0-20.3-9.1-20.3-20.3v-56.2C359.4,277.7,368.4,268.7,379.6,268.7z"/>
	<path id="rect874" class="st1" d="M270.2,268.7h69.3c9.7,0,17.6,7.9,17.6,17.6v61.5c0,9.7-7.9,17.6-17.6,17.6h-69.3
		c-9.7,0-17.6-7.9-17.6-17.6v-61.5C252.6,276.6,260.5,268.7,270.2,268.7z"/>
	<rect id="rect947" x="192.1" y="321.3" class="st2" width="11.6" height="201.8"/>
	<rect id="rect949" x="299.6" y="321.3" class="st2" width="11.6" height="201.8"/>
	<rect id="rect951" x="405.8" y="321.3" class="st2" width="11.6" height="201.8"/>
	<g id="flowRoot969" transform="translate(0,-45.541671)">
	</g>
	<circle id="path1456" class="st3" cx="85.6" cy="-127" r="55.9"/>
	<circle id="ellipse1458" class="st3" cx="522.3" cy="-127" r="55.9"/>
	<circle id="path1460" class="st4" cx="85.6" cy="-127" r="50.5"/>
	<circle id="ellipse1464" class="st4" cx="522.3" cy="-127" r="50.5"/>
	<g id="flowRoot1466" transform="translate(0,-45.541671)">
	</g>
	<g id="flowRoot1529" transform="translate(0,-45.541671)">
	</g>
	<rect id="rect87" x="86.1" y="146.7" width="437.6" height="110.1"/>
	<circle id="path91" class="st3" cx="144.3" cy="219.6" r="40.9"/>
	<circle id="circle93" class="st3" cx="463.6" cy="219.6" r="40.9"/>
	<path id="rect95" class="st3" d="M177.1,51.8h27.3c15.1,0,27.3,12.2,27.3,27.3v68.2c0,15.1-12.2,27.3-27.3,27.3h-27.3
		c-15.1,0-27.3-12.2-27.3-27.3V79.1C149.8,64,162,51.8,177.1,51.8z"/>
	<path id="rect97" class="st3" d="M409,51.8h27.3c15.1,0,27.3,12.2,27.3,27.3v68.2c0,15.1-12.2,27.3-27.3,27.3H409
		c-15.1,0-27.3-12.2-27.3-27.3V79.1C381.7,64,393.9,51.8,409,51.8z"/>
	<circle id="circle99" class="st3" cx="224.8" cy="5.4" r="40.9"/>
	<circle id="circle101" class="st3" cx="388.6" cy="5.4" r="40.9"/>
	<circle id="ellipse103" class="st4" cx="133.5" cy="2.7" r="50.5"/>
	<circle id="ellipse105" class="st4" cx="480" cy="2.7" r="50.5"/>
	<path id="rect111" class="st3" d="M177.1-172h27.3c15.1,0,27.3,12.2,27.3,27.3v68.2c0,15.1-12.2,27.3-27.3,27.3h-27.3
		c-15.1,0-27.3-12.2-27.3-27.3v-68.2C149.8-159.8,162-172,177.1-172z"/>
	<path id="rect113" class="st3" d="M409-172h27.3c15.1,0,27.3,12.2,27.3,27.3v68.2c0,15.1-12.2,27.3-27.3,27.3H409
		c-15.1,0-27.3-12.2-27.3-27.3v-68.2C381.7-159.8,393.9-172,409-172z"/>
	<circle id="circle115" class="st4" cx="190.7" cy="109.8" r="37.5"/>
	<circle id="circle117" class="st4" cx="422.7" cy="109.8" r="37.5"/>
	<circle id="circle119" class="st4" cx="144.3" cy="219.6" r="34.1"/>
	<circle id="circle121" class="st4" cx="463.6" cy="219.6" r="34.1"/>
	<circle id="circle123" class="st4" cx="190.7" cy="109.8" r="37.5"/>
	<circle id="circle125" class="st4" cx="190.7" cy="-114" r="37.5"/>
	<circle id="circle127" class="st4" cx="422.7" cy="-114" r="37.5"/>
	<circle id="circle129" class="st3" cx="138.9" cy="-267.5" r="40.9"/>
	<circle id="circle131" class="st4" cx="138.9" cy="-267.5" r="34.1"/>
	<circle id="circle133" class="st3" cx="474.5" cy="-267.5" r="40.9"/>
	<circle id="circle135" class="st4" cx="474.5" cy="-267.5" r="34.1"/>
	<rect id="rect139" x="204.4" y="-470.7" class="st5" width="204.7" height="20.5"/>
	<rect id="rect141" x="211.2" y="-489.5" class="st5" width="191" height="20.5"/>
	<polygon id="rect143" class="st5" points="190.7,-451.7 204.7,-460 221,-444.4 207,-436.1 	"/>
	<polygon id="rect145" class="st5" points="204.4,-471.5 211.3,-479.8 219.4,-464.2 212.5,-455.9 	"/>
	<polygon id="rect147" class="st5" points="409,-471.5 402.1,-479.8 393.9,-464.2 400.9,-455.9 	"/>
	<polygon id="rect149" class="st5" points="422.7,-451.7 408.7,-460 392.4,-444.4 406.3,-436.1 	"/>
	<rect id="rect151" x="383.1" y="10.8" inkscape:transform-center-y="0.11338496" class="st2" width="10.9" height="16.4">
	</rect>
	<polygon id="rect153" inkscape:transform-center-x="-29.860121" inkscape:transform-center-y="-1.1313005" class="st6" points="
		224.8,13.6 306.7,10.5 306.7,15.9 224.8,19 	">
	</polygon>
	<path id="path31-1" inkscape:connector-curvature="0" class="st0" d="M174.4-361.2c3.8-0.1,4.2-0.1,4.9-0.6c0.4-0.3,1-0.8,1.2-1.2
		c0.4-0.7,0.4-1.2,0.5-9l0.1-8.2l8.1,0l8.1,0v10.3c0,11.3-0.1,12.4-1.3,15.4c-1.5,3.9-3.8,5.7-8.5,6.8c-1.3,0.3-2.7,0.3-7.4,0.3
		c-3.2,0-6.8-0.1-7.9-0.2l-2-0.2l-0.1-6.7l-0.1-6.7L174.4-361.2L174.4-361.2z M251.7-338.2c69.3,0,86.3,0.1,83.5,0.4l-0.4,0l0.4,0.2
		c0.4,0.2,0.3,0.2-0.3,0.2c-0.5,0-0.3,0.1,0.7,0.2l1.4,0.1l-1.4,0.1c-0.8,0-1.3,0.1-1.1,0.2c0.3,0.1,0.4,0.4,0.4,1.9
		c0,1.8,0,1.8,0.6,1.9c0.4,0.1,0.3,0.1-0.3,0.1c-0.5,0-0.9,0.1-0.9,0.3c0,0.1-27.5,0.2-82,0.2h-82v-2.9v-2.9L251.7-338.2z
		 M189.3-401.3h8.2v6.7v6.7h-8.2h-8.2v-6.7v-6.7H189.3z M205.8-376.7c0.6-3.7,1.6-7.1,3.1-10c0.5-1.1,1.1-2,1.1-2.1
		c0.1-0.1,0.5-0.6,0.9-1.3c0.9-1.3,2.8-3.7,3.2-4c0.2-0.1,0.3-0.3,0.3-0.4c0-0.3,2-2.1,3.6-3.3c1.7-1.2,3.1-1.9,6.1-3
		c3.5-1.3,5.6-1.6,9.8-1.5c3.1,0.1,3.8,0.2,5.8,0.8c1.2,0.4,2.7,0.9,3.3,1.1s1.2,0.5,1.3,0.5c0.1,0,1,0.5,2,1
		c3.9,2.3,9.3,8.3,11.3,12.9c3.2,7.1,3.6,14.2,1.2,20.8c-1,2.8-1.8,4.3-3,6.3c-1.4,2.3-1.5,2.4-4.9,5.7c-3.9,3.8-6.6,5.4-11.7,6.8
		c-2.6,0.7-7.6,1-10.3,0.5c-3.5-0.6-8.2-2.5-11.1-4.7c-1.5-1.1-3.5-2.9-3.5-3.1c0-0.1-0.5-0.6-1.1-1.3c-2.9-3-6-8.9-7.1-13.7
		C205.9-370.6,205.6-375.4,205.8-376.7L205.8-376.7z M221.4-369.8c0.8,3.1,2.4,5.7,4.8,8.1c2.5,2.4,6.4,3.2,9.7,2.2
		c3.7-1.2,7.4-5.5,8.6-10.2c0.7-2.7,0.6-6.6-0.1-9.2c-1.1-3.7-3-6.6-5.7-8.5c-1.2-0.9-1.8-1.1-3.1-1.4c-2.8-0.5-5.6-0.2-7.6,0.8
		c-1.7,0.9-4,3.4-5.2,5.9C220.9-378.3,220.4-373.9,221.4-369.8L221.4-369.8z M267.4-401.2c0.1-0.1,3.8-0.1,8.2,0l7.9,0.1l0,7.3
		c0,6.9,0.1,7.4,0.5,8.6c1.2,3.1,4.9,4.8,8.2,3.7c1.7-0.6,2.8-1.5,3.7-3.1l0.7-1.4l0.1-7.6l0.1-7.6h8.2h8.2l-0.1,8.6
		c-0.1,8-0.1,8.7-0.6,10.3c-0.9,3.3-2.4,6.2-4.3,8.4c-0.5,0.6-0.9,1.1-0.9,1.2c0,0.3-2.1,2.1-3.9,3.5c-1.6,1.2-3.8,2.3-4.9,2.6
		c-0.3,0.1-1.5,0.4-2.5,0.7c-1.7,0.5-2.2,0.6-5.9,0.6c-3.7,0-4.1,0-6.2-0.6c-3.3-0.9-4.3-1.4-6.5-2.8c-2.5-1.6-4.5-3.6-6.2-6.2
		c-2.4-3.6-3.4-6.3-4-10.4C267-388.1,267.1-401.1,267.4-401.2L267.4-401.2z M290.3-360.9h13.4v6.9v6.9h-13.4h-13.4v-6.9v-6.9H290.3z
		 M313.2-411.8c0.1,0,0.2-0.4,0.2-0.8c0-0.8,0-0.8,1-1c0.6-0.1,23.2-0.1,50.4-0.1l49.4,0l-0.1,2.9l-0.1,2.9h-50.2
		c-27.6,0-50.3-0.1-50.5-0.1c-0.3-0.1-0.3-0.5-0.3-2C312.9-411,313-411.8,313.2-411.8L313.2-411.8z M335.7-378.8h17v6.8v6.8h-17h-17
		v-6.8v-6.8H335.7z M366.3-401.3h8.2v6.7v6.7h-8.2h-8.2v-6.7v-6.7H366.3z M366.3-381h8.2v17.3v17.3h-8.2h-8.2v-17.3V-381H366.3z
		 M398.9-401.3H416v6.7v6.7h-17.1h-17.1v-6.7v-6.7H398.9z M384.6-380c0.1-0.1,3.7-0.1,8.1-0.1l7.9,0l0.1,7.9
		c0.1,11.1-0.4,10.5,8,10.6l5.3,0.1v6.9v6.9l-2,0.2c-2.9,0.4-12.3,0.3-14.8-0.1c-4.4-0.7-7.2-2-9.1-4.3c-2-2.4-2.9-4.8-3.3-8.6
		C384.3-362.8,384.3-379.8,384.6-380L384.6-380z M425.7-407.8c0.4-1.4,1.2-2.8,2.1-3.6c3.7-3.3,8.2-3.6,11.8-0.9
		c1.7,1.3,2.1,1.8,2.9,3.3c0.6,1.2,0.6,1.5,0.6,3.6c0,2.1-0.1,2.4-0.6,3.7c-1.2,2.7-4.4,4.8-7.5,5c-2.9,0.2-5.1-0.6-7.3-2.8
		C425.7-401.6,424.8-405,425.7-407.8L425.7-407.8z M427.3-402.2c0.7,1.8,3.1,3.5,5.4,4.1c2.4,0.6,4.2,0.1,6.9-1.9
		c0.7-0.5,1.1-1.1,1.7-2.1c0.6-1.3,0.7-1.7,0.7-3.4c0-1.7-0.1-2-0.8-3.4c-0.6-1.2-1-1.7-2.1-2.4c-0.7-0.5-1.8-1.1-2.4-1.3
		c-3.7-1.3-8.2,0.8-9.7,4.4C426.4-406.8,426.6-403.8,427.3-402.2L427.3-402.2z M433.3-410.7c1.7,0,3.3,0.1,3.6,0.2
		c1.3,0.5,1.9,3,1,4.2c-0.2,0.3-0.8,0.7-1.2,0.8l-0.8,0.3l0.8,0.8c0.4,0.5,1.1,1.4,1.4,2c0.4,0.7,0.8,1.3,0.9,1.3
		c0.5,0.3,0.1,0.5-0.7,0.5l-0.9,0l-1.3-2.1c-1.4-2.2-1.8-2.5-3.3-2.5h-1v2.3v2.3l-0.7-0.1l-0.7-0.1l-0.1-5.1l-0.1-5.1L433.3-410.7z
		 M433.7-406.3c1.6,0,2.1-0.1,2.5-0.5c1.2-0.9,0.5-2.5-1.2-2.7c-0.7-0.1-2.8,0-3.2,0.1c0,0-0.1,0.7-0.1,1.5v1.5L433.7-406.3z"/>
	<rect id="rect137" x="190.7" y="-451.7" class="st5" width="232" height="463.9"/>
	<g class="st7">
		<path d="M406.1,534c0,0.4,0,0.8-0.1,1.2c0,0.3-0.1,0.6-0.2,0.8c-0.1,0.2-0.2,0.4-0.3,0.5c-0.1,0.1-0.3,0.1-0.5,0.1
			c-0.3,0-0.7-0.2-1.4-0.7c-0.6-0.4-1.5-0.9-2.6-1.5s-2.4-1-3.9-1.5c-1.5-0.4-3.3-0.7-5.4-0.7c-2.5,0-4.7,0.5-6.7,1.4
			c-2,0.9-3.6,2.2-5,3.8s-2.4,3.5-3.1,5.7c-0.7,2.2-1.1,4.6-1.1,7.2c0,2.9,0.4,5.4,1.2,7.6c0.8,2.2,1.9,4.1,3.3,5.6
			c1.4,1.5,3.1,2.7,5.1,3.5c2,0.8,4.1,1.2,6.4,1.2c1.4,0,2.8-0.2,4.2-0.5c1.4-0.3,2.8-0.8,4-1.5v-13.1h-10.4c-0.4,0-0.7-0.2-0.9-0.6
			c-0.2-0.4-0.3-1-0.3-1.8c0-0.4,0-0.8,0.1-1.1c0-0.3,0.1-0.6,0.2-0.8c0.1-0.2,0.2-0.3,0.4-0.4c0.1-0.1,0.3-0.1,0.5-0.1h14.3
			c0.3,0,0.5,0,0.8,0.1s0.5,0.2,0.7,0.4c0.2,0.2,0.4,0.4,0.5,0.8s0.2,0.7,0.2,1.1v17.1c0,0.6-0.1,1.1-0.3,1.6
			c-0.2,0.4-0.6,0.8-1.3,1.2s-1.5,0.7-2.6,1.1c-1.1,0.4-2.2,0.7-3.3,1c-1.1,0.3-2.3,0.5-3.4,0.6c-1.2,0.1-2.3,0.2-3.4,0.2
			c-3.5,0-6.6-0.5-9.3-1.6c-2.7-1.1-5-2.6-6.9-4.6c-1.9-2-3.3-4.4-4.3-7.2c-1-2.8-1.5-5.9-1.5-9.3c0-3.6,0.5-6.8,1.6-9.7
			c1.1-2.9,2.6-5.4,4.6-7.4c2-2,4.3-3.6,7.1-4.7c2.7-1.1,5.8-1.7,9.1-1.7c1.7,0,3.3,0.2,4.8,0.5c1.5,0.3,2.8,0.7,4,1.1
			c1.2,0.4,2.2,0.8,3,1.3c0.8,0.5,1.3,0.9,1.7,1.2c0.3,0.3,0.5,0.6,0.6,1C406,532.7,406.1,533.3,406.1,534z"/>
		<path d="M451.2,570.4c0,0.5-0.1,0.9-0.2,1.2c-0.2,0.3-0.4,0.6-0.6,0.8c-0.3,0.2-0.5,0.4-0.8,0.5c-0.3,0.1-0.6,0.1-0.9,0.1h-2
			c-0.6,0-1.2-0.1-1.6-0.2c-0.5-0.1-0.9-0.4-1.3-0.7c-0.4-0.3-0.8-0.8-1.3-1.4c-0.4-0.6-0.9-1.3-1.3-2.2l-13.7-25.6
			c-0.7-1.3-1.4-2.7-2.2-4.2c-0.7-1.4-1.4-2.9-2-4.2H423c0,1.7,0.1,3.4,0.1,5.1c0,1.7,0,3.5,0,5.2V572c0,0.2,0,0.3-0.1,0.5
			c-0.1,0.2-0.3,0.3-0.5,0.3s-0.5,0.2-0.9,0.2c-0.4,0.1-0.9,0.1-1.4,0.1s-1.1,0-1.4-0.1c-0.4-0.1-0.7-0.1-0.9-0.2
			c-0.2-0.1-0.4-0.2-0.5-0.3c-0.1-0.2-0.1-0.3-0.1-0.5v-41.5c0-0.9,0.3-1.6,0.8-2c0.5-0.4,1.1-0.6,1.7-0.6h2.9
			c0.7,0,1.3,0.1,1.7,0.2s0.9,0.3,1.3,0.6c0.4,0.3,0.7,0.6,1.1,1.1c0.3,0.5,0.7,1.1,1.1,1.8l10.5,19.7c0.6,1.2,1.3,2.4,1.9,3.5
			c0.6,1.1,1.2,2.3,1.7,3.4s1.1,2.2,1.7,3.3c0.5,1.1,1.1,2.2,1.6,3.2h0c0-1.8-0.1-3.7-0.1-5.7s0-3.9,0-5.7v-24.4
			c0-0.2,0-0.3,0.1-0.5c0.1-0.1,0.3-0.3,0.5-0.4c0.2-0.1,0.5-0.2,0.9-0.2c0.4,0,0.9-0.1,1.5-0.1c0.5,0,1,0,1.4,0.1
			c0.4,0,0.7,0.1,0.9,0.2c0.2,0.1,0.4,0.2,0.5,0.4c0.1,0.1,0.1,0.3,0.1,0.5V570.4z"/>
		<path d="M497.7,549.8c0,3.9-0.5,7.3-1.5,10.2s-2.5,5.3-4.4,7.2c-1.9,1.9-4.3,3.3-7,4.3c-2.8,1-6.1,1.4-9.9,1.4h-9.5
			c-0.5,0-1-0.2-1.5-0.5c-0.5-0.4-0.7-1-0.7-1.9v-40.1c0-0.9,0.2-1.5,0.7-1.9c0.5-0.4,1-0.5,1.5-0.5h10.2c3.9,0,7.2,0.5,9.9,1.5
			s4.9,2.5,6.8,4.3c1.8,1.9,3.2,4.2,4.1,6.9C497.3,543.3,497.7,546.4,497.7,549.8z M491.4,550c0-2.4-0.3-4.7-0.9-6.8
			c-0.6-2.1-1.5-3.9-2.8-5.4s-2.9-2.7-4.9-3.6c-2-0.9-4.5-1.3-7.6-1.3h-6.1v35h6.2c2.9,0,5.3-0.4,7.3-1.1c2-0.7,3.6-1.8,4.9-3.3
			c1.3-1.5,2.3-3.3,3-5.6C491.1,555.7,491.4,553.1,491.4,550z"/>
	</g>
	<g class="st7">
		<path d="M300.8,553.3c0,0.4,0,0.8-0.1,1.1c-0.1,0.3-0.2,0.6-0.3,0.8c-0.1,0.2-0.3,0.4-0.4,0.5s-0.3,0.1-0.5,0.1h-11.4v12.7
			c0,0.2,0,0.3-0.1,0.5c-0.1,0.1-0.2,0.2-0.4,0.3c-0.2,0.1-0.5,0.2-0.8,0.2c-0.3,0.1-0.7,0.1-1.2,0.1c-0.5,0-0.9,0-1.2-0.1
			s-0.6-0.1-0.8-0.2c-0.2-0.1-0.3-0.2-0.4-0.3c-0.1-0.1-0.1-0.3-0.1-0.5v-12.7h-11.4c-0.2,0-0.4,0-0.5-0.1c-0.2-0.1-0.3-0.2-0.4-0.5
			c-0.1-0.2-0.2-0.5-0.3-0.8c-0.1-0.3-0.1-0.7-0.1-1.1c0-0.4,0-0.8,0.1-1.1c0.1-0.3,0.2-0.6,0.3-0.8c0.1-0.2,0.2-0.4,0.4-0.5
			c0.2-0.1,0.3-0.1,0.5-0.1H283v-12.7c0-0.2,0-0.4,0.1-0.5c0.1-0.2,0.2-0.3,0.4-0.4c0.2-0.1,0.5-0.2,0.8-0.2
			c0.3-0.1,0.7-0.1,1.2-0.1c0.5,0,0.9,0,1.2,0.1c0.3,0.1,0.6,0.1,0.8,0.2c0.2,0.1,0.3,0.2,0.4,0.4c0.1,0.2,0.1,0.3,0.1,0.5v12.7
			h11.4c0.2,0,0.4,0,0.5,0.1c0.2,0.1,0.3,0.2,0.4,0.5c0.1,0.2,0.2,0.5,0.3,0.8C300.8,552.5,300.8,552.9,300.8,553.3z"/>
		<path d="M327.4,572.3c-0.1,0.3-0.2,0.5-0.4,0.6c-0.2,0.2-0.4,0.3-0.7,0.4c-0.3,0.1-0.7,0.2-1.1,0.2c-0.5,0-1,0.1-1.7,0.1
			c-0.5,0-1,0-1.3,0c-0.4,0-0.7,0-1-0.1c-0.3,0-0.5-0.1-0.7-0.2c-0.2-0.1-0.4-0.1-0.5-0.2c-0.1-0.1-0.2-0.2-0.3-0.3
			c-0.1-0.1-0.2-0.3-0.2-0.5l-14.7-41.8c-0.2-0.5-0.3-0.9-0.3-1.2c0-0.3,0.1-0.5,0.3-0.7c0.2-0.2,0.5-0.3,1-0.3
			c0.5,0,1.1-0.1,1.9-0.1c0.6,0,1.2,0,1.5,0.1c0.4,0,0.7,0.1,0.9,0.2c0.2,0.1,0.4,0.2,0.5,0.4c0.1,0.2,0.2,0.3,0.3,0.6l12.9,37.9h0
			l12.5-37.8c0.1-0.3,0.2-0.5,0.2-0.6s0.3-0.3,0.5-0.4c0.2-0.1,0.6-0.2,1-0.2c0.4,0,1-0.1,1.7-0.1c0.7,0,1.3,0,1.7,0.1
			c0.4,0.1,0.7,0.2,0.9,0.3c0.2,0.2,0.2,0.4,0.2,0.7c0,0.3-0.1,0.7-0.3,1.2L327.4,572.3z"/>
	</g>
	<g class="st7">
		<path d="M107.6,560.7c0,2.1-0.4,4-1.2,5.6s-1.9,3-3.2,4.2c-1.4,1.1-3,2-4.9,2.6c-1.9,0.6-3.9,0.9-6,0.9c-1.5,0-2.9-0.1-4.2-0.4
			c-1.3-0.3-2.4-0.6-3.4-0.9s-1.9-0.8-2.5-1.1c-0.7-0.4-1.2-0.7-1.4-1s-0.5-0.6-0.6-1.1c-0.1-0.4-0.2-1-0.2-1.7c0-0.5,0-0.9,0.1-1.3
			c0-0.3,0.1-0.6,0.2-0.8c0.1-0.2,0.2-0.4,0.3-0.4s0.3-0.1,0.5-0.1c0.3,0,0.8,0.2,1.4,0.6c0.6,0.4,1.3,0.8,2.3,1.3
			c0.9,0.5,2,0.9,3.4,1.3c1.3,0.4,2.8,0.6,4.5,0.6c1.3,0,2.5-0.2,3.6-0.5s2-0.8,2.8-1.5c0.8-0.6,1.4-1.4,1.8-2.3s0.6-2,0.6-3.2
			c0-1.3-0.3-2.4-0.9-3.3c-0.6-0.9-1.3-1.7-2.3-2.4c-1-0.7-2-1.3-3.2-1.9c-1.2-0.6-2.5-1.1-3.7-1.7c-1.3-0.6-2.5-1.2-3.7-2
			c-1.2-0.7-2.3-1.6-3.2-2.5c-1-1-1.7-2.1-2.3-3.4c-0.6-1.3-0.9-2.9-0.9-4.7c0-1.9,0.3-3.6,1-5s1.6-2.7,2.9-3.7s2.7-1.8,4.3-2.3
			c1.7-0.5,3.5-0.8,5.4-0.8c1,0,2,0.1,3,0.3c1,0.2,2,0.4,2.8,0.7c0.9,0.3,1.7,0.6,2.4,1s1.2,0.6,1.4,0.9c0.2,0.2,0.4,0.4,0.4,0.5
			c0.1,0.1,0.1,0.3,0.2,0.5c0,0.2,0.1,0.4,0.1,0.7s0,0.6,0,1.1c0,0.4,0,0.8-0.1,1.1c0,0.3-0.1,0.6-0.2,0.8c-0.1,0.2-0.2,0.4-0.3,0.5
			c-0.1,0.1-0.3,0.2-0.4,0.2c-0.3,0-0.7-0.2-1.2-0.5c-0.5-0.3-1.2-0.7-2-1.1s-1.7-0.8-2.8-1.1c-1.1-0.3-2.3-0.5-3.6-0.5
			c-1.3,0-2.3,0.2-3.3,0.5s-1.7,0.8-2.3,1.3c-0.6,0.6-1.1,1.2-1.4,2c-0.3,0.8-0.5,1.6-0.5,2.4c0,1.3,0.3,2.3,0.9,3.2
			c0.6,0.9,1.3,1.7,2.3,2.4s2.1,1.3,3.3,1.9c1.2,0.6,2.5,1.2,3.8,1.8s2.5,1.2,3.8,1.9c1.2,0.7,2.3,1.5,3.3,2.5c1,1,1.7,2.1,2.3,3.4
			C107.3,557.4,107.6,558.9,107.6,560.7z"/>
		<path d="M121.9,530.6c0,1.3-0.3,2.3-0.8,2.7c-0.5,0.5-1.4,0.7-2.8,0.7c-1.3,0-2.3-0.2-2.8-0.7c-0.5-0.5-0.7-1.4-0.7-2.7
			c0-1.3,0.3-2.3,0.8-2.7c0.5-0.5,1.4-0.7,2.8-0.7c1.3,0,2.3,0.2,2.8,0.7C121.7,528.4,121.9,529.3,121.9,530.6z M121.3,572.5
			c0,0.2,0,0.3-0.1,0.5c-0.1,0.1-0.2,0.2-0.5,0.3c-0.2,0.1-0.5,0.2-0.9,0.2c-0.4,0-0.8,0.1-1.4,0.1c-0.6,0-1,0-1.4-0.1
			c-0.4,0-0.7-0.1-0.9-0.2c-0.2-0.1-0.4-0.2-0.5-0.3c-0.1-0.1-0.1-0.3-0.1-0.5v-31.3c0-0.2,0-0.3,0.1-0.5c0.1-0.1,0.2-0.3,0.5-0.3
			c0.2-0.1,0.5-0.2,0.9-0.2c0.4,0,0.8-0.1,1.4-0.1c0.6,0,1.1,0,1.4,0.1c0.4,0,0.7,0.1,0.9,0.2c0.2,0.1,0.4,0.2,0.5,0.3
			c0.1,0.1,0.1,0.3,0.1,0.5V572.5z"/>
		<path d="M158,542.6c0,0.8-0.1,1.4-0.3,1.8c-0.2,0.4-0.5,0.5-0.9,0.5h-4.5c0.8,0.8,1.4,1.8,1.7,2.8c0.3,1,0.5,2.1,0.5,3.1
			c0,1.8-0.3,3.4-0.9,4.8c-0.6,1.4-1.4,2.6-2.5,3.5c-1.1,1-2.4,1.7-3.8,2.2c-1.5,0.5-3.1,0.8-4.9,0.8c-1.3,0-2.5-0.2-3.6-0.5
			c-1.1-0.3-2-0.8-2.7-1.3c-0.4,0.4-0.8,0.9-1,1.4s-0.4,1.1-0.4,1.8c0,0.8,0.4,1.5,1.1,2s1.8,0.8,3,0.9l8.2,0.3c1.6,0,3,0.3,4.3,0.6
			c1.3,0.4,2.4,0.9,3.4,1.6c1,0.7,1.7,1.6,2.2,2.6s0.8,2.2,0.8,3.6c0,1.4-0.3,2.8-0.9,4.1c-0.6,1.3-1.5,2.4-2.8,3.4
			c-1.2,1-2.8,1.8-4.7,2.3c-1.9,0.6-4.2,0.9-6.8,0.9c-2.5,0-4.7-0.2-6.4-0.6s-3.2-1-4.4-1.8c-1.1-0.7-2-1.6-2.5-2.7
			c-0.5-1-0.8-2.1-0.8-3.4c0-0.8,0.1-1.5,0.3-2.2c0.2-0.7,0.5-1.4,0.9-2.1c0.4-0.6,0.9-1.3,1.4-1.9c0.6-0.6,1.2-1.2,2-1.8
			c-1.1-0.6-2-1.3-2.5-2.2c-0.5-0.9-0.8-1.8-0.8-2.9c0-1.4,0.3-2.7,0.9-3.8c0.6-1.1,1.3-2.1,2.2-3c-0.7-0.9-1.3-1.8-1.7-2.9
			s-0.6-2.4-0.6-3.9c0-1.8,0.3-3.4,0.9-4.8c0.6-1.4,1.4-2.6,2.5-3.6c1.1-1,2.3-1.7,3.8-2.2c1.5-0.5,3.1-0.8,4.9-0.8
			c1,0,1.8,0.1,2.7,0.2c0.8,0.1,1.6,0.2,2.3,0.4h9.5c0.4,0,0.7,0.2,0.9,0.6S158,541.8,158,542.6z M151.9,575.6
			c0-1.3-0.6-2.4-1.7-3.1c-1.1-0.7-2.6-1.1-4.5-1.2l-8.1-0.3c-0.7,0.6-1.4,1.1-1.8,1.7c-0.5,0.5-0.9,1-1.1,1.5
			c-0.3,0.5-0.5,0.9-0.6,1.4s-0.2,0.9-0.2,1.4c0,1.5,0.8,2.6,2.3,3.4c1.5,0.8,3.7,1.2,6.4,1.2c1.7,0,3.2-0.2,4.4-0.5
			s2.1-0.8,2.8-1.3c0.7-0.6,1.2-1.2,1.5-1.9C151.8,577.2,151.9,576.4,151.9,575.6z M149,550.8c0-2.1-0.6-3.8-1.8-5s-2.8-1.8-5-1.8
			c-1.1,0-2.1,0.2-2.9,0.6c-0.8,0.4-1.5,0.9-2.1,1.5c-0.5,0.6-1,1.4-1.2,2.2c-0.3,0.8-0.4,1.7-0.4,2.7c0,2.1,0.6,3.7,1.8,4.9
			s2.8,1.8,4.9,1.8c1.1,0,2.1-0.2,3-0.5c0.8-0.4,1.5-0.9,2.1-1.5c0.5-0.6,1-1.4,1.2-2.2S149,551.7,149,550.8z"/>
		<path d="M192.3,572.5c0,0.2,0,0.3-0.1,0.5s-0.2,0.2-0.5,0.3c-0.2,0.1-0.5,0.2-0.9,0.2c-0.4,0-0.8,0.1-1.4,0.1
			c-0.6,0-1.1,0-1.4-0.1c-0.4,0-0.7-0.1-0.9-0.2c-0.2-0.1-0.4-0.2-0.5-0.3c-0.1-0.1-0.1-0.3-0.1-0.5v-18.3c0-1.8-0.1-3.2-0.4-4.3
			c-0.3-1.1-0.7-2-1.2-2.8c-0.5-0.8-1.2-1.4-2.1-1.8c-0.8-0.4-1.8-0.6-2.9-0.6c-1.4,0-2.9,0.5-4.3,1.5s-2.9,2.5-4.5,4.5v21.9
			c0,0.2,0,0.3-0.1,0.5c-0.1,0.1-0.2,0.2-0.5,0.3c-0.2,0.1-0.5,0.2-0.9,0.2c-0.4,0-0.8,0.1-1.4,0.1c-0.6,0-1,0-1.4-0.1
			c-0.4,0-0.7-0.1-0.9-0.2c-0.2-0.1-0.4-0.2-0.5-0.3c-0.1-0.1-0.1-0.3-0.1-0.5v-31.3c0-0.2,0-0.3,0.1-0.5s0.2-0.2,0.4-0.3
			c0.2-0.1,0.5-0.2,0.8-0.2c0.3,0,0.8-0.1,1.3-0.1c0.5,0,0.9,0,1.3,0.1c0.3,0,0.6,0.1,0.8,0.2c0.2,0.1,0.3,0.2,0.4,0.3
			s0.1,0.3,0.1,0.5v4.1c1.8-2,3.5-3.4,5.3-4.3c1.7-0.9,3.5-1.4,5.3-1.4c2.1,0,3.8,0.4,5.3,1.1c1.4,0.7,2.6,1.7,3.5,2.8
			s1.5,2.6,1.9,4.2c0.4,1.6,0.6,3.5,0.6,5.7V572.5z"/>
		<path d="M226.3,572.5c0,0.3-0.1,0.5-0.3,0.6c-0.2,0.1-0.4,0.2-0.8,0.3s-0.8,0.1-1.4,0.1c-0.6,0-1.1,0-1.4-0.1
			c-0.4-0.1-0.6-0.2-0.8-0.3c-0.2-0.1-0.2-0.3-0.2-0.6v-3.1c-1.4,1.5-2.9,2.6-4.6,3.4c-1.7,0.8-3.5,1.2-5.3,1.2
			c-1.6,0-3.1-0.2-4.5-0.6s-2.5-1-3.4-1.9c-0.9-0.8-1.7-1.8-2.2-3c-0.5-1.2-0.8-2.5-0.8-4c0-1.8,0.4-3.3,1.1-4.6
			c0.7-1.3,1.8-2.4,3.1-3.2s3-1.5,4.9-1.9c1.9-0.4,4.1-0.6,6.6-0.6h4.3v-2.4c0-1.2-0.1-2.3-0.4-3.2c-0.3-0.9-0.7-1.7-1.2-2.3
			c-0.6-0.6-1.3-1.1-2.2-1.4c-0.9-0.3-2-0.5-3.3-0.5c-1.4,0-2.7,0.2-3.8,0.5s-2.1,0.7-3,1.1c-0.8,0.4-1.6,0.8-2.1,1.1
			c-0.6,0.3-1,0.5-1.3,0.5c-0.2,0-0.3,0-0.5-0.1c-0.1-0.1-0.3-0.2-0.4-0.4c-0.1-0.2-0.2-0.4-0.2-0.7c0-0.3-0.1-0.6-0.1-1
			c0-0.6,0-1,0.1-1.4c0.1-0.3,0.3-0.7,0.6-1c0.3-0.3,0.9-0.7,1.6-1.1s1.6-0.8,2.6-1.1c1-0.3,2.1-0.6,3.3-0.8
			c1.2-0.2,2.4-0.3,3.6-0.3c2.2,0,4.2,0.3,5.7,0.8c1.6,0.5,2.9,1.3,3.8,2.2c1,1,1.7,2.2,2.1,3.7c0.4,1.5,0.7,3.2,0.7,5.1V572.5z
			 M220.6,558.2h-4.9c-1.6,0-2.9,0.1-4.1,0.4c-1.2,0.3-2.1,0.7-2.9,1.2s-1.3,1.1-1.7,1.9c-0.4,0.7-0.5,1.6-0.5,2.5
			c0,1.6,0.5,2.9,1.5,3.9c1,1,2.5,1.4,4.3,1.4c1.5,0,2.9-0.4,4.2-1.1s2.6-1.9,4-3.5V558.2z"/>
		<path d="M242.6,572.5c0,0.2,0,0.3-0.1,0.5c-0.1,0.1-0.2,0.2-0.5,0.3c-0.2,0.1-0.5,0.2-0.9,0.2c-0.4,0-0.8,0.1-1.4,0.1
			c-0.6,0-1,0-1.4-0.1c-0.4,0-0.7-0.1-0.9-0.2c-0.2-0.1-0.4-0.2-0.5-0.3c-0.1-0.1-0.1-0.3-0.1-0.5V526c0-0.2,0-0.3,0.1-0.5
			c0.1-0.1,0.2-0.3,0.5-0.3c0.2-0.1,0.5-0.2,0.9-0.2c0.4,0,0.8-0.1,1.4-0.1c0.6,0,1.1,0,1.4,0.1c0.4,0,0.7,0.1,0.9,0.2
			c0.2,0.1,0.4,0.2,0.5,0.3c0.1,0.1,0.1,0.3,0.1,0.5V572.5z"/>
	</g>
	<g class="st7">
		<path class="st0" d="M67.1,144c0.2,0,0.4,0,0.6,0.1c0.2,0.1,0.3,0.3,0.4,0.6c0.1,0.3,0.2,0.7,0.3,1.1c0.1,0.5,0.1,1.1,0.1,1.9
			c0,1,0,1.8-0.1,2.4c-0.1,0.6-0.2,1.1-0.5,1.4c-0.2,0.3-0.5,0.6-0.8,0.8l-27.4,20.1h27.4c0.2,0,0.4,0.1,0.6,0.2
			c0.2,0.1,0.3,0.3,0.4,0.6c0.1,0.3,0.2,0.7,0.3,1.1c0.1,0.5,0.1,1.1,0.1,1.8c0,0.7,0,1.3-0.1,1.7c-0.1,0.5-0.2,0.9-0.3,1.1
			c-0.1,0.3-0.2,0.5-0.4,0.6c-0.2,0.1-0.4,0.2-0.6,0.2H14.6c-0.2,0-0.4-0.1-0.6-0.2c-0.2-0.1-0.3-0.3-0.4-0.6
			c-0.1-0.3-0.2-0.7-0.3-1.1c-0.1-0.5-0.1-1.1-0.1-1.7c0-0.7,0-1.3,0.1-1.8c0.1-0.5,0.2-0.8,0.3-1.1c0.1-0.3,0.2-0.5,0.4-0.6
			c0.2-0.1,0.4-0.2,0.6-0.2H39l-24.3-19.4c-0.3-0.2-0.5-0.4-0.6-0.6s-0.3-0.5-0.4-0.8c-0.1-0.3-0.2-0.7-0.2-1.2
			c-0.1-0.5-0.1-1.1-0.1-1.8s0-1.3,0.1-1.8s0.2-0.8,0.3-1.1c0.1-0.3,0.3-0.5,0.4-0.5c0.2-0.1,0.4-0.1,0.5-0.1c0.4,0,0.7,0.1,1.1,0.3
			c0.4,0.2,0.9,0.5,1.5,1L39,164.6l26-19.5c0.7-0.5,1.2-0.8,1.5-0.9C66.7,144.1,66.9,144,67.1,144z"/>
		<path class="st0" d="M47,117.3h20.2c0.2,0,0.4,0.1,0.6,0.2s0.3,0.3,0.4,0.6s0.2,0.7,0.3,1.1c0.1,0.5,0.1,1.1,0.1,1.7
			c0,0.7,0,1.3-0.1,1.7c-0.1,0.5-0.2,0.8-0.3,1.1c-0.1,0.3-0.2,0.5-0.4,0.6s-0.4,0.2-0.6,0.2H47l-30.9,15.5
			c-0.6,0.3-1.2,0.5-1.5,0.6s-0.6,0-0.8-0.2c-0.2-0.2-0.3-0.6-0.4-1.1c-0.1-0.5-0.1-1.3-0.1-2.2c0-0.8,0-1.5,0.1-2.1
			c0.1-0.5,0.1-0.9,0.2-1.2c0.1-0.3,0.2-0.5,0.4-0.7s0.4-0.3,0.7-0.4l15.7-7.6c1.5-0.7,3.1-1.4,4.7-2.1c1.6-0.7,3.3-1.4,4.9-2.1
			v-0.1c-1.6-0.6-3.2-1.3-4.8-2c-1.6-0.7-3.2-1.4-4.7-2.1L14.8,109c-0.3-0.1-0.5-0.2-0.7-0.4c-0.2-0.2-0.3-0.4-0.4-0.6
			c-0.1-0.3-0.2-0.6-0.2-1.1c-0.1-0.5-0.1-1.1-0.1-1.8c0-1,0-1.8,0.1-2.4s0.2-1,0.4-1.2c0.2-0.2,0.5-0.3,0.8-0.2
			c0.4,0.1,0.9,0.3,1.5,0.6L47,117.3z"/>
		<path class="st0" d="M46.9,81.1c1.1,0,1.9,0.1,2.3,0.4s0.6,0.6,0.6,1.1v17.7c0,0.5-0.2,0.9-0.7,1.1s-1.2,0.4-2.3,0.4
			c-1.1,0-1.8-0.1-2.2-0.4s-0.6-0.6-0.6-1.1V82.6c0-0.2,0-0.4,0.1-0.6s0.2-0.3,0.5-0.5c0.2-0.1,0.5-0.2,0.9-0.3
			C45.9,81.2,46.4,81.1,46.9,81.1z"/>
		<path class="st0" d="M40.8,37.3c4.2,0,8,0.3,11.5,1c3.5,0.7,6.5,1.8,8.9,3.3s4.4,3.5,5.8,6c1.4,2.5,2.1,5.5,2.1,9.2
			c0,3.4-0.6,6.3-1.8,8.7c-1.2,2.4-3,4.3-5.4,5.7c-2.4,1.4-5.3,2.5-8.8,3.1c-3.5,0.6-7.5,0.9-12,0.9c-4.2,0-8-0.3-11.5-1
			s-6.5-1.8-9-3.3c-2.5-1.5-4.4-3.5-5.8-6c-1.4-2.5-2.1-5.5-2.1-9.1c0-3.5,0.6-6.4,1.8-8.7c1.2-2.4,3-4.3,5.4-5.7
			c2.4-1.4,5.3-2.5,8.8-3.1S36.3,37.3,40.8,37.3z M41.3,44.7c-2.7,0-5.2,0.1-7.4,0.3c-2.2,0.2-4.1,0.5-5.8,0.9s-3.1,0.9-4.3,1.5
			c-1.2,0.6-2.2,1.3-3,2.2c-0.8,0.8-1.3,1.8-1.7,2.9c-0.4,1.1-0.5,2.3-0.5,3.7c0,2.4,0.6,4.3,1.7,5.8c1.1,1.5,2.7,2.7,4.7,3.5
			c2,0.9,4.3,1.4,6.9,1.8c2.7,0.3,5.5,0.5,8.5,0.5c4.1,0,7.6-0.2,10.4-0.6c2.9-0.4,5.2-1.1,7-2c1.8-0.9,3.1-2.1,3.9-3.5
			c0.8-1.4,1.2-3.2,1.2-5.2c0-1.6-0.3-3-0.8-4.2c-0.5-1.2-1.2-2.2-2.2-3.1c-0.9-0.9-2.1-1.6-3.4-2.1c-1.3-0.6-2.8-1-4.4-1.4
			c-1.6-0.3-3.3-0.6-5.2-0.7C45.3,44.8,43.3,44.7,41.3,44.7z"/>
		<path class="st0" d="M40.8-6.6c4.2,0,8,0.3,11.5,1c3.5,0.7,6.5,1.8,8.9,3.3s4.4,3.5,5.8,6c1.4,2.5,2.1,5.5,2.1,9.2
			c0,3.4-0.6,6.3-1.8,8.7c-1.2,2.4-3,4.3-5.4,5.7c-2.4,1.4-5.3,2.5-8.8,3.1c-3.5,0.6-7.5,0.9-12,0.9c-4.2,0-8-0.3-11.5-1
			s-6.5-1.8-9-3.3c-2.5-1.5-4.4-3.5-5.8-6c-1.4-2.5-2.1-5.5-2.1-9.1c0-3.5,0.6-6.4,1.8-8.7c1.2-2.4,3-4.3,5.4-5.7
			c2.4-1.4,5.3-2.5,8.8-3.1S36.3-6.6,40.8-6.6z M41.3,0.8c-2.7,0-5.2,0.1-7.4,0.3c-2.2,0.2-4.1,0.5-5.8,0.9s-3.1,0.9-4.3,1.5
			c-1.2,0.6-2.2,1.3-3,2.2c-0.8,0.8-1.3,1.8-1.7,2.9c-0.4,1.1-0.5,2.3-0.5,3.7c0,2.4,0.6,4.3,1.7,5.8c1.1,1.5,2.7,2.7,4.7,3.5
			c2,0.9,4.3,1.4,6.9,1.8c2.7,0.3,5.5,0.5,8.5,0.5c4.1,0,7.6-0.2,10.4-0.6c2.9-0.4,5.2-1.1,7-2c1.8-0.9,3.1-2.1,3.9-3.5
			c0.8-1.4,1.2-3.2,1.2-5.2c0-1.6-0.3-3-0.8-4.2c-0.5-1.2-1.2-2.2-2.2-3.1c-0.9-0.9-2.1-1.6-3.4-2.1c-1.3-0.6-2.8-1-4.4-1.4
			C50.8,1.4,49,1.2,47.1,1C45.3,0.9,43.3,0.8,41.3,0.8z"/>
		<path class="st0" d="M65.1-48.7c0.5,0,1,0,1.4,0.1c0.4,0.1,0.7,0.2,1,0.3c0.3,0.1,0.5,0.3,0.6,0.5c0.1,0.2,0.2,0.4,0.2,0.7v30.2
			c0,0.4,0,0.7-0.1,1c-0.1,0.3-0.3,0.6-0.5,0.8c-0.2,0.2-0.5,0.4-1,0.5s-0.9,0.1-1.6,0.1c-0.6,0-1.1,0-1.5-0.1
			c-0.4,0-0.8-0.1-1.1-0.3s-0.6-0.3-1-0.5c-0.3-0.2-0.7-0.5-1-0.8L49.2-27.1c-2.6-2.5-4.9-4.6-7-6.1c-2.1-1.5-3.9-2.7-5.6-3.5
			s-3.2-1.4-4.6-1.6s-2.7-0.4-3.9-0.4c-1.2,0-2.4,0.2-3.4,0.6s-2,1-2.9,1.8c-0.8,0.8-1.5,1.7-1.9,2.9s-0.7,2.5-0.7,4
			c0,1.8,0.2,3.4,0.7,4.8c0.5,1.4,1,2.6,1.6,3.7c0.6,1.1,1.1,1.9,1.6,2.7c0.5,0.7,0.7,1.2,0.7,1.6c0,0.2-0.1,0.4-0.2,0.5
			c-0.1,0.2-0.3,0.3-0.6,0.4c-0.3,0.1-0.6,0.2-1,0.2c-0.4,0.1-0.9,0.1-1.5,0.1c-0.4,0-0.8,0-1.1,0c-0.3,0-0.6-0.1-0.8-0.1
			s-0.4-0.2-0.6-0.3c-0.2-0.1-0.4-0.3-0.7-0.7s-0.7-0.9-1.2-1.8c-0.5-0.8-1-1.9-1.5-3.1c-0.5-1.3-0.9-2.6-1.2-4.1
			c-0.3-1.5-0.5-3.1-0.5-4.8c0-2.7,0.4-5,1.1-7c0.7-2,1.8-3.6,3.1-5c1.3-1.3,2.8-2.3,4.5-2.9c1.7-0.6,3.6-1,5.5-1
			c1.7,0,3.5,0.2,5.2,0.5c1.7,0.3,3.6,1,5.6,2c2,1,4.3,2.4,6.7,4.3c2.5,1.9,5.3,4.4,8.5,7.5l9.1,8.7v-23.8c0-0.2,0.1-0.4,0.2-0.7
			c0.1-0.2,0.3-0.4,0.6-0.5c0.3-0.2,0.6-0.3,1-0.3S64.6-48.7,65.1-48.7z"/>
	</g>
	<g class="st7">
		<path class="st0" d="M119.9,330.1c0,2.6-0.5,4.9-1.4,6.9c-0.9,2-2.3,3.7-3.9,5.1c-1.7,1.4-3.7,2.4-5.9,3.2
			c-2.3,0.7-4.7,1.1-7.3,1.1c-1.8,0-3.5-0.2-5.1-0.5c-1.6-0.3-3-0.7-4.2-1.1s-2.3-0.9-3.1-1.4c-0.8-0.5-1.4-0.9-1.7-1.2
			c-0.3-0.3-0.6-0.8-0.7-1.3c-0.2-0.5-0.2-1.2-0.2-2.1c0-0.6,0-1.1,0.1-1.5c0.1-0.4,0.1-0.7,0.3-1s0.3-0.4,0.4-0.5
			c0.2-0.1,0.4-0.1,0.6-0.1c0.4,0,1,0.2,1.7,0.7c0.7,0.5,1.6,1,2.8,1.6c1.1,0.6,2.5,1.1,4.1,1.6s3.4,0.7,5.5,0.7
			c1.6,0,3-0.2,4.3-0.6s2.4-1,3.4-1.8c0.9-0.8,1.7-1.7,2.2-2.9s0.8-2.4,0.8-3.8c0-1.6-0.4-2.9-1.1-4c-0.7-1.1-1.6-2.1-2.8-2.9
			s-2.5-1.6-4-2.3s-3-1.4-4.5-2.1c-1.6-0.7-3.1-1.5-4.5-2.4s-2.8-1.9-3.9-3.1c-1.2-1.2-2.1-2.6-2.8-4.2c-0.7-1.6-1.1-3.5-1.1-5.7
			c0-2.3,0.4-4.3,1.2-6.1c0.8-1.8,2-3.3,3.5-4.5c1.5-1.2,3.2-2.1,5.3-2.8c2-0.6,4.3-1,6.6-1c1.2,0,2.4,0.1,3.7,0.3
			c1.2,0.2,2.4,0.5,3.5,0.8c1.1,0.4,2.1,0.7,2.9,1.2c0.8,0.4,1.4,0.8,1.7,1.1c0.3,0.3,0.4,0.5,0.5,0.6s0.2,0.4,0.2,0.6
			c0.1,0.2,0.1,0.5,0.1,0.9c0,0.3,0,0.8,0,1.3c0,0.5,0,1-0.1,1.4c0,0.4-0.1,0.7-0.2,1c-0.1,0.3-0.2,0.5-0.4,0.6
			c-0.2,0.1-0.3,0.2-0.5,0.2c-0.3,0-0.8-0.2-1.5-0.6c-0.7-0.4-1.5-0.8-2.4-1.3c-1-0.5-2.1-0.9-3.4-1.4c-1.3-0.4-2.8-0.6-4.4-0.6
			c-1.5,0-2.8,0.2-4,0.6c-1.1,0.4-2.1,1-2.8,1.6s-1.3,1.5-1.7,2.4s-0.5,1.9-0.5,3c0,1.5,0.4,2.8,1.1,3.9s1.6,2.1,2.8,2.9
			c1.2,0.8,2.5,1.6,4,2.3c1.5,0.7,3,1.4,4.6,2.1c1.6,0.7,3.1,1.5,4.6,2.4c1.5,0.9,2.8,1.9,4,3c1.2,1.2,2.1,2.6,2.8,4.1
			C119.6,326,119.9,327.9,119.9,330.1z"/>
	</g>
	<g class="st7">
		<path class="st0" d="M531.3,318.6c0,1.1-0.3,1.9-0.9,2.3s-1.5,0.6-2.6,0.6h-41.5c-1.2,0-2.1-0.2-2.7-0.7s-0.9-1.2-0.9-2.3
			c0-1.1,0.3-1.8,0.9-2.2s1.5-0.6,2.7-0.6h41.5c0.5,0,1,0,1.4,0.1c0.4,0.1,0.8,0.2,1.1,0.5c0.3,0.2,0.5,0.5,0.7,0.9
			C531.2,317.7,531.3,318.1,531.3,318.6z"/>
	</g>
</g>
</svg>
