<?xml version="1.0" encoding="utf-8"?>
<!-- Generator: Adobe Illustrator 27.8.0, SVG Export Plug-In . SVG Version: 6.00 Build 0)  -->
<svg version="1.1"
	 id="svg3857" xmlns:svg="http://www.w3.org/2000/svg" xmlns:rdf="http://www.w3.org/1999/02/22-rdf-syntax-ns#" xmlns:sodipodi="http://sodipodi.sourceforge.net/DTD/sodipodi-0.dtd" xmlns:dc="http://purl.org/dc/elements/1.1/" xmlns:inkscape="http://www.inkscape.org/namespaces/inkscape" xmlns:cc="http://creativecommons.org/ns#" inkscape:export-xdpi="93" inkscape:export-ydpi="93" inkscape:version="0.92.4 (5da689c313, 2019-01-14)"
	 xmlns="http://www.w3.org/2000/svg" xmlns:xlink="http://www.w3.org/1999/xlink" x="0px" y="0px" viewBox="0 0 556 1081"
	 style="enable-background:new 0 0 556 1081;" xml:space="preserve">
<style type="text/css">
	.st0{fill:#CCCCCC;}
	.st1{fill:#FFFFFF;}
	.st2{opacity:0.99;fill:#808080;enable-background:new    ;}
	.st3{fill:#333333;}
	.st4{enable-background:new    ;}
</style>
<sodipodi:namedview  bordercolor="#666666" borderopacity="1.0" id="base" inkscape:current-layer="layer1" inkscape:cx="-139.45542" inkscape:cy="1918.1188" inkscape:document-units="mm" inkscape:pageopacity="0" inkscape:pageshadow="2" inkscape:window-height="1017" inkscape:window-maximized="1" inkscape:window-width="1920" inkscape:window-x="-8" inkscape:window-y="-8" inkscape:zoom="0.18345083" pagecolor="#323232" showgrid="false">
	</sodipodi:namedview>
<g id="layer1" transform="translate(0,578)" inkscape:groupmode="layer" inkscape:label="Ebene 1">
	<rect id="rect18" x="0" y="-578" width="555.9" height="1081"/>
	<g id="flowRoot3984" transform="scale(0.26458333)">
	</g>
	<circle id="path61" class="st0" cx="55.6" cy="435.1" r="49.4"/>
	<circle id="circle63" class="st0" cx="55.6" cy="330" r="49.4"/>
	<circle id="circle65" class="st0" cx="55.6" cy="225" r="49.4"/>
	<circle id="circle67" class="st0" cx="55.6" cy="120" r="49.4"/>
	<circle id="circle69" class="st0" cx="55.6" cy="15" r="49.4"/>
	<circle id="circle71" class="st0" cx="55.6" cy="-90" r="49.4"/>
	<circle id="circle73" class="st0" cx="55.6" cy="-195" r="49.4"/>
	<circle id="circle75" class="st0" cx="55.6" cy="-300" r="49.4"/>
	<circle id="circle77" class="st0" cx="55.6" cy="-405" r="49.4"/>
	<circle id="circle79" class="st0" cx="55.6" cy="-510.1" r="49.4"/>
	<path id="path31-1" inkscape:connector-curvature="0" class="st1" d="M255.4-391.4c3.4-0.1,3.7-0.1,4.4-0.6
		c0.4-0.3,0.9-0.8,1.1-1.2c0.4-0.7,0.4-1.2,0.5-9.1l0.1-8.4l7.2,0l7.2,0v10.5c0,11.5-0.1,12.6-1.1,15.7c-1.4,4-3.4,5.8-7.5,6.9
		c-1.1,0.3-2.4,0.4-6.6,0.3c-2.9,0-6-0.1-7-0.2l-1.8-0.2l-0.1-6.8l-0.1-6.8L255.4-391.4L255.4-391.4z M324-368
		c61.5,0,76.6,0.1,74,0.4l-0.4,0l0.4,0.2c0.3,0.2,0.3,0.2-0.3,0.2c-0.5,0-0.3,0.1,0.6,0.2l1.3,0.1l-1.3,0.1c-0.7,0-1.1,0.1-0.9,0.2
		c0.3,0.1,0.3,0.4,0.3,2c0,1.9,0,1.9,0.5,2c0.4,0.1,0.3,0.1-0.3,0.1c-0.5,0-0.8,0.1-0.8,0.3c0,0.1-24.4,0.2-72.7,0.2h-72.7v-3v-3
		L324-368z M268.6-432.4h7.3l0,6.8l0,6.8h-7.3h-7.3l0-6.8l0-6.8H268.6z M283.2-407.3c0.5-3.8,1.4-7.2,2.8-10.2
		c0.5-1.1,0.9-2.1,1-2.1c0.1-0.1,0.4-0.7,0.8-1.3c0.8-1.4,2.5-3.8,2.9-4.1c0.1-0.1,0.3-0.3,0.3-0.4c0-0.3,1.8-2.2,3.2-3.4
		c1.5-1.2,2.7-1.9,5.4-3.1c3.1-1.3,5-1.7,8.7-1.5c2.7,0.1,3.4,0.2,5.1,0.8c1.1,0.4,2.4,0.9,2.9,1.1c0.5,0.3,1,0.5,1.2,0.5
		c0.1,0,0.9,0.5,1.8,1.1c3.5,2.3,8.2,8.5,10,13.1c2.9,7.2,3.2,14.5,1.1,21.2c-0.9,2.8-1.6,4.4-2.6,6.4c-1.2,2.3-1.3,2.4-4.3,5.8
		c-3.4,3.9-5.9,5.5-10.3,6.9c-2.3,0.7-6.7,1-9.2,0.6c-3.1-0.6-7.3-2.6-9.9-4.8c-1.3-1.1-3.1-2.9-3.1-3.1c0-0.1-0.4-0.6-1-1.3
		c-2.6-3.1-5.3-9-6.3-14C283.3-401,283-405.9,283.2-407.3L283.2-407.3z M297.1-400.3c0.7,3.2,2.1,5.8,4.3,8.2
		c2.2,2.4,5.7,3.3,8.6,2.2c3.3-1.2,6.6-5.6,7.6-10.4c0.6-2.7,0.6-6.7-0.1-9.3c-1-3.8-2.7-6.7-5.1-8.7c-1.1-0.9-1.6-1.2-2.7-1.4
		c-2.5-0.5-5-0.2-6.8,0.8c-1.6,0.9-3.5,3.4-4.6,6C296.6-409,296.2-404.4,297.1-400.3L297.1-400.3z M337.9-432.3
		c0.1-0.1,3.4-0.1,7.3,0l7,0.1l0,7.5c0,7.1,0,7.5,0.4,8.8c1,3.2,4.4,4.9,7.3,3.8c1.5-0.6,2.5-1.6,3.2-3.2l0.6-1.4l0.1-7.7l0.1-7.7
		h7.3h7.3l-0.1,8.7c-0.1,8.1-0.1,8.9-0.5,10.5c-0.8,3.4-2.1,6.3-3.8,8.6c-0.4,0.6-0.8,1.1-0.8,1.3c0,0.3-1.8,2.2-3.5,3.6
		c-1.4,1.2-3.3,2.4-4.3,2.6c-0.3,0.1-1.3,0.4-2.2,0.7c-1.5,0.5-1.9,0.6-5.2,0.6c-3.3,0-3.7,0-5.5-0.6c-2.9-0.9-3.8-1.4-5.8-2.8
		c-2.2-1.6-4-3.7-5.5-6.3c-2.2-3.7-3.1-6.4-3.5-10.6C337.5-418.9,337.6-432.2,337.9-432.3L337.9-432.3z M358.1-391.2H370v7v7h-11.9
		h-11.9v-7v-7L358.1-391.2z M378.5-443.1c0.1,0,0.2-0.4,0.2-0.9c0-0.9,0-0.9,0.9-1c0.5-0.1,20.6-0.1,44.7-0.1H468l-0.1,3l-0.1,3
		h-44.5c-24.5,0-44.7-0.1-44.8-0.1c-0.2-0.1-0.3-0.5-0.3-2C378.3-442.3,378.3-443.1,378.5-443.1L378.5-443.1z M398.5-409.4h15.1v6.9
		v6.9h-15.1h-15.1v-6.9v-6.9L398.5-409.4z M425.6-432.4h7.3v6.8v6.8h-7.3h-7.3v-6.8v-6.8L425.6-432.4z M425.6-411.7h7.3v17.6v17.6
		h-7.3h-7.3v-17.6v-17.6H425.6z M454.5-432.4h15.2v6.8v6.8h-15.2h-15.2v-6.8v-6.8L454.5-432.4z M441.8-410.6
		c0.1-0.1,3.3-0.1,7.1-0.1l7,0l0.1,8.1c0.1,11.3-0.3,10.7,7.1,10.8l4.7,0.1v7.1v7.1l-1.7,0.3c-2.6,0.4-10.9,0.3-13.2-0.1
		c-3.9-0.7-6.4-2.1-8-4.4c-1.7-2.4-2.6-4.8-3-8.7C441.6-393.1,441.6-410.5,441.8-410.6L441.8-410.6z M478.2-439
		c0.4-1.5,1.1-2.9,1.9-3.7c3.3-3.3,7.3-3.7,10.5-0.9c1.5,1.3,1.9,1.8,2.6,3.4c0.5,1.2,0.6,1.6,0.5,3.7c0,2.1-0.1,2.5-0.6,3.7
		c-1.1,2.7-3.9,4.9-6.6,5.1c-2.5,0.2-4.5-0.6-6.5-2.9C478.3-432.6,477.5-436.1,478.2-439L478.2-439z M479.7-433.3
		c0.7,1.8,2.7,3.6,4.8,4.2c2.1,0.6,3.7,0.1,6.1-1.9c0.6-0.5,1-1.1,1.5-2.2c0.6-1.3,0.6-1.7,0.7-3.4c0-1.8-0.1-2-0.7-3.4
		c-0.6-1.2-0.9-1.7-1.9-2.5c-0.6-0.5-1.6-1.1-2.2-1.3c-3.3-1.3-7.3,0.8-8.6,4.5C478.9-438,479-435,479.7-433.3L479.7-433.3z
		 M485-442c1.5,0,2.9,0.1,3.2,0.2c1.2,0.5,1.7,3.1,0.9,4.3c-0.2,0.3-0.7,0.7-1.1,0.9l-0.7,0.3l0.7,0.8c0.4,0.5,0.9,1.4,1.3,2.1
		c0.3,0.7,0.7,1.3,0.8,1.4c0.4,0.3,0.1,0.5-0.7,0.5l-0.8,0l-1.2-2.1c-1.3-2.3-1.6-2.5-3-2.5l-0.9,0l0,2.4l0,2.4l-0.6-0.1l-0.6-0.1
		l0-5.2l0-5.2L485-442z M485.4-437.5c1.5,0,1.8-0.1,2.3-0.5c1.1-1,0.5-2.5-1.1-2.8c-0.7-0.1-2.5,0-2.9,0.1c0,0-0.1,0.7-0.1,1.6
		l0,1.6L485.4-437.5z"/>
	<circle id="path183" class="st0" cx="488" cy="-510.1" r="61.8"/>
	<circle id="path185" class="st1" cx="488" cy="-510.1" r="55.6"/>
	<circle id="circle187" class="st0" cx="488" cy="435.1" r="61.8"/>
	<circle id="circle189" class="st1" cx="488" cy="435.1" r="55.6"/>
	<rect id="rect203" x="259.5" y="389.4" class="st0" width="24.7" height="18.5"/>
	<rect id="rect205" x="290.4" y="389.4" class="st0" width="24.7" height="18.5"/>
	<rect id="rect207" x="321.2" y="389.4" class="st0" width="24.7" height="18.5"/>
	<rect id="rect209" x="352.1" y="389.4" class="st0" width="24.7" height="18.5"/>
	<rect id="rect211" x="383" y="389.6" class="st0" width="24.7" height="18.5"/>
	<rect id="rect213" x="259.5" y="197.9" class="st0" width="24.7" height="18.5"/>
	<rect id="rect215" x="290.4" y="197.9" class="st0" width="24.7" height="18.5"/>
	<rect id="rect217" x="321.2" y="197.9" class="st0" width="24.7" height="18.5"/>
	<rect id="rect219" x="352.1" y="197.9" class="st0" width="24.7" height="18.5"/>
	<rect id="rect221" x="383" y="198.1" class="st0" width="24.7" height="18.5"/>
	<rect id="rect947" x="266.6" y="205" class="st2" width="10.5" height="16.1"/>
	<rect id="rect229" x="328.3" y="205" class="st2" width="10.5" height="16.1"/>
	<rect id="rect231" x="359.2" y="205" class="st2" width="10.5" height="16.1"/>
	<rect id="rect233" x="390" y="205" class="st2" width="10.5" height="16.1"/>
	<rect id="rect235" x="297.7" y="205" class="st2" width="10.5" height="16.1"/>
	<rect id="rect237" x="266.6" y="384" class="st2" width="10.5" height="16.1"/>
	<rect id="rect239" x="328.3" y="384" class="st2" width="10.5" height="16.1"/>
	<rect id="rect241" x="359.2" y="384" class="st2" width="10.5" height="16.1"/>
	<rect id="rect243" x="390" y="384" class="st2" width="10.5" height="16.1"/>
	<rect id="rect245" x="297.7" y="384" class="st2" width="10.5" height="16.1"/>
	<rect id="rect201" x="259.5" y="216.6" class="st3" width="148.3" height="173"/>
	<g class="st4">
		<path class="st1" d="M495.8-325.7c-0.5,0-0.9,0-1.2-0.1c-0.3-0.1-0.6-0.2-0.8-0.3s-0.4-0.3-0.4-0.4c-0.1-0.2-0.1-0.3-0.1-0.5V-353
			c0-0.2,0-0.3,0.1-0.5c0.1-0.2,0.2-0.3,0.4-0.4s0.5-0.2,0.8-0.3c0.3-0.1,0.7-0.1,1.2-0.1c0.5,0,0.9,0,1.2,0.1
			c0.3,0.1,0.6,0.2,0.8,0.3c0.2,0.1,0.4,0.3,0.5,0.4c0.1,0.2,0.2,0.4,0.2,0.6v10.3h37.7l-5.7-9.6c-0.3-0.5-0.4-0.9-0.5-1.2
			c-0.1-0.3,0-0.5,0.2-0.7c0.2-0.2,0.4-0.3,0.8-0.4s0.9-0.1,1.5-0.1c0.4,0,0.8,0,1.1,0.1s0.6,0.1,0.8,0.2c0.2,0.1,0.4,0.2,0.5,0.3
			c0.2,0.1,0.3,0.3,0.5,0.6l7.3,11.4c0.1,0.1,0.1,0.2,0.2,0.4c0.1,0.2,0.1,0.3,0.2,0.6c0.1,0.2,0.1,0.5,0.1,0.8s0,0.7,0,1.1
			c0,0.6,0,1.1-0.1,1.5c-0.1,0.4-0.1,0.7-0.2,1c-0.1,0.2-0.2,0.4-0.3,0.5c-0.1,0.1-0.3,0.1-0.4,0.1h-43.6v9c0,0.2-0.1,0.4-0.2,0.6
			c-0.1,0.2-0.3,0.3-0.5,0.4c-0.2,0.1-0.5,0.2-0.8,0.3S496.2-325.7,495.8-325.7z"/>
		<path class="st1" d="M509.2-284.8c-2.2,0-4.3-0.3-6.3-1s-3.8-1.7-5.4-3.1s-2.8-3.1-3.7-5.2c-0.9-2.1-1.4-4.6-1.4-7.5
			c0-2.1,0.3-3.9,0.8-5.5s1.2-3,2.2-4.1c0.9-1.2,2.1-2.2,3.5-2.9c1.4-0.8,2.9-1.4,4.7-1.9c1.8-0.5,3.7-0.8,5.8-1
			c2.1-0.2,4.3-0.3,6.7-0.3c2.1,0,4.3,0.1,6.4,0.3c2.2,0.2,4.3,0.6,6.3,1.2s3.9,1.4,5.7,2.4c1.8,1,3.3,2.3,4.6,3.8s2.4,3.3,3.1,5.5
			c0.8,2.1,1.1,4.6,1.1,7.4c0,0.9-0.1,1.9-0.2,2.9c-0.1,1-0.3,1.9-0.5,2.7c-0.2,0.8-0.4,1.5-0.6,2.1c-0.2,0.6-0.4,0.9-0.6,1.1
			c-0.1,0.2-0.3,0.3-0.5,0.4c-0.2,0.1-0.3,0.2-0.5,0.2c-0.2,0.1-0.4,0.1-0.7,0.1c-0.2,0-0.5,0-0.9,0c-0.5,0-0.9,0-1.2,0
			s-0.6-0.1-0.8-0.2c-0.2-0.1-0.4-0.2-0.5-0.3c-0.1-0.1-0.2-0.3-0.2-0.6c0-0.3,0.1-0.7,0.3-1.1c0.2-0.5,0.4-1.1,0.6-1.8
			c0.2-0.7,0.4-1.5,0.6-2.5c0.2-1,0.3-2.1,0.3-3.4c0-2.4-0.5-4.4-1.5-6.1c-1-1.7-2.3-3.1-3.9-4.2c-1.6-1.1-3.5-1.9-5.7-2.4
			c-2.2-0.5-4.4-0.8-6.8-0.9c0.4,0.7,0.8,1.4,1.1,2.2c0.4,0.8,0.7,1.7,1,2.7c0.3,1,0.6,2,0.7,3.1c0.2,1.1,0.3,2.3,0.3,3.5
			c0,2.7-0.4,4.9-1.1,6.8c-0.7,1.8-1.7,3.3-3,4.5c-1.3,1.1-2.8,1.9-4.6,2.4C513.1-285,511.2-284.8,509.2-284.8z M508.6-291.5
			c1.5,0,2.8-0.1,4-0.4c1.2-0.3,2.2-0.8,3.1-1.5s1.5-1.6,2-2.8c0.5-1.1,0.7-2.6,0.7-4.3c0-0.9-0.1-1.9-0.2-2.8
			c-0.2-0.9-0.4-1.9-0.7-2.7c-0.3-0.9-0.6-1.7-1-2.5c-0.4-0.8-0.8-1.5-1.3-2.2c-3.3,0-6.1,0.2-8.3,0.6c-2.2,0.4-4,1-5.3,1.8
			c-1.3,0.8-2.3,1.8-2.9,3c-0.6,1.2-0.9,2.6-0.9,4.2c0,1.6,0.3,3.1,0.9,4.3c0.6,1.2,1.4,2.2,2.5,3c1,0.8,2.2,1.4,3.5,1.7
			C505.9-291.6,507.2-291.5,508.6-291.5z"/>
		<path class="st1" d="M507.4-242.4c-1.6,0-3-0.2-4.3-0.6c-1.3-0.4-2.5-1-3.5-1.7s-2-1.6-2.8-2.6c-0.8-1-1.5-2.1-2-3.4
			c-0.5-1.3-0.9-2.6-1.2-4.1c-0.3-1.4-0.4-3.1-0.4-5v-12.9c0-0.6,0.2-1.1,0.6-1.7c0.4-0.5,1.1-0.8,2.1-0.8H540c1,0,1.7,0.3,2.1,0.8
			c0.4,0.5,0.6,1.1,0.6,1.7v11.3c0,3-0.3,5.4-0.8,7.3c-0.6,1.9-1.4,3.5-2.5,4.7c-1.1,1.3-2.4,2.2-3.9,2.9s-3.3,1-5.3,1
			c-1.2,0-2.3-0.1-3.4-0.4c-1.1-0.3-2.1-0.7-3-1.2c-0.9-0.5-1.7-1.2-2.4-2.1c-0.7-0.8-1.3-1.8-1.8-2.9c-0.3,1.4-0.7,2.6-1.4,3.8
			c-0.7,1.2-1.5,2.2-2.6,3.1s-2.3,1.6-3.7,2.1C510.6-242.7,509-242.4,507.4-242.4z M507-249.4c1.5,0,2.8-0.2,3.9-0.7
			s2.1-1.2,2.8-2.1c0.8-0.9,1.3-2,1.7-3.4c0.4-1.4,0.6-3.1,0.6-5.1v-7.9h-17.5v9.6c0,1.5,0.2,2.8,0.5,3.9c0.4,1.1,0.9,2.1,1.6,3
			c0.7,0.9,1.6,1.5,2.6,2C504.4-249.6,505.6-249.4,507-249.4z M529.5-252.3c1.2,0,2.3-0.2,3.3-0.5c1-0.3,1.8-0.9,2.5-1.6
			c0.7-0.7,1.2-1.6,1.6-2.8s0.5-2.7,0.5-4.5v-6.8h-16v7.5c0,1.7,0.2,3.1,0.7,4.1c0.4,1,1,1.9,1.8,2.6c0.8,0.7,1.6,1.2,2.6,1.5
			C527.4-252.5,528.5-252.3,529.5-252.3z"/>
		<path class="st1" d="M494.1-226.8c-0.2,0-0.4-0.1-0.5-0.2c-0.1-0.1-0.3-0.3-0.4-0.5c-0.1-0.2-0.2-0.5-0.2-1
			c-0.1-0.4-0.1-0.9-0.1-1.6c0-0.6,0-1.1,0.1-1.5c0.1-0.4,0.1-0.7,0.2-1c0.1-0.2,0.2-0.4,0.4-0.5c0.1-0.1,0.3-0.1,0.5-0.1h34.5
			c0.2,0,0.3,0,0.5,0.1c0.2,0.1,0.3,0.3,0.4,0.5c0.1,0.2,0.2,0.6,0.2,1c0.1,0.4,0.1,0.9,0.1,1.5c0,0.6,0,1.2-0.1,1.6
			c-0.1,0.4-0.1,0.7-0.2,1c-0.1,0.2-0.2,0.4-0.4,0.5c-0.2,0.1-0.3,0.2-0.5,0.2H494.1z M540.2-226.1c-1.5,0-2.5-0.3-3-0.8
			c-0.5-0.6-0.8-1.6-0.8-3.1c0-1.5,0.3-2.5,0.8-3s1.5-0.8,3-0.8c1.5,0,2.5,0.3,3,0.8c0.5,0.6,0.8,1.6,0.8,3.1c0,1.5-0.3,2.5-0.8,3
			S541.7-226.1,540.2-226.1z"/>
		<path class="st1" d="M496.6-197.2c-0.7,0-1.3-0.1-1.8-0.2c-0.4-0.1-0.8-0.3-1-0.5c-0.2-0.2-0.4-0.5-0.6-0.9
			c-0.2-0.4-0.3-0.9-0.4-1.4s-0.2-1.1-0.3-1.7c-0.1-0.6-0.1-1.2-0.1-1.8c0-1.8,0.2-3.3,0.7-4.6c0.5-1.3,1.2-2.3,2.1-3.1
			c1-0.8,2.2-1.4,3.6-1.8c1.5-0.4,3.2-0.6,5.2-0.6h20.1v-4.8c0-0.4,0.2-0.7,0.6-0.9c0.4-0.2,1.1-0.3,2-0.3c0.5,0,0.9,0,1.2,0.1
			c0.3,0.1,0.6,0.1,0.8,0.2c0.2,0.1,0.4,0.2,0.5,0.4c0.1,0.2,0.1,0.4,0.1,0.6v4.8h8.2c0.2,0,0.3,0,0.5,0.1c0.2,0.1,0.3,0.3,0.4,0.5
			c0.1,0.2,0.2,0.6,0.2,1c0.1,0.4,0.1,0.9,0.1,1.5c0,0.6,0,1.2-0.1,1.6c-0.1,0.4-0.1,0.7-0.2,1c-0.1,0.2-0.2,0.4-0.4,0.5
			c-0.2,0.1-0.3,0.2-0.5,0.2h-8.2v8.8c0,0.2,0,0.4-0.1,0.5c-0.1,0.2-0.2,0.3-0.5,0.4c-0.2,0.1-0.5,0.2-0.8,0.2
			c-0.3,0.1-0.7,0.1-1.2,0.1c-0.9,0-1.6-0.1-2-0.3c-0.4-0.2-0.6-0.5-0.6-0.9v-8.8h-19.2c-2.4,0-4.2,0.4-5.4,1.1
			c-1.2,0.7-1.8,2-1.8,3.8c0,0.6,0.1,1.1,0.2,1.6c0.1,0.5,0.2,0.9,0.4,1.2s0.2,0.7,0.4,0.9c0.1,0.3,0.2,0.5,0.2,0.7
			c0,0.1,0,0.2-0.1,0.4s-0.2,0.2-0.4,0.3c-0.2,0.1-0.4,0.1-0.7,0.2C497.5-197.3,497.1-197.2,496.6-197.2z"/>
		<path class="st1" d="M495.8-159.2c-0.5,0-0.9,0-1.2-0.1c-0.3-0.1-0.6-0.2-0.8-0.3s-0.4-0.3-0.4-0.4c-0.1-0.2-0.1-0.3-0.1-0.5
			v-25.9c0-0.2,0-0.3,0.1-0.5c0.1-0.2,0.2-0.3,0.4-0.4s0.5-0.2,0.8-0.3c0.3-0.1,0.7-0.1,1.2-0.1c0.5,0,0.9,0,1.2,0.1
			c0.3,0.1,0.6,0.2,0.8,0.3c0.2,0.1,0.4,0.3,0.5,0.4c0.1,0.2,0.2,0.4,0.2,0.6v10.3h37.7l-5.7-9.6c-0.3-0.5-0.4-0.9-0.5-1.2
			c-0.1-0.3,0-0.5,0.2-0.7c0.2-0.2,0.4-0.3,0.8-0.4s0.9-0.1,1.5-0.1c0.4,0,0.8,0,1.1,0.1s0.6,0.1,0.8,0.2c0.2,0.1,0.4,0.2,0.5,0.3
			c0.2,0.1,0.3,0.3,0.5,0.6l7.3,11.4c0.1,0.1,0.1,0.2,0.2,0.4c0.1,0.2,0.1,0.3,0.2,0.6c0.1,0.2,0.1,0.5,0.1,0.8s0,0.7,0,1.1
			c0,0.6,0,1.1-0.1,1.5c-0.1,0.4-0.1,0.7-0.2,1c-0.1,0.2-0.2,0.4-0.3,0.5c-0.1,0.1-0.3,0.1-0.4,0.1h-43.6v9c0,0.2-0.1,0.4-0.2,0.6
			c-0.1,0.2-0.3,0.3-0.5,0.4c-0.2,0.1-0.5,0.2-0.8,0.3S496.2-159.2,495.8-159.2z"/>
		<path class="st1" d="M496-119.6c-0.5,0-0.9,0-1.2-0.1c-0.4-0.1-0.7-0.2-0.9-0.3c-0.2-0.1-0.4-0.3-0.5-0.5
			c-0.1-0.2-0.2-0.4-0.2-0.6v-27.4c0-0.4,0-0.7,0.1-0.9c0.1-0.3,0.2-0.5,0.4-0.7c0.2-0.2,0.5-0.3,0.9-0.4c0.4-0.1,0.9-0.1,1.4-0.1
			c0.5,0,1,0,1.3,0.1c0.4,0,0.7,0.1,1,0.3c0.3,0.1,0.6,0.3,0.9,0.5c0.3,0.2,0.6,0.5,0.9,0.8l10.2,9.9c2.3,2.3,4.5,4.1,6.3,5.5
			c1.9,1.4,3.6,2.4,5.1,3.2s2.9,1.2,4.2,1.5c1.3,0.2,2.4,0.4,3.5,0.4s2.1-0.2,3.1-0.6s1.8-0.9,2.6-1.6c0.7-0.7,1.3-1.6,1.8-2.6
			c0.4-1.1,0.7-2.3,0.7-3.6c0-1.6-0.2-3-0.7-4.3s-0.9-2.4-1.4-3.4c-0.5-1-1-1.8-1.4-2.4c-0.4-0.6-0.7-1.1-0.7-1.4
			c0-0.2,0.1-0.3,0.2-0.5c0.1-0.1,0.3-0.3,0.5-0.4c0.2-0.1,0.5-0.2,0.9-0.2s0.8-0.1,1.4-0.1c0.4,0,0.7,0,1,0c0.3,0,0.5,0.1,0.7,0.1
			c0.2,0.1,0.4,0.1,0.6,0.2c0.2,0.1,0.4,0.3,0.7,0.6s0.6,0.8,1.1,1.6c0.5,0.8,0.9,1.7,1.4,2.8c0.4,1.1,0.8,2.4,1.1,3.8
			c0.3,1.4,0.5,2.8,0.5,4.3c0,2.4-0.3,4.5-1,6.3c-0.7,1.8-1.6,3.3-2.8,4.5c-1.2,1.2-2.5,2.1-4.1,2.7s-3.2,0.9-5,0.9
			c-1.6,0-3.2-0.1-4.7-0.4c-1.6-0.3-3.3-0.9-5.1-1.8c-1.8-0.9-3.9-2.2-6.1-3.9c-2.2-1.7-4.8-4-7.7-6.8l-8.2-7.9v21.6
			c0,0.2-0.1,0.4-0.2,0.6c-0.1,0.2-0.3,0.4-0.5,0.5c-0.2,0.1-0.5,0.2-0.9,0.3C496.8-119.6,496.4-119.6,496-119.6z"/>
		<path class="st1" d="M500.2-75.5c-0.4,0-0.8,0-1.1,0c-0.3,0-0.6-0.1-0.8-0.1s-0.4-0.1-0.6-0.2c-0.2-0.1-0.4-0.3-0.7-0.5
			c-0.3-0.3-0.6-0.8-1.2-1.6c-0.5-0.8-1-1.8-1.5-3c-0.5-1.2-0.9-2.6-1.3-4.2s-0.5-3.3-0.5-5.2c0-3.2,0.5-6.1,1.6-8.7
			c1.1-2.6,2.7-4.8,4.8-6.6c2.1-1.8,4.7-3.2,7.8-4.2c3.1-1,6.6-1.5,10.6-1.5c4.1,0,7.8,0.5,11,1.6c3.2,1.1,5.9,2.5,8.2,4.5
			c2.2,1.9,3.9,4.2,5.1,6.9c1.2,2.7,1.8,5.6,1.8,8.9c0,1.4-0.1,2.8-0.4,4.2c-0.3,1.4-0.6,2.6-1,3.8c-0.4,1.1-0.9,2.2-1.4,3.1
			s-1,1.5-1.3,1.9s-0.6,0.6-0.8,0.7c-0.2,0.1-0.4,0.2-0.6,0.2c-0.2,0.1-0.5,0.1-0.9,0.2c-0.3,0-0.7,0.1-1.2,0.1
			c-0.5,0-0.9,0-1.3-0.1c-0.4-0.1-0.7-0.1-0.9-0.2c-0.2-0.1-0.4-0.2-0.5-0.4c-0.1-0.1-0.2-0.3-0.2-0.5c0-0.4,0.2-0.9,0.7-1.5
			s1-1.5,1.6-2.5c0.6-1,1.1-2.2,1.6-3.7c0.5-1.5,0.7-3.2,0.7-5.2c0-2.2-0.4-4.2-1.3-6c-0.9-1.8-2.2-3.4-3.9-4.6s-3.8-2.3-6.3-3
			c-2.5-0.7-5.3-1.1-8.4-1.1c-3.1,0-5.9,0.3-8.3,1c-2.4,0.7-4.4,1.7-6.1,2.9c-1.6,1.3-2.8,2.8-3.7,4.7c-0.8,1.8-1.2,3.9-1.2,6.3
			c0,2,0.2,3.7,0.7,5.2c0.5,1.5,1,2.7,1.6,3.8c0.6,1,1.1,1.9,1.6,2.6c0.5,0.7,0.7,1.2,0.7,1.6c0,0.2,0,0.3-0.1,0.5
			c-0.1,0.1-0.2,0.2-0.4,0.3s-0.5,0.1-0.9,0.2C501.2-75.6,500.7-75.5,500.2-75.5z"/>
		<path class="st1" d="M495.5-11.9c-0.6,0.2-1,0.3-1.4,0.3c-0.3,0-0.6-0.1-0.8-0.3c-0.2-0.2-0.3-0.5-0.3-1c-0.1-0.5-0.1-1.1-0.1-1.9
			c0-0.8,0-1.4,0.1-1.9c0-0.5,0.1-0.8,0.2-1.1c0.1-0.2,0.2-0.4,0.4-0.5c0.2-0.1,0.3-0.2,0.6-0.3l12.1-4.3v-20.6l-11.9-4.1
			c-0.2-0.1-0.4-0.2-0.6-0.3c-0.2-0.1-0.3-0.3-0.4-0.6c-0.1-0.2-0.2-0.6-0.2-1c-0.1-0.4-0.1-1-0.1-1.7c0-0.7,0-1.3,0.1-1.8
			c0.1-0.5,0.2-0.8,0.4-1s0.4-0.3,0.8-0.3s0.8,0.1,1.4,0.3l46,16.6c0.3,0.1,0.5,0.2,0.7,0.4s0.3,0.4,0.4,0.7
			c0.1,0.3,0.2,0.7,0.2,1.2c0,0.5,0.1,1.1,0.1,1.9c0,0.8,0,1.5-0.1,2c0,0.5-0.1,1-0.2,1.3c-0.1,0.3-0.2,0.6-0.4,0.8
			s-0.4,0.3-0.7,0.4L495.5-11.9z M536.1-33.3L536.1-33.3l-24.7-8.6v17.2L536.1-33.3z"/>
		<path class="st1" d="M518.7,34.4c-4.3,0-8-0.5-11.2-1.6c-3.2-1.1-5.9-2.7-8-4.8c-2.1-2.1-3.7-4.7-4.7-7.8s-1.6-6.7-1.6-11V-1.2
			c0-0.6,0.2-1.1,0.6-1.7c0.4-0.5,1.1-0.8,2.1-0.8H540c1,0,1.7,0.3,2.1,0.8c0.4,0.5,0.6,1.1,0.6,1.7V10c0,4.3-0.6,7.9-1.7,10.9
			c-1.1,3-2.7,5.4-4.8,7.5c-2.1,2-4.6,3.5-7.6,4.6C525.7,33.9,522.4,34.4,518.7,34.4z M518.4,27.5c2.7,0,5.2-0.3,7.5-1
			c2.3-0.7,4.3-1.7,6-3.1s3-3.2,3.9-5.4c0.9-2.2,1.4-5,1.4-8.4V2.9h-38.6v6.8c0,3.2,0.4,5.8,1.2,8c0.8,2.2,2,4,3.6,5.4
			c1.6,1.5,3.7,2.5,6.1,3.3S515,27.5,518.4,27.5z"/>
		<path class="st1" d="M500.2,77.7c-0.4,0-0.8,0-1.1,0c-0.3,0-0.6-0.1-0.8-0.1s-0.4-0.1-0.6-0.2c-0.2-0.1-0.4-0.3-0.7-0.5
			c-0.3-0.3-0.6-0.8-1.2-1.6c-0.5-0.8-1-1.8-1.5-3c-0.5-1.2-0.9-2.6-1.3-4.2s-0.5-3.3-0.5-5.2c0-3.2,0.5-6.1,1.6-8.7
			c1.1-2.6,2.7-4.8,4.8-6.6c2.1-1.8,4.7-3.2,7.8-4.2c3.1-1,6.6-1.5,10.6-1.5c4.1,0,7.8,0.5,11,1.6c3.2,1.1,5.9,2.5,8.2,4.5
			c2.2,1.9,3.9,4.2,5.1,6.9c1.2,2.7,1.8,5.6,1.8,8.9c0,1.4-0.1,2.8-0.4,4.2c-0.3,1.4-0.6,2.6-1,3.8c-0.4,1.1-0.9,2.2-1.4,3.1
			s-1,1.5-1.3,1.9s-0.6,0.6-0.8,0.7c-0.2,0.1-0.4,0.2-0.6,0.2c-0.2,0.1-0.5,0.1-0.9,0.2c-0.3,0-0.7,0.1-1.2,0.1
			c-0.5,0-0.9,0-1.3-0.1c-0.4-0.1-0.7-0.1-0.9-0.2c-0.2-0.1-0.4-0.2-0.5-0.4c-0.1-0.1-0.2-0.3-0.2-0.5c0-0.4,0.2-0.9,0.7-1.5
			s1-1.5,1.6-2.5c0.6-1,1.1-2.2,1.6-3.7c0.5-1.5,0.7-3.2,0.7-5.2c0-2.2-0.4-4.2-1.3-6c-0.9-1.8-2.2-3.4-3.9-4.6s-3.8-2.3-6.3-3
			c-2.5-0.7-5.3-1.1-8.4-1.1c-3.1,0-5.9,0.3-8.3,1c-2.4,0.7-4.4,1.7-6.1,2.9c-1.6,1.3-2.8,2.8-3.7,4.7c-0.8,1.8-1.2,3.9-1.2,6.3
			c0,2,0.2,3.7,0.7,5.2c0.5,1.5,1,2.7,1.6,3.8c0.6,1,1.1,1.9,1.6,2.6c0.5,0.7,0.7,1.2,0.7,1.6c0,0.2,0,0.3-0.1,0.5
			c-0.1,0.1-0.2,0.2-0.4,0.3s-0.5,0.1-0.9,0.2C501.2,77.7,500.7,77.7,500.2,77.7z"/>
		<path class="st1" d="M515.2,116.2c-0.5,0-0.9,0-1.2-0.1c-0.3-0.1-0.6-0.2-0.9-0.3c-0.2-0.1-0.4-0.3-0.5-0.5
			c-0.1-0.2-0.2-0.4-0.2-0.6v-12.6h-13.9c-0.2,0-0.4-0.1-0.5-0.2c-0.1-0.1-0.3-0.3-0.4-0.5s-0.2-0.5-0.2-0.9
			c-0.1-0.4-0.1-0.8-0.1-1.3c0-0.5,0-1,0.1-1.3s0.1-0.7,0.2-0.9s0.2-0.4,0.4-0.5c0.1-0.1,0.3-0.2,0.5-0.2h13.9V84
			c0-0.2,0.1-0.4,0.2-0.6c0.1-0.2,0.3-0.3,0.5-0.4c0.2-0.1,0.5-0.2,0.9-0.3c0.3-0.1,0.8-0.1,1.2-0.1c0.5,0,0.9,0,1.2,0.1
			c0.3,0.1,0.6,0.2,0.9,0.3c0.2,0.1,0.4,0.3,0.5,0.4c0.1,0.2,0.2,0.4,0.2,0.6v12.6h13.9c0.2,0,0.4,0.1,0.6,0.2
			c0.2,0.1,0.3,0.3,0.4,0.5c0.1,0.2,0.2,0.5,0.3,0.9s0.1,0.8,0.1,1.3c0,0.5,0,1-0.1,1.3c-0.1,0.4-0.2,0.6-0.3,0.9
			c-0.1,0.2-0.3,0.4-0.4,0.5c-0.2,0.1-0.4,0.2-0.6,0.2h-13.9v12.6c0,0.2-0.1,0.4-0.2,0.6c-0.1,0.2-0.3,0.3-0.5,0.5
			c-0.2,0.1-0.5,0.2-0.9,0.3C516.1,116.2,515.7,116.2,515.2,116.2z"/>
		<path class="st1" d="M528.2,155.9c-2.5,0-4.7-0.4-6.7-1.2c-2-0.8-3.7-2-5.1-3.5s-2.5-3.4-3.3-5.6c-0.8-2.2-1.1-4.8-1.1-7.9v-5.6
			h-17.9c-0.2,0-0.4-0.1-0.5-0.2s-0.3-0.3-0.4-0.5c-0.1-0.2-0.2-0.6-0.2-1c-0.1-0.4-0.1-1-0.1-1.6c0-0.6,0-1.2,0.1-1.6
			c0.1-0.4,0.1-0.8,0.2-1c0.1-0.3,0.2-0.4,0.4-0.5c0.2-0.1,0.3-0.2,0.5-0.2h45.7c1,0,1.7,0.3,2.2,0.8c0.4,0.5,0.7,1.1,0.7,1.8v10.6
			c0,1.1,0,2.1-0.1,3.1c-0.1,1-0.3,2.1-0.6,3.5s-0.8,2.7-1.6,4.1c-0.8,1.4-1.8,2.6-3,3.5c-1.2,1-2.5,1.7-4.1,2.2
			S530.1,155.9,528.2,155.9z M527.7,149c2,0,3.7-0.4,5.1-1.1c1.4-0.8,2.4-1.7,3-2.8c0.7-1.1,1.1-2.3,1.3-3.4s0.3-2.3,0.3-3.5v-6.1
			h-19.9v5.9c0,2,0.3,3.6,0.8,5c0.5,1.3,1.2,2.4,2.1,3.3c0.9,0.9,2,1.6,3.3,2C524.8,148.8,526.2,149,527.7,149z"/>
		<path class="st1" d="M518.5,207.5c-4,0-7.6-0.5-10.8-1.4c-3.2-0.9-6-2.4-8.2-4.2c-2.3-1.9-4-4.2-5.2-7.1c-1.2-2.8-1.8-6.1-1.8-9.9
			c0-3.7,0.6-7,1.7-9.7s2.7-5,4.8-6.7c2.1-1.8,4.8-3.1,7.9-4c3.1-0.9,6.8-1.3,10.8-1.3c3.9,0,7.5,0.5,10.6,1.4
			c3.2,0.9,5.9,2.4,8.1,4.3c2.2,1.9,4,4.3,5.2,7.1s1.8,6.1,1.8,9.9c0,3.7-0.5,6.8-1.6,9.5c-1.1,2.7-2.7,5-4.8,6.8
			c-2.1,1.8-4.7,3.1-7.8,4S522.5,207.5,518.5,207.5z M518,200.6c2.8,0,5.4-0.2,7.8-0.7c2.4-0.5,4.5-1.3,6.3-2.5
			c1.8-1.2,3.2-2.7,4.2-4.6c1-1.9,1.5-4.3,1.5-7.2c0-2.9-0.5-5.3-1.6-7.2c-1.1-1.9-2.5-3.5-4.3-4.7c-1.8-1.2-3.9-2.1-6.3-2.6
			s-4.9-0.8-7.5-0.8c-2.9,0-5.6,0.2-8,0.7c-2.5,0.5-4.6,1.3-6.3,2.4c-1.8,1.1-3.2,2.7-4.1,4.6c-1,1.9-1.5,4.3-1.5,7.2
			c0,2.9,0.5,5.3,1.6,7.3c1.1,2,2.5,3.5,4.3,4.7c1.8,1.2,3.9,2.1,6.3,2.6C512.8,200.3,515.4,200.6,518,200.6z"/>
		<path class="st1" d="M495.5,254.2c-0.6,0.2-1,0.3-1.4,0.3c-0.3,0-0.6-0.1-0.8-0.3c-0.2-0.2-0.3-0.5-0.3-1
			c-0.1-0.5-0.1-1.1-0.1-1.9c0-0.8,0-1.4,0.1-1.9c0-0.5,0.1-0.8,0.2-1.1c0.1-0.2,0.2-0.4,0.4-0.5c0.2-0.1,0.3-0.2,0.6-0.3l12.1-4.3
			v-20.6l-11.9-4.1c-0.2-0.1-0.4-0.2-0.6-0.3c-0.2-0.1-0.3-0.3-0.4-0.6c-0.1-0.2-0.2-0.6-0.2-1c-0.1-0.4-0.1-1-0.1-1.7
			c0-0.7,0-1.3,0.1-1.8c0.1-0.5,0.2-0.8,0.4-1s0.4-0.3,0.8-0.3s0.8,0.1,1.4,0.3l46,16.6c0.3,0.1,0.5,0.2,0.7,0.4s0.3,0.4,0.4,0.7
			c0.1,0.3,0.2,0.7,0.2,1.2c0,0.5,0.1,1.1,0.1,1.9c0,0.8,0,1.5-0.1,2c0,0.5-0.1,1-0.2,1.3c-0.1,0.3-0.2,0.6-0.4,0.8
			s-0.4,0.3-0.7,0.4L495.5,254.2z M536.1,232.9L536.1,232.9l-24.7-8.6v17.2L536.1,232.9z"/>
	</g>
	<g class="st4">
		<path class="st1" d="M402.2-138.8c-0.6,0.2-1,0.3-1.4,0.3c-0.3,0-0.6-0.1-0.8-0.3c-0.2-0.2-0.3-0.5-0.3-1
			c-0.1-0.5-0.1-1.1-0.1-1.9c0-0.8,0-1.4,0.1-1.9c0-0.5,0.1-0.8,0.2-1.1c0.1-0.2,0.2-0.4,0.4-0.5c0.2-0.1,0.3-0.2,0.6-0.3l12.1-4.3
			v-20.6l-11.9-4.1c-0.2-0.1-0.4-0.2-0.6-0.3c-0.2-0.1-0.3-0.3-0.4-0.6c-0.1-0.2-0.2-0.6-0.2-1c-0.1-0.4-0.1-1-0.1-1.7
			c0-0.7,0-1.3,0.1-1.8c0.1-0.5,0.2-0.8,0.4-1s0.4-0.3,0.8-0.3s0.8,0.1,1.4,0.3l46,16.6c0.3,0.1,0.5,0.2,0.7,0.4s0.3,0.4,0.4,0.7
			c0.1,0.3,0.2,0.7,0.2,1.2c0,0.5,0.1,1.1,0.1,1.9c0,0.8,0,1.5-0.1,2c0,0.5-0.1,1-0.2,1.3c-0.1,0.3-0.2,0.6-0.4,0.8
			s-0.4,0.3-0.7,0.4L402.2-138.8z M442.9-160.1L442.9-160.1l-24.7-8.6v17.2L442.9-160.1z"/>
		<path class="st1" d="M425.4-92.4c-4.3,0-8-0.5-11.2-1.6c-3.2-1.1-5.9-2.7-8-4.8c-2.1-2.1-3.7-4.7-4.7-7.8s-1.6-6.7-1.6-11V-128
			c0-0.6,0.2-1.1,0.6-1.7c0.4-0.5,1.1-0.8,2.1-0.8h44.2c1,0,1.7,0.3,2.1,0.8c0.4,0.5,0.6,1.1,0.6,1.7v11.2c0,4.3-0.6,7.9-1.7,10.9
			c-1.1,3-2.7,5.4-4.8,7.5c-2.1,2-4.6,3.5-7.6,4.6C432.5-92.9,429.1-92.4,425.4-92.4z M425.1-99.3c2.7,0,5.2-0.3,7.5-1
			c2.3-0.7,4.3-1.7,6-3.1s3-3.2,3.9-5.4c0.9-2.2,1.4-5,1.4-8.4v-6.7h-38.6v6.8c0,3.2,0.4,5.8,1.2,8c0.8,2.2,2,4,3.6,5.4
			c1.6,1.5,3.7,2.5,6.1,3.3S421.8-99.3,425.1-99.3z"/>
		<path class="st1" d="M413.8-55.6c-2.3,0-4.4-0.4-6.2-1.3c-1.8-0.9-3.4-2-4.6-3.6c-1.3-1.5-2.2-3.3-2.9-5.4c-0.6-2.1-1-4.3-1-6.6
			c0-1.7,0.1-3.2,0.4-4.6c0.3-1.4,0.6-2.7,1-3.8c0.4-1.1,0.8-2,1.3-2.8c0.4-0.8,0.8-1.3,1.1-1.6c0.3-0.3,0.7-0.5,1.2-0.7
			c0.5-0.1,1.1-0.2,1.9-0.2c0.6,0,1,0,1.4,0.1c0.4,0.1,0.7,0.1,0.9,0.2c0.2,0.1,0.4,0.2,0.5,0.4c0.1,0.2,0.1,0.3,0.1,0.5
			c0,0.4-0.2,0.9-0.7,1.5c-0.4,0.7-0.9,1.5-1.4,2.5c-0.5,1-1,2.3-1.4,3.7c-0.4,1.4-0.7,3.1-0.7,5c0,1.4,0.2,2.7,0.6,3.9
			s0.9,2.2,1.6,3.1s1.6,1.5,2.6,2c1,0.5,2.2,0.7,3.5,0.7c1.4,0,2.6-0.3,3.6-1c1-0.6,1.9-1.5,2.6-2.5c0.8-1,1.4-2.2,2.1-3.6
			c0.6-1.3,1.3-2.7,1.9-4.1c0.7-1.4,1.4-2.8,2.2-4.1c0.8-1.3,1.7-2.5,2.8-3.6c1.1-1,2.3-1.9,3.8-2.5c1.4-0.7,3.2-1,5.2-1
			c2.1,0,3.9,0.4,5.5,1.1c1.6,0.8,3,1.8,4.1,3.1s1.9,2.9,2.5,4.8c0.6,1.9,0.9,3.8,0.9,6c0,1.1-0.1,2.2-0.3,3.3
			c-0.2,1.1-0.4,2.2-0.8,3.1c-0.3,1-0.7,1.9-1.1,2.6c-0.4,0.8-0.7,1.3-1,1.5c-0.2,0.2-0.4,0.4-0.6,0.5c-0.1,0.1-0.3,0.1-0.5,0.2
			c-0.2,0.1-0.5,0.1-0.8,0.1s-0.7,0-1.2,0c-0.5,0-0.9,0-1.2-0.1c-0.4,0-0.7-0.1-0.9-0.2c-0.2-0.1-0.4-0.2-0.5-0.3
			c-0.1-0.1-0.2-0.3-0.2-0.5c0-0.3,0.2-0.7,0.5-1.3c0.4-0.6,0.8-1.3,1.2-2.2c0.4-0.9,0.9-1.9,1.2-3.1s0.6-2.5,0.6-4
			c0-1.4-0.2-2.6-0.6-3.6s-0.9-1.9-1.5-2.5c-0.6-0.7-1.3-1.2-2.2-1.5s-1.7-0.5-2.7-0.5c-1.4,0-2.6,0.3-3.6,1c-1,0.6-1.9,1.5-2.6,2.5
			c-0.8,1.1-1.5,2.3-2.1,3.6c-0.6,1.4-1.3,2.7-1.9,4.1c-0.7,1.4-1.4,2.8-2.1,4.1c-0.8,1.4-1.7,2.6-2.8,3.6c-1.1,1.1-2.3,1.9-3.8,2.6
			C417.5-55.9,415.8-55.6,413.8-55.6z"/>
		<path class="st1" d="M402.5-17.3c-0.5,0-0.9,0-1.2-0.1c-0.3-0.1-0.6-0.2-0.8-0.3s-0.4-0.3-0.4-0.4c-0.1-0.2-0.1-0.3-0.1-0.5v-25.9
			c0-0.2,0-0.3,0.1-0.5c0.1-0.2,0.2-0.3,0.4-0.4s0.5-0.2,0.8-0.3c0.3-0.1,0.7-0.1,1.2-0.1c0.5,0,0.9,0,1.2,0.1
			c0.3,0.1,0.6,0.2,0.8,0.3c0.2,0.1,0.4,0.3,0.5,0.4c0.1,0.2,0.2,0.4,0.2,0.6v10.3h37.7l-5.7-9.6c-0.3-0.5-0.4-0.9-0.5-1.2
			c-0.1-0.3,0-0.5,0.2-0.7c0.2-0.2,0.4-0.3,0.8-0.4s0.9-0.1,1.5-0.1c0.4,0,0.8,0,1.1,0.1s0.6,0.1,0.8,0.2c0.2,0.1,0.4,0.2,0.5,0.3
			c0.2,0.1,0.3,0.3,0.5,0.6l7.3,11.4c0.1,0.1,0.1,0.2,0.2,0.4c0.1,0.2,0.1,0.3,0.2,0.6c0.1,0.2,0.1,0.5,0.1,0.8s0,0.7,0,1.1
			c0,0.6,0,1.1-0.1,1.5c-0.1,0.4-0.1,0.7-0.2,1c-0.1,0.2-0.2,0.4-0.3,0.5c-0.1,0.1-0.3,0.1-0.4,0.1h-43.6v9c0,0.2-0.1,0.4-0.2,0.6
			c-0.1,0.2-0.3,0.3-0.5,0.4c-0.2,0.1-0.5,0.2-0.8,0.3S403-17.3,402.5-17.3z"/>
		<path class="st1" d="M402.5,22.5c-0.5,0-0.9,0-1.2-0.1c-0.3-0.1-0.6-0.2-0.8-0.3s-0.4-0.3-0.4-0.4c-0.1-0.2-0.1-0.3-0.1-0.5V-4.8
			c0-0.2,0-0.3,0.1-0.5c0.1-0.2,0.2-0.3,0.4-0.4s0.5-0.2,0.8-0.3c0.3-0.1,0.7-0.1,1.2-0.1c0.5,0,0.9,0,1.2,0.1
			c0.3,0.1,0.6,0.2,0.8,0.3c0.2,0.1,0.4,0.3,0.5,0.4c0.1,0.2,0.2,0.4,0.2,0.6V5.6h37.7L437.2-4c-0.3-0.5-0.4-0.9-0.5-1.2
			c-0.1-0.3,0-0.5,0.2-0.7c0.2-0.2,0.4-0.3,0.8-0.4s0.9-0.1,1.5-0.1c0.4,0,0.8,0,1.1,0.1s0.6,0.1,0.8,0.2c0.2,0.1,0.4,0.2,0.5,0.3
			c0.2,0.1,0.3,0.3,0.5,0.6l7.3,11.4c0.1,0.1,0.1,0.2,0.2,0.4c0.1,0.2,0.1,0.3,0.2,0.6c0.1,0.2,0.1,0.5,0.1,0.8c0,0.3,0,0.7,0,1.1
			c0,0.6,0,1.1-0.1,1.5c-0.1,0.4-0.1,0.7-0.2,1c-0.1,0.2-0.2,0.4-0.3,0.5c-0.1,0.1-0.3,0.1-0.4,0.1h-43.6v9c0,0.2-0.1,0.4-0.2,0.6
			c-0.1,0.2-0.3,0.3-0.5,0.4c-0.2,0.1-0.5,0.2-0.8,0.3S403,22.5,402.5,22.5z"/>
		<path class="st1" d="M402.5,62.3c-0.5,0-0.9,0-1.2-0.1c-0.3-0.1-0.6-0.2-0.8-0.3s-0.4-0.3-0.4-0.4c-0.1-0.2-0.1-0.3-0.1-0.5V35
			c0-0.2,0-0.3,0.1-0.5c0.1-0.2,0.2-0.3,0.4-0.4s0.5-0.2,0.8-0.3c0.3-0.1,0.7-0.1,1.2-0.1c0.5,0,0.9,0,1.2,0.1
			c0.3,0.1,0.6,0.2,0.8,0.3c0.2,0.1,0.4,0.3,0.5,0.4c0.1,0.2,0.2,0.4,0.2,0.6v10.3h37.7l-5.7-9.6c-0.3-0.5-0.4-0.9-0.5-1.2
			c-0.1-0.3,0-0.5,0.2-0.7c0.2-0.2,0.4-0.3,0.8-0.4s0.9-0.1,1.5-0.1c0.4,0,0.8,0,1.1,0.1s0.6,0.1,0.8,0.2c0.2,0.1,0.4,0.2,0.5,0.3
			c0.2,0.1,0.3,0.3,0.5,0.6l7.3,11.4c0.1,0.1,0.1,0.2,0.2,0.4c0.1,0.2,0.1,0.3,0.2,0.6c0.1,0.2,0.1,0.5,0.1,0.8s0,0.7,0,1.1
			c0,0.6,0,1.1-0.1,1.5c-0.1,0.4-0.1,0.7-0.2,1c-0.1,0.2-0.2,0.4-0.3,0.5c-0.1,0.1-0.3,0.1-0.4,0.1h-43.6v9c0,0.2-0.1,0.4-0.2,0.6
			c-0.1,0.2-0.3,0.3-0.5,0.4c-0.2,0.1-0.5,0.2-0.8,0.3S403,62.3,402.5,62.3z"/>
		<path class="st1" d="M415.8,101.7c-2.7,0-5-0.4-7.1-1.3c-2.1-0.9-3.8-2.2-5.2-3.8c-1.4-1.6-2.5-3.6-3.2-5.8
			c-0.7-2.3-1.1-4.8-1.1-7.5c0-1.5,0.1-3,0.3-4.4c0.2-1.4,0.5-2.6,0.8-3.7c0.3-1.1,0.6-2,0.9-2.6s0.5-1.1,0.7-1.3s0.3-0.3,0.5-0.4
			s0.3-0.1,0.6-0.2c0.2-0.1,0.5-0.1,0.8-0.1s0.7,0,1.2,0c0.4,0,0.8,0,1.2,0.1c0.3,0,0.6,0.1,0.8,0.2c0.2,0.1,0.4,0.2,0.5,0.4
			c0.1,0.1,0.2,0.3,0.2,0.5c0,0.3-0.2,0.7-0.5,1.2s-0.7,1.3-1,2.2s-0.7,2-1.1,3.4c-0.3,1.3-0.5,2.9-0.5,4.8c0,1.7,0.2,3.3,0.6,4.7
			c0.4,1.4,1,2.7,1.9,3.7c0.9,1,2,1.8,3.3,2.4s2.9,0.9,4.8,0.9c1.6,0,3-0.2,4.2-0.7s2.2-1.3,3-2.3s1.4-2.3,1.8-3.9
			c0.4-1.6,0.6-3.5,0.6-5.7c0-1.6-0.1-2.9-0.2-4c-0.2-1.1-0.2-2.2-0.2-3.1c0-0.7,0.2-1.2,0.5-1.5c0.3-0.3,1-0.5,1.9-0.5H447
			c0.8,0,1.5,0.2,1.9,0.6c0.4,0.4,0.6,1,0.6,1.7v21.9c0,0.2-0.1,0.4-0.2,0.6c-0.1,0.2-0.3,0.4-0.5,0.5s-0.5,0.2-0.9,0.3
			c-0.4,0.1-0.8,0.1-1.3,0.1c-0.9,0-1.6-0.1-2.1-0.4c-0.5-0.2-0.8-0.6-0.8-1V79.5h-13.9c0.1,0.9,0.2,1.7,0.2,2.6s0,1.9,0,3.1
			c0,2.7-0.3,5.1-1,7.2c-0.7,2-1.6,3.7-2.9,5.1c-1.2,1.4-2.7,2.4-4.5,3.1C419.9,101.3,418,101.7,415.8,101.7z"/>
	</g>
	<g class="st4">
		<path class="st1" d="M267-533c0,0.2,0,0.3-0.1,0.5c-0.1,0.1-0.2,0.3-0.4,0.3c-0.2,0.1-0.5,0.2-0.9,0.2s-0.8,0.1-1.4,0.1
			c-0.8,0-1.4,0-1.8-0.1c-0.5-0.1-0.8-0.2-1.1-0.4c-0.2-0.2-0.4-0.4-0.6-0.6l-15.4-21v21c0,0.2,0,0.3-0.1,0.4
			c-0.1,0.1-0.2,0.2-0.5,0.3c-0.2,0.1-0.5,0.1-0.9,0.2s-0.8,0.1-1.3,0.1c-0.5,0-1,0-1.3-0.1s-0.7-0.1-0.9-0.2
			c-0.2-0.1-0.4-0.2-0.5-0.3c-0.1-0.1-0.1-0.3-0.1-0.4v-40.2c0-0.2,0-0.3,0.1-0.5c0.1-0.1,0.2-0.2,0.5-0.3c0.2-0.1,0.5-0.1,0.9-0.2
			c0.4-0.1,0.8-0.1,1.3-0.1c0.5,0,1,0,1.3,0.1c0.4,0.1,0.6,0.1,0.9,0.2c0.2,0.1,0.4,0.2,0.5,0.3c0.1,0.1,0.1,0.3,0.1,0.5v18.6
			l14.8-18.6c0.1-0.2,0.3-0.4,0.5-0.5c0.2-0.1,0.4-0.2,0.6-0.3s0.6-0.1,0.9-0.2c0.4,0,0.8-0.1,1.4-0.1s1,0,1.4,0.1
			c0.3,0.1,0.6,0.1,0.8,0.2c0.2,0.1,0.3,0.2,0.4,0.3c0.1,0.1,0.1,0.3,0.1,0.4c0,0.3-0.1,0.6-0.2,0.8c-0.1,0.3-0.4,0.7-0.8,1.2
			l-13.9,16.6l15,19.9c0.4,0.6,0.6,0.9,0.7,1.2C267-533.3,267-533.1,267-533z"/>
		<path class="st1" d="M287.5-548.4v15.5c0,0.2,0,0.3-0.1,0.5s-0.2,0.2-0.5,0.3c-0.2,0.1-0.5,0.1-0.9,0.2c-0.4,0.1-0.8,0.1-1.3,0.1
			c-0.5,0-1,0-1.3-0.1s-0.6-0.1-0.9-0.2c-0.2-0.1-0.4-0.2-0.5-0.3s-0.1-0.3-0.1-0.5v-15.5L270.1-572c-0.2-0.5-0.4-0.9-0.4-1.2
			s0-0.5,0.2-0.6c0.2-0.2,0.5-0.2,0.9-0.3c0.4,0,1-0.1,1.7-0.1c0.6,0,1.2,0,1.6,0.1c0.4,0,0.7,0.1,1,0.2s0.4,0.2,0.5,0.3
			c0.1,0.1,0.2,0.3,0.3,0.5l5.8,12.1c0.5,1.1,1.1,2.3,1.6,3.6c0.5,1.3,1.1,2.5,1.6,3.8h0.1c0.5-1.2,1-2.5,1.5-3.7
			c0.5-1.2,1.1-2.4,1.6-3.6l5.8-12.1c0.1-0.2,0.2-0.4,0.3-0.6c0.1-0.2,0.3-0.3,0.5-0.3s0.5-0.1,0.9-0.2c0.4,0,0.8-0.1,1.4-0.1
			c0.8,0,1.4,0,1.8,0.1c0.4,0.1,0.8,0.2,0.9,0.3c0.2,0.2,0.2,0.4,0.2,0.6c-0.1,0.3-0.2,0.7-0.4,1.1L287.5-548.4z"/>
		<path class="st1" d="M315.2-548.4c0,0.8-0.1,1.4-0.3,1.7s-0.5,0.5-0.8,0.5h-13.5c-0.4,0-0.7-0.2-0.9-0.5c-0.2-0.3-0.3-0.9-0.3-1.7
			c0-0.8,0.1-1.4,0.3-1.7c0.2-0.3,0.5-0.5,0.9-0.5h13.5c0.2,0,0.3,0,0.5,0.1c0.1,0.1,0.3,0.2,0.4,0.4c0.1,0.2,0.2,0.4,0.2,0.7
			C315.2-549.2,315.2-548.8,315.2-548.4z"/>
		<path class="st1" d="M348.8-553.1c0,3.2-0.3,6.2-0.8,8.8c-0.5,2.7-1.3,4.9-2.5,6.9c-1.2,1.9-2.7,3.4-4.6,4.4c-1.9,1-4.2,1.6-7,1.6
			c-2.6,0-4.9-0.5-6.7-1.4c-1.8-0.9-3.3-2.3-4.4-4.1c-1.1-1.8-1.9-4.1-2.3-6.7c-0.5-2.7-0.7-5.7-0.7-9.2c0-3.2,0.3-6.1,0.8-8.8
			c0.5-2.7,1.4-5,2.5-6.9s2.7-3.4,4.6-4.4c1.9-1,4.2-1.6,7-1.6c2.7,0,4.9,0.5,6.7,1.4c1.8,0.9,3.3,2.3,4.4,4.1
			c1.1,1.8,1.9,4.1,2.3,6.7C348.5-559.6,348.8-556.6,348.8-553.1z M343.1-552.7c0-2.1-0.1-4-0.2-5.6s-0.4-3.1-0.7-4.4
			c-0.3-1.3-0.7-2.4-1.1-3.3c-0.5-0.9-1-1.7-1.7-2.3c-0.6-0.6-1.4-1-2.2-1.3c-0.8-0.3-1.8-0.4-2.8-0.4c-1.8,0-3.3,0.4-4.5,1.3
			c-1.1,0.9-2,2.1-2.7,3.6c-0.7,1.5-1.1,3.3-1.3,5.3c-0.2,2-0.4,4.2-0.4,6.5c0,3.1,0.2,5.8,0.5,8c0.3,2.2,0.8,4,1.5,5.4
			c0.7,1.4,1.6,2.4,2.7,3c1.1,0.6,2.4,0.9,4,0.9c1.2,0,2.3-0.2,3.2-0.6c0.9-0.4,1.7-0.9,2.4-1.7c0.7-0.7,1.2-1.6,1.6-2.6
			c0.4-1,0.8-2.1,1-3.4c0.3-1.2,0.4-2.6,0.5-4C343-549.7,343.1-551.2,343.1-552.7z"/>
		<path class="st1" d="M380.8-545.5c0,2.2-0.4,4.2-1.1,6c-0.8,1.8-1.8,3.2-3.2,4.4c-1.4,1.2-3,2.1-4.9,2.7c-1.9,0.6-4,0.9-6.4,0.9
			c-1.3,0-2.5-0.1-3.7-0.3s-2.2-0.4-3.1-0.7c-0.9-0.3-1.7-0.5-2.2-0.8s-1-0.5-1.1-0.6s-0.3-0.3-0.3-0.4c-0.1-0.1-0.1-0.3-0.2-0.5
			c-0.1-0.2-0.1-0.4-0.1-0.7c0-0.3,0-0.6,0-1c0-0.4,0-0.7,0-1c0-0.3,0.1-0.5,0.2-0.7c0.1-0.2,0.2-0.3,0.3-0.4
			c0.1-0.1,0.3-0.1,0.4-0.1c0.2,0,0.6,0.1,1,0.4c0.5,0.3,1.1,0.6,1.8,0.9c0.8,0.3,1.7,0.6,2.9,0.9s2.5,0.4,4,0.4
			c1.4,0,2.8-0.2,4-0.5c1.2-0.3,2.3-0.9,3.1-1.6c0.9-0.7,1.6-1.7,2.1-2.8c0.5-1.1,0.7-2.5,0.7-4.1c0-1.3-0.2-2.5-0.6-3.5
			c-0.4-1-1.1-1.9-1.9-2.6c-0.9-0.7-2-1.2-3.3-1.5c-1.3-0.3-2.9-0.5-4.8-0.5c-1.3,0-2.5,0.1-3.4,0.2c-1,0.1-1.8,0.2-2.7,0.2
			c-0.6,0-1-0.1-1.3-0.4c-0.3-0.3-0.4-0.8-0.4-1.6v-17.1c0-0.7,0.2-1.2,0.5-1.6c0.3-0.3,0.8-0.5,1.4-0.5H377c0.2,0,0.3,0,0.5,0.1
			s0.3,0.2,0.4,0.4c0.1,0.2,0.2,0.4,0.2,0.7c0.1,0.3,0.1,0.7,0.1,1.1c0,0.8-0.1,1.4-0.3,1.8c-0.2,0.4-0.5,0.6-0.9,0.6h-15v11.8
			c0.7-0.1,1.5-0.2,2.2-0.2c0.8,0,1.6,0,2.6,0c2.3,0,4.3,0.3,6.1,0.9c1.7,0.6,3.2,1.4,4.3,2.4c1.2,1,2,2.3,2.6,3.8
			C380.5-549,380.8-547.4,380.8-545.5z"/>
		<path class="st1" d="M414.3-544.1c0,1.9-0.3,3.7-1,5.2c-0.7,1.5-1.6,2.9-2.9,4c-1.3,1.1-2.8,1.9-4.6,2.5c-1.8,0.6-3.9,0.9-6.2,0.9
			c-1.4,0-2.7-0.1-3.9-0.3s-2.3-0.5-3.3-0.8c-1-0.3-1.7-0.6-2.4-1c-0.6-0.3-1-0.6-1.2-0.7c-0.2-0.2-0.3-0.3-0.4-0.5
			c-0.1-0.2-0.2-0.3-0.2-0.6c-0.1-0.2-0.1-0.5-0.1-0.8c0-0.3,0-0.7,0-1.1c0-0.8,0.1-1.3,0.2-1.6c0.2-0.3,0.4-0.5,0.7-0.5
			c0.2,0,0.6,0.2,1.2,0.5c0.6,0.3,1.3,0.7,2.3,1.1c0.9,0.4,2,0.8,3.2,1.1c1.2,0.3,2.6,0.5,4.1,0.5c1.5,0,2.7-0.2,3.9-0.6
			s2-0.9,2.8-1.6c0.8-0.7,1.3-1.5,1.7-2.4s0.6-1.9,0.6-3c0-1.2-0.2-2.3-0.7-3.2c-0.5-0.9-1.2-1.8-2.1-2.5c-0.9-0.7-2.1-1.2-3.4-1.6
			s-2.9-0.6-4.6-0.6h-4.1c-0.2,0-0.4,0-0.5-0.1c-0.2-0.1-0.3-0.2-0.4-0.4c-0.1-0.2-0.2-0.4-0.3-0.7c-0.1-0.3-0.1-0.6-0.1-1.1
			c0-0.4,0-0.8,0.1-1c0.1-0.3,0.2-0.5,0.3-0.6c0.1-0.2,0.3-0.3,0.4-0.4c0.2-0.1,0.3-0.1,0.5-0.1h3.7c1.4,0,2.7-0.2,3.8-0.6
			s2.1-0.9,2.9-1.6s1.4-1.5,1.8-2.5s0.6-2,0.6-3.2c0-0.9-0.1-1.7-0.4-2.5c-0.3-0.8-0.7-1.5-1.3-2.1c-0.6-0.6-1.3-1-2.2-1.4
			c-0.9-0.3-1.9-0.5-3-0.5c-1.3,0-2.4,0.2-3.4,0.6c-1,0.4-2,0.8-2.8,1.2c-0.8,0.4-1.5,0.8-2,1.2c-0.5,0.4-0.9,0.6-1.1,0.6
			c-0.2,0-0.3,0-0.4-0.1c-0.1-0.1-0.2-0.2-0.3-0.3c-0.1-0.2-0.1-0.4-0.2-0.7c0-0.3,0-0.7,0-1.1c0-0.3,0-0.6,0-0.9
			c0-0.2,0.1-0.5,0.1-0.6c0.1-0.2,0.1-0.4,0.2-0.5c0.1-0.2,0.2-0.3,0.4-0.5c0.2-0.2,0.6-0.5,1.2-0.9c0.6-0.4,1.4-0.8,2.3-1.1
			s2-0.7,3.2-1c1.2-0.3,2.5-0.4,3.9-0.4c1.9,0,3.6,0.2,5.1,0.7c1.5,0.5,2.7,1.2,3.7,2.1c1,0.9,1.7,2,2.2,3.3
			c0.5,1.3,0.7,2.7,0.7,4.2c0,1.3-0.2,2.5-0.5,3.7s-0.9,2.1-1.5,3c-0.7,0.9-1.5,1.6-2.5,2.2c-1,0.6-2.1,1-3.4,1.3v0.1
			c1.4,0.2,2.8,0.5,4,1.1c1.2,0.6,2.2,1.3,3.1,2.2c0.9,0.9,1.5,1.9,2,3C414.1-546.6,414.3-545.4,414.3-544.1z"/>
	</g>
	<g class="st4">
		<path class="st1" d="M138.4-493.4c-0.1,0.2-0.2,0.4-0.3,0.5s-0.3,0.3-0.6,0.3c-0.3,0.1-0.6,0.1-1,0.2s-0.9,0-1.5,0
			c-0.4,0-0.8,0-1.2,0c-0.3,0-0.6,0-0.9-0.1c-0.2,0-0.4-0.1-0.6-0.1s-0.3-0.1-0.4-0.2c-0.1-0.1-0.2-0.2-0.3-0.3
			c-0.1-0.1-0.1-0.2-0.2-0.4l-12.7-36.2c-0.2-0.4-0.2-0.8-0.3-1.1c0-0.3,0.1-0.5,0.3-0.6s0.5-0.2,0.9-0.3c0.4,0,0.9-0.1,1.6-0.1
			c0.6,0,1,0,1.3,0c0.3,0,0.6,0.1,0.8,0.2s0.3,0.2,0.4,0.3c0.1,0.1,0.2,0.3,0.3,0.5l11.2,32.8h0l10.9-32.7c0.1-0.2,0.1-0.4,0.2-0.5
			s0.2-0.3,0.4-0.3c0.2-0.1,0.5-0.1,0.8-0.2c0.4,0,0.8,0,1.4,0c0.6,0,1.1,0,1.5,0.1s0.6,0.1,0.7,0.3c0.1,0.1,0.2,0.3,0.2,0.6
			c0,0.3-0.1,0.6-0.3,1.1L138.4-493.4z"/>
		<path class="st1" d="M187.6-512.6c0,3.4-0.4,6.3-1.3,8.8c-0.9,2.5-2.1,4.6-3.8,6.3c-1.7,1.7-3.7,2.9-6.1,3.7
			c-2.4,0.8-5.3,1.2-8.6,1.2h-8.3c-0.5,0-0.9-0.2-1.3-0.5c-0.4-0.3-0.6-0.9-0.6-1.6v-34.8c0-0.8,0.2-1.3,0.6-1.6
			c0.4-0.3,0.8-0.5,1.3-0.5h8.8c3.4,0,6.2,0.4,8.6,1.3c2.3,0.9,4.3,2.1,5.9,3.8c1.6,1.6,2.8,3.6,3.6,5.9
			C187.2-518.2,187.6-515.5,187.6-512.6z M182.2-512.4c0-2.1-0.3-4.1-0.8-5.9c-0.5-1.8-1.3-3.4-2.5-4.7s-2.5-2.4-4.2-3.1
			c-1.7-0.7-3.9-1.1-6.6-1.1h-5.3v30.3h5.3c2.5,0,4.6-0.3,6.3-0.9c1.7-0.6,3.1-1.6,4.3-2.9s2-2.9,2.6-4.8
			C181.9-507.4,182.2-509.7,182.2-512.4z"/>
		<path class="st1" d="M225.6-512.6c0,3.4-0.4,6.3-1.3,8.8c-0.9,2.5-2.1,4.6-3.8,6.3c-1.7,1.7-3.7,2.9-6.1,3.7
			c-2.4,0.8-5.3,1.2-8.6,1.2h-8.3c-0.5,0-0.9-0.2-1.3-0.5c-0.4-0.3-0.6-0.9-0.6-1.6v-34.8c0-0.8,0.2-1.3,0.6-1.6
			c0.4-0.3,0.8-0.5,1.3-0.5h8.8c3.4,0,6.2,0.4,8.6,1.3c2.3,0.9,4.3,2.1,5.9,3.8c1.6,1.6,2.8,3.6,3.6,5.9
			C225.2-518.2,225.6-515.5,225.6-512.6z M220.1-512.4c0-2.1-0.3-4.1-0.8-5.9c-0.5-1.8-1.3-3.4-2.5-4.7s-2.5-2.4-4.2-3.1
			c-1.7-0.7-3.9-1.1-6.6-1.1h-5.3v30.3h5.3c2.5,0,4.6-0.3,6.3-0.9c1.7-0.6,3.1-1.6,4.3-2.9s2-2.9,2.6-4.8
			C219.8-507.4,220.1-509.7,220.1-512.4z"/>
	</g>
	<g class="st4">
		<path class="st1" d="M151.6-419.6c0,0.4,0,0.8-0.1,1.1s-0.1,0.6-0.2,0.8c-0.1,0.2-0.2,0.4-0.3,0.5c-0.1,0.1-0.3,0.1-0.4,0.1
			c-0.3,0-0.7-0.2-1.3-0.6c-0.6-0.4-1.5-0.9-2.5-1.4c-1.1-0.5-2.3-1-3.8-1.4s-3.2-0.6-5.2-0.6c-2.4,0-4.5,0.4-6.5,1.3
			c-1.9,0.9-3.5,2.1-4.8,3.6c-1.3,1.5-2.3,3.4-3,5.5c-0.7,2.1-1.1,4.4-1.1,6.9c0,2.8,0.4,5.2,1.2,7.4c0.8,2.2,1.8,4,3.2,5.4
			c1.4,1.5,3,2.6,4.9,3.4c1.9,0.8,4,1.1,6.2,1.1c1.3,0,2.7-0.2,4.1-0.5c1.4-0.3,2.7-0.8,3.8-1.5v-12.7h-10.1c-0.4,0-0.7-0.2-0.9-0.6
			s-0.3-1-0.3-1.8c0-0.4,0-0.8,0.1-1.1c0-0.3,0.1-0.5,0.2-0.7c0.1-0.2,0.2-0.3,0.4-0.4c0.1-0.1,0.3-0.1,0.5-0.1h13.8
			c0.2,0,0.5,0,0.7,0.1c0.2,0.1,0.5,0.2,0.7,0.4c0.2,0.2,0.4,0.4,0.5,0.7c0.1,0.3,0.2,0.7,0.2,1.1v16.6c0,0.6-0.1,1.1-0.3,1.5
			c-0.2,0.4-0.6,0.8-1.3,1.1c-0.7,0.3-1.5,0.7-2.5,1.1c-1,0.4-2.1,0.7-3.2,1c-1.1,0.3-2.2,0.5-3.3,0.6s-2.2,0.2-3.3,0.2
			c-3.4,0-6.4-0.5-9-1.6s-4.9-2.5-6.7-4.5c-1.8-1.9-3.2-4.2-4.2-6.9c-1-2.7-1.4-5.7-1.4-9c0-3.5,0.5-6.6,1.6-9.4
			c1-2.8,2.5-5.2,4.4-7.2c1.9-2,4.2-3.5,6.8-4.6c2.7-1.1,5.6-1.6,8.8-1.6c1.7,0,3.2,0.1,4.7,0.4c1.5,0.3,2.8,0.6,3.9,1
			c1.1,0.4,2.1,0.8,2.9,1.3c0.8,0.5,1.3,0.8,1.6,1.1c0.3,0.3,0.5,0.6,0.6,1S151.6-420.3,151.6-419.6z"/>
		<path class="st1" d="M195.2-384.4c0,0.4-0.1,0.8-0.2,1.1c-0.2,0.3-0.3,0.6-0.6,0.8c-0.2,0.2-0.5,0.3-0.8,0.4
			c-0.3,0.1-0.6,0.1-0.9,0.1h-1.9c-0.6,0-1.1-0.1-1.6-0.2s-0.9-0.3-1.3-0.7c-0.4-0.3-0.8-0.8-1.2-1.3c-0.4-0.6-0.8-1.3-1.3-2.2
			L172.1-411c-0.7-1.3-1.4-2.6-2.1-4c-0.7-1.4-1.4-2.8-2-4.1H168c0,1.6,0.1,3.3,0.1,4.9s0,3.4,0,5v26.3c0,0.2,0,0.3-0.1,0.5
			c-0.1,0.1-0.3,0.3-0.5,0.3c-0.2,0.1-0.5,0.1-0.9,0.2s-0.8,0.1-1.4,0.1s-1,0-1.4-0.1c-0.4-0.1-0.7-0.1-0.9-0.2
			c-0.2-0.1-0.4-0.2-0.5-0.3s-0.1-0.3-0.1-0.5V-423c0-0.9,0.3-1.5,0.8-1.9c0.5-0.4,1.1-0.6,1.7-0.6h2.8c0.7,0,1.2,0.1,1.7,0.2
			c0.5,0.1,0.9,0.3,1.2,0.6c0.4,0.3,0.7,0.6,1,1.1c0.3,0.5,0.7,1,1.1,1.7l10.2,19.1c0.6,1.2,1.2,2.3,1.8,3.4
			c0.6,1.1,1.1,2.2,1.7,3.3c0.5,1.1,1.1,2.1,1.6,3.2c0.5,1,1.1,2.1,1.6,3.1h0c0-1.8-0.1-3.6-0.1-5.5s0-3.8,0-5.5v-23.6
			c0-0.2,0-0.3,0.1-0.4s0.3-0.3,0.5-0.4c0.2-0.1,0.5-0.2,0.9-0.2c0.4,0,0.8-0.1,1.4-0.1c0.5,0,1,0,1.3,0.1s0.7,0.1,0.9,0.2
			c0.2,0.1,0.4,0.2,0.5,0.4c0.1,0.1,0.1,0.3,0.1,0.4V-384.4z"/>
		<path class="st1" d="M240.3-404.4c0,3.8-0.5,7.1-1.4,9.9c-1,2.8-2.4,5.1-4.2,7c-1.8,1.8-4.1,3.2-6.8,4.2s-5.9,1.4-9.6,1.4H209
			c-0.5,0-1-0.2-1.5-0.5c-0.5-0.3-0.7-1-0.7-1.8v-38.8c0-0.9,0.2-1.5,0.7-1.8c0.5-0.3,0.9-0.5,1.5-0.5h9.8c3.8,0,6.9,0.5,9.5,1.5
			c2.6,1,4.8,2.4,6.5,4.2c1.8,1.8,3.1,4,4,6.6C239.8-410.6,240.3-407.7,240.3-404.4z M234.2-404.2c0-2.4-0.3-4.5-0.9-6.6
			c-0.6-2-1.5-3.8-2.7-5.3s-2.8-2.6-4.7-3.5c-1.9-0.8-4.4-1.2-7.4-1.2h-5.9v33.9h6c2.8,0,5.1-0.3,7-1c1.9-0.7,3.5-1.8,4.8-3.2
			s2.2-3.2,2.9-5.4S234.2-401.2,234.2-404.2z"/>
	</g>
	<g class="st4">
		<path class="st1" d="M150.3-289.9c0,1.9-0.3,3.5-1,5s-1.7,2.7-2.9,3.7s-2.7,1.8-4.3,2.3c-1.7,0.5-3.5,0.8-5.4,0.8
			c-1.3,0-2.6-0.1-3.7-0.3c-1.1-0.2-2.2-0.5-3.1-0.8s-1.7-0.7-2.3-1c-0.6-0.4-1-0.6-1.3-0.9c-0.2-0.2-0.4-0.6-0.5-0.9
			c-0.1-0.4-0.2-0.9-0.2-1.5c0-0.5,0-0.8,0.1-1.1c0-0.3,0.1-0.5,0.2-0.7c0.1-0.2,0.2-0.3,0.3-0.4c0.1-0.1,0.3-0.1,0.4-0.1
			c0.3,0,0.7,0.2,1.2,0.5s1.2,0.7,2,1.1c0.8,0.4,1.8,0.8,3,1.2c1.2,0.4,2.5,0.5,4,0.5c1.2,0,2.2-0.2,3.2-0.5c1-0.3,1.8-0.7,2.5-1.3
			c0.7-0.6,1.2-1.3,1.6-2.1c0.4-0.8,0.6-1.8,0.6-2.8c0-1.1-0.3-2.1-0.8-2.9s-1.2-1.5-2-2.1c-0.8-0.6-1.8-1.2-2.9-1.7
			c-1.1-0.5-2.2-1-3.3-1.5c-1.1-0.5-2.2-1.1-3.3-1.7c-1.1-0.6-2-1.4-2.9-2.3c-0.8-0.9-1.5-1.9-2.1-3c-0.5-1.2-0.8-2.6-0.8-4.2
			c0-1.7,0.3-3.2,0.9-4.5s1.5-2.4,2.5-3.3c1.1-0.9,2.4-1.6,3.9-2c1.5-0.5,3.1-0.7,4.8-0.7c0.9,0,1.8,0.1,2.7,0.2
			c0.9,0.2,1.7,0.4,2.5,0.6c0.8,0.3,1.5,0.5,2.1,0.9c0.6,0.3,1,0.6,1.2,0.8s0.3,0.4,0.4,0.5c0.1,0.1,0.1,0.3,0.2,0.4
			c0,0.2,0.1,0.4,0.1,0.6c0,0.2,0,0.6,0,1c0,0.4,0,0.7,0,1s-0.1,0.5-0.1,0.7c-0.1,0.2-0.1,0.3-0.3,0.4c-0.1,0.1-0.2,0.1-0.4,0.1
			c-0.2,0-0.6-0.1-1.1-0.4c-0.5-0.3-1.1-0.6-1.8-1c-0.7-0.4-1.5-0.7-2.5-1c-1-0.3-2-0.4-3.2-0.4c-1.1,0-2.1,0.1-2.9,0.4
			c-0.8,0.3-1.5,0.7-2,1.2c-0.5,0.5-0.9,1.1-1.2,1.8c-0.3,0.7-0.4,1.4-0.4,2.2c0,1.1,0.3,2.1,0.8,2.9s1.2,1.5,2.1,2.1
			c0.9,0.6,1.8,1.2,2.9,1.7c1.1,0.5,2.2,1,3.3,1.6c1.1,0.5,2.2,1.1,3.3,1.7c1.1,0.6,2.1,1.4,2.9,2.2c0.9,0.9,1.5,1.9,2.1,3
			C150.1-292.8,150.3-291.4,150.3-289.9z"/>
		<path class="st1" d="M184.7-284.3c0,0.3,0,0.6,0,0.9c0,0.2-0.1,0.5-0.1,0.6c-0.1,0.2-0.1,0.4-0.2,0.5c-0.1,0.1-0.2,0.3-0.4,0.5
			c-0.2,0.2-0.6,0.5-1.3,0.9c-0.7,0.4-1.5,0.8-2.5,1.2c-1,0.4-2.1,0.7-3.4,1c-1.3,0.3-2.7,0.4-4.2,0.4c-2.6,0-4.9-0.4-7-1.3
			c-2.1-0.9-3.9-2.1-5.4-3.8c-1.5-1.7-2.6-3.8-3.4-6.3s-1.2-5.3-1.2-8.6c0-3.3,0.4-6.3,1.3-8.9s2.1-4.8,3.6-6.6
			c1.5-1.8,3.4-3.2,5.6-4.1c2.2-0.9,4.5-1.4,7.2-1.4c1.2,0,2.3,0.1,3.4,0.3c1.1,0.2,2.1,0.5,3,0.8c0.9,0.3,1.8,0.7,2.5,1.1
			c0.7,0.4,1.2,0.8,1.5,1.1c0.3,0.3,0.5,0.5,0.5,0.6c0.1,0.1,0.1,0.3,0.2,0.5s0.1,0.4,0.1,0.7c0,0.3,0,0.6,0,1c0,0.4,0,0.8-0.1,1.1
			c0,0.3-0.1,0.5-0.2,0.7c-0.1,0.2-0.2,0.3-0.3,0.4s-0.3,0.1-0.4,0.1c-0.3,0-0.7-0.2-1.2-0.6s-1.2-0.8-2-1.3c-0.8-0.5-1.8-0.9-3-1.3
			c-1.2-0.4-2.6-0.6-4.2-0.6c-1.8,0-3.4,0.4-4.9,1.1c-1.5,0.7-2.7,1.8-3.7,3.1c-1,1.4-1.8,3.1-2.4,5.1c-0.6,2-0.9,4.3-0.9,6.8
			c0,2.5,0.3,4.8,0.8,6.7c0.5,1.9,1.3,3.6,2.4,4.9c1,1.3,2.3,2.3,3.8,3c1.5,0.7,3.2,1,5.1,1c1.6,0,3-0.2,4.2-0.6s2.2-0.8,3-1.3
			c0.8-0.5,1.5-0.9,2.1-1.3c0.5-0.4,1-0.6,1.3-0.6c0.1,0,0.3,0,0.4,0.1s0.2,0.2,0.2,0.4c0.1,0.2,0.1,0.4,0.1,0.7
			S184.7-284.8,184.7-284.3z"/>
		<path class="st1" d="M212.5-280.9c0,0.4,0,0.8-0.1,1s-0.1,0.5-0.2,0.7s-0.2,0.3-0.3,0.4c-0.1,0.1-0.3,0.1-0.5,0.1h-17.7
			c-0.5,0-0.9-0.2-1.3-0.5c-0.4-0.3-0.6-0.9-0.6-1.7v-37.1c0-0.2,0-0.3,0.1-0.4c0.1-0.1,0.2-0.2,0.4-0.3s0.5-0.1,0.8-0.2
			c0.4-0.1,0.8-0.1,1.3-0.1c0.5,0,0.9,0,1.3,0.1c0.3,0.1,0.6,0.1,0.8,0.2s0.4,0.2,0.4,0.3c0.1,0.1,0.1,0.3,0.1,0.4v34.6h14.4
			c0.2,0,0.3,0,0.5,0.1c0.1,0.1,0.2,0.2,0.3,0.4c0.1,0.2,0.2,0.4,0.2,0.7S212.5-281.4,212.5-280.9z"/>
	</g>
	<g class="st4">
		<path class="st1" d="M147.7-183.2c0,2.3-0.4,4.4-1.3,6.2c-0.9,1.8-2,3.4-3.6,4.6c-1.5,1.3-3.3,2.2-5.4,2.9c-2.1,0.6-4.3,1-6.6,1
			c-1.7,0-3.2-0.1-4.6-0.4c-1.4-0.3-2.7-0.6-3.8-1c-1.1-0.4-2-0.8-2.8-1.3c-0.8-0.4-1.3-0.8-1.6-1.1c-0.3-0.3-0.5-0.7-0.7-1.2
			c-0.1-0.5-0.2-1.1-0.2-1.9c0-0.6,0-1,0.1-1.4c0.1-0.4,0.1-0.7,0.2-0.9c0.1-0.2,0.2-0.4,0.4-0.5c0.2-0.1,0.3-0.1,0.5-0.1
			c0.4,0,0.9,0.2,1.5,0.7c0.7,0.4,1.5,0.9,2.5,1.4c1,0.5,2.3,1,3.7,1.4c1.4,0.4,3.1,0.7,5,0.7c1.4,0,2.7-0.2,3.9-0.6
			s2.2-0.9,3.1-1.6s1.5-1.6,2-2.6c0.5-1,0.7-2.2,0.7-3.5c0-1.4-0.3-2.6-1-3.6c-0.6-1-1.5-1.9-2.5-2.6c-1-0.8-2.2-1.4-3.6-2.1
			c-1.3-0.6-2.7-1.3-4.1-1.9c-1.4-0.7-2.8-1.4-4.1-2.2c-1.3-0.8-2.5-1.7-3.6-2.8c-1-1.1-1.9-2.3-2.5-3.8c-0.7-1.4-1-3.2-1-5.2
			c0-2.1,0.4-3.9,1.1-5.5c0.8-1.6,1.8-3,3.1-4.1s2.9-1.9,4.8-2.5c1.9-0.6,3.8-0.9,6-0.9c1.1,0,2.2,0.1,3.3,0.3
			c1.1,0.2,2.2,0.4,3.1,0.8c1,0.3,1.9,0.7,2.6,1.1c0.8,0.4,1.3,0.7,1.5,1c0.2,0.2,0.4,0.4,0.5,0.6c0.1,0.1,0.1,0.3,0.2,0.5
			c0.1,0.2,0.1,0.5,0.1,0.8s0,0.7,0,1.2c0,0.5,0,0.9-0.1,1.2c0,0.4-0.1,0.7-0.2,0.9c-0.1,0.2-0.2,0.4-0.3,0.5
			c-0.1,0.1-0.3,0.2-0.5,0.2c-0.3,0-0.7-0.2-1.3-0.5c-0.6-0.4-1.3-0.8-2.2-1.2c-0.9-0.4-1.9-0.9-3.1-1.2s-2.5-0.6-4-0.6
			c-1.4,0-2.6,0.2-3.6,0.6s-1.9,0.9-2.5,1.5c-0.7,0.6-1.2,1.3-1.5,2.2s-0.5,1.7-0.5,2.7c0,1.4,0.3,2.6,1,3.6c0.6,1,1.5,1.9,2.5,2.6
			c1.1,0.8,2.3,1.5,3.6,2.1c1.4,0.6,2.7,1.3,4.1,1.9c1.4,0.7,2.8,1.4,4.1,2.1s2.6,1.7,3.6,2.8c1.1,1.1,1.9,2.3,2.6,3.8
			C147.4-186.9,147.7-185.2,147.7-183.2z"/>
		<path class="st1" d="M195.3-194.8c0,4.3-0.5,8-1.6,11.2c-1.1,3.2-2.7,5.9-4.8,8c-2.1,2.1-4.7,3.7-7.8,4.7s-6.7,1.6-11,1.6h-10.5
			c-0.6,0-1.1-0.2-1.7-0.6c-0.5-0.4-0.8-1.1-0.8-2.1v-44.2c0-1,0.3-1.7,0.8-2.1c0.5-0.4,1.1-0.6,1.7-0.6h11.2
			c4.3,0,7.9,0.6,10.9,1.7c3,1.1,5.4,2.7,7.5,4.8c2,2.1,3.5,4.6,4.6,7.6C194.8-201.9,195.3-198.5,195.3-194.8z M188.3-194.5
			c0-2.7-0.3-5.2-1-7.5c-0.7-2.3-1.7-4.3-3.1-6s-3.2-3-5.4-3.9c-2.2-0.9-5-1.4-8.4-1.4h-6.7v38.6h6.8c3.2,0,5.8-0.4,8-1.2
			c2.2-0.8,4-2,5.4-3.6c1.5-1.6,2.5-3.7,3.3-6.1S188.3-191.2,188.3-194.5z"/>
		<path class="st1" d="M241.4-171.6c0.2,0.6,0.3,1,0.3,1.4c0,0.3-0.1,0.6-0.3,0.8c-0.2,0.2-0.5,0.3-1,0.3c-0.5,0.1-1.1,0.1-1.9,0.1
			c-0.8,0-1.4,0-1.9-0.1c-0.5,0-0.8-0.1-1.1-0.2c-0.2-0.1-0.4-0.2-0.5-0.4c-0.1-0.2-0.2-0.3-0.3-0.6l-4.3-12.1h-20.6l-4.1,11.9
			c-0.1,0.2-0.2,0.4-0.3,0.6c-0.1,0.2-0.3,0.3-0.6,0.4c-0.2,0.1-0.6,0.2-1,0.2c-0.4,0.1-1,0.1-1.7,0.1c-0.7,0-1.3,0-1.8-0.1
			c-0.5-0.1-0.8-0.2-1-0.4s-0.3-0.4-0.3-0.8s0.1-0.8,0.3-1.4l16.6-46c0.1-0.3,0.2-0.5,0.4-0.7s0.4-0.3,0.7-0.4
			c0.3-0.1,0.7-0.2,1.2-0.2c0.5,0,1.1-0.1,1.9-0.1c0.8,0,1.5,0,2,0.1c0.5,0,1,0.1,1.3,0.2c0.3,0.1,0.6,0.2,0.8,0.4s0.3,0.4,0.4,0.7
			L241.4-171.6z M220.1-212.3L220.1-212.3l-8.6,24.7h17.2L220.1-212.3z"/>
	</g>
	<g class="st4">
		<path class="st1" d="M160.4-64.6c0.2,0.6,0.3,1,0.3,1.4c0,0.3-0.1,0.6-0.3,0.8c-0.2,0.2-0.5,0.3-1,0.3c-0.5,0.1-1.1,0.1-1.9,0.1
			c-0.8,0-1.4,0-1.9-0.1c-0.5,0-0.8-0.1-1.1-0.2c-0.2-0.1-0.4-0.2-0.5-0.4c-0.1-0.2-0.2-0.3-0.3-0.6l-4.3-12.1h-20.6l-4.1,11.9
			c-0.1,0.2-0.2,0.4-0.3,0.6c-0.1,0.2-0.3,0.3-0.6,0.4c-0.2,0.1-0.6,0.2-1,0.2c-0.4,0.1-1,0.1-1.7,0.1c-0.7,0-1.3,0-1.8-0.1
			c-0.5-0.1-0.8-0.2-1-0.4s-0.3-0.4-0.3-0.8s0.1-0.8,0.3-1.4l16.6-46c0.1-0.3,0.2-0.5,0.4-0.7s0.4-0.3,0.7-0.4
			c0.3-0.1,0.7-0.2,1.2-0.2c0.5,0,1.1-0.1,1.9-0.1c0.8,0,1.5,0,2,0.1c0.5,0,1,0.1,1.3,0.2c0.3,0.1,0.6,0.2,0.8,0.4s0.3,0.4,0.4,0.7
			L160.4-64.6z M139.1-105.3L139.1-105.3l-8.6,24.7h17.2L139.1-105.3z"/>
		<path class="st1" d="M206.8-87.8c0,4.3-0.5,8-1.6,11.2c-1.1,3.2-2.7,5.9-4.8,8c-2.1,2.1-4.7,3.7-7.8,4.7c-3.1,1-6.7,1.6-11,1.6
			h-10.5c-0.6,0-1.1-0.2-1.7-0.6c-0.5-0.4-0.8-1.1-0.8-2.1v-44.2c0-1,0.3-1.7,0.8-2.1c0.5-0.4,1.1-0.6,1.7-0.6h11.2
			c4.3,0,7.9,0.6,10.9,1.7c3,1.1,5.4,2.7,7.5,4.8c2,2.1,3.5,4.6,4.6,7.6C206.3-94.9,206.8-91.5,206.8-87.8z M199.8-87.5
			c0-2.7-0.3-5.2-1-7.5c-0.7-2.3-1.7-4.3-3.1-6s-3.2-3-5.4-3.9c-2.2-0.9-5-1.4-8.4-1.4h-6.7v38.6h6.8c3.2,0,5.8-0.4,8-1.2
			c2.2-0.8,4-2,5.4-3.6c1.5-1.6,2.5-3.7,3.3-6.1S199.8-84.1,199.8-87.5z"/>
		<path class="st1" d="M255-87.8c0,4.3-0.5,8-1.6,11.2c-1.1,3.2-2.7,5.9-4.8,8c-2.1,2.1-4.7,3.7-7.8,4.7c-3.1,1-6.7,1.6-11,1.6
			h-10.5c-0.6,0-1.1-0.2-1.7-0.6c-0.5-0.4-0.8-1.1-0.8-2.1v-44.2c0-1,0.3-1.7,0.8-2.1c0.5-0.4,1.1-0.6,1.7-0.6h11.2
			c4.3,0,7.9,0.6,10.9,1.7c3,1.1,5.4,2.7,7.5,4.8c2,2.1,3.5,4.6,4.6,7.6C254.5-94.9,255-91.5,255-87.8z M248.1-87.5
			c0-2.7-0.3-5.2-1-7.5c-0.7-2.3-1.7-4.3-3.1-6s-3.2-3-5.4-3.9c-2.2-0.9-5-1.4-8.4-1.4h-6.7v38.6h6.8c3.2,0,5.8-0.4,8-1.2
			c2.2-0.8,4-2,5.4-3.6c1.5-1.6,2.5-3.7,3.3-6.1S248.1-84.1,248.1-87.5z"/>
		<path class="st1" d="M298.3-63.3c0,0.2,0,0.4-0.1,0.5c-0.1,0.2-0.2,0.3-0.5,0.4c-0.3,0.1-0.6,0.2-1.1,0.2
			c-0.5,0.1-1.1,0.1-1.8,0.1c-0.7,0-1.2,0-1.6-0.1c-0.4-0.1-0.8-0.1-1-0.2c-0.3-0.1-0.5-0.3-0.6-0.5c-0.1-0.2-0.3-0.5-0.4-0.8
			l-4.6-11.7c-0.5-1.3-1.1-2.5-1.7-3.7c-0.6-1.1-1.3-2.1-2-2.9c-0.8-0.8-1.7-1.4-2.8-1.9s-2.4-0.7-3.9-0.7h-4.4v21.1
			c0,0.2-0.1,0.4-0.2,0.5s-0.3,0.3-0.5,0.4c-0.2,0.1-0.6,0.2-1,0.2c-0.4,0.1-1,0.1-1.6,0.1c-0.6,0-1.2,0-1.6-0.1
			c-0.4-0.1-0.8-0.1-1-0.2c-0.3-0.1-0.4-0.2-0.5-0.4c-0.1-0.2-0.2-0.3-0.2-0.5v-45.9c0-1,0.3-1.7,0.8-2.1c0.5-0.4,1.1-0.6,1.7-0.6
			h10.5c1.3,0,2.3,0,3.1,0.1c0.8,0.1,1.6,0.1,2.2,0.2c1.9,0.3,3.6,0.9,5.1,1.6c1.5,0.7,2.7,1.6,3.7,2.7c1,1.1,1.7,2.4,2.2,3.8
			c0.5,1.4,0.7,3,0.7,4.7c0,1.7-0.2,3.1-0.7,4.5c-0.4,1.3-1.1,2.5-1.9,3.5s-1.9,1.9-3,2.6c-1.2,0.7-2.5,1.4-3.9,1.9
			c0.8,0.4,1.6,0.8,2.2,1.4c0.7,0.5,1.3,1.2,1.9,2c0.6,0.8,1.1,1.6,1.6,2.6c0.5,1,1,2.1,1.5,3.4l4.4,10.9c0.4,0.9,0.6,1.6,0.7,1.9
			C298.2-63.8,298.3-63.5,298.3-63.3z M288.3-98.1c0-1.9-0.4-3.6-1.3-4.9s-2.3-2.3-4.4-2.9c-0.6-0.2-1.4-0.3-2.2-0.4
			c-0.8-0.1-1.9-0.1-3.2-0.1h-5.6v16.7h6.4c1.7,0,3.2-0.2,4.5-0.6c1.3-0.4,2.3-1,3.2-1.8c0.8-0.8,1.5-1.6,1.9-2.7
			C288.1-95.8,288.3-96.9,288.3-98.1z"/>
	</g>
	<g class="st4">
		<path class="st1" d="M161.4,40.9c0.2,0.6,0.3,1,0.3,1.4c0,0.3-0.1,0.6-0.3,0.8c-0.2,0.2-0.5,0.3-1,0.3c-0.5,0.1-1.1,0.1-1.9,0.1
			c-0.8,0-1.4,0-1.9-0.1c-0.5,0-0.8-0.1-1.1-0.2c-0.2-0.1-0.4-0.2-0.5-0.4c-0.1-0.2-0.2-0.3-0.3-0.6l-4.3-12.1h-20.6l-4.1,11.9
			c-0.1,0.2-0.2,0.4-0.3,0.6c-0.1,0.2-0.3,0.3-0.6,0.4c-0.2,0.1-0.6,0.2-1,0.2c-0.4,0.1-1,0.1-1.7,0.1c-0.7,0-1.3,0-1.8-0.1
			c-0.5-0.1-0.8-0.2-1-0.4s-0.3-0.4-0.3-0.8s0.1-0.8,0.3-1.4l16.6-46c0.1-0.3,0.2-0.5,0.4-0.7s0.4-0.3,0.7-0.4
			c0.3-0.1,0.7-0.2,1.2-0.2c0.5,0,1.1-0.1,1.9-0.1c0.8,0,1.5,0,2,0.1c0.5,0,1,0.1,1.3,0.2c0.3,0.1,0.6,0.2,0.8,0.4s0.3,0.4,0.4,0.7
			L161.4,40.9z M140.1,0.2L140.1,0.2l-8.6,24.7h17.2L140.1,0.2z"/>
		<path class="st1" d="M195.4,40.3c0,0.5,0,0.9-0.1,1.3c-0.1,0.3-0.1,0.6-0.2,0.9c-0.1,0.2-0.3,0.4-0.4,0.5
			c-0.2,0.1-0.4,0.2-0.6,0.2h-21.9c-0.6,0-1.1-0.2-1.7-0.6c-0.5-0.4-0.8-1.1-0.8-2.1V-5.4c0-0.2,0.1-0.4,0.2-0.5
			c0.1-0.2,0.3-0.3,0.5-0.4c0.3-0.1,0.6-0.2,1-0.2c0.4-0.1,1-0.1,1.6-0.1c0.6,0,1.2,0,1.6,0.1c0.4,0.1,0.8,0.1,1,0.2
			c0.3,0.1,0.4,0.2,0.5,0.4c0.1,0.2,0.2,0.3,0.2,0.5v42.9h17.8c0.2,0,0.4,0.1,0.6,0.2c0.2,0.1,0.3,0.3,0.4,0.5s0.2,0.5,0.2,0.9
			C195.4,39.4,195.4,39.8,195.4,40.3z"/>
		<path class="st1" d="M235.8,42.2c0,0.2,0,0.4-0.1,0.5c-0.1,0.2-0.2,0.3-0.5,0.4c-0.3,0.1-0.6,0.2-1.1,0.2
			c-0.5,0.1-1.1,0.1-1.8,0.1c-0.7,0-1.2,0-1.6-0.1c-0.4-0.1-0.8-0.1-1-0.2c-0.3-0.1-0.5-0.3-0.6-0.5c-0.1-0.2-0.3-0.5-0.4-0.8
			l-4.6-11.7c-0.5-1.3-1.1-2.5-1.7-3.7c-0.6-1.1-1.3-2.1-2-2.9c-0.8-0.8-1.7-1.4-2.8-1.9s-2.4-0.7-3.9-0.7h-4.4v21.1
			c0,0.2-0.1,0.4-0.2,0.5s-0.3,0.3-0.5,0.4c-0.2,0.1-0.6,0.2-1,0.2c-0.4,0.1-1,0.1-1.6,0.1c-0.6,0-1.2,0-1.6-0.1
			c-0.4-0.1-0.8-0.1-1-0.2c-0.3-0.1-0.4-0.2-0.5-0.4c-0.1-0.2-0.2-0.3-0.2-0.5V-3.7c0-1,0.3-1.7,0.8-2.1c0.5-0.4,1.1-0.6,1.7-0.6
			h10.5c1.3,0,2.3,0,3.1,0.1c0.8,0.1,1.6,0.1,2.2,0.2c1.9,0.3,3.6,0.9,5.1,1.6c1.5,0.7,2.7,1.6,3.7,2.7c1,1.1,1.7,2.4,2.2,3.8
			c0.5,1.4,0.7,3,0.7,4.7c0,1.7-0.2,3.1-0.7,4.5c-0.4,1.3-1.1,2.5-1.9,3.5s-1.9,1.9-3,2.6c-1.2,0.7-2.5,1.4-3.9,1.9
			c0.8,0.4,1.6,0.8,2.2,1.4c0.7,0.5,1.3,1.2,1.9,2c0.6,0.8,1.1,1.6,1.6,2.6c0.5,1,1,2.1,1.5,3.4l4.4,10.9c0.4,0.9,0.6,1.6,0.7,1.9
			C235.7,41.7,235.8,42,235.8,42.2z M225.8,7.4c0-1.9-0.4-3.6-1.3-4.9s-2.3-2.3-4.4-2.9c-0.6-0.2-1.4-0.3-2.2-0.4
			c-0.8-0.1-1.9-0.1-3.2-0.1h-5.6v16.7h6.4c1.7,0,3.2-0.2,4.5-0.6c1.3-0.4,2.3-1,3.2-1.8c0.8-0.8,1.5-1.6,1.9-2.7
			C225.6,9.7,225.8,8.6,225.8,7.4z"/>
		<path class="st1" d="M275.6-3.5c0,0.5,0,0.9-0.1,1.3c-0.1,0.4-0.1,0.6-0.2,0.9c-0.1,0.2-0.3,0.4-0.4,0.5c-0.2,0.1-0.4,0.2-0.6,0.2
			h-13.9v43c0,0.2-0.1,0.4-0.2,0.5c-0.1,0.2-0.3,0.3-0.5,0.4c-0.3,0.1-0.6,0.2-1,0.2c-0.4,0.1-1,0.1-1.6,0.1c-0.6,0-1.1,0-1.6-0.1
			c-0.4-0.1-0.8-0.1-1-0.2c-0.3-0.1-0.4-0.2-0.5-0.4c-0.1-0.2-0.2-0.3-0.2-0.5v-43h-13.9c-0.2,0-0.4-0.1-0.6-0.2
			c-0.2-0.1-0.3-0.3-0.4-0.5c-0.1-0.2-0.2-0.5-0.2-0.9c-0.1-0.4-0.1-0.8-0.1-1.3s0-0.9,0.1-1.3s0.1-0.7,0.2-0.9
			c0.1-0.2,0.2-0.4,0.4-0.5c0.2-0.1,0.4-0.2,0.6-0.2h34.5c0.2,0,0.4,0.1,0.6,0.2c0.2,0.1,0.3,0.3,0.4,0.5c0.1,0.2,0.2,0.5,0.2,0.9
			C275.6-4.4,275.6-4,275.6-3.5z"/>
	</g>
	<g class="st4">
		<path class="st1" d="M156.4,141c0.2,0.6,0.3,1,0.3,1.4c0,0.3-0.1,0.6-0.3,0.8c-0.2,0.2-0.5,0.3-1,0.3c-0.5,0.1-1.1,0.1-1.9,0.1
			c-0.8,0-1.4,0-1.9-0.1c-0.5,0-0.8-0.1-1.1-0.2c-0.2-0.1-0.4-0.2-0.5-0.4c-0.1-0.2-0.2-0.3-0.3-0.6l-4.3-12.1h-20.6l-4.1,11.9
			c-0.1,0.2-0.2,0.4-0.3,0.6c-0.1,0.2-0.3,0.3-0.6,0.4c-0.2,0.1-0.6,0.2-1,0.2c-0.4,0.1-1,0.1-1.7,0.1c-0.7,0-1.3,0-1.8-0.1
			c-0.5-0.1-0.8-0.2-1-0.4s-0.3-0.4-0.3-0.8s0.1-0.8,0.3-1.4l16.6-46c0.1-0.3,0.2-0.5,0.4-0.7s0.4-0.3,0.7-0.4
			c0.3-0.1,0.7-0.2,1.2-0.2c0.5,0,1.1-0.1,1.9-0.1c0.8,0,1.5,0,2,0.1c0.5,0,1,0.1,1.3,0.2c0.3,0.1,0.6,0.2,0.8,0.4s0.3,0.4,0.4,0.7
			L156.4,141z M135.1,100.3L135.1,100.3l-8.6,24.7h17.2L135.1,100.3z"/>
		<path class="st1" d="M195.1,118.4c0,3.8-0.3,7.3-0.9,10.4c-0.6,3.1-1.6,5.8-3,8.1s-3.2,4-5.5,5.2c-2.2,1.2-5,1.9-8.3,1.9
			c-3.1,0-5.7-0.6-7.9-1.7c-2.1-1.1-3.8-2.7-5.2-4.9c-1.3-2.2-2.2-4.8-2.8-8c-0.5-3.2-0.8-6.8-0.8-10.9c0-3.8,0.3-7.2,0.9-10.4
			c0.6-3.2,1.6-5.9,3-8.1s3.2-4,5.4-5.2c2.2-1.2,5-1.9,8.3-1.9c3.1,0,5.8,0.6,7.9,1.7c2.1,1.1,3.8,2.7,5.2,4.9
			c1.3,2.2,2.2,4.8,2.8,8C194.9,110.7,195.1,114.3,195.1,118.4z M188.4,118.9c0-2.5-0.1-4.7-0.3-6.7c-0.2-2-0.4-3.7-0.8-5.2
			s-0.8-2.8-1.3-3.9c-0.5-1.1-1.2-2-2-2.7c-0.8-0.7-1.6-1.2-2.6-1.5s-2.1-0.5-3.3-0.5c-2.2,0-3.9,0.5-5.3,1.5
			c-1.4,1-2.4,2.4-3.2,4.2c-0.8,1.8-1.3,3.9-1.6,6.3s-0.4,5-0.4,7.7c0,3.7,0.2,6.9,0.6,9.4c0.4,2.6,1,4.7,1.8,6.3
			c0.8,1.6,1.9,2.8,3.2,3.6c1.3,0.7,2.9,1.1,4.7,1.1c1.4,0,2.7-0.2,3.8-0.7c1.1-0.5,2-1.1,2.8-2c0.8-0.9,1.4-1.9,1.9-3.1
			s0.9-2.5,1.2-4c0.3-1.5,0.5-3,0.6-4.7C188.3,122.5,188.4,120.7,188.4,118.9z"/>
	</g>
	<g class="st4">
		<path class="st1" d="M158,247.5c0.2,0.6,0.3,1,0.3,1.4c0,0.3-0.1,0.6-0.3,0.8c-0.2,0.2-0.5,0.3-1,0.3c-0.5,0.1-1.1,0.1-1.9,0.1
			c-0.8,0-1.4,0-1.9-0.1c-0.5,0-0.8-0.1-1.1-0.2c-0.2-0.1-0.4-0.2-0.5-0.4c-0.1-0.2-0.2-0.3-0.3-0.6l-4.3-12.1h-20.6l-4.1,11.9
			c-0.1,0.2-0.2,0.4-0.3,0.6c-0.1,0.2-0.3,0.3-0.6,0.4c-0.2,0.1-0.6,0.2-1,0.2c-0.4,0.1-1,0.1-1.7,0.1c-0.7,0-1.3,0-1.8-0.1
			c-0.5-0.1-0.8-0.2-1-0.4s-0.3-0.4-0.3-0.8s0.1-0.8,0.3-1.4l16.6-46c0.1-0.3,0.2-0.5,0.4-0.7s0.4-0.3,0.7-0.4
			c0.3-0.1,0.7-0.2,1.2-0.2c0.5,0,1.1-0.1,1.9-0.1c0.8,0,1.5,0,2,0.1c0.5,0,1,0.1,1.3,0.2c0.3,0.1,0.6,0.2,0.8,0.4s0.3,0.4,0.4,0.7
			L158,247.5z M136.7,206.9L136.7,206.9l-8.6,24.7h17.2L136.7,206.9z"/>
		<path class="st1" d="M195.2,247.2c0,0.5,0,0.9-0.1,1.2c-0.1,0.3-0.2,0.6-0.3,0.8s-0.3,0.4-0.4,0.4c-0.2,0.1-0.3,0.1-0.5,0.1H168
			c-0.2,0-0.3,0-0.5-0.1c-0.2-0.1-0.3-0.2-0.4-0.4s-0.2-0.5-0.3-0.8c-0.1-0.3-0.1-0.7-0.1-1.2c0-0.5,0-0.9,0.1-1.2
			c0.1-0.3,0.2-0.6,0.3-0.8c0.1-0.2,0.3-0.4,0.4-0.5c0.2-0.1,0.4-0.2,0.6-0.2h10.3v-37.7l-9.6,5.7c-0.5,0.3-0.9,0.4-1.2,0.5
			c-0.3,0.1-0.5,0-0.7-0.2c-0.2-0.2-0.3-0.4-0.4-0.8s-0.1-0.9-0.1-1.5c0-0.4,0-0.8,0.1-1.1s0.1-0.6,0.2-0.8c0.1-0.2,0.2-0.4,0.3-0.5
			c0.1-0.2,0.3-0.3,0.6-0.5l11.4-7.3c0.1-0.1,0.2-0.1,0.4-0.2c0.2-0.1,0.3-0.1,0.6-0.2c0.2-0.1,0.5-0.1,0.8-0.1s0.7,0,1.1,0
			c0.6,0,1.1,0,1.5,0.1c0.4,0.1,0.7,0.1,1,0.2c0.2,0.1,0.4,0.2,0.5,0.3c0.1,0.1,0.1,0.3,0.1,0.4v43.6h9c0.2,0,0.4,0.1,0.6,0.2
			c0.2,0.1,0.3,0.3,0.4,0.5c0.1,0.2,0.2,0.5,0.3,0.8S195.2,246.8,195.2,247.2z"/>
	</g>
	<g class="st4">
		<path class="st1" d="M154.9,354.5c0.2,0.6,0.3,1,0.3,1.4c0,0.3-0.1,0.6-0.3,0.8c-0.2,0.2-0.5,0.3-1,0.3c-0.5,0.1-1.1,0.1-1.9,0.1
			c-0.8,0-1.4,0-1.9-0.1c-0.5,0-0.8-0.1-1.1-0.2c-0.2-0.1-0.4-0.2-0.5-0.4c-0.1-0.2-0.2-0.3-0.3-0.6l-4.3-12.1h-20.6l-4.1,11.9
			c-0.1,0.2-0.2,0.4-0.3,0.6c-0.1,0.2-0.3,0.3-0.6,0.4c-0.2,0.1-0.6,0.2-1,0.2c-0.4,0.1-1,0.1-1.7,0.1c-0.7,0-1.3,0-1.8-0.1
			c-0.5-0.1-0.8-0.2-1-0.4s-0.3-0.4-0.3-0.8s0.1-0.8,0.3-1.4l16.6-46c0.1-0.3,0.2-0.5,0.4-0.7s0.4-0.3,0.7-0.4
			c0.3-0.1,0.7-0.2,1.2-0.2c0.5,0,1.1-0.1,1.9-0.1c0.8,0,1.5,0,2,0.1c0.5,0,1,0.1,1.3,0.2c0.3,0.1,0.6,0.2,0.8,0.4s0.3,0.4,0.4,0.7
			L154.9,354.5z M133.5,313.9L133.5,313.9l-8.6,24.7h17.2L133.5,313.9z"/>
		<path class="st1" d="M191.9,354c0,0.5,0,0.9-0.1,1.2c-0.1,0.4-0.2,0.7-0.3,0.9c-0.1,0.2-0.3,0.4-0.5,0.5c-0.2,0.1-0.4,0.2-0.6,0.2
			h-27.4c-0.4,0-0.7,0-0.9-0.1c-0.3-0.1-0.5-0.2-0.7-0.4c-0.2-0.2-0.3-0.5-0.4-0.9c-0.1-0.4-0.1-0.9-0.1-1.4c0-0.5,0-1,0.1-1.3
			c0-0.4,0.1-0.7,0.3-1c0.1-0.3,0.3-0.6,0.5-0.9c0.2-0.3,0.5-0.6,0.8-0.9l9.9-10.2c2.3-2.3,4.1-4.5,5.5-6.3c1.4-1.9,2.4-3.6,3.2-5.1
			s1.2-2.9,1.5-4.2c0.2-1.3,0.4-2.4,0.4-3.5s-0.2-2.1-0.6-3.1s-0.9-1.8-1.6-2.6c-0.7-0.7-1.6-1.3-2.6-1.8c-1.1-0.4-2.3-0.7-3.6-0.7
			c-1.6,0-3,0.2-4.3,0.7s-2.4,0.9-3.4,1.4c-1,0.5-1.8,1-2.4,1.4c-0.6,0.4-1.1,0.7-1.4,0.7c-0.2,0-0.3-0.1-0.5-0.2
			c-0.1-0.1-0.3-0.3-0.4-0.5c-0.1-0.2-0.2-0.5-0.2-0.9s-0.1-0.8-0.1-1.4c0-0.4,0-0.7,0-1c0-0.3,0.1-0.5,0.1-0.7
			c0.1-0.2,0.1-0.4,0.2-0.6c0.1-0.2,0.3-0.4,0.6-0.7s0.8-0.6,1.6-1.1c0.8-0.5,1.7-0.9,2.8-1.4c1.1-0.4,2.4-0.8,3.8-1.1
			c1.4-0.3,2.8-0.5,4.3-0.5c2.4,0,4.5,0.3,6.3,1c1.8,0.7,3.3,1.6,4.5,2.8c1.2,1.2,2.1,2.5,2.7,4.1s0.9,3.2,0.9,5
			c0,1.6-0.1,3.2-0.4,4.7c-0.3,1.6-0.9,3.3-1.8,5.1c-0.9,1.8-2.2,3.9-3.9,6.1c-1.7,2.2-4,4.8-6.8,7.7l-7.9,8.2h21.6
			c0.2,0,0.4,0.1,0.6,0.2c0.2,0.1,0.4,0.3,0.5,0.5c0.1,0.2,0.2,0.5,0.3,0.9C191.9,353.2,191.9,353.6,191.9,354z"/>
	</g>
	<g class="st4">
		<path class="st1" d="M158.9,454.8c0.2,0.6,0.3,1,0.3,1.4c0,0.3-0.1,0.6-0.3,0.8c-0.2,0.2-0.5,0.3-1,0.3c-0.5,0.1-1.1,0.1-1.9,0.1
			c-0.8,0-1.4,0-1.9-0.1c-0.5,0-0.8-0.1-1.1-0.2c-0.2-0.1-0.4-0.2-0.5-0.4c-0.1-0.2-0.2-0.3-0.3-0.6l-4.3-12.1h-20.6l-4.1,11.9
			c-0.1,0.2-0.2,0.4-0.3,0.6c-0.1,0.2-0.3,0.3-0.6,0.4c-0.2,0.1-0.6,0.2-1,0.2c-0.4,0.1-1,0.1-1.7,0.1c-0.7,0-1.3,0-1.8-0.1
			c-0.5-0.1-0.8-0.2-1-0.4s-0.3-0.4-0.3-0.8s0.1-0.8,0.3-1.4l16.6-46c0.1-0.3,0.2-0.5,0.4-0.7s0.4-0.3,0.7-0.4
			c0.3-0.1,0.7-0.2,1.2-0.2c0.5,0,1.1-0.1,1.9-0.1c0.8,0,1.5,0,2,0.1c0.5,0,1,0.1,1.3,0.2c0.3,0.1,0.6,0.2,0.8,0.4s0.3,0.4,0.4,0.7
			L158.9,454.8z M137.6,414.2L137.6,414.2l-8.6,24.7h17.2L137.6,414.2z"/>
		<path class="st1" d="M195.6,443c0,2.3-0.4,4.3-1.2,6.1c-0.8,1.8-1.9,3.4-3.4,4.7c-1.5,1.3-3.3,2.3-5.5,3s-4.6,1.1-7.4,1.1
			c-1.7,0-3.2-0.1-4.7-0.4c-1.4-0.3-2.7-0.6-3.8-1s-2.1-0.8-2.8-1.1c-0.7-0.4-1.2-0.7-1.4-0.9c-0.2-0.2-0.3-0.4-0.4-0.5
			c-0.1-0.2-0.2-0.4-0.3-0.7c-0.1-0.3-0.1-0.6-0.2-0.9s-0.1-0.8-0.1-1.4c0-0.9,0.1-1.6,0.3-1.9c0.2-0.4,0.4-0.5,0.8-0.5
			c0.2,0,0.7,0.2,1.4,0.6c0.7,0.4,1.6,0.8,2.7,1.3c1.1,0.5,2.4,0.9,3.8,1.3c1.5,0.4,3.1,0.6,4.9,0.6c1.7,0,3.2-0.2,4.6-0.7
			c1.3-0.4,2.4-1,3.3-1.8s1.6-1.7,2-2.8s0.7-2.3,0.7-3.5c0-1.4-0.3-2.7-0.9-3.8c-0.6-1.1-1.4-2.1-2.5-2.9c-1.1-0.8-2.4-1.4-4-1.9
			c-1.6-0.4-3.4-0.7-5.4-0.7h-4.9c-0.2,0-0.4,0-0.6-0.1c-0.2-0.1-0.4-0.2-0.5-0.4s-0.3-0.5-0.4-0.8c-0.1-0.3-0.1-0.8-0.1-1.3
			c0-0.5,0-0.9,0.1-1.2c0.1-0.3,0.2-0.6,0.3-0.8c0.1-0.2,0.3-0.3,0.5-0.4c0.2-0.1,0.4-0.1,0.6-0.1h4.3c1.7,0,3.2-0.2,4.5-0.7
			s2.5-1.1,3.4-1.9c0.9-0.8,1.6-1.8,2.1-2.9c0.5-1.1,0.7-2.4,0.7-3.8c0-1-0.2-2-0.5-2.9c-0.3-0.9-0.8-1.7-1.5-2.4s-1.5-1.2-2.5-1.6
			c-1-0.4-2.2-0.6-3.6-0.6c-1.5,0-2.8,0.2-4.1,0.7c-1.2,0.4-2.3,0.9-3.3,1.4c-1,0.5-1.8,1-2.4,1.4c-0.6,0.4-1.1,0.7-1.3,0.7
			c-0.2,0-0.3,0-0.5-0.1c-0.1-0.1-0.3-0.2-0.3-0.4s-0.2-0.5-0.2-0.8s-0.1-0.8-0.1-1.4c0-0.4,0-0.7,0-1c0-0.3,0.1-0.5,0.2-0.8
			c0.1-0.2,0.2-0.4,0.3-0.6c0.1-0.2,0.3-0.4,0.5-0.6c0.2-0.2,0.7-0.6,1.5-1.1c0.7-0.5,1.7-0.9,2.7-1.4c1.1-0.4,2.3-0.8,3.8-1.1
			c1.4-0.3,2.9-0.5,4.6-0.5c2.3,0,4.3,0.3,6.1,0.9c1.7,0.6,3.2,1.4,4.3,2.5c1.2,1.1,2,2.4,2.6,3.8c0.6,1.5,0.9,3.1,0.9,5
			c0,1.6-0.2,3-0.6,4.3s-1,2.5-1.8,3.6c-0.8,1-1.8,1.9-2.9,2.6c-1.1,0.7-2.5,1.2-4,1.5v0.1c1.7,0.2,3.3,0.6,4.7,1.3
			c1.4,0.7,2.6,1.5,3.7,2.5s1.8,2.2,2.4,3.6S195.6,441.4,195.6,443z"/>
	</g>
</g>
</svg>
