<?xml version="1.0" encoding="utf-8"?>
<!-- Generator: Adobe Illustrator 27.8.0, SVG Export Plug-In . SVG Version: 6.00 Build 0)  -->
<svg version="1.1"
	 id="svg8" xmlns:svg="http://www.w3.org/2000/svg" xmlns:rdf="http://www.w3.org/1999/02/22-rdf-syntax-ns#" xmlns:sodipodi="http://sodipodi.sourceforge.net/DTD/sodipodi-0.dtd" xmlns:dc="http://purl.org/dc/elements/1.1/" xmlns:inkscape="http://www.inkscape.org/namespaces/inkscape" xmlns:cc="http://creativecommons.org/ns#" inkscape:export-xdpi="93" inkscape:export-ydpi="93" inkscape:version="0.92.4 (5da689c313, 2019-01-14)"
	 xmlns="http://www.w3.org/2000/svg" xmlns:xlink="http://www.w3.org/1999/xlink" x="0px" y="0px" viewBox="0 0 597 1081"
	 style="enable-background:new 0 0 597 1081;" xml:space="preserve">
<style type="text/css">
	.st0{fill:#FFFFFF;}
	.st1{fill:#1A1A1A;}
	.st2{opacity:0.99;fill:#808080;enable-background:new    ;}
	.st3{opacity:0.99;fill:#CCCCCC;enable-background:new    ;}
	.st4{opacity:0.99;fill:#FFFFFF;enable-background:new    ;}
	.st5{opacity:0.99;enable-background:new    ;}
	.st6{opacity:0.99;fill:#0088AA;enable-background:new    ;}
	.st7{opacity:0.99;fill:#4D4D4D;enable-background:new    ;}
	.st8{enable-background:new    ;}
</style>
<defs>
	
		<inkscape:perspective  id="perspective876" inkscape:persp3d-origin="105 : 98.999998 : 1" inkscape:vp_x="0 : 148.5 : 1" inkscape:vp_y="0 : 999.99997 : 0" inkscape:vp_z="210.00001 : 148.5 : 1" sodipodi:type="inkscape:persp3d">
		</inkscape:perspective>
</defs>
<sodipodi:namedview  bordercolor="#666666" borderopacity="1.0" id="base" inkscape:current-layer="layer1" inkscape:cx="1258.7213" inkscape:cy="1066.279" inkscape:document-units="mm" inkscape:lockguides="true" inkscape:pageopacity="0.0" inkscape:pageshadow="2" inkscape:window-height="1017" inkscape:window-maximized="1" inkscape:window-width="1920" inkscape:window-x="-8" inkscape:window-y="-8" inkscape:zoom="0.35" pagecolor="#ffffff" showgrid="false" showguides="true" width="500mm">
	</sodipodi:namedview>
<g id="layer1" transform="translate(0.31582593,517.81107)" inkscape:groupmode="layer" inkscape:label="Ebene 1">
	<rect id="rect815" x="-0.3" y="-414.2" width="597.5" height="795.8"/>
	<rect id="rect821" x="141" y="250.9" class="st0" width="310.9" height="107"/>
	<path id="rect825" class="st1" d="M161.4,257h62.3c10.9,0,19.7,8.8,19.7,19.7v54.7c0,10.9-8.8,19.7-19.7,19.7h-62.3
		c-10.9,0-19.7-8.8-19.7-19.7v-54.7C141.7,265.8,150.5,257,161.4,257z"/>
	<path id="rect872" class="st1" d="M369.1,257h62.3c10.9,0,19.7,8.8,19.7,19.7v54.7c0,10.9-8.8,19.7-19.7,19.7h-62.3
		c-10.9,0-19.7-8.8-19.7-19.7v-54.7C349.4,265.8,358.2,257,369.1,257z"/>
	<path id="rect874" class="st1" d="M262.7,257h67.4c9.5,0,17.2,7.7,17.2,17.2v59.7c0,9.5-7.7,17.2-17.2,17.2h-67.4
		c-9.5,0-17.2-7.7-17.2-17.2v-59.7C245.6,264.7,253.3,257,262.7,257z"/>
	<rect id="rect947" x="186.8" y="308.2" class="st2" width="11.3" height="196.2"/>
	<rect id="rect949" x="291.3" y="308.2" class="st2" width="11.3" height="196.2"/>
	<rect id="rect951" x="394.5" y="308.2" class="st2" width="11.3" height="196.2"/>
	<g id="flowRoot969" transform="translate(6.0744533e-8,-43.83397)">
	</g>
	<g id="flowRoot1466" transform="translate(6.0744533e-8,-43.83397)">
	</g>
	<g id="flowRoot1474" transform="matrix(-0.26458338,0,0,-0.26458333,432.47019,651.50868)">
	</g>
	<g id="flowRoot1529" transform="translate(6.0744533e-8,-43.83397)">
	</g>
	<rect id="rect87" x="83.7" y="136.5" class="st0" width="417.8" height="106.1"/>
	<path id="path31-1" inkscape:connector-curvature="0" class="st0" d="M169.6-354.6c3.7-0.1,4.1-0.1,4.8-0.5
		c0.4-0.3,0.9-0.8,1.2-1.2c0.4-0.7,0.4-1.1,0.5-8.7l0.1-8l7.9,0l7.9,0v10c0,11-0.1,12-1.2,14.9c-1.5,3.8-3.7,5.5-8.2,6.6
		c-1.2,0.3-2.6,0.3-7.2,0.3c-3.1,0-6.6-0.1-7.6-0.2l-1.9-0.2l-0.1-6.5l-0.1-6.5L169.6-354.6L169.6-354.6z M244.7-332.3
		c67.4,0,83.9,0.1,81.1,0.4l-0.4,0l0.4,0.2c0.4,0.2,0.3,0.2-0.3,0.2c-0.5,0-0.3,0.1,0.6,0.2l1.4,0.1l-1.4,0.1c-0.8,0-1.2,0.1-1,0.2
		c0.3,0.1,0.4,0.4,0.4,1.9c0,1.8,0,1.8,0.6,1.9c0.4,0.1,0.3,0.1-0.3,0.1c-0.5,0-0.9,0.1-0.9,0.2c0,0.1-26.7,0.2-79.7,0.2h-79.7v-2.9
		v-2.9L244.7-332.3z M184-393.7h8v6.5v6.5h-8h-8v-6.5v-6.5H184z M200.1-369.8c0.6-3.6,1.6-6.9,3-9.8c0.5-1.1,1-2,1.1-2
		c0.1-0.1,0.5-0.6,0.9-1.3c0.8-1.3,2.7-3.6,3.2-3.9c0.2-0.1,0.3-0.3,0.3-0.4c0-0.3,2-2.1,3.5-3.2c1.6-1.2,3-1.8,5.9-2.9
		c3.4-1.3,5.5-1.6,9.6-1.4c3,0.1,3.7,0.2,5.6,0.8c1.2,0.3,2.6,0.8,3.2,1.1c0.6,0.2,1.1,0.4,1.3,0.4c0.1,0,1,0.5,2,1
		c3.8,2.2,9,8.1,11,12.5c3.1,6.9,3.5,13.8,1.2,20.2c-1,2.7-1.7,4.2-2.9,6.1c-1.3,2.2-1.5,2.3-4.7,5.5c-3.7,3.7-6.4,5.3-11.3,6.6
		c-2.5,0.7-7.4,0.9-10,0.5c-3.4-0.5-8-2.5-10.8-4.6c-1.5-1.1-3.4-2.8-3.4-3c0-0.1-0.5-0.6-1.1-1.2c-2.9-2.9-5.8-8.6-6.9-13.3
		C200.2-363.8,199.9-368.5,200.1-369.8L200.1-369.8z M215.3-363.1c0.8,3,2.3,5.6,4.7,7.8c2.4,2.3,6.2,3.1,9.5,2.1
		c3.6-1.1,7.2-5.3,8.4-9.9c0.7-2.6,0.6-6.4-0.1-8.9c-1.1-3.6-2.9-6.4-5.6-8.2c-1.2-0.9-1.7-1.1-3-1.3c-2.7-0.5-5.5-0.2-7.4,0.7
		c-1.7,0.9-3.9,3.3-5.1,5.7C214.8-371.3,214.3-367,215.3-363.1L215.3-363.1z M260-393.6c0.1-0.1,3.7-0.1,8,0l7.7,0.1l0,7.1
		c0,6.7,0.1,7.2,0.5,8.4c1.1,3,4.8,4.7,8,3.6c1.6-0.5,2.8-1.5,3.5-3.1l0.7-1.4l0.1-7.4l0.1-7.4h8h8l-0.1,8.3
		c-0.1,7.8-0.1,8.5-0.6,10c-0.9,3.2-2.3,6-4.1,8.2c-0.5,0.5-0.8,1.1-0.8,1.2c0,0.3-2,2.1-3.8,3.4c-1.5,1.1-3.7,2.3-4.7,2.5
		c-0.3,0.1-1.4,0.4-2.4,0.7c-1.7,0.5-2.1,0.6-5.7,0.6c-3.6,0-4,0-6-0.6c-3.2-0.9-4.2-1.3-6.3-2.7c-2.4-1.6-4.4-3.5-6.1-6
		c-2.4-3.5-3.3-6.1-3.8-10.1C259.6-380.8,259.7-393.5,260-393.6L260-393.6z M282.2-354.4h13v6.7v6.7h-13h-13v-6.7v-6.7H282.2z
		 M304.5-403.9c0.1,0,0.2-0.4,0.2-0.8c0-0.8,0-0.8,1-1c0.5-0.1,22.6-0.1,49-0.1l48,0l-0.1,2.9l-0.1,2.9h-48.8
		c-26.8,0-48.9-0.1-49.1-0.1c-0.3-0.1-0.3-0.5-0.3-1.9C304.3-403.1,304.4-403.9,304.5-403.9L304.5-403.9z M326.4-371.8H343v6.6v6.6
		h-16.6h-16.6v-6.6v-6.6H326.4z M356.1-393.7h8v6.5v6.5h-8h-8v-6.5v-6.5H356.1z M356.1-373.9h8v16.8v16.8h-8h-8v-16.8v-16.8H356.1z
		 M387.8-393.7h16.7v6.5v6.5h-16.7h-16.7v-6.5v-6.5H387.8z M373.9-373c0.1-0.1,3.6-0.1,7.8-0.1l7.6,0l0.1,7.7
		c0.1,10.8-0.3,10.2,7.8,10.3l5.1,0.1v6.7v6.7l-1.9,0.2c-2.9,0.4-12,0.3-14.4-0.1c-4.2-0.7-7-2-8.8-4.2c-1.9-2.3-2.8-4.6-3.2-8.3
		C373.7-356.2,373.7-372.8,373.9-373L373.9-373z M413.8-400c0.4-1.4,1.2-2.8,2.1-3.5c3.6-3.2,7.9-3.5,11.5-0.9
		c1.7,1.2,2.1,1.7,2.8,3.2c0.5,1.1,0.6,1.5,0.6,3.5c0,2-0.1,2.4-0.6,3.6c-1.2,2.6-4.3,4.6-7.2,4.9c-2.8,0.2-4.9-0.6-7.1-2.7
		C413.9-393.9,413-397.2,413.8-400z M415.4-394.5c0.7,1.7,3,3.4,5.3,4c2.3,0.6,4.1,0.1,6.7-1.8c0.6-0.5,1.1-1.1,1.6-2.1
		c0.6-1.3,0.7-1.6,0.7-3.3c0-1.7-0.1-1.9-0.7-3.3c-0.6-1.2-1-1.6-2-2.4c-0.7-0.5-1.8-1.1-2.4-1.3c-3.6-1.2-8,0.7-9.5,4.3
		C414.6-399,414.7-396.1,415.4-394.5z M421.3-402.8c1.6,0,3.2,0.1,3.5,0.2c1.3,0.5,1.9,3,1,4.1c-0.2,0.3-0.8,0.7-1.2,0.8l-0.7,0.3
		l0.7,0.8c0.4,0.4,1,1.3,1.4,2c0.4,0.6,0.8,1.2,0.9,1.3c0.5,0.3,0.1,0.5-0.7,0.5l-0.9,0l-1.3-2c-1.4-2.2-1.7-2.4-3.2-2.4h-1v2.2v2.2
		l-0.6-0.1l-0.6-0.1l-0.1-4.9l-0.1-4.9L421.3-402.8z M421.7-398.6c1.6,0,2-0.1,2.5-0.4c1.2-0.9,0.5-2.4-1.2-2.6
		c-0.7-0.1-2.7,0-3.1,0.1c0,0-0.1,0.7-0.1,1.5v1.5L421.7-398.6z"/>
	<ellipse id="path84" class="st3" cx="86" cy="-306.7" rx="59.7" ry="59.7"/>
	<ellipse id="circle86" class="st3" cx="510.4" cy="-306.7" rx="59.7" ry="59.7"/>
	<ellipse id="path88" class="st4" cx="86" cy="-306.7" rx="53.1" ry="53.1"/>
	<ellipse id="circle90" class="st4" cx="510.4" cy="-306.7" rx="53.1" ry="53.1"/>
	<rect id="rect176" x="87.1" y="139.7" class="st5" width="411.2" height="99.5"/>
	<rect id="rect162" x="396.2" y="143.3" class="st3" width="100.8" height="92.8"/>
	<ellipse id="path164" class="st3" cx="136.7" cy="189.8" rx="49.7" ry="49.7"/>
	<ellipse id="circle166" class="st3" cx="239.9" cy="189.8" rx="49.7" ry="49.7"/>
	<ellipse id="circle168" class="st3" cx="343.1" cy="189.8" rx="49.7" ry="49.7"/>
	<path id="path146" inkscape:connector-curvature="0" class="st2" d="M442.4,55.4l10.5,0L453,188l-10.5,0L442.4,55.4z"/>
	<path id="path144" inkscape:connector-curvature="0" class="st2" d="M337.9,55.5l10.5,0l0.1,132.6l-10.5,0L337.9,55.5z"/>
	<path id="path142" inkscape:connector-curvature="0" class="st2" d="M234.7,55.5l10.5,0l0.1,132.6l-10.5,0L234.7,55.5z"/>
	<path id="path138" inkscape:connector-curvature="0" class="st2" d="M131.5,55.5l10.5,0l0.1,132.6l-10.5,0L131.5,55.5z"/>
	<rect id="rect174" x="73.4" y="-511" class="st6" width="437.7" height="647.3"/>
	<rect id="rect201" x="73.4" y="32.3" class="st7" width="66.3" height="66.3"/>
	<rect id="rect249" x="444" y="32.3" class="st7" width="66.3" height="66.3"/>
	<rect id="rect251" x="164.6" y="32.3" class="st7" width="66.3" height="66.3"/>
	<rect id="rect255" x="354.2" y="32.3" class="st7" width="66.3" height="66.3"/>
	<rect id="rect257" x="260.1" y="32.3" class="st7" width="66.3" height="66.3"/>
	<rect id="rect263" x="164.6" y="-79.3" class="st5" width="66.3" height="66.3"/>
	<rect id="rect265" x="354.2" y="-79.3" class="st5" width="66.3" height="66.3"/>
	<rect id="rect267" x="260.1" y="-79.3" class="st5" width="66.3" height="66.3"/>
	<rect id="rect269" x="73.4" y="-186.7" class="st7" width="66.3" height="66.3"/>
	<rect id="rect271" x="445.4" y="-186.7" class="st7" width="66.3" height="66.3"/>
	<rect id="rect273" x="164.6" y="-186.7" class="st5" width="66.3" height="66.3"/>
	<rect id="rect275" x="354.2" y="-186.7" class="st5" width="66.3" height="66.3"/>
	<rect id="rect277" x="260.1" y="-186.7" class="st5" width="66.3" height="66.3"/>
	<rect id="rect279" x="73.4" y="-294.8" class="st7" width="66.3" height="66.3"/>
	<rect id="rect281" x="444.7" y="-294.8" class="st7" width="66.3" height="66.3"/>
	<rect id="rect283" x="164.6" y="-294.8" class="st5" width="66.3" height="66.3"/>
	<rect id="rect285" x="354.2" y="-294.8" class="st5" width="66.3" height="66.3"/>
	<rect id="rect287" x="260.1" y="-294.8" class="st5" width="66.3" height="66.3"/>
	<rect id="rect293" x="164.6" y="-402.9" class="st5" width="66.3" height="66.3"/>
	<rect id="rect295" x="354.2" y="-402.9" class="st5" width="66.3" height="66.3"/>
	<rect id="rect297" x="260.1" y="-402.9" class="st5" width="66.3" height="66.3"/>
	<rect id="rect303" x="164.6" y="-509.5" class="st7" width="66.3" height="66.3"/>
	<rect id="rect305" x="354.2" y="-509.5" class="st7" width="66.3" height="66.3"/>
	<rect id="rect307" x="260.1" y="-509.5" class="st7" width="66.3" height="66.3"/>
	<rect id="rect309" x="485" y="-510.3" class="st6" width="26.5" height="647.3"/>
	<rect id="rect311" x="73.4" y="-510.3" class="st6" width="26.5" height="647.3"/>
	<rect id="rect313" x="73.4" y="-510.3" class="st6" width="438.1" height="26.5"/>
	<rect id="rect315" x="108.5" y="-473.6" class="st2" width="367.5" height="559.8"/>
	<rect id="rect346" x="140.1" y="-488.6" class="st6" width="24.5" height="587.2"/>
	<rect id="rect348" x="231" y="-504.1" class="st6" width="29.1" height="602.8"/>
	<rect id="rect350" x="326.4" y="-509.5" class="st6" width="27.7" height="608.2"/>
	<rect id="rect352" x="420.5" y="-509.5" class="st6" width="23.5" height="608.2"/>
	<rect id="rect356" x="73.4" y="-228.5" class="st6" width="437.6" height="41.6"/>
	<rect id="rect360" x="91.4" y="-443.2" class="st6" width="415.3" height="40.4"/>
	<rect id="rect362" x="73.4" y="-120.4" class="st6" width="438.3" height="41.1"/>
	<rect id="rect364" x="76.6" y="-13" class="st6" width="433.2" height="45.3"/>
	<rect id="rect366" x="73.4" y="-336.5" class="st6" width="437.6" height="41.8"/>
	<rect id="rect368" x="86" y="-97.6" class="st6" width="64.2" height="100.3"/>
	<rect id="rect370" x="443.9" y="-94.6" class="st6" width="48.1" height="106.3"/>
	<rect id="rect372" x="436.9" y="-483.8" class="st6" width="74.6" height="159.6"/>
	<rect id="rect374" x="73.4" y="-483.8" class="st6" width="92.2" height="157.2"/>
	<g class="st8">
		<path d="M394.9,513.1c0,0.4,0,0.8-0.1,1.1c0,0.3-0.1,0.6-0.2,0.8c-0.1,0.2-0.2,0.4-0.3,0.5c-0.1,0.1-0.3,0.1-0.4,0.1
			c-0.3,0-0.7-0.2-1.4-0.6c-0.6-0.4-1.5-0.9-2.5-1.4c-1.1-0.5-2.3-1-3.8-1.4c-1.5-0.4-3.2-0.6-5.3-0.6c-2.4,0-4.6,0.4-6.5,1.3
			c-1.9,0.9-3.5,2.1-4.9,3.6c-1.3,1.6-2.3,3.4-3.1,5.5c-0.7,2.1-1.1,4.5-1.1,7c0,2.8,0.4,5.3,1.2,7.4c0.8,2.2,1.9,4,3.2,5.5
			c1.4,1.5,3,2.6,4.9,3.4c1.9,0.8,4,1.1,6.3,1.1c1.4,0,2.7-0.2,4.1-0.5c1.4-0.3,2.7-0.8,3.9-1.5v-12.7h-10.1c-0.4,0-0.7-0.2-0.9-0.6
			s-0.3-1-0.3-1.8c0-0.4,0-0.8,0.1-1.1c0-0.3,0.1-0.6,0.2-0.7s0.2-0.3,0.4-0.4c0.1-0.1,0.3-0.1,0.5-0.1h13.9c0.2,0,0.5,0,0.7,0.1
			c0.2,0.1,0.5,0.2,0.7,0.4c0.2,0.2,0.4,0.4,0.5,0.7s0.2,0.7,0.2,1.1V546c0,0.6-0.1,1.1-0.3,1.5c-0.2,0.4-0.6,0.8-1.3,1.1
			c-0.7,0.3-1.5,0.7-2.5,1.1s-2.1,0.7-3.2,1c-1.1,0.3-2.2,0.5-3.3,0.6c-1.1,0.1-2.2,0.2-3.3,0.2c-3.4,0-6.4-0.5-9.1-1.6
			s-4.9-2.5-6.7-4.5c-1.8-1.9-3.2-4.3-4.2-7c-1-2.7-1.5-5.7-1.5-9.1c0-3.5,0.5-6.6,1.6-9.4c1-2.8,2.5-5.2,4.4-7.2
			c1.9-2,4.2-3.5,6.9-4.6c2.7-1.1,5.6-1.6,8.9-1.6c1.7,0,3.2,0.1,4.7,0.4c1.5,0.3,2.8,0.6,3.9,1c1.1,0.4,2.1,0.8,2.9,1.3
			c0.8,0.5,1.3,0.8,1.6,1.1c0.3,0.3,0.5,0.6,0.6,1C394.8,511.8,394.9,512.4,394.9,513.1z"/>
		<path d="M438.7,548.5c0,0.5-0.1,0.8-0.2,1.1s-0.3,0.6-0.6,0.8c-0.2,0.2-0.5,0.3-0.8,0.4c-0.3,0.1-0.6,0.1-0.9,0.1h-1.9
			c-0.6,0-1.1-0.1-1.6-0.2c-0.5-0.1-0.9-0.3-1.3-0.7c-0.4-0.3-0.8-0.8-1.2-1.3c-0.4-0.6-0.8-1.3-1.3-2.2l-13.3-24.9
			c-0.7-1.3-1.4-2.6-2.1-4s-1.4-2.8-2-4.1h-0.1c0,1.6,0.1,3.3,0.1,5s0,3.4,0,5V550c0,0.2,0,0.3-0.1,0.5c-0.1,0.1-0.3,0.3-0.5,0.3
			c-0.2,0.1-0.5,0.1-0.9,0.2c-0.4,0.1-0.8,0.1-1.4,0.1c-0.6,0-1,0-1.4-0.1c-0.4-0.1-0.7-0.1-0.9-0.2c-0.2-0.1-0.4-0.2-0.5-0.3
			c-0.1-0.1-0.1-0.3-0.1-0.5v-40.3c0-0.9,0.3-1.5,0.8-1.9s1.1-0.6,1.7-0.6h2.9c0.7,0,1.2,0.1,1.7,0.2c0.5,0.1,0.9,0.3,1.2,0.6
			c0.4,0.3,0.7,0.6,1,1.1s0.7,1,1.1,1.7l10.3,19.2c0.6,1.2,1.2,2.3,1.8,3.4c0.6,1.1,1.2,2.2,1.7,3.3s1.1,2.1,1.6,3.2
			c0.5,1,1.1,2.1,1.6,3.2h0c0-1.8-0.1-3.6-0.1-5.6c0-1.9,0-3.8,0-5.6v-23.7c0-0.2,0-0.3,0.1-0.4c0.1-0.1,0.3-0.3,0.5-0.4
			c0.2-0.1,0.5-0.2,0.9-0.2c0.4,0,0.8-0.1,1.4-0.1c0.5,0,1,0,1.4,0.1c0.4,0,0.7,0.1,0.9,0.2c0.2,0.1,0.4,0.2,0.5,0.4
			c0.1,0.1,0.1,0.3,0.1,0.4V548.5z"/>
		<path d="M484,528.4c0,3.8-0.5,7.1-1.5,9.9s-2.4,5.2-4.2,7c-1.9,1.9-4.1,3.2-6.8,4.2c-2.7,0.9-5.9,1.4-9.7,1.4h-9.3
			c-0.5,0-1-0.2-1.5-0.5c-0.5-0.3-0.7-1-0.7-1.8v-39c0-0.9,0.2-1.5,0.7-1.8c0.5-0.3,1-0.5,1.5-0.5h9.9c3.8,0,7,0.5,9.6,1.5
			c2.6,1,4.8,2.4,6.6,4.2c1.8,1.8,3.1,4.1,4,6.7C483.5,522.1,484,525.1,484,528.4z M477.9,528.6c0-2.4-0.3-4.6-0.9-6.6
			c-0.6-2-1.5-3.8-2.8-5.3c-1.2-1.5-2.8-2.6-4.7-3.5c-1.9-0.8-4.4-1.3-7.4-1.3h-5.9v34h6c2.8,0,5.1-0.3,7.1-1
			c1.9-0.7,3.5-1.8,4.8-3.2c1.3-1.4,2.2-3.2,2.9-5.4C477.5,534.1,477.9,531.6,477.9,528.6z"/>
	</g>
	<g class="st8">
		<path d="M101,538.6c0,2-0.4,3.9-1.1,5.5s-1.8,3-3.1,4.1c-1.3,1.1-2.9,2-4.7,2.5c-1.8,0.6-3.8,0.8-5.9,0.8c-1.5,0-2.8-0.1-4.1-0.4
			c-1.2-0.2-2.4-0.6-3.3-0.9c-1-0.4-1.8-0.7-2.5-1.1c-0.7-0.4-1.1-0.7-1.4-1s-0.5-0.6-0.6-1s-0.2-1-0.2-1.7c0-0.5,0-0.9,0.1-1.2
			c0-0.3,0.1-0.6,0.2-0.8c0.1-0.2,0.2-0.3,0.3-0.4c0.1-0.1,0.3-0.1,0.5-0.1c0.3,0,0.8,0.2,1.3,0.6c0.6,0.4,1.3,0.8,2.2,1.2
			c0.9,0.5,2,0.9,3.3,1.3c1.3,0.4,2.7,0.6,4.4,0.6c1.3,0,2.4-0.2,3.5-0.5c1-0.3,1.9-0.8,2.7-1.4c0.8-0.6,1.3-1.4,1.7-2.3
			c0.4-0.9,0.6-1.9,0.6-3.1c0-1.2-0.3-2.3-0.8-3.2c-0.6-0.9-1.3-1.7-2.2-2.3c-0.9-0.7-2-1.3-3.2-1.8s-2.4-1.1-3.6-1.7
			c-1.2-0.6-2.4-1.2-3.6-1.9s-2.2-1.5-3.1-2.5s-1.7-2.1-2.2-3.3c-0.6-1.3-0.9-2.8-0.9-4.6c0-1.8,0.3-3.5,1-4.9
			c0.7-1.4,1.6-2.6,2.8-3.6c1.2-1,2.6-1.7,4.2-2.2c1.6-0.5,3.4-0.8,5.3-0.8c1,0,1.9,0.1,2.9,0.3c1,0.2,1.9,0.4,2.8,0.7
			c0.9,0.3,1.6,0.6,2.3,0.9s1.1,0.6,1.3,0.8c0.2,0.2,0.4,0.4,0.4,0.5s0.1,0.3,0.2,0.5s0.1,0.4,0.1,0.7c0,0.3,0,0.6,0,1
			c0,0.4,0,0.8-0.1,1.1c0,0.3-0.1,0.6-0.2,0.8s-0.2,0.4-0.3,0.5c-0.1,0.1-0.3,0.2-0.4,0.2c-0.2,0-0.6-0.2-1.2-0.5
			c-0.5-0.3-1.2-0.7-1.9-1.1c-0.8-0.4-1.7-0.8-2.7-1.1c-1-0.3-2.2-0.5-3.5-0.5c-1.2,0-2.3,0.2-3.2,0.5c-0.9,0.3-1.6,0.8-2.2,1.3
			c-0.6,0.5-1,1.2-1.3,1.9c-0.3,0.7-0.4,1.5-0.4,2.4c0,1.2,0.3,2.3,0.8,3.1c0.6,0.9,1.3,1.7,2.2,2.3s2,1.3,3.2,1.9
			c1.2,0.6,2.4,1.1,3.6,1.7c1.2,0.6,2.5,1.2,3.6,1.9c1.2,0.7,2.3,1.5,3.2,2.4c0.9,0.9,1.7,2,2.3,3.3
			C100.7,535.4,101,536.9,101,538.6z"/>
		<path d="M114.9,509.3c0,1.3-0.2,2.2-0.7,2.7c-0.5,0.5-1.4,0.7-2.7,0.7c-1.3,0-2.2-0.2-2.7-0.7c-0.5-0.5-0.7-1.3-0.7-2.6
			c0-1.3,0.2-2.2,0.7-2.7c0.5-0.5,1.4-0.7,2.7-0.7c1.3,0,2.2,0.2,2.7,0.7C114.7,507.2,114.9,508,114.9,509.3z M114.3,550
			c0,0.2,0,0.3-0.1,0.5c-0.1,0.1-0.2,0.2-0.4,0.3s-0.5,0.2-0.8,0.2s-0.8,0.1-1.4,0.1c-0.5,0-1,0-1.4-0.1s-0.6-0.1-0.9-0.2
			c-0.2-0.1-0.4-0.2-0.4-0.3c-0.1-0.1-0.1-0.3-0.1-0.5v-30.4c0-0.2,0-0.3,0.1-0.4c0.1-0.1,0.2-0.2,0.4-0.3c0.2-0.1,0.5-0.2,0.9-0.2
			c0.4,0,0.8-0.1,1.4-0.1c0.6,0,1,0,1.4,0.1c0.4,0,0.6,0.1,0.8,0.2s0.3,0.2,0.4,0.3c0.1,0.1,0.1,0.3,0.1,0.4V550z"/>
		<path d="M150,521c0,0.8-0.1,1.4-0.3,1.7c-0.2,0.3-0.5,0.5-0.8,0.5h-4.4c0.8,0.8,1.3,1.7,1.7,2.7c0.3,1,0.5,2,0.5,3.1
			c0,1.8-0.3,3.3-0.8,4.7c-0.6,1.4-1.4,2.5-2.4,3.4c-1,0.9-2.3,1.7-3.7,2.1c-1.4,0.5-3,0.7-4.8,0.7c-1.2,0-2.4-0.2-3.5-0.5
			c-1.1-0.3-2-0.7-2.6-1.2c-0.4,0.4-0.7,0.9-1,1.4c-0.3,0.5-0.4,1.1-0.4,1.8c0,0.8,0.4,1.4,1.1,2c0.7,0.5,1.7,0.8,2.9,0.8l7.9,0.3
			c1.5,0,2.9,0.3,4.2,0.6c1.3,0.4,2.4,0.9,3.3,1.6c0.9,0.7,1.6,1.5,2.2,2.5c0.5,1,0.8,2.2,0.8,3.5c0,1.4-0.3,2.7-0.9,4
			c-0.6,1.3-1.5,2.4-2.7,3.3c-1.2,1-2.7,1.7-4.6,2.3c-1.9,0.6-4.1,0.8-6.6,0.8c-2.5,0-4.5-0.2-6.3-0.6c-1.7-0.4-3.1-1-4.2-1.7
			c-1.1-0.7-1.9-1.6-2.4-2.6c-0.5-1-0.7-2.1-0.7-3.3c0-0.7,0.1-1.5,0.3-2.2c0.2-0.7,0.5-1.4,0.8-2c0.4-0.6,0.8-1.2,1.4-1.8
			s1.2-1.1,1.9-1.7c-1.1-0.6-1.9-1.3-2.5-2.1c-0.5-0.9-0.8-1.8-0.8-2.8c0-1.4,0.3-2.6,0.8-3.7c0.6-1.1,1.3-2,2.1-2.9
			c-0.7-0.8-1.3-1.8-1.7-2.8c-0.4-1-0.6-2.3-0.6-3.8c0-1.7,0.3-3.3,0.9-4.7s1.4-2.5,2.4-3.5s2.3-1.7,3.7-2.2s3-0.8,4.7-0.8
			c0.9,0,1.8,0.1,2.6,0.2c0.8,0.1,1.5,0.2,2.2,0.4h9.2c0.4,0,0.7,0.2,0.9,0.6S150,520.2,150,521z M144.1,553.1c0-1.3-0.5-2.3-1.6-3
			c-1.1-0.7-2.5-1.1-4.3-1.1l-7.9-0.3c-0.7,0.6-1.3,1.1-1.8,1.6s-0.8,1-1.1,1.5s-0.5,0.9-0.6,1.4c-0.1,0.5-0.2,0.9-0.2,1.4
			c0,1.5,0.7,2.6,2.2,3.3c1.5,0.8,3.6,1.1,6.2,1.1c1.7,0,3.1-0.2,4.2-0.5c1.1-0.3,2.1-0.8,2.8-1.3c0.7-0.5,1.2-1.2,1.5-1.9
			S144.1,553.9,144.1,553.1z M141.3,529c0-2.1-0.6-3.7-1.7-4.8c-1.1-1.2-2.8-1.7-4.8-1.7c-1.1,0-2,0.2-2.8,0.5
			c-0.8,0.4-1.5,0.9-2,1.5c-0.5,0.6-0.9,1.4-1.2,2.2c-0.3,0.8-0.4,1.7-0.4,2.6c0,2,0.6,3.6,1.7,4.7c1.1,1.1,2.7,1.7,4.8,1.7
			c1.1,0,2.1-0.2,2.9-0.5c0.8-0.3,1.5-0.8,2-1.5c0.5-0.6,0.9-1.3,1.2-2.1S141.3,529.9,141.3,529z"/>
		<path d="M183.3,550c0,0.2,0,0.3-0.1,0.5c-0.1,0.1-0.2,0.2-0.4,0.3s-0.5,0.2-0.8,0.2s-0.8,0.1-1.4,0.1c-0.6,0-1,0-1.4-0.1
			s-0.6-0.1-0.8-0.2c-0.2-0.1-0.3-0.2-0.4-0.3c-0.1-0.1-0.1-0.3-0.1-0.5v-17.8c0-1.7-0.1-3.1-0.4-4.2c-0.3-1.1-0.7-2-1.2-2.7
			c-0.5-0.8-1.2-1.4-2-1.8c-0.8-0.4-1.8-0.6-2.9-0.6c-1.4,0-2.8,0.5-4.2,1.5s-2.9,2.4-4.4,4.4V550c0,0.2,0,0.3-0.1,0.5
			c-0.1,0.1-0.2,0.2-0.4,0.3s-0.5,0.2-0.8,0.2s-0.8,0.1-1.4,0.1c-0.5,0-1,0-1.4-0.1s-0.6-0.1-0.9-0.2c-0.2-0.1-0.4-0.2-0.4-0.3
			c-0.1-0.1-0.1-0.3-0.1-0.5v-30.4c0-0.2,0-0.3,0.1-0.5s0.2-0.2,0.4-0.3c0.2-0.1,0.5-0.2,0.8-0.2s0.7-0.1,1.2-0.1
			c0.5,0,0.9,0,1.2,0.1c0.3,0,0.6,0.1,0.8,0.2c0.2,0.1,0.3,0.2,0.4,0.3c0.1,0.1,0.1,0.3,0.1,0.5v4c1.7-1.9,3.4-3.3,5.1-4.2
			c1.7-0.9,3.4-1.3,5.2-1.3c2,0,3.7,0.3,5.1,1c1.4,0.7,2.5,1.6,3.4,2.8s1.5,2.5,1.8,4c0.4,1.5,0.6,3.4,0.6,5.6V550z"/>
		<path d="M216.4,550c0,0.3-0.1,0.5-0.3,0.6c-0.2,0.1-0.4,0.2-0.7,0.3c-0.3,0.1-0.8,0.1-1.4,0.1c-0.6,0-1.1,0-1.4-0.1
			c-0.3-0.1-0.6-0.2-0.8-0.3c-0.2-0.1-0.2-0.3-0.2-0.6v-3c-1.3,1.4-2.8,2.5-4.4,3.3c-1.6,0.8-3.4,1.2-5.2,1.2c-1.6,0-3-0.2-4.3-0.6
			c-1.3-0.4-2.4-1-3.3-1.8c-0.9-0.8-1.6-1.8-2.1-2.9c-0.5-1.1-0.8-2.5-0.8-3.9c0-1.7,0.3-3.2,1-4.5c0.7-1.3,1.7-2.3,3-3.1
			c1.3-0.8,2.9-1.5,4.8-1.9s4-0.6,6.4-0.6h4.2v-2.4c0-1.2-0.1-2.2-0.4-3.1c-0.2-0.9-0.6-1.6-1.2-2.2c-0.6-0.6-1.3-1-2.1-1.4
			c-0.9-0.3-2-0.5-3.2-0.5c-1.4,0-2.6,0.2-3.7,0.5c-1.1,0.3-2,0.7-2.9,1.1c-0.8,0.4-1.5,0.8-2.1,1.1c-0.6,0.3-1,0.5-1.2,0.5
			c-0.2,0-0.3,0-0.5-0.1c-0.1-0.1-0.3-0.2-0.4-0.4c-0.1-0.2-0.2-0.4-0.2-0.7c0-0.3-0.1-0.6-0.1-0.9c0-0.6,0-1,0.1-1.3
			c0.1-0.3,0.3-0.6,0.6-0.9c0.3-0.3,0.8-0.6,1.6-1c0.7-0.4,1.6-0.8,2.6-1.1c1-0.3,2-0.6,3.2-0.8c1.1-0.2,2.3-0.3,3.5-0.3
			c2.2,0,4,0.2,5.6,0.7c1.5,0.5,2.8,1.2,3.7,2.2c0.9,1,1.6,2.1,2.1,3.6s0.6,3.1,0.6,5V550z M210.9,536.2h-4.8c-1.5,0-2.9,0.1-4,0.4
			c-1.1,0.3-2.1,0.6-2.8,1.1c-0.7,0.5-1.3,1.1-1.6,1.8c-0.3,0.7-0.5,1.5-0.5,2.5c0,1.6,0.5,2.8,1.5,3.8c1,0.9,2.4,1.4,4.2,1.4
			c1.5,0,2.8-0.4,4.1-1.1s2.6-1.9,3.9-3.4V536.2z"/>
		<path d="M232.2,550c0,0.2,0,0.3-0.1,0.5c-0.1,0.1-0.2,0.2-0.4,0.3s-0.5,0.2-0.8,0.2s-0.8,0.1-1.4,0.1c-0.5,0-1,0-1.4-0.1
			s-0.6-0.1-0.9-0.2c-0.2-0.1-0.4-0.2-0.4-0.3c-0.1-0.1-0.1-0.3-0.1-0.5v-45.1c0-0.2,0-0.3,0.1-0.5s0.2-0.2,0.4-0.3
			c0.2-0.1,0.5-0.2,0.9-0.2c0.4,0,0.8-0.1,1.4-0.1c0.6,0,1,0,1.4,0.1c0.4,0,0.6,0.1,0.8,0.2s0.3,0.2,0.4,0.3
			c0.1,0.1,0.1,0.3,0.1,0.5V550z"/>
	</g>
	<g class="st8">
		<path d="M292.4,531.4c0,0.4,0,0.8-0.1,1.1c-0.1,0.3-0.2,0.6-0.3,0.8c-0.1,0.2-0.2,0.3-0.4,0.4c-0.2,0.1-0.3,0.1-0.5,0.1H280v12.3
			c0,0.2,0,0.3-0.1,0.5c-0.1,0.1-0.2,0.2-0.4,0.3s-0.4,0.2-0.8,0.2c-0.3,0.1-0.7,0.1-1.2,0.1c-0.5,0-0.8,0-1.2-0.1
			c-0.3-0.1-0.6-0.1-0.8-0.2s-0.3-0.2-0.4-0.3c-0.1-0.1-0.1-0.3-0.1-0.5v-12.3h-11.1c-0.2,0-0.4,0-0.5-0.1c-0.1-0.1-0.3-0.2-0.4-0.4
			c-0.1-0.2-0.2-0.5-0.3-0.8c-0.1-0.3-0.1-0.7-0.1-1.1c0-0.4,0-0.8,0.1-1.1c0.1-0.3,0.2-0.6,0.3-0.8c0.1-0.2,0.2-0.3,0.4-0.4
			c0.1-0.1,0.3-0.1,0.5-0.1H275v-12.3c0-0.2,0-0.3,0.1-0.5c0.1-0.1,0.2-0.3,0.4-0.4c0.2-0.1,0.5-0.2,0.8-0.2
			c0.3-0.1,0.7-0.1,1.2-0.1c0.5,0,0.9,0,1.2,0.1c0.3,0.1,0.6,0.1,0.8,0.2c0.2,0.1,0.3,0.2,0.4,0.4c0.1,0.1,0.1,0.3,0.1,0.5V529h11.1
			c0.2,0,0.3,0,0.5,0.1c0.1,0.1,0.3,0.2,0.4,0.4s0.2,0.5,0.3,0.8C292.3,530.6,292.4,531,292.4,531.4z"/>
		<path d="M318.2,549.8c-0.1,0.2-0.2,0.5-0.4,0.6s-0.4,0.3-0.7,0.4c-0.3,0.1-0.6,0.2-1.1,0.2c-0.4,0-1,0.1-1.6,0.1
			c-0.5,0-0.9,0-1.3,0s-0.7,0-1-0.1c-0.3,0-0.5-0.1-0.7-0.2c-0.2-0.1-0.4-0.1-0.5-0.2c-0.1-0.1-0.2-0.2-0.3-0.3
			c-0.1-0.1-0.2-0.3-0.2-0.5l-14.3-40.6c-0.2-0.5-0.3-0.9-0.3-1.2c0-0.3,0.1-0.5,0.3-0.7c0.2-0.2,0.5-0.3,1-0.3
			c0.5,0,1.1-0.1,1.8-0.1c0.6,0,1.1,0,1.5,0.1c0.4,0,0.7,0.1,0.9,0.2c0.2,0.1,0.4,0.2,0.5,0.4s0.2,0.3,0.3,0.6l12.5,36.8h0
			l12.2-36.7c0.1-0.2,0.1-0.5,0.2-0.6c0.1-0.2,0.2-0.3,0.5-0.4c0.2-0.1,0.5-0.2,0.9-0.2c0.4,0,0.9-0.1,1.6-0.1c0.7,0,1.3,0,1.7,0.1
			c0.4,0.1,0.7,0.2,0.8,0.3c0.1,0.2,0.2,0.4,0.2,0.7c0,0.3-0.1,0.7-0.3,1.2L318.2,549.8z"/>
	</g>
	<g class="st8">
		<path class="st0" d="M531.6-206.1c-0.2,0-0.4,0-0.6-0.1c-0.2-0.1-0.3-0.3-0.4-0.6s-0.2-0.6-0.3-1.1s-0.1-1.1-0.1-1.8
			c0-1,0-1.7,0.1-2.3c0.1-0.6,0.2-1.1,0.5-1.4c0.2-0.3,0.5-0.5,0.7-0.7l26.6-19.6h-26.6c-0.2,0-0.4-0.1-0.6-0.2s-0.3-0.3-0.4-0.6
			c-0.1-0.3-0.2-0.6-0.2-1.1c-0.1-0.5-0.1-1-0.1-1.7c0-0.7,0-1.2,0.1-1.7s0.2-0.8,0.2-1.1s0.2-0.5,0.4-0.6c0.2-0.1,0.4-0.2,0.6-0.2
			h51.1c0.2,0,0.4,0.1,0.6,0.2c0.2,0.1,0.3,0.3,0.4,0.6s0.2,0.6,0.2,1.1s0.1,1,0.1,1.7c0,0.7,0,1.3-0.1,1.7
			c-0.1,0.5-0.2,0.8-0.2,1.1c-0.1,0.3-0.2,0.5-0.4,0.6c-0.2,0.1-0.4,0.2-0.6,0.2h-23.6l23.6,18.8c0.2,0.2,0.5,0.4,0.6,0.6
			c0.2,0.2,0.3,0.5,0.4,0.8c0.1,0.3,0.2,0.7,0.2,1.2s0.1,1,0.1,1.7s0,1.3-0.1,1.7c-0.1,0.4-0.2,0.8-0.3,1c-0.1,0.3-0.2,0.4-0.4,0.5
			c-0.2,0.1-0.3,0.1-0.5,0.1c-0.4,0-0.7-0.1-1.1-0.3c-0.4-0.2-0.9-0.5-1.5-1l-21.1-17.6l-25.3,19c-0.7,0.5-1.2,0.7-1.5,0.8
			C532-206.2,531.8-206.1,531.6-206.1z"/>
		<path class="st0" d="M551.1-180.2h-19.6c-0.2,0-0.4-0.1-0.6-0.2c-0.2-0.1-0.3-0.3-0.4-0.6s-0.2-0.6-0.2-1.1
			c-0.1-0.5-0.1-1-0.1-1.7c0-0.7,0-1.2,0.1-1.7c0.1-0.4,0.2-0.8,0.2-1.1c0.1-0.3,0.2-0.5,0.4-0.6c0.2-0.1,0.4-0.2,0.6-0.2h19.6
			l30-15.1c0.6-0.3,1.1-0.5,1.5-0.6c0.4-0.1,0.6,0,0.8,0.2c0.2,0.2,0.3,0.6,0.4,1.1c0.1,0.5,0.1,1.3,0.1,2.2c0,0.8,0,1.5-0.1,2
			c-0.1,0.5-0.1,0.9-0.2,1.2c-0.1,0.3-0.2,0.5-0.4,0.7c-0.2,0.2-0.4,0.3-0.7,0.4l-15.3,7.4c-1.5,0.7-3,1.4-4.6,2
			c-1.6,0.7-3.2,1.4-4.8,2.1v0.1c1.6,0.6,3.1,1.3,4.7,1.9c1.5,0.7,3.1,1.3,4.6,2l15.4,7.4c0.3,0.1,0.5,0.2,0.7,0.3
			c0.2,0.2,0.3,0.4,0.4,0.6c0.1,0.3,0.2,0.6,0.2,1.1s0.1,1.1,0.1,1.8c0,1,0,1.8-0.1,2.3c-0.1,0.6-0.2,1-0.4,1.2
			c-0.2,0.2-0.5,0.3-0.8,0.2c-0.4-0.1-0.8-0.3-1.4-0.6L551.1-180.2z"/>
		<path class="st0" d="M551.2-145c-1.1,0-1.8-0.1-2.2-0.4c-0.4-0.2-0.6-0.6-0.6-1.1v-17.2c0-0.5,0.2-0.9,0.6-1.1
			c0.4-0.2,1.2-0.4,2.2-0.4c1,0,1.8,0.1,2.2,0.4c0.4,0.2,0.6,0.6,0.6,1.1v17.2c0,0.2,0,0.4-0.1,0.6c-0.1,0.2-0.2,0.3-0.5,0.5
			c-0.2,0.1-0.5,0.2-0.9,0.3C552.2-145,551.7-145,551.2-145z"/>
		<path class="st0" d="M557.2-102.4c-4.1,0-7.8-0.3-11.2-1c-3.4-0.6-6.3-1.7-8.7-3.2c-2.4-1.5-4.3-3.4-5.6-5.9c-1.3-2.4-2-5.4-2-8.9
			c0-3.3,0.6-6.2,1.8-8.5c1.2-2.3,2.9-4.1,5.3-5.5c2.3-1.4,5.2-2.4,8.6-3c3.4-0.6,7.3-0.9,11.7-0.9c4.1,0,7.8,0.3,11.2,1
			c3.4,0.7,6.3,1.7,8.7,3.2s4.3,3.4,5.6,5.8c1.3,2.4,2,5.4,2,8.9c0,3.4-0.6,6.2-1.8,8.5s-2.9,4.1-5.3,5.5c-2.3,1.4-5.2,2.4-8.6,3
			C565.4-102.7,561.6-102.4,557.2-102.4z M556.7-109.6c2.7,0,5-0.1,7.2-0.3s4-0.5,5.6-0.8c1.6-0.4,3-0.9,4.2-1.4
			c1.2-0.6,2.1-1.3,2.9-2.1s1.3-1.8,1.6-2.8c0.3-1.1,0.5-2.2,0.5-3.6c0-2.3-0.5-4.2-1.6-5.7s-2.6-2.6-4.5-3.4
			c-1.9-0.8-4.2-1.4-6.7-1.7c-2.6-0.3-5.3-0.5-8.3-0.5c-4,0-7.4,0.2-10.1,0.6c-2.8,0.4-5.1,1.1-6.8,2c-1.8,0.9-3,2-3.8,3.4
			c-0.8,1.4-1.2,3.1-1.2,5c0,1.5,0.2,2.9,0.7,4.1c0.5,1.2,1.2,2.2,2.1,3c0.9,0.8,2,1.5,3.3,2.1c1.3,0.5,2.7,1,4.3,1.3
			c1.6,0.3,3.3,0.6,5.1,0.7C552.8-109.7,554.7-109.6,556.7-109.6z"/>
		<path class="st0" d="M533.2-61.3c-0.5,0-1,0-1.3-0.1s-0.6-0.2-0.9-0.3c-0.2-0.1-0.4-0.3-0.5-0.5c-0.1-0.2-0.1-0.4-0.1-0.6v-27.8
			c0-0.2,0-0.4,0.1-0.5c0.1-0.2,0.3-0.3,0.5-0.5c0.2-0.2,0.5-0.3,0.9-0.3c0.4-0.1,0.8-0.1,1.3-0.1c0.5,0,0.9,0,1.3,0.1
			c0.4,0.1,0.7,0.2,0.9,0.3c0.2,0.1,0.4,0.3,0.5,0.5c0.1,0.2,0.2,0.4,0.2,0.6v11.1h40.5l-6.1-10.3c-0.3-0.5-0.4-0.9-0.5-1.3
			c-0.1-0.3,0-0.6,0.2-0.8c0.2-0.2,0.5-0.3,0.9-0.4c0.4-0.1,0.9-0.1,1.6-0.1c0.5,0,0.9,0,1.2,0.1s0.6,0.1,0.8,0.2
			c0.2,0.1,0.4,0.2,0.6,0.3c0.2,0.2,0.3,0.3,0.5,0.6l7.9,12.3c0.1,0.1,0.2,0.2,0.2,0.4c0.1,0.2,0.1,0.4,0.2,0.6
			c0.1,0.2,0.1,0.5,0.1,0.9c0,0.3,0,0.7,0,1.2c0,0.7,0,1.2-0.1,1.6s-0.1,0.8-0.2,1c-0.1,0.2-0.2,0.4-0.4,0.5
			c-0.2,0.1-0.3,0.1-0.5,0.1h-46.8v9.6c0,0.2-0.1,0.4-0.2,0.6c-0.1,0.2-0.3,0.3-0.5,0.5c-0.2,0.1-0.5,0.2-0.9,0.3
			S533.7-61.3,533.2-61.3z"/>
		<path class="st0" d="M547.6-19c-2.9,0-5.4-0.5-7.6-1.4s-4.1-2.3-5.6-4.1c-1.5-1.8-2.7-3.8-3.5-6.3s-1.2-5.1-1.2-8.1
			c0-1.6,0.1-3.2,0.3-4.7c0.2-1.5,0.5-2.8,0.9-3.9s0.7-2.1,1-2.8s0.6-1.2,0.8-1.4c0.2-0.2,0.4-0.3,0.5-0.4c0.2-0.1,0.4-0.2,0.6-0.2
			c0.2-0.1,0.5-0.1,0.9-0.1c0.4,0,0.8,0,1.3,0c0.5,0,0.9,0,1.3,0.1c0.4,0,0.7,0.1,0.9,0.2c0.2,0.1,0.4,0.2,0.5,0.4s0.2,0.3,0.2,0.5
			c0,0.3-0.2,0.7-0.5,1.3c-0.3,0.6-0.7,1.4-1.1,2.3c-0.4,1-0.8,2.2-1.1,3.6s-0.5,3.1-0.5,5.1c0,1.8,0.2,3.5,0.7,5.1
			c0.4,1.5,1.1,2.9,2.1,4s2.1,2,3.5,2.6s3.1,0.9,5.2,0.9c1.7,0,3.2-0.3,4.5-0.8c1.3-0.5,2.4-1.4,3.2-2.5c0.9-1.1,1.5-2.5,1.9-4.2
			c0.4-1.7,0.6-3.7,0.6-6.1c0-1.7-0.1-3.1-0.2-4.3c-0.2-1.2-0.2-2.3-0.2-3.4c0-0.8,0.2-1.3,0.5-1.6s1-0.5,2.1-0.5H581
			c0.9,0,1.6,0.2,2,0.6c0.4,0.4,0.7,1,0.7,1.8v23.6c0,0.2-0.1,0.4-0.2,0.6c-0.1,0.2-0.3,0.4-0.6,0.5c-0.2,0.1-0.6,0.2-0.9,0.3
			s-0.8,0.1-1.4,0.1c-1,0-1.8-0.1-2.3-0.4c-0.5-0.3-0.8-0.6-0.8-1.1v-19h-14.9c0.1,0.9,0.2,1.9,0.2,2.8c0,1,0,2.1,0,3.3
			c0,2.9-0.4,5.5-1.1,7.7c-0.7,2.2-1.8,4-3.1,5.5s-2.9,2.6-4.8,3.3S549.9-19,547.6-19z"/>
	</g>
	<g class="st8">
		<path class="st0" d="M558.5,61.2c-4.6,0-8.6-0.6-12.1-1.8c-3.4-1.2-6.3-2.9-8.6-5.2c-2.3-2.3-4-5-5.1-8.3
			c-1.1-3.3-1.7-7.2-1.7-11.8V22.9c0-0.6,0.2-1.2,0.6-1.8c0.4-0.6,1.2-0.8,2.2-0.8h47.5c1.1,0,1.8,0.3,2.2,0.8
			c0.4,0.6,0.6,1.2,0.6,1.8v12c0,4.6-0.6,8.5-1.8,11.7c-1.2,3.2-2.9,5.8-5.1,8c-2.2,2.2-4.9,3.8-8.1,4.9S562.5,61.2,558.5,61.2z
			 M558.2,53.8c2.9,0,5.6-0.4,8-1.1s4.6-1.8,6.4-3.4s3.2-3.4,4.2-5.8c1-2.3,1.5-5.3,1.5-9v-7.2h-41.4v7.3c0,3.4,0.4,6.3,1.3,8.6
			c0.8,2.3,2.2,4.3,3.9,5.8s4,2.7,6.6,3.5S554.6,53.8,558.2,53.8z"/>
		<path class="st0" d="M532.2,110.4c-0.2,0-0.4-0.1-0.6-0.2c-0.2-0.1-0.3-0.3-0.4-0.6s-0.2-0.6-0.2-1.1c-0.1-0.5-0.1-1-0.1-1.7
			c0-0.7,0-1.3,0.1-1.7s0.2-0.8,0.2-1.1c0.1-0.3,0.2-0.5,0.4-0.6c0.2-0.1,0.4-0.2,0.6-0.2h23.6V79.2h-23.6c-0.2,0-0.4-0.1-0.6-0.2
			c-0.2-0.1-0.3-0.3-0.4-0.6c-0.1-0.3-0.2-0.6-0.2-1.1c-0.1-0.5-0.1-1-0.1-1.7c0-0.7,0-1.2,0.1-1.7s0.2-0.8,0.2-1.1s0.2-0.5,0.4-0.6
			c0.2-0.1,0.4-0.2,0.6-0.2h51.1c0.2,0,0.4,0.1,0.6,0.2c0.2,0.1,0.3,0.3,0.4,0.6s0.2,0.6,0.2,1.1s0.1,1,0.1,1.7c0,0.7,0,1.3-0.1,1.7
			c-0.1,0.5-0.2,0.8-0.2,1.1c-0.1,0.3-0.2,0.5-0.4,0.6c-0.2,0.1-0.4,0.2-0.6,0.2H562v24.2h21.3c0.2,0,0.4,0.1,0.6,0.2
			c0.2,0.1,0.3,0.3,0.4,0.6c0.1,0.3,0.2,0.6,0.2,1.1s0.1,1,0.1,1.7c0,0.7,0,1.2-0.1,1.7c-0.1,0.5-0.2,0.8-0.2,1.1s-0.2,0.5-0.4,0.6
			c-0.2,0.1-0.4,0.2-0.6,0.2H532.2z"/>
		<path class="st0" d="M581.3,157.9c-0.5,0-1,0-1.4-0.1c-0.4-0.1-0.7-0.1-0.9-0.3c-0.2-0.1-0.4-0.3-0.5-0.5
			c-0.1-0.2-0.2-0.4-0.2-0.6v-15h-46.1c-0.2,0-0.4-0.1-0.6-0.2c-0.2-0.1-0.3-0.3-0.4-0.6c-0.1-0.3-0.2-0.6-0.2-1.1s-0.1-1-0.1-1.7
			c0-0.7,0-1.2,0.1-1.7c0.1-0.5,0.2-0.8,0.2-1.1c0.1-0.3,0.2-0.5,0.4-0.6c0.2-0.1,0.4-0.2,0.6-0.2h46.1v-15c0-0.2,0.1-0.4,0.2-0.6
			c0.1-0.2,0.3-0.3,0.5-0.4c0.2-0.1,0.5-0.2,0.9-0.3c0.4-0.1,0.8-0.1,1.4-0.1s1,0,1.4,0.1s0.7,0.2,1,0.3c0.2,0.1,0.4,0.3,0.5,0.4
			c0.1,0.2,0.2,0.4,0.2,0.6v37c0,0.2-0.1,0.4-0.2,0.6c-0.1,0.2-0.3,0.3-0.5,0.5c-0.2,0.1-0.6,0.2-1,0.3S581.8,157.9,581.3,157.9z"/>
		<path class="st0" d="M551.9,174.9c-1.1,0-1.8-0.1-2.2-0.4c-0.4-0.2-0.6-0.6-0.6-1.1v-17.2c0-0.5,0.2-0.9,0.6-1.1
			c0.4-0.2,1.2-0.4,2.2-0.4c1,0,1.8,0.1,2.2,0.4c0.4,0.2,0.6,0.6,0.6,1.1v17.2c0,0.2,0,0.4-0.1,0.6c-0.1,0.2-0.2,0.3-0.5,0.5
			c-0.2,0.1-0.5,0.2-0.9,0.3C552.9,174.9,552.4,174.9,551.9,174.9z"/>
		<path class="st0" d="M533.9,215.9c-0.5,0-1,0-1.3-0.1s-0.6-0.2-0.9-0.3c-0.2-0.1-0.4-0.3-0.5-0.5c-0.1-0.2-0.1-0.4-0.1-0.6v-27.8
			c0-0.2,0-0.4,0.1-0.5c0.1-0.2,0.3-0.3,0.5-0.5c0.2-0.2,0.5-0.3,0.9-0.3c0.4-0.1,0.8-0.1,1.3-0.1c0.5,0,0.9,0,1.3,0.1
			c0.4,0.1,0.7,0.2,0.9,0.3c0.2,0.1,0.4,0.3,0.5,0.5c0.1,0.2,0.2,0.4,0.2,0.6v11.1h40.5l-6.1-10.3c-0.3-0.5-0.4-0.9-0.5-1.3
			c-0.1-0.3,0-0.6,0.2-0.8c0.2-0.2,0.5-0.3,0.9-0.4c0.4-0.1,0.9-0.1,1.6-0.1c0.5,0,0.9,0,1.2,0.1s0.6,0.1,0.8,0.2
			c0.2,0.1,0.4,0.2,0.6,0.3c0.2,0.2,0.3,0.3,0.5,0.6l7.9,12.3c0.1,0.1,0.2,0.2,0.2,0.4c0.1,0.2,0.1,0.4,0.2,0.6
			c0.1,0.2,0.1,0.5,0.1,0.9c0,0.3,0,0.7,0,1.2c0,0.7,0,1.2-0.1,1.6s-0.1,0.8-0.2,1c-0.1,0.2-0.2,0.4-0.4,0.5
			c-0.2,0.1-0.3,0.1-0.5,0.1h-46.8v9.6c0,0.2-0.1,0.4-0.2,0.6c-0.1,0.2-0.3,0.3-0.5,0.5c-0.2,0.1-0.5,0.2-0.9,0.3
			S534.4,215.9,533.9,215.9z"/>
		<path class="st0" d="M533.9,258.6c-0.5,0-1,0-1.3-0.1s-0.6-0.2-0.9-0.3c-0.2-0.1-0.4-0.3-0.5-0.5c-0.1-0.2-0.1-0.4-0.1-0.6v-27.8
			c0-0.2,0-0.4,0.1-0.5c0.1-0.2,0.3-0.3,0.5-0.5c0.2-0.2,0.5-0.3,0.9-0.3c0.4-0.1,0.8-0.1,1.3-0.1c0.5,0,0.9,0,1.3,0.1
			c0.4,0.1,0.7,0.2,0.9,0.3c0.2,0.1,0.4,0.3,0.5,0.5c0.1,0.2,0.2,0.4,0.2,0.6v11.1h40.5l-6.1-10.3c-0.3-0.5-0.4-0.9-0.5-1.3
			c-0.1-0.3,0-0.6,0.2-0.8c0.2-0.2,0.5-0.3,0.9-0.4c0.4-0.1,0.9-0.1,1.6-0.1c0.5,0,0.9,0,1.2,0.1s0.6,0.1,0.8,0.2
			c0.2,0.1,0.4,0.2,0.6,0.3c0.2,0.2,0.3,0.3,0.5,0.6l7.9,12.3c0.1,0.1,0.2,0.2,0.2,0.4c0.1,0.2,0.1,0.4,0.2,0.6
			c0.1,0.2,0.1,0.5,0.1,0.9c0,0.3,0,0.7,0,1.2c0,0.7,0,1.2-0.1,1.6s-0.1,0.8-0.2,1c-0.1,0.2-0.2,0.4-0.4,0.5
			c-0.2,0.1-0.3,0.1-0.5,0.1h-46.8v9.6c0,0.2-0.1,0.4-0.2,0.6c-0.1,0.2-0.3,0.3-0.5,0.5c-0.2,0.1-0.5,0.2-0.9,0.3
			S534.4,258.6,533.9,258.6z"/>
	</g>
	<g class="st8">
		<path class="st0" d="M114.9,316.7c0,2.5-0.5,4.7-1.4,6.7c-0.9,1.9-2.2,3.6-3.8,5s-3.6,2.4-5.8,3.1c-2.2,0.7-4.6,1-7.1,1
			c-1.8,0-3.4-0.2-5-0.5c-1.5-0.3-2.9-0.7-4.1-1.1c-1.2-0.4-2.2-0.9-3-1.4c-0.8-0.5-1.4-0.9-1.7-1.2c-0.3-0.3-0.5-0.7-0.7-1.3
			c-0.2-0.5-0.2-1.2-0.2-2c0-0.6,0-1.1,0.1-1.5s0.1-0.7,0.2-1c0.1-0.2,0.2-0.4,0.4-0.5s0.4-0.1,0.6-0.1c0.4,0,0.9,0.2,1.6,0.7
			c0.7,0.5,1.6,1,2.7,1.5c1.1,0.5,2.4,1.1,4,1.5s3.3,0.7,5.4,0.7c1.5,0,2.9-0.2,4.2-0.6c1.3-0.4,2.4-1,3.3-1.7
			c0.9-0.8,1.6-1.7,2.1-2.8c0.5-1.1,0.7-2.3,0.7-3.7c0-1.5-0.3-2.8-1-3.9c-0.7-1.1-1.6-2-2.7-2.8s-2.4-1.5-3.8-2.2s-2.9-1.4-4.4-2.1
			s-3-1.5-4.4-2.3s-2.7-1.9-3.8-3c-1.1-1.2-2-2.5-2.7-4.1c-0.7-1.5-1-3.4-1-5.6c0-2.2,0.4-4.2,1.2-5.9c0.8-1.7,1.9-3.2,3.4-4.4
			c1.4-1.2,3.2-2.1,5.1-2.7c2-0.6,4.1-0.9,6.4-0.9c1.2,0,2.4,0.1,3.6,0.3c1.2,0.2,2.3,0.5,3.4,0.8c1.1,0.3,2,0.7,2.8,1.2
			c0.8,0.4,1.4,0.8,1.6,1c0.3,0.3,0.4,0.5,0.5,0.6c0.1,0.2,0.2,0.3,0.2,0.6c0.1,0.2,0.1,0.5,0.1,0.8s0,0.8,0,1.3
			c0,0.5,0,0.9-0.1,1.3s-0.1,0.7-0.2,1c-0.1,0.3-0.2,0.5-0.3,0.6c-0.2,0.1-0.3,0.2-0.5,0.2c-0.3,0-0.8-0.2-1.4-0.6
			c-0.6-0.4-1.4-0.8-2.4-1.3c-0.9-0.5-2-0.9-3.3-1.3c-1.3-0.4-2.7-0.6-4.3-0.6c-1.5,0-2.8,0.2-3.9,0.6c-1.1,0.4-2,0.9-2.7,1.6
			s-1.2,1.4-1.6,2.3c-0.4,0.9-0.5,1.9-0.5,2.9c0,1.5,0.3,2.8,1,3.8s1.6,2,2.7,2.8c1.1,0.8,2.4,1.6,3.9,2.3c1.5,0.7,2.9,1.4,4.4,2.1
			s3,1.5,4.4,2.3c1.5,0.8,2.7,1.8,3.9,3s2.1,2.5,2.8,4C114.6,312.8,114.9,314.6,114.9,316.7z"/>
	</g>
	<g class="st8">
		<path class="st0" d="M528.3,304.4c0,1.1-0.3,1.8-1,2.2s-1.6,0.6-2.8,0.6h-45.4c-1.3,0-2.3-0.2-2.9-0.6c-0.7-0.4-1-1.2-1-2.2
			c0-1,0.3-1.8,1-2.2s1.6-0.6,2.9-0.6h45.4c0.6,0,1.1,0,1.6,0.1c0.5,0.1,0.9,0.2,1.2,0.5c0.3,0.2,0.6,0.5,0.8,0.9
			S528.3,303.9,528.3,304.4z"/>
	</g>
</g>
</svg>
