<?xml version="1.0" encoding="utf-8"?>
<!-- Generator: Adobe Illustrator 27.8.0, SVG Export Plug-In . SVG Version: 6.00 Build 0)  -->
<svg version="1.1"
	 id="svg8" xmlns:svg="http://www.w3.org/2000/svg" xmlns:rdf="http://www.w3.org/1999/02/22-rdf-syntax-ns#" xmlns:sodipodi="http://sodipodi.sourceforge.net/DTD/sodipodi-0.dtd" xmlns:dc="http://purl.org/dc/elements/1.1/" xmlns:inkscape="http://www.inkscape.org/namespaces/inkscape" xmlns:cc="http://creativecommons.org/ns#" inkscape:export-xdpi="93" inkscape:export-ydpi="93" inkscape:version="0.92.4 (5da689c313, 2019-01-14)"
	 xmlns="http://www.w3.org/2000/svg" xmlns:xlink="http://www.w3.org/1999/xlink" x="0px" y="0px" viewBox="0 0 396 1081"
	 style="enable-background:new 0 0 396 1081;" xml:space="preserve">
<style type="text/css">
	.st0{fill:#FFFFFF;}
	.st1{fill:#1A1A1A;}
	.st2{opacity:0.99;enable-background:new    ;}
	.st3{fill:#CCCCCC;}
	.st4{opacity:0.99;fill:#808080;enable-background:new    ;}
	.st5{opacity:0.99;fill:#CCCCCC;enable-background:new    ;}
	.st6{opacity:0.99;fill:#FFFFFF;enable-background:new    ;}
	.st7{enable-background:new    ;}
	.st8{opacity:0.99;fill:#F2F2F2;enable-background:new    ;}
</style>
<defs>
	
		<inkscape:perspective  id="perspective876" inkscape:persp3d-origin="105 : 98.999987 : 1" inkscape:vp_x="0 : 148.50001 : 1" inkscape:vp_y="0 : 999.99985 : 0" inkscape:vp_z="210.00001 : 148.50001 : 1" sodipodi:type="inkscape:persp3d">
		</inkscape:perspective>
</defs>
<sodipodi:namedview  bordercolor="#666666" borderopacity="1.0" id="base" inkscape:current-layer="layer1" inkscape:cx="473.95534" inkscape:cy="4424.3394" inkscape:document-units="mm" inkscape:lockguides="true" inkscape:pageopacity="0" inkscape:pageshadow="2" inkscape:window-height="987" inkscape:window-maximized="1" inkscape:window-width="1680" inkscape:window-x="1912" inkscape:window-y="-8" inkscape:zoom="0.3535534" pagecolor="#323232" showgrid="false" showguides="true" width="500mm">
	<inkscape:grid  id="grid3786" type="xygrid"></inkscape:grid>
</sodipodi:namedview>
<g id="layer1" transform="translate(0.31582593,932.81107)" inkscape:groupmode="layer" inkscape:label="Ebene 1">
	<rect id="rect815" x="-0.2" y="-507.7" width="396.3" height="532.6"/>
	<rect id="rect821" x="93.5" y="-61.8" class="st0" width="206.2" height="71"/>
	<path id="rect825" class="st1" d="M107-57.8h41.3c7.2,0,13.1,5.8,13.1,13.1v36.3c0,7.2-5.8,13.1-13.1,13.1H107
		c-7.2,0-13.1-5.8-13.1-13.1v-36.3C93.9-52,99.8-57.8,107-57.8z"/>
	<rect id="rect831" x="55.5" y="-210" class="st0" width="282.1" height="71"/>
	<rect id="rect833" x="55.5" y="-284.1" class="st0" width="282.1" height="71"/>
	<rect id="rect837" x="55.5" y="-358.2" class="st0" width="282.1" height="71"/>
	<path id="rect872" class="st1" d="M244.7-57.8H286c7.2,0,13.1,5.8,13.1,13.1v36.3c0,7.2-5.8,13.1-13.1,13.1h-41.3
		c-7.2,0-13.1-5.8-13.1-13.1v-36.3C231.7-52,237.5-57.8,244.7-57.8z"/>
	<path id="rect874" class="st1" d="M174.2-57.8h44.7c6.3,0,11.4,5.1,11.4,11.4v39.6c0,6.3-5.1,11.4-11.4,11.4h-44.7
		c-6.3,0-11.4-5.1-11.4-11.4v-39.6C162.8-52.7,167.9-57.8,174.2-57.8z"/>
	<rect id="rect892" x="59.3" y="-207.9" class="st2" width="276.2" height="65.5"/>
	<path id="rect836" class="st3" d="M92.1-207.9H109c18.1,0,32.8,14.7,32.8,32.8l0,0c0,18.1-14.7,32.8-32.8,32.8H92.1
		c-18.1,0-32.8-14.7-32.8-32.8l0,0C59.3-193.2,74-207.9,92.1-207.9z"/>
	<rect id="rect850" x="147.2" y="-207.9" class="st3" width="82.4" height="65.5"/>
	<rect id="rect892-7" x="58.5" y="-281.6" class="st2" width="276.2" height="65.5"/>
	<rect id="rect892-72" x="58.4" y="-355.2" class="st2" width="276.2" height="65.5"/>
	<path id="rect836-7" class="st3" d="M91.2-281.1H108c18,0,32.5,14.6,32.5,32.5l0,0c0,18-14.6,32.5-32.5,32.5H91.2
		c-18,0-32.5-14.6-32.5-32.5l0,0C58.7-266.5,73.3-281.1,91.2-281.1z"/>
	<path id="rect836-6" class="st3" d="M179.2-281.1h16.7c18,0,32.5,14.6,32.5,32.5l0,0c0,18-14.6,32.5-32.5,32.5h-16.7
		c-18,0-32.5-14.6-32.5-32.5l0,0C146.7-266.5,161.2-281.1,179.2-281.1z"/>
	<path id="rect939" class="st3" d="M179.6-355.9h16.9c18.1,0,32.8,14.7,32.8,32.8l0,0c0,18.1-14.7,32.8-32.8,32.8h-16.9
		c-18.1,0-32.8-14.7-32.8-32.8l0,0C146.8-341.2,161.5-355.9,179.6-355.9z"/>
	<path id="rect941" class="st3" d="M90.7-355.9h16.9c18.1,0,32.8,14.7,32.8,32.8l0,0c0,18.1-14.7,32.8-32.8,32.8H90.7
		C72.6-290.3,58-305,58-323.1l0,0C58-341.2,72.6-355.9,90.7-355.9z"/>
	<rect id="rect943" x="242.6" y="-279.6" class="st3" width="90.9" height="61.6"/>
	<rect id="rect945" x="242.6" y="-353.4" class="st3" width="90.9" height="61.6"/>
	<rect id="rect947" x="123.8" y="-23.9" class="st4" width="7.5" height="130.1"/>
	<rect id="rect949" x="193.1" y="-23.9" class="st4" width="7.5" height="130.1"/>
	<rect id="rect951" x="261.6" y="-23.9" class="st4" width="7.5" height="130.1"/>
	<g id="flowRoot969" transform="translate(0,-47.173171)">
	</g>
	<ellipse id="path1456" class="st5" cx="55.3" cy="-396.6" rx="36.2" ry="35.4"/>
	<ellipse id="ellipse1458" class="st5" cx="337.4" cy="-396.6" rx="36.2" ry="35.4"/>
	<ellipse id="path1460" class="st6" cx="55.3" cy="-396.8" rx="32.6" ry="31.9"/>
	<ellipse id="ellipse1464" class="st6" cx="337.2" cy="-396.8" rx="32.6" ry="31.9"/>
	<g id="flowRoot1466" transform="translate(0,-47.173171)">
	</g>
	<circle id="circle1504" class="st6" cx="100" cy="-175.1" r="30.8"/>
	<circle id="circle1510" class="st6" cx="187.5" cy="-175.1" r="30.8"/>
	<g id="flowRoot1529" transform="translate(0,-47.173171)">
	</g>
	
		<ellipse id="circle77" transform="matrix(9.853763e-02 -0.9951 0.9951 9.853763e-02 411.2795 -192.169)" class="st6" cx="99.6" cy="-323.1" rx="30.8" ry="30.8"/>
	<circle id="circle79" class="st6" cx="187.5" cy="-323.1" r="30.8"/>
	<circle id="circle81" class="st6" cx="287.9" cy="-322.6" r="26.4"/>
	<path id="path31-1" inkscape:connector-curvature="0" class="st0" d="M112.4-466.1c2.5,0,2.7-0.1,3.2-0.4c0.3-0.2,0.6-0.5,0.8-0.8
		c0.3-0.4,0.3-0.8,0.3-5.8l0-5.3l5.2,0l5.2,0v6.6c0,7.3-0.1,8-0.8,9.9c-1,2.5-2.5,3.7-5.5,4.4c-0.8,0.2-1.7,0.2-4.8,0.2
		c-2.1,0-4.4-0.1-5.1-0.1l-1.3-0.1l0-4.3l0-4.3L112.4-466.1L112.4-466.1z M162.2-451.3c44.7,0,55.7,0.1,53.8,0.3l-0.3,0l0.3,0.1
		c0.2,0.1,0.2,0.1-0.2,0.2c-0.3,0-0.2,0.1,0.4,0.1l0.9,0.1l-0.9,0c-0.5,0-0.8,0.1-0.7,0.1c0.2,0.1,0.2,0.2,0.2,1.2
		c0,1.2,0,1.2,0.4,1.2c0.3,0,0.2,0.1-0.2,0.1c-0.3,0-0.6,0.1-0.6,0.2c0,0.1-17.7,0.1-52.8,0.1h-52.8v-1.9v-1.9L162.2-451.3z
		 M122-492h5.3v4.3v4.3H122h-5.3v-4.3v-4.3H122z M132.6-476.2c0.4-2.4,1-4.6,2-6.5c0.4-0.7,0.7-1.3,0.7-1.3c0.1,0,0.3-0.4,0.6-0.8
		c0.5-0.9,1.8-2.4,2.1-2.6c0.1-0.1,0.2-0.2,0.2-0.2c0-0.2,1.3-1.4,2.4-2.1c1.1-0.8,2-1.2,3.9-1.9c2.3-0.8,3.6-1,6.3-1
		c2,0.1,2.5,0.1,3.7,0.5c0.8,0.2,1.7,0.6,2.1,0.7c0.4,0.2,0.8,0.3,0.8,0.3c0.1,0,0.7,0.3,1.3,0.7c2.5,1.5,6,5.4,7.3,8.3
		c2.1,4.6,2.3,9.1,0.8,13.4c-0.7,1.8-1.1,2.8-1.9,4.1c-0.9,1.5-1,1.5-3.1,3.7c-2.5,2.4-4.3,3.5-7.5,4.4c-1.7,0.5-4.9,0.6-6.7,0.3
		c-2.3-0.4-5.3-1.6-7.2-3c-1-0.7-2.3-1.9-2.3-2c0,0-0.3-0.4-0.7-0.8c-1.9-1.9-3.9-5.7-4.6-8.8C132.7-472.2,132.5-475.3,132.6-476.2
		L132.6-476.2z M142.7-471.7c0.5,2,1.5,3.7,3.1,5.2c1.6,1.5,4.1,2.1,6.3,1.4c2.4-0.7,4.8-3.5,5.5-6.5c0.4-1.7,0.4-4.2-0.1-5.9
		c-0.7-2.4-1.9-4.2-3.7-5.5c-0.8-0.6-1.2-0.7-2-0.9c-1.8-0.3-3.6-0.2-4.9,0.5c-1.1,0.6-2.6,2.2-3.4,3.8
		C142.4-477.2,142-474.3,142.7-471.7L142.7-471.7z M172.4-491.9c0.1,0,2.5,0,5.3,0l5.1,0l0,4.7c0,4.5,0,4.8,0.3,5.5
		c0.7,2,3.2,3.1,5.3,2.4c1.1-0.4,1.8-1,2.4-2l0.5-0.9l0-4.9l0-4.9h5.3h5.3l-0.1,5.5c-0.1,5.1-0.1,5.6-0.4,6.7
		c-0.6,2.1-1.5,4-2.8,5.4c-0.3,0.4-0.6,0.7-0.6,0.8c0,0.2-1.3,1.4-2.5,2.3c-1,0.7-2.4,1.5-3.1,1.6c-0.2,0-1,0.3-1.6,0.5
		c-1.1,0.3-1.4,0.4-3.8,0.4c-2.4,0-2.7,0-4-0.4c-2.1-0.6-2.8-0.9-4.2-1.8c-1.6-1-2.9-2.4-4-4c-1.6-2.3-2.2-4-2.6-6.7
		C172.1-483.5,172.2-491.8,172.4-491.9L172.4-491.9z M187.1-465.9h8.6v4.4v4.4h-8.6h-8.6v-4.4v-4.4H187.1z M201.9-498.8
		c0.1,0,0.1-0.2,0.1-0.5c0-0.5,0-0.5,0.7-0.6c0.4,0,15-0.1,32.5-0.1l31.8,0l0,1.9l0,1.9h-32.4c-17.8,0-32.5,0-32.6-0.1
		c-0.2-0.1-0.2-0.3-0.2-1.3C201.7-498.3,201.8-498.8,201.9-498.8L201.9-498.8z M216.4-477.5h11v4.4v4.4h-11h-11v-4.4v-4.4H216.4z
		 M236.1-492h5.3v4.3v4.3h-5.3h-5.3v-4.3v-4.3H236.1z M236.1-478.9h5.3v11.1v11.1h-5.3h-5.3v-11.1v-11.1L236.1-478.9z M257.1-492
		h11.1v4.3v4.3h-11.1h-11.1v-4.3v-4.3H257.1z M247.9-478.3c0.1,0,2.4-0.1,5.2-0.1l5.1,0l0,5.1c0.1,7.1-0.2,6.8,5.1,6.8l3.4,0v4.5
		v4.5l-1.3,0.2c-1.9,0.2-7.9,0.2-9.6-0.1c-2.8-0.4-4.6-1.3-5.8-2.8c-1.3-1.5-1.9-3.1-2.1-5.5C247.8-467.1,247.7-478.1,247.9-478.3
		L247.9-478.3z M274.4-496.2c0.3-0.9,0.8-1.8,1.4-2.3c2.4-2.1,5.3-2.3,7.6-0.6c1.1,0.8,1.4,1.1,1.9,2.1c0.4,0.8,0.4,1,0.4,2.3
		c0,1.3,0,1.6-0.4,2.4c-0.8,1.7-2.8,3.1-4.8,3.2c-1.8,0.1-3.3-0.4-4.7-1.8C274.4-492.2,273.9-494.4,274.4-496.2L274.4-496.2z
		 M275.4-492.6c0.5,1.1,2,2.3,3.5,2.6c1.5,0.4,2.7,0.1,4.5-1.2c0.4-0.3,0.7-0.7,1.1-1.4c0.4-0.9,0.5-1.1,0.5-2.2
		c0-1.1,0-1.3-0.5-2.2c-0.4-0.8-0.7-1.1-1.4-1.6c-0.5-0.3-1.2-0.7-1.6-0.8c-2.4-0.8-5.3,0.5-6.3,2.8
		C274.9-495.5,275-493.6,275.4-492.6L275.4-492.6z M279.3-498c1.1,0,2.1,0.1,2.3,0.1c0.9,0.3,1.3,2,0.6,2.7
		c-0.2,0.2-0.5,0.4-0.8,0.5l-0.5,0.2l0.5,0.5c0.3,0.3,0.7,0.9,0.9,1.3s0.5,0.8,0.6,0.9c0.3,0.2,0.1,0.3-0.5,0.3l-0.6,0l-0.9-1.3
		c-0.9-1.4-1.1-1.6-2.1-1.6h-0.6v1.5v1.5l-0.4,0l-0.4,0l0-3.3l0-3.3L279.3-498z M279.6-495.2c1.1,0,1.3,0,1.6-0.3
		c0.8-0.6,0.3-1.6-0.8-1.7c-0.5-0.1-1.8,0-2.1,0.1c0,0,0,0.5,0,1v1L279.6-495.2z"/>
	<rect id="rect92" x="242.5" y="-205.6" class="st3" width="90.9" height="61.6"/>
	<circle id="circle1514" class="st6" cx="287.9" cy="-174.8" r="26.4"/>
	<g class="st7">
		<path d="M94.6,115c0,0.3,0,0.5,0,0.8c0,0.2-0.1,0.4-0.1,0.5c-0.1,0.1-0.1,0.2-0.2,0.3c-0.1,0.1-0.2,0.1-0.3,0.1
			c-0.2,0-0.5-0.1-0.9-0.4c-0.4-0.3-1-0.6-1.7-0.9s-1.5-0.7-2.5-0.9c-1-0.3-2.1-0.4-3.5-0.4c-1.6,0-3,0.3-4.3,0.9
			c-1.3,0.6-2.3,1.4-3.2,2.4c-0.9,1-1.6,2.3-2,3.7c-0.5,1.4-0.7,3-0.7,4.6c0,1.9,0.3,3.5,0.8,4.9c0.5,1.4,1.2,2.6,2.1,3.6
			s2,1.7,3.3,2.2s2.6,0.8,4.2,0.8c0.9,0,1.8-0.1,2.7-0.3c0.9-0.2,1.8-0.5,2.6-1v-8.4H84c-0.3,0-0.4-0.1-0.6-0.4
			c-0.1-0.3-0.2-0.6-0.2-1.2c0-0.3,0-0.5,0-0.7c0-0.2,0.1-0.4,0.1-0.5c0.1-0.1,0.1-0.2,0.2-0.3c0.1-0.1,0.2-0.1,0.3-0.1h9.2
			c0.2,0,0.3,0,0.5,0.1c0.2,0.1,0.3,0.2,0.4,0.3s0.2,0.3,0.3,0.5c0.1,0.2,0.1,0.4,0.1,0.7v11c0,0.4-0.1,0.7-0.2,1
			c-0.1,0.3-0.4,0.5-0.9,0.8s-1,0.5-1.7,0.7s-1.4,0.5-2.1,0.6c-0.7,0.2-1.5,0.3-2.2,0.4c-0.7,0.1-1.5,0.1-2.2,0.1
			c-2.2,0-4.2-0.3-6-1s-3.3-1.7-4.5-3c-1.2-1.3-2.1-2.8-2.8-4.6s-1-3.8-1-6c0-2.3,0.3-4.4,1-6.3c0.7-1.9,1.7-3.5,2.9-4.8
			c1.3-1.3,2.8-2.3,4.5-3.1s3.7-1.1,5.9-1.1c1.1,0,2.1,0.1,3.1,0.3c1,0.2,1.8,0.4,2.6,0.7c0.8,0.3,1.4,0.5,1.9,0.9
			c0.5,0.3,0.9,0.6,1.1,0.8s0.3,0.4,0.4,0.7C94.6,114.1,94.6,114.5,94.6,115z"/>
		<path d="M123.7,138.4c0,0.3,0,0.6-0.2,0.8s-0.2,0.4-0.4,0.5c-0.2,0.1-0.3,0.2-0.5,0.3s-0.4,0.1-0.6,0.1h-1.3c-0.4,0-0.8,0-1.1-0.1
			c-0.3-0.1-0.6-0.2-0.9-0.4c-0.3-0.2-0.5-0.5-0.8-0.9c-0.3-0.4-0.6-0.9-0.9-1.4l-8.8-16.5c-0.5-0.9-0.9-1.7-1.4-2.7
			c-0.5-0.9-0.9-1.8-1.3-2.7h0c0,1.1,0.1,2.2,0.1,3.3c0,1.1,0,2.2,0,3.3v17.5c0,0.1,0,0.2-0.1,0.3c-0.1,0.1-0.2,0.2-0.3,0.2
			c-0.1,0.1-0.3,0.1-0.6,0.1s-0.6,0.1-0.9,0.1c-0.4,0-0.7,0-0.9-0.1s-0.4-0.1-0.6-0.1c-0.1-0.1-0.2-0.1-0.3-0.2
			c-0.1-0.1-0.1-0.2-0.1-0.3v-26.8c0-0.6,0.2-1,0.5-1.3c0.3-0.3,0.7-0.4,1.1-0.4h1.9c0.4,0,0.8,0,1.1,0.1s0.6,0.2,0.8,0.4
			c0.2,0.2,0.5,0.4,0.7,0.7c0.2,0.3,0.5,0.7,0.7,1.2l6.8,12.7c0.4,0.8,0.8,1.5,1.2,2.3c0.4,0.7,0.8,1.5,1.1,2.2
			c0.4,0.7,0.7,1.4,1.1,2.1c0.4,0.7,0.7,1.4,1,2.1h0c0-1.2,0-2.4-0.1-3.7c0-1.3,0-2.5,0-3.7v-15.7c0-0.1,0-0.2,0.1-0.3
			c0.1-0.1,0.2-0.2,0.3-0.2c0.1-0.1,0.3-0.1,0.6-0.1c0.2,0,0.6,0,1,0c0.3,0,0.6,0,0.9,0c0.3,0,0.4,0.1,0.6,0.1
			c0.1,0.1,0.2,0.1,0.3,0.2c0.1,0.1,0.1,0.2,0.1,0.3V138.4z"/>
		<path d="M153.7,125.1c0,2.5-0.3,4.7-1,6.6c-0.6,1.9-1.6,3.4-2.8,4.7s-2.7,2.2-4.5,2.8c-1.8,0.6-3.9,0.9-6.4,0.9h-6.1
			c-0.3,0-0.7-0.1-1-0.3c-0.3-0.2-0.5-0.6-0.5-1.2v-25.9c0-0.6,0.2-1,0.5-1.2c0.3-0.2,0.6-0.3,1-0.3h6.6c2.5,0,4.6,0.3,6.4,1
			c1.7,0.7,3.2,1.6,4.4,2.8s2.1,2.7,2.7,4.4C153.4,120.9,153.7,122.9,153.7,125.1z M149.7,125.2c0-1.6-0.2-3-0.6-4.4s-1-2.5-1.8-3.5
			c-0.8-1-1.9-1.8-3.1-2.3c-1.3-0.6-2.9-0.8-4.9-0.8h-3.9v22.6h4c1.9,0,3.4-0.2,4.7-0.7s2.3-1.2,3.2-2.1s1.5-2.2,1.9-3.6
			S149.7,127.2,149.7,125.2z"/>
	</g>
	<g class="st7">
		<path d="M256.9,131.9c0,1.4-0.2,2.6-0.8,3.6c-0.5,1.1-1.2,2-2.1,2.7c-0.9,0.7-1.9,1.3-3.1,1.7c-1.2,0.4-2.5,0.6-3.9,0.6
			c-1,0-1.9-0.1-2.7-0.2c-0.8-0.2-1.6-0.4-2.2-0.6c-0.7-0.2-1.2-0.5-1.6-0.7c-0.4-0.3-0.7-0.5-0.9-0.7c-0.2-0.2-0.3-0.4-0.4-0.7
			c-0.1-0.3-0.1-0.6-0.1-1.1c0-0.3,0-0.6,0-0.8s0.1-0.4,0.1-0.5c0.1-0.1,0.1-0.2,0.2-0.3c0.1-0.1,0.2-0.1,0.3-0.1
			c0.2,0,0.5,0.1,0.9,0.4c0.4,0.3,0.9,0.5,1.5,0.8c0.6,0.3,1.3,0.6,2.2,0.8c0.8,0.3,1.8,0.4,2.9,0.4c0.8,0,1.6-0.1,2.3-0.3
			c0.7-0.2,1.3-0.5,1.8-1c0.5-0.4,0.9-0.9,1.2-1.5c0.3-0.6,0.4-1.3,0.4-2c0-0.8-0.2-1.5-0.6-2.1c-0.4-0.6-0.9-1.1-1.5-1.5
			s-1.3-0.8-2.1-1.2c-0.8-0.4-1.6-0.7-2.4-1.1c-0.8-0.4-1.6-0.8-2.4-1.3c-0.8-0.5-1.5-1-2.1-1.6c-0.6-0.6-1.1-1.4-1.5-2.2
			s-0.6-1.9-0.6-3c0-1.2,0.2-2.3,0.7-3.2c0.4-0.9,1.1-1.7,1.8-2.4c0.8-0.6,1.7-1.1,2.8-1.5c1.1-0.3,2.3-0.5,3.5-0.5
			c0.6,0,1.3,0.1,1.9,0.2c0.7,0.1,1.3,0.3,1.8,0.4c0.6,0.2,1.1,0.4,1.5,0.6s0.7,0.4,0.9,0.6c0.1,0.1,0.2,0.3,0.3,0.3
			s0.1,0.2,0.1,0.3s0.1,0.3,0.1,0.5c0,0.2,0,0.4,0,0.7c0,0.3,0,0.5,0,0.7s-0.1,0.4-0.1,0.5c0,0.1-0.1,0.2-0.2,0.3
			c-0.1,0.1-0.2,0.1-0.3,0.1c-0.2,0-0.4-0.1-0.8-0.3c-0.4-0.2-0.8-0.4-1.3-0.7s-1.1-0.5-1.8-0.7c-0.7-0.2-1.5-0.3-2.3-0.3
			c-0.8,0-1.5,0.1-2.1,0.3c-0.6,0.2-1.1,0.5-1.5,0.9s-0.7,0.8-0.9,1.3s-0.3,1-0.3,1.6c0,0.8,0.2,1.5,0.6,2.1
			c0.4,0.6,0.9,1.1,1.5,1.5s1.3,0.9,2.1,1.2c0.8,0.4,1.6,0.8,2.4,1.1c0.8,0.4,1.6,0.8,2.4,1.3c0.8,0.5,1.5,1,2.1,1.6
			c0.6,0.6,1.1,1.4,1.5,2.2C256.7,129.7,256.9,130.7,256.9,131.9z"/>
		<path d="M266.1,112.5c0,0.9-0.2,1.5-0.5,1.8c-0.3,0.3-0.9,0.5-1.8,0.5c-0.9,0-1.5-0.2-1.8-0.5c-0.3-0.3-0.5-0.9-0.5-1.7
			c0-0.9,0.2-1.5,0.5-1.8c0.3-0.3,0.9-0.5,1.8-0.5c0.9,0,1.5,0.2,1.8,0.5C265.9,111,266.1,111.6,266.1,112.5z M265.6,139.4
			c0,0.1,0,0.2-0.1,0.3c-0.1,0.1-0.2,0.2-0.3,0.2c-0.1,0.1-0.3,0.1-0.6,0.1c-0.2,0-0.5,0-0.9,0c-0.4,0-0.7,0-0.9,0
			c-0.2,0-0.4-0.1-0.6-0.1c-0.1-0.1-0.2-0.1-0.3-0.2c-0.1-0.1-0.1-0.2-0.1-0.3v-20.2c0-0.1,0-0.2,0.1-0.3c0.1-0.1,0.1-0.2,0.3-0.2
			c0.1-0.1,0.3-0.1,0.6-0.1c0.2,0,0.5,0,0.9,0c0.4,0,0.7,0,0.9,0c0.2,0,0.4,0.1,0.6,0.1c0.1,0.1,0.2,0.1,0.3,0.2
			c0.1,0.1,0.1,0.2,0.1,0.3V139.4z"/>
		<path d="M289.3,120.2c0,0.5-0.1,0.9-0.2,1.1s-0.3,0.3-0.5,0.3h-2.9c0.5,0.5,0.9,1.1,1.1,1.8c0.2,0.6,0.3,1.3,0.3,2
			c0,1.2-0.2,2.2-0.6,3.1c-0.4,0.9-0.9,1.7-1.6,2.3c-0.7,0.6-1.5,1.1-2.5,1.4c-1,0.3-2,0.5-3.2,0.5c-0.8,0-1.6-0.1-2.3-0.3
			c-0.7-0.2-1.3-0.5-1.7-0.8c-0.3,0.3-0.5,0.6-0.7,0.9c-0.2,0.3-0.3,0.7-0.3,1.2c0,0.5,0.2,1,0.7,1.3c0.5,0.3,1.1,0.5,1.9,0.6
			l5.3,0.2c1,0,1.9,0.2,2.8,0.4c0.8,0.2,1.6,0.6,2.2,1.1s1.1,1,1.4,1.7s0.5,1.4,0.5,2.3c0,0.9-0.2,1.8-0.6,2.6s-1,1.6-1.8,2.2
			c-0.8,0.6-1.8,1.1-3.1,1.5s-2.7,0.5-4.4,0.5c-1.6,0-3-0.1-4.2-0.4c-1.1-0.3-2.1-0.7-2.8-1.1c-0.7-0.5-1.3-1-1.6-1.7
			c-0.3-0.7-0.5-1.4-0.5-2.2c0-0.5,0.1-1,0.2-1.4c0.1-0.5,0.3-0.9,0.5-1.3s0.6-0.8,0.9-1.2s0.8-0.8,1.3-1.1
			c-0.7-0.4-1.3-0.8-1.6-1.4c-0.4-0.6-0.5-1.2-0.5-1.8c0-0.9,0.2-1.7,0.6-2.4c0.4-0.7,0.8-1.4,1.4-1.9c-0.5-0.6-0.8-1.2-1.1-1.9
			c-0.3-0.7-0.4-1.5-0.4-2.5c0-1.2,0.2-2.2,0.6-3.1c0.4-0.9,0.9-1.7,1.6-2.3c0.7-0.6,1.5-1.1,2.5-1.4c1-0.3,2-0.5,3.1-0.5
			c0.6,0,1.2,0,1.7,0.1c0.5,0.1,1,0.2,1.5,0.3h6.1c0.3,0,0.4,0.1,0.6,0.4S289.3,119.7,289.3,120.2z M285.4,141.5
			c0-0.9-0.4-1.5-1.1-2s-1.7-0.7-2.9-0.8l-5.2-0.2c-0.5,0.4-0.9,0.7-1.2,1.1c-0.3,0.3-0.5,0.7-0.7,1c-0.2,0.3-0.3,0.6-0.4,0.9
			c-0.1,0.3-0.1,0.6-0.1,0.9c0,1,0.5,1.7,1.5,2.2c1,0.5,2.4,0.8,4.1,0.8c1.1,0,2.1-0.1,2.8-0.3c0.8-0.2,1.4-0.5,1.8-0.9
			c0.5-0.4,0.8-0.8,1-1.2C285.3,142.5,285.4,142,285.4,141.5z M283.5,125.5c0-1.4-0.4-2.4-1.1-3.2c-0.8-0.8-1.8-1.2-3.2-1.2
			c-0.7,0-1.3,0.1-1.9,0.4s-1,0.6-1.3,1c-0.4,0.4-0.6,0.9-0.8,1.4c-0.2,0.5-0.3,1.1-0.3,1.7c0,1.3,0.4,2.4,1.1,3.1s1.8,1.1,3.2,1.1
			c0.7,0,1.4-0.1,1.9-0.3s1-0.6,1.3-1c0.4-0.4,0.6-0.9,0.8-1.4C283.5,126.7,283.5,126.1,283.5,125.5z"/>
		<path d="M311.4,139.4c0,0.1,0,0.2-0.1,0.3s-0.2,0.2-0.3,0.2c-0.1,0.1-0.3,0.1-0.6,0.1c-0.2,0-0.5,0-0.9,0c-0.4,0-0.7,0-0.9,0
			c-0.2,0-0.4-0.1-0.6-0.1c-0.1-0.1-0.2-0.1-0.3-0.2s-0.1-0.2-0.1-0.3v-11.8c0-1.2-0.1-2.1-0.3-2.8s-0.4-1.3-0.8-1.8
			c-0.3-0.5-0.8-0.9-1.3-1.2c-0.5-0.3-1.2-0.4-1.9-0.4c-0.9,0-1.9,0.3-2.8,1c-0.9,0.7-1.9,1.6-2.9,2.9v14.1c0,0.1,0,0.2-0.1,0.3
			c-0.1,0.1-0.2,0.2-0.3,0.2c-0.1,0.1-0.3,0.1-0.6,0.1c-0.2,0-0.5,0-0.9,0c-0.4,0-0.7,0-0.9,0c-0.2,0-0.4-0.1-0.6-0.1
			c-0.1-0.1-0.2-0.1-0.3-0.2c-0.1-0.1-0.1-0.2-0.1-0.3v-20.2c0-0.1,0-0.2,0.1-0.3s0.1-0.2,0.3-0.2c0.1-0.1,0.3-0.1,0.5-0.1
			s0.5,0,0.8,0c0.3,0,0.6,0,0.8,0c0.2,0,0.4,0.1,0.5,0.1c0.1,0.1,0.2,0.1,0.3,0.2c0.1,0.1,0.1,0.2,0.1,0.3v2.7
			c1.1-1.3,2.3-2.2,3.4-2.8s2.3-0.9,3.4-0.9c1.3,0,2.5,0.2,3.4,0.7c0.9,0.5,1.7,1.1,2.2,1.8c0.6,0.8,1,1.7,1.2,2.7
			c0.2,1,0.4,2.3,0.4,3.7V139.4z"/>
		<path d="M333.4,139.5c0,0.2-0.1,0.3-0.2,0.4c-0.1,0.1-0.3,0.2-0.5,0.2c-0.2,0-0.5,0.1-0.9,0.1c-0.4,0-0.7,0-0.9-0.1
			s-0.4-0.1-0.5-0.2c-0.1-0.1-0.2-0.2-0.2-0.4v-2c-0.9,0.9-1.9,1.7-2.9,2.2c-1.1,0.5-2.2,0.8-3.4,0.8c-1.1,0-2-0.1-2.9-0.4
			c-0.9-0.3-1.6-0.7-2.2-1.2c-0.6-0.5-1.1-1.2-1.4-1.9c-0.3-0.8-0.5-1.6-0.5-2.6c0-1.1,0.2-2.1,0.7-3c0.5-0.8,1.1-1.5,2-2.1
			s1.9-1,3.2-1.2c1.3-0.3,2.7-0.4,4.2-0.4h2.8V126c0-0.8-0.1-1.5-0.2-2.1c-0.2-0.6-0.4-1.1-0.8-1.5c-0.4-0.4-0.8-0.7-1.4-0.9
			c-0.6-0.2-1.3-0.3-2.2-0.3c-0.9,0-1.7,0.1-2.5,0.3s-1.4,0.5-1.9,0.7c-0.5,0.3-1,0.5-1.4,0.7s-0.6,0.3-0.8,0.3
			c-0.1,0-0.2,0-0.3-0.1s-0.2-0.1-0.2-0.3c-0.1-0.1-0.1-0.3-0.1-0.5c0-0.2,0-0.4,0-0.6c0-0.4,0-0.7,0.1-0.9c0.1-0.2,0.2-0.4,0.4-0.6
			c0.2-0.2,0.5-0.4,1-0.7c0.5-0.3,1.1-0.5,1.7-0.7c0.6-0.2,1.3-0.4,2.1-0.5c0.8-0.1,1.5-0.2,2.3-0.2c1.4,0,2.7,0.2,3.7,0.5
			c1,0.3,1.8,0.8,2.5,1.4c0.6,0.6,1.1,1.4,1.4,2.4c0.3,0.9,0.4,2,0.4,3.3V139.5z M329.7,130.3h-3.2c-1,0-1.9,0.1-2.6,0.3
			c-0.7,0.2-1.4,0.4-1.9,0.8c-0.5,0.3-0.9,0.7-1.1,1.2s-0.3,1-0.3,1.6c0,1,0.3,1.9,1,2.5c0.7,0.6,1.6,0.9,2.8,0.9
			c1,0,1.9-0.2,2.7-0.7c0.8-0.5,1.7-1.2,2.6-2.3V130.3z"/>
		<path d="M343.9,139.4c0,0.1,0,0.2-0.1,0.3c-0.1,0.1-0.2,0.2-0.3,0.2c-0.1,0.1-0.3,0.1-0.6,0.1c-0.2,0-0.5,0-0.9,0
			c-0.4,0-0.7,0-0.9,0c-0.2,0-0.4-0.1-0.6-0.1c-0.1-0.1-0.2-0.1-0.3-0.2c-0.1-0.1-0.1-0.2-0.1-0.3v-29.9c0-0.1,0-0.2,0.1-0.3
			c0.1-0.1,0.1-0.2,0.3-0.2c0.1-0.1,0.3-0.1,0.6-0.1c0.2,0,0.5,0,0.9,0c0.4,0,0.7,0,0.9,0c0.2,0,0.4,0.1,0.6,0.1
			c0.1,0.1,0.2,0.1,0.3,0.2c0.1,0.1,0.1,0.2,0.1,0.3V139.4z"/>
	</g>
	<g class="st7">
		<path d="M193.6,127.1c0,0.3,0,0.5-0.1,0.7c0,0.2-0.1,0.4-0.2,0.5c-0.1,0.1-0.2,0.2-0.3,0.3c-0.1,0.1-0.2,0.1-0.3,0.1h-7.4v8.2
			c0,0.1,0,0.2-0.1,0.3s-0.2,0.2-0.3,0.2s-0.3,0.1-0.5,0.1c-0.2,0-0.5,0.1-0.8,0.1c-0.3,0-0.6,0-0.8-0.1c-0.2,0-0.4-0.1-0.5-0.1
			s-0.2-0.1-0.3-0.2s-0.1-0.2-0.1-0.3v-8.2h-7.4c-0.1,0-0.2,0-0.3-0.1c-0.1-0.1-0.2-0.2-0.3-0.3c-0.1-0.1-0.1-0.3-0.2-0.5
			c0-0.2-0.1-0.4-0.1-0.7c0-0.3,0-0.5,0.1-0.7s0.1-0.4,0.2-0.5c0.1-0.1,0.2-0.2,0.3-0.3c0.1-0.1,0.2-0.1,0.3-0.1h7.4v-8.2
			c0-0.1,0-0.2,0.1-0.3c0.1-0.1,0.2-0.2,0.3-0.2s0.3-0.1,0.5-0.2c0.2,0,0.5-0.1,0.8-0.1c0.3,0,0.6,0,0.8,0.1c0.2,0,0.4,0.1,0.5,0.2
			s0.2,0.1,0.3,0.2c0.1,0.1,0.1,0.2,0.1,0.3v8.2h7.4c0.1,0,0.2,0,0.3,0.1c0.1,0.1,0.2,0.2,0.3,0.3c0.1,0.1,0.1,0.3,0.2,0.5
			S193.6,126.8,193.6,127.1z"/>
		<path d="M210.7,139.3c-0.1,0.2-0.1,0.3-0.2,0.4c-0.1,0.1-0.3,0.2-0.4,0.2s-0.4,0.1-0.7,0.1c-0.3,0-0.7,0-1.1,0c-0.3,0-0.6,0-0.9,0
			c-0.2,0-0.5,0-0.6-0.1c-0.2,0-0.3-0.1-0.5-0.1s-0.2-0.1-0.3-0.1c-0.1-0.1-0.2-0.1-0.2-0.2c-0.1-0.1-0.1-0.2-0.1-0.3l-9.5-26.9
			c-0.1-0.3-0.2-0.6-0.2-0.8c0-0.2,0.1-0.4,0.2-0.5c0.1-0.1,0.4-0.2,0.6-0.2c0.3,0,0.7,0,1.2,0c0.4,0,0.8,0,1,0
			c0.2,0,0.4,0.1,0.6,0.1s0.2,0.1,0.3,0.2c0.1,0.1,0.1,0.2,0.2,0.4l8.3,24.4h0l8.1-24.4c0-0.2,0.1-0.3,0.2-0.4
			c0.1-0.1,0.2-0.2,0.3-0.2c0.1-0.1,0.4-0.1,0.6-0.1c0.3,0,0.6,0,1.1,0c0.5,0,0.8,0,1.1,0.1c0.3,0,0.5,0.1,0.5,0.2
			c0.1,0.1,0.1,0.3,0.1,0.5c0,0.2-0.1,0.5-0.2,0.8L210.7,139.3z"/>
	</g>
	<g class="st7">
		<path class="st0" d="M389.1-239.3c0.1,0,0.3,0,0.4,0.1c0.1,0.1,0.2,0.2,0.3,0.4c0.1,0.2,0.1,0.4,0.2,0.7c0,0.3,0.1,0.7,0.1,1.2
			c0,0.6,0,1.2-0.1,1.6c-0.1,0.4-0.2,0.7-0.3,0.9s-0.3,0.4-0.5,0.5l-17.6,13h17.6c0.1,0,0.2,0,0.4,0.1c0.1,0.1,0.2,0.2,0.3,0.4
			c0.1,0.2,0.1,0.4,0.2,0.7c0,0.3,0.1,0.7,0.1,1.1c0,0.4,0,0.8-0.1,1.1c0,0.3-0.1,0.6-0.2,0.7c-0.1,0.2-0.2,0.3-0.3,0.4
			c-0.1,0.1-0.2,0.1-0.4,0.1h-33.9c-0.1,0-0.3,0-0.4-0.1c-0.1-0.1-0.2-0.2-0.3-0.4c-0.1-0.2-0.1-0.4-0.2-0.7c0-0.3-0.1-0.7-0.1-1.1
			c0-0.5,0-0.8,0.1-1.1c0-0.3,0.1-0.5,0.2-0.7s0.1-0.3,0.3-0.4c0.1-0.1,0.2-0.1,0.4-0.1h15.7l-15.7-12.5c-0.2-0.1-0.3-0.2-0.4-0.4
			c-0.1-0.1-0.2-0.3-0.3-0.5s-0.1-0.5-0.2-0.8c0-0.3-0.1-0.7-0.1-1.2s0-0.9,0.1-1.1c0-0.3,0.1-0.5,0.2-0.7c0.1-0.2,0.2-0.3,0.3-0.4
			c0.1-0.1,0.2-0.1,0.4-0.1c0.2,0,0.5,0.1,0.7,0.2c0.2,0.1,0.6,0.3,1,0.7l14,11.7l16.7-12.6c0.5-0.3,0.8-0.5,1-0.6
			C388.8-239.2,389-239.3,389.1-239.3z"/>
		<path class="st0" d="M376.1-256.5h13c0.1,0,0.3,0,0.4,0.1c0.1,0.1,0.2,0.2,0.3,0.4c0.1,0.2,0.1,0.4,0.2,0.7c0,0.3,0.1,0.7,0.1,1.1
			c0,0.5,0,0.8-0.1,1.1c0,0.3-0.1,0.5-0.2,0.7c-0.1,0.2-0.1,0.3-0.3,0.4s-0.2,0.1-0.4,0.1h-13l-19.9,10c-0.4,0.2-0.7,0.3-1,0.4
			c-0.2,0-0.4,0-0.5-0.1c-0.1-0.1-0.2-0.4-0.2-0.7c0-0.4-0.1-0.8-0.1-1.4c0-0.5,0-1,0.1-1.3c0-0.3,0.1-0.6,0.2-0.8s0.2-0.4,0.3-0.5
			c0.1-0.1,0.3-0.2,0.5-0.3l10.1-4.9c1-0.5,2-0.9,3-1.4c1.1-0.5,2.1-0.9,3.2-1.4v-0.1c-1-0.4-2.1-0.8-3.1-1.3c-1-0.4-2-0.9-3-1.3
			l-10.2-4.9c-0.2-0.1-0.3-0.1-0.5-0.2c-0.1-0.1-0.2-0.2-0.3-0.4s-0.1-0.4-0.2-0.7c0-0.3-0.1-0.7-0.1-1.2c0-0.7,0-1.2,0.1-1.5
			c0-0.4,0.1-0.6,0.3-0.8c0.1-0.1,0.3-0.2,0.5-0.1s0.6,0.2,1,0.4L376.1-256.5z"/>
		<path class="st0" d="M376.1-279.8c0.7,0,1.2,0.1,1.5,0.2c0.3,0.2,0.4,0.4,0.4,0.7v11.4c0,0.3-0.1,0.6-0.4,0.7
			c-0.3,0.2-0.8,0.2-1.5,0.2c-0.7,0-1.2-0.1-1.4-0.2c-0.3-0.2-0.4-0.4-0.4-0.7v-11.4c0-0.1,0-0.3,0.1-0.4s0.2-0.2,0.3-0.3
			c0.2-0.1,0.4-0.1,0.6-0.2C375.4-279.8,375.7-279.8,376.1-279.8z"/>
		<path class="st0" d="M372.1-308.1c2.7,0,5.2,0.2,7.4,0.6c2.2,0.4,4.2,1.1,5.8,2.1s2.9,2.3,3.7,3.9c0.9,1.6,1.3,3.6,1.3,5.9
			c0,2.2-0.4,4.1-1.2,5.6c-0.8,1.5-2,2.7-3.5,3.7c-1.5,0.9-3.4,1.6-5.7,2c-2.2,0.4-4.8,0.6-7.7,0.6c-2.7,0-5.2-0.2-7.4-0.7
			c-2.2-0.4-4.2-1.1-5.8-2.1c-1.6-1-2.9-2.3-3.7-3.9c-0.9-1.6-1.3-3.6-1.3-5.9c0-2.2,0.4-4.1,1.2-5.6s2-2.7,3.5-3.7
			c1.5-0.9,3.4-1.6,5.7-2C366.6-307.9,369.2-308.1,372.1-308.1z M372.4-303.3c-1.8,0-3.3,0.1-4.7,0.2c-1.4,0.1-2.6,0.3-3.7,0.6
			c-1.1,0.2-2,0.6-2.8,1c-0.8,0.4-1.4,0.9-1.9,1.4c-0.5,0.5-0.9,1.2-1.1,1.9s-0.3,1.5-0.3,2.4c0,1.5,0.4,2.8,1.1,3.8s1.7,1.7,3,2.3
			s2.8,0.9,4.5,1.1c1.7,0.2,3.5,0.3,5.5,0.3c2.6,0,4.9-0.1,6.7-0.4c1.8-0.3,3.4-0.7,4.5-1.3c1.2-0.6,2-1.3,2.5-2.3s0.8-2,0.8-3.3
			c0-1-0.2-1.9-0.5-2.7c-0.3-0.8-0.8-1.4-1.4-2c-0.6-0.6-1.3-1-2.2-1.4c-0.9-0.4-1.8-0.7-2.8-0.9c-1-0.2-2.2-0.4-3.4-0.5
			C375-303.2,373.8-303.3,372.4-303.3z"/>
		<path class="st0" d="M388-335.3c0.3,0,0.6,0,0.9,0.1s0.4,0.1,0.6,0.2c0.1,0.1,0.2,0.2,0.3,0.3c0.1,0.1,0.1,0.2,0.1,0.4v18.4
			c0,0.1,0,0.2-0.1,0.4c-0.1,0.1-0.2,0.2-0.3,0.3c-0.1,0.1-0.3,0.2-0.6,0.2s-0.5,0.1-0.9,0.1c-0.3,0-0.6,0-0.8-0.1s-0.4-0.1-0.6-0.2
			c-0.2-0.1-0.3-0.2-0.4-0.3c-0.1-0.1-0.1-0.2-0.1-0.4v-7.4h-26.8l4.1,6.8c0.2,0.3,0.3,0.6,0.3,0.8c0,0.2,0,0.4-0.1,0.5
			c-0.1,0.1-0.3,0.2-0.6,0.3c-0.3,0-0.6,0.1-1,0.1c-0.3,0-0.6,0-0.8,0c-0.2,0-0.4-0.1-0.5-0.1s-0.3-0.1-0.4-0.2
			c-0.1-0.1-0.2-0.2-0.3-0.4l-5.2-8.1c-0.1-0.1-0.1-0.2-0.1-0.3c0-0.1-0.1-0.2-0.1-0.4c0-0.2-0.1-0.4-0.1-0.6c0-0.2,0-0.5,0-0.8
			c0-0.4,0-0.8,0.1-1.1c0-0.3,0.1-0.5,0.2-0.7c0.1-0.2,0.1-0.3,0.2-0.3c0.1-0.1,0.2-0.1,0.3-0.1h31v-6.4c0-0.1,0-0.3,0.1-0.4
			c0.1-0.1,0.2-0.2,0.4-0.3c0.2-0.1,0.4-0.1,0.6-0.2C387.4-335.3,387.7-335.3,388-335.3z"/>
		<path class="st0" d="M388-363.6c0.3,0,0.6,0,0.9,0.1s0.4,0.1,0.6,0.2c0.1,0.1,0.2,0.2,0.3,0.3c0.1,0.1,0.1,0.2,0.1,0.4v18.4
			c0,0.1,0,0.2-0.1,0.4c-0.1,0.1-0.2,0.2-0.3,0.3c-0.1,0.1-0.3,0.2-0.6,0.2s-0.5,0.1-0.9,0.1c-0.3,0-0.6,0-0.8-0.1s-0.4-0.1-0.6-0.2
			c-0.2-0.1-0.3-0.2-0.4-0.3c-0.1-0.1-0.1-0.2-0.1-0.4v-7.4h-26.8l4.1,6.8c0.2,0.3,0.3,0.6,0.3,0.8c0,0.2,0,0.4-0.1,0.5
			c-0.1,0.1-0.3,0.2-0.6,0.3c-0.3,0-0.6,0.1-1,0.1c-0.3,0-0.6,0-0.8,0c-0.2,0-0.4-0.1-0.5-0.1s-0.3-0.1-0.4-0.2
			c-0.1-0.1-0.2-0.2-0.3-0.4l-5.2-8.1c-0.1-0.1-0.1-0.2-0.1-0.3c0-0.1-0.1-0.2-0.1-0.4c0-0.2-0.1-0.4-0.1-0.6c0-0.2,0-0.5,0-0.8
			c0-0.4,0-0.8,0.1-1.1c0-0.3,0.1-0.5,0.2-0.7c0.1-0.2,0.1-0.3,0.2-0.3c0.1-0.1,0.2-0.1,0.3-0.1h31v-6.4c0-0.1,0-0.3,0.1-0.4
			c0.1-0.1,0.2-0.2,0.4-0.3c0.2-0.1,0.4-0.1,0.6-0.2C387.4-363.6,387.7-363.6,388-363.6z"/>
	</g>
	<g class="st7">
		<path class="st0" d="M343.4-19.3c0,1.7-0.3,3.1-0.9,4.4s-1.5,2.4-2.5,3.3c-1.1,0.9-2.4,1.6-3.8,2c-1.5,0.5-3,0.7-4.7,0.7
			c-1.2,0-2.3-0.1-3.3-0.3c-1-0.2-1.9-0.4-2.7-0.7c-0.8-0.3-1.5-0.6-2-0.9c-0.5-0.3-0.9-0.6-1.1-0.8c-0.2-0.2-0.4-0.5-0.5-0.8
			c-0.1-0.3-0.2-0.8-0.2-1.4c0-0.4,0-0.7,0.1-1c0-0.3,0.1-0.5,0.2-0.6c0.1-0.2,0.2-0.3,0.3-0.3c0.1-0.1,0.2-0.1,0.4-0.1
			c0.3,0,0.6,0.2,1.1,0.5c0.5,0.3,1.1,0.6,1.8,1c0.7,0.4,1.6,0.7,2.6,1c1,0.3,2.2,0.5,3.6,0.5c1,0,2-0.1,2.8-0.4s1.6-0.7,2.2-1.2
			c0.6-0.5,1.1-1.1,1.4-1.8s0.5-1.6,0.5-2.5c0-1-0.2-1.9-0.7-2.6c-0.5-0.7-1.1-1.3-1.8-1.9c-0.7-0.5-1.6-1-2.5-1.5
			c-1-0.4-1.9-0.9-2.9-1.4s-2-1-2.9-1.5c-0.9-0.6-1.8-1.2-2.5-2c-0.7-0.8-1.3-1.7-1.8-2.7s-0.7-2.3-0.7-3.7c0-1.5,0.3-2.8,0.8-3.9
			c0.5-1.2,1.3-2.1,2.2-2.9c1-0.8,2.1-1.4,3.4-1.8s2.7-0.6,4.3-0.6c0.8,0,1.6,0.1,2.4,0.2c0.8,0.1,1.5,0.3,2.2,0.5
			c0.7,0.2,1.3,0.5,1.9,0.8c0.5,0.3,0.9,0.5,1.1,0.7c0.2,0.2,0.3,0.3,0.3,0.4s0.1,0.2,0.1,0.4c0,0.2,0.1,0.3,0.1,0.6
			c0,0.2,0,0.5,0,0.8c0,0.3,0,0.6,0,0.9s-0.1,0.5-0.1,0.6c-0.1,0.2-0.1,0.3-0.2,0.4s-0.2,0.1-0.3,0.1c-0.2,0-0.5-0.1-0.9-0.4
			c-0.4-0.3-1-0.5-1.6-0.9c-0.6-0.3-1.4-0.6-2.2-0.9c-0.8-0.3-1.8-0.4-2.8-0.4c-1,0-1.8,0.1-2.6,0.4c-0.7,0.3-1.3,0.6-1.8,1.1
			c-0.5,0.4-0.8,1-1.1,1.6c-0.2,0.6-0.4,1.2-0.4,1.9c0,1,0.2,1.8,0.7,2.5c0.5,0.7,1.1,1.3,1.8,1.9c0.8,0.5,1.6,1,2.6,1.5
			c1,0.5,1.9,0.9,2.9,1.4s2,1,2.9,1.5s1.8,1.2,2.6,2c0.8,0.8,1.4,1.6,1.8,2.7S343.4-20.7,343.4-19.3z"/>
	</g>
	<g class="st7">
		<path class="st0" d="M77.1-26.4c0,0.7-0.2,1.2-0.7,1.5c-0.4,0.3-1.1,0.4-1.9,0.4H44.1c-0.9,0-1.5-0.1-2-0.4s-0.7-0.8-0.7-1.5
			c0-0.7,0.2-1.2,0.7-1.4c0.4-0.3,1.1-0.4,2-0.4h30.5c0.4,0,0.7,0,1.1,0.1s0.6,0.2,0.8,0.3c0.2,0.2,0.4,0.4,0.5,0.6
			C77.1-27,77.1-26.8,77.1-26.4z"/>
	</g>
	<rect id="rect884" x="58.9" y="-631" width="277.2" height="41.2"/>
	<rect id="rect886" x="68.5" y="-807.7" width="258.1" height="202.9"/>
	
		<path id="path888" sodipodi:cx="224.49289" sodipodi:cy="783.07111" sodipodi:end="3.1415927" sodipodi:rx="146.6366" sodipodi:ry="146.10683" sodipodi:start="0" sodipodi:type="arc" d="
		M326.5-802.1c0-45.9-24.6-88.3-64.5-111.3s-89.1-23-129,0S68.5-848,68.5-802.1h129H326.5z"/>
	<path id="path3796" inkscape:connector-curvature="0" class="st4" d="M284.3-597.9h7v352.7h-7V-597.9z"/>
	<path id="path3794" inkscape:connector-curvature="0" class="st4" d="M184-597.9h7v352.7h-7V-597.9z"/>
	<path id="rect74" inkscape:connector-curvature="0" class="st4" d="M96.1-597.9h7v352.7h-7V-597.9z"/>
	<path id="rect3800" inkscape:connector-curvature="0" class="st8" d="M194.9-916.7c-19.9,0.5-39.3,5.9-56.6,15.9
		c-36.6,21.1-59.2,60.1-59.4,102.4h0v0.5v174.6h-8.8v26.4h255.1v-26.4h-8.8V-798v-0.5h0c-0.2-42.3-22.8-81.2-59.4-102.4
		C238.2-911.8,216.7-917.3,194.9-916.7z"/>
</g>
</svg>
