<?xml version="1.0" encoding="utf-8"?>
<!-- Generator: Adobe Illustrator 27.8.0, SVG Export Plug-In . SVG Version: 6.00 Build 0)  -->
<svg version="1.1"
	 id="svg8" xmlns:svg="http://www.w3.org/2000/svg" xmlns:rdf="http://www.w3.org/1999/02/22-rdf-syntax-ns#" xmlns:sodipodi="http://sodipodi.sourceforge.net/DTD/sodipodi-0.dtd" xmlns:dc="http://purl.org/dc/elements/1.1/" xmlns:inkscape="http://www.inkscape.org/namespaces/inkscape" xmlns:cc="http://creativecommons.org/ns#" inkscape:export-xdpi="93" inkscape:export-ydpi="93" inkscape:version="0.92.4 (5da689c313, 2019-01-14)"
	 xmlns="http://www.w3.org/2000/svg" xmlns:xlink="http://www.w3.org/1999/xlink" x="0px" y="0px" viewBox="0 0 612 1081"
	 style="enable-background:new 0 0 612 1081;" xml:space="preserve">
<style type="text/css">
	.st0{fill:#FFFFFF;}
	.st1{fill:#1A1A1A;}
	.st2{opacity:0.99;enable-background:new    ;}
	.st3{fill:#CCCCCC;}
	.st4{opacity:0.99;fill:#808080;enable-background:new    ;}
	.st5{opacity:0.99;fill:#CCCCCC;enable-background:new    ;}
	.st6{opacity:0.99;fill:#FFFFFF;enable-background:new    ;}
	.st7{fill:#333333;}
	.st8{enable-background:new    ;}
</style>
<defs>
	
		<inkscape:perspective  id="perspective876" inkscape:persp3d-origin="105 : 98.999999 : 1" inkscape:vp_x="0 : 148.50001 : 1" inkscape:vp_y="0 : 999.99998 : 0" inkscape:vp_z="210.00001 : 148.50001 : 1" sodipodi:type="inkscape:persp3d">
		</inkscape:perspective>
</defs>
<sodipodi:namedview  bordercolor="#666666" borderopacity="1.0" id="base" inkscape:current-layer="layer1" inkscape:cx="1032.385" inkscape:cy="1528.206" inkscape:document-units="mm" inkscape:lockguides="true" inkscape:pageopacity="0.0" inkscape:pageshadow="2" inkscape:window-height="987" inkscape:window-maximized="1" inkscape:window-width="1680" inkscape:window-x="1912" inkscape:window-y="-8" inkscape:zoom="0.25000001" pagecolor="#ffffff" showgrid="false" showguides="true" width="500mm">
	</sodipodi:namedview>
<g id="layer1" transform="translate(0.31582593,497.81107)" inkscape:groupmode="layer" inkscape:label="Ebene 1">
	<rect id="rect815" x="-0.3" y="-428.4" width="612.6" height="823.2"/>
	<rect id="rect821" x="144.6" y="260.8" class="st0" width="318.7" height="109.7"/>
	<path id="rect825" class="st1" d="M165.5,267h63.9c11.1,0,20.2,9,20.2,20.2v56c0,11.1-9,20.2-20.2,20.2h-63.9
		c-11.1,0-20.2-9-20.2-20.2v-56C145.3,276,154.3,267,165.5,267z"/>
	<rect id="rect831" x="85.8" y="31.8" class="st0" width="436.1" height="109.7"/>
	<rect id="rect833" x="85.8" y="-82.8" class="st0" width="436.1" height="109.7"/>
	<rect id="rect837" x="85.8" y="-197.3" class="st0" width="436.1" height="109.7"/>
	<path id="rect872" class="st1" d="M378.4,267h63.9c11.1,0,20.2,9,20.2,20.2v56c0,11.1-9,20.2-20.2,20.2h-63.9
		c-11.1,0-20.2-9-20.2-20.2v-56C358.2,276,367.2,267,378.4,267z"/>
	<path id="rect874" class="st1" d="M269.3,267h69.1c9.7,0,17.6,7.9,17.6,17.6v61.2c0,9.7-7.9,17.6-17.6,17.6h-69.1
		c-9.7,0-17.6-7.9-17.6-17.6v-61.2C251.7,274.9,259.6,267,269.3,267z"/>
	<rect id="rect892" x="91.8" y="35.1" class="st2" width="426.9" height="101.3"/>
	<path id="rect836" class="st3" d="M142.5,35.1h26.1c28,0,50.6,22.7,50.6,50.6l0,0c0,28-22.7,50.6-50.6,50.6h-26.1
		c-28,0-50.6-22.7-50.6-50.6l0,0C91.8,57.8,114.5,35.1,142.5,35.1z"/>
	<rect id="rect850" x="227.6" y="35.1" class="st3" width="127.3" height="101.3"/>
	<rect id="rect892-7" x="90.5" y="-78.9" class="st2" width="426.9" height="101.3"/>
	<rect id="rect892-72" x="90.4" y="-192.7" class="st2" width="426.9" height="101.3"/>
	<path id="rect836-7" class="st3" d="M141.2-78H167c27.8,0,50.3,22.5,50.3,50.3l0,0c0,27.8-22.5,50.3-50.3,50.3h-25.8
		c-27.8,0-50.3-22.5-50.3-50.3l0,0C90.8-55.5,113.4-78,141.2-78z"/>
	<path id="rect836-6" class="st3" d="M277.1-78H303c27.8,0,50.3,22.5,50.3,50.3l0,0c0,27.8-22.5,50.3-50.3,50.3h-25.8
		c-27.8,0-50.3-22.5-50.3-50.3l0,0C226.8-55.5,249.3-78,277.1-78z"/>
	<path id="rect939" class="st3" d="M277.7-193.7h26.1c28,0,50.6,22.7,50.6,50.6l0,0c0,28-22.7,50.6-50.6,50.6h-26.1
		c-28,0-50.6-22.7-50.6-50.6l0,0C227-171,249.7-193.7,277.7-193.7z"/>
	<path id="rect941" class="st3" d="M140.4-193.7h26.1c28,0,50.6,22.7,50.6,50.6l0,0c0,28-22.7,50.6-50.6,50.6h-26.1
		c-28,0-50.6-22.7-50.6-50.6l0,0C89.7-171,112.4-193.7,140.4-193.7z"/>
	<rect id="rect943" x="375" y="-75.7" class="st3" width="140.6" height="95.2"/>
	<rect id="rect945" x="375" y="-189.8" class="st3" width="140.6" height="95.2"/>
	<rect id="rect947" x="191.5" y="319.5" class="st4" width="11.6" height="201.1"/>
	<rect id="rect949" x="298.6" y="319.5" class="st4" width="11.6" height="201.1"/>
	<rect id="rect951" x="404.4" y="319.5" class="st4" width="11.6" height="201.1"/>
	<g id="flowRoot969" transform="translate(0,-45.495986)">
	</g>
	<ellipse id="path1456" class="st5" cx="85.6" cy="-256.7" rx="55.9" ry="54.7"/>
	<ellipse id="ellipse1458" class="st5" cx="521.6" cy="-256.7" rx="55.9" ry="54.7"/>
	<ellipse id="path1460" class="st6" cx="85.6" cy="-257" rx="50.4" ry="49.3"/>
	<ellipse id="ellipse1464" class="st6" cx="521.4" cy="-257" rx="50.4" ry="49.3"/>
	<g id="flowRoot1466" transform="translate(0,-45.495986)">
	</g>
	<circle id="circle1504" class="st6" cx="154.7" cy="85.8" r="47.6"/>
	<circle id="circle1510" class="st6" cx="290" cy="85.8" r="47.6"/>
	<g id="flowRoot1529" transform="translate(0,-45.495986)">
	</g>
	
		<ellipse id="circle77" transform="matrix(9.853762e-02 -0.9951 0.9951 9.853762e-02 281.1621 24.3604)" class="st6" cx="154" cy="-143" rx="47.6" ry="47.6"/>
	<circle id="circle79" class="st6" cx="290" cy="-143" r="47.6"/>
	<circle id="circle81" class="st6" cx="445.1" cy="-142.2" r="40.8"/>
	<path id="path31-1" inkscape:connector-curvature="0" class="st0" d="M173.8-364.1c3.8-0.1,4.2-0.1,4.9-0.6c0.4-0.3,1-0.8,1.2-1.2
		c0.4-0.7,0.4-1.2,0.5-8.9l0.1-8.2l8.1,0l8.1,0v10.2c0,11.3-0.1,12.3-1.3,15.3c-1.5,3.9-3.8,5.7-8.4,6.7c-1.2,0.3-2.7,0.3-7.4,0.3
		c-3.2,0-6.7-0.1-7.8-0.2l-2-0.2l-0.1-6.7l-0.1-6.7L173.8-364.1L173.8-364.1z M250.9-341.2c69.1,0,86,0.1,83.2,0.4l-0.4,0l0.4,0.2
		c0.4,0.2,0.3,0.2-0.3,0.2c-0.5,0-0.3,0.1,0.7,0.2l1.4,0.1l-1.4,0.1c-0.8,0-1.3,0.1-1,0.2c0.3,0.1,0.4,0.4,0.4,1.9
		c0,1.8,0,1.8,0.6,1.9c0.4,0.1,0.3,0.1-0.3,0.1c-0.5,0-0.9,0.1-0.9,0.3c0,0.1-27.4,0.2-81.7,0.2h-81.7v-2.9v-2.9L250.9-341.2z
		 M188.7-404.1h8.2v6.6v6.6h-8.2h-8.2v-6.6v-6.6H188.7z M205.1-379.6c0.6-3.7,1.6-7.1,3.1-10c0.5-1.1,1.1-2,1.1-2.1
		c0.1-0.1,0.5-0.6,0.9-1.3c0.8-1.3,2.8-3.7,3.2-4c0.2-0.1,0.3-0.3,0.3-0.4c0-0.3,2-2.1,3.6-3.3c1.7-1.2,3-1.9,6.1-3
		c3.5-1.3,5.6-1.6,9.8-1.5c3.1,0.1,3.8,0.2,5.7,0.8c1.2,0.4,2.7,0.9,3.3,1.1c0.6,0.2,1.2,0.5,1.3,0.5c0.1,0,1,0.5,2,1
		c3.9,2.3,9.2,8.3,11.3,12.8c3.2,7.1,3.6,14.1,1.2,20.7c-1,2.8-1.8,4.3-3,6.3c-1.4,2.2-1.5,2.4-4.8,5.7c-3.8,3.8-6.6,5.4-11.6,6.8
		c-2.6,0.7-7.6,1-10.3,0.5c-3.5-0.5-8.2-2.5-11.1-4.7c-1.5-1.1-3.5-2.9-3.5-3.1c0-0.1-0.5-0.6-1.1-1.2c-2.9-3-6-8.8-7.1-13.7
		C205.2-373.5,204.9-378.3,205.1-379.6L205.1-379.6z M220.7-372.7c0.8,3.1,2.4,5.7,4.8,8c2.5,2.3,6.4,3.2,9.7,2.2
		c3.7-1.1,7.4-5.5,8.6-10.1c0.7-2.7,0.6-6.6-0.1-9.1c-1.1-3.7-3-6.5-5.7-8.5c-1.2-0.9-1.8-1.1-3.1-1.4c-2.8-0.5-5.6-0.2-7.6,0.8
		c-1.7,0.9-4,3.4-5.2,5.9C220.2-381.2,219.7-376.8,220.7-372.7L220.7-372.7z M266.6-404c0.1-0.1,3.8-0.1,8.2,0l7.9,0.1l0,7.3
		c0,6.9,0.1,7.4,0.5,8.6c1.2,3.1,4.9,4.8,8.2,3.7c1.7-0.6,2.8-1.5,3.6-3.1l0.7-1.4l0.1-7.6l0.1-7.6h8.2h8.2l-0.1,8.5
		c-0.1,7.9-0.1,8.7-0.6,10.3c-0.9,3.3-2.4,6.2-4.3,8.4c-0.5,0.6-0.9,1.1-0.9,1.2c0,0.3-2.1,2.1-3.9,3.5c-1.6,1.1-3.8,2.3-4.8,2.5
		c-0.3,0.1-1.5,0.4-2.5,0.7c-1.7,0.5-2.2,0.6-5.8,0.6c-3.7,0-4.1,0-6.2-0.6c-3.2-0.9-4.3-1.4-6.5-2.8c-2.4-1.6-4.5-3.6-6.2-6.2
		c-2.4-3.6-3.4-6.2-3.9-10.4C266.2-390.9,266.2-403.9,266.6-404L266.6-404z M289.3-363.8h13.3v6.9v6.9h-13.3H276v-6.9v-6.9H289.3z
		 M312.1-414.5c0.1,0,0.2-0.4,0.2-0.8c0-0.8,0-0.8,1-1c0.6-0.1,23.2-0.1,50.2-0.1l49.2,0l-0.1,2.9l-0.1,2.9h-50
		c-27.5,0-50.2-0.1-50.4-0.1c-0.3-0.1-0.3-0.5-0.3-2C311.9-413.8,312-414.5,312.1-414.5L312.1-414.5z M334.6-381.7h17v6.7v6.7h-17
		h-17v-6.7v-6.7H334.6z M365.1-404.1h8.2v6.6v6.6h-8.2h-8.2v-6.6v-6.6H365.1z M365.1-383.8h8.2v17.2v17.2h-8.2h-8.2v-17.2v-17.2
		L365.1-383.8z M397.6-404.1h17.1v6.6v6.6h-17.1h-17.1v-6.6v-6.6H397.6z M383.3-382.9c0.1-0.1,3.7-0.1,8-0.1l7.8,0l0.1,7.9
		c0.1,11-0.4,10.4,8,10.6l5.2,0.1v6.9v6.9l-1.9,0.2c-2.9,0.4-12.3,0.3-14.8-0.1c-4.3-0.7-7.2-2-9-4.3c-2-2.3-2.9-4.7-3.3-8.5
		C383.1-365.7,383.1-382.7,383.3-382.9L383.3-382.9z M424.2-410.6c0.4-1.4,1.2-2.8,2.1-3.6c3.7-3.2,8.1-3.6,11.8-0.9
		c1.7,1.3,2.1,1.7,2.9,3.3c0.6,1.2,0.6,1.5,0.6,3.6c0,2.1-0.1,2.4-0.6,3.7c-1.2,2.7-4.4,4.8-7.4,5c-2.9,0.2-5-0.6-7.3-2.8
		C424.3-404.3,423.4-407.7,424.2-410.6L424.2-410.6z M425.9-405c0.7,1.8,3.1,3.5,5.4,4.1c2.4,0.6,4.2,0.1,6.9-1.9
		c0.6-0.5,1.1-1.1,1.6-2.1c0.6-1.3,0.7-1.7,0.7-3.4c0-1.7-0.1-2-0.8-3.4c-0.6-1.2-1-1.7-2.1-2.4c-0.7-0.5-1.8-1.1-2.4-1.3
		c-3.7-1.3-8.2,0.8-9.7,4.4C425-409.6,425.1-406.6,425.9-405L425.9-405z M431.9-413.4c1.7,0,3.3,0.1,3.6,0.2c1.3,0.5,1.9,3,1,4.2
		c-0.2,0.3-0.8,0.7-1.2,0.8l-0.8,0.3l0.8,0.8c0.4,0.5,1.1,1.4,1.4,2c0.4,0.7,0.8,1.3,0.9,1.3c0.5,0.3,0.1,0.5-0.7,0.5l-0.9,0
		l-1.3-2.1c-1.4-2.2-1.8-2.5-3.3-2.5h-1v2.3v2.3l-0.7-0.1l-0.7-0.1l-0.1-5.1l-0.1-5.1L431.9-413.4z M432.3-409.1
		c1.6,0,2-0.1,2.5-0.5c1.2-0.9,0.5-2.5-1.2-2.7c-0.7-0.1-2.8,0-3.2,0.1c0,0-0.1,0.7-0.1,1.5v1.5L432.3-409.1z"/>
	<rect id="rect92" x="375" y="38.6" class="st3" width="140.6" height="95.2"/>
	<circle id="circle1514" class="st6" cx="445.1" cy="86.2" r="40.8"/>
	<circle id="circle82" class="st6" cx="154" cy="-27.5" r="47.6"/>
	<g id="flowRoot95" transform="matrix(0.26458333,0,0,0.26458333,-0.31582593,-698.30706)">
	</g>
	<rect id="rect105" x="443.7" y="-48.4" class="st4" width="11.6" height="34"/>
	<rect id="rect107" x="284.6" y="-48.4" class="st4" width="11.6" height="34"/>
	<rect id="rect103" x="261.6" y="-490" class="st7" width="231.2" height="462.3"/>
	<g class="st8">
		<path d="M146.3,531.8c0,0.4,0,0.8-0.1,1.2c0,0.3-0.1,0.6-0.2,0.8c-0.1,0.2-0.2,0.4-0.3,0.5c-0.1,0.1-0.3,0.1-0.5,0.1
			c-0.3,0-0.7-0.2-1.4-0.7s-1.5-0.9-2.6-1.5c-1.1-0.5-2.4-1-3.9-1.5c-1.5-0.4-3.3-0.7-5.4-0.7c-2.5,0-4.7,0.5-6.7,1.4
			c-2,0.9-3.6,2.1-5,3.7c-1.4,1.6-2.4,3.5-3.1,5.7c-0.7,2.2-1.1,4.6-1.1,7.1c0,2.9,0.4,5.4,1.2,7.6s1.9,4.1,3.3,5.6
			c1.4,1.5,3.1,2.7,5,3.5c2,0.8,4.1,1.2,6.4,1.2c1.4,0,2.8-0.2,4.2-0.5c1.4-0.3,2.7-0.8,4-1.5v-13.1h-10.4c-0.4,0-0.7-0.2-0.9-0.6
			c-0.2-0.4-0.3-1-0.3-1.8c0-0.4,0-0.8,0.1-1.1c0-0.3,0.1-0.6,0.2-0.8c0.1-0.2,0.2-0.3,0.4-0.4c0.1-0.1,0.3-0.1,0.5-0.1h14.2
			c0.3,0,0.5,0,0.8,0.1c0.3,0.1,0.5,0.2,0.7,0.4c0.2,0.2,0.4,0.4,0.5,0.8c0.1,0.3,0.2,0.7,0.2,1.1v17.1c0,0.6-0.1,1.1-0.3,1.6
			s-0.6,0.8-1.3,1.2c-0.7,0.3-1.5,0.7-2.6,1.1c-1.1,0.4-2.2,0.7-3.3,1c-1.1,0.3-2.3,0.5-3.4,0.6c-1.2,0.1-2.3,0.2-3.4,0.2
			c-3.5,0-6.6-0.5-9.3-1.6c-2.7-1.1-5-2.6-6.9-4.6c-1.9-2-3.3-4.4-4.3-7.1s-1.5-5.9-1.5-9.3c0-3.6,0.5-6.8,1.6-9.7
			c1.1-2.9,2.6-5.3,4.5-7.4c2-2,4.3-3.6,7-4.7c2.7-1.1,5.8-1.7,9.1-1.7c1.7,0,3.3,0.2,4.8,0.5c1.5,0.3,2.8,0.7,4,1.1
			s2.1,0.8,2.9,1.3s1.3,0.9,1.6,1.2c0.3,0.3,0.5,0.6,0.6,1C146.2,530.5,146.3,531.1,146.3,531.8z"/>
		<path d="M191.2,568.1c0,0.5-0.1,0.9-0.2,1.2s-0.4,0.6-0.6,0.8c-0.3,0.2-0.5,0.4-0.8,0.5c-0.3,0.1-0.6,0.1-0.9,0.1h-2
			c-0.6,0-1.2-0.1-1.6-0.2c-0.5-0.1-0.9-0.4-1.3-0.7s-0.8-0.8-1.3-1.4s-0.9-1.3-1.3-2.2l-13.7-25.5c-0.7-1.3-1.4-2.7-2.2-4.1
			c-0.7-1.4-1.4-2.8-2-4.2h-0.1c0,1.7,0.1,3.4,0.1,5.1c0,1.7,0,3.5,0,5.2v27.1c0,0.2,0,0.3-0.1,0.5c-0.1,0.2-0.3,0.3-0.5,0.3
			c-0.2,0.1-0.5,0.2-0.9,0.2s-0.9,0.1-1.4,0.1c-0.6,0-1.1,0-1.4-0.1s-0.7-0.1-0.9-0.2c-0.2-0.1-0.4-0.2-0.5-0.3s-0.1-0.3-0.1-0.5
			v-41.4c0-0.9,0.3-1.6,0.8-2c0.5-0.4,1.1-0.6,1.7-0.6h2.9c0.7,0,1.3,0.1,1.7,0.2s0.9,0.3,1.3,0.6s0.7,0.6,1.1,1.1
			c0.3,0.5,0.7,1.1,1.1,1.8l10.5,19.7c0.6,1.2,1.3,2.4,1.9,3.5c0.6,1.1,1.2,2.3,1.7,3.4c0.6,1.1,1.1,2.2,1.7,3.3s1.1,2.2,1.6,3.2h0
			c0-1.8-0.1-3.7-0.1-5.7c0-2,0-3.9,0-5.7v-24.3c0-0.2,0-0.3,0.1-0.5s0.3-0.3,0.5-0.4c0.2-0.1,0.5-0.2,0.9-0.2
			c0.4,0,0.9-0.1,1.5-0.1c0.5,0,1,0,1.4,0.1c0.4,0,0.7,0.1,0.9,0.2c0.2,0.1,0.4,0.2,0.5,0.4s0.1,0.3,0.1,0.5V568.1z"/>
		<path d="M237.6,547.5c0,3.9-0.5,7.3-1.5,10.2s-2.4,5.3-4.3,7.2s-4.2,3.3-7,4.3c-2.8,0.9-6.1,1.4-9.9,1.4h-9.5
			c-0.5,0-1-0.2-1.5-0.5c-0.5-0.4-0.7-1-0.7-1.9v-40c0-0.9,0.2-1.5,0.7-1.9c0.5-0.4,1-0.5,1.5-0.5h10.2c3.9,0,7.2,0.5,9.8,1.5
			c2.7,1,4.9,2.4,6.7,4.3c1.8,1.9,3.2,4.2,4.1,6.8C237.2,541.1,237.6,544.1,237.6,547.5z M231.4,547.7c0-2.4-0.3-4.7-0.9-6.8
			c-0.6-2.1-1.5-3.9-2.8-5.4c-1.3-1.5-2.9-2.7-4.9-3.6c-2-0.9-4.5-1.3-7.6-1.3h-6.1v34.9h6.1c2.9,0,5.3-0.4,7.2-1.1
			c2-0.7,3.6-1.8,4.9-3.3c1.3-1.5,2.3-3.3,3-5.6C231,553.4,231.4,550.8,231.4,547.7z"/>
	</g>
	<g class="st8">
		<path d="M405.2,558c0,2.1-0.4,4-1.2,5.6c-0.8,1.6-1.8,3-3.2,4.2c-1.4,1.1-3,2-4.8,2.6c-1.9,0.6-3.9,0.9-6,0.9
			c-1.5,0-2.9-0.1-4.2-0.4c-1.3-0.3-2.4-0.6-3.4-0.9c-1-0.4-1.8-0.8-2.5-1.1c-0.7-0.4-1.2-0.7-1.4-1c-0.3-0.3-0.5-0.6-0.6-1.1
			c-0.1-0.4-0.2-1-0.2-1.7c0-0.5,0-0.9,0.1-1.3c0-0.3,0.1-0.6,0.2-0.8c0.1-0.2,0.2-0.4,0.3-0.4c0.1-0.1,0.3-0.1,0.5-0.1
			c0.3,0,0.8,0.2,1.4,0.6c0.6,0.4,1.3,0.8,2.3,1.3s2,0.9,3.3,1.3s2.8,0.6,4.5,0.6c1.3,0,2.5-0.2,3.6-0.5c1.1-0.3,2-0.8,2.8-1.5
			c0.8-0.6,1.4-1.4,1.8-2.3c0.4-0.9,0.6-2,0.6-3.2c0-1.3-0.3-2.4-0.9-3.3c-0.6-0.9-1.3-1.7-2.3-2.4c-0.9-0.7-2-1.3-3.2-1.9
			c-1.2-0.6-2.5-1.1-3.7-1.7c-1.3-0.6-2.5-1.2-3.7-2c-1.2-0.7-2.3-1.6-3.2-2.5c-0.9-1-1.7-2.1-2.3-3.4s-0.9-2.9-0.9-4.7
			c0-1.9,0.3-3.5,1-5c0.7-1.5,1.6-2.7,2.8-3.7c1.2-1,2.7-1.7,4.3-2.3c1.7-0.5,3.5-0.8,5.4-0.8c1,0,2,0.1,3,0.3c1,0.2,2,0.4,2.8,0.7
			c0.9,0.3,1.7,0.6,2.4,1c0.7,0.4,1.1,0.6,1.4,0.9s0.4,0.4,0.4,0.5s0.1,0.3,0.2,0.5c0,0.2,0.1,0.4,0.1,0.7c0,0.3,0,0.6,0,1.1
			c0,0.4,0,0.8-0.1,1.1c0,0.3-0.1,0.6-0.2,0.8c-0.1,0.2-0.2,0.4-0.3,0.5c-0.1,0.1-0.3,0.2-0.4,0.2c-0.3,0-0.7-0.2-1.2-0.5
			s-1.2-0.7-2-1.1c-0.8-0.4-1.7-0.8-2.8-1.1c-1.1-0.3-2.3-0.5-3.6-0.5c-1.2,0-2.3,0.2-3.3,0.5c-0.9,0.3-1.7,0.8-2.3,1.3
			c-0.6,0.6-1.1,1.2-1.4,2c-0.3,0.8-0.5,1.6-0.5,2.4c0,1.2,0.3,2.3,0.9,3.2c0.6,0.9,1.3,1.7,2.3,2.4c1,0.7,2,1.3,3.3,1.9
			c1.2,0.6,2.5,1.2,3.7,1.8c1.3,0.6,2.5,1.2,3.7,1.9c1.2,0.7,2.3,1.5,3.3,2.5c1,1,1.7,2.1,2.3,3.4S405.2,556.2,405.2,558z"/>
		<path d="M419.5,528c0,1.3-0.3,2.3-0.8,2.7c-0.5,0.5-1.4,0.7-2.8,0.7c-1.3,0-2.3-0.2-2.8-0.7c-0.5-0.5-0.7-1.4-0.7-2.7
			c0-1.3,0.3-2.3,0.8-2.7c0.5-0.5,1.4-0.7,2.8-0.7c1.3,0,2.3,0.2,2.8,0.7C419.2,525.8,419.5,526.7,419.5,528z M418.8,569.7
			c0,0.2,0,0.3-0.1,0.5c-0.1,0.1-0.2,0.2-0.5,0.3s-0.5,0.2-0.9,0.2c-0.4,0-0.8,0.1-1.4,0.1c-0.6,0-1,0-1.4-0.1
			c-0.4,0-0.7-0.1-0.9-0.2s-0.4-0.2-0.5-0.3s-0.1-0.3-0.1-0.5v-31.2c0-0.2,0-0.3,0.1-0.5s0.2-0.3,0.5-0.3c0.2-0.1,0.5-0.2,0.9-0.2
			c0.4,0,0.8-0.1,1.4-0.1c0.6,0,1.1,0,1.4,0.1s0.7,0.1,0.9,0.2c0.2,0.1,0.4,0.2,0.5,0.3c0.1,0.1,0.1,0.3,0.1,0.5V569.7z"/>
		<path d="M455.4,539.9c0,0.8-0.1,1.4-0.3,1.7c-0.2,0.4-0.5,0.5-0.8,0.5h-4.5c0.8,0.8,1.4,1.7,1.7,2.8s0.5,2,0.5,3.1
			c0,1.8-0.3,3.4-0.9,4.8s-1.4,2.6-2.5,3.5c-1.1,1-2.4,1.7-3.8,2.2c-1.5,0.5-3.1,0.8-4.9,0.8c-1.3,0-2.5-0.2-3.6-0.5
			c-1.1-0.3-2-0.8-2.6-1.3c-0.4,0.4-0.8,0.9-1,1.4s-0.4,1.1-0.4,1.8c0,0.8,0.4,1.5,1.1,2c0.8,0.5,1.8,0.8,3,0.9l8.1,0.3
			c1.5,0,3,0.3,4.3,0.6c1.3,0.4,2.4,0.9,3.4,1.6c0.9,0.7,1.7,1.6,2.2,2.6s0.8,2.2,0.8,3.6c0,1.4-0.3,2.8-0.9,4.1
			c-0.6,1.3-1.5,2.4-2.8,3.4c-1.2,1-2.8,1.8-4.7,2.3c-1.9,0.6-4.2,0.8-6.8,0.8c-2.5,0-4.7-0.2-6.4-0.6c-1.8-0.4-3.2-1-4.3-1.7
			c-1.1-0.7-2-1.6-2.5-2.7s-0.8-2.1-0.8-3.3c0-0.8,0.1-1.5,0.3-2.2c0.2-0.7,0.5-1.4,0.8-2s0.9-1.3,1.4-1.9c0.6-0.6,1.2-1.2,2-1.7
			c-1.1-0.6-2-1.3-2.5-2.2c-0.5-0.9-0.8-1.8-0.8-2.8c0-1.4,0.3-2.7,0.9-3.8c0.6-1.1,1.3-2.1,2.1-3c-0.7-0.9-1.3-1.8-1.7-2.9
			c-0.4-1.1-0.6-2.4-0.6-3.9c0-1.8,0.3-3.4,0.9-4.8c0.6-1.4,1.4-2.6,2.5-3.6c1.1-1,2.3-1.7,3.8-2.2c1.5-0.5,3.1-0.8,4.9-0.8
			c0.9,0,1.8,0.1,2.7,0.2c0.8,0.1,1.6,0.2,2.3,0.4h9.4c0.4,0,0.7,0.2,0.9,0.6C455.3,538.6,455.4,539.1,455.4,539.9z M449.4,572.8
			c0-1.3-0.5-2.4-1.6-3.1c-1.1-0.7-2.6-1.1-4.5-1.2l-8.1-0.3c-0.7,0.6-1.3,1.1-1.8,1.6s-0.8,1-1.1,1.5c-0.3,0.5-0.5,0.9-0.6,1.4
			s-0.2,0.9-0.2,1.4c0,1.5,0.8,2.6,2.3,3.4c1.5,0.8,3.6,1.2,6.4,1.2c1.7,0,3.2-0.2,4.3-0.5s2.1-0.8,2.8-1.3c0.7-0.6,1.2-1.2,1.5-1.9
			C449.2,574.4,449.4,573.6,449.4,572.8z M446.5,548.1c0-2.1-0.6-3.8-1.7-5c-1.2-1.2-2.8-1.8-5-1.8c-1.1,0-2.1,0.2-2.9,0.6
			c-0.8,0.4-1.5,0.9-2,1.5c-0.5,0.6-0.9,1.4-1.2,2.2c-0.3,0.8-0.4,1.7-0.4,2.7c0,2.1,0.6,3.7,1.7,4.8s2.8,1.8,4.9,1.8
			c1.1,0,2.1-0.2,2.9-0.5c0.8-0.4,1.5-0.9,2.1-1.5c0.5-0.6,0.9-1.4,1.2-2.2S446.5,549,446.5,548.1z"/>
		<path d="M489.6,569.7c0,0.2,0,0.3-0.1,0.5c-0.1,0.1-0.2,0.2-0.5,0.3s-0.5,0.2-0.9,0.2c-0.4,0-0.8,0.1-1.4,0.1
			c-0.6,0-1.1,0-1.4-0.1c-0.4,0-0.7-0.1-0.9-0.2s-0.4-0.2-0.5-0.3c-0.1-0.1-0.1-0.3-0.1-0.5v-18.3c0-1.8-0.1-3.2-0.4-4.3
			c-0.3-1.1-0.7-2-1.2-2.8s-1.2-1.4-2.1-1.8c-0.8-0.4-1.8-0.6-2.9-0.6c-1.4,0-2.9,0.5-4.3,1.5c-1.4,1-2.9,2.5-4.5,4.5v21.8
			c0,0.2,0,0.3-0.1,0.5c-0.1,0.1-0.2,0.2-0.5,0.3s-0.5,0.2-0.9,0.2c-0.4,0-0.8,0.1-1.4,0.1c-0.6,0-1,0-1.4-0.1
			c-0.4,0-0.7-0.1-0.9-0.2s-0.4-0.2-0.5-0.3s-0.1-0.3-0.1-0.5v-31.2c0-0.2,0-0.3,0.1-0.5s0.2-0.2,0.4-0.3c0.2-0.1,0.5-0.2,0.8-0.2
			c0.3,0,0.8-0.1,1.3-0.1c0.5,0,0.9,0,1.3,0.1c0.3,0,0.6,0.1,0.8,0.2c0.2,0.1,0.3,0.2,0.4,0.3s0.1,0.3,0.1,0.5v4.1
			c1.8-2,3.5-3.4,5.2-4.3c1.7-0.9,3.5-1.4,5.3-1.4c2.1,0,3.8,0.4,5.2,1.1c1.4,0.7,2.6,1.6,3.4,2.8s1.5,2.6,1.9,4.1
			c0.4,1.6,0.6,3.5,0.6,5.7V569.7z"/>
		<path d="M523.5,569.7c0,0.3-0.1,0.5-0.3,0.6s-0.4,0.2-0.8,0.3s-0.8,0.1-1.4,0.1c-0.6,0-1.1,0-1.4-0.1c-0.4-0.1-0.6-0.2-0.8-0.3
			c-0.2-0.1-0.2-0.3-0.2-0.6v-3.1c-1.4,1.5-2.9,2.6-4.6,3.4c-1.7,0.8-3.4,1.2-5.3,1.2c-1.6,0-3.1-0.2-4.5-0.6
			c-1.3-0.4-2.5-1-3.4-1.9c-0.9-0.8-1.7-1.8-2.2-3c-0.5-1.2-0.8-2.5-0.8-4c0-1.8,0.4-3.3,1.1-4.6c0.7-1.3,1.7-2.4,3.1-3.2
			c1.3-0.9,3-1.5,4.9-1.9s4.1-0.6,6.5-0.6h4.3v-2.4c0-1.2-0.1-2.3-0.4-3.2c-0.3-0.9-0.7-1.7-1.2-2.3c-0.6-0.6-1.3-1.1-2.2-1.4
			c-0.9-0.3-2-0.5-3.3-0.5c-1.4,0-2.7,0.2-3.8,0.5s-2.1,0.7-2.9,1.1s-1.5,0.8-2.1,1.1c-0.6,0.3-1,0.5-1.3,0.5c-0.2,0-0.3,0-0.5-0.1
			c-0.1-0.1-0.3-0.2-0.4-0.4c-0.1-0.2-0.2-0.4-0.2-0.7c0-0.3-0.1-0.6-0.1-1c0-0.6,0-1,0.1-1.4c0.1-0.3,0.3-0.7,0.6-1
			c0.3-0.3,0.8-0.7,1.6-1.1c0.8-0.4,1.6-0.8,2.6-1.1c1-0.3,2.1-0.6,3.3-0.8c1.2-0.2,2.4-0.3,3.6-0.3c2.2,0,4.1,0.3,5.7,0.8
			s2.8,1.3,3.8,2.2c1,1,1.7,2.2,2.1,3.7s0.7,3.2,0.7,5.1V569.7z M517.8,555.5H513c-1.6,0-2.9,0.1-4.1,0.4c-1.2,0.3-2.1,0.7-2.9,1.2
			c-0.8,0.5-1.3,1.1-1.7,1.9c-0.4,0.7-0.5,1.6-0.5,2.5c0,1.6,0.5,2.9,1.5,3.9c1,1,2.5,1.4,4.3,1.4c1.5,0,2.9-0.4,4.2-1.1
			c1.3-0.8,2.6-1.9,4-3.5V555.5z"/>
		<path d="M539.7,569.7c0,0.2,0,0.3-0.1,0.5c-0.1,0.1-0.2,0.2-0.5,0.3s-0.5,0.2-0.9,0.2c-0.4,0-0.8,0.1-1.4,0.1c-0.6,0-1,0-1.4-0.1
			c-0.4,0-0.7-0.1-0.9-0.2s-0.4-0.2-0.5-0.3s-0.1-0.3-0.1-0.5v-46.3c0-0.2,0-0.3,0.1-0.5s0.2-0.3,0.5-0.3c0.2-0.1,0.5-0.2,0.9-0.2
			c0.4,0,0.8-0.1,1.4-0.1c0.6,0,1.1,0,1.4,0.1c0.4,0,0.7,0.1,0.9,0.2c0.2,0.1,0.4,0.2,0.5,0.3c0.1,0.1,0.1,0.3,0.1,0.5V569.7z"/>
	</g>
	<g class="st8">
		<path d="M299.7,550.6c0,0.4,0,0.8-0.1,1.1s-0.2,0.6-0.3,0.8s-0.3,0.4-0.4,0.5c-0.2,0.1-0.3,0.1-0.5,0.1H287v12.6
			c0,0.2,0,0.3-0.1,0.5c-0.1,0.1-0.2,0.2-0.4,0.3c-0.2,0.1-0.5,0.2-0.8,0.2c-0.3,0.1-0.7,0.1-1.2,0.1c-0.5,0-0.9,0-1.2-0.1
			c-0.3-0.1-0.6-0.1-0.8-0.2c-0.2-0.1-0.3-0.2-0.4-0.3c-0.1-0.1-0.1-0.3-0.1-0.5v-12.6h-11.4c-0.2,0-0.4,0-0.5-0.1
			c-0.2-0.1-0.3-0.2-0.4-0.5s-0.2-0.5-0.3-0.8c-0.1-0.3-0.1-0.7-0.1-1.1c0-0.4,0-0.8,0.1-1.1c0.1-0.3,0.2-0.6,0.3-0.8
			s0.2-0.4,0.4-0.5c0.2-0.1,0.3-0.1,0.5-0.1h11.4v-12.6c0-0.2,0-0.4,0.1-0.5c0.1-0.2,0.2-0.3,0.4-0.4c0.2-0.1,0.5-0.2,0.8-0.2
			c0.3-0.1,0.7-0.1,1.2-0.1c0.5,0,0.9,0,1.2,0.1s0.6,0.1,0.8,0.2c0.2,0.1,0.3,0.2,0.4,0.4c0.1,0.2,0.1,0.3,0.1,0.5v12.6h11.4
			c0.2,0,0.4,0,0.5,0.1c0.2,0.1,0.3,0.2,0.4,0.5s0.2,0.5,0.3,0.8C299.6,549.8,299.7,550.2,299.7,550.6z"/>
		<path d="M326.2,569.5c-0.1,0.3-0.2,0.5-0.4,0.6c-0.2,0.2-0.4,0.3-0.7,0.4c-0.3,0.1-0.7,0.2-1.1,0.2c-0.5,0-1,0.1-1.7,0.1
			c-0.5,0-1,0-1.3,0s-0.7,0-1-0.1c-0.3,0-0.5-0.1-0.7-0.2c-0.2-0.1-0.4-0.1-0.5-0.2c-0.1-0.1-0.2-0.2-0.3-0.3
			c-0.1-0.1-0.2-0.3-0.2-0.5l-14.7-41.6c-0.2-0.5-0.3-0.9-0.3-1.2c0-0.3,0.1-0.5,0.3-0.7s0.5-0.3,1-0.3c0.5,0,1.1-0.1,1.9-0.1
			c0.6,0,1.2,0,1.5,0.1c0.4,0,0.7,0.1,0.9,0.2c0.2,0.1,0.4,0.2,0.5,0.4c0.1,0.2,0.2,0.3,0.3,0.6l12.9,37.7h0l12.5-37.7
			c0.1-0.3,0.1-0.5,0.2-0.6c0.1-0.2,0.3-0.3,0.5-0.4c0.2-0.1,0.6-0.2,1-0.2c0.4,0,1-0.1,1.7-0.1c0.7,0,1.3,0,1.7,0.1
			c0.4,0.1,0.7,0.2,0.8,0.3c0.1,0.2,0.2,0.4,0.2,0.7c0,0.3-0.1,0.7-0.3,1.2L326.2,569.5z"/>
	</g>
	<g class="st8">
		<path class="st0" d="M603-6c0.2,0,0.4,0,0.6,0.1c0.2,0.1,0.3,0.3,0.4,0.6c0.1,0.3,0.2,0.7,0.3,1.1c0.1,0.5,0.1,1.1,0.1,1.9
			c0,1,0,1.8-0.1,2.4c-0.1,0.6-0.2,1.1-0.5,1.4s-0.5,0.6-0.8,0.8l-27.3,20.1H603c0.2,0,0.4,0.1,0.6,0.2c0.2,0.1,0.3,0.3,0.4,0.6
			c0.1,0.3,0.2,0.7,0.3,1.1s0.1,1,0.1,1.8c0,0.7,0,1.3-0.1,1.7s-0.2,0.9-0.3,1.1c-0.1,0.3-0.2,0.5-0.4,0.6c-0.2,0.1-0.4,0.2-0.6,0.2
			h-52.4c-0.2,0-0.4-0.1-0.6-0.2c-0.2-0.1-0.3-0.3-0.4-0.6c-0.1-0.3-0.2-0.7-0.3-1.1c-0.1-0.5-0.1-1.1-0.1-1.7c0-0.7,0-1.3,0.1-1.8
			c0.1-0.5,0.2-0.8,0.3-1.1c0.1-0.3,0.2-0.5,0.4-0.6c0.2-0.1,0.4-0.2,0.6-0.2h24.2L550.7,3c-0.3-0.2-0.5-0.4-0.6-0.6
			c-0.2-0.2-0.3-0.5-0.4-0.8c-0.1-0.3-0.2-0.7-0.2-1.2s-0.1-1.1-0.1-1.8c0-0.7,0-1.3,0.1-1.8c0.1-0.4,0.2-0.8,0.3-1.1
			c0.1-0.3,0.3-0.4,0.4-0.5c0.2-0.1,0.4-0.1,0.5-0.1c0.4,0,0.7,0.1,1.1,0.3c0.4,0.2,0.9,0.5,1.5,1l21.6,18.1L600.8-5
			c0.7-0.5,1.2-0.8,1.5-0.9C602.6-6,602.8-6,603-6z"/>
		<path class="st0" d="M582.9-32.7H603c0.2,0,0.4,0.1,0.6,0.2c0.2,0.1,0.3,0.3,0.4,0.6c0.1,0.3,0.2,0.7,0.3,1.1
			c0.1,0.5,0.1,1,0.1,1.7c0,0.7,0,1.3-0.1,1.7s-0.2,0.8-0.3,1.1c-0.1,0.3-0.2,0.5-0.4,0.6c-0.2,0.1-0.4,0.2-0.6,0.2h-20.1L552.2-10
			c-0.6,0.3-1.2,0.5-1.5,0.6s-0.6,0-0.8-0.2c-0.2-0.2-0.3-0.6-0.4-1.1c-0.1-0.5-0.1-1.3-0.1-2.2c0-0.8,0-1.5,0.1-2
			c0.1-0.5,0.1-0.9,0.2-1.2c0.1-0.3,0.2-0.5,0.4-0.7c0.2-0.2,0.4-0.3,0.7-0.4l15.7-7.5c1.5-0.7,3-1.4,4.7-2.1
			c1.6-0.7,3.3-1.4,4.9-2.1v-0.1c-1.6-0.6-3.2-1.3-4.8-2c-1.6-0.7-3.2-1.4-4.7-2.1l-15.8-7.6c-0.3-0.1-0.5-0.2-0.7-0.4
			c-0.2-0.2-0.3-0.4-0.4-0.6c-0.1-0.3-0.2-0.6-0.2-1.1c-0.1-0.5-0.1-1.1-0.1-1.8c0-1,0-1.8,0.1-2.4c0.1-0.6,0.2-1,0.4-1.2
			c0.2-0.2,0.5-0.3,0.8-0.2s0.9,0.3,1.5,0.6L582.9-32.7z"/>
		<path class="st0" d="M582.8-68.7c1.1,0,1.9,0.1,2.3,0.4c0.4,0.3,0.6,0.6,0.6,1.1v17.6c0,0.5-0.2,0.9-0.7,1.1s-1.2,0.4-2.3,0.4
			c-1.1,0-1.8-0.1-2.2-0.4s-0.6-0.6-0.6-1.1v-17.6c0-0.2,0-0.4,0.1-0.6c0.1-0.2,0.2-0.3,0.5-0.5c0.2-0.1,0.5-0.2,0.9-0.3
			S582.3-68.7,582.8-68.7z"/>
		<path class="st0" d="M576.7-112.4c4.2,0,8,0.3,11.5,1c3.5,0.7,6.4,1.8,8.9,3.3s4.4,3.5,5.8,6c1.4,2.5,2,5.5,2,9.1
			c0,3.4-0.6,6.3-1.8,8.7s-3,4.2-5.4,5.7c-2.4,1.4-5.3,2.5-8.8,3.1c-3.5,0.6-7.5,0.9-12,0.9c-4.2,0-8-0.3-11.4-1
			c-3.5-0.7-6.5-1.8-8.9-3.3c-2.5-1.5-4.4-3.5-5.8-6s-2-5.5-2-9.1c0-3.5,0.6-6.4,1.8-8.7c1.2-2.3,3-4.2,5.4-5.7
			c2.4-1.4,5.3-2.5,8.8-3.1C568.3-112.1,572.2-112.4,576.7-112.4z M577.2-105c-2.7,0-5.2,0.1-7.3,0.3c-2.2,0.2-4.1,0.5-5.7,0.9
			c-1.7,0.4-3.1,0.9-4.3,1.5c-1.2,0.6-2.2,1.3-3,2.2c-0.8,0.8-1.3,1.8-1.7,2.9c-0.4,1.1-0.5,2.3-0.5,3.6c0,2.4,0.6,4.3,1.7,5.8
			c1.1,1.5,2.7,2.7,4.6,3.5c2,0.9,4.3,1.4,6.9,1.7c2.6,0.3,5.5,0.5,8.5,0.5c4.1,0,7.5-0.2,10.4-0.6c2.9-0.4,5.2-1.1,7-2
			c1.8-0.9,3.1-2.1,3.9-3.5c0.8-1.4,1.2-3.1,1.2-5.2c0-1.6-0.3-3-0.8-4.2s-1.2-2.2-2.2-3.1c-0.9-0.9-2.1-1.6-3.4-2.1
			c-1.3-0.6-2.8-1-4.4-1.3c-1.6-0.3-3.3-0.6-5.2-0.7C581.2-104.9,579.3-105,577.2-105z"/>
		<path class="st0" d="M601.3-154.5c0.5,0,1,0,1.3,0.1s0.7,0.2,0.9,0.3c0.2,0.1,0.4,0.3,0.5,0.5s0.1,0.4,0.1,0.6v28.5
			c0,0.2,0,0.4-0.1,0.5c-0.1,0.2-0.3,0.3-0.5,0.5c-0.2,0.2-0.5,0.3-0.9,0.4c-0.4,0.1-0.8,0.1-1.3,0.1c-0.5,0-0.9,0-1.3-0.1
			c-0.4-0.1-0.7-0.2-0.9-0.3c-0.2-0.1-0.4-0.3-0.5-0.5c-0.1-0.2-0.2-0.4-0.2-0.6v-11.4h-41.5l6.3,10.5c0.3,0.5,0.4,1,0.5,1.3
			c0.1,0.3,0,0.6-0.2,0.8c-0.2,0.2-0.5,0.3-0.9,0.4c-0.4,0.1-1,0.1-1.6,0.1c-0.5,0-0.9,0-1.2-0.1c-0.3,0-0.6-0.1-0.8-0.2
			c-0.2-0.1-0.4-0.2-0.6-0.4c-0.2-0.2-0.3-0.4-0.5-0.6l-8.1-12.6c-0.1-0.1-0.2-0.3-0.2-0.4c-0.1-0.2-0.1-0.4-0.2-0.6
			c-0.1-0.3-0.1-0.5-0.1-0.9c0-0.3,0-0.8,0-1.3c0-0.7,0-1.2,0.1-1.7c0.1-0.4,0.1-0.8,0.2-1.1s0.2-0.4,0.4-0.5
			c0.2-0.1,0.3-0.1,0.5-0.1h47.9v-9.9c0-0.2,0.1-0.4,0.2-0.6c0.1-0.2,0.3-0.4,0.5-0.5c0.2-0.1,0.5-0.2,0.9-0.3
			C600.3-154.4,600.8-154.5,601.3-154.5z"/>
		<path class="st0" d="M552.7-198.9c0.5,0,1,0,1.4,0.1c0.4,0,0.8,0.1,1.2,0.2c0.4,0.1,0.7,0.2,1.1,0.3c0.4,0.1,0.7,0.3,1.1,0.4
			l45.3,19.6c0.3,0.1,0.6,0.3,0.8,0.5c0.2,0.2,0.4,0.5,0.5,0.8c0.1,0.3,0.2,0.7,0.3,1.2s0.1,1.1,0.1,1.9c0,1,0,1.7-0.1,2.2
			c-0.1,0.5-0.2,0.9-0.4,1.2c-0.2,0.2-0.4,0.3-0.7,0.3c-0.3,0-0.6-0.1-0.9-0.3l-46.3-20.7v26.2c0,0.5-0.3,0.9-0.8,1.2
			c-0.6,0.3-1.3,0.4-2.4,0.4c-0.5,0-1,0-1.4-0.1c-0.4-0.1-0.7-0.2-1-0.3c-0.3-0.1-0.5-0.3-0.6-0.5c-0.1-0.2-0.2-0.4-0.2-0.7v-31.8
			c0-0.4,0-0.7,0.1-1s0.3-0.5,0.5-0.7c0.3-0.2,0.6-0.3,1-0.4C551.6-198.9,552.1-198.9,552.7-198.9z"/>
	</g>
	<g class="st8">
		<path class="st0" d="M110.5,316c0,1.1-0.3,1.9-1,2.3c-0.6,0.4-1.6,0.6-2.8,0.6H62.1c-1.3,0-2.2-0.2-2.9-0.7c-0.6-0.4-1-1.2-1-2.3
			c0-1.1,0.3-1.8,1-2.2c0.6-0.4,1.6-0.6,2.9-0.6h44.7c0.6,0,1.1,0,1.6,0.1c0.5,0.1,0.9,0.2,1.2,0.5c0.3,0.2,0.6,0.5,0.7,0.9
			C110.4,315,110.5,315.5,110.5,316z"/>
	</g>
	<g class="st8">
		<path class="st0" d="M536.6,326.6c0,2.6-0.5,4.8-1.4,6.8c-0.9,2-2.2,3.7-3.9,5.1c-1.7,1.4-3.6,2.4-5.9,3.1
			c-2.3,0.7-4.7,1.1-7.3,1.1c-1.8,0-3.5-0.2-5.1-0.5c-1.6-0.3-3-0.7-4.2-1.1s-2.2-0.9-3.1-1.4c-0.8-0.5-1.4-0.9-1.7-1.2
			c-0.3-0.3-0.6-0.8-0.7-1.3c-0.2-0.5-0.2-1.2-0.2-2.1c0-0.6,0-1.1,0.1-1.5c0.1-0.4,0.1-0.7,0.3-1c0.1-0.3,0.3-0.4,0.4-0.5
			c0.2-0.1,0.4-0.1,0.6-0.1c0.4,0,0.9,0.2,1.7,0.7c0.7,0.5,1.6,1,2.8,1.6c1.1,0.6,2.5,1.1,4.1,1.6c1.6,0.5,3.4,0.7,5.5,0.7
			c1.6,0,3-0.2,4.3-0.6c1.3-0.4,2.4-1,3.4-1.8c0.9-0.8,1.7-1.7,2.2-2.8c0.5-1.1,0.8-2.4,0.8-3.8c0-1.5-0.4-2.9-1.1-4
			c-0.7-1.1-1.6-2.1-2.8-2.9c-1.2-0.8-2.5-1.6-3.9-2.3c-1.5-0.7-3-1.4-4.5-2.1c-1.5-0.7-3-1.5-4.5-2.4c-1.5-0.9-2.8-1.9-3.9-3.1
			c-1.2-1.2-2.1-2.6-2.8-4.2c-0.7-1.6-1.1-3.5-1.1-5.7c0-2.3,0.4-4.3,1.2-6.1c0.8-1.8,2-3.3,3.5-4.5c1.5-1.2,3.2-2.1,5.3-2.8
			c2-0.6,4.2-0.9,6.6-0.9c1.2,0,2.4,0.1,3.6,0.3s2.4,0.5,3.5,0.8c1.1,0.4,2,0.7,2.9,1.2c0.8,0.4,1.4,0.8,1.7,1.1
			c0.3,0.3,0.4,0.5,0.5,0.6c0.1,0.2,0.2,0.4,0.2,0.6c0.1,0.2,0.1,0.5,0.1,0.9c0,0.3,0,0.8,0,1.3c0,0.5,0,1-0.1,1.3
			c0,0.4-0.1,0.7-0.2,1c-0.1,0.3-0.2,0.5-0.4,0.6c-0.2,0.1-0.3,0.2-0.5,0.2c-0.3,0-0.8-0.2-1.5-0.6c-0.7-0.4-1.5-0.8-2.4-1.3
			c-1-0.5-2.1-0.9-3.4-1.3c-1.3-0.4-2.8-0.6-4.4-0.6c-1.5,0-2.8,0.2-4,0.6s-2.1,0.9-2.8,1.6c-0.7,0.7-1.3,1.5-1.6,2.4
			c-0.4,0.9-0.5,1.9-0.5,3c0,1.5,0.4,2.8,1.1,3.9c0.7,1.1,1.6,2.1,2.8,2.9c1.2,0.8,2.5,1.6,4,2.3c1.5,0.7,3,1.4,4.6,2.1
			s3.1,1.5,4.6,2.4c1.5,0.9,2.8,1.9,4,3c1.2,1.2,2.1,2.5,2.8,4.1S536.6,324.4,536.6,326.6z"/>
	</g>
</g>
</svg>
