<?xml version="1.0" encoding="utf-8"?>
<!-- Generator: Adobe Illustrator 27.8.0, SVG Export Plug-In . SVG Version: 6.00 Build 0)  -->
<svg version="1.1"
	 id="svg8" xmlns:svg="http://www.w3.org/2000/svg" xmlns:rdf="http://www.w3.org/1999/02/22-rdf-syntax-ns#" xmlns:sodipodi="http://sodipodi.sourceforge.net/DTD/sodipodi-0.dtd" xmlns:dc="http://purl.org/dc/elements/1.1/" xmlns:inkscape="http://www.inkscape.org/namespaces/inkscape" xmlns:cc="http://creativecommons.org/ns#" inkscape:export-xdpi="93" inkscape:export-ydpi="93" inkscape:version="0.92.4 (5da689c313, 2019-01-14)"
	 xmlns="http://www.w3.org/2000/svg" xmlns:xlink="http://www.w3.org/1999/xlink" x="0px" y="0px" viewBox="0 0 692 1081"
	 style="enable-background:new 0 0 692 1081;" xml:space="preserve">
<style type="text/css">
	.st0{fill:#FFFFFF;}
	.st1{fill:#1A1A1A;}
	.st2{opacity:0.99;fill:#808080;enable-background:new    ;}
	.st3{opacity:0.99;fill:#CCCCCC;enable-background:new    ;}
	.st4{opacity:0.99;fill:#FFFFFF;enable-background:new    ;}
	.st5{opacity:0.99;fill:#0066FF;enable-background:new    ;}
	.st6{opacity:0.99;fill:#0055D4;enable-background:new    ;}
	.st7{opacity:0.99;fill:#B3B3B3;enable-background:new    ;}
	.st8{opacity:0.99;enable-background:new    ;}
	.st9{opacity:0.99;fill:#E6E6E6;enable-background:new    ;}
	.st10{fill:#666666;}
	.st11{enable-background:new    ;}
</style>
<defs>
	
		<inkscape:perspective  id="perspective876" inkscape:persp3d-origin="105.00001 : 98.999993 : 1" inkscape:vp_x="0 : 148.5 : 1" inkscape:vp_y="0 : 1000.0001 : 0" inkscape:vp_z="210.00001 : 148.49999 : 1" sodipodi:type="inkscape:persp3d">
		</inkscape:perspective>
</defs>
<sodipodi:namedview  bordercolor="#000000" borderlayer="false" borderopacity="1" id="base" inkscape:current-layer="layer1" inkscape:cx="90.146401" inkscape:cy="2418.4934" inkscape:document-units="mm" inkscape:lockguides="true" inkscape:pagecheckerboard="false" inkscape:pageopacity="0" inkscape:pageshadow="2" inkscape:window-height="1017" inkscape:window-maximized="1" inkscape:window-width="1920" inkscape:window-x="-8" inkscape:window-y="-8" inkscape:zoom="0.125" pagecolor="#323232" showgrid="false" showguides="true" width="500mm">
	<inkscape:grid  id="grid111" type="xygrid"></inkscape:grid>
</sodipodi:namedview>
<g id="layer1" transform="translate(0.31582593,952.8111)" inkscape:groupmode="layer" inkscape:label="Ebene 1">
	<rect id="rect815" x="-0.2" y="-947.6" width="691.8" height="959.9"/>
	<rect id="rect821" x="347.2" y="-105.8" class="st0" width="202.7" height="69.8"/>
	<path id="rect825" class="st1" d="M360.5-101.8h40.6c7.1,0,12.8,5.7,12.8,12.8v35.6c0,7.1-5.7,12.8-12.8,12.8h-40.6
		c-7.1,0-12.8-5.7-12.8-12.8V-89C347.7-96.1,353.4-101.8,360.5-101.8z"/>
	<path id="rect872" class="st1" d="M495.9-101.8h40.6c7.1,0,12.8,5.7,12.8,12.8v35.6c0,7.1-5.7,12.8-12.8,12.8h-40.6
		c-7.1,0-12.8-5.7-12.8-12.8V-89C483.1-96.1,488.8-101.8,495.9-101.8z"/>
	<path id="rect874" class="st1" d="M426.6-101.8h43.9c6.2,0,11.2,5,11.2,11.2v38.9c0,6.2-5,11.2-11.2,11.2h-43.9
		c-6.2,0-11.2-5-11.2-11.2v-38.9C415.4-96.8,420.4-101.8,426.6-101.8z"/>
	<rect id="rect947" x="377.1" y="-67.3" class="st2" width="7.4" height="157.4"/>
	<rect id="rect949" x="445.2" y="-67.3" class="st2" width="7.4" height="157.4"/>
	<rect id="rect951" x="512.5" y="-67.3" class="st2" width="7.4" height="157.4"/>
	<g id="flowRoot969" transform="translate(0,-44.007277)">
	</g>
	<g id="flowRoot1466" transform="translate(0,-44.007277)">
	</g>
	<g id="flowRoot1529" transform="translate(0,-44.007277)">
	</g>
	<rect id="rect87" x="107.9" y="-898.6" class="st0" width="475.6" height="758.7"/>
	<path id="path31-1" inkscape:connector-curvature="0" class="st0" d="M665.6-458c-0.1-3.2-0.1-3.5-0.5-4.1c-0.2-0.4-0.7-0.8-1-1
		c-0.6-0.4-1-0.4-7.6-0.4l-7-0.1l0-6.8l0-6.8h8.7c9.6,0,10.5,0.1,13,1.1c3.3,1.3,4.8,3.2,5.7,7.1c0.2,1,0.3,2.2,0.3,6.2
		c0,2.7-0.1,5.7-0.2,6.6l-0.2,1.7l-5.7,0l-5.7,0L665.6-458L665.6-458z M685-522.9c0-58.2,0.1-72.5,0.3-70.1l0,0.4l0.2-0.4
		c0.1-0.3,0.2-0.3,0.2,0.3c0,0.4,0.1,0.2,0.2-0.6l0.1-1.2l0.1,1.2c0,0.7,0.1,1.1,0.1,0.9c0.1-0.3,0.3-0.3,1.6-0.3
		c1.5,0,1.5,0,1.6-0.5c0.1-0.4,0.1-0.3,0.1,0.3c0,0.4,0.1,0.8,0.2,0.8c0.1,0,0.2,23.1,0.2,68.8v68.8h-2.5H685L685-522.9z
		 M631.6-470.5v-6.9h5.6h5.6v6.9v6.9h-5.6h-5.6V-470.5z M652.4-484.3c-3.2-0.5-6-1.4-8.5-2.6c-0.9-0.5-1.7-0.9-1.8-1
		c-0.1-0.1-0.5-0.4-1.1-0.8c-1.1-0.7-3.2-2.3-3.4-2.7c-0.1-0.1-0.2-0.2-0.3-0.2c-0.2,0-1.8-1.7-2.8-3.1c-1-1.4-1.6-2.6-2.6-5.1
		c-1.1-3-1.4-4.7-1.3-8.3c0.1-2.6,0.2-3.2,0.7-4.8c0.3-1,0.7-2.3,0.9-2.8c0.2-0.5,0.4-1,0.4-1.1c0-0.1,0.4-0.9,0.9-1.7
		c1.9-3.3,7.1-7.8,10.9-9.5c6-2.7,12-3.1,17.5-1c2.3,0.9,3.7,1.5,5.3,2.5c1.9,1.2,2,1.3,4.8,4.1c3.2,3.2,4.6,5.6,5.7,9.8
		c0.6,2.2,0.8,6.4,0.5,8.7c-0.5,3-2.1,6.9-4,9.4c-0.9,1.3-2.4,3-2.6,3c0,0-0.5,0.4-1.1,0.9c-2.5,2.5-7.5,5-11.6,5.9
		C657.6-484.4,653.5-484.1,652.4-484.3L652.4-484.3z M658.2-497.5c2.6-0.7,4.8-2,6.8-4c2-2.1,2.7-5.4,1.8-8.2
		c-1-3.1-4.6-6.2-8.6-7.2c-2.3-0.6-5.6-0.5-7.7,0.1c-3.1,0.9-5.5,2.5-7.2,4.8c-0.7,1-1,1.5-1.2,2.6c-0.4,2.3-0.2,4.7,0.6,6.4
		c0.7,1.5,2.8,3.3,5,4.4C651-497,654.8-496.6,658.2-497.5L658.2-497.5z M631.7-536.1c0-0.1-0.1-3.2,0-6.9l0-6.7l6.2,0
		c5.8,0,6.2,0,7.3-0.4c2.6-1,4.1-4.1,3.1-6.9c-0.5-1.4-1.3-2.4-2.7-3.1l-1.2-0.6l-6.4-0.1l-6.4-0.1v-6.9v-6.9l7.2,0.1
		c6.7,0.1,7.3,0.1,8.7,0.5c2.8,0.8,5.2,2,7.1,3.6c0.5,0.4,0.9,0.7,1,0.7c0.2,0,1.8,1.7,3,3.3c1,1.3,2,3.2,2.2,4.1
		c0.1,0.3,0.3,1.2,0.6,2.1c0.5,1.5,0.5,1.8,0.5,4.9c0,3.1,0,3.5-0.5,5.2c-0.8,2.7-1.2,3.6-2.3,5.5c-1.4,2.1-3.1,3.8-5.2,5.2
		c-3,2-5.3,2.9-8.8,3.3C642.8-535.8,631.8-535.8,631.7-536.1L631.7-536.1z M665.8-555.3v-11.2h5.8h5.8v11.2v11.2h-5.8h-5.8V-555.3z
		 M622.8-574.5c0-0.1-0.3-0.2-0.7-0.2c-0.7,0-0.7,0-0.8-0.9c-0.1-0.5-0.1-19.5-0.1-42.3l0-41.5l2.5,0.1l2.5,0.1v42.1
		c0,23.2-0.1,42.3-0.1,42.4c-0.1,0.2-0.4,0.3-1.7,0.3C623.4-574.3,622.8-574.4,622.8-574.5L622.8-574.5z M650.6-593.5v-14.3h5.7h5.7
		v14.3v14.3h-5.7h-5.7V-593.5z M631.6-619.1v-6.9h5.6h5.6v6.9v6.9h-5.6h-5.6V-619.1z M648.8-619.1v-6.9h14.6H678v6.9v6.9h-14.6
		h-14.6V-619.1z M631.6-646.5v-14.4h5.6h5.6v14.4v14.4h-5.6h-5.6V-646.5z M649.6-634.5c-0.1-0.1-0.1-3.1-0.1-6.8l0-6.6l6.7-0.1
		c9.4-0.1,8.9,0.3,9-6.7l0.1-4.4h5.9h5.9l0.2,1.6c0.3,2.5,0.3,10.3-0.1,12.5c-0.6,3.7-1.7,6-3.6,7.6c-2,1.6-4,2.4-7.2,2.8
		C664.2-634.3,649.8-634.3,649.6-634.5L649.6-634.5z M626.1-669c-1.2-0.3-2.4-1-3.1-1.8c-2.8-3.1-3-6.9-0.8-9.9
		c1.1-1.4,1.5-1.8,2.8-2.4c1-0.5,1.3-0.5,3-0.5c1.7,0,2.1,0.1,3.1,0.5c2.3,1,4,3.7,4.2,6.3c0.2,2.4-0.5,4.2-2.4,6.1
		C631.4-669,628.5-668.3,626.1-669z M630.9-670.3c1.5-0.6,3-2.6,3.4-4.6c0.5-2,0.1-3.5-1.6-5.8c-0.4-0.5-0.9-1-1.8-1.4
		c-1.1-0.5-1.4-0.6-2.8-0.6c-1.5,0-1.7,0-2.9,0.6c-1,0.5-1.4,0.9-2.1,1.8c-0.4,0.6-0.9,1.5-1.1,2c-1.1,3.1,0.6,6.9,3.7,8.2
		C627-669.6,629.5-669.7,630.9-670.3L630.9-670.3z M623.7-675.4c0-1.4,0.1-2.8,0.2-3c0.4-1.1,2.6-1.6,3.6-0.8c0.3,0.2,0.6,0.7,0.7,1
		l0.2,0.6l0.7-0.6c0.4-0.4,1.2-0.9,1.7-1.2c0.6-0.3,1.1-0.7,1.1-0.7c0.2-0.4,0.4-0.1,0.4,0.6l0,0.8l-1.8,1.1
		c-1.9,1.2-2.1,1.5-2.1,2.8v0.8h1.9h1.9l-0.1,0.6l-0.1,0.6l-4.3,0l-4.3,0L623.7-675.4z M627.4-675.7c0-1.4-0.1-1.7-0.4-2.1
		c-0.8-1-2.1-0.4-2.3,1c-0.1,0.6,0,2.4,0.1,2.7c0,0,0.6,0,1.3,0h1.3V-675.7z"/>
	<circle id="circle109" class="st3" cx="64.6" cy="-876.3" r="43.2"/>
	<circle id="circle111" class="st4" cx="64.6" cy="-876.3" r="38.4"/>
	<circle id="circle113" class="st3" cx="626.7" cy="-876.3" r="43.2"/>
	<circle id="circle115" class="st4" cx="626.7" cy="-876.3" r="38.4"/>
	<circle id="circle117" class="st3" cx="626.7" cy="-52.6" r="43.2"/>
	<circle id="circle119" class="st4" cx="626.7" cy="-52.6" r="38.4"/>
	<circle id="circle121" class="st3" cx="64.6" cy="-52.6" r="43.2"/>
	<circle id="circle123" class="st4" cx="64.6" cy="-52.6" r="38.4"/>
	<rect id="rect139" x="112.1" y="-680.2" class="st5" width="467.1" height="536.1"/>
	<rect id="rect141" x="112.1" y="-895.2" class="st6" width="467.1" height="195.9"/>
	<circle id="path161" class="st7" cx="503.5" cy="-809.1" r="54"/>
	<circle id="circle167" class="st7" cx="345.3" cy="-809.1" r="54"/>
	<circle id="circle169" class="st7" cx="187.9" cy="-809.1" r="54"/>
	<path id="rect171" class="st8" d="M266.1-880.9L266.1-880.9c6.6,0,11.9,5.3,11.9,11.9v129c0,6.6-5.3,11.9-11.9,11.9l0,0
		c-6.6,0-11.9-5.3-11.9-11.9v-129C254.2-875.6,259.5-880.9,266.1-880.9z"/>
	<path id="rect175" class="st8" d="M424.3-880.9L424.3-880.9c6.6,0,11.9,5.3,11.9,11.9v129c0,6.6-5.3,11.9-11.9,11.9l0,0
		c-6.6,0-11.9-5.3-11.9-11.9v-129C412.4-875.6,417.8-880.9,424.3-880.9z"/>
	<rect id="rect179" x="133.8" y="-817.1" class="st9" width="108.1" height="17.3"/>
	<rect id="rect181" x="291.3" y="-817.1" class="st9" width="108.1" height="17.3"/>
	<rect id="rect183" x="449.5" y="-817.1" class="st9" width="108.1" height="17.3"/>
	<g id="flowRoot193" transform="matrix(0.26458333,0,0,0.26458333,-0.31582593,-846.81835)">
	</g>
	<g id="flowRoot201" transform="matrix(0.26458333,0,0,0.26458333,-0.31582593,-846.81835)">
	</g>
	<rect id="rect95" x="82.1" y="-696.9" width="519.9" height="13.7"/>
	<rect id="rect97" x="510.5" y="-651.1" class="st10" width="34.6" height="271.4"/>
	<rect id="rect99" x="446.1" y="-651.1" class="st10" width="34.6" height="271.4"/>
	<rect id="rect101" x="385.9" y="-651.1" class="st10" width="34.6" height="271.4"/>
	<rect id="rect103" x="267.9" y="-651.1" class="st10" width="64.9" height="350.1"/>
	<rect id="rect105" x="510.5" y="-344.7" class="st10" width="34.6" height="148.8"/>
	<rect id="rect107" x="446.1" y="-344.7" class="st10" width="34.6" height="148.8"/>
	<rect id="rect109" x="387.2" y="-344.7" class="st10" width="34.6" height="148.8"/>
	<g class="st11">
		<path d="M512.8,95.5c0,0.3,0,0.5,0,0.7c0,0.2-0.1,0.4-0.1,0.5s-0.1,0.2-0.2,0.3c-0.1,0.1-0.2,0.1-0.3,0.1c-0.2,0-0.5-0.1-0.9-0.4
			c-0.4-0.3-1-0.6-1.7-0.9s-1.5-0.6-2.5-0.9c-1-0.3-2.1-0.4-3.4-0.4c-1.6,0-3,0.3-4.2,0.9c-1.2,0.6-2.3,1.4-3.2,2.4
			c-0.9,1-1.5,2.2-2,3.6s-0.7,2.9-0.7,4.5c0,1.8,0.3,3.4,0.8,4.8s1.2,2.6,2.1,3.6s2,1.7,3.2,2.2c1.2,0.5,2.6,0.7,4.1,0.7
			c0.9,0,1.8-0.1,2.7-0.3s1.7-0.5,2.5-1v-8.3h-6.6c-0.2,0-0.4-0.1-0.6-0.4s-0.2-0.6-0.2-1.2c0-0.3,0-0.5,0-0.7
			c0-0.2,0.1-0.4,0.1-0.5c0.1-0.1,0.1-0.2,0.2-0.3c0.1-0.1,0.2-0.1,0.3-0.1h9.1c0.2,0,0.3,0,0.5,0.1c0.2,0.1,0.3,0.1,0.4,0.3
			c0.1,0.1,0.2,0.3,0.3,0.5s0.1,0.4,0.1,0.7V117c0,0.4-0.1,0.7-0.2,1s-0.4,0.5-0.8,0.7c-0.4,0.2-1,0.4-1.7,0.7
			c-0.7,0.2-1.4,0.5-2.1,0.6c-0.7,0.2-1.4,0.3-2.2,0.4c-0.7,0.1-1.5,0.1-2.2,0.1c-2.2,0-4.2-0.3-5.9-1c-1.7-0.7-3.2-1.7-4.4-2.9
			c-1.2-1.3-2.1-2.8-2.7-4.5c-0.6-1.8-0.9-3.7-0.9-5.9c0-2.3,0.3-4.3,1-6.1s1.6-3.4,2.9-4.7c1.2-1.3,2.7-2.3,4.5-3
			c1.7-0.7,3.7-1.1,5.8-1.1c1.1,0,2.1,0.1,3.1,0.3c1,0.2,1.8,0.4,2.5,0.7c0.7,0.3,1.4,0.5,1.9,0.8s0.9,0.5,1,0.7
			c0.2,0.2,0.3,0.4,0.4,0.7C512.8,94.7,512.8,95,512.8,95.5z"/>
		<path d="M541.4,118.6c0,0.3,0,0.5-0.1,0.7c-0.1,0.2-0.2,0.4-0.4,0.5c-0.2,0.1-0.3,0.2-0.5,0.3c-0.2,0.1-0.4,0.1-0.6,0.1h-1.3
			c-0.4,0-0.7,0-1-0.1c-0.3-0.1-0.6-0.2-0.8-0.4c-0.3-0.2-0.5-0.5-0.8-0.9c-0.3-0.4-0.5-0.8-0.8-1.4l-8.7-16.2
			c-0.5-0.8-0.9-1.7-1.4-2.6s-0.9-1.8-1.3-2.7h0c0,1.1,0.1,2.1,0.1,3.2s0,2.2,0,3.3v17.2c0,0.1,0,0.2-0.1,0.3
			c-0.1,0.1-0.2,0.2-0.3,0.2c-0.1,0.1-0.3,0.1-0.6,0.1c-0.2,0-0.5,0.1-0.9,0.1c-0.4,0-0.7,0-0.9-0.1c-0.2,0-0.4-0.1-0.6-0.1
			c-0.1-0.1-0.2-0.1-0.3-0.2c-0.1-0.1-0.1-0.2-0.1-0.3V93.3c0-0.6,0.2-1,0.5-1.3c0.3-0.2,0.7-0.4,1.1-0.4h1.9c0.4,0,0.8,0,1.1,0.1
			s0.6,0.2,0.8,0.4c0.2,0.2,0.5,0.4,0.7,0.7c0.2,0.3,0.5,0.7,0.7,1.1l6.7,12.5c0.4,0.8,0.8,1.5,1.2,2.2c0.4,0.7,0.8,1.4,1.1,2.1
			s0.7,1.4,1.1,2.1c0.3,0.7,0.7,1.4,1,2.1h0c0-1.2,0-2.4-0.1-3.6c0-1.3,0-2.5,0-3.6V92.3c0-0.1,0-0.2,0.1-0.3s0.2-0.2,0.3-0.2
			c0.1-0.1,0.3-0.1,0.6-0.1c0.2,0,0.6,0,0.9,0c0.3,0,0.6,0,0.9,0s0.4,0.1,0.6,0.1c0.1,0.1,0.2,0.1,0.3,0.2s0.1,0.2,0.1,0.3V118.6z"
			/>
		<path d="M570.9,105.5c0,2.5-0.3,4.6-0.9,6.5c-0.6,1.8-1.6,3.4-2.8,4.6s-2.7,2.1-4.5,2.7c-1.8,0.6-3.9,0.9-6.3,0.9h-6
			c-0.3,0-0.7-0.1-1-0.3c-0.3-0.2-0.5-0.6-0.5-1.2V93.2c0-0.6,0.2-1,0.5-1.2c0.3-0.2,0.6-0.3,1-0.3h6.5c2.5,0,4.6,0.3,6.3,1
			c1.7,0.6,3.1,1.6,4.3,2.8s2,2.6,2.6,4.4C570.6,101.4,570.9,103.3,570.9,105.5z M566.9,105.6c0-1.5-0.2-3-0.6-4.3
			c-0.4-1.3-1-2.5-1.8-3.4c-0.8-1-1.8-1.7-3.1-2.3c-1.2-0.5-2.9-0.8-4.8-0.8h-3.9V117h3.9c1.8,0,3.4-0.2,4.6-0.7
			c1.2-0.5,2.3-1.2,3.1-2.1c0.8-0.9,1.5-2.1,1.9-3.5C566.7,109.2,566.9,107.6,566.9,105.6z"/>
	</g>
	<g class="st11">
		<path d="M321.2,112.2c0,1.3-0.2,2.5-0.7,3.6c-0.5,1-1.2,1.9-2,2.7c-0.9,0.7-1.9,1.3-3.1,1.6c-1.2,0.4-2.5,0.6-3.8,0.6
			c-1,0-1.8-0.1-2.7-0.2c-0.8-0.2-1.5-0.4-2.2-0.6c-0.6-0.2-1.2-0.5-1.6-0.7c-0.4-0.2-0.7-0.5-0.9-0.6c-0.2-0.2-0.3-0.4-0.4-0.7
			c-0.1-0.3-0.1-0.6-0.1-1.1c0-0.3,0-0.6,0-0.8c0-0.2,0.1-0.4,0.1-0.5c0.1-0.1,0.1-0.2,0.2-0.3c0.1-0.1,0.2-0.1,0.3-0.1
			c0.2,0,0.5,0.1,0.9,0.4c0.4,0.2,0.9,0.5,1.4,0.8c0.6,0.3,1.3,0.6,2.1,0.8c0.8,0.3,1.8,0.4,2.9,0.4c0.8,0,1.6-0.1,2.3-0.3
			s1.3-0.5,1.8-0.9c0.5-0.4,0.9-0.9,1.1-1.5c0.3-0.6,0.4-1.3,0.4-2c0-0.8-0.2-1.5-0.6-2.1c-0.4-0.6-0.9-1.1-1.5-1.5
			c-0.6-0.4-1.3-0.8-2.1-1.2c-0.8-0.4-1.6-0.7-2.4-1.1c-0.8-0.4-1.6-0.8-2.4-1.2c-0.8-0.5-1.4-1-2-1.6c-0.6-0.6-1.1-1.3-1.5-2.2
			c-0.4-0.8-0.6-1.8-0.6-3c0-1.2,0.2-2.2,0.6-3.2s1-1.7,1.8-2.3c0.8-0.6,1.7-1.1,2.8-1.4c1.1-0.3,2.2-0.5,3.4-0.5
			c0.6,0,1.3,0.1,1.9,0.2c0.6,0.1,1.2,0.3,1.8,0.4s1.1,0.4,1.5,0.6c0.4,0.2,0.7,0.4,0.9,0.6c0.1,0.1,0.2,0.2,0.3,0.3
			c0,0.1,0.1,0.2,0.1,0.3s0.1,0.3,0.1,0.5c0,0.2,0,0.4,0,0.7c0,0.3,0,0.5,0,0.7c0,0.2-0.1,0.4-0.1,0.5s-0.1,0.2-0.2,0.3
			c-0.1,0.1-0.2,0.1-0.3,0.1c-0.2,0-0.4-0.1-0.8-0.3c-0.3-0.2-0.8-0.4-1.3-0.7s-1.1-0.5-1.8-0.7s-1.5-0.3-2.3-0.3
			c-0.8,0-1.5,0.1-2.1,0.3c-0.6,0.2-1.1,0.5-1.5,0.8s-0.7,0.8-0.9,1.3c-0.2,0.5-0.3,1-0.3,1.5c0,0.8,0.2,1.5,0.6,2
			c0.4,0.6,0.9,1.1,1.5,1.5s1.3,0.8,2.1,1.2s1.6,0.7,2.4,1.1c0.8,0.4,1.6,0.8,2.4,1.2s1.5,1,2.1,1.6s1.1,1.3,1.5,2.2
			C321.1,110,321.2,111,321.2,112.2z"/>
		<path d="M330.3,93.1c0,0.9-0.2,1.4-0.5,1.7s-0.9,0.5-1.8,0.5c-0.9,0-1.4-0.2-1.8-0.5c-0.3-0.3-0.5-0.9-0.5-1.7
			c0-0.9,0.2-1.4,0.5-1.7c0.3-0.3,0.9-0.5,1.8-0.5c0.9,0,1.4,0.2,1.8,0.5C330.1,91.7,330.3,92.2,330.3,93.1z M329.9,119.6
			c0,0.1,0,0.2-0.1,0.3c-0.1,0.1-0.2,0.2-0.3,0.2c-0.1,0.1-0.3,0.1-0.6,0.1c-0.2,0-0.5,0-0.9,0c-0.4,0-0.6,0-0.9,0s-0.4-0.1-0.6-0.1
			s-0.2-0.1-0.3-0.2c-0.1-0.1-0.1-0.2-0.1-0.3V99.8c0-0.1,0-0.2,0.1-0.3c0.1-0.1,0.1-0.2,0.3-0.2s0.3-0.1,0.6-0.1s0.5,0,0.9,0
			c0.4,0,0.7,0,0.9,0c0.2,0,0.4,0.1,0.6,0.1c0.1,0.1,0.2,0.1,0.3,0.2c0.1,0.1,0.1,0.2,0.1,0.3V119.6z"/>
		<path d="M353.2,100.7c0,0.5-0.1,0.9-0.2,1.1c-0.1,0.2-0.3,0.3-0.5,0.3h-2.8c0.5,0.5,0.9,1.1,1.1,1.8c0.2,0.6,0.3,1.3,0.3,2
			c0,1.1-0.2,2.2-0.6,3c-0.4,0.9-0.9,1.6-1.6,2.2c-0.7,0.6-1.5,1.1-2.4,1.4c-0.9,0.3-2,0.5-3.1,0.5c-0.8,0-1.6-0.1-2.3-0.3
			c-0.7-0.2-1.3-0.5-1.7-0.8c-0.3,0.3-0.5,0.6-0.6,0.9c-0.2,0.3-0.3,0.7-0.3,1.2c0,0.5,0.2,0.9,0.7,1.3s1.1,0.5,1.9,0.6l5.2,0.2
			c1,0,1.9,0.2,2.7,0.4c0.8,0.2,1.5,0.6,2.1,1c0.6,0.4,1.1,1,1.4,1.7s0.5,1.4,0.5,2.3c0,0.9-0.2,1.8-0.6,2.6c-0.4,0.8-1,1.5-1.8,2.2
			s-1.8,1.1-3,1.5c-1.2,0.4-2.7,0.5-4.3,0.5c-1.6,0-3-0.1-4.1-0.4c-1.1-0.3-2-0.6-2.8-1.1c-0.7-0.5-1.2-1-1.6-1.7s-0.5-1.4-0.5-2.1
			c0-0.5,0.1-1,0.2-1.4s0.3-0.9,0.5-1.3s0.5-0.8,0.9-1.2c0.4-0.4,0.8-0.7,1.2-1.1c-0.7-0.4-1.3-0.8-1.6-1.4
			c-0.3-0.6-0.5-1.2-0.5-1.8c0-0.9,0.2-1.7,0.6-2.4c0.4-0.7,0.8-1.3,1.4-1.9c-0.5-0.5-0.8-1.2-1.1-1.8c-0.3-0.7-0.4-1.5-0.4-2.5
			c0-1.1,0.2-2.1,0.6-3c0.4-0.9,0.9-1.7,1.6-2.3c0.7-0.6,1.5-1.1,2.4-1.4c0.9-0.3,2-0.5,3.1-0.5c0.6,0,1.2,0,1.7,0.1
			c0.5,0.1,1,0.2,1.5,0.3h6c0.2,0,0.4,0.1,0.6,0.4C353.1,99.8,353.2,100.2,353.2,100.7z M349.3,121.6c0-0.9-0.3-1.5-1-2
			s-1.6-0.7-2.8-0.7l-5.1-0.2c-0.5,0.4-0.9,0.7-1.2,1c-0.3,0.3-0.5,0.6-0.7,0.9c-0.2,0.3-0.3,0.6-0.4,0.9s-0.1,0.6-0.1,0.9
			c0,1,0.5,1.7,1.5,2.2c1,0.5,2.3,0.7,4.1,0.7c1.1,0,2-0.1,2.8-0.3c0.7-0.2,1.3-0.5,1.8-0.8s0.8-0.8,1-1.2S349.3,122.1,349.3,121.6z
			 M347.5,105.9c0-1.4-0.4-2.4-1.1-3.2c-0.7-0.8-1.8-1.1-3.2-1.1c-0.7,0-1.3,0.1-1.8,0.4c-0.5,0.2-1,0.6-1.3,1
			c-0.3,0.4-0.6,0.9-0.8,1.4s-0.3,1.1-0.3,1.7c0,1.3,0.4,2.3,1.1,3.1s1.8,1.1,3.1,1.1c0.7,0,1.3-0.1,1.9-0.3c0.5-0.2,1-0.5,1.3-0.9
			c0.3-0.4,0.6-0.9,0.8-1.4C347.4,107,347.5,106.5,347.5,105.9z"/>
		<path d="M374.9,119.6c0,0.1,0,0.2-0.1,0.3c-0.1,0.1-0.2,0.2-0.3,0.2c-0.1,0.1-0.3,0.1-0.6,0.1c-0.2,0-0.5,0-0.9,0
			c-0.4,0-0.7,0-0.9,0c-0.2,0-0.4-0.1-0.6-0.1s-0.2-0.1-0.3-0.2c-0.1-0.1-0.1-0.2-0.1-0.3V108c0-1.1-0.1-2-0.3-2.7
			c-0.2-0.7-0.4-1.3-0.8-1.8s-0.8-0.9-1.3-1.1s-1.2-0.4-1.9-0.4c-0.9,0-1.8,0.3-2.7,1c-0.9,0.6-1.9,1.6-2.9,2.8v13.9
			c0,0.1,0,0.2-0.1,0.3c-0.1,0.1-0.2,0.2-0.3,0.2c-0.1,0.1-0.3,0.1-0.6,0.1c-0.2,0-0.5,0-0.9,0c-0.4,0-0.6,0-0.9,0s-0.4-0.1-0.6-0.1
			s-0.2-0.1-0.3-0.2c-0.1-0.1-0.1-0.2-0.1-0.3V99.8c0-0.1,0-0.2,0.1-0.3c0-0.1,0.1-0.2,0.3-0.2c0.1-0.1,0.3-0.1,0.5-0.1
			c0.2,0,0.5,0,0.8,0c0.3,0,0.6,0,0.8,0c0.2,0,0.4,0.1,0.5,0.1c0.1,0.1,0.2,0.1,0.3,0.2c0.1,0.1,0.1,0.2,0.1,0.3v2.6
			c1.1-1.2,2.2-2.2,3.3-2.7c1.1-0.6,2.2-0.9,3.4-0.9c1.3,0,2.4,0.2,3.3,0.7s1.6,1,2.2,1.8c0.6,0.7,1,1.6,1.2,2.6
			c0.2,1,0.4,2.2,0.4,3.6V119.6z"/>
		<path d="M396.5,119.6c0,0.2-0.1,0.3-0.2,0.4c-0.1,0.1-0.3,0.2-0.5,0.2c-0.2,0-0.5,0.1-0.9,0.1c-0.4,0-0.7,0-0.9-0.1
			s-0.4-0.1-0.5-0.2c-0.1-0.1-0.2-0.2-0.2-0.4v-2c-0.9,0.9-1.8,1.6-2.9,2.2c-1.1,0.5-2.2,0.8-3.4,0.8c-1,0-2-0.1-2.8-0.4
			s-1.6-0.7-2.2-1.2c-0.6-0.5-1.1-1.1-1.4-1.9c-0.3-0.7-0.5-1.6-0.5-2.6c0-1.1,0.2-2.1,0.7-2.9c0.5-0.8,1.1-1.5,2-2
			c0.9-0.5,1.9-1,3.1-1.2c1.2-0.3,2.6-0.4,4.2-0.4h2.7v-1.5c0-0.8-0.1-1.4-0.2-2c-0.2-0.6-0.4-1.1-0.8-1.5c-0.4-0.4-0.8-0.7-1.4-0.9
			s-1.3-0.3-2.1-0.3c-0.9,0-1.7,0.1-2.4,0.3c-0.7,0.2-1.3,0.4-1.9,0.7s-1,0.5-1.3,0.7c-0.4,0.2-0.6,0.3-0.8,0.3
			c-0.1,0-0.2,0-0.3-0.1s-0.2-0.1-0.2-0.3s-0.1-0.3-0.1-0.5c0-0.2,0-0.4,0-0.6c0-0.4,0-0.7,0.1-0.9s0.2-0.4,0.4-0.6
			c0.2-0.2,0.5-0.4,1-0.7c0.5-0.3,1-0.5,1.7-0.7c0.6-0.2,1.3-0.4,2.1-0.5s1.5-0.2,2.3-0.2c1.4,0,2.6,0.2,3.6,0.5s1.8,0.8,2.4,1.4
			c0.6,0.6,1.1,1.4,1.3,2.3c0.3,0.9,0.4,2,0.4,3.2V119.6z M392.9,110.6h-3.1c-1,0-1.9,0.1-2.6,0.3c-0.7,0.2-1.3,0.4-1.8,0.7
			c-0.5,0.3-0.8,0.7-1.1,1.2s-0.3,1-0.3,1.6c0,1,0.3,1.8,1,2.5s1.6,0.9,2.7,0.9c1,0,1.8-0.2,2.7-0.7c0.8-0.5,1.7-1.2,2.6-2.2V110.6z
			"/>
		<path d="M406.8,119.6c0,0.1,0,0.2-0.1,0.3c-0.1,0.1-0.2,0.2-0.3,0.2c-0.1,0.1-0.3,0.1-0.6,0.1c-0.2,0-0.5,0-0.9,0
			c-0.4,0-0.6,0-0.9,0s-0.4-0.1-0.6-0.1s-0.2-0.1-0.3-0.2c-0.1-0.1-0.1-0.2-0.1-0.3V90.2c0-0.1,0-0.2,0.1-0.3
			c0.1-0.1,0.1-0.2,0.3-0.2c0.1-0.1,0.3-0.1,0.6-0.1s0.5,0,0.9,0c0.4,0,0.7,0,0.9,0c0.2,0,0.4,0.1,0.6,0.1c0.1,0.1,0.2,0.1,0.3,0.2
			s0.1,0.2,0.1,0.3V119.6z"/>
	</g>
	<g class="st11">
		<path d="M446,107.5c0,0.3,0,0.5-0.1,0.7c0,0.2-0.1,0.4-0.2,0.5c-0.1,0.1-0.2,0.2-0.3,0.3c-0.1,0.1-0.2,0.1-0.3,0.1h-7.2v8
			c0,0.1,0,0.2-0.1,0.3c-0.1,0.1-0.2,0.2-0.3,0.2c-0.1,0.1-0.3,0.1-0.5,0.1c-0.2,0-0.5,0.1-0.8,0.1c-0.3,0-0.5,0-0.8-0.1
			c-0.2,0-0.4-0.1-0.5-0.1c-0.1-0.1-0.2-0.1-0.3-0.2c-0.1-0.1-0.1-0.2-0.1-0.3v-8h-7.2c-0.1,0-0.2,0-0.3-0.1
			c-0.1-0.1-0.2-0.2-0.3-0.3c-0.1-0.1-0.1-0.3-0.2-0.5s-0.1-0.4-0.1-0.7c0-0.3,0-0.5,0.1-0.7s0.1-0.4,0.2-0.5s0.2-0.2,0.3-0.3
			c0.1-0.1,0.2-0.1,0.3-0.1h7.2v-8c0-0.1,0-0.2,0.1-0.3s0.2-0.2,0.3-0.2c0.1-0.1,0.3-0.1,0.5-0.2c0.2,0,0.5-0.1,0.8-0.1
			c0.3,0,0.6,0,0.8,0.1c0.2,0,0.4,0.1,0.5,0.2c0.1,0.1,0.2,0.1,0.3,0.2s0.1,0.2,0.1,0.3v8h7.2c0.1,0,0.2,0,0.3,0.1
			c0.1,0.1,0.2,0.2,0.3,0.3s0.1,0.3,0.2,0.5C446,107,446,107.2,446,107.5z"/>
		<path d="M462.9,119.5c-0.1,0.2-0.1,0.3-0.2,0.4c-0.1,0.1-0.2,0.2-0.4,0.2c-0.2,0.1-0.4,0.1-0.7,0.1c-0.3,0-0.6,0-1.1,0
			c-0.3,0-0.6,0-0.8,0c-0.2,0-0.5,0-0.6-0.1c-0.2,0-0.3-0.1-0.5-0.1c-0.1,0-0.2-0.1-0.3-0.1s-0.2-0.1-0.2-0.2
			c-0.1-0.1-0.1-0.2-0.1-0.3L448.5,93c-0.1-0.3-0.2-0.6-0.2-0.8c0-0.2,0.1-0.3,0.2-0.5s0.3-0.2,0.6-0.2s0.7,0,1.2,0c0.4,0,0.7,0,1,0
			c0.2,0,0.4,0.1,0.6,0.1c0.1,0.1,0.2,0.1,0.3,0.2c0.1,0.1,0.1,0.2,0.2,0.4l8.2,24h0l8-23.9c0-0.2,0.1-0.3,0.2-0.4
			c0.1-0.1,0.2-0.2,0.3-0.2c0.1-0.1,0.4-0.1,0.6-0.1c0.3,0,0.6,0,1.1,0c0.5,0,0.8,0,1.1,0.1c0.3,0,0.4,0.1,0.5,0.2s0.1,0.3,0.1,0.5
			s-0.1,0.5-0.2,0.8L462.9,119.5z"/>
	</g>
	<g class="st11">
		<path class="st0" d="M226-907.6c0,0.4-0.1,0.7-0.2,0.9c-0.1,0.3-0.3,0.5-0.5,0.6c-0.2,0.2-0.4,0.3-0.7,0.3
			c-0.2,0.1-0.5,0.1-0.7,0.1h-1.5c-0.5,0-0.9,0-1.3-0.1c-0.4-0.1-0.7-0.3-1-0.5c-0.3-0.3-0.6-0.6-1-1.1c-0.3-0.4-0.7-1-1-1.7
			l-10.6-19.7c-0.6-1-1.1-2.1-1.7-3.2c-0.6-1.1-1.1-2.2-1.6-3.3h-0.1c0,1.3,0.1,2.6,0.1,3.9c0,1.3,0,2.7,0,4v20.9
			c0,0.1,0,0.2-0.1,0.4c-0.1,0.1-0.2,0.2-0.4,0.3c-0.2,0.1-0.4,0.1-0.7,0.2c-0.3,0-0.7,0.1-1.1,0.1c-0.5,0-0.8,0-1.1-0.1
			c-0.3,0-0.5-0.1-0.7-0.2c-0.2-0.1-0.3-0.2-0.4-0.3c-0.1-0.1-0.1-0.2-0.1-0.4v-32c0-0.7,0.2-1.2,0.6-1.5s0.8-0.5,1.3-0.5h2.3
			c0.5,0,1,0,1.3,0.1c0.4,0.1,0.7,0.2,1,0.4c0.3,0.2,0.6,0.5,0.8,0.9s0.5,0.8,0.8,1.4l8.1,15.2c0.5,0.9,1,1.8,1.5,2.7
			c0.5,0.9,0.9,1.8,1.3,2.6c0.4,0.9,0.9,1.7,1.3,2.5s0.8,1.7,1.3,2.5h0c0-1.4-0.1-2.9-0.1-4.4s0-3,0-4.4v-18.8c0-0.1,0-0.2,0.1-0.3
			c0.1-0.1,0.2-0.2,0.4-0.3c0.2-0.1,0.4-0.1,0.7-0.2c0.3,0,0.7-0.1,1.1-0.1c0.4,0,0.8,0,1.1,0.1s0.5,0.1,0.7,0.2
			c0.2,0.1,0.3,0.2,0.4,0.3c0.1,0.1,0.1,0.2,0.1,0.3V-907.6z"/>
		<path class="st0" d="M258.4-910.6c0,0.3,0,0.5,0,0.8s0,0.4-0.1,0.6c0,0.2-0.1,0.3-0.2,0.4c-0.1,0.1-0.2,0.3-0.4,0.5
			s-0.6,0.5-1.1,0.8c-0.6,0.4-1.3,0.7-2.1,1.1c-0.8,0.3-1.8,0.6-2.9,0.9c-1.1,0.2-2.3,0.4-3.6,0.4c-2.3,0-4.3-0.4-6.1-1.1
			s-3.4-1.9-4.6-3.3c-1.3-1.5-2.3-3.3-3-5.4c-0.7-2.2-1-4.6-1-7.4c0-2.9,0.4-5.4,1.1-7.7c0.7-2.3,1.8-4.2,3.1-5.7
			c1.3-1.6,2.9-2.8,4.8-3.6s3.9-1.2,6.2-1.2c1,0,2,0.1,2.9,0.3c0.9,0.2,1.8,0.4,2.6,0.7c0.8,0.3,1.5,0.6,2.1,1
			c0.6,0.4,1.1,0.7,1.3,0.9c0.2,0.2,0.4,0.4,0.5,0.5s0.1,0.3,0.2,0.4c0,0.2,0.1,0.4,0.1,0.6c0,0.2,0,0.5,0,0.8c0,0.4,0,0.7-0.1,0.9
			c0,0.3-0.1,0.5-0.2,0.6c-0.1,0.2-0.2,0.3-0.3,0.4c-0.1,0.1-0.2,0.1-0.4,0.1c-0.3,0-0.6-0.2-1.1-0.5s-1-0.7-1.7-1.2
			c-0.7-0.4-1.6-0.8-2.6-1.2c-1-0.3-2.2-0.5-3.7-0.5c-1.5,0-3,0.3-4.2,0.9c-1.3,0.6-2.3,1.5-3.2,2.7c-0.9,1.2-1.6,2.7-2.1,4.4
			c-0.5,1.7-0.7,3.7-0.7,5.9c0,2.2,0.2,4.1,0.7,5.8c0.5,1.7,1.2,3.1,2,4.2c0.9,1.1,2,2,3.3,2.6c1.3,0.6,2.8,0.9,4.4,0.9
			c1.4,0,2.6-0.2,3.6-0.5c1-0.3,1.9-0.7,2.6-1.1c0.7-0.4,1.3-0.8,1.8-1.1c0.5-0.3,0.8-0.5,1.1-0.5c0.1,0,0.2,0,0.3,0.1
			c0.1,0.1,0.2,0.2,0.2,0.3c0.1,0.2,0.1,0.4,0.1,0.6C258.4-911.3,258.4-911,258.4-910.6z"/>
	</g>
	<g class="st11">
		<path class="st0" d="M428-907.6c0,0.4-0.1,0.7-0.2,0.9c-0.1,0.3-0.3,0.5-0.5,0.6c-0.2,0.2-0.4,0.3-0.7,0.3
			c-0.2,0.1-0.5,0.1-0.7,0.1h-1.5c-0.5,0-0.9,0-1.3-0.1c-0.4-0.1-0.7-0.3-1-0.5c-0.3-0.3-0.6-0.6-1-1.1c-0.3-0.4-0.7-1-1-1.7
			l-10.6-19.7c-0.6-1-1.1-2.1-1.7-3.2c-0.6-1.1-1.1-2.2-1.6-3.3h-0.1c0,1.3,0.1,2.6,0.1,3.9c0,1.3,0,2.7,0,4v20.9
			c0,0.1,0,0.2-0.1,0.4c-0.1,0.1-0.2,0.2-0.4,0.3c-0.2,0.1-0.4,0.1-0.7,0.2c-0.3,0-0.7,0.1-1.1,0.1c-0.5,0-0.8,0-1.1-0.1
			c-0.3,0-0.5-0.1-0.7-0.2c-0.2-0.1-0.3-0.2-0.4-0.3c-0.1-0.1-0.1-0.2-0.1-0.4v-32c0-0.7,0.2-1.2,0.6-1.5s0.8-0.5,1.3-0.5h2.3
			c0.5,0,1,0,1.3,0.1c0.4,0.1,0.7,0.2,1,0.4c0.3,0.2,0.6,0.5,0.8,0.9s0.5,0.8,0.8,1.4l8.1,15.2c0.5,0.9,1,1.8,1.5,2.7
			c0.5,0.9,0.9,1.8,1.3,2.6c0.4,0.9,0.9,1.7,1.3,2.5s0.8,1.7,1.3,2.5h0c0-1.4-0.1-2.9-0.1-4.4s0-3,0-4.4v-18.8c0-0.1,0-0.2,0.1-0.3
			c0.1-0.1,0.2-0.2,0.4-0.3c0.2-0.1,0.4-0.1,0.7-0.2c0.3,0,0.7-0.1,1.1-0.1c0.4,0,0.8,0,1.1,0.1s0.5,0.1,0.7,0.2
			c0.2,0.1,0.3,0.2,0.4,0.3c0.1,0.1,0.1,0.2,0.1,0.3V-907.6z"/>
		<path class="st0" d="M466.3-923.4c0,2.8-0.3,5.3-1,7.6c-0.7,2.3-1.6,4.2-3,5.8c-1.3,1.6-3,2.8-4.9,3.6c-2,0.8-4.3,1.3-6.9,1.3
			c-2.6,0-4.9-0.4-6.8-1.2c-1.9-0.8-3.5-1.9-4.7-3.4c-1.2-1.5-2.2-3.3-2.8-5.5c-0.6-2.2-0.9-4.7-0.9-7.6c0-2.7,0.3-5.2,1-7.5
			c0.7-2.2,1.7-4.1,3-5.7c1.3-1.6,3-2.8,5-3.6c2-0.8,4.3-1.3,6.9-1.3c2.6,0,4.8,0.4,6.7,1.2c1.9,0.8,3.5,1.9,4.7,3.4
			c1.3,1.5,2.2,3.3,2.8,5.5C465.9-928.7,466.3-926.2,466.3-923.4z M461.4-923.1c0-2-0.2-3.8-0.5-5.5c-0.3-1.7-0.9-3.2-1.7-4.4
			s-1.9-2.2-3.3-2.9c-1.4-0.7-3-1-5-1c-2,0-3.7,0.4-5,1.1s-2.5,1.8-3.3,3c-0.8,1.3-1.5,2.7-1.8,4.4c-0.4,1.7-0.5,3.4-0.5,5.3
			c0,2,0.2,3.9,0.5,5.6c0.3,1.7,0.9,3.2,1.7,4.4c0.8,1.2,1.9,2.2,3.2,2.9c1.3,0.7,3,1,5.1,1c2,0,3.7-0.4,5.1-1.1
			c1.4-0.8,2.5-1.8,3.3-3s1.4-2.8,1.8-4.4C461.2-919.5,461.4-921.2,461.4-923.1z"/>
	</g>
	<g class="st11">
		<path class="st0" d="M679.5-272.1c0.1,0,0.3,0,0.4,0.1c0.1,0.1,0.2,0.2,0.3,0.4s0.1,0.4,0.2,0.7c0,0.3,0.1,0.7,0.1,1.2
			c0,0.6,0,1.1-0.1,1.5c-0.1,0.4-0.2,0.7-0.3,0.9c-0.1,0.2-0.3,0.4-0.5,0.5l-17.3,12.8h17.3c0.1,0,0.2,0,0.4,0.1
			c0.1,0.1,0.2,0.2,0.3,0.4c0.1,0.2,0.1,0.4,0.2,0.7c0,0.3,0.1,0.7,0.1,1.1c0,0.4,0,0.8-0.1,1.1s-0.1,0.5-0.2,0.7
			c-0.1,0.2-0.2,0.3-0.3,0.4c-0.1,0.1-0.2,0.1-0.4,0.1h-33.3c-0.1,0-0.3,0-0.4-0.1c-0.1-0.1-0.2-0.2-0.3-0.4s-0.1-0.4-0.2-0.7
			c0-0.3-0.1-0.7-0.1-1.1c0-0.4,0-0.8,0.1-1.1c0-0.3,0.1-0.5,0.2-0.7s0.1-0.3,0.3-0.4c0.1-0.1,0.2-0.1,0.4-0.1h15.4l-15.4-12.3
			c-0.2-0.1-0.3-0.2-0.4-0.4c-0.1-0.1-0.2-0.3-0.3-0.5c-0.1-0.2-0.1-0.5-0.1-0.8c0-0.3-0.1-0.7-0.1-1.1s0-0.8,0.1-1.1
			c0-0.3,0.1-0.5,0.2-0.7c0.1-0.2,0.2-0.3,0.3-0.3c0.1-0.1,0.2-0.1,0.3-0.1c0.2,0,0.5,0.1,0.7,0.2s0.6,0.3,1,0.7l13.8,11.5
			l16.5-12.4c0.5-0.3,0.8-0.5,1-0.5C679.3-272,679.4-272.1,679.5-272.1z"/>
		<path class="st0" d="M666.8-289h12.8c0.1,0,0.3,0,0.4,0.1c0.1,0.1,0.2,0.2,0.3,0.4c0.1,0.2,0.1,0.4,0.2,0.7c0,0.3,0.1,0.7,0.1,1.1
			c0,0.4,0,0.8-0.1,1.1c0,0.3-0.1,0.5-0.2,0.7c-0.1,0.2-0.1,0.3-0.3,0.4c-0.1,0.1-0.2,0.1-0.4,0.1h-12.8l-19.6,9.8
			c-0.4,0.2-0.7,0.3-1,0.4s-0.4,0-0.5-0.1c-0.1-0.1-0.2-0.4-0.2-0.7c0-0.3-0.1-0.8-0.1-1.4c0-0.5,0-1,0.1-1.3c0-0.3,0.1-0.6,0.1-0.8
			c0.1-0.2,0.2-0.3,0.3-0.4s0.3-0.2,0.4-0.3l10-4.8c0.9-0.4,1.9-0.9,3-1.3s2.1-0.9,3.1-1.4v-0.1c-1-0.4-2-0.8-3-1.3s-2-0.9-3-1.3
			l-10-4.8c-0.2-0.1-0.3-0.1-0.5-0.2s-0.2-0.2-0.3-0.4c-0.1-0.2-0.1-0.4-0.1-0.7c0-0.3-0.1-0.7-0.1-1.2c0-0.6,0-1.1,0.1-1.5
			c0-0.4,0.1-0.6,0.3-0.8c0.1-0.1,0.3-0.2,0.5-0.1s0.5,0.2,0.9,0.4L666.8-289z"/>
		<path class="st0" d="M666.7-311.9c0.7,0,1.2,0.1,1.4,0.2c0.3,0.2,0.4,0.4,0.4,0.7v11.2c0,0.3-0.1,0.6-0.4,0.7
			c-0.3,0.2-0.8,0.2-1.4,0.2c-0.7,0-1.2-0.1-1.4-0.2c-0.3-0.2-0.4-0.4-0.4-0.7V-311c0-0.1,0-0.3,0.1-0.4s0.2-0.2,0.3-0.3
			c0.2-0.1,0.3-0.1,0.6-0.2C666.1-311.9,666.4-311.9,666.7-311.9z"/>
		<path class="st0" d="M662.9-339.7c2.7,0,5.1,0.2,7.3,0.6c2.2,0.4,4.1,1.1,5.7,2.1s2.8,2.2,3.7,3.8c0.9,1.6,1.3,3.5,1.3,5.8
			c0,2.2-0.4,4-1.2,5.5c-0.8,1.5-1.9,2.7-3.4,3.6c-1.5,0.9-3.4,1.6-5.6,1.9s-4.7,0.6-7.6,0.6c-2.6,0-5.1-0.2-7.3-0.6
			s-4.1-1.1-5.7-2.1c-1.6-1-2.8-2.2-3.7-3.8c-0.9-1.6-1.3-3.5-1.3-5.8c0-2.2,0.4-4,1.2-5.5s1.9-2.7,3.4-3.6c1.5-0.9,3.4-1.6,5.6-1.9
			C657.5-339.5,660-339.7,662.9-339.7z M663.2-335c-1.7,0-3.3,0.1-4.7,0.2c-1.4,0.1-2.6,0.3-3.6,0.5c-1.1,0.2-2,0.6-2.7,0.9
			c-0.8,0.4-1.4,0.8-1.9,1.4c-0.5,0.5-0.8,1.1-1.1,1.8c-0.2,0.7-0.3,1.5-0.3,2.3c0,1.5,0.4,2.8,1.1,3.7c0.7,0.9,1.7,1.7,3,2.2
			c1.3,0.5,2.7,0.9,4.4,1.1c1.7,0.2,3.5,0.3,5.4,0.3c2.6,0,4.8-0.1,6.6-0.4c1.8-0.3,3.3-0.7,4.4-1.3c1.1-0.6,2-1.3,2.5-2.2
			c0.5-0.9,0.8-2,0.8-3.3c0-1-0.2-1.9-0.5-2.6c-0.3-0.8-0.8-1.4-1.4-2c-0.6-0.5-1.3-1-2.2-1.4c-0.8-0.4-1.8-0.6-2.8-0.9
			c-1-0.2-2.1-0.4-3.3-0.4C665.7-335,664.5-335,663.2-335z"/>
		<path class="st0" d="M678.5-366.5c0.3,0,0.6,0,0.9,0.1s0.4,0.1,0.6,0.2c0.1,0.1,0.2,0.2,0.3,0.3s0.1,0.2,0.1,0.4v18.1
			c0,0.1,0,0.2-0.1,0.3c-0.1,0.1-0.2,0.2-0.3,0.3c-0.1,0.1-0.3,0.2-0.6,0.2s-0.5,0.1-0.9,0.1c-0.3,0-0.6,0-0.8-0.1s-0.4-0.1-0.6-0.2
			c-0.2-0.1-0.3-0.2-0.3-0.3c-0.1-0.1-0.1-0.2-0.1-0.4v-7.2h-26.4l4,6.7c0.2,0.3,0.3,0.6,0.3,0.8c0,0.2,0,0.4-0.1,0.5
			s-0.3,0.2-0.6,0.3c-0.3,0-0.6,0.1-1,0.1c-0.3,0-0.6,0-0.8,0c-0.2,0-0.4-0.1-0.5-0.1c-0.1-0.1-0.3-0.1-0.4-0.2
			c-0.1-0.1-0.2-0.2-0.3-0.4l-5.1-8c-0.1-0.1-0.1-0.2-0.1-0.3c0-0.1-0.1-0.2-0.1-0.4c0-0.2-0.1-0.3-0.1-0.6c0-0.2,0-0.5,0-0.8
			c0-0.4,0-0.8,0.1-1.1s0.1-0.5,0.1-0.7c0.1-0.2,0.1-0.3,0.2-0.3c0.1-0.1,0.2-0.1,0.3-0.1h30.5v-6.3c0-0.1,0-0.3,0.1-0.4
			c0.1-0.1,0.2-0.2,0.3-0.3c0.2-0.1,0.3-0.1,0.6-0.2S678.1-366.5,678.5-366.5z"/>
		<path class="st0" d="M661.6-394.5c1.5,0,3,0.1,4.6,0.3c1.5,0.2,3,0.5,4.4,0.9c1.4,0.4,2.8,1,4,1.7s2.3,1.6,3.3,2.7
			c0.9,1.1,1.7,2.4,2.2,3.9c0.5,1.5,0.8,3.3,0.8,5.3c0,0.8,0,1.5-0.1,2.2c-0.1,0.7-0.2,1.4-0.4,2s-0.3,1.1-0.5,1.5
			c-0.2,0.4-0.3,0.7-0.5,0.9s-0.4,0.3-0.7,0.4c-0.3,0.1-0.6,0.1-1.1,0.1c-0.4,0-0.7,0-0.9,0c-0.2,0-0.4-0.1-0.5-0.1
			s-0.2-0.1-0.3-0.2c0-0.1-0.1-0.2-0.1-0.4c0-0.2,0.1-0.5,0.2-0.8s0.3-0.8,0.4-1.4c0.2-0.5,0.3-1.2,0.4-1.9s0.2-1.6,0.2-2.5
			c0-1.7-0.3-3.2-1-4.5c-0.7-1.2-1.6-2.3-2.7-3c-1.1-0.8-2.4-1.4-3.9-1.8c-1.5-0.4-3-0.6-4.7-0.6c0.6,0.9,1,2.1,1.5,3.4
			c0.4,1.3,0.6,2.8,0.6,4.6c0,1.9-0.3,3.6-0.8,4.9c-0.5,1.3-1.2,2.4-2.2,3.2c-0.9,0.8-2,1.4-3.2,1.7s-2.6,0.5-4.1,0.5
			c-1.5,0-3-0.2-4.4-0.7c-1.4-0.4-2.6-1.1-3.7-2.1c-1.1-0.9-1.9-2.2-2.5-3.6c-0.6-1.5-0.9-3.2-0.9-5.3c0-1.4,0.2-2.7,0.5-3.8
			c0.4-1.1,0.9-2.1,1.6-2.9c0.7-0.8,1.5-1.5,2.5-2.1s2.1-1,3.3-1.4s2.6-0.6,4-0.8C658.5-394.4,660-394.5,661.6-394.5z M661.1-389.8
			c-2.3,0-4.2,0.2-5.8,0.5s-2.8,0.8-3.8,1.3c-1,0.6-1.7,1.3-2.1,2.2c-0.4,0.9-0.6,1.8-0.6,3c0,1.2,0.2,2.2,0.6,3
			c0.4,0.8,1,1.5,1.7,2s1.5,0.9,2.4,1.2c0.9,0.2,1.8,0.4,2.8,0.4c1.1,0,2-0.1,2.9-0.3s1.6-0.6,2.2-1.1c0.6-0.5,1.1-1.2,1.4-2
			c0.3-0.8,0.5-1.8,0.5-3c0-1.3-0.2-2.6-0.6-3.9C662.3-387.8,661.7-388.9,661.1-389.8z"/>
	</g>
	<g class="st11">
		<path class="st0" d="M409.9-6c0,1.6-0.3,3.1-0.9,4.3c-0.6,1.3-1.4,2.3-2.5,3.2s-2.3,1.6-3.8,2c-1.4,0.4-3,0.7-4.7,0.7
			c-1.2,0-2.2-0.1-3.2-0.3c-1-0.2-1.9-0.4-2.7-0.7c-0.8-0.3-1.4-0.6-2-0.9c-0.5-0.3-0.9-0.6-1.1-0.8s-0.4-0.5-0.5-0.8
			c-0.1-0.3-0.1-0.8-0.1-1.3c0-0.4,0-0.7,0.1-1c0-0.3,0.1-0.5,0.2-0.6s0.2-0.3,0.3-0.3s0.2-0.1,0.4-0.1c0.2,0,0.6,0.2,1.1,0.5
			c0.5,0.3,1,0.6,1.8,1c0.7,0.4,1.6,0.7,2.6,1c1,0.3,2.2,0.5,3.5,0.5c1,0,1.9-0.1,2.7-0.4c0.8-0.3,1.5-0.6,2.1-1.1
			c0.6-0.5,1.1-1.1,1.4-1.8c0.3-0.7,0.5-1.5,0.5-2.4c0-1-0.2-1.8-0.7-2.5c-0.4-0.7-1-1.3-1.8-1.8c-0.7-0.5-1.6-1-2.5-1.4
			c-0.9-0.4-1.9-0.9-2.9-1.3c-1-0.5-1.9-1-2.9-1.5c-0.9-0.6-1.8-1.2-2.5-2c-0.7-0.8-1.3-1.6-1.8-2.6c-0.5-1-0.7-2.2-0.7-3.6
			c0-1.4,0.3-2.7,0.8-3.9c0.5-1.1,1.3-2.1,2.2-2.9s2.1-1.4,3.4-1.8c1.3-0.4,2.7-0.6,4.2-0.6c0.8,0,1.5,0.1,2.3,0.2
			c0.8,0.1,1.5,0.3,2.2,0.5c0.7,0.2,1.3,0.5,1.8,0.8c0.5,0.3,0.9,0.5,1.1,0.7s0.3,0.3,0.3,0.4c0.1,0.1,0.1,0.2,0.1,0.4
			c0,0.2,0.1,0.3,0.1,0.5c0,0.2,0,0.5,0,0.8c0,0.3,0,0.6,0,0.9s-0.1,0.5-0.1,0.6c-0.1,0.2-0.1,0.3-0.2,0.4c-0.1,0.1-0.2,0.1-0.3,0.1
			c-0.2,0-0.5-0.1-0.9-0.4c-0.4-0.3-0.9-0.5-1.5-0.8c-0.6-0.3-1.3-0.6-2.2-0.9c-0.8-0.3-1.8-0.4-2.8-0.4c-1,0-1.8,0.1-2.5,0.4
			c-0.7,0.3-1.3,0.6-1.8,1s-0.8,0.9-1,1.5s-0.3,1.2-0.3,1.9c0,1,0.2,1.8,0.7,2.5c0.4,0.7,1,1.3,1.8,1.8c0.7,0.5,1.6,1,2.5,1.5
			c0.9,0.4,1.9,0.9,2.9,1.4c1,0.5,1.9,1,2.9,1.5c0.9,0.5,1.8,1.2,2.5,1.9c0.7,0.7,1.3,1.6,1.8,2.6C409.6-8.5,409.9-7.3,409.9-6z"/>
	</g>
	<g class="st11">
		<path class="st0" d="M481.7-11.3c0,0.3,0,0.6-0.1,0.9s-0.1,0.4-0.2,0.6c-0.1,0.2-0.2,0.3-0.3,0.3s-0.3,0.1-0.4,0.1h-8.8v9.8
			c0,0.1,0,0.3-0.1,0.4c-0.1,0.1-0.2,0.2-0.3,0.3c-0.2,0.1-0.4,0.1-0.6,0.2s-0.6,0.1-0.9,0.1c-0.4,0-0.7,0-0.9-0.1
			c-0.3,0-0.5-0.1-0.6-0.2c-0.2-0.1-0.3-0.2-0.3-0.3c-0.1-0.1-0.1-0.2-0.1-0.4v-9.8h-8.8c-0.2,0-0.3,0-0.4-0.1s-0.2-0.2-0.3-0.3
			c-0.1-0.2-0.2-0.4-0.2-0.6s-0.1-0.5-0.1-0.9c0-0.3,0-0.6,0.1-0.8s0.1-0.4,0.2-0.6c0.1-0.2,0.2-0.3,0.3-0.3s0.2-0.1,0.4-0.1h8.8
			V-23c0-0.1,0-0.3,0.1-0.4c0.1-0.1,0.2-0.2,0.3-0.3c0.2-0.1,0.4-0.1,0.6-0.2c0.3,0,0.6-0.1,0.9-0.1c0.4,0,0.7,0,0.9,0.1
			c0.2,0,0.5,0.1,0.6,0.2c0.2,0.1,0.3,0.2,0.3,0.3c0.1,0.1,0.1,0.2,0.1,0.4v9.8h8.8c0.1,0,0.3,0,0.4,0.1c0.1,0.1,0.2,0.2,0.3,0.3
			s0.2,0.4,0.2,0.6C481.7-11.9,481.7-11.6,481.7-11.3z"/>
	</g>
	<g class="st11">
		<path class="st0" d="M555.4-11.4c0,0.7-0.2,1.2-0.6,1.4c-0.4,0.3-1,0.4-1.8,0.4h-28.3c-0.8,0-1.4-0.1-1.8-0.4
			c-0.4-0.3-0.6-0.8-0.6-1.4c0-0.7,0.2-1.2,0.6-1.4c0.4-0.3,1-0.4,1.8-0.4h28.3c0.4,0,0.7,0,1,0.1c0.3,0.1,0.5,0.2,0.7,0.3
			c0.2,0.2,0.4,0.3,0.5,0.6C555.4-12,555.4-11.7,555.4-11.4z"/>
	</g>
	<g class="st11">
		<path class="st0" d="M201.1-652.1c-0.3,0-0.6,0-0.9-0.1s-0.4-0.1-0.6-0.2c-0.1-0.1-0.2-0.2-0.3-0.3s-0.1-0.2-0.1-0.3v-17.1
			c0-0.1,0-0.2,0.1-0.3c0.1-0.1,0.2-0.2,0.3-0.3c0.1-0.1,0.3-0.2,0.6-0.2c0.2-0.1,0.5-0.1,0.9-0.1c0.3,0,0.6,0,0.8,0.1
			c0.2,0,0.4,0.1,0.6,0.2c0.2,0.1,0.3,0.2,0.3,0.3c0.1,0.1,0.1,0.2,0.1,0.4v6.8h26.4l-4-6.3c-0.2-0.3-0.3-0.6-0.3-0.8
			c0-0.2,0-0.3,0.1-0.5s0.3-0.2,0.6-0.2c0.3,0,0.6-0.1,1-0.1c0.3,0,0.6,0,0.8,0c0.2,0,0.4,0.1,0.5,0.1c0.1,0.1,0.3,0.1,0.4,0.2
			c0.1,0.1,0.2,0.2,0.3,0.4l5.1,7.5c0.1,0.1,0.1,0.2,0.1,0.3c0,0.1,0.1,0.2,0.1,0.4c0,0.2,0.1,0.3,0.1,0.5s0,0.5,0,0.8
			c0,0.4,0,0.7-0.1,1c0,0.3-0.1,0.5-0.1,0.6s-0.1,0.3-0.2,0.3c-0.1,0-0.2,0.1-0.3,0.1H203v5.9c0,0.1,0,0.3-0.1,0.4
			c-0.1,0.1-0.2,0.2-0.3,0.3c-0.2,0.1-0.3,0.1-0.6,0.2S201.5-652.1,201.1-652.1z"/>
		<path class="st0" d="M216.8-624.8c-2.7,0-5.1-0.2-7.3-0.6c-2.2-0.4-4.1-1.1-5.7-2s-2.8-2.1-3.7-3.6s-1.3-3.3-1.3-5.5
			c0-2.1,0.4-3.8,1.2-5.2c0.8-1.4,1.9-2.5,3.4-3.4c1.5-0.9,3.4-1.5,5.6-1.8s4.7-0.5,7.6-0.5c2.6,0,5.1,0.2,7.3,0.6s4.1,1.1,5.7,2
			c1.6,0.9,2.8,2.1,3.7,3.6c0.9,1.5,1.3,3.3,1.3,5.5c0,2.1-0.4,3.8-1.2,5.2c-0.8,1.4-1.9,2.5-3.4,3.4c-1.5,0.9-3.4,1.5-5.6,1.8
			C222.1-625,219.6-624.8,216.8-624.8z M216.4-629.3c1.7,0,3.3-0.1,4.7-0.2c1.4-0.1,2.6-0.3,3.6-0.5c1.1-0.2,2-0.5,2.7-0.9
			c0.8-0.4,1.4-0.8,1.9-1.3c0.5-0.5,0.8-1.1,1.1-1.7c0.2-0.6,0.3-1.4,0.3-2.2c0-1.4-0.4-2.6-1.1-3.5c-0.7-0.9-1.7-1.6-3-2.1
			c-1.3-0.5-2.7-0.9-4.4-1c-1.7-0.2-3.5-0.3-5.4-0.3c-2.6,0-4.8,0.1-6.6,0.4c-1.8,0.3-3.3,0.7-4.4,1.2c-1.1,0.5-2,1.2-2.5,2.1
			s-0.8,1.9-0.8,3.1c0,0.9,0.2,1.8,0.5,2.5c0.3,0.7,0.8,1.3,1.4,1.8c0.6,0.5,1.3,0.9,2.2,1.3c0.8,0.3,1.8,0.6,2.8,0.8
			c1,0.2,2.1,0.3,3.3,0.4C213.9-629.3,215.1-629.3,216.4-629.3z"/>
		<path class="st0" d="M201-594.2c-0.4,0.1-0.7,0.2-1,0.2s-0.4-0.1-0.5-0.2s-0.2-0.4-0.2-0.7c0-0.3-0.1-0.7-0.1-1.3s0-0.9,0-1.3
			c0-0.3,0.1-0.5,0.1-0.7s0.1-0.3,0.3-0.4c0.1-0.1,0.2-0.1,0.4-0.2l8.4-2.8V-615l-8.3-2.7c-0.2-0.1-0.3-0.1-0.4-0.2
			c-0.1-0.1-0.2-0.2-0.3-0.4c-0.1-0.2-0.1-0.4-0.2-0.7c0-0.3-0.1-0.7-0.1-1.2c0-0.5,0-0.9,0.1-1.2c0-0.3,0.1-0.5,0.3-0.7
			c0.1-0.1,0.3-0.2,0.5-0.2s0.6,0.1,1,0.2l32.2,11c0.2,0.1,0.4,0.2,0.5,0.3s0.2,0.3,0.3,0.5s0.1,0.5,0.1,0.8c0,0.3,0,0.7,0,1.3
			c0,0.5,0,1,0,1.3c0,0.4-0.1,0.6-0.1,0.9s-0.2,0.4-0.3,0.5c-0.1,0.1-0.3,0.2-0.5,0.3L201-594.2z M229.4-608.2L229.4-608.2
			l-17.3-5.7v11.4L229.4-608.2z"/>
		<path class="st0" d="M201.3-558c-0.3,0-0.6,0-0.9-0.1s-0.5-0.1-0.6-0.2s-0.3-0.2-0.4-0.3c-0.1-0.1-0.1-0.3-0.1-0.4V-577
			c0-0.2,0-0.4,0.1-0.6c0.1-0.2,0.2-0.3,0.3-0.5c0.1-0.1,0.3-0.2,0.6-0.3c0.3-0.1,0.6-0.1,1-0.1c0.4,0,0.7,0,0.9,0
			c0.3,0,0.5,0.1,0.7,0.2c0.2,0.1,0.4,0.2,0.6,0.3c0.2,0.1,0.4,0.3,0.7,0.5l7.1,6.5c1.6,1.5,3.1,2.7,4.4,3.6s2.5,1.6,3.6,2.1
			s2,0.8,2.9,1c0.9,0.2,1.7,0.2,2.5,0.2s1.5-0.1,2.2-0.4c0.7-0.2,1.3-0.6,1.8-1.1s0.9-1,1.2-1.7c0.3-0.7,0.5-1.5,0.5-2.4
			c0-1.1-0.2-2-0.5-2.9s-0.6-1.6-1-2.2s-0.7-1.2-1-1.6s-0.5-0.7-0.5-1c0-0.1,0-0.2,0.1-0.3s0.2-0.2,0.3-0.2c0.2-0.1,0.4-0.1,0.6-0.1
			c0.3,0,0.6-0.1,1-0.1c0.3,0,0.5,0,0.7,0c0.2,0,0.4,0,0.5,0.1c0.1,0,0.3,0.1,0.4,0.2s0.3,0.2,0.5,0.4c0.2,0.2,0.4,0.6,0.8,1
			c0.3,0.5,0.6,1.1,1,1.9s0.6,1.6,0.8,2.5c0.2,0.9,0.3,1.8,0.3,2.8c0,1.6-0.2,3-0.7,4.2c-0.5,1.2-1.1,2.2-1.9,3s-1.8,1.4-2.9,1.8
			c-1.1,0.4-2.3,0.6-3.5,0.6c-1.1,0-2.2-0.1-3.3-0.3s-2.3-0.6-3.6-1.2s-2.7-1.5-4.3-2.6c-1.6-1.1-3.4-2.6-5.4-4.5l-5.7-5.2v14.2
			c0,0.1,0,0.3-0.1,0.4c-0.1,0.1-0.2,0.2-0.4,0.3c-0.2,0.1-0.4,0.2-0.6,0.2S201.6-558,201.3-558z"/>
		<path class="st0" d="M210.5-531.9c-1.9,0-3.5-0.3-5-0.9c-1.4-0.6-2.7-1.4-3.7-2.5c-1-1.1-1.7-2.4-2.3-3.9c-0.5-1.5-0.8-3.1-0.8-5
			c0-1,0.1-2,0.2-2.9c0.2-0.9,0.3-1.7,0.6-2.4s0.4-1.3,0.7-1.7c0.2-0.5,0.4-0.7,0.5-0.9c0.1-0.1,0.2-0.2,0.3-0.3
			c0.1-0.1,0.2-0.1,0.4-0.1c0.2,0,0.3-0.1,0.6-0.1s0.5,0,0.8,0c0.3,0,0.6,0,0.8,0s0.4,0.1,0.6,0.1c0.2,0.1,0.3,0.1,0.3,0.2
			c0.1,0.1,0.1,0.2,0.1,0.3c0,0.2-0.1,0.4-0.3,0.8c-0.2,0.4-0.5,0.8-0.7,1.4c-0.3,0.6-0.5,1.3-0.7,2.2c-0.2,0.9-0.3,1.9-0.3,3.1
			c0,1.1,0.1,2.2,0.4,3.1c0.3,0.9,0.7,1.8,1.3,2.4c0.6,0.7,1.4,1.2,2.3,1.6s2,0.6,3.4,0.6c1.1,0,2.1-0.2,2.9-0.5
			c0.8-0.3,1.6-0.8,2.1-1.5c0.6-0.7,1-1.5,1.3-2.6s0.4-2.3,0.4-3.7c0-1-0.1-1.9-0.2-2.7s-0.2-1.4-0.2-2.1c0-0.5,0.1-0.8,0.3-1
			s0.7-0.3,1.3-0.3h14.1c0.6,0,1,0.1,1.3,0.4c0.3,0.3,0.4,0.6,0.4,1.1v14.5c0,0.1,0,0.3-0.1,0.4c-0.1,0.1-0.2,0.2-0.4,0.3
			c-0.2,0.1-0.4,0.1-0.6,0.2s-0.5,0.1-0.9,0.1c-0.6,0-1.1-0.1-1.5-0.2s-0.5-0.4-0.5-0.7v-11.7h-9.7c0.1,0.6,0.1,1.1,0.2,1.7
			c0,0.6,0,1.3,0,2.1c0,1.8-0.2,3.4-0.7,4.7c-0.5,1.3-1.1,2.5-2,3.4c-0.9,0.9-1.9,1.6-3.2,2S212-531.9,210.5-531.9z"/>
		<path class="st0" d="M216.8-504.4c-2.7,0-5.1-0.2-7.3-0.6c-2.2-0.4-4.1-1.1-5.7-2s-2.8-2.1-3.7-3.6c-0.9-1.5-1.3-3.3-1.3-5.5
			c0-2.1,0.4-3.8,1.2-5.2c0.8-1.4,1.9-2.5,3.4-3.4c1.5-0.9,3.4-1.5,5.6-1.8s4.7-0.5,7.6-0.5c2.6,0,5.1,0.2,7.3,0.6s4.1,1.1,5.7,2
			c1.6,0.9,2.8,2.1,3.7,3.6c0.9,1.5,1.3,3.3,1.3,5.5c0,2.1-0.4,3.8-1.2,5.2c-0.8,1.4-1.9,2.5-3.4,3.4c-1.5,0.9-3.4,1.5-5.6,1.8
			C222.1-504.6,219.6-504.4,216.8-504.4z M216.4-508.8c1.7,0,3.3-0.1,4.7-0.2c1.4-0.1,2.6-0.3,3.6-0.5c1.1-0.2,2-0.5,2.7-0.9
			c0.8-0.4,1.4-0.8,1.9-1.3c0.5-0.5,0.8-1.1,1.1-1.7c0.2-0.6,0.3-1.4,0.3-2.2c0-1.4-0.4-2.6-1.1-3.5c-0.7-0.9-1.7-1.6-3-2.1
			c-1.3-0.5-2.7-0.9-4.4-1c-1.7-0.2-3.5-0.3-5.4-0.3c-2.6,0-4.8,0.1-6.6,0.4c-1.8,0.3-3.3,0.7-4.4,1.2c-1.1,0.5-2,1.2-2.5,2.1
			s-0.8,1.9-0.8,3.1c0,0.9,0.2,1.8,0.5,2.5c0.3,0.7,0.8,1.3,1.4,1.8c0.6,0.5,1.3,0.9,2.2,1.3c0.8,0.3,1.8,0.6,2.8,0.8
			c1,0.2,2.1,0.3,3.3,0.4C213.9-508.9,215.1-508.8,216.4-508.8z"/>
		<path class="st0" d="M200.1-485c-0.2-0.1-0.4-0.2-0.5-0.3c-0.1-0.1-0.2-0.3-0.3-0.5c-0.1-0.2-0.1-0.5-0.1-0.8c0-0.3,0-0.7,0-1.2
			c0-0.4,0-0.7,0-1s0-0.5,0.1-0.7s0.1-0.4,0.1-0.5c0-0.1,0.1-0.3,0.2-0.4c0.1-0.1,0.2-0.2,0.3-0.2c0.1-0.1,0.2-0.1,0.4-0.2
			l32.2-10.7c0.4-0.1,0.7-0.2,1-0.2s0.4,0.1,0.5,0.2c0.1,0.2,0.2,0.4,0.2,0.7c0,0.3,0.1,0.8,0.1,1.4c0,0.5,0,0.8,0,1.1
			c0,0.3-0.1,0.5-0.1,0.6c-0.1,0.2-0.2,0.3-0.3,0.3c-0.1,0.1-0.3,0.1-0.4,0.2l-29.2,9.4v0l29.1,9.1c0.2,0.1,0.4,0.1,0.5,0.2
			s0.2,0.2,0.3,0.4c0.1,0.2,0.1,0.4,0.1,0.7c0,0.3,0,0.7,0,1.2c0,0.5,0,0.9-0.1,1.2c0,0.3-0.1,0.5-0.3,0.6s-0.3,0.2-0.5,0.1
			c-0.2,0-0.6-0.1-1-0.2L200.1-485z"/>
		<path class="st0" d="M201-446.8c-0.4,0.1-0.7,0.2-1,0.2s-0.4-0.1-0.5-0.2s-0.2-0.4-0.2-0.7c0-0.3-0.1-0.7-0.1-1.3s0-0.9,0-1.3
			c0-0.3,0.1-0.5,0.1-0.7s0.1-0.3,0.3-0.4c0.1-0.1,0.2-0.1,0.4-0.2l8.4-2.8v-13.6l-8.3-2.7c-0.2-0.1-0.3-0.1-0.4-0.2
			c-0.1-0.1-0.2-0.2-0.3-0.4c-0.1-0.2-0.1-0.4-0.2-0.7c0-0.3-0.1-0.7-0.1-1.2c0-0.5,0-0.9,0.1-1.2c0-0.3,0.1-0.5,0.3-0.7
			c0.1-0.1,0.3-0.2,0.5-0.2s0.6,0.1,1,0.2l32.2,11c0.2,0.1,0.4,0.2,0.5,0.3s0.2,0.3,0.3,0.5s0.1,0.5,0.1,0.8c0,0.3,0,0.7,0,1.3
			c0,0.5,0,1,0,1.3c0,0.4-0.1,0.6-0.1,0.9s-0.2,0.4-0.3,0.5c-0.1,0.1-0.3,0.2-0.5,0.3L201-446.8z M229.4-460.9L229.4-460.9
			l-17.3-5.7v11.4L229.4-460.9z"/>
		<path class="st0" d="M204.2-419.8c-0.3,0-0.5,0-0.8,0s-0.4,0-0.6-0.1c-0.2,0-0.3-0.1-0.4-0.2s-0.3-0.2-0.5-0.4
			c-0.2-0.2-0.5-0.5-0.8-1.1c-0.4-0.5-0.7-1.2-1.1-2c-0.3-0.8-0.6-1.7-0.9-2.8c-0.2-1-0.4-2.2-0.4-3.4c0-2.1,0.4-4,1.1-5.8
			c0.8-1.7,1.9-3.2,3.3-4.4c1.5-1.2,3.3-2.1,5.4-2.8c2.2-0.6,4.6-1,7.4-1c2.9,0,5.4,0.3,7.7,1c2.3,0.7,4.2,1.7,5.7,2.9
			c1.6,1.3,2.8,2.8,3.6,4.5s1.2,3.7,1.2,5.9c0,0.9-0.1,1.9-0.3,2.8s-0.4,1.7-0.7,2.5c-0.3,0.8-0.6,1.4-1,2c-0.4,0.6-0.7,1-0.9,1.2
			s-0.4,0.4-0.5,0.4s-0.3,0.1-0.4,0.2s-0.4,0.1-0.6,0.1s-0.5,0-0.8,0c-0.4,0-0.7,0-0.9-0.1c-0.3,0-0.5-0.1-0.6-0.2
			c-0.2-0.1-0.3-0.1-0.4-0.2c-0.1-0.1-0.1-0.2-0.1-0.3c0-0.2,0.2-0.6,0.5-1s0.7-1,1.2-1.6s0.8-1.5,1.2-2.4s0.5-2.1,0.5-3.4
			c0-1.5-0.3-2.8-0.9-4c-0.6-1.2-1.5-2.2-2.7-3.1c-1.2-0.8-2.7-1.5-4.4-2c-1.7-0.5-3.7-0.7-5.9-0.7c-2.2,0-4.1,0.2-5.8,0.7
			s-3.1,1.1-4.2,1.9c-1.1,0.8-2,1.9-2.6,3.1c-0.6,1.2-0.9,2.6-0.9,4.1c0,1.3,0.2,2.4,0.5,3.4c0.3,1,0.7,1.8,1.1,2.5s0.8,1.2,1.1,1.7
			c0.3,0.4,0.5,0.8,0.5,1c0,0.1,0,0.2-0.1,0.3c-0.1,0.1-0.2,0.2-0.3,0.2c-0.2,0.1-0.4,0.1-0.6,0.1
			C205-419.9,204.6-419.8,204.2-419.8z"/>
		<path class="st0" d="M201.1-383.3c-0.3,0-0.6,0-0.9-0.1s-0.4-0.1-0.6-0.2c-0.1-0.1-0.2-0.2-0.3-0.3s-0.1-0.2-0.1-0.3v-17.1
			c0-0.1,0-0.2,0.1-0.3c0.1-0.1,0.2-0.2,0.3-0.3c0.1-0.1,0.3-0.2,0.6-0.2c0.2-0.1,0.5-0.1,0.9-0.1c0.3,0,0.6,0,0.8,0.1
			c0.2,0,0.4,0.1,0.6,0.2c0.2,0.1,0.3,0.2,0.3,0.3c0.1,0.1,0.1,0.2,0.1,0.4v6.8h26.4l-4-6.3c-0.2-0.3-0.3-0.6-0.3-0.8
			c0-0.2,0-0.3,0.1-0.5s0.3-0.2,0.6-0.2c0.3,0,0.6-0.1,1-0.1c0.3,0,0.6,0,0.8,0c0.2,0,0.4,0.1,0.5,0.1c0.1,0.1,0.3,0.1,0.4,0.2
			c0.1,0.1,0.2,0.2,0.3,0.4l5.1,7.5c0.1,0.1,0.1,0.2,0.1,0.3c0,0.1,0.1,0.2,0.1,0.4c0,0.2,0.1,0.3,0.1,0.5s0,0.5,0,0.8
			c0,0.4,0,0.7-0.1,1c0,0.3-0.1,0.5-0.1,0.6s-0.1,0.3-0.2,0.3c-0.1,0-0.2,0.1-0.3,0.1H203v5.9c0,0.1,0,0.3-0.1,0.4
			c-0.1,0.1-0.2,0.2-0.3,0.3c-0.2,0.1-0.3,0.1-0.6,0.2S201.5-383.3,201.1-383.3z"/>
		<path class="st0" d="M216.8-356c-2.7,0-5.1-0.2-7.3-0.6c-2.2-0.4-4.1-1.1-5.7-2s-2.8-2.1-3.7-3.6s-1.3-3.3-1.3-5.5
			c0-2.1,0.4-3.8,1.2-5.2c0.8-1.4,1.9-2.5,3.4-3.4c1.5-0.9,3.4-1.5,5.6-1.8s4.7-0.5,7.6-0.5c2.6,0,5.1,0.2,7.3,0.6s4.1,1.1,5.7,2
			c1.6,0.9,2.8,2.1,3.7,3.6c0.9,1.5,1.3,3.3,1.3,5.5c0,2.1-0.4,3.8-1.2,5.2c-0.8,1.4-1.9,2.5-3.4,3.4c-1.5,0.9-3.4,1.5-5.6,1.8
			C222.1-356.2,219.6-356,216.8-356z M216.4-360.5c1.7,0,3.3-0.1,4.7-0.2c1.4-0.1,2.6-0.3,3.6-0.5c1.1-0.2,2-0.5,2.7-0.9
			c0.8-0.4,1.4-0.8,1.9-1.3c0.5-0.5,0.8-1.1,1.1-1.7c0.2-0.6,0.3-1.4,0.3-2.2c0-1.4-0.4-2.6-1.1-3.5c-0.7-0.9-1.7-1.6-3-2.1
			c-1.3-0.5-2.7-0.9-4.4-1c-1.7-0.2-3.5-0.3-5.4-0.3c-2.6,0-4.8,0.1-6.6,0.4c-1.8,0.3-3.3,0.7-4.4,1.2c-1.1,0.5-2,1.2-2.5,2.1
			s-0.8,1.9-0.8,3.1c0,0.9,0.2,1.8,0.5,2.5c0.3,0.7,0.8,1.3,1.4,1.8c0.6,0.5,1.3,0.9,2.2,1.3c0.8,0.3,1.8,0.6,2.8,0.8
			c1,0.2,2.1,0.3,3.3,0.4C213.9-360.5,215.1-360.5,216.4-360.5z"/>
		<path class="st0" d="M200-333.2c-0.2,0-0.4-0.1-0.5-0.2c-0.1-0.1-0.2-0.3-0.2-0.6s-0.1-0.6-0.1-1c0-0.4,0-0.8,0.1-1
			c0.1-0.3,0.1-0.5,0.2-0.6s0.3-0.2,0.5-0.2h2.4c-1.1-1-2-2.1-2.6-3.3c-0.6-1.2-0.9-2.5-0.9-3.9c0-1.2,0.2-2.3,0.5-3.2
			c0.3-1,0.8-1.8,1.4-2.5s1.4-1.2,2.3-1.6c0.9-0.4,1.9-0.6,3.1-0.6c1.4,0,2.5,0.3,3.5,0.8s1.8,1.3,2.5,2.3c0.7,1,1.2,2.2,1.5,3.6
			c0.3,1.4,0.5,3,0.5,4.8v3.1h1.9c0.9,0,1.8-0.1,2.5-0.3s1.3-0.5,1.8-0.9s0.8-0.9,1.1-1.6s0.4-1.5,0.4-2.4c0-1-0.1-2-0.4-2.8
			c-0.3-0.8-0.5-1.5-0.9-2.1c-0.3-0.6-0.6-1.1-0.9-1.5c-0.3-0.4-0.4-0.7-0.4-0.9c0-0.1,0-0.3,0.1-0.4c0.1-0.1,0.2-0.2,0.3-0.3
			c0.1-0.1,0.3-0.1,0.5-0.2c0.2,0,0.5,0,0.7,0c0.4,0,0.8,0,1.1,0.1c0.3,0.1,0.5,0.2,0.7,0.4c0.2,0.2,0.5,0.6,0.8,1.2
			c0.3,0.6,0.6,1.2,0.9,1.9c0.3,0.7,0.5,1.5,0.6,2.4c0.2,0.9,0.3,1.7,0.3,2.6c0,1.6-0.2,3-0.6,4.2c-0.4,1.1-1,2.1-1.7,2.8
			c-0.8,0.7-1.7,1.2-2.8,1.5s-2.4,0.5-3.9,0.5H200z M211-337.4v-3.6c0-1.1-0.1-2.1-0.3-3c-0.2-0.8-0.5-1.5-0.9-2.1
			c-0.4-0.6-0.9-1-1.4-1.2c-0.6-0.3-1.2-0.4-1.9-0.4c-1.3,0-2.2,0.4-3,1.1c-0.7,0.8-1.1,1.8-1.1,3.1c0,1.1,0.3,2.1,0.9,3
			s1.5,1.9,2.7,2.9H211z"/>
		<path class="st0" d="M201.1-294.3c-0.3,0-0.6,0-0.9-0.1s-0.4-0.1-0.6-0.2c-0.1-0.1-0.2-0.2-0.3-0.3s-0.1-0.2-0.1-0.3v-17.1
			c0-0.1,0-0.2,0.1-0.3c0.1-0.1,0.2-0.2,0.3-0.3c0.1-0.1,0.3-0.2,0.6-0.2c0.2-0.1,0.5-0.1,0.9-0.1c0.3,0,0.6,0,0.8,0.1
			c0.2,0,0.4,0.1,0.6,0.2c0.2,0.1,0.3,0.2,0.3,0.3c0.1,0.1,0.1,0.2,0.1,0.4v6.8h26.4l-4-6.3c-0.2-0.3-0.3-0.6-0.3-0.8
			c0-0.2,0-0.3,0.1-0.5s0.3-0.2,0.6-0.2c0.3,0,0.6-0.1,1-0.1c0.3,0,0.6,0,0.8,0c0.2,0,0.4,0.1,0.5,0.1c0.1,0.1,0.3,0.1,0.4,0.2
			c0.1,0.1,0.2,0.2,0.3,0.4l5.1,7.5c0.1,0.1,0.1,0.2,0.1,0.3c0,0.1,0.1,0.2,0.1,0.4c0,0.2,0.1,0.3,0.1,0.5s0,0.5,0,0.8
			c0,0.4,0,0.7-0.1,1c0,0.3-0.1,0.5-0.1,0.6s-0.1,0.3-0.2,0.3c-0.1,0-0.2,0.1-0.3,0.1H203v5.9c0,0.1,0,0.3-0.1,0.4
			c-0.1,0.1-0.2,0.2-0.3,0.3c-0.2,0.1-0.3,0.1-0.6,0.2S201.5-294.3,201.1-294.3z"/>
		<path class="st0" d="M201.3-268.1c-0.3,0-0.6,0-0.9-0.1s-0.5-0.1-0.6-0.2s-0.3-0.2-0.4-0.3c-0.1-0.1-0.1-0.3-0.1-0.4v-18.1
			c0-0.2,0-0.4,0.1-0.6c0.1-0.2,0.2-0.3,0.3-0.5c0.1-0.1,0.3-0.2,0.6-0.3c0.3-0.1,0.6-0.1,1-0.1c0.4,0,0.7,0,0.9,0
			c0.3,0,0.5,0.1,0.7,0.2c0.2,0.1,0.4,0.2,0.6,0.3c0.2,0.1,0.4,0.3,0.7,0.5l7.1,6.5c1.6,1.5,3.1,2.7,4.4,3.6s2.5,1.6,3.6,2.1
			s2,0.8,2.9,1c0.9,0.2,1.7,0.2,2.5,0.2s1.5-0.1,2.2-0.4c0.7-0.2,1.3-0.6,1.8-1.1s0.9-1,1.2-1.7c0.3-0.7,0.5-1.5,0.5-2.4
			c0-1.1-0.2-2-0.5-2.9s-0.6-1.6-1-2.2s-0.7-1.2-1-1.6s-0.5-0.7-0.5-1c0-0.1,0-0.2,0.1-0.3s0.2-0.2,0.3-0.2c0.2-0.1,0.4-0.1,0.6-0.1
			c0.3,0,0.6-0.1,1-0.1c0.3,0,0.5,0,0.7,0c0.2,0,0.4,0,0.5,0.1c0.1,0,0.3,0.1,0.4,0.2s0.3,0.2,0.5,0.4c0.2,0.2,0.4,0.6,0.8,1
			c0.3,0.5,0.6,1.1,1,1.9s0.6,1.6,0.8,2.5c0.2,0.9,0.3,1.8,0.3,2.8c0,1.6-0.2,3-0.7,4.2c-0.5,1.2-1.1,2.2-1.9,3s-1.8,1.4-2.9,1.8
			c-1.1,0.4-2.3,0.6-3.5,0.6c-1.1,0-2.2-0.1-3.3-0.3s-2.3-0.6-3.6-1.2s-2.7-1.5-4.3-2.6c-1.6-1.1-3.4-2.6-5.4-4.5l-5.7-5.2v14.2
			c0,0.1,0,0.3-0.1,0.4c-0.1,0.1-0.2,0.2-0.4,0.3c-0.2,0.1-0.4,0.2-0.6,0.2S201.6-268.1,201.3-268.1z"/>
		<path class="st0" d="M209.2-240.5c-0.6,0-1.1-0.1-1.4-0.3c-0.3-0.2-0.5-0.4-0.5-0.7v-3.7H200c-0.1,0-0.3,0-0.4-0.1
			c-0.1-0.1-0.2-0.2-0.3-0.4s-0.1-0.4-0.2-0.7c0-0.3-0.1-0.6-0.1-1.1c0-0.4,0-0.8,0.1-1c0-0.3,0.1-0.5,0.2-0.7s0.2-0.3,0.3-0.3
			c0.1-0.1,0.2-0.1,0.4-0.1h7.3v-13.4c0-0.2,0-0.4,0.1-0.5s0.2-0.3,0.3-0.4c0.1-0.1,0.3-0.2,0.6-0.2c0.3,0,0.6-0.1,1-0.1
			c0.3,0,0.6,0,0.9,0c0.3,0,0.5,0.1,0.7,0.1s0.4,0.1,0.6,0.2s0.4,0.2,0.7,0.3l21.1,11.7c0.1,0.1,0.3,0.2,0.4,0.4s0.2,0.4,0.3,0.6
			s0.1,0.6,0.1,1c0,0.4,0,0.8,0,1.3c0,0.6,0,1.1-0.1,1.5c0,0.4-0.1,0.8-0.2,1c-0.1,0.3-0.2,0.5-0.3,0.6c-0.1,0.1-0.3,0.2-0.4,0.2
			h-22.1v3.7c0,0.3-0.2,0.5-0.5,0.7C210.3-240.5,209.8-240.5,209.2-240.5z M230.1-249.5L230.1-249.5l-19-10.6v10.6H230.1z"/>
		<path class="st0" d="M200.1-221.4c-0.2-0.1-0.4-0.2-0.5-0.3c-0.1-0.1-0.2-0.3-0.3-0.5c-0.1-0.2-0.1-0.5-0.1-0.8c0-0.3,0-0.7,0-1.2
			c0-0.4,0-0.7,0-1s0-0.5,0.1-0.7s0.1-0.4,0.1-0.5c0-0.1,0.1-0.3,0.2-0.4c0.1-0.1,0.2-0.2,0.3-0.2c0.1-0.1,0.2-0.1,0.4-0.2
			l32.2-10.7c0.4-0.1,0.7-0.2,1-0.2s0.4,0.1,0.5,0.2c0.1,0.2,0.2,0.4,0.2,0.7c0,0.3,0.1,0.8,0.1,1.4c0,0.5,0,0.8,0,1.1
			c0,0.3-0.1,0.5-0.1,0.6c-0.1,0.2-0.2,0.3-0.3,0.3c-0.1,0.1-0.3,0.1-0.4,0.2l-29.2,9.4v0l29.1,9.1c0.2,0.1,0.4,0.1,0.5,0.2
			s0.2,0.2,0.3,0.4c0.1,0.2,0.1,0.4,0.1,0.7c0,0.3,0,0.7,0,1.2c0,0.5,0,0.9-0.1,1.2c0,0.3-0.1,0.5-0.3,0.6s-0.3,0.2-0.5,0.1
			c-0.2,0-0.6-0.1-1-0.2L200.1-221.4z"/>
		<path class="st0" d="M201-183.2c-0.4,0.1-0.7,0.2-1,0.2s-0.4-0.1-0.5-0.2s-0.2-0.4-0.2-0.7c0-0.3-0.1-0.7-0.1-1.3s0-0.9,0-1.3
			c0-0.3,0.1-0.5,0.1-0.7s0.1-0.3,0.3-0.4c0.1-0.1,0.2-0.1,0.4-0.2l8.4-2.8V-204l-8.3-2.7c-0.2-0.1-0.3-0.1-0.4-0.2
			c-0.1-0.1-0.2-0.2-0.3-0.4c-0.1-0.2-0.1-0.4-0.2-0.7c0-0.3-0.1-0.7-0.1-1.2c0-0.5,0-0.9,0.1-1.2c0-0.3,0.1-0.5,0.3-0.7
			c0.1-0.1,0.3-0.2,0.5-0.2s0.6,0.1,1,0.2l32.2,11c0.2,0.1,0.4,0.2,0.5,0.3s0.2,0.3,0.3,0.5s0.1,0.5,0.1,0.8c0,0.3,0,0.7,0,1.3
			c0,0.5,0,1,0,1.3c0,0.4-0.1,0.6-0.1,0.9s-0.2,0.4-0.3,0.5c-0.1,0.1-0.3,0.2-0.5,0.3L201-183.2z M229.4-197.2L229.4-197.2
			l-17.3-5.7v11.4L229.4-197.2z"/>
		<path class="st0" d="M204.2-156.2c-0.3,0-0.5,0-0.8,0s-0.4,0-0.6-0.1c-0.2,0-0.3-0.1-0.4-0.2s-0.3-0.2-0.5-0.4
			c-0.2-0.2-0.5-0.5-0.8-1.1c-0.4-0.5-0.7-1.2-1.1-2c-0.3-0.8-0.6-1.7-0.9-2.8c-0.2-1-0.4-2.2-0.4-3.4c0-2.1,0.4-4,1.1-5.8
			c0.8-1.7,1.9-3.2,3.3-4.4c1.5-1.2,3.3-2.1,5.4-2.8c2.2-0.6,4.6-1,7.4-1c2.9,0,5.4,0.3,7.7,1c2.3,0.7,4.2,1.7,5.7,2.9
			c1.6,1.3,2.8,2.8,3.6,4.5s1.2,3.7,1.2,5.9c0,0.9-0.1,1.9-0.3,2.8s-0.4,1.7-0.7,2.5c-0.3,0.8-0.6,1.4-1,2c-0.4,0.6-0.7,1-0.9,1.2
			s-0.4,0.4-0.5,0.4s-0.3,0.1-0.4,0.2s-0.4,0.1-0.6,0.1s-0.5,0-0.8,0c-0.4,0-0.7,0-0.9-0.1c-0.3,0-0.5-0.1-0.6-0.2
			c-0.2-0.1-0.3-0.1-0.4-0.2c-0.1-0.1-0.1-0.2-0.1-0.3c0-0.2,0.2-0.6,0.5-1s0.7-1,1.2-1.6s0.8-1.5,1.2-2.4s0.5-2.1,0.5-3.4
			c0-1.5-0.3-2.8-0.9-4c-0.6-1.2-1.5-2.2-2.7-3.1c-1.2-0.8-2.7-1.5-4.4-2c-1.7-0.5-3.7-0.7-5.9-0.7c-2.2,0-4.1,0.2-5.8,0.7
			s-3.1,1.1-4.2,1.9c-1.1,0.8-2,1.9-2.6,3.1c-0.6,1.2-0.9,2.6-0.9,4.1c0,1.3,0.2,2.4,0.5,3.4c0.3,1,0.7,1.8,1.1,2.5s0.8,1.2,1.1,1.7
			c0.3,0.4,0.5,0.8,0.5,1c0,0.1,0,0.2-0.1,0.3c-0.1,0.1-0.2,0.2-0.3,0.2c-0.2,0.1-0.4,0.1-0.6,0.1
			C205-156.2,204.6-156.2,204.2-156.2z"/>
	</g>
	<g class="st11">
		<path class="st0" d="M137.7-651.9c-0.3,0-0.6,0-0.9-0.1s-0.4-0.1-0.6-0.2c-0.1-0.1-0.2-0.2-0.3-0.3s-0.1-0.2-0.1-0.4V-671
			c0-0.1,0-0.2,0.1-0.3c0.1-0.1,0.2-0.2,0.3-0.3c0.1-0.1,0.3-0.2,0.6-0.2s0.5-0.1,0.9-0.1c0.3,0,0.6,0,0.8,0.1s0.4,0.1,0.6,0.2
			c0.2,0.1,0.3,0.2,0.3,0.3c0.1,0.1,0.1,0.2,0.1,0.4v7.2h26.4l-4-6.7c-0.2-0.3-0.3-0.6-0.3-0.8c0-0.2,0-0.4,0.1-0.5s0.3-0.2,0.6-0.3
			c0.3,0,0.6-0.1,1-0.1c0.3,0,0.6,0,0.8,0c0.2,0,0.4,0.1,0.5,0.1c0.1,0.1,0.3,0.1,0.4,0.2c0.1,0.1,0.2,0.2,0.3,0.4l5.1,8
			c0.1,0.1,0.1,0.2,0.1,0.3c0,0.1,0.1,0.2,0.1,0.4c0,0.2,0.1,0.3,0.1,0.6c0,0.2,0,0.5,0,0.8c0,0.4,0,0.8-0.1,1.1s-0.1,0.5-0.1,0.7
			c-0.1,0.2-0.1,0.3-0.2,0.3c-0.1,0.1-0.2,0.1-0.3,0.1h-30.5v6.3c0,0.1,0,0.3-0.1,0.4c-0.1,0.1-0.2,0.2-0.3,0.3
			c-0.2,0.1-0.3,0.1-0.6,0.2S138-651.9,137.7-651.9z"/>
		<path class="st0" d="M153.3-623c-2.7,0-5.1-0.2-7.3-0.6c-2.2-0.4-4.1-1.1-5.7-2.1s-2.8-2.2-3.7-3.8c-0.9-1.6-1.3-3.5-1.3-5.8
			c0-2.2,0.4-4,1.2-5.5c0.8-1.5,1.9-2.7,3.4-3.6c1.5-0.9,3.4-1.6,5.6-1.9s4.7-0.6,7.6-0.6c2.6,0,5.1,0.2,7.3,0.6s4.1,1.1,5.7,2.1
			c1.6,1,2.8,2.2,3.7,3.8c0.9,1.6,1.3,3.5,1.3,5.8c0,2.2-0.4,4-1.2,5.5s-1.9,2.7-3.4,3.6c-1.5,0.9-3.4,1.6-5.6,1.9
			C158.7-623.2,156.1-623,153.3-623z M152.9-627.7c1.7,0,3.3-0.1,4.7-0.2c1.4-0.1,2.6-0.3,3.6-0.5c1.1-0.2,2-0.6,2.7-0.9
			c0.8-0.4,1.4-0.8,1.9-1.4c0.5-0.5,0.8-1.1,1.1-1.8c0.2-0.7,0.3-1.5,0.3-2.3c0-1.5-0.4-2.8-1.1-3.7c-0.7-0.9-1.7-1.7-3-2.2
			c-1.3-0.5-2.7-0.9-4.4-1.1c-1.7-0.2-3.5-0.3-5.4-0.3c-2.6,0-4.8,0.1-6.6,0.4c-1.8,0.3-3.3,0.7-4.4,1.3c-1.1,0.6-2,1.3-2.5,2.2
			c-0.5,0.9-0.8,2-0.8,3.3c0,1,0.2,1.9,0.5,2.6c0.3,0.8,0.8,1.4,1.4,2c0.6,0.5,1.3,1,2.2,1.4c0.8,0.4,1.8,0.6,2.8,0.9
			c1,0.2,2.1,0.4,3.3,0.4C150.4-627.8,151.7-627.7,152.9-627.7z"/>
		<path class="st0" d="M137.5-590.5c-0.4,0.1-0.7,0.2-1,0.2s-0.4-0.1-0.5-0.2c-0.1-0.1-0.2-0.4-0.2-0.7c0-0.3-0.1-0.8-0.1-1.3
			c0-0.6,0-1,0-1.3c0-0.3,0.1-0.6,0.1-0.8c0.1-0.2,0.1-0.3,0.3-0.4c0.1-0.1,0.2-0.2,0.4-0.2l8.4-3v-14.4l-8.3-2.8
			c-0.2-0.1-0.3-0.1-0.4-0.2c-0.1-0.1-0.2-0.2-0.3-0.4c-0.1-0.2-0.1-0.4-0.2-0.7c0-0.3-0.1-0.7-0.1-1.2c0-0.5,0-0.9,0.1-1.3
			c0-0.3,0.1-0.6,0.3-0.7c0.1-0.1,0.3-0.2,0.5-0.2c0.2,0,0.6,0.1,1,0.2l32.2,11.6c0.2,0.1,0.4,0.2,0.5,0.3s0.2,0.3,0.3,0.5
			c0.1,0.2,0.1,0.5,0.1,0.9c0,0.3,0,0.8,0,1.3c0,0.6,0,1,0,1.4c0,0.4-0.1,0.7-0.1,0.9s-0.2,0.4-0.3,0.5c-0.1,0.1-0.3,0.2-0.5,0.3
			L137.5-590.5z M165.9-605.4L165.9-605.4l-17.3-6v12.1L165.9-605.4z"/>
		<path class="st0" d="M145.8-552.4c-1.6,0-3-0.3-4.3-0.8c-1.3-0.6-2.4-1.3-3.3-2.4c-0.9-1-1.6-2.3-2.1-3.8
			c-0.5-1.5-0.7-3.2-0.7-5.1c0-1.2,0.1-2.2,0.3-3.3c0.2-1,0.4-1.9,0.7-2.7c0.3-0.8,0.5-1.4,0.8-2c0.3-0.5,0.5-0.8,0.6-1
			c0.1-0.1,0.2-0.2,0.4-0.3s0.3-0.1,0.5-0.2s0.4-0.1,0.7-0.1c0.3,0,0.6,0,1,0c0.6,0,1.1,0.1,1.3,0.2c0.2,0.1,0.4,0.3,0.4,0.6
			c0,0.2-0.1,0.5-0.4,1c-0.3,0.5-0.6,1.1-0.9,1.9c-0.3,0.8-0.6,1.7-0.9,2.7c-0.3,1-0.4,2.2-0.4,3.4c0,1.2,0.2,2.3,0.5,3.2
			s0.7,1.7,1.3,2.3c0.6,0.6,1.2,1.1,2,1.4s1.6,0.5,2.5,0.5c1,0,1.9-0.2,2.7-0.6c0.8-0.4,1.5-1,2-1.7c0.6-0.8,1-1.7,1.3-2.8
			s0.5-2.4,0.5-3.8v-3.4c0-0.1,0-0.3,0.1-0.4s0.2-0.3,0.3-0.4c0.1-0.1,0.3-0.2,0.6-0.2c0.2-0.1,0.5-0.1,0.9-0.1c0.3,0,0.6,0,0.8,0.1
			s0.4,0.1,0.5,0.2c0.1,0.1,0.2,0.2,0.3,0.3s0.1,0.3,0.1,0.4v3c0,1.2,0.2,2.2,0.5,3.2s0.7,1.7,1.3,2.4c0.6,0.7,1.3,1.2,2.1,1.5
			c0.8,0.3,1.7,0.5,2.7,0.5c0.7,0,1.4-0.1,2.1-0.3c0.7-0.2,1.2-0.6,1.7-1c0.5-0.5,0.9-1.1,1.1-1.8c0.3-0.7,0.4-1.6,0.4-2.5
			c0-1-0.2-2-0.5-2.9s-0.6-1.6-1-2.3s-0.7-1.2-1-1.7c-0.3-0.4-0.5-0.8-0.5-0.9c0-0.1,0-0.2,0.1-0.3c0-0.1,0.1-0.2,0.3-0.2
			c0.1-0.1,0.3-0.1,0.6-0.1c0.2,0,0.6,0,1,0c0.3,0,0.5,0,0.7,0c0.2,0,0.4,0.1,0.5,0.1c0.2,0.1,0.3,0.1,0.4,0.2s0.3,0.2,0.4,0.4
			c0.2,0.2,0.4,0.5,0.7,1c0.3,0.5,0.6,1.2,1,1.9s0.6,1.6,0.8,2.6s0.3,2.1,0.3,3.2c0,1.6-0.2,3-0.6,4.2s-1,2.2-1.7,3
			c-0.8,0.8-1.6,1.4-2.7,1.8s-2.2,0.6-3.5,0.6c-1.1,0-2.1-0.1-3-0.4s-1.8-0.7-2.5-1.3c-0.7-0.6-1.3-1.2-1.8-2
			c-0.5-0.8-0.9-1.7-1.1-2.8H154c-0.1,1.2-0.4,2.3-0.9,3.3s-1.1,1.8-1.8,2.6s-1.6,1.3-2.5,1.7S146.8-552.4,145.8-552.4z"/>
		<path class="st0" d="M153.3-523.2c-2.7,0-5.1-0.2-7.3-0.6c-2.2-0.4-4.1-1.1-5.7-2.1s-2.8-2.2-3.7-3.8c-0.9-1.6-1.3-3.5-1.3-5.8
			c0-2.2,0.4-4,1.2-5.5c0.8-1.5,1.9-2.7,3.4-3.6c1.5-0.9,3.4-1.6,5.6-1.9s4.7-0.6,7.6-0.6c2.6,0,5.1,0.2,7.3,0.6s4.1,1.1,5.7,2.1
			c1.6,1,2.8,2.2,3.7,3.8c0.9,1.6,1.3,3.5,1.3,5.8c0,2.2-0.4,4-1.2,5.5s-1.9,2.7-3.4,3.6c-1.5,0.9-3.4,1.6-5.6,1.9
			C158.7-523.3,156.1-523.2,153.3-523.2z M152.9-527.9c1.7,0,3.3-0.1,4.7-0.2c1.4-0.1,2.6-0.3,3.6-0.5c1.1-0.2,2-0.6,2.7-0.9
			c0.8-0.4,1.4-0.8,1.9-1.4c0.5-0.5,0.8-1.1,1.1-1.8c0.2-0.7,0.3-1.5,0.3-2.3c0-1.5-0.4-2.8-1.1-3.7c-0.7-0.9-1.7-1.7-3-2.2
			c-1.3-0.5-2.7-0.9-4.4-1.1c-1.7-0.2-3.5-0.3-5.4-0.3c-2.6,0-4.8,0.1-6.6,0.4c-1.8,0.3-3.3,0.7-4.4,1.3c-1.1,0.6-2,1.3-2.5,2.2
			c-0.5,0.9-0.8,2-0.8,3.3c0,1,0.2,1.9,0.5,2.6c0.3,0.8,0.8,1.4,1.4,2c0.6,0.5,1.3,1,2.2,1.4c0.8,0.4,1.8,0.6,2.8,0.9
			c1,0.2,2.1,0.4,3.3,0.4C150.4-527.9,151.7-527.9,152.9-527.9z"/>
		<path class="st0" d="M136.6-502.6c-0.2-0.1-0.4-0.2-0.5-0.3s-0.2-0.3-0.3-0.5c-0.1-0.2-0.1-0.5-0.1-0.9c0-0.3,0-0.8,0-1.3
			c0-0.4,0-0.7,0-1s0-0.5,0.1-0.8c0-0.2,0.1-0.4,0.1-0.5c0-0.2,0.1-0.3,0.2-0.4c0.1-0.1,0.2-0.2,0.3-0.3c0.1-0.1,0.2-0.1,0.4-0.2
			l32.2-11.3c0.4-0.1,0.7-0.2,1-0.2s0.4,0.1,0.5,0.2c0.1,0.2,0.2,0.4,0.2,0.8c0,0.4,0.1,0.8,0.1,1.4c0,0.5,0,0.9,0,1.2
			c0,0.3-0.1,0.5-0.1,0.7c-0.1,0.2-0.2,0.3-0.3,0.4c-0.1,0.1-0.3,0.2-0.4,0.2l-29.2,9.9v0l29.1,9.7c0.2,0.1,0.4,0.1,0.5,0.2
			s0.2,0.2,0.3,0.4c0.1,0.2,0.1,0.4,0.1,0.8c0,0.3,0,0.8,0,1.3c0,0.6,0,1-0.1,1.3c0,0.3-0.1,0.5-0.3,0.7s-0.3,0.2-0.5,0.1
			c-0.2,0-0.6-0.1-1-0.3L136.6-502.6z"/>
		<path class="st0" d="M153.7-458.8c-3,0-5.6-0.4-7.9-1.2c-2.2-0.8-4.1-1.9-5.6-3.4s-2.6-3.3-3.3-5.4c-0.7-2.1-1.1-4.7-1.1-7.7v-7.3
			c0-0.4,0.1-0.8,0.4-1.2c0.3-0.4,0.8-0.5,1.5-0.5h30.9c0.7,0,1.2,0.2,1.5,0.5c0.3,0.4,0.4,0.8,0.4,1.2v7.9c0,3-0.4,5.5-1.2,7.6
			c-0.8,2.1-1.9,3.8-3.4,5.2s-3.2,2.5-5.3,3.2C158.6-459.2,156.3-458.8,153.7-458.8z M153.5-463.7c1.9,0,3.6-0.2,5.2-0.7
			s3-1.2,4.2-2.2c1.2-1,2.1-2.2,2.8-3.8c0.7-1.5,1-3.5,1-5.9v-4.7h-27v4.7c0,2.2,0.3,4.1,0.8,5.6c0.6,1.5,1.4,2.8,2.5,3.8
			c1.1,1,2.6,1.8,4.3,2.3C149.1-463.9,151.1-463.7,153.5-463.7z"/>
		<path class="st0" d="M140.7-428.5c-0.3,0-0.5,0-0.8,0s-0.4,0-0.6-0.1c-0.2,0-0.3-0.1-0.4-0.2c-0.1-0.1-0.3-0.2-0.5-0.4
			s-0.5-0.6-0.8-1.1c-0.4-0.6-0.7-1.3-1.1-2.1c-0.3-0.8-0.6-1.8-0.9-2.9c-0.2-1.1-0.4-2.3-0.4-3.6c0-2.3,0.4-4.3,1.1-6.1
			s1.9-3.4,3.3-4.6c1.5-1.3,3.3-2.3,5.4-3c2.2-0.7,4.6-1,7.4-1c2.9,0,5.4,0.4,7.7,1.1c2.3,0.7,4.2,1.8,5.7,3.1
			c1.6,1.3,2.8,2.9,3.6,4.8s1.2,3.9,1.2,6.2c0,1-0.1,2-0.3,2.9c-0.2,0.9-0.4,1.8-0.7,2.6c-0.3,0.8-0.6,1.5-1,2.1
			c-0.4,0.6-0.7,1.1-0.9,1.3c-0.2,0.2-0.4,0.4-0.5,0.5s-0.3,0.1-0.4,0.2c-0.2,0-0.4,0.1-0.6,0.1c-0.2,0-0.5,0-0.8,0
			c-0.4,0-0.7,0-0.9-0.1c-0.3,0-0.5-0.1-0.6-0.2c-0.2-0.1-0.3-0.2-0.4-0.3c-0.1-0.1-0.1-0.2-0.1-0.4c0-0.3,0.2-0.6,0.5-1.1
			s0.7-1,1.2-1.7c0.4-0.7,0.8-1.6,1.2-2.6c0.3-1,0.5-2.2,0.5-3.7c0-1.5-0.3-3-0.9-4.2c-0.6-1.3-1.5-2.3-2.7-3.2
			c-1.2-0.9-2.7-1.6-4.4-2.1c-1.7-0.5-3.7-0.7-5.9-0.7c-2.2,0-4.1,0.2-5.8,0.7c-1.7,0.5-3.1,1.2-4.2,2c-1.1,0.9-2,2-2.6,3.3
			c-0.6,1.3-0.9,2.8-0.9,4.4c0,1.4,0.2,2.6,0.5,3.6c0.3,1,0.7,1.9,1.1,2.6c0.4,0.7,0.8,1.3,1.1,1.8c0.3,0.5,0.5,0.8,0.5,1.1
			c0,0.1,0,0.2-0.1,0.3c-0.1,0.1-0.2,0.2-0.3,0.2c-0.2,0.1-0.4,0.1-0.6,0.1C141.5-428.5,141.2-428.5,140.7-428.5z"/>
		<path class="st0" d="M137.7-389.8c-0.3,0-0.6,0-0.9-0.1s-0.4-0.1-0.6-0.2c-0.1-0.1-0.2-0.2-0.3-0.3s-0.1-0.2-0.1-0.4v-18.1
			c0-0.1,0-0.2,0.1-0.3c0.1-0.1,0.2-0.2,0.3-0.3c0.1-0.1,0.3-0.2,0.6-0.2s0.5-0.1,0.9-0.1c0.3,0,0.6,0,0.8,0.1s0.4,0.1,0.6,0.2
			c0.2,0.1,0.3,0.2,0.3,0.3c0.1,0.1,0.1,0.2,0.1,0.4v7.2h26.4l-4-6.7c-0.2-0.3-0.3-0.6-0.3-0.8c0-0.2,0-0.4,0.1-0.5s0.3-0.2,0.6-0.3
			c0.3,0,0.6-0.1,1-0.1c0.3,0,0.6,0,0.8,0c0.2,0,0.4,0.1,0.5,0.1c0.1,0.1,0.3,0.1,0.4,0.2c0.1,0.1,0.2,0.2,0.3,0.4l5.1,8
			c0.1,0.1,0.1,0.2,0.1,0.3c0,0.1,0.1,0.2,0.1,0.4c0,0.2,0.1,0.3,0.1,0.6c0,0.2,0,0.5,0,0.8c0,0.4,0,0.8-0.1,1.1s-0.1,0.5-0.1,0.7
			c-0.1,0.2-0.1,0.3-0.2,0.3c-0.1,0.1-0.2,0.1-0.3,0.1h-30.5v6.3c0,0.1,0,0.3-0.1,0.4c-0.1,0.1-0.2,0.2-0.3,0.3
			c-0.2,0.1-0.3,0.1-0.6,0.2S138-389.8,137.7-389.8z"/>
		<path class="st0" d="M153.3-360.9c-2.7,0-5.1-0.2-7.3-0.6c-2.2-0.4-4.1-1.1-5.7-2.1s-2.8-2.2-3.7-3.8c-0.9-1.6-1.3-3.5-1.3-5.8
			c0-2.2,0.4-4,1.2-5.5c0.8-1.5,1.9-2.7,3.4-3.6c1.5-0.9,3.4-1.6,5.6-1.9s4.7-0.6,7.6-0.6c2.6,0,5.1,0.2,7.3,0.6s4.1,1.1,5.7,2.1
			c1.6,1,2.8,2.2,3.7,3.8c0.9,1.6,1.3,3.5,1.3,5.8c0,2.2-0.4,4-1.2,5.5s-1.9,2.7-3.4,3.6c-1.5,0.9-3.4,1.6-5.6,1.9
			C158.7-361,156.1-360.9,153.3-360.9z M152.9-365.6c1.7,0,3.3-0.1,4.7-0.2c1.4-0.1,2.6-0.3,3.6-0.5c1.1-0.2,2-0.6,2.7-0.9
			c0.8-0.4,1.4-0.8,1.9-1.4c0.5-0.5,0.8-1.1,1.1-1.8c0.2-0.7,0.3-1.5,0.3-2.3c0-1.5-0.4-2.8-1.1-3.7c-0.7-0.9-1.7-1.7-3-2.2
			c-1.3-0.5-2.7-0.9-4.4-1.1c-1.7-0.2-3.5-0.3-5.4-0.3c-2.6,0-4.8,0.1-6.6,0.4c-1.8,0.3-3.3,0.7-4.4,1.3c-1.1,0.6-2,1.3-2.5,2.2
			c-0.5,0.9-0.8,2-0.8,3.3c0,1,0.2,1.9,0.5,2.6c0.3,0.8,0.8,1.4,1.4,2c0.6,0.5,1.3,1,2.2,1.4c0.8,0.4,1.8,0.6,2.8,0.9
			c1,0.2,2.1,0.4,3.3,0.4C150.4-365.6,151.7-365.6,152.9-365.6z"/>
		<path class="st0" d="M136.5-336.7c-0.2,0-0.4-0.1-0.5-0.2c-0.1-0.1-0.2-0.3-0.2-0.6c-0.1-0.2-0.1-0.6-0.1-1.1c0-0.5,0-0.8,0.1-1.1
			s0.1-0.5,0.2-0.6s0.3-0.2,0.5-0.2h2.4c-1.1-1.1-2-2.2-2.6-3.5c-0.6-1.3-0.9-2.7-0.9-4.1c0-1.3,0.2-2.4,0.5-3.4
			c0.3-1,0.8-1.9,1.4-2.6c0.6-0.7,1.4-1.3,2.3-1.7c0.9-0.4,1.9-0.6,3.1-0.6c1.4,0,2.5,0.3,3.5,0.8s1.8,1.3,2.5,2.4
			c0.7,1,1.2,2.3,1.5,3.8c0.3,1.5,0.5,3.2,0.5,5.1v3.3h1.9c0.9,0,1.8-0.1,2.5-0.3c0.7-0.2,1.3-0.5,1.8-1c0.5-0.4,0.8-1,1.1-1.7
			s0.4-1.6,0.4-2.6c0-1.1-0.1-2.1-0.4-2.9s-0.5-1.6-0.9-2.3c-0.3-0.7-0.6-1.2-0.9-1.6c-0.3-0.4-0.4-0.8-0.4-1c0-0.1,0-0.3,0.1-0.4
			c0.1-0.1,0.2-0.2,0.3-0.3c0.1-0.1,0.3-0.1,0.5-0.2s0.5-0.1,0.7-0.1c0.4,0,0.8,0,1.1,0.1c0.3,0.1,0.5,0.2,0.7,0.5
			c0.2,0.2,0.5,0.7,0.8,1.2s0.6,1.3,0.9,2c0.3,0.8,0.5,1.6,0.6,2.5c0.2,0.9,0.3,1.8,0.3,2.8c0,1.7-0.2,3.2-0.6,4.4
			c-0.4,1.2-1,2.2-1.7,3c-0.8,0.8-1.7,1.3-2.8,1.6s-2.4,0.5-3.9,0.5H136.5z M147.5-341.1v-3.8c0-1.2-0.1-2.3-0.3-3.2
			c-0.2-0.9-0.5-1.6-0.9-2.2s-0.9-1-1.4-1.3s-1.2-0.4-1.9-0.4c-1.3,0-2.2,0.4-3,1.2c-0.7,0.8-1.1,1.9-1.1,3.3c0,1.2,0.3,2.2,0.9,3.2
			s1.5,2,2.7,3.1H147.5z"/>
		<path class="st0" d="M137.8-295.5c-0.3,0-0.6,0-0.9-0.1c-0.2,0-0.5-0.1-0.6-0.2c-0.2-0.1-0.3-0.2-0.4-0.3
			c-0.1-0.1-0.1-0.3-0.1-0.4v-19.2c0-0.2,0-0.5,0.1-0.7c0.1-0.2,0.2-0.3,0.3-0.5c0.1-0.1,0.3-0.2,0.6-0.3c0.3-0.1,0.6-0.1,1-0.1
			c0.4,0,0.7,0,0.9,0c0.3,0,0.5,0.1,0.7,0.2c0.2,0.1,0.4,0.2,0.6,0.3c0.2,0.1,0.4,0.3,0.7,0.5l7.1,6.9c1.6,1.6,3.1,2.9,4.4,3.9
			c1.3,1,2.5,1.7,3.6,2.2c1.1,0.5,2,0.9,2.9,1s1.7,0.2,2.5,0.2s1.5-0.1,2.2-0.4c0.7-0.3,1.3-0.6,1.8-1.1c0.5-0.5,0.9-1.1,1.2-1.8
			c0.3-0.7,0.5-1.6,0.5-2.5c0-1.1-0.2-2.1-0.5-3s-0.6-1.7-1-2.4c-0.4-0.7-0.7-1.2-1-1.7c-0.3-0.5-0.5-0.8-0.5-1c0-0.1,0-0.2,0.1-0.3
			c0.1-0.1,0.2-0.2,0.3-0.2c0.2-0.1,0.4-0.1,0.6-0.2c0.3,0,0.6-0.1,1-0.1c0.3,0,0.5,0,0.7,0c0.2,0,0.4,0,0.5,0.1
			c0.1,0,0.3,0.1,0.4,0.2s0.3,0.2,0.5,0.4c0.2,0.2,0.4,0.6,0.8,1.1c0.3,0.5,0.6,1.2,1,2c0.3,0.8,0.6,1.7,0.8,2.6c0.2,1,0.3,2,0.3,3
			c0,1.7-0.2,3.2-0.7,4.4c-0.5,1.3-1.1,2.3-1.9,3.1s-1.8,1.5-2.9,1.9c-1.1,0.4-2.3,0.6-3.5,0.6c-1.1,0-2.2-0.1-3.3-0.3
			c-1.1-0.2-2.3-0.6-3.6-1.2c-1.3-0.6-2.7-1.6-4.3-2.7c-1.6-1.2-3.4-2.8-5.4-4.8l-5.7-5.5v15.1c0,0.1,0,0.3-0.1,0.4
			c-0.1,0.1-0.2,0.3-0.4,0.3c-0.2,0.1-0.4,0.2-0.6,0.2C138.4-295.5,138.1-295.5,137.8-295.5z"/>
		<path class="st0" d="M144.7-266.8c-1.5,0-2.8-0.3-4-0.8c-1.2-0.5-2.2-1.3-3-2.3c-0.8-1-1.4-2.3-1.8-3.7s-0.6-3.2-0.6-5.1
			c0-1.8,0.2-3.4,0.6-4.8s0.9-2.6,1.7-3.6s1.6-1.7,2.7-2.3c1.1-0.5,2.3-0.8,3.7-0.8c1.1,0,2.1,0.2,3,0.5c0.9,0.4,1.8,0.9,2.5,1.5
			c0.8,0.7,1.5,1.5,2.2,2.5c0.7,1,1.3,2.1,1.9,3.3c0.6-1.1,1.1-2,1.8-2.8c0.6-0.8,1.3-1.5,2-2.1c0.7-0.6,1.5-1,2.3-1.3
			c0.8-0.3,1.7-0.4,2.7-0.4c1.2,0,2.4,0.2,3.4,0.7c1.1,0.4,2,1.1,2.8,2c0.8,0.9,1.4,2,1.9,3.4c0.5,1.4,0.7,3,0.7,4.8
			c0,1.8-0.2,3.3-0.6,4.5c-0.4,1.3-1,2.3-1.7,3.2c-0.7,0.8-1.6,1.4-2.6,1.8c-1,0.4-2,0.6-3.2,0.6c-0.9,0-1.8-0.1-2.6-0.4
			c-0.8-0.3-1.6-0.7-2.4-1.3c-0.8-0.6-1.5-1.3-2.1-2.1s-1.3-1.8-1.8-2.9c-0.6,1.3-1.3,2.4-1.9,3.4s-1.4,1.8-2.1,2.5
			c-0.8,0.7-1.6,1.2-2.4,1.5S145.8-266.8,144.7-266.8z M144.3-271.5c0.8,0,1.6-0.2,2.2-0.5c0.7-0.3,1.3-0.8,1.9-1.4
			c0.6-0.6,1.1-1.4,1.7-2.3c0.5-0.9,1.1-2,1.7-3.2c-0.6-1.1-1.1-2.1-1.7-3c-0.6-0.8-1.1-1.5-1.7-2.1c-0.6-0.5-1.2-1-1.9-1.2
			c-0.7-0.3-1.4-0.4-2.2-0.4c-1.7,0-3.1,0.6-4,1.8c-0.9,1.2-1.4,3-1.4,5.3c0,2.3,0.5,4,1.4,5.2C141.3-272.1,142.6-271.5,144.3-271.5
			z M162.5-272.6c0.8,0,1.4-0.1,2-0.4c0.6-0.3,1.1-0.6,1.6-1.1c0.4-0.5,0.8-1.1,1-1.9s0.3-1.6,0.3-2.5c0-1.9-0.4-3.4-1.3-4.4
			s-2.1-1.5-3.6-1.5c-0.7,0-1.3,0.1-1.9,0.4c-0.6,0.2-1.2,0.6-1.7,1.1c-0.5,0.5-1.1,1.2-1.6,1.9s-1,1.7-1.6,2.8
			c0.9,1.8,2,3.2,3.1,4.2C159.9-273.1,161.2-272.6,162.5-272.6z"/>
		<path class="st0" d="M136.6-245.9c-0.2-0.1-0.4-0.2-0.5-0.3s-0.2-0.3-0.3-0.5c-0.1-0.2-0.1-0.5-0.1-0.9c0-0.3,0-0.8,0-1.3
			c0-0.4,0-0.7,0-1s0-0.5,0.1-0.8c0-0.2,0.1-0.4,0.1-0.5c0-0.2,0.1-0.3,0.2-0.4c0.1-0.1,0.2-0.2,0.3-0.3c0.1-0.1,0.2-0.1,0.4-0.2
			l32.2-11.3c0.4-0.1,0.7-0.2,1-0.2s0.4,0.1,0.5,0.2c0.1,0.2,0.2,0.4,0.2,0.8c0,0.4,0.1,0.8,0.1,1.4c0,0.5,0,0.9,0,1.2
			c0,0.3-0.1,0.5-0.1,0.7c-0.1,0.2-0.2,0.3-0.3,0.4c-0.1,0.1-0.3,0.2-0.4,0.2l-29.2,9.9v0l29.1,9.7c0.2,0.1,0.4,0.1,0.5,0.2
			s0.2,0.2,0.3,0.4c0.1,0.2,0.1,0.4,0.1,0.8c0,0.3,0,0.8,0,1.3c0,0.6,0,1-0.1,1.3c0,0.3-0.1,0.5-0.3,0.7s-0.3,0.2-0.5,0.1
			c-0.2,0-0.6-0.1-1-0.3L136.6-245.9z"/>
		<path class="st0" d="M153.7-202.1c-3,0-5.6-0.4-7.9-1.2c-2.2-0.8-4.1-1.9-5.6-3.4s-2.6-3.3-3.3-5.4c-0.7-2.1-1.1-4.7-1.1-7.7v-7.3
			c0-0.4,0.1-0.8,0.4-1.2c0.3-0.4,0.8-0.5,1.5-0.5h30.9c0.7,0,1.2,0.2,1.5,0.5c0.3,0.4,0.4,0.8,0.4,1.2v7.9c0,3-0.4,5.5-1.2,7.6
			c-0.8,2.1-1.9,3.8-3.4,5.2s-3.2,2.5-5.3,3.2C158.6-202.5,156.3-202.1,153.7-202.1z M153.5-207c1.9,0,3.6-0.2,5.2-0.7
			s3-1.2,4.2-2.2c1.2-1,2.1-2.2,2.8-3.8c0.7-1.5,1-3.5,1-5.9v-4.7h-27v4.7c0,2.2,0.3,4.1,0.8,5.6c0.6,1.5,1.4,2.8,2.5,3.8
			c1.1,1,2.6,1.8,4.3,2.3C149.1-207.2,151.1-207,153.5-207z"/>
		<path class="st0" d="M140.7-171.8c-0.3,0-0.5,0-0.8,0s-0.4,0-0.6-0.1c-0.2,0-0.3-0.1-0.4-0.2c-0.1-0.1-0.3-0.2-0.5-0.4
			s-0.5-0.6-0.8-1.1c-0.4-0.6-0.7-1.3-1.1-2.1c-0.3-0.8-0.6-1.8-0.9-2.9c-0.2-1.1-0.4-2.3-0.4-3.6c0-2.3,0.4-4.3,1.1-6.1
			s1.9-3.4,3.3-4.6c1.5-1.3,3.3-2.3,5.4-3c2.2-0.7,4.6-1,7.4-1c2.9,0,5.4,0.4,7.7,1.1c2.3,0.7,4.2,1.8,5.7,3.1
			c1.6,1.3,2.8,2.9,3.6,4.8s1.2,3.9,1.2,6.2c0,1-0.1,2-0.3,2.9c-0.2,0.9-0.4,1.8-0.7,2.6c-0.3,0.8-0.6,1.5-1,2.1
			c-0.4,0.6-0.7,1.1-0.9,1.3c-0.2,0.2-0.4,0.4-0.5,0.5s-0.3,0.1-0.4,0.2c-0.2,0-0.4,0.1-0.6,0.1c-0.2,0-0.5,0-0.8,0
			c-0.4,0-0.7,0-0.9-0.1c-0.3,0-0.5-0.1-0.6-0.2c-0.2-0.1-0.3-0.2-0.4-0.3c-0.1-0.1-0.1-0.2-0.1-0.4c0-0.3,0.2-0.6,0.5-1.1
			s0.7-1,1.2-1.7c0.4-0.7,0.8-1.6,1.2-2.6c0.3-1,0.5-2.2,0.5-3.7c0-1.5-0.3-3-0.9-4.2c-0.6-1.3-1.5-2.3-2.7-3.2
			c-1.2-0.9-2.7-1.6-4.4-2.1c-1.7-0.5-3.7-0.7-5.9-0.7c-2.2,0-4.1,0.2-5.8,0.7c-1.7,0.5-3.1,1.2-4.2,2c-1.1,0.9-2,2-2.6,3.3
			c-0.6,1.3-0.9,2.8-0.9,4.4c0,1.4,0.2,2.6,0.5,3.6c0.3,1,0.7,1.9,1.1,2.6c0.4,0.7,0.8,1.3,1.1,1.8c0.3,0.5,0.5,0.8,0.5,1.1
			c0,0.1,0,0.2-0.1,0.3c-0.1,0.1-0.2,0.2-0.3,0.2c-0.2,0.1-0.4,0.1-0.6,0.1C141.5-171.9,141.2-171.8,140.7-171.8z"/>
	</g>
</g>
</svg>
