<?xml version="1.0" encoding="utf-8"?>
<!-- Generator: Adobe Illustrator 27.8.0, SVG Export Plug-In . SVG Version: 6.00 Build 0)  -->
<svg version="1.1"
	 id="svg8" xmlns:svg="http://www.w3.org/2000/svg" xmlns:rdf="http://www.w3.org/1999/02/22-rdf-syntax-ns#" xmlns:sodipodi="http://sodipodi.sourceforge.net/DTD/sodipodi-0.dtd" xmlns:dc="http://purl.org/dc/elements/1.1/" xmlns:inkscape="http://www.inkscape.org/namespaces/inkscape" xmlns:cc="http://creativecommons.org/ns#" inkscape:export-xdpi="92.921417" inkscape:export-ydpi="92.921417" inkscape:version="0.92.4 (5da689c313, 2019-01-14)"
	 xmlns="http://www.w3.org/2000/svg" xmlns:xlink="http://www.w3.org/1999/xlink" x="0px" y="0px" viewBox="0 0 247 1081"
	 style="enable-background:new 0 0 247 1081;" xml:space="preserve">
<style type="text/css">
	.st0{fill:#FFFFFF;}
	.st1{fill:#1A1A1A;}
	.st2{opacity:0.99;fill:#808080;enable-background:new    ;}
	.st3{fill:#0000FF;}
	.st4{fill:#CCCCCC;}
	.st5{fill:#B3B3B3;}
	.st6{fill:#333333;}
	.st7{fill:#00002B;}
	.st8{enable-background:new    ;}
</style>
<sodipodi:namedview  bordercolor="#666666" borderopacity="1.0" id="base" inkscape:current-layer="layer1" inkscape:cx="92.15125" inkscape:cy="1020.5943" inkscape:document-units="mm" inkscape:pageopacity="0" inkscape:pageshadow="2" inkscape:window-height="1017" inkscape:window-maximized="1" inkscape:window-width="1920" inkscape:window-x="-8" inkscape:window-y="-8" inkscape:zoom="0.22" pagecolor="#323237" showgrid="false">
	</sodipodi:namedview>
<g id="layer1" transform="translate(0,1058)" inkscape:groupmode="layer" inkscape:label="Ebene 1">
	<rect id="rect10" x="0" y="-1050.3" width="231.1" height="960.1"/>
	<rect id="rect821" x="33.1" y="-162.8" class="st0" width="164.9" height="64.4"/>
	<path id="rect825" class="st1" d="M184.8-159l-29.5,0c-6.5,0-11.9,5.3-11.9,11.9l0,32.9c0,6.5,5.3,11.9,11.9,11.9l29.5,0
		c6.5,0,11.9-5.3,11.9-11.9l0-32.9C196.7-153.7,191.4-159,184.8-159z"/>
	<path id="rect872" class="st1" d="M76.1-159l-29.5,0c-6.5,0-11.9,5.3-11.9,11.9l0,32.9c0,6.5,5.3,11.9,11.9,11.9l29.5,0
		c6.5,0,11.9-5.3,11.9-11.9l0-32.9C88-153.7,82.7-159,76.1-159z"/>
	<path id="rect874" class="st1" d="M132-159l-32.6,0c-5.7,0-10.3,4.6-10.3,10.3l0,36c0,5.7,4.6,10.3,10.3,10.3l32.6,0
		c5.7,0,10.3-4.6,10.3-10.3l0-36C142.3-154.4,137.7-159,132-159z"/>
	<rect id="rect947" x="167.2" y="-130.3" class="st2" width="5.9" height="115.8"/>
	<rect id="rect949" x="112.5" y="-130.3" class="st2" width="5.9" height="115.8"/>
	<rect id="rect951" x="58.5" y="-130.3" class="st2" width="5.9" height="115.8"/>
	<path id="rect78" inkscape:connector-curvature="0" class="st0" d="M36-596.2v158.7l-0.2,0.2l0.2,0.1v0.3h0.4l19.5,15.5v0H56
		l0.1,0.1l0.1-0.1h118.4l0.5,0.5l20.2-16v-159.3H36z"/>
	<path id="path2577" inkscape:connector-curvature="0" d="M40-592.2v151.5l-0.2,0.2l0.2,0.1v0.3h0.4l18.5,14.8v0h0.1l0.1,0.1
		l0.1-0.1h112.5l0.4,0.5l19.2-15.3v-152H40z"/>
	<path id="path2581" inkscape:connector-curvature="0" class="st3" d="M42-590.2v147.9l-0.1,0.2l0.1,0.1v0.3h0.3l18.1,14.4v0h0.1
		l0.1,0.1l0.1-0.1h109.5l0.4,0.5l18.7-14.9v-148.4L42-590.2z"/>
	
		<path id="path2585" sodipodi:cx="145.0013" sodipodi:cy="-364.24637" sodipodi:end="4.712389" sodipodi:open="true" sodipodi:rx="89.998688" sodipodi:ry="89.998688" sodipodi:start="0" sodipodi:type="arc" class="st0" d="
		M187.2-504.5c0,29-17.5,55.2-44.3,66.3c-26.8,11.1-57.6,5-78.1-15.5c-20.5-20.5-26.6-51.4-15.5-78.1c11.1-26.8,37.2-44.3,66.3-44.3
		"/>
	
		<rect id="rect2589" x="106.7" y="-576" transform="matrix(0.7071 -0.7071 0.7071 0.7071 390.1573 -66.5969)" class="st4" width="15.9" height="143.4"/>
	<rect id="rect2593" x="8" y="-352.7" class="st0" width="143.4" height="103.6"/>
	<rect id="rect2595" x="12" y="-348.8" class="st1" width="135.5" height="95.6"/>
	<rect id="rect2597" x="15.9" y="-253.6" class="st5" width="15.9" height="23.9"/>
	<rect id="rect2599" x="55.8" y="-253.6" class="st5" width="15.9" height="23.9"/>
	<rect id="rect2601" x="87.6" y="-253.6" class="st5" width="15.9" height="23.9"/>
	<rect id="rect2603" x="127.5" y="-253.6" class="st5" width="15.9" height="23.9"/>
	<rect id="rect2605" x="15.9" y="-372.4" class="st5" width="15.9" height="23.9"/>
	<rect id="rect2607" x="55.8" y="-372.4" class="st5" width="15.9" height="23.9"/>
	<rect id="rect2609" x="87.6" y="-372.4" class="st5" width="15.9" height="23.9"/>
	<rect id="rect2611" x="127.5" y="-372.4" class="st5" width="15.9" height="23.9"/>
	<circle id="path2621" class="st4" cx="115.5" cy="-683.8" r="79.7"/>
	<circle id="circle2623" class="st0" cx="115.5" cy="-683.8" r="59.8"/>
	<rect id="rect2667" x="20.4" y="-254.3" class="st2" width="6.4" height="15.9"/>
	<rect id="rect2669" x="60.6" y="-254.3" class="st2" width="6.4" height="15.9"/>
	<rect id="rect2671" x="92.2" y="-254.3" class="st2" width="6.4" height="15.9"/>
	<rect id="rect2673" x="132.3" y="-254.3" class="st2" width="6.4" height="15.9"/>
	<rect id="rect2675" x="20.4" y="-363.4" class="st2" width="6.4" height="15.9"/>
	<rect id="rect2677" x="60.6" y="-363.4" class="st2" width="6.4" height="15.9"/>
	<rect id="rect2679" x="92.2" y="-363.4" class="st2" width="6.4" height="15.9"/>
	<rect id="rect2681" x="132.3" y="-363.4" class="st2" width="6.4" height="15.9"/>
	<path id="path31-1" inkscape:connector-curvature="0" class="st0" d="M49.9-391.1c1.9,0,2.1-0.1,2.4-0.3c0.2-0.1,0.5-0.4,0.6-0.6
		c0.2-0.3,0.2-0.6,0.3-4.4l0-4l4,0l4,0v5c0,5.5,0,6-0.6,7.5c-0.8,1.9-1.9,2.8-4.2,3.3c-0.6,0.1-1.3,0.2-3.7,0.2
		c-1.6,0-3.4-0.1-3.9-0.1l-1-0.1l0-3.3l0-3.3L49.9-391.1L49.9-391.1z M88.2-379.9c34.4,0,42.9,0,41.4,0.2l-0.2,0l0.2,0.1
		c0.2,0.1,0.2,0.1-0.2,0.1c-0.3,0-0.1,0,0.3,0.1l0.7,0.1l-0.7,0c-0.4,0-0.6,0.1-0.5,0.1c0.2,0,0.2,0.2,0.2,0.9c0,0.9,0,0.9,0.3,0.9
		c0.2,0,0.2,0-0.2,0.1c-0.3,0-0.5,0.1-0.5,0.1c0,0.1-13.6,0.1-40.7,0.1H47.8v-1.4v-1.4L88.2-379.9z M57.3-410.6h4.1v3.2v3.2h-4.1
		h-4.1v-3.2v-3.2H57.3z M65.4-398.7c0.3-1.8,0.8-3.4,1.6-4.9c0.3-0.5,0.5-1,0.6-1c0,0,0.2-0.3,0.5-0.6c0.4-0.6,1.4-1.8,1.6-1.9
		c0.1,0,0.1-0.1,0.1-0.2c0-0.1,1-1,1.8-1.6c0.8-0.6,1.5-0.9,3-1.5c1.8-0.6,2.8-0.8,4.9-0.7c1.5,0.1,1.9,0.1,2.9,0.4
		c0.6,0.2,1.3,0.4,1.6,0.5s0.6,0.2,0.6,0.2c0.1,0,0.5,0.2,1,0.5c1.9,1.1,4.6,4.1,5.6,6.3c1.6,3.4,1.8,6.9,0.6,10.1
		c-0.5,1.3-0.9,2.1-1.5,3.1c-0.7,1.1-0.7,1.2-2.4,2.8c-1.9,1.8-3.3,2.6-5.8,3.3c-1.3,0.3-3.8,0.5-5.1,0.3c-1.8-0.3-4.1-1.2-5.5-2.3
		c-0.7-0.5-1.7-1.4-1.7-1.5c0,0-0.3-0.3-0.6-0.6c-1.5-1.5-3-4.3-3.5-6.7C65.5-395.7,65.3-398,65.4-398.7L65.4-398.7z M73.2-395.3
		c0.4,1.5,1.2,2.8,2.4,3.9c1.2,1.1,3.2,1.6,4.8,1.1c1.8-0.6,3.7-2.7,4.3-4.9c0.3-1.3,0.3-3.2-0.1-4.5c-0.5-1.8-1.5-3.2-2.8-4.1
		c-0.6-0.4-0.9-0.6-1.5-0.7c-1.4-0.3-2.8-0.1-3.8,0.4c-0.9,0.4-2,1.6-2.6,2.9C72.9-399.5,72.7-397.3,73.2-395.3L73.2-395.3z
		 M96-410.6c0.1,0,1.9,0,4.1,0l3.9,0l0,3.6c0,3.4,0,3.6,0.2,4.2c0.6,1.5,2.4,2.3,4.1,1.8c0.8-0.3,1.4-0.8,1.8-1.5l0.4-0.7l0-3.7
		l0-3.7h4.1h4.1l0,4.2c0,3.9-0.1,4.2-0.3,5c-0.5,1.6-1.2,3-2.1,4.1c-0.2,0.3-0.4,0.5-0.4,0.6c0,0.1-1,1-1.9,1.7
		c-0.8,0.6-1.9,1.1-2.4,1.2c-0.2,0-0.7,0.2-1.2,0.4c-0.9,0.3-1.1,0.3-2.9,0.3c-1.8,0-2.1,0-3.1-0.3c-1.6-0.4-2.1-0.7-3.2-1.4
		c-1.2-0.8-2.2-1.8-3.1-3c-1.2-1.7-1.7-3-2-5.1C95.9-404.2,95.9-410.5,96-410.6L96-410.6z M107.4-391h6.6v3.3v3.3h-6.6h-6.6v-3.3
		v-3.3H107.4z M118.7-415.7c0.1,0,0.1-0.2,0.1-0.4c0-0.4,0-0.4,0.5-0.5c0.3,0,11.5-0.1,25-0.1l24.5,0l0,1.4l0,1.4h-24.9
		c-13.7,0-25,0-25.1-0.1c-0.1-0.1-0.2-0.2-0.2-1C118.6-415.4,118.7-415.7,118.7-415.7L118.7-415.7z M129.9-399.7h8.5v3.3v3.3h-8.5
		h-8.5v-3.3v-3.3H129.9z M145.1-410.6h4.1v3.2v3.2h-4.1H141v-3.2v-3.2H145.1z M145.1-400.8h4.1v8.4v8.4h-4.1H141v-8.4v-8.4H145.1z
		 M161.3-410.6h8.5v3.2v3.2h-8.5h-8.5v-3.2v-3.2H161.3z M154.2-400.3c0.1,0,1.9-0.1,4-0.1l3.9,0l0,3.8c0.1,5.4-0.2,5.1,4,5.2l2.6,0
		v3.4v3.4l-1,0.1c-1.5,0.2-6.1,0.2-7.4,0c-2.2-0.3-3.6-1-4.5-2.1c-1-1.1-1.4-2.3-1.7-4.2C154.1-391.9,154.1-400.2,154.2-400.3
		L154.2-400.3z M174.6-413.8c0.2-0.7,0.6-1.4,1.1-1.8c1.8-1.6,4.1-1.8,5.9-0.4c0.9,0.6,1.1,0.9,1.4,1.6c0.3,0.6,0.3,0.8,0.3,1.8
		c0,1,0,1.2-0.3,1.8c-0.6,1.3-2.2,2.3-3.7,2.4c-1.4,0.1-2.5-0.3-3.6-1.4C174.6-410.8,174.2-412.4,174.6-413.8L174.6-413.8z
		 M175.4-411.1c0.4,0.9,1.5,1.7,2.7,2c1.2,0.3,2.1,0,3.4-0.9c0.3-0.2,0.6-0.5,0.8-1c0.3-0.6,0.4-0.8,0.4-1.6c0-0.8,0-1-0.4-1.6
		c-0.3-0.6-0.5-0.8-1-1.2c-0.4-0.2-0.9-0.5-1.2-0.6c-1.9-0.6-4.1,0.4-4.8,2.1C175-413.3,175-411.9,175.4-411.1z M178.4-415.2
		c0.8,0,1.6,0,1.8,0.1c0.7,0.2,1,1.5,0.5,2.1c-0.1,0.2-0.4,0.3-0.6,0.4l-0.4,0.1l0.4,0.4c0.2,0.2,0.5,0.7,0.7,1
		c0.2,0.3,0.4,0.6,0.4,0.6c0.2,0.1,0.1,0.3-0.4,0.3l-0.5,0l-0.7-1c-0.7-1.1-0.9-1.2-1.7-1.2h-0.5v1.1v1.1l-0.3,0l-0.3,0l0-2.5l0-2.5
		L178.4-415.2z M178.6-413.1c0.8,0,1,0,1.3-0.2c0.6-0.5,0.3-1.2-0.6-1.3c-0.4,0-1.4,0-1.6,0c0,0,0,0.3,0,0.8v0.7L178.6-413.1z"/>
	<circle id="circle2717" class="st4" cx="115.5" cy="-970.7" r="79.7"/>
	<circle id="circle2719" class="st0" cx="115.5" cy="-970.7" r="59.8"/>
	<rect id="rect2721" x="0" y="-891" class="st6" width="231.1" height="127.5"/>
	<circle id="path2723" cx="63.7" cy="-827.2" r="39.8"/>
	<circle id="circle2725" class="st7" cx="167.3" cy="-827.2" r="39.8"/>
	<rect id="rect2727" x="113.1" y="-891" class="st1" width="3.2" height="127.5"/>
	<g class="st8">
		<path d="M31.6-9.5c0,0.3,0,0.5,0,0.7s-0.1,0.4-0.1,0.5s-0.1,0.2-0.2,0.3C31.2-8,31.1-8,31-8c-0.2,0-0.4-0.1-0.8-0.4
			s-0.9-0.5-1.5-0.9c-0.6-0.3-1.4-0.6-2.3-0.9c-0.9-0.3-1.9-0.4-3.2-0.4c-1.4,0-2.7,0.3-3.9,0.8c-1.2,0.5-2.1,1.3-2.9,2.2
			c-0.8,0.9-1.4,2-1.8,3.3c-0.4,1.3-0.6,2.7-0.6,4.2c0,1.7,0.2,3.2,0.7,4.5s1.1,2.4,1.9,3.3c0.8,0.9,1.8,1.6,3,2
			c1.1,0.5,2.4,0.7,3.8,0.7c0.8,0,1.6-0.1,2.5-0.3s1.6-0.5,2.3-0.9V1.7H22c-0.2,0-0.4-0.1-0.5-0.3c-0.1-0.2-0.2-0.6-0.2-1.1
			c0-0.3,0-0.5,0-0.7s0.1-0.3,0.1-0.4c0.1-0.1,0.1-0.2,0.2-0.3c0.1-0.1,0.2-0.1,0.3-0.1h8.3c0.1,0,0.3,0,0.4,0.1
			C30.9-1.1,31-1,31.2-0.9c0.1,0.1,0.2,0.3,0.3,0.4s0.1,0.4,0.1,0.6v10c0,0.4-0.1,0.7-0.2,0.9c-0.1,0.3-0.4,0.5-0.8,0.7
			s-0.9,0.4-1.5,0.6c-0.6,0.2-1.3,0.4-1.9,0.6c-0.7,0.2-1.3,0.3-2,0.4c-0.7,0.1-1.3,0.1-2,0.1c-2,0-3.8-0.3-5.4-0.9
			c-1.6-0.6-2.9-1.5-4.1-2.7c-1.1-1.2-1.9-2.6-2.5-4.2c-0.6-1.6-0.9-3.4-0.9-5.4c0-2.1,0.3-4,0.9-5.7s1.5-3.1,2.7-4.3
			c1.1-1.2,2.5-2.1,4.1-2.8c1.6-0.7,3.4-1,5.3-1c1,0,1.9,0.1,2.8,0.3c0.9,0.2,1.7,0.4,2.3,0.6c0.7,0.2,1.3,0.5,1.7,0.8
			c0.5,0.3,0.8,0.5,1,0.7s0.3,0.4,0.4,0.6C31.6-10.3,31.6-9.9,31.6-9.5z"/>
		<path d="M58,11.7c0,0.3,0,0.5-0.1,0.7c-0.1,0.2-0.2,0.3-0.4,0.5c-0.1,0.1-0.3,0.2-0.5,0.3s-0.4,0.1-0.5,0.1h-1.2
			c-0.4,0-0.7,0-1-0.1c-0.3-0.1-0.5-0.2-0.8-0.4c-0.2-0.2-0.5-0.5-0.7-0.8c-0.2-0.3-0.5-0.8-0.8-1.3L44-4.3
			c-0.4-0.8-0.8-1.6-1.3-2.4s-0.8-1.7-1.2-2.5h0c0,1,0,2,0.1,3s0,2,0,3v15.9c0,0.1,0,0.2-0.1,0.3c-0.1,0.1-0.2,0.2-0.3,0.2
			c-0.1,0-0.3,0.1-0.5,0.1c-0.2,0-0.5,0.1-0.8,0.1c-0.3,0-0.6,0-0.8-0.1c-0.2,0-0.4-0.1-0.5-0.1c-0.1,0-0.2-0.1-0.3-0.2
			c-0.1-0.1-0.1-0.2-0.1-0.3v-24.2c0-0.5,0.2-0.9,0.5-1.2s0.6-0.3,1-0.3h1.7c0.4,0,0.7,0,1,0.1c0.3,0.1,0.5,0.2,0.7,0.3
			c0.2,0.2,0.4,0.4,0.6,0.7c0.2,0.3,0.4,0.6,0.6,1l6.2,11.5c0.4,0.7,0.7,1.4,1.1,2.1c0.4,0.7,0.7,1.3,1,2c0.3,0.6,0.7,1.3,1,1.9
			c0.3,0.6,0.6,1.3,1,1.9h0c0-1.1,0-2.2-0.1-3.3c0-1.2,0-2.3,0-3.3v-14.2c0-0.1,0-0.2,0.1-0.3c0.1-0.1,0.2-0.2,0.3-0.2
			c0.1-0.1,0.3-0.1,0.5-0.1c0.2,0,0.5,0,0.9,0c0.3,0,0.6,0,0.8,0s0.4,0.1,0.5,0.1c0.1,0.1,0.2,0.1,0.3,0.2c0.1,0.1,0.1,0.2,0.1,0.3
			V11.7z"/>
		<path d="M85.1-0.3c0,2.3-0.3,4.3-0.9,6c-0.6,1.7-1.4,3.1-2.5,4.2c-1.1,1.1-2.5,2-4.1,2.5s-3.6,0.8-5.8,0.8h-5.6
			c-0.3,0-0.6-0.1-0.9-0.3s-0.4-0.6-0.4-1.1v-23.4c0-0.5,0.1-0.9,0.4-1.1s0.6-0.3,0.9-0.3h5.9c2.3,0,4.2,0.3,5.8,0.9
			c1.6,0.6,2.9,1.4,3.9,2.5s1.9,2.4,2.4,4C84.9-4.1,85.1-2.3,85.1-0.3z M81.5-0.2c0-1.4-0.2-2.7-0.5-4S80-6.4,79.3-7.3
			c-0.8-0.9-1.7-1.6-2.9-2.1c-1.2-0.5-2.6-0.8-4.4-0.8h-3.6v20.4H72c1.7,0,3.1-0.2,4.2-0.6c1.2-0.4,2.1-1.1,2.9-1.9s1.3-2,1.7-3.3
			S81.5,1.6,81.5-0.2z"/>
	</g>
	<g class="st8">
		<path d="M165.1,7.5c0,1.2-0.2,2.3-0.7,3.3c-0.5,1-1.1,1.8-1.9,2.4c-0.8,0.7-1.8,1.2-2.8,1.5c-1.1,0.3-2.3,0.5-3.5,0.5
			c-0.9,0-1.7-0.1-2.4-0.2c-0.8-0.1-1.4-0.3-2-0.5c-0.6-0.2-1.1-0.4-1.5-0.7c-0.4-0.2-0.7-0.4-0.8-0.6c-0.2-0.2-0.3-0.4-0.3-0.6
			c-0.1-0.2-0.1-0.6-0.1-1c0-0.3,0-0.5,0-0.7s0.1-0.4,0.1-0.5c0.1-0.1,0.1-0.2,0.2-0.3c0.1,0,0.2-0.1,0.3-0.1c0.2,0,0.5,0.1,0.8,0.3
			c0.3,0.2,0.8,0.5,1.3,0.8c0.5,0.3,1.2,0.5,2,0.8c0.8,0.2,1.6,0.4,2.6,0.4c0.8,0,1.5-0.1,2.1-0.3c0.6-0.2,1.2-0.5,1.6-0.9
			c0.5-0.4,0.8-0.8,1-1.4c0.2-0.5,0.4-1.2,0.4-1.8c0-0.7-0.2-1.4-0.5-1.9c-0.3-0.5-0.8-1-1.3-1.4c-0.6-0.4-1.2-0.8-1.9-1.1
			c-0.7-0.3-1.4-0.7-2.2-1c-0.7-0.3-1.5-0.7-2.2-1.1c-0.7-0.4-1.3-0.9-1.9-1.5s-1-1.2-1.3-2c-0.3-0.8-0.5-1.7-0.5-2.7
			c0-1.1,0.2-2.1,0.6-2.9c0.4-0.9,1-1.6,1.7-2.2c0.7-0.6,1.6-1,2.5-1.3c1-0.3,2-0.5,3.2-0.5c0.6,0,1.2,0.1,1.8,0.2
			c0.6,0.1,1.1,0.2,1.7,0.4c0.5,0.2,1,0.4,1.4,0.6c0.4,0.2,0.7,0.4,0.8,0.5c0.1,0.1,0.2,0.2,0.3,0.3c0,0.1,0.1,0.2,0.1,0.3
			c0,0.1,0,0.3,0.1,0.4c0,0.2,0,0.4,0,0.6c0,0.2,0,0.5,0,0.6c0,0.2-0.1,0.3-0.1,0.5s-0.1,0.2-0.2,0.3C163.3-7,163.2-7,163.1-7
			c-0.1,0-0.4-0.1-0.7-0.3c-0.3-0.2-0.7-0.4-1.2-0.6c-0.5-0.2-1-0.5-1.6-0.6c-0.6-0.2-1.3-0.3-2.1-0.3c-0.7,0-1.4,0.1-1.9,0.3
			c-0.5,0.2-1,0.5-1.3,0.8c-0.4,0.3-0.6,0.7-0.8,1.2c-0.2,0.4-0.3,0.9-0.3,1.4c0,0.7,0.2,1.4,0.5,1.9c0.3,0.5,0.8,1,1.3,1.4
			c0.6,0.4,1.2,0.8,1.9,1.1c0.7,0.3,1.4,0.7,2.2,1c0.7,0.3,1.5,0.7,2.2,1.1c0.7,0.4,1.4,0.9,1.9,1.5s1,1.2,1.4,2
			S165.1,6.5,165.1,7.5z"/>
		<path d="M173.5-10c0,0.8-0.1,1.3-0.4,1.6S172.2-8,171.4-8c-0.8,0-1.3-0.1-1.6-0.4s-0.4-0.8-0.4-1.6c0-0.8,0.1-1.3,0.4-1.6
			c0.3-0.3,0.8-0.4,1.6-0.4c0.8,0,1.3,0.1,1.6,0.4S173.5-10.8,173.5-10z M173.1,14.4c0,0.1,0,0.2-0.1,0.3c-0.1,0.1-0.1,0.1-0.3,0.2
			c-0.1,0.1-0.3,0.1-0.5,0.1c-0.2,0-0.5,0-0.8,0c-0.3,0-0.6,0-0.8,0s-0.4-0.1-0.5-0.1c-0.1-0.1-0.2-0.1-0.3-0.2
			c0-0.1-0.1-0.2-0.1-0.3V-3.9c0-0.1,0-0.2,0.1-0.3c0-0.1,0.1-0.1,0.3-0.2c0.1-0.1,0.3-0.1,0.5-0.1s0.5,0,0.8,0c0.3,0,0.6,0,0.8,0
			c0.2,0,0.4,0.1,0.5,0.1c0.1,0.1,0.2,0.1,0.3,0.2c0.1,0.1,0.1,0.2,0.1,0.3V14.4z"/>
		<path d="M194.5-3c0,0.5-0.1,0.8-0.2,1c-0.1,0.2-0.3,0.3-0.5,0.3h-2.6c0.5,0.5,0.8,1,1,1.6s0.3,1.2,0.3,1.8c0,1.1-0.2,2-0.5,2.8
			c-0.3,0.8-0.8,1.5-1.5,2.1c-0.6,0.6-1.4,1-2.2,1.3c-0.9,0.3-1.8,0.4-2.9,0.4c-0.7,0-1.5-0.1-2.1-0.3c-0.7-0.2-1.2-0.4-1.6-0.7
			c-0.2,0.2-0.4,0.5-0.6,0.8c-0.2,0.3-0.2,0.7-0.2,1.1c0,0.5,0.2,0.9,0.7,1.2s1,0.5,1.8,0.5l4.8,0.2c0.9,0,1.7,0.2,2.5,0.4
			c0.8,0.2,1.4,0.5,2,1c0.6,0.4,1,0.9,1.3,1.5c0.3,0.6,0.5,1.3,0.5,2.1c0,0.8-0.2,1.6-0.5,2.4c-0.4,0.8-0.9,1.4-1.6,2
			s-1.6,1-2.8,1.4c-1.1,0.3-2.4,0.5-4,0.5c-1.5,0-2.7-0.1-3.8-0.4s-1.9-0.6-2.5-1c-0.7-0.4-1.1-1-1.4-1.6c-0.3-0.6-0.4-1.3-0.4-2
			c0-0.4,0.1-0.9,0.2-1.3c0.1-0.4,0.3-0.8,0.5-1.2c0.2-0.4,0.5-0.7,0.8-1.1c0.3-0.3,0.7-0.7,1.1-1c-0.7-0.3-1.2-0.8-1.5-1.3
			c-0.3-0.5-0.5-1.1-0.5-1.7c0-0.8,0.2-1.6,0.5-2.2c0.3-0.6,0.8-1.2,1.3-1.7c-0.4-0.5-0.8-1.1-1-1.7c-0.2-0.6-0.4-1.4-0.4-2.3
			c0-1,0.2-2,0.5-2.8c0.4-0.8,0.8-1.5,1.5-2.1s1.4-1,2.2-1.3s1.8-0.5,2.9-0.5c0.6,0,1.1,0,1.6,0.1s0.9,0.1,1.4,0.3h5.5
			c0.2,0,0.4,0.1,0.5,0.3C194.5-3.8,194.5-3.5,194.5-3z M191,16.2c0-0.8-0.3-1.4-1-1.8c-0.6-0.4-1.5-0.7-2.6-0.7l-4.7-0.2
			c-0.4,0.3-0.8,0.7-1.1,1s-0.5,0.6-0.7,0.9c-0.2,0.3-0.3,0.6-0.3,0.8c-0.1,0.3-0.1,0.5-0.1,0.8c0,0.9,0.4,1.5,1.3,2
			c0.9,0.5,2.1,0.7,3.7,0.7c1,0,1.9-0.1,2.5-0.3c0.7-0.2,1.2-0.5,1.7-0.8c0.4-0.3,0.7-0.7,0.9-1.1C190.9,17.1,191,16.7,191,16.2z
			 M189.3,1.8c0-1.2-0.3-2.2-1-2.9c-0.7-0.7-1.7-1-2.9-1c-0.6,0-1.2,0.1-1.7,0.3c-0.5,0.2-0.9,0.5-1.2,0.9c-0.3,0.4-0.6,0.8-0.7,1.3
			c-0.2,0.5-0.2,1-0.2,1.6c0,1.2,0.3,2.2,1,2.8c0.7,0.7,1.6,1,2.9,1c0.7,0,1.2-0.1,1.7-0.3c0.5-0.2,0.9-0.5,1.2-0.9
			c0.3-0.4,0.6-0.8,0.7-1.3S189.3,2.3,189.3,1.8z"/>
		<path d="M214.6,14.4c0,0.1,0,0.2-0.1,0.3c-0.1,0.1-0.1,0.1-0.3,0.2c-0.1,0.1-0.3,0.1-0.5,0.1c-0.2,0-0.5,0-0.8,0
			c-0.3,0-0.6,0-0.8,0c-0.2,0-0.4-0.1-0.5-0.1c-0.1-0.1-0.2-0.1-0.3-0.2c-0.1-0.1-0.1-0.2-0.1-0.3V3.7c0-1-0.1-1.9-0.2-2.5
			s-0.4-1.2-0.7-1.6c-0.3-0.5-0.7-0.8-1.2-1.1c-0.5-0.2-1.1-0.4-1.7-0.4c-0.8,0-1.7,0.3-2.5,0.9s-1.7,1.5-2.6,2.6v12.8
			c0,0.1,0,0.2-0.1,0.3c-0.1,0.1-0.1,0.1-0.3,0.2c-0.1,0.1-0.3,0.1-0.5,0.1c-0.2,0-0.5,0-0.8,0c-0.3,0-0.6,0-0.8,0s-0.4-0.1-0.5-0.1
			c-0.1-0.1-0.2-0.1-0.3-0.2c0-0.1-0.1-0.2-0.1-0.3V-3.9c0-0.1,0-0.2,0.1-0.3c0-0.1,0.1-0.1,0.2-0.2s0.3-0.1,0.5-0.1s0.4,0,0.8,0
			c0.3,0,0.5,0,0.7,0c0.2,0,0.3,0.1,0.5,0.1s0.2,0.1,0.2,0.2c0,0.1,0.1,0.2,0.1,0.3v2.4c1-1.2,2.1-2,3.1-2.5c1-0.5,2.1-0.8,3.1-0.8
			c1.2,0,2.2,0.2,3.1,0.6s1.5,1,2,1.7s0.9,1.5,1.1,2.4s0.3,2,0.3,3.3V14.4z"/>
		<path d="M234.5,14.4c0,0.2-0.1,0.3-0.2,0.4s-0.3,0.1-0.4,0.2c-0.2,0-0.5,0.1-0.8,0.1c-0.4,0-0.6,0-0.8-0.1c-0.2,0-0.4-0.1-0.5-0.2
			s-0.1-0.2-0.1-0.4v-1.8c-0.8,0.9-1.7,1.5-2.7,2c-1,0.5-2,0.7-3.1,0.7c-1,0-1.8-0.1-2.6-0.4c-0.8-0.2-1.4-0.6-2-1.1
			c-0.5-0.5-1-1.1-1.3-1.7s-0.5-1.5-0.5-2.4c0-1,0.2-1.9,0.6-2.7c0.4-0.8,1-1.4,1.8-1.9c0.8-0.5,1.7-0.9,2.9-1.1
			c1.1-0.3,2.4-0.4,3.8-0.4h2.5V2.2c0-0.7-0.1-1.3-0.2-1.9c-0.1-0.5-0.4-1-0.7-1.4c-0.3-0.4-0.8-0.6-1.3-0.8
			c-0.5-0.2-1.2-0.3-1.9-0.3c-0.8,0-1.6,0.1-2.2,0.3s-1.2,0.4-1.7,0.6s-0.9,0.5-1.2,0.6c-0.3,0.2-0.6,0.3-0.7,0.3
			c-0.1,0-0.2,0-0.3-0.1c-0.1-0.1-0.2-0.1-0.2-0.2c-0.1-0.1-0.1-0.2-0.1-0.4s0-0.4,0-0.6c0-0.3,0-0.6,0.1-0.8c0-0.2,0.2-0.4,0.3-0.6
			c0.2-0.2,0.5-0.4,0.9-0.6c0.4-0.2,1-0.5,1.5-0.6c0.6-0.2,1.2-0.4,1.9-0.5c0.7-0.1,1.4-0.2,2.1-0.2c1.3,0,2.4,0.1,3.3,0.4
			c0.9,0.3,1.7,0.7,2.2,1.3s1,1.3,1.2,2.1c0.3,0.9,0.4,1.8,0.4,3V14.4z M231.1,6.1h-2.9c-0.9,0-1.7,0.1-2.4,0.2
			c-0.7,0.2-1.2,0.4-1.7,0.7c-0.4,0.3-0.8,0.7-1,1.1c-0.2,0.4-0.3,0.9-0.3,1.5c0,0.9,0.3,1.7,0.9,2.3c0.6,0.6,1.4,0.8,2.5,0.8
			c0.9,0,1.7-0.2,2.4-0.7c0.8-0.4,1.5-1.1,2.4-2.1V6.1z"/>
		<path d="M244,14.4c0,0.1,0,0.2-0.1,0.3c-0.1,0.1-0.1,0.1-0.3,0.2c-0.1,0.1-0.3,0.1-0.5,0.1c-0.2,0-0.5,0-0.8,0c-0.3,0-0.6,0-0.8,0
			s-0.4-0.1-0.5-0.1c-0.1-0.1-0.2-0.1-0.3-0.2c0-0.1-0.1-0.2-0.1-0.3v-27.1c0-0.1,0-0.2,0.1-0.3c0-0.1,0.1-0.1,0.3-0.2
			c0.1-0.1,0.3-0.1,0.5-0.1c0.2,0,0.5,0,0.8,0c0.3,0,0.6,0,0.8,0c0.2,0,0.4,0.1,0.5,0.1c0.1,0.1,0.2,0.1,0.3,0.2
			c0.1,0.1,0.1,0.2,0.1,0.3V14.4z"/>
	</g>
	<g class="st8">
		<path d="M113.6,1.7c0,0.3,0,0.5-0.1,0.7c0,0.2-0.1,0.3-0.2,0.5c-0.1,0.1-0.1,0.2-0.2,0.3s-0.2,0.1-0.3,0.1h-6.7v7.4
			c0,0.1,0,0.2-0.1,0.3c-0.1,0.1-0.1,0.1-0.3,0.2c-0.1,0.1-0.3,0.1-0.5,0.1c-0.2,0-0.4,0.1-0.7,0.1c-0.3,0-0.5,0-0.7-0.1
			c-0.2,0-0.4-0.1-0.5-0.1c-0.1-0.1-0.2-0.1-0.3-0.2c-0.1-0.1-0.1-0.2-0.1-0.3V3.2h-6.7c-0.1,0-0.2,0-0.3-0.1
			C96.1,3.1,96,3,95.9,2.9c-0.1-0.1-0.1-0.3-0.2-0.5c0-0.2-0.1-0.4-0.1-0.7c0-0.2,0-0.5,0.1-0.6c0-0.2,0.1-0.3,0.2-0.5
			c0.1-0.1,0.1-0.2,0.2-0.3c0.1-0.1,0.2-0.1,0.3-0.1h6.7v-7.4c0-0.1,0-0.2,0.1-0.3c0.1-0.1,0.1-0.2,0.3-0.2c0.1-0.1,0.3-0.1,0.5-0.1
			c0.2,0,0.4-0.1,0.7-0.1c0.3,0,0.5,0,0.7,0.1c0.2,0,0.3,0.1,0.5,0.1c0.1,0.1,0.2,0.1,0.3,0.2c0.1,0.1,0.1,0.2,0.1,0.3v7.4h6.7
			c0.1,0,0.2,0,0.3,0.1c0.1,0.1,0.2,0.1,0.2,0.3s0.1,0.3,0.2,0.5C113.6,1.3,113.6,1.5,113.6,1.7z"/>
		<path d="M129.1,12.8c-0.1,0.1-0.1,0.3-0.2,0.4s-0.2,0.2-0.4,0.2s-0.4,0.1-0.6,0.1c-0.3,0-0.6,0-1,0c-0.3,0-0.6,0-0.8,0
			c-0.2,0-0.4,0-0.6-0.1s-0.3-0.1-0.4-0.1c-0.1,0-0.2-0.1-0.3-0.1c-0.1-0.1-0.1-0.1-0.2-0.2c0-0.1-0.1-0.2-0.1-0.3l-8.6-24.4
			c-0.1-0.3-0.2-0.5-0.2-0.7c0-0.2,0.1-0.3,0.2-0.4c0.1-0.1,0.3-0.2,0.6-0.2c0.3,0,0.6,0,1.1,0c0.4,0,0.7,0,0.9,0s0.4,0.1,0.5,0.1
			c0.1,0.1,0.2,0.1,0.3,0.2c0.1,0.1,0.1,0.2,0.2,0.3L127,9.8h0l7.3-22.1c0-0.1,0.1-0.3,0.1-0.4c0.1-0.1,0.1-0.2,0.3-0.2
			c0.1-0.1,0.3-0.1,0.6-0.1c0.2,0,0.6,0,1,0c0.4,0,0.8,0,1,0.1c0.2,0,0.4,0.1,0.5,0.2s0.1,0.2,0.1,0.4s-0.1,0.4-0.2,0.7L129.1,12.8z
			"/>
	</g>
	<g class="st8">
		<path class="st0" d="M31.4-946.3c0.1,0,0.2,0,0.3,0.1c0.1,0.1,0.2,0.1,0.2,0.3c0.1,0.1,0.1,0.3,0.1,0.6s0.1,0.6,0.1,1
			c0,0.5,0,0.9-0.1,1.2c0,0.3-0.1,0.6-0.2,0.7c-0.1,0.2-0.2,0.3-0.4,0.4l-14.1,10.4h14.1c0.1,0,0.2,0,0.3,0.1
			c0.1,0.1,0.2,0.2,0.2,0.3c0.1,0.1,0.1,0.3,0.1,0.6s0.1,0.5,0.1,0.9c0,0.3,0,0.6-0.1,0.9s-0.1,0.4-0.1,0.6
			c-0.1,0.1-0.1,0.2-0.2,0.3c-0.1,0.1-0.2,0.1-0.3,0.1H4.3c-0.1,0-0.2,0-0.3-0.1c-0.1-0.1-0.2-0.2-0.2-0.3c-0.1-0.1-0.1-0.3-0.1-0.6
			c0-0.2-0.1-0.5-0.1-0.9c0-0.4,0-0.7,0.1-0.9c0-0.2,0.1-0.4,0.1-0.6s0.1-0.2,0.2-0.3c0.1-0.1,0.2-0.1,0.3-0.1h12.6l-12.6-10
			c-0.1-0.1-0.2-0.2-0.3-0.3c-0.1-0.1-0.2-0.3-0.2-0.4c-0.1-0.2-0.1-0.4-0.1-0.6c0-0.2,0-0.5,0-0.9c0-0.4,0-0.7,0.1-0.9
			c0-0.2,0.1-0.4,0.1-0.6c0.1-0.1,0.1-0.2,0.2-0.3s0.2-0.1,0.3-0.1c0.2,0,0.4,0,0.6,0.1c0.2,0.1,0.5,0.3,0.8,0.5l11.2,9.4l13.4-10.1
			c0.4-0.2,0.6-0.4,0.8-0.4S31.3-946.3,31.4-946.3z"/>
		<path class="st0" d="M21-960.1h10.4c0.1,0,0.2,0,0.3,0.1c0.1,0.1,0.2,0.2,0.2,0.3c0.1,0.1,0.1,0.3,0.1,0.6s0.1,0.5,0.1,0.9
			c0,0.4,0,0.7-0.1,0.9c0,0.2-0.1,0.4-0.1,0.6c-0.1,0.2-0.1,0.3-0.2,0.3c-0.1,0.1-0.2,0.1-0.3,0.1H21l-15.9,8
			c-0.3,0.2-0.6,0.3-0.8,0.3c-0.2,0-0.3,0-0.4-0.1c-0.1-0.1-0.2-0.3-0.2-0.6c0-0.3,0-0.7,0-1.1c0-0.4,0-0.8,0-1.1
			c0-0.3,0.1-0.5,0.1-0.6c0.1-0.2,0.1-0.3,0.2-0.4s0.2-0.2,0.4-0.2l8.1-3.9c0.8-0.4,1.6-0.7,2.4-1.1c0.8-0.4,1.7-0.7,2.6-1.1v0
			c-0.8-0.3-1.7-0.7-2.5-1c-0.8-0.4-1.6-0.7-2.4-1.1l-8.2-3.9c-0.1,0-0.3-0.1-0.4-0.2c-0.1-0.1-0.2-0.2-0.2-0.3
			c-0.1-0.1-0.1-0.3-0.1-0.6c0-0.2,0-0.6,0-0.9c0-0.5,0-0.9,0.1-1.2c0-0.3,0.1-0.5,0.2-0.6c0.1-0.1,0.2-0.2,0.4-0.1
			c0.2,0,0.4,0.1,0.8,0.3L21-960.1z"/>
		<path class="st0" d="M21-978.8c0.6,0,1,0.1,1.2,0.2c0.2,0.1,0.3,0.3,0.3,0.6v9.1c0,0.3-0.1,0.5-0.3,0.6s-0.6,0.2-1.2,0.2
			s-0.9-0.1-1.2-0.2c-0.2-0.1-0.3-0.3-0.3-0.6v-9.1c0-0.1,0-0.2,0.1-0.3c0-0.1,0.1-0.2,0.3-0.2c0.1-0.1,0.3-0.1,0.5-0.2
			C20.5-978.7,20.7-978.8,21-978.8z"/>
		<path class="st0" d="M17.8-1001.4c2.2,0,4.1,0.2,5.9,0.5c1.8,0.3,3.3,0.9,4.6,1.7c1.3,0.8,2.3,1.8,3,3.1c0.7,1.3,1.1,2.9,1.1,4.7
			c0,1.8-0.3,3.3-1,4.5c-0.6,1.2-1.6,2.2-2.8,2.9c-1.2,0.7-2.7,1.3-4.5,1.6c-1.8,0.3-3.9,0.5-6.2,0.5c-2.2,0-4.1-0.2-5.9-0.5
			c-1.8-0.3-3.3-0.9-4.6-1.7c-1.3-0.8-2.3-1.8-3-3.1c-0.7-1.3-1.1-2.9-1.1-4.7c0-1.8,0.3-3.3,0.9-4.5s1.6-2.2,2.8-2.9
			c1.2-0.7,2.7-1.3,4.5-1.6C13.4-1001.2,15.5-1001.4,17.8-1001.4z M18.1-997.5c-1.4,0-2.7,0.1-3.8,0.2c-1.1,0.1-2.1,0.3-3,0.4
			c-0.9,0.2-1.6,0.5-2.2,0.8c-0.6,0.3-1.1,0.7-1.5,1.1c-0.4,0.4-0.7,0.9-0.9,1.5c-0.2,0.6-0.3,1.2-0.3,1.9c0,1.2,0.3,2.2,0.9,3
			c0.6,0.8,1.4,1.4,2.4,1.8c1,0.4,2.2,0.7,3.6,0.9c1.4,0.2,2.8,0.2,4.4,0.2c2.1,0,3.9-0.1,5.4-0.3c1.5-0.2,2.7-0.6,3.6-1
			c0.9-0.5,1.6-1.1,2-1.8c0.4-0.7,0.6-1.6,0.6-2.7c0-0.8-0.1-1.5-0.4-2.2c-0.3-0.6-0.6-1.1-1.1-1.6c-0.5-0.4-1.1-0.8-1.8-1.1
			c-0.7-0.3-1.4-0.5-2.3-0.7s-1.7-0.3-2.7-0.4S19.1-997.5,18.1-997.5z"/>
		<path class="st0" d="M23.9-1022.9c1.3,0,2.5,0.2,3.5,0.7c1,0.5,1.9,1.1,2.7,1.9c0.7,0.8,1.3,1.9,1.7,3.1c0.4,1.2,0.6,2.6,0.6,4.2
			c0,0.9-0.1,1.8-0.2,2.7s-0.3,1.6-0.5,2.2s-0.4,1.2-0.7,1.6c-0.2,0.4-0.4,0.7-0.5,0.8c-0.1,0.1-0.2,0.2-0.3,0.3
			c-0.1,0.1-0.2,0.1-0.4,0.2c-0.1,0-0.3,0.1-0.5,0.1c-0.2,0-0.5,0-0.8,0c-0.5,0-0.9-0.1-1.1-0.2c-0.2-0.1-0.3-0.3-0.3-0.4
			c0-0.1,0.1-0.4,0.3-0.8c0.2-0.4,0.5-0.9,0.8-1.5c0.3-0.6,0.5-1.3,0.8-2.2c0.2-0.8,0.3-1.8,0.3-2.8c0-1-0.1-1.9-0.4-2.6
			s-0.6-1.4-1-1.9c-0.5-0.5-1-0.9-1.6-1.1c-0.6-0.3-1.3-0.4-2-0.4c-0.8,0-1.5,0.2-2.2,0.5c-0.6,0.3-1.2,0.8-1.7,1.4
			c-0.5,0.6-0.8,1.4-1.1,2.3c-0.2,0.9-0.4,1.9-0.4,3.1v2.8c0,0.1,0,0.2-0.1,0.3c-0.1,0.1-0.1,0.2-0.3,0.3c-0.1,0.1-0.3,0.2-0.5,0.2
			c-0.2,0.1-0.4,0.1-0.7,0.1c-0.3,0-0.5,0-0.7-0.1c-0.2,0-0.3-0.1-0.4-0.2c-0.1-0.1-0.2-0.2-0.2-0.3c-0.1-0.1-0.1-0.2-0.1-0.3v-2.5
			c0-1-0.1-1.8-0.4-2.6c-0.2-0.8-0.6-1.4-1.1-1.9c-0.5-0.5-1-0.9-1.7-1.2c-0.6-0.3-1.4-0.4-2.2-0.4c-0.6,0-1.1,0.1-1.7,0.3
			c-0.5,0.2-1,0.5-1.4,0.9c-0.4,0.4-0.7,0.9-0.9,1.5c-0.2,0.6-0.3,1.3-0.3,2c0,0.8,0.1,1.6,0.4,2.3c0.3,0.7,0.5,1.3,0.8,1.9
			s0.6,1,0.8,1.4c0.3,0.4,0.4,0.6,0.4,0.8c0,0.1,0,0.2-0.1,0.3s-0.1,0.1-0.2,0.2c-0.1,0.1-0.3,0.1-0.5,0.1c-0.2,0-0.5,0-0.8,0
			c-0.2,0-0.4,0-0.6,0c-0.2,0-0.3,0-0.4-0.1c-0.1,0-0.2-0.1-0.3-0.2c-0.1-0.1-0.2-0.2-0.4-0.3c-0.1-0.1-0.3-0.4-0.6-0.8
			c-0.3-0.4-0.5-0.9-0.8-1.6s-0.5-1.3-0.6-2.1s-0.3-1.7-0.3-2.6c0-1.3,0.2-2.5,0.5-3.4s0.8-1.8,1.4-2.5c0.6-0.7,1.3-1.2,2.2-1.5
			c0.9-0.3,1.8-0.5,2.8-0.5c0.9,0,1.7,0.1,2.5,0.3c0.8,0.2,1.4,0.6,2,1c0.6,0.5,1.1,1,1.5,1.7c0.4,0.7,0.7,1.4,0.9,2.3h0
			c0.1-1,0.3-1.9,0.7-2.7s0.9-1.5,1.5-2.1s1.3-1,2-1.4S23.1-1022.9,23.9-1022.9z"/>
		<path class="st0" d="M23.9-1045.5c1.3,0,2.5,0.2,3.5,0.7c1,0.5,1.9,1.1,2.7,1.9c0.7,0.8,1.3,1.9,1.7,3.1c0.4,1.2,0.6,2.6,0.6,4.2
			c0,0.9-0.1,1.8-0.2,2.7s-0.3,1.6-0.5,2.2s-0.4,1.2-0.7,1.6c-0.2,0.4-0.4,0.7-0.5,0.8c-0.1,0.1-0.2,0.2-0.3,0.3
			c-0.1,0.1-0.2,0.1-0.4,0.2c-0.1,0-0.3,0.1-0.5,0.1c-0.2,0-0.5,0-0.8,0c-0.5,0-0.9-0.1-1.1-0.2c-0.2-0.1-0.3-0.3-0.3-0.4
			c0-0.1,0.1-0.4,0.3-0.8c0.2-0.4,0.5-0.9,0.8-1.5c0.3-0.6,0.5-1.3,0.8-2.2c0.2-0.8,0.3-1.8,0.3-2.8c0-1-0.1-1.9-0.4-2.6
			s-0.6-1.4-1-1.9c-0.5-0.5-1-0.9-1.6-1.1c-0.6-0.3-1.3-0.4-2-0.4c-0.8,0-1.5,0.2-2.2,0.5c-0.6,0.3-1.2,0.8-1.7,1.4
			c-0.5,0.6-0.8,1.4-1.1,2.3c-0.2,0.9-0.4,1.9-0.4,3.1v2.8c0,0.1,0,0.2-0.1,0.3c-0.1,0.1-0.1,0.2-0.3,0.3c-0.1,0.1-0.3,0.2-0.5,0.2
			c-0.2,0.1-0.4,0.1-0.7,0.1c-0.3,0-0.5,0-0.7-0.1c-0.2,0-0.3-0.1-0.4-0.2c-0.1-0.1-0.2-0.2-0.2-0.3c-0.1-0.1-0.1-0.2-0.1-0.3v-2.5
			c0-1-0.1-1.8-0.4-2.6c-0.2-0.8-0.6-1.4-1.1-1.9c-0.5-0.5-1-0.9-1.7-1.2c-0.6-0.3-1.4-0.4-2.2-0.4c-0.6,0-1.1,0.1-1.7,0.3
			c-0.5,0.2-1,0.5-1.4,0.9c-0.4,0.4-0.7,0.9-0.9,1.5c-0.2,0.6-0.3,1.3-0.3,2c0,0.8,0.1,1.6,0.4,2.3c0.3,0.7,0.5,1.3,0.8,1.9
			s0.6,1,0.8,1.4c0.3,0.4,0.4,0.6,0.4,0.8c0,0.1,0,0.2-0.1,0.3s-0.1,0.1-0.2,0.2c-0.1,0.1-0.3,0.1-0.5,0.1c-0.2,0-0.5,0-0.8,0
			c-0.2,0-0.4,0-0.6,0c-0.2,0-0.3,0-0.4-0.1c-0.1,0-0.2-0.1-0.3-0.2c-0.1-0.1-0.2-0.2-0.4-0.3c-0.1-0.1-0.3-0.4-0.6-0.8
			c-0.3-0.4-0.5-0.9-0.8-1.6s-0.5-1.3-0.6-2.1s-0.3-1.7-0.3-2.6c0-1.3,0.2-2.5,0.5-3.4s0.8-1.8,1.4-2.5c0.6-0.7,1.3-1.2,2.2-1.5
			c0.9-0.3,1.8-0.5,2.8-0.5c0.9,0,1.7,0.1,2.5,0.3c0.8,0.2,1.4,0.6,2,1c0.6,0.5,1.1,1,1.5,1.7c0.4,0.7,0.7,1.4,0.9,2.3h0
			c0.1-1,0.3-1.9,0.7-2.7s0.9-1.5,1.5-2.1s1.3-1,2-1.4S23.1-1045.5,23.9-1045.5z"/>
	</g>
	<g class="st8">
		<path class="st0" d="M74.3-197c0,0.3,0,0.6,0,0.8c0,0.2-0.1,0.4-0.1,0.6c-0.1,0.2-0.1,0.3-0.2,0.3c-0.1,0.1-0.2,0.1-0.3,0.1
			c-0.2,0-0.5-0.2-1-0.5c-0.5-0.3-1.1-0.7-1.9-1c-0.8-0.4-1.7-0.7-2.8-1c-1.1-0.3-2.4-0.5-3.8-0.5c-1.8,0-3.3,0.3-4.7,1
			c-1.4,0.6-2.6,1.5-3.6,2.7s-1.7,2.5-2.2,4.1s-0.8,3.3-0.8,5.1c0,2,0.3,3.9,0.9,5.4s1.4,2.9,2.4,4c1,1.1,2.2,1.9,3.6,2.5
			c1.4,0.6,2.9,0.8,4.6,0.8c1,0,2-0.1,3-0.4c1-0.2,2-0.6,2.8-1.1v-9.3h-7.4c-0.3,0-0.5-0.1-0.6-0.4c-0.1-0.3-0.2-0.7-0.2-1.3
			c0-0.3,0-0.6,0-0.8c0-0.2,0.1-0.4,0.2-0.5s0.2-0.2,0.3-0.3c0.1-0.1,0.2-0.1,0.4-0.1h10.2c0.2,0,0.4,0,0.5,0.1
			c0.2,0.1,0.3,0.2,0.5,0.3s0.3,0.3,0.3,0.5c0.1,0.2,0.1,0.5,0.1,0.8v12.2c0,0.4-0.1,0.8-0.2,1.1c-0.1,0.3-0.5,0.6-0.9,0.8
			c-0.5,0.2-1.1,0.5-1.9,0.8s-1.5,0.5-2.3,0.7c-0.8,0.2-1.6,0.3-2.4,0.4c-0.8,0.1-1.6,0.1-2.4,0.1c-2.5,0-4.7-0.4-6.6-1.1
			s-3.6-1.9-4.9-3.3c-1.3-1.4-2.4-3.1-3.1-5.1s-1.1-4.2-1.1-6.6c0-2.5,0.4-4.8,1.1-6.9c0.8-2.1,1.8-3.8,3.2-5.3s3.1-2.6,5-3.4
			c2-0.8,4.1-1.2,6.5-1.2c1.2,0,2.4,0.1,3.4,0.3c1.1,0.2,2,0.5,2.9,0.8c0.8,0.3,1.5,0.6,2.1,0.9c0.6,0.3,1,0.6,1.2,0.8
			c0.2,0.2,0.4,0.5,0.4,0.7C74.3-197.9,74.3-197.5,74.3-197z"/>
	</g>
	<g class="st8">
		<path class="st0" d="M111.7-183.3c0,0.3,0,0.6-0.1,0.8c0,0.2-0.1,0.4-0.2,0.6c-0.1,0.1-0.2,0.3-0.3,0.3s-0.2,0.1-0.4,0.1h-8.1v9
			c0,0.1,0,0.2-0.1,0.3c-0.1,0.1-0.2,0.2-0.3,0.2c-0.1,0.1-0.3,0.1-0.6,0.2s-0.5,0.1-0.9,0.1c-0.3,0-0.6,0-0.9-0.1
			c-0.2,0-0.4-0.1-0.6-0.2c-0.1-0.1-0.2-0.1-0.3-0.2c-0.1-0.1-0.1-0.2-0.1-0.3v-9h-8.1c-0.1,0-0.3,0-0.4-0.1s-0.2-0.2-0.3-0.3
			s-0.1-0.3-0.2-0.6c0-0.2-0.1-0.5-0.1-0.8c0-0.3,0-0.6,0.1-0.8c0-0.2,0.1-0.4,0.2-0.6c0.1-0.1,0.2-0.3,0.3-0.3
			c0.1-0.1,0.2-0.1,0.4-0.1H99v-9c0-0.1,0-0.3,0.1-0.4c0.1-0.1,0.2-0.2,0.3-0.3s0.3-0.1,0.6-0.2c0.2,0,0.5-0.1,0.9-0.1
			c0.3,0,0.6,0,0.9,0.1s0.4,0.1,0.6,0.2s0.2,0.2,0.3,0.3c0.1,0.1,0.1,0.2,0.1,0.4v9h8.1c0.1,0,0.3,0,0.4,0.1
			c0.1,0.1,0.2,0.2,0.3,0.3c0.1,0.1,0.2,0.3,0.2,0.6C111.7-183.8,111.7-183.6,111.7-183.3z"/>
		<path class="st0" d="M130.6-169.8c-0.1,0.2-0.2,0.3-0.3,0.4c-0.1,0.1-0.3,0.2-0.5,0.3s-0.5,0.1-0.8,0.1s-0.7,0-1.2,0
			c-0.4,0-0.7,0-1,0c-0.3,0-0.5,0-0.7-0.1c-0.2,0-0.4-0.1-0.5-0.1s-0.3-0.1-0.4-0.2c-0.1-0.1-0.2-0.1-0.2-0.2
			c-0.1-0.1-0.1-0.2-0.2-0.3l-10.5-29.7c-0.1-0.4-0.2-0.7-0.2-0.9c0-0.2,0.1-0.4,0.2-0.5c0.1-0.1,0.4-0.2,0.7-0.2c0.3,0,0.8,0,1.3,0
			c0.5,0,0.8,0,1.1,0c0.3,0,0.5,0.1,0.6,0.1c0.1,0.1,0.3,0.2,0.3,0.3s0.1,0.2,0.2,0.4l9.2,26.9h0l8.9-26.9c0-0.2,0.1-0.3,0.2-0.4
			c0.1-0.1,0.2-0.2,0.3-0.3c0.2-0.1,0.4-0.1,0.7-0.1c0.3,0,0.7,0,1.2,0c0.5,0,0.9,0,1.2,0.1c0.3,0,0.5,0.1,0.6,0.2s0.1,0.3,0.1,0.5
			c0,0.2-0.1,0.5-0.2,0.9L130.6-169.8z"/>
	</g>
	<g class="st8">
		<path class="st0" d="M179.9-178.3c0,1.5-0.3,2.8-0.8,4c-0.6,1.2-1.3,2.2-2.3,3c-1,0.8-2.1,1.4-3.5,1.8c-1.3,0.4-2.8,0.6-4.3,0.6
			c-1.1,0-2.1-0.1-3-0.3c-0.9-0.2-1.7-0.4-2.4-0.7c-0.7-0.3-1.3-0.5-1.8-0.8c-0.5-0.3-0.8-0.5-1-0.7s-0.3-0.4-0.4-0.8
			c-0.1-0.3-0.1-0.7-0.1-1.2c0-0.4,0-0.7,0-0.9c0-0.2,0.1-0.4,0.1-0.6c0.1-0.1,0.1-0.3,0.2-0.3c0.1-0.1,0.2-0.1,0.3-0.1
			c0.2,0,0.6,0.1,1,0.4s1,0.6,1.6,0.9c0.7,0.3,1.5,0.6,2.4,0.9s2,0.4,3.2,0.4c0.9,0,1.8-0.1,2.5-0.4c0.8-0.2,1.4-0.6,2-1
			c0.6-0.5,1-1,1.3-1.7c0.3-0.7,0.4-1.4,0.4-2.2c0-0.9-0.2-1.7-0.6-2.3c-0.4-0.6-1-1.2-1.6-1.7c-0.7-0.5-1.4-0.9-2.3-1.3
			s-1.8-0.8-2.7-1.2c-0.9-0.4-1.8-0.9-2.6-1.4c-0.9-0.5-1.6-1.1-2.3-1.8c-0.7-0.7-1.2-1.5-1.6-2.4s-0.6-2-0.6-3.3
			c0-1.3,0.2-2.5,0.7-3.6c0.5-1,1.2-1.9,2-2.6c0.9-0.7,1.9-1.2,3.1-1.6c1.2-0.4,2.5-0.6,3.9-0.6c0.7,0,1.4,0.1,2.1,0.2
			c0.7,0.1,1.4,0.3,2,0.5s1.2,0.4,1.7,0.7c0.5,0.3,0.8,0.5,1,0.6s0.3,0.3,0.3,0.4c0,0.1,0.1,0.2,0.1,0.3c0,0.1,0.1,0.3,0.1,0.5
			s0,0.5,0,0.8c0,0.3,0,0.6,0,0.8c0,0.2-0.1,0.4-0.1,0.6c0,0.2-0.1,0.3-0.2,0.3c-0.1,0.1-0.2,0.1-0.3,0.1c-0.2,0-0.5-0.1-0.9-0.3
			c-0.4-0.2-0.9-0.5-1.4-0.8c-0.6-0.3-1.2-0.6-2-0.8c-0.8-0.2-1.6-0.4-2.6-0.4c-0.9,0-1.7,0.1-2.3,0.4c-0.7,0.2-1.2,0.6-1.6,1
			c-0.4,0.4-0.7,0.9-1,1.4c-0.2,0.5-0.3,1.1-0.3,1.7c0,0.9,0.2,1.7,0.6,2.3s1,1.2,1.6,1.7s1.5,0.9,2.3,1.4c0.9,0.4,1.8,0.8,2.7,1.2
			c0.9,0.4,1.8,0.9,2.7,1.4c0.9,0.5,1.7,1.1,2.3,1.8s1.2,1.5,1.7,2.4S179.9-179.6,179.9-178.3z"/>
	</g>
</g>
</svg>
