<?xml version="1.0" encoding="utf-8"?>
<!-- Generator: Adobe Illustrator 27.8.0, SVG Export Plug-In . SVG Version: 6.00 Build 0)  -->
<svg version="1.1"
	 id="svg8" xmlns:svg="http://www.w3.org/2000/svg" xmlns:rdf="http://www.w3.org/1999/02/22-rdf-syntax-ns#" xmlns:sodipodi="http://sodipodi.sourceforge.net/DTD/sodipodi-0.dtd" xmlns:dc="http://purl.org/dc/elements/1.1/" xmlns:inkscape="http://www.inkscape.org/namespaces/inkscape" xmlns:cc="http://creativecommons.org/ns#" inkscape:export-xdpi="93" inkscape:export-ydpi="93" inkscape:version="0.92.4 (5da689c313, 2019-01-14)"
	 xmlns="http://www.w3.org/2000/svg" xmlns:xlink="http://www.w3.org/1999/xlink" x="0px" y="0px" viewBox="0 0 475 1081"
	 style="enable-background:new 0 0 475 1081;" xml:space="preserve">
<style type="text/css">
	.st0{fill:#FFFFFF;}
	.st1{fill:#1A1A1A;}
	.st2{opacity:0.99;fill:#808080;enable-background:new    ;}
	.st3{opacity:0.99;fill:#CCCCCC;enable-background:new    ;}
	.st4{opacity:0.99;fill:#FFFFFF;enable-background:new    ;}
	.st5{enable-background:new    ;}
	.st6{opacity:0.99;enable-background:new    ;}
	.st7{opacity:0.99;fill:#F2F2F2;enable-background:new    ;}
	.st8{opacity:0.99;fill:#B3B3B3;enable-background:new    ;}
</style>
<defs>
	
		<inkscape:perspective  id="perspective876" inkscape:persp3d-origin="105 : 98.999991 : 1" inkscape:vp_x="0 : 148.49999 : 1" inkscape:vp_y="0 : 999.9999 : 0" inkscape:vp_z="210.00001 : 148.49999 : 1" sodipodi:type="inkscape:persp3d">
		</inkscape:perspective>
</defs>
<sodipodi:namedview  bordercolor="#666666" borderopacity="1.0" id="base" inkscape:current-layer="layer1" inkscape:cx="541.20009" inkscape:cy="2737.3018" inkscape:document-units="mm" inkscape:lockguides="true" inkscape:pageopacity="0.0" inkscape:pageshadow="2" inkscape:window-height="987" inkscape:window-maximized="1" inkscape:window-width="1680" inkscape:window-x="1912" inkscape:window-y="-8" inkscape:zoom="0.24748738" pagecolor="#ffffff" showgrid="false" showguides="true" width="500mm">
	</sodipodi:namedview>
<g id="layer1" transform="translate(0.31582593,727.81107)" inkscape:groupmode="layer" inkscape:label="Ebene 1">
	<rect id="rect815" x="-0.3" y="-430" width="475.5" height="639.1"/>
	<rect id="rect821" x="112.1" y="105" class="st0" width="247.4" height="85.2"/>
	<path id="rect825" class="st1" d="M128.3,109.8h49.6c8.7,0,15.7,7,15.7,15.7V169c0,8.7-7,15.7-15.7,15.7h-49.6
		c-8.7,0-15.7-7-15.7-15.7v-43.5C112.7,116.8,119.7,109.8,128.3,109.8z"/>
	<path id="rect872" class="st1" d="M293.6,109.8h49.6c8.7,0,15.7,7,15.7,15.7V169c0,8.7-7,15.7-15.7,15.7h-49.6
		c-8.7,0-15.7-7-15.7-15.7v-43.5C278,116.8,285,109.8,293.6,109.8z"/>
	<path id="rect874" class="st1" d="M209,109.8h53.6c7.5,0,13.6,6.1,13.6,13.6V171c0,7.5-6.1,13.6-13.6,13.6H209
		c-7.5,0-13.6-6.1-13.6-13.6v-47.5C195.3,115.9,201.4,109.8,209,109.8z"/>
	<rect id="rect947" x="148.6" y="150.5" class="st2" width="9" height="156.1"/>
	<rect id="rect949" x="231.7" y="150.5" class="st2" width="9" height="156.1"/>
	<rect id="rect951" x="313.8" y="150.5" class="st2" width="9" height="156.1"/>
	<g id="flowRoot969" transform="translate(0,-44.466751)">
	</g>
	<circle id="path1456" class="st3" cx="66.2" cy="-196.3" r="43.3"/>
	<circle id="ellipse1458" class="st3" cx="404" cy="-196.3" r="43.3"/>
	<circle id="path1460" class="st4" cx="66.2" cy="-196.3" r="39.1"/>
	<circle id="ellipse1464" class="st4" cx="404" cy="-196.3" r="39.1"/>
	<g id="flowRoot1466" transform="translate(0,-44.466751)">
	</g>
	<g id="flowRoot1529" transform="translate(0,-44.466751)">
	</g>
	<rect id="rect87" x="66.5" y="15.4" width="338.5" height="85.2"/>
	<circle id="path91" class="st3" cx="111.6" cy="71.8" r="31.7"/>
	<circle id="circle93" class="st3" cx="358.6" cy="71.8" r="31.7"/>
	<path id="rect95" class="st3" d="M136.9-58H158c11.7,0,21.1,9.5,21.1,21.1v52.8c0,11.7-9.5,21.1-21.1,21.1h-21.1
		c-11.7,0-21.1-9.5-21.1-21.1v-52.8C115.8-48.5,125.2-58,136.9-58z"/>
	<path id="rect97" class="st3" d="M316.4-58h21.1c11.7,0,21.1,9.5,21.1,21.1v52.8c0,11.7-9.5,21.1-21.1,21.1h-21.1
		c-11.7,0-21.1-9.5-21.1-21.1v-52.8C295.2-48.5,304.7-58,316.4-58z"/>
	<circle id="circle99" class="st3" cx="173.9" cy="-93.9" r="31.7"/>
	<circle id="circle101" class="st3" cx="300.5" cy="-93.9" r="31.7"/>
	<circle id="ellipse103" class="st4" cx="103.2" cy="-96" r="39.1"/>
	<circle id="ellipse105" class="st4" cx="371.2" cy="-96" r="39.1"/>
	<path id="rect111" class="st3" d="M136.9-231.1H158c11.7,0,21.1,9.5,21.1,21.1v52.8c0,11.7-9.5,21.1-21.1,21.1h-21.1
		c-11.7,0-21.1-9.5-21.1-21.1V-210C115.8-221.7,125.2-231.1,136.9-231.1z"/>
	<path id="rect113" class="st3" d="M316.4-231.1h21.1c11.7,0,21.1,9.5,21.1,21.1v52.8c0,11.7-9.5,21.1-21.1,21.1h-21.1
		c-11.7,0-21.1-9.5-21.1-21.1V-210C295.2-221.7,304.7-231.1,316.4-231.1z"/>
	<circle id="circle115" class="st4" cx="147.5" cy="-13.1" r="29"/>
	<circle id="circle117" class="st4" cx="326.9" cy="-13.1" r="29"/>
	<circle id="circle119" class="st4" cx="111.6" cy="71.8" r="26.4"/>
	<circle id="circle121" class="st4" cx="358.6" cy="71.8" r="26.4"/>
	<circle id="circle123" class="st4" cx="147.5" cy="-13.1" r="29"/>
	<circle id="circle125" class="st4" cx="147.5" cy="-186.2" r="29"/>
	<circle id="circle127" class="st4" cx="326.9" cy="-186.2" r="29"/>
	<circle id="circle129" class="st3" cx="107.4" cy="-305" r="31.7"/>
	<circle id="circle131" class="st4" cx="107.4" cy="-305" r="26.4"/>
	<circle id="circle133" class="st3" cx="367" cy="-305" r="31.7"/>
	<circle id="circle135" class="st4" cx="367" cy="-305" r="26.4"/>
	<path id="path31-1" inkscape:connector-curvature="0" class="st0" d="M134.8-377.4c2.9-0.1,3.3-0.1,3.8-0.4
		c0.3-0.2,0.8-0.6,0.9-0.9c0.3-0.5,0.3-0.9,0.4-6.9l0.1-6.4l6.3,0l6.3,0v7.9c0,8.8-0.1,9.6-1,11.9c-1.2,3-2.9,4.4-6.5,5.2
		c-1,0.2-2.1,0.3-5.7,0.2c-2.5,0-5.2-0.1-6.1-0.2l-1.5-0.1l0-5.2l0-5.2L134.8-377.4L134.8-377.4z M194.7-359.7
		c53.6,0,66.8,0.1,64.6,0.3l-0.3,0l0.3,0.1c0.3,0.1,0.2,0.2-0.3,0.2c-0.4,0-0.2,0.1,0.5,0.2l1.1,0.1l-1.1,0c-0.6,0-1,0.1-0.8,0.1
		c0.3,0.1,0.3,0.3,0.3,1.5c0,1.4,0,1.4,0.5,1.5c0.3,0,0.3,0.1-0.3,0.1c-0.4,0-0.7,0.1-0.7,0.2c0,0.1-21.3,0.2-63.4,0.2h-63.4v-2.3
		v-2.3L194.7-359.7z M146.4-408.5h6.3v5.2v5.2h-6.3H140v-5.2v-5.2H146.4z M159.1-389.5c0.5-2.9,1.3-5.5,2.4-7.8
		c0.4-0.8,0.8-1.6,0.9-1.6c0.1,0,0.4-0.5,0.7-1c0.7-1,2.2-2.9,2.5-3.1c0.1-0.1,0.2-0.2,0.2-0.3c0-0.2,1.6-1.7,2.8-2.5
		c1.3-0.9,2.4-1.5,4.7-2.3c2.7-1,4.3-1.3,7.6-1.1c2.4,0.1,3,0.2,4.4,0.6c0.9,0.3,2.1,0.7,2.5,0.9c0.5,0.2,0.9,0.4,1,0.4
		c0.1,0,0.8,0.4,1.6,0.8c3,1.8,7.2,6.5,8.8,9.9c2.5,5.5,2.8,11,0.9,16.1c-0.8,2.1-1.4,3.4-2.3,4.9c-1.1,1.7-1.2,1.8-3.8,4.4
		c-3,2.9-5.1,4.2-9,5.2c-2,0.5-5.9,0.7-8,0.4c-2.7-0.4-6.4-2-8.6-3.6c-1.2-0.9-2.7-2.2-2.7-2.4c0,0-0.4-0.5-0.9-1
		c-2.3-2.3-4.6-6.9-5.5-10.6C159.2-384.7,159-388.4,159.1-389.5L159.1-389.5z M171.2-384.2c0.6,2.4,1.8,4.4,3.7,6.2
		c1.9,1.8,4.9,2.5,7.5,1.7c2.9-0.9,5.7-4.2,6.7-7.9c0.5-2.1,0.5-5.1-0.1-7.1c-0.8-2.8-2.3-5.1-4.4-6.6c-1-0.7-1.4-0.9-2.4-1.1
		c-2.2-0.4-4.4-0.2-5.9,0.6c-1.4,0.7-3.1,2.6-4.1,4.6C170.8-390.7,170.4-387.3,171.2-384.2L171.2-384.2z M206.8-408.4
		c0.1,0,3-0.1,6.3,0l6.1,0l0,5.7c0,5.3,0,5.7,0.4,6.6c0.9,2.4,3.8,3.7,6.3,2.9c1.3-0.4,2.2-1.2,2.8-2.4l0.6-1.1l0.1-5.9l0.1-5.9h6.3
		h6.3l-0.1,6.6c-0.1,6.2-0.1,6.7-0.4,8c-0.7,2.6-1.8,4.8-3.3,6.5c-0.4,0.4-0.7,0.9-0.7,1c0,0.2-1.6,1.7-3,2.7
		c-1.2,0.9-2.9,1.8-3.8,2c-0.3,0.1-1.1,0.3-1.9,0.6c-1.3,0.4-1.7,0.4-4.5,0.4c-2.9,0-3.2,0-4.8-0.5c-2.5-0.7-3.3-1.1-5-2.1
		c-1.9-1.2-3.5-2.8-4.8-4.8c-1.9-2.8-2.7-4.8-3.1-8C206.5-398.3,206.6-408.3,206.8-408.4L206.8-408.4z M224.5-377.3h10.4v5.3v5.3
		h-10.4h-10.4v-5.3v-5.3H224.5z M242.2-416.6c0.1,0,0.2-0.3,0.2-0.7c0-0.6,0-0.7,0.8-0.8c0.4-0.1,18-0.1,39-0.1l38.2,0l-0.1,2.3
		l-0.1,2.3h-38.8c-21.4,0-38.9,0-39.1-0.1c-0.2-0.1-0.3-0.4-0.3-1.5C242-416,242.1-416.6,242.2-416.6L242.2-416.6z M259.7-391.1
		h13.2v5.2v5.2h-13.2h-13.2v-5.2v-5.2H259.7z M283.3-408.5h6.3v5.2v5.2h-6.3h-6.3v-5.2v-5.2H283.3z M283.3-392.8h6.3v13.3v13.3h-6.3
		h-6.3v-13.3v-13.3L283.3-392.8z M308.5-408.5h13.3v5.2v5.2h-13.3h-13.3v-5.2v-5.2H308.5z M297.5-392c0.1-0.1,2.9-0.1,6.2-0.1l6.1,0
		l0.1,6.1c0.1,8.6-0.3,8.1,6.2,8.2l4.1,0.1v5.4v5.4l-1.5,0.2c-2.3,0.3-9.5,0.2-11.5-0.1c-3.4-0.5-5.6-1.6-7-3.3
		c-1.5-1.8-2.2-3.7-2.6-6.6C297.3-378.7,297.2-391.9,297.5-392L297.5-392z M329.2-413.5c0.3-1.1,0.9-2.2,1.6-2.8
		c2.9-2.5,6.3-2.8,9.2-0.7c1.3,1,1.7,1.4,2.2,2.6c0.4,0.9,0.5,1.2,0.5,2.8c0,1.6-0.1,1.9-0.5,2.8c-1,2.1-3.4,3.7-5.8,3.9
		c-2.2,0.2-3.9-0.5-5.7-2.2C329.3-408.7,328.6-411.3,329.2-413.5L329.2-413.5z M330.5-409.2c0.6,1.4,2.4,2.7,4.2,3.2
		c1.8,0.4,3.2,0.1,5.4-1.4c0.5-0.4,0.9-0.9,1.3-1.7c0.5-1,0.6-1.3,0.6-2.6c0-1.3,0-1.5-0.6-2.6c-0.5-0.9-0.8-1.3-1.6-1.9
		c-0.6-0.4-1.4-0.8-1.9-1c-2.9-1-6.4,0.6-7.5,3.4C329.8-412.8,329.9-410.5,330.5-409.2L330.5-409.2z M335.2-415.8
		c1.3,0,2.5,0.1,2.8,0.2c1,0.4,1.5,2.4,0.8,3.3c-0.2,0.2-0.6,0.5-0.9,0.6l-0.6,0.2l0.6,0.6c0.3,0.4,0.8,1.1,1.1,1.6
		c0.3,0.5,0.6,1,0.7,1c0.4,0.2,0.1,0.4-0.6,0.4l-0.7,0l-1-1.6c-1.1-1.7-1.4-1.9-2.6-1.9h-0.8v1.8v1.8l-0.5-0.1l-0.5-0.1l0-3.9l0-3.9
		L335.2-415.8z M335.4-412.4c1.3,0,1.6-0.1,2-0.4c0.9-0.7,0.4-1.9-0.9-2.1c-0.6-0.1-2.2,0-2.5,0.1c0,0,0,0.5,0,1.2v1.2L335.4-412.4z
		"/>
	<g class="st5">
		<path d="M314.1,314c0,0.3,0,0.6-0.1,0.9c0,0.3-0.1,0.5-0.2,0.6c-0.1,0.2-0.2,0.3-0.3,0.4c-0.1,0.1-0.2,0.1-0.3,0.1
			c-0.2,0-0.6-0.2-1.1-0.5c-0.5-0.3-1.2-0.7-2-1.1s-1.9-0.8-3-1.1c-1.2-0.3-2.6-0.5-4.2-0.5c-1.9,0-3.6,0.3-5.2,1
			c-1.5,0.7-2.8,1.7-3.9,2.9s-1.9,2.7-2.4,4.4c-0.6,1.7-0.8,3.5-0.8,5.5c0,2.2,0.3,4.2,0.9,5.9c0.6,1.7,1.5,3.2,2.6,4.4
			c1.1,1.2,2.4,2.1,3.9,2.7s3.2,0.9,5,0.9c1.1,0,2.2-0.1,3.3-0.4s2.1-0.6,3.1-1.2v-10.1h-8.1c-0.3,0-0.5-0.2-0.7-0.5
			c-0.2-0.3-0.2-0.8-0.2-1.4c0-0.3,0-0.6,0.1-0.9c0-0.2,0.1-0.4,0.2-0.6c0.1-0.2,0.2-0.3,0.3-0.3c0.1-0.1,0.2-0.1,0.4-0.1h11.1
			c0.2,0,0.4,0,0.6,0.1c0.2,0.1,0.4,0.2,0.5,0.3s0.3,0.3,0.4,0.6s0.1,0.5,0.1,0.9v13.3c0,0.5-0.1,0.9-0.2,1.2
			c-0.2,0.3-0.5,0.6-1,0.9c-0.5,0.3-1.2,0.5-2,0.8c-0.8,0.3-1.7,0.6-2.6,0.8c-0.9,0.2-1.8,0.4-2.7,0.5c-0.9,0.1-1.8,0.2-2.7,0.2
			c-2.7,0-5.1-0.4-7.2-1.3c-2.1-0.8-3.9-2-5.4-3.6s-2.6-3.4-3.3-5.5c-0.8-2.2-1.2-4.6-1.2-7.2c0-2.8,0.4-5.3,1.2-7.5
			c0.8-2.2,2-4.2,3.5-5.7c1.5-1.6,3.3-2.8,5.5-3.7c2.1-0.9,4.5-1.3,7.1-1.3c1.3,0,2.6,0.1,3.7,0.3c1.2,0.2,2.2,0.5,3.1,0.8
			c0.9,0.3,1.7,0.7,2.3,1c0.6,0.4,1,0.7,1.3,0.9c0.2,0.2,0.4,0.5,0.5,0.8S314.1,313.4,314.1,314z"/>
		<path d="M349,342.1c0,0.4-0.1,0.7-0.2,0.9c-0.1,0.3-0.3,0.5-0.5,0.6c-0.2,0.2-0.4,0.3-0.7,0.3c-0.2,0.1-0.5,0.1-0.7,0.1h-1.5
			c-0.5,0-0.9,0-1.3-0.1c-0.4-0.1-0.7-0.3-1-0.5c-0.3-0.3-0.6-0.6-1-1.1s-0.7-1-1-1.7l-10.6-19.8c-0.6-1-1.1-2.1-1.7-3.2
			c-0.6-1.1-1.1-2.2-1.6-3.3h-0.1c0,1.3,0.1,2.6,0.1,4c0,1.3,0,2.7,0,4v21c0,0.1,0,0.2-0.1,0.4c-0.1,0.1-0.2,0.2-0.4,0.3
			c-0.2,0.1-0.4,0.1-0.7,0.2c-0.3,0-0.7,0.1-1.1,0.1c-0.5,0-0.8,0-1.1-0.1s-0.5-0.1-0.7-0.2c-0.2-0.1-0.3-0.2-0.4-0.3
			c-0.1-0.1-0.1-0.2-0.1-0.4v-32.1c0-0.7,0.2-1.2,0.6-1.5c0.4-0.3,0.9-0.5,1.3-0.5h2.3c0.5,0,1,0,1.3,0.1c0.4,0.1,0.7,0.2,1,0.4
			c0.3,0.2,0.6,0.5,0.8,0.9c0.3,0.4,0.5,0.8,0.8,1.4l8.2,15.3c0.5,0.9,1,1.8,1.5,2.7c0.5,0.9,0.9,1.8,1.4,2.6
			c0.4,0.9,0.9,1.7,1.3,2.5c0.4,0.8,0.8,1.7,1.3,2.5h0c0-1.4-0.1-2.9-0.1-4.4c0-1.5,0-3,0-4.4V310c0-0.1,0-0.2,0.1-0.3
			c0.1-0.1,0.2-0.2,0.4-0.3c0.2-0.1,0.4-0.1,0.7-0.2c0.3,0,0.7-0.1,1.1-0.1c0.4,0,0.8,0,1.1,0.1c0.3,0,0.5,0.1,0.7,0.2
			c0.2,0.1,0.3,0.2,0.4,0.3c0.1,0.1,0.1,0.2,0.1,0.3V342.1z"/>
		<path d="M385,326.1c0,3-0.4,5.6-1.2,7.9c-0.8,2.2-1.9,4.1-3.4,5.6c-1.5,1.5-3.3,2.6-5.4,3.3s-4.7,1.1-7.7,1.1H360
			c-0.4,0-0.8-0.1-1.2-0.4c-0.4-0.3-0.6-0.8-0.6-1.5v-31c0-0.7,0.2-1.2,0.6-1.5c0.4-0.3,0.8-0.4,1.2-0.4h7.9c3,0,5.6,0.4,7.6,1.2
			c2.1,0.8,3.8,1.9,5.2,3.4s2.5,3.2,3.2,5.3C384.7,321.1,385,323.5,385,326.1z M380.2,326.3c0-1.9-0.2-3.6-0.7-5.3
			c-0.5-1.6-1.2-3-2.2-4.2c-1-1.2-2.3-2.1-3.8-2.8c-1.5-0.7-3.5-1-5.9-1h-4.7v27.1h4.8c2.2,0,4.1-0.3,5.6-0.8
			c1.5-0.6,2.8-1.4,3.8-2.6c1-1.1,1.8-2.6,2.3-4.3C379.9,330.7,380.2,328.7,380.2,326.3z"/>
	</g>
	<g class="st5">
		<path d="M232.7,328.9c0,0.3,0,0.6-0.1,0.9s-0.1,0.4-0.2,0.6c-0.1,0.2-0.2,0.3-0.3,0.3c-0.1,0.1-0.3,0.1-0.4,0.1h-8.8v9.8
			c0,0.1,0,0.3-0.1,0.4s-0.2,0.2-0.3,0.3c-0.2,0.1-0.4,0.1-0.6,0.2c-0.3,0-0.6,0.1-0.9,0.1c-0.4,0-0.7,0-0.9-0.1
			c-0.3,0-0.5-0.1-0.6-0.2c-0.2-0.1-0.3-0.2-0.3-0.3c-0.1-0.1-0.1-0.2-0.1-0.4v-9.8H210c-0.2,0-0.3,0-0.4-0.1
			c-0.1-0.1-0.2-0.2-0.3-0.3c-0.1-0.2-0.2-0.4-0.2-0.6s-0.1-0.5-0.1-0.9c0-0.3,0-0.6,0.1-0.8c0.1-0.2,0.1-0.4,0.2-0.6
			s0.2-0.3,0.3-0.3c0.1-0.1,0.2-0.1,0.4-0.1h8.8v-9.8c0-0.1,0-0.3,0.1-0.4c0.1-0.1,0.2-0.2,0.3-0.3c0.2-0.1,0.4-0.1,0.6-0.2
			c0.3,0,0.6-0.1,0.9-0.1c0.4,0,0.7,0,0.9,0.1s0.5,0.1,0.6,0.2c0.2,0.1,0.3,0.2,0.3,0.3c0.1,0.1,0.1,0.2,0.1,0.4v9.8h8.8
			c0.1,0,0.3,0,0.4,0.1c0.1,0.1,0.2,0.2,0.3,0.3s0.2,0.4,0.2,0.6C232.7,328.3,232.7,328.5,232.7,328.9z"/>
		<path d="M253.3,343.5c-0.1,0.2-0.2,0.4-0.3,0.5c-0.1,0.1-0.3,0.2-0.5,0.3c-0.2,0.1-0.5,0.1-0.9,0.1c-0.3,0-0.8,0-1.3,0
			c-0.4,0-0.7,0-1,0s-0.6,0-0.8-0.1c-0.2,0-0.4-0.1-0.6-0.1c-0.2,0-0.3-0.1-0.4-0.2c-0.1-0.1-0.2-0.2-0.3-0.3
			c-0.1-0.1-0.1-0.2-0.2-0.4l-11.4-32.3c-0.1-0.4-0.2-0.7-0.2-1s0.1-0.4,0.2-0.6c0.2-0.1,0.4-0.2,0.8-0.2c0.4,0,0.8-0.1,1.5-0.1
			c0.5,0,0.9,0,1.2,0s0.5,0.1,0.7,0.1c0.2,0.1,0.3,0.2,0.4,0.3c0.1,0.1,0.2,0.3,0.2,0.4l10,29.3h0l9.7-29.2c0.1-0.2,0.1-0.4,0.2-0.5
			c0.1-0.1,0.2-0.2,0.4-0.3c0.2-0.1,0.4-0.1,0.8-0.1c0.3,0,0.8,0,1.3,0c0.6,0,1,0,1.3,0.1c0.3,0,0.5,0.1,0.7,0.3
			c0.1,0.1,0.2,0.3,0.1,0.6c0,0.2-0.1,0.6-0.3,1L253.3,343.5z"/>
	</g>
	<g class="st5">
		<path d="M81.2,334.6c0,1.6-0.3,3.1-0.9,4.4c-0.6,1.3-1.4,2.4-2.5,3.2c-1.1,0.9-2.3,1.6-3.8,2c-1.4,0.4-3,0.7-4.7,0.7
			c-1.2,0-2.2-0.1-3.2-0.3s-1.9-0.4-2.7-0.7c-0.8-0.3-1.4-0.6-2-0.9c-0.5-0.3-0.9-0.6-1.1-0.8c-0.2-0.2-0.4-0.5-0.5-0.8
			c-0.1-0.3-0.1-0.8-0.1-1.3c0-0.4,0-0.7,0.1-1s0.1-0.5,0.2-0.6c0.1-0.2,0.2-0.3,0.3-0.3c0.1-0.1,0.2-0.1,0.4-0.1
			c0.3,0,0.6,0.2,1.1,0.5s1,0.6,1.8,1c0.7,0.4,1.6,0.7,2.6,1c1,0.3,2.2,0.5,3.5,0.5c1,0,1.9-0.1,2.8-0.4c0.8-0.3,1.5-0.6,2.2-1.1
			c0.6-0.5,1.1-1.1,1.4-1.8c0.3-0.7,0.5-1.5,0.5-2.4c0-1-0.2-1.8-0.7-2.5s-1-1.3-1.8-1.8c-0.7-0.5-1.6-1-2.5-1.5s-1.9-0.9-2.9-1.3
			c-1-0.5-1.9-1-2.9-1.5c-0.9-0.6-1.8-1.2-2.5-2c-0.7-0.8-1.3-1.6-1.8-2.6c-0.5-1-0.7-2.2-0.7-3.6c0-1.5,0.3-2.7,0.8-3.9
			c0.5-1.1,1.3-2.1,2.2-2.9c0.9-0.8,2.1-1.4,3.4-1.8c1.3-0.4,2.7-0.6,4.2-0.6c0.8,0,1.5,0.1,2.3,0.2c0.8,0.1,1.5,0.3,2.2,0.5
			c0.7,0.2,1.3,0.5,1.8,0.8c0.5,0.3,0.9,0.5,1.1,0.7c0.2,0.2,0.3,0.3,0.3,0.4c0.1,0.1,0.1,0.2,0.1,0.4c0,0.2,0.1,0.3,0.1,0.6
			c0,0.2,0,0.5,0,0.8c0,0.3,0,0.6,0,0.9c0,0.3-0.1,0.5-0.1,0.6c-0.1,0.2-0.1,0.3-0.2,0.4c-0.1,0.1-0.2,0.1-0.3,0.1
			c-0.2,0-0.5-0.1-0.9-0.4c-0.4-0.3-0.9-0.5-1.5-0.8s-1.3-0.6-2.2-0.9c-0.8-0.3-1.8-0.4-2.8-0.4c-1,0-1.8,0.1-2.5,0.4
			s-1.3,0.6-1.8,1c-0.5,0.4-0.8,0.9-1,1.5c-0.2,0.6-0.3,1.2-0.3,1.9c0,1,0.2,1.8,0.7,2.5c0.4,0.7,1,1.3,1.8,1.9
			c0.7,0.5,1.6,1,2.5,1.5c1,0.4,1.9,0.9,2.9,1.4c1,0.5,2,1,2.9,1.5s1.8,1.2,2.5,1.9c0.7,0.7,1.3,1.6,1.8,2.6
			C81,332,81.2,333.2,81.2,334.6z"/>
		<path d="M92.3,311.3c0,1-0.2,1.7-0.6,2.1c-0.4,0.4-1.1,0.6-2.2,0.6c-1,0-1.8-0.2-2.1-0.6s-0.6-1.1-0.6-2.1c0-1,0.2-1.7,0.6-2.1
			c0.4-0.4,1.1-0.6,2.2-0.6c1,0,1.8,0.2,2.1,0.6C92.1,309.6,92.3,310.3,92.3,311.3z M91.8,343.7c0,0.1,0,0.3-0.1,0.4
			c-0.1,0.1-0.2,0.2-0.3,0.3c-0.2,0.1-0.4,0.1-0.7,0.2c-0.3,0-0.7,0.1-1.1,0.1c-0.4,0-0.8,0-1.1-0.1c-0.3,0-0.5-0.1-0.7-0.2
			c-0.2-0.1-0.3-0.2-0.3-0.3c-0.1-0.1-0.1-0.2-0.1-0.4v-24.2c0-0.1,0-0.2,0.1-0.3c0.1-0.1,0.2-0.2,0.3-0.3c0.2-0.1,0.4-0.1,0.7-0.2
			c0.3,0,0.6-0.1,1.1-0.1c0.4,0,0.8,0,1.1,0.1c0.3,0,0.5,0.1,0.7,0.2c0.2,0.1,0.3,0.2,0.3,0.3c0.1,0.1,0.1,0.2,0.1,0.3V343.7z"/>
		<path d="M120.2,320.6c0,0.6-0.1,1.1-0.3,1.4c-0.2,0.3-0.4,0.4-0.7,0.4h-3.5c0.6,0.6,1.1,1.4,1.3,2.1c0.3,0.8,0.4,1.6,0.4,2.4
			c0,1.4-0.2,2.6-0.7,3.7c-0.4,1.1-1.1,2-1.9,2.7c-0.8,0.7-1.8,1.3-3,1.7c-1.1,0.4-2.4,0.6-3.8,0.6c-1,0-1.9-0.1-2.8-0.4
			c-0.9-0.3-1.6-0.6-2.1-1c-0.3,0.3-0.6,0.7-0.8,1.1c-0.2,0.4-0.3,0.9-0.3,1.4c0,0.6,0.3,1.1,0.9,1.6c0.6,0.4,1.4,0.6,2.3,0.7
			l6.3,0.3c1.2,0,2.3,0.2,3.3,0.5s1.9,0.7,2.6,1.3c0.7,0.5,1.3,1.2,1.7,2c0.4,0.8,0.6,1.7,0.6,2.8c0,1.1-0.2,2.2-0.7,3.2
			s-1.2,1.9-2.1,2.6s-2.2,1.4-3.7,1.8s-3.2,0.7-5.3,0.7c-2,0-3.6-0.2-5-0.5s-2.5-0.8-3.4-1.4c-0.9-0.6-1.5-1.3-1.9-2.1
			s-0.6-1.7-0.6-2.6c0-0.6,0.1-1.2,0.2-1.7c0.1-0.6,0.4-1.1,0.7-1.6s0.7-1,1.1-1.4s0.9-0.9,1.5-1.4c-0.9-0.4-1.5-1-1.9-1.7
			c-0.4-0.7-0.6-1.4-0.6-2.2c0-1.1,0.2-2.1,0.7-2.9s1-1.6,1.7-2.3c-0.6-0.7-1-1.4-1.3-2.2c-0.3-0.8-0.5-1.8-0.5-3
			c0-1.4,0.2-2.6,0.7-3.7s1.1-2,1.9-2.8c0.8-0.8,1.8-1.3,3-1.7s2.4-0.6,3.8-0.6c0.7,0,1.4,0,2.1,0.1c0.6,0.1,1.2,0.2,1.8,0.3h7.3
			c0.3,0,0.5,0.1,0.7,0.4S120.2,320,120.2,320.6z M115.5,346.1c0-1-0.4-1.8-1.3-2.4c-0.9-0.6-2-0.9-3.5-0.9l-6.3-0.2
			c-0.6,0.4-1,0.9-1.4,1.3c-0.4,0.4-0.7,0.8-0.9,1.2c-0.2,0.4-0.4,0.7-0.4,1.1c-0.1,0.4-0.1,0.7-0.1,1.1c0,1.2,0.6,2,1.8,2.6
			c1.2,0.6,2.8,0.9,4.9,0.9c1.3,0,2.5-0.1,3.4-0.4s1.6-0.6,2.2-1c0.6-0.4,1-0.9,1.2-1.5S115.5,346.7,115.5,346.1z M113.3,326.9
			c0-1.6-0.5-2.9-1.4-3.9c-0.9-0.9-2.2-1.4-3.9-1.4c-0.9,0-1.6,0.1-2.2,0.4c-0.6,0.3-1.2,0.7-1.6,1.2s-0.7,1.1-0.9,1.7
			s-0.3,1.3-0.3,2.1c0,1.6,0.5,2.9,1.4,3.8c0.9,0.9,2.2,1.4,3.8,1.4c0.9,0,1.6-0.1,2.3-0.4s1.2-0.7,1.6-1.2c0.4-0.5,0.7-1.1,0.9-1.7
			S113.3,327.6,113.3,326.9z"/>
		<path d="M146.7,343.7c0,0.1,0,0.3-0.1,0.4c-0.1,0.1-0.2,0.2-0.3,0.3c-0.2,0.1-0.4,0.1-0.7,0.2s-0.6,0.1-1.1,0.1
			c-0.4,0-0.8,0-1.1-0.1c-0.3,0-0.5-0.1-0.7-0.2c-0.2-0.1-0.3-0.2-0.3-0.3c-0.1-0.1-0.1-0.2-0.1-0.4v-14.2c0-1.4-0.1-2.5-0.3-3.3
			c-0.2-0.8-0.5-1.6-0.9-2.2s-0.9-1.1-1.6-1.4c-0.7-0.3-1.4-0.5-2.3-0.5c-1.1,0-2.2,0.4-3.3,1.2s-2.3,1.9-3.5,3.5v16.9
			c0,0.1,0,0.3-0.1,0.4c-0.1,0.1-0.2,0.2-0.3,0.3c-0.2,0.1-0.4,0.1-0.7,0.2c-0.3,0-0.7,0.1-1.1,0.1c-0.4,0-0.8,0-1.1-0.1
			c-0.3,0-0.5-0.1-0.7-0.2c-0.2-0.1-0.3-0.2-0.3-0.3c-0.1-0.1-0.1-0.2-0.1-0.4v-24.2c0-0.1,0-0.3,0.1-0.4s0.2-0.2,0.3-0.3
			c0.2-0.1,0.4-0.1,0.6-0.2c0.3,0,0.6,0,1,0c0.4,0,0.7,0,1,0c0.3,0,0.5,0.1,0.6,0.2c0.1,0.1,0.2,0.2,0.3,0.3
			c0.1,0.1,0.1,0.2,0.1,0.4v3.2c1.4-1.5,2.7-2.6,4.1-3.3c1.4-0.7,2.7-1.1,4.1-1.1c1.6,0,3,0.3,4.1,0.8s2,1.3,2.7,2.2
			c0.7,0.9,1.2,2,1.5,3.2c0.3,1.2,0.4,2.7,0.4,4.4V343.7z"/>
		<path d="M173.1,343.7c0,0.2-0.1,0.4-0.2,0.5s-0.3,0.2-0.6,0.2c-0.3,0.1-0.6,0.1-1.1,0.1c-0.5,0-0.8,0-1.1-0.1
			c-0.3-0.1-0.5-0.1-0.6-0.2c-0.1-0.1-0.2-0.3-0.2-0.5v-2.4c-1.1,1.1-2.2,2-3.5,2.6c-1.3,0.6-2.7,0.9-4.1,0.9
			c-1.3,0-2.4-0.2-3.5-0.5c-1-0.3-1.9-0.8-2.6-1.4c-0.7-0.6-1.3-1.4-1.7-2.3c-0.4-0.9-0.6-2-0.6-3.1c0-1.4,0.3-2.5,0.8-3.5
			c0.6-1,1.4-1.8,2.4-2.5c1-0.7,2.3-1.2,3.8-1.5c1.5-0.3,3.2-0.5,5.1-0.5h3.3v-1.9c0-0.9-0.1-1.8-0.3-2.5s-0.5-1.3-1-1.8
			s-1-0.8-1.7-1.1s-1.6-0.4-2.6-0.4c-1.1,0-2.1,0.1-2.9,0.4c-0.9,0.3-1.6,0.5-2.3,0.9s-1.2,0.6-1.6,0.9c-0.4,0.3-0.8,0.4-1,0.4
			c-0.1,0-0.3,0-0.4-0.1c-0.1-0.1-0.2-0.2-0.3-0.3s-0.1-0.3-0.2-0.6c0-0.2-0.1-0.5-0.1-0.7c0-0.4,0-0.8,0.1-1.1
			c0.1-0.3,0.2-0.5,0.5-0.7c0.2-0.2,0.7-0.5,1.3-0.8c0.6-0.3,1.3-0.6,2-0.9c0.8-0.3,1.6-0.5,2.5-0.6c0.9-0.2,1.8-0.3,2.8-0.3
			c1.7,0,3.2,0.2,4.4,0.6c1.2,0.4,2.2,1,3,1.7s1.3,1.7,1.6,2.8c0.3,1.1,0.5,2.4,0.5,4V343.7z M168.7,332.6h-3.8
			c-1.2,0-2.3,0.1-3.2,0.3c-0.9,0.2-1.6,0.5-2.2,0.9c-0.6,0.4-1,0.9-1.3,1.5c-0.3,0.6-0.4,1.2-0.4,1.9c0,1.3,0.4,2.3,1.2,3
			c0.8,0.7,1.9,1.1,3.3,1.1c1.2,0,2.2-0.3,3.2-0.9s2-1.5,3.1-2.7V332.6z"/>
		<path d="M185.7,343.7c0,0.1,0,0.3-0.1,0.4c-0.1,0.1-0.2,0.2-0.3,0.3c-0.2,0.1-0.4,0.1-0.7,0.2c-0.3,0-0.7,0.1-1.1,0.1
			c-0.4,0-0.8,0-1.1-0.1c-0.3,0-0.5-0.1-0.7-0.2c-0.2-0.1-0.3-0.2-0.3-0.3c-0.1-0.1-0.1-0.2-0.1-0.4v-35.9c0-0.1,0-0.3,0.1-0.4
			c0.1-0.1,0.2-0.2,0.3-0.3c0.2-0.1,0.4-0.1,0.7-0.2c0.3,0,0.6-0.1,1.1-0.1c0.4,0,0.8,0,1.1,0.1c0.3,0,0.5,0.1,0.7,0.2
			c0.2,0.1,0.3,0.2,0.3,0.3c0.1,0.1,0.1,0.2,0.1,0.4V343.7z"/>
	</g>
	<g class="st5">
		<path class="st0" d="M50.1,11.5c0.2,0,0.3,0,0.5,0.1c0.1,0.1,0.3,0.2,0.3,0.4c0.1,0.2,0.2,0.5,0.2,0.9c0.1,0.4,0.1,0.9,0.1,1.4
			c0,0.8,0,1.4-0.1,1.9c-0.1,0.5-0.2,0.8-0.4,1.1c-0.2,0.2-0.4,0.4-0.6,0.6L29,33.5h21.2c0.2,0,0.3,0,0.4,0.1
			c0.1,0.1,0.3,0.2,0.3,0.5c0.1,0.2,0.1,0.5,0.2,0.9c0.1,0.4,0.1,0.8,0.1,1.4c0,0.5,0,1-0.1,1.3c-0.1,0.4-0.1,0.7-0.2,0.9
			c-0.1,0.2-0.2,0.4-0.3,0.5c-0.1,0.1-0.3,0.1-0.4,0.1H9.6c-0.2,0-0.3,0-0.5-0.1s-0.2-0.2-0.3-0.5c-0.1-0.2-0.1-0.5-0.2-0.9
			c-0.1-0.4-0.1-0.8-0.1-1.3c0-0.5,0-1,0.1-1.4c0.1-0.4,0.1-0.6,0.2-0.9c0.1-0.2,0.2-0.4,0.3-0.5c0.1-0.1,0.3-0.1,0.5-0.1h18.8
			l-18.8-15c-0.2-0.1-0.4-0.3-0.5-0.5s-0.2-0.4-0.3-0.6c-0.1-0.2-0.1-0.6-0.2-0.9c0-0.4-0.1-0.8-0.1-1.4c0-0.6,0-1,0.1-1.4
			c0.1-0.3,0.1-0.6,0.2-0.8c0.1-0.2,0.2-0.3,0.3-0.4c0.1-0.1,0.3-0.1,0.4-0.1c0.3,0,0.6,0.1,0.9,0.2c0.3,0.1,0.7,0.4,1.2,0.8
			l16.8,14l20.1-15.1c0.6-0.4,1-0.6,1.2-0.7C49.8,11.6,50,11.5,50.1,11.5z"/>
		<path class="st0" d="M34.6-9.1h15.6c0.2,0,0.3,0,0.5,0.1s0.2,0.2,0.3,0.5C51-8.3,51.1-8,51.2-7.7c0.1,0.4,0.1,0.8,0.1,1.3
			c0,0.5,0,1-0.1,1.4C51.1-4.6,51-4.3,51-4.1c-0.1,0.2-0.2,0.4-0.3,0.5s-0.3,0.1-0.5,0.1H34.6l-23.9,12c-0.5,0.2-0.9,0.4-1.2,0.4
			C9.2,9,9,8.9,8.9,8.7C8.7,8.6,8.6,8.3,8.6,7.9c0-0.4-0.1-1-0.1-1.7c0-0.7,0-1.2,0.1-1.6c0-0.4,0.1-0.7,0.2-1
			c0.1-0.2,0.2-0.4,0.3-0.5c0.1-0.1,0.3-0.2,0.5-0.3l12.2-5.9c1.2-0.5,2.4-1.1,3.6-1.6s2.5-1.1,3.8-1.7v-0.1C28-7,26.8-7.5,25.5-8
			c-1.2-0.5-2.4-1.1-3.6-1.6L9.7-15.6c-0.2-0.1-0.4-0.2-0.6-0.3c-0.2-0.1-0.3-0.3-0.3-0.5c-0.1-0.2-0.1-0.5-0.2-0.9
			c0-0.4-0.1-0.8-0.1-1.4c0-0.8,0-1.4,0.1-1.8c0.1-0.4,0.2-0.8,0.3-0.9c0.2-0.2,0.4-0.2,0.7-0.2c0.3,0.1,0.7,0.2,1.1,0.4L34.6-9.1z"
			/>
		<path class="st0" d="M34.5-37.1c0.9,0,1.4,0.1,1.8,0.3s0.5,0.5,0.5,0.9v13.7c0,0.4-0.2,0.7-0.5,0.9c-0.3,0.2-0.9,0.3-1.8,0.3
			c-0.8,0-1.4-0.1-1.7-0.3s-0.5-0.5-0.5-0.9V-36c0-0.2,0-0.3,0.1-0.5c0.1-0.1,0.2-0.3,0.4-0.4c0.2-0.1,0.4-0.2,0.7-0.2
			C33.8-37.1,34.1-37.1,34.5-37.1z"/>
		<path class="st0" d="M29.8-71c3.3,0,6.2,0.3,8.9,0.8s5,1.4,6.9,2.6S49-65,50.1-63c1.1,1.9,1.6,4.3,1.6,7.1c0,2.7-0.5,4.9-1.4,6.7
			c-0.9,1.8-2.3,3.3-4.2,4.4c-1.8,1.1-4.1,1.9-6.8,2.4c-2.7,0.5-5.8,0.7-9.3,0.7c-3.2,0-6.2-0.3-8.9-0.8c-2.7-0.5-5-1.4-6.9-2.6
			c-1.9-1.2-3.4-2.7-4.5-4.6c-1.1-1.9-1.6-4.3-1.6-7.1c0-2.7,0.5-4.9,1.4-6.8c0.9-1.8,2.3-3.3,4.2-4.4c1.8-1.1,4.1-1.9,6.8-2.4
			C23.2-70.8,26.3-71,29.8-71z M30.2-65.3c-2.1,0-4,0.1-5.7,0.2c-1.7,0.2-3.2,0.4-4.5,0.7c-1.3,0.3-2.4,0.7-3.3,1.1
			c-0.9,0.5-1.7,1-2.3,1.7c-0.6,0.7-1,1.4-1.3,2.2s-0.4,1.8-0.4,2.8c0,1.9,0.4,3.4,1.3,4.5c0.9,1.2,2.1,2.1,3.6,2.7
			c1.5,0.7,3.3,1.1,5.4,1.4s4.3,0.4,6.6,0.4c3.2,0,5.9-0.2,8.1-0.5c2.2-0.3,4-0.8,5.4-1.6s2.4-1.6,3-2.7c0.6-1.1,0.9-2.4,0.9-4
			c0-1.2-0.2-2.3-0.6-3.2s-1-1.7-1.7-2.4c-0.7-0.7-1.6-1.2-2.6-1.7c-1-0.4-2.2-0.8-3.4-1c-1.2-0.3-2.6-0.4-4-0.5
			C33.3-65.2,31.7-65.3,30.2-65.3z"/>
		<path class="st0" d="M29.8-105c3.3,0,6.2,0.3,8.9,0.8s5,1.4,6.9,2.6s3.4,2.7,4.5,4.7c1.1,1.9,1.6,4.3,1.6,7.1
			c0,2.7-0.5,4.9-1.4,6.7c-0.9,1.8-2.3,3.3-4.2,4.4c-1.8,1.1-4.1,1.9-6.8,2.4c-2.7,0.5-5.8,0.7-9.3,0.7c-3.2,0-6.2-0.3-8.9-0.8
			c-2.7-0.5-5-1.4-6.9-2.6c-1.9-1.2-3.4-2.7-4.5-4.6c-1.1-1.9-1.6-4.3-1.6-7.1c0-2.7,0.5-4.9,1.4-6.8c0.9-1.8,2.3-3.3,4.2-4.4
			c1.8-1.1,4.1-1.9,6.8-2.4C23.2-104.8,26.3-105,29.8-105z M30.2-99.2c-2.1,0-4,0.1-5.7,0.2c-1.7,0.2-3.2,0.4-4.5,0.7
			c-1.3,0.3-2.4,0.7-3.3,1.1c-0.9,0.5-1.7,1-2.3,1.7c-0.6,0.7-1,1.4-1.3,2.2s-0.4,1.8-0.4,2.8c0,1.9,0.4,3.4,1.3,4.5
			c0.9,1.2,2.1,2.1,3.6,2.7c1.5,0.7,3.3,1.1,5.4,1.4s4.3,0.4,6.6,0.4c3.2,0,5.9-0.2,8.1-0.5c2.2-0.3,4-0.8,5.4-1.6s2.4-1.6,3-2.7
			c0.6-1.1,0.9-2.4,0.9-4c0-1.2-0.2-2.3-0.6-3.2s-1-1.7-1.7-2.4c-0.7-0.7-1.6-1.2-2.6-1.7c-1-0.4-2.2-0.8-3.4-1
			c-1.2-0.3-2.6-0.4-4-0.5C33.3-99.2,31.7-99.2,30.2-99.2z"/>
		<path class="st0" d="M37.4-137.4c2.3,0,4.3,0.4,6.1,1.1c1.8,0.8,3.3,1.8,4.5,3.2c1.2,1.4,2.1,3.1,2.8,5c0.6,1.9,0.9,4.1,0.9,6.4
			c0,1.3-0.1,2.6-0.3,3.7c-0.2,1.2-0.4,2.2-0.7,3.1c-0.3,0.9-0.5,1.7-0.8,2.3s-0.5,1-0.6,1.1c-0.2,0.2-0.3,0.3-0.4,0.3
			s-0.3,0.1-0.5,0.2c-0.2,0.1-0.4,0.1-0.7,0.1c-0.3,0-0.6,0-1,0c-0.4,0-0.7,0-1,0c-0.3,0-0.5-0.1-0.7-0.2c-0.2-0.1-0.3-0.2-0.4-0.3
			c-0.1-0.1-0.1-0.3-0.1-0.4c0-0.2,0.1-0.6,0.4-1c0.3-0.5,0.6-1.1,0.9-1.8c0.3-0.8,0.6-1.7,0.9-2.9c0.3-1.1,0.4-2.5,0.4-4.1
			c0-1.5-0.2-2.8-0.5-4c-0.3-1.2-0.9-2.3-1.6-3.2c-0.7-0.9-1.7-1.6-2.8-2.1c-1.1-0.5-2.5-0.8-4.1-0.8c-1.4,0-2.5,0.2-3.6,0.6
			c-1,0.4-1.9,1.1-2.6,2c-0.7,0.9-1.2,2-1.5,3.4c-0.3,1.4-0.5,3-0.5,4.8c0,1.3,0.1,2.5,0.2,3.4c0.1,1,0.2,1.9,0.2,2.7
			c0,0.6-0.1,1-0.4,1.3c-0.3,0.3-0.8,0.4-1.6,0.4H10.8c-0.7,0-1.3-0.2-1.6-0.5c-0.3-0.3-0.5-0.8-0.5-1.5v-18.8c0-0.2,0-0.3,0.1-0.5
			c0.1-0.2,0.2-0.3,0.4-0.4c0.2-0.1,0.4-0.2,0.8-0.2c0.3-0.1,0.7-0.1,1.1-0.1c0.8,0,1.4,0.1,1.8,0.3c0.4,0.2,0.7,0.5,0.7,0.9v15.1
			h11.9c-0.1-0.7-0.2-1.5-0.2-2.3c0-0.8,0-1.7,0-2.7c0-2.3,0.3-4.4,0.9-6.1c0.6-1.7,1.4-3.2,2.5-4.4c1.1-1.2,2.3-2,3.8-2.6
			C33.9-137.1,35.6-137.4,37.4-137.4z"/>
	</g>
	<g class="st5">
		<path class="st0" d="M99.1,154.8c0,2-0.4,3.8-1.1,5.3c-0.7,1.5-1.7,2.9-3,3.9c-1.3,1.1-2.8,1.9-4.6,2.4c-1.8,0.5-3.6,0.8-5.7,0.8
			c-1.4,0-2.7-0.1-3.9-0.4s-2.3-0.5-3.2-0.9c-0.9-0.3-1.7-0.7-2.4-1.1c-0.6-0.4-1.1-0.7-1.3-0.9c-0.3-0.3-0.4-0.6-0.6-1
			c-0.1-0.4-0.2-0.9-0.2-1.6c0-0.5,0-0.9,0.1-1.2c0-0.3,0.1-0.6,0.2-0.8c0.1-0.2,0.2-0.3,0.3-0.4c0.1-0.1,0.3-0.1,0.5-0.1
			c0.3,0,0.7,0.2,1.3,0.6c0.6,0.4,1.3,0.8,2.1,1.2c0.9,0.4,1.9,0.8,3.2,1.2c1.2,0.4,2.7,0.6,4.3,0.6c1.2,0,2.3-0.2,3.4-0.5
			c1-0.3,1.9-0.8,2.6-1.4c0.7-0.6,1.3-1.3,1.7-2.2c0.4-0.9,0.6-1.9,0.6-3c0-1.2-0.3-2.2-0.8-3.1c-0.5-0.9-1.3-1.6-2.2-2.2
			s-1.9-1.2-3.1-1.8c-1.1-0.5-2.3-1.1-3.5-1.6c-1.2-0.6-2.4-1.2-3.5-1.8c-1.1-0.7-2.1-1.5-3-2.4c-0.9-0.9-1.6-2-2.2-3.2
			c-0.6-1.2-0.8-2.7-0.8-4.4c0-1.8,0.3-3.3,1-4.7c0.6-1.4,1.5-2.5,2.7-3.5c1.1-0.9,2.5-1.7,4.1-2.1c1.6-0.5,3.3-0.7,5.1-0.7
			c0.9,0,1.9,0.1,2.8,0.2c0.9,0.2,1.8,0.4,2.7,0.7c0.8,0.3,1.6,0.6,2.2,0.9c0.7,0.3,1.1,0.6,1.3,0.8c0.2,0.2,0.3,0.4,0.4,0.5
			s0.1,0.3,0.2,0.5c0,0.2,0.1,0.4,0.1,0.7c0,0.3,0,0.6,0,1c0,0.4,0,0.7,0,1c0,0.3-0.1,0.6-0.1,0.8c-0.1,0.2-0.2,0.4-0.3,0.5
			c-0.1,0.1-0.3,0.1-0.4,0.1c-0.2,0-0.6-0.2-1.1-0.5s-1.1-0.6-1.9-1c-0.7-0.4-1.6-0.7-2.6-1s-2.2-0.5-3.4-0.5
			c-1.2,0-2.2,0.2-3.1,0.5c-0.9,0.3-1.6,0.7-2.2,1.3c-0.6,0.5-1,1.1-1.3,1.9c-0.3,0.7-0.4,1.5-0.4,2.3c0,1.2,0.3,2.2,0.8,3
			c0.5,0.9,1.3,1.6,2.2,2.3c0.9,0.7,1.9,1.3,3.1,1.8c1.2,0.5,2.3,1.1,3.5,1.7c1.2,0.6,2.4,1.2,3.5,1.8c1.2,0.7,2.2,1.5,3.1,2.4
			c0.9,0.9,1.6,2,2.2,3.2C98.8,151.6,99.1,153.1,99.1,154.8z"/>
	</g>
	<g class="st5">
		<path class="st0" d="M415.3,150.1c0,0.9-0.2,1.4-0.8,1.8s-1.2,0.5-2.2,0.5h-34.8c-1,0-1.8-0.2-2.2-0.5c-0.5-0.3-0.7-0.9-0.7-1.8
			c0-0.8,0.2-1.4,0.7-1.7c0.5-0.3,1.2-0.5,2.2-0.5h34.8c0.4,0,0.8,0,1.2,0.1c0.4,0.1,0.7,0.2,0.9,0.4c0.2,0.2,0.4,0.4,0.6,0.7
			C415.3,149.4,415.3,149.7,415.3,150.1z"/>
	</g>
	<rect id="rect887" x="125.7" y="-615" class="st6" width="220.3" height="163.2"/>
	
		<path id="path889" sodipodi:cx="-223.40704" sodipodi:cy="620.52673" sodipodi:end="3.1415927" sodipodi:open="true" sodipodi:rx="104.33749" sodipodi:ry="104.33749" sodipodi:start="0" sodipodi:type="arc" class="st6" d="
		M125.7-614.5c0-39.3,21-75.7,55.1-95.4s76.1-19.7,110.1,0c34.1,19.7,55.1,56,55.1,95.4"/>
	<rect id="rect891" x="117.5" y="-464.2" class="st6" width="236.6" height="31.7"/>
	<rect id="rect84" x="168.7" y="-437.7" class="st2" width="9" height="348.3"/>
	<rect id="rect86" x="295.5" y="-437.7" class="st2" width="9" height="348.3"/>
	<path id="rect3802" class="st7" d="M233.3-718.8c-17.6,0.4-34.8,5.2-50,14c-31.7,18.3-51.5,51.9-52.3,88.4h-0.1v2.4v154.2h-7.8
		v23.3h225.3v-23.3h-7.8v-156.6h-0.1c-0.8-36.6-20.7-70.1-52.4-88.4C271.5-714.4,252.5-719.3,233.3-718.8z"/>
	
		<rect id="rect149" x="278.9" y="-521.2" transform="matrix(2.810800e-03 -1 1 2.810800e-03 854.3659 -179.5729)" class="st8" width="116.5" height="6.2"/>
	
		<rect id="rect151" x="76.5" y="-521.6" transform="matrix(2.809320e-03 -1 1 2.809320e-03 652.9193 -382.3202)" class="st8" width="116.5" height="6.2"/>
</g>
</svg>
