<?xml version="1.0" encoding="utf-8"?>
<!-- Generator: Adobe Illustrator 27.8.0, SVG Export Plug-In . SVG Version: 6.00 Build 0)  -->
<svg version="1.1"
	 id="svg8" xmlns:svg="http://www.w3.org/2000/svg" xmlns:rdf="http://www.w3.org/1999/02/22-rdf-syntax-ns#" xmlns:sodipodi="http://sodipodi.sourceforge.net/DTD/sodipodi-0.dtd" xmlns:dc="http://purl.org/dc/elements/1.1/" xmlns:inkscape="http://www.inkscape.org/namespaces/inkscape" xmlns:cc="http://creativecommons.org/ns#" inkscape:export-xdpi="93" inkscape:export-ydpi="93" inkscape:version="0.92.4 (5da689c313, 2019-01-14)"
	 xmlns="http://www.w3.org/2000/svg" xmlns:xlink="http://www.w3.org/1999/xlink" x="0px" y="0px" viewBox="0 0 349 1081"
	 style="enable-background:new 0 0 349 1081;" xml:space="preserve">
<style type="text/css">
	.st0{fill:#FFFFFF;}
	.st1{fill:#1A1A1A;}
	.st2{opacity:0.99;fill:#808080;enable-background:new    ;}
	.st3{fill:#0000FF;}
	.st4{fill:#CCCCCC;}
	.st5{fill:#B3B3B3;}
	.st6{opacity:0.99;enable-background:new    ;}
	.st7{fill:#E6E6E6;}
	.st8{fill:#333333;}
	.st9{enable-background:new    ;}
</style>
<sodipodi:namedview  bordercolor="#666666" borderopacity="1.0" id="base" inkscape:current-layer="layer1" inkscape:cx="-1648.3865" inkscape:cy="3588.0528" inkscape:document-units="mm" inkscape:pageopacity="0" inkscape:pageshadow="2" inkscape:window-height="1017" inkscape:window-maximized="1" inkscape:window-width="1920" inkscape:window-x="-8" inkscape:window-y="-8" inkscape:zoom="0.15556349" pagecolor="#323232" showgrid="false">
	</sodipodi:namedview>
<g id="layer1" transform="translate(0,1098)" inkscape:groupmode="layer" inkscape:label="Ebene 1">
	<rect id="rect10" x="0" y="-1084.9" width="349" height="930.7"/>
	<rect id="rect821" x="67.9" y="-224.9" class="st0" width="213.3" height="62.7"/>
	<path id="rect825" class="st1" d="M215.6-221.2l-28.7,0c-6.4,0-11.5,5.2-11.5,11.5l0,32c0,6.4,5.2,11.5,11.5,11.5l28.7,0
		c6.4,0,11.5-5.2,11.5-11.5l0-32C227.1-216,221.9-221.2,215.6-221.2z"/>
	<path id="rect872" class="st1" d="M109.8-221.2l-28.7,0c-6.4,0-11.5,5.2-11.5,11.5l0,32c0,6.4,5.2,11.5,11.5,11.5l28.7,0
		c6.4,0,11.5-5.2,11.5-11.5l0-32C121.3-216,116.2-221.2,109.8-221.2z"/>
	<path id="rect874" class="st1" d="M164.2-221.2l-31.7,0c-5.6,0-10.1,4.5-10.1,10.1l0,35c0,5.6,4.5,10.1,10.1,10.1l31.7,0
		c5.6,0,10.1-4.5,10.1-10.1l0-35C174.2-216.7,169.7-221.2,164.2-221.2z"/>
	<rect id="rect947" x="198.4" y="-193.3" class="st2" width="5.8" height="112.7"/>
	<rect id="rect949" x="145.2" y="-193.3" class="st2" width="5.8" height="112.7"/>
	<rect id="rect951" x="92.6" y="-193.3" class="st2" width="5.8" height="112.7"/>
	<path id="rect97" class="st1" d="M269.6-221.2l-31.7,0c-5.6,0-10.1,4.5-10.1,10.1l0,35c0,5.6,4.5,10.1,10.1,10.1l31.7,0
		c5.6,0,10.1-4.5,10.1-10.1l0-35C279.7-216.7,275.2-221.2,269.6-221.2z"/>
	<rect id="rect101" x="250.7" y="-193.3" class="st2" width="5.8" height="112.7"/>
	<path id="rect78" inkscape:connector-curvature="0" class="st0" d="M7.9-437.3v154.4l-0.2,0.2l0.2,0.1v0.3h0.4l19,15v0h0.1l0.1,0.1
		l0.1-0.1h115.2l0.4,0.5l19.7-15.6v-155H7.9z"/>
	<path id="path2575" inkscape:connector-curvature="0" class="st0" d="M186.3-437.3v154.4l-0.2,0.2l0.2,0.1v0.3h0.4l19,15v0h0.1
		l0.1,0.1l0.1-0.1h115.2l0.4,0.5l19.7-15.6v-155H186.3z"/>
	<path id="path2577" inkscape:connector-curvature="0" d="M11.8-433.4V-286l-0.1,0.2l0.1,0.1v0.3h0.3l18.1,14.4v0h0.1l0.1,0.1
		l0.1-0.1h109.5l0.4,0.5l18.7-14.9v-148H11.8z"/>
	<path id="path2579" inkscape:connector-curvature="0" d="M190.2-433.4V-286l-0.1,0.2l0.1,0.1v0.3h0.3l18.1,14.4v0h0.1l0.1,0.1
		l0.1-0.1h109.5l0.4,0.5l18.7-14.9v-148H190.2z"/>
	<path id="path2581" inkscape:connector-curvature="0" class="st3" d="M13.7-431.5v143.9l-0.1,0.2l0.1,0.1v0.3h0.3l17.6,14v0h0.1
		l0.1,0.1l0.1-0.1h106.6l0.4,0.5l18.2-14.5v-144.5H13.7z"/>
	<path id="path2583" inkscape:connector-curvature="0" class="st3" d="M192.1-431.5v143.9l-0.1,0.2l0.1,0.1v0.3h0.3l17.6,14v0h0.1
		l0.1,0.1l0.1-0.1h106.6l0.4,0.5l18.2-14.5v-144.5H192.1z"/>
	
		<path id="path2585" sodipodi:cx="110.0013" sodipodi:cy="-131.18253" sodipodi:end="4.712389" sodipodi:open="true" sodipodi:rx="89.998688" sodipodi:ry="89.998688" sodipodi:start="0" sodipodi:type="arc" class="st0" d="
		M155.1-348.1c0,28.2-17,53.7-43.1,64.5s-56.1,4.8-76.1-15.1s-25.9-50-15.1-76.1s36.3-43.1,64.5-43.1"/>
	
		<path id="path2587" sodipodi:cx="340.00131" sodipodi:cy="131.17995" sodipodi:end="4.712389" sodipodi:open="true" sodipodi:rx="89.998688" sodipodi:ry="89.998688" sodipodi:start="0" sodipodi:type="arc" class="st0" d="
		M333.5-348.1c0-28.2-17-53.7-43.1-64.5c-26.1-10.8-56.1-4.8-76.1,15.1c-20,20-25.9,50-15.1,76.1c10.8,26.1,36.3,43.1,64.5,43.1"/>
	
		<rect id="rect2589" x="76.7" y="-417.6" transform="matrix(0.7071 -0.7071 0.7071 0.7071 270.712 -42.1384)" class="st4" width="15.5" height="139.6"/>
	
		<rect id="rect2591" x="193.1" y="-356.8" transform="matrix(0.7071 -0.7071 0.7071 0.7071 323.7837 83.6561)" class="st4" width="139.6" height="15.5"/>
	<rect id="rect2593" x="46.5" y="-584.7" class="st0" width="139.6" height="100.8"/>
	<rect id="rect2595" x="50.4" y="-580.8" class="st1" width="131.8" height="93.1"/>
	<rect id="rect2597" x="54.3" y="-488.1" class="st5" width="15.5" height="23.3"/>
	<rect id="rect2599" x="93.1" y="-488.1" class="st5" width="15.5" height="23.3"/>
	<rect id="rect2601" x="124.1" y="-488.1" class="st5" width="15.5" height="23.3"/>
	<rect id="rect2603" x="162.9" y="-488.1" class="st5" width="15.5" height="23.3"/>
	<rect id="rect2605" x="54.3" y="-603.9" class="st5" width="15.5" height="23.3"/>
	<rect id="rect2607" x="93.1" y="-603.9" class="st5" width="15.5" height="23.3"/>
	<rect id="rect2609" x="124.1" y="-603.9" class="st5" width="15.5" height="23.3"/>
	<rect id="rect2611" x="162.9" y="-603.9" class="st5" width="15.5" height="23.3"/>
	<circle id="path2621" class="st4" cx="174.5" cy="-732" r="77.6"/>
	<circle id="circle2623" class="st0" cx="174.5" cy="-732" r="69.8"/>
	<rect id="rect837" x="193.9" y="-902.7" class="st0" width="131.8" height="46.5"/>
	<rect id="rect892-72" x="195.5" y="-900.7" class="st6" width="128.5" height="43"/>
	<path id="rect939" class="st4" d="M283.4-901.1h18.8c11.9,0,21.5,9.6,21.5,21.5l0,0c0,11.9-9.6,21.5-21.5,21.5h-18.8
		c-11.9,0-21.5-9.6-21.5-21.5l0,0C261.9-891.5,271.5-901.1,283.4-901.1z"/>
	<path id="rect941" class="st4" d="M217.1-901.1h18.8c11.9,0,21.5,9.6,21.5,21.5l0,0c0,11.9-9.6,21.5-21.5,21.5h-18.8
		c-11.9,0-21.5-9.6-21.5-21.5l0,0C195.6-891.5,205.2-901.1,217.1-901.1z"/>
	<rect id="rect837-8" x="23.3" y="-1019" class="st0" width="170.6" height="46.5"/>
	<rect id="rect892-72-4" x="25.1" y="-1017" class="st6" width="167" height="43"/>
	<path id="rect939-4" class="st4" d="M117.2-1017.4h-6.9c-11.9,0-21.5,9.6-21.5,21.5v0c0,11.9,9.6,21.5,21.5,21.5h6.9
		c11.9,0,21.5-9.6,21.5-21.5v0C138.7-1007.8,129-1017.4,117.2-1017.4z"/>
	<path id="rect941-4" class="st4" d="M170.9-1017.4H164c-11.9,0-21.5,9.6-21.5,21.5v0c0,11.9,9.6,21.5,21.5,21.5h6.9
		c11.9,0,21.5-9.6,21.5-21.5v0C192.4-1007.8,182.8-1017.4,170.9-1017.4z"/>
	<rect id="rect945" x="25.7" y="-1015.5" class="st4" width="55" height="39.7"/>
	<rect id="rect2661" x="205.7" y="-1050.2" class="st1" width="108.6" height="132"/>
	
		<path id="path2663" sodipodi:cx="335.23743" sodipodi:cy="1036.4967" sodipodi:end="3.1415927" sodipodi:open="true" sodipodi:rx="70" sodipodi:ry="29.999998" sodipodi:start="0" sodipodi:type="arc" class="st7" d="
		M314.3-1050.3c0-8.3-10.3-16-27.1-20.1c-16.8-4.2-37.5-4.2-54.3,0c-16.8,4.2-27.1,11.8-27.1,20.1"/>
	<rect id="rect2667" x="58.7" y="-488.9" class="st2" width="6.2" height="15.5"/>
	<rect id="rect2669" x="97.7" y="-488.9" class="st2" width="6.2" height="15.5"/>
	<rect id="rect2671" x="128.5" y="-488.9" class="st2" width="6.2" height="15.5"/>
	<rect id="rect2673" x="167.6" y="-488.9" class="st2" width="6.2" height="15.5"/>
	<rect id="rect2675" x="58.7" y="-595.1" class="st2" width="6.2" height="15.5"/>
	<rect id="rect2677" x="97.7" y="-595.1" class="st2" width="6.2" height="15.5"/>
	<rect id="rect2679" x="128.5" y="-595.1" class="st2" width="6.2" height="15.5"/>
	<rect id="rect2681" x="167.6" y="-595.1" class="st2" width="6.2" height="15.5"/>
	<rect id="rect2683" x="223.4" y="-906.1" class="st2" width="6.2" height="27.1"/>
	<rect id="rect2685" x="289.3" y="-906.1" class="st2" width="6.2" height="27.1"/>
	<rect id="rect2659" x="198" y="-918.6" class="st7" width="124.1" height="14.3"/>
	
		<path id="path2690" sodipodi:cx="139.58401" sodipodi:cy="1065.3604" sodipodi:end="3.1415927" sodipodi:open="true" sodipodi:rx="80" sodipodi:ry="29.999998" sodipodi:start="0" sodipodi:type="arc" class="st1" d="
		M170.3-1072.6c0-8.3-11.8-16-31-20.1c-19.2-4.2-42.8-4.2-62,0c-19.2,4.2-31,11.8-31,20.1"/>
	<rect id="rect2692" x="111.3" y="-999.6" class="st2" width="6.2" height="11.6"/>
	<rect id="rect2694" x="164.9" y="-999.6" class="st2" width="6.2" height="11.6"/>
	<rect id="rect2696" x="50.2" y="-999.6" class="st2" width="6.2" height="11.6"/>
	<rect id="rect2688" x="34.9" y="-1072.9" class="st8" width="147.4" height="77.6"/>
	<path id="path31-1" inkscape:connector-curvature="0" class="st0" d="M188.5-615.9c2.2,0,2.4-0.1,2.8-0.3c0.2-0.1,0.6-0.5,0.7-0.7
		c0.2-0.4,0.3-0.7,0.3-5.1l0-4.7l4.6,0l4.6,0v5.8c0,6.4-0.1,7-0.7,8.7c-0.9,2.2-2.2,3.2-4.8,3.8c-0.7,0.2-1.5,0.2-4.2,0.2
		c-1.8,0-3.8-0.1-4.5-0.1l-1.1-0.1l0-3.8l0-3.8L188.5-615.9L188.5-615.9z M232.4-602.8c39.4,0,49.1,0.1,47.4,0.2l-0.3,0l0.3,0.1
		c0.2,0.1,0.2,0.1-0.2,0.1c-0.3,0-0.2,0.1,0.4,0.1l0.8,0.1l-0.8,0c-0.4,0-0.7,0.1-0.6,0.1c0.2,0,0.2,0.2,0.2,1.1c0,1,0,1,0.3,1.1
		c0.2,0,0.2,0.1-0.2,0.1c-0.3,0-0.5,0.1-0.5,0.1c0,0.1-15.6,0.1-46.6,0.1h-46.6v-1.7v-1.7L232.4-602.8z M196.9-638.7h4.7v3.8v3.8
		h-4.7h-4.7v-3.8v-3.8H196.9z M206.3-624.7c0.3-2.1,0.9-4,1.8-5.7c0.3-0.6,0.6-1.1,0.6-1.2c0,0,0.3-0.4,0.5-0.7
		c0.5-0.8,1.6-2.1,1.8-2.3c0.1-0.1,0.2-0.2,0.2-0.2c0-0.2,1.2-1.2,2.1-1.9c1-0.7,1.7-1.1,3.5-1.7c2-0.7,3.2-0.9,5.6-0.8
		c1.7,0.1,2.2,0.1,3.3,0.4c0.7,0.2,1.5,0.5,1.9,0.6c0.3,0.1,0.7,0.3,0.7,0.3c0.1,0,0.6,0.3,1.1,0.6c2.2,1.3,5.3,4.7,6.4,7.3
		c1.8,4,2.1,8.1,0.7,11.8c-0.6,1.6-1,2.5-1.7,3.6c-0.8,1.3-0.9,1.4-2.8,3.2c-2.2,2.2-3.8,3.1-6.6,3.9c-1.5,0.4-4.3,0.5-5.9,0.3
		c-2-0.3-4.7-1.4-6.3-2.7c-0.9-0.6-2-1.6-2-1.7c0,0-0.3-0.4-0.6-0.7c-1.7-1.7-3.4-5-4-7.8C206.4-621.2,206.2-623.9,206.3-624.7
		L206.3-624.7z M215.2-620.8c0.5,1.8,1.3,3.3,2.7,4.6c1.4,1.3,3.6,1.8,5.5,1.2c2.1-0.7,4.2-3.1,4.9-5.8c0.4-1.5,0.4-3.7-0.1-5.2
		c-0.6-2.1-1.7-3.7-3.2-4.8c-0.7-0.5-1-0.6-1.8-0.8c-1.6-0.3-3.2-0.1-4.3,0.4c-1,0.5-2.3,1.9-3,3.3
		C214.9-625.6,214.6-623.1,215.2-620.8L215.2-620.8z M241.4-638.6c0.1,0,2.2,0,4.7,0l4.5,0l0,4.2c0,3.9,0,4.2,0.3,4.9
		c0.7,1.8,2.8,2.7,4.7,2.1c1-0.3,1.6-0.9,2.1-1.8l0.4-0.8l0-4.3l0-4.3h4.7h4.7l-0.1,4.9c0,4.5-0.1,4.9-0.3,5.9
		c-0.5,1.9-1.3,3.5-2.4,4.8c-0.3,0.3-0.5,0.6-0.5,0.7c0,0.2-1.2,1.2-2.2,2c-0.9,0.7-2.1,1.3-2.8,1.5c-0.2,0-0.8,0.2-1.4,0.4
		c-1,0.3-1.2,0.3-3.3,0.3c-2.1,0-2.4,0-3.5-0.4c-1.9-0.5-2.5-0.8-3.7-1.6c-1.4-0.9-2.6-2.1-3.6-3.5c-1.4-2-2-3.6-2.3-5.9
		C241.1-631.1,241.2-638.5,241.4-638.6L241.4-638.6z M254.4-615.7h7.6v3.9v3.9h-7.6h-7.6v-3.9v-3.9H254.4z M267.4-644.6
		c0.1,0,0.1-0.2,0.1-0.5c0-0.5,0-0.5,0.6-0.6c0.3,0,13.2-0.1,28.6-0.1l28.1,0l0,1.7l0,1.7h-28.5c-15.7,0-28.6,0-28.7-0.1
		c-0.2-0.1-0.2-0.3-0.2-1.1C267.2-644.2,267.3-644.6,267.4-644.6L267.4-644.6z M280.2-625.9h9.7v3.8v3.8h-9.7h-9.7v-3.8v-3.8H280.2z
		 M297.5-638.7h4.7v3.8v3.8h-4.7h-4.7v-3.8v-3.8H297.5z M297.5-627.1h4.7v9.8v9.8h-4.7h-4.7v-9.8v-9.8H297.5z M316.1-638.7h9.7v3.8
		v3.8h-9.7h-9.7v-3.8v-3.8H316.1z M308-626.6c0.1,0,2.1-0.1,4.6-0.1l4.5,0l0,4.5c0.1,6.3-0.2,6,4.5,6l3,0v3.9v3.9l-1.1,0.1
		c-1.7,0.2-7,0.2-8.4-0.1c-2.5-0.4-4.1-1.2-5.2-2.4c-1.1-1.3-1.6-2.7-1.9-4.9C307.8-616.8,307.8-626.5,308-626.6L308-626.6z
		 M331.3-642.4c0.2-0.8,0.7-1.6,1.2-2.1c2.1-1.9,4.6-2,6.7-0.5c1,0.7,1.2,1,1.6,1.9c0.3,0.7,0.4,0.9,0.4,2c0,1.2,0,1.4-0.4,2.1
		c-0.7,1.5-2.5,2.7-4.2,2.8c-1.6,0.1-2.9-0.4-4.2-1.6C331.3-638.8,330.8-640.8,331.3-642.4L331.3-642.4z M332.2-639.2
		c0.4,1,1.7,2,3.1,2.3c1.4,0.3,2.4,0.1,3.9-1.1c0.4-0.3,0.6-0.6,0.9-1.2c0.4-0.8,0.4-1,0.4-1.9c0-1,0-1.1-0.4-1.9
		c-0.4-0.7-0.6-1-1.2-1.4c-0.4-0.3-1-0.6-1.4-0.7c-2.1-0.7-4.7,0.4-5.5,2.5C331.7-641.8,331.8-640.1,332.2-639.2z M335.7-644
		c0.9,0,1.9,0.1,2,0.1c0.8,0.3,1.1,1.7,0.6,2.4c-0.1,0.2-0.4,0.4-0.7,0.5l-0.4,0.2l0.4,0.5c0.2,0.3,0.6,0.8,0.8,1.2
		c0.2,0.4,0.4,0.7,0.5,0.8c0.3,0.2,0.1,0.3-0.4,0.3l-0.5,0l-0.8-1.2c-0.8-1.3-1-1.4-1.9-1.4h-0.6v1.3v1.3l-0.4,0l-0.4,0l0-2.9l0-2.9
		L335.7-644z M335.9-641.5c0.9,0,1.2,0,1.4-0.3c0.7-0.5,0.3-1.4-0.7-1.5c-0.4-0.1-1.6,0-1.8,0c0,0,0,0.4,0,0.9v0.9L335.9-641.5z"/>
	<g class="st9">
		<path d="M66.4-75.6c0,0.2,0,0.5,0,0.7c0,0.2-0.1,0.3-0.1,0.5c-0.1,0.1-0.1,0.2-0.2,0.3s-0.2,0.1-0.3,0.1c-0.2,0-0.4-0.1-0.8-0.4
			c-0.4-0.2-0.9-0.5-1.5-0.8c-0.6-0.3-1.4-0.6-2.2-0.8c-0.9-0.2-1.9-0.4-3.1-0.4c-1.4,0-2.7,0.3-3.8,0.8c-1.1,0.5-2.1,1.2-2.8,2.1
			c-0.8,0.9-1.4,2-1.8,3.2c-0.4,1.3-0.6,2.6-0.6,4.1c0,1.6,0.2,3.1,0.7,4.3s1.1,2.3,1.9,3.2s1.8,1.5,2.9,2c1.1,0.4,2.3,0.7,3.7,0.7
			c0.8,0,1.6-0.1,2.4-0.3c0.8-0.2,1.6-0.5,2.3-0.9v-7.4h-5.9c-0.2,0-0.4-0.1-0.5-0.3c-0.1-0.2-0.2-0.6-0.2-1c0-0.2,0-0.5,0-0.6
			s0.1-0.3,0.1-0.4c0.1-0.1,0.1-0.2,0.2-0.2s0.2-0.1,0.3-0.1h8.1c0.1,0,0.3,0,0.4,0.1c0.1,0.1,0.3,0.1,0.4,0.2
			c0.1,0.1,0.2,0.3,0.3,0.4c0.1,0.2,0.1,0.4,0.1,0.6v9.7c0,0.3-0.1,0.6-0.2,0.9c-0.1,0.2-0.4,0.5-0.8,0.7c-0.4,0.2-0.9,0.4-1.5,0.6
			c-0.6,0.2-1.2,0.4-1.9,0.6c-0.6,0.2-1.3,0.3-2,0.4c-0.7,0.1-1.3,0.1-2,0.1c-2,0-3.7-0.3-5.3-0.9c-1.6-0.6-2.9-1.5-3.9-2.6
			c-1.1-1.1-1.9-2.5-2.5-4.1c-0.6-1.6-0.8-3.3-0.8-5.3c0-2,0.3-3.9,0.9-5.5s1.5-3,2.6-4.2s2.5-2.1,4-2.7c1.6-0.6,3.3-1,5.2-1
			c1,0,1.9,0.1,2.7,0.3c0.9,0.2,1.6,0.4,2.3,0.6s1.2,0.5,1.7,0.8c0.5,0.3,0.8,0.5,0.9,0.7c0.2,0.2,0.3,0.4,0.4,0.6
			C66.4-76.4,66.4-76.1,66.4-75.6z"/>
		<path d="M92.1-55c0,0.3,0,0.5-0.1,0.7c-0.1,0.2-0.2,0.3-0.3,0.5c-0.1,0.1-0.3,0.2-0.5,0.3c-0.2,0.1-0.4,0.1-0.5,0.1h-1.1
			c-0.4,0-0.7,0-0.9-0.1S88-53.8,87.8-54c-0.2-0.2-0.5-0.5-0.7-0.8s-0.5-0.8-0.8-1.3l-7.8-14.5c-0.4-0.8-0.8-1.5-1.2-2.4
			c-0.4-0.8-0.8-1.6-1.2-2.4h0c0,0.9,0,1.9,0.1,2.9c0,1,0,2,0,2.9v15.4c0,0.1,0,0.2-0.1,0.3c-0.1,0.1-0.1,0.2-0.3,0.2
			c-0.1,0-0.3,0.1-0.5,0.1c-0.2,0-0.5,0-0.8,0s-0.6,0-0.8,0c-0.2,0-0.4-0.1-0.5-0.1c-0.1,0-0.2-0.1-0.3-0.2
			c-0.1-0.1-0.1-0.2-0.1-0.3v-23.6c0-0.5,0.1-0.9,0.4-1.1c0.3-0.2,0.6-0.3,1-0.3h1.7c0.4,0,0.7,0,1,0.1c0.3,0.1,0.5,0.2,0.7,0.3
			c0.2,0.2,0.4,0.4,0.6,0.6c0.2,0.3,0.4,0.6,0.6,1l6,11.2c0.4,0.7,0.7,1.4,1.1,2c0.3,0.7,0.7,1.3,1,1.9c0.3,0.6,0.6,1.3,0.9,1.9
			s0.6,1.2,0.9,1.8h0c0-1,0-2.1,0-3.2c0-1.1,0-2.2,0-3.3v-13.9c0-0.1,0-0.2,0.1-0.3c0.1-0.1,0.1-0.1,0.3-0.2
			c0.1-0.1,0.3-0.1,0.5-0.1c0.2,0,0.5,0,0.8,0c0.3,0,0.6,0,0.8,0s0.4,0.1,0.5,0.1s0.2,0.1,0.3,0.2c0.1,0.1,0.1,0.2,0.1,0.3V-55z"/>
		<path d="M118.5-66.7c0,2.2-0.3,4.1-0.8,5.8c-0.6,1.7-1.4,3-2.5,4.1c-1.1,1.1-2.4,1.9-4,2.4c-1.6,0.5-3.5,0.8-5.7,0.8h-5.4
			c-0.3,0-0.6-0.1-0.9-0.3c-0.3-0.2-0.4-0.6-0.4-1.1v-22.8c0-0.5,0.1-0.9,0.4-1.1c0.3-0.2,0.6-0.3,0.9-0.3h5.8
			c2.2,0,4.1,0.3,5.6,0.9c1.5,0.6,2.8,1.4,3.8,2.5c1,1.1,1.8,2.4,2.4,3.9C118.3-70.4,118.5-68.6,118.5-66.7z M115-66.6
			c0-1.4-0.2-2.7-0.5-3.9c-0.3-1.2-0.9-2.2-1.6-3.1c-0.7-0.9-1.7-1.5-2.8-2s-2.6-0.7-4.3-0.7h-3.5v19.9h3.5c1.6,0,3-0.2,4.1-0.6
			c1.1-0.4,2.1-1,2.8-1.9c0.8-0.8,1.3-1.9,1.7-3.2C114.8-63.3,115-64.8,115-66.6z"/>
	</g>
	<g class="st9">
		<path d="M171.9-59.1c0,1.2-0.2,2.3-0.7,3.2c-0.4,0.9-1.1,1.7-1.8,2.4c-0.8,0.7-1.7,1.1-2.8,1.5s-2.2,0.5-3.4,0.5
			c-0.9,0-1.6-0.1-2.4-0.2c-0.7-0.1-1.4-0.3-2-0.5s-1.1-0.4-1.4-0.7s-0.7-0.4-0.8-0.6c-0.2-0.2-0.3-0.4-0.3-0.6
			c-0.1-0.2-0.1-0.6-0.1-1c0-0.3,0-0.5,0-0.7c0-0.2,0.1-0.3,0.1-0.5c0.1-0.1,0.1-0.2,0.2-0.2s0.2-0.1,0.3-0.1c0.2,0,0.4,0.1,0.8,0.3
			s0.8,0.5,1.3,0.7c0.5,0.3,1.2,0.5,1.9,0.7c0.7,0.2,1.6,0.3,2.6,0.3c0.7,0,1.4-0.1,2-0.3s1.1-0.5,1.6-0.8s0.8-0.8,1-1.3
			c0.2-0.5,0.4-1.1,0.4-1.8c0-0.7-0.2-1.3-0.5-1.9c-0.3-0.5-0.8-1-1.3-1.4c-0.5-0.4-1.2-0.7-1.8-1.1c-0.7-0.3-1.4-0.7-2.1-1
			c-0.7-0.3-1.4-0.7-2.1-1.1c-0.7-0.4-1.3-0.9-1.8-1.4c-0.5-0.6-1-1.2-1.3-1.9c-0.3-0.7-0.5-1.6-0.5-2.7c0-1.1,0.2-2,0.6-2.9
			c0.4-0.8,0.9-1.5,1.6-2.1s1.5-1,2.5-1.3c1-0.3,2-0.4,3.1-0.4c0.6,0,1.1,0,1.7,0.1s1.1,0.2,1.6,0.4s1,0.3,1.4,0.6
			c0.4,0.2,0.7,0.4,0.8,0.5s0.2,0.2,0.2,0.3c0,0.1,0.1,0.2,0.1,0.3s0,0.2,0.1,0.4c0,0.2,0,0.4,0,0.6c0,0.2,0,0.4,0,0.6
			s0,0.3-0.1,0.5c0,0.1-0.1,0.2-0.2,0.3s-0.2,0.1-0.2,0.1c-0.1,0-0.4-0.1-0.7-0.3s-0.7-0.4-1.1-0.6c-0.4-0.2-1-0.4-1.6-0.6
			c-0.6-0.2-1.3-0.3-2.1-0.3c-0.7,0-1.3,0.1-1.9,0.3c-0.5,0.2-1,0.4-1.3,0.8c-0.3,0.3-0.6,0.7-0.8,1.1c-0.2,0.4-0.3,0.9-0.3,1.4
			c0,0.7,0.2,1.3,0.5,1.8s0.8,1,1.3,1.4c0.5,0.4,1.2,0.8,1.9,1.1c0.7,0.3,1.4,0.7,2.1,1c0.7,0.3,1.4,0.7,2.1,1.1
			c0.7,0.4,1.3,0.9,1.9,1.4c0.5,0.5,1,1.2,1.3,1.9S171.9-60.1,171.9-59.1z"/>
		<path d="M180-76.2c0,0.8-0.1,1.3-0.4,1.6s-0.8,0.4-1.6,0.4c-0.8,0-1.3-0.1-1.6-0.4c-0.3-0.3-0.4-0.8-0.4-1.5
			c0-0.8,0.1-1.3,0.4-1.6c0.3-0.3,0.8-0.4,1.6-0.4c0.8,0,1.3,0.1,1.6,0.4C179.9-77.4,180-76.9,180-76.2z M179.7-52.4
			c0,0.1,0,0.2-0.1,0.3c-0.1,0.1-0.1,0.1-0.3,0.2c-0.1,0.1-0.3,0.1-0.5,0.1s-0.5,0-0.8,0c-0.3,0-0.6,0-0.8,0s-0.4-0.1-0.5-0.1
			c-0.1-0.1-0.2-0.1-0.3-0.2c0-0.1-0.1-0.2-0.1-0.3v-17.8c0-0.1,0-0.2,0.1-0.3s0.1-0.1,0.3-0.2s0.3-0.1,0.5-0.1s0.5,0,0.8,0
			c0.3,0,0.6,0,0.8,0s0.4,0.1,0.5,0.1c0.1,0.1,0.2,0.1,0.3,0.2s0.1,0.2,0.1,0.3V-52.4z"/>
		<path d="M200.5-69.3c0,0.5-0.1,0.8-0.2,1c-0.1,0.2-0.3,0.3-0.5,0.3h-2.5c0.5,0.5,0.8,1,1,1.6c0.2,0.6,0.3,1.2,0.3,1.8
			c0,1-0.2,1.9-0.5,2.7c-0.3,0.8-0.8,1.5-1.4,2c-0.6,0.5-1.3,1-2.2,1.3c-0.8,0.3-1.8,0.4-2.8,0.4c-0.7,0-1.4-0.1-2.1-0.3
			c-0.7-0.2-1.2-0.4-1.5-0.7c-0.2,0.2-0.4,0.5-0.6,0.8s-0.2,0.7-0.2,1c0,0.5,0.2,0.8,0.6,1.1c0.4,0.3,1,0.5,1.7,0.5l4.6,0.2
			c0.9,0,1.7,0.1,2.4,0.4c0.7,0.2,1.4,0.5,1.9,0.9s1,0.9,1.3,1.5c0.3,0.6,0.5,1.3,0.5,2c0,0.8-0.2,1.6-0.5,2.3
			c-0.3,0.7-0.9,1.4-1.6,1.9c-0.7,0.6-1.6,1-2.7,1.3c-1.1,0.3-2.4,0.5-3.9,0.5c-1.4,0-2.7-0.1-3.7-0.4c-1-0.2-1.8-0.6-2.5-1
			c-0.6-0.4-1.1-0.9-1.4-1.5c-0.3-0.6-0.4-1.2-0.4-1.9c0-0.4,0.1-0.9,0.2-1.3c0.1-0.4,0.3-0.8,0.5-1.2c0.2-0.4,0.5-0.7,0.8-1.1
			c0.3-0.3,0.7-0.7,1.1-1c-0.6-0.3-1.1-0.7-1.4-1.2c-0.3-0.5-0.5-1-0.5-1.6c0-0.8,0.2-1.5,0.5-2.2s0.7-1.2,1.2-1.7
			c-0.4-0.5-0.7-1-1-1.6c-0.2-0.6-0.4-1.4-0.4-2.2c0-1,0.2-1.9,0.5-2.7c0.3-0.8,0.8-1.5,1.4-2c0.6-0.6,1.3-1,2.2-1.3
			c0.8-0.3,1.8-0.4,2.8-0.4c0.5,0,1,0,1.5,0.1c0.5,0.1,0.9,0.1,1.3,0.2h5.4c0.2,0,0.4,0.1,0.5,0.3C200.5-70.1,200.5-69.8,200.5-69.3
			z M197.1-50.6c0-0.8-0.3-1.4-0.9-1.8c-0.6-0.4-1.5-0.6-2.5-0.7l-4.6-0.2c-0.4,0.3-0.8,0.6-1,0.9c-0.3,0.3-0.5,0.6-0.6,0.8
			c-0.2,0.3-0.3,0.5-0.3,0.8s-0.1,0.5-0.1,0.8c0,0.9,0.4,1.5,1.3,1.9c0.9,0.4,2.1,0.7,3.6,0.7c1,0,1.8-0.1,2.5-0.3
			c0.7-0.2,1.2-0.4,1.6-0.8s0.7-0.7,0.9-1.1S197.1-50.1,197.1-50.6z M195.4-64.7c0-1.2-0.3-2.2-1-2.8c-0.7-0.7-1.6-1-2.8-1
			c-0.6,0-1.2,0.1-1.6,0.3c-0.5,0.2-0.9,0.5-1.2,0.9c-0.3,0.4-0.5,0.8-0.7,1.3c-0.2,0.5-0.2,1-0.2,1.5c0,1.2,0.3,2.1,1,2.8
			s1.6,1,2.8,1c0.6,0,1.2-0.1,1.7-0.3c0.5-0.2,0.9-0.5,1.2-0.8s0.5-0.8,0.7-1.3C195.4-63.7,195.4-64.2,195.4-64.7z"/>
		<path d="M220-52.4c0,0.1,0,0.2-0.1,0.3c-0.1,0.1-0.1,0.1-0.3,0.2c-0.1,0.1-0.3,0.1-0.5,0.1c-0.2,0-0.5,0-0.8,0c-0.3,0-0.6,0-0.8,0
			c-0.2,0-0.4-0.1-0.5-0.1c-0.1-0.1-0.2-0.1-0.3-0.2c-0.1-0.1-0.1-0.2-0.1-0.3v-10.4c0-1-0.1-1.8-0.2-2.5s-0.4-1.2-0.7-1.6
			c-0.3-0.4-0.7-0.8-1.2-1c-0.5-0.2-1-0.4-1.7-0.4c-0.8,0-1.6,0.3-2.5,0.9c-0.8,0.6-1.7,1.4-2.6,2.5v12.4c0,0.1,0,0.2-0.1,0.3
			c-0.1,0.1-0.1,0.1-0.3,0.2c-0.1,0.1-0.3,0.1-0.5,0.1s-0.5,0-0.8,0c-0.3,0-0.6,0-0.8,0s-0.4-0.1-0.5-0.1c-0.1-0.1-0.2-0.1-0.3-0.2
			c0-0.1-0.1-0.2-0.1-0.3v-17.8c0-0.1,0-0.2,0.1-0.3c0-0.1,0.1-0.1,0.2-0.2s0.3-0.1,0.5-0.1c0.2,0,0.4,0,0.7,0c0.3,0,0.5,0,0.7,0
			c0.2,0,0.3,0.1,0.4,0.1c0.1,0.1,0.2,0.1,0.2,0.2c0,0.1,0.1,0.2,0.1,0.3v2.4c1-1.1,2-1.9,3-2.5s2-0.8,3-0.8c1.2,0,2.2,0.2,3,0.6
			c0.8,0.4,1.5,0.9,2,1.6c0.5,0.7,0.9,1.5,1.1,2.4c0.2,0.9,0.3,2,0.3,3.3V-52.4z"/>
		<path d="M239.4-52.4c0,0.2-0.1,0.3-0.2,0.4s-0.2,0.1-0.4,0.2c-0.2,0-0.5,0.1-0.8,0.1c-0.3,0-0.6,0-0.8-0.1c-0.2,0-0.4-0.1-0.4-0.2
			c-0.1-0.1-0.1-0.2-0.1-0.4v-1.8c-0.8,0.8-1.6,1.5-2.6,1.9s-2,0.7-3,0.7c-0.9,0-1.8-0.1-2.5-0.4c-0.8-0.2-1.4-0.6-1.9-1.1
			s-0.9-1-1.2-1.7c-0.3-0.7-0.4-1.4-0.4-2.3c0-1,0.2-1.9,0.6-2.6c0.4-0.7,1-1.3,1.8-1.8s1.7-0.9,2.8-1.1s2.4-0.4,3.7-0.4h2.5v-1.4
			c0-0.7-0.1-1.3-0.2-1.8c-0.1-0.5-0.4-1-0.7-1.3c-0.3-0.3-0.7-0.6-1.3-0.8s-1.1-0.3-1.9-0.3c-0.8,0-1.5,0.1-2.2,0.3
			c-0.6,0.2-1.2,0.4-1.7,0.6c-0.5,0.2-0.9,0.4-1.2,0.6c-0.3,0.2-0.6,0.3-0.7,0.3c-0.1,0-0.2,0-0.3-0.1s-0.1-0.1-0.2-0.2
			c-0.1-0.1-0.1-0.2-0.1-0.4c0-0.2,0-0.3,0-0.5c0-0.3,0-0.6,0.1-0.8c0-0.2,0.2-0.4,0.3-0.5c0.2-0.2,0.5-0.4,0.9-0.6s0.9-0.4,1.5-0.6
			c0.6-0.2,1.2-0.3,1.9-0.5c0.7-0.1,1.3-0.2,2-0.2c1.3,0,2.4,0.1,3.3,0.4c0.9,0.3,1.6,0.7,2.2,1.3c0.6,0.6,1,1.3,1.2,2.1
			c0.2,0.8,0.4,1.8,0.4,2.9V-52.4z M236.1-60.5h-2.8c-0.9,0-1.7,0.1-2.3,0.2c-0.7,0.2-1.2,0.4-1.6,0.7c-0.4,0.3-0.8,0.7-1,1.1
			s-0.3,0.9-0.3,1.4c0,0.9,0.3,1.7,0.9,2.2s1.4,0.8,2.5,0.8c0.9,0,1.6-0.2,2.4-0.7c0.7-0.4,1.5-1.1,2.3-2V-60.5z"/>
		<path d="M248.6-52.4c0,0.1,0,0.2-0.1,0.3c-0.1,0.1-0.1,0.1-0.3,0.2c-0.1,0.1-0.3,0.1-0.5,0.1s-0.5,0-0.8,0c-0.3,0-0.6,0-0.8,0
			s-0.4-0.1-0.5-0.1c-0.1-0.1-0.2-0.1-0.3-0.2c0-0.1-0.1-0.2-0.1-0.3v-26.4c0-0.1,0-0.2,0.1-0.3s0.1-0.1,0.3-0.2s0.3-0.1,0.5-0.1
			s0.5,0,0.8,0c0.3,0,0.6,0,0.8,0s0.4,0.1,0.5,0.1c0.1,0.1,0.2,0.1,0.3,0.2s0.1,0.2,0.1,0.3V-52.4z"/>
	</g>
	<g class="st9">
		<path d="M145.9-29.7c0,0.3,0,0.5-0.1,0.6c0,0.2-0.1,0.3-0.2,0.4c-0.1,0.1-0.1,0.2-0.2,0.3s-0.2,0.1-0.3,0.1h-6.5v7.2
			c0,0.1,0,0.2-0.1,0.3c-0.1,0.1-0.1,0.1-0.2,0.2c-0.1,0.1-0.3,0.1-0.4,0.1c-0.2,0-0.4,0-0.7,0c-0.3,0-0.5,0-0.7,0
			c-0.2,0-0.3-0.1-0.5-0.1c-0.1-0.1-0.2-0.1-0.2-0.2s-0.1-0.2-0.1-0.3v-7.2h-6.5c-0.1,0-0.2,0-0.3-0.1c-0.1-0.1-0.2-0.1-0.2-0.3
			c-0.1-0.1-0.1-0.3-0.2-0.4c0-0.2-0.1-0.4-0.1-0.6c0-0.2,0-0.4,0.1-0.6c0-0.2,0.1-0.3,0.2-0.4c0.1-0.1,0.1-0.2,0.2-0.3
			c0.1-0.1,0.2-0.1,0.3-0.1h6.5v-7.2c0-0.1,0-0.2,0.1-0.3c0.1-0.1,0.1-0.2,0.2-0.2c0.1-0.1,0.3-0.1,0.5-0.1c0.2,0,0.4,0,0.7,0
			c0.3,0,0.5,0,0.7,0s0.3,0.1,0.4,0.1c0.1,0.1,0.2,0.1,0.2,0.2c0.1,0.1,0.1,0.2,0.1,0.3v7.2h6.5c0.1,0,0.2,0,0.3,0.1
			s0.2,0.1,0.2,0.3c0.1,0.1,0.1,0.3,0.2,0.4C145.8-30.2,145.9-30,145.9-29.7z"/>
		<path d="M161-19c-0.1,0.1-0.1,0.3-0.2,0.4c-0.1,0.1-0.2,0.2-0.4,0.2s-0.4,0.1-0.6,0.1s-0.6,0-1,0c-0.3,0-0.5,0-0.8,0
			c-0.2,0-0.4,0-0.6,0s-0.3-0.1-0.4-0.1c-0.1,0-0.2-0.1-0.3-0.1s-0.1-0.1-0.2-0.2c0-0.1-0.1-0.2-0.1-0.3l-8.4-23.7
			c-0.1-0.3-0.2-0.5-0.2-0.7s0-0.3,0.2-0.4s0.3-0.2,0.6-0.2c0.3,0,0.6,0,1.1,0c0.4,0,0.7,0,0.9,0c0.2,0,0.4,0.1,0.5,0.1
			c0.1,0.1,0.2,0.1,0.3,0.2c0.1,0.1,0.1,0.2,0.2,0.3l7.3,21.5h0l7.1-21.5c0-0.1,0.1-0.3,0.1-0.4c0.1-0.1,0.1-0.2,0.3-0.2
			c0.1-0.1,0.3-0.1,0.6-0.1s0.6,0,0.9,0c0.4,0,0.7,0,1,0c0.2,0,0.4,0.1,0.5,0.2c0.1,0.1,0.1,0.2,0.1,0.4c0,0.2-0.1,0.4-0.2,0.7
			L161-19z"/>
	</g>
	<g class="st9">
		<path d="M214.3-19.8c0,0.2,0,0.4,0,0.6s-0.1,0.3-0.1,0.4c-0.1,0.1-0.1,0.2-0.2,0.3s-0.2,0.1-0.3,0.1h-12.3c-0.3,0-0.6-0.1-0.9-0.3
			c-0.3-0.2-0.4-0.6-0.4-1.1v-22.8c0-0.5,0.1-0.9,0.4-1.1c0.3-0.2,0.6-0.3,0.9-0.3h12.1c0.1,0,0.2,0,0.3,0.1
			c0.1,0.1,0.2,0.1,0.2,0.3c0.1,0.1,0.1,0.3,0.1,0.4c0,0.2,0,0.4,0,0.7c0,0.2,0,0.4,0,0.6c0,0.2-0.1,0.3-0.1,0.4
			c-0.1,0.1-0.1,0.2-0.2,0.2c-0.1,0.1-0.2,0.1-0.3,0.1h-10v8h8.6c0.1,0,0.2,0,0.3,0.1c0.1,0.1,0.2,0.1,0.2,0.2
			c0.1,0.1,0.1,0.2,0.1,0.4s0,0.4,0,0.7c0,0.2,0,0.4,0,0.6c0,0.2-0.1,0.3-0.1,0.4c-0.1,0.1-0.1,0.2-0.2,0.2c-0.1,0-0.2,0.1-0.3,0.1
			h-8.6v9.1h10.1c0.1,0,0.2,0,0.3,0.1s0.2,0.1,0.2,0.2c0.1,0.1,0.1,0.3,0.1,0.4S214.3-20,214.3-19.8z"/>
		<path d="M234.8-18.9c0,0.1,0,0.2-0.1,0.3c-0.1,0.1-0.1,0.1-0.3,0.2c-0.1,0.1-0.3,0.1-0.5,0.1c-0.2,0-0.5,0-0.8,0
			c-0.3,0-0.6,0-0.8,0c-0.2,0-0.4-0.1-0.5-0.1c-0.1-0.1-0.2-0.1-0.3-0.2c-0.1-0.1-0.1-0.2-0.1-0.3v-10.4c0-1-0.1-1.8-0.2-2.5
			s-0.4-1.2-0.7-1.6c-0.3-0.4-0.7-0.8-1.2-1c-0.5-0.2-1-0.4-1.7-0.4c-0.8,0-1.6,0.3-2.5,0.9c-0.8,0.6-1.7,1.4-2.6,2.5v12.4
			c0,0.1,0,0.2-0.1,0.3c-0.1,0.1-0.1,0.1-0.3,0.2c-0.1,0.1-0.3,0.1-0.5,0.1s-0.5,0-0.8,0c-0.3,0-0.6,0-0.8,0s-0.4-0.1-0.5-0.1
			c-0.1-0.1-0.2-0.1-0.3-0.2c0-0.1-0.1-0.2-0.1-0.3v-17.8c0-0.1,0-0.2,0.1-0.3c0-0.1,0.1-0.1,0.2-0.2s0.3-0.1,0.5-0.1
			c0.2,0,0.4,0,0.7,0c0.3,0,0.5,0,0.7,0c0.2,0,0.3,0.1,0.4,0.1c0.1,0.1,0.2,0.1,0.2,0.2c0,0.1,0.1,0.2,0.1,0.3v2.4
			c1-1.1,2-1.9,3-2.5s2-0.8,3-0.8c1.2,0,2.2,0.2,3,0.6c0.8,0.4,1.5,0.9,2,1.6c0.5,0.7,0.9,1.5,1.1,2.4c0.2,0.9,0.3,2,0.3,3.2V-18.9z
			"/>
		<path d="M254.1-18.8c0,0.2-0.1,0.3-0.2,0.4s-0.2,0.1-0.4,0.2c-0.2,0-0.5,0.1-0.8,0.1c-0.3,0-0.6,0-0.8-0.1c-0.2,0-0.4-0.1-0.4-0.2
			c-0.1-0.1-0.1-0.2-0.1-0.4v-1.8c-0.8,0.8-1.6,1.5-2.6,1.9s-2,0.7-3,0.7c-0.9,0-1.8-0.1-2.5-0.4c-0.8-0.2-1.4-0.6-1.9-1.1
			s-0.9-1-1.2-1.7c-0.3-0.7-0.4-1.4-0.4-2.3c0-1,0.2-1.9,0.6-2.6c0.4-0.7,1-1.3,1.8-1.8s1.7-0.9,2.8-1.1s2.4-0.4,3.7-0.4h2.5v-1.4
			c0-0.7-0.1-1.3-0.2-1.8c-0.1-0.5-0.4-1-0.7-1.3c-0.3-0.3-0.7-0.6-1.3-0.8s-1.1-0.3-1.9-0.3c-0.8,0-1.5,0.1-2.2,0.3
			c-0.6,0.2-1.2,0.4-1.7,0.6c-0.5,0.2-0.9,0.4-1.2,0.6c-0.3,0.2-0.6,0.3-0.7,0.3c-0.1,0-0.2,0-0.3-0.1s-0.1-0.1-0.2-0.2
			c-0.1-0.1-0.1-0.2-0.1-0.4c0-0.2,0-0.3,0-0.5c0-0.3,0-0.6,0.1-0.8c0-0.2,0.2-0.4,0.3-0.5c0.2-0.2,0.5-0.4,0.9-0.6s0.9-0.4,1.5-0.6
			c0.6-0.2,1.2-0.3,1.9-0.5c0.7-0.1,1.3-0.2,2-0.2c1.3,0,2.4,0.1,3.3,0.4c0.9,0.3,1.6,0.7,2.2,1.3c0.6,0.6,1,1.3,1.2,2.1
			c0.2,0.8,0.4,1.8,0.4,2.9V-18.8z M250.9-27h-2.8c-0.9,0-1.7,0.1-2.3,0.2c-0.7,0.2-1.2,0.4-1.6,0.7c-0.4,0.3-0.8,0.7-1,1.1
			s-0.3,0.9-0.3,1.4c0,0.9,0.3,1.7,0.9,2.2s1.4,0.8,2.5,0.8c0.9,0,1.6-0.2,2.4-0.7c0.7-0.4,1.5-1.1,2.3-2V-27z"/>
		<path d="M276.5-28c0,1.5-0.2,2.9-0.5,4.2s-0.8,2.3-1.5,3.2c-0.7,0.9-1.5,1.5-2.4,2s-2,0.7-3.3,0.7c-0.6,0-1.1-0.1-1.6-0.2
			c-0.5-0.1-1-0.3-1.4-0.5c-0.5-0.2-0.9-0.6-1.4-0.9c-0.5-0.4-0.9-0.8-1.5-1.4v2.2c0,0.1,0,0.2-0.1,0.3c-0.1,0.1-0.1,0.1-0.3,0.2
			c-0.1,0-0.3,0.1-0.4,0.1s-0.4,0-0.7,0c-0.3,0-0.5,0-0.7,0s-0.3-0.1-0.5-0.1s-0.2-0.1-0.2-0.2c0-0.1-0.1-0.2-0.1-0.3v-26.4
			c0-0.1,0-0.2,0.1-0.3s0.1-0.1,0.3-0.2s0.3-0.1,0.5-0.1s0.5,0,0.8,0c0.3,0,0.6,0,0.8,0s0.4,0.1,0.5,0.1c0.1,0.1,0.2,0.1,0.3,0.2
			s0.1,0.2,0.1,0.3v10.6c0.5-0.5,1-1,1.5-1.4c0.5-0.4,1-0.7,1.5-0.9c0.5-0.2,0.9-0.4,1.4-0.5c0.5-0.1,1-0.2,1.5-0.2
			c1.3,0,2.4,0.3,3.3,0.8c0.9,0.5,1.7,1.2,2.2,2.1c0.6,0.9,1,1.9,1.3,3S276.5-29.3,276.5-28z M273.1-27.6c0-0.9-0.1-1.8-0.2-2.6
			c-0.1-0.9-0.4-1.6-0.7-2.3c-0.3-0.7-0.8-1.2-1.4-1.6c-0.6-0.4-1.3-0.6-2.1-0.6c-0.4,0-0.8,0.1-1.3,0.2s-0.8,0.3-1.3,0.6
			c-0.4,0.3-0.9,0.6-1.3,1.1c-0.5,0.4-0.9,1-1.5,1.6v7.1c0.9,1.1,1.8,1.9,2.6,2.5c0.8,0.6,1.7,0.9,2.6,0.9c0.8,0,1.5-0.2,2.1-0.6
			c0.6-0.4,1.1-0.9,1.4-1.6s0.6-1.4,0.8-2.2C273-26,273.1-26.8,273.1-27.6z"/>
		<path d="M284.6-18.9c0,0.1,0,0.2-0.1,0.3c-0.1,0.1-0.1,0.1-0.3,0.2c-0.1,0.1-0.3,0.1-0.5,0.1s-0.5,0-0.8,0c-0.3,0-0.6,0-0.8,0
			s-0.4-0.1-0.5-0.1c-0.1-0.1-0.2-0.1-0.3-0.2c0-0.1-0.1-0.2-0.1-0.3v-26.4c0-0.1,0-0.2,0.1-0.3s0.1-0.1,0.3-0.2s0.3-0.1,0.5-0.1
			s0.5,0,0.8,0c0.3,0,0.6,0,0.8,0s0.4,0.1,0.5,0.1c0.1,0.1,0.2,0.1,0.3,0.2s0.1,0.2,0.1,0.3V-18.9z"/>
		<path d="M305.8-28.5c0,0.5-0.1,0.9-0.4,1.1c-0.3,0.2-0.6,0.3-0.9,0.3h-11.7c0,1,0.1,1.9,0.3,2.7c0.2,0.8,0.5,1.5,1,2
			c0.5,0.6,1.1,1,1.8,1.3s1.6,0.5,2.7,0.5c0.8,0,1.6-0.1,2.3-0.2c0.7-0.1,1.2-0.3,1.7-0.5c0.5-0.2,0.9-0.3,1.2-0.5s0.5-0.2,0.7-0.2
			c0.1,0,0.2,0,0.2,0.1c0.1,0,0.1,0.1,0.2,0.2c0,0.1,0.1,0.2,0.1,0.4c0,0.2,0,0.4,0,0.6c0,0.2,0,0.3,0,0.4c0,0.1,0,0.2,0,0.3
			c0,0.1-0.1,0.2-0.1,0.3c0,0.1-0.1,0.2-0.2,0.2c-0.1,0.1-0.3,0.2-0.6,0.4c-0.4,0.2-0.8,0.3-1.4,0.5s-1.2,0.3-2,0.4
			s-1.5,0.2-2.4,0.2c-1.5,0-2.7-0.2-3.8-0.6c-1.1-0.4-2-1-2.8-1.8s-1.3-1.8-1.7-3c-0.4-1.2-0.6-2.6-0.6-4.2c0-1.5,0.2-2.9,0.6-4.1
			c0.4-1.2,1-2.3,1.7-3.1c0.7-0.8,1.6-1.5,2.7-2s2.2-0.7,3.5-0.7c1.4,0,2.6,0.2,3.6,0.7c1,0.4,1.8,1.1,2.4,1.8
			c0.6,0.8,1.1,1.6,1.4,2.7c0.3,1,0.4,2.1,0.4,3.3V-28.5z M302.5-29.5c0-1.7-0.3-3.1-1.1-4c-0.8-1-2-1.5-3.6-1.5
			c-0.8,0-1.5,0.2-2.1,0.5c-0.6,0.3-1.1,0.7-1.5,1.2c-0.4,0.5-0.7,1.1-1,1.7s-0.4,1.4-0.4,2.1H302.5z"/>
	</g>
	<g class="st9">
		<path class="st0" d="M38.6-744.5c0.1,0,0.2,0,0.3,0.1c0.1,0.1,0.2,0.2,0.3,0.3c0.1,0.2,0.1,0.4,0.2,0.6s0.1,0.6,0.1,1.1
			c0,0.6,0,1-0.1,1.4s-0.1,0.6-0.3,0.8c-0.1,0.2-0.3,0.3-0.4,0.4l-15.6,11.4h15.6c0.1,0,0.2,0,0.3,0.1c0.1,0.1,0.2,0.2,0.2,0.3
			c0.1,0.2,0.1,0.4,0.1,0.6s0.1,0.6,0.1,1c0,0.4,0,0.7-0.1,1s-0.1,0.5-0.1,0.6c-0.1,0.2-0.1,0.3-0.2,0.3c-0.1,0.1-0.2,0.1-0.3,0.1
			H8.8c-0.1,0-0.2,0-0.3-0.1c-0.1-0.1-0.2-0.2-0.2-0.3c-0.1-0.2-0.1-0.4-0.1-0.6s-0.1-0.6-0.1-1c0-0.4,0-0.7,0.1-1s0.1-0.5,0.1-0.6
			c0.1-0.2,0.1-0.3,0.2-0.3s0.2-0.1,0.3-0.1h13.8l-13.8-11c-0.1-0.1-0.3-0.2-0.4-0.3s-0.2-0.3-0.2-0.5c-0.1-0.2-0.1-0.4-0.1-0.7
			c0-0.3,0-0.6,0-1s0-0.8,0.1-1c0-0.3,0.1-0.5,0.2-0.6c0.1-0.2,0.1-0.3,0.2-0.3c0.1-0.1,0.2-0.1,0.3-0.1c0.2,0,0.4,0.1,0.6,0.2
			c0.2,0.1,0.5,0.3,0.9,0.6l12.3,10.3l14.8-11.1c0.4-0.3,0.7-0.4,0.9-0.5C38.4-744.4,38.5-744.5,38.6-744.5z"/>
		<path class="st0" d="M27.2-759.7h11.5c0.1,0,0.2,0,0.3,0.1c0.1,0.1,0.2,0.2,0.2,0.3c0.1,0.2,0.1,0.4,0.1,0.6c0,0.3,0.1,0.6,0.1,1
			c0,0.4,0,0.7-0.1,1s-0.1,0.5-0.1,0.6c-0.1,0.2-0.1,0.3-0.2,0.3c-0.1,0.1-0.2,0.1-0.3,0.1H27.2l-17.6,8.8c-0.4,0.2-0.7,0.3-0.9,0.3
			s-0.4,0-0.5-0.1c-0.1-0.1-0.2-0.3-0.2-0.6c0-0.3,0-0.7,0-1.3c0-0.5,0-0.9,0-1.2c0-0.3,0.1-0.5,0.1-0.7c0.1-0.2,0.1-0.3,0.2-0.4
			c0.1-0.1,0.2-0.2,0.4-0.3l8.9-4.3c0.9-0.4,1.7-0.8,2.7-1.2c0.9-0.4,1.9-0.8,2.8-1.2v0c-0.9-0.4-1.8-0.7-2.7-1.1
			c-0.9-0.4-1.8-0.8-2.7-1.2l-9-4.3c-0.2,0-0.3-0.1-0.4-0.2c-0.1-0.1-0.2-0.2-0.3-0.4c-0.1-0.2-0.1-0.4-0.1-0.6c0-0.3,0-0.6,0-1
			c0-0.6,0-1,0.1-1.4c0-0.3,0.1-0.6,0.2-0.7c0.1-0.1,0.3-0.2,0.5-0.1c0.2,0,0.5,0.1,0.8,0.3L27.2-759.7z"/>
		<path class="st0" d="M27.2-780.2c0.6,0,1.1,0.1,1.3,0.2c0.2,0.1,0.4,0.4,0.4,0.6v10.1c0,0.3-0.1,0.5-0.4,0.6
			c-0.2,0.1-0.7,0.2-1.3,0.2s-1-0.1-1.3-0.2c-0.2-0.1-0.4-0.4-0.4-0.6v-10.1c0-0.1,0-0.2,0.1-0.3c0-0.1,0.1-0.2,0.3-0.3
			c0.1-0.1,0.3-0.1,0.5-0.2C26.6-780.2,26.9-780.2,27.2-780.2z"/>
		<path class="st0" d="M23.7-805.1c2.4,0,4.6,0.2,6.5,0.6c2,0.4,3.7,1,5.1,1.9s2.5,2,3.3,3.4c0.8,1.4,1.2,3.2,1.2,5.2
			c0,2-0.3,3.6-1,4.9c-0.7,1.3-1.7,2.4-3.1,3.2c-1.4,0.8-3,1.4-5,1.7c-2,0.3-4.3,0.5-6.8,0.5c-2.4,0-4.5-0.2-6.5-0.6s-3.7-1-5.1-1.9
			c-1.4-0.9-2.5-2-3.3-3.4c-0.8-1.4-1.2-3.1-1.2-5.2c0-2,0.3-3.6,1-5c0.7-1.3,1.7-2.4,3.1-3.2c1.4-0.8,3-1.4,5-1.7
			C18.8-805,21.1-805.1,23.7-805.1z M24-800.9c-1.6,0-2.9,0.1-4.2,0.2c-1.2,0.1-2.3,0.3-3.3,0.5c-0.9,0.2-1.8,0.5-2.4,0.8
			c-0.7,0.3-1.2,0.8-1.7,1.2c-0.4,0.5-0.8,1-1,1.6c-0.2,0.6-0.3,1.3-0.3,2.1c0,1.4,0.3,2.5,1,3.3c0.6,0.9,1.5,1.5,2.6,2
			c1.1,0.5,2.4,0.8,3.9,1c1.5,0.2,3.1,0.3,4.9,0.3c2.3,0,4.3-0.1,5.9-0.4s3-0.6,4-1.1c1-0.5,1.8-1.2,2.2-2c0.5-0.8,0.7-1.8,0.7-2.9
			c0-0.9-0.1-1.7-0.4-2.4c-0.3-0.7-0.7-1.3-1.2-1.8c-0.5-0.5-1.2-0.9-1.9-1.2c-0.8-0.3-1.6-0.6-2.5-0.8c-0.9-0.2-1.9-0.3-3-0.4
			C26.2-800.9,25.1-800.9,24-800.9z"/>
		<path class="st0" d="M30.4-828.8c1.4,0,2.7,0.2,3.9,0.7c1.1,0.5,2.1,1.2,2.9,2.1s1.4,2.1,1.9,3.4c0.4,1.4,0.7,2.9,0.7,4.6
			c0,1-0.1,2-0.3,2.9c-0.2,0.9-0.4,1.7-0.6,2.4c-0.2,0.7-0.5,1.3-0.7,1.8c-0.2,0.5-0.4,0.8-0.5,0.9c-0.1,0.1-0.2,0.2-0.3,0.3
			c-0.1,0.1-0.2,0.1-0.4,0.2s-0.4,0.1-0.6,0.1c-0.2,0-0.5,0-0.9,0c-0.6,0-1-0.1-1.2-0.2s-0.3-0.3-0.3-0.5c0-0.1,0.1-0.4,0.4-0.9
			c0.3-0.4,0.5-1,0.8-1.7c0.3-0.7,0.6-1.5,0.8-2.4c0.3-0.9,0.4-1.9,0.4-3c0-1.1-0.1-2-0.4-2.9c-0.3-0.8-0.7-1.5-1.2-2.1
			c-0.5-0.6-1.1-1-1.8-1.3s-1.4-0.4-2.2-0.4c-0.9,0-1.7,0.2-2.4,0.5c-0.7,0.4-1.3,0.9-1.8,1.6c-0.5,0.7-0.9,1.5-1.2,2.5
			c-0.3,1-0.4,2.1-0.4,3.4v3.1c0,0.1,0,0.3-0.1,0.4c-0.1,0.1-0.1,0.2-0.3,0.3c-0.1,0.1-0.3,0.2-0.5,0.2c-0.2,0.1-0.5,0.1-0.8,0.1
			c-0.3,0-0.6,0-0.8-0.1c-0.2,0-0.4-0.1-0.5-0.2s-0.2-0.2-0.3-0.3c-0.1-0.1-0.1-0.2-0.1-0.4v-2.7c0-1.1-0.1-2-0.4-2.8
			c-0.3-0.8-0.7-1.6-1.2-2.1c-0.5-0.6-1.1-1-1.8-1.3c-0.7-0.3-1.5-0.5-2.4-0.5c-0.6,0-1.3,0.1-1.8,0.3c-0.6,0.2-1.1,0.5-1.5,0.9
			c-0.4,0.4-0.8,1-1,1.6c-0.2,0.6-0.4,1.4-0.4,2.2c0,0.9,0.1,1.8,0.4,2.6c0.3,0.8,0.6,1.5,0.9,2.1s0.6,1.1,0.9,1.5
			c0.3,0.4,0.4,0.7,0.4,0.8c0,0.1,0,0.2-0.1,0.3c0,0.1-0.1,0.2-0.2,0.2c-0.1,0.1-0.3,0.1-0.5,0.1c-0.2,0-0.5,0-0.9,0
			c-0.2,0-0.5,0-0.6,0c-0.2,0-0.3,0-0.5-0.1s-0.3-0.1-0.4-0.2s-0.2-0.2-0.4-0.3c-0.2-0.2-0.4-0.5-0.7-0.9c-0.3-0.5-0.6-1-0.9-1.7
			c-0.3-0.7-0.5-1.5-0.7-2.4s-0.3-1.8-0.3-2.9c0-1.4,0.2-2.7,0.6-3.8c0.4-1.1,0.9-2,1.6-2.7c0.7-0.7,1.5-1.3,2.4-1.6
			c0.9-0.4,2-0.5,3.1-0.5c1,0,1.9,0.1,2.7,0.4c0.8,0.3,1.6,0.6,2.2,1.1s1.2,1.1,1.7,1.8s0.8,1.6,1,2.5h0c0.1-1.1,0.4-2.1,0.8-2.9
			s1-1.7,1.6-2.3c0.6-0.6,1.4-1.1,2.2-1.5C28.5-828.6,29.4-828.8,30.4-828.8z"/>
		<path class="st0" d="M37.5-854c0.3,0,0.5,0,0.8,0.1s0.4,0.1,0.6,0.2c0.2,0.1,0.3,0.2,0.3,0.3s0.1,0.3,0.1,0.4v17.2
			c0,0.2,0,0.4-0.1,0.6c-0.1,0.2-0.1,0.3-0.3,0.4c-0.1,0.1-0.3,0.2-0.6,0.3c-0.2,0.1-0.5,0.1-0.9,0.1c-0.3,0-0.6,0-0.8,0
			c-0.2,0-0.5-0.1-0.6-0.2s-0.4-0.2-0.6-0.3c-0.2-0.1-0.4-0.3-0.6-0.5l-6.4-6.2c-1.5-1.4-2.8-2.6-4-3.5c-1.2-0.9-2.2-1.5-3.2-2
			s-1.8-0.8-2.6-0.9c-0.8-0.1-1.5-0.2-2.2-0.2s-1.3,0.1-2,0.3s-1.2,0.6-1.6,1s-0.8,1-1.1,1.7c-0.3,0.7-0.4,1.4-0.4,2.3
			c0,1,0.1,1.9,0.4,2.7c0.3,0.8,0.6,1.5,0.9,2.1c0.3,0.6,0.6,1.1,0.9,1.5c0.3,0.4,0.4,0.7,0.4,0.9c0,0.1,0,0.2-0.1,0.3
			c-0.1,0.1-0.2,0.2-0.3,0.2c-0.1,0.1-0.3,0.1-0.6,0.1c-0.2,0-0.5,0-0.9,0c-0.2,0-0.4,0-0.6,0c-0.2,0-0.3,0-0.5-0.1
			s-0.2-0.1-0.4-0.2c-0.1-0.1-0.3-0.2-0.4-0.4c-0.2-0.2-0.4-0.5-0.7-1c-0.3-0.5-0.6-1.1-0.9-1.8c-0.3-0.7-0.5-1.5-0.7-2.4
			s-0.3-1.8-0.3-2.7c0-1.5,0.2-2.8,0.6-4s1-2.1,1.7-2.8c0.7-0.7,1.6-1.3,2.6-1.7c1-0.4,2-0.6,3.1-0.6c1,0,2,0.1,3,0.3
			c1,0.2,2.1,0.5,3.2,1.1c1.1,0.6,2.4,1.4,3.8,2.5c1.4,1.1,3,2.5,4.8,4.3l5.1,4.9v-13.5c0-0.1,0-0.3,0.1-0.4s0.2-0.2,0.3-0.3
			s0.3-0.2,0.5-0.2C37-854,37.2-854,37.5-854z"/>
	</g>
	<g class="st9">
		<path class="st0" d="M42.9-180c0.2,0,0.4,0,0.6,0c0.2,0,0.3,0.1,0.4,0.1s0.2,0.1,0.2,0.2s0.1,0.1,0.1,0.2c0,0.1-0.1,0.4-0.3,0.7
			s-0.4,0.7-0.7,1.3s-0.5,1.2-0.7,1.9c-0.2,0.7-0.3,1.6-0.3,2.6c0,1.2,0.2,2.3,0.7,3.2s1,1.8,1.8,2.4s1.7,1.2,2.8,1.5
			c1.1,0.4,2.2,0.5,3.5,0.5c1.4,0,2.6-0.2,3.7-0.6c1.1-0.4,2-0.9,2.7-1.6c0.7-0.7,1.3-1.5,1.7-2.5c0.4-1,0.6-2,0.6-3.1
			c0-0.7-0.1-1.4-0.2-2c-0.2-0.7-0.4-1.3-0.7-1.9h-6.4v5.1c0,0.2-0.1,0.3-0.3,0.4c-0.2,0.1-0.5,0.1-0.9,0.1c-0.2,0-0.4,0-0.5,0
			c-0.2,0-0.3-0.1-0.4-0.1c-0.1-0.1-0.2-0.1-0.2-0.2s-0.1-0.2-0.1-0.3v-6.9c0-0.1,0-0.2,0.1-0.4c0-0.1,0.1-0.2,0.2-0.3
			c0.1-0.1,0.2-0.2,0.4-0.2c0.2-0.1,0.3-0.1,0.5-0.1h8.3c0.3,0,0.5,0.1,0.8,0.2c0.2,0.1,0.4,0.3,0.6,0.6c0.2,0.3,0.3,0.7,0.5,1.3
			c0.2,0.5,0.4,1.1,0.5,1.6c0.1,0.6,0.2,1.1,0.3,1.7c0.1,0.6,0.1,1.1,0.1,1.7c0,1.7-0.3,3.2-0.8,4.5c-0.5,1.3-1.3,2.4-2.2,3.4
			s-2.1,1.6-3.5,2.1s-2.9,0.7-4.5,0.7c-1.7,0-3.3-0.3-4.7-0.8c-1.4-0.5-2.6-1.3-3.6-2.2c-1-0.9-1.8-2.1-2.3-3.4
			c-0.5-1.3-0.8-2.8-0.8-4.4c0-0.8,0.1-1.6,0.2-2.3c0.1-0.7,0.3-1.4,0.5-1.9c0.2-0.6,0.4-1,0.6-1.4c0.2-0.4,0.4-0.7,0.6-0.8
			c0.1-0.1,0.3-0.2,0.5-0.3C42.3-180,42.5-180,42.9-180z"/>
		<path class="st0" d="M60.6-201.9c0.2,0,0.4,0,0.6,0.1c0.2,0.1,0.3,0.2,0.4,0.3c0.1,0.1,0.2,0.3,0.2,0.4s0.1,0.3,0.1,0.5v1
			c0,0.3,0,0.6-0.1,0.8s-0.2,0.4-0.3,0.6s-0.4,0.4-0.7,0.6c-0.3,0.2-0.6,0.4-1.1,0.6l-12.4,6.7c-0.6,0.3-1.3,0.7-2,1.1
			c-0.7,0.4-1.4,0.7-2,1v0c0.8,0,1.6,0,2.5,0c0.8,0,1.7,0,2.5,0h13.2c0.1,0,0.2,0,0.2,0.1c0.1,0,0.1,0.1,0.2,0.2s0.1,0.3,0.1,0.4
			c0,0.2,0,0.4,0,0.7s0,0.5,0,0.7c0,0.2-0.1,0.3-0.1,0.4c0,0.1-0.1,0.2-0.2,0.2c-0.1,0-0.1,0.1-0.2,0.1H41.2c-0.4,0-0.8-0.1-1-0.4
			c-0.2-0.3-0.3-0.5-0.3-0.8v-1.4c0-0.3,0-0.6,0.1-0.8c0.1-0.2,0.1-0.4,0.3-0.6c0.1-0.2,0.3-0.4,0.5-0.5s0.5-0.3,0.9-0.5l9.6-5.1
			c0.6-0.3,1.2-0.6,1.7-0.9c0.6-0.3,1.1-0.6,1.6-0.8s1.1-0.5,1.6-0.8c0.5-0.3,1-0.5,1.6-0.8v0c-0.9,0-1.8,0-2.8,0c-1,0-1.9,0-2.8,0
			H40.4c-0.1,0-0.2,0-0.2-0.1s-0.1-0.1-0.2-0.2c0-0.1-0.1-0.3-0.1-0.4s0-0.4,0-0.7c0-0.3,0-0.5,0-0.7s0.1-0.3,0.1-0.4
			c0.1-0.1,0.1-0.2,0.2-0.2c0.1,0,0.1-0.1,0.2-0.1H60.6z"/>
		<path class="st0" d="M50.5-224.5c1.9,0,3.5,0.2,4.9,0.7c1.4,0.5,2.6,1.2,3.5,2.1c0.9,0.9,1.6,2.1,2.1,3.4c0.5,1.3,0.7,3,0.7,4.8
			v4.6c0,0.3-0.1,0.5-0.3,0.7c-0.2,0.2-0.5,0.3-0.9,0.3H41.1c-0.4,0-0.7-0.1-0.9-0.3c-0.2-0.2-0.3-0.5-0.3-0.7v-4.9
			c0-1.9,0.2-3.5,0.7-4.8c0.5-1.3,1.2-2.4,2.1-3.3c0.9-0.9,2-1.6,3.3-2S48.9-224.5,50.5-224.5z M50.6-221.4c-1.2,0-2.3,0.1-3.3,0.4
			c-1,0.3-1.9,0.8-2.6,1.4c-0.7,0.6-1.3,1.4-1.7,2.4c-0.4,1-0.6,2.2-0.6,3.7v2.9h17v-3c0-1.4-0.2-2.6-0.5-3.5
			c-0.3-1-0.9-1.8-1.6-2.4c-0.7-0.6-1.6-1.1-2.7-1.4C53.4-221.3,52.1-221.4,50.6-221.4z"/>
	</g>
	<g class="st9">
		<path class="st0" d="M158.6-242.5c0,0.3,0,0.6-0.1,0.8s-0.1,0.4-0.2,0.5c-0.1,0.1-0.2,0.2-0.3,0.3c-0.1,0.1-0.2,0.1-0.4,0.1h-7.9
			v8.8c0,0.1,0,0.2-0.1,0.3c-0.1,0.1-0.2,0.2-0.3,0.2c-0.1,0.1-0.3,0.1-0.5,0.2s-0.5,0.1-0.8,0.1c-0.3,0-0.6,0-0.8-0.1
			c-0.2,0-0.4-0.1-0.6-0.2c-0.1-0.1-0.2-0.1-0.3-0.2c-0.1-0.1-0.1-0.2-0.1-0.3v-8.8h-7.9c-0.1,0-0.3,0-0.4-0.1
			c-0.1-0.1-0.2-0.2-0.3-0.3c-0.1-0.1-0.1-0.3-0.2-0.5c0-0.2-0.1-0.5-0.1-0.8c0-0.3,0-0.5,0.1-0.8c0-0.2,0.1-0.4,0.2-0.5
			c0.1-0.1,0.2-0.2,0.3-0.3c0.1-0.1,0.2-0.1,0.3-0.1h7.9v-8.8c0-0.1,0-0.2,0.1-0.3c0.1-0.1,0.2-0.2,0.3-0.3c0.1-0.1,0.3-0.1,0.6-0.2
			c0.2,0,0.5-0.1,0.8-0.1c0.3,0,0.6,0,0.8,0.1s0.4,0.1,0.5,0.2c0.1,0.1,0.2,0.2,0.3,0.3c0.1,0.1,0.1,0.2,0.1,0.3v8.8h7.9
			c0.1,0,0.2,0,0.3,0.1c0.1,0.1,0.2,0.2,0.3,0.3s0.2,0.3,0.2,0.5S158.6-242.8,158.6-242.5z"/>
	</g>
	<g class="st9">
		<path class="st0" d="M193.8-238.4c0,1.3-0.1,2.4-0.4,3.4c-0.3,1-0.7,1.9-1.3,2.6c-0.6,0.7-1.3,1.3-2.2,1.7
			c-0.9,0.4-1.9,0.6-3.1,0.6c-1.2,0-2.2-0.2-3.1-0.5c-0.9-0.4-1.6-0.9-2.1-1.5c-0.6-0.7-1-1.5-1.3-2.5c-0.3-1-0.4-2.1-0.4-3.4
			c0-1.2,0.1-2.4,0.4-3.4c0.3-1,0.7-1.9,1.3-2.6c0.6-0.7,1.3-1.3,2.2-1.6c0.9-0.4,1.9-0.6,3.1-0.6c1.2,0,2.2,0.2,3,0.5
			c0.9,0.3,1.6,0.9,2.1,1.5c0.6,0.7,1,1.5,1.3,2.5S193.8-239.7,193.8-238.4z M191.5-238.3c0-0.9-0.1-1.7-0.2-2.5
			c-0.2-0.8-0.4-1.4-0.8-2c-0.4-0.6-0.9-1-1.5-1.3s-1.4-0.5-2.3-0.5s-1.7,0.2-2.3,0.5c-0.6,0.3-1.1,0.8-1.5,1.4s-0.7,1.2-0.8,2
			c-0.2,0.8-0.2,1.6-0.2,2.4c0,0.9,0.1,1.8,0.2,2.5c0.2,0.8,0.4,1.4,0.8,2c0.4,0.6,0.9,1,1.5,1.3s1.4,0.5,2.3,0.5
			c0.9,0,1.7-0.2,2.3-0.5c0.6-0.3,1.1-0.8,1.5-1.4c0.4-0.6,0.7-1.2,0.8-2C191.5-236.6,191.5-237.4,191.5-238.3z"/>
		<path class="st0" d="M208.9-236.2c0,1-0.1,1.8-0.4,2.6s-0.7,1.4-1.2,1.9c-0.5,0.5-1.1,0.9-1.9,1.2c-0.7,0.3-1.6,0.4-2.5,0.4
			c-0.9,0-1.7-0.1-2.4-0.4c-0.7-0.3-1.3-0.6-1.8-1.1c-0.5-0.5-0.9-1.1-1.2-1.8c-0.3-0.7-0.4-1.6-0.4-2.5v-9.8c0-0.1,0-0.1,0-0.2
			c0,0,0.1-0.1,0.2-0.1c0.1,0,0.2-0.1,0.3-0.1c0.1,0,0.3,0,0.5,0c0.2,0,0.4,0,0.5,0s0.2,0,0.3,0.1c0.1,0,0.1,0.1,0.2,0.1
			c0,0,0,0.1,0,0.2v9.5c0,0.7,0.1,1.4,0.3,1.9c0.2,0.5,0.4,1,0.8,1.4s0.7,0.6,1.2,0.8c0.5,0.2,1,0.3,1.6,0.3c0.6,0,1.1-0.1,1.6-0.3
			c0.5-0.2,0.9-0.4,1.2-0.8c0.3-0.4,0.6-0.8,0.8-1.3c0.2-0.5,0.3-1.1,0.3-1.8v-9.6c0-0.1,0-0.1,0-0.2c0,0,0.1-0.1,0.2-0.1
			c0.1,0,0.2-0.1,0.3-0.1s0.3,0,0.5,0c0.2,0,0.4,0,0.5,0c0.1,0,0.2,0,0.3,0.1c0.1,0,0.1,0.1,0.2,0.1c0,0,0.1,0.1,0.1,0.2V-236.2z"/>
		<path class="st0" d="M222.9-245.2c0,0.2,0,0.3,0,0.4c0,0.1,0,0.2-0.1,0.3c0,0.1-0.1,0.1-0.1,0.2s-0.1,0-0.2,0H218v13.6
			c0,0.1,0,0.1,0,0.2s-0.1,0.1-0.2,0.1s-0.2,0.1-0.3,0.1c-0.1,0-0.3,0-0.5,0c-0.2,0-0.4,0-0.5,0c-0.1,0-0.2,0-0.3-0.1
			s-0.1-0.1-0.2-0.1s0-0.1,0-0.2v-13.6h-4.4c-0.1,0-0.1,0-0.2,0s-0.1-0.1-0.1-0.2c0-0.1-0.1-0.2-0.1-0.3c0-0.1,0-0.2,0-0.4
			c0-0.2,0-0.3,0-0.4c0-0.1,0-0.2,0.1-0.3c0-0.1,0.1-0.1,0.1-0.2s0.1,0,0.2,0h10.9c0.1,0,0.1,0,0.2,0s0.1,0.1,0.1,0.2
			c0,0.1,0.1,0.2,0.1,0.3C222.8-245.5,222.9-245.3,222.9-245.2z"/>
	</g>
	<g class="st9">
		<path class="st0" d="M306.6-188.5c0.2,0,0.4,0,0.5,0c0.2,0,0.3,0.1,0.4,0.1s0.2,0.1,0.2,0.2c0,0.1,0.1,0.2,0.1,0.2v10.6
			c0,0.3-0.1,0.5-0.3,0.7c-0.2,0.2-0.5,0.3-0.9,0.3H287c-0.4,0-0.8-0.1-0.9-0.3c-0.2-0.2-0.3-0.5-0.3-0.7v-10.5c0-0.1,0-0.2,0.1-0.2
			c0-0.1,0.1-0.1,0.2-0.2c0.1,0,0.2-0.1,0.4-0.1s0.3,0,0.6,0c0.2,0,0.4,0,0.5,0s0.3,0.1,0.4,0.1c0.1,0,0.2,0.1,0.2,0.2
			c0,0.1,0.1,0.2,0.1,0.2v8.6h6.9v-7.4c0-0.1,0-0.2,0.1-0.2c0.1-0.1,0.1-0.1,0.2-0.2c0.1-0.1,0.2-0.1,0.4-0.1c0.2,0,0.3,0,0.6,0
			c0.2,0,0.4,0,0.5,0c0.1,0,0.3,0.1,0.4,0.1c0.1,0.1,0.2,0.1,0.2,0.2c0,0.1,0.1,0.2,0.1,0.2v7.4h7.9v-8.8c0-0.1,0-0.2,0.1-0.2
			c0-0.1,0.1-0.1,0.2-0.2s0.2-0.1,0.4-0.1C306.2-188.5,306.4-188.5,306.6-188.5z"/>
		<path class="st0" d="M306.6-210c0.2,0,0.4,0,0.6,0.1c0.2,0.1,0.3,0.2,0.4,0.3c0.1,0.1,0.2,0.3,0.2,0.4c0,0.2,0.1,0.3,0.1,0.5v1
			c0,0.3,0,0.6-0.1,0.8c-0.1,0.2-0.2,0.4-0.3,0.7s-0.4,0.4-0.7,0.6c-0.3,0.2-0.6,0.4-1.1,0.7l-12.6,6.7c-0.6,0.4-1.3,0.7-2,1.1
			c-0.7,0.4-1.4,0.7-2.1,1v0c0.8,0,1.7,0,2.5-0.1c0.9,0,1.7,0,2.5,0h13.3c0.1,0,0.2,0,0.2,0.1c0.1,0,0.1,0.1,0.2,0.2
			c0,0.1,0.1,0.3,0.1,0.5c0,0.2,0,0.4,0,0.7s0,0.5,0,0.7c0,0.2-0.1,0.3-0.1,0.4c0,0.1-0.1,0.2-0.2,0.2c-0.1,0-0.2,0.1-0.2,0.1H287
			c-0.5,0-0.8-0.1-1-0.4c-0.2-0.3-0.3-0.5-0.3-0.8v-1.4c0-0.3,0-0.6,0.1-0.9c0.1-0.2,0.2-0.4,0.3-0.6c0.1-0.2,0.3-0.4,0.5-0.5
			c0.2-0.2,0.5-0.3,0.9-0.5l9.7-5.2c0.6-0.3,1.2-0.6,1.7-0.9c0.6-0.3,1.1-0.6,1.7-0.9c0.5-0.3,1.1-0.5,1.6-0.8s1.1-0.5,1.6-0.8v0
			c-0.9,0-1.8,0-2.8,0c-1,0-1.9,0-2.8,0h-12c-0.1,0-0.2,0-0.2-0.1s-0.1-0.1-0.2-0.2c-0.1-0.1-0.1-0.3-0.1-0.5c0-0.2,0-0.4,0-0.7
			c0-0.3,0-0.5,0-0.7c0-0.2,0.1-0.3,0.1-0.5c0.1-0.1,0.1-0.2,0.2-0.2s0.1-0.1,0.2-0.1H306.6z"/>
	</g>
</g>
</svg>
