<?xml version="1.0" encoding="utf-8"?>
<!-- Generator: Adobe Illustrator 27.8.0, SVG Export Plug-In . SVG Version: 6.00 Build 0)  -->
<svg version="1.1"
	 id="svg8" xmlns:svg="http://www.w3.org/2000/svg" xmlns:rdf="http://www.w3.org/1999/02/22-rdf-syntax-ns#" xmlns:sodipodi="http://sodipodi.sourceforge.net/DTD/sodipodi-0.dtd" xmlns:dc="http://purl.org/dc/elements/1.1/" xmlns:inkscape="http://www.inkscape.org/namespaces/inkscape" xmlns:cc="http://creativecommons.org/ns#" inkscape:export-xdpi="93" inkscape:export-ydpi="93" inkscape:version="0.92.4 (5da689c313, 2019-01-14)"
	 xmlns="http://www.w3.org/2000/svg" xmlns:xlink="http://www.w3.org/1999/xlink" x="0px" y="0px" viewBox="0 0 348 1081"
	 style="enable-background:new 0 0 348 1081;" xml:space="preserve">
<style type="text/css">
	.st0{fill:#FFFFFF;}
	.st1{fill:#1A1A1A;}
	.st2{opacity:0.99;fill:#808080;enable-background:new    ;}
	.st3{fill:#CCCCCC;}
	.st4{fill:#0000FF;}
	.st5{fill:#AB9C38;}
	.st6{fill:#978521;}
	.st7{fill:#333333;}
	.st8{opacity:0.99;enable-background:new    ;}
	.st9{enable-background:new    ;}
</style>
<defs>
	
		<inkscape:perspective  id="perspective876" inkscape:persp3d-origin="105 : 98.999987 : 1" inkscape:vp_x="0 : 148.49997 : 1" inkscape:vp_y="0 : 999.99986 : 0" inkscape:vp_z="210.00001 : 148.49997 : 1" sodipodi:type="inkscape:persp3d">
		</inkscape:perspective>
</defs>
<sodipodi:namedview  bordercolor="#666666" borderopacity="1.0" id="base" inkscape:current-layer="layer1" inkscape:cx="933.05629" inkscape:cy="2893.8397" inkscape:document-units="mm" inkscape:lockguides="false" inkscape:pageopacity="0" inkscape:pageshadow="2" inkscape:window-height="1017" inkscape:window-maximized="1" inkscape:window-width="1920" inkscape:window-x="-8" inkscape:window-y="-8" inkscape:zoom="0.125" pagecolor="#323232" showgrid="false" showguides="true" width="500mm">
	</sodipodi:namedview>
<g id="layer1" transform="translate(0.31582593,1102.811)" inkscape:groupmode="layer" inkscape:label="Ebene 1">
	<path id="rect815" inkscape:connector-curvature="0" d="M270.3-1048.5V-880l-193.2,0.2v-168.3H-0.2v168.4v0.8h0l0.4,696.3
		l347.5-0.4l-0.4-696.3h0.3v-169.3H270.3z"/>
	<rect id="rect821" x="52.2" y="-249.4" class="st0" width="243.4" height="61.7"/>
	<path id="rect825" class="st1" d="M64.8-245.8l36.3,0c6.3,0,11.5,5.1,11.5,11.5l0,31.9c0,6.3-5.1,11.5-11.5,11.5l-36.3,0
		c-6.3,0-11.5-5.1-11.5-11.5l0-31.9C53.3-240.7,58.5-245.8,64.8-245.8z"/>
	<path id="rect872" class="st1" d="M185.8-245.9l36.3,0c6.3,0,11.5,5.1,11.5,11.5l0,31.9c0,6.3-5.1,11.5-11.5,11.5l-36.3,0
		c-6.3,0-11.5-5.1-11.5-11.5l0-31.9C174.4-240.8,179.5-245.9,185.8-245.9z"/>
	<path id="rect874" class="st1" d="M123.8-245.9l39.3,0c5.5,0,10,4.5,10,10l0,34.8c0,5.5-4.5,10-10,10l-39.3,0c-5.5,0-10-4.5-10-10
		l0-34.8C113.9-241.4,118.3-245.8,123.8-245.9z"/>
	<rect id="rect947" x="79.7" y="-216" class="st2" width="6.1" height="115.9"/>
	<rect id="rect949" x="140.5" y="-216" class="st2" width="6.1" height="115.9"/>
	<rect id="rect951" x="200.7" y="-216.1" class="st2" width="6.1" height="115.9"/>
	<g id="flowRoot969" transform="translate(121.05234,20.134989)">
	</g>
	<g id="flowRoot1466" transform="translate(121.05234,20.134989)">
	</g>
	<g id="flowRoot1529" transform="translate(121.05234,20.134989)">
	</g>
	<rect id="rect87" x="49" y="-455.6" width="247.9" height="62.4"/>
	<path id="path31-1" inkscape:connector-curvature="0" class="st0" d="M98.8-742.8c2.2,0,2.4-0.1,2.8-0.3c0.2-0.1,0.6-0.5,0.7-0.7
		c0.2-0.4,0.3-0.7,0.3-5.1l0-4.7l4.6,0l4.6,0l0,5.8c0,6.4,0,7-0.7,8.7c-0.9,2.2-2.2,3.2-4.8,3.8c-0.7,0.2-1.5,0.2-4.2,0.2
		c-1.8,0-3.8-0.1-4.4-0.1l-1.1-0.1l0-3.8l0-3.8L98.8-742.8L98.8-742.8z M142.6-729.8c39.2,0,48.9,0,47.3,0.2l-0.3,0l0.3,0.1
		c0.2,0.1,0.2,0.1-0.2,0.1c-0.3,0-0.2,0.1,0.4,0.1l0.8,0.1l-0.8,0c-0.4,0-0.7,0.1-0.6,0.1c0.2,0,0.2,0.2,0.2,1.1c0,1,0,1,0.3,1.1
		c0.2,0,0.2,0.1-0.2,0.1c-0.3,0-0.5,0.1-0.5,0.1c0,0.1-15.6,0.1-46.4,0.2l-46.4,0l0-1.7l0-1.7L142.6-729.8z M107.2-765.6l4.6,0
		l0,3.8l0,3.8l-4.6,0l-4.6,0l0-3.8l0-3.8L107.2-765.6z M116.6-751.7c0.3-2.1,0.9-4,1.8-5.7c0.3-0.6,0.6-1.1,0.6-1.2
		c0,0,0.3-0.4,0.5-0.7c0.5-0.8,1.6-2.1,1.8-2.3c0.1-0.1,0.2-0.1,0.2-0.2c0-0.2,1.2-1.2,2.1-1.9c1-0.7,1.7-1.1,3.4-1.7
		c2-0.7,3.2-0.9,5.6-0.8c1.7,0.1,2.2,0.1,3.3,0.4c0.7,0.2,1.5,0.5,1.9,0.6c0.3,0.1,0.7,0.3,0.7,0.3c0.1,0,0.6,0.3,1.1,0.6
		c2.2,1.3,5.3,4.7,6.4,7.3c1.8,4,2.1,8,0.7,11.8c-0.6,1.6-1,2.5-1.7,3.6c-0.8,1.3-0.8,1.4-2.7,3.2c-2.2,2.2-3.7,3.1-6.6,3.8
		c-1.5,0.4-4.3,0.6-5.8,0.3c-2-0.3-4.7-1.4-6.3-2.7c-0.9-0.6-2-1.6-2-1.7c0,0-0.3-0.4-0.6-0.7c-1.7-1.7-3.4-5-4-7.8
		C116.6-748.2,116.4-750.9,116.6-751.7L116.6-751.7z M125.4-747.8c0.5,1.7,1.3,3.2,2.7,4.6c1.4,1.3,3.6,1.8,5.5,1.2
		c2.1-0.7,4.2-3.1,4.9-5.8c0.4-1.5,0.4-3.7-0.1-5.2c-0.6-2.1-1.7-3.7-3.2-4.8c-0.7-0.5-1-0.6-1.8-0.8c-1.6-0.3-3.2-0.1-4.3,0.4
		c-1,0.5-2.2,1.9-3,3.3C125.1-752.6,124.8-750.1,125.4-747.8L125.4-747.8z M151.5-765.6c0.1,0,2.2,0,4.6,0l4.5,0l0,4.1
		c0,3.9,0,4.2,0.3,4.9c0.7,1.8,2.8,2.7,4.6,2.1c1-0.3,1.6-0.9,2.1-1.8l0.4-0.8l0-4.3l0-4.3l4.6,0l4.6,0l0,4.9c0,4.5-0.1,4.9-0.3,5.8
		c-0.5,1.9-1.3,3.5-2.4,4.8c-0.3,0.3-0.5,0.6-0.5,0.7c0,0.2-1.2,1.2-2.2,2c-0.9,0.7-2.1,1.3-2.8,1.5c-0.2,0-0.8,0.2-1.4,0.4
		c-1,0.3-1.2,0.3-3.3,0.3c-2.1,0-2.3,0-3.5-0.3c-1.8-0.5-2.5-0.8-3.7-1.6c-1.4-0.9-2.6-2.1-3.5-3.5c-1.4-2-2-3.5-2.2-5.9
		C151.2-758.1,151.3-765.5,151.5-765.6L151.5-765.6z M164.4-742.7l7.6,0l0,3.9l0,3.9l-7.6,0l-7.6,0l0-3.9l0-3.9L164.4-742.7z
		 M177.4-771.6c0.1,0,0.1-0.2,0.1-0.5c0-0.5,0-0.5,0.6-0.6c0.3,0,13.2-0.1,28.5-0.1l28,0l0,1.7l0,1.7l-28.4,0
		c-15.6,0-28.5,0-28.6-0.1c-0.2-0.1-0.2-0.3-0.2-1.1C177.2-771.1,177.3-771.6,177.4-771.6L177.4-771.6z M190.2-752.9l9.6,0l0,3.8
		l0,3.8l-9.6,0l-9.6,0l0-3.8l0-3.8L190.2-752.9z M207.4-765.7l4.6,0l0,3.8l0,3.8l-4.6,0l-4.6,0l0-3.8l0-3.8L207.4-765.7z
		 M207.4-754.2l4.6,0l0,9.8l0,9.8l-4.6,0l-4.6,0l0-9.8l0-9.8L207.4-754.2z M225.9-765.7l9.7,0l0,3.8l0,3.8l-9.7,0l-9.7,0l0-3.8
		l0-3.8L225.9-765.7z M217.8-753.6c0.1,0,2.1-0.1,4.6-0.1l4.5,0l0,4.5c0.1,6.3-0.2,5.9,4.5,6l3,0l0,3.9l0,3.9l-1.1,0.1
		c-1.7,0.2-7,0.2-8.4,0c-2.5-0.4-4.1-1.2-5.1-2.4c-1.1-1.3-1.6-2.7-1.9-4.9C217.7-743.8,217.7-753.5,217.8-753.6L217.8-753.6z
		 M241.1-769.4c0.2-0.8,0.7-1.6,1.2-2.1c2.1-1.8,4.6-2,6.7-0.5c1,0.7,1.2,1,1.6,1.9c0.3,0.7,0.4,0.9,0.4,2c0,1.2,0,1.4-0.4,2.1
		c-0.7,1.5-2.5,2.7-4.2,2.8c-1.6,0.1-2.9-0.4-4.1-1.6C241.1-765.8,240.6-767.8,241.1-769.4L241.1-769.4z M242-766.2
		c0.4,1,1.7,2,3.1,2.3c1.4,0.3,2.4,0.1,3.9-1.1c0.4-0.3,0.6-0.6,0.9-1.2c0.4-0.7,0.4-1,0.4-1.9c0-1,0-1.1-0.4-1.9
		c-0.4-0.7-0.6-0.9-1.2-1.4c-0.4-0.3-1-0.6-1.4-0.7c-2.1-0.7-4.7,0.4-5.5,2.5C241.5-768.8,241.6-767.1,242-766.2z M245.4-771
		c0.9,0,1.9,0.1,2,0.1c0.8,0.3,1.1,1.7,0.6,2.4c-0.1,0.2-0.4,0.4-0.7,0.5l-0.4,0.2l0.4,0.5c0.2,0.3,0.6,0.8,0.8,1.2
		c0.2,0.4,0.4,0.7,0.5,0.8c0.3,0.2,0.1,0.3-0.4,0.3l-0.5,0l-0.8-1.2c-0.8-1.3-1-1.4-1.9-1.4l-0.6,0l0,1.3l0,1.3l-0.4,0l-0.4,0l0-2.9
		l0-2.9L245.4-771z M245.6-768.5c0.9,0,1.2,0,1.4-0.3c0.7-0.5,0.3-1.4-0.7-1.5c-0.4-0.1-1.6,0-1.8,0c0,0,0,0.4,0,0.9l0,0.9
		L245.6-768.5z"/>
	<path id="rect64" class="st1" d="M245.9-245.9l36.3,0c6.3,0,11.5,5.1,11.5,11.5l0,31.9c0,6.3-5.1,11.5-11.5,11.5l-36.3,0
		c-6.3,0-11.5-5.1-11.5-11.5l0-31.9C234.5-240.8,239.6-245.9,245.9-245.9z"/>
	<rect id="rect66" x="260.8" y="-216.1" class="st2" width="6.1" height="115.9"/>
	<circle id="path107" class="st3" cx="173.7" cy="-373.7" r="85"/>
	<circle id="path133" class="st0" cx="173.7" cy="-373.7" r="69.6"/>
	<rect id="rect137" x="-0.2" y="-699.2" class="st0" width="131.4" height="231.9"/>
	<rect id="rect141" x="-0.2" y="-694.4" width="123.7" height="222.6"/>
	<rect id="rect139" x="3.7" y="-695.2" class="st4" width="123.7" height="224.1"/>
	
		<circle id="path144" inkscape:transform-center-x="7.5703852" inkscape:transform-center-y="6.4056526" class="st5" cx="23" cy="-490.4" r="19.3">
	</circle>
	<rect id="rect952" x="3.7" y="-493.4" class="st6" width="38.6" height="6.2"/>
	<rect id="rect956" x="179.1" y="-660.4" class="st0" width="168.5" height="131.4"/>
	<rect id="rect958" x="183" y="-656.5" width="160.8" height="123.7"/>
	<rect id="rect960" x="209.2" y="-648.8" class="st7" width="108.2" height="108.2"/>
	<rect id="rect962" x="209.2" y="-540.6" class="st3" width="19.3" height="30.9"/>
	<rect id="rect964" x="298.1" y="-540.6" class="st3" width="19.3" height="30.9"/>
	<rect id="rect966" x="236.3" y="-540.6" class="st3" width="19.3" height="30.9"/>
	<rect id="rect968" x="271.1" y="-540.6" class="st3" width="19.3" height="30.9"/>
	<rect id="rect970" x="209.2" y="-679.7" class="st3" width="19.3" height="30.9"/>
	<rect id="rect972" x="298.1" y="-679.7" class="st3" width="19.3" height="30.9"/>
	<rect id="rect974" x="236.3" y="-679.7" class="st3" width="19.3" height="30.9"/>
	<rect id="rect976" x="271.1" y="-679.7" class="st3" width="19.3" height="30.9"/>
	<polygon id="rect978" class="st2" points="215.8,-544.5 221.9,-544.5 222,-525.1 215.9,-525.1 	"/>
	<polygon id="rect980" class="st2" points="242.9,-544.5 249,-544.5 249.1,-525.1 243,-525.1 	"/>
	<polygon id="rect982" class="st2" points="277.6,-544.5 283.8,-544.5 283.9,-525.1 277.7,-525.1 	"/>
	<polygon id="rect984" class="st2" points="304.7,-544.5 310.8,-544.5 310.9,-525.1 304.8,-525.1 	"/>
	<polygon id="rect986" class="st2" points="215.8,-644.9 221.9,-644.9 222,-664.3 215.9,-664.3 	"/>
	<polygon id="rect988" class="st2" points="242.9,-644.9 249,-644.9 249.1,-664.2 243,-664.3 	"/>
	<polygon id="rect990" class="st2" points="277.6,-644.9 283.8,-644.9 283.9,-664.2 277.7,-664.3 	"/>
	<polygon id="rect992" class="st2" points="304.7,-644.9 310.8,-644.9 310.9,-664.2 304.8,-664.3 	"/>
	<circle id="path994" class="st3" cx="308.9" cy="-973.4" r="27"/>
	<circle id="circle996" class="st3" cx="38.4" cy="-973.4" r="27"/>
	<path id="rect836-7" class="st3" d="M138.7-869.1h11.6c11.7,0,21.3,9.5,21.3,21.3l0,0c0,11.7-9.5,21.3-21.3,21.3h-11.6
		c-11.7,0-21.3-9.5-21.3-21.3l0,0C117.4-859.5,126.9-869.1,138.7-869.1z"/>
	<path id="rect836-6" class="st3" d="M196.6-869.1h11.6c11.7,0,21.3,9.5,21.3,21.3l0,0c0,11.7-9.5,21.3-21.3,21.3h-11.6
		c-11.7,0-21.3-9.5-21.3-21.3l0,0C175.4-859.5,184.9-869.1,196.6-869.1z"/>
	
		<rect id="rect943" x="242.9" y="-869.1" transform="matrix(1 -8.295600e-03 8.295600e-03 1 6.994 2.1522)" class="st3" width="40.1" height="54.1"/>
	<path id="rect1026" class="st3" d="M68.5-820.7l0-39.6c0-5.1,4.1-9.2,9.2-9.2l21.8,0c5.1,0,9.2,4.1,9.2,9.2l0,39.6
		c0,5.1-4.1,9.2-9.2,9.2l-21.8,0C72.6-811.5,68.5-815.6,68.5-820.7z"/>
	<circle id="path1028" class="st0" cx="88.5" cy="-830.8" r="11.6"/>
	<path id="rect1030" class="st3" d="M65.2-848.5l0.1,11.7c0.1,11.7-9.2,21.3-20.9,21.4l0,0c-11.7,0.1-21.3-9.2-21.4-20.9L22.8-848
		c-0.1-11.7,9.2-21.3,20.9-21.4l0,0C55.5-869.6,65.1-860.2,65.2-848.5z"/>
	<circle id="circle105" class="st0" cx="44.1" cy="-842.4" r="15.5"/>
	<circle id="path138" class="st0" cx="38.4" cy="-973.4" r="23.2"/>
	<circle id="circle140" class="st0" cx="308.9" cy="-973.4" r="23.2"/>
	<polygon id="rect142" class="st2" points="141.2,-1037.7 147.3,-1037.7 147.4,-844.5 141.3,-844.5 	"/>
	<polygon id="rect144" class="st2" points="199.2,-1037.7 205.3,-1037.7 205.4,-844.5 199.3,-844.5 	"/>
	<circle id="circle147" class="st0" cx="263" cy="-842.4" r="15.5"/>
	<path id="path100" inkscape:connector-curvature="0" class="st8" d="M173.3-1101.8c-17,0-31,13.3-32,30.2h-0.1v1.9v36.6h19.3v-7.2
		c4.1,1.8,8.4,2.7,12.8,2.7c4.4,0,8.7-0.9,12.7-2.7v7.2h19.3v-34.7c0.1-0.6,0.1-1.3,0.1-1.9C205.4-1087.4,191-1101.8,173.3-1101.8
		L173.3-1101.8z"/>
	<g class="st9">
		<path d="M127.7-95.2c0,0.2,0,0.5,0,0.7c0,0.2-0.1,0.3-0.1,0.5c-0.1,0.1-0.1,0.2-0.2,0.3s-0.2,0.1-0.3,0.1c-0.2,0-0.4-0.1-0.8-0.4
			c-0.4-0.2-0.9-0.5-1.5-0.8s-1.4-0.6-2.2-0.8s-1.9-0.4-3.1-0.4c-1.4,0-2.7,0.3-3.8,0.8c-1.1,0.5-2.1,1.2-2.8,2.1
			c-0.8,0.9-1.4,2-1.8,3.2s-0.6,2.6-0.6,4.1c0,1.6,0.2,3.1,0.7,4.3c0.5,1.3,1.1,2.3,1.9,3.2s1.8,1.5,2.9,2s2.3,0.7,3.7,0.7
			c0.8,0,1.6-0.1,2.4-0.3c0.8-0.2,1.6-0.5,2.3-0.9v-7.4h-5.9c-0.2,0-0.4-0.1-0.5-0.3c-0.1-0.2-0.2-0.6-0.2-1c0-0.2,0-0.5,0-0.6
			c0-0.2,0.1-0.3,0.1-0.4c0.1-0.1,0.1-0.2,0.2-0.2c0.1-0.1,0.2-0.1,0.3-0.1h8.1c0.1,0,0.3,0,0.4,0.1c0.1,0.1,0.3,0.1,0.4,0.2
			c0.1,0.1,0.2,0.2,0.3,0.4c0.1,0.2,0.1,0.4,0.1,0.6v9.7c0,0.3-0.1,0.6-0.2,0.9s-0.4,0.5-0.7,0.7c-0.4,0.2-0.9,0.4-1.5,0.6
			c-0.6,0.2-1.2,0.4-1.9,0.6c-0.6,0.2-1.3,0.3-1.9,0.4s-1.3,0.1-1.9,0.1c-2,0-3.7-0.3-5.3-0.9s-2.9-1.5-3.9-2.6
			c-1.1-1.1-1.9-2.5-2.5-4.1c-0.6-1.6-0.8-3.3-0.8-5.3c0-2,0.3-3.9,0.9-5.5c0.6-1.6,1.5-3,2.6-4.2s2.4-2.1,4-2.7s3.3-1,5.2-1
			c1,0,1.9,0.1,2.7,0.3c0.9,0.2,1.6,0.4,2.3,0.6c0.7,0.2,1.2,0.5,1.7,0.7c0.5,0.3,0.8,0.5,0.9,0.7c0.2,0.2,0.3,0.4,0.4,0.6
			C127.7-95.9,127.7-95.6,127.7-95.2z"/>
		<path d="M153.3-74.6c0,0.3,0,0.5-0.1,0.7s-0.2,0.3-0.3,0.5s-0.3,0.2-0.5,0.3c-0.2,0.1-0.4,0.1-0.5,0.1h-1.1c-0.4,0-0.7,0-0.9-0.1
			c-0.3-0.1-0.5-0.2-0.8-0.4c-0.2-0.2-0.5-0.4-0.7-0.8c-0.2-0.3-0.5-0.7-0.8-1.3l-7.8-14.5c-0.4-0.7-0.8-1.5-1.2-2.4
			c-0.4-0.8-0.8-1.6-1.2-2.4h0c0,0.9,0,1.9,0.1,2.9c0,1,0,2,0,2.9v15.4c0,0.1,0,0.2-0.1,0.3c-0.1,0.1-0.1,0.2-0.3,0.2
			s-0.3,0.1-0.5,0.1c-0.2,0-0.5,0-0.8,0c-0.3,0-0.6,0-0.8,0c-0.2,0-0.4-0.1-0.5-0.1c-0.1,0-0.2-0.1-0.3-0.2
			c-0.1-0.1-0.1-0.2-0.1-0.3v-23.5c0-0.5,0.1-0.9,0.4-1.1c0.3-0.2,0.6-0.3,1-0.3h1.7c0.4,0,0.7,0,1,0.1s0.5,0.2,0.7,0.3
			c0.2,0.2,0.4,0.4,0.6,0.6c0.2,0.3,0.4,0.6,0.6,1l6,11.2c0.4,0.7,0.7,1.3,1.1,2c0.3,0.6,0.7,1.3,1,1.9c0.3,0.6,0.6,1.2,0.9,1.9
			s0.6,1.2,0.9,1.8h0c0-1,0-2.1,0-3.2c0-1.1,0-2.2,0-3.2v-13.8c0-0.1,0-0.2,0.1-0.3c0.1-0.1,0.1-0.1,0.3-0.2
			c0.1-0.1,0.3-0.1,0.5-0.1s0.5,0,0.8,0c0.3,0,0.6,0,0.8,0s0.4,0.1,0.5,0.1c0.1,0.1,0.2,0.1,0.3,0.2c0.1,0.1,0.1,0.2,0.1,0.3V-74.6z
			"/>
		<path d="M179.6-86.3c0,2.2-0.3,4.1-0.8,5.8c-0.6,1.6-1.4,3-2.5,4.1c-1.1,1.1-2.4,1.9-4,2.4c-1.6,0.5-3.5,0.8-5.6,0.8h-5.4
			c-0.3,0-0.6-0.1-0.9-0.3c-0.3-0.2-0.4-0.6-0.4-1.1v-22.7c0-0.5,0.1-0.9,0.4-1.1c0.3-0.2,0.6-0.3,0.9-0.3h5.8
			c2.2,0,4.1,0.3,5.6,0.9s2.8,1.4,3.8,2.5c1,1.1,1.8,2.4,2.3,3.9S179.6-88.2,179.6-86.3z M176.1-86.1c0-1.4-0.2-2.7-0.5-3.8
			c-0.3-1.2-0.9-2.2-1.6-3.1s-1.7-1.5-2.8-2c-1.1-0.5-2.6-0.7-4.3-0.7h-3.4V-76h3.5c1.6,0,3-0.2,4.1-0.6c1.1-0.4,2-1,2.8-1.9
			c0.7-0.8,1.3-1.9,1.7-3.2C175.9-82.9,176.1-84.4,176.1-86.1z"/>
	</g>
	<g class="st9">
		<path d="M233.8-83.1c0,2.2-0.3,4.1-0.8,5.8c-0.6,1.6-1.4,3-2.5,4.1c-1.1,1.1-2.4,1.9-4,2.4c-1.6,0.5-3.5,0.8-5.6,0.8h-5.4
			c-0.3,0-0.6-0.1-0.9-0.3c-0.3-0.2-0.4-0.6-0.4-1.1v-22.7c0-0.5,0.1-0.9,0.4-1.1c0.3-0.2,0.6-0.3,0.9-0.3h5.8
			c2.2,0,4.1,0.3,5.6,0.9s2.8,1.4,3.8,2.5c1,1.1,1.8,2.4,2.3,3.9S233.8-85,233.8-83.1z M230.3-83c0-1.4-0.2-2.7-0.5-3.8
			c-0.3-1.2-0.9-2.2-1.6-3.1s-1.7-1.5-2.8-2c-1.1-0.5-2.6-0.7-4.3-0.7h-3.4v19.8h3.5c1.6,0,3-0.2,4.1-0.6c1.1-0.4,2-1,2.8-1.9
			c0.7-0.8,1.3-1.9,1.7-3.2C230.1-79.8,230.3-81.3,230.3-83z"/>
		<path d="M242.3-94.2c0,0.8-0.1,1.3-0.4,1.6c-0.3,0.3-0.8,0.4-1.6,0.4c-0.8,0-1.3-0.1-1.6-0.4c-0.3-0.3-0.4-0.8-0.4-1.5
			c0-0.8,0.1-1.3,0.4-1.6s0.8-0.4,1.6-0.4c0.8,0,1.3,0.1,1.6,0.4C242.2-95.5,242.3-95,242.3-94.2z M241.9-70.5c0,0.1,0,0.2-0.1,0.3
			c-0.1,0.1-0.1,0.1-0.3,0.2c-0.1,0.1-0.3,0.1-0.5,0.1c-0.2,0-0.5,0-0.8,0c-0.3,0-0.6,0-0.8,0c-0.2,0-0.4-0.1-0.5-0.1
			c-0.1-0.1-0.2-0.1-0.3-0.2s-0.1-0.2-0.1-0.3v-17.7c0-0.1,0-0.2,0.1-0.3c0-0.1,0.1-0.1,0.3-0.2s0.3-0.1,0.5-0.1c0.2,0,0.5,0,0.8,0
			c0.3,0,0.6,0,0.8,0c0.2,0,0.4,0.1,0.5,0.1s0.2,0.1,0.3,0.2c0.1,0.1,0.1,0.2,0.1,0.3V-70.5z"/>
		<path d="M262.7-87.4c0,0.5-0.1,0.8-0.2,1c-0.1,0.2-0.3,0.3-0.5,0.3h-2.5c0.5,0.5,0.8,1,1,1.6c0.2,0.6,0.3,1.2,0.3,1.8
			c0,1-0.2,1.9-0.5,2.7c-0.3,0.8-0.8,1.5-1.4,2c-0.6,0.5-1.3,1-2.2,1.2c-0.8,0.3-1.8,0.4-2.8,0.4c-0.7,0-1.4-0.1-2.1-0.3
			c-0.7-0.2-1.2-0.4-1.5-0.7c-0.2,0.2-0.4,0.5-0.6,0.8c-0.2,0.3-0.2,0.7-0.2,1c0,0.5,0.2,0.8,0.6,1.1s1,0.5,1.7,0.5l4.6,0.2
			c0.9,0,1.7,0.1,2.4,0.4c0.7,0.2,1.4,0.5,1.9,0.9c0.5,0.4,1,0.9,1.3,1.5c0.3,0.6,0.5,1.3,0.5,2c0,0.8-0.2,1.6-0.5,2.3
			c-0.3,0.7-0.9,1.4-1.6,1.9c-0.7,0.6-1.6,1-2.7,1.3c-1.1,0.3-2.4,0.5-3.9,0.5c-1.4,0-2.6-0.1-3.7-0.4s-1.8-0.6-2.5-1
			c-0.6-0.4-1.1-0.9-1.4-1.5s-0.4-1.2-0.4-1.9c0-0.4,0.1-0.9,0.2-1.3c0.1-0.4,0.3-0.8,0.5-1.2s0.5-0.7,0.8-1.1
			c0.3-0.3,0.7-0.7,1.1-1c-0.6-0.3-1.1-0.7-1.4-1.2s-0.5-1-0.5-1.6c0-0.8,0.2-1.5,0.5-2.1s0.7-1.2,1.2-1.7c-0.4-0.5-0.7-1-1-1.6
			s-0.4-1.3-0.4-2.2c0-1,0.2-1.9,0.5-2.7c0.3-0.8,0.8-1.5,1.4-2c0.6-0.6,1.3-1,2.2-1.3c0.8-0.3,1.8-0.4,2.8-0.4c0.5,0,1,0,1.5,0.1
			c0.5,0.1,0.9,0.1,1.3,0.2h5.4c0.2,0,0.4,0.1,0.5,0.3S262.7-87.9,262.7-87.4z M259.3-68.7c0-0.8-0.3-1.3-0.9-1.8
			c-0.6-0.4-1.5-0.6-2.5-0.7l-4.6-0.2c-0.4,0.3-0.8,0.6-1,0.9c-0.3,0.3-0.5,0.6-0.6,0.8c-0.2,0.3-0.3,0.5-0.3,0.8
			c-0.1,0.3-0.1,0.5-0.1,0.8c0,0.9,0.4,1.5,1.3,1.9c0.9,0.4,2.1,0.7,3.6,0.7c1,0,1.8-0.1,2.5-0.3c0.7-0.2,1.2-0.4,1.6-0.8
			c0.4-0.3,0.7-0.7,0.9-1.1C259.2-67.8,259.3-68.3,259.3-68.7z M257.7-82.8c0-1.2-0.3-2.1-1-2.8c-0.7-0.7-1.6-1-2.8-1
			c-0.6,0-1.2,0.1-1.6,0.3c-0.5,0.2-0.9,0.5-1.2,0.9c-0.3,0.4-0.5,0.8-0.7,1.3c-0.2,0.5-0.2,1-0.2,1.5c0,1.2,0.3,2.1,1,2.8
			c0.7,0.7,1.6,1,2.8,1c0.6,0,1.2-0.1,1.7-0.3c0.5-0.2,0.9-0.5,1.2-0.8s0.5-0.8,0.7-1.2C257.6-81.8,257.7-82.2,257.7-82.8z"/>
		<path d="M270.5-94.2c0,0.8-0.1,1.3-0.4,1.6c-0.3,0.3-0.8,0.4-1.6,0.4c-0.8,0-1.3-0.1-1.6-0.4c-0.3-0.3-0.4-0.8-0.4-1.5
			c0-0.8,0.1-1.3,0.4-1.6s0.8-0.4,1.6-0.4c0.8,0,1.3,0.1,1.6,0.4C270.4-95.5,270.5-95,270.5-94.2z M270.2-70.5c0,0.1,0,0.2-0.1,0.3
			c-0.1,0.1-0.1,0.1-0.3,0.2c-0.1,0.1-0.3,0.1-0.5,0.1c-0.2,0-0.5,0-0.8,0c-0.3,0-0.6,0-0.8,0c-0.2,0-0.4-0.1-0.5-0.1
			c-0.1-0.1-0.2-0.1-0.3-0.2s-0.1-0.2-0.1-0.3v-17.7c0-0.1,0-0.2,0.1-0.3c0-0.1,0.1-0.1,0.3-0.2s0.3-0.1,0.5-0.1c0.2,0,0.5,0,0.8,0
			c0.3,0,0.6,0,0.8,0c0.2,0,0.4,0.1,0.5,0.1s0.2,0.1,0.3,0.2c0.1,0.1,0.1,0.2,0.1,0.3V-70.5z"/>
		<path d="M285.4-71.8c0,0.4,0,0.7-0.1,0.9c-0.1,0.2-0.1,0.4-0.2,0.5c-0.1,0.1-0.3,0.2-0.5,0.3s-0.5,0.2-0.7,0.2
			c-0.3,0.1-0.6,0.1-0.9,0.1c-0.3,0-0.6,0.1-0.9,0.1c-0.9,0-1.7-0.1-2.4-0.4c-0.7-0.2-1.2-0.6-1.6-1.1s-0.7-1.1-0.9-1.9
			c-0.2-0.8-0.3-1.6-0.3-2.7V-86h-2.5c-0.2,0-0.4-0.1-0.5-0.3s-0.2-0.6-0.2-1c0-0.2,0-0.5,0-0.6c0-0.2,0.1-0.3,0.1-0.4
			c0.1-0.1,0.1-0.2,0.2-0.2c0.1,0,0.2-0.1,0.3-0.1h2.5V-93c0-0.1,0-0.2,0.1-0.3c0-0.1,0.1-0.1,0.3-0.2c0.1-0.1,0.3-0.1,0.5-0.1
			s0.5,0,0.8,0c0.3,0,0.6,0,0.8,0s0.4,0.1,0.5,0.1c0.1,0.1,0.2,0.1,0.3,0.2c0.1,0.1,0.1,0.2,0.1,0.3v4.2h4.5c0.1,0,0.2,0,0.3,0.1
			c0.1,0,0.1,0.1,0.2,0.2c0.1,0.1,0.1,0.3,0.1,0.4c0,0.2,0,0.4,0,0.6c0,0.5-0.1,0.8-0.2,1s-0.3,0.3-0.5,0.3h-4.5v9.9
			c0,1.2,0.2,2.1,0.5,2.8c0.4,0.6,1,0.9,1.9,0.9c0.3,0,0.6,0,0.8-0.1c0.2-0.1,0.4-0.1,0.6-0.2c0.2-0.1,0.3-0.1,0.5-0.2
			c0.1-0.1,0.2-0.1,0.4-0.1c0.1,0,0.1,0,0.2,0c0.1,0,0.1,0.1,0.1,0.2c0,0.1,0.1,0.2,0.1,0.4C285.4-72.2,285.4-72,285.4-71.8z"/>
		<path d="M302.5-70.5c0,0.2-0.1,0.3-0.2,0.4c-0.1,0.1-0.2,0.1-0.4,0.2c-0.2,0-0.5,0.1-0.8,0.1c-0.3,0-0.6,0-0.8-0.1
			c-0.2,0-0.4-0.1-0.4-0.2s-0.1-0.2-0.1-0.4v-1.8c-0.8,0.8-1.6,1.5-2.6,1.9c-1,0.5-2,0.7-3,0.7c-0.9,0-1.8-0.1-2.5-0.4
			c-0.8-0.2-1.4-0.6-1.9-1.1c-0.5-0.5-0.9-1-1.2-1.7c-0.3-0.7-0.4-1.4-0.4-2.3c0-1,0.2-1.9,0.6-2.6c0.4-0.7,1-1.3,1.8-1.8
			c0.8-0.5,1.7-0.8,2.8-1.1c1.1-0.2,2.3-0.4,3.7-0.4h2.4v-1.4c0-0.7-0.1-1.3-0.2-1.8c-0.1-0.5-0.4-1-0.7-1.3s-0.7-0.6-1.2-0.8
			c-0.5-0.2-1.1-0.3-1.9-0.3c-0.8,0-1.5,0.1-2.2,0.3c-0.6,0.2-1.2,0.4-1.7,0.6c-0.5,0.2-0.9,0.4-1.2,0.6s-0.6,0.3-0.7,0.3
			c-0.1,0-0.2,0-0.3-0.1c-0.1-0.1-0.1-0.1-0.2-0.2c-0.1-0.1-0.1-0.2-0.1-0.4s0-0.3,0-0.5c0-0.3,0-0.6,0.1-0.8c0-0.2,0.2-0.4,0.3-0.5
			c0.2-0.2,0.5-0.4,0.9-0.6c0.4-0.2,0.9-0.4,1.5-0.6s1.2-0.3,1.9-0.5c0.7-0.1,1.3-0.2,2-0.2c1.3,0,2.4,0.1,3.2,0.4
			c0.9,0.3,1.6,0.7,2.2,1.3c0.6,0.6,1,1.2,1.2,2.1s0.4,1.8,0.4,2.9V-70.5z M299.3-78.6h-2.8c-0.9,0-1.7,0.1-2.3,0.2
			c-0.7,0.2-1.2,0.4-1.6,0.7c-0.4,0.3-0.8,0.6-1,1.1c-0.2,0.4-0.3,0.9-0.3,1.4c0,0.9,0.3,1.7,0.9,2.2c0.6,0.5,1.4,0.8,2.5,0.8
			c0.9,0,1.6-0.2,2.4-0.6c0.7-0.4,1.5-1.1,2.3-2V-78.6z"/>
		<path d="M311.7-70.5c0,0.1,0,0.2-0.1,0.3c-0.1,0.1-0.1,0.1-0.3,0.2c-0.1,0.1-0.3,0.1-0.5,0.1c-0.2,0-0.5,0-0.8,0
			c-0.3,0-0.6,0-0.8,0c-0.2,0-0.4-0.1-0.5-0.1c-0.1-0.1-0.2-0.1-0.3-0.2s-0.1-0.2-0.1-0.3v-26.3c0-0.1,0-0.2,0.1-0.3
			c0-0.1,0.1-0.1,0.3-0.2c0.1-0.1,0.3-0.1,0.5-0.1c0.2,0,0.5,0,0.8,0c0.3,0,0.6,0,0.8,0c0.2,0,0.4,0.1,0.5,0.1
			c0.1,0.1,0.2,0.1,0.3,0.2c0.1,0.1,0.1,0.2,0.1,0.3V-70.5z"/>
	</g>
	<g class="st9">
		<path d="M45.3-30.2c0.1,0.3,0.2,0.5,0.2,0.7c0,0.2,0,0.3-0.1,0.4c-0.1,0.1-0.3,0.2-0.5,0.2c-0.2,0-0.6,0-1,0s-0.7,0-1,0
			S42.4-29,42.3-29c-0.1,0-0.2-0.1-0.3-0.2c-0.1-0.1-0.1-0.2-0.2-0.3l-2.2-6.2H29.1L27-29.6c0,0.1-0.1,0.2-0.2,0.3
			c-0.1,0.1-0.2,0.2-0.3,0.2c-0.1,0.1-0.3,0.1-0.5,0.1c-0.2,0-0.5,0-0.9,0c-0.4,0-0.7,0-0.9,0c-0.2,0-0.4-0.1-0.5-0.2
			s-0.1-0.2-0.1-0.4c0-0.2,0.1-0.4,0.2-0.7l8.5-23.7c0.1-0.1,0.1-0.3,0.2-0.4c0.1-0.1,0.2-0.2,0.4-0.2s0.4-0.1,0.6-0.1s0.6,0,1,0
			c0.4,0,0.8,0,1,0c0.3,0,0.5,0.1,0.7,0.1s0.3,0.1,0.4,0.2s0.2,0.2,0.2,0.4L45.3-30.2z M34.4-51.1L34.4-51.1l-4.4,12.7h8.9
			L34.4-51.1z"/>
		<path d="M64.5-29.5c0,0.1,0,0.2-0.1,0.3s-0.1,0.1-0.3,0.2c-0.1,0.1-0.3,0.1-0.5,0.1c-0.2,0-0.5,0-0.8,0c-0.3,0-0.6,0-0.8,0
			c-0.2,0-0.4-0.1-0.5-0.1c-0.1-0.1-0.2-0.1-0.3-0.2s-0.1-0.2-0.1-0.3v-10.4c0-1-0.1-1.8-0.2-2.4c-0.2-0.6-0.4-1.1-0.7-1.6
			c-0.3-0.4-0.7-0.8-1.2-1s-1-0.4-1.7-0.4c-0.8,0-1.6,0.3-2.4,0.9c-0.8,0.6-1.7,1.4-2.6,2.5v12.4c0,0.1,0,0.2-0.1,0.3
			c-0.1,0.1-0.1,0.1-0.3,0.2c-0.1,0.1-0.3,0.1-0.5,0.1c-0.2,0-0.5,0-0.8,0c-0.3,0-0.6,0-0.8,0c-0.2,0-0.4-0.1-0.5-0.1
			c-0.1-0.1-0.2-0.1-0.3-0.2s-0.1-0.2-0.1-0.3v-17.7c0-0.1,0-0.2,0.1-0.3c0-0.1,0.1-0.1,0.2-0.2c0.1-0.1,0.3-0.1,0.5-0.1
			c0.2,0,0.4,0,0.7,0c0.3,0,0.5,0,0.7,0c0.2,0,0.3,0.1,0.4,0.1c0.1,0.1,0.2,0.1,0.2,0.2c0,0.1,0.1,0.2,0.1,0.3v2.3
			c1-1.1,2-1.9,3-2.5s2-0.8,3-0.8c1.2,0,2.2,0.2,3,0.6c0.8,0.4,1.5,0.9,2,1.6c0.5,0.7,0.9,1.5,1.1,2.4c0.2,0.9,0.3,2,0.3,3.2V-29.5z
			"/>
		<path d="M83.7-29.5c0,0.2-0.1,0.3-0.2,0.4c-0.1,0.1-0.2,0.1-0.4,0.2c-0.2,0-0.5,0.1-0.8,0.1c-0.3,0-0.6,0-0.8-0.1
			c-0.2,0-0.4-0.1-0.4-0.2s-0.1-0.2-0.1-0.4v-1.8c-0.8,0.8-1.6,1.5-2.6,1.9c-1,0.5-2,0.7-3,0.7c-0.9,0-1.8-0.1-2.5-0.4
			c-0.8-0.2-1.4-0.6-1.9-1.1c-0.5-0.5-0.9-1-1.2-1.7c-0.3-0.7-0.4-1.4-0.4-2.3c0-1,0.2-1.9,0.6-2.6c0.4-0.7,1-1.3,1.8-1.8
			c0.8-0.5,1.7-0.8,2.8-1.1c1.1-0.2,2.3-0.4,3.7-0.4h2.4v-1.4c0-0.7-0.1-1.3-0.2-1.8c-0.1-0.5-0.4-1-0.7-1.3s-0.7-0.6-1.2-0.8
			c-0.5-0.2-1.1-0.3-1.9-0.3c-0.8,0-1.5,0.1-2.2,0.3c-0.6,0.2-1.2,0.4-1.7,0.6c-0.5,0.2-0.9,0.4-1.2,0.6s-0.6,0.3-0.7,0.3
			c-0.1,0-0.2,0-0.3-0.1c-0.1-0.1-0.1-0.1-0.2-0.2c-0.1-0.1-0.1-0.2-0.1-0.4s0-0.3,0-0.5c0-0.3,0-0.6,0.1-0.8c0-0.2,0.2-0.4,0.3-0.5
			c0.2-0.2,0.5-0.4,0.9-0.6c0.4-0.2,0.9-0.4,1.5-0.6s1.2-0.3,1.9-0.5c0.7-0.1,1.3-0.2,2-0.2c1.3,0,2.4,0.1,3.2,0.4
			c0.9,0.3,1.6,0.7,2.2,1.3c0.6,0.6,1,1.2,1.2,2.1s0.4,1.8,0.4,2.9V-29.5z M80.5-37.6h-2.8c-0.9,0-1.7,0.1-2.3,0.2
			c-0.7,0.2-1.2,0.4-1.6,0.7c-0.4,0.3-0.8,0.6-1,1.1c-0.2,0.4-0.3,0.9-0.3,1.4c0,0.9,0.3,1.7,0.9,2.2c0.6,0.5,1.4,0.8,2.5,0.8
			c0.9,0,1.6-0.2,2.4-0.6c0.7-0.4,1.5-1.1,2.3-2V-37.6z"/>
		<path d="M93-29.5c0,0.1,0,0.2-0.1,0.3c-0.1,0.1-0.1,0.1-0.3,0.2c-0.1,0.1-0.3,0.1-0.5,0.1c-0.2,0-0.5,0-0.8,0c-0.3,0-0.6,0-0.8,0
			c-0.2,0-0.4-0.1-0.5-0.1c-0.1-0.1-0.2-0.1-0.3-0.2s-0.1-0.2-0.1-0.3v-26.3c0-0.1,0-0.2,0.1-0.3c0-0.1,0.1-0.1,0.3-0.2
			c0.1-0.1,0.3-0.1,0.5-0.1c0.2,0,0.5,0,0.8,0c0.3,0,0.6,0,0.8,0c0.2,0,0.4,0.1,0.5,0.1c0.1,0.1,0.2,0.1,0.3,0.2
			c0.1,0.1,0.1,0.2,0.1,0.3V-29.5z"/>
		<path d="M115.4-38.5c0,1.4-0.2,2.8-0.6,4c-0.4,1.2-0.9,2.3-1.7,3.1c-0.8,0.9-1.7,1.6-2.8,2.1c-1.1,0.5-2.5,0.7-3.9,0.7
			c-1.5,0-2.7-0.2-3.8-0.6c-1.1-0.4-2-1.1-2.7-1.9s-1.3-1.8-1.6-3c-0.4-1.2-0.5-2.5-0.5-4c0-1.4,0.2-2.8,0.6-4s0.9-2.3,1.7-3.1
			c0.8-0.9,1.7-1.6,2.8-2c1.1-0.5,2.4-0.7,4-0.7c1.5,0,2.7,0.2,3.8,0.7c1.1,0.4,2,1.1,2.7,1.9s1.3,1.8,1.6,3
			C115.3-41.4,115.4-40,115.4-38.5z M112.1-38.3c0-1-0.1-1.9-0.3-2.7c-0.2-0.9-0.5-1.6-0.9-2.2c-0.4-0.6-1-1.2-1.7-1.5
			s-1.6-0.6-2.6-0.6c-1,0-1.8,0.2-2.5,0.5c-0.7,0.3-1.3,0.8-1.7,1.4c-0.5,0.6-0.8,1.4-1,2.2c-0.2,0.9-0.3,1.8-0.3,2.8
			c0,1,0.1,1.9,0.3,2.7c0.2,0.9,0.5,1.6,0.9,2.2c0.4,0.6,1,1.1,1.7,1.5s1.6,0.6,2.6,0.6c1,0,1.8-0.2,2.5-0.5
			c0.7-0.3,1.3-0.8,1.7-1.4c0.5-0.6,0.8-1.4,1-2.2C112-36.4,112.1-37.3,112.1-38.3z"/>
		<path d="M135-46.4c0,0.5-0.1,0.8-0.2,1c-0.1,0.2-0.3,0.3-0.5,0.3h-2.5c0.5,0.5,0.8,1,1,1.6c0.2,0.6,0.3,1.2,0.3,1.8
			c0,1-0.2,1.9-0.5,2.7c-0.3,0.8-0.8,1.5-1.4,2c-0.6,0.5-1.3,1-2.2,1.2c-0.8,0.3-1.8,0.4-2.8,0.4c-0.7,0-1.4-0.1-2.1-0.3
			c-0.7-0.2-1.2-0.4-1.5-0.7c-0.2,0.2-0.4,0.5-0.6,0.8c-0.2,0.3-0.2,0.7-0.2,1c0,0.5,0.2,0.8,0.6,1.1s1,0.5,1.7,0.5l4.6,0.2
			c0.9,0,1.7,0.1,2.4,0.4c0.7,0.2,1.4,0.5,1.9,0.9c0.5,0.4,1,0.9,1.3,1.5c0.3,0.6,0.5,1.3,0.5,2c0,0.8-0.2,1.6-0.5,2.3
			c-0.3,0.7-0.9,1.4-1.6,1.9c-0.7,0.6-1.6,1-2.7,1.3c-1.1,0.3-2.4,0.5-3.9,0.5c-1.4,0-2.6-0.1-3.7-0.4s-1.8-0.6-2.5-1
			c-0.6-0.4-1.1-0.9-1.4-1.5s-0.4-1.2-0.4-1.9c0-0.4,0.1-0.9,0.2-1.3c0.1-0.4,0.3-0.8,0.5-1.2s0.5-0.7,0.8-1.1
			c0.3-0.3,0.7-0.7,1.1-1c-0.6-0.3-1.1-0.7-1.4-1.2s-0.5-1-0.5-1.6c0-0.8,0.2-1.5,0.5-2.1s0.7-1.2,1.2-1.7c-0.4-0.5-0.7-1-1-1.6
			s-0.4-1.3-0.4-2.2c0-1,0.2-1.9,0.5-2.7c0.3-0.8,0.8-1.5,1.4-2c0.6-0.6,1.3-1,2.2-1.3c0.8-0.3,1.8-0.4,2.8-0.4c0.5,0,1,0,1.5,0.1
			c0.5,0.1,0.9,0.1,1.3,0.2h5.4c0.2,0,0.4,0.1,0.5,0.3S135-46.8,135-46.4z M131.6-27.7c0-0.8-0.3-1.3-0.9-1.8
			c-0.6-0.4-1.5-0.6-2.5-0.7l-4.6-0.2c-0.4,0.3-0.8,0.6-1,0.9c-0.3,0.3-0.5,0.6-0.6,0.8c-0.2,0.3-0.3,0.5-0.3,0.8
			c-0.1,0.3-0.1,0.5-0.1,0.8c0,0.9,0.4,1.5,1.3,1.9c0.9,0.4,2.1,0.7,3.6,0.7c1,0,1.8-0.1,2.5-0.3c0.7-0.2,1.2-0.4,1.6-0.8
			c0.4-0.3,0.7-0.7,0.9-1.1C131.5-26.8,131.6-27.3,131.6-27.7z M129.9-41.7c0-1.2-0.3-2.1-1-2.8c-0.7-0.7-1.6-1-2.8-1
			c-0.6,0-1.2,0.1-1.6,0.3c-0.5,0.2-0.9,0.5-1.2,0.9c-0.3,0.4-0.5,0.8-0.7,1.3c-0.2,0.5-0.2,1-0.2,1.5c0,1.2,0.3,2.1,1,2.8
			c0.7,0.7,1.6,1,2.8,1c0.6,0,1.2-0.1,1.7-0.3c0.5-0.2,0.9-0.5,1.2-0.8s0.5-0.8,0.7-1.2C129.9-40.7,129.9-41.2,129.9-41.7z"/>
	</g>
	<g class="st9">
		<path d="M200.9-33.3c0,0.2,0,0.5-0.1,0.6c0,0.2-0.1,0.3-0.2,0.4c-0.1,0.1-0.1,0.2-0.2,0.3s-0.2,0.1-0.3,0.1h-6.5v7.2
			c0,0.1,0,0.2-0.1,0.3c-0.1,0.1-0.1,0.1-0.2,0.2c-0.1,0.1-0.3,0.1-0.4,0.1c-0.2,0-0.4,0-0.7,0c-0.3,0-0.5,0-0.7,0
			c-0.2,0-0.3-0.1-0.5-0.1c-0.1-0.1-0.2-0.1-0.2-0.2s-0.1-0.2-0.1-0.3v-7.2h-6.5c-0.1,0-0.2,0-0.3-0.1c-0.1-0.1-0.2-0.1-0.2-0.3
			s-0.1-0.3-0.2-0.4c0-0.2-0.1-0.4-0.1-0.6c0-0.2,0-0.4,0.1-0.6c0-0.2,0.1-0.3,0.2-0.4s0.1-0.2,0.2-0.3c0.1-0.1,0.2-0.1,0.3-0.1h6.5
			v-7.2c0-0.1,0-0.2,0.1-0.3c0.1-0.1,0.1-0.2,0.2-0.2c0.1-0.1,0.3-0.1,0.5-0.1c0.2,0,0.4,0,0.7,0c0.3,0,0.5,0,0.7,0
			c0.2,0,0.3,0.1,0.4,0.1c0.1,0.1,0.2,0.1,0.2,0.2c0.1,0.1,0.1,0.2,0.1,0.3v7.2h6.5c0.1,0,0.2,0,0.3,0.1c0.1,0.1,0.2,0.1,0.2,0.3
			s0.1,0.3,0.2,0.4C200.9-33.7,200.9-33.5,200.9-33.3z"/>
		<path d="M216-22.5c-0.1,0.1-0.1,0.3-0.2,0.4c-0.1,0.1-0.2,0.2-0.4,0.2c-0.2,0.1-0.4,0.1-0.6,0.1s-0.6,0-1,0c-0.3,0-0.5,0-0.8,0
			s-0.4,0-0.6,0c-0.2,0-0.3-0.1-0.4-0.1c-0.1,0-0.2-0.1-0.3-0.1s-0.1-0.1-0.2-0.2s-0.1-0.2-0.1-0.3l-8.3-23.7
			c-0.1-0.3-0.2-0.5-0.2-0.7c0-0.2,0-0.3,0.2-0.4s0.3-0.2,0.6-0.2c0.3,0,0.6,0,1.1,0c0.4,0,0.7,0,0.9,0c0.2,0,0.4,0.1,0.5,0.1
			s0.2,0.1,0.3,0.2c0.1,0.1,0.1,0.2,0.2,0.3l7.3,21.4h0l7.1-21.4c0-0.1,0.1-0.3,0.1-0.4c0.1-0.1,0.1-0.2,0.3-0.2s0.3-0.1,0.6-0.1
			s0.6,0,0.9,0c0.4,0,0.7,0,1,0c0.2,0,0.4,0.1,0.5,0.2s0.1,0.2,0.1,0.4c0,0.2-0.1,0.4-0.2,0.7L216-22.5z"/>
	</g>
	<g class="st9">
		<path class="st0" d="M337.5-750.3c0.1,0,0.2,0,0.3,0.1c0.1,0.1,0.2,0.2,0.3,0.3c0.1,0.2,0.1,0.4,0.2,0.6s0.1,0.6,0.1,1.1
			c0,0.6,0,1-0.1,1.4c0,0.4-0.1,0.6-0.3,0.8s-0.3,0.3-0.4,0.4L322-734.2h15.5c0.1,0,0.2,0,0.3,0.1c0.1,0.1,0.2,0.2,0.2,0.3
			c0.1,0.2,0.1,0.4,0.1,0.6s0.1,0.6,0.1,1c0,0.4,0,0.7-0.1,1c0,0.3-0.1,0.5-0.1,0.6c-0.1,0.2-0.1,0.3-0.2,0.3
			c-0.1,0.1-0.2,0.1-0.3,0.1h-29.8c-0.1,0-0.2,0-0.3-0.1c-0.1-0.1-0.2-0.2-0.2-0.3c-0.1-0.2-0.1-0.4-0.1-0.6c0-0.3-0.1-0.6-0.1-1
			c0-0.4,0-0.7,0.1-1s0.1-0.5,0.1-0.6c0.1-0.2,0.1-0.3,0.2-0.3c0.1-0.1,0.2-0.1,0.3-0.1h13.8l-13.8-11c-0.1-0.1-0.3-0.2-0.4-0.3
			c-0.1-0.1-0.2-0.3-0.2-0.5c-0.1-0.2-0.1-0.4-0.1-0.7c0-0.3,0-0.6,0-1c0-0.4,0-0.8,0.1-1s0.1-0.5,0.2-0.6c0.1-0.2,0.1-0.3,0.2-0.3
			c0.1-0.1,0.2-0.1,0.3-0.1c0.2,0,0.4,0.1,0.6,0.2c0.2,0.1,0.5,0.3,0.9,0.6l12.3,10.3l14.7-11.1c0.4-0.3,0.7-0.4,0.9-0.5
			C337.3-750.3,337.4-750.3,337.5-750.3z"/>
		<path class="st0" d="M326.1-765.5h11.4c0.1,0,0.2,0,0.3,0.1c0.1,0.1,0.2,0.2,0.2,0.3c0.1,0.2,0.1,0.4,0.1,0.6c0,0.3,0.1,0.6,0.1,1
			c0,0.4,0,0.7-0.1,1c0,0.3-0.1,0.5-0.1,0.6s-0.1,0.3-0.2,0.3c-0.1,0.1-0.2,0.1-0.3,0.1h-11.4l-17.5,8.8c-0.4,0.2-0.7,0.3-0.9,0.3
			c-0.2,0-0.4,0-0.5-0.1c-0.1-0.1-0.2-0.3-0.2-0.6c0-0.3,0-0.7,0-1.3c0-0.5,0-0.9,0-1.2c0-0.3,0.1-0.5,0.1-0.7
			c0.1-0.2,0.1-0.3,0.2-0.4s0.2-0.2,0.4-0.3l8.9-4.3c0.8-0.4,1.7-0.8,2.7-1.2s1.9-0.8,2.8-1.2v0c-0.9-0.4-1.8-0.7-2.7-1.1
			c-0.9-0.4-1.8-0.8-2.7-1.2l-9-4.3c-0.2,0-0.3-0.1-0.4-0.2c-0.1-0.1-0.2-0.2-0.3-0.4c-0.1-0.2-0.1-0.4-0.1-0.6c0-0.3,0-0.6,0-1
			c0-0.6,0-1,0.1-1.4s0.1-0.6,0.2-0.7c0.1-0.1,0.3-0.2,0.5-0.1c0.2,0,0.5,0.1,0.8,0.3L326.1-765.5z"/>
		<path class="st0" d="M326-786c0.6,0,1.1,0.1,1.3,0.2c0.2,0.1,0.4,0.4,0.4,0.6v10c0,0.3-0.1,0.5-0.4,0.6c-0.2,0.1-0.7,0.2-1.3,0.2
			c-0.6,0-1-0.1-1.3-0.2c-0.2-0.1-0.4-0.4-0.4-0.6v-10c0-0.1,0-0.2,0.1-0.3s0.1-0.2,0.3-0.3c0.1-0.1,0.3-0.1,0.5-0.2
			C325.5-786,325.7-786,326-786z"/>
		<path class="st0" d="M322.6-810.8c2.4,0,4.6,0.2,6.5,0.6c2,0.4,3.7,1,5.1,1.9c1.4,0.9,2.5,2,3.3,3.4c0.8,1.4,1.2,3.1,1.2,5.2
			c0,1.9-0.3,3.6-1,4.9c-0.7,1.3-1.7,2.4-3.1,3.2c-1.3,0.8-3,1.4-5,1.7c-2,0.3-4.2,0.5-6.8,0.5c-2.4,0-4.5-0.2-6.5-0.6
			c-2-0.4-3.7-1-5.1-1.9c-1.4-0.9-2.5-2-3.3-3.4c-0.8-1.4-1.2-3.1-1.2-5.2c0-2,0.3-3.6,1-4.9c0.7-1.3,1.7-2.4,3.1-3.2
			c1.3-0.8,3-1.4,5-1.7C317.8-810.6,320-810.8,322.6-810.8z M322.9-806.6c-1.5,0-2.9,0.1-4.2,0.2c-1.2,0.1-2.3,0.3-3.3,0.5
			s-1.8,0.5-2.4,0.8c-0.7,0.3-1.2,0.8-1.7,1.2c-0.4,0.5-0.8,1-1,1.6c-0.2,0.6-0.3,1.3-0.3,2.1c0,1.4,0.3,2.5,1,3.3
			c0.6,0.8,1.5,1.5,2.6,2s2.4,0.8,3.9,1c1.5,0.2,3.1,0.3,4.8,0.3c2.3,0,4.3-0.1,5.9-0.4c1.6-0.2,2.9-0.6,4-1.1s1.8-1.2,2.2-2
			c0.5-0.8,0.7-1.8,0.7-2.9c0-0.9-0.1-1.7-0.4-2.4c-0.3-0.7-0.7-1.3-1.2-1.7s-1.2-0.9-1.9-1.2s-1.6-0.6-2.5-0.8
			c-0.9-0.2-1.9-0.3-3-0.4C325.1-806.5,324-806.6,322.9-806.6z"/>
		<path class="st0" d="M336.4-834.6c0.3,0,0.5,0,0.8,0.1c0.2,0,0.4,0.1,0.6,0.2c0.2,0.1,0.3,0.2,0.3,0.3c0.1,0.1,0.1,0.3,0.1,0.4
			v17.1c0,0.2,0,0.4-0.1,0.6c-0.1,0.2-0.1,0.3-0.3,0.4s-0.3,0.2-0.6,0.3c-0.2,0.1-0.5,0.1-0.9,0.1c-0.3,0-0.6,0-0.8,0
			c-0.2,0-0.5-0.1-0.6-0.2c-0.2-0.1-0.4-0.2-0.6-0.3c-0.2-0.1-0.4-0.3-0.6-0.5l-6.4-6.2c-1.5-1.4-2.8-2.6-4-3.4s-2.2-1.5-3.2-2
			c-1-0.5-1.8-0.8-2.6-0.9c-0.8-0.1-1.5-0.2-2.2-0.2c-0.7,0-1.3,0.1-2,0.3c-0.6,0.2-1.2,0.6-1.6,1c-0.5,0.4-0.8,1-1.1,1.6
			c-0.3,0.7-0.4,1.4-0.4,2.3c0,1,0.1,1.9,0.4,2.7c0.3,0.8,0.6,1.5,0.9,2.1c0.3,0.6,0.6,1.1,0.9,1.5c0.3,0.4,0.4,0.7,0.4,0.9
			c0,0.1,0,0.2-0.1,0.3c-0.1,0.1-0.2,0.2-0.3,0.2s-0.3,0.1-0.6,0.1c-0.2,0-0.5,0-0.9,0c-0.2,0-0.4,0-0.6,0c-0.2,0-0.3,0-0.5-0.1
			c-0.1,0-0.2-0.1-0.4-0.2c-0.1-0.1-0.3-0.2-0.4-0.4c-0.2-0.2-0.4-0.5-0.7-1c-0.3-0.5-0.6-1.1-0.9-1.8s-0.5-1.5-0.7-2.3
			c-0.2-0.9-0.3-1.8-0.3-2.7c0-1.5,0.2-2.8,0.6-3.9c0.4-1.1,1-2.1,1.7-2.8c0.7-0.7,1.6-1.3,2.6-1.7c1-0.4,2-0.6,3.1-0.6
			c1,0,2,0.1,3,0.3c1,0.2,2,0.5,3.2,1.1c1.1,0.6,2.4,1.4,3.8,2.5s3,2.5,4.8,4.3l5.1,4.9v-13.5c0-0.1,0-0.3,0.1-0.4
			c0.1-0.1,0.2-0.2,0.3-0.3c0.1-0.1,0.3-0.2,0.5-0.2S336.1-834.6,336.4-834.6z"/>
		<path class="st0" d="M330.2-860.2c1.3,0,2.5,0.2,3.6,0.7c1,0.5,1.9,1.2,2.6,2.1c0.7,0.9,1.3,2,1.6,3.3c0.4,1.3,0.6,2.8,0.6,4.6
			c0,1.6-0.2,3-0.5,4.3c-0.3,1.3-0.8,2.3-1.5,3.2c-0.7,0.9-1.5,1.5-2.4,2c-1,0.5-2.1,0.7-3.3,0.7c-1,0-1.9-0.2-2.7-0.5
			c-0.8-0.3-1.6-0.8-2.3-1.4c-0.7-0.6-1.3-1.3-1.9-2.2c-0.6-0.9-1.2-1.9-1.7-3c-0.5,1-1,1.8-1.6,2.5c-0.6,0.7-1.2,1.4-1.8,1.9
			c-0.6,0.5-1.3,0.9-2.1,1.2c-0.7,0.3-1.5,0.4-2.4,0.4c-1.1,0-2.1-0.2-3.1-0.6c-1-0.4-1.8-1-2.5-1.8c-0.7-0.8-1.3-1.8-1.7-3
			c-0.4-1.2-0.6-2.6-0.6-4.3c0-1.6,0.2-2.9,0.6-4.1c0.4-1.1,0.9-2.1,1.5-2.8c0.6-0.7,1.4-1.3,2.3-1.6c0.9-0.4,1.8-0.5,2.8-0.5
			c0.8,0,1.6,0.1,2.3,0.4s1.5,0.7,2.1,1.2c0.7,0.5,1.3,1.1,1.9,1.9c0.6,0.7,1.1,1.6,1.6,2.6c0.6-1.1,1.1-2.1,1.7-3s1.2-1.6,1.9-2.2
			c0.7-0.6,1.4-1.1,2.2-1.4S329.3-860.2,330.2-860.2z M314.3-855.1c-0.7,0-1.3,0.1-1.8,0.3s-1,0.6-1.4,1c-0.4,0.4-0.7,1-0.9,1.7
			c-0.2,0.7-0.3,1.4-0.3,2.3c0,1.7,0.4,3,1.2,3.9s1.9,1.3,3.2,1.3c0.6,0,1.2-0.1,1.7-0.3c0.5-0.2,1-0.6,1.5-1s0.9-1,1.4-1.7
			c0.5-0.7,0.9-1.5,1.4-2.5c-0.8-1.6-1.8-2.9-2.8-3.7C316.6-854.6,315.5-855.1,314.3-855.1z M330.6-856.1c-0.7,0-1.4,0.1-2,0.4
			c-0.6,0.3-1.2,0.7-1.7,1.2c-0.5,0.6-1,1.2-1.5,2.1c-0.5,0.8-1,1.8-1.5,2.9c0.5,1,1,1.9,1.5,2.6s1,1.4,1.5,1.9s1.1,0.9,1.7,1.1
			s1.2,0.4,1.9,0.4c1.5,0,2.7-0.5,3.6-1.6c0.8-1.1,1.3-2.6,1.3-4.8c0-2-0.4-3.6-1.3-4.6C333.3-855.5,332.1-856.1,330.6-856.1z"/>
	</g>
	<g class="st9">
		<path class="st0" d="M82.9-255.6c0.1,0.4,0.2,0.6,0.2,0.9c0,0.2-0.1,0.4-0.2,0.5c-0.1,0.1-0.3,0.2-0.6,0.2s-0.7,0-1.2,0
			c-0.5,0-0.9,0-1.2,0c-0.3,0-0.5-0.1-0.7-0.1c-0.2-0.1-0.3-0.1-0.3-0.2c-0.1-0.1-0.1-0.2-0.2-0.4l-2.7-7.5H63.1l-2.5,7.5
			c0,0.1-0.1,0.3-0.2,0.4s-0.2,0.2-0.3,0.3c-0.2,0.1-0.4,0.1-0.6,0.2s-0.6,0-1.1,0c-0.5,0-0.8,0-1.1-0.1c-0.3,0-0.5-0.1-0.6-0.2
			s-0.2-0.3-0.2-0.5s0.1-0.5,0.2-0.9L67-284.4c0.1-0.2,0.1-0.3,0.3-0.4c0.1-0.1,0.3-0.2,0.5-0.3c0.2-0.1,0.5-0.1,0.8-0.1
			c0.3,0,0.7,0,1.2,0c0.5,0,0.9,0,1.3,0c0.3,0,0.6,0.1,0.8,0.1c0.2,0.1,0.4,0.2,0.5,0.3c0.1,0.1,0.2,0.3,0.3,0.4L82.9-255.6z
			 M69.5-281L69.5-281l-5.4,15.5H75L69.5-281z"/>
		<path class="st0" d="M107.1-269.7c0,2.4-0.2,4.6-0.6,6.5c-0.4,2-1,3.7-1.9,5.1c-0.9,1.4-2,2.5-3.4,3.3c-1.4,0.8-3.1,1.2-5.2,1.2
			c-1.9,0-3.6-0.3-4.9-1c-1.3-0.7-2.4-1.7-3.2-3.1c-0.8-1.3-1.4-3-1.7-5c-0.3-2-0.5-4.2-0.5-6.8c0-2.4,0.2-4.5,0.6-6.5
			c0.4-2,1-3.7,1.9-5.1c0.9-1.4,2-2.5,3.4-3.3c1.4-0.8,3.1-1.2,5.2-1.2c2,0,3.6,0.3,4.9,1c1.3,0.7,2.4,1.7,3.2,3.1
			c0.8,1.3,1.4,3,1.7,5C106.9-274.5,107.1-272.3,107.1-269.7z M102.9-269.4c0-1.5-0.1-2.9-0.2-4.2c-0.1-1.2-0.3-2.3-0.5-3.3
			s-0.5-1.8-0.8-2.4c-0.3-0.7-0.8-1.2-1.2-1.7c-0.5-0.4-1-0.8-1.6-1c-0.6-0.2-1.3-0.3-2.1-0.3c-1.4,0-2.5,0.3-3.3,1
			c-0.8,0.6-1.5,1.5-2,2.6s-0.8,2.4-1,3.9c-0.2,1.5-0.3,3.1-0.3,4.8c0,2.3,0.1,4.3,0.4,5.9c0.2,1.6,0.6,2.9,1.1,4s1.2,1.8,2,2.2
			c0.8,0.5,1.8,0.7,2.9,0.7c0.9,0,1.7-0.1,2.4-0.4c0.7-0.3,1.3-0.7,1.7-1.2s0.9-1.2,1.2-1.9s0.6-1.6,0.8-2.5c0.2-0.9,0.3-1.9,0.4-3
			C102.9-267.2,102.9-268.3,102.9-269.4z"/>
	</g>
	<g class="st9">
		<path class="st0" d="M155.2-280.9c0,0.3,0,0.6,0,0.8c0,0.2-0.1,0.4-0.1,0.6c-0.1,0.2-0.1,0.3-0.2,0.3c-0.1,0.1-0.2,0.1-0.3,0.1
			c-0.2,0-0.5-0.2-1-0.5c-0.4-0.3-1-0.6-1.8-1s-1.6-0.7-2.7-1c-1-0.3-2.3-0.5-3.7-0.5c-1.7,0-3.2,0.3-4.6,0.9
			c-1.4,0.6-2.5,1.5-3.5,2.6s-1.7,2.4-2.2,3.9c-0.5,1.5-0.8,3.2-0.8,4.9c0,2,0.3,3.7,0.8,5.3c0.6,1.5,1.3,2.8,2.3,3.9
			s2.1,1.9,3.5,2.4c1.3,0.5,2.8,0.8,4.4,0.8c1,0,1.9-0.1,2.9-0.3s1.9-0.6,2.7-1v-9h-7.2c-0.3,0-0.5-0.1-0.6-0.4s-0.2-0.7-0.2-1.3
			c0-0.3,0-0.6,0-0.8c0-0.2,0.1-0.4,0.2-0.5c0.1-0.1,0.2-0.2,0.3-0.3c0.1-0.1,0.2-0.1,0.4-0.1h9.8c0.2,0,0.4,0,0.5,0.1
			c0.2,0.1,0.3,0.2,0.5,0.3s0.3,0.3,0.3,0.5c0.1,0.2,0.1,0.5,0.1,0.8v11.8c0,0.4-0.1,0.8-0.2,1.1c-0.1,0.3-0.4,0.6-0.9,0.8
			c-0.5,0.2-1.1,0.5-1.8,0.8c-0.7,0.3-1.5,0.5-2.3,0.7c-0.8,0.2-1.6,0.3-2.4,0.4c-0.8,0.1-1.6,0.1-2.4,0.1c-2.4,0-4.5-0.4-6.4-1.1
			c-1.9-0.7-3.5-1.8-4.8-3.2c-1.3-1.4-2.3-3-3-4.9c-0.7-1.9-1-4.1-1-6.4c0-2.5,0.4-4.7,1.1-6.7s1.8-3.7,3.1-5.1
			c1.3-1.4,3-2.5,4.9-3.3c1.9-0.8,4-1.2,6.3-1.2c1.2,0,2.3,0.1,3.3,0.3c1,0.2,2,0.5,2.8,0.7c0.8,0.3,1.5,0.6,2,0.9
			c0.6,0.3,0.9,0.6,1.1,0.8c0.2,0.2,0.4,0.4,0.4,0.7S155.2-281.4,155.2-280.9z"/>
	</g>
	<g class="st9">
		<path class="st0" d="M214.7-264.9c0,0.3,0,0.6-0.1,0.8c0,0.2-0.1,0.4-0.2,0.5c-0.1,0.1-0.2,0.2-0.3,0.3c-0.1,0.1-0.2,0.1-0.4,0.1
			h-7.9v8.7c0,0.1,0,0.2-0.1,0.3s-0.2,0.2-0.3,0.2c-0.1,0.1-0.3,0.1-0.5,0.2s-0.5,0.1-0.8,0.1c-0.3,0-0.6,0-0.8-0.1
			s-0.4-0.1-0.6-0.2c-0.1-0.1-0.2-0.1-0.3-0.2c-0.1-0.1-0.1-0.2-0.1-0.3v-8.7h-7.9c-0.1,0-0.3,0-0.4-0.1c-0.1-0.1-0.2-0.2-0.3-0.3
			c-0.1-0.1-0.1-0.3-0.2-0.5c0-0.2-0.1-0.5-0.1-0.8c0-0.3,0-0.5,0.1-0.8s0.1-0.4,0.2-0.5c0.1-0.1,0.2-0.2,0.3-0.3
			c0.1-0.1,0.2-0.1,0.3-0.1h7.9v-8.7c0-0.1,0-0.2,0.1-0.3c0.1-0.1,0.2-0.2,0.3-0.3c0.1-0.1,0.3-0.1,0.6-0.2c0.2,0,0.5-0.1,0.8-0.1
			c0.3,0,0.6,0,0.8,0.1c0.2,0,0.4,0.1,0.5,0.2c0.1,0.1,0.2,0.2,0.3,0.3c0.1,0.1,0.1,0.2,0.1,0.3v8.7h7.9c0.1,0,0.2,0,0.3,0.1
			s0.2,0.2,0.3,0.3c0.1,0.1,0.2,0.3,0.2,0.5S214.7-265.2,214.7-264.9z"/>
	</g>
	<g class="st9">
		<path class="st0" d="M263-270.1c0,2.7-0.3,5-1,7c-0.7,2-1.7,3.7-3,5c-1.3,1.3-2.9,2.3-4.9,3s-4.2,1-6.9,1h-6.6
			c-0.4,0-0.7-0.1-1-0.4c-0.3-0.2-0.5-0.7-0.5-1.3v-27.7c0-0.6,0.2-1.1,0.5-1.3c0.3-0.2,0.7-0.4,1-0.4h7c2.7,0,5,0.3,6.8,1
			c1.9,0.7,3.4,1.7,4.7,3c1.3,1.3,2.2,2.9,2.9,4.7C262.7-274.5,263-272.4,263-270.1z M258.7-269.9c0-1.7-0.2-3.2-0.6-4.7
			c-0.4-1.4-1.1-2.7-2-3.8s-2-1.9-3.4-2.5c-1.4-0.6-3.1-0.9-5.2-0.9h-4.2v24.1h4.2c2,0,3.7-0.2,5-0.7c1.4-0.5,2.5-1.3,3.4-2.3
			c0.9-1,1.6-2.3,2-3.8C258.4-266,258.7-267.8,258.7-269.9z"/>
		<path class="st0" d="M288.4-269.7c0,2.4-0.2,4.6-0.6,6.5c-0.4,2-1,3.7-1.9,5.1c-0.9,1.4-2,2.5-3.4,3.3c-1.4,0.8-3.1,1.2-5.2,1.2
			c-1.9,0-3.6-0.3-4.9-1c-1.3-0.7-2.4-1.7-3.2-3.1c-0.8-1.3-1.4-3-1.7-5c-0.3-2-0.5-4.2-0.5-6.8c0-2.4,0.2-4.5,0.6-6.5
			c0.4-2,1-3.7,1.9-5.1c0.9-1.4,2-2.5,3.4-3.3c1.4-0.8,3.1-1.2,5.2-1.2c2,0,3.6,0.3,4.9,1c1.3,0.7,2.4,1.7,3.2,3.1
			c0.8,1.3,1.4,3,1.7,5C288.2-274.5,288.4-272.3,288.4-269.7z M284.2-269.4c0-1.5-0.1-2.9-0.2-4.2c-0.1-1.2-0.3-2.3-0.5-3.3
			s-0.5-1.8-0.8-2.4c-0.3-0.7-0.8-1.2-1.2-1.7c-0.5-0.4-1-0.8-1.6-1c-0.6-0.2-1.3-0.3-2.1-0.3c-1.4,0-2.5,0.3-3.3,1
			c-0.8,0.6-1.5,1.5-2,2.6s-0.8,2.4-1,3.9c-0.2,1.5-0.3,3.1-0.3,4.8c0,2.3,0.1,4.3,0.4,5.9c0.2,1.6,0.6,2.9,1.1,4s1.2,1.8,2,2.2
			c0.8,0.5,1.8,0.7,2.9,0.7c0.9,0,1.7-0.1,2.4-0.4c0.7-0.3,1.3-0.7,1.7-1.2s0.9-1.2,1.2-1.9s0.6-1.6,0.8-2.5c0.2-0.9,0.3-1.9,0.4-3
			C284.2-267.2,284.2-268.3,284.2-269.4z"/>
	</g>
</g>
</svg>
