<?xml version="1.0" encoding="utf-8"?>
<!-- Generator: Adobe Illustrator 27.8.0, SVG Export Plug-In . SVG Version: 6.00 Build 0)  -->
<svg version="1.1"
	 id="svg8" xmlns:svg="http://www.w3.org/2000/svg" xmlns:rdf="http://www.w3.org/1999/02/22-rdf-syntax-ns#" xmlns:sodipodi="http://sodipodi.sourceforge.net/DTD/sodipodi-0.dtd" xmlns:dc="http://purl.org/dc/elements/1.1/" xmlns:inkscape="http://www.inkscape.org/namespaces/inkscape" xmlns:cc="http://creativecommons.org/ns#" inkscape:export-xdpi="93" inkscape:export-ydpi="93" inkscape:version="0.92.4 (5da689c313, 2019-01-14)"
	 xmlns="http://www.w3.org/2000/svg" xmlns:xlink="http://www.w3.org/1999/xlink" x="0px" y="0px" viewBox="0 0 364 1081"
	 style="enable-background:new 0 0 364 1081;" xml:space="preserve">
<style type="text/css">
	.st0{fill:#FFFFFF;}
	.st1{fill:#1A1A1A;}
	.st2{opacity:0.99;fill:#808080;enable-background:new    ;}
	.st3{fill:#CCCCCC;}
	.st4{fill:#0000FF;}
	.st5{fill:#AB9C38;}
	.st6{fill:#978521;}
	.st7{fill:#333333;}
	.st8{fill:#999999;}
	.st9{enable-background:new    ;}
</style>
<defs>
	
		<inkscape:perspective  id="perspective876" inkscape:persp3d-origin="105 : 98.99998 : 1" inkscape:vp_x="0 : 148.49996 : 1" inkscape:vp_y="0 : 999.99979 : 0" inkscape:vp_z="210.00001 : 148.49996 : 1" sodipodi:type="inkscape:persp3d">
		</inkscape:perspective>
</defs>
<sodipodi:namedview  bordercolor="#666666" borderopacity="1.0" id="base" inkscape:current-layer="layer1" inkscape:cx="-124.64576" inkscape:cy="2013.9315" inkscape:document-units="mm" inkscape:lockguides="false" inkscape:pageopacity="0" inkscape:pageshadow="2" inkscape:window-height="1017" inkscape:window-maximized="1" inkscape:window-width="1920" inkscape:window-x="-8" inkscape:window-y="-8" inkscape:zoom="0.16000001" pagecolor="#323232" showgrid="false" showguides="true" width="500mm">
	</sodipodi:namedview>
<g id="layer1" transform="translate(0.31582593,1037.811)" inkscape:groupmode="layer" inkscape:label="Ebene 1">
	<path id="rect815" inkscape:connector-curvature="0" d="M282.8-1032.5v176.4l-202.2,0.2v-176.2H-0.3v176.3v0.9h0l0.5,728.7
		l363.7-0.4l-0.5-728.7h0.3v-177.1H282.8z"/>
	<rect id="rect821" x="54.5" y="-196.2" class="st0" width="254.7" height="64.6"/>
	<path id="rect825" class="st1" d="M67.7-192.4l38,0c6.6,0,12,5.4,12,12l0,33.3c0,6.6-5.4,12-12,12l-38,0c-6.6,0-12-5.4-12-12
		l0-33.3C55.7-187,61.1-192.4,67.7-192.4z"/>
	<path id="rect872" class="st1" d="M194.4-192.5l38,0c6.6,0,12,5.4,12,12l0,33.3c0,6.6-5.4,12-12,12l-38,0c-6.6,0-12-5.4-12-12
		l0-33.3C182.4-187.1,187.8-192.5,194.4-192.5z"/>
	<path id="rect874" class="st1" d="M129.5-192.4l41.1,0c5.8,0,10.5,4.7,10.5,10.5l0,36.4c0,5.8-4.7,10.5-10.5,10.5l-41.1,0
		c-5.8,0-10.5-4.7-10.5-10.5l0-36.4C119.1-187.8,123.7-192.4,129.5-192.4z"/>
	<rect id="rect947" x="83.3" y="-161.2" class="st2" width="6.4" height="121.3"/>
	<rect id="rect949" x="147" y="-161.3" class="st2" width="6.4" height="121.3"/>
	<rect id="rect951" x="210" y="-161.3" class="st2" width="6.4" height="121.3"/>
	<g id="flowRoot969" transform="translate(121.05234,19.412821)">
	</g>
	<g id="flowRoot1466" transform="translate(121.05234,19.412821)">
	</g>
	<g id="flowRoot1529" transform="translate(121.05234,19.412821)">
	</g>
	<rect id="rect87" x="51.2" y="-412" width="259.4" height="65.3"/>
	<path id="path31-1" inkscape:connector-curvature="0" class="st0" d="M103.3-712.6c2.3,0,2.5-0.1,2.9-0.3c0.3-0.2,0.6-0.5,0.7-0.7
		c0.2-0.4,0.3-0.7,0.3-5.3l0-4.9l4.8,0l4.8,0l0,6.1c0,6.7,0,7.3-0.7,9.1c-0.9,2.3-2.3,3.4-5,4c-0.7,0.2-1.6,0.2-4.4,0.2
		c-1.9,0-4-0.1-4.7-0.1l-1.2-0.1l0-4l0-4L103.3-712.6L103.3-712.6z M149.1-699c41.1,0,51.2,0,49.5,0.2l-0.3,0l0.3,0.1
		c0.2,0.1,0.2,0.1-0.2,0.1c-0.3,0-0.2,0.1,0.4,0.1l0.9,0.1l-0.9,0c-0.5,0-0.7,0.1-0.6,0.1c0.2,0.1,0.2,0.2,0.2,1.1
		c0,1.1,0,1.1,0.4,1.1c0.3,0,0.2,0.1-0.2,0.1c-0.3,0-0.6,0.1-0.6,0.1c0,0.1-16.3,0.1-48.6,0.2l-48.6,0l0-1.7l0-1.7L149.1-699z
		 M112.1-736.4l4.9,0l0,3.9l0,3.9l-4.9,0l-4.9,0l0-3.9l0-3.9L112.1-736.4z M121.9-721.8c0.3-2.2,1-4.2,1.8-6
		c0.3-0.6,0.6-1.2,0.7-1.2c0,0,0.3-0.4,0.5-0.8c0.5-0.8,1.7-2.2,1.9-2.4c0.1-0.1,0.2-0.2,0.2-0.2c0-0.2,1.2-1.3,2.2-1.9
		c1-0.7,1.8-1.1,3.6-1.8c2.1-0.8,3.3-1,5.8-0.9c1.8,0.1,2.3,0.1,3.4,0.5c0.7,0.2,1.6,0.5,1.9,0.7c0.3,0.1,0.7,0.3,0.8,0.3
		c0.1,0,0.6,0.3,1.2,0.6c2.3,1.3,5.5,4.9,6.7,7.6c1.9,4.2,2.2,8.4,0.7,12.3c-0.6,1.6-1,2.6-1.8,3.7c-0.8,1.3-0.9,1.4-2.9,3.4
		c-2.3,2.3-3.9,3.2-6.9,4c-1.5,0.4-4.5,0.6-6.1,0.3c-2.1-0.3-4.9-1.5-6.6-2.8c-0.9-0.7-2.1-1.7-2.1-1.8c0,0-0.3-0.4-0.7-0.7
		c-1.7-1.8-3.5-5.3-4.2-8.1C121.9-718.2,121.8-721,121.9-721.8L121.9-721.8z M131.2-717.8c0.5,1.8,1.4,3.4,2.8,4.8
		c1.5,1.4,3.8,1.9,5.8,1.3c2.2-0.7,4.4-3.3,5.1-6c0.4-1.6,0.4-3.9-0.1-5.4c-0.6-2.2-1.8-3.9-3.4-5c-0.7-0.5-1.1-0.7-1.8-0.8
		c-1.6-0.3-3.3-0.1-4.5,0.5c-1,0.5-2.3,2-3.1,3.5C130.8-722.8,130.5-720.2,131.2-717.8L131.2-717.8z M158.4-736.4c0.1,0,2.3,0,4.9,0
		l4.7,0l0,4.3c0,4.1,0,4.4,0.3,5.1c0.7,1.8,2.9,2.8,4.9,2.2c1-0.3,1.7-0.9,2.2-1.9l0.4-0.8l0-4.5l0-4.5l4.9,0l4.9,0l0,5.1
		c0,4.7-0.1,5.2-0.3,6.1c-0.5,2-1.4,3.7-2.5,5c-0.3,0.3-0.5,0.7-0.5,0.7c0,0.2-1.2,1.3-2.3,2.1c-0.9,0.7-2.2,1.4-2.9,1.5
		c-0.2,0-0.9,0.2-1.5,0.4c-1,0.3-1.3,0.3-3.5,0.3c-2.2,0-2.5,0-3.7-0.4c-1.9-0.5-2.6-0.8-3.9-1.6c-1.5-0.9-2.7-2.2-3.7-3.7
		c-1.4-2.1-2-3.7-2.4-6.2C158.2-728.6,158.2-736.3,158.4-736.4L158.4-736.4z M172-712.5l7.9,0l0,4.1l0,4.1l-7.9,0l-7.9,0l0-4.1
		l0-4.1L172-712.5z M185.5-742.7c0.1,0,0.1-0.2,0.1-0.5c0-0.5,0-0.5,0.6-0.6c0.3,0,13.8-0.1,29.9-0.1l29.3,0l0,1.7l0,1.7l-29.8,0
		c-16.4,0-29.8,0-30-0.1c-0.2-0.1-0.2-0.3-0.2-1.2C185.4-742.2,185.5-742.7,185.5-742.7L185.5-742.7z M198.9-723.1l10.1,0l0,4l0,4
		l-10.1,0l-10.1,0l0-4l0-4L198.9-723.1z M217-736.5l4.9,0l0,3.9l0,3.9l-4.9,0l-4.9,0l0-3.9l0-3.9L217-736.5z M217-724.4l4.9,0
		l0,10.2l0,10.2l-4.9,0l-4.9,0l0-10.2l0-10.2L217-724.4z M236.4-736.5l10.2,0l0,3.9l0,3.9l-10.2,0l-10.2,0l0-3.9l0-3.9L236.4-736.5z
		 M227.9-723.9c0.1,0,2.2-0.1,4.8-0.1l4.7,0l0,4.7c0.1,6.6-0.2,6.2,4.7,6.3l3.1,0l0,4.1l0,4.1l-1.2,0.1c-1.7,0.2-7.3,0.2-8.8,0
		c-2.6-0.4-4.3-1.2-5.4-2.5c-1.2-1.4-1.7-2.8-2-5.1C227.8-713.6,227.7-723.8,227.9-723.9L227.9-723.9z M252.2-740.4
		c0.2-0.9,0.7-1.7,1.3-2.2c2.2-1.9,4.8-2.1,7-0.5c1,0.7,1.3,1,1.7,2c0.3,0.7,0.4,0.9,0.4,2.1c0,1.2,0,1.4-0.4,2.2
		c-0.7,1.6-2.6,2.8-4.4,3c-1.7,0.1-3-0.4-4.3-1.7C252.3-736.7,251.7-738.7,252.2-740.4L252.2-740.4z M253.2-737
		c0.4,1,1.8,2.1,3.2,2.4c1.4,0.3,2.5,0.1,4.1-1.1c0.4-0.3,0.7-0.7,1-1.3c0.4-0.8,0.4-1,0.4-2c0-1,0-1.2-0.5-2
		c-0.4-0.7-0.6-1-1.2-1.4c-0.4-0.3-1.1-0.6-1.4-0.8c-2.2-0.7-4.9,0.5-5.8,2.6C252.7-739.8,252.8-738,253.2-737z M256.8-742.1
		c1,0,1.9,0.1,2.1,0.1c0.8,0.3,1.2,1.8,0.6,2.5c-0.1,0.2-0.5,0.4-0.7,0.5l-0.4,0.2l0.5,0.5c0.2,0.3,0.6,0.8,0.9,1.2s0.5,0.7,0.5,0.8
		c0.3,0.2,0.1,0.3-0.4,0.3l-0.6,0l-0.8-1.2c-0.8-1.3-1-1.5-2-1.5l-0.6,0l0,1.4l0,1.4l-0.4,0l-0.4,0l0-3l0-3L256.8-742.1z M257-739.5
		c1,0,1.2,0,1.5-0.3c0.7-0.6,0.3-1.5-0.7-1.6c-0.4-0.1-1.7,0-1.9,0c0,0,0,0.4,0,0.9l0,0.9L257-739.5z"/>
	<path id="rect64" class="st1" d="M257.3-192.5l38,0c6.6,0,12,5.4,12,12l0,33.3c0,6.6-5.4,12-12,12l-38,0c-6.6,0-12-5.4-12-12
		l0-33.3C245.3-187.1,250.7-192.5,257.3-192.5z"/>
	<rect id="rect66" x="272.9" y="-161.3" class="st2" width="6.4" height="121.3"/>
	<circle id="path107" class="st3" cx="181.7" cy="-326.2" r="89"/>
	<circle id="path133" class="st0" cx="181.7" cy="-326.2" r="72.8"/>
	<rect id="rect137" x="-0.3" y="-666.9" class="st0" width="137.5" height="242.7"/>
	<rect id="rect141" x="-0.3" y="-661.9" width="129.4" height="233"/>
	<rect id="rect139" x="3.7" y="-662.7" class="st4" width="129.4" height="234.6"/>
	
		<circle id="path144" inkscape:transform-center-x="7.5703852" inkscape:transform-center-y="6.4056526" class="st5" cx="24" cy="-448.4" r="20.2">
	</circle>
	<rect id="rect952" x="3.7" y="-451.6" class="st6" width="40.4" height="6.5"/>
	<rect id="rect956" x="187.3" y="-626.3" class="st0" width="176.3" height="137.5"/>
	<rect id="rect958" x="191.4" y="-622.3" width="168.2" height="129.4"/>
	<rect id="rect960" x="218.9" y="-614.2" class="st7" width="113.2" height="113.2"/>
	<rect id="rect962" x="218.9" y="-500.9" class="st3" width="20.2" height="32.4"/>
	<rect id="rect964" x="311.9" y="-500.9" class="st3" width="20.2" height="32.4"/>
	<rect id="rect966" x="247.2" y="-500.9" class="st3" width="20.2" height="32.4"/>
	<rect id="rect968" x="283.6" y="-500.9" class="st3" width="20.2" height="32.4"/>
	<rect id="rect970" x="218.9" y="-646.5" class="st3" width="20.2" height="32.4"/>
	<rect id="rect972" x="311.9" y="-646.5" class="st3" width="20.2" height="32.4"/>
	<rect id="rect974" x="247.2" y="-646.5" class="st3" width="20.2" height="32.4"/>
	<rect id="rect976" x="283.6" y="-646.5" class="st3" width="20.2" height="32.4"/>
	<polygon id="rect978" class="st2" points="225.8,-505 232.2,-505 232.3,-484.8 225.9,-484.8 	"/>
	<polygon id="rect980" class="st2" points="254.1,-505 260.5,-505 260.6,-484.8 254.2,-484.8 	"/>
	<polygon id="rect982" class="st2" points="290.5,-505 296.9,-505 297,-484.8 290.6,-484.8 	"/>
	<polygon id="rect984" class="st2" points="318.8,-505 325.2,-505 325.3,-484.8 318.9,-484.8 	"/>
	<polygon id="rect986" class="st2" points="225.8,-610.1 232.2,-610.1 232.3,-630.4 225.9,-630.4 	"/>
	<polygon id="rect988" class="st2" points="254.1,-610.1 260.5,-610.1 260.6,-630.4 254.2,-630.4 	"/>
	<polygon id="rect990" class="st2" points="290.5,-610.1 296.9,-610.1 297,-630.4 290.6,-630.4 	"/>
	<polygon id="rect992" class="st2" points="318.8,-610.1 325.2,-610.1 325.3,-630.4 318.9,-630.4 	"/>
	<circle id="path994" class="st3" cx="323.2" cy="-953.9" r="28.3"/>
	<circle id="circle996" class="st3" cx="40.1" cy="-953.9" r="28.3"/>
	<path id="rect836-7" class="st3" d="M145-844.7h12.1c12.3,0,22.2,10,22.2,22.2l0,0c0,12.3-10,22.2-22.2,22.2H145
		c-12.3,0-22.2-10-22.2-22.2l0,0C122.8-834.7,132.7-844.7,145-844.7z"/>
	<path id="rect836-6" class="st3" d="M205.7-844.7h12.1c12.3,0,22.2,10,22.2,22.2l0,0c0,12.3-10,22.2-22.2,22.2h-12.1
		c-12.3,0-22.2-10-22.2-22.2l0,0C183.4-834.7,193.4-844.7,205.7-844.7z"/>
	
		<rect id="rect943" x="254.1" y="-844.7" transform="matrix(1 -8.295600e-03 8.295600e-03 1 6.782 2.254)" class="st3" width="41.9" height="56.6"/>
	<path id="rect1026" class="st3" d="M71.6-794.1l0-41.4c0-5.3,4.3-9.6,9.6-9.6l22.8,0c5.3,0,9.6,4.3,9.6,9.6l0,41.4
		c0,5.3-4.3,9.6-9.6,9.6l-22.8,0C75.9-784.5,71.6-788.8,71.6-794.1z"/>
	<circle id="path1028" class="st0" cx="92.6" cy="-804.7" r="12.1"/>
	<path id="rect1030" class="st3" d="M68.1-823.2l0.1,12.3c0.1,12.2-9.7,22.3-21.9,22.4l0,0c-12.2,0.1-22.3-9.7-22.4-21.9l-0.1-12.3
		c-0.1-12.2,9.7-22.3,21.9-22.4l0,0C58-845.3,68-835.5,68.1-823.2z"/>
	<circle id="circle105" class="st0" cx="46" cy="-816.8" r="16.2"/>
	<circle id="path138" class="st0" cx="40.1" cy="-953.9" r="24.3"/>
	<circle id="circle140" class="st0" cx="323.2" cy="-953.9" r="24.3"/>
	<circle id="circle147" class="st0" cx="275.1" cy="-816.8" r="16.2"/>
	<rect id="rect142" x="148.3" y="-904" class="st2" width="6.4" height="84"/>
	<rect id="rect144" x="209" y="-902.9" class="st2" width="6.4" height="82.8"/>
	<rect id="rect101" x="93.3" y="-959.8" class="st8" width="178" height="60.2"/>
	<rect id="rect105" x="97.3" y="-967.9" width="169.9" height="8.1"/>
	<g class="st9">
		<path d="M133.3-34.2c0,0.3,0,0.5,0,0.7c0,0.2-0.1,0.4-0.1,0.5s-0.1,0.2-0.2,0.3c-0.1,0.1-0.2,0.1-0.3,0.1c-0.2,0-0.4-0.1-0.8-0.4
			c-0.4-0.3-0.9-0.5-1.5-0.9s-1.4-0.6-2.3-0.9c-0.9-0.3-2-0.4-3.2-0.4c-1.5,0-2.8,0.3-4,0.8c-1.2,0.5-2.2,1.3-3,2.2
			c-0.8,0.9-1.4,2.1-1.9,3.4c-0.4,1.3-0.6,2.7-0.6,4.2c0,1.7,0.2,3.2,0.7,4.5c0.5,1.3,1.1,2.4,2,3.3s1.8,1.6,3,2.1
			c1.2,0.5,2.4,0.7,3.8,0.7c0.8,0,1.7-0.1,2.5-0.3s1.6-0.5,2.4-0.9v-7.8h-6.2c-0.2,0-0.4-0.1-0.5-0.3c-0.1-0.2-0.2-0.6-0.2-1.1
			c0-0.3,0-0.5,0-0.7c0-0.2,0.1-0.3,0.1-0.5c0.1-0.1,0.1-0.2,0.2-0.3c0.1-0.1,0.2-0.1,0.3-0.1h8.5c0.2,0,0.3,0,0.5,0.1
			c0.2,0.1,0.3,0.1,0.4,0.2c0.1,0.1,0.2,0.3,0.3,0.5c0.1,0.2,0.1,0.4,0.1,0.7v10.2c0,0.4-0.1,0.7-0.2,0.9s-0.4,0.5-0.8,0.7
			s-0.9,0.4-1.5,0.6c-0.6,0.2-1.3,0.4-2,0.6c-0.7,0.2-1.4,0.3-2,0.4c-0.7,0.1-1.4,0.1-2,0.1c-2.1,0-3.9-0.3-5.5-1
			c-1.6-0.6-3-1.5-4.1-2.7c-1.1-1.2-2-2.6-2.6-4.2c-0.6-1.6-0.9-3.5-0.9-5.5c0-2.1,0.3-4,1-5.8c0.6-1.7,1.5-3.2,2.7-4.4
			c1.2-1.2,2.6-2.1,4.2-2.8c1.6-0.7,3.4-1,5.4-1c1,0,2,0.1,2.9,0.3c0.9,0.2,1.7,0.4,2.4,0.6c0.7,0.2,1.3,0.5,1.8,0.8
			c0.5,0.3,0.8,0.5,1,0.7c0.2,0.2,0.3,0.4,0.4,0.6C133.2-34.9,133.3-34.6,133.3-34.2z"/>
		<path d="M160-12.6c0,0.3,0,0.5-0.1,0.7c-0.1,0.2-0.2,0.4-0.4,0.5c-0.1,0.1-0.3,0.2-0.5,0.3s-0.4,0.1-0.6,0.1h-1.2
			c-0.4,0-0.7,0-1-0.1c-0.3-0.1-0.5-0.2-0.8-0.4c-0.2-0.2-0.5-0.5-0.7-0.8s-0.5-0.8-0.8-1.3l-8.1-15.2c-0.4-0.8-0.9-1.6-1.3-2.5
			c-0.4-0.9-0.8-1.7-1.2-2.5h0c0,1,0,2,0.1,3s0,2.1,0,3.1v16.1c0,0.1,0,0.2-0.1,0.3c-0.1,0.1-0.2,0.2-0.3,0.2
			c-0.1,0-0.3,0.1-0.5,0.1S142-11,141.6-11s-0.6,0-0.9-0.1s-0.4-0.1-0.5-0.1c-0.1,0-0.2-0.1-0.3-0.2c-0.1-0.1-0.1-0.2-0.1-0.3v-24.6
			c0-0.5,0.2-0.9,0.5-1.2c0.3-0.2,0.7-0.3,1-0.3h1.7c0.4,0,0.8,0,1,0.1c0.3,0.1,0.5,0.2,0.7,0.3c0.2,0.2,0.4,0.4,0.6,0.7
			c0.2,0.3,0.4,0.6,0.6,1.1l6.3,11.7c0.4,0.7,0.8,1.4,1.1,2.1c0.4,0.7,0.7,1.3,1,2s0.7,1.3,1,1.9s0.6,1.3,1,1.9h0
			c0-1.1,0-2.2-0.1-3.4s0-2.3,0-3.4v-14.5c0-0.1,0-0.2,0.1-0.3c0.1-0.1,0.2-0.2,0.3-0.2c0.1-0.1,0.3-0.1,0.5-0.1c0.2,0,0.5,0,0.9,0
			c0.3,0,0.6,0,0.8,0c0.2,0,0.4,0.1,0.5,0.1c0.1,0.1,0.2,0.1,0.3,0.2c0.1,0.1,0.1,0.2,0.1,0.3V-12.6z"/>
		<path d="M187.6-24.9c0,2.3-0.3,4.3-0.9,6c-0.6,1.7-1.5,3.2-2.6,4.3c-1.1,1.1-2.5,2-4.2,2.5s-3.6,0.8-5.9,0.8h-5.6
			c-0.3,0-0.6-0.1-0.9-0.3s-0.4-0.6-0.4-1.1v-23.8c0-0.5,0.1-0.9,0.4-1.1s0.6-0.3,0.9-0.3h6c2.3,0,4.3,0.3,5.9,0.9
			c1.6,0.6,2.9,1.5,4,2.6c1.1,1.1,1.9,2.5,2.5,4.1S187.6-26.9,187.6-24.9z M183.9-24.7c0-1.4-0.2-2.8-0.5-4
			c-0.4-1.2-0.9-2.3-1.7-3.2c-0.8-0.9-1.7-1.6-2.9-2.1c-1.2-0.5-2.7-0.8-4.5-0.8h-3.6v20.8h3.6c1.7,0,3.1-0.2,4.3-0.6s2.1-1.1,2.9-2
			c0.8-0.9,1.4-2,1.8-3.3S183.9-22.9,183.9-24.7z"/>
	</g>
	<g class="st9">
		<path d="M244.3-21.6c0,2.3-0.3,4.3-0.9,6c-0.6,1.7-1.5,3.2-2.6,4.3c-1.1,1.1-2.5,2-4.2,2.5s-3.6,0.8-5.9,0.8h-5.6
			c-0.3,0-0.6-0.1-0.9-0.3c-0.3-0.2-0.4-0.6-0.4-1.1v-23.8c0-0.5,0.1-0.9,0.4-1.1s0.6-0.3,0.9-0.3h6c2.3,0,4.3,0.3,5.9,0.9
			c1.6,0.6,2.9,1.5,4,2.6c1.1,1.1,1.9,2.5,2.5,4.1S244.3-23.6,244.3-21.6z M240.6-21.4c0-1.4-0.2-2.8-0.5-4
			c-0.4-1.2-0.9-2.3-1.7-3.2c-0.8-0.9-1.7-1.6-2.9-2.1c-1.2-0.5-2.7-0.8-4.5-0.8h-3.6v20.8h3.6c1.7,0,3.1-0.2,4.3-0.6s2.1-1.1,2.9-2
			c0.8-0.9,1.4-2,1.8-3.3S240.6-19.6,240.6-21.4z"/>
		<path d="M253.2-33.2c0,0.8-0.2,1.3-0.5,1.6c-0.3,0.3-0.9,0.4-1.7,0.4c-0.8,0-1.3-0.1-1.6-0.4c-0.3-0.3-0.4-0.8-0.4-1.6
			c0-0.8,0.2-1.3,0.5-1.6c0.3-0.3,0.9-0.4,1.7-0.4c0.8,0,1.3,0.1,1.6,0.4C253.1-34.5,253.2-33.9,253.2-33.2z M252.8-8.4
			c0,0.1,0,0.2-0.1,0.3c-0.1,0.1-0.1,0.1-0.3,0.2c-0.1,0.1-0.3,0.1-0.5,0.1s-0.5,0-0.8,0c-0.3,0-0.6,0-0.8,0s-0.4-0.1-0.5-0.1
			c-0.1-0.1-0.2-0.1-0.3-0.2c0-0.1-0.1-0.2-0.1-0.3v-18.5c0-0.1,0-0.2,0.1-0.3c0-0.1,0.1-0.2,0.3-0.2c0.1-0.1,0.3-0.1,0.5-0.1
			s0.5,0,0.8,0c0.3,0,0.6,0,0.8,0s0.4,0.1,0.5,0.1c0.1,0.1,0.2,0.1,0.3,0.2c0.1,0.1,0.1,0.2,0.1,0.3V-8.4z"/>
		<path d="M274.6-26.1c0,0.5-0.1,0.8-0.2,1c-0.1,0.2-0.3,0.3-0.5,0.3h-2.7c0.5,0.5,0.8,1,1,1.6c0.2,0.6,0.3,1.2,0.3,1.9
			c0,1.1-0.2,2-0.5,2.8s-0.8,1.5-1.5,2.1c-0.6,0.6-1.4,1-2.3,1.3c-0.9,0.3-1.9,0.5-2.9,0.5c-0.8,0-1.5-0.1-2.2-0.3
			c-0.7-0.2-1.2-0.4-1.6-0.8c-0.2,0.2-0.5,0.5-0.6,0.8c-0.2,0.3-0.2,0.7-0.2,1.1c0,0.5,0.2,0.9,0.7,1.2c0.4,0.3,1,0.5,1.8,0.5
			l4.8,0.2c0.9,0,1.8,0.2,2.5,0.4c0.8,0.2,1.4,0.5,2,1s1,0.9,1.3,1.5c0.3,0.6,0.5,1.3,0.5,2.1c0,0.9-0.2,1.7-0.5,2.4
			c-0.4,0.8-0.9,1.4-1.6,2c-0.7,0.6-1.7,1-2.8,1.4s-2.5,0.5-4,0.5c-1.5,0-2.8-0.1-3.8-0.4c-1.1-0.3-1.9-0.6-2.6-1
			c-0.7-0.4-1.2-1-1.5-1.6c-0.3-0.6-0.5-1.3-0.5-2c0-0.5,0.1-0.9,0.2-1.3s0.3-0.8,0.5-1.2c0.2-0.4,0.5-0.8,0.8-1.1s0.7-0.7,1.2-1
			c-0.7-0.3-1.2-0.8-1.5-1.3c-0.3-0.5-0.5-1.1-0.5-1.7c0-0.8,0.2-1.6,0.5-2.2c0.3-0.7,0.8-1.2,1.3-1.8c-0.4-0.5-0.8-1.1-1-1.7
			c-0.2-0.6-0.4-1.4-0.4-2.3c0-1.1,0.2-2,0.5-2.8c0.4-0.8,0.9-1.5,1.5-2.1c0.6-0.6,1.4-1,2.3-1.3c0.9-0.3,1.9-0.5,2.9-0.5
			c0.6,0,1.1,0,1.6,0.1c0.5,0.1,0.9,0.1,1.4,0.3h5.6c0.2,0,0.4,0.1,0.5,0.3C274.5-26.9,274.6-26.5,274.6-26.1z M271-6.5
			c0-0.8-0.3-1.4-1-1.8c-0.7-0.4-1.5-0.7-2.6-0.7l-4.8-0.2c-0.4,0.3-0.8,0.7-1.1,1c-0.3,0.3-0.5,0.6-0.7,0.9s-0.3,0.6-0.3,0.8
			c-0.1,0.3-0.1,0.6-0.1,0.8c0,0.9,0.5,1.6,1.4,2c0.9,0.5,2.2,0.7,3.8,0.7c1,0,1.9-0.1,2.6-0.3c0.7-0.2,1.3-0.5,1.7-0.8
			s0.7-0.7,0.9-1.1S271-6,271-6.5z M269.3-21.2c0-1.3-0.3-2.2-1-3c-0.7-0.7-1.7-1.1-3-1.1c-0.7,0-1.2,0.1-1.7,0.3s-0.9,0.5-1.2,0.9
			c-0.3,0.4-0.6,0.8-0.7,1.3c-0.2,0.5-0.2,1-0.2,1.6c0,1.2,0.3,2.2,1,2.9c0.7,0.7,1.7,1.1,2.9,1.1c0.7,0,1.3-0.1,1.8-0.3
			s0.9-0.5,1.2-0.9c0.3-0.4,0.6-0.8,0.7-1.3C269.2-20.1,269.3-20.6,269.3-21.2z"/>
		<path d="M282.8-33.2c0,0.8-0.2,1.3-0.5,1.6c-0.3,0.3-0.9,0.4-1.7,0.4c-0.8,0-1.3-0.1-1.6-0.4c-0.3-0.3-0.4-0.8-0.4-1.6
			c0-0.8,0.2-1.3,0.5-1.6c0.3-0.3,0.9-0.4,1.7-0.4c0.8,0,1.3,0.1,1.6,0.4C282.6-34.5,282.8-33.9,282.8-33.2z M282.4-8.4
			c0,0.1,0,0.2-0.1,0.3c-0.1,0.1-0.1,0.1-0.3,0.2c-0.1,0.1-0.3,0.1-0.5,0.1s-0.5,0-0.8,0c-0.3,0-0.6,0-0.8,0s-0.4-0.1-0.5-0.1
			c-0.1-0.1-0.2-0.1-0.3-0.2c0-0.1-0.1-0.2-0.1-0.3v-18.5c0-0.1,0-0.2,0.1-0.3c0-0.1,0.1-0.2,0.3-0.2c0.1-0.1,0.3-0.1,0.5-0.1
			s0.5,0,0.8,0c0.3,0,0.6,0,0.8,0s0.4,0.1,0.5,0.1c0.1,0.1,0.2,0.1,0.3,0.2c0.1,0.1,0.1,0.2,0.1,0.3V-8.4z"/>
		<path d="M298.3-9.7c0,0.4,0,0.7-0.1,0.9c-0.1,0.2-0.1,0.4-0.2,0.5c-0.1,0.1-0.3,0.2-0.5,0.3c-0.2,0.1-0.5,0.2-0.8,0.2
			c-0.3,0.1-0.6,0.1-0.9,0.2c-0.3,0-0.6,0.1-0.9,0.1c-1,0-1.8-0.1-2.5-0.4c-0.7-0.3-1.2-0.6-1.7-1.2c-0.4-0.5-0.8-1.2-1-2
			s-0.3-1.7-0.3-2.8v-10.8h-2.6c-0.2,0-0.4-0.1-0.5-0.3c-0.1-0.2-0.2-0.6-0.2-1.1c0-0.3,0-0.5,0.1-0.7c0-0.2,0.1-0.3,0.1-0.4
			c0.1-0.1,0.1-0.2,0.2-0.2c0.1,0,0.2-0.1,0.3-0.1h2.6v-4.4c0-0.1,0-0.2,0.1-0.3c0-0.1,0.1-0.2,0.3-0.2c0.1-0.1,0.3-0.1,0.5-0.1
			s0.5,0,0.8,0c0.3,0,0.6,0,0.8,0s0.4,0.1,0.5,0.1c0.1,0.1,0.2,0.1,0.3,0.2c0.1,0.1,0.1,0.2,0.1,0.3v4.4h4.8c0.1,0,0.2,0,0.3,0.1
			c0.1,0,0.2,0.1,0.2,0.2c0.1,0.1,0.1,0.3,0.1,0.4c0,0.2,0,0.4,0,0.7c0,0.5-0.1,0.9-0.2,1.1c-0.1,0.2-0.3,0.3-0.5,0.3h-4.8v10.3
			c0,1.3,0.2,2.2,0.6,2.9c0.4,0.7,1.1,1,2,1c0.3,0,0.6,0,0.8-0.1c0.2-0.1,0.5-0.1,0.7-0.2c0.2-0.1,0.4-0.1,0.5-0.2
			c0.1-0.1,0.3-0.1,0.4-0.1c0.1,0,0.1,0,0.2,0.1c0.1,0,0.1,0.1,0.1,0.2s0.1,0.2,0.1,0.4S298.3-10,298.3-9.7z"/>
		<path d="M316.2-8.3c0,0.2-0.1,0.3-0.2,0.4c-0.1,0.1-0.3,0.1-0.5,0.2c-0.2,0-0.5,0.1-0.8,0.1c-0.4,0-0.6,0-0.9-0.1
			c-0.2,0-0.4-0.1-0.5-0.2c-0.1-0.1-0.1-0.2-0.1-0.4v-1.9c-0.8,0.9-1.7,1.5-2.7,2c-1,0.5-2,0.7-3.2,0.7c-1,0-1.9-0.1-2.6-0.4
			c-0.8-0.3-1.5-0.6-2-1.1c-0.6-0.5-1-1.1-1.3-1.8c-0.3-0.7-0.5-1.5-0.5-2.4c0-1,0.2-2,0.6-2.7s1-1.4,1.8-1.9
			c0.8-0.5,1.8-0.9,2.9-1.1c1.2-0.3,2.5-0.4,3.9-0.4h2.6v-1.4c0-0.7-0.1-1.3-0.2-1.9c-0.2-0.5-0.4-1-0.7-1.4
			c-0.3-0.4-0.8-0.6-1.3-0.8c-0.5-0.2-1.2-0.3-2-0.3c-0.8,0-1.6,0.1-2.3,0.3s-1.2,0.4-1.8,0.7c-0.5,0.2-0.9,0.5-1.3,0.7
			s-0.6,0.3-0.8,0.3c-0.1,0-0.2,0-0.3-0.1c-0.1-0.1-0.2-0.1-0.2-0.2s-0.1-0.3-0.1-0.4c0-0.2,0-0.4,0-0.6c0-0.3,0-0.6,0.1-0.8
			c0-0.2,0.2-0.4,0.3-0.6c0.2-0.2,0.5-0.4,1-0.6c0.5-0.2,1-0.5,1.6-0.7c0.6-0.2,1.2-0.4,1.9-0.5c0.7-0.1,1.4-0.2,2.1-0.2
			c1.3,0,2.5,0.2,3.4,0.5c0.9,0.3,1.7,0.7,2.3,1.3s1,1.3,1.3,2.2c0.3,0.9,0.4,1.9,0.4,3V-8.3z M312.9-16.8H310
			c-0.9,0-1.7,0.1-2.4,0.2c-0.7,0.2-1.3,0.4-1.7,0.7c-0.5,0.3-0.8,0.7-1,1.1c-0.2,0.4-0.3,0.9-0.3,1.5c0,1,0.3,1.7,0.9,2.3
			c0.6,0.6,1.5,0.9,2.6,0.9c0.9,0,1.7-0.2,2.5-0.7c0.8-0.5,1.6-1.1,2.4-2.1V-16.8z"/>
		<path d="M325.9-8.4c0,0.1,0,0.2-0.1,0.3c-0.1,0.1-0.1,0.1-0.3,0.2c-0.1,0.1-0.3,0.1-0.5,0.1s-0.5,0-0.8,0c-0.3,0-0.6,0-0.8,0
			s-0.4-0.1-0.5-0.1c-0.1-0.1-0.2-0.1-0.3-0.2c0-0.1-0.1-0.2-0.1-0.3v-27.5c0-0.1,0-0.2,0.1-0.3c0-0.1,0.1-0.2,0.3-0.2
			c0.1-0.1,0.3-0.1,0.5-0.1s0.5,0,0.8,0c0.3,0,0.6,0,0.8,0s0.4,0.1,0.5,0.1c0.1,0.1,0.2,0.1,0.3,0.2c0.1,0.1,0.1,0.2,0.1,0.3V-8.4z"
			/>
	</g>
	<g class="st9">
		<path d="M47.1,33.8c0.1,0.3,0.2,0.5,0.2,0.7s0,0.3-0.2,0.4c-0.1,0.1-0.3,0.2-0.5,0.2c-0.3,0-0.6,0-1,0s-0.8,0-1,0
			c-0.3,0-0.4-0.1-0.6-0.1c-0.1,0-0.2-0.1-0.3-0.2c-0.1-0.1-0.1-0.2-0.2-0.3l-2.3-6.5H30.1l-2.2,6.4c0,0.1-0.1,0.2-0.2,0.3
			c-0.1,0.1-0.2,0.2-0.3,0.2c-0.1,0.1-0.3,0.1-0.6,0.1s-0.6,0-0.9,0c-0.4,0-0.7,0-1-0.1c-0.3,0-0.4-0.1-0.5-0.2
			c-0.1-0.1-0.2-0.2-0.1-0.4s0.1-0.4,0.2-0.7l8.9-24.8c0.1-0.2,0.1-0.3,0.2-0.4c0.1-0.1,0.2-0.2,0.4-0.2s0.4-0.1,0.7-0.1
			c0.3,0,0.6,0,1,0c0.4,0,0.8,0,1.1,0c0.3,0,0.5,0.1,0.7,0.1c0.2,0.1,0.3,0.1,0.4,0.2c0.1,0.1,0.2,0.2,0.2,0.4L47.1,33.8z M35.6,12
			L35.6,12L31,25.3h9.3L35.6,12z"/>
		<path d="M67.1,34.6c0,0.1,0,0.2-0.1,0.3c-0.1,0.1-0.1,0.1-0.3,0.2c-0.1,0.1-0.3,0.1-0.5,0.1s-0.5,0-0.8,0c-0.3,0-0.6,0-0.8,0
			s-0.4-0.1-0.5-0.1c-0.1-0.1-0.2-0.1-0.3-0.2c-0.1-0.1-0.1-0.2-0.1-0.3V23.7c0-1.1-0.1-1.9-0.2-2.6c-0.2-0.6-0.4-1.2-0.7-1.7
			c-0.3-0.5-0.7-0.8-1.2-1.1s-1.1-0.4-1.7-0.4c-0.9,0-1.7,0.3-2.6,0.9c-0.9,0.6-1.7,1.5-2.7,2.7v13c0,0.1,0,0.2-0.1,0.3
			c-0.1,0.1-0.1,0.1-0.3,0.2c-0.1,0.1-0.3,0.1-0.5,0.1s-0.5,0-0.8,0c-0.3,0-0.6,0-0.8,0s-0.4-0.1-0.5-0.1c-0.1-0.1-0.2-0.1-0.3-0.2
			c0-0.1-0.1-0.2-0.1-0.3V16c0-0.1,0-0.2,0.1-0.3c0-0.1,0.1-0.1,0.2-0.2s0.3-0.1,0.5-0.1c0.2,0,0.4,0,0.8,0c0.3,0,0.6,0,0.8,0
			c0.2,0,0.4,0.1,0.5,0.1s0.2,0.1,0.2,0.2c0,0.1,0.1,0.2,0.1,0.3v2.5c1-1.2,2.1-2,3.1-2.6c1-0.5,2.1-0.8,3.1-0.8
			c1.2,0,2.3,0.2,3.1,0.6c0.8,0.4,1.5,1,2.1,1.7c0.5,0.7,0.9,1.5,1.1,2.5c0.2,0.9,0.3,2.1,0.3,3.4V34.6z"/>
		<path d="M87.3,34.6c0,0.2-0.1,0.3-0.2,0.4c-0.1,0.1-0.3,0.1-0.5,0.2c-0.2,0-0.5,0.1-0.8,0.1c-0.4,0-0.6,0-0.9-0.1
			c-0.2,0-0.4-0.1-0.5-0.2c-0.1-0.1-0.1-0.2-0.1-0.4v-1.9c-0.8,0.9-1.7,1.5-2.7,2c-1,0.5-2,0.7-3.2,0.7c-1,0-1.9-0.1-2.6-0.4
			c-0.8-0.3-1.5-0.6-2-1.1c-0.6-0.5-1-1.1-1.3-1.8c-0.3-0.7-0.5-1.5-0.5-2.4c0-1,0.2-2,0.6-2.7s1-1.4,1.8-1.9
			c0.8-0.5,1.8-0.9,2.9-1.1c1.2-0.3,2.5-0.4,3.9-0.4h2.6v-1.4c0-0.7-0.1-1.3-0.2-1.9c-0.2-0.5-0.4-1-0.7-1.4
			c-0.3-0.4-0.8-0.6-1.3-0.8c-0.5-0.2-1.2-0.3-2-0.3c-0.8,0-1.6,0.1-2.3,0.3s-1.2,0.4-1.8,0.7c-0.5,0.2-0.9,0.5-1.3,0.7
			s-0.6,0.3-0.8,0.3c-0.1,0-0.2,0-0.3-0.1c-0.1-0.1-0.2-0.1-0.2-0.2S73,19.2,73,19c0-0.2,0-0.4,0-0.6c0-0.3,0-0.6,0.1-0.8
			c0-0.2,0.2-0.4,0.3-0.6c0.2-0.2,0.5-0.4,1-0.6c0.5-0.2,1-0.5,1.6-0.7c0.6-0.2,1.2-0.4,1.9-0.5c0.7-0.1,1.4-0.2,2.1-0.2
			c1.3,0,2.5,0.2,3.4,0.5c0.9,0.3,1.7,0.7,2.3,1.3s1,1.3,1.3,2.2c0.3,0.9,0.4,1.9,0.4,3V34.6z M83.9,26.1H81c-0.9,0-1.7,0.1-2.4,0.2
			c-0.7,0.2-1.3,0.4-1.7,0.7c-0.5,0.3-0.8,0.7-1,1.1c-0.2,0.4-0.3,0.9-0.3,1.5c0,1,0.3,1.7,0.9,2.3c0.6,0.6,1.5,0.9,2.6,0.9
			c0.9,0,1.7-0.2,2.5-0.7c0.8-0.5,1.6-1.1,2.4-2.1V26.1z"/>
		<path d="M96.9,34.6c0,0.1,0,0.2-0.1,0.3c-0.1,0.1-0.1,0.1-0.3,0.2c-0.1,0.1-0.3,0.1-0.5,0.1s-0.5,0-0.8,0c-0.3,0-0.6,0-0.8,0
			s-0.4-0.1-0.5-0.1c-0.1-0.1-0.2-0.1-0.3-0.2c0-0.1-0.1-0.2-0.1-0.3V7.1c0-0.1,0-0.2,0.1-0.3c0-0.1,0.1-0.2,0.3-0.2
			c0.1-0.1,0.3-0.1,0.5-0.1s0.5,0,0.8,0c0.3,0,0.6,0,0.8,0s0.4,0.1,0.5,0.1c0.1,0.1,0.2,0.1,0.3,0.2c0.1,0.1,0.1,0.2,0.1,0.3V34.6z"
			/>
		<path d="M120.4,25.1c0,1.5-0.2,2.9-0.6,4.2c-0.4,1.3-1,2.4-1.8,3.3c-0.8,0.9-1.8,1.6-3,2.2c-1.2,0.5-2.6,0.8-4.1,0.8
			c-1.5,0-2.9-0.2-4-0.7c-1.1-0.5-2.1-1.1-2.8-2s-1.3-1.9-1.7-3.2s-0.6-2.6-0.6-4.2c0-1.5,0.2-2.9,0.6-4.2c0.4-1.3,1-2.4,1.8-3.3
			c0.8-0.9,1.8-1.6,3-2.1c1.2-0.5,2.6-0.8,4.1-0.8c1.5,0,2.9,0.2,4,0.7c1.1,0.5,2.1,1.1,2.8,2c0.8,0.9,1.3,1.9,1.7,3.2
			S120.4,23.6,120.4,25.1z M116.9,25.3c0-1-0.1-2-0.3-2.8c-0.2-0.9-0.5-1.7-0.9-2.3c-0.4-0.7-1-1.2-1.7-1.6
			c-0.7-0.4-1.6-0.6-2.7-0.6c-1,0-1.9,0.2-2.6,0.5c-0.7,0.4-1.3,0.9-1.8,1.5s-0.8,1.4-1,2.3c-0.2,0.9-0.3,1.9-0.3,2.9
			c0,1,0.1,2,0.3,2.9c0.2,0.9,0.5,1.7,0.9,2.3c0.4,0.7,1,1.2,1.8,1.6s1.6,0.6,2.7,0.6c1,0,1.9-0.2,2.6-0.5c0.7-0.4,1.3-0.9,1.8-1.5
			c0.5-0.6,0.8-1.4,1-2.3C116.8,27.4,116.9,26.4,116.9,25.3z"/>
		<path d="M140.9,16.9c0,0.5-0.1,0.8-0.2,1c-0.1,0.2-0.3,0.3-0.5,0.3h-2.7c0.5,0.5,0.8,1,1,1.6c0.2,0.6,0.3,1.2,0.3,1.9
			c0,1.1-0.2,2-0.5,2.8s-0.8,1.5-1.5,2.1c-0.6,0.6-1.4,1-2.3,1.3c-0.9,0.3-1.9,0.5-2.9,0.5c-0.8,0-1.5-0.1-2.2-0.3
			c-0.7-0.2-1.2-0.4-1.6-0.8c-0.2,0.2-0.5,0.5-0.6,0.8c-0.2,0.3-0.2,0.7-0.2,1.1c0,0.5,0.2,0.9,0.7,1.2c0.4,0.3,1,0.5,1.8,0.5
			l4.8,0.2c0.9,0,1.8,0.2,2.5,0.4c0.8,0.2,1.4,0.5,2,1s1,0.9,1.3,1.5c0.3,0.6,0.5,1.3,0.5,2.1c0,0.9-0.2,1.7-0.5,2.4
			c-0.4,0.8-0.9,1.4-1.6,2c-0.7,0.6-1.7,1-2.8,1.4s-2.5,0.5-4,0.5c-1.5,0-2.8-0.1-3.8-0.4c-1.1-0.3-1.9-0.6-2.6-1
			c-0.7-0.4-1.2-1-1.5-1.6c-0.3-0.6-0.5-1.3-0.5-2c0-0.5,0.1-0.9,0.2-1.3s0.3-0.8,0.5-1.2s0.5-0.8,0.8-1.1s0.7-0.7,1.2-1
			c-0.7-0.3-1.2-0.8-1.5-1.3c-0.3-0.5-0.5-1.1-0.5-1.7c0-0.8,0.2-1.6,0.5-2.2c0.3-0.7,0.8-1.2,1.3-1.8c-0.4-0.5-0.8-1.1-1-1.7
			c-0.2-0.6-0.4-1.4-0.4-2.3c0-1.1,0.2-2,0.5-2.8c0.4-0.8,0.9-1.5,1.5-2.1c0.6-0.6,1.4-1,2.3-1.3c0.9-0.3,1.9-0.5,2.9-0.5
			c0.6,0,1.1,0,1.6,0.1c0.5,0.1,0.9,0.1,1.4,0.3h5.6c0.2,0,0.4,0.1,0.5,0.3C140.9,16.1,140.9,16.4,140.9,16.9z M137.3,36.5
			c0-0.8-0.3-1.4-1-1.8c-0.7-0.4-1.5-0.7-2.6-0.7l-4.8-0.2c-0.4,0.3-0.8,0.7-1.1,1c-0.3,0.3-0.5,0.6-0.7,0.9s-0.3,0.6-0.3,0.8
			c-0.1,0.3-0.1,0.6-0.1,0.8c0,0.9,0.5,1.6,1.4,2c0.9,0.5,2.2,0.7,3.8,0.7c1,0,1.9-0.1,2.6-0.3c0.7-0.2,1.3-0.5,1.7-0.8
			s0.7-0.7,0.9-1.1S137.3,36.9,137.3,36.5z M135.6,21.8c0-1.3-0.3-2.2-1-3c-0.7-0.7-1.7-1.1-3-1.1c-0.7,0-1.2,0.1-1.7,0.3
			s-0.9,0.5-1.2,0.9c-0.3,0.4-0.6,0.8-0.7,1.3c-0.2,0.5-0.2,1-0.2,1.6c0,1.2,0.3,2.2,1,2.9c0.7,0.7,1.7,1.1,2.9,1.1
			c0.7,0,1.3-0.1,1.8-0.3s0.9-0.5,1.2-0.9c0.3-0.4,0.6-0.8,0.7-1.3C135.5,22.8,135.6,22.3,135.6,21.8z"/>
	</g>
	<g class="st9">
		<path d="M209.9,30.6c0,0.3,0,0.5-0.1,0.7s-0.1,0.3-0.2,0.5c-0.1,0.1-0.2,0.2-0.2,0.3c-0.1,0.1-0.2,0.1-0.3,0.1h-6.8v7.5
			c0,0.1,0,0.2-0.1,0.3c-0.1,0.1-0.1,0.1-0.3,0.2c-0.1,0.1-0.3,0.1-0.5,0.1c-0.2,0-0.4,0.1-0.7,0.1c-0.3,0-0.5,0-0.7-0.1
			c-0.2,0-0.4-0.1-0.5-0.1c-0.1-0.1-0.2-0.1-0.3-0.2c-0.1-0.1-0.1-0.2-0.1-0.3v-7.5h-6.8c-0.1,0-0.2,0-0.3-0.1
			c-0.1-0.1-0.2-0.1-0.2-0.3s-0.1-0.3-0.2-0.5c0-0.2-0.1-0.4-0.1-0.7c0-0.2,0-0.5,0.1-0.6c0-0.2,0.1-0.3,0.2-0.5s0.1-0.2,0.2-0.3
			c0.1-0.1,0.2-0.1,0.3-0.1h6.8v-7.5c0-0.1,0-0.2,0.1-0.3c0.1-0.1,0.1-0.2,0.3-0.2c0.1-0.1,0.3-0.1,0.5-0.1s0.4-0.1,0.7-0.1
			c0.3,0,0.5,0,0.7,0.1s0.3,0.1,0.5,0.1c0.1,0.1,0.2,0.1,0.3,0.2c0.1,0.1,0.1,0.2,0.1,0.3v7.5h6.8c0.1,0,0.2,0,0.3,0.1
			c0.1,0.1,0.2,0.1,0.2,0.3c0.1,0.1,0.1,0.3,0.2,0.5C209.9,30.2,209.9,30.4,209.9,30.6z"/>
		<path d="M225.6,41.9c-0.1,0.2-0.1,0.3-0.2,0.4c-0.1,0.1-0.2,0.2-0.4,0.2s-0.4,0.1-0.7,0.1c-0.3,0-0.6,0-1,0c-0.3,0-0.6,0-0.8,0
			s-0.4,0-0.6-0.1c-0.2,0-0.3-0.1-0.4-0.1c-0.1,0-0.2-0.1-0.3-0.1c-0.1-0.1-0.1-0.1-0.2-0.2c0-0.1-0.1-0.2-0.1-0.3l-8.7-24.8
			c-0.1-0.3-0.2-0.5-0.2-0.7s0.1-0.3,0.2-0.4c0.1-0.1,0.3-0.2,0.6-0.2c0.3,0,0.6,0,1.1,0c0.4,0,0.7,0,0.9,0s0.4,0.1,0.5,0.1
			s0.2,0.1,0.3,0.2c0.1,0.1,0.1,0.2,0.2,0.3l7.6,22.4h0l7.4-22.4c0-0.2,0.1-0.3,0.1-0.4s0.2-0.2,0.3-0.2c0.1-0.1,0.3-0.1,0.6-0.1
			c0.2,0,0.6,0,1,0c0.4,0,0.8,0,1,0.1c0.2,0,0.4,0.1,0.5,0.2c0.1,0.1,0.1,0.2,0.1,0.4s-0.1,0.4-0.2,0.7L225.6,41.9z"/>
	</g>
	<g class="st9">
		<path class="st0" d="M351.2-720.9c0.1,0,0.3,0,0.4,0.1c0.1,0.1,0.2,0.2,0.3,0.3c0.1,0.2,0.1,0.4,0.2,0.7c0,0.3,0.1,0.7,0.1,1.1
			c0,0.6,0,1.1-0.1,1.4s-0.1,0.6-0.3,0.8c-0.1,0.2-0.3,0.3-0.5,0.5L335-704.1h16.2c0.1,0,0.2,0,0.3,0.1c0.1,0.1,0.2,0.2,0.3,0.4
			s0.1,0.4,0.2,0.7c0,0.3,0.1,0.6,0.1,1c0,0.4,0,0.7-0.1,1c0,0.3-0.1,0.5-0.2,0.7c-0.1,0.2-0.1,0.3-0.3,0.4
			c-0.1,0.1-0.2,0.1-0.3,0.1h-31.1c-0.1,0-0.3,0-0.4-0.1c-0.1-0.1-0.2-0.2-0.2-0.4c-0.1-0.2-0.1-0.4-0.2-0.7c0-0.3-0.1-0.6-0.1-1
			c0-0.4,0-0.8,0.1-1c0-0.3,0.1-0.5,0.2-0.7c0.1-0.2,0.1-0.3,0.2-0.4c0.1-0.1,0.2-0.1,0.4-0.1h14.4l-14.4-11.5
			c-0.2-0.1-0.3-0.2-0.4-0.4c-0.1-0.1-0.2-0.3-0.2-0.5s-0.1-0.4-0.1-0.7c0-0.3,0-0.6,0-1.1s0-0.8,0.1-1.1c0-0.3,0.1-0.5,0.2-0.6
			c0.1-0.2,0.2-0.3,0.3-0.3c0.1-0.1,0.2-0.1,0.3-0.1c0.2,0,0.4,0.1,0.7,0.2c0.2,0.1,0.5,0.3,0.9,0.6l12.9,10.8l15.4-11.6
			c0.4-0.3,0.7-0.5,0.9-0.5S351.1-720.9,351.2-720.9z"/>
		<path class="st0" d="M339.2-736.8h12c0.1,0,0.3,0,0.4,0.1s0.2,0.2,0.2,0.3c0.1,0.2,0.1,0.4,0.2,0.7c0,0.3,0.1,0.6,0.1,1
			c0,0.4,0,0.8-0.1,1c0,0.3-0.1,0.5-0.2,0.7s-0.1,0.3-0.2,0.4s-0.2,0.1-0.4,0.1h-12l-18.3,9.2c-0.4,0.2-0.7,0.3-0.9,0.3
			c-0.2,0-0.4,0-0.5-0.1s-0.2-0.4-0.2-0.7c0-0.3,0-0.8,0-1.3c0-0.5,0-0.9,0-1.2c0-0.3,0.1-0.6,0.1-0.7c0.1-0.2,0.1-0.3,0.3-0.4
			c0.1-0.1,0.2-0.2,0.4-0.3l9.3-4.5c0.9-0.4,1.8-0.8,2.8-1.2c1-0.4,1.9-0.8,2.9-1.3v0c-1-0.4-1.9-0.8-2.8-1.2s-1.9-0.8-2.8-1.2
			l-9.4-4.5c-0.2,0-0.3-0.1-0.4-0.2c-0.1-0.1-0.2-0.2-0.3-0.4c-0.1-0.2-0.1-0.4-0.1-0.7c0-0.3,0-0.6,0-1.1c0-0.6,0-1.1,0.1-1.4
			c0-0.3,0.1-0.6,0.2-0.7c0.1-0.1,0.3-0.2,0.5-0.1c0.2,0,0.5,0.2,0.9,0.3L339.2-736.8z"/>
		<path class="st0" d="M339.2-758.2c0.7,0,1.1,0.1,1.4,0.2c0.3,0.2,0.4,0.4,0.4,0.7v10.5c0,0.3-0.1,0.5-0.4,0.7
			c-0.3,0.2-0.7,0.2-1.3,0.2c-0.6,0-1.1-0.1-1.3-0.2s-0.4-0.4-0.4-0.7v-10.5c0-0.1,0-0.3,0.1-0.4s0.1-0.2,0.3-0.3
			c0.1-0.1,0.3-0.1,0.5-0.2C338.6-758.2,338.9-758.2,339.2-758.2z"/>
		<path class="st0" d="M335.6-784.2c2.5,0,4.8,0.2,6.8,0.6s3.8,1,5.3,2s2.6,2.1,3.4,3.6c0.8,1.5,1.2,3.3,1.2,5.4
			c0,2-0.4,3.8-1.1,5.2c-0.7,1.4-1.8,2.5-3.2,3.4c-1.4,0.9-3.2,1.5-5.2,1.8c-2.1,0.4-4.4,0.5-7.1,0.5c-2.5,0-4.7-0.2-6.8-0.6
			c-2.1-0.4-3.8-1.1-5.3-2c-1.5-0.9-2.6-2.1-3.4-3.6c-0.8-1.5-1.2-3.3-1.2-5.4c0-2.1,0.4-3.8,1.1-5.2c0.7-1.4,1.8-2.5,3.2-3.4
			c1.4-0.9,3.2-1.5,5.2-1.8C330.5-784,332.9-784.2,335.6-784.2z M335.9-779.8c-1.6,0-3.1,0.1-4.4,0.2c-1.3,0.1-2.4,0.3-3.4,0.5
			c-1,0.2-1.8,0.5-2.5,0.9c-0.7,0.4-1.3,0.8-1.8,1.3s-0.8,1.1-1,1.7c-0.2,0.6-0.3,1.4-0.3,2.2c0,1.4,0.3,2.6,1,3.5
			c0.7,0.9,1.6,1.6,2.8,2.1c1.2,0.5,2.5,0.9,4.1,1c1.6,0.2,3.3,0.3,5.1,0.3c2.4,0,4.5-0.1,6.2-0.4c1.7-0.3,3.1-0.6,4.2-1.2
			c1.1-0.5,1.8-1.2,2.3-2.1c0.5-0.8,0.7-1.9,0.7-3.1c0-0.9-0.2-1.8-0.5-2.5c-0.3-0.7-0.7-1.3-1.3-1.8c-0.6-0.5-1.2-0.9-2-1.3
			c-0.8-0.3-1.7-0.6-2.6-0.8c-1-0.2-2-0.3-3.1-0.4S337.1-779.8,335.9-779.8z"/>
		<path class="st0" d="M342.6-808.9c1.5,0,2.8,0.3,4,0.8c1.2,0.5,2.2,1.3,3.1,2.2c0.9,1,1.5,2.2,2,3.6c0.5,1.4,0.7,3,0.7,4.8
			c0,1.1-0.1,2.1-0.3,3c-0.2,0.9-0.4,1.8-0.6,2.5c-0.2,0.7-0.5,1.3-0.8,1.8c-0.3,0.5-0.4,0.8-0.6,0.9c-0.1,0.1-0.2,0.2-0.4,0.3
			c-0.1,0.1-0.3,0.1-0.4,0.2c-0.2,0-0.4,0.1-0.6,0.1c-0.2,0-0.5,0-0.9,0c-0.6,0-1-0.1-1.3-0.2c-0.2-0.1-0.4-0.3-0.4-0.5
			c0-0.2,0.1-0.5,0.4-0.9c0.3-0.5,0.6-1,0.9-1.7c0.3-0.7,0.6-1.5,0.9-2.5s0.4-2,0.4-3.2c0-1.1-0.1-2.1-0.4-3
			c-0.3-0.9-0.7-1.6-1.2-2.2s-1.1-1-1.8-1.3c-0.7-0.3-1.5-0.4-2.3-0.4c-0.9,0-1.7,0.2-2.5,0.6c-0.7,0.4-1.4,0.9-1.9,1.6
			s-0.9,1.6-1.2,2.6s-0.4,2.2-0.4,3.6v3.2c0,0.1,0,0.3-0.1,0.4c-0.1,0.1-0.2,0.2-0.3,0.3s-0.3,0.2-0.5,0.2c-0.2,0.1-0.5,0.1-0.9,0.1
			c-0.3,0-0.6,0-0.8-0.1c-0.2,0-0.4-0.1-0.5-0.2c-0.1-0.1-0.2-0.2-0.3-0.3s-0.1-0.3-0.1-0.4v-2.8c0-1.1-0.1-2.1-0.4-3
			s-0.7-1.6-1.2-2.2c-0.5-0.6-1.2-1.1-1.9-1.4s-1.6-0.5-2.5-0.5c-0.7,0-1.3,0.1-1.9,0.3c-0.6,0.2-1.1,0.5-1.6,1
			c-0.5,0.4-0.8,1-1.1,1.7c-0.3,0.7-0.4,1.5-0.4,2.3c0,1,0.1,1.9,0.4,2.7c0.3,0.8,0.6,1.5,0.9,2.2c0.3,0.6,0.6,1.2,0.9,1.6
			c0.3,0.4,0.4,0.7,0.4,0.9c0,0.1,0,0.2-0.1,0.3s-0.1,0.2-0.3,0.2c-0.1,0.1-0.3,0.1-0.5,0.1c-0.2,0-0.5,0-0.9,0c-0.3,0-0.5,0-0.7,0
			c-0.2,0-0.4,0-0.5-0.1c-0.1-0.1-0.3-0.1-0.4-0.2c-0.1-0.1-0.3-0.2-0.4-0.3c-0.2-0.2-0.4-0.5-0.7-1c-0.3-0.5-0.6-1.1-0.9-1.8
			c-0.3-0.7-0.5-1.5-0.7-2.5c-0.2-0.9-0.3-1.9-0.3-3c0-1.5,0.2-2.8,0.6-4c0.4-1.1,0.9-2.1,1.6-2.8s1.5-1.3,2.5-1.7
			c1-0.4,2.1-0.6,3.2-0.6c1,0,2,0.1,2.8,0.4c0.9,0.3,1.7,0.7,2.3,1.2c0.7,0.5,1.3,1.2,1.7,1.9c0.5,0.8,0.8,1.6,1,2.6h0
			c0.1-1.1,0.4-2.1,0.8-3.1s1-1.7,1.7-2.4c0.7-0.7,1.5-1.2,2.3-1.6C340.6-808.7,341.6-808.9,342.6-808.9z"/>
		<path class="st0" d="M343.5-835.9c1.4,0,2.7,0.3,3.7,0.8c1.1,0.5,2,1.2,2.8,2.2c0.8,0.9,1.3,2.1,1.7,3.5c0.4,1.4,0.6,3,0.6,4.8
			c0,1.7-0.2,3.2-0.5,4.5c-0.4,1.3-0.9,2.4-1.6,3.4c-0.7,0.9-1.5,1.6-2.5,2.1c-1,0.5-2.1,0.7-3.4,0.7c-1,0-2-0.2-2.8-0.5
			c-0.9-0.3-1.6-0.8-2.4-1.4c-0.7-0.6-1.4-1.4-2-2.3c-0.6-0.9-1.2-2-1.8-3.1c-0.5,1-1.1,1.9-1.6,2.7c-0.6,0.8-1.2,1.4-1.9,2
			c-0.7,0.5-1.4,0.9-2.2,1.2c-0.8,0.3-1.6,0.4-2.5,0.4c-1.1,0-2.2-0.2-3.2-0.6c-1-0.4-1.9-1-2.6-1.9c-0.7-0.8-1.3-1.9-1.7-3.2
			c-0.4-1.3-0.6-2.8-0.6-4.5c0-1.6,0.2-3.1,0.6-4.3c0.4-1.2,0.9-2.2,1.6-3c0.7-0.8,1.5-1.4,2.4-1.7c0.9-0.4,1.9-0.6,3-0.6
			c0.9,0,1.7,0.1,2.5,0.4c0.8,0.3,1.5,0.7,2.2,1.2s1.4,1.2,2,2s1.2,1.7,1.7,2.7c0.6-1.2,1.2-2.2,1.8-3.2c0.6-0.9,1.3-1.7,2-2.3
			c0.7-0.6,1.5-1.1,2.3-1.4S342.6-835.9,343.5-835.9z M326.9-830.5c-0.7,0-1.3,0.1-1.9,0.4s-1.1,0.6-1.5,1.1c-0.4,0.5-0.7,1-0.9,1.7
			c-0.2,0.7-0.3,1.5-0.3,2.4c0,1.8,0.4,3.2,1.2,4.1c0.8,0.9,1.9,1.4,3.4,1.4c0.7,0,1.3-0.1,1.8-0.3c0.6-0.2,1.1-0.6,1.6-1.1
			c0.5-0.5,1-1.1,1.5-1.8s1-1.6,1.5-2.6c-0.9-1.7-1.8-3-2.9-3.9C329.3-830.1,328.2-830.5,326.9-830.5z M344-831.6
			c-0.8,0-1.5,0.1-2.1,0.4c-0.6,0.3-1.2,0.7-1.8,1.3c-0.5,0.6-1.1,1.3-1.6,2.2s-1,1.9-1.6,3c0.5,1.1,1,2,1.6,2.8
			c0.5,0.8,1.1,1.4,1.6,2s1.1,0.9,1.7,1.2c0.6,0.3,1.3,0.4,2,0.4c1.6,0,2.9-0.6,3.8-1.7c0.9-1.1,1.3-2.8,1.3-5
			c0-2.1-0.4-3.8-1.3-4.9C346.7-831,345.5-831.6,344-831.6z"/>
	</g>
	<g class="st9">
		<path class="st0" d="M87.1-202.1c0.1,0.4,0.2,0.7,0.2,0.9c0,0.2-0.1,0.4-0.2,0.5s-0.4,0.2-0.7,0.2c-0.3,0-0.7,0-1.2,0
			s-0.9,0-1.2,0c-0.3,0-0.5-0.1-0.7-0.1c-0.2-0.1-0.3-0.1-0.4-0.2s-0.1-0.2-0.2-0.4l-2.8-7.9H66.4l-2.7,7.8c0,0.2-0.1,0.3-0.2,0.4
			c-0.1,0.1-0.2,0.2-0.4,0.3s-0.4,0.1-0.7,0.2c-0.3,0-0.7,0-1.1,0c-0.5,0-0.9,0-1.2-0.1c-0.3,0-0.5-0.1-0.7-0.2
			c-0.1-0.1-0.2-0.3-0.2-0.5c0-0.2,0.1-0.5,0.2-0.9l10.9-30.1c0.1-0.2,0.2-0.3,0.3-0.5c0.1-0.1,0.3-0.2,0.5-0.3
			c0.2-0.1,0.5-0.1,0.8-0.1c0.3,0,0.7,0,1.2,0c0.5,0,1,0,1.3,0c0.4,0,0.6,0.1,0.9,0.1c0.2,0.1,0.4,0.2,0.5,0.3
			c0.1,0.1,0.2,0.3,0.3,0.5L87.1-202.1z M73.1-228.7L73.1-228.7l-5.6,16.2h11.3L73.1-228.7z"/>
		<path class="st0" d="M112.5-216.8c0,2.5-0.2,4.8-0.6,6.8s-1,3.8-2,5.3s-2.1,2.6-3.6,3.4c-1.5,0.8-3.3,1.2-5.4,1.2
			c-2,0-3.8-0.4-5.2-1.1c-1.4-0.7-2.5-1.8-3.4-3.2c-0.9-1.4-1.5-3.2-1.8-5.2c-0.4-2.1-0.5-4.4-0.5-7.1c0-2.5,0.2-4.7,0.6-6.8
			c0.4-2.1,1.1-3.8,2-5.3c0.9-1.5,2.1-2.6,3.6-3.4c1.5-0.8,3.3-1.2,5.4-1.2c2.1,0,3.8,0.4,5.2,1.1c1.4,0.7,2.5,1.8,3.4,3.2
			c0.9,1.4,1.5,3.2,1.8,5.2C112.3-221.9,112.5-219.5,112.5-216.8z M108-216.5c0-1.6-0.1-3.1-0.2-4.4c-0.1-1.3-0.3-2.4-0.5-3.4
			c-0.2-1-0.5-1.8-0.9-2.5c-0.4-0.7-0.8-1.3-1.3-1.8s-1.1-0.8-1.7-1c-0.6-0.2-1.4-0.3-2.2-0.3c-1.4,0-2.6,0.3-3.5,1
			c-0.9,0.7-1.6,1.6-2.1,2.8c-0.5,1.2-0.9,2.5-1,4.1c-0.2,1.6-0.3,3.3-0.3,5.1c0,2.4,0.1,4.5,0.4,6.2c0.3,1.7,0.6,3.1,1.2,4.2
			c0.5,1.1,1.2,1.8,2.1,2.3c0.8,0.5,1.9,0.7,3.1,0.7c0.9,0,1.8-0.2,2.5-0.5c0.7-0.3,1.3-0.7,1.8-1.3c0.5-0.6,0.9-1.2,1.3-2
			c0.3-0.8,0.6-1.7,0.8-2.6c0.2-1,0.3-2,0.4-3.1S108-215.3,108-216.5z"/>
	</g>
	<g class="st9">
		<path class="st0" d="M162.1-228.5c0,0.3,0,0.6,0,0.8s-0.1,0.4-0.2,0.6c-0.1,0.2-0.2,0.3-0.3,0.3c-0.1,0.1-0.2,0.1-0.3,0.1
			c-0.2,0-0.5-0.2-1-0.5c-0.5-0.3-1.1-0.7-1.9-1.1c-0.8-0.4-1.7-0.7-2.8-1.1c-1.1-0.3-2.4-0.5-3.9-0.5c-1.8,0-3.4,0.3-4.8,1
			s-2.6,1.6-3.6,2.7c-1,1.2-1.7,2.5-2.3,4.1c-0.5,1.6-0.8,3.3-0.8,5.2c0,2.1,0.3,3.9,0.9,5.5c0.6,1.6,1.4,3,2.4,4.1s2.2,1.9,3.6,2.5
			s3,0.9,4.7,0.9c1,0,2-0.1,3-0.4s2-0.6,2.9-1.1v-9.5h-7.5c-0.3,0-0.5-0.1-0.6-0.4c-0.1-0.3-0.2-0.7-0.2-1.3c0-0.3,0-0.6,0.1-0.8
			c0-0.2,0.1-0.4,0.2-0.6c0.1-0.1,0.2-0.2,0.3-0.3c0.1-0.1,0.2-0.1,0.4-0.1h10.3c0.2,0,0.4,0,0.6,0.1c0.2,0.1,0.4,0.2,0.5,0.3
			c0.2,0.1,0.3,0.3,0.4,0.6c0.1,0.2,0.1,0.5,0.1,0.8v12.4c0,0.4-0.1,0.8-0.2,1.1s-0.5,0.6-1,0.8c-0.5,0.2-1.1,0.5-1.9,0.8
			s-1.6,0.5-2.4,0.7c-0.8,0.2-1.6,0.4-2.5,0.5c-0.8,0.1-1.7,0.2-2.5,0.2c-2.5,0-4.7-0.4-6.7-1.2c-2-0.8-3.6-1.9-5-3.3
			c-1.4-1.4-2.4-3.2-3.1-5.2c-0.7-2-1.1-4.2-1.1-6.7c0-2.6,0.4-4.9,1.2-7c0.8-2.1,1.9-3.9,3.3-5.3c1.4-1.5,3.1-2.6,5.1-3.4
			c2-0.8,4.2-1.2,6.6-1.2c1.2,0,2.4,0.1,3.5,0.3c1.1,0.2,2.1,0.5,2.9,0.8c0.8,0.3,1.6,0.6,2.1,1s1,0.6,1.2,0.8
			c0.2,0.2,0.4,0.5,0.5,0.8S162.1-229.1,162.1-228.5z"/>
	</g>
	<g class="st9">
		<path class="st0" d="M223.1-211.8c0,0.3,0,0.6-0.1,0.8s-0.1,0.4-0.2,0.6c-0.1,0.2-0.2,0.3-0.3,0.3c-0.1,0.1-0.2,0.1-0.4,0.1H214
			v9.1c0,0.1,0,0.2-0.1,0.3c-0.1,0.1-0.2,0.2-0.3,0.2c-0.1,0.1-0.3,0.1-0.6,0.2c-0.2,0-0.5,0.1-0.9,0.1c-0.3,0-0.6,0-0.9-0.1
			c-0.2,0-0.4-0.1-0.6-0.2c-0.1-0.1-0.2-0.1-0.3-0.2c-0.1-0.1-0.1-0.2-0.1-0.3v-9.1H202c-0.2,0-0.3,0-0.4-0.1
			c-0.1-0.1-0.2-0.2-0.3-0.3c-0.1-0.2-0.2-0.3-0.2-0.6c-0.1-0.2-0.1-0.5-0.1-0.8c0-0.3,0-0.6,0.1-0.8c0-0.2,0.1-0.4,0.2-0.6
			s0.2-0.3,0.3-0.3c0.1-0.1,0.2-0.1,0.4-0.1h8.3v-9.1c0-0.1,0-0.3,0.1-0.4s0.2-0.2,0.3-0.3s0.3-0.1,0.6-0.2s0.5-0.1,0.9-0.1
			c0.4,0,0.6,0,0.9,0.1c0.2,0,0.4,0.1,0.6,0.2c0.1,0.1,0.2,0.2,0.3,0.3c0.1,0.1,0.1,0.2,0.1,0.4v9.1h8.3c0.1,0,0.3,0,0.4,0.1
			c0.1,0.1,0.2,0.2,0.3,0.3s0.2,0.3,0.2,0.6C223.1-212.3,223.1-212.1,223.1-211.8z"/>
	</g>
	<g class="st9">
		<path class="st0" d="M273.9-217.2c0,2.8-0.4,5.3-1.1,7.4c-0.7,2.1-1.8,3.8-3.1,5.2c-1.4,1.4-3.1,2.4-5.1,3.1s-4.4,1-7.2,1h-6.9
			c-0.4,0-0.7-0.1-1.1-0.4c-0.3-0.3-0.5-0.7-0.5-1.4v-28.9c0-0.7,0.2-1.1,0.5-1.4c0.3-0.3,0.7-0.4,1.1-0.4h7.3
			c2.8,0,5.2,0.4,7.1,1.1c1.9,0.7,3.6,1.8,4.9,3.1c1.3,1.4,2.3,3,3,5S273.9-219.7,273.9-217.2z M269.4-217c0-1.8-0.2-3.4-0.7-4.9
			c-0.4-1.5-1.1-2.8-2-3.9s-2.1-2-3.5-2.6c-1.4-0.6-3.3-0.9-5.5-0.9h-4.4v25.3h4.4c2.1,0,3.8-0.3,5.2-0.8s2.6-1.3,3.6-2.4
			s1.7-2.4,2.1-4S269.4-214.8,269.4-217z"/>
		<path class="st0" d="M300.5-216.8c0,2.5-0.2,4.8-0.6,6.8s-1,3.8-2,5.3s-2.1,2.6-3.6,3.4c-1.5,0.8-3.3,1.2-5.4,1.2
			c-2,0-3.8-0.4-5.2-1.1c-1.4-0.7-2.5-1.8-3.4-3.2c-0.9-1.4-1.5-3.2-1.8-5.2c-0.4-2.1-0.5-4.4-0.5-7.1c0-2.5,0.2-4.7,0.6-6.8
			c0.4-2.1,1.1-3.8,2-5.3c0.9-1.5,2.1-2.6,3.6-3.4c1.5-0.8,3.3-1.2,5.4-1.2c2.1,0,3.8,0.4,5.2,1.1c1.4,0.7,2.5,1.8,3.4,3.2
			c0.9,1.4,1.5,3.2,1.8,5.2C300.4-221.9,300.5-219.5,300.5-216.8z M296.1-216.5c0-1.6-0.1-3.1-0.2-4.4c-0.1-1.3-0.3-2.4-0.5-3.4
			c-0.2-1-0.5-1.8-0.9-2.5c-0.4-0.7-0.8-1.3-1.3-1.8s-1.1-0.8-1.7-1c-0.6-0.2-1.4-0.3-2.2-0.3c-1.4,0-2.6,0.3-3.5,1
			c-0.9,0.7-1.6,1.6-2.1,2.8c-0.5,1.2-0.9,2.5-1,4.1c-0.2,1.6-0.3,3.3-0.3,5.1c0,2.4,0.1,4.5,0.4,6.2c0.3,1.7,0.6,3.1,1.2,4.2
			c0.5,1.1,1.2,1.8,2.1,2.3c0.8,0.5,1.9,0.7,3.1,0.7c0.9,0,1.8-0.2,2.5-0.5c0.7-0.3,1.3-0.7,1.8-1.3c0.5-0.6,0.9-1.2,1.3-2
			c0.3-0.8,0.6-1.7,0.8-2.6c0.2-1,0.3-2,0.4-3.1S296.1-215.3,296.1-216.5z"/>
	</g>
</g>
</svg>
