<?xml version="1.0" encoding="utf-8"?>
<!-- Generator: Adobe Illustrator 27.8.0, SVG Export Plug-In . SVG Version: 6.00 Build 0)  -->
<svg version="1.1"
	 id="svg8" xmlns:svg="http://www.w3.org/2000/svg" xmlns:rdf="http://www.w3.org/1999/02/22-rdf-syntax-ns#" xmlns:sodipodi="http://sodipodi.sourceforge.net/DTD/sodipodi-0.dtd" xmlns:dc="http://purl.org/dc/elements/1.1/" xmlns:inkscape="http://www.inkscape.org/namespaces/inkscape" xmlns:cc="http://creativecommons.org/ns#" inkscape:export-xdpi="93" inkscape:export-ydpi="93" inkscape:version="0.92.4 (5da689c313, 2019-01-14)"
	 xmlns="http://www.w3.org/2000/svg" xmlns:xlink="http://www.w3.org/1999/xlink" x="0px" y="0px" viewBox="0 0 332 1081"
	 style="enable-background:new 0 0 332 1081;" xml:space="preserve">
<style type="text/css">
	.st0{fill:#FFFFFF;}
	.st1{fill:#1A1A1A;}
	.st2{opacity:0.99;fill:#808080;enable-background:new    ;}
	.st3{fill:#CCCCCC;}
	.st4{fill:#0000FF;}
	.st5{fill:#AB9C38;}
	.st6{fill:#978521;}
	.st7{fill:#424242;}
	.st8{opacity:0.99;fill:#1A1A1A;enable-background:new    ;}
	.st9{enable-background:new    ;}
</style>
<defs>
	
		<inkscape:perspective  id="perspective876" inkscape:persp3d-origin="105 : 98.999984 : 1" inkscape:vp_x="0 : 148.49996 : 1" inkscape:vp_y="0 : 999.99982 : 0" inkscape:vp_z="210.00001 : 148.49996 : 1" sodipodi:type="inkscape:persp3d">
		</inkscape:perspective>
</defs>
<sodipodi:namedview  bordercolor="#666666" borderopacity="1.0" id="base" inkscape:current-layer="layer1" inkscape:cx="-879.02612" inkscape:cy="1974.7991" inkscape:document-units="mm" inkscape:lockguides="false" inkscape:pageopacity="0" inkscape:pageshadow="2" inkscape:window-height="1017" inkscape:window-maximized="1" inkscape:window-width="1920" inkscape:window-x="-8" inkscape:window-y="-8" inkscape:zoom="0.16063599" pagecolor="#323232" showgrid="false" showguides="true" width="500mm">
	</sodipodi:namedview>
<g id="layer1" transform="translate(0.31582593,1167.811)" inkscape:groupmode="layer" inkscape:label="Ebene 1">
	
		<rect id="rect815" x="-0.1" y="-905.8" transform="matrix(1 -1.216180e-03 1.216180e-03 1 0.6971 0.2012)" width="331.7" height="665.5"/>
	<rect id="rect821" x="49.7" y="-304" class="st0" width="232.4" height="58.9"/>
	<path id="rect825" class="st1" d="M61.8-300.5l34.7,0c6,0,11,4.9,11,10.9l0,30.4c0,6-4.9,11-10.9,11l-34.7,0c-6,0-11-4.9-11-10.9
		l0-30.4C50.8-295.6,55.7-300.5,61.8-300.5z"/>
	<path id="rect872" class="st1" d="M177.3-300.6l34.7,0c6,0,11,4.9,11,10.9l0,30.4c0,6-4.9,11-10.9,11l-34.7,0c-6,0-11-4.9-11-10.9
		l0-30.4C166.3-295.7,171.2-300.6,177.3-300.6z"/>
	<path id="rect874" class="st1" d="M118.1-300.6l37.5,0c5.3,0,9.5,4.3,9.5,9.5l0,33.2c0,5.3-4.3,9.5-9.5,9.5l-37.5,0
		c-5.3,0-9.5-4.3-9.5-9.5l0-33.2C108.6-296.3,112.8-300.6,118.1-300.6z"/>
	<rect id="rect947" x="76" y="-272.1" class="st2" width="5.8" height="110.7"/>
	<rect id="rect949" x="134.1" y="-272.1" class="st2" width="5.8" height="110.7"/>
	<rect id="rect951" x="191.5" y="-272.2" class="st2" width="5.8" height="110.7"/>
	<g id="flowRoot969" transform="translate(121.05234,20.385458)">
	</g>
	<g id="flowRoot1466" transform="translate(121.05234,20.385458)">
	</g>
	<g id="flowRoot1529" transform="translate(121.05234,20.385458)">
	</g>
	<rect id="rect87" x="46.7" y="-500.8" width="236.6" height="59.5"/>
	<path id="path31-1" inkscape:connector-curvature="0" class="st0" d="M94.2-775c2.1,0,2.3-0.1,2.7-0.3c0.2-0.1,0.5-0.4,0.7-0.6
		c0.2-0.4,0.2-0.6,0.3-4.8l0-4.5l4.4,0l4.4,0l0,5.5c0,6.1,0,6.7-0.7,8.3c-0.8,2.1-2.1,3.1-4.6,3.7c-0.7,0.2-1.4,0.2-4,0.2
		c-1.7,0-3.7-0.1-4.2-0.1l-1.1-0.1l0-3.6l0-3.6L94.2-775L94.2-775z M136-762.6c37.5,0,46.7,0,45.1,0.2l-0.2,0l0.2,0.1
		c0.2,0.1,0.2,0.1-0.2,0.1c-0.3,0-0.2,0.1,0.4,0.1l0.8,0.1l-0.8,0c-0.4,0-0.7,0.1-0.6,0.1c0.2,0,0.2,0.2,0.2,1c0,1,0,1,0.3,1
		c0.2,0,0.2,0.1-0.2,0.1c-0.3,0-0.5,0.1-0.5,0.1c0,0.1-14.9,0.1-44.3,0.2l-44.3,0l0-1.6l0-1.6L136-762.6z M102.2-796.7l4.4,0l0,3.6
		l0,3.6l-4.4,0l-4.4,0l0-3.6l0-3.6L102.2-796.7z M111.1-783.4c0.3-2,0.9-3.8,1.7-5.4c0.3-0.6,0.6-1.1,0.6-1.1c0,0,0.3-0.4,0.5-0.7
		c0.5-0.7,1.5-2,1.8-2.2c0.1-0.1,0.2-0.1,0.2-0.2c0-0.2,1.1-1.2,2-1.8c0.9-0.7,1.7-1,3.3-1.6c1.9-0.7,3-0.9,5.3-0.8
		c1.7,0.1,2.1,0.1,3.1,0.4c0.7,0.2,1.5,0.5,1.8,0.6c0.3,0.1,0.6,0.2,0.7,0.2c0.1,0,0.6,0.3,1.1,0.6c2.1,1.2,5,4.5,6.1,6.9
		c1.7,3.8,2,7.7,0.7,11.2c-0.6,1.5-1,2.3-1.6,3.4c-0.7,1.2-0.8,1.3-2.6,3.1c-2.1,2.1-3.6,2.9-6.3,3.7c-1.4,0.4-4.1,0.5-5.6,0.3
		c-1.9-0.3-4.5-1.4-6-2.5c-0.8-0.6-1.9-1.6-1.9-1.7c0,0-0.3-0.3-0.6-0.7c-1.6-1.6-3.2-4.8-3.8-7.4
		C111.2-780.1,111-782.7,111.1-783.4L111.1-783.4z M119.6-779.7c0.4,1.7,1.3,3.1,2.6,4.4c1.3,1.3,3.4,1.7,5.3,1.2c2-0.6,4-3,4.6-5.5
		c0.4-1.4,0.3-3.6-0.1-5c-0.6-2-1.6-3.5-3.1-4.6c-0.7-0.5-1-0.6-1.7-0.7c-1.5-0.3-3-0.1-4.1,0.4c-0.9,0.5-2.1,1.8-2.8,3.2
		C119.3-784.3,119-781.9,119.6-779.7L119.6-779.7z M144.5-796.7c0.1,0,2.1,0,4.4,0l4.3,0l0,4c0,3.7,0,4,0.3,4.6
		c0.6,1.7,2.7,2.6,4.4,2c0.9-0.3,1.5-0.8,2-1.7l0.4-0.8l0-4.1l0-4.1l4.4,0l4.4,0l0,4.6c0,4.3-0.1,4.7-0.3,5.6
		c-0.5,1.8-1.3,3.4-2.3,4.6c-0.3,0.3-0.5,0.6-0.5,0.7c0,0.2-1.1,1.2-2.1,1.9c-0.8,0.6-2,1.3-2.6,1.4c-0.2,0-0.8,0.2-1.4,0.4
		c-0.9,0.3-1.2,0.3-3.2,0.3c-2,0-2.2,0-3.3-0.3c-1.8-0.5-2.3-0.7-3.5-1.5c-1.3-0.9-2.4-2-3.4-3.3c-1.3-1.9-1.9-3.4-2.1-5.6
		C144.3-789.6,144.3-796.6,144.5-796.7L144.5-796.7z M156.8-774.9l7.2,0l0,3.7l0,3.7l-7.2,0l-7.2,0l0-3.7l0-3.7L156.8-774.9z
		 M169.2-802.4c0.1,0,0.1-0.2,0.1-0.5c0-0.5,0-0.5,0.6-0.5c0.3,0,12.6-0.1,27.2-0.1l26.7,0l0,1.6l0,1.6l-27.1,0
		c-14.9,0-27.2,0-27.3,0c-0.2-0.1-0.2-0.3-0.2-1.1C169.1-802,169.1-802.4,169.2-802.4L169.2-802.4z M181.4-784.6l9.2,0l0,3.7l0,3.7
		l-9.2,0l-9.2,0l0-3.7l0-3.7L181.4-784.6z M197.9-796.8l4.4,0l0,3.6l0,3.6l-4.4,0l-4.4,0l0-3.6l0-3.6L197.9-796.8z M197.9-785.8
		l4.4,0l0,9.3l0,9.3l-4.4,0l-4.4,0l0-9.3l0-9.3L197.9-785.8z M215.6-796.8l9.3,0l0,3.6l0,3.6l-9.3,0l-9.3,0l0-3.6l0-3.6L215.6-796.8
		z M207.8-785.3c0.1,0,2-0.1,4.4-0.1l4.3,0l0,4.3c0.1,6-0.2,5.7,4.3,5.7l2.8,0l0,3.8l0,3.8l-1.1,0.1c-1.6,0.2-6.7,0.2-8,0
		c-2.4-0.4-3.9-1.1-4.9-2.3c-1.1-1.3-1.6-2.6-1.8-4.6C207.7-776,207.7-785.2,207.8-785.3L207.8-785.3z M230-800.3
		c0.2-0.8,0.7-1.5,1.1-2c2-1.8,4.4-2,6.4-0.5c0.9,0.7,1.2,0.9,1.6,1.8c0.3,0.6,0.3,0.8,0.3,1.9c0,1.1,0,1.3-0.3,2
		c-0.7,1.4-2.4,2.6-4,2.7c-1.5,0.1-2.7-0.3-4-1.5C230.1-797,229.6-798.8,230-800.3L230-800.3z M230.9-797.3c0.4,1,1.7,1.9,2.9,2.2
		c1.3,0.3,2.3,0,3.7-1c0.4-0.3,0.6-0.6,0.9-1.2c0.3-0.7,0.4-0.9,0.4-1.8c0-0.9,0-1.1-0.4-1.8c-0.3-0.7-0.6-0.9-1.1-1.3
		c-0.4-0.3-1-0.6-1.3-0.7c-2-0.7-4.4,0.4-5.3,2.4C230.4-799.8,230.5-798.2,230.9-797.3z M234.2-801.9c0.9,0,1.8,0.1,1.9,0.1
		c0.7,0.3,1.1,1.6,0.5,2.3c-0.1,0.2-0.4,0.4-0.7,0.5l-0.4,0.1l0.4,0.4c0.2,0.2,0.6,0.7,0.8,1.1s0.4,0.7,0.5,0.7
		c0.3,0.2,0.1,0.3-0.4,0.3l-0.5,0l-0.7-1.1c-0.8-1.2-1-1.3-1.8-1.3l-0.5,0l0,1.2l0,1.2l-0.4,0l-0.4,0l0-2.7l0-2.7L234.2-801.9z
		 M234.4-799.5c0.9,0,1.1,0,1.4-0.2c0.7-0.5,0.3-1.3-0.7-1.5c-0.4-0.1-1.5,0-1.7,0c0,0,0,0.4,0,0.8l0,0.8L234.4-799.5z"/>
	<path id="rect64" class="st1" d="M234.7-300.6l34.7,0c6,0,11,4.9,11,10.9l0,30.4c0,6-4.9,11-10.9,11l-34.7,0c-6,0-11-4.9-11-10.9
		l0-30.4C223.7-295.7,228.6-300.6,234.7-300.6z"/>
	<rect id="rect66" x="248.9" y="-272.2" class="st2" width="5.8" height="110.7"/>
	<rect id="rect103" x="-0.3" y="-1066.8" width="73.8" height="161.6"/>
	<rect id="rect105" x="257.9" y="-1066.8" width="73.8" height="161.6"/>
	<circle id="path107" class="st3" cx="165.7" cy="-422.6" r="81.2"/>
	<circle id="path133" class="st0" cx="165.7" cy="-422.6" r="66.4"/>
	<rect id="rect137" x="-0.3" y="-733.3" class="st0" width="125.4" height="221.3"/>
	<rect id="rect141" x="-0.3" y="-728.8" width="118" height="212.5"/>
	<rect id="rect139" x="3.4" y="-729.5" class="st4" width="118" height="214"/>
	
		<circle id="path144" inkscape:transform-center-x="7.5703852" inkscape:transform-center-y="6.4056526" class="st5" cx="21.8" cy="-534" r="18.4">
	</circle>
	<rect id="rect952" x="3.4" y="-536.9" class="st6" width="36.9" height="5.9"/>
	<rect id="rect956" x="170.8" y="-696.3" class="st0" width="160.8" height="125.4"/>
	<rect id="rect958" x="174.5" y="-692.6" width="153.5" height="118"/>
	<rect id="rect960" x="199.6" y="-685.2" class="st7" width="103.3" height="103.3"/>
	<rect id="rect962" x="199.6" y="-581.9" class="st3" width="18.4" height="29.5"/>
	<rect id="rect964" x="284.5" y="-581.9" class="st3" width="18.4" height="29.5"/>
	<rect id="rect966" x="225.4" y="-581.9" class="st3" width="18.4" height="29.5"/>
	<rect id="rect968" x="258.6" y="-581.9" class="st3" width="18.4" height="29.5"/>
	<rect id="rect970" x="199.6" y="-714.7" class="st3" width="18.4" height="29.5"/>
	<rect id="rect972" x="284.5" y="-714.7" class="st3" width="18.4" height="29.5"/>
	<rect id="rect974" x="225.4" y="-714.7" class="st3" width="18.4" height="29.5"/>
	<rect id="rect976" x="258.6" y="-714.7" class="st3" width="18.4" height="29.5"/>
	<polygon id="rect978" class="st2" points="205.9,-585.6 211.7,-585.6 211.8,-567.2 206,-567.2 	"/>
	<polygon id="rect980" class="st2" points="231.7,-585.6 237.6,-585.6 237.7,-567.2 231.8,-567.2 	"/>
	<polygon id="rect982" class="st2" points="264.9,-585.6 270.8,-585.6 270.9,-567.2 265,-567.2 	"/>
	<polygon id="rect984" class="st2" points="290.7,-585.6 296.6,-585.6 296.7,-567.2 290.8,-567.2 	"/>
	<polygon id="rect986" class="st2" points="205.9,-681.5 211.7,-681.5 211.8,-700 206,-700 	"/>
	<polygon id="rect988" class="st2" points="231.7,-681.5 237.6,-681.5 237.7,-700 231.8,-700 	"/>
	<polygon id="rect990" class="st2" points="264.9,-681.5 270.8,-681.5 270.9,-700 265,-700 	"/>
	<polygon id="rect992" class="st2" points="290.7,-681.5 296.6,-681.5 296.7,-700 290.8,-700 	"/>
	<circle id="path994" class="st3" cx="294.8" cy="-995.1" r="25.8"/>
	<circle id="circle996" class="st3" cx="36.6" cy="-995.1" r="25.8"/>
	<circle id="path998" class="st0" cx="36.6" cy="-995.1" r="22.1"/>
	<circle id="path1000" class="st0" cx="294.8" cy="-995.1" r="22.1"/>
	<path id="rect836-7" class="st3" d="M114.7-891h11.1c11.2,0,20.3,9.1,20.3,20.3l0,0c0,11.2-9.1,20.3-20.3,20.3h-11.1
		c-11.2,0-20.3-9.1-20.3-20.3l0,0C94.4-881.9,103.5-891,114.7-891z"/>
	<path id="rect836-6" class="st3" d="M170-891h11.1c11.2,0,20.3,9.1,20.3,20.3l0,0c0,11.2-9.1,20.3-20.3,20.3H170
		c-11.2,0-20.3-9.1-20.3-20.3l0,0C149.7-881.9,158.8-891,170-891z"/>
	
		<rect id="rect943" x="219.3" y="-894.1" transform="matrix(1 -8.295600e-03 8.295600e-03 1 7.2113 1.9477)" class="st3" width="38.3" height="51.6"/>
	<rect id="rect1512" x="123.7" y="-1162" class="st8" width="116.2" height="99.6"/>
	<rect id="rect78" x="156.9" y="-1062.6" class="st2" width="4.4" height="113.7"/>
	<rect id="rect76" x="179" y="-1062.6" class="st2" width="4.4" height="114.3"/>
	<rect id="rect74" x="201.2" y="-1062.6" class="st2" width="4.4" height="114.3"/>
	<polygon id="rect95" inkscape:transform-center-x="-26.388935" inkscape:transform-center-y="-55.27357" class="st2" points="
		156.9,-949.5 161.6,-949.5 122.6,-867.7 117.8,-867.7 	">
	</polygon>
	<polygon id="rect99" inkscape:transform-center-x="-3.8825537" inkscape:transform-center-y="-55.562322" class="st2" points="
		179,-949.6 183.6,-949.6 177.9,-867.7 173.2,-867.7 	">
	</polygon>
	<polygon id="rect101" inkscape:transform-center-x="24.020242" inkscape:transform-center-y="-55.554198" class="st2" points="
		200.9,-949 205.6,-949 241,-867.2 236.3,-867.2 	">
	</polygon>
	<path id="rect1026" class="st3" d="M47.7-848.9l0-37.8c0-4.8,3.9-8.8,8.8-8.8l20.8,0c4.8,0,8.8,3.9,8.8,8.8l0,37.8
		c0,4.8-3.9,8.8-8.8,8.8l-20.8,0C51.6-840.2,47.7-844.1,47.7-848.9z"/>
	<circle id="path1028" class="st0" cx="66.8" cy="-858.6" r="11.1"/>
	<path id="rect1030" class="st3" d="M44.6-875.5l0.1,11.2c0.1,11.2-8.8,20.3-20,20.5l0,0c-11.2,0.1-20.3-8.8-20.5-20L4.1-875
		c-0.1-11.2,8.8-20.3,20-20.5l0,0C35.3-895.6,44.4-886.7,44.6-875.5z"/>
	<circle id="circle105" class="st0" cx="24.4" cy="-869.7" r="14.8"/>
	<g class="st9">
		<path d="M121.8-156.9c0,0.2,0,0.4,0,0.6c0,0.2-0.1,0.3-0.1,0.5s-0.1,0.2-0.2,0.3s-0.2,0.1-0.2,0.1c-0.2,0-0.4-0.1-0.8-0.4
			c-0.4-0.2-0.8-0.5-1.4-0.8s-1.3-0.6-2.1-0.8c-0.8-0.2-1.8-0.4-2.9-0.4c-1.3,0-2.5,0.2-3.6,0.7c-1.1,0.5-2,1.2-2.7,2
			s-1.3,1.9-1.7,3.1s-0.6,2.5-0.6,3.9c0,1.6,0.2,2.9,0.6,4.1c0.4,1.2,1,2.2,1.8,3c0.8,0.8,1.7,1.5,2.7,1.9c1.1,0.4,2.2,0.6,3.5,0.6
			c0.8,0,1.5-0.1,2.3-0.3c0.8-0.2,1.5-0.5,2.2-0.8v-7.1h-5.6c-0.2,0-0.4-0.1-0.5-0.3s-0.2-0.5-0.2-1c0-0.2,0-0.4,0-0.6
			c0-0.2,0.1-0.3,0.1-0.4s0.1-0.2,0.2-0.2c0.1,0,0.2-0.1,0.3-0.1h7.7c0.1,0,0.3,0,0.4,0.1c0.1,0.1,0.3,0.1,0.4,0.2
			c0.1,0.1,0.2,0.2,0.3,0.4s0.1,0.4,0.1,0.6v9.3c0,0.3-0.1,0.6-0.2,0.8c-0.1,0.2-0.4,0.4-0.7,0.6c-0.4,0.2-0.8,0.4-1.4,0.6
			c-0.6,0.2-1.2,0.4-1.8,0.5c-0.6,0.1-1.2,0.3-1.9,0.3c-0.6,0.1-1.2,0.1-1.9,0.1c-1.9,0-3.6-0.3-5-0.9c-1.5-0.6-2.7-1.4-3.8-2.5
			c-1-1.1-1.8-2.4-2.3-3.9c-0.5-1.5-0.8-3.2-0.8-5c0-1.9,0.3-3.7,0.9-5.2c0.6-1.6,1.4-2.9,2.5-4c1.1-1.1,2.3-2,3.8-2.6
			c1.5-0.6,3.1-0.9,4.9-0.9c0.9,0,1.8,0.1,2.6,0.2s1.5,0.4,2.2,0.6c0.6,0.2,1.2,0.5,1.6,0.7s0.7,0.5,0.9,0.6s0.3,0.4,0.3,0.6
			C121.8-157.6,121.8-157.3,121.8-156.9z"/>
		<path d="M146.2-137.3c0,0.3,0,0.5-0.1,0.6s-0.2,0.3-0.3,0.4c-0.1,0.1-0.3,0.2-0.5,0.2s-0.3,0.1-0.5,0.1h-1.1c-0.3,0-0.6,0-0.9-0.1
			s-0.5-0.2-0.7-0.4c-0.2-0.2-0.5-0.4-0.7-0.7c-0.2-0.3-0.5-0.7-0.7-1.2l-7.4-13.8c-0.4-0.7-0.8-1.5-1.2-2.2
			c-0.4-0.8-0.8-1.5-1.1-2.3h0c0,0.9,0,1.8,0.1,2.8c0,0.9,0,1.9,0,2.8v14.7c0,0.1,0,0.2-0.1,0.3c-0.1,0.1-0.1,0.1-0.3,0.2
			c-0.1,0-0.3,0.1-0.5,0.1s-0.5,0-0.8,0s-0.6,0-0.8,0s-0.4-0.1-0.5-0.1c-0.1,0-0.2-0.1-0.3-0.2c-0.1-0.1-0.1-0.2-0.1-0.3v-22.4
			c0-0.5,0.1-0.9,0.4-1.1c0.3-0.2,0.6-0.3,0.9-0.3h1.6c0.4,0,0.7,0,0.9,0.1c0.3,0.1,0.5,0.2,0.7,0.3c0.2,0.1,0.4,0.3,0.6,0.6
			c0.2,0.3,0.4,0.6,0.6,1l5.7,10.7c0.4,0.7,0.7,1.3,1,1.9c0.3,0.6,0.6,1.2,0.9,1.8s0.6,1.2,0.9,1.8c0.3,0.6,0.6,1.2,0.9,1.8h0
			c0-1,0-2,0-3.1c0-1.1,0-2.1,0-3.1v-13.2c0-0.1,0-0.2,0.1-0.2s0.1-0.1,0.3-0.2c0.1-0.1,0.3-0.1,0.5-0.1s0.5,0,0.8,0
			c0.3,0,0.5,0,0.8,0c0.2,0,0.4,0.1,0.5,0.1s0.2,0.1,0.3,0.2s0.1,0.2,0.1,0.2V-137.3z"/>
		<path d="M171.4-148.4c0,2.1-0.3,3.9-0.8,5.5s-1.3,2.9-2.4,3.9c-1,1-2.3,1.8-3.8,2.3s-3.3,0.8-5.4,0.8h-5.2c-0.3,0-0.6-0.1-0.8-0.3
			s-0.4-0.5-0.4-1v-21.7c0-0.5,0.1-0.8,0.4-1c0.3-0.2,0.5-0.3,0.8-0.3h5.5c2.1,0,3.9,0.3,5.3,0.8c1.5,0.5,2.7,1.3,3.7,2.3
			c1,1,1.7,2.3,2.2,3.7C171.1-151.9,171.4-150.3,171.4-148.4z M168-148.3c0-1.3-0.2-2.5-0.5-3.7c-0.3-1.1-0.8-2.1-1.5-2.9
			s-1.6-1.5-2.6-1.9c-1.1-0.5-2.4-0.7-4.1-0.7h-3.3v18.9h3.3c1.6,0,2.9-0.2,3.9-0.6c1.1-0.4,2-1,2.7-1.8c0.7-0.8,1.2-1.8,1.6-3
			C167.8-145.2,168-146.7,168-148.3z"/>
	</g>
	<g class="st9">
		<path d="M223.1-145.4c0,2.1-0.3,3.9-0.8,5.5S221-137,220-136c-1,1-2.3,1.8-3.8,2.3s-3.3,0.8-5.4,0.8h-5.2c-0.3,0-0.6-0.1-0.8-0.3
			s-0.4-0.5-0.4-1v-21.7c0-0.5,0.1-0.8,0.4-1c0.3-0.2,0.5-0.3,0.8-0.3h5.5c2.1,0,3.9,0.3,5.3,0.8c1.5,0.5,2.7,1.3,3.7,2.3
			c1,1,1.7,2.3,2.2,3.7C222.9-148.9,223.1-147.3,223.1-145.4z M219.7-145.3c0-1.3-0.2-2.5-0.5-3.7c-0.3-1.1-0.8-2.1-1.5-2.9
			s-1.6-1.5-2.6-1.9c-1.1-0.5-2.4-0.7-4.1-0.7h-3.3v18.9h3.3c1.6,0,2.9-0.2,3.9-0.6c1.1-0.4,2-1,2.7-1.8c0.7-0.8,1.2-1.8,1.6-3
			C219.5-142.2,219.7-143.6,219.7-145.3z"/>
		<path d="M231.2-156c0,0.7-0.1,1.2-0.4,1.5c-0.3,0.3-0.8,0.4-1.5,0.4c-0.7,0-1.2-0.1-1.5-0.4c-0.3-0.3-0.4-0.7-0.4-1.5
			c0-0.7,0.1-1.2,0.4-1.5c0.3-0.3,0.8-0.4,1.5-0.4c0.7,0,1.2,0.1,1.5,0.4C231.1-157.2,231.2-156.7,231.2-156z M230.8-133.4
			c0,0.1,0,0.2-0.1,0.3c0,0.1-0.1,0.1-0.2,0.2c-0.1,0-0.3,0.1-0.5,0.1s-0.5,0-0.8,0c-0.3,0-0.6,0-0.8,0s-0.4-0.1-0.5-0.1
			c-0.1-0.1-0.2-0.1-0.2-0.2c0-0.1-0.1-0.2-0.1-0.3v-16.9c0-0.1,0-0.2,0.1-0.2s0.1-0.1,0.2-0.2c0.1,0,0.3-0.1,0.5-0.1s0.5,0,0.8,0
			c0.3,0,0.6,0,0.8,0s0.4,0.1,0.5,0.1c0.1,0.1,0.2,0.1,0.2,0.2c0.1,0.1,0.1,0.2,0.1,0.2V-133.4z"/>
		<path d="M250.7-149.5c0,0.4-0.1,0.8-0.2,0.9s-0.3,0.3-0.5,0.3h-2.4c0.4,0.5,0.7,0.9,0.9,1.5c0.2,0.5,0.3,1.1,0.3,1.7
			c0,1-0.2,1.8-0.5,2.6s-0.8,1.4-1.3,1.9s-1.3,0.9-2.1,1.2s-1.7,0.4-2.7,0.4c-0.7,0-1.3-0.1-2-0.3s-1.1-0.4-1.4-0.7
			c-0.2,0.2-0.4,0.5-0.6,0.8c-0.1,0.3-0.2,0.6-0.2,1c0,0.4,0.2,0.8,0.6,1.1c0.4,0.3,0.9,0.4,1.6,0.5l4.4,0.2c0.8,0,1.6,0.1,2.3,0.3
			c0.7,0.2,1.3,0.5,1.8,0.9c0.5,0.4,0.9,0.9,1.2,1.4s0.4,1.2,0.4,1.9c0,0.8-0.2,1.5-0.5,2.2s-0.8,1.3-1.5,1.9
			c-0.7,0.5-1.5,1-2.6,1.3c-1,0.3-2.3,0.5-3.7,0.5c-1.4,0-2.5-0.1-3.5-0.3c-1-0.2-1.7-0.5-2.4-0.9c-0.6-0.4-1.1-0.9-1.3-1.4
			c-0.3-0.6-0.4-1.2-0.4-1.8c0-0.4,0-0.8,0.2-1.2c0.1-0.4,0.3-0.8,0.5-1.1c0.2-0.4,0.5-0.7,0.8-1c0.3-0.3,0.7-0.6,1.1-0.9
			c-0.6-0.3-1.1-0.7-1.4-1.2c-0.3-0.5-0.4-1-0.4-1.5c0-0.8,0.2-1.4,0.5-2c0.3-0.6,0.7-1.1,1.2-1.6c-0.4-0.5-0.7-1-0.9-1.6
			c-0.2-0.6-0.3-1.3-0.3-2.1c0-1,0.2-1.8,0.5-2.6c0.3-0.8,0.8-1.4,1.4-1.9c0.6-0.5,1.3-0.9,2.1-1.2c0.8-0.3,1.7-0.4,2.6-0.4
			c0.5,0,1,0,1.4,0.1c0.4,0.1,0.9,0.1,1.2,0.2h5.1c0.2,0,0.4,0.1,0.5,0.3S250.7-150,250.7-149.5z M247.4-131.7
			c0-0.7-0.3-1.3-0.9-1.7c-0.6-0.4-1.4-0.6-2.4-0.6l-4.4-0.2c-0.4,0.3-0.7,0.6-1,0.9s-0.5,0.6-0.6,0.8s-0.3,0.5-0.3,0.8
			c-0.1,0.3-0.1,0.5-0.1,0.8c0,0.8,0.4,1.4,1.2,1.9s2,0.6,3.5,0.6c0.9,0,1.7-0.1,2.4-0.3s1.1-0.4,1.5-0.7c0.4-0.3,0.7-0.6,0.8-1
			S247.4-131.2,247.4-131.7z M245.9-145.1c0-1.2-0.3-2.1-0.9-2.7c-0.6-0.6-1.5-1-2.7-1c-0.6,0-1.1,0.1-1.6,0.3
			c-0.4,0.2-0.8,0.5-1.1,0.8c-0.3,0.4-0.5,0.8-0.7,1.2c-0.1,0.5-0.2,0.9-0.2,1.4c0,1.1,0.3,2,0.9,2.6c0.6,0.6,1.5,1,2.7,1
			c0.6,0,1.1-0.1,1.6-0.3s0.8-0.5,1.1-0.8c0.3-0.3,0.5-0.7,0.7-1.2C245.8-144.1,245.9-144.6,245.9-145.1z"/>
		<path d="M258.2-156c0,0.7-0.1,1.2-0.4,1.5c-0.3,0.3-0.8,0.4-1.5,0.4c-0.7,0-1.2-0.1-1.5-0.4c-0.3-0.3-0.4-0.7-0.4-1.5
			c0-0.7,0.1-1.2,0.4-1.5c0.3-0.3,0.8-0.4,1.5-0.4c0.7,0,1.2,0.1,1.5,0.4C258-157.2,258.2-156.7,258.2-156z M257.8-133.4
			c0,0.1,0,0.2-0.1,0.3c0,0.1-0.1,0.1-0.2,0.2c-0.1,0-0.3,0.1-0.5,0.1s-0.5,0-0.8,0c-0.3,0-0.6,0-0.8,0s-0.4-0.1-0.5-0.1
			c-0.1-0.1-0.2-0.1-0.2-0.2c0-0.1-0.1-0.2-0.1-0.3v-16.9c0-0.1,0-0.2,0.1-0.2s0.1-0.1,0.2-0.2c0.1,0,0.3-0.1,0.5-0.1s0.5,0,0.8,0
			c0.3,0,0.6,0,0.8,0s0.4,0.1,0.5,0.1c0.1,0.1,0.2,0.1,0.2,0.2c0.1,0.1,0.1,0.2,0.1,0.2V-133.4z"/>
		<path d="M272.3-134.6c0,0.4,0,0.7-0.1,0.9s-0.1,0.4-0.2,0.5c-0.1,0.1-0.3,0.2-0.5,0.3s-0.4,0.2-0.7,0.2s-0.5,0.1-0.8,0.1
			c-0.3,0-0.6,0.1-0.9,0.1c-0.9,0-1.6-0.1-2.3-0.3c-0.6-0.2-1.1-0.6-1.5-1.1c-0.4-0.5-0.7-1.1-0.9-1.8s-0.3-1.6-0.3-2.5v-9.9h-2.4
			c-0.2,0-0.3-0.1-0.5-0.3c-0.1-0.2-0.2-0.5-0.2-1c0-0.2,0-0.4,0-0.6s0.1-0.3,0.1-0.4s0.1-0.2,0.2-0.2c0.1,0,0.2-0.1,0.3-0.1h2.3v-4
			c0-0.1,0-0.2,0.1-0.2c0-0.1,0.1-0.1,0.2-0.2c0.1-0.1,0.3-0.1,0.5-0.1c0.2,0,0.5,0,0.8,0c0.3,0,0.6,0,0.8,0c0.2,0,0.4,0.1,0.5,0.1
			c0.1,0.1,0.2,0.1,0.2,0.2s0.1,0.2,0.1,0.2v4h4.3c0.1,0,0.2,0,0.3,0.1s0.1,0.1,0.2,0.2c0.1,0.1,0.1,0.2,0.1,0.4c0,0.2,0,0.4,0,0.6
			c0,0.5-0.1,0.8-0.2,1c-0.1,0.2-0.3,0.3-0.5,0.3h-4.3v9.4c0,1.2,0.2,2,0.5,2.6c0.3,0.6,1,0.9,1.9,0.9c0.3,0,0.5,0,0.8-0.1
			s0.4-0.1,0.6-0.2s0.3-0.1,0.5-0.2s0.2-0.1,0.3-0.1c0.1,0,0.1,0,0.2,0s0.1,0.1,0.1,0.2c0,0.1,0.1,0.2,0.1,0.4
			C272.3-135,272.3-134.8,272.3-134.6z"/>
		<path d="M288.7-133.4c0,0.2-0.1,0.3-0.2,0.3c-0.1,0.1-0.2,0.1-0.4,0.2c-0.2,0-0.4,0.1-0.8,0.1c-0.3,0-0.6,0-0.8-0.1
			c-0.2,0-0.3-0.1-0.4-0.2c-0.1-0.1-0.1-0.2-0.1-0.3v-1.7c-0.7,0.8-1.6,1.4-2.5,1.8c-0.9,0.4-1.9,0.7-2.9,0.7
			c-0.9,0-1.7-0.1-2.4-0.3c-0.7-0.2-1.3-0.6-1.8-1c-0.5-0.4-0.9-1-1.2-1.6c-0.3-0.6-0.4-1.4-0.4-2.2c0-1,0.2-1.8,0.6-2.5
			c0.4-0.7,0.9-1.3,1.7-1.7s1.6-0.8,2.7-1c1.1-0.2,2.2-0.3,3.6-0.3h2.3v-1.3c0-0.7-0.1-1.2-0.2-1.7c-0.1-0.5-0.4-0.9-0.7-1.2
			c-0.3-0.3-0.7-0.6-1.2-0.8c-0.5-0.2-1.1-0.3-1.8-0.3c-0.8,0-1.5,0.1-2.1,0.3s-1.1,0.4-1.6,0.6c-0.5,0.2-0.8,0.4-1.1,0.6
			s-0.5,0.3-0.7,0.3c-0.1,0-0.2,0-0.3-0.1s-0.1-0.1-0.2-0.2s-0.1-0.2-0.1-0.4c0-0.2,0-0.3,0-0.5c0-0.3,0-0.6,0.1-0.7
			s0.2-0.4,0.3-0.5c0.2-0.2,0.5-0.4,0.9-0.6c0.4-0.2,0.9-0.4,1.4-0.6c0.5-0.2,1.1-0.3,1.8-0.5s1.3-0.2,1.9-0.2
			c1.2,0,2.2,0.1,3.1,0.4c0.9,0.3,1.5,0.7,2.1,1.2s0.9,1.2,1.1,2c0.2,0.8,0.4,1.7,0.4,2.8V-133.4z M285.6-141.1H283
			c-0.9,0-1.6,0.1-2.2,0.2c-0.6,0.1-1.1,0.4-1.6,0.6c-0.4,0.3-0.7,0.6-0.9,1c-0.2,0.4-0.3,0.8-0.3,1.4c0,0.9,0.3,1.6,0.8,2.1
			c0.6,0.5,1.3,0.8,2.3,0.8c0.8,0,1.6-0.2,2.3-0.6c0.7-0.4,1.4-1,2.2-1.9V-141.1z"/>
		<path d="M297.5-133.4c0,0.1,0,0.2-0.1,0.3c0,0.1-0.1,0.1-0.2,0.2c-0.1,0-0.3,0.1-0.5,0.1s-0.5,0-0.8,0c-0.3,0-0.6,0-0.8,0
			s-0.4-0.1-0.5-0.1c-0.1-0.1-0.2-0.1-0.2-0.2c0-0.1-0.1-0.2-0.1-0.3v-25.1c0-0.1,0-0.2,0.1-0.3s0.1-0.1,0.2-0.2
			c0.1-0.1,0.3-0.1,0.5-0.1c0.2,0,0.5,0,0.8,0c0.3,0,0.6,0,0.8,0c0.2,0,0.4,0.1,0.5,0.1c0.1,0,0.2,0.1,0.2,0.2
			c0.1,0.1,0.1,0.2,0.1,0.3V-133.4z"/>
	</g>
	<g class="st9">
		<path d="M43.2-94.9c0.1,0.3,0.2,0.5,0.2,0.7c0,0.2,0,0.3-0.1,0.4c-0.1,0.1-0.3,0.1-0.5,0.2c-0.2,0-0.5,0-0.9,0c-0.4,0-0.7,0-0.9,0
			c-0.2,0-0.4-0.1-0.5-0.1c-0.1,0-0.2-0.1-0.3-0.2c-0.1-0.1-0.1-0.2-0.2-0.3l-2.1-5.9H27.7l-2,5.8c0,0.1-0.1,0.2-0.2,0.3
			c-0.1,0.1-0.2,0.2-0.3,0.2s-0.3,0.1-0.5,0.1c-0.2,0-0.5,0-0.9,0c-0.4,0-0.7,0-0.9,0c-0.2,0-0.4-0.1-0.5-0.2
			c-0.1-0.1-0.1-0.2-0.1-0.4c0-0.2,0.1-0.4,0.2-0.7l8.2-22.6c0-0.1,0.1-0.2,0.2-0.3c0.1-0.1,0.2-0.2,0.4-0.2c0.2,0,0.4-0.1,0.6-0.1
			c0.2,0,0.6,0,0.9,0c0.4,0,0.7,0,1,0c0.3,0,0.5,0.1,0.6,0.1c0.2,0.1,0.3,0.1,0.4,0.2c0.1,0.1,0.2,0.2,0.2,0.3L43.2-94.9z
			 M32.7-114.8L32.7-114.8l-4.2,12.1h8.5L32.7-114.8z"/>
		<path d="M61.4-94.2c0,0.1,0,0.2-0.1,0.3c-0.1,0.1-0.1,0.1-0.2,0.2c-0.1,0-0.3,0.1-0.5,0.1s-0.5,0-0.8,0c-0.3,0-0.6,0-0.8,0
			c-0.2,0-0.4-0.1-0.5-0.1c-0.1-0.1-0.2-0.1-0.2-0.2c0-0.1-0.1-0.2-0.1-0.3v-9.9c0-1-0.1-1.7-0.2-2.3c-0.2-0.6-0.4-1.1-0.7-1.5
			c-0.3-0.4-0.7-0.8-1.1-1c-0.5-0.2-1-0.3-1.6-0.3c-0.8,0-1.6,0.3-2.3,0.8c-0.8,0.6-1.6,1.4-2.4,2.4v11.8c0,0.1,0,0.2-0.1,0.3
			c0,0.1-0.1,0.1-0.2,0.2c-0.1,0-0.3,0.1-0.5,0.1s-0.5,0-0.8,0c-0.3,0-0.6,0-0.8,0s-0.4-0.1-0.5-0.1c-0.1-0.1-0.2-0.1-0.2-0.2
			c0-0.1-0.1-0.2-0.1-0.3v-16.9c0-0.1,0-0.2,0.1-0.3c0-0.1,0.1-0.1,0.2-0.2c0.1-0.1,0.3-0.1,0.4-0.1s0.4,0,0.7,0c0.3,0,0.5,0,0.7,0
			s0.3,0.1,0.4,0.1c0.1,0.1,0.2,0.1,0.2,0.2c0,0.1,0.1,0.2,0.1,0.3v2.2c1-1.1,1.9-1.8,2.8-2.3s1.9-0.7,2.9-0.7
			c1.1,0,2.1,0.2,2.8,0.6s1.4,0.9,1.9,1.5c0.5,0.6,0.8,1.4,1,2.2c0.2,0.9,0.3,1.9,0.3,3.1V-94.2z"/>
		<path d="M79.8-94.2c0,0.2-0.1,0.3-0.2,0.3c-0.1,0.1-0.2,0.1-0.4,0.2c-0.2,0-0.4,0.1-0.8,0.1c-0.3,0-0.6,0-0.8-0.1
			c-0.2,0-0.3-0.1-0.4-0.2c-0.1-0.1-0.1-0.2-0.1-0.3v-1.7c-0.7,0.8-1.6,1.4-2.5,1.8c-0.9,0.4-1.9,0.7-2.9,0.7
			c-0.9,0-1.7-0.1-2.4-0.3c-0.7-0.2-1.3-0.6-1.8-1c-0.5-0.4-0.9-1-1.2-1.6C66.1-97,66-97.7,66-98.5c0-1,0.2-1.8,0.6-2.5
			c0.4-0.7,0.9-1.3,1.7-1.7s1.6-0.8,2.7-1c1.1-0.2,2.2-0.3,3.6-0.3h2.3v-1.3c0-0.7-0.1-1.2-0.2-1.7c-0.1-0.5-0.4-0.9-0.7-1.2
			c-0.3-0.3-0.7-0.6-1.2-0.8c-0.5-0.2-1.1-0.3-1.8-0.3c-0.8,0-1.5,0.1-2.1,0.3s-1.1,0.4-1.6,0.6c-0.5,0.2-0.8,0.4-1.1,0.6
			s-0.5,0.3-0.7,0.3c-0.1,0-0.2,0-0.3-0.1s-0.1-0.1-0.2-0.2s-0.1-0.2-0.1-0.4c0-0.2,0-0.3,0-0.5c0-0.3,0-0.6,0.1-0.7
			s0.2-0.4,0.3-0.5c0.2-0.2,0.5-0.4,0.9-0.6c0.4-0.2,0.9-0.4,1.4-0.6c0.5-0.2,1.1-0.3,1.8-0.5s1.3-0.2,1.9-0.2
			c1.2,0,2.2,0.1,3.1,0.4c0.9,0.3,1.5,0.7,2.1,1.2s0.9,1.2,1.1,2c0.2,0.8,0.4,1.7,0.4,2.8V-94.2z M76.8-101.9h-2.6
			c-0.9,0-1.6,0.1-2.2,0.2c-0.6,0.1-1.1,0.4-1.6,0.6c-0.4,0.3-0.7,0.6-0.9,1c-0.2,0.4-0.3,0.8-0.3,1.4c0,0.9,0.3,1.6,0.8,2.1
			c0.6,0.5,1.3,0.8,2.3,0.8c0.8,0,1.6-0.2,2.3-0.6c0.7-0.4,1.4-1,2.2-1.9V-101.9z"/>
		<path d="M88.6-94.2c0,0.1,0,0.2-0.1,0.3c0,0.1-0.1,0.1-0.2,0.2c-0.1,0-0.3,0.1-0.5,0.1s-0.5,0-0.8,0c-0.3,0-0.6,0-0.8,0
			s-0.4-0.1-0.5-0.1c-0.1-0.1-0.2-0.1-0.2-0.2c0-0.1-0.1-0.2-0.1-0.3v-25.1c0-0.1,0-0.2,0.1-0.3s0.1-0.1,0.2-0.2
			c0.1-0.1,0.3-0.1,0.5-0.1c0.2,0,0.5,0,0.8,0c0.3,0,0.6,0,0.8,0c0.2,0,0.4,0.1,0.5,0.1c0.1,0,0.2,0.1,0.2,0.2
			c0.1,0.1,0.1,0.2,0.1,0.3V-94.2z"/>
		<path d="M110.1-102.9c0,1.4-0.2,2.6-0.5,3.8s-0.9,2.2-1.6,3c-0.7,0.8-1.6,1.5-2.7,2c-1.1,0.5-2.3,0.7-3.8,0.7
			c-1.4,0-2.6-0.2-3.6-0.6c-1-0.4-1.9-1-2.6-1.8s-1.2-1.7-1.5-2.9c-0.3-1.1-0.5-2.4-0.5-3.8c0-1.4,0.2-2.6,0.5-3.8
			c0.4-1.2,0.9-2.2,1.6-3c0.7-0.8,1.6-1.5,2.7-2c1.1-0.5,2.3-0.7,3.8-0.7c1.4,0,2.6,0.2,3.6,0.6c1,0.4,1.9,1,2.6,1.8
			c0.7,0.8,1.2,1.7,1.6,2.9C109.9-105.6,110.1-104.3,110.1-102.9z M106.9-102.7c0-0.9-0.1-1.8-0.3-2.6c-0.2-0.8-0.5-1.5-0.8-2.1
			c-0.4-0.6-0.9-1.1-1.6-1.5c-0.7-0.4-1.5-0.5-2.5-0.5c-0.9,0-1.7,0.2-2.4,0.5c-0.7,0.3-1.2,0.8-1.6,1.4c-0.4,0.6-0.7,1.3-1,2.1
			c-0.2,0.8-0.3,1.7-0.3,2.7c0,0.9,0.1,1.8,0.3,2.6c0.2,0.8,0.5,1.5,0.9,2.1c0.4,0.6,0.9,1.1,1.6,1.4s1.5,0.5,2.5,0.5
			c0.9,0,1.7-0.2,2.4-0.5c0.7-0.3,1.2-0.8,1.7-1.4s0.7-1.3,0.9-2.1C106.8-100.8,106.9-101.7,106.9-102.7z"/>
		<path d="M128.8-110.4c0,0.4-0.1,0.8-0.2,0.9s-0.3,0.3-0.5,0.3h-2.4c0.4,0.5,0.7,0.9,0.9,1.5c0.2,0.5,0.3,1.1,0.3,1.7
			c0,1-0.2,1.8-0.5,2.6s-0.8,1.4-1.3,1.9s-1.3,0.9-2.1,1.2s-1.7,0.4-2.7,0.4c-0.7,0-1.3-0.1-2-0.3s-1.1-0.4-1.4-0.7
			c-0.2,0.2-0.4,0.5-0.6,0.8c-0.1,0.3-0.2,0.6-0.2,1c0,0.4,0.2,0.8,0.6,1.1c0.4,0.3,0.9,0.4,1.6,0.5l4.4,0.2c0.8,0,1.6,0.1,2.3,0.3
			c0.7,0.2,1.3,0.5,1.8,0.9c0.5,0.4,0.9,0.9,1.2,1.4s0.4,1.2,0.4,1.9c0,0.8-0.2,1.5-0.5,2.2s-0.8,1.3-1.5,1.9
			c-0.7,0.5-1.5,1-2.6,1.3c-1,0.3-2.3,0.5-3.7,0.5c-1.4,0-2.5-0.1-3.5-0.3c-1-0.2-1.7-0.5-2.4-0.9c-0.6-0.4-1.1-0.9-1.3-1.4
			c-0.3-0.6-0.4-1.2-0.4-1.8c0-0.4,0-0.8,0.2-1.2c0.1-0.4,0.3-0.8,0.5-1.1c0.2-0.4,0.5-0.7,0.8-1c0.3-0.3,0.7-0.6,1.1-0.9
			c-0.6-0.3-1.1-0.7-1.4-1.2c-0.3-0.5-0.4-1-0.4-1.5c0-0.8,0.2-1.4,0.5-2c0.3-0.6,0.7-1.1,1.2-1.6c-0.4-0.5-0.7-1-0.9-1.6
			c-0.2-0.6-0.3-1.3-0.3-2.1c0-1,0.2-1.8,0.5-2.6c0.3-0.8,0.8-1.4,1.4-1.9c0.6-0.5,1.3-0.9,2.1-1.2c0.8-0.3,1.7-0.4,2.6-0.4
			c0.5,0,1,0,1.4,0.1c0.4,0.1,0.9,0.1,1.2,0.2h5.1c0.2,0,0.4,0.1,0.5,0.3S128.8-110.8,128.8-110.4z M125.5-92.5
			c0-0.7-0.3-1.3-0.9-1.7c-0.6-0.4-1.4-0.6-2.4-0.6l-4.4-0.2c-0.4,0.3-0.7,0.6-1,0.9s-0.5,0.6-0.6,0.8s-0.3,0.5-0.3,0.8
			c-0.1,0.3-0.1,0.5-0.1,0.8c0,0.8,0.4,1.4,1.2,1.9s2,0.6,3.5,0.6c0.9,0,1.7-0.1,2.4-0.3s1.1-0.4,1.5-0.7c0.4-0.3,0.7-0.6,0.8-1
			S125.5-92.1,125.5-92.5z M124-105.9c0-1.2-0.3-2.1-0.9-2.7c-0.6-0.6-1.5-1-2.7-1c-0.6,0-1.1,0.1-1.6,0.3c-0.4,0.2-0.8,0.5-1.1,0.8
			c-0.3,0.4-0.5,0.8-0.7,1.2c-0.1,0.5-0.2,0.9-0.2,1.4c0,1.1,0.3,2,0.9,2.6c0.6,0.6,1.5,1,2.7,1c0.6,0,1.1-0.1,1.6-0.3
			s0.8-0.5,1.1-0.8c0.3-0.3,0.5-0.7,0.7-1.2C123.9-105,124-105.4,124-105.9z"/>
	</g>
	<g class="st9">
		<path d="M191.7-97.8c0,0.2,0,0.4-0.1,0.6c0,0.2-0.1,0.3-0.2,0.4c-0.1,0.1-0.1,0.2-0.2,0.2c-0.1,0-0.2,0.1-0.3,0.1h-6.2v6.8
			c0,0.1,0,0.2-0.1,0.3c0,0.1-0.1,0.1-0.2,0.2c-0.1,0.1-0.2,0.1-0.4,0.1s-0.4,0-0.7,0c-0.3,0-0.5,0-0.6,0s-0.3-0.1-0.4-0.1
			c-0.1,0-0.2-0.1-0.2-0.2c0-0.1-0.1-0.2-0.1-0.3v-6.8h-6.2c-0.1,0-0.2,0-0.3-0.1c-0.1,0-0.2-0.1-0.2-0.2c-0.1-0.1-0.1-0.3-0.2-0.4
			c0-0.2-0.1-0.4-0.1-0.6c0-0.2,0-0.4,0.1-0.6s0.1-0.3,0.2-0.4c0.1-0.1,0.1-0.2,0.2-0.2c0.1-0.1,0.2-0.1,0.3-0.1h6.2v-6.8
			c0-0.1,0-0.2,0.1-0.3c0.1-0.1,0.1-0.2,0.2-0.2s0.3-0.1,0.4-0.1s0.4,0,0.6,0c0.3,0,0.5,0,0.7,0s0.3,0.1,0.4,0.1s0.2,0.1,0.2,0.2
			c0,0.1,0.1,0.2,0.1,0.3v6.8h6.2c0.1,0,0.2,0,0.3,0.1c0.1,0,0.2,0.1,0.2,0.2c0.1,0.1,0.1,0.3,0.2,0.4S191.7-98.1,191.7-97.8z"/>
		<path d="M206.1-87.6c0,0.1-0.1,0.2-0.2,0.3c-0.1,0.1-0.2,0.2-0.4,0.2c-0.2,0-0.4,0.1-0.6,0.1c-0.2,0-0.5,0-0.9,0
			c-0.3,0-0.5,0-0.7,0c-0.2,0-0.4,0-0.5,0c-0.2,0-0.3-0.1-0.4-0.1s-0.2-0.1-0.3-0.1s-0.1-0.1-0.2-0.2c0-0.1-0.1-0.2-0.1-0.3l-8-22.6
			c-0.1-0.3-0.2-0.5-0.2-0.7c0-0.2,0-0.3,0.2-0.4c0.1-0.1,0.3-0.1,0.5-0.2c0.2,0,0.6,0,1,0c0.4,0,0.6,0,0.8,0c0.2,0,0.4,0.1,0.5,0.1
			c0.1,0.1,0.2,0.1,0.3,0.2c0.1,0.1,0.1,0.2,0.2,0.3l7,20.5h0l6.8-20.4c0-0.1,0.1-0.2,0.1-0.3s0.1-0.2,0.3-0.2
			c0.1,0,0.3-0.1,0.5-0.1c0.2,0,0.5,0,0.9,0c0.4,0,0.7,0,0.9,0s0.4,0.1,0.5,0.2c0.1,0.1,0.1,0.2,0.1,0.4s-0.1,0.4-0.2,0.7
			L206.1-87.6z"/>
	</g>
	<g class="st9">
		<path class="st0" d="M321.8-782c0.1,0,0.2,0,0.3,0.1s0.2,0.2,0.2,0.3s0.1,0.4,0.1,0.6c0,0.3,0.1,0.6,0.1,1c0,0.5,0,1-0.1,1.3
			c0,0.3-0.1,0.6-0.3,0.8c-0.1,0.2-0.3,0.3-0.4,0.4l-14.8,10.9h14.8c0.1,0,0.2,0,0.3,0.1c0.1,0.1,0.2,0.2,0.2,0.3
			c0.1,0.2,0.1,0.4,0.1,0.6c0,0.3,0.1,0.6,0.1,0.9c0,0.4,0,0.7-0.1,0.9c0,0.3-0.1,0.5-0.1,0.6c-0.1,0.2-0.1,0.3-0.2,0.3
			c-0.1,0.1-0.2,0.1-0.3,0.1h-28.4c-0.1,0-0.2,0-0.3-0.1c-0.1-0.1-0.2-0.2-0.2-0.3c-0.1-0.2-0.1-0.4-0.1-0.6c0-0.3-0.1-0.6-0.1-0.9
			c0-0.4,0-0.7,0.1-0.9c0-0.3,0.1-0.5,0.1-0.6c0.1-0.2,0.1-0.3,0.2-0.3c0.1-0.1,0.2-0.1,0.3-0.1h13.2l-13.2-10.5
			c-0.1-0.1-0.3-0.2-0.3-0.3c-0.1-0.1-0.2-0.3-0.2-0.4c-0.1-0.2-0.1-0.4-0.1-0.6c0-0.3,0-0.6,0-1c0-0.4,0-0.7,0.1-1s0.1-0.4,0.1-0.6
			c0.1-0.1,0.1-0.2,0.2-0.3c0.1-0.1,0.2-0.1,0.3-0.1c0.2,0,0.4,0,0.6,0.1c0.2,0.1,0.5,0.3,0.8,0.6l11.7,9.8l14-10.6
			c0.4-0.3,0.7-0.4,0.8-0.5C321.6-782,321.7-782,321.8-782z"/>
		<path class="st0" d="M311-796.5h10.9c0.1,0,0.2,0,0.3,0.1c0.1,0.1,0.2,0.2,0.2,0.3c0.1,0.2,0.1,0.4,0.1,0.6s0.1,0.6,0.1,0.9
			c0,0.4,0,0.7-0.1,0.9c0,0.2-0.1,0.5-0.1,0.6c-0.1,0.2-0.1,0.3-0.2,0.3s-0.2,0.1-0.3,0.1H311l-16.7,8.4c-0.4,0.2-0.6,0.3-0.8,0.3
			c-0.2,0-0.4,0-0.5-0.1c-0.1-0.1-0.2-0.3-0.2-0.6c0-0.3,0-0.7,0-1.2c0-0.5,0-0.8,0-1.1c0-0.3,0.1-0.5,0.1-0.7
			c0.1-0.2,0.1-0.3,0.2-0.4c0.1-0.1,0.2-0.2,0.4-0.2l8.5-4.1c0.8-0.4,1.7-0.8,2.5-1.1s1.8-0.8,2.7-1.2v0c-0.9-0.3-1.7-0.7-2.6-1.1
			c-0.9-0.4-1.7-0.7-2.6-1.1l-8.6-4.1c-0.2,0-0.3-0.1-0.4-0.2s-0.2-0.2-0.2-0.3c-0.1-0.1-0.1-0.3-0.1-0.6c0-0.3,0-0.6,0-1
			c0-0.5,0-1,0.1-1.3s0.1-0.5,0.2-0.7c0.1-0.1,0.3-0.2,0.5-0.1s0.5,0.1,0.8,0.3L311-796.5z"/>
		<path class="st0" d="M310.9-816c0.6,0,1,0.1,1.2,0.2c0.2,0.1,0.3,0.3,0.3,0.6v9.6c0,0.3-0.1,0.5-0.4,0.6c-0.2,0.1-0.6,0.2-1.2,0.2
			c-0.6,0-1-0.1-1.2-0.2c-0.2-0.1-0.3-0.3-0.3-0.6v-9.6c0-0.1,0-0.2,0.1-0.3c0-0.1,0.1-0.2,0.3-0.3c0.1-0.1,0.3-0.1,0.5-0.2
			S310.6-816,310.9-816z"/>
		<path class="st0" d="M307.6-839.7c2.3,0,4.3,0.2,6.2,0.5c1.9,0.4,3.5,1,4.8,1.8s2.4,1.9,3.1,3.3s1.1,3,1.1,5c0,1.9-0.3,3.4-1,4.7
			s-1.6,2.3-2.9,3.1c-1.3,0.8-2.9,1.3-4.8,1.7c-1.9,0.3-4,0.5-6.5,0.5c-2.3,0-4.3-0.2-6.2-0.5s-3.5-1-4.8-1.8s-2.4-1.9-3.1-3.2
			s-1.1-3-1.1-4.9c0-1.9,0.3-3.5,1-4.7c0.7-1.3,1.6-2.3,2.9-3.1c1.3-0.8,2.9-1.3,4.8-1.7C303-839.6,305.2-839.7,307.6-839.7z
			 M307.9-835.7c-1.5,0-2.8,0.1-4,0.2c-1.2,0.1-2.2,0.3-3.1,0.5c-0.9,0.2-1.7,0.5-2.3,0.8c-0.6,0.3-1.2,0.7-1.6,1.2
			c-0.4,0.5-0.7,1-0.9,1.6c-0.2,0.6-0.3,1.2-0.3,2c0,1.3,0.3,2.3,0.9,3.2c0.6,0.8,1.4,1.4,2.5,1.9s2.3,0.8,3.8,0.9s3,0.3,4.6,0.3
			c2.2,0,4.1-0.1,5.6-0.3c1.5-0.2,2.8-0.6,3.8-1.1c1-0.5,1.7-1.1,2.1-1.9c0.4-0.8,0.7-1.7,0.7-2.8c0-0.9-0.1-1.6-0.4-2.3
			c-0.3-0.6-0.7-1.2-1.2-1.7c-0.5-0.5-1.1-0.9-1.8-1.2s-1.5-0.5-2.4-0.7c-0.9-0.2-1.8-0.3-2.8-0.4C310-835.7,309-835.7,307.9-835.7z
			"/>
		<path class="st0" d="M320.8-862.5c0.3,0,0.5,0,0.7,0.1c0.2,0,0.4,0.1,0.5,0.2c0.1,0.1,0.3,0.2,0.3,0.3c0.1,0.1,0.1,0.2,0.1,0.4
			v16.4c0,0.2,0,0.4-0.1,0.6s-0.1,0.3-0.3,0.4s-0.3,0.2-0.5,0.3s-0.5,0.1-0.8,0.1c-0.3,0-0.6,0-0.8,0c-0.2,0-0.4-0.1-0.6-0.2
			c-0.2-0.1-0.4-0.2-0.5-0.3s-0.4-0.3-0.6-0.5l-6.1-5.9c-1.4-1.4-2.7-2.5-3.8-3.3c-1.1-0.8-2.1-1.5-3-1.9c-0.9-0.4-1.7-0.7-2.5-0.9
			c-0.7-0.1-1.4-0.2-2.1-0.2c-0.7,0-1.3,0.1-1.9,0.3c-0.6,0.2-1.1,0.5-1.5,1s-0.8,0.9-1.1,1.6c-0.3,0.6-0.4,1.4-0.4,2.2
			c0,1,0.1,1.8,0.4,2.6c0.3,0.8,0.5,1.4,0.8,2c0.3,0.6,0.6,1.1,0.8,1.4c0.3,0.4,0.4,0.7,0.4,0.9c0,0.1,0,0.2-0.1,0.3
			c-0.1,0.1-0.2,0.2-0.3,0.2c-0.1,0.1-0.3,0.1-0.5,0.1c-0.2,0-0.5,0-0.8,0c-0.2,0-0.4,0-0.6,0c-0.2,0-0.3,0-0.4-0.1
			s-0.2-0.1-0.3-0.1s-0.2-0.2-0.4-0.4s-0.4-0.5-0.7-0.9s-0.5-1-0.8-1.7c-0.3-0.7-0.5-1.4-0.7-2.2c-0.2-0.8-0.3-1.7-0.3-2.6
			c0-1.4,0.2-2.7,0.6-3.8c0.4-1.1,1-2,1.7-2.7c0.7-0.7,1.5-1.2,2.4-1.6c0.9-0.4,1.9-0.5,3-0.5c0.9,0,1.9,0.1,2.8,0.3
			c0.9,0.2,2,0.5,3,1.1c1.1,0.5,2.3,1.3,3.6,2.3c1.3,1,2.9,2.4,4.6,4.1l4.9,4.7v-12.9c0-0.1,0-0.2,0.1-0.4c0.1-0.1,0.2-0.2,0.3-0.3
			c0.1-0.1,0.3-0.1,0.5-0.2C320.3-862.5,320.5-862.5,320.8-862.5z"/>
		<path class="st0" d="M314.1-887.5c0.5,0,0.9,0.1,1.2,0.2s0.4,0.4,0.4,0.6v3.3h6.2c0.1,0,0.2,0,0.3,0.1c0.1,0.1,0.2,0.2,0.2,0.3
			s0.1,0.4,0.1,0.6c0,0.3,0,0.6,0,1c0,0.4,0,0.7,0,0.9c0,0.3-0.1,0.5-0.1,0.6s-0.1,0.3-0.2,0.3c-0.1,0.1-0.2,0.1-0.3,0.1h-6.2v12.1
			c0,0.2,0,0.3-0.1,0.5s-0.1,0.2-0.3,0.3c-0.1,0.1-0.3,0.2-0.5,0.2s-0.5,0.1-0.9,0.1c-0.3,0-0.5,0-0.8,0c-0.2,0-0.4,0-0.6-0.1
			c-0.2,0-0.4-0.1-0.5-0.2c-0.2-0.1-0.4-0.2-0.6-0.3l-18-10.6c-0.1-0.1-0.2-0.2-0.3-0.3c-0.1-0.1-0.2-0.3-0.2-0.6
			c-0.1-0.2-0.1-0.5-0.1-0.9c0-0.3,0-0.7,0-1.2c0-0.5,0-1,0.1-1.3s0.1-0.7,0.1-0.9c0.1-0.2,0.1-0.4,0.2-0.5c0.1-0.1,0.2-0.2,0.4-0.2
			h18.9v-3.3c0-0.3,0.1-0.5,0.4-0.6S313.5-887.5,314.1-887.5z M296.2-879.3L296.2-879.3l16.2,9.6v-9.6H296.2z"/>
	</g>
	<g class="st9">
		<path class="st0" d="M79.7-310.7c0.1,0.3,0.2,0.6,0.2,0.8c0,0.2,0,0.4-0.2,0.5s-0.3,0.2-0.6,0.2c-0.3,0-0.7,0-1.1,0s-0.8,0-1.1,0
			c-0.3,0-0.5-0.1-0.6-0.1c-0.1-0.1-0.3-0.1-0.3-0.2c-0.1-0.1-0.1-0.2-0.2-0.3l-2.5-7.2H60.9l-2.4,7.1c0,0.1-0.1,0.3-0.2,0.4
			s-0.2,0.2-0.3,0.3c-0.1,0.1-0.4,0.1-0.6,0.1c-0.3,0-0.6,0-1,0c-0.4,0-0.8,0-1.1-0.1c-0.3,0-0.5-0.1-0.6-0.2
			c-0.1-0.1-0.2-0.3-0.2-0.5c0-0.2,0.1-0.5,0.2-0.8l9.9-27.5c0.1-0.2,0.1-0.3,0.2-0.4c0.1-0.1,0.2-0.2,0.4-0.3
			c0.2-0.1,0.4-0.1,0.7-0.1c0.3,0,0.7,0,1.1,0c0.5,0,0.9,0,1.2,0c0.3,0,0.6,0.1,0.8,0.1c0.2,0.1,0.4,0.1,0.5,0.3
			c0.1,0.1,0.2,0.3,0.3,0.4L79.7-310.7z M67-335L67-335l-5.1,14.8h10.3L67-335z"/>
		<path class="st0" d="M102.9-324.2c0,2.3-0.2,4.3-0.5,6.2c-0.4,1.9-1,3.5-1.8,4.8s-1.9,2.4-3.3,3.1s-3,1.1-5,1.1
			c-1.9,0-3.4-0.3-4.7-1s-2.3-1.6-3.1-2.9c-0.8-1.3-1.3-2.9-1.7-4.8c-0.3-1.9-0.5-4-0.5-6.5c0-2.3,0.2-4.3,0.5-6.2s1-3.5,1.8-4.8
			s1.9-2.4,3.2-3.1s3-1.1,4.9-1.1c1.9,0,3.5,0.3,4.7,1c1.3,0.7,2.3,1.6,3.1,2.9c0.8,1.3,1.3,2.9,1.7,4.8
			C102.7-328.8,102.9-326.6,102.9-324.2z M98.8-323.9c0-1.5-0.1-2.8-0.2-4c-0.1-1.2-0.3-2.2-0.5-3.1c-0.2-0.9-0.5-1.7-0.8-2.3
			c-0.3-0.6-0.7-1.2-1.2-1.6c-0.5-0.4-1-0.7-1.6-0.9c-0.6-0.2-1.2-0.3-2-0.3c-1.3,0-2.3,0.3-3.2,0.9c-0.8,0.6-1.4,1.4-1.9,2.5
			s-0.8,2.3-0.9,3.8s-0.3,3-0.3,4.6c0,2.2,0.1,4.1,0.3,5.6c0.2,1.5,0.6,2.8,1.1,3.8c0.5,1,1.1,1.7,1.9,2.1c0.8,0.4,1.7,0.7,2.8,0.7
			c0.9,0,1.6-0.1,2.3-0.4c0.6-0.3,1.2-0.7,1.7-1.2c0.5-0.5,0.9-1.1,1.2-1.8s0.5-1.5,0.7-2.4c0.2-0.9,0.3-1.8,0.4-2.8
			C98.8-321.8,98.8-322.8,98.8-323.9z"/>
	</g>
	<g class="st9">
		<path class="st0" d="M150.5-334.6c0,0.3,0,0.5,0,0.8c0,0.2-0.1,0.4-0.1,0.5c-0.1,0.1-0.1,0.2-0.2,0.3c-0.1,0.1-0.2,0.1-0.3,0.1
			c-0.2,0-0.5-0.1-0.9-0.4c-0.4-0.3-1-0.6-1.7-1c-0.7-0.4-1.6-0.7-2.6-1c-1-0.3-2.2-0.4-3.6-0.4c-1.6,0-3.1,0.3-4.4,0.9
			s-2.4,1.4-3.3,2.5c-0.9,1.1-1.6,2.3-2.1,3.8c-0.5,1.4-0.7,3-0.7,4.7c0,1.9,0.3,3.6,0.8,5c0.5,1.5,1.3,2.7,2.2,3.7
			c0.9,1,2,1.8,3.3,2.3c1.3,0.5,2.7,0.8,4.2,0.8c0.9,0,1.8-0.1,2.8-0.3c0.9-0.2,1.8-0.6,2.6-1v-8.6h-6.9c-0.3,0-0.5-0.1-0.6-0.4
			c-0.1-0.3-0.2-0.7-0.2-1.2c0-0.3,0-0.5,0-0.7c0-0.2,0.1-0.4,0.1-0.5c0.1-0.1,0.1-0.2,0.2-0.3c0.1-0.1,0.2-0.1,0.3-0.1h9.4
			c0.2,0,0.3,0,0.5,0.1c0.2,0.1,0.3,0.2,0.5,0.3c0.1,0.1,0.2,0.3,0.3,0.5c0.1,0.2,0.1,0.5,0.1,0.7v11.3c0,0.4-0.1,0.7-0.2,1
			c-0.1,0.3-0.4,0.5-0.9,0.8c-0.4,0.2-1,0.5-1.7,0.7c-0.7,0.3-1.4,0.5-2.2,0.7c-0.7,0.2-1.5,0.3-2.3,0.4s-1.5,0.1-2.3,0.1
			c-2.3,0-4.3-0.4-6.1-1.1c-1.8-0.7-3.3-1.7-4.6-3s-2.2-2.9-2.8-4.7c-0.7-1.8-1-3.9-1-6.1c0-2.3,0.4-4.5,1.1-6.4s1.7-3.5,3-4.9
			c1.3-1.3,2.8-2.4,4.6-3.1c1.8-0.7,3.8-1.1,6-1.1c1.1,0,2.2,0.1,3.2,0.3c1,0.2,1.9,0.4,2.6,0.7c0.8,0.3,1.4,0.6,1.9,0.9
			s0.9,0.6,1.1,0.8s0.3,0.4,0.4,0.7C150.5-335.5,150.5-335.1,150.5-334.6z"/>
	</g>
	<g class="st9">
		<path class="st0" d="M204.8-319.6c0,0.3,0,0.5-0.1,0.7s-0.1,0.4-0.2,0.5c-0.1,0.1-0.2,0.2-0.3,0.3c-0.1,0.1-0.2,0.1-0.3,0.1h-7.5
			v8.3c0,0.1,0,0.2-0.1,0.3s-0.2,0.2-0.3,0.2c-0.1,0.1-0.3,0.1-0.5,0.1s-0.5,0.1-0.8,0.1c-0.3,0-0.6,0-0.8-0.1
			c-0.2,0-0.4-0.1-0.5-0.1c-0.1-0.1-0.2-0.1-0.3-0.2c-0.1-0.1-0.1-0.2-0.1-0.3v-8.3h-7.5c-0.1,0-0.3,0-0.4-0.1
			c-0.1-0.1-0.2-0.2-0.3-0.3c-0.1-0.1-0.1-0.3-0.2-0.5s-0.1-0.5-0.1-0.7c0-0.3,0-0.5,0.1-0.7c0-0.2,0.1-0.4,0.2-0.5
			c0.1-0.1,0.2-0.2,0.3-0.3c0.1-0.1,0.2-0.1,0.3-0.1h7.5v-8.3c0-0.1,0-0.2,0.1-0.3c0.1-0.1,0.2-0.2,0.3-0.3c0.1-0.1,0.3-0.1,0.5-0.2
			c0.2,0,0.5-0.1,0.8-0.1c0.3,0,0.6,0,0.8,0.1s0.4,0.1,0.5,0.2c0.1,0.1,0.2,0.2,0.3,0.3c0.1,0.1,0.1,0.2,0.1,0.3v8.3h7.5
			c0.1,0,0.2,0,0.3,0.1c0.1,0.1,0.2,0.2,0.3,0.3c0.1,0.1,0.1,0.3,0.2,0.5C204.8-320.1,204.8-319.8,204.8-319.6z"/>
	</g>
	<g class="st9">
		<path class="st0" d="M251.6-323.9c0,2.6-0.3,4.8-1,6.7c-0.7,1.9-1.6,3.5-2.9,4.8c-1.3,1.3-2.8,2.2-4.6,2.8c-1.8,0.6-4,0.9-6.5,0.9
			h-6.3c-0.4,0-0.7-0.1-1-0.4s-0.5-0.7-0.5-1.2v-26.4c0-0.6,0.2-1,0.5-1.2s0.6-0.4,1-0.4h6.7c2.6,0,4.7,0.3,6.5,1
			c1.8,0.7,3.3,1.6,4.4,2.9s2.1,2.7,2.7,4.5C251.3-328.1,251.6-326.1,251.6-323.9z M247.5-323.7c0-1.6-0.2-3.1-0.6-4.5
			s-1-2.6-1.9-3.6c-0.8-1-1.9-1.8-3.2-2.4c-1.3-0.6-3-0.8-5-0.8h-4v23h4c1.9,0,3.5-0.2,4.8-0.7c1.3-0.5,2.4-1.2,3.2-2.2
			c0.9-1,1.5-2.2,2-3.7S247.5-321.7,247.5-323.7z"/>
		<path class="st0" d="M275.9-323.5c0,2.3-0.2,4.3-0.5,6.2c-0.4,1.9-1,3.5-1.8,4.8s-1.9,2.4-3.3,3.1s-3,1.1-5,1.1
			c-1.9,0-3.4-0.3-4.7-1s-2.3-1.6-3.1-2.9c-0.8-1.3-1.3-2.9-1.7-4.8c-0.3-1.9-0.5-4-0.5-6.5c0-2.3,0.2-4.3,0.5-6.2s1-3.5,1.8-4.8
			s1.9-2.4,3.2-3.1s3-1.1,4.9-1.1c1.9,0,3.5,0.3,4.7,1c1.3,0.7,2.3,1.6,3.1,2.9c0.8,1.3,1.3,2.9,1.7,4.8
			C275.7-328.1,275.9-326,275.9-323.5z M271.9-323.3c0-1.5-0.1-2.8-0.2-4c-0.1-1.2-0.3-2.2-0.5-3.1c-0.2-0.9-0.5-1.7-0.8-2.3
			c-0.3-0.6-0.7-1.2-1.2-1.6c-0.5-0.4-1-0.7-1.6-0.9c-0.6-0.2-1.2-0.3-2-0.3c-1.3,0-2.3,0.3-3.2,0.9c-0.8,0.6-1.4,1.4-1.9,2.5
			s-0.8,2.3-0.9,3.8s-0.3,3-0.3,4.6c0,2.2,0.1,4.1,0.3,5.6c0.2,1.5,0.6,2.8,1.1,3.8c0.5,1,1.1,1.7,1.9,2.1c0.8,0.4,1.7,0.7,2.8,0.7
			c0.9,0,1.6-0.1,2.3-0.4c0.6-0.3,1.2-0.7,1.7-1.2c0.5-0.5,0.9-1.1,1.2-1.8s0.5-1.5,0.7-2.4c0.2-0.9,0.3-1.8,0.4-2.8
			C271.8-321.1,271.9-322.2,271.9-323.3z"/>
	</g>
</g>
</svg>
