<?xml version="1.0" encoding="utf-8"?>
<!-- Generator: Adobe Illustrator 27.8.0, SVG Export Plug-In . SVG Version: 6.00 Build 0)  -->
<svg version="1.1"
	 id="svg8" xmlns:svg="http://www.w3.org/2000/svg" xmlns:rdf="http://www.w3.org/1999/02/22-rdf-syntax-ns#" xmlns:sodipodi="http://sodipodi.sourceforge.net/DTD/sodipodi-0.dtd" xmlns:dc="http://purl.org/dc/elements/1.1/" xmlns:inkscape="http://www.inkscape.org/namespaces/inkscape" xmlns:cc="http://creativecommons.org/ns#" inkscape:export-xdpi="93" inkscape:export-ydpi="93" inkscape:version="0.92.4 (5da689c313, 2019-01-14)"
	 xmlns="http://www.w3.org/2000/svg" xmlns:xlink="http://www.w3.org/1999/xlink" x="0px" y="0px" viewBox="0 0 743 1081"
	 style="enable-background:new 0 0 743 1081;" xml:space="preserve">
<style type="text/css">
	.st0{fill:#FFFFFF;}
	.st1{fill:#1A1A1A;}
	.st2{opacity:0.99;fill:#808080;enable-background:new    ;}
	.st3{opacity:0.99;fill:#CCCCCC;enable-background:new    ;}
	.st4{opacity:0.99;fill:#FFFFFF;enable-background:new    ;}
	.st5{opacity:0.99;enable-background:new    ;}
	.st6{opacity:0.99;fill:#999999;enable-background:new    ;}
	.st7{opacity:0.99;fill:#1A1A1A;enable-background:new    ;}
	.st8{enable-background:new    ;}
</style>
<defs>
	
		<inkscape:perspective  id="perspective876" inkscape:persp3d-origin="105.00001 : 98.999997 : 1" inkscape:vp_x="0 : 148.5 : 1" inkscape:vp_y="0 : 1000 : 0" inkscape:vp_z="210 : 148.49999 : 1" sodipodi:type="inkscape:persp3d">
		</inkscape:perspective>
</defs>
<sodipodi:namedview  bordercolor="#000000" borderlayer="false" borderopacity="1" id="base" inkscape:current-layer="layer1" inkscape:cx="1672.5371" inkscape:cy="2919.5103" inkscape:document-units="mm" inkscape:lockguides="true" inkscape:pagecheckerboard="false" inkscape:pageopacity="0" inkscape:pageshadow="2" inkscape:window-height="1017" inkscape:window-maximized="1" inkscape:window-width="1920" inkscape:window-x="-8" inkscape:window-y="-8" inkscape:zoom="0.125" pagecolor="#323232" showgrid="false" showguides="true" width="500mm">
	<inkscape:grid  id="grid111" type="xygrid"></inkscape:grid>
</sodipodi:namedview>
<g id="layer1" transform="translate(0.31582593,1302.8111)" inkscape:groupmode="layer" inkscape:label="Ebene 1">
	<rect id="rect815" x="60.5" y="-762.3" width="682.2" height="540.4"/>
	<rect id="rect821" x="70.6" y="-623.9" class="st0" width="54.5" height="263.4"/>
	<path id="rect825" class="st1" d="M121.9-507.8l0,31.5c0,5.5-4.5,10-10,10l-27.8,0c-5.5,0-10-4.5-10-10l0-31.5c0-5.5,4.5-10,10-10
		l27.8,0C117.4-517.8,121.9-513.3,121.9-507.8z"/>
	<path id="rect872" class="st1" d="M121.9-402.4l0,31.5c0,5.5-4.5,10-10,10l-27.8,0c-5.5,0-10-4.5-10-10l0-31.5c0-5.5,4.5-10,10-10
		l27.8,0C117.4-412.4,121.9-408,121.9-402.4z"/>
	<path id="rect874" class="st1" d="M121.9-456.4l0,34.1c0,4.8-3.9,8.7-8.7,8.7l-30.4,0c-4.8,0-8.7-3.9-8.7-8.7l0-34.1
		c0-4.8,3.9-8.7,8.7-8.7l30.4,0C118-465.1,121.9-461.2,121.9-456.4z"/>
	<rect id="rect947" x="-0.3" y="-494.9" class="st2" width="97.9" height="5.7"/>
	<rect id="rect949" x="-0.3" y="-441.9" class="st2" width="97.9" height="5.7"/>
	<rect id="rect951" x="-0.3" y="-389.6" class="st2" width="97.9" height="5.7"/>
	<g id="flowRoot969">
	</g>
	<g id="flowRoot1466">
	</g>
	<g id="flowRoot1529">
	</g>
	<path id="path31-1" inkscape:connector-curvature="0" class="st0" d="M703.2-478.2c0,2.5,0.1,2.8,0.4,3.2c0.2,0.3,0.5,0.6,0.8,0.8
		c0.5,0.3,0.8,0.3,5.9,0.3l5.4,0l0,5.3l0,5.3l-6.8,0c-7.5,0-8.2-0.1-10.1-0.8c-2.6-1-3.8-2.5-4.5-5.6c-0.2-0.8-0.2-1.8-0.2-4.9
		c0-2.1,0.1-4.4,0.1-5.2l0.1-1.3l4.4,0l4.4,0L703.2-478.2L703.2-478.2z M688-427.5c0,45.4-0.1,56.6-0.3,54.7l0-0.3l-0.1,0.3
		c-0.1,0.2-0.1,0.2-0.2-0.2c0-0.3-0.1-0.2-0.1,0.4l-0.1,0.9l0-0.9c0-0.5-0.1-0.8-0.1-0.7c-0.1,0.2-0.2,0.3-1.3,0.3
		c-1.2,0-1.2,0-1.3,0.4c0,0.3-0.1,0.2-0.1-0.2c0-0.3-0.1-0.6-0.2-0.6c-0.1,0-0.1-18-0.1-53.8v-53.8l1.9,0l1.9,0L688-427.5z
		 M729.7-468.5l0,5.4l-4.4,0l-4.4,0l0-5.4l0-5.4l4.4,0l4.4,0L729.7-468.5z M713.5-457.6c2.5,0.4,4.7,1.1,6.6,2
		c0.7,0.4,1.3,0.7,1.4,0.7c0,0.1,0.4,0.3,0.9,0.6c0.9,0.6,2.5,1.8,2.6,2.1c0.1,0.1,0.2,0.2,0.2,0.2c0.2,0,1.4,1.3,2.2,2.4
		c0.8,1.1,1.3,2,2,4c0.9,2.3,1.1,3.7,1,6.5c-0.1,2-0.1,2.5-0.5,3.8c-0.2,0.8-0.6,1.8-0.7,2.2c-0.2,0.4-0.3,0.8-0.3,0.9
		c0,0.1-0.3,0.7-0.7,1.3c-1.5,2.6-5.5,6.1-8.5,7.4c-4.7,2.1-9.4,2.4-13.7,0.8c-1.8-0.7-2.9-1.2-4.1-1.9c-1.5-0.9-1.6-1-3.8-3.2
		c-2.5-2.5-3.6-4.3-4.5-7.6c-0.5-1.7-0.6-5-0.4-6.8c0.4-2.3,1.7-5.4,3.1-7.3c0.7-1,1.9-2.3,2-2.3c0,0,0.4-0.3,0.8-0.7
		c2-1.9,5.9-3.9,9-4.6C709.4-457.6,712.6-457.8,713.5-457.6z M708.9-447.4c-2,0.5-3.8,1.6-5.3,3.1c-1.6,1.6-2.1,4.2-1.4,6.4
		c0.8,2.4,3.6,4.8,6.7,5.6c1.8,0.5,4.3,0.4,6-0.1c2.4-0.7,4.3-2,5.6-3.7c0.6-0.8,0.7-1.2,0.9-2c0.3-1.8,0.2-3.7-0.5-5
		c-0.6-1.1-2.2-2.6-3.9-3.4C714.5-447.7,711.6-448,708.9-447.4L708.9-447.4z M729.6-417.2c0,0.1,0,2.5,0,5.4l0,5.2l-4.8,0
		c-4.6,0-4.9,0-5.7,0.3c-2.1,0.8-3.2,3.2-2.5,5.4c0.4,1.1,1,1.9,2.1,2.4l0.9,0.5l5,0l5,0l0,5.4l0,5.4l-5.7-0.1
		c-5.3-0.1-5.7-0.1-6.8-0.4c-2.2-0.6-4.1-1.6-5.6-2.8c-0.4-0.3-0.7-0.6-0.8-0.6c-0.2,0-1.4-1.4-2.3-2.6c-0.8-1-1.5-2.5-1.7-3.2
		c-0.1-0.2-0.3-1-0.5-1.7c-0.4-1.1-0.4-1.4-0.4-3.8c0-2.4,0-2.7,0.4-4.1c0.6-2.1,0.9-2.8,1.8-4.3c1.1-1.6,2.4-3,4.1-4.1
		c2.4-1.6,4.1-2.3,6.9-2.6C720.9-417.4,729.5-417.4,729.6-417.2L729.6-417.2z M703-402.2l0,8.8l-4.5,0l-4.5,0l0-8.8l0-8.8l4.5,0
		l4.5,0L703-402.2z M736.6-387.2c0,0.1,0.3,0.1,0.6,0.1c0.6,0,0.6,0,0.6,0.7c0.1,0.4,0.1,15.2,0.1,33v32.4l-1.9,0l-1.9,0V-354
		c0-18.1,0-33,0.1-33.1c0.1-0.2,0.3-0.2,1.3-0.2C736.1-387.3,736.6-387.3,736.6-387.2L736.6-387.2z M714.8-372.4l0,11.2l-4.5,0
		l-4.5,0l0-11.2l0-11.2l4.5,0l4.5,0L714.8-372.4z M729.7-352.4l0,5.4l-4.4,0l-4.4,0l0-5.4l0-5.4l4.4,0l4.4,0L729.7-352.4z
		 M716.3-352.4l0,5.4l-11.4,0l-11.4,0l0-5.4l0-5.4l11.4,0l11.4,0L716.3-352.4z M729.7-331l0,11.2l-4.4,0l-4.4,0l0-11.2l0-11.2l4.4,0
		l4.4,0L729.7-331z M715.6-340.3c0,0.1,0.1,2.4,0.1,5.3l0,5.2l-5.2,0c-7.3,0.1-6.9-0.2-7,5.2l0,3.4l-4.6,0l-4.6,0l-0.2-1.3
		c-0.2-1.9-0.2-8.1,0.1-9.7c0.5-2.9,1.3-4.7,2.8-5.9c1.6-1.3,3.1-1.9,5.7-2.2C704.2-340.5,715.5-340.5,715.6-340.3L715.6-340.3z
		 M734-313.4c1,0.3,1.9,0.8,2.4,1.4c2.2,2.4,2.4,5.4,0.6,7.8c-0.8,1.1-1.2,1.4-2.2,1.9c-0.8,0.4-1,0.4-2.4,0.4c-1.4,0-1.6,0-2.4-0.4
		c-1.8-0.8-3.2-2.9-3.3-4.9c-0.1-1.9,0.4-3.3,1.9-4.8C729.8-313.4,732.1-313.9,734-313.4z M730.2-312.3c-1.2,0.5-2.3,2-2.7,3.6
		c-0.4,1.6-0.1,2.8,1.2,4.5c0.3,0.4,0.7,0.7,1.4,1.1c0.9,0.4,1.1,0.5,2.2,0.5c1.1,0,1.3,0,2.2-0.5c0.8-0.4,1.1-0.7,1.6-1.4
		c0.3-0.5,0.7-1.2,0.9-1.6c0.8-2.4-0.5-5.4-2.9-6.4C733.3-312.9,731.3-312.8,730.2-312.3L730.2-312.3z M735.9-308.4
		c0,1.1-0.1,2.2-0.1,2.4c-0.3,0.9-2,1.3-2.8,0.7c-0.2-0.2-0.5-0.5-0.6-0.8l-0.2-0.5l-0.5,0.5c-0.3,0.3-0.9,0.7-1.3,0.9
		c-0.4,0.2-0.8,0.5-0.9,0.6c-0.2,0.3-0.4,0.1-0.3-0.5l0-0.6l1.4-0.9c1.5-0.9,1.6-1.2,1.6-2.2l0-0.6l-1.5,0l-1.5,0l0-0.4l0-0.4l3.4,0
		l3.4,0L735.9-308.4z M733-308.1c0,1.1,0,1.3,0.3,1.7c0.6,0.8,1.6,0.3,1.8-0.8c0.1-0.5,0-1.8-0.1-2.1c0,0-0.5,0-1,0l-1,0L733-308.1z
		"/>
	<circle id="circle109" class="st3" cx="692" cy="-711.7" r="33.8"/>
	<circle id="circle111" class="st4" cx="692" cy="-711.7" r="30"/>
	<circle id="circle113" class="st3" cx="692" cy="-272.6" r="33.8"/>
	
		<ellipse id="circle115" transform="matrix(7.093433e-02 -0.9975 0.9975 7.093433e-02 914.8542 437.0054)" class="st4" cx="692" cy="-272.6" rx="30" ry="30"/>
	<circle id="circle117" class="st3" cx="111.1" cy="-272.6" r="33.8"/>
	
		<ellipse id="circle119" transform="matrix(0.1602 -0.9871 0.9871 0.1602 362.436 -119.2583)" class="st4" cx="111.1" cy="-272.6" rx="30" ry="30"/>
	<circle id="circle121" class="st3" cx="111.1" cy="-711.7" r="33.8"/>
	<circle id="circle123" class="st4" cx="111.1" cy="-711.7" r="30"/>
	<g id="flowRoot193" transform="matrix(0.26458333,0,0,0.26458333,-0.31582593,-802.81107)">
	</g>
	<g id="flowRoot201" transform="matrix(0.26458333,0,0,0.26458333,-0.31582593,-802.81107)">
	</g>
	<path id="rect95" class="st1" d="M121.9-612.8l0,31.5c0,5.5-4.5,10-10,10l-27.8,0c-5.5,0-10-4.5-10-10l0-31.5c0-5.5,4.5-10,10-10
		l27.8,0C117.4-622.8,121.9-618.3,121.9-612.8z"/>
	<path id="rect97" class="st1" d="M121.9-561.4l0,34.1c0,4.8-3.9,8.7-8.7,8.7l-30.4,0c-4.8,0-8.7-3.9-8.7-8.7l0-34.1
		c0-4.8,3.9-8.7,8.7-8.7l30.4,0C118-570.1,121.9-566.2,121.9-561.4z"/>
	<rect id="rect99" x="-0.3" y="-599.9" class="st2" width="97.9" height="5.7"/>
	<rect id="rect101" x="-0.3" y="-547" class="st2" width="97.9" height="5.7"/>
	<rect id="rect143" x="202.3" y="-677.9" class="st4" width="371.5" height="371.5"/>
	<rect id="rect154" x="234.9" y="-762.3" class="st4" width="305.2" height="87.8"/>
	<rect id="rect156" x="234.9" y="-309.8" class="st4" width="305.2" height="87.8"/>
	<rect id="rect158" x="573" y="-644.4" class="st4" width="100.1" height="303.8"/>
	<circle id="circle145" class="st3" cx="202.3" cy="-306.4" r="33.8"/>
	<circle id="circle147" class="st3" cx="573.8" cy="-306.4" r="33.8"/>
	<circle id="circle149" class="st3" cx="573.8" cy="-677.9" r="33.8"/>
	<circle id="circle151" class="st3" cx="202.3" cy="-677.9" r="33.8"/>
	<rect id="rect164" x="238.8" y="-758.9" class="st5" width="297.2" height="533.6"/>
	<rect id="rect166" x="205.7" y="-641.1" class="st5" width="462.7" height="297.2"/>
	<rect id="rect168" x="205.7" y="-674.5" class="st6" width="364.7" height="364.7"/>
	<circle id="path170" class="st7" cx="388.1" cy="-492.1" r="152"/>
	<rect id="rect172" x="234.2" y="-539.5" class="st6" width="311.7" height="13.6"/>
	<rect id="rect174" x="227.7" y="-458.4" class="st6" width="321.7" height="13.6"/>
	<rect id="rect176" x="323.9" y="-525.9" class="st5" width="128.3" height="67.5"/>
	<rect id="rect178" x="268.9" y="-310.1" class="st6" width="236.4" height="74.3"/>
	
		<path id="path182" sodipodi:cx="259.49979" sodipodi:cy="549.82123" sodipodi:end="4.7122548" sodipodi:open="true" sodipodi:rx="50" sodipodi:ry="50" sodipodi:start="0" sodipodi:type="arc" class="st5" d="
		M410.8-309.7c13.2,13.1,13.3,34.5,0.2,47.8c-13.1,13.2-34.5,13.3-47.8,0.2s-13.3-34.5-0.2-47.8"/>
	<rect id="rect187" x="264.2" y="-311.3" class="st5" width="245.7" height="1.9"/>
	<circle id="path100" cx="388.1" cy="-1042.6" r="253.3"/>
	<circle id="path102" class="st1" cx="388.1" cy="-1042.6" r="185.8"/>
	<g class="st8">
		<path class="st0" d="M697.3-629.8c-0.1,0-0.3,0-0.4-0.1c-0.1-0.1-0.2-0.2-0.3-0.4c-0.1-0.2-0.1-0.4-0.2-0.7c0-0.3-0.1-0.7-0.1-1.2
			c0-0.6,0-1.1,0.1-1.5c0.1-0.4,0.1-0.7,0.3-0.9c0.1-0.2,0.3-0.3,0.5-0.5l16.9-12.5h-16.9c-0.1,0-0.2,0-0.4-0.1s-0.2-0.2-0.3-0.4
			c-0.1-0.2-0.1-0.4-0.2-0.7c0-0.3-0.1-0.7-0.1-1.1c0-0.4,0-0.8,0.1-1.1c0-0.3,0.1-0.5,0.2-0.7c0.1-0.2,0.1-0.3,0.3-0.4
			c0.1-0.1,0.2-0.1,0.4-0.1h32.5c0.1,0,0.3,0,0.4,0.1c0.1,0.1,0.2,0.2,0.2,0.4c0.1,0.2,0.1,0.4,0.2,0.7s0.1,0.7,0.1,1.1
			c0,0.4,0,0.8-0.1,1.1s-0.1,0.5-0.2,0.7c-0.1,0.2-0.1,0.3-0.2,0.4c-0.1,0.1-0.2,0.1-0.4,0.1h-15.1l15.1,12c0.2,0.1,0.3,0.2,0.4,0.4
			c0.1,0.1,0.2,0.3,0.2,0.5c0.1,0.2,0.1,0.4,0.1,0.7c0,0.3,0.1,0.7,0.1,1.1c0,0.5,0,0.8-0.1,1.1s-0.1,0.5-0.2,0.7
			c-0.1,0.2-0.2,0.3-0.3,0.3c-0.1,0.1-0.2,0.1-0.3,0.1c-0.2,0-0.5-0.1-0.7-0.2c-0.2-0.1-0.5-0.3-0.9-0.6l-13.4-11.2l-16.1,12.1
			c-0.5,0.3-0.8,0.5-0.9,0.5C697.6-629.9,697.4-629.8,697.3-629.8z"/>
		<path class="st0" d="M709.8-613.3h-12.5c-0.1,0-0.3,0-0.4-0.1c-0.1-0.1-0.2-0.2-0.2-0.4c-0.1-0.2-0.1-0.4-0.2-0.7
			c0-0.3-0.1-0.7-0.1-1.1c0-0.4,0-0.8,0.1-1.1c0-0.3,0.1-0.5,0.2-0.7c0.1-0.2,0.1-0.3,0.2-0.4c0.1-0.1,0.2-0.1,0.4-0.1h12.5
			l19.1-9.6c0.4-0.2,0.7-0.3,0.9-0.4c0.2,0,0.4,0,0.5,0.1s0.2,0.4,0.2,0.7c0,0.3,0.1,0.8,0.1,1.4c0,0.5,0,0.9-0.1,1.3
			c0,0.3-0.1,0.6-0.1,0.8c-0.1,0.2-0.1,0.3-0.3,0.4c-0.1,0.1-0.3,0.2-0.4,0.3l-9.7,4.7c-0.9,0.4-1.9,0.9-2.9,1.3
			c-1,0.4-2,0.9-3.1,1.3v0.1c1,0.4,2,0.8,3,1.2c1,0.4,2,0.9,2.9,1.3l9.8,4.7c0.2,0.1,0.3,0.1,0.4,0.2s0.2,0.2,0.3,0.4
			c0.1,0.2,0.1,0.4,0.1,0.7c0,0.3,0.1,0.7,0.1,1.1c0,0.6,0,1.1-0.1,1.5c0,0.4-0.1,0.6-0.2,0.7s-0.3,0.2-0.5,0.1
			c-0.2,0-0.5-0.2-0.9-0.4L709.8-613.3z"/>
		<path class="st0" d="M709.8-590.9c-0.7,0-1.2-0.1-1.4-0.2s-0.4-0.4-0.4-0.7v-10.9c0-0.3,0.1-0.5,0.4-0.7s0.7-0.2,1.4-0.2
			c0.7,0,1.1,0.1,1.4,0.2s0.4,0.4,0.4,0.7v10.9c0,0.1,0,0.3-0.1,0.4c-0.1,0.1-0.2,0.2-0.3,0.3c-0.1,0.1-0.3,0.1-0.6,0.2
			C710.4-590.9,710.1-590.9,709.8-590.9z"/>
		<path class="st0" d="M713.6-563.8c-2.6,0-5-0.2-7.1-0.6s-4-1.1-5.5-2c-1.5-1-2.7-2.2-3.6-3.7c-0.8-1.5-1.3-3.4-1.3-5.7
			c0-2.1,0.4-3.9,1.1-5.4s1.9-2.6,3.4-3.5c1.5-0.9,3.3-1.5,5.4-1.9s4.6-0.6,7.4-0.6c2.6,0,5,0.2,7.1,0.6c2.2,0.4,4,1.1,5.6,2
			c1.5,0.9,2.7,2.2,3.6,3.7c0.8,1.5,1.3,3.4,1.3,5.7c0,2.1-0.4,3.9-1.1,5.4c-0.8,1.5-1.9,2.6-3.4,3.5c-1.5,0.9-3.3,1.5-5.4,1.9
			C718.9-563.9,716.4-563.8,713.6-563.8z M713.3-568.4c1.7,0,3.2-0.1,4.6-0.2s2.5-0.3,3.6-0.5c1-0.2,1.9-0.5,2.7-0.9
			c0.7-0.4,1.4-0.8,1.8-1.3c0.5-0.5,0.8-1.1,1-1.8c0.2-0.7,0.3-1.4,0.3-2.3c0-1.5-0.3-2.7-1-3.6c-0.7-0.9-1.7-1.7-2.9-2.2
			c-1.2-0.5-2.7-0.9-4.3-1.1c-1.6-0.2-3.4-0.3-5.3-0.3c-2.5,0-4.7,0.1-6.5,0.4c-1.8,0.3-3.2,0.7-4.3,1.2s-1.9,1.3-2.4,2.2
			c-0.5,0.9-0.8,2-0.8,3.2c0,1,0.2,1.8,0.5,2.6s0.8,1.4,1.3,1.9c0.6,0.5,1.3,1,2.1,1.3c0.8,0.3,1.7,0.6,2.7,0.8
			c1,0.2,2.1,0.4,3.2,0.4C710.8-568.4,712-568.4,713.3-568.4z"/>
		<path class="st0" d="M698.5-537.7c-0.3,0-0.6,0-0.8-0.1c-0.2,0-0.4-0.1-0.6-0.2c-0.2-0.1-0.3-0.2-0.4-0.3
			c-0.1-0.1-0.1-0.3-0.1-0.4v-18.7c0-0.2,0-0.5,0.1-0.6c0.1-0.2,0.2-0.3,0.3-0.5s0.3-0.2,0.6-0.3c0.3-0.1,0.6-0.1,1-0.1
			c0.3,0,0.7,0,0.9,0c0.3,0,0.5,0.1,0.7,0.2c0.2,0.1,0.4,0.2,0.6,0.3c0.2,0.1,0.4,0.3,0.6,0.5l7,6.8c1.6,1.6,3,2.8,4.3,3.8
			c1.3,0.9,2.4,1.7,3.5,2.2s2,0.8,2.9,1s1.7,0.2,2.4,0.2c0.8,0,1.5-0.1,2.1-0.4s1.3-0.6,1.8-1.1c0.5-0.5,0.9-1.1,1.2-1.8
			s0.4-1.5,0.4-2.5c0-1.1-0.1-2.1-0.4-3c-0.3-0.9-0.6-1.6-1-2.3c-0.3-0.7-0.7-1.2-1-1.6c-0.3-0.4-0.4-0.8-0.4-1c0-0.1,0-0.2,0.1-0.3
			c0.1-0.1,0.2-0.2,0.3-0.2c0.2-0.1,0.4-0.1,0.6-0.1s0.6-0.1,0.9-0.1c0.3,0,0.5,0,0.7,0c0.2,0,0.4,0,0.5,0.1s0.3,0.1,0.4,0.2
			c0.1,0.1,0.3,0.2,0.5,0.4c0.2,0.2,0.4,0.6,0.7,1.1s0.6,1.2,0.9,1.9c0.3,0.8,0.6,1.6,0.8,2.6c0.2,0.9,0.3,1.9,0.3,2.9
			c0,1.6-0.2,3.1-0.7,4.3c-0.5,1.2-1.1,2.3-1.9,3.1s-1.7,1.4-2.8,1.8c-1.1,0.4-2.2,0.6-3.4,0.6c-1.1,0-2.2-0.1-3.2-0.3
			c-1.1-0.2-2.2-0.6-3.5-1.2c-1.2-0.6-2.6-1.5-4.2-2.7c-1.5-1.2-3.3-2.7-5.3-4.7l-5.6-5.4v14.7c0,0.1,0,0.3-0.1,0.4
			c-0.1,0.1-0.2,0.2-0.4,0.3c-0.2,0.1-0.4,0.2-0.6,0.2C699.1-537.7,698.8-537.7,698.5-537.7z"/>
		<path class="st0" d="M706.3-510.8c-1.6,0-3-0.3-4.2-0.8c-1.2-0.5-2.3-1.3-3.2-2.3s-1.6-2.3-2.1-3.7c-0.5-1.5-0.7-3.2-0.7-5
			c0-1.1,0.1-2.2,0.3-3.2s0.4-1.9,0.7-2.6s0.5-1.4,0.8-1.9c0.3-0.5,0.5-0.8,0.6-1s0.2-0.2,0.4-0.3c0.1-0.1,0.3-0.1,0.4-0.2
			c0.2-0.1,0.4-0.1,0.6-0.1c0.3,0,0.6,0,0.9,0c0.6,0,1.1,0.1,1.3,0.2c0.2,0.1,0.4,0.3,0.4,0.5c0,0.2-0.1,0.5-0.4,1
			c-0.3,0.5-0.6,1.1-0.9,1.8s-0.6,1.6-0.9,2.6s-0.4,2.1-0.4,3.3c0,1.2,0.1,2.2,0.4,3.1c0.3,0.9,0.7,1.6,1.3,2.3s1.2,1.1,1.9,1.4
			c0.7,0.3,1.5,0.5,2.4,0.5c1,0,1.8-0.2,2.6-0.6c0.8-0.4,1.4-1,2-1.7c0.6-0.7,1-1.7,1.3-2.8s0.4-2.3,0.4-3.7v-3.3
			c0-0.1,0-0.3,0.1-0.4s0.2-0.3,0.3-0.4s0.3-0.2,0.6-0.2c0.2-0.1,0.5-0.1,0.9-0.1c0.3,0,0.6,0,0.8,0.1c0.2,0.1,0.4,0.1,0.5,0.2
			s0.2,0.2,0.3,0.3s0.1,0.3,0.1,0.4v3c0,1.2,0.1,2.2,0.4,3.1c0.3,0.9,0.7,1.7,1.3,2.3c0.6,0.6,1.2,1.1,2,1.5
			c0.8,0.3,1.6,0.5,2.6,0.5c0.7,0,1.4-0.1,2-0.3c0.6-0.2,1.2-0.6,1.7-1c0.5-0.5,0.8-1,1.1-1.7s0.4-1.5,0.4-2.4c0-1-0.2-1.9-0.5-2.8
			c-0.3-0.8-0.6-1.6-1-2.3c-0.3-0.7-0.7-1.2-1-1.6c-0.3-0.4-0.5-0.7-0.5-0.9c0-0.1,0-0.2,0.1-0.3s0.1-0.2,0.3-0.2
			c0.1-0.1,0.3-0.1,0.6-0.1c0.2,0,0.5,0,0.9,0c0.3,0,0.5,0,0.7,0c0.2,0,0.4,0.1,0.5,0.1c0.1,0.1,0.3,0.1,0.4,0.2
			c0.1,0.1,0.3,0.2,0.4,0.4c0.2,0.2,0.4,0.5,0.7,1c0.3,0.5,0.6,1.1,0.9,1.9c0.3,0.7,0.6,1.6,0.8,2.6c0.2,1,0.3,2,0.3,3.1
			c0,1.6-0.2,3-0.6,4.1s-1,2.2-1.7,3c-0.7,0.8-1.6,1.4-2.6,1.8s-2.2,0.6-3.4,0.6c-1.1,0-2.1-0.1-3-0.4c-0.9-0.3-1.7-0.7-2.4-1.2
			s-1.3-1.2-1.8-2c-0.5-0.8-0.8-1.7-1-2.7h-0.1c-0.1,1.2-0.4,2.2-0.9,3.2c-0.5,1-1,1.8-1.7,2.5s-1.5,1.2-2.4,1.6
			S707.3-510.8,706.3-510.8z"/>
	</g>
	<g class="st8">
		<path class="st0" d="M150.6-604.7c0,0.2,0,0.4,0,0.6c0,0.2-0.1,0.3-0.1,0.4c0,0.1-0.1,0.2-0.2,0.3c-0.1,0-0.2,0.1-0.2,0.1
			c-0.1,0-0.4-0.1-0.7-0.4c-0.3-0.2-0.8-0.5-1.4-0.8s-1.3-0.5-2.1-0.8c-0.8-0.2-1.8-0.4-2.9-0.4c-1.3,0-2.5,0.2-3.6,0.7
			c-1.1,0.5-2,1.2-2.7,2c-0.7,0.9-1.3,1.9-1.7,3.1c-0.4,1.2-0.6,2.5-0.6,3.8c0,1.5,0.2,2.9,0.6,4.1c0.4,1.2,1,2.2,1.8,3
			c0.8,0.8,1.7,1.4,2.7,1.9s2.2,0.6,3.5,0.6c0.7,0,1.5-0.1,2.3-0.3c0.8-0.2,1.5-0.5,2.1-0.8v-7h-5.6c-0.2,0-0.4-0.1-0.5-0.3
			c-0.1-0.2-0.2-0.5-0.2-1c0-0.2,0-0.4,0-0.6c0-0.2,0.1-0.3,0.1-0.4c0.1-0.1,0.1-0.2,0.2-0.2c0.1,0,0.2-0.1,0.3-0.1h7.7
			c0.1,0,0.3,0,0.4,0.1s0.3,0.1,0.4,0.2c0.1,0.1,0.2,0.2,0.3,0.4c0.1,0.2,0.1,0.4,0.1,0.6v9.2c0,0.3-0.1,0.6-0.2,0.8
			c-0.1,0.2-0.3,0.4-0.7,0.6c-0.4,0.2-0.8,0.4-1.4,0.6c-0.6,0.2-1.2,0.4-1.8,0.5s-1.2,0.3-1.8,0.3c-0.6,0.1-1.2,0.1-1.8,0.1
			c-1.9,0-3.5-0.3-5-0.9c-1.5-0.6-2.7-1.4-3.7-2.5c-1-1.1-1.8-2.4-2.3-3.8c-0.5-1.5-0.8-3.2-0.8-5c0-1.9,0.3-3.7,0.9-5.2
			c0.6-1.6,1.4-2.9,2.4-4c1.1-1.1,2.3-1.9,3.8-2.5c1.5-0.6,3.1-0.9,4.9-0.9c0.9,0,1.8,0.1,2.6,0.2c0.8,0.2,1.5,0.4,2.2,0.6
			c0.6,0.2,1.2,0.5,1.6,0.7c0.4,0.3,0.7,0.5,0.9,0.6c0.2,0.2,0.3,0.3,0.3,0.6S150.6-605.1,150.6-604.7z"/>
		<path class="st0" d="M174.9-585.2c0,0.2,0,0.5-0.1,0.6c-0.1,0.2-0.2,0.3-0.3,0.4c-0.1,0.1-0.3,0.2-0.5,0.2c-0.2,0-0.3,0.1-0.5,0.1
			h-1.1c-0.3,0-0.6,0-0.9-0.1s-0.5-0.2-0.7-0.4c-0.2-0.2-0.5-0.4-0.7-0.7c-0.2-0.3-0.5-0.7-0.7-1.2l-7.4-13.7
			c-0.4-0.7-0.8-1.5-1.2-2.2c-0.4-0.8-0.8-1.5-1.1-2.3h0c0,0.9,0,1.8,0.1,2.7c0,0.9,0,1.9,0,2.8v14.6c0,0.1,0,0.2-0.1,0.3
			c-0.1,0.1-0.1,0.1-0.3,0.2c-0.1,0-0.3,0.1-0.5,0.1s-0.5,0-0.8,0c-0.3,0-0.6,0-0.8,0c-0.2,0-0.4-0.1-0.5-0.1
			c-0.1,0-0.2-0.1-0.3-0.2c-0.1-0.1-0.1-0.2-0.1-0.3v-22.3c0-0.5,0.1-0.9,0.4-1.1s0.6-0.3,0.9-0.3h1.6c0.4,0,0.7,0,0.9,0.1
			c0.2,0.1,0.5,0.2,0.7,0.3c0.2,0.1,0.4,0.3,0.6,0.6c0.2,0.3,0.4,0.6,0.6,1l5.7,10.6c0.3,0.6,0.7,1.3,1,1.9c0.3,0.6,0.6,1.2,0.9,1.8
			c0.3,0.6,0.6,1.2,0.9,1.8c0.3,0.6,0.6,1.2,0.9,1.7h0c0-1,0-2,0-3.1c0-1.1,0-2.1,0-3.1v-13.1c0-0.1,0-0.2,0.1-0.2
			c0.1-0.1,0.1-0.1,0.3-0.2s0.3-0.1,0.5-0.1c0.2,0,0.5,0,0.8,0c0.3,0,0.5,0,0.7,0c0.2,0,0.4,0.1,0.5,0.1s0.2,0.1,0.3,0.2
			c0.1,0.1,0.1,0.2,0.1,0.2V-585.2z"/>
		<path class="st0" d="M199.9-596.3c0,2.1-0.3,3.9-0.8,5.5c-0.5,1.6-1.3,2.9-2.3,3.9s-2.3,1.8-3.8,2.3c-1.5,0.5-3.3,0.8-5.3,0.8
			h-5.1c-0.3,0-0.6-0.1-0.8-0.3c-0.3-0.2-0.4-0.5-0.4-1v-21.5c0-0.5,0.1-0.8,0.4-1c0.3-0.2,0.5-0.3,0.8-0.3h5.5
			c2.1,0,3.9,0.3,5.3,0.8s2.7,1.3,3.6,2.3c1,1,1.7,2.2,2.2,3.7C199.6-599.7,199.9-598.1,199.9-596.3z M196.5-596.1
			c0-1.3-0.2-2.5-0.5-3.6s-0.8-2.1-1.5-2.9s-1.6-1.5-2.6-1.9c-1.1-0.5-2.4-0.7-4.1-0.7h-3.3v18.8h3.3c1.5,0,2.8-0.2,3.9-0.6
			c1.1-0.4,1.9-1,2.6-1.8c0.7-0.8,1.2-1.8,1.6-3C196.3-593.1,196.5-594.5,196.5-596.1z"/>
	</g>
	<g class="st8">
		<path class="st0" d="M147.2-544.5c0,0.2,0,0.4-0.1,0.6c0,0.2-0.1,0.3-0.1,0.4c-0.1,0.1-0.1,0.2-0.2,0.2s-0.2,0.1-0.3,0.1h-6.1v6.8
			c0,0.1,0,0.2-0.1,0.3c0,0.1-0.1,0.1-0.2,0.2s-0.2,0.1-0.4,0.1c-0.2,0-0.4,0-0.7,0c-0.2,0-0.5,0-0.6,0c-0.2,0-0.3-0.1-0.4-0.1
			s-0.2-0.1-0.2-0.2c0-0.1-0.1-0.2-0.1-0.3v-6.8h-6.1c-0.1,0-0.2,0-0.3-0.1c-0.1,0-0.2-0.1-0.2-0.2c-0.1-0.1-0.1-0.3-0.1-0.4
			c0-0.2-0.1-0.4-0.1-0.6c0-0.2,0-0.4,0.1-0.6c0-0.2,0.1-0.3,0.1-0.4c0.1-0.1,0.1-0.2,0.2-0.2c0.1,0,0.2-0.1,0.3-0.1h6.1v-6.8
			c0-0.1,0-0.2,0.1-0.3c0-0.1,0.1-0.1,0.2-0.2c0.1-0.1,0.2-0.1,0.4-0.1s0.4,0,0.6,0c0.3,0,0.5,0,0.7,0s0.3,0.1,0.4,0.1
			c0.1,0.1,0.2,0.1,0.2,0.2c0,0.1,0.1,0.2,0.1,0.3v6.8h6.1c0.1,0,0.2,0,0.3,0.1c0.1,0,0.2,0.1,0.2,0.2c0.1,0.1,0.1,0.3,0.1,0.4
			C147.2-544.9,147.2-544.7,147.2-544.5z"/>
		<path class="st0" d="M165.6-541.5c0,1.3-0.2,2.4-0.7,3.4c-0.4,1-1,1.9-1.8,2.5c-0.8,0.7-1.7,1.2-2.8,1.6c-1.1,0.4-2.3,0.5-3.7,0.5
			c-0.7,0-1.5-0.1-2.1-0.2s-1.3-0.2-1.8-0.4s-0.9-0.3-1.3-0.5c-0.3-0.1-0.5-0.3-0.6-0.4s-0.2-0.2-0.2-0.2s-0.1-0.2-0.1-0.3
			c0-0.1-0.1-0.2-0.1-0.4c0-0.2,0-0.4,0-0.6c0-0.2,0-0.4,0-0.6c0-0.2,0.1-0.3,0.1-0.4c0-0.1,0.1-0.2,0.2-0.2c0.1,0,0.1-0.1,0.2-0.1
			c0.1,0,0.3,0.1,0.6,0.2s0.6,0.3,1.1,0.5c0.4,0.2,1,0.4,1.6,0.5c0.7,0.2,1.4,0.2,2.3,0.2c0.8,0,1.6-0.1,2.3-0.3
			c0.7-0.2,1.3-0.5,1.8-0.9c0.5-0.4,0.9-1,1.2-1.6c0.3-0.6,0.4-1.4,0.4-2.3c0-0.8-0.1-1.4-0.4-2c-0.2-0.6-0.6-1.1-1.1-1.5
			c-0.5-0.4-1.1-0.7-1.9-0.9s-1.7-0.3-2.8-0.3c-0.8,0-1.4,0-2,0.1c-0.5,0.1-1.1,0.1-1.5,0.1c-0.3,0-0.6-0.1-0.7-0.2
			c-0.1-0.2-0.2-0.5-0.2-0.9v-9.8c0-0.4,0.1-0.7,0.3-0.9s0.5-0.3,0.8-0.3h10.7c0.1,0,0.2,0,0.3,0.1c0.1,0.1,0.2,0.1,0.2,0.3
			c0.1,0.1,0.1,0.3,0.1,0.4s0,0.4,0,0.6c0,0.4-0.1,0.8-0.2,1s-0.3,0.4-0.5,0.4h-8.6v6.8c0.4-0.1,0.8-0.1,1.3-0.1c0.4,0,0.9,0,1.5,0
			c1.3,0,2.5,0.2,3.5,0.5s1.8,0.8,2.5,1.4c0.7,0.6,1.2,1.3,1.5,2.2S165.6-542.5,165.6-541.5z"/>
		<path class="st0" d="M180.7-534.3c0,0.1-0.1,0.2-0.2,0.3s-0.2,0.2-0.4,0.2s-0.4,0.1-0.6,0.1s-0.5,0-0.9,0c-0.3,0-0.5,0-0.7,0
			c-0.2,0-0.4,0-0.5,0c-0.1,0-0.3-0.1-0.4-0.1c-0.1,0-0.2-0.1-0.3-0.1c-0.1,0-0.1-0.1-0.2-0.2c0-0.1-0.1-0.2-0.1-0.3l-7.9-22.4
			c-0.1-0.3-0.2-0.5-0.2-0.7c0-0.2,0-0.3,0.2-0.4c0.1-0.1,0.3-0.1,0.5-0.2c0.2,0,0.6,0,1,0c0.3,0,0.6,0,0.8,0c0.2,0,0.4,0.1,0.5,0.1
			c0.1,0,0.2,0.1,0.3,0.2c0.1,0.1,0.1,0.2,0.2,0.3l6.9,20.3h0l6.7-20.2c0-0.1,0.1-0.2,0.1-0.3c0-0.1,0.1-0.2,0.3-0.2
			s0.3-0.1,0.5-0.1s0.5,0,0.9,0c0.4,0,0.7,0,0.9,0s0.4,0.1,0.5,0.2c0.1,0.1,0.1,0.2,0.1,0.4c0,0.2-0.1,0.4-0.2,0.7L180.7-534.3z"/>
	</g>
	<g class="st8">
		<path class="st0" d="M141.9-480c0,0.1-0.1,0.2-0.2,0.3s-0.2,0.2-0.4,0.2s-0.4,0.1-0.6,0.1s-0.5,0-0.9,0c-0.3,0-0.5,0-0.7,0
			c-0.2,0-0.4,0-0.5,0c-0.1,0-0.3-0.1-0.4-0.1c-0.1,0-0.2-0.1-0.3-0.1c-0.1,0-0.1-0.1-0.2-0.2c0-0.1-0.1-0.2-0.1-0.3l-7.9-22.4
			c-0.1-0.3-0.2-0.5-0.2-0.7c0-0.2,0-0.3,0.2-0.4c0.1-0.1,0.3-0.1,0.5-0.2c0.2,0,0.6,0,1,0c0.3,0,0.6,0,0.8,0c0.2,0,0.4,0.1,0.5,0.1
			c0.1,0,0.2,0.1,0.3,0.2c0.1,0.1,0.1,0.2,0.2,0.3l6.9,20.3h0l6.7-20.2c0-0.1,0.1-0.2,0.1-0.3c0-0.1,0.1-0.2,0.3-0.2
			s0.3-0.1,0.5-0.1s0.5,0,0.9,0c0.4,0,0.7,0,0.9,0s0.4,0.1,0.5,0.2c0.1,0.1,0.1,0.2,0.1,0.4c0,0.2-0.1,0.4-0.2,0.7L141.9-480z"/>
		<path class="st0" d="M169.9-480c0,0.1,0,0.2-0.1,0.3s-0.1,0.1-0.2,0.2s-0.3,0.1-0.5,0.1c-0.2,0-0.5,0-0.9,0c-0.3,0-0.6,0-0.8,0
			c-0.2,0-0.4-0.1-0.5-0.1c-0.1-0.1-0.2-0.1-0.3-0.2s-0.1-0.2-0.2-0.4l-2.2-5.7c-0.3-0.6-0.5-1.2-0.8-1.8s-0.6-1-1-1.4
			c-0.4-0.4-0.8-0.7-1.4-0.9c-0.5-0.2-1.1-0.3-1.9-0.3H157v10.3c0,0.1,0,0.2-0.1,0.3s-0.1,0.1-0.3,0.2c-0.1,0-0.3,0.1-0.5,0.1
			c-0.2,0-0.5,0-0.8,0s-0.6,0-0.8,0c-0.2,0-0.4-0.1-0.5-0.1c-0.1,0-0.2-0.1-0.3-0.2s-0.1-0.2-0.1-0.3v-22.3c0-0.5,0.1-0.8,0.4-1
			c0.3-0.2,0.5-0.3,0.8-0.3h5.1c0.6,0,1.1,0,1.5,0c0.4,0,0.8,0.1,1.1,0.1c0.9,0.2,1.8,0.4,2.5,0.8c0.7,0.3,1.3,0.8,1.8,1.3
			c0.5,0.5,0.8,1.1,1.1,1.8c0.2,0.7,0.4,1.4,0.4,2.3c0,0.8-0.1,1.5-0.3,2.2c-0.2,0.6-0.5,1.2-0.9,1.7s-0.9,0.9-1.5,1.3
			c-0.6,0.4-1.2,0.7-1.9,0.9c0.4,0.2,0.8,0.4,1.1,0.7c0.3,0.3,0.6,0.6,0.9,1s0.5,0.8,0.8,1.3c0.2,0.5,0.5,1,0.7,1.6l2.2,5.3
			c0.2,0.4,0.3,0.8,0.3,0.9C169.9-480.2,169.9-480.1,169.9-480z M165.1-496.9c0-0.9-0.2-1.7-0.6-2.4c-0.4-0.7-1.1-1.1-2.1-1.4
			c-0.3-0.1-0.7-0.1-1.1-0.2c-0.4,0-0.9-0.1-1.5-0.1H157v8.1h3.1c0.8,0,1.6-0.1,2.2-0.3c0.6-0.2,1.1-0.5,1.5-0.9
			c0.4-0.4,0.7-0.8,0.9-1.3S165.1-496.3,165.1-496.9z"/>
		<path class="st0" d="M186.9-480.3c0.1,0.2,0.1,0.3,0.1,0.4c0,0.1-0.1,0.2-0.2,0.3c-0.1,0.1-0.3,0.1-0.5,0.2c-0.2,0-0.6,0-0.9,0
			c-0.4,0-0.7,0-0.9,0c-0.2,0-0.4,0-0.5-0.1c-0.1,0-0.2-0.1-0.3-0.2s-0.1-0.1-0.2-0.2l-4-6.6l-4,6.6c0,0.1-0.1,0.2-0.2,0.2
			s-0.2,0.1-0.3,0.2c-0.1,0-0.3,0.1-0.5,0.1c-0.2,0-0.5,0-0.8,0c-0.4,0-0.7,0-0.9,0c-0.2,0-0.4-0.1-0.5-0.2
			c-0.1-0.1-0.2-0.2-0.1-0.3c0-0.1,0.1-0.3,0.2-0.4l5.2-8.2l-4.9-7.9c-0.1-0.2-0.2-0.3-0.2-0.4s0-0.2,0.2-0.3
			c0.1-0.1,0.3-0.1,0.5-0.2c0.2,0,0.6,0,1,0c0.4,0,0.6,0,0.9,0c0.2,0,0.4,0,0.5,0.1s0.2,0.1,0.3,0.1c0.1,0.1,0.1,0.1,0.2,0.2
			l3.8,6.2l3.9-6.2c0-0.1,0.1-0.1,0.2-0.2c0.1-0.1,0.1-0.1,0.3-0.2s0.3-0.1,0.4-0.1c0.2,0,0.5,0,0.8,0c0.4,0,0.7,0,0.9,0
			c0.2,0,0.4,0.1,0.5,0.1c0.1,0.1,0.2,0.2,0.1,0.3s-0.1,0.3-0.2,0.5l-4.9,7.8L186.9-480.3z"/>
	</g>
	<g class="st8">
		<path class="st0" d="M141.9-428.3c0,0.1-0.1,0.2-0.2,0.3s-0.2,0.2-0.4,0.2s-0.4,0.1-0.6,0.1s-0.5,0-0.9,0c-0.3,0-0.5,0-0.7,0
			c-0.2,0-0.4,0-0.5,0c-0.1,0-0.3-0.1-0.4-0.1c-0.1,0-0.2-0.1-0.3-0.1c-0.1,0-0.1-0.1-0.2-0.2c0-0.1-0.1-0.2-0.1-0.3l-7.9-22.4
			c-0.1-0.3-0.2-0.5-0.2-0.7c0-0.2,0-0.3,0.2-0.4c0.1-0.1,0.3-0.1,0.5-0.2c0.2,0,0.6,0,1,0c0.3,0,0.6,0,0.8,0c0.2,0,0.4,0.1,0.5,0.1
			c0.1,0,0.2,0.1,0.3,0.2c0.1,0.1,0.1,0.2,0.2,0.3l6.9,20.3h0l6.7-20.2c0-0.1,0.1-0.2,0.1-0.3c0-0.1,0.1-0.2,0.3-0.2
			s0.3-0.1,0.5-0.1s0.5,0,0.9,0c0.4,0,0.7,0,0.9,0s0.4,0.1,0.5,0.2c0.1,0.1,0.1,0.2,0.1,0.4c0,0.2-0.1,0.4-0.2,0.7L141.9-428.3z"/>
		<path class="st0" d="M169.9-428.2c0,0.1,0,0.2-0.1,0.3s-0.1,0.1-0.2,0.2s-0.3,0.1-0.5,0.1c-0.2,0-0.5,0-0.9,0c-0.3,0-0.6,0-0.8,0
			c-0.2,0-0.4-0.1-0.5-0.1c-0.1-0.1-0.2-0.1-0.3-0.2s-0.1-0.2-0.2-0.4l-2.2-5.7c-0.3-0.6-0.5-1.2-0.8-1.8s-0.6-1-1-1.4
			c-0.4-0.4-0.8-0.7-1.4-0.9c-0.5-0.2-1.1-0.3-1.9-0.3H157v10.3c0,0.1,0,0.2-0.1,0.3s-0.1,0.1-0.3,0.2c-0.1,0-0.3,0.1-0.5,0.1
			c-0.2,0-0.5,0-0.8,0s-0.6,0-0.8,0c-0.2,0-0.4-0.1-0.5-0.1c-0.1,0-0.2-0.1-0.3-0.2s-0.1-0.2-0.1-0.3v-22.3c0-0.5,0.1-0.8,0.4-1
			c0.3-0.2,0.5-0.3,0.8-0.3h5.1c0.6,0,1.1,0,1.5,0c0.4,0,0.8,0.1,1.1,0.1c0.9,0.2,1.8,0.4,2.5,0.8c0.7,0.3,1.3,0.8,1.8,1.3
			c0.5,0.5,0.8,1.1,1.1,1.8c0.2,0.7,0.4,1.4,0.4,2.3c0,0.8-0.1,1.5-0.3,2.2c-0.2,0.6-0.5,1.2-0.9,1.7s-0.9,0.9-1.5,1.3
			c-0.6,0.4-1.2,0.7-1.9,0.9c0.4,0.2,0.8,0.4,1.1,0.7c0.3,0.3,0.6,0.6,0.9,1s0.5,0.8,0.8,1.3c0.2,0.5,0.5,1,0.7,1.6l2.2,5.3
			c0.2,0.4,0.3,0.8,0.3,0.9C169.9-428.5,169.9-428.3,169.9-428.2z M165.1-445.2c0-0.9-0.2-1.7-0.6-2.4c-0.4-0.7-1.1-1.1-2.1-1.4
			c-0.3-0.1-0.7-0.1-1.1-0.2c-0.4,0-0.9-0.1-1.5-0.1H157v8.1h3.1c0.8,0,1.6-0.1,2.2-0.3c0.6-0.2,1.1-0.5,1.5-0.9
			c0.4-0.4,0.7-0.8,0.9-1.3S165.1-444.6,165.1-445.2z"/>
		<path class="st0" d="M181.2-427.8l-2.2,6.2c-0.1,0.2-0.3,0.4-0.6,0.5c-0.3,0.1-0.8,0.2-1.4,0.2c-0.3,0-0.6,0-0.8,0
			c-0.2,0-0.4-0.1-0.5-0.2c-0.1-0.1-0.2-0.2-0.2-0.3c0-0.1,0-0.3,0.1-0.4l2.3-5.8c-0.1,0-0.2-0.1-0.3-0.2c-0.1-0.1-0.2-0.2-0.2-0.4
			l-6-16c-0.1-0.3-0.1-0.5-0.1-0.6c0-0.1,0-0.3,0.1-0.4c0.1-0.1,0.3-0.1,0.5-0.2c0.2,0,0.5,0,0.9,0c0.4,0,0.7,0,0.9,0
			c0.2,0,0.4,0.1,0.5,0.1c0.1,0,0.2,0.1,0.3,0.2c0.1,0.1,0.1,0.2,0.2,0.4l4.8,13.4h0.1l4.6-13.5c0.1-0.2,0.2-0.4,0.3-0.5
			s0.3-0.1,0.5-0.1c0.2,0,0.5,0,0.9,0c0.3,0,0.6,0,0.9,0c0.2,0,0.4,0.1,0.5,0.2s0.2,0.2,0.2,0.4c0,0.1,0,0.3-0.1,0.6L181.2-427.8z"
			/>
	</g>
	<g class="st8">
		<path class="st0" d="M145.6-382.8c0,1.1-0.2,2.1-0.6,3c-0.4,0.9-1,1.6-1.7,2.2c-0.7,0.6-1.6,1.1-2.6,1.4c-1,0.3-2.1,0.5-3.2,0.5
			c-0.8,0-1.6-0.1-2.2-0.2c-0.7-0.1-1.3-0.3-1.8-0.5c-0.5-0.2-1-0.4-1.4-0.6s-0.6-0.4-0.8-0.5c-0.1-0.1-0.2-0.3-0.3-0.6
			c-0.1-0.2-0.1-0.5-0.1-0.9c0-0.3,0-0.5,0-0.7c0-0.2,0.1-0.3,0.1-0.4s0.1-0.2,0.2-0.2c0.1,0,0.2-0.1,0.3-0.1c0.2,0,0.4,0.1,0.7,0.3
			c0.3,0.2,0.7,0.4,1.2,0.7c0.5,0.2,1.1,0.5,1.8,0.7c0.7,0.2,1.5,0.3,2.4,0.3c0.7,0,1.3-0.1,1.9-0.3s1.1-0.4,1.5-0.8s0.7-0.8,1-1.3
			c0.2-0.5,0.3-1.1,0.3-1.7c0-0.7-0.2-1.3-0.5-1.8c-0.3-0.5-0.7-0.9-1.2-1.3s-1.1-0.7-1.7-1c-0.7-0.3-1.3-0.6-2-0.9s-1.3-0.7-2-1.1
			s-1.2-0.8-1.7-1.4c-0.5-0.5-0.9-1.1-1.2-1.8s-0.5-1.5-0.5-2.5c0-1,0.2-1.9,0.5-2.7s0.9-1.4,1.5-2c0.7-0.5,1.4-0.9,2.3-1.2
			c0.9-0.3,1.9-0.4,2.9-0.4c0.5,0,1.1,0,1.6,0.1c0.5,0.1,1,0.2,1.5,0.4s0.9,0.3,1.3,0.5c0.4,0.2,0.6,0.3,0.7,0.5s0.2,0.2,0.2,0.3
			s0.1,0.2,0.1,0.3c0,0.1,0,0.2,0.1,0.4c0,0.1,0,0.3,0,0.6c0,0.2,0,0.4,0,0.6s0,0.3-0.1,0.4c0,0.1-0.1,0.2-0.2,0.3
			c-0.1,0.1-0.1,0.1-0.2,0.1c-0.1,0-0.4-0.1-0.6-0.3c-0.3-0.2-0.6-0.4-1.1-0.6s-0.9-0.4-1.5-0.6s-1.2-0.3-1.9-0.3
			c-0.7,0-1.3,0.1-1.8,0.3c-0.5,0.2-0.9,0.4-1.2,0.7c-0.3,0.3-0.6,0.7-0.7,1.1c-0.2,0.4-0.2,0.8-0.2,1.3c0,0.7,0.2,1.2,0.5,1.7
			c0.3,0.5,0.7,0.9,1.2,1.3c0.5,0.4,1.1,0.7,1.8,1c0.7,0.3,1.3,0.6,2,0.9s1.4,0.7,2,1c0.7,0.4,1.2,0.8,1.8,1.3
			c0.5,0.5,0.9,1.1,1.2,1.8S145.6-383.8,145.6-382.8z"/>
		<path class="st0" d="M173-376.8c0,0.2-0.1,0.3-0.2,0.4c-0.1,0.1-0.2,0.2-0.4,0.2c-0.2,0.1-0.4,0.1-0.6,0.1c-0.3,0-0.6,0-0.9,0
			c-0.4,0-0.7,0-1,0c-0.3,0-0.5-0.1-0.7-0.1c-0.2-0.1-0.3-0.1-0.4-0.2s-0.2-0.2-0.2-0.4l-5-18.2h0l-4.7,18.2c0,0.2-0.1,0.3-0.2,0.4
			s-0.2,0.2-0.4,0.2c-0.2,0.1-0.4,0.1-0.6,0.1c-0.3,0-0.6,0-1,0c-0.4,0-0.8,0-1,0c-0.3,0-0.5-0.1-0.7-0.1c-0.2-0.1-0.3-0.1-0.4-0.2
			s-0.2-0.2-0.2-0.4L148-399c-0.1-0.3-0.1-0.5-0.1-0.7c0-0.2,0-0.3,0.1-0.4s0.3-0.1,0.5-0.2c0.2,0,0.6,0,0.9,0c0.4,0,0.7,0,0.9,0
			c0.2,0,0.4,0.1,0.5,0.1c0.1,0,0.2,0.1,0.2,0.2c0,0.1,0.1,0.2,0.1,0.3l5.4,20.2h0l5.1-20.1c0-0.1,0.1-0.3,0.1-0.3s0.1-0.2,0.3-0.2
			s0.3-0.1,0.5-0.1c0.2,0,0.5,0,0.9,0c0.3,0,0.6,0,0.8,0c0.2,0,0.4,0.1,0.5,0.1c0.1,0,0.2,0.1,0.3,0.2s0.1,0.2,0.1,0.3l5.5,20.1h0
			l5.3-20.2c0-0.1,0.1-0.2,0.1-0.3s0.1-0.2,0.2-0.2s0.3-0.1,0.5-0.1c0.2,0,0.5,0,0.9,0c0.4,0,0.7,0,0.9,0c0.2,0,0.4,0.1,0.5,0.2
			s0.1,0.2,0.1,0.4c0,0.2,0,0.4-0.1,0.7L173-376.8z"/>
	</g>
</g>
</svg>
