<?xml version="1.0" encoding="utf-8"?>
<!-- Generator: Adobe Illustrator 27.8.0, SVG Export Plug-In . SVG Version: 6.00 Build 0)  -->
<svg version="1.1"
	 id="svg8" xmlns:svg="http://www.w3.org/2000/svg" xmlns:rdf="http://www.w3.org/1999/02/22-rdf-syntax-ns#" xmlns:sodipodi="http://sodipodi.sourceforge.net/DTD/sodipodi-0.dtd" xmlns:dc="http://purl.org/dc/elements/1.1/" xmlns:inkscape="http://www.inkscape.org/namespaces/inkscape" xmlns:cc="http://creativecommons.org/ns#" inkscape:export-xdpi="93" inkscape:export-ydpi="93" inkscape:version="0.92.4 (5da689c313, 2019-01-14)"
	 xmlns="http://www.w3.org/2000/svg" xmlns:xlink="http://www.w3.org/1999/xlink" x="0px" y="0px" viewBox="0 0 694.5 411"
	 style="enable-background:new 0 0 694.5 411;" xml:space="preserve">
<style type="text/css">
	.st0{fill:#4D4D4D;}
	.st1{fill:none;stroke:#F80000;stroke-width:2.3905;}
	.st2{enable-background:new    ;}
</style>
<defs>
	
		<inkscape:path-effect  apply_no_weight="true" apply_with_weight="true" effect="bspline" helper_size="0" id="path-effect887" is_visible="true" only_selected="false" steps="2" weight="33.333333">
		</inkscape:path-effect>
	
		<inkscape:path-effect  apply_no_weight="true" apply_with_weight="true" effect="bspline" helper_size="0" id="path-effect883" is_visible="true" only_selected="false" steps="2" weight="33.333333">
		</inkscape:path-effect>
	
		<inkscape:path-effect  apply_no_weight="true" apply_with_weight="true" effect="bspline" helper_size="0" id="path-effect873" is_visible="true" only_selected="false" steps="2" weight="33.333333">
		</inkscape:path-effect>
</defs>
<sodipodi:namedview  bordercolor="#666666" borderopacity="1.0" id="base" inkscape:current-layer="layer1" inkscape:cx="577.11895" inkscape:cy="462.95085" inkscape:document-units="mm" inkscape:guide-bbox="true" inkscape:pagecheckerboard="false" inkscape:pageopacity="1" inkscape:pageshadow="2" inkscape:window-height="1017" inkscape:window-maximized="1" inkscape:window-width="1920" inkscape:window-x="1912" inkscape:window-y="-8" inkscape:zoom="0.49497475" pagecolor="#373737" showgrid="false" showguides="true">
	</sodipodi:namedview>
<g id="layer1" transform="translate(0,-152)" inkscape:groupmode="layer" inkscape:label="Ebene 1">
	
		<rect id="rect846" x="76.7" y="512.2" inkscape:export-xdpi="93" inkscape:export-ydpi="93" class="st0" width="540.9" height="9.1">
	</rect>
	
		<path id="path860" inkscape:export-xdpi="93" inkscape:export-ydpi="93" inkscape:flatsided="true" inkscape:randomized="0" inkscape:rounded="0" inkscape:transform-center-x="-1.6008398" inkscape:transform-center-y="-0.014103062" sodipodi:arg1="0.52796978" sodipodi:arg2="1.5751673" sodipodi:cx="331.71545" sodipodi:cy="259.24997" sodipodi:r1="13.206109" sodipodi:r2="6.6030545" sodipodi:sides="3" sodipodi:type="star" class="st0" d="
		M604.8,532.7l0.1-31.7l27.4,16L604.8,532.7z"/>
	
		<rect id="rect855" x="76.7" y="205.7" inkscape:export-xdpi="93" inkscape:export-ydpi="93" class="st0" width="9.1" height="315.6">
	</rect>
	
		<path id="path857" inkscape:export-xdpi="93" inkscape:export-ydpi="93" inkscape:flatsided="true" inkscape:randomized="0" inkscape:rounded="0" inkscape:transform-center-x="0.014101966" inkscape:transform-center-y="-1.6008461" sodipodi:arg1="0.52796978" sodipodi:arg2="1.5751673" sodipodi:cx="28.700153" sodipodi:cy="173.09039" sodipodi:r1="6.4522605" sodipodi:r2="3.2261302" sodipodi:sides="3" sodipodi:type="star" class="st0" d="
		M97.2,221l-31.7-0.1l16-27.4L97.2,221z"/>
	
		<path id="path885" inkscape:connector-curvature="0" inkscape:export-xdpi="93" inkscape:export-ydpi="93" inkscape:original-d="m 15.0917,194.17912 c 8.203822,31.25959 16.407236,62.51903 24.610561,93.77954 50.481149,4.24368 100.961079,8.48765 151.441219,12.73203" inkscape:path-effect="#path-effect887" sodipodi:nodetypes="ccc" class="st1" d="
		M116.8,235.3c22.7,63.6,45.3,127.2,126.4,163.3s220.6,44.8,360.1,53.4"/>
	<g class="st2">
		<path d="M544.5,538.3c0,0.2,0,0.4,0,0.5c0,0.1-0.1,0.3-0.1,0.4c0,0.1-0.1,0.2-0.2,0.2c-0.1,0-0.1,0.1-0.2,0.1h-5.7v17.5
			c0,0.1,0,0.2-0.1,0.2c0,0.1-0.1,0.1-0.2,0.1c-0.1,0-0.2,0.1-0.4,0.1c-0.2,0-0.4,0-0.6,0c-0.2,0-0.5,0-0.6,0
			c-0.2,0-0.3-0.1-0.4-0.1c-0.1,0-0.2-0.1-0.2-0.1c0-0.1-0.1-0.1-0.1-0.2v-17.5H530c-0.1,0-0.2,0-0.2-0.1c-0.1,0-0.1-0.1-0.2-0.2
			c0-0.1-0.1-0.2-0.1-0.4c0-0.1,0-0.3,0-0.5c0-0.2,0-0.4,0-0.5c0-0.2,0.1-0.3,0.1-0.4c0-0.1,0.1-0.2,0.2-0.2c0.1,0,0.1-0.1,0.2-0.1
			H544c0.1,0,0.2,0,0.2,0.1c0.1,0,0.1,0.1,0.2,0.2s0.1,0.2,0.1,0.4C544.5,537.9,544.5,538.1,544.5,538.3z"/>
		<path d="M556.3,549.3c0,0.4-0.1,0.7-0.3,0.9s-0.4,0.3-0.7,0.3h-9.3c0,0.8,0.1,1.5,0.2,2.1s0.4,1.2,0.8,1.6c0.4,0.4,0.8,0.8,1.4,1
			c0.6,0.2,1.3,0.4,2.2,0.4c0.7,0,1.3-0.1,1.8-0.2s1-0.2,1.4-0.4c0.4-0.1,0.7-0.3,0.9-0.4s0.4-0.2,0.6-0.2c0.1,0,0.1,0,0.2,0.1
			c0.1,0,0.1,0.1,0.1,0.2c0,0.1,0.1,0.2,0.1,0.3c0,0.1,0,0.3,0,0.5c0,0.1,0,0.3,0,0.4c0,0.1,0,0.2,0,0.3s0,0.1-0.1,0.2
			c0,0.1-0.1,0.1-0.1,0.2c-0.1,0.1-0.2,0.2-0.5,0.3c-0.3,0.1-0.6,0.3-1.1,0.4c-0.4,0.1-1,0.2-1.6,0.3c-0.6,0.1-1.2,0.1-1.9,0.1
			c-1.2,0-2.2-0.2-3-0.5c-0.9-0.3-1.6-0.8-2.2-1.4c-0.6-0.6-1-1.4-1.3-2.4c-0.3-1-0.5-2.1-0.5-3.3c0-1.2,0.2-2.3,0.5-3.3
			c0.3-1,0.8-1.8,1.4-2.5c0.6-0.7,1.3-1.2,2.1-1.5c0.8-0.4,1.8-0.5,2.8-0.5c1.1,0,2,0.2,2.8,0.5c0.8,0.4,1.4,0.8,1.9,1.4
			c0.5,0.6,0.9,1.3,1.1,2.1c0.2,0.8,0.4,1.7,0.4,2.6V549.3z M553.7,548.5c0-1.4-0.3-2.4-0.9-3.2c-0.6-0.8-1.6-1.2-2.8-1.2
			c-0.6,0-1.2,0.1-1.7,0.4c-0.5,0.2-0.9,0.6-1.2,1c-0.3,0.4-0.6,0.9-0.8,1.4c-0.2,0.5-0.3,1.1-0.3,1.6H553.7z"/>
		<path d="M581.1,556.9c0,0.1,0,0.2-0.1,0.2c0,0.1-0.1,0.1-0.2,0.1s-0.2,0.1-0.4,0.1c-0.2,0-0.4,0-0.6,0c-0.3,0-0.5,0-0.6,0
			c-0.2,0-0.3-0.1-0.4-0.1c-0.1,0-0.2-0.1-0.2-0.1c0-0.1-0.1-0.1-0.1-0.2v-8.5c0-0.6-0.1-1.1-0.2-1.6c-0.1-0.5-0.3-0.9-0.5-1.3
			c-0.2-0.4-0.5-0.6-0.9-0.8c-0.4-0.2-0.8-0.3-1.2-0.3c-0.6,0-1.2,0.2-1.8,0.7c-0.6,0.5-1.3,1.1-2,2v9.8c0,0.1,0,0.2-0.1,0.2
			c0,0.1-0.1,0.1-0.2,0.1c-0.1,0-0.2,0.1-0.4,0.1c-0.2,0-0.4,0-0.6,0c-0.2,0-0.4,0-0.6,0c-0.2,0-0.3-0.1-0.4-0.1
			c-0.1,0-0.2-0.1-0.2-0.1c0-0.1-0.1-0.1-0.1-0.2v-8.5c0-0.6-0.1-1.1-0.2-1.6c-0.1-0.5-0.3-0.9-0.5-1.3c-0.2-0.4-0.5-0.6-0.9-0.8
			c-0.3-0.2-0.8-0.3-1.2-0.3c-0.6,0-1.2,0.2-1.8,0.7c-0.6,0.5-1.3,1.1-2,2v9.8c0,0.1,0,0.2-0.1,0.2c0,0.1-0.1,0.1-0.2,0.1
			s-0.2,0.1-0.4,0.1c-0.2,0-0.4,0-0.6,0c-0.2,0-0.5,0-0.6,0c-0.2,0-0.3-0.1-0.4-0.1c-0.1,0-0.2-0.1-0.2-0.1c0-0.1-0.1-0.1-0.1-0.2
			v-14.1c0-0.1,0-0.2,0-0.2c0-0.1,0.1-0.1,0.2-0.2s0.2-0.1,0.4-0.1c0.1,0,0.3,0,0.6,0c0.2,0,0.4,0,0.6,0c0.2,0,0.3,0,0.4,0.1
			c0.1,0,0.1,0.1,0.2,0.2c0,0.1,0.1,0.1,0.1,0.2v1.9c0.8-0.9,1.6-1.5,2.3-1.9c0.7-0.4,1.5-0.6,2.3-0.6c0.6,0,1.1,0.1,1.6,0.2
			c0.5,0.1,0.9,0.3,1.2,0.6c0.4,0.2,0.7,0.5,0.9,0.9c0.2,0.3,0.5,0.7,0.6,1.1c0.5-0.5,0.9-0.9,1.3-1.3c0.4-0.4,0.8-0.6,1.2-0.9
			s0.8-0.4,1.1-0.5c0.4-0.1,0.7-0.1,1.1-0.1c0.9,0,1.7,0.2,2.3,0.5c0.6,0.3,1.1,0.7,1.5,1.3c0.4,0.5,0.7,1.2,0.8,1.9
			c0.2,0.7,0.2,1.5,0.2,2.3V556.9z"/>
		<path d="M598.8,549.7c0,1.2-0.1,2.3-0.4,3.3c-0.3,1-0.7,1.8-1.2,2.5c-0.5,0.7-1.2,1.2-1.9,1.6c-0.8,0.4-1.6,0.6-2.6,0.6
			c-0.4,0-0.8,0-1.2-0.1c-0.4-0.1-0.7-0.2-1-0.4c-0.3-0.2-0.7-0.4-1-0.7c-0.3-0.3-0.7-0.6-1.1-1v7c0,0.1,0,0.2-0.1,0.2
			c0,0.1-0.1,0.1-0.2,0.2c-0.1,0-0.2,0.1-0.4,0.1c-0.2,0-0.4,0-0.6,0c-0.2,0-0.5,0-0.6,0c-0.2,0-0.3-0.1-0.4-0.1
			c-0.1,0-0.2-0.1-0.2-0.2c0-0.1-0.1-0.1-0.1-0.2v-19.6c0-0.1,0-0.2,0-0.2c0-0.1,0.1-0.1,0.2-0.1c0.1,0,0.2-0.1,0.4-0.1
			c0.1,0,0.3,0,0.5,0c0.2,0,0.4,0,0.5,0s0.3,0,0.4,0.1c0.1,0,0.2,0.1,0.2,0.1c0,0.1,0.1,0.1,0.1,0.2v1.9c0.4-0.4,0.8-0.8,1.2-1.1
			c0.4-0.3,0.8-0.6,1.2-0.8c0.4-0.2,0.8-0.4,1.2-0.5s0.9-0.2,1.3-0.2c1,0,1.9,0.2,2.6,0.6c0.7,0.4,1.3,0.9,1.8,1.6s0.8,1.5,1,2.4
			C598.6,547.7,598.8,548.7,598.8,549.7z M596.1,550c0-0.7-0.1-1.4-0.2-2.1c-0.1-0.7-0.3-1.3-0.6-1.8c-0.3-0.5-0.6-0.9-1.1-1.2
			c-0.5-0.3-1-0.5-1.7-0.5c-0.3,0-0.7,0-1,0.1c-0.3,0.1-0.7,0.3-1,0.5c-0.3,0.2-0.7,0.5-1.1,0.8c-0.4,0.3-0.8,0.8-1.2,1.3v5.6
			c0.7,0.9,1.4,1.5,2,2c0.6,0.5,1.3,0.7,2,0.7c0.6,0,1.2-0.2,1.7-0.5c0.5-0.3,0.8-0.7,1.1-1.2c0.3-0.5,0.5-1.1,0.6-1.8
			C596,551.3,596.1,550.6,596.1,550z"/>
		<path d="M614.6,549.3c0,0.4-0.1,0.7-0.3,0.9s-0.4,0.3-0.7,0.3h-9.3c0,0.8,0.1,1.5,0.2,2.1s0.4,1.2,0.8,1.6c0.4,0.4,0.8,0.8,1.4,1
			c0.6,0.2,1.3,0.4,2.2,0.4c0.7,0,1.3-0.1,1.8-0.2s1-0.2,1.4-0.4c0.4-0.1,0.7-0.3,0.9-0.4s0.4-0.2,0.6-0.2c0.1,0,0.1,0,0.2,0.1
			c0.1,0,0.1,0.1,0.1,0.2c0,0.1,0.1,0.2,0.1,0.3c0,0.1,0,0.3,0,0.5c0,0.1,0,0.3,0,0.4c0,0.1,0,0.2,0,0.3s0,0.1-0.1,0.2
			c0,0.1-0.1,0.1-0.1,0.2c-0.1,0.1-0.2,0.2-0.5,0.3c-0.3,0.1-0.6,0.3-1.1,0.4c-0.4,0.1-1,0.2-1.6,0.3c-0.6,0.1-1.2,0.1-1.9,0.1
			c-1.2,0-2.2-0.2-3-0.5c-0.9-0.3-1.6-0.8-2.2-1.4c-0.6-0.6-1-1.4-1.3-2.4c-0.3-1-0.5-2.1-0.5-3.3c0-1.2,0.2-2.3,0.5-3.3
			c0.3-1,0.8-1.8,1.4-2.5c0.6-0.7,1.3-1.2,2.1-1.5c0.8-0.4,1.8-0.5,2.8-0.5c1.1,0,2,0.2,2.8,0.5c0.8,0.4,1.4,0.8,1.9,1.4
			c0.5,0.6,0.9,1.3,1.1,2.1c0.2,0.8,0.4,1.7,0.4,2.6V549.3z M612,548.5c0-1.4-0.3-2.4-0.9-3.2c-0.6-0.8-1.6-1.2-2.8-1.2
			c-0.6,0-1.2,0.1-1.7,0.4c-0.5,0.2-0.9,0.6-1.2,1c-0.3,0.4-0.6,0.9-0.8,1.4c-0.2,0.5-0.3,1.1-0.3,1.6H612z"/>
		<path d="M626.8,543.8c0,0.2,0,0.4,0,0.6c0,0.2,0,0.3-0.1,0.4c0,0.1-0.1,0.2-0.1,0.2s-0.1,0.1-0.2,0.1c-0.1,0-0.2,0-0.3-0.1
			c-0.1,0-0.3-0.1-0.4-0.1c-0.2,0-0.3-0.1-0.5-0.1c-0.2,0-0.4-0.1-0.6-0.1c-0.3,0-0.5,0.1-0.8,0.2c-0.2,0.1-0.5,0.3-0.8,0.5
			c-0.3,0.2-0.6,0.6-0.9,1c-0.3,0.4-0.6,0.9-1,1.5v9.2c0,0.1,0,0.2-0.1,0.2c0,0.1-0.1,0.1-0.2,0.1s-0.2,0.1-0.4,0.1
			c-0.2,0-0.4,0-0.6,0c-0.2,0-0.5,0-0.6,0c-0.2,0-0.3-0.1-0.4-0.1c-0.1,0-0.2-0.1-0.2-0.1c0-0.1-0.1-0.1-0.1-0.2v-14.1
			c0-0.1,0-0.2,0-0.2c0-0.1,0.1-0.1,0.2-0.2s0.2-0.1,0.4-0.1c0.1,0,0.3,0,0.6,0c0.2,0,0.4,0,0.6,0c0.2,0,0.3,0,0.4,0.1
			c0.1,0,0.1,0.1,0.2,0.2c0,0.1,0.1,0.1,0.1,0.2v2c0.4-0.6,0.7-1,1.1-1.4c0.3-0.4,0.7-0.6,1-0.8c0.3-0.2,0.6-0.3,0.9-0.4
			s0.6-0.1,0.9-0.1c0.1,0,0.3,0,0.5,0s0.4,0,0.5,0.1c0.2,0,0.4,0.1,0.5,0.1c0.2,0.1,0.3,0.1,0.3,0.2c0.1,0.1,0.1,0.1,0.1,0.1
			c0,0,0,0.1,0.1,0.2c0,0.1,0,0.2,0,0.3C626.8,543.4,626.8,543.6,626.8,543.8z"/>
		<path d="M639.6,557c0,0.1,0,0.2-0.1,0.3c-0.1,0.1-0.2,0.1-0.3,0.1c-0.1,0-0.4,0-0.6,0c-0.3,0-0.5,0-0.6,0c-0.2,0-0.3-0.1-0.4-0.1
			c-0.1-0.1-0.1-0.2-0.1-0.3v-1.4c-0.6,0.7-1.3,1.2-2.1,1.5c-0.8,0.4-1.6,0.5-2.4,0.5c-0.7,0-1.4-0.1-2-0.3
			c-0.6-0.2-1.1-0.5-1.5-0.8c-0.4-0.4-0.8-0.8-1-1.3s-0.4-1.1-0.4-1.8c0-0.8,0.2-1.5,0.5-2.1c0.3-0.6,0.8-1.1,1.4-1.5
			c0.6-0.4,1.3-0.7,2.2-0.9c0.9-0.2,1.9-0.3,3-0.3h1.9v-1.1c0-0.5-0.1-1-0.2-1.4c-0.1-0.4-0.3-0.8-0.6-1c-0.3-0.3-0.6-0.5-1-0.6
			s-0.9-0.2-1.5-0.2c-0.6,0-1.2,0.1-1.7,0.2c-0.5,0.2-0.9,0.3-1.3,0.5c-0.4,0.2-0.7,0.3-1,0.5c-0.3,0.2-0.4,0.2-0.6,0.2
			c-0.1,0-0.2,0-0.2-0.1c-0.1,0-0.1-0.1-0.2-0.2c0-0.1-0.1-0.2-0.1-0.3c0-0.1,0-0.3,0-0.4c0-0.3,0-0.5,0.1-0.6
			c0-0.2,0.1-0.3,0.3-0.4c0.1-0.1,0.4-0.3,0.7-0.5c0.3-0.2,0.7-0.3,1.2-0.5c0.4-0.2,0.9-0.3,1.5-0.4c0.5-0.1,1.1-0.1,1.6-0.1
			c1,0,1.9,0.1,2.6,0.3c0.7,0.2,1.3,0.6,1.7,1c0.4,0.4,0.8,1,1,1.6c0.2,0.7,0.3,1.4,0.3,2.3V557z M637.1,550.5h-2.2
			c-0.7,0-1.3,0.1-1.8,0.2c-0.5,0.1-1,0.3-1.3,0.5s-0.6,0.5-0.8,0.8c-0.2,0.3-0.2,0.7-0.2,1.1c0,0.7,0.2,1.3,0.7,1.7
			c0.5,0.4,1.1,0.6,1.9,0.6c0.7,0,1.3-0.2,1.9-0.5s1.2-0.9,1.8-1.6V550.5z"/>
		<path d="M651.4,555.9c0,0.3,0,0.5-0.1,0.7c0,0.2-0.1,0.3-0.2,0.4c-0.1,0.1-0.2,0.2-0.4,0.2c-0.2,0.1-0.4,0.1-0.6,0.2
			c-0.2,0-0.4,0.1-0.7,0.1c-0.2,0-0.5,0-0.7,0c-0.7,0-1.4-0.1-1.9-0.3c-0.5-0.2-0.9-0.5-1.3-0.9c-0.3-0.4-0.6-0.9-0.7-1.5
			c-0.2-0.6-0.2-1.3-0.2-2.1v-8.2h-2c-0.2,0-0.3-0.1-0.4-0.2c-0.1-0.2-0.1-0.4-0.1-0.8c0-0.2,0-0.4,0-0.5c0-0.1,0.1-0.2,0.1-0.3
			c0-0.1,0.1-0.2,0.2-0.2c0.1,0,0.1-0.1,0.2-0.1h2v-3.3c0-0.1,0-0.1,0.1-0.2c0-0.1,0.1-0.1,0.2-0.2c0.1,0,0.2-0.1,0.4-0.1
			c0.2,0,0.4,0,0.6,0c0.3,0,0.5,0,0.6,0c0.2,0,0.3,0.1,0.4,0.1s0.2,0.1,0.2,0.2c0,0.1,0.1,0.1,0.1,0.2v3.3h3.6c0.1,0,0.2,0,0.2,0.1
			c0.1,0,0.1,0.1,0.2,0.2c0,0.1,0.1,0.2,0.1,0.3c0,0.1,0,0.3,0,0.5c0,0.4,0,0.6-0.1,0.8c-0.1,0.2-0.2,0.2-0.4,0.2h-3.6v7.8
			c0,1,0.1,1.7,0.4,2.2c0.3,0.5,0.8,0.7,1.5,0.7c0.2,0,0.5,0,0.6-0.1s0.4-0.1,0.5-0.1c0.1-0.1,0.3-0.1,0.4-0.1
			c0.1,0,0.2-0.1,0.3-0.1c0.1,0,0.1,0,0.1,0c0,0,0.1,0.1,0.1,0.1c0,0.1,0,0.2,0.1,0.3C651.4,555.6,651.4,555.7,651.4,555.9z"/>
		<path d="M666.8,556.9c0,0.1,0,0.2-0.1,0.2c0,0.1-0.1,0.1-0.2,0.1s-0.2,0.1-0.4,0.1c-0.2,0-0.3,0-0.6,0c-0.2,0-0.4,0-0.6,0
			c-0.2,0-0.3-0.1-0.4-0.1c-0.1,0-0.1-0.1-0.2-0.1c0-0.1,0-0.1,0-0.2v-1.9c-0.8,0.9-1.6,1.5-2.4,1.9s-1.6,0.6-2.4,0.6
			c-0.9,0-1.7-0.2-2.4-0.5s-1.2-0.7-1.6-1.3c-0.4-0.5-0.7-1.2-0.9-1.9c-0.2-0.7-0.3-1.6-0.3-2.6v-8.5c0-0.1,0-0.2,0.1-0.2
			c0-0.1,0.1-0.1,0.2-0.2c0.1,0,0.2-0.1,0.4-0.1c0.2,0,0.4,0,0.6,0s0.5,0,0.6,0c0.2,0,0.3,0,0.4,0.1c0.1,0,0.2,0.1,0.2,0.2
			c0,0.1,0.1,0.1,0.1,0.2v8.2c0,0.8,0.1,1.5,0.2,2c0.1,0.5,0.3,0.9,0.5,1.3c0.2,0.3,0.6,0.6,0.9,0.8c0.4,0.2,0.8,0.3,1.3,0.3
			c0.6,0,1.3-0.2,1.9-0.7c0.6-0.5,1.3-1.1,2-2v-9.8c0-0.1,0-0.2,0.1-0.2c0-0.1,0.1-0.1,0.2-0.2c0.1,0,0.2-0.1,0.4-0.1
			c0.2,0,0.4,0,0.6,0c0.2,0,0.5,0,0.6,0c0.2,0,0.3,0,0.4,0.1s0.2,0.1,0.2,0.2c0,0.1,0.1,0.1,0.1,0.2V556.9z"/>
		<path d="M679.8,543.8c0,0.2,0,0.4,0,0.6c0,0.2,0,0.3-0.1,0.4c0,0.1-0.1,0.2-0.1,0.2s-0.1,0.1-0.2,0.1c-0.1,0-0.2,0-0.3-0.1
			c-0.1,0-0.3-0.1-0.4-0.1c-0.2,0-0.3-0.1-0.5-0.1c-0.2,0-0.4-0.1-0.6-0.1c-0.3,0-0.5,0.1-0.8,0.2c-0.2,0.1-0.5,0.3-0.8,0.5
			c-0.3,0.2-0.6,0.6-0.9,1c-0.3,0.4-0.6,0.9-1,1.5v9.2c0,0.1,0,0.2-0.1,0.2c0,0.1-0.1,0.1-0.2,0.1s-0.2,0.1-0.4,0.1
			c-0.2,0-0.4,0-0.6,0c-0.2,0-0.5,0-0.6,0c-0.2,0-0.3-0.1-0.4-0.1c-0.1,0-0.2-0.1-0.2-0.1c0-0.1-0.1-0.1-0.1-0.2v-14.1
			c0-0.1,0-0.2,0-0.2c0-0.1,0.1-0.1,0.2-0.2s0.2-0.1,0.4-0.1c0.1,0,0.3,0,0.6,0c0.2,0,0.4,0,0.6,0c0.2,0,0.3,0,0.4,0.1
			c0.1,0,0.1,0.1,0.2,0.2c0,0.1,0.1,0.1,0.1,0.2v2c0.4-0.6,0.7-1,1.1-1.4c0.3-0.4,0.7-0.6,1-0.8c0.3-0.2,0.6-0.3,0.9-0.4
			s0.6-0.1,0.9-0.1c0.1,0,0.3,0,0.5,0s0.4,0,0.5,0.1c0.2,0,0.4,0.1,0.5,0.1c0.2,0.1,0.3,0.1,0.3,0.2c0.1,0.1,0.1,0.1,0.1,0.1
			c0,0,0,0.1,0.1,0.2c0,0.1,0,0.2,0,0.3C679.8,543.4,679.8,543.6,679.8,543.8z"/>
		<path d="M694.3,549.3c0,0.4-0.1,0.7-0.3,0.9s-0.4,0.3-0.7,0.3h-9.3c0,0.8,0.1,1.5,0.2,2.1s0.4,1.2,0.8,1.6c0.4,0.4,0.8,0.8,1.4,1
			c0.6,0.2,1.3,0.4,2.2,0.4c0.7,0,1.3-0.1,1.8-0.2s1-0.2,1.4-0.4c0.4-0.1,0.7-0.3,0.9-0.4s0.4-0.2,0.6-0.2c0.1,0,0.1,0,0.2,0.1
			c0.1,0,0.1,0.1,0.1,0.2c0,0.1,0.1,0.2,0.1,0.3c0,0.1,0,0.3,0,0.5c0,0.1,0,0.3,0,0.4c0,0.1,0,0.2,0,0.3s0,0.1-0.1,0.2
			c0,0.1-0.1,0.1-0.1,0.2c-0.1,0.1-0.2,0.2-0.5,0.3c-0.3,0.1-0.6,0.3-1.1,0.4c-0.4,0.1-1,0.2-1.6,0.3c-0.6,0.1-1.2,0.1-1.9,0.1
			c-1.2,0-2.2-0.2-3-0.5c-0.9-0.3-1.6-0.8-2.2-1.4c-0.6-0.6-1-1.4-1.3-2.4c-0.3-1-0.5-2.1-0.5-3.3c0-1.2,0.2-2.3,0.5-3.3
			c0.3-1,0.8-1.8,1.4-2.5c0.6-0.7,1.3-1.2,2.1-1.5c0.8-0.4,1.8-0.5,2.8-0.5c1.1,0,2,0.2,2.8,0.5c0.8,0.4,1.4,0.8,1.9,1.4
			c0.5,0.6,0.9,1.3,1.1,2.1c0.2,0.8,0.4,1.7,0.4,2.6V549.3z M691.8,548.5c0-1.4-0.3-2.4-0.9-3.2c-0.6-0.8-1.6-1.2-2.8-1.2
			c-0.6,0-1.2,0.1-1.7,0.4c-0.5,0.2-0.9,0.6-1.2,1c-0.3,0.4-0.6,0.9-0.8,1.4c-0.2,0.5-0.3,1.1-0.3,1.6H691.8z"/>
	</g>
	<g class="st2">
		<path d="M15.2,180.9c0,0.1,0,0.2,0,0.2s-0.1,0.1-0.2,0.2c-0.1,0-0.2,0.1-0.4,0.1c-0.2,0-0.4,0-0.8,0c-0.3,0-0.5,0-0.7,0
			c-0.2,0-0.3-0.1-0.4-0.1c-0.1,0-0.2-0.1-0.2-0.2c-0.1-0.1-0.1-0.2-0.1-0.3l-1.9-4.8c-0.2-0.5-0.4-1-0.7-1.5s-0.5-0.8-0.8-1.2
			c-0.3-0.3-0.7-0.6-1.1-0.8c-0.4-0.2-1-0.3-1.6-0.3H4.4v8.6c0,0.1,0,0.2-0.1,0.2s-0.1,0.1-0.2,0.1c-0.1,0-0.2,0.1-0.4,0.1
			c-0.2,0-0.4,0-0.6,0c-0.3,0-0.5,0-0.6,0c-0.2,0-0.3-0.1-0.4-0.1c-0.1,0-0.2-0.1-0.2-0.1c0-0.1-0.1-0.1-0.1-0.2v-18.7
			c0-0.4,0.1-0.7,0.3-0.9c0.2-0.2,0.4-0.2,0.7-0.2H7c0.5,0,0.9,0,1.3,0c0.3,0,0.6,0.1,0.9,0.1c0.8,0.1,1.5,0.3,2.1,0.6
			c0.6,0.3,1.1,0.7,1.5,1.1c0.4,0.4,0.7,1,0.9,1.5s0.3,1.2,0.3,1.9c0,0.7-0.1,1.3-0.3,1.8c-0.2,0.5-0.4,1-0.8,1.4
			c-0.3,0.4-0.8,0.8-1.2,1.1c-0.5,0.3-1,0.6-1.6,0.8c0.3,0.1,0.6,0.3,0.9,0.6c0.3,0.2,0.5,0.5,0.8,0.8s0.5,0.7,0.7,1.1
			c0.2,0.4,0.4,0.9,0.6,1.4l1.8,4.5c0.1,0.4,0.2,0.6,0.3,0.8C15.2,180.7,15.2,180.8,15.2,180.9z M11.2,166.7c0-0.8-0.2-1.5-0.5-2
			c-0.4-0.5-0.9-0.9-1.8-1.2c-0.3-0.1-0.6-0.1-0.9-0.2s-0.8,0-1.3,0H4.4v6.8H7c0.7,0,1.3-0.1,1.8-0.3s0.9-0.4,1.3-0.7
			c0.3-0.3,0.6-0.7,0.8-1.1C11.1,167.6,11.2,167.1,11.2,166.7z"/>
		<path d="M30.2,173.2c0,0.4-0.1,0.7-0.3,0.9s-0.4,0.3-0.7,0.3H20c0,0.8,0.1,1.5,0.2,2.1s0.4,1.2,0.8,1.6c0.4,0.4,0.8,0.8,1.4,1
			c0.6,0.2,1.3,0.4,2.2,0.4c0.7,0,1.3-0.1,1.8-0.2s1-0.2,1.4-0.4c0.4-0.1,0.7-0.3,0.9-0.4s0.4-0.2,0.6-0.2c0.1,0,0.1,0,0.2,0.1
			c0.1,0,0.1,0.1,0.1,0.2c0,0.1,0.1,0.2,0.1,0.3c0,0.1,0,0.3,0,0.5c0,0.1,0,0.3,0,0.4c0,0.1,0,0.2,0,0.3s0,0.1-0.1,0.2
			c0,0.1-0.1,0.1-0.1,0.2c-0.1,0.1-0.2,0.2-0.5,0.3c-0.3,0.1-0.6,0.3-1.1,0.4c-0.4,0.1-1,0.2-1.6,0.3c-0.6,0.1-1.2,0.1-1.9,0.1
			c-1.2,0-2.2-0.2-3-0.5c-0.9-0.3-1.6-0.8-2.2-1.4c-0.6-0.6-1-1.4-1.3-2.4c-0.3-1-0.5-2.1-0.5-3.3c0-1.2,0.2-2.3,0.5-3.3
			c0.3-1,0.8-1.8,1.4-2.5c0.6-0.7,1.3-1.2,2.1-1.5c0.8-0.4,1.8-0.5,2.8-0.5c1.1,0,2,0.2,2.8,0.5c0.8,0.4,1.4,0.8,1.9,1.4
			c0.5,0.6,0.9,1.3,1.1,2.1c0.2,0.8,0.4,1.7,0.4,2.6V173.2z M27.7,172.5c0-1.4-0.3-2.4-0.9-3.2c-0.6-0.8-1.6-1.2-2.8-1.2
			c-0.6,0-1.2,0.1-1.7,0.4c-0.5,0.2-0.9,0.6-1.2,1c-0.3,0.4-0.6,0.9-0.8,1.4c-0.2,0.5-0.3,1.1-0.3,1.6H27.7z"/>
		<path d="M43,177c0,0.7-0.1,1.4-0.4,1.9s-0.6,1-1.1,1.4c-0.5,0.4-1.1,0.7-1.8,0.9c-0.7,0.2-1.4,0.3-2.2,0.3c-0.5,0-1,0-1.4-0.1
			s-0.9-0.2-1.2-0.3s-0.7-0.2-0.9-0.4c-0.2-0.1-0.4-0.2-0.5-0.4c-0.1-0.1-0.2-0.2-0.2-0.4c-0.1-0.2-0.1-0.4-0.1-0.8
			c0-0.2,0-0.4,0-0.5c0-0.1,0-0.2,0.1-0.3c0-0.1,0.1-0.1,0.1-0.2c0.1,0,0.1-0.1,0.2-0.1c0.1,0,0.3,0.1,0.5,0.2
			c0.2,0.1,0.5,0.3,0.8,0.5c0.3,0.2,0.7,0.3,1.2,0.5c0.4,0.1,1,0.2,1.5,0.2c0.4,0,0.8,0,1.2-0.1c0.4-0.1,0.7-0.2,0.9-0.4
			c0.3-0.2,0.5-0.4,0.6-0.7s0.2-0.6,0.2-1c0-0.4-0.1-0.7-0.3-1c-0.2-0.3-0.5-0.5-0.8-0.7c-0.3-0.2-0.7-0.4-1.1-0.6
			c-0.4-0.2-0.8-0.3-1.3-0.5c-0.4-0.2-0.9-0.4-1.3-0.6c-0.4-0.2-0.8-0.5-1.1-0.8c-0.3-0.3-0.6-0.7-0.8-1.2c-0.2-0.4-0.3-1-0.3-1.6
			c0-0.6,0.1-1.1,0.3-1.6c0.2-0.5,0.5-0.9,1-1.3c0.4-0.4,1-0.7,1.6-0.9c0.6-0.2,1.4-0.3,2.2-0.3c0.4,0,0.8,0,1.1,0.1s0.7,0.1,1,0.2
			c0.3,0.1,0.6,0.2,0.8,0.3c0.2,0.1,0.4,0.2,0.5,0.3c0.1,0.1,0.2,0.2,0.2,0.2c0,0.1,0.1,0.1,0.1,0.2s0,0.2,0,0.3c0,0.1,0,0.3,0,0.4
			c0,0.2,0,0.3,0,0.5c0,0.1,0,0.2-0.1,0.3c0,0.1-0.1,0.1-0.1,0.2c-0.1,0-0.1,0.1-0.2,0.1c-0.1,0-0.2-0.1-0.4-0.2
			c-0.2-0.1-0.4-0.2-0.7-0.4c-0.3-0.1-0.6-0.3-1-0.4c-0.4-0.1-0.8-0.2-1.3-0.2c-0.4,0-0.8,0-1.2,0.1c-0.3,0.1-0.6,0.2-0.8,0.4
			c-0.2,0.2-0.4,0.4-0.5,0.6s-0.2,0.5-0.2,0.8c0,0.4,0.1,0.7,0.3,1c0.2,0.3,0.5,0.5,0.8,0.7c0.3,0.2,0.7,0.4,1.1,0.6
			c0.4,0.2,0.9,0.3,1.3,0.5c0.4,0.2,0.9,0.4,1.3,0.6c0.4,0.2,0.8,0.5,1.1,0.8c0.3,0.3,0.6,0.7,0.8,1.1S43,176.4,43,177z"/>
		<path d="M49.6,162.1c0,0.6-0.1,1-0.3,1.2c-0.2,0.2-0.7,0.3-1.3,0.3c-0.6,0-1-0.1-1.2-0.3c-0.2-0.2-0.3-0.6-0.3-1.2
			c0-0.6,0.1-1,0.3-1.2c0.2-0.2,0.7-0.3,1.3-0.3c0.6,0,1,0.1,1.2,0.3C49.5,161.1,49.6,161.5,49.6,162.1z M49.3,180.9
			c0,0.1,0,0.2-0.1,0.2c0,0.1-0.1,0.1-0.2,0.1s-0.2,0.1-0.4,0.1c-0.2,0-0.4,0-0.6,0c-0.2,0-0.5,0-0.6,0c-0.2,0-0.3-0.1-0.4-0.1
			c-0.1,0-0.2-0.1-0.2-0.1c0-0.1-0.1-0.1-0.1-0.2v-14.1c0-0.1,0-0.1,0.1-0.2c0-0.1,0.1-0.1,0.2-0.2c0.1,0,0.2-0.1,0.4-0.1
			c0.2,0,0.4,0,0.6,0c0.3,0,0.5,0,0.6,0c0.2,0,0.3,0.1,0.4,0.1c0.1,0,0.2,0.1,0.2,0.2c0,0.1,0.1,0.1,0.1,0.2V180.9z"/>
		<path d="M62.9,177c0,0.7-0.1,1.4-0.4,1.9s-0.6,1-1.1,1.4c-0.5,0.4-1.1,0.7-1.8,0.9c-0.7,0.2-1.4,0.3-2.2,0.3c-0.5,0-1,0-1.4-0.1
			s-0.9-0.2-1.2-0.3s-0.7-0.2-0.9-0.4c-0.2-0.1-0.4-0.2-0.5-0.4c-0.1-0.1-0.2-0.2-0.2-0.4c-0.1-0.2-0.1-0.4-0.1-0.8
			c0-0.2,0-0.4,0-0.5c0-0.1,0-0.2,0.1-0.3c0-0.1,0.1-0.1,0.1-0.2c0.1,0,0.1-0.1,0.2-0.1c0.1,0,0.3,0.1,0.5,0.2
			c0.2,0.1,0.5,0.3,0.8,0.5c0.3,0.2,0.7,0.3,1.2,0.5c0.4,0.1,1,0.2,1.5,0.2c0.4,0,0.8,0,1.2-0.1c0.4-0.1,0.7-0.2,0.9-0.4
			c0.3-0.2,0.5-0.4,0.6-0.7s0.2-0.6,0.2-1c0-0.4-0.1-0.7-0.3-1c-0.2-0.3-0.5-0.5-0.8-0.7c-0.3-0.2-0.7-0.4-1.1-0.6
			c-0.4-0.2-0.8-0.3-1.3-0.5c-0.4-0.2-0.9-0.4-1.3-0.6c-0.4-0.2-0.8-0.5-1.1-0.8c-0.3-0.3-0.6-0.7-0.8-1.2c-0.2-0.4-0.3-1-0.3-1.6
			c0-0.6,0.1-1.1,0.3-1.6c0.2-0.5,0.5-0.9,1-1.3c0.4-0.4,1-0.7,1.6-0.9c0.6-0.2,1.4-0.3,2.2-0.3c0.4,0,0.8,0,1.1,0.1s0.7,0.1,1,0.2
			c0.3,0.1,0.6,0.2,0.8,0.3c0.2,0.1,0.4,0.2,0.5,0.3c0.1,0.1,0.2,0.2,0.2,0.2c0,0.1,0.1,0.1,0.1,0.2s0,0.2,0,0.3c0,0.1,0,0.3,0,0.4
			c0,0.2,0,0.3,0,0.5c0,0.1,0,0.2-0.1,0.3c0,0.1-0.1,0.1-0.1,0.2c-0.1,0-0.1,0.1-0.2,0.1c-0.1,0-0.2-0.1-0.4-0.2
			c-0.2-0.1-0.4-0.2-0.7-0.4c-0.3-0.1-0.6-0.3-1-0.4c-0.4-0.1-0.8-0.2-1.3-0.2c-0.4,0-0.8,0-1.2,0.1c-0.3,0.1-0.6,0.2-0.8,0.4
			c-0.2,0.2-0.4,0.4-0.5,0.6s-0.2,0.5-0.2,0.8c0,0.4,0.1,0.7,0.3,1c0.2,0.3,0.5,0.5,0.8,0.7c0.3,0.2,0.7,0.4,1.1,0.6
			c0.4,0.2,0.9,0.3,1.3,0.5c0.4,0.2,0.9,0.4,1.3,0.6c0.4,0.2,0.8,0.5,1.1,0.8c0.3,0.3,0.6,0.7,0.8,1.1S62.9,176.4,62.9,177z"/>
		<path d="M73.5,179.8c0,0.3,0,0.5-0.1,0.7c0,0.2-0.1,0.3-0.2,0.4c-0.1,0.1-0.2,0.2-0.4,0.2c-0.2,0.1-0.4,0.1-0.6,0.2
			c-0.2,0-0.4,0.1-0.7,0.1c-0.2,0-0.5,0-0.7,0c-0.7,0-1.4-0.1-1.9-0.3c-0.5-0.2-0.9-0.5-1.3-0.9c-0.3-0.4-0.6-0.9-0.7-1.5
			c-0.2-0.6-0.2-1.3-0.2-2.1v-8.2h-2c-0.2,0-0.3-0.1-0.4-0.2c-0.1-0.2-0.1-0.4-0.1-0.8c0-0.2,0-0.4,0-0.5c0-0.1,0.1-0.2,0.1-0.3
			c0-0.1,0.1-0.2,0.2-0.2c0.1,0,0.1-0.1,0.2-0.1h2v-3.3c0-0.1,0-0.1,0.1-0.2c0-0.1,0.1-0.1,0.2-0.2c0.1,0,0.2-0.1,0.4-0.1
			c0.2,0,0.4,0,0.6,0c0.3,0,0.5,0,0.6,0c0.2,0,0.3,0.1,0.4,0.1s0.2,0.1,0.2,0.2c0,0.1,0.1,0.1,0.1,0.2v3.3H73c0.1,0,0.2,0,0.2,0.1
			c0.1,0,0.1,0.1,0.2,0.2c0,0.1,0.1,0.2,0.1,0.3c0,0.1,0,0.3,0,0.5c0,0.4,0,0.6-0.1,0.8c-0.1,0.2-0.2,0.2-0.4,0.2h-3.6v7.8
			c0,1,0.1,1.7,0.4,2.2c0.3,0.5,0.8,0.7,1.5,0.7c0.2,0,0.5,0,0.6-0.1s0.4-0.1,0.5-0.1c0.1-0.1,0.3-0.1,0.4-0.1
			c0.1,0,0.2-0.1,0.3-0.1c0.1,0,0.1,0,0.1,0c0,0,0.1,0.1,0.1,0.1c0,0.1,0,0.2,0.1,0.3C73.5,179.5,73.5,179.7,73.5,179.8z"/>
		<path d="M87.1,180.9c0,0.1,0,0.2-0.1,0.3c-0.1,0.1-0.2,0.1-0.3,0.1c-0.1,0-0.4,0-0.6,0c-0.3,0-0.5,0-0.6,0c-0.2,0-0.3-0.1-0.4-0.1
			c-0.1-0.1-0.1-0.2-0.1-0.3v-1.4c-0.6,0.7-1.3,1.2-2.1,1.5c-0.8,0.4-1.6,0.5-2.4,0.5c-0.7,0-1.4-0.1-2-0.3
			c-0.6-0.2-1.1-0.5-1.5-0.8c-0.4-0.4-0.8-0.8-1-1.3s-0.4-1.1-0.4-1.8c0-0.8,0.2-1.5,0.5-2.1c0.3-0.6,0.8-1.1,1.4-1.5
			c0.6-0.4,1.3-0.7,2.2-0.9c0.9-0.2,1.9-0.3,3-0.3h1.9v-1.1c0-0.5-0.1-1-0.2-1.4c-0.1-0.4-0.3-0.8-0.6-1c-0.3-0.3-0.6-0.5-1-0.6
			s-0.9-0.2-1.5-0.2c-0.6,0-1.2,0.1-1.7,0.2c-0.5,0.2-0.9,0.3-1.3,0.5c-0.4,0.2-0.7,0.3-1,0.5c-0.3,0.2-0.4,0.2-0.6,0.2
			c-0.1,0-0.2,0-0.2-0.1c-0.1,0-0.1-0.1-0.2-0.2c0-0.1-0.1-0.2-0.1-0.3c0-0.1,0-0.3,0-0.4c0-0.3,0-0.5,0.1-0.6
			c0-0.2,0.1-0.3,0.3-0.4c0.1-0.1,0.4-0.3,0.7-0.5c0.3-0.2,0.7-0.3,1.2-0.5c0.4-0.2,0.9-0.3,1.5-0.4c0.5-0.1,1.1-0.1,1.6-0.1
			c1,0,1.9,0.1,2.6,0.3c0.7,0.2,1.3,0.6,1.7,1c0.4,0.4,0.8,1,1,1.6c0.2,0.7,0.3,1.4,0.3,2.3V180.9z M84.5,174.5h-2.2
			c-0.7,0-1.3,0.1-1.8,0.2c-0.5,0.1-1,0.3-1.3,0.5s-0.6,0.5-0.8,0.8c-0.2,0.3-0.2,0.7-0.2,1.1c0,0.7,0.2,1.3,0.7,1.7
			c0.5,0.4,1.1,0.6,1.9,0.6c0.7,0,1.3-0.2,1.9-0.5s1.2-0.9,1.8-1.6V174.5z"/>
		<path d="M104,180.9c0,0.1,0,0.2-0.1,0.2c0,0.1-0.1,0.1-0.2,0.1s-0.2,0.1-0.4,0.1c-0.2,0-0.4,0-0.6,0c-0.3,0-0.5,0-0.6,0
			c-0.2,0-0.3-0.1-0.4-0.1s-0.2-0.1-0.2-0.1c0-0.1-0.1-0.1-0.1-0.2v-8.2c0-0.8-0.1-1.4-0.2-1.9c-0.1-0.5-0.3-0.9-0.5-1.3
			c-0.2-0.4-0.5-0.6-0.9-0.8c-0.4-0.2-0.8-0.3-1.3-0.3c-0.6,0-1.3,0.2-1.9,0.7c-0.6,0.5-1.3,1.1-2,2v9.8c0,0.1,0,0.2-0.1,0.2
			c0,0.1-0.1,0.1-0.2,0.1s-0.2,0.1-0.4,0.1c-0.2,0-0.4,0-0.6,0c-0.2,0-0.5,0-0.6,0c-0.2,0-0.3-0.1-0.4-0.1c-0.1,0-0.2-0.1-0.2-0.1
			c0-0.1-0.1-0.1-0.1-0.2v-14.1c0-0.1,0-0.2,0-0.2c0-0.1,0.1-0.1,0.2-0.2s0.2-0.1,0.4-0.1c0.1,0,0.3,0,0.6,0c0.2,0,0.4,0,0.6,0
			c0.2,0,0.3,0,0.4,0.1c0.1,0,0.1,0.1,0.2,0.2c0,0.1,0.1,0.1,0.1,0.2v1.9c0.8-0.9,1.6-1.5,2.4-1.9c0.8-0.4,1.6-0.6,2.4-0.6
			c0.9,0,1.7,0.2,2.4,0.5c0.6,0.3,1.2,0.7,1.6,1.3c0.4,0.5,0.7,1.2,0.9,1.9c0.2,0.7,0.3,1.6,0.3,2.6V180.9z"/>
		<path d="M118.8,178.7c0,0.2,0,0.3,0,0.5c0,0.1,0,0.2-0.1,0.3c0,0.1-0.1,0.2-0.1,0.2c0,0.1-0.1,0.2-0.2,0.3
			c-0.1,0.1-0.4,0.3-0.7,0.5c-0.3,0.2-0.7,0.4-1.1,0.5c-0.4,0.2-0.8,0.3-1.3,0.4c-0.5,0.1-0.9,0.1-1.4,0.1c-1,0-1.9-0.2-2.7-0.5
			s-1.4-0.8-2-1.5c-0.5-0.6-0.9-1.4-1.2-2.4c-0.3-0.9-0.4-2-0.4-3.2c0-1.4,0.2-2.6,0.5-3.6c0.3-1,0.8-1.8,1.4-2.4
			c0.6-0.6,1.3-1.1,2.1-1.4c0.8-0.3,1.7-0.5,2.6-0.5c0.4,0,0.9,0,1.3,0.1c0.4,0.1,0.8,0.2,1.2,0.3c0.4,0.1,0.7,0.3,0.9,0.5
			c0.3,0.2,0.5,0.3,0.6,0.5s0.2,0.2,0.3,0.3c0,0.1,0.1,0.2,0.1,0.3c0,0.1,0.1,0.2,0.1,0.3c0,0.1,0,0.3,0,0.5c0,0.4,0,0.7-0.1,0.9
			c-0.1,0.2-0.2,0.2-0.3,0.2c-0.2,0-0.3-0.1-0.5-0.3s-0.5-0.4-0.8-0.6c-0.3-0.2-0.7-0.4-1.1-0.6c-0.4-0.2-1-0.3-1.6-0.3
			c-1.2,0-2.2,0.5-2.9,1.4c-0.7,1-1,2.3-1,4.1c0,0.9,0.1,1.7,0.3,2.4c0.2,0.7,0.4,1.3,0.8,1.7c0.3,0.5,0.7,0.8,1.2,1
			c0.5,0.2,1,0.3,1.7,0.3c0.6,0,1.1-0.1,1.6-0.3c0.4-0.2,0.8-0.4,1.2-0.6c0.3-0.2,0.6-0.4,0.8-0.6c0.2-0.2,0.4-0.3,0.5-0.3
			c0.1,0,0.1,0,0.2,0.1c0.1,0,0.1,0.1,0.1,0.2c0,0.1,0.1,0.2,0.1,0.4C118.8,178.3,118.8,178.5,118.8,178.7z"/>
		<path d="M134.2,173.2c0,0.4-0.1,0.7-0.3,0.9s-0.4,0.3-0.7,0.3h-9.3c0,0.8,0.1,1.5,0.2,2.1s0.4,1.2,0.8,1.6c0.4,0.4,0.8,0.8,1.4,1
			c0.6,0.2,1.3,0.4,2.2,0.4c0.7,0,1.3-0.1,1.8-0.2s1-0.2,1.4-0.4c0.4-0.1,0.7-0.3,0.9-0.4s0.4-0.2,0.6-0.2c0.1,0,0.1,0,0.2,0.1
			c0.1,0,0.1,0.1,0.1,0.2c0,0.1,0.1,0.2,0.1,0.3c0,0.1,0,0.3,0,0.5c0,0.1,0,0.3,0,0.4c0,0.1,0,0.2,0,0.3s0,0.1-0.1,0.2
			c0,0.1-0.1,0.1-0.1,0.2c-0.1,0.1-0.2,0.2-0.5,0.3c-0.3,0.1-0.6,0.3-1.1,0.4c-0.4,0.1-1,0.2-1.6,0.3c-0.6,0.1-1.2,0.1-1.9,0.1
			c-1.2,0-2.2-0.2-3-0.5c-0.9-0.3-1.6-0.8-2.2-1.4c-0.6-0.6-1-1.4-1.3-2.4c-0.3-1-0.5-2.1-0.5-3.3c0-1.2,0.2-2.3,0.5-3.3
			c0.3-1,0.8-1.8,1.4-2.5c0.6-0.7,1.3-1.2,2.1-1.5c0.8-0.4,1.8-0.5,2.8-0.5c1.1,0,2,0.2,2.8,0.5c0.8,0.4,1.4,0.8,1.9,1.4
			c0.5,0.6,0.9,1.3,1.1,2.1c0.2,0.8,0.4,1.7,0.4,2.6V173.2z M131.6,172.5c0-1.4-0.3-2.4-0.9-3.2c-0.6-0.8-1.6-1.2-2.8-1.2
			c-0.6,0-1.2,0.1-1.7,0.4c-0.5,0.2-0.9,0.6-1.2,1c-0.3,0.4-0.6,0.9-0.8,1.4c-0.2,0.5-0.3,1.1-0.3,1.6H131.6z"/>
		<path d="M162.7,180.1c0,0.2,0,0.4,0,0.5c0,0.1-0.1,0.3-0.1,0.4s-0.1,0.2-0.2,0.2c-0.1,0-0.1,0.1-0.2,0.1h-5.9
			c-0.3,0-0.5-0.1-0.6-0.2c-0.2-0.2-0.2-0.4-0.2-0.8v-0.6c0-0.1,0-0.3,0-0.4c0-0.1,0.1-0.2,0.1-0.3c0.1-0.1,0.1-0.2,0.2-0.3
			c0.1-0.1,0.3-0.3,0.7-0.6c0.4-0.3,0.8-0.6,1.3-1.1s0.9-1,1.2-1.6c0.3-0.6,0.5-1.3,0.7-2.1c0.1-0.8,0.2-1.7,0.2-2.6
			c0-0.7,0-1.3-0.1-1.9c-0.1-0.6-0.2-1.2-0.4-1.8c-0.2-0.6-0.5-1.1-0.8-1.5c-0.3-0.5-0.7-0.9-1.1-1.2c-0.5-0.3-1-0.6-1.6-0.8
			c-0.6-0.2-1.3-0.3-2.1-0.3c-0.8,0-1.5,0.1-2.1,0.3s-1.2,0.5-1.6,0.8c-0.5,0.3-0.9,0.8-1.2,1.2c-0.3,0.5-0.6,1-0.8,1.5
			c-0.2,0.6-0.4,1.1-0.5,1.7c-0.1,0.6-0.1,1.2-0.1,1.8c0,1.1,0.1,2,0.2,2.8s0.4,1.5,0.7,2.1c0.3,0.6,0.7,1.1,1.2,1.6
			c0.5,0.5,0.9,0.8,1.3,1.1c0.4,0.3,0.6,0.5,0.7,0.6c0.1,0.1,0.2,0.2,0.2,0.4c0.1,0.1,0.1,0.2,0.1,0.3c0,0.1,0,0.2,0,0.4v0.6
			c0,0.4-0.1,0.6-0.2,0.8c-0.2,0.2-0.4,0.2-0.6,0.2H145c-0.1,0-0.2,0-0.2-0.1c-0.1,0-0.1-0.1-0.2-0.2c0-0.1-0.1-0.2-0.1-0.4
			c0-0.1,0-0.3,0-0.5c0-0.4,0-0.7,0.1-0.9c0.1-0.2,0.2-0.3,0.4-0.3h3.9c-0.7-0.4-1.3-0.8-1.8-1.4c-0.5-0.5-1-1.2-1.4-1.9
			c-0.4-0.7-0.7-1.5-0.9-2.3c-0.2-0.8-0.3-1.8-0.3-2.8c0-1.4,0.2-2.8,0.6-4c0.4-1.2,1-2.3,1.8-3.1c0.8-0.9,1.7-1.6,2.9-2.1
			c1.2-0.5,2.5-0.7,4-0.7c1.5,0,2.7,0.2,3.8,0.7c1.1,0.5,2,1.1,2.8,2s1.3,1.9,1.7,3c0.4,1.2,0.6,2.5,0.6,3.9c0,1.1-0.1,2-0.3,2.9
			s-0.5,1.7-0.9,2.4c-0.4,0.7-0.8,1.4-1.4,1.9c-0.5,0.5-1.1,1-1.8,1.4h3.9c0.2,0,0.3,0.1,0.4,0.3
			C162.6,179.4,162.7,179.7,162.7,180.1z"/>
	</g>
</g>
</svg>
