<?xml version="1.0" encoding="utf-8"?>
<!-- Generator: Adobe Illustrator 27.8.0, SVG Export Plug-In . SVG Version: 6.00 Build 0)  -->
<svg version="1.1"
	 id="svg8" xmlns:svg="http://www.w3.org/2000/svg" xmlns:rdf="http://www.w3.org/1999/02/22-rdf-syntax-ns#" xmlns:sodipodi="http://sodipodi.sourceforge.net/DTD/sodipodi-0.dtd" xmlns:dc="http://purl.org/dc/elements/1.1/" xmlns:inkscape="http://www.inkscape.org/namespaces/inkscape" xmlns:cc="http://creativecommons.org/ns#" inkscape:export-xdpi="93" inkscape:export-ydpi="93" inkscape:version="0.92.4 (5da689c313, 2019-01-14)"
	 xmlns="http://www.w3.org/2000/svg" xmlns:xlink="http://www.w3.org/1999/xlink" x="0px" y="0px" viewBox="0 0 1698 1081"
	 style="enable-background:new 0 0 1698 1081;" xml:space="preserve">
<style type="text/css">
	.st0{fill:#FFFFFF;}
	.st1{fill:#1A1A1A;}
	.st2{opacity:0.99;fill:#808080;enable-background:new    ;}
	.st3{fill:#CCCCCC;}
	.st4{fill:#4D4D4D;}
	.st5{fill:#666666;}
	.st6{fill:#999999;}
	.st7{fill:#B3B3B3;}
	.st8{enable-background:new    ;}
</style>
<sodipodi:namedview  bordercolor="#666666" borderopacity="1.0" id="base" inkscape:current-layer="layer1" inkscape:cx="1367.4889" inkscape:cy="1840.2602" inkscape:document-units="mm" inkscape:pageopacity="0" inkscape:pageshadow="2" inkscape:window-height="1017" inkscape:window-maximized="1" inkscape:window-width="1920" inkscape:window-x="-8" inkscape:window-y="-8" inkscape:zoom="0.12374369" pagecolor="#323232" showgrid="false">
	</sodipodi:namedview>
<g id="layer1" transform="translate(0,403)" inkscape:groupmode="layer" inkscape:label="Ebene 1">
	<rect id="rect815" x="0" y="-402.7" width="1559.1" height="1080.5"/>
	<rect id="rect821" x="1411.4" y="-125.8" class="st0" width="124.5" height="526.7"/>
	<path id="rect825" class="st1" d="M1418.8,109.2l0,57.3c0,12.7,10.3,22.9,22.9,22.9l63.6,0c12.7,0,22.9-10.3,22.9-22.9l0-57.3
		c0-12.7-10.3-22.9-22.9-22.9l-63.6,0C1429,86.3,1418.8,96.5,1418.8,109.2z"/>
	<path id="rect872" class="st1" d="M1418.8,319.8l0,57.3c0,12.7,10.3,22.9,22.9,22.9l63.6,0c12.7,0,22.9-10.3,22.9-22.9l0-57.3
		c0-12.7-10.3-22.9-22.9-22.9l-63.6,0C1429.1,296.9,1418.8,307.2,1418.8,319.8z"/>
	<path id="rect874" class="st1" d="M1418.8,211.6l0,63.2c0,11,8.9,20,20,20l69.5,0c11,0,20-8.9,20-20l0-63.2c0-11-8.9-20-20-20
		l-69.5,0C1427.7,191.6,1418.8,200.5,1418.8,211.6z"/>
	<rect id="rect947" x="1474.2" y="132" class="st2" width="223.8" height="11.4"/>
	<rect id="rect949" x="1474.2" y="237.9" class="st2" width="223.8" height="11.4"/>
	<rect id="rect951" x="1474.2" y="342.6" class="st2" width="223.8" height="11.4"/>
	<path id="path31-1" inkscape:connector-curvature="0" class="st0" d="M634.1,564.3c6.3-0.1,7-0.2,8.1-1.1c0.7-0.5,1.6-1.5,2-2.3
		c0.7-1.3,0.7-2.2,0.8-17l0.1-15.7l13.4,0.1l13.4,0.1v19.5c0,21.5-0.1,23.5-2.1,29.2c-2.6,7.4-6.3,10.8-14,12.9
		c-2.1,0.5-4.4,0.7-12.3,0.6c-5.3,0-11.2-0.2-13-0.4l-3.3-0.3l-0.1-12.7l-0.1-12.7L634.1,564.3L634.1,564.3z M761.9,608
		c114.6,0,142.8,0.2,138,0.8l-0.7,0.1l0.7,0.4c0.6,0.3,0.5,0.4-0.5,0.5c-0.8,0.1-0.5,0.2,1.1,0.4l2.4,0.3l-2.4,0.1
		c-1.3,0.1-2.1,0.2-1.7,0.3c0.5,0.2,0.6,0.7,0.6,3.7c0,3.5,0,3.5,1,3.6c0.7,0.1,0.5,0.2-0.5,0.2c-0.9,0-1.6,0.2-1.6,0.5
		c0,0.3-45.4,0.4-135.5,0.4H627.2v-5.6V608L761.9,608z M658.7,487.9h13.5l0,12.7l0,12.7h-13.5h-13.5l0-12.7l0-12.7H658.7z
		 M686,534.6c1-7.1,2.7-13.5,5.2-19.1c0.9-2.1,1.8-3.8,1.9-3.9c0.1-0.1,0.8-1.2,1.5-2.5c1.4-2.5,4.6-7.1,5.4-7.6
		c0.3-0.2,0.5-0.5,0.5-0.7c0-0.6,3.4-4.1,6-6.2c2.8-2.3,5.1-3.6,10.1-5.7c5.8-2.5,9.3-3.1,16.3-2.8c5.1,0.2,6.3,0.4,9.5,1.5
		c2,0.7,4.5,1.6,5.4,2.1c1,0.5,1.9,0.9,2.2,0.9c0.2,0,1.7,0.9,3.3,2c6.5,4.3,15.3,15.9,18.7,24.5c5.3,13.5,6,27,2,39.5
		c-1.7,5.3-2.9,8.2-4.9,11.9c-2.3,4.3-2.5,4.5-8,10.8c-6.4,7.2-11,10.3-19.3,12.9c-4.2,1.3-12.6,1.8-17.1,1
		c-5.8-1-13.6-4.8-18.4-8.9c-2.5-2.1-5.8-5.5-5.8-5.8c0-0.1-0.8-1.2-1.9-2.4c-4.9-5.7-9.9-16.9-11.7-26.1
		C686.1,546.4,685.6,537.2,686,534.6L686,534.6z M711.9,547.8c1.3,5.9,3.9,10.9,7.9,15.3c4.1,4.5,10.5,6.1,16.1,4.2
		c6.1-2.2,12.2-10.4,14.2-19.3c1.2-5.1,1.1-12.5-0.2-17.4c-1.8-7-5-12.5-9.4-16.1c-2-1.7-3-2.2-5.1-2.6c-4.6-1-9.3-0.5-12.6,1.5
		c-2.9,1.7-6.6,6.4-8.7,11.2C710.9,531.6,710.1,540,711.9,547.8z M787.9,488.1c0.2-0.1,6.3-0.1,13.6-0.1l13.1,0.1l0,13.9
		c0,13.1,0.1,14,0.8,16.3c1.9,5.9,8.1,9.1,13.6,7.1c2.8-1.1,4.7-2.9,6-6l1.2-2.7l0.1-14.4l0.1-14.4h13.5h13.5l-0.1,16.3
		c-0.1,15.2-0.2,16.5-0.9,19.6c-1.5,6.3-3.9,11.8-7.1,16.1c-0.8,1.1-1.4,2.1-1.4,2.3c0,0.5-3.4,4.1-6.5,6.6c-2.6,2.2-6.2,4.4-8,4.9
		c-0.6,0.1-2.5,0.8-4.2,1.4c-2.9,1-3.6,1.1-9.7,1.1c-6.1,0-6.8-0.1-10.2-1.2c-5.4-1.7-7.2-2.6-10.7-5.3c-4.1-3-7.5-6.9-10.3-11.8
		c-4-6.8-5.7-11.9-6.5-19.8C787.3,513.1,787.4,488.4,787.9,488.1L787.9,488.1z M825.7,564.8h22.1v13.1v13.1h-22.1h-22.1v-13.1v-13.1
		H825.7z M863.5,468c0.2,0,0.4-0.7,0.4-1.6c0-1.6,0-1.6,1.7-1.9c0.9-0.1,38.4-0.3,83.3-0.3h81.6l-0.1,5.6l-0.1,5.6h-83
		c-45.6,0-83.3-0.1-83.6-0.3c-0.5-0.2-0.6-0.9-0.6-3.7C863.2,469.4,863.3,468,863.5,468L863.5,468z M900.9,530.7H929v12.9v12.9
		h-28.2h-28.2v-12.9v-12.9L900.9,530.7z M951.3,487.9h13.5v12.7v12.7h-13.5h-13.5v-12.7v-12.7L951.3,487.9z M951.3,526.6h13.5v32.8
		v32.8h-13.5h-13.5v-32.8v-32.8H951.3z M1005.3,487.9h28.4v12.7v12.7h-28.4H977v-12.7v-12.7H1005.3z M981.7,528.5
		c0.2-0.1,6.2-0.2,13.3-0.2l13,0l0.1,15c0.2,21.1-0.6,19.9,13.2,20.2l8.7,0.1v13.2V590l-3.2,0.5c-4.9,0.7-20.4,0.6-24.5-0.2
		c-7.2-1.3-11.9-3.9-15-8.2c-3.2-4.5-4.8-9-5.5-16.3C981.3,561.2,981.2,528.8,981.7,528.5L981.7,528.5z M1049.6,475.6
		c0.7-2.8,2-5.4,3.5-6.9c6.1-6.2,13.5-6.9,19.6-1.7c2.8,2.4,3.6,3.3,4.8,6.3c0.9,2.2,1,2.9,1,6.9c0,3.9-0.1,4.6-1.1,7
		c-2.1,5.1-7.2,9.1-12.3,9.5c-4.7,0.4-8.4-1.2-12.1-5.4C1049.7,487.5,1048.2,481,1049.6,475.6L1049.6,475.6z M1052.2,486.3
		c1.2,3.4,5.1,6.6,9,7.8c3.9,1.1,6.9,0.2,11.4-3.5c1.1-0.9,1.9-2.1,2.7-4.1c1.1-2.5,1.2-3.2,1.2-6.4c0-3.3-0.1-3.8-1.3-6.4
		c-1-2.3-1.7-3.2-3.5-4.6c-1.2-1-3-2.1-4-2.5c-6.2-2.4-13.6,1.5-16.1,8.4C1050.8,477.5,1051.1,483.1,1052.2,486.3L1052.2,486.3z
		 M1062.3,470.1c2.8,0,5.4,0.2,5.9,0.4c2.2,1,3.2,5.8,1.7,8c-0.4,0.6-1.3,1.3-2,1.6l-1.3,0.5l1.3,1.6c0.7,0.9,1.8,2.6,2.4,3.9
		c0.6,1.3,1.3,2.4,1.5,2.5c0.8,0.6,0.2,1-1.2,1l-1.6,0l-2.2-4c-2.3-4.2-2.9-4.7-5.5-4.7l-1.6,0l0,4.4l0,4.4l-1.1-0.1l-1.1-0.1
		l-0.1-9.7l-0.1-9.7L1062.3,470.1z M1062.9,478.4c2.7,0,3.4-0.1,4.2-0.9c2-1.8,0.9-4.7-2-5.1c-1.2-0.2-4.7-0.1-5.3,0.2
		c0,0-0.1,1.3-0.1,2.9l0,2.9L1062.9,478.4z"/>
	<path id="rect95" class="st1" d="M1418.8-100.8l0,57.3c0,12.7,10.3,22.9,22.9,22.9l63.6,0c12.7,0,22.9-10.3,22.9-22.9l0-57.3
		c0-12.7-10.3-22.9-22.9-22.9l-63.6,0C1429-123.7,1418.8-113.5,1418.8-100.8z"/>
	<path id="rect97" class="st1" d="M1418.8,1.6l0,63.2c0,11,8.9,20,20,20l69.5,0c11,0,20-8.9,20-20l0-63.2c0-11-8.9-20-20-20l-69.5,0
		C1427.7-18.4,1418.8-9.5,1418.8,1.6z"/>
	<rect id="rect99" x="1474.2" y="-78" class="st2" width="223.8" height="11.4"/>
	<rect id="rect101" x="1474.2" y="27.9" class="st2" width="223.8" height="11.4"/>
	<circle id="path140" class="st3" cx="1285.1" cy="527.3" r="135.1"/>
	<circle id="circle142" class="st3" cx="412.9" cy="527.3" r="135.1"/>
	<circle id="path152" class="st0" cx="412.9" cy="527.3" r="123.5"/>
	<circle id="circle154" class="st0" cx="1285.1" cy="527.3" r="123.5"/>
	<rect id="rect156" x="277.9" y="-317.9" class="st0" width="957.1" height="702.4"/>
	<rect id="rect158" x="285.6" y="-310.2" width="941.6" height="686.9"/>
	<rect id="rect170" x="1222.6" y="-16.9" class="st3" width="80.3" height="92.6"/>
	<rect id="rect172" x="1222.6" y="199.2" class="st3" width="80.3" height="92.6"/>
	<rect id="rect177" x="209.6" y="-12.2" class="st3" width="80.2" height="92.6"/>
	<rect id="rect179" x="209.6" y="111.3" class="st3" width="80.2" height="92.6"/>
	<rect id="rect181" x="209.6" y="-135.7" class="st3" width="80.2" height="92.6"/>
	<rect id="rect183" x="253" y="-95.6" class="st2" width="40" height="12.3"/>
	<rect id="rect185" x="253" y="27.9" class="st2" width="41.8" height="12.3"/>
	<rect id="rect187" x="253" y="151.4" class="st2" width="43" height="12.3"/>
	<rect id="rect193" x="1221" y="23.3" class="st2" width="41.8" height="12.3"/>
	<rect id="rect195" x="1221" y="239.4" class="st2" width="43" height="12.3"/>
	<rect id="rect160" x="289.4" y="-306.3" class="st4" width="933.9" height="679.2"/>
	<path id="path162" class="st5" d="M756.4-298.6c-183.3,0-331.9,148.6-331.9,331.9c0,0,0,0,0,0c0,183.3,148.6,331.9,331.9,331.9
		c0,0,0,0,0,0c183.3,0,331.9-148.6,331.9-331.9C1088.3-150,939.7-298.6,756.4-298.6C756.4-298.6,756.4-298.6,756.4-298.6z
		 M289.4-82.5v231.5h61.7V-82.5H289.4z"/>
	<circle id="path166" class="st6" cx="756.4" cy="33.3" r="270.1"/>
	
		<path id="path168" sodipodi:cx="-261.27338" sodipodi:cy="431.68976" sodipodi:end="4.7168276" sodipodi:open="true" sodipodi:rx="175" sodipodi:ry="175" sodipodi:start="0" sodipodi:type="arc" class="st7" d="
		M565.4-157.7C642.7-235.1,759-258.1,860-216.2s166.7,140.7,166.5,250.1c-0.2,109.4-66.4,207.8-167.6,249.3s-217.4,17.9-294.4-59.8"
		/>
	<g class="st8">
		<path class="st0" d="M590.7-331.7c0,0.3-0.1,0.5-0.2,0.7c-0.1,0.2-0.3,0.4-0.6,0.5c-0.3,0.1-0.8,0.2-1.3,0.3
			c-0.5,0.1-1.2,0.1-2.1,0.1c-1.1,0-2,0-2.7-0.1c-0.7-0.1-1.2-0.3-1.6-0.5c-0.4-0.3-0.6-0.5-0.9-0.9l-22.8-31v31
			c0,0.2-0.1,0.4-0.2,0.6c-0.1,0.2-0.4,0.4-0.7,0.5c-0.3,0.1-0.7,0.2-1.3,0.3c-0.5,0.1-1.2,0.1-2,0.1c-0.8,0-1.4,0-2-0.1
			c-0.5-0.1-1-0.2-1.3-0.3c-0.3-0.1-0.5-0.3-0.7-0.5c-0.1-0.2-0.2-0.4-0.2-0.6v-59.4c0-0.3,0.1-0.5,0.2-0.7c0.1-0.2,0.4-0.3,0.7-0.5
			c0.3-0.1,0.7-0.2,1.3-0.3c0.5-0.1,1.2-0.1,2-0.1c0.8,0,1.5,0,2,0.1c0.5,0.1,0.9,0.2,1.3,0.3c0.3,0.1,0.5,0.3,0.7,0.5
			c0.1,0.2,0.2,0.4,0.2,0.7v27.5l21.9-27.5c0.2-0.3,0.4-0.5,0.7-0.7c0.3-0.2,0.6-0.3,0.9-0.5c0.4-0.1,0.8-0.2,1.3-0.3
			c0.5-0.1,1.2-0.1,2-0.1s1.5,0,2,0.1c0.5,0.1,0.9,0.2,1.2,0.3c0.3,0.1,0.5,0.3,0.6,0.5c0.1,0.2,0.2,0.4,0.2,0.6
			c0,0.4-0.1,0.8-0.3,1.2c-0.2,0.4-0.6,1-1.2,1.7l-20.5,24.6l22.1,29.4c0.5,0.8,0.9,1.4,1,1.7C590.7-332.2,590.7-331.9,590.7-331.7z
			"/>
		<path class="st0" d="M621-354.5v22.8c0,0.3-0.1,0.5-0.2,0.7s-0.3,0.3-0.7,0.5c-0.3,0.1-0.7,0.2-1.3,0.3c-0.5,0.1-1.2,0.1-2,0.1
			c-0.8,0-1.5,0-2-0.1c-0.5-0.1-1-0.2-1.3-0.3c-0.3-0.1-0.6-0.3-0.7-0.5s-0.2-0.4-0.2-0.7v-22.8l-17.5-34.9
			c-0.4-0.7-0.6-1.3-0.6-1.7c-0.1-0.4,0-0.7,0.2-1c0.2-0.2,0.7-0.4,1.3-0.4c0.6-0.1,1.5-0.1,2.5-0.1c1,0,1.7,0,2.3,0.1
			c0.6,0.1,1.1,0.2,1.4,0.3c0.4,0.1,0.6,0.3,0.8,0.5c0.2,0.2,0.3,0.5,0.5,0.8l8.6,17.8c0.8,1.7,1.6,3.5,2.4,5.3s1.6,3.7,2.4,5.6h0.1
			c0.7-1.8,1.5-3.6,2.3-5.4c0.8-1.8,1.6-3.6,2.4-5.3l8.6-17.9c0.1-0.3,0.2-0.6,0.4-0.8c0.2-0.2,0.4-0.4,0.7-0.5
			c0.3-0.1,0.7-0.2,1.3-0.3c0.5-0.1,1.2-0.1,2.1-0.1c1.1,0,2,0,2.7,0.1c0.7,0.1,1.1,0.2,1.4,0.5c0.3,0.2,0.3,0.5,0.3,1
			c-0.1,0.4-0.3,1-0.6,1.7L621-354.5z"/>
		<path class="st0" d="M661.9-354.5c0,1.2-0.1,2.1-0.4,2.6s-0.7,0.7-1.2,0.7h-20c-0.6,0-1-0.2-1.3-0.7c-0.3-0.5-0.4-1.3-0.4-2.6
			s0.1-2.1,0.4-2.5s0.7-0.7,1.3-0.7h20c0.3,0,0.5,0,0.7,0.1c0.2,0.1,0.4,0.3,0.5,0.6s0.3,0.6,0.3,1
			C661.9-355.7,661.9-355.2,661.9-354.5z"/>
		<path class="st0" d="M711.5-361.5c0,4.8-0.4,9.1-1.1,13s-2,7.3-3.7,10.1c-1.7,2.8-4,5-6.8,6.6c-2.8,1.5-6.3,2.3-10.4,2.3
			c-3.9,0-7.2-0.7-9.8-2.1c-2.7-1.4-4.8-3.4-6.4-6.1c-1.6-2.7-2.8-6-3.5-10s-1-8.5-1-13.6c0-4.7,0.4-9.1,1.1-13
			c0.8-3.9,2-7.3,3.7-10.1c1.7-2.8,4-5,6.8-6.6c2.8-1.5,6.3-2.3,10.3-2.3c3.9,0,7.2,0.7,9.9,2.1c2.7,1.4,4.8,3.4,6.4,6.1
			s2.8,6,3.5,10S711.5-366.6,711.5-361.5z M703.1-360.9c0-3.1-0.1-5.9-0.3-8.3c-0.2-2.5-0.5-4.6-1-6.5c-0.4-1.9-1-3.5-1.7-4.9
			c-0.7-1.4-1.5-2.5-2.5-3.4c-1-0.9-2.1-1.5-3.3-1.9c-1.2-0.4-2.6-0.6-4.1-0.6c-2.7,0-4.9,0.6-6.6,1.9c-1.7,1.3-3,3-4,5.3
			c-1,2.2-1.6,4.9-2,7.8c-0.4,3-0.5,6.2-0.5,9.7c0,4.6,0.2,8.6,0.7,11.8c0.5,3.2,1.2,5.9,2.3,7.9c1,2,2.4,3.5,4,4.5
			c1.6,0.9,3.6,1.4,5.9,1.4c1.8,0,3.4-0.3,4.7-0.9c1.4-0.6,2.5-1.4,3.5-2.5c1-1.1,1.8-2.4,2.4-3.9c0.6-1.5,1.1-3.2,1.5-5
			s0.6-3.8,0.8-5.9C703-356.4,703.1-358.6,703.1-360.9z"/>
		<path class="st0" d="M761.8-348c0,1.1-0.2,1.9-0.5,2.5c-0.3,0.6-0.8,0.9-1.3,0.9h-7v13c0,0.3-0.1,0.5-0.2,0.6
			c-0.1,0.2-0.4,0.3-0.7,0.5s-0.8,0.2-1.3,0.3c-0.5,0.1-1.2,0.1-2,0.1c-0.8,0-1.4,0-2-0.1c-0.5-0.1-0.9-0.2-1.3-0.3
			s-0.5-0.3-0.6-0.5c-0.1-0.2-0.2-0.4-0.2-0.6v-13h-25.3c-0.4,0-0.7,0-1-0.1s-0.5-0.3-0.7-0.5c-0.2-0.3-0.3-0.6-0.4-1.1
			c-0.1-0.5-0.1-1.1-0.1-1.9c0-0.6,0-1.1,0-1.6s0.1-0.9,0.2-1.3c0.1-0.4,0.2-0.8,0.4-1.1c0.2-0.4,0.3-0.8,0.6-1.2l22.1-37.6
			c0.2-0.3,0.4-0.5,0.7-0.7c0.3-0.2,0.7-0.4,1.2-0.5c0.5-0.1,1.1-0.2,1.8-0.3s1.6-0.1,2.5-0.1c1.1,0,2,0,2.8,0.1
			c0.8,0.1,1.4,0.2,1.9,0.3c0.5,0.1,0.9,0.3,1.1,0.5c0.3,0.2,0.4,0.5,0.4,0.7v39.5h7c0.5,0,1,0.3,1.3,0.8
			C761.6-350,761.8-349.1,761.8-348z M744.7-385.4L744.7-385.4l-20,34h20V-385.4z"/>
		<path class="st0" d="M810.9-361.5c0,4.8-0.4,9.1-1.1,13s-2,7.3-3.7,10.1c-1.7,2.8-4,5-6.8,6.6c-2.8,1.5-6.3,2.3-10.4,2.3
			c-3.9,0-7.2-0.7-9.8-2.1c-2.7-1.4-4.8-3.4-6.4-6.1c-1.6-2.7-2.8-6-3.5-10s-1-8.5-1-13.6c0-4.7,0.4-9.1,1.1-13
			c0.8-3.9,2-7.3,3.7-10.1c1.7-2.8,4-5,6.8-6.6c2.8-1.5,6.3-2.3,10.3-2.3c3.9,0,7.2,0.7,9.9,2.1c2.7,1.4,4.8,3.4,6.4,6.1
			s2.8,6,3.5,10S810.9-366.6,810.9-361.5z M802.4-360.9c0-3.1-0.1-5.9-0.3-8.3c-0.2-2.5-0.5-4.6-1-6.5c-0.4-1.9-1-3.5-1.7-4.9
			c-0.7-1.4-1.5-2.5-2.5-3.4c-1-0.9-2.1-1.5-3.3-1.9c-1.2-0.4-2.6-0.6-4.1-0.6c-2.7,0-4.9,0.6-6.6,1.9c-1.7,1.3-3,3-4,5.3
			c-1,2.2-1.6,4.9-2,7.8c-0.4,3-0.5,6.2-0.5,9.7c0,4.6,0.2,8.6,0.7,11.8c0.5,3.2,1.2,5.9,2.3,7.9c1,2,2.4,3.5,4,4.5
			c1.6,0.9,3.6,1.4,5.9,1.4c1.8,0,3.4-0.3,4.7-0.9c1.4-0.6,2.5-1.4,3.5-2.5c1-1.1,1.8-2.4,2.4-3.9c0.6-1.5,1.1-3.2,1.5-5
			s0.6-3.8,0.8-5.9C802.4-356.4,802.4-358.6,802.4-360.9z"/>
	</g>
	<g class="st8">
		<path class="st0" d="M1322.1-53.2c0,0.4,0,0.7,0,1c0,0.3-0.1,0.6-0.1,0.8c-0.1,0.2-0.1,0.4-0.2,0.6c-0.1,0.2-0.3,0.4-0.5,0.6
			c-0.2,0.2-0.8,0.6-1.6,1.1c-0.8,0.5-1.8,1-3,1.5c-1.2,0.5-2.5,0.9-4.1,1.2c-1.5,0.3-3.2,0.5-5,0.5c-3.1,0-6-0.5-8.5-1.6
			c-2.5-1-4.7-2.6-6.5-4.6c-1.8-2-3.1-4.6-4.1-7.6c-1-3-1.4-6.4-1.4-10.4c0-4,0.5-7.6,1.5-10.7c1-3.1,2.5-5.8,4.3-8s4.1-3.8,6.7-5
			c2.6-1.1,5.5-1.7,8.6-1.7c1.4,0,2.7,0.1,4.1,0.4c1.3,0.3,2.5,0.6,3.7,1s2.1,0.9,3,1.4s1.5,1,1.8,1.3c0.3,0.3,0.6,0.6,0.7,0.8
			s0.2,0.4,0.2,0.6c0.1,0.2,0.1,0.5,0.1,0.8c0,0.3,0.1,0.7,0.1,1.2c0,0.5,0,0.9-0.1,1.3c-0.1,0.3-0.1,0.6-0.2,0.9
			c-0.1,0.2-0.2,0.4-0.4,0.5c-0.1,0.1-0.3,0.2-0.5,0.2c-0.3,0-0.8-0.2-1.5-0.7c-0.6-0.5-1.4-1-2.4-1.6c-1-0.6-2.2-1.1-3.6-1.6
			c-1.4-0.5-3.1-0.7-5.1-0.7c-2.2,0-4.1,0.4-5.9,1.3c-1.8,0.9-3.3,2.1-4.5,3.8s-2.2,3.7-2.9,6.1c-0.7,2.4-1,5.1-1,8.2
			c0,3.1,0.3,5.8,1,8.1c0.7,2.3,1.6,4.3,2.9,5.9c1.2,1.6,2.8,2.8,4.6,3.6c1.8,0.8,3.8,1.2,6.1,1.2c1.9,0,3.6-0.2,5-0.7
			s2.7-1,3.7-1.6c1-0.6,1.8-1.1,2.5-1.6c0.6-0.5,1.2-0.7,1.5-0.7c0.2,0,0.3,0,0.5,0.1c0.1,0.1,0.2,0.2,0.3,0.4
			c0.1,0.2,0.1,0.5,0.2,0.9C1322.1-54.3,1322.1-53.8,1322.1-53.2z"/>
		<path class="st0" d="M1355.6-49.2c0,0.5,0,0.9-0.1,1.2s-0.1,0.6-0.2,0.9c-0.1,0.2-0.2,0.4-0.4,0.5c-0.2,0.1-0.4,0.2-0.6,0.2H1333
			c-0.6,0-1.1-0.2-1.6-0.6c-0.5-0.4-0.8-1.1-0.8-2v-44.7c0-0.2,0-0.4,0.1-0.5c0.1-0.1,0.3-0.3,0.5-0.4c0.2-0.1,0.6-0.2,1-0.2
			c0.4-0.1,0.9-0.1,1.5-0.1c0.6,0,1.1,0,1.5,0.1c0.4,0.1,0.7,0.1,1,0.2c0.2,0.1,0.4,0.2,0.5,0.4c0.1,0.1,0.1,0.3,0.1,0.5V-52h17.3
			c0.2,0,0.4,0.1,0.6,0.2c0.2,0.1,0.3,0.3,0.4,0.5c0.1,0.2,0.2,0.5,0.2,0.8C1355.6-50.1,1355.6-49.7,1355.6-49.2z"/>
		<path class="st0" d="M1394.2-47.5c0,0.2,0,0.4-0.1,0.5c-0.1,0.2-0.3,0.3-0.5,0.4c-0.2,0.1-0.6,0.2-1,0.2c-0.4,0.1-1,0.1-1.6,0.1
			c-0.9,0-1.6,0-2.1-0.1c-0.5-0.1-1-0.2-1.2-0.4c-0.3-0.2-0.5-0.4-0.7-0.7l-17.8-24.1v24.1c0,0.2-0.1,0.3-0.1,0.5
			c-0.1,0.2-0.3,0.3-0.5,0.4c-0.2,0.1-0.6,0.2-1,0.2c-0.4,0.1-0.9,0.1-1.5,0.1c-0.6,0-1.1,0-1.5-0.1c-0.4-0.1-0.8-0.1-1-0.2
			c-0.2-0.1-0.4-0.2-0.5-0.4c-0.1-0.2-0.1-0.3-0.1-0.5v-46.3c0-0.2,0-0.4,0.1-0.5c0.1-0.1,0.3-0.3,0.5-0.4c0.2-0.1,0.6-0.2,1-0.2
			c0.4-0.1,0.9-0.1,1.5-0.1c0.6,0,1.1,0,1.5,0.1c0.4,0.1,0.7,0.1,1,0.2c0.2,0.1,0.4,0.2,0.5,0.4c0.1,0.1,0.1,0.3,0.1,0.5v21.4
			l17.1-21.4c0.1-0.2,0.3-0.4,0.5-0.6c0.2-0.1,0.4-0.3,0.7-0.4s0.6-0.2,1-0.2s0.9-0.1,1.6-0.1s1.2,0,1.6,0.1c0.4,0.1,0.7,0.1,1,0.2
			c0.2,0.1,0.4,0.2,0.5,0.4s0.1,0.3,0.1,0.5c0,0.3-0.1,0.6-0.2,1c-0.2,0.3-0.5,0.8-0.9,1.3l-16,19.1l17.2,22.9
			c0.4,0.6,0.7,1.1,0.8,1.3C1394.1-47.8,1394.2-47.6,1394.2-47.5z"/>
	</g>
	<g class="st8">
		<path class="st0" d="M1350.4,29.5c0,4.1-0.5,7.7-1.6,10.8c-1.1,3.1-2.6,5.6-4.6,7.7s-4.5,3.5-7.5,4.6c-3,1-6.5,1.5-10.6,1.5h-10.1
			c-0.6,0-1.1-0.2-1.6-0.6c-0.5-0.4-0.8-1.1-0.8-2V8.9c0-1,0.3-1.6,0.8-2c0.5-0.4,1-0.6,1.6-0.6h10.8c4.1,0,7.6,0.5,10.5,1.6
			c2.9,1.1,5.2,2.6,7.2,4.6c1.9,2,3.4,4.4,4.4,7.3C1349.9,22.7,1350.4,25.9,1350.4,29.5z M1343.8,29.8c0-2.6-0.3-5-1-7.2
			c-0.6-2.2-1.6-4.2-3-5.8c-1.4-1.6-3.1-2.9-5.2-3.8c-2.1-0.9-4.8-1.4-8.1-1.4h-6.5v37.2h6.5c3.1,0,5.6-0.4,7.7-1.1
			c2.1-0.8,3.8-1.9,5.2-3.5c1.4-1.6,2.5-3.5,3.2-5.9C1343.4,35.8,1343.8,33,1343.8,29.8z"/>
		<path class="st0" d="M1389.3,9c0,0.5,0,0.9-0.1,1.2c0,0.3-0.1,0.6-0.2,0.8c-0.1,0.2-0.2,0.4-0.4,0.5s-0.3,0.1-0.5,0.1h-13.4v41.4
			c0,0.2,0,0.4-0.1,0.5c-0.1,0.1-0.3,0.3-0.5,0.4s-0.6,0.2-1,0.2s-0.9,0.1-1.5,0.1c-0.6,0-1.1,0-1.5-0.1c-0.4-0.1-0.8-0.1-1-0.2
			s-0.4-0.2-0.5-0.4c-0.1-0.1-0.1-0.3-0.1-0.5V11.7h-13.4c-0.2,0-0.4,0-0.5-0.1s-0.3-0.3-0.4-0.5c-0.1-0.2-0.2-0.5-0.2-0.8
			s-0.1-0.8-0.1-1.2c0-0.5,0-0.9,0.1-1.2c0.1-0.4,0.1-0.6,0.2-0.9s0.2-0.4,0.4-0.5s0.3-0.1,0.5-0.1h33.2c0.2,0,0.4,0,0.5,0.1
			s0.3,0.3,0.4,0.5s0.2,0.5,0.2,0.9C1389.3,8.2,1389.3,8.6,1389.3,9z"/>
	</g>
	<g class="st8">
		<path class="st0" d="M1324.4,149.5c0,2.2-0.4,4.2-1.2,5.9c-0.8,1.7-1.9,3.2-3.4,4.4s-3.1,2.1-5.1,2.7c-2,0.6-4.1,0.9-6.3,0.9
			c-1.6,0-3-0.1-4.4-0.4c-1.3-0.3-2.5-0.6-3.6-1c-1.1-0.4-1.9-0.8-2.7-1.2c-0.7-0.4-1.2-0.8-1.5-1.1s-0.5-0.7-0.6-1.1
			c-0.1-0.4-0.2-1-0.2-1.8c0-0.5,0-1,0.1-1.3c0-0.4,0.1-0.6,0.2-0.9c0.1-0.2,0.2-0.4,0.4-0.5c0.1-0.1,0.3-0.1,0.5-0.1
			c0.3,0,0.8,0.2,1.4,0.6c0.6,0.4,1.4,0.9,2.4,1.3s2.1,0.9,3.5,1.4c1.4,0.4,3,0.6,4.8,0.6c1.4,0,2.6-0.2,3.7-0.5
			c1.1-0.4,2.1-0.9,2.9-1.5c0.8-0.7,1.4-1.5,1.9-2.5c0.4-1,0.7-2.1,0.7-3.3c0-1.3-0.3-2.5-0.9-3.4c-0.6-0.9-1.4-1.8-2.4-2.5
			s-2.1-1.4-3.4-2c-1.3-0.6-2.6-1.2-3.9-1.8c-1.3-0.6-2.6-1.3-3.9-2.1c-1.3-0.8-2.4-1.6-3.4-2.7c-1-1-1.8-2.2-2.4-3.6
			s-0.9-3-0.9-4.9c0-2,0.4-3.7,1.1-5.3s1.7-2.8,3-3.9c1.3-1,2.8-1.8,4.5-2.4c1.8-0.5,3.7-0.8,5.7-0.8c1,0,2.1,0.1,3.1,0.3
			c1.1,0.2,2,0.4,3,0.7s1.8,0.6,2.5,1c0.7,0.4,1.2,0.7,1.4,0.9c0.2,0.2,0.4,0.4,0.5,0.5c0.1,0.1,0.1,0.3,0.2,0.5
			c0,0.2,0.1,0.5,0.1,0.7c0,0.3,0,0.7,0,1.1c0,0.4,0,0.8-0.1,1.2c0,0.3-0.1,0.6-0.2,0.9c-0.1,0.2-0.2,0.4-0.3,0.5
			c-0.1,0.1-0.3,0.2-0.5,0.2c-0.3,0-0.7-0.2-1.3-0.5c-0.6-0.3-1.3-0.7-2.1-1.1c-0.8-0.4-1.8-0.8-2.9-1.2c-1.1-0.4-2.4-0.5-3.8-0.5
			c-1.3,0-2.5,0.2-3.4,0.5c-1,0.4-1.8,0.8-2.4,1.4c-0.6,0.6-1.1,1.3-1.4,2.1s-0.5,1.7-0.5,2.5c0,1.3,0.3,2.4,0.9,3.4
			s1.4,1.8,2.4,2.5c1,0.7,2.2,1.4,3.4,2c1.3,0.6,2.6,1.2,3.9,1.8c1.3,0.6,2.6,1.3,3.9,2s2.4,1.6,3.4,2.6c1,1,1.8,2.2,2.4,3.6
			S1324.4,147.7,1324.4,149.5z"/>
		<path class="st0" d="M1378,161.4c-0.1,0.3-0.2,0.6-0.4,0.8c-0.2,0.2-0.5,0.4-0.8,0.5s-0.8,0.2-1.3,0.2c-0.5,0-1.1,0.1-1.8,0.1
			c-0.8,0-1.4,0-1.9-0.1c-0.5,0-1-0.1-1.3-0.2s-0.6-0.3-0.8-0.5c-0.2-0.2-0.3-0.5-0.4-0.8l-9.9-35.6h-0.1l-9.1,35.6
			c-0.1,0.3-0.2,0.6-0.4,0.8c-0.2,0.2-0.4,0.4-0.7,0.5s-0.7,0.2-1.2,0.2c-0.5,0-1.1,0.1-1.9,0.1c-0.8,0-1.5,0-2-0.1
			c-0.5,0-1-0.1-1.3-0.2c-0.3-0.1-0.6-0.3-0.8-0.5c-0.2-0.2-0.3-0.5-0.4-0.8l-12.4-43.5c-0.1-0.6-0.2-1-0.2-1.3
			c0-0.3,0.1-0.6,0.3-0.7c0.2-0.2,0.5-0.3,1-0.3c0.5,0,1.1-0.1,1.9-0.1c0.8,0,1.3,0,1.8,0.1c0.4,0,0.8,0.1,1,0.2
			c0.2,0.1,0.4,0.2,0.5,0.4c0.1,0.2,0.2,0.4,0.2,0.7l10.6,39.5h0l10-39.4c0.1-0.3,0.2-0.5,0.3-0.7s0.3-0.3,0.5-0.4
			c0.2-0.1,0.6-0.2,1-0.2c0.4,0,1-0.1,1.8-0.1c0.7,0,1.2,0,1.6,0.1s0.7,0.1,1,0.2c0.2,0.1,0.4,0.2,0.5,0.4c0.1,0.2,0.2,0.4,0.3,0.7
			l10.8,39.4h0.1l10.4-39.4c0.1-0.2,0.1-0.5,0.2-0.6c0.1-0.2,0.2-0.3,0.5-0.4c0.2-0.1,0.6-0.2,1-0.2c0.4,0,1-0.1,1.7-0.1
			c0.7,0,1.3,0,1.7,0.1c0.4,0.1,0.7,0.2,0.9,0.3s0.3,0.4,0.3,0.7c0,0.3-0.1,0.8-0.2,1.3L1378,161.4z"/>
	</g>
	<g class="st8">
		<path class="st0" d="M1365.1,238.5c0,0.6,0,1.1-0.1,1.6s-0.2,0.8-0.4,1.1c-0.2,0.3-0.4,0.5-0.6,0.6c-0.2,0.1-0.5,0.2-0.7,0.2
			h-15.7v17.4c0,0.3-0.1,0.5-0.2,0.6c-0.1,0.2-0.3,0.3-0.6,0.5c-0.3,0.1-0.6,0.2-1.1,0.3c-0.4,0.1-1,0.1-1.7,0.1
			c-0.6,0-1.2,0-1.7-0.1c-0.5-0.1-0.8-0.2-1.1-0.3c-0.3-0.1-0.5-0.3-0.6-0.5c-0.1-0.2-0.2-0.4-0.2-0.6v-17.4h-15.7
			c-0.3,0-0.5-0.1-0.7-0.2c-0.2-0.1-0.4-0.3-0.5-0.6c-0.2-0.3-0.3-0.6-0.4-1.1s-0.1-0.9-0.1-1.6c0-0.6,0-1.1,0.1-1.5
			s0.2-0.8,0.4-1.1c0.2-0.3,0.3-0.5,0.5-0.6c0.2-0.1,0.4-0.2,0.7-0.2h15.7v-17.4c0-0.3,0.1-0.5,0.2-0.7c0.1-0.2,0.3-0.4,0.6-0.5
			c0.3-0.1,0.6-0.3,1.1-0.3s1-0.1,1.7-0.1c0.7,0,1.2,0,1.7,0.1c0.4,0.1,0.8,0.2,1.1,0.3s0.5,0.3,0.6,0.5c0.1,0.2,0.2,0.4,0.2,0.7
			v17.4h15.7c0.3,0,0.5,0.1,0.7,0.2c0.2,0.1,0.4,0.3,0.6,0.6s0.3,0.6,0.4,1.1S1365.1,237.9,1365.1,238.5z"/>
	</g>
	<g class="st8">
		<path class="st0" d="M1300.1,327.7c0,0.5,0,0.9-0.1,1.2c0,0.4-0.1,0.6-0.2,0.9s-0.2,0.4-0.4,0.5c-0.1,0.1-0.3,0.1-0.5,0.1
			c-0.3,0-0.8-0.2-1.4-0.7c-0.7-0.5-1.6-1-2.7-1.5c-1.1-0.6-2.5-1.1-4.1-1.5c-1.6-0.5-3.5-0.7-5.6-0.7c-2.6,0-4.9,0.5-7,1.4
			c-2.1,0.9-3.8,2.2-5.2,3.9c-1.4,1.7-2.5,3.6-3.3,5.9c-0.8,2.3-1.1,4.8-1.1,7.5c0,3,0.4,5.6,1.2,8c0.8,2.3,2,4.3,3.5,5.9
			c1.5,1.6,3.2,2.8,5.3,3.6c2,0.8,4.3,1.2,6.7,1.2c1.4,0,2.9-0.2,4.4-0.5c1.5-0.3,2.9-0.9,4.1-1.6v-13.7h-10.9
			c-0.4,0-0.7-0.2-0.9-0.6s-0.3-1-0.3-1.9c0-0.5,0-0.9,0.1-1.2c0-0.3,0.1-0.6,0.2-0.8c0.1-0.2,0.2-0.4,0.4-0.5
			c0.1-0.1,0.3-0.1,0.5-0.1h14.9c0.3,0,0.5,0,0.8,0.1c0.3,0.1,0.5,0.2,0.7,0.4c0.2,0.2,0.4,0.5,0.5,0.8c0.1,0.3,0.2,0.7,0.2,1.2V363
			c0,0.6-0.1,1.2-0.3,1.6c-0.2,0.5-0.7,0.9-1.4,1.2c-0.7,0.4-1.6,0.7-2.7,1.1c-1.1,0.4-2.3,0.8-3.4,1.1c-1.2,0.3-2.4,0.5-3.6,0.7
			c-1.2,0.1-2.4,0.2-3.6,0.2c-3.6,0-6.9-0.6-9.7-1.7c-2.8-1.1-5.3-2.7-7.2-4.8c-2-2.1-3.5-4.6-4.5-7.5s-1.6-6.1-1.6-9.7
			c0-3.7,0.6-7.1,1.7-10.1s2.7-5.6,4.7-7.7c2-2.1,4.5-3.8,7.3-4.9s6-1.8,9.5-1.8c1.8,0,3.5,0.2,5,0.5s3,0.7,4.2,1.1
			c1.2,0.4,2.2,0.9,3.1,1.4c0.8,0.5,1.4,0.9,1.7,1.2c0.3,0.3,0.5,0.7,0.7,1.1S1300.1,327,1300.1,327.7z"/>
		<path class="st0" d="M1347.1,365.7c0,0.5-0.1,0.9-0.2,1.2c-0.2,0.3-0.4,0.6-0.6,0.8c-0.3,0.2-0.6,0.4-0.9,0.5
			c-0.3,0.1-0.6,0.1-1,0.1h-2.1c-0.6,0-1.2-0.1-1.7-0.2c-0.5-0.1-0.9-0.4-1.4-0.7c-0.4-0.3-0.9-0.8-1.3-1.4
			c-0.4-0.6-0.9-1.4-1.4-2.3l-14.3-26.6c-0.7-1.4-1.5-2.8-2.3-4.3c-0.8-1.5-1.5-3-2.1-4.4h-0.1c0,1.7,0.1,3.5,0.1,5.3
			c0,1.8,0,3.6,0,5.4v28.3c0,0.2-0.1,0.3-0.2,0.5c-0.1,0.2-0.3,0.3-0.5,0.4c-0.2,0.1-0.6,0.2-1,0.2c-0.4,0.1-0.9,0.1-1.5,0.1
			s-1.1,0-1.5-0.1c-0.4-0.1-0.7-0.1-0.9-0.2c-0.2-0.1-0.4-0.2-0.5-0.4c-0.1-0.2-0.2-0.3-0.2-0.5v-43.2c0-1,0.3-1.7,0.8-2.1
			c0.5-0.4,1.1-0.6,1.8-0.6h3.1c0.7,0,1.3,0.1,1.8,0.2c0.5,0.1,0.9,0.3,1.3,0.6s0.8,0.7,1.1,1.2c0.4,0.5,0.7,1.1,1.1,1.9l11,20.6
			c0.7,1.3,1.3,2.5,2,3.7c0.6,1.2,1.2,2.4,1.8,3.5c0.6,1.2,1.2,2.3,1.7,3.4c0.6,1.1,1.1,2.3,1.7,3.4h0c0-1.9-0.1-3.9-0.1-6
			c0-2.1,0-4,0-6v-25.4c0-0.2,0.1-0.3,0.2-0.5c0.1-0.1,0.3-0.3,0.5-0.4s0.6-0.2,1-0.2c0.4,0,0.9-0.1,1.5-0.1c0.6,0,1,0,1.5,0.1
			c0.4,0,0.7,0.1,1,0.2s0.4,0.2,0.5,0.4c0.1,0.1,0.2,0.3,0.2,0.5V365.7z"/>
		<path class="st0" d="M1395.6,344.1c0,4.1-0.5,7.6-1.6,10.6c-1,3-2.6,5.5-4.5,7.5s-4.4,3.5-7.3,4.5c-2.9,1-6.3,1.5-10.4,1.5h-9.9
			c-0.6,0-1.1-0.2-1.6-0.6c-0.5-0.4-0.7-1-0.7-2v-41.8c0-0.9,0.2-1.6,0.7-2c0.5-0.4,1-0.6,1.6-0.6h10.6c4.1,0,7.5,0.5,10.3,1.6
			c2.8,1,5.1,2.6,7,4.5c1.9,2,3.3,4.4,4.3,7.2S1395.6,340.6,1395.6,344.1z M1389.1,344.4c0-2.5-0.3-4.9-0.9-7.1
			c-0.6-2.2-1.6-4.1-3-5.7c-1.3-1.6-3-2.8-5.1-3.7c-2.1-0.9-4.7-1.3-7.9-1.3h-6.3V363h6.4c3,0,5.5-0.4,7.6-1.1s3.8-1.9,5.1-3.4
			s2.4-3.5,3.1-5.8C1388.7,350.3,1389.1,347.6,1389.1,344.4z"/>
	</g>
	<g class="st8">
		<path class="st0" d="M199,591c-0.2,0.7-0.6,1.2-1,1.6c-0.4,0.4-1,0.8-1.8,1c-0.8,0.2-1.7,0.4-2.9,0.5s-2.6,0.1-4.4,0.1
			c-1.3,0-2.5,0-3.5,0s-1.8-0.1-2.6-0.2c-0.7-0.1-1.3-0.3-1.8-0.4c-0.5-0.1-0.9-0.3-1.3-0.6c-0.4-0.2-0.6-0.5-0.9-0.9
			c-0.2-0.3-0.4-0.7-0.6-1.2l-38.1-108.3c-0.5-1.3-0.7-2.4-0.8-3.2c0-0.8,0.2-1.4,0.8-1.8c0.5-0.4,1.4-0.7,2.6-0.8
			c1.2-0.1,2.8-0.2,4.9-0.2c1.7,0,3,0,4,0.1c1,0.1,1.8,0.3,2.3,0.5c0.5,0.2,0.9,0.6,1.2,0.9c0.3,0.4,0.5,0.9,0.8,1.5l33.4,98.1h0.1
			l32.5-97.9c0.2-0.7,0.4-1.2,0.6-1.6c0.2-0.4,0.7-0.8,1.3-1c0.6-0.2,1.4-0.4,2.5-0.5s2.5-0.1,4.3-0.1c1.9,0,3.3,0.1,4.4,0.2
			c1.1,0.2,1.8,0.4,2.2,0.9c0.4,0.4,0.5,1,0.5,1.8c-0.1,0.8-0.4,1.9-0.9,3.2L199,591z"/>
	</g>
</g>
</svg>
