<?xml version="1.0" encoding="utf-8"?>
<!-- Generator: Adobe Illustrator 27.8.0, SVG Export Plug-In . SVG Version: 6.00 Build 0)  -->
<svg version="1.1"
	 id="svg8" xmlns:svg="http://www.w3.org/2000/svg" xmlns:rdf="http://www.w3.org/1999/02/22-rdf-syntax-ns#" xmlns:sodipodi="http://sodipodi.sourceforge.net/DTD/sodipodi-0.dtd" xmlns:dc="http://purl.org/dc/elements/1.1/" xmlns:inkscape="http://www.inkscape.org/namespaces/inkscape" xmlns:cc="http://creativecommons.org/ns#" inkscape:export-xdpi="93" inkscape:export-ydpi="93" inkscape:version="0.92.4 (5da689c313, 2019-01-14)"
	 xmlns="http://www.w3.org/2000/svg" xmlns:xlink="http://www.w3.org/1999/xlink" x="0px" y="0px" viewBox="0 0 1698 1081"
	 style="enable-background:new 0 0 1698 1081;" xml:space="preserve">
<style type="text/css">
	.st0{fill:#FFFFFF;}
	.st1{fill:#1A1A1A;}
	.st2{opacity:0.99;fill:#808080;enable-background:new    ;}
	.st3{fill:#CCCCCC;}
	.st4{fill:#DEAA87;}
	.st5{fill:#C87137;}
	.st6{fill:#B3B3B3;}
	.st7{fill:#333333;}
	.st8{enable-background:new    ;}
</style>
<sodipodi:namedview  bordercolor="#666666" borderopacity="1.0" id="base" inkscape:current-layer="layer1" inkscape:cx="1208.748" inkscape:cy="3301.2918" inkscape:document-units="mm" inkscape:pageopacity="0" inkscape:pageshadow="2" inkscape:window-height="1017" inkscape:window-maximized="1" inkscape:window-width="1920" inkscape:window-x="-8" inkscape:window-y="-8" inkscape:zoom="0.087500002" pagecolor="#323232" showgrid="false">
	</sodipodi:namedview>
<g id="layer1" transform="translate(0,403)" inkscape:groupmode="layer" inkscape:label="Ebene 1">
	<rect id="rect815" x="0" y="-402.7" width="1559.1" height="1080.5"/>
	<rect id="rect821" x="1410.7" y="-178.9" class="st0" width="124.8" height="632.9"/>
	<path id="rect825" class="st1" d="M1418.1,55.9l0,57.1c0,12.7,10.3,23,23,23l63.8,0c12.7,0,23-10.3,23-23l0-57.1
		c0-12.7-10.3-23-23-23l-63.8,0C1428.4,33,1418.1,43.3,1418.1,55.9z"/>
	<path id="rect872" class="st1" d="M1418.1,266.4l0,57.1c0,12.7,10.3,23,23,23l63.8,0c12.7,0,23-10.3,23-23l0-57.1
		c0-12.7-10.3-23-23-23l-63.8,0C1428.4,243.4,1418.1,253.7,1418.1,266.4z"/>
	<path id="rect874" class="st1" d="M1418.1,158.2l0,63c0,11,9,20,20,20l69.7,0c11,0,20-9,20-20l0-63c0-11-9-20-20-20l-69.7,0
		C1427.1,138.2,1418.1,147.1,1418.1,158.2z"/>
	<rect id="rect947" x="1473.7" y="78.7" class="st2" width="224.3" height="11.4"/>
	<rect id="rect949" x="1473.7" y="184.5" class="st2" width="224.3" height="11.4"/>
	<rect id="rect951" x="1473.7" y="289.1" class="st2" width="224.3" height="11.4"/>
	<path id="path31-1" inkscape:connector-curvature="0" class="st0" d="M391.8,554.3c5.4-0.1,6-0.2,7-0.9c0.6-0.4,1.4-1.3,1.7-1.9
		c0.6-1.1,0.6-1.9,0.7-14.4l0.1-13.2l11.5,0.1l11.5,0.1v16.5c0,18.1-0.1,19.8-1.8,24.6c-2.2,6.2-5.4,9.1-12,10.9
		c-1.8,0.5-3.8,0.6-10.5,0.5c-4.6,0-9.6-0.2-11.1-0.3l-2.8-0.3l-0.1-10.7l-0.1-10.7L391.8,554.3L391.8,554.3z M501.1,591.2
		c98,0,122.1,0.2,118,0.6l-0.6,0.1l0.6,0.3c0.5,0.3,0.4,0.3-0.5,0.4c-0.7,0.1-0.4,0.2,0.9,0.3l2,0.2l-2,0.1
		c-1.1,0.1-1.8,0.2-1.5,0.3c0.5,0.1,0.5,0.6,0.5,3.1c0,2.9,0,2.9,0.9,3.1c0.6,0.1,0.5,0.2-0.5,0.2c-0.7,0-1.3,0.2-1.3,0.4
		c0,0.2-38.8,0.3-115.9,0.3H385.9v-4.7v-4.7L501.1,591.2z M412.8,490h11.6l0,10.7l0,10.7h-11.6h-11.6l0-10.7l0-10.7H412.8z
		 M436.2,529.4c0.8-6,2.3-11.3,4.4-16.1c0.8-1.7,1.5-3.2,1.6-3.3c0.1-0.1,0.7-1,1.3-2.1c1.2-2.1,4-6,4.6-6.4
		c0.2-0.2,0.4-0.4,0.4-0.6c0-0.5,2.9-3.4,5.2-5.3c2.4-1.9,4.3-3,8.6-4.8c5-2.1,7.9-2.6,13.9-2.4c4.3,0.2,5.4,0.3,8.1,1.2
		c1.7,0.6,3.8,1.4,4.6,1.8c0.8,0.4,1.7,0.7,1.8,0.7c0.2,0,1.5,0.7,2.9,1.7c5.5,3.6,13.1,13.4,16,20.6c4.6,11.3,5.1,22.7,1.7,33.3
		c-1.5,4.4-2.5,6.9-4.2,10.1c-2,3.6-2.1,3.8-6.9,9.1c-5.5,6.1-9.4,8.7-16.5,10.9c-3.6,1.1-10.7,1.5-14.6,0.9
		c-5-0.9-11.6-4.1-15.8-7.5c-2.1-1.8-5-4.6-5-4.9c0-0.1-0.7-1-1.6-2c-4.2-4.8-8.4-14.2-10-22C436.3,539.2,435.9,531.5,436.2,529.4
		L436.2,529.4z M458.3,540.4c1.1,5,3.3,9.2,6.8,12.9c3.5,3.8,9,5.2,13.8,3.5c5.3-1.8,10.4-8.8,12.2-16.3c1-4.3,0.9-10.5-0.2-14.7
		c-1.5-5.9-4.3-10.5-8.1-13.6c-1.7-1.4-2.5-1.8-4.4-2.2c-3.9-0.8-8-0.4-10.8,1.2c-2.5,1.4-5.6,5.4-7.4,9.4
		C457.5,526.8,456.8,533.9,458.3,540.4z M523.4,490.1c0.2-0.1,5.4-0.1,11.6-0.1l11.2,0.1l0,11.7c0,11.1,0.1,11.8,0.7,13.8
		c1.6,5,6.9,7.7,11.6,6c2.4-0.9,4-2.5,5.2-5l1-2.3l0.1-12.2l0.1-12.2h11.6h11.6l-0.1,13.7c-0.1,12.8-0.2,13.9-0.8,16.5
		c-1.3,5.3-3.4,9.9-6,13.5c-0.7,0.9-1.2,1.8-1.2,2c0,0.5-2.9,3.4-5.5,5.6c-2.2,1.8-5.3,3.7-6.9,4.1c-0.5,0.1-2.1,0.6-3.6,1.2
		c-2.5,0.9-3.1,0.9-8.3,0.9c-5.2,0-5.8-0.1-8.8-1c-4.6-1.5-6.1-2.2-9.2-4.5c-3.5-2.6-6.4-5.9-8.8-9.9c-3.4-5.8-4.9-10-5.6-16.7
		C522.8,511.2,522.9,490.3,523.4,490.1L523.4,490.1z M555.6,554.7h18.9v11v11h-18.9h-18.9v-11v-11L555.6,554.7z M588,473.2
		c0.2,0,0.3-0.6,0.3-1.4c0-1.3,0-1.4,1.5-1.6c0.8-0.1,32.9-0.2,71.3-0.2h69.8l-0.1,4.7l-0.1,4.7h-71c-39,0-71.2-0.1-71.5-0.2
		c-0.4-0.2-0.5-0.8-0.5-3.2C587.7,474.4,587.8,473.2,588,473.2L588,473.2z M619.9,526H644v10.9v10.9h-24.1h-24.1v-10.9V526
		L619.9,526z M663.1,490h11.6v10.7v10.7h-11.6h-11.6v-10.7V490L663.1,490z M663.1,522.5h11.6v27.7v27.7h-11.6h-11.6v-27.7v-27.7
		H663.1z M709.3,490h24.2v10.7v10.7h-24.2H685v-10.7V490L709.3,490z M689,524.1c0.2-0.1,5.3-0.2,11.4-0.2l11.1,0l0.1,12.7
		c0.1,17.8-0.5,16.8,11.3,17l7.4,0.1v11.1V576l-2.8,0.4c-4.2,0.6-17.4,0.5-21-0.1c-6.2-1.1-10.2-3.3-12.8-6.9
		c-2.8-3.8-4.1-7.6-4.7-13.7C688.7,551.8,688.7,524.4,689,524.1L689,524.1z M747.1,479.6c0.6-2.3,1.7-4.6,3-5.8
		c5.2-5.2,11.6-5.8,16.7-1.5c2.4,2,3,2.8,4.1,5.3c0.8,1.9,0.9,2.5,0.9,5.8c0,3.3-0.1,3.9-0.9,5.9c-1.8,4.3-6.2,7.7-10.5,8
		c-4.1,0.3-7.1-1-10.3-4.5C747.2,489.6,746,484.1,747.1,479.6L747.1,479.6z M749.4,488.6c1.1,2.8,4.3,5.6,7.7,6.5
		c3.4,0.9,5.9,0.2,9.8-3c0.9-0.8,1.6-1.8,2.3-3.4c0.9-2.1,1-2.7,1-5.4c0-2.8-0.1-3.2-1.1-5.4c-0.9-1.9-1.5-2.7-3-3.9
		c-1-0.8-2.6-1.8-3.4-2.1c-5.3-2-11.6,1.2-13.7,7C748.2,481.2,748.4,485.9,749.4,488.6L749.4,488.6z M758,474.9
		c2.4,0,4.6,0.2,5.1,0.3c1.9,0.8,2.7,4.9,1.4,6.8c-0.3,0.5-1.1,1.1-1.7,1.3l-1.1,0.4l1.1,1.3c0.6,0.7,1.5,2.2,2,3.3
		c0.5,1.1,1.1,2,1.3,2.1c0.7,0.5,0.2,0.9-1,0.8l-1.3,0l-1.9-3.3c-2-3.6-2.5-4-4.7-4l-1.4,0l0,3.7l0,3.7l-0.9-0.1l-0.9-0.1l-0.1-8.1
		l-0.1-8.1L758,474.9z M758.5,481.9c2.3,0,2.9-0.1,3.6-0.7c1.7-1.5,0.7-4-1.7-4.3c-1-0.2-4-0.1-4.6,0.1c0,0-0.1,1.1-0.1,2.5l0,2.5
		L758.5,481.9z"/>
	<path id="rect95" class="st1" d="M1418.1-153.9l0,57.1c0,12.7,10.3,23,23,23l63.8,0c12.7,0,23-10.3,23-23l0-57.1
		c0-12.7-10.3-23-23-23l-63.8,0C1428.4-176.8,1418.1-166.5,1418.1-153.9z"/>
	<path id="rect97" class="st1" d="M1418.1-51.6l0,63c0,11,9,20,20,20l69.7,0c11,0,20-9,20-20l0-63c0-11-9-20-20-20l-69.7,0
		C1427.1-71.6,1418.1-62.7,1418.1-51.6z"/>
	<rect id="rect99" x="1473.6" y="-131.1" class="st2" width="224.3" height="11.4"/>
	<rect id="rect101" x="1473.6" y="-25.3" class="st2" width="224.3" height="11.4"/>
	<circle id="path140" class="st3" cx="162.1" cy="-240.7" r="131.2"/>
	<circle id="circle142" class="st3" cx="162.1" cy="515.7" r="131.2"/>
	<circle id="path152" class="st0" cx="162.1" cy="515.7" r="108.1"/>
	<circle id="circle154" class="st0" cx="162.1" cy="-240.7" r="108.1"/>
	<path id="rect68" class="st1" d="M1418.1,371.1l0,57.1c0,12.7,10.3,23,23,23l63.8,0c12.7,0,23-10.3,23-23l0-57.1
		c0-12.7-10.3-23-23-23l-63.8,0C1428.4,348.2,1418.1,358.5,1418.1,371.1z"/>
	<rect id="rect70" x="1473.6" y="394.9" class="st2" width="224.3" height="11.4"/>
	<rect id="rect80" x="1046.6" y="291.9" class="st4" width="77.2" height="46.3"/>
	<rect id="rect82" x="1123.8" y="291.9" class="st3" width="27.8" height="46.3"/>
	<rect id="rect84" x="1018.8" y="291.9" class="st3" width="27.8" height="46.3"/>
	<rect id="rect105" x="1046.6" y="-32.3" class="st5" width="77.2" height="46.3"/>
	<rect id="rect107" x="1123.8" y="-32.3" class="st3" width="27.8" height="46.3"/>
	<rect id="rect109" x="1018.8" y="-32.3" class="st3" width="27.8" height="46.3"/>
	<rect id="rect112" x="313.4" y="37.2" class="st5" width="77.2" height="46.3"/>
	<rect id="rect114" x="390.5" y="37.2" class="st3" width="27.8" height="46.3"/>
	<rect id="rect116" x="285.6" y="37.2" class="st3" width="27.8" height="46.3"/>
	<rect id="rect118" x="691.5" y="-63.2" class="st3" width="92.6" height="61.7"/>
	<rect id="rect122" x="697.9" y="-56.7" width="79.4" height="49.4"/>
	<rect id="rect125" x="663.8" y="-63.2" class="st3" width="27.8" height="61.7"/>
	<rect id="rect128" x="784.2" y="-63.2" class="st3" width="27.8" height="61.7"/>
	<rect id="rect130" x="691.5" y="60.3" class="st3" width="92.6" height="61.7"/>
	<rect id="rect132" x="697.9" y="66.8" width="79.4" height="49.4"/>
	<rect id="rect134" x="663.8" y="60.3" class="st3" width="27.8" height="61.7"/>
	<rect id="rect136" x="784.2" y="60.3" class="st3" width="27.8" height="61.7"/>
	<rect id="rect138" x="691.5" y="183.8" class="st3" width="92.6" height="61.7"/>
	<rect id="rect140" x="697.9" y="190.3" width="79.4" height="49.4"/>
	<rect id="rect142" x="663.8" y="183.8" class="st3" width="27.8" height="61.7"/>
	<rect id="rect144" x="784.2" y="183.8" class="st3" width="27.8" height="61.7"/>
	<rect id="rect146" x="691.5" y="307.3" class="st3" width="92.6" height="61.7"/>
	<rect id="rect148" x="697.9" y="313.8" width="79.4" height="49.4"/>
	<rect id="rect150" x="663.8" y="307.3" class="st3" width="27.8" height="61.7"/>
	<rect id="rect152" x="784.2" y="307.3" class="st3" width="27.8" height="61.7"/>
	<rect id="rect206" x="1014.2" y="60.3" class="st3" width="27.8" height="46.3"/>
	<rect id="rect208" x="1014.2" y="199.2" class="st3" width="27.8" height="46.3"/>
	<rect id="rect210" x="1126.9" y="129.8" class="st3" width="27.8" height="46.3"/>
	<rect id="rect218" x="257.8" y="245.6" class="st3" width="27.8" height="23.2"/>
	<rect id="rect220" x="257.8" y="114.3" class="st3" width="27.8" height="23.2"/>
	<rect id="rect222" x="257.8" y="152.9" class="st3" width="27.8" height="23.2"/>
	<rect id="rect224" x="257.8" y="199.2" class="st3" width="27.8" height="23.2"/>
	<rect id="rect226" x="418.3" y="245.6" class="st3" width="27.8" height="23.2"/>
	<rect id="rect228" x="418.3" y="114.3" class="st3" width="27.8" height="23.2"/>
	<rect id="rect230" x="418.3" y="152.9" class="st3" width="27.8" height="23.2"/>
	<rect id="rect232" x="418.3" y="199.2" class="st3" width="27.8" height="23.2"/>
	<rect id="rect234" x="264.4" y="119.7" class="st2" width="23" height="11.4"/>
	<rect id="rect236" x="264.4" y="158.5" class="st2" width="23" height="11.4"/>
	<rect id="rect238" x="264.4" y="205.2" class="st2" width="23" height="11.4"/>
	<rect id="rect240" x="264.4" y="251.6" class="st2" width="23" height="11.4"/>
	<rect id="rect242" x="416.4" y="119.7" class="st2" width="23" height="11.4"/>
	<rect id="rect244" x="416.4" y="158.5" class="st2" width="23" height="11.4"/>
	<rect id="rect246" x="416.4" y="205.2" class="st2" width="23" height="11.4"/>
	<rect id="rect248" x="416.4" y="251.6" class="st2" width="23" height="11.4"/>
	<path id="rect165" inkscape:connector-curvature="0" class="st6" d="M418.3,114.3H285.6v28.9v96.5v28.9h132.8v-28.9v-96.5V114.3z"
		/>
	<rect id="rect251" x="1023.5" y="217.7" class="st2" width="23" height="11.4"/>
	<rect id="rect253" x="1023.5" y="77.4" class="st2" width="23" height="11.4"/>
	<rect id="rect255" x="1122.1" y="147.7" class="st2" width="23" height="11.4"/>
	<rect id="rect204" x="1042" y="60.3" class="st7" width="84.9" height="185.2"/>
	<ellipse id="path258" cx="393.6" cy="137.5" rx="15.4" ry="15.4"/>
	<g class="st8">
		<path class="st0" d="M426-341.2c0,1.9-0.2,3.7-0.7,5.4c-0.5,1.6-1.2,3.1-2.1,4.4c-0.9,1.3-2,2.5-3.2,3.4c-1.3,1-2.7,1.8-4.3,2.5
			c-1.6,0.7-3.3,1.2-5.1,1.5c-1.8,0.3-3.9,0.5-6.2,0.5h-16.2c-0.7,0-1.4-0.2-2.1-0.7c-0.7-0.5-1-1.4-1-2.6V-382c0-1.2,0.3-2.1,1-2.6
			c0.7-0.5,1.3-0.7,2.1-0.7h14.1c3.7,0,6.7,0.4,9.1,1.1c2.4,0.7,4.3,1.7,5.9,3.1c1.6,1.3,2.8,3,3.6,4.9c0.8,1.9,1.2,4.1,1.2,6.6
			c0,1.5-0.2,2.9-0.5,4.2c-0.4,1.3-0.9,2.6-1.6,3.7c-0.7,1.1-1.5,2.1-2.6,3c-1,0.9-2.2,1.6-3.6,2.2c1.7,0.3,3.3,0.9,4.7,1.7
			s2.8,1.9,3.9,3.2c1.1,1.3,2,2.8,2.6,4.6C425.7-345.2,426-343.3,426-341.2z M413.6-368.9c0-1.5-0.2-2.9-0.6-4.1
			c-0.4-1.2-1.1-2.2-2-3.1c-0.9-0.8-2.1-1.5-3.5-1.9c-1.4-0.4-3.3-0.7-5.7-0.7h-8.5v20.1h9.4c2.1,0,3.9-0.3,5.2-0.8
			c1.3-0.6,2.4-1.3,3.2-2.2c0.9-0.9,1.5-2,1.9-3.3C413.4-366.3,413.6-367.6,413.6-368.9z M417.3-340.7c0-1.8-0.3-3.5-0.9-4.9
			c-0.6-1.4-1.4-2.6-2.6-3.5c-1.1-1-2.5-1.7-4.3-2.2c-1.7-0.5-3.8-0.7-6.4-0.7h-9.8v21.8h11.9c1.9,0,3.5-0.2,4.9-0.7
			c1.4-0.4,2.6-1.1,3.7-2c1.1-0.9,1.9-2,2.5-3.3C417-337.5,417.3-339,417.3-340.7z"/>
		<path class="st0" d="M505.8-324.7c0,0.3-0.1,0.5-0.2,0.7c-0.1,0.2-0.4,0.3-0.7,0.5c-0.3,0.1-0.7,0.2-1.3,0.3
			c-0.5,0.1-1.2,0.1-2,0.1c-0.8,0-1.4,0-1.9-0.1c-0.5-0.1-1-0.2-1.3-0.3c-0.3-0.1-0.5-0.3-0.7-0.5s-0.2-0.4-0.2-0.7v-53.9h-0.1
			l-21.8,54.2c-0.1,0.2-0.2,0.4-0.4,0.6c-0.2,0.2-0.4,0.3-0.8,0.4c-0.3,0.1-0.7,0.2-1.2,0.2c-0.5,0-1,0.1-1.7,0.1
			c-0.7,0-1.2,0-1.7-0.1c-0.5-0.1-0.9-0.2-1.2-0.3c-0.3-0.1-0.6-0.2-0.7-0.4c-0.2-0.2-0.3-0.3-0.4-0.5l-20.9-54.2h0v53.9
			c0,0.3-0.1,0.5-0.2,0.7c-0.1,0.2-0.4,0.3-0.7,0.5c-0.3,0.1-0.8,0.2-1.3,0.3c-0.5,0.1-1.2,0.1-2,0.1c-0.8,0-1.4,0-2-0.1
			c-0.5-0.1-0.9-0.2-1.3-0.3c-0.3-0.1-0.5-0.3-0.6-0.5s-0.2-0.4-0.2-0.7v-57c0-1.3,0.4-2.3,1.1-2.9s1.5-0.9,2.4-0.9h5.1
			c1,0,1.9,0.1,2.7,0.3c0.8,0.2,1.5,0.5,2,0.9c0.6,0.4,1.1,0.9,1.5,1.6c0.4,0.6,0.7,1.4,1,2.2l17.7,44.8h0.2l18.4-44.7
			c0.4-1,0.7-1.8,1.2-2.4s0.9-1.2,1.4-1.6c0.5-0.4,1.1-0.7,1.7-0.9c0.6-0.2,1.3-0.3,2.1-0.3h5.3c0.5,0,0.9,0.1,1.4,0.2
			s0.8,0.4,1.1,0.7c0.3,0.3,0.6,0.7,0.8,1.1c0.2,0.5,0.3,1,0.3,1.7V-324.7z"/>
		<path class="st0" d="M560.3-367.2c0,3.1-0.5,5.9-1.5,8.4c-1,2.5-2.5,4.6-4.4,6.4s-4.2,3.1-7,4.1c-2.8,1-6.1,1.4-9.9,1.4h-7v22.3
			c0,0.3-0.1,0.5-0.2,0.7s-0.4,0.3-0.7,0.5c-0.3,0.1-0.7,0.2-1.2,0.3c-0.5,0.1-1.2,0.1-2,0.1c-0.8,0-1.5,0-2-0.1
			c-0.5-0.1-1-0.2-1.3-0.3c-0.3-0.1-0.5-0.3-0.7-0.5c-0.1-0.2-0.2-0.4-0.2-0.7v-57.1c0-1.3,0.3-2.2,1-2.7s1.4-0.8,2.2-0.8h13.3
			c1.3,0,2.6,0.1,3.9,0.2c1.2,0.1,2.7,0.4,4.4,0.7c1.7,0.4,3.4,1.1,5.1,2.1c1.7,1,3.2,2.2,4.4,3.7s2.1,3.2,2.8,5.1
			S560.3-369.6,560.3-367.2z M551.7-366.6c0-2.5-0.5-4.6-1.4-6.3c-0.9-1.7-2.1-3-3.5-3.8c-1.4-0.8-2.8-1.4-4.3-1.6
			c-1.5-0.2-2.9-0.3-4.3-0.3h-7.6v24.8h7.4c2.5,0,4.6-0.3,6.2-1c1.6-0.6,3-1.5,4.1-2.7c1.1-1.1,2-2.5,2.5-4.1
			C551.4-363,551.7-364.7,551.7-366.6z"/>
		<path class="st0" d="M608.9-327c0,0.6,0,1.1-0.1,1.5c-0.1,0.4-0.2,0.8-0.3,1.1c-0.1,0.3-0.3,0.5-0.6,0.7s-0.5,0.2-0.8,0.2h-34.2
			c-0.4,0-0.8-0.1-1.2-0.2c-0.3-0.1-0.6-0.3-0.9-0.5c-0.2-0.3-0.4-0.6-0.5-1.1c-0.1-0.5-0.2-1.1-0.2-1.8c0-0.6,0-1.2,0.1-1.7
			s0.2-0.9,0.3-1.3c0.2-0.4,0.4-0.7,0.6-1.1c0.2-0.4,0.6-0.8,1-1.2l12.4-12.7c2.9-2.9,5.2-5.6,6.9-7.9c1.7-2.3,3.1-4.5,4-6.4
			c0.9-1.9,1.6-3.7,1.8-5.2c0.3-1.6,0.4-3,0.4-4.4c0-1.4-0.2-2.7-0.7-3.9s-1.1-2.3-2-3.2c-0.9-0.9-2-1.7-3.3-2.2
			c-1.3-0.5-2.8-0.8-4.5-0.8c-2,0-3.8,0.3-5.4,0.8c-1.6,0.5-3,1.1-4.2,1.8c-1.2,0.6-2.2,1.2-3,1.8c-0.8,0.5-1.4,0.8-1.8,0.8
			c-0.2,0-0.4-0.1-0.6-0.2c-0.2-0.1-0.3-0.3-0.4-0.6c-0.1-0.3-0.2-0.7-0.3-1.1c-0.1-0.5-0.1-1.1-0.1-1.7c0-0.5,0-0.9,0-1.2
			c0-0.4,0.1-0.7,0.2-0.9c0.1-0.3,0.2-0.5,0.3-0.7c0.1-0.2,0.4-0.5,0.8-0.8s1-0.8,2-1.4c0.9-0.6,2.1-1.1,3.5-1.7
			c1.4-0.6,3-1,4.7-1.4s3.5-0.6,5.4-0.6c3,0,5.6,0.4,7.9,1.3c2.2,0.8,4.1,2,5.6,3.5c1.5,1.5,2.6,3.2,3.3,5.1c0.7,1.9,1.1,4,1.1,6.2
			c0,2-0.2,3.9-0.5,5.9c-0.4,2-1.1,4.1-2.2,6.4c-1.1,2.3-2.8,4.8-4.9,7.6s-5,6-8.5,9.6l-9.8,10.2H607c0.3,0,0.5,0.1,0.7,0.2
			s0.4,0.4,0.6,0.6c0.2,0.3,0.3,0.6,0.4,1.1C608.9-328.1,608.9-327.6,608.9-327z"/>
		<path class="st0" d="M660-339.3c0,2.7-0.5,5.1-1.4,7.2c-1,2.1-2.3,3.9-4.1,5.3c-1.8,1.4-4,2.5-6.7,3.3s-5.7,1.1-9.1,1.1
			c-3.2,0-6-0.3-8.6-1s-4.7-1.7-6.4-3c-1.8-1.3-3.1-2.9-4-4.8c-0.9-1.9-1.4-4.1-1.4-6.6c0-1.9,0.3-3.7,1-5.4
			c0.6-1.6,1.6-3.1,2.8-4.5s2.7-2.7,4.4-3.9c1.8-1.2,3.7-2.3,5.9-3.4c-1.9-1-3.6-2-5.1-3.1c-1.5-1.1-2.7-2.3-3.7-3.6
			c-1-1.3-1.8-2.7-2.3-4.1s-0.8-3.1-0.8-4.8c0-2.2,0.4-4.2,1.2-6.1c0.8-1.9,2-3.5,3.5-5c1.6-1.4,3.6-2.5,6-3.3
			c2.4-0.8,5.3-1.2,8.5-1.2c3.1,0,5.8,0.4,8.1,1.1c2.3,0.8,4.2,1.8,5.6,3.1c1.5,1.3,2.6,2.8,3.3,4.6c0.7,1.8,1.1,3.6,1.1,5.6
			c0,1.6-0.3,3.2-0.8,4.7c-0.5,1.5-1.3,2.9-2.3,4.3c-1,1.3-2.3,2.6-3.8,3.8c-1.5,1.2-3.2,2.3-5.1,3.3c2.3,1.1,4.3,2.3,6.1,3.4
			c1.8,1.2,3.3,2.4,4.5,3.8c1.2,1.4,2.1,2.8,2.7,4.3S660-341.1,660-339.3z M651.7-338.5c0-1.5-0.3-2.8-0.8-4
			c-0.5-1.2-1.4-2.3-2.5-3.3s-2.5-2-4.1-3c-1.6-1-3.5-2-5.7-3c-2,1-3.8,2-5.3,3c-1.5,1-2.8,2-3.7,3.1c-1,1.1-1.7,2.2-2.2,3.3
			c-0.5,1.2-0.7,2.4-0.7,3.9c0,3.1,1.1,5.5,3.2,7.2c2.1,1.7,5.3,2.5,9.5,2.5c4.1,0,7.2-0.9,9.3-2.6S651.7-335.5,651.7-338.5z
			 M649.7-371.1c0-1.3-0.2-2.6-0.7-3.6c-0.5-1.1-1.1-2-2-2.8c-0.9-0.8-2-1.3-3.3-1.7c-1.3-0.4-2.8-0.6-4.5-0.6
			c-3.4,0-6.1,0.8-7.8,2.3c-1.8,1.6-2.7,3.7-2.7,6.4c0,1.2,0.2,2.4,0.6,3.5c0.4,1.1,1.1,2.1,2,3s2.1,1.9,3.4,2.8s3,1.9,5,2.8
			c3.2-1.7,5.7-3.5,7.4-5.5C648.8-366.5,649.7-368.7,649.7-371.1z"/>
		<path class="st0" d="M710.3-354.6c0,4.8-0.4,9.1-1.1,13s-2,7.3-3.7,10.1c-1.7,2.8-4,5-6.8,6.6c-2.8,1.5-6.3,2.3-10.4,2.3
			c-3.9,0-7.2-0.7-9.8-2.1c-2.7-1.4-4.8-3.4-6.4-6.1c-1.6-2.7-2.8-6-3.5-10s-1-8.5-1-13.6c0-4.7,0.4-9.1,1.1-13
			c0.8-3.9,2-7.3,3.7-10.1c1.7-2.8,4-5,6.8-6.6c2.8-1.5,6.3-2.3,10.3-2.3c3.9,0,7.2,0.7,9.9,2.1c2.7,1.4,4.8,3.4,6.4,6.1
			s2.8,6,3.5,10S710.3-359.7,710.3-354.6z M701.9-354c0-3.1-0.1-5.9-0.3-8.3c-0.2-2.5-0.5-4.6-1-6.5c-0.4-1.9-1-3.5-1.7-4.9
			c-0.7-1.4-1.5-2.5-2.5-3.4c-1-0.9-2.1-1.5-3.3-1.9c-1.2-0.4-2.6-0.6-4.1-0.6c-2.7,0-4.9,0.6-6.6,1.9c-1.7,1.3-3,3-4,5.3
			c-1,2.2-1.6,4.9-2,7.8c-0.4,3-0.5,6.2-0.5,9.7c0,4.6,0.2,8.6,0.7,11.8c0.5,3.2,1.2,5.9,2.3,7.9c1,2,2.4,3.5,4,4.5
			c1.6,0.9,3.6,1.4,5.9,1.4c1.8,0,3.4-0.3,4.7-0.9c1.4-0.6,2.5-1.4,3.5-2.5c1-1.1,1.8-2.4,2.4-3.9c0.6-1.5,1.1-3.2,1.5-5
			s0.6-3.8,0.8-5.9C701.8-349.5,701.9-351.7,701.9-354z"/>
	</g>
	<g class="st8">
		<path class="st0" d="M721.9-19.7c0,0.3,0,0.5-0.1,0.7s-0.1,0.4-0.2,0.5c-0.1,0.1-0.2,0.2-0.3,0.3c-0.1,0.1-0.2,0.1-0.3,0.1h-15.5
			c-0.1,0-0.2,0-0.3-0.1c-0.1-0.1-0.2-0.1-0.3-0.3c-0.1-0.1-0.1-0.3-0.2-0.5s-0.1-0.4-0.1-0.7c0-0.3,0-0.5,0.1-0.7s0.1-0.4,0.2-0.5
			c0.1-0.1,0.2-0.2,0.3-0.3c0.1-0.1,0.2-0.1,0.3-0.1h6.2v-22.5l-5.7,3.4c-0.3,0.2-0.5,0.2-0.7,0.3s-0.3,0-0.4-0.1
			c-0.1-0.1-0.2-0.3-0.2-0.5c0-0.2-0.1-0.5-0.1-0.9c0-0.3,0-0.5,0-0.7c0-0.2,0.1-0.3,0.1-0.5s0.1-0.2,0.2-0.3
			c0.1-0.1,0.2-0.2,0.3-0.3l6.8-4.4c0.1,0,0.1-0.1,0.2-0.1c0.1,0,0.2-0.1,0.3-0.1c0.1,0,0.3,0,0.5-0.1c0.2,0,0.4,0,0.7,0
			c0.4,0,0.7,0,0.9,0c0.2,0,0.4,0.1,0.6,0.1c0.1,0.1,0.2,0.1,0.3,0.2s0.1,0.2,0.1,0.3v26h5.4c0.1,0,0.2,0,0.3,0.1
			c0.1,0.1,0.2,0.2,0.3,0.3c0.1,0.1,0.1,0.3,0.2,0.5S721.9-19.9,721.9-19.7z"/>
		<path class="st0" d="M746.6-33c0,2.3-0.2,4.3-0.5,6.2c-0.4,1.9-1,3.5-1.8,4.8s-1.9,2.4-3.3,3.1c-1.3,0.7-3,1.1-5,1.1
			c-1.9,0-3.4-0.3-4.7-1c-1.3-0.7-2.3-1.6-3.1-2.9s-1.3-2.9-1.7-4.8s-0.5-4-0.5-6.5c0-2.3,0.2-4.3,0.5-6.2c0.4-1.9,1-3.5,1.8-4.9
			c0.8-1.4,1.9-2.4,3.3-3.1s3-1.1,4.9-1.1c1.9,0,3.5,0.3,4.7,1c1.3,0.7,2.3,1.6,3.1,2.9c0.8,1.3,1.3,2.9,1.7,4.8
			C746.4-37.6,746.6-35.4,746.6-33z M742.6-32.7c0-1.5-0.1-2.8-0.2-4c-0.1-1.2-0.3-2.2-0.5-3.1s-0.5-1.7-0.8-2.3
			c-0.3-0.6-0.7-1.2-1.2-1.6s-1-0.7-1.6-0.9c-0.6-0.2-1.2-0.3-2-0.3c-1.3,0-2.4,0.3-3.2,0.9s-1.4,1.5-1.9,2.5
			c-0.5,1.1-0.8,2.3-1,3.8s-0.3,3-0.3,4.6c0,2.2,0.1,4.1,0.3,5.6c0.2,1.5,0.6,2.8,1.1,3.8s1.1,1.7,1.9,2.1c0.8,0.4,1.7,0.7,2.8,0.7
			c0.9,0,1.6-0.1,2.3-0.4s1.2-0.7,1.7-1.2c0.5-0.5,0.9-1.1,1.2-1.8c0.3-0.7,0.5-1.5,0.7-2.4c0.2-0.9,0.3-1.8,0.4-2.8
			C742.5-30.6,742.6-31.6,742.6-32.7z"/>
		<path class="st0" d="M769.2-26.6c0,1.4-0.2,2.6-0.7,3.7c-0.5,1.1-1.2,2-2,2.8c-0.9,0.8-2,1.4-3.3,1.8c-1.3,0.4-2.8,0.6-4.4,0.6
			c-1,0-1.9-0.1-2.8-0.2s-1.6-0.4-2.3-0.6c-0.7-0.2-1.2-0.5-1.7-0.7c-0.4-0.2-0.7-0.4-0.8-0.5c-0.1-0.1-0.2-0.2-0.3-0.3
			c-0.1-0.1-0.1-0.2-0.2-0.4s-0.1-0.3-0.1-0.6c0-0.2,0-0.5,0-0.8c0-0.5,0.1-0.9,0.2-1.1s0.3-0.3,0.5-0.3c0.1,0,0.4,0.1,0.8,0.4
			s0.9,0.5,1.6,0.8s1.4,0.5,2.3,0.8c0.9,0.2,1.8,0.4,2.9,0.4c1,0,1.9-0.1,2.7-0.4c0.8-0.3,1.4-0.6,2-1.1c0.5-0.5,0.9-1,1.2-1.7
			c0.3-0.6,0.4-1.4,0.4-2.1c0-0.8-0.2-1.6-0.5-2.3c-0.3-0.7-0.8-1.3-1.5-1.7c-0.7-0.5-1.5-0.9-2.4-1.1c-1-0.3-2-0.4-3.3-0.4h-2.9
			c-0.1,0-0.2,0-0.4-0.1c-0.1-0.1-0.2-0.1-0.3-0.3c-0.1-0.1-0.2-0.3-0.2-0.5c-0.1-0.2-0.1-0.5-0.1-0.8c0-0.3,0-0.5,0.1-0.7
			c0-0.2,0.1-0.3,0.2-0.5s0.2-0.2,0.3-0.3c0.1-0.1,0.2-0.1,0.4-0.1h2.6c1,0,1.9-0.1,2.7-0.4c0.8-0.3,1.5-0.6,2-1.1
			c0.6-0.5,1-1.1,1.3-1.8c0.3-0.7,0.4-1.4,0.4-2.3c0-0.6-0.1-1.2-0.3-1.8c-0.2-0.6-0.5-1-0.9-1.5c-0.4-0.4-0.9-0.7-1.5-1
			c-0.6-0.2-1.3-0.4-2.1-0.4c-0.9,0-1.7,0.1-2.4,0.4c-0.7,0.3-1.4,0.6-2,0.9c-0.6,0.3-1.1,0.6-1.4,0.9c-0.4,0.3-0.6,0.4-0.8,0.4
			c-0.1,0-0.2,0-0.3-0.1s-0.2-0.1-0.2-0.2c-0.1-0.1-0.1-0.3-0.1-0.5c0-0.2,0-0.5,0-0.8c0-0.2,0-0.4,0-0.6c0-0.2,0-0.3,0.1-0.5
			s0.1-0.2,0.2-0.4c0.1-0.1,0.2-0.2,0.3-0.4c0.1-0.1,0.4-0.4,0.9-0.6s1-0.5,1.6-0.8c0.6-0.3,1.4-0.5,2.2-0.7
			c0.8-0.2,1.8-0.3,2.7-0.3c1.4,0,2.6,0.2,3.6,0.5c1,0.4,1.9,0.8,2.6,1.5c0.7,0.6,1.2,1.4,1.6,2.3c0.3,0.9,0.5,1.9,0.5,3
			c0,0.9-0.1,1.8-0.4,2.6c-0.2,0.8-0.6,1.5-1.1,2.1c-0.5,0.6-1.1,1.1-1.7,1.6c-0.7,0.4-1.5,0.7-2.4,0.9v0c1,0.1,2,0.4,2.8,0.8
			c0.8,0.4,1.6,0.9,2.2,1.5c0.6,0.6,1.1,1.3,1.4,2.1C769-28.4,769.2-27.5,769.2-26.6z"/>
	</g>
	<g class="st8">
		<path class="st0" d="M722.7,104.3c0,0.3,0,0.5-0.1,0.7s-0.1,0.4-0.2,0.5c-0.1,0.1-0.2,0.2-0.3,0.3c-0.1,0.1-0.2,0.1-0.3,0.1h-15.5
			c-0.1,0-0.2,0-0.3-0.1c-0.1-0.1-0.2-0.1-0.3-0.3c-0.1-0.1-0.1-0.3-0.2-0.5s-0.1-0.4-0.1-0.7c0-0.3,0-0.5,0.1-0.7s0.1-0.4,0.2-0.5
			c0.1-0.1,0.2-0.2,0.3-0.3c0.1-0.1,0.2-0.1,0.3-0.1h6.2V80.1l-5.7,3.4c-0.3,0.2-0.5,0.2-0.7,0.3s-0.3,0-0.4-0.1
			c-0.1-0.1-0.2-0.3-0.2-0.5c0-0.2-0.1-0.5-0.1-0.9c0-0.3,0-0.5,0-0.7c0-0.2,0.1-0.3,0.1-0.5s0.1-0.2,0.2-0.3
			c0.1-0.1,0.2-0.2,0.3-0.3l6.8-4.4c0.1,0,0.1-0.1,0.2-0.1c0.1,0,0.2-0.1,0.3-0.1c0.1,0,0.3,0,0.5-0.1c0.2,0,0.4,0,0.7,0
			c0.4,0,0.7,0,0.9,0c0.2,0,0.4,0.1,0.6,0.1c0.1,0.1,0.2,0.1,0.3,0.2s0.1,0.2,0.1,0.3v26h5.4c0.1,0,0.2,0,0.3,0.1
			c0.1,0.1,0.2,0.2,0.3,0.3c0.1,0.1,0.1,0.3,0.2,0.5S722.7,104,722.7,104.3z"/>
		<path class="st0" d="M747.4,90.9c0,2.3-0.2,4.3-0.5,6.2c-0.4,1.9-1,3.5-1.8,4.8s-1.9,2.4-3.3,3.1c-1.3,0.7-3,1.1-5,1.1
			c-1.9,0-3.4-0.3-4.7-1c-1.3-0.7-2.3-1.6-3.1-2.9s-1.3-2.9-1.7-4.8s-0.5-4-0.5-6.5c0-2.3,0.2-4.3,0.5-6.2c0.4-1.9,1-3.5,1.8-4.9
			c0.8-1.4,1.9-2.4,3.3-3.1s3-1.1,4.9-1.1c1.9,0,3.5,0.3,4.7,1c1.3,0.7,2.3,1.6,3.1,2.9c0.8,1.3,1.3,2.9,1.7,4.8
			C747.3,86.3,747.4,88.5,747.4,90.9z M743.4,91.2c0-1.5-0.1-2.8-0.2-4c-0.1-1.2-0.3-2.2-0.5-3.1s-0.5-1.7-0.8-2.3
			c-0.3-0.6-0.7-1.2-1.2-1.6s-1-0.7-1.6-0.9c-0.6-0.2-1.2-0.3-2-0.3c-1.3,0-2.4,0.3-3.2,0.9s-1.4,1.5-1.9,2.5
			c-0.5,1.1-0.8,2.3-1,3.8s-0.3,3-0.3,4.6c0,2.2,0.1,4.1,0.3,5.6c0.2,1.5,0.6,2.8,1.1,3.8s1.1,1.7,1.9,2.1c0.8,0.4,1.7,0.7,2.8,0.7
			c0.9,0,1.6-0.1,2.3-0.4s1.2-0.7,1.7-1.2c0.5-0.5,0.9-1.1,1.2-1.8c0.3-0.7,0.5-1.5,0.7-2.4c0.2-0.9,0.3-1.8,0.4-2.8
			C743.4,93.4,743.4,92.3,743.4,91.2z"/>
		<path class="st0" d="M770,97.3c0,1.4-0.2,2.6-0.7,3.7c-0.5,1.1-1.2,2-2,2.8c-0.9,0.8-2,1.4-3.3,1.8c-1.3,0.4-2.8,0.6-4.4,0.6
			c-1,0-1.9-0.1-2.8-0.2s-1.6-0.4-2.3-0.6c-0.7-0.2-1.2-0.5-1.7-0.7c-0.4-0.2-0.7-0.4-0.8-0.5c-0.1-0.1-0.2-0.2-0.3-0.3
			c-0.1-0.1-0.1-0.2-0.2-0.4s-0.1-0.3-0.1-0.6c0-0.2,0-0.5,0-0.8c0-0.5,0.1-0.9,0.2-1.1s0.3-0.3,0.5-0.3c0.1,0,0.4,0.1,0.8,0.4
			s0.9,0.5,1.6,0.8s1.4,0.5,2.3,0.8c0.9,0.2,1.8,0.4,2.9,0.4c1,0,1.9-0.1,2.7-0.4c0.8-0.3,1.4-0.6,2-1.1c0.5-0.5,0.9-1,1.2-1.7
			c0.3-0.6,0.4-1.4,0.4-2.1c0-0.8-0.2-1.6-0.5-2.3c-0.3-0.7-0.8-1.3-1.5-1.7c-0.7-0.5-1.5-0.9-2.4-1.1c-1-0.3-2-0.4-3.3-0.4h-2.9
			c-0.1,0-0.2,0-0.4-0.1c-0.1-0.1-0.2-0.1-0.3-0.3c-0.1-0.1-0.2-0.3-0.2-0.5c-0.1-0.2-0.1-0.5-0.1-0.8c0-0.3,0-0.5,0.1-0.7
			c0-0.2,0.1-0.3,0.2-0.5s0.2-0.2,0.3-0.3c0.1-0.1,0.2-0.1,0.4-0.1h2.6c1,0,1.9-0.1,2.7-0.4c0.8-0.3,1.5-0.6,2-1.1
			c0.6-0.5,1-1.1,1.3-1.8c0.3-0.7,0.4-1.4,0.4-2.3c0-0.6-0.1-1.2-0.3-1.8c-0.2-0.6-0.5-1-0.9-1.5c-0.4-0.4-0.9-0.7-1.5-1
			c-0.6-0.2-1.3-0.4-2.1-0.4c-0.9,0-1.7,0.1-2.4,0.4c-0.7,0.3-1.4,0.6-2,0.9c-0.6,0.3-1.1,0.6-1.4,0.9c-0.4,0.3-0.6,0.4-0.8,0.4
			c-0.1,0-0.2,0-0.3-0.1s-0.2-0.1-0.2-0.2c-0.1-0.1-0.1-0.3-0.1-0.5c0-0.2,0-0.5,0-0.8c0-0.2,0-0.4,0-0.6c0-0.2,0-0.3,0.1-0.5
			s0.1-0.2,0.2-0.4c0.1-0.1,0.2-0.2,0.3-0.4c0.1-0.1,0.4-0.4,0.9-0.6s1-0.5,1.6-0.8c0.6-0.3,1.4-0.5,2.2-0.7
			c0.8-0.2,1.8-0.3,2.7-0.3c1.4,0,2.6,0.2,3.6,0.5c1,0.4,1.9,0.8,2.6,1.5c0.7,0.6,1.2,1.4,1.6,2.3c0.3,0.9,0.5,1.9,0.5,3
			c0,0.9-0.1,1.8-0.4,2.6c-0.2,0.8-0.6,1.5-1.1,2.1c-0.5,0.6-1.1,1.1-1.7,1.6c-0.7,0.4-1.5,0.7-2.4,0.9v0c1,0.1,2,0.4,2.8,0.8
			c0.8,0.4,1.6,0.9,2.2,1.5c0.6,0.6,1.1,1.3,1.4,2.1C769.8,95.5,770,96.4,770,97.3z"/>
	</g>
	<g class="st8">
		<path class="st0" d="M1276.7-111.1c0,2.9-0.5,5.5-1.6,7.8s-2.6,4.2-4.5,5.8c-1.9,1.6-4.1,2.8-6.7,3.6c-2.6,0.8-5.3,1.2-8.3,1.2
			c-2.1,0-4-0.2-5.8-0.5c-1.8-0.4-3.4-0.8-4.7-1.3c-1.4-0.5-2.6-1-3.5-1.6c-0.9-0.5-1.6-1-2-1.4s-0.6-0.9-0.8-1.5
			c-0.2-0.6-0.3-1.4-0.3-2.4c0-0.7,0-1.3,0.1-1.7c0.1-0.5,0.2-0.8,0.3-1.1c0.1-0.3,0.3-0.5,0.5-0.6c0.2-0.1,0.4-0.2,0.7-0.2
			c0.4,0,1.1,0.3,1.9,0.8c0.8,0.5,1.9,1.1,3.1,1.8c1.3,0.6,2.8,1.2,4.6,1.8c1.8,0.6,3.9,0.8,6.2,0.8c1.8,0,3.4-0.2,4.9-0.7
			c1.5-0.5,2.8-1.2,3.8-2c1.1-0.9,1.9-2,2.5-3.2c0.6-1.3,0.9-2.7,0.9-4.4c0-1.8-0.4-3.3-1.2-4.5c-0.8-1.2-1.9-2.3-3.2-3.3
			c-1.3-0.9-2.8-1.8-4.5-2.6c-1.7-0.8-3.4-1.6-5.1-2.4s-3.5-1.7-5.1-2.7c-1.7-1-3.1-2.2-4.5-3.5c-1.3-1.3-2.4-2.9-3.2-4.7
			s-1.2-4-1.2-6.5c0-2.6,0.5-4.9,1.4-6.9c0.9-2,2.2-3.7,3.9-5.1c1.7-1.4,3.7-2.4,6-3.1s4.8-1.1,7.5-1.1c1.4,0,2.8,0.1,4.1,0.4
			c1.4,0.2,2.7,0.6,3.9,1c1.2,0.4,2.3,0.8,3.3,1.3c1,0.5,1.6,0.9,1.9,1.2c0.3,0.3,0.5,0.5,0.6,0.7c0.1,0.2,0.2,0.4,0.2,0.7
			c0.1,0.3,0.1,0.6,0.1,1c0,0.4,0,0.9,0,1.5c0,0.6,0,1.1-0.1,1.5c0,0.4-0.1,0.8-0.2,1.1c-0.1,0.3-0.2,0.5-0.4,0.7
			c-0.2,0.1-0.4,0.2-0.6,0.2c-0.4,0-0.9-0.2-1.7-0.7c-0.8-0.4-1.7-0.9-2.8-1.5c-1.1-0.6-2.4-1.1-3.9-1.5c-1.5-0.5-3.2-0.7-5-0.7
			c-1.7,0-3.2,0.2-4.5,0.7c-1.3,0.5-2.3,1.1-3.2,1.8s-1.5,1.7-1.9,2.7c-0.4,1.1-0.6,2.2-0.6,3.4c0,1.7,0.4,3.2,1.2,4.5
			c0.8,1.2,1.9,2.3,3.2,3.3c1.3,1,2.8,1.8,4.5,2.6c1.7,0.8,3.4,1.6,5.2,2.4c1.8,0.8,3.5,1.7,5.2,2.7s3.2,2.1,4.5,3.4
			c1.3,1.3,2.4,2.9,3.2,4.7C1276.3-115.7,1276.7-113.6,1276.7-111.1z"/>
		<path class="st0" d="M1336.1-125.6c0,5.4-0.7,10-2.1,14c-1.4,4-3.4,7.3-6,10c-2.6,2.6-5.9,4.6-9.7,5.9s-8.4,2-13.7,2h-13.1
			c-0.7,0-1.4-0.2-2.1-0.7c-0.7-0.5-1-1.4-1-2.6v-55.2c0-1.2,0.3-2.1,1-2.6c0.7-0.5,1.3-0.7,2.1-0.7h14c5.4,0,9.9,0.7,13.6,2.1
			c3.7,1.4,6.8,3.4,9.3,6s4.4,5.8,5.7,9.5C1335.5-134.5,1336.1-130.3,1336.1-125.6z M1327.5-125.3c0-3.4-0.4-6.5-1.2-9.4
			c-0.8-2.9-2.1-5.4-3.9-7.5c-1.8-2.1-4-3.7-6.7-4.9c-2.7-1.2-6.2-1.8-10.5-1.8h-8.4v48.2h8.5c4,0,7.3-0.5,10-1.5
			c2.7-1,5-2.5,6.8-4.5c1.8-2,3.2-4.6,4.1-7.7C1327-117.4,1327.5-121.1,1327.5-125.3z"/>
		<path class="st0" d="M1400.7-125.4c0,5-0.6,9.5-1.8,13.5c-1.2,4-2.9,7.4-5.3,10.3c-2.3,2.8-5.3,5-8.8,6.5
			c-3.5,1.5-7.7,2.3-12.4,2.3c-4.7,0-8.7-0.7-12.1-2.1c-3.4-1.4-6.2-3.4-8.4-6.1c-2.2-2.6-3.9-5.9-5-9.9s-1.6-8.4-1.6-13.5
			c0-4.9,0.6-9.3,1.8-13.3c1.2-4,3-7.4,5.3-10.2c2.4-2.8,5.3-4.9,8.9-6.5c3.5-1.5,7.7-2.3,12.4-2.3c4.6,0,8.5,0.7,11.9,2.1
			c3.4,1.4,6.2,3.4,8.4,6c2.2,2.6,3.9,5.9,5,9.8C1400.1-134.9,1400.7-130.4,1400.7-125.4z M1392-124.9c0-3.5-0.3-6.8-0.9-9.8
			c-0.6-3-1.7-5.6-3.1-7.8c-1.4-2.2-3.4-3.9-5.8-5.2c-2.4-1.2-5.4-1.9-9-1.9c-3.6,0-6.6,0.7-9,2c-2.4,1.3-4.4,3.1-5.9,5.4
			c-1.5,2.2-2.6,4.8-3.3,7.8s-1,6.1-1,9.4c0,3.6,0.3,7,0.9,10.1c0.6,3.1,1.6,5.7,3.1,7.9c1.4,2.2,3.4,3.9,5.8,5.2s5.4,1.8,9.1,1.8
			c3.6,0,6.6-0.7,9.1-2s4.4-3.2,5.9-5.4c1.5-2.3,2.6-4.9,3.2-7.9C1391.7-118.3,1392-121.5,1392-124.9z"/>
	</g>
	<g class="st8">
		<path class="st0" d="M1297.2,3.1c0,0.5,0,1,0,1.3c0,0.4-0.1,0.7-0.2,1c-0.1,0.3-0.2,0.5-0.3,0.8c-0.1,0.2-0.4,0.5-0.7,0.8
			c-0.3,0.3-1,0.8-2,1.5c-1,0.7-2.3,1.3-3.8,1.9c-1.5,0.6-3.3,1.1-5.2,1.6c-2,0.4-4.1,0.6-6.4,0.6c-4,0-7.7-0.7-10.9-2
			c-3.2-1.3-6-3.3-8.3-5.9c-2.3-2.6-4-5.8-5.3-9.7c-1.2-3.8-1.8-8.3-1.8-13.3c0-5.1,0.7-9.7,2-13.7c1.3-4,3.2-7.4,5.6-10.2
			c2.4-2.8,5.3-4.9,8.6-6.4c3.3-1.5,7-2.2,11.1-2.2c1.8,0,3.5,0.2,5.2,0.5s3.3,0.8,4.7,1.3s2.7,1.1,3.8,1.8c1.1,0.7,1.9,1.2,2.3,1.7
			s0.7,0.8,0.8,1c0.1,0.2,0.2,0.5,0.3,0.8c0.1,0.3,0.1,0.7,0.2,1.1c0,0.4,0.1,0.9,0.1,1.5c0,0.6,0,1.2-0.1,1.6
			c-0.1,0.4-0.2,0.8-0.3,1.1c-0.1,0.3-0.3,0.5-0.5,0.7c-0.2,0.1-0.4,0.2-0.7,0.2c-0.4,0-1.1-0.3-1.9-0.9c-0.8-0.6-1.8-1.3-3.1-2.1
			c-1.3-0.7-2.8-1.4-4.6-2.1c-1.8-0.6-4-0.9-6.5-0.9c-2.8,0-5.3,0.5-7.5,1.7c-2.3,1.1-4.2,2.7-5.8,4.9c-1.6,2.1-2.8,4.7-3.7,7.8
			c-0.9,3.1-1.3,6.6-1.3,10.6c0,3.9,0.4,7.4,1.3,10.4c0.8,3,2.1,5.5,3.7,7.6s3.5,3.6,5.8,4.6c2.3,1,4.9,1.6,7.8,1.6
			c2.5,0,4.6-0.3,6.5-0.9c1.8-0.6,3.4-1.3,4.7-2c1.3-0.7,2.4-1.4,3.2-2c0.8-0.6,1.5-0.9,2-0.9c0.2,0,0.4,0,0.6,0.1s0.3,0.3,0.4,0.6
			c0.1,0.3,0.2,0.6,0.2,1.1S1297.2,2.3,1297.2,3.1z"/>
		<path class="st0" d="M1341.4-5.5c0,2.9-0.5,5.5-1.6,7.8s-2.6,4.2-4.5,5.8c-1.9,1.6-4.1,2.8-6.7,3.6c-2.6,0.8-5.3,1.2-8.3,1.2
			c-2.1,0-4-0.2-5.8-0.5c-1.8-0.4-3.4-0.8-4.7-1.3c-1.4-0.5-2.6-1-3.5-1.6c-0.9-0.5-1.6-1-2-1.4c-0.4-0.4-0.6-0.9-0.8-1.5
			c-0.2-0.6-0.3-1.4-0.3-2.4c0-0.7,0-1.3,0.1-1.7c0.1-0.5,0.2-0.8,0.3-1.1c0.1-0.3,0.3-0.5,0.5-0.6c0.2-0.1,0.4-0.2,0.7-0.2
			c0.4,0,1.1,0.3,1.9,0.8c0.8,0.5,1.9,1.1,3.1,1.8c1.3,0.6,2.8,1.2,4.6,1.8c1.8,0.6,3.9,0.8,6.2,0.8c1.8,0,3.4-0.2,4.9-0.7
			c1.5-0.5,2.8-1.2,3.8-2c1.1-0.9,1.9-2,2.5-3.2c0.6-1.3,0.9-2.7,0.9-4.4c0-1.8-0.4-3.3-1.2-4.5c-0.8-1.2-1.9-2.3-3.2-3.3
			c-1.3-0.9-2.8-1.8-4.5-2.6c-1.7-0.8-3.4-1.6-5.1-2.4s-3.5-1.7-5.1-2.7c-1.7-1-3.1-2.2-4.5-3.5c-1.3-1.3-2.4-2.9-3.2-4.7
			s-1.2-4-1.2-6.5c0-2.6,0.5-4.9,1.4-6.9c0.9-2,2.2-3.7,3.9-5.1c1.7-1.4,3.7-2.4,6-3.1s4.8-1.1,7.5-1.1c1.4,0,2.8,0.1,4.1,0.4
			c1.4,0.2,2.7,0.6,3.9,1c1.2,0.4,2.3,0.8,3.3,1.3c1,0.5,1.6,0.9,1.9,1.2c0.3,0.3,0.5,0.5,0.6,0.7c0.1,0.2,0.2,0.4,0.2,0.7
			c0.1,0.3,0.1,0.6,0.1,1c0,0.4,0,0.9,0,1.5c0,0.6,0,1.1-0.1,1.5c0,0.4-0.1,0.8-0.2,1.1c-0.1,0.3-0.2,0.5-0.4,0.7
			c-0.2,0.1-0.4,0.2-0.6,0.2c-0.4,0-0.9-0.2-1.7-0.7c-0.8-0.4-1.7-0.9-2.8-1.5c-1.1-0.6-2.4-1.1-3.9-1.5c-1.5-0.5-3.2-0.7-5-0.7
			c-1.7,0-3.2,0.2-4.5,0.7c-1.3,0.5-2.3,1.1-3.2,1.8s-1.5,1.7-1.9,2.7c-0.4,1.1-0.6,2.2-0.6,3.4c0,1.7,0.4,3.2,1.2,4.5
			c0.8,1.2,1.9,2.3,3.2,3.3c1.3,1,2.8,1.8,4.5,2.6c1.7,0.8,3.4,1.6,5.2,2.4s3.5,1.7,5.2,2.7s3.2,2.1,4.5,3.4
			c1.3,1.3,2.4,2.9,3.2,4.7C1341-10.1,1341.4-8,1341.4-5.5z"/>
		<path class="st0" d="M1394-5.9c0,1.9-0.2,3.7-0.7,5.4c-0.5,1.6-1.2,3.1-2.1,4.4c-0.9,1.3-2,2.5-3.2,3.4c-1.3,1-2.7,1.8-4.3,2.5
			c-1.6,0.7-3.3,1.2-5.1,1.5c-1.8,0.3-3.9,0.5-6.2,0.5h-16.2c-0.7,0-1.4-0.2-2.1-0.7c-0.7-0.5-1-1.4-1-2.6v-55.2
			c0-1.2,0.3-2.1,1-2.6c0.7-0.5,1.3-0.7,2.1-0.7h14.1c3.7,0,6.7,0.4,9.1,1.1c2.4,0.7,4.3,1.7,5.9,3.1c1.6,1.3,2.8,3,3.6,4.9
			c0.8,1.9,1.2,4.1,1.2,6.6c0,1.5-0.2,2.9-0.5,4.2c-0.4,1.3-0.9,2.6-1.6,3.7c-0.7,1.1-1.5,2.1-2.6,3c-1,0.9-2.2,1.6-3.6,2.2
			c1.7,0.3,3.3,0.9,4.7,1.7s2.8,1.9,3.9,3.2c1.1,1.3,2,2.8,2.6,4.6C1393.6-10,1394-8,1394-5.9z M1381.6-33.6c0-1.5-0.2-2.9-0.6-4.1
			c-0.4-1.2-1.1-2.2-2-3.1c-0.9-0.8-2.1-1.5-3.5-1.9c-1.4-0.4-3.3-0.7-5.7-0.7h-8.5v20.1h9.4c2.1,0,3.9-0.3,5.2-0.8
			c1.3-0.6,2.4-1.3,3.2-2.2c0.9-0.9,1.5-2,1.9-3.3C1381.4-31,1381.6-32.3,1381.6-33.6z M1385.3-5.4c0-1.8-0.3-3.5-0.9-4.9
			c-0.6-1.4-1.4-2.6-2.6-3.5c-1.1-1-2.5-1.7-4.3-2.2c-1.7-0.5-3.8-0.7-6.4-0.7h-9.8V5h11.9c1.9,0,3.5-0.2,4.9-0.7
			c1.4-0.4,2.6-1.1,3.7-2c1.1-0.9,1.9-2,2.5-3.3C1385-2.2,1385.3-3.7,1385.3-5.4z"/>
	</g>
	<g class="st8">
		<path class="st0" d="M1280.8,99.3c0,2.9-0.5,5.5-1.6,7.8s-2.6,4.2-4.5,5.8c-1.9,1.6-4.1,2.8-6.7,3.6c-2.6,0.8-5.3,1.2-8.3,1.2
			c-2.1,0-4-0.2-5.8-0.5c-1.8-0.4-3.4-0.8-4.7-1.3c-1.4-0.5-2.6-1-3.5-1.6c-0.9-0.5-1.6-1-2-1.4s-0.6-0.9-0.8-1.5
			c-0.2-0.6-0.3-1.4-0.3-2.4c0-0.7,0-1.3,0.1-1.7c0.1-0.5,0.2-0.8,0.3-1.1c0.1-0.3,0.3-0.5,0.5-0.6c0.2-0.1,0.4-0.2,0.7-0.2
			c0.4,0,1.1,0.3,1.9,0.8c0.8,0.5,1.9,1.1,3.1,1.8c1.3,0.6,2.8,1.2,4.6,1.8c1.8,0.6,3.9,0.8,6.2,0.8c1.8,0,3.4-0.2,4.9-0.7
			c1.5-0.5,2.8-1.2,3.8-2c1.1-0.9,1.9-2,2.5-3.2c0.6-1.3,0.9-2.7,0.9-4.4c0-1.8-0.4-3.3-1.2-4.5c-0.8-1.2-1.9-2.3-3.2-3.3
			c-1.3-0.9-2.8-1.8-4.5-2.6c-1.7-0.8-3.4-1.6-5.1-2.4s-3.5-1.7-5.1-2.7c-1.7-1-3.1-2.2-4.5-3.5c-1.3-1.3-2.4-2.9-3.2-4.7
			s-1.2-4-1.2-6.5c0-2.6,0.5-4.9,1.4-6.9c0.9-2,2.2-3.7,3.9-5.1c1.7-1.4,3.7-2.4,6-3.1s4.8-1.1,7.5-1.1c1.4,0,2.8,0.1,4.1,0.4
			c1.4,0.2,2.7,0.6,3.9,1c1.2,0.4,2.3,0.8,3.3,1.3c1,0.5,1.6,0.9,1.9,1.2c0.3,0.3,0.5,0.5,0.6,0.7c0.1,0.2,0.2,0.4,0.2,0.7
			c0.1,0.3,0.1,0.6,0.1,1c0,0.4,0,0.9,0,1.5c0,0.6,0,1.1-0.1,1.5c0,0.4-0.1,0.8-0.2,1.1c-0.1,0.3-0.2,0.5-0.4,0.7
			c-0.2,0.1-0.4,0.2-0.6,0.2c-0.4,0-0.9-0.2-1.7-0.7c-0.8-0.4-1.7-0.9-2.8-1.5c-1.1-0.6-2.4-1.1-3.9-1.5c-1.5-0.5-3.2-0.7-5-0.7
			c-1.7,0-3.2,0.2-4.5,0.7c-1.3,0.5-2.3,1.1-3.2,1.8s-1.5,1.7-1.9,2.7c-0.4,1.1-0.6,2.2-0.6,3.4c0,1.7,0.4,3.2,1.2,4.5
			c0.8,1.2,1.9,2.3,3.2,3.3c1.3,1,2.8,1.8,4.5,2.6c1.7,0.8,3.4,1.6,5.2,2.4s3.5,1.7,5.2,2.7s3.2,2.1,4.5,3.4
			c1.3,1.3,2.4,2.9,3.2,4.7C1280.4,94.7,1280.8,96.8,1280.8,99.3z"/>
		<path class="st0" d="M1340.2,84.8c0,5.4-0.7,10-2.1,14c-1.4,4-3.4,7.3-6,10c-2.6,2.6-5.9,4.6-9.7,5.9s-8.4,2-13.7,2h-13.1
			c-0.7,0-1.4-0.2-2.1-0.7c-0.7-0.5-1-1.4-1-2.6V58.1c0-1.2,0.3-2.1,1-2.6c0.7-0.5,1.3-0.7,2.1-0.7h14c5.4,0,9.9,0.7,13.6,2.1
			c3.7,1.4,6.8,3.4,9.3,6c2.5,2.6,4.4,5.8,5.7,9.5C1339.6,76,1340.2,80.1,1340.2,84.8z M1331.6,85.1c0-3.4-0.4-6.5-1.2-9.4
			c-0.8-2.9-2.1-5.4-3.9-7.5c-1.8-2.1-4-3.7-6.7-4.9c-2.7-1.2-6.2-1.8-10.5-1.8h-8.4v48.2h8.5c4,0,7.3-0.5,10-1.5
			c2.7-1,5-2.5,6.8-4.5c1.8-2,3.2-4.6,4.1-7.7C1331.1,93,1331.6,89.3,1331.6,85.1z"/>
		<path class="st0" d="M1397.9,113.7c0.3,0.7,0.4,1.3,0.4,1.7c0,0.4-0.1,0.8-0.4,1c-0.3,0.2-0.7,0.4-1.3,0.4
			c-0.6,0.1-1.4,0.1-2.4,0.1s-1.8,0-2.4-0.1c-0.6,0-1-0.1-1.3-0.2c-0.3-0.1-0.5-0.3-0.7-0.5s-0.3-0.4-0.4-0.7l-5.3-15.1h-25.8
			l-5.1,14.9c-0.1,0.3-0.2,0.5-0.4,0.7c-0.2,0.2-0.4,0.4-0.7,0.5c-0.3,0.1-0.7,0.2-1.3,0.3c-0.6,0.1-1.3,0.1-2.2,0.1
			c-0.9,0-1.7,0-2.3-0.1c-0.6-0.1-1-0.2-1.2-0.5c-0.2-0.2-0.4-0.6-0.3-1c0-0.4,0.2-1,0.4-1.7l20.8-57.5c0.1-0.4,0.3-0.6,0.5-0.9
			c0.2-0.2,0.5-0.4,0.9-0.5c0.4-0.1,0.9-0.2,1.5-0.3s1.4-0.1,2.4-0.1c1,0,1.9,0,2.5,0.1s1.2,0.1,1.6,0.3c0.4,0.1,0.7,0.3,1,0.6
			c0.2,0.2,0.4,0.5,0.5,0.9L1397.9,113.7z M1371.2,63L1371.2,63l-10.7,30.9h21.5L1371.2,63z"/>
	</g>
	<g class="st8">
		<path class="st0" d="M1296.5,204.8c0,2.9-0.5,5.5-1.6,7.8s-2.6,4.2-4.5,5.8c-1.9,1.6-4.1,2.8-6.7,3.6c-2.6,0.8-5.3,1.2-8.3,1.2
			c-2.1,0-4-0.2-5.8-0.5c-1.8-0.4-3.4-0.8-4.7-1.3c-1.4-0.5-2.6-1-3.5-1.6c-0.9-0.5-1.6-1-2-1.4s-0.6-0.9-0.8-1.5
			c-0.2-0.6-0.3-1.4-0.3-2.4c0-0.7,0-1.3,0.1-1.7c0.1-0.5,0.2-0.8,0.3-1.1c0.1-0.3,0.3-0.5,0.5-0.6c0.2-0.1,0.4-0.2,0.7-0.2
			c0.4,0,1.1,0.3,1.9,0.8c0.8,0.5,1.9,1.1,3.1,1.8c1.3,0.6,2.8,1.2,4.6,1.8c1.8,0.6,3.9,0.8,6.2,0.8c1.8,0,3.4-0.2,4.9-0.7
			c1.5-0.5,2.8-1.2,3.8-2c1.1-0.9,1.9-2,2.5-3.2c0.6-1.3,0.9-2.7,0.9-4.4c0-1.8-0.4-3.3-1.2-4.5c-0.8-1.2-1.9-2.3-3.2-3.3
			c-1.3-0.9-2.8-1.8-4.5-2.6c-1.7-0.8-3.4-1.6-5.1-2.4s-3.5-1.7-5.1-2.7c-1.7-1-3.1-2.2-4.5-3.5c-1.3-1.3-2.4-2.9-3.2-4.7
			s-1.2-4-1.2-6.5c0-2.6,0.5-4.9,1.4-6.9c0.9-2,2.2-3.7,3.9-5.1c1.7-1.4,3.7-2.4,6-3.1s4.8-1.1,7.5-1.1c1.4,0,2.8,0.1,4.1,0.4
			c1.4,0.2,2.7,0.6,3.9,1c1.2,0.4,2.3,0.8,3.3,1.3c1,0.5,1.6,0.9,1.9,1.2c0.3,0.3,0.5,0.5,0.6,0.7c0.1,0.2,0.2,0.4,0.2,0.7
			c0.1,0.3,0.1,0.6,0.1,1c0,0.4,0,0.9,0,1.5c0,0.6,0,1.1-0.1,1.5c0,0.4-0.1,0.8-0.2,1.1c-0.1,0.3-0.2,0.5-0.4,0.7
			c-0.2,0.1-0.4,0.2-0.6,0.2c-0.4,0-0.9-0.2-1.7-0.7c-0.8-0.4-1.7-0.9-2.8-1.5c-1.1-0.6-2.4-1.1-3.9-1.5c-1.5-0.5-3.2-0.7-5-0.7
			c-1.7,0-3.2,0.2-4.5,0.7c-1.3,0.5-2.3,1.1-3.2,1.8s-1.5,1.7-1.9,2.7c-0.4,1.1-0.6,2.2-0.6,3.4c0,1.7,0.4,3.2,1.2,4.5
			c0.8,1.2,1.9,2.3,3.2,3.3c1.3,1,2.8,1.8,4.5,2.6c1.7,0.8,3.4,1.6,5.2,2.4s3.5,1.7,5.2,2.7s3.2,2.1,4.5,3.4
			c1.3,1.3,2.4,2.9,3.2,4.7C1296.1,200.3,1296.5,202.4,1296.5,204.8z"/>
		<path class="st0" d="M1349.7,213.5c0,0.5,0,1,0,1.3c0,0.4-0.1,0.7-0.2,1c-0.1,0.3-0.2,0.5-0.3,0.8c-0.1,0.2-0.4,0.5-0.7,0.8
			c-0.3,0.3-1,0.8-2,1.5c-1,0.7-2.3,1.3-3.8,1.9c-1.5,0.6-3.3,1.1-5.2,1.6c-2,0.4-4.1,0.6-6.4,0.6c-4,0-7.7-0.7-10.9-2
			c-3.2-1.3-6-3.3-8.3-5.9c-2.3-2.6-4-5.8-5.3-9.7c-1.2-3.8-1.8-8.3-1.8-13.3c0-5.1,0.7-9.7,2-13.7c1.3-4,3.2-7.4,5.6-10.2
			c2.4-2.8,5.3-4.9,8.6-6.4c3.3-1.5,7-2.2,11.1-2.2c1.8,0,3.5,0.2,5.2,0.5s3.3,0.8,4.7,1.3s2.7,1.1,3.8,1.8c1.1,0.7,1.9,1.2,2.3,1.7
			s0.7,0.8,0.8,1c0.1,0.2,0.2,0.5,0.3,0.8c0.1,0.3,0.1,0.7,0.2,1.1c0,0.4,0.1,0.9,0.1,1.5c0,0.6,0,1.2-0.1,1.6
			c-0.1,0.4-0.2,0.8-0.3,1.1c-0.1,0.3-0.3,0.5-0.5,0.7c-0.2,0.1-0.4,0.2-0.7,0.2c-0.4,0-1.1-0.3-1.9-0.9c-0.8-0.6-1.8-1.3-3.1-2.1
			c-1.3-0.7-2.8-1.4-4.6-2.1c-1.8-0.6-4-0.9-6.5-0.9c-2.8,0-5.3,0.5-7.5,1.7c-2.3,1.1-4.2,2.7-5.8,4.9c-1.6,2.1-2.8,4.7-3.7,7.8
			c-0.9,3.1-1.3,6.6-1.3,10.6c0,3.9,0.4,7.4,1.3,10.4c0.8,3,2.1,5.5,3.7,7.6s3.5,3.6,5.8,4.6c2.3,1,4.9,1.6,7.8,1.6
			c2.5,0,4.6-0.3,6.5-0.9c1.8-0.6,3.4-1.3,4.7-2c1.3-0.7,2.4-1.4,3.2-2c0.8-0.6,1.5-0.9,2-0.9c0.2,0,0.4,0,0.6,0.1s0.3,0.3,0.4,0.6
			c0.1,0.3,0.2,0.6,0.2,1.1S1349.7,212.7,1349.7,213.5z"/>
		<path class="st0" d="M1392.7,218.6c0,0.6,0,1.2-0.1,1.6c-0.1,0.4-0.2,0.8-0.3,1.1c-0.1,0.3-0.3,0.5-0.5,0.7
			c-0.2,0.1-0.5,0.2-0.7,0.2h-27.4c-0.7,0-1.4-0.2-2.1-0.7c-0.7-0.5-1-1.4-1-2.6v-57.3c0-0.3,0.1-0.5,0.2-0.7
			c0.1-0.2,0.4-0.3,0.7-0.5c0.3-0.1,0.7-0.2,1.3-0.3c0.5-0.1,1.2-0.1,2-0.1c0.8,0,1.5,0,2,0.1c0.5,0.1,0.9,0.2,1.3,0.3
			c0.3,0.1,0.5,0.3,0.7,0.5c0.1,0.2,0.2,0.4,0.2,0.7v53.6h22.2c0.3,0,0.5,0.1,0.7,0.2c0.2,0.1,0.4,0.4,0.5,0.6
			c0.1,0.3,0.2,0.6,0.3,1.1C1392.6,217.4,1392.7,218,1392.7,218.6z"/>
	</g>
	<g class="st8">
		<path class="st0" d="M1276.7,328.8c-0.1,0.4-0.3,0.6-0.5,0.9c-0.2,0.2-0.5,0.4-0.9,0.5c-0.4,0.1-0.9,0.2-1.5,0.3s-1.4,0.1-2.3,0.1
			c-0.7,0-1.3,0-1.8,0c-0.5,0-1-0.1-1.4-0.1c-0.4-0.1-0.7-0.1-1-0.2c-0.3-0.1-0.5-0.2-0.7-0.3c-0.2-0.1-0.3-0.3-0.5-0.5
			c-0.1-0.2-0.2-0.4-0.3-0.6l-20.2-57.5c-0.3-0.7-0.4-1.3-0.4-1.7c0-0.4,0.1-0.8,0.4-1c0.3-0.2,0.8-0.4,1.4-0.4
			c0.6-0.1,1.5-0.1,2.6-0.1c0.9,0,1.6,0,2.1,0.1s0.9,0.1,1.2,0.3c0.3,0.1,0.5,0.3,0.6,0.5c0.1,0.2,0.3,0.5,0.4,0.8l17.8,52.1h0
			l17.3-52c0.1-0.4,0.2-0.6,0.3-0.9c0.1-0.2,0.4-0.4,0.7-0.5c0.3-0.1,0.8-0.2,1.3-0.3c0.6,0,1.3-0.1,2.3-0.1c1,0,1.8,0,2.3,0.1
			c0.6,0.1,1,0.2,1.2,0.5c0.2,0.2,0.3,0.5,0.2,1s-0.2,1-0.5,1.7L1276.7,328.8z"/>
		<path class="st0" d="M1347.8,321.5c0,0.5,0,1,0,1.3c0,0.4-0.1,0.7-0.2,1c-0.1,0.3-0.2,0.5-0.3,0.8c-0.1,0.2-0.4,0.5-0.7,0.8
			c-0.3,0.3-1,0.8-2,1.5c-1,0.7-2.3,1.3-3.8,1.9c-1.5,0.6-3.3,1.1-5.2,1.6c-2,0.4-4.1,0.6-6.4,0.6c-4,0-7.7-0.7-10.9-2
			c-3.2-1.3-6-3.3-8.3-5.9c-2.3-2.6-4-5.8-5.3-9.7c-1.2-3.8-1.8-8.3-1.8-13.3c0-5.1,0.7-9.7,2-13.7c1.3-4,3.2-7.4,5.6-10.2
			c2.4-2.8,5.3-4.9,8.6-6.4c3.3-1.5,7-2.2,11.1-2.2c1.8,0,3.5,0.2,5.2,0.5s3.3,0.8,4.7,1.3s2.7,1.1,3.8,1.8c1.1,0.7,1.9,1.2,2.3,1.7
			s0.7,0.8,0.8,1c0.1,0.2,0.2,0.5,0.3,0.8c0.1,0.3,0.1,0.7,0.2,1.1c0,0.4,0.1,0.9,0.1,1.5c0,0.6,0,1.2-0.1,1.6
			c-0.1,0.4-0.2,0.8-0.3,1.1c-0.1,0.3-0.3,0.5-0.5,0.7c-0.2,0.1-0.4,0.2-0.7,0.2c-0.4,0-1.1-0.3-1.9-0.9c-0.8-0.6-1.8-1.3-3.1-2.1
			c-1.3-0.7-2.8-1.4-4.6-2.1c-1.8-0.6-4-0.9-6.5-0.9c-2.8,0-5.3,0.5-7.5,1.7c-2.3,1.1-4.2,2.7-5.8,4.9c-1.6,2.1-2.8,4.7-3.7,7.8
			c-0.9,3.1-1.3,6.6-1.3,10.6c0,3.9,0.4,7.4,1.3,10.4c0.8,3,2.1,5.5,3.7,7.6s3.5,3.6,5.8,4.6c2.3,1,4.9,1.6,7.8,1.6
			c2.5,0,4.6-0.3,6.5-0.9c1.8-0.6,3.4-1.3,4.7-2c1.3-0.7,2.4-1.4,3.2-2c0.8-0.6,1.5-0.9,2-0.9c0.2,0,0.4,0,0.6,0.1s0.3,0.3,0.4,0.6
			c0.1,0.3,0.2,0.6,0.2,1.1S1347.8,320.7,1347.8,321.5z"/>
		<path class="st0" d="M1400.1,321.5c0,0.5,0,1,0,1.3c0,0.4-0.1,0.7-0.2,1c-0.1,0.3-0.2,0.5-0.3,0.8c-0.1,0.2-0.4,0.5-0.7,0.8
			c-0.3,0.3-1,0.8-2,1.5c-1,0.7-2.3,1.3-3.8,1.9c-1.5,0.6-3.3,1.1-5.2,1.6c-2,0.4-4.1,0.6-6.4,0.6c-4,0-7.7-0.7-10.9-2
			c-3.2-1.3-6-3.3-8.3-5.9c-2.3-2.6-4-5.8-5.3-9.7c-1.2-3.8-1.8-8.3-1.8-13.3c0-5.1,0.7-9.7,2-13.7c1.3-4,3.2-7.4,5.6-10.2
			c2.4-2.8,5.3-4.9,8.6-6.4c3.3-1.5,7-2.2,11.1-2.2c1.8,0,3.5,0.2,5.2,0.5s3.3,0.8,4.7,1.3s2.7,1.1,3.8,1.8c1.1,0.7,1.9,1.2,2.3,1.7
			s0.7,0.8,0.8,1c0.1,0.2,0.2,0.5,0.3,0.8c0.1,0.3,0.1,0.7,0.2,1.1c0,0.4,0.1,0.9,0.1,1.5c0,0.6,0,1.2-0.1,1.6
			c-0.1,0.4-0.2,0.8-0.3,1.1c-0.1,0.3-0.3,0.5-0.5,0.7c-0.2,0.1-0.4,0.2-0.7,0.2c-0.4,0-1.1-0.3-1.9-0.9c-0.8-0.6-1.8-1.3-3.1-2.1
			c-1.3-0.7-2.8-1.4-4.6-2.1c-1.8-0.6-4-0.9-6.5-0.9c-2.8,0-5.3,0.5-7.5,1.7c-2.3,1.1-4.2,2.7-5.8,4.9c-1.6,2.1-2.8,4.7-3.7,7.8
			c-0.9,3.1-1.3,6.6-1.3,10.6c0,3.9,0.4,7.4,1.3,10.4c0.8,3,2.1,5.5,3.7,7.6s3.5,3.6,5.8,4.6c2.3,1,4.9,1.6,7.8,1.6
			c2.5,0,4.6-0.3,6.5-0.9c1.8-0.6,3.4-1.3,4.7-2c1.3-0.7,2.4-1.4,3.2-2c0.8-0.6,1.5-0.9,2-0.9c0.2,0,0.4,0,0.6,0.1s0.3,0.3,0.4,0.6
			c0.1,0.3,0.2,0.6,0.2,1.1S1400.1,320.7,1400.1,321.5z"/>
	</g>
	<g class="st8">
		<path class="st0" d="M1278.4,377.5c0,0.6,0,1.1-0.1,1.6c-0.1,0.5-0.2,0.8-0.3,1.1c-0.1,0.3-0.3,0.5-0.5,0.6
			c-0.2,0.1-0.4,0.2-0.6,0.2c-0.4,0-1-0.3-1.9-0.9c-0.9-0.6-2.1-1.3-3.6-2c-1.5-0.7-3.3-1.4-5.4-2c-2.1-0.6-4.6-0.9-7.4-0.9
			c-3.4,0-6.5,0.6-9.2,1.9c-2.7,1.2-5,3-6.9,5.2c-1.9,2.2-3.3,4.8-4.3,7.8c-1,3-1.5,6.3-1.5,9.9c0,4,0.5,7.5,1.7,10.5
			c1.1,3.1,2.6,5.6,4.6,7.8c1.9,2.1,4.3,3.7,7,4.8c2.7,1.1,5.7,1.6,8.9,1.6c1.9,0,3.9-0.2,5.8-0.7c2-0.5,3.8-1.2,5.5-2.1v-18h-14.4
			c-0.5,0-1-0.3-1.2-0.8c-0.3-0.5-0.4-1.4-0.4-2.5c0-0.6,0-1.1,0.1-1.6c0.1-0.4,0.2-0.8,0.3-1.1c0.1-0.3,0.3-0.5,0.5-0.6
			s0.4-0.2,0.7-0.2h19.7c0.4,0,0.7,0.1,1.1,0.2c0.4,0.1,0.7,0.3,1,0.6c0.3,0.3,0.5,0.6,0.7,1.1c0.2,0.4,0.2,1,0.2,1.5V424
			c0,0.8-0.1,1.5-0.4,2.2c-0.3,0.6-0.9,1.1-1.8,1.6c-0.9,0.5-2.1,1-3.6,1.5c-1.5,0.5-3,1-4.5,1.4c-1.6,0.4-3.1,0.7-4.7,0.9
			c-1.6,0.2-3.2,0.3-4.7,0.3c-4.8,0-9.1-0.7-12.8-2.2c-3.8-1.5-6.9-3.6-9.5-6.3c-2.6-2.7-4.6-6-6-9.9s-2.1-8.1-2.1-12.8
			c0-4.9,0.7-9.4,2.2-13.4c1.5-4,3.6-7.4,6.3-10.2c2.7-2.8,5.9-5,9.7-6.5c3.8-1.5,8-2.3,12.6-2.3c2.4,0,4.6,0.2,6.7,0.6
			c2.1,0.4,3.9,0.9,5.5,1.5c1.6,0.6,3,1.2,4.1,1.8c1.1,0.7,1.9,1.2,2.3,1.6c0.4,0.4,0.7,0.9,0.9,1.4
			C1278.3,375.7,1278.4,376.4,1278.4,377.5z"/>
		<path class="st0" d="M1340.6,427.6c0,0.6-0.1,1.2-0.3,1.6c-0.2,0.4-0.5,0.8-0.8,1.1s-0.7,0.5-1.2,0.6c-0.4,0.1-0.9,0.2-1.3,0.2
			h-2.7c-0.9,0-1.6-0.1-2.3-0.3c-0.6-0.2-1.3-0.5-1.8-1c-0.6-0.5-1.2-1.1-1.7-1.9c-0.6-0.8-1.2-1.8-1.8-3.1l-18.9-35.2
			c-1-1.8-2-3.7-3-5.7c-1-2-1.9-3.9-2.8-5.8h-0.1c0.1,2.3,0.1,4.6,0.1,7c0,2.4,0,4.8,0,7.1v37.4c0,0.2-0.1,0.4-0.2,0.6
			c-0.1,0.2-0.4,0.4-0.7,0.5c-0.3,0.1-0.7,0.2-1.3,0.3c-0.5,0.1-1.2,0.1-2,0.1c-0.8,0-1.5,0-2-0.1c-0.5-0.1-0.9-0.2-1.2-0.3
			c-0.3-0.1-0.5-0.3-0.7-0.5c-0.1-0.2-0.2-0.4-0.2-0.6v-57.1c0-1.3,0.4-2.2,1.1-2.7c0.7-0.5,1.5-0.8,2.4-0.8h4.1
			c1,0,1.8,0.1,2.4,0.2c0.6,0.2,1.2,0.4,1.7,0.8c0.5,0.4,1,0.9,1.5,1.5s1,1.5,1.5,2.5l14.5,27.2c0.9,1.7,1.8,3.3,2.6,4.9
			s1.6,3.1,2.4,4.7c0.8,1.5,1.5,3,2.3,4.5c0.8,1.5,1.5,3,2.2,4.5h0c-0.1-2.5-0.1-5.1-0.1-7.9c0-2.7,0-5.4,0-7.9v-33.6
			c0-0.2,0.1-0.4,0.2-0.6s0.4-0.4,0.7-0.5c0.3-0.1,0.7-0.2,1.3-0.3c0.5-0.1,1.2-0.1,2-0.1c0.7,0,1.4,0,1.9,0.1
			c0.5,0.1,1,0.2,1.3,0.3c0.3,0.1,0.5,0.3,0.7,0.5s0.2,0.4,0.2,0.6V427.6z"/>
		<path class="st0" d="M1404.6,399.1c0,5.4-0.7,10-2.1,14c-1.4,4-3.4,7.3-6,10c-2.6,2.6-5.9,4.6-9.7,5.9s-8.4,2-13.7,2h-13.1
			c-0.7,0-1.4-0.2-2.1-0.7c-0.7-0.5-1-1.4-1-2.6v-55.2c0-1.2,0.3-2.1,1-2.6c0.7-0.5,1.3-0.7,2.1-0.7h14c5.4,0,9.9,0.7,13.6,2.1
			c3.7,1.4,6.8,3.4,9.3,6s4.4,5.8,5.7,9.5C1404,390.3,1404.6,394.4,1404.6,399.1z M1396,399.4c0-3.4-0.4-6.5-1.2-9.4
			c-0.8-2.9-2.1-5.4-3.9-7.5c-1.8-2.1-4-3.7-6.7-4.9c-2.7-1.2-6.2-1.8-10.5-1.8h-8.4v48.2h8.5c4,0,7.3-0.5,10-1.5
			c2.7-1,5-2.5,6.8-4.5c1.8-2,3.2-4.6,4.1-7.7C1395.5,407.3,1396,403.6,1396,399.4z"/>
	</g>
	<g class="st8">
		<path class="st0" d="M721.9,227.9c0,0.3,0,0.5-0.1,0.7s-0.1,0.4-0.2,0.5c-0.1,0.1-0.2,0.2-0.3,0.3c-0.1,0.1-0.2,0.1-0.3,0.1h-15.5
			c-0.1,0-0.2,0-0.3-0.1c-0.1-0.1-0.2-0.1-0.3-0.3c-0.1-0.1-0.1-0.3-0.2-0.5s-0.1-0.4-0.1-0.7c0-0.3,0-0.5,0.1-0.7s0.1-0.4,0.2-0.5
			c0.1-0.1,0.2-0.2,0.3-0.3c0.1-0.1,0.2-0.1,0.3-0.1h6.2v-22.5l-5.7,3.4c-0.3,0.2-0.5,0.2-0.7,0.3s-0.3,0-0.4-0.1
			c-0.1-0.1-0.2-0.3-0.2-0.5c0-0.2-0.1-0.5-0.1-0.9c0-0.3,0-0.5,0-0.7c0-0.2,0.1-0.3,0.1-0.5s0.1-0.2,0.2-0.3
			c0.1-0.1,0.2-0.2,0.3-0.3l6.8-4.4c0.1,0,0.1-0.1,0.2-0.1c0.1,0,0.2-0.1,0.3-0.1c0.1,0,0.3,0,0.5-0.1c0.2,0,0.4,0,0.7,0
			c0.4,0,0.7,0,0.9,0c0.2,0,0.4,0.1,0.6,0.1c0.1,0.1,0.2,0.1,0.3,0.2s0.1,0.2,0.1,0.3v26h5.4c0.1,0,0.2,0,0.3,0.1
			c0.1,0.1,0.2,0.2,0.3,0.3c0.1,0.1,0.1,0.3,0.2,0.5S721.9,227.6,721.9,227.9z"/>
		<path class="st0" d="M746.6,214.6c0,2.3-0.2,4.3-0.5,6.2c-0.4,1.9-1,3.5-1.8,4.8s-1.9,2.4-3.3,3.1c-1.3,0.7-3,1.1-5,1.1
			c-1.9,0-3.4-0.3-4.7-1c-1.3-0.7-2.3-1.6-3.1-2.9s-1.3-2.9-1.7-4.8s-0.5-4-0.5-6.5c0-2.3,0.2-4.3,0.5-6.2c0.4-1.9,1-3.5,1.8-4.9
			c0.8-1.4,1.9-2.4,3.3-3.1s3-1.1,4.9-1.1c1.9,0,3.5,0.3,4.7,1c1.3,0.7,2.3,1.6,3.1,2.9c0.8,1.3,1.3,2.9,1.7,4.8
			C746.4,209.9,746.6,212.1,746.6,214.6z M742.6,214.8c0-1.5-0.1-2.8-0.2-4c-0.1-1.2-0.3-2.2-0.5-3.1s-0.5-1.7-0.8-2.3
			c-0.3-0.6-0.7-1.2-1.2-1.6s-1-0.7-1.6-0.9c-0.6-0.2-1.2-0.3-2-0.3c-1.3,0-2.4,0.3-3.2,0.9s-1.4,1.5-1.9,2.5
			c-0.5,1.1-0.8,2.3-1,3.8s-0.3,3-0.3,4.6c0,2.2,0.1,4.1,0.3,5.6c0.2,1.5,0.6,2.8,1.1,3.8s1.1,1.7,1.9,2.1c0.8,0.4,1.7,0.7,2.8,0.7
			c0.9,0,1.6-0.1,2.3-0.4s1.2-0.7,1.7-1.2c0.5-0.5,0.9-1.1,1.2-1.8c0.3-0.7,0.5-1.5,0.7-2.4c0.2-0.9,0.3-1.8,0.4-2.8
			C742.5,217,742.6,215.9,742.6,214.8z"/>
		<path class="st0" d="M769.2,221c0,1.4-0.2,2.6-0.7,3.7c-0.5,1.1-1.2,2-2,2.8c-0.9,0.8-2,1.4-3.3,1.8c-1.3,0.4-2.8,0.6-4.4,0.6
			c-1,0-1.9-0.1-2.8-0.2s-1.6-0.4-2.3-0.6c-0.7-0.2-1.2-0.5-1.7-0.7c-0.4-0.2-0.7-0.4-0.8-0.5c-0.1-0.1-0.2-0.2-0.3-0.3
			c-0.1-0.1-0.1-0.2-0.2-0.4s-0.1-0.3-0.1-0.6c0-0.2,0-0.5,0-0.8c0-0.5,0.1-0.9,0.2-1.1s0.3-0.3,0.5-0.3c0.1,0,0.4,0.1,0.8,0.4
			s0.9,0.5,1.6,0.8s1.4,0.5,2.3,0.8c0.9,0.2,1.8,0.4,2.9,0.4c1,0,1.9-0.1,2.7-0.4c0.8-0.3,1.4-0.6,2-1.1c0.5-0.5,0.9-1,1.2-1.7
			c0.3-0.6,0.4-1.4,0.4-2.1c0-0.8-0.2-1.6-0.5-2.3c-0.3-0.7-0.8-1.3-1.5-1.7c-0.7-0.5-1.5-0.9-2.4-1.1c-1-0.3-2-0.4-3.3-0.4h-2.9
			c-0.1,0-0.2,0-0.4-0.1c-0.1-0.1-0.2-0.1-0.3-0.3c-0.1-0.1-0.2-0.3-0.2-0.5c-0.1-0.2-0.1-0.5-0.1-0.8c0-0.3,0-0.5,0.1-0.7
			c0-0.2,0.1-0.3,0.2-0.5s0.2-0.2,0.3-0.3c0.1-0.1,0.2-0.1,0.4-0.1h2.6c1,0,1.9-0.1,2.7-0.4c0.8-0.3,1.5-0.6,2-1.1
			c0.6-0.5,1-1.1,1.3-1.8c0.3-0.7,0.4-1.4,0.4-2.3c0-0.6-0.1-1.2-0.3-1.8c-0.2-0.6-0.5-1-0.9-1.5c-0.4-0.4-0.9-0.7-1.5-1
			c-0.6-0.2-1.3-0.4-2.1-0.4c-0.9,0-1.7,0.1-2.4,0.4c-0.7,0.3-1.4,0.6-2,0.9c-0.6,0.3-1.1,0.6-1.4,0.9c-0.4,0.3-0.6,0.4-0.8,0.4
			c-0.1,0-0.2,0-0.3-0.1s-0.2-0.1-0.2-0.2c-0.1-0.1-0.1-0.3-0.1-0.5c0-0.2,0-0.5,0-0.8c0-0.2,0-0.4,0-0.6c0-0.2,0-0.3,0.1-0.5
			s0.1-0.2,0.2-0.4c0.1-0.1,0.2-0.2,0.3-0.4c0.1-0.1,0.4-0.4,0.9-0.6s1-0.5,1.6-0.8c0.6-0.3,1.4-0.5,2.2-0.7
			c0.8-0.2,1.8-0.3,2.7-0.3c1.4,0,2.6,0.2,3.6,0.5c1,0.4,1.9,0.8,2.6,1.5c0.7,0.6,1.2,1.4,1.6,2.3c0.3,0.9,0.5,1.9,0.5,3
			c0,0.9-0.1,1.8-0.4,2.6c-0.2,0.8-0.6,1.5-1.1,2.1c-0.5,0.6-1.1,1.1-1.7,1.6c-0.7,0.4-1.5,0.7-2.4,0.9v0c1,0.1,2,0.4,2.8,0.8
			c0.8,0.4,1.6,0.9,2.2,1.5c0.6,0.6,1.1,1.3,1.4,2.1C769,219.2,769.2,220,769.2,221z"/>
	</g>
	<g class="st8">
		<path class="st0" d="M722.7,351.8c0,0.3,0,0.5-0.1,0.7s-0.1,0.4-0.2,0.5c-0.1,0.1-0.2,0.2-0.3,0.3c-0.1,0.1-0.2,0.1-0.3,0.1h-15.5
			c-0.1,0-0.2,0-0.3-0.1c-0.1-0.1-0.2-0.1-0.3-0.3c-0.1-0.1-0.1-0.3-0.2-0.5s-0.1-0.4-0.1-0.7c0-0.3,0-0.5,0.1-0.7s0.1-0.4,0.2-0.5
			c0.1-0.1,0.2-0.2,0.3-0.3c0.1-0.1,0.2-0.1,0.3-0.1h6.2v-22.5l-5.7,3.4c-0.3,0.2-0.5,0.2-0.7,0.3s-0.3,0-0.4-0.1
			c-0.1-0.1-0.2-0.3-0.2-0.5c0-0.2-0.1-0.5-0.1-0.9c0-0.3,0-0.5,0-0.7c0-0.2,0.1-0.3,0.1-0.5s0.1-0.2,0.2-0.3
			c0.1-0.1,0.2-0.2,0.3-0.3l6.8-4.4c0.1,0,0.1-0.1,0.2-0.1c0.1,0,0.2-0.1,0.3-0.1c0.1,0,0.3,0,0.5-0.1c0.2,0,0.4,0,0.7,0
			c0.4,0,0.7,0,0.9,0c0.2,0,0.4,0.1,0.6,0.1c0.1,0.1,0.2,0.1,0.3,0.2s0.1,0.2,0.1,0.3v26h5.4c0.1,0,0.2,0,0.3,0.1
			c0.1,0.1,0.2,0.2,0.3,0.3c0.1,0.1,0.1,0.3,0.2,0.5S722.7,351.5,722.7,351.8z"/>
		<path class="st0" d="M747.4,338.5c0,2.3-0.2,4.3-0.5,6.2c-0.4,1.9-1,3.5-1.8,4.8s-1.9,2.4-3.3,3.1c-1.3,0.7-3,1.1-5,1.1
			c-1.9,0-3.4-0.3-4.7-1c-1.3-0.7-2.3-1.6-3.1-2.9s-1.3-2.9-1.7-4.8s-0.5-4-0.5-6.5c0-2.3,0.2-4.3,0.5-6.2c0.4-1.9,1-3.5,1.8-4.9
			c0.8-1.4,1.9-2.4,3.3-3.1s3-1.1,4.9-1.1c1.9,0,3.5,0.3,4.7,1c1.3,0.7,2.3,1.6,3.1,2.9c0.8,1.3,1.3,2.9,1.7,4.8
			C747.3,333.9,747.4,336,747.4,338.5z M743.4,338.8c0-1.5-0.1-2.8-0.2-4c-0.1-1.2-0.3-2.2-0.5-3.1s-0.5-1.7-0.8-2.3
			c-0.3-0.6-0.7-1.2-1.2-1.6s-1-0.7-1.6-0.9c-0.6-0.2-1.2-0.3-2-0.3c-1.3,0-2.4,0.3-3.2,0.9s-1.4,1.5-1.9,2.5
			c-0.5,1.1-0.8,2.3-1,3.8s-0.3,3-0.3,4.6c0,2.2,0.1,4.1,0.3,5.6c0.2,1.5,0.6,2.8,1.1,3.8s1.1,1.7,1.9,2.1c0.8,0.4,1.7,0.7,2.8,0.7
			c0.9,0,1.6-0.1,2.3-0.4s1.2-0.7,1.7-1.2c0.5-0.5,0.9-1.1,1.2-1.8c0.3-0.7,0.5-1.5,0.7-2.4c0.2-0.9,0.3-1.8,0.4-2.8
			C743.4,340.9,743.4,339.8,743.4,338.8z"/>
		<path class="st0" d="M770,344.9c0,1.4-0.2,2.6-0.7,3.7c-0.5,1.1-1.2,2-2,2.8c-0.9,0.8-2,1.4-3.3,1.8c-1.3,0.4-2.8,0.6-4.4,0.6
			c-1,0-1.9-0.1-2.8-0.2s-1.6-0.4-2.3-0.6c-0.7-0.2-1.2-0.5-1.7-0.7c-0.4-0.2-0.7-0.4-0.8-0.5c-0.1-0.1-0.2-0.2-0.3-0.3
			c-0.1-0.1-0.1-0.2-0.2-0.4s-0.1-0.3-0.1-0.6c0-0.2,0-0.5,0-0.8c0-0.5,0.1-0.9,0.2-1.1s0.3-0.3,0.5-0.3c0.1,0,0.4,0.1,0.8,0.4
			s0.9,0.5,1.6,0.8s1.4,0.5,2.3,0.8c0.9,0.2,1.8,0.4,2.9,0.4c1,0,1.9-0.1,2.7-0.4c0.8-0.3,1.4-0.6,2-1.1c0.5-0.5,0.9-1,1.2-1.7
			c0.3-0.6,0.4-1.4,0.4-2.1c0-0.8-0.2-1.6-0.5-2.3c-0.3-0.7-0.8-1.3-1.5-1.7c-0.7-0.5-1.5-0.9-2.4-1.1c-1-0.3-2-0.4-3.3-0.4h-2.9
			c-0.1,0-0.2,0-0.4-0.1c-0.1-0.1-0.2-0.1-0.3-0.3c-0.1-0.1-0.2-0.3-0.2-0.5c-0.1-0.2-0.1-0.5-0.1-0.8c0-0.3,0-0.5,0.1-0.7
			c0-0.2,0.1-0.3,0.2-0.5s0.2-0.2,0.3-0.3c0.1-0.1,0.2-0.1,0.4-0.1h2.6c1,0,1.9-0.1,2.7-0.4c0.8-0.3,1.5-0.6,2-1.1
			c0.6-0.5,1-1.1,1.3-1.8c0.3-0.7,0.4-1.4,0.4-2.3c0-0.6-0.1-1.2-0.3-1.8c-0.2-0.6-0.5-1-0.9-1.5c-0.4-0.4-0.9-0.7-1.5-1
			c-0.6-0.2-1.3-0.4-2.1-0.4c-0.9,0-1.7,0.1-2.4,0.4c-0.7,0.3-1.4,0.6-2,0.9c-0.6,0.3-1.1,0.6-1.4,0.9c-0.4,0.3-0.6,0.4-0.8,0.4
			c-0.1,0-0.2,0-0.3-0.1s-0.2-0.1-0.2-0.2c-0.1-0.1-0.1-0.3-0.1-0.5c0-0.2,0-0.5,0-0.8c0-0.2,0-0.4,0-0.6c0-0.2,0-0.3,0.1-0.5
			s0.1-0.2,0.2-0.4c0.1-0.1,0.2-0.2,0.3-0.4c0.1-0.1,0.4-0.4,0.9-0.6s1-0.5,1.6-0.8c0.6-0.3,1.4-0.5,2.2-0.7
			c0.8-0.2,1.8-0.3,2.7-0.3c1.4,0,2.6,0.2,3.6,0.5c1,0.4,1.9,0.8,2.6,1.5c0.7,0.6,1.2,1.4,1.6,2.3c0.3,0.9,0.5,1.9,0.5,3
			c0,0.9-0.1,1.8-0.4,2.6c-0.2,0.8-0.6,1.5-1.1,2.1c-0.5,0.6-1.1,1.1-1.7,1.6c-0.7,0.4-1.5,0.7-2.4,0.9v0c1,0.1,2,0.4,2.8,0.8
			c0.8,0.4,1.6,0.9,2.2,1.5c0.6,0.6,1.1,1.3,1.4,2.1C769.8,343.1,770,344,770,344.9z"/>
	</g>
</g>
</svg>
