<?xml version="1.0" encoding="UTF-8"?>
<svg xmlns="http://www.w3.org/2000/svg" version="1.1" xmlns:cc="http://creativecommons.org/ns#" xmlns:dc="http://purl.org/dc/elements/1.1/" xmlns:inkscape="http://www.inkscape.org/namespaces/inkscape" xmlns:rdf="http://www.w3.org/1999/02/22-rdf-syntax-ns#" xmlns:sodipodi="http://sodipodi.sourceforge.net/DTD/sodipodi-0.dtd" xmlns:svg="http://www.w3.org/2000/svg" viewBox="0 0 1275.6 4317.4">
  <defs>
    <style>
      .cls-1 {
        fill: #803300;
      }

      .cls-2, .cls-3 {
        fill: #fff;
      }

      .cls-4 {
        isolation: isolate;
      }

      .cls-3 {
        stroke: #000;
        stroke-miterlimit: 10;
        stroke-width: 5px;
      }

      .cls-5 {
        fill: #999;
      }

      .cls-6 {
        fill: gray;
      }

      .cls-7 {
        fill: #e6e6e6;
      }
    </style>
  </defs>
  <!-- Generator: Adobe Illustrator 28.6.0, SVG Export Plug-In . SVG Version: 1.2.0 Build 709)  -->
  <g>
    <g id="svg8">
      <g id="_x3C_defs">
        <inkscape:perspective id="perspective876" inkscape:persp3d-origin="105 : 98.999994 : 1" inkscape:vp_x="0 : 148.49999 : 1" inkscape:vp_y="0 : 999.99993 : 0" inkscape:vp_z="210.00001 : 148.49999 : 1" sodipodi:type="inkscape:persp3d"/>
      </g>
      <sodipodi:namedview id="base" width="500mm" bordercolor="#666666" borderopacity="1.0" inkscape:current-layer="layer1" inkscape:cx="-980.73957" inkscape:cy="2453.5082" inkscape:document-units="mm" inkscape:lockguides="false" inkscape:pageopacity="1" inkscape:pageshadow="2" inkscape:window-height="987" inkscape:window-maximized="1" inkscape:window-width="1680" inkscape:window-x="1912" inkscape:window-y="-8" inkscape:zoom="0.24748738" pagecolor="#373737" showgrid="false" showguides="true"/>
      <rect id="rect103" class="cls-6" x="548.1" y="4024.3" width="9.1" height="175.5"/>
      <rect id="rect105" class="cls-6" x="634.5" y="4024.3" width="9.1" height="175.5"/>
      <rect id="rect107" class="cls-6" x="718.5" y="4024.3" width="9.1" height="175.5"/>
      <rect id="rect90" class="cls-3" x="597.4" y="1257.9" width="78" height="2790.3"/>
      <rect id="rect92" class="cls-5" x="511.9" y="1257.9" width="78" height="2790.3"/>
      <rect id="rect94" x="682.9" y="1257.9" width="78" height="2790.3"/>
      <circle id="path74" cx="637.8" cy="647.2" r="637.8"/>
      <circle id="circle79" class="cls-7" cx="637.8" cy="647.2" r="85"/>
      <path id="path31-1" class="cls-2" d="M116.7,843.2c0-5.8-.2-6.4-.8-7.5-.4-.6-1.2-1.5-1.8-1.9-1-.6-1.8-.7-13.6-.8h-12.5c0-.1,0-12.5,0-12.5v-12.4h15.7c17.2,0,18.8.1,23.4,1.9,5.9,2.4,8.7,5.8,10.3,12.9.4,1.9.5,4.1.5,11.3s-.2,10.3-.3,12l-.3,3h-10.2c0,.1-10.2.2-10.2.2l-.3-6.2h0ZM151.7,725.5c0-105.5.2-131.4.6-127v.7c.1,0,.4-.7.4-.7.2-.6.3-.5.4.5.1.8.2.4.3-1l.2-2.2v2.2c.2,1.2.3,1.9.3,1.6.1-.5.6-.6,2.9-.6s2.8,0,2.9-.9c.1-.7.2-.5.2.5s.2,1.4.4,1.4.3,41.8.3,124.8v124.8h-9v-124.1ZM55.6,820.5v-12.5h20.2v25h-20.2v-12.5ZM93,795.4c-5.7-.9-10.8-2.5-15.3-4.8-1.6-.8-3.1-1.6-3.2-1.7s-1-.7-2-1.4c-2-1.3-5.7-4.3-6.1-4.9,0-.2-.4-.4-.6-.4-.4,0-3.2-3.1-5-5.6-1.8-2.6-2.9-4.7-4.6-9.3-2-5.4-2.5-8.5-2.3-15,.2-4.7.3-5.8,1.2-8.8.5-1.9,1.3-4.1,1.7-5s.7-1.8.7-2,.7-1.6,1.6-3.1c3.5-6,12.7-14.1,19.6-17.2,10.8-4.9,21.6-5.5,31.6-1.8,4.2,1.6,6.6,2.7,9.6,4.5,3.4,2.1,3.6,2.3,8.7,7.4,5.8,5.9,8.2,10.1,10.3,17.7,1.1,3.9,1.5,11.6.8,15.7-.8,5.4-3.9,12.5-7.2,17-1.7,2.3-4.4,5.4-4.7,5.4s-.9.8-1.9,1.7c-4.6,4.5-13.5,9.1-20.9,10.8-2.6.6-10,1.1-12,.8h0ZM103.5,771.6c4.7-1.2,8.7-3.6,12.3-7.3,3.6-3.7,4.9-9.7,3.3-14.8-1.8-5.7-8.4-11.2-15.5-13.1-4.1-1.1-10-1-13.9.2-5.6,1.7-10,4.6-12.9,8.7-1.3,1.9-1.7,2.7-2.1,4.7-.8,4.2-.4,8.6,1.2,11.6,1.3,2.7,5.1,6,9,8,5.6,2.8,12.4,3.5,18.6,2h0ZM55.7,701.5c0-.2,0-5.8,0-12.5v-12.1h11.2c10.5,0,11.2,0,13.1-.8,4.7-1.8,7.3-7.5,5.7-12.5-.9-2.6-2.3-4.3-4.8-5.6l-2.2-1.1h-11.6c0,0-11.4-.1-11.4-.1v-25h13c12.1.2,13.2.3,15.7,1,5,1.4,9.4,3.6,12.9,6.5.9.7,1.7,1.3,1.9,1.3.4,0,3.3,3.2,5.3,5.9,1.8,2.4,3.5,5.7,3.9,7.4,0,.5.6,2.3,1.1,3.8.8,2.7.9,3.3.9,8.9s0,6.3-.9,9.4c-1.4,5-2.1,6.6-4.2,9.9-2.4,3.7-5.6,6.9-9.4,9.5-5.5,3.7-9.5,5.2-15.8,6-4.3.7-24.1.7-24.3,0h0ZM117.1,666.8v-20.4h21v40.8h-21v-20.4ZM39.6,631.9c0-.2-.6-.3-1.3-.3q-1.3,0-1.5-1.6c0-.9-.2-35.4-.2-76.7v-75.1h4.5c0,0,4.5.2,4.5.2v76.4c0,42,0,76.6-.2,76.9-.2.4-.8.5-3,.5-1.6,0-2.8-.1-2.8-.3h0ZM89.8,597.6v-25.9h20.6v51.8h-20.6v-25.9ZM55.6,551.1v-12.5h20.2v25h-20.2v-12.5ZM86.5,551.1v-12.5h52.6v25h-52.6v-12.5ZM55.6,501.4v-26.1h20.2v52.2h-20.2v-26.1ZM88,523.2c0-.2-.2-5.7-.2-12.3v-12h12c16.9-.3,16,.4,16.1-12.2v-8h21.4l.4,3c.6,4.5.5,18.7-.1,22.6-1.1,6.6-3.1,10.9-6.6,13.8-3.6,3-7.2,4.4-13,5.1-3.8.4-29.7.4-30,0h0ZM45.7,460.7c-2.2-.6-4.3-1.9-5.5-3.2-5-5.6-5.5-12.4-1.4-18,1.9-2.6,2.7-3.3,5-4.4,1.8-.8,2.3-.9,5.5-.9s3.7,0,5.6,1c4.1,1.9,7.3,6.7,7.6,11.3.3,4.4-1,7.7-4.3,11.1-3,3-8.2,4.3-12.5,3.1h0ZM54.2,458.2c2.7-1.1,5.3-4.7,6.2-8.3s0-6.4-2.8-10.5c-.7-1-1.7-1.7-3.3-2.5-2-1-2.6-1.1-5.1-1.1s-3,0-5.1,1.2c-1.8,1-2.5,1.6-3.7,3.2-.8,1.1-1.7,2.8-2,3.7-1.9,5.7,1.2,12.5,6.7,14.8,2.1.8,6.6.6,9.1-.5h0ZM41.3,449c0-2.5,0-5,.3-5.5.8-2,4.6-3,6.4-1.5.5.4,1,1.2,1.3,1.8l.4,1.2,1.3-1.2c.7-.6,2.1-1.6,3.1-2.2,1-.6,1.9-1.2,2-1.4.4-.7.8-.2.8,1.1v1.4l-3.2,2c-3.4,2.2-3.8,2.7-3.8,5.1v1.5h7v1c0,0-.2,1-.2,1h-7.7c0,0-7.7.2-7.7.2v-4.5ZM47.9,448.4c0-2.5,0-3.1-.7-3.9-1.4-1.9-3.8-.8-4.1,1.9-.2,1.1,0,4.3,0,4.9,0,0,1.1,0,2.4,0h2.3v-3Z" inkscape:connector-curvature="0"/>
      <rect id="rect86" class="cls-7" x="583.2" y="747.3" width="106.3" height="113.4"/>
      <rect id="rect88" class="cls-1" x="597.4" y="761.5" width="78" height="85"/>
      <g class="cls-4">
        <path d="M352.3,4067.8c0,.9,0,1.7-.1,2.4s-.2,1.3-.4,1.7c-.2.5-.4.8-.7,1s-.6.3-.9.3c-.6,0-1.5-.5-2.9-1.4-1.3-.9-3.2-1.9-5.4-3-2.3-1.1-5-2.1-8.1-3-3.2-.9-6.9-1.4-11.2-1.4s-9.8.9-13.9,2.8c-4.1,1.9-7.6,4.5-10.4,7.8s-5,7.3-6.5,11.8c-1.5,4.6-2.3,9.5-2.3,14.9s.8,11.3,2.5,15.9c1.7,4.6,4,8.5,6.9,11.7s6.4,5.6,10.5,7.2,8.5,2.5,13.4,2.5,5.8-.3,8.8-1,5.7-1.7,8.3-3.1v-27.2h-21.7c-.8,0-1.4-.4-1.8-1.2s-.6-2.1-.6-3.8,0-1.7.1-2.3c.1-.7.3-1.2.5-1.6.2-.4.5-.7.8-.9s.6-.3,1.1-.3h29.7c.5,0,1.1.1,1.6.3s1,.5,1.4.9.8.9,1,1.6c.2.7.4,1.4.4,2.3v35.6c0,1.3-.2,2.3-.6,3.2s-1.3,1.7-2.7,2.4c-1.4.7-3.2,1.5-5.4,2.3-2.2.8-4.5,1.5-6.9,2.1s-4.7,1-7.1,1.3-4.8.4-7.1.4c-7.2,0-13.7-1.1-19.4-3.4-5.7-2.2-10.5-5.4-14.4-9.6-3.9-4.1-6.9-9.1-9-14.9-2.1-5.8-3.1-12.2-3.1-19.4s1.1-14.1,3.4-20.1c2.2-6,5.4-11.1,9.5-15.4,4.1-4.2,9-7.5,14.7-9.9,5.7-2.3,12-3.5,19-3.5s6.9.3,10,.9c3.1.6,5.9,1.4,8.3,2.2s4.5,1.8,6.1,2.7c1.7,1,2.8,1.8,3.4,2.4.6.6,1.1,1.3,1.3,2.2-.2.9,0,2.1,0,3.6Z"/>
        <path d="M446,4143.5c0,1-.2,1.8-.5,2.5s-.7,1.2-1.3,1.7c-.5.4-1.1.7-1.8.9-.6.2-1.3.3-1.9.3h-4.1c-1.3,0-2.4-.1-3.4-.4-1-.3-1.9-.7-2.8-1.4s-1.7-1.6-2.6-2.9c-.9-1.2-1.8-2.7-2.8-4.6l-28.5-53.2c-1.5-2.7-3-5.6-4.5-8.6s-2.9-5.9-4.2-8.8h-.1c.1,3.5.2,7,.2,10.6s.1,7.2.1,10.8v56.4c0,.3-.1.7-.3,1-.2.3-.5.6-1,.7-.5.2-1.1.3-1.9.4-.8.1-1.8.2-3,.2s-2.2-.1-3-.2c-.8-.1-1.4-.3-1.9-.4-.5-.2-.8-.4-1-.7s-.3-.6-.3-1v-86.2c0-1.9.5-3.3,1.6-4.1s2.3-1.2,3.6-1.2h6.1c1.4,0,2.6.1,3.6.4,1,.2,1.8.6,2.6,1.2s1.5,1.3,2.2,2.3,1.5,2.2,2.3,3.7l21.9,41c1.3,2.5,2.7,4.9,3.9,7.3,1.3,2.4,2.5,4.7,3.6,7,1.2,2.3,2.3,4.6,3.5,6.8,1.1,2.2,2.3,4.5,3.4,6.8h.1c-.1-3.8-.2-7.8-.2-11.9v-62.6c0-.3.1-.6.3-.9s.5-.5,1-.8c.5-.2,1.1-.4,1.9-.5s1.8-.1,3.1-.1,2.1,0,2.9.1,1.4.3,1.9.5.8.5,1,.8.3.6.3.9v86.2h0Z"/>
        <path d="M542.7,4100.5c0,8.1-1,15.2-3.1,21.2s-5.1,11-9.1,15-8.8,6.9-14.6,8.9-12.7,3-20.7,3h-19.8c-1.1,0-2.2-.4-3.1-1.1-1-.7-1.5-2.1-1.5-3.9v-83.3c0-1.9.5-3.2,1.5-3.9s2-1.1,3.1-1.1h21.2c8.1,0,14.9,1,20.5,3.1,5.6,2.1,10.3,5.1,14,9s6.6,8.7,8.6,14.3,3,11.8,3,18.8ZM529.6,4101c0-5.1-.6-9.8-1.9-14.1-1.3-4.4-3.2-8.1-5.9-11.3s-6.1-5.7-10.1-7.4c-4.1-1.8-9.4-2.7-15.8-2.7h-12.6v72.7h12.8c6,0,11-.7,15.1-2.2s7.5-3.8,10.3-6.9c2.7-3.1,4.8-6.9,6.2-11.6,1.3-4.7,1.9-10.2,1.9-16.5Z"/>
      </g>
      <g class="cls-4">
        <path d="M788.2,4125.8c0,4.4-.8,8.3-2.4,11.7s-3.9,6.3-6.7,8.7-6.2,4.2-10.1,5.4c-3.9,1.2-8.1,1.8-12.5,1.8s-6-.3-8.7-.8-5.1-1.2-7.1-2c-2.1-.8-3.9-1.6-5.3-2.4-1.4-.8-2.4-1.5-3-2.1s-1-1.3-1.2-2.2c-.3-.9-.4-2.1-.4-3.6s0-1.9,0-2.6c0-.7.2-1.3.4-1.7s.4-.7.7-.9.6-.3,1-.3c.7,0,1.6.4,2.9,1.2,1.2.8,2.8,1.7,4.7,2.7s4.2,1.9,7,2.7c2.7.8,5.9,1.3,9.4,1.3s5.2-.4,7.4-1.1c2.2-.7,4.2-1.7,5.8-3.1,1.6-1.3,2.9-2.9,3.7-4.9.9-1.9,1.3-4.1,1.3-6.6s-.6-4.9-1.8-6.8-2.8-3.5-4.8-4.9-4.2-2.7-6.8-3.9c-2.5-1.2-5.1-2.4-7.8-3.6s-5.2-2.6-7.7-4.1-4.7-3.2-6.7-5.3c-2-2-3.6-4.4-4.8-7.1-1.2-2.7-1.8-6-1.8-9.8s.7-7.4,2.1-10.4c1.4-3.1,3.4-5.6,5.9-7.7,2.5-2.1,5.5-3.6,9-4.7,3.5-1.1,7.3-1.6,11.3-1.6s4.2.2,6.2.5c2.1.4,4.1.8,5.9,1.4,1.9.6,3.5,1.3,4.9,2s2.4,1.3,2.9,1.8.8.8.9,1.1.3.6.4,1c0,.4.2.9.2,1.5s0,1.3,0,2.2,0,1.6,0,2.3-.2,1.2-.3,1.7-.3.8-.6,1-.6.3-.9.3c-.5,0-1.4-.3-2.5-1s-2.5-1.4-4.2-2.3c-1.6-.8-3.6-1.6-5.8-2.3s-4.8-1-7.5-1-4.9.3-6.8,1c-1.9.7-3.5,1.6-4.8,2.8s-2.2,2.5-2.8,4.1-.9,3.3-.9,5.1c0,2.6.6,4.8,1.8,6.7s2.8,3.5,4.8,5c2,1.4,4.3,2.8,6.8,4,2.6,1.2,5.2,2.4,7.8,3.6,2.6,1.2,5.2,2.6,7.8,4,2.6,1.5,4.8,3.2,6.8,5.2s3.6,4.4,4.8,7.1c1.4,3,2,6.2,2,9.9Z"/>
        <path d="M817.9,4063.3c0,2.8-.5,4.7-1.6,5.7s-3,1.5-5.8,1.5-4.7-.5-5.7-1.5-1.6-2.9-1.6-5.6.5-4.7,1.6-5.7,3-1.5,5.8-1.5,4.7.5,5.7,1.5c1.1,1,1.6,2.8,1.6,5.6ZM816.5,4150.2c0,.4,0,.7-.3,1s-.5.5-.9.7-1,.3-1.8.4c-.8.1-1.8.1-3,.1s-2.1,0-2.9-.1c-.8-.1-1.4-.2-1.8-.4-.5-.2-.8-.4-.9-.7-.2-.3-.3-.6-.3-1v-65c0-.3,0-.6.3-.9.2-.3.5-.5.9-.7.5-.2,1.1-.3,1.8-.4.8-.1,1.7-.1,2.9-.1s2.2,0,3,.1,1.4.2,1.8.4c.4.2.7.4.9.7s.3.6.3.9v65Z"/>
        <path d="M892.8,4088.2c0,1.7-.2,2.9-.7,3.6-.5.7-1,1.1-1.8,1.1h-9.3c1.7,1.7,2.9,3.6,3.5,5.7.7,2.1,1,4.3,1,6.5,0,3.8-.6,7.1-1.8,10s-2.9,5.3-5.2,7.3c-2.2,2-4.9,3.5-8,4.6s-6.5,1.6-10.3,1.6-5.2-.3-7.5-1c-2.4-.7-4.2-1.6-5.5-2.6-.9.9-1.6,1.9-2.1,3-.6,1.1-.8,2.4-.8,3.8s.8,3.1,2.3,4.2c1.6,1.1,3.6,1.7,6.2,1.8l17,.7c3.2.1,6.2.5,8.9,1.3s5,1.9,7,3.4,3.5,3.3,4.6,5.4c1.1,2.1,1.7,4.6,1.7,7.5s-.6,5.8-1.9,8.5c-1.3,2.7-3.2,5.1-5.7,7.1-2.6,2-5.9,3.7-9.9,4.8-4,1.2-8.7,1.8-14.2,1.8s-9.7-.4-13.4-1.3c-3.7-.9-6.7-2.1-9.1-3.6-2.4-1.5-4.1-3.4-5.1-5.5-1.1-2.1-1.6-4.5-1.6-7s.2-3.1.6-4.6c.4-1.5,1-2.9,1.8-4.3.8-1.3,1.8-2.6,3-3.9s2.5-2.4,4.1-3.6c-2.4-1.2-4.1-2.7-5.2-4.5-1.1-1.8-1.7-3.8-1.7-5.9s.6-5.6,1.8-7.9c1.2-2.3,2.7-4.4,4.5-6.2-1.5-1.8-2.7-3.8-3.5-6-.9-2.2-1.3-4.9-1.3-8.1s.6-7,1.9-10c1.3-2.9,3-5.4,5.2-7.4s4.9-3.6,8-4.7c3.1-1.1,6.5-1.6,10.1-1.6s3.8.1,5.5.3,3.3.5,4.8.9h19.6c.8,0,1.4.4,1.8,1.2.5.7.7,2,.7,3.6ZM880.2,4156.8c0-2.8-1.1-4.9-3.4-6.5-2.3-1.5-5.4-2.3-9.3-2.4l-16.8-.6c-1.5,1.2-2.8,2.3-3.8,3.4-1,1.1-1.8,2.1-2.3,3.1-.6,1-1,2-1.2,2.9-.2,1-.3,1.9-.3,3,0,3.1,1.6,5.5,4.8,7.1s7.6,2.4,13.3,2.4,6.6-.3,9.1-1c2.4-.7,4.4-1.6,5.9-2.8s2.6-2.5,3.2-4c.5-1.4.8-3,.8-4.6ZM874.2,4105.3c0-4.4-1.2-7.9-3.6-10.4-2.4-2.5-5.9-3.7-10.4-3.7s-4.3.4-6,1.2-3.1,1.8-4.3,3.2c-1.1,1.3-2,2.9-2.5,4.7-.6,1.8-.8,3.6-.8,5.5,0,4.3,1.2,7.7,3.6,10.1,2.4,2.5,5.8,3.7,10.2,3.7s4.4-.4,6.1-1.1c1.7-.7,3.2-1.8,4.3-3.1s2-2.9,2.5-4.6c.6-1.8.9-3.6.9-5.5Z"/>
        <path d="M964.1,4150.2c0,.4,0,.7-.3,1s-.5.5-.9.7-1,.3-1.8.4c-.8.1-1.7.1-2.9.1s-2.2,0-3-.1-1.4-.2-1.8-.4c-.4-.2-.7-.4-.9-.7s-.3-.6-.3-1v-38.1c0-3.7-.3-6.7-.9-9-.6-2.3-1.4-4.2-2.5-5.8s-2.5-2.9-4.3-3.8c-1.8-.9-3.8-1.3-6.1-1.3s-6,1.1-9,3.2c-3,2.1-6.1,5.2-9.4,9.3v45.4c0,.4,0,.7-.3,1s-.5.5-.9.7-1,.3-1.8.4c-.8.1-1.8.1-3,.1s-2.1,0-2.9-.1c-.8-.1-1.4-.2-1.8-.4-.5-.2-.8-.4-.9-.7-.2-.3-.3-.6-.3-1v-65c0-.4,0-.7.2-1,0-.3.4-.5.9-.7.4-.2,1-.4,1.7-.4.7-.1,1.6-.1,2.7-.1s1.9,0,2.6.1c.7.1,1.2.2,1.6.4.4.2.7.5.8.7.2.3.3.6.3,1v8.6c3.7-4.1,7.3-7.1,10.9-9,3.6-1.9,7.3-2.9,11-2.9s8,.7,10.9,2.2c3,1.5,5.4,3.4,7.2,5.9s3.1,5.3,3.9,8.6c.8,3.3,1.2,7.3,1.2,11.9v39.8h0Z"/>
        <path d="M1034.8,4150.3c0,.6-.2,1-.6,1.3s-.9.5-1.6.7c-.7.1-1.7.2-3,.2s-2.3-.1-3-.2-1.3-.4-1.6-.7c-.3-.3-.5-.7-.5-1.3v-6.5c-2.8,3-6,5.4-9.5,7.1-3.5,1.7-7.2,2.5-11.1,2.5s-6.5-.4-9.3-1.3c-2.8-.9-5.1-2.2-7.1-3.9s-3.5-3.8-4.5-6.2-1.6-5.2-1.6-8.4.7-6.8,2.2-9.5,3.6-4.9,6.4-6.7c2.8-1.8,6.2-3.1,10.3-4,4-.9,8.6-1.3,13.6-1.3h9v-5.1c0-2.5-.3-4.7-.8-6.6-.5-1.9-1.4-3.5-2.6-4.8-1.2-1.3-2.7-2.2-4.6-2.9s-4.2-1-6.9-1-5.6.3-7.9,1c-2.3.7-4.4,1.5-6.1,2.3-1.8.8-3.2,1.6-4.4,2.3s-2.1,1-2.6,1-.7-.1-1-.3-.5-.5-.8-.9c-.2-.4-.4-.9-.5-1.5s0-1.3,0-2c0-1.2,0-2.2.3-2.9s.6-1.4,1.2-2c.6-.6,1.8-1.4,3.4-2.2,1.6-.8,3.4-1.6,5.5-2.3s4.3-1.3,6.8-1.7c2.5-.5,4.9-.7,7.4-.7,4.7,0,8.6.5,11.9,1.6s5.9,2.6,7.9,4.7c2,2,3.5,4.6,4.4,7.6s1.4,6.6,1.4,10.6v44h0ZM1023,4120.6h-10.2c-3.3,0-6.1.3-8.5.8-2.4.6-4.4,1.4-6,2.5s-2.8,2.4-3.5,3.9-1.1,3.3-1.1,5.2c0,3.4,1.1,6.1,3.2,8.1,2.1,2,5.1,3,9,3s6-.8,8.7-2.4c2.7-1.6,5.5-4,8.4-7.3v-13.8h0Z"/>
        <path d="M1068.6,4150.2c0,.4,0,.7-.3,1-.2.3-.5.5-.9.7s-1,.3-1.8.4c-.8.1-1.8.1-3,.1s-2.1,0-2.9-.1-1.4-.2-1.8-.4c-.5-.2-.8-.4-.9-.7-.2-.3-.3-.6-.3-1v-96.5c0-.4,0-.7.3-1,.2-.3.5-.5.9-.7.5-.2,1.1-.3,1.8-.4.8-.1,1.7-.1,2.9-.1s2.2,0,3,.1,1.4.2,1.8.4.7.4.9.7c.2.3.3.6.3,1v96.5Z"/>
      </g>
      <g class="cls-4">
        <path d="M625.3,4265.4c0,.9,0,1.7-.2,2.3,0,.7-.3,1.2-.6,1.6-.2.4-.5.7-.9.9-.3.2-.7.3-1.1.3h-23.7v26.3c0,.4,0,.7-.3,1s-.5.5-.9.7-1,.3-1.6.5-1.5.2-2.5.2-1.8-.1-2.5-.2c-.7-.1-1.3-.3-1.7-.5s-.7-.4-.9-.7-.3-.6-.3-1v-26.3h-23.7c-.4,0-.8-.1-1.1-.3s-.6-.5-.8-.9-.4-1-.6-1.6c0-.6-.2-1.4-.2-2.3s0-1.6.2-2.3c0-.7.3-1.2.6-1.6.2-.4.5-.7.8-.9s.7-.3,1-.3h23.8v-26.3c0-.4,0-.7.3-1s.5-.6.9-.8,1-.4,1.7-.5,1.5-.2,2.5-.2,1.9.1,2.5.2,1.2.3,1.6.5.7.5.9.8.3.7.3,1v26.3h23.8c.4,0,.7.1,1,.3s.6.5.9.9c.3.4.5,1,.6,1.6.2.7.2,1.4.2,2.3Z"/>
        <path d="M680.6,4304.8c-.2.5-.5,1-.8,1.3s-.8.6-1.4.8c-.6.2-1.4.3-2.3.4s-2.1.1-3.5.1h-2.8c-.8,0-1.5-.1-2.1-.2-.6-.1-1.1-.2-1.5-.3s-.8-.3-1-.5c-.3-.2-.5-.4-.7-.7s-.3-.6-.5-1l-30.5-86.8c-.4-1.1-.6-1.9-.6-2.6s.2-1.1.6-1.5c.4-.3,1.1-.6,2.1-.6,1-.1,2.3-.1,3.9-.1s2.4,0,3.2.1,1.4.2,1.8.4c.4.2.8.4,1,.8.2.3.4.7.6,1.2l26.8,78.6h0l26.1-78.5c0-.5.3-1,.5-1.3s.5-.6,1-.8,1.2-.3,2-.4c.9-.1,2-.1,3.5-.1s2.7.1,3.5.2c.9.1,1.5.3,1.8.7.3.3.4.8.4,1.5,0,.7-.3,1.5-.7,2.6l-30.5,86.7Z"/>
      </g>
      <g class="cls-4">
        <path class="cls-2" d="M1004.9,674.6c.4,0,.7,0,1,.2.3.2.5.5.7.9.2.5.3,1.1.4,1.9,0,.8.2,1.8.2,3s0,2.9-.2,3.9c0,1-.4,1.8-.8,2.3-.4.5-.8.9-1.2,1.2l-44.4,32.6h44.4c.3,0,.6.1.9.3.3.2.5.5.7,1s.3,1.1.4,1.8c0,.8.2,1.7.2,2.8s0,2-.2,2.8c0,.8-.3,1.4-.4,1.9-.2.5-.4.8-.7,1s-.6.3-.9.3h-85.2c-.4,0-.7-.1-1-.3-.3-.2-.5-.5-.7-1s-.3-1.1-.4-1.9c0-.8-.2-1.7-.2-2.8s0-2.1.2-2.8c0-.8.3-1.4.4-1.8.2-.5.4-.8.7-1s.6-.3,1-.3h39.5l-39.4-31.4c-.4-.3-.8-.6-1-1-.3-.4-.5-.8-.7-1.3s-.3-1.2-.4-1.9c0-.8,0-1.7,0-2.9s0-2.1.2-2.9c0-.7.3-1.3.4-1.7.2-.4.4-.7.7-.9s.6-.2.9-.2c.6,0,1.2,0,1.8.4.6.3,1.4.9,2.5,1.7l35.2,29.4,42.1-31.7c1.2-.8,2-1.2,2.4-1.4.4,0,.8-.2,1-.2Z"/>
        <path class="cls-2" d="M972.4,631.2h32.7c.4,0,.7,0,1,.3s.5.5.7,1,.3,1.1.4,1.8c0,.8.2,1.7.2,2.8s0,2.1-.2,2.8c0,.8-.3,1.4-.4,1.8-.2.5-.4.8-.7,1s-.6.3-1,.3h-32.7l-50.1,25.1c-1.1.5-1.9.8-2.5.9-.6,0-1.1,0-1.4-.3-.3-.3-.5-1-.6-1.9s0-2.1,0-3.6,0-2.5,0-3.3.2-1.5.4-2,.4-.9.7-1.1c.3-.3.7-.5,1.1-.7l25.5-12.3c2.4-1.1,5-2.3,7.6-3.4,2.7-1.1,5.3-2.3,8-3.5h0c-2.6-1.1-5.2-2.2-7.8-3.3-2.6-1.1-5.1-2.2-7.6-3.4l-25.6-12.4c-.5,0-.8-.3-1.2-.6-.3-.2-.6-.6-.7-1s-.3-1-.4-1.8c0-.8,0-1.8,0-2.9,0-1.6,0-2.9.2-3.9,0-.9.3-1.6.7-2,.3-.4.8-.5,1.4-.4.6,0,1.4.4,2.4.9l50,25.1Z"/>
        <path class="cls-2" d="M972.2,572.6c1.8,0,3,.2,3.7.6.7.4,1,1,1,1.8v28.7c0,.8-.4,1.4-1.1,1.9-.7.4-1.9.6-3.7.6s-2.9-.2-3.6-.6c-.7-.4-1-1-1-1.9v-28.7c0-.4,0-.7.2-1,0-.3.4-.5.8-.8s.9-.4,1.5-.5c.6,0,1.4,0,2.2,0Z"/>
        <path class="cls-2" d="M962.3,501.5c6.8,0,13,.5,18.7,1.6,5.6,1.1,10.5,2.9,14.5,5.3,4,2.5,7.2,5.8,9.4,9.8s3.3,9,3.3,14.9-1,10.3-3,14.1-4.9,6.9-8.8,9.2c-3.9,2.3-8.6,4-14.3,5-5.6,1-12.1,1.5-19.4,1.5s-13-.5-18.6-1.6-10.5-2.9-14.5-5.3c-4-2.5-7.2-5.7-9.4-9.7s-3.3-9-3.3-14.8,1-10.3,3-14.2c2-3.8,4.9-6.9,8.8-9.2,3.9-2.3,8.6-4,14.3-5,5.5-1.1,12-1.6,19.3-1.6ZM963.1,513.6c-4.4,0-8.4.2-11.9.5s-6.6.8-9.3,1.4c-2.7.6-5,1.4-7,2.4-1.9,1-3.5,2.2-4.8,3.5-1.3,1.4-2.2,2.9-2.7,4.7-.6,1.8-.9,3.7-.9,5.9,0,3.9.9,7,2.7,9.5,1.8,2.4,4.3,4.3,7.5,5.7s7,2.3,11.2,2.8c4.3.5,8.9.8,13.9.8s12.3-.3,16.9-1c4.6-.7,8.4-1.8,11.4-3.3,2.9-1.5,5.1-3.4,6.4-5.7,1.3-2.3,2-5.1,2-8.4s-.4-4.8-1.2-6.8c-.8-1.9-2-3.6-3.5-5s-3.4-2.5-5.5-3.5c-2.1-.9-4.5-1.6-7.1-2.2-2.6-.5-5.4-.9-8.5-1.1-3.1-.1-6.3-.2-9.6-.2Z"/>
        <path class="cls-2" d="M981.5,434c4.1,0,7.7.7,11,2.1,3.3,1.4,6.1,3.5,8.4,6.1,2.3,2.7,4.1,5.9,5.4,9.8,1.3,3.9,1.9,8.3,1.9,13.2s-.2,5.8-.7,8.3c-.5,2.6-1.1,4.9-1.7,6.9-.7,2-1.3,3.7-2.1,5-.7,1.3-1.2,2.2-1.5,2.5s-.6.6-1,.8c-.3.2-.7.3-1.2.5-.5,0-1,.2-1.7.3s-1.5,0-2.4,0c-1.6,0-2.8-.2-3.4-.5-.6-.3-1-.8-1-1.4s.4-1.3,1.1-2.5,1.5-2.8,2.4-4.8c.8-1.9,1.6-4.2,2.4-6.8.7-2.6,1.1-5.5,1.1-8.7s-.4-5.8-1.2-8.2-1.9-4.3-3.3-5.9c-1.4-1.6-3.1-2.8-5-3.6s-4.1-1.2-6.3-1.2-4.8.5-6.8,1.5-3.7,2.5-5.2,4.5-2.6,4.4-3.4,7.2c-.8,2.9-1.2,6.1-1.2,9.7v8.7c0,.4,0,.7-.2,1.1-.2.4-.4.7-.8.9-.4.3-.8.5-1.4.6-.6.2-1.4.2-2.3.2s-1.6,0-2.2-.2c-.6,0-1-.3-1.4-.6-.3-.3-.6-.5-.8-.9-.2-.3-.2-.7-.2-1.1v-7.8c0-3-.4-5.7-1.2-8.1s-1.9-4.4-3.4-6.1c-1.5-1.7-3.2-2.9-5.2-3.8-2-.9-4.3-1.3-6.8-1.3s-3.6.3-5.2.9c-1.7.6-3.1,1.5-4.4,2.7-1.2,1.2-2.2,2.7-2.9,4.6-.7,1.9-1.1,4-1.1,6.4s.4,5.1,1.2,7.3,1.7,4.2,2.6,5.9c.9,1.7,1.8,3.2,2.6,4.3s1.2,1.9,1.2,2.4,0,.6-.2.9c0,.3-.3.5-.7.6-.3.2-.8.3-1.4.3-.6,0-1.4,0-2.4,0s-1.3,0-1.8,0c-.5,0-1,0-1.4-.3-.4,0-.7-.3-1.1-.5-.3-.2-.7-.5-1.1-.9-.4-.4-1.1-1.3-1.9-2.6-.8-1.3-1.6-3-2.4-4.9-.8-1.9-1.5-4.2-2-6.7s-.8-5.3-.8-8.2.5-7.7,1.6-10.8,2.5-5.7,4.5-7.8c1.9-2.1,4.2-3.6,6.9-4.7,2.7-1,5.6-1.5,8.9-1.5s5.4.4,7.8,1.1,4.5,1.8,6.4,3.2,3.4,3.2,4.7,5.2c1.3,2.1,2.2,4.4,2.7,7.1h0c.3-3.1,1.1-5.9,2.3-8.4s2.7-4.7,4.6-6.5c1.8-1.8,4-3.3,6.4-4.3,2.2-.8,4.8-1.3,7.6-1.3Z"/>
        <path class="cls-2" d="M959,361.4c3.8,0,7.7.2,11.7.7,3.9.5,7.7,1.2,11.4,2.3s7,2.6,10.2,4.4,6,4.2,8.3,7c2.4,2.8,4.2,6.2,5.6,10,1.3,3.9,2,8.4,2,13.5s0,3.9-.4,5.7c-.3,1.9-.6,3.5-.9,5-.4,1.5-.8,2.7-1.2,3.7s-.8,1.7-1.2,2.2-1,.8-1.7,1-1.7.3-2.8.3-1.8,0-2.4,0c-.6,0-1.1-.2-1.4-.3-.3,0-.5-.3-.7-.6,0-.3-.2-.6-.2-.9,0-.5.2-1.2.5-2.1.3-.9.7-2.1,1.1-3.5.4-1.4.8-3,1.1-4.9s.5-4,.5-6.3c0-4.4-.9-8.2-2.6-11.4-1.7-3.2-4-5.8-6.9-7.8s-6.2-3.5-10-4.5-7.8-1.6-12-1.6c1.4,2.4,2.7,5.3,3.8,8.7s1.6,7.3,1.6,11.7-.7,9.1-2,12.4c-1.3,3.4-3.2,6.1-5.5,8.1s-5.1,3.5-8.3,4.4-6.7,1.3-10.5,1.3-7.7-.6-11.2-1.7c-3.5-1.1-6.7-2.9-9.4-5.3-2.7-2.4-4.8-5.5-6.4-9.3-1.6-3.7-2.4-8.2-2.4-13.4s.5-7,1.4-9.8c.9-2.9,2.3-5.3,4-7.4,1.8-2.1,3.9-3.9,6.4-5.3,2.5-1.5,5.3-2.6,8.5-3.5s6.6-1.5,10.3-1.9c3.7-.6,7.6-.8,11.7-.8ZM957.7,373.4c-5.9,0-10.8.4-14.8,1.2s-7.2,1.9-9.7,3.4-4.3,3.4-5.3,5.6c-1.1,2.2-1.6,4.7-1.6,7.6s.5,5.5,1.6,7.6,2.5,3.8,4.3,5.2c1.8,1.3,3.9,2.3,6.1,3,2.3.6,4.6,1,7.1,1s5.2-.3,7.4-.9c2.2-.6,4.1-1.5,5.7-2.8,1.6-1.3,2.8-2.9,3.6-5s1.3-4.6,1.3-7.6-.5-6.7-1.5-9.9c-1.2-3.3-2.5-6-4.2-8.4Z"/>
      </g>
      <g class="cls-4">
        <path class="cls-2" d="M486.2,1218.7c0,2.3-.3,3.9-.8,4.7s-1.3,1.3-2.3,1.3h-36.7c-1.1,0-1.8-.5-2.4-1.4-.5-.9-.8-2.5-.8-4.7s.3-3.8.8-4.7,1.3-1.3,2.4-1.3h36.7c.5,0,.9.1,1.3.3s.7.5,1,1,.5,1.1.6,1.9c0,.9.2,1.8.2,2.9Z"/>
      </g>
      <g class="cls-4">
        <path class="cls-2" d="M673.8,1169.2c0,1.1,0,2.1-.3,2.9s-.4,1.5-.7,2-.6.9-1.1,1.1c-.4.2-.8.4-1.3.4h-28.8v32c0,.5,0,.9-.4,1.2-.2.3-.6.6-1.1.8-.5.2-1.2.4-2,.6-.8,0-1.8.2-3.1.2s-2.2,0-3-.2-1.5-.3-2-.6c-.5-.2-.9-.5-1.1-.8-.2-.3-.4-.7-.4-1.2v-32h-28.8c-.5,0-1-.1-1.4-.4-.4-.2-.7-.6-1-1.1s-.5-1.2-.7-2-.3-1.7-.3-2.9,0-2,.3-2.8.4-1.5.7-2,.6-.9,1-1.1c.4-.2.8-.4,1.3-.4h28.9v-32c0-.5,0-.9.4-1.3.2-.4.6-.7,1.1-1s1.2-.5,2-.6,1.9-.2,3-.2,2.3,0,3.1.2,1.5.4,2,.6c.5.3.9.6,1.1,1,.2.4.4.8.4,1.3v32h28.9c.5,0,.9,0,1.3.4.4.2.7.6,1.1,1.1.3.5.6,1.2.7,2,.2.8.2,1.7.2,2.8Z"/>
      </g>
      <g class="cls-4">
        <path class="cls-2" d="M819,1231.5c0,4.7-.9,8.9-2.6,12.5-1.7,3.7-4.1,6.8-7.2,9.3-3.1,2.6-6.7,4.5-10.8,5.8-4.2,1.3-8.6,1.9-13.4,1.9s-6.5-.3-9.3-.9c-2.9-.6-5.4-1.3-7.7-2.1-2.2-.8-4.1-1.7-5.7-2.6-1.5-.9-2.6-1.6-3.2-2.2-.6-.6-1-1.4-1.3-2.4s-.4-2.2-.4-3.8,0-2.1.2-2.8c0-.7.3-1.4.5-1.8.2-.5.5-.8.8-1s.7-.3,1.1-.3c.7,0,1.7.4,3.1,1.3,1.3.9,3,1.8,5.1,2.9,2.1,1,4.6,2,7.5,2.9s6.3,1.4,10.1,1.4,5.5-.4,7.9-1.2,4.5-1.9,6.2-3.3c1.7-1.4,3.1-3.2,4-5.2s1.4-4.4,1.4-7-.6-5.3-1.9-7.3c-1.3-2-3-3.8-5.1-5.3s-4.5-2.9-7.2-4.2-5.5-2.6-8.3-3.9c-2.8-1.3-5.6-2.8-8.3-4.4s-5.1-3.5-7.2-5.7c-2.1-2.2-3.8-4.7-5.2-7.6-1.3-2.9-2-6.4-2-10.5s.8-7.9,2.3-11.2c1.5-3.3,3.6-6,6.4-8.2,2.7-2.2,5.9-3.9,9.7-5.1s7.8-1.7,12.1-1.7,4.5.2,6.7.6c2.2.4,4.4.9,6.4,1.5s3.8,1.4,5.3,2.2,2.6,1.4,3.1,1.9.8.9,1,1.2.3.6.4,1.1c0,.4.2,1,.2,1.6,0,.6,0,1.4,0,2.4s0,1.8,0,2.5-.2,1.3-.3,1.8c-.2.5-.4.9-.7,1.1s-.6.3-1,.3c-.6,0-1.5-.4-2.7-1.1s-2.7-1.5-4.5-2.4-3.8-1.7-6.2-2.5c-2.4-.7-5.1-1.1-8.1-1.1s-5.2.4-7.3,1.1c-2.1.7-3.8,1.7-5.1,3-1.3,1.2-2.4,2.7-3,4.4-.7,1.7-1,3.5-1,5.4,0,2.8.6,5.2,1.9,7.2,1.3,2,3,3.8,5.2,5.3,2.1,1.5,4.6,3,7.3,4.3,2.7,1.3,5.5,2.6,8.4,3.9,2.8,1.3,5.6,2.8,8.4,4.3,2.7,1.6,5.2,3.4,7.3,5.6,2.1,2.1,3.9,4.7,5.2,7.6.8,3,1.5,6.5,1.5,10.5Z"/>
      </g>
    </g>
  </g>
</svg>