<?xml version="1.0" encoding="utf-8"?>
<!-- Generator: Adobe Illustrator 27.8.0, SVG Export Plug-In . SVG Version: 6.00 Build 0)  -->
<svg version="1.1"
	 id="svg8" xmlns:svg="http://www.w3.org/2000/svg" xmlns:rdf="http://www.w3.org/1999/02/22-rdf-syntax-ns#" xmlns:sodipodi="http://sodipodi.sourceforge.net/DTD/sodipodi-0.dtd" xmlns:dc="http://purl.org/dc/elements/1.1/" xmlns:inkscape="http://www.inkscape.org/namespaces/inkscape" xmlns:cc="http://creativecommons.org/ns#" inkscape:export-xdpi="93" inkscape:export-ydpi="93" inkscape:version="0.92.4 (5da689c313, 2019-01-14)"
	 xmlns="http://www.w3.org/2000/svg" xmlns:xlink="http://www.w3.org/1999/xlink" x="0px" y="0px" viewBox="0 0 905 1081"
	 style="enable-background:new 0 0 905 1081;" xml:space="preserve">
<style type="text/css">
	.st0{fill:#FFFFFF;}
	.st1{opacity:0.99;fill:#CCCCCC;enable-background:new    ;}
	.st2{opacity:0.99;fill:#FFFFFF;enable-background:new    ;}
	.st3{fill:#1A1A1A;}
	.st4{opacity:0.99;fill:#808080;enable-background:new    ;}
	.st5{fill:#CCCCCC;}
	.st6{opacity:0.99;fill:#F2F2F2;enable-background:new    ;}
	.st7{enable-background:new    ;}
	.st8{opacity:0.99;fill:#1A1A1A;enable-background:new    ;}
</style>
<defs>
	
		<inkscape:perspective  id="perspective876" inkscape:persp3d-origin="104.99999 : 98.999996 : 1" inkscape:vp_x="0 : 148.49999 : 1" inkscape:vp_y="0 : 999.99995 : 0" inkscape:vp_z="210.00001 : 148.49999 : 1" sodipodi:type="inkscape:persp3d">
		</inkscape:perspective>
</defs>
<sodipodi:namedview  bordercolor="#000000" borderlayer="false" borderopacity="1" id="base" inkscape:current-layer="layer1" inkscape:cx="131.49897" inkscape:cy="1727.1102" inkscape:document-units="mm" inkscape:lockguides="true" inkscape:pagecheckerboard="false" inkscape:pageopacity="0" inkscape:pageshadow="2" inkscape:window-height="1017" inkscape:window-maximized="1" inkscape:window-width="1920" inkscape:window-x="-8" inkscape:window-y="-8" inkscape:zoom="0.1767767" pagecolor="#323232" showgrid="false" showguides="true" width="500mm">
	<inkscape:grid  id="grid111" type="xygrid"></inkscape:grid>
</sodipodi:namedview>
<g id="layer1" transform="translate(0.31582593,502.81107)" inkscape:groupmode="layer" inkscape:label="Ebene 1">
	<rect id="rect815" x="290.3" y="-497.4" width="608.5" height="813.9"/>
	<g id="flowRoot969" transform="translate(0,-100.12501)">
	</g>
	<g id="flowRoot1466" transform="translate(0,-100.12501)">
	</g>
	<g id="flowRoot1529" transform="translate(0,-100.12501)">
	</g>
	<path id="path31-1" inkscape:connector-curvature="0" class="st0" d="M463.3-436.5c3.8-0.1,4.2-0.1,4.9-0.6c0.4-0.3,1-0.8,1.2-1.2
		c0.4-0.7,0.4-1.2,0.5-8.9l0.1-8.2l8,0l8,0v10.2c0,11.3-0.1,12.3-1.3,15.3c-1.5,3.9-3.8,5.7-8.4,6.7c-1.2,0.3-2.7,0.3-7.3,0.3
		c-3.2,0-6.7-0.1-7.8-0.2l-2-0.2l-0.1-6.7l-0.1-6.7L463.3-436.5z M539.8-413.6c68.6,0,85.5,0.1,82.6,0.4l-0.4,0l0.4,0.2
		c0.4,0.2,0.3,0.2-0.3,0.2c-0.5,0-0.3,0.1,0.7,0.2l1.4,0.1l-1.4,0.1c-0.8,0-1.3,0.1-1,0.2c0.3,0.1,0.4,0.4,0.4,1.9
		c0,1.8,0,1.8,0.6,1.9c0.4,0.1,0.3,0.1-0.3,0.1c-0.5,0-0.9,0.1-0.9,0.2c0,0.1-27.2,0.2-81.1,0.2h-81.1v-2.9v-2.9L539.8-413.6z
		 M478-476.4h8.1v6.6v6.6H478h-8.1v-6.6v-6.6H478z M494.3-452c0.6-3.7,1.6-7,3.1-10c0.5-1.1,1.1-2,1.1-2.1c0.1-0.1,0.5-0.6,0.9-1.3
		c0.8-1.3,2.8-3.7,3.2-4c0.2-0.1,0.3-0.3,0.3-0.4c0-0.3,2-2.1,3.6-3.3c1.7-1.2,3-1.9,6-3c3.5-1.3,5.6-1.6,9.7-1.5
		c3,0.1,3.8,0.2,5.7,0.8c1.2,0.4,2.7,0.9,3.2,1.1s1.2,0.5,1.3,0.5c0.1,0,1,0.5,2,1c3.9,2.3,9.2,8.3,11.2,12.8
		c3.2,7,3.6,14.1,1.2,20.6c-1,2.7-1.8,4.3-2.9,6.2c-1.4,2.2-1.5,2.4-4.8,5.7c-3.8,3.8-6.6,5.4-11.5,6.7c-2.5,0.7-7.5,1-10.2,0.5
		c-3.5-0.5-8.2-2.5-11-4.7c-1.5-1.1-3.5-2.9-3.5-3.1c0-0.1-0.5-0.6-1.1-1.2c-2.9-3-5.9-8.8-7-13.6
		C494.4-445.8,494.1-450.6,494.3-452L494.3-452z M509.8-445.1c0.8,3.1,2.3,5.7,4.8,8c2.4,2.3,6.3,3.2,9.7,2.2
		c3.7-1.1,7.3-5.5,8.5-10.1c0.7-2.7,0.6-6.5-0.1-9.1c-1.1-3.7-3-6.5-5.7-8.4c-1.2-0.9-1.8-1.1-3.1-1.4c-2.8-0.5-5.6-0.2-7.5,0.8
		c-1.7,0.9-3.9,3.4-5.2,5.8C509.3-453.6,508.8-449.2,509.8-445.1L509.8-445.1z M555.4-476.3c0.1-0.1,3.8-0.1,8.1,0l7.9,0.1l0,7.3
		c0,6.9,0.1,7.3,0.5,8.5c1.1,3.1,4.9,4.8,8.1,3.7c1.7-0.6,2.8-1.5,3.6-3.1l0.7-1.4l0.1-7.5l0.1-7.5h8.1h8.1l-0.1,8.5
		c-0.1,7.9-0.1,8.6-0.6,10.3c-0.9,3.3-2.4,6.2-4.2,8.4c-0.5,0.6-0.9,1.1-0.9,1.2c0,0.3-2.1,2.1-3.9,3.5c-1.5,1.1-3.7,2.3-4.8,2.5
		c-0.3,0.1-1.5,0.4-2.5,0.7c-1.7,0.5-2.2,0.6-5.8,0.6c-3.7,0-4.1,0-6.1-0.6c-3.2-0.9-4.3-1.4-6.4-2.8c-2.4-1.6-4.5-3.6-6.2-6.2
		c-2.4-3.6-3.4-6.2-3.9-10.3C555-463.2,555-476.2,555.4-476.3L555.4-476.3z M578-436.2h13.2v6.8v6.8H578h-13.2v-6.8v-6.8H578z
		 M600.6-486.8c0.1,0,0.2-0.4,0.2-0.8c0-0.8,0-0.8,1-1c0.6-0.1,23-0.1,49.9-0.1l48.9,0l-0.1,2.9l-0.1,2.9h-49.7
		c-27.3,0-49.8-0.1-50-0.1c-0.3-0.1-0.3-0.5-0.3-2C600.4-486.1,600.5-486.8,600.6-486.8L600.6-486.8z M623-454h16.9v6.7v6.7H623
		h-16.9v-6.7v-6.7H623z M653.2-476.4h8.1v6.6v6.6h-8.1h-8.1v-6.6v-6.6H653.2z M653.2-456.2h8.1v17.2v17.2h-8.1h-8.1v-17.2v-17.2
		H653.2z M685.5-476.4h17v6.6v6.6h-17h-17v-6.6v-6.6H685.5z M671.3-455.2c0.1-0.1,3.7-0.1,8-0.1l7.8,0l0.1,7.9
		c0.1,11-0.4,10.4,7.9,10.5l5.2,0.1v6.9v6.9l-1.9,0.2c-2.9,0.4-12.2,0.3-14.7-0.1c-4.3-0.7-7.1-2-9-4.3c-1.9-2.3-2.9-4.7-3.3-8.5
		C671.1-438.1,671.1-455,671.3-455.2L671.3-455.2z M712-482.9c0.4-1.4,1.2-2.8,2.1-3.6c3.7-3.2,8.1-3.6,11.7-0.9
		c1.7,1.3,2.1,1.7,2.9,3.3c0.6,1.2,0.6,1.5,0.6,3.6c0,2-0.1,2.4-0.6,3.6c-1.2,2.7-4.3,4.7-7.4,5c-2.8,0.2-5-0.6-7.2-2.8
		C712-476.6,711.2-480,712-482.9z M713.6-477.3c0.7,1.8,3,3.5,5.4,4.1c2.4,0.6,4.2,0.1,6.8-1.9c0.6-0.5,1.1-1.1,1.6-2.1
		c0.6-1.3,0.7-1.7,0.7-3.3c0-1.7-0.1-2-0.8-3.4c-0.6-1.2-1-1.7-2.1-2.4c-0.7-0.5-1.8-1.1-2.4-1.3c-3.7-1.3-8.1,0.8-9.6,4.4
		C712.8-481.9,712.9-478.9,713.6-477.3L713.6-477.3z M719.6-485.7c1.6,0,3.2,0.1,3.6,0.2c1.3,0.5,1.9,3,1,4.2
		c-0.2,0.3-0.8,0.7-1.2,0.8l-0.7,0.3l0.8,0.8c0.4,0.5,1.1,1.4,1.4,2c0.4,0.7,0.8,1.3,0.9,1.3c0.5,0.3,0.1,0.5-0.7,0.5l-0.9,0
		l-1.3-2.1c-1.4-2.2-1.7-2.5-3.3-2.5h-1v2.3v2.3l-0.7-0.1l-0.7-0.1l-0.1-5l-0.1-5L719.6-485.7z M720-481.4c1.6,0,2-0.1,2.5-0.4
		c1.2-0.9,0.5-2.5-1.2-2.7c-0.7-0.1-2.8,0-3.2,0.1c0,0-0.1,0.7-0.1,1.5v1.5H720z"/>
	<ellipse id="path84" class="st1" cx="378.1" cy="-387.4" rx="60.8" ry="61"/>
	<ellipse id="circle86" class="st1" cx="810.3" cy="-387.4" rx="60.8" ry="61"/>
	<ellipse id="path88" class="st2" cx="378.1" cy="-387.4" rx="54" ry="54.3"/>
	<ellipse id="circle90" class="st2" cx="810.3" cy="-387.4" rx="54" ry="54.3"/>
	
		<rect id="rect821-4" x="540" y="21.8" transform="matrix(2.644890e-03 -1 1 2.644890e-03 358.1768 828.0657)" class="st0" width="108.3" height="425.2"/>
	<path id="rect825-1" class="st3" d="M404,186l63.3,0.2c11.1,0,20.1,9.1,20.1,20.2l-0.1,55.9c0,11.1-9.1,20.1-20.2,20.1l-63.3-0.2
		c-11.1,0-20.1-9.1-20.1-20.2l0.1-55.9C383.8,194.9,392.9,186,404,186z"/>
	<path id="rect872-6" class="st3" d="M615.4,186.5l63.3,0.2c11.1,0,20.1,9.1,20.1,20.2l-0.1,55.9c0,11.1-9.1,20.1-20.2,20.1
		l-63.3-0.2c-11.1,0-20.1-9.1-20.1-20.2l0.1-55.9C595.2,195.5,604.3,186.5,615.4,186.5z"/>
	<path id="rect874-1" class="st3" d="M507.1,186.2l68.4,0.2c9.7,0,17.5,7.9,17.5,17.6l-0.2,61.1c0,9.7-7.9,17.5-17.6,17.5l-68.4-0.2
		c-9.7,0-17.5-7.9-17.5-17.6l0.2-61.1C489.5,194.1,497.4,186.2,507.1,186.2z"/>
	
		<rect id="rect947-6" x="333" y="334.8" transform="matrix(2.442130e-03 -1 1 2.442130e-03 93.5006 774.0216)" class="st4" width="203.5" height="10.7"/>
	
		<rect id="rect949-3" x="439.3" y="335.1" transform="matrix(2.442130e-03 -1 1 2.442130e-03 199.2936 880.6033)" class="st4" width="203.5" height="10.7"/>
	
		<rect id="rect951-7" x="544.4" y="335.3" transform="matrix(2.442130e-03 -1 1 2.442130e-03 303.8692 985.9588)" class="st4" width="203.5" height="10.7"/>
	<path id="rect64" class="st3" d="M720.4,186.8l63.3,0.2c11.1,0,20.1,9.1,20.1,20.2l-0.1,55.9c0,11.1-9.1,20.1-20.2,20.1l-63.3-0.2
		c-11.1,0-20.1-9.1-20.1-20.2l0.1-55.9C700.3,195.8,709.3,186.8,720.4,186.8z"/>
	
		<rect id="rect66" x="649.4" y="335.6" transform="matrix(2.442130e-03 -1 1 2.442130e-03 408.3211 1091.3116)" class="st4" width="203.5" height="10.7"/>
	<ellipse id="path127" class="st0" cx="495.8" cy="-147.3" rx="101.3" ry="101.7"/>
	<ellipse id="circle129" class="st0" cx="692.7" cy="-147.3" rx="101.3" ry="101.7"/>
	<ellipse id="path131" cx="692.7" cy="-147.3" rx="94.6" ry="95"/>
	<ellipse id="circle133" cx="495.8" cy="-147.3" rx="94.6" ry="95"/>
	<ellipse id="path135" class="st5" cx="495.6" cy="-215.2" rx="47.3" ry="47.5"/>
	<ellipse id="circle137" class="st5" cx="495.6" cy="-79.5" rx="47.3" ry="47.5"/>
	<ellipse id="circle139" class="st5" cx="691.5" cy="-215.2" rx="47.3" ry="47.5"/>
	<ellipse id="circle141" class="st5" cx="691.5" cy="-79.5" rx="47.3" ry="47.5"/>
	<polygon id="rect164" inkscape:transform-center-x="14.366526" inkscape:transform-center-y="0.23046829" class="st4" points="
		456.8,-73 456.8,-83.6 495.6,-83.7 495.6,-73.1 	">
	</polygon>
	<polygon id="rect166" inkscape:transform-center-x="14.33596" inkscape:transform-center-y="0.1984491" class="st4" points="
		495.6,-218.8 495.6,-208.1 456.9,-208.1 456.9,-218.8 	">
	</polygon>
	<polygon id="rect178" inkscape:transform-center-x="-14.928743" inkscape:transform-center-y="-0.13122861" class="st4" points="
		731.8,-84.3 731.8,-73.2 691.4,-73.4 691.4,-84.4 	">
	</polygon>
	<polygon id="rect180" inkscape:transform-center-x="-14.79897" inkscape:transform-center-y="-0.13229243" class="st4" points="
		691.5,-208.6 691.5,-219.3 731.4,-219.2 731.4,-208.5 	">
	</polygon>
	<path id="path3804-9" inkscape:connector-curvature="0" class="st6" d="M898.1-151.5c-0.4-16.6-5.2-32.9-13.9-47.2
		c-18.6-30.6-53-49.5-90.2-49.6v0h-0.2c0,0,0,0,0,0v0h-41.3v-7.3h-23.2v213h23.2V-50H794v0c37.2-0.1,71.6-19,90.2-49.6
		C893.7-115.4,898.6-133.3,898.1-151.5L898.1-151.5z"/>
	<g class="st7">
		<path d="M538.2,468.4c0,0.4,0,0.8-0.1,1.1c-0.1,0.3-0.2,0.6-0.3,0.8c-0.1,0.2-0.3,0.4-0.4,0.4c-0.2,0.1-0.3,0.1-0.5,0.1h-11.3
			v12.5c0,0.2,0,0.3-0.1,0.5s-0.2,0.2-0.4,0.3c-0.2,0.1-0.5,0.2-0.8,0.2c-0.3,0.1-0.7,0.1-1.2,0.1c-0.5,0-0.9,0-1.2-0.1
			c-0.3-0.1-0.6-0.1-0.8-0.2c-0.2-0.1-0.3-0.2-0.4-0.3s-0.1-0.3-0.1-0.5v-12.5h-11.3c-0.2,0-0.4,0-0.5-0.1s-0.3-0.2-0.4-0.4
			c-0.1-0.2-0.2-0.5-0.3-0.8c-0.1-0.3-0.1-0.7-0.1-1.1c0-0.4,0-0.8,0.1-1.1c0.1-0.3,0.2-0.6,0.3-0.8c0.1-0.2,0.2-0.4,0.4-0.4
			s0.3-0.1,0.5-0.1h11.3v-12.5c0-0.2,0-0.3,0.1-0.5c0.1-0.1,0.2-0.3,0.4-0.4c0.2-0.1,0.5-0.2,0.8-0.2c0.3-0.1,0.7-0.1,1.2-0.1
			c0.5,0,0.9,0,1.2,0.1c0.3,0.1,0.6,0.1,0.8,0.2c0.2,0.1,0.3,0.2,0.4,0.4c0.1,0.1,0.1,0.3,0.1,0.5V466h11.3c0.2,0,0.3,0,0.5,0.1
			s0.3,0.2,0.4,0.4c0.1,0.2,0.2,0.5,0.3,0.8C538.2,467.6,538.2,468,538.2,468.4z"/>
		<path d="M564.5,487.2c-0.1,0.3-0.2,0.5-0.4,0.6c-0.2,0.2-0.4,0.3-0.7,0.4c-0.3,0.1-0.7,0.2-1.1,0.2c-0.4,0-1,0.1-1.7,0.1
			c-0.5,0-0.9,0-1.3,0c-0.4,0-0.7,0-1-0.1c-0.3,0-0.5-0.1-0.7-0.2c-0.2-0.1-0.4-0.1-0.5-0.2c-0.1-0.1-0.2-0.2-0.3-0.3
			c-0.1-0.1-0.2-0.3-0.2-0.5l-14.6-41.4c-0.2-0.5-0.3-0.9-0.3-1.2c0-0.3,0.1-0.5,0.3-0.7c0.2-0.2,0.5-0.3,1-0.3
			c0.5,0,1.1-0.1,1.9-0.1c0.6,0,1.2,0,1.5,0.1c0.4,0,0.7,0.1,0.9,0.2c0.2,0.1,0.4,0.2,0.5,0.4c0.1,0.2,0.2,0.3,0.3,0.6l12.8,37.5h0
			l12.4-37.4c0.1-0.3,0.1-0.5,0.2-0.6c0.1-0.2,0.3-0.3,0.5-0.4c0.2-0.1,0.6-0.2,1-0.2c0.4,0,1-0.1,1.7-0.1c0.7,0,1.3,0,1.7,0.1
			c0.4,0.1,0.7,0.2,0.8,0.3s0.2,0.4,0.2,0.7c0,0.3-0.1,0.7-0.3,1.2L564.5,487.2z"/>
	</g>
	<g class="st7">
		<path d="M728.1,491.1c0,0.5,0,0.8-0.1,1.2s-0.1,0.6-0.2,0.8c-0.1,0.2-0.2,0.4-0.4,0.5c-0.1,0.1-0.3,0.2-0.5,0.2h-19.7
			c-0.5,0-1-0.2-1.5-0.5c-0.5-0.4-0.7-1-0.7-1.9v-41.2c0-0.2,0-0.3,0.1-0.5c0.1-0.1,0.3-0.2,0.5-0.3c0.2-0.1,0.5-0.1,0.9-0.2
			c0.4-0.1,0.9-0.1,1.4-0.1c0.6,0,1,0,1.4,0.1c0.4,0.1,0.7,0.1,0.9,0.2c0.2,0.1,0.4,0.2,0.5,0.3c0.1,0.1,0.1,0.3,0.1,0.5v38.5h16
			c0.2,0,0.4,0.1,0.5,0.2c0.1,0.1,0.3,0.3,0.4,0.4c0.1,0.2,0.2,0.5,0.2,0.8S728.1,490.7,728.1,491.1z"/>
		<path d="M759.4,491.3c0,0.4,0,0.8-0.1,1.1s-0.1,0.6-0.2,0.8s-0.2,0.4-0.4,0.4s-0.3,0.1-0.5,0.1h-21.4c-0.5,0-1-0.2-1.5-0.5
			c-0.5-0.4-0.7-1-0.7-1.9v-39.7c0-0.9,0.2-1.5,0.7-1.9c0.5-0.4,1-0.5,1.5-0.5H758c0.2,0,0.3,0,0.5,0.1c0.1,0.1,0.3,0.2,0.4,0.4
			c0.1,0.2,0.2,0.5,0.2,0.8c0.1,0.3,0.1,0.7,0.1,1.2c0,0.4,0,0.8-0.1,1.1c-0.1,0.3-0.1,0.6-0.2,0.8s-0.2,0.3-0.4,0.4
			c-0.1,0.1-0.3,0.1-0.5,0.1h-17.4v14h14.9c0.2,0,0.3,0.1,0.5,0.2s0.3,0.2,0.4,0.4c0.1,0.2,0.2,0.4,0.2,0.8s0.1,0.7,0.1,1.1
			c0,0.4,0,0.8-0.1,1.1s-0.1,0.5-0.2,0.7s-0.2,0.3-0.4,0.4c-0.1,0.1-0.3,0.1-0.5,0.1h-14.9v15.9h17.7c0.2,0,0.3,0,0.5,0.1
			s0.3,0.2,0.4,0.4c0.1,0.2,0.2,0.4,0.2,0.8S759.4,490.8,759.4,491.3z"/>
		<path d="M803.3,470.8c0,3.9-0.5,7.2-1.5,10.1c-1,2.9-2.4,5.3-4.3,7.2c-1.9,1.9-4.2,3.3-7,4.2c-2.8,0.9-6,1.4-9.8,1.4h-9.4
			c-0.5,0-1-0.2-1.5-0.5c-0.5-0.4-0.7-1-0.7-1.9v-39.7c0-0.9,0.2-1.5,0.7-1.9c0.5-0.4,1-0.5,1.5-0.5h10.1c3.9,0,7.1,0.5,9.8,1.5
			c2.7,1,4.9,2.4,6.7,4.3s3.2,4.1,4.1,6.8C802.9,464.5,803.3,467.5,803.3,470.8z M797.1,471.1c0-2.4-0.3-4.7-0.9-6.7
			c-0.6-2.1-1.5-3.9-2.8-5.4c-1.3-1.5-2.9-2.7-4.8-3.5c-2-0.8-4.5-1.3-7.5-1.3h-6v34.7h6.1c2.8,0,5.2-0.4,7.2-1.1
			c1.9-0.7,3.6-1.8,4.9-3.3c1.3-1.5,2.3-3.3,2.9-5.5C796.8,476.7,797.1,474.1,797.1,471.1z"/>
	</g>
	<g class="st7">
		<path d="M407.1,527c0,0.4,0,0.8-0.1,1.2c0,0.3-0.1,0.6-0.2,0.8c-0.1,0.2-0.2,0.4-0.3,0.5s-0.3,0.1-0.4,0.1c-0.3,0-0.7-0.2-1.4-0.7
			c-0.6-0.4-1.5-0.9-2.6-1.4c-1.1-0.5-2.4-1-3.9-1.4c-1.5-0.4-3.3-0.7-5.4-0.7c-2.5,0-4.7,0.4-6.6,1.3c-2,0.9-3.6,2.1-5,3.7
			s-2.4,3.5-3.1,5.6s-1.1,4.5-1.1,7.1c0,2.8,0.4,5.4,1.2,7.6c0.8,2.2,1.9,4.1,3.3,5.6s3.1,2.7,5,3.4s4.1,1.2,6.4,1.2
			c1.4,0,2.8-0.2,4.2-0.5c1.4-0.3,2.7-0.8,3.9-1.5v-13h-10.3c-0.4,0-0.7-0.2-0.9-0.6c-0.2-0.4-0.3-1-0.3-1.8c0-0.4,0-0.8,0.1-1.1
			s0.1-0.6,0.2-0.8c0.1-0.2,0.2-0.3,0.4-0.4c0.1-0.1,0.3-0.1,0.5-0.1h14.1c0.3,0,0.5,0,0.8,0.1c0.3,0.1,0.5,0.2,0.7,0.4
			s0.4,0.4,0.5,0.8s0.2,0.7,0.2,1.1v17c0,0.6-0.1,1.1-0.3,1.5c-0.2,0.4-0.6,0.8-1.3,1.2s-1.5,0.7-2.6,1.1c-1.1,0.4-2.1,0.7-3.3,1
			c-1.1,0.3-2.3,0.5-3.4,0.6c-1.1,0.1-2.3,0.2-3.4,0.2c-3.4,0-6.5-0.5-9.2-1.6c-2.7-1.1-5-2.6-6.9-4.6c-1.9-2-3.3-4.3-4.3-7.1
			c-1-2.8-1.5-5.8-1.5-9.2c0-3.5,0.5-6.7,1.6-9.6c1.1-2.9,2.6-5.3,4.5-7.3s4.3-3.6,7-4.7c2.7-1.1,5.7-1.7,9-1.7
			c1.7,0,3.3,0.1,4.8,0.4c1.5,0.3,2.8,0.6,4,1c1.2,0.4,2.1,0.8,2.9,1.3c0.8,0.5,1.3,0.9,1.6,1.2c0.3,0.3,0.5,0.6,0.6,1
			C407,525.7,407.1,526.2,407.1,527z"/>
		<path d="M451.7,563c0,0.5-0.1,0.8-0.2,1.2c-0.2,0.3-0.4,0.6-0.6,0.8c-0.2,0.2-0.5,0.4-0.8,0.4c-0.3,0.1-0.6,0.1-0.9,0.1h-2
			c-0.6,0-1.2-0.1-1.6-0.2c-0.5-0.1-0.9-0.4-1.3-0.7c-0.4-0.3-0.8-0.8-1.2-1.4c-0.4-0.6-0.9-1.3-1.3-2.2l-13.6-25.3
			c-0.7-1.3-1.4-2.7-2.1-4.1c-0.7-1.4-1.4-2.8-2-4.2h-0.1c0,1.7,0.1,3.3,0.1,5.1c0,1.7,0,3.4,0,5.1v26.9c0,0.2,0,0.3-0.1,0.5
			s-0.3,0.3-0.5,0.3c-0.2,0.1-0.5,0.1-0.9,0.2c-0.4,0.1-0.9,0.1-1.4,0.1s-1.1,0-1.4-0.1c-0.4-0.1-0.7-0.1-0.9-0.2
			c-0.2-0.1-0.4-0.2-0.5-0.3c-0.1-0.1-0.1-0.3-0.1-0.5v-41.1c0-0.9,0.3-1.6,0.8-2c0.5-0.4,1.1-0.6,1.7-0.6h2.9
			c0.7,0,1.3,0.1,1.7,0.2c0.5,0.1,0.9,0.3,1.2,0.6c0.4,0.3,0.7,0.6,1.1,1.1c0.3,0.5,0.7,1.1,1.1,1.8l10.4,19.5
			c0.6,1.2,1.3,2.4,1.9,3.5c0.6,1.1,1.2,2.3,1.7,3.4c0.6,1.1,1.1,2.2,1.6,3.3c0.5,1.1,1.1,2.1,1.6,3.2h0c0-1.8-0.1-3.7-0.1-5.7
			c0-2,0-3.8,0-5.7v-24.2c0-0.2,0-0.3,0.1-0.4c0.1-0.1,0.3-0.3,0.5-0.4s0.5-0.2,0.9-0.2s0.9-0.1,1.5-0.1c0.5,0,1,0,1.4,0.1
			c0.4,0,0.7,0.1,0.9,0.2c0.2,0.1,0.4,0.2,0.5,0.4s0.1,0.3,0.1,0.4V563z"/>
		<path d="M497.8,542.5c0,3.9-0.5,7.2-1.5,10.1c-1,2.9-2.4,5.3-4.3,7.2c-1.9,1.9-4.2,3.3-7,4.2c-2.8,0.9-6,1.4-9.8,1.4h-9.4
			c-0.5,0-1-0.2-1.5-0.5c-0.5-0.4-0.7-1-0.7-1.9v-39.7c0-0.9,0.2-1.5,0.7-1.9c0.5-0.4,1-0.5,1.5-0.5h10.1c3.9,0,7.1,0.5,9.8,1.5
			c2.7,1,4.9,2.4,6.7,4.3s3.2,4.1,4.1,6.8C497.3,536.2,497.8,539.2,497.8,542.5z M491.6,542.8c0-2.4-0.3-4.7-0.9-6.7
			c-0.6-2.1-1.5-3.9-2.8-5.4c-1.3-1.5-2.9-2.7-4.8-3.5c-2-0.8-4.5-1.3-7.5-1.3h-6v34.7h6.1c2.8,0,5.2-0.4,7.2-1.1
			c1.9-0.7,3.6-1.8,4.9-3.3c1.3-1.5,2.3-3.3,2.9-5.5C491.2,548.4,491.6,545.8,491.6,542.8z"/>
	</g>
	<g class="st7">
		<path d="M594.2,552.9c0,2.1-0.4,3.9-1.2,5.6c-0.8,1.6-1.8,3-3.2,4.1c-1.4,1.1-3,2-4.8,2.6c-1.8,0.6-3.8,0.9-6,0.9
			c-1.5,0-2.9-0.1-4.1-0.4c-1.3-0.3-2.4-0.6-3.4-0.9c-1-0.4-1.8-0.7-2.5-1.1s-1.1-0.7-1.4-1c-0.3-0.3-0.5-0.6-0.6-1
			c-0.1-0.4-0.2-1-0.2-1.7c0-0.5,0-0.9,0.1-1.3c0-0.3,0.1-0.6,0.2-0.8c0.1-0.2,0.2-0.3,0.3-0.4c0.1-0.1,0.3-0.1,0.5-0.1
			c0.3,0,0.8,0.2,1.4,0.6c0.6,0.4,1.3,0.8,2.3,1.3s2,0.9,3.3,1.3c1.3,0.4,2.8,0.6,4.5,0.6c1.3,0,2.5-0.2,3.5-0.5s2-0.8,2.8-1.5
			s1.4-1.4,1.8-2.3c0.4-0.9,0.6-2,0.6-3.1c0-1.3-0.3-2.3-0.9-3.2c-0.6-0.9-1.3-1.7-2.3-2.4c-0.9-0.7-2-1.3-3.2-1.9
			c-1.2-0.6-2.4-1.1-3.7-1.7c-1.3-0.6-2.5-1.2-3.7-1.9s-2.3-1.5-3.2-2.5c-0.9-1-1.7-2.1-2.3-3.4s-0.9-2.9-0.9-4.7c0-1.9,0.3-3.5,1-5
			c0.7-1.5,1.6-2.7,2.8-3.7c1.2-1,2.6-1.7,4.3-2.3c1.7-0.5,3.5-0.8,5.4-0.8c1,0,2,0.1,3,0.3c1,0.2,1.9,0.4,2.8,0.7
			c0.9,0.3,1.7,0.6,2.4,1c0.7,0.4,1.1,0.6,1.4,0.9c0.2,0.2,0.4,0.4,0.4,0.5c0.1,0.1,0.1,0.3,0.2,0.5c0,0.2,0.1,0.4,0.1,0.7
			c0,0.3,0,0.6,0,1.1c0,0.4,0,0.8-0.1,1.1c0,0.3-0.1,0.6-0.2,0.8c-0.1,0.2-0.2,0.4-0.3,0.5s-0.3,0.2-0.4,0.2c-0.3,0-0.6-0.2-1.2-0.5
			s-1.2-0.7-2-1.1c-0.8-0.4-1.7-0.8-2.8-1.1c-1.1-0.3-2.3-0.5-3.6-0.5c-1.2,0-2.3,0.2-3.2,0.5c-0.9,0.3-1.7,0.8-2.3,1.3
			s-1,1.2-1.3,2c-0.3,0.8-0.4,1.6-0.4,2.4c0,1.2,0.3,2.3,0.9,3.2c0.6,0.9,1.3,1.7,2.3,2.4c1,0.7,2,1.3,3.3,1.9s2.5,1.2,3.7,1.7
			c1.3,0.6,2.5,1.2,3.7,1.9c1.2,0.7,2.3,1.5,3.3,2.5s1.7,2.1,2.3,3.4S594.2,551.2,594.2,552.9z"/>
		<path d="M608.3,523.1c0,1.3-0.3,2.2-0.8,2.7c-0.5,0.5-1.4,0.7-2.8,0.7c-1.3,0-2.2-0.2-2.7-0.7c-0.5-0.5-0.7-1.4-0.7-2.7
			c0-1.3,0.3-2.2,0.8-2.7c0.5-0.5,1.4-0.7,2.8-0.7c1.3,0,2.2,0.2,2.7,0.7C608.1,520.9,608.3,521.8,608.3,523.1z M607.7,564.6
			c0,0.2,0,0.3-0.1,0.5s-0.2,0.2-0.4,0.3c-0.2,0.1-0.5,0.2-0.9,0.2s-0.8,0.1-1.4,0.1c-0.6,0-1,0-1.4-0.1s-0.7-0.1-0.9-0.2
			c-0.2-0.1-0.4-0.2-0.4-0.3c-0.1-0.1-0.1-0.3-0.1-0.5v-31c0-0.2,0-0.3,0.1-0.4c0.1-0.1,0.2-0.3,0.4-0.3c0.2-0.1,0.5-0.2,0.9-0.2
			s0.8-0.1,1.4-0.1c0.6,0,1,0,1.4,0.1s0.7,0.1,0.9,0.2c0.2,0.1,0.4,0.2,0.4,0.3s0.1,0.3,0.1,0.4V564.6z"/>
		<path d="M644,535c0,0.8-0.1,1.4-0.3,1.7c-0.2,0.4-0.5,0.5-0.8,0.5h-4.4c0.8,0.8,1.4,1.7,1.7,2.7c0.3,1,0.5,2,0.5,3.1
			c0,1.8-0.3,3.4-0.9,4.7c-0.6,1.4-1.4,2.5-2.5,3.5c-1.1,1-2.3,1.7-3.8,2.2c-1.5,0.5-3.1,0.8-4.9,0.8c-1.3,0-2.5-0.2-3.6-0.5
			c-1.1-0.3-2-0.8-2.6-1.3c-0.4,0.4-0.8,0.9-1,1.4c-0.3,0.5-0.4,1.1-0.4,1.8c0,0.8,0.4,1.5,1.1,2c0.7,0.5,1.7,0.8,3,0.9l8.1,0.3
			c1.5,0,2.9,0.3,4.2,0.6c1.3,0.4,2.4,0.9,3.3,1.6c0.9,0.7,1.7,1.6,2.2,2.6c0.5,1,0.8,2.2,0.8,3.6c0,1.4-0.3,2.8-0.9,4.1
			c-0.6,1.3-1.5,2.4-2.7,3.4c-1.2,1-2.8,1.7-4.7,2.3c-1.9,0.6-4.2,0.8-6.7,0.8c-2.5,0-4.6-0.2-6.4-0.6c-1.8-0.4-3.2-1-4.3-1.7
			c-1.1-0.7-1.9-1.6-2.4-2.6c-0.5-1-0.8-2.1-0.8-3.3c0-0.8,0.1-1.5,0.3-2.2s0.5-1.4,0.8-2c0.4-0.6,0.8-1.3,1.4-1.8
			c0.6-0.6,1.2-1.2,1.9-1.7c-1.1-0.6-2-1.3-2.5-2.2c-0.5-0.9-0.8-1.8-0.8-2.8c0-1.4,0.3-2.6,0.9-3.8c0.6-1.1,1.3-2.1,2.1-3
			c-0.7-0.8-1.3-1.8-1.7-2.9c-0.4-1.1-0.6-2.4-0.6-3.9c0-1.8,0.3-3.3,0.9-4.7c0.6-1.4,1.4-2.6,2.5-3.5c1.1-1,2.3-1.7,3.8-2.2
			c1.5-0.5,3.1-0.8,4.8-0.8c0.9,0,1.8,0.1,2.6,0.2c0.8,0.1,1.6,0.2,2.3,0.4h9.4c0.4,0,0.7,0.2,0.9,0.6
			C643.9,533.6,644,534.2,644,535z M638,567.7c0-1.3-0.5-2.4-1.6-3.1s-2.6-1.1-4.4-1.2l-8-0.3c-0.7,0.6-1.3,1.1-1.8,1.6
			c-0.5,0.5-0.8,1-1.1,1.5c-0.3,0.5-0.5,0.9-0.6,1.4c-0.1,0.5-0.2,0.9-0.2,1.4c0,1.5,0.8,2.6,2.3,3.4c1.5,0.8,3.6,1.2,6.3,1.2
			c1.7,0,3.2-0.2,4.3-0.5c1.2-0.3,2.1-0.8,2.8-1.3s1.2-1.2,1.5-1.9S638,568.5,638,567.7z M635.2,543.2c0-2.1-0.6-3.8-1.7-4.9
			c-1.2-1.2-2.8-1.8-4.9-1.8c-1.1,0-2.1,0.2-2.9,0.6c-0.8,0.4-1.5,0.9-2,1.5s-0.9,1.4-1.2,2.2c-0.3,0.8-0.4,1.7-0.4,2.6
			c0,2,0.6,3.6,1.7,4.8s2.8,1.8,4.9,1.8c1.1,0,2.1-0.2,2.9-0.5c0.8-0.4,1.5-0.8,2-1.5s0.9-1.4,1.2-2.2
			C635,544.9,635.2,544.1,635.2,543.2z"/>
		<path d="M678,564.6c0,0.2,0,0.3-0.1,0.5s-0.2,0.2-0.4,0.3c-0.2,0.1-0.5,0.2-0.9,0.2s-0.8,0.1-1.4,0.1c-0.6,0-1,0-1.4-0.1
			c-0.4,0-0.7-0.1-0.9-0.2c-0.2-0.1-0.4-0.2-0.4-0.3c-0.1-0.1-0.1-0.3-0.1-0.5v-18.1c0-1.8-0.1-3.2-0.4-4.3s-0.7-2-1.2-2.8
			c-0.5-0.8-1.2-1.4-2-1.8c-0.8-0.4-1.8-0.6-2.9-0.6c-1.4,0-2.8,0.5-4.3,1.5c-1.4,1-2.9,2.5-4.5,4.4v21.6c0,0.2,0,0.3-0.1,0.5
			s-0.2,0.2-0.4,0.3c-0.2,0.1-0.5,0.2-0.9,0.2s-0.8,0.1-1.4,0.1c-0.6,0-1,0-1.4-0.1s-0.7-0.1-0.9-0.2c-0.2-0.1-0.4-0.2-0.4-0.3
			c-0.1-0.1-0.1-0.3-0.1-0.5v-31c0-0.2,0-0.3,0.1-0.5s0.2-0.2,0.4-0.3c0.2-0.1,0.5-0.2,0.8-0.2s0.7-0.1,1.3-0.1c0.5,0,0.9,0,1.3,0.1
			c0.3,0,0.6,0.1,0.8,0.2c0.2,0.1,0.3,0.2,0.4,0.3s0.1,0.3,0.1,0.5v4.1c1.7-1.9,3.5-3.4,5.2-4.3c1.7-0.9,3.5-1.4,5.2-1.4
			c2.1,0,3.8,0.3,5.2,1s2.6,1.6,3.4,2.8s1.5,2.5,1.9,4.1c0.4,1.6,0.6,3.5,0.6,5.7V564.6z"/>
		<path d="M711.7,564.6c0,0.3-0.1,0.5-0.3,0.6s-0.4,0.2-0.8,0.3c-0.3,0.1-0.8,0.1-1.4,0.1c-0.6,0-1.1,0-1.4-0.1
			c-0.4-0.1-0.6-0.2-0.8-0.3c-0.2-0.1-0.2-0.3-0.2-0.6v-3.1c-1.4,1.4-2.9,2.6-4.5,3.4c-1.7,0.8-3.4,1.2-5.3,1.2
			c-1.6,0-3.1-0.2-4.4-0.6c-1.3-0.4-2.4-1-3.4-1.8c-0.9-0.8-1.7-1.8-2.2-3c-0.5-1.2-0.8-2.5-0.8-4c0-1.7,0.4-3.3,1.1-4.5
			c0.7-1.3,1.7-2.4,3.1-3.2c1.3-0.8,3-1.5,4.9-1.9s4.1-0.6,6.5-0.6h4.3V544c0-1.2-0.1-2.2-0.4-3.2c-0.3-0.9-0.7-1.7-1.2-2.3
			c-0.6-0.6-1.3-1.1-2.2-1.4c-0.9-0.3-2-0.5-3.3-0.5c-1.4,0-2.7,0.2-3.8,0.5c-1.1,0.3-2.1,0.7-2.9,1.1c-0.8,0.4-1.5,0.8-2.1,1.1
			c-0.6,0.3-1,0.5-1.3,0.5c-0.2,0-0.3,0-0.5-0.1s-0.3-0.2-0.4-0.4c-0.1-0.2-0.2-0.4-0.2-0.7c0-0.3-0.1-0.6-0.1-0.9
			c0-0.6,0-1,0.1-1.4c0.1-0.3,0.3-0.6,0.6-0.9c0.3-0.3,0.8-0.6,1.6-1s1.6-0.8,2.6-1.1c1-0.3,2.1-0.6,3.2-0.8s2.4-0.3,3.5-0.3
			c2.2,0,4.1,0.3,5.7,0.8c1.6,0.5,2.8,1.2,3.8,2.2c1,1,1.7,2.2,2.1,3.6s0.7,3.1,0.7,5.1V564.6z M706.1,550.5h-4.9
			c-1.6,0-2.9,0.1-4.1,0.4c-1.1,0.3-2.1,0.7-2.9,1.2c-0.8,0.5-1.3,1.1-1.7,1.9s-0.5,1.6-0.5,2.5c0,1.6,0.5,2.9,1.5,3.8
			c1,1,2.4,1.4,4.3,1.4c1.5,0,2.9-0.4,4.1-1.1s2.6-1.9,4-3.5V550.5z"/>
		<path d="M727.8,564.6c0,0.2,0,0.3-0.1,0.5s-0.2,0.2-0.4,0.3c-0.2,0.1-0.5,0.2-0.9,0.2s-0.8,0.1-1.4,0.1c-0.6,0-1,0-1.4-0.1
			s-0.7-0.1-0.9-0.2c-0.2-0.1-0.4-0.2-0.4-0.3c-0.1-0.1-0.1-0.3-0.1-0.5v-46c0-0.2,0-0.3,0.1-0.5c0.1-0.1,0.2-0.3,0.4-0.3
			c0.2-0.1,0.5-0.2,0.9-0.2c0.4,0,0.8-0.1,1.4-0.1c0.6,0,1,0,1.4,0.1c0.4,0,0.7,0.1,0.9,0.2c0.2,0.1,0.4,0.2,0.4,0.3
			s0.1,0.3,0.1,0.5V564.6z"/>
	</g>
	<g class="st7">
		<path class="st0" d="M357.3,156.4c0.2,0,0.4,0,0.6,0.1s0.3,0.3,0.4,0.6c0.1,0.3,0.2,0.7,0.3,1.1c0.1,0.5,0.1,1.1,0.1,1.8
			c0,1,0,1.8-0.1,2.4c-0.1,0.6-0.2,1.1-0.5,1.4c-0.2,0.3-0.5,0.6-0.8,0.8l-27.1,19.9h27.1c0.2,0,0.4,0.1,0.6,0.2s0.3,0.3,0.4,0.6
			c0.1,0.3,0.2,0.6,0.3,1.1c0.1,0.5,0.1,1,0.1,1.7c0,0.7,0,1.2-0.1,1.7c-0.1,0.5-0.2,0.9-0.3,1.1s-0.2,0.5-0.4,0.6
			c-0.2,0.1-0.4,0.2-0.6,0.2h-52c-0.2,0-0.4-0.1-0.6-0.2c-0.2-0.1-0.3-0.3-0.4-0.6c-0.1-0.3-0.2-0.7-0.3-1.1c-0.1-0.5-0.1-1-0.1-1.7
			c0-0.7,0-1.3,0.1-1.7c0.1-0.5,0.2-0.8,0.3-1.1c0.1-0.3,0.2-0.5,0.4-0.6c0.2-0.1,0.4-0.2,0.6-0.2h24.1l-24.1-19.2
			c-0.3-0.2-0.5-0.4-0.6-0.6s-0.3-0.5-0.4-0.8s-0.2-0.7-0.2-1.2s-0.1-1.1-0.1-1.8c0-0.7,0-1.3,0.1-1.8c0.1-0.4,0.2-0.8,0.3-1.1
			c0.1-0.3,0.3-0.4,0.4-0.5c0.2-0.1,0.3-0.1,0.5-0.1c0.4,0,0.7,0.1,1.1,0.3c0.4,0.2,0.9,0.5,1.5,1l21.5,18l25.7-19.3
			c0.7-0.5,1.2-0.8,1.5-0.9C356.9,156.4,357.1,156.4,357.3,156.4z"/>
		<path class="st0" d="M337.4,129.9h20c0.2,0,0.4,0.1,0.6,0.2c0.2,0.1,0.3,0.3,0.4,0.6c0.1,0.3,0.2,0.7,0.3,1.1
			c0.1,0.5,0.1,1,0.1,1.7c0,0.7,0,1.3-0.1,1.7c-0.1,0.5-0.2,0.8-0.3,1.1c-0.1,0.3-0.2,0.5-0.4,0.6c-0.2,0.1-0.4,0.2-0.6,0.2h-20
			l-30.6,15.3c-0.6,0.3-1.1,0.5-1.5,0.6c-0.4,0.1-0.6,0-0.8-0.2c-0.2-0.2-0.3-0.6-0.4-1.1c-0.1-0.5-0.1-1.3-0.1-2.2
			c0-0.8,0-1.5,0.1-2c0.1-0.5,0.1-0.9,0.2-1.2c0.1-0.3,0.2-0.5,0.4-0.7c0.2-0.2,0.4-0.3,0.7-0.4l15.6-7.5c1.5-0.7,3-1.4,4.6-2.1
			c1.6-0.7,3.3-1.4,4.9-2.1v-0.1c-1.6-0.6-3.2-1.3-4.8-2c-1.6-0.7-3.1-1.4-4.7-2.1l-15.7-7.5c-0.3-0.1-0.5-0.2-0.7-0.4
			c-0.2-0.2-0.3-0.4-0.4-0.6c-0.1-0.3-0.2-0.6-0.2-1.1c-0.1-0.5-0.1-1.1-0.1-1.8c0-1,0-1.8,0.1-2.4c0.1-0.6,0.2-1,0.4-1.2
			c0.2-0.2,0.5-0.3,0.8-0.2c0.4,0.1,0.9,0.3,1.5,0.6L337.4,129.9z"/>
		<path class="st0" d="M337.3,94.1c1.1,0,1.8,0.1,2.3,0.4c0.4,0.3,0.6,0.6,0.6,1.1v17.5c0,0.5-0.2,0.9-0.6,1.1s-1.2,0.4-2.2,0.4
			c-1.1,0-1.8-0.1-2.2-0.4c-0.4-0.3-0.6-0.6-0.6-1.1V95.6c0-0.2,0-0.4,0.1-0.6s0.2-0.3,0.5-0.5s0.5-0.2,0.9-0.3
			C336.4,94.1,336.8,94.1,337.3,94.1z"/>
		<path class="st0" d="M331.3,50.7c4.2,0,8,0.3,11.4,1s6.4,1.7,8.9,3.3c2.5,1.5,4.4,3.5,5.7,6c1.4,2.5,2,5.5,2,9.1
			c0,3.4-0.6,6.3-1.8,8.6c-1.2,2.3-3,4.2-5.4,5.6s-5.3,2.4-8.7,3c-3.4,0.6-7.4,0.9-11.9,0.9c-4.1,0-7.9-0.3-11.4-1s-6.4-1.8-8.9-3.3
			s-4.4-3.5-5.7-5.9c-1.4-2.5-2-5.5-2-9c0-3.4,0.6-6.3,1.8-8.6s3-4.2,5.4-5.6c2.4-1.4,5.3-2.4,8.7-3C322.8,51,326.8,50.7,331.3,50.7
			z M331.8,58.1c-2.7,0-5.1,0.1-7.3,0.3c-2.1,0.2-4,0.5-5.7,0.9s-3.1,0.9-4.3,1.5c-1.2,0.6-2.2,1.3-2.9,2.2
			c-0.8,0.8-1.3,1.8-1.7,2.9c-0.3,1.1-0.5,2.3-0.5,3.6c0,2.4,0.6,4.3,1.7,5.8c1.1,1.5,2.7,2.6,4.6,3.5c2,0.9,4.2,1.4,6.9,1.7
			c2.6,0.3,5.4,0.5,8.5,0.5c4,0,7.5-0.2,10.3-0.6c2.8-0.4,5.1-1.1,6.9-2s3.1-2.1,3.9-3.5c0.8-1.4,1.2-3.1,1.2-5.1
			c0-1.6-0.3-2.9-0.8-4.1c-0.5-1.2-1.2-2.2-2.2-3.1c-0.9-0.9-2.1-1.6-3.4-2.1s-2.8-1-4.4-1.3c-1.6-0.3-3.3-0.6-5.2-0.7
			C335.7,58.1,333.8,58.1,331.8,58.1z"/>
		<path class="st0" d="M355.4,9c0.5,0,1,0,1.3,0.1c0.4,0.1,0.7,0.2,1,0.3c0.3,0.1,0.5,0.3,0.6,0.5c0.1,0.2,0.2,0.4,0.2,0.7v29.9
			c0,0.4,0,0.7-0.1,1s-0.3,0.5-0.5,0.8c-0.2,0.2-0.5,0.4-1,0.5S356,43,355.3,43c-0.6,0-1,0-1.5-0.1c-0.4,0-0.8-0.1-1.1-0.3
			c-0.3-0.1-0.6-0.3-1-0.5s-0.7-0.5-1-0.8l-11.1-10.8c-2.6-2.5-4.9-4.5-6.9-6c-2-1.5-3.9-2.7-5.6-3.5c-1.7-0.8-3.2-1.4-4.6-1.6
			c-1.4-0.3-2.7-0.4-3.9-0.4c-1.2,0-2.3,0.2-3.4,0.6s-2,1-2.8,1.8c-0.8,0.8-1.5,1.7-1.9,2.9c-0.5,1.2-0.7,2.5-0.7,4
			c0,1.8,0.2,3.3,0.7,4.7c0.5,1.4,1,2.6,1.5,3.7c0.6,1.1,1.1,1.9,1.5,2.6c0.5,0.7,0.7,1.2,0.7,1.6c0,0.2-0.1,0.4-0.2,0.5
			c-0.1,0.2-0.3,0.3-0.5,0.4c-0.3,0.1-0.6,0.2-1,0.2c-0.4,0.1-0.9,0.1-1.5,0.1c-0.4,0-0.8,0-1.1,0c-0.3,0-0.6-0.1-0.8-0.1
			s-0.4-0.2-0.6-0.3c-0.2-0.1-0.4-0.3-0.7-0.7s-0.7-0.9-1.2-1.7c-0.5-0.8-1-1.9-1.5-3.1c-0.5-1.2-0.9-2.6-1.2-4.1
			c-0.3-1.5-0.5-3.1-0.5-4.7c0-2.6,0.4-4.9,1.1-6.9c0.7-2,1.8-3.6,3-4.9c1.3-1.3,2.8-2.3,4.5-2.9s3.5-1,5.4-1c1.7,0,3.5,0.2,5.2,0.5
			c1.7,0.3,3.6,1,5.6,1.9c2,1,4.2,2.4,6.7,4.3c2.4,1.9,5.3,4.4,8.4,7.5l9,8.6V10.7c0-0.2,0.1-0.4,0.2-0.6c0.1-0.2,0.3-0.4,0.6-0.5
			c0.3-0.2,0.6-0.3,0.9-0.3C354.4,9.1,354.9,9,355.4,9z"/>
		<path class="st0" d="M307.4-35.2c0.5,0,1,0,1.4,0.1s0.8,0.1,1.2,0.2c0.4,0.1,0.7,0.2,1.1,0.3c0.3,0.1,0.7,0.3,1.1,0.4l45,19.5
			c0.3,0.1,0.6,0.3,0.8,0.5c0.2,0.2,0.4,0.5,0.5,0.8c0.1,0.3,0.2,0.7,0.3,1.2c0,0.5,0.1,1.1,0.1,1.8c0,0.9,0,1.7-0.1,2.2
			c-0.1,0.5-0.2,0.9-0.4,1.2c-0.2,0.2-0.4,0.3-0.7,0.3c-0.3,0-0.6-0.1-0.9-0.3l-46-20.5v26c0,0.5-0.3,0.9-0.8,1.2
			c-0.6,0.3-1.3,0.4-2.3,0.4c-0.5,0-1,0-1.4-0.1c-0.4-0.1-0.7-0.2-1-0.3c-0.3-0.1-0.5-0.3-0.6-0.5c-0.1-0.2-0.2-0.4-0.2-0.7v-31.6
			c0-0.4,0-0.7,0.1-1c0.1-0.3,0.3-0.5,0.5-0.7c0.3-0.2,0.6-0.3,1-0.4C306.3-35.2,306.8-35.2,307.4-35.2z"/>
	</g>
	<g class="st7">
		<path class="st0" d="M361.7,216.4c0,0.5,0,1-0.1,1.4c-0.1,0.4-0.1,0.7-0.3,1c-0.1,0.3-0.3,0.5-0.4,0.6c-0.2,0.1-0.3,0.2-0.5,0.2
			c-0.3,0-0.9-0.3-1.7-0.8c-0.8-0.5-1.8-1.1-3.1-1.8s-2.9-1.2-4.7-1.8c-1.8-0.5-4-0.8-6.5-0.8c-3,0-5.7,0.5-8,1.6
			c-2.4,1.1-4.4,2.6-6,4.5s-2.9,4.2-3.8,6.9c-0.9,2.7-1.3,5.5-1.3,8.6c0,3.5,0.5,6.5,1.4,9.2c1,2.7,2.3,4.9,4,6.8s3.7,3.2,6.1,4.2
			c2.4,0.9,4.9,1.4,7.8,1.4c1.7,0,3.4-0.2,5.1-0.6c1.7-0.4,3.3-1,4.8-1.8v-15.8h-12.6c-0.5,0-0.8-0.2-1.1-0.7
			c-0.2-0.5-0.4-1.2-0.4-2.2c0-0.5,0-1,0.1-1.4c0.1-0.4,0.1-0.7,0.3-0.9c0.1-0.2,0.3-0.4,0.4-0.5c0.2-0.1,0.4-0.2,0.6-0.2H359
			c0.3,0,0.6,0.1,0.9,0.2c0.3,0.1,0.6,0.3,0.8,0.5c0.3,0.2,0.4,0.5,0.6,0.9c0.1,0.4,0.2,0.8,0.2,1.3v20.6c0,0.7-0.1,1.4-0.4,1.9
			c-0.3,0.5-0.8,1-1.6,1.4c-0.8,0.4-1.9,0.8-3.1,1.3s-2.6,0.9-4,1.2c-1.4,0.3-2.8,0.6-4.1,0.8c-1.4,0.2-2.8,0.3-4.1,0.3
			c-4.2,0-7.9-0.6-11.2-1.9c-3.3-1.3-6.1-3.1-8.4-5.5c-2.3-2.4-4-5.3-5.2-8.6c-1.2-3.4-1.8-7.1-1.8-11.2c0-4.3,0.6-8.2,1.9-11.7
			c1.3-3.5,3.1-6.5,5.5-8.9c2.4-2.5,5.2-4.4,8.5-5.7c3.3-1.4,7-2,11-2c2.1,0,4,0.2,5.8,0.5c1.8,0.4,3.4,0.8,4.8,1.3
			c1.4,0.5,2.6,1,3.6,1.6c1,0.6,1.6,1,2,1.4c0.4,0.4,0.6,0.8,0.8,1.3S361.7,215.5,361.7,216.4z"/>
	</g>
	<g class="st7">
		<path class="st0" d="M560.3,140.8c0,0.5,0,1-0.1,1.4s-0.2,0.7-0.3,0.9c-0.1,0.3-0.3,0.4-0.5,0.5c-0.2,0.1-0.4,0.2-0.6,0.2H545V159
			c0,0.2-0.1,0.4-0.2,0.6c-0.1,0.2-0.3,0.3-0.5,0.4c-0.2,0.1-0.6,0.2-0.9,0.3c-0.4,0.1-0.9,0.1-1.5,0.1c-0.6,0-1,0-1.4-0.1
			c-0.4-0.1-0.7-0.2-1-0.3c-0.2-0.1-0.4-0.2-0.5-0.4c-0.1-0.2-0.2-0.3-0.2-0.6v-15.2h-13.7c-0.3,0-0.5-0.1-0.6-0.2s-0.3-0.3-0.5-0.5
			c-0.1-0.3-0.3-0.6-0.3-0.9c-0.1-0.4-0.1-0.8-0.1-1.4c0-0.5,0-0.9,0.1-1.3c0.1-0.4,0.2-0.7,0.3-0.9c0.1-0.3,0.3-0.4,0.5-0.5
			c0.2-0.1,0.4-0.2,0.6-0.2h13.8v-15.2c0-0.2,0.1-0.4,0.2-0.6c0.1-0.2,0.3-0.3,0.5-0.5c0.2-0.1,0.6-0.2,1-0.3
			c0.4-0.1,0.9-0.1,1.4-0.1c0.6,0,1.1,0,1.5,0.1c0.4,0.1,0.7,0.2,0.9,0.3c0.2,0.1,0.4,0.3,0.5,0.5c0.1,0.2,0.2,0.4,0.2,0.6v15.2
			h13.8c0.2,0,0.4,0.1,0.6,0.2c0.2,0.1,0.3,0.3,0.5,0.5c0.2,0.3,0.3,0.6,0.3,0.9C560.3,139.8,560.3,140.3,560.3,140.8z"/>
	</g>
	<g class="st7">
		<path class="st0" d="M664.9,148.9c0,2.5-0.5,4.8-1.4,6.8c-0.9,2-2.2,3.7-3.9,5c-1.7,1.4-3.6,2.4-5.9,3.1c-2.2,0.7-4.7,1-7.3,1
			c-1.8,0-3.5-0.2-5-0.5c-1.5-0.3-2.9-0.7-4.1-1.1c-1.2-0.4-2.2-0.9-3.1-1.4s-1.4-0.9-1.7-1.2c-0.3-0.3-0.6-0.8-0.7-1.3
			c-0.2-0.5-0.2-1.2-0.2-2.1c0-0.6,0-1.1,0.1-1.5c0.1-0.4,0.1-0.7,0.3-1c0.1-0.3,0.3-0.4,0.4-0.5c0.2-0.1,0.4-0.1,0.6-0.1
			c0.4,0,0.9,0.2,1.7,0.7c0.7,0.5,1.6,1,2.7,1.5s2.5,1.1,4,1.6c1.6,0.5,3.4,0.7,5.5,0.7c1.6,0,3-0.2,4.3-0.6c1.3-0.4,2.4-1,3.4-1.8
			s1.7-1.7,2.2-2.8c0.5-1.1,0.8-2.4,0.8-3.8c0-1.5-0.3-2.8-1-3.9c-0.7-1.1-1.6-2-2.8-2.9c-1.1-0.8-2.5-1.6-3.9-2.3
			c-1.5-0.7-3-1.4-4.5-2.1c-1.5-0.7-3-1.5-4.5-2.4c-1.5-0.9-2.8-1.9-3.9-3.1c-1.1-1.2-2.1-2.5-2.8-4.1c-0.7-1.6-1.1-3.5-1.1-5.7
			c0-2.3,0.4-4.3,1.2-6.1s2-3.3,3.4-4.5c1.5-1.2,3.2-2.1,5.2-2.7c2-0.6,4.2-0.9,6.6-0.9c1.2,0,2.4,0.1,3.6,0.3
			c1.2,0.2,2.4,0.5,3.4,0.8c1.1,0.3,2,0.7,2.9,1.2c0.8,0.4,1.4,0.8,1.7,1c0.3,0.3,0.4,0.5,0.5,0.6c0.1,0.2,0.2,0.3,0.2,0.6
			c0.1,0.2,0.1,0.5,0.1,0.9c0,0.3,0,0.8,0,1.3c0,0.5,0,0.9-0.1,1.3c0,0.4-0.1,0.7-0.2,1c-0.1,0.3-0.2,0.5-0.4,0.6
			c-0.2,0.1-0.3,0.2-0.5,0.2c-0.3,0-0.8-0.2-1.4-0.6c-0.7-0.4-1.5-0.8-2.4-1.3c-0.9-0.5-2.1-0.9-3.4-1.3c-1.3-0.4-2.8-0.6-4.4-0.6
			c-1.5,0-2.8,0.2-3.9,0.6c-1.1,0.4-2,0.9-2.8,1.6c-0.7,0.7-1.3,1.5-1.6,2.4c-0.4,0.9-0.5,1.9-0.5,2.9c0,1.5,0.3,2.8,1,3.9
			c0.7,1.1,1.6,2.1,2.8,2.9c1.2,0.8,2.5,1.6,4,2.3c1.5,0.7,3,1.4,4.5,2.1c1.5,0.7,3,1.5,4.5,2.3c1.5,0.9,2.8,1.9,4,3
			c1.2,1.2,2.1,2.5,2.8,4.1C664.6,144.9,664.9,146.7,664.9,148.9z"/>
	</g>
	<g class="st7">
		<path class="st0" d="M858.7,259.2c0,0.6,0,1-0.1,1.4s-0.1,0.7-0.3,1c-0.1,0.3-0.3,0.5-0.5,0.6c-0.2,0.1-0.4,0.2-0.6,0.2h-24
			c-0.6,0-1.2-0.2-1.8-0.6c-0.6-0.4-0.9-1.2-0.9-2.3v-50.2c0-0.2,0.1-0.4,0.2-0.6c0.1-0.2,0.3-0.3,0.6-0.4c0.3-0.1,0.7-0.2,1.1-0.3
			c0.5-0.1,1-0.1,1.7-0.1c0.7,0,1.3,0,1.7,0.1c0.5,0.1,0.8,0.2,1.1,0.3c0.3,0.1,0.5,0.2,0.6,0.4c0.1,0.2,0.2,0.4,0.2,0.6v46.9h19.4
			c0.3,0,0.5,0.1,0.6,0.2c0.2,0.1,0.3,0.3,0.5,0.5c0.1,0.2,0.2,0.6,0.3,0.9C858.6,258.2,858.7,258.7,858.7,259.2z"/>
	</g>
	<rect id="rect103" x="-0.3" y="-262.3" class="st8" width="459.5" height="229.6"/>
</g>
</svg>
