<?xml version="1.0" encoding="utf-8"?>
<!-- Generator: Adobe Illustrator 27.8.0, SVG Export Plug-In . SVG Version: 6.00 Build 0)  -->
<svg version="1.1"
	 id="svg8" xmlns:svg="http://www.w3.org/2000/svg" xmlns:rdf="http://www.w3.org/1999/02/22-rdf-syntax-ns#" xmlns:sodipodi="http://sodipodi.sourceforge.net/DTD/sodipodi-0.dtd" xmlns:dc="http://purl.org/dc/elements/1.1/" xmlns:inkscape="http://www.inkscape.org/namespaces/inkscape" xmlns:cc="http://creativecommons.org/ns#" inkscape:export-xdpi="93" inkscape:export-ydpi="93" inkscape:version="0.92.4 (5da689c313, 2019-01-14)"
	 xmlns="http://www.w3.org/2000/svg" xmlns:xlink="http://www.w3.org/1999/xlink" x="0px" y="0px" viewBox="0 0 566.9 623.6"
	 style="enable-background:new 0 0 566.9 623.6;" xml:space="preserve">
<style type="text/css">
	.st0{fill:#4D4D4D;}
	.st1{enable-background:new    ;}
	.st2{fill:#49C9C9;}
	.st3{fill:#FF0000;}
</style>
<sodipodi:namedview  bordercolor="#666666" borderopacity="1.0" id="base" inkscape:current-layer="layer1" inkscape:cx="212.95812" inkscape:cy="478.42942" inkscape:document-units="mm" inkscape:guide-bbox="true" inkscape:pagecheckerboard="false" inkscape:pageopacity="1" inkscape:pageshadow="2" inkscape:window-height="987" inkscape:window-maximized="1" inkscape:window-width="1680" inkscape:window-x="1912" inkscape:window-y="-8" inkscape:zoom="0.7" pagecolor="#373737" showgrid="false" showguides="true">
	</sodipodi:namedview>
<g id="layer1" transform="translate(0,-77)" inkscape:groupmode="layer" inkscape:label="Ebene 1">
	<rect id="rect826" x="472.9" y="691.5" class="st0" width="79.4" height="9.1"/>
	<rect id="rect828" x="508" y="579.1" class="st0" width="9.1" height="118.8"/>
	<rect id="rect830" x="493.3" y="572.3" class="st0" width="38.6" height="9.1"/>
	<rect id="rect832" x="493.3" y="509.1" class="st0" width="9.1" height="72.3"/>
	<rect id="rect836" x="522.8" y="509.1" class="st0" width="9.1" height="72.3"/>
	<rect id="rect838" x="493.3" y="509.1" class="st0" width="38.6" height="9.1"/>
	<rect id="rect840" x="508" y="398.1" class="st0" width="9.1" height="118.8"/>
	<circle id="path842" class="st0" cx="512.5" cy="397.4" r="11.7"/>
	<rect id="rect844" x="508" y="279.2" class="st0" width="9.1" height="118.8"/>
	<rect id="rect846" x="344.4" y="392.8" class="st0" width="163.6" height="9.1"/>
	<rect id="rect856" x="508" y="100.3" class="st0" width="9.1" height="118.8"/>
	
		<path id="path860" inkscape:flatsided="true" inkscape:randomized="0" inkscape:rounded="0" inkscape:transform-center-x="0.028865177" inkscape:transform-center-y="-3.2765104" sodipodi:arg1="0.52796978" sodipodi:arg2="1.5751673" sodipodi:cx="180.97543" sodipodi:cy="91.939247" sodipodi:r1="13.206109" sodipodi:r2="6.6030545" sodipodi:sides="3" sodipodi:type="star" class="st0" d="
		M545.3,138.2l-64.8-0.3l32.7-56L545.3,138.2z"/>
	<path id="path864" inkscape:connector-curvature="0" class="st0" d="M329.6,377.9c-10.6,0-19.1,8.6-19.1,19.1c0,0,0,0,0,0
		c0,10.6,8.6,19.1,19.1,19.1c0,0,0,0,0,0c10.6,0,19.1-8.6,19.1-19.1C348.7,386.5,340.2,377.9,329.6,377.9z M329.6,383.1
		c7.7,0,13.9,6.2,13.9,13.9c0,7.7-6.2,13.9-13.9,13.9c-7.7,0-13.9-6.2-13.9-13.9c0,0,0,0,0,0C315.7,389.3,321.9,383.1,329.6,383.1
		C329.6,383.1,329.6,383.1,329.6,383.1L329.6,383.1z"/>
	<rect id="rect877" x="493.3" y="276.6" class="st0" width="38.6" height="9.1"/>
	<rect id="rect879" x="493.3" y="213.4" class="st0" width="9.1" height="72.3"/>
	<rect id="rect881" x="522.8" y="213.4" class="st0" width="9.1" height="72.3"/>
	<rect id="rect883" x="493.3" y="213.4" class="st0" width="38.6" height="9.1"/>
	<g class="st1">
		<path class="st2" d="M376.2,555.3c0,0.1,0,0.2,0,0.2s-0.1,0.1-0.2,0.2c-0.1,0-0.2,0.1-0.4,0.1c-0.2,0-0.4,0-0.8,0
			c-0.3,0-0.5,0-0.7,0c-0.2,0-0.3-0.1-0.4-0.1c-0.1,0-0.2-0.1-0.2-0.2c-0.1-0.1-0.1-0.2-0.1-0.3l-1.9-4.8c-0.2-0.5-0.4-1-0.7-1.5
			s-0.5-0.8-0.8-1.2c-0.3-0.3-0.7-0.6-1.1-0.8c-0.4-0.2-1-0.3-1.6-0.3h-1.8v8.6c0,0.1,0,0.2-0.1,0.2s-0.1,0.1-0.2,0.1
			c-0.1,0-0.2,0.1-0.4,0.1c-0.2,0-0.4,0-0.6,0c-0.3,0-0.5,0-0.6,0c-0.2,0-0.3-0.1-0.4-0.1c-0.1,0-0.2-0.1-0.2-0.1
			c0-0.1-0.1-0.1-0.1-0.2v-18.7c0-0.4,0.1-0.7,0.3-0.9c0.2-0.2,0.4-0.2,0.7-0.2h4.3c0.5,0,0.9,0,1.3,0c0.3,0,0.6,0.1,0.9,0.1
			c0.8,0.1,1.5,0.3,2.1,0.6c0.6,0.3,1.1,0.7,1.5,1.1c0.4,0.4,0.7,1,0.9,1.5s0.3,1.2,0.3,1.9c0,0.7-0.1,1.3-0.3,1.8
			c-0.2,0.5-0.4,1-0.8,1.4c-0.3,0.4-0.8,0.8-1.2,1.1c-0.5,0.3-1,0.6-1.6,0.8c0.3,0.1,0.6,0.3,0.9,0.6c0.3,0.2,0.5,0.5,0.8,0.8
			s0.5,0.7,0.7,1.1c0.2,0.4,0.4,0.9,0.6,1.4l1.8,4.5c0.1,0.4,0.2,0.6,0.3,0.8C376.2,555.1,376.2,555.2,376.2,555.3z M372.1,541
			c0-0.8-0.2-1.5-0.5-2c-0.4-0.5-0.9-0.9-1.8-1.2c-0.3-0.1-0.6-0.1-0.9-0.2s-0.8,0-1.3,0h-2.3v6.8h2.6c0.7,0,1.3-0.1,1.8-0.3
			s0.9-0.4,1.3-0.7c0.3-0.3,0.6-0.7,0.8-1.1C372.1,542,372.1,541.5,372.1,541z"/>
		<path class="st2" d="M391.2,547.6c0,0.4-0.1,0.7-0.3,0.9c-0.2,0.2-0.4,0.3-0.7,0.3h-9.3c0,0.8,0.1,1.5,0.2,2.1s0.4,1.2,0.8,1.6
			c0.4,0.4,0.8,0.8,1.4,1c0.6,0.2,1.3,0.4,2.2,0.4c0.7,0,1.3-0.1,1.8-0.2s1-0.2,1.4-0.4c0.4-0.1,0.7-0.3,0.9-0.4s0.4-0.2,0.6-0.2
			c0.1,0,0.1,0,0.2,0.1c0.1,0,0.1,0.1,0.1,0.2c0,0.1,0.1,0.2,0.1,0.3c0,0.1,0,0.3,0,0.5c0,0.1,0,0.3,0,0.4c0,0.1,0,0.2,0,0.3
			s0,0.1-0.1,0.2c0,0.1-0.1,0.1-0.1,0.2c-0.1,0.1-0.2,0.2-0.5,0.3c-0.3,0.1-0.6,0.3-1.1,0.4c-0.4,0.1-1,0.2-1.6,0.3
			c-0.6,0.1-1.2,0.1-1.9,0.1c-1.2,0-2.2-0.2-3-0.5c-0.9-0.3-1.6-0.8-2.2-1.4c-0.6-0.6-1-1.4-1.3-2.4c-0.3-1-0.5-2.1-0.5-3.3
			c0-1.2,0.2-2.3,0.5-3.3c0.3-1,0.8-1.8,1.4-2.5c0.6-0.7,1.3-1.2,2.1-1.5c0.8-0.4,1.8-0.5,2.8-0.5c1.1,0,2,0.2,2.8,0.5
			c0.8,0.4,1.4,0.8,1.9,1.4c0.5,0.6,0.9,1.3,1.1,2.1c0.2,0.8,0.4,1.7,0.4,2.6V547.6z M388.6,546.9c0-1.4-0.3-2.4-0.9-3.2
			c-0.6-0.8-1.6-1.2-2.8-1.2c-0.6,0-1.2,0.1-1.7,0.4c-0.5,0.2-0.9,0.6-1.2,1c-0.3,0.4-0.6,0.9-0.8,1.4c-0.2,0.5-0.3,1.1-0.3,1.6
			H388.6z"/>
		<path class="st2" d="M404,551.4c0,0.7-0.1,1.4-0.4,1.9s-0.6,1-1.1,1.4c-0.5,0.4-1.1,0.7-1.8,0.9c-0.7,0.2-1.4,0.3-2.2,0.3
			c-0.5,0-1,0-1.4-0.1s-0.9-0.2-1.2-0.3s-0.7-0.2-0.9-0.4c-0.2-0.1-0.4-0.2-0.5-0.4c-0.1-0.1-0.2-0.2-0.2-0.4
			c-0.1-0.2-0.1-0.4-0.1-0.8c0-0.2,0-0.4,0-0.5c0-0.1,0-0.2,0.1-0.3c0-0.1,0.1-0.1,0.1-0.2c0.1,0,0.1-0.1,0.2-0.1
			c0.1,0,0.3,0.1,0.5,0.2c0.2,0.1,0.5,0.3,0.8,0.5c0.3,0.2,0.7,0.3,1.2,0.5c0.4,0.1,1,0.2,1.5,0.2c0.4,0,0.8,0,1.2-0.1
			c0.4-0.1,0.7-0.2,0.9-0.4c0.3-0.2,0.5-0.4,0.6-0.7s0.2-0.6,0.2-1c0-0.4-0.1-0.7-0.3-1c-0.2-0.3-0.5-0.5-0.8-0.7
			c-0.3-0.2-0.7-0.4-1.1-0.6c-0.4-0.2-0.8-0.3-1.3-0.5c-0.4-0.2-0.9-0.4-1.3-0.6c-0.4-0.2-0.8-0.5-1.1-0.8c-0.3-0.3-0.6-0.7-0.8-1.2
			c-0.2-0.4-0.3-1-0.3-1.6c0-0.6,0.1-1.1,0.3-1.6c0.2-0.5,0.5-0.9,1-1.3c0.4-0.4,1-0.7,1.6-0.9c0.6-0.2,1.4-0.3,2.2-0.3
			c0.4,0,0.8,0,1.1,0.1s0.7,0.1,1,0.2c0.3,0.1,0.6,0.2,0.8,0.3c0.2,0.1,0.4,0.2,0.5,0.3c0.1,0.1,0.2,0.2,0.2,0.2
			c0,0.1,0.1,0.1,0.1,0.2s0,0.2,0,0.3c0,0.1,0,0.3,0,0.4c0,0.2,0,0.3,0,0.5c0,0.1,0,0.2-0.1,0.3c0,0.1-0.1,0.1-0.1,0.2
			c-0.1,0-0.1,0.1-0.2,0.1c-0.1,0-0.2-0.1-0.4-0.2c-0.2-0.1-0.4-0.2-0.7-0.4c-0.3-0.1-0.6-0.3-1-0.4c-0.4-0.1-0.8-0.2-1.3-0.2
			c-0.4,0-0.8,0-1.2,0.1c-0.3,0.1-0.6,0.2-0.8,0.4c-0.2,0.2-0.4,0.4-0.5,0.6s-0.2,0.5-0.2,0.8c0,0.4,0.1,0.7,0.3,1
			c0.2,0.3,0.5,0.5,0.8,0.7c0.3,0.2,0.7,0.4,1.1,0.6c0.4,0.2,0.9,0.3,1.3,0.5c0.4,0.2,0.9,0.4,1.3,0.6c0.4,0.2,0.8,0.5,1.1,0.8
			c0.3,0.3,0.6,0.7,0.8,1.1S404,550.8,404,551.4z"/>
		<path class="st2" d="M410.5,536.5c0,0.6-0.1,1-0.3,1.2c-0.2,0.2-0.7,0.3-1.3,0.3c-0.6,0-1-0.1-1.2-0.3c-0.2-0.2-0.3-0.6-0.3-1.2
			c0-0.6,0.1-1,0.3-1.2c0.2-0.2,0.7-0.3,1.3-0.3c0.6,0,1,0.1,1.2,0.3C410.4,535.5,410.5,535.9,410.5,536.5z M410.2,555.3
			c0,0.1,0,0.2-0.1,0.2c0,0.1-0.1,0.1-0.2,0.1s-0.2,0.1-0.4,0.1c-0.2,0-0.4,0-0.6,0c-0.2,0-0.5,0-0.6,0c-0.2,0-0.3-0.1-0.4-0.1
			c-0.1,0-0.2-0.1-0.2-0.1c0-0.1-0.1-0.1-0.1-0.2v-14.1c0-0.1,0-0.1,0.1-0.2c0-0.1,0.1-0.1,0.2-0.2c0.1,0,0.2-0.1,0.4-0.1
			c0.2,0,0.4,0,0.6,0c0.3,0,0.5,0,0.6,0c0.2,0,0.3,0.1,0.4,0.1c0.1,0,0.2,0.1,0.2,0.2c0,0.1,0.1,0.1,0.1,0.2V555.3z"/>
		<path class="st2" d="M423.8,551.4c0,0.7-0.1,1.4-0.4,1.9s-0.6,1-1.1,1.4c-0.5,0.4-1.1,0.7-1.8,0.9c-0.7,0.2-1.4,0.3-2.2,0.3
			c-0.5,0-1,0-1.4-0.1s-0.9-0.2-1.2-0.3s-0.7-0.2-0.9-0.4c-0.2-0.1-0.4-0.2-0.5-0.4c-0.1-0.1-0.2-0.2-0.2-0.4
			c-0.1-0.2-0.1-0.4-0.1-0.8c0-0.2,0-0.4,0-0.5c0-0.1,0-0.2,0.1-0.3c0-0.1,0.1-0.1,0.1-0.2c0.1,0,0.1-0.1,0.2-0.1
			c0.1,0,0.3,0.1,0.5,0.2c0.2,0.1,0.5,0.3,0.8,0.5c0.3,0.2,0.7,0.3,1.2,0.5c0.4,0.1,1,0.2,1.5,0.2c0.4,0,0.8,0,1.2-0.1
			c0.4-0.1,0.7-0.2,0.9-0.4c0.3-0.2,0.5-0.4,0.6-0.7s0.2-0.6,0.2-1c0-0.4-0.1-0.7-0.3-1c-0.2-0.3-0.5-0.5-0.8-0.7
			c-0.3-0.2-0.7-0.4-1.1-0.6c-0.4-0.2-0.8-0.3-1.3-0.5c-0.4-0.2-0.9-0.4-1.3-0.6c-0.4-0.2-0.8-0.5-1.1-0.8c-0.3-0.3-0.6-0.7-0.8-1.2
			c-0.2-0.4-0.3-1-0.3-1.6c0-0.6,0.1-1.1,0.3-1.6c0.2-0.5,0.5-0.9,1-1.3c0.4-0.4,1-0.7,1.6-0.9c0.6-0.2,1.4-0.3,2.2-0.3
			c0.4,0,0.8,0,1.1,0.1s0.7,0.1,1,0.2c0.3,0.1,0.6,0.2,0.8,0.3c0.2,0.1,0.4,0.2,0.5,0.3c0.1,0.1,0.2,0.2,0.2,0.2
			c0,0.1,0.1,0.1,0.1,0.2s0,0.2,0,0.3c0,0.1,0,0.3,0,0.4c0,0.2,0,0.3,0,0.5c0,0.1,0,0.2-0.1,0.3c0,0.1-0.1,0.1-0.1,0.2
			c-0.1,0-0.1,0.1-0.2,0.1c-0.1,0-0.2-0.1-0.4-0.2c-0.2-0.1-0.4-0.2-0.7-0.4c-0.3-0.1-0.6-0.3-1-0.4c-0.4-0.1-0.8-0.2-1.3-0.2
			c-0.4,0-0.8,0-1.2,0.1c-0.3,0.1-0.6,0.2-0.8,0.4c-0.2,0.2-0.4,0.4-0.5,0.6s-0.2,0.5-0.2,0.8c0,0.4,0.1,0.7,0.3,1
			c0.2,0.3,0.5,0.5,0.8,0.7c0.3,0.2,0.7,0.4,1.1,0.6c0.4,0.2,0.9,0.3,1.3,0.5c0.4,0.2,0.9,0.4,1.3,0.6c0.4,0.2,0.8,0.5,1.1,0.8
			c0.3,0.3,0.6,0.7,0.8,1.1S423.8,550.8,423.8,551.4z"/>
		<path class="st2" d="M434.5,554.2c0,0.3,0,0.5-0.1,0.7c0,0.2-0.1,0.3-0.2,0.4c-0.1,0.1-0.2,0.2-0.4,0.2c-0.2,0.1-0.4,0.1-0.6,0.2
			c-0.2,0-0.4,0.1-0.7,0.1c-0.2,0-0.5,0-0.7,0c-0.7,0-1.4-0.1-1.9-0.3c-0.5-0.2-0.9-0.5-1.3-0.9c-0.3-0.4-0.6-0.9-0.7-1.5
			c-0.2-0.6-0.2-1.3-0.2-2.1v-8.2h-2c-0.2,0-0.3-0.1-0.4-0.2c-0.1-0.2-0.1-0.4-0.1-0.8c0-0.2,0-0.4,0-0.5c0-0.1,0.1-0.2,0.1-0.3
			c0-0.1,0.1-0.2,0.2-0.2c0.1,0,0.1-0.1,0.2-0.1h2v-3.3c0-0.1,0-0.1,0.1-0.2c0-0.1,0.1-0.1,0.2-0.2c0.1,0,0.2-0.1,0.4-0.1
			c0.2,0,0.4,0,0.6,0c0.3,0,0.5,0,0.6,0c0.2,0,0.3,0.1,0.4,0.1s0.2,0.1,0.2,0.2c0,0.1,0.1,0.1,0.1,0.2v3.3h3.6c0.1,0,0.2,0,0.2,0.1
			c0.1,0,0.1,0.1,0.2,0.2c0,0.1,0.1,0.2,0.1,0.3c0,0.1,0,0.3,0,0.5c0,0.4,0,0.6-0.1,0.8c-0.1,0.2-0.2,0.2-0.4,0.2h-3.6v7.8
			c0,1,0.1,1.7,0.4,2.2c0.3,0.5,0.8,0.7,1.5,0.7c0.2,0,0.5,0,0.6-0.1s0.4-0.1,0.5-0.1c0.1-0.1,0.3-0.1,0.4-0.1
			c0.1,0,0.2-0.1,0.3-0.1c0.1,0,0.1,0,0.1,0c0,0,0.1,0.1,0.1,0.1c0,0.1,0,0.2,0.1,0.3C434.5,553.9,434.5,554,434.5,554.2z"/>
		<path class="st2" d="M450.6,548.1c0,1.1-0.2,2.2-0.5,3.2c-0.3,1-0.8,1.8-1.4,2.5c-0.6,0.7-1.3,1.2-2.2,1.6
			c-0.9,0.4-1.9,0.6-3.1,0.6c-1.2,0-2.2-0.2-3-0.5s-1.6-0.8-2.1-1.5c-0.6-0.7-1-1.5-1.3-2.4s-0.4-2-0.4-3.2c0-1.1,0.1-2.2,0.4-3.2
			c0.3-1,0.7-1.8,1.3-2.5c0.6-0.7,1.3-1.2,2.2-1.6c0.9-0.4,1.9-0.6,3.1-0.6c1.2,0,2.2,0.2,3,0.5s1.6,0.8,2.1,1.5
			c0.6,0.7,1,1.5,1.3,2.4C450.5,545.8,450.6,546.9,450.6,548.1z M448,548.3c0-0.8-0.1-1.5-0.2-2.2c-0.1-0.7-0.4-1.3-0.7-1.8
			c-0.3-0.5-0.8-0.9-1.3-1.2c-0.6-0.3-1.3-0.4-2.1-0.4c-0.8,0-1.4,0.1-2,0.4c-0.6,0.3-1,0.7-1.4,1.1c-0.4,0.5-0.6,1.1-0.8,1.8
			c-0.2,0.7-0.3,1.4-0.3,2.2c0,0.8,0.1,1.5,0.2,2.2c0.1,0.7,0.4,1.3,0.7,1.8c0.3,0.5,0.8,0.9,1.3,1.2c0.6,0.3,1.3,0.4,2.1,0.4
			c0.8,0,1.4-0.1,2-0.4c0.6-0.3,1-0.7,1.4-1.1c0.4-0.5,0.6-1.1,0.8-1.8C447.9,549.8,448,549.1,448,548.3z"/>
		<path class="st2" d="M462.7,542.1c0,0.2,0,0.4,0,0.6c0,0.2,0,0.3-0.1,0.4c0,0.1-0.1,0.2-0.1,0.2s-0.1,0.1-0.2,0.1
			c-0.1,0-0.2,0-0.3-0.1c-0.1,0-0.3-0.1-0.4-0.1c-0.2,0-0.3-0.1-0.5-0.1c-0.2,0-0.4-0.1-0.6-0.1c-0.3,0-0.5,0.1-0.8,0.2
			c-0.2,0.1-0.5,0.3-0.8,0.5c-0.3,0.2-0.6,0.6-0.9,1c-0.3,0.4-0.6,0.9-1,1.5v9.2c0,0.1,0,0.2-0.1,0.2c0,0.1-0.1,0.1-0.2,0.1
			s-0.2,0.1-0.4,0.1c-0.2,0-0.4,0-0.6,0c-0.2,0-0.5,0-0.6,0c-0.2,0-0.3-0.1-0.4-0.1c-0.1,0-0.2-0.1-0.2-0.1c0-0.1-0.1-0.1-0.1-0.2
			v-14.1c0-0.1,0-0.2,0-0.2c0-0.1,0.1-0.1,0.2-0.2s0.2-0.1,0.4-0.1c0.1,0,0.3,0,0.6,0c0.2,0,0.4,0,0.6,0c0.2,0,0.3,0,0.4,0.1
			c0.1,0,0.1,0.1,0.2,0.2c0,0.1,0.1,0.1,0.1,0.2v2c0.4-0.6,0.7-1,1.1-1.4c0.3-0.4,0.7-0.6,1-0.8c0.3-0.2,0.6-0.3,0.9-0.4
			s0.6-0.1,0.9-0.1c0.1,0,0.3,0,0.5,0s0.4,0,0.5,0.1c0.2,0,0.4,0.1,0.5,0.1c0.2,0.1,0.3,0.1,0.3,0.2c0.1,0.1,0.1,0.1,0.1,0.1
			c0,0,0,0.1,0.1,0.2c0,0.1,0,0.2,0,0.3C462.6,541.7,462.7,541.9,462.7,542.1z"/>
		<path class="st2" d="M484.9,554.5c0,0.2,0,0.4,0,0.5c0,0.1-0.1,0.3-0.1,0.4c0,0.1-0.1,0.2-0.2,0.2s-0.2,0.1-0.3,0.1h-11.2
			c-0.1,0-0.3,0-0.4-0.1c-0.1,0-0.2-0.1-0.3-0.2c-0.1-0.1-0.1-0.2-0.2-0.4c0-0.2-0.1-0.3-0.1-0.6c0-0.2,0-0.4,0-0.5
			c0-0.2,0.1-0.3,0.1-0.4c0.1-0.1,0.1-0.2,0.2-0.4c0.1-0.1,0.2-0.2,0.3-0.4l4-4.2c0.9-1,1.7-1.8,2.2-2.6c0.6-0.8,1-1.5,1.3-2.1
			s0.5-1.2,0.6-1.7c0.1-0.5,0.1-1,0.1-1.4c0-0.4-0.1-0.9-0.2-1.3c-0.2-0.4-0.4-0.8-0.7-1.1c-0.3-0.3-0.6-0.5-1.1-0.7
			c-0.4-0.2-0.9-0.3-1.5-0.3c-0.7,0-1.2,0.1-1.8,0.3c-0.5,0.2-1,0.4-1.4,0.6c-0.4,0.2-0.7,0.4-1,0.6c-0.3,0.2-0.5,0.3-0.6,0.3
			c-0.1,0-0.1,0-0.2-0.1c-0.1,0-0.1-0.1-0.1-0.2c0-0.1-0.1-0.2-0.1-0.4s0-0.3,0-0.6c0-0.2,0-0.3,0-0.4c0-0.1,0-0.2,0.1-0.3
			c0-0.1,0.1-0.2,0.1-0.2c0-0.1,0.1-0.2,0.2-0.3s0.3-0.3,0.6-0.4c0.3-0.2,0.7-0.4,1.2-0.6c0.5-0.2,1-0.3,1.5-0.5
			c0.6-0.1,1.1-0.2,1.8-0.2c1,0,1.8,0.1,2.6,0.4c0.7,0.3,1.3,0.7,1.8,1.1c0.5,0.5,0.8,1,1.1,1.7c0.2,0.6,0.4,1.3,0.4,2
			c0,0.6-0.1,1.3-0.2,1.9c-0.1,0.6-0.4,1.3-0.7,2.1c-0.4,0.7-0.9,1.6-1.6,2.5c-0.7,0.9-1.6,2-2.8,3.1l-3.2,3.3h8.8
			c0.1,0,0.2,0,0.2,0.1s0.1,0.1,0.2,0.2c0.1,0.1,0.1,0.2,0.1,0.4C484.9,554.2,484.9,554.3,484.9,554.5z"/>
	</g>
	<g class="st1">
		<path class="st3" d="M377.9,259.8c0,0.1,0,0.2,0,0.2s-0.1,0.1-0.2,0.2c-0.1,0-0.2,0.1-0.4,0.1c-0.2,0-0.4,0-0.8,0
			c-0.3,0-0.5,0-0.7,0c-0.2,0-0.3-0.1-0.4-0.1c-0.1,0-0.2-0.1-0.2-0.2c-0.1-0.1-0.1-0.2-0.1-0.3l-1.9-4.8c-0.2-0.5-0.4-1-0.7-1.5
			s-0.5-0.8-0.8-1.2c-0.3-0.3-0.7-0.6-1.1-0.8c-0.4-0.2-1-0.3-1.6-0.3h-1.8v8.6c0,0.1,0,0.2-0.1,0.2s-0.1,0.1-0.2,0.1
			c-0.1,0-0.2,0.1-0.4,0.1c-0.2,0-0.4,0-0.6,0c-0.3,0-0.5,0-0.6,0c-0.2,0-0.3-0.1-0.4-0.1c-0.1,0-0.2-0.1-0.2-0.1
			c0-0.1-0.1-0.1-0.1-0.2v-18.7c0-0.4,0.1-0.7,0.3-0.9c0.2-0.2,0.4-0.2,0.7-0.2h4.3c0.5,0,0.9,0,1.3,0c0.3,0,0.6,0.1,0.9,0.1
			c0.8,0.1,1.5,0.3,2.1,0.6c0.6,0.3,1.1,0.7,1.5,1.1c0.4,0.4,0.7,1,0.9,1.5s0.3,1.2,0.3,1.9c0,0.7-0.1,1.3-0.3,1.8
			c-0.2,0.5-0.4,1-0.8,1.4c-0.3,0.4-0.8,0.8-1.2,1.1c-0.5,0.3-1,0.6-1.6,0.8c0.3,0.1,0.6,0.3,0.9,0.6c0.3,0.2,0.5,0.5,0.8,0.8
			s0.5,0.7,0.7,1.1c0.2,0.4,0.4,0.9,0.6,1.4l1.8,4.5c0.1,0.4,0.2,0.6,0.3,0.8C377.9,259.6,377.9,259.7,377.9,259.8z M373.9,245.6
			c0-0.8-0.2-1.5-0.5-2c-0.4-0.5-0.9-0.9-1.8-1.2c-0.3-0.1-0.6-0.1-0.9-0.2s-0.8,0-1.3,0h-2.3v6.8h2.6c0.7,0,1.3-0.1,1.8-0.3
			s0.9-0.4,1.3-0.7c0.3-0.3,0.6-0.7,0.8-1.1C373.8,246.5,373.9,246.1,373.9,245.6z"/>
		<path class="st3" d="M393,252.2c0,0.4-0.1,0.7-0.3,0.9c-0.2,0.2-0.4,0.3-0.7,0.3h-9.3c0,0.8,0.1,1.5,0.2,2.1
			c0.2,0.6,0.4,1.2,0.8,1.6c0.4,0.4,0.8,0.8,1.4,1c0.6,0.2,1.3,0.4,2.2,0.4c0.7,0,1.3-0.1,1.8-0.2s1-0.2,1.4-0.4
			c0.4-0.1,0.7-0.3,0.9-0.4s0.4-0.2,0.6-0.2c0.1,0,0.1,0,0.2,0.1c0.1,0,0.1,0.1,0.1,0.2c0,0.1,0.1,0.2,0.1,0.3c0,0.1,0,0.3,0,0.5
			c0,0.1,0,0.3,0,0.4c0,0.1,0,0.2,0,0.3s0,0.1-0.1,0.2c0,0.1-0.1,0.1-0.1,0.2c-0.1,0.1-0.2,0.2-0.5,0.3c-0.3,0.1-0.6,0.3-1.1,0.4
			c-0.4,0.1-1,0.2-1.6,0.3c-0.6,0.1-1.2,0.1-1.9,0.1c-1.2,0-2.2-0.2-3-0.5c-0.9-0.3-1.6-0.8-2.2-1.4c-0.6-0.6-1-1.4-1.3-2.4
			c-0.3-1-0.5-2.1-0.5-3.3c0-1.2,0.2-2.3,0.5-3.3c0.3-1,0.8-1.8,1.4-2.5c0.6-0.7,1.3-1.2,2.1-1.5c0.8-0.4,1.8-0.5,2.8-0.5
			c1.1,0,2,0.2,2.8,0.5c0.8,0.4,1.4,0.8,1.9,1.4c0.5,0.6,0.9,1.3,1.1,2.1c0.2,0.8,0.4,1.7,0.4,2.6V252.2z M390.4,251.4
			c0-1.4-0.3-2.4-0.9-3.2c-0.6-0.8-1.6-1.2-2.8-1.2c-0.6,0-1.2,0.1-1.7,0.4c-0.5,0.2-0.9,0.6-1.2,1c-0.3,0.4-0.6,0.9-0.8,1.4
			c-0.2,0.5-0.3,1.1-0.3,1.6H390.4z"/>
		<path class="st3" d="M405.7,256c0,0.7-0.1,1.4-0.4,1.9s-0.6,1-1.1,1.4c-0.5,0.4-1.1,0.7-1.8,0.9c-0.7,0.2-1.4,0.3-2.2,0.3
			c-0.5,0-1,0-1.4-0.1s-0.9-0.2-1.2-0.3s-0.7-0.2-0.9-0.4c-0.2-0.1-0.4-0.2-0.5-0.4c-0.1-0.1-0.2-0.2-0.2-0.4
			c-0.1-0.2-0.1-0.4-0.1-0.8c0-0.2,0-0.4,0-0.5c0-0.1,0-0.2,0.1-0.3c0-0.1,0.1-0.1,0.1-0.2c0.1,0,0.1-0.1,0.2-0.1
			c0.1,0,0.3,0.1,0.5,0.2c0.2,0.1,0.5,0.3,0.8,0.5c0.3,0.2,0.7,0.3,1.2,0.5c0.4,0.1,1,0.2,1.5,0.2c0.4,0,0.8,0,1.2-0.1
			c0.4-0.1,0.7-0.2,0.9-0.4c0.3-0.2,0.5-0.4,0.6-0.7s0.2-0.6,0.2-1c0-0.4-0.1-0.7-0.3-1c-0.2-0.3-0.5-0.5-0.8-0.7
			c-0.3-0.2-0.7-0.4-1.1-0.6c-0.4-0.2-0.8-0.3-1.3-0.5c-0.4-0.2-0.9-0.4-1.3-0.6c-0.4-0.2-0.8-0.5-1.1-0.8c-0.3-0.3-0.6-0.7-0.8-1.2
			c-0.2-0.4-0.3-1-0.3-1.6c0-0.6,0.1-1.1,0.3-1.6c0.2-0.5,0.5-0.9,1-1.3c0.4-0.4,1-0.7,1.6-0.9c0.6-0.2,1.4-0.3,2.2-0.3
			c0.4,0,0.8,0,1.1,0.1s0.7,0.1,1,0.2c0.3,0.1,0.6,0.2,0.8,0.3c0.2,0.1,0.4,0.2,0.5,0.3c0.1,0.1,0.2,0.2,0.2,0.2
			c0,0.1,0.1,0.1,0.1,0.2s0,0.2,0,0.3c0,0.1,0,0.3,0,0.4c0,0.2,0,0.3,0,0.5c0,0.1,0,0.2-0.1,0.3c0,0.1-0.1,0.1-0.1,0.2
			c-0.1,0-0.1,0.1-0.2,0.1c-0.1,0-0.2-0.1-0.4-0.2c-0.2-0.1-0.4-0.2-0.7-0.4c-0.3-0.1-0.6-0.3-1-0.4c-0.4-0.1-0.8-0.2-1.3-0.2
			c-0.4,0-0.8,0-1.2,0.1c-0.3,0.1-0.6,0.2-0.8,0.4c-0.2,0.2-0.4,0.4-0.5,0.6s-0.2,0.5-0.2,0.8c0,0.4,0.1,0.7,0.3,1
			c0.2,0.3,0.5,0.5,0.8,0.7c0.3,0.2,0.7,0.4,1.1,0.6c0.4,0.2,0.9,0.3,1.3,0.5c0.4,0.2,0.9,0.4,1.3,0.6c0.4,0.2,0.8,0.5,1.1,0.8
			c0.3,0.3,0.6,0.7,0.8,1.1S405.7,255.4,405.7,256z"/>
		<path class="st3" d="M412.3,241c0,0.6-0.1,1-0.3,1.2c-0.2,0.2-0.7,0.3-1.3,0.3c-0.6,0-1-0.1-1.2-0.3c-0.2-0.2-0.3-0.6-0.3-1.2
			c0-0.6,0.1-1,0.3-1.2c0.2-0.2,0.7-0.3,1.3-0.3c0.6,0,1,0.1,1.2,0.3C412.2,240,412.3,240.4,412.3,241z M412,259.8
			c0,0.1,0,0.2-0.1,0.2c0,0.1-0.1,0.1-0.2,0.1s-0.2,0.1-0.4,0.1c-0.2,0-0.4,0-0.6,0c-0.2,0-0.5,0-0.6,0c-0.2,0-0.3-0.1-0.4-0.1
			c-0.1,0-0.2-0.1-0.2-0.1c0-0.1-0.1-0.1-0.1-0.2v-14.1c0-0.1,0-0.1,0.1-0.2c0-0.1,0.1-0.1,0.2-0.2c0.1,0,0.2-0.1,0.4-0.1
			c0.2,0,0.4,0,0.6,0c0.3,0,0.5,0,0.6,0c0.2,0,0.3,0.1,0.4,0.1c0.1,0,0.2,0.1,0.2,0.2c0,0.1,0.1,0.1,0.1,0.2V259.8z"/>
		<path class="st3" d="M425.6,256c0,0.7-0.1,1.4-0.4,1.9s-0.6,1-1.1,1.4c-0.5,0.4-1.1,0.7-1.8,0.9c-0.7,0.2-1.4,0.3-2.2,0.3
			c-0.5,0-1,0-1.4-0.1s-0.9-0.2-1.2-0.3s-0.7-0.2-0.9-0.4c-0.2-0.1-0.4-0.2-0.5-0.4c-0.1-0.1-0.2-0.2-0.2-0.4
			c-0.1-0.2-0.1-0.4-0.1-0.8c0-0.2,0-0.4,0-0.5c0-0.1,0-0.2,0.1-0.3c0-0.1,0.1-0.1,0.1-0.2c0.1,0,0.1-0.1,0.2-0.1
			c0.1,0,0.3,0.1,0.5,0.2c0.2,0.1,0.5,0.3,0.8,0.5c0.3,0.2,0.7,0.3,1.2,0.5c0.4,0.1,1,0.2,1.5,0.2c0.4,0,0.8,0,1.2-0.1
			c0.4-0.1,0.7-0.2,0.9-0.4c0.3-0.2,0.5-0.4,0.6-0.7s0.2-0.6,0.2-1c0-0.4-0.1-0.7-0.3-1c-0.2-0.3-0.5-0.5-0.8-0.7
			c-0.3-0.2-0.7-0.4-1.1-0.6c-0.4-0.2-0.8-0.3-1.3-0.5c-0.4-0.2-0.9-0.4-1.3-0.6c-0.4-0.2-0.8-0.5-1.1-0.8c-0.3-0.3-0.6-0.7-0.8-1.2
			c-0.2-0.4-0.3-1-0.3-1.6c0-0.6,0.1-1.1,0.3-1.6c0.2-0.5,0.5-0.9,1-1.3c0.4-0.4,1-0.7,1.6-0.9c0.6-0.2,1.4-0.3,2.2-0.3
			c0.4,0,0.8,0,1.1,0.1s0.7,0.1,1,0.2c0.3,0.1,0.6,0.2,0.8,0.3c0.2,0.1,0.4,0.2,0.5,0.3c0.1,0.1,0.2,0.2,0.2,0.2
			c0,0.1,0.1,0.1,0.1,0.2s0,0.2,0,0.3c0,0.1,0,0.3,0,0.4c0,0.2,0,0.3,0,0.5c0,0.1,0,0.2-0.1,0.3c0,0.1-0.1,0.1-0.1,0.2
			c-0.1,0-0.1,0.1-0.2,0.1c-0.1,0-0.2-0.1-0.4-0.2c-0.2-0.1-0.4-0.2-0.7-0.4c-0.3-0.1-0.6-0.3-1-0.4c-0.4-0.1-0.8-0.2-1.3-0.2
			c-0.4,0-0.8,0-1.2,0.1c-0.3,0.1-0.6,0.2-0.8,0.4c-0.2,0.2-0.4,0.4-0.5,0.6s-0.2,0.5-0.2,0.8c0,0.4,0.1,0.7,0.3,1
			c0.2,0.3,0.5,0.5,0.8,0.7c0.3,0.2,0.7,0.4,1.1,0.6c0.4,0.2,0.9,0.3,1.3,0.5c0.4,0.2,0.9,0.4,1.3,0.6c0.4,0.2,0.8,0.5,1.1,0.8
			c0.3,0.3,0.6,0.7,0.8,1.1S425.6,255.4,425.6,256z"/>
		<path class="st3" d="M436.2,258.8c0,0.3,0,0.5-0.1,0.7c0,0.2-0.1,0.3-0.2,0.4c-0.1,0.1-0.2,0.2-0.4,0.2c-0.2,0.1-0.4,0.1-0.6,0.2
			c-0.2,0-0.4,0.1-0.7,0.1c-0.2,0-0.5,0-0.7,0c-0.7,0-1.4-0.1-1.9-0.3c-0.5-0.2-0.9-0.5-1.3-0.9c-0.3-0.4-0.6-0.9-0.7-1.5
			c-0.2-0.6-0.2-1.3-0.2-2.1v-8.2h-2c-0.2,0-0.3-0.1-0.4-0.2c-0.1-0.2-0.1-0.4-0.1-0.8c0-0.2,0-0.4,0-0.5c0-0.1,0.1-0.2,0.1-0.3
			c0-0.1,0.1-0.2,0.2-0.2c0.1,0,0.1-0.1,0.2-0.1h2V242c0-0.1,0-0.1,0.1-0.2c0-0.1,0.1-0.1,0.2-0.2c0.1,0,0.2-0.1,0.4-0.1
			c0.2,0,0.4,0,0.6,0c0.3,0,0.5,0,0.6,0c0.2,0,0.3,0.1,0.4,0.1s0.2,0.1,0.2,0.2c0,0.1,0.1,0.1,0.1,0.2v3.3h3.6c0.1,0,0.2,0,0.2,0.1
			c0.1,0,0.1,0.1,0.2,0.2c0,0.1,0.1,0.2,0.1,0.3c0,0.1,0,0.3,0,0.5c0,0.4,0,0.6-0.1,0.8c-0.1,0.2-0.2,0.2-0.4,0.2h-3.6v7.8
			c0,1,0.1,1.7,0.4,2.2c0.3,0.5,0.8,0.7,1.5,0.7c0.2,0,0.5,0,0.6-0.1s0.4-0.1,0.5-0.1c0.1-0.1,0.3-0.1,0.4-0.1
			c0.1,0,0.2-0.1,0.3-0.1c0.1,0,0.1,0,0.1,0c0,0,0.1,0.1,0.1,0.1c0,0.1,0,0.2,0.1,0.3C436.2,258.4,436.2,258.6,436.2,258.8z"/>
		<path class="st3" d="M452.4,252.6c0,1.1-0.2,2.2-0.5,3.2c-0.3,1-0.8,1.8-1.4,2.5c-0.6,0.7-1.3,1.2-2.2,1.6
			c-0.9,0.4-1.9,0.6-3.1,0.6c-1.2,0-2.2-0.2-3-0.5s-1.6-0.8-2.1-1.5c-0.6-0.7-1-1.5-1.3-2.4c-0.3-0.9-0.4-2-0.4-3.2
			c0-1.1,0.1-2.2,0.4-3.2c0.3-1,0.7-1.8,1.3-2.5c0.6-0.7,1.3-1.2,2.2-1.6c0.9-0.4,1.9-0.6,3.1-0.6c1.2,0,2.2,0.2,3,0.5
			s1.6,0.8,2.1,1.5c0.6,0.7,1,1.5,1.3,2.4C452.2,250.4,452.4,251.4,452.4,252.6z M449.7,252.8c0-0.8-0.1-1.5-0.2-2.2
			c-0.1-0.7-0.4-1.3-0.7-1.8c-0.3-0.5-0.8-0.9-1.3-1.2c-0.6-0.3-1.3-0.4-2.1-0.4c-0.8,0-1.4,0.1-2,0.4c-0.6,0.3-1,0.7-1.4,1.1
			c-0.4,0.5-0.6,1.1-0.8,1.8c-0.2,0.7-0.3,1.4-0.3,2.2c0,0.8,0.1,1.5,0.2,2.2c0.1,0.7,0.4,1.3,0.7,1.8c0.3,0.5,0.8,0.9,1.3,1.2
			c0.6,0.3,1.3,0.4,2.1,0.4c0.8,0,1.4-0.1,2-0.4c0.6-0.3,1-0.7,1.4-1.1c0.4-0.5,0.6-1.1,0.8-1.7
			C449.6,254.3,449.7,253.6,449.7,252.8z"/>
		<path class="st3" d="M464.4,246.7c0,0.2,0,0.4,0,0.6c0,0.2,0,0.3-0.1,0.4c0,0.1-0.1,0.2-0.1,0.2s-0.1,0.1-0.2,0.1
			c-0.1,0-0.2,0-0.3-0.1c-0.1,0-0.3-0.1-0.4-0.1c-0.2,0-0.3-0.1-0.5-0.1c-0.2,0-0.4-0.1-0.6-0.1c-0.3,0-0.5,0.1-0.8,0.2
			c-0.2,0.1-0.5,0.3-0.8,0.5c-0.3,0.2-0.6,0.6-0.9,1c-0.3,0.4-0.6,0.9-1,1.5v9.2c0,0.1,0,0.2-0.1,0.2c0,0.1-0.1,0.1-0.2,0.1
			s-0.2,0.1-0.4,0.1c-0.2,0-0.4,0-0.6,0c-0.2,0-0.5,0-0.6,0c-0.2,0-0.3-0.1-0.4-0.1c-0.1,0-0.2-0.1-0.2-0.1c0-0.1-0.1-0.1-0.1-0.2
			v-14.1c0-0.1,0-0.2,0-0.2c0-0.1,0.1-0.1,0.2-0.2s0.2-0.1,0.4-0.1c0.1,0,0.3,0,0.6,0c0.2,0,0.4,0,0.6,0c0.2,0,0.3,0,0.4,0.1
			c0.1,0,0.1,0.1,0.2,0.2c0,0.1,0.1,0.1,0.1,0.2v2c0.4-0.6,0.7-1,1.1-1.4c0.3-0.4,0.7-0.6,1-0.8c0.3-0.2,0.6-0.3,0.9-0.4
			s0.6-0.1,0.9-0.1c0.1,0,0.3,0,0.5,0s0.4,0,0.5,0.1c0.2,0,0.4,0.1,0.5,0.1c0.2,0.1,0.3,0.1,0.3,0.2c0.1,0.1,0.1,0.1,0.1,0.1
			c0,0,0,0.1,0.1,0.2c0,0.1,0,0.2,0,0.3C464.4,246.2,464.4,246.4,464.4,246.7z"/>
		<path class="st3" d="M486.7,259.1c0,0.2,0,0.4,0,0.5c0,0.1-0.1,0.2-0.1,0.3c-0.1,0.1-0.1,0.1-0.2,0.2c-0.1,0-0.1,0.1-0.2,0.1
			h-10.6c-0.1,0-0.1,0-0.2-0.1c-0.1,0-0.1-0.1-0.2-0.2c-0.1-0.1-0.1-0.2-0.1-0.3c0-0.1,0-0.3,0-0.5c0-0.2,0-0.3,0-0.5
			c0-0.1,0.1-0.2,0.1-0.3c0-0.1,0.1-0.2,0.2-0.2c0.1,0,0.1-0.1,0.2-0.1h4.2v-15.4l-3.9,2.3c-0.2,0.1-0.4,0.2-0.5,0.2
			c-0.1,0-0.2,0-0.3-0.1c-0.1-0.1-0.1-0.2-0.1-0.3c0-0.2,0-0.4,0-0.6c0-0.2,0-0.3,0-0.5s0-0.2,0.1-0.3c0-0.1,0.1-0.2,0.1-0.2
			c0.1-0.1,0.1-0.1,0.2-0.2l4.7-3c0,0,0.1-0.1,0.2-0.1c0.1,0,0.1,0,0.2-0.1c0.1,0,0.2,0,0.3,0c0.1,0,0.3,0,0.5,0c0.2,0,0.5,0,0.6,0
			c0.2,0,0.3,0,0.4,0.1c0.1,0,0.2,0.1,0.2,0.1c0,0.1,0,0.1,0,0.2V258h3.7c0.1,0,0.2,0,0.2,0.1c0.1,0,0.1,0.1,0.2,0.2
			c0,0.1,0.1,0.2,0.1,0.3C486.7,258.8,486.7,258.9,486.7,259.1z"/>
	</g>
	<g class="st1">
		<path d="M107.6,404.7c0.1,0.2,0.1,0.4,0.1,0.6c0,0.1,0,0.2-0.1,0.3c-0.1,0.1-0.2,0.1-0.4,0.1c-0.2,0-0.5,0-0.8,0
			c-0.3,0-0.6,0-0.8,0c-0.2,0-0.3,0-0.4-0.1c-0.1,0-0.2-0.1-0.2-0.1s-0.1-0.1-0.1-0.2l-1.7-4.9h-8.4l-1.7,4.9c0,0.1-0.1,0.2-0.1,0.2
			c-0.1,0.1-0.1,0.1-0.2,0.2c-0.1,0-0.2,0.1-0.4,0.1c-0.2,0-0.4,0-0.7,0c-0.3,0-0.5,0-0.7,0c-0.2,0-0.3-0.1-0.4-0.1
			c-0.1-0.1-0.1-0.2-0.1-0.3c0-0.1,0-0.3,0.1-0.6l6.8-18.8c0-0.1,0.1-0.2,0.2-0.3c0.1-0.1,0.2-0.1,0.3-0.2c0.1,0,0.3-0.1,0.5-0.1
			s0.5,0,0.8,0c0.3,0,0.6,0,0.8,0s0.4,0,0.5,0.1c0.1,0,0.2,0.1,0.3,0.2c0.1,0.1,0.1,0.2,0.2,0.3L107.6,404.7z M98.9,388.1
			L98.9,388.1l-3.5,10.1h7L98.9,388.1z"/>
		<path d="M122.8,405.3c0,0.1,0,0.2-0.1,0.2c0,0.1-0.1,0.1-0.2,0.1s-0.2,0.1-0.4,0.1c-0.2,0-0.4,0-0.6,0c-0.3,0-0.5,0-0.6,0
			c-0.2,0-0.3-0.1-0.4-0.1s-0.2-0.1-0.2-0.1c0-0.1-0.1-0.1-0.1-0.2V397c0-0.8-0.1-1.4-0.2-1.9c-0.1-0.5-0.3-0.9-0.5-1.3
			c-0.2-0.4-0.5-0.6-0.9-0.8c-0.4-0.2-0.8-0.3-1.3-0.3c-0.6,0-1.3,0.2-1.9,0.7c-0.6,0.5-1.3,1.1-2,2v9.8c0,0.1,0,0.2-0.1,0.2
			c0,0.1-0.1,0.1-0.2,0.1s-0.2,0.1-0.4,0.1c-0.2,0-0.4,0-0.6,0c-0.2,0-0.5,0-0.6,0c-0.2,0-0.3-0.1-0.4-0.1c-0.1,0-0.2-0.1-0.2-0.1
			c0-0.1-0.1-0.1-0.1-0.2v-14.1c0-0.1,0-0.2,0-0.2c0-0.1,0.1-0.1,0.2-0.2s0.2-0.1,0.4-0.1c0.1,0,0.3,0,0.6,0c0.2,0,0.4,0,0.6,0
			c0.2,0,0.3,0,0.4,0.1c0.1,0,0.1,0.1,0.2,0.2c0,0.1,0.1,0.1,0.1,0.2v1.9c0.8-0.9,1.6-1.5,2.4-1.9c0.8-0.4,1.6-0.6,2.4-0.6
			c0.9,0,1.7,0.2,2.4,0.5c0.6,0.3,1.2,0.7,1.6,1.3c0.4,0.5,0.7,1.2,0.9,1.9c0.2,0.7,0.3,1.6,0.3,2.6V405.3z"/>
		<path d="M138,405.3c0,0.1,0,0.2-0.1,0.3c-0.1,0.1-0.2,0.1-0.3,0.1c-0.1,0-0.4,0-0.6,0c-0.3,0-0.5,0-0.6,0c-0.2,0-0.3-0.1-0.4-0.1
			c-0.1-0.1-0.1-0.2-0.1-0.3v-1.4c-0.6,0.7-1.3,1.2-2.1,1.5c-0.8,0.4-1.6,0.5-2.4,0.5c-0.7,0-1.4-0.1-2-0.3
			c-0.6-0.2-1.1-0.5-1.5-0.8c-0.4-0.4-0.8-0.8-1-1.3s-0.4-1.1-0.4-1.8c0-0.8,0.2-1.5,0.5-2.1c0.3-0.6,0.8-1.1,1.4-1.5
			c0.6-0.4,1.3-0.7,2.2-0.9c0.9-0.2,1.9-0.3,3-0.3h1.9v-1.1c0-0.5-0.1-1-0.2-1.4c-0.1-0.4-0.3-0.8-0.6-1c-0.3-0.3-0.6-0.5-1-0.6
			s-0.9-0.2-1.5-0.2c-0.6,0-1.2,0.1-1.7,0.2c-0.5,0.2-0.9,0.3-1.3,0.5c-0.4,0.2-0.7,0.3-1,0.5c-0.3,0.2-0.4,0.2-0.6,0.2
			c-0.1,0-0.2,0-0.2-0.1c-0.1,0-0.1-0.1-0.2-0.2c0-0.1-0.1-0.2-0.1-0.3c0-0.1,0-0.3,0-0.4c0-0.3,0-0.5,0.1-0.6
			c0-0.2,0.1-0.3,0.3-0.4c0.1-0.1,0.4-0.3,0.7-0.5c0.3-0.2,0.7-0.3,1.2-0.5c0.4-0.2,0.9-0.3,1.5-0.4c0.5-0.1,1.1-0.1,1.6-0.1
			c1,0,1.9,0.1,2.6,0.3c0.7,0.2,1.3,0.6,1.7,1c0.4,0.4,0.8,1,1,1.6c0.2,0.7,0.3,1.4,0.3,2.3V405.3z M135.5,398.9h-2.2
			c-0.7,0-1.3,0.1-1.8,0.2c-0.5,0.1-1,0.3-1.3,0.5s-0.6,0.5-0.8,0.8c-0.2,0.3-0.2,0.7-0.2,1.1c0,0.7,0.2,1.3,0.7,1.7
			c0.5,0.4,1.1,0.6,1.9,0.6c0.7,0,1.3-0.2,1.9-0.5s1.2-0.9,1.8-1.6V398.9z"/>
		<path d="M145.4,405.3c0,0.1,0,0.2-0.1,0.2c0,0.1-0.1,0.1-0.2,0.1s-0.2,0.1-0.4,0.1c-0.2,0-0.4,0-0.6,0c-0.2,0-0.5,0-0.6,0
			c-0.2,0-0.3-0.1-0.4-0.1c-0.1,0-0.2-0.1-0.2-0.1c0-0.1-0.1-0.1-0.1-0.2v-20.9c0-0.1,0-0.2,0.1-0.2c0-0.1,0.1-0.1,0.2-0.2
			c0.1,0,0.2-0.1,0.4-0.1c0.2,0,0.4,0,0.6,0c0.3,0,0.5,0,0.6,0c0.2,0,0.3,0.1,0.4,0.1c0.1,0,0.2,0.1,0.2,0.2c0,0.1,0.1,0.1,0.1,0.2
			V405.3z"/>
		<path d="M163.2,398.1c0,1.1-0.2,2.2-0.5,3.2c-0.3,1-0.8,1.8-1.4,2.5c-0.6,0.7-1.3,1.2-2.2,1.6c-0.9,0.4-1.9,0.6-3.1,0.6
			c-1.2,0-2.2-0.2-3-0.5s-1.6-0.8-2.1-1.5c-0.6-0.7-1-1.5-1.3-2.4s-0.4-2-0.4-3.2c0-1.1,0.1-2.2,0.4-3.2c0.3-1,0.7-1.8,1.3-2.5
			c0.6-0.7,1.3-1.2,2.2-1.6c0.9-0.4,1.9-0.6,3.1-0.6c1.2,0,2.2,0.2,3,0.5s1.6,0.8,2.1,1.5c0.6,0.7,1,1.5,1.3,2.4
			C163.1,395.8,163.2,396.9,163.2,398.1z M160.5,398.2c0-0.8-0.1-1.5-0.2-2.2c-0.1-0.7-0.4-1.3-0.7-1.8c-0.3-0.5-0.8-0.9-1.3-1.2
			c-0.6-0.3-1.3-0.4-2.1-0.4c-0.8,0-1.4,0.1-2,0.4c-0.6,0.3-1,0.7-1.4,1.1c-0.4,0.5-0.6,1.1-0.8,1.8c-0.2,0.7-0.3,1.4-0.3,2.2
			c0,0.8,0.1,1.5,0.2,2.2c0.1,0.7,0.4,1.3,0.7,1.8c0.3,0.5,0.8,0.9,1.3,1.2c0.6,0.3,1.3,0.4,2.1,0.4c0.8,0,1.4-0.1,2-0.4
			c0.6-0.3,1-0.7,1.4-1.1c0.4-0.5,0.6-1.1,0.8-1.8C160.4,399.8,160.5,399.1,160.5,398.2z"/>
		<path d="M178.8,391.8c0,0.4,0,0.6-0.1,0.8c-0.1,0.2-0.2,0.2-0.4,0.2h-2c0.4,0.4,0.6,0.8,0.8,1.2c0.1,0.5,0.2,0.9,0.2,1.4
			c0,0.8-0.1,1.5-0.4,2.2c-0.3,0.6-0.6,1.2-1.1,1.6c-0.5,0.4-1.1,0.8-1.7,1c-0.7,0.2-1.4,0.3-2.2,0.3c-0.6,0-1.1-0.1-1.6-0.2
			c-0.5-0.2-0.9-0.3-1.2-0.6c-0.2,0.2-0.3,0.4-0.5,0.6c-0.1,0.2-0.2,0.5-0.2,0.8c0,0.4,0.2,0.7,0.5,0.9c0.3,0.2,0.8,0.4,1.4,0.4
			l3.7,0.2c0.7,0,1.3,0.1,1.9,0.3c0.6,0.2,1.1,0.4,1.5,0.7c0.4,0.3,0.8,0.7,1,1.2c0.2,0.5,0.4,1,0.4,1.6c0,0.6-0.1,1.3-0.4,1.8
			c-0.3,0.6-0.7,1.1-1.2,1.5c-0.6,0.4-1.3,0.8-2.1,1c-0.9,0.3-1.9,0.4-3.1,0.4c-1.1,0-2.1-0.1-2.9-0.3c-0.8-0.2-1.5-0.5-2-0.8
			c-0.5-0.3-0.9-0.7-1.1-1.2c-0.2-0.5-0.3-1-0.3-1.5c0-0.3,0-0.7,0.1-1c0.1-0.3,0.2-0.6,0.4-0.9s0.4-0.6,0.6-0.8
			c0.3-0.3,0.5-0.5,0.9-0.8c-0.5-0.3-0.9-0.6-1.1-1c-0.2-0.4-0.4-0.8-0.4-1.3c0-0.6,0.1-1.2,0.4-1.7c0.3-0.5,0.6-0.9,1-1.3
			c-0.3-0.4-0.6-0.8-0.8-1.3s-0.3-1.1-0.3-1.8c0-0.8,0.1-1.5,0.4-2.2c0.3-0.6,0.6-1.2,1.1-1.6c0.5-0.4,1.1-0.8,1.7-1
			s1.4-0.4,2.2-0.4c0.4,0,0.8,0,1.2,0.1c0.4,0,0.7,0.1,1,0.2h4.2c0.2,0,0.3,0.1,0.4,0.3C178.7,391.2,178.8,391.5,178.8,391.8z
			 M176,406.7c0-0.6-0.2-1.1-0.7-1.4c-0.5-0.3-1.2-0.5-2-0.5l-3.6-0.1c-0.3,0.3-0.6,0.5-0.8,0.7c-0.2,0.2-0.4,0.5-0.5,0.7
			c-0.1,0.2-0.2,0.4-0.3,0.6c0,0.2-0.1,0.4-0.1,0.6c0,0.7,0.3,1.2,1,1.5c0.7,0.3,1.6,0.5,2.9,0.5c0.8,0,1.4-0.1,2-0.2
			c0.5-0.2,1-0.4,1.3-0.6c0.3-0.2,0.6-0.5,0.7-0.9C175.9,407.4,176,407,176,406.7z M174.7,395.5c0-1-0.3-1.7-0.8-2.2
			c-0.5-0.5-1.3-0.8-2.2-0.8c-0.5,0-0.9,0.1-1.3,0.2c-0.4,0.2-0.7,0.4-0.9,0.7c-0.2,0.3-0.4,0.6-0.5,1c-0.1,0.4-0.2,0.8-0.2,1.2
			c0,0.9,0.3,1.7,0.8,2.2c0.5,0.5,1.3,0.8,2.2,0.8c0.5,0,1-0.1,1.3-0.2c0.4-0.2,0.7-0.4,0.9-0.7c0.2-0.3,0.4-0.6,0.5-1
			C174.7,396.3,174.7,395.9,174.7,395.5z"/>
		<path d="M192.2,386.4c0,0.6-0.1,1-0.3,1.2c-0.2,0.2-0.7,0.3-1.3,0.3c-0.6,0-1-0.1-1.2-0.3c-0.2-0.2-0.3-0.6-0.3-1.2
			c0-0.6,0.1-1,0.3-1.2c0.2-0.2,0.7-0.3,1.3-0.3c0.6,0,1,0.1,1.2,0.3C192.1,385.5,192.2,385.9,192.2,386.4z M191.9,405.3
			c0,0.1,0,0.2-0.1,0.2c0,0.1-0.1,0.1-0.2,0.1s-0.2,0.1-0.4,0.1c-0.2,0-0.4,0-0.6,0c-0.2,0-0.5,0-0.6,0c-0.2,0-0.3-0.1-0.4-0.1
			c-0.1,0-0.2-0.1-0.2-0.1c0-0.1-0.1-0.1-0.1-0.2v-14.1c0-0.1,0-0.1,0.1-0.2c0-0.1,0.1-0.1,0.2-0.2c0.1,0,0.2-0.1,0.4-0.1
			c0.2,0,0.4,0,0.6,0c0.3,0,0.5,0,0.6,0c0.2,0,0.3,0.1,0.4,0.1c0.1,0,0.2,0.1,0.2,0.2c0,0.1,0.1,0.1,0.1,0.2V405.3z"/>
		<path d="M208.8,405.3c0,0.1,0,0.2-0.1,0.2c0,0.1-0.1,0.1-0.2,0.1s-0.2,0.1-0.4,0.1c-0.2,0-0.4,0-0.6,0c-0.3,0-0.5,0-0.6,0
			c-0.2,0-0.3-0.1-0.4-0.1s-0.2-0.1-0.2-0.1c0-0.1-0.1-0.1-0.1-0.2V397c0-0.8-0.1-1.4-0.2-1.9c-0.1-0.5-0.3-0.9-0.5-1.3
			c-0.2-0.4-0.5-0.6-0.9-0.8c-0.4-0.2-0.8-0.3-1.3-0.3c-0.6,0-1.3,0.2-1.9,0.7c-0.6,0.5-1.3,1.1-2,2v9.8c0,0.1,0,0.2-0.1,0.2
			c0,0.1-0.1,0.1-0.2,0.1s-0.2,0.1-0.4,0.1c-0.2,0-0.4,0-0.6,0c-0.2,0-0.5,0-0.6,0c-0.2,0-0.3-0.1-0.4-0.1c-0.1,0-0.2-0.1-0.2-0.1
			c0-0.1-0.1-0.1-0.1-0.2v-14.1c0-0.1,0-0.2,0-0.2c0-0.1,0.1-0.1,0.2-0.2s0.2-0.1,0.4-0.1c0.1,0,0.3,0,0.6,0c0.2,0,0.4,0,0.6,0
			c0.2,0,0.3,0,0.4,0.1c0.1,0,0.1,0.1,0.2,0.2c0,0.1,0.1,0.1,0.1,0.2v1.9c0.8-0.9,1.6-1.5,2.4-1.9c0.8-0.4,1.6-0.6,2.4-0.6
			c0.9,0,1.7,0.2,2.4,0.5c0.6,0.3,1.2,0.7,1.6,1.3c0.4,0.5,0.7,1.2,0.9,1.9c0.2,0.7,0.3,1.6,0.3,2.6V405.3z"/>
		<path d="M226.4,398c0,1.2-0.1,2.3-0.4,3.3c-0.3,1-0.7,1.8-1.2,2.5c-0.5,0.7-1.2,1.2-1.9,1.6c-0.8,0.4-1.6,0.6-2.6,0.6
			c-0.4,0-0.8,0-1.2-0.1c-0.4-0.1-0.7-0.2-1-0.4c-0.3-0.2-0.7-0.4-1-0.7c-0.3-0.3-0.7-0.6-1.1-1v7c0,0.1,0,0.2-0.1,0.2
			c0,0.1-0.1,0.1-0.2,0.2c-0.1,0-0.2,0.1-0.4,0.1c-0.2,0-0.4,0-0.6,0c-0.2,0-0.5,0-0.6,0c-0.2,0-0.3-0.1-0.4-0.1
			c-0.1,0-0.2-0.1-0.2-0.2c0-0.1-0.1-0.1-0.1-0.2v-19.6c0-0.1,0-0.2,0-0.2c0-0.1,0.1-0.1,0.2-0.1c0.1,0,0.2-0.1,0.4-0.1
			c0.1,0,0.3,0,0.5,0c0.2,0,0.4,0,0.5,0s0.3,0,0.4,0.1c0.1,0,0.2,0.1,0.2,0.1c0,0.1,0.1,0.1,0.1,0.2v1.9c0.4-0.4,0.8-0.8,1.2-1.1
			c0.4-0.3,0.8-0.6,1.2-0.8c0.4-0.2,0.8-0.4,1.2-0.5s0.9-0.2,1.3-0.2c1,0,1.9,0.2,2.6,0.6c0.7,0.4,1.3,0.9,1.8,1.6s0.8,1.5,1,2.4
			C226.3,396,226.4,397,226.4,398z M223.7,398.3c0-0.7-0.1-1.4-0.2-2.1s-0.3-1.3-0.6-1.8c-0.3-0.5-0.6-0.9-1.1-1.2
			c-0.5-0.3-1-0.5-1.7-0.5c-0.3,0-0.7,0-1,0.1c-0.3,0.1-0.7,0.3-1,0.5c-0.3,0.2-0.7,0.5-1.1,0.8c-0.4,0.3-0.8,0.8-1.2,1.3v5.6
			c0.7,0.9,1.4,1.5,2,2c0.6,0.5,1.3,0.7,2,0.7c0.6,0,1.2-0.2,1.7-0.5c0.5-0.3,0.8-0.7,1.1-1.2c0.3-0.5,0.5-1.1,0.6-1.8
			C223.7,399.6,223.7,399,223.7,398.3z"/>
		<path d="M242.3,405.3c0,0.1,0,0.2-0.1,0.2c0,0.1-0.1,0.1-0.2,0.1s-0.2,0.1-0.4,0.1c-0.2,0-0.3,0-0.6,0c-0.2,0-0.4,0-0.6,0
			c-0.2,0-0.3-0.1-0.4-0.1c-0.1,0-0.1-0.1-0.2-0.1c0-0.1,0-0.1,0-0.2v-1.9c-0.8,0.9-1.6,1.5-2.4,1.9s-1.6,0.6-2.4,0.6
			c-0.9,0-1.7-0.2-2.4-0.5s-1.2-0.7-1.6-1.3c-0.4-0.5-0.7-1.2-0.9-1.9c-0.2-0.7-0.3-1.6-0.3-2.6v-8.5c0-0.1,0-0.2,0.1-0.2
			c0-0.1,0.1-0.1,0.2-0.2c0.1,0,0.2-0.1,0.4-0.1c0.2,0,0.4,0,0.6,0s0.5,0,0.6,0c0.2,0,0.3,0,0.4,0.1c0.1,0,0.2,0.1,0.2,0.2
			c0,0.1,0.1,0.1,0.1,0.2v8.2c0,0.8,0.1,1.5,0.2,2c0.1,0.5,0.3,0.9,0.5,1.3c0.2,0.3,0.6,0.6,0.9,0.8c0.4,0.2,0.8,0.3,1.3,0.3
			c0.6,0,1.3-0.2,1.9-0.7c0.6-0.5,1.3-1.1,2-2v-9.8c0-0.1,0-0.2,0.1-0.2c0-0.1,0.1-0.1,0.2-0.2c0.1,0,0.2-0.1,0.4-0.1
			c0.2,0,0.4,0,0.6,0c0.2,0,0.5,0,0.6,0c0.2,0,0.3,0,0.4,0.1s0.2,0.1,0.2,0.2c0,0.1,0.1,0.1,0.1,0.2V405.3z"/>
		<path d="M254.4,404.2c0,0.3,0,0.5-0.1,0.7c0,0.2-0.1,0.3-0.2,0.4c-0.1,0.1-0.2,0.2-0.4,0.2c-0.2,0.1-0.4,0.1-0.6,0.2
			c-0.2,0-0.4,0.1-0.7,0.1c-0.2,0-0.5,0-0.7,0c-0.7,0-1.4-0.1-1.9-0.3c-0.5-0.2-0.9-0.5-1.3-0.9c-0.3-0.4-0.6-0.9-0.7-1.5
			c-0.2-0.6-0.2-1.3-0.2-2.1v-8.2h-2c-0.2,0-0.3-0.1-0.4-0.2c-0.1-0.2-0.1-0.4-0.1-0.8c0-0.2,0-0.4,0-0.5c0-0.1,0.1-0.2,0.1-0.3
			c0-0.1,0.1-0.2,0.2-0.2c0.1,0,0.1-0.1,0.2-0.1h2v-3.3c0-0.1,0-0.1,0.1-0.2c0-0.1,0.1-0.1,0.2-0.2c0.1,0,0.2-0.1,0.4-0.1
			c0.2,0,0.4,0,0.6,0c0.3,0,0.5,0,0.6,0c0.2,0,0.3,0.1,0.4,0.1s0.2,0.1,0.2,0.2c0,0.1,0.1,0.1,0.1,0.2v3.3h3.6c0.1,0,0.2,0,0.2,0.1
			c0.1,0,0.1,0.1,0.2,0.2c0,0.1,0.1,0.2,0.1,0.3c0,0.1,0,0.3,0,0.5c0,0.4,0,0.6-0.1,0.8c-0.1,0.2-0.2,0.2-0.4,0.2h-3.6v7.8
			c0,1,0.1,1.7,0.4,2.2c0.3,0.5,0.8,0.7,1.5,0.7c0.2,0,0.5,0,0.6-0.1s0.4-0.1,0.5-0.1c0.1-0.1,0.3-0.1,0.4-0.1
			c0.1,0,0.2-0.1,0.3-0.1c0.1,0,0.1,0,0.1,0c0,0,0.1,0.1,0.1,0.1c0,0.1,0,0.2,0.1,0.3C254.4,403.9,254.4,404,254.4,404.2z"/>
		<path d="M278,398c0,1.2-0.1,2.3-0.4,3.3c-0.3,1-0.7,1.8-1.2,2.5c-0.5,0.7-1.2,1.2-1.9,1.6c-0.8,0.4-1.6,0.6-2.6,0.6
			c-0.4,0-0.8,0-1.2-0.1c-0.4-0.1-0.7-0.2-1-0.4c-0.3-0.2-0.7-0.4-1-0.7c-0.3-0.3-0.7-0.6-1.1-1v7c0,0.1,0,0.2-0.1,0.2
			c0,0.1-0.1,0.1-0.2,0.2c-0.1,0-0.2,0.1-0.4,0.1c-0.2,0-0.4,0-0.6,0c-0.2,0-0.5,0-0.6,0c-0.2,0-0.3-0.1-0.4-0.1
			c-0.1,0-0.2-0.1-0.2-0.2c0-0.1-0.1-0.1-0.1-0.2v-19.6c0-0.1,0-0.2,0-0.2c0-0.1,0.1-0.1,0.2-0.1c0.1,0,0.2-0.1,0.4-0.1
			c0.1,0,0.3,0,0.5,0c0.2,0,0.4,0,0.5,0s0.3,0,0.4,0.1c0.1,0,0.2,0.1,0.2,0.1c0,0.1,0.1,0.1,0.1,0.2v1.9c0.4-0.4,0.8-0.8,1.2-1.1
			c0.4-0.3,0.8-0.6,1.2-0.8c0.4-0.2,0.8-0.4,1.2-0.5s0.9-0.2,1.3-0.2c1,0,1.9,0.2,2.6,0.6c0.7,0.4,1.3,0.9,1.8,1.6s0.8,1.5,1,2.4
			C277.9,396,278,397,278,398z M275.3,398.3c0-0.7-0.1-1.4-0.2-2.1s-0.3-1.3-0.6-1.8c-0.3-0.5-0.6-0.9-1.1-1.2
			c-0.5-0.3-1-0.5-1.7-0.5c-0.3,0-0.7,0-1,0.1c-0.3,0.1-0.7,0.3-1,0.5c-0.3,0.2-0.7,0.5-1.1,0.8c-0.4,0.3-0.8,0.8-1.2,1.3v5.6
			c0.7,0.9,1.4,1.5,2,2c0.6,0.5,1.3,0.7,2,0.7c0.6,0,1.2-0.2,1.7-0.5c0.5-0.3,0.8-0.7,1.1-1.2c0.3-0.5,0.5-1.1,0.6-1.8
			C275.2,399.6,275.3,399,275.3,398.3z"/>
		<path d="M284.7,386.4c0,0.6-0.1,1-0.3,1.2c-0.2,0.2-0.7,0.3-1.3,0.3c-0.6,0-1-0.1-1.2-0.3c-0.2-0.2-0.3-0.6-0.3-1.2
			c0-0.6,0.1-1,0.3-1.2c0.2-0.2,0.7-0.3,1.3-0.3c0.6,0,1,0.1,1.2,0.3C284.6,385.5,284.7,385.9,284.7,386.4z M284.4,405.3
			c0,0.1,0,0.2-0.1,0.2c0,0.1-0.1,0.1-0.2,0.1s-0.2,0.1-0.4,0.1c-0.2,0-0.4,0-0.6,0c-0.2,0-0.5,0-0.6,0c-0.2,0-0.3-0.1-0.4-0.1
			c-0.1,0-0.2-0.1-0.2-0.1c0-0.1-0.1-0.1-0.1-0.2v-14.1c0-0.1,0-0.1,0.1-0.2c0-0.1,0.1-0.1,0.2-0.2c0.1,0,0.2-0.1,0.4-0.1
			c0.2,0,0.4,0,0.6,0c0.3,0,0.5,0,0.6,0c0.2,0,0.3,0.1,0.4,0.1c0.1,0,0.2,0.1,0.2,0.2c0,0.1,0.1,0.1,0.1,0.2V405.3z"/>
		<path d="M301.3,405.3c0,0.1,0,0.2-0.1,0.2c0,0.1-0.1,0.1-0.2,0.1s-0.2,0.1-0.4,0.1c-0.2,0-0.4,0-0.6,0c-0.3,0-0.5,0-0.6,0
			c-0.2,0-0.3-0.1-0.4-0.1s-0.2-0.1-0.2-0.1c0-0.1-0.1-0.1-0.1-0.2V397c0-0.8-0.1-1.4-0.2-1.9c-0.1-0.5-0.3-0.9-0.5-1.3
			c-0.2-0.4-0.5-0.6-0.9-0.8c-0.4-0.2-0.8-0.3-1.3-0.3c-0.6,0-1.3,0.2-1.9,0.7c-0.6,0.5-1.3,1.1-2,2v9.8c0,0.1,0,0.2-0.1,0.2
			c0,0.1-0.1,0.1-0.2,0.1s-0.2,0.1-0.4,0.1c-0.2,0-0.4,0-0.6,0c-0.2,0-0.5,0-0.6,0c-0.2,0-0.3-0.1-0.4-0.1c-0.1,0-0.2-0.1-0.2-0.1
			c0-0.1-0.1-0.1-0.1-0.2v-14.1c0-0.1,0-0.2,0-0.2c0-0.1,0.1-0.1,0.2-0.2s0.2-0.1,0.4-0.1c0.1,0,0.3,0,0.6,0c0.2,0,0.4,0,0.6,0
			c0.2,0,0.3,0,0.4,0.1c0.1,0,0.1,0.1,0.2,0.2c0,0.1,0.1,0.1,0.1,0.2v1.9c0.8-0.9,1.6-1.5,2.4-1.9c0.8-0.4,1.6-0.6,2.4-0.6
			c0.9,0,1.7,0.2,2.4,0.5c0.6,0.3,1.2,0.7,1.6,1.3c0.4,0.5,0.7,1.2,0.9,1.9c0.2,0.7,0.3,1.6,0.3,2.6V405.3z"/>
	</g>
	<g class="st1">
		<path d="M463.8,99.7c0,0.2,0,0.4,0,0.5s-0.1,0.3-0.1,0.4c-0.1,0.1-0.1,0.2-0.2,0.2c-0.1,0-0.2,0.1-0.2,0.1h-5.1v5.7
			c0,0.1,0,0.2-0.1,0.2c0,0.1-0.1,0.1-0.2,0.1c-0.1,0-0.2,0.1-0.4,0.1c-0.1,0-0.3,0-0.5,0c-0.2,0-0.4,0-0.5,0
			c-0.2,0-0.3-0.1-0.4-0.1c-0.1,0-0.2-0.1-0.2-0.1c0-0.1-0.1-0.1-0.1-0.2v-5.7h-5.1c-0.1,0-0.2,0-0.2-0.1c-0.1,0-0.1-0.1-0.2-0.2
			c-0.1-0.1-0.1-0.2-0.1-0.4s0-0.3,0-0.5c0-0.2,0-0.4,0-0.5s0.1-0.3,0.1-0.4c0.1-0.1,0.1-0.2,0.2-0.2c0.1,0,0.1-0.1,0.2-0.1h5.1
			v-5.7c0-0.1,0-0.2,0.1-0.2c0-0.1,0.1-0.1,0.2-0.2c0.1,0,0.2-0.1,0.4-0.1c0.2,0,0.3,0,0.5,0c0.2,0,0.4,0,0.5,0
			c0.1,0,0.3,0.1,0.4,0.1c0.1,0,0.2,0.1,0.2,0.2c0,0.1,0.1,0.1,0.1,0.2v5.7h5.1c0.1,0,0.2,0,0.2,0.1c0.1,0,0.1,0.1,0.2,0.2
			c0.1,0.1,0.1,0.2,0.1,0.4C463.8,99.3,463.8,99.5,463.8,99.7z"/>
		<path d="M475.7,108.2c0,0.1-0.1,0.2-0.2,0.3c-0.1,0.1-0.2,0.1-0.3,0.2c-0.1,0-0.3,0.1-0.5,0.1s-0.5,0-0.8,0c-0.2,0-0.4,0-0.6,0
			c-0.2,0-0.3,0-0.4,0c-0.1,0-0.2,0-0.3-0.1c-0.1,0-0.2-0.1-0.2-0.1c-0.1,0-0.1-0.1-0.1-0.1c0-0.1-0.1-0.1-0.1-0.2l-6.6-18.8
			c-0.1-0.2-0.1-0.4-0.1-0.6c0-0.1,0-0.2,0.1-0.3c0.1-0.1,0.2-0.1,0.5-0.1c0.2,0,0.5,0,0.8,0c0.3,0,0.5,0,0.7,0s0.3,0,0.4,0.1
			c0.1,0,0.2,0.1,0.2,0.2s0.1,0.2,0.1,0.3l5.8,17h0l5.6-17c0-0.1,0.1-0.2,0.1-0.3c0-0.1,0.1-0.1,0.2-0.2c0.1,0,0.2-0.1,0.4-0.1
			s0.4,0,0.8,0c0.3,0,0.6,0,0.8,0c0.2,0,0.3,0.1,0.4,0.1c0.1,0.1,0.1,0.2,0.1,0.3s-0.1,0.3-0.1,0.6L475.7,108.2z"/>
	</g>
	<g class="st1">
		<path d="M21.2,96.9c0,1-0.2,1.9-0.5,2.7c-0.3,0.8-0.8,1.5-1.4,2.1c-0.6,0.6-1.4,1-2.3,1.3c-0.9,0.3-2,0.5-3.2,0.5h-2.3v7.3
			c0,0.1,0,0.2-0.1,0.2s-0.1,0.1-0.2,0.1c-0.1,0-0.2,0.1-0.4,0.1c-0.2,0-0.4,0-0.6,0c-0.3,0-0.5,0-0.6,0c-0.2,0-0.3-0.1-0.4-0.1
			c-0.1,0-0.2-0.1-0.2-0.1c0-0.1-0.1-0.1-0.1-0.2V92.1c0-0.4,0.1-0.7,0.3-0.9C9.3,91.1,9.5,91,9.8,91h4.3c0.4,0,0.9,0,1.3,0.1
			c0.4,0,0.9,0.1,1.4,0.2c0.5,0.1,1.1,0.3,1.7,0.7c0.6,0.3,1,0.7,1.4,1.2c0.4,0.5,0.7,1,0.9,1.7C21.1,95.4,21.2,96.1,21.2,96.9z
			 M18.3,97.1c0-0.8-0.2-1.5-0.5-2.1c-0.3-0.6-0.7-1-1.1-1.2c-0.5-0.3-0.9-0.4-1.4-0.5c-0.5-0.1-1-0.1-1.4-0.1h-2.5v8.1h2.4
			c0.8,0,1.5-0.1,2-0.3c0.5-0.2,1-0.5,1.4-0.9c0.4-0.4,0.6-0.8,0.8-1.3S18.3,97.7,18.3,97.1z"/>
		<path d="M37.4,103.6c0,1.1-0.2,2.2-0.5,3.2c-0.3,1-0.8,1.8-1.4,2.5c-0.6,0.7-1.3,1.2-2.2,1.6c-0.9,0.4-1.9,0.6-3.1,0.6
			c-1.2,0-2.2-0.2-3-0.5s-1.6-0.8-2.1-1.5c-0.6-0.7-1-1.5-1.3-2.4s-0.4-2-0.4-3.2c0-1.1,0.1-2.2,0.4-3.2c0.3-1,0.7-1.8,1.3-2.5
			c0.6-0.7,1.3-1.2,2.2-1.6c0.9-0.4,1.9-0.6,3.1-0.6c1.2,0,2.2,0.2,3,0.5s1.6,0.8,2.1,1.5c0.6,0.7,1,1.5,1.3,2.4
			C37.3,101.4,37.4,102.4,37.4,103.6z M34.7,103.8c0-0.8-0.1-1.5-0.2-2.2c-0.1-0.7-0.4-1.3-0.7-1.8c-0.3-0.5-0.8-0.9-1.3-1.2
			c-0.6-0.3-1.3-0.4-2.1-0.4c-0.8,0-1.4,0.1-2,0.4c-0.6,0.3-1,0.7-1.4,1.1c-0.4,0.5-0.6,1.1-0.8,1.8c-0.2,0.7-0.3,1.4-0.3,2.2
			c0,0.8,0.1,1.5,0.2,2.2c0.1,0.7,0.4,1.3,0.7,1.8c0.3,0.5,0.8,0.9,1.3,1.2c0.6,0.3,1.3,0.4,2.1,0.4c0.8,0,1.4-0.1,2-0.4
			c0.6-0.3,1-0.7,1.4-1.1c0.4-0.5,0.6-1.1,0.8-1.8C34.7,105.4,34.7,104.6,34.7,103.8z"/>
		<path d="M48.5,109.8c0,0.3,0,0.5-0.1,0.7c0,0.2-0.1,0.3-0.2,0.4c-0.1,0.1-0.2,0.2-0.4,0.2c-0.2,0.1-0.4,0.1-0.6,0.2
			c-0.2,0-0.4,0.1-0.7,0.1c-0.2,0-0.5,0-0.7,0c-0.7,0-1.4-0.1-1.9-0.3c-0.5-0.2-0.9-0.5-1.3-0.9c-0.3-0.4-0.6-0.9-0.7-1.5
			c-0.2-0.6-0.2-1.3-0.2-2.1v-8.2h-2c-0.2,0-0.3-0.1-0.4-0.2c-0.1-0.2-0.1-0.4-0.1-0.8c0-0.2,0-0.4,0-0.5c0-0.1,0.1-0.2,0.1-0.3
			c0-0.1,0.1-0.2,0.2-0.2c0.1,0,0.1-0.1,0.2-0.1h2V93c0-0.1,0-0.1,0.1-0.2c0-0.1,0.1-0.1,0.2-0.2c0.1,0,0.2-0.1,0.4-0.1
			c0.2,0,0.4,0,0.6,0c0.3,0,0.5,0,0.6,0c0.2,0,0.3,0.1,0.4,0.1s0.2,0.1,0.2,0.2c0,0.1,0.1,0.1,0.1,0.2v3.3H48c0.1,0,0.2,0,0.2,0.1
			c0.1,0,0.1,0.1,0.2,0.2c0,0.1,0.1,0.2,0.1,0.3c0,0.1,0,0.3,0,0.5c0,0.4,0,0.6-0.1,0.8c-0.1,0.2-0.2,0.2-0.4,0.2h-3.6v7.8
			c0,1,0.1,1.7,0.4,2.2c0.3,0.5,0.8,0.7,1.5,0.7c0.2,0,0.5,0,0.6-0.1s0.4-0.1,0.5-0.1c0.1-0.1,0.3-0.1,0.4-0.1
			c0.1,0,0.2-0.1,0.3-0.1c0.1,0,0.1,0,0.1,0c0,0,0.1,0.1,0.1,0.1c0,0.1,0,0.2,0.1,0.3C48.5,109.4,48.5,109.6,48.5,109.8z"/>
		<path d="M63.6,103.2c0,0.4-0.1,0.7-0.3,0.9c-0.2,0.2-0.4,0.3-0.7,0.3h-9.3c0,0.8,0.1,1.5,0.2,2.1s0.4,1.2,0.8,1.6
			c0.4,0.4,0.8,0.8,1.4,1c0.6,0.2,1.3,0.4,2.2,0.4c0.7,0,1.3-0.1,1.8-0.2s1-0.2,1.4-0.4c0.4-0.1,0.7-0.3,0.9-0.4s0.4-0.2,0.6-0.2
			c0.1,0,0.1,0,0.2,0.1c0.1,0,0.1,0.1,0.1,0.2c0,0.1,0.1,0.2,0.1,0.3c0,0.1,0,0.3,0,0.5c0,0.1,0,0.3,0,0.4c0,0.1,0,0.2,0,0.3
			s0,0.1-0.1,0.2c0,0.1-0.1,0.1-0.1,0.2c-0.1,0.1-0.2,0.2-0.5,0.3c-0.3,0.1-0.6,0.3-1.1,0.4c-0.4,0.1-1,0.2-1.6,0.3
			c-0.6,0.1-1.2,0.1-1.9,0.1c-1.2,0-2.2-0.2-3-0.5c-0.9-0.3-1.6-0.8-2.2-1.4c-0.6-0.6-1-1.4-1.3-2.4c-0.3-1-0.5-2.1-0.5-3.3
			c0-1.2,0.2-2.3,0.5-3.3c0.3-1,0.8-1.8,1.4-2.5c0.6-0.7,1.3-1.2,2.1-1.5c0.8-0.4,1.8-0.5,2.8-0.5c1.1,0,2,0.2,2.8,0.5
			c0.8,0.4,1.4,0.8,1.9,1.4c0.5,0.6,0.9,1.3,1.1,2.1c0.2,0.8,0.4,1.7,0.4,2.6V103.2z M61,102.4c0-1.4-0.3-2.4-0.9-3.2
			c-0.6-0.8-1.6-1.2-2.8-1.2c-0.6,0-1.2,0.1-1.7,0.4c-0.5,0.2-0.9,0.6-1.2,1c-0.3,0.4-0.6,0.9-0.8,1.4c-0.2,0.5-0.3,1.1-0.3,1.6H61z
			"/>
		<path d="M79.6,110.8c0,0.1,0,0.2-0.1,0.2c0,0.1-0.1,0.1-0.2,0.1s-0.2,0.1-0.4,0.1c-0.2,0-0.4,0-0.6,0c-0.3,0-0.5,0-0.6,0
			c-0.2,0-0.3-0.1-0.4-0.1s-0.2-0.1-0.2-0.1c0-0.1-0.1-0.1-0.1-0.2v-8.2c0-0.8-0.1-1.4-0.2-1.9c-0.1-0.5-0.3-0.9-0.5-1.3
			c-0.2-0.4-0.5-0.6-0.9-0.8c-0.4-0.2-0.8-0.3-1.3-0.3c-0.6,0-1.3,0.2-1.9,0.7c-0.6,0.5-1.3,1.1-2,2v9.8c0,0.1,0,0.2-0.1,0.2
			c0,0.1-0.1,0.1-0.2,0.1s-0.2,0.1-0.4,0.1c-0.2,0-0.4,0-0.6,0c-0.2,0-0.5,0-0.6,0c-0.2,0-0.3-0.1-0.4-0.1c-0.1,0-0.2-0.1-0.2-0.1
			c0-0.1-0.1-0.1-0.1-0.2V96.7c0-0.1,0-0.2,0-0.2c0-0.1,0.1-0.1,0.2-0.2s0.2-0.1,0.4-0.1c0.1,0,0.3,0,0.6,0c0.2,0,0.4,0,0.6,0
			c0.2,0,0.3,0,0.4,0.1c0.1,0,0.1,0.1,0.2,0.2c0,0.1,0.1,0.1,0.1,0.2v1.9c0.8-0.9,1.6-1.5,2.4-1.9c0.8-0.4,1.6-0.6,2.4-0.6
			c0.9,0,1.7,0.2,2.4,0.5c0.6,0.3,1.2,0.7,1.6,1.3c0.4,0.5,0.7,1.2,0.9,1.9c0.2,0.7,0.3,1.6,0.3,2.6V110.8z"/>
		<path d="M96.3,96.3c0.3,0,0.5,0.1,0.6,0.2c0.1,0.1,0.2,0.3,0.2,0.6v13.6c0,0.1,0,0.2-0.1,0.2c0,0.1-0.1,0.1-0.2,0.1
			c-0.1,0-0.2,0.1-0.4,0.1c-0.2,0-0.4,0-0.6,0c-0.3,0-0.5,0-0.6,0c-0.2,0-0.3-0.1-0.4-0.1c-0.1,0-0.2-0.1-0.2-0.1
			c0-0.1-0.1-0.1-0.1-0.2V98.5h-7.3v7.8c0,1,0.1,1.7,0.4,2.2c0.3,0.5,0.8,0.7,1.5,0.7c0.2,0,0.5,0,0.6-0.1s0.4-0.1,0.5-0.1
			c0.1-0.1,0.3-0.1,0.4-0.1c0.1,0,0.2-0.1,0.3-0.1c0.1,0,0.1,0,0.1,0c0,0,0.1,0.1,0.1,0.1c0,0.1,0,0.2,0.1,0.3c0,0.1,0,0.3,0,0.5
			c0,0.3,0,0.5-0.1,0.7c0,0.2-0.1,0.3-0.2,0.4c-0.1,0.1-0.2,0.2-0.4,0.2c-0.2,0.1-0.4,0.1-0.6,0.2c-0.2,0-0.4,0.1-0.7,0.1
			c-0.2,0-0.5,0-0.7,0c-0.7,0-1.4-0.1-1.9-0.3c-0.5-0.2-0.9-0.5-1.3-0.9c-0.3-0.4-0.6-0.9-0.7-1.5c-0.2-0.6-0.2-1.3-0.2-2.1v-8.2h-2
			c-0.2,0-0.3-0.1-0.4-0.2c-0.1-0.2-0.1-0.4-0.1-0.8c0-0.2,0-0.4,0-0.5c0-0.1,0.1-0.2,0.1-0.3c0-0.1,0.1-0.2,0.2-0.2
			c0.1,0,0.1-0.1,0.2-0.1h2V93c0-0.1,0-0.1,0.1-0.2c0-0.1,0.1-0.1,0.2-0.2c0.1,0,0.2-0.1,0.4-0.1c0.2,0,0.4,0,0.6,0
			c0.3,0,0.5,0,0.6,0c0.2,0,0.3,0.1,0.4,0.1s0.2,0.1,0.2,0.2c0,0.1,0.1,0.1,0.1,0.2v3.3H96.3z M97.4,92c0,0.6-0.1,1-0.3,1.2
			c-0.2,0.2-0.7,0.3-1.3,0.3c-0.6,0-1-0.1-1.2-0.3c-0.2-0.2-0.3-0.6-0.3-1.2c0-0.6,0.1-1,0.3-1.2c0.2-0.2,0.7-0.3,1.3-0.3
			c0.6,0,1,0.1,1.2,0.3C97.3,91,97.4,91.4,97.4,92z"/>
		<path d="M114.9,103.6c0,1.1-0.2,2.2-0.5,3.2c-0.3,1-0.8,1.8-1.4,2.5c-0.6,0.7-1.3,1.2-2.2,1.6c-0.9,0.4-1.9,0.6-3.1,0.6
			c-1.2,0-2.2-0.2-3-0.5s-1.6-0.8-2.1-1.5c-0.6-0.7-1-1.5-1.3-2.4s-0.4-2-0.4-3.2c0-1.1,0.1-2.2,0.4-3.2c0.3-1,0.7-1.8,1.3-2.5
			c0.6-0.7,1.3-1.2,2.2-1.6c0.9-0.4,1.9-0.6,3.1-0.6c1.2,0,2.2,0.2,3,0.5s1.6,0.8,2.1,1.5c0.6,0.7,1,1.5,1.3,2.4
			C114.8,101.4,114.9,102.4,114.9,103.6z M112.3,103.8c0-0.8-0.1-1.5-0.2-2.2c-0.1-0.7-0.4-1.3-0.7-1.8c-0.3-0.5-0.8-0.9-1.3-1.2
			c-0.6-0.3-1.3-0.4-2.1-0.4c-0.8,0-1.4,0.1-2,0.4c-0.6,0.3-1,0.7-1.4,1.1c-0.4,0.5-0.6,1.1-0.8,1.8c-0.2,0.7-0.3,1.4-0.3,2.2
			c0,0.8,0.1,1.5,0.2,2.2c0.1,0.7,0.4,1.3,0.7,1.8c0.3,0.5,0.8,0.9,1.3,1.2c0.6,0.3,1.3,0.4,2.1,0.4c0.8,0,1.4-0.1,2-0.4
			c0.6-0.3,1-0.7,1.4-1.1c0.4-0.5,0.6-1.1,0.8-1.8C112.2,105.4,112.3,104.6,112.3,103.8z"/>
		<path d="M139.6,110.8c0,0.1,0,0.2-0.1,0.2c0,0.1-0.1,0.1-0.2,0.1s-0.2,0.1-0.4,0.1c-0.2,0-0.4,0-0.6,0c-0.3,0-0.5,0-0.6,0
			c-0.2,0-0.3-0.1-0.4-0.1c-0.1,0-0.2-0.1-0.2-0.1c0-0.1-0.1-0.1-0.1-0.2v-8.5c0-0.6-0.1-1.1-0.2-1.6c-0.1-0.5-0.3-0.9-0.5-1.3
			c-0.2-0.4-0.5-0.6-0.9-0.8c-0.4-0.2-0.8-0.3-1.2-0.3c-0.6,0-1.2,0.2-1.8,0.7c-0.6,0.5-1.3,1.1-2,2v9.8c0,0.1,0,0.2-0.1,0.2
			c0,0.1-0.1,0.1-0.2,0.1c-0.1,0-0.2,0.1-0.4,0.1c-0.2,0-0.4,0-0.6,0c-0.2,0-0.4,0-0.6,0c-0.2,0-0.3-0.1-0.4-0.1
			c-0.1,0-0.2-0.1-0.2-0.1c0-0.1-0.1-0.1-0.1-0.2v-8.5c0-0.6-0.1-1.1-0.2-1.6c-0.1-0.5-0.3-0.9-0.5-1.3c-0.2-0.4-0.5-0.6-0.9-0.8
			c-0.3-0.2-0.8-0.3-1.2-0.3c-0.6,0-1.2,0.2-1.8,0.7c-0.6,0.5-1.3,1.1-2,2v9.8c0,0.1,0,0.2-0.1,0.2c0,0.1-0.1,0.1-0.2,0.1
			s-0.2,0.1-0.4,0.1c-0.2,0-0.4,0-0.6,0c-0.2,0-0.5,0-0.6,0c-0.2,0-0.3-0.1-0.4-0.1c-0.1,0-0.2-0.1-0.2-0.1c0-0.1-0.1-0.1-0.1-0.2
			V96.7c0-0.1,0-0.2,0-0.2c0-0.1,0.1-0.1,0.2-0.2s0.2-0.1,0.4-0.1c0.1,0,0.3,0,0.6,0c0.2,0,0.4,0,0.6,0c0.2,0,0.3,0,0.4,0.1
			c0.1,0,0.1,0.1,0.2,0.2c0,0.1,0.1,0.1,0.1,0.2v1.9c0.8-0.9,1.6-1.5,2.3-1.9c0.7-0.4,1.5-0.6,2.3-0.6c0.6,0,1.1,0.1,1.6,0.2
			c0.5,0.1,0.9,0.3,1.2,0.6c0.4,0.2,0.7,0.5,0.9,0.9c0.2,0.3,0.5,0.7,0.6,1.1c0.5-0.5,0.9-0.9,1.3-1.3c0.4-0.4,0.8-0.6,1.2-0.9
			s0.8-0.4,1.1-0.5c0.4-0.1,0.7-0.1,1.1-0.1c0.9,0,1.7,0.2,2.3,0.5c0.6,0.3,1.1,0.7,1.5,1.3c0.4,0.5,0.7,1.2,0.8,1.9
			c0.2,0.7,0.2,1.5,0.2,2.3V110.8z"/>
		<path d="M156.3,103.2c0,0.4-0.1,0.7-0.3,0.9c-0.2,0.2-0.4,0.3-0.7,0.3H146c0,0.8,0.1,1.5,0.2,2.1s0.4,1.2,0.8,1.6
			c0.4,0.4,0.8,0.8,1.4,1c0.6,0.2,1.3,0.4,2.2,0.4c0.7,0,1.3-0.1,1.8-0.2s1-0.2,1.4-0.4c0.4-0.1,0.7-0.3,0.9-0.4s0.4-0.2,0.6-0.2
			c0.1,0,0.1,0,0.2,0.1c0.1,0,0.1,0.1,0.1,0.2c0,0.1,0.1,0.2,0.1,0.3c0,0.1,0,0.3,0,0.5c0,0.1,0,0.3,0,0.4c0,0.1,0,0.2,0,0.3
			s0,0.1-0.1,0.2c0,0.1-0.1,0.1-0.1,0.2c-0.1,0.1-0.2,0.2-0.5,0.3c-0.3,0.1-0.6,0.3-1.1,0.4c-0.4,0.1-1,0.2-1.6,0.3
			c-0.6,0.1-1.2,0.1-1.9,0.1c-1.2,0-2.2-0.2-3-0.5c-0.9-0.3-1.6-0.8-2.2-1.4c-0.6-0.6-1-1.4-1.3-2.4c-0.3-1-0.5-2.1-0.5-3.3
			c0-1.2,0.2-2.3,0.5-3.3c0.3-1,0.8-1.8,1.4-2.5c0.6-0.7,1.3-1.2,2.1-1.5c0.8-0.4,1.8-0.5,2.8-0.5c1.1,0,2,0.2,2.8,0.5
			c0.8,0.4,1.4,0.8,1.9,1.4c0.5,0.6,0.9,1.3,1.1,2.1c0.2,0.8,0.4,1.7,0.4,2.6V103.2z M153.7,102.4c0-1.4-0.3-2.4-0.9-3.2
			c-0.6-0.8-1.6-1.2-2.8-1.2c-0.6,0-1.2,0.1-1.7,0.4c-0.5,0.2-0.9,0.6-1.2,1c-0.3,0.4-0.6,0.9-0.8,1.4c-0.2,0.5-0.3,1.1-0.3,1.6
			H153.7z"/>
		<path d="M167.4,109.8c0,0.3,0,0.5-0.1,0.7c0,0.2-0.1,0.3-0.2,0.4c-0.1,0.1-0.2,0.2-0.4,0.2c-0.2,0.1-0.4,0.1-0.6,0.2
			c-0.2,0-0.4,0.1-0.7,0.1c-0.2,0-0.5,0-0.7,0c-0.7,0-1.4-0.1-1.9-0.3c-0.5-0.2-0.9-0.5-1.3-0.9c-0.3-0.4-0.6-0.9-0.7-1.5
			c-0.2-0.6-0.2-1.3-0.2-2.1v-8.2h-2c-0.2,0-0.3-0.1-0.4-0.2c-0.1-0.2-0.1-0.4-0.1-0.8c0-0.2,0-0.4,0-0.5c0-0.1,0.1-0.2,0.1-0.3
			c0-0.1,0.1-0.2,0.2-0.2c0.1,0,0.1-0.1,0.2-0.1h2V93c0-0.1,0-0.1,0.1-0.2c0-0.1,0.1-0.1,0.2-0.2c0.1,0,0.2-0.1,0.4-0.1
			c0.2,0,0.4,0,0.6,0c0.3,0,0.5,0,0.6,0c0.2,0,0.3,0.1,0.4,0.1s0.2,0.1,0.2,0.2c0,0.1,0.1,0.1,0.1,0.2v3.3h3.6c0.1,0,0.2,0,0.2,0.1
			c0.1,0,0.1,0.1,0.2,0.2c0,0.1,0.1,0.2,0.1,0.3c0,0.1,0,0.3,0,0.5c0,0.4,0,0.6-0.1,0.8c-0.1,0.2-0.2,0.2-0.4,0.2h-3.6v7.8
			c0,1,0.1,1.7,0.4,2.2c0.3,0.5,0.8,0.7,1.5,0.7c0.2,0,0.5,0,0.6-0.1s0.4-0.1,0.5-0.1c0.1-0.1,0.3-0.1,0.4-0.1
			c0.1,0,0.2-0.1,0.3-0.1c0.1,0,0.1,0,0.1,0c0,0,0.1,0.1,0.1,0.1c0,0.1,0,0.2,0.1,0.3C167.3,109.4,167.4,109.6,167.4,109.8z"/>
		<path d="M182.4,103.2c0,0.4-0.1,0.7-0.3,0.9c-0.2,0.2-0.4,0.3-0.7,0.3h-9.3c0,0.8,0.1,1.5,0.2,2.1s0.4,1.2,0.8,1.6
			c0.4,0.4,0.8,0.8,1.4,1c0.6,0.2,1.3,0.4,2.2,0.4c0.7,0,1.3-0.1,1.8-0.2s1-0.2,1.4-0.4c0.4-0.1,0.7-0.3,0.9-0.4s0.4-0.2,0.6-0.2
			c0.1,0,0.1,0,0.2,0.1c0.1,0,0.1,0.1,0.1,0.2c0,0.1,0.1,0.2,0.1,0.3c0,0.1,0,0.3,0,0.5c0,0.1,0,0.3,0,0.4c0,0.1,0,0.2,0,0.3
			s0,0.1-0.1,0.2c0,0.1-0.1,0.1-0.1,0.2c-0.1,0.1-0.2,0.2-0.5,0.3c-0.3,0.1-0.6,0.3-1.1,0.4c-0.4,0.1-1,0.2-1.6,0.3
			c-0.6,0.1-1.2,0.1-1.9,0.1c-1.2,0-2.2-0.2-3-0.5c-0.9-0.3-1.6-0.8-2.2-1.4c-0.6-0.6-1-1.4-1.3-2.4c-0.3-1-0.5-2.1-0.5-3.3
			c0-1.2,0.2-2.3,0.5-3.3c0.3-1,0.8-1.8,1.4-2.5c0.6-0.7,1.3-1.2,2.1-1.5c0.8-0.4,1.8-0.5,2.8-0.5c1.1,0,2,0.2,2.8,0.5
			c0.8,0.4,1.4,0.8,1.9,1.4c0.5,0.6,0.9,1.3,1.1,2.1c0.2,0.8,0.4,1.7,0.4,2.6V103.2z M179.8,102.4c0-1.4-0.3-2.4-0.9-3.2
			c-0.6-0.8-1.6-1.2-2.8-1.2c-0.6,0-1.2,0.1-1.7,0.4c-0.5,0.2-0.9,0.6-1.2,1c-0.3,0.4-0.6,0.9-0.8,1.4c-0.2,0.5-0.3,1.1-0.3,1.6
			H179.8z"/>
		<path d="M194.6,97.7c0,0.2,0,0.4,0,0.6c0,0.2,0,0.3-0.1,0.4c0,0.1-0.1,0.2-0.1,0.2s-0.1,0.1-0.2,0.1c-0.1,0-0.2,0-0.3-0.1
			c-0.1,0-0.3-0.1-0.4-0.1c-0.2,0-0.3-0.1-0.5-0.1c-0.2,0-0.4-0.1-0.6-0.1c-0.3,0-0.5,0.1-0.8,0.2c-0.2,0.1-0.5,0.3-0.8,0.5
			c-0.3,0.2-0.6,0.6-0.9,1c-0.3,0.4-0.6,0.9-1,1.5v9.2c0,0.1,0,0.2-0.1,0.2c0,0.1-0.1,0.1-0.2,0.1s-0.2,0.1-0.4,0.1
			c-0.2,0-0.4,0-0.6,0c-0.2,0-0.5,0-0.6,0c-0.2,0-0.3-0.1-0.4-0.1c-0.1,0-0.2-0.1-0.2-0.1c0-0.1-0.1-0.1-0.1-0.2V96.7
			c0-0.1,0-0.2,0-0.2c0-0.1,0.1-0.1,0.2-0.2s0.2-0.1,0.4-0.1c0.1,0,0.3,0,0.6,0c0.2,0,0.4,0,0.6,0c0.2,0,0.3,0,0.4,0.1
			c0.1,0,0.1,0.1,0.2,0.2c0,0.1,0.1,0.1,0.1,0.2v2c0.4-0.6,0.7-1,1.1-1.4c0.3-0.4,0.7-0.6,1-0.8c0.3-0.2,0.6-0.3,0.9-0.4
			s0.6-0.1,0.9-0.1c0.1,0,0.3,0,0.5,0s0.4,0,0.5,0.1c0.2,0,0.4,0.1,0.5,0.1c0.2,0.1,0.3,0.1,0.3,0.2c0.1,0.1,0.1,0.1,0.1,0.1
			c0,0,0,0.1,0.1,0.2c0,0.1,0,0.2,0,0.3C194.6,97.2,194.6,97.4,194.6,97.7z"/>
		<path d="M217.9,110.2c0.1,0.2,0.2,0.4,0.2,0.5c0,0.1,0,0.2-0.1,0.3s-0.2,0.1-0.5,0.2c-0.2,0-0.5,0-0.9,0c-0.3,0-0.6,0-0.8,0
			s-0.3,0-0.4-0.1s-0.2-0.1-0.2-0.1c-0.1-0.1-0.1-0.1-0.1-0.2l-4.5-8l-4.5,8c-0.1,0.1-0.1,0.2-0.2,0.2s-0.1,0.1-0.3,0.1
			s-0.3,0.1-0.4,0.1s-0.4,0-0.8,0c-0.3,0-0.6,0-0.8,0c-0.2,0-0.3-0.1-0.4-0.2s-0.1-0.2-0.1-0.3c0-0.1,0.1-0.3,0.2-0.5l5.5-9.3
			l-5.3-9c-0.1-0.2-0.2-0.4-0.2-0.6c0-0.1,0-0.2,0.1-0.3c0.1-0.1,0.2-0.1,0.4-0.1c0.2,0,0.5,0,0.9,0c0.3,0,0.6,0,0.8,0
			c0.2,0,0.4,0,0.5,0.1c0.1,0,0.2,0.1,0.2,0.2c0.1,0.1,0.1,0.1,0.2,0.2l4.3,7.6l4.3-7.6c0.1-0.1,0.1-0.2,0.2-0.2
			c0.1-0.1,0.1-0.1,0.2-0.2c0.1,0,0.2-0.1,0.4-0.1c0.2,0,0.4,0,0.7,0c0.3,0,0.6,0,0.8,0c0.2,0,0.3,0.1,0.4,0.1
			c0.1,0.1,0.1,0.2,0.1,0.3c0,0.1-0.1,0.3-0.2,0.6l-5.2,8.9L217.9,110.2z"/>
		<path d="M226.4,103.3c0,0.4,0,0.7-0.1,0.8s-0.2,0.2-0.4,0.2h-6.5c-0.2,0-0.3-0.1-0.4-0.2c-0.1-0.2-0.1-0.4-0.1-0.8
			c0-0.4,0-0.7,0.1-0.8s0.2-0.2,0.4-0.2h6.5c0.1,0,0.2,0,0.2,0c0.1,0,0.1,0.1,0.2,0.2c0,0.1,0.1,0.2,0.1,0.3
			C226.4,102.9,226.4,103.1,226.4,103.3z"/>
		<path d="M240.5,110.8c0,0.1,0,0.2-0.1,0.3c-0.1,0.1-0.2,0.1-0.3,0.1c-0.1,0-0.4,0-0.6,0c-0.3,0-0.5,0-0.6,0
			c-0.2,0-0.3-0.1-0.4-0.1c-0.1-0.1-0.1-0.2-0.1-0.3v-1.4c-0.6,0.7-1.3,1.2-2.1,1.5c-0.8,0.4-1.6,0.5-2.4,0.5c-0.7,0-1.4-0.1-2-0.3
			c-0.6-0.2-1.1-0.5-1.5-0.8c-0.4-0.4-0.8-0.8-1-1.3s-0.4-1.1-0.4-1.8c0-0.8,0.2-1.5,0.5-2.1c0.3-0.6,0.8-1.1,1.4-1.5
			c0.6-0.4,1.3-0.7,2.2-0.9c0.9-0.2,1.9-0.3,3-0.3h1.9v-1.1c0-0.5-0.1-1-0.2-1.4c-0.1-0.4-0.3-0.8-0.6-1c-0.3-0.3-0.6-0.5-1-0.6
			s-0.9-0.2-1.5-0.2c-0.6,0-1.2,0.1-1.7,0.2c-0.5,0.2-0.9,0.3-1.3,0.5c-0.4,0.2-0.7,0.3-1,0.5c-0.3,0.2-0.4,0.2-0.6,0.2
			c-0.1,0-0.2,0-0.2-0.1c-0.1,0-0.1-0.1-0.2-0.2c0-0.1-0.1-0.2-0.1-0.3c0-0.1,0-0.3,0-0.4c0-0.3,0-0.5,0.1-0.6
			c0-0.2,0.1-0.3,0.3-0.4c0.1-0.1,0.4-0.3,0.7-0.5c0.3-0.2,0.7-0.3,1.2-0.5c0.4-0.2,0.9-0.3,1.5-0.4c0.5-0.1,1.1-0.1,1.6-0.1
			c1,0,1.9,0.1,2.6,0.3c0.7,0.2,1.3,0.6,1.7,1c0.4,0.4,0.8,1,1,1.6c0.2,0.7,0.3,1.4,0.3,2.3V110.8z M237.9,104.4h-2.2
			c-0.7,0-1.3,0.1-1.8,0.2c-0.5,0.1-1,0.3-1.3,0.5s-0.6,0.5-0.8,0.8c-0.2,0.3-0.2,0.7-0.2,1.1c0,0.7,0.2,1.3,0.7,1.7
			c0.5,0.4,1.1,0.6,1.9,0.6c0.7,0,1.3-0.2,1.9-0.5s1.2-0.9,1.8-1.6V104.4z"/>
		<path d="M255.6,110.5c0.1,0.1,0.1,0.3,0.1,0.4c0,0.1,0,0.2-0.1,0.2c-0.1,0.1-0.2,0.1-0.5,0.1c-0.2,0-0.5,0-0.8,0
			c-0.3,0-0.6,0-0.7,0c-0.2,0-0.3,0-0.4-0.1s-0.2-0.1-0.2-0.1c-0.1-0.1-0.1-0.1-0.1-0.2l-3.4-5.6l-3.4,5.6c0,0.1-0.1,0.1-0.1,0.2
			c-0.1,0.1-0.1,0.1-0.2,0.1s-0.3,0.1-0.4,0.1c-0.2,0-0.4,0-0.7,0c-0.3,0-0.5,0-0.7,0c-0.2,0-0.3-0.1-0.4-0.1
			c-0.1-0.1-0.1-0.1-0.1-0.2c0-0.1,0.1-0.2,0.1-0.4l4.4-6.9l-4.1-6.6c-0.1-0.1-0.1-0.3-0.1-0.4c0-0.1,0-0.2,0.1-0.2
			c0.1-0.1,0.2-0.1,0.5-0.1c0.2,0,0.5,0,0.8,0c0.3,0,0.5,0,0.7,0c0.2,0,0.3,0,0.4,0.1c0.1,0,0.2,0.1,0.2,0.1
			c0.1,0.1,0.1,0.1,0.1,0.2l3.2,5.2l3.2-5.2c0-0.1,0.1-0.1,0.1-0.2c0.1-0.1,0.1-0.1,0.2-0.1c0.1,0,0.2-0.1,0.4-0.1
			c0.2,0,0.4,0,0.7,0c0.3,0,0.5,0,0.7,0c0.2,0,0.3,0.1,0.4,0.1c0.1,0.1,0.1,0.1,0.1,0.2c0,0.1-0.1,0.2-0.2,0.4l-4.1,6.5L255.6,110.5
			z"/>
		<path d="M261.6,92c0,0.6-0.1,1-0.3,1.2c-0.2,0.2-0.7,0.3-1.3,0.3c-0.6,0-1-0.1-1.2-0.3c-0.2-0.2-0.3-0.6-0.3-1.2
			c0-0.6,0.1-1,0.3-1.2c0.2-0.2,0.7-0.3,1.3-0.3c0.6,0,1,0.1,1.2,0.3C261.5,91,261.6,91.4,261.6,92z M261.3,110.8
			c0,0.1,0,0.2-0.1,0.2c0,0.1-0.1,0.1-0.2,0.1s-0.2,0.1-0.4,0.1c-0.2,0-0.4,0-0.6,0c-0.2,0-0.5,0-0.6,0c-0.2,0-0.3-0.1-0.4-0.1
			c-0.1,0-0.2-0.1-0.2-0.1c0-0.1-0.1-0.1-0.1-0.2V96.7c0-0.1,0-0.1,0.1-0.2c0-0.1,0.1-0.1,0.2-0.2c0.1,0,0.2-0.1,0.4-0.1
			c0.2,0,0.4,0,0.6,0c0.3,0,0.5,0,0.6,0c0.2,0,0.3,0.1,0.4,0.1c0.1,0,0.2,0.1,0.2,0.2c0,0.1,0.1,0.1,0.1,0.2V110.8z"/>
		<path d="M274.9,107c0,0.7-0.1,1.4-0.4,1.9s-0.6,1-1.1,1.4c-0.5,0.4-1.1,0.7-1.8,0.9c-0.7,0.2-1.4,0.3-2.2,0.3c-0.5,0-1,0-1.4-0.1
			s-0.9-0.2-1.2-0.3s-0.7-0.2-0.9-0.4c-0.2-0.1-0.4-0.2-0.5-0.4c-0.1-0.1-0.2-0.2-0.2-0.4c-0.1-0.2-0.1-0.4-0.1-0.8
			c0-0.2,0-0.4,0-0.5c0-0.1,0-0.2,0.1-0.3c0-0.1,0.1-0.1,0.1-0.2c0.1,0,0.1-0.1,0.2-0.1c0.1,0,0.3,0.1,0.5,0.2
			c0.2,0.1,0.5,0.3,0.8,0.5c0.3,0.2,0.7,0.3,1.2,0.5c0.4,0.1,1,0.2,1.5,0.2c0.4,0,0.8,0,1.2-0.1c0.4-0.1,0.7-0.2,0.9-0.4
			c0.3-0.2,0.5-0.4,0.6-0.7s0.2-0.6,0.2-1c0-0.4-0.1-0.7-0.3-1c-0.2-0.3-0.5-0.5-0.8-0.7c-0.3-0.2-0.7-0.4-1.1-0.6
			c-0.4-0.2-0.8-0.3-1.3-0.5c-0.4-0.2-0.9-0.4-1.3-0.6c-0.4-0.2-0.8-0.5-1.1-0.8c-0.3-0.3-0.6-0.7-0.8-1.2c-0.2-0.4-0.3-1-0.3-1.6
			c0-0.6,0.1-1.1,0.3-1.6c0.2-0.5,0.5-0.9,1-1.3c0.4-0.4,1-0.7,1.6-0.9c0.6-0.2,1.4-0.3,2.2-0.3c0.4,0,0.8,0,1.1,0.1s0.7,0.1,1,0.2
			c0.3,0.1,0.6,0.2,0.8,0.3c0.2,0.1,0.4,0.2,0.5,0.3c0.1,0.1,0.2,0.2,0.2,0.2c0,0.1,0.1,0.1,0.1,0.2s0,0.2,0,0.3c0,0.1,0,0.3,0,0.4
			c0,0.2,0,0.3,0,0.5c0,0.1,0,0.2-0.1,0.3c0,0.1-0.1,0.1-0.1,0.2c-0.1,0-0.1,0.1-0.2,0.1c-0.1,0-0.2-0.1-0.4-0.2
			c-0.2-0.1-0.4-0.2-0.7-0.4c-0.3-0.1-0.6-0.3-1-0.4c-0.4-0.1-0.8-0.2-1.3-0.2c-0.4,0-0.8,0-1.2,0.1c-0.3,0.1-0.6,0.2-0.8,0.4
			c-0.2,0.2-0.4,0.4-0.5,0.6s-0.2,0.5-0.2,0.8c0,0.4,0.1,0.7,0.3,1c0.2,0.3,0.5,0.5,0.8,0.7c0.3,0.2,0.7,0.4,1.1,0.6
			c0.4,0.2,0.9,0.3,1.3,0.5c0.4,0.2,0.9,0.4,1.3,0.6c0.4,0.2,0.8,0.5,1.1,0.8c0.3,0.3,0.6,0.7,0.8,1.1S274.9,106.4,274.9,107z"/>
	</g>
</g>
</svg>
