<?xml version="1.0" encoding="utf-8"?>
<!-- Generator: Adobe Illustrator 27.8.0, SVG Export Plug-In . SVG Version: 6.00 Build 0)  -->
<svg version="1.1"
	 id="svg8" xmlns:svg="http://www.w3.org/2000/svg" xmlns:rdf="http://www.w3.org/1999/02/22-rdf-syntax-ns#" xmlns:sodipodi="http://sodipodi.sourceforge.net/DTD/sodipodi-0.dtd" xmlns:dc="http://purl.org/dc/elements/1.1/" xmlns:inkscape="http://www.inkscape.org/namespaces/inkscape" xmlns:cc="http://creativecommons.org/ns#" inkscape:export-xdpi="93" inkscape:export-ydpi="93" inkscape:version="0.92.4 (5da689c313, 2019-01-14)"
	 xmlns="http://www.w3.org/2000/svg" xmlns:xlink="http://www.w3.org/1999/xlink" x="0px" y="0px" viewBox="0 0 491 1081"
	 style="enable-background:new 0 0 491 1081;" xml:space="preserve">
<style type="text/css">
	.st0{fill:#FFFFFF;}
	.st1{opacity:0.99;fill:#CCCCCC;enable-background:new    ;}
	.st2{opacity:0.99;fill:#FFFFFF;enable-background:new    ;}
	.st3{fill:#1A1A1A;}
	.st4{opacity:0.99;fill:#808080;enable-background:new    ;}
	.st5{enable-background:new    ;}
	.st6{opacity:0.99;enable-background:new    ;}
	.st7{opacity:0.99;fill:#F2F2F2;enable-background:new    ;}
	.st8{opacity:0.99;fill:#B3B3B3;enable-background:new    ;}
</style>
<defs>
	
		<inkscape:perspective  id="perspective876" inkscape:persp3d-origin="105 : 98.999993 : 1" inkscape:vp_x="0 : 148.5 : 1" inkscape:vp_y="0 : 999.9999 : 0" inkscape:vp_z="210.00001 : 148.5 : 1" sodipodi:type="inkscape:persp3d">
		</inkscape:perspective>
</defs>
<sodipodi:namedview  bordercolor="#666666" borderopacity="1.0" id="base" inkscape:current-layer="layer1" inkscape:cx="-154.77517" inkscape:cy="2278.8026" inkscape:document-units="mm" inkscape:lockguides="true" inkscape:pageopacity="0" inkscape:pageshadow="2" inkscape:window-height="1017" inkscape:window-maximized="1" inkscape:window-width="1920" inkscape:window-x="-8" inkscape:window-y="-8" inkscape:zoom="0.12374369" pagecolor="#323232" showgrid="false" showguides="true" width="500mm">
	</sodipodi:namedview>
<g id="layer1" transform="translate(0.31582593,692.8111)" inkscape:groupmode="layer" inkscape:label="Ebene 1">
	<rect id="rect815" x="-0.3" y="-464.4" width="491.5" height="654.7"/>
	<g id="flowRoot969" transform="translate(0,-88.029764)">
	</g>
	<g id="flowRoot1466" transform="translate(0,-88.029764)">
	</g>
	<g id="flowRoot1529" transform="translate(0,-88.029764)">
	</g>
	<path id="path31-1" inkscape:connector-curvature="0" class="st0" d="M139.4-415.5c3-0.1,3.4-0.1,3.9-0.4c0.3-0.2,0.8-0.6,1-1
		c0.3-0.5,0.4-0.9,0.4-7.2l0.1-6.6l6.5,0l6.5,0v8.2c0,9-0.1,9.9-1,12.3c-1.2,3.1-3,4.6-6.8,5.4c-1,0.2-2.1,0.3-5.9,0.3
		c-2.6,0-5.4-0.1-6.3-0.2l-1.6-0.1l0-5.4l0-5.4L139.4-415.5L139.4-415.5z M201.2-397.1c55.4,0,69,0.1,66.7,0.3l-0.4,0l0.4,0.2
		c0.3,0.1,0.3,0.2-0.3,0.2c-0.4,0-0.2,0.1,0.5,0.2l1.1,0.1l-1.1,0.1c-0.6,0-1,0.1-0.8,0.1c0.3,0.1,0.3,0.3,0.3,1.5
		c0,1.5,0,1.5,0.5,1.5c0.3,0.1,0.3,0.1-0.3,0.1c-0.4,0-0.8,0.1-0.8,0.2c0,0.1-22,0.2-65.5,0.2h-65.5v-2.4v-2.4L201.2-397.1z
		 M151.3-447.6h6.5v5.3v5.3h-6.5h-6.5v-5.3v-5.3H151.3z M164.5-427.9c0.5-3,1.3-5.7,2.5-8c0.4-0.9,0.8-1.6,0.9-1.7
		c0.1,0,0.4-0.5,0.7-1c0.7-1.1,2.2-3,2.6-3.2c0.1-0.1,0.2-0.2,0.2-0.3c0-0.2,1.6-1.7,2.9-2.6c1.3-1,2.4-1.5,4.9-2.4
		c2.8-1.1,4.5-1.3,7.9-1.2c2.5,0.1,3.1,0.2,4.6,0.6c1,0.3,2.2,0.7,2.6,0.9c0.5,0.2,0.9,0.4,1,0.4c0.1,0,0.8,0.4,1.6,0.8
		c3.1,1.8,7.4,6.7,9.1,10.3c2.6,5.7,2.9,11.3,0.9,16.6c-0.8,2.2-1.4,3.5-2.4,5c-1.1,1.8-1.2,1.9-3.9,4.6c-3.1,3-5.3,4.3-9.3,5.4
		c-2,0.6-6.1,0.8-8.2,0.4c-2.8-0.4-6.6-2-8.9-3.8c-1.2-0.9-2.8-2.3-2.8-2.5c0,0-0.4-0.5-0.9-1c-2.4-2.4-4.8-7.1-5.7-11
		C164.6-423,164.3-426.8,164.5-427.9L164.5-427.9z M177-422.4c0.6,2.5,1.9,4.6,3.8,6.4c2,1.9,5.1,2.6,7.8,1.7c3-0.9,5.9-4.4,6.9-8.1
		c0.6-2.1,0.5-5.3-0.1-7.3c-0.9-2.9-2.4-5.2-4.6-6.8c-1-0.7-1.4-0.9-2.5-1.1c-2.2-0.4-4.5-0.2-6.1,0.6c-1.4,0.7-3.2,2.7-4.2,4.7
		C176.6-429.2,176.2-425.7,177-422.4L177-422.4z M213.8-447.5c0.1,0,3.1-0.1,6.6,0l6.3,0l0,5.9c0,5.5,0,5.9,0.4,6.9
		c0.9,2.5,3.9,3.8,6.6,3c1.4-0.4,2.3-1.2,2.9-2.5l0.6-1.1l0.1-6.1l0.1-6.1h6.6h6.6l-0.1,6.9c-0.1,6.4-0.1,7-0.5,8.3
		c-0.7,2.6-1.9,5-3.4,6.8c-0.4,0.4-0.7,0.9-0.7,1c0,0.2-1.7,1.7-3.1,2.8c-1.2,0.9-3,1.9-3.9,2c-0.3,0.1-1.2,0.3-2,0.6
		c-1.4,0.4-1.7,0.5-4.7,0.5c-3,0-3.3,0-5-0.5c-2.6-0.7-3.5-1.1-5.2-2.2c-2-1.3-3.6-2.9-5-5c-1.9-2.9-2.8-5-3.2-8.3
		C213.5-437,213.5-447.4,213.8-447.5L213.8-447.5z M232.1-415.3h10.7v5.5v5.5h-10.7h-10.7v-5.5v-5.5H232.1z M250.4-456
		c0.1,0,0.2-0.3,0.2-0.7c0-0.7,0-0.7,0.8-0.8c0.5-0.1,18.6-0.1,40.3-0.1l39.5,0l-0.1,2.4l-0.1,2.4h-40.1c-22.1,0-40.3,0-40.4-0.1
		c-0.2-0.1-0.3-0.4-0.3-1.6C250.2-455.4,250.3-456,250.4-456L250.4-456z M268.4-429.6H282v5.4v5.4h-13.6h-13.6v-5.4v-5.4H268.4z
		 M292.8-447.6h6.5v5.3v5.3h-6.5h-6.5v-5.3v-5.3H292.8z M292.8-431.3h6.5v13.8v13.8h-6.5h-6.5v-13.8v-13.8H292.8z M318.9-447.6h13.7
		v5.3v5.3h-13.7h-13.7v-5.3v-5.3H318.9z M307.5-430.5c0.1-0.1,3-0.1,6.4-0.1l6.3,0l0.1,6.3c0.1,8.9-0.3,8.4,6.4,8.5l4.2,0.1v5.5v5.5
		l-1.6,0.2c-2.4,0.3-9.8,0.3-11.9-0.1c-3.5-0.6-5.7-1.6-7.3-3.4c-1.6-1.9-2.3-3.8-2.7-6.9C307.3-416.8,307.3-430.4,307.5-430.5
		L307.5-430.5z M340.3-452.8c0.3-1.2,1-2.3,1.7-2.9c3-2.6,6.5-2.9,9.5-0.7c1.4,1,1.7,1.4,2.3,2.6c0.4,0.9,0.5,1.2,0.5,2.9
		c0,1.6-0.1,1.9-0.5,2.9c-1,2.1-3.5,3.8-6,4c-2.3,0.2-4-0.5-5.8-2.3C340.4-447.8,339.7-450.5,340.3-452.8L340.3-452.8z M341.6-448.3
		c0.6,1.4,2.4,2.8,4.4,3.3c1.9,0.5,3.4,0.1,5.5-1.5c0.5-0.4,0.9-0.9,1.3-1.7c0.5-1.1,0.6-1.4,0.6-2.7c0-1.4,0-1.6-0.6-2.7
		c-0.5-1-0.8-1.3-1.7-1.9c-0.6-0.4-1.5-0.9-1.9-1c-3-1-6.6,0.6-7.8,3.5C340.9-452,341-449.6,341.6-448.3L341.6-448.3z M346.5-455.1
		c1.3,0,2.6,0.1,2.9,0.2c1.1,0.4,1.6,2.4,0.8,3.4c-0.2,0.2-0.6,0.5-1,0.7l-0.6,0.2l0.6,0.7c0.3,0.4,0.9,1.1,1.2,1.6s0.6,1,0.7,1.1
		c0.4,0.2,0.1,0.4-0.6,0.4l-0.8,0l-1.1-1.7c-1.1-1.8-1.4-2-2.7-2h-0.8v1.8v1.8l-0.5-0.1l-0.5-0.1l0-4.1l0-4.1L346.5-455.1z
		 M346.8-451.6c1.3,0,1.6-0.1,2-0.4c1-0.8,0.4-2-1-2.2c-0.6-0.1-2.3,0-2.6,0.1c0,0,0,0.6,0,1.2v1.2L346.8-451.6z"/>
	<circle id="path84" class="st1" cx="70.6" cy="-376" r="49.1"/>
	<circle id="circle86" class="st1" cx="419.8" cy="-376" r="49.1"/>
	<circle id="path88" class="st2" cx="70.6" cy="-376" r="43.6"/>
	<circle id="circle90" class="st2" cx="419.8" cy="-376" r="43.6"/>
	
		<rect id="rect821" x="73.7" y="80.6" transform="matrix(1 -7.737230e-03 7.737230e-03 1 -0.9537 1.9033)" class="st0" width="343.6" height="87.1"/>
	<path id="rect825" class="st3" d="M91.3,86.8l51.3-0.4c8.9-0.1,16.3,7.1,16.3,16.1l0.4,45c0.1,8.9-7.1,16.3-16.1,16.3l-51.3,0.4
		c-8.9,0.1-16.3-7.1-16.3-16.1l-0.4-45C75.2,94.2,82.4,86.9,91.3,86.8z"/>
	<path id="rect872" class="st3" d="M262.1,85.5l51.3-0.4c8.9-0.1,16.3,7.1,16.3,16.1l0.4,45c0.1,8.9-7.1,16.3-16.1,16.3l-51.3,0.4
		c-8.9,0.1-16.3-7.1-16.3-16.1l-0.4-45C246,92.8,253.2,85.5,262.1,85.5z"/>
	<path id="rect874" class="st3" d="M174.6,86.2l55.4-0.4c7.8-0.1,14.2,6.2,14.2,14l0.4,49.1c0.1,7.8-6.2,14.2-14,14.2l-55.4,0.4
		c-7.8,0.1-14.2-6.2-14.2-14l-0.4-49.1C160.6,92.6,166.9,86.2,174.6,86.2z"/>
	
		<rect id="rect947" x="113.2" y="128.7" transform="matrix(1 -7.939040e-03 7.939040e-03 1 -1.6678 0.9395)" class="st4" width="8.6" height="163.7"/>
	
		<rect id="rect949" x="199.1" y="128" transform="matrix(1 -7.939040e-03 7.939040e-03 1 -1.6598 1.6216)" class="st4" width="8.6" height="163.7"/>
	
		<rect id="rect951" x="284" y="127.4" transform="matrix(1 -7.939040e-03 7.939040e-03 1 -1.6518 2.2957)" class="st4" width="8.6" height="163.7"/>
	<path id="rect64" class="st3" d="M347,84.8l51.3-0.4c8.9-0.1,16.3,7.1,16.3,16.1l0.4,45c0.1,8.9-7.1,16.3-16.1,16.3l-51.3,0.4
		c-8.9,0.1-16.3-7.1-16.3-16.1l-0.4-45C330.9,92.2,338.1,84.9,347,84.8z"/>
	
		<rect id="rect66" x="368.9" y="126.7" transform="matrix(1 -7.939040e-03 7.939040e-03 1 -1.6442 2.9695)" class="st4" width="8.6" height="163.7"/>
	<circle id="path128" class="st1" cx="163.4" cy="-177.4" r="43.6"/>
	<circle id="circle134" class="st1" cx="207" cy="-68.3" r="43.6"/>
	<circle id="circle136" class="st1" cx="316.1" cy="-177.4" r="43.6"/>
	<circle id="circle138" class="st1" cx="359.8" cy="-68.3" r="43.6"/>
	<polygon id="rect140" inkscape:transform-center-x="27.456016" inkscape:transform-center-y="-59.341445" class="st4" points="
		98.8,-307 107.5,-307 167.6,-177.4 159,-177.5 	">
	</polygon>
	<polygon id="rect142" class="st4" points="203.1,-274.5 211.7,-274.5 211.3,-68.3 202.6,-68.4 	"/>
	<polygon id="rect144" class="st4" points="310.7,-274.9 319.3,-274.9 318.8,-177.4 310.2,-177.5 	"/>
	<g class="st5">
		<path d="M351,356.2c0,0.4,0,0.7-0.1,0.9s-0.1,0.5-0.2,0.7c-0.1,0.2-0.2,0.3-0.3,0.4c-0.1,0.1-0.2,0.1-0.4,0.1
			c-0.2,0-0.6-0.2-1.1-0.5c-0.5-0.4-1.2-0.7-2.1-1.2c-0.9-0.4-1.9-0.8-3.1-1.2c-1.2-0.4-2.7-0.5-4.3-0.5c-2,0-3.8,0.4-5.3,1.1
			c-1.6,0.7-2.9,1.7-4,3c-1.1,1.3-1.9,2.8-2.5,4.6s-0.9,3.7-0.9,5.7c0,2.3,0.3,4.3,1,6.1c0.6,1.8,1.5,3.3,2.7,4.5
			c1.1,1.2,2.5,2.1,4,2.8c1.6,0.6,3.3,0.9,5.2,0.9c1.1,0,2.2-0.1,3.4-0.4s2.2-0.7,3.2-1.2v-10.5h-8.3c-0.3,0-0.6-0.2-0.7-0.5
			c-0.2-0.3-0.2-0.8-0.2-1.5c0-0.4,0-0.7,0.1-0.9c0-0.2,0.1-0.5,0.2-0.6c0.1-0.2,0.2-0.3,0.3-0.3c0.1-0.1,0.3-0.1,0.4-0.1h11.4
			c0.2,0,0.4,0,0.6,0.1c0.2,0.1,0.4,0.2,0.6,0.3c0.2,0.1,0.3,0.4,0.4,0.6c0.1,0.3,0.1,0.6,0.1,0.9v13.7c0,0.5-0.1,0.9-0.2,1.3
			c-0.2,0.4-0.5,0.7-1.1,0.9c-0.5,0.3-1.2,0.6-2.1,0.9c-0.9,0.3-1.7,0.6-2.6,0.8c-0.9,0.2-1.8,0.4-2.8,0.5c-0.9,0.1-1.8,0.2-2.8,0.2
			c-2.8,0-5.3-0.4-7.5-1.3c-2.2-0.9-4-2.1-5.5-3.7c-1.5-1.6-2.7-3.5-3.5-5.7s-1.2-4.7-1.2-7.5c0-2.9,0.4-5.4,1.3-7.8
			c0.9-2.3,2.1-4.3,3.6-5.9c1.6-1.6,3.4-2.9,5.6-3.8c2.2-0.9,4.6-1.3,7.3-1.3c1.4,0,2.7,0.1,3.9,0.4c1.2,0.2,2.3,0.5,3.2,0.8
			c0.9,0.3,1.7,0.7,2.4,1.1s1.1,0.7,1.3,0.9c0.2,0.2,0.4,0.5,0.5,0.8C351,355.2,351,355.6,351,356.2z"/>
		<path d="M387.1,385.3c0,0.4-0.1,0.7-0.2,0.9s-0.3,0.5-0.5,0.6c-0.2,0.2-0.4,0.3-0.7,0.4c-0.2,0.1-0.5,0.1-0.7,0.1h-1.6
			c-0.5,0-0.9-0.1-1.3-0.2s-0.7-0.3-1.1-0.6c-0.3-0.3-0.7-0.6-1-1.1c-0.3-0.5-0.7-1.1-1.1-1.8l-11-20.5c-0.6-1.1-1.2-2.2-1.7-3.3
			s-1.1-2.3-1.6-3.4h-0.1c0,1.3,0.1,2.7,0.1,4.1c0,1.4,0,2.8,0,4.1v21.7c0,0.1,0,0.3-0.1,0.4c-0.1,0.1-0.2,0.2-0.4,0.3
			c-0.2,0.1-0.4,0.1-0.7,0.2c-0.3,0-0.7,0.1-1.2,0.1c-0.5,0-0.9,0-1.2-0.1c-0.3,0-0.5-0.1-0.7-0.2c-0.2-0.1-0.3-0.2-0.4-0.3
			c-0.1-0.1-0.1-0.2-0.1-0.4v-33.2c0-0.7,0.2-1.3,0.6-1.6c0.4-0.3,0.9-0.5,1.4-0.5h2.4c0.6,0,1,0,1.4,0.1s0.7,0.2,1,0.5
			c0.3,0.2,0.6,0.5,0.9,0.9c0.3,0.4,0.6,0.9,0.9,1.4l8.4,15.8c0.5,1,1,1.9,1.5,2.8s0.9,1.8,1.4,2.7c0.4,0.9,0.9,1.8,1.3,2.6
			c0.4,0.9,0.9,1.7,1.3,2.6h0c0-1.5-0.1-3-0.1-4.6c0-1.6,0-3.1,0-4.6v-19.5c0-0.1,0-0.2,0.1-0.4s0.2-0.2,0.4-0.3
			c0.2-0.1,0.4-0.1,0.7-0.2c0.3,0,0.7-0.1,1.2-0.1c0.4,0,0.8,0,1.1,0.1s0.6,0.1,0.7,0.2c0.2,0.1,0.3,0.2,0.4,0.3s0.1,0.2,0.1,0.4
			V385.3z"/>
		<path d="M424.3,368.8c0,3.1-0.4,5.8-1.2,8.2c-0.8,2.3-2,4.3-3.5,5.8c-1.5,1.5-3.4,2.7-5.6,3.4s-4.9,1.1-7.9,1.1h-7.6
			c-0.4,0-0.8-0.1-1.2-0.4s-0.6-0.8-0.6-1.5v-32.1c0-0.7,0.2-1.2,0.6-1.5s0.8-0.4,1.2-0.4h8.1c3.1,0,5.7,0.4,7.9,1.2
			c2.1,0.8,4,2,5.4,3.5s2.6,3.3,3.3,5.5C424,363.6,424.3,366.1,424.3,368.8z M419.3,369c0-1.9-0.2-3.8-0.7-5.4
			c-0.5-1.7-1.2-3.1-2.3-4.4c-1-1.2-2.3-2.2-3.9-2.9s-3.6-1-6.1-1h-4.9v28h4.9c2.3,0,4.2-0.3,5.8-0.9c1.6-0.6,2.9-1.5,3.9-2.6
			c1.1-1.2,1.8-2.7,2.4-4.5C419,373.5,419.3,371.4,419.3,369z"/>
	</g>
	<g class="st5">
		<path d="M178.5,356.2c0,0.4,0,0.7-0.1,0.9s-0.1,0.5-0.2,0.7c-0.1,0.2-0.2,0.3-0.3,0.4c-0.1,0.1-0.2,0.1-0.4,0.1
			c-0.2,0-0.6-0.2-1.1-0.5c-0.5-0.4-1.2-0.7-2.1-1.2c-0.9-0.4-1.9-0.8-3.1-1.2c-1.2-0.4-2.7-0.5-4.3-0.5c-2,0-3.8,0.4-5.3,1.1
			c-1.6,0.7-2.9,1.7-4,3c-1.1,1.3-1.9,2.8-2.5,4.6s-0.9,3.7-0.9,5.7c0,2.3,0.3,4.3,1,6.1c0.6,1.8,1.5,3.3,2.7,4.5
			c1.1,1.2,2.5,2.1,4,2.8c1.6,0.6,3.3,0.9,5.2,0.9c1.1,0,2.2-0.1,3.4-0.4s2.2-0.7,3.2-1.2v-10.5h-8.3c-0.3,0-0.6-0.2-0.7-0.5
			c-0.2-0.3-0.2-0.8-0.2-1.5c0-0.4,0-0.7,0.1-0.9c0-0.2,0.1-0.5,0.2-0.6c0.1-0.2,0.2-0.3,0.3-0.3c0.1-0.1,0.3-0.1,0.4-0.1h11.4
			c0.2,0,0.4,0,0.6,0.1c0.2,0.1,0.4,0.2,0.6,0.3c0.2,0.1,0.3,0.4,0.4,0.6c0.1,0.3,0.1,0.6,0.1,0.9v13.7c0,0.5-0.1,0.9-0.2,1.3
			c-0.2,0.4-0.5,0.7-1.1,0.9c-0.5,0.3-1.2,0.6-2.1,0.9c-0.9,0.3-1.7,0.6-2.6,0.8c-0.9,0.2-1.8,0.4-2.8,0.5c-0.9,0.1-1.8,0.2-2.8,0.2
			c-2.8,0-5.3-0.4-7.5-1.3c-2.2-0.9-4-2.1-5.5-3.7c-1.5-1.6-2.7-3.5-3.5-5.7s-1.2-4.7-1.2-7.5c0-2.9,0.4-5.4,1.3-7.8
			c0.9-2.3,2.1-4.3,3.6-5.9c1.6-1.6,3.4-2.9,5.6-3.8c2.2-0.9,4.6-1.3,7.3-1.3c1.4,0,2.7,0.1,3.9,0.4c1.2,0.2,2.3,0.5,3.2,0.8
			c0.9,0.3,1.7,0.7,2.4,1.1s1.1,0.7,1.3,0.9c0.2,0.2,0.4,0.5,0.5,0.8C178.4,355.1,178.5,355.6,178.5,356.2z"/>
		<path d="M201.5,363.2c0,0.4,0,0.8,0,1c0,0.3-0.1,0.5-0.1,0.7c-0.1,0.2-0.1,0.3-0.2,0.4c-0.1,0.1-0.2,0.1-0.3,0.1s-0.3,0-0.5-0.1
			c-0.2-0.1-0.5-0.2-0.7-0.2c-0.3-0.1-0.6-0.2-0.9-0.2c-0.3-0.1-0.7-0.1-1.1-0.1c-0.5,0-0.9,0.1-1.4,0.3c-0.4,0.2-0.9,0.5-1.4,0.9
			c-0.5,0.4-1,1-1.5,1.7s-1.1,1.6-1.8,2.6v16.5c0,0.1,0,0.3-0.1,0.4c-0.1,0.1-0.2,0.2-0.4,0.3c-0.2,0.1-0.4,0.1-0.7,0.2
			c-0.3,0-0.7,0.1-1.1,0.1c-0.4,0-0.8,0-1.1-0.1c-0.3,0-0.5-0.1-0.7-0.2c-0.2-0.1-0.3-0.2-0.4-0.3c-0.1-0.1-0.1-0.2-0.1-0.4v-25
			c0-0.1,0-0.3,0.1-0.4s0.2-0.2,0.3-0.3s0.4-0.1,0.6-0.2c0.3,0,0.6,0,1,0c0.4,0,0.7,0,1,0c0.3,0,0.5,0.1,0.6,0.2s0.3,0.2,0.3,0.3
			c0.1,0.1,0.1,0.2,0.1,0.4v3.6c0.7-1,1.3-1.8,1.9-2.4s1.2-1.1,1.7-1.5c0.5-0.4,1.1-0.6,1.6-0.8c0.5-0.1,1.1-0.2,1.6-0.2
			c0.2,0,0.5,0,0.8,0c0.3,0,0.6,0.1,1,0.2c0.3,0.1,0.6,0.2,0.9,0.2c0.3,0.1,0.5,0.2,0.6,0.3c0.1,0.1,0.2,0.2,0.2,0.3
			c0,0.1,0.1,0.2,0.1,0.3c0,0.1,0,0.3,0.1,0.6C201.4,362.4,201.5,362.8,201.5,363.2z"/>
		<path d="M228.1,386.6c0,0.1,0,0.3-0.1,0.4c-0.1,0.1-0.2,0.2-0.3,0.3s-0.4,0.1-0.7,0.2s-0.6,0.1-1,0.1c-0.4,0-0.8,0-1-0.1
			s-0.5-0.1-0.6-0.2c-0.2-0.1-0.3-0.2-0.3-0.3c-0.1-0.1-0.1-0.2-0.1-0.4v-3.3c-1.4,1.6-2.8,2.7-4.2,3.4c-1.4,0.7-2.8,1.1-4.2,1.1
			c-1.7,0-3.1-0.3-4.2-0.8s-2.1-1.3-2.8-2.3c-0.7-1-1.2-2.1-1.5-3.3c-0.3-1.3-0.5-2.8-0.5-4.6v-15.2c0-0.1,0-0.3,0.1-0.4
			c0.1-0.1,0.2-0.2,0.4-0.3c0.2-0.1,0.4-0.1,0.7-0.2c0.3,0,0.7,0,1.1,0c0.4,0,0.8,0,1.1,0c0.3,0,0.5,0.1,0.7,0.2
			c0.2,0.1,0.3,0.2,0.4,0.3c0.1,0.1,0.1,0.2,0.1,0.4v14.6c0,1.5,0.1,2.6,0.3,3.5s0.5,1.6,1,2.3c0.4,0.6,1,1.1,1.7,1.4
			c0.7,0.3,1.4,0.5,2.3,0.5c1.1,0,2.3-0.4,3.4-1.2s2.3-2,3.6-3.6v-17.5c0-0.1,0-0.3,0.1-0.4c0.1-0.1,0.2-0.2,0.4-0.3
			c0.2-0.1,0.4-0.1,0.7-0.2c0.3,0,0.7,0,1.1,0c0.4,0,0.8,0,1.1,0c0.3,0,0.5,0.1,0.7,0.2c0.2,0.1,0.3,0.2,0.4,0.3
			c0.1,0.1,0.1,0.2,0.1,0.4V386.6z M215.1,353.4c0,1-0.2,1.7-0.6,2.1c-0.4,0.4-1.1,0.6-2.1,0.6c-1,0-1.7-0.2-2-0.5
			c-0.4-0.4-0.5-1-0.5-2c0-1,0.2-1.7,0.5-2.1c0.4-0.4,1-0.6,2-0.6c1,0,1.7,0.2,2.1,0.6C214.9,351.8,215.1,352.5,215.1,353.4z
			 M224.9,353.4c0,1-0.2,1.7-0.6,2.1c-0.4,0.4-1.1,0.6-2.1,0.6c-1,0-1.7-0.2-2-0.5c-0.4-0.4-0.5-1-0.5-2c0-1,0.2-1.7,0.5-2.1
			c0.4-0.4,1-0.6,2-0.6c1,0,1.7,0.2,2.1,0.6C224.7,351.8,224.9,352.5,224.9,353.4z"/>
		<path d="M258.1,386.6c0,0.1,0,0.3-0.1,0.4c-0.1,0.1-0.2,0.2-0.4,0.3c-0.2,0.1-0.4,0.1-0.7,0.2c-0.3,0-0.7,0.1-1.1,0.1
			c-0.5,0-0.8,0-1.1-0.1c-0.3,0-0.5-0.1-0.7-0.2s-0.3-0.2-0.4-0.3c-0.1-0.1-0.1-0.2-0.1-0.4v-14.6c0-1.4-0.1-2.6-0.3-3.4
			c-0.2-0.9-0.5-1.6-1-2.3c-0.4-0.6-1-1.1-1.7-1.4c-0.7-0.3-1.5-0.5-2.3-0.5c-1.1,0-2.3,0.4-3.4,1.2c-1.1,0.8-2.4,2-3.6,3.6v17.5
			c0,0.1,0,0.3-0.1,0.4c-0.1,0.1-0.2,0.2-0.4,0.3c-0.2,0.1-0.4,0.1-0.7,0.2c-0.3,0-0.7,0.1-1.1,0.1c-0.4,0-0.8,0-1.1-0.1
			c-0.3,0-0.5-0.1-0.7-0.2c-0.2-0.1-0.3-0.2-0.4-0.3c-0.1-0.1-0.1-0.2-0.1-0.4v-25c0-0.1,0-0.3,0.1-0.4s0.2-0.2,0.3-0.3
			s0.4-0.1,0.6-0.2c0.3,0,0.6,0,1,0c0.4,0,0.7,0,1,0c0.3,0,0.5,0.1,0.6,0.2s0.3,0.2,0.3,0.3c0.1,0.1,0.1,0.2,0.1,0.4v3.3
			c1.4-1.6,2.8-2.7,4.2-3.5c1.4-0.7,2.8-1.1,4.2-1.1c1.7,0,3.1,0.3,4.2,0.8c1.1,0.6,2.1,1.3,2.8,2.3c0.7,0.9,1.2,2.1,1.5,3.3
			c0.3,1.3,0.5,2.8,0.5,4.6V386.6z"/>
	</g>
	<g class="st5">
		<path d="M101.6,333.1c0,0.1,0,0.3-0.1,0.4c-0.1,0.1-0.2,0.2-0.4,0.3c-0.2,0.1-0.4,0.1-0.8,0.2c-0.3,0-0.8,0.1-1.3,0.1
			c-0.5,0-0.9,0-1.2-0.1s-0.6-0.1-0.7-0.2c-0.2-0.1-0.3-0.2-0.4-0.3s-0.2-0.3-0.3-0.6l-3.3-8.5c-0.4-1-0.8-1.8-1.2-2.7
			c-0.4-0.8-0.9-1.5-1.5-2.1c-0.6-0.6-1.3-1-2-1.4c-0.8-0.3-1.7-0.5-2.8-0.5h-3.2v15.3c0,0.1,0,0.3-0.1,0.4
			c-0.1,0.1-0.2,0.2-0.4,0.3c-0.2,0.1-0.4,0.1-0.7,0.2c-0.3,0-0.7,0.1-1.2,0.1c-0.5,0-0.8,0-1.2-0.1c-0.3,0-0.6-0.1-0.7-0.2
			c-0.2-0.1-0.3-0.2-0.4-0.3c-0.1-0.1-0.1-0.2-0.1-0.4v-33.3c0-0.7,0.2-1.2,0.6-1.5s0.8-0.4,1.2-0.4h7.6c0.9,0,1.7,0,2.3,0.1
			c0.6,0,1.1,0.1,1.6,0.2c1.4,0.2,2.6,0.6,3.7,1.1c1.1,0.5,2,1.2,2.7,2c0.7,0.8,1.3,1.7,1.6,2.7s0.5,2.2,0.5,3.4
			c0,1.2-0.2,2.3-0.5,3.2s-0.8,1.8-1.4,2.5c-0.6,0.7-1.3,1.4-2.2,1.9c-0.9,0.5-1.8,1-2.9,1.4c0.6,0.3,1.1,0.6,1.6,1
			c0.5,0.4,0.9,0.9,1.3,1.4s0.8,1.2,1.2,1.9c0.4,0.7,0.7,1.5,1.1,2.4l3.2,7.9c0.3,0.7,0.4,1.1,0.5,1.4
			C101.6,332.7,101.6,332.9,101.6,333.1z M94.4,307.8c0-1.4-0.3-2.6-0.9-3.6c-0.6-1-1.7-1.7-3.2-2.1c-0.5-0.1-1-0.2-1.6-0.3
			s-1.3-0.1-2.3-0.1h-4v12.1h4.7c1.3,0,2.3-0.2,3.3-0.5s1.7-0.7,2.3-1.3c0.6-0.5,1.1-1.2,1.3-1.9C94.3,309.5,94.4,308.7,94.4,307.8z
			"/>
		<path d="M130.1,320.3c0,2-0.3,3.9-0.8,5.6c-0.5,1.7-1.3,3.2-2.4,4.4c-1.1,1.2-2.4,2.2-4,2.9c-1.6,0.7-3.5,1-5.6,1
			c-2.1,0-3.8-0.3-5.4-0.9c-1.5-0.6-2.8-1.5-3.8-2.7c-1-1.2-1.8-2.6-2.3-4.3c-0.5-1.7-0.8-3.6-0.8-5.7c0-2,0.3-3.9,0.8-5.6
			c0.5-1.7,1.3-3.2,2.4-4.4c1.1-1.2,2.4-2.2,4-2.9s3.5-1,5.6-1c2.1,0,3.8,0.3,5.4,0.9c1.5,0.6,2.8,1.5,3.8,2.7
			c1,1.2,1.8,2.6,2.3,4.3C129.9,316.3,130.1,318.2,130.1,320.3z M125.4,320.6c0-1.4-0.1-2.6-0.4-3.8c-0.3-1.2-0.7-2.3-1.2-3.2
			c-0.6-0.9-1.4-1.6-2.4-2.2s-2.2-0.8-3.7-0.8c-1.4,0-2.5,0.2-3.5,0.7c-1,0.5-1.8,1.2-2.4,2c-0.6,0.9-1.1,1.9-1.4,3.1
			c-0.3,1.2-0.5,2.5-0.5,3.9c0,1.4,0.1,2.7,0.4,3.9c0.3,1.2,0.7,2.3,1.3,3.2c0.6,0.9,1.4,1.6,2.4,2.1s2.2,0.8,3.7,0.8
			c1.3,0,2.5-0.2,3.5-0.7c1-0.5,1.8-1.2,2.4-2c0.6-0.9,1.1-1.9,1.4-3.1C125.2,323.4,125.4,322.1,125.4,320.6z"/>
		<path d="M149.9,331.3c0,0.5,0,1-0.1,1.3c-0.1,0.3-0.2,0.5-0.3,0.7c-0.1,0.1-0.4,0.3-0.7,0.4c-0.3,0.1-0.6,0.2-1,0.3
			c-0.4,0.1-0.8,0.2-1.2,0.2c-0.4,0.1-0.9,0.1-1.3,0.1c-1.3,0-2.4-0.2-3.3-0.5s-1.7-0.9-2.3-1.6c-0.6-0.7-1-1.6-1.3-2.6
			c-0.3-1.1-0.4-2.3-0.4-3.8v-14.6h-3.5c-0.3,0-0.5-0.1-0.7-0.4c-0.2-0.3-0.2-0.8-0.2-1.4c0-0.4,0-0.6,0.1-0.9
			c0-0.2,0.1-0.4,0.2-0.6s0.2-0.3,0.3-0.3c0.1-0.1,0.3-0.1,0.4-0.1h3.5v-5.9c0-0.1,0-0.3,0.1-0.4c0.1-0.1,0.2-0.2,0.4-0.3
			c0.2-0.1,0.4-0.1,0.7-0.2c0.3,0,0.7-0.1,1.1-0.1c0.5,0,0.8,0,1.1,0.1c0.3,0,0.5,0.1,0.7,0.2c0.2,0.1,0.3,0.2,0.4,0.3
			c0.1,0.1,0.1,0.2,0.1,0.4v5.9h6.4c0.1,0,0.3,0,0.4,0.1c0.1,0.1,0.2,0.2,0.3,0.3c0.1,0.2,0.1,0.4,0.2,0.6c0,0.2,0.1,0.5,0.1,0.9
			c0,0.7-0.1,1.1-0.2,1.4c-0.2,0.3-0.4,0.4-0.7,0.4h-6.4v14c0,1.7,0.3,3,0.8,3.9c0.5,0.9,1.4,1.3,2.7,1.3c0.4,0,0.8,0,1.1-0.1
			c0.3-0.1,0.6-0.2,0.9-0.3c0.3-0.1,0.5-0.2,0.7-0.3c0.2-0.1,0.4-0.1,0.5-0.1c0.1,0,0.2,0,0.3,0.1c0.1,0,0.1,0.1,0.2,0.3
			c0,0.1,0.1,0.3,0.1,0.5S149.9,330.9,149.9,331.3z"/>
	</g>
	<g class="st5">
		<path d="M267.5,323.5c0,1.1-0.1,2.2-0.4,3.1c-0.3,1-0.7,1.8-1.2,2.6s-1.1,1.4-1.9,2c-0.7,0.6-1.6,1.1-2.5,1.4
			c-0.9,0.4-1.9,0.7-2.9,0.9s-2.2,0.3-3.6,0.3h-9.4c-0.4,0-0.8-0.1-1.2-0.4s-0.6-0.8-0.6-1.5v-32.1c0-0.7,0.2-1.2,0.6-1.5
			s0.8-0.4,1.2-0.4h8.2c2.1,0,3.9,0.2,5.3,0.6c1.4,0.4,2.5,1,3.4,1.8c0.9,0.8,1.6,1.7,2.1,2.9c0.5,1.1,0.7,2.4,0.7,3.8
			c0,0.9-0.1,1.7-0.3,2.4s-0.5,1.5-0.9,2.2c-0.4,0.7-0.9,1.2-1.5,1.8s-1.3,0.9-2.1,1.3c1,0.2,1.9,0.5,2.8,1c0.9,0.5,1.6,1.1,2.2,1.9
			c0.6,0.8,1.1,1.6,1.5,2.7S267.5,322.3,267.5,323.5z M260.3,307.4c0-0.9-0.1-1.7-0.4-2.4s-0.6-1.3-1.1-1.8s-1.2-0.9-2-1.1
			c-0.8-0.3-1.9-0.4-3.3-0.4h-4.9v11.6h5.4c1.2,0,2.2-0.2,3-0.5c0.8-0.3,1.4-0.8,1.9-1.3c0.5-0.5,0.9-1.2,1.1-1.9
			C260.2,308.9,260.3,308.2,260.3,307.4z M262.5,323.8c0-1.1-0.2-2-0.5-2.8c-0.3-0.8-0.8-1.5-1.5-2.1c-0.7-0.6-1.5-1-2.5-1.3
			c-1-0.3-2.2-0.4-3.7-0.4h-5.7v12.7h6.9c1.1,0,2-0.1,2.9-0.4c0.8-0.3,1.5-0.6,2.1-1.2c0.6-0.5,1.1-1.1,1.5-1.9
			C262.3,325.6,262.5,324.8,262.5,323.8z"/>
		<path d="M278.9,333.1c0,0.1,0,0.3-0.1,0.4c-0.1,0.1-0.2,0.2-0.4,0.3c-0.2,0.1-0.4,0.1-0.7,0.2c-0.3,0-0.7,0.1-1.1,0.1
			c-0.4,0-0.8,0-1.1-0.1c-0.3,0-0.5-0.1-0.7-0.2c-0.2-0.1-0.3-0.2-0.4-0.3c-0.1-0.1-0.1-0.2-0.1-0.4V296c0-0.1,0-0.3,0.1-0.4
			c0.1-0.1,0.2-0.2,0.4-0.3c0.2-0.1,0.4-0.1,0.7-0.2c0.3,0,0.7-0.1,1.1-0.1c0.5,0,0.8,0,1.1,0.1c0.3,0,0.5,0.1,0.7,0.2
			c0.2,0.1,0.3,0.2,0.4,0.3c0.1,0.1,0.1,0.2,0.1,0.4V333.1z"/>
		<path d="M306.2,333.1c0,0.2-0.1,0.4-0.2,0.5c-0.1,0.1-0.4,0.2-0.6,0.2c-0.3,0.1-0.6,0.1-1.1,0.1c-0.5,0-0.9,0-1.2-0.1
			s-0.5-0.1-0.6-0.2c-0.1-0.1-0.2-0.3-0.2-0.5v-2.5c-1.1,1.2-2.3,2.1-3.7,2.7c-1.3,0.6-2.8,1-4.3,1c-1.3,0-2.5-0.2-3.6-0.5
			c-1.1-0.3-2-0.8-2.7-1.5c-0.8-0.6-1.3-1.4-1.8-2.4c-0.4-0.9-0.6-2-0.6-3.2c0-1.4,0.3-2.6,0.9-3.7c0.6-1,1.4-1.9,2.5-2.6
			c1.1-0.7,2.4-1.2,3.9-1.5s3.3-0.5,5.3-0.5h3.4v-1.9c0-1-0.1-1.8-0.3-2.6s-0.5-1.4-1-1.8s-1-0.9-1.8-1.1c-0.7-0.2-1.6-0.4-2.7-0.4
			c-1.1,0-2.1,0.1-3,0.4c-0.9,0.3-1.7,0.6-2.4,0.9c-0.7,0.3-1.2,0.6-1.7,0.9s-0.8,0.4-1,0.4c-0.1,0-0.3,0-0.4-0.1
			c-0.1-0.1-0.2-0.2-0.3-0.3s-0.1-0.3-0.2-0.6c0-0.2-0.1-0.5-0.1-0.8c0-0.5,0-0.8,0.1-1.1c0.1-0.3,0.2-0.5,0.5-0.8
			c0.2-0.2,0.7-0.5,1.3-0.8c0.6-0.3,1.3-0.6,2.1-0.9s1.7-0.5,2.6-0.7c0.9-0.2,1.9-0.3,2.9-0.3c1.8,0,3.3,0.2,4.6,0.6
			c1.3,0.4,2.3,1,3.1,1.8c0.8,0.8,1.3,1.8,1.7,2.9c0.4,1.2,0.5,2.5,0.5,4.1V333.1z M301.6,321.7h-3.9c-1.3,0-2.4,0.1-3.3,0.3
			s-1.7,0.5-2.3,0.9s-1.1,0.9-1.3,1.5c-0.3,0.6-0.4,1.3-0.4,2c0,1.3,0.4,2.3,1.2,3.1c0.8,0.8,2,1.2,3.5,1.2c1.2,0,2.3-0.3,3.3-0.9
			c1-0.6,2.1-1.5,3.2-2.8V321.7z"/>
		<path d="M336,333.1c0,0.1,0,0.3-0.1,0.4c-0.1,0.1-0.2,0.2-0.3,0.3s-0.4,0.1-0.7,0.2s-0.6,0.1-1,0.1c-0.4,0-0.8,0-1-0.1
			s-0.5-0.1-0.6-0.2c-0.2-0.1-0.3-0.2-0.3-0.3c-0.1-0.1-0.1-0.2-0.1-0.4v-3.3c-1.4,1.6-2.8,2.7-4.2,3.4c-1.4,0.7-2.8,1.1-4.2,1.1
			c-1.7,0-3.1-0.3-4.2-0.8s-2.1-1.3-2.8-2.3c-0.7-1-1.2-2.1-1.5-3.3c-0.3-1.3-0.5-2.8-0.5-4.6v-15.2c0-0.1,0-0.3,0.1-0.4
			c0.1-0.1,0.2-0.2,0.4-0.3c0.2-0.1,0.4-0.1,0.7-0.2c0.3,0,0.7,0,1.1,0c0.4,0,0.8,0,1.1,0c0.3,0,0.5,0.1,0.7,0.2
			c0.2,0.1,0.3,0.2,0.4,0.3c0.1,0.1,0.1,0.2,0.1,0.4v14.6c0,1.5,0.1,2.6,0.3,3.5s0.5,1.6,1,2.3c0.4,0.6,1,1.1,1.7,1.4
			c0.7,0.3,1.4,0.5,2.3,0.5c1.1,0,2.3-0.4,3.4-1.2s2.3-2,3.6-3.6v-17.5c0-0.1,0-0.3,0.1-0.4c0.1-0.1,0.2-0.2,0.4-0.3
			c0.2-0.1,0.4-0.1,0.7-0.2c0.3,0,0.7,0,1.1,0c0.4,0,0.8,0,1.1,0c0.3,0,0.5,0.1,0.7,0.2c0.2,0.1,0.3,0.2,0.4,0.3
			c0.1,0.1,0.1,0.2,0.1,0.4V333.1z"/>
	</g>
	<g class="st5">
		<path class="st0" d="M48.2,13.3c0.2,0,0.3,0,0.5,0.1c0.1,0.1,0.3,0.2,0.4,0.5c0.1,0.2,0.2,0.5,0.2,0.9c0.1,0.4,0.1,0.9,0.1,1.5
			c0,0.8,0,1.4-0.1,1.9s-0.2,0.9-0.4,1.1c-0.2,0.2-0.4,0.5-0.6,0.6L26.4,36.1h21.9c0.2,0,0.3,0,0.5,0.1c0.1,0.1,0.3,0.2,0.3,0.5
			c0.1,0.2,0.1,0.5,0.2,0.9c0.1,0.4,0.1,0.8,0.1,1.4c0,0.5,0,1-0.1,1.4c-0.1,0.4-0.1,0.7-0.2,0.9c-0.1,0.2-0.2,0.4-0.3,0.5
			s-0.3,0.1-0.5,0.1h-42c-0.2,0-0.3,0-0.5-0.1s-0.2-0.2-0.3-0.5s-0.1-0.5-0.2-0.9C5.2,40,5.1,39.5,5.1,39c0-0.6,0-1,0.1-1.4
			c0.1-0.4,0.1-0.7,0.2-0.9c0.1-0.2,0.2-0.4,0.3-0.5c0.1-0.1,0.3-0.1,0.5-0.1h19.5L6.2,20.6c-0.2-0.1-0.4-0.3-0.5-0.5
			c-0.1-0.2-0.2-0.4-0.3-0.7c-0.1-0.3-0.1-0.6-0.2-0.9c0-0.4-0.1-0.9-0.1-1.4c0-0.6,0-1.1,0.1-1.4c0.1-0.4,0.1-0.6,0.2-0.9
			c0.1-0.2,0.2-0.4,0.3-0.4s0.3-0.1,0.4-0.1c0.3,0,0.6,0.1,0.9,0.2c0.3,0.1,0.7,0.4,1.2,0.8l17.4,14.5l20.8-15.6
			c0.6-0.4,1-0.6,1.2-0.7C47.9,13.4,48,13.3,48.2,13.3z"/>
		<path class="st0" d="M32.1-8.1h16.1c0.2,0,0.3,0,0.5,0.1C48.9-7.8,49-7.7,49-7.4c0.1,0.2,0.1,0.5,0.2,0.9s0.1,0.8,0.1,1.4
			c0,0.6,0,1-0.1,1.4S49.1-3.1,49-2.9c-0.1,0.2-0.2,0.4-0.3,0.5c-0.1,0.1-0.3,0.1-0.5,0.1H32.1L7.4,10.1c-0.5,0.2-0.9,0.4-1.2,0.5
			c-0.3,0.1-0.5,0-0.7-0.2C5.4,10.3,5.3,10,5.2,9.5c0-0.4-0.1-1-0.1-1.8c0-0.7,0-1.2,0.1-1.6c0-0.4,0.1-0.8,0.2-1
			c0.1-0.2,0.2-0.4,0.3-0.6c0.1-0.1,0.3-0.2,0.6-0.4l12.6-6.1c1.2-0.6,2.4-1.1,3.8-1.7s2.6-1.1,4-1.7v-0.1c-1.3-0.5-2.6-1-3.8-1.6
			S20.2-8,19-8.6L6.3-14.7c-0.2-0.1-0.4-0.2-0.6-0.3c-0.2-0.1-0.3-0.3-0.4-0.5c-0.1-0.2-0.1-0.5-0.2-0.9c0-0.4-0.1-0.9-0.1-1.5
			c0-0.8,0-1.4,0.1-1.9c0.1-0.5,0.2-0.8,0.3-1c0.2-0.2,0.4-0.2,0.7-0.2c0.3,0.1,0.7,0.2,1.2,0.5L32.1-8.1z"/>
		<path class="st0" d="M32-37c0.9,0,1.5,0.1,1.8,0.3c0.3,0.2,0.5,0.5,0.5,0.9v14.1c0,0.4-0.2,0.7-0.5,0.9s-1,0.3-1.8,0.3
			c-0.9,0-1.5-0.1-1.8-0.3c-0.3-0.2-0.5-0.5-0.5-0.9v-14.1c0-0.2,0-0.3,0.1-0.5c0.1-0.1,0.2-0.3,0.4-0.4c0.2-0.1,0.4-0.2,0.7-0.2
			C31.3-36.9,31.6-37,32-37z"/>
		<path class="st0" d="M27.1-72c3.4,0,6.4,0.3,9.2,0.8c2.8,0.5,5.2,1.4,7.2,2.6s3.5,2.8,4.6,4.8c1.1,2,1.6,4.4,1.6,7.3
			c0,2.8-0.5,5.1-1.5,7c-1,1.9-2.4,3.4-4.3,4.5c-1.9,1.2-4.3,2-7,2.5c-2.8,0.5-6,0.7-9.6,0.7c-3.3,0-6.4-0.3-9.2-0.8
			C15.4-43.1,13-44,11-45.2C9-46.4,7.4-48,6.3-50c-1.1-2-1.6-4.4-1.6-7.3c0-2.8,0.5-5.1,1.5-7c1-1.9,2.4-3.4,4.3-4.5s4.3-2,7-2.5
			C20.3-71.8,23.5-72,27.1-72z M27.5-66.1c-2.2,0-4.1,0.1-5.9,0.2c-1.7,0.2-3.3,0.4-4.6,0.7s-2.5,0.7-3.4,1.2
			c-1,0.5-1.7,1.1-2.4,1.7c-0.6,0.7-1.1,1.4-1.4,2.3C9.6-59,9.5-58.1,9.5-57c0,1.9,0.5,3.5,1.4,4.7c0.9,1.2,2.1,2.1,3.7,2.8
			c1.6,0.7,3.4,1.2,5.5,1.4c2.1,0.2,4.4,0.4,6.8,0.4c3.3,0,6.1-0.2,8.3-0.5s4.2-0.9,5.6-1.6c1.4-0.7,2.5-1.7,3.1-2.8
			c0.7-1.1,1-2.5,1-4.1c0-1.3-0.2-2.4-0.6-3.3c-0.4-1-1-1.8-1.7-2.5c-0.8-0.7-1.7-1.3-2.7-1.7c-1.1-0.5-2.2-0.8-3.5-1.1
			c-1.3-0.3-2.7-0.5-4.2-0.6C30.7-66,29.2-66.1,27.5-66.1z"/>
		<path class="st0" d="M46.8-105.8c0.4,0,0.8,0,1.1,0.1s0.5,0.2,0.7,0.3c0.2,0.1,0.3,0.2,0.4,0.4s0.1,0.3,0.1,0.5v22.9
			c0,0.2,0,0.3-0.1,0.4c-0.1,0.1-0.2,0.3-0.4,0.4c-0.2,0.1-0.4,0.2-0.7,0.3s-0.7,0.1-1.1,0.1c-0.4,0-0.8,0-1-0.1
			c-0.3-0.1-0.5-0.2-0.7-0.3s-0.3-0.2-0.4-0.4c-0.1-0.1-0.2-0.3-0.2-0.5v-9.1H11.2l5,8.5c0.2,0.4,0.4,0.8,0.4,1c0,0.3,0,0.5-0.2,0.6
			c-0.1,0.2-0.4,0.3-0.7,0.3c-0.3,0.1-0.8,0.1-1.3,0.1c-0.4,0-0.7,0-1-0.1c-0.3,0-0.5-0.1-0.7-0.2c-0.2-0.1-0.3-0.2-0.5-0.3
			c-0.1-0.1-0.3-0.3-0.4-0.5L5.5-91.4c-0.1-0.1-0.1-0.2-0.2-0.3c0-0.1-0.1-0.3-0.1-0.5c0-0.2-0.1-0.4-0.1-0.7c0-0.3,0-0.6,0-1
			c0-0.5,0-1,0.1-1.4c0-0.4,0.1-0.6,0.2-0.8s0.2-0.3,0.3-0.4c0.1-0.1,0.3-0.1,0.4-0.1h38.5v-7.9c0-0.2,0.1-0.3,0.2-0.5
			c0.1-0.2,0.2-0.3,0.4-0.4s0.4-0.2,0.7-0.2C46.1-105.8,46.4-105.8,46.8-105.8z"/>
		<path class="st0" d="M35-141.9c1.9,0,3.8,0.3,5.6,0.9c1.8,0.6,3.4,1.5,4.7,2.7c1.4,1.2,2.5,2.8,3.3,4.6s1.2,4.1,1.2,6.6
			c0,1.8-0.2,3.4-0.7,4.8c-0.5,1.4-1.1,2.6-1.9,3.7c-0.8,1-1.9,1.9-3.1,2.6c-1.2,0.7-2.6,1.2-4.2,1.7c-1.6,0.4-3.3,0.7-5.1,0.9
			c-1.8,0.2-3.8,0.3-6,0.3c-1.9,0-3.8-0.1-5.7-0.3c-1.9-0.2-3.8-0.6-5.5-1.1c-1.8-0.5-3.5-1.2-5-2.1c-1.6-0.9-2.9-2-4.1-3.3
			s-2.1-2.9-2.8-4.8c-0.7-1.9-1-4-1-6.5c0-0.8,0.1-1.7,0.2-2.5c0.1-0.9,0.2-1.6,0.4-2.4c0.2-0.7,0.4-1.3,0.6-1.8
			c0.2-0.5,0.4-0.8,0.5-1c0.1-0.2,0.3-0.3,0.4-0.4c0.1-0.1,0.3-0.1,0.5-0.2c0.2,0,0.4-0.1,0.6-0.1c0.2,0,0.5,0,0.8,0
			c0.4,0,0.8,0,1,0c0.3,0,0.5,0.1,0.7,0.1c0.2,0.1,0.3,0.2,0.4,0.3c0.1,0.1,0.1,0.3,0.1,0.5c0,0.2-0.1,0.6-0.2,1
			c-0.2,0.4-0.3,0.9-0.5,1.6c-0.2,0.6-0.4,1.3-0.5,2.2c-0.2,0.9-0.2,1.9-0.2,3c0,2.1,0.4,3.9,1.3,5.4c0.9,1.5,2,2.7,3.5,3.7
			s3.1,1.7,5,2.1c1.9,0.5,3.9,0.7,6,0.8c-0.3-0.6-0.7-1.2-1-2c-0.3-0.7-0.6-1.5-0.9-2.4s-0.5-1.8-0.7-2.8c-0.2-1-0.3-2-0.3-3.1
			c0-2.4,0.3-4.4,1-6s1.5-2.9,2.7-3.9c1.1-1,2.5-1.7,4-2.1C31.5-141.7,33.1-141.9,35-141.9z M35.5-136c-1.3,0-2.5,0.1-3.6,0.4
			c-1.1,0.3-2,0.7-2.7,1.3c-0.7,0.6-1.3,1.4-1.7,2.4c-0.4,1-0.6,2.3-0.6,3.8c0,0.8,0.1,1.7,0.2,2.5c0.1,0.8,0.4,1.6,0.6,2.4
			c0.3,0.8,0.6,1.5,0.9,2.2c0.3,0.7,0.7,1.4,1.1,1.9c2.9,0,5.3-0.2,7.3-0.6c2-0.4,3.5-0.9,4.7-1.6c1.2-0.7,2-1.6,2.5-2.7
			c0.5-1.1,0.8-2.3,0.8-3.7c0-1.4-0.3-2.7-0.8-3.8c-0.5-1.1-1.3-1.9-2.2-2.6c-0.9-0.7-1.9-1.2-3.1-1.5C37.9-135.9,36.7-136,35.5-136
			z"/>
	</g>
	<g class="st5">
		<path class="st0" d="M130,72.2c0,0.2,0,0.3-0.1,0.5c-0.1,0.1-0.2,0.2-0.4,0.3s-0.5,0.2-0.9,0.2c-0.4,0-0.9,0.1-1.6,0.1
			c-0.6,0-1.1,0-1.4-0.1c-0.4,0-0.7-0.1-0.9-0.2c-0.2-0.1-0.4-0.2-0.5-0.4c-0.1-0.2-0.2-0.4-0.3-0.7l-4-10.3c-0.5-1.2-1-2.2-1.5-3.2
			c-0.5-1-1.1-1.8-1.8-2.5c-0.7-0.7-1.5-1.3-2.5-1.7c-0.9-0.4-2.1-0.6-3.4-0.6h-3.9v18.6c0,0.2-0.1,0.3-0.2,0.5
			c-0.1,0.1-0.3,0.2-0.5,0.3c-0.2,0.1-0.5,0.1-0.9,0.2c-0.4,0.1-0.8,0.1-1.4,0.1c-0.6,0-1,0-1.4-0.1s-0.7-0.1-0.9-0.2
			c-0.2-0.1-0.4-0.2-0.5-0.3c-0.1-0.1-0.1-0.3-0.1-0.5V31.7c0-0.9,0.2-1.5,0.7-1.8c0.5-0.3,1-0.5,1.5-0.5h9.3c1.1,0,2,0,2.8,0.1
			c0.7,0.1,1.4,0.1,2,0.2c1.7,0.3,3.2,0.8,4.5,1.4c1.3,0.6,2.4,1.4,3.3,2.4c0.9,1,1.5,2.1,2,3.3c0.4,1.3,0.7,2.6,0.7,4.1
			c0,1.5-0.2,2.8-0.6,3.9c-0.4,1.2-1,2.2-1.7,3.1s-1.6,1.7-2.7,2.3s-2.2,1.2-3.5,1.7c0.7,0.3,1.4,0.7,2,1.2c0.6,0.5,1.1,1.1,1.6,1.7
			c0.5,0.7,1,1.5,1.4,2.3c0.5,0.9,0.9,1.9,1.4,3l3.9,9.6c0.3,0.8,0.5,1.4,0.6,1.7C129.9,71.8,130,72.1,130,72.2z M121.2,41.5
			c0-1.7-0.4-3.2-1.2-4.3c-0.8-1.2-2.1-2-3.9-2.6c-0.6-0.2-1.2-0.3-1.9-0.3c-0.7-0.1-1.6-0.1-2.8-0.1h-4.9v14.8h5.7
			c1.5,0,2.9-0.2,4-0.6c1.1-0.4,2-0.9,2.8-1.6s1.3-1.4,1.6-2.4C121,43.5,121.2,42.5,121.2,41.5z"/>
	</g>
	<g class="st5">
		<path class="st0" d="M217.4,34.1c0,0.4,0,0.8-0.1,1.1s-0.1,0.6-0.2,0.8c-0.1,0.2-0.2,0.4-0.3,0.5c-0.1,0.1-0.3,0.1-0.4,0.1
			c-0.3,0-0.7-0.2-1.4-0.6c-0.6-0.4-1.5-0.9-2.5-1.4c-1.1-0.5-2.3-1-3.8-1.4c-1.5-0.4-3.2-0.6-5.3-0.6c-2.4,0-4.6,0.4-6.5,1.3
			c-1.9,0.9-3.5,2.1-4.9,3.7c-1.3,1.6-2.4,3.4-3.1,5.5c-0.7,2.1-1.1,4.5-1.1,7c0,2.8,0.4,5.3,1.2,7.4s1.9,4,3.2,5.5
			c1.4,1.5,3,2.6,4.9,3.4c1.9,0.8,4,1.2,6.3,1.2c1.4,0,2.7-0.2,4.1-0.5c1.4-0.3,2.7-0.8,3.9-1.5V52.7h-10.1c-0.4,0-0.7-0.2-0.9-0.6
			c-0.2-0.4-0.3-1-0.3-1.8c0-0.4,0-0.8,0.1-1.1c0-0.3,0.1-0.6,0.2-0.7s0.2-0.3,0.4-0.4c0.1-0.1,0.3-0.1,0.5-0.1h13.9
			c0.2,0,0.5,0,0.7,0.1c0.2,0.1,0.5,0.2,0.7,0.4c0.2,0.2,0.4,0.4,0.5,0.7c0.1,0.3,0.2,0.7,0.2,1.1V67c0,0.6-0.1,1.1-0.3,1.5
			c-0.2,0.4-0.6,0.8-1.3,1.1c-0.7,0.3-1.5,0.7-2.5,1.1c-1,0.4-2.1,0.7-3.2,1c-1.1,0.3-2.2,0.5-3.3,0.6c-1.1,0.1-2.2,0.2-3.3,0.2
			c-3.4,0-6.4-0.5-9.1-1.6s-4.9-2.5-6.7-4.5s-3.2-4.3-4.2-7c-1-2.7-1.5-5.7-1.5-9.1c0-3.5,0.5-6.6,1.6-9.4s2.5-5.2,4.4-7.2
			c1.9-2,4.2-3.5,6.9-4.6s5.6-1.6,8.9-1.6c1.7,0,3.2,0.1,4.7,0.4s2.8,0.6,3.9,1s2.1,0.8,2.9,1.3c0.8,0.5,1.3,0.8,1.6,1.1
			c0.3,0.3,0.5,0.6,0.6,1C217.3,32.8,217.4,33.3,217.4,34.1z"/>
	</g>
	<g class="st5">
		<path class="st0" d="M299.1,60.6c0,1.4-0.2,2.6-0.5,3.8c-0.3,1.2-0.8,2.2-1.5,3.1c-0.6,0.9-1.4,1.7-2.3,2.4
			c-0.9,0.7-1.9,1.3-3,1.8c-1.1,0.5-2.3,0.8-3.6,1.1c-1.3,0.2-2.7,0.4-4.4,0.4h-11.4c-0.5,0-1-0.2-1.5-0.5c-0.5-0.3-0.7-1-0.7-1.8
			v-39c0-0.9,0.2-1.5,0.7-1.8c0.5-0.3,1-0.5,1.5-0.5h9.9c2.6,0,4.8,0.2,6.4,0.7c1.7,0.5,3.1,1.2,4.2,2.2s2,2.1,2.5,3.5
			s0.8,2.9,0.8,4.7c0,1-0.1,2-0.4,3s-0.6,1.8-1.1,2.6s-1.1,1.5-1.8,2.1c-0.7,0.6-1.6,1.1-2.5,1.6c1.2,0.2,2.3,0.6,3.3,1.2
			s1.9,1.4,2.7,2.3s1.4,2,1.8,3.2S299.1,59.1,299.1,60.6z M290.4,41c0-1.1-0.1-2-0.4-2.9c-0.3-0.9-0.8-1.6-1.4-2.2
			c-0.6-0.6-1.5-1.1-2.5-1.4c-1-0.3-2.4-0.5-4-0.5h-6v14.2h6.6c1.5,0,2.7-0.2,3.6-0.6c0.9-0.4,1.7-0.9,2.3-1.6
			c0.6-0.7,1.1-1.4,1.3-2.3S290.4,41.9,290.4,41z M293,60.9c0-1.3-0.2-2.5-0.6-3.5c-0.4-1-1-1.8-1.8-2.5c-0.8-0.7-1.8-1.2-3-1.5
			c-1.2-0.3-2.7-0.5-4.5-0.5h-7v15.4h8.4c1.3,0,2.5-0.2,3.5-0.5s1.9-0.8,2.6-1.4c0.8-0.6,1.3-1.4,1.8-2.3
			C292.8,63.2,293,62.1,293,60.9z"/>
	</g>
	<g class="st5">
		<path class="st0" d="M396.7,54.4c0,0.9-0.3,1.5-1,1.8c-0.7,0.3-1.6,0.5-2.8,0.5h-45.5c-1.3,0-2.3-0.2-2.9-0.5s-1-1-1-1.8
			c0-0.9,0.3-1.5,1-1.8c0.7-0.3,1.6-0.5,2.9-0.5h45.5c0.6,0,1.1,0,1.6,0.1c0.5,0.1,0.9,0.2,1.2,0.4c0.3,0.2,0.6,0.4,0.8,0.7
			C396.7,53.6,396.7,54,396.7,54.4z"/>
	</g>
	<polygon id="rect147" inkscape:transform-center-x="-12.811752" inkscape:transform-center-y="-108.92014" class="st4" points="
		383,-306.5 391.7,-306.5 364,-68.3 355.4,-68.4 	">
	</polygon>
	<rect id="rect881" x="88" y="-527.6" class="st6" width="314.3" height="66.7"/>
	
		<path id="path883" sodipodi:cx="-224.68417" sodipodi:cy="541.19336" sodipodi:end="3.1415927" sodipodi:open="true" sodipodi:rx="144.03275" sodipodi:ry="144.03275" sodipodi:start="0" sodipodi:type="arc" class="st6" d="
		M88-527c0-56.1,30-108,78.6-136.1s108.5-28.1,157.2,0s78.6,80,78.6,136.1"/>
	<path id="rect3802" class="st7" d="M241.7-670.1c-24.7,0.6-48.8,7.4-70.2,19.7c-45.4,26.2-73.4,74.6-73.6,127h0v0.6v215.4H87v32.7
		h316.4v-32.7h-10.9v-215.4v-0.6h0c-0.2-52.4-28.2-100.8-73.6-127C295.4-663.9,268.7-670.7,241.7-670.1z"/>
	
		<rect id="rect149" x="305.8" y="-392.6" transform="matrix(2.810800e-03 -1 1 2.810800e-03 774.8005 0.3774)" class="st8" width="163.7" height="8.6"/>
	
		<rect id="rect151" x="21.6" y="-393.1" transform="matrix(2.809320e-03 -1 1 2.809320e-03 491.916 -284.3334)" class="st8" width="163.7" height="8.6"/>
</g>
</svg>
