<?xml version="1.0" encoding="utf-8"?>
<!-- Generator: Adobe Illustrator 27.8.0, SVG Export Plug-In . SVG Version: 6.00 Build 0)  -->
<svg version="1.1"
	 id="svg8" xmlns:svg="http://www.w3.org/2000/svg" xmlns:rdf="http://www.w3.org/1999/02/22-rdf-syntax-ns#" xmlns:sodipodi="http://sodipodi.sourceforge.net/DTD/sodipodi-0.dtd" xmlns:dc="http://purl.org/dc/elements/1.1/" xmlns:inkscape="http://www.inkscape.org/namespaces/inkscape" xmlns:cc="http://creativecommons.org/ns#" inkscape:export-xdpi="93" inkscape:export-ydpi="93" inkscape:version="0.92.4 (5da689c313, 2019-01-14)"
	 xmlns="http://www.w3.org/2000/svg" xmlns:xlink="http://www.w3.org/1999/xlink" x="0px" y="0px" viewBox="0 0 692 1081"
	 style="enable-background:new 0 0 692 1081;" xml:space="preserve">
<style type="text/css">
	.st0{fill:#FFFFFF;}
	.st1{fill:#1A1A1A;}
	.st2{opacity:0.99;fill:#808080;enable-background:new    ;}
	.st3{opacity:0.99;fill:#CCCCCC;enable-background:new    ;}
	.st4{opacity:0.99;fill:#FFFFFF;enable-background:new    ;}
	.st5{enable-background:new    ;}
	.st6{fill:#F9F9F9;}
	.st7{fill:#808080;}
</style>
<defs>
	
		<inkscape:perspective  id="perspective876" inkscape:persp3d-origin="104.99999 : 98.999996 : 1" inkscape:vp_x="0 : 148.49999 : 1" inkscape:vp_y="0 : 999.99995 : 0" inkscape:vp_z="210 : 148.49999 : 1" sodipodi:type="inkscape:persp3d">
		</inkscape:perspective>
</defs>
<sodipodi:namedview  bordercolor="#666666" borderopacity="1.0" id="base" inkscape:current-layer="layer1" inkscape:cx="948.02023" inkscape:cy="2921.1126" inkscape:document-units="mm" inkscape:lockguides="true" inkscape:pageopacity="0" inkscape:pageshadow="2" inkscape:window-height="987" inkscape:window-maximized="1" inkscape:window-width="1680" inkscape:window-x="1912" inkscape:window-y="-8" inkscape:zoom="0.3535534" pagecolor="#323232" showgrid="false" showguides="true" width="500mm">
	</sodipodi:namedview>
<g id="layer1" transform="translate(0.31582593,592.81107)" inkscape:groupmode="layer" inkscape:label="Ebene 1">
	<g id="flowRoot969" transform="translate(8.4666663,-46.362899)">
	</g>
	<g id="flowRoot1466" transform="translate(8.4666663,-46.362899)">
	</g>
	<g id="flowRoot1529" transform="translate(8.4666663,-46.362899)">
	</g>
	<rect id="rect815" x="70.7" y="-416.3" width="546.9" height="735"/>
	<rect id="rect821" x="200" y="199" class="st0" width="284.6" height="98"/>
	<path id="rect825" class="st1" d="M218.6,204.6h57c10,0,18,8.1,18,18v50c0,10-8.1,18-18,18h-57c-10,0-18-8.1-18-18v-50
		C200.6,212.7,208.7,204.6,218.6,204.6z"/>
	<path id="rect872" class="st1" d="M408.7,204.6h57c10,0,18,8.1,18,18v50c0,10-8.1,18-18,18h-57c-10,0-18-8.1-18-18v-50
		C390.7,212.7,398.8,204.6,408.7,204.6z"/>
	<path id="rect874" class="st1" d="M311.4,204.6H373c8.7,0,15.7,7,15.7,15.7V275c0,8.7-7,15.7-15.7,15.7h-61.7
		c-8.7,0-15.7-7-15.7-15.7v-54.7C295.7,211.6,302.7,204.6,311.4,204.6z"/>
	<rect id="rect947" x="241.9" y="251.4" class="st2" width="10.3" height="179.6"/>
	<rect id="rect949" x="337.5" y="251.4" class="st2" width="10.3" height="179.6"/>
	<rect id="rect951" x="432" y="251.4" class="st2" width="10.3" height="179.6"/>
	<circle id="path1456" class="st3" cx="147.1" cy="-147.4" r="49.8"/>
	<circle id="ellipse1458" class="st3" cx="535.6" cy="-147.4" r="49.8"/>
	
		<ellipse id="path1460" transform="matrix(9.853762e-02 -0.9951 0.9951 9.853762e-02 279.3781 13.5155)" class="st4" cx="147.1" cy="-147.4" rx="44.9" ry="44.9"/>
	<circle id="ellipse1464" class="st4" cx="535.6" cy="-147.4" r="44.9"/>
	<rect id="rect87" x="147.5" y="96.1" width="389.3" height="98"/>
	<circle id="path91" class="st3" cx="199.4" cy="160.9" r="36.4"/>
	<circle id="circle93" class="st3" cx="483.4" cy="160.9" r="36.4"/>
	<path id="rect95" class="st3" d="M228.5,11.6h24.3c13.4,0,24.3,10.9,24.3,24.3v60.7c0,13.4-10.9,24.3-24.3,24.3h-24.3
		c-13.4,0-24.3-10.9-24.3-24.3V35.9C204.2,22.5,215.1,11.6,228.5,11.6z"/>
	<path id="rect97" class="st3" d="M434.9,11.6h24.3c13.4,0,24.3,10.9,24.3,24.3v60.7c0,13.4-10.9,24.3-24.3,24.3h-24.3
		c-13.4,0-24.3-10.9-24.3-24.3V35.9C410.6,22.5,421.5,11.6,434.9,11.6z"/>
	<circle id="circle99" class="st3" cx="271" cy="-29.7" r="36.4"/>
	<circle id="circle101" class="st3" cx="416.7" cy="-29.7" r="36.4"/>
	<circle id="ellipse103" class="st4" cx="189.7" cy="-32.1" r="44.9"/>
	<circle id="ellipse105" class="st4" cx="498" cy="-32.1" r="44.9"/>
	<path id="rect111" class="st3" d="M228.5-187.5h24.3c13.4,0,24.3,10.9,24.3,24.3v60.7c0,13.4-10.9,24.3-24.3,24.3h-24.3
		c-13.4,0-24.3-10.9-24.3-24.3v-60.7C204.2-176.6,215.1-187.5,228.5-187.5z"/>
	<path id="rect113" class="st3" d="M434.9-187.5h24.3c13.4,0,24.3,10.9,24.3,24.3v60.7c0,13.4-10.9,24.3-24.3,24.3h-24.3
		c-13.4,0-24.3-10.9-24.3-24.3v-60.7C410.6-176.6,421.5-187.5,434.9-187.5z"/>
	<circle id="circle115" class="st4" cx="240.6" cy="63.2" r="33.4"/>
	<circle id="circle117" class="st4" cx="447" cy="63.2" r="33.4"/>
	<circle id="circle119" class="st4" cx="199.4" cy="160.9" r="30.4"/>
	<circle id="circle121" class="st4" cx="483.4" cy="160.9" r="30.4"/>
	<circle id="circle123" class="st4" cx="240.6" cy="63.2" r="33.4"/>
	<circle id="circle129" class="st3" cx="194.5" cy="-272.5" r="36.4"/>
	<circle id="circle131" class="st4" cx="194.5" cy="-272.5" r="30.4"/>
	<circle id="circle133" class="st3" cx="493.1" cy="-272.5" r="36.4"/>
	<circle id="circle135" class="st4" cx="493.1" cy="-272.5" r="30.4"/>
	<path id="path31-1" inkscape:connector-curvature="0" class="st0" d="M226.1-355.8c3.4-0.1,3.8-0.1,4.4-0.5
		c0.4-0.2,0.9-0.7,1.1-1.1c0.4-0.6,0.4-1,0.5-8l0.1-7.3l7.2,0l7.2,0v9.1c0,10.1-0.1,11-1.1,13.7c-1.4,3.5-3.4,5.1-7.5,6
		c-1.1,0.3-2.4,0.3-6.6,0.3c-2.9,0-6-0.1-7-0.2l-1.8-0.2l-0.1-6l-0.1-6L226.1-355.8L226.1-355.8z M294.9-335.4
		c61.7,0,76.8,0.1,74.3,0.4l-0.4,0l0.4,0.2c0.3,0.1,0.3,0.2-0.3,0.2c-0.5,0-0.3,0.1,0.6,0.2l1.3,0.1l-1.3,0.1
		c-0.7,0-1.1,0.1-0.9,0.1c0.3,0.1,0.3,0.3,0.3,1.7c0,1.6,0,1.6,0.5,1.7c0.4,0.1,0.3,0.1-0.3,0.1c-0.5,0-0.8,0.1-0.8,0.2
		c0,0.1-24.4,0.2-72.9,0.2h-72.9v-2.6v-2.6L294.9-335.4z M239.4-391.5h7.3v5.9v5.9h-7.3h-7.3v-5.9v-5.9H239.4z M254-369.7
		c0.5-3.3,1.4-6.3,2.8-8.9c0.5-1,0.9-1.8,1-1.8c0.1-0.1,0.4-0.6,0.8-1.2c0.8-1.2,2.5-3.3,2.9-3.6c0.1-0.1,0.3-0.2,0.3-0.3
		c0-0.3,1.8-1.9,3.2-2.9c1.5-1.1,2.7-1.7,5.4-2.7c3.1-1.2,5-1.4,8.8-1.3c2.7,0.1,3.4,0.2,5.1,0.7c1.1,0.3,2.4,0.8,2.9,1
		c0.5,0.2,1,0.4,1.2,0.4c0.1,0,0.9,0.4,1.8,0.9c3.5,2,8.2,7.4,10.1,11.4c2.9,6.3,3.2,12.6,1.1,18.5c-0.9,2.5-1.6,3.9-2.6,5.6
		c-1.2,2-1.3,2.1-4.3,5.1c-3.4,3.4-5.9,4.8-10.4,6c-2.3,0.6-6.8,0.9-9.2,0.5c-3.1-0.5-7.3-2.3-9.9-4.2c-1.3-1-3.1-2.6-3.1-2.7
		c0-0.1-0.5-0.6-1-1.1c-2.6-2.7-5.3-7.9-6.3-12.2C254.1-364.2,253.9-368.5,254-369.7L254-369.7z M268-363.5c0.7,2.7,2.1,5.1,4.3,7.2
		c2.2,2.1,5.7,2.9,8.7,1.9c3.3-1,6.6-4.9,7.7-9c0.6-2.4,0.6-5.8-0.1-8.2c-1-3.3-2.7-5.8-5.1-7.5c-1.1-0.8-1.6-1-2.8-1.2
		c-2.5-0.5-5-0.2-6.8,0.7c-1.6,0.8-3.5,3-4.7,5.2C267.5-371.1,267-367.2,268-363.5z M308.9-391.5c0.1,0,3.4-0.1,7.3,0l7.1,0.1l0,6.5
		c0,6.1,0,6.6,0.4,7.6c1,2.8,4.4,4.3,7.3,3.3c1.5-0.5,2.5-1.4,3.2-2.8l0.6-1.3l0.1-6.8l0.1-6.8h7.3h7.3l-0.1,7.6
		c-0.1,7.1-0.1,7.7-0.5,9.2c-0.8,2.9-2.1,5.5-3.8,7.5c-0.4,0.5-0.8,1-0.8,1.1c0,0.3-1.8,1.9-3.5,3.1c-1.4,1-3.4,2.1-4.3,2.3
		c-0.3,0.1-1.3,0.4-2.2,0.6c-1.6,0.5-1.9,0.5-5.2,0.5c-3.3,0-3.7,0-5.5-0.6c-2.9-0.8-3.8-1.2-5.8-2.5c-2.2-1.4-4-3.2-5.6-5.5
		c-2.2-3.2-3.1-5.6-3.5-9.2C308.5-379.8,308.6-391.3,308.9-391.5L308.9-391.5z M329.2-355.6h11.9v6.1v6.1h-11.9h-11.9v-6.1v-6.1
		H329.2z M349.6-400.9c0.1,0,0.2-0.3,0.2-0.8c0-0.7,0-0.8,0.9-0.9c0.5-0.1,20.7-0.1,44.8-0.1l43.9,0l-0.1,2.6l-0.1,2.6h-44.7
		c-24.6,0-44.8-0.1-45-0.1c-0.2-0.1-0.3-0.4-0.3-1.7C349.4-400.2,349.5-400.9,349.6-400.9L349.6-400.9z M369.7-371.5h15.2v6v6h-15.2
		h-15.2v-6v-6H369.7z M396.8-391.5h7.3v5.9v5.9h-7.3h-7.3v-5.9v-5.9H396.8z M396.8-373.5h7.3v15.4v15.4h-7.3h-7.3v-15.4v-15.4H396.8
		z M425.9-391.5h15.3v5.9v5.9h-15.3h-15.3v-5.9v-5.9H425.9z M413.1-372.6c0.1-0.1,3.3-0.1,7.2-0.1l7,0l0.1,7
		c0.1,9.9-0.3,9.3,7.1,9.4l4.7,0.1v6.2v6.2l-1.7,0.2c-2.6,0.3-11,0.3-13.2-0.1c-3.9-0.6-6.4-1.8-8.1-3.8c-1.7-2.1-2.6-4.2-3-7.6
		C412.9-357.2,412.9-372.4,413.1-372.6L413.1-372.6z M449.7-397.3c0.4-1.3,1.1-2.5,1.9-3.2c3.3-2.9,7.3-3.2,10.5-0.8
		c1.5,1.1,1.9,1.6,2.6,2.9c0.5,1,0.6,1.4,0.5,3.2c0,1.8-0.1,2.2-0.6,3.3c-1.1,2.4-3.9,4.2-6.6,4.4c-2.5,0.2-4.5-0.6-6.5-2.5
		C449.7-391.8,449-394.8,449.7-397.3L449.7-397.3z M451.1-392.3c0.7,1.6,2.7,3.1,4.8,3.6c2.1,0.5,3.7,0.1,6.2-1.7
		c0.6-0.4,1-1,1.5-1.9c0.6-1.2,0.6-1.5,0.7-3c0-1.5-0.1-1.8-0.7-3c-0.6-1.1-0.9-1.5-1.9-2.2c-0.6-0.5-1.6-1-2.2-1.2
		c-3.3-1.1-7.3,0.7-8.7,3.9C450.4-396.4,450.5-393.8,451.1-392.3L451.1-392.3z M456.5-399.9c1.5,0,2.9,0.1,3.2,0.2
		c1.2,0.4,1.7,2.7,0.9,3.8c-0.2,0.3-0.7,0.6-1.1,0.7l-0.7,0.2l0.7,0.7c0.4,0.4,1,1.2,1.3,1.8c0.3,0.6,0.7,1.1,0.8,1.2
		c0.4,0.3,0.1,0.5-0.7,0.5l-0.8,0l-1.2-1.9c-1.3-2-1.6-2.2-3-2.2h-0.9v2.1v2.1l-0.6-0.1l-0.6-0.1l0-4.5l0-4.5L456.5-399.9z
		 M456.8-396c1.5,0,1.8-0.1,2.3-0.4c1.1-0.8,0.5-2.2-1.1-2.4c-0.7-0.1-2.5,0-2.9,0.1c0,0,0,0.6,0,1.4v1.4L456.8-396z"/>
	<circle id="circle84" class="st4" cx="271" cy="-29.7" r="30.4"/>
	<circle id="circle86" class="st4" cx="416.7" cy="-29.7" r="30.4"/>
	<g class="st5">
		<path d="M432.4,439.4c0,0.4,0,0.7-0.1,1c0,0.3-0.1,0.5-0.2,0.7c-0.1,0.2-0.2,0.3-0.3,0.4s-0.3,0.1-0.4,0.1c-0.2,0-0.7-0.2-1.2-0.6
			c-0.6-0.4-1.4-0.8-2.3-1.3s-2.1-0.9-3.5-1.3c-1.4-0.4-3-0.6-4.8-0.6c-2.2,0-4.2,0.4-5.9,1.2c-1.8,0.8-3.2,1.9-4.5,3.3
			s-2.1,3.1-2.8,5.1c-0.6,2-1,4.1-1,6.4c0,2.6,0.4,4.8,1.1,6.8s1.7,3.6,3,5c1.3,1.4,2.8,2.4,4.5,3.1c1.7,0.7,3.7,1.1,5.7,1.1
			c1.2,0,2.5-0.1,3.8-0.4c1.3-0.3,2.4-0.7,3.5-1.3v-11.7h-9.3c-0.4,0-0.6-0.2-0.8-0.5c-0.2-0.3-0.3-0.9-0.3-1.6c0-0.4,0-0.7,0.1-1
			c0-0.3,0.1-0.5,0.2-0.7s0.2-0.3,0.3-0.4c0.1-0.1,0.3-0.1,0.5-0.1h12.7c0.2,0,0.5,0,0.7,0.1c0.2,0.1,0.4,0.2,0.6,0.4
			s0.3,0.4,0.4,0.7c0.1,0.3,0.2,0.6,0.2,1v15.2c0,0.5-0.1,1-0.3,1.4s-0.6,0.7-1.2,1c-0.6,0.3-1.4,0.6-2.3,1s-1.9,0.6-2.9,0.9
			c-1,0.2-2,0.4-3.1,0.6s-2.1,0.2-3.1,0.2c-3.1,0-5.9-0.5-8.3-1.4c-2.4-1-4.5-2.3-6.2-4.1c-1.7-1.8-3-3.9-3.9-6.4
			c-0.9-2.5-1.3-5.2-1.3-8.3c0-3.2,0.5-6.1,1.4-8.6c1-2.6,2.3-4.8,4.1-6.6c1.7-1.8,3.8-3.2,6.3-4.2s5.1-1.5,8.1-1.5
			c1.5,0,3,0.1,4.3,0.4c1.3,0.3,2.5,0.6,3.6,0.9s1.9,0.8,2.6,1.2c0.7,0.4,1.2,0.8,1.5,1c0.3,0.3,0.5,0.6,0.6,0.9
			C432.3,438.3,432.4,438.8,432.4,439.4z"/>
		<path d="M472.5,471.8c0,0.4-0.1,0.8-0.2,1.1c-0.1,0.3-0.3,0.5-0.5,0.7c-0.2,0.2-0.5,0.3-0.8,0.4s-0.6,0.1-0.8,0.1h-1.8
			c-0.6,0-1-0.1-1.5-0.2s-0.8-0.3-1.2-0.6c-0.4-0.3-0.7-0.7-1.1-1.2c-0.4-0.5-0.8-1.2-1.2-2l-12.2-22.8c-0.6-1.2-1.3-2.4-1.9-3.7
			c-0.6-1.3-1.3-2.5-1.8-3.8h-0.1c0,1.5,0.1,3,0.1,4.5c0,1.5,0,3.1,0,4.6v24.2c0,0.1,0,0.3-0.1,0.4c-0.1,0.1-0.2,0.2-0.4,0.3
			s-0.5,0.1-0.8,0.2c-0.3,0.1-0.8,0.1-1.3,0.1s-1,0-1.3-0.1c-0.3-0.1-0.6-0.1-0.8-0.2c-0.2-0.1-0.3-0.2-0.4-0.3
			c-0.1-0.1-0.1-0.3-0.1-0.4v-36.9c0-0.8,0.2-1.4,0.7-1.8c0.5-0.4,1-0.5,1.5-0.5h2.6c0.6,0,1.1,0.1,1.5,0.2c0.4,0.1,0.8,0.3,1.1,0.5
			c0.3,0.2,0.6,0.6,1,1s0.6,1,1,1.6l9.4,17.6c0.6,1.1,1.1,2.1,1.7,3.1s1.1,2,1.6,3c0.5,1,1,2,1.5,2.9c0.5,1,1,1.9,1.4,2.9h0
			c0-1.6-0.1-3.3-0.1-5.1c0-1.8,0-3.5,0-5.1v-21.7c0-0.1,0-0.3,0.1-0.4c0.1-0.1,0.2-0.2,0.4-0.3c0.2-0.1,0.5-0.2,0.8-0.2
			c0.3,0,0.8-0.1,1.3-0.1c0.5,0,0.9,0,1.2,0.1c0.3,0,0.6,0.1,0.8,0.2s0.3,0.2,0.4,0.3s0.1,0.3,0.1,0.4V471.8z"/>
		<path d="M513.9,453.4c0,3.5-0.4,6.5-1.3,9.1c-0.9,2.6-2.2,4.7-3.9,6.4s-3.8,3-6.3,3.8c-2.5,0.8-5.4,1.3-8.8,1.3h-8.5
			c-0.5,0-0.9-0.2-1.3-0.5c-0.4-0.3-0.6-0.9-0.6-1.7v-35.7c0-0.8,0.2-1.4,0.6-1.7c0.4-0.3,0.9-0.5,1.3-0.5h9.1
			c3.5,0,6.4,0.4,8.8,1.3c2.4,0.9,4.4,2.2,6,3.9c1.6,1.7,2.8,3.7,3.7,6.1C513.5,447.7,513.9,450.4,513.9,453.4z M508.3,453.6
			c0-2.2-0.3-4.2-0.8-6c-0.5-1.9-1.4-3.5-2.5-4.8c-1.1-1.4-2.6-2.4-4.3-3.2c-1.8-0.8-4-1.1-6.8-1.1h-5.4v31.1h5.5
			c2.6,0,4.7-0.3,6.5-1c1.8-0.6,3.2-1.6,4.4-2.9c1.2-1.3,2.1-3,2.6-5C508,458.7,508.3,456.4,508.3,453.6z"/>
	</g>
	<g class="st5">
		<path d="M163.3,465.4c0,1.9-0.3,3.5-1,5c-0.7,1.5-1.6,2.7-2.9,3.7c-1.2,1-2.7,1.8-4.3,2.3c-1.7,0.5-3.4,0.8-5.4,0.8
			c-1.3,0-2.6-0.1-3.7-0.3s-2.2-0.5-3.1-0.8c-0.9-0.3-1.7-0.7-2.3-1c-0.6-0.4-1-0.6-1.3-0.9c-0.2-0.2-0.4-0.6-0.5-0.9
			s-0.2-0.9-0.2-1.5c0-0.5,0-0.8,0.1-1.1c0-0.3,0.1-0.5,0.2-0.7c0.1-0.2,0.2-0.3,0.3-0.4c0.1-0.1,0.3-0.1,0.4-0.1
			c0.3,0,0.7,0.2,1.2,0.5c0.5,0.4,1.2,0.7,2,1.1c0.8,0.4,1.8,0.8,3,1.2c1.2,0.4,2.5,0.5,4,0.5c1.2,0,2.2-0.2,3.2-0.5
			s1.8-0.7,2.5-1.3c0.7-0.6,1.2-1.3,1.6-2.1c0.4-0.8,0.6-1.8,0.6-2.8c0-1.1-0.3-2.1-0.8-2.9c-0.5-0.8-1.2-1.5-2-2.1
			c-0.8-0.6-1.8-1.2-2.9-1.7c-1.1-0.5-2.2-1-3.3-1.5c-1.1-0.5-2.2-1.1-3.3-1.7c-1.1-0.6-2-1.4-2.9-2.3c-0.8-0.9-1.5-1.9-2.1-3
			c-0.5-1.2-0.8-2.6-0.8-4.2c0-1.7,0.3-3.2,0.9-4.5c0.6-1.3,1.5-2.4,2.5-3.3c1.1-0.9,2.4-1.6,3.9-2s3.1-0.7,4.8-0.7
			c0.9,0,1.8,0.1,2.7,0.2c0.9,0.2,1.7,0.4,2.5,0.6c0.8,0.3,1.5,0.5,2.1,0.9c0.6,0.3,1,0.6,1.2,0.8c0.2,0.2,0.3,0.4,0.4,0.5
			c0.1,0.1,0.1,0.3,0.2,0.4c0,0.2,0.1,0.4,0.1,0.6c0,0.2,0,0.6,0,1c0,0.4,0,0.7,0,1s-0.1,0.5-0.1,0.7c-0.1,0.2-0.1,0.3-0.3,0.4
			s-0.2,0.1-0.4,0.1c-0.2,0-0.6-0.1-1.1-0.4c-0.5-0.3-1.1-0.6-1.8-1c-0.7-0.4-1.5-0.7-2.5-1s-2-0.4-3.2-0.4c-1.1,0-2.1,0.2-2.9,0.4
			c-0.8,0.3-1.5,0.7-2,1.2s-0.9,1.1-1.2,1.8s-0.4,1.4-0.4,2.2c0,1.1,0.3,2.1,0.8,2.9c0.5,0.8,1.2,1.5,2.1,2.1
			c0.9,0.6,1.8,1.2,2.9,1.7s2.2,1,3.3,1.6c1.1,0.5,2.2,1.1,3.3,1.7s2.1,1.4,2.9,2.2s1.5,1.9,2.1,3
			C163,462.5,163.3,463.8,163.3,465.4z"/>
		<path d="M176,438.6c0,1.2-0.2,2-0.7,2.4c-0.5,0.4-1.3,0.6-2.5,0.6c-1.2,0-2-0.2-2.5-0.6s-0.7-1.2-0.7-2.4c0-1.2,0.2-2,0.7-2.4
			c0.5-0.4,1.3-0.6,2.5-0.6c1.2,0,2,0.2,2.5,0.6C175.7,436.7,176,437.5,176,438.6z M175.4,475.9c0,0.2,0,0.3-0.1,0.4
			c-0.1,0.1-0.2,0.2-0.4,0.3s-0.4,0.1-0.8,0.2c-0.3,0-0.8,0.1-1.3,0.1c-0.5,0-0.9,0-1.2-0.1c-0.3,0-0.6-0.1-0.8-0.2
			s-0.3-0.2-0.4-0.3s-0.1-0.3-0.1-0.4V448c0-0.1,0-0.3,0.1-0.4s0.2-0.2,0.4-0.3c0.2-0.1,0.5-0.1,0.8-0.2c0.3,0,0.7-0.1,1.2-0.1
			c0.5,0,0.9,0,1.3,0.1c0.3,0,0.6,0.1,0.8,0.2c0.2,0.1,0.3,0.2,0.4,0.3c0.1,0.1,0.1,0.3,0.1,0.4V475.9z"/>
		<path d="M208.1,449.3c0,0.7-0.1,1.2-0.3,1.6c-0.2,0.3-0.4,0.5-0.8,0.5h-4c0.7,0.7,1.2,1.6,1.5,2.5c0.3,0.9,0.4,1.8,0.4,2.8
			c0,1.6-0.3,3-0.8,4.3s-1.3,2.3-2.2,3.1c-1,0.9-2.1,1.5-3.4,2c-1.3,0.5-2.8,0.7-4.4,0.7c-1.1,0-2.2-0.1-3.2-0.4s-1.8-0.7-2.4-1.1
			c-0.4,0.4-0.7,0.8-0.9,1.3s-0.4,1-0.4,1.6c0,0.7,0.3,1.3,1,1.8c0.7,0.5,1.6,0.7,2.7,0.8l7.3,0.3c1.4,0,2.6,0.2,3.8,0.6
			c1.2,0.3,2.2,0.8,3,1.5c0.8,0.6,1.5,1.4,2,2.3c0.5,0.9,0.7,2,0.7,3.2c0,1.3-0.3,2.5-0.8,3.6c-0.5,1.2-1.4,2.2-2.5,3
			c-1.1,0.9-2.5,1.6-4.2,2.1c-1.7,0.5-3.7,0.8-6.1,0.8c-2.2,0-4.2-0.2-5.7-0.6c-1.6-0.4-2.9-0.9-3.9-1.6c-1-0.7-1.7-1.4-2.2-2.4
			c-0.5-0.9-0.7-1.9-0.7-3c0-0.7,0.1-1.3,0.2-2c0.2-0.6,0.4-1.2,0.8-1.8c0.3-0.6,0.8-1.1,1.3-1.7c0.5-0.5,1.1-1,1.7-1.6
			c-1-0.5-1.8-1.2-2.2-1.9c-0.5-0.8-0.7-1.6-0.7-2.5c0-1.3,0.3-2.4,0.8-3.4c0.5-1,1.2-1.9,1.9-2.7c-0.6-0.8-1.1-1.6-1.5-2.6
			s-0.6-2.1-0.6-3.5c0-1.6,0.3-3,0.8-4.3c0.5-1.3,1.3-2.3,2.2-3.2s2.1-1.5,3.4-2s2.8-0.7,4.3-0.7c0.8,0,1.6,0,2.4,0.1
			c0.7,0.1,1.4,0.2,2.1,0.4h8.4c0.4,0,0.6,0.2,0.8,0.5C208,448.1,208.1,448.6,208.1,449.3z M202.7,478.7c0-1.2-0.5-2.1-1.5-2.8
			s-2.3-1-4-1l-7.2-0.2c-0.7,0.5-1.2,1-1.6,1.5c-0.4,0.5-0.8,0.9-1,1.3c-0.2,0.4-0.4,0.8-0.5,1.3s-0.1,0.8-0.1,1.3
			c0,1.3,0.7,2.4,2,3c1.4,0.7,3.3,1,5.7,1c1.5,0,2.8-0.1,3.9-0.4c1-0.3,1.9-0.7,2.5-1.2c0.6-0.5,1.1-1.1,1.4-1.7
			C202.5,480.1,202.7,479.4,202.7,478.7z M200.1,456.6c0-1.9-0.5-3.4-1.6-4.4c-1-1.1-2.5-1.6-4.4-1.6c-1,0-1.9,0.2-2.6,0.5
			c-0.7,0.3-1.3,0.8-1.8,1.4c-0.5,0.6-0.8,1.2-1.1,2c-0.2,0.8-0.4,1.5-0.4,2.4c0,1.8,0.5,3.3,1.6,4.3s2.5,1.6,4.4,1.6
			c1,0,1.9-0.2,2.6-0.5c0.7-0.3,1.4-0.8,1.8-1.3c0.5-0.6,0.8-1.2,1.1-2C200,458.2,200.1,457.4,200.1,456.6z"/>
		<path d="M238.6,475.9c0,0.2,0,0.3-0.1,0.4c-0.1,0.1-0.2,0.2-0.4,0.3s-0.4,0.1-0.8,0.2c-0.3,0-0.7,0.1-1.2,0.1
			c-0.5,0-0.9,0-1.3-0.1c-0.3,0-0.6-0.1-0.8-0.2s-0.3-0.2-0.4-0.3c-0.1-0.1-0.1-0.3-0.1-0.4v-16.3c0-1.6-0.1-2.9-0.4-3.8
			c-0.2-1-0.6-1.8-1.1-2.5c-0.5-0.7-1.1-1.2-1.8-1.6c-0.8-0.4-1.6-0.6-2.6-0.6c-1.3,0-2.6,0.5-3.8,1.4s-2.6,2.2-4,4v19.5
			c0,0.2,0,0.3-0.1,0.4c-0.1,0.1-0.2,0.2-0.4,0.3s-0.4,0.1-0.8,0.2c-0.3,0-0.8,0.1-1.3,0.1c-0.5,0-0.9,0-1.2-0.1
			c-0.3,0-0.6-0.1-0.8-0.2s-0.3-0.2-0.4-0.3s-0.1-0.3-0.1-0.4V448c0-0.2,0-0.3,0.1-0.4c0.1-0.1,0.2-0.2,0.4-0.3s0.4-0.2,0.7-0.2
			c0.3,0,0.7,0,1.1,0c0.5,0,0.8,0,1.1,0c0.3,0,0.5,0.1,0.7,0.2s0.3,0.2,0.4,0.3c0.1,0.1,0.1,0.3,0.1,0.4v3.7c1.6-1.8,3.1-3,4.7-3.9
			c1.6-0.8,3.1-1.2,4.7-1.2c1.9,0,3.4,0.3,4.7,0.9c1.3,0.6,2.3,1.5,3.1,2.5c0.8,1.1,1.3,2.3,1.7,3.7c0.3,1.4,0.5,3.1,0.5,5.1V475.9z
			"/>
		<path d="M268.9,475.9c0,0.2-0.1,0.4-0.2,0.6s-0.4,0.2-0.7,0.3s-0.7,0.1-1.3,0.1c-0.5,0-1,0-1.3-0.1s-0.6-0.2-0.7-0.3
			c-0.1-0.1-0.2-0.3-0.2-0.6v-2.8c-1.2,1.3-2.6,2.3-4.1,3s-3.1,1.1-4.7,1.1c-1.5,0-2.8-0.2-4-0.6c-1.2-0.4-2.2-0.9-3-1.7
			c-0.8-0.7-1.5-1.6-1.9-2.7s-0.7-2.2-0.7-3.6c0-1.6,0.3-2.9,1-4.1c0.6-1.2,1.6-2.1,2.8-2.9c1.2-0.8,2.7-1.3,4.4-1.7
			c1.7-0.4,3.7-0.6,5.8-0.6h3.8v-2.2c0-1.1-0.1-2-0.3-2.8c-0.2-0.8-0.6-1.5-1.1-2.1c-0.5-0.5-1.2-1-2-1.2c-0.8-0.3-1.8-0.4-3-0.4
			c-1.3,0-2.4,0.2-3.4,0.4s-1.9,0.6-2.6,1c-0.8,0.4-1.4,0.7-1.9,1c-0.5,0.3-0.9,0.4-1.1,0.4c-0.2,0-0.3,0-0.4-0.1
			c-0.1-0.1-0.2-0.2-0.3-0.4s-0.2-0.4-0.2-0.6c0-0.3-0.1-0.5-0.1-0.9c0-0.5,0-0.9,0.1-1.2s0.2-0.6,0.5-0.9s0.8-0.6,1.4-0.9
			c0.7-0.4,1.5-0.7,2.4-1c0.9-0.3,1.9-0.5,2.9-0.7c1.1-0.2,2.1-0.3,3.2-0.3c2,0,3.7,0.2,5.1,0.7c1.4,0.5,2.5,1.1,3.4,2
			c0.9,0.9,1.5,2,1.9,3.3c0.4,1.3,0.6,2.8,0.6,4.5V475.9z M263.8,463.2h-4.4c-1.4,0-2.6,0.1-3.6,0.4c-1,0.2-1.9,0.6-2.6,1.1
			s-1.2,1-1.5,1.7c-0.3,0.7-0.5,1.4-0.5,2.2c0,1.4,0.5,2.6,1.4,3.4c0.9,0.9,2.2,1.3,3.9,1.3c1.3,0,2.6-0.3,3.7-1s2.3-1.7,3.6-3.1
			V463.2z"/>
		<path d="M283.3,475.9c0,0.2,0,0.3-0.1,0.4c-0.1,0.1-0.2,0.2-0.4,0.3s-0.4,0.1-0.8,0.2c-0.3,0-0.8,0.1-1.3,0.1
			c-0.5,0-0.9,0-1.2-0.1c-0.3,0-0.6-0.1-0.8-0.2s-0.3-0.2-0.4-0.3s-0.1-0.3-0.1-0.4v-41.3c0-0.2,0-0.3,0.1-0.4s0.2-0.2,0.4-0.3
			c0.2-0.1,0.5-0.1,0.8-0.2c0.3,0,0.7-0.1,1.2-0.1c0.5,0,0.9,0,1.3,0.1c0.3,0,0.6,0.1,0.8,0.2c0.2,0.1,0.3,0.2,0.4,0.3
			c0.1,0.1,0.1,0.3,0.1,0.4V475.9z"/>
	</g>
	<g class="st5">
		<path d="M338.8,456.6c0,0.4,0,0.7-0.1,1s-0.1,0.5-0.2,0.7c-0.1,0.2-0.2,0.3-0.4,0.4c-0.1,0.1-0.3,0.1-0.5,0.1h-10.1v11.3
			c0,0.2,0,0.3-0.1,0.4c-0.1,0.1-0.2,0.2-0.4,0.3c-0.2,0.1-0.4,0.1-0.7,0.2c-0.3,0.1-0.7,0.1-1.1,0.1c-0.4,0-0.8,0-1.1-0.1
			c-0.3-0.1-0.5-0.1-0.7-0.2c-0.2-0.1-0.3-0.2-0.4-0.3c-0.1-0.1-0.1-0.3-0.1-0.4v-11.3h-10.1c-0.2,0-0.3,0-0.5-0.1
			c-0.1-0.1-0.3-0.2-0.4-0.4s-0.2-0.4-0.2-0.7s-0.1-0.6-0.1-1c0-0.4,0-0.7,0.1-1s0.1-0.5,0.2-0.7c0.1-0.2,0.2-0.3,0.4-0.4
			c0.1-0.1,0.3-0.1,0.4-0.1h10.2v-11.3c0-0.2,0-0.3,0.1-0.4c0.1-0.1,0.2-0.2,0.4-0.3c0.2-0.1,0.4-0.2,0.7-0.2s0.7-0.1,1.1-0.1
			c0.4,0,0.8,0,1.1,0.1c0.3,0.1,0.5,0.1,0.7,0.2c0.2,0.1,0.3,0.2,0.4,0.3c0.1,0.1,0.1,0.3,0.1,0.4v11.3h10.2c0.2,0,0.3,0,0.4,0.1
			c0.1,0.1,0.3,0.2,0.4,0.4c0.1,0.2,0.2,0.4,0.2,0.7C338.8,455.9,338.8,456.2,338.8,456.6z"/>
		<path d="M362.5,473.5c-0.1,0.2-0.2,0.4-0.3,0.6c-0.1,0.1-0.3,0.3-0.6,0.3s-0.6,0.1-1,0.2c-0.4,0-0.9,0-1.5,0c-0.5,0-0.9,0-1.2,0
			c-0.3,0-0.6,0-0.9-0.1c-0.2,0-0.5-0.1-0.6-0.1c-0.2-0.1-0.3-0.1-0.4-0.2c-0.1-0.1-0.2-0.2-0.3-0.3s-0.1-0.3-0.2-0.4l-13.1-37.2
			c-0.2-0.5-0.3-0.8-0.3-1.1c0-0.3,0.1-0.5,0.3-0.6c0.2-0.1,0.5-0.2,0.9-0.3c0.4,0,1-0.1,1.7-0.1c0.6,0,1,0,1.4,0
			c0.3,0,0.6,0.1,0.8,0.2s0.3,0.2,0.4,0.3c0.1,0.1,0.2,0.3,0.3,0.5l11.5,33.7h0l11.2-33.6c0.1-0.2,0.1-0.4,0.2-0.6
			c0.1-0.1,0.2-0.3,0.4-0.3s0.5-0.1,0.9-0.2c0.4,0,0.9,0,1.5,0c0.6,0,1.1,0,1.5,0.1c0.4,0.1,0.6,0.2,0.8,0.3
			c0.1,0.1,0.2,0.4,0.2,0.6s-0.1,0.6-0.3,1.1L362.5,473.5z"/>
	</g>
	<g class="st5">
		<path class="st0" d="M129.4,90.4c0.2,0,0.4,0,0.5,0.1s0.3,0.3,0.4,0.5c0.1,0.3,0.2,0.6,0.2,1c0.1,0.4,0.1,1,0.1,1.7
			c0,0.9,0,1.6-0.1,2.1s-0.2,1-0.4,1.2s-0.4,0.5-0.7,0.7l-24.4,17.9h24.4c0.2,0,0.3,0.1,0.5,0.2c0.2,0.1,0.3,0.3,0.4,0.5
			c0.1,0.3,0.2,0.6,0.2,1c0.1,0.4,0.1,0.9,0.1,1.6c0,0.6,0,1.1-0.1,1.5c-0.1,0.4-0.1,0.8-0.2,1c-0.1,0.3-0.2,0.4-0.4,0.5
			c-0.2,0.1-0.3,0.2-0.5,0.2H82.7c-0.2,0-0.4,0-0.5-0.2c-0.2-0.1-0.3-0.3-0.4-0.5c-0.1-0.2-0.2-0.6-0.2-1c-0.1-0.4-0.1-0.9-0.1-1.5
			c0-0.6,0-1.1,0.1-1.6c0.1-0.4,0.1-0.7,0.2-1c0.1-0.2,0.2-0.4,0.4-0.5c0.2-0.1,0.3-0.2,0.5-0.2h21.6L82.7,98.4
			c-0.2-0.2-0.4-0.3-0.6-0.5s-0.3-0.4-0.4-0.7c-0.1-0.3-0.2-0.6-0.2-1.1c0-0.4-0.1-0.9-0.1-1.6s0-1.2,0.1-1.6c0.1-0.4,0.1-0.7,0.2-1
			s0.2-0.4,0.4-0.5s0.3-0.1,0.5-0.1c0.3,0,0.7,0.1,1,0.2c0.3,0.2,0.8,0.5,1.4,0.9l19.3,16.1l23.1-17.4c0.7-0.4,1.1-0.7,1.3-0.8
			C129,90.4,129.2,90.4,129.4,90.4z"/>
		<path class="st0" d="M111.5,66.6h18c0.2,0,0.4,0.1,0.5,0.2c0.2,0.1,0.3,0.3,0.4,0.5c0.1,0.2,0.2,0.6,0.2,1
			c0.1,0.4,0.1,0.9,0.1,1.5c0,0.6,0,1.1-0.1,1.6c-0.1,0.4-0.1,0.7-0.2,1c-0.1,0.3-0.2,0.4-0.4,0.5c-0.2,0.1-0.3,0.1-0.5,0.1h-18
			L84,86.8c-0.6,0.3-1,0.4-1.4,0.5c-0.3,0.1-0.6,0-0.8-0.2c-0.2-0.2-0.3-0.5-0.3-1c0-0.5-0.1-1.1-0.1-2c0-0.8,0-1.4,0.1-1.8
			c0.1-0.5,0.1-0.8,0.2-1.1s0.2-0.5,0.4-0.6c0.2-0.1,0.4-0.3,0.6-0.4l14-6.7c1.3-0.6,2.7-1.2,4.2-1.9s2.9-1.3,4.4-1.9v-0.1
			c-1.4-0.6-2.9-1.2-4.3-1.8c-1.4-0.6-2.8-1.2-4.2-1.9l-14.1-6.8c-0.3-0.1-0.5-0.2-0.6-0.3s-0.3-0.3-0.4-0.6s-0.2-0.6-0.2-1
			c0-0.4-0.1-1-0.1-1.6c0-0.9,0-1.6,0.1-2.1c0.1-0.5,0.2-0.9,0.4-1.1c0.2-0.2,0.4-0.3,0.8-0.2c0.3,0.1,0.8,0.2,1.3,0.5L111.5,66.6z"
			/>
		<path class="st0" d="M111.4,34.4c1,0,1.7,0.1,2,0.3c0.4,0.2,0.6,0.6,0.6,1v15.7c0,0.5-0.2,0.8-0.6,1c-0.4,0.2-1.1,0.3-2,0.3
			c-1,0-1.6-0.1-2-0.3c-0.4-0.2-0.6-0.6-0.6-1V35.7c0-0.2,0-0.4,0.1-0.5s0.2-0.3,0.4-0.4c0.2-0.1,0.5-0.2,0.8-0.3
			S110.9,34.4,111.4,34.4z"/>
		<path class="st0" d="M106-4.6c3.7,0,7.2,0.3,10.2,0.9c3.1,0.6,5.7,1.6,8,2.9s3.9,3.2,5.2,5.4s1.8,4.9,1.8,8.2
			c0,3.1-0.5,5.6-1.6,7.7c-1.1,2.1-2.7,3.8-4.8,5.1c-2.1,1.3-4.7,2.2-7.8,2.7c-3.1,0.5-6.7,0.8-10.7,0.8c-3.7,0-7.1-0.3-10.2-0.9
			c-3.1-0.6-5.8-1.6-8-2.9s-3.9-3.1-5.2-5.3C81.6,17.7,81,15,81,11.8c0-3.1,0.5-5.7,1.6-7.8c1.1-2.1,2.7-3.8,4.8-5.1
			c2.1-1.3,4.7-2.2,7.8-2.7C98.4-4.3,101.9-4.6,106-4.6z M106.4,2c-2.4,0-4.6,0.1-6.5,0.3c-1.9,0.2-3.6,0.4-5.1,0.8
			c-1.5,0.3-2.8,0.8-3.8,1.3c-1.1,0.5-1.9,1.2-2.6,1.9c-0.7,0.8-1.2,1.6-1.5,2.6c-0.3,1-0.5,2.1-0.5,3.3c0,2.1,0.5,3.9,1.5,5.2
			c1,1.3,2.4,2.4,4.1,3.1c1.8,0.8,3.8,1.3,6.2,1.6c2.4,0.3,4.9,0.4,7.6,0.4c3.6,0,6.7-0.2,9.3-0.6c2.5-0.4,4.6-1,6.2-1.8
			c1.6-0.8,2.8-1.9,3.5-3.1c0.7-1.3,1.1-2.8,1.1-4.6c0-1.4-0.2-2.6-0.7-3.7c-0.5-1.1-1.1-2-1.9-2.7s-1.9-1.4-3-1.9
			c-1.2-0.5-2.5-0.9-3.9-1.2s-3-0.5-4.6-0.6C110,2.1,108.2,2,106.4,2z"/>
		<path class="st0" d="M116.5-41.7c2.2,0,4.2,0.4,6,1.2c1.8,0.8,3.3,1.9,4.6,3.4c1.3,1.5,2.3,3.2,3,5.4c0.7,2.1,1,4.5,1,7.2
			c0,1.6-0.1,3.2-0.4,4.6c-0.3,1.4-0.6,2.7-0.9,3.8c-0.4,1.1-0.7,2-1.1,2.7s-0.7,1.2-0.8,1.4c-0.2,0.2-0.4,0.3-0.5,0.4
			s-0.4,0.2-0.6,0.3c-0.2,0.1-0.6,0.1-0.9,0.2c-0.4,0-0.8,0.1-1.3,0.1c-0.9,0-1.5-0.1-1.9-0.3c-0.4-0.2-0.5-0.4-0.5-0.8
			c0-0.2,0.2-0.7,0.6-1.4c0.4-0.7,0.8-1.6,1.3-2.6c0.5-1.1,0.9-2.3,1.3-3.7c0.4-1.4,0.6-3,0.6-4.8c0-1.7-0.2-3.2-0.6-4.5
			s-1-2.4-1.8-3.2c-0.8-0.9-1.7-1.5-2.8-2c-1.1-0.4-2.2-0.7-3.5-0.7c-1.4,0-2.6,0.3-3.7,0.8c-1.1,0.6-2.1,1.4-2.9,2.4
			c-0.8,1.1-1.4,2.4-1.8,4c-0.4,1.6-0.6,3.3-0.6,5.3v4.8c0,0.2,0,0.4-0.1,0.6c-0.1,0.2-0.2,0.4-0.4,0.5c-0.2,0.1-0.5,0.3-0.8,0.3
			s-0.8,0.1-1.3,0.1c-0.5,0-0.9,0-1.2-0.1c-0.3-0.1-0.6-0.2-0.8-0.3c-0.2-0.1-0.3-0.3-0.4-0.5c-0.1-0.2-0.1-0.4-0.1-0.6v-4.3
			c0-1.7-0.2-3.1-0.6-4.5s-1-2.4-1.8-3.3c-0.8-0.9-1.8-1.6-2.9-2.1c-1.1-0.5-2.4-0.7-3.7-0.7c-1,0-2,0.2-2.9,0.5
			c-0.9,0.3-1.7,0.8-2.4,1.5S87.3-29,86.9-28c-0.4,1-0.6,2.2-0.6,3.5c0,1.5,0.2,2.8,0.7,4c0.4,1.2,0.9,2.3,1.4,3.3
			c0.5,1,1,1.7,1.4,2.4c0.4,0.6,0.7,1.1,0.7,1.3c0,0.2,0,0.3-0.1,0.5s-0.2,0.3-0.4,0.3c-0.2,0.1-0.5,0.2-0.8,0.2
			c-0.3,0-0.8,0.1-1.3,0.1c-0.4,0-0.7,0-1,0c-0.3,0-0.5-0.1-0.8-0.2c-0.2-0.1-0.4-0.2-0.6-0.3s-0.4-0.3-0.6-0.5
			c-0.2-0.2-0.6-0.7-1-1.4c-0.5-0.7-0.9-1.6-1.3-2.7c-0.4-1.1-0.8-2.3-1.1-3.7c-0.3-1.4-0.5-2.9-0.5-4.5c0-2.3,0.3-4.2,0.9-5.9
			c0.6-1.7,1.4-3.1,2.4-4.3c1.1-1.1,2.3-2,3.8-2.6c1.5-0.6,3.1-0.8,4.9-0.8c1.5,0,3,0.2,4.3,0.6s2.5,1,3.5,1.8
			c1,0.8,1.9,1.7,2.6,2.9c0.7,1.1,1.2,2.4,1.5,3.9h0.1c0.2-1.7,0.6-3.2,1.3-4.6c0.7-1.4,1.5-2.6,2.5-3.6s2.2-1.8,3.5-2.4
			C113.5-41.4,115-41.7,116.5-41.7z"/>
		<path class="st0" d="M127.9-81.2c0.5,0,0.9,0,1.2,0.1c0.3,0.1,0.6,0.2,0.8,0.3c0.2,0.1,0.3,0.3,0.4,0.4c0.1,0.2,0.1,0.3,0.1,0.5
			v25.4c0,0.2,0,0.3-0.1,0.5s-0.2,0.3-0.4,0.4c-0.2,0.1-0.5,0.2-0.8,0.3c-0.3,0.1-0.7,0.1-1.2,0.1c-0.5,0-0.8,0-1.2-0.1
			s-0.6-0.2-0.8-0.3c-0.2-0.1-0.4-0.3-0.5-0.4c-0.1-0.2-0.2-0.3-0.2-0.5v-10.2h-37l5.6,9.4c0.3,0.5,0.4,0.9,0.5,1.1
			c0,0.3,0,0.5-0.2,0.7c-0.2,0.2-0.4,0.3-0.8,0.4c-0.4,0.1-0.9,0.1-1.4,0.1c-0.4,0-0.8,0-1.1-0.1c-0.3,0-0.6-0.1-0.8-0.2
			c-0.2-0.1-0.4-0.2-0.5-0.3c-0.2-0.1-0.3-0.3-0.5-0.5l-7.2-11.2c-0.1-0.1-0.1-0.2-0.2-0.4c0-0.2-0.1-0.3-0.2-0.6s-0.1-0.5-0.1-0.8
			c0-0.3,0-0.7,0-1.1c0-0.6,0-1.1,0.1-1.5c0.1-0.4,0.1-0.7,0.2-0.9c0.1-0.2,0.2-0.4,0.3-0.5c0.1-0.1,0.3-0.1,0.4-0.1h42.8v-8.8
			c0-0.2,0.1-0.4,0.2-0.6c0.1-0.2,0.3-0.3,0.5-0.4c0.2-0.1,0.5-0.2,0.8-0.3S127.4-81.2,127.9-81.2z"/>
	</g>
	<g class="st5">
		<path class="st0" d="M177.2,255.9c0,2.3-0.4,4.3-1.3,6.1c-0.8,1.8-2,3.3-3.5,4.5s-3.2,2.2-5.3,2.8c-2,0.6-4.2,0.9-6.5,0.9
			c-1.6,0-3.1-0.1-4.5-0.4s-2.6-0.6-3.7-1s-2-0.8-2.7-1.2s-1.3-0.8-1.5-1.1c-0.3-0.3-0.5-0.7-0.6-1.1c-0.1-0.5-0.2-1.1-0.2-1.9
			c0-0.6,0-1,0.1-1.4c0-0.4,0.1-0.7,0.2-0.9c0.1-0.2,0.2-0.4,0.4-0.5c0.2-0.1,0.3-0.1,0.5-0.1c0.4,0,0.8,0.2,1.5,0.6
			c0.6,0.4,1.5,0.9,2.5,1.4s2.2,1,3.6,1.4s3.1,0.7,4.9,0.7c1.4,0,2.7-0.2,3.9-0.6s2.2-0.9,3-1.6s1.5-1.5,1.9-2.5s0.7-2.1,0.7-3.4
			c0-1.4-0.3-2.6-0.9-3.5s-1.5-1.8-2.5-2.6s-2.2-1.4-3.5-2c-1.3-0.6-2.7-1.2-4-1.9c-1.4-0.6-2.7-1.3-4-2.1c-1.3-0.8-2.5-1.7-3.5-2.7
			c-1-1.1-1.9-2.3-2.5-3.7s-1-3.1-1-5.1c0-2,0.4-3.8,1.1-5.4s1.8-2.9,3.1-4s2.9-1.9,4.7-2.5s3.8-0.8,5.9-0.8c1.1,0,2.2,0.1,3.3,0.3
			c1.1,0.2,2.1,0.4,3.1,0.8c1,0.3,1.8,0.7,2.6,1.1c0.8,0.4,1.2,0.7,1.5,0.9s0.4,0.4,0.5,0.6s0.1,0.3,0.2,0.5c0,0.2,0.1,0.5,0.1,0.8
			c0,0.3,0,0.7,0,1.2c0,0.5,0,0.9-0.1,1.2c0,0.4-0.1,0.6-0.2,0.9s-0.2,0.4-0.3,0.5c-0.1,0.1-0.3,0.2-0.5,0.2c-0.3,0-0.7-0.2-1.3-0.5
			c-0.6-0.4-1.3-0.7-2.2-1.2c-0.9-0.4-1.9-0.8-3-1.2c-1.2-0.4-2.5-0.5-3.9-0.5c-1.4,0-2.5,0.2-3.5,0.5c-1,0.4-1.8,0.8-2.5,1.4
			c-0.7,0.6-1.1,1.3-1.5,2.1c-0.3,0.8-0.5,1.7-0.5,2.6c0,1.4,0.3,2.5,0.9,3.5c0.6,1,1.5,1.8,2.5,2.6c1,0.8,2.2,1.4,3.6,2.1
			c1.3,0.6,2.7,1.3,4.1,1.9s2.7,1.3,4.1,2.1c1.3,0.8,2.5,1.7,3.6,2.7c1,1,1.9,2.3,2.5,3.7C176.8,252.3,177.2,254,177.2,255.9z"/>
	</g>
	<g class="st5">
		<path class="st0" d="M555.2,247.6c0,1-0.3,1.7-0.8,2c-0.6,0.4-1.4,0.6-2.4,0.6h-39.1c-1.1,0-2-0.2-2.5-0.6c-0.6-0.4-0.8-1.1-0.8-2
			c0-1,0.3-1.6,0.8-2c0.6-0.4,1.4-0.6,2.5-0.6h39.1c0.5,0,0.9,0,1.4,0.1c0.4,0.1,0.7,0.2,1,0.4c0.3,0.2,0.5,0.5,0.7,0.8
			C555.1,246.7,555.2,247.2,555.2,247.6z"/>
	</g>
	<rect id="rect884" x="-0.3" y="-585.4" width="688.9" height="147.9"/>
	<rect id="rect88" x="10" y="-571.8" class="st6" width="667.7" height="121.4"/>
	<path id="rect90" inkscape:connector-curvature="0" class="st7" d="M40.3-547.5v69.1v30.5h30.4v-30.5h546.9v30.5h29.7v-30.5v-69.1
		h-29.7H70.7H40.3z"/>
	<polygon id="rect1082" inkscape:transform-center-x="80.500119" inkscape:transform-center-y="-130.00033" class="st2" points="
		40.3,-448.5 50.6,-448.5 246.1,-132.9 235.8,-132.9 	">
	</polygon>
	<polygon id="rect1084" inkscape:transform-center-x="-80.245156" inkscape:transform-center-y="-130.00044" class="st2" points="
		637,-448.5 647.3,-448.5 452.5,-132.9 442.2,-132.9 	">
	</polygon>
</g>
</svg>
