<?xml version="1.0" encoding="utf-8"?>
<!-- Generator: Adobe Illustrator 27.8.0, SVG Export Plug-In . SVG Version: 6.00 Build 0)  -->
<svg version="1.1"
	 id="svg8" xmlns:svg="http://www.w3.org/2000/svg" xmlns:rdf="http://www.w3.org/1999/02/22-rdf-syntax-ns#" xmlns:sodipodi="http://sodipodi.sourceforge.net/DTD/sodipodi-0.dtd" xmlns:dc="http://purl.org/dc/elements/1.1/" xmlns:inkscape="http://www.inkscape.org/namespaces/inkscape" xmlns:cc="http://creativecommons.org/ns#" inkscape:export-xdpi="93" inkscape:export-ydpi="93" inkscape:version="0.92.4 (5da689c313, 2019-01-14)"
	 xmlns="http://www.w3.org/2000/svg" xmlns:xlink="http://www.w3.org/1999/xlink" x="0px" y="0px" viewBox="0 0 640 1081"
	 style="enable-background:new 0 0 640 1081;" xml:space="preserve">
<style type="text/css">
	.st0{fill:#FFFFFF;}
	.st1{fill:#1A1A1A;}
	.st2{opacity:0.99;enable-background:new    ;}
	.st3{fill:#CCCCCC;}
	.st4{opacity:0.99;fill:#808080;enable-background:new    ;}
	.st5{opacity:0.99;fill:#CCCCCC;enable-background:new    ;}
	.st6{opacity:0.99;fill:#FFFFFF;enable-background:new    ;}
	.st7{fill:#333333;}
	.st8{enable-background:new    ;}
</style>
<defs>
	
		<inkscape:perspective  id="perspective876" inkscape:persp3d-origin="105 : 98.999998 : 1" inkscape:vp_x="0 : 148.5 : 1" inkscape:vp_y="0 : 999.99997 : 0" inkscape:vp_z="210.00001 : 148.5 : 1" sodipodi:type="inkscape:persp3d">
		</inkscape:perspective>
</defs>
<sodipodi:namedview  bordercolor="#666666" borderopacity="1.0" id="base" inkscape:current-layer="layer1" inkscape:cx="-604.97056" inkscape:cy="1965.7184" inkscape:document-units="mm" inkscape:lockguides="true" inkscape:pageopacity="0.0" inkscape:pageshadow="2" inkscape:window-height="1017" inkscape:window-maximized="1" inkscape:window-width="1920" inkscape:window-x="-8" inkscape:window-y="-8" inkscape:zoom="0.24748737" pagecolor="#ffffff" showgrid="false" showguides="true" width="500mm">
	</sodipodi:namedview>
<g id="layer1" transform="translate(0.31582593,462.81107)" inkscape:groupmode="layer" inkscape:label="Ebene 1">
	<rect id="rect815" x="-0.3" y="-450.6" width="640.7" height="861"/>
	<rect id="rect821" x="151.2" y="270.3" class="st0" width="333.4" height="114.8"/>
	<path id="rect825" class="st1" d="M173,276.7h66.8c11.7,0,21.1,9.5,21.1,21.1v58.6c0,11.7-9.5,21.1-21.1,21.1H173
		c-11.7,0-21.1-9.5-21.1-21.1v-58.6C151.9,286.2,161.4,276.7,173,276.7z"/>
	<rect id="rect831" x="89.7" y="30.7" class="st0" width="456.1" height="114.8"/>
	<rect id="rect833" x="89.7" y="-89.1" class="st0" width="456.1" height="114.8"/>
	<rect id="rect837" x="89.7" y="-208.9" class="st0" width="456.1" height="114.8"/>
	<path id="rect872" class="st1" d="M395.7,276.7h66.8c11.7,0,21.1,9.5,21.1,21.1v58.6c0,11.7-9.5,21.1-21.1,21.1h-66.8
		c-11.7,0-21.1-9.5-21.1-21.1v-58.6C374.6,286.2,384.1,276.7,395.7,276.7z"/>
	<path id="rect874" class="st1" d="M281.7,276.7h72.3c10.2,0,18.4,8.2,18.4,18.4v64.1c0,10.2-8.2,18.4-18.4,18.4h-72.3
		c-10.2,0-18.4-8.2-18.4-18.4v-64.1C263.3,285,271.5,276.7,281.7,276.7z"/>
	<rect id="rect892" x="96" y="34.2" class="st2" width="446.5" height="105.9"/>
	<path id="rect836" class="st3" d="M149,34.2h27.3c29.3,0,53,23.7,53,53l0,0c0,29.3-23.7,53-53,53H149c-29.3,0-53-23.7-53-53l0,0
		C96,57.9,119.7,34.2,149,34.2z"/>
	<rect id="rect850" x="238" y="34.2" class="st3" width="133.2" height="105.9"/>
	<rect id="rect848" x="392.2" y="38.1" class="st3" width="147" height="97.9"/>
	<rect id="rect892-7" x="94.6" y="-85" class="st2" width="446.5" height="105.9"/>
	<rect id="rect892-72" x="94.5" y="-204.1" class="st2" width="446.5" height="105.9"/>
	<path id="rect836-7" class="st3" d="M148.4-84.8h27.3c29.3,0,53,23.7,53,53l0,0c0,29.3-23.7,53-53,53h-27.3c-29.3,0-53-23.7-53-53
		l0,0C95.4-61.1,119.1-84.8,148.4-84.8z"/>
	<path id="rect836-6" class="st3" d="M290.4-84.8h27.3c29.3,0,53,23.7,53,53l0,0c0,29.3-23.7,53-53,53h-27.3c-29.3,0-53-23.7-53-53
		l0,0C237.4-61.1,261.1-84.8,290.4-84.8z"/>
	<path id="rect939" class="st3" d="M290.4-205.1h27.3c29.3,0,53,23.7,53,53l0,0c0,29.3-23.7,53-53,53h-27.3c-29.3,0-53-23.7-53-53
		l0,0C237.4-181.4,261.1-205.1,290.4-205.1z"/>
	<path id="rect941" class="st3" d="M146.8-205.1H174c29.3,0,53,23.7,53,53l0,0c0,29.3-23.7,53-53,53h-27.3c-29.3,0-53-23.7-53-53
		l0,0C93.8-181.4,117.5-205.1,146.8-205.1z"/>
	<rect id="rect943" x="392.2" y="-80.1" class="st3" width="147" height="97.9"/>
	<rect id="rect945" x="392.2" y="-200.4" class="st3" width="147" height="97.9"/>
	<rect id="rect947" x="200.3" y="331.6" class="st4" width="12.1" height="210.4"/>
	<rect id="rect949" x="312.3" y="331.6" class="st4" width="12.1" height="210.4"/>
	<rect id="rect951" x="423" y="331.6" class="st4" width="12.1" height="210.4"/>
	<g id="flowRoot969" transform="translate(0,0.52900899)">
	</g>
	<ellipse id="path1456" class="st5" cx="89.4" cy="-268.2" rx="58.4" ry="57.2"/>
	<ellipse id="ellipse1458" class="st5" cx="544.5" cy="-268.2" rx="58.4" ry="57.2"/>
	<ellipse id="path1460" class="st6" cx="89.3" cy="-268.3" rx="52.7" ry="51.6"/>
	<ellipse id="ellipse1464" class="st6" cx="544.5" cy="-268.3" rx="52.7" ry="51.6"/>
	<g id="flowRoot1466" transform="translate(0,0.52900899)">
	</g>
	<circle id="circle1502" class="st6" cx="161.1" cy="-31.7" r="49.8"/>
	<circle id="circle1504" class="st6" cx="161.8" cy="87.2" r="49.8"/>
	<circle id="circle1508" class="st6" cx="303.3" cy="-32.5" r="49.8"/>
	<circle id="circle1510" class="st6" cx="303.3" cy="87.2" r="49.8"/>
	<circle id="circle1514" class="st6" cx="466.6" cy="87.2" r="49.8"/>
	<circle id="circle1516" class="st6" cx="466.6" cy="-31.7" r="49.8"/>
	<g id="flowRoot1529" transform="translate(0,0.52900899)">
	</g>
	<rect id="rect74" x="298.2" y="-159.7" class="st4" width="12.1" height="31.9"/>
	
		<rect id="rect82" x="298.4" y="-103.5" transform="matrix(0.7667 -0.642 0.642 0.7667 156.7293 236.3841)" class="st4" width="210.4" height="12.1"/>
	
		<rect id="rect84" x="228.7" y="-202.6" transform="matrix(0.642 -0.7667 0.7667 0.642 158.7565 145.0639)" class="st4" width="12.1" height="210.4"/>
	<path id="rect1512" class="st7" d="M141.9-128.9v87.5v0.8h0c0.3,60.7,34.1,116.6,88.9,147c55,30.5,122.8,30.5,177.8,0
		c54.7-30.4,88.6-86.3,88.8-147h0v-0.8v-87.5H141.9z"/>
	<path id="path31" inkscape:connector-curvature="0" class="st0" d="M181.8-382.8c4-0.1,4.4-0.1,5.1-0.6c0.4-0.3,1-0.8,1.3-1.3
		c0.4-0.7,0.5-1.2,0.5-9.3l0.1-8.6l8.5,0l8.5,0v10.7c0,11.8-0.1,12.9-1.3,16c-1.6,4.1-4,5.9-8.8,7.1c-1.3,0.3-2.8,0.4-7.7,0.3
		c-3.4,0-7-0.1-8.2-0.2l-2.1-0.2l-0.1-7l-0.1-7L181.8-382.8L181.8-382.8z M262.4-358.8c72.2,0,90,0.1,87,0.4l-0.5,0l0.5,0.2
		c0.4,0.2,0.3,0.2-0.3,0.3c-0.5,0-0.3,0.1,0.7,0.2l1.5,0.1l-1.5,0.1c-0.8,0-1.3,0.1-1.1,0.2c0.3,0.1,0.4,0.4,0.4,2
		c0,1.9,0,1.9,0.6,2c0.4,0.1,0.3,0.1-0.3,0.1c-0.5,0-1,0.1-1,0.3c0,0.2-28.6,0.2-85.4,0.2h-85.4v-3.1v-3.1L262.4-358.8z
		 M197.3-424.6h8.5v6.9v6.9h-8.5h-8.5v-6.9v-6.9H197.3z M214.5-399c0.6-3.9,1.7-7.4,3.3-10.5c0.6-1.1,1.1-2.1,1.2-2.2
		c0.1-0.1,0.5-0.7,1-1.4c0.9-1.4,2.9-3.9,3.4-4.2c0.2-0.1,0.3-0.3,0.3-0.4c0-0.3,2.1-2.2,3.8-3.4c1.8-1.3,3.2-2,6.3-3.2
		c3.7-1.4,5.8-1.7,10.3-1.5c3.2,0.1,4,0.2,6,0.8c1.3,0.4,2.8,0.9,3.4,1.2s1.2,0.5,1.4,0.5c0.1,0,1.1,0.5,2.1,1.1
		c4.1,2.4,9.7,8.7,11.8,13.4c3.4,7.4,3.8,14.8,1.2,21.6c-1.1,2.9-1.8,4.5-3.1,6.5c-1.4,2.3-1.6,2.5-5.1,5.9c-4,4-6.9,5.6-12.1,7.1
		c-2.7,0.7-7.9,1-10.8,0.6c-3.7-0.6-8.6-2.6-11.6-4.9c-1.6-1.2-3.7-3-3.7-3.2c0-0.1-0.5-0.6-1.2-1.3c-3.1-3.1-6.2-9.2-7.4-14.3
		C214.6-392.6,214.3-397.6,214.5-399L214.5-399z M230.8-391.8c0.8,3.2,2.5,6,5,8.4c2.6,2.5,6.6,3.4,10.2,2.3c3.9-1.2,7.7-5.7,9-10.6
		c0.7-2.8,0.7-6.9-0.1-9.6c-1.1-3.8-3.1-6.8-6-8.8c-1.3-0.9-1.9-1.2-3.2-1.4c-2.9-0.5-5.9-0.2-7.9,0.8c-1.8,0.9-4.1,3.5-5.5,6.1
		C230.2-400.7,229.7-396.1,230.8-391.8L230.8-391.8z M278.8-424.5c0.2-0.1,4-0.1,8.6,0l8.3,0.1l0,7.6c0,7.2,0.1,7.7,0.5,9
		c1.2,3.2,5.1,5,8.5,3.9c1.8-0.6,3-1.6,3.8-3.3l0.8-1.5l0.1-7.9l0.1-7.9h8.5h8.5l-0.1,8.9c-0.1,8.3-0.1,9.1-0.6,10.8
		c-1,3.4-2.5,6.5-4.4,8.8c-0.5,0.6-0.9,1.2-0.9,1.3c0,0.3-2.2,2.2-4.1,3.6c-1.6,1.2-3.9,2.4-5.1,2.7c-0.4,0.1-1.5,0.4-2.6,0.8
		c-1.8,0.6-2.3,0.6-6.1,0.6c-3.9,0-4.3,0-6.5-0.6c-3.4-1-4.5-1.4-6.8-2.9c-2.6-1.7-4.7-3.8-6.5-6.5c-2.5-3.7-3.6-6.5-4.1-10.8
		C278.4-410.8,278.4-424.4,278.8-424.5L278.8-424.5z M302.6-382.5h14v7.2v7.2h-14h-14v-7.2v-7.2H302.6z M326.4-435.6
		c0.1,0,0.2-0.4,0.2-0.9c0-0.9,0-0.9,1.1-1c0.6-0.1,24.2-0.1,52.5-0.1l51.4,0l-0.1,3.1l-0.1,3.1h-52.3c-28.8,0-52.5-0.1-52.7-0.1
		c-0.3-0.1-0.4-0.5-0.4-2C326.2-434.8,326.3-435.6,326.4-435.6L326.4-435.6z M350-401.2h17.8v7.1v7.1H350h-17.8v-7.1v-7.1H350z
		 M381.8-424.6h8.5v6.9v6.9h-8.5h-8.5v-6.9v-6.9H381.8z M381.8-403.5h8.5v18v18h-8.5h-8.5v-18v-18H381.8z M415.8-424.6h17.9v6.9v6.9
		h-17.9h-17.9v-6.9v-6.9H415.8z M400.9-402.4c0.1-0.1,3.9-0.1,8.4-0.1l8.2,0l0.1,8.2c0.1,11.6-0.4,10.9,8.3,11l5.5,0.1v7.2v7.2
		l-2,0.3c-3.1,0.4-12.8,0.3-15.5-0.1c-4.5-0.7-7.5-2.1-9.5-4.5c-2-2.5-3-5-3.5-8.9C400.6-384.5,400.6-402.3,400.9-402.4L400.9-402.4
		z M443.7-431.4c0.4-1.5,1.3-3,2.2-3.8c3.9-3.4,8.5-3.8,12.3-1c1.8,1.3,2.2,1.8,3,3.4c0.6,1.2,0.6,1.6,0.6,3.8
		c0,2.1-0.1,2.5-0.7,3.8c-1.3,2.8-4.6,5-7.8,5.2c-3,0.2-5.3-0.7-7.6-2.9C443.7-424.9,442.8-428.5,443.7-431.4L443.7-431.4z
		 M445.4-425.6c0.8,1.8,3.2,3.6,5.7,4.2c2.5,0.6,4.4,0.1,7.2-1.9c0.7-0.5,1.2-1.1,1.7-2.2c0.7-1.4,0.8-1.8,0.8-3.5
		c0-1.8-0.1-2.1-0.8-3.5c-0.7-1.3-1.1-1.7-2.2-2.5c-0.8-0.5-1.9-1.1-2.5-1.4c-3.9-1.3-8.6,0.8-10.1,4.6
		C444.5-430.4,444.6-427.3,445.4-425.6L445.4-425.6z M451.7-434.4c1.7,0,3.4,0.1,3.7,0.2c1.4,0.5,2,3.2,1,4.4
		c-0.3,0.3-0.8,0.7-1.3,0.9l-0.8,0.3l0.8,0.9c0.4,0.5,1.1,1.4,1.5,2.1c0.4,0.7,0.8,1.3,0.9,1.4c0.5,0.3,0.1,0.6-0.8,0.5l-1,0
		l-1.4-2.2c-1.5-2.3-1.8-2.6-3.5-2.6h-1v2.4v2.4l-0.7-0.1l-0.7-0.1l-0.1-5.3l-0.1-5.3L451.7-434.4z M452.1-429.9
		c1.7,0,2.1-0.1,2.7-0.5c1.3-1,0.5-2.6-1.3-2.8c-0.8-0.1-2.9,0-3.4,0.1c0,0-0.1,0.7-0.1,1.6v1.6L452.1-429.9z"/>
	<g id="flowRoot79" transform="matrix(0.26458333,0,0,0.26458333,-0.31582593,-402.81107)">
	</g>
	<g class="st8">
		<path d="M153.1,559.5c0,0.5,0,0.9-0.1,1.2c0,0.4-0.1,0.6-0.2,0.9c-0.1,0.2-0.2,0.4-0.4,0.5s-0.3,0.1-0.5,0.1
			c-0.3,0-0.8-0.2-1.4-0.7s-1.6-1-2.7-1.5c-1.1-0.6-2.5-1.1-4.1-1.5c-1.6-0.5-3.5-0.7-5.6-0.7c-2.6,0-4.9,0.5-7,1.4
			c-2.1,0.9-3.8,2.2-5.2,3.9c-1.4,1.7-2.5,3.6-3.3,5.9c-0.8,2.3-1.1,4.8-1.1,7.5c0,3,0.4,5.7,1.2,8c0.8,2.3,2,4.3,3.5,5.9
			c1.5,1.6,3.2,2.8,5.3,3.6c2,0.8,4.3,1.2,6.7,1.2c1.4,0,2.9-0.2,4.4-0.5c1.5-0.4,2.9-0.9,4.1-1.6v-13.7h-10.9
			c-0.4,0-0.7-0.2-0.9-0.6c-0.2-0.4-0.3-1.1-0.3-1.9c0-0.5,0-0.9,0.1-1.2c0-0.3,0.1-0.6,0.2-0.8c0.1-0.2,0.2-0.4,0.4-0.5
			c0.1-0.1,0.3-0.1,0.5-0.1h14.9c0.3,0,0.5,0,0.8,0.1c0.3,0.1,0.5,0.2,0.7,0.4s0.4,0.5,0.5,0.8c0.1,0.3,0.2,0.7,0.2,1.2v17.9
			c0,0.6-0.1,1.2-0.3,1.6s-0.7,0.9-1.4,1.2s-1.6,0.7-2.7,1.1c-1.1,0.4-2.3,0.8-3.4,1.1c-1.2,0.3-2.4,0.5-3.6,0.7
			c-1.2,0.1-2.4,0.2-3.6,0.2c-3.6,0-6.9-0.6-9.7-1.7c-2.9-1.1-5.3-2.7-7.2-4.8c-2-2.1-3.5-4.6-4.5-7.5s-1.6-6.1-1.6-9.7
			c0-3.7,0.6-7.1,1.7-10.1s2.7-5.6,4.7-7.7c2-2.1,4.5-3.8,7.4-4.9c2.9-1.2,6-1.8,9.5-1.8c1.8,0,3.5,0.2,5,0.5c1.6,0.3,3,0.7,4.2,1.1
			c1.2,0.4,2.2,0.9,3.1,1.4c0.8,0.5,1.4,0.9,1.7,1.2c0.3,0.3,0.5,0.7,0.7,1.1C153,558.1,153.1,558.7,153.1,559.5z"/>
		<path d="M200.1,597.4c0,0.5-0.1,0.9-0.2,1.2c-0.2,0.3-0.4,0.6-0.6,0.8c-0.3,0.2-0.6,0.4-0.9,0.5c-0.3,0.1-0.6,0.1-1,0.1h-2.1
			c-0.6,0-1.2-0.1-1.7-0.2c-0.5-0.1-0.9-0.4-1.4-0.7c-0.4-0.3-0.9-0.8-1.3-1.4s-0.9-1.4-1.4-2.3l-14.3-26.7
			c-0.7-1.4-1.5-2.8-2.3-4.3s-1.5-3-2.1-4.4h-0.1c0,1.7,0.1,3.5,0.1,5.3c0,1.8,0,3.6,0,5.4V599c0,0.2-0.1,0.3-0.2,0.5
			c-0.1,0.2-0.3,0.3-0.5,0.4c-0.2,0.1-0.6,0.2-1,0.2c-0.4,0.1-0.9,0.1-1.5,0.1c-0.6,0-1.1,0-1.5-0.1c-0.4-0.1-0.7-0.1-0.9-0.2
			c-0.2-0.1-0.4-0.2-0.5-0.4c-0.1-0.2-0.2-0.3-0.2-0.5v-43.3c0-1,0.3-1.7,0.8-2.1c0.5-0.4,1.1-0.6,1.8-0.6h3.1
			c0.7,0,1.3,0.1,1.8,0.2s0.9,0.3,1.3,0.6c0.4,0.3,0.8,0.7,1.1,1.2c0.4,0.5,0.7,1.1,1.1,1.9l11,20.6c0.7,1.3,1.3,2.5,2,3.7
			c0.6,1.2,1.2,2.4,1.8,3.5c0.6,1.2,1.2,2.3,1.7,3.4s1.1,2.3,1.7,3.4h0c0-1.9-0.1-3.9-0.1-6c0-2.1,0-4.1,0-6v-25.4
			c0-0.2,0.1-0.3,0.2-0.5s0.3-0.3,0.5-0.4c0.2-0.1,0.6-0.2,1-0.2c0.4,0,0.9-0.1,1.5-0.1c0.6,0,1,0,1.5,0.1c0.4,0,0.7,0.1,1,0.2
			c0.2,0.1,0.4,0.2,0.5,0.4c0.1,0.1,0.2,0.3,0.2,0.5V597.4z"/>
		<path d="M248.6,575.8c0,4.1-0.5,7.6-1.6,10.6c-1,3-2.6,5.5-4.5,7.5c-2,2-4.4,3.5-7.3,4.5s-6.4,1.5-10.4,1.5h-9.9
			c-0.6,0-1.1-0.2-1.6-0.6c-0.5-0.4-0.7-1-0.7-2v-41.8c0-0.9,0.2-1.6,0.7-2c0.5-0.4,1-0.6,1.6-0.6h10.6c4.1,0,7.5,0.5,10.3,1.6
			c2.8,1.1,5.2,2.6,7,4.5c1.9,2,3.3,4.4,4.3,7.2C248.1,569.1,248.6,572.3,248.6,575.8z M242,576.1c0-2.5-0.3-4.9-0.9-7.1
			c-0.6-2.2-1.6-4.1-3-5.7c-1.3-1.6-3-2.8-5.1-3.7c-2.1-0.9-4.7-1.3-7.9-1.3h-6.3v36.5h6.4c3,0,5.5-0.4,7.6-1.1
			c2.1-0.7,3.8-1.9,5.1-3.4c1.4-1.5,2.4-3.5,3.1-5.8S242,579.3,242,576.1z"/>
	</g>
	<g class="st8">
		<path d="M313.7,579.5c0,0.5,0,0.9-0.1,1.2c-0.1,0.3-0.2,0.6-0.3,0.8c-0.1,0.2-0.3,0.4-0.4,0.5c-0.2,0.1-0.4,0.1-0.5,0.1h-11.9
			v13.2c0,0.2,0,0.4-0.1,0.5c-0.1,0.1-0.2,0.2-0.5,0.3c-0.2,0.1-0.5,0.2-0.8,0.2c-0.3,0.1-0.8,0.1-1.3,0.1c-0.5,0-0.9,0-1.2-0.1
			c-0.4-0.1-0.6-0.1-0.8-0.2c-0.2-0.1-0.4-0.2-0.5-0.3s-0.1-0.3-0.1-0.5v-13.2h-11.9c-0.2,0-0.4,0-0.6-0.1c-0.2-0.1-0.3-0.3-0.4-0.5
			c-0.1-0.2-0.2-0.5-0.3-0.8c-0.1-0.3-0.1-0.7-0.1-1.2c0-0.4,0-0.8,0.1-1.1c0.1-0.3,0.2-0.6,0.3-0.8c0.1-0.2,0.3-0.4,0.4-0.5
			c0.2-0.1,0.3-0.1,0.5-0.1h11.9v-13.2c0-0.2,0-0.4,0.1-0.5c0.1-0.2,0.2-0.3,0.5-0.4c0.2-0.1,0.5-0.2,0.8-0.3
			c0.3-0.1,0.8-0.1,1.2-0.1c0.5,0,0.9,0,1.3,0.1c0.3,0.1,0.6,0.1,0.8,0.3s0.4,0.2,0.5,0.4c0.1,0.2,0.1,0.3,0.1,0.5V577h11.9
			c0.2,0,0.4,0,0.5,0.1c0.2,0.1,0.3,0.3,0.4,0.5c0.1,0.2,0.2,0.5,0.3,0.8C313.7,578.7,313.7,579.1,313.7,579.5z"/>
		<path d="M341.5,599.3c-0.1,0.3-0.2,0.5-0.4,0.7s-0.4,0.3-0.7,0.4c-0.3,0.1-0.7,0.2-1.2,0.2s-1.1,0.1-1.8,0.1c-0.5,0-1,0-1.4,0
			c-0.4,0-0.7,0-1-0.1s-0.5-0.1-0.7-0.2c-0.2-0.1-0.4-0.1-0.5-0.2c-0.1-0.1-0.3-0.2-0.3-0.3c-0.1-0.1-0.2-0.3-0.2-0.5l-15.3-43.6
			c-0.2-0.5-0.3-1-0.3-1.3c0-0.3,0.1-0.6,0.3-0.7s0.6-0.3,1.1-0.3c0.5,0,1.1-0.1,2-0.1c0.7,0,1.2,0,1.6,0.1c0.4,0,0.7,0.1,0.9,0.2
			c0.2,0.1,0.4,0.2,0.5,0.4c0.1,0.2,0.2,0.4,0.3,0.6l13.4,39.5h0l13.1-39.4c0.1-0.3,0.2-0.5,0.3-0.7s0.3-0.3,0.5-0.4
			c0.2-0.1,0.6-0.2,1-0.2c0.4,0,1-0.1,1.7-0.1c0.7,0,1.3,0,1.8,0.1s0.7,0.2,0.9,0.3s0.2,0.4,0.2,0.7c0,0.3-0.2,0.8-0.3,1.3
			L341.5,599.3z"/>
	</g>
	<g class="st8">
		<path d="M408.6,587.2c0,2.2-0.4,4.2-1.2,5.9s-1.9,3.2-3.4,4.4c-1.4,1.2-3.1,2.1-5.1,2.7c-1.9,0.6-4,0.9-6.3,0.9
			c-1.6,0-3-0.1-4.4-0.4c-1.3-0.3-2.5-0.6-3.6-1c-1.1-0.4-1.9-0.8-2.6-1.2s-1.2-0.8-1.5-1.1s-0.5-0.7-0.6-1.1
			c-0.1-0.4-0.2-1-0.2-1.8c0-0.5,0-1,0.1-1.3c0-0.3,0.1-0.6,0.2-0.9c0.1-0.2,0.2-0.4,0.4-0.5s0.3-0.1,0.5-0.1c0.3,0,0.8,0.2,1.4,0.6
			s1.4,0.9,2.4,1.3c1,0.5,2.1,0.9,3.5,1.4c1.4,0.4,2.9,0.6,4.7,0.6c1.4,0,2.6-0.2,3.7-0.5c1.1-0.4,2.1-0.9,2.9-1.5
			c0.8-0.7,1.4-1.5,1.9-2.4c0.4-1,0.7-2.1,0.7-3.3c0-1.3-0.3-2.5-0.9-3.4c-0.6-0.9-1.4-1.8-2.4-2.5c-1-0.7-2.1-1.4-3.4-2
			c-1.3-0.6-2.6-1.2-3.9-1.8c-1.3-0.6-2.6-1.3-3.9-2c-1.3-0.7-2.4-1.6-3.4-2.6s-1.8-2.2-2.4-3.6c-0.6-1.4-0.9-3-0.9-4.9
			c0-2,0.4-3.7,1.1-5.2c0.7-1.5,1.7-2.8,3-3.9c1.3-1,2.8-1.8,4.5-2.4c1.8-0.5,3.6-0.8,5.7-0.8c1,0,2.1,0.1,3.1,0.3
			c1.1,0.2,2,0.4,3,0.7c0.9,0.3,1.8,0.6,2.5,1c0.7,0.4,1.2,0.7,1.4,0.9c0.2,0.2,0.4,0.4,0.5,0.5s0.1,0.3,0.2,0.5
			c0,0.2,0.1,0.5,0.1,0.7c0,0.3,0,0.7,0,1.1c0,0.4,0,0.8-0.1,1.2c0,0.3-0.1,0.6-0.2,0.9c-0.1,0.2-0.2,0.4-0.3,0.5
			c-0.1,0.1-0.3,0.2-0.5,0.2c-0.3,0-0.7-0.2-1.2-0.5c-0.6-0.3-1.3-0.7-2.1-1.1c-0.8-0.4-1.8-0.8-2.9-1.2c-1.1-0.3-2.4-0.5-3.8-0.5
			c-1.3,0-2.4,0.2-3.4,0.5c-1,0.4-1.8,0.8-2.4,1.4c-0.6,0.6-1.1,1.3-1.4,2.1c-0.3,0.8-0.5,1.6-0.5,2.5c0,1.3,0.3,2.4,0.9,3.4
			c0.6,0.9,1.4,1.8,2.4,2.5s2.1,1.4,3.4,2c1.3,0.6,2.6,1.2,3.9,1.8c1.3,0.6,2.6,1.3,3.9,2c1.3,0.7,2.4,1.6,3.4,2.6
			c1,1,1.8,2.2,2.4,3.6C408.3,583.8,408.6,585.4,408.6,587.2z"/>
		<path d="M423.5,555.9c0,1.4-0.3,2.4-0.8,2.9c-0.5,0.5-1.5,0.8-2.9,0.8c-1.4,0-2.4-0.2-2.9-0.7s-0.8-1.4-0.8-2.8
			c0-1.4,0.3-2.4,0.8-2.9c0.5-0.5,1.5-0.8,2.9-0.8c1.4,0,2.4,0.2,2.9,0.7C423.2,553.6,423.5,554.5,423.5,555.9z M422.8,599.5
			c0,0.2,0,0.4-0.1,0.5c-0.1,0.1-0.3,0.2-0.5,0.3c-0.2,0.1-0.5,0.2-0.9,0.2c-0.4,0-0.9,0.1-1.5,0.1c-0.6,0-1.1,0-1.4-0.1
			c-0.4,0-0.7-0.1-0.9-0.2c-0.2-0.1-0.4-0.2-0.5-0.3c-0.1-0.1-0.1-0.3-0.1-0.5v-32.6c0-0.2,0-0.3,0.1-0.5c0.1-0.1,0.2-0.3,0.5-0.4
			s0.5-0.2,0.9-0.2c0.4,0,0.9-0.1,1.4-0.1c0.6,0,1.1,0,1.5,0.1c0.4,0,0.7,0.1,0.9,0.2s0.4,0.2,0.5,0.4c0.1,0.1,0.1,0.3,0.1,0.5
			V599.5z"/>
		<path d="M461.1,568.4c0,0.8-0.1,1.5-0.3,1.8c-0.2,0.4-0.5,0.6-0.9,0.6h-4.7c0.8,0.9,1.4,1.8,1.8,2.9c0.3,1.1,0.5,2.1,0.5,3.3
			c0,1.9-0.3,3.6-0.9,5c-0.6,1.4-1.5,2.7-2.6,3.7c-1.1,1-2.5,1.8-4,2.3s-3.3,0.8-5.1,0.8c-1.3,0-2.6-0.2-3.8-0.5
			c-1.2-0.3-2.1-0.8-2.8-1.3c-0.4,0.4-0.8,0.9-1.1,1.5s-0.4,1.2-0.4,1.9c0,0.8,0.4,1.5,1.2,2.1c0.8,0.6,1.8,0.9,3.1,0.9l8.5,0.4
			c1.6,0,3.1,0.3,4.5,0.7s2.5,1,3.5,1.7c1,0.7,1.8,1.6,2.3,2.7s0.8,2.3,0.8,3.8c0,1.5-0.3,2.9-0.9,4.3c-0.6,1.4-1.6,2.5-2.9,3.6
			c-1.3,1-2.9,1.8-4.9,2.4s-4.4,0.9-7.1,0.9c-2.6,0-4.9-0.2-6.7-0.7c-1.8-0.4-3.4-1.1-4.5-1.8c-1.2-0.8-2-1.7-2.6-2.8
			c-0.5-1.1-0.8-2.2-0.8-3.5c0-0.8,0.1-1.6,0.3-2.3c0.2-0.7,0.5-1.5,0.9-2.1s0.9-1.3,1.5-1.9c0.6-0.6,1.3-1.2,2-1.8
			c-1.2-0.6-2.1-1.4-2.6-2.3s-0.9-1.9-0.9-3c0-1.5,0.3-2.8,0.9-3.9c0.6-1.2,1.4-2.2,2.2-3.1c-0.7-0.9-1.3-1.9-1.8-3
			s-0.7-2.5-0.7-4.1c0-1.9,0.3-3.5,0.9-5c0.6-1.5,1.5-2.7,2.6-3.7c1.1-1,2.4-1.8,4-2.3c1.6-0.5,3.3-0.8,5.1-0.8c1,0,1.9,0.1,2.8,0.2
			c0.9,0.1,1.7,0.3,2.4,0.5h9.9c0.4,0,0.7,0.2,0.9,0.6C461,566.9,461.1,567.5,461.1,568.4z M454.7,602.8c0-1.4-0.6-2.5-1.7-3.2
			c-1.1-0.8-2.7-1.2-4.7-1.2l-8.4-0.3c-0.8,0.6-1.4,1.2-1.9,1.7c-0.5,0.5-0.9,1.1-1.2,1.6c-0.3,0.5-0.5,1-0.6,1.5
			c-0.1,0.5-0.2,1-0.2,1.5c0,1.6,0.8,2.8,2.4,3.6s3.8,1.2,6.7,1.2c1.8,0,3.3-0.2,4.5-0.5c1.2-0.4,2.2-0.8,3-1.4
			c0.7-0.6,1.3-1.2,1.6-2C454.6,604.4,454.7,603.6,454.7,602.8z M451.7,577c0-2.2-0.6-4-1.8-5.2c-1.2-1.2-3-1.9-5.2-1.9
			c-1.2,0-2.2,0.2-3,0.6c-0.9,0.4-1.6,0.9-2.1,1.6c-0.6,0.7-1,1.5-1.3,2.3c-0.3,0.9-0.4,1.8-0.4,2.8c0,2.2,0.6,3.8,1.8,5.1
			c1.2,1.2,2.9,1.8,5.1,1.8c1.2,0,2.2-0.2,3.1-0.6c0.9-0.4,1.6-0.9,2.2-1.6s1-1.4,1.3-2.3C451.6,578.8,451.7,577.9,451.7,577z"/>
		<path d="M496.8,599.5c0,0.2,0,0.4-0.1,0.5c-0.1,0.1-0.3,0.2-0.5,0.3c-0.2,0.1-0.5,0.2-0.9,0.2c-0.4,0-0.9,0.1-1.4,0.1
			c-0.6,0-1.1,0-1.5-0.1c-0.4,0-0.7-0.1-0.9-0.2c-0.2-0.1-0.4-0.2-0.5-0.3c-0.1-0.1-0.1-0.3-0.1-0.5v-19.1c0-1.9-0.1-3.4-0.4-4.5
			c-0.3-1.1-0.7-2.1-1.3-2.9s-1.3-1.4-2.2-1.9c-0.9-0.4-1.9-0.7-3.1-0.7c-1.5,0-3,0.5-4.5,1.6c-1.5,1.1-3.1,2.6-4.7,4.7v22.8
			c0,0.2,0,0.4-0.1,0.5c-0.1,0.1-0.3,0.2-0.5,0.3c-0.2,0.1-0.5,0.2-0.9,0.2c-0.4,0-0.9,0.1-1.5,0.1c-0.6,0-1.1,0-1.4-0.1
			c-0.4,0-0.7-0.1-0.9-0.2c-0.2-0.1-0.4-0.2-0.5-0.3c-0.1-0.1-0.1-0.3-0.1-0.5v-32.6c0-0.2,0-0.4,0.1-0.5c0.1-0.1,0.2-0.3,0.4-0.4
			c0.2-0.1,0.5-0.2,0.8-0.2c0.3,0,0.8-0.1,1.3-0.1c0.5,0,1,0,1.3,0.1c0.3,0,0.6,0.1,0.8,0.2s0.3,0.2,0.4,0.4s0.1,0.3,0.1,0.5v4.3
			c1.8-2.1,3.7-3.6,5.5-4.5s3.7-1.4,5.5-1.4c2.2,0,4,0.4,5.5,1.1c1.5,0.7,2.7,1.7,3.6,3c0.9,1.2,1.6,2.7,2,4.3
			c0.4,1.7,0.6,3.6,0.6,6V599.5z"/>
		<path d="M532.3,599.5c0,0.3-0.1,0.5-0.3,0.7c-0.2,0.1-0.5,0.3-0.8,0.3c-0.3,0.1-0.8,0.1-1.5,0.1c-0.6,0-1.1,0-1.5-0.1
			c-0.4-0.1-0.6-0.2-0.8-0.3c-0.2-0.1-0.3-0.4-0.3-0.7v-3.3c-1.4,1.5-3,2.7-4.8,3.6c-1.8,0.8-3.6,1.3-5.6,1.3
			c-1.7,0-3.3-0.2-4.7-0.7c-1.4-0.4-2.6-1.1-3.6-1.9c-1-0.8-1.7-1.9-2.3-3.1c-0.5-1.2-0.8-2.6-0.8-4.2c0-1.8,0.4-3.4,1.1-4.8
			c0.7-1.4,1.8-2.5,3.2-3.4c1.4-0.9,3.1-1.6,5.1-2c2-0.4,4.3-0.7,6.8-0.7h4.5v-2.5c0-1.3-0.1-2.4-0.4-3.3c-0.3-1-0.7-1.8-1.3-2.4
			c-0.6-0.6-1.4-1.1-2.3-1.4c-0.9-0.3-2.1-0.5-3.5-0.5c-1.5,0-2.8,0.2-4,0.5c-1.2,0.4-2.2,0.7-3.1,1.2c-0.9,0.4-1.6,0.8-2.2,1.2
			c-0.6,0.4-1,0.5-1.3,0.5c-0.2,0-0.4,0-0.5-0.1c-0.1-0.1-0.3-0.2-0.4-0.4s-0.2-0.4-0.2-0.7c0-0.3-0.1-0.6-0.1-1
			c0-0.6,0-1.1,0.1-1.4c0.1-0.3,0.3-0.7,0.6-1c0.3-0.3,0.9-0.7,1.7-1.1c0.8-0.4,1.7-0.8,2.8-1.2c1-0.3,2.2-0.6,3.4-0.9
			c1.2-0.2,2.5-0.3,3.7-0.3c2.3,0,4.3,0.3,6,0.8s3,1.3,4,2.3s1.8,2.3,2.2,3.8c0.5,1.5,0.7,3.3,0.7,5.3V599.5z M526.4,584.6h-5.1
			c-1.6,0-3.1,0.1-4.3,0.4c-1.2,0.3-2.2,0.7-3,1.2c-0.8,0.5-1.4,1.2-1.8,2c-0.4,0.8-0.6,1.6-0.6,2.6c0,1.7,0.5,3,1.6,4
			c1.1,1,2.6,1.5,4.5,1.5c1.6,0,3-0.4,4.4-1.2c1.3-0.8,2.7-2,4.2-3.7V584.6z"/>
		<path d="M549.3,599.5c0,0.2,0,0.4-0.1,0.5c-0.1,0.1-0.3,0.2-0.5,0.3c-0.2,0.1-0.5,0.2-0.9,0.2c-0.4,0-0.9,0.1-1.5,0.1
			c-0.6,0-1.1,0-1.4-0.1c-0.4,0-0.7-0.1-0.9-0.2c-0.2-0.1-0.4-0.2-0.5-0.3c-0.1-0.1-0.1-0.3-0.1-0.5v-48.4c0-0.2,0-0.4,0.1-0.5
			c0.1-0.1,0.2-0.3,0.5-0.4c0.2-0.1,0.5-0.2,0.9-0.2c0.4,0,0.9-0.1,1.4-0.1c0.6,0,1.1,0,1.5,0.1c0.4,0,0.7,0.1,0.9,0.2
			c0.2,0.1,0.4,0.2,0.5,0.4c0.1,0.1,0.1,0.3,0.1,0.5V599.5z"/>
	</g>
	<g class="st8">
		<path class="st0" d="M628.7-21.7c0.2,0,0.4,0,0.6,0.1s0.3,0.3,0.4,0.6c0.1,0.3,0.2,0.6,0.3,1.1c0.1,0.5,0.1,1.1,0.1,1.8
			c0,1,0,1.7-0.1,2.3c-0.1,0.6-0.2,1.1-0.5,1.4c-0.2,0.3-0.5,0.5-0.7,0.7L602.3,5.8h26.5c0.2,0,0.4,0.1,0.6,0.2
			c0.2,0.1,0.3,0.3,0.4,0.6c0.1,0.3,0.2,0.6,0.2,1.1c0.1,0.5,0.1,1,0.1,1.7c0,0.7,0,1.2-0.1,1.7c-0.1,0.5-0.2,0.8-0.2,1.1
			c-0.1,0.3-0.2,0.5-0.4,0.6c-0.2,0.1-0.4,0.2-0.6,0.2h-50.9c-0.2,0-0.4-0.1-0.6-0.2c-0.2-0.1-0.3-0.3-0.4-0.6
			c-0.1-0.3-0.2-0.6-0.2-1.1c-0.1-0.5-0.1-1-0.1-1.7c0-0.7,0-1.2,0.1-1.7c0.1-0.5,0.2-0.8,0.2-1.1c0.1-0.3,0.2-0.5,0.4-0.6
			c0.2-0.1,0.4-0.2,0.6-0.2h23.6l-23.6-18.8c-0.2-0.2-0.5-0.4-0.6-0.6c-0.2-0.2-0.3-0.5-0.4-0.8c-0.1-0.3-0.2-0.7-0.2-1.1
			c-0.1-0.5-0.1-1-0.1-1.7c0-0.7,0-1.3,0.1-1.7c0.1-0.4,0.2-0.8,0.3-1c0.1-0.3,0.2-0.4,0.4-0.5c0.2-0.1,0.3-0.1,0.5-0.1
			c0.4,0,0.7,0.1,1.1,0.3c0.4,0.2,0.8,0.5,1.5,1l21,17.6l25.2-18.9c0.7-0.5,1.2-0.7,1.5-0.8C628.4-21.7,628.6-21.7,628.7-21.7z"/>
		<path class="st0" d="M609.3-47.6h19.5c0.2,0,0.4,0.1,0.6,0.2c0.2,0.1,0.3,0.3,0.4,0.6s0.2,0.6,0.2,1.1c0.1,0.5,0.1,1,0.1,1.7
			c0,0.7,0,1.2-0.1,1.7c-0.1,0.4-0.2,0.8-0.2,1.1c-0.1,0.3-0.2,0.5-0.4,0.6c-0.2,0.1-0.4,0.2-0.6,0.2h-19.5l-29.9,15
			c-0.6,0.3-1.1,0.5-1.5,0.6c-0.4,0.1-0.6,0-0.8-0.2c-0.2-0.2-0.3-0.6-0.4-1.1c-0.1-0.5-0.1-1.2-0.1-2.2c0-0.8,0-1.5,0.1-2
			c0.1-0.5,0.1-0.9,0.2-1.2c0.1-0.3,0.2-0.5,0.4-0.7c0.2-0.1,0.4-0.3,0.7-0.4l15.2-7.3c1.4-0.7,3-1.4,4.5-2c1.6-0.7,3.2-1.4,4.8-2.1
			v-0.1c-1.6-0.6-3.1-1.3-4.6-1.9c-1.5-0.7-3.1-1.3-4.6-2l-15.3-7.4c-0.3-0.1-0.5-0.2-0.7-0.3c-0.2-0.1-0.3-0.4-0.4-0.6
			c-0.1-0.3-0.2-0.6-0.2-1.1c-0.1-0.5-0.1-1.1-0.1-1.8c0-1,0-1.8,0.1-2.3c0.1-0.6,0.2-0.9,0.4-1.2c0.2-0.2,0.5-0.3,0.8-0.2
			c0.4,0.1,0.8,0.3,1.4,0.6L609.3-47.6z"/>
		<path class="st0" d="M609.2-82.6c1.1,0,1.8,0.1,2.2,0.4c0.4,0.2,0.6,0.6,0.6,1.1v17.1c0,0.5-0.2,0.9-0.6,1.1
			c-0.4,0.2-1.2,0.4-2.2,0.4s-1.8-0.1-2.2-0.4c-0.4-0.2-0.6-0.6-0.6-1.1v-17.1c0-0.2,0-0.4,0.1-0.6c0.1-0.2,0.2-0.3,0.5-0.5
			s0.5-0.2,0.9-0.3C608.2-82.6,608.7-82.6,609.2-82.6z"/>
		<path class="st0" d="M603.3-125.1c4.1,0,7.8,0.3,11.1,1c3.4,0.6,6.2,1.7,8.7,3.2c2.4,1.5,4.3,3.4,5.6,5.8c1.3,2.4,2,5.4,2,8.9
			c0,3.3-0.6,6.1-1.8,8.4c-1.2,2.3-2.9,4.1-5.2,5.5s-5.1,2.4-8.5,3c-3.4,0.6-7.2,0.9-11.6,0.9c-4,0-7.7-0.3-11.1-1
			c-3.4-0.7-6.3-1.7-8.7-3.2c-2.4-1.5-4.3-3.4-5.6-5.8c-1.3-2.4-2-5.4-2-8.8c0-3.4,0.6-6.2,1.8-8.5c1.2-2.3,2.9-4.1,5.2-5.5
			c2.3-1.4,5.1-2.4,8.5-3C595-124.8,598.9-125.1,603.3-125.1z M603.7-117.9c-2.6,0-5,0.1-7.1,0.3c-2.1,0.2-4,0.5-5.6,0.8
			s-3,0.8-4.2,1.4s-2.1,1.3-2.9,2.1c-0.8,0.8-1.3,1.8-1.6,2.8c-0.3,1.1-0.5,2.2-0.5,3.5c0,2.3,0.5,4.2,1.6,5.7
			c1.1,1.4,2.6,2.6,4.5,3.4c1.9,0.8,4.2,1.4,6.7,1.7c2.6,0.3,5.3,0.5,8.3,0.5c4,0,7.3-0.2,10.1-0.6c2.8-0.4,5-1.1,6.8-1.9
			c1.7-0.9,3-2,3.8-3.4c0.8-1.4,1.2-3.1,1.2-5c0-1.5-0.2-2.9-0.7-4c-0.5-1.2-1.2-2.2-2.1-3c-0.9-0.8-2-1.5-3.3-2.1
			c-1.3-0.5-2.7-1-4.3-1.3s-3.2-0.6-5.1-0.7C607.6-117.8,605.7-117.9,603.7-117.9z"/>
		<path class="st0" d="M603.3-167.6c4.1,0,7.8,0.3,11.1,1c3.4,0.6,6.2,1.7,8.7,3.2c2.4,1.5,4.3,3.4,5.6,5.8c1.3,2.4,2,5.4,2,8.9
			c0,3.3-0.6,6.1-1.8,8.4c-1.2,2.3-2.9,4.1-5.2,5.5s-5.1,2.4-8.5,3c-3.4,0.6-7.2,0.9-11.6,0.9c-4,0-7.7-0.3-11.1-1
			c-3.4-0.7-6.3-1.7-8.7-3.2c-2.4-1.5-4.3-3.4-5.6-5.8c-1.3-2.4-2-5.4-2-8.8c0-3.4,0.6-6.2,1.8-8.5c1.2-2.3,2.9-4.1,5.2-5.5
			c2.3-1.4,5.1-2.4,8.5-3C595-167.3,598.9-167.6,603.3-167.6z M603.7-160.4c-2.6,0-5,0.1-7.1,0.3c-2.1,0.2-4,0.5-5.6,0.8
			s-3,0.8-4.2,1.4s-2.1,1.3-2.9,2.1c-0.8,0.8-1.3,1.8-1.6,2.8c-0.3,1.1-0.5,2.2-0.5,3.5c0,2.3,0.5,4.2,1.6,5.7
			c1.1,1.4,2.6,2.6,4.5,3.4c1.9,0.8,4.2,1.4,6.7,1.7c2.6,0.3,5.3,0.5,8.3,0.5c4,0,7.3-0.2,10.1-0.6c2.8-0.4,5-1.1,6.8-1.9
			c1.7-0.9,3-2,3.8-3.4c0.8-1.4,1.2-3.1,1.2-5c0-1.5-0.2-2.9-0.7-4c-0.5-1.2-1.2-2.2-2.1-3c-0.9-0.8-2-1.5-3.3-2.1
			c-1.3-0.5-2.7-1-4.3-1.3s-3.2-0.6-5.1-0.7C607.6-160.3,605.7-160.4,603.7-160.4z"/>
		<path class="st0" d="M627.1-208.5c0.5,0,1,0,1.3,0.1c0.4,0.1,0.6,0.2,0.9,0.3c0.2,0.1,0.4,0.3,0.5,0.5c0.1,0.2,0.1,0.4,0.1,0.6
			v27.7c0,0.2,0,0.4-0.1,0.5c-0.1,0.2-0.3,0.3-0.5,0.5c-0.2,0.2-0.5,0.3-0.9,0.3c-0.4,0.1-0.8,0.1-1.3,0.1c-0.5,0-0.9,0-1.3-0.1
			c-0.4-0.1-0.6-0.2-0.9-0.3c-0.2-0.1-0.4-0.3-0.5-0.5s-0.2-0.4-0.2-0.6v-11.1h-40.3l6.1,10.2c0.3,0.5,0.4,0.9,0.5,1.2
			c0.1,0.3,0,0.6-0.2,0.8c-0.2,0.2-0.5,0.3-0.9,0.4c-0.4,0.1-0.9,0.1-1.6,0.1c-0.5,0-0.9,0-1.2-0.1s-0.6-0.1-0.8-0.2
			c-0.2-0.1-0.4-0.2-0.6-0.3c-0.2-0.1-0.3-0.3-0.5-0.6L577-191c-0.1-0.1-0.1-0.2-0.2-0.4c-0.1-0.2-0.1-0.4-0.2-0.6
			c-0.1-0.2-0.1-0.5-0.1-0.9s0-0.7,0-1.2c0-0.7,0-1.2,0.1-1.6c0.1-0.4,0.1-0.8,0.2-1c0.1-0.2,0.2-0.4,0.4-0.5s0.3-0.1,0.5-0.1h46.6
			v-9.6c0-0.2,0.1-0.4,0.2-0.6c0.1-0.2,0.3-0.3,0.5-0.5c0.2-0.1,0.5-0.2,0.9-0.3C626.2-208.4,626.6-208.5,627.1-208.5z"/>
	</g>
	<g class="st8">
		<path class="st0" d="M563.2,340c0,2.9-0.5,5.5-1.6,7.8c-1.1,2.3-2.6,4.2-4.5,5.8c-1.9,1.6-4.2,2.8-6.8,3.6
			c-2.6,0.8-5.4,1.2-8.4,1.2c-2.1,0-4-0.2-5.8-0.5c-1.8-0.4-3.4-0.8-4.8-1.3c-1.4-0.5-2.6-1-3.5-1.6c-0.9-0.5-1.6-1-2-1.4
			c-0.4-0.4-0.6-0.9-0.8-1.5c-0.2-0.6-0.3-1.4-0.3-2.4c0-0.7,0-1.3,0.1-1.8c0.1-0.5,0.2-0.8,0.3-1.1c0.1-0.3,0.3-0.5,0.5-0.6
			c0.2-0.1,0.4-0.2,0.7-0.2c0.5,0,1.1,0.3,1.9,0.8c0.8,0.5,1.9,1.1,3.2,1.8c1.3,0.6,2.8,1.2,4.7,1.8c1.8,0.6,3.9,0.8,6.3,0.8
			c1.8,0,3.4-0.2,4.9-0.7s2.8-1.2,3.9-2c1.1-0.9,1.9-2,2.5-3.2c0.6-1.3,0.9-2.7,0.9-4.4c0-1.8-0.4-3.3-1.2-4.5s-1.9-2.3-3.2-3.3
			c-1.3-0.9-2.8-1.8-4.5-2.6s-3.4-1.6-5.2-2.4c-1.8-0.8-3.5-1.7-5.2-2.7c-1.7-1-3.2-2.2-4.5-3.5c-1.3-1.3-2.4-2.9-3.2-4.7
			s-1.2-4-1.2-6.5c0-2.6,0.5-4.9,1.4-6.9c0.9-2,2.3-3.7,4-5.1s3.7-2.4,6-3.1c2.3-0.7,4.8-1.1,7.5-1.1c1.4,0,2.8,0.1,4.2,0.4
			c1.4,0.2,2.7,0.6,4,1c1.2,0.4,2.3,0.8,3.3,1.3c1,0.5,1.6,0.9,1.9,1.2c0.3,0.3,0.5,0.5,0.6,0.7s0.2,0.4,0.2,0.7
			c0.1,0.3,0.1,0.6,0.1,1s0,0.9,0,1.5c0,0.6,0,1.1-0.1,1.5c0,0.4-0.1,0.8-0.2,1.1c-0.1,0.3-0.2,0.5-0.4,0.7
			c-0.2,0.1-0.4,0.2-0.6,0.2c-0.4,0-0.9-0.2-1.7-0.7c-0.8-0.4-1.7-1-2.8-1.5c-1.1-0.6-2.4-1.1-3.9-1.5c-1.5-0.5-3.2-0.7-5-0.7
			c-1.7,0-3.2,0.2-4.5,0.7c-1.3,0.5-2.3,1.1-3.2,1.8c-0.8,0.8-1.5,1.7-1.9,2.7c-0.4,1.1-0.6,2.2-0.6,3.4c0,1.7,0.4,3.2,1.2,4.5
			c0.8,1.2,1.9,2.4,3.2,3.3c1.3,1,2.9,1.8,4.6,2.6c1.7,0.8,3.4,1.6,5.2,2.4c1.8,0.8,3.5,1.7,5.2,2.7c1.7,1,3.2,2.1,4.6,3.5
			c1.3,1.3,2.4,2.9,3.2,4.7S563.2,337.5,563.2,340z"/>
	</g>
	<g class="st8">
		<path class="st0" d="M115.3,326.9c0,1.1-0.4,1.8-1.2,2.2c-0.8,0.4-1.9,0.6-3.3,0.6H57.3c-1.5,0-2.7-0.2-3.5-0.6
			c-0.8-0.4-1.2-1.2-1.2-2.2s0.4-1.8,1.2-2.2c0.8-0.4,1.9-0.6,3.5-0.6h53.5c0.7,0,1.3,0,1.9,0.1c0.6,0.1,1,0.2,1.4,0.5
			c0.4,0.2,0.7,0.5,0.9,0.9C115.2,326,115.3,326.4,115.3,326.9z"/>
	</g>
</g>
</svg>
