<?xml version="1.0" encoding="utf-8"?>
<!-- Generator: Adobe Illustrator 27.8.0, SVG Export Plug-In . SVG Version: 6.00 Build 0)  -->
<svg version="1.1"
	 id="svg8" xmlns:svg="http://www.w3.org/2000/svg" xmlns:rdf="http://www.w3.org/1999/02/22-rdf-syntax-ns#" xmlns:sodipodi="http://sodipodi.sourceforge.net/DTD/sodipodi-0.dtd" xmlns:dc="http://purl.org/dc/elements/1.1/" xmlns:inkscape="http://www.inkscape.org/namespaces/inkscape" xmlns:cc="http://creativecommons.org/ns#" inkscape:export-xdpi="93" inkscape:export-ydpi="93" inkscape:version="0.92.4 (5da689c313, 2019-01-14)"
	 xmlns="http://www.w3.org/2000/svg" xmlns:xlink="http://www.w3.org/1999/xlink" x="0px" y="0px" viewBox="0 0 341 1081"
	 style="enable-background:new 0 0 341 1081;" xml:space="preserve">
<style type="text/css">
	.st0{fill:#FFFFFF;}
	.st1{fill:#1A1A1A;}
	.st2{opacity:0.99;fill:#808080;enable-background:new    ;}
	.st3{fill:#CCCCCC;}
	.st4{fill:#0000FF;}
	.st5{fill:#AB9C38;}
	.st6{fill:#978521;}
	.st7{fill:#333333;}
	.st8{opacity:0.99;enable-background:new    ;}
	.st9{enable-background:new    ;}
</style>
<defs>
	
		<inkscape:perspective  id="perspective876" inkscape:persp3d-origin="105 : 98.999978 : 1" inkscape:vp_x="0 : 148.49996 : 1" inkscape:vp_y="0 : 999.99976 : 0" inkscape:vp_z="210.00001 : 148.49996 : 1" sodipodi:type="inkscape:persp3d">
		</inkscape:perspective>
</defs>
<sodipodi:namedview  bordercolor="#666666" borderopacity="1.0" id="base" inkscape:current-layer="layer1" inkscape:cx="526.82729" inkscape:cy="1342.9519" inkscape:document-units="mm" inkscape:lockguides="false" inkscape:pageopacity="0" inkscape:pageshadow="2" inkscape:window-height="1017" inkscape:window-maximized="1" inkscape:window-width="1920" inkscape:window-x="-8" inkscape:window-y="-8" inkscape:zoom="0.25" pagecolor="#323232" showgrid="false" showguides="true" width="500mm">
	</sodipodi:namedview>
<g id="layer1" transform="translate(0.31582593,1130.811)" inkscape:groupmode="layer" inkscape:label="Ebene 1">
	<path id="rect815" inkscape:connector-curvature="0" d="M264.9-1054.8v165.2l-189.4,0.2v-165H-0.3v165.1v0.8h0l0.4,682.6l340.7-0.4
		l-0.4-682.6h0.3v-165.9H264.9z"/>
	<rect id="rect821" x="51" y="-271.4" class="st0" width="238.6" height="60.5"/>
	<path id="rect825" class="st1" d="M63.5-267.8l35.6,0c6.2,0,11.3,5,11.3,11.2l0,31.2c0,6.2-5,11.3-11.2,11.3l-35.6,0
		c-6.2,0-11.3-5-11.3-11.2l0-31.2C52.2-262.8,57.2-267.8,63.5-267.8z"/>
	<path id="rect872" class="st1" d="M182.1-267.9l35.6,0c6.2,0,11.3,5,11.3,11.2l0,31.2c0,6.2-5,11.3-11.2,11.3l-35.6,0
		c-6.2,0-11.3-5-11.3-11.2l0-31.2C170.8-262.9,175.9-267.9,182.1-267.9z"/>
	<path id="rect874" class="st1" d="M121.3-267.9l38.5,0c5.4,0,9.8,4.4,9.8,9.8l0,34.1c0,5.4-4.4,9.8-9.8,9.8l-38.5,0
		c-5.4,0-9.8-4.4-9.8-9.8l0-34.1C111.5-263.5,115.9-267.9,121.3-267.9z"/>
	<rect id="rect947" x="78" y="-238.6" class="st2" width="6" height="113.6"/>
	<rect id="rect949" x="137.7" y="-238.7" class="st2" width="6" height="113.7"/>
	<rect id="rect951" x="196.7" y="-238.7" class="st2" width="6" height="113.7"/>
	<g id="flowRoot969" transform="translate(121.05234,20.883341)">
	</g>
	<g id="flowRoot1466" transform="translate(121.05234,20.883341)">
	</g>
	<g id="flowRoot1529" transform="translate(121.05234,20.883341)">
	</g>
	<rect id="rect87" x="48" y="-473.5" width="243" height="61.1"/>
	<path id="path31-1" inkscape:connector-curvature="0" class="st0" d="M96.7-755.1c2.1,0,2.3-0.1,2.7-0.3c0.2-0.1,0.5-0.4,0.7-0.7
		c0.2-0.4,0.2-0.7,0.3-5l0-4.6l4.5,0l4.5,0l0,5.7c0,6.3,0,6.9-0.7,8.5c-0.9,2.2-2.1,3.2-4.7,3.8c-0.7,0.2-1.5,0.2-4.1,0.2
		c-1.8,0-3.8-0.1-4.4-0.1l-1.1-0.1l0-3.7l0-3.7L96.7-755.1L96.7-755.1z M139.7-742.4c38.5,0,47.9,0,46.3,0.2l-0.2,0l0.2,0.1
		c0.2,0.1,0.2,0.1-0.2,0.1c-0.3,0-0.2,0.1,0.4,0.1l0.8,0.1l-0.8,0c-0.4,0-0.7,0.1-0.6,0.1c0.2,0,0.2,0.2,0.2,1.1c0,1,0,1,0.3,1.1
		c0.2,0,0.2,0.1-0.2,0.1c-0.3,0-0.5,0.1-0.5,0.1c0,0.1-15.3,0.1-45.5,0.2l-45.5,0l0-1.6l0-1.6L139.7-742.4z M105-777.4l4.5,0l0,3.7
		l0,3.7l-4.5,0l-4.5,0l0-3.7l0-3.7L105-777.4z M114.2-763.8c0.3-2.1,0.9-3.9,1.7-5.6c0.3-0.6,0.6-1.1,0.6-1.2c0,0,0.3-0.4,0.5-0.7
		c0.5-0.7,1.6-2.1,1.8-2.2c0.1-0.1,0.2-0.1,0.2-0.2c0-0.2,1.1-1.2,2-1.8c0.9-0.7,1.7-1.1,3.4-1.7c2-0.7,3.1-0.9,5.5-0.8
		c1.7,0.1,2.1,0.1,3.2,0.4c0.7,0.2,1.5,0.5,1.8,0.6s0.7,0.3,0.7,0.3c0.1,0,0.6,0.3,1.1,0.6c2.2,1.3,5.2,4.6,6.3,7.1
		c1.8,3.9,2,7.9,0.7,11.5c-0.6,1.5-1,2.4-1.6,3.5c-0.8,1.3-0.8,1.3-2.7,3.2c-2.1,2.1-3.7,3-6.5,3.8c-1.4,0.4-4.2,0.5-5.7,0.3
		c-2-0.3-4.6-1.4-6.2-2.6c-0.8-0.6-2-1.6-2-1.7c0,0-0.3-0.3-0.6-0.7c-1.6-1.7-3.3-4.9-3.9-7.6C114.2-760.4,114.1-763,114.2-763.8
		L114.2-763.8z M122.9-760c0.4,1.7,1.3,3.2,2.7,4.5c1.4,1.3,3.5,1.8,5.4,1.2c2.1-0.6,4.1-3.1,4.8-5.6c0.4-1.5,0.4-3.7-0.1-5.1
		c-0.6-2-1.7-3.6-3.2-4.7c-0.7-0.5-1-0.6-1.7-0.8c-1.5-0.3-3.1-0.1-4.2,0.4c-1,0.5-2.2,1.9-2.9,3.3
		C122.6-764.7,122.3-762.2,122.9-760L122.9-760z M148.4-777.4c0.1,0,2.1,0,4.6,0l4.4,0l0,4.1c0,3.8,0,4.1,0.3,4.8
		c0.6,1.7,2.7,2.7,4.6,2.1c0.9-0.3,1.6-0.9,2-1.7l0.4-0.8l0-4.2l0-4.2l4.5,0l4.5,0l0,4.8c0,4.4-0.1,4.8-0.3,5.7
		c-0.5,1.8-1.3,3.4-2.4,4.7c-0.3,0.3-0.5,0.6-0.5,0.7c0,0.2-1.1,1.2-2.2,1.9c-0.9,0.6-2.1,1.3-2.7,1.4c-0.2,0-0.8,0.2-1.4,0.4
		c-1,0.3-1.2,0.3-3.3,0.3c-2.1,0-2.3,0-3.4-0.3c-1.8-0.5-2.4-0.8-3.6-1.5c-1.4-0.9-2.5-2-3.5-3.4c-1.4-2-1.9-3.5-2.2-5.8
		C148.2-770.1,148.2-777.3,148.4-777.4L148.4-777.4z M161.1-755l7.4,0l0,3.8l0,3.8l-7.4,0l-7.4,0l0-3.8l0-3.8L161.1-755z
		 M173.8-783.3c0.1,0,0.1-0.2,0.1-0.5c0-0.5,0-0.5,0.6-0.5c0.3,0,12.9-0.1,28-0.1l27.4,0l0,1.6l0,1.6l-27.9,0c-15.3,0-28,0-28.1,0
		c-0.2-0.1-0.2-0.3-0.2-1.1C173.7-782.9,173.7-783.3,173.8-783.3L173.8-783.3z M186.3-765l9.5,0l0,3.8l0,3.8l-9.5,0l-9.5,0l0-3.8
		l0-3.8L186.3-765z M203.3-777.5l4.5,0l0,3.7l0,3.7l-4.5,0l-4.5,0l0-3.7l0-3.7L203.3-777.5z M203.3-766.2l4.5,0l0,9.6l0,9.6l-4.5,0
		l-4.5,0l0-9.6l0-9.6L203.3-766.2z M221.4-777.5l9.5,0l0,3.7l0,3.7l-9.5,0l-9.5,0l0-3.7l0-3.7L221.4-777.5z M213.5-765.7
		c0.1,0,2.1-0.1,4.5-0.1l4.4,0l0,4.4c0.1,6.2-0.2,5.8,4.4,5.9l2.9,0l0,3.9l0,3.9l-1.1,0.1c-1.6,0.2-6.8,0.2-8.2,0
		c-2.4-0.4-4-1.1-5-2.4c-1.1-1.3-1.6-2.6-1.9-4.8C213.3-756.1,213.3-765.6,213.5-765.7L213.5-765.7z M236.3-781.2
		c0.2-0.8,0.7-1.6,1.2-2c2.1-1.8,4.5-2,6.6-0.5c1,0.7,1.2,1,1.6,1.8c0.3,0.7,0.3,0.9,0.3,2c0,1.1,0,1.4-0.4,2
		c-0.7,1.5-2.4,2.7-4.1,2.8c-1.6,0.1-2.8-0.3-4.1-1.6C236.3-777.7,235.8-779.6,236.3-781.2L236.3-781.2z M237.2-778
		c0.4,1,1.7,1.9,3,2.3c1.3,0.3,2.3,0.1,3.8-1c0.4-0.3,0.6-0.6,0.9-1.2c0.4-0.7,0.4-0.9,0.4-1.9c0-1,0-1.1-0.4-1.9
		c-0.3-0.7-0.6-0.9-1.2-1.3c-0.4-0.3-1-0.6-1.4-0.7c-2.1-0.7-4.6,0.4-5.4,2.4C236.7-780.6,236.8-778.9,237.2-778z M240.5-782.8
		c0.9,0,1.8,0.1,2,0.1c0.7,0.3,1.1,1.7,0.6,2.3c-0.1,0.2-0.4,0.4-0.7,0.5l-0.4,0.2l0.4,0.5c0.2,0.3,0.6,0.8,0.8,1.1
		c0.2,0.4,0.4,0.7,0.5,0.7c0.3,0.2,0.1,0.3-0.4,0.3l-0.5,0l-0.7-1.2c-0.8-1.2-1-1.4-1.9-1.4l-0.5,0l0,1.3l0,1.3l-0.4,0l-0.4,0l0-2.8
		l0-2.8L240.5-782.8z M240.7-780.3c0.9,0,1.1,0,1.4-0.3c0.7-0.5,0.3-1.4-0.7-1.5c-0.4-0.1-1.6,0-1.8,0c0,0,0,0.4,0,0.9l0,0.8
		L240.7-780.3z"/>
	<path id="rect64" class="st1" d="M241-268l35.6,0c6.2,0,11.3,5,11.3,11.2l0,31.2c0,6.2-5,11.3-11.2,11.3l-35.6,0
		c-6.2,0-11.3-5-11.3-11.2l0-31.2C229.8-262.9,234.8-268,241-268z"/>
	<rect id="rect66" x="255.6" y="-238.7" class="st2" width="6" height="113.7"/>
	<circle id="path107" class="st3" cx="170.2" cy="-393.2" r="83.3"/>
	<circle id="path133" class="st0" cx="170.2" cy="-393.2" r="68.2"/>
	<rect id="rect137" x="-0.3" y="-712.3" class="st0" width="128.8" height="227.3"/>
	<rect id="rect141" x="-0.3" y="-707.7" width="121.2" height="218.2"/>
	<rect id="rect139" x="3.5" y="-708.4" class="st4" width="121.2" height="219.7"/>
	
		<circle id="path144" inkscape:transform-center-x="7.5703852" inkscape:transform-center-y="6.4056526" class="st5" cx="22.4" cy="-507.6" r="18.9">
	</circle>
	<rect id="rect952" x="3.5" y="-510.6" class="st6" width="37.9" height="6.1"/>
	<rect id="rect956" x="175.5" y="-674.3" class="st0" width="165.2" height="128.8"/>
	<rect id="rect958" x="179.3" y="-670.5" width="157.6" height="121.2"/>
	<rect id="rect960" x="205" y="-662.9" class="st7" width="106.1" height="106.1"/>
	<rect id="rect962" x="205" y="-556.9" class="st3" width="18.9" height="30.3"/>
	<rect id="rect964" x="292.2" y="-556.9" class="st3" width="18.9" height="30.3"/>
	<rect id="rect966" x="231.6" y="-556.9" class="st3" width="18.9" height="30.3"/>
	<rect id="rect968" x="265.7" y="-556.9" class="st3" width="18.9" height="30.3"/>
	<rect id="rect970" x="205" y="-693.2" class="st3" width="18.9" height="30.3"/>
	<rect id="rect972" x="292.2" y="-693.2" class="st3" width="18.9" height="30.3"/>
	<rect id="rect974" x="231.6" y="-693.2" class="st3" width="18.9" height="30.3"/>
	<rect id="rect976" x="265.7" y="-693.2" class="st3" width="18.9" height="30.3"/>
	<polygon id="rect978" class="st2" points="211.5,-560.6 217.5,-560.6 217.6,-541.7 211.6,-541.7 	"/>
	<polygon id="rect980" class="st2" points="238,-560.6 244,-560.6 244.1,-541.7 238.1,-541.7 	"/>
	<polygon id="rect982" class="st2" points="272.1,-560.6 278.1,-560.6 278.2,-541.7 272.2,-541.7 	"/>
	<polygon id="rect984" class="st2" points="298.6,-560.6 304.6,-560.6 304.7,-541.7 298.7,-541.7 	"/>
	<polygon id="rect986" class="st2" points="211.5,-659.1 217.5,-659.1 217.6,-678.1 211.6,-678.1 	"/>
	<polygon id="rect988" class="st2" points="238,-659.1 244,-659.1 244.1,-678.1 238.1,-678.1 	"/>
	<polygon id="rect990" class="st2" points="272.1,-659.1 278.1,-659.1 278.2,-678.1 272.2,-678.1 	"/>
	<polygon id="rect992" class="st2" points="298.6,-659.1 304.6,-659.1 304.7,-678.1 298.7,-678.1 	"/>
	<circle id="path994" class="st3" cx="302.8" cy="-981.2" r="26.5"/>
	<circle id="circle996" class="st3" cx="37.6" cy="-981.2" r="26.5"/>
	<path id="rect836-7" class="st3" d="M135.9-878.9h11.4c11.5,0,20.8,9.3,20.8,20.8l0,0c0,11.5-9.3,20.8-20.8,20.8h-11.4
		c-11.5,0-20.8-9.3-20.8-20.8l0,0C115-869.5,124.3-878.9,135.9-878.9z"/>
	<path id="rect836-6" class="st3" d="M192.7-878.9H204c11.5,0,20.8,9.3,20.8,20.8l0,0c0,11.5-9.3,20.8-20.8,20.8h-11.4
		c-11.5,0-20.8-9.3-20.8-20.8l0,0C171.8-869.5,181.2-878.9,192.7-878.9z"/>
	
		<rect id="rect943" x="238" y="-878.9" transform="matrix(1 -8.295600e-03 8.295600e-03 1 7.0797 2.1083)" class="st3" width="39.3" height="53"/>
	<path id="rect1026" class="st3" d="M67-831.5l0-38.8c0-5,4-9,9-9l21.3,0c5,0,9,4,9,9l0,38.8c0,5-4,9-9,9l-21.3,0
		C71.1-822.4,67-826.5,67-831.5z"/>
	<circle id="path1028" class="st0" cx="86.7" cy="-841.4" r="11.4"/>
	<path id="rect1030" class="st3" d="M63.8-858.8l0.1,11.5c0.1,11.5-9.1,20.9-20.5,21l0,0c-11.5,0.1-20.9-9-21-20.5l-0.1-11.5
		c-0.1-11.5,9.1-20.9,20.5-21l0,0C54.3-879.4,63.7-870.2,63.8-858.8z"/>
	<circle id="circle105" class="st0" cx="43.1" cy="-852.8" r="15.2"/>
	<circle id="path138" class="st0" cx="37.6" cy="-981.2" r="22.7"/>
	<circle id="circle140" class="st0" cx="302.8" cy="-981.2" r="22.7"/>
	<rect id="rect142" x="138.4" y="-946.9" class="st2" width="6" height="92.1"/>
	<rect id="rect144" x="195.2" y="-947.2" class="st2" width="6" height="92.4"/>
	<path id="rect3800" inkscape:connector-curvature="0" class="st8" d="M168.6-1126.9c-11.2,0.3-22.2,3.4-31.9,9
		c-20.6,12-33.4,34.2-33.5,58.2h0v0.3v99.3h-5v15h144v-15h-5v-99.3v-0.3h0c-0.1-24-12.9-46.2-33.5-58.2
		C193-1124.1,180.9-1127.2,168.6-1126.9L168.6-1126.9z"/>
	<circle id="circle147" class="st0" cx="257.7" cy="-852.8" r="15.2"/>
	<g class="st9">
		<path d="M124.9-120.7c0,0.2,0,0.5,0,0.6c0,0.2-0.1,0.3-0.1,0.5c-0.1,0.1-0.1,0.2-0.2,0.3s-0.2,0.1-0.3,0.1c-0.2,0-0.4-0.1-0.8-0.4
			c-0.4-0.2-0.8-0.5-1.4-0.8c-0.6-0.3-1.3-0.6-2.2-0.8s-1.8-0.4-3-0.4c-1.4,0-2.6,0.3-3.7,0.8s-2,1.2-2.8,2.1
			c-0.8,0.9-1.3,1.9-1.7,3.2s-0.6,2.5-0.6,4c0,1.6,0.2,3,0.7,4.2c0.4,1.2,1.1,2.3,1.8,3.1s1.7,1.5,2.8,1.9c1.1,0.4,2.3,0.7,3.6,0.7
			c0.8,0,1.6-0.1,2.3-0.3c0.8-0.2,1.5-0.5,2.2-0.8v-7.3h-5.8c-0.2,0-0.4-0.1-0.5-0.3c-0.1-0.2-0.2-0.6-0.2-1c0-0.2,0-0.5,0-0.6
			c0-0.2,0.1-0.3,0.1-0.4c0.1-0.1,0.1-0.2,0.2-0.2c0.1-0.1,0.2-0.1,0.3-0.1h7.9c0.1,0,0.3,0,0.4,0.1c0.1,0.1,0.3,0.1,0.4,0.2
			c0.1,0.1,0.2,0.2,0.3,0.4c0.1,0.2,0.1,0.4,0.1,0.6v9.5c0,0.3-0.1,0.6-0.2,0.9c-0.1,0.2-0.4,0.5-0.7,0.6s-0.9,0.4-1.4,0.6
			s-1.2,0.4-1.8,0.6c-0.6,0.2-1.3,0.3-1.9,0.3s-1.3,0.1-1.9,0.1c-1.9,0-3.7-0.3-5.2-0.9c-1.5-0.6-2.8-1.5-3.9-2.6
			c-1-1.1-1.9-2.4-2.4-4c-0.6-1.5-0.8-3.3-0.8-5.2c0-2,0.3-3.8,0.9-5.4s1.4-3,2.5-4.1c1.1-1.1,2.4-2,3.9-2.6
			c1.5-0.6,3.2-0.9,5.1-0.9c1,0,1.8,0.1,2.7,0.3c0.8,0.2,1.6,0.4,2.2,0.6c0.6,0.2,1.2,0.5,1.6,0.7s0.8,0.5,0.9,0.6s0.3,0.4,0.3,0.6
			S124.9-121.2,124.9-120.7z"/>
		<path d="M150-100.5c0,0.3,0,0.5-0.1,0.7c-0.1,0.2-0.2,0.3-0.3,0.4c-0.1,0.1-0.3,0.2-0.5,0.3c-0.2,0.1-0.3,0.1-0.5,0.1h-1.1
			c-0.3,0-0.6,0-0.9-0.1c-0.3-0.1-0.5-0.2-0.7-0.4s-0.5-0.4-0.7-0.8c-0.2-0.3-0.5-0.7-0.7-1.2l-7.6-14.2c-0.4-0.7-0.8-1.5-1.2-2.3
			c-0.4-0.8-0.8-1.6-1.1-2.3h0c0,0.9,0,1.9,0.1,2.8c0,1,0,1.9,0,2.9v15.1c0,0.1,0,0.2-0.1,0.3c-0.1,0.1-0.1,0.1-0.3,0.2
			c-0.1,0-0.3,0.1-0.5,0.1c-0.2,0-0.5,0-0.8,0s-0.6,0-0.8,0c-0.2,0-0.4-0.1-0.5-0.1s-0.2-0.1-0.3-0.2c-0.1-0.1-0.1-0.2-0.1-0.3v-23
			c0-0.5,0.1-0.9,0.4-1.1c0.3-0.2,0.6-0.3,1-0.3h1.6c0.4,0,0.7,0,1,0.1s0.5,0.2,0.7,0.3c0.2,0.1,0.4,0.4,0.6,0.6s0.4,0.6,0.6,1
			l5.9,11c0.4,0.7,0.7,1.3,1,2c0.3,0.6,0.7,1.3,1,1.9c0.3,0.6,0.6,1.2,0.9,1.8c0.3,0.6,0.6,1.2,0.9,1.8h0c0-1,0-2.1,0-3.2
			c0-1.1,0-2.2,0-3.2v-13.6c0-0.1,0-0.2,0.1-0.3c0.1-0.1,0.1-0.1,0.3-0.2s0.3-0.1,0.5-0.1c0.2,0,0.5,0,0.8,0c0.3,0,0.6,0,0.8,0
			c0.2,0,0.4,0.1,0.5,0.1c0.1,0.1,0.2,0.1,0.3,0.2c0.1,0.1,0.1,0.2,0.1,0.3V-100.5z"/>
		<path d="M175.8-112c0,2.2-0.3,4-0.8,5.7c-0.6,1.6-1.4,3-2.4,4c-1.1,1.1-2.4,1.9-3.9,2.4c-1.5,0.5-3.4,0.8-5.5,0.8h-5.3
			c-0.3,0-0.6-0.1-0.8-0.3c-0.3-0.2-0.4-0.6-0.4-1.1v-22.3c0-0.5,0.1-0.9,0.4-1.1s0.5-0.3,0.8-0.3h5.7c2.2,0,4,0.3,5.5,0.8
			c1.5,0.6,2.7,1.4,3.8,2.4c1,1,1.8,2.3,2.3,3.8C175.6-115.6,175.8-113.9,175.8-112z M172.3-111.9c0-1.4-0.2-2.6-0.5-3.8
			c-0.3-1.2-0.9-2.2-1.6-3c-0.7-0.8-1.6-1.5-2.7-2c-1.1-0.5-2.5-0.7-4.2-0.7h-3.4v19.4h3.4c1.6,0,2.9-0.2,4-0.6c1.1-0.4,2-1,2.7-1.8
			c0.7-0.8,1.3-1.9,1.7-3.1C172.1-108.7,172.3-110.2,172.3-111.9z"/>
	</g>
	<g class="st9">
		<path d="M229-108.9c0,2.2-0.3,4-0.8,5.7c-0.6,1.6-1.4,3-2.4,4c-1.1,1.1-2.4,1.9-3.9,2.4c-1.5,0.5-3.4,0.8-5.5,0.8H211
			c-0.3,0-0.6-0.1-0.8-0.3c-0.3-0.2-0.4-0.6-0.4-1.1v-22.3c0-0.5,0.1-0.9,0.4-1.1s0.5-0.3,0.8-0.3h5.7c2.2,0,4,0.3,5.5,0.8
			c1.5,0.6,2.7,1.4,3.8,2.4c1,1,1.8,2.3,2.3,3.8C228.7-112.5,229-110.8,229-108.9z M225.5-108.8c0-1.4-0.2-2.6-0.5-3.8
			c-0.3-1.2-0.9-2.2-1.6-3c-0.7-0.8-1.6-1.5-2.7-2c-1.1-0.5-2.5-0.7-4.2-0.7h-3.4v19.4h3.4c1.6,0,2.9-0.2,4-0.6c1.1-0.4,2-1,2.7-1.8
			c0.7-0.8,1.3-1.9,1.7-3.1C225.3-105.6,225.5-107.1,225.5-108.8z"/>
		<path d="M237.3-119.8c0,0.7-0.1,1.3-0.4,1.5s-0.8,0.4-1.6,0.4c-0.7,0-1.3-0.1-1.5-0.4c-0.3-0.3-0.4-0.8-0.4-1.5
			c0-0.7,0.1-1.3,0.4-1.5c0.3-0.3,0.8-0.4,1.6-0.4c0.7,0,1.3,0.1,1.5,0.4C237.1-121,237.3-120.5,237.3-119.8z M236.9-96.6
			c0,0.1,0,0.2-0.1,0.3c-0.1,0.1-0.1,0.1-0.3,0.2c-0.1,0.1-0.3,0.1-0.5,0.1c-0.2,0-0.5,0-0.8,0c-0.3,0-0.6,0-0.8,0s-0.4-0.1-0.5-0.1
			c-0.1-0.1-0.2-0.1-0.3-0.2c0-0.1-0.1-0.2-0.1-0.3v-17.4c0-0.1,0-0.2,0.1-0.3s0.1-0.1,0.3-0.2c0.1-0.1,0.3-0.1,0.5-0.1
			c0.2,0,0.5,0,0.8,0c0.3,0,0.6,0,0.8,0c0.2,0,0.4,0.1,0.5,0.1c0.1,0.1,0.2,0.1,0.3,0.2c0.1,0.1,0.1,0.2,0.1,0.3V-96.6z"/>
		<path d="M257.3-113.1c0,0.5-0.1,0.8-0.2,1c-0.1,0.2-0.3,0.3-0.5,0.3h-2.5c0.5,0.5,0.8,1,0.9,1.5c0.2,0.6,0.3,1.1,0.3,1.7
			c0,1-0.2,1.9-0.5,2.7c-0.3,0.8-0.8,1.4-1.4,2c-0.6,0.5-1.3,0.9-2.1,1.2s-1.7,0.4-2.7,0.4c-0.7,0-1.4-0.1-2-0.3s-1.1-0.4-1.5-0.7
			c-0.2,0.2-0.4,0.5-0.6,0.8c-0.1,0.3-0.2,0.6-0.2,1c0,0.5,0.2,0.8,0.6,1.1c0.4,0.3,1,0.5,1.7,0.5l4.5,0.2c0.9,0,1.7,0.1,2.4,0.4
			c0.7,0.2,1.3,0.5,1.9,0.9c0.5,0.4,0.9,0.9,1.2,1.4s0.4,1.2,0.4,2c0,0.8-0.2,1.6-0.5,2.3c-0.3,0.7-0.8,1.4-1.5,1.9s-1.6,1-2.6,1.3
			s-2.3,0.5-3.8,0.5c-1.4,0-2.6-0.1-3.6-0.4c-1-0.2-1.8-0.6-2.4-1c-0.6-0.4-1.1-0.9-1.4-1.5c-0.3-0.6-0.4-1.2-0.4-1.9
			c0-0.4,0.1-0.8,0.2-1.2c0.1-0.4,0.3-0.8,0.5-1.1s0.5-0.7,0.8-1c0.3-0.3,0.7-0.7,1.1-1c-0.6-0.3-1.1-0.7-1.4-1.2s-0.5-1-0.5-1.6
			c0-0.8,0.2-1.5,0.5-2.1c0.3-0.6,0.7-1.2,1.2-1.7c-0.4-0.5-0.7-1-0.9-1.6c-0.2-0.6-0.3-1.3-0.3-2.2c0-1,0.2-1.9,0.5-2.7
			c0.3-0.8,0.8-1.4,1.4-2c0.6-0.5,1.3-1,2.1-1.2c0.8-0.3,1.7-0.4,2.7-0.4c0.5,0,1,0,1.5,0.1c0.5,0.1,0.9,0.1,1.3,0.2h5.2
			c0.2,0,0.4,0.1,0.5,0.3C257.3-113.9,257.3-113.6,257.3-113.1z M253.9-94.8c0-0.7-0.3-1.3-0.9-1.7c-0.6-0.4-1.4-0.6-2.5-0.6
			l-4.5-0.2c-0.4,0.3-0.8,0.6-1,0.9c-0.3,0.3-0.5,0.6-0.6,0.8s-0.3,0.5-0.3,0.8c-0.1,0.3-0.1,0.5-0.1,0.8c0,0.8,0.4,1.5,1.3,1.9
			c0.8,0.4,2,0.6,3.6,0.6c1,0,1.8-0.1,2.4-0.3c0.6-0.2,1.2-0.4,1.6-0.7c0.4-0.3,0.7-0.7,0.9-1.1C253.8-93.9,253.9-94.4,253.9-94.8z
			 M252.3-108.6c0-1.2-0.3-2.1-1-2.8c-0.7-0.7-1.6-1-2.8-1c-0.6,0-1.2,0.1-1.6,0.3c-0.5,0.2-0.8,0.5-1.1,0.8
			c-0.3,0.4-0.5,0.8-0.7,1.2c-0.1,0.5-0.2,1-0.2,1.5c0,1.1,0.3,2,1,2.7c0.7,0.7,1.6,1,2.7,1c0.6,0,1.2-0.1,1.6-0.3
			c0.5-0.2,0.8-0.5,1.1-0.8c0.3-0.4,0.5-0.8,0.7-1.2C252.3-107.6,252.3-108.1,252.3-108.6z"/>
		<path d="M265-119.8c0,0.7-0.1,1.3-0.4,1.5s-0.8,0.4-1.6,0.4c-0.7,0-1.3-0.1-1.5-0.4c-0.3-0.3-0.4-0.8-0.4-1.5
			c0-0.7,0.1-1.3,0.4-1.5c0.3-0.3,0.8-0.4,1.6-0.4c0.7,0,1.3,0.1,1.5,0.4C264.8-121,265-120.5,265-119.8z M264.6-96.6
			c0,0.1,0,0.2-0.1,0.3c-0.1,0.1-0.1,0.1-0.3,0.2c-0.1,0.1-0.3,0.1-0.5,0.1c-0.2,0-0.5,0-0.8,0c-0.3,0-0.6,0-0.8,0s-0.4-0.1-0.5-0.1
			c-0.1-0.1-0.2-0.1-0.3-0.2c0-0.1-0.1-0.2-0.1-0.3v-17.4c0-0.1,0-0.2,0.1-0.3s0.1-0.1,0.3-0.2c0.1-0.1,0.3-0.1,0.5-0.1
			c0.2,0,0.5,0,0.8,0c0.3,0,0.6,0,0.8,0c0.2,0,0.4,0.1,0.5,0.1c0.1,0.1,0.2,0.1,0.3,0.2c0.1,0.1,0.1,0.2,0.1,0.3V-96.6z"/>
		<path d="M279.5-97.8c0,0.4,0,0.7-0.1,0.9c-0.1,0.2-0.1,0.4-0.2,0.5c-0.1,0.1-0.3,0.2-0.5,0.3c-0.2,0.1-0.4,0.2-0.7,0.2
			c-0.3,0.1-0.5,0.1-0.8,0.1c-0.3,0-0.6,0.1-0.9,0.1c-0.9,0-1.7-0.1-2.3-0.4c-0.6-0.2-1.2-0.6-1.6-1.1c-0.4-0.5-0.7-1.1-0.9-1.8
			s-0.3-1.6-0.3-2.6v-10.2h-2.4c-0.2,0-0.3-0.1-0.5-0.3c-0.1-0.2-0.2-0.5-0.2-1c0-0.2,0-0.5,0-0.6c0-0.2,0.1-0.3,0.1-0.4
			s0.1-0.2,0.2-0.2c0.1,0,0.2-0.1,0.3-0.1h2.4v-4.1c0-0.1,0-0.2,0.1-0.3s0.1-0.1,0.3-0.2c0.1-0.1,0.3-0.1,0.5-0.1c0.2,0,0.5,0,0.8,0
			c0.3,0,0.6,0,0.8,0c0.2,0,0.4,0.1,0.5,0.1c0.1,0.1,0.2,0.1,0.2,0.2c0.1,0.1,0.1,0.2,0.1,0.3v4.1h4.5c0.1,0,0.2,0,0.3,0.1
			c0.1,0,0.1,0.1,0.2,0.2s0.1,0.2,0.1,0.4c0,0.2,0,0.4,0,0.6c0,0.5-0.1,0.8-0.2,1s-0.3,0.3-0.5,0.3h-4.5v9.7c0,1.2,0.2,2.1,0.5,2.7
			s1,0.9,1.9,0.9c0.3,0,0.6,0,0.8-0.1c0.2-0.1,0.4-0.1,0.6-0.2c0.2-0.1,0.3-0.1,0.5-0.2c0.1-0.1,0.2-0.1,0.3-0.1c0.1,0,0.1,0,0.2,0
			s0.1,0.1,0.1,0.2s0.1,0.2,0.1,0.4C279.5-98.3,279.5-98.1,279.5-97.8z"/>
		<path d="M296.3-96.5c0,0.2-0.1,0.3-0.2,0.3c-0.1,0.1-0.2,0.1-0.4,0.2c-0.2,0-0.4,0.1-0.8,0.1c-0.3,0-0.6,0-0.8-0.1
			c-0.2,0-0.3-0.1-0.4-0.2s-0.1-0.2-0.1-0.3v-1.7c-0.8,0.8-1.6,1.4-2.5,1.9c-0.9,0.5-1.9,0.7-3,0.7c-0.9,0-1.7-0.1-2.5-0.4
			c-0.7-0.2-1.4-0.6-1.9-1c-0.5-0.5-0.9-1-1.2-1.7c-0.3-0.7-0.4-1.4-0.4-2.2c0-1,0.2-1.8,0.6-2.5c0.4-0.7,1-1.3,1.7-1.8
			c0.7-0.5,1.7-0.8,2.7-1.1s2.3-0.4,3.6-0.4h2.4v-1.4c0-0.7-0.1-1.3-0.2-1.8c-0.1-0.5-0.4-0.9-0.7-1.3s-0.7-0.6-1.2-0.8
			s-1.1-0.3-1.9-0.3c-0.8,0-1.5,0.1-2.1,0.3s-1.2,0.4-1.6,0.6c-0.5,0.2-0.9,0.4-1.2,0.6s-0.5,0.3-0.7,0.3c-0.1,0-0.2,0-0.3-0.1
			c-0.1-0.1-0.1-0.1-0.2-0.2c-0.1-0.1-0.1-0.2-0.1-0.4c0-0.2,0-0.3,0-0.5c0-0.3,0-0.6,0.1-0.8s0.2-0.4,0.3-0.5
			c0.2-0.2,0.5-0.4,0.9-0.6c0.4-0.2,0.9-0.4,1.5-0.6c0.6-0.2,1.2-0.3,1.8-0.5c0.7-0.1,1.3-0.2,2-0.2c1.2,0,2.3,0.1,3.2,0.4
			s1.6,0.7,2.1,1.2c0.5,0.5,0.9,1.2,1.2,2s0.4,1.8,0.4,2.8V-96.5z M293.2-104.5h-2.7c-0.9,0-1.6,0.1-2.3,0.2
			c-0.6,0.1-1.2,0.4-1.6,0.7c-0.4,0.3-0.7,0.6-0.9,1c-0.2,0.4-0.3,0.9-0.3,1.4c0,0.9,0.3,1.6,0.9,2.2c0.6,0.5,1.4,0.8,2.4,0.8
			c0.8,0,1.6-0.2,2.3-0.6c0.7-0.4,1.5-1.1,2.2-1.9V-104.5z"/>
		<path d="M305.4-96.6c0,0.1,0,0.2-0.1,0.3c-0.1,0.1-0.1,0.1-0.3,0.2c-0.1,0.1-0.3,0.1-0.5,0.1c-0.2,0-0.5,0-0.8,0
			c-0.3,0-0.6,0-0.8,0s-0.4-0.1-0.5-0.1c-0.1-0.1-0.2-0.1-0.3-0.2c0-0.1-0.1-0.2-0.1-0.3v-25.8c0-0.1,0-0.2,0.1-0.3s0.1-0.1,0.3-0.2
			s0.3-0.1,0.5-0.1c0.2,0,0.5,0,0.8,0c0.3,0,0.6,0,0.8,0c0.2,0,0.4,0.1,0.5,0.1c0.1,0.1,0.2,0.1,0.3,0.2c0.1,0.1,0.1,0.2,0.1,0.3
			V-96.6z"/>
	</g>
	<g class="st9">
		<path d="M44.2-57c0.1,0.3,0.2,0.5,0.2,0.7c0,0.2,0,0.3-0.1,0.4c-0.1,0.1-0.3,0.1-0.5,0.2s-0.6,0-1,0c-0.4,0-0.7,0-1,0
			s-0.4-0.1-0.5-0.1S41-56,40.9-56c-0.1-0.1-0.1-0.2-0.2-0.3l-2.1-6.1H28.3l-2,6c0,0.1-0.1,0.2-0.2,0.3C26-56,25.9-56,25.8-55.9
			c-0.1,0.1-0.3,0.1-0.5,0.1c-0.2,0-0.5,0-0.9,0c-0.4,0-0.7,0-0.9,0S23.1-55.9,23-56c-0.1-0.1-0.1-0.2-0.1-0.4
			c0-0.2,0.1-0.4,0.2-0.7l8.4-23.2c0.1-0.1,0.1-0.3,0.2-0.3c0.1-0.1,0.2-0.2,0.4-0.2c0.2-0.1,0.4-0.1,0.6-0.1c0.3,0,0.6,0,1,0
			c0.4,0,0.8,0,1,0c0.3,0,0.5,0.1,0.7,0.1c0.2,0.1,0.3,0.1,0.4,0.2c0.1,0.1,0.2,0.2,0.2,0.4L44.2-57z M33.4-77.5L33.4-77.5
			l-4.3,12.5h8.7L33.4-77.5z"/>
		<path d="M62.9-56.3c0,0.1,0,0.2-0.1,0.3c-0.1,0.1-0.1,0.1-0.3,0.2c-0.1,0.1-0.3,0.1-0.5,0.1s-0.5,0-0.8,0c-0.3,0-0.6,0-0.8,0
			c-0.2,0-0.4-0.1-0.5-0.1c-0.1-0.1-0.2-0.1-0.3-0.2c-0.1-0.1-0.1-0.2-0.1-0.3v-10.2c0-1-0.1-1.8-0.2-2.4c-0.2-0.6-0.4-1.1-0.7-1.6
			c-0.3-0.4-0.7-0.8-1.1-1c-0.5-0.2-1-0.3-1.6-0.3c-0.8,0-1.6,0.3-2.4,0.8s-1.6,1.4-2.5,2.5v12.1c0,0.1,0,0.2-0.1,0.3
			c-0.1,0.1-0.1,0.1-0.3,0.2c-0.1,0.1-0.3,0.1-0.5,0.1c-0.2,0-0.5,0-0.8,0c-0.3,0-0.6,0-0.8,0s-0.4-0.1-0.5-0.1
			c-0.1-0.1-0.2-0.1-0.3-0.2c0-0.1-0.1-0.2-0.1-0.3v-17.4c0-0.1,0-0.2,0.1-0.3c0-0.1,0.1-0.1,0.2-0.2c0.1-0.1,0.3-0.1,0.4-0.1
			c0.2,0,0.4,0,0.7,0c0.3,0,0.5,0,0.7,0s0.3,0.1,0.4,0.1c0.1,0.1,0.2,0.1,0.2,0.2c0,0.1,0.1,0.2,0.1,0.3v2.3c1-1.1,2-1.9,2.9-2.4
			c1-0.5,2-0.8,2.9-0.8c1.2,0,2.1,0.2,2.9,0.6s1.4,0.9,1.9,1.6c0.5,0.7,0.8,1.4,1.1,2.3c0.2,0.9,0.3,1.9,0.3,3.2V-56.3z"/>
		<path d="M81.8-56.3c0,0.2-0.1,0.3-0.2,0.3c-0.1,0.1-0.2,0.1-0.4,0.2c-0.2,0-0.4,0.1-0.8,0.1c-0.3,0-0.6,0-0.8-0.1
			c-0.2,0-0.3-0.1-0.4-0.2s-0.1-0.2-0.1-0.3v-1.7c-0.8,0.8-1.6,1.4-2.5,1.9c-0.9,0.5-1.9,0.7-3,0.7c-0.9,0-1.7-0.1-2.5-0.4
			c-0.7-0.2-1.4-0.6-1.9-1c-0.5-0.5-0.9-1-1.2-1.7c-0.3-0.7-0.4-1.4-0.4-2.2c0-1,0.2-1.8,0.6-2.5c0.4-0.7,1-1.3,1.7-1.8
			c0.7-0.5,1.7-0.8,2.7-1.1s2.3-0.4,3.6-0.4h2.4v-1.4c0-0.7-0.1-1.3-0.2-1.8c-0.1-0.5-0.4-0.9-0.7-1.3s-0.7-0.6-1.2-0.8
			S75.4-72,74.7-72c-0.8,0-1.5,0.1-2.1,0.3s-1.2,0.4-1.6,0.6c-0.5,0.2-0.9,0.4-1.2,0.6s-0.5,0.3-0.7,0.3c-0.1,0-0.2,0-0.3-0.1
			c-0.1-0.1-0.1-0.1-0.2-0.2c-0.1-0.1-0.1-0.2-0.1-0.4c0-0.2,0-0.3,0-0.5c0-0.3,0-0.6,0.1-0.8s0.2-0.4,0.3-0.5
			c0.2-0.2,0.5-0.4,0.9-0.6c0.4-0.2,0.9-0.4,1.5-0.6c0.6-0.2,1.2-0.3,1.8-0.5c0.7-0.1,1.3-0.2,2-0.2c1.2,0,2.3,0.1,3.2,0.4
			s1.6,0.7,2.1,1.2c0.5,0.5,0.9,1.2,1.2,2s0.4,1.8,0.4,2.8V-56.3z M78.7-64.3h-2.7c-0.9,0-1.6,0.1-2.3,0.2c-0.6,0.1-1.2,0.4-1.6,0.7
			c-0.4,0.3-0.7,0.6-0.9,1c-0.2,0.4-0.3,0.9-0.3,1.4c0,0.9,0.3,1.6,0.9,2.2c0.6,0.5,1.4,0.8,2.4,0.8c0.8,0,1.6-0.2,2.3-0.6
			c0.7-0.4,1.5-1.1,2.2-1.9V-64.3z"/>
		<path d="M90.9-56.3c0,0.1,0,0.2-0.1,0.3c-0.1,0.1-0.1,0.1-0.3,0.2c-0.1,0.1-0.3,0.1-0.5,0.1c-0.2,0-0.5,0-0.8,0
			c-0.3,0-0.6,0-0.8,0s-0.4-0.1-0.5-0.1c-0.1-0.1-0.2-0.1-0.3-0.2c0-0.1-0.1-0.2-0.1-0.3v-25.8c0-0.1,0-0.2,0.1-0.3s0.1-0.1,0.3-0.2
			s0.3-0.1,0.5-0.1c0.2,0,0.5,0,0.8,0c0.3,0,0.6,0,0.8,0c0.2,0,0.4,0.1,0.5,0.1c0.1,0.1,0.2,0.1,0.3,0.2c0.1,0.1,0.1,0.2,0.1,0.3
			V-56.3z"/>
		<path d="M112.9-65.2c0,1.4-0.2,2.7-0.6,3.9s-0.9,2.2-1.7,3.1c-0.7,0.9-1.7,1.5-2.8,2s-2.4,0.7-3.9,0.7c-1.4,0-2.7-0.2-3.7-0.6
			s-1.9-1-2.7-1.9c-0.7-0.8-1.2-1.8-1.6-3c-0.3-1.2-0.5-2.5-0.5-3.9c0-1.4,0.2-2.7,0.5-3.9c0.4-1.2,0.9-2.2,1.7-3.1s1.7-1.5,2.8-2
			c1.1-0.5,2.4-0.7,3.9-0.7c1.4,0,2.7,0.2,3.7,0.6c1.1,0.4,1.9,1,2.7,1.9c0.7,0.8,1.2,1.8,1.6,3C112.7-68,112.9-66.7,112.9-65.2z
			 M109.6-65c0-0.9-0.1-1.8-0.3-2.7c-0.2-0.8-0.5-1.6-0.9-2.2c-0.4-0.6-0.9-1.1-1.6-1.5c-0.7-0.4-1.5-0.6-2.6-0.6
			c-0.9,0-1.8,0.2-2.4,0.5c-0.7,0.3-1.2,0.8-1.7,1.4s-0.8,1.3-1,2.2s-0.3,1.8-0.3,2.7c0,1,0.1,1.8,0.3,2.7c0.2,0.8,0.5,1.6,0.9,2.2
			s1,1.1,1.6,1.5c0.7,0.4,1.5,0.5,2.6,0.5c0.9,0,1.7-0.2,2.4-0.5c0.7-0.3,1.3-0.8,1.7-1.4c0.4-0.6,0.8-1.3,1-2.2
			C109.5-63.1,109.6-64,109.6-65z"/>
		<path d="M132.1-72.9c0,0.5-0.1,0.8-0.2,1c-0.1,0.2-0.3,0.3-0.5,0.3H129c0.5,0.5,0.8,1,0.9,1.5c0.2,0.6,0.3,1.1,0.3,1.7
			c0,1-0.2,1.9-0.5,2.7c-0.3,0.8-0.8,1.4-1.4,2c-0.6,0.5-1.3,0.9-2.1,1.2s-1.7,0.4-2.7,0.4c-0.7,0-1.4-0.1-2-0.3s-1.1-0.4-1.5-0.7
			c-0.2,0.2-0.4,0.5-0.6,0.8c-0.1,0.3-0.2,0.6-0.2,1c0,0.5,0.2,0.8,0.6,1.1c0.4,0.3,1,0.5,1.7,0.5l4.5,0.2c0.9,0,1.7,0.1,2.4,0.4
			c0.7,0.2,1.3,0.5,1.9,0.9c0.5,0.4,0.9,0.9,1.2,1.4s0.4,1.2,0.4,2c0,0.8-0.2,1.6-0.5,2.3c-0.3,0.7-0.8,1.4-1.5,1.9s-1.6,1-2.6,1.3
			s-2.3,0.5-3.8,0.5c-1.4,0-2.6-0.1-3.6-0.4c-1-0.2-1.8-0.6-2.4-1c-0.6-0.4-1.1-0.9-1.4-1.5c-0.3-0.6-0.4-1.2-0.4-1.9
			c0-0.4,0.1-0.8,0.2-1.2c0.1-0.4,0.3-0.8,0.5-1.1s0.5-0.7,0.8-1c0.3-0.3,0.7-0.7,1.1-1c-0.6-0.3-1.1-0.7-1.4-1.2s-0.5-1-0.5-1.6
			c0-0.8,0.2-1.5,0.5-2.1c0.3-0.6,0.7-1.2,1.2-1.7c-0.4-0.5-0.7-1-0.9-1.6c-0.2-0.6-0.3-1.3-0.3-2.2c0-1,0.2-1.9,0.5-2.7
			c0.3-0.8,0.8-1.4,1.4-2c0.6-0.5,1.3-1,2.1-1.2c0.8-0.3,1.7-0.4,2.7-0.4c0.5,0,1,0,1.5,0.1c0.5,0.1,0.9,0.1,1.3,0.2h5.2
			c0.2,0,0.4,0.1,0.5,0.3C132-73.7,132.1-73.4,132.1-72.9z M128.7-54.6c0-0.7-0.3-1.3-0.9-1.7c-0.6-0.4-1.4-0.6-2.5-0.6l-4.5-0.2
			c-0.4,0.3-0.8,0.6-1,0.9c-0.3,0.3-0.5,0.6-0.6,0.8s-0.3,0.5-0.3,0.8c-0.1,0.3-0.1,0.5-0.1,0.8c0,0.8,0.4,1.5,1.3,1.9
			c0.8,0.4,2,0.6,3.6,0.6c1,0,1.8-0.1,2.4-0.3c0.6-0.2,1.2-0.4,1.6-0.7c0.4-0.3,0.7-0.7,0.9-1.1C128.6-53.7,128.7-54.1,128.7-54.6z
			 M127.1-68.3c0-1.2-0.3-2.1-1-2.8c-0.7-0.7-1.6-1-2.8-1c-0.6,0-1.2,0.1-1.6,0.3c-0.5,0.2-0.8,0.5-1.1,0.8
			c-0.3,0.4-0.5,0.8-0.7,1.2c-0.1,0.5-0.2,1-0.2,1.5c0,1.1,0.3,2,1,2.7c0.7,0.7,1.6,1,2.7,1c0.6,0,1.2-0.1,1.6-0.3
			c0.5-0.2,0.8-0.5,1.1-0.8c0.3-0.4,0.5-0.8,0.7-1.2C127-67.4,127.1-67.8,127.1-68.3z"/>
	</g>
	<g class="st9">
		<path d="M196.7-60c0,0.2,0,0.5-0.1,0.6c0,0.2-0.1,0.3-0.2,0.4c-0.1,0.1-0.1,0.2-0.2,0.3s-0.2,0.1-0.3,0.1h-6.3v7
			c0,0.1,0,0.2-0.1,0.3c-0.1,0.1-0.1,0.1-0.2,0.2c-0.1,0.1-0.3,0.1-0.4,0.1c-0.2,0-0.4,0-0.7,0c-0.3,0-0.5,0-0.7,0s-0.3-0.1-0.4-0.1
			c-0.1-0.1-0.2-0.1-0.2-0.2c-0.1-0.1-0.1-0.2-0.1-0.3v-7h-6.3c-0.1,0-0.2,0-0.3-0.1c-0.1-0.1-0.2-0.1-0.2-0.3
			c-0.1-0.1-0.1-0.3-0.2-0.4c0-0.2-0.1-0.4-0.1-0.6c0-0.2,0-0.4,0.1-0.6c0-0.2,0.1-0.3,0.2-0.4c0.1-0.1,0.1-0.2,0.2-0.3
			c0.1-0.1,0.2-0.1,0.3-0.1h6.4v-7c0-0.1,0-0.2,0.1-0.3s0.1-0.2,0.2-0.2c0.1-0.1,0.3-0.1,0.4-0.1s0.4,0,0.7,0c0.3,0,0.5,0,0.7,0
			c0.2,0,0.3,0.1,0.4,0.1c0.1,0.1,0.2,0.1,0.2,0.2c0.1,0.1,0.1,0.2,0.1,0.3v7h6.4c0.1,0,0.2,0,0.3,0.1c0.1,0.1,0.2,0.1,0.2,0.3
			c0.1,0.1,0.1,0.3,0.2,0.4C196.7-60.5,196.7-60.3,196.7-60z"/>
		<path d="M211.4-49.5c-0.1,0.1-0.1,0.3-0.2,0.3s-0.2,0.2-0.4,0.2c-0.2,0.1-0.4,0.1-0.6,0.1s-0.6,0-0.9,0c-0.3,0-0.5,0-0.7,0
			c-0.2,0-0.4,0-0.6,0c-0.2,0-0.3-0.1-0.4-0.1c-0.1,0-0.2-0.1-0.3-0.1s-0.1-0.1-0.2-0.2c0-0.1-0.1-0.2-0.1-0.3l-8.2-23.2
			c-0.1-0.3-0.2-0.5-0.2-0.7c0-0.2,0-0.3,0.2-0.4c0.1-0.1,0.3-0.1,0.6-0.2c0.3,0,0.6,0,1,0c0.4,0,0.6,0,0.9,0c0.2,0,0.4,0.1,0.5,0.1
			c0.1,0.1,0.2,0.1,0.3,0.2s0.1,0.2,0.2,0.3l7.2,21h0l7-21c0-0.1,0.1-0.3,0.1-0.3s0.1-0.2,0.3-0.2c0.1-0.1,0.3-0.1,0.5-0.1
			c0.2,0,0.5,0,0.9,0c0.4,0,0.7,0,0.9,0c0.2,0,0.4,0.1,0.5,0.2c0.1,0.1,0.1,0.2,0.1,0.4c0,0.2-0.1,0.4-0.2,0.7L211.4-49.5z"/>
	</g>
	<g class="st9">
		<path class="st0" d="M331.2-762.1c0.1,0,0.2,0,0.3,0.1c0.1,0.1,0.2,0.2,0.2,0.3s0.1,0.4,0.2,0.6c0,0.3,0.1,0.6,0.1,1
			c0,0.5,0,1-0.1,1.3c0,0.3-0.1,0.6-0.3,0.8c-0.1,0.2-0.3,0.3-0.4,0.4L316-746.3h15.2c0.1,0,0.2,0,0.3,0.1c0.1,0.1,0.2,0.2,0.2,0.3
			c0.1,0.2,0.1,0.4,0.1,0.6s0.1,0.6,0.1,1c0,0.4,0,0.7-0.1,1s-0.1,0.5-0.1,0.6c-0.1,0.2-0.1,0.3-0.2,0.3c-0.1,0.1-0.2,0.1-0.3,0.1
			h-29.2c-0.1,0-0.2,0-0.3-0.1s-0.2-0.2-0.2-0.3c-0.1-0.2-0.1-0.4-0.1-0.6s-0.1-0.6-0.1-1c0-0.4,0-0.7,0.1-1s0.1-0.5,0.1-0.6
			c0.1-0.2,0.1-0.3,0.2-0.3s0.2-0.1,0.3-0.1h13.5l-13.5-10.8c-0.1-0.1-0.3-0.2-0.4-0.3c-0.1-0.1-0.2-0.3-0.2-0.5
			c-0.1-0.2-0.1-0.4-0.1-0.7c0-0.3,0-0.6,0-1c0-0.4,0-0.7,0.1-1c0-0.2,0.1-0.5,0.2-0.6c0.1-0.1,0.1-0.2,0.2-0.3s0.2-0.1,0.3-0.1
			c0.2,0,0.4,0.1,0.6,0.2c0.2,0.1,0.5,0.3,0.8,0.6l12.1,10.1l14.4-10.9c0.4-0.3,0.7-0.4,0.8-0.5C331-762.1,331.1-762.1,331.2-762.1z
			"/>
		<path class="st0" d="M320-776.9h11.2c0.1,0,0.2,0,0.3,0.1c0.1,0.1,0.2,0.2,0.2,0.3c0.1,0.2,0.1,0.4,0.1,0.6s0.1,0.6,0.1,1
			c0,0.4,0,0.7-0.1,1s-0.1,0.5-0.1,0.6c-0.1,0.2-0.1,0.3-0.2,0.3c-0.1,0.1-0.2,0.1-0.3,0.1H320l-17.1,8.6c-0.4,0.2-0.6,0.3-0.8,0.3
			c-0.2,0-0.4,0-0.5-0.1c-0.1-0.1-0.2-0.3-0.2-0.6c0-0.3,0-0.7,0-1.2c0-0.5,0-0.8,0-1.1s0.1-0.5,0.1-0.7c0.1-0.2,0.1-0.3,0.2-0.4
			s0.2-0.2,0.4-0.2l8.7-4.2c0.8-0.4,1.7-0.8,2.6-1.2c0.9-0.4,1.8-0.8,2.7-1.2v0c-0.9-0.4-1.8-0.7-2.7-1.1c-0.9-0.4-1.8-0.8-2.6-1.2
			l-8.8-4.2c-0.2,0-0.3-0.1-0.4-0.2s-0.2-0.2-0.2-0.4c-0.1-0.1-0.1-0.4-0.1-0.6s0-0.6,0-1c0-0.6,0-1,0.1-1.3s0.1-0.5,0.2-0.7
			c0.1-0.1,0.3-0.2,0.5-0.1c0.2,0,0.5,0.1,0.8,0.3L320-776.9z"/>
		<path class="st0" d="M320-797c0.6,0,1,0.1,1.3,0.2c0.2,0.1,0.4,0.3,0.4,0.6v9.8c0,0.3-0.1,0.5-0.4,0.6c-0.2,0.1-0.7,0.2-1.3,0.2
			c-0.6,0-1-0.1-1.2-0.2c-0.2-0.1-0.4-0.4-0.4-0.6v-9.8c0-0.1,0-0.2,0.1-0.3c0-0.1,0.1-0.2,0.3-0.3c0.1-0.1,0.3-0.1,0.5-0.2
			C319.4-797,319.7-797,320-797z"/>
		<path class="st0" d="M316.6-821.4c2.3,0,4.5,0.2,6.4,0.6c1.9,0.4,3.6,1,5,1.8c1.4,0.9,2.5,2,3.2,3.3c0.8,1.4,1.1,3.1,1.1,5.1
			c0,1.9-0.3,3.5-1,4.8c-0.7,1.3-1.7,2.4-3,3.2c-1.3,0.8-3,1.4-4.9,1.7c-1.9,0.3-4.2,0.5-6.7,0.5c-2.3,0-4.4-0.2-6.4-0.6
			c-1.9-0.4-3.6-1-5-1.8c-1.4-0.8-2.5-2-3.2-3.3s-1.1-3.1-1.1-5.1c0-1.9,0.3-3.5,1-4.9c0.7-1.3,1.7-2.4,3-3.2s3-1.4,4.9-1.7
			S314.1-821.4,316.6-821.4z M316.9-817.2c-1.5,0-2.9,0.1-4.1,0.2c-1.2,0.1-2.3,0.3-3.2,0.5c-0.9,0.2-1.7,0.5-2.4,0.8
			c-0.7,0.3-1.2,0.7-1.6,1.2c-0.4,0.5-0.7,1-0.9,1.6c-0.2,0.6-0.3,1.3-0.3,2c0,1.3,0.3,2.4,0.9,3.2c0.6,0.8,1.5,1.5,2.6,2
			c1.1,0.5,2.4,0.8,3.9,1c1.5,0.2,3.1,0.3,4.7,0.3c2.3,0,4.2-0.1,5.8-0.4s2.9-0.6,3.9-1.1c1-0.5,1.7-1.2,2.2-1.9
			c0.5-0.8,0.7-1.8,0.7-2.9c0-0.9-0.1-1.6-0.4-2.3s-0.7-1.2-1.2-1.7c-0.5-0.5-1.2-0.9-1.9-1.2c-0.7-0.3-1.5-0.6-2.4-0.8
			c-0.9-0.2-1.9-0.3-2.9-0.4C319.1-817.2,318-817.2,316.9-817.2z"/>
		<path class="st0" d="M330.1-844.7c0.3,0,0.5,0,0.8,0.1c0.2,0,0.4,0.1,0.6,0.2c0.1,0.1,0.3,0.2,0.3,0.3c0.1,0.1,0.1,0.2,0.1,0.4
			v16.8c0,0.2,0,0.4-0.1,0.6c-0.1,0.2-0.1,0.3-0.3,0.4c-0.1,0.1-0.3,0.2-0.5,0.3c-0.2,0.1-0.5,0.1-0.9,0.1c-0.3,0-0.6,0-0.8,0
			c-0.2,0-0.4-0.1-0.6-0.2c-0.2-0.1-0.4-0.2-0.5-0.3s-0.4-0.3-0.6-0.5l-6.2-6.1c-1.4-1.4-2.7-2.5-3.9-3.4c-1.1-0.8-2.2-1.5-3.1-2
			c-0.9-0.5-1.8-0.8-2.6-0.9s-1.5-0.2-2.2-0.2s-1.3,0.1-1.9,0.3c-0.6,0.2-1.1,0.6-1.6,1c-0.5,0.4-0.8,1-1.1,1.6s-0.4,1.4-0.4,2.2
			c0,1,0.1,1.9,0.4,2.7c0.3,0.8,0.6,1.5,0.9,2.1s0.6,1.1,0.9,1.5c0.3,0.4,0.4,0.7,0.4,0.9c0,0.1,0,0.2-0.1,0.3s-0.2,0.2-0.3,0.2
			s-0.3,0.1-0.6,0.1c-0.2,0-0.5,0-0.8,0c-0.2,0-0.4,0-0.6,0c-0.2,0-0.3,0-0.4-0.1s-0.2-0.1-0.4-0.2c-0.1-0.1-0.2-0.2-0.4-0.4
			c-0.2-0.2-0.4-0.5-0.7-1c-0.3-0.5-0.6-1-0.8-1.7c-0.3-0.7-0.5-1.5-0.7-2.3c-0.2-0.8-0.3-1.7-0.3-2.6c0-1.5,0.2-2.8,0.6-3.9
			c0.4-1.1,1-2,1.7-2.7s1.6-1.3,2.5-1.6s2-0.5,3.1-0.5c1,0,1.9,0.1,2.9,0.3c1,0.2,2,0.5,3.1,1.1s2.4,1.4,3.7,2.4
			c1.4,1,2.9,2.4,4.7,4.2l5,4.8v-13.2c0-0.1,0-0.2,0.1-0.4c0.1-0.1,0.2-0.2,0.3-0.3c0.1-0.1,0.3-0.1,0.5-0.2
			C329.6-844.7,329.8-844.7,330.1-844.7z"/>
		<path class="st0" d="M322-869.9c1.3,0,2.6,0.2,3.9,0.6s2.3,1,3.3,1.9c0.9,0.8,1.7,1.9,2.3,3.2c0.6,1.3,0.9,2.8,0.9,4.6
			c0,1.3-0.2,2.4-0.5,3.4c-0.3,1-0.8,1.8-1.3,2.5s-1.3,1.3-2.1,1.8c-0.8,0.5-1.8,0.9-2.9,1.2c-1.1,0.3-2.3,0.5-3.5,0.6
			c-1.3,0.1-2.7,0.2-4.1,0.2c-1.3,0-2.6-0.1-3.9-0.2c-1.3-0.1-2.6-0.4-3.9-0.8s-2.4-0.8-3.5-1.5c-1.1-0.6-2-1.4-2.8-2.3
			c-0.8-0.9-1.4-2-1.9-3.3c-0.5-1.3-0.7-2.8-0.7-4.5c0-0.6,0-1.2,0.1-1.8c0.1-0.6,0.2-1.1,0.3-1.6s0.2-0.9,0.4-1.3s0.3-0.6,0.3-0.7
			c0.1-0.1,0.2-0.2,0.3-0.2c0.1-0.1,0.2-0.1,0.3-0.1c0.1,0,0.3-0.1,0.4-0.1c0.1,0,0.3,0,0.6,0c0.3,0,0.5,0,0.7,0
			c0.2,0,0.4,0,0.5,0.1c0.1,0.1,0.2,0.1,0.3,0.2c0.1,0.1,0.1,0.2,0.1,0.3c0,0.2-0.1,0.4-0.2,0.7c-0.1,0.3-0.2,0.7-0.4,1.1
			c-0.1,0.4-0.3,0.9-0.4,1.5c-0.1,0.6-0.2,1.3-0.2,2.1c0,1.5,0.3,2.7,0.9,3.8c0.6,1,1.4,1.9,2.4,2.6c1,0.7,2.2,1.2,3.5,1.5
			c1.3,0.3,2.7,0.5,4.1,0.6c-0.2-0.4-0.5-0.9-0.7-1.4c-0.2-0.5-0.4-1.1-0.6-1.7c-0.2-0.6-0.3-1.2-0.5-1.9c-0.1-0.7-0.2-1.4-0.2-2.2
			c0-1.6,0.2-3,0.7-4.2c0.4-1.1,1.1-2,1.9-2.7c0.8-0.7,1.7-1.2,2.8-1.5C319.6-869.7,320.7-869.9,322-869.9z M322.4-865.8
			c-0.9,0-1.7,0.1-2.5,0.3c-0.7,0.2-1.4,0.5-1.9,0.9c-0.5,0.4-0.9,1-1.2,1.7c-0.3,0.7-0.4,1.6-0.4,2.6c0,0.6,0.1,1.2,0.2,1.7
			s0.2,1.1,0.4,1.7s0.4,1.1,0.6,1.6c0.2,0.5,0.5,0.9,0.8,1.4c2,0,3.7-0.1,5.1-0.4c1.4-0.3,2.5-0.6,3.3-1.1s1.4-1.1,1.8-1.8
			s0.5-1.6,0.5-2.6c0-1-0.2-1.9-0.6-2.6c-0.4-0.7-0.9-1.3-1.5-1.8c-0.6-0.5-1.3-0.8-2.1-1.1C324-865.7,323.2-865.8,322.4-865.8z"/>
	</g>
	<g class="st9">
		<path class="st0" d="M82.9-278c0.1,0.3,0.2,0.6,0.2,0.8c0,0.2-0.1,0.4-0.2,0.5s-0.3,0.2-0.6,0.2c-0.3,0-0.7,0-1.2,0s-0.9,0-1.2,0
			s-0.5-0.1-0.7-0.1c-0.1-0.1-0.3-0.1-0.3-0.2c-0.1-0.1-0.1-0.2-0.2-0.4l-2.6-7.4H63.5l-2.5,7.3c0,0.1-0.1,0.3-0.2,0.4
			c-0.1,0.1-0.2,0.2-0.3,0.3c-0.1,0.1-0.4,0.1-0.6,0.2s-0.6,0-1.1,0c-0.5,0-0.8,0-1.1-0.1c-0.3,0-0.5-0.1-0.6-0.2
			c-0.1-0.1-0.2-0.3-0.2-0.5c0-0.2,0.1-0.5,0.2-0.8l10.2-28.2c0.1-0.2,0.1-0.3,0.2-0.4c0.1-0.1,0.2-0.2,0.4-0.3
			c0.2-0.1,0.4-0.1,0.8-0.1s0.7,0,1.2,0c0.5,0,0.9,0,1.2,0c0.3,0,0.6,0.1,0.8,0.1c0.2,0.1,0.4,0.2,0.5,0.3c0.1,0.1,0.2,0.3,0.3,0.4
			L82.9-278z M69.8-302.9L69.8-302.9l-5.3,15.2h10.6L69.8-302.9z"/>
		<path class="st0" d="M106.6-291.8c0,2.3-0.2,4.5-0.6,6.4c-0.4,1.9-1,3.6-1.8,5c-0.9,1.4-2,2.5-3.3,3.2c-1.4,0.8-3.1,1.1-5.1,1.1
			c-1.9,0-3.5-0.3-4.8-1c-1.3-0.7-2.4-1.7-3.2-3c-0.8-1.3-1.4-3-1.7-4.9c-0.3-1.9-0.5-4.2-0.5-6.7c0-2.3,0.2-4.4,0.6-6.4
			c0.4-1.9,1-3.6,1.8-5c0.8-1.4,2-2.5,3.3-3.2s3.1-1.1,5.1-1.1c1.9,0,3.5,0.3,4.9,1c1.3,0.7,2.4,1.7,3.2,3s1.4,3,1.7,4.9
			S106.6-294.3,106.6-291.8z M102.5-291.6c0-1.5-0.1-2.9-0.2-4.1c-0.1-1.2-0.3-2.3-0.5-3.2c-0.2-0.9-0.5-1.7-0.8-2.4
			c-0.3-0.7-0.7-1.2-1.2-1.6c-0.5-0.4-1-0.7-1.6-0.9c-0.6-0.2-1.3-0.3-2-0.3c-1.3,0-2.4,0.3-3.2,0.9c-0.8,0.6-1.5,1.5-2,2.6
			c-0.5,1.1-0.8,2.4-1,3.9c-0.2,1.5-0.3,3.1-0.3,4.7c0,2.3,0.1,4.2,0.4,5.8s0.6,2.9,1.1,3.9c0.5,1,1.2,1.7,1.9,2.2
			c0.8,0.5,1.8,0.7,2.9,0.7c0.9,0,1.6-0.1,2.3-0.4s1.2-0.7,1.7-1.2c0.5-0.5,0.9-1.2,1.2-1.9c0.3-0.7,0.6-1.5,0.8-2.4
			c0.2-0.9,0.3-1.9,0.4-2.9C102.4-289.3,102.5-290.4,102.5-291.6z"/>
	</g>
	<g class="st9">
		<path class="st0" d="M152.9-302.8c0,0.3,0,0.6,0,0.8c0,0.2-0.1,0.4-0.1,0.6c-0.1,0.1-0.1,0.3-0.2,0.3c-0.1,0.1-0.2,0.1-0.3,0.1
			c-0.2,0-0.5-0.1-0.9-0.4c-0.4-0.3-1-0.6-1.8-1s-1.6-0.7-2.6-1c-1-0.3-2.2-0.4-3.7-0.4c-1.7,0-3.2,0.3-4.5,0.9
			c-1.3,0.6-2.5,1.5-3.4,2.5c-0.9,1.1-1.6,2.4-2.1,3.9c-0.5,1.5-0.7,3.1-0.7,4.8c0,1.9,0.3,3.7,0.8,5.2c0.5,1.5,1.3,2.8,2.2,3.8
			c1,1,2.1,1.8,3.4,2.3c1.3,0.5,2.8,0.8,4.4,0.8c0.9,0,1.9-0.1,2.9-0.3c1-0.2,1.9-0.6,2.7-1v-8.9h-7c-0.3,0-0.5-0.1-0.6-0.4
			c-0.1-0.3-0.2-0.7-0.2-1.2c0-0.3,0-0.6,0-0.8c0-0.2,0.1-0.4,0.2-0.5c0.1-0.1,0.2-0.2,0.2-0.3c0.1-0.1,0.2-0.1,0.4-0.1h9.7
			c0.2,0,0.3,0,0.5,0.1c0.2,0.1,0.3,0.2,0.5,0.3c0.1,0.1,0.2,0.3,0.3,0.5c0.1,0.2,0.1,0.5,0.1,0.8v11.6c0,0.4-0.1,0.8-0.2,1.1
			c-0.1,0.3-0.4,0.6-0.9,0.8c-0.5,0.2-1,0.5-1.8,0.7s-1.5,0.5-2.2,0.7c-0.8,0.2-1.5,0.3-2.3,0.4c-0.8,0.1-1.6,0.1-2.3,0.1
			c-2.3,0-4.4-0.4-6.3-1.1c-1.8-0.7-3.4-1.8-4.7-3.1c-1.3-1.3-2.3-3-2.9-4.8c-0.7-1.9-1-4-1-6.3c0-2.4,0.4-4.6,1.1-6.6
			s1.8-3.6,3.1-5s2.9-2.4,4.8-3.2c1.9-0.8,3.9-1.1,6.2-1.1c1.2,0,2.2,0.1,3.3,0.3c1,0.2,1.9,0.4,2.7,0.7c0.8,0.3,1.5,0.6,2,0.9
			c0.5,0.3,0.9,0.6,1.1,0.8c0.2,0.2,0.3,0.4,0.4,0.7C152.9-303.7,152.9-303.3,152.9-302.8z"/>
	</g>
	<g class="st9">
		<path class="st0" d="M210.5-287.1c0,0.3,0,0.6-0.1,0.8c0,0.2-0.1,0.4-0.2,0.5c-0.1,0.1-0.2,0.2-0.3,0.3s-0.2,0.1-0.4,0.1h-7.7v8.6
			c0,0.1,0,0.2-0.1,0.3s-0.2,0.2-0.3,0.2c-0.1,0.1-0.3,0.1-0.5,0.2s-0.5,0.1-0.8,0.1c-0.3,0-0.6,0-0.8-0.1c-0.2,0-0.4-0.1-0.5-0.2
			c-0.1-0.1-0.2-0.1-0.3-0.2s-0.1-0.2-0.1-0.3v-8.6h-7.7c-0.1,0-0.3,0-0.4-0.1s-0.2-0.2-0.3-0.3c-0.1-0.1-0.1-0.3-0.2-0.5
			c0-0.2-0.1-0.5-0.1-0.8c0-0.3,0-0.5,0.1-0.7c0-0.2,0.1-0.4,0.2-0.5c0.1-0.1,0.2-0.2,0.3-0.3c0.1-0.1,0.2-0.1,0.3-0.1h7.7v-8.6
			c0-0.1,0-0.2,0.1-0.3c0.1-0.1,0.2-0.2,0.3-0.3c0.1-0.1,0.3-0.1,0.5-0.2c0.2,0,0.5-0.1,0.8-0.1c0.3,0,0.6,0,0.8,0.1
			c0.2,0,0.4,0.1,0.5,0.2s0.2,0.2,0.3,0.3c0.1,0.1,0.1,0.2,0.1,0.3v8.6h7.7c0.1,0,0.2,0,0.3,0.1c0.1,0.1,0.2,0.2,0.3,0.3
			c0.1,0.1,0.1,0.3,0.2,0.5C210.5-287.6,210.5-287.4,210.5-287.1z"/>
	</g>
	<g class="st9">
		<path class="st0" d="M258.1-292.2c0,2.6-0.3,4.9-1,6.9s-1.7,3.6-2.9,4.9c-1.3,1.3-2.9,2.3-4.8,2.9c-1.9,0.6-4.1,1-6.7,1h-6.4
			c-0.4,0-0.7-0.1-1-0.4c-0.3-0.2-0.5-0.7-0.5-1.3v-27.1c0-0.6,0.2-1,0.5-1.3c0.3-0.2,0.7-0.4,1-0.4h6.9c2.6,0,4.9,0.3,6.7,1
			c1.8,0.7,3.3,1.7,4.6,2.9c1.2,1.3,2.2,2.8,2.8,4.6C257.7-296.6,258.1-294.5,258.1-292.2z M253.8-292.1c0-1.6-0.2-3.2-0.6-4.6
			c-0.4-1.4-1-2.6-1.9-3.7c-0.9-1-2-1.8-3.3-2.4c-1.3-0.6-3-0.9-5.1-0.9h-4.1v23.7h4.2c1.9,0,3.6-0.2,4.9-0.7
			c1.3-0.5,2.4-1.2,3.3-2.2c0.9-1,1.6-2.3,2-3.8C253.6-288.2,253.8-290,253.8-292.1z"/>
		<path class="st0" d="M283-291.8c0,2.3-0.2,4.5-0.6,6.4c-0.4,1.9-1,3.6-1.8,5c-0.9,1.4-2,2.5-3.3,3.2c-1.4,0.8-3.1,1.1-5.1,1.1
			c-1.9,0-3.5-0.3-4.8-1c-1.3-0.7-2.4-1.7-3.2-3c-0.8-1.3-1.4-3-1.7-4.9c-0.3-1.9-0.5-4.2-0.5-6.7c0-2.3,0.2-4.4,0.6-6.4
			c0.4-1.9,1-3.6,1.8-5c0.8-1.4,2-2.5,3.3-3.2s3.1-1.1,5.1-1.1c1.9,0,3.5,0.3,4.9,1c1.3,0.7,2.4,1.7,3.2,3s1.4,3,1.7,4.9
			S283-294.3,283-291.8z M278.8-291.6c0-1.5-0.1-2.9-0.2-4.1c-0.1-1.2-0.3-2.3-0.5-3.2c-0.2-0.9-0.5-1.7-0.8-2.4
			c-0.3-0.7-0.7-1.2-1.2-1.6c-0.5-0.4-1-0.7-1.6-0.9c-0.6-0.2-1.3-0.3-2-0.3c-1.3,0-2.4,0.3-3.2,0.9c-0.8,0.6-1.5,1.5-2,2.6
			c-0.5,1.1-0.8,2.4-1,3.9c-0.2,1.5-0.3,3.1-0.3,4.7c0,2.3,0.1,4.2,0.4,5.8s0.6,2.9,1.1,3.9c0.5,1,1.2,1.7,1.9,2.2
			c0.8,0.5,1.8,0.7,2.9,0.7c0.9,0,1.6-0.1,2.3-0.4s1.2-0.7,1.7-1.2c0.5-0.5,0.9-1.2,1.2-1.9c0.3-0.7,0.6-1.5,0.8-2.4
			c0.2-0.9,0.3-1.9,0.4-2.9C278.8-289.3,278.8-290.4,278.8-291.6z"/>
	</g>
</g>
</svg>
