<?xml version="1.0" encoding="utf-8"?>
<!-- Generator: Adobe Illustrator 27.8.0, SVG Export Plug-In . SVG Version: 6.00 Build 0)  -->
<svg version="1.1"
	 id="svg8" xmlns:svg="http://www.w3.org/2000/svg" xmlns:rdf="http://www.w3.org/1999/02/22-rdf-syntax-ns#" xmlns:sodipodi="http://sodipodi.sourceforge.net/DTD/sodipodi-0.dtd" xmlns:dc="http://purl.org/dc/elements/1.1/" xmlns:inkscape="http://www.inkscape.org/namespaces/inkscape" xmlns:cc="http://creativecommons.org/ns#" inkscape:export-xdpi="93" inkscape:export-ydpi="93" inkscape:version="0.92.4 (5da689c313, 2019-01-14)"
	 xmlns="http://www.w3.org/2000/svg" xmlns:xlink="http://www.w3.org/1999/xlink" x="0px" y="0px" viewBox="0 0 668 1081"
	 style="enable-background:new 0 0 668 1081;" xml:space="preserve">
<style type="text/css">
	.st0{fill:#FFFFFF;}
	.st1{fill:#1A1A1A;}
	.st2{opacity:0.99;fill:#808080;enable-background:new    ;}
	.st3{opacity:0.99;fill:#CCCCCC;enable-background:new    ;}
	.st4{opacity:0.99;fill:#FFFFFF;enable-background:new    ;}
	.st5{opacity:0.99;fill:#1A1A1A;enable-background:new    ;}
	.st6{opacity:0.99;enable-background:new    ;}
	.st7{enable-background:new    ;}
</style>
<defs>
	
		<inkscape:perspective  id="perspective876" inkscape:persp3d-origin="105 : 98.999993 : 1" inkscape:vp_x="0 : 148.49997 : 1" inkscape:vp_y="0 : 999.9999 : 0" inkscape:vp_z="210.00001 : 148.49997 : 1" sodipodi:type="inkscape:persp3d">
		</inkscape:perspective>
</defs>
<sodipodi:namedview  bordercolor="#000000" borderlayer="false" borderopacity="1" id="base" inkscape:current-layer="layer1" inkscape:cx="526.57853" inkscape:cy="956.97478" inkscape:document-units="mm" inkscape:lockguides="true" inkscape:pagecheckerboard="false" inkscape:pageopacity="0" inkscape:pageshadow="2" inkscape:window-height="1017" inkscape:window-maximized="1" inkscape:window-width="1920" inkscape:window-x="-8" inkscape:window-y="-8" inkscape:zoom="0.35355339" pagecolor="#323232" showgrid="false" showguides="true" width="500mm">
	<inkscape:grid  id="grid111" type="xygrid"></inkscape:grid>
	<sodipodi:guide  id="guide3782" inkscape:locked="true" orientation="0,1" position="649.57188,796.24941"></sodipodi:guide>
	<sodipodi:guide  id="guide3784" inkscape:locked="true" orientation="0,1" position="155.65778,790.26257"></sodipodi:guide>
</sodipodi:namedview>
<g id="layer1" transform="translate(0.31582593,447.81107)" inkscape:groupmode="layer" inkscape:label="Ebene 1">
	<rect id="rect815" x="-0.3" y="-440.1" width="654.2" height="871.3"/>
	<rect id="rect821" x="154.4" y="288.1" class="st0" width="340.4" height="117.2"/>
	<path id="rect825" class="st1" d="M176.7,294.7h68.2c11.9,0,21.6,9.6,21.6,21.6v59.9c0,11.9-9.6,21.6-21.6,21.6h-68.2
		c-11.9,0-21.6-9.6-21.6-21.6v-59.9C155.1,304.3,164.8,294.7,176.7,294.7z"/>
	<path id="rect872" class="st1" d="M404.1,294.7h68.2c11.9,0,21.6,9.6,21.6,21.6v59.9c0,11.9-9.6,21.6-21.6,21.6h-68.2
		c-11.9,0-21.6-9.6-21.6-21.6v-59.9C382.5,304.3,392.2,294.7,404.1,294.7z"/>
	<path id="rect874" class="st1" d="M287.6,294.7h73.8c10.4,0,18.8,8.4,18.8,18.8v65.4c0,10.4-8.4,18.8-18.8,18.8h-73.8
		c-10.4,0-18.8-8.4-18.8-18.8v-65.4C268.8,303.1,277.2,294.7,287.6,294.7z"/>
	<rect id="rect947" x="204.5" y="350.7" class="st2" width="12.4" height="214.8"/>
	<rect id="rect949" x="318.8" y="350.7" class="st2" width="12.4" height="214.8"/>
	<rect id="rect951" x="431.9" y="350.7" class="st2" width="12.4" height="214.8"/>
	<g id="flowRoot969" transform="translate(0,-46.706863)">
	</g>
	<g id="flowRoot1466" transform="translate(0,-46.706863)">
	</g>
	<g id="flowRoot1529" transform="translate(0,-46.706863)">
	</g>
	<path id="path31-1" inkscape:connector-curvature="0" class="st0" d="M185.6-374.9c4-0.1,4.5-0.1,5.2-0.6c0.5-0.3,1-0.9,1.3-1.3
		c0.4-0.7,0.5-1.3,0.5-9.5l0.1-8.8l8.6,0l8.6,0v10.9c0,12-0.1,13.2-1.4,16.3c-1.6,4.1-4.1,6.1-9,7.2c-1.3,0.3-2.9,0.4-7.9,0.3
		c-3.4,0-7.2-0.1-8.4-0.2l-2.1-0.2l-0.1-7.1l-0.1-7.1L185.6-374.9L185.6-374.9z M267.9-350.5c73.7,0,91.9,0.1,88.8,0.4l-0.5,0
		l0.5,0.2c0.4,0.2,0.3,0.2-0.4,0.3c-0.5,0-0.3,0.1,0.7,0.2l1.5,0.2l-1.5,0.1c-0.8,0-1.3,0.1-1.1,0.2c0.4,0.1,0.4,0.4,0.4,2
		c0,1.9,0,1.9,0.6,2c0.5,0.1,0.3,0.1-0.4,0.1c-0.6,0-1,0.1-1,0.3c0,0.2-29.2,0.2-87.2,0.2h-87.2v-3.1v-3.1L267.9-350.5z
		 M201.5-417.7h8.7v7.1v7.1h-8.7h-8.7v-7.1v-7.1H201.5z M219-391.5c0.6-4,1.7-7.5,3.3-10.7c0.6-1.2,1.1-2.1,1.2-2.2
		c0.1-0.1,0.5-0.7,1-1.4c0.9-1.4,3-4,3.5-4.3c0.2-0.1,0.3-0.3,0.3-0.4c0-0.3,2.2-2.3,3.9-3.5c1.8-1.3,3.3-2,6.5-3.2
		c3.8-1.4,6-1.7,10.5-1.6c3.3,0.1,4.1,0.2,6.1,0.8c1.3,0.4,2.9,0.9,3.5,1.2c0.6,0.3,1.2,0.5,1.4,0.5c0.1,0,1.1,0.5,2.2,1.1
		c4.2,2.4,9.9,8.9,12.1,13.7c3.4,7.5,3.9,15.1,1.3,22.1c-1.1,2.9-1.9,4.6-3.2,6.7c-1.5,2.4-1.6,2.5-5.2,6.1c-4.1,4-7,5.8-12.4,7.2
		c-2.7,0.7-8.1,1-11,0.6c-3.8-0.6-8.8-2.7-11.9-5c-1.6-1.2-3.7-3.1-3.7-3.3c0-0.1-0.5-0.7-1.2-1.3c-3.1-3.2-6.4-9.4-7.5-14.6
		C219.1-385,218.8-390.1,219-391.5L219-391.5z M235.7-384.2c0.8,3.3,2.5,6.1,5.1,8.6c2.6,2.5,6.8,3.4,10.4,2.3
		c4-1.2,7.9-5.8,9.2-10.8c0.7-2.8,0.7-7-0.1-9.8c-1.2-3.9-3.2-7-6.1-9c-1.3-0.9-1.9-1.2-3.3-1.5c-3-0.6-6-0.3-8.1,0.8
		c-1.9,0.9-4.2,3.6-5.6,6.3C235.1-393.2,234.6-388.5,235.7-384.2L235.7-384.2z M284.6-417.6c0.2-0.1,4.1-0.1,8.7,0l8.4,0.1l0,7.8
		c0,7.4,0.1,7.9,0.5,9.1c1.2,3.3,5.2,5.1,8.7,4c1.8-0.6,3-1.6,3.9-3.3l0.8-1.5l0.1-8.1l0.1-8.1h8.7h8.7l-0.1,9.1
		c-0.1,8.5-0.1,9.3-0.6,11c-1,3.5-2.5,6.6-4.5,9c-0.5,0.6-0.9,1.2-0.9,1.3c0,0.3-2.2,2.3-4.2,3.7c-1.7,1.2-4,2.5-5.2,2.7
		c-0.4,0.1-1.6,0.4-2.7,0.8c-1.9,0.6-2.3,0.6-6.2,0.6c-3.9,0-4.4,0-6.6-0.7c-3.5-1-4.6-1.5-6.9-3c-2.6-1.7-4.8-3.9-6.6-6.6
		c-2.6-3.8-3.7-6.7-4.2-11.1C284.2-403.6,284.3-417.4,284.6-417.6L284.6-417.6z M308.9-374.7h14.2v7.3v7.3h-14.2h-14.2v-7.3v-7.3
		H308.9z M333.3-428.8c0.1,0,0.2-0.4,0.2-0.9c0-0.9,0-0.9,1.1-1c0.6-0.1,24.7-0.1,53.6-0.1l52.5,0l-0.1,3.1l-0.1,3.1h-53.4
		c-29.4,0-53.6-0.1-53.8-0.1c-0.3-0.1-0.4-0.5-0.4-2.1C333.1-428,333.2-428.8,333.3-428.8L333.3-428.8z M357.3-393.7h18.1v7.2v7.2
		h-18.1h-18.1v-7.2v-7.2H357.3z M389.8-417.7h8.7v7.1v7.1h-8.7h-8.7v-7.1v-7.1H389.8z M389.8-396h8.7v18.4v18.4h-8.7h-8.7v-18.4
		V-396L389.8-396z M424.6-417.7h18.2v7.1v7.1h-18.2h-18.2v-7.1v-7.1H424.6z M409.3-395c0.1-0.1,4-0.1,8.6-0.1l8.4,0l0.1,8.4
		c0.1,11.8-0.4,11.2,8.5,11.3l5.6,0.1v7.4v7.4l-2.1,0.3c-3.1,0.4-13.1,0.3-15.8-0.1c-4.6-0.7-7.6-2.2-9.7-4.6
		c-2.1-2.5-3.1-5.1-3.5-9.1C409.1-376.6,409.1-394.8,409.3-395L409.3-395z M453-424.6c0.4-1.5,1.3-3,2.3-3.9c3.9-3.5,8.7-3.8,12.6-1
		c1.8,1.3,2.3,1.9,3.1,3.5c0.6,1.3,0.7,1.6,0.7,3.8c0,2.2-0.1,2.6-0.7,3.9c-1.3,2.8-4.7,5.1-7.9,5.3c-3.1,0.2-5.4-0.7-7.8-3
		C453.1-417.9,452.2-421.6,453-424.6L453-424.6z M454.8-418.6c0.8,1.9,3.3,3.7,5.8,4.3c2.5,0.6,4.5,0.1,7.4-2
		c0.7-0.5,1.2-1.2,1.8-2.3c0.7-1.4,0.8-1.8,0.8-3.6c0-1.8-0.1-2.1-0.8-3.6c-0.7-1.3-1.1-1.8-2.2-2.6c-0.8-0.5-1.9-1.2-2.6-1.4
		c-4-1.3-8.8,0.8-10.3,4.7C453.9-423.5,454-420.4,454.8-418.6L454.8-418.6z M461.2-427.7c1.8,0,3.5,0.1,3.8,0.2
		c1.4,0.5,2.1,3.2,1.1,4.5c-0.3,0.3-0.8,0.7-1.3,0.9l-0.8,0.3l0.8,0.9c0.4,0.5,1.1,1.5,1.5,2.2c0.4,0.7,0.8,1.3,0.9,1.4
		c0.5,0.3,0.1,0.6-0.8,0.6l-1,0l-1.4-2.2c-1.5-2.4-1.9-2.6-3.5-2.6h-1v2.5v2.5l-0.7-0.1l-0.7-0.1l-0.1-5.4l-0.1-5.4L461.2-427.7z
		 M461.6-423c1.8,0,2.2-0.1,2.7-0.5c1.3-1,0.6-2.6-1.3-2.9c-0.8-0.1-3-0.1-3.4,0.1c0,0-0.1,0.8-0.1,1.6v1.6L461.6-423z"/>
	<circle id="path84" class="st3" cx="94.1" cy="-322.4" r="65.3"/>
	<circle id="circle86" class="st3" cx="558.8" cy="-322.4" r="65.3"/>
	<circle id="path88" class="st4" cx="94.1" cy="-322.4" r="58.1"/>
	<circle id="circle90" class="st4" cx="558.8" cy="-322.4" r="58.1"/>
	
		<path id="path73" sodipodi:cx="64.684174" sodipodi:cy="-254.51794" sodipodi:end="0" sodipodi:open="true" sodipodi:rx="29.999998" sodipodi:ry="29.999994" sodipodi:start="0.0075318249" sodipodi:type="arc" class="st3" d="
		M137.6-166.7c-0.2,24-19.8,43.4-43.8,43.2s-43.4-19.7-43.3-43.7c0.1-24,19.6-43.4,43.6-43.4c24,0,43.5,19.5,43.5,43.6"/>
	
		<path id="path75" sodipodi:cx="64.684174" sodipodi:cy="-184.51794" sodipodi:end="0" sodipodi:open="true" sodipodi:rx="29.999998" sodipodi:ry="29.999994" sodipodi:start="0.0075318249" sodipodi:type="arc" class="st3" d="
		M137.6-65.1c-0.2,24-19.8,43.4-43.8,43.2c-24-0.1-43.4-19.7-43.3-43.7c0.1-24,19.6-43.4,43.6-43.4s43.5,19.5,43.5,43.6"/>
	
		<path id="path77" sodipodi:cx="129.68417" sodipodi:cy="-254.51794" sodipodi:end="0" sodipodi:open="true" sodipodi:rx="29.999998" sodipodi:ry="29.999994" sodipodi:start="0.0075318249" sodipodi:type="arc" class="st3" d="
		M232-166.7c-0.2,24-19.8,43.4-43.8,43.2s-43.4-19.7-43.3-43.7c0.1-24,19.6-43.4,43.6-43.4c24,0,43.5,19.5,43.5,43.6"/>
	
		<path id="path79" sodipodi:cx="129.68417" sodipodi:cy="-184.51794" sodipodi:end="0" sodipodi:open="true" sodipodi:rx="29.999998" sodipodi:ry="29.999994" sodipodi:start="0.0075318249" sodipodi:type="arc" class="st3" d="
		M232-65.1c-0.2,24-19.8,43.4-43.8,43.2c-24-0.1-43.4-19.7-43.3-43.7c0.1-24,19.6-43.4,43.6-43.4c24,0,43.5,19.5,43.5,43.6"/>
	
		<path id="path81" sodipodi:cx="320.68417" sodipodi:cy="-254.51794" sodipodi:end="0" sodipodi:open="true" sodipodi:rx="29.999998" sodipodi:ry="29.999994" sodipodi:start="0.0075318249" sodipodi:type="arc" class="st3" d="
		M509.4-166.7c-0.2,24-19.8,43.4-43.8,43.2c-24-0.1-43.4-19.7-43.3-43.7c0.1-24,19.6-43.4,43.6-43.4c24,0,43.5,19.5,43.5,43.6"/>
	
		<path id="path83" sodipodi:cx="320.68417" sodipodi:cy="-184.51794" sodipodi:end="0" sodipodi:open="true" sodipodi:rx="29.999998" sodipodi:ry="29.999994" sodipodi:start="0.0075318249" sodipodi:type="arc" class="st3" d="
		M509.4-65.1c-0.2,24-19.8,43.4-43.8,43.2c-24-0.1-43.4-19.7-43.3-43.7c0.1-24,19.6-43.4,43.6-43.4c24,0,43.5,19.5,43.5,43.6"/>
	
		<path id="path85" sodipodi:cx="385.68417" sodipodi:cy="-254.51794" sodipodi:end="0" sodipodi:open="true" sodipodi:rx="29.999998" sodipodi:ry="29.999994" sodipodi:start="0.0075318249" sodipodi:type="arc" class="st3" d="
		M603.8-166.7c-0.2,24-19.8,43.4-43.8,43.2s-43.4-19.7-43.3-43.7c0.1-24,19.6-43.4,43.6-43.4c24,0,43.5,19.5,43.5,43.6"/>
	
		<path id="path87" sodipodi:cx="385.68417" sodipodi:cy="-184.51794" sodipodi:end="0" sodipodi:open="true" sodipodi:rx="29.999998" sodipodi:ry="29.999994" sodipodi:start="0.0075318249" sodipodi:type="arc" class="st3" d="
		M603.8-65.1C603.6-41,584-21.7,560-21.8c-24-0.1-43.4-19.7-43.3-43.7c0.1-24,19.6-43.4,43.6-43.4c24,0,43.5,19.5,43.5,43.6"/>
	
		<path id="path89" sodipodi:cx="64.921532" sodipodi:cy="-255.00945" sodipodi:end="0" sodipodi:open="true" sodipodi:rx="24.999996" sodipodi:ry="24.999996" sodipodi:start="0.0075318288" sodipodi:type="arc" class="st4" d="
		M130.7-167.5c-0.2,20-16.5,36.1-36.5,36c-20-0.1-36.2-16.4-36.1-36.4c0.1-20,16.3-36.2,36.4-36.2c20,0,36.2,16.3,36.2,36.3"/>
	
		<path id="path91" sodipodi:cx="64.921532" sodipodi:cy="-185.03828" sodipodi:end="0" sodipodi:open="true" sodipodi:rx="24.999996" sodipodi:ry="24.999996" sodipodi:start="0.0075318288" sodipodi:type="arc" class="st4" d="
		M130.7-65.9c-0.2,20-16.5,36.1-36.5,36S58-46.3,58.1-66.3c0.1-20,16.3-36.2,36.4-36.2c20,0,36.2,16.3,36.2,36.3"/>
	
		<path id="path93" sodipodi:cx="385.87488" sodipodi:cy="-185.03828" sodipodi:end="0" sodipodi:open="true" sodipodi:rx="24.999996" sodipodi:ry="24.999996" sodipodi:start="0.0075318288" sodipodi:type="arc" class="st4" d="
		M596.8-65.9c-0.2,20-16.5,36.1-36.5,36c-20-0.1-36.2-16.4-36.1-36.4s16.3-36.2,36.4-36.2c20,0,36.2,16.3,36.2,36.3"/>
	
		<path id="path95" sodipodi:cx="385.87488" sodipodi:cy="-255.07365" sodipodi:end="0" sodipodi:open="true" sodipodi:rx="24.999996" sodipodi:ry="24.999996" sodipodi:start="0.0075318288" sodipodi:type="arc" class="st4" d="
		M596.8-167.6c-0.2,20-16.5,36.1-36.5,36c-20-0.1-36.2-16.4-36.1-36.4c0.1-20,16.3-36.2,36.4-36.2c20,0,36.2,16.3,36.2,36.3"/>
	<rect id="rect97" x="159.4" y="-210.6" class="st5" width="334" height="188.8"/>
	<rect id="rect99" x="163.1" y="-207" class="st6" width="94.4" height="181.5"/>
	<rect id="rect101" x="395.1" y="-207" class="st6" width="94.4" height="181.5"/>
	<rect id="rect103" x="165.2" y="-201.9" class="st5" width="87.1" height="174.3"/>
	<rect id="rect105" x="400.4" y="-201.9" class="st5" width="87.1" height="174.3"/>
	<rect id="rect107" x="290.1" y="-152.5" class="st6" width="72.6" height="72.6"/>
	<g class="st7">
		<path d="M156.3,579.3c0,0.5,0,0.9-0.1,1.2s-0.1,0.7-0.2,0.9s-0.2,0.4-0.4,0.5c-0.1,0.1-0.3,0.1-0.5,0.1c-0.3,0-0.8-0.2-1.5-0.7
			c-0.7-0.5-1.6-1-2.8-1.6s-2.5-1.1-4.2-1.6c-1.6-0.5-3.5-0.7-5.8-0.7c-2.6,0-5,0.5-7.1,1.4c-2.1,1-3.9,2.3-5.3,4
			c-1.5,1.7-2.6,3.7-3.3,6.1c-0.8,2.3-1.2,4.9-1.2,7.6c0,3.1,0.4,5.8,1.3,8.1c0.9,2.4,2,4.4,3.5,6c1.5,1.6,3.3,2.9,5.4,3.7
			c2.1,0.8,4.4,1.3,6.9,1.3c1.5,0,3-0.2,4.5-0.5c1.5-0.4,2.9-0.9,4.2-1.6v-13.9h-11.1c-0.4,0-0.7-0.2-0.9-0.6
			c-0.2-0.4-0.3-1.1-0.3-2c0-0.5,0-0.9,0.1-1.2c0-0.3,0.1-0.6,0.2-0.8c0.1-0.2,0.2-0.4,0.4-0.5c0.1-0.1,0.3-0.1,0.6-0.1h15.2
			c0.3,0,0.5,0,0.8,0.1c0.3,0.1,0.5,0.2,0.7,0.4c0.2,0.2,0.4,0.5,0.5,0.8c0.1,0.3,0.2,0.7,0.2,1.2v18.2c0,0.6-0.1,1.2-0.3,1.7
			c-0.2,0.5-0.7,0.9-1.4,1.2c-0.7,0.4-1.6,0.7-2.8,1.2c-1.1,0.4-2.3,0.8-3.5,1.1c-1.2,0.3-2.4,0.5-3.7,0.7c-1.2,0.1-2.5,0.2-3.7,0.2
			c-3.7,0-7-0.6-9.9-1.7c-2.9-1.1-5.4-2.8-7.4-4.9c-2-2.1-3.5-4.7-4.6-7.6s-1.6-6.3-1.6-9.9c0-3.8,0.6-7.2,1.7-10.3s2.8-5.7,4.8-7.9
			c2.1-2.2,4.6-3.9,7.5-5s6.2-1.8,9.7-1.8c1.8,0,3.5,0.2,5.1,0.5c1.6,0.3,3,0.7,4.3,1.1c1.2,0.4,2.3,0.9,3.1,1.4
			c0.9,0.5,1.4,0.9,1.8,1.2c0.3,0.3,0.5,0.7,0.7,1.1C156.2,577.9,156.3,578.5,156.3,579.3z"/>
		<path d="M204.3,618c0,0.5-0.1,0.9-0.2,1.3c-0.2,0.3-0.4,0.6-0.7,0.9c-0.3,0.2-0.6,0.4-0.9,0.5s-0.7,0.1-1,0.1h-2.1
			c-0.7,0-1.2-0.1-1.7-0.2c-0.5-0.1-1-0.4-1.4-0.7s-0.9-0.8-1.3-1.5c-0.4-0.6-0.9-1.4-1.4-2.4l-14.6-27.2c-0.8-1.4-1.5-2.9-2.3-4.4
			c-0.8-1.5-1.5-3-2.2-4.5h-0.1c0,1.8,0.1,3.6,0.1,5.4c0,1.8,0,3.7,0,5.5v28.9c0,0.2-0.1,0.3-0.2,0.5c-0.1,0.2-0.3,0.3-0.5,0.4
			c-0.2,0.1-0.6,0.2-1,0.2c-0.4,0.1-0.9,0.1-1.5,0.1c-0.6,0-1.1,0-1.5-0.1c-0.4-0.1-0.7-0.1-1-0.2c-0.2-0.1-0.4-0.2-0.5-0.4
			c-0.1-0.2-0.2-0.3-0.2-0.5v-44.2c0-1,0.3-1.7,0.8-2.1c0.6-0.4,1.2-0.6,1.8-0.6h3.1c0.7,0,1.4,0.1,1.9,0.2c0.5,0.1,0.9,0.3,1.3,0.6
			c0.4,0.3,0.8,0.7,1.1,1.2c0.4,0.5,0.8,1.1,1.2,1.9l11.2,21c0.7,1.3,1.4,2.5,2,3.8s1.3,2.4,1.9,3.6c0.6,1.2,1.2,2.3,1.8,3.5
			c0.6,1.1,1.2,2.3,1.7,3.5h0c0-1.9-0.1-4-0.1-6.1c0-2.1,0-4.1,0-6.1v-26c0-0.2,0.1-0.3,0.2-0.5c0.1-0.1,0.3-0.3,0.5-0.4
			c0.2-0.1,0.6-0.2,1-0.2c0.4,0,0.9-0.1,1.6-0.1c0.6,0,1.1,0,1.5,0.1c0.4,0,0.7,0.1,1,0.2c0.2,0.1,0.4,0.2,0.5,0.4
			c0.1,0.1,0.2,0.3,0.2,0.5V618z"/>
		<path d="M253.8,596c0,4.1-0.5,7.8-1.6,10.9c-1.1,3.1-2.6,5.7-4.6,7.7c-2,2-4.5,3.6-7.5,4.6c-3,1-6.5,1.5-10.6,1.5h-10.1
			c-0.6,0-1.1-0.2-1.6-0.6c-0.5-0.4-0.8-1.1-0.8-2v-42.7c0-1,0.3-1.6,0.8-2c0.5-0.4,1-0.6,1.6-0.6h10.8c4.1,0,7.6,0.5,10.5,1.6
			c2.9,1.1,5.3,2.6,7.2,4.6c1.9,2,3.4,4.4,4.4,7.3S253.8,592.4,253.8,596z M247.1,596.2c0-2.6-0.3-5-1-7.2c-0.6-2.2-1.6-4.2-3-5.8
			c-1.4-1.6-3.1-2.9-5.2-3.8c-2.1-0.9-4.8-1.4-8.1-1.4h-6.5v37.3h6.5c3.1,0,5.6-0.4,7.7-1.1c2.1-0.8,3.8-1.9,5.3-3.5
			s2.5-3.6,3.2-5.9C246.8,602.3,247.1,599.5,247.1,596.2z"/>
	</g>
	<g class="st7">
		<path d="M424.1,607.2c0,2.2-0.4,4.2-1.2,6s-2,3.2-3.4,4.5c-1.5,1.2-3.2,2.1-5.2,2.8c-2,0.6-4.1,0.9-6.4,0.9
			c-1.6,0-3.1-0.1-4.5-0.4s-2.6-0.6-3.7-1c-1.1-0.4-2-0.8-2.7-1.2c-0.7-0.4-1.2-0.8-1.5-1.1c-0.3-0.3-0.5-0.7-0.6-1.1
			c-0.1-0.5-0.2-1.1-0.2-1.8c0-0.5,0-1,0.1-1.4c0-0.4,0.1-0.6,0.2-0.9c0.1-0.2,0.2-0.4,0.4-0.5c0.1-0.1,0.3-0.1,0.5-0.1
			c0.3,0,0.8,0.2,1.5,0.6s1.4,0.9,2.4,1.4c1,0.5,2.2,1,3.6,1.4s3,0.6,4.8,0.6c1.4,0,2.6-0.2,3.8-0.6s2.1-0.9,3-1.6
			c0.8-0.7,1.5-1.5,1.9-2.5c0.4-1,0.7-2.1,0.7-3.4c0-1.4-0.3-2.5-0.9-3.5c-0.6-1-1.4-1.8-2.4-2.5c-1-0.7-2.2-1.4-3.5-2
			s-2.6-1.2-4-1.9c-1.4-0.6-2.7-1.3-4-2.1c-1.3-0.8-2.4-1.7-3.4-2.7c-1-1-1.8-2.3-2.5-3.6c-0.6-1.4-0.9-3.1-0.9-5
			c0-2,0.4-3.8,1.1-5.3s1.7-2.9,3-3.9c1.3-1.1,2.8-1.9,4.6-2.4s3.7-0.8,5.8-0.8c1.1,0,2.1,0.1,3.2,0.3c1.1,0.2,2.1,0.4,3,0.7
			c0.9,0.3,1.8,0.7,2.5,1c0.7,0.4,1.2,0.7,1.5,0.9c0.2,0.2,0.4,0.4,0.5,0.6c0.1,0.1,0.1,0.3,0.2,0.5c0,0.2,0.1,0.5,0.1,0.8
			s0,0.7,0,1.1c0,0.4,0,0.8-0.1,1.2c0,0.3-0.1,0.6-0.2,0.9c-0.1,0.2-0.2,0.4-0.3,0.5c-0.1,0.1-0.3,0.2-0.5,0.2
			c-0.3,0-0.7-0.2-1.3-0.5s-1.3-0.7-2.1-1.2c-0.8-0.4-1.8-0.8-3-1.2c-1.1-0.4-2.4-0.5-3.9-0.5c-1.3,0-2.5,0.2-3.5,0.5
			c-1,0.4-1.8,0.8-2.4,1.4s-1.1,1.3-1.4,2.1c-0.3,0.8-0.5,1.7-0.5,2.6c0,1.3,0.3,2.5,0.9,3.4c0.6,1,1.4,1.8,2.5,2.6
			c1,0.7,2.2,1.4,3.5,2c1.3,0.6,2.6,1.2,4,1.9s2.7,1.3,4,2.1c1.3,0.8,2.5,1.6,3.5,2.7s1.9,2.2,2.5,3.6
			C423.7,603.6,424.1,605.3,424.1,607.2z"/>
		<path d="M439.3,575.2c0,1.4-0.3,2.4-0.8,2.9c-0.5,0.5-1.5,0.8-3,0.8c-1.4,0-2.4-0.3-2.9-0.8c-0.5-0.5-0.8-1.5-0.8-2.9
			c0-1.4,0.3-2.4,0.8-2.9c0.5-0.5,1.5-0.8,3-0.8c1.4,0,2.4,0.3,2.9,0.8C439,572.8,439.3,573.7,439.3,575.2z M438.6,619.7
			c0,0.2,0,0.4-0.1,0.5c-0.1,0.1-0.3,0.3-0.5,0.4c-0.2,0.1-0.5,0.2-0.9,0.2c-0.4,0-0.9,0.1-1.5,0.1c-0.6,0-1.1,0-1.5-0.1
			c-0.4,0-0.7-0.1-0.9-0.2c-0.2-0.1-0.4-0.2-0.5-0.4c-0.1-0.1-0.1-0.3-0.1-0.5v-33.3c0-0.2,0-0.3,0.1-0.5c0.1-0.1,0.2-0.3,0.5-0.4
			s0.5-0.2,0.9-0.2s0.9-0.1,1.5-0.1c0.6,0,1.1,0,1.5,0.1c0.4,0,0.7,0.1,0.9,0.2c0.2,0.1,0.4,0.2,0.5,0.4c0.1,0.1,0.1,0.3,0.1,0.5
			V619.7z"/>
		<path d="M477.7,587.9c0,0.9-0.1,1.5-0.4,1.9c-0.2,0.4-0.5,0.6-0.9,0.6h-4.8c0.9,0.9,1.5,1.9,1.8,2.9c0.3,1.1,0.5,2.2,0.5,3.3
			c0,1.9-0.3,3.6-0.9,5.1c-0.6,1.5-1.5,2.7-2.6,3.8s-2.5,1.8-4.1,2.3c-1.6,0.5-3.3,0.8-5.3,0.8c-1.4,0-2.6-0.2-3.9-0.5
			c-1.2-0.4-2.2-0.8-2.8-1.3c-0.4,0.4-0.8,0.9-1.1,1.5s-0.4,1.2-0.4,2c0,0.9,0.4,1.6,1.2,2.1c0.8,0.6,1.9,0.9,3.2,0.9l8.7,0.4
			c1.7,0,3.2,0.3,4.6,0.7c1.4,0.4,2.6,1,3.6,1.7c1,0.8,1.8,1.7,2.4,2.8c0.6,1.1,0.9,2.4,0.9,3.8c0,1.5-0.3,3-1,4.4
			c-0.6,1.4-1.6,2.6-2.9,3.6c-1.3,1-3,1.9-5,2.5c-2,0.6-4.5,0.9-7.3,0.9c-2.7,0-5-0.2-6.9-0.7s-3.4-1.1-4.6-1.9
			c-1.2-0.8-2.1-1.7-2.6-2.8c-0.5-1.1-0.8-2.3-0.8-3.6c0-0.8,0.1-1.6,0.3-2.4c0.2-0.8,0.5-1.5,0.9-2.2s0.9-1.4,1.5-2
			s1.3-1.3,2.1-1.9c-1.2-0.6-2.1-1.4-2.7-2.3c-0.6-0.9-0.9-1.9-0.9-3c0-1.5,0.3-2.8,0.9-4c0.6-1.2,1.4-2.2,2.3-3.2
			c-0.8-0.9-1.4-1.9-1.8-3.1c-0.4-1.1-0.7-2.5-0.7-4.2c0-1.9,0.3-3.6,1-5.1c0.6-1.5,1.5-2.8,2.7-3.8c1.1-1,2.5-1.8,4.1-2.4
			c1.6-0.6,3.3-0.8,5.2-0.8c1,0,2,0.1,2.8,0.2c0.9,0.1,1.7,0.3,2.5,0.5h10.1c0.4,0,0.7,0.2,0.9,0.6
			C477.6,586.5,477.7,587.1,477.7,587.9z M471.2,623.1c0-1.4-0.6-2.5-1.8-3.3c-1.2-0.8-2.8-1.2-4.8-1.2l-8.6-0.3
			c-0.8,0.6-1.4,1.2-1.9,1.8c-0.5,0.6-0.9,1.1-1.2,1.6c-0.3,0.5-0.5,1-0.6,1.5c-0.1,0.5-0.2,1-0.2,1.5c0,1.6,0.8,2.8,2.4,3.6
			s3.9,1.2,6.8,1.2c1.8,0,3.4-0.2,4.6-0.5c1.2-0.4,2.2-0.8,3-1.4s1.3-1.3,1.6-2C471,624.7,471.2,623.9,471.2,623.1z M468.1,596.7
			c0-2.3-0.6-4-1.9-5.3c-1.2-1.3-3-1.9-5.3-1.9c-1.2,0-2.2,0.2-3.1,0.6c-0.9,0.4-1.6,0.9-2.2,1.6c-0.6,0.7-1,1.5-1.3,2.4
			c-0.3,0.9-0.4,1.8-0.4,2.8c0,2.2,0.6,3.9,1.9,5.2s3,1.9,5.2,1.9c1.2,0,2.3-0.2,3.1-0.6c0.9-0.4,1.6-0.9,2.2-1.6
			c0.6-0.7,1-1.5,1.3-2.3C468,598.6,468.1,597.6,468.1,596.7z"/>
		<path d="M514.2,619.7c0,0.2,0,0.4-0.1,0.5c-0.1,0.1-0.3,0.3-0.5,0.4c-0.2,0.1-0.5,0.2-0.9,0.2c-0.4,0-0.9,0.1-1.5,0.1
			c-0.6,0-1.1,0-1.5-0.1c-0.4,0-0.7-0.1-0.9-0.2c-0.2-0.1-0.4-0.2-0.5-0.4c-0.1-0.1-0.1-0.3-0.1-0.5v-19.5c0-1.9-0.1-3.4-0.4-4.6
			s-0.7-2.2-1.3-3c-0.6-0.8-1.3-1.5-2.2-1.9c-0.9-0.4-1.9-0.7-3.1-0.7c-1.5,0-3.1,0.5-4.6,1.6c-1.5,1.1-3.1,2.7-4.8,4.8v23.3
			c0,0.2,0,0.4-0.1,0.5c-0.1,0.1-0.3,0.3-0.5,0.4c-0.2,0.1-0.5,0.2-0.9,0.2c-0.4,0-0.9,0.1-1.5,0.1c-0.6,0-1.1,0-1.5-0.1
			c-0.4,0-0.7-0.1-0.9-0.2c-0.2-0.1-0.4-0.2-0.5-0.4c-0.1-0.1-0.1-0.3-0.1-0.5v-33.3c0-0.2,0-0.4,0.1-0.5s0.2-0.3,0.4-0.4
			c0.2-0.1,0.5-0.2,0.9-0.2c0.3,0,0.8-0.1,1.4-0.1c0.5,0,1,0,1.4,0.1s0.6,0.1,0.8,0.2s0.3,0.2,0.4,0.4c0.1,0.1,0.1,0.3,0.1,0.5v4.4
			c1.9-2.1,3.7-3.6,5.6-4.6s3.7-1.5,5.6-1.5c2.2,0,4.1,0.4,5.6,1.1c1.5,0.8,2.7,1.8,3.7,3c0.9,1.3,1.6,2.7,2,4.4
			c0.4,1.7,0.6,3.7,0.6,6.1V619.7z"/>
		<path d="M550.4,619.7c0,0.3-0.1,0.5-0.3,0.7c-0.2,0.1-0.5,0.3-0.8,0.3c-0.3,0.1-0.9,0.1-1.5,0.1c-0.6,0-1.2,0-1.5-0.1
			c-0.4-0.1-0.7-0.2-0.8-0.3c-0.2-0.1-0.3-0.4-0.3-0.7v-3.3c-1.5,1.6-3.1,2.8-4.9,3.6c-1.8,0.9-3.7,1.3-5.7,1.3
			c-1.8,0-3.3-0.2-4.8-0.7c-1.4-0.5-2.6-1.1-3.6-2c-1-0.9-1.8-1.9-2.3-3.2c-0.6-1.3-0.8-2.7-0.8-4.3c0-1.9,0.4-3.5,1.1-4.9
			c0.8-1.4,1.9-2.5,3.3-3.4c1.4-0.9,3.2-1.6,5.3-2.1c2.1-0.5,4.4-0.7,7-0.7h4.6v-2.6c0-1.3-0.1-2.4-0.4-3.4s-0.7-1.8-1.3-2.5
			s-1.4-1.1-2.3-1.5s-2.1-0.5-3.6-0.5c-1.5,0-2.9,0.2-4.1,0.5c-1.2,0.4-2.2,0.8-3.1,1.2c-0.9,0.4-1.7,0.8-2.3,1.2s-1.1,0.5-1.4,0.5
			c-0.2,0-0.4,0-0.5-0.1c-0.1-0.1-0.3-0.2-0.4-0.4s-0.2-0.5-0.2-0.8c0-0.3-0.1-0.6-0.1-1c0-0.6,0-1.1,0.1-1.5c0.1-0.4,0.3-0.7,0.6-1
			c0.3-0.3,0.9-0.7,1.7-1.1c0.8-0.4,1.8-0.8,2.8-1.2s2.2-0.7,3.5-0.9c1.3-0.2,2.5-0.4,3.8-0.4c2.4,0,4.4,0.3,6.1,0.8
			c1.7,0.5,3,1.3,4.1,2.4c1,1,1.8,2.3,2.3,3.9c0.5,1.6,0.7,3.4,0.7,5.4V619.7z M544.3,604.5h-5.2c-1.7,0-3.1,0.1-4.4,0.4
			s-2.3,0.7-3.1,1.3c-0.8,0.6-1.4,1.2-1.8,2c-0.4,0.8-0.6,1.7-0.6,2.7c0,1.7,0.5,3.1,1.6,4.1s2.6,1.5,4.6,1.5c1.6,0,3.1-0.4,4.5-1.2
			c1.4-0.8,2.8-2.1,4.3-3.7V604.5z"/>
		<path d="M567.7,619.7c0,0.2,0,0.4-0.1,0.5c-0.1,0.1-0.3,0.3-0.5,0.4c-0.2,0.1-0.5,0.2-0.9,0.2c-0.4,0-0.9,0.1-1.5,0.1
			c-0.6,0-1.1,0-1.5-0.1c-0.4,0-0.7-0.1-0.9-0.2c-0.2-0.1-0.4-0.2-0.5-0.4c-0.1-0.1-0.1-0.3-0.1-0.5v-49.4c0-0.2,0-0.4,0.1-0.5
			c0.1-0.1,0.2-0.3,0.5-0.4s0.5-0.2,0.9-0.2s0.9-0.1,1.5-0.1c0.6,0,1.1,0,1.5,0.1c0.4,0,0.7,0.1,0.9,0.2c0.2,0.1,0.4,0.2,0.5,0.4
			c0.1,0.1,0.1,0.3,0.1,0.5V619.7z"/>
	</g>
	<g class="st7">
		<path d="M319.6,599.3c0,0.5,0,0.9-0.1,1.2s-0.2,0.6-0.3,0.8c-0.1,0.2-0.3,0.4-0.4,0.5c-0.2,0.1-0.4,0.1-0.6,0.1H306v13.5
			c0,0.2,0,0.4-0.1,0.5s-0.3,0.3-0.5,0.4c-0.2,0.1-0.5,0.2-0.8,0.2s-0.8,0.1-1.3,0.1c-0.5,0-0.9,0-1.3-0.1s-0.6-0.1-0.9-0.2
			c-0.2-0.1-0.4-0.2-0.5-0.4c-0.1-0.1-0.1-0.3-0.1-0.5V602h-12.1c-0.2,0-0.4,0-0.6-0.1c-0.2-0.1-0.3-0.3-0.4-0.5
			c-0.1-0.2-0.2-0.5-0.3-0.8c-0.1-0.3-0.1-0.7-0.1-1.2c0-0.4,0-0.8,0.1-1.2c0.1-0.3,0.2-0.6,0.3-0.8c0.1-0.2,0.3-0.4,0.4-0.5
			c0.2-0.1,0.3-0.1,0.5-0.1h12.2v-13.5c0-0.2,0-0.4,0.1-0.5c0.1-0.2,0.3-0.3,0.5-0.4c0.2-0.1,0.5-0.2,0.9-0.3s0.8-0.1,1.3-0.1
			c0.5,0,0.9,0,1.3,0.1s0.6,0.1,0.8,0.3c0.2,0.1,0.4,0.2,0.5,0.4c0.1,0.2,0.1,0.3,0.1,0.5v13.5h12.2c0.2,0,0.4,0,0.5,0.1
			c0.2,0.1,0.3,0.3,0.4,0.5c0.1,0.2,0.2,0.5,0.3,0.8S319.6,598.9,319.6,599.3z"/>
		<path d="M347.9,619.5c-0.1,0.3-0.2,0.5-0.4,0.7c-0.2,0.2-0.4,0.3-0.7,0.4s-0.7,0.2-1.2,0.2c-0.5,0-1.1,0.1-1.8,0.1
			c-0.5,0-1,0-1.4,0s-0.8,0-1.1-0.1c-0.3,0-0.5-0.1-0.8-0.2c-0.2-0.1-0.4-0.1-0.5-0.2c-0.1-0.1-0.3-0.2-0.4-0.4
			c-0.1-0.1-0.2-0.3-0.2-0.5L323.8,575c-0.2-0.5-0.3-1-0.3-1.3c0-0.3,0.1-0.6,0.3-0.8s0.6-0.3,1.1-0.3c0.5,0,1.2-0.1,2-0.1
			c0.7,0,1.2,0,1.6,0.1s0.7,0.1,0.9,0.2c0.2,0.1,0.4,0.2,0.5,0.4c0.1,0.2,0.2,0.4,0.3,0.6l13.7,40.3h0l13.4-40.2
			c0.1-0.3,0.2-0.5,0.3-0.7c0.1-0.2,0.3-0.3,0.5-0.4c0.2-0.1,0.6-0.2,1-0.2s1-0.1,1.8-0.1c0.8,0,1.4,0,1.8,0.1
			c0.4,0.1,0.7,0.2,0.9,0.4c0.2,0.2,0.2,0.4,0.2,0.8s-0.2,0.8-0.4,1.3L347.9,619.5z"/>
	</g>
	<g class="st7">
		<path class="st0" d="M67.3,230c0.2,0,0.5,0.1,0.7,0.2c0.2,0.1,0.4,0.3,0.5,0.6s0.2,0.7,0.3,1.2c0.1,0.5,0.1,1.2,0.1,2
			c0,1.1,0,1.9-0.1,2.6c-0.1,0.7-0.3,1.2-0.5,1.5c-0.2,0.3-0.5,0.6-0.8,0.8l-29.1,21.4h29.1c0.2,0,0.4,0.1,0.6,0.2s0.3,0.3,0.5,0.6
			c0.1,0.3,0.2,0.7,0.3,1.2s0.1,1.1,0.1,1.9c0,0.7,0,1.3-0.1,1.8c-0.1,0.5-0.2,0.9-0.3,1.2s-0.3,0.5-0.5,0.6
			c-0.2,0.1-0.4,0.2-0.6,0.2H11.5c-0.2,0-0.5-0.1-0.6-0.2c-0.2-0.1-0.3-0.3-0.4-0.6c-0.1-0.3-0.2-0.7-0.3-1.2
			c-0.1-0.5-0.1-1.1-0.1-1.8c0-0.8,0-1.4,0.1-1.9c0.1-0.5,0.2-0.9,0.3-1.2c0.1-0.3,0.2-0.5,0.4-0.6s0.4-0.2,0.6-0.2h25.9l-25.9-20.6
			c-0.3-0.2-0.5-0.4-0.7-0.6s-0.3-0.5-0.4-0.9c-0.1-0.3-0.2-0.8-0.2-1.3c-0.1-0.5-0.1-1.1-0.1-1.9c0-0.8,0-1.4,0.1-1.9
			c0.1-0.5,0.2-0.9,0.3-1.1c0.1-0.3,0.3-0.5,0.5-0.6c0.2-0.1,0.4-0.2,0.6-0.2c0.4,0,0.8,0.1,1.2,0.3c0.4,0.2,0.9,0.6,1.6,1.1
			l23.1,19.3l27.6-20.8c0.8-0.5,1.3-0.8,1.6-0.9C66.9,230.1,67.2,230,67.3,230z"/>
		<path class="st0" d="M46,201.6h21.5c0.2,0,0.5,0.1,0.6,0.2c0.2,0.1,0.3,0.3,0.4,0.6c0.1,0.3,0.2,0.7,0.3,1.2s0.1,1.1,0.1,1.8
			c0,0.7,0,1.4-0.1,1.9c-0.1,0.5-0.2,0.9-0.3,1.2c-0.1,0.3-0.2,0.5-0.4,0.6c-0.2,0.1-0.4,0.2-0.6,0.2H46l-32.9,16.5
			c-0.7,0.3-1.2,0.5-1.6,0.6c-0.4,0.1-0.7,0-0.9-0.2c-0.2-0.2-0.3-0.6-0.4-1.2c-0.1-0.6-0.1-1.4-0.1-2.4c0-0.9,0-1.6,0.1-2.2
			c0.1-0.6,0.1-1,0.2-1.3c0.1-0.3,0.3-0.6,0.5-0.7c0.2-0.2,0.4-0.3,0.7-0.5l16.8-8.1c1.6-0.7,3.3-1.5,5-2.2c1.7-0.7,3.5-1.5,5.3-2.3
			v-0.1c-1.7-0.7-3.4-1.4-5.1-2.1c-1.7-0.7-3.4-1.5-5-2.2l-16.8-8.1c-0.3-0.1-0.6-0.2-0.8-0.4c-0.2-0.2-0.4-0.4-0.5-0.7
			c-0.1-0.3-0.2-0.7-0.2-1.2c-0.1-0.5-0.1-1.2-0.1-1.9c0-1.1,0-1.9,0.1-2.5c0.1-0.6,0.2-1,0.4-1.3s0.5-0.3,0.9-0.2
			c0.4,0.1,0.9,0.3,1.6,0.6L46,201.6z"/>
		<path class="st0" d="M45.9,163.1c1.2,0,2,0.1,2.4,0.4c0.5,0.3,0.7,0.7,0.7,1.2v18.8c0,0.5-0.2,0.9-0.7,1.2
			c-0.5,0.3-1.3,0.4-2.4,0.4c-1.1,0-1.9-0.1-2.4-0.4c-0.5-0.3-0.7-0.7-0.7-1.2v-18.8c0-0.2,0-0.5,0.1-0.7s0.3-0.4,0.5-0.5
			c0.3-0.1,0.6-0.2,1-0.3C44.8,163.1,45.3,163.1,45.9,163.1z"/>
		<path class="st0" d="M39.3,116.4c4.5,0,8.6,0.4,12.2,1.1c3.7,0.7,6.9,1.9,9.5,3.5c2.7,1.6,4.7,3.8,6.2,6.4
			c1.5,2.6,2.2,5.9,2.2,9.8c0,3.7-0.7,6.7-2,9.3c-1.3,2.5-3.2,4.5-5.8,6.1c-2.5,1.5-5.7,2.6-9.4,3.3s-8,1-12.8,1
			c-4.4,0-8.5-0.4-12.2-1.1c-3.7-0.7-6.9-1.9-9.5-3.5c-2.7-1.6-4.7-3.8-6.2-6.4c-1.5-2.6-2.2-5.9-2.2-9.7c0-3.7,0.7-6.8,2-9.3
			c1.3-2.5,3.2-4.5,5.8-6.1c2.5-1.5,5.7-2.6,9.4-3.3C30.3,116.7,34.5,116.4,39.3,116.4z M39.9,124.3c-2.9,0-5.5,0.1-7.8,0.3
			c-2.3,0.2-4.4,0.5-6.1,0.9c-1.8,0.4-3.3,0.9-4.6,1.6c-1.3,0.6-2.3,1.4-3.2,2.3c-0.8,0.9-1.4,1.9-1.8,3.1c-0.4,1.2-0.6,2.5-0.6,3.9
			c0,2.6,0.6,4.6,1.8,6.2c1.2,1.6,2.9,2.8,5,3.8c2.1,0.9,4.6,1.5,7.4,1.9c2.8,0.3,5.9,0.5,9.1,0.5c4.4,0,8.1-0.2,11.1-0.7
			c3-0.5,5.5-1.2,7.5-2.1s3.3-2.2,4.2-3.7c0.9-1.5,1.3-3.4,1.3-5.5c0-1.7-0.3-3.2-0.8-4.4c-0.5-1.3-1.3-2.4-2.3-3.3
			c-1-0.9-2.2-1.7-3.6-2.3c-1.4-0.6-3-1.1-4.7-1.4s-3.6-0.6-5.6-0.7C44.1,124.4,42,124.3,39.9,124.3z"/>
		<path class="st0" d="M65.5,71.5c0.6,0,1.1,0,1.4,0.1c0.4,0.1,0.7,0.2,0.9,0.4c0.2,0.2,0.4,0.3,0.5,0.5s0.2,0.4,0.2,0.6v30.4
			c0,0.2-0.1,0.4-0.2,0.6c-0.1,0.2-0.3,0.4-0.5,0.5c-0.2,0.2-0.6,0.3-0.9,0.4c-0.4,0.1-0.9,0.1-1.4,0.1c-0.5,0-1,0-1.4-0.1
			c-0.4-0.1-0.7-0.2-1-0.3c-0.3-0.1-0.5-0.3-0.6-0.5c-0.1-0.2-0.2-0.4-0.2-0.7V91.4H18.1l6.7,11.3c0.3,0.6,0.5,1,0.5,1.4
			c0.1,0.3,0,0.6-0.2,0.8c-0.2,0.2-0.5,0.4-1,0.4c-0.5,0.1-1,0.1-1.7,0.1c-0.5,0-0.9,0-1.3-0.1s-0.7-0.1-0.9-0.2s-0.5-0.2-0.6-0.4
			c-0.2-0.2-0.4-0.4-0.5-0.7l-8.6-13.4c-0.1-0.1-0.2-0.3-0.2-0.5c-0.1-0.2-0.1-0.4-0.2-0.7C10,89.3,10,89,10,88.6c0-0.4,0-0.8,0-1.4
			c0-0.7,0-1.3,0.1-1.8c0.1-0.5,0.1-0.9,0.2-1.1c0.1-0.3,0.2-0.5,0.4-0.5c0.2-0.1,0.3-0.1,0.5-0.1h51.2V73.1c0-0.2,0.1-0.5,0.2-0.7
			c0.1-0.2,0.3-0.4,0.6-0.5c0.3-0.1,0.6-0.2,1-0.3C64.5,71.5,65,71.5,65.5,71.5z"/>
		<path class="st0" d="M39.3,22.9c4.5,0,8.6,0.4,12.2,1.1c3.7,0.7,6.9,1.9,9.5,3.5c2.7,1.6,4.7,3.8,6.2,6.4c1.5,2.6,2.2,5.9,2.2,9.8
			c0,3.7-0.7,6.7-2,9.3c-1.3,2.5-3.2,4.5-5.8,6.1c-2.5,1.5-5.7,2.6-9.4,3.3s-8,1-12.8,1c-4.4,0-8.5-0.4-12.2-1.1
			c-3.7-0.7-6.9-1.9-9.5-3.5c-2.7-1.6-4.7-3.8-6.2-6.4c-1.5-2.6-2.2-5.9-2.2-9.7c0-3.7,0.7-6.8,2-9.3c1.3-2.5,3.2-4.5,5.8-6.1
			c2.5-1.5,5.7-2.6,9.4-3.3C30.3,23.3,34.5,22.9,39.3,22.9z M39.9,30.9c-2.9,0-5.5,0.1-7.8,0.3c-2.3,0.2-4.4,0.5-6.1,0.9
			c-1.8,0.4-3.3,0.9-4.6,1.6c-1.3,0.6-2.3,1.4-3.2,2.3c-0.8,0.9-1.4,1.9-1.8,3.1c-0.4,1.2-0.6,2.5-0.6,3.9c0,2.6,0.6,4.6,1.8,6.2
			c1.2,1.6,2.9,2.8,5,3.8c2.1,0.9,4.6,1.5,7.4,1.9c2.8,0.3,5.9,0.5,9.1,0.5c4.4,0,8.1-0.2,11.1-0.7c3-0.5,5.5-1.2,7.5-2.1
			s3.3-2.2,4.2-3.7c0.9-1.5,1.3-3.4,1.3-5.5c0-1.7-0.3-3.2-0.8-4.4c-0.5-1.3-1.3-2.4-2.3-3.3c-1-0.9-2.2-1.7-3.6-2.3
			c-1.4-0.6-3-1.1-4.7-1.4c-1.7-0.4-3.6-0.6-5.6-0.7C44.1,30.9,42,30.9,39.9,30.9z"/>
	</g>
	<g class="st7">
		<path class="st0" d="M563.6,356.3c0,2.7-0.5,5.2-1.5,7.3c-1,2.1-2.4,3.9-4.2,5.4c-1.8,1.5-3.9,2.6-6.3,3.4c-2.4,0.8-5,1.1-7.8,1.1
			c-2,0-3.8-0.2-5.4-0.5c-1.7-0.3-3.2-0.7-4.5-1.2c-1.3-0.5-2.4-1-3.3-1.5c-0.9-0.5-1.5-0.9-1.8-1.3c-0.3-0.4-0.6-0.8-0.8-1.4
			c-0.2-0.6-0.2-1.3-0.2-2.2c0-0.7,0-1.2,0.1-1.6c0.1-0.4,0.1-0.8,0.3-1.1c0.1-0.3,0.3-0.5,0.5-0.6c0.2-0.1,0.4-0.2,0.6-0.2
			c0.4,0,1,0.3,1.8,0.8s1.7,1.1,2.9,1.7c1.2,0.6,2.6,1.2,4.3,1.7c1.7,0.5,3.7,0.8,5.9,0.8c1.7,0,3.2-0.2,4.6-0.7
			c1.4-0.5,2.6-1.1,3.6-1.9c1-0.8,1.8-1.8,2.3-3c0.5-1.2,0.8-2.6,0.8-4.1c0-1.7-0.4-3.1-1.1-4.2c-0.8-1.2-1.7-2.2-3-3.1
			c-1.2-0.9-2.6-1.7-4.2-2.4c-1.6-0.7-3.2-1.5-4.8-2.3c-1.7-0.8-3.3-1.6-4.8-2.5c-1.6-0.9-3-2-4.2-3.3c-1.2-1.3-2.2-2.7-3-4.4
			c-0.8-1.7-1.1-3.7-1.1-6.1c0-2.4,0.4-4.6,1.3-6.5c0.9-1.9,2.1-3.5,3.7-4.8c1.6-1.3,3.5-2.3,5.6-2.9c2.2-0.7,4.5-1,7-1
			c1.3,0,2.6,0.1,3.9,0.3c1.3,0.2,2.5,0.5,3.7,0.9c1.2,0.4,2.2,0.8,3.1,1.3c0.9,0.5,1.5,0.8,1.8,1.1s0.5,0.5,0.6,0.7
			c0.1,0.2,0.2,0.4,0.2,0.6c0.1,0.3,0.1,0.6,0.1,0.9s0,0.8,0,1.4c0,0.5,0,1-0.1,1.4c0,0.4-0.1,0.8-0.2,1.1c-0.1,0.3-0.2,0.5-0.4,0.6
			c-0.2,0.1-0.4,0.2-0.6,0.2c-0.3,0-0.8-0.2-1.6-0.6c-0.7-0.4-1.6-0.9-2.6-1.4c-1-0.5-2.2-1-3.6-1.4c-1.4-0.4-3-0.7-4.7-0.7
			c-1.6,0-3,0.2-4.2,0.7c-1.2,0.4-2.2,1-3,1.7c-0.8,0.7-1.4,1.6-1.8,2.6c-0.4,1-0.6,2-0.6,3.2c0,1.6,0.4,3,1.1,4.2
			c0.8,1.2,1.7,2.2,3,3.1s2.7,1.7,4.3,2.5s3.2,1.5,4.9,2.3c1.7,0.8,3.3,1.6,4.9,2.5c1.6,0.9,3,2,4.3,3.2c1.2,1.2,2.3,2.7,3,4.4
			C563.2,352,563.6,354,563.6,356.3z"/>
	</g>
	<g class="st7">
		<path class="st0" d="M132.4,346.9c0,1.2-0.3,2-1,2.4s-1.7,0.7-3,0.7H80c-1.4,0-2.4-0.2-3.1-0.7c-0.7-0.5-1-1.3-1-2.4
			c0-1.1,0.3-1.9,1-2.4c0.7-0.5,1.7-0.7,3.1-0.7h48.4c0.6,0,1.2,0,1.7,0.1c0.5,0.1,0.9,0.3,1.3,0.5c0.3,0.3,0.6,0.6,0.8,1
			C132.3,345.8,132.4,346.3,132.4,346.9z"/>
	</g>
</g>
</svg>
