<?xml version="1.0" encoding="utf-8"?>
<!-- Generator: Adobe Illustrator 27.8.0, SVG Export Plug-In . SVG Version: 6.00 Build 0)  -->
<svg version="1.1"
	 id="svg8" xmlns:svg="http://www.w3.org/2000/svg" xmlns:rdf="http://www.w3.org/1999/02/22-rdf-syntax-ns#" xmlns:sodipodi="http://sodipodi.sourceforge.net/DTD/sodipodi-0.dtd" xmlns:dc="http://purl.org/dc/elements/1.1/" xmlns:inkscape="http://www.inkscape.org/namespaces/inkscape" xmlns:cc="http://creativecommons.org/ns#" inkscape:export-xdpi="93" inkscape:export-ydpi="93" inkscape:version="0.92.4 (5da689c313, 2019-01-14)"
	 xmlns="http://www.w3.org/2000/svg" xmlns:xlink="http://www.w3.org/1999/xlink" x="0px" y="0px" viewBox="0 0 649 1081"
	 style="enable-background:new 0 0 649 1081;" xml:space="preserve">
<style type="text/css">
	.st0{fill:#FFFFFF;}
	.st1{fill:#1A1A1A;}
	.st2{opacity:0.99;fill:#808080;enable-background:new    ;}
	.st3{opacity:0.99;fill:#CCCCCC;enable-background:new    ;}
	.st4{opacity:0.99;fill:#FFFFFF;enable-background:new    ;}
	.st5{fill:#B5A642;}
	.st6{opacity:0.99;fill:#AFDDE9;enable-background:new    ;}
	.st7{enable-background:new    ;}
</style>
<defs>
	
		<inkscape:perspective  id="perspective876" inkscape:persp3d-origin="105 : 98.999994 : 1" inkscape:vp_x="0 : 148.49999 : 1" inkscape:vp_y="0 : 999.99993 : 0" inkscape:vp_z="210.00001 : 148.49999 : 1" sodipodi:type="inkscape:persp3d">
		</inkscape:perspective>
</defs>
<sodipodi:namedview  bordercolor="#666666" borderopacity="1.0" id="base" inkscape:current-layer="layer1" inkscape:cx="137.892" inkscape:cy="951.86538" inkscape:document-units="mm" inkscape:lockguides="true" inkscape:pageopacity="0" inkscape:pageshadow="2" inkscape:window-height="1017" inkscape:window-maximized="1" inkscape:window-width="1920" inkscape:window-x="-8" inkscape:window-y="-8" inkscape:zoom="0.35355339" pagecolor="#323232" showgrid="false" showguides="true" width="500mm">
	</sodipodi:namedview>
<g id="layer1" transform="translate(0.31582593,452.81107)" inkscape:groupmode="layer" inkscape:label="Ebene 1">
	<rect id="rect815" x="-0.3" y="-442.2" width="649.7" height="873.2"/>
	<rect id="rect821" x="153.3" y="288.9" class="st0" width="338.1" height="116.4"/>
	<path id="rect825" class="st1" d="M175.5,295.4h67.8c11.8,0,21.4,9.6,21.4,21.4v59.4c0,11.8-9.6,21.4-21.4,21.4h-67.8
		c-11.8,0-21.4-9.6-21.4-21.4v-59.4C154.1,305,163.7,295.4,175.5,295.4z"/>
	<path id="rect872" class="st1" d="M401.3,295.4h67.8c11.8,0,21.4,9.6,21.4,21.4v59.4c0,11.8-9.6,21.4-21.4,21.4h-67.8
		c-11.8,0-21.4-9.6-21.4-21.4v-59.4C379.9,305,389.5,295.4,401.3,295.4z"/>
	<path id="rect874" class="st1" d="M285.6,295.4h73.3c10.3,0,18.6,8.3,18.6,18.6v65c0,10.3-8.3,18.6-18.6,18.6h-73.3
		c-10.3,0-18.6-8.3-18.6-18.6v-65C267,303.8,275.3,295.4,285.6,295.4z"/>
	<rect id="rect947" x="203.1" y="351.1" class="st2" width="12.3" height="213.3"/>
	<rect id="rect949" x="316.7" y="351.1" class="st2" width="12.3" height="213.3"/>
	<rect id="rect951" x="428.9" y="351.1" class="st2" width="12.3" height="213.3"/>
	<g id="flowRoot969" transform="translate(0,-44.266525)">
	</g>
	<circle id="path1456" class="st3" cx="90.5" cy="-122.8" r="59.1"/>
	<circle id="ellipse1458" class="st3" cx="552.1" cy="-122.8" r="59.1"/>
	<circle id="path1460" class="st4" cx="90.5" cy="-122.8" r="53.4"/>
	<circle id="ellipse1464" class="st4" cx="552.1" cy="-122.8" r="53.4"/>
	<g id="flowRoot1466" transform="translate(0,-44.266525)">
	</g>
	<g id="flowRoot1529" transform="translate(0,-44.266525)">
	</g>
	<rect id="rect87" x="91" y="166.5" width="462.5" height="116.4"/>
	<circle id="path91" class="st3" cx="152.6" cy="243.6" r="43.3"/>
	<circle id="circle93" class="st3" cx="490" cy="243.6" r="43.3"/>
	<path id="rect95" class="st3" d="M187.2,66.2H216c15.9,0,28.8,12.9,28.8,28.8v72.1c0,15.9-12.9,28.8-28.8,28.8h-28.8
		c-15.9,0-28.8-12.9-28.8-28.8V95C158.3,79.1,171.2,66.2,187.2,66.2z"/>
	<path id="rect97" class="st3" d="M432.4,66.2h28.8c15.9,0,28.8,12.9,28.8,28.8v72.1c0,15.9-12.9,28.8-28.8,28.8h-28.8
		c-15.9,0-28.8-12.9-28.8-28.8V95C403.5,79.1,416.4,66.2,432.4,66.2z"/>
	<circle id="circle99" class="st3" cx="237.7" cy="17.1" r="43.3"/>
	<circle id="circle101" class="st3" cx="410.7" cy="17.1" r="43.3"/>
	<circle id="ellipse103" class="st4" cx="141.1" cy="14.3" r="53.4"/>
	<circle id="ellipse105" class="st4" cx="507.3" cy="14.3" r="53.4"/>
	<path id="rect111" class="st3" d="M187.2-170.4H216c15.9,0,28.8,12.9,28.8,28.8v72.1c0,15.9-12.9,28.8-28.8,28.8h-28.8
		c-15.9,0-28.8-12.9-28.8-28.8v-72.1C158.3-157.4,171.2-170.4,187.2-170.4z"/>
	<path id="rect113" class="st3" d="M432.4-170.4h28.8c15.9,0,28.8,12.9,28.8,28.8v72.1c0,15.9-12.9,28.8-28.8,28.8h-28.8
		c-15.9,0-28.8-12.9-28.8-28.8v-72.1C403.5-157.4,416.4-170.4,432.4-170.4z"/>
	<circle id="circle115" class="st4" cx="201.6" cy="127.5" r="39.7"/>
	<circle id="circle119" class="st4" cx="152.6" cy="243.6" r="36.1"/>
	<circle id="circle121" class="st4" cx="490" cy="243.6" r="36.1"/>
	<circle id="circle123" class="st4" cx="201.6" cy="127.5" r="39.7"/>
	<circle id="circle129" class="st3" cx="146.8" cy="-271.3" r="43.3"/>
	<circle id="circle131" class="st4" cx="146.8" cy="-271.3" r="36.1"/>
	<circle id="circle133" class="st3" cx="501.6" cy="-271.3" r="43.3"/>
	<circle id="circle135" class="st4" cx="501.6" cy="-271.3" r="36.1"/>
	<path id="path31-1" inkscape:connector-curvature="0" class="st0" d="M184.3-370.3c4-0.1,4.5-0.1,5.2-0.6c0.5-0.3,1-0.8,1.3-1.3
		c0.4-0.7,0.5-1.2,0.5-9.5l0.1-8.7l8.6,0l8.6,0v10.8c0,12-0.1,13.1-1.3,16.2c-1.6,4.1-4,6-8.9,7.2c-1.3,0.3-2.8,0.4-7.8,0.3
		c-3.4,0-7.1-0.1-8.3-0.2l-2.1-0.2l-0.1-7.1l-0.1-7.1L184.3-370.3L184.3-370.3z M266.1-346c73.2,0,91.3,0.1,88.2,0.4l-0.5,0l0.5,0.2
		c0.4,0.2,0.3,0.2-0.4,0.3c-0.5,0-0.3,0.1,0.7,0.2l1.5,0.2l-1.5,0.1c-0.8,0-1.3,0.1-1.1,0.2c0.3,0.1,0.4,0.4,0.4,2
		c0,1.9,0,1.9,0.6,2c0.5,0.1,0.3,0.1-0.4,0.1c-0.5,0-1,0.1-1,0.3c0,0.2-29,0.2-86.6,0.2H180v-3.1v-3.1L266.1-346z M200.1-412.7h8.7
		v7v7h-8.7h-8.7v-7v-7H200.1z M217.5-386.8c0.6-4,1.7-7.5,3.3-10.6c0.6-1.1,1.1-2.1,1.2-2.2c0.1-0.1,0.5-0.7,1-1.4
		c0.9-1.4,3-3.9,3.4-4.2c0.2-0.1,0.3-0.3,0.3-0.4c0-0.3,2.2-2.3,3.9-3.5c1.8-1.3,3.2-2,6.4-3.2c3.7-1.4,5.9-1.7,10.4-1.6
		c3.2,0.1,4.1,0.2,6.1,0.8c1.3,0.4,2.8,0.9,3.5,1.2c0.6,0.3,1.2,0.5,1.4,0.5c0.1,0,1.1,0.5,2.1,1.1c4.1,2.4,9.8,8.8,12,13.6
		c3.4,7.5,3.8,15,1.3,21.9c-1.1,2.9-1.9,4.6-3.1,6.6c-1.5,2.4-1.6,2.5-5.1,6c-4.1,4-7,5.7-12.3,7.2c-2.7,0.7-8,1-10.9,0.6
		c-3.7-0.6-8.7-2.7-11.8-5c-1.6-1.2-3.7-3-3.7-3.2c0-0.1-0.5-0.7-1.2-1.3c-3.1-3.2-6.3-9.4-7.5-14.5
		C217.6-380.2,217.3-385.3,217.5-386.8L217.5-386.8z M234.1-379.5c0.8,3.3,2.5,6.1,5.1,8.5c2.6,2.5,6.7,3.4,10.3,2.3
		c3.9-1.2,7.8-5.8,9.1-10.7c0.7-2.8,0.7-6.9-0.1-9.7c-1.1-3.9-3.2-6.9-6-9c-1.3-0.9-1.9-1.2-3.3-1.5c-2.9-0.6-5.9-0.3-8,0.8
		c-1.8,0.9-4.2,3.6-5.5,6.2C233.5-388.5,233-383.8,234.1-379.5L234.1-379.5z M282.7-412.6c0.2-0.1,4.1-0.1,8.7,0l8.4,0.1l0,7.7
		c0,7.3,0.1,7.8,0.5,9.1c1.2,3.3,5.2,5.1,8.7,3.9c1.8-0.6,3-1.6,3.9-3.3l0.8-1.5l0.1-8l0.1-8h8.7h8.7l-0.1,9.1
		c-0.1,8.4-0.1,9.2-0.6,10.9c-1,3.5-2.5,6.6-4.5,8.9c-0.5,0.6-0.9,1.2-0.9,1.3c0,0.3-2.2,2.3-4.1,3.7c-1.6,1.2-4,2.4-5.1,2.7
		c-0.4,0.1-1.6,0.4-2.7,0.8c-1.8,0.6-2.3,0.6-6.2,0.6c-3.9,0-4.4,0-6.5-0.7c-3.4-1-4.6-1.4-6.9-2.9c-2.6-1.7-4.8-3.9-6.6-6.5
		c-2.6-3.8-3.6-6.6-4.2-11C282.3-398.7,282.3-412.5,282.7-412.6L282.7-412.6z M306.8-370H321v7.3v7.3h-14.1h-14.1v-7.3v-7.3H306.8z
		 M331-423.8c0.1,0,0.2-0.4,0.2-0.9c0-0.9,0-0.9,1.1-1c0.6-0.1,24.6-0.1,53.3-0.1l52.2,0l-0.1,3.1l-0.1,3.1h-53.1
		c-29.2,0-53.2-0.1-53.4-0.1c-0.3-0.1-0.4-0.5-0.4-2.1C330.8-423,330.9-423.8,331-423.8L331-423.8z M354.9-389h18v7.2v7.2h-18h-18
		v-7.2v-7.2H354.9z M387.2-412.7h8.7v7v7h-8.7h-8.7v-7v-7H387.2z M387.2-391.3h8.7v18.2v18.2h-8.7h-8.7V-373v-18.2H387.2z
		 M421.6-412.7h18.1v7v7h-18.1h-18.1v-7v-7H421.6z M406.5-390.2c0.1-0.1,3.9-0.1,8.5-0.1l8.3,0l0.1,8.4c0.1,11.7-0.4,11.1,8.4,11.2
		l5.6,0.1v7.3v7.3l-2.1,0.3c-3.1,0.4-13,0.3-15.7-0.1c-4.6-0.7-7.6-2.2-9.6-4.6c-2.1-2.5-3.1-5-3.5-9.1
		C406.3-372,406.2-390,406.5-390.2L406.5-390.2z M449.9-419.6c0.4-1.5,1.3-3,2.2-3.8c3.9-3.4,8.6-3.8,12.5-1c1.8,1.3,2.3,1.9,3,3.5
		c0.6,1.2,0.7,1.6,0.7,3.8c0,2.2-0.1,2.6-0.7,3.9c-1.3,2.8-4.6,5-7.9,5.3c-3,0.2-5.3-0.7-7.7-3C450-413,449.1-416.6,449.9-419.6
		L449.9-419.6z M451.6-413.7c0.8,1.9,3.2,3.7,5.8,4.3c2.5,0.6,4.4,0.1,7.3-2c0.7-0.5,1.2-1.2,1.7-2.3c0.7-1.4,0.8-1.8,0.8-3.6
		c0-1.8-0.1-2.1-0.8-3.6c-0.7-1.3-1.1-1.8-2.2-2.6c-0.8-0.5-1.9-1.2-2.6-1.4c-3.9-1.3-8.7,0.8-10.3,4.6
		C450.8-418.5,450.9-415.4,451.6-413.7L451.6-413.7z M458-422.7c1.8,0,3.5,0.1,3.8,0.2c1.4,0.5,2.1,3.2,1.1,4.5
		c-0.3,0.3-0.8,0.7-1.3,0.9l-0.8,0.3l0.8,0.9c0.4,0.5,1.1,1.5,1.5,2.2s0.8,1.3,0.9,1.4c0.5,0.3,0.1,0.6-0.8,0.6l-1,0l-1.4-2.2
		c-1.5-2.4-1.9-2.6-3.5-2.6h-1v2.4v2.4l-0.7-0.1l-0.7-0.1l-0.1-5.4l-0.1-5.4L458-422.7z M458.4-418c1.7,0,2.2-0.1,2.7-0.5
		c1.3-1,0.6-2.6-1.3-2.9c-0.8-0.1-3-0.1-3.4,0.1c0,0-0.1,0.7-0.1,1.6v1.6L458.4-418z"/>
	<circle id="circle84" class="st4" cx="238" cy="17.1" r="36.1"/>
	<circle id="circle86" class="st4" cx="410.9" cy="17.1" r="36.1"/>
	<circle id="circle110" class="st4" cx="446.7" cy="127.5" r="39.7"/>
	
		<rect id="rect132" x="150.1" y="-215.9" inkscape:transform-center-x="32.083453" inkscape:transform-center-y="-31.55278" transform="matrix(0.707 -0.7072 0.7072 0.707 152.4381 65.9977)" class="st5" width="11.5" height="129.8">
	</rect>
	
		<rect id="rect134" x="427.8" y="-157.1" inkscape:transform-center-x="-31.819804" inkscape:transform-center-y="-31.808144" transform="matrix(0.7077 -0.7065 0.7065 0.7077 250.9436 303.8516)" class="st5" width="129.8" height="11.5">
	</rect>
	
		<rect id="rect136" x="69.2" y="-282.2" inkscape:transform-center-x="25.031673" inkscape:transform-center-y="-24.463464" transform="matrix(0.7063 -0.708 0.708 0.7063 186.1023 -14.9654)" class="st5" width="11.5" height="101">
	</rect>
	<polygon id="rect138" inkscape:transform-center-x="-24.755277" inkscape:transform-center-y="-24.73799" class="st5" points="
		605.1,-271.9 613.3,-263.7 541.9,-192.4 533.7,-200.5 	">
	</polygon>
	
		<rect id="rect142" x="43.4" y="-271.6" inkscape:transform-center-x="-34.99766" inkscape:transform-center-y="-0.45908577" transform="matrix(1 -2.837280e-03 2.837280e-03 1 0.7547 0.2652)" class="st5" width="101" height="11.5">
	</rect>
	
		<rect id="rect144" x="504.2" y="-271.8" inkscape:transform-center-x="-34.99766" inkscape:transform-center-y="-0.45908577" transform="matrix(1 -2.837280e-03 2.837280e-03 1 0.7569 1.5727)" class="st5" width="101" height="11.5">
	</rect>
	<path id="path129" inkscape:connector-curvature="0" class="st6" d="M146.5-311.2L146.5-311.2c-13.8,0.3-26.4,7.8-33.4,19.8
		c-7.1,12.3-7.1,27.5,0,39.8c6.9,12,19.6,19.5,33.4,19.7v0h358v-0.1c-0.5,0-0.9,0-1.4,0.1v-0.1c13.3-0.7,25.3-8.1,32-19.6
		c7.1-12.3,7.1-27.5,0-39.8c-6.7-11.6-18.7-19-32-19.7v-0.1H147.4L146.5-311.2z M503.2-311.2c0.4,0,0.9,0,1.3,0v0H503.2z"/>
	<g class="st7">
		<path d="M429.3,574.5c0,0.5,0,0.9-0.1,1.2c0,0.4-0.1,0.6-0.2,0.9c-0.1,0.2-0.2,0.4-0.4,0.5c-0.1,0.1-0.3,0.1-0.5,0.1
			c-0.3,0-0.8-0.2-1.5-0.7c-0.7-0.5-1.6-1-2.8-1.5s-2.5-1.1-4.1-1.5c-1.6-0.5-3.5-0.7-5.7-0.7c-2.6,0-5,0.5-7.1,1.4s-3.8,2.3-5.3,4
			c-1.4,1.7-2.6,3.7-3.3,6s-1.2,4.8-1.2,7.6c0,3,0.4,5.7,1.3,8.1c0.8,2.4,2,4.3,3.5,6c1.5,1.6,3.3,2.8,5.3,3.7
			c2.1,0.8,4.3,1.2,6.8,1.2c1.5,0,3-0.2,4.5-0.5c1.5-0.4,2.9-0.9,4.2-1.6v-13.9h-11c-0.4,0-0.7-0.2-0.9-0.6
			c-0.2-0.4-0.3-1.1-0.3-1.9c0-0.5,0-0.9,0.1-1.2c0-0.3,0.1-0.6,0.2-0.8c0.1-0.2,0.2-0.4,0.4-0.5c0.1-0.1,0.3-0.1,0.6-0.1H427
			c0.3,0,0.5,0,0.8,0.1c0.3,0.1,0.5,0.2,0.7,0.4c0.2,0.2,0.4,0.5,0.5,0.8c0.1,0.3,0.2,0.7,0.2,1.2v18.1c0,0.6-0.1,1.2-0.3,1.7
			c-0.2,0.5-0.7,0.9-1.4,1.2c-0.7,0.4-1.6,0.7-2.8,1.2c-1.1,0.4-2.3,0.8-3.5,1.1s-2.4,0.5-3.6,0.7c-1.2,0.1-2.4,0.2-3.6,0.2
			c-3.7,0-7-0.6-9.8-1.7c-2.9-1.1-5.3-2.8-7.3-4.9c-2-2.1-3.5-4.6-4.6-7.6c-1.1-2.9-1.6-6.2-1.6-9.8c0-3.8,0.6-7.2,1.7-10.3
			c1.1-3.1,2.7-5.7,4.8-7.8c2.1-2.2,4.6-3.8,7.5-5c2.9-1.2,6.1-1.8,9.6-1.8c1.8,0,3.5,0.2,5.1,0.5c1.6,0.3,3,0.7,4.2,1.1
			c1.2,0.4,2.3,0.9,3.1,1.4c0.8,0.5,1.4,0.9,1.7,1.2s0.5,0.7,0.7,1.1C429.3,573.2,429.3,573.8,429.3,574.5z"/>
		<path d="M477,613c0,0.5-0.1,0.9-0.2,1.2c-0.2,0.3-0.4,0.6-0.6,0.8c-0.3,0.2-0.6,0.4-0.9,0.5s-0.7,0.1-1,0.1h-2.1
			c-0.7,0-1.2-0.1-1.7-0.2c-0.5-0.1-1-0.4-1.4-0.7c-0.4-0.4-0.9-0.8-1.3-1.5c-0.4-0.6-0.9-1.4-1.4-2.4l-14.5-27
			c-0.8-1.4-1.5-2.9-2.3-4.4c-0.8-1.5-1.5-3-2.2-4.5h-0.1c0,1.8,0.1,3.6,0.1,5.4s0,3.7,0,5.5v28.7c0,0.2-0.1,0.3-0.2,0.5
			s-0.3,0.3-0.5,0.4c-0.2,0.1-0.6,0.2-1,0.2c-0.4,0.1-0.9,0.1-1.5,0.1c-0.6,0-1.1,0-1.5-0.1c-0.4-0.1-0.7-0.1-0.9-0.2
			c-0.2-0.1-0.4-0.2-0.5-0.4s-0.2-0.3-0.2-0.5v-43.9c0-1,0.3-1.7,0.8-2.1c0.6-0.4,1.2-0.6,1.8-0.6h3.1c0.7,0,1.3,0.1,1.8,0.2
			c0.5,0.1,0.9,0.3,1.3,0.6c0.4,0.3,0.8,0.7,1.1,1.2c0.4,0.5,0.8,1.1,1.2,1.9l11.1,20.9c0.7,1.3,1.3,2.5,2,3.7
			c0.6,1.2,1.3,2.4,1.8,3.6s1.2,2.3,1.8,3.5c0.6,1.1,1.2,2.3,1.7,3.4h0c0-1.9-0.1-3.9-0.1-6c0-2.1,0-4.1,0-6v-25.8
			c0-0.2,0.1-0.3,0.2-0.5c0.1-0.1,0.3-0.3,0.5-0.4s0.6-0.2,1-0.2s0.9-0.1,1.6-0.1c0.6,0,1.1,0,1.5,0.1s0.7,0.1,1,0.2
			c0.2,0.1,0.4,0.2,0.5,0.4c0.1,0.1,0.2,0.3,0.2,0.5V613z"/>
		<path d="M526.2,591.1c0,4.1-0.5,7.7-1.6,10.8c-1.1,3.1-2.6,5.6-4.6,7.6s-4.5,3.5-7.4,4.5c-2.9,1-6.4,1.5-10.5,1.5H492
			c-0.6,0-1.1-0.2-1.6-0.6c-0.5-0.4-0.8-1-0.8-2v-42.4c0-1,0.3-1.6,0.8-2c0.5-0.4,1-0.6,1.6-0.6h10.8c4.1,0,7.6,0.5,10.4,1.6
			c2.8,1.1,5.2,2.6,7.1,4.6c1.9,2,3.4,4.4,4.4,7.3C525.7,584.4,526.2,587.6,526.2,591.1z M519.6,591.4c0-2.6-0.3-5-1-7.2
			s-1.6-4.1-3-5.8c-1.4-1.6-3.1-2.9-5.2-3.8c-2.1-0.9-4.8-1.4-8-1.4H496v37h6.5c3,0,5.6-0.4,7.7-1.1c2.1-0.8,3.8-1.9,5.2-3.5
			c1.4-1.6,2.4-3.5,3.1-5.9C519.2,597.4,519.6,594.6,519.6,591.4z"/>
	</g>
	<g class="st7">
		<path d="M109.8,602.3c0,2.2-0.4,4.2-1.2,6c-0.8,1.7-2,3.2-3.4,4.4c-1.5,1.2-3.2,2.1-5.1,2.7c-2,0.6-4.1,0.9-6.4,0.9
			c-1.6,0-3.1-0.1-4.4-0.4s-2.6-0.6-3.6-1c-1.1-0.4-2-0.8-2.7-1.2c-0.7-0.4-1.2-0.8-1.5-1.1c-0.3-0.3-0.5-0.7-0.6-1.1
			s-0.2-1.1-0.2-1.8c0-0.5,0-1,0.1-1.3c0-0.4,0.1-0.6,0.2-0.9s0.2-0.4,0.4-0.5c0.1-0.1,0.3-0.1,0.5-0.1c0.3,0,0.8,0.2,1.5,0.6
			c0.6,0.4,1.4,0.9,2.4,1.4c1,0.5,2.2,0.9,3.5,1.4s3,0.6,4.8,0.6c1.4,0,2.6-0.2,3.8-0.6c1.1-0.4,2.1-0.9,2.9-1.6
			c0.8-0.7,1.5-1.5,1.9-2.5c0.4-1,0.7-2.1,0.7-3.3c0-1.3-0.3-2.5-0.9-3.5c-0.6-1-1.4-1.8-2.4-2.5c-1-0.7-2.1-1.4-3.4-2
			c-1.3-0.6-2.6-1.2-4-1.8s-2.7-1.3-3.9-2.1c-1.3-0.8-2.4-1.7-3.4-2.7c-1-1-1.8-2.2-2.4-3.6c-0.6-1.4-0.9-3-0.9-5
			c0-2,0.4-3.8,1.1-5.3c0.7-1.6,1.7-2.9,3-3.9c1.3-1.1,2.8-1.9,4.6-2.4c1.8-0.6,3.7-0.8,5.8-0.8c1.1,0,2.1,0.1,3.2,0.3
			s2.1,0.4,3,0.7c0.9,0.3,1.8,0.6,2.5,1c0.7,0.4,1.2,0.7,1.5,0.9c0.2,0.2,0.4,0.4,0.5,0.6c0.1,0.1,0.1,0.3,0.2,0.5
			c0,0.2,0.1,0.5,0.1,0.8s0,0.7,0,1.1c0,0.4,0,0.8-0.1,1.2c0,0.3-0.1,0.6-0.2,0.9c-0.1,0.2-0.2,0.4-0.3,0.5s-0.3,0.2-0.5,0.2
			c-0.3,0-0.7-0.2-1.3-0.5c-0.6-0.3-1.3-0.7-2.1-1.2c-0.8-0.4-1.8-0.8-3-1.2c-1.1-0.4-2.4-0.5-3.8-0.5c-1.3,0-2.5,0.2-3.5,0.5
			c-1,0.4-1.8,0.8-2.4,1.4c-0.6,0.6-1.1,1.3-1.4,2.1s-0.5,1.7-0.5,2.6c0,1.3,0.3,2.5,0.9,3.4s1.4,1.8,2.4,2.5c1,0.7,2.2,1.4,3.5,2
			s2.6,1.2,4,1.9c1.3,0.6,2.7,1.3,4,2.1c1.3,0.7,2.5,1.6,3.5,2.6s1.8,2.2,2.5,3.6S109.8,600.4,109.8,602.3z"/>
		<path d="M124.9,570.5c0,1.4-0.3,2.4-0.8,2.9s-1.5,0.8-3,0.8c-1.4,0-2.4-0.3-2.9-0.8c-0.5-0.5-0.8-1.5-0.8-2.8
			c0-1.4,0.3-2.4,0.8-2.9c0.5-0.5,1.5-0.8,3-0.8c1.4,0,2.4,0.3,2.9,0.8S124.9,569.1,124.9,570.5z M124.2,614.7c0,0.2,0,0.4-0.1,0.5
			c-0.1,0.1-0.3,0.3-0.5,0.3c-0.2,0.1-0.5,0.2-0.9,0.2s-0.9,0.1-1.5,0.1c-0.6,0-1.1,0-1.5-0.1c-0.4,0-0.7-0.1-0.9-0.2
			c-0.2-0.1-0.4-0.2-0.5-0.3c-0.1-0.1-0.1-0.3-0.1-0.5v-33.1c0-0.2,0-0.3,0.1-0.5c0.1-0.1,0.2-0.3,0.5-0.4c0.2-0.1,0.5-0.2,0.9-0.2
			c0.4,0,0.9-0.1,1.5-0.1c0.6,0,1.1,0,1.5,0.1c0.4,0,0.7,0.1,0.9,0.2c0.2,0.1,0.4,0.2,0.5,0.4c0.1,0.1,0.1,0.3,0.1,0.5V614.7z"/>
		<path d="M163.1,583.1c0,0.9-0.1,1.5-0.3,1.9c-0.2,0.4-0.5,0.6-0.9,0.6h-4.7c0.9,0.9,1.5,1.9,1.8,2.9s0.5,2.2,0.5,3.3
			c0,1.9-0.3,3.6-0.9,5.1s-1.5,2.7-2.6,3.7c-1.1,1-2.5,1.8-4.1,2.3c-1.6,0.5-3.3,0.8-5.2,0.8c-1.3,0-2.6-0.2-3.8-0.5
			c-1.2-0.4-2.1-0.8-2.8-1.3c-0.4,0.4-0.8,0.9-1.1,1.5c-0.3,0.6-0.4,1.2-0.4,1.9c0,0.9,0.4,1.6,1.2,2.1c0.8,0.6,1.9,0.9,3.2,0.9
			l8.6,0.4c1.6,0,3.1,0.3,4.5,0.7c1.4,0.4,2.6,1,3.6,1.7c1,0.7,1.8,1.7,2.4,2.8c0.6,1.1,0.8,2.4,0.8,3.8c0,1.5-0.3,3-1,4.3
			c-0.6,1.4-1.6,2.6-2.9,3.6c-1.3,1-3,1.9-5,2.5c-2,0.6-4.4,0.9-7.2,0.9c-2.7,0-4.9-0.2-6.8-0.7c-1.9-0.5-3.4-1.1-4.6-1.9
			c-1.2-0.8-2.1-1.7-2.6-2.8c-0.5-1.1-0.8-2.3-0.8-3.5c0-0.8,0.1-1.6,0.3-2.4c0.2-0.8,0.5-1.5,0.9-2.2s0.9-1.3,1.5-2
			c0.6-0.6,1.3-1.2,2.1-1.9c-1.2-0.6-2.1-1.4-2.7-2.3s-0.9-1.9-0.9-3c0-1.5,0.3-2.8,0.9-4c0.6-1.2,1.4-2.2,2.3-3.2
			c-0.8-0.9-1.4-1.9-1.8-3.1c-0.4-1.1-0.7-2.5-0.7-4.1c0-1.9,0.3-3.6,1-5.1c0.6-1.5,1.5-2.8,2.6-3.8c1.1-1,2.5-1.8,4.1-2.4
			s3.3-0.8,5.2-0.8c1,0,1.9,0.1,2.8,0.2s1.7,0.3,2.4,0.5h10c0.4,0,0.7,0.2,0.9,0.6S163.1,582.3,163.1,583.1z M156.6,618
			c0-1.4-0.6-2.5-1.7-3.3c-1.2-0.8-2.7-1.2-4.7-1.2l-8.6-0.3c-0.8,0.6-1.4,1.2-1.9,1.7c-0.5,0.6-0.9,1.1-1.2,1.6s-0.5,1-0.6,1.5
			s-0.2,1-0.2,1.5c0,1.6,0.8,2.8,2.4,3.6c1.6,0.8,3.9,1.2,6.8,1.2c1.8,0,3.4-0.2,4.6-0.5c1.2-0.4,2.2-0.8,3-1.4
			c0.8-0.6,1.3-1.3,1.6-2C156.5,619.7,156.6,618.9,156.6,618z M153.6,591.8c0-2.3-0.6-4-1.9-5.3c-1.2-1.3-3-1.9-5.3-1.9
			c-1.2,0-2.2,0.2-3.1,0.6c-0.9,0.4-1.6,0.9-2.2,1.6c-0.6,0.7-1,1.5-1.3,2.4c-0.3,0.9-0.4,1.8-0.4,2.8c0,2.2,0.6,3.9,1.9,5.1
			c1.2,1.2,3,1.9,5.2,1.9c1.2,0,2.2-0.2,3.1-0.6c0.9-0.4,1.6-0.9,2.2-1.6c0.6-0.7,1-1.5,1.3-2.3
			C153.4,593.7,153.6,592.8,153.6,591.8z"/>
		<path d="M199.3,614.7c0,0.2,0,0.4-0.1,0.5c-0.1,0.1-0.3,0.3-0.5,0.3s-0.5,0.2-0.9,0.2s-0.9,0.1-1.5,0.1c-0.6,0-1.1,0-1.5-0.1
			c-0.4,0-0.7-0.1-0.9-0.2c-0.2-0.1-0.4-0.2-0.5-0.3c-0.1-0.1-0.1-0.3-0.1-0.5v-19.4c0-1.9-0.1-3.4-0.4-4.6s-0.7-2.1-1.3-3
			c-0.6-0.8-1.3-1.5-2.2-1.9c-0.9-0.4-1.9-0.7-3.1-0.7c-1.5,0-3,0.5-4.6,1.6s-3.1,2.7-4.8,4.7v23.1c0,0.2,0,0.4-0.1,0.5
			c-0.1,0.1-0.3,0.3-0.5,0.3c-0.2,0.1-0.5,0.2-0.9,0.2s-0.9,0.1-1.5,0.1c-0.6,0-1.1,0-1.5-0.1c-0.4,0-0.7-0.1-0.9-0.2
			c-0.2-0.1-0.4-0.2-0.5-0.3c-0.1-0.1-0.1-0.3-0.1-0.5v-33.1c0-0.2,0-0.4,0.1-0.5c0.1-0.1,0.2-0.3,0.4-0.4c0.2-0.1,0.5-0.2,0.8-0.2
			c0.3,0,0.8-0.1,1.4-0.1c0.5,0,1,0,1.3,0.1c0.4,0,0.6,0.1,0.8,0.2c0.2,0.1,0.3,0.2,0.4,0.4c0.1,0.1,0.1,0.3,0.1,0.5v4.4
			c1.9-2.1,3.7-3.6,5.6-4.6c1.8-1,3.7-1.5,5.6-1.5c2.2,0,4.1,0.4,5.6,1.1c1.5,0.7,2.7,1.7,3.7,3s1.6,2.7,2,4.4s0.6,3.7,0.6,6V614.7z
			"/>
		<path d="M235.3,614.7c0,0.3-0.1,0.5-0.3,0.7c-0.2,0.1-0.5,0.3-0.8,0.3s-0.8,0.1-1.5,0.1c-0.6,0-1.1,0-1.5-0.1s-0.7-0.2-0.8-0.3
			c-0.2-0.1-0.3-0.4-0.3-0.7v-3.3c-1.4,1.5-3.1,2.7-4.8,3.6c-1.8,0.9-3.7,1.3-5.6,1.3c-1.7,0-3.3-0.2-4.7-0.7s-2.6-1.1-3.6-2
			s-1.8-1.9-2.3-3.2c-0.6-1.2-0.8-2.7-0.8-4.3c0-1.9,0.4-3.5,1.1-4.8c0.8-1.4,1.8-2.5,3.3-3.4s3.2-1.6,5.2-2s4.4-0.7,6.9-0.7h4.6
			v-2.6c0-1.3-0.1-2.4-0.4-3.4s-0.7-1.8-1.3-2.4s-1.4-1.1-2.3-1.5c-1-0.3-2.1-0.5-3.5-0.5c-1.5,0-2.8,0.2-4,0.5
			c-1.2,0.4-2.2,0.7-3.1,1.2c-0.9,0.4-1.6,0.8-2.2,1.2c-0.6,0.4-1,0.5-1.3,0.5c-0.2,0-0.4,0-0.5-0.1c-0.1-0.1-0.3-0.2-0.4-0.4
			c-0.1-0.2-0.2-0.4-0.2-0.8c0-0.3-0.1-0.6-0.1-1c0-0.6,0-1.1,0.1-1.5s0.3-0.7,0.6-1s0.9-0.7,1.7-1.1c0.8-0.4,1.7-0.8,2.8-1.2
			c1.1-0.4,2.2-0.6,3.5-0.9c1.2-0.2,2.5-0.3,3.8-0.3c2.4,0,4.4,0.3,6.1,0.8c1.7,0.5,3,1.3,4,2.4c1,1,1.8,2.3,2.2,3.9
			c0.5,1.5,0.7,3.3,0.7,5.4V614.7z M229.3,599.6h-5.2c-1.7,0-3.1,0.1-4.3,0.4c-1.2,0.3-2.2,0.7-3,1.2c-0.8,0.6-1.4,1.2-1.8,2
			c-0.4,0.8-0.6,1.7-0.6,2.7c0,1.7,0.5,3.1,1.6,4.1c1.1,1,2.6,1.5,4.6,1.5c1.6,0,3.1-0.4,4.4-1.2s2.8-2,4.3-3.7V599.6z"/>
		<path d="M252.5,614.7c0,0.2,0,0.4-0.1,0.5c-0.1,0.1-0.3,0.3-0.5,0.3c-0.2,0.1-0.5,0.2-0.9,0.2s-0.9,0.1-1.5,0.1
			c-0.6,0-1.1,0-1.5-0.1c-0.4,0-0.7-0.1-0.9-0.2c-0.2-0.1-0.4-0.2-0.5-0.3c-0.1-0.1-0.1-0.3-0.1-0.5v-49.1c0-0.2,0-0.4,0.1-0.5
			c0.1-0.1,0.2-0.3,0.5-0.4c0.2-0.1,0.5-0.2,0.9-0.2c0.4,0,0.9-0.1,1.5-0.1c0.6,0,1.1,0,1.5,0.1s0.7,0.1,0.9,0.2
			c0.2,0.1,0.4,0.2,0.5,0.4c0.1,0.1,0.1,0.3,0.1,0.5V614.7z"/>
	</g>
	<g class="st7">
		<path d="M317.9,594.4c0,0.5,0,0.9-0.1,1.2c-0.1,0.3-0.2,0.6-0.3,0.8c-0.1,0.2-0.3,0.4-0.4,0.5c-0.2,0.1-0.4,0.1-0.6,0.1h-12.1
			v13.4c0,0.2,0,0.4-0.1,0.5c-0.1,0.1-0.3,0.3-0.5,0.3c-0.2,0.1-0.5,0.2-0.8,0.2c-0.3,0.1-0.8,0.1-1.3,0.1c-0.5,0-0.9,0-1.3-0.1
			c-0.4-0.1-0.6-0.1-0.8-0.2c-0.2-0.1-0.4-0.2-0.5-0.3s-0.1-0.3-0.1-0.5v-13.4h-12.1c-0.2,0-0.4,0-0.6-0.1c-0.2-0.1-0.3-0.3-0.4-0.5
			c-0.1-0.2-0.2-0.5-0.3-0.8c-0.1-0.3-0.1-0.7-0.1-1.2c0-0.4,0-0.8,0.1-1.2c0.1-0.3,0.2-0.6,0.3-0.8c0.1-0.2,0.3-0.4,0.4-0.5
			c0.2-0.1,0.3-0.1,0.5-0.1H299v-13.4c0-0.2,0-0.4,0.1-0.5c0.1-0.2,0.3-0.3,0.5-0.4c0.2-0.1,0.5-0.2,0.8-0.3
			c0.4-0.1,0.8-0.1,1.3-0.1c0.5,0,0.9,0,1.3,0.1c0.3,0.1,0.6,0.1,0.8,0.3s0.4,0.2,0.5,0.4c0.1,0.2,0.1,0.3,0.1,0.5v13.4h12.1
			c0.2,0,0.4,0,0.5,0.1c0.2,0.1,0.3,0.3,0.4,0.5c0.1,0.2,0.2,0.5,0.3,0.8C317.8,593.6,317.9,594,317.9,594.4z"/>
		<path d="M346,614.5c-0.1,0.3-0.2,0.5-0.4,0.7c-0.2,0.2-0.4,0.3-0.7,0.4c-0.3,0.1-0.7,0.2-1.2,0.2c-0.5,0-1.1,0.1-1.8,0.1
			c-0.5,0-1,0-1.4,0c-0.4,0-0.8,0-1-0.1c-0.3,0-0.5-0.1-0.8-0.2c-0.2-0.1-0.4-0.1-0.5-0.2c-0.1-0.1-0.3-0.2-0.3-0.3
			s-0.2-0.3-0.2-0.5L322,570.3c-0.2-0.5-0.3-1-0.3-1.3c0-0.3,0.1-0.6,0.3-0.8c0.2-0.2,0.6-0.3,1.1-0.3c0.5,0,1.2-0.1,2-0.1
			c0.7,0,1.2,0,1.6,0.1s0.7,0.1,0.9,0.2s0.4,0.2,0.5,0.4s0.2,0.4,0.3,0.6l13.6,40h0l13.3-39.9c0.1-0.3,0.2-0.5,0.3-0.7
			c0.1-0.2,0.3-0.3,0.5-0.4c0.2-0.1,0.6-0.2,1-0.2c0.4,0,1-0.1,1.8-0.1c0.8,0,1.4,0,1.8,0.1c0.4,0.1,0.7,0.2,0.9,0.3
			c0.2,0.2,0.2,0.4,0.2,0.8c0,0.3-0.2,0.8-0.3,1.3L346,614.5z"/>
	</g>
	<g class="st7">
		<path class="st0" d="M71.9,159.8c0.2,0,0.5,0.1,0.6,0.2c0.2,0.1,0.4,0.3,0.5,0.6c0.1,0.3,0.2,0.7,0.3,1.2s0.1,1.2,0.1,2
			c0,1,0,1.9-0.1,2.5c-0.1,0.7-0.3,1.1-0.5,1.5s-0.5,0.6-0.8,0.8L43,189.9H72c0.2,0,0.4,0.1,0.6,0.2c0.2,0.1,0.3,0.3,0.4,0.6
			c0.1,0.3,0.2,0.7,0.3,1.2c0.1,0.5,0.1,1.1,0.1,1.9c0,0.7,0,1.3-0.1,1.8c-0.1,0.5-0.2,0.9-0.3,1.2s-0.3,0.5-0.4,0.6
			s-0.4,0.2-0.6,0.2H16.4c-0.2,0-0.4-0.1-0.6-0.2c-0.2-0.1-0.3-0.3-0.4-0.6c-0.1-0.3-0.2-0.7-0.3-1.2c-0.1-0.5-0.1-1.1-0.1-1.8
			c0-0.7,0-1.4,0.1-1.9c0.1-0.5,0.2-0.9,0.3-1.2c0.1-0.3,0.2-0.5,0.4-0.6c0.2-0.1,0.4-0.2,0.6-0.2h25.7l-25.7-20.5
			c-0.3-0.2-0.5-0.4-0.7-0.6c-0.2-0.2-0.3-0.5-0.4-0.9s-0.2-0.8-0.2-1.3s-0.1-1.1-0.1-1.9s0-1.4,0.1-1.9s0.2-0.9,0.3-1.1
			c0.1-0.3,0.3-0.5,0.4-0.6s0.4-0.2,0.6-0.2c0.4,0,0.8,0.1,1.2,0.3c0.4,0.2,0.9,0.6,1.6,1.1l22.9,19.2l27.5-20.7
			c0.8-0.5,1.3-0.8,1.6-0.9C71.5,159.9,71.7,159.8,71.9,159.8z"/>
		<path class="st0" d="M50.6,131.6H72c0.2,0,0.4,0.1,0.6,0.2c0.2,0.1,0.3,0.3,0.4,0.6c0.1,0.3,0.2,0.7,0.3,1.2
			c0.1,0.5,0.1,1.1,0.1,1.8c0,0.7,0,1.4-0.1,1.8s-0.2,0.9-0.3,1.2c-0.1,0.3-0.2,0.5-0.4,0.6c-0.2,0.1-0.4,0.2-0.6,0.2H50.6L18,155.6
			c-0.7,0.3-1.2,0.5-1.6,0.6s-0.7,0-0.9-0.2c-0.2-0.2-0.3-0.6-0.4-1.2c-0.1-0.6-0.1-1.4-0.1-2.3c0-0.9,0-1.6,0.1-2.2s0.1-1,0.2-1.3
			s0.3-0.6,0.4-0.7c0.2-0.2,0.4-0.3,0.7-0.5l16.6-8c1.6-0.7,3.2-1.5,5-2.2c1.7-0.7,3.5-1.5,5.2-2.3v-0.1c-1.7-0.7-3.4-1.4-5.1-2.1
			c-1.7-0.7-3.3-1.5-5-2.2l-16.7-8c-0.3-0.1-0.6-0.2-0.8-0.4c-0.2-0.2-0.4-0.4-0.5-0.7c-0.1-0.3-0.2-0.7-0.2-1.2s-0.1-1.1-0.1-1.9
			c0-1.1,0-1.9,0.1-2.5s0.2-1,0.4-1.3c0.2-0.2,0.5-0.3,0.9-0.2s0.9,0.3,1.6,0.6L50.6,131.6z"/>
		<path class="st0" d="M50.6,93.3c1.2,0,2,0.1,2.4,0.4c0.4,0.3,0.7,0.7,0.7,1.2v18.7c0,0.5-0.2,0.9-0.7,1.2
			c-0.5,0.3-1.3,0.4-2.4,0.4s-1.9-0.1-2.4-0.4c-0.4-0.3-0.7-0.7-0.7-1.2V94.9c0-0.2,0-0.5,0.1-0.6c0.1-0.2,0.3-0.4,0.5-0.5
			c0.3-0.1,0.6-0.2,1-0.3C49.5,93.4,50,93.3,50.6,93.3z"/>
		<path class="st0" d="M44.1,47c4.4,0,8.5,0.4,12.2,1.1s6.8,1.9,9.5,3.5c2.6,1.6,4.7,3.8,6.1,6.4c1.4,2.6,2.2,5.9,2.2,9.7
			c0,3.6-0.6,6.7-1.9,9.2s-3.2,4.5-5.7,6c-2.5,1.5-5.6,2.6-9.3,3.2c-3.7,0.6-7.9,1-12.7,1c-4.4,0-8.5-0.4-12.1-1.1s-6.8-1.9-9.5-3.5
			c-2.6-1.6-4.7-3.7-6.1-6.3c-1.4-2.6-2.2-5.8-2.2-9.7c0-3.7,0.6-6.7,1.9-9.2s3.2-4.5,5.7-6c2.5-1.5,5.6-2.6,9.3-3.2
			C35.1,47.3,39.3,47,44.1,47z M44.6,54.9c-2.9,0-5.5,0.1-7.8,0.3c-2.3,0.2-4.3,0.5-6.1,0.9s-3.3,0.9-4.5,1.6
			c-1.3,0.6-2.3,1.4-3.1,2.3c-0.8,0.9-1.4,1.9-1.8,3.1c-0.4,1.1-0.6,2.4-0.6,3.9c0,2.5,0.6,4.6,1.8,6.2c1.2,1.6,2.8,2.8,4.9,3.7
			c2.1,0.9,4.5,1.5,7.3,1.9c2.8,0.3,5.8,0.5,9,0.5c4.3,0,8-0.2,11-0.7s5.5-1.2,7.4-2.1c1.9-1,3.3-2.2,4.2-3.7
			c0.9-1.5,1.3-3.3,1.3-5.5c0-1.7-0.3-3.1-0.8-4.4c-0.5-1.3-1.3-2.4-2.3-3.3c-1-0.9-2.2-1.7-3.6-2.3s-3-1.1-4.7-1.4
			c-1.7-0.4-3.5-0.6-5.5-0.7C48.8,54.9,46.8,54.9,44.6,54.9z"/>
		<path class="st0" d="M69.8,2.5c0.5,0,1,0,1.4,0.1c0.4,0.1,0.8,0.2,1.1,0.3c0.3,0.1,0.5,0.3,0.6,0.5s0.2,0.5,0.2,0.7v32
			c0,0.4-0.1,0.8-0.2,1.1c-0.1,0.3-0.3,0.6-0.5,0.8c-0.2,0.2-0.6,0.4-1,0.5s-1,0.2-1.7,0.2c-0.6,0-1.1,0-1.6-0.1s-0.8-0.1-1.2-0.3
			c-0.3-0.2-0.7-0.3-1-0.6c-0.3-0.2-0.7-0.5-1.1-0.9L53,25.3c-2.7-2.7-5.2-4.8-7.4-6.4c-2.2-1.6-4.2-2.9-5.9-3.7
			c-1.8-0.9-3.4-1.5-4.9-1.7C33.4,13.2,32,13,30.7,13c-1.3,0-2.5,0.2-3.6,0.6s-2.2,1.1-3,1.9c-0.9,0.8-1.5,1.8-2.1,3.1
			s-0.8,2.6-0.8,4.2c0,1.9,0.3,3.6,0.8,5.1s1.1,2.8,1.7,3.9c0.6,1.1,1.1,2.1,1.7,2.8c0.5,0.8,0.8,1.3,0.8,1.7c0,0.2-0.1,0.4-0.2,0.6
			c-0.1,0.2-0.3,0.3-0.6,0.4s-0.6,0.2-1.1,0.3s-1,0.1-1.6,0.1c-0.4,0-0.8,0-1.2,0c-0.3,0-0.6-0.1-0.8-0.2c-0.2-0.1-0.5-0.2-0.7-0.3
			c-0.2-0.1-0.5-0.4-0.8-0.7c-0.3-0.4-0.7-1-1.3-1.9c-0.5-0.9-1.1-2-1.6-3.3c-0.5-1.3-1-2.8-1.3-4.4c-0.4-1.6-0.5-3.3-0.5-5
			c0-2.8,0.4-5.3,1.2-7.4c0.8-2.1,1.9-3.8,3.2-5.2c1.4-1.4,3-2.4,4.8-3.1c1.8-0.7,3.8-1,5.8-1c1.8,0,3.7,0.2,5.5,0.5
			c1.8,0.3,3.8,1,5.9,2.1c2.1,1.1,4.5,2.6,7.1,4.6s5.6,4.7,9,8l9.6,9.2V4.2c0-0.2,0.1-0.5,0.2-0.7c0.1-0.2,0.3-0.4,0.6-0.6
			c0.3-0.2,0.6-0.3,1-0.4C68.8,2.5,69.3,2.5,69.8,2.5z"/>
		<path class="st0" d="M70.1-44c0.6,0,1,0,1.4,0.1c0.4,0.1,0.7,0.2,0.9,0.4c0.2,0.1,0.4,0.3,0.5,0.5c0.1,0.2,0.2,0.4,0.2,0.6v30.2
			c0,0.2-0.1,0.4-0.2,0.6s-0.3,0.4-0.5,0.5c-0.2,0.2-0.6,0.3-0.9,0.4c-0.4,0.1-0.9,0.1-1.4,0.1c-0.5,0-1,0-1.4-0.1
			c-0.4-0.1-0.7-0.2-1-0.3c-0.3-0.1-0.4-0.3-0.6-0.5C67-11.8,67-12,67-12.2v-12.1H23l6.7,11.2c0.3,0.6,0.5,1,0.5,1.4
			c0.1,0.3,0,0.6-0.2,0.8c-0.2,0.2-0.5,0.4-1,0.4c-0.4,0.1-1,0.1-1.7,0.1c-0.5,0-0.9,0-1.3-0.1c-0.4,0-0.7-0.1-0.9-0.2
			c-0.2-0.1-0.4-0.2-0.6-0.4c-0.2-0.2-0.4-0.4-0.5-0.6L15.4-25c-0.1-0.1-0.2-0.3-0.2-0.4c-0.1-0.2-0.1-0.4-0.2-0.7
			c-0.1-0.3-0.1-0.6-0.1-0.9c0-0.4,0-0.8,0-1.3c0-0.7,0-1.3,0.1-1.8c0.1-0.5,0.1-0.8,0.2-1.1c0.1-0.3,0.2-0.4,0.4-0.5
			c0.2-0.1,0.3-0.1,0.5-0.1H67v-10.5c0-0.2,0.1-0.5,0.2-0.7c0.1-0.2,0.3-0.4,0.6-0.5c0.3-0.1,0.6-0.2,1-0.3S69.6-44,70.1-44z"/>
	</g>
	<g class="st7">
		<path class="st0" d="M126.5,356.1c0,2.7-0.5,5.1-1.5,7.2c-1,2.1-2.4,3.9-4.2,5.4c-1.8,1.5-3.9,2.6-6.3,3.3c-2.4,0.7-5,1.1-7.8,1.1
			c-1.9,0-3.7-0.2-5.4-0.5s-3.1-0.7-4.4-1.2c-1.3-0.5-2.4-1-3.3-1.5c-0.9-0.5-1.5-0.9-1.8-1.3s-0.6-0.8-0.8-1.4
			c-0.2-0.6-0.2-1.3-0.2-2.2c0-0.7,0-1.2,0.1-1.6c0.1-0.4,0.1-0.8,0.3-1.1c0.1-0.3,0.3-0.5,0.4-0.6c0.2-0.1,0.4-0.2,0.6-0.2
			c0.4,0,1,0.3,1.8,0.8c0.8,0.5,1.7,1.1,2.9,1.7c1.2,0.6,2.6,1.2,4.3,1.7c1.7,0.5,3.6,0.8,5.8,0.8c1.7,0,3.2-0.2,4.6-0.7
			c1.4-0.4,2.6-1.1,3.6-1.9c1-0.8,1.8-1.8,2.3-3c0.5-1.2,0.8-2.5,0.8-4.1c0-1.6-0.4-3-1.1-4.2c-0.7-1.2-1.7-2.2-3-3.1
			c-1.2-0.9-2.6-1.7-4.2-2.4c-1.6-0.7-3.2-1.5-4.8-2.2c-1.6-0.8-3.2-1.6-4.8-2.5c-1.6-0.9-2.9-2-4.2-3.3s-2.2-2.7-3-4.4
			c-0.8-1.7-1.1-3.7-1.1-6.1c0-2.4,0.4-4.6,1.3-6.5c0.9-1.9,2.1-3.5,3.7-4.8c1.6-1.3,3.4-2.3,5.6-2.9c2.2-0.7,4.5-1,7-1
			c1.3,0,2.6,0.1,3.9,0.3s2.5,0.5,3.7,0.9c1.1,0.4,2.2,0.8,3.1,1.3c0.9,0.5,1.5,0.8,1.8,1.1c0.3,0.3,0.5,0.5,0.6,0.7
			c0.1,0.2,0.2,0.4,0.2,0.6c0.1,0.3,0.1,0.6,0.1,0.9c0,0.4,0,0.8,0,1.4c0,0.5,0,1-0.1,1.4c0,0.4-0.1,0.8-0.2,1.1s-0.2,0.5-0.4,0.6
			c-0.2,0.1-0.4,0.2-0.6,0.2c-0.3,0-0.8-0.2-1.5-0.6c-0.7-0.4-1.6-0.9-2.6-1.4c-1-0.5-2.2-1-3.6-1.4c-1.4-0.4-2.9-0.6-4.7-0.6
			c-1.6,0-3,0.2-4.2,0.6c-1.2,0.4-2.2,1-3,1.7c-0.8,0.7-1.4,1.6-1.7,2.5c-0.4,1-0.6,2-0.6,3.1c0,1.6,0.4,3,1.1,4.2
			c0.7,1.2,1.7,2.2,3,3.1c1.2,0.9,2.6,1.7,4.2,2.5c1.6,0.7,3.2,1.5,4.8,2.3c1.6,0.8,3.2,1.6,4.8,2.5c1.6,0.9,3,2,4.2,3.2
			c1.2,1.2,2.2,2.7,3,4.4C126.1,351.8,126.5,353.8,126.5,356.1z"/>
	</g>
	<g class="st7">
		<path class="st0" d="M574.6,346.4c0,1.2-0.4,2-1.1,2.4c-0.7,0.4-1.8,0.7-3.1,0.7h-50c-1.4,0-2.5-0.2-3.2-0.7s-1.1-1.3-1.1-2.4
			s0.4-1.9,1.1-2.4s1.8-0.7,3.2-0.7h50c0.6,0,1.2,0,1.7,0.1c0.5,0.1,1,0.3,1.3,0.5c0.4,0.3,0.6,0.6,0.8,1
			C574.5,345.4,574.6,345.8,574.6,346.4z"/>
	</g>
</g>
</svg>
