<?xml version="1.0" encoding="utf-8"?>
<!-- Generator: Adobe Illustrator 27.8.0, SVG Export Plug-In . SVG Version: 6.00 Build 0)  -->
<svg version="1.1"
	 id="svg8" xmlns:svg="http://www.w3.org/2000/svg" xmlns:rdf="http://www.w3.org/1999/02/22-rdf-syntax-ns#" xmlns:sodipodi="http://sodipodi.sourceforge.net/DTD/sodipodi-0.dtd" xmlns:dc="http://purl.org/dc/elements/1.1/" xmlns:inkscape="http://www.inkscape.org/namespaces/inkscape" xmlns:cc="http://creativecommons.org/ns#" inkscape:export-xdpi="93" inkscape:export-ydpi="93" inkscape:version="0.92.4 (5da689c313, 2019-01-14)"
	 xmlns="http://www.w3.org/2000/svg" xmlns:xlink="http://www.w3.org/1999/xlink" x="0px" y="0px" viewBox="0 0 482 1081"
	 style="enable-background:new 0 0 482 1081;" xml:space="preserve">
<style type="text/css">
	.st0{fill:#FFFFFF;}
	.st1{fill:#1A1A1A;}
	.st2{opacity:0.99;fill:#808080;enable-background:new    ;}
	.st3{opacity:0.99;fill:#CCCCCC;enable-background:new    ;}
	.st4{opacity:0.99;fill:#FFFFFF;enable-background:new    ;}
	.st5{fill:#CCCCCC;}
	.st6{enable-background:new    ;}
	.st7{opacity:0.99;fill:#F2F2F2;enable-background:new    ;}
</style>
<defs>
	
		<inkscape:perspective  id="perspective876" inkscape:persp3d-origin="105 : 98.999994 : 1" inkscape:vp_x="0 : 148.49999 : 1" inkscape:vp_y="0 : 999.99994 : 0" inkscape:vp_z="210.00001 : 148.49999 : 1" sodipodi:type="inkscape:persp3d">
		</inkscape:perspective>
</defs>
<sodipodi:namedview  bordercolor="#666666" borderopacity="1.0" id="base" inkscape:current-layer="layer1" inkscape:cx="571.64277" inkscape:cy="3902.0738" inkscape:document-units="mm" inkscape:lockguides="true" inkscape:pageopacity="0" inkscape:pageshadow="2" inkscape:window-height="987" inkscape:window-maximized="1" inkscape:window-width="1680" inkscape:window-x="1912" inkscape:window-y="-8" inkscape:zoom="0.25000001" pagecolor="#323232" showgrid="false" showguides="true" width="500mm">
	<inkscape:grid  id="grid3786" type="xygrid"></inkscape:grid>
</sodipodi:namedview>
<g id="layer1" transform="translate(0.31582593,712.81107)" inkscape:groupmode="layer" inkscape:label="Ebene 1">
	<rect id="rect815" x="-0.3" y="-427.5" width="482.5" height="648.5"/>
	<rect id="rect821" x="113.8" y="115.4" class="st0" width="251.1" height="86.4"/>
	<path id="rect825" class="st1" d="M130.2,120.3h50.3c8.8,0,15.9,7.1,15.9,15.9v44.1c0,8.8-7.1,15.9-15.9,15.9h-50.3
		c-8.8,0-15.9-7.1-15.9-15.9v-44.1C114.3,127.4,121.5,120.3,130.2,120.3z"/>
	<path id="rect872" class="st1" d="M298,120.3h50.3c8.8,0,15.9,7.1,15.9,15.9v44.1c0,8.8-7.1,15.9-15.9,15.9H298
		c-8.8,0-15.9-7.1-15.9-15.9v-44.1C282.1,127.4,289.2,120.3,298,120.3z"/>
	<path id="rect874" class="st1" d="M212,120.3h54.4c7.6,0,13.9,6.2,13.9,13.9v48.2c0,7.6-6.2,13.9-13.9,13.9H212
		c-7.6,0-13.9-6.2-13.9-13.9v-48.2C198.2,126.5,204.4,120.3,212,120.3z"/>
	<rect id="rect947" x="150.8" y="161.6" class="st2" width="9.1" height="158.4"/>
	<rect id="rect949" x="235.1" y="161.6" class="st2" width="9.1" height="158.4"/>
	<rect id="rect951" x="318.5" y="161.6" class="st2" width="9.1" height="158.4"/>
	<g id="flowRoot969" transform="translate(0,-45.266128)">
	</g>
	<ellipse id="path1456" class="st3" cx="67.3" cy="-292.2" rx="44" ry="43.1"/>
	<ellipse id="ellipse1458" class="st3" cx="410.8" cy="-292.2" rx="44" ry="43.1"/>
	<ellipse id="path1460" class="st4" cx="67.3" cy="-292.5" rx="39.7" ry="38.9"/>
	<ellipse id="ellipse1464" class="st4" cx="410.6" cy="-292.5" rx="39.7" ry="38.9"/>
	<g id="flowRoot1466" transform="translate(0,-45.266128)">
	</g>
	<g id="flowRoot1529" transform="translate(0,-45.266128)">
	</g>
	<path id="path31-1" inkscape:connector-curvature="0" class="st0" d="M136.8-376.8c3-0.1,3.3-0.1,3.9-0.4c0.3-0.2,0.8-0.6,1-0.9
		c0.3-0.5,0.4-0.9,0.4-7l0.1-6.5l6.4,0l6.4,0v8.1c0,8.9-0.1,9.7-1,12.1c-1.2,3.1-3,4.5-6.6,5.3c-1,0.2-2.1,0.3-5.8,0.3
		c-2.5,0-5.3-0.1-6.2-0.2l-1.6-0.1l0-5.3l0-5.3L136.8-376.8L136.8-376.8z M197.5-358.8c54.4,0,67.8,0.1,65.5,0.3l-0.3,0l0.3,0.1
		c0.3,0.1,0.2,0.2-0.3,0.2c-0.4,0-0.2,0.1,0.5,0.2l1.1,0.1l-1.1,0c-0.6,0-1,0.1-0.8,0.1c0.3,0.1,0.3,0.3,0.3,1.5
		c0,1.4,0,1.4,0.5,1.5c0.3,0.1,0.3,0.1-0.3,0.1c-0.4,0-0.7,0.1-0.7,0.2c0,0.1-21.6,0.2-64.3,0.2h-64.3v-2.3v-2.3L197.5-358.8z
		 M148.5-408.4h6.4v5.2v5.2h-6.4h-6.4v-5.2v-5.2H148.5z M161.5-389.1c0.5-2.9,1.3-5.6,2.5-7.9c0.4-0.8,0.8-1.6,0.9-1.6
		c0.1,0,0.4-0.5,0.7-1c0.7-1,2.2-2.9,2.5-3.1c0.1-0.1,0.2-0.2,0.2-0.3c0-0.2,1.6-1.7,2.9-2.6c1.3-1,2.4-1.5,4.8-2.4
		c2.8-1,4.4-1.3,7.7-1.2c2.4,0.1,3,0.2,4.5,0.6c1,0.3,2.1,0.7,2.6,0.9c0.5,0.2,0.9,0.4,1,0.4c0.1,0,0.8,0.4,1.6,0.8
		c3.1,1.8,7.3,6.5,8.9,10.1c2.5,5.6,2.9,11.1,0.9,16.3c-0.8,2.2-1.4,3.4-2.3,4.9c-1.1,1.8-1.2,1.9-3.8,4.5c-3,3-5.2,4.2-9.1,5.3
		c-2,0.5-6,0.8-8.1,0.4c-2.8-0.4-6.5-2-8.7-3.7c-1.2-0.9-2.8-2.3-2.8-2.4c0,0-0.4-0.5-0.9-1c-2.3-2.4-4.7-7-5.6-10.8
		C161.5-384.2,161.3-388,161.5-389.1L161.5-389.1z M173.8-383.7c0.6,2.4,1.9,4.5,3.8,6.3c1.9,1.8,5,2.5,7.7,1.7
		c2.9-0.9,5.8-4.3,6.8-8c0.5-2.1,0.5-5.2-0.1-7.2c-0.9-2.9-2.4-5.1-4.5-6.7c-1-0.7-1.4-0.9-2.4-1.1c-2.2-0.4-4.4-0.2-6,0.6
		c-1.4,0.7-3.1,2.6-4.1,4.6C173.3-390.3,172.9-386.8,173.8-383.7L173.8-383.7z M209.9-408.3c0.1,0,3-0.1,6.4,0l6.2,0l0,5.7
		c0,5.4,0,5.8,0.4,6.7c0.9,2.4,3.9,3.8,6.4,2.9c1.3-0.4,2.2-1.2,2.9-2.5l0.6-1.1l0.1-6l0.1-6h6.4h6.4l-0.1,6.7
		c-0.1,6.3-0.1,6.8-0.4,8.1c-0.7,2.6-1.9,4.9-3.3,6.6c-0.4,0.4-0.7,0.9-0.7,1c0,0.2-1.6,1.7-3.1,2.7c-1.2,0.9-3,1.8-3.8,2
		c-0.3,0.1-1.2,0.3-2,0.6c-1.4,0.4-1.7,0.5-4.6,0.5c-2.9,0-3.2,0-4.9-0.5c-2.6-0.7-3.4-1.1-5.1-2.2c-1.9-1.3-3.6-2.9-4.9-4.9
		c-1.9-2.8-2.7-4.9-3.1-8.2C209.6-398,209.6-408.2,209.9-408.3L209.9-408.3z M227.8-376.6h10.5v5.4v5.4h-10.5h-10.5v-5.4v-5.4H227.8
		z M245.8-416.6c0.1,0,0.2-0.3,0.2-0.7c0-0.7,0-0.7,0.8-0.8c0.4-0.1,18.2-0.1,39.6-0.1l38.7,0l-0.1,2.3l-0.1,2.3h-39.4
		c-21.7,0-39.5,0-39.7-0.1c-0.2-0.1-0.3-0.4-0.3-1.5C245.6-416,245.7-416.6,245.8-416.6L245.8-416.6z M263.5-390.7h13.4v5.3v5.3
		h-13.4h-13.4v-5.3v-5.3H263.5z M287.4-408.4h6.4v5.2v5.2h-6.4H281v-5.2v-5.2H287.4z M287.4-392.4h6.4v13.5v13.5h-6.4H281v-13.5
		v-13.5L287.4-392.4z M313.1-408.4h13.5v5.2v5.2h-13.5h-13.5v-5.2v-5.2H313.1z M301.8-391.6c0.1-0.1,2.9-0.1,6.3-0.1l6.2,0l0.1,6.2
		c0.1,8.7-0.3,8.2,6.3,8.3l4.1,0.1v5.4v5.4l-1.5,0.2c-2.3,0.3-9.7,0.2-11.7-0.1c-3.4-0.5-5.6-1.6-7.1-3.4c-1.5-1.8-2.3-3.7-2.6-6.7
		C301.7-378.1,301.6-391.5,301.8-391.6L301.8-391.6z M334.1-413.5c0.3-1.1,1-2.2,1.7-2.9c2.9-2.6,6.4-2.8,9.3-0.7
		c1.4,1,1.7,1.4,2.3,2.6c0.4,0.9,0.5,1.2,0.5,2.8c0,1.6-0.1,1.9-0.5,2.9c-1,2.1-3.4,3.7-5.8,3.9c-2.2,0.2-4-0.5-5.7-2.2
		C334.1-408.6,333.4-411.2,334.1-413.5L334.1-413.5z M335.3-409c0.6,1.4,2.4,2.7,4.3,3.2c1.9,0.5,3.3,0.1,5.4-1.5
		c0.5-0.4,0.9-0.9,1.3-1.7c0.5-1,0.6-1.3,0.6-2.6c0-1.4,0-1.6-0.6-2.7c-0.5-1-0.8-1.3-1.6-1.9c-0.6-0.4-1.4-0.9-1.9-1
		c-2.9-1-6.5,0.6-7.6,3.5C334.7-412.7,334.8-410.4,335.3-409L335.3-409z M340.1-415.7c1.3,0,2.6,0.1,2.8,0.2
		c1.1,0.4,1.5,2.4,0.8,3.3c-0.2,0.2-0.6,0.5-0.9,0.7l-0.6,0.2l0.6,0.7c0.3,0.4,0.8,1.1,1.1,1.6s0.6,1,0.7,1c0.4,0.2,0.1,0.4-0.6,0.4
		l-0.7,0l-1-1.6c-1.1-1.7-1.4-1.9-2.6-1.9h-0.8v1.8v1.8l-0.5-0.1l-0.5-0.1l0-4l0-4L340.1-415.7z M340.4-412.3c1.3,0,1.6-0.1,2-0.4
		c1-0.7,0.4-1.9-1-2.1c-0.6-0.1-2.2,0-2.5,0.1c0,0,0,0.6,0,1.2v1.2L340.4-412.3z"/>
	<rect id="rect79" x="53.2" y="20.7" class="st0" width="374.9" height="85.7"/>
	<rect id="rect81" x="58.6" y="26.1" width="364.2" height="75"/>
	<circle id="path83" class="st5" cx="96.1" cy="63.5" r="37.5"/>
	<circle id="circle85" class="st5" cx="385.3" cy="63.5" r="37.5"/>
	<circle id="circle87" class="st5" cx="192.5" cy="63.5" r="37.5"/>
	<circle id="circle89" class="st5" cx="288.9" cy="63.5" r="37.5"/>
	<circle id="path91" class="st0" cx="96.1" cy="63.5" r="32.1"/>
	<g class="st6">
		<path d="M318.7,329.5c0,0.3,0,0.7-0.1,0.9c0,0.3-0.1,0.5-0.2,0.7c-0.1,0.2-0.2,0.3-0.3,0.4c-0.1,0.1-0.2,0.1-0.4,0.1
			c-0.2,0-0.6-0.2-1.1-0.5c-0.5-0.3-1.2-0.7-2-1.1c-0.9-0.4-1.9-0.8-3.1-1.1c-1.2-0.3-2.6-0.5-4.2-0.5c-1.9,0-3.7,0.4-5.2,1.1
			c-1.5,0.7-2.9,1.7-3.9,2.9s-1.9,2.7-2.5,4.5c-0.6,1.7-0.9,3.6-0.9,5.6c0,2.3,0.3,4.3,0.9,6c0.6,1.7,1.5,3.2,2.6,4.4
			c1.1,1.2,2.4,2.1,4,2.7s3.2,0.9,5.1,0.9c1.1,0,2.2-0.1,3.3-0.4c1.1-0.3,2.2-0.7,3.1-1.2v-10.3h-8.2c-0.3,0-0.5-0.2-0.7-0.5
			c-0.2-0.3-0.2-0.8-0.2-1.4c0-0.3,0-0.6,0.1-0.9c0-0.2,0.1-0.4,0.2-0.6s0.2-0.3,0.3-0.3c0.1-0.1,0.2-0.1,0.4-0.1H317
			c0.2,0,0.4,0,0.6,0.1c0.2,0.1,0.4,0.2,0.5,0.3s0.3,0.3,0.4,0.6s0.1,0.5,0.1,0.9v13.5c0,0.5-0.1,0.9-0.2,1.2
			c-0.2,0.3-0.5,0.7-1,0.9c-0.5,0.3-1.2,0.5-2,0.9s-1.7,0.6-2.6,0.8c-0.9,0.2-1.8,0.4-2.7,0.5c-0.9,0.1-1.8,0.2-2.7,0.2
			c-2.7,0-5.2-0.4-7.3-1.3c-2.1-0.8-4-2.1-5.4-3.6c-1.5-1.6-2.6-3.4-3.4-5.6c-0.8-2.2-1.2-4.6-1.2-7.3c0-2.8,0.4-5.3,1.3-7.6
			s2-4.2,3.6-5.8c1.5-1.6,3.4-2.8,5.5-3.7c2.2-0.9,4.5-1.3,7.2-1.3c1.3,0,2.6,0.1,3.8,0.4c1.2,0.2,2.2,0.5,3.2,0.8
			c0.9,0.3,1.7,0.7,2.3,1c0.6,0.4,1.1,0.7,1.3,0.9c0.2,0.2,0.4,0.5,0.5,0.8C318.7,328.5,318.7,328.9,318.7,329.5z"/>
		<path d="M354.1,358.1c0,0.4-0.1,0.7-0.2,0.9c-0.1,0.3-0.3,0.5-0.5,0.6c-0.2,0.2-0.4,0.3-0.7,0.4c-0.2,0.1-0.5,0.1-0.7,0.1h-1.6
			c-0.5,0-0.9-0.1-1.3-0.2c-0.4-0.1-0.7-0.3-1-0.5c-0.3-0.3-0.7-0.6-1-1.1c-0.3-0.5-0.7-1-1-1.7l-10.8-20.1c-0.6-1-1.1-2.1-1.7-3.3
			s-1.1-2.2-1.6-3.3H332c0,1.3,0.1,2.6,0.1,4s0,2.7,0,4.1v21.3c0,0.1,0,0.2-0.1,0.4c-0.1,0.1-0.2,0.2-0.4,0.3
			c-0.2,0.1-0.4,0.1-0.7,0.2c-0.3,0-0.7,0.1-1.1,0.1s-0.8,0-1.1-0.1c-0.3,0-0.5-0.1-0.7-0.2c-0.2-0.1-0.3-0.2-0.4-0.3
			s-0.1-0.2-0.1-0.4v-32.6c0-0.7,0.2-1.2,0.6-1.6s0.9-0.5,1.4-0.5h2.3c0.5,0,1,0,1.4,0.1s0.7,0.2,1,0.5s0.6,0.5,0.8,0.9
			s0.6,0.8,0.9,1.4l8.3,15.5c0.5,0.9,1,1.9,1.5,2.8c0.5,0.9,0.9,1.8,1.4,2.7c0.4,0.9,0.9,1.7,1.3,2.6s0.9,1.7,1.3,2.6h0
			c0-1.4-0.1-2.9-0.1-4.5c0-1.6,0-3.1,0-4.5v-19.2c0-0.1,0-0.2,0.1-0.4c0.1-0.1,0.2-0.2,0.4-0.3c0.2-0.1,0.4-0.1,0.7-0.2
			c0.3,0,0.7-0.1,1.2-0.1c0.4,0,0.8,0,1.1,0.1s0.5,0.1,0.7,0.2c0.2,0.1,0.3,0.2,0.4,0.3c0.1,0.1,0.1,0.2,0.1,0.4V358.1z"/>
		<path d="M390.7,341.9c0,3.1-0.4,5.7-1.2,8s-1.9,4.2-3.4,5.7c-1.5,1.5-3.3,2.6-5.5,3.4c-2.2,0.7-4.8,1.1-7.8,1.1h-7.5
			c-0.4,0-0.8-0.1-1.2-0.4c-0.4-0.3-0.6-0.8-0.6-1.5v-31.5c0-0.7,0.2-1.2,0.6-1.5c0.4-0.3,0.8-0.4,1.2-0.4h8c3.1,0,5.6,0.4,7.8,1.2
			c2.1,0.8,3.9,1.9,5.3,3.4c1.4,1.5,2.5,3.3,3.2,5.4C390.3,336.8,390.7,339.2,390.7,341.9z M385.7,342.1c0-1.9-0.2-3.7-0.7-5.3
			c-0.5-1.6-1.2-3.1-2.2-4.3c-1-1.2-2.3-2.1-3.8-2.8c-1.5-0.7-3.5-1-6-1h-4.8v27.5h4.8c2.3,0,4.2-0.3,5.7-0.8
			c1.5-0.6,2.8-1.4,3.9-2.6c1-1.2,1.8-2.6,2.3-4.4S385.7,344.5,385.7,342.1z"/>
	</g>
	<g class="st6">
		<path d="M80.1,349.2c0,1.7-0.3,3.1-0.9,4.4c-0.6,1.3-1.5,2.4-2.5,3.3s-2.4,1.6-3.8,2c-1.5,0.5-3,0.7-4.7,0.7
			c-1.2,0-2.3-0.1-3.3-0.3c-1-0.2-1.9-0.4-2.7-0.7s-1.5-0.6-2-0.9s-0.9-0.6-1.1-0.8c-0.2-0.2-0.4-0.5-0.5-0.8
			c-0.1-0.3-0.2-0.8-0.2-1.4c0-0.4,0-0.7,0.1-1c0-0.3,0.1-0.5,0.2-0.6c0.1-0.2,0.2-0.3,0.3-0.3c0.1-0.1,0.2-0.1,0.4-0.1
			c0.3,0,0.6,0.2,1.1,0.5s1.1,0.6,1.8,1c0.7,0.4,1.6,0.7,2.6,1c1,0.3,2.2,0.5,3.6,0.5c1,0,2-0.1,2.8-0.4c0.8-0.3,1.6-0.7,2.2-1.2
			s1.1-1.1,1.4-1.8c0.3-0.7,0.5-1.6,0.5-2.5c0-1-0.2-1.9-0.7-2.6c-0.5-0.7-1.1-1.3-1.8-1.9c-0.7-0.5-1.6-1-2.6-1.5
			c-1-0.4-1.9-0.9-2.9-1.4c-1-0.5-2-1-2.9-1.5c-0.9-0.6-1.8-1.2-2.5-2c-0.7-0.8-1.4-1.7-1.8-2.7c-0.5-1-0.7-2.3-0.7-3.7
			c0-1.5,0.3-2.8,0.8-3.9c0.5-1.2,1.3-2.1,2.2-2.9s2.1-1.4,3.4-1.8c1.3-0.4,2.7-0.6,4.3-0.6c0.8,0,1.6,0.1,2.4,0.2
			c0.8,0.1,1.5,0.3,2.2,0.5c0.7,0.2,1.3,0.5,1.9,0.8c0.5,0.3,0.9,0.5,1.1,0.7c0.2,0.2,0.3,0.3,0.3,0.4c0.1,0.1,0.1,0.2,0.1,0.4
			s0.1,0.3,0.1,0.6c0,0.2,0,0.5,0,0.8c0,0.3,0,0.6,0,0.9s-0.1,0.5-0.1,0.6c-0.1,0.2-0.1,0.3-0.2,0.4c-0.1,0.1-0.2,0.1-0.3,0.1
			c-0.2,0-0.5-0.1-0.9-0.4c-0.4-0.3-1-0.5-1.6-0.9c-0.6-0.3-1.4-0.6-2.2-0.9c-0.8-0.3-1.8-0.4-2.9-0.4c-1,0-1.8,0.1-2.6,0.4
			s-1.3,0.6-1.8,1.1c-0.5,0.4-0.8,1-1.1,1.6c-0.2,0.6-0.4,1.2-0.4,1.9c0,1,0.2,1.8,0.7,2.5c0.5,0.7,1.1,1.3,1.8,1.9
			c0.8,0.5,1.6,1,2.6,1.5s1.9,0.9,2.9,1.4c1,0.5,2,1,2.9,1.5c1,0.6,1.8,1.2,2.6,2c0.8,0.8,1.4,1.6,1.8,2.7S80.1,347.8,80.1,349.2z"
			/>
		<path d="M91.3,325.6c0,1.1-0.2,1.8-0.6,2.2c-0.4,0.4-1.1,0.6-2.2,0.6c-1.1,0-1.8-0.2-2.2-0.6c-0.4-0.4-0.6-1.1-0.6-2.1
			c0-1.1,0.2-1.8,0.6-2.2c0.4-0.4,1.1-0.6,2.2-0.6c1.1,0,1.8,0.2,2.2,0.6C91.1,323.9,91.3,324.6,91.3,325.6z M90.8,358.5
			c0,0.1,0,0.3-0.1,0.4c-0.1,0.1-0.2,0.2-0.4,0.3c-0.2,0.1-0.4,0.1-0.7,0.2c-0.3,0-0.7,0.1-1.1,0.1c-0.4,0-0.8,0-1.1-0.1
			c-0.3,0-0.5-0.1-0.7-0.2s-0.3-0.2-0.4-0.3c-0.1-0.1-0.1-0.2-0.1-0.4v-24.6c0-0.1,0-0.2,0.1-0.4c0.1-0.1,0.2-0.2,0.4-0.3
			s0.4-0.1,0.7-0.2c0.3,0,0.7-0.1,1.1-0.1c0.5,0,0.8,0,1.1,0.1c0.3,0,0.5,0.1,0.7,0.2c0.2,0.1,0.3,0.2,0.4,0.3
			c0.1,0.1,0.1,0.2,0.1,0.4V358.5z"/>
		<path d="M119.6,335c0,0.6-0.1,1.1-0.3,1.4c-0.2,0.3-0.4,0.4-0.7,0.4h-3.5c0.6,0.7,1.1,1.4,1.3,2.2c0.3,0.8,0.4,1.6,0.4,2.5
			c0,1.4-0.2,2.7-0.7,3.8c-0.5,1.1-1.1,2-2,2.8s-1.9,1.3-3,1.7s-2.5,0.6-3.9,0.6c-1,0-2-0.1-2.9-0.4s-1.6-0.6-2.1-1
			c-0.3,0.3-0.6,0.7-0.8,1.1c-0.2,0.4-0.3,0.9-0.3,1.4c0,0.6,0.3,1.2,0.9,1.6c0.6,0.4,1.4,0.6,2.4,0.7l6.4,0.3
			c1.2,0,2.3,0.2,3.4,0.5c1,0.3,1.9,0.7,2.6,1.3s1.3,1.2,1.7,2c0.4,0.8,0.6,1.8,0.6,2.8c0,1.1-0.2,2.2-0.7,3.2
			c-0.5,1-1.2,1.9-2.2,2.7c-1,0.8-2.2,1.4-3.7,1.8c-1.5,0.4-3.3,0.7-5.3,0.7c-2,0-3.7-0.2-5.1-0.5c-1.4-0.3-2.5-0.8-3.4-1.4
			c-0.9-0.6-1.5-1.3-1.9-2.1c-0.4-0.8-0.6-1.7-0.6-2.6c0-0.6,0.1-1.2,0.2-1.7c0.1-0.6,0.4-1.1,0.7-1.6s0.7-1,1.1-1.5
			c0.4-0.5,1-0.9,1.5-1.4c-0.9-0.5-1.6-1-2-1.7c-0.4-0.7-0.6-1.4-0.6-2.2c0-1.1,0.2-2.1,0.7-3c0.5-0.9,1-1.7,1.7-2.3
			c-0.6-0.7-1-1.4-1.3-2.3c-0.3-0.8-0.5-1.9-0.5-3.1c0-1.4,0.2-2.7,0.7-3.8s1.1-2,2-2.8s1.8-1.4,3-1.8c1.2-0.4,2.5-0.6,3.8-0.6
			c0.7,0,1.4,0,2.1,0.1s1.3,0.2,1.8,0.3h7.4c0.3,0,0.5,0.2,0.7,0.5S119.6,334.4,119.6,335z M114.8,360.9c0-1.1-0.4-1.9-1.3-2.4
			c-0.9-0.6-2-0.9-3.5-0.9l-6.4-0.2c-0.6,0.5-1.1,0.9-1.4,1.3s-0.7,0.8-0.9,1.2c-0.2,0.4-0.4,0.7-0.5,1.1s-0.1,0.7-0.1,1.1
			c0,1.2,0.6,2.1,1.8,2.7c1.2,0.6,2.9,0.9,5,0.9c1.4,0,2.5-0.1,3.4-0.4c0.9-0.3,1.7-0.6,2.2-1.1s1-0.9,1.2-1.5
			C114.7,362.2,114.8,361.6,114.8,360.9z M112.6,341.5c0-1.7-0.5-3-1.4-3.9c-0.9-0.9-2.2-1.4-3.9-1.4c-0.9,0-1.6,0.1-2.3,0.4
			c-0.6,0.3-1.2,0.7-1.6,1.2c-0.4,0.5-0.7,1.1-1,1.8c-0.2,0.7-0.3,1.4-0.3,2.1c0,1.6,0.5,2.9,1.4,3.8c0.9,0.9,2.2,1.4,3.9,1.4
			c0.9,0,1.7-0.1,2.3-0.4c0.7-0.3,1.2-0.7,1.6-1.2c0.4-0.5,0.7-1.1,1-1.7S112.6,342.2,112.6,341.5z"/>
		<path d="M146.6,358.5c0,0.1,0,0.3-0.1,0.4c-0.1,0.1-0.2,0.2-0.4,0.3c-0.2,0.1-0.4,0.1-0.7,0.2c-0.3,0-0.7,0.1-1.1,0.1
			c-0.5,0-0.8,0-1.1-0.1c-0.3,0-0.5-0.1-0.7-0.2s-0.3-0.2-0.4-0.3c-0.1-0.1-0.1-0.2-0.1-0.4v-14.4c0-1.4-0.1-2.5-0.3-3.4
			c-0.2-0.9-0.5-1.6-1-2.2c-0.4-0.6-1-1.1-1.6-1.4c-0.7-0.3-1.4-0.5-2.3-0.5c-1.1,0-2.3,0.4-3.4,1.2c-1.1,0.8-2.3,2-3.5,3.5v17.2
			c0,0.1,0,0.3-0.1,0.4c-0.1,0.1-0.2,0.2-0.4,0.3c-0.2,0.1-0.4,0.1-0.7,0.2c-0.3,0-0.7,0.1-1.1,0.1c-0.4,0-0.8,0-1.1-0.1
			c-0.3,0-0.5-0.1-0.7-0.2s-0.3-0.2-0.4-0.3c-0.1-0.1-0.1-0.2-0.1-0.4v-24.6c0-0.1,0-0.3,0.1-0.4c0.1-0.1,0.2-0.2,0.3-0.3
			c0.2-0.1,0.4-0.1,0.6-0.2s0.6,0,1,0c0.4,0,0.7,0,1,0c0.3,0,0.5,0.1,0.6,0.2s0.2,0.2,0.3,0.3c0.1,0.1,0.1,0.2,0.1,0.4v3.2
			c1.4-1.5,2.8-2.7,4.1-3.4c1.4-0.7,2.8-1.1,4.2-1.1c1.6,0,3,0.3,4.1,0.8c1.1,0.6,2,1.3,2.7,2.2s1.2,2,1.5,3.3
			c0.3,1.2,0.5,2.7,0.5,4.5V358.5z"/>
		<path d="M173.3,358.5c0,0.2-0.1,0.4-0.2,0.5c-0.1,0.1-0.3,0.2-0.6,0.2c-0.3,0.1-0.6,0.1-1.1,0.1c-0.5,0-0.9,0-1.1-0.1
			s-0.5-0.1-0.6-0.2c-0.1-0.1-0.2-0.3-0.2-0.5V356c-1.1,1.1-2.3,2-3.6,2.7c-1.3,0.6-2.7,1-4.2,1c-1.3,0-2.5-0.2-3.5-0.5
			c-1-0.3-1.9-0.8-2.7-1.5c-0.7-0.6-1.3-1.4-1.7-2.3c-0.4-0.9-0.6-2-0.6-3.2c0-1.4,0.3-2.6,0.8-3.6c0.6-1,1.4-1.9,2.4-2.5
			c1.1-0.7,2.3-1.2,3.9-1.5c1.5-0.3,3.2-0.5,5.2-0.5h3.4v-1.9c0-0.9-0.1-1.8-0.3-2.5c-0.2-0.7-0.5-1.3-1-1.8c-0.4-0.5-1-0.8-1.7-1.1
			c-0.7-0.2-1.6-0.4-2.6-0.4c-1.1,0-2.1,0.1-3,0.4c-0.9,0.3-1.7,0.6-2.3,0.9c-0.7,0.3-1.2,0.6-1.7,0.9c-0.4,0.3-0.8,0.4-1,0.4
			c-0.1,0-0.3,0-0.4-0.1c-0.1-0.1-0.2-0.2-0.3-0.3c-0.1-0.1-0.1-0.3-0.2-0.6c0-0.2-0.1-0.5-0.1-0.8c0-0.5,0-0.8,0.1-1.1
			c0.1-0.3,0.2-0.5,0.5-0.8c0.2-0.2,0.7-0.5,1.3-0.8c0.6-0.3,1.3-0.6,2.1-0.9s1.6-0.5,2.6-0.7s1.9-0.3,2.8-0.3
			c1.8,0,3.3,0.2,4.5,0.6s2.2,1,3,1.8c0.8,0.8,1.3,1.7,1.7,2.9s0.5,2.5,0.5,4V358.5z M168.8,347.3h-3.8c-1.2,0-2.3,0.1-3.2,0.3
			c-0.9,0.2-1.7,0.5-2.3,0.9c-0.6,0.4-1,0.9-1.3,1.5c-0.3,0.6-0.4,1.2-0.4,2c0,1.3,0.4,2.3,1.2,3s1.9,1.1,3.4,1.1
			c1.2,0,2.3-0.3,3.3-0.9c1-0.6,2.1-1.5,3.2-2.8V347.3z"/>
		<path d="M186,358.5c0,0.1,0,0.3-0.1,0.4c-0.1,0.1-0.2,0.2-0.4,0.3c-0.2,0.1-0.4,0.1-0.7,0.2c-0.3,0-0.7,0.1-1.1,0.1
			c-0.4,0-0.8,0-1.1-0.1c-0.3,0-0.5-0.1-0.7-0.2s-0.3-0.2-0.4-0.3c-0.1-0.1-0.1-0.2-0.1-0.4V322c0-0.1,0-0.3,0.1-0.4
			c0.1-0.1,0.2-0.2,0.4-0.3c0.2-0.1,0.4-0.1,0.7-0.2c0.3,0,0.7-0.1,1.1-0.1c0.5,0,0.8,0,1.1,0.1c0.3,0,0.5,0.1,0.7,0.2
			c0.2,0.1,0.3,0.2,0.4,0.3c0.1,0.1,0.1,0.2,0.1,0.4V358.5z"/>
	</g>
	<g class="st6">
		<path d="M236.8,344.6c0,0.3,0,0.6-0.1,0.9c-0.1,0.2-0.1,0.5-0.2,0.6c-0.1,0.2-0.2,0.3-0.3,0.4c-0.1,0.1-0.3,0.1-0.4,0.1h-9v9.9
			c0,0.1,0,0.3-0.1,0.4c-0.1,0.1-0.2,0.2-0.3,0.3s-0.4,0.1-0.6,0.2c-0.3,0-0.6,0.1-1,0.1c-0.4,0-0.7,0-0.9-0.1
			c-0.3,0-0.5-0.1-0.6-0.2c-0.2-0.1-0.3-0.2-0.3-0.3c-0.1-0.1-0.1-0.2-0.1-0.4v-9.9h-9c-0.2,0-0.3,0-0.4-0.1
			c-0.1-0.1-0.2-0.2-0.3-0.4s-0.2-0.4-0.2-0.6c-0.1-0.2-0.1-0.5-0.1-0.9c0-0.3,0-0.6,0.1-0.9c0.1-0.2,0.1-0.5,0.2-0.6
			c0.1-0.2,0.2-0.3,0.3-0.4c0.1-0.1,0.2-0.1,0.4-0.1h9v-9.9c0-0.1,0-0.3,0.1-0.4c0.1-0.1,0.2-0.2,0.3-0.3c0.2-0.1,0.4-0.1,0.6-0.2
			c0.3,0,0.6-0.1,0.9-0.1c0.4,0,0.7,0,1,0.1c0.3,0,0.5,0.1,0.6,0.2s0.3,0.2,0.3,0.3c0.1,0.1,0.1,0.3,0.1,0.4v9.9h9
			c0.1,0,0.3,0,0.4,0.1c0.1,0.1,0.2,0.2,0.3,0.4c0.1,0.2,0.2,0.4,0.2,0.6C236.8,344,236.8,344.3,236.8,344.6z"/>
		<path d="M257.7,359.5c-0.1,0.2-0.2,0.4-0.3,0.5c-0.1,0.1-0.3,0.2-0.5,0.3c-0.2,0.1-0.5,0.1-0.9,0.2c-0.4,0-0.8,0-1.3,0
			c-0.4,0-0.8,0-1.1,0c-0.3,0-0.6,0-0.8-0.1c-0.2,0-0.4-0.1-0.6-0.1s-0.3-0.1-0.4-0.2c-0.1-0.1-0.2-0.2-0.3-0.3
			c-0.1-0.1-0.1-0.2-0.2-0.4l-11.5-32.8c-0.1-0.4-0.2-0.7-0.2-1c0-0.2,0.1-0.4,0.2-0.6c0.2-0.1,0.4-0.2,0.8-0.2
			c0.4,0,0.9-0.1,1.5-0.1c0.5,0,0.9,0,1.2,0c0.3,0,0.5,0.1,0.7,0.2c0.2,0.1,0.3,0.2,0.4,0.3c0.1,0.1,0.2,0.3,0.2,0.5l10.1,29.7h0
			l9.9-29.7c0.1-0.2,0.1-0.4,0.2-0.5c0.1-0.1,0.2-0.2,0.4-0.3c0.2-0.1,0.4-0.1,0.8-0.2s0.8,0,1.3,0c0.6,0,1,0,1.3,0.1
			c0.3,0,0.5,0.1,0.7,0.3c0.1,0.1,0.2,0.3,0.1,0.6c0,0.2-0.1,0.6-0.3,1L257.7,359.5z"/>
	</g>
	<g class="st6">
		<path class="st0" d="M469.8-100.1c0.2,0,0.3,0,0.5,0.1c0.1,0.1,0.3,0.2,0.3,0.4c0.1,0.2,0.2,0.5,0.2,0.9c0.1,0.4,0.1,0.9,0.1,1.5
			c0,0.8,0,1.4-0.1,1.9c-0.1,0.5-0.2,0.9-0.4,1.1c-0.2,0.2-0.4,0.4-0.6,0.6l-21.5,15.8h21.5c0.2,0,0.3,0,0.4,0.1
			c0.1,0.1,0.3,0.2,0.3,0.5c0.1,0.2,0.1,0.5,0.2,0.9c0.1,0.4,0.1,0.8,0.1,1.4c0,0.5,0,1-0.1,1.4c-0.1,0.4-0.1,0.7-0.2,0.9
			c-0.1,0.2-0.2,0.4-0.3,0.5c-0.1,0.1-0.3,0.1-0.4,0.1h-41.2c-0.2,0-0.3,0-0.5-0.1c-0.1-0.1-0.2-0.2-0.3-0.5
			c-0.1-0.2-0.1-0.5-0.2-0.9c-0.1-0.4-0.1-0.8-0.1-1.4c0-0.6,0-1,0.1-1.4c0.1-0.4,0.1-0.7,0.2-0.9c0.1-0.2,0.2-0.4,0.3-0.5
			c0.1-0.1,0.3-0.1,0.5-0.1h19.1L428.6-93c-0.2-0.1-0.4-0.3-0.5-0.5c-0.1-0.2-0.2-0.4-0.3-0.6c-0.1-0.3-0.1-0.6-0.2-0.9
			c0-0.4-0.1-0.8-0.1-1.4c0-0.6,0-1,0.1-1.4c0.1-0.4,0.1-0.6,0.2-0.8c0.1-0.2,0.2-0.4,0.3-0.4c0.1-0.1,0.3-0.1,0.4-0.1
			c0.3,0,0.6,0.1,0.9,0.2c0.3,0.1,0.7,0.4,1.2,0.8l17,14.2l20.4-15.3c0.6-0.4,1-0.6,1.2-0.7C469.5-100.1,469.7-100.1,469.8-100.1z"
			/>
		<path class="st0" d="M454-121.1h15.8c0.2,0,0.3,0,0.5,0.1s0.2,0.2,0.3,0.5c0.1,0.2,0.1,0.5,0.2,0.9c0.1,0.4,0.1,0.8,0.1,1.4
			c0,0.6,0,1-0.1,1.4c-0.1,0.4-0.1,0.7-0.2,0.9c-0.1,0.2-0.2,0.4-0.3,0.5c-0.1,0.1-0.3,0.1-0.5,0.1H454l-24.2,12.2
			c-0.5,0.2-0.9,0.4-1.2,0.4c-0.3,0.1-0.5,0-0.7-0.2c-0.2-0.2-0.3-0.5-0.3-0.9c0-0.4-0.1-1-0.1-1.7c0-0.7,0-1.2,0.1-1.6
			c0-0.4,0.1-0.7,0.2-1c0.1-0.2,0.2-0.4,0.3-0.5c0.1-0.1,0.3-0.2,0.5-0.3L441-115c1.2-0.6,2.4-1.1,3.7-1.7c1.3-0.5,2.6-1.1,3.9-1.7
			v-0.1c-1.3-0.5-2.5-1-3.8-1.6c-1.3-0.5-2.5-1.1-3.7-1.6l-12.4-6c-0.2-0.1-0.4-0.2-0.6-0.3c-0.2-0.1-0.3-0.3-0.3-0.5
			c-0.1-0.2-0.1-0.5-0.2-0.9c0-0.4-0.1-0.9-0.1-1.4c0-0.8,0-1.4,0.1-1.9c0.1-0.5,0.2-0.8,0.3-0.9c0.2-0.2,0.4-0.2,0.7-0.2
			c0.3,0.1,0.7,0.2,1.2,0.4L454-121.1z"/>
		<path class="st0" d="M453.9-149.5c0.9,0,1.5,0.1,1.8,0.3c0.3,0.2,0.5,0.5,0.5,0.9v13.9c0,0.4-0.2,0.7-0.5,0.9
			c-0.3,0.2-0.9,0.3-1.8,0.3c-0.8,0-1.4-0.1-1.8-0.3s-0.5-0.5-0.5-0.9v-13.9c0-0.2,0-0.3,0.1-0.5c0.1-0.1,0.2-0.3,0.4-0.4
			s0.4-0.2,0.7-0.2S453.5-149.5,453.9-149.5z"/>
		<path class="st0" d="M449.1-183.9c3.3,0,6.3,0.3,9,0.8s5.1,1.4,7,2.6c2,1.2,3.5,2.8,4.5,4.7c1.1,1.9,1.6,4.4,1.6,7.2
			c0,2.7-0.5,5-1.4,6.8s-2.4,3.3-4.3,4.5c-1.9,1.1-4.2,1.9-6.9,2.4c-2.7,0.5-5.9,0.7-9.4,0.7c-3.3,0-6.3-0.3-9-0.8s-5.1-1.4-7-2.6
			c-2-1.2-3.5-2.8-4.5-4.7c-1.1-1.9-1.6-4.3-1.6-7.2c0-2.7,0.5-5,1.4-6.9c1-1.8,2.4-3.3,4.3-4.5c1.9-1.1,4.2-1.9,6.9-2.4
			C442.4-183.7,445.6-183.9,449.1-183.9z M449.5-178c-2.1,0-4.1,0.1-5.8,0.2c-1.7,0.2-3.2,0.4-4.5,0.7s-2.4,0.7-3.4,1.2
			c-0.9,0.5-1.7,1-2.3,1.7c-0.6,0.7-1.1,1.4-1.3,2.3c-0.3,0.9-0.4,1.8-0.4,2.9c0,1.9,0.4,3.4,1.3,4.6c0.9,1.2,2.1,2.1,3.7,2.8
			s3.4,1.1,5.4,1.4c2.1,0.2,4.3,0.4,6.7,0.4c3.2,0,5.9-0.2,8.2-0.5s4.1-0.9,5.5-1.6s2.4-1.6,3.1-2.8c0.6-1.1,1-2.5,1-4.1
			c0-1.2-0.2-2.3-0.6-3.3c-0.4-0.9-1-1.7-1.7-2.4c-0.7-0.7-1.6-1.2-2.7-1.7c-1-0.4-2.2-0.8-3.5-1.1s-2.6-0.4-4.1-0.5
			C452.7-178,451.1-178,449.5-178z"/>
		<path class="st0" d="M458.4-216.6c2,0,3.7,0.3,5.3,1c1.6,0.7,2.9,1.7,4.1,3c1.1,1.3,2,2.9,2.6,4.7s0.9,4,0.9,6.4
			c0,1.4-0.1,2.8-0.3,4c-0.2,1.3-0.5,2.4-0.8,3.3c-0.3,1-0.7,1.8-1,2.4c-0.3,0.6-0.6,1-0.7,1.2c-0.2,0.2-0.3,0.3-0.5,0.4
			c-0.2,0.1-0.3,0.2-0.6,0.2c-0.2,0.1-0.5,0.1-0.8,0.1c-0.3,0-0.7,0-1.2,0c-0.8,0-1.4-0.1-1.7-0.2c-0.3-0.2-0.5-0.4-0.5-0.7
			c0-0.2,0.2-0.6,0.5-1.2c0.4-0.6,0.7-1.4,1.1-2.3c0.4-0.9,0.8-2,1.1-3.3c0.4-1.3,0.5-2.7,0.5-4.2c0-1.5-0.2-2.8-0.6-4
			c-0.4-1.1-0.9-2.1-1.6-2.9s-1.5-1.4-2.4-1.7c-0.9-0.4-2-0.6-3.1-0.6c-1.2,0-2.3,0.2-3.3,0.7c-1,0.5-1.8,1.2-2.5,2.2
			c-0.7,0.9-1.3,2.1-1.6,3.5c-0.4,1.4-0.6,3-0.6,4.7v4.2c0,0.2,0,0.4-0.1,0.5c-0.1,0.2-0.2,0.3-0.4,0.4c-0.2,0.1-0.4,0.2-0.7,0.3
			c-0.3,0.1-0.7,0.1-1.1,0.1c-0.4,0-0.8,0-1-0.1c-0.3-0.1-0.5-0.2-0.7-0.3c-0.2-0.1-0.3-0.3-0.4-0.4c-0.1-0.2-0.1-0.3-0.1-0.5v-3.8
			c0-1.5-0.2-2.8-0.6-3.9c-0.4-1.2-0.9-2.1-1.6-3c-0.7-0.8-1.6-1.4-2.5-1.9c-1-0.4-2.1-0.6-3.3-0.6c-0.9,0-1.7,0.1-2.5,0.4
			c-0.8,0.3-1.5,0.7-2.1,1.3c-0.6,0.6-1.1,1.3-1.4,2.2c-0.3,0.9-0.5,1.9-0.5,3.1c0,1.3,0.2,2.5,0.6,3.5c0.4,1.1,0.8,2,1.2,2.9
			c0.4,0.8,0.9,1.5,1.2,2.1c0.4,0.6,0.6,0.9,0.6,1.2c0,0.2,0,0.3-0.1,0.4s-0.2,0.2-0.3,0.3c-0.2,0.1-0.4,0.1-0.7,0.2
			c-0.3,0-0.7,0-1.2,0c-0.3,0-0.6,0-0.9,0c-0.3,0-0.5-0.1-0.7-0.1s-0.4-0.1-0.5-0.2s-0.3-0.2-0.5-0.4c-0.2-0.2-0.5-0.6-0.9-1.3
			c-0.4-0.6-0.8-1.4-1.2-2.4c-0.4-0.9-0.7-2-1-3.3s-0.4-2.6-0.4-4c0-2,0.3-3.7,0.8-5.2c0.5-1.5,1.2-2.8,2.2-3.8c0.9-1,2-1.8,3.3-2.3
			c1.3-0.5,2.7-0.7,4.3-0.7c1.4,0,2.6,0.2,3.8,0.5c1.2,0.4,2.2,0.9,3.1,1.6s1.7,1.5,2.3,2.5c0.6,1,1.1,2.1,1.3,3.5h0.1
			c0.2-1.5,0.5-2.8,1.1-4.1c0.6-1.2,1.3-2.3,2.2-3.2s1.9-1.6,3.1-2.1C455.8-216.4,457.1-216.6,458.4-216.6z"/>
		<path class="st0" d="M458.5-253.2c0.7,0,1.3,0.1,1.7,0.3c0.4,0.2,0.6,0.5,0.6,0.9v4.8h9c0.2,0,0.3,0,0.4,0.1
			c0.1,0.1,0.2,0.3,0.3,0.5c0.1,0.2,0.2,0.5,0.2,0.9c0,0.4,0.1,0.8,0.1,1.4c0,0.5,0,1-0.1,1.4c0,0.4-0.1,0.7-0.2,0.9
			c-0.1,0.2-0.2,0.4-0.3,0.4c-0.1,0.1-0.3,0.1-0.4,0.1h-9v17.6c0,0.3,0,0.5-0.1,0.7c-0.1,0.2-0.2,0.3-0.4,0.5
			c-0.2,0.1-0.4,0.2-0.8,0.3c-0.3,0.1-0.8,0.1-1.3,0.1c-0.4,0-0.8,0-1.1,0s-0.6-0.1-0.9-0.1c-0.3-0.1-0.5-0.2-0.8-0.3
			c-0.3-0.1-0.5-0.2-0.8-0.4l-26.1-15.3c-0.2-0.1-0.3-0.3-0.5-0.5c-0.1-0.2-0.2-0.5-0.3-0.8c-0.1-0.3-0.1-0.8-0.2-1.3
			c0-0.5,0-1.1,0-1.8c0-0.7,0-1.4,0.1-1.9c0.1-0.6,0.1-1,0.2-1.3c0.1-0.3,0.2-0.6,0.3-0.8c0.1-0.2,0.3-0.3,0.5-0.3h27.4v-4.8
			c0-0.4,0.2-0.7,0.6-0.9C457.1-253.1,457.7-253.2,458.5-253.2z M432.6-241.4L432.6-241.4l23.6,13.9v-13.9H432.6z"/>
	</g>
	<g class="st6">
		<path class="st0" d="M99.8,11.2c-0.1,0.2-0.2,0.4-0.4,0.6c-0.2,0.2-0.4,0.3-0.6,0.4c-0.3,0.1-0.6,0.1-1.1,0.2s-1,0-1.6,0
			c-0.5,0-0.9,0-1.3,0c-0.4,0-0.7,0-0.9-0.1c-0.3,0-0.5-0.1-0.7-0.1c-0.2-0.1-0.3-0.1-0.5-0.2c-0.1-0.1-0.2-0.2-0.3-0.3
			c-0.1-0.1-0.1-0.3-0.2-0.4l-14-39.9c-0.2-0.5-0.3-0.9-0.3-1.2s0.1-0.5,0.3-0.7c0.2-0.2,0.5-0.3,1-0.3c0.4,0,1-0.1,1.8-0.1
			c0.6,0,1.1,0,1.5,0s0.6,0.1,0.8,0.2c0.2,0.1,0.3,0.2,0.4,0.3c0.1,0.1,0.2,0.3,0.3,0.5L96.3,6.3h0l12-36.1c0.1-0.2,0.1-0.4,0.2-0.6
			c0.1-0.2,0.2-0.3,0.5-0.4c0.2-0.1,0.5-0.1,0.9-0.2s0.9,0,1.6,0c0.7,0,1.2,0,1.6,0.1c0.4,0.1,0.7,0.2,0.8,0.3
			c0.1,0.2,0.2,0.4,0.2,0.7s-0.1,0.7-0.3,1.2L99.8,11.2z"/>
	</g>
	<g class="st6">
		<path class="st0" d="M211.1-9.7c0,3.7-0.5,7-1.4,9.7c-1,2.8-2.3,5.1-4.2,6.9c-1.8,1.8-4.1,3.2-6.7,4.1c-2.7,0.9-5.8,1.4-9.5,1.4
			h-9.1c-0.5,0-1-0.2-1.4-0.5c-0.5-0.3-0.7-0.9-0.7-1.8v-38.3c0-0.9,0.2-1.5,0.7-1.8c0.5-0.3,0.9-0.5,1.4-0.5h9.7
			c3.7,0,6.9,0.5,9.4,1.4c2.6,1,4.7,2.3,6.5,4.2c1.7,1.8,3.1,4,4,6.6S211.1-12.9,211.1-9.7z M205.1-9.5c0-2.3-0.3-4.5-0.9-6.5
			c-0.6-2-1.5-3.7-2.7-5.2s-2.8-2.6-4.7-3.4c-1.9-0.8-4.3-1.2-7.3-1.2h-5.8V7.6h5.9c2.7,0,5.1-0.3,6.9-1c1.9-0.7,3.5-1.7,4.7-3.2
			c1.3-1.4,2.2-3.2,2.8-5.3C204.8-4,205.1-6.5,205.1-9.5z"/>
	</g>
	<g class="st6">
		<path class="st0" d="M306.6,9.9c0,0.4-0.1,0.8-0.2,1.1c-0.1,0.3-0.3,0.6-0.6,0.8c-0.2,0.2-0.5,0.3-0.8,0.4s-0.6,0.1-0.9,0.1h-1.9
			c-0.6,0-1.1-0.1-1.6-0.2c-0.4-0.1-0.9-0.3-1.3-0.7c-0.4-0.3-0.8-0.8-1.2-1.3c-0.4-0.6-0.8-1.3-1.3-2.1l-13.1-24.4
			c-0.7-1.3-1.4-2.6-2.1-4c-0.7-1.4-1.3-2.7-1.9-4h-0.1c0,1.6,0.1,3.2,0.1,4.9c0,1.7,0,3.3,0,4.9v25.9c0,0.2,0,0.3-0.1,0.4
			c-0.1,0.1-0.3,0.3-0.5,0.3c-0.2,0.1-0.5,0.1-0.9,0.2c-0.4,0.1-0.8,0.1-1.4,0.1s-1,0-1.4-0.1c-0.4-0.1-0.6-0.1-0.9-0.2
			c-0.2-0.1-0.4-0.2-0.5-0.3c-0.1-0.1-0.1-0.3-0.1-0.4v-39.7c0-0.9,0.3-1.5,0.8-1.9c0.5-0.4,1.1-0.6,1.6-0.6h2.8
			c0.7,0,1.2,0.1,1.7,0.2c0.4,0.1,0.8,0.3,1.2,0.5c0.4,0.3,0.7,0.6,1,1.1c0.3,0.5,0.7,1,1,1.7l10.1,18.9c0.6,1.2,1.2,2.3,1.8,3.4
			c0.6,1.1,1.1,2.2,1.7,3.2c0.5,1.1,1.1,2.1,1.6,3.1c0.5,1,1,2.1,1.6,3.1h0c0-1.7-0.1-3.6-0.1-5.5c0-1.9,0-3.7,0-5.5v-23.3
			c0-0.2,0-0.3,0.1-0.4s0.3-0.2,0.5-0.3c0.2-0.1,0.5-0.2,0.9-0.2c0.4,0,0.8-0.1,1.4-0.1c0.5,0,1,0,1.3,0.1c0.4,0,0.7,0.1,0.9,0.2
			c0.2,0.1,0.4,0.2,0.5,0.3c0.1,0.1,0.1,0.3,0.1,0.4V9.9z"/>
	</g>
	<g class="st6">
		<path class="st0" d="M403.1-25.3c0,0.4,0,0.8-0.1,1.1c0,0.3-0.1,0.6-0.2,0.8c-0.1,0.2-0.2,0.4-0.3,0.4c-0.1,0.1-0.3,0.1-0.4,0.1
			c-0.3,0-0.7-0.2-1.3-0.6s-1.5-0.9-2.5-1.4c-1-0.5-2.3-1-3.7-1.4c-1.5-0.4-3.2-0.6-5.2-0.6c-2.4,0-4.5,0.4-6.4,1.3
			s-3.5,2.1-4.8,3.6s-2.3,3.3-3,5.4c-0.7,2.1-1,4.4-1,6.8c0,2.7,0.4,5.2,1.1,7.3c0.8,2.1,1.8,3.9,3.2,5.4s3,2.6,4.8,3.3
			s3.9,1.1,6.2,1.1c1.3,0,2.7-0.2,4-0.5c1.4-0.3,2.6-0.8,3.8-1.4V-7h-10c-0.4,0-0.7-0.2-0.8-0.6c-0.2-0.4-0.3-1-0.3-1.8
			c0-0.4,0-0.8,0.1-1.1c0-0.3,0.1-0.5,0.2-0.7s0.2-0.3,0.3-0.4c0.1-0.1,0.3-0.1,0.5-0.1H401c0.2,0,0.5,0,0.7,0.1
			c0.2,0.1,0.5,0.2,0.7,0.4c0.2,0.2,0.4,0.4,0.5,0.7c0.1,0.3,0.2,0.7,0.2,1.1V7c0,0.6-0.1,1.1-0.3,1.5c-0.2,0.4-0.6,0.8-1.3,1.1
			c-0.6,0.3-1.5,0.7-2.5,1c-1,0.4-2.1,0.7-3.2,1s-2.2,0.5-3.3,0.6s-2.2,0.2-3.3,0.2c-3.3,0-6.3-0.5-8.9-1.5c-2.6-1-4.8-2.5-6.6-4.4
			s-3.2-4.2-4.1-6.8c-1-2.7-1.4-5.6-1.4-8.9c0-3.4,0.5-6.5,1.5-9.3s2.5-5.1,4.4-7.1c1.9-1.9,4.1-3.5,6.7-4.5
			c2.6-1.1,5.5-1.6,8.7-1.6c1.6,0,3.2,0.1,4.6,0.4c1.4,0.3,2.7,0.6,3.8,1c1.1,0.4,2.1,0.8,2.8,1.3c0.8,0.5,1.3,0.8,1.6,1.1
			c0.3,0.3,0.5,0.6,0.6,1C403-26.6,403.1-26,403.1-25.3z"/>
	</g>
	<g class="st6">
		<path class="st0" d="M92.5,170.6c0,2-0.4,3.8-1.1,5.4c-0.7,1.6-1.8,2.9-3.1,4c-1.3,1.1-2.9,1.9-4.6,2.5c-1.8,0.6-3.7,0.8-5.8,0.8
			c-1.4,0-2.8-0.1-4-0.4c-1.2-0.2-2.3-0.5-3.3-0.9c-1-0.4-1.8-0.7-2.4-1.1c-0.7-0.4-1.1-0.7-1.4-1c-0.3-0.3-0.4-0.6-0.6-1
			c-0.1-0.4-0.2-1-0.2-1.6c0-0.5,0-0.9,0.1-1.2c0-0.3,0.1-0.6,0.2-0.8c0.1-0.2,0.2-0.3,0.3-0.4c0.1-0.1,0.3-0.1,0.5-0.1
			c0.3,0,0.7,0.2,1.3,0.6c0.6,0.4,1.3,0.8,2.2,1.2c0.9,0.4,2,0.9,3.2,1.2s2.7,0.6,4.3,0.6c1.2,0,2.4-0.2,3.4-0.5s1.9-0.8,2.7-1.4
			c0.7-0.6,1.3-1.4,1.7-2.2c0.4-0.9,0.6-1.9,0.6-3c0-1.2-0.3-2.3-0.8-3.1c-0.6-0.9-1.3-1.6-2.2-2.3c-0.9-0.7-1.9-1.3-3.1-1.8
			c-1.2-0.5-2.4-1.1-3.6-1.7s-2.4-1.2-3.6-1.9s-2.2-1.5-3.1-2.4c-0.9-0.9-1.6-2-2.2-3.3c-0.6-1.2-0.8-2.8-0.8-4.5
			c0-1.8,0.3-3.4,1-4.8c0.7-1.4,1.6-2.6,2.7-3.5c1.2-1,2.5-1.7,4.2-2.2c1.6-0.5,3.3-0.7,5.2-0.7c1,0,1.9,0.1,2.9,0.2
			c1,0.2,1.9,0.4,2.7,0.7c0.9,0.3,1.6,0.6,2.3,0.9c0.7,0.3,1.1,0.6,1.3,0.8c0.2,0.2,0.3,0.4,0.4,0.5c0.1,0.1,0.1,0.3,0.2,0.5
			c0,0.2,0.1,0.4,0.1,0.7c0,0.3,0,0.6,0,1c0,0.4,0,0.8,0,1.1c0,0.3-0.1,0.6-0.1,0.8c-0.1,0.2-0.2,0.4-0.3,0.5
			c-0.1,0.1-0.3,0.1-0.4,0.1c-0.2,0-0.6-0.2-1.1-0.5c-0.5-0.3-1.2-0.7-1.9-1c-0.8-0.4-1.6-0.7-2.7-1.1c-1-0.3-2.2-0.5-3.5-0.5
			c-1.2,0-2.2,0.2-3.1,0.5c-0.9,0.3-1.6,0.7-2.2,1.3c-0.6,0.5-1,1.2-1.3,1.9s-0.4,1.5-0.4,2.3c0,1.2,0.3,2.2,0.8,3.1
			s1.3,1.6,2.2,2.3c0.9,0.7,2,1.3,3.1,1.8c1.2,0.6,2.4,1.1,3.6,1.7c1.2,0.6,2.4,1.2,3.6,1.9c1.2,0.7,2.2,1.5,3.1,2.4
			c0.9,0.9,1.7,2,2.2,3.3C92.2,167.4,92.5,168.9,92.5,170.6z"/>
	</g>
	<g class="st6">
		<path class="st0" d="M420.1,159.1c0,0.9-0.2,1.5-0.7,1.8c-0.5,0.3-1.2,0.5-2.1,0.5h-33.4c-1,0-1.7-0.2-2.2-0.5
			c-0.5-0.3-0.7-0.9-0.7-1.8c0-0.8,0.2-1.4,0.7-1.8c0.5-0.3,1.2-0.5,2.2-0.5h33.4c0.4,0,0.8,0,1.2,0.1c0.3,0.1,0.6,0.2,0.9,0.4
			s0.4,0.4,0.6,0.7C420.1,158.3,420.1,158.7,420.1,159.1z"/>
	</g>
	<rect id="rect880" x="142.2" y="-493.9" width="197" height="27.8"/>
	<rect id="rect882" x="149" y="-618.8" width="183.4" height="142.5"/>
	
		<path id="path884" sodipodi:cx="224.69592" sodipodi:cy="622.01685" sodipodi:end="3.1415927" sodipodi:rx="85.615051" sodipodi:ry="86.309425" sodipodi:start="0" sodipodi:type="arc" d="
		M332.4-615.5c0-33-17.5-63.5-45.9-80.1s-63.3-16.5-91.7,0c-28.4,16.5-45.9,47-45.9,80.1h91.7H332.4z"/>
	<path id="path3796" inkscape:connector-curvature="0" class="st2" d="M284.6-477.4h8.6V63.5h-8.6V-477.4z"/>
	<path id="path3794" inkscape:connector-curvature="0" class="st2" d="M188.2-477.4h8.6V63.5h-8.6V-477.4z"/>
	<path id="rect3800" inkscape:connector-curvature="0" class="st7" d="M238.7-700.8c-14.2,0.3-28.1,4.3-40.4,11.4
		c-26.1,15.2-42.2,43.3-42.4,73.7h0v0.3v125.7h-6.3v19h182.1v-19h-6.3v-125.7v-0.3h0c-0.1-30.4-16.3-58.5-42.4-73.7
		C269.6-697.2,254.2-701.2,238.7-700.8L238.7-700.8z"/>
</g>
</svg>
