<?xml version="1.0" encoding="utf-8"?>
<!-- Generator: Adobe Illustrator 27.8.0, SVG Export Plug-In . SVG Version: 6.00 Build 0)  -->
<svg version="1.1"
	 id="svg8" xmlns:svg="http://www.w3.org/2000/svg" xmlns:rdf="http://www.w3.org/1999/02/22-rdf-syntax-ns#" xmlns:sodipodi="http://sodipodi.sourceforge.net/DTD/sodipodi-0.dtd" xmlns:dc="http://purl.org/dc/elements/1.1/" xmlns:inkscape="http://www.inkscape.org/namespaces/inkscape" xmlns:cc="http://creativecommons.org/ns#" inkscape:export-xdpi="93" inkscape:export-ydpi="93" inkscape:version="0.92.4 (5da689c313, 2019-01-14)"
	 xmlns="http://www.w3.org/2000/svg" xmlns:xlink="http://www.w3.org/1999/xlink" x="0px" y="0px" viewBox="0 0 649 1081"
	 style="enable-background:new 0 0 649 1081;" xml:space="preserve">
<style type="text/css">
	.st0{fill:#FFFFFF;}
	.st1{fill:#1A1A1A;}
	.st2{opacity:0.99;enable-background:new    ;}
	.st3{fill:#CCCCCC;}
	.st4{opacity:0.99;fill:#808080;enable-background:new    ;}
	.st5{opacity:0.99;fill:#CCCCCC;enable-background:new    ;}
	.st6{opacity:0.99;fill:#FFFFFF;enable-background:new    ;}
	.st7{fill:#E6E6E6;}
	.st8{fill:#999999;}
	.st9{fill:#808080;}
	.st10{fill:#333333;}
	.st11{enable-background:new    ;}
</style>
<defs>
	
		<inkscape:perspective  id="perspective876" inkscape:persp3d-origin="105 : 98.999994 : 1" inkscape:vp_x="0 : 148.49999 : 1" inkscape:vp_y="0 : 999.99993 : 0" inkscape:vp_z="210.00001 : 148.49999 : 1" sodipodi:type="inkscape:persp3d">
		</inkscape:perspective>
</defs>
<sodipodi:namedview  bordercolor="#666666" borderopacity="1.0" id="base" inkscape:current-layer="layer1" inkscape:cx="1432.0614" inkscape:cy="1398.4807" inkscape:document-units="mm" inkscape:lockguides="false" inkscape:pageopacity="0.0" inkscape:pageshadow="2" inkscape:window-height="1017" inkscape:window-maximized="1" inkscape:window-width="1920" inkscape:window-x="-8" inkscape:window-y="-8" inkscape:zoom="0.24748737" pagecolor="#ffffff" showgrid="false" showguides="true" width="500mm">
	</sodipodi:namedview>
<g id="layer1" transform="translate(0.31582593,452.81107)" inkscape:groupmode="layer" inkscape:label="Ebene 1">
	<rect id="rect815" x="-0.3" y="-444.1" inkscape:export-xdpi="93" inkscape:export-ydpi="93" width="649.7" height="873.2">
	</rect>
	<rect id="rect821" x="153.3" y="286.9" class="st0" width="338.1" height="116.4"/>
	<path id="rect825" class="st1" d="M175.5,293.5h67.8c11.8,0,21.4,9.6,21.4,21.4v59.4c0,11.8-9.6,21.4-21.4,21.4h-67.8
		c-11.8,0-21.4-9.6-21.4-21.4v-59.4C154.1,303.1,163.7,293.5,175.5,293.5z"/>
	<rect id="rect831" x="91" y="44" class="st0" width="462.5" height="116.4"/>
	<rect id="rect833" x="91" y="-77.5" class="st0" width="462.5" height="116.4"/>
	<rect id="rect837" x="91" y="-198.9" class="st0" width="462.5" height="116.4"/>
	<path id="rect872" class="st1" d="M401.3,293.5h67.8c11.8,0,21.4,9.6,21.4,21.4v59.4c0,11.8-9.6,21.4-21.4,21.4h-67.8
		c-11.8,0-21.4-9.6-21.4-21.4v-59.4C379.9,303.1,389.5,293.5,401.3,293.5z"/>
	<path id="rect874" class="st1" d="M285.6,293.5h73.3c10.3,0,18.6,8.3,18.6,18.6v65c0,10.3-8.3,18.6-18.6,18.6h-73.3
		c-10.3,0-18.6-8.3-18.6-18.6v-65C267,301.9,275.3,293.5,285.6,293.5z"/>
	<rect id="rect892" x="97.4" y="47.5" class="st2" width="452.8" height="107.4"/>
	<path id="rect836" class="st3" d="M151.1,47.5h27.6c29.7,0,53.7,24,53.7,53.7l0,0c0,29.7-24,53.7-53.7,53.7h-27.6
		c-29.7,0-53.7-24-53.7-53.7l0,0C97.4,71.6,121.4,47.5,151.1,47.5z"/>
	<rect id="rect850" x="241.4" y="47.5" class="st3" width="135.1" height="107.4"/>
	<rect id="rect848" x="397.7" y="51.5" class="st3" width="149.1" height="99.3"/>
	<rect id="rect892-7" x="95.9" y="-73.3" class="st2" width="452.8" height="107.4"/>
	<rect id="rect892-72" x="95.8" y="-194.1" class="st2" width="452.8" height="107.4"/>
	<path id="rect836-7" class="st3" d="M150.5-73.2h27.6c29.7,0,53.7,24,53.7,53.7l0,0c0,29.7-24,53.7-53.7,53.7h-27.6
		c-29.7,0-53.7-24-53.7-53.7l0,0C96.8-49.1,120.8-73.2,150.5-73.2z"/>
	<path id="rect836-6" class="st3" d="M294.5-73.2h27.6c29.7,0,53.7,24,53.7,53.7l0,0c0,29.7-24,53.7-53.7,53.7h-27.6
		c-29.7,0-53.7-24-53.7-53.7l0,0C240.8-49.1,264.8-73.2,294.5-73.2z"/>
	<path id="rect939" class="st3" d="M294.5-195.1h27.6c29.7,0,53.7,24,53.7,53.7l0,0c0,29.7-24,53.7-53.7,53.7h-27.6
		c-29.7,0-53.7-24-53.7-53.7l0,0C240.8-171.1,264.8-195.1,294.5-195.1z"/>
	<path id="rect941" class="st3" d="M148.8-195.1h27.6c29.7,0,53.7,24,53.7,53.7l0,0c0,29.7-24,53.7-53.7,53.7h-27.6
		c-29.7,0-53.7-24-53.7-53.7l0,0C95.1-171.1,119.2-195.1,148.8-195.1z"/>
	<rect id="rect943" x="397.7" y="-68.4" class="st3" width="149.1" height="99.3"/>
	<rect id="rect945" x="397.7" y="-190.3" class="st3" width="149.1" height="99.3"/>
	<rect id="rect947" x="203.1" y="349.2" class="st4" width="12.3" height="213.3"/>
	<rect id="rect949" x="316.7" y="349.2" class="st4" width="12.3" height="213.3"/>
	<rect id="rect951" x="428.9" y="349.2" class="st4" width="12.3" height="213.3"/>
	<g id="flowRoot969" transform="translate(0,-45.606246)">
	</g>
	<ellipse id="path1456" class="st5" cx="90.8" cy="-262" rx="59.3" ry="58"/>
	<ellipse id="ellipse1458" class="st5" cx="553.2" cy="-262" rx="59.3" ry="58"/>
	<ellipse id="path1460" class="st6" cx="90.7" cy="-262.3" rx="53.4" ry="52.3"/>
	<ellipse id="ellipse1464" class="st6" cx="553" cy="-262.3" rx="53.4" ry="52.3"/>
	<g id="flowRoot1466" transform="translate(0,-45.606246)">
	</g>
	<circle id="circle1502" class="st6" cx="163.3" cy="-19.3" r="50.5"/>
	<circle id="circle1504" class="st6" cx="164.1" cy="101.3" r="50.5"/>
	<circle id="circle1508" class="st6" cx="307.6" cy="-20" r="50.5"/>
	<circle id="circle1510" class="st6" cx="307.6" cy="101.3" r="50.5"/>
	<circle id="circle1514" class="st6" cx="473.2" cy="101.3" r="50.5"/>
	<circle id="circle1516" class="st6" cx="473.2" cy="-19.3" r="50.5"/>
	<g id="flowRoot1529" transform="translate(0,-45.606246)">
	</g>
	<path id="path31-1" inkscape:connector-curvature="0" class="st0" d="M184.3-378.2c4-0.1,4.5-0.1,5.2-0.6c0.5-0.3,1-0.8,1.3-1.3
		c0.4-0.7,0.5-1.2,0.5-9.5l0.1-8.7l8.6,0l8.6,0v10.8c0,12-0.1,13.1-1.3,16.2c-1.6,4.1-4,6-8.9,7.2c-1.3,0.3-2.8,0.4-7.8,0.3
		c-3.4,0-7.1-0.1-8.3-0.2l-2.1-0.2L180-371l-0.1-7.1L184.3-378.2L184.3-378.2z M266.1-353.9c73.2,0,91.3,0.1,88.2,0.4l-0.5,0
		l0.5,0.2c0.4,0.2,0.3,0.2-0.4,0.3c-0.5,0-0.3,0.1,0.7,0.2l1.5,0.2l-1.5,0.1c-0.8,0-1.3,0.1-1.1,0.2c0.3,0.1,0.4,0.4,0.4,2
		c0,1.9,0,1.9,0.6,2c0.5,0.1,0.3,0.1-0.4,0.1c-0.5,0-1,0.1-1,0.3c0,0.2-29,0.2-86.6,0.2H180v-3.1v-3.1L266.1-353.9z M200.1-420.6
		h8.7v7v7h-8.7h-8.7v-7v-7H200.1z M217.5-394.6c0.6-4,1.7-7.5,3.3-10.6c0.6-1.1,1.1-2.1,1.2-2.2c0.1-0.1,0.5-0.7,1-1.4
		c0.9-1.4,3-3.9,3.4-4.2c0.2-0.1,0.3-0.3,0.3-0.4c0-0.3,2.2-2.3,3.9-3.5c1.8-1.3,3.2-2,6.4-3.2c3.7-1.4,5.9-1.7,10.4-1.6
		c3.2,0.1,4.1,0.2,6.1,0.8c1.3,0.4,2.8,0.9,3.5,1.2c0.6,0.3,1.2,0.5,1.4,0.5c0.1,0,1.1,0.5,2.1,1.1c4.1,2.4,9.8,8.8,12,13.6
		c3.4,7.5,3.8,15,1.3,21.9c-1.1,2.9-1.9,4.6-3.1,6.6c-1.5,2.4-1.6,2.5-5.1,6c-4.1,4-7,5.7-12.3,7.2c-2.7,0.7-8,1-10.9,0.6
		c-3.7-0.6-8.7-2.7-11.8-5c-1.6-1.2-3.7-3-3.7-3.2c0-0.1-0.5-0.7-1.2-1.3c-3.1-3.2-6.3-9.4-7.5-14.5
		C217.6-388.1,217.3-393.2,217.5-394.6L217.5-394.6z M234.1-387.3c0.8,3.3,2.5,6.1,5.1,8.5c2.6,2.5,6.7,3.4,10.3,2.3
		c3.9-1.2,7.8-5.8,9.1-10.7c0.7-2.8,0.7-6.9-0.1-9.7c-1.1-3.9-3.2-6.9-6-9c-1.3-0.9-1.9-1.2-3.3-1.5c-2.9-0.6-5.9-0.3-8,0.8
		c-1.8,0.9-4.2,3.6-5.5,6.2C233.5-396.3,233-391.6,234.1-387.3L234.1-387.3z M282.7-420.5c0.2-0.1,4.1-0.1,8.7,0l8.4,0.1l0,7.7
		c0,7.3,0.1,7.8,0.5,9.1c1.2,3.3,5.2,5.1,8.7,3.9c1.8-0.6,3-1.6,3.9-3.3l0.8-1.5l0.1-8l0.1-8h8.7h8.7l-0.1,9.1
		c-0.1,8.4-0.1,9.2-0.6,10.9c-1,3.5-2.5,6.6-4.5,8.9c-0.5,0.6-0.9,1.2-0.9,1.3c0,0.3-2.2,2.3-4.1,3.7c-1.6,1.2-4,2.4-5.1,2.7
		c-0.4,0.1-1.6,0.4-2.7,0.8c-1.8,0.6-2.3,0.6-6.2,0.6c-3.9,0-4.4,0-6.5-0.7c-3.4-1-4.6-1.4-6.9-2.9c-2.6-1.7-4.8-3.9-6.6-6.5
		c-2.6-3.8-3.6-6.6-4.2-11C282.3-406.6,282.3-420.4,282.7-420.5L282.7-420.5z M306.8-377.9H321v7.3v7.3h-14.1h-14.1v-7.3v-7.3H306.8
		z M331-431.7c0.1,0,0.2-0.4,0.2-0.9c0-0.9,0-0.9,1.1-1c0.6-0.1,24.6-0.1,53.3-0.1l52.2,0l-0.1,3.1l-0.1,3.1h-53.1
		c-29.2,0-53.2-0.1-53.4-0.1c-0.3-0.1-0.4-0.5-0.4-2.1C330.8-430.9,330.9-431.7,331-431.7L331-431.7z M354.9-396.8h18v7.2v7.2h-18
		h-18v-7.2v-7.2H354.9z M387.2-420.6h8.7v7v7h-8.7h-8.7v-7v-7H387.2z M387.2-399.1h8.7v18.2v18.2h-8.7h-8.7v-18.2v-18.2H387.2z
		 M421.6-420.6h18.1v7v7h-18.1h-18.1v-7v-7H421.6z M406.5-398.1c0.1-0.1,3.9-0.1,8.5-0.1l8.3,0l0.1,8.4c0.1,11.7-0.4,11.1,8.4,11.2
		l5.6,0.1v7.3v7.3l-2.1,0.3c-3.1,0.4-13,0.3-15.7-0.1c-4.6-0.7-7.6-2.2-9.6-4.6c-2.1-2.5-3.1-5-3.5-9.1
		C406.3-379.9,406.2-397.9,406.5-398.1L406.5-398.1z M449.9-427.5c0.4-1.5,1.3-3,2.2-3.8c3.9-3.4,8.6-3.8,12.5-1
		c1.8,1.3,2.3,1.9,3,3.5c0.6,1.2,0.7,1.6,0.7,3.8c0,2.2-0.1,2.6-0.7,3.9c-1.3,2.8-4.6,5-7.9,5.3c-3,0.2-5.3-0.7-7.7-3
		C450-420.9,449.1-424.5,449.9-427.5L449.9-427.5z M451.6-421.5c0.8,1.9,3.2,3.7,5.8,4.3c2.5,0.6,4.4,0.1,7.3-2
		c0.7-0.5,1.2-1.2,1.7-2.3c0.7-1.4,0.8-1.8,0.8-3.6c0-1.8-0.1-2.1-0.8-3.6c-0.7-1.3-1.1-1.8-2.2-2.6c-0.8-0.5-1.9-1.2-2.6-1.4
		c-3.9-1.3-8.7,0.8-10.3,4.6C450.8-426.4,450.9-423.3,451.6-421.5L451.6-421.5z M458-430.5c1.8,0,3.5,0.1,3.8,0.2
		c1.4,0.5,2.1,3.2,1.1,4.5c-0.3,0.3-0.8,0.7-1.3,0.9l-0.8,0.3l0.8,0.9c0.4,0.5,1.1,1.5,1.5,2.2s0.8,1.3,0.9,1.4
		c0.5,0.3,0.1,0.6-0.8,0.6l-1,0l-1.4-2.2c-1.5-2.4-1.9-2.6-3.5-2.6h-1v2.4v2.4l-0.7-0.1l-0.7-0.1l-0.1-5.4l-0.1-5.4L458-430.5z
		 M458.4-425.9c1.7,0,2.2-0.1,2.7-0.5c1.3-1,0.6-2.6-1.3-2.9c-0.8-0.1-3-0.1-3.4,0.1c0,0-0.1,0.7-0.1,1.6v1.6L458.4-425.9z"/>
	<rect id="rect74" x="6.3" y="-168.4" class="st0" width="77.1" height="181"/>
	<rect id="rect76" x="5.8" y="31.7" class="st0" width="77.1" height="174.5"/>
	<rect id="rect78" x="9.4" y="-165" class="st7" width="69.9" height="173.8"/>
	<rect id="rect80" x="9.4" y="35.3" class="st7" width="69.9" height="166.6"/>
	<rect id="rect82" x="9.4" y="50.4" width="69.9" height="137.7"/>
	<g id="flowRoot84" transform="translate(0,-45.606246)">
	</g>
	<rect id="rect96" x="11.6" y="-112.2" class="st0" width="64.9" height="72.1"/>
	<rect id="rect98" x="39.8" y="-80.9" class="st8" width="7.2" height="7.2"/>
	<rect id="rect100" x="151.8" y="-164.5" class="st9" width="334" height="178.9"/>
	
		<path id="path102" sodipodi:cx="220.29216" sodipodi:cy="252.02597" sodipodi:end="3.1437394" sodipodi:open="true" sodipodi:rx="107.9122" sodipodi:ry="40.605385" sodipodi:start="0" sodipodi:type="arc" class="st10" d="
		M473.5-163.1c0-20.9-29.7-40.3-77.9-50.7s-107.6-10.4-155.7,0.1c-48.1,10.5-77.7,29.9-77.6,50.8"/>
	<g class="st11">
		<path d="M155.1,574.5c0,0.5,0,0.9-0.1,1.2c0,0.4-0.1,0.6-0.2,0.9c-0.1,0.2-0.2,0.4-0.4,0.5c-0.1,0.1-0.3,0.1-0.5,0.1
			c-0.3,0-0.8-0.2-1.5-0.7c-0.7-0.5-1.6-1-2.8-1.5s-2.5-1.1-4.1-1.5c-1.6-0.5-3.5-0.7-5.7-0.7c-2.6,0-5,0.5-7.1,1.4s-3.8,2.3-5.3,4
			c-1.4,1.7-2.6,3.7-3.3,6s-1.2,4.8-1.2,7.6c0,3,0.4,5.7,1.3,8.1c0.8,2.4,2,4.3,3.5,6c1.5,1.6,3.3,2.8,5.3,3.7
			c2.1,0.8,4.3,1.2,6.8,1.2c1.5,0,3-0.2,4.5-0.5c1.5-0.4,2.9-0.9,4.2-1.6v-13.9h-11c-0.4,0-0.7-0.2-0.9-0.6
			c-0.2-0.4-0.3-1.1-0.3-1.9c0-0.5,0-0.9,0.1-1.2c0-0.3,0.1-0.6,0.2-0.8c0.1-0.2,0.2-0.4,0.4-0.5c0.1-0.1,0.3-0.1,0.6-0.1h15.1
			c0.3,0,0.5,0,0.8,0.1c0.3,0.1,0.5,0.2,0.7,0.4c0.2,0.2,0.4,0.5,0.5,0.8c0.1,0.3,0.2,0.7,0.2,1.2v18.1c0,0.6-0.1,1.2-0.3,1.7
			c-0.2,0.5-0.7,0.9-1.4,1.2c-0.7,0.4-1.6,0.7-2.8,1.2c-1.1,0.4-2.3,0.8-3.5,1.1s-2.4,0.5-3.6,0.7c-1.2,0.1-2.4,0.2-3.6,0.2
			c-3.7,0-7-0.6-9.8-1.7c-2.9-1.1-5.3-2.8-7.3-4.9c-2-2.1-3.5-4.6-4.6-7.6c-1.1-2.9-1.6-6.2-1.6-9.8c0-3.8,0.6-7.2,1.7-10.3
			c1.1-3.1,2.7-5.7,4.8-7.8c2.1-2.2,4.6-3.8,7.5-5c2.9-1.2,6.1-1.8,9.6-1.8c1.8,0,3.5,0.2,5.1,0.5c1.6,0.3,3,0.7,4.2,1.1
			c1.2,0.4,2.3,0.9,3.1,1.4c0.8,0.5,1.4,0.9,1.7,1.2s0.5,0.7,0.7,1.1C155,573.2,155.1,573.8,155.1,574.5z"/>
		<path d="M202.8,613c0,0.5-0.1,0.9-0.2,1.2c-0.2,0.3-0.4,0.6-0.6,0.8c-0.3,0.2-0.6,0.4-0.9,0.5s-0.7,0.1-1,0.1h-2.1
			c-0.7,0-1.2-0.1-1.7-0.2c-0.5-0.1-1-0.4-1.4-0.7c-0.4-0.4-0.9-0.8-1.3-1.5c-0.4-0.6-0.9-1.4-1.4-2.4l-14.5-27
			c-0.8-1.4-1.5-2.9-2.3-4.4c-0.8-1.5-1.5-3-2.2-4.5H173c0,1.8,0.1,3.6,0.1,5.4s0,3.7,0,5.5v28.7c0,0.2-0.1,0.3-0.2,0.5
			s-0.3,0.3-0.5,0.4c-0.2,0.1-0.6,0.2-1,0.2c-0.4,0.1-0.9,0.1-1.5,0.1c-0.6,0-1.1,0-1.5-0.1c-0.4-0.1-0.7-0.1-0.9-0.2
			c-0.2-0.1-0.4-0.2-0.5-0.4s-0.2-0.3-0.2-0.5v-43.9c0-1,0.3-1.7,0.8-2.1c0.6-0.4,1.2-0.6,1.8-0.6h3.1c0.7,0,1.3,0.1,1.8,0.2
			c0.5,0.1,0.9,0.3,1.3,0.6c0.4,0.3,0.8,0.7,1.1,1.2c0.4,0.5,0.8,1.1,1.2,1.9l11.1,20.9c0.7,1.3,1.3,2.5,2,3.7
			c0.6,1.2,1.3,2.4,1.8,3.6s1.2,2.3,1.8,3.5c0.6,1.1,1.2,2.3,1.7,3.4h0c0-1.9-0.1-3.9-0.1-6c0-2.1,0-4.1,0-6v-25.8
			c0-0.2,0.1-0.3,0.2-0.5c0.1-0.1,0.3-0.3,0.5-0.4s0.6-0.2,1-0.2s0.9-0.1,1.6-0.1c0.6,0,1.1,0,1.5,0.1s0.7,0.1,1,0.2
			c0.2,0.1,0.4,0.2,0.5,0.4c0.1,0.1,0.2,0.3,0.2,0.5V613z"/>
		<path d="M252,591.1c0,4.1-0.5,7.7-1.6,10.8c-1.1,3.1-2.6,5.6-4.6,7.6s-4.5,3.5-7.4,4.5c-2.9,1-6.4,1.5-10.5,1.5h-10.1
			c-0.6,0-1.1-0.2-1.6-0.6c-0.5-0.4-0.8-1-0.8-2v-42.4c0-1,0.3-1.6,0.8-2c0.5-0.4,1-0.6,1.6-0.6h10.8c4.1,0,7.6,0.5,10.4,1.6
			c2.8,1.1,5.2,2.6,7.1,4.6c1.9,2,3.4,4.4,4.4,7.3C251.5,584.4,252,587.6,252,591.1z M245.3,591.4c0-2.6-0.3-5-1-7.2s-1.6-4.1-3-5.8
			c-1.4-1.6-3.1-2.9-5.2-3.8s-4.8-1.4-8-1.4h-6.4v37h6.5c3,0,5.6-0.4,7.7-1.1c2.1-0.8,3.8-1.9,5.2-3.5c1.4-1.6,2.4-3.5,3.1-5.9
			C245,597.4,245.3,594.6,245.3,591.4z"/>
	</g>
	<g class="st11">
		<path d="M430.3,602.3c0,2.2-0.4,4.2-1.2,6c-0.8,1.7-2,3.2-3.4,4.4c-1.5,1.2-3.2,2.1-5.1,2.7c-2,0.6-4.1,0.9-6.4,0.9
			c-1.6,0-3.1-0.1-4.4-0.4s-2.6-0.6-3.6-1c-1.1-0.4-2-0.8-2.7-1.2c-0.7-0.4-1.2-0.8-1.5-1.1c-0.3-0.3-0.5-0.7-0.6-1.1
			s-0.2-1.1-0.2-1.8c0-0.5,0-1,0.1-1.3c0-0.4,0.1-0.6,0.2-0.9s0.2-0.4,0.4-0.5c0.1-0.1,0.3-0.1,0.5-0.1c0.3,0,0.8,0.2,1.5,0.6
			c0.6,0.4,1.4,0.9,2.4,1.4c1,0.5,2.2,0.9,3.5,1.4s3,0.6,4.8,0.6c1.4,0,2.6-0.2,3.8-0.6c1.1-0.4,2.1-0.9,2.9-1.6
			c0.8-0.7,1.5-1.5,1.9-2.5c0.4-1,0.7-2.1,0.7-3.3c0-1.3-0.3-2.5-0.9-3.5c-0.6-1-1.4-1.8-2.4-2.5c-1-0.7-2.1-1.4-3.4-2
			c-1.3-0.6-2.6-1.2-4-1.8s-2.7-1.3-3.9-2.1c-1.3-0.8-2.4-1.7-3.4-2.7c-1-1-1.8-2.2-2.4-3.6c-0.6-1.4-0.9-3-0.9-5
			c0-2,0.4-3.8,1.1-5.3c0.7-1.6,1.7-2.9,3-3.9c1.3-1.1,2.8-1.9,4.6-2.4c1.8-0.6,3.7-0.8,5.8-0.8c1.1,0,2.1,0.1,3.2,0.3
			s2.1,0.4,3,0.7c0.9,0.3,1.8,0.6,2.5,1c0.7,0.4,1.2,0.7,1.5,0.9c0.2,0.2,0.4,0.4,0.5,0.6c0.1,0.1,0.1,0.3,0.2,0.5
			c0,0.2,0.1,0.5,0.1,0.8s0,0.7,0,1.1c0,0.4,0,0.8-0.1,1.2c0,0.3-0.1,0.6-0.2,0.9c-0.1,0.2-0.2,0.4-0.3,0.5s-0.3,0.2-0.5,0.2
			c-0.3,0-0.7-0.2-1.3-0.5c-0.6-0.3-1.3-0.7-2.1-1.2c-0.8-0.4-1.8-0.8-3-1.2c-1.1-0.4-2.4-0.5-3.8-0.5c-1.3,0-2.5,0.2-3.5,0.5
			c-1,0.4-1.8,0.8-2.4,1.4c-0.6,0.6-1.1,1.3-1.4,2.1s-0.5,1.7-0.5,2.6c0,1.3,0.3,2.5,0.9,3.4s1.4,1.8,2.4,2.5c1,0.7,2.2,1.4,3.5,2
			s2.6,1.2,4,1.9c1.3,0.6,2.7,1.3,4,2.1c1.3,0.7,2.5,1.6,3.5,2.6s1.8,2.2,2.5,3.6S430.3,600.4,430.3,602.3z"/>
		<path d="M445.4,570.5c0,1.4-0.3,2.4-0.8,2.9s-1.5,0.8-3,0.8c-1.4,0-2.4-0.3-2.9-0.8c-0.5-0.5-0.8-1.5-0.8-2.8
			c0-1.4,0.3-2.4,0.8-2.9c0.5-0.5,1.5-0.8,3-0.8c1.4,0,2.4,0.3,2.9,0.8S445.4,569.1,445.4,570.5z M444.7,614.7c0,0.2,0,0.4-0.1,0.5
			c-0.1,0.1-0.3,0.3-0.5,0.3c-0.2,0.1-0.5,0.2-0.9,0.2s-0.9,0.1-1.5,0.1c-0.6,0-1.1,0-1.5-0.1c-0.4,0-0.7-0.1-0.9-0.2
			c-0.2-0.1-0.4-0.2-0.5-0.3c-0.1-0.1-0.1-0.3-0.1-0.5v-33.1c0-0.2,0-0.3,0.1-0.5c0.1-0.1,0.2-0.3,0.5-0.4c0.2-0.1,0.5-0.2,0.9-0.2
			c0.4,0,0.9-0.1,1.5-0.1c0.6,0,1.1,0,1.5,0.1c0.4,0,0.7,0.1,0.9,0.2c0.2,0.1,0.4,0.2,0.5,0.4c0.1,0.1,0.1,0.3,0.1,0.5V614.7z"/>
		<path d="M483.5,583.1c0,0.9-0.1,1.5-0.3,1.9c-0.2,0.4-0.5,0.6-0.9,0.6h-4.7c0.9,0.9,1.5,1.9,1.8,2.9s0.5,2.2,0.5,3.3
			c0,1.9-0.3,3.6-0.9,5.1s-1.5,2.7-2.6,3.7c-1.1,1-2.5,1.8-4.1,2.3c-1.6,0.5-3.3,0.8-5.2,0.8c-1.3,0-2.6-0.2-3.8-0.5
			c-1.2-0.4-2.1-0.8-2.8-1.3c-0.4,0.4-0.8,0.9-1.1,1.5c-0.3,0.6-0.4,1.2-0.4,1.9c0,0.9,0.4,1.6,1.2,2.1c0.8,0.6,1.9,0.9,3.2,0.9
			l8.6,0.4c1.6,0,3.1,0.3,4.5,0.7c1.4,0.4,2.6,1,3.6,1.7c1,0.7,1.8,1.7,2.4,2.8c0.6,1.1,0.8,2.4,0.8,3.8c0,1.5-0.3,3-1,4.3
			c-0.6,1.4-1.6,2.6-2.9,3.6c-1.3,1-3,1.9-5,2.5c-2,0.6-4.4,0.9-7.2,0.9c-2.7,0-4.9-0.2-6.8-0.7c-1.9-0.5-3.4-1.1-4.6-1.9
			c-1.2-0.8-2.1-1.7-2.6-2.8c-0.5-1.1-0.8-2.3-0.8-3.5c0-0.8,0.1-1.6,0.3-2.4c0.2-0.8,0.5-1.5,0.9-2.2s0.9-1.3,1.5-2
			c0.6-0.6,1.3-1.2,2.1-1.9c-1.2-0.6-2.1-1.4-2.7-2.3s-0.9-1.9-0.9-3c0-1.5,0.3-2.8,0.9-4c0.6-1.2,1.4-2.2,2.3-3.2
			c-0.8-0.9-1.4-1.9-1.8-3.1c-0.4-1.1-0.7-2.5-0.7-4.1c0-1.9,0.3-3.6,1-5.1c0.6-1.5,1.5-2.8,2.6-3.8c1.1-1,2.5-1.8,4.1-2.4
			s3.3-0.8,5.2-0.8c1,0,1.9,0.1,2.8,0.2s1.7,0.3,2.4,0.5h10c0.4,0,0.7,0.2,0.9,0.6S483.5,582.3,483.5,583.1z M477.1,618
			c0-1.4-0.6-2.5-1.7-3.3c-1.2-0.8-2.7-1.2-4.7-1.2l-8.6-0.3c-0.8,0.6-1.4,1.2-1.9,1.7c-0.5,0.6-0.9,1.1-1.2,1.6s-0.5,1-0.6,1.5
			s-0.2,1-0.2,1.5c0,1.6,0.8,2.8,2.4,3.6c1.6,0.8,3.9,1.2,6.8,1.2c1.8,0,3.4-0.2,4.6-0.5c1.2-0.4,2.2-0.8,3-1.4
			c0.8-0.6,1.3-1.3,1.6-2C476.9,619.7,477.1,618.9,477.1,618z M474.1,591.8c0-2.3-0.6-4-1.9-5.3c-1.2-1.3-3-1.9-5.3-1.9
			c-1.2,0-2.2,0.2-3.1,0.6c-0.9,0.4-1.6,0.9-2.2,1.6c-0.6,0.7-1,1.5-1.3,2.4c-0.3,0.9-0.4,1.8-0.4,2.8c0,2.2,0.6,3.9,1.9,5.1
			c1.2,1.2,3,1.9,5.2,1.9c1.2,0,2.2-0.2,3.1-0.6c0.9-0.4,1.6-0.9,2.2-1.6c0.6-0.7,1-1.5,1.3-2.3
			C473.9,593.7,474.1,592.8,474.1,591.8z"/>
		<path d="M519.8,614.7c0,0.2,0,0.4-0.1,0.5c-0.1,0.1-0.3,0.3-0.5,0.3s-0.5,0.2-0.9,0.2s-0.9,0.1-1.5,0.1c-0.6,0-1.1,0-1.5-0.1
			c-0.4,0-0.7-0.1-0.9-0.2c-0.2-0.1-0.4-0.2-0.5-0.3c-0.1-0.1-0.1-0.3-0.1-0.5v-19.4c0-1.9-0.1-3.4-0.4-4.6s-0.7-2.1-1.3-3
			c-0.6-0.8-1.3-1.5-2.2-1.9c-0.9-0.4-1.9-0.7-3.1-0.7c-1.5,0-3,0.5-4.6,1.6s-3.1,2.7-4.8,4.7v23.1c0,0.2,0,0.4-0.1,0.5
			c-0.1,0.1-0.3,0.3-0.5,0.3c-0.2,0.1-0.5,0.2-0.9,0.2s-0.9,0.1-1.5,0.1c-0.6,0-1.1,0-1.5-0.1c-0.4,0-0.7-0.1-0.9-0.2
			c-0.2-0.1-0.4-0.2-0.5-0.3c-0.1-0.1-0.1-0.3-0.1-0.5v-33.1c0-0.2,0-0.4,0.1-0.5c0.1-0.1,0.2-0.3,0.4-0.4c0.2-0.1,0.5-0.2,0.8-0.2
			c0.3,0,0.8-0.1,1.4-0.1c0.5,0,1,0,1.3,0.1c0.4,0,0.6,0.1,0.8,0.2c0.2,0.1,0.3,0.2,0.4,0.4c0.1,0.1,0.1,0.3,0.1,0.5v4.4
			c1.9-2.1,3.7-3.6,5.6-4.6c1.8-1,3.7-1.5,5.6-1.5c2.2,0,4.1,0.4,5.6,1.1c1.5,0.7,2.7,1.7,3.7,3s1.6,2.7,2,4.4s0.6,3.7,0.6,6V614.7z
			"/>
		<path d="M555.8,614.7c0,0.3-0.1,0.5-0.3,0.7c-0.2,0.1-0.5,0.3-0.8,0.3s-0.8,0.1-1.5,0.1c-0.6,0-1.1,0-1.5-0.1s-0.7-0.2-0.8-0.3
			c-0.2-0.1-0.3-0.4-0.3-0.7v-3.3c-1.4,1.5-3.1,2.7-4.8,3.6c-1.8,0.9-3.7,1.3-5.6,1.3c-1.7,0-3.3-0.2-4.7-0.7s-2.6-1.1-3.6-2
			s-1.8-1.9-2.3-3.2c-0.6-1.2-0.8-2.7-0.8-4.3c0-1.9,0.4-3.5,1.1-4.8c0.8-1.4,1.8-2.5,3.3-3.4s3.2-1.6,5.2-2s4.4-0.7,6.9-0.7h4.6
			v-2.6c0-1.3-0.1-2.4-0.4-3.4s-0.7-1.8-1.3-2.4s-1.4-1.1-2.3-1.5c-1-0.3-2.1-0.5-3.5-0.5c-1.5,0-2.8,0.2-4,0.5
			c-1.2,0.4-2.2,0.7-3.1,1.2c-0.9,0.4-1.6,0.8-2.2,1.2c-0.6,0.4-1,0.5-1.3,0.5c-0.2,0-0.4,0-0.5-0.1c-0.1-0.1-0.3-0.2-0.4-0.4
			c-0.1-0.2-0.2-0.4-0.2-0.8c0-0.3-0.1-0.6-0.1-1c0-0.6,0-1.1,0.1-1.5s0.3-0.7,0.6-1s0.9-0.7,1.7-1.1c0.8-0.4,1.7-0.8,2.8-1.2
			c1.1-0.4,2.2-0.6,3.5-0.9c1.2-0.2,2.5-0.3,3.8-0.3c2.4,0,4.4,0.3,6.1,0.8c1.7,0.5,3,1.3,4,2.4c1,1,1.8,2.3,2.2,3.9
			c0.5,1.5,0.7,3.3,0.7,5.4V614.7z M549.7,599.6h-5.2c-1.7,0-3.1,0.1-4.3,0.4c-1.2,0.3-2.2,0.7-3,1.2c-0.8,0.6-1.4,1.2-1.8,2
			c-0.4,0.8-0.6,1.7-0.6,2.7c0,1.7,0.5,3.1,1.6,4.1c1.1,1,2.6,1.5,4.6,1.5c1.6,0,3.1-0.4,4.4-1.2s2.8-2,4.3-3.7V599.6z"/>
		<path d="M573,614.7c0,0.2,0,0.4-0.1,0.5c-0.1,0.1-0.3,0.3-0.5,0.3c-0.2,0.1-0.5,0.2-0.9,0.2s-0.9,0.1-1.5,0.1
			c-0.6,0-1.1,0-1.5-0.1c-0.4,0-0.7-0.1-0.9-0.2c-0.2-0.1-0.4-0.2-0.5-0.3c-0.1-0.1-0.1-0.3-0.1-0.5v-49.1c0-0.2,0-0.4,0.1-0.5
			c0.1-0.1,0.2-0.3,0.5-0.4c0.2-0.1,0.5-0.2,0.9-0.2c0.4,0,0.9-0.1,1.5-0.1c0.6,0,1.1,0,1.5,0.1s0.7,0.1,0.9,0.2
			c0.2,0.1,0.4,0.2,0.5,0.4c0.1,0.1,0.1,0.3,0.1,0.5V614.7z"/>
	</g>
	<g class="st11">
		<path d="M317.8,594.4c0,0.5,0,0.9-0.1,1.2c-0.1,0.3-0.2,0.6-0.3,0.8c-0.1,0.2-0.3,0.4-0.4,0.5c-0.2,0.1-0.4,0.1-0.6,0.1h-12.1
			v13.4c0,0.2,0,0.4-0.1,0.5c-0.1,0.1-0.3,0.3-0.5,0.3c-0.2,0.1-0.5,0.2-0.8,0.2c-0.3,0.1-0.8,0.1-1.3,0.1c-0.5,0-0.9,0-1.3-0.1
			c-0.4-0.1-0.6-0.1-0.8-0.2c-0.2-0.1-0.4-0.2-0.5-0.3s-0.1-0.3-0.1-0.5v-13.4h-12.1c-0.2,0-0.4,0-0.6-0.1c-0.2-0.1-0.3-0.3-0.4-0.5
			c-0.1-0.2-0.2-0.5-0.3-0.8c-0.1-0.3-0.1-0.7-0.1-1.2c0-0.4,0-0.8,0.1-1.2c0.1-0.3,0.2-0.6,0.3-0.8c0.1-0.2,0.3-0.4,0.4-0.5
			c0.2-0.1,0.3-0.1,0.5-0.1h12.1v-13.4c0-0.2,0-0.4,0.1-0.5c0.1-0.2,0.3-0.3,0.5-0.4c0.2-0.1,0.5-0.2,0.8-0.3
			c0.4-0.1,0.8-0.1,1.3-0.1c0.5,0,0.9,0,1.3,0.1c0.3,0.1,0.6,0.1,0.8,0.3s0.4,0.2,0.5,0.4c0.1,0.2,0.1,0.3,0.1,0.5v13.4h12.1
			c0.2,0,0.4,0,0.5,0.1c0.2,0.1,0.3,0.3,0.4,0.5c0.1,0.2,0.2,0.5,0.3,0.8C317.8,593.6,317.8,594,317.8,594.4z"/>
		<path d="M345.9,614.5c-0.1,0.3-0.2,0.5-0.4,0.7c-0.2,0.2-0.4,0.3-0.7,0.4c-0.3,0.1-0.7,0.2-1.2,0.2c-0.5,0-1.1,0.1-1.8,0.1
			c-0.5,0-1,0-1.4,0c-0.4,0-0.8,0-1-0.1c-0.3,0-0.5-0.1-0.8-0.2c-0.2-0.1-0.4-0.1-0.5-0.2c-0.1-0.1-0.3-0.2-0.3-0.3
			s-0.2-0.3-0.2-0.5L322,570.3c-0.2-0.5-0.3-1-0.3-1.3c0-0.3,0.1-0.6,0.3-0.8c0.2-0.2,0.6-0.3,1.1-0.3c0.5,0,1.2-0.1,2-0.1
			c0.7,0,1.2,0,1.6,0.1s0.7,0.1,0.9,0.2s0.4,0.2,0.5,0.4s0.2,0.4,0.3,0.6l13.6,40h0l13.3-39.9c0.1-0.3,0.2-0.5,0.3-0.7
			c0.1-0.2,0.3-0.3,0.5-0.4c0.2-0.1,0.6-0.2,1-0.2c0.4,0,1-0.1,1.8-0.1c0.8,0,1.4,0,1.8,0.1c0.4,0.1,0.7,0.2,0.9,0.3
			c0.2,0.2,0.2,0.4,0.2,0.8c0,0.3-0.2,0.8-0.3,1.3L345.9,614.5z"/>
	</g>
	<g class="st11">
		<path class="st0" d="M639.9-3.7c0.2,0,0.5,0.1,0.6,0.2c0.2,0.1,0.4,0.3,0.5,0.6c0.1,0.3,0.2,0.7,0.3,1.2s0.1,1.2,0.1,2
			c0,1,0,1.9-0.1,2.5c-0.1,0.7-0.3,1.1-0.5,1.5s-0.5,0.6-0.8,0.8L611,26.4H640c0.2,0,0.4,0.1,0.6,0.2c0.2,0.1,0.3,0.3,0.4,0.6
			c0.1,0.3,0.2,0.7,0.3,1.2c0.1,0.5,0.1,1.1,0.1,1.9c0,0.7,0,1.3-0.1,1.8c-0.1,0.5-0.2,0.9-0.3,1.2s-0.3,0.5-0.4,0.6
			s-0.4,0.2-0.6,0.2h-55.5c-0.2,0-0.4-0.1-0.6-0.2c-0.2-0.1-0.3-0.3-0.4-0.6c-0.1-0.3-0.2-0.7-0.3-1.2c-0.1-0.5-0.1-1.1-0.1-1.8
			c0-0.7,0-1.4,0.1-1.9c0.1-0.5,0.2-0.9,0.3-1.2c0.1-0.3,0.2-0.5,0.4-0.6c0.2-0.1,0.4-0.2,0.6-0.2h25.7L584.4,5.9
			c-0.3-0.2-0.5-0.4-0.7-0.6c-0.2-0.2-0.3-0.5-0.4-0.9s-0.2-0.8-0.2-1.3S583,2,583,1.2s0-1.4,0.1-1.9s0.2-0.9,0.3-1.1
			c0.1-0.3,0.3-0.5,0.4-0.6s0.4-0.2,0.6-0.2c0.4,0,0.8,0.1,1.2,0.3c0.4,0.2,0.9,0.6,1.6,1.1L610.2,18l27.5-20.7
			c0.8-0.5,1.3-0.8,1.6-0.9C639.5-3.6,639.7-3.7,639.9-3.7z"/>
		<path class="st0" d="M618.6-31.9H640c0.2,0,0.4,0.1,0.6,0.2c0.2,0.1,0.3,0.3,0.4,0.6c0.1,0.3,0.2,0.7,0.3,1.2
			c0.1,0.5,0.1,1.1,0.1,1.8c0,0.7,0,1.4-0.1,1.8s-0.2,0.9-0.3,1.2c-0.1,0.3-0.2,0.5-0.4,0.6c-0.2,0.1-0.4,0.2-0.6,0.2h-21.3L586-7.9
			c-0.7,0.3-1.2,0.5-1.6,0.6s-0.7,0-0.9-0.2c-0.2-0.2-0.3-0.6-0.4-1.2c-0.1-0.6-0.1-1.4-0.1-2.3c0-0.9,0-1.6,0.1-2.2s0.1-1,0.2-1.3
			s0.3-0.6,0.4-0.7c0.2-0.2,0.4-0.3,0.7-0.5l16.6-8c1.6-0.7,3.2-1.5,5-2.2c1.7-0.7,3.5-1.5,5.2-2.3v-0.1c-1.7-0.7-3.4-1.4-5.1-2.1
			c-1.7-0.7-3.3-1.5-5-2.2l-16.7-8c-0.3-0.1-0.6-0.2-0.8-0.4c-0.2-0.2-0.4-0.4-0.5-0.7c-0.1-0.3-0.2-0.7-0.2-1.2s-0.1-1.1-0.1-1.9
			c0-1.1,0-1.9,0.1-2.5s0.2-1,0.4-1.3c0.2-0.2,0.5-0.3,0.9-0.2s0.9,0.3,1.6,0.6L618.6-31.9z"/>
		<path class="st0" d="M618.6-70.2c1.2,0,2,0.1,2.4,0.4c0.4,0.3,0.7,0.7,0.7,1.2v18.7c0,0.5-0.2,0.9-0.7,1.2
			c-0.5,0.3-1.3,0.4-2.4,0.4s-1.9-0.1-2.4-0.4c-0.4-0.3-0.7-0.7-0.7-1.2v-18.7c0-0.2,0-0.5,0.1-0.6c0.1-0.2,0.3-0.4,0.5-0.5
			c0.3-0.1,0.6-0.2,1-0.3C617.5-70.1,618-70.2,618.6-70.2z"/>
		<path class="st0" d="M612.1-116.5c4.4,0,8.5,0.4,12.2,1.1s6.8,1.9,9.5,3.5c2.6,1.6,4.7,3.8,6.1,6.4c1.4,2.6,2.2,5.9,2.2,9.7
			c0,3.6-0.6,6.7-1.9,9.2s-3.2,4.5-5.7,6c-2.5,1.5-5.6,2.6-9.3,3.2c-3.7,0.6-7.9,1-12.7,1c-4.4,0-8.5-0.4-12.1-1.1s-6.8-1.9-9.5-3.5
			c-2.6-1.6-4.7-3.7-6.1-6.3c-1.4-2.6-2.2-5.8-2.2-9.7c0-3.7,0.6-6.7,1.9-9.2s3.2-4.5,5.7-6c2.5-1.5,5.6-2.6,9.3-3.2
			C603.1-116.2,607.3-116.5,612.1-116.5z M612.6-108.6c-2.9,0-5.5,0.1-7.8,0.3c-2.3,0.2-4.3,0.5-6.1,0.9s-3.3,0.9-4.5,1.6
			c-1.3,0.6-2.3,1.4-3.1,2.3c-0.8,0.9-1.4,1.9-1.8,3.1c-0.4,1.1-0.6,2.4-0.6,3.9c0,2.5,0.6,4.6,1.8,6.2c1.2,1.6,2.8,2.8,4.9,3.7
			c2.1,0.9,4.5,1.5,7.3,1.9c2.8,0.3,5.8,0.5,9,0.5c4.3,0,8-0.2,11-0.7s5.5-1.2,7.4-2.1c1.9-1,3.3-2.2,4.2-3.7
			c0.9-1.5,1.3-3.3,1.3-5.5c0-1.7-0.3-3.1-0.8-4.4c-0.5-1.3-1.3-2.4-2.3-3.3c-1-0.9-2.2-1.7-3.6-2.3s-3-1.1-4.7-1.4
			c-1.7-0.4-3.5-0.6-5.5-0.7C616.8-108.6,614.8-108.6,612.6-108.6z"/>
		<path class="st0" d="M637.8-161c0.5,0,1,0,1.4,0.1c0.4,0.1,0.8,0.2,1.1,0.3c0.3,0.1,0.5,0.3,0.6,0.5s0.2,0.5,0.2,0.7v32
			c0,0.4-0.1,0.8-0.2,1.1c-0.1,0.3-0.3,0.6-0.5,0.8c-0.2,0.2-0.6,0.4-1,0.5s-1,0.2-1.7,0.2c-0.6,0-1.1,0-1.6-0.1s-0.8-0.1-1.2-0.3
			c-0.3-0.2-0.7-0.3-1-0.6c-0.3-0.2-0.7-0.5-1.1-0.9L621-138.2c-2.7-2.7-5.2-4.8-7.4-6.4c-2.2-1.6-4.2-2.9-5.9-3.7
			c-1.8-0.9-3.4-1.5-4.9-1.7c-1.5-0.3-2.8-0.4-4.1-0.4c-1.3,0-2.5,0.2-3.6,0.6s-2.2,1.1-3,1.9c-0.9,0.8-1.5,1.8-2.1,3.1
			s-0.8,2.6-0.8,4.2c0,1.9,0.3,3.6,0.8,5.1s1.1,2.8,1.7,3.9c0.6,1.1,1.1,2.1,1.7,2.8c0.5,0.8,0.8,1.3,0.8,1.7c0,0.2-0.1,0.4-0.2,0.6
			c-0.1,0.2-0.3,0.3-0.6,0.4s-0.6,0.2-1.1,0.3s-1,0.1-1.6,0.1c-0.4,0-0.8,0-1.2,0c-0.3,0-0.6-0.1-0.8-0.2c-0.2-0.1-0.5-0.2-0.7-0.3
			c-0.2-0.1-0.5-0.4-0.8-0.7c-0.3-0.4-0.7-1-1.3-1.9c-0.5-0.9-1.1-2-1.6-3.3c-0.5-1.3-1-2.8-1.3-4.4c-0.4-1.6-0.5-3.3-0.5-5
			c0-2.8,0.4-5.3,1.2-7.4c0.8-2.1,1.9-3.8,3.2-5.2c1.4-1.4,3-2.4,4.8-3.1c1.8-0.7,3.8-1,5.8-1c1.8,0,3.7,0.2,5.5,0.5
			c1.8,0.3,3.8,1,5.9,2.1c2.1,1.1,4.5,2.6,7.1,4.6s5.6,4.7,9,8l9.6,9.2v-25.2c0-0.2,0.1-0.5,0.2-0.7c0.1-0.2,0.3-0.4,0.6-0.6
			c0.3-0.2,0.6-0.3,1-0.4C636.8-161,637.3-161,637.8-161z"/>
		<path class="st0" d="M637.8-207.4c0.5,0,1,0,1.4,0.1c0.4,0.1,0.8,0.2,1.1,0.3c0.3,0.1,0.5,0.3,0.6,0.5s0.2,0.5,0.2,0.7v32
			c0,0.4-0.1,0.8-0.2,1.1c-0.1,0.3-0.3,0.6-0.5,0.8c-0.2,0.2-0.6,0.4-1,0.5s-1,0.2-1.7,0.2c-0.6,0-1.1,0-1.6-0.1s-0.8-0.1-1.2-0.3
			c-0.3-0.2-0.7-0.3-1-0.6c-0.3-0.2-0.7-0.5-1.1-0.9L621-184.6c-2.7-2.7-5.2-4.8-7.4-6.4c-2.2-1.6-4.2-2.9-5.9-3.7
			c-1.8-0.9-3.4-1.5-4.9-1.7c-1.5-0.3-2.8-0.4-4.1-0.4c-1.3,0-2.5,0.2-3.6,0.6s-2.2,1.1-3,1.9c-0.9,0.8-1.5,1.8-2.1,3.1
			s-0.8,2.6-0.8,4.2c0,1.9,0.3,3.6,0.8,5.1s1.1,2.8,1.7,3.9c0.6,1.1,1.1,2.1,1.7,2.8c0.5,0.8,0.8,1.3,0.8,1.7c0,0.2-0.1,0.4-0.2,0.6
			c-0.1,0.2-0.3,0.3-0.6,0.4s-0.6,0.2-1.1,0.3s-1,0.1-1.6,0.1c-0.4,0-0.8,0-1.2,0c-0.3,0-0.6-0.1-0.8-0.2c-0.2-0.1-0.5-0.2-0.7-0.3
			c-0.2-0.1-0.5-0.4-0.8-0.7c-0.3-0.4-0.7-1-1.3-1.9c-0.5-0.9-1.1-2-1.6-3.3c-0.5-1.3-1-2.8-1.3-4.4c-0.4-1.6-0.5-3.3-0.5-5
			c0-2.8,0.4-5.3,1.2-7.4c0.8-2.1,1.9-3.8,3.2-5.2c1.4-1.4,3-2.4,4.8-3.1c1.8-0.7,3.8-1,5.8-1c1.8,0,3.7,0.2,5.5,0.5
			c1.8,0.3,3.8,1,5.9,2.1c2.1,1.1,4.5,2.6,7.1,4.6s5.6,4.7,9,8l9.6,9.2v-25.2c0-0.2,0.1-0.5,0.2-0.7c0.1-0.2,0.3-0.4,0.6-0.6
			c0.3-0.2,0.6-0.3,1-0.4C636.8-207.4,637.3-207.4,637.8-207.4z"/>
	</g>
	<g class="st11">
		<path class="st0" d="M64.5,140c0.4,0,0.8,0,1.1,0.1c0.3,0.1,0.6,0.2,0.7,0.3c0.2,0.1,0.3,0.3,0.4,0.4c0.1,0.2,0.1,0.3,0.1,0.5
			v23.9c0,0.2,0,0.3-0.1,0.5c-0.1,0.1-0.2,0.3-0.4,0.4c-0.2,0.1-0.4,0.2-0.7,0.3c-0.3,0.1-0.7,0.1-1.1,0.1c-0.4,0-0.8,0-1.1-0.1
			c-0.3-0.1-0.6-0.2-0.8-0.3c-0.2-0.1-0.4-0.2-0.5-0.4c-0.1-0.2-0.2-0.3-0.2-0.5v-9.5H27.3l5.3,8.8c0.2,0.4,0.4,0.8,0.4,1.1
			c0,0.3,0,0.5-0.2,0.7c-0.2,0.2-0.4,0.3-0.8,0.3c-0.4,0.1-0.8,0.1-1.3,0.1c-0.4,0-0.7,0-1-0.1c-0.3,0-0.5-0.1-0.7-0.2
			c-0.2-0.1-0.4-0.2-0.5-0.3c-0.1-0.1-0.3-0.3-0.4-0.5L21.3,155c-0.1-0.1-0.1-0.2-0.2-0.4c0-0.1-0.1-0.3-0.1-0.5s-0.1-0.5-0.1-0.7
			c0-0.3,0-0.6,0-1.1c0-0.6,0-1,0.1-1.4c0-0.4,0.1-0.7,0.2-0.9c0.1-0.2,0.2-0.4,0.3-0.4c0.1-0.1,0.3-0.1,0.4-0.1H62v-8.3
			c0-0.2,0.1-0.4,0.2-0.5c0.1-0.2,0.3-0.3,0.5-0.4c0.2-0.1,0.5-0.2,0.8-0.2S64,140,64.5,140z"/>
		<path class="st0" d="M43.9,101.9c3.5,0,6.7,0.3,9.6,0.8c2.9,0.6,5.4,1.5,7.5,2.8c2.1,1.3,3.7,3,4.8,5c1.1,2.1,1.7,4.6,1.7,7.7
			c0,2.9-0.5,5.3-1.5,7.3c-1,2-2.5,3.5-4.5,4.7s-4.4,2.1-7.3,2.6c-2.9,0.5-6.2,0.8-10,0.8c-3.5,0-6.7-0.3-9.6-0.8
			c-2.9-0.6-5.4-1.5-7.5-2.8c-2.1-1.3-3.7-2.9-4.8-5s-1.7-4.6-1.7-7.6c0-2.9,0.5-5.3,1.5-7.3c1-2,2.5-3.5,4.5-4.7
			c2-1.2,4.4-2.1,7.3-2.6C36.8,102.2,40.2,101.9,43.9,101.9z M44.3,108.1c-2.3,0-4.3,0.1-6.1,0.2c-1.8,0.2-3.4,0.4-4.8,0.7
			s-2.6,0.7-3.6,1.2c-1,0.5-1.8,1.1-2.5,1.8s-1.1,1.5-1.4,2.4c-0.3,0.9-0.4,1.9-0.4,3.1c0,2,0.5,3.6,1.4,4.9s2.2,2.2,3.9,2.9
			c1.6,0.7,3.6,1.2,5.8,1.5s4.6,0.4,7.1,0.4c3.4,0,6.3-0.2,8.7-0.5c2.4-0.4,4.3-0.9,5.8-1.7c1.5-0.8,2.6-1.7,3.3-2.9
			c0.7-1.2,1-2.6,1-4.3c0-1.3-0.2-2.5-0.6-3.5s-1-1.9-1.8-2.6c-0.8-0.7-1.7-1.3-2.8-1.8s-2.3-0.8-3.7-1.1s-2.8-0.5-4.4-0.6
			C47.7,108.2,46,108.1,44.3,108.1z"/>
		<path class="st0" d="M64.3,66.8c0.4,0,0.8,0,1.1,0.1c0.3,0.1,0.6,0.1,0.8,0.2c0.2,0.1,0.4,0.2,0.5,0.4c0.1,0.2,0.2,0.4,0.2,0.6
			v25.2c0,0.3,0,0.6-0.1,0.9c-0.1,0.2-0.2,0.5-0.4,0.6c-0.2,0.2-0.5,0.3-0.8,0.4c-0.4,0.1-0.8,0.1-1.3,0.1c-0.5,0-0.9,0-1.2-0.1
			c-0.4,0-0.7-0.1-0.9-0.2c-0.3-0.1-0.5-0.3-0.8-0.5s-0.6-0.4-0.9-0.7L51,84.8c-2.2-2.1-4.1-3.8-5.8-5.1c-1.7-1.3-3.3-2.3-4.7-2.9
			c-1.4-0.7-2.7-1.1-3.8-1.4s-2.2-0.3-3.2-0.3s-2,0.2-2.9,0.5s-1.7,0.8-2.4,1.5c-0.7,0.6-1.2,1.5-1.6,2.4c-0.4,1-0.6,2.1-0.6,3.4
			c0,1.5,0.2,2.8,0.6,4c0.4,1.2,0.8,2.2,1.3,3.1c0.5,0.9,0.9,1.6,1.3,2.2s0.6,1,0.6,1.3c0,0.2,0,0.3-0.1,0.5s-0.2,0.2-0.5,0.3
			c-0.2,0.1-0.5,0.2-0.8,0.2c-0.4,0-0.8,0.1-1.3,0.1c-0.4,0-0.7,0-0.9,0c-0.3,0-0.5-0.1-0.7-0.1c-0.2-0.1-0.4-0.1-0.5-0.2
			c-0.2-0.1-0.4-0.3-0.6-0.6s-0.6-0.8-1-1.5c-0.4-0.7-0.8-1.6-1.3-2.6c-0.4-1-0.8-2.2-1-3.5c-0.3-1.3-0.4-2.6-0.4-4
			c0-2.2,0.3-4.1,0.9-5.8c0.6-1.7,1.5-3,2.6-4.1c1.1-1.1,2.3-1.9,3.8-2.5c1.4-0.5,3-0.8,4.6-0.8c1.5,0,2.9,0.1,4.4,0.4
			c1.4,0.3,3,0.8,4.7,1.6c1.7,0.8,3.6,2,5.6,3.6c2.1,1.6,4.4,3.7,7.1,6.3l7.6,7.2V68.2c0-0.2,0.1-0.4,0.2-0.5
			c0.1-0.2,0.3-0.3,0.5-0.5c0.2-0.1,0.5-0.2,0.8-0.3C63.5,66.8,63.8,66.8,64.3,66.8z"/>
	</g>
	<g class="st11">
		<path class="st0" d="M116.8,345.5c0,1.2-0.4,2-1.1,2.4c-0.7,0.4-1.8,0.7-3.2,0.7H61.8c-1.5,0-2.5-0.2-3.3-0.7
			c-0.7-0.5-1.1-1.3-1.1-2.4s0.4-1.9,1.1-2.4c0.7-0.4,1.8-0.7,3.3-0.7h50.7c0.6,0,1.2,0,1.8,0.1c0.5,0.1,1,0.3,1.3,0.5
			c0.4,0.3,0.6,0.6,0.8,1C116.7,344.5,116.8,345,116.8,345.5z"/>
	</g>
	<g class="st11">
		<path class="st0" d="M569.3,356.9c0,2.7-0.5,5.1-1.5,7.2c-1,2.1-2.4,3.9-4.2,5.4c-1.8,1.5-3.9,2.6-6.3,3.3c-2.4,0.7-5,1.1-7.8,1.1
			c-1.9,0-3.7-0.2-5.4-0.5s-3.1-0.7-4.4-1.2c-1.3-0.5-2.4-1-3.3-1.5c-0.9-0.5-1.5-0.9-1.8-1.3s-0.6-0.8-0.8-1.4
			c-0.2-0.6-0.2-1.3-0.2-2.2c0-0.7,0-1.2,0.1-1.6c0.1-0.4,0.1-0.8,0.3-1.1c0.1-0.3,0.3-0.5,0.4-0.6c0.2-0.1,0.4-0.2,0.6-0.2
			c0.4,0,1,0.3,1.8,0.8c0.8,0.5,1.7,1.1,2.9,1.7c1.2,0.6,2.6,1.2,4.3,1.7c1.7,0.5,3.6,0.8,5.8,0.8c1.7,0,3.2-0.2,4.6-0.7
			c1.4-0.4,2.6-1.1,3.6-1.9c1-0.8,1.8-1.8,2.3-3c0.5-1.2,0.8-2.5,0.8-4.1c0-1.6-0.4-3-1.1-4.2c-0.7-1.2-1.7-2.2-3-3.1
			c-1.2-0.9-2.6-1.7-4.2-2.4c-1.6-0.7-3.2-1.5-4.8-2.2c-1.6-0.8-3.2-1.6-4.8-2.5c-1.6-0.9-2.9-2-4.2-3.3s-2.2-2.7-3-4.4
			c-0.8-1.7-1.1-3.7-1.1-6.1c0-2.4,0.4-4.6,1.3-6.5c0.9-1.9,2.1-3.5,3.7-4.8c1.6-1.3,3.4-2.3,5.6-2.9c2.2-0.7,4.5-1,7-1
			c1.3,0,2.6,0.1,3.9,0.3s2.5,0.5,3.7,0.9c1.1,0.4,2.2,0.8,3.1,1.3c0.9,0.5,1.5,0.8,1.8,1.1c0.3,0.3,0.5,0.5,0.6,0.7
			c0.1,0.2,0.2,0.4,0.2,0.6c0.1,0.3,0.1,0.6,0.1,0.9c0,0.4,0,0.8,0,1.4c0,0.5,0,1-0.1,1.4c0,0.4-0.1,0.8-0.2,1.1s-0.2,0.5-0.4,0.6
			c-0.2,0.1-0.4,0.2-0.6,0.2c-0.3,0-0.8-0.2-1.5-0.6c-0.7-0.4-1.6-0.9-2.6-1.4c-1-0.5-2.2-1-3.6-1.4c-1.4-0.4-2.9-0.6-4.7-0.6
			c-1.6,0-3,0.2-4.2,0.6c-1.2,0.4-2.2,1-3,1.7c-0.8,0.7-1.4,1.6-1.7,2.5c-0.4,1-0.6,2-0.6,3.1c0,1.6,0.4,3,1.1,4.2
			c0.7,1.2,1.7,2.2,3,3.1c1.2,0.9,2.6,1.7,4.2,2.5c1.6,0.7,3.2,1.5,4.8,2.3c1.6,0.8,3.2,1.6,4.8,2.5c1.6,0.9,3,2,4.2,3.2
			c1.2,1.2,2.2,2.7,3,4.4C568.9,352.6,569.3,354.6,569.3,356.9z"/>
	</g>
</g>
</svg>
