<?xml version="1.0" encoding="utf-8"?>
<!-- Generator: Adobe Illustrator 27.8.0, SVG Export Plug-In . SVG Version: 6.00 Build 0)  -->
<svg version="1.1"
	 id="svg8" xmlns:svg="http://www.w3.org/2000/svg" xmlns:rdf="http://www.w3.org/1999/02/22-rdf-syntax-ns#" xmlns:sodipodi="http://sodipodi.sourceforge.net/DTD/sodipodi-0.dtd" xmlns:dc="http://purl.org/dc/elements/1.1/" xmlns:inkscape="http://www.inkscape.org/namespaces/inkscape" xmlns:cc="http://creativecommons.org/ns#" inkscape:export-xdpi="93" inkscape:export-ydpi="93" inkscape:version="0.92.4 (5da689c313, 2019-01-14)"
	 xmlns="http://www.w3.org/2000/svg" xmlns:xlink="http://www.w3.org/1999/xlink" x="0px" y="0px" viewBox="0 0 566.9 623.6"
	 style="enable-background:new 0 0 566.9 623.6;" xml:space="preserve">
<style type="text/css">
	.st0{fill:#4D4D4D;}
	.st1{enable-background:new    ;}
	.st2{fill:#FF0000;}
</style>
<defs>
	
		<inkscape:path-effect  apply_no_weight="true" apply_with_weight="true" effect="bspline" helper_size="0" id="path-effect872" is_visible="true" only_selected="false" steps="2" weight="33.333333">
		</inkscape:path-effect>
</defs>
<sodipodi:namedview  bordercolor="#666666" borderopacity="1.0" id="base" inkscape:current-layer="layer1" inkscape:cx="-16.949733" inkscape:cy="394.34349" inkscape:document-units="mm" inkscape:guide-bbox="true" inkscape:pagecheckerboard="false" inkscape:pageopacity="1" inkscape:pageshadow="2" inkscape:window-height="1017" inkscape:window-maximized="1" inkscape:window-width="1920" inkscape:window-x="-8" inkscape:window-y="-8" inkscape:zoom="1" pagecolor="#373737" showgrid="false" showguides="true">
	</sodipodi:namedview>
<g id="layer1" transform="translate(0,-77)" inkscape:groupmode="layer" inkscape:label="Ebene 1">
	<rect id="rect826" x="33.5" y="691.5" class="st0" width="79.4" height="9.1"/>
	<rect id="rect828" x="68.6" y="466.1" class="st0" width="9.1" height="231.9"/>
	<circle id="path842" class="st0" cx="73.3" cy="348.1" r="10.8"/>
	<rect id="rect844" x="68.6" y="279.2" class="st0" width="9.1" height="110.3"/>
	<rect id="rect846" x="72.8" y="343.6" class="st0" width="163.6" height="9.1"/>
	<rect id="rect856" x="68.6" y="100.3" class="st0" width="9.1" height="118.8"/>
	
		<path id="path860" inkscape:flatsided="true" inkscape:randomized="0" inkscape:rounded="0" inkscape:transform-center-x="0.028865177" inkscape:transform-center-y="-3.2765104" sodipodi:arg1="0.52796978" sodipodi:arg2="1.5751673" sodipodi:cx="25.959108" sodipodi:cy="91.939247" sodipodi:r1="13.206109" sodipodi:r2="6.6030545" sodipodi:sides="3" sodipodi:type="star" class="st0" d="
		M105.9,138.2l-64.8-0.3l32.7-56L105.9,138.2z"/>
	<path id="path864" inkscape:connector-curvature="0" class="st0" d="M231.9,410c-10.6,0-19.1,8.6-19.1,19.1c0,0,0,0,0,0
		c0,10.6,8.6,19.1,19.1,19.1c0,0,0,0,0,0c10.6,0,19.1-8.6,19.1-19.1C251,418.6,242.4,410,231.9,410z M231.9,415.2
		c7.7,0,13.9,6.2,13.9,13.9c0,7.7-6.2,13.9-13.9,13.9c-7.7,0-13.9-6.2-13.9-13.9c0,0,0,0,0,0C218,421.4,224.2,415.2,231.9,415.2
		C231.9,415.2,231.9,415.2,231.9,415.2z"/>
	<rect id="rect877" x="53.9" y="276.6" class="st0" width="38.6" height="9.1"/>
	<rect id="rect879" x="53.9" y="213.4" class="st0" width="9.1" height="72.3"/>
	<rect id="rect881" x="83.4" y="213.4" class="st0" width="9.1" height="72.3"/>
	<rect id="rect883" x="53.9" y="213.4" class="st0" width="38.6" height="9.1"/>
	<g class="st1">
		<path d="M24.4,99.7c0,0.2,0,0.4,0,0.5s-0.1,0.3-0.1,0.4c-0.1,0.1-0.1,0.2-0.2,0.2c-0.1,0-0.2,0.1-0.2,0.1h-5.1v5.7
			c0,0.1,0,0.2-0.1,0.2c0,0.1-0.1,0.1-0.2,0.1c-0.1,0-0.2,0.1-0.4,0.1c-0.1,0-0.3,0-0.5,0c-0.2,0-0.4,0-0.5,0
			c-0.2,0-0.3-0.1-0.4-0.1c-0.1,0-0.2-0.1-0.2-0.1c0-0.1-0.1-0.1-0.1-0.2v-5.7h-5.1c-0.1,0-0.2,0-0.2-0.1c-0.1,0-0.1-0.1-0.2-0.2
			c-0.1-0.1-0.1-0.2-0.1-0.4s0-0.3,0-0.5c0-0.2,0-0.4,0-0.5s0.1-0.3,0.1-0.4c0.1-0.1,0.1-0.2,0.2-0.2c0.1,0,0.1-0.1,0.2-0.1h5.1
			v-5.7c0-0.1,0-0.2,0.1-0.2c0-0.1,0.1-0.1,0.2-0.2c0.1,0,0.2-0.1,0.4-0.1c0.2,0,0.3,0,0.5,0c0.2,0,0.4,0,0.5,0
			c0.1,0,0.3,0.1,0.4,0.1c0.1,0,0.2,0.1,0.2,0.2c0,0.1,0.1,0.1,0.1,0.2v5.7h5.1c0.1,0,0.2,0,0.2,0.1c0.1,0,0.1,0.1,0.2,0.2
			c0.1,0.1,0.1,0.2,0.1,0.4C24.3,99.3,24.4,99.5,24.4,99.7z"/>
		<path d="M36.3,108.2c0,0.1-0.1,0.2-0.2,0.3c-0.1,0.1-0.2,0.1-0.3,0.2c-0.1,0-0.3,0.1-0.5,0.1s-0.5,0-0.8,0c-0.2,0-0.4,0-0.6,0
			c-0.2,0-0.3,0-0.4,0c-0.1,0-0.2,0-0.3-0.1c-0.1,0-0.2-0.1-0.2-0.1c-0.1,0-0.1-0.1-0.1-0.1c0-0.1-0.1-0.1-0.1-0.2l-6.6-18.8
			C26,89.2,26,89,26,88.8c0-0.1,0-0.2,0.1-0.3c0.1-0.1,0.2-0.1,0.5-0.1c0.2,0,0.5,0,0.8,0c0.3,0,0.5,0,0.7,0s0.3,0,0.4,0.1
			c0.1,0,0.2,0.1,0.2,0.2s0.1,0.2,0.1,0.3l5.8,17h0l5.6-17c0-0.1,0.1-0.2,0.1-0.3c0-0.1,0.1-0.1,0.2-0.2c0.1,0,0.2-0.1,0.4-0.1
			s0.4,0,0.8,0c0.3,0,0.6,0,0.8,0c0.2,0,0.3,0.1,0.4,0.1c0.1,0.1,0.1,0.2,0.1,0.3s-0.1,0.3-0.1,0.6L36.3,108.2z"/>
	</g>
	<rect id="rect845" x="227.3" y="343.6" class="st0" width="9.1" height="72.3"/>
	<rect id="rect847" x="227.3" y="442.2" class="st0" width="9.1" height="72.3"/>
	<rect id="rect849" x="72.8" y="505.4" class="st0" width="163.6" height="9.1"/>
	<circle id="circle851" class="st0" cx="73.3" cy="509.4" r="10.8"/>
	<path id="path853" inkscape:connector-curvature="0" class="st0" d="M73.1,385.4c-23.5,0-42.5,19-42.5,42.5c0,0,0,0,0,0
		c0,23.5,19,42.5,42.5,42.5c23.5,0,42.5-19,42.5-42.5C115.6,404.5,96.6,385.4,73.1,385.4z M73.1,391.4c20.2,0,36.6,16.4,36.6,36.6
		c0,0,0,0,0,0c0,20.2-16.4,36.6-36.6,36.6c0,0,0,0,0,0c-20.2,0-36.6-16.4-36.6-36.6C36.5,407.8,52.9,391.4,73.1,391.4
		C73.1,391.4,73.1,391.4,73.1,391.4L73.1,391.4z"/>
	<rect id="rect858" x="71.4" y="446.4" class="st0" width="2.8" height="19.7"/>
	<rect id="rect860" x="71.4" y="389.5" class="st0" width="2.8" height="19.7"/>
	<rect id="rect868" x="54.5" y="412.3" class="st0" width="2.8" height="31.2"/>
	<polygon id="rect876" class="st0" points="74.2,409.2 56.8,427.3 54.8,425.2 72.2,407.2 	"/>
	<polygon id="rect836" class="st0" points="74.2,446.4 56.8,428.3 54.8,430.4 72.2,448.4 	"/>
	<rect id="rect838" x="33.2" y="426.4" class="st0" width="24" height="2.8"/>
	<path id="rect848" class="st0" d="M6,428.4l-2,2l17.4,18h-9.4v2.8h14.2v-2.8v-11.3h-2.8v9.3L6,428.4z"/>
	<path id="rect850" class="st0" d="M6,399.2l-2,2l17.4,18h-9.4v2.8h14.2v-2.8v-11.3h-2.8v9.3L6,399.2z"/>
	
		<path id="path883" inkscape:flatsided="true" inkscape:randomized="0" inkscape:rounded="0" inkscape:transform-center-x="0.36158208" inkscape:transform-center-y="-0.31406158" sodipodi:arg1="0.83041278" sodipodi:arg2="1.8776103" sodipodi:cx="23.961329" sodipodi:cy="200.80742" sodipodi:r1="1.2992438" sodipodi:r2="0.6496219" sodipodi:sides="3" sodipodi:type="star" class="st0" d="
		M61.1,444l9.2-8.9l3.1,12.4L61.1,444z"/>
	<g class="st1">
		<path class="st2" d="M118.2,260c0,0.1,0,0.2,0,0.2s-0.1,0.1-0.2,0.2c-0.1,0-0.2,0.1-0.4,0.1c-0.2,0-0.4,0-0.8,0
			c-0.3,0-0.5,0-0.7,0c-0.2,0-0.3-0.1-0.4-0.1c-0.1,0-0.2-0.1-0.2-0.2c-0.1-0.1-0.1-0.2-0.1-0.3l-1.9-4.8c-0.2-0.5-0.4-1-0.7-1.5
			s-0.5-0.8-0.8-1.2c-0.3-0.3-0.7-0.6-1.1-0.8c-0.4-0.2-1-0.3-1.6-0.3h-1.8v8.6c0,0.1,0,0.2-0.1,0.2s-0.1,0.1-0.2,0.1
			c-0.1,0-0.2,0.1-0.4,0.1c-0.2,0-0.4,0-0.6,0c-0.3,0-0.5,0-0.6,0c-0.2,0-0.3-0.1-0.4-0.1c-0.1,0-0.2-0.1-0.2-0.1
			c0-0.1-0.1-0.1-0.1-0.2v-18.7c0-0.4,0.1-0.7,0.3-0.9c0.2-0.2,0.4-0.2,0.7-0.2h4.3c0.5,0,0.9,0,1.3,0c0.3,0,0.6,0.1,0.9,0.1
			c0.8,0.1,1.5,0.3,2.1,0.6c0.6,0.3,1.1,0.7,1.5,1.1c0.4,0.4,0.7,1,0.9,1.5s0.3,1.2,0.3,1.9c0,0.7-0.1,1.3-0.3,1.8
			c-0.2,0.5-0.4,1-0.8,1.4c-0.3,0.4-0.8,0.8-1.2,1.1c-0.5,0.3-1,0.6-1.6,0.8c0.3,0.1,0.6,0.3,0.9,0.6c0.3,0.2,0.5,0.5,0.8,0.8
			s0.5,0.7,0.7,1.1c0.2,0.4,0.4,0.9,0.6,1.4l1.8,4.5c0.1,0.4,0.2,0.6,0.3,0.8C118.2,259.8,118.2,259.9,118.2,260z M114.1,245.8
			c0-0.8-0.2-1.5-0.5-2c-0.4-0.5-0.9-0.9-1.8-1.2c-0.3-0.1-0.6-0.1-0.9-0.2s-0.8,0-1.3,0h-2.3v6.8h2.6c0.7,0,1.3-0.1,1.8-0.3
			s0.9-0.4,1.3-0.7c0.3-0.3,0.6-0.7,0.8-1.1C114,246.7,114.1,246.3,114.1,245.8z"/>
	</g>
</g>
</svg>
