<?xml version="1.0" encoding="utf-8"?>
<!-- Generator: Adobe Illustrator 27.8.0, SVG Export Plug-In . SVG Version: 6.00 Build 0)  -->
<svg version="1.1"
	 id="svg8" xmlns:svg="http://www.w3.org/2000/svg" xmlns:rdf="http://www.w3.org/1999/02/22-rdf-syntax-ns#" xmlns:sodipodi="http://sodipodi.sourceforge.net/DTD/sodipodi-0.dtd" xmlns:dc="http://purl.org/dc/elements/1.1/" xmlns:inkscape="http://www.inkscape.org/namespaces/inkscape" xmlns:cc="http://creativecommons.org/ns#" inkscape:export-xdpi="93" inkscape:export-ydpi="93" inkscape:version="0.92.4 (5da689c313, 2019-01-14)"
	 xmlns="http://www.w3.org/2000/svg" xmlns:xlink="http://www.w3.org/1999/xlink" x="0px" y="0px" viewBox="0 0 360 1081"
	 style="enable-background:new 0 0 360 1081;" xml:space="preserve">
<style type="text/css">
	.st0{fill:#FFFFFF;}
	.st1{fill:#1A1A1A;}
	.st2{opacity:0.99;fill:#808080;enable-background:new    ;}
	.st3{fill:#CCCCCC;}
	.st4{fill:#0000FF;}
	.st5{fill:#AB9C38;}
	.st6{fill:#978521;}
	.st7{fill:#333333;}
	.st8{fill:#999999;}
	.st9{enable-background:new    ;}
</style>
<defs>
	
		<inkscape:perspective  id="perspective876" inkscape:persp3d-origin="105 : 98.999981 : 1" inkscape:vp_x="0 : 148.49996 : 1" inkscape:vp_y="0 : 999.9998 : 0" inkscape:vp_z="210.00001 : 148.49996 : 1" sodipodi:type="inkscape:persp3d">
		</inkscape:perspective>
</defs>
<sodipodi:namedview  bordercolor="#666666" borderopacity="1.0" id="base" inkscape:current-layer="layer1" inkscape:cx="106.22264" inkscape:cy="2532.5501" inkscape:document-units="mm" inkscape:lockguides="false" inkscape:pageopacity="0" inkscape:pageshadow="2" inkscape:window-height="1017" inkscape:window-maximized="1" inkscape:window-width="1920" inkscape:window-x="-8" inkscape:window-y="-8" inkscape:zoom="0.1767767" pagecolor="#323232" showgrid="false" showguides="true" width="500mm">
	</sodipodi:namedview>
<g id="layer1" transform="translate(0.31582593,1052.811)" inkscape:groupmode="layer" inkscape:label="Ebene 1">
	<path id="rect815" inkscape:connector-curvature="0" d="M279.7-963.7v160.4l-200,0.2v-160.2h-80v160.3v0.8h0l0.5,662.5l359.7-0.4
		l-0.5-662.5h0.3v-161.1H279.7z"/>
	<rect id="rect821" x="53.9" y="-209" class="st0" width="252" height="63.9"/>
	<path id="rect825" class="st1" d="M67-205.2l37.6,0c6.6,0,11.9,5.3,11.9,11.9l0,33c0,6.6-5.3,11.9-11.9,11.9l-37.6,0
		c-6.6,0-11.9-5.3-11.9-11.9l0-33C55.1-199.9,60.4-205.2,67-205.2z"/>
	<path id="rect872" class="st1" d="M192.3-205.4l37.6,0c6.6,0,11.9,5.3,11.9,11.9l0,33c0,6.6-5.3,11.9-11.9,11.9l-37.6,0
		c-6.6,0-11.9-5.3-11.9-11.9l0-33C180.4-200,185.7-205.3,192.3-205.4z"/>
	<path id="rect874" class="st1" d="M128.1-205.3l40.6,0c5.7,0,10.3,4.6,10.4,10.3l0,36c0,5.7-4.6,10.3-10.3,10.4l-40.6,0
		c-5.7,0-10.3-4.6-10.4-10.3l0-36C117.8-200.7,122.4-205.3,128.1-205.3z"/>
	<rect id="rect947" x="82.4" y="-174.4" class="st2" width="6.3" height="120"/>
	<rect id="rect949" x="145.4" y="-174.4" class="st2" width="6.3" height="120"/>
	<rect id="rect951" x="207.7" y="-174.5" class="st2" width="6.3" height="120"/>
	<g id="flowRoot969" transform="translate(121.05234,18.79075)">
	</g>
	<g id="flowRoot1466" transform="translate(121.05234,18.79075)">
	</g>
	<g id="flowRoot1529" transform="translate(121.05234,18.79075)">
	</g>
	<rect id="rect87" x="50.7" y="-422.4" width="256.6" height="64.5"/>
	<path id="path31-1" inkscape:connector-curvature="0" class="st0" d="M102.1-704.8c2.2,0,2.5-0.1,2.9-0.3c0.2-0.2,0.6-0.5,0.7-0.7
		c0.2-0.4,0.3-0.7,0.3-5.3l0-4.8l4.8,0l4.8,0l0,6c0,6.6,0,7.3-0.7,9c-0.9,2.3-2.2,3.3-5,4c-0.7,0.2-1.6,0.2-4.3,0.2
		c-1.9,0-4-0.1-4.6-0.1l-1.2-0.1l0-3.9l0-3.9L102.1-704.8L102.1-704.8z M147.5-691.3c40.6,0,50.6,0,48.9,0.2l-0.3,0l0.3,0.1
		c0.2,0.1,0.2,0.1-0.2,0.1c-0.3,0-0.2,0.1,0.4,0.1l0.8,0.1l-0.8,0c-0.5,0-0.7,0.1-0.6,0.1c0.2,0,0.2,0.2,0.2,1.1
		c0,1.1,0,1.1,0.4,1.1c0.3,0,0.2,0.1-0.2,0.1c-0.3,0-0.6,0.1-0.6,0.1c0,0.1-16.1,0.1-48.1,0.2l-48.1,0l0-1.7l0-1.7L147.5-691.3z
		 M110.9-728.3l4.8,0l0,3.9l0,3.9l-4.8,0l-4.8,0l0-3.9l0-3.9L110.9-728.3z M120.5-713.9c0.3-2.2,0.9-4.1,1.8-5.9
		c0.3-0.6,0.6-1.2,0.7-1.2c0,0,0.3-0.4,0.5-0.8c0.5-0.8,1.6-2.2,1.9-2.3c0.1-0.1,0.2-0.2,0.2-0.2c0-0.2,1.2-1.3,2.1-1.9
		c1-0.7,1.8-1.1,3.6-1.8c2.1-0.8,3.3-1,5.8-0.9c1.8,0.1,2.2,0.1,3.4,0.5c0.7,0.2,1.6,0.5,1.9,0.6c0.3,0.1,0.7,0.3,0.8,0.3
		c0.1,0,0.6,0.3,1.2,0.6c2.3,1.3,5.4,4.9,6.6,7.5c1.9,4.1,2.1,8.3,0.7,12.2c-0.6,1.6-1,2.5-1.7,3.7c-0.8,1.3-0.9,1.4-2.8,3.3
		c-2.3,2.2-3.9,3.2-6.8,4c-1.5,0.4-4.5,0.6-6,0.3c-2.1-0.3-4.8-1.5-6.5-2.7c-0.9-0.7-2.1-1.7-2.1-1.8c0,0-0.3-0.4-0.7-0.7
		c-1.7-1.8-3.5-5.2-4.2-8C120.6-710.3,120.4-713.1,120.5-713.9L120.5-713.9z M129.7-709.9c0.5,1.8,1.4,3.4,2.8,4.7
		c1.4,1.4,3.7,1.9,5.7,1.3c2.2-0.7,4.3-3.2,5-6c0.4-1.6,0.4-3.9-0.1-5.4c-0.6-2.2-1.8-3.8-3.4-5c-0.7-0.5-1.1-0.7-1.8-0.8
		c-1.6-0.3-3.3-0.1-4.5,0.5c-1,0.5-2.3,2-3.1,3.5C129.4-714.9,129.1-712.2,129.7-709.9L129.7-709.9z M156.7-728.3c0.1,0,2.3,0,4.8,0
		l4.7,0l0,4.3c0,4.1,0,4.3,0.3,5c0.7,1.8,2.9,2.8,4.8,2.2c1-0.3,1.7-0.9,2.1-1.8l0.4-0.8l0-4.4l0-4.4l4.8,0l4.8,0l0,5
		c0,4.7-0.1,5.1-0.3,6.1c-0.5,1.9-1.4,3.6-2.5,5c-0.3,0.3-0.5,0.7-0.5,0.7c0,0.2-1.2,1.3-2.3,2.1c-0.9,0.7-2.2,1.4-2.8,1.5
		c-0.2,0-0.9,0.2-1.5,0.4c-1,0.3-1.3,0.3-3.4,0.3c-2.2,0-2.4,0-3.6-0.4c-1.9-0.5-2.5-0.8-3.8-1.6c-1.4-0.9-2.7-2.1-3.7-3.6
		c-1.4-2.1-2-3.7-2.3-6.1C156.5-720.6,156.5-728.2,156.7-728.3L156.7-728.3z M170.1-704.7l7.8,0l0,4l0,4l-7.8,0l-7.8,0l0-4l0-4
		L170.1-704.7z M183.5-734.5c0.1,0,0.1-0.2,0.1-0.5c0-0.5,0-0.5,0.6-0.6c0.3,0,13.6-0.1,29.5-0.1l28.9,0l0,1.7l0,1.7l-29.4,0
		c-16.2,0-29.5,0-29.6-0.1c-0.2-0.1-0.2-0.3-0.2-1.2C183.4-734.1,183.4-734.5,183.5-734.5L183.5-734.5z M196.7-715.2l10,0l0,4l0,4
		l-10,0l-10,0l0-4l0-4L196.7-715.2z M214.6-728.4l4.8,0l0,3.9l0,3.9l-4.8,0l-4.8,0l0-3.9l0-3.9L214.6-728.4z M214.6-716.5l4.8,0
		l0,10.1l0,10.1l-4.8,0l-4.8,0l0-10.1l0-10.1L214.6-716.5z M233.8-728.4l10.1,0l0,3.9l0,3.9l-10.1,0l-10.1,0l0-3.9l0-3.9
		L233.8-728.4z M225.4-715.9c0.1,0,2.2-0.1,4.7-0.1l4.6,0l0,4.6c0.1,6.5-0.2,6.1,4.7,6.2l3.1,0l0,4.1l0,4.1l-1.1,0.1
		c-1.7,0.2-7.2,0.2-8.7,0c-2.6-0.4-4.2-1.2-5.3-2.5c-1.2-1.4-1.7-2.8-2-5C225.3-705.8,225.2-715.8,225.4-715.9L225.4-715.9z
		 M249.4-732.2c0.2-0.8,0.7-1.7,1.2-2.1c2.2-1.9,4.8-2.1,6.9-0.5c1,0.7,1.3,1,1.7,1.9c0.3,0.7,0.4,0.9,0.4,2.1c0,1.2,0,1.4-0.4,2.2
		c-0.7,1.6-2.6,2.8-4.4,2.9c-1.7,0.1-3-0.4-4.3-1.6C249.5-728.6,249-730.6,249.4-732.2L249.4-732.2z M250.4-728.9
		c0.4,1,1.8,2,3.2,2.4c1.4,0.3,2.5,0.1,4.1-1.1c0.4-0.3,0.7-0.6,1-1.3c0.4-0.8,0.4-1,0.4-2c0-1,0-1.2-0.5-2c-0.4-0.7-0.6-1-1.2-1.4
		c-0.4-0.3-1.1-0.6-1.4-0.8c-2.2-0.7-4.8,0.5-5.7,2.6C249.9-731.6,250-729.9,250.4-728.9z M253.9-733.9c1,0,1.9,0.1,2.1,0.1
		c0.8,0.3,1.1,1.8,0.6,2.5c-0.1,0.2-0.5,0.4-0.7,0.5l-0.4,0.2l0.4,0.5c0.2,0.3,0.6,0.8,0.9,1.2s0.5,0.7,0.5,0.8
		c0.3,0.2,0.1,0.3-0.4,0.3l-0.6,0l-0.8-1.2c-0.8-1.3-1-1.5-2-1.5l-0.6,0l0,1.4l0,1.4l-0.4,0l-0.4,0l0-3l0-3L253.9-733.9z
		 M254.2-731.4c1,0,1.2,0,1.5-0.3c0.7-0.6,0.3-1.4-0.7-1.6c-0.4-0.1-1.7,0-1.9,0c0,0,0,0.4,0,0.9l0,0.9L254.2-731.4z"/>
	<path id="rect64" class="st1" d="M254.5-205.4l37.6,0c6.6,0,11.9,5.3,11.9,11.9l0,33c0,6.6-5.3,11.9-11.9,11.9l-37.6,0
		c-6.6,0-11.9-5.3-11.9-11.9l0-33C242.6-200,247.9-205.4,254.5-205.4z"/>
	<rect id="rect66" x="269.9" y="-174.5" class="st2" width="6.3" height="120"/>
	<circle id="path107" class="st3" cx="179.7" cy="-337.6" r="88"/>
	<circle id="path133" class="st0" cx="179.7" cy="-337.6" r="72"/>
	<rect id="rect137" x="-0.3" y="-674.5" class="st0" width="136" height="240"/>
	<rect id="rect141" x="-0.3" y="-669.6" width="128" height="230.4"/>
	<rect id="rect139" x="3.7" y="-670.4" class="st4" width="128" height="232"/>
	
		<circle id="path144" inkscape:transform-center-x="7.5703852" inkscape:transform-center-y="6.4056526" class="st5" cx="23.7" cy="-458.4" r="20">
	</circle>
	<rect id="rect952" x="3.7" y="-461.6" class="st6" width="40" height="6.4"/>
	<rect id="rect956" x="185.3" y="-634.4" class="st0" width="174.4" height="136"/>
	<rect id="rect958" x="189.3" y="-630.4" width="166.4" height="128"/>
	<rect id="rect960" x="216.5" y="-622.4" class="st7" width="112" height="112"/>
	<rect id="rect962" x="216.5" y="-510.4" class="st3" width="20" height="32"/>
	<rect id="rect964" x="308.5" y="-510.4" class="st3" width="20" height="32"/>
	<rect id="rect966" x="244.5" y="-510.4" class="st3" width="20" height="32"/>
	<rect id="rect968" x="280.5" y="-510.4" class="st3" width="20" height="32"/>
	<rect id="rect970" x="216.5" y="-654.4" class="st3" width="20" height="32"/>
	<rect id="rect972" x="308.5" y="-654.4" class="st3" width="20" height="32"/>
	<rect id="rect974" x="244.5" y="-654.4" class="st3" width="20" height="32"/>
	<rect id="rect976" x="280.5" y="-654.4" class="st3" width="20" height="32"/>
	<polygon id="rect978" class="st2" points="223.3,-514.4 229.6,-514.4 229.7,-494.4 223.4,-494.4 	"/>
	<polygon id="rect980" class="st2" points="251.3,-514.4 257.6,-514.4 257.7,-494.4 251.4,-494.4 	"/>
	<polygon id="rect982" class="st2" points="287.3,-514.4 293.6,-514.4 293.7,-494.4 287.4,-494.4 	"/>
	<polygon id="rect984" class="st2" points="315.3,-514.4 321.6,-514.4 321.7,-494.4 315.4,-494.4 	"/>
	<polygon id="rect986" class="st2" points="223.3,-618.4 229.6,-618.4 229.7,-638.4 223.4,-638.4 	"/>
	<polygon id="rect988" class="st2" points="251.3,-618.4 257.6,-618.4 257.7,-638.4 251.4,-638.4 	"/>
	<polygon id="rect990" class="st2" points="287.3,-618.4 293.6,-618.4 293.7,-638.4 287.4,-638.4 	"/>
	<polygon id="rect992" class="st2" points="315.3,-618.4 321.6,-618.4 321.7,-638.4 315.4,-638.4 	"/>
	<circle id="path994" class="st3" cx="319.7" cy="-916" r="28"/>
	<circle id="circle996" class="st3" cx="39.7" cy="-916" r="28"/>
	<path id="rect836-7" class="st3" d="M143.4-797.1h12c12.2,0,22,9.8,22,22l0,0c0,12.2-9.8,22-22,22h-12c-12.2,0-22-9.8-22-22l0,0
		C121.4-787.3,131.3-797.1,143.4-797.1z"/>
	<path id="rect836-6" class="st3" d="M203.4-797.1h12c12.2,0,22,9.8,22,22l0,0c0,12.2-9.8,22-22,22h-12c-12.2,0-22-9.8-22-22l0,0
		C181.4-787.3,191.3-797.1,203.4-797.1z"/>
	
		<rect id="rect943" x="251.3" y="-798.3" transform="matrix(1 -8.295600e-03 8.295600e-03 1 6.3995 2.2304)" class="st3" width="41.5" height="56"/>
	<path id="rect1026" class="st3" d="M70.8-748.2l0-41c0-5.3,4.3-9.5,9.5-9.5l22.5,0c5.3,0,9.5,4.3,9.5,9.5l0,41
		c0,5.3-4.3,9.5-9.5,9.5l-22.5,0C75-738.7,70.8-743,70.8-748.2z"/>
	<circle id="path1028" class="st0" cx="91.5" cy="-758.7" r="12"/>
	<path id="rect1030" class="st3" d="M67.4-777.1l0.1,12.1c0.1,12.1-9.6,22-21.7,22.2l0,0c-12.1,0.1-22-9.6-22.2-21.7l-0.1-12.1
		c-0.1-12.1,9.6-22,21.7-22.2l0,0C57.3-798.9,67.2-789.2,67.4-777.1z"/>
	<circle id="circle105" class="st0" cx="45.5" cy="-770.7" r="16"/>
	<circle id="path138" class="st0" cx="39.7" cy="-916" r="24"/>
	<circle id="circle140" class="st0" cx="319.7" cy="-916" r="24"/>
	<rect id="rect142" x="146.1" y="-854.7" class="st2" width="6.3" height="83.1"/>
	<rect id="rect144" x="206.1" y="-853.6" class="st2" width="6.3" height="81.9"/>
	<circle id="circle147" class="st0" cx="272.1" cy="-770.7" r="16"/>
	<rect id="rect101" x="91.7" y="-990.4" class="st8" width="176" height="140"/>
	<rect id="rect105" x="95.7" y="-998.4" width="168" height="8"/>
	<g class="st9">
		<path d="M131.4-48.3c0,0.3,0,0.5,0,0.7s-0.1,0.4-0.1,0.5c-0.1,0.1-0.1,0.2-0.2,0.3c-0.1,0.1-0.2,0.1-0.3,0.1
			c-0.2,0-0.4-0.1-0.8-0.4c-0.4-0.3-0.9-0.5-1.5-0.9s-1.4-0.6-2.3-0.9c-0.9-0.3-1.9-0.4-3.2-0.4c-1.5,0-2.8,0.3-3.9,0.8
			c-1.2,0.5-2.1,1.3-2.9,2.2c-0.8,0.9-1.4,2.1-1.8,3.3c-0.4,1.3-0.6,2.7-0.6,4.2c0,1.7,0.2,3.2,0.7,4.5c0.5,1.3,1.1,2.4,1.9,3.3
			c0.8,0.9,1.8,1.6,3,2s2.4,0.7,3.8,0.7c0.8,0,1.6-0.1,2.5-0.3c0.8-0.2,1.6-0.5,2.3-0.9V-37h-6.1c-0.2,0-0.4-0.1-0.5-0.3
			c-0.1-0.2-0.2-0.6-0.2-1.1c0-0.3,0-0.5,0-0.7s0.1-0.3,0.1-0.4c0.1-0.1,0.1-0.2,0.2-0.3c0.1-0.1,0.2-0.1,0.3-0.1h8.4
			c0.1,0,0.3,0,0.4,0.1s0.3,0.1,0.4,0.2c0.1,0.1,0.2,0.3,0.3,0.4c0.1,0.2,0.1,0.4,0.1,0.7v10c0,0.4-0.1,0.7-0.2,0.9
			c-0.1,0.3-0.4,0.5-0.8,0.7c-0.4,0.2-0.9,0.4-1.5,0.6c-0.6,0.2-1.3,0.4-1.9,0.6c-0.7,0.2-1.3,0.3-2,0.4c-0.7,0.1-1.4,0.1-2,0.1
			c-2,0-3.9-0.3-5.5-0.9s-3-1.5-4.1-2.7c-1.1-1.2-2-2.6-2.5-4.2c-0.6-1.6-0.9-3.5-0.9-5.5c0-2.1,0.3-4,0.9-5.7s1.5-3.1,2.7-4.3
			c1.1-1.2,2.5-2.1,4.1-2.8s3.4-1,5.3-1c1,0,2,0.1,2.8,0.3c0.9,0.2,1.7,0.4,2.4,0.6c0.7,0.2,1.3,0.5,1.7,0.8s0.8,0.5,1,0.7
			s0.3,0.4,0.4,0.6C131.4-49,131.4-48.7,131.4-48.3z"/>
		<path d="M157.9-26.9c0,0.3,0,0.5-0.1,0.7c-0.1,0.2-0.2,0.3-0.4,0.5s-0.3,0.2-0.5,0.3c-0.2,0.1-0.4,0.1-0.5,0.1h-1.2
			c-0.4,0-0.7,0-1-0.1c-0.3-0.1-0.5-0.2-0.8-0.4c-0.2-0.2-0.5-0.5-0.7-0.8s-0.5-0.8-0.8-1.3l-8-15c-0.4-0.8-0.8-1.6-1.3-2.4
			c-0.4-0.8-0.8-1.7-1.2-2.5h0c0,1,0,2,0.1,3c0,1,0,2,0,3V-26c0,0.1,0,0.2-0.1,0.3c-0.1,0.1-0.2,0.2-0.3,0.2c-0.1,0-0.3,0.1-0.5,0.1
			c-0.2,0-0.5,0.1-0.8,0.1s-0.6,0-0.8-0.1c-0.2,0-0.4-0.1-0.5-0.1s-0.2-0.1-0.3-0.2c-0.1-0.1-0.1-0.2-0.1-0.3v-24.3
			c0-0.5,0.2-0.9,0.5-1.2c0.3-0.2,0.6-0.3,1-0.3h1.7c0.4,0,0.7,0,1,0.1c0.3,0.1,0.5,0.2,0.7,0.3c0.2,0.2,0.4,0.4,0.6,0.7
			c0.2,0.3,0.4,0.6,0.6,1l6.2,11.6c0.4,0.7,0.7,1.4,1.1,2.1c0.4,0.7,0.7,1.3,1,2c0.3,0.7,0.7,1.3,1,1.9s0.6,1.3,1,1.9h0
			c0-1.1,0-2.2-0.1-3.4c0-1.2,0-2.3,0-3.4v-14.3c0-0.1,0-0.2,0.1-0.3c0.1-0.1,0.2-0.2,0.3-0.2c0.1-0.1,0.3-0.1,0.5-0.1
			c0.2,0,0.5,0,0.9,0c0.3,0,0.6,0,0.8,0s0.4,0.1,0.5,0.1c0.1,0.1,0.2,0.1,0.3,0.2c0.1,0.1,0.1,0.2,0.1,0.3V-26.9z"/>
		<path d="M185.1-39.1c0,2.3-0.3,4.3-0.9,6c-0.6,1.7-1.4,3.1-2.6,4.2c-1.1,1.1-2.5,2-4.1,2.5c-1.6,0.6-3.6,0.8-5.8,0.8h-5.6
			c-0.3,0-0.6-0.1-0.9-0.3c-0.3-0.2-0.4-0.6-0.4-1.1v-23.5c0-0.5,0.1-0.9,0.4-1.1c0.3-0.2,0.6-0.3,0.9-0.3h6c2.3,0,4.2,0.3,5.8,0.9
			c1.6,0.6,2.9,1.4,4,2.5s1.9,2.4,2.4,4C184.9-42.8,185.1-41,185.1-39.1z M181.5-38.9c0-1.4-0.2-2.8-0.5-4s-0.9-2.3-1.7-3.2
			c-0.8-0.9-1.7-1.6-2.9-2.1c-1.2-0.5-2.6-0.8-4.5-0.8h-3.6v20.5h3.6c1.7,0,3.1-0.2,4.3-0.6c1.2-0.4,2.1-1.1,2.9-1.9
			c0.8-0.9,1.4-2,1.7-3.3C181.3-35.6,181.5-37.1,181.5-38.9z"/>
	</g>
	<g class="st9">
		<path d="M241.3-35.8c0,2.3-0.3,4.3-0.9,6c-0.6,1.7-1.4,3.1-2.6,4.2c-1.1,1.1-2.5,2-4.1,2.5c-1.6,0.6-3.6,0.8-5.8,0.8h-5.6
			c-0.3,0-0.6-0.1-0.9-0.3c-0.3-0.2-0.4-0.6-0.4-1.1v-23.5c0-0.5,0.1-0.9,0.4-1.1c0.3-0.2,0.6-0.3,0.9-0.3h6c2.3,0,4.2,0.3,5.8,0.9
			c1.6,0.6,2.9,1.4,4,2.5s1.9,2.4,2.4,4C241-39.6,241.3-37.8,241.3-35.8z M237.6-35.6c0-1.4-0.2-2.8-0.5-4s-0.9-2.3-1.7-3.2
			c-0.8-0.9-1.7-1.6-2.9-2.1c-1.2-0.5-2.6-0.8-4.5-0.8h-3.6v20.5h3.6c1.7,0,3.1-0.2,4.3-0.6c1.2-0.4,2.1-1.1,2.9-1.9
			c0.8-0.9,1.4-2,1.7-3.3C237.4-32.3,237.6-33.9,237.6-35.6z"/>
		<path d="M250-47.3c0,0.8-0.1,1.3-0.4,1.6s-0.8,0.4-1.7,0.4c-0.8,0-1.3-0.1-1.6-0.4c-0.3-0.3-0.4-0.8-0.4-1.6
			c0-0.8,0.1-1.3,0.4-1.6s0.8-0.4,1.7-0.4c0.8,0,1.3,0.1,1.6,0.4S250-48,250-47.3z M249.6-22.7c0,0.1,0,0.2-0.1,0.3
			c-0.1,0.1-0.1,0.1-0.3,0.2c-0.1,0.1-0.3,0.1-0.5,0.1c-0.2,0-0.5,0-0.8,0c-0.3,0-0.6,0-0.8,0c-0.2,0-0.4-0.1-0.5-0.1
			c-0.1-0.1-0.2-0.1-0.3-0.2c0-0.1-0.1-0.2-0.1-0.3v-18.3c0-0.1,0-0.2,0.1-0.3c0-0.1,0.1-0.1,0.3-0.2c0.1-0.1,0.3-0.1,0.5-0.1
			c0.2,0,0.5,0,0.8,0c0.3,0,0.6,0,0.8,0c0.2,0,0.4,0.1,0.5,0.1c0.1,0.1,0.2,0.1,0.3,0.2c0.1,0.1,0.1,0.2,0.1,0.3V-22.7z"/>
		<path d="M271.2-40.2c0,0.5-0.1,0.8-0.2,1c-0.1,0.2-0.3,0.3-0.5,0.3h-2.6c0.5,0.5,0.8,1,1,1.6s0.3,1.2,0.3,1.8c0,1.1-0.2,2-0.5,2.8
			c-0.3,0.8-0.8,1.5-1.5,2.1s-1.4,1-2.3,1.3s-1.8,0.4-2.9,0.4c-0.7,0-1.5-0.1-2.1-0.3c-0.7-0.2-1.2-0.4-1.6-0.7
			c-0.2,0.2-0.4,0.5-0.6,0.8c-0.2,0.3-0.2,0.7-0.2,1.1c0,0.5,0.2,0.9,0.7,1.2c0.4,0.3,1,0.5,1.8,0.5l4.8,0.2c0.9,0,1.7,0.2,2.5,0.4
			c0.8,0.2,1.4,0.5,2,1c0.6,0.4,1,0.9,1.3,1.5s0.5,1.3,0.5,2.1c0,0.8-0.2,1.6-0.5,2.4c-0.4,0.8-0.9,1.4-1.6,2
			c-0.7,0.6-1.7,1-2.8,1.4s-2.5,0.5-4,0.5c-1.5,0-2.7-0.1-3.8-0.4c-1-0.3-1.9-0.6-2.6-1c-0.7-0.4-1.1-1-1.4-1.6s-0.4-1.3-0.4-2
			c0-0.4,0.1-0.9,0.2-1.3s0.3-0.8,0.5-1.2c0.2-0.4,0.5-0.7,0.8-1.1c0.3-0.3,0.7-0.7,1.2-1c-0.7-0.3-1.2-0.8-1.5-1.3
			s-0.5-1.1-0.5-1.7c0-0.8,0.2-1.6,0.5-2.2c0.3-0.7,0.8-1.2,1.3-1.8c-0.4-0.5-0.8-1.1-1-1.7c-0.2-0.6-0.4-1.4-0.4-2.3
			c0-1,0.2-2,0.5-2.8c0.4-0.8,0.8-1.5,1.5-2.1c0.6-0.6,1.4-1,2.3-1.3c0.9-0.3,1.8-0.5,2.9-0.5c0.6,0,1.1,0,1.6,0.1s0.9,0.1,1.4,0.3
			h5.5c0.2,0,0.4,0.1,0.5,0.3C271.1-41,271.2-40.7,271.2-40.2z M267.6-20.9c0-0.8-0.3-1.4-1-1.8c-0.6-0.4-1.5-0.7-2.6-0.7l-4.7-0.2
			c-0.4,0.3-0.8,0.7-1.1,1c-0.3,0.3-0.5,0.6-0.7,0.9s-0.3,0.6-0.3,0.8c-0.1,0.3-0.1,0.6-0.1,0.8c0,0.9,0.4,1.6,1.3,2
			c0.9,0.5,2.1,0.7,3.8,0.7c1,0,1.9-0.1,2.6-0.3c0.7-0.2,1.2-0.5,1.7-0.8c0.4-0.3,0.7-0.7,0.9-1.1S267.6-20.4,267.6-20.9z
			 M265.9-35.4c0-1.2-0.3-2.2-1-2.9c-0.7-0.7-1.7-1-2.9-1c-0.7,0-1.2,0.1-1.7,0.3c-0.5,0.2-0.9,0.5-1.2,0.9
			c-0.3,0.4-0.6,0.8-0.7,1.3c-0.2,0.5-0.2,1-0.2,1.6c0,1.2,0.3,2.2,1,2.9c0.7,0.7,1.6,1,2.9,1c0.7,0,1.2-0.1,1.7-0.3
			c0.5-0.2,0.9-0.5,1.2-0.9s0.6-0.8,0.7-1.3C265.8-34.4,265.9-34.9,265.9-35.4z"/>
		<path d="M279.3-47.3c0,0.8-0.1,1.3-0.4,1.6s-0.8,0.4-1.7,0.4c-0.8,0-1.3-0.1-1.6-0.4c-0.3-0.3-0.4-0.8-0.4-1.6
			c0-0.8,0.1-1.3,0.4-1.6s0.8-0.4,1.7-0.4c0.8,0,1.3,0.1,1.6,0.4S279.3-48,279.3-47.3z M278.9-22.7c0,0.1,0,0.2-0.1,0.3
			c-0.1,0.1-0.1,0.1-0.3,0.2c-0.1,0.1-0.3,0.1-0.5,0.1c-0.2,0-0.5,0-0.8,0c-0.3,0-0.6,0-0.8,0c-0.2,0-0.4-0.1-0.5-0.1
			c-0.1-0.1-0.2-0.1-0.3-0.2c0-0.1-0.1-0.2-0.1-0.3v-18.3c0-0.1,0-0.2,0.1-0.3c0-0.1,0.1-0.1,0.3-0.2c0.1-0.1,0.3-0.1,0.5-0.1
			c0.2,0,0.5,0,0.8,0c0.3,0,0.6,0,0.8,0c0.2,0,0.4,0.1,0.5,0.1c0.1,0.1,0.2,0.1,0.3,0.2c0.1,0.1,0.1,0.2,0.1,0.3V-22.7z"/>
		<path d="M294.6-24.1c0,0.4,0,0.7-0.1,0.9c-0.1,0.2-0.1,0.4-0.2,0.5c-0.1,0.1-0.3,0.2-0.5,0.3c-0.2,0.1-0.5,0.2-0.7,0.2
			c-0.3,0.1-0.6,0.1-0.9,0.2c-0.3,0-0.6,0.1-0.9,0.1c-1,0-1.8-0.1-2.4-0.4c-0.7-0.3-1.2-0.6-1.7-1.1s-0.8-1.2-0.9-1.9
			c-0.2-0.8-0.3-1.7-0.3-2.8v-10.7h-2.6c-0.2,0-0.4-0.1-0.5-0.3c-0.1-0.2-0.2-0.6-0.2-1.1c0-0.3,0-0.5,0.1-0.7
			c0-0.2,0.1-0.3,0.1-0.4c0.1-0.1,0.1-0.2,0.2-0.2c0.1,0,0.2-0.1,0.3-0.1h2.5V-46c0-0.1,0-0.2,0.1-0.3c0-0.1,0.1-0.2,0.3-0.2
			c0.1-0.1,0.3-0.1,0.5-0.1c0.2,0,0.5,0,0.8,0c0.3,0,0.6,0,0.8,0c0.2,0,0.4,0.1,0.5,0.1c0.1,0.1,0.2,0.1,0.3,0.2
			c0.1,0.1,0.1,0.2,0.1,0.3v4.4h4.7c0.1,0,0.2,0,0.3,0.1c0.1,0,0.2,0.1,0.2,0.2c0.1,0.1,0.1,0.3,0.1,0.4s0,0.4,0,0.7
			c0,0.5-0.1,0.8-0.2,1.1c-0.1,0.2-0.3,0.3-0.5,0.3h-4.7v10.2c0,1.3,0.2,2.2,0.6,2.9c0.4,0.6,1,1,2,1c0.3,0,0.6,0,0.8-0.1
			c0.2-0.1,0.5-0.1,0.7-0.2c0.2-0.1,0.4-0.1,0.5-0.2c0.1-0.1,0.3-0.1,0.4-0.1c0.1,0,0.1,0,0.2,0.1c0.1,0,0.1,0.1,0.1,0.2
			c0,0.1,0.1,0.2,0.1,0.4S294.6-24.3,294.6-24.1z"/>
		<path d="M312.4-22.7c0,0.2-0.1,0.3-0.2,0.4c-0.1,0.1-0.3,0.1-0.4,0.2c-0.2,0-0.5,0.1-0.8,0.1c-0.4,0-0.6,0-0.8-0.1
			c-0.2,0-0.4-0.1-0.5-0.2c-0.1-0.1-0.1-0.2-0.1-0.4v-1.8c-0.8,0.9-1.7,1.5-2.7,2c-1,0.5-2,0.7-3.1,0.7c-1,0-1.8-0.1-2.6-0.4
			c-0.8-0.3-1.4-0.6-2-1.1c-0.5-0.5-1-1.1-1.3-1.8c-0.3-0.7-0.5-1.5-0.5-2.4c0-1,0.2-1.9,0.6-2.7c0.4-0.8,1-1.4,1.8-1.9
			c0.8-0.5,1.8-0.9,2.9-1.1c1.1-0.3,2.4-0.4,3.9-0.4h2.5v-1.4c0-0.7-0.1-1.3-0.2-1.9c-0.2-0.5-0.4-1-0.7-1.4
			c-0.3-0.4-0.8-0.6-1.3-0.8c-0.5-0.2-1.2-0.3-2-0.3c-0.8,0-1.6,0.1-2.2,0.3c-0.7,0.2-1.2,0.4-1.7,0.7c-0.5,0.2-0.9,0.5-1.2,0.7
			c-0.3,0.2-0.6,0.3-0.7,0.3c-0.1,0-0.2,0-0.3-0.1c-0.1-0.1-0.2-0.1-0.2-0.2c-0.1-0.1-0.1-0.2-0.1-0.4s0-0.4,0-0.6
			c0-0.3,0-0.6,0.1-0.8s0.2-0.4,0.3-0.6s0.5-0.4,0.9-0.6c0.4-0.2,1-0.5,1.5-0.7c0.6-0.2,1.2-0.4,1.9-0.5c0.7-0.1,1.4-0.2,2.1-0.2
			c1.3,0,2.4,0.2,3.4,0.4s1.7,0.7,2.2,1.3c0.6,0.6,1,1.3,1.2,2.1c0.3,0.9,0.4,1.9,0.4,3V-22.7z M309-31.1h-2.9
			c-0.9,0-1.7,0.1-2.4,0.2c-0.7,0.2-1.2,0.4-1.7,0.7s-0.8,0.7-1,1.1c-0.2,0.4-0.3,0.9-0.3,1.5c0,1,0.3,1.7,0.9,2.3
			c0.6,0.6,1.5,0.8,2.5,0.8c0.9,0,1.7-0.2,2.5-0.7s1.5-1.1,2.4-2.1V-31.1z"/>
		<path d="M321.9-22.7c0,0.1,0,0.2-0.1,0.3c-0.1,0.1-0.1,0.1-0.3,0.2c-0.1,0.1-0.3,0.1-0.5,0.1c-0.2,0-0.5,0-0.8,0
			c-0.3,0-0.6,0-0.8,0c-0.2,0-0.4-0.1-0.5-0.1c-0.1-0.1-0.2-0.1-0.3-0.2c0-0.1-0.1-0.2-0.1-0.3V-50c0-0.1,0-0.2,0.1-0.3
			c0-0.1,0.1-0.1,0.3-0.2c0.1-0.1,0.3-0.1,0.5-0.1c0.2,0,0.5,0,0.8,0c0.3,0,0.6,0,0.8,0c0.2,0,0.4,0.1,0.5,0.1
			c0.1,0.1,0.2,0.1,0.3,0.2c0.1,0.1,0.1,0.2,0.1,0.3V-22.7z"/>
	</g>
	<g class="st9">
		<path d="M46.1,19c0.1,0.3,0.2,0.5,0.2,0.7s0,0.3-0.2,0.4c-0.1,0.1-0.3,0.2-0.5,0.2s-0.6,0-1,0s-0.8,0-1,0c-0.3,0-0.4-0.1-0.6-0.1
			c-0.1,0-0.2-0.1-0.3-0.2c-0.1-0.1-0.1-0.2-0.2-0.3l-2.3-6.4h-11l-2.2,6.3c0,0.1-0.1,0.2-0.2,0.3c-0.1,0.1-0.2,0.2-0.3,0.2
			c-0.1,0.1-0.3,0.1-0.6,0.1c-0.2,0-0.5,0-0.9,0c-0.4,0-0.7,0-1-0.1c-0.3,0-0.4-0.1-0.5-0.2s-0.1-0.2-0.1-0.4s0.1-0.4,0.2-0.7
			l8.8-24.5c0.1-0.1,0.1-0.3,0.2-0.4C32.9-6,33.1-6,33.2-6.1c0.2-0.1,0.4-0.1,0.7-0.1s0.6,0,1,0c0.4,0,0.8,0,1.1,0
			c0.3,0,0.5,0.1,0.7,0.1C36.8-6,37-6,37.1-5.9c0.1,0.1,0.2,0.2,0.2,0.4L46.1,19z M34.8-2.6L34.8-2.6l-4.6,13.1h9.2L34.8-2.6z"/>
		<path d="M65.9,19.7c0,0.1,0,0.2-0.1,0.3c-0.1,0.1-0.1,0.1-0.3,0.2c-0.1,0.1-0.3,0.1-0.5,0.1c-0.2,0-0.5,0-0.8,0
			c-0.3,0-0.6,0-0.8,0c-0.2,0-0.4-0.1-0.5-0.1c-0.1-0.1-0.2-0.1-0.3-0.2c-0.1-0.1-0.1-0.2-0.1-0.3V9c0-1-0.1-1.9-0.2-2.5
			s-0.4-1.2-0.7-1.7c-0.3-0.5-0.7-0.8-1.2-1.1c-0.5-0.2-1.1-0.4-1.7-0.4c-0.8,0-1.7,0.3-2.5,0.9c-0.8,0.6-1.7,1.5-2.6,2.6v12.8
			c0,0.1,0,0.2-0.1,0.3c-0.1,0.1-0.1,0.1-0.3,0.2c-0.1,0.1-0.3,0.1-0.5,0.1c-0.2,0-0.5,0-0.8,0c-0.3,0-0.6,0-0.8,0
			c-0.2,0-0.4-0.1-0.5-0.1c-0.1-0.1-0.2-0.1-0.3-0.2c0-0.1-0.1-0.2-0.1-0.3V1.4c0-0.1,0-0.2,0.1-0.3c0-0.1,0.1-0.1,0.2-0.2
			s0.3-0.1,0.5-0.1s0.4,0,0.8,0c0.3,0,0.5,0,0.7,0s0.3,0.1,0.5,0.1C53,1,53.1,1,53.1,1.1c0,0.1,0.1,0.2,0.1,0.3v2.4
			c1-1.2,2.1-2,3.1-2.5c1-0.5,2.1-0.8,3.1-0.8c1.2,0,2.3,0.2,3.1,0.6c0.8,0.4,1.5,1,2,1.7c0.5,0.7,0.9,1.5,1.1,2.4
			c0.2,0.9,0.3,2,0.3,3.4V19.7z"/>
		<path d="M85.9,19.8c0,0.2-0.1,0.3-0.2,0.4c-0.1,0.1-0.3,0.1-0.4,0.2c-0.2,0-0.5,0.1-0.8,0.1c-0.4,0-0.6,0-0.8-0.1
			c-0.2,0-0.4-0.1-0.5-0.2C83.1,20,83,19.9,83,19.8v-1.8c-0.8,0.9-1.7,1.5-2.7,2c-1,0.5-2,0.7-3.1,0.7c-1,0-1.8-0.1-2.6-0.4
			c-0.8-0.3-1.4-0.6-2-1.1c-0.5-0.5-1-1.1-1.3-1.8c-0.3-0.7-0.5-1.5-0.5-2.4c0-1,0.2-1.9,0.6-2.7c0.4-0.8,1-1.4,1.8-1.9
			c0.8-0.5,1.8-0.9,2.9-1.1C77.3,9.1,78.6,9,80,9h2.5V7.5c0-0.7-0.1-1.3-0.2-1.9c-0.2-0.5-0.4-1-0.7-1.4c-0.3-0.4-0.8-0.6-1.3-0.8
			c-0.5-0.2-1.2-0.3-2-0.3c-0.8,0-1.6,0.1-2.2,0.3c-0.7,0.2-1.2,0.4-1.7,0.7c-0.5,0.2-0.9,0.5-1.2,0.7c-0.3,0.2-0.6,0.3-0.7,0.3
			c-0.1,0-0.2,0-0.3-0.1C72,5,72,4.9,71.9,4.8c-0.1-0.1-0.1-0.2-0.1-0.4s0-0.4,0-0.6c0-0.3,0-0.6,0.1-0.8s0.2-0.4,0.3-0.6
			s0.5-0.4,0.9-0.6c0.4-0.2,1-0.5,1.5-0.7c0.6-0.2,1.2-0.4,1.9-0.5c0.7-0.1,1.4-0.2,2.1-0.2c1.3,0,2.4,0.2,3.4,0.4s1.7,0.7,2.2,1.3
			c0.6,0.6,1,1.3,1.2,2.1c0.3,0.9,0.4,1.9,0.4,3V19.8z M82.6,11.4h-2.9c-0.9,0-1.7,0.1-2.4,0.2c-0.7,0.2-1.2,0.4-1.7,0.7
			s-0.8,0.7-1,1.1c-0.2,0.4-0.3,0.9-0.3,1.5c0,1,0.3,1.7,0.9,2.3c0.6,0.6,1.5,0.8,2.5,0.8c0.9,0,1.7-0.2,2.5-0.7s1.5-1.1,2.4-2.1
			V11.4z"/>
		<path d="M95.4,19.7c0,0.1,0,0.2-0.1,0.3c-0.1,0.1-0.1,0.1-0.3,0.2c-0.1,0.1-0.3,0.1-0.5,0.1c-0.2,0-0.5,0-0.8,0
			c-0.3,0-0.6,0-0.8,0c-0.2,0-0.4-0.1-0.5-0.1c-0.1-0.1-0.2-0.1-0.3-0.2c0-0.1-0.1-0.2-0.1-0.3V-7.5c0-0.1,0-0.2,0.1-0.3
			c0-0.1,0.1-0.1,0.3-0.2c0.1-0.1,0.3-0.1,0.5-0.1c0.2,0,0.5,0,0.8,0c0.3,0,0.6,0,0.8,0C94.8-8.1,95-8,95.1-8
			c0.1,0.1,0.2,0.1,0.3,0.2c0.1,0.1,0.1,0.2,0.1,0.3V19.7z"/>
		<path d="M118.7,10.4c0,1.5-0.2,2.9-0.6,4.1c-0.4,1.3-1,2.3-1.8,3.3c-0.8,0.9-1.8,1.6-2.9,2.1c-1.2,0.5-2.5,0.8-4.1,0.8
			c-1.5,0-2.8-0.2-3.9-0.7c-1.1-0.4-2.1-1.1-2.8-2c-0.7-0.9-1.3-1.9-1.7-3.1c-0.4-1.2-0.6-2.6-0.6-4.2c0-1.5,0.2-2.9,0.6-4.1
			c0.4-1.3,1-2.3,1.8-3.3s1.8-1.6,2.9-2.1c1.2-0.5,2.5-0.8,4.1-0.8c1.5,0,2.8,0.2,3.9,0.7s2.1,1.1,2.8,2c0.7,0.9,1.3,1.9,1.7,3.1
			C118.5,7.5,118.7,8.8,118.7,10.4z M115.2,10.6c0-1-0.1-1.9-0.3-2.8c-0.2-0.9-0.5-1.7-0.9-2.3c-0.4-0.7-1-1.2-1.7-1.6
			c-0.7-0.4-1.6-0.6-2.7-0.6c-1,0-1.9,0.2-2.6,0.5s-1.3,0.9-1.8,1.5c-0.5,0.6-0.8,1.4-1,2.3c-0.2,0.9-0.3,1.8-0.3,2.9
			c0,1,0.1,2,0.3,2.8c0.2,0.9,0.5,1.7,0.9,2.3s1,1.2,1.7,1.6c0.7,0.4,1.6,0.6,2.7,0.6c1,0,1.8-0.2,2.6-0.5s1.3-0.8,1.8-1.5
			c0.5-0.6,0.8-1.4,1-2.3C115.1,12.6,115.2,11.6,115.2,10.6z"/>
		<path d="M139,2.2c0,0.5-0.1,0.8-0.2,1c-0.1,0.2-0.3,0.3-0.5,0.3h-2.6c0.5,0.5,0.8,1,1,1.6S137,6.4,137,7c0,1.1-0.2,2-0.5,2.8
			c-0.3,0.8-0.8,1.5-1.5,2.1s-1.4,1-2.3,1.3s-1.8,0.4-2.9,0.4c-0.7,0-1.5-0.1-2.1-0.3c-0.7-0.2-1.2-0.4-1.6-0.7
			c-0.2,0.2-0.4,0.5-0.6,0.8c-0.2,0.3-0.2,0.7-0.2,1.1c0,0.5,0.2,0.9,0.7,1.2c0.4,0.3,1,0.5,1.8,0.5l4.8,0.2c0.9,0,1.7,0.2,2.5,0.4
			c0.8,0.2,1.4,0.5,2,1c0.6,0.4,1,0.9,1.3,1.5s0.5,1.3,0.5,2.1c0,0.8-0.2,1.6-0.5,2.4c-0.4,0.8-0.9,1.4-1.6,2
			c-0.7,0.6-1.7,1-2.8,1.4s-2.5,0.5-4,0.5c-1.5,0-2.7-0.1-3.8-0.4c-1-0.3-1.9-0.6-2.6-1c-0.7-0.4-1.1-1-1.4-1.6s-0.4-1.3-0.4-2
			c0-0.4,0.1-0.9,0.2-1.3s0.3-0.8,0.5-1.2c0.2-0.4,0.5-0.7,0.8-1.1c0.3-0.3,0.7-0.7,1.2-1c-0.7-0.3-1.2-0.8-1.5-1.3
			s-0.5-1.1-0.5-1.7c0-0.8,0.2-1.6,0.5-2.2c0.3-0.7,0.8-1.2,1.3-1.8c-0.4-0.5-0.8-1.1-1-1.7c-0.2-0.6-0.4-1.4-0.4-2.3
			c0-1,0.2-2,0.5-2.8c0.4-0.8,0.8-1.5,1.5-2.1c0.6-0.6,1.4-1,2.3-1.3c0.9-0.3,1.8-0.5,2.9-0.5c0.6,0,1.1,0,1.6,0.1s0.9,0.1,1.4,0.3
			h5.5c0.2,0,0.4,0.1,0.5,0.3C138.9,1.4,139,1.8,139,2.2z M135.4,21.6c0-0.8-0.3-1.4-1-1.8c-0.6-0.4-1.5-0.7-2.6-0.7l-4.7-0.2
			c-0.4,0.3-0.8,0.7-1.1,1c-0.3,0.3-0.5,0.6-0.7,0.9s-0.3,0.6-0.3,0.8c-0.1,0.3-0.1,0.6-0.1,0.8c0,0.9,0.4,1.6,1.3,2
			c0.9,0.5,2.1,0.7,3.8,0.7c1,0,1.9-0.1,2.6-0.3c0.7-0.2,1.2-0.5,1.7-0.8c0.4-0.3,0.7-0.7,0.9-1.1S135.4,22.1,135.4,21.6z
			 M133.7,7.1c0-1.2-0.3-2.2-1-2.9c-0.7-0.7-1.7-1-2.9-1c-0.7,0-1.2,0.1-1.7,0.3c-0.5,0.2-0.9,0.5-1.2,0.9c-0.3,0.4-0.6,0.8-0.7,1.3
			c-0.2,0.5-0.2,1-0.2,1.6c0,1.2,0.3,2.2,1,2.9c0.7,0.7,1.6,1,2.9,1c0.7,0,1.2-0.1,1.7-0.3c0.5-0.2,0.9-0.5,1.2-0.9s0.6-0.8,0.7-1.3
			C133.7,8.1,133.7,7.6,133.7,7.1z"/>
	</g>
	<g class="st9">
		<path d="M207.2,15.8c0,0.3,0,0.5-0.1,0.7c0,0.2-0.1,0.3-0.2,0.5c-0.1,0.1-0.2,0.2-0.2,0.3c-0.1,0.1-0.2,0.1-0.3,0.1h-6.7v7.4
			c0,0.1,0,0.2-0.1,0.3c-0.1,0.1-0.1,0.1-0.3,0.2c-0.1,0.1-0.3,0.1-0.5,0.1s-0.4,0.1-0.7,0.1c-0.3,0-0.5,0-0.7-0.1
			c-0.2,0-0.4-0.1-0.5-0.1c-0.1-0.1-0.2-0.1-0.3-0.2c-0.1-0.1-0.1-0.2-0.1-0.3v-7.4H190c-0.1,0-0.2,0-0.3-0.1
			c-0.1-0.1-0.2-0.1-0.2-0.3c-0.1-0.1-0.1-0.3-0.2-0.5c0-0.2-0.1-0.4-0.1-0.7c0-0.2,0-0.5,0.1-0.6c0-0.2,0.1-0.3,0.2-0.5
			c0.1-0.1,0.1-0.2,0.2-0.3c0.1-0.1,0.2-0.1,0.3-0.1h6.7V7c0-0.1,0-0.2,0.1-0.3c0.1-0.1,0.1-0.2,0.3-0.2c0.1-0.1,0.3-0.1,0.5-0.1
			c0.2,0,0.4-0.1,0.7-0.1c0.3,0,0.5,0,0.7,0.1c0.2,0,0.3,0.1,0.5,0.1c0.1,0.1,0.2,0.1,0.3,0.2c0.1,0.1,0.1,0.2,0.1,0.3v7.4h6.7
			c0.1,0,0.2,0,0.3,0.1c0.1,0.1,0.2,0.1,0.2,0.3c0.1,0.1,0.1,0.3,0.2,0.5C207.2,15.4,207.2,15.6,207.2,15.8z"/>
		<path d="M222.8,27c-0.1,0.1-0.1,0.3-0.2,0.4c-0.1,0.1-0.2,0.2-0.4,0.2c-0.2,0.1-0.4,0.1-0.7,0.1s-0.6,0-1,0c-0.3,0-0.6,0-0.8,0
			c-0.2,0-0.4,0-0.6-0.1c-0.2,0-0.3-0.1-0.4-0.1c-0.1,0-0.2-0.1-0.3-0.1c-0.1-0.1-0.1-0.1-0.2-0.2c0-0.1-0.1-0.2-0.1-0.3l-8.6-24.5
			c-0.1-0.3-0.2-0.5-0.2-0.7s0.1-0.3,0.2-0.4c0.1-0.1,0.3-0.2,0.6-0.2c0.3,0,0.6,0,1.1,0c0.4,0,0.7,0,0.9,0c0.2,0,0.4,0.1,0.5,0.1
			c0.1,0.1,0.2,0.1,0.3,0.2c0.1,0.1,0.1,0.2,0.2,0.3l7.6,22.2h0L228,1.8c0-0.1,0.1-0.3,0.1-0.4c0.1-0.1,0.1-0.2,0.3-0.2
			c0.1-0.1,0.3-0.1,0.6-0.1c0.2,0,0.6,0,1,0c0.4,0,0.8,0,1,0.1c0.2,0,0.4,0.1,0.5,0.2c0.1,0.1,0.1,0.2,0.1,0.4s-0.1,0.4-0.2,0.7
			L222.8,27z"/>
	</g>
	<g class="st9">
		<path class="st0" d="M346.7-727.5c0.1,0,0.3,0,0.4,0.1c0.1,0.1,0.2,0.2,0.3,0.3c0.1,0.2,0.1,0.4,0.2,0.7c0,0.3,0.1,0.6,0.1,1.1
			c0,0.6,0,1-0.1,1.4c0,0.4-0.1,0.6-0.3,0.8s-0.3,0.3-0.4,0.4l-16,11.8h16c0.1,0,0.2,0,0.3,0.1c0.1,0.1,0.2,0.2,0.2,0.3
			c0.1,0.2,0.1,0.4,0.1,0.7c0,0.3,0.1,0.6,0.1,1c0,0.4,0,0.7-0.1,1c0,0.3-0.1,0.5-0.1,0.7c-0.1,0.2-0.1,0.3-0.2,0.3
			c-0.1,0.1-0.2,0.1-0.3,0.1H316c-0.1,0-0.2,0-0.3-0.1c-0.1-0.1-0.2-0.2-0.2-0.3s-0.1-0.4-0.1-0.7c0-0.3-0.1-0.6-0.1-1
			c0-0.4,0-0.8,0.1-1c0-0.3,0.1-0.5,0.1-0.7s0.1-0.3,0.2-0.3c0.1-0.1,0.2-0.1,0.3-0.1h14.3L316-722.2c-0.1-0.1-0.3-0.2-0.4-0.3
			c-0.1-0.1-0.2-0.3-0.2-0.5c-0.1-0.2-0.1-0.4-0.1-0.7s0-0.6,0-1.1c0-0.4,0-0.8,0.1-1c0-0.3,0.1-0.5,0.2-0.6
			c0.1-0.2,0.1-0.3,0.2-0.3c0.1-0.1,0.2-0.1,0.3-0.1c0.2,0,0.4,0.1,0.6,0.2s0.5,0.3,0.9,0.6l12.7,10.6l15.2-11.5
			c0.4-0.3,0.7-0.5,0.9-0.5C346.5-727.4,346.6-727.5,346.7-727.5z"/>
		<path class="st0" d="M335-743.1h11.8c0.1,0,0.2,0,0.3,0.1c0.1,0.1,0.2,0.2,0.2,0.3c0.1,0.2,0.1,0.4,0.1,0.7c0,0.3,0.1,0.6,0.1,1
			c0,0.4,0,0.8-0.1,1c0,0.3-0.1,0.5-0.1,0.7c-0.1,0.2-0.1,0.3-0.2,0.4c-0.1,0.1-0.2,0.1-0.3,0.1H335l-18.1,9.1
			c-0.4,0.2-0.7,0.3-0.9,0.3c-0.2,0-0.4,0-0.5-0.1c-0.1-0.1-0.2-0.3-0.2-0.7s0-0.8,0-1.3c0-0.5,0-0.9,0-1.2c0-0.3,0.1-0.5,0.1-0.7
			c0.1-0.2,0.1-0.3,0.2-0.4c0.1-0.1,0.2-0.2,0.4-0.3l9.2-4.4c0.9-0.4,1.8-0.8,2.8-1.2c1-0.4,1.9-0.8,2.9-1.3v0
			c-0.9-0.4-1.9-0.8-2.8-1.2c-0.9-0.4-1.9-0.8-2.8-1.2L316-748c-0.2,0-0.3-0.1-0.4-0.2c-0.1-0.1-0.2-0.2-0.3-0.4
			c-0.1-0.2-0.1-0.4-0.1-0.7s0-0.6,0-1.1c0-0.6,0-1.1,0.1-1.4c0-0.3,0.1-0.6,0.2-0.7s0.3-0.2,0.5-0.1c0.2,0,0.5,0.2,0.9,0.3
			L335-743.1z"/>
		<path class="st0" d="M334.9-764.4c0.6,0,1.1,0.1,1.3,0.2c0.2,0.1,0.4,0.4,0.4,0.6v10.4c0,0.3-0.1,0.5-0.4,0.7
			c-0.3,0.1-0.7,0.2-1.3,0.2c-0.6,0-1.1-0.1-1.3-0.2c-0.2-0.1-0.4-0.4-0.4-0.7v-10.4c0-0.1,0-0.3,0.1-0.4s0.1-0.2,0.3-0.3
			s0.3-0.1,0.5-0.2C334.3-764.3,334.6-764.4,334.9-764.4z"/>
		<path class="st0" d="M331.3-790.1c2.5,0,4.7,0.2,6.7,0.6s3.8,1,5.2,1.9c1.5,0.9,2.6,2.1,3.4,3.5s1.2,3.2,1.2,5.4
			c0,2-0.4,3.7-1.1,5.1c-0.7,1.4-1.8,2.5-3.2,3.3c-1.4,0.8-3.1,1.4-5.2,1.8c-2,0.4-4.4,0.5-7,0.5c-2.4,0-4.7-0.2-6.7-0.6
			c-2-0.4-3.8-1-5.3-1.9c-1.5-0.9-2.6-2.1-3.4-3.5s-1.2-3.2-1.2-5.4c0-2,0.4-3.7,1.1-5.1c0.7-1.4,1.8-2.5,3.2-3.3
			c1.4-0.8,3.1-1.4,5.2-1.8C326.3-789.9,328.7-790.1,331.3-790.1z M331.6-785.7c-1.6,0-3,0.1-4.3,0.2c-1.3,0.1-2.4,0.3-3.4,0.5
			s-1.8,0.5-2.5,0.9s-1.3,0.8-1.7,1.3s-0.8,1.1-1,1.7s-0.3,1.4-0.3,2.1c0,1.4,0.3,2.5,1,3.4c0.7,0.9,1.6,1.6,2.7,2.1
			c1.2,0.5,2.5,0.8,4.1,1c1.6,0.2,3.2,0.3,5,0.3c2.4,0,4.4-0.1,6.1-0.4s3-0.6,4.1-1.2c1.1-0.5,1.8-1.2,2.3-2.1s0.7-1.8,0.7-3
			c0-0.9-0.1-1.7-0.4-2.4s-0.7-1.3-1.3-1.8c-0.6-0.5-1.2-0.9-2-1.3s-1.6-0.6-2.6-0.8c-0.9-0.2-2-0.3-3.1-0.4
			S332.8-785.7,331.6-785.7z"/>
		<path class="st0" d="M338.2-814.5c1.5,0,2.8,0.3,4,0.8s2.2,1.2,3,2.2c0.8,1,1.5,2.1,1.9,3.5c0.5,1.4,0.7,3,0.7,4.8
			c0,1.1-0.1,2.1-0.3,3c-0.2,0.9-0.4,1.8-0.6,2.5c-0.2,0.7-0.5,1.3-0.7,1.8c-0.3,0.5-0.4,0.8-0.6,0.9c-0.1,0.1-0.2,0.2-0.3,0.3
			c-0.1,0.1-0.3,0.1-0.4,0.2c-0.2,0-0.4,0.1-0.6,0.1c-0.2,0-0.5,0-0.9,0c-0.6,0-1-0.1-1.2-0.2c-0.2-0.1-0.3-0.3-0.3-0.5
			c0-0.2,0.1-0.5,0.4-0.9c0.3-0.4,0.5-1,0.9-1.7c0.3-0.7,0.6-1.5,0.9-2.5c0.3-0.9,0.4-2,0.4-3.1c0-1.1-0.1-2.1-0.4-3
			c-0.3-0.8-0.7-1.6-1.2-2.1c-0.5-0.6-1.1-1-1.8-1.3c-0.7-0.3-1.5-0.4-2.3-0.4c-0.9,0-1.7,0.2-2.5,0.6s-1.4,0.9-1.9,1.6
			c-0.5,0.7-0.9,1.6-1.2,2.6s-0.4,2.2-0.4,3.5v3.2c0,0.1,0,0.3-0.1,0.4c-0.1,0.1-0.2,0.2-0.3,0.3c-0.1,0.1-0.3,0.2-0.5,0.2
			s-0.5,0.1-0.8,0.1c-0.3,0-0.6,0-0.8-0.1s-0.4-0.1-0.5-0.2c-0.1-0.1-0.2-0.2-0.3-0.3c-0.1-0.1-0.1-0.2-0.1-0.4v-2.8
			c0-1.1-0.1-2.1-0.4-2.9s-0.7-1.6-1.2-2.2s-1.2-1.1-1.9-1.4c-0.7-0.3-1.6-0.5-2.5-0.5c-0.7,0-1.3,0.1-1.9,0.3s-1.1,0.5-1.6,1
			s-0.8,1-1.1,1.6c-0.3,0.7-0.4,1.4-0.4,2.3c0,1,0.1,1.8,0.4,2.6c0.3,0.8,0.6,1.5,0.9,2.1c0.3,0.6,0.6,1.1,0.9,1.6
			c0.3,0.4,0.4,0.7,0.4,0.9c0,0.1,0,0.2-0.1,0.3c0,0.1-0.1,0.2-0.2,0.2c-0.1,0.1-0.3,0.1-0.5,0.1c-0.2,0-0.5,0-0.9,0
			c-0.2,0-0.5,0-0.7,0s-0.4,0-0.5-0.1c-0.1,0-0.3-0.1-0.4-0.2c-0.1-0.1-0.3-0.2-0.4-0.3s-0.4-0.5-0.7-1c-0.3-0.5-0.6-1.1-0.9-1.8
			s-0.5-1.5-0.7-2.4c-0.2-0.9-0.3-1.9-0.3-3c0-1.5,0.2-2.8,0.6-3.9c0.4-1.1,0.9-2.1,1.6-2.8c0.7-0.8,1.5-1.3,2.5-1.7
			c1-0.4,2-0.6,3.2-0.6c1,0,1.9,0.1,2.8,0.4s1.6,0.7,2.3,1.2s1.2,1.1,1.7,1.9c0.5,0.7,0.8,1.6,1,2.6h0c0.1-1.1,0.4-2.1,0.8-3
			s1-1.7,1.6-2.4c0.7-0.7,1.4-1.2,2.3-1.5S337.2-814.5,338.2-814.5z"/>
		<path class="st0" d="M317.2-841c0.3,0,0.6,0,0.8,0c0.2,0,0.5,0.1,0.7,0.1c0.2,0,0.4,0.1,0.6,0.2c0.2,0.1,0.4,0.2,0.7,0.3
			l26.6,11.6c0.2,0.1,0.4,0.2,0.5,0.3s0.2,0.3,0.3,0.5c0.1,0.2,0.1,0.4,0.1,0.7c0,0.3,0,0.7,0,1.1c0,0.6,0,1-0.1,1.3
			c0,0.3-0.1,0.5-0.2,0.7s-0.2,0.2-0.4,0.2c-0.2,0-0.3-0.1-0.6-0.2l-27.2-12.2v15.4c0,0.3-0.2,0.5-0.5,0.7s-0.8,0.2-1.4,0.2
			c-0.3,0-0.6,0-0.8-0.1c-0.2,0-0.4-0.1-0.6-0.2c-0.2-0.1-0.3-0.2-0.3-0.3c-0.1-0.1-0.1-0.2-0.1-0.4v-18.7c0-0.2,0-0.4,0.1-0.6
			c0-0.2,0.1-0.3,0.3-0.4c0.1-0.1,0.3-0.2,0.6-0.2S316.8-841,317.2-841z"/>
	</g>
	<g class="st9">
		<path class="st0" d="M85.6-214.3c0.1,0.4,0.2,0.7,0.2,0.9c0,0.2-0.1,0.4-0.2,0.5c-0.1,0.1-0.4,0.2-0.7,0.2c-0.3,0-0.7,0-1.2,0
			s-0.9,0-1.2,0c-0.3,0-0.5-0.1-0.7-0.1s-0.3-0.1-0.3-0.2s-0.1-0.2-0.2-0.4l-2.8-7.8H65.1l-2.6,7.7c0,0.1-0.1,0.3-0.2,0.4
			s-0.2,0.2-0.4,0.3c-0.2,0.1-0.4,0.1-0.7,0.2c-0.3,0-0.7,0-1.1,0c-0.5,0-0.9,0-1.2-0.1c-0.3,0-0.5-0.1-0.6-0.2
			c-0.1-0.1-0.2-0.3-0.2-0.5c0-0.2,0.1-0.5,0.2-0.9l10.8-29.8c0.1-0.2,0.2-0.3,0.3-0.4c0.1-0.1,0.3-0.2,0.5-0.3
			c0.2-0.1,0.5-0.1,0.8-0.1c0.3,0,0.7,0,1.2,0c0.5,0,1,0,1.3,0c0.3,0,0.6,0.1,0.8,0.1s0.4,0.2,0.5,0.3c0.1,0.1,0.2,0.3,0.3,0.5
			L85.6-214.3z M71.8-240.6L71.8-240.6l-5.6,16h11.2L71.8-240.6z"/>
		<path class="st0" d="M110.6-228.9c0,2.5-0.2,4.7-0.6,6.7s-1,3.8-1.9,5.2c-0.9,1.5-2.1,2.6-3.5,3.4s-3.2,1.2-5.4,1.2
			c-2,0-3.7-0.4-5.1-1.1c-1.4-0.7-2.5-1.8-3.3-3.2c-0.8-1.4-1.4-3.1-1.8-5.2c-0.4-2-0.5-4.4-0.5-7c0-2.4,0.2-4.7,0.6-6.7
			c0.4-2,1-3.8,1.9-5.3c0.9-1.5,2.1-2.6,3.5-3.4s3.2-1.2,5.4-1.2c2,0,3.7,0.4,5.1,1.1c1.4,0.7,2.5,1.8,3.3,3.2
			c0.8,1.4,1.4,3.1,1.8,5.2C110.5-233.9,110.6-231.6,110.6-228.9z M106.3-228.6c0-1.6-0.1-3-0.2-4.3c-0.1-1.3-0.3-2.4-0.5-3.4
			s-0.5-1.8-0.9-2.5s-0.8-1.3-1.3-1.7s-1.1-0.8-1.7-1s-1.4-0.3-2.1-0.3c-1.4,0-2.5,0.3-3.4,1c-0.9,0.7-1.6,1.6-2.1,2.7
			c-0.5,1.2-0.8,2.5-1,4.1c-0.2,1.6-0.3,3.2-0.3,5c0,2.4,0.1,4.4,0.4,6.1s0.6,3,1.2,4.1c0.5,1.1,1.2,1.8,2.1,2.3s1.8,0.7,3,0.7
			c0.9,0,1.7-0.1,2.4-0.4s1.3-0.7,1.8-1.3c0.5-0.6,0.9-1.2,1.3-2s0.6-1.6,0.8-2.6c0.2-0.9,0.3-2,0.4-3.1S106.3-227.4,106.3-228.6z"
			/>
	</g>
	<g class="st9">
		<path class="st0" d="M159.7-240.5c0,0.3,0,0.6,0,0.8c0,0.2-0.1,0.4-0.1,0.6c-0.1,0.2-0.1,0.3-0.2,0.3c-0.1,0.1-0.2,0.1-0.3,0.1
			c-0.2,0-0.5-0.2-1-0.5c-0.5-0.3-1.1-0.7-1.9-1c-0.8-0.4-1.7-0.7-2.8-1c-1.1-0.3-2.4-0.5-3.9-0.5c-1.8,0-3.4,0.3-4.8,1
			c-1.4,0.6-2.6,1.5-3.6,2.7c-1,1.1-1.7,2.5-2.2,4.1c-0.5,1.6-0.8,3.3-0.8,5.1c0,2.1,0.3,3.9,0.9,5.5c0.6,1.6,1.4,2.9,2.4,4
			c1,1.1,2.2,1.9,3.6,2.5c1.4,0.6,2.9,0.8,4.6,0.8c1,0,2-0.1,3-0.4c1-0.2,2-0.6,2.8-1.1v-9.4h-7.4c-0.3,0-0.5-0.1-0.6-0.4
			c-0.1-0.3-0.2-0.7-0.2-1.3c0-0.3,0-0.6,0-0.8c0-0.2,0.1-0.4,0.2-0.5s0.2-0.2,0.3-0.3c0.1-0.1,0.2-0.1,0.4-0.1h10.2
			c0.2,0,0.4,0,0.5,0.1c0.2,0.1,0.3,0.2,0.5,0.3c0.1,0.1,0.3,0.3,0.3,0.5s0.1,0.5,0.1,0.8v12.2c0,0.4-0.1,0.8-0.2,1.1
			c-0.1,0.3-0.5,0.6-0.9,0.8c-0.5,0.2-1.1,0.5-1.9,0.8c-0.8,0.3-1.5,0.5-2.4,0.7c-0.8,0.2-1.6,0.3-2.5,0.4c-0.8,0.1-1.6,0.1-2.5,0.1
			c-2.5,0-4.7-0.4-6.6-1.2c-2-0.8-3.6-1.9-4.9-3.3c-1.3-1.4-2.4-3.1-3.1-5.1c-0.7-2-1.1-4.2-1.1-6.6c0-2.5,0.4-4.9,1.2-6.9
			c0.8-2.1,1.9-3.8,3.2-5.3s3.1-2.6,5-3.4c2-0.8,4.1-1.2,6.5-1.2c1.2,0,2.4,0.1,3.4,0.3c1.1,0.2,2,0.5,2.9,0.8
			c0.8,0.3,1.5,0.6,2.1,0.9c0.6,0.3,1,0.6,1.2,0.8s0.4,0.5,0.4,0.7C159.7-241.4,159.7-241,159.7-240.5z"/>
	</g>
	<g class="st9">
		<path class="st0" d="M220.1-223.9c0,0.3,0,0.6-0.1,0.8s-0.1,0.4-0.2,0.6c-0.1,0.1-0.2,0.3-0.3,0.3c-0.1,0.1-0.2,0.1-0.4,0.1H211v9
			c0,0.1,0,0.2-0.1,0.3c-0.1,0.1-0.2,0.2-0.3,0.2c-0.1,0.1-0.3,0.1-0.6,0.2c-0.2,0-0.5,0.1-0.9,0.1c-0.3,0-0.6,0-0.9-0.1
			c-0.2,0-0.4-0.1-0.6-0.2c-0.1-0.1-0.2-0.1-0.3-0.2c-0.1-0.1-0.1-0.2-0.1-0.3v-9h-8.1c-0.1,0-0.3,0-0.4-0.1
			c-0.1-0.1-0.2-0.2-0.3-0.3c-0.1-0.1-0.1-0.3-0.2-0.6s-0.1-0.5-0.1-0.8c0-0.3,0-0.6,0.1-0.8c0-0.2,0.1-0.4,0.2-0.6s0.2-0.3,0.3-0.3
			c0.1-0.1,0.2-0.1,0.4-0.1h8.2v-9c0-0.1,0-0.3,0.1-0.4c0.1-0.1,0.2-0.2,0.3-0.3c0.1-0.1,0.3-0.1,0.6-0.2c0.2,0,0.5-0.1,0.9-0.1
			c0.3,0,0.6,0,0.9,0.1c0.2,0,0.4,0.1,0.6,0.2s0.2,0.2,0.3,0.3c0.1,0.1,0.1,0.2,0.1,0.4v9h8.2c0.1,0,0.3,0,0.4,0.1s0.2,0.2,0.3,0.3
			s0.2,0.3,0.2,0.6C220.1-224.5,220.1-224.2,220.1-223.9z"/>
	</g>
	<g class="st9">
		<path class="st0" d="M270.4-229.3c0,2.8-0.4,5.2-1.1,7.3c-0.7,2.1-1.7,3.8-3.1,5.2s-3,2.4-5,3.1c-2,0.7-4.3,1-7.1,1h-6.8
			c-0.4,0-0.7-0.1-1.1-0.4c-0.3-0.3-0.5-0.7-0.5-1.4v-28.6c0-0.6,0.2-1.1,0.5-1.4c0.3-0.3,0.7-0.4,1.1-0.4h7.3c2.8,0,5.1,0.4,7,1.1
			c1.9,0.7,3.5,1.8,4.8,3.1c1.3,1.3,2.3,3,3,4.9S270.4-231.7,270.4-229.3z M265.9-229.1c0-1.7-0.2-3.4-0.6-4.8
			c-0.4-1.5-1.1-2.8-2-3.9c-0.9-1.1-2.1-1.9-3.5-2.6c-1.4-0.6-3.2-0.9-5.4-0.9H250v25h4.4c2.1,0,3.8-0.3,5.2-0.8s2.6-1.3,3.5-2.4
			c0.9-1.1,1.6-2.4,2.1-4C265.6-225.1,265.9-226.9,265.9-229.1z"/>
		<path class="st0" d="M296.7-228.9c0,2.5-0.2,4.7-0.6,6.7s-1,3.8-1.9,5.2c-0.9,1.5-2.1,2.6-3.5,3.4s-3.2,1.2-5.4,1.2
			c-2,0-3.7-0.4-5.1-1.1c-1.4-0.7-2.5-1.8-3.3-3.2c-0.8-1.4-1.4-3.1-1.8-5.2c-0.4-2-0.5-4.4-0.5-7c0-2.4,0.2-4.7,0.6-6.7
			c0.4-2,1-3.8,1.9-5.3c0.9-1.5,2.1-2.6,3.5-3.4s3.2-1.2,5.4-1.2c2,0,3.7,0.4,5.1,1.1c1.4,0.7,2.5,1.8,3.3,3.2
			c0.8,1.4,1.4,3.1,1.8,5.2C296.5-233.9,296.7-231.6,296.7-228.9z M292.3-228.6c0-1.6-0.1-3-0.2-4.3c-0.1-1.3-0.3-2.4-0.5-3.4
			s-0.5-1.8-0.9-2.5s-0.8-1.3-1.3-1.7s-1.1-0.8-1.7-1s-1.4-0.3-2.1-0.3c-1.4,0-2.5,0.3-3.4,1c-0.9,0.7-1.6,1.6-2.1,2.7
			c-0.5,1.2-0.8,2.5-1,4.1c-0.2,1.6-0.3,3.2-0.3,5c0,2.4,0.1,4.4,0.4,6.1s0.6,3,1.2,4.1c0.5,1.1,1.2,1.8,2.1,2.3s1.8,0.7,3,0.7
			c0.9,0,1.7-0.1,2.4-0.4s1.3-0.7,1.8-1.3c0.5-0.6,0.9-1.2,1.3-2s0.6-1.6,0.8-2.6c0.2-0.9,0.3-2,0.4-3.1S292.3-227.4,292.3-228.6z"
			/>
	</g>
</g>
</svg>
