<?xml version="1.0" encoding="utf-8"?>
<!-- Generator: Adobe Illustrator 27.8.0, SVG Export Plug-In . SVG Version: 6.00 Build 0)  -->
<svg version="1.1"
	 id="svg8" xmlns:svg="http://www.w3.org/2000/svg" xmlns:rdf="http://www.w3.org/1999/02/22-rdf-syntax-ns#" xmlns:sodipodi="http://sodipodi.sourceforge.net/DTD/sodipodi-0.dtd" xmlns:dc="http://purl.org/dc/elements/1.1/" xmlns:inkscape="http://www.inkscape.org/namespaces/inkscape" xmlns:cc="http://creativecommons.org/ns#" inkscape:export-xdpi="93" inkscape:export-ydpi="93" inkscape:version="0.92.4 (5da689c313, 2019-01-14)"
	 xmlns="http://www.w3.org/2000/svg" xmlns:xlink="http://www.w3.org/1999/xlink" x="0px" y="0px" viewBox="0 0 495 1081"
	 style="enable-background:new 0 0 495 1081;" xml:space="preserve">
<style type="text/css">
	.st0{fill:#FFFFFF;}
	.st1{fill:#1A1A1A;}
	.st2{opacity:0.99;enable-background:new    ;}
	.st3{fill:#CCCCCC;}
	.st4{opacity:0.99;fill:#808080;enable-background:new    ;}
	.st5{opacity:0.99;fill:#CCCCCC;enable-background:new    ;}
	.st6{opacity:0.99;fill:#FFFFFF;enable-background:new    ;}
	.st7{opacity:0.99;fill:#1A1A1A;enable-background:new    ;}
	.st8{enable-background:new    ;}
</style>
<defs>
	
		<inkscape:perspective  id="perspective876" inkscape:persp3d-origin="105 : 98.999992 : 1" inkscape:vp_x="0 : 148.49999 : 1" inkscape:vp_y="0 : 999.99991 : 0" inkscape:vp_z="210.00001 : 148.49999 : 1" sodipodi:type="inkscape:persp3d">
		</inkscape:perspective>
</defs>
<sodipodi:namedview  bordercolor="#666666" borderopacity="1.0" id="base" inkscape:current-layer="layer1" inkscape:cx="15.298497" inkscape:cy="1795.2882" inkscape:document-units="mm" inkscape:lockguides="true" inkscape:pageopacity="0.0" inkscape:pageshadow="2" inkscape:window-height="1017" inkscape:window-maximized="1" inkscape:window-width="1920" inkscape:window-x="-8" inkscape:window-y="-8" inkscape:zoom="0.1767767" pagecolor="#ffffff" showgrid="false" showguides="true" width="500mm">
	</sodipodi:namedview>
<g id="layer1" transform="translate(0.31582593,685.81107)" inkscape:groupmode="layer" inkscape:label="Ebene 1">
	<rect id="rect815" x="-0.2" y="-426.2" width="495.4" height="665.8"/>
	<rect id="rect821" x="116.9" y="131.2" class="st0" width="257.8" height="88.7"/>
	<path id="rect825" class="st1" d="M133.8,136.2h51.7c9,0,16.3,7.3,16.3,16.3v45.3c0,9-7.3,16.3-16.3,16.3h-51.7
		c-9,0-16.3-7.3-16.3-16.3v-45.3C117.5,143.5,124.8,136.2,133.8,136.2z"/>
	<rect id="rect831" x="69.4" y="-54" class="st0" width="352.7" height="88.7"/>
	<rect id="rect833" x="69.4" y="-146.7" class="st0" width="352.7" height="88.7"/>
	<rect id="rect837" x="69.4" y="-239.3" class="st0" width="352.7" height="88.7"/>
	<path id="rect872" class="st1" d="M306,136.2h51.7c9,0,16.3,7.3,16.3,16.3v45.3c0,9-7.3,16.3-16.3,16.3H306
		c-9,0-16.3-7.3-16.3-16.3v-45.3C289.7,143.5,297,136.2,306,136.2z"/>
	<path id="rect874" class="st1" d="M217.8,136.2h55.9c7.9,0,14.2,6.4,14.2,14.2V200c0,7.9-6.4,14.2-14.2,14.2h-55.9
		c-7.9,0-14.2-6.4-14.2-14.2v-49.5C203.6,142.6,209.9,136.2,217.8,136.2z"/>
	<rect id="rect892" x="74.2" y="-51.3" class="st2" width="345.2" height="81.9"/>
	<path id="rect836" class="st3" d="M115.2-51.3h21.1c22.6,0,41,18.3,41,41l0,0c0,22.6-18.3,41-41,41h-21.1c-22.6,0-41-18.3-41-41
		l0,0C74.2-33,92.6-51.3,115.2-51.3z"/>
	<rect id="rect850" x="184" y="-51.3" class="st3" width="103" height="81.9"/>
	<rect id="rect892-7" x="73.1" y="-143.5" class="st2" width="345.2" height="81.9"/>
	<rect id="rect892-72" x="73.1" y="-235.6" class="st2" width="345.2" height="81.9"/>
	<path id="rect836-7" class="st3" d="M114.1-142.8H135c22.5,0,40.7,18.2,40.7,40.7l0,0c0,22.5-18.2,40.7-40.7,40.7h-20.9
		c-22.5,0-40.7-18.2-40.7-40.7l0,0C73.4-124.6,91.6-142.8,114.1-142.8z"/>
	<path id="rect836-6" class="st3" d="M224.1-142.8H245c22.5,0,40.7,18.2,40.7,40.7l0,0c0,22.5-18.2,40.7-40.7,40.7h-20.9
		c-22.5,0-40.7-18.2-40.7-40.7l0,0C183.4-124.6,201.6-142.8,224.1-142.8z"/>
	<path id="rect939" class="st3" d="M224.5-236.3h21.1c22.6,0,41,18.3,41,41l0,0c0,22.6-18.3,41-41,41h-21.1c-22.6,0-41-18.3-41-41
		l0,0C183.6-218,201.9-236.3,224.5-236.3z"/>
	<path id="rect941" class="st3" d="M113.5-236.3h21.1c22.6,0,41,18.3,41,41l0,0c0,22.6-18.3,41-41,41h-21.1c-22.6,0-41-18.3-41-41
		l0,0C72.5-218,90.9-236.3,113.5-236.3z"/>
	<rect id="rect943" x="303.3" y="-141" class="st3" width="113.7" height="77"/>
	<rect id="rect945" x="303.3" y="-233.2" class="st3" width="113.7" height="77"/>
	<rect id="rect947" x="154.9" y="178.7" class="st4" width="9.4" height="162.7"/>
	<rect id="rect949" x="241.4" y="178.7" class="st4" width="9.4" height="162.7"/>
	<rect id="rect951" x="327" y="178.7" class="st4" width="9.4" height="162.7"/>
	<g id="flowRoot969" transform="translate(0,-48.457199)">
	</g>
	<ellipse id="path1456" class="st5" cx="69.2" cy="-287.3" rx="45.2" ry="44.2"/>
	<ellipse id="ellipse1458" class="st5" cx="421.8" cy="-287.3" rx="45.2" ry="44.2"/>
	<ellipse id="path1460" class="st6" cx="69.2" cy="-287.6" rx="40.7" ry="39.9"/>
	<ellipse id="ellipse1464" class="st6" cx="421.6" cy="-287.6" rx="40.7" ry="39.9"/>
	<g id="flowRoot1466" transform="translate(0,-48.457199)">
	</g>
	<circle id="circle1504" class="st6" cx="125.1" cy="-10.3" r="38.5"/>
	<circle id="circle1510" class="st6" cx="234.5" cy="-10.3" r="38.5"/>
	<rect id="rect1512" x="131.7" y="-680.8" class="st7" width="230.9" height="197.9"/>
	<g id="flowRoot1529" transform="translate(0,-48.457199)">
	</g>
	<circle id="circle77" class="st6" cx="124.5" cy="-195.4" r="38.5"/>
	<circle id="circle79" class="st6" cx="234.5" cy="-195.4" r="38.5"/>
	<circle id="circle81" class="st6" cx="359.9" cy="-194.8" r="33"/>
	<path id="path31-1" inkscape:connector-curvature="0" class="st0" d="M140.6-374.2c3.1-0.1,3.4-0.1,4-0.4c0.3-0.2,0.8-0.6,1-1
		c0.3-0.6,0.4-0.9,0.4-7.2l0.1-6.6l6.5,0l6.5,0v8.3c0,9.1-0.1,10-1,12.4c-1.2,3.1-3.1,4.6-6.8,5.5c-1,0.2-2.2,0.3-6,0.3
		c-2.6,0-5.4-0.1-6.3-0.2l-1.6-0.1l0-5.4l0-5.4L140.6-374.2L140.6-374.2z M202.9-355.6c55.8,0,69.6,0.1,67.3,0.3l-0.4,0l0.4,0.2
		c0.3,0.1,0.3,0.2-0.3,0.2c-0.4,0-0.2,0.1,0.5,0.2l1.2,0.1l-1.2,0.1c-0.6,0-1,0.1-0.8,0.1c0.3,0.1,0.3,0.3,0.3,1.6
		c0,1.5,0,1.5,0.5,1.5c0.3,0.1,0.3,0.1-0.3,0.1c-0.4,0-0.8,0.1-0.8,0.2c0,0.1-22.1,0.2-66.1,0.2h-66.1v-2.4v-2.4L202.9-355.6z
		 M152.6-406.5h6.6v5.4v5.4h-6.6H146v-5.4v-5.4H152.6z M165.9-386.7c0.5-3,1.3-5.7,2.5-8.1c0.4-0.9,0.9-1.6,0.9-1.7
		c0.1,0,0.4-0.5,0.7-1.1c0.7-1.1,2.3-3,2.6-3.2c0.1-0.1,0.2-0.2,0.2-0.3c0-0.2,1.6-1.7,2.9-2.6c1.4-1,2.5-1.5,4.9-2.4
		c2.9-1.1,4.5-1.3,7.9-1.2c2.5,0.1,3.1,0.2,4.6,0.6c1,0.3,2.2,0.7,2.6,0.9c0.5,0.2,0.9,0.4,1,0.4c0.1,0,0.8,0.4,1.6,0.8
		c3.2,1.8,7.5,6.7,9.1,10.4c2.6,5.7,2.9,11.4,1,16.7c-0.8,2.2-1.4,3.5-2.4,5.1c-1.1,1.8-1.2,1.9-3.9,4.6c-3.1,3.1-5.3,4.4-9.4,5.5
		c-2.1,0.6-6.1,0.8-8.3,0.4c-2.8-0.4-6.6-2-9-3.8c-1.2-0.9-2.8-2.3-2.8-2.5c0,0-0.4-0.5-0.9-1c-2.4-2.4-4.8-7.1-5.7-11
		C165.9-381.8,165.7-385.6,165.9-386.7L165.9-386.7z M178.5-381.2c0.6,2.5,1.9,4.6,3.9,6.5c2,1.9,5.1,2.6,7.9,1.8
		c3-0.9,6-4.4,6.9-8.2c0.6-2.2,0.5-5.3-0.1-7.4c-0.9-3-2.4-5.3-4.6-6.8c-1-0.7-1.4-0.9-2.5-1.1c-2.2-0.4-4.5-0.2-6.1,0.6
		c-1.4,0.7-3.2,2.7-4.2,4.7C178-388,177.6-384.4,178.5-381.2L178.5-381.2z M215.5-406.4c0.1,0,3.1-0.1,6.6,0l6.4,0l0,5.9
		c0,5.6,0,6,0.4,6.9c0.9,2.5,4,3.9,6.6,3c1.4-0.5,2.3-1.2,2.9-2.5l0.6-1.1l0.1-6.1l0.1-6.1h6.6h6.6l-0.1,6.9c-0.1,6.4-0.1,7-0.5,8.3
		c-0.7,2.7-1.9,5-3.4,6.8c-0.4,0.5-0.7,0.9-0.7,1c0,0.2-1.7,1.7-3.1,2.8c-1.3,0.9-3,1.9-3.9,2.1c-0.3,0.1-1.2,0.3-2,0.6
		c-1.4,0.4-1.8,0.5-4.7,0.5c-3,0-3.3,0-5-0.5c-2.6-0.7-3.5-1.1-5.2-2.2c-2-1.3-3.6-2.9-5-5c-2-2.9-2.8-5-3.2-8.4
		C215.2-395.8,215.3-406.3,215.5-406.4L215.5-406.4z M233.9-374h10.8v5.5v5.5h-10.8h-10.8v-5.5v-5.5H233.9z M252.4-415
		c0.1,0,0.2-0.3,0.2-0.7c0-0.7,0-0.7,0.8-0.8c0.5-0.1,18.7-0.1,40.6-0.1l39.8,0l-0.1,2.4l-0.1,2.4h-40.5c-22.2,0-40.6,0-40.7-0.1
		c-0.2-0.1-0.3-0.4-0.3-1.6C252.2-414.4,252.3-415,252.4-415L252.4-415z M270.6-388.4h13.7v5.5v5.5h-13.7h-13.7v-5.5v-5.5H270.6z
		 M295.2-406.5h6.6v5.4v5.4h-6.6h-6.6v-5.4v-5.4H295.2z M295.2-390.2h6.6v13.9v13.9h-6.6h-6.6v-13.9v-13.9H295.2z M321.5-406.5h13.8
		v5.4v5.4h-13.8h-13.8v-5.4v-5.4H321.5z M310-389.4c0.1-0.1,3-0.1,6.5-0.1l6.3,0l0.1,6.4c0.1,8.9-0.3,8.4,6.4,8.5l4.2,0.1v5.6v5.6
		l-1.6,0.2c-2.4,0.3-9.9,0.3-12-0.1c-3.5-0.6-5.8-1.6-7.3-3.5c-1.6-1.9-2.3-3.8-2.7-6.9C309.8-375.5,309.8-389.2,310-389.4
		L310-389.4z M343.1-411.8c0.3-1.2,1-2.3,1.7-2.9c3-2.6,6.6-2.9,9.5-0.7c1.4,1,1.7,1.4,2.3,2.7c0.5,0.9,0.5,1.2,0.5,2.9
		c0,1.7-0.1,2-0.5,3c-1,2.2-3.5,3.8-6,4c-2.3,0.2-4.1-0.5-5.9-2.3C343.1-406.7,342.4-409.5,343.1-411.8L343.1-411.8z M344.4-407.2
		c0.6,1.4,2.5,2.8,4.4,3.3c1.9,0.5,3.4,0.1,5.6-1.5c0.5-0.4,0.9-0.9,1.3-1.7c0.5-1.1,0.6-1.4,0.6-2.7c0-1.4,0-1.6-0.6-2.7
		c-0.5-1-0.8-1.3-1.7-2c-0.6-0.4-1.5-0.9-2-1c-3-1-6.6,0.6-7.8,3.5C343.7-411,343.8-408.6,344.4-407.2L344.4-407.2z M349.3-414.1
		c1.3,0,2.6,0.1,2.9,0.2c1.1,0.4,1.6,2.5,0.8,3.4c-0.2,0.2-0.6,0.6-1,0.7l-0.6,0.2l0.6,0.7c0.3,0.4,0.9,1.1,1.2,1.6
		c0.3,0.5,0.6,1,0.7,1.1c0.4,0.2,0.1,0.4-0.6,0.4l-0.8,0l-1.1-1.7c-1.1-1.8-1.4-2-2.7-2H348v1.9v1.9l-0.5-0.1l-0.5-0.1l0-4.1l0-4.1
		L349.3-414.1z M349.6-410.6c1.3,0,1.7-0.1,2.1-0.4c1-0.8,0.4-2-1-2.2c-0.6-0.1-2.3,0-2.6,0.1c0,0,0,0.6,0,1.2v1.2L349.6-410.6z"/>
	<path id="rect78" inkscape:connector-curvature="0" class="st4" d="M197.7-483.1l-77.5,226h0.2l-0.2,161.4h8.6l0.2-161.4l77.5-226
		L197.7-483.1z"/>
	<path id="rect76" inkscape:connector-curvature="0" class="st4" d="M241.7-483.1l-11.4,225.5h0.1l-0.3,161.8l8.5,0l0.3-161.8h0.1
		l11.4-225.5L241.7-483.1z"/>
	<path id="rect74" inkscape:connector-curvature="0" class="st4" d="M285.7-483.1l69.8,227.2h0l0,161.2h8.8l0-161.2h0l0-0.1v-0.1h0
		l-69.8-227L285.7-483.1z"/>
	<rect id="rect92" x="303.3" y="-48.5" class="st3" width="113.7" height="77"/>
	<circle id="circle1514" class="st6" cx="359.9" cy="-10" r="33"/>
	<g class="st8">
		<path d="M118.1,353.3c0,0.4,0,0.7-0.1,0.9c0,0.3-0.1,0.5-0.2,0.7c-0.1,0.2-0.2,0.3-0.3,0.4c-0.1,0.1-0.2,0.1-0.4,0.1
			c-0.2,0-0.6-0.2-1.1-0.5c-0.5-0.4-1.2-0.7-2.1-1.2s-1.9-0.8-3.2-1.2c-1.2-0.4-2.7-0.5-4.4-0.5c-2,0-3.8,0.4-5.4,1.1
			c-1.6,0.7-2.9,1.7-4,3c-1.1,1.3-1.9,2.8-2.5,4.6c-0.6,1.8-0.9,3.7-0.9,5.8c0,2.3,0.3,4.4,1,6.2s1.5,3.3,2.7,4.5
			c1.1,1.2,2.5,2.2,4.1,2.8c1.6,0.6,3.3,1,5.2,1c1.1,0,2.3-0.1,3.4-0.4c1.1-0.3,2.2-0.7,3.2-1.2v-10.6h-8.4c-0.3,0-0.6-0.2-0.7-0.5
			c-0.2-0.3-0.2-0.8-0.2-1.5c0-0.4,0-0.7,0.1-0.9c0-0.3,0.1-0.5,0.2-0.6c0.1-0.2,0.2-0.3,0.3-0.3s0.3-0.1,0.4-0.1h11.5
			c0.2,0,0.4,0,0.6,0.1c0.2,0.1,0.4,0.2,0.6,0.3s0.3,0.4,0.4,0.6c0.1,0.3,0.1,0.6,0.1,0.9v13.8c0,0.5-0.1,0.9-0.3,1.3
			c-0.2,0.4-0.5,0.7-1.1,0.9c-0.5,0.3-1.2,0.6-2.1,0.9c-0.9,0.3-1.7,0.6-2.7,0.8c-0.9,0.2-1.8,0.4-2.8,0.5c-0.9,0.1-1.9,0.2-2.8,0.2
			c-2.8,0-5.3-0.4-7.5-1.3c-2.2-0.9-4.1-2.1-5.6-3.7c-1.5-1.6-2.7-3.5-3.5-5.8s-1.2-4.7-1.2-7.5c0-2.9,0.4-5.5,1.3-7.8
			c0.9-2.3,2.1-4.3,3.7-6c1.6-1.6,3.5-2.9,5.7-3.8c2.2-0.9,4.7-1.4,7.4-1.4c1.4,0,2.7,0.1,3.9,0.4c1.2,0.2,2.3,0.5,3.2,0.9
			c0.9,0.3,1.7,0.7,2.4,1.1c0.6,0.4,1.1,0.7,1.3,0.9c0.2,0.2,0.4,0.5,0.5,0.8C118,352.3,118.1,352.7,118.1,353.3z"/>
		<path d="M154.5,382.6c0,0.4-0.1,0.7-0.2,1s-0.3,0.5-0.5,0.6s-0.4,0.3-0.7,0.4c-0.3,0.1-0.5,0.1-0.8,0.1h-1.6
			c-0.5,0-0.9-0.1-1.3-0.2s-0.7-0.3-1.1-0.6s-0.7-0.6-1-1.1c-0.3-0.5-0.7-1.1-1.1-1.8l-11.1-20.6c-0.6-1.1-1.2-2.2-1.7-3.3
			c-0.6-1.2-1.1-2.3-1.6-3.4h-0.1c0,1.3,0.1,2.7,0.1,4.1c0,1.4,0,2.8,0,4.2v21.9c0,0.1,0,0.3-0.1,0.4c-0.1,0.1-0.2,0.2-0.4,0.3
			c-0.2,0.1-0.4,0.1-0.7,0.2s-0.7,0.1-1.2,0.1s-0.9,0-1.2-0.1s-0.5-0.1-0.7-0.2c-0.2-0.1-0.3-0.2-0.4-0.3c-0.1-0.1-0.1-0.2-0.1-0.4
			v-33.5c0-0.7,0.2-1.3,0.6-1.6c0.4-0.3,0.9-0.5,1.4-0.5h2.4c0.6,0,1,0,1.4,0.1c0.4,0.1,0.7,0.2,1,0.5c0.3,0.2,0.6,0.5,0.9,0.9
			c0.3,0.4,0.6,0.9,0.9,1.4l8.5,15.9c0.5,1,1,1.9,1.5,2.8c0.5,0.9,1,1.8,1.4,2.7s0.9,1.8,1.3,2.6c0.4,0.9,0.9,1.7,1.3,2.6h0
			c0-1.5-0.1-3-0.1-4.6c0-1.6,0-3.1,0-4.6v-19.7c0-0.1,0-0.3,0.1-0.4c0.1-0.1,0.2-0.2,0.4-0.3s0.4-0.1,0.7-0.2
			c0.3,0,0.7-0.1,1.2-0.1c0.4,0,0.8,0,1.1,0.1c0.3,0,0.6,0.1,0.7,0.2s0.3,0.2,0.4,0.3s0.1,0.2,0.1,0.4V382.6z"/>
		<path d="M192,366c0,3.1-0.4,5.9-1.2,8.2s-2,4.3-3.5,5.8s-3.4,2.7-5.7,3.5s-4.9,1.1-8,1.1h-7.7c-0.4,0-0.8-0.1-1.2-0.4
			c-0.4-0.3-0.6-0.8-0.6-1.5v-32.3c0-0.7,0.2-1.2,0.6-1.5c0.4-0.3,0.8-0.4,1.2-0.4h8.2c3.1,0,5.8,0.4,8,1.2s4,2,5.4,3.5
			c1.5,1.5,2.6,3.4,3.3,5.5C191.6,360.8,192,363.2,192,366z M186.9,366.2c0-2-0.2-3.8-0.7-5.5c-0.5-1.7-1.2-3.2-2.3-4.4
			c-1-1.2-2.3-2.2-3.9-2.9c-1.6-0.7-3.6-1-6.1-1h-4.9v28.2h5c2.3,0,4.3-0.3,5.9-0.9c1.6-0.6,2.9-1.5,4-2.7c1.1-1.2,1.9-2.7,2.4-4.5
			S186.9,368.6,186.9,366.2z"/>
	</g>
	<g class="st8">
		<path d="M242.3,368.8c0,0.4,0,0.7-0.1,0.9c-0.1,0.3-0.1,0.5-0.2,0.6c-0.1,0.2-0.2,0.3-0.3,0.4c-0.1,0.1-0.3,0.1-0.4,0.1h-9.2V381
			c0,0.1,0,0.3-0.1,0.4c-0.1,0.1-0.2,0.2-0.4,0.3c-0.2,0.1-0.4,0.1-0.6,0.2c-0.3,0-0.6,0.1-1,0.1c-0.4,0-0.7,0-1-0.1
			s-0.5-0.1-0.6-0.2c-0.2-0.1-0.3-0.2-0.3-0.3c-0.1-0.1-0.1-0.2-0.1-0.4v-10.2h-9.2c-0.2,0-0.3,0-0.4-0.1c-0.1-0.1-0.2-0.2-0.3-0.4
			c-0.1-0.2-0.2-0.4-0.2-0.6c-0.1-0.3-0.1-0.6-0.1-0.9c0-0.3,0-0.6,0.1-0.9c0.1-0.3,0.1-0.5,0.2-0.6c0.1-0.2,0.2-0.3,0.3-0.4
			c0.1-0.1,0.3-0.1,0.4-0.1h9.2v-10.2c0-0.1,0-0.3,0.1-0.4c0.1-0.1,0.2-0.2,0.3-0.3c0.2-0.1,0.4-0.1,0.6-0.2c0.3,0,0.6-0.1,1-0.1
			c0.4,0,0.7,0,1,0.1c0.3,0,0.5,0.1,0.6,0.2c0.2,0.1,0.3,0.2,0.4,0.3c0.1,0.1,0.1,0.3,0.1,0.4v10.2h9.2c0.1,0,0.3,0,0.4,0.1
			c0.1,0.1,0.2,0.2,0.3,0.4s0.2,0.4,0.2,0.6C242.3,368.2,242.3,368.5,242.3,368.8z"/>
		<path d="M263.8,384.1c-0.1,0.2-0.2,0.4-0.3,0.5s-0.3,0.2-0.5,0.3c-0.2,0.1-0.5,0.1-0.9,0.2s-0.8,0-1.4,0c-0.4,0-0.8,0-1.1,0
			c-0.3,0-0.6,0-0.8-0.1c-0.2,0-0.4-0.1-0.6-0.1c-0.2,0-0.3-0.1-0.4-0.2c-0.1-0.1-0.2-0.2-0.3-0.3s-0.1-0.2-0.2-0.4l-11.9-33.7
			c-0.2-0.4-0.2-0.7-0.2-1c0-0.3,0.1-0.4,0.2-0.6c0.2-0.1,0.4-0.2,0.8-0.3c0.4,0,0.9-0.1,1.5-0.1c0.5,0,0.9,0,1.2,0
			c0.3,0,0.5,0.1,0.7,0.2c0.2,0.1,0.3,0.2,0.4,0.3s0.2,0.3,0.2,0.5l10.4,30.5h0l10.1-30.5c0.1-0.2,0.1-0.4,0.2-0.5
			c0.1-0.1,0.2-0.2,0.4-0.3c0.2-0.1,0.4-0.1,0.8-0.2s0.8,0,1.3,0c0.6,0,1,0,1.4,0.1c0.3,0,0.6,0.1,0.7,0.3c0.1,0.1,0.2,0.3,0.1,0.6
			s-0.1,0.6-0.3,1L263.8,384.1z"/>
	</g>
	<g class="st8">
		<path d="M315.7,374.8c0,1.7-0.3,3.2-0.9,4.5s-1.5,2.5-2.6,3.4c-1.1,0.9-2.4,1.6-3.9,2.1c-1.5,0.5-3.1,0.7-4.9,0.7
			c-1.2,0-2.3-0.1-3.4-0.3c-1-0.2-2-0.5-2.8-0.8s-1.5-0.6-2-0.9c-0.6-0.3-0.9-0.6-1.1-0.8c-0.2-0.2-0.4-0.5-0.5-0.9
			c-0.1-0.3-0.2-0.8-0.2-1.4c0-0.4,0-0.8,0.1-1c0-0.3,0.1-0.5,0.2-0.7c0.1-0.2,0.2-0.3,0.3-0.4c0.1-0.1,0.2-0.1,0.4-0.1
			c0.3,0,0.6,0.2,1.1,0.5s1.1,0.7,1.8,1c0.7,0.4,1.6,0.7,2.7,1.1c1.1,0.3,2.3,0.5,3.7,0.5c1,0,2-0.1,2.9-0.4
			c0.9-0.3,1.6-0.7,2.2-1.2c0.6-0.5,1.1-1.1,1.4-1.9s0.5-1.6,0.5-2.5c0-1-0.2-1.9-0.7-2.6s-1.1-1.4-1.8-1.9s-1.6-1.1-2.6-1.5
			c-1-0.5-2-0.9-3-1.4c-1-0.5-2-1-3-1.6c-1-0.6-1.8-1.3-2.6-2s-1.4-1.7-1.9-2.8c-0.5-1.1-0.7-2.3-0.7-3.8c0-1.5,0.3-2.9,0.8-4
			c0.6-1.2,1.3-2.2,2.3-3c1-0.8,2.1-1.4,3.5-1.8c1.4-0.4,2.8-0.6,4.4-0.6c0.8,0,1.6,0.1,2.4,0.2s1.6,0.3,2.3,0.6s1.4,0.5,1.9,0.8
			c0.6,0.3,0.9,0.5,1.1,0.7c0.2,0.2,0.3,0.3,0.4,0.4s0.1,0.2,0.1,0.4c0,0.2,0.1,0.4,0.1,0.6c0,0.2,0,0.5,0,0.9c0,0.3,0,0.6,0,0.9
			s-0.1,0.5-0.1,0.7s-0.1,0.3-0.2,0.4s-0.2,0.1-0.3,0.1c-0.2,0-0.5-0.1-1-0.4c-0.4-0.3-1-0.6-1.6-0.9c-0.6-0.3-1.4-0.6-2.3-0.9
			c-0.9-0.3-1.8-0.4-2.9-0.4c-1,0-1.9,0.1-2.6,0.4c-0.7,0.3-1.4,0.6-1.8,1.1c-0.5,0.4-0.9,1-1.1,1.6c-0.2,0.6-0.4,1.3-0.4,2
			c0,1,0.2,1.9,0.7,2.6s1.1,1.4,1.9,1.9c0.8,0.6,1.7,1.1,2.6,1.5c1,0.5,2,0.9,3,1.4s2,1,3,1.6c1,0.6,1.9,1.2,2.6,2
			c0.8,0.8,1.4,1.7,1.9,2.7C315.4,372.1,315.7,373.4,315.7,374.8z"/>
		<path d="M327.2,350.5c0,1.1-0.2,1.8-0.6,2.2c-0.4,0.4-1.2,0.6-2.3,0.6c-1.1,0-1.8-0.2-2.2-0.6c-0.4-0.4-0.6-1.1-0.6-2.2
			c0-1.1,0.2-1.8,0.6-2.2c0.4-0.4,1.2-0.6,2.3-0.6c1.1,0,1.8,0.2,2.2,0.6C327,348.7,327.2,349.5,327.2,350.5z M326.6,384.3
			c0,0.1,0,0.3-0.1,0.4c-0.1,0.1-0.2,0.2-0.4,0.3c-0.2,0.1-0.4,0.1-0.7,0.2c-0.3,0-0.7,0.1-1.1,0.1c-0.4,0-0.8,0-1.1-0.1
			c-0.3,0-0.5-0.1-0.7-0.2c-0.2-0.1-0.3-0.2-0.4-0.3c-0.1-0.1-0.1-0.2-0.1-0.4V359c0-0.1,0-0.3,0.1-0.4c0.1-0.1,0.2-0.2,0.4-0.3
			c0.2-0.1,0.4-0.1,0.7-0.2s0.7-0.1,1.1-0.1c0.5,0,0.8,0,1.1,0.1s0.5,0.1,0.7,0.2c0.2,0.1,0.3,0.2,0.4,0.3c0.1,0.1,0.1,0.2,0.1,0.4
			V384.3z"/>
		<path d="M356.3,360.2c0,0.7-0.1,1.1-0.3,1.4c-0.2,0.3-0.4,0.4-0.7,0.4h-3.6c0.7,0.7,1.1,1.4,1.4,2.2s0.4,1.7,0.4,2.5
			c0,1.5-0.2,2.7-0.7,3.9c-0.5,1.1-1.1,2.1-2,2.8c-0.9,0.8-1.9,1.4-3.1,1.8s-2.5,0.6-4,0.6c-1,0-2-0.1-2.9-0.4
			c-0.9-0.3-1.6-0.6-2.1-1c-0.3,0.3-0.6,0.7-0.8,1.1s-0.3,0.9-0.3,1.5c0,0.7,0.3,1.2,0.9,1.6c0.6,0.4,1.4,0.7,2.4,0.7l6.6,0.3
			c1.3,0,2.4,0.2,3.4,0.5c1,0.3,2,0.7,2.7,1.3c0.8,0.6,1.4,1.3,1.8,2.1s0.6,1.8,0.6,2.9c0,1.2-0.2,2.3-0.7,3.3c-0.5,1-1.2,2-2.2,2.8
			s-2.3,1.4-3.8,1.9c-1.6,0.5-3.4,0.7-5.5,0.7c-2,0-3.8-0.2-5.2-0.5s-2.6-0.8-3.5-1.4c-0.9-0.6-1.6-1.3-2-2.1
			c-0.4-0.8-0.6-1.7-0.6-2.7c0-0.6,0.1-1.2,0.2-1.8c0.1-0.6,0.4-1.1,0.7-1.7c0.3-0.5,0.7-1,1.1-1.5c0.5-0.5,1-0.9,1.6-1.4
			c-0.9-0.5-1.6-1.1-2-1.8c-0.4-0.7-0.7-1.5-0.7-2.3c0-1.1,0.2-2.2,0.7-3.1s1-1.7,1.7-2.4c-0.6-0.7-1-1.5-1.4-2.3s-0.5-1.9-0.5-3.2
			c0-1.4,0.2-2.7,0.7-3.9c0.5-1.1,1.2-2.1,2-2.9c0.9-0.8,1.9-1.4,3.1-1.8c1.2-0.4,2.5-0.6,3.9-0.6c0.8,0,1.5,0,2.1,0.1
			s1.3,0.2,1.9,0.4h7.6c0.3,0,0.6,0.2,0.7,0.5C356.2,359.1,356.3,359.6,356.3,360.2z M351.4,386.8c0-1.1-0.4-1.9-1.3-2.5
			c-0.9-0.6-2.1-0.9-3.6-0.9l-6.5-0.2c-0.6,0.5-1.1,0.9-1.5,1.3c-0.4,0.4-0.7,0.8-0.9,1.2c-0.2,0.4-0.4,0.8-0.5,1.1
			c-0.1,0.4-0.1,0.8-0.1,1.1c0,1.2,0.6,2.1,1.8,2.8c1.2,0.6,3,0.9,5.2,0.9c1.4,0,2.6-0.1,3.5-0.4s1.7-0.6,2.3-1.1s1-1,1.2-1.5
			S351.4,387.4,351.4,386.8z M349,366.8c0-1.7-0.5-3.1-1.4-4c-0.9-1-2.3-1.4-4-1.4c-0.9,0-1.7,0.1-2.3,0.4s-1.2,0.7-1.7,1.2
			c-0.4,0.5-0.8,1.1-1,1.8c-0.2,0.7-0.3,1.4-0.3,2.1c0,1.7,0.5,3,1.4,3.9c0.9,1,2.3,1.4,4,1.4c0.9,0,1.7-0.1,2.4-0.4
			c0.7-0.3,1.2-0.7,1.7-1.2c0.4-0.5,0.8-1.1,1-1.8C348.9,368.3,349,367.6,349,366.8z"/>
		<path d="M383.9,384.3c0,0.1,0,0.3-0.1,0.4c-0.1,0.1-0.2,0.2-0.4,0.3c-0.2,0.1-0.4,0.1-0.7,0.2c-0.3,0-0.7,0.1-1.1,0.1
			c-0.5,0-0.9,0-1.1-0.1c-0.3,0-0.5-0.1-0.7-0.2c-0.2-0.1-0.3-0.2-0.4-0.3c-0.1-0.1-0.1-0.2-0.1-0.4v-14.8c0-1.4-0.1-2.6-0.3-3.5
			c-0.2-0.9-0.6-1.6-1-2.3c-0.4-0.6-1-1.1-1.7-1.5c-0.7-0.3-1.5-0.5-2.4-0.5c-1.2,0-2.3,0.4-3.5,1.2c-1.2,0.8-2.4,2-3.6,3.6v17.6
			c0,0.1,0,0.3-0.1,0.4c-0.1,0.1-0.2,0.2-0.4,0.3c-0.2,0.1-0.4,0.1-0.7,0.2c-0.3,0-0.7,0.1-1.1,0.1c-0.4,0-0.8,0-1.1-0.1
			c-0.3,0-0.5-0.1-0.7-0.2c-0.2-0.1-0.3-0.2-0.4-0.3c-0.1-0.1-0.1-0.2-0.1-0.4V359c0-0.1,0-0.3,0.1-0.4c0.1-0.1,0.2-0.2,0.3-0.3
			c0.2-0.1,0.4-0.1,0.6-0.2c0.3,0,0.6,0,1,0c0.4,0,0.8,0,1,0c0.3,0,0.5,0.1,0.6,0.2s0.3,0.2,0.3,0.3c0.1,0.1,0.1,0.2,0.1,0.4v3.3
			c1.4-1.6,2.8-2.8,4.2-3.5c1.4-0.7,2.8-1.1,4.3-1.1c1.7,0,3.1,0.3,4.2,0.9s2.1,1.3,2.8,2.3c0.7,1,1.2,2.1,1.5,3.3s0.5,2.8,0.5,4.6
			V384.3z"/>
		<path d="M411.3,384.3c0,0.2-0.1,0.4-0.2,0.5s-0.4,0.2-0.6,0.3s-0.6,0.1-1.1,0.1c-0.5,0-0.9,0-1.2-0.1s-0.5-0.1-0.6-0.3
			c-0.1-0.1-0.2-0.3-0.2-0.5v-2.5c-1.1,1.2-2.3,2.1-3.7,2.7c-1.4,0.7-2.8,1-4.3,1c-1.3,0-2.5-0.2-3.6-0.5c-1.1-0.3-2-0.8-2.7-1.5
			c-0.8-0.7-1.3-1.5-1.8-2.4c-0.4-1-0.6-2-0.6-3.2c0-1.4,0.3-2.7,0.9-3.7c0.6-1,1.4-1.9,2.5-2.6c1.1-0.7,2.4-1.2,4-1.6
			c1.6-0.3,3.3-0.5,5.3-0.5h3.5v-2c0-1-0.1-1.8-0.3-2.6c-0.2-0.7-0.5-1.4-1-1.9c-0.5-0.5-1.1-0.9-1.8-1.1s-1.6-0.4-2.7-0.4
			c-1.1,0-2.2,0.1-3.1,0.4c-0.9,0.3-1.7,0.6-2.4,0.9c-0.7,0.3-1.3,0.6-1.7,0.9s-0.8,0.4-1,0.4c-0.1,0-0.3,0-0.4-0.1
			c-0.1-0.1-0.2-0.2-0.3-0.3s-0.1-0.3-0.2-0.6c0-0.2-0.1-0.5-0.1-0.8c0-0.5,0-0.8,0.1-1.1s0.2-0.5,0.5-0.8c0.3-0.2,0.7-0.5,1.3-0.9
			s1.3-0.6,2.1-0.9c0.8-0.3,1.7-0.5,2.6-0.7c1-0.2,1.9-0.3,2.9-0.3c1.8,0,3.4,0.2,4.6,0.6c1.3,0.4,2.3,1,3.1,1.8
			c0.8,0.8,1.4,1.8,1.7,3c0.4,1.2,0.5,2.5,0.5,4.1V384.3z M406.7,372.8h-4c-1.3,0-2.4,0.1-3.3,0.3c-0.9,0.2-1.7,0.5-2.3,1
			c-0.6,0.4-1.1,0.9-1.4,1.5c-0.3,0.6-0.4,1.3-0.4,2c0,1.3,0.4,2.3,1.2,3.1s2,1.2,3.5,1.2c1.2,0,2.3-0.3,3.4-0.9
			c1-0.6,2.1-1.6,3.3-2.8V372.8z"/>
		<path d="M424.4,384.3c0,0.1,0,0.3-0.1,0.4c-0.1,0.1-0.2,0.2-0.4,0.3c-0.2,0.1-0.4,0.1-0.7,0.2c-0.3,0-0.7,0.1-1.1,0.1
			c-0.4,0-0.8,0-1.1-0.1c-0.3,0-0.5-0.1-0.7-0.2c-0.2-0.1-0.3-0.2-0.4-0.3c-0.1-0.1-0.1-0.2-0.1-0.4v-37.4c0-0.1,0-0.3,0.1-0.4
			c0.1-0.1,0.2-0.2,0.4-0.3c0.2-0.1,0.4-0.1,0.7-0.2c0.3,0,0.7-0.1,1.1-0.1c0.5,0,0.8,0,1.1,0.1c0.3,0,0.5,0.1,0.7,0.2
			c0.2,0.1,0.3,0.2,0.4,0.3c0.1,0.1,0.1,0.2,0.1,0.4V384.3z"/>
	</g>
	<g class="st8">
		<path class="st0" d="M486.5-70.8c0.2,0,0.3,0,0.5,0.1c0.1,0.1,0.3,0.2,0.4,0.5c0.1,0.2,0.2,0.5,0.2,0.9c0.1,0.4,0.1,0.9,0.1,1.5
			c0,0.8,0,1.4-0.1,1.9s-0.2,0.9-0.4,1.1s-0.4,0.5-0.6,0.6l-22.1,16.2h22.1c0.2,0,0.3,0,0.5,0.1c0.1,0.1,0.3,0.2,0.3,0.5
			s0.1,0.5,0.2,0.9s0.1,0.8,0.1,1.4c0,0.5,0,1-0.1,1.4c-0.1,0.4-0.1,0.7-0.2,0.9c-0.1,0.2-0.2,0.4-0.3,0.5c-0.1,0.1-0.3,0.1-0.5,0.1
			h-42.3c-0.2,0-0.3,0-0.5-0.1c-0.1-0.1-0.2-0.2-0.3-0.5c-0.1-0.2-0.1-0.5-0.2-0.9c-0.1-0.4-0.1-0.9-0.1-1.4c0-0.6,0-1,0.1-1.4
			c0.1-0.4,0.1-0.7,0.2-0.9c0.1-0.2,0.2-0.4,0.3-0.5c0.1-0.1,0.3-0.1,0.5-0.1h19.6l-19.6-15.6c-0.2-0.1-0.4-0.3-0.5-0.5
			c-0.1-0.2-0.2-0.4-0.3-0.7c-0.1-0.3-0.1-0.6-0.2-1c0-0.4-0.1-0.9-0.1-1.4s0-1.1,0.1-1.4c0.1-0.4,0.1-0.7,0.2-0.9
			c0.1-0.2,0.2-0.4,0.3-0.4c0.1-0.1,0.3-0.1,0.4-0.1c0.3,0,0.6,0.1,0.9,0.2c0.3,0.1,0.7,0.4,1.2,0.8l17.5,14.6L484.8-70
			c0.6-0.4,1-0.6,1.2-0.7C486.2-70.8,486.4-70.8,486.5-70.8z"/>
		<path class="st0" d="M470.3-92.4h16.3c0.2,0,0.3,0,0.5,0.1c0.1,0.1,0.2,0.2,0.3,0.5c0.1,0.2,0.1,0.5,0.2,0.9s0.1,0.8,0.1,1.4
			c0,0.6,0,1-0.1,1.4c-0.1,0.4-0.1,0.7-0.2,0.9s-0.2,0.4-0.3,0.5c-0.1,0.1-0.3,0.1-0.5,0.1h-16.3L445.4-74c-0.5,0.2-0.9,0.4-1.2,0.5
			c-0.3,0.1-0.5,0-0.7-0.2c-0.2-0.2-0.3-0.5-0.3-0.9c0-0.4-0.1-1-0.1-1.8c0-0.7,0-1.2,0.1-1.7c0-0.4,0.1-0.8,0.2-1
			c0.1-0.2,0.2-0.4,0.3-0.6c0.1-0.1,0.3-0.2,0.6-0.4l12.7-6.1c1.2-0.6,2.5-1.1,3.8-1.7c1.3-0.6,2.6-1.1,4-1.7v-0.1
			c-1.3-0.5-2.6-1.1-3.9-1.6s-2.6-1.1-3.8-1.7L444.3-99c-0.2-0.1-0.4-0.2-0.6-0.3c-0.2-0.1-0.3-0.3-0.4-0.5
			c-0.1-0.2-0.1-0.5-0.2-0.9c0-0.4-0.1-0.9-0.1-1.5c0-0.8,0-1.5,0.1-1.9c0.1-0.5,0.2-0.8,0.3-1c0.2-0.2,0.4-0.2,0.7-0.2
			c0.3,0.1,0.7,0.2,1.2,0.5L470.3-92.4z"/>
		<path class="st0" d="M470.3-121.5c0.9,0,1.5,0.1,1.8,0.3c0.3,0.2,0.5,0.5,0.5,0.9v14.3c0,0.4-0.2,0.7-0.5,0.9
			c-0.4,0.2-1,0.3-1.8,0.3s-1.5-0.1-1.8-0.3c-0.3-0.2-0.5-0.5-0.5-0.9v-14.3c0-0.2,0-0.3,0.1-0.5c0.1-0.1,0.2-0.3,0.4-0.4
			s0.4-0.2,0.7-0.2C469.5-121.5,469.8-121.5,470.3-121.5z"/>
		<path class="st0" d="M465.3-156.8c3.4,0,6.5,0.3,9.3,0.8c2.8,0.5,5.2,1.4,7.2,2.7s3.6,2.9,4.7,4.9c1.1,2,1.7,4.5,1.7,7.4
			c0,2.8-0.5,5.1-1.5,7c-1,1.9-2.4,3.4-4.4,4.6c-1.9,1.2-4.3,2-7.1,2.5c-2.8,0.5-6,0.7-9.7,0.7c-3.4,0-6.5-0.3-9.3-0.8
			c-2.8-0.5-5.2-1.4-7.2-2.7s-3.6-2.8-4.7-4.8s-1.7-4.5-1.7-7.4c0-2.8,0.5-5.1,1.5-7c1-1.9,2.4-3.4,4.4-4.6s4.3-2,7.1-2.5
			C458.5-156.6,461.7-156.8,465.3-156.8z M465.7-150.8c-2.2,0-4.2,0.1-5.9,0.2c-1.8,0.2-3.3,0.4-4.6,0.7c-1.3,0.3-2.5,0.7-3.5,1.2
			c-1,0.5-1.8,1.1-2.4,1.8c-0.6,0.7-1.1,1.5-1.4,2.3s-0.4,1.9-0.4,2.9c0,1.9,0.5,3.5,1.4,4.7s2.2,2.2,3.8,2.8s3.5,1.2,5.6,1.4
			s4.4,0.4,6.9,0.4c3.3,0,6.1-0.2,8.4-0.5c2.3-0.3,4.2-0.9,5.6-1.6s2.5-1.7,3.2-2.8s1-2.5,1-4.2c0-1.3-0.2-2.4-0.6-3.4
			c-0.4-1-1-1.8-1.8-2.5s-1.7-1.3-2.7-1.7c-1.1-0.5-2.2-0.8-3.5-1.1c-1.3-0.3-2.7-0.5-4.2-0.6S467.4-150.8,465.7-150.8z"/>
		<path class="st0" d="M465.3-192.2c3.4,0,6.5,0.3,9.3,0.8c2.8,0.5,5.2,1.4,7.2,2.7s3.6,2.9,4.7,4.9c1.1,2,1.7,4.5,1.7,7.4
			c0,2.8-0.5,5.1-1.5,7c-1,1.9-2.4,3.4-4.4,4.6c-1.9,1.2-4.3,2-7.1,2.5c-2.8,0.5-6,0.7-9.7,0.7c-3.4,0-6.5-0.3-9.3-0.8
			c-2.8-0.5-5.2-1.4-7.2-2.7s-3.6-2.8-4.7-4.8s-1.7-4.5-1.7-7.4c0-2.8,0.5-5.1,1.5-7c1-1.9,2.4-3.4,4.4-4.6s4.3-2,7.1-2.5
			C458.5-192,461.7-192.2,465.3-192.2z M465.7-186.2c-2.2,0-4.2,0.1-5.9,0.2c-1.8,0.2-3.3,0.4-4.6,0.7c-1.3,0.3-2.5,0.7-3.5,1.2
			c-1,0.5-1.8,1.1-2.4,1.8c-0.6,0.7-1.1,1.5-1.4,2.3s-0.4,1.9-0.4,2.9c0,1.9,0.5,3.5,1.4,4.7s2.2,2.2,3.8,2.8s3.5,1.2,5.6,1.4
			s4.4,0.4,6.9,0.4c3.3,0,6.1-0.2,8.4-0.5c2.3-0.3,4.2-0.9,5.6-1.6s2.5-1.7,3.2-2.8s1-2.5,1-4.2c0-1.3-0.2-2.4-0.6-3.4
			c-0.4-1-1-1.8-1.8-2.5s-1.7-1.3-2.7-1.7c-1.1-0.5-2.2-0.8-3.5-1.1c-1.3-0.3-2.7-0.5-4.2-0.6S467.4-186.2,465.7-186.2z"/>
		<path class="st0" d="M474.9-225.8c2,0,3.8,0.4,5.5,1.1c1.6,0.7,3,1.7,4.2,3c1.2,1.3,2.1,2.9,2.7,4.9c0.6,1.9,0.9,4.1,0.9,6.5
			c0,1.5-0.1,2.9-0.4,4.1c-0.2,1.3-0.5,2.4-0.9,3.4c-0.3,1-0.7,1.8-1,2.5c-0.4,0.7-0.6,1.1-0.8,1.2c-0.2,0.2-0.3,0.3-0.5,0.4
			s-0.4,0.2-0.6,0.2c-0.2,0.1-0.5,0.1-0.8,0.2c-0.3,0-0.7,0.1-1.2,0.1c-0.8,0-1.4-0.1-1.7-0.2s-0.5-0.4-0.5-0.7
			c0-0.2,0.2-0.6,0.5-1.2s0.8-1.4,1.2-2.4c0.4-1,0.8-2.1,1.2-3.4c0.4-1.3,0.5-2.7,0.5-4.3c0-1.5-0.2-2.9-0.6-4.1s-0.9-2.1-1.6-2.9
			c-0.7-0.8-1.5-1.4-2.5-1.8s-2-0.6-3.2-0.6c-1.2,0-2.4,0.3-3.4,0.8c-1,0.5-1.9,1.2-2.6,2.2c-0.7,1-1.3,2.2-1.7,3.6
			c-0.4,1.4-0.6,3-0.6,4.8v4.3c0,0.2,0,0.4-0.1,0.5c-0.1,0.2-0.2,0.3-0.4,0.5s-0.4,0.2-0.7,0.3c-0.3,0.1-0.7,0.1-1.2,0.1
			c-0.4,0-0.8,0-1.1-0.1c-0.3-0.1-0.5-0.2-0.7-0.3c-0.2-0.1-0.3-0.3-0.4-0.4c-0.1-0.2-0.1-0.3-0.1-0.5v-3.9c0-1.5-0.2-2.8-0.6-4
			c-0.4-1.2-0.9-2.2-1.7-3c-0.7-0.8-1.6-1.5-2.6-1.9c-1-0.4-2.1-0.7-3.4-0.7c-0.9,0-1.8,0.1-2.6,0.4c-0.8,0.3-1.6,0.7-2.2,1.3
			c-0.6,0.6-1.1,1.3-1.4,2.3c-0.4,0.9-0.5,2-0.5,3.2c0,1.3,0.2,2.5,0.6,3.6c0.4,1.1,0.8,2.1,1.3,2.9c0.5,0.9,0.9,1.6,1.3,2.1
			c0.4,0.6,0.6,1,0.6,1.2c0,0.2,0,0.3-0.1,0.4s-0.2,0.2-0.3,0.3c-0.2,0.1-0.4,0.1-0.7,0.2s-0.7,0.1-1.2,0.1c-0.3,0-0.6,0-0.9,0
			c-0.3,0-0.5-0.1-0.7-0.1c-0.2-0.1-0.4-0.1-0.5-0.2s-0.3-0.2-0.6-0.5c-0.2-0.2-0.5-0.7-0.9-1.3c-0.4-0.7-0.8-1.5-1.2-2.4
			c-0.4-1-0.7-2.1-1-3.3c-0.3-1.3-0.4-2.6-0.4-4.1c0-2,0.3-3.8,0.8-5.4c0.5-1.5,1.3-2.8,2.2-3.9c1-1,2.1-1.8,3.4-2.3
			c1.3-0.5,2.8-0.8,4.4-0.8c1.4,0,2.7,0.2,3.9,0.5c1.2,0.4,2.3,0.9,3.2,1.6c0.9,0.7,1.7,1.6,2.4,2.6c0.6,1,1.1,2.2,1.3,3.5h0.1
			c0.2-1.5,0.5-2.9,1.1-4.2c0.6-1.3,1.4-2.3,2.3-3.3s2-1.6,3.2-2.1S473.5-225.8,474.9-225.8z"/>
	</g>
	<g class="st8">
		<path class="st0" d="M428.5,185.2c0,2.1-0.4,3.9-1.1,5.5c-0.8,1.6-1.8,3-3.2,4.1c-1.4,1.1-2.9,2-4.8,2.5c-1.8,0.6-3.8,0.9-5.9,0.9
			c-1.5,0-2.8-0.1-4.1-0.4c-1.3-0.2-2.4-0.6-3.4-0.9c-1-0.4-1.8-0.7-2.5-1.1c-0.7-0.4-1.1-0.7-1.4-1c-0.3-0.3-0.5-0.6-0.6-1
			c-0.1-0.4-0.2-1-0.2-1.7c0-0.5,0-0.9,0.1-1.2c0-0.3,0.1-0.6,0.2-0.8c0.1-0.2,0.2-0.3,0.3-0.4c0.1-0.1,0.3-0.1,0.5-0.1
			c0.3,0,0.8,0.2,1.3,0.6c0.6,0.4,1.3,0.8,2.2,1.3c0.9,0.5,2,0.9,3.3,1.3c1.3,0.4,2.8,0.6,4.4,0.6c1.3,0,2.4-0.2,3.5-0.5
			s2-0.8,2.7-1.4c0.8-0.6,1.3-1.4,1.8-2.3c0.4-0.9,0.6-1.9,0.6-3.1c0-1.2-0.3-2.3-0.9-3.2c-0.6-0.9-1.3-1.7-2.2-2.3
			c-0.9-0.7-2-1.3-3.2-1.8c-1.2-0.6-2.4-1.1-3.7-1.7c-1.3-0.6-2.5-1.2-3.6-1.9c-1.2-0.7-2.2-1.5-3.2-2.5c-0.9-1-1.7-2.1-2.3-3.4
			c-0.6-1.3-0.9-2.8-0.9-4.6c0-1.8,0.3-3.5,1-4.9c0.7-1.4,1.6-2.7,2.8-3.6s2.6-1.7,4.3-2.2c1.6-0.5,3.4-0.8,5.3-0.8
			c1,0,2,0.1,2.9,0.3c1,0.2,1.9,0.4,2.8,0.7c0.9,0.3,1.7,0.6,2.3,1s1.1,0.6,1.3,0.9s0.4,0.4,0.4,0.5c0.1,0.1,0.1,0.3,0.2,0.5
			c0,0.2,0.1,0.4,0.1,0.7c0,0.3,0,0.6,0,1.1c0,0.4,0,0.8-0.1,1.1s-0.1,0.6-0.2,0.8c-0.1,0.2-0.2,0.4-0.3,0.5s-0.3,0.2-0.4,0.2
			c-0.2,0-0.6-0.2-1.2-0.5c-0.5-0.3-1.2-0.7-2-1.1c-0.8-0.4-1.7-0.8-2.7-1.1c-1.1-0.3-2.2-0.5-3.6-0.5c-1.2,0-2.3,0.2-3.2,0.5
			c-0.9,0.3-1.7,0.8-2.2,1.3c-0.6,0.5-1,1.2-1.3,1.9c-0.3,0.8-0.4,1.5-0.4,2.4c0,1.2,0.3,2.3,0.9,3.2s1.3,1.7,2.3,2.4s2,1.3,3.2,1.9
			c1.2,0.6,2.4,1.1,3.7,1.7c1.2,0.6,2.5,1.2,3.7,1.9s2.3,1.5,3.2,2.5s1.7,2.1,2.3,3.3C428.2,181.9,428.5,183.5,428.5,185.2z"/>
	</g>
	<g class="st8">
		<path class="st0" d="M88.8,175.7c0,0.8-0.1,1.4-0.3,1.7c-0.2,0.4-0.6,0.5-1,0.5h-40c-0.5,0-0.8-0.2-1.1-0.5
			c-0.2-0.3-0.4-0.9-0.4-1.7c0-0.8,0.1-1.4,0.4-1.7c0.2-0.4,0.6-0.6,1.1-0.6h40c0.4,0,0.8,0.2,1,0.5C88.7,174.4,88.8,175,88.8,175.7
			z"/>
	</g>
</g>
</svg>
