<?xml version="1.0" encoding="UTF-8"?>
<svg xmlns="http://www.w3.org/2000/svg" version="1.1" xmlns:cc="http://creativecommons.org/ns#" xmlns:dc="http://purl.org/dc/elements/1.1/" xmlns:inkscape="http://www.inkscape.org/namespaces/inkscape" xmlns:rdf="http://www.w3.org/1999/02/22-rdf-syntax-ns#" xmlns:sodipodi="http://sodipodi.sourceforge.net/DTD/sodipodi-0.dtd" xmlns:svg="http://www.w3.org/2000/svg" viewBox="0 0 396 1081">
  <defs>
    <style>
      .cls-1, .cls-2 {
        fill: #fff;
      }

      .cls-3 {
        fill: #000151;
      }

      .cls-4, .cls-5, .cls-2 {
        isolation: isolate;
      }

      .cls-6 {
        fill: #1a1a1a;
      }

      .cls-7 {
        fill: #ccc;
      }

      .cls-5 {
        fill: gray;
      }

      .cls-5, .cls-2 {
        opacity: 1;
      }
    </style>
  </defs>
  <!-- Generator: Adobe Illustrator 28.6.0, SVG Export Plug-In . SVG Version: 1.2.0 Build 709)  -->
  <g>
    <g id="svg8">
      <rect id="rect815" x=".2" y="427.2" width="396.3" height="532.6"/>
      <g>
        <rect id="rect943" class="cls-7" x="121.4" y="554.3" width="61.6" height="61.6"/>
        <rect id="rect943-2" data-name="rect943" class="cls-7" x="213.7" y="554.3" width="61.6" height="61.6"/>
      </g>
      <g>
        <rect id="rect821" class="cls-1" x="100.5" y="875.5" width="206.2" height="71"/>
        <path id="rect825" class="cls-6" d="M114,879.8h41.3c7.2,0,13.1,5.8,13.1,13.1v36.3c0,7.2-5.8,13.1-13.1,13.1h-41.3c-7.2,0-13.1-5.8-13.1-13.1v-36.3c0-7.3,5.9-13.1,13.1-13.1Z"/>
        <path id="rect872" class="cls-6" d="M251.7,879.8h41.3c7.2,0,13.1,5.8,13.1,13.1v36.3c0,7.2-5.8,13.1-13.1,13.1h-41.3c-7.2,0-13.1-5.8-13.1-13.1v-36.3c.1-7.3,5.9-13.1,13.1-13.1Z"/>
        <path id="rect874" class="cls-6" d="M181.2,879.8h44.7c6.3,0,11.4,5.1,11.4,11.4v39.6c0,6.3-5.1,11.4-11.4,11.4h-44.7c-6.3,0-11.4-5.1-11.4-11.4v-39.6c0-6.3,5.1-11.4,11.4-11.4Z"/>
        <g class="cls-4">
          <path class="cls-1" d="M90.8,918.8c0,1.7-.3,3.1-.9,4.4s-1.5,2.4-2.5,3.3c-1.1.9-2.4,1.6-3.8,2-1.5.5-3,.7-4.7.7s-2.3-.1-3.3-.3-1.9-.4-2.7-.7c-.8-.3-1.5-.6-2-.9-.5-.3-.9-.6-1.1-.8s-.4-.5-.5-.8-.2-.8-.2-1.4,0-.7.1-1c0-.3.1-.5.2-.6.1-.2.2-.3.3-.3.1-.1.2-.1.4-.1.3,0,.6.2,1.1.5s1.1.6,1.8,1c.7.4,1.6.7,2.6,1s2.2.5,3.6.5,2-.1,2.8-.4,1.6-.7,2.2-1.2,1.1-1.1,1.4-1.8.5-1.6.5-2.5-.2-1.9-.7-2.6-1.1-1.3-1.8-1.9c-.7-.5-1.6-1-2.5-1.5-1-.4-1.9-.9-2.9-1.4s-2-1-2.9-1.5c-.9-.6-1.8-1.2-2.5-2s-1.3-1.7-1.8-2.7-.7-2.3-.7-3.7.3-2.8.8-3.9c.5-1.2,1.3-2.1,2.2-2.9,1-.8,2.1-1.4,3.4-1.8s2.7-.6,4.3-.6,1.6,0,2.4.2c.8,0,1.5.3,2.2.5s1.3.5,1.9.8c.5.3.9.5,1.1.7s.3.3.3.4.1.2.1.4.1.3.1.6v1.7c0,.3-.1.5-.1.6-.1.2-.1.3-.2.4s-.2,0-.3,0c-.2,0-.5,0-.9-.4-.4-.3-1-.5-1.6-.9-.6-.3-1.4-.6-2.2-.9-.8-.3-1.8-.4-2.8-.4s-1.8,0-2.6.4c-.7.3-1.3.6-1.8,1.1-.5.4-.8,1-1.1,1.6-.2.6-.4,1.2-.4,1.9,0,1,.2,1.8.7,2.5s1.1,1.3,1.8,1.9c.8.5,1.6,1,2.6,1.5s1.9.9,2.9,1.4,2,1,2.9,1.5,1.8,1.2,2.6,2c.8.8,1.4,1.6,1.8,2.7s.4,2.2.4,3.6Z"/>
        </g>
        <g class="cls-4">
          <path class="cls-1" d="M356.3,911c0,.7-.2,1.2-.7,1.5-.4.3-1.1.4-1.9.4h-30.4c-.9,0-1.5-.1-2-.4s-.7-.8-.7-1.5.2-1.2.7-1.4c.4-.3,1.1-.4,2-.4h30.5c.4,0,.7,0,1.1.1s.6.2.8.3c.2.2.4.4.5.6,0,.2,0,.4,0,.8Z"/>
        </g>
      </g>
      <g id="_x3C_defs">
        <inkscape:perspective id="perspective876" inkscape:persp3d-origin="105 : 98.999987 : 1" inkscape:vp_x="0 : 148.50001 : 1" inkscape:vp_y="0 : 999.99985 : 0" inkscape:vp_z="210.00001 : 148.50001 : 1" sodipodi:type="inkscape:persp3d"/>
      </g>
      <sodipodi:namedview id="base" width="500mm" bordercolor="#666666" borderopacity="1.0" inkscape:current-layer="layer1" inkscape:cx="473.95534" inkscape:cy="4424.3394" inkscape:document-units="mm" inkscape:lockguides="true" inkscape:pageopacity="0" inkscape:pageshadow="2" inkscape:window-height="987" inkscape:window-maximized="1" inkscape:window-width="1680" inkscape:window-x="1912" inkscape:window-y="-8" inkscape:zoom="0.3535534" pagecolor="#323232" showgrid="false" showguides="true">
        <inkscape:grid id="grid3786" type="xygrid"/>
      </sodipodi:namedview>
      <rect id="rect947" class="cls-5" x="133" y="908.4" width="7.5" height="130.1"/>
      <rect id="rect949" class="cls-5" x="202.3" y="908.4" width="7.5" height="130.1"/>
      <rect id="rect951" class="cls-5" x="270.8" y="908.4" width="7.5" height="130.1"/>
      <path id="path31-1" class="cls-1" d="M112.8,480.3c2.5,0,2.7-.1,3.2-.4.3-.2.6-.5.8-.8.3-.4.3-.8.3-5.8v-5.3h10.4v6.6c0,7.3,0,8-.8,9.9-1,2.5-2.5,3.7-5.5,4.4-.8.2-1.7.2-4.8.2s-4.4-.1-5.1-.1h-1.3v-8.7h2.8ZM162.6,495.1c44.7,0,55.7.1,53.8.3h-.3.3q.2.2-.2.3c-.3,0-.2.1.4.1h.9c0,.1-.9.1-.9.1-.5,0-.8.1-.7.1.2.1.2.2.2,1.2s0,1.2.4,1.2.2.1-.2.1-.6.1-.6.2-17.7.1-52.8.1h-52.8v-3.8h52.5ZM122.4,454.4h5.3v8.6h-10.6v-8.6h5.3ZM133,470.2c.4-2.4,1-4.6,2-6.5.4-.7.7-1.3.7-1.3.1,0,.3-.4.6-.8.5-.9,1.8-2.4,2.1-2.6.1-.1.2-.2.2-.2,0-.2,1.3-1.4,2.4-2.1,1.1-.8,2-1.2,3.9-1.9,2.3-.8,3.6-1,6.3-1,2,.1,2.5.1,3.7.5.8.2,1.7.6,2.1.7.4.2.8.3.8.3.1,0,.7.3,1.3.7,2.5,1.5,6,5.4,7.3,8.3,2.1,4.6,2.3,9.1.8,13.4-.7,1.8-1.1,2.8-1.9,4.1-.9,1.5-1,1.5-3.1,3.7-2.5,2.4-4.3,3.5-7.5,4.4-1.7.5-4.9.6-6.7.3-2.3-.4-5.3-1.6-7.2-3-1-.7-2.3-1.9-2.3-2,0,0-.3-.4-.7-.8-1.9-1.9-3.9-5.7-4.6-8.8-.1-1.4-.3-4.5-.2-5.4h0ZM143.1,474.7c.5,2,1.5,3.7,3.1,5.2s4.1,2.1,6.3,1.4c2.4-.7,4.8-3.5,5.5-6.5.4-1.7.4-4.2-.1-5.9-.7-2.4-1.9-4.2-3.7-5.5-.8-.6-1.2-.7-2-.9-1.8-.3-3.6-.2-4.9.5-1.1.6-2.6,2.2-3.4,3.8-1.1,2.4-1.5,5.3-.8,7.9h0ZM172.8,454.5h10.4v4.7c0,4.5,0,4.8.3,5.5.7,2,3.2,3.1,5.3,2.4,1.1-.4,1.8-1,2.4-2l.5-.9v-9.8h10.6v5.5c-.2,5.1-.2,5.6-.5,6.7-.6,2.1-1.5,4-2.8,5.4-.3.4-.6.7-.6.8,0,.2-1.3,1.4-2.5,2.3-1,.7-2.4,1.5-3.1,1.6-.2,0-1,.3-1.6.5-1.1.3-1.4.4-3.8.4s-2.7,0-4-.4c-2.1-.6-2.8-.9-4.2-1.8-1.6-1-2.9-2.4-4-4-1.6-2.3-2.2-4-2.6-6.7,0-1.8,0-10.1.2-10.2h0ZM187.5,480.5h8.6v8.8h-17.2v-8.8h8.6ZM202.3,447.6c.1,0,.1-.2.1-.5q0-.5.7-.6c.4,0,15-.1,32.5-.1h31.8v3.8h-32.4c-17.8,0-32.5,0-32.6-.1-.2-.1-.2-.3-.2-1.3-.1-.7,0-1.2,0-1.2h0ZM216.8,468.9h11v8.8h-22v-8.8h11ZM236.5,454.4h5.3v8.6h-10.6v-8.6h5.3ZM236.5,467.5h5.3v22.2h-10.6v-22.2h5.3ZM257.5,454.4h11.1v8.6h-22.2v-8.6h11.1ZM248.3,468.1c.1,0,2.4-.1,5.2-.1h5.1v5.1c.1,7.1-.2,6.8,5.1,6.8h3.4v9l-1.3.2c-1.9.2-7.9.2-9.6-.1-2.8-.4-4.6-1.3-5.8-2.8-1.3-1.5-1.9-3.1-2.1-5.5,0-1.4-.2-12.4,0-12.6h0ZM274.8,450.2c.3-.9.8-1.8,1.4-2.3,2.4-2.1,5.3-2.3,7.6-.6,1.1.8,1.4,1.1,1.9,2.1s.4,1,.4,2.3,0,1.6-.4,2.4c-.8,1.7-2.8,3.1-4.8,3.2-1.8.1-3.3-.4-4.7-1.8-1.4-1.3-1.9-3.5-1.4-5.3h0ZM275.8,453.8c.5,1.1,2,2.3,3.5,2.6,1.5.4,2.7.1,4.5-1.2.4-.3.7-.7,1.1-1.4.4-.9.5-1.1.5-2.2s0-1.3-.5-2.2c-.4-.8-.7-1.1-1.4-1.6-.5-.3-1.2-.7-1.6-.8-2.4-.8-5.3.5-6.3,2.8-.3,1.1-.2,3,.2,4h0ZM279.7,448.4c1.1,0,2.1.1,2.3.1.9.3,1.3,2,.6,2.7-.2.2-.5.4-.8.5l-.5.2.5.5c.3.3.7.9.9,1.3s.5.8.6.9c.3.2.1.3-.5.3h-.6l-.9-1.3c-.9-1.4-1.1-1.6-2.1-1.6h-.6v3h-.8v-6.6h1.9ZM280,451.2c1.1,0,1.3,0,1.6-.3.8-.6.3-1.6-.8-1.7-.5-.1-1.8,0-2.1.1v2h1.3Z" inkscape:connector-curvature="0"/>
      <g class="cls-4">
        <path d="M274.9,1044.3v.8c0,.2,0,.4,0,.5,0,0,0,.2-.2.3,0,0-.2,0-.3,0-.2,0-.5,0-.9-.4s-1-.6-1.7-.9-1.5-.7-2.5-.9c-1-.3-2.1-.4-3.5-.4s-3,.3-4.3.9-2.3,1.4-3.2,2.4c-.9,1-1.6,2.3-2,3.7-.5,1.4-.7,3-.7,4.6s.3,3.5.8,4.9,1.2,2.6,2.1,3.6,2,1.7,3.3,2.2,2.6.8,4.2.8,1.8-.1,2.7-.3c.9-.2,1.8-.5,2.6-1v-8.4h-6.9c-.3,0-.4,0-.6-.4,0-.3-.2-.6-.2-1.2v-.7c0-.2,0-.4,0-.5,0,0,0-.2.2-.3,0,0,.2,0,.3,0h9.2c.2,0,.3,0,.5,0s.3.2.4.3.2.3.3.5c0,.2,0,.4,0,.7v11c0,.4,0,.7-.2,1s-.4.5-.9.8-1,.5-1.7.7-1.4.5-2.1.6c-.7.2-1.5.3-2.2.4-.7.1-1.5.1-2.2.1-2.2,0-4.2-.3-6-1s-3.3-1.7-4.5-3-2.1-2.8-2.8-4.6-1-3.8-1-6,.3-4.4,1-6.3,1.7-3.5,2.9-4.8c1.3-1.3,2.8-2.3,4.5-3.1s3.7-1.1,5.9-1.1,2.1,0,3.1.3c1,.2,1.8.4,2.6.7.8.3,1.4.5,1.9.9.5.3.9.6,1.1.8s.3.4.4.7c.5.1.5.5.5,1Z"/>
        <path d="M304,1067.7c0,.3,0,.6-.2.8s-.2.4-.4.5c-.2.1-.3.2-.5.3s-.4.1-.6.1h-1.3c-.4,0-.8,0-1.1-.1-.3-.1-.6-.2-.9-.4s-.5-.5-.8-.9-.6-.9-.9-1.4l-8.8-16.5c-.5-.9-.9-1.7-1.4-2.7-.5-.9-.9-1.8-1.3-2.7h0c0,1.1,0,2.2,0,3.3v20.8c0,.1,0,.2,0,.3s-.2.2-.3.2c0,.1-.3.1-.6.1s-.6.1-.9.1-.7,0-.9-.1-.4-.1-.6-.1c0-.1-.2-.1-.3-.2,0-.1,0-.2,0-.3v-26.8c0-.6.2-1,.5-1.3s.7-.4,1.1-.4h1.9c.4,0,.8,0,1.1,0s.6.2.8.4.5.4.7.7c.2.3.5.7.7,1.2l6.8,12.7c.4.8.8,1.5,1.2,2.3.4.7.8,1.5,1.1,2.2.4.7.7,1.4,1.1,2.1.4.7.7,1.4,1,2.1h0c0-1.2,0-2.4,0-3.7v-19.4c0,0,0-.2,0-.3,0,0,.2-.2.3-.2,0,0,.3,0,.6,0h1.9c.3,0,.4,0,.6,0,0,0,.2,0,.3.2,0,0,0,.2,0,.3v26.7h.1Z"/>
        <path d="M334,1054.4c0,2.5-.3,4.7-1,6.6-.6,1.9-1.6,3.4-2.8,4.7s-2.7,2.2-4.5,2.8-3.9.9-6.4.9h-6.1c-.3,0-.7-.1-1-.3s-.5-.6-.5-1.2v-25.9c0-.6.2-1,.5-1.2s.6-.3,1-.3h6.6c2.5,0,4.6.3,6.4,1,1.7.7,3.2,1.6,4.4,2.8s2.1,2.7,2.7,4.4c.4,1.5.7,3.5.7,5.7ZM330,1054.5c0-1.6-.2-3-.6-4.4s-1-2.5-1.8-3.5-1.9-1.8-3.1-2.3c-1.3-.6-2.9-.8-4.9-.8h-3.9v22.6h4c1.9,0,3.4-.2,4.7-.7s2.3-1.2,3.2-2.1,1.5-2.2,1.9-3.6.5-3.2.5-5.2Z"/>
      </g>
      <g class="cls-4">
        <path d="M77.8,1058.2c0,1.4-.2,2.6-.8,3.6-.5,1.1-1.2,2-2.1,2.7-.9.7-1.9,1.3-3.1,1.7-1.2.4-2.5.6-3.9.6s-1.9-.1-2.7-.2c-.8-.2-1.6-.4-2.2-.6-.7-.2-1.2-.5-1.6-.7-.4-.3-.7-.5-.9-.7s-.3-.4-.4-.7c-.1-.3-.1-.6-.1-1.1v-.8c0-.2.1-.4.1-.5.1-.1.1-.2.2-.3.1-.1.2-.1.3-.1.2,0,.5.1.9.4.4.3.9.5,1.5.8s1.3.6,2.2.8c.8.3,1.8.4,2.9.4s1.6-.1,2.3-.3,1.3-.5,1.8-1c.5-.4.9-.9,1.2-1.5s.4-1.3.4-2-.2-1.5-.6-2.1c-.4-.6-.9-1.1-1.5-1.5s-1.3-.8-2.1-1.2c-.8-.4-1.6-.7-2.4-1.1-.8-.4-1.6-.8-2.4-1.3-.8-.5-1.5-1-2.1-1.6s-1.1-1.4-1.5-2.2-.6-1.9-.6-3,.2-2.3.7-3.2c.4-.9,1.1-1.7,1.8-2.4.8-.6,1.7-1.1,2.8-1.5,1.1-.3,2.3-.5,3.5-.5s1.3,0,1.9.2c.7,0,1.3.3,1.8.4.6.2,1.1.4,1.5.6s.7.4.9.6c.1,0,.2.3.3.3s.1.2.1.3.1.3.1.5v1.4c0,.2-.1.4-.1.5s-.1.2-.2.3c-.1,0-.2,0-.3,0-.2,0-.4,0-.8-.3s-.8-.4-1.3-.7-1.1-.5-1.8-.7-1.5-.3-2.3-.3-1.5,0-2.1.3c-.6.2-1.1.5-1.5.9s-.7.8-.9,1.3-.3,1-.3,1.6.2,1.5.6,2.1c.4.6.9,1.1,1.5,1.5s1.3.9,2.1,1.2c.8.4,1.6.8,2.4,1.1.8.4,1.6.8,2.4,1.3.8.5,1.5,1,2.1,1.6s1.1,1.4,1.5,2.2c.6.6.8,1.6.8,2.8Z"/>
        <path d="M87,1038.8c0,.9-.2,1.5-.5,1.8s-.9.5-1.8.5-1.5-.2-1.8-.5-.5-.9-.5-1.7.2-1.5.5-1.8.9-.5,1.8-.5,1.5.2,1.8.5c.3.2.5.8.5,1.7ZM86.5,1065.7c0,.1,0,.2-.1.3s-.2.2-.3.2c-.1.1-.3.1-.6.1h-1.8c-.2,0-.4-.1-.6-.1-.1-.1-.2-.1-.3-.2-.1-.1-.1-.2-.1-.3v-20.2c0,0,0-.2.1-.3.1,0,.1-.2.3-.2.1,0,.3,0,.6,0h1.8c.2,0,.4,0,.6,0,.1,0,.2,0,.3.2.1,0,.1.2.1.3v20.2Z"/>
        <path d="M110.2,1046.5c0,.5-.1.9-.2,1.1s-.3.3-.5.3h-2.9c.5.5.9,1.1,1.1,1.8.2.6.3,1.3.3,2,0,1.2-.2,2.2-.6,3.1-.4.9-.9,1.7-1.6,2.3s-1.5,1.1-2.5,1.4c-1,.3-2,.5-3.2.5s-1.6-.1-2.3-.3c-.7-.2-1.3-.5-1.7-.8-.3.3-.5.6-.7.9-.2.3-.3.7-.3,1.2s.2,1,.7,1.3,1.1.5,1.9.6l5.3.2c1,0,1.9.2,2.8.4.8.2,1.6.6,2.2,1.1s1.1,1,1.4,1.7.5,1.4.5,2.3-.2,1.8-.6,2.6-1,1.6-1.8,2.2c-.8.6-1.8,1.1-3.1,1.5s-2.7.5-4.4.5-3-.1-4.2-.4c-1.1-.3-2.1-.7-2.8-1.1-.7-.5-1.3-1-1.6-1.7-.3-.7-.5-1.4-.5-2.2s.1-1,.2-1.4c.1-.5.3-.9.5-1.3s.6-.8.9-1.2.8-.8,1.3-1.1c-.7-.4-1.3-.8-1.6-1.4-.4-.6-.5-1.2-.5-1.8,0-.9.2-1.7.6-2.4s.8-1.4,1.4-1.9c-.5-.6-.8-1.2-1.1-1.9-.3-.7-.4-1.5-.4-2.5s.2-2.2.6-3.1.9-1.7,1.6-2.3c.7-.6,1.5-1.1,2.5-1.4s2-.5,3.1-.5,1.2,0,1.7,0,1,.2,1.5.3h6.1c.3,0,.4,0,.6.4s.3.4.3.9ZM106.3,1067.8c0-.9-.4-1.5-1.1-2s-1.7-.7-2.9-.8l-5.2-.2c-.5.4-.9.7-1.2,1.1-.3.3-.5.7-.7,1s-.3.6-.4.9c-.1.3-.1.6-.1.9,0,1,.5,1.7,1.5,2.2s2.4.8,4.1.8,2.1-.1,2.8-.3c.8-.2,1.4-.5,1.8-.9.5-.4.8-.8,1-1.2.3-.5.4-1,.4-1.5ZM104.4,1051.8c0-1.4-.4-2.4-1.1-3.2-.8-.8-1.8-1.2-3.2-1.2s-1.3,0-1.9.4-1,.6-1.3,1c-.4.4-.6.9-.8,1.4-.2.5-.3,1.1-.3,1.7,0,1.3.4,2.4,1.1,3.1s1.8,1.1,3.2,1.1,1.4-.1,1.9-.3,1-.6,1.3-1c.4-.4.6-.9.8-1.4.3-.4.3-1,.3-1.6Z"/>
        <path d="M132.3,1065.7c0,.1,0,.2-.1.3s-.2.2-.3.2c-.1.1-.3.1-.6.1h-1.8c-.2,0-.4-.1-.6-.1-.1-.1-.2-.1-.3-.2s-.1-.2-.1-.3v-11.8c0-1.2-.1-2.1-.3-2.8s-.4-1.3-.8-1.8c-.3-.5-.8-.9-1.3-1.2-.5-.3-1.2-.4-1.9-.4s-1.9.3-2.8,1-1.9,1.6-2.9,2.9v14.1c0,.1,0,.2-.1.3s-.2.2-.3.2c-.1.1-.3.1-.6.1h-1.8c-.2,0-.4-.1-.6-.1-.1-.1-.2-.1-.3-.2-.1-.1-.1-.2-.1-.3v-20.2c0,0,0-.2.1-.3s.1-.2.3-.2c.1,0,.3,0,.5,0h1.6c.2,0,.4,0,.5,0,.1,0,.2,0,.3.2.1,0,.1.2.1.3v2.7c1.1-1.3,2.3-2.2,3.4-2.8s2.3-.9,3.4-.9,2.5.2,3.4.7,1.7,1.1,2.2,1.8c.6.8,1,1.7,1.2,2.7s.4,2.3.4,3.7v12.3h.2Z"/>
        <path d="M154.3,1065.8c0,.2-.1.3-.2.4-.1.1-.3.2-.5.2s-.5.1-.9.1-.7,0-.9-.1-.4-.1-.5-.2c-.1-.1-.2-.2-.2-.4v-2c-.9.9-1.9,1.7-2.9,2.2-1.1.5-2.2.8-3.4.8s-2-.1-2.9-.4c-.9-.3-1.6-.7-2.2-1.2s-1.1-1.2-1.4-1.9c-.3-.8-.5-1.6-.5-2.6s.2-2.1.7-3c.5-.8,1.1-1.5,2-2.1s1.9-1,3.2-1.2c1.3-.3,2.7-.4,4.2-.4h2.8v-1.7c0-.8-.1-1.5-.2-2.1-.2-.6-.4-1.1-.8-1.5s-.8-.7-1.4-.9c-.6-.2-1.3-.3-2.2-.3s-1.7,0-2.5.3-1.4.5-1.9.7c-.5.3-1,.5-1.4.7s-.6.3-.8.3-.2,0-.3,0-.2,0-.2-.3c-.1,0-.1-.3-.1-.5v-.6c0-.4,0-.7.1-.9.1-.2.2-.4.4-.6.2-.2.5-.4,1-.7.5-.3,1.1-.5,1.7-.7s1.3-.4,2.1-.5c.8,0,1.5-.2,2.3-.2,1.4,0,2.7.2,3.7.5s1.8.8,2.5,1.4c.6.6,1.1,1.4,1.4,2.4.3.9.4,2,.4,3.3v13.8h-.2ZM150.6,1056.6h-3.2c-1,0-1.9.1-2.6.3s-1.4.4-1.9.8c-.5.3-.9.7-1.1,1.2s-.3,1-.3,1.6c0,1,.3,1.9,1,2.5s1.6.9,2.8.9,1.9-.2,2.7-.7c.8-.5,1.7-1.2,2.6-2.3v-4.3Z"/>
        <path d="M164.8,1065.7c0,.1,0,.2-.1.3s-.2.2-.3.2c-.1.1-.3.1-.6.1h-1.8c-.2,0-.4-.1-.6-.1-.1-.1-.2-.1-.3-.2-.1-.1-.1-.2-.1-.3v-29.9c0,0,0-.2.1-.3.1,0,.1-.2.3-.2.1,0,.3,0,.6,0h1.8c.2,0,.4,0,.6,0,.1,0,.2,0,.3.2.1,0,.1.2.1.3v29.9Z"/>
      </g>
      <g class="cls-4">
        <path d="M206.4,1056.5c0,.3,0,.5-.1.7,0,.2-.1.4-.2.5l-.3.3c-.1.1-.2.1-.3.1h-7.4v8.2c0,.1,0,.2-.1.3s-.2.2-.3.2-.3.1-.5.1-.5.1-.8.1-.6,0-.8-.1c-.2,0-.4-.1-.5-.1s-.2-.1-.3-.2-.1-.2-.1-.3v-8.2h-7.4c-.1,0-.2,0-.3-.1l-.3-.3c-.1-.1-.1-.3-.2-.5,0-.2-.1-.4-.1-.7s0-.5.1-.7.1-.4.2-.5c.1,0,.2-.2.3-.3.1,0,.2,0,.3,0h7.4v-8.2c0,0,0-.2.1-.3.1,0,.2-.2.3-.2s.3,0,.5-.2c.2,0,.5,0,.8,0s.6,0,.8,0c.2,0,.4,0,.5.2s.2,0,.3.2.1.2.1.3v8.2h7.4c.1,0,.2,0,.3,0s.2.2.3.3c.1,0,.1.3.2.5s.1.4.1.7Z"/>
        <path d="M223.5,1068.7c-.1.2-.1.3-.2.4s-.3.2-.4.2-.4.1-.7.1h-2c-.2,0-.5,0-.6-.1-.2,0-.3-.1-.5-.1s-.2-.1-.3-.1c-.1-.1-.2-.1-.2-.2-.1-.1-.1-.2-.1-.3l-9.5-26.9c-.1-.3-.2-.6-.2-.8s.1-.4.2-.5c.1,0,.4-.2.6-.2h2.2c.2,0,.4,0,.6,0s.2,0,.3.2.1.2.2.4l8.3,24.4h0l8.1-24.4c0-.2.1-.3.2-.4.1,0,.2-.2.3-.2.1,0,.4,0,.6,0h1.1c.5,0,.8,0,1.1,0,.3,0,.5,0,.5.2.1,0,.1.3.1.5s-.1.5-.2.8l-9.5,26.9Z"/>
      </g>
      <path id="path3796" class="cls-5" d="M233.8,331.8h4.8v261h-4.8v-261Z" inkscape:connector-curvature="0"/>
      <path id="rect74" class="cls-5" d="M160.8,331.8h4.8v261h-4.8v-261Z" inkscape:connector-curvature="0"/>
      <g>
        <ellipse id="ellipse1464" class="cls-2" cx="121.9" cy="693.5" rx="50.2" ry="49.1"/>
        <ellipse id="ellipse1464-2" data-name="ellipse1464" class="cls-2" cx="274.8" cy="693.5" rx="50.2" ry="49.1"/>
      </g>
      <g>
        <rect id="rect884" class="cls-3" x="130.4" y="300.6" width="136" height="31.2"/>
        <rect id="rect884-2" data-name="rect884" class="cls-3" x="144.8" y="191" width="107.1" height="109.6"/>
      </g>
      <path d="M360.5,610h0l-1.4.7-.2-.8,1.7-.9h.9v7.8h-1v-6.8Z"/>
      <g>
        <path class="cls-1" d="M355.2,767.4v-4.5h16.9v-.2c-1.4-.9-2.6-1.9-3.7-2.8l-13.2-10.7v-5.6l14.9,12.7,20.2-13.7v5.4l-17.2,11.5,3.8,3.3h13.4v4.5h-35Z"/>
        <path class="cls-1" d="M390.2,731.8h-14.9l-20.2,11.1v-5.1l9.7-4.9c2.7-1.4,4.8-2.4,7.2-3.5h0c-2.3-1.1-4.6-2.3-7.2-3.6l-9.7-5v-5.1l20.1,11.8h14.9v4.6Z"/>
        <path class="cls-1" d="M374.4,703.7h3.4v12.8h-3.4v-12.8Z"/>
        <path class="cls-1" d="M372.9,677.3c11.5,0,17.8,4.3,17.8,11.8s-6.2,11.1-17.4,11.2c-11.3,0-17.6-4.9-17.6-11.8s6.3-11.2,17.1-11.2ZM373.5,695.7c8.8,0,13.8-2.7,13.8-6.9s-5.5-6.9-14.1-6.9-13.8,2.1-13.8,6.9,4.9,6.9,14.1,6.9Z"/>
        <path class="cls-1" d="M360.2,652.9v12.9l8.7,1.3c-.1-.8-.2-1.5-.2-2.8,0-2.6.6-5.2,1.8-7.3,1.5-2.7,4.4-4.8,8.7-4.8,6.6,0,11.5,5.3,11.5,12.6s-1,6.8-2.1,8.4l-3.5-1.1c.8-1.4,1.9-4.2,1.9-7.2s-2.8-8-7.3-8c-4.4,0-7.5,3-7.5,9.7s.2,3.4.4,4.7l-16.2-2.2v-16.2h3.8Z"/>
        <path class="cls-1" d="M390.2,632.3h-9.2v15.7h-3l-21.6-15.1v-4.9h21v-4.7h3.6v4.7h9.2v4.3ZM377.4,632.3h-11.3c-1.8,0-3.5,0-5.3-.2v.2c2,1,3.4,1.9,5,2.8l11.5,8.3h.1v-11.1Z"/>
      </g>
      <g>
        <rect id="rect118" class="cls-7" x="173.8" y="763.7" width="49.1" height="32.7"/>
        <rect id="rect122" x="177.1" y="767.1" width="42.1" height="26.2"/>
        <rect id="rect125" class="cls-7" x="159.1" y="763.7" width="14.7" height="32.7"/>
        <rect id="rect128" class="cls-7" x="222.9" y="763.7" width="14.7" height="32.7"/>
        <g class="cls-4">
          <path class="cls-1" d="M189.9,786.8c0,.2,0,.3,0,.4s0,.2-.1.3c0,0-.1.1-.2.2,0,0-.1,0-.2,0h-8.2c0,0-.1,0-.2,0s-.1,0-.2-.2c0,0,0-.2-.1-.3s0-.2,0-.4,0-.3,0-.4,0-.2.1-.3c0,0,.1-.1.2-.2,0,0,.1,0,.2,0h3.3v-11.9l-3,1.8c-.2.1-.3.1-.4.2s-.2,0-.2,0c0,0-.1-.2-.1-.3s0-.3,0-.5v-.4c0-.1,0-.2,0-.3s0-.1.1-.2c0,0,.1-.1.2-.2l3.6-2.3c0,0,0,0,.1,0s.1,0,.2,0,.2,0,.3,0h.8c.1,0,.2,0,.3,0,0,0,.1,0,.2.1s0,.1,0,.2v13.8h2.9c0,0,.1,0,.2,0s.1.1.2.2c0,0,0,.2.1.3s0,.4,0,.5Z"/>
          <path class="cls-1" d="M203,779.7c0,1.2-.1,2.3-.3,3.3-.2,1-.5,1.9-1,2.5s-1,1.3-1.8,1.6c-.7.4-1.6.6-2.7.6s-1.8-.2-2.5-.5-1.2-.8-1.6-1.5-.7-1.5-.9-2.5-.3-2.1-.3-3.4.1-2.3.3-3.3c.2-1,.5-1.9,1-2.6s1-1.3,1.8-1.6,1.6-.6,2.6-.6,1.9.2,2.5.5c.7.4,1.2.8,1.6,1.5.4.7.7,1.5.9,2.5.2,1.1.3,2.2.3,3.5ZM200.9,779.9c0-.8,0-1.5-.1-2.1,0-.6-.2-1.2-.3-1.6s-.3-.9-.4-1.2-.4-.6-.6-.8-.5-.4-.8-.5-.6-.2-1.1-.2c-.7,0-1.3.2-1.7.5s-.7.8-1,1.3c-.3.6-.4,1.2-.5,2s-.2,1.6-.2,2.4,0,2.2.2,3,.3,1.5.6,2,.6.9,1,1.1c.4.2.9.4,1.5.4s.8,0,1.2-.2.6-.4.9-.6.5-.6.6-1c.2-.4.3-.8.4-1.3s.2-1,.2-1.5c.1-.6.2-1.1.2-1.7Z"/>
          <path class="cls-1" d="M215,783.1c0,.7-.1,1.4-.4,2s-.6,1.1-1.1,1.5c-.5.4-1.1.7-1.8,1s-1.5.3-2.3.3-1,0-1.5-.1-.8-.2-1.2-.3-.6-.3-.9-.4c-.2-.1-.4-.2-.4-.3s-.1-.1-.2-.2c0,0,0-.1-.1-.2s0-.2,0-.3v-.4c0-.3,0-.5.1-.6s.2-.2.3-.2.2,0,.4.2.5.3.8.4.7.3,1.2.4c.5.1,1,.2,1.5.2s1,0,1.4-.2.7-.3,1.1-.6c.3-.3.5-.5.6-.9.2-.3.2-.7.2-1.1s-.1-.8-.3-1.2c-.2-.4-.4-.7-.8-.9-.4-.3-.8-.5-1.3-.6-.5-.2-1.1-.2-1.8-.2h-1.5c0,0-.1,0-.2,0,0,0-.1,0-.2-.2,0,0-.1-.2-.1-.3,0-.1,0-.3,0-.4s0-.3,0-.4c0-.1,0-.2.1-.3s.1-.1.2-.2.1,0,.2,0h1.4c.5,0,1,0,1.4-.2.4-.2.8-.3,1.1-.6.3-.3.5-.6.7-1s.2-.7.2-1.2,0-.6-.2-1-.3-.5-.5-.8c-.2-.2-.5-.4-.8-.5-.3-.1-.7-.2-1.1-.2s-.9,0-1.3.2c-.4.2-.7.3-1.1.5-.3.2-.6.3-.7.5-.2.2-.3.2-.4.2s-.1,0-.2,0-.1,0-.1-.1c0,0,0-.2,0-.3v-.7c0-.1,0-.2,0-.3s0-.1.1-.2c0,0,.1-.1.2-.2,0,0,.2-.2.5-.3s.5-.3.8-.4.7-.3,1.2-.4,1-.2,1.4-.2c.7,0,1.4.1,1.9.3.5.2,1,.4,1.4.8.4.3.6.7.8,1.2.2.5.3,1,.3,1.6s0,1-.2,1.4c-.1.4-.3.8-.6,1.1s-.6.6-.9.8c-.4.2-.8.4-1.3.5h0c.5,0,1.1.2,1.5.4.4.2.8.5,1.2.8.3.3.6.7.7,1.1.2.6.3,1.1.3,1.6Z"/>
        </g>
      </g>
    </g>
  </g>
</svg>